<?xml version="1.0" encoding="utf-8"?>
<!-- Generator: Adobe Illustrator 26.4.1, SVG Export Plug-In . SVG Version: 6.00 Build 0)  -->
<svg version="1.1" id="Layer_1" xmlns="http://www.w3.org/2000/svg" xmlns:xlink="http://www.w3.org/1999/xlink" x="0px" y="0px"
	 viewBox="0 0 75 75" style="enable-background:new 0 0 75 75;" xml:space="preserve">
<style type="text/css">
	.st0{fill-rule:evenodd;clip-rule:evenodd;fill:#BC83FB;}
	.st1{fill-rule:evenodd;clip-rule:evenodd;fill:#FFFFFF;}
</style>
<g>
	<circle class="st0" cx="37.5" cy="37.5" r="37.5"/>
	<g>
		<path class="st1" d="M66.32,27.02L66.32,27.02c-0.25,0.25-0.67,0.26-0.92,0c-2.67-2.71-8.07-2.72-11.94,1.14
			c-2.68,2.69-3.64,6.36-2.7,9.29c0.16,0.49-0.28,0.96-0.78,0.83c-5.35-1.39-11.45,4.67-9.95,10.08c0.12,0.44-0.2,0.9-0.66,0.85
			c-4.65-0.46-8.46,5.8-5.65,8.97c0.34,0.39,0.07,1.01-0.44,1.07c-0.78,0.09-1.58-0.16-2.18-0.76L8.01,35.4
			c-1.04-1.03-1.03-2.72,0.01-3.75l6.27-6.22c1.03-1.02,2.7-1.02,3.73,0.02L30.57,38c1.03,1.03,2.71,1.03,3.74,0L55.81,16.5
			c1.03-1.03,2.71-1.03,3.74,0l6.77,6.77C67.36,24.31,67.36,25.98,66.32,27.02z"/>
		
			<ellipse transform="matrix(0.7071 -0.7071 0.7071 0.7071 -7.275 52.6621)" class="st1" cx="59.93" cy="35.11" rx="7.09" ry="5.91"/>
		
			<ellipse transform="matrix(0.7071 -0.7071 0.7071 0.7071 -18.559 47.2102)" class="st1" cx="47.71" cy="46.01" rx="5.35" ry="4.46"/>
		
			<ellipse transform="matrix(0.7071 -0.7071 0.7071 0.7071 -27.6159 43.4588)" class="st1" cx="38.65" cy="55.06" rx="3.35" ry="2.79"/>
	</g>
</g>
</svg>
