<?xml version="1.0" encoding="utf-8"?>
<!-- Generator: Adobe Illustrator 27.1.1, SVG Export Plug-In . SVG Version: 6.00 Build 0)  -->
<svg version="1.1" id="Layer_1" xmlns="http://www.w3.org/2000/svg" xmlns:xlink="http://www.w3.org/1999/xlink" x="0px" y="0px"
	 viewBox="0 0 75 75" style="enable-background:new 0 0 75 75;" xml:space="preserve">
<style type="text/css">
	.st0{fill:#FFFFFF;}
	.st1{fill-rule:evenodd;clip-rule:evenodd;fill:#BC83FB;}
</style>
<ellipse transform="matrix(0.7071 -0.7071 0.7071 0.7071 -15.533 37.5)" class="st0" cx="37.5" cy="37.5" rx="38.92" ry="36.03"/>
<g>
	<path id="inc_00000052102702251356517240000009980933011380465280_" class="st1" d="M32.96,55.83c-3.24,1.17-5.05,4.61-4.03,7.66
		c1.02,3.05,4.48,4.58,7.72,3.41c3.24-1.17,5.05-4.61,4.03-7.66C39.66,56.19,36.2,54.66,32.96,55.83L32.96,55.83z"/>
	<g>
		<g>
			<path class="st1" d="M43.19,21.1c-0.26,2.9,1.04,5.62,2.34,7.36c0.36,0.49,0.13,1.17-0.46,1.34c-3.46,0.96-6.28,5.18-4.95,8.79
				c0.17,0.47-0.04,1.02-0.53,1.14c-2.02,0.5-3.69,2.42-3.41,5.21c0.18,1.79,1.09,2.95,1.83,3.61c0.27,0.25,0.1,0.7-0.26,0.7h-6.87
				c-0.55,0-1.04-0.33-1.25-0.84v0c-1.58-3.23-1.02-7.27,0.91-10.72c2.23-3.99,6.05-8.71,8.83-11.28c2.59-2.41,3.07-5.96,0.72-8.48
				c-3.03-3.25-8.76-1.68-10.28,3.04c-0.26,0.81-0.34,1.6-0.25,2.34c0.06,0.5-0.3,0.94-0.77,0.94h-8.12c-0.43,0-0.78-0.36-0.78-0.81
				c-0.01-1.46,0.27-2.95,0.74-4.51c3.53-11.68,19.6-14.98,27.35-6.39c0.39,0.43,0.25,1.1-0.27,1.36
				C45.33,15.07,43.5,17.62,43.19,21.1z"/>
			<line class="st1" x1="28.97" y1="41.57" x2="28.91" y2="41.57"/>
		</g>
		<g>
			<path class="st1" d="M55.13,22.71c-0.11,4.37-4.04,7-7.07,4.73s-2.89-7.74,0.25-9.84C51.45,15.5,55.24,18.33,55.13,22.71z"/>
			<path class="st1" d="M48.58,38.69c-2.02,2.55-5.53,2.19-6.32-0.65c-0.79-2.84,1.74-6.02,4.54-5.73S50.59,36.15,48.58,38.69z"/>
			<path class="st1" d="M43.08,44.49c0.23,2.21-1.57,3.81-3.24,2.88c-1.67-0.92-1.96-3.68-0.52-4.96
				C40.76,41.12,42.85,42.28,43.08,44.49z"/>
		</g>
	</g>
</g>
</svg>
