<svg enable-background="new 0 0 75 75" version="1.1" viewBox="0 0 75 75" xmlns="http://www.w3.org/2000/svg">
 <style type="text/css">.st0{fill:#FFFFFF;}
	.st1{fill:#BC83FB;}
	.st2{fill:#383838;}
	.st3{fill:#666666;}
	.st4{fill-rule:evenodd;clip-rule:evenodd;fill:#BC83FB;}
	.st5{fill-rule:evenodd;clip-rule:evenodd;fill:#5A007E;}
	.st6{fill-rule:evenodd;clip-rule:evenodd;fill:#D8B6FF;}</style>
 <ellipse class="st0" transform="matrix(.7071 -.7071 .7071 .7071 -15.31 37.41)" cx="37.5" cy="37.19" rx="38.92" ry="36.03"/>
 <path class="st1" d="m39.89 39.78v-4.84s-1.34-0.68-3.05-0.68c-1.72 0-3.05 0.68-3.05 0.68v4.84s1.34 0.68 3.05 0.68 3.05-0.68 3.05-0.68z"/>
 <path class="st1" d="m44.91 36.73-4.58-6.28c-0.61-0.84-1.94-0.41-1.94 0.63v12.56c0 1.04 1.33 1.47 1.94 0.63l4.58-6.27c0.27-0.38 0.27-0.89 0-1.27z"/>
 <path class="st1" d="m28.77 36.73 4.58-6.28c0.61-0.84 1.94-0.41 1.94 0.63v12.56c0 1.04-1.33 1.47-1.94 0.63l-4.58-6.27c-0.27-0.38-0.27-0.89 0-1.27z"/>
 <polygon class="st2" points="54.6 44.84 49.39 53.84 59.81 53.84"/>
 <path class="st2" d="m58.75 37.66-4.15 7.18h10.41l-4.15-7.18c-0.47-0.81-1.64-0.81-2.11 0z"/>
 <polygon points="59.81 53.84 65.01 44.84 54.6 44.84"/>
 <path class="st3" d="m49.39 53.84 5.21-9h-8.3c-0.94 0-1.52 1.02-1.05 1.83l4.14 7.17z"/>
 <polygon class="st2" points="54.6 29.89 59.81 20.89 49.39 20.89"/>
 <path class="st2" d="m50.45 37.07 4.15-7.18h-10.41l4.15 7.18c0.47 0.81 1.64 0.81 2.11 0z"/>
 <polygon points="49.39 20.89 44.19 29.89 54.6 29.89"/>
 <path class="st3" d="m59.81 20.89-5.21 9h8.3c0.94 0 1.52-1.02 1.05-1.83l-4.14-7.17z"/>
 <path class="st4" d="m11.24 24.94s-0.24-1.1-0.53-2.4c-0.48-2.16 0.51-4.38 2.44-5.48 1.25-0.71 2.61-1.83 3.59-3.57"/>
 <path d="m11.24 25.54c-0.28 0-0.53-0.19-0.59-0.47l-0.53-2.4c-0.26-1.19-0.14-2.4 0.36-3.51 0.49-1.11 1.32-2.02 2.37-2.62 1.44-0.82 2.57-1.95 3.36-3.35 0.16-0.29 0.53-0.39 0.82-0.23s0.39 0.53 0.23 0.82c-0.9 1.59-2.18 2.87-3.81 3.8-1.71 0.97-2.57 2.91-2.15 4.83l0.53 2.4c0.07 0.32-0.13 0.65-0.46 0.72-0.05 0.01-0.09 0.01-0.13 0.01z"/>
 <path class="st4" d="m26.22 24.94s0.15-0.67 0.34-1.53c0.4-1.8-0.46-3.65-2.1-4.51-1.65-0.86-3.41-2.47-3.56-5.41l-0.03 9.9 5.35 1.55z"/>
 <path d="m26.22 25.54c-0.06 0-0.11-0.01-0.17-0.02l-5.34-1.55c-0.26-0.07-0.44-0.31-0.43-0.58l0.03-9.9c0-0.33 0.26-0.59 0.59-0.6 0.32-0.01 0.6 0.24 0.62 0.57 0.12 2.19 1.21 3.85 3.24 4.91 1.88 0.98 2.87 3.11 2.41 5.17l-0.34 1.53c-0.04 0.16-0.14 0.3-0.28 0.39-0.12 0.05-0.23 0.08-0.33 0.08zm-4.74-2.6 4.29 1.24 0.2-0.9c0.34-1.53-0.39-3.12-1.79-3.84-0.91-0.48-1.92-1.21-2.69-2.3l-0.01 5.8z"/>
 <path class="st4" d="m17.75 11.57s0.25-1.14 1.53-1.15c0.71 0 1.34 0.47 1.53 1.15 0 0 0.57 4.23 0.88 6.46 0.11 0.83 0.48 1.6 1.06 2.2 2.02 2.13 6.5 7.88 2.1 13.26 0 0-0.35-4.55-5.85-4.55h-0.19c-5.5 0-6.22 4.55-6.22 4.55-5.52-6.76 3.47-18.06 5.16-21.92z"/>
 <path d="m12.6 34.23c-0.22 0-0.43-0.1-0.58-0.27-4.76-5.82 0.34-14.49 3.38-19.68 0.7-1.2 1.31-2.23 1.64-2.96 0.17-0.61 0.82-1.64 2.23-1.65h0.01c1.03 0 1.95 0.69 2.24 1.69 0.02 0.08 0.03 0.18 0.05 0.3l0.85 6.27c0.09 0.68 0.39 1.3 0.86 1.79 0.97 1.03 2.74 3.13 3.62 5.68 0.49 1.42 0.66 2.81 0.49 4.14-0.2 1.57-0.86 3.06-1.97 4.42-0.19 0.23-0.51 0.33-0.8 0.24s-0.49-0.35-0.52-0.65c0-0.01-0.09-1-0.77-1.96-0.88-1.26-2.34-1.9-4.34-1.9h-0.19c-4.77 0-5.46 3.77-5.49 3.93-0.05 0.29-0.26 0.52-0.54 0.6-0.04 0-0.1 0.01-0.17 0.01zm5.83-22.37c-0.35 0.81-1 1.9-1.74 3.17-1.44 2.46-3.42 5.82-4.44 9.13-0.96 3.14-0.92 5.66 0.14 7.68 0.17-0.34 0.38-0.71 0.66-1.08 0.88-1.15 2.56-2.52 5.61-2.57h0.04 0.42 0.04c1.73 0.03 4.02 0.51 5.44 2.6 0.22 0.33 0.4 0.65 0.53 0.96 0.98-1.79 1.1-3.76 0.37-5.88-0.79-2.29-2.41-4.2-3.3-5.14-0.69-0.72-1.12-1.63-1.25-2.61l-0.54-3.98c-0.16-1.19-0.29-2.17-0.33-2.42-0.12-0.34-0.44-0.58-0.8-0.57-0.62 0-0.78 0.44-0.82 0.58 0 0.05-0.01 0.09-0.03 0.13zm-0.68-0.29z"/>
 <path class="st4" d="m24.39 35.28c1.86 0.8 2.5 3.09 1.99 4.99-2.36 12.15-8.48 22.86-10.96 23.69 0 0 0.45-2.99 0.68-4.48 0.1-0.65 0.06-1.32-0.1-1.96-0.66-2.5-2.21-4.61-2.83-7.03-0.94-3.62-1.19-7.56-2.41-11.98-0.36-1.3 0.23-2.68 1.43-3.31 1.7-0.33 0.25-2.22 0.17-3.62 1.32-3.95 2.38-5.31 5.87-5.35 3.79-0.34 5.92 2.59 6.89 5.28-0.33 3.41-0.92 3.11-0.73 3.77z"/>
 <path class="st5" d="m25.02 45.84c-3.47 13.83-1.6 15.16-1.6 15.16l-2.5-2.34"/>
 <path d="m23.42 61.75c-0.15 0-0.3-0.05-0.43-0.14-0.04-0.03-0.08-0.06-0.12-0.11l-2.45-2.3c-0.3-0.28-0.31-0.75-0.03-1.05s0.75-0.31 1.05-0.03l0.75 0.7c-0.07-2.23 0.37-6.18 2.12-13.16 0.1-0.4 0.5-0.64 0.9-0.54s0.64 0.5 0.54 0.9c-1.28 5.1-1.98 9.06-2.07 11.76-0.07 1.99 0.23 2.6 0.28 2.7 0.27 0.27 0.29 0.7 0.05 0.99-0.16 0.18-0.38 0.28-0.59 0.28zm0.53-1.25z"/>
 <path class="st5" d="m12.88 49.34c0.22 5.98 1.38 9.41-0.71 10.47 0 0 2.21-0.06 3.33-1.88"/>
 <path d="m12.17 60.55c-0.34 0-0.64-0.23-0.72-0.56-0.09-0.34 0.07-0.69 0.39-0.84 1.01-0.51 0.92-2.09 0.62-5.32-0.12-1.3-0.25-2.77-0.32-4.46-0.02-0.41 0.3-0.75 0.71-0.77 0.41-0.01 0.75 0.3 0.77 0.71 0.06 1.65 0.19 3.1 0.31 4.38 0.16 1.7 0.28 3.04 0.17 4.12-0.02 0.19-0.05 0.4-0.1 0.62 0.32-0.22 0.63-0.51 0.87-0.89 0.22-0.35 0.67-0.46 1.02-0.24 0.35 0.21 0.46 0.67 0.24 1.02-1.32 2.13-3.83 2.23-3.94 2.23h-0.02z"/>
 <path class="st6" d="m23.46 35.88 1.65 1.01c0.48 0.29 0.72 0.86 0.59 1.41-0.73 3.1-3.15 13.14-4.74 16.01l-0.05 0.17-0.16 0.59c-0.13 0.63-0.28 1.4-0.27 1.01l0.27-1.01c0.07-0.34 0.14-0.64 0.17-0.71l0.03-0.06c2.1-7.75 3.83-13.54-0.23-16.7 1.43-0.24 2.33-0.8 2.74-1.72z"/>
 <path class="st5" d="m18.59 12.18c0.03-0.61-1.04 2.2-1.1 2.41-1.87 5.94-6.92 9.47-4.83 16.42 0.02 0.06 0.22-0.35 0.62-1.05 1.13-2.01 4.2-2.57 4.2-2.57-5.85-4.54 0.91-10.61 1.11-15.21z"/>
 <path class="st6" d="m19.71 12.55c0.15-0.59 0.4 1.27 0.36 1.48-1.09 5.75 7.67 10.72 4.65 17.35-0.01 0.03-0.23-1.01-0.83-1.79-0.62-0.81-1.62-1.37-1.62-1.37 3.25-3.63-4.48-7.97-2.56-15.67z"/>
 <path class="st5" d="m15.96 37.41c-3.91 3.23 0.55 16.86 1 22.44 0 0.06-0.02 0.12-0.03 0.18-0.1 0.6-0.09-1.04-0.12-1.26-0.22-1.89-1.22-4.68-2.32-7.01-1.14-2.41-1.32-6.17-1.59-8.75-0.43-4.19-1.88-5.26 0.87-7.36 0.01-0.01 0.08 0.03 0.21 0.09 0.3 0.81 0.96 1.36 1.98 1.67z"/>
 <path class="st6" d="m16.19 37.48 0.09 0.02c-0.84 1.22-1.93 5.52 0.06 17.29-0.49-2.87-3.14-13.75-0.21-17.33l0.06 0.02z"/>
 <path class="st5" d="m16.45 37.54c0.62 0.14 1.34 0.2 2.17 0.21-2.28 1.09-3.46 2.68-1.33 13.54 0.62 3.17-0.35 6.27-0.33 8.56 0 0.06-0.02 0.12-0.03 0.18-0.1 0.6-0.09-1.04-0.12-1.26-0.72-8.62-1.89-16.2-0.36-21.23z"/>
 <path d="m15.42 64.7c-0.17 0-0.34-0.06-0.48-0.17-0.2-0.17-0.3-0.42-0.26-0.68l0.68-4.48c0.08-0.56 0.06-1.12-0.09-1.66-0.31-1.19-0.86-2.33-1.39-3.43-0.55-1.14-1.12-2.33-1.45-3.6-0.43-1.67-0.72-3.39-1.02-5.2-0.33-1.98-0.67-4.04-1.24-6.21-0.51-1.96 0.45-3.99 2.3-4.83 0.02-0.01 0.03-0.02 0.05-0.02 0.38-0.16 0.81 0.01 0.98 0.38 0.16 0.37 0 0.81-0.38 0.98-1.21 0.53-1.84 1.85-1.51 3.12 0.58 2.24 0.93 4.32 1.27 6.34 0.3 1.78 0.58 3.46 0.99 5.07 0.29 1.13 0.8 2.2 1.35 3.33 0.56 1.16 1.14 2.37 1.49 3.69 0.19 0.74 0.23 1.5 0.12 2.26l-0.39 2.6c0.97-1.1 2.31-3.08 3.84-6.17 1.4-2.82 3.96-8.63 5.37-15.9 0-0.02 0.01-0.03 0.01-0.05 0.53-2.01-0.41-3.62-1.57-4.12-0.38-0.16-0.55-0.6-0.39-0.97 0.16-0.38 0.6-0.55 0.98-0.39 1.05 0.45 1.86 1.35 2.29 2.51 0.38 1.04 0.42 2.22 0.14 3.32-1.07 5.5-3.02 11.27-5.49 16.25-1.05 2.12-2.15 3.98-3.16 5.37-1.09 1.49-2.01 2.35-2.79 2.61-0.09 0.04-0.17 0.05-0.25 0.05zm10.96-24.43z"/>
 <path class="st6" d="m19.6 55.77c-0.22 0.9 0.15 1.78 0.83 1.97s1.42-0.39 1.64-1.28c0.22-0.9-0.15-1.78-0.83-1.97s-1.42 0.39-1.64 1.28z"/>
 <path d="m20.69 58.52c-0.16 0-0.31-0.02-0.46-0.06-1.08-0.3-1.68-1.56-1.35-2.86 0.18-0.7 0.6-1.29 1.16-1.62 0.44-0.26 0.94-0.33 1.4-0.2 1.08 0.3 1.68 1.56 1.35 2.86-0.18 0.7-0.6 1.29-1.16 1.62-0.29 0.17-0.62 0.26-0.94 0.26zm0.29-3.32c-0.06 0-0.13 0.02-0.19 0.06-0.21 0.12-0.39 0.39-0.46 0.7-0.13 0.52 0.06 1 0.31 1.07 0.08 0.02 0.17 0 0.26-0.05 0.21-0.12 0.39-0.39 0.46-0.7 0.13-0.52-0.06-1-0.31-1.07-0.03-0.01-0.05-0.01-0.07-0.01zm-1.38 0.57z"/>
 <path class="st6" d="m20.97 51.48c-0.31 1.13 0.14 2.26 1 2.52s1.81-0.45 2.12-1.58-0.14-2.26-1-2.52-1.81 0.45-2.12 1.58z"/>
 <path d="m22.33 54.79c-0.19 0-0.39-0.03-0.57-0.08-0.63-0.19-1.14-0.69-1.41-1.37-0.25-0.62-0.28-1.35-0.08-2.05 0.23-0.84 0.75-1.53 1.42-1.9 0.52-0.29 1.1-0.36 1.63-0.2 0.63 0.19 1.14 0.69 1.41 1.37 0.25 0.62 0.28 1.35 0.08 2.05-0.23 0.84-0.75 1.53-1.42 1.9-0.34 0.18-0.7 0.28-1.06 0.28zm-0.64-3.12c-0.22 0.8 0.08 1.49 0.49 1.61 0.15 0.05 0.31 0.02 0.49-0.08 0.32-0.18 0.58-0.55 0.7-0.99 0.22-0.8-0.08-1.49-0.49-1.61-0.15-0.05-0.31-0.02-0.49 0.08-0.32 0.18-0.58 0.55-0.7 0.99z"/>
 <path class="st6" d="m18.48 58.86c-0.42 0.7-0.32 1.51 0.21 1.83 0.54 0.31 1.32 0 1.74-0.69 0.42-0.7 0.32-1.51-0.21-1.83-0.54-0.31-1.32 0-1.74 0.69z"/>
 <path d="m19.17 61.56c-0.29 0-0.58-0.07-0.85-0.23-0.39-0.23-0.66-0.6-0.78-1.06-0.15-0.57-0.03-1.23 0.31-1.79 0.64-1.06 1.84-1.47 2.75-0.95 0.39 0.23 0.66 0.6 0.78 1.06 0.15 0.57 0.04 1.23-0.31 1.79-0.46 0.75-1.19 1.18-1.9 1.18zm0.57-2.77c-0.17 0-0.44 0.15-0.63 0.46-0.16 0.26-0.18 0.51-0.14 0.66 0.01 0.05 0.04 0.12 0.09 0.15 0.14 0.08 0.5-0.05 0.73-0.43 0.16-0.26 0.18-0.51 0.14-0.66-0.01-0.05-0.04-0.12-0.09-0.15-0.02-0.02-0.06-0.03-0.1-0.03zm-1.26 0.07z"/>
 <path class="st6" d="m16.68 61.41c-0.54 0.49-0.66 1.19-0.27 1.56s1.14 0.28 1.67-0.21c0.54-0.49 0.66-1.19 0.27-1.56-0.38-0.37-1.13-0.28-1.67 0.21z"/>
 <path d="m17.04 63.94c-0.43 0-0.84-0.14-1.15-0.44-0.3-0.29-0.46-0.69-0.45-1.12 0.01-0.55 0.28-1.1 0.74-1.52 0.83-0.76 2.01-0.84 2.69-0.19 0.3 0.29 0.46 0.69 0.45 1.12-0.01 0.55-0.28 1.1-0.74 1.52-0.45 0.42-1.01 0.63-1.54 0.63zm0.7-2.23c-0.13 0-0.35 0.06-0.55 0.24-0.25 0.23-0.27 0.45-0.25 0.49 0.05 0.04 0.36 0.04 0.65-0.23 0.25-0.22 0.27-0.44 0.25-0.49-0.02 0-0.05-0.01-0.1-0.01zm-1.06-0.3z"/>
 <path d="m18.96 34.73c-0.4 0-0.76-0.25-0.89-0.62-0.01-0.03-0.02-0.06-0.02-0.09 0-0.15 0.12-0.27 0.27-0.27 0.12 0 0.22 0.08 0.26 0.18 0.06 0.16 0.22 0.26 0.39 0.26s0.33-0.11 0.39-0.27v-0.01c0.05-0.14 0.21-0.21 0.35-0.16s0.21 0.21 0.16 0.35v0.01c-0.15 0.37-0.51 0.62-0.91 0.62zm-0.37-0.71z"/>
 <path d="m23.02 33.03c-0.14 0-0.27-0.06-0.36-0.17l-0.07-0.08c-0.33-0.41-0.94-0.5-1.38-0.2l-0.16 0.11c-0.21 0.15-0.5 0.09-0.65-0.12s-0.09-0.5 0.12-0.64l0.16-0.11c0.84-0.58 1.99-0.41 2.63 0.38l0.07 0.08c0.16 0.2 0.13 0.49-0.07 0.65-0.08 0.06-0.18 0.1-0.29 0.1z"/>
 <path d="m14.78 33.09c-0.12 0-0.24-0.05-0.33-0.14-0.18-0.18-0.18-0.47 0-0.65l0.24-0.24c0.6-0.6 1.52-0.74 2.27-0.35l0.44 0.23c0.23 0.12 0.32 0.4 0.2 0.62-0.12 0.23-0.4 0.32-0.62 0.2l-0.44-0.23c-0.4-0.2-0.88-0.13-1.19 0.19l-0.24 0.24c-0.09 0.09-0.21 0.13-0.33 0.13z"/>
</svg>
