<svg enable-background="new 0 0 75 75" version="1.1" viewBox="0 0 75 75" xmlns="http://www.w3.org/2000/svg">
 <style type="text/css">.st0{fill:#FFFFFF;}
	.st1{fill:#BC83FB;}</style>
 <ellipse class="st0" transform="matrix(.7071 -.7071 .7071 .7071 -15.53 37.5)" cx="37.5" cy="37.5" rx="38.92" ry="36.03"/>
 <path class="st1" d="m65.02 46.58v-18.16c0-3.28-1.82-6.28-4.72-7.8l-18.12-9.49c-2.93-1.53-6.42-1.53-9.35 0l-18.13 9.49c-2.9 1.52-4.72 4.53-4.72 7.8v18.16c0 3.28 1.82 6.28 4.72 7.8l18.12 9.49c2.93 1.53 6.42 1.53 9.35 0l18.12-9.49c2.91-1.52 4.73-4.52 4.73-7.8z"/>
 <path class="st0" d="m37.5 62.21c-1.37 0-2.74-0.33-3.98-0.98l-16.57-8.67c-2.48-1.3-4.02-3.84-4.02-6.64v-16.84c0-2.8 1.54-5.34 4.02-6.64l16.57-8.67c2.49-1.31 5.47-1.31 7.96 0l16.57 8.67c2.48 1.3 4.02 3.84 4.02 6.64v16.83c0 2.8-1.54 5.34-4.02 6.64l-16.57 8.67c-1.24 0.67-2.61 0.99-3.98 0.99zm0-47.22c-1.02 0-2.03 0.24-2.96 0.73l-16.57 8.67c-1.75 0.92-2.84 2.72-2.84 4.69v16.83c0 1.98 1.09 3.78 2.84 4.69l16.57 8.67c1.86 0.97 4.07 0.97 5.92 0l16.57-8.67c1.75-0.92 2.84-2.71 2.84-4.69v-16.83c0-1.98-1.09-3.77-2.84-4.69l-16.57-8.67c-0.93-0.49-1.94-0.73-2.96-0.73z"/>
 <path d="m26.97 31.86v5.82c0 0.3-0.37 0.43-0.57 0.2l-5.33-6.43c-0.12-0.15-0.3-0.23-0.49-0.23h-2.27c-0.35 0-0.64 0.29-0.64 0.64v12.5c0 0.35 0.29 0.64 0.64 0.64h2.54c0.35 0 0.64-0.29 0.64-0.64v-5.82c0-0.3 0.37-0.43 0.57-0.2l5.33 6.43c0.12 0.15 0.3 0.23 0.49 0.23h2.27c0.35 0 0.64-0.29 0.64-0.64v-12.5c0-0.35-0.29-0.64-0.64-0.64h-2.54c-0.36 0-0.64 0.28-0.64 0.64z"/>
 <path d="m43.52 33.59v-1.73c0-0.35-0.29-0.64-0.64-0.64h-9.53c-0.35 0-0.64 0.29-0.64 0.64v12.5c0 0.35 0.29 0.64 0.64 0.64h2.62c0.35 0 0.64-0.29 0.64-0.64v-3.45c0-0.35 0.29-0.64 0.64-0.64h4.81c0.35 0 0.64-0.29 0.64-0.64v-1.73c0-0.35-0.29-0.64-0.64-0.64h-4.81c-0.35 0-0.64-0.29-0.64-0.64v-1.75c0-0.35 0.29-0.64 0.64-0.64h5.63c0.36 0 0.64-0.29 0.64-0.64z"/>
 <path d="m44.98 31.86v1.81c0 0.35 0.29 0.64 0.64 0.64h2.96c0.35 0 0.64 0.29 0.64 0.64v9.41c0 0.35 0.29 0.64 0.64 0.64h2.62c0.35 0 0.64-0.29 0.64-0.64v-9.41c0-0.35 0.29-0.64 0.64-0.64h2.94c0.35 0 0.64-0.29 0.64-0.64v-1.81c0-0.35-0.29-0.64-0.64-0.64h-11.08c-0.35 0-0.64 0.28-0.64 0.64z"/>
</svg>
