<svg enable-background="new 0 0 75 75" version="1.1" viewBox="0 0 75 75" xmlns="http://www.w3.org/2000/svg">
 <style type="text/css">.st0{fill:#FFFFFF;}
	.st1{fill:#BC83FB;}</style>
 <ellipse class="st0" transform="matrix(.7071 -.7071 .7071 .7071 -15.53 37.5)" cx="37.5" cy="37.5" rx="38.92" ry="36.03"/>
 <path d="m49.44 63.68c-0.66 0-1.2-0.54-1.2-1.2s0.54-1.2 1.2-1.2h6.76c0.66 0 1.24 0.54 1.24 1.2s-0.5 1.2-1.16 1.2v-1.2l-0.03 1.2h-6.81zm-7.73 0h-6.76c-0.66 0-1.2-0.54-1.2-1.2s0.54-1.2 1.2-1.2h6.76c0.66 0 1.2 0.54 1.2 1.2s-0.54 1.2-1.2 1.2zm-14.49 0h-6.76c-0.66 0-1.2-0.54-1.2-1.2s0.54-1.2 1.2-1.2h6.76c0.66 0 1.2 0.54 1.2 1.2s-0.54 1.2-1.2 1.2zm-13.35-3.2c-0.4 0-0.8-0.21-1.03-0.58-0.75-1.23-1.15-2.64-1.15-4.09v-3.11c0-0.66 0.54-1.2 1.2-1.2s1.2 0.54 1.2 1.2v3.12c0 1 0.27 1.99 0.79 2.84 0.35 0.57 0.17 1.3-0.4 1.65-0.18 0.12-0.4 0.17-0.61 0.17zm48.47-0.87c-0.16 0-0.31-0.03-0.47-0.09-0.61-0.26-0.9-0.96-0.64-1.57 0.28-0.67 0.43-1.39 0.43-2.12v-4.1c0-0.66 0.54-1.2 1.2-1.2s1.2 0.54 1.2 1.2v4.1c0 1.06-0.21 2.09-0.62 3.06-0.19 0.45-0.63 0.72-1.1 0.72zm-49.44-13.44c-0.66 0-1.2-0.54-1.2-1.2v-6.76c0-0.66 0.54-1.2 1.2-1.2s1.2 0.54 1.2 1.2v6.76c0 0.67-0.54 1.2-1.2 1.2zm49.96-0.98c-0.66 0-1.2-0.54-1.2-1.2v-6.76c0-0.66 0.54-1.2 1.2-1.2s1.2 0.54 1.2 1.2v6.76c0 0.67-0.54 1.2-1.2 1.2zm-49.96-13.51c-0.66 0-1.2-0.54-1.2-1.2v-6.76c0-0.66 0.54-1.2 1.2-1.2s1.2 0.54 1.2 1.2v6.76c0 0.67-0.54 1.2-1.2 1.2zm49.96-0.97c-0.66 0-1.2-0.54-1.2-1.2v-6.76c0-0.66 0.54-1.2 1.2-1.2s1.2 0.54 1.2 1.2v6.76c0 0.66-0.54 1.2-1.2 1.2zm-49.22-13.39c-0.19 0-0.38-0.04-0.55-0.14-0.59-0.31-0.82-1.03-0.51-1.62 1.26-2.43 3.64-4.01 6.37-4.22 0.65-0.05 1.24 0.44 1.29 1.1s-0.44 1.24-1.1 1.29c-1.89 0.15-3.55 1.24-4.42 2.93-0.23 0.42-0.65 0.66-1.08 0.66zm47.96-0.84c-0.37 0-0.74-0.17-0.97-0.5-1.03-1.42-2.68-2.27-4.43-2.27h-0.46c-0.66 0-1.2-0.54-1.2-1.2s0.54-1.2 1.2-1.2h0.46c2.52 0 4.9 1.22 6.38 3.26 0.39 0.54 0.27 1.29-0.27 1.68-0.22 0.16-0.46 0.23-0.71 0.23zm-13.59-2.76h-6.76c-0.66 0-1.2-0.54-1.2-1.2s0.54-1.2 1.2-1.2h6.76c0.66 0 1.2 0.54 1.2 1.2s-0.53 1.2-1.2 1.2zm-14.48 0h-6.76c-0.66 0-1.2-0.54-1.2-1.2s0.54-1.2 1.2-1.2h6.76c0.66 0 1.2 0.54 1.2 1.2s-0.54 1.2-1.2 1.2z"/>
 <path class="st1" d="m52.78 57.82h-29.8c-2.99 0-5.42-2.43-5.42-5.42v-29.8c0-2.99 2.43-5.42 5.42-5.42h29.8c2.99 0 5.42 2.43 5.42 5.42v29.8c0 3-2.43 5.42-5.42 5.42z"/>
 <path d="m30.28 30.69h-4.55c-0.33 0-0.59-0.27-0.59-0.59v-1.25c0-0.33 0.27-0.59 0.59-0.59h3.71c0.33 0 0.59-0.27 0.59-0.59v-0.71c0-0.33-0.27-0.59-0.59-0.59h-3.71c-0.33 0-0.59-0.27-0.59-0.59v-1.1c0-0.33 0.27-0.59 0.59-0.59h4.36c0.33 0 0.59-0.27 0.59-0.59v-0.8c0-0.33-0.27-0.59-0.59-0.59h-6.78c-0.33 0-0.59 0.27-0.59 0.59v9.36c0 0.33 0.27 0.59 0.59 0.59h6.98c0.33 0 0.59-0.27 0.59-0.59v-0.77c0-0.33-0.27-0.6-0.6-0.6z"/>
 <path d="m39.84 32.65h1.19c0.48 0 0.76-0.54 0.49-0.93l-1.71-2.45c0.01 0 0.01 0 0.02-0.01 0.68-0.3 1.21-0.74 1.58-1.3 0.37-0.57 0.56-1.24 0.56-2.03s-0.19-1.48-0.56-2.05-0.9-1.01-1.58-1.32-1.5-0.46-2.44-0.46h-3.97c-0.33 0-0.59 0.27-0.59 0.59v9.36c0 0.33 0.27 0.59 0.59 0.59h1.25c0.33 0 0.59-0.27 0.59-0.59v-1.75c0-0.33 0.27-0.59 0.59-0.59h1.53 0.11l1.85 2.69c0.12 0.16 0.3 0.25 0.5 0.25zm-0.9-8.07c0.37 0.32 0.56 0.77 0.56 1.36 0 0.57-0.19 1.02-0.56 1.35s-0.93 0.49-1.69 0.49h-1.4c-0.33 0-0.59-0.27-0.59-0.59v-2.49c0-0.33 0.27-0.59 0.59-0.59h1.4c0.75-0.02 1.32 0.14 1.69 0.47z"/>
 <path d="m50.52 30.44c-0.44 0.21-0.92 0.31-1.45 0.31-0.49 0-0.94-0.08-1.36-0.24-0.41-0.16-0.77-0.39-1.07-0.69s-0.53-0.66-0.7-1.07-0.25-0.87-0.25-1.37 0.08-0.96 0.25-1.37 0.4-0.77 0.7-1.07 0.66-0.53 1.07-0.69 0.86-0.24 1.36-0.24c0.52 0 1 0.1 1.45 0.31 0.3 0.14 0.57 0.32 0.84 0.55 0.22 0.2 0.57 0.19 0.79-0.01l0.71-0.65c0.26-0.24 0.25-0.64 0-0.88-0.41-0.39-0.88-0.69-1.42-0.92-0.74-0.32-1.56-0.47-2.48-0.47-0.82 0-1.58 0.13-2.27 0.4s-1.3 0.65-1.82 1.14-0.92 1.07-1.21 1.73-0.43 1.39-0.43 2.18 0.14 1.52 0.43 2.18 0.69 1.24 1.2 1.73 1.12 0.87 1.82 1.14 1.45 0.4 2.27 0.4c0.92 0 1.76-0.16 2.49-0.48 0.54-0.23 1.01-0.54 1.42-0.93 0.25-0.24 0.25-0.64 0-0.88l-0.7-0.65c-0.22-0.21-0.57-0.21-0.79-0.01-0.27 0.23-0.55 0.42-0.85 0.55z"/>
 <path d="m32.91 45.69c0.82-0.76 1.44-1.46 1.86-2.07 0.42-0.62 0.71-1.2 0.85-1.76s0.21-1.12 0.21-1.68c0-1.06-0.27-1.98-0.81-2.75-0.54-0.76-1.3-1.36-2.27-1.78s-2.11-0.64-3.41-0.64c-1.56 0-2.94 0.29-4.14 0.87-0.93 0.45-1.71 1.03-2.32 1.74-0.27 0.32-0.2 0.81 0.15 1.04l1.8 1.16c0.28 0.18 0.65 0.14 0.87-0.1 0.36-0.38 0.77-0.68 1.23-0.89 0.62-0.28 1.3-0.42 2.03-0.42 0.91 0 1.61 0.19 2.08 0.56s0.71 0.91 0.71 1.61c0 0.27-0.05 0.56-0.14 0.87-0.09 0.32-0.26 0.67-0.51 1.05s-0.64 0.82-1.17 1.3l-6.52 6.16c-0.14 0.13-0.22 0.31-0.22 0.5v1.63c0 0.38 0.31 0.69 0.69 0.69h11.82c0.38 0 0.69-0.31 0.69-0.69v-1.91c0-0.38-0.31-0.69-0.69-0.69h-5.08c-0.63 0-0.93-0.77-0.48-1.2l2.77-2.6z"/>
 <path d="m49.41 36.07c-1.12-0.71-2.41-1.06-3.86-1.06-1.43 0-2.71 0.35-3.84 1.06s-2.02 1.73-2.67 3.08-0.97 2.98-0.97 4.89 0.32 3.54 0.97 4.89 1.54 2.37 2.67 3.08 2.41 1.06 3.84 1.06c1.45 0 2.73-0.35 3.86-1.06 1.12-0.71 2.01-1.73 2.66-3.08s0.97-2.98 0.97-4.89-0.32-3.54-0.97-4.89-1.53-2.37-2.66-3.08zm-0.87 11.19c-0.29 0.83-0.69 1.44-1.2 1.82s-1.1 0.57-1.78 0.57c-0.67 0-1.25-0.19-1.76-0.57s-0.91-0.99-1.2-1.82-0.44-1.91-0.44-3.22 0.15-2.39 0.44-3.22 0.69-1.44 1.2-1.82 1.09-0.57 1.76-0.57c0.68 0 1.28 0.19 1.78 0.57 0.51 0.38 0.91 0.99 1.2 1.82s0.44 1.91 0.44 3.22c0 1.32-0.15 2.39-0.44 3.22z"/>
</svg>
