<svg xmlns="http://www.w3.org/2000/svg" xmlns:xlink="http://www.w3.org/1999/xlink" viewBox="0 0 342.495 400">
<path d="M 270.148 170.892 Z M 338.951 195.941 C 338.241 193.116 337.353 190.351 336.321 187.704 C 325.488 160.008 302.393 144.871 286.52 139.214 C 286.426 139.18 286.36 139.094 286.351 138.994 C 285.945 132.753 283.941 126.994 280.541 122.165 C 280.498 122.11 280.482 122.038 280.499 121.97 C 281.201 118.342 280.837 114.706 279.569 111.433 C 279.553 111.39 279.55 111.343 279.56 111.298 C 280.913 104.321 276.981 97.192 270.089 94.757 C 268.524 94.207 266.892 93.928 265.235 93.928 C 259.848 93.928 254.951 96.905 252.423 101.539 C 252.401 101.578 252.369 101.61 252.33 101.632 C 249.285 103.332 246.723 105.86 244.989 108.947 C 244.956 109.015 244.888 109.057 244.82 109.074 C 238.181 110.568 232.121 113.965 227.383 118.85 C 227.34 118.892 227.281 118.926 227.214 118.926 C 224.854 119.07 222.537 119.264 220.288 119.535 C 220.197 119.543 220.108 119.505 220.051 119.433 C 219.873 119.197 219.696 118.977 219.51 118.757 C 219.374 118.342 219.188 117.801 219.053 117.387 C 219.078 117.159 219.104 116.93 219.112 116.702 C 219.154 116.144 219.18 115.586 219.205 115.036 C 219.205 114.994 219.222 114.943 219.247 114.901 C 219.535 114.469 219.78 114.038 220 113.632 C 223.493 106.994 222.013 98.689 220.152 92.888 C 218.385 87.357 215.966 83.07 212.939 80.085 C 212.854 80 212.837 79.882 212.896 79.772 C 214.977 75.822 216.093 71.569 216.228 67.036 C 216.49 58.131 212.888 48.989 205.226 39.104 C 199.992 32.338 194.858 25.421 190.732 19.865 C 187.653 15.704 184.989 12.118 182.943 9.471 C 179.78 5.387 177.277 2.165 172.753 0.677 C 171.374 0.228 169.937 0 168.482 0 L 168.465 0 C 160.482 0 156.499 6.309 154.799 9.006 C 153.556 10.968 152.101 13.497 150.258 16.71 C 146.622 23.036 141.641 31.704 135.619 40.575 C 127.983 51.822 124.786 59.51 124.575 67.087 C 124.414 73.057 126.216 77.962 128.736 81.953 C 128.795 82.055 128.786 82.182 128.702 82.266 C 125.784 85.438 123.56 89.911 122.072 95.628 C 120.541 101.514 119.535 109.886 123.4 116.313 C 123.603 116.651 123.822 116.998 124.076 117.345 C 124.101 117.387 124.118 117.429 124.127 117.471 C 124.626 123.053 126.072 128.397 128.355 133.311 C 128.423 133.455 128.347 133.624 128.195 133.674 C 110.943 139.087 96.33 149.945 88.643 163.975 C 80.474 178.918 81.142 195.856 90.486 210.461 C 92.516 213.641 95.061 216.685 98.072 219.526 C 98.233 219.679 98.148 219.966 97.92 219.992 C 96.879 220.127 95.831 220.195 94.774 220.195 C 85.86 220.195 77.886 215.298 72.812 206.74 L 72.778 206.672 C 71.51 204.076 70.596 202.207 69.624 196.457 C 66.681 179.061 73.649 163.679 81.725 145.869 C 86.309 135.738 91.036 125.319 94.021 113.996 C 94.038 113.928 94.08 113.869 94.131 113.835 C 98.038 111.467 101.328 108.719 103.958 105.641 C 108.178 100.693 110.74 94.765 111.366 88.507 C 112.203 80.085 109.573 71.087 103.746 62.495 C 99.129 55.67 92.507 49.091 84.575 43.433 C 82.258 41.784 79.586 40.634 76.753 40.364 C 69.852 39.696 63.51 43.586 60.939 49.877 C 60.144 51.814 59.298 53.801 58.486 55.721 C 51.924 71.264 45.133 87.332 52.262 101.404 C 54.478 105.793 57.793 109.404 62.165 112.22 C 62.275 112.288 62.317 112.414 62.275 112.533 C 59.746 119.679 56.381 126.841 52.879 134.275 C 44.042 153.032 34.038 174.283 37.175 199.569 C 38.791 214.918 45.86 228.77 57.108 238.605 C 66.249 246.596 77.598 251.543 89.607 252.879 C 89.717 253.091 89.708 253.074 89.81 253.294 C 84.719 261.226 78.326 266.901 70.74 270.233 C 70.622 270.283 70.486 270.249 70.41 270.156 C 66.782 265.581 63.772 261.201 61.531 257.953 C 59.738 255.34 58.444 253.463 57.226 252 C 53.142 247.137 48.347 246.402 45.852 246.402 L 45.835 246.402 C 40.812 246.402 36.161 249.142 33.7 253.548 C 31.222 257.987 31.18 263.197 33.683 271.611 C 33.742 271.814 33.556 272.017 33.345 271.958 C 31.374 271.433 29.488 270.816 27.721 270.106 C 21.641 267.679 17.801 266.681 14.469 266.681 C 7.603 266.681 1.793 271.197 0.355 277.674 C -1.894 287.805 7.011 293.86 10.808 296.448 C 14.858 299.205 20.059 302.114 25.455 304.634 C 32.051 307.729 38.782 310.156 44.913 311.67 C 45.455 311.805 46.013 311.932 46.579 312.051 L 47.002 312.144 L 47.112 312.169 C 47.51 312.254 47.915 312.33 48.33 312.414 C 48.55 312.448 48.736 312.49 48.93 312.524 C 49.429 312.617 49.937 312.702 50.444 312.786 C 50.545 312.803 50.638 312.82 50.74 312.829 C 52.211 313.066 53.776 313.26 55.349 313.412 C 55.383 313.421 55.425 313.421 55.45 313.429 C 56.22 313.497 57.04 313.564 57.953 313.624 L 58.436 313.658 C 59.315 313.708 60.127 313.742 60.939 313.767 L 61.328 313.767 L 61.429 313.776 C 61.514 313.784 61.59 313.784 61.674 313.784 C 63.298 315.087 64.947 316.304 66.638 317.446 C 62.537 318.605 58.055 320.592 54.452 324.008 C 50.478 327.729 45.751 334.833 45.751 347.501 C 45.751 349.184 45.793 350.926 45.835 352.617 C 45.869 354.047 45.911 355.467 45.911 356.719 C 45.911 358.782 45.877 359.264 45.852 359.729 C 45.793 360.693 45.751 361.607 45.751 363.865 C 45.751 371.078 46.554 381.607 53.488 389.751 C 59.366 396.643 68.195 400.135 79.712 400.135 C 88.634 400.135 96.499 397.953 102.909 393.987 C 106.021 396.913 110.808 399.501 117.996 399.501 C 123.425 399.501 128.178 397.945 131.882 395.205 C 135.45 397.607 139.958 399.501 145.48 399.501 C 148.854 399.501 152.008 398.833 154.825 397.598 C 157.86 399.044 161.455 399.814 165.497 399.814 C 169.209 399.814 172.6 399.019 175.552 397.556 C 178.571 399.154 182.013 400.059 185.674 400.059 C 190.427 400.059 194.732 398.672 198.233 396.271 C 201.649 398.579 205.835 399.899 210.452 399.899 C 213.953 399.899 217.192 399.188 220.034 397.886 C 222.968 399.29 226.3 400.059 229.911 400.059 C 234.266 400.059 238.334 398.748 241.708 396.372 C 244.888 398.258 248.693 399.577 253.184 399.577 C 256.829 399.577 260.211 398.799 263.171 397.378 C 266.444 399.18 270.224 400.211 274.233 400.211 C 287.002 400.211 296.998 390.148 296.998 377.285 C 296.998 373.488 296.017 369.903 294.3 366.774 C 295.619 362.461 295.805 358.148 295.805 354.732 C 295.805 352.169 296.017 349.497 296.228 346.664 C 296.482 343.459 296.761 339.822 296.761 335.907 C 296.761 328.414 293.294 322.173 287.67 318.444 C 290.554 318.047 293.328 317.548 295.949 316.964 C 299.476 316.169 302.503 315.273 304.947 314.283 C 311.425 311.67 315.112 307.51 315.915 301.911 C 316.905 294.951 312.575 288.431 305.615 286.402 C 303.298 285.734 300.871 285.539 296.854 285.218 C 290.385 284.71 280.178 283.899 269.446 280.795 C 269.235 280.736 269.184 280.465 269.362 280.321 C 273.378 277.116 275.281 273.564 276.118 270.444 C 276.134 270.377 276.177 270.32 276.236 270.285 C 276.294 270.25 276.365 270.24 276.431 270.258 C 282.266 271.839 288.702 272.753 295.822 272.753 C 297.277 272.753 298.765 272.71 300.254 272.634 C 313.277 271.958 324.668 265.725 332.338 255.078 C 342.875 240.448 345.277 218.901 338.951 195.941 Z M 300.668 220.989 C 300.288 224.744 299.323 226.977 298.613 228.101 C 298.561 228.185 298.466 228.231 298.368 228.22 C 291.23 227.526 282.985 222.715 275.467 214.994 C 279.137 207.154 280.457 198.021 279.298 188.584 C 278.427 181.446 276.541 175.704 274.96 171.036 C 275.163 170.892 275.171 170.892 275.171 170.892 C 275.18 170.892 275.222 170.858 275.383 170.748 C 282.182 176.677 290.774 185.691 296.651 199.256 C 299.899 206.757 301.328 214.478 300.668 220.989 Z" fill="rgb(255,255,255)"></path><path d="M 246.503 234.368 C 245.632 230.622 221.328 227.027 221.734 229.903 C 222.14 232.778 247.636 239.239 246.503 234.368 Z" fill="rgb(135,71,204)"></path><path d="M 300.584 242.216 C 313.734 239.856 319.298 217.488 309.066 193.877 C 296.211 164.203 272.634 153.37 273.049 150.571 C 273.463 147.772 310.055 157.708 323.721 192.634 C 334.444 220.034 319.603 244.786 303.18 248.008 C 286.765 251.23 287.433 244.575 300.575 242.216 Z" fill="rgb(188,131,251)"></path><path d="M 178.799 143.501 C 218.063 151.831 233.455 174.529 252.051 206.216 C 269.708 236.313 297.522 250.419 316.913 236.414 C 333.962 224.101 323.729 192.634 323.729 192.634 C 336.863 229.564 323.729 257.869 299.56 259.121 C 238.892 262.266 234.08 188.854 181.598 172.211 Z" fill="rgb(135,71,204)"></path><path d="M 252.276 233.22 C 248.676 228.851 247.563 223.822 249.791 221.986 C 252.018 220.151 256.742 222.204 260.342 226.573 C 263.942 230.941 265.054 235.971 262.827 237.806 C 260.599 239.642 255.875 237.588 252.276 233.22 Z" fill="rgb(216,183,251)"></path><path d="M 281.889 252.48 C 277.602 251.41 274.649 248.453 275.292 245.874 C 275.935 243.296 279.932 242.073 284.219 243.142 C 288.506 244.212 291.459 247.169 290.816 249.748 C 290.173 252.326 286.176 253.549 281.889 252.48 Z" fill="rgb(216,183,251)"></path><path d="M 305.875 251.471 C 304.855 249.784 306.594 246.865 309.76 244.951 C 312.925 243.037 316.318 242.853 317.338 244.539 C 318.357 246.226 316.618 249.145 313.453 251.059 C 310.287 252.973 306.895 253.157 305.875 251.471 Z" fill="rgb(216,183,251)"></path><path d="M 166.055 210.199 C 163.535 269.455 176.947 311.374 196.279 315.78 C 211.746 319.307 221.531 309.86 203.493 312.465 C 184.44 274.918 197.04 210.452 197.04 210.452 C 166.241 175.433 166.943 189.345 166.055 210.199 Z" fill="rgb(107,54,168)"></path><path d="M 180.851 288.926 C 180.017 284.773 181.141 281.044 183.361 280.598 C 185.582 280.152 188.059 283.157 188.893 287.31 C 189.728 291.463 188.604 295.192 186.383 295.638 C 184.162 296.084 181.685 293.079 180.851 288.926 Z" fill="rgb(188,131,251)"></path><path d="M 173.535 257.82 C 173.048 252.19 175.094 247.415 178.104 247.155 C 181.115 246.895 183.95 251.248 184.437 256.878 C 184.923 262.508 182.877 267.284 179.867 267.544 C 176.856 267.804 174.021 263.451 173.535 257.82 Z" fill="rgb(188,131,251)"></path><path d="M 190.432 310.77 C 189.138 308.573 189.237 306.116 190.654 305.281 C 192.07 304.447 194.268 305.552 195.562 307.749 C 196.856 309.946 196.757 312.404 195.341 313.238 C 193.924 314.072 191.727 312.968 190.432 310.77 Z" fill="rgb(188,131,251)"></path><path d="M 143.636 165.717 L 143.433 170.647 L 141.421 219.442 C 131.256 276.803 100.195 295.467 74.706 299.408 C 67.273 300.567 60.313 300.457 54.495 299.696 C 52.186 299.4 50.063 298.994 48.161 298.529 C 42.376 297.108 36.457 294.841 31.205 292.381 C 15.298 284.947 5.345 275.721 22.723 282.672 C 30.08 285.607 39.036 287.416 48.423 287.594 C 53.581 287.696 58.884 287.307 64.101 286.334 C 79.222 283.543 91.958 275.011 101.209 260.609 C 112.736 242.664 111.653 218.52 118.097 197.159 C 121.319 186.512 126.858 176.778 137.666 169.319 C 139.501 168.042 141.497 166.841 143.662 165.708 Z" fill="rgb(188,131,251)"></path><path d="M 75.975 295.053 L 74.698 299.416 C 67.264 300.575 60.304 300.465 54.486 299.704 C 52.304 296.55 50.038 292.49 48.406 287.603 C 53.564 287.704 58.867 287.315 64.085 286.342 Z" fill="rgb(135,71,204)"></path><path d="M 143.636 165.717 L 143.433 170.647 L 141.421 219.442 C 127.121 300.144 71.45 304.245 48.161 298.529 C 42.376 297.108 36.457 294.841 31.205 292.381 C 71.459 304.254 126.529 286.825 118.097 197.167 C 121.319 186.512 126.858 176.778 137.666 169.328 C 139.501 168.051 141.497 166.85 143.662 165.717 Z" fill="rgb(135,71,204)"></path><path d="M 73.463 55.002 C 64.127 77.801 51.915 99.526 80.981 104.981 C 81.353 105.049 81.759 105.006 82.106 104.854 C 109.006 93.133 98.114 69.505 76.33 54.173 C 75.856 53.836 75.255 53.734 74.696 53.896 C 74.138 54.057 73.684 54.464 73.463 55.002 Z" fill="rgb(188,131,251)"></path><path d="M 124.474 251.14 C 121.772 250.312 121.058 244.826 122.878 238.887 C 124.698 232.948 128.364 228.805 131.065 229.633 C 133.767 230.461 134.482 235.946 132.661 241.885 C 130.841 247.824 127.175 251.968 124.474 251.14 Z" fill="rgb(216,183,251)"></path><path d="M 149.827 192.262 C 127.653 261.869 55.662 247.112 50.63 198.03 C 45.336 156.135 83.214 126.368 79.932 85.057 C 79.019 71.518 76.685 67.797 78.41 67.323 C 78.774 67.222 79.239 67.89 79.366 68.237 C 97.996 119.163 48.321 151.619 56.288 198.715 C 57.658 206.799 59.256 209.793 60.879 213.116 C 72.829 233.877 95.975 238.816 114.089 228.567 C 128.516 220.482 137.294 206.266 143.18 191.222 C 143.899 189.294 146.799 190.249 146.173 192.254 L 149.827 192.254 Z" fill="rgb(107,54,168)"></path><path d="M 109.034 276.582 C 107.282 275.387 108.191 271.003 111.064 266.789 C 113.938 262.575 117.687 260.128 119.439 261.322 C 121.191 262.517 120.282 266.901 117.408 271.115 C 114.535 275.329 110.786 277.776 109.034 276.582 Z" fill="rgb(216,183,251)"></path><path d="M 87.715 292.282 C 87.018 291.045 89.123 288.54 92.416 286.687 C 95.709 284.833 98.942 284.334 99.639 285.572 C 100.335 286.809 98.23 289.314 94.938 291.167 C 91.645 293.02 88.411 293.52 87.715 292.282 Z" fill="rgb(216,183,251)"></path><path d="M 301.844 299.4 C 309.277 301.564 254.545 317.471 218.486 291.129 C 182.427 264.786 177.97 226.097 167.087 190.503 C 175.129 225.294 170.994 266.901 155.332 288.321 C 137.751 312.355 97.328 330.402 64.998 298.647 C 65.877 299.256 82.376 310.402 101.844 306.748 C 103.704 306.402 105.548 305.869 107.357 305.15 C 107.374 305.15 107.374 305.15 107.391 305.133 C 125.023 298.14 139.349 273.497 133.311 227.027 C 126.647 175.755 141.497 149.666 164.617 145.996 L 182.233 145.573 C 214.334 158.038 204.939 191.442 211.882 233.835 C 223.011 301.869 294.402 297.243 301.844 299.408 Z" fill="rgb(188,131,251)"></path><path d="M 137.455 177.522 C 127.29 180.355 125.581 186.114 129.277 192.634 L 109.818 211.839 C 106.588 209.201 103.899 206.317 101.886 203.154 C 81.674 171.577 121.488 137.759 163.323 144.211 C 175.002 150.664 158.588 171.628 137.455 177.514 Z M 101.844 306.74 C 72.863 304.524 52.051 266.884 46.867 260.693 C 41.683 254.503 50.385 287.611 64.964 298.613 C 83.484 312.584 96.474 309.776 101.844 306.74 Z" fill="rgb(188,131,251)"></path><path d="M 155.323 288.313 C 137.742 312.347 97.319 330.393 64.989 298.638 C 65.869 299.247 82.368 310.393 101.835 306.74 C 103.696 306.393 105.539 305.86 107.349 305.142 C 107.366 305.142 107.366 305.142 107.383 305.125 C 133.328 297.539 153.362 268.288 154.791 225.082 C 155.323 209.066 157.142 199.467 159.467 193.471 C 162.038 186.841 165.471 186.647 167.053 190.41 L 167.053 190.444 C 167.053 190.444 167.053 190.461 167.07 190.486 C 175.112 225.277 170.977 266.884 155.315 288.304 Z" fill="rgb(135,71,204)"></path><path d="M 155.685 271.898 C 152.567 271.086 151.433 265.071 153.153 258.463 C 154.873 251.855 158.795 247.156 161.914 247.968 C 165.033 248.78 166.167 254.795 164.447 261.403 C 162.727 268.011 158.804 272.71 155.685 271.898 Z" fill="rgb(216,183,251)"></path><path d="M 163.431 231.897 C 160.931 231.777 159.193 225.659 159.549 218.232 C 159.906 210.805 162.222 204.882 164.723 205.002 C 167.223 205.122 168.961 211.24 168.605 218.667 C 168.248 226.093 165.932 232.017 163.431 231.897 Z" fill="rgb(216,183,251)"></path><path d="M 138.312 297.257 C 136.466 295.504 137.612 291.299 140.873 287.864 C 144.133 284.43 148.273 283.066 150.119 284.819 C 151.965 286.571 150.819 290.776 147.558 294.211 C 144.298 297.645 140.158 299.009 138.312 297.257 Z" fill="rgb(216,183,251)"></path><path d="M 113.914 310.587 C 113.204 308.854 115.773 306.159 119.653 304.567 C 123.533 302.975 127.255 303.088 127.966 304.821 C 128.677 306.554 126.108 309.249 122.227 310.841 C 118.347 312.433 114.625 312.319 113.914 310.587 Z" fill="rgb(216,183,251)"></path><path d="M 92.636 312.183 C 92.615 311.137 94.978 310.24 97.916 310.18 C 100.853 310.12 103.251 310.919 103.272 311.965 C 103.294 313.011 100.93 313.908 97.993 313.968 C 95.056 314.028 92.657 313.229 92.636 312.183 Z" fill="rgb(216,183,251)"></path><path d="M 137.463 113.192 C 137.463 94.347 152.74 79.07 171.586 79.07 C 190.431 79.07 205.708 94.347 205.708 113.192 C 205.708 132.038 190.431 147.315 171.586 147.315 C 152.74 147.315 137.463 132.038 137.463 113.192 Z" fill="rgb(188,131,251)"></path><path d="M 189.395 123.992 C 188.989 120.685 186.723 117.928 183.357 118.03 C 179.966 118.114 177.937 121.006 177.691 124.338 C 177.661 124.629 177.517 124.896 177.29 125.08 C 177.063 125.264 176.773 125.35 176.482 125.319 C 174.867 125.099 175.484 122.266 175.619 121.082 C 176.863 114.596 185.471 112.533 189.658 117.573 C 191.171 119.323 191.746 121.708 191.594 123.924 C 191.549 124.533 191.019 124.991 190.41 124.947 C 189.889 124.908 189.466 124.51 189.395 123.992 Z M 165.835 124.643 C 165.294 119.408 159.67 116.575 155.839 120.474 C 154.816 121.59 154.283 123.197 154.072 124.964 C 154.021 125.564 153.48 126.013 152.879 125.937 C 152.389 125.877 152.017 125.488 151.949 125.023 C 151.653 122.934 152 120.507 153.463 118.562 C 156.355 114.503 162.951 114.359 166.063 118.233 C 167.569 119.992 168.135 122.368 167.966 124.584 C 167.915 125.175 167.4 125.607 166.816 125.564 C 166.309 125.522 165.911 125.133 165.844 124.643 Z" fill="rgb(0,0,0)"></path><path d="M 140.431 99.256 L 171.205 97.023 L 203.07 100 C 204.651 103.78 205.581 107.915 205.7 112.254 C 205.734 113.438 205.7 114.613 205.624 115.772 C 199.18 114.841 185.015 110.292 171.569 100.178 C 171.569 100.178 159.636 113.522 137.539 115.4 C 137.505 114.977 137.488 114.554 137.48 114.131 C 137.336 108.837 138.402 103.789 140.44 99.256 Z M 168.541 13.539 C 170.013 14.021 181.59 30.664 194.537 47.383 C 207.484 64.101 203.51 74.249 193.336 81.7 C 156.381 82.715 148.262 82.943 148.262 82.943 C 135.493 72.863 134.469 66.376 146.825 48.178 C 159.18 29.979 167.078 13.057 168.541 13.539 Z" fill="rgb(135,71,204)"></path><path d="M 201.767 90.808 C 184.685 61.928 172.195 23.907 169.192 23.839 C 166.182 23.772 155.323 61.049 139.932 93.59 L 201.767 90.816 Z" fill="rgb(188,131,251)"></path><path d="M 170.545 31.129 C 170.934 38.376 170.875 45.658 170.774 52.905 C 170.698 60.042 170.224 67.34 171.45 74.342 C 171.687 75.738 169.607 76.169 169.285 74.765 C 167.205 63.975 168.567 52.913 168.431 42.021 C 168.431 38.41 168.414 34.808 168.347 31.197 C 168.347 29.784 170.452 29.691 170.545 31.121 Z" fill="rgb(135,71,204)"></path><path d="M 208.025 107.332 C 206.004 111.18 187.374 109.641 171.222 97.717 C 155.755 110.512 137.226 113.074 134.994 109.345 C 132.744 105.607 135.907 92.761 139.67 90.605 C 143.433 88.44 157.962 88.448 170.41 77.818 C 183.416 87.746 198.452 86.926 202.326 88.879 C 206.199 90.825 210.055 103.484 208.025 107.332 Z" fill="rgb(188,131,251)"></path><path d="M 142.968 88.465 C 150.165 87.129 157.48 85.226 163.899 81.658 C 165.471 80.77 166.977 79.797 168.381 78.672 C 169.336 77.979 170.08 76.499 171.349 77.277 C 179.67 82.249 189.142 85.446 198.748 86.613 C 200.465 86.765 200.338 89.319 198.579 89.252 C 188.389 88.44 178.385 85.218 169.903 79.493 L 171.653 79.214 C 171.129 79.848 170.681 80.254 170.182 80.736 C 166.765 83.805 162.579 85.92 158.326 87.526 C 153.564 89.328 148.397 90.427 143.357 91.07 C 141.658 91.29 141.252 88.753 142.968 88.457 Z M 194.233 138.723 C 185.674 149.412 168.736 152.051 157.218 144.702 C 156.474 144.195 155.755 143.653 155.061 143.095 C 156.541 143.526 158.613 144.152 160.127 144.524 C 171.915 147.501 184.228 145.928 194.241 138.723 Z" fill="rgb(135,71,204)"></path><path d="M 177.057 133.108 C 175.239 133.108 173.057 132.44 171.89 130.063 C 171.603 129.48 171.839 128.77 172.431 128.482 C 173.023 128.195 173.725 128.431 174.013 129.023 C 175.23 131.493 178.317 130.588 178.452 130.545 C 179.07 130.351 179.738 130.706 179.932 131.332 C 180.127 131.958 179.78 132.617 179.154 132.812 C 178.605 132.981 177.869 133.116 177.057 133.116 Z M 174.114 139.899 C 174.055 139.899 173.996 139.899 173.928 139.882 C 173.285 139.78 172.846 139.188 172.939 138.545 C 173.175 136.939 174.782 133.911 179.18 133.911 C 179.831 133.911 180.364 134.444 180.364 135.095 C 180.364 135.746 179.831 136.279 179.18 136.279 C 175.822 136.279 175.323 138.638 175.281 138.901 C 175.18 139.476 174.681 139.89 174.114 139.89 Z" fill="rgb(0,0,0)"></path><path d="M 263.163 265.894 C 263.349 271.019 251.112 275.619 235.831 276.169 C 231.611 276.321 227.594 276.144 224 275.704 C 214.571 274.545 207.966 271.577 207.831 267.865 C 207.738 265.26 210.833 262.799 215.89 260.939 C 219.763 259.51 224.803 258.419 230.436 257.894 C 231.07 257.835 231.712 257.784 232.355 257.734 C 233.285 257.674 234.216 257.624 235.171 257.59 C 236.178 257.556 237.159 257.531 238.14 257.531 C 238.765 257.531 239.374 257.531 239.992 257.548 C 253.006 257.844 263.019 261.294 263.18 265.877 Z M 263.154 209.378 C 259.535 217.023 252.786 222.689 243.51 225.184 C 240.6 225.979 237.438 226.444 234.047 226.571 C 212.085 227.357 198.698 212.795 199.712 192.609 C 199.941 188.161 200.685 184.338 201.539 180.786 C 203.67 171.992 206.495 164.913 203.805 154.342 C 203.095 151.526 201.996 148.474 200.389 145.066 L 261.801 142.867 C 253.252 164.913 263.636 171.958 265.877 190.241 C 266.748 197.345 265.767 203.873 263.163 209.378 Z" fill="rgb(160,145,255)"></path><path d="M 263.154 209.378 C 259.535 217.023 252.786 222.689 243.51 225.184 C 230.985 207.89 213.302 207.662 201.539 180.786 C 203.67 171.992 206.495 164.913 203.805 154.342 C 216.846 162.334 235.18 194.723 263.154 209.378 Z" fill="rgb(122,104,237)"></path><path d="M 233.818 220.008 C 252.304 219.349 262.672 206.326 260.6 189.446 C 259.425 179.873 255.594 173.953 254.605 166.385 L 254.605 166.368 C 254.562 166.063 254.529 165.767 254.495 165.455 C 253.311 162.249 243.51 160.051 231.687 160.474 C 219.831 160.896 210.199 163.805 209.285 167.104 C 209.285 167.383 209.268 167.679 209.243 167.958 C 208.812 175.611 205.404 181.784 204.913 191.433 C 204.059 208.414 215.332 220.66 233.81 220 Z" fill="rgb(245,93,118)"></path><path d="M 198.899 142.486 C 198.721 137.502 212.947 132.946 230.674 132.312 C 248.401 131.677 262.916 135.204 263.095 140.189 C 263.273 145.174 249.047 149.729 231.32 150.363 C 213.593 150.998 199.077 147.471 198.899 142.486 Z" fill="rgb(233,230,255)"></path><path d="M 203.658 142.122 C 203.52 138.243 215.648 134.661 230.747 134.12 C 245.846 133.58 258.199 136.286 258.338 140.165 C 258.477 144.043 246.349 147.626 231.25 148.166 C 216.15 148.707 203.797 146 203.658 142.122 Z" fill="rgb(160,145,255)"></path><path d="M 209.209 167.682 C 209.083 164.159 219.144 160.938 231.681 160.489 C 244.218 160.04 254.483 162.533 254.609 166.057 C 254.736 169.581 244.675 172.802 232.138 173.251 C 219.601 173.699 209.336 171.206 209.209 167.682 Z" fill="rgb(255,150,156)"></path><path d="M 250.462 192.051 C 249.943 187.884 251.025 184.319 252.879 184.089 C 254.733 183.858 256.656 187.048 257.175 191.215 C 257.694 195.381 256.612 198.946 254.758 199.177 C 252.904 199.408 250.981 196.217 250.462 192.051 Z" fill="rgb(255,214,217)"></path><path d="M 248.504 177.801 C 248.116 176.169 248.764 174.618 249.95 174.337 C 251.136 174.055 252.411 175.149 252.799 176.781 C 253.186 178.412 252.539 179.963 251.353 180.244 C 250.167 180.526 248.891 179.432 248.504 177.801 Z" fill="rgb(255,214,217)"></path><path d="M 238.123 257.564 L 237.395 237.26 C 237.167 230.884 237.243 229.835 243.738 224.939 L 224.406 225.632 C 231.23 230.055 231.391 231.087 231.619 237.463 L 232.347 257.767 Z" fill="rgb(160,145,255)"></path><path d="M 249.7 264.786 C 245.167 264.474 238.596 263.053 238.131 257.539 C 238.757 257.539 239.366 257.539 239.983 257.556 C 240.161 260.77 243.763 262.165 246.52 262.867 C 247.594 263.121 248.719 263.315 249.801 263.4 C 250.681 263.493 250.596 264.803 249.708 264.778 Z M 232.355 257.801 C 232.482 261.97 228.262 264.245 224.778 265.133 C 223.636 265.446 222.512 265.666 221.311 265.801 C 221.13 265.822 220.949 265.769 220.807 265.654 C 220.666 265.54 220.576 265.373 220.558 265.192 C 220.534 265.011 220.586 264.828 220.701 264.685 C 220.816 264.543 220.985 264.454 221.167 264.44 C 224.685 263.789 230.461 262.3 230.436 257.903 C 231.07 257.844 231.712 257.793 232.355 257.742 Z" fill="rgb(122,104,237)"></path><path d="M 244.685 167.924 C 244.342 167.926 244.02 167.76 243.822 167.481 C 243.623 167.202 243.573 166.843 243.687 166.52 L 264.245 108.169 C 264.44 107.619 265.04 107.323 265.59 107.526 C 266.14 107.721 266.427 108.321 266.233 108.871 L 245.674 167.222 C 245.522 167.653 245.116 167.924 244.677 167.924 Z" fill="rgb(81,65,186)"></path><path d="M 233.97 135.476 L 270.452 148.397 C 271.197 148.66 272.008 148.211 272.186 147.442 C 278.359 121.074 244.381 112.465 233.243 133.607 C 232.871 134.317 233.209 135.205 233.97 135.476 Z" fill="rgb(245,93,118)"></path><path d="M 235.89 136.152 C 246.605 118.351 272.364 125.192 268.245 147.611 Z" fill="rgb(245,177,76)"></path>
<path d="M 253.539 142.791 C 253.175 142.791 252.829 142.596 252.634 142.283 L 244.152 128.254 C 243.854 127.754 244.015 127.108 244.512 126.806 C 245.009 126.505 245.656 126.66 245.962 127.154 L 253.302 139.29 L 257.793 126.85 C 257.987 126.3 258.596 126.013 259.146 126.216 C 259.696 126.41 259.983 127.019 259.78 127.569 L 254.537 142.089 C 254.402 142.469 254.055 142.74 253.649 142.782 L 253.548 142.782 Z" fill="rgb(217,124,43)"></path>
<path d="M 253.539 142.791 C 252.991 142.794 252.531 142.377 252.48 141.831 C 252.43 141.285 252.805 140.791 253.345 140.693 L 268.11 137.928 C 268.685 137.818 269.235 138.199 269.345 138.774 C 269.455 139.349 269.074 139.899 268.499 140.008 L 253.734 142.774 C 253.666 142.782 253.598 142.791 253.539 142.791 Z" fill="rgb(217,124,43)"></path><path d="M 256.051 118.359 C 256.051 115.249 258.572 112.727 261.683 112.727 C 264.793 112.727 267.315 115.249 267.315 118.359 C 267.315 121.47 264.793 123.992 261.683 123.992 C 258.572 123.992 256.051 121.47 256.051 118.359 Z" fill="rgb(245,93,118)"></path><path d="M 268.338 148.118 C 268.279 148.118 268.22 148.118 268.169 148.101 C 267.892 148.056 267.644 147.902 267.481 147.673 C 267.317 147.445 267.252 147.161 267.298 146.884 C 269.04 136.262 263.721 130.216 258.156 128.093 C 249.362 124.736 241.074 129.945 237.099 136.195 C 236.786 136.685 236.135 136.837 235.636 136.516 C 235.146 136.203 235.002 135.552 235.315 135.061 C 239.738 128.101 249.006 122.334 258.909 126.114 C 265.252 128.533 271.332 135.349 269.378 147.222 C 269.294 147.738 268.846 148.11 268.338 148.11 Z" fill="rgb(199,58,81)"></path>
<path d="M 219.323 167.518 C 218.258 167.712 216.44 167.839 214.672 167.061 C 214.419 166.951 214.233 166.706 214.173 166.436 L 210.216 148.905 C 211.822 149.243 213.581 149.522 215.442 149.751 L 220.034 166.385 C 220.178 166.901 219.848 167.425 219.323 167.526 Z" fill="rgb(81,65,186)">
</path>
<path d="M 215.442 149.751 C 213.581 149.522 211.822 149.243 210.216 148.905 L 209.607 146.233 C 211.104 146.664 212.837 147.036 214.774 147.34 Z" fill="rgb(160,145,255)"></path>
<path d="M 214.774 147.34 C 212.837 147.036 211.104 146.664 209.607 146.233 L 207.797 138.207 L 207.298 136.025 L 207.078 135.061 C 207.036 134.884 206.918 134.03 206.791 133.903 L 205.751 132.854 L 204.753 133.92 C 204.584 134.089 204.296 134.063 204.169 133.86 L 203.383 132.6 L 179.442 136.888 C 176.127 133.649 178.402 130.292 178.402 130.292 C 178.402 130.292 202.63 125.996 202.884 126.233 L 203.924 127.214 L 205.556 126.419 C 205.869 126.266 206.241 126.368 206.427 126.655 L 207.112 127.67 L 208.533 127.34 C 208.922 127.247 209.302 127.493 209.404 127.873 L 211.332 134.841 L 211.865 136.77 L 214.782 147.34 Z M 224 275.712 C 214.571 274.554 207.966 271.586 207.831 267.873 C 207.738 265.268 210.833 262.808 215.89 260.947 C 218.038 270.334 221.471 273.116 224 275.712 Z" fill="rgb(122,104,237)"></path><path d="M 238.03 237.336 C 212.042 239.619 138.909 235.696 109.818 211.848 L 129.277 192.643 C 133.26 199.696 143.552 207.645 156.338 213.759 C 180.947 225.531 212.008 232.558 237.674 231.586 C 244.381 231.332 253.548 235.975 238.03 237.345 Z" fill="rgb(188,131,251)"></path><path d="M 115.772 216.093 C 123.154 219.636 131.078 222.918 138.901 225.353 C 162.698 232.753 187.653 237.006 212.55 237.725 L 212.677 238.427 C 212.677 238.427 206.427 238.698 199.137 238.258 C 172.516 236.651 137.099 230.901 115.78 216.093 Z" fill="rgb(135,71,204)"></path><path d="M 129.277 192.634 C 132.761 197.192 137.285 200.812 141.937 204.042 C 147.949 208.279 155.214 211.899 161.97 214.85 C 177.751 221.708 194.596 225.953 211.298 229.903 C 200.744 229.015 190.233 227.061 180.034 224.135 C 168.008 220.617 156.068 215.882 145.514 209.049 C 139.121 204.837 132.609 199.704 129.277 192.634 Z" fill="rgb(216,183,251)"></path><path d="M 105.852 358.385 C 105.852 372.203 98.309 384.913 79.721 384.913 C 65.666 384.913 60.981 378.478 60.981 363.865 C 60.981 359.738 61.142 361.564 61.142 356.719 C 61.142 353.937 60.981 350.444 60.981 347.51 C 60.981 341.869 62.334 337.505 64.871 335.121 C 67.89 332.262 74.004 331.07 77.894 331.07 C 96.321 331.07 105.852 339.966 105.852 358.393 Z M 93.226 358.224 C 93.226 349.962 89.412 342.495 79.721 342.495 C 74.165 342.495 73.049 346.545 73.049 351.23 C 73.049 355.915 73.049 359.332 73.285 364.49 C 73.607 369.649 74.402 373.624 80.516 373.624 C 90.123 373.624 93.226 366.241 93.226 358.216 Z M 151.357 347.264 C 151.357 353.852 148.896 357.514 145.006 360.685 C 142.461 362.748 139.603 362.985 139.603 364.262 C 139.603 365.767 145.404 368.786 146.672 369.666 C 149.455 371.332 152.71 373.395 152.71 377.049 C 152.71 381.421 149.852 384.279 145.48 384.279 C 141.108 384.279 137.776 380.626 134.994 377.209 C 132.211 374.03 129.674 370.216 126.968 367.281 C 126.495 366.808 125.378 365.531 124.668 365.531 C 124.11 365.531 124.034 366.326 124.034 366.723 C 124.034 370.055 125.15 373.556 125.15 377.209 C 125.15 381.818 122.926 384.279 118.004 384.279 C 111.332 384.279 111.332 379.67 111.332 373.717 C 111.332 370.698 111.966 364.905 111.966 355.129 C 111.966 351.239 111.247 347.425 111.247 343.772 C 111.247 331.459 119.67 330.351 129.674 330.351 C 141.108 330.351 151.357 334.004 151.357 347.264 Z M 139.129 347.501 C 139.129 342.655 135.002 340.195 130.469 340.195 C 128.482 340.195 126.342 340.516 124.592 342.021 C 123.087 343.45 122.765 346.791 122.765 348.693 C 122.765 353.455 124.279 356.719 129.598 356.719 C 136.905 356.719 139.129 352.744 139.129 347.51 Z M 172.727 337.421 C 172.727 340.516 171.061 345.446 167.323 345.446 C 163.197 345.446 158.351 344.33 158.351 339.247 C 158.351 332.66 160.651 330.748 166.926 330.748 C 170.977 330.748 172.727 333.683 172.727 337.421 Z M 159.222 355.29 C 159.222 350.918 161.446 349.886 165.175 349.886 C 168.668 349.886 171.29 351.002 171.29 354.732 C 171.29 360.051 171.053 363.865 171.053 367.679 C 171.053 371.095 172.245 373.395 172.245 376.414 C 172.245 380.863 170.495 384.592 165.497 384.592 C 160.499 384.592 158.901 382.689 158.901 377.683 C 158.901 372.677 159.459 367.594 159.459 362.596 C 159.459 360.296 159.222 357.59 159.222 355.29 Z M 185.674 343.535 C 189.725 343.535 191.873 345.683 191.873 349.734 C 193.86 346.004 198.148 344.178 202.275 344.178 C 211.729 344.178 216.254 349.26 216.254 359.112 C 216.254 361.81 216.017 364.195 216.017 366.816 C 216.017 373.404 216.888 374.359 216.888 378.173 C 216.888 382.224 214.588 384.685 210.452 384.685 C 206.638 384.685 204.338 382.461 204.338 378.571 C 204.338 374.283 204.812 370.309 204.812 366.021 C 204.812 361.734 204.338 355.772 198.698 355.772 C 194.326 355.772 191.552 358.554 191.552 363.078 C 191.552 370.545 192.11 373.641 192.11 378.41 C 192.11 382.3 189.725 384.846 185.674 384.846 C 182.342 384.846 179.4 382.224 179.4 378.892 C 179.4 375.239 180.195 372.304 180.195 364.753 C 180.195 357.201 179.239 353.319 179.239 350.376 C 179.239 346.089 181.142 343.543 185.674 343.543 Z M 229.759 329.319 C 234.52 329.319 236.905 332.812 236.905 337.581 C 236.905 340.44 236.271 343.222 236.034 346.08 C 235.712 349.099 235.712 352.279 235.712 355.29 C 235.712 355.924 235.712 357.04 236.186 357.04 C 236.744 357.04 237.615 355.848 238.486 355.053 C 242.858 350.207 247.146 343.459 252.228 343.459 C 255.56 343.459 258.266 345.522 258.266 349.099 C 258.266 349.26 258.19 349.573 258.19 349.734 C 257.717 353.387 254.537 355.29 251.839 357.277 C 249.615 358.943 246.199 361.167 243.899 362.757 C 246.123 365.539 252 369.827 254.934 371.814 C 257.48 373.564 259.856 374.596 259.856 378.249 C 259.856 382.224 256.998 384.364 253.184 384.364 C 248.736 384.364 245.319 379.839 242.698 376.499 C 240.474 373.641 238.571 371.019 235.23 367.366 C 235.23 371.89 235.628 374.275 235.628 376.82 C 235.628 380.634 234.359 384.846 229.911 384.846 C 225.066 384.846 222.841 381.192 222.841 376.668 C 222.841 373.412 224.271 368.643 224.271 356.499 C 224.271 346.968 223.4 342.841 223.4 336.803 C 223.4 332.195 225.624 329.336 229.751 329.336 Z M 281.784 377.294 C 281.784 382.055 278.368 384.998 274.241 384.998 C 270.427 384.998 266.774 381.979 266.774 378.013 C 266.774 373.091 269.556 370.385 274.554 370.385 C 278.841 370.385 281.784 373.962 281.784 377.294 Z M 274.478 329.877 C 278.452 329.877 281.548 331.543 281.548 335.915 C 281.548 342.503 280.592 348.389 280.592 354.74 C 280.592 357.438 280.431 360.778 279.4 363.315 C 278.444 365.615 276.617 366.41 274.241 366.41 C 266.698 366.41 268.364 356.482 267.729 351.797 C 267.408 349.81 267.332 342.901 267.332 338.613 C 267.332 333.294 267.493 329.877 274.478 329.877 Z" fill="rgb(0,0,0)">
</path>
</svg>