<svg viewBox="0 0 182 62" id="svg11641584833"><path d="M 42.96 32.014 C 42.96 42.131 37.455 51.437 23.891 51.437 C 13.635 51.437 10.216 46.725 10.216 36.026 C 10.216 33.004 10.333 34.342 10.333 30.794 C 10.333 28.757 10.216 26.2 10.216 24.052 C 10.216 19.922 11.203 16.727 13.055 14.981 C 15.258 12.888 19.719 12.015 22.558 12.015 C 36.005 12.015 42.96 18.529 42.96 32.02 Z M 33.746 31.896 C 33.746 25.847 30.963 20.38 23.891 20.38 C 19.837 20.38 19.022 23.346 19.022 26.776 C 19.022 30.206 19.022 32.707 19.195 36.484 C 19.429 40.261 20.009 43.171 24.471 43.171 C 31.481 43.171 33.746 37.766 33.746 31.89 Z M 76.166 23.872 C 76.166 28.695 74.37 31.376 71.532 33.698 C 69.674 35.209 67.588 35.382 67.588 36.317 C 67.588 37.419 71.822 39.629 72.747 40.273 C 74.778 41.493 77.154 43.004 77.154 45.678 C 77.154 48.879 75.068 50.972 71.877 50.972 C 68.687 50.972 66.255 48.297 64.225 45.796 C 62.195 43.468 60.343 40.676 58.369 38.527 C 58.023 38.181 57.209 37.246 56.69 37.246 C 56.283 37.246 56.227 37.828 56.227 38.119 C 56.227 40.558 57.042 43.121 57.042 45.796 C 57.042 49.17 55.419 50.972 51.827 50.972 C 46.958 50.972 46.958 47.598 46.958 43.239 C 46.958 41.029 47.421 36.787 47.421 29.63 C 47.421 26.782 46.897 23.99 46.897 21.315 C 46.897 12.3 53.043 11.489 60.343 11.489 C 68.687 11.489 76.166 14.164 76.166 23.872 Z M 91.76 16.665 C 91.76 18.931 90.545 22.541 87.817 22.541 C 84.806 22.541 81.27 21.724 81.27 18.003 C 81.27 13.179 82.948 11.78 87.527 11.78 C 90.483 11.78 91.76 13.929 91.76 16.665 Z M 81.905 29.748 C 81.905 26.547 83.528 25.791 86.25 25.791 C 88.798 25.791 90.711 26.609 90.711 29.339 C 90.711 33.234 90.539 36.026 90.539 38.818 C 90.539 41.32 91.409 43.004 91.409 45.214 C 91.409 48.471 90.131 51.201 86.484 51.201 C 82.837 51.201 81.671 49.808 81.671 46.143 C 81.671 42.477 82.078 38.756 82.078 35.097 C 82.078 33.413 81.905 31.432 81.905 29.748 Z M 101.208 21.142 C 104.164 21.142 105.732 22.714 105.732 25.68 C 107.182 22.95 110.311 21.612 113.322 21.612 C 120.221 21.612 123.523 25.333 123.523 32.546 C 123.523 34.521 123.35 36.267 123.35 38.187 C 123.35 43.01 123.986 43.71 123.986 46.502 C 123.986 49.468 122.307 51.269 119.29 51.269 C 116.506 51.269 114.828 49.641 114.828 46.793 C 114.828 43.654 115.174 40.744 115.174 37.605 C 115.174 34.466 114.828 30.101 110.712 30.101 C 107.521 30.101 105.497 32.138 105.497 35.45 C 105.497 40.917 105.905 43.183 105.905 46.675 C 105.905 49.523 104.164 51.387 101.208 51.387 C 98.777 51.387 96.629 49.468 96.629 47.028 C 96.629 44.353 97.21 42.205 97.21 36.676 C 97.21 31.147 96.512 28.305 96.512 26.151 C 96.512 23.011 97.901 21.148 101.208 21.148 Z M 133.378 10.734 C 136.852 10.734 138.593 13.291 138.593 16.783 C 138.593 18.876 138.13 20.913 137.957 23.005 C 137.723 25.216 137.723 27.544 137.723 29.748 C 137.723 30.212 137.723 31.029 138.068 31.029 C 138.475 31.029 139.111 30.156 139.747 29.574 C 142.937 26.027 146.066 21.086 149.775 21.086 C 152.206 21.086 154.181 22.597 154.181 25.216 C 154.181 25.333 154.125 25.562 154.125 25.68 C 153.78 28.355 151.459 29.748 149.491 31.203 C 147.868 32.422 145.375 34.051 143.696 35.215 C 145.319 37.252 149.608 40.391 151.749 41.846 C 153.607 43.128 155.341 43.883 155.341 46.558 C 155.341 49.468 153.255 51.034 150.472 51.034 C 147.226 51.034 144.733 47.722 142.82 45.276 C 141.197 43.183 139.808 41.264 137.371 38.589 C 137.371 41.902 137.661 43.648 137.661 45.511 C 137.661 48.304 136.735 51.387 133.489 51.387 C 129.953 51.387 128.33 48.712 128.33 45.4 C 128.33 43.016 129.373 39.524 129.373 30.633 C 129.373 23.655 128.738 20.634 128.738 16.213 C 128.738 12.839 130.361 10.746 133.372 10.746 Z M 171.343 45.858 C 171.343 49.344 168.85 51.498 165.838 51.498 C 163.055 51.498 160.389 49.288 160.389 46.384 C 160.389 42.781 162.419 40.8 166.066 40.8 C 169.195 40.8 171.343 43.419 171.343 45.858 Z M 166.011 11.142 C 168.911 11.142 171.17 12.362 171.17 15.563 C 171.17 20.386 170.473 24.696 170.473 29.345 C 170.473 31.32 170.355 33.766 169.602 35.623 C 168.905 37.308 167.572 37.89 165.838 37.89 C 160.333 37.89 161.549 30.621 161.086 27.191 C 160.852 25.736 160.796 20.677 160.796 17.538 C 160.796 13.644 160.914 11.142 166.011 11.142 Z" fill="var(--token-d6e822f2-44da-4af7-a1c0-4260971469c3, rgb(244, 241, 254)) /* {&quot;name&quot;:&quot;White&quot;} */" stroke-width="20" stroke="var(--token-d6e822f2-44da-4af7-a1c0-4260971469c3, rgb(244, 241, 254)) /* {&quot;name&quot;:&quot;White&quot;} */" stroke-linejoin="round"></path><path d="M 43.175 31.748 C 43.175 41.864 37.671 51.17 24.107 51.17 C 13.85 51.17 10.432 46.459 10.432 35.76 C 10.432 32.738 10.549 34.076 10.549 30.528 C 10.549 28.491 10.432 25.934 10.432 23.785 C 10.432 19.656 11.419 16.461 13.27 14.715 C 15.473 12.622 19.935 11.749 22.774 11.749 C 36.221 11.749 43.175 18.263 43.175 31.754 Z M 33.962 31.63 C 33.962 25.581 31.179 20.114 24.107 20.114 C 20.052 20.114 19.238 23.08 19.238 26.51 C 19.238 29.94 19.238 32.441 19.411 36.218 C 19.645 39.995 20.225 42.905 24.687 42.905 C 31.697 42.905 33.962 37.499 33.962 31.624 Z M 76.382 23.606 C 76.382 28.429 74.586 31.11 71.747 33.432 C 69.89 34.942 67.804 35.116 67.804 36.051 C 67.804 37.153 72.038 39.363 72.963 40.007 C 74.993 41.227 77.369 42.737 77.369 45.412 C 77.369 48.613 75.284 50.706 72.093 50.706 C 68.903 50.706 66.471 48.031 64.441 45.53 C 62.411 43.202 60.559 40.409 58.585 38.261 C 58.239 37.914 57.424 36.979 56.906 36.979 C 56.499 36.979 56.443 37.561 56.443 37.852 C 56.443 40.292 57.258 42.855 57.258 45.53 C 57.258 48.904 55.635 50.706 52.043 50.706 C 47.174 50.706 47.174 47.332 47.174 42.973 C 47.174 40.762 47.637 36.521 47.637 29.364 C 47.637 26.516 47.113 23.723 47.113 21.049 C 47.113 12.034 53.259 11.223 60.559 11.223 C 68.903 11.223 76.382 13.898 76.382 23.606 Z M 67.459 23.779 C 67.459 20.231 64.447 18.43 61.139 18.43 C 59.689 18.43 58.128 18.665 56.851 19.767 C 55.752 20.813 55.518 23.259 55.518 24.652 C 55.518 28.138 56.622 30.528 60.504 30.528 C 65.836 30.528 67.459 27.618 67.459 23.785 Z M 91.976 16.399 C 91.976 18.665 90.761 22.275 88.033 22.275 C 85.021 22.275 81.485 21.457 81.485 17.736 C 81.485 12.913 83.164 11.514 87.743 11.514 C 90.699 11.514 91.976 13.662 91.976 16.399 Z M 82.121 29.482 C 82.121 26.281 83.744 25.525 86.466 25.525 C 89.014 25.525 90.927 26.342 90.927 29.073 C 90.927 32.967 90.754 35.76 90.754 38.552 C 90.754 41.053 91.625 42.737 91.625 44.948 C 91.625 48.205 90.347 50.935 86.7 50.935 C 83.053 50.935 81.887 49.542 81.887 45.877 C 81.887 42.211 82.294 38.49 82.294 34.831 C 82.294 33.147 82.121 31.166 82.121 29.482 Z M 101.424 20.875 C 104.38 20.875 105.948 22.448 105.948 25.414 C 107.398 22.683 110.527 21.346 113.538 21.346 C 120.437 21.346 123.739 25.067 123.739 32.28 C 123.739 34.255 123.566 36.001 123.566 37.92 C 123.566 42.744 124.202 43.443 124.202 46.236 C 124.202 49.201 122.523 51.003 119.505 51.003 C 116.722 51.003 115.044 49.375 115.044 46.527 C 115.044 43.388 115.389 40.478 115.389 37.338 C 115.389 34.199 115.044 29.834 110.928 29.834 C 107.737 29.834 105.713 31.871 105.713 35.184 C 105.713 40.651 106.12 42.917 106.12 46.409 C 106.12 49.257 104.38 51.121 101.424 51.121 C 98.993 51.121 96.845 49.201 96.845 46.762 C 96.845 44.087 97.425 41.939 97.425 36.41 C 97.425 30.881 96.728 28.039 96.728 25.884 C 96.728 22.745 98.117 20.882 101.424 20.882 Z M 133.594 10.467 C 137.068 10.467 138.809 13.025 138.809 16.517 C 138.809 18.609 138.346 20.646 138.173 22.739 C 137.938 24.949 137.938 27.277 137.938 29.482 C 137.938 29.946 137.938 30.763 138.284 30.763 C 138.691 30.763 139.327 29.89 139.963 29.308 C 143.153 25.76 146.282 20.82 149.991 20.82 C 152.422 20.82 154.397 22.33 154.397 24.949 C 154.397 25.067 154.341 25.296 154.341 25.414 C 153.996 28.088 151.675 29.482 149.707 30.936 C 148.084 32.156 145.591 33.785 143.912 34.949 C 145.535 36.986 149.824 40.125 151.965 41.58 C 153.823 42.861 155.557 43.617 155.557 46.291 C 155.557 49.201 153.471 50.768 150.688 50.768 C 147.442 50.768 144.949 47.455 143.036 45.01 C 141.413 42.917 140.024 40.998 137.587 38.323 C 137.587 41.635 137.877 43.381 137.877 45.245 C 137.877 48.037 136.951 51.121 133.705 51.121 C 130.169 51.121 128.546 48.446 128.546 45.134 C 128.546 42.75 129.589 39.258 129.589 30.367 C 129.589 23.389 128.953 20.368 128.953 15.947 C 128.953 12.573 130.576 10.48 133.588 10.48 Z M 171.558 45.592 C 171.558 49.078 169.065 51.232 166.054 51.232 C 163.271 51.232 160.605 49.022 160.605 46.118 C 160.605 42.515 162.635 40.533 166.282 40.533 C 169.411 40.533 171.558 43.152 171.558 45.592 Z M 166.227 10.876 C 169.127 10.876 171.386 12.096 171.386 15.297 C 171.386 20.12 170.688 24.429 170.688 29.079 C 170.688 31.054 170.571 33.5 169.818 35.357 C 169.121 37.041 167.788 37.623 166.054 37.623 C 160.549 37.623 161.765 30.355 161.302 26.924 C 161.068 25.469 161.012 20.411 161.012 17.272 C 161.012 13.377 161.129 10.876 166.227 10.876 Z" fill="rgb(0,0,0)"></path></svg>