<?xml version="1.0" encoding="UTF-8" standalone="no"?><!DOCTYPE svg PUBLIC "-//W3C//DTD SVG 1.1//EN" "http://www.w3.org/Graphics/SVG/1.1/DTD/svg11.dtd"><svg width="100%" height="100%" viewBox="0 0 3750 1250" version="1.1" xmlns="http://www.w3.org/2000/svg" xmlns:xlink="http://www.w3.org/1999/xlink" xml:space="preserve" xmlns:serif="http://www.serif.com/" style="fill-rule:evenodd;clip-rule:evenodd;stroke-linecap:round;stroke-miterlimit:10;"><path d="M529.792,543.375c103.583,45.958 107.917,201.583 196.458,382.917c44.167,90.417 115.167,152 113.958,160.042c-1.208,8.042 -114.125,-39.833 -195.167,-143c-86.625,-110.208 -183.958,-240.292 -184.208,-336.208c-0.208,-95.917 68.958,-63.75 68.958,-63.75Z" style="fill:#8747cc;fill-rule:nonzero;"/><path d="M727.397,1017.949c3.764,-5.111 17.403,-1.466 30.439,8.135c13.036,9.6 20.564,21.544 16.8,26.654c-3.764,5.111 -17.403,1.466 -30.439,-8.135c-13.036,-9.6 -20.564,-21.544 -16.8,-26.654Z"/><path d="M639.598,920.538c6.805,-5.556 23.83,4.02 37.996,21.37c14.166,17.35 20.142,35.947 13.337,41.503c-6.805,5.556 -23.83,-4.02 -37.996,-21.37c-14.166,-17.35 -20.142,-35.947 -13.337,-41.503Z"/><path d="M551.317,794.596c7.979,-5.402 27.75,9.846 44.124,34.03c16.374,24.184 23.189,48.204 15.211,53.606c-7.979,5.402 -27.75,-9.846 -44.124,-34.03c-16.374,-24.184 -23.189,-48.204 -15.211,-53.606Z"/><path d="M359.875,665.167c100.708,287.833 -7.083,485.25 -28.125,527.25c-21.042,42.042 259.125,-156.958 176.167,-523.708c-40.542,-179.25 -188,-117.833 -148.042,-3.542Z" style="fill:#8747cc;fill-rule:nonzero;"/><path d="M429.297,860.589c1.114,-21.266 13.56,-37.926 27.776,-37.181c14.215,0.745 24.852,18.615 23.737,39.88c-1.114,21.266 -13.56,37.926 -27.776,37.181c-14.215,-0.745 -24.852,-18.615 -23.737,-39.88Z"/><path d="M417.59,985.848c3.368,-17.454 15.671,-29.779 27.458,-27.505c11.787,2.274 18.622,18.291 15.255,35.745c-3.368,17.454 -15.671,29.779 -27.458,27.505c-11.787,-2.274 -18.622,-18.291 -15.255,-35.745Z"/><path d="M385.208,1087.058c4.926,-11.274 15.101,-17.729 22.708,-14.405c7.607,3.324 9.785,15.175 4.859,26.449c-4.926,11.274 -15.101,17.729 -22.708,14.405c-7.607,-3.324 -9.785,-15.175 -4.859,-26.449Z"/><path d="M790.65,814.642l25.217,-85.958l42.7,12.525l-25.217,85.958l-42.7,-12.525Z" style="fill-rule:nonzero;"/><path d="M694.253,553.615c13.949,-92.783 109.963,-155.378 214.275,-139.696c104.312,15.683 177.676,103.743 163.727,196.526c-13.949,92.783 -109.963,155.378 -214.275,139.696c-104.312,-15.683 -177.676,-103.743 -163.727,-196.526Z" style="fill:#427ed6;"/><path d="M735.144,526.487c27.106,-72.382 115.169,-106.411 196.531,-75.942c81.363,30.469 125.412,113.971 98.307,186.353c-27.106,72.382 -115.169,106.411 -196.531,75.942c-81.363,-30.469 -125.412,-113.971 -98.307,-186.353Z" style="fill:#e2dcfe;"/><path d="M977.666,533.496c12.06,-2.76 25.713,11.87 30.468,32.651c4.756,20.781 -1.175,39.892 -13.235,42.652c-12.06,2.76 -25.713,-11.87 -30.468,-32.651c-4.756,-20.781 1.175,-39.892 13.235,-42.652Z" style="fill:#f7f7f7;"/><path d="M848.818,867.73l-59.82,203.906c-7.454,25.41 -34.136,39.987 -59.545,32.533c-25.41,-7.454 -39.987,-34.136 -32.533,-59.545l59.82,-203.906c7.454,-25.41 34.136,-39.987 59.545,-32.533c25.41,7.454 39.987,34.136 32.533,59.545Z" style="fill:#427ed6;"/><path d="M750.56,859.898l4.023,-13.714l92.078,27.013l-4.023,13.714l-92.078,-27.013Z" style="fill:#6af;fill-rule:nonzero;"/><path d="M697.874,1039.436l4.023,-13.714l92.078,27.013l-4.023,13.714l-92.078,-27.013Z" style="fill:#6af;fill-rule:nonzero;"/><path d="M545.167,574.5c66,59.333 68,233.625 109.833,330.292c29.125,67.25 83.125,97.167 180.625,18.333c6.583,-5.333 15.583,2.833 10.875,9.917c-133.792,201.833 -234.625,104.167 -295,22.167c-58.625,-79.583 -107.292,-193.958 -123.542,-341.917c-9.875,-89.958 51.333,-98 117.208,-38.75l0,-0.042Z" style="fill:#bc83fb;fill-rule:nonzero;"/><path d="M287.625,633.75c-32.25,252.25 -188.917,361.833 -224.542,378.417c-2.458,1.125 -1.625,4.792 1.083,4.875c179.708,5.042 273.458,-140.917 343.333,-333c65.167,-179.167 -101.542,-193.625 -119.833,-50.292l-0.042,0Z" style="fill:#8747cc;fill-rule:nonzero;"/><path d="M312.25,810.375c-13.083,30.167 -40.458,40.708 -49.25,18.958c-8.792,-21.75 7.583,-59.458 29.458,-67.917c21.875,-8.458 32.875,18.75 19.792,48.917l0,0.042Zm-65.958,112.833c-17.25,20.875 -41.333,22.958 -43.292,3.75c-1.958,-19.208 19.583,-45.292 38.833,-46.958c19.25,-1.667 21.708,22.333 4.458,43.208Zm-83.917,68.167c-15.083,7.5 -29.25,2.625 -25.542,-8.792c3.708,-11.417 22.542,-20.792 33.917,-16.875c11.375,3.917 6.708,18.167 -8.375,25.667Z" style="fill-rule:nonzero;"/><path d="M381.417,513.542c-188.708,99.917 -10.458,504.375 -260.125,680.042c-17.875,12.583 32.708,12.625 105.417,-49.583c72.708,-62.208 241,-293.667 221.708,-597.083c-5.167,-81.042 -67.042,-33.417 -67.042,-33.417l0.042,0.042Z" style="fill:#bc83fb;fill-rule:nonzero;"/><path d="M437.083,68.792c119.417,119.542 196.833,154.042 113.667,283.417c-42.417,-70.417 -113.667,-283.417 -113.667,-283.417Zm-13.875,4.5c-136.417,137.208 -191.917,180.083 -95.208,278.917c42.417,-76.792 95.208,-278.917 95.208,-278.917Z" style="fill:#8747cc;fill-rule:nonzero;"/><path d="M561.833,517.417c-56.917,104.917 -193.75,90.333 -247.833,4.958c-79.375,-125.292 36.083,-281.833 79.75,-380.125l0.083,-0.167c12.417,-28.042 23.167,-55.75 29.875,-83.292c1.917,-7.958 13,-7.958 15,-0.042c36.458,143.708 213.875,291.333 123.083,458.667l0.042,0Z" style="fill:#bc83fb;fill-rule:nonzero;"/><path d="M545.208,542.458c-25.458,57.25 -109.625,74.167 -158.958,38.625c14.667,3.083 28.833,3.958 43,3.75c43,0.083 83.208,-13.667 115.917,-42.375l0.042,0Z" style="fill:#8747cc;fill-rule:nonzero;"/><path d="M420.208,503.458c5.5,17.292 37.5,17.917 42,-0.333c1.458,-5.542 9.875,-3.917 9.25,1.75c-1.292,23.708 -32.833,30.708 -49.958,18.458c-5.958,-2.958 -17.5,-21.167 -6.458,-23.5c2.417,-0.208 4.542,1.375 5.167,3.625Z" style="fill-rule:nonzero;"/><path d="M298,830.167c173.5,63.917 305.167,-9.792 305.167,-9.792l-92.25,-216.125c-50.583,9.75 -87.208,8.833 -140.958,0l-71.958,225.875l0,0.042Z" style="fill:#f7f7f7;fill-rule:nonzero;"/><path d="M436.456,631.075c15.653,-5.396 32.275,1.573 37.094,15.552c4.819,13.979 -3.977,29.71 -19.631,35.106c-15.653,5.396 -32.275,-1.573 -37.094,-15.552c-4.819,-13.979 3.977,-29.71 19.631,-35.106Z" style="fill:#6af;"/><path d="M334.333,547.833c13.917,24.5 47.417,38.667 72.833,46.208c17.917,5.333 28.875,23.292 25.083,41.583c-34.167,165.208 -63,237.5 -63,237.5c-131.792,12.375 -189.458,-94.75 -189.458,-94.75c103.875,-83.917 99.25,-202.708 147.75,-232.292c2.333,-1.417 5.417,-0.667 6.792,1.708l-0,0.042Zm207.875,-1.125c-12.875,24 -38.625,39.375 -58.417,48.125c-15.292,6.792 -23.792,23.333 -20.542,39.75c33.333,167.583 51.958,237.458 51.958,237.458c131.792,12.375 181.5,-94.75 181.5,-94.75c-52.042,-136.125 -96.333,-206.125 -147.958,-232.625c-2.333,-1.208 -5.292,-0.333 -6.5,2l-0.042,0.042Z" style="fill:#211d45;fill-rule:nonzero;"/><path d="M502.677,405.916c33.446,-4.047 63.121,13.5 66.226,39.161c3.105,25.661 -21.527,49.78 -54.973,53.827c-33.446,4.047 -63.121,-13.5 -66.226,-39.161c-3.105,-25.661 21.527,-49.78 54.973,-53.827Z" style="fill:#e2dcfe;fill-opacity:0.5;"/><path d="M570.208,449.375l28.875,0" style="fill:none;fill-rule:nonzero;stroke:#565191;stroke-width:12.5px;"/><path d="M456.833,472.667c3.333,-31.458 45.75,-45.583 69.167,-25.333c7.167,4.5 21.25,29.625 8.125,32c-2.75,0.25 -5.25,-1.375 -6.167,-3.875c-2.417,-6.708 -6.375,-12.042 -11.542,-15.583c-16.458,-11.167 -41.458,-3.625 -48.125,15.708c-2.583,6.458 -12.333,3.875 -11.458,-2.958l0,0.042Z" style="fill-rule:nonzero;"/><g opacity="0.5"><path d="M306.035,444.815c3.105,-25.661 32.78,-43.208 66.226,-39.161c33.446,4.047 58.078,28.167 54.973,53.827c-3.105,25.661 -32.78,43.208 -66.226,39.161c-33.446,-4.047 -58.078,-28.167 -54.973,-53.827Z" style="fill:#e2dcfe;"/><path d="M304.917,449.375l-28.917,0" style="fill:none;fill-rule:nonzero;"/></g><path d="M416.042,475.375c-9.542,-26.875 -50.792,-27.875 -59.583,0.125c-2.417,6.5 -12.208,4.208 -11.542,-2.625c2.708,-32.667 44.75,-45.375 68.625,-25.208c7,4.417 21.958,28.833 8.875,31.708c-2.875,0.375 -5.5,-1.375 -6.417,-4l0.042,0Z" style="fill-rule:nonzero;"/><path d="M306.035,444.815c3.105,-25.661 32.78,-43.208 66.226,-39.161c33.446,4.047 58.078,28.167 54.973,53.827c-3.105,25.661 -32.78,43.208 -66.226,39.161c-33.446,-4.047 -58.078,-28.167 -54.973,-53.827Z" style="fill:none;stroke:#565191;stroke-width:12.5px;stroke-linecap:butt;"/><path d="M304.917,449.375l-28.917,0" style="fill:none;fill-rule:nonzero;stroke:#565191;stroke-width:12.5px;"/><path d="M502.677,405.916c33.446,-4.047 63.121,13.5 66.226,39.161c3.105,25.661 -21.527,49.78 -54.973,53.827c-33.446,4.047 -63.121,-13.5 -66.226,-39.161c-3.105,-25.661 21.527,-49.78 54.973,-53.827Z" style="fill:none;stroke:#565191;stroke-width:12.5px;stroke-linecap:butt;"/><path d="M1243.928,468.855l0,-44.409l38.617,0l0,44.409l-38.617,0Zm0,270.103l0,-227.839l38.617,0l0,227.839l-38.617,0Z" style="fill:#fff;fill-rule:nonzero;"/><path d="M1341.328,738.958l0,-227.839l34.755,0l0,32.395c16.734,-25.029 40.905,-37.544 72.514,-37.544c13.73,0 26.352,2.467 37.866,7.402c11.514,4.934 20.131,11.406 25.852,19.416c5.721,8.009 9.726,17.521 12.014,28.534c1.43,7.151 2.145,19.666 2.145,37.544l0,140.093l-38.617,0l0,-138.592c0,-15.733 -1.502,-27.497 -4.505,-35.292c-3.004,-7.795 -8.331,-14.016 -15.983,-18.665c-7.652,-4.648 -16.627,-6.972 -26.925,-6.972c-16.448,0 -30.643,5.22 -42.586,15.661c-11.943,10.441 -17.914,30.25 -17.914,59.427l0,124.432l-38.617,0Z" style="fill:#fff;fill-rule:nonzero;"/><path d="M1585.901,738.958l0,-314.513l38.617,0l0,179.354l91.393,-92.68l49.987,0l-87.102,84.528l95.899,143.311l-47.627,0l-75.303,-116.494l-27.246,26.174l0,90.321l-38.617,0Z" style="fill:#fff;fill-rule:nonzero;"/><path d="M1825.969,660.866l-11.8,-166.696l0,-69.725l47.842,0l0,69.725l-11.156,166.696l-24.886,0Zm-10.083,78.092l0,-43.98l44.409,0l0,43.98l-44.409,0Z" style="fill:#fff;fill-rule:nonzero;"/><path d="M2198.193,710.853c-14.303,12.157 -28.069,20.739 -41.299,25.745c-13.23,5.006 -27.425,7.509 -42.586,7.509c-25.029,0 -44.266,-6.114 -57.711,-18.343c-13.444,-12.229 -20.167,-27.854 -20.167,-46.877c0,-11.156 2.539,-21.347 7.616,-30.572c5.077,-9.225 11.728,-16.627 19.952,-22.205c8.224,-5.578 17.485,-9.797 27.783,-12.658c7.58,-2.002 19.022,-3.933 34.326,-5.793c31.18,-3.719 54.135,-8.152 68.867,-13.301c0.143,-5.292 0.215,-8.653 0.215,-10.083c0,-15.733 -3.647,-26.817 -10.941,-33.253c-9.869,-8.725 -24.529,-13.087 -43.98,-13.087c-18.164,0 -31.573,3.182 -40.226,9.547c-8.653,6.365 -15.053,17.628 -19.201,33.79l-37.759,-5.149c3.433,-16.162 9.082,-29.213 16.949,-39.153c7.866,-9.94 19.237,-17.592 34.112,-22.956c14.875,-5.363 32.109,-8.045 51.704,-8.045c19.451,0 35.256,2.288 47.413,6.865c12.157,4.577 21.096,10.334 26.817,17.27c5.721,6.937 9.726,15.697 12.014,26.281c1.287,6.579 1.931,18.45 1.931,35.613l0,51.489c0,35.899 0.822,58.605 2.467,68.116c1.645,9.511 4.899,18.629 9.761,27.354l-40.333,0c-4.005,-8.009 -6.579,-17.378 -7.723,-28.104Zm-3.218,-86.244c-14.016,5.721 -35.041,10.584 -63.074,14.589c-15.876,2.288 -27.103,4.863 -33.682,7.723c-6.579,2.861 -11.657,7.044 -15.232,12.55c-3.576,5.506 -5.363,11.621 -5.363,18.343c0,10.298 3.897,18.879 11.692,25.745c7.795,6.865 19.201,10.298 34.219,10.298c14.875,0 28.104,-3.254 39.69,-9.761c11.585,-6.508 20.095,-15.411 25.53,-26.71c4.148,-8.725 6.222,-21.597 6.222,-38.617l0,-14.16Z" style="fill:#fff;fill-rule:nonzero;"/><path d="M2293.877,738.958l0,-227.839l34.755,0l0,32.395c16.734,-25.029 40.905,-37.544 72.514,-37.544c13.73,0 26.352,2.467 37.866,7.402c11.514,4.934 20.131,11.406 25.852,19.416c5.721,8.009 9.726,17.521 12.014,28.534c1.43,7.151 2.145,19.666 2.145,37.544l0,140.093l-38.617,0l0,-138.592c0,-15.733 -1.502,-27.497 -4.505,-35.292c-3.004,-7.795 -8.331,-14.016 -15.983,-18.665c-7.652,-4.648 -16.627,-6.972 -26.925,-6.972c-16.448,0 -30.643,5.22 -42.586,15.661c-11.943,10.441 -17.914,30.25 -17.914,59.427l0,124.432l-38.617,0Z" style="fill:#fff;fill-rule:nonzero;"/><path d="M2686.91,710.853c-14.303,12.157 -28.069,20.739 -41.299,25.745c-13.23,5.006 -27.425,7.509 -42.586,7.509c-25.029,0 -44.266,-6.114 -57.711,-18.343c-13.444,-12.229 -20.167,-27.854 -20.167,-46.877c0,-11.156 2.539,-21.347 7.616,-30.572c5.077,-9.225 11.728,-16.627 19.952,-22.205c8.224,-5.578 17.485,-9.797 27.783,-12.658c7.58,-2.002 19.022,-3.933 34.326,-5.793c31.18,-3.719 54.135,-8.152 68.867,-13.301c0.143,-5.292 0.215,-8.653 0.215,-10.083c0,-15.733 -3.647,-26.817 -10.941,-33.253c-9.869,-8.725 -24.529,-13.087 -43.98,-13.087c-18.164,0 -31.573,3.182 -40.226,9.547c-8.653,6.365 -15.053,17.628 -19.201,33.79l-37.759,-5.149c3.433,-16.162 9.082,-29.213 16.949,-39.153c7.866,-9.94 19.237,-17.592 34.112,-22.956c14.875,-5.363 32.109,-8.045 51.704,-8.045c19.451,0 35.256,2.288 47.413,6.865c12.157,4.577 21.096,10.334 26.817,17.27c5.721,6.937 9.726,15.697 12.014,26.281c1.287,6.579 1.931,18.45 1.931,35.613l0,51.489c0,35.899 0.822,58.605 2.467,68.116c1.645,9.511 4.899,18.629 9.761,27.354l-40.333,0c-4.005,-8.009 -6.579,-17.378 -7.723,-28.104Zm-3.218,-86.244c-14.016,5.721 -35.041,10.584 -63.074,14.589c-15.876,2.288 -27.103,4.863 -33.682,7.723c-6.579,2.861 -11.657,7.044 -15.232,12.55c-3.576,5.506 -5.363,11.621 -5.363,18.343c0,10.298 3.897,18.879 11.692,25.745c7.795,6.865 19.201,10.298 34.219,10.298c14.875,0 28.104,-3.254 39.69,-9.761c11.585,-6.508 20.095,-15.411 25.53,-26.71c4.148,-8.725 6.222,-21.597 6.222,-38.617l0,-14.16Z" style="fill:#fff;fill-rule:nonzero;"/><rect x="2781.736" y="424.445" width="38.617" height="314.513" style="fill:#fff;fill-rule:nonzero;"/><path d="M2878.493,826.704l-4.291,-36.257c8.438,2.288 15.804,3.433 22.097,3.433c8.582,0 15.447,-1.43 20.596,-4.291c5.149,-2.861 9.368,-6.865 12.658,-12.014c2.431,-3.862 6.365,-13.444 11.8,-28.748c0.715,-2.145 1.859,-5.292 3.433,-9.44l-86.459,-228.268l41.62,0l47.413,131.941c6.15,16.734 11.657,34.326 16.519,52.776c4.434,-17.735 9.726,-35.041 15.876,-51.918l48.7,-132.799l38.617,0l-86.673,231.701c-9.297,25.029 -16.519,42.264 -21.668,51.704c-6.865,12.729 -14.732,22.062 -23.599,27.997c-8.868,5.936 -19.451,8.903 -31.752,8.903c-7.437,0 -15.733,-1.573 -24.886,-4.72Z" style="fill:#fff;fill-rule:nonzero;"/><path d="M3079.515,738.958l0,-31.323l145.028,-166.482c-16.448,0.858 -30.965,1.287 -43.551,1.287l-92.895,0l0,-31.323l186.219,0l0,25.53l-123.359,144.599l-23.814,26.388c17.306,-1.287 33.539,-1.931 48.7,-1.931l105.338,0l0,33.253l-201.666,0Z" style="fill:#fff;fill-rule:nonzero;"/><path d="M3475.552,665.586l39.904,4.934c-6.293,23.313 -17.95,41.406 -34.97,54.278c-17.02,12.872 -38.76,19.308 -65.22,19.308c-33.325,0 -59.749,-10.262 -79.272,-30.786c-19.523,-20.524 -29.284,-49.308 -29.284,-86.352c0,-38.331 9.869,-68.08 29.606,-89.248c19.737,-21.168 45.339,-31.752 76.805,-31.752c30.464,0 55.351,10.369 74.659,31.108c19.308,20.739 28.963,49.916 28.963,87.532c0,2.288 -0.072,5.721 -0.215,10.298l-169.914,0c1.43,25.029 8.51,44.195 21.239,57.496c12.729,13.301 28.605,19.952 47.627,19.952c14.16,0 26.245,-3.719 36.257,-11.156c10.012,-7.437 17.95,-19.308 23.814,-35.613Zm-126.792,-62.431l127.221,0c-1.716,-19.165 -6.579,-33.539 -14.589,-43.122c-12.3,-14.875 -28.248,-22.312 -47.842,-22.312c-17.735,0 -32.646,5.936 -44.731,17.807c-12.086,11.871 -18.772,27.747 -20.059,47.627Z" style="fill:#fff;fill-rule:nonzero;"/><path d="M3563.513,738.958l0,-227.839l34.755,0l0,34.541c8.868,-16.162 17.056,-26.817 24.565,-31.966c7.509,-5.149 15.769,-7.723 24.779,-7.723c13.015,0 26.245,4.148 39.69,12.443l-13.301,35.828c-9.44,-5.578 -18.879,-8.367 -28.319,-8.367c-8.438,0 -16.019,2.539 -22.741,7.616c-6.722,5.077 -11.514,12.121 -14.374,21.132c-4.291,13.73 -6.436,28.748 -6.436,45.053l0,119.283l-38.617,0Z" style="fill:#fff;fill-rule:nonzero;"/></svg>