<svg width="1068" height="460" fill="none" version="1.1" viewBox="0 0 1068 460" xmlns="http://www.w3.org/2000/svg">
 <g transform="translate(-106 -89.79)">
  <path d="m876.7 403.2c-14.82 5.364-23.07 21.05-18.41 35.01 4.659 13.96 20.47 20.94 35.29 15.57 14.82-5.364 23.07-21.05 18.41-35.01s-20.47-20.94-35.29-15.57zm-483.6-141.8c3.869 0 5.803 1.935 5.803 5.804v181.8c0 3.868-1.934 5.803-5.803 5.803h-38.3c-3.869 0-5.803-1.935-5.803-5.803v-181.8c0-3.869 1.934-5.804 5.803-5.804zm157.5-1.547c42.17 0 56.87 28.63 56.87 68.09v121.1c0 3.868-1.934 5.803-5.803 5.803h-38.3c-3.869 0-5.804-1.935-5.804-5.803v-126.9c0-13.15-9.672-17.8-20.89-17.8h-4.642c-16.64 0-28.63 6.964-32.89 13.93v130.8c0 3.868-1.935 5.803-5.804 5.803h-38.3c-3.869 0-5.803-1.935-5.803-5.803v-181.8c0-3.869 1.934-5.804 5.803-5.804h38.3c3.869 0 5.804 1.935 5.804 5.804v17.02c5.803-9.672 20.5-24.37 49.14-24.37zm147.4-75.83c3.869 0 5.803 1.935 5.803 5.803v134.3l54.94-58.03c2.321-2.708 5.803-4.643 8.899-4.643h39.85c5.03 0 9.672 5.804 2.708 13.16l-57.65 61.9 67.32 107.9c2.321 4.256 1.934 10.45-4.643 10.45h-36.37c-5.029 0-9.672-1.548-12.77-6.964l-47.2-78.15-15.09 15.09v64.22c0 3.868-1.934 5.803-5.803 5.803h-38.3c-3.869 0-5.804-1.935-5.804-5.803v-259.2c0-3.868 1.935-5.803 5.804-5.803zm-331.5 9.192c-14.52 4.391-23.26 19.04-19.5 32.7 3.759 13.66 18.6 21.18 33.12 16.79 14.52-4.391 23.26-19.05 19.5-32.7-3.758-13.66-18.6-21.18-33.12-16.79z" clip-rule="evenodd" fill="#d8b6ff" fill-rule="evenodd"/>
  <path d="m871.9 358.2-8.431-0.063c-3.869 0-5.803-1.934-5.803-5.803v-162.5c0-3.868 1.934-5.803 5.803-5.803h39.46c3.869 0 5.804 1.935 5.804 5.803l-0.024 5.484c-15.01 3.656-26.69 18.95-27.63 38.02-0.751 15.32 5.624 29.19 15.7 37.04-7.507 5.108-13.02 13.73-14.41 24.06-1.506 11.25 2.24 21.9 9.186 28.95-7.011 3.078-13.4 9.368-17.03 17.66-2.569 5.864-3.371 11.84-2.631 17.14z" clip-rule="evenodd" fill="#d8b6ff" fill-rule="evenodd"/>
  <path d="m884.1 345c-2.877 6.566-0.676 13.5 4.911 15.47s12.46-1.755 15.34-8.321c2.877-6.567 0.676-13.5-4.911-15.47-5.587-1.974-12.46 1.755-15.34 8.321zm10.42-48.07c-1.92 10.16 3.44 19.71 11.96 21.3 8.523 1.59 17-5.374 18.92-15.54 1.921-10.17-3.44-19.71-11.96-21.3-8.524-1.589-17 5.374-18.92 15.54zm-2.141-59.92c-0.682 13.91 8.254 25.87 19.94 26.7 11.69 0.827 21.73-9.795 22.41-23.7s-8.254-25.87-19.94-26.7-21.73 9.796-22.41 23.7z" clip-rule="evenodd" fill="#d8b6ff" fill-rule="evenodd"/>
  <rect transform="matrix(1,0,0,-1,960,455)" width="144" height="36" rx="8" fill="#5a007e"/>
  <path d="m176 263c0-4.418 3.582-8 8-8h24c4.418 0 8 3.582 8 8v24c0 4.418-3.582 8-8 8h-24c-4.418 0-8-3.582-8-8z" fill="#5a007e"/>
  <path d="m176 447c0 4.418 3.582 8 8 8h24c4.418 0 8-3.582 8-8v-24c0-4.418-3.582-8-8-8h-24c-4.418 0-8 3.582-8 8z" fill="#5a007e"/>
  <path d="m216 303c0-4.418 3.582-8 8-8h24c4.418 0 8 3.582 8 8v24c0 4.418-3.582 8-8 8h-24c-4.418 0-8-3.582-8-8z" fill="#5a007e"/>
  <path d="m216 407c0 4.418 3.582 8 8 8h24c4.418 0 8-3.582 8-8v-24c0-4.418-3.582-8-8-8h-24c-4.418 0-8 3.582-8 8z" fill="#5a007e"/>
  <path d="m256 343c0-4.418 3.582-8 8-8h24c4.418 0 8 3.582 8 8v24c0 4.418-3.582 8-8 8h-24c-4.418 0-8-3.582-8-8z" fill="#5a007e"/>
 </g>
</svg>
