<svg enable-background="new 0 0 1780 1000" version="1.1" viewBox="0 0 1780 1e3" xmlns="http://www.w3.org/2000/svg">
 <style type="text/css">.st0{fill:#8747CC;}
	.st1{fill:#BC83FB;}
	.st2{fill:#B8A3C9;}
	.st3{fill:#D8B7FB;}
	.st4{fill:#50D985;}
	.st5{fill:#FF705E;}
	.st6{fill:#E34135;}
	.st7{fill:#FFFFFF;}</style>
 <path class="st0" d="m1505 640.3c42.4-2.6 49.5-12.6 49.7-35.1 0.1-15.1 1.2-28.9 1.9-36.3 0.2-2.4-2.3-3.9-4.4-2.7-50.6 30.2-58.2 32.8-47.2 74.1z"/>
 <path class="st1" d="m1551 575.3c0.6-0.8 0.5-1.8-0.3-2.4s-1.9-0.6-2.5 0.2c-14.8 17.3-28.7 35.4-41.6 54.3-20.7 31.3-43.7 69.5-55.6 108.4-8.8-2.2-17.8-3.3-26.4-3.3-23.4-0.2-45.5 8.8-63.7 22.9-10.5 8.1-19.6 17.9-27.1 28.7-5.9 8.7 6.9 17.2 12.7 8.7 6.7-10.4 14.8-19.8 24.2-27.5 7-5.8 14.8-10.6 23.2-14.1 16.6-7.3 36.2-9.3 54.3-5.4-3.5 13.8-5.5 27.6-5.4 41.2 0.3 6.2 0.8 12.7 2.6 18.7 6.1 23.1 30.9 36.2 51.5 21 14.4-11 15.7-31.2 9.7-46.7-6.1-15.6-18.2-27.3-32.7-35.2-3.6-2-7.4-3.7-11.3-5.2 14-59.6 55.4-120.8 88.4-164.3zm-81.8 178c5.4 2.9 10.4 6.5 14.8 10.8 7.5 7.1 12.4 16.4 13.2 26.7 1.8 13-5.9 27.5-20.1 26.3-11.1-1.1-16.8-12.8-18.2-23.2-1.8-14.4-1-29.4 1.8-44.5 3 1.1 5.8 2.4 8.5 3.9z"/>
 <path class="st0" d="m1474 744.7-4.9 8.6c-2.7-1.5-5.6-2.8-8.5-3.9l2-9.9c4 1.5 7.8 3.2 11.4 5.2z"/>
 <path class="st0" d="m1371 765.1c-9.4 7.7-17.6 17.1-24.2 27.5-5.9 8.6-18.6 0.1-12.7-8.7 7.4-10.8 16.6-20.6 27.1-28.7 2.3 5.1 6.3 8.2 9.8 9.9z"/>
 <path class="st0" d="m311.1 793.6c-64.4 3.5-62.5-3.2-77.4 21-9.9 16-21 30.7-27.5 38.9-1.9 2.4 0 6 3.1 5.7 95.3-10.4 83.8-1.1 101.8-65.6z"/>
 <path class="st1" d="m439.3 744c-12.1-1.5-24.1-3.3-36.1-5.4-13.1-2.3-26.2-5-39-8.3 11.4-28.4 12.7-59.5-5.5-86.5-12.4-18-31.5-32.1-53.7-34.8-23.1-3.4-49.4 9-54.9 33.3-7.2 31.3 11.2 55.9 36.7 71.4 18.7 11.1 38.6 19.2 59.2 25.6-1.9 4-3.9 8-6.3 11.8-0.8 1.3-1.5 2.5-2.3 3.8-10 16-23 29.9-37.5 42-14.6 12.3-30.4 23.6-46.9 33.3-11.1 6.5-22.5 12.5-34.3 17.4-2.5 1.2-0.9 4.5 1.5 3.8 12.4-4.4 24.2-9.9 35.8-15.9 23.2-12.3 45.1-26.6 65-44 9.7-8.7 19-19.2 26.9-30.7 3.9-5.7 7.5-11.6 10.7-17.8 12.8 3.5 25.8 6.5 38.8 9.2 13.2 2.8 26.5 5.3 39.7 7.8 10.8 1.5 13-14.3 2.2-16zm-88.3-17.2c-7.9-2.3-15.8-4.9-23.5-7.7-25.6-10-60.7-26.3-64.3-56.4-3.4-33.5 28.7-43.3 54.8-30 38.1 20.8 45 58.3 33 94.1z"/>
 <path class="st0" d="m358.4 743c-3.2 6.1-6.8 12.1-10.7 17.8l-8-9.6c2.3-3.9 4.4-7.8 6.3-11.8l0.8 0.2 11.1 3.2 0.5 0.2z"/>
 <path class="st0" d="m436.9 760c-13.2-2.5-26.4-5-39.7-7.8 2.4-3.3 4.7-7.8 6-13.6 12 2.1 24 3.9 36.1 5.4 10.8 1.7 8.6 17.5-2.4 16z"/>
 <path class="st2" d="m449.9 539.7c-4.7 1.8-9.2-1.4-8.2-5.8 1.1-4.3 6.9-6.5 10.6-3.9s2.3 8-2.4 9.7z"/>
 <path class="st1" d="m580.3 549.2c-2.3 3.9-5 8.1-8.1 12.4h-88.1c72-58.6 53.2-87.2 30-113.6-21.8-24.7-18.5-65.9 42.3-75.1 1.5-0.2 2.1 1.9 0.7 2.4-10.3 4.2-23.4 12.3-25.6 27-3.6 24.6 0 34.4 25.5 61.7 23.4 25.2 49.1 40.8 23.3 85.2z"/>
 <path class="st0" d="m555.7 561.6h-71.5c72-58.6 53.2-87.2 30-113.6 9.2 10.4 21.9 19.7 32.9 29.9 3.2 3 6.3 6 9.1 9.2 15.4 17.7 22.6 39.5-0.5 74.5z"/>
 <path class="st3" d="m540.2 555.4c-13 13-28.6 13.9-27.9 1.4 0.6-12.4 17-28.7 29.4-29.4s11.5 14.9-1.5 28z"/>
 <path class="st3" d="m547.2 505.6c-6.7-4.4-9.4-18.1-5-24.7 1.4-2 3.1-2.9 4.9-2.9 3.2 3 6.3 6 9.1 9.2 0.4 1.1 0.7 2.2 1 3.5 2.2 11-3.4 19.2-10 14.9z"/>
 <path class="st0" d="M580.3,549.2c-2.3,3.9-5,8.1-8.1,12.4H547l4-12.4H580.3z"/>
 <path class="st4" d="m887.5 451.8-33.4-35.5c-2.1-2.2-0.5-5.8 2.5-5.8h66.8c3 0 4.6 3.6 2.5 5.8l-33.4 35.5c-1.4 1.4-3.6 1.4-5 0z"/>
 <path class="st4" d="m887.5 294.4-33.4 35.5c-2.1 2.2-0.5 5.8 2.5 5.8h66.8c3 0 4.6-3.6 2.5-5.8l-33.4-35.5c-1.4-1.5-3.6-1.5-5 0z"/>
 <path class="st4" d="m910.5 334.3h-41s-5.7 18.4-5.7 38.7c0 22.2 5.7 38.7 5.7 38.7h41s5.7-16.5 5.7-38.7c0-20.3-5.7-38.7-5.7-38.7z"/>
 <path class="st1" d="m1387 89.7v49.4c0 12.1-9.8 21.9-21.9 21.9h-969.4c-12.1 0-21.9-9.8-21.9-21.9v-49.4c0-12.1 9.8-21.9 21.9-21.9h14.1c1.6 0 3 0.9 3.6 2.4 2.1 5.3 9.8 9.9 20.2 10.4 8.3 0.3 15.1-2 18.9-5.6 1.6-1.5 4.1-1.4 5.6 0.2 4.5 4.9 13.3 8.4 24.3 8.4 12.1 0 21.1-4.3 25.4-10 1.4-1.8 4.1-1.9 5.6-0.1 5.8 7 16.6 12 29.3 12.1 16 0.1 27-6.9 31.7-14.5 1.3-2.1 3.6-3.3 6.1-3.3h784.6c12.1 0 21.9 9.8 21.9 21.9z"/>
 <path class="st1" d="m435.2 74.3c-12.1 0.4-19.8-7.1-13.9-13.5s21-6.8 27.2-0.8-1.3 13.9-13.3 14.3z"/>
 <path class="st1" d="m482.9 76.6c-16.2 0.6-26.7-9.1-18.9-17.4s28.1-9.1 36.5-1.4-1.4 18.1-17.6 18.8z"/>
 <path class="st1" d="m544.2 78.2c-18.2 0.6-30-10.4-21.2-19.8s31.5-10.2 40.9-1.4-1.6 20.6-19.7 21.2z"/>
 <path class="st1" d="m838.6 263.6v-27.9h11.8c3 0 5.6 0.6 7.9 1.8s4 2.8 5.3 4.9 1.9 4.5 1.9 7.3-0.6 5.2-1.9 7.3-3 3.7-5.3 4.9-4.9 1.8-7.9 1.8l-11.8-0.1zm4-3.5h7.5c2.3 0 4.3-0.4 6-1.3s3-2.1 3.9-3.7 1.4-3.4 1.4-5.5-0.5-3.9-1.4-5.5-2.2-2.8-3.9-3.7-3.7-1.3-6-1.3h-7.5v21z"/>
 <path class="st1" d="m877.2 263.8c-1.6 0-2.9-0.3-4.1-0.8s-2.1-1.3-2.7-2.2-1-2-1-3.2c0-1.1 0.3-2.2 0.8-3.1s1.4-1.7 2.7-2.2c1.2-0.6 2.9-0.8 5-0.8h6.7v2.8h-6.6c-1.9 0-3.2 0.3-3.9 1-0.7 0.6-1 1.4-1 2.3 0 1 0.4 1.9 1.2 2.5s2 0.9 3.4 0.9 2.7-0.3 3.8-1c1.1-0.6 1.9-1.6 2.3-2.8l0.8 2.6c-0.5 1.2-1.4 2.2-2.7 3-1.2 0.7-2.8 1-4.7 1zm6.9-0.2v-4.5l-0.2-0.8v-7.6c0-1.6-0.5-2.9-1.4-3.8s-2.4-1.3-4.2-1.3c-1.2 0-2.5 0.2-3.7 0.6s-2.2 1-3 1.7l-1.6-2.9c1.1-0.9 2.4-1.5 3.9-2s3.1-0.7 4.8-0.7c2.9 0 5.1 0.7 6.7 2.1s2.4 3.6 2.4 6.5v12.8h-3.7v-0.1z"/>
 <path class="st1" d="m894.8 271.3v-28.9h3.7v5.7l-0.2 4.9 0.4 4.9v13.4h-3.9zm11.2-7.5c-1.8 0-3.4-0.4-4.8-1.2s-2.6-2-3.5-3.6-1.3-3.6-1.3-6 0.4-4.4 1.3-6c0.8-1.6 2-2.8 3.4-3.6s3.1-1.2 4.9-1.2c2.1 0 3.9 0.5 5.5 1.4s2.9 2.2 3.8 3.8 1.4 3.5 1.4 5.6-0.5 4-1.4 5.7c-0.9 1.6-2.2 2.9-3.8 3.8s-3.4 1.3-5.5 1.3zm-0.3-3.3c1.4 0 2.6-0.3 3.6-0.9 1.1-0.6 1.9-1.5 2.6-2.6 0.6-1.1 0.9-2.4 0.9-3.9s-0.3-2.8-0.9-3.9-1.5-2-2.6-2.6-2.3-0.9-3.6-0.9-2.5 0.3-3.6 0.9-1.9 1.5-2.6 2.6c-0.6 1.1-0.9 2.4-0.9 3.9s0.3 2.8 0.9 3.9 1.5 2 2.6 2.6 2.3 0.9 3.6 0.9z"/>
 <path class="st1" d="m922 271.3v-28.9h3.7v5.7l-0.2 4.9 0.4 4.9v13.4h-3.9zm11.2-7.5c-1.8 0-3.4-0.4-4.8-1.2s-2.6-2-3.5-3.6-1.3-3.6-1.3-6 0.4-4.4 1.3-6c0.8-1.6 2-2.8 3.4-3.6s3.1-1.2 4.9-1.2c2.1 0 3.9 0.5 5.5 1.4s2.9 2.2 3.8 3.8 1.4 3.5 1.4 5.6-0.5 4-1.4 5.7c-0.9 1.6-2.2 2.9-3.8 3.8s-3.4 1.3-5.5 1.3zm-0.3-3.3c1.4 0 2.6-0.3 3.6-0.9 1.1-0.6 1.9-1.5 2.6-2.6 0.6-1.1 0.9-2.4 0.9-3.9s-0.3-2.8-0.9-3.9-1.5-2-2.6-2.6-2.3-0.9-3.6-0.9-2.5 0.3-3.6 0.9-1.9 1.5-2.6 2.6c-0.6 1.1-0.9 2.4-0.9 3.9s0.3 2.8 0.9 3.9 1.5 2 2.6 2.6 2.3 0.9 3.6 0.9z"/>
 <path class="st4" d="m998.5 381.4v-27.9h11.8c3 0 5.6 0.6 7.9 1.8s4 2.8 5.3 4.9 1.9 4.5 1.9 7.3-0.6 5.2-1.9 7.3-3 3.7-5.3 4.9-4.9 1.8-7.9 1.8l-11.8-0.1zm4-3.5h7.5c2.3 0 4.3-0.4 6-1.3s3-2.1 3.9-3.7 1.4-3.4 1.4-5.5-0.5-3.9-1.4-5.5-2.2-2.8-3.9-3.7-3.7-1.3-6-1.3h-7.5v21z"/>
 <path class="st4" d="m1031 381.4v-21.1h3.7v5.7l-0.4-1.4c0.6-1.5 1.6-2.6 3-3.3s3.1-1.2 5.1-1.2v3.7h-0.5s-0.3 0-0.4 0c-2 0-3.7 0.6-4.9 1.8s-1.8 3-1.8 5.3v10.5h-3.8z"/>
 <path class="st4" d="m1049 389.4c-1 0-2-0.2-3-0.5s-1.8-0.8-2.5-1.5l1.6-2.9c0.5 0.5 1.1 0.9 1.8 1.2 0.6 0.3 1.3 0.4 2 0.4 0.9 0 1.7-0.2 2.3-0.7s1.2-1.3 1.7-2.6l1.3-2.9 0.4-0.5 8.3-19.2h3.7l-10.2 23.2c-0.6 1.5-1.3 2.7-2.1 3.5-0.8 0.9-1.6 1.5-2.5 1.8s-1.7 0.7-2.8 0.7zm5-7.3-9.7-21.8h4l8.2 18.8-2.5 3z"/>
 <path class="st4" d="m1068 372.1v-3.3h10.7v3.3h-10.7z"/>
 <path class="st4" d="m1085 381.4v-27.9h10.9c2.4 0 4.5 0.4 6.3 1.2 1.7 0.8 3.1 1.9 4 3.3 0.9 1.5 1.4 3.2 1.4 5.2s-0.5 3.8-1.4 5.2-2.3 2.6-4 3.3c-1.7 0.8-3.8 1.2-6.3 1.2h-8.7l1.8-1.8v10.3h-4zm4-9.9-1.8-2h8.6c2.6 0 4.5-0.6 5.8-1.7s2-2.7 2-4.6-0.7-3.5-2-4.6-3.2-1.6-5.8-1.6h-8.6l1.8-2v16.5zm14.7 9.9-7.1-10.1h4.3l7.2 10.1h-4.4z"/>
 <path class="st4" d="m1123 381.6c-1.8 0-3.4-0.3-4.8-1s-2.4-1.7-3.2-3.1-1.1-3.1-1.1-5.2v-12.2h3.8v11.9c0 2.1 0.5 3.6 1.5 4.7 1 1 2.4 1.6 4.2 1.6 1.3 0 2.5-0.3 3.5-0.8s1.7-1.3 2.3-2.4c0.5-1 0.8-2.3 0.8-3.8v-10.9h3.8v21.1h-3.6v-5.7l0.6 1.5c-0.7 1.4-1.7 2.5-3.1 3.3-1.4 0.7-3 1-4.7 1z"/>
 <path class="st4" d="m1152 360.1c1.7 0 3.2 0.3 4.6 1 1.3 0.7 2.3 1.7 3.1 3 0.7 1.4 1.1 3.1 1.1 5.1v12.2h-3.8v-11.7c0-2-0.5-3.6-1.5-4.6s-2.4-1.6-4.2-1.6c-1.4 0-2.5 0.3-3.5 0.8s-1.8 1.3-2.3 2.4c-0.5 1-0.8 2.3-0.8 3.9v10.9h-3.8v-21.1h3.7v5.7l-0.6-1.5c0.7-1.4 1.8-2.5 3.2-3.2s2.9-1.3 4.8-1.3z"/>
 <path class="st5" d="m1331 906.7h-881.2c-10.7 0-19.4-8.7-19.4-19.4v-307.3c0-10.7 8.7-19.4 19.4-19.4h881.1c10.7 0 19.4 8.7 19.4 19.4v307.4c0 10.6-8.7 19.3-19.3 19.3z"/>
 <path class="st6" d="m1132 560.6v46.3c0 27.3-22.2 49.5-49.5 49.5h-406c-27.3 0-49.5-22.2-49.5-49.5v-46.3h505z"/>
 <path class="st4" d="m1093 642h-406c-27.3 0-49.5-22.2-49.5-49.5v-63.8c0-27.3 22.2-49.5 49.5-49.5h406c27.3 0 49.5 22.2 49.5 49.5v63.8c0 27.4-22.2 49.5-49.5 49.5z"/>
 <path d="m621.6 812.1v-15.5h-5.1v-2.3l5.1-0.2v-1.5c0-2.2 0.6-4 1.8-5.3s3-2 5.5-2c1.8 0 3.5 0.3 5.2 1l-0.7 2.3c-0.7-0.3-1.4-0.6-2.1-0.7-0.6-0.1-1.3-0.2-2.1-0.2-1.6 0-2.8 0.4-3.5 1.3-0.7 0.8-1.1 2-1.1 3.4v1.6h7.6v2.5h-7.6v15.5h-3v0.1z"/>
 <path d="m638.3 812.1v-18h2.5l0.3 3.1h0.1c0.9-1 2-1.9 3-2.5 1.1-0.7 2.3-1 3.7-1 2.1 0 3.7 0.6 4.7 1.9 1 1.2 1.5 3 1.5 5.4v11.2h-3v-10.8c0-1.7-0.3-3-1-3.8-0.6-0.8-1.7-1.2-3.2-1.2-1.1 0-2 0.3-2.9 0.8-0.8 0.5-1.8 1.4-2.9 2.4v12.6h-2.8v-0.1z"/>
 <path d="m688.3 812.1v-15.5h-5.1v-2.3l5.1-0.2v-1.5c0-2.2 0.6-4 1.8-5.3s3-2 5.5-2c1.8 0 3.5 0.3 5.2 1l-0.7 2.3c-0.7-0.3-1.4-0.6-2.1-0.7-0.6-0.1-1.3-0.2-2.1-0.2-1.6 0-2.8 0.4-3.5 1.3-0.7 0.8-1.1 2-1.1 3.4v1.6h7.6v2.5h-7.6v15.5h-3v0.1z"/>
 <path d="m716.6 812.5c-1.9 0-3.4-0.5-4.4-1.6s-1.5-2.7-1.5-4.8v-17.8h-6.4v-2.5h9.4v20.5c0 1.3 0.3 2.3 1 2.9s1.5 0.9 2.6 0.9 2.2-0.3 3.4-0.8l0.8 2.3c-0.8 0.3-1.6 0.6-2.3 0.8-0.8 0-1.6 0.1-2.6 0.1z"/>
 <path d="m735.4 812.1v-15.5h-8.4v-2.5h11.4v18h-3zm1.2-21.8c-0.7 0-1.3-0.2-1.7-0.6-0.5-0.4-0.7-1-0.7-1.7s0.2-1.3 0.7-1.7 1-0.6 1.7-0.6 1.3 0.2 1.7 0.6c0.5 0.4 0.7 1 0.7 1.7s-0.2 1.3-0.7 1.7c-0.4 0.4-1 0.6-1.7 0.6z"/>
 <path d="m749.4 819.7v-25.6h2.5l0.3 2.3h0.1c0.8-0.8 1.8-1.4 2.9-2 1.1-0.5 2.2-0.8 3.3-0.8 2.4 0 4.3 0.8 5.5 2.5 1.3 1.7 1.9 3.9 1.9 6.7 0 2-0.4 3.8-1.1 5.2-0.8 1.5-1.8 2.6-3 3.3-1.2 0.8-2.6 1.1-4 1.1-0.8 0-1.7-0.2-2.7-0.6s-1.9-1-2.6-1.7h-0.1l0.1 3.4v6.1l-3.1 0.1zm7.8-9.8c1.6 0 2.9-0.6 4-1.9 1-1.3 1.6-3 1.6-5.2 0-2-0.4-3.6-1.2-4.8s-2.1-1.8-3.9-1.8c-0.8 0-1.6 0.2-2.5 0.6s-1.8 1.1-2.8 2.1v9c0.9 0.8 1.7 1.3 2.6 1.6s1.6 0.4 2.2 0.4z"/>
 <path d="m784.2 818.6c-2.6-2-4.6-4.4-6.1-7.2s-2.2-6-2.2-9.6 0.7-6.8 2.2-9.6 3.5-5.2 6.1-7.2l1.7 1.6c-2.5 2.1-4.3 4.4-5.5 6.9s-1.8 5.3-1.8 8.4 0.6 5.9 1.8 8.4 3 4.8 5.5 6.9l-1.7 1.4z"/>
 <path d="m799.2 812.5c-1.4 0-2.7-0.3-3.8-0.9s-1.9-1.4-2.6-2.4-0.9-2.2-0.9-3.5c0-1.1 0.2-2 0.6-2.8s1-1.6 1.7-2.3 1.4-1.3 2.2-1.9c-0.5-1-0.9-2-1.2-3s-0.4-1.9-0.4-2.8c0-1.1 0.2-2.1 0.7-2.9 0.4-0.9 1.1-1.5 1.9-2.1 0.8-0.5 1.7-0.8 2.8-0.8 1.5 0 2.7 0.4 3.5 1.3s1.2 2 1.2 3.5c0 1-0.3 2-0.8 2.8s-1.2 1.6-2 2.3-1.6 1.4-2.5 2c0.8 1.2 1.7 2.4 2.7 3.6s2.1 2.2 3.2 3.2c0.7-1 1.3-2.1 1.8-3.3s0.9-2.5 1.3-3.9h2.8c-0.4 1.6-1 3.1-1.6 4.6s-1.4 2.8-2.3 4.1c1.5 1.1 2.9 1.9 4.2 2.3l-0.9 2.5c-1.6-0.5-3.3-1.4-5.1-2.8-0.9 0.8-1.9 1.5-2.9 2-1 1-2.2 1.2-3.6 1.2zm-4.3-6.9c0 1.4 0.5 2.4 1.4 3.3 0.9 0.8 2 1.2 3.3 1.2 0.8 0 1.5-0.2 2.2-0.5s1.4-0.8 2-1.4c-1.2-1-2.3-2.2-3.3-3.4-1.1-1.2-2-2.5-2.9-3.8-0.8 0.7-1.4 1.4-1.9 2.2-0.5 0.6-0.8 1.4-0.8 2.4zm2.6-12.6c0 0.7 0.1 1.4 0.3 2.1s0.5 1.4 0.8 2.2c1-0.7 1.9-1.5 2.7-2.3s1.1-1.7 1.1-2.8c0-0.7-0.2-1.3-0.5-1.9-0.3-0.5-0.9-0.8-1.7-0.8s-1.5 0.3-2 1-0.7 1.5-0.7 2.5z"/>
 <path d="m814.7 812.1v-18h2.4l0.3 2.4h0.1c0.5-0.8 1-1.5 1.6-2s1.4-0.8 2.5-0.8c1.8 0 2.9 1 3.4 3.1 0.5-1 1.1-1.7 1.7-2.3s1.5-0.8 2.5-0.8c1.3 0 2.2 0.5 2.9 1.4 0.7 1 1.1 2.3 1.1 4.1v12.9h-3v-12.7c0-2.1-0.6-3.1-1.9-3.1-0.6 0-1.1 0.2-1.5 0.7s-0.9 1.2-1.4 2.1v13h-2.8v-12.7c0-1-0.1-1.8-0.4-2.4-0.3-0.5-0.8-0.8-1.4-0.8s-1.2 0.2-1.6 0.7c-0.5 0.5-0.9 1.2-1.4 2.1v13l-3.1 0.1z"/>
 <path d="m843.9 812.5c-2.1 0-3.7-0.6-4.7-1.9-1-1.2-1.5-3-1.5-5.4v-11.2h3.1v10.8c0 1.7 0.3 3 0.9 3.8s1.7 1.2 3.2 1.2c1 0 2-0.3 2.8-0.8s1.8-1.4 2.8-2.5v-12.5h3v18h-2.5l-0.3-3.1h-0.1c-0.9 1.1-1.9 1.9-3 2.6s-2.3 1-3.7 1z"/>
 <path d="m871.6 812.5c-1.8 0-3.1-0.3-4.1-0.9s-1.7-1.5-2.2-2.6-0.6-2.4-0.6-3.9v-8.5h-5.1v-2.3l5.2-0.2 0.4-5.8h2.5v5.8h8.8v2.5h-8.8v8.6c0 1.6 0.3 2.8 1 3.7 0.7 0.8 1.8 1.3 3.6 1.3 0.9 0 1.6-0.1 2.3-0.2s1.4-0.3 2-0.6l0.7 2.2c-0.8 0.3-1.7 0.5-2.6 0.8-0.9 0-1.9 0.1-3.1 0.1z"/>
 <path d="m912.9 812.5c-1.8 0-3.4-0.3-4.9-0.8-1.5-0.6-2.8-1.2-3.9-2l1.4-2c1 0.7 2.2 1.3 3.4 1.8s2.7 0.7 4.4 0.7c1.5 0 2.7-0.3 3.4-0.8 0.8-0.6 1.1-1.2 1.1-2 0-0.5-0.1-0.9-0.4-1.3s-0.8-0.7-1.6-1.1c-0.8-0.3-2-0.7-3.6-1-2.3-0.5-4.1-1.2-5.3-2s-1.8-1.9-1.8-3.3c0-1.5 0.6-2.7 1.9-3.6 1.3-1 3.1-1.5 5.6-1.5 1.4 0 2.7 0.2 4 0.7s2.4 1 3.3 1.6l-1.5 2c-0.8-0.6-1.8-1-2.8-1.4-1-0.3-2.1-0.5-3.3-0.5-1.5 0-2.6 0.3-3.2 0.8s-0.9 1.1-0.9 1.8c0 0.8 0.4 1.4 1.2 1.8s2.2 0.8 4 1.2c2 0.4 3.5 0.9 4.6 1.4s1.8 1.1 2.2 1.8 0.6 1.5 0.6 2.4c0 1-0.3 1.9-0.9 2.7s-1.5 1.5-2.7 2c-1.1 0.4-2.5 0.6-4.3 0.6z"/>
 <path d="m935.9 812.5c-1.8 0-3.4-0.4-4.9-1.1s-2.6-1.8-3.5-3.2-1.3-3.1-1.3-5.1c0-1.9 0.4-3.6 1.3-5s2-2.5 3.4-3.2c1.4-0.8 2.9-1.1 4.5-1.1 2.6 0 4.6 0.8 6.1 2.3 1.4 1.5 2.2 3.6 2.2 6.1v1s-0.1 0.6-0.1 0.9h-14.2c0.2 2 0.9 3.6 2.2 4.6s2.9 1.6 4.8 1.6c1.1 0 2.1-0.2 2.9-0.5 0.9-0.3 1.7-0.7 2.5-1.2l1.1 2c-0.9 0.6-1.9 1.1-3.1 1.5-1.1 0.2-2.4 0.4-3.9 0.4zm-0.4-16.5c-1.5 0-2.8 0.5-4 1.4s-1.9 2.3-2.1 4.1h11.5c-0.1-1.9-0.7-3.2-1.6-4.1-1.1-0.9-2.3-1.4-3.8-1.4z"/>
 <path d="m961 812.5c-1.9 0-3.4-0.5-4.4-1.6s-1.5-2.7-1.5-4.8v-17.8h-6.4v-2.5h9.4v20.5c0 1.3 0.3 2.3 1 2.9s1.5 0.9 2.6 0.9 2.2-0.3 3.4-0.8l0.8 2.3c-0.8 0.3-1.6 0.6-2.3 0.8-0.8 0-1.6 0.1-2.6 0.1z"/>
 <path d="m977.1 812.1v-15.5h-5.1v-2.3l5.1-0.2v-1.5c0-2.2 0.6-4 1.8-5.3s3-2 5.5-2c1.8 0 3.5 0.3 5.2 1l-0.7 2.3c-0.7-0.3-1.4-0.6-2.1-0.7-0.6-0.1-1.3-0.2-2.1-0.2-1.6 0-2.8 0.4-3.5 1.3-0.7 0.8-1.1 2-1.1 3.4v1.6h7.6v2.5h-7.6v15.5h-3v0.1z"/>
 <path d="m996.5 818.6-1.7-1.6c2.5-2.1 4.3-4.4 5.5-6.9s1.8-5.3 1.8-8.4-0.6-5.9-1.8-8.4-3-4.8-5.5-6.9l1.7-1.6c2.6 2 4.6 4.4 6.1 7.2s2.2 6 2.2 9.6-0.7 6.8-2.2 9.6c-1.5 3-3.5 5.4-6.1 7.4z"/>
 <path d="m1046 812.6-1.6-1.7 7.4-6.9h-16.3v-2.5h16.3l-7.4-6.9 1.6-1.7 10.1 9.8v0.1l-10.1 9.8z"/>
 <path d="m1091 812.5c-0.9 0-1.8-0.2-2.8-0.6s-1.9-1-2.8-1.8h-0.1l-0.3 2h-2.4v-26.4h3v7.2l-0.1 3.5h0.1c0.8-0.8 1.8-1.5 2.8-2 1.1-0.5 2.1-0.7 3.2-0.7 2.4 0 4.3 0.8 5.6 2.5s1.9 3.9 1.9 6.7c0 2-0.4 3.8-1.1 5.3-0.8 1.5-1.8 2.6-3 3.3-1.2 0.6-2.5 1-4 1zm-0.4-2.6c1.6 0 2.9-0.6 3.9-1.9s1.6-3 1.6-5.2c0-2-0.4-3.6-1.2-4.8s-2.1-1.8-3.9-1.8c-0.8 0-1.6 0.2-2.5 0.6s-1.8 1.1-2.8 2.1v9c0.9 0.8 1.7 1.3 2.6 1.6s1.6 0.4 2.3 0.4z"/>
 <path d="m1112 812.5c-1.6 0-3-0.4-4.4-1.1-1.3-0.7-2.4-1.8-3.3-3.2-0.8-1.4-1.2-3.1-1.2-5.1s0.4-3.7 1.2-5.1 1.9-2.5 3.3-3.2c1.3-0.7 2.8-1.1 4.4-1.1s3 0.4 4.4 1.1c1.3 0.7 2.4 1.8 3.3 3.2 0.8 1.4 1.2 3.1 1.2 5.1s-0.4 3.7-1.2 5.1-1.9 2.5-3.3 3.2c-1.3 0.7-2.8 1.1-4.4 1.1zm0-2.5c1.7 0 3.1-0.6 4.2-1.9 1-1.3 1.6-2.9 1.6-5s-0.5-3.8-1.6-5c-1-1.3-2.4-1.9-4.2-1.9-1.7 0-3.1 0.6-4.2 1.9-1 1.3-1.6 3-1.6 5s0.5 3.7 1.6 5 2.5 1.9 4.2 1.9z"/>
 <path d="m1135 812.5c-1.6 0-3-0.4-4.4-1.1-1.3-0.7-2.4-1.8-3.3-3.2-0.8-1.4-1.2-3.1-1.2-5.1s0.4-3.7 1.2-5.1 1.9-2.5 3.3-3.2c1.3-0.7 2.8-1.1 4.4-1.1s3 0.4 4.4 1.1c1.3 0.7 2.4 1.8 3.3 3.2 0.8 1.4 1.2 3.1 1.2 5.1s-0.4 3.7-1.2 5.1-1.9 2.5-3.3 3.2c-1.3 0.7-2.8 1.1-4.4 1.1zm0-2.5c1.7 0 3.1-0.6 4.2-1.9 1-1.3 1.6-2.9 1.6-5s-0.5-3.8-1.6-5c-1-1.3-2.4-1.9-4.2-1.9-1.7 0-3.1 0.6-4.2 1.9-1 1.3-1.6 3-1.6 5s0.5 3.7 1.6 5 2.5 1.9 4.2 1.9z"/>
 <path d="m1161 812.5c-1.9 0-3.4-0.5-4.4-1.6s-1.5-2.7-1.5-4.8v-17.8h-6.4v-2.5h9.4v20.5c0 1.3 0.3 2.3 1 2.9s1.5 0.9 2.6 0.9 2.2-0.3 3.4-0.8l0.8 2.3c-0.8 0.3-1.6 0.6-2.3 0.8-0.8 0-1.6 0.1-2.6 0.1z"/>
 <path d="m621.6 856.5v-15.5h-5.1v-2.3l5.1-0.2v-1.5c0-2.2 0.6-4 1.8-5.3s3-2 5.5-2c1.8 0 3.5 0.3 5.2 1l-0.7 2.3c-0.7-0.3-1.4-0.6-2.1-0.7-0.6-0.1-1.3-0.2-2.1-0.2-1.6 0-2.8 0.4-3.5 1.3-0.7 0.8-1.1 2-1.1 3.4v1.6h7.6v2.5h-7.6v15.5h-3v0.1z"/>
 <path d="m638.3 856.5v-18h2.5l0.3 3.1h0.1c0.9-1 2-1.9 3-2.5 1.1-0.7 2.3-1 3.7-1 2.1 0 3.7 0.6 4.7 1.9 1 1.2 1.5 3 1.5 5.4v11.2h-3v-10.8c0-1.7-0.3-3-1-3.8-0.6-0.8-1.7-1.2-3.2-1.2-1.1 0-2 0.3-2.9 0.8-0.8 0.5-1.8 1.4-2.9 2.4v12.6h-2.8v-0.1z"/>
 <path d="m690.3 864.8c-2.6 0-4.7-0.4-6.1-1.3-1.5-0.9-2.2-2.1-2.2-3.7 0-1.5 1-2.9 3-4v-0.1c-0.5-0.3-0.9-0.6-1.3-1.1s-0.6-1.1-0.6-1.9c0-0.6 0.2-1.2 0.6-1.8s0.9-1.1 1.6-1.6v-0.1c-0.6-0.5-1.1-1.1-1.6-1.9-0.4-0.8-0.6-1.7-0.6-2.8 0-1.3 0.3-2.4 1-3.4s1.5-1.7 2.6-2.2 2.2-0.8 3.5-0.8c1 0 1.9 0.1 2.7 0.4h7.4v2.5h-4.7c0.4 0.4 0.8 1 1.1 1.6s0.4 1.3 0.4 2c0 1.3-0.3 2.4-0.9 3.3s-1.5 1.6-2.5 2.1-2.2 0.7-3.5 0.7c-0.5 0-1-0.1-1.5-0.2s-1-0.3-1.5-0.5c-0.4 0.3-0.8 0.6-1 0.9s-0.4 0.7-0.4 1.1c0 0.7 0.3 1.2 1 1.6 0.7 0.3 1.6 0.5 2.8 0.5h4c2.3 0 4 0.3 5.2 1 1.1 0.6 1.7 1.7 1.7 3.3 0 1.1-0.4 2.1-1.2 3.1s-2 1.7-3.5 2.3c-1.7 0.7-3.5 1-5.5 1zm0.2-2.2c2.1 0 3.8-0.4 5-1.1s1.8-1.6 1.8-2.5-0.3-1.4-1-1.7-1.7-0.4-3.1-0.4h-3.5c-0.5 0-1 0-1.5-0.1-0.5 0-0.9-0.1-1.3-0.2-0.8 0.5-1.4 1-1.8 1.5-0.3 0.5-0.5 1-0.5 1.5 0 0.9 0.5 1.7 1.5 2.2s2.5 0.8 4.4 0.8zm-0.4-13.8c1.2 0 2.1-0.4 2.9-1.2s1.2-1.8 1.2-3.1-0.4-2.3-1.2-3.1-1.8-1.2-2.9-1.2-2.1 0.4-2.9 1.2-1.2 1.8-1.2 3.1 0.4 2.3 1.2 3.1 1.7 1.2 2.9 1.2z"/>
 <path d="m713.7 856.9c-1.8 0-3.4-0.4-4.9-1.1s-2.6-1.8-3.5-3.2-1.3-3.1-1.3-5.1c0-1.9 0.4-3.6 1.3-5s2-2.5 3.4-3.2c1.4-0.8 2.9-1.1 4.5-1.1 2.6 0 4.6 0.8 6.1 2.3 1.4 1.5 2.2 3.6 2.2 6.1v1s-0.1 0.6-0.1 0.9h-14.2c0.2 2 0.9 3.6 2.2 4.6s2.9 1.6 4.8 1.6c1.1 0 2.1-0.2 2.9-0.5 0.9-0.3 1.7-0.7 2.5-1.2l1.1 2c-0.9 0.6-1.9 1.1-3.1 1.5-1.1 0.2-2.4 0.4-3.9 0.4zm-0.4-16.4c-1.5 0-2.8 0.5-4 1.4s-1.9 2.3-2.1 4.1h11.5c-0.1-1.9-0.7-3.2-1.6-4.1-1-1-2.3-1.4-3.8-1.4z"/>
 <path d="m738.3 856.9c-1.8 0-3.1-0.3-4.1-0.9s-1.7-1.5-2.2-2.6-0.6-2.4-0.6-3.9v-8.5h-5.1v-2.3l5.2-0.2 0.4-5.8h2.5v5.8h8.8v2.5h-8.8v8.6c0 1.6 0.3 2.8 1 3.7 0.7 0.8 1.8 1.3 3.6 1.3 0.9 0 1.6-0.1 2.3-0.2s1.4-0.3 2-0.6l0.7 2.2c-0.8 0.3-1.7 0.5-2.6 0.8-0.9 0-1.9 0.1-3.1 0.1z"/>
 <path d="m762 863c-2.6-2-4.6-4.4-6.1-7.2s-2.2-6-2.2-9.6 0.7-6.8 2.2-9.6 3.5-5.2 6.1-7.2l1.7 1.6c-2.5 2.1-4.3 4.4-5.5 6.9s-1.8 5.3-1.8 8.4 0.6 5.9 1.8 8.4 3 4.8 5.5 6.9l-1.7 1.4z"/>
 <path d="m777 856.9c-1.4 0-2.7-0.3-3.8-0.9s-1.9-1.4-2.6-2.4-0.9-2.2-0.9-3.5c0-1.1 0.2-2 0.6-2.8s1-1.6 1.7-2.3 1.4-1.3 2.2-1.9c-0.5-1-0.9-2-1.2-3s-0.4-1.9-0.4-2.8c0-1.1 0.2-2.1 0.7-2.9 0.4-0.9 1.1-1.5 1.9-2.1 0.8-0.5 1.7-0.8 2.8-0.8 1.5 0 2.7 0.4 3.5 1.3s1.2 2 1.2 3.5c0 1-0.3 2-0.8 2.8s-1.2 1.6-2 2.3-1.6 1.4-2.5 2c0.8 1.2 1.7 2.4 2.7 3.6s2.1 2.2 3.2 3.2c0.7-1 1.3-2.1 1.8-3.3s0.9-2.5 1.3-3.9h2.8c-0.4 1.6-1 3.1-1.6 4.6s-1.4 2.8-2.3 4.1c1.5 1.1 2.9 1.9 4.2 2.3l-0.9 2.5c-1.6-0.5-3.3-1.4-5.1-2.8-0.9 0.8-1.9 1.5-2.9 2-1 1-2.2 1.2-3.6 1.2zm-4.3-6.9c0 1.4 0.5 2.4 1.4 3.3 0.9 0.8 2 1.2 3.3 1.2 0.8 0 1.5-0.2 2.2-0.5s1.4-0.8 2-1.4c-1.2-1-2.3-2.2-3.3-3.4-1.1-1.2-2-2.5-2.9-3.8-0.8 0.7-1.4 1.4-1.9 2.2-0.6 0.6-0.8 1.5-0.8 2.4zm2.6-12.5c0 0.7 0.1 1.4 0.3 2.1s0.5 1.4 0.8 2.2c1-0.7 1.9-1.5 2.7-2.3s1.1-1.7 1.1-2.8c0-0.7-0.2-1.3-0.5-1.9-0.3-0.5-0.9-0.8-1.7-0.8s-1.5 0.3-2 1-0.7 1.4-0.7 2.5z"/>
 <path d="m801.9 856.9c-1.8 0-3.4-0.3-4.9-0.8-1.5-0.6-2.8-1.2-3.9-2l1.4-2c1 0.7 2.2 1.3 3.4 1.8s2.7 0.7 4.4 0.7c1.5 0 2.7-0.3 3.4-0.8 0.8-0.6 1.1-1.2 1.1-2 0-0.5-0.1-0.9-0.4-1.3s-0.8-0.7-1.6-1.1c-0.8-0.3-2-0.7-3.6-1-2.3-0.5-4.1-1.2-5.3-2s-1.8-1.9-1.8-3.3c0-1.5 0.6-2.7 1.9-3.6 1.3-1 3.1-1.5 5.6-1.5 1.4 0 2.7 0.2 4 0.7s2.4 1 3.3 1.6l-1.5 2c-0.8-0.6-1.8-1-2.8-1.4-1-0.3-2.1-0.5-3.3-0.5-1.5 0-2.6 0.3-3.2 0.8s-0.9 1.1-0.9 1.8c0 0.8 0.4 1.4 1.2 1.8s2.2 0.8 4 1.2c2 0.4 3.5 0.9 4.6 1.4s1.8 1.1 2.2 1.8 0.6 1.5 0.6 2.4c0 1-0.3 1.9-0.9 2.7s-1.5 1.5-2.7 2c-1.2 0.4-2.6 0.6-4.3 0.6z"/>
 <path d="m824.8 856.9c-1.8 0-3.4-0.4-4.9-1.1s-2.6-1.8-3.5-3.2-1.3-3.1-1.3-5.1c0-1.9 0.4-3.6 1.3-5s2-2.5 3.4-3.2c1.4-0.8 2.9-1.1 4.5-1.1 2.6 0 4.6 0.8 6.1 2.3 1.4 1.5 2.2 3.6 2.2 6.1v1s-0.1 0.6-0.1 0.9h-14.2c0.2 2 0.9 3.6 2.2 4.6s2.9 1.6 4.8 1.6c1.1 0 2.1-0.2 2.9-0.5 0.9-0.3 1.7-0.7 2.5-1.2l1.1 2c-0.9 0.6-1.9 1.1-3.1 1.5-1.1 0.2-2.4 0.4-3.9 0.4zm-0.4-16.4c-1.5 0-2.8 0.5-4 1.4s-1.9 2.3-2.1 4.1h11.5c-0.1-1.9-0.7-3.2-1.6-4.1-1-1-2.3-1.4-3.8-1.4z"/>
 <path d="m849.9 856.9c-1.9 0-3.4-0.5-4.4-1.6s-1.5-2.7-1.5-4.8v-17.8h-6.4v-2.5h9.4v20.5c0 1.3 0.3 2.3 1 2.9s1.5 0.9 2.6 0.9 2.2-0.3 3.4-0.8l0.8 2.3c-0.8 0.3-1.6 0.6-2.3 0.8-0.8 0-1.6 0.1-2.6 0.1z"/>
 <path d="m866 856.5v-15.5h-5.1v-2.3l5.1-0.2v-1.5c0-2.2 0.6-4 1.8-5.3s3-2 5.5-2c1.8 0 3.5 0.3 5.2 1l-0.7 2.3c-0.7-0.3-1.4-0.6-2.1-0.7-0.6-0.1-1.3-0.2-2.1-0.2-1.6 0-2.8 0.4-3.5 1.3-0.7 0.8-1.1 2-1.1 3.4v1.6h7.6v2.5h-7.6v15.5h-3v0.1z"/>
 <path d="m885.4 863-1.7-1.6c2.5-2.1 4.3-4.4 5.5-6.9s1.8-5.3 1.8-8.4-0.6-5.9-1.8-8.4-3-4.8-5.5-6.9l1.7-1.6c2.6 2 4.6 4.4 6.1 7.2s2.2 6 2.2 9.6-0.7 6.8-2.2 9.6c-1.5 3-3.5 5.4-6.1 7.4z"/>
 <path d="m935.1 857-1.6-1.7 7.4-6.9h-16.3v-2.5h16.4l-7.4-6.9 1.6-1.7 10.1 9.8v0.1l-10.2 9.8z"/>
 <path d="m980 856.9c-0.9 0-1.8-0.2-2.8-0.6s-1.9-1-2.8-1.8h-0.1l-0.3 2h-2.4v-26.4h3v7.2l-0.1 3.5h0.1c0.8-0.8 1.8-1.5 2.8-2 1.1-0.5 2.1-0.7 3.2-0.7 2.4 0 4.3 0.8 5.6 2.5s1.9 3.9 1.9 6.7c0 2-0.4 3.8-1.1 5.3-0.8 1.5-1.8 2.6-3 3.3-1.3 0.7-2.6 1-4 1zm-0.5-2.5c1.6 0 2.9-0.6 3.9-1.9s1.6-3 1.6-5.2c0-2-0.4-3.6-1.2-4.8s-2.1-1.8-3.9-1.8c-0.8 0-1.6 0.2-2.5 0.6s-1.8 1.1-2.8 2.1v9c0.9 0.8 1.7 1.3 2.6 1.6s1.6 0.4 2.3 0.4z"/>
 <path d="m1001 856.9c-1.6 0-3-0.4-4.4-1.1-1.3-0.7-2.4-1.8-3.3-3.2-0.8-1.4-1.2-3.1-1.2-5.1s0.4-3.7 1.2-5.1 1.9-2.5 3.3-3.2c1.3-0.7 2.8-1.1 4.4-1.1s3 0.4 4.4 1.1c1.3 0.7 2.4 1.8 3.3 3.2 0.8 1.4 1.2 3.1 1.2 5.1s-0.4 3.7-1.2 5.1-1.9 2.5-3.3 3.2c-1.3 0.8-2.8 1.1-4.4 1.1zm0-2.5c1.7 0 3.1-0.6 4.2-1.9 1-1.3 1.6-2.9 1.6-5s-0.5-3.8-1.6-5c-1-1.3-2.4-1.9-4.2-1.9-1.7 0-3.1 0.6-4.2 1.9-1 1.3-1.6 3-1.6 5s0.5 3.7 1.6 5 2.5 1.9 4.2 1.9z"/>
 <path d="m1024 856.9c-1.6 0-3-0.4-4.4-1.1-1.3-0.7-2.4-1.8-3.3-3.2-0.8-1.4-1.2-3.1-1.2-5.1s0.4-3.7 1.2-5.1 1.9-2.5 3.3-3.2c1.3-0.7 2.8-1.1 4.4-1.1s3 0.4 4.4 1.1c1.3 0.7 2.4 1.8 3.3 3.2 0.8 1.4 1.2 3.1 1.2 5.1s-0.4 3.7-1.2 5.1-1.9 2.5-3.3 3.2c-1.4 0.8-2.9 1.1-4.4 1.1zm0-2.5c1.7 0 3.1-0.6 4.2-1.9 1-1.3 1.6-2.9 1.6-5s-0.5-3.8-1.6-5c-1-1.3-2.4-1.9-4.2-1.9-1.7 0-3.1 0.6-4.2 1.9-1 1.3-1.6 3-1.6 5s0.5 3.7 1.6 5c1 1.3 2.4 1.9 4.2 1.9z"/>
 <path d="m1050 856.9c-1.9 0-3.4-0.5-4.4-1.6s-1.5-2.7-1.5-4.8v-17.8h-6.4v-2.5h9.4v20.5c0 1.3 0.3 2.3 1 2.9s1.5 0.9 2.6 0.9 2.2-0.3 3.4-0.8l0.8 2.3c-0.8 0.3-1.6 0.6-2.3 0.8-0.7 0-1.6 0.1-2.6 0.1z"/>
 <path d="m751.3 572.4v-27.9h10.9c2.4 0 4.5 0.4 6.3 1.2 1.7 0.8 3.1 1.9 4 3.3 0.9 1.5 1.4 3.2 1.4 5.2s-0.5 3.8-1.4 5.2-2.3 2.6-4 3.3c-1.7 0.8-3.8 1.2-6.3 1.2h-8.7l1.8-1.8v10.3h-4zm4-9.9-1.8-2h8.6c2.6 0 4.5-0.6 5.8-1.7s2-2.7 2-4.6-0.7-3.5-2-4.6-3.2-1.6-5.8-1.6h-8.6l1.8-2v16.5zm14.7 9.9-7.1-10.1h4.3l7.2 10.1h-4.4z"/>
 <path d="m780.3 572.4v-27.9h10.9c2.4 0 4.5 0.4 6.3 1.2 1.7 0.8 3.1 1.9 4 3.3 0.9 1.5 1.4 3.2 1.4 5.2s-0.5 3.8-1.4 5.2-2.3 2.6-4 3.3c-1.7 0.8-3.8 1.2-6.3 1.2h-8.7l1.8-1.9v10.3h-4v0.1zm4-9.9-1.8-2h8.6c2.6 0 4.5-0.5 5.8-1.6s2-2.6 2-4.6-0.7-3.5-2-4.6-3.2-1.6-5.8-1.6h-8.6l1.8-2v16.4z"/>
 <path d="m821.6 572.7c-2.1 0-4.1-0.4-5.9-1.1s-3.3-1.7-4.7-3c-1.3-1.3-2.3-2.8-3.1-4.5-0.7-1.7-1.1-3.6-1.1-5.7s0.4-4 1.1-5.7 1.8-3.2 3.1-4.5 2.9-2.3 4.7-3 3.8-1.1 5.9-1.1c2.2 0 4.1 0.4 6 1.1 1.8 0.7 3.4 1.8 4.6 3.2l-2.6 2.5c-1.1-1.1-2.3-1.9-3.6-2.5-1.3-0.5-2.8-0.8-4.3-0.8-1.6 0-3 0.3-4.4 0.8-1.3 0.5-2.5 1.3-3.5 2.2s-1.7 2.1-2.3 3.4c-0.5 1.3-0.8 2.7-0.8 4.3 0 1.5 0.3 3 0.8 4.3s1.3 2.5 2.3 3.4 2.1 1.7 3.5 2.2c1.3 0.5 2.8 0.8 4.4 0.8 1.5 0 2.9-0.3 4.3-0.8 1.3-0.5 2.5-1.4 3.6-2.5l2.6 2.5c-1.3 1.4-2.8 2.5-4.6 3.3s-3.8 1.2-6 1.2z"/>
 <path d="m852.7 568.9h16.3v3.5h-20.3v-27.9h19.7v3.5h-15.7v20.9zm-0.4-12.4h14.4v3.4h-14.4v-3.4z"/>
 <path d="m886.1 551.1c1.7 0 3.2 0.3 4.6 1 1.3 0.7 2.3 1.7 3.1 3 0.7 1.4 1.1 3.1 1.1 5.1v12.2h-3.8v-11.7c0-2-0.5-3.6-1.5-4.6s-2.4-1.6-4.2-1.6c-1.4 0-2.5 0.3-3.5 0.8s-1.8 1.3-2.3 2.4c-0.5 1-0.8 2.3-0.8 3.9v10.9h-3.8v-21.1h3.7v5.7l-0.6-1.5c0.7-1.4 1.8-2.5 3.2-3.2s2.9-1.3 4.8-1.3z"/>
 <path d="m910.7 572.6c-2 0-3.9-0.5-5.5-1.4s-2.9-2.2-3.8-3.8-1.4-3.5-1.4-5.7 0.5-4 1.4-5.6 2.2-2.9 3.8-3.8 3.4-1.4 5.5-1.4c1.8 0 3.4 0.4 4.8 1.2s2.6 2 3.4 3.6c0.9 1.6 1.3 3.6 1.3 6s-0.4 4.4-1.3 6c-0.8 1.6-2 2.8-3.4 3.6-1.3 0.9-3 1.3-4.8 1.3zm0.3-3.3c1.3 0 2.5-0.3 3.6-0.9s1.9-1.5 2.6-2.6c0.6-1.1 0.9-2.4 0.9-3.9s-0.3-2.8-0.9-3.9-1.5-2-2.6-2.6-2.3-0.9-3.6-0.9c-1.4 0-2.6 0.3-3.6 0.9-1.1 0.6-1.9 1.5-2.6 2.6-0.6 1.1-1 2.4-1 3.9s0.3 2.8 1 3.9c0.6 1.1 1.5 2 2.6 2.6s2.3 0.9 3.6 0.9zm7.3 3.1v-5.7l0.2-4.9-0.4-4.9v-14.1h3.8v29.6h-3.6z"/>
 <path d="m929.2 580.1v-28.9h3.7v5.7l-0.2 4.9 0.4 4.9v13.4h-3.9zm11.2-7.5c-1.8 0-3.4-0.4-4.8-1.2s-2.6-2-3.5-3.6-1.3-3.6-1.3-6 0.4-4.4 1.3-6c0.8-1.6 2-2.8 3.4-3.6s3.1-1.2 4.9-1.2c2.1 0 3.9 0.5 5.5 1.4s2.9 2.2 3.8 3.8 1.4 3.5 1.4 5.6-0.5 4-1.4 5.7c-0.9 1.6-2.2 2.9-3.8 3.8s-3.4 1.3-5.5 1.3zm-0.3-3.3c1.4 0 2.6-0.3 3.6-0.9 1.1-0.6 1.9-1.5 2.6-2.6 0.6-1.1 0.9-2.4 0.9-3.9s-0.3-2.8-0.9-3.9-1.5-2-2.6-2.6-2.3-0.9-3.6-0.9-2.5 0.3-3.6 0.9-1.9 1.5-2.6 2.6c-0.6 1.1-0.9 2.4-0.9 3.9s0.3 2.8 0.9 3.9 1.5 2 2.6 2.6c1 0.6 2.2 0.9 3.6 0.9z"/>
 <path d="m965.4 572.6c-2.1 0-4-0.5-5.7-1.4-1.6-0.9-3-2.2-3.9-3.8s-1.4-3.5-1.4-5.6 0.5-4 1.4-5.6c1-1.6 2.3-2.9 3.9-3.8s3.5-1.4 5.7-1.4c2.1 0 4 0.5 5.6 1.4s3 2.2 3.9 3.8 1.4 3.5 1.4 5.6-0.5 4-1.4 5.6-2.2 2.9-3.9 3.8c-1.6 1-3.5 1.4-5.6 1.4zm0-3.3c1.4 0 2.6-0.3 3.6-0.9 1.1-0.6 1.9-1.5 2.5-2.6s0.9-2.4 0.9-3.9-0.3-2.8-0.9-3.9-1.5-2-2.5-2.6c-1.1-0.6-2.3-0.9-3.6-0.9-1.4 0-2.6 0.3-3.6 0.9-1.1 0.6-1.9 1.5-2.6 2.6-0.6 1.1-1 2.4-1 3.9s0.3 2.8 1 3.9c0.6 1.1 1.5 2 2.6 2.6s2.3 0.9 3.6 0.9z"/>
 <path d="m983.6 547.2c-0.7 0-1.4-0.2-1.9-0.7s-0.7-1.1-0.7-1.8 0.2-1.3 0.7-1.8 1.1-0.7 1.9-0.7c0.7 0 1.4 0.2 1.9 0.7s0.7 1 0.7 1.7-0.2 1.3-0.7 1.8-1.1 0.8-1.9 0.8zm-1.9 25.2v-21.1h3.8v21.1h-3.8z"/>
 <path d="m1004 551.1c1.7 0 3.2 0.3 4.6 1 1.3 0.7 2.3 1.7 3.1 3 0.7 1.4 1.1 3.1 1.1 5.1v12.2h-3.8v-11.7c0-2-0.5-3.6-1.5-4.6s-2.4-1.6-4.2-1.6c-1.4 0-2.5 0.3-3.5 0.8s-1.8 1.3-2.3 2.4c-0.5 1-0.8 2.3-0.8 3.9v10.9h-3.8v-21.1h3.7v5.7l-0.6-1.5c0.7-1.4 1.8-2.5 3.2-3.2s2.9-1.3 4.8-1.3z"/>
 <path d="m1017 554.4v-3.1h13.5v3.1h-13.5zm10.3 18.2c-2.1 0-3.8-0.6-4.9-1.7-1.2-1.1-1.8-2.8-1.8-4.9v-19.4h3.8v19.2c0 1.1 0.3 2 0.9 2.6s1.4 0.9 2.5 0.9c1.2 0 2.2-0.3 3-1l1.2 2.8c-0.6 0.5-1.3 0.9-2.1 1.1-0.8 0.3-1.7 0.4-2.6 0.4z"/>
 <path d="m563.7 728.9c-2.1 0-4.2-0.3-6.1-1s-3.5-1.5-4.6-2.5l1.5-3.1c1.1 0.9 2.4 1.7 4.1 2.3 1.6 0.6 3.4 0.9 5.1 0.9 1.6 0 2.9-0.2 3.9-0.6s1.8-0.9 2.2-1.5c0.5-0.7 0.7-1.4 0.7-2.2 0-1-0.3-1.7-0.9-2.3s-1.4-1.1-2.4-1.4-2.1-0.7-3.3-0.9l-3.6-0.9c-1.2-0.4-2.3-0.8-3.3-1.4s-1.8-1.3-2.4-2.3c-0.6-0.9-0.9-2.2-0.9-3.6s0.4-2.8 1.1-4c0.8-1.2 1.9-2.2 3.5-2.9s3.6-1.1 6-1.1c1.6 0 3.2 0.2 4.8 0.6s3 1 4.1 1.8l-1.2 3.2c-1.2-0.8-2.5-1.4-3.8-1.7-1.3-0.4-2.6-0.5-3.9-0.5-1.6 0-2.9 0.2-3.9 0.6s-1.7 0.9-2.2 1.6-0.7 1.4-0.7 2.2c0 1 0.3 1.8 0.9 2.4s1.4 1.1 2.4 1.4 2.1 0.7 3.3 0.9l3.6 0.9c1.2 0.3 2.3 0.8 3.3 1.4s1.8 1.3 2.4 2.2 0.9 2.1 0.9 3.6c0 1.4-0.4 2.7-1.2 3.9s-2 2.2-3.6 2.9c-1.3 0.7-3.4 1.1-5.8 1.1z"/>
 <path d="m588.6 728.8c-1.8 0-3.4-0.3-4.8-1s-2.4-1.7-3.2-3.1-1.1-3.1-1.1-5.2v-12.2h3.8v11.7c0 2.1 0.5 3.6 1.5 4.7 1 1 2.4 1.6 4.2 1.6 1.3 0 2.5-0.3 3.5-0.8s1.7-1.3 2.3-2.4c0.5-1 0.8-2.3 0.8-3.8v-10.9h3.8v21.1h-3.6v-5.7l0.6 1.5c-0.7 1.4-1.7 2.5-3.1 3.3s-2.9 1.2-4.7 1.2z"/>
 <path d="m606.8 728.5v-29.6h3.8v14.1l-0.4 4.9 0.2 4.9v5.7h-3.6zm11.2 0.3c-1.8 0-3.4-0.4-4.9-1.2-1.4-0.8-2.6-2-3.4-3.6s-1.3-3.6-1.3-6 0.4-4.4 1.3-6 2-2.8 3.5-3.6c1.4-0.8 3.1-1.2 4.8-1.2 2.1 0 3.9 0.5 5.5 1.4s2.9 2.2 3.8 3.8 1.4 3.5 1.4 5.6-0.5 4-1.4 5.7c-0.9 1.6-2.2 2.9-3.8 3.8-1.6 0.8-3.5 1.3-5.5 1.3zm-0.4-3.4c1.4 0 2.6-0.3 3.6-0.9 1.1-0.6 1.9-1.5 2.6-2.6 0.6-1.1 0.9-2.4 0.9-3.9s-0.3-2.8-0.9-3.9-1.5-2-2.6-2.6-2.3-0.9-3.6-0.9-2.5 0.3-3.6 0.9-1.9 1.5-2.6 2.6c-0.6 1.1-0.9 2.4-0.9 3.9s0.3 2.8 0.9 3.9 1.5 2 2.6 2.6 2.3 0.9 3.6 0.9z"/>
 <path d="m640 728.8c-1.8 0-3.4-0.2-5-0.7s-2.8-1.1-3.7-1.8l1.6-3c0.9 0.6 2 1.1 3.3 1.6 1.3 0.4 2.7 0.6 4.1 0.6 1.8 0 3.1-0.3 3.8-0.8 0.8-0.5 1.2-1.2 1.2-2.1 0-0.7-0.2-1.2-0.7-1.6s-1.1-0.7-1.9-0.8c-0.8-0.2-1.7-0.4-2.6-0.5-1-0.1-1.9-0.3-2.9-0.6-1-0.2-1.8-0.5-2.6-1-0.8-0.4-1.4-1-1.9-1.7s-0.7-1.7-0.7-2.9c0-1.3 0.4-2.4 1.1-3.3s1.7-1.7 3-2.2 2.9-0.8 4.7-0.8c1.4 0 2.8 0.2 4.2 0.5s2.6 0.8 3.5 1.4l-1.6 3c-1-0.6-2-1.1-3-1.3s-2.1-0.4-3.1-0.4c-1.7 0-2.9 0.3-3.7 0.8s-1.2 1.2-1.2 2.1c0 0.7 0.2 1.3 0.7 1.7s1.1 0.7 1.9 0.9 1.7 0.4 2.6 0.5 1.9 0.3 2.9 0.6c1 0.2 1.8 0.5 2.6 0.9s1.4 1 1.9 1.7 0.7 1.7 0.7 2.9c0 1.3-0.4 2.4-1.1 3.3s-1.8 1.7-3.2 2.2-3 0.8-4.9 0.8z"/>
 <path d="m650.9 710.5v-3.1h13.5v3.1h-13.5zm10.3 18.3c-2.1 0-3.8-0.6-4.9-1.7-1.2-1.1-1.8-2.8-1.8-4.9v-19.4h3.8v19.2c0 1.1 0.3 2 0.9 2.6s1.4 0.9 2.5 0.9c1.2 0 2.2-0.3 3-1l1.2 2.8c-0.6 0.5-1.3 0.9-2.1 1.1-0.9 0.3-1.7 0.4-2.6 0.4z"/>
 <path d="m670.4 728.5v-21.1h3.7v5.7l-0.4-1.4c0.6-1.5 1.6-2.6 3-3.3s3.1-1.2 5.1-1.2v3.7h-0.5s-0.3 0-0.4 0c-2 0-3.7 0.6-4.9 1.8s-1.8 3-1.8 5.3v10.5h-3.8z"/>
 <path d="m691.1 728.8c-1.6 0-2.9-0.3-4.1-0.8s-2.1-1.3-2.7-2.2-1-2-1-3.2c0-1.1 0.3-2.2 0.8-3.1s1.4-1.7 2.7-2.2c1.2-0.6 2.9-0.8 5-0.8h6.7v2.8h-6.5c-1.9 0-3.2 0.3-3.9 1-0.7 0.6-1 1.4-1 2.3 0 1 0.4 1.9 1.2 2.5s2 0.9 3.4 0.9 2.7-0.3 3.8-1c1.1-0.6 1.9-1.6 2.3-2.8l0.8 2.6c-0.5 1.2-1.4 2.2-2.7 3-1.2 0.6-2.8 1-4.8 1zm7-0.3v-4.5l-0.2-0.8v-7.6c0-1.6-0.5-2.9-1.4-3.8s-2.4-1.3-4.2-1.3c-1.2 0-2.5 0.2-3.7 0.6s-2.2 1-3 1.7l-1.6-2.9c1.1-0.9 2.4-1.5 3.9-2s3.1-0.7 4.8-0.7c2.9 0 5.1 0.7 6.7 2.1s2.4 3.6 2.4 6.5v12.8l-3.7-0.1z"/>
 <path d="m705.8 710.5v-3.1h13.5v3.1h-13.5zm10.2 18.3c-2.1 0-3.8-0.6-4.9-1.7-1.2-1.1-1.8-2.8-1.8-4.9v-19.4h3.8v19.2c0 1.1 0.3 2 0.9 2.6s1.4 0.9 2.5 0.9c1.2 0 2.2-0.3 3-1l1.2 2.8c-0.6 0.5-1.3 0.9-2.1 1.1-0.8 0.3-1.7 0.4-2.6 0.4z"/>
 <path d="m734 728.8c-2.3 0-4.2-0.5-6-1.4-1.7-0.9-3-2.2-4-3.8-0.9-1.6-1.4-3.5-1.4-5.6s0.5-4 1.4-5.6 2.2-2.9 3.8-3.8 3.4-1.4 5.4-1.4 3.9 0.5 5.4 1.4c1.6 0.9 2.8 2.2 3.7 3.8s1.3 3.5 1.3 5.7v0.6c0 0.2 0 0.4-0.1 0.6h-18v-2.8h16l-1.6 1c0-1.4-0.3-2.6-0.8-3.6-0.6-1.1-1.4-1.9-2.4-2.5s-2.2-0.9-3.6-0.9c-1.3 0-2.5 0.3-3.5 0.9s-1.8 1.4-2.4 2.5-0.9 2.3-0.9 3.7v0.6c0 1.4 0.3 2.7 1 3.8s1.6 2 2.7 2.6c1.2 0.6 2.5 0.9 4 0.9 1.2 0 2.4-0.2 3.4-0.6s1.9-1.1 2.7-1.9l2.1 2.5c-1 1.1-2.1 2-3.6 2.6-1.3 0.4-2.9 0.7-4.6 0.7z"/>
 <path d="m760.3 728.5v-27.9h3.3l18.5 22.9h-1.7v-22.9h4v27.9h-3.4l-18.5-22.9h1.7v22.9h-3.9z"/>
 <path d="m801.1 728.8c-2.1 0-4-0.5-5.7-1.4-1.6-0.9-3-2.2-3.9-3.8s-1.4-3.5-1.4-5.6 0.5-4 1.4-5.6c1-1.6 2.3-2.9 3.9-3.8s3.5-1.4 5.7-1.4c2.1 0 4 0.5 5.6 1.4s3 2.2 3.9 3.8 1.4 3.5 1.4 5.6-0.5 4-1.4 5.6-2.2 2.9-3.9 3.8c-1.6 0.9-3.5 1.4-5.6 1.4zm0-3.4c1.4 0 2.6-0.3 3.6-0.9 1.1-0.6 1.9-1.5 2.5-2.6s0.9-2.4 0.9-3.9-0.3-2.8-0.9-3.9-1.5-2-2.5-2.6c-1.1-0.6-2.3-0.9-3.6-0.9-1.4 0-2.6 0.3-3.6 0.9-1.1 0.6-1.9 1.5-2.6 2.6-0.6 1.1-1 2.4-1 3.9s0.3 2.8 1 3.9c0.6 1.1 1.5 2 2.6 2.6s2.3 0.9 3.6 0.9z"/>
 <path d="m826.1 728.8c-2 0-3.9-0.5-5.5-1.4s-2.9-2.2-3.8-3.8-1.4-3.5-1.4-5.7 0.5-4 1.4-5.6 2.2-2.9 3.8-3.8 3.4-1.4 5.5-1.4c1.8 0 3.4 0.4 4.8 1.2s2.6 2 3.4 3.6c0.9 1.6 1.3 3.6 1.3 6s-0.4 4.4-1.3 6c-0.8 1.6-2 2.8-3.4 3.6-1.3 0.9-2.9 1.3-4.8 1.3zm0.4-3.4c1.3 0 2.5-0.3 3.6-0.9s1.9-1.5 2.6-2.6c0.6-1.1 0.9-2.4 0.9-3.9s-0.3-2.8-0.9-3.9-1.5-2-2.6-2.6-2.3-0.9-3.6-0.9c-1.4 0-2.6 0.3-3.6 0.9-1.1 0.6-1.9 1.5-2.6 2.6-0.6 1.1-1 2.4-1 3.9s0.3 2.8 1 3.9c0.6 1.1 1.5 2 2.6 2.6 1 0.6 2.2 0.9 3.6 0.9zm7.2 3.1v-5.7l0.2-4.9-0.4-4.9v-14.1h3.8v29.6h-3.6z"/>
 <path d="m854 728.8c-2.3 0-4.2-0.5-6-1.4-1.7-0.9-3-2.2-4-3.8-0.9-1.6-1.4-3.5-1.4-5.6s0.5-4 1.4-5.6 2.2-2.9 3.8-3.8 3.4-1.4 5.4-1.4 3.9 0.5 5.4 1.4c1.6 0.9 2.8 2.2 3.7 3.8s1.3 3.5 1.3 5.7v0.6c0 0.2 0 0.4-0.1 0.6h-18v-2.8h16l-1.6 1c0-1.4-0.3-2.6-0.8-3.6-0.6-1.1-1.4-1.9-2.4-2.5s-2.2-0.9-3.6-0.9c-1.3 0-2.5 0.3-3.5 0.9s-1.8 1.4-2.4 2.5-0.9 2.3-0.9 3.7v0.6c0 1.4 0.3 2.7 1 3.8s1.6 2 2.7 2.6c1.2 0.6 2.5 0.9 4 0.9 1.2 0 2.4-0.2 3.4-0.6s1.9-1.1 2.7-1.9l2.1 2.5c-1 1.1-2.1 2-3.6 2.6-1.2 0.4-2.8 0.7-4.6 0.7z"/>
 <path d="m878.8 716.2v-3.2h17.9v3.1h-17.9v0.1zm7.2 7.1v-17.5h3.3v17.5h-3.3z"/>
 <path d="m913.7 736.3v-28.9h3.7v5.7l-0.2 4.9 0.4 4.9v13.4h-3.9zm11.2-7.5c-1.8 0-3.4-0.4-4.8-1.2s-2.6-2-3.5-3.6-1.3-3.6-1.3-6 0.4-4.4 1.3-6c0.8-1.6 2-2.8 3.4-3.6s3.1-1.2 4.9-1.2c2.1 0 3.9 0.5 5.5 1.4s2.9 2.2 3.8 3.8 1.4 3.5 1.4 5.6-0.5 4-1.4 5.7c-0.9 1.6-2.2 2.9-3.8 3.8-1.6 0.8-3.5 1.3-5.5 1.3zm-0.3-3.4c1.4 0 2.6-0.3 3.6-0.9 1.1-0.6 1.9-1.5 2.6-2.6 0.6-1.1 0.9-2.4 0.9-3.9s-0.3-2.8-0.9-3.9-1.5-2-2.6-2.6-2.3-0.9-3.6-0.9-2.5 0.3-3.6 0.9-1.9 1.5-2.6 2.6c-0.6 1.1-0.9 2.4-0.9 3.9s0.3 2.8 0.9 3.9 1.5 2 2.6 2.6c1 0.6 2.2 0.9 3.6 0.9z"/>
 <path d="m946.8 728.8c-1.6 0-2.9-0.3-4.1-0.8s-2.1-1.3-2.7-2.2-1-2-1-3.2c0-1.1 0.3-2.2 0.8-3.1s1.4-1.7 2.7-2.2c1.2-0.6 2.9-0.8 5-0.8h6.7v2.8h-6.5c-1.9 0-3.2 0.3-3.9 1-0.7 0.6-1 1.4-1 2.3 0 1 0.4 1.9 1.2 2.5s2 0.9 3.4 0.9 2.7-0.3 3.8-1c1.1-0.6 1.9-1.6 2.3-2.8l0.8 2.6c-0.5 1.2-1.4 2.2-2.7 3-1.2 0.6-2.8 1-4.8 1zm7-0.3v-4.5l-0.2-0.8v-7.6c0-1.6-0.5-2.9-1.4-3.8s-2.4-1.3-4.2-1.3c-1.2 0-2.5 0.2-3.7 0.6s-2.2 1-3 1.7l-1.6-2.9c1.1-0.9 2.4-1.5 3.9-2s3.1-0.7 4.8-0.7c2.9 0 5.1 0.7 6.7 2.1s2.4 3.6 2.4 6.5v12.8l-3.7-0.1z"/>
 <path d="m964.5 728.5v-29.6h3.8v29.6h-3.8z"/>
 <path d="m975.6 728.5v-29.6h3.8v29.6h-3.8z"/>
 <path d="m996.2 728.8c-2.3 0-4.2-0.5-6-1.4-1.7-0.9-3-2.2-4-3.8-0.9-1.6-1.4-3.5-1.4-5.6s0.5-4 1.4-5.6 2.2-2.9 3.8-3.8 3.4-1.4 5.4-1.4 3.9 0.5 5.4 1.4c1.6 0.9 2.8 2.2 3.7 3.8s1.3 3.5 1.3 5.7v0.6c0 0.2 0 0.4-0.1 0.6h-18v-2.8h16l-1.6 1c0-1.4-0.3-2.6-0.8-3.6-0.6-1.1-1.4-1.9-2.4-2.5s-2.2-0.9-3.6-0.9c-1.3 0-2.5 0.3-3.5 0.9s-1.8 1.4-2.4 2.5-0.9 2.3-0.9 3.7v0.6c0 1.4 0.3 2.7 1 3.8s1.6 2 2.7 2.6c1.2 0.6 2.5 0.9 4 0.9 1.2 0 2.4-0.2 3.4-0.6s1.9-1.1 2.7-1.9l2.1 2.5c-1 1.1-2.1 2-3.6 2.6-1.3 0.4-2.9 0.7-4.6 0.7z"/>
 <path d="m1008 710.5v-3.1h13.5v3.1h-13.5zm10.3 18.3c-2.1 0-3.8-0.6-4.9-1.7-1.2-1.1-1.8-2.8-1.8-4.9v-19.4h3.8v19.2c0 1.1 0.3 2 0.9 2.6s1.4 0.9 2.5 0.9c1.2 0 2.2-0.3 3-1l1.2 2.8c-0.6 0.5-1.3 0.9-2.1 1.1-0.9 0.3-1.7 0.4-2.6 0.4z"/>
 <path d="m1026 719.2v-3.3h10.7v3.3h-10.7z"/>
 <path d="m1052 728.8c-2.2 0-4.1-0.5-5.8-1.4s-3-2.2-4-3.8-1.4-3.5-1.4-5.6 0.5-4 1.4-5.6c1-1.6 2.3-2.9 4-3.8s3.6-1.4 5.8-1.4c1.9 0 3.6 0.4 5.1 1.1s2.7 1.9 3.5 3.4l-2.9 1.9c-0.7-1-1.5-1.8-2.5-2.3s-2.1-0.7-3.2-0.7c-1.4 0-2.6 0.3-3.7 0.9s-2 1.5-2.6 2.6-1 2.4-1 3.9 0.3 2.8 1 3.9c0.6 1.1 1.5 2 2.6 2.6s2.3 0.9 3.7 0.9c1.1 0 2.2-0.2 3.2-0.7s1.8-1.3 2.5-2.3l2.9 1.8c-0.8 1.5-2 2.6-3.5 3.4s-3.2 1.2-5.1 1.2z"/>
 <path d="m1074 728.8c-2.1 0-4-0.5-5.7-1.4-1.6-0.9-3-2.2-3.9-3.8s-1.4-3.5-1.4-5.6 0.5-4 1.4-5.6c1-1.6 2.3-2.9 3.9-3.8s3.5-1.4 5.7-1.4c2.1 0 4 0.5 5.6 1.4s3 2.2 3.9 3.8 1.4 3.5 1.4 5.6-0.5 4-1.4 5.6-2.2 2.9-3.9 3.8c-1.6 0.9-3.5 1.4-5.6 1.4zm0-3.4c1.4 0 2.6-0.3 3.6-0.9 1.1-0.6 1.9-1.5 2.5-2.6s0.9-2.4 0.9-3.9-0.3-2.8-0.9-3.9-1.5-2-2.5-2.6c-1.1-0.6-2.3-0.9-3.6-0.9-1.4 0-2.6 0.3-3.6 0.9-1.1 0.6-1.9 1.5-2.6 2.6-0.6 1.1-1 2.4-1 3.9s0.3 2.8 1 3.9c0.6 1.1 1.5 2 2.6 2.6s2.3 0.9 3.6 0.9z"/>
 <path d="m1102 707.2c1.7 0 3.2 0.3 4.6 1 1.3 0.7 2.3 1.7 3.1 3 0.7 1.4 1.1 3.1 1.1 5.1v12.2h-3.8v-11.7c0-2-0.5-3.6-1.5-4.6s-2.4-1.6-4.2-1.6c-1.4 0-2.5 0.3-3.5 0.8s-1.8 1.3-2.3 2.4c-0.5 1-0.8 2.3-0.8 3.9v10.9h-3.8v-21.1h3.7v5.7l-0.6-1.5c0.7-1.4 1.8-2.5 3.2-3.2s2.9-1.3 4.8-1.3z"/>
 <path d="m1115 710.5v-3.1h13.5v3.1h-13.5zm10.3 18.3c-2.1 0-3.8-0.6-4.9-1.7-1.2-1.1-1.8-2.8-1.8-4.9v-19.4h3.8v19.2c0 1.1 0.3 2 0.9 2.6s1.4 0.9 2.5 0.9c1.2 0 2.2-0.3 3-1l1.2 2.8c-0.6 0.5-1.3 0.9-2.1 1.1-0.9 0.3-1.7 0.4-2.6 0.4z"/>
 <path d="m1134 728.5v-21.1h3.7v5.7l-0.4-1.4c0.6-1.5 1.6-2.6 3-3.3s3.1-1.2 5.1-1.2v3.7h-0.5s-0.3 0-0.4 0c-2 0-3.7 0.6-4.9 1.8s-1.8 3-1.8 5.3v10.5h-3.8z"/>
 <path d="m1155 728.8c-1.6 0-2.9-0.3-4.1-0.8s-2.1-1.3-2.7-2.2-1-2-1-3.2c0-1.1 0.3-2.2 0.8-3.1s1.4-1.7 2.7-2.2c1.2-0.6 2.9-0.8 5-0.8h6.7v2.8h-6.5c-1.9 0-3.2 0.3-3.9 1-0.7 0.6-1 1.4-1 2.3 0 1 0.4 1.9 1.2 2.5s2 0.9 3.4 0.9 2.7-0.3 3.8-1c1.1-0.6 1.9-1.6 2.3-2.8l0.8 2.6c-0.5 1.2-1.4 2.2-2.7 3-1.3 0.6-2.9 1-4.8 1zm6.9-0.3v-4.5l-0.2-0.8v-7.6c0-1.6-0.5-2.9-1.4-3.8s-2.4-1.3-4.2-1.3c-1.2 0-2.5 0.2-3.7 0.6s-2.2 1-3 1.7l-1.6-2.9c1.1-0.9 2.4-1.5 3.9-2s3.1-0.7 4.8-0.7c2.9 0 5.1 0.7 6.7 2.1s2.4 3.6 2.4 6.5v12.8l-3.7-0.1z"/>
 <path d="m1182 728.8c-2.2 0-4.1-0.5-5.8-1.4s-3-2.2-4-3.8-1.4-3.5-1.4-5.6 0.5-4 1.4-5.6c1-1.6 2.3-2.9 4-3.8s3.6-1.4 5.8-1.4c1.9 0 3.6 0.4 5.1 1.1s2.7 1.9 3.5 3.4l-2.9 1.9c-0.7-1-1.5-1.8-2.5-2.3s-2.1-0.7-3.2-0.7c-1.4 0-2.6 0.3-3.7 0.9s-2 1.5-2.6 2.6-1 2.4-1 3.9 0.3 2.8 1 3.9c0.6 1.1 1.5 2 2.6 2.6s2.3 0.9 3.7 0.9c1.1 0 2.2-0.2 3.2-0.7s1.8-1.3 2.5-2.3l2.9 1.8c-0.8 1.5-2 2.6-3.5 3.4-1.4 0.8-3.1 1.2-5.1 1.2z"/>
 <path d="m1193 710.5v-3.1h13.5v3.1h-13.5zm10.3 18.3c-2.1 0-3.8-0.6-4.9-1.7-1.2-1.1-1.8-2.8-1.8-4.9v-19.4h3.8v19.2c0 1.1 0.3 2 0.9 2.6s1.4 0.9 2.5 0.9c1.2 0 2.2-0.3 3-1l1.2 2.8c-0.6 0.5-1.3 0.9-2.1 1.1-0.8 0.3-1.7 0.4-2.6 0.4z"/>
 <path d="m1218 728.8c-1.8 0-3.4-0.2-5-0.7s-2.8-1.1-3.7-1.8l1.6-3c0.9 0.6 2 1.1 3.3 1.6 1.3 0.4 2.7 0.6 4.1 0.6 1.8 0 3.1-0.3 3.8-0.8 0.8-0.5 1.2-1.2 1.2-2.1 0-0.7-0.2-1.2-0.7-1.6s-1.1-0.7-1.9-0.8c-0.8-0.2-1.7-0.4-2.6-0.5-1-0.1-1.9-0.3-2.9-0.6-1-0.2-1.8-0.5-2.6-1-0.8-0.4-1.4-1-1.9-1.7s-0.7-1.7-0.7-2.9c0-1.3 0.4-2.4 1.1-3.3s1.7-1.7 3-2.2 2.9-0.8 4.7-0.8c1.4 0 2.8 0.2 4.2 0.5s2.6 0.8 3.5 1.4l-1.6 3c-1-0.6-2-1.1-3-1.3s-2.1-0.4-3.1-0.4c-1.7 0-2.9 0.3-3.7 0.8s-1.2 1.2-1.2 2.1c0 0.7 0.2 1.3 0.7 1.7s1.1 0.7 1.9 0.9 1.7 0.4 2.6 0.5 1.9 0.3 2.9 0.6c1 0.2 1.8 0.5 2.6 0.9s1.4 1 1.9 1.7 0.7 1.7 0.7 2.9c0 1.3-0.4 2.4-1.1 3.3s-1.8 1.7-3.2 2.2c-1.3 0.5-3 0.8-4.9 0.8z"/>
 <path class="st2" d="m388.8 819.3c-4.1 4.1-11.1 2.2-12.5-3.4-1.5-5.6 3.6-10.7 9.2-9.2 5.5 1.5 7.4 8.5 3.3 12.6z"/>
 <path class="st2" d="m391.1 495.5c-7.4-4.2-7.6-14.5-0.4-18.6s16.4 1.2 16.6 9.4c0.2 8.3-8.8 13.4-16.2 9.2z"/>
 <path class="st2" d="m1351 528.8c-6.1-2.9-6.8-11.3-1.3-15.2 5.6-3.9 13.2-0.3 13.8 6.5s-6.3 11.6-12.5 8.7z"/>
 <path class="st2" d="m1150 487.5c2.4-5.6 9-6.8 11.9-2.3s-0.2 11.5-5.4 12.5-9-4.6-6.5-10.2z"/>
 <path class="st2" d="m1162 547.1c-3.2 0-5.2-3.5-3.6-6.3s5.6-2.8 7.2 0c1.6 2.9-0.4 6.3-3.6 6.3z"/>
 <path class="st2" d="m605.5 545.8c-3.3 0-5.3-3.6-3.7-6.4s5.8-2.8 7.4 0c1.7 2.8-0.4 6.4-3.7 6.4z"/>
 <path class="st2" d="m1374 689.8c-2 4.2-7.3 4.9-9.6 1.2-2.2-3.6 0.3-8.9 4.5-9.4s7.1 4 5.1 8.2z"/>
 <path class="st2" d="m1415 847.2c0 7.2-7.8 11.6-14 8.1-6.2-3.6-6.2-12.5 0-16.1 6.3-3.6 14 0.8 14 8z"/>
 <path class="st6" d="m1304 560.7h9.2c3.4 26.8-2.9 32.8-9.2 0z"/>
 <path class="st1" d="m1316 572.4c-3 0-8.6-41.3-22.2-70.3-14.5-31-42.7-34.6-46.8-6.7s11.5 65.2 11.5 65.2h-48.4c-1.4-6.8-2.6-13.2-3.4-19.3-15.8-109.4 51-117.7 82.5-89.3 38.9 35.1 29.8 120.4 26.8 120.4z"/>
 <path class="st0" d="m1294 502.1c-14.5-31-42.7-34.6-46.8-6.7s11.5 65.2 11.5 65.2h-36.1s-9.9-52.7 0.8-81.1c14.6-38.4 55.4-25.1 70.6 22.6z"/>
 <path class="st3" d="m1247 535.6c1.1 12.8-6 21.5-12.8 15.7-6.8-5.9-8.3-21.9-2.6-28.8 5.8-7 14.3 0.3 15.4 13.1z"/>
 <path class="st3" d="m1245 487.7c-4.6 9.5-13.7 12.5-16.2 5.4-2.6-7.1 3.2-19.1 10.4-21.5 7.3-2.4 10.5 6.6 5.8 16.1z"/>
 <path class="st3" d="m1267 476.9c-7.7-4.6-10.3-11.1-4.7-11.8s15.2 5 17.3 10.3-4.9 6.1-12.6 1.5z"/>
 <path class="st0" d="m1237 555-1.7 5.6h-25.4c-1.4-6.8-2.6-13.2-3.4-19.3 11.7 13 30.5 13.7 30.5 13.7z"/>
 <path class="st7" d="m434.9 100.9h6.8v30.7h19v5.7h-25.8v-36.4z"/>
 <path class="st7" d="m491.2 125.5h-21.8c0.8 4.1 4.2 6.7 9 6.7 3.1 0 5.6-1 7.5-3l3.5 4c-2.5 3-6.4 4.5-11.2 4.5-9.3 0-15.3-6-15.3-14.2 0-8.3 6.1-14.2 14.4-14.2 8.1 0 14 5.7 14 14.4 0 0.4-0.1 1.2-0.1 1.8zm-21.9-4.3h15.8c-0.5-4-3.6-6.8-7.9-6.8-4.2 0-7.3 2.7-7.9 6.8z"/>
 <path class="st7" d="m523 109.5-13 30c-2.5 6.3-6.1 8.2-10.7 8.2-2.8 0-5.7-0.9-7.4-2.5l2.6-4.8c1.2 1.2 3 1.9 4.8 1.9 2.3 0 3.6-1.1 4.9-3.8l0.5-1.1-12.1-27.9h6.8l8.7 20.5 8.8-20.5h6.1z"/>
 <path class="st7" d="m552.3 125.5h-21.8c0.8 4.1 4.2 6.7 9 6.7 3.1 0 5.6-1 7.5-3l3.5 4c-2.5 3-6.4 4.5-11.2 4.5-9.3 0-15.3-6-15.3-14.2 0-8.3 6.1-14.2 14.4-14.2 8.1 0 14 5.7 14 14.4 0 0.4-0.1 1.2-0.1 1.8zm-21.9-4.3h15.8c-0.5-4-3.6-6.8-7.9-6.8-4.2 0-7.3 2.7-7.9 6.8z"/>
 <path class="st7" d="m585.9 121.4v15.9h-6.5v-15.1c0-4.9-2.4-7.3-6.6-7.3-4.6 0-7.7 2.8-7.7 8.4v14h-6.5v-27.8h6.2v3.6c2.1-2.5 5.5-3.9 9.6-3.9 6.6 0 11.5 3.8 11.5 12.2z"/>
 <path class="st7" d="m621.7 98.7v38.6h-6.2v-3.6c-2.2 2.7-5.4 4-9.2 4-8.1 0-14-5.6-14-14.2s6-14.2 14-14.2c3.6 0 6.8 1.2 8.9 3.7v-14.3h6.5zm-6.4 24.7c0-5.3-3.6-8.7-8.3-8.7s-8.3 3.4-8.3 8.7 3.6 8.7 8.3 8.7 8.3-3.4 8.3-8.7z"/>
 <path class="st7" d="m627.9 123.4c0-8.3 6.2-14.2 14.8-14.2s14.8 5.9 14.8 14.2-6.2 14.2-14.8 14.2c-8.5 0.1-14.8-5.9-14.8-14.2zm23 0c0-5.3-3.5-8.7-8.3-8.7-4.7 0-8.2 3.4-8.2 8.7s3.5 8.7 8.2 8.7c4.8 0 8.3-3.4 8.3-8.7z"/>
 <path class="st7" d="m704.1 109.5-11.9 27.8h-6.7l-11.9-27.8h6.8l8.6 20.6 8.9-20.6h6.2z"/>
 <path class="st7" d="m730.5 121v16.3h-6.1v-3.4c-1.6 2.4-4.6 3.7-8.7 3.7-6.3 0-10.3-3.5-10.3-8.3 0-4.6 3.1-8.3 11.5-8.3h7.2v-0.4c0-3.8-2.3-6-6.9-6-3.1 0-6.3 1-8.4 2.8l-2.5-4.7c3-2.3 7.3-3.4 11.8-3.4 7.8-0.1 12.4 3.7 12.4 11.7zm-6.5 7.6v-3.2h-6.7c-4.4 0-5.6 1.7-5.6 3.7 0 2.3 2 3.8 5.3 3.8 3.2 0 5.9-1.4 7-4.3z"/>
 <path class="st7" d="M738.8,98.7h6.5v38.6h-6.5V98.7z"/>
 <path class="st7" d="m751.6 123.4c0-8.3 6.2-14.2 14.8-14.2s14.8 5.9 14.8 14.2-6.2 14.2-14.8 14.2c-8.6 0.1-14.8-5.9-14.8-14.2zm23 0c0-5.3-3.5-8.7-8.3-8.7-4.7 0-8.2 3.4-8.2 8.7s3.5 8.7 8.2 8.7c4.8 0 8.3-3.4 8.3-8.7z"/>
 <path class="st7" d="m803.5 109.2v6.2c-0.6-0.1-1-0.2-1.5-0.2-4.9 0-8.1 2.9-8.1 8.6v13.5h-6.5v-27.8h6.2v4.1c1.9-2.9 5.2-4.4 9.9-4.4z"/>
 <path class="st7" d="m834.7 125.5h-21.8c0.8 4.1 4.2 6.7 9 6.7 3.1 0 5.6-1 7.5-3l3.5 4c-2.5 3-6.4 4.5-11.2 4.5-9.3 0-15.3-6-15.3-14.2 0-8.3 6.1-14.2 14.4-14.2 8.1 0 14 5.7 14 14.4 0 0.4 0 1.2-0.1 1.8zm-21.8-4.3h15.8c-0.5-4-3.6-6.8-7.9-6.8-4.2 0-7.3 2.7-7.9 6.8z"/>
 <path class="st7" d="m837.9 134.5 2.5-4.9c2.4 1.6 6.2 2.8 9.7 2.8 4.1 0 5.8-1.1 5.8-3.1 0-5.3-17.2-0.3-17.2-11.4 0-5.3 4.7-8.7 12.2-8.7 3.7 0 7.9 0.9 10.4 2.4l-2.5 4.9c-2.7-1.6-5.3-2.1-8-2.1-4 0-5.8 1.3-5.8 3.1 0 5.6 17.2 0.6 17.2 11.5 0 5.2-4.8 8.6-12.6 8.6-4.6 0.1-9.2-1.3-11.7-3.1z"/>
 <path class="st7" d="m909.4 98.7v38.6h-6.2v-3.6c-2.2 2.7-5.4 4-9.2 4-8.1 0-14-5.6-14-14.2s6-14.2 14-14.2c3.6 0 6.8 1.2 8.9 3.7v-14.3h6.5zm-6.4 24.7c0-5.3-3.6-8.7-8.3-8.7s-8.3 3.4-8.3 8.7 3.6 8.7 8.3 8.7 8.3-3.4 8.3-8.7z"/>
 <path class="st7" d="m943.9 125.5h-21.8c0.8 4.1 4.2 6.7 9 6.7 3.1 0 5.6-1 7.5-3l3.5 4c-2.5 3-6.4 4.5-11.2 4.5-9.3 0-15.3-6-15.3-14.2 0-8.3 6.1-14.2 14.4-14.2 8.1 0 14 5.7 14 14.4 0 0.4 0 1.2-0.1 1.8zm-21.8-4.3h15.8c-0.5-4-3.6-6.8-7.9-6.8-4.2 0-7.3 2.7-7.9 6.8z"/>
 <path class="st7" d="M950.3,98.7h6.5v38.6h-6.5V98.7z"/>
 <path class="st7" d="m977.3 123.4c0-8.3 6.2-14.2 15-14.2 5.4 0 9.7 2.2 11.9 6.4l-5 2.9c-1.7-2.7-4.2-3.8-6.9-3.8-4.8 0-8.4 3.3-8.4 8.7s3.6 8.7 8.4 8.7c2.8 0 5.3-1.2 6.9-3.8l5 2.9c-2.1 4.2-6.4 6.5-11.9 6.5-8.7 0-15-6-15-14.3z"/>
 <path class="st7" d="m1007 123.4c0-8.3 6.2-14.2 14.8-14.2s14.8 5.9 14.8 14.2-6.2 14.2-14.8 14.2c-8.5 0.1-14.8-5.9-14.8-14.2zm23.1 0c0-5.3-3.5-8.7-8.3-8.7-4.7 0-8.2 3.4-8.2 8.7s3.5 8.7 8.2 8.7 8.3-3.4 8.3-8.7z"/>
 <path class="st7" d="m1070 121.4v15.9h-6.5v-15.1c0-4.9-2.4-7.3-6.6-7.3-4.6 0-7.7 2.8-7.7 8.4v14h-6.5v-27.8h6.2v3.6c2.1-2.5 5.5-3.9 9.6-3.9 6.6 0 11.5 3.8 11.5 12.2z"/>
 <path class="st7" d="m1095 135.8c-1.6 1.2-3.9 1.9-6.2 1.9-6.1 0-9.6-3.2-9.6-9.4v-13.4h-4.6v-5.2h4.6v-6.3h6.5v6.3h7.4v5.2h-7.4v13.2c0 2.7 1.4 4.2 3.8 4.2 1.4 0 2.7-0.4 3.6-1.1l1.9 4.6z"/>
 <path class="st7" d="m1117 109.2v6.2c-0.6-0.1-1-0.2-1.5-0.2-4.9 0-8.1 2.9-8.1 8.6v13.5h-6.5v-27.8h6.2v4.1c1.9-2.9 5.3-4.4 9.9-4.4z"/>
 <path class="st7" d="m1145 121v16.3h-6.1v-3.4c-1.6 2.4-4.6 3.7-8.7 3.7-6.3 0-10.3-3.5-10.3-8.3 0-4.6 3.1-8.3 11.5-8.3h7.2v-0.4c0-3.8-2.3-6-6.9-6-3.1 0-6.3 1-8.4 2.8l-2.5-4.7c3-2.3 7.3-3.4 11.8-3.4 7.8-0.1 12.4 3.7 12.4 11.7zm-6.5 7.6v-3.2h-6.7c-4.4 0-5.6 1.7-5.6 3.7 0 2.3 2 3.8 5.3 3.8 3.2 0 5.9-1.4 7-4.3z"/>
 <path class="st7" d="m1170 135.8c-1.6 1.2-3.9 1.9-6.2 1.9-6.1 0-9.6-3.2-9.6-9.4v-13.4h-4.6v-5.2h4.6v-6.3h6.5v6.3h7.4v5.2h-7.4v13.2c0 2.7 1.4 4.2 3.8 4.2 1.4 0 2.7-0.4 3.6-1.1l1.9 4.6z"/>
 <path class="st7" d="m1172 123.4c0-8.3 6.2-14.2 14.8-14.2s14.8 5.9 14.8 14.2-6.2 14.2-14.8 14.2c-8.5 0.1-14.8-5.9-14.8-14.2zm23.1 0c0-5.3-3.5-8.7-8.3-8.7-4.7 0-8.2 3.4-8.2 8.7s3.5 8.7 8.2 8.7 8.3-3.4 8.3-8.7z"/>
 <path class="st7" d="m1206 113.5c0-2.6 1.9-4.3 4.3-4.3 2.3 0 4.3 1.7 4.3 4.3 0 2.5-1.9 4.3-4.3 4.3-2.4 0.1-4.3-1.8-4.3-4.3zm0 19.8c0-2.6 1.9-4.3 4.3-4.3 2.3 0 4.3 1.7 4.3 4.3 0 2.5-1.9 4.3-4.3 4.3-2.4 0.1-4.3-1.8-4.3-4.3z"/>
 <path class="st7" d="m1260 137.3-7.4-10.7c-0.5 0.1-0.9 0.1-1.4 0.1h-8.2v10.6h-6.8v-36.4h15c9.6 0 15.5 4.9 15.5 12.9 0 5.5-2.8 9.6-7.7 11.5l8.4 12h-7.4zm-9.2-30.7h-7.9v14.5h7.9c5.9 0 9-2.7 9-7.3s-3.1-7.2-9-7.2z"/>
 <path class="st7" d="m1304 113.8c0 8-5.9 12.9-15.5 12.9h-8.2v10.5h-6.8v-36.4h15c9.6 0.1 15.5 5 15.5 13zm-6.8 0c0-4.6-3.1-7.2-9-7.2h-7.9v14.5h7.9c5.9 0 9-2.7 9-7.3z"/>
 <path class="st7" d="m1309 119.1c0-10.9 8.3-18.7 19.5-18.7 5.9 0 11 2.1 14.4 6.1l-4.4 4.1c-2.7-2.9-5.9-4.3-9.7-4.3-7.5 0-13 5.3-13 12.8s5.5 12.8 13 12.8c3.8 0 7.1-1.4 9.7-4.3l4.4 4.2c-3.4 4-8.5 6.1-14.5 6.1-11.1-0.1-19.4-7.9-19.4-18.8z"/>
</svg>
