<svg xmlns="http://www.w3.org/2000/svg" width="2764" height="1012"><defs><mask id="b" x="1746.4" y="886.7" width="179" height="124" maskUnits="userSpaceOnUse"><path d="M1925.4 886.7h-179v124h179v-124Z" style="fill:#fff"/></mask><mask id="c" x="673.1" y="794.6" width="101.2" height="70.1" maskUnits="userSpaceOnUse"><path d="M774.3 794.6H673.1v70.1h101.2v-70.1Z" style="fill:#fff"/></mask><mask id="d" x="1967.4" y="669.51" width="57.9" height="40.19" maskUnits="userSpaceOnUse"><path d="M2025.2 669.6h-57.8v40.1h57.8v-40.1Z" style="fill:#fff"/></mask><clipPath id="a"><path style="fill:none;stroke:#d6d8dc;stroke-miterlimit:10" d="M0 0h2763.7v1011.7H0z"/></clipPath></defs><g style="clip-path:url(#a)"><path d="M3493.6-160.7H-793.6v1172.4h4287.2V-160.7Z" style="fill:none;stroke:#d6d8dc;stroke-miterlimit:10"/><path d="M3493.6 1010.7 3153 925.8H1955.5l-78.4-61.2-59.2-46.2-46.3-36.1-37.2-29-30.5-23.8-25.5-19.9-21.7-16.9h-560.5l-24.5 16.9-28.8 19.9-34.5 23.8-42 29-52.3 36.1-67 46.2-88.6 61.2H-438.9l-354.8 84.9" style="fill:none;stroke:#d6d8dc;stroke-linecap:round;stroke-linejoin:round;stroke-width:1.09px"/><path d="m-555.4 1010.7 316.1-84.9 227.9-61.2h686.8l88-46.2H1969l80.3 46.2h686.5l217.7 61.2 301.9 84.9" style="fill:none;stroke:#d6d8dc;stroke-linecap:round;stroke-linejoin:round;stroke-width:1.09px"/><path d="m-317.2 1010.7 277.5-84.9 200-61.2 151.1-46.2 118.1-36.1H698l68.4-29h1210.1l63.6 29h268.4l112.1 36.1 143.3 46.2 189.8 61.2 263.3 84.9" style="fill:none;stroke:#d6d8dc;stroke-linecap:round;stroke-linejoin:round;stroke-width:1.09px"/><path d="m-438.9 925.9 255.7-61.2h171.8l172.1-46.2h602.8l68.8-36.1 55.2-29 45.4-23.8h881.3l41.4 23.8 50.4 29 62.8 36.1h602.7l164.4 46.2h171.7l245.6 61.2" style="fill:none;stroke:#d6d8dc;stroke-linecap:round;stroke-linejoin:round;stroke-width:1.09px"/><path d="m-79.1 1010.7 238.9-84.8L332 864.7l130-46.2 101.6-36.1 81.7-29 67-23.8h110.2l47-19.9h1213.6l61.8 19.9h110.2l84.7 23.8h121l116.4 29" style="fill:none;stroke:#d6d8dc;stroke-linecap:round;stroke-linejoin:round;stroke-width:1.09px"/><path d="M3493.6 1010.7H1826.3l-70.2-84.9-50.6-61.2-38.2-46.2-29.9-36.1-24-29-19.7-23.8-16.5-19.9-13.9-16.9-12-14.5-10.4-12.6h-324.3l-12.5 12.6-14.4 14.5-16.8 16.9-19.8 19.9-23.6 23.8-28.8 29-35.9 36.1-45.9 46.2-60.8 61.2-84.3 84.9H-793.6M1826.4 1010.7H873.7" style="fill:none;stroke:#d6d8dc;stroke-linecap:round;stroke-linejoin:round;stroke-width:1.09px"/><path d="m159.1 1010.7 200.2-84.9 144.4-61.2 109-46.2 85.2-36.1h1342.3l79.2 36.1 101.3 46.2 134.2 61.2 186 84.9" style="fill:none;stroke:#d6d8dc;stroke-linecap:round;stroke-linejoin:round;stroke-width:1.09px"/><path d="M-183.2 864.7 9.9 818.5h150.7l134.5-36.1h134.3l94.8-29h242l56.2-23.8h110.2l37.9-19.9 32.1-16.9h93.4l21-14.5h521.1l18.6 14.5h93.5l29.3 16.9 34.6 19.9h110.2l52.2 23.8h242l90 29h134.2l128.5 36.1h150.7l185.4 46.2" style="fill:none;stroke:#d6d8dc;stroke-linecap:round;stroke-linejoin:round;stroke-width:1.09px"/><path d="m397.3 1010.7 161.6-84.9 116.5-61.2H2049l106.3 61.2 147.4 84.9" style="fill:none;stroke:#d6d8dc;stroke-linecap:round;stroke-linejoin:round;stroke-width:1.09px"/><path d="m635.5 1010.7 123-84.9h1197.3l108.9 84.9M10 818.5l150.9-36.1h134.3l108.1-29h121l77.9-23.8h110.2l56-19.9h101.2l39.8-16.9h93.4l27.6-14.5 24-12.6h162.2" style="fill:none;stroke:#d6d8dc;stroke-linecap:round;stroke-linejoin:round;stroke-width:1.09px"/><path d="m160.9 782.4 121.3-29h121l88.7-23.8h110.2l65.1-19.9h101.1l47.5-16.9h93.5l34.2-14.5h173.7l18.2-12.6M1111.8 1010.7l45.7-84.9 32.9-61.2 24.9-46.2 19.5-36.1 15.6-29 12.8-23.8 10.7-19.9 9.1-16.9 7.8-14.5 6.8-12.6" style="fill:none;stroke:#d6d8dc;stroke-linecap:round;stroke-linejoin:round;stroke-width:1.09px"/><path d="m282.2 753.4 99.6-23.8H492l74.1-19.9h101.2l55.2-16.9h93.3l40.8-14.5 35.4-12.6h162.2" style="fill:none;stroke:#d6d8dc;stroke-linecap:round;stroke-linejoin:round;stroke-width:1.09px"/><path d="m381.7 729.6 83.2-19.9H566l62.9-16.9h93.4l47.4-14.5h173.8l29.6-12.6M1946.7 665.7h162.2l50.5 12.6 58.2 14.5M1541 665.7h81.1l16.1 12.6h86.8l25.2 14.5h93.4l37 16.9 43.6 19.9h110.2l63 23.8 76.8 29 95.6 36.1 122.3 46.2 162 61.2 224.7 84.9M1784.4 665.7h162.3l39 12.6 45 14.5h93.4l60.1 16.9h101.2l79.8 19.9" style="fill:none;stroke:#d6d8dc;stroke-linecap:round;stroke-linejoin:round;stroke-width:1.09px"/><path d="M1622.2 665.7h162.3l27.6 12.6 31.8 14.5h93.5l44.7 16.9 52.7 19.9h110l73.9 23.8h121l103.2 29h134.2l144.9 36.1M464.9 709.7l70.5-16.9h93.4l54-14.5 46.9-12.6h162.2" style="fill:none;stroke:#d6d8dc;stroke-linecap:round;stroke-linejoin:round;stroke-width:1.09px"/><path d="m535.4 692.8 60.6-14.5h173.7l41.1-12.6M596 678.3l52.6-12.6h81.1M2027.8 665.7l44.8 12.6h86.9M1865.5 665.7l33.3 12.6h173.7l51.6 14.5h93.5l67.8 16.9M1703.3 665.7l21.8 12.6h173.7l38.4 14.5h93.4l52.4 16.9h101.1l70.8 19.9h110.2l95.6 23.8M1459.9 665.7l4.7 12.6 5.4 14.5 6.3 16.9 7.4 19.9 8.8 23.8 10.8 29 13.4 36.1 17.2 46.2 22.7 61.2 31.6 84.9M1378.8 665.7l-1.1 12.6-1.2 14.5-1.4 16.9-1.6 19.9-2 23.8-2.4 29-3 36.1-3.8 46.2-5.1 61.2-7.1 84.9M789.6 665.7V224.8L-793.6-160.7M1967.4 665.7V224.8l1583.2-385.5M1967.4 224.8H789.6M1300.8 224.8c21.2 80 134.2 79.6 155.3 0h-155.3Z" style="fill:none;stroke:#d6d8dc;stroke-linecap:round;stroke-linejoin:round;stroke-width:1.09px"/><path d="M1378.5 269.2c14.64 0 26.5-7.16 26.5-16s-11.86-16-26.5-16-26.5 7.16-26.5 16 11.86 16 26.5 16Z" style="fill:none;stroke:#d6d8dc;stroke-linecap:round;stroke-linejoin:round;stroke-width:1.09px"/><path d="M1378.5 264.4c5.69 0 10.3-2.78 10.3-6.2s-4.61-6.2-10.3-6.2-10.3 2.78-10.3 6.2 4.61 6.2 10.3 6.2Z" style="fill:none;stroke:#d6d8dc;stroke-miterlimit:10"/><path d="m897.7 224.8 106.1 440.9" style="fill:none;stroke:#d6d8dc;stroke-linecap:round;stroke-linejoin:round;stroke-width:1.09px"/><path d="M939.5 398.7c-.8.2-1.6.3-2.5.3-5.8 0-10.5-4.7-10.5-10.5 0-4.9 3.4-9.1 8-10.2l5 20.4ZM841.2 346.8c8.84 0 16-7.16 16-16s-7.16-16-16-16-16 7.16-16 16 7.16 16 16 16Z" style="fill:none;stroke:#d6d8dc;stroke-miterlimit:10"/><path d="M841.2 392.9c5.74 0 10.4-4.66 10.4-10.4s-4.66-10.4-10.4-10.4-10.4 4.66-10.4 10.4 4.66 10.4 10.4 10.4ZM841.2 422.9c5.74 0 10.4-4.66 10.4-10.4s-4.66-10.4-10.4-10.4-10.4 4.66-10.4 10.4 4.66 10.4 10.4 10.4ZM1859.3 224.8l-106.1 440.9" style="fill:none;stroke:#d6d8dc;stroke-linecap:round;stroke-linejoin:round;stroke-width:1.09px"/><path d="M1817.5 398.7c.8.2 1.6.3 2.4.3 5.8 0 10.5-4.7 10.5-10.5 0-4.9-3.4-9.1-8-10.2l-4.9 20.4ZM1915.7 346.8c8.84 0 16-7.16 16-16s-7.16-16-16-16-16 7.16-16 16 7.16 16 16 16Z" style="fill:none;stroke:#d6d8dc;stroke-miterlimit:10"/><path d="M1915.7 392.9c5.74 0 10.4-4.66 10.4-10.4s-4.66-10.4-10.4-10.4-10.4 4.66-10.4 10.4 4.66 10.4 10.4 10.4ZM1915.7 422.9c5.74 0 10.4-4.66 10.4-10.4s-4.66-10.4-10.4-10.4-10.4 4.66-10.4 10.4 4.66 10.4 10.4 10.4ZM1836.9 317.8H920.1M926.8 346H1832M2095.6 193.6H661.3M2027.8 210.1l22.9 60.2c4.7 12.4 17.1 20.1 30.3 18.7l1469.6-148.5M2095.6 193.6v93M2139.7 182.9v100.2M1967.4 368.8l1526.2 599.5M2444.9 252.3c-111.5 62.4-115.9 250.9 0 304.1M2089.4 543.4c7.51 0 13.6-11.73 13.6-26.2s-6.09-26.2-13.6-26.2-13.6 11.73-13.6 26.2 6.09 26.2 13.6 26.2ZM2270.7 269.9l-56.1 196M729.2 210.1l-22.9 60.2c-4.7 12.4-17.1 20.1-30.3 18.7L-793.6 140.5M661.3 193.6v93M617.3 182.9v100.2M789.6 368.8-736.6 968.3M312.1 252.3c111.5 62.4 115.9 250.9 0 304.1M667.6 543.4c7.51 0 13.6-11.73 13.6-26.2s-6.09-26.2-13.6-26.2-13.6 11.73-13.6 26.2 6.09 26.2 13.6 26.2ZM486.3 269.9l56 196M1967.4 520.1H1789M968 520.1H789.6" style="fill:none;stroke:#d6d8dc;stroke-linecap:round;stroke-linejoin:round;stroke-width:1.09px"/><path d="M1979.2 170.9c27.28 0 49.4-4.61 49.4-10.3s-22.12-10.3-49.4-10.3-49.4 4.61-49.4 10.3 22.12 10.3 49.4 10.3ZM1779 170.9c27.28 0 49.4-4.61 49.4-10.3s-22.12-10.3-49.4-10.3-49.4 4.61-49.4 10.3 22.12 10.3 49.4 10.3ZM1578.7 170.9c27.28 0 49.4-4.61 49.4-10.3s-22.12-10.3-49.4-10.3-49.4 4.61-49.4 10.3 22.12 10.3 49.4 10.3ZM1378.5 170.9c27.28 0 49.4-4.61 49.4-10.3s-22.12-10.3-49.4-10.3-49.4 4.61-49.4 10.3 22.12 10.3 49.4 10.3ZM1178.2 170.9c27.28 0 49.4-4.61 49.4-10.3s-22.12-10.3-49.4-10.3-49.4 4.61-49.4 10.3 22.12 10.3 49.4 10.3ZM978 170.9c27.28 0 49.4-4.61 49.4-10.3s-22.12-10.3-49.4-10.3-49.4 4.61-49.4 10.3 22.12 10.3 49.4 10.3ZM777.7 170.9c27.28 0 49.4-4.61 49.4-10.3s-22.12-10.3-49.4-10.3-49.4 4.61-49.4 10.3 22.12 10.3 49.4 10.3Z" style="fill:none;stroke:#d6d8dc;stroke-miterlimit:10"/><path d="M2232.5 93.3c38.77 0 70.2-6.54 70.2-14.6s-31.43-14.6-70.2-14.6-70.2 6.54-70.2 14.6 31.43 14.6 70.2 14.6ZM1947.8 93.3c38.77 0 70.2-6.54 70.2-14.6s-31.43-14.6-70.2-14.6-70.2 6.54-70.2 14.6 31.43 14.6 70.2 14.6ZM1663.2 93.3c38.77 0 70.2-6.54 70.2-14.6s-31.43-14.6-70.2-14.6-70.2 6.54-70.2 14.6 31.43 14.6 70.2 14.6ZM1378.5 93.3c38.77 0 70.2-6.54 70.2-14.6s-31.43-14.6-70.2-14.6-70.2 6.54-70.2 14.6 31.43 14.6 70.2 14.6ZM1093.8 93.3c38.77 0 70.2-6.54 70.2-14.6s-31.43-14.6-70.2-14.6-70.2 6.54-70.2 14.6 31.43 14.6 70.2 14.6ZM809.2 93.3c38.77 0 70.2-6.54 70.2-14.6s-31.43-14.6-70.2-14.6S739 70.64 739 78.7s31.43 14.6 70.2 14.6ZM524.5 93.3c38.77 0 70.2-6.54 70.2-14.6s-31.43-14.6-70.2-14.6-70.2 6.54-70.2 14.6 31.43 14.6 70.2 14.6Z" style="fill:none;stroke:#d6d8dc;stroke-linecap:round;stroke-linejoin:round;stroke-width:1.09px"/></g><path style="fill:none;stroke:#d6d8dc;stroke-miterlimit:10" d="M0 0h2763.7v1011.7H0z"/><g style="mask:url(#b)"><path d="M1836.5 973.1c-17.7-11.6-14.2-26.8-14.2-26.8-48.4-6.9-40.2-29.2-26.2-27.7-31.5-16.4-24.2-22-14.8-18 .3.2.7-.3.4-.5-9.9-11.6-5-15.3-.8-12.3 1.8 1.3 3.5 3.9 3.9 7.6 5.6-2.7 10.3-3.4 13.5-2.1 4.4 1.9 5.6 7.7 2 17.4.9-.2 1.9-.4 2.8-.5 8.4-1 14.7 3.2 17.4 9 2.1 4.6 1.9 10.2-1.6 14.8 13.6 2.7 14.4 9.7 9.2 12.3 10.6 6 10.6 20 8.4 26.8Z" style="fill:#b8aeff"/><path d="M1820.4 919.2c-2.1.6-4.6.7-7.1.3-5.9-1.1-10.2-5.1-10.2-9.3 8.3-1.1 14.7 3.2 17.3 9ZM1798.3 893.3c-.8 3.2-4.8 5.7-9.7 5.7-5.4 0-9.8-3.1-9.8-6.9 0-1.6.8-3.1 2.1-4.3 1.8 1.3 3.5 3.9 3.9 7.6 5.7-2.8 10.4-3.5 13.5-2.1Z" style="fill:#e2dcfe"/><path d="M1842.5 1010.2c-.5 0-.9-.4-1-.9l-.4-2.4q-7.5-49.9-35.1-82.9c-5.6-6.7-12.5-15-20.9-25.3-.3-.4-.3-1.1.2-1.4.4-.3 1.1-.3 1.4.2 8.3 10.3 15.2 18.6 20.8 25.3q28 33.5 35.5 83.9l.4 2.4c.1.5-.3 1.1-.9 1.1Z" style="fill:#5d4dc4"/><path d="M1870.2 914.2c.8 12.9 1.6 25.9 4.5 38.5.7 2.4 1.5 5.3 2.5 7.6 1.3 3.4 3.4 6.5 6.1 8.9 1.5 1.4 3.3 2.7 4.9 4.3 1.6 1.5 3.1 3.3 4.3 5.2 3.5 5.7 5.2 12.3 6.6 18.7.9 4.3 1.6 8.6 2.2 12.9l-2.4.3c-.3-2.1-.6-4.3-.9-6.4-1.1-6.3-2.3-12.7-4.6-18.7-1.5-3.9-3.6-7.6-6.7-10.4-1.5-1.4-3.2-2.7-4.9-4.2-1.7-1.5-3.2-3.3-4.4-5.2l-.9-1.5c-.2-.5-.9-1.8-1.1-2.3-.2-.5-.7-1.8-.9-2.3-.7-1.8-1.4-4.4-1.9-6.3-3-12.8-3.8-25.9-4.5-38.9l2.1-.2Z" style="fill:#3f328f"/><path d="m1873.2 950.2-.8-1.8c7.7-3.3 7.6-7.1 5.2-35.4-.3-3-.5-6.2-.8-9.8l2-.2c.3 3.5.6 6.8.8 9.8 2.4 27.7 2.9 33.4-6.4 37.4ZM1869.8 928.7c-8-.3-10.6-7.7-12.3-19.5l2-.3c2.3 16.1 6.4 17.6 10.4 17.8l-.1 2Z" style="fill:#3f328f"/><path d="m1880.1 932.8-.1-2c6.6-.5 6.7-4 6-18.9l-.1-1.6 2-.1.1 1.6c.6 14.4.9 20.4-7.9 21ZM1898.1 953.1c-5.2-2.4-8.4-4.8-8.1-23.5h2c-.3 18.4 2.9 19.8 6.9 21.7l-.8 1.8Z" style="fill:#3f328f"/><path d="m1887.1 973.1-2-.1.9-12.8.7-.2c.4-.1.9-.2 1.3-.3 6.5-1.6 12.6-3.1 9.4-23.6l2-.3c3.2 20.8-2.5 23.8-10.9 25.9-.2 0-.4.1-.6.1l-.8 11.3ZM1874.7 958.2c-9.7-1.5-11.8-8-13.6-13.8-2-6.3-3.6-11.3-13.8-9.9l-.3-2c11.9-1.5 13.9 5 15.9 11.3 1.8 5.7 3.5 11.2 12 12.5l-.2 1.9Z" style="fill:#3f328f"/><path d="m1854.08 920.95-1.96.41 2.84 13.51 1.96-.41-2.84-13.51ZM1892.9 983.4c-15.2 0-17.6-4-24.4-15.8-1-1.7-2-3.5-3.2-5.5l1.7-1c1.2 2 2.3 3.9 3.2 5.5 6.8 11.7 8.6 14.9 23 14.8v2h-.3ZM1896.3 991.7c11-5 11.3-16.5 12-27.1l.6-10.9 2 .1-.5 10.9c-.5 7.3-.6 15.2-4.6 21.6-2 3.3-5.2 5.8-8.6 7.4l-.9-2Z" style="fill:#3f328f"/><path d="m1907.6 978.3-.4-.2c-4.9-2.3-7.6-4.2-6.5-17.8l2 .2c-1 12.8 1.4 14 5.4 15.8l.4.2-.9 1.8ZM1892.2 1010.7c-1.2-6.9-8.1-10.2-13.9-12.8-6.4-2.9-13-5.6-18.5-10.2-3.7-3.1-6.6-7-8.7-11.4l1.8-.9c2 4.1 4.7 7.7 8.2 10.6 5.2 4.4 11.8 7 18 9.8 6.6 2.8 14 6.6 15.5 14.4l-2.4.5Z" style="fill:#3f328f"/><path d="m1864 989.5-1.6-1.2c4.7-5.9 3-8.5-11.4-27.3l-.2-.3 1.6-1.2.2.3c14.2 18.5 17.2 22.4 11.4 29.7ZM1884.1 998.9c-6 10.1-14.2 6.8-22.1 1.3-2.2-1.5-4.4-3.1-6.6-4.6l1.2-1.7c2.2 1.5 4.4 3.1 6.6 4.5 6.8 4.5 13.8 8.1 18.8-.7l2.1 1.2Z" style="fill:#3f328f"/><path d="M1856.2 962.2c5-2.2 8.6-4.7 8.2-5.7s-4.8-.1-9.8 2.1c-5 2.1-8.6 4.7-8.2 5.7.5 1 4.9.1 9.8-2.1ZM1858 977.3c6-2 10.5-4.5 10.1-5.8-.4-1.2-5.6-.6-11.5 1.3-6 2-10.5 4.5-10.1 5.8.4 1.2 5.5.6 11.5-1.3Z" style="fill:#e2dcfe"/><path d="M1856.5 986.7c4.2-1.3 7.4-3.1 7.2-3.9-.3-.9-3.9-.5-8.1.8-4.2 1.3-7.4 3.1-7.2 3.9.2.8 3.9.5 8.1-.8Z" style="fill:#b8aeff"/><path d="M1857.8 997.8c3.1-1.3 5.3-3.2 4.8-4.2-.4-1-3.3-.8-6.4.5-3.1 1.3-5.3 3.2-4.8 4.2s3.3.7 6.4-.5ZM1905.1 938.2c5.7-.3 10.3-1.5 10.2-2.6-.1-1.2-4.7-1.9-10.5-1.6-5.8.3-10.3 1.5-10.2 2.6.1 1.1 4.8 1.9 10.5 1.6Z" style="fill:#e2dcfe"/><path d="M1894.4 931.4c3.2-.2 5.8-1.2 5.7-2.3 0-1.1-2.7-1.9-5.9-1.7-3.2.2-5.8 1.2-5.7 2.3 0 1.1 2.7 1.9 5.9 1.7Z" style="fill:#b8aeff"/><path d="M1891.5 911.6c4.4-.2 7.9-1.1 7.9-2s-3.6-1.5-8-1.2c-4.4.2-7.9 1.1-7.9 2s3.6 1.4 8 1.2Z" style="fill:#e2dcfe"/><path d="M1876.3 905c4.5-.2 8.1-1.2 8.1-2.1s-3.7-1.5-8.2-1.3c-4.5.2-8.1 1.2-8.1 2.1s3.7 1.5 8.2 1.3Z" style="fill:#b8aeff"/><path d="M1858.8 911.1c4.1-.5 7.4-1.7 7.3-2.5-.1-.8-3.5-1.1-7.7-.6-4.1.5-7.4 1.7-7.3 2.5s3.6 1.1 7.7.6ZM1871.8 917.5c3.7-.2 6.7-1.4 6.7-2.6-.1-1.3-3.1-2.1-6.9-2-3.7.2-6.7 1.4-6.7 2.6.1 1.3 3.2 2.2 6.9 2Z" style="fill:#e2dcfe"/><path d="M1851.2 923.4c4.4-.8 7.9-2.2 7.7-3.1-.2-.9-3.9-1-8.3-.2s-7.8 2.2-7.7 3.1c.2.9 3.9 1 8.3.2Z" style="fill:#b8aeff"/><path d="M1849.5 934.3c1-3.3 1.2-6.1.3-6.4-.9-.3-2.5 2.1-3.5 5.4-1.1 3.3-1.2 6.1-.3 6.4.9.2 2.5-2.2 3.5-5.4ZM1863.6 941.6c4-1 6.9-2.9 6.6-4.2-.3-1.3-3.8-1.6-7.8-.6s-7 2.9-6.6 4.2c.4 1.3 3.9 1.6 7.8.6Z" style="fill:#e2dcfe"/><path d="M1889.8 939.9c.1-1.2-3-2.4-6.8-2.7-3.8-.2-7 .6-7 1.8-.1 1.2 3 2.4 6.8 2.7 3.8.2 7-.6 7-1.8ZM1877.6 967c4.8-1.5 8.4-3.6 8-4.6-.3-1-4.4-.5-9.2 1-4.8 1.5-8.4 3.6-8.1 4.6.4 1 4.5.6 9.3-1Z" style="fill:#b8aeff"/><path d="M1867.3 963.6c3.1-1 5.3-2.6 4.9-3.6-.3-1-3-1-6.1 0-3 1-5.3 2.6-4.9 3.6.3 1.1 3 1 6.1 0Z" style="fill:#e2dcfe"/><path d="M1880.3 994.3c4.3-2.3 7.2-5.2 6.5-6.6-.7-1.4-4.8-.7-9.1 1.6s-7.2 5.2-6.5 6.6c.7 1.4 4.8.7 9.1-1.6Z" style="fill:#b8aeff"/><path d="M1892.7 975.9c5.2-1.9 9-4.3 8.6-5.4-.4-1.1-4.9-.4-10 1.5s-9 4.3-8.6 5.4c.3 1.1 4.8.4 10-1.5ZM1915.3 954.9c5.6-.3 10.2-1.4 10.1-2.6s-4.7-1.9-10.3-1.6-10.1 1.4-10.1 2.6c.1 1.1 4.7 1.8 10.3 1.6Z" style="fill:#e2dcfe"/><path d="M1910.8 961.6c.1-1.1-2.7-2.2-6.3-2.6-3.6-.3-6.6.2-6.7 1.3-.1 1.1 2.7 2.2 6.3 2.6 3.6.4 6.6-.2 6.7-1.3Z" style="fill:#b8aeff"/><path d="M1811 1002.8c11.6 3.1 5.2 7.7 5.2 7.7h-58.9c4-5.6 5.3-8.9 21.7-8.9s32 1.2 32 1.2Z" style="fill:#46379e"/><path d="M1828.9 990.2c-.4.7-6.7 4.2-12.6 8.6-2.3 1.7-4.5 3.6-6.2 5.5-8.2 3.7-15.9 1.1-15.9 1.1-4 2.9-10.1.9-10.1.9-5.4 5-9.9 2.6-16.3-.6-.8-.4-1.7-.9-2.6-1.3-8-3.8-18.8-8-18.8-8 1.3-4.6 5-8.8 5-8.8l-4.4-3.6c3.6-5.9 9.3-9.2 9.3-9.2l2.5 1.2 2.8-3-4.6-5.1c4.6-6.5 12.4-8.7 12.4-8.7l5.3 6.9c3.5-1.7 6.8-2.7 9.6-3.3 6.3-1.4 10.3-.5 10.3-.5l.4 4.6s5.1-1.4 10.6.4c.7.2 1.1.9 1 1.6-.6 3.2-1.1 5.5-1.1 5.5 8.5.6 13.8 3.4 13.2 4.9-.2.6-.7 1.6-1.1 2.8-.7 1.8-1.5 3.8-1.5 3.8 11.5.6 13.4 3.3 12.8 4.3Z" style="fill:#b8aeff"/><path d="M1816.3 998.8c-2.3 1.7-4.5 3.6-6.2 5.5-8.2 3.7-15.9 1.1-15.9 1.1-4 2.9-10.1.9-10.1.9-5.4 5-9.9 2.6-16.3-.6 3.7.3 9.5-.2 13.3-5.1l-1.5-3.2s3.3-3.5 6.1-3l.6 6.9s3.8-11.7 18.9 2.5c-.1.1 5-10.9 11.1-5Z" style="fill:#8d7cf7"/><path d="M1818.7 979.2c-.2.6-.7 1.6-1.1 2.8-1.8 1.3-3.8 2.3-6 3-14.4 4.4-28.6-7.7-27.2-22.3 6.3-1.4 10.3-.5 10.3-.5l.4 4.6s5.1-1.4 10.6.4c.7.2 1.1.9 1 1.6-.6 3.2-1.1 5.5-1.1 5.5 8.4.7 13.7 3.4 13.1 4.9Z" style="fill:#dad3fe"/><path d="m1814.42 986.78-2.16 4.62 1.82.85 2.15-4.62-1.81-.85ZM1785.5 1004.5c-.1-.7-1.5-17.2-1.5-20.3 0-1 .9-1.9 2.5-2.7 4-1.8 13.8-3.3 16.1-1.5.5.4.8 1 .6 1.7-.6 2.9-2.7 15.6-2.7 15.8l-2-.3c.1-.5 2-12.4 2.7-15.7-1.1-.6-6.1-.4-10.9.9-3.3.9-4.2 1.7-4.3 2-.1 3 1.5 19.9 1.5 20.1h-2ZM1782.2 1005.5 1773 986c-8.4 1.5-12.8 5.3-12.6 6.3 1.6 1.6 9.5 10.5 9.8 10.8l-1.5 1.3c-.1-.1-8.2-9.2-9.8-10.8-.5-.6-.7-1.3-.4-2.2.9-2.8 6.7-6.4 14.9-7.6l.7-.1 9.8 20.8-1.7 1Z" style="fill:#7667d6"/><path d="m1750.99 986.82-1.08 1.69 10.62 6.78 1.08-1.69-10.62-6.78ZM1759.34 975.21l-1.14 1.65 8.57 5.9 1.13-1.65-8.56-5.9Z" style="fill:#7667d6"/><path d="m1768.5 986.6-3.2-3.8.3-.6c2.7-5.7 13.5-7.9 14.7-8.2 3.8-.7 4.3-.2 4.6 0 .8.7 1.4 3.8 1.8 9.1l-2 .2c-.2-3.1-.7-6.7-1.1-7.7-2.2-.2-13 2.3-15.8 6.9l2.4 2.8-1.7 1.3ZM1784.97 988.46l-8.02 2.82.66 1.89 8.02-2.82-.66-1.89ZM1792.7 981l-2-.1c.3-5.5.6-11.7.5-12.4-.1-.3 0-.7.2-1.1.6-.9 2.4-1.4 3.4-1.6l.4 2c-.8.1-1.6.4-2 .6.1 1.8-.2 8.5-.5 12.6Z" style="fill:#7667d6"/><path d="m1779.4 975.5-6.1-9.7.9-.5c.4-.2 9.1-5.4 20.5-4l-.2 2c-8.7-1.1-15.9 2-18.3 3.3l5 8-1.8.9ZM1772.3 977.7c-.1-.1-2.2-3.4-3.6-6.2-.2-.4-.6-1.2-.8-1.3-.5-.1-2.8 1.5-5.7 3.6l-1.2-1.6c4.4-3.1 5.9-4.2 7.3-3.9 1 .3 1.6 1.3 2.1 2.3 1.4 2.7 3.5 6 3.5 6l-1.6 1.1Z" style="fill:#7667d6"/><path d="M1784.1 974.7c1.2 2-16.8 8.6-17.7 7.8-2.4-1.9 16.5-9.8 17.7-7.8ZM1802.2 981.4c0 3.1-16.4 4.9-17.2 2.8-.9-2.3 17.3-6.3 17.2-2.8ZM1760.6 994.2c-.5 0-.9-.1-1.3-.2l.8-1.8c.8.4 4.3-.7 8.3-3.2 3.2-2 4.2-3.4 4.2-3.8l1.9-.5c.3 1.1-.5 2.4-2.3 4-2.5 2.2-8.4 5.5-11.6 5.5ZM1756.3 974.8c-.1 3.3-7.5 10-9.3 9.2 3.6-6 9.3-9.2 9.3-9.2ZM1769.5 959.1c0 1.8-11.7 9.8-12.4 8.7 4.6-6.5 12.4-8.7 12.4-8.7ZM1818.7 979.2c-1.3 1.6-24.5-5.4-13.2-4.9 8.5.7 13.8 3.4 13.2 4.9Z" style="fill:#7667d6"/><path d="m1802.38 974.56-2.1 5.3 1.86.74 2.1-5.3-1.86-.74ZM1787.5 992.1c-1.3 0-2.1-.1-2.2-.1l.2-2c.1 0 8.1.7 15.1-2.7l.9 1.8c-5.4 2.6-11 3-14 3ZM1754.1 990.3l-1.1-1.6c.1 0 6.5-4.6 8.5-10.6l1.9.6c-2.3 6.6-9 11.4-9.3 11.6Z" style="fill:#7667d6"/><path d="m1811 1003-1.8-.9 4.5-9.1c-1.3-.9-7.6-1.8-13-2.2l.1-2c5 .3 13.7 1.2 14.8 3.4.3.5.2 1-.1 1.5l-4.5 9.3Z" style="fill:#7667d6"/></g><g style="mask:url(#c)"><path d="M723.4 843.5c-1.2-3.9-1.3-11.8 4.8-15.2-3-1.5-2.5-5.4 5.2-7-2-2.6-2.1-5.7-.9-8.4 1.5-3.3 5.1-5.7 9.8-5.1.5.1 1 .2 1.6.3-2.1-5.5-1.4-8.8 1.1-9.8 1.8-.8 4.4-.4 7.6 1.2.2-2.1 1.2-3.5 2.2-4.3 2.4-1.7 5.1.4-.4 6.9-.1.2 0 .4.2.3 5.3-2.2 9.4.9-8.4 10.2 7.9-.8 12.6 11.7-14.8 15.7 0 0 2 8.7-8 15.2Z" style="fill:#b8aeff"/><path d="M742.3 807.9c0 2.4-2.4 4.6-5.8 5.2-1.4.3-2.8.2-4-.2 1.5-3.2 5.1-5.6 9.8-5ZM752.6 799.5c.2-2.1 1.2-3.5 2.2-4.3.7.7 1.2 1.5 1.2 2.4 0 2.2-2.5 3.9-5.6 3.9-2.7 0-5-1.4-5.5-3.2 1.8-.7 4.5-.4 7.7 1.2Z" style="fill:#e2dcfe"/><path d="M720 864.5c.3 0 .5-.2.6-.5l.2-1.4q4.2-28.2 19.8-46.9c3.2-3.8 7.1-8.5 11.8-14.3.2-.2.2-.6-.1-.8-.2-.2-.6-.2-.8.1-4.7 5.8-8.6 10.5-11.8 14.3q-15.8 18.9-20.1 47.4l-.2 1.4c0 .3.2.6.6.7Z" style="fill:#5d4dc4"/><path d="m704.3 810.2 1.2.1c-.4 7.4-.9 14.8-2.5 22-.3 1.1-.7 2.6-1.1 3.6-.1.3-.4 1-.5 1.3-.1.3-.5 1-.6 1.3l-.5.8c-.7 1.1-1.5 2.1-2.5 2.9-.9.9-1.9 1.6-2.7 2.4-1.7 1.6-2.9 3.7-3.8 5.9-1.3 3.4-2 7-2.6 10.5-.2 1.2-.4 2.4-.5 3.6l-1.3-.2c.4-2.4.7-4.9 1.2-7.3.8-3.6 1.7-7.3 3.7-10.6.7-1.1 1.5-2.1 2.4-3 .9-.9 1.9-1.6 2.8-2.4 1.5-1.4 2.7-3.1 3.5-5 .6-1.3 1-2.9 1.4-4.3 1.6-7 2-14.3 2.4-21.6Z" style="fill:#3f328f"/><path d="m702.6 830.5.4-1c-4.3-1.9-4.3-4-3-20 .1-1.7.3-3.5.5-5.5l-1.1-.1c-.2 2-.3 3.8-.5 5.5-1.3 15.6-1.5 18.9 3.7 21.1ZM704.6 818.4c4.5-.2 6-4.3 6.9-11l-1.1-.2c-1.3 9.1-3.6 10-5.9 10l.1 1.2Z" style="fill:#3f328f"/><path d="m698.7 820.7.1-1.1c-3.7-.3-3.8-2.3-3.4-10.7v-.9h-1.1v.9c-.4 8.1-.5 11.4 4.4 11.8ZM688.6 832.1c3-1.3 4.8-2.7 4.6-13.3h-1.1c.2 10.4-1.6 11.2-3.9 12.2l.4 1.1Z" style="fill:#3f328f"/><path d="m694.8 843.4 1.1-.1-.5-7.2-.4-.1c-.2-.1-.5-.1-.7-.2-3.7-.9-7.1-1.7-5.3-13.4l-1.1-.2c-1.8 11.7 1.4 13.5 6.2 14.6.1 0 .2.1.3.1l.4 6.5ZM701.8 835c5.5-.8 6.6-4.5 7.7-7.8 1.1-3.6 2-6.4 7.8-5.6l.1-1.1c-6.7-.9-7.9 2.8-9 6.4-1 3.2-2 6.3-6.8 7l.2 1.1Z" style="fill:#3f328f"/><path d="m713.39 813.98-1.6 7.63 1.08.23 1.6-7.63-1.08-.23ZM691.5 849.3c8.6 0 9.9-2.3 13.8-8.9.5-.9 1.1-2 1.8-3.1l-1-.6c-.7 1.1-1.3 2.2-1.8 3.1-3.8 6.6-4.9 8.4-13 8.4v1.1h.2ZM689.6 854l-.6 1.2c-1.9-.9-3.7-2.4-4.8-4.2-2.2-3.6-2.3-8.1-2.6-12.2l-.3-6.1 1.2-.1.3 6.1c.4 6 .6 12.5 6.8 15.3Z" style="fill:#3f328f"/><path d="m683.2 846.4.2-.1c2.8-1.3 4.3-2.4 3.7-10.1l-1.1.1c.6 7.3-.8 7.9-3.1 9l-.2.1.5 1ZM691.9 864.7l-1.4-.3c.8-4.4 5-6.6 8.7-8.2 3.6-1.5 7.2-3 10.2-5.5 2-1.6 3.5-3.7 4.6-6l1 .5c-1.2 2.5-2.8 4.7-4.9 6.4-3.1 2.6-6.8 4.2-10.4 5.8-3.2 1.6-7.1 3.4-7.8 7.3Z" style="fill:#3f328f"/><path d="m707.8 852.7.9-.7c-2.6-3.3-1.7-4.8 6.4-15.4l.1-.2-.9-.7-.1.2c-8 10.5-9.6 12.7-6.4 16.8ZM697.7 857.3c2.8 5 6.8 3 10.6.4 1.2-.8 2.5-1.7 3.7-2.6l.7 1c-1.2.9-2.4 1.8-3.7 2.6-4.5 3.1-9.1 5-12.5-.7l1.2-.7Z" style="fill:#3f328f"/><path d="M717.8 838.5c.2-.6-1.8-2-4.6-3.2s-5.3-1.7-5.5-1.2c-.2.6 1.8 2 4.6 3.2 2.7 1.2 5.2 1.7 5.5 1.2ZM717.7 846.6c.2-.7-2.3-2.2-5.7-3.3-3.4-1.1-6.3-1.4-6.5-.8-.2.7 2.3 2.2 5.7 3.3 3.4 1.1 6.3 1.5 6.5.8Z" style="fill:#e2dcfe"/><path d="M716.7 851.6c.1-.5-1.7-1.5-4-2.2-2.4-.7-4.4-.9-4.6-.5-.2.5 1.7 1.5 4 2.2 2.4.8 4.4 1 4.6.5Z" style="fill:#b8aeff"/><path d="M714.9 857.7c.2-.6-1-1.7-2.7-2.4-1.8-.7-3.4-.8-3.6-.3-.2.6 1 1.7 2.7 2.4 1.8.7 3.4.8 3.6.3ZM690.5 822.8c0-.7-2.6-1.3-5.8-1.5s-5.9.2-5.9.9 2.6 1.3 5.8 1.5c3.2.2 5.9-.2 5.9-.9Z" style="fill:#e2dcfe"/><path d="M694 818.9c0-.6-1.4-1.2-3.2-1.3-1.8-.1-3.3.3-3.3 1 0 .6 1.4 1.2 3.2 1.3 1.8.1 3.3-.3 3.3-1Z" style="fill:#b8aeff"/><path d="M696.8 808c0-.5-2-1-4.5-1.1-2.5-.1-4.5.2-4.5.7s2 1 4.5 1.1c2.5.1 4.5-.2 4.5-.7Z" style="fill:#e2dcfe"/><path d="M705.5 804.2c0-.5-2-1-4.6-1.2-2.5-.1-4.6.2-4.7.7 0 .5 2 1 4.6 1.2 2.6.2 4.7-.2 4.7-.7Z" style="fill:#b8aeff"/><path d="M715.1 808.1c.1-.5-1.8-1.1-4.1-1.4s-4.3-.2-4.3.3c-.1.5 1.8 1.1 4.1 1.4 2.3.3 4.3.2 4.3-.3ZM707.3 810.9c0-.7-1.7-1.4-3.8-1.5-2.1-.1-3.9.4-3.9 1.1s1.6 1.4 3.8 1.5c2.1.2 3.9-.3 3.9-1.1Z" style="fill:#e2dcfe"/><path d="M719.8 815.2c.1-.5-1.9-1.3-4.3-1.7-2.5-.5-4.6-.4-4.7.1-.1.5 1.9 1.3 4.3 1.7 2.5.5 4.6.5 4.7-.1Z" style="fill:#b8aeff"/><path d="M718 824.5c.5-.2.4-1.8-.2-3.6-.6-1.8-1.5-3.2-2-3-.5.2-.4 1.8.2 3.6s1.5 3.2 2 3ZM712.5 825.3c.2-.7-1.5-1.8-3.7-2.4-2.3-.6-4.2-.4-4.4.3-.2.7 1.5 1.8 3.7 2.4 2.2.6 4.2.5 4.4-.3Z" style="fill:#e2dcfe"/><path d="M697.2 825.7c2.2-.1 3.9-.8 3.8-1.5 0-.7-1.8-1.2-4-1-2.2.1-3.9.8-3.8 1.5.1.7 1.9 1.1 4 1ZM705.4 840.6c.2-.6-1.9-1.7-4.6-2.6s-5-1.1-5.2-.6c-.2.6 1.9 1.7 4.6 2.6s5 1.2 5.2.6Z" style="fill:#b8aeff"/><path d="M709.4 838.1c.2-.6-1.1-1.5-2.8-2-1.7-.6-3.3-.6-3.4 0-.2.6 1.1 1.5 2.8 2 1.7.6 3.3.6 3.4 0Z" style="fill:#e2dcfe"/><path d="M703.8 856.3c.4-.8-1.2-2.5-3.7-3.7-2.5-1.2-4.7-1.7-5.2-.9-.4.8 1.2 2.5 3.7 3.7 2.5 1.3 4.8 1.7 5.2.9Z" style="fill:#b8aeff"/><path d="M697.3 845.9c.2-.6-2-2-4.9-3-2.9-1.1-5.5-1.5-5.7-.9s2 2 4.9 3c3 1.1 5.5 1.5 5.7.9ZM684.7 832.3c0-.7-2.5-1.3-5.7-1.5s-5.8.2-5.8.9 2.5 1.3 5.7 1.5c3.1.1 5.7-.3 5.8-.9Z" style="fill:#e2dcfe"/><path d="M685.2 837.7c2-.2 3.6-.8 3.6-1.4-.1-.6-1.8-.9-3.8-.7-2 .2-3.6.8-3.6 1.4s1.7.9 3.8.7Z" style="fill:#b8aeff"/><path d="M755.9 859.6c9.2 0 10 1.9 12.3 5.1h-33.3s-3.6-2.6 3-4.4c-.1 0 8.8-.7 18-.7Z" style="fill:#46379e"/><path d="m734.9 850.6-.8-2.2c-.2-.6-.5-1.2-.6-1.6-.4-.8 2.6-2.4 7.4-2.7 0 0-.3-1.3-.6-3.1-.1-.4.2-.8.5-.9 3.1-1 6-.2 6-.2l.2-2.6s2.3-.5 5.8.3c1.6.3 3.4.9 5.4 1.9l3-3.9s4.4 1.2 7 4.9l-2.6 2.9 1.6 1.7 1.4-.7s3.3 1.8 5.3 5.2l-2.5 2.1s2.1 2.4 2.8 5c0 0-6.1 2.4-10.6 4.5-.5.2-1 .5-1.5.7-3.7 1.8-6.2 3.2-9.2.4 0 0-3.5 1.1-5.7-.5 0 0-4.3 1.5-9-.6-1-1.1-2.2-2.1-3.5-3.1-3.3-2.5-6.9-4.5-7.1-4.9-.2-.7.8-2.2 7.3-2.6Z" style="fill:#b8aeff"/><path d="M741.1 860.9c8.6-8 10.7-1.4 10.7-1.4l.3-3.9c1.5-.3 3.4 1.7 3.4 1.7l-.8 1.8c2.1 2.8 5.4 3 7.5 2.9-3.7 1.8-6.2 3.2-9.2.4 0 0-3.5 1.1-5.7-.5 0 0-4.3 1.5-9-.6-1-1.1-2.2-2.1-3.5-3.1 3.5-3.5 6.3 2.7 6.3 2.7Z" style="fill:#8d7cf7"/><path d="M740.9 844.2s-.3-1.3-.6-3.1c-.1-.4.2-.8.5-.9 3.1-1 6-.2 6-.2l.2-2.6s2.3-.5 5.8.3c.8 8.2-7.2 15.1-15.4 12.6-1.3-.4-2.4-1-3.4-1.7-.2-.6-.5-1.2-.6-1.6-.3-.9 2.7-2.5 7.5-2.8Z" style="fill:#dad3fe"/><path d="m735.7 851.2-1 .46 1.23 2.63 1-.47-1.23-2.63ZM751.1 861.1c0-.1.9-9.6.8-11.3 0-.1-.6-.6-2.4-1.1-2.7-.7-5.5-.8-6.2-.5.4 1.9 1.5 8.6 1.5 8.9l-1.1.2c0-.1-1.2-7.3-1.5-8.9-.1-.4 0-.7.3-.9 1.3-1 6.8-.2 9.1.9.9.4 1.4.9 1.4 1.5 0 1.8-.8 11.1-.8 11.5l-1.1-.3ZM754.1 861.8l5.2-11c4.7.8 7.2 3 7.1 3.6-.9.9-5.4 5.9-5.6 6.1l.8.8c0-.1 4.6-5.2 5.5-6.1.3-.3.4-.8.2-1.2-.5-1.6-3.8-3.6-8.4-4.3l-.4-.1-5.6 11.8 1.2.4Z" style="fill:#7667d6"/><path d="m771.77 851.3-5.98 3.82.59.93 5.98-3.82-.59-.93ZM766.92 844.62l-4.86 3.35.62.91 4.86-3.35-.62-.91Z" style="fill:#7667d6"/><path d="m761 850.3 1.3-1.6c-1.6-2.6-7.7-4-9-3.9-.2.6-.5 2.6-.6 4.4l-1.1-.1c.2-3 .6-4.8 1-5.2.2-.1.5-.4 2.6 0 .7.1 6.8 1.4 8.3 4.6l.2.3-1.9 2.3-.8-.8ZM752.6 852.11l-.36 1.04 4.53 1.59.36-1.04-4.53-1.59ZM747.9 840.8c-.2-.1-.7-.3-1.1-.4l.2-1.1c.6.1 1.6.4 1.9.9.1.2.2.4.1.6-.1.4.1 3.9.3 7l-1.1.1c-.2-2.3-.4-6.1-.3-7.1Z" style="fill:#7667d6"/><path d="m755.6 844.8 3.4-5.5-.5-.3c-.2-.1-5.1-3.1-11.6-2.3l.1 1.1c4.9-.6 9 1.2 10.4 1.9l-2.8 4.5 1 .6ZM759.7 846.1c.1-.1 1.2-1.9 2-3.5.1-.2.3-.7.5-.7.3-.1 1.6.9 3.2 2l.7-.9c-2.5-1.8-3.4-2.4-4.1-2.2-.6.1-.9.7-1.2 1.3-.8 1.5-2 3.4-2 3.4l.9.6Z" style="fill:#7667d6"/><path d="M763 848.8c-.5.4-10.7-3.3-10-4.4.7-1.1 11.4 3.3 10 4.4ZM752.5 849.7c-.5 1.2-9.7.2-9.7-1.6-.1-1.9 10.2.4 9.7 1.6ZM766.3 855.4c.3 0 .5 0 .7-.1l-.5-1c-.4.2-2.5-.4-4.7-1.8-1.8-1.1-2.4-1.9-2.4-2.1l-1.1-.3c-.2.6.3 1.4 1.3 2.2 1.6 1.2 4.9 3.1 6.7 3.1ZM774 849.6c-1 .5-5.2-3.3-5.3-5.2 0 0 3.3 1.8 5.3 5.2ZM768.3 840.5c-.5.6-7-3.9-7-4.9 0 0 4.4 1.2 7 4.9ZM740.9 844.2c6.4-.3-6.7 3.7-7.4 2.7-.4-.8 2.6-2.4 7.4-2.7Z" style="fill:#7667d6"/><path d="m742.73 844.44-1.02.41 1.18 2.97 1.02-.4-1.18-2.98ZM751.1 854.2h1.2l-.1-1.1s-4.6.4-8.5-1.5l-.5 1c3 1.4 6.2 1.6 7.9 1.6ZM770 853.2l.6-.9s-3.7-2.6-4.8-6l-1.1.4c1.3 3.7 5.1 6.4 5.3 6.5Z" style="fill:#7667d6"/><path d="M735.2 855.1c-.2-.3-.2-.6 0-.9.6-1.2 5.5-1.7 8.4-1.9l.1 1.1c-3.1.2-6.6.7-7.4 1.2l2.5 5.2-1 .5-2.6-5.2Z" style="fill:#7667d6"/></g><g style="mask:url(#d)"><path d="M1996.5 697.5c-5.7-3.7-4.6-8.7-4.6-8.7-15.6-2.2-13-9.4-8.5-9-10.2-5.3-7.8-7.1-4.8-5.8.1 0 .2-.1.1-.2-3.2-3.7-1.6-4.9-.3-4 .6.4 1.1 1.2 1.3 2.4 1.8-.9 3.3-1.1 4.3-.7 1.4.6 1.8 2.5.6 5.6.3-.1.6-.1.9-.2 2.7-.3 4.8 1 5.6 2.9.7 1.5.6 3.3-.5 4.8 4.4.9 4.7 3.1 3 4 3.6 2.2 3.6 6.7 2.9 8.9Z" style="fill:#b8aeff"/><path d="M1991.3 680c-.7.2-1.5.2-2.3.1-1.9-.4-3.3-1.6-3.3-3 2.7-.3 4.8 1.1 5.6 2.9ZM1984.2 671.7c-.3 1-1.6 1.8-3.1 1.8-1.8 0-3.2-1-3.2-2.2 0-.5.3-1 .7-1.4.6.4 1.1 1.2 1.3 2.4 1.7-.8 3.3-1.1 4.3-.6Z" style="fill:#e2dcfe"/><path d="M1998.4 709.5c-.2 0-.3-.1-.3-.3l-.1-.8q-2.4-16.1-11.3-26.8c-1.8-2.2-4.1-4.8-6.7-8.2-.1-.1-.1-.3 0-.5.1-.1.3-.1.5 0 2.7 3.3 4.9 6 6.7 8.2q9 10.8 11.5 27.1l.1.8c0 .3-.1.4-.4.5q.1 0 0 0Z" style="fill:#5d4dc4"/><path d="M2007.4 678.5c.2 4.2.5 8.4 1.5 12.4.2.8.5 1.7.8 2.4.4 1.1 1.1 2.1 2 2.9.5.5 1.1.9 1.6 1.4s1 1.1 1.4 1.7c1.1 1.8 1.7 4 2.1 6 .3 1.4.5 2.8.7 4.2l-.8.1-.3-2.1c-.3-2-.7-4.1-1.5-6-.5-1.3-1.2-2.4-2.2-3.4-.5-.5-1-.9-1.6-1.4-.5-.5-1-1.1-1.4-1.7l-.3-.5c-.1-.2-.3-.6-.4-.7-.1-.2-.2-.6-.3-.8-.2-.6-.5-1.4-.6-2-1-4.1-1.2-8.4-1.4-12.6l.7.1Z" style="fill:#3f328f"/><path d="m2008.4 690.1-.3-.6c2.5-1.1 2.5-2.3 1.7-11.4-.1-1-.2-2-.3-3.2l.6-.1c.1 1.1.2 2.2.3 3.2.8 8.9 1 10.8-2 12.1ZM2007.3 683.1c-2.6-.1-3.4-2.5-4-6.3l.6-.1c.7 5.2 2.1 5.7 3.3 5.7l.1.7Z" style="fill:#3f328f"/><path d="M2010.6 684.5v-.6c2.1-.2 2.2-1.3 1.9-6.1v-.5h.6v.5c.3 4.5.3 6.5-2.5 6.7ZM2016.4 691c-1.7-.8-2.7-1.5-2.6-7.6h.6c-.1 5.9.9 6.4 2.2 7l-.2.6Z" style="fill:#3f328f"/><path d="M2012.9 697.5h-.6l.3-4.1.2-.1c.1 0 .3-.1.4-.1 2.1-.5 4.1-1 3.1-7.6l.6-.1c1 6.7-.8 7.7-3.5 8.4h-.2l-.3 3.6ZM2008.9 692.7c-3.1-.5-3.8-2.6-4.4-4.5-.6-2-1.1-3.6-4.4-3.2l-.1-.6c3.8-.5 4.5 1.6 5.1 3.7.6 1.9 1.1 3.6 3.9 4l-.1.6Z" style="fill:#3f328f"/><path d="m2002.15 680.7-.59.12.93 4.4.58-.12-.92-4.4ZM2014.7 700.8c-4.9 0-5.7-1.3-7.9-5.1-.3-.5-.7-1.1-1-1.8l.6-.3c.4.7.7 1.2 1 1.8 2.2 3.8 2.8 4.8 7.4 4.8l-.1.6q.1 0 0 0ZM2015.8 703.5c3.5-1.6 3.7-5.3 3.9-8.8l.2-3.5h.7l-.2 3.5c-.2 2.4-.2 4.9-1.5 7-.6 1.1-1.7 1.9-2.8 2.4l-.3-.6Z" style="fill:#3f328f"/><path d="m2019.5 699.2-.1-.1c-1.6-.7-2.4-1.4-2.1-5.8h.6c-.3 4.2.5 4.5 1.7 5.1l.1.1-.2.7ZM2014.5 709.6c-.4-2.2-2.6-3.3-4.5-4.1-2.1-.9-4.2-1.8-6-3.3-1.2-1-2.1-2.3-2.8-3.7l.6-.3c.6 1.3 1.5 2.5 2.6 3.4 1.7 1.4 3.8 2.3 5.8 3.2 2.1.9 4.5 2.1 5 4.7l-.7.1Z" style="fill:#3f328f"/><path d="m2005.4 702.8-.5-.4c1.5-1.9 1-2.7-3.7-8.8l-.1-.1.5-.4.1.1c4.6 6 5.6 7.2 3.7 9.6ZM2011.9 705.8c-1.9 3.3-4.6 2.2-7.1.4l-2.1-1.5.4-.5 2.1 1.5c2.2 1.5 4.5 2.6 6.1-.2l.6.3Z" style="fill:#3f328f"/><path d="M2002.9 694c1.6-.7 2.8-1.5 2.6-1.9-.1-.3-1.6 0-3.2.7s-2.8 1.5-2.6 1.9c.2.2 1.6 0 3.2-.7ZM2003.5 698.8c1.9-.6 3.4-1.5 3.3-1.9-.1-.4-1.8-.2-3.7.4-1.9.6-3.4 1.5-3.3 1.9.1.5 1.7.3 3.7-.4Z" style="fill:#e2dcfe"/><path d="M2003 701.9c1.4-.4 2.4-1 2.3-1.3-.1-.3-1.3-.2-2.6.3-1.4.4-2.4 1-2.3 1.3 0 .2 1.2.1 2.6-.3Z" style="fill:#b8aeff"/><path d="M2003.4 705.4c1-.4 1.7-1 1.6-1.4-.1-.3-1.1-.3-2.1.1s-1.7 1-1.6 1.4c.2.4 1.1.4 2.1-.1ZM2018.7 686.2c1.8-.1 3.3-.5 3.3-.9s-1.5-.6-3.4-.5c-1.8.1-3.3.5-3.3.9s1.5.6 3.4.5Z" style="fill:#e2dcfe"/><path d="M2015.2 684c1-.1 1.9-.4 1.8-.7 0-.4-.9-.6-1.9-.5-1 .1-1.9.4-1.8.7 0 .3.9.6 1.9.5Z" style="fill:#b8aeff"/><path d="M2014.3 677.6c1.4-.1 2.6-.4 2.5-.7 0-.3-1.2-.5-2.6-.4-1.4.1-2.6.4-2.5.7 0 .3 1.2.5 2.6.4Z" style="fill:#e2dcfe"/><path d="M2009.4 675.5c1.5-.1 2.6-.4 2.6-.7s-1.2-.5-2.7-.4c-1.5.1-2.6.4-2.6.7 0 .2 1.2.4 2.7.4Z" style="fill:#b8aeff"/><path d="M2003.7 677.4c1.3-.2 2.4-.5 2.4-.8s-1.1-.4-2.5-.2c-1.3.2-2.4.5-2.4.8.1.3 1.2.4 2.5.2ZM2007.9 679.5c1.2-.1 2.2-.4 2.1-.9s-1-.7-2.2-.6c-1.2.1-2.2.4-2.1.9 0 .4 1 .7 2.2.6Z" style="fill:#e2dcfe"/><path d="M2001.3 681.4c1.4-.3 2.5-.7 2.5-1-.1-.3-1.3-.3-2.7-.1-1.4.3-2.5.7-2.5 1s1.2.4 2.7.1Z" style="fill:#b8aeff"/><path d="M2000.7 684.9c.3-1.1.4-2 .1-2.1-.3-.1-.8.7-1.1 1.7-.3 1.1-.4 2-.1 2.1.3.2.8-.6 1.1-1.7ZM2005.3 687.3c1.3-.3 2.2-.9 2.1-1.4-.1-.4-1.2-.5-2.5-.2s-2.2.9-2.1 1.4c.1.4 1.2.5 2.5.2Z" style="fill:#e2dcfe"/><path d="M2013.7 686.7c0-.4-1-.8-2.2-.9-1.2-.1-2.3.2-2.3.6s1 .8 2.2.9c1.3.1 2.3-.2 2.3-.6ZM2009.8 695.5c1.5-.5 2.7-1.2 2.6-1.5s-1.4-.2-3 .3c-1.5.5-2.7 1.2-2.6 1.5.1.4 1.4.2 3-.3Z" style="fill:#b8aeff"/><path d="M2006.4 694.4c1-.3 1.7-.8 1.6-1.2-.1-.3-1-.3-2 0s-1.7.8-1.6 1.2c.2.3 1.1.3 2 0Z" style="fill:#e2dcfe"/><path d="M2010.7 704.3c1.4-.7 2.3-1.7 2.1-2.1-.2-.5-1.6-.2-2.9.5-1.3.7-2.3 1.7-2.1 2.1.1.5 1.5.3 2.9-.5Z" style="fill:#b8aeff"/><path d="M2014.7 698.4c1.7-.6 2.9-1.4 2.8-1.7s-1.6-.1-3.2.5c-1.7.6-2.9 1.4-2.8 1.7 0 .3 1.5.1 3.2-.5ZM2022 691.6c1.8-.1 3.3-.5 3.3-.8 0-.4-1.5-.6-3.3-.5-1.8.1-3.3.5-3.3.8s1.5.6 3.3.5Z" style="fill:#e2dcfe"/><path d="M2020.5 693.8c0-.3-.9-.7-2-.8-1.2-.1-2.1.1-2.2.4 0 .3.9.7 2 .8 1.2.1 2.2-.1 2.2-.4Z" style="fill:#b8aeff"/><path d="M1988.3 707.1c3.7 1 1.7 2.5 1.7 2.5h-19c1.3-1.8 1.7-2.9 7-2.9s10.3.4 10.3.4Z" style="fill:#46379e"/><path d="M1994.1 703c-.1.2-2.2 1.3-4.1 2.8-.7.6-1.4 1.2-2 1.8-2.7 1.2-5.1.4-5.1.4-1.3.9-3.3.3-3.3.3-1.7 1.6-3.2.8-5.3-.2-.3-.1-.5-.3-.8-.4-2.6-1.2-6.1-2.6-6.1-2.6.4-1.5 1.6-2.8 1.6-2.8l-1.4-1.2c1.1-1.9 3-3 3-3l.8.4.9-1-1.5-1.7c1.5-2.1 4-2.8 4-2.8l1.7 2.2c1.1-.6 2.2-.9 3.1-1.1 2-.4 3.3-.2 3.3-.2l.1 1.5s1.6-.5 3.4.1c.2.1.4.3.3.5-.2 1-.4 1.8-.4 1.8 2.7.2 4.5 1.1 4.3 1.6-.1.2-.2.5-.4.9-.2.6-.5 1.2-.5 1.2 3.9.3 4.5 1.2 4.4 1.5Z" style="fill:#b8aeff"/><path d="M1990 705.8c-.7.6-1.4 1.2-2 1.8-2.7 1.2-5.1.4-5.1.4-1.3.9-3.3.3-3.3.3-1.7 1.6-3.2.8-5.3-.2 1.2.1 3.1-.1 4.3-1.6l-.5-1s1.1-1.1 2-1l.2 2.2s1.2-3.8 6.1.8c0-.1 1.6-3.6 3.6-1.7Z" style="fill:#8d7cf7"/><path d="M1990.7 699.5c-.1.2-.2.5-.4.9-.6.4-1.2.7-2 1-4.6 1.4-9.2-2.5-8.8-7.2 2-.4 3.3-.2 3.3-.2l.1 1.5s1.6-.5 3.4.1c.2.1.4.3.3.5-.2 1-.4 1.8-.4 1.8 3 .2 4.8 1.1 4.5 1.6Z" style="fill:#dad3fe"/><path d="m1989.3 701.9-.72 1.54.54.25.72-1.54-.54-.25ZM1980 707.6c0-.2-.5-5.6-.5-6.6 0-.3.3-.6.8-.9 1.3-.6 4.5-1.1 5.2-.5.2.1.2.3.2.5-.2.9-.9 5.1-.9 5.1l-.6-.1c0-.2.6-4 .9-5.1-.4-.2-2-.1-3.5.3-1.1.3-1.4.6-1.4.6 0 1 .5 6.4.5 6.5l-.7.2ZM1979 708l-3-6.3c-2.7.5-4.1 1.7-4.1 2 .5.5 3.1 3.4 3.2 3.5l-.5.4s-2.6-3-3.2-3.5c-.2-.2-.2-.4-.1-.7.3-.9 2.2-2.1 4.8-2.5h.2l3.2 6.7-.5.4ZM1968.79 701.86l-.32.51 3.45 2.21.33-.51-3.46-2.21ZM1971.47 698.24l-.34.49 2.8 1.93.34-.49-2.8-1.93Z" style="fill:#7667d6"/><path d="m1974.5 701.8-1-1.2.1-.2c.9-1.8 4.3-2.6 4.7-2.6 1.2-.2 1.4-.1 1.5 0 .2.2.4 1.2.6 3l-.6.1c-.1-1-.2-2.2-.4-2.5-.7-.1-4.2.8-5.1 2.2l.8.9-.6.3ZM1979.97 702.46l-2.64.93.2.57 2.64-.93-.2-.57ZM1982.4 700h-.6c.1-1.8.2-3.8.2-4 0-.1 0-.2.1-.3.2-.3.8-.4 1.1-.5l.1.6c-.3 0-.5.1-.6.2-.1.6-.3 2.7-.3 4Z" style="fill:#7667d6"/><path d="m1978.1 698.2-2-3.1.3-.2c.1-.1 2.9-1.8 6.6-1.3l-.1.6c-2.8-.3-5.1.7-5.9 1.1l1.6 2.6-.5.3ZM1975.8 699s-.7-1.1-1.2-2c-.1-.1-.2-.4-.3-.4-.2 0-.9.5-1.8 1.1l-.4-.5c1.4-1 1.9-1.4 2.4-1.2.3.1.5.4.7.8.4.9 1.1 1.9 1.1 1.9l-.5.3Z" style="fill:#7667d6"/><path d="M1979.6 698c.4.6-5.4 2.8-5.7 2.5-.8-.6 5.3-3.1 5.7-2.5ZM1985.4 700.2c0 1-5.3 1.6-5.6.9-.2-.8 5.6-2.1 5.6-.9ZM1972 704.3c-.2 0-.3 0-.4-.1l.3-.6c.3.1 1.4-.2 2.7-1 1-.6 1.4-1.1 1.4-1.2l.6-.2c.1.4-.2.8-.7 1.3-1 .7-2.9 1.8-3.9 1.8ZM1970.6 698c0 1.1-2.4 3.2-3 3 1.1-1.9 3-3 3-3ZM1974.9 693c0 .6-3.8 3.2-4 2.8 1.4-2.1 4-2.8 4-2.8ZM1990.7 699.5c-.4.5-7.9-1.7-4.3-1.6 2.8.2 4.6 1.1 4.3 1.6Z" style="fill:#7667d6"/><path d="m1985.47 697.88-.66 1.67.55.22.67-1.67-.56-.22ZM1980.7 703.6h-.7l.1-.6s2.6.2 4.9-.9l.3.6c-1.8.8-3.7.9-4.6.9ZM1969.9 703l-.4-.5s2.1-1.5 2.7-3.4l.6.2c-.7 2.1-2.8 3.7-2.9 3.7Z" style="fill:#7667d6"/><path d="m1988.3 707.1-.6-.3 1.4-3c-.4-.3-2.4-.6-4.2-.7v-.6c1.6.1 4.4.4 4.8 1.1.1.2.1.3 0 .5l-1.4 3Z" style="fill:#7667d6"/></g></svg>