<svg enable-background="new 0 0 1628.3 800.9" version="1.1" viewBox="0 0 1628 800.9" xmlns="http://www.w3.org/2000/svg">
 <style type="text/css">.st0{fill:#242526;}
	.st1{fill:#FFFFFF;}
	.st2{fill:#BC83FB;}</style>
 <rect class="st0" y="2" width="1628" height="800.9"/>
 <path class="st1" d="m386 280.4c-2.4 0-4.2-1-5.6-2.9s-2-4.7-2-8.2c0-3.6 0.7-6.3 2-8.2 1.4-1.9 3.2-2.8 5.6-2.8s4.2 0.9 5.6 2.8 2 4.6 2 8.2c0 3.5-0.7 6.3-2 8.2s-3.2 2.9-5.6 2.9zm0-2.2c1.5 0 2.7-0.7 3.6-2.2 0.9-1.4 1.4-3.7 1.4-6.7 0-3.1-0.5-5.3-1.4-6.7s-2.2-2.1-3.6-2.1c-1.5 0-2.7 0.7-3.6 2.1s-1.4 3.6-1.4 6.7c0 3 0.5 5.3 1.4 6.7s2.1 2.2 3.6 2.2zm0-6.9c-0.6 0-1-0.2-1.4-0.6s-0.6-0.9-0.6-1.6 0.2-1.2 0.6-1.6 0.9-0.6 1.4-0.6c0.6 0 1 0.2 1.4 0.6s0.6 0.9 0.6 1.6-0.2 1.2-0.6 1.6c-0.3 0.4-0.8 0.6-1.4 0.6z"/>
 <path class="st1" d="m398.1 280 6.2-8.4-5.7-7.8h3l2.6 3.6c0.3 0.4 0.6 0.9 0.9 1.3 0.3 0.5 0.6 0.9 1 1.4h0.1c0.3-0.4 0.6-0.9 0.9-1.4s0.6-1 0.9-1.4l2.4-3.5h2.9l-5.8 8 6.2 8.2h-3l-2.8-3.7c-0.3-0.5-0.7-1-1-1.5-0.4-0.5-0.7-1-1.1-1.5h-0.1c-0.3 0.5-0.7 1-1 1.4-0.3 0.5-0.7 1-1 1.5l-2.6 3.8h-3z"/>
 <path class="st1" d="m425.9 280.4c-2.4 0-4.2-1-5.6-2.9s-2-4.7-2-8.2c0-3.6 0.7-6.3 2-8.2 1.4-1.9 3.2-2.8 5.6-2.8s4.2 0.9 5.6 2.8 2 4.6 2 8.2c0 3.5-0.7 6.3-2 8.2s-3.2 2.9-5.6 2.9zm0-2.2c1.5 0 2.7-0.7 3.6-2.2 0.9-1.4 1.4-3.7 1.4-6.7 0-3.1-0.5-5.3-1.4-6.7s-2.2-2.1-3.6-2.1c-1.5 0-2.7 0.7-3.6 2.1s-1.4 3.6-1.4 6.7c0 3 0.5 5.3 1.4 6.7s2.2 2.2 3.6 2.2zm0-6.9c-0.6 0-1-0.2-1.4-0.6s-0.6-0.9-0.6-1.6 0.2-1.2 0.6-1.6 0.9-0.6 1.4-0.6c0.6 0 1 0.2 1.4 0.6s0.6 0.9 0.6 1.6-0.2 1.2-0.6 1.6c-0.3 0.4-0.8 0.6-1.4 0.6z"/>
 <path class="st1" d="m445.9 280.4c-2.4 0-4.2-1-5.6-2.9s-2-4.7-2-8.2c0-3.6 0.7-6.3 2-8.2 1.4-1.9 3.2-2.8 5.6-2.8s4.2 0.9 5.6 2.8 2 4.6 2 8.2c0 3.5-0.7 6.3-2 8.2s-3.2 2.9-5.6 2.9zm0-2.2c1.5 0 2.7-0.7 3.6-2.2 0.9-1.4 1.4-3.7 1.4-6.7 0-3.1-0.5-5.3-1.4-6.7s-2.2-2.1-3.6-2.1c-1.5 0-2.7 0.7-3.6 2.1s-1.4 3.6-1.4 6.7c0 3 0.5 5.3 1.4 6.7s2.1 2.2 3.6 2.2zm0-6.9c-0.6 0-1-0.2-1.4-0.6s-0.6-0.9-0.6-1.6 0.2-1.2 0.6-1.6 0.9-0.6 1.4-0.6c0.6 0 1 0.2 1.4 0.6s0.6 0.9 0.6 1.6-0.2 1.2-0.6 1.6c-0.3 0.4-0.8 0.6-1.4 0.6z"/>
 <path class="st1" d="m465.9 280.4c-2.4 0-4.2-1-5.6-2.9s-2-4.7-2-8.2c0-3.6 0.7-6.3 2-8.2 1.4-1.9 3.2-2.8 5.6-2.8s4.2 0.9 5.6 2.8 2 4.6 2 8.2c0 3.5-0.7 6.3-2 8.2-1.4 1.9-3.2 2.9-5.6 2.9zm0-2.2c1.5 0 2.7-0.7 3.6-2.2 0.9-1.4 1.4-3.7 1.4-6.7 0-3.1-0.5-5.3-1.4-6.7s-2.2-2.1-3.6-2.1c-1.5 0-2.7 0.7-3.6 2.1s-1.4 3.6-1.4 6.7c0 3 0.5 5.3 1.4 6.7s2.1 2.2 3.6 2.2zm0-6.9c-0.6 0-1-0.2-1.4-0.6s-0.6-0.9-0.6-1.6 0.2-1.2 0.6-1.6 0.9-0.6 1.4-0.6c0.6 0 1 0.2 1.4 0.6s0.6 0.9 0.6 1.6-0.2 1.2-0.6 1.6-0.9 0.6-1.4 0.6z"/>
 <path class="st1" d="m485.9 280.4c-2.4 0-4.2-1-5.6-2.9s-2-4.7-2-8.2c0-3.6 0.7-6.3 2-8.2 1.4-1.9 3.2-2.8 5.6-2.8s4.2 0.9 5.6 2.8 2 4.6 2 8.2c0 3.5-0.7 6.3-2 8.2-1.4 1.9-3.3 2.9-5.6 2.9zm0-2.2c1.5 0 2.7-0.7 3.6-2.2 0.9-1.4 1.4-3.7 1.4-6.7 0-3.1-0.5-5.3-1.4-6.7s-2.2-2.1-3.6-2.1c-1.5 0-2.7 0.7-3.6 2.1s-1.4 3.6-1.4 6.7c0 3 0.5 5.3 1.4 6.7s2.1 2.2 3.6 2.2zm0-6.9c-0.6 0-1-0.2-1.4-0.6s-0.6-0.9-0.6-1.6 0.2-1.2 0.6-1.6 0.9-0.6 1.4-0.6c0.6 0 1 0.2 1.4 0.6s0.6 0.9 0.6 1.6-0.2 1.2-0.6 1.6-0.9 0.6-1.4 0.6z"/>
 <path class="st1" d="m505.8 280.4c-2.4 0-4.2-1-5.6-2.9s-2-4.7-2-8.2c0-3.6 0.7-6.3 2-8.2 1.4-1.9 3.2-2.8 5.6-2.8s4.2 0.9 5.6 2.8 2 4.6 2 8.2c0 3.5-0.7 6.3-2 8.2s-3.2 2.9-5.6 2.9zm0-2.2c1.5 0 2.7-0.7 3.6-2.2 0.9-1.4 1.4-3.7 1.4-6.7 0-3.1-0.5-5.3-1.4-6.7s-2.2-2.1-3.6-2.1c-1.5 0-2.7 0.7-3.6 2.1s-1.4 3.6-1.4 6.7c0 3 0.5 5.3 1.4 6.7s2.1 2.2 3.6 2.2zm0-6.9c-0.6 0-1-0.2-1.4-0.6s-0.6-0.9-0.6-1.6 0.2-1.2 0.6-1.6 0.9-0.6 1.4-0.6c0.6 0 1 0.2 1.4 0.6s0.6 0.9 0.6 1.6-0.2 1.2-0.6 1.6c-0.3 0.4-0.8 0.6-1.4 0.6z"/>
 <path class="st1" d="m525.8 280.4c-2.4 0-4.2-1-5.6-2.9s-2-4.7-2-8.2c0-3.6 0.7-6.3 2-8.2 1.4-1.9 3.2-2.8 5.6-2.8s4.2 0.9 5.6 2.8 2 4.6 2 8.2c0 3.5-0.7 6.3-2 8.2-1.4 1.9-3.2 2.9-5.6 2.9zm0-2.2c1.5 0 2.7-0.7 3.6-2.2 0.9-1.4 1.4-3.7 1.4-6.7 0-3.1-0.5-5.3-1.4-6.7s-2.2-2.1-3.6-2.1c-1.5 0-2.7 0.7-3.6 2.1s-1.4 3.6-1.4 6.7c0 3 0.5 5.3 1.4 6.7s2.1 2.2 3.6 2.2zm0-6.9c-0.6 0-1-0.2-1.4-0.6s-0.6-0.9-0.6-1.6 0.2-1.2 0.6-1.6 0.9-0.6 1.4-0.6c0.6 0 1 0.2 1.4 0.6s0.6 0.9 0.6 1.6-0.2 1.2-0.6 1.6-0.9 0.6-1.4 0.6z"/>
 <path class="st1" d="m545.8 280.4c-2.4 0-4.2-1-5.6-2.9s-2-4.7-2-8.2c0-3.6 0.7-6.3 2-8.2 1.4-1.9 3.2-2.8 5.6-2.8s4.2 0.9 5.6 2.8 2 4.6 2 8.2c0 3.5-0.7 6.3-2 8.2-1.4 1.9-3.3 2.9-5.6 2.9zm0-2.2c1.5 0 2.7-0.7 3.6-2.2 0.9-1.4 1.4-3.7 1.4-6.7 0-3.1-0.5-5.3-1.4-6.7s-2.2-2.1-3.6-2.1c-1.5 0-2.7 0.7-3.6 2.1s-1.4 3.6-1.4 6.7c0 3 0.5 5.3 1.4 6.7s2.1 2.2 3.6 2.2zm0-6.9c-0.6 0-1-0.2-1.4-0.6s-0.6-0.9-0.6-1.6 0.2-1.2 0.6-1.6 0.9-0.6 1.4-0.6c0.6 0 1 0.2 1.4 0.6s0.6 0.9 0.6 1.6-0.2 1.2-0.6 1.6-0.9 0.6-1.4 0.6z"/>
 <path class="st1" d="m565.7 280.4c-2.4 0-4.2-1-5.6-2.9s-2-4.7-2-8.2c0-3.6 0.7-6.3 2-8.2 1.4-1.9 3.2-2.8 5.6-2.8s4.2 0.9 5.6 2.8 2 4.6 2 8.2c0 3.5-0.7 6.3-2 8.2s-3.2 2.9-5.6 2.9zm0-2.2c1.5 0 2.7-0.7 3.6-2.2 0.9-1.4 1.4-3.7 1.4-6.7 0-3.1-0.5-5.3-1.4-6.7s-2.2-2.1-3.6-2.1c-1.5 0-2.7 0.7-3.6 2.1s-1.4 3.6-1.4 6.7c0 3 0.5 5.3 1.4 6.7s2.1 2.2 3.6 2.2zm0-6.9c-0.6 0-1-0.2-1.4-0.6s-0.6-0.9-0.6-1.6 0.2-1.2 0.6-1.6 0.9-0.6 1.4-0.6c0.6 0 1 0.2 1.4 0.6s0.6 0.9 0.6 1.6-0.2 1.2-0.6 1.6c-0.3 0.4-0.8 0.6-1.4 0.6z"/>
 <path class="st1" d="m386 626.4c-2.4 0-4.2-1-5.6-2.9s-2-4.7-2-8.2c0-3.6 0.7-6.3 2-8.2 1.4-1.9 3.2-2.8 5.6-2.8s4.2 0.9 5.6 2.8 2 4.6 2 8.2c0 3.5-0.7 6.3-2 8.2s-3.2 2.9-5.6 2.9zm0-2.2c1.5 0 2.7-0.7 3.6-2.2s1.4-3.7 1.4-6.7c0-3.1-0.5-5.3-1.4-6.7s-2.2-2.1-3.6-2.1c-1.5 0-2.7 0.7-3.6 2.1s-1.4 3.6-1.4 6.7c0 3 0.5 5.3 1.4 6.7s2.1 2.2 3.6 2.2zm0-6.9c-0.6 0-1-0.2-1.4-0.6s-0.6-0.9-0.6-1.6 0.2-1.2 0.6-1.6 0.9-0.6 1.4-0.6c0.6 0 1 0.2 1.4 0.6s0.6 0.9 0.6 1.6-0.2 1.2-0.6 1.6c-0.3 0.4-0.8 0.6-1.4 0.6z"/>
 <path class="st1" d="m398.1 626 6.2-8.4-5.7-7.8h3l2.6 3.6c0.3 0.4 0.6 0.9 0.9 1.3 0.3 0.5 0.6 0.9 1 1.4h0.1c0.3-0.4 0.6-0.9 0.9-1.4s0.6-1 0.9-1.4l2.4-3.5h2.9l-5.8 8 6.2 8.2h-3l-2.8-3.7c-0.3-0.5-0.7-1-1-1.5-0.4-0.5-0.7-1-1.1-1.5h-0.1c-0.3 0.5-0.7 1-1 1.4-0.3 0.5-0.7 1-1 1.5l-2.6 3.8h-3z"/>
 <path class="st1" d="m419.2 626v-2.3h6.1v-15.6h-4.8v-1.8c1.2-0.2 2.3-0.4 3.1-0.6 0.9-0.3 1.6-0.6 2.3-0.9h2v19h5.6v2.3h-14.3v-0.1z"/>
 <path class="st1" d="m438.4 626v-1.6c2.4-2.1 4.4-4 6.1-5.6s2.9-3 3.8-4.3 1.3-2.5 1.3-3.7-0.4-2.2-1.1-3c-0.8-0.8-1.9-1.2-3.5-1.2-1 0-1.9 0.2-2.8 0.7s-1.6 1.1-2.3 1.8l-1.6-1.6c1-1 2-1.8 3.1-2.3 1.1-0.6 2.4-0.9 3.9-0.9 2.1 0 3.8 0.6 5.1 1.7 1.2 1.1 1.9 2.7 1.9 4.5 0 1.3-0.4 2.7-1.2 4-0.8 1.4-2 2.8-3.4 4.3-1.5 1.5-3.2 3.1-5.1 4.9 0.7 0 1.3-0.1 2-0.1s1.3-0.1 1.9-0.1h7v2.4l-15.1 0.1z"/>
 <path class="st1" d="m465.5 626.4c-1.8 0-3.4-0.3-4.6-0.9-1.3-0.6-2.3-1.3-3-2.1l1.4-1.8c0.7 0.7 1.6 1.3 2.6 1.8s2.2 0.8 3.5 0.8c1.4 0 2.7-0.4 3.6-1.1 1-0.7 1.5-1.7 1.5-2.8 0-1.3-0.6-2.3-1.8-3.1s-3.2-1.2-6-1.2v-2.1c2.5 0 4.3-0.4 5.4-1.1 1.1-0.8 1.6-1.7 1.6-2.8 0-1-0.4-1.9-1.2-2.5s-1.8-0.9-3.1-0.9c-1 0-1.9 0.2-2.8 0.6s-1.7 0.9-2.4 1.6l-1.5-1.7c0.9-0.8 1.9-1.4 3-1.9s2.4-0.7 3.7-0.7 2.5 0.2 3.6 0.6 1.9 1 2.5 1.8 0.9 1.8 0.9 2.9c0 1.3-0.4 2.3-1.3 3.2-0.9 0.8-1.9 1.5-3.2 1.9v0.1c1 0.2 1.8 0.5 2.6 1s1.4 1.1 1.9 1.8 0.7 1.6 0.7 2.6c0 1.2-0.3 2.3-1 3.2s-1.6 1.6-2.8 2.1c-1.1 0.4-2.4 0.7-3.8 0.7z"/>
 <path class="st1" d="m488.1 626v-5.9h-10.9v-1.8l10.6-13.5h2.9v13.2h3.3v2.2h-3.3v5.9h-2.6v-0.1zm-7.9-8.1h7.9v-6.6c0-0.6 0-1.2 0.1-1.9 0-0.7 0.1-1.3 0.1-1.9h-0.2c-0.3 0.5-0.7 1-1.1 1.5s-0.7 1-1.1 1.5l-5.7 7.4z"/>
 <path class="st1" d="m505.4 626.4c-1.9 0-3.4-0.3-4.6-0.9s-2.2-1.3-3-2l1.4-1.8c0.7 0.6 1.5 1.2 2.5 1.7 0.9 0.5 2.1 0.7 3.5 0.7 1 0 1.9-0.2 2.7-0.6s1.5-1 1.9-1.7c0.5-0.7 0.7-1.6 0.7-2.6 0-1.5-0.5-2.6-1.4-3.4-1-0.8-2.2-1.2-3.8-1.2-0.9 0-1.6 0.1-2.3 0.3-0.6 0.2-1.3 0.5-2.1 1l-1.5-0.9 0.7-10.2h12v2.4h-9.6l-0.6 6.3c0.6-0.3 1.2-0.5 1.8-0.6s1.3-0.2 2.1-0.2c1.4 0 2.6 0.2 3.7 0.7s2 1.2 2.6 2.2c0.7 1 1 2.2 1 3.8 0 1.5-0.4 2.8-1.1 3.9s-1.7 1.9-2.9 2.4c-1.1 0.4-2.4 0.7-3.7 0.7z"/>
 <path class="st1" d="m526.5 626.4c-1.5 0-2.9-0.4-4.1-1.1-1.2-0.8-2.2-1.9-2.9-3.4s-1.1-3.4-1.1-5.7c0-2.1 0.2-3.9 0.7-5.4s1.1-2.7 2-3.7 1.8-1.6 2.8-2.1c1.1-0.4 2.2-0.6 3.3-0.6 1.3 0 2.5 0.2 3.4 0.6s1.8 1 2.5 1.6l-1.5 1.7c-0.6-0.5-1.2-0.9-1.9-1.2s-1.5-0.4-2.3-0.4c-1.1 0-2.2 0.3-3.1 0.9s-1.8 1.5-2.4 2.8-0.9 3.1-1 5.4c0.9-0.8 1.8-1.5 2.9-2 1-0.5 2.1-0.7 3.2-0.7 2 0 3.6 0.5 4.8 1.6s1.8 2.7 1.8 4.9c0 1.4-0.3 2.5-1 3.6-0.7 1-1.5 1.8-2.6 2.4-1.1 0.5-2.2 0.8-3.5 0.8zm0-11.4c-0.8 0-1.7 0.2-2.7 0.7-1 0.4-1.9 1.2-2.7 2.2 0.2 2 0.8 3.6 1.7 4.7s2.2 1.6 3.7 1.6c1.3 0 2.3-0.4 3.2-1.3s1.3-2 1.3-3.4-0.4-2.6-1.2-3.3c-0.8-0.8-1.9-1.2-3.3-1.2z"/>
 <path class="st1" d="m543.3 626c0.1-2 0.3-3.9 0.6-5.5s0.7-3.2 1.3-4.7c0.5-1.5 1.2-2.9 2.1-4.3s1.9-2.9 3.1-4.3h-12.3v-2.4h15.4v1.7c-1.4 1.6-2.6 3.1-3.5 4.6s-1.6 3-2.2 4.5c-0.5 1.5-0.9 3.1-1.2 4.8s-0.4 3.6-0.5 5.7l-2.8-0.1z"/>
 <path class="st1" d="m565.8 626.4c-1.6 0-3-0.2-4.1-0.7-1.2-0.5-2.1-1.2-2.7-2.1s-0.9-1.9-0.9-3c0-1 0.2-1.8 0.7-2.5 0.4-0.7 1-1.3 1.7-1.8s1.4-0.9 2.2-1.3v-0.1c-0.9-0.6-1.6-1.2-2.3-2.1-0.6-0.8-0.9-1.8-0.9-2.9s0.3-2 0.8-2.9c0.6-0.8 1.3-1.5 2.3-1.9s2.1-0.7 3.4-0.7c2.1 0 3.7 0.5 4.9 1.6s1.7 2.4 1.7 4.1c0 1-0.3 1.9-0.9 2.8s-1.4 1.6-2.3 2.2v0.1c0.8 0.4 1.5 0.8 2.1 1.3s1.1 1 1.5 1.7 0.5 1.5 0.5 2.5-0.3 2-0.9 2.9-1.5 1.5-2.6 2c-1.2 0.5-2.6 0.8-4.2 0.8zm0.1-2.1c1.6 0 2.8-0.3 3.6-1 0.9-0.7 1.3-1.6 1.3-2.7 0-1-0.3-1.8-0.9-2.3s-1.4-1-2.4-1.4-2.1-0.8-3.4-1.2c-1 0.6-1.9 1.2-2.6 1.9s-1 1.6-1 2.7c0 1.2 0.5 2.1 1.5 2.9 0.9 0.8 2.2 1.1 3.9 1.1zm1.6-9.9c1.8-1.3 2.7-2.7 2.7-4.3 0-1-0.4-1.9-1.1-2.7-0.7-0.7-1.8-1.1-3.2-1.1-1.2 0-2.1 0.3-2.9 0.9s-1.1 1.5-1.1 2.5c0 0.8 0.2 1.5 0.7 2.1s1.2 1 2 1.4c0.9 0.5 1.8 0.9 2.9 1.2z"/>
 <path class="st1" d="m802.7 285c-2.1 0-3.6-0.3-4.6-0.9s-1.5-1.8-1.5-3.5c0-1.2 0-2.3 0.1-3.3s0.2-2 0.2-3.1c0-0.4-0.1-0.9-0.4-1.2-0.3-0.4-0.7-0.7-1.4-1s-1.7-0.4-3-0.4v-1.7c1.3 0 2.3-0.2 3-0.4s1.2-0.6 1.4-1c0.3-0.4 0.4-0.8 0.4-1.2 0-1 0-2.1-0.2-3.1-0.1-1-0.1-2.1-0.1-3.3 0-1.7 0.5-2.9 1.5-3.5s2.6-0.9 4.6-0.9h2v1.6h-1.7c-1.1 0-2 0.1-2.6 0.3s-1 0.5-1.2 1c-0.2 0.4-0.3 1-0.3 1.8 0 1 0 1.9 0.1 2.9s0.1 2 0.1 3.1-0.2 1.9-0.6 2.5-1.2 0.9-2.4 1.1v0.1c1.2 0.2 1.9 0.6 2.4 1.1s0.6 1.4 0.6 2.5 0 2.2-0.1 3.1-0.1 1.9-0.1 2.9c0 0.7 0.1 1.3 0.3 1.7s0.6 0.8 1.2 1 1.5 0.3 2.6 0.3h1.7v1.6h-2v-0.1z"/>
 <path class="st1" d="m876.1 320.3c-1 0-1.9-0.2-2.7-0.5-0.8-0.4-1.5-0.9-2-1.6s-0.7-1.5-0.7-2.5c0-1.2 0.4-2.2 1.2-3s2-1.5 3.8-1.9c1.7-0.5 4-0.8 6.8-1.1 0-0.7-0.2-1.4-0.4-2-0.3-0.6-0.7-1.1-1.3-1.5s-1.5-0.6-2.5-0.6-2.1 0.2-3 0.6c-1 0.4-1.9 0.8-2.6 1.3l-1.1-1.9c0.8-0.5 1.9-1.1 3.1-1.6 1.3-0.5 2.6-0.8 4-0.8 2.2 0 3.9 0.6 4.9 1.8 1.1 1.2 1.6 2.8 1.6 4.8v9.9h-2.2l-0.2-2.2h-0.1c-0.9 0.7-1.9 1.3-3 1.8s-2.5 1-3.6 1zm0.7-2.2c0.9 0 1.8-0.2 2.7-0.6s1.8-1 2.7-1.8v-4.3c-2.3 0.2-4.1 0.4-5.4 0.8s-2.3 0.8-2.8 1.4c-0.5 0.5-0.8 1.2-0.8 1.9 0 0.9 0.4 1.6 1.1 2s1.6 0.6 2.5 0.6z"/>
 <path class="st1" d="m897.9 308.4c-0.8 0-1.4-0.3-1.9-0.8s-0.8-1.2-0.8-2 0.3-1.5 0.8-2 1.2-0.8 1.9-0.8c0.8 0 1.4 0.3 1.9 0.8s0.8 1.2 0.8 2-0.3 1.5-0.8 2c-0.6 0.5-1.2 0.8-1.9 0.8zm0 11.9c-0.8 0-1.4-0.3-1.9-0.8s-0.8-1.2-0.8-2 0.3-1.5 0.8-2 1.2-0.8 1.9-0.8c0.8 0 1.4 0.3 1.9 0.8s0.8 1.2 0.8 2-0.3 1.5-0.8 2-1.2 0.8-1.9 0.8z"/>
 <path class="st1" d="m938.5 320.3c-0.8 0-1.6-0.2-2.5-0.6s-1.7-0.9-2.5-1.6h-0.1l-0.2 1.8h-2.2v-23.7h2.7v6.5l-0.1 3.1h0.1c0.7-0.8 1.6-1.4 2.5-1.8 1-0.4 1.9-0.7 2.9-0.7 2.2 0 3.8 0.7 5 2.2s1.7 3.5 1.7 6c0 1.8-0.3 3.4-1 4.7s-1.6 2.3-2.7 3c-1.2 0.8-2.4 1.1-3.6 1.1zm-0.5-2.3c1.4 0 2.6-0.6 3.5-1.7s1.4-2.7 1.4-4.7c0-1.8-0.4-3.2-1.1-4.3s-1.9-1.6-3.5-1.6c-0.7 0-1.5 0.2-2.3 0.6s-1.6 1-2.5 1.8v8.1c0.8 0.7 1.6 1.2 2.3 1.5 1 0.2 1.6 0.3 2.2 0.3z"/>
 <path class="st1" d="m957.8 320.3c-1.4 0-2.7-0.3-3.9-1s-2.2-1.6-2.9-2.9-1.1-2.8-1.1-4.6 0.4-3.4 1.1-4.6 1.7-2.2 2.9-2.9 2.5-1 3.9-1 2.7 0.3 3.9 1 2.2 1.6 2.9 2.9 1.1 2.8 1.1 4.6-0.4 3.3-1.1 4.6-1.7 2.2-2.9 2.9-2.5 1-3.9 1zm0-2.3c1.6 0 2.8-0.6 3.7-1.7s1.4-2.6 1.4-4.5-0.5-3.4-1.4-4.5c-0.9-1.2-2.2-1.7-3.7-1.7-1.6 0-2.8 0.6-3.7 1.7-0.9 1.2-1.4 2.7-1.4 4.5s0.5 3.3 1.4 4.5 2.1 1.7 3.7 1.7z"/>
 <path class="st1" d="m977.7 320.3c-1.4 0-2.7-0.3-3.9-1s-2.2-1.6-2.9-2.9-1.1-2.8-1.1-4.6 0.4-3.4 1.1-4.6 1.7-2.2 2.9-2.9 2.5-1 3.9-1 2.7 0.3 3.9 1 2.2 1.6 2.9 2.9 1.1 2.8 1.1 4.6-0.4 3.3-1.1 4.6-1.7 2.2-2.9 2.9c-1.1 0.7-2.5 1-3.9 1zm0-2.3c1.6 0 2.8-0.6 3.7-1.7s1.4-2.6 1.4-4.5-0.5-3.4-1.4-4.5c-0.9-1.2-2.2-1.7-3.7-1.7-1.6 0-2.8 0.6-3.7 1.7-0.9 1.2-1.4 2.7-1.4 4.5s0.5 3.3 1.4 4.5 2.2 1.7 3.7 1.7z"/>
 <path class="st1" d="m1001 320.3c-1.7 0-3-0.5-3.9-1.5s-1.4-2.4-1.4-4.3v-16h-5.8v-2.2h8.5v18.5c0 1.2 0.3 2 0.9 2.6 0.6 0.5 1.4 0.8 2.3 0.8s2-0.2 3-0.7l0.7 2c-0.8 0.3-1.4 0.5-2.1 0.7-0.6 0-1.4 0.1-2.2 0.1z"/>
 <path class="st1" d="m1015 327-0.8-1.7c1.4-0.6 2.4-1.4 3.1-2.3s1.1-2 1.1-3.3h-0.3s-0.2 0-0.3 0c-0.7 0-1.3-0.2-1.8-0.6s-0.8-1-0.8-1.9 0.3-1.4 0.8-1.9c0.5-0.4 1.2-0.6 1.9-0.6 1 0 1.7 0.4 2.2 1.1s0.8 1.8 0.8 3.1c0 2-0.5 3.6-1.5 4.9-1.1 1.5-2.6 2.5-4.4 3.2z"/>
 <path class="st1" d="m878.6 360.2c-0.8 0-1.6-0.2-2.5-0.6s-1.7-0.9-2.5-1.6h-0.1l-0.2 1.8h-2.2v-23.7h2.7v6.5l-0.1 3.1h0.1c0.7-0.8 1.6-1.4 2.5-1.8 1-0.4 1.9-0.7 2.9-0.7 2.2 0 3.8 0.7 5 2.2s1.7 3.5 1.7 6c0 1.8-0.3 3.4-1 4.7s-1.6 2.3-2.7 3c-1.2 0.8-2.4 1.1-3.6 1.1zm-0.5-2.3c1.4 0 2.6-0.6 3.5-1.7s1.4-2.7 1.4-4.7c0-1.8-0.4-3.2-1.1-4.3s-1.9-1.6-3.5-1.6c-0.7 0-1.5 0.2-2.3 0.6s-1.6 1-2.5 1.8v8.1c0.8 0.7 1.6 1.2 2.3 1.5 1 0.2 1.6 0.3 2.2 0.3z"/>
 <path class="st1" d="m897.9 348.3c-0.8 0-1.4-0.3-1.9-0.8s-0.8-1.2-0.8-2 0.3-1.5 0.8-2 1.2-0.8 1.9-0.8c0.8 0 1.4 0.3 1.9 0.8s0.8 1.2 0.8 2-0.3 1.5-0.8 2c-0.6 0.6-1.2 0.8-1.9 0.8zm0 11.9c-0.8 0-1.4-0.3-1.9-0.8s-0.8-1.2-0.8-2 0.3-1.5 0.8-2 1.2-0.8 1.9-0.8c0.8 0 1.4 0.3 1.9 0.8s0.8 1.2 0.8 2-0.3 1.5-0.8 2-1.2 0.8-1.9 0.8z"/>
 <path class="st1" d="m936 360.2c-1.9 0-3.3-0.6-4.3-1.7-0.9-1.1-1.4-2.7-1.4-4.9v-10.1h2.8v9.7c0 1.5 0.3 2.7 0.8 3.4 0.6 0.7 1.5 1.1 2.9 1.1 0.9 0 1.8-0.2 2.5-0.7 0.8-0.5 1.6-1.2 2.5-2.3v-11.2h2.7v16.2h-2.2l-0.2-2.7h-0.1c-0.8 1-1.7 1.7-2.7 2.3s-2.1 0.9-3.3 0.9z"/>
 <path class="st1" d="m957.3 360.2c-1.8 0-3.4-0.3-4.6-0.9-1.3-0.6-2.3-1.3-3-2.1l1.4-1.8c0.7 0.7 1.6 1.3 2.6 1.8s2.2 0.8 3.5 0.8c1.4 0 2.7-0.4 3.6-1.1 1-0.7 1.5-1.7 1.5-2.8 0-1.3-0.6-2.3-1.8-3.1s-3.2-1.2-6-1.2v-2.1c2.5 0 4.3-0.4 5.4-1.1 1.1-0.8 1.6-1.7 1.6-2.8 0-1-0.4-1.9-1.2-2.5s-1.8-0.9-3.1-0.9c-1 0-1.9 0.2-2.8 0.6s-1.7 0.9-2.4 1.6l-1.5-1.7c0.9-0.8 1.9-1.4 3-1.9s2.4-0.7 3.7-0.7 2.5 0.2 3.6 0.6 1.9 1 2.5 1.8 0.9 1.8 0.9 2.9c0 1.3-0.4 2.3-1.3 3.2-0.9 0.8-1.9 1.5-3.2 1.9v0.1c1 0.2 1.8 0.5 2.6 1s1.4 1.1 1.9 1.8 0.7 1.6 0.7 2.6c0 1.2-0.3 2.3-1 3.2s-1.6 1.6-2.8 2.1c-1.1 0.5-2.4 0.7-3.8 0.7z"/>
 <path class="st1" d="m970.2 359.8v-1.6c2.4-2.1 4.4-4 6.1-5.6s2.9-3 3.8-4.3 1.3-2.5 1.3-3.7-0.4-2.2-1.1-3c-0.8-0.8-1.9-1.2-3.5-1.2-1 0-1.9 0.2-2.8 0.7s-1.6 1.1-2.3 1.8l-1.6-1.6c1-1 2-1.8 3.1-2.3 1.1-0.6 2.4-0.9 3.9-0.9 2.1 0 3.8 0.6 5.1 1.7 1.2 1.1 1.9 2.7 1.9 4.5 0 1.3-0.4 2.7-1.2 4-0.8 1.4-2 2.8-3.4 4.3s-3.2 3.1-5.1 4.9c0.7 0 1.3-0.1 2-0.1s1.3-0.1 1.9-0.1h7v2.4h-15.1v0.1z"/>
 <path class="st1" d="m995 366.9-0.8-1.7c1.4-0.6 2.4-1.4 3.1-2.3s1.1-2 1.1-3.3h-0.3s-0.2 0-0.3 0c-0.7 0-1.3-0.2-1.8-0.6s-0.8-1-0.8-1.9 0.3-1.4 0.8-1.9c0.5-0.4 1.2-0.6 1.9-0.6 1 0 1.7 0.4 2.2 1.1s0.8 1.8 0.8 3.1c0 2-0.5 3.6-1.5 4.9-1.1 1.5-2.5 2.5-4.4 3.2z"/>
 <path class="st1" d="m879.4 400.2c-1.7 0-3.2-0.3-4.5-1s-2.4-1.6-3.2-2.9-1.2-2.8-1.2-4.6 0.4-3.4 1.2-4.6c0.8-1.3 1.9-2.2 3.3-2.9s2.9-1 4.5-1c1.3 0 2.5 0.2 3.4 0.7 1 0.5 1.8 1 2.5 1.7l-1.4 1.8c-0.7-0.6-1.4-1-2.1-1.4-0.7-0.3-1.5-0.5-2.3-0.5-1.2 0-2.3 0.3-3.3 0.8-0.9 0.5-1.7 1.3-2.2 2.2s-0.8 2-0.8 3.3c0 1.2 0.3 2.3 0.8 3.2s1.2 1.7 2.2 2.2 2 0.8 3.3 0.8c1 0 1.9-0.2 2.7-0.6s1.6-0.9 2.2-1.4l1.2 1.8c-0.9 0.8-1.9 1.4-3 1.9-0.9 0.2-2.1 0.5-3.3 0.5z"/>
 <path class="st1" d="m897.9 388.3c-0.8 0-1.4-0.3-1.9-0.8s-0.8-1.2-0.8-2 0.3-1.5 0.8-2 1.2-0.8 1.9-0.8c0.8 0 1.4 0.3 1.9 0.8s0.8 1.2 0.8 2-0.3 1.5-0.8 2c-0.6 0.5-1.2 0.8-1.9 0.8zm0 11.9c-0.8 0-1.4-0.3-1.9-0.8s-0.8-1.2-0.8-2 0.3-1.5 0.8-2 1.2-0.8 1.9-0.8c0.8 0 1.4 0.3 1.9 0.8s0.8 1.2 0.8 2-0.3 1.5-0.8 2-1.2 0.8-1.9 0.8z"/>
 <path class="st1" d="m936.2 399.8-7-21.8h2.9l3.5 11.8c0.4 1.3 0.7 2.5 1 3.6s0.7 2.3 1.1 3.6h0.1c0.4-1.3 0.8-2.5 1.1-3.6s0.7-2.3 1-3.6l3.5-11.8h2.8l-6.9 21.8h-3.1z"/>
 <path class="st1" d="m958.8 400.2c-1.6 0-3.1-0.3-4.4-1s-2.4-1.6-3.1-2.9c-0.8-1.3-1.2-2.8-1.2-4.6s0.4-3.3 1.2-4.5 1.8-2.2 3-2.9 2.6-1 4-1c2.3 0 4.1 0.7 5.4 2.1s1.9 3.2 1.9 5.5v0.9s-0.1 0.5-0.1 0.8h-12.7c0.2 1.8 0.8 3.2 2 4.1s2.6 1.4 4.3 1.4c1 0 1.9-0.1 2.6-0.4 0.8-0.3 1.5-0.6 2.3-1.1l1 1.8c-0.8 0.5-1.7 1-2.7 1.4-1.1 0.2-2.2 0.4-3.5 0.4zm-0.4-14.8c-1.3 0-2.5 0.4-3.6 1.3-1 0.9-1.7 2.1-1.9 3.7h10.3c-0.1-1.7-0.6-2.9-1.5-3.7s-2-1.3-3.3-1.3z"/>
 <path class="st1" d="m979.3 400.2c-1.7 0-3.2-0.3-4.5-1s-2.4-1.6-3.2-2.9-1.2-2.8-1.2-4.6 0.4-3.4 1.2-4.6c0.8-1.3 1.9-2.2 3.3-2.9s2.9-1 4.5-1c1.3 0 2.5 0.2 3.4 0.7 1 0.5 1.8 1 2.5 1.7l-1.4 1.8c-0.7-0.6-1.4-1-2.1-1.4-0.7-0.3-1.5-0.5-2.3-0.5-1.2 0-2.3 0.3-3.3 0.8-0.9 0.5-1.7 1.3-2.2 2.2s-0.8 2-0.8 3.3c0 1.2 0.3 2.3 0.8 3.2s1.2 1.7 2.2 2.2 2 0.8 3.3 0.8c1 0 1.9-0.2 2.7-0.6s1.6-0.9 2.2-1.4l1.2 1.8c-0.9 0.8-1.9 1.4-3 1.9-1 0.2-2.1 0.5-3.3 0.5z"/>
 <path class="st1" d="m1004 398.2-12.4-8.4v-2.1l12.4-8.4v2.6l-10 6.8v0.1l10 6.8v2.6z"/>
 <path class="st1" d="m1016 400.2c-1.9 0-3.3-0.6-4.3-1.7-0.9-1.1-1.4-2.7-1.4-4.9v-10.1h2.8v9.7c0 1.5 0.3 2.7 0.8 3.4 0.6 0.7 1.5 1.1 2.9 1.1 0.9 0 1.8-0.2 2.5-0.7 0.8-0.5 1.6-1.2 2.5-2.3v-11.2h2.7v16.2h-2.2l-0.2-2.8h-0.1c-0.8 1-1.7 1.7-2.7 2.3-1 0.7-2.1 1-3.3 1z"/>
 <path class="st1" d="m1037 400.2c-1.8 0-3.4-0.3-4.6-0.9-1.3-0.6-2.3-1.3-3-2.1l1.4-1.8c0.7 0.7 1.6 1.3 2.6 1.8s2.2 0.8 3.5 0.8c1.4 0 2.7-0.4 3.6-1.1 1-0.7 1.5-1.7 1.5-2.8 0-1.3-0.6-2.3-1.8-3.1s-3.2-1.2-6-1.2v-2.1c2.5 0 4.3-0.4 5.4-1.1 1.1-0.8 1.6-1.7 1.6-2.8 0-1-0.4-1.9-1.2-2.5s-1.8-0.9-3.1-0.9c-1 0-1.9 0.2-2.8 0.6s-1.7 0.9-2.4 1.6l-1.5-1.7c0.9-0.8 1.9-1.4 3-1.9s2.4-0.7 3.7-0.7 2.5 0.2 3.6 0.6 1.9 1 2.5 1.8 0.9 1.8 0.9 2.9c0 1.3-0.4 2.3-1.3 3.2-0.9 0.8-1.9 1.5-3.2 1.9v0.1c1 0.2 1.8 0.5 2.6 1s1.4 1.1 1.9 1.8 0.7 1.6 0.7 2.6c0 1.2-0.3 2.3-1 3.2s-1.6 1.6-2.8 2.1c-1.1 0.4-2.4 0.7-3.8 0.7z"/>
 <path class="st1" d="m1050 399.8v-1.6c2.4-2.1 4.4-4 6.1-5.6s2.9-3 3.8-4.3 1.3-2.5 1.3-3.7-0.4-2.2-1.1-3c-0.8-0.8-1.9-1.2-3.5-1.2-1 0-1.9 0.2-2.8 0.7s-1.6 1.1-2.3 1.8l-1.6-1.6c1-1 2-1.8 3.1-2.3 1.1-0.6 2.4-0.9 3.9-0.9 2.1 0 3.8 0.6 5.1 1.7 1.2 1.1 1.9 2.7 1.9 4.5 0 1.3-0.4 2.7-1.2 4-0.8 1.4-2 2.8-3.4 4.3s-3.2 3.1-5.1 4.9c0.7 0 1.3-0.1 2-0.1s1.3-0.1 1.9-0.1h7v2.4h-15.1v0.1z"/>
 <path class="st1" d="m1071 398.2v-2.6l10-6.8v-0.1l-10-6.8v-2.6l12.4 8.4v2.1l-12.4 8.4z"/>
 <path class="st1" d="m1095 406.9-0.8-1.7c1.4-0.6 2.4-1.4 3.1-2.3s1.1-2 1.1-3.3h-0.3s-0.2 0-0.3 0c-0.7 0-1.3-0.2-1.8-0.6s-0.8-1-0.8-1.9 0.3-1.4 0.8-1.9c0.5-0.4 1.2-0.6 1.9-0.6 1 0 1.7 0.4 2.2 1.1s0.8 1.8 0.8 3.1c0 2-0.5 3.6-1.5 4.9-1.2 1.5-2.6 2.5-4.4 3.2z"/>
 <path class="st1" d="m876.9 440.1c-2.1 0-3.8-0.7-5.1-2.2s-1.9-3.6-1.9-6.2c0-1.8 0.3-3.3 1-4.5 0.7-1.3 1.6-2.3 2.7-2.9 1.1-0.7 2.3-1 3.6-1 1 0 1.9 0.2 2.6 0.5 0.8 0.4 1.5 0.9 2.2 1.5h0.1l-0.1-3v-6.3h2.7v23.7h-2.3l-0.2-2.1h-0.1c-0.7 0.7-1.5 1.3-2.4 1.8-0.8 0.5-1.8 0.7-2.8 0.7zm0.6-2.3c1.6 0 3.1-0.8 4.6-2.4v-8.1c-0.7-0.7-1.4-1.2-2.1-1.5s-1.4-0.4-2.1-0.4c-0.9 0-1.8 0.3-2.5 0.8-0.8 0.5-1.4 1.2-1.8 2.2-0.5 0.9-0.7 2-0.7 3.2 0 1.9 0.4 3.4 1.3 4.5 0.6 1.2 1.8 1.7 3.3 1.7z"/>
 <path class="st1" d="m897.9 428.2c-0.8 0-1.4-0.3-1.9-0.8s-0.8-1.2-0.8-2 0.3-1.5 0.8-2 1.2-0.8 1.9-0.8c0.8 0 1.4 0.3 1.9 0.8s0.8 1.2 0.8 2-0.3 1.5-0.8 2c-0.6 0.5-1.2 0.8-1.9 0.8zm0 11.9c-0.8 0-1.4-0.3-1.9-0.8s-0.8-1.2-0.8-2 0.3-1.5 0.8-2 1.2-0.8 1.9-0.8c0.8 0 1.4 0.3 1.9 0.8s0.8 1.2 0.8 2-0.3 1.5-0.8 2-1.2 0.8-1.9 0.8z"/>
 <path class="st1" d="m932.3 439.7v-21.8h2.7v19.5h10.8v2.4h-13.5v-0.1z"/>
 <path class="st1" d="m956 440.1c-1 0-1.9-0.2-2.7-0.5-0.8-0.4-1.5-0.9-2-1.6s-0.7-1.5-0.7-2.5c0-1.2 0.4-2.2 1.2-3s2-1.5 3.8-1.9c1.7-0.5 4-0.8 6.8-1.1 0-0.7-0.2-1.4-0.4-2-0.3-0.6-0.7-1.1-1.3-1.5s-1.5-0.6-2.5-0.6-2.1 0.2-3 0.6c-1 0.4-1.9 0.8-2.6 1.3l-1.1-1.9c0.8-0.5 1.9-1.1 3.1-1.6 1.3-0.5 2.6-0.8 4-0.8 2.2 0 3.9 0.6 4.9 1.8 1.1 1.2 1.6 2.8 1.6 4.8v9.9h-2.2l-0.2-2.2h-0.1c-0.9 0.7-1.9 1.3-3 1.8s-2.5 1-3.6 1zm0.7-2.2c0.9 0 1.8-0.2 2.7-0.6s1.8-1 2.7-1.8v-4.3c-2.3 0.2-4.1 0.4-5.4 0.8s-2.3 0.8-2.8 1.4c-0.5 0.5-0.8 1.2-0.8 1.9 0 0.9 0.4 1.6 1.1 2s1.6 0.6 2.5 0.6z"/>
 <path class="st1" d="M970.1,439.7v-1.5l11.1-12.5h-9.9v-2.2h13.8v1.5L974,437.5h11.4v2.2H970.1z"/>
 <path class="st1" d="m992.1 446.7c-0.8 0-1.5-0.1-2.1-0.3l0.6-2.2c0.2 0.1 0.5 0.1 0.7 0.2 0.3 0 0.5 0.1 0.7 0.1 1.1 0 2.1-0.3 2.8-1s1.3-1.5 1.7-2.5l0.5-1.2-7.6-16.2h2.8l4 9c0.3 0.7 0.6 1.5 1 2.3s0.7 1.6 1 2.4h0.1c0.3-0.8 0.6-1.6 0.9-2.4s0.6-1.6 0.8-2.3l3.5-9h2.6l-7.1 17.5c-0.4 1.1-0.9 2-1.5 2.9-0.6 0.8-1.3 1.5-2.2 2-1 0.4-2 0.7-3.2 0.7z"/>
 <path class="st1" d="m1024 438.1-12.4-8.4v-2.1l12.4-8.4v2.6l-10 6.8v0.1l10 6.8v2.6z"/>
 <path class="st1" d="m1030 439.7v-21.8h3.4l3.1 9.3 1.1 3.5h0.1l1-3.5 3.1-9.3h3.4v21.8h-2.7v-10.9c0-0.7 0-1.5 0.1-2.5s0.1-1.9 0.2-2.9c0.1-0.9 0.1-1.7 0.2-2.3h-0.1l-1.2 4.3-3.1 8.6h-2l-3.1-8.6-1.3-4.3h-0.1c0.1 0.6 0.1 1.4 0.2 2.3s0.1 1.9 0.2 2.9 0.1 1.8 0.1 2.5v10.9h-2.6z"/>
 <path class="st1" d="m1052 446.7c-0.8 0-1.5-0.1-2.1-0.3l0.6-2.2c0.2 0.1 0.5 0.1 0.7 0.2 0.3 0 0.5 0.1 0.7 0.1 1.1 0 2.1-0.3 2.8-1s1.3-1.5 1.7-2.5l0.5-1.2-7.6-16.2h2.8l4 9c0.3 0.7 0.6 1.5 1 2.3s0.7 1.6 1 2.4h0.1c0.3-0.8 0.6-1.6 0.9-2.4s0.6-1.6 0.8-2.3l3.5-9h2.6l-7.1 17.5c-0.4 1.1-0.9 2-1.5 2.9-0.6 0.8-1.3 1.5-2.2 2-1 0.4-2 0.7-3.2 0.7z"/>
 <path class="st1" d="m1076 439.7v-19.5h-7.2v-2.3h17.1v2.3h-7.2v19.5h-2.7z"/>
 <path class="st1" d="m1092 446.7c-0.8 0-1.5-0.1-2.1-0.3l0.6-2.2c0.2 0.1 0.5 0.1 0.7 0.2 0.3 0 0.5 0.1 0.7 0.1 1.1 0 2.1-0.3 2.8-1s1.3-1.5 1.7-2.5l0.5-1.2-7.6-16.2h2.8l4 9c0.3 0.7 0.6 1.5 1 2.3s0.7 1.6 1 2.4h0.1c0.3-0.8 0.6-1.6 0.9-2.4s0.6-1.6 0.8-2.3l3.5-9h2.6l-7.1 17.5c-0.4 1.1-0.9 2-1.5 2.9-0.6 0.8-1.3 1.5-2.2 2-0.9 0.4-2 0.7-3.2 0.7z"/>
 <path class="st1" d="m1111 446.5v-23h2.3l0.2 2.1h0.1c0.8-0.7 1.6-1.3 2.6-1.8s2-0.7 3-0.7c2.2 0 3.8 0.7 5 2.2s1.7 3.5 1.7 6c0 1.8-0.3 3.4-1 4.7s-1.6 2.3-2.7 3-2.3 1-3.6 1c-0.8 0-1.6-0.2-2.4-0.5-0.9-0.4-1.7-0.9-2.4-1.5h-0.1l0.1 3.1v5.5h-2.8v-0.1zm7.1-8.7c1.4 0 2.6-0.6 3.6-1.7 0.9-1.1 1.4-2.7 1.4-4.7 0-1.8-0.4-3.2-1.1-4.3s-1.9-1.6-3.5-1.6c-0.7 0-1.5 0.2-2.3 0.6s-1.6 1-2.5 1.8v8.1c0.8 0.7 1.6 1.2 2.3 1.5 0.8 0.2 1.5 0.3 2.1 0.3z"/>
 <path class="st1" d="m1138 440.1c-1.6 0-3.1-0.3-4.4-1s-2.4-1.6-3.1-2.9c-0.8-1.3-1.2-2.8-1.2-4.6s0.4-3.3 1.2-4.5 1.8-2.2 3-2.9 2.6-1 4-1c2.3 0 4.1 0.7 5.4 2.1s1.9 3.2 1.9 5.5v0.9s-0.1 0.5-0.1 0.8h-12.7c0.2 1.8 0.8 3.2 2 4.1s2.6 1.4 4.3 1.4c1 0 1.9-0.1 2.6-0.4 0.8-0.3 1.5-0.6 2.3-1.1l1 1.8c-0.8 0.5-1.7 1-2.7 1.4-1.1 0.2-2.2 0.4-3.5 0.4zm-0.4-14.8c-1.3 0-2.5 0.4-3.6 1.3-1 0.9-1.7 2.1-1.9 3.7h10.3c-0.1-1.7-0.6-2.9-1.5-3.7s-2-1.3-3.3-1.3z"/>
 <path class="st1" d="m1151 438.1v-2.6l10-6.8v-0.1l-10-6.8v-2.6l12.4 8.4v2.1l-12.4 8.4z"/>
 <path class="st1" d="m791.3 484.7v-1.6h1.7c1.1 0 2-0.1 2.6-0.3s1-0.5 1.2-1 0.3-1 0.3-1.7c0-1 0-2-0.1-2.9s-0.1-2-0.1-3.1 0.2-1.9 0.6-2.5 1.2-0.9 2.4-1.1v-0.1c-1.2-0.2-1.9-0.6-2.4-1.1-0.4-0.6-0.6-1.4-0.6-2.5 0-1 0-2.1 0.1-3.1s0.1-2 0.1-2.9c0-0.7-0.1-1.3-0.3-1.8-0.2-0.4-0.6-0.8-1.2-1s-1.5-0.3-2.6-0.3h-1.7v-1.6h2c2.1 0 3.6 0.3 4.6 0.9s1.5 1.8 1.5 3.5c0 1.2 0 2.3-0.1 3.3s-0.2 2.1-0.2 3.1c0 0.4 0.1 0.8 0.4 1.2s0.7 0.7 1.4 1c0.7 0.2 1.7 0.4 3 0.4v1.7c-1.3 0-2.3 0.1-3 0.4s-1.2 0.6-1.4 1c-0.3 0.4-0.4 0.8-0.4 1.2 0 1.1 0 2.2 0.2 3.1 0.1 1 0.1 2.1 0.1 3.3 0 1.7-0.5 2.9-1.5 3.5s-2.5 0.9-4.6 0.9h-2v0.1z"/>
 <path class="st1" d="m790.4 626v-21.8h3.4l3.1 9.3 1.1 3.5h0.1l1-3.5 3.1-9.3h3.4v21.8h-2.7v-11c0-0.7 0-1.5 0.1-2.5s0.1-1.9 0.2-2.9c0.1-0.9 0.1-1.7 0.2-2.3h-0.1l-1.2 4.3-3.1 8.6h-2l-3.1-8.6-1.3-4.3h-0.1c0.1 0.6 0.1 1.4 0.2 2.3s0.1 1.9 0.2 2.9 0.1 1.8 0.1 2.5v11h-2.6z"/>
 <path class="st1" d="m812.4 632.9c-0.8 0-1.5-0.1-2.1-0.3l0.6-2.2c0.2 0.1 0.5 0.1 0.7 0.2 0.3 0 0.5 0.1 0.7 0.1 1.1 0 2.1-0.3 2.8-1s1.3-1.5 1.7-2.5l0.5-1.2-7.6-16.2h2.8l4 9c0.3 0.7 0.6 1.5 1 2.3 0.3 0.8 0.7 1.6 1 2.4h0.1c0.3-0.8 0.6-1.6 0.9-2.4s0.6-1.6 0.8-2.3l3.5-9h2.6l-7.1 17.5c-0.4 1.1-0.9 2-1.5 2.9-0.6 0.8-1.3 1.5-2.2 2-1 0.5-2 0.7-3.2 0.7z"/>
 <path class="st1" d="m836.6 626v-19.5h-7.2v-2.3h17.2v2.3h-7.2v19.5h-2.8z"/>
 <path class="st1" d="m852.3 632.9c-0.8 0-1.5-0.1-2.1-0.3l0.6-2.2c0.2 0.1 0.5 0.1 0.7 0.2 0.3 0 0.5 0.1 0.7 0.1 1.1 0 2.1-0.3 2.8-1s1.3-1.5 1.7-2.5l0.5-1.2-7.6-16.2h2.8l4 9c0.3 0.7 0.6 1.5 1 2.3 0.3 0.8 0.7 1.6 1 2.4h0.1c0.3-0.8 0.6-1.6 0.9-2.4s0.6-1.6 0.8-2.3l3.5-9h2.6l-7.1 17.5c-0.4 1.1-0.9 2-1.5 2.9-0.6 0.8-1.3 1.5-2.2 2s-2 0.7-3.2 0.7z"/>
 <path class="st1" d="m871 632.8v-23h2.3l0.2 2.1h0.1c0.8-0.7 1.6-1.3 2.6-1.8s2-0.7 3-0.7c2.2 0 3.8 0.7 5 2.2 1.1 1.5 1.7 3.5 1.7 6 0 1.8-0.3 3.4-1 4.7s-1.6 2.3-2.7 3-2.3 1-3.6 1c-0.8 0-1.6-0.2-2.4-0.5-0.9-0.4-1.7-0.9-2.4-1.5h-0.1l0.1 3.1v5.5l-2.8-0.1zm7.1-8.7c1.4 0 2.6-0.6 3.6-1.7s1.4-2.7 1.4-4.7c0-1.8-0.4-3.2-1.1-4.3s-1.9-1.6-3.5-1.6c-0.7 0-1.5 0.2-2.3 0.6s-1.6 1-2.5 1.8v8.1c0.8 0.7 1.6 1.2 2.3 1.5s1.5 0.3 2.1 0.3z"/>
 <path class="st1" d="m898.9 626.4c-1.6 0-3.1-0.3-4.4-1s-2.4-1.6-3.1-2.9c-0.8-1.3-1.2-2.8-1.2-4.6s0.4-3.3 1.2-4.5 1.8-2.2 3-2.9 2.6-1 4-1c2.3 0 4.1 0.7 5.4 2.1s1.9 3.2 1.9 5.5v0.9c0 0.3-0.1 0.5-0.1 0.8h-12.7c0.2 1.8 0.8 3.2 2 4.1s2.6 1.4 4.3 1.4c1 0 1.9-0.1 2.6-0.4 0.8-0.3 1.5-0.6 2.3-1.1l1 1.8c-0.8 0.5-1.7 1-2.7 1.4-1.1 0.2-2.2 0.4-3.5 0.4zm-0.4-14.8c-1.3 0-2.5 0.4-3.6 1.3-1 0.9-1.7 2.1-1.9 3.7h10.3c-0.1-1.7-0.6-2.9-1.5-3.7-0.9-0.9-2-1.3-3.3-1.3z"/>
 <path class="st2" d="m743.2 745.7c-1.1 0-2-1-2-2.2v-670.4c0-1.2 0.9-2.2 2-2.2s2 1 2 2.2v670.4c0 1.2-0.9 2.2-2 2.2z"/>
 <path class="st2" d="m1218 216.7h-858c-1.1 0-2-0.9-2-2s0.9-2 2-2h858c1.1 0 2 0.9 2 2s-0.9 2-2 2z"/>
 <path class="st2" d="m991.7 562.7h-632c-1.1 0-2-0.9-2-2s0.9-2 2-2h632c1.1 0 2 0.9 2 2s-0.9 2-2 2z"/>
 <path class="st2" d="m1099 497.7c-7.1 2.8-12 15-8.7 21.9s12.1 3.4 16-6.3c3.8-9.8-0.2-18.5-7.3-15.6z"/>
 <path class="st2" d="m1082 531.2c-9.6 1.4-18.9 14.8-16.7 24.3s14.1 7.7 21.6-3c7.3-10.9 4.7-22.7-4.9-21.3z"/>
 <path class="st2" d="m1055 568.7c-10.7 0.1-23.2 13.7-22.5 24.4s14.1 10.5 24.1-0.3c10-10.9 9.1-24.3-1.6-24.1z"/>
 <path class="st2" d="m1001 606.1-13.9-18.7c-0.9-1.2-0.7-2.9 0.5-3.8 10.2-7.6 53.5-42.5 72-99.8 1.4-4.5 6.3-6.8 10.7-5.1l24.9 9.8c2.3 0.9 2.3 4.1 0 5.1-11.2 4.7-14.3 19.1-11.2 28.2 0.6 1.7-0.6 3.5-2.4 3.6-11.9 1-26.5 17.3-20.9 34 0.6 2-1.1 3.9-3.1 3.5-17.2-3.6-32.7 16.6-32.2 29.1 0.1 2-0.9 3.8-2.6 4.8-6.5 4.1-12.9 7.7-18.5 10.2-1.2 0.5-2.5 0.1-3.3-0.9z"/>
 <path class="st2" d="m969.3 613.8 5.1-35.4c0.5-3.3 4.7-4.5 6.8-1.8l30.5 38.4c2.1 2.6 0 6.5-3.3 6.2l-35.6-3c-2.2-0.2-3.8-2.2-3.5-4.4z"/>
 <path class="st1" d="m384.3 112.1c0-7.7 5.9-13.3 13.9-13.3 4.2 0 7.8 1.5 10.2 4.3l-3.1 2.9c-1.9-2-4.2-3-6.9-3-5.4 0-9.3 3.8-9.3 9.1s3.9 9.1 9.3 9.1c2.7 0 5-1 6.9-3.1l3.1 3c-2.4 2.8-6 4.3-10.3 4.3-7.9 0.1-13.8-5.5-13.8-13.3z"/>
 <path class="st1" d="M412.6,97.6h4.6v27.5h-4.6V97.6z"/>
 <path class="st1" d="m439.9 113.5v11.6h-4.4v-2.4c-1.1 1.7-3.3 2.7-6.2 2.7-4.5 0-7.4-2.5-7.4-5.9 0-3.3 2.2-5.9 8.2-5.9h5.1v-0.3c0-2.7-1.6-4.3-4.9-4.3-2.2 0-4.5 0.7-6 2l-1.8-3.4c2.1-1.6 5.2-2.4 8.4-2.4 5.7-0.1 9 2.6 9 8.3zm-4.7 5.4v-2.3h-4.8c-3.1 0-4 1.2-4 2.6 0 1.7 1.4 2.7 3.8 2.7 2.3 0.1 4.3-0.9 5-3z"/>
 <path class="st1" d="m463.9 105.3-8.5 19.8h-4.8l-8.5-19.8h4.8l6.1 14.7 6.3-14.7h4.6z"/>
 <path class="st1" d="m484.7 116.7h-15.5c0.6 2.9 3 4.7 6.4 4.7 2.2 0 4-0.7 5.4-2.1l2.5 2.8c-1.8 2.1-4.6 3.2-8 3.2-6.6 0-10.9-4.3-10.9-10.1 0-5.9 4.3-10.1 10.2-10.1 5.8 0 10 4 10 10.2 0 0.4 0 1-0.1 1.4zm-15.5-3.1h11.2c-0.4-2.8-2.6-4.8-5.6-4.8s-5.2 1.9-5.6 4.8z"/>
 <path class="st1" d="m518.8 97.6v27.5h-4.4v-2.6c-1.6 1.9-3.8 2.8-6.5 2.8-5.7 0-10-4-10-10.1s4.3-10.1 10-10.1c2.6 0 4.8 0.9 6.4 2.7v-10.2h4.5zm-4.5 17.6c0-3.8-2.6-6.2-5.9-6.2s-5.9 2.4-5.9 6.2 2.6 6.2 5.9 6.2 5.9-2.4 5.9-6.2z"/>
 <path class="st1" d="m543.4 116.7h-15.5c0.6 2.9 3 4.7 6.4 4.7 2.2 0 4-0.7 5.4-2.1l2.5 2.8c-1.8 2.1-4.6 3.2-8 3.2-6.6 0-10.9-4.3-10.9-10.1 0-5.9 4.3-10.1 10.2-10.1 5.8 0 10 4 10 10.2 0 0.4-0.1 1-0.1 1.4zm-15.6-3.1h11.2c-0.4-2.8-2.6-4.8-5.6-4.8-2.9 0-5.1 1.9-5.6 4.8z"/>
 <path class="st1" d="m402.3 157.9v11.6h-4.4v-2.4c-1.1 1.7-3.3 2.7-6.2 2.7-4.5 0-7.4-2.5-7.4-5.9 0-3.3 2.2-5.9 8.2-5.9h5.1v-0.3c0-2.7-1.6-4.3-4.9-4.3-2.2 0-4.5 0.7-6 2l-1.8-3.4c2.1-1.6 5.2-2.4 8.4-2.4 5.7-0.1 9 2.6 9 8.3zm-4.7 5.4v-2.3h-4.8c-3.1 0-4 1.2-4 2.6 0 1.7 1.4 2.7 3.8 2.7 2.3 0.1 4.3-0.9 5-3z"/>
 <path class="st1" d="M408.2,142h4.6v27.5h-4.6V142z"/>
 <path class="st1" d="m451.9 158.2v11.3h-4.6v-10.7c0-3.5-1.6-5.2-4.4-5.2-3 0-5.1 2-5.1 5.9v10h-4.6v-10.7c0-3.5-1.6-5.2-4.4-5.2-3.1 0-5.1 2-5.1 5.9v10h-4.6v-19.8h4.4v2.5c1.5-1.8 3.8-2.7 6.5-2.7 2.9 0 5.3 1.1 6.7 3.3 1.6-2 4.3-3.3 7.4-3.3 4.5 0 7.8 2.7 7.8 8.7z"/>
 <path class="st1" d="m474.4 157.9v11.6h-4.4v-2.4c-1.1 1.7-3.3 2.7-6.2 2.7-4.5 0-7.4-2.5-7.4-5.9 0-3.3 2.2-5.9 8.2-5.9h5.1v-0.3c0-2.7-1.6-4.3-4.9-4.3-2.2 0-4.5 0.7-6 2l-1.8-3.4c2.1-1.6 5.2-2.4 8.4-2.4 5.7-0.1 9 2.6 9 8.3zm-4.6 5.4v-2.3h-4.8c-3.1 0-4 1.2-4 2.6 0 1.7 1.4 2.7 3.8 2.7 2.2 0.1 4.2-0.9 5-3z"/>
 <path class="st1" d="m478.9 159.6c0-5.9 4.4-10.1 10.7-10.1 3.8 0 6.9 1.6 8.4 4.6l-3.6 2.1c-1.2-1.9-3-2.7-4.9-2.7-3.4 0-6 2.4-6 6.2s2.6 6.2 6 6.2c2 0 3.7-0.9 4.9-2.7l3.6 2.1c-1.5 3-4.6 4.6-8.4 4.6-6.3-0.1-10.7-4.4-10.7-10.3z"/>
 <path class="st1" d="m520.2 161.1h-15.5c0.6 2.9 3 4.7 6.4 4.7 2.2 0 4-0.7 5.4-2.1l2.5 2.8c-1.8 2.1-4.6 3.2-8 3.2-6.6 0-10.9-4.3-10.9-10.1 0-5.9 4.3-10.1 10.2-10.1 5.8 0 10 4 10 10.2 0 0.4-0.1 1-0.1 1.4zm-15.5-3.1h11.2c-0.4-2.8-2.6-4.8-5.6-4.8s-5.2 1.9-5.6 4.8z"/>
 <path class="st1" d="m544.2 158.2v11.3h-4.6v-10.7c0-3.5-1.7-5.2-4.7-5.2-3.3 0-5.5 2-5.5 6v10h-4.6v-19.8h4.4v2.6c1.5-1.8 3.9-2.8 6.8-2.8 4.7-0.1 8.2 2.6 8.2 8.6z"/>
 <path class="st1" d="m566.6 157.9v11.6h-4.4v-2.4c-1.1 1.7-3.3 2.7-6.2 2.7-4.5 0-7.4-2.5-7.4-5.9 0-3.3 2.2-5.9 8.2-5.9h5.1v-0.3c0-2.7-1.6-4.3-4.9-4.3-2.2 0-4.5 0.7-6 2l-1.8-3.4c2.1-1.6 5.2-2.4 8.4-2.4 5.7-0.1 9 2.6 9 8.3zm-4.6 5.4v-2.3h-4.8c-3.1 0-4 1.2-4 2.6 0 1.7 1.4 2.7 3.8 2.7 2.2 0.1 4.2-0.9 5-3z"/>
 <path class="st1" d="m605.6 158.2v11.3h-4.6v-10.7c0-3.5-1.6-5.2-4.4-5.2-3 0-5.1 2-5.1 5.9v10h-4.6v-10.7c0-3.5-1.6-5.2-4.4-5.2-3.1 0-5.1 2-5.1 5.9v10h-4.6v-19.8h4.4v2.5c1.5-1.8 3.8-2.7 6.5-2.7 2.9 0 5.3 1.1 6.7 3.3 1.6-2 4.3-3.3 7.4-3.3 4.4 0 7.8 2.7 7.8 8.7z"/>
 <path class="st1" d="m610.8 143.7c0-1.6 1.3-2.8 3-2.8s3 1.1 3 2.7-1.2 2.9-3 2.9c-1.7 0-3-1.2-3-2.8zm0.7 6h4.6v19.8h-4.6v-19.8z"/>
 <path class="st1" d="m640.7 161.1h-15.5c0.6 2.9 3 4.7 6.4 4.7 2.2 0 4-0.7 5.4-2.1l2.5 2.8c-1.8 2.1-4.6 3.2-8 3.2-6.6 0-10.9-4.3-10.9-10.1 0-5.9 4.3-10.1 10.2-10.1 5.8 0 10 4 10 10.2-0.1 0.4-0.1 1-0.1 1.4zm-15.6-3.1h11.2c-0.4-2.8-2.6-4.8-5.6-4.8s-5.1 1.9-5.6 4.8z"/>
 <path class="st1" d="m664.6 158.2v11.3h-4.6v-10.7c0-3.5-1.7-5.2-4.7-5.2-3.3 0-5.5 2-5.5 6v10h-4.6v-19.8h4.4v2.6c1.5-1.8 3.9-2.8 6.8-2.8 4.7-0.1 8.2 2.6 8.2 8.6z"/>
 <path class="st1" d="m682.4 168.4c-1.1 0.9-2.8 1.3-4.4 1.3-4.3 0-6.8-2.3-6.8-6.7v-9.5h-3.3v-3.7h3.3v-4.5h4.6v4.5h5.3v3.7h-5.3v9.4c0 1.9 1 3 2.7 3 1 0 1.9-0.3 2.6-0.8l1.3 3.3z"/>
 <path class="st1" d="m683.9 159.6c0-5.9 4.4-10.1 10.5-10.1s10.5 4.2 10.5 10.1-4.4 10.1-10.5 10.1c-6 0.1-10.5-4.2-10.5-10.1zm16.4 0c0-3.8-2.5-6.2-5.9-6.2-3.3 0-5.8 2.4-5.8 6.2s2.5 6.2 5.8 6.2c3.4 0 5.9-2.4 5.9-6.2z"/>
 <path class="st1" d="m804.9 105-11.3 25.9h-4.7l-11.4-25.9h5.2l8.6 20 8.7-20h4.9z"/>
 <path class="st1" d="m822.2 119.3v11.6h-4.4v-2.4c-1.1 1.7-3.3 2.7-6.2 2.7-4.5 0-7.4-2.5-7.4-5.9 0-3.3 2.2-5.9 8.2-5.9h5.1v-0.4c0-2.7-1.6-4.3-4.9-4.3-2.2 0-4.5 0.7-6 2l-1.8-3.4c2.1-1.6 5.2-2.4 8.4-2.4 5.7 0 9 2.7 9 8.4zm-4.6 5.4v-2.3h-4.8c-3.1 0-4 1.2-4 2.6 0 1.7 1.4 2.7 3.8 2.7 2.2 0.1 4.2-1 5-3z"/>
 <path class="st1" d="m828.1 103.4h4.6v27.5h-4.6v-27.5z"/>
 <path class="st1" d="m837.2 121c0-5.9 4.4-10.1 10.5-10.1s10.5 4.2 10.5 10.1-4.4 10.1-10.5 10.1-10.5-4.2-10.5-10.1zm16.4 0c0-3.8-2.5-6.2-5.9-6.2-3.3 0-5.8 2.4-5.8 6.2s2.5 6.2 5.8 6.2c3.4 0 5.9-2.4 5.9-6.2z"/>
 <path class="st1" d="m874.1 110.9v4.4c-0.4-0.1-0.7-0.1-1.1-0.1-3.5 0-5.7 2.1-5.7 6.1v9.6h-4.6v-19.8h4.4v2.9c1.3-2.1 3.7-3.1 7-3.1z"/>
 <path class="st1" d="m905 119.3v11.6h-4.4v-2.4c-1.1 1.7-3.3 2.7-6.2 2.7-4.5 0-7.4-2.5-7.4-5.9 0-3.3 2.2-5.9 8.2-5.9h5.1v-0.4c0-2.7-1.6-4.3-4.9-4.3-2.2 0-4.5 0.7-6 2l-1.8-3.4c2.1-1.6 5.2-2.4 8.4-2.4 5.7 0 9 2.7 9 8.4zm-4.6 5.4v-2.3h-4.8c-3.1 0-4 1.2-4 2.6 0 1.7 1.4 2.7 3.8 2.7 2.2 0.1 4.2-1 5-3z"/>
 <path class="st1" d="m910.9 103.4h4.6v27.5h-4.6v-27.5z"/>
 <path class="st1" d="m954.6 119.6v11.3h-4.6v-10.7c0-3.5-1.6-5.2-4.4-5.2-3 0-5.1 2-5.1 5.9v10h-4.6v-10.7c0-3.5-1.6-5.2-4.4-5.2-3.1 0-5.1 2-5.1 5.9v10h-4.6v-19.8h4.4v2.5c1.5-1.8 3.8-2.7 6.5-2.7 2.9 0 5.3 1.1 6.7 3.3 1.6-2 4.3-3.3 7.4-3.3 4.5 0 7.8 2.7 7.8 8.7z"/>
 <path class="st1" d="m977.1 119.3v11.6h-4.4v-2.4c-1.1 1.7-3.3 2.7-6.2 2.7-4.5 0-7.4-2.5-7.4-5.9 0-3.3 2.2-5.9 8.2-5.9h5.1v-0.4c0-2.7-1.6-4.3-4.9-4.3-2.2 0-4.5 0.7-6 2l-1.8-3.4c2.1-1.6 5.2-2.4 8.4-2.4 5.7 0 9 2.7 9 8.4zm-4.6 5.4v-2.3h-4.8c-3.1 0-4 1.2-4 2.6 0 1.7 1.4 2.7 3.8 2.7 2.2 0.1 4.2-1 5-3z"/>
 <path class="st1" d="m981.6 121c0-5.9 4.4-10.1 10.7-10.1 3.8 0 6.9 1.6 8.4 4.6l-3.6 2.1c-1.2-1.9-3-2.7-4.9-2.7-3.4 0-6 2.4-6 6.2s2.6 6.2 6 6.2c2 0 3.7-0.9 4.9-2.7l3.6 2.1c-1.5 3-4.6 4.6-8.4 4.6-6.3-0.2-10.7-4.4-10.7-10.3z"/>
 <path class="st1" d="m1023 122.5h-15.5c0.6 2.9 3 4.7 6.4 4.7 2.2 0 4-0.7 5.4-2.1l2.5 2.8c-1.8 2.1-4.6 3.2-8 3.2-6.6 0-10.9-4.3-10.9-10.1 0-5.9 4.3-10.1 10.2-10.1 5.8 0 10 4 10 10.2 0 0.4-0.1 0.9-0.1 1.4zm-15.5-3.1h11.2c-0.4-2.8-2.6-4.8-5.6-4.8s-5.2 1.9-5.6 4.8z"/>
 <path class="st1" d="m1047 119.6v11.3h-4.6v-10.7c0-3.5-1.7-5.2-4.7-5.2-3.3 0-5.5 2-5.5 6v10h-4.6v-19.8h4.4v2.6c1.5-1.8 3.9-2.8 6.8-2.8 4.7-0.1 8.2 2.6 8.2 8.6z"/>
 <path class="st1" d="m1069 119.3v11.6h-4.4v-2.4c-1.1 1.7-3.3 2.7-6.2 2.7-4.5 0-7.4-2.5-7.4-5.9 0-3.3 2.2-5.9 8.2-5.9h5.1v-0.4c0-2.7-1.6-4.3-4.9-4.3-2.2 0-4.5 0.7-6 2l-1.8-3.4c2.1-1.6 5.2-2.4 8.4-2.4 5.7 0 9 2.7 9 8.4zm-4.6 5.4v-2.3h-4.8c-3.1 0-4 1.2-4 2.6 0 1.7 1.4 2.7 3.8 2.7 2.2 0.1 4.2-1 5-3z"/>
 <path class="st1" d="m1095 103.4v27.5h-4.4v-2.6c-1.6 1.9-3.8 2.8-6.5 2.8-5.7 0-10-4-10-10.1s4.3-10.1 10-10.1c2.6 0 4.8 0.9 6.4 2.7v-10.1h4.5zm-4.6 17.6c0-3.8-2.6-6.2-5.9-6.2s-5.9 2.4-5.9 6.2 2.6 6.2 5.9 6.2 5.9-2.4 5.9-6.2z"/>
 <path class="st1" d="m1099 121c0-5.9 4.4-10.1 10.5-10.1s10.5 4.2 10.5 10.1-4.4 10.1-10.5 10.1-10.5-4.2-10.5-10.1zm16.4 0c0-3.8-2.5-6.2-5.9-6.2-3.3 0-5.8 2.4-5.8 6.2s2.5 6.2 5.8 6.2c3.4 0 5.9-2.4 5.9-6.2z"/>
 <path class="st2" d="m1135 553.4c0 5.8-4 9.6-9.5 9.6-2.4 0-4.5-0.8-6-2.5v9.1h-4.4v-25.6h4.2v2.5c1.5-1.8 3.6-2.7 6.2-2.7 5.5 0 9.5 3.8 9.5 9.6zm-4.4 0c0-3.6-2.4-5.8-5.5-5.8s-5.6 2.3-5.6 5.8c0 3.6 2.4 5.8 5.6 5.8s5.5-2.3 5.5-5.8z"/>
 <path class="st2" d="m1157 544v18.7h-4.2v-2.4c-1.4 1.7-3.6 2.6-6 2.6-4.8 0-8.1-2.6-8.1-8.3v-10.6h4.4v10.1c0 3.4 1.6 5 4.4 5 3 0 5.1-1.9 5.1-5.6v-9.5h4.4z"/>
 <path class="st2" d="m1181 552v10.7h-4.4v-10.2c0-3.3-1.6-4.9-4.4-4.9-3.1 0-5.2 1.9-5.2 5.6v9.5h-4.4v-18.7h4.2v2.4c1.4-1.7 3.7-2.6 6.4-2.6 4.5 0 7.8 2.6 7.8 8.2z"/>
 <path class="st2" d="m1198 561.7c-1 0.8-2.6 1.3-4.2 1.3-4.1 0-6.4-2.2-6.4-6.3v-9h-3.1v-3.5h3.1v-4.3h4.4v4.3h5v3.5h-5v8.9c0 1.8 0.9 2.8 2.6 2.8 0.9 0 1.8-0.2 2.5-0.8l1.1 3.1z"/>
 <path class="st2" d="m1218 554.8h-14.7c0.5 2.7 2.8 4.5 6.1 4.5 2.1 0 3.7-0.7 5.1-2l2.3 2.7c-1.7 2-4.3 3-7.5 3-6.3 0-10.3-4-10.3-9.6s4.1-9.6 9.7-9.6c5.5 0 9.5 3.8 9.5 9.7-0.1 0.3-0.1 0.8-0.2 1.3zm-14.7-3h10.6c-0.3-2.7-2.4-4.5-5.3-4.5-2.8 0-4.9 1.8-5.3 4.5z"/>
 <path class="st2" d="m1234 543.8v4.2c-0.4-0.1-0.7-0.1-1-0.1-3.3 0-5.4 2-5.4 5.8v9.1h-4.4v-18.8h4.2v2.7c1.2-1.9 3.5-2.9 6.6-2.9z"/>
 <path class="st2" d="m1236 553.4c0-5.6 4.2-9.6 9.9-9.6 5.8 0 10 4 10 9.6s-4.2 9.6-10 9.6c-5.7-0.1-9.9-4-9.9-9.6zm15.5 0c0-3.6-2.4-5.8-5.6-5.8s-5.5 2.3-5.5 5.8c0 3.6 2.4 5.8 5.5 5.8 3.2 0 5.6-2.3 5.6-5.8z"/>
 <path class="st2" d="m1153 593.7v11h-4.1v-2.3c-1.1 1.6-3.1 2.5-5.9 2.5-4.3 0-7-2.3-7-5.6 0-3.1 2.1-5.6 7.8-5.6h4.8v-0.3c0-2.6-1.5-4.1-4.7-4.1-2.1 0-4.3 0.7-5.7 1.9l-1.7-3.2c2-1.5 4.9-2.3 7.9-2.3 5.5 0.1 8.6 2.7 8.6 8zm-4.4 5.2v-2.2h-4.5c-3 0-3.8 1.1-3.8 2.5 0 1.6 1.3 2.6 3.6 2.6 2.1 0 4-1 4.7-2.9z"/>
 <path class="st2" d="m1184 593.7v11h-4.1v-2.3c-1.1 1.6-3.1 2.5-5.9 2.5-4.3 0-7-2.3-7-5.6 0-3.1 2.1-5.6 7.8-5.6h4.8v-0.3c0-2.6-1.5-4.1-4.7-4.1-2.1 0-4.3 0.7-5.7 1.9l-1.7-3.2c2-1.5 4.9-2.3 7.9-2.3 5.5 0.1 8.6 2.7 8.6 8zm-4.4 5.2v-2.2h-4.5c-3 0-3.8 1.1-3.8 2.5 0 1.6 1.3 2.6 3.6 2.6 2.1 0 4-1 4.7-2.9z"/>
 <path class="st2" d="m1208 586v25.5h-4.4v-9.1c-1.5 1.7-3.6 2.5-6 2.5-5.5 0-9.5-3.8-9.5-9.6s4-9.6 9.5-9.6c2.6 0 4.7 0.9 6.2 2.7v-2.4h4.2zm-4.3 9.4c0-3.6-2.4-5.8-5.6-5.8s-5.5 2.3-5.5 5.8c0 3.6 2.4 5.8 5.5 5.8 3.3 0 5.6-2.3 5.6-5.8z"/>
 <path class="st2" d="m1231 586v18.7h-4.2v-2.4c-1.4 1.7-3.6 2.6-6 2.6-4.8 0-8.1-2.6-8.1-8.3v-10.6h4.4v10.1c0 3.4 1.6 5 4.4 5 3 0 5.1-1.9 5.1-5.6v-9.5h4.4z"/>
 <path class="st2" d="m1241 578.7h5.1l-6.1 4.8h-3.8l4.8-4.8zm-4 7.3h4.4v18.7h-4.4v-18.7z"/>
</svg>
