<svg enable-background="new 0 0 747.62 681.81" version="1.1" viewBox="0 0 747.6 681.8" xmlns="http://www.w3.org/2000/svg" xmlns:xlink="http://www.w3.org/1999/xlink">
 <style type="text/css">.st0{fill:#B39FD8;}
	.st1{fill:#7A6CA6;}
	.st2{fill:#86A9FC;}
	.st3{fill:#574B7D;}
	.st4{fill:#403859;}
	.st5{clip-path:url(#SVGID_00000136382215361610967420000004965090471554877325_);}
	.st6{clip-path:url(#SVGID_00000167365016657079545850000012628269774495107005_);}
	.st7{fill:#F7F7F7;}
	.st8{fill:#1E1940;}
	.st9{fill-rule:evenodd;clip-rule:evenodd;fill:#FFC32B;}
	.st10{fill-rule:evenodd;clip-rule:evenodd;fill:#C27F04;}
	.st11{fill-rule:evenodd;clip-rule:evenodd;fill:#4F322C;}
	.st12{fill-rule:evenodd;clip-rule:evenodd;fill:#B39FD8;}
	.st13{clip-path:url(#SVGID_00000017509427514000851060000007092434241568153782_);}
	.st14{fill-rule:evenodd;clip-rule:evenodd;fill:#7A6CA6;}
	.st15{fill-rule:evenodd;clip-rule:evenodd;fill:#FFE54F;}
	.st16{opacity:0.45;}
	.st17{fill-rule:evenodd;clip-rule:evenodd;fill:#D18100;}
	.st18{fill:#C27F04;}
	.st19{fill-rule:evenodd;clip-rule:evenodd;fill:#FFE84F;}
	.st20{fill-rule:evenodd;clip-rule:evenodd;fill:#4F2821;}
	.st21{fill-rule:evenodd;clip-rule:evenodd;fill:#FFFFFF;}
	.st22{fill-rule:evenodd;clip-rule:evenodd;fill:#86A9FC;}
	.st23{fill:#425EA1;}
	.st24{fill-rule:evenodd;clip-rule:evenodd;fill:#BDD9FF;}
	.st25{opacity:0.36;}
	.st26{fill-rule:evenodd;clip-rule:evenodd;fill:#001F61;}
	.st27{fill:#5373CC;}
	.st28{fill:#31A35D;}
	.st29{fill:#45BD74;}
	.st30{fill:#816986;}
	.st31{fill:#604965;}
	.st32{clip-path:url(#SVGID_00000104696655336606666840000011769473957847923603_);}
	.st33{fill:#1B1B1D;}
	.st34{fill:#BAA1CA;}
	.st35{clip-path:url(#SVGID_00000163034002435821413350000011046089280295584936_);}
	.st36{fill:#997E9E;}
	.st37{clip-path:url(#SVGID_00000168101253205854297100000009129646681004467635_);}
	.st38{fill:#7C6284;}
	.st39{fill:#A28AA8;}
	.st40{fill:#B8AEFF;}
	.st41{fill:#E2DCFE;}
	.st42{fill:#8D7CF7;}
	.st43{fill:#FFC32B;}
	.st44{fill:#FFFFFF;}
	.st45{clip-path:url(#SVGID_00000165950229967258359370000013212183948488837772_);}
	.st46{fill:#4F2821;}
	.st47{fill:#301914;}
	.st48{fill:#FFE54F;}
	.st49{fill:#DB9705;}
	.st50{fill:#C28500;}
	.st51{fill:#F2D2FF;}
	.st52{fill:#BA80FF;}
	.st53{fill:#874FCB;}
	.st54{fill:#E69D00;}
	.st55{fill:#7D4900;}
	.st56{clip-path:url(#SVGID_00000048489690097533461150000014833791570132794798_);}
	.st57{fill:#7236B9;}
	.st58{fill:#E1B6FF;}
	.st59{fill:#0F0F0F;}
	.st60{fill:#FFE9FF;}
	.st61{clip-path:url(#SVGID_00000009584113753351919850000014323544067492376961_);}
	.st62{clip-path:url(#SVGID_00000032621497600281969740000017005863849866822026_);}
	.st63{opacity:0.5;}
	.st64{fill:#572A98;}
	.st65{fill:#733EB7;}
	.st66{fill:#E8C1FF;}
	.st67{clip-path:url(#SVGID_00000174564097967901979300000008937168208029451956_);}
	.st68{clip-path:url(#SVGID_00000146499695277438759330000005652829247001004169_);}
	.st69{clip-path:url(#SVGID_00000163775383313035793100000000708326072911707286_);}
	.st70{fill:#592F8D;}
	.st71{clip-path:url(#SVGID_00000072995809109121266270000000652768199776819890_);}
	.st72{clip-path:url(#SVGID_00000145759053485451067060000015353212939547334059_);}
	.st73{clip-path:url(#SVGID_00000025419026030963246680000017054096917623773627_);}
	.st74{clip-path:url(#SVGID_00000153664589957187018300000014569740184805549489_);}
	.st75{fill:#4D2865;}
	.st76{clip-path:url(#SVGID_00000138575544003686758610000006837444849975291569_);}
	.st77{fill:#DAAAFF;}
	.st78{fill:#975FE0;}
	.st79{clip-path:url(#SVGID_00000066478484129526117200000015635979239409119621_);}
	.st80{clip-path:url(#SVGID_00000093881342347814920100000005981397314115080623_);}
	.st81{fill:#BE84FF;}
	.st82{clip-path:url(#SVGID_00000114068798058725720030000010157705263253791659_);}
	.st83{clip-path:url(#SVGID_00000122688724177752300680000005131004032601491355_);}
	.st84{fill:#D5A5FF;}
	.st85{clip-path:url(#SVGID_00000168115368660436963990000000812497229158577583_);}
	.st86{clip-path:url(#SVGID_00000110444964505138498130000003206406932594681499_);}
	.st87{fill:#8C53D1;}</style>
 <path class="st0" d="m391 280.8-12.89 12.1c-17.51-0.82-22.17-1.66-24.62-16.99l-23.01 4.01-3.53-7.76-42.17 3.69 2.14-15.07 4.25-30.05 22.67 3.21 40.39 1.02s5.02 12.05 8.94 27.55c22.79-5.69 20.77-3.49 16.71 6.78l6.11 6.32 5.01 5.19z"/>
 <path class="st1" d="m391 280.8-12.89 12.1c-17.51-0.82-22.17-1.66-24.62-16.99l-23.01 4.01-3.53-7.76-42.17 3.69 2.14-15.07c27.53-2.22 40.19-4.29 45.12-5.28 1.47-0.29 2.88 0.7 3.11 2.17l1.69 10.57c22.36-4.89 24.88 6.77 24.88 6.77 7.42 11.48 17.88 5.89 24.28 0.6l5 5.19z"/>
 <path class="st2" d="m303.8 256.8c-3.65 17.33-22.39 24.69-33.73 13.25s-6.77-33.1 8.22-38.99 29.16 8.41 25.51 25.74z"/>
 <path class="st3" d="m282.8 278.5c-5.46 0-10.63-2.18-14.76-6.35-6.02-6.08-8.47-15.16-6.55-24.3 1.93-9.14 7.83-16.46 15.8-19.59 7.48-2.94 15.24-1.68 21.31 3.45 7.02 5.94 10.09 15.77 8.01 25.65s-8.86 17.64-17.68 20.24c-2.06 0.6-4.11 0.9-6.13 0.9zm2.44-47.39c-2.09 0-4.23 0.41-6.34 1.24-6.59 2.59-11.49 8.72-13.11 16.41s0.39 15.28 5.37 20.3c4.48 4.52 10.5 6.1 16.53 4.33 7.27-2.14 12.88-8.63 14.63-16.93s-0.76-16.5-6.55-21.39c-3.09-2.62-6.74-3.96-10.53-3.96z"/>
 <path class="st1" d="m447.5 287.4c-57.39 28.32-97.01 25.17-97.01 25.17l-1.18-14.74c41.54-25.77 78.1-27.04 87.6-26.88 1.46 0.03 2.79 0.88 3.44 2.18l7.15 14.27z"/>
 <path class="st4" d="m447.5 287.4c-57.39 28.33-97.01 25.17-97.01 25.17s10.8-4.81 26.38-10.23c12.55-4.36 28.2-9.12 43.83-12.07 0.12-0.01 0.17-0.03 0.17-0.03 9.1-1.71 18.18-2.8 26.63-2.84z"/>
 <defs>
  <path id="a" d="m447.5 287.4c-57.39 28.32-97.01 25.17-97.01 25.17l-1.18-14.74c41.54-25.77 78.1-27.04 87.6-26.88 1.46 0.03 2.79 0.88 3.44 2.18l7.15 14.27z"/>
 </defs>
 <clipPath id="bi">
  <use xlink:href="#a"/>
 </clipPath>
 <g clip-path="url(#bi)">
  <path class="st4" d="m347.2 305.6-1.51-2.59c0.48-0.28 48.85-28.13 100.3-27.66l-0.03 3c-0.44 0-0.88-0.01-1.31-0.01-50.12 0.01-97.01 26.99-97.48 27.26z"/>
 </g>
 <path class="st2" d="m420.9 290.2c-21.61 18.4-44 12.09-44 12.09 12.55-4.36 28.2-9.12 43.83-12.07 0.11-0.01 0.17-0.02 0.17-0.02z"/>
 <defs>
  <path id="cc" d="m391 280.8-12.89 12.1c-17.51-0.82-22.17-1.66-24.62-16.99l-23.01 4.01-3.53-7.76-42.17 3.69 2.14-15.07 4.25-30.05 22.67 3.21 40.39 1.02s5.02 12.05 8.94 27.55c22.79-5.69 20.77-3.49 16.71 6.78l6.11 6.32 5.01 5.19z"/>
 </defs>
 <clipPath id="aj">
  <use xlink:href="#cc"/>
 </clipPath>
 <g clip-path="url(#aj)">
  <path class="st1" d="m369.2 283.7-1.35-2.68c0.09-0.05 8.98-4.63 12.87-13.23l2.73 1.24c-4.34 9.59-13.85 14.47-14.25 14.67z"/>
  <path class="st1" d="m330.4 277.1-1.59-2.54c0.15-0.1 15.6-10.15 25.12-40.96l2.87 0.89c-9.89 31.98-25.73 42.19-26.4 42.61z"/>
  <path class="st1" d="m308.9 273.8-2.24-2c7.12-7.96 10.29-16.81 9.41-26.31-0.66-7.06-3.39-11.79-3.42-11.84l2.59-1.52c0.12 0.22 12.05 21.12-6.34 41.67z"/>
 </g>
 <path class="st7" d="m270 249.2c8.87-14.17 21.26-12.4 28.45 2 0.71 1.43 0.65 3.15-0.2 4.5-9.63 15.39-24.16 12.04-28.77-2.62-0.4-1.29-0.2-2.72 0.52-3.88z"/>
 <path class="st8" d="m283.8 258.9c-6.19 1.16-11.38-5.12-9.33-11.3s9.79-7.64 13.93-2.61c4.15 5.02 1.59 12.75-4.6 13.91z"/>
 <path class="st9" d="m228.3 386.1-4.55 10.9c-8.32-2.94-15.48-6.48-21.48-10.42-5.46-3.58-9.96-7.49-13.51-11.57-10.28-11.85-12.45-25.1-6.46-35.82 8.92-15.97 32.33-9.1 42.08 24.65 0.13 0.46 0.26 0.91 0.38 1.37 1.68 6.13 2.91 13.08 3.54 20.89z"/>
 <path class="st10" d="m221.6 395.5c-19.2-1.32-7.84 12.66-7.84 12.66-25.98 5.92-8.32 20.32 5.99 19.47 12.93-10.96 1.85-32.13 1.85-32.13z"/>
 <path class="st10" d="m228.3 386.1-4.55 10.9c-8.32-2.94-15.48-6.48-21.48-10.42 7.12-2.76 16.85-8.96 22.11-22.73 0.13 0.46 0.26 0.91 0.38 1.37 1.68 6.12 2.91 13.07 3.54 20.88z"/>
 <polygon class="st11" points="328.4 487.6 301.2 544.5 315.3 549.8 347.4 550.8 368.4 490.9"/>
 <path class="st11" d="m425.4 334.9c-26.62 9.22-56.31 57.05-56.31 57.05l-1.96-1.8c14.97-43.31 3.93-69.2 3.93-69.2-37.58 33.02-33.43 65.52-33.43 65.52l51.37 17.45s50.94-60.6 36.4-69.02z"/>
 <path class="st12" d="m274.3 350.4-36.4 123.3s-25.95-17.91-29.19-25.61c-0.25-0.59-0.34-1.57-0.3-2.9 0.54-16.44 21.27-85.32 26.69-88.76 3.41-2.18 16.08-3.87 26.1-4.89 7.25-0.76 13.1-1.16 13.1-1.16z"/>
 <defs>
  <path id="aq" d="m274.3 350.4-36.4 123.3s-25.95-17.91-29.19-25.61c-0.25-0.59-0.34-1.57-0.3-2.9 0.54-16.44 21.27-85.32 26.69-88.76 3.41-2.18 16.08-3.87 26.1-4.89 7.25-0.76 13.1-1.16 13.1-1.16z"/>
 </defs>
 <clipPath id="bl">
  <use xlink:href="#aq"/>
 </clipPath>
 <g clip-path="url(#bl)">
  <rect class="st1" transform="matrix(.2096 -.9778 .9778 .2096 -186.8 541.4)" x="239.6" y="364.8" width="3.86" height="42.81"/>
  <rect class="st1" transform="matrix(.3425 -.9395 .9395 .3425 -246.3 495.4)" x="228.8" y="402.2" width="3.86" height="42.81"/>
 </g>
 <path class="st14" d="m274.3 350.4-36.4 123.3s-25.95-17.91-29.19-25.61c-0.25-0.59-0.34-1.57-0.3-2.9 21.74 7.15 33.25-25.78 52.79-93.65 7.25-0.76 13.1-1.16 13.1-1.16z"/>
 <path class="st9" d="m374.2 390.2-29.93 99.8-9.25-0.53-11.88 24.4 3.74 7.72c0.5 1.03-0.01 2.28-1.09 2.65l-12.11 4.29-1.17 20.28c-1.56-0.56-3.07-1.12-4.59-1.7-2.08-0.78-4.13-1.58-6.16-2.38-0.16-0.06-0.31-0.12-0.47-0.19-0.97-0.38-1.94-0.78-2.89-1.17-1.02-0.41-2.04-0.83-3.05-1.25-0.21-0.09-0.41-0.18-0.62-0.26-0.9-0.38-1.78-0.78-2.67-1.15-2.07-0.91-4.12-1.81-6.1-2.73-2.68-1.22-5.28-2.46-7.79-3.7-0.91-0.47-1.82-0.92-2.72-1.39-2.9-1.48-5.67-2.95-8.27-4.44-0.52-0.28-1.02-0.57-1.52-0.87-0.37-0.2-0.75-0.42-1.11-0.64-0.53-0.31-1.05-0.63-1.57-0.93-1.03-0.63-2.03-1.23-3-1.85-0.49-0.3-0.96-0.61-1.43-0.92-0.47-0.3-0.93-0.61-1.4-0.91-2.87-1.9-5.43-3.79-7.65-5.59-17.59-14.42-17.97-33.48-11.93-59.37 1.64-7.09 3.78-14.69 6.18-22.85v-0.01c1.9-6.47 3.97-13.3 6.09-20.5 0.68-2.32 1.37-4.65 2.05-7.03 0.94-3.26 1.85-6.38 2.75-9.4 0.53-1.8 1.06-3.56 1.59-5.28v-0.02c0.26-0.86 0.53-1.72 0.79-2.56 1.14-3.69 2.26-7.21 3.38-10.56 0.27-0.82 0.55-1.63 0.82-2.43 0.07-0.21 0.14-0.41 0.21-0.62 0.2-0.6 0.4-1.18 0.62-1.77 0.27-0.78 0.55-1.56 0.82-2.32 1.09-3.06 2.2-5.98 3.33-8.74 0.5-1.21 0.98-2.4 1.49-3.55 0.35-0.83 0.71-1.64 1.06-2.44 2.31-5.09 4.7-9.61 7.28-13.62 1.2-1.87 2.45-3.63 3.75-5.3 0.09-0.13 0.19-0.25 0.28-0.37 6.86-8.7 15.14-14.51 26.18-18.3 14.53-4.99 38.18-4.18 64.84 1.3 0.35 3.49 0.48 6.8 0.46 9.88-0.05 7.17-0.88 13.14-1.69 17.24-0.29 1.49-0.59 2.73-0.83 3.7-0.39 1.58-0.68 2.44-0.68 2.44l-15.12 1.53c-1.28 0.13-1.83 1.69-0.91 2.6l10.68 10.48c0.9 0.8 0.63 2.28-0.51 2.7l-4.6 1.76 2.05 7.02 2.63 2.4 10.48 9.5 1.16-2.05z"/>
 <path class="st15" d="m371 321c0.35 3.48 0.48 6.79 0.46 9.87-35.4-9.36-70.27-13.83-91.48 7.12 6.86-8.7 15.14-14.51 26.18-18.3 14.53-4.98 38.17-4.18 64.84 1.31z"/>
 <g class="st16">
  <path class="st17" d="m335 489.5-11.88 24.4 1.67 3.44 2.03 4.21 0.03 0.07c0.51 1.03 0 2.28-1.08 2.66l-12.11 4.28-1.17 20.29c-0.25-0.09-0.51-0.19-0.76-0.28-1.28-0.47-2.56-0.94-3.83-1.43-2.08-0.78-4.14-1.58-6.16-2.38-0.16-0.06-0.31-0.12-0.47-0.19-0.97-0.38-1.94-0.78-2.89-1.17-1.02-0.41-2.04-0.83-3.05-1.25-0.21-0.09-0.41-0.18-0.62-0.26-0.9-0.38-1.78-0.78-2.67-1.15-2.07-0.9-4.12-1.8-6.1-2.73-2.68-1.22-5.28-2.46-7.79-3.7-0.92-0.47-1.82-0.92-2.72-1.39-0.57-0.28-1.12-0.57-1.67-0.86-0.16-0.08-0.32-0.16-0.49-0.25-0.49-0.24-0.96-0.5-1.43-0.75-0.53-0.27-1.05-0.57-1.57-0.85-1.06-0.58-2.1-1.14-3.12-1.73-0.52-0.28-1.02-0.57-1.52-0.87-0.37-0.2-0.75-0.42-1.11-0.64-0.53-0.31-1.05-0.63-1.57-0.93-1.03-0.63-2.03-1.23-3-1.85-0.48-0.3-0.95-0.61-1.43-0.92-0.47-0.3-0.93-0.61-1.4-0.91-2.87-1.9-5.43-3.79-7.65-5.59-17.59-14.42-8.36-29.43-2.33-55.32 31.84-1.37 64.39 12.64 97.85 28.64l-9.99-0.59z"/>
 </g>
 <path class="st10" d="m257.1 522.3c15.75 1.51 35.38 5.9 55.91 16.67l-0.57 9.82c-22.51-8.14-42.2-17.72-55.34-26.49z"/>
 <ellipse class="st11" transform="matrix(.0822 -.9966 .9966 .0822 -29.75 626)" cx="325" cy="329.2" rx="4.09" ry="5.08"/>
 <ellipse class="st11" transform="matrix(.2846 -.9586 .9586 .2846 -285.3 670.9)" cx="306.9" cy="526.6" rx="4.37" ry="5.18"/>
 <path class="st18" d="m324.8 517.3 2.03 4.21c-20.95-3.76-40.17-2.82-53.06 10.49l-0.01 0.01c-0.16-0.09-0.33-0.17-0.48-0.25-0.48-0.24-0.96-0.5-1.43-0.75-0.53-0.28-1.05-0.56-1.57-0.85 13.45-14.64 33.09-16.32 54.52-12.86z"/>
 <path class="st18" d="m369.8 348.1c-0.29 1.48-0.58 2.73-0.82 3.7-46.54-11.63-79.63-14.5-92.99-8.15 1.2-1.87 2.45-3.63 3.75-5.29 13.42-3.52 39.62-2.9 90.06 9.74z"/>
 <path class="st19" d="m373 392.2-11.11 34.02c-5.97 0.91-12.04 0.79-18.44-1.01-27.53-7.78-40.21-41.62-93.65-11.25 0.68-2.32 1.37-4.65 2.05-7.03 0.94-3.26 1.85-6.38 2.75-9.4 0.53-1.8 1.05-3.56 1.59-5.28v-0.02c0.26-0.86 0.53-1.72 0.79-2.56 1.14-3.69 2.26-7.21 3.38-10.56 0.27-0.82 0.55-1.63 0.82-2.43 0.07-0.21 0.14-0.41 0.21-0.62 0.2-0.6 0.4-1.18 0.62-1.77 0.27-0.78 0.55-1.56 0.82-2.32 1.09-3.06 2.2-5.98 3.33-8.74 0.5-1.21 0.98-2.4 1.49-3.55 0.35-0.83 0.71-1.64 1.06-2.44 15.07 16.58 44.22-7.84 67.58-3.09 1.09 0.22 2.16 0.46 3.23 0.72l10.22 11.85c-10.86 4.69-2.64 15.08-2.64 15.08l15.43 0.89-2.63-2.4 7.31 6.63 5.79 5.28z"/>
 <path class="st18" d="m487.7 369.7 15.46-3.2c1.52-0.31 3.07 0.35 3.89 1.67l4.63 7.43c-1.87 12.53 5.68 8.28 8.37 13.42 2.08 3.97-2 13.41-2 13.41l-30.35-32.73z"/>
 <path class="st10" d="m535 474.1-22.65 57.24c36.54-22.73 33.51-17.44 22.65-57.24z"/>
 <path class="st9" d="m530.5 492.4c-6.64 19.13-14.24 35.07-24.28 47.62-0.5 0.61-1 1.22-1.51 1.83-0.26 0.31-0.53 0.62-0.8 0.93-0.67 0.77-1.35 1.55-2.06 2.29-0.48 0.53-0.96 1.05-1.48 1.56-0.44 0.46-0.89 0.92-1.36 1.39-0.3 0.3-0.61 0.6-0.92 0.89-0.32 0.3-0.64 0.6-0.97 0.9-0.36 0.35-0.74 0.68-1.11 1-0.13 0.12-0.27 0.24-0.4 0.35-0.37 0.34-0.77 0.68-1.18 1.01-0.36 0.31-0.73 0.62-1.1 0.92-0.16 0.13-0.31 0.27-0.48 0.37-0.47 0.39-0.93 0.75-1.41 1.11-0.13 0.1-0.26 0.2-0.39 0.29-0.5 0.4-1.01 0.77-1.53 1.13-1.92 1.38-3.9 2.66-5.96 3.87-1.41 0.84-2.86 1.63-4.35 2.38-0.76 0.38-1.52 0.75-2.3 1.11-0.05 0.03-0.1 0.06-0.17 0.08-0.7 0.33-1.42 0.64-2.14 0.95-0.6 0.26-1.2 0.52-1.82 0.77-0.77 0.31-1.54 0.61-2.32 0.9-0.01 0-0.02 0.01-0.03 0.02-0.45 0.17-0.91 0.34-1.37 0.49-0.28 0.11-0.55 0.2-0.83 0.29-0.08 0.03-0.18 0.06-0.28 0.09-0.69 0.24-1.39 0.47-2.1 0.69-0.13 0.04-0.29 0.1-0.43 0.14-0.68 0.21-1.37 0.41-2.05 0.6-0.09 0.04-0.19 0.06-0.28 0.09-0.81 0.22-1.61 0.44-2.44 0.65-0.85 0.22-1.71 0.42-2.6 0.63-7.64 1.75-16.05 2.79-25.32 3.1-0.68 0.03-1.36 0.06-2.06 0.07-0.25 0.01-0.52 0.01-0.78 0.01-0.55 0.02-1.1 0.02-1.65 0.03-0.89 0.01-1.77 0.01-2.67 0.01-6.37-0.03-12.92-0.43-19.59-1.19-1.12-0.12-2.23-0.25-3.34-0.4-0.26-0.02-0.54-0.07-0.83-0.1-1.06-0.14-2.09-0.28-3.16-0.44l-0.12-0.02c-1.02-0.16-2.06-0.31-3.1-0.47-0.38-0.07-0.76-0.13-1.15-0.19-1-0.17-2.01-0.33-3-0.52-1.23-0.22-2.48-0.45-3.71-0.68-1.24-0.24-2.48-0.49-3.72-0.75-0.97-0.19-1.93-0.41-2.9-0.61-0.36-0.08-0.72-0.16-1.09-0.24-1.15-0.25-2.3-0.52-3.46-0.79-1.02-0.23-2.05-0.49-3.08-0.74-0.55-0.13-1.1-0.26-1.65-0.4-0.9-0.22-1.82-0.45-2.72-0.69-1.06-0.28-2.11-0.56-3.16-0.84-1.48-0.4-2.96-0.82-4.44-1.24-1.18-0.34-2.36-0.68-3.55-1.04-0.89-0.26-1.77-0.53-2.67-0.8-0.62-0.2-1.25-0.39-1.87-0.59-5.84-1.83-11.6-3.81-17.25-5.89-1.18-0.44-2.35-0.88-3.53-1.32-3.48-1.33-6.92-2.69-10.29-4.09l22.09-3.37s4.18-21 6.17-23.97c1.98-2.96 11.51-11.49 11.51-11.49l-1.2-18.62-6.42-0.72 35.26-98.05 0.01-0.02 6.83-10.53 6.41-1.74-6.58-16.76c-0.39-1 0.4-2.09 1.49-2.01l14.92 1.09h0.03c0.58-1.16 1.14-2.31 1.67-3.42 2.89-6.01 5.39-11.47 7.35-15.84 1.66-3.71 2.92-6.64 3.71-8.48 15.43 6.06 30.92 13.43 45.42 21.88 17.07 9.97 31.37 22.48 42.17 36.66 2.72 3.58 5.23 7.26 7.5 11.02 1.24 2.04 2.39 4.09 3.49 6.17 1.06 2.02 2.04 4.06 2.97 6.13 0.38 0.84 0.75 1.69 1.11 2.56 0.32 0.78 0.66 1.56 0.97 2.35 0.05 0.13 0.11 0.27 0.15 0.4 0.25 0.62 0.48 1.25 0.71 1.89 0.1 0.25 0.2 0.5 0.28 0.75 0.21 0.59 0.41 1.18 0.61 1.77 0.08 0.24 0.17 0.48 0.24 0.72 0.27 0.82 0.54 1.67 0.79 2.5 0.27 0.88 0.52 1.76 0.77 2.63v0.01c0.25 0.88 0.47 1.77 0.69 2.66s0.43 1.79 0.63 2.68c3.79 17.65 2.95 36.22-3.44 54.63z"/>
 <path class="st15" d="m513 393.5c-39.53-37.19-62.72-41.96-91.29-50.06 1.65-3.71 2.92-6.63 3.7-8.48 15.44 6.05 30.93 13.43 45.42 21.89 17.08 9.97 31.37 22.48 42.17 36.65z"/>
 <g class="st16">
  <path class="st17" d="m506.2 540c-0.5 0.61-1 1.22-1.51 1.83-0.26 0.31-0.53 0.62-0.8 0.93-0.67 0.77-1.35 1.55-2.06 2.29-0.48 0.53-0.96 1.05-1.48 1.56-0.44 0.46-0.89 0.92-1.36 1.39-0.3 0.3-0.61 0.6-0.92 0.89-0.32 0.3-0.64 0.6-0.97 0.9-0.36 0.35-0.74 0.68-1.11 1-0.13 0.12-0.27 0.24-0.4 0.35-0.37 0.34-0.77 0.68-1.18 1.01-0.36 0.31-0.73 0.62-1.1 0.92-0.16 0.13-0.31 0.27-0.48 0.37-0.47 0.39-0.93 0.75-1.41 1.11-0.13 0.1-0.26 0.2-0.39 0.29-0.5 0.4-1.01 0.77-1.53 1.13-1.92 1.38-3.9 2.66-5.96 3.87-1.41 0.84-2.86 1.63-4.35 2.38-0.76 0.38-1.52 0.75-2.3 1.11-0.05 0.03-0.1 0.06-0.17 0.08-0.7 0.33-1.42 0.64-2.14 0.95-0.04 0.01-0.07 0.03-0.11 0.05h-0.01c-0.56 0.25-1.13 0.49-1.7 0.72-0.77 0.31-1.54 0.61-2.32 0.9-0.47 0.18-0.94 0.35-1.4 0.51h-0.01c-0.27 0.11-0.54 0.19-0.82 0.29-0.08 0.03-0.18 0.06-0.28 0.09-0.69 0.24-1.39 0.47-2.1 0.69-0.13 0.04-0.29 0.1-0.43 0.14-0.68 0.21-1.37 0.41-2.05 0.6-0.09 0.04-0.19 0.06-0.28 0.09-0.81 0.22-1.61 0.44-2.44 0.65-0.85 0.22-1.71 0.42-2.6 0.63-6.99 1.59-14.63 2.59-23.01 2.99-0.76 0.05-1.53 0.08-2.31 0.11-0.68 0.03-1.36 0.06-2.06 0.07-0.25 0.01-0.52 0.01-0.78 0.01-0.55 0.02-1.1 0.02-1.65 0.03-0.89 0.01-1.77 0.01-2.67 0.01-6.37-0.03-12.92-0.43-19.59-1.19-1.12-0.12-2.23-0.25-3.34-0.4-0.26-0.02-0.54-0.07-0.83-0.1-1.06-0.14-2.09-0.28-3.16-0.44l-0.12-0.02c-1.02-0.16-2.06-0.31-3.1-0.47-0.38-0.07-0.76-0.13-1.15-0.19-1-0.17-2.01-0.33-3-0.52-1.23-0.22-2.48-0.45-3.71-0.68-1.24-0.24-2.48-0.49-3.72-0.75-0.97-0.19-1.93-0.41-2.9-0.61-0.36-0.08-0.72-0.16-1.09-0.24-1.15-0.25-2.3-0.52-3.46-0.79-1.02-0.23-2.05-0.49-3.08-0.74-0.55-0.13-1.1-0.26-1.65-0.4-0.9-0.22-1.82-0.45-2.72-0.69-1.06-0.28-2.11-0.56-3.16-0.84-1.48-0.4-2.96-0.82-4.44-1.24-1.18-0.34-2.36-0.68-3.55-1.04-0.89-0.26-1.77-0.53-2.67-0.8-0.62-0.2-1.25-0.39-1.87-0.59-5.84-1.83-11.6-3.81-17.25-5.89-1.18-0.44-2.35-0.88-3.53-1.32-3.48-1.33-6.92-2.69-10.29-4.09l22.09-3.37s2.71-13.6 4.8-20.45c0.5-1.66 0.98-2.93 1.37-3.52 0 0 0.01-0.01 0.01-0.02 2.02-2.99 11.5-11.47 11.5-11.47l-1.04-16.06c45.84 25.23 93.41 52.89 145.3 45.99z"/>
 </g>
 <path class="st10" d="m435 572.7c-3.07 0.17-6.23 0.24-9.49 0.22-32.92-0.13-71.05-10.64-103.4-24.06l11.97-1.83c2 1.48 4 3.04 5.99 4.68-0.01 0.01 24.62-5.66 94.92 20.99z"/>
 <ellipse class="st10" transform="matrix(.328 -.9447 .9447 .328 -42.53 661.2)" cx="443.5" cy="360.5" rx="4.14" ry="4.3"/>
 <ellipse class="st10" transform="matrix(.328 -.9447 .9447 .328 -31.03 717.8)" cx="489" cy="380.7" rx="4.14" ry="4.3"/>
 <ellipse class="st20" transform="matrix(.3358 -.9419 .9419 .3358 -265.9 703.4)" cx="365.8" cy="540.2" rx="4.76" ry="6.07"/>
 <ellipse class="st20" transform="matrix(.3358 -.9419 .9419 .3358 -249.3 759.1)" cx="413.6" cy="556.3" rx="4.54" ry="5.52"/>
 <path class="st18" d="m474.5 564.4c-0.56 0.25-1.13 0.49-1.7 0.72-0.76 0.31-1.53 0.61-2.31 0.9-0.47 0.18-0.94 0.35-1.41 0.51h-0.01l-109.6-38.05c-3.47-1.2-6.94-2.36-10.4-3.44 0.51-1.67 0.98-2.94 1.37-3.52 0-0.01 0.01-0.02 0.01-0.03 3.42 1.07 6.83 2.21 10.25 3.4l113.8 39.51z"/>
 <path class="st18" d="m524 410.7c-28.86-15.77-71.41-34.04-111.3-47.98h0.03c0.58-1.16 1.13-2.31 1.67-3.43 37.6 13.15 77.46 30.11 106.1 45.24 1.23 2.03 2.39 4.08 3.48 6.17z"/>
 <ellipse class="st21" transform="matrix(.6916 -.7223 .7223 .6916 -197.7 492.9)" cx="478.4" cy="478" rx="26.17" ry="25.72"/>
 <path class="st18" d="m477.9 507c-7.14 0-14.25-2.61-19.76-7.89-11.46-10.98-11.71-29.39-0.55-41.05s29.57-12.21 41.03-1.23c5.56 5.32 8.67 12.53 8.77 20.29 0.1 7.75-2.82 15.12-8.22 20.76-5.79 6.06-13.55 9.12-21.27 9.12zm0.97-54.2c-6.71 0-13.45 2.66-18.49 7.93-9.69 10.12-9.5 26.09 0.43 35.59 9.93 9.51 25.89 9.01 35.58-1.11 4.7-4.91 7.24-11.31 7.15-18.04-0.09-6.72-2.78-12.95-7.58-17.55-4.76-4.56-10.91-6.82-17.09-6.82z"/>
 <path class="st22" d="m486.4 494.2c-8.58 4.15-18.6 1.57-23.74-5.69-0.57-0.78-1.08-1.64-1.51-2.54-1.11-2.28-1.68-4.69-1.77-7.09-0.27-7.2 3.83-14.35 10.97-17.81 2.27-1.1 4.62-1.72 6.96-1.91 5.05-0.45 10.03 1.12 13.77 4.31 1.85 1.56 3.39 3.51 4.51 5.81 4.44 9.16 0.32 20.3-9.19 24.92z"/>
 <path class="st23" d="m477.7 497.7c-6.41 0-12.55-2.95-16.38-8.35-0.61-0.84-1.17-1.77-1.64-2.76-1.18-2.44-1.83-5.04-1.92-7.72-0.3-8.07 4.35-15.64 11.85-19.27 2.4-1.16 4.93-1.85 7.52-2.06 5.41-0.48 10.85 1.22 14.91 4.67 2.06 1.74 3.71 3.87 4.9 6.32 4.8 9.9 0.35 22.02-9.91 27.01-3.03 1.46-6.21 2.16-9.33 2.16zm1.23-37.11c-0.51 0-1.03 0.02-1.54 0.07-2.22 0.17-4.38 0.76-6.42 1.75-6.38 3.09-10.34 9.51-10.08 16.34 0.08 2.25 0.62 4.42 1.61 6.47 0.4 0.82 0.86 1.59 1.37 2.3 4.81 6.8 13.98 8.98 21.8 5.2 8.71-4.24 12.51-14.48 8.46-22.83-0.99-2.05-2.38-3.83-4.11-5.3-3.05-2.58-7.02-4-11.09-4z"/>
 <path class="st19" d="m533.9 437.7c-6.82 1.46-16.65 1.8-26.83-1.12-20.13-5.75-42.41-22.06-61.01-23.68-28.07-2.46-49.02 12.97-70.67 15.06l12.93-33.37 1.28-1.99 11.77 6.19 9.36-9.27c0.89-0.88 2.27-1.08 3.37-0.48 6.2 3.41 12.39 5.47 19.23 5.05 37.43-2.32 52.87 31.3 84.74 24.08 3.37-0.76 6.3-1.22 8.88-1.42 0.38 0.84 0.75 1.69 1.11 2.56 0.32 0.78 0.66 1.56 0.97 2.35 0.05 0.13 0.11 0.27 0.15 0.4 0.25 0.62 0.48 1.25 0.71 1.89 0.1 0.25 0.2 0.5 0.28 0.75 0.21 0.59 0.41 1.18 0.61 1.77 0.08 0.24 0.17 0.48 0.24 0.72 0.27 0.82 0.54 1.67 0.79 2.5 0.27 0.88 0.52 1.76 0.77 2.63v0.01c0.25 0.88 0.47 1.77 0.69 2.66s0.43 1.82 0.63 2.71z"/>
 <ellipse class="st24" transform="matrix(.9919 -.1273 .1273 .9919 -56.5 66.09)" cx="488.6" cy="474.9" rx="3.76" ry="6.31"/>
 <ellipse class="st21" transform="matrix(.581 -.8139 .8139 .581 -206.9 473.1)" cx="356" cy="437.5" rx="57.75" ry="60.05"/>
 <path class="st22" d="m390.9 471.7c-10.38 10.55-24.71 14.99-38.7 13.32-10.53-1.25-20.86-5.96-29.13-14.09-15.19-14.96-18.91-37.02-10.83-54.76v-0.01c2.16-4.72 5.15-9.15 8.97-13.03 18.21-18.5 48.57-18.16 67.81 0.78 19.26 18.93 20.09 49.3 1.88 67.79z"/>
 <path class="st18" d="m358.1 498.3c-12.75 0-25.75-3.89-37.05-11.96-28.02-20-35.14-58.22-15.88-85.2 9.34-13.08 23.41-21.59 39.62-23.98 16.18-2.38 32.56 1.64 46.12 11.32s22.68 23.87 25.69 39.94c3.01 16.1-0.47 32.18-9.81 45.26-11.49 16.11-29.82 24.62-48.69 24.62zm-34.81-15.1c26.28 18.76 62.33 13.49 80.35-11.75 8.72-12.22 11.97-27.24 9.16-42.3-2.82-15.09-11.4-28.41-24.14-37.51s-28.13-12.88-43.32-10.65c-15.16 2.23-28.31 10.18-37.04 22.4-18.01 25.24-11.29 61.05 14.99 79.81z"/>
 <g class="st25">
  <path class="st26" d="m352.2 485.1c-10.53-1.25-20.86-5.96-29.13-14.09-15.19-14.96-18.91-37.02-10.83-54.76-7.66 31.01 48.9 43.6 39.96 68.85z"/>
 </g>
 <ellipse class="st24" transform="matrix(.9836 -.1805 .1805 .9836 -72.36 77.63)" cx="390.3" cy="436.3" rx="5.64" ry="13.53"/>
 <ellipse class="st24" transform="matrix(.8751 -.4839 .4839 .8751 -152.1 236.8)" cx="382.8" cy="413.2" rx="3.36" ry="4.38"/>
 <polygon class="st27" points="355.5 431.7 353.4 429.8 363.6 418.3 353.9 406.2 367.4 405.8 375.8 394.3 378.1 396 368.8 408.6 359.6 408.9 367.2 418.4"/>
 <path class="st23" d="m358 487.3c-1.99 0-4-0.12-6.02-0.36-11.28-1.34-22.02-6.54-30.26-14.63-15.31-15.08-19.84-37.89-11.29-56.8l0.06-0.15c2.31-5.05 5.45-9.62 9.35-13.58 9.18-9.33 21.58-14.35 34.92-14.23 13.31 0.15 25.96 5.47 35.62 14.99 9.67 9.51 15.2 22.07 15.56 35.38 0.37 13.33-4.49 25.81-13.67 35.14-9.05 9.21-21.3 14.24-34.27 14.24zm-43.94-70.45-0.05 0.12c-7.96 17.47-3.77 38.6 10.43 52.58 7.63 7.5 17.57 12.31 28.01 13.55 13.96 1.67 27.48-2.99 37.09-12.76 8.44-8.57 12.9-20.05 12.56-32.33-0.34-12.31-5.46-23.93-14.41-32.74s-20.65-13.74-32.96-13.88c-12.3-0.13-23.69 4.5-32.12 13.07-3.56 3.63-6.43 7.79-8.55 12.39z"/>
 <path class="st10" d="m285.9 538c-4.28-1.96-8.36-3.95-12.18-5.95-1.19-0.62-2.34-1.23-3.47-1.86-8.53-4.61-15.61-9.2-20.79-13.44-17.59-14.42-17.97-33.48-11.93-59.37 1.64-7.09 3.78-14.69 6.18-22.85v-0.01c32.78 18.6 16.17 49.92 16.17 49.92 45.16-1.05 29.61 40.13 26.02 53.56z"/>
 <path class="st28" d="m587.6 557.5c-6.64-13.28-8.03-22.83-4.14-28.41 2.96-4.24 8.03-4.86 10.54-4.89l1.43-13.35 2.92 0.31-1.57 14.71-1.63 1.3c-0.06-0.01-6.35-0.63-9.29 3.6-2.21 3.18-3.25 10.17 4.37 25.4l-2.63 1.33z"/>
 <path class="st28" d="m141.5 548.5c-3.08-12.24-11.97-25.19-20.41-25.19h-0.23c-3.93 0.11-5.43 3.66-6 6.62l-2.4 0.83-8.04-6.94 1.92-2.22 6.27 5.41c1.44-4.14 4.34-6.52 8.17-6.63h0.27c8.12 0 18.97 10.16 23.3 27.41l-2.85 0.71z"/>
 <path class="st28" d="m157.4 552.4-2.39-1.71c5.15-7.18 6.73-13.75 4.71-19.52-4.1-11.69-21.66-16.75-21.84-16.79l-0.77-2.31 9.79-12.89c-16.83-0.86-18.82-9.18-19.02-11.83-0.48-6.37 5.36-12.5 13.02-13.66l0.44 2.91c-6.17 0.93-10.9 5.66-10.53 10.53 0.51 6.77 10.15 9.18 19 9.18l1.17 2.36-10.27 13.53c5.07 1.78 18.02 7.27 21.79 17.99 2.36 6.72 0.65 14.19-5.1 22.21z"/>
 <path class="st29" d="m199.1 473.4c-3.79 9 25.99 31.08 30.96 49.12l3.91-1.57c-3.51-39.52-31.08-56.54-34.87-47.55z"/>
 <path class="st28" d="m328.3 544.2 8.86 1.07c11.57-30.1-11.09-37.14-8.86-1.07z"/>
 <path class="st28" d="m432 539.5 3.67 2.78c20.99-57.3-24.79-52.44-3.67-2.78z"/>
 <path class="st29" d="m531.2 555.2 2.72 1.58c10.55-39.99-20.66-33.21-2.72-1.58z"/>
 <rect class="st28" transform="matrix(.8445 -.5355 .5355 .8445 -220.5 320.8)" x="432.2" y="538.7" width="19.97" height="2.94"/>
 <path class="st29" d="m474.7 548c-5.24-1.33-8.88-5.42-8.65-9.72 0.15-2.98 2.15-5.29 5.49-6.51-3.14-2.49-4.59-5.02-4.3-7.55 0.38-3.28 3.54-5.53 5.92-6.77l-7.58-4.03 1.26-2.36 10.01 5.33-0.19 2.44c-1.77 0.61-6.44 2.83-6.76 5.7-0.23 1.98 1.68 4.29 5.52 6.7l-0.52 2.46c-3.81 0.56-6.06 2.29-6.19 4.74-0.13 2.54 2.15 5.85 6.64 6.99l-0.65 2.58z"/>
 <defs>
  <path id="bk" d="m628.8 562.8c-13.88-7.96-36.44-15.83-47.38-15.83-13.96 0-27.13 3.6-43.7 3.6-24.64 0-30.52-9.38-48.01-9.38-12.54 0-20.99 7.99-32.63 7.99-22.54 0-35.19-34.33-74.03-30.82s-37.98 25.44-67.85 25.44c-23.72 0-44.06-28.08-75.04-28.08s-34.28 23.44-68.53 23.44c-5.79 0-11.64-0.43-17.42-0.43-19.63 0-17.42 7.11-29.08 11.11-11.18 3.83-29.42 0.02-40.49 3.91 0 0 17.29 57.64 96.98 96.57 71.24 34.8 103.5 22.66 85.65 7.6-1.04-0.88-0.16-2.45 1.22-2.18 159.3 31.52 254 3.39 307.1-17.96 55.45-22.28 30.96-29.44 32.91-35.9 1.94-6.48 51.75-21 20.26-39.08z"/>
 </defs>
 <clipPath>
  <use xlink:href="#bk"/>
 </clipPath>
 <defs>
  <path id="bw" d="m441.9 629.7c-1.21-0.1-1.98-1.26-1.54-2.31 2.28-5.4 5.61-5.59 13.44-6.62 8.74-1.15 17.28-3.45 20.87-7.48s12.03-3.46 13.17 6.38c1.15 9.83-0.49 11.66-7.69 12.23-6.04 0.49-30.59-1.54-38.25-2.2z"/>
 </defs>
 <clipPath>
  <use xlink:href="#bw"/>
 </clipPath>
 <path class="st30" d="m628.8 562.8c-13.88-7.96-36.44-15.83-47.38-15.83-13.96 0-27.13 3.6-43.7 3.6-24.64 0-30.52-9.38-48.01-9.38-12.54 0-20.99 7.99-32.63 7.99-22.54 0-35.19-34.33-74.03-30.82s-37.98 25.44-67.85 25.44c-23.72 0-44.06-28.08-75.04-28.08s-34.28 23.44-68.53 23.44c-5.79 0-11.64-0.43-17.42-0.43-19.63 0-17.42 7.11-29.08 11.11-11.18 3.83-29.42 0.02-40.49 3.91 0 0 17.29 57.64 96.98 96.57 71.24 34.8 103.5 22.66 85.65 7.6-1.04-0.88-0.16-2.45 1.22-2.18 159.3 31.52 254 3.39 307.1-17.96 55.45-22.28 30.96-29.44 32.91-35.9 1.94-6.48 51.75-21 20.26-39.08z"/>
 <ellipse class="st31" transform="matrix(.213 -.977 .977 .213 -427.9 817.3)" cx="293.4" cy="674.2" rx="7.32" ry="11.71"/>
 <ellipse class="st31" transform="matrix(.4237 -.9058 .9058 .4237 -465.5 389.7)" cx="73.45" cy="560.7" rx="5.97" ry="7.43"/>
 <defs>
  <path id="s" d="m628.8 562.8c-13.88-7.96-36.44-15.83-47.38-15.83-13.96 0-27.13 3.6-43.7 3.6-24.64 0-30.52-9.38-48.01-9.38-12.54 0-20.99 7.99-32.63 7.99-22.54 0-35.19-34.33-74.03-30.82s-37.98 25.44-67.85 25.44c-23.72 0-44.06-28.08-75.04-28.08s-34.28 23.44-68.53 23.44c-5.79 0-11.64-0.43-17.42-0.43-19.63 0-17.42 7.11-29.08 11.11-11.18 3.83-29.42 0.02-40.49 3.91 0 0 17.29 57.64 96.98 96.57 71.24 34.8 103.5 22.66 85.65 7.6-1.04-0.88-0.16-2.45 1.22-2.18 159.3 31.52 254 3.39 307.1-17.96 55.45-22.28 30.96-29.44 32.91-35.9 1.94-6.48 51.75-21 20.26-39.08z"/>
 </defs>
 <clipPath id="aa">
  <use xlink:href="#s"/>
 </clipPath>
 <g clip-path="url(#aa)">
  <path class="st31" d="m542.4 650.5c-7.53 0-14.92-0.91-22-2.75-15.16-3.92-28.5-12.09-37.55-23-11.88-14.32-7.7-27.88-4.94-36.86 1.32-4.27 2.35-7.64 0.99-8.9-0.79-0.73-2.08-1.7-3.58-2.82-6.32-4.74-15.86-11.91-15.92-20.8-0.03-4.7 2.67-9.19 8.03-13.35l1.63 2.11c-4.67 3.62-7.03 7.39-7 11.22 0.05 7.57 9.32 14.54 14.86 18.7 1.55 1.17 2.89 2.17 3.78 3 2.6 2.4 1.35 6.48-0.25 11.64-2.75 8.93-6.52 21.17 4.44 34.38 8.7 10.48 21.54 18.33 36.17 22.12 15.77 4.08 33.11 3.46 50.14-1.79l0.79 2.54c-9.87 3.03-19.85 4.56-29.59 4.56z"/>
  <path class="st31" d="m202.8 664.8-1.98-1.78c0.1-0.11 9.91-11.2 8.34-24.45-0.98-8.33-6.21-15.82-15.53-22.26l0.53-2.41c24.99-4.39 66.83-11.74 69.23-22.24 0.55-2.4-1.24-5.11-5.33-8.04-9.73-6.99-14.68-11.56-14.74-17.11-0.09-8.71 12.39-18.46 40.63-39.69l1.6 2.13c-26.78 20.13-39.65 30.13-39.57 37.53 0.05 4.42 4.63 8.51 13.63 14.98 5.04 3.62 7.18 7.25 6.37 10.8-2.51 10.97-33.39 17.54-68.28 23.72 8.39 6.48 13.14 13.97 14.11 22.29 1.69 14.46-8.58 26.04-9.01 26.53z"/>
  <path class="st31" d="m442.6 673.1c-6.64-12.43-16.92-20.69-26.85-21.56-8.21-0.72-15.88 3.38-22.77 12.18l-2.13-0.04c-14.02-19.41-49.73-33.21-83.05-32.09-32.88 1.1-59.81 15.81-75.81 41.41l-2.26-1.41c16.49-26.38 44.18-41.53 77.98-42.66 33.91-1.13 68.94 12.17 84.26 31.81 7.14-8.51 15.4-12.6 24.01-11.85 10.81 0.94 21.91 9.74 28.96 22.95l-2.34 1.26z"/>
  <path class="st31" d="m117.1 579.9c-3.7 0-7.76-0.46-12.16-1.38-9.29-1.95-16.55-5.26-16.85-5.4l1.11-2.42c0.29 0.13 28.74 13 43.42 2.18 7.51-5.54 10.24-16.48 8.12-32.5l2.64-0.35c2.26 17.06-0.83 28.84-9.18 35-4.41 3.24-10.14 4.87-17.1 4.87z"/>
  <path class="st31" d="m626.7 556.9c-84.47 3.87-20.87 31.78 19.62 23.85s-19.62-23.85-19.62-23.85z"/>
 </g>
 <path class="st33" d="m359.8 622.7c-9.88 2.12-6.57 6.88 0.52 6.88 4.71 0 10.44-1.88 6.64-6.42-3.29-1.5-7.16-0.46-7.16-0.46z"/>
 <path class="st31" d="m363.7 624.8c-4.92 0-7.99-4.87-5.53-8.76s8.61-3.89 11.07 0-0.62 8.76-5.54 8.76z"/>
 <path class="st31" d="m390 638.4c-6.56 2.38-0.99 5.13 2.64 5.34 3.15 0.19 7.49-0.33 5.62-4.24-3.66-1.7-8.26-1.1-8.26-1.1z"/>
 <path class="st34" d="m394 641c-4.1-0.57-6.28-3.24-3.93-4.82 2.35-1.57 7.48-0.87 9.22 1.27 1.76 2.15-1.19 4.12-5.29 3.55z"/>
 <path class="st31" d="m338.6 651.5c-23 11.65-50.01 4.62-34.21-5.62 18.74 2.75 34.21 5.62 34.21 5.62z"/>
 <path class="st34" d="m304.1 646.2c9.39-11.27 11.71-13.66 34.89 2.85 0.95 0.68 0.71 2.06-0.43 2.42-7.48 2.36-28.78 0.42-34.21-3.33-0.66-0.46-0.75-1.34-0.25-1.94z"/>
 <defs>
  <path id="r" d="m304.1 646.2c9.39-11.27 11.71-13.66 34.89 2.85 0.95 0.68 0.71 2.06-0.43 2.42-7.48 2.36-28.78 0.42-34.21-3.33-0.66-0.46-0.75-1.34-0.25-1.94z"/>
 </defs>
 <clipPath id="be">
  <use xlink:href="#r"/>
 </clipPath>
 <g clip-path="url(#be)">
  <path class="st36" d="m311.8 655.7-2.34-0.25c0.03-0.25 0.72-6.28 6.42-10.69 5.21-4.02 12.75-5.31 22.42-3.84l-0.35 2.33c-8.98-1.37-15.9-0.24-20.58 3.35-4.92 3.76-5.56 9.04-5.57 9.1z"/>
 </g>
 <path class="st33" d="m145.4 606.9c-6.64 10.52 4.32 18.24 19.47 14.94-11.11-10.01-19.47-14.94-19.47-14.94z"/>
 <path class="st31" d="m166.7 621.3c2.71-10.52-2.53-12.67-7.49-7.24-3.83-11.64-12.26-8.79-13.85-7.16-1.59 1.64 20.27 18.55 21.34 14.4z"/>
 <path class="st31" d="m246.4 623c-9.31 3.19-7.14 7.85-2.07 8.59 6.17 0.9 11.62-1.01 10.14-7.51l-8.07-1.08z"/>
 <path class="st34" d="m252.3 626.2c-4.54 1.65-8.87-0.82-7.79-4.43s6.75-5.68 10.21-3.71 2.12 6.5-2.42 8.14z"/>
 <path class="st33" d="m441.8 628.4c-1.6 4.05 9.59 4.83 15.84 7.89 5.53 2.71 12.65 5.55 19.72 4.54 7.84-1.12 10.78-5.55 7.32-11.16-42.71-0.45-42.88-1.27-42.88-1.27z"/>
 <path class="st31" d="m441.9 629.7c-1.21-0.1-1.98-1.26-1.54-2.31 2.28-5.4 5.61-5.59 13.44-6.62 8.74-1.15 17.28-3.45 20.87-7.48s12.03-3.46 13.17 6.38c1.15 9.83-0.49 11.66-7.69 12.23-6.04 0.49-30.59-1.54-38.25-2.2z"/>
 <defs>
  <path id="ak" d="m441.9 629.7c-1.21-0.1-1.98-1.26-1.54-2.31 2.28-5.4 5.61-5.59 13.44-6.62 8.74-1.15 17.28-3.45 20.87-7.48s12.03-3.46 13.17 6.38c1.15 9.83-0.49 11.66-7.69 12.23-6.04 0.49-30.59-1.54-38.25-2.2z"/>
 </defs>
 <clipPath id="al">
  <use xlink:href="#ak"/>
 </clipPath>
 <g clip-path="url(#al)">
  <path class="st38" d="m477.2 634-2.15-0.1c0-0.06 0.22-6.36-3.91-10.77-2.61-2.79-6.43-4.27-11.34-4.4l0.05-2.16c5.52 0.14 9.85 1.85 12.87 5.1 4.75 5.1 4.49 12.04 4.48 12.33z"/>
 </g>
 <defs>
  <path id="ca" d="m628.8 562.8c-13.88-7.96-36.44-15.83-47.38-15.83-13.96 0-27.13 3.6-43.7 3.6-24.64 0-30.52-9.38-48.01-9.38-12.54 0-20.99 7.99-32.63 7.99-22.54 0-35.19-34.33-74.03-30.82s-37.98 25.44-67.85 25.44c-23.72 0-44.06-28.08-75.04-28.08s-34.28 23.44-68.53 23.44c-5.79 0-11.64-0.43-17.42-0.43-19.63 0-17.42 7.11-29.08 11.11-11.18 3.83-29.42 0.02-40.49 3.91 0 0 17.29 57.64 96.98 96.57 71.24 34.8 103.5 22.66 85.65 7.6-1.04-0.88-0.16-2.45 1.22-2.18 159.3 31.52 254 3.39 307.1-17.96 55.45-22.28 30.96-29.44 32.91-35.9 1.94-6.48 51.75-21 20.26-39.08z"/>
 </defs>
 <clipPath>
  <use xlink:href="#ca"/>
 </clipPath>
 <defs>
  <path id="bj" d="m441.9 629.7c-1.21-0.1-1.98-1.26-1.54-2.31 2.28-5.4 5.61-5.59 13.44-6.62 8.74-1.15 17.28-3.45 20.87-7.48s12.03-3.46 13.17 6.38c1.15 9.83-0.49 11.66-7.69 12.23-6.04 0.49-30.59-1.54-38.25-2.2z"/>
 </defs>
 <clipPath>
  <use xlink:href="#bj"/>
 </clipPath>
 <path class="st29" d="m247.6 518.5-0.69-2.86c5.16-1.24 8.07-3 8.42-5.07 0.53-3.19-4.78-7.36-6.69-8.56l-0.02-2.47c1.98-1.29 4.24-3.4 3.82-6.12-0.42-2.75-3.48-5.45-7.44-6.56l-0.26-2.73c7.81-3.9 8.8-6.68 8.69-7.99-0.17-2.05-3.2-4.17-8.1-5.67l0.86-2.81c6.37 1.95 9.88 4.8 10.17 8.24 0.26 3.17-2.19 6.24-7.47 9.34 3.52 1.79 5.99 4.67 6.46 7.74 0.26 1.69 0.08 4.77-3.42 7.77 2.6 1.98 7.01 6.04 6.3 10.32-0.57 3.41-4.05 5.84-10.63 7.43z"/>
 <path class="st28" d="m398.3 523.4-0.74-2.85c5.97-1.55 9.45-3.78 10.06-6.43 0.79-3.48-3.42-7.17-3.47-7.21l0.92-2.59c4.31-0.09 7.33-1.36 8.97-3.78 3.35-4.92 0.35-13.2 0.32-13.28l2.76-1.02c0.15 0.4 3.56 9.77-0.64 15.95-1.76 2.59-4.53 4.2-8.27 4.8 1.45 1.89 2.97 4.73 2.27 7.78-0.87 3.85-4.97 6.75-12.18 8.63z"/>
 <path class="st39" d="m330.6 566.9c-4.92 22.11 119.8 34.95 134.6 16.56s-129.6-38.67-134.6-16.56z"/>
 <path class="st39" d="m304.1 565.7c-9.98-1.85-15.19-7.66-9.38-10.46 5.81-2.79 18.28-0.48 22.45 4.17 4.16 4.65-3.09 8.15-13.07 6.29z"/>
 <path class="st40" d="m465.1 281.9c-7.04 3.52-15.26-1.9-14.79-9.76s9.28-12.26 15.85-7.93c6.58 4.34 5.99 14.17-1.06 17.69z"/>
 <path class="st41" d="m445.3 323.9c-3.82 0-6.2-4.13-4.29-7.44s6.68-3.3 8.59 0-0.48 7.44-4.3 7.44z"/>
 <path class="st40" d="m399.7 329.5c-3.96 2.49-9.14-0.24-9.32-4.91-0.18-4.68 4.77-7.8 8.92-5.61s4.36 8.03 0.4 10.52z"/>
 <path class="st41" d="m385.3 352.2c-3.08 0-5.01-3.34-3.47-6.01s5.39-2.67 6.93 0c1.55 2.68-0.37 6.01-3.46 6.01z"/>
 <path class="st41" d="m404.8 245.8c-5.72 2.79-12.32-1.66-11.87-8.02 0.45-6.35 7.6-9.84 12.88-6.27 5.28 3.56 4.72 11.5-1.01 14.29z"/>
 <path class="st40" d="m364.5 213.4c-5.14 2.2-10.73-1.98-10.07-7.53s7.08-8.3 11.56-4.95c4.47 3.34 3.64 10.28-1.49 12.48z"/>
 <path class="st41" d="m304.8 222.2c-2.64 2.64-7.16 1.43-8.13-2.18s2.34-6.92 5.95-5.95 4.82 5.49 2.18 8.13z"/>
 <path class="st40" d="m254.8 320.6c-4.7 0-7.63-5.08-5.28-9.15s8.22-4.07 10.57 0c2.34 4.06-0.6 9.15-5.29 9.15z"/>
 <path class="st42" d="m235.1 340.8c-3.23 0-5.25-3.5-3.63-6.29 1.61-2.8 5.65-2.8 7.26 0 1.61 2.79-0.4 6.29-3.63 6.29z"/>
 <path class="st41" d="m226.9 315.5c-3.38 0.88-6.44-2.22-5.51-5.59 0.93-3.36 5.14-4.46 7.6-1.98 2.44 2.49 1.28 6.69-2.09 7.57z"/>
 <path class="st41" d="m437.5 188.7c-7.07 7.07-18.62 4.37-20.78-4.86s6.68-18.08 15.92-15.92c9.23 2.16 11.94 13.7 4.86 20.78z"/>
 <path class="st7" d="m437.6 176c1.92 3.84 0.11 7.74-3.25 7.02s-5.76-5.51-4.32-8.63 5.65-2.23 7.57 1.61z"/>
 <path class="st33" d="m381 609.1c-20.75-1.35-33.44-6.46-22.85-9.21 10.6-2.75 36.54-1.07 46.69 3.03 10.15 4.08-3.09 7.52-23.84 6.18z"/>
 <path class="st33" d="m545.6 602.3c-23.16-4.73-36.3-14.26-23.64-17.15s41.61 3.03 52.12 10.65c10.5 7.62-5.32 11.23-28.48 6.5z"/>
 <path class="st43" d="m578 606c-4.16 0.6-7.26-2.5-5.58-5.58s6.88-3.83 9.36-1.35 0.38 6.33-3.78 6.93z"/>
 <path class="st18" d="m573 580.4c-4.95 17.16-15.24 9.38-17.07 18.13-10.33-25.77 7.25-27.2 17.07-18.13z"/>
 <path class="st43" d="m571.4 581.7c0.97 1.09 2.74 0.74 3.15-0.66 4.67-15.69 6.39-21.43 0.58-27.04-6.24-6.04-22.99-14.64-33.93-14.72-10.95-0.08-9.07 0.85-10.97 12.07s-7.84 20.81-5.33 24.99c1.94 3.22 12.22 14.71 16.85 19.82 1.43 1.58 3.47 2.47 5.61 2.46l8.57-0.08c-2.69-12.66 2.89-11.21 5.78-9.74 0.68 0.34 1.46-0.18 1.42-0.94-0.72-11.39 4.72-10.17 8.27-6.16z"/>
 <path class="st44" d="m554.2 554.5c-11.82-4.96-18.09-10.73-11.28-10.38s21.58 6.55 26.6 11.16c5.01 4.61-3.5 4.18-15.32-0.78z"/>
 <defs>
  <path id="ce" d="m571.4 581.7c0.97 1.09 2.74 0.74 3.15-0.66 4.67-15.69 6.39-21.43 0.58-27.04-6.24-6.04-22.99-14.64-33.93-14.72-10.95-0.08-9.07 0.85-10.97 12.07s-7.84 20.81-5.33 24.99c1.94 3.22 12.22 14.71 16.85 19.82 1.43 1.58 3.47 2.47 5.61 2.46l8.57-0.08c-2.69-12.66 2.89-11.21 5.78-9.74 0.68 0.34 1.46-0.18 1.42-0.94-0.72-11.39 4.72-10.17 8.27-6.16z"/>
 </defs>
 <clipPath id="cb">
  <use xlink:href="#ce"/>
 </clipPath>
 <g clip-path="url(#cb)">
  <path class="st18" d="m577.2 584.1c-1.43-0.2-35.22-5.06-52.45-30.69l3.2-2.15c16.25 24.17 49.44 28.98 49.77 29.02l-0.52 3.82z"/>
  <path class="st18" d="m564.1 590c-1.07-0.2-26.3-5.17-41.47-25.58l3.1-2.3c14.25 19.18 38.85 24.05 39.09 24.09l-0.72 3.79z"/>
 </g>
 <path class="st33" d="m207.1 592.7c-24.57 5.72-56.27 5.77-45.09-1.86 11.18-7.64 56.84-17.23 70.24-15.32s-0.58 11.46-25.15 17.18z"/>
 <path class="st18" d="m234.5 554.2c1.75 10.91-2.17 23.07-10.06 28.15-6.13 3.95-17.39 3.89-24.62 0.29-17.11-8.51-19.89-32.1-5.26-44.4s36.82-3.44 39.94 15.96z"/>
 <path class="st43" d="m234.7 555.3c2.98 18.54-10.08 32.54-23.52 25.18s-17.16-30.53-6.71-41.72 27.24-2.01 30.23 16.54z"/>
 <path class="st46" d="m223.8 556c1.35 8.4-3.2 14.52-8.18 11.01-4.99-3.51-6.68-14.01-3.04-18.9s9.87-0.52 11.22 7.89z"/>
 <rect class="st47" transform="matrix(.9958 -.0915 .0915 .9958 -50.03 22.22)" x="210.7" y="555.3" width="13.1" height="2.59"/>
 <path class="st43" d="m205.2 534.3c-42.04-26.25-48.44-59.12-39.72-72.68 9.51-14.79 18.67 4.52 24.46 27.6 4.77 19 4.97 44.22 4.95 49.54 0 0.46 0.49 0.75 0.89 0.53l9.42-4.99z"/>
 <path class="st43" d="m193.8 564.9c0.17 1.4-0.3 2.78-1.25 3.81-32.74 35.65-73.94 11.83-71.69-13.07 0.82-9.08 5.43-16.67 12.76-20.9 12.69-7.33 33.52-4.56 56.89 18.06 0.31 0.3 0.63 0.61 0.94 0.92 0.76 0.76 1.24 1.76 1.37 2.82l0.98 8.36z"/>
 <path class="st48" d="m165.5 461.6c-8.69 22.06 7.46 43.44 22.83 57.96 5.4 5.1 11.15 9.83 17.21 14.21l-0.63 1.04c-6.7-3.55-12.9-8-18.62-13-16.39-14.2-32.99-38.55-20.79-60.21z"/>
 <path class="st18" d="m190.5 552.8c-4.83 7.05-15.62 10.62-21.85-8.93 0 0-25.28 27.71-35.04-9.13 12.7-7.33 33.52-4.56 56.89 18.06z"/>
 <path class="st31" d="m524.8 644.2-2.53-0.84c0.04-0.14 4.45-15.26-27.25-25.37l0.81-2.54c14.38 4.59 23.64 10.77 27.51 18.38 2.93 5.77 1.52 10.18 1.46 10.37z"/>
 <path class="st49" d="m533.7 634.2c-0.14-0.09-3.5-2.27-4.05-5.83-0.11-0.74-0.1-1.49 0.04-2.22-3.18 1.09-7.9 2.27-12.36 1.69-3.41-0.44-5.93-2.74-6.58-5.99-0.15-0.74-0.2-1.55-0.13-2.4-9.08 0.37-11.61-3.72-12.24-5.25-2.04-4.99 2.26-11.54 10.97-16.69l1.53 2.58c-8.31 4.91-10.86 10.17-9.72 12.97 0.83 2.03 3.97 3.77 10.16 3.34 1.21-3.2 4.04-6.69 9.27-9.71 4.81-2.78 9.57-3.4 12.14-1.58 1.24 0.88 1.79 2.22 1.51 3.7-0.71 3.72-6.29 7.14-15.32 9.37-1.92 0.47-3.66 0.8-5.24 1.01-0.12 0.76-0.1 1.47 0.02 2.08 0.4 2.01 1.87 3.33 4.03 3.61 6.59 0.85 14.34-2.88 14.41-2.92l1.81 2.31c-1.07 1.27-1.5 2.46-1.33 3.65 0.33 2.21 2.68 3.76 2.7 3.77l-1.62 2.51zm-4.79-27.14c-1.61 0-3.96 0.56-6.83 2.22-3.71 2.14-5.99 4.49-7.24 6.67 1.05-0.18 2.16-0.42 3.34-0.71 9.76-2.41 12.83-5.64 13.09-7.01 0.05-0.26 0.02-0.47-0.3-0.69-0.39-0.28-1.09-0.48-2.06-0.48z"/>
 <rect class="st31" transform="matrix(.2294 -.9733 .9733 .2294 -361.8 766.9)" x="302.1" y="595.6" width="2.66" height="32.77"/>
 <path class="st50" d="m311.3 606.5-2.43-0.06c0.07-2.8-0.82-5.45-1.94-5.79-0.91-0.28-2.85 0.91-5.52 5.09l-2.22-0.43c-0.23-1.24-1.31-4.9-3.18-5.39-1.22-0.32-2.96 0.81-4.9 3.17l-1.88-1.54c2.65-3.22 5.14-4.56 7.39-3.97 2.21 0.57 3.51 2.85 4.22 4.72 2.5-3.29 4.73-4.59 6.79-3.96 2.65 0.79 3.75 4.67 3.67 8.16z"/>
 <path class="st43" d="m318.8 609.4c-3.2 6.01-8.9 7.8-10.26 3.22s2.64-12.1 7.2-13.53c4.57-1.43 6.26 4.3 3.06 10.31z"/>
 <rect class="st31" transform="matrix(.0626 -.998 .998 .0626 -116 1037)" x="492.9" y="571.4" width="2.66" height="18"/>
 <path class="st50" d="m493.2 580.4-1.31-2.05c3.47-2.22 4.28-3.09 4.35-3.43-0.14-0.33-1.59-1.22-2.75-1.93-0.42-0.26-0.87-0.53-1.36-0.84l0.22-2.17c2.32-0.86 3.76-1.98 4.17-3.25 0.41-1.28-0.31-2.39-0.32-2.4l2.01-1.36c0.06 0.08 1.39 2.1 0.62 4.51-0.48 1.51-1.65 2.79-3.48 3.81 2.01 1.24 3.3 2.16 3.32 3.63 0.02 1.69-1.67 3.05-5.47 5.48z"/>
 <path class="st43" d="m497 564.7c-6.2 0.71-10.45-2.24-7.67-5.31s10.53-3.95 13.94-1.59-0.08 6.19-6.27 6.9z"/>
 <polygon class="st51" points="404.2 566.1 403 563.7 424 552.7 427.6 560.5 425.2 561.7 422.7 556.4"/>
 <rect class="st52" transform="matrix(.4888 -.8724 .8724 .4888 -275.7 633.9)" x="394.3" y="550.8" width="17.48" height="2.67"/>
 <rect class="st53" transform="matrix(.258 -.9661 .9661 .258 -244.1 785.9)" x="385.3" y="550.6" width="8.6" height="2.67"/>
 <rect class="st53" transform="matrix(.9706 -.2407 .2407 .9706 -121.5 106)" x="371.8" y="543.9" width="2.67" height="12.76"/>
 <rect class="st53" transform="matrix(.7317 -.6817 .6817 .7317 -284.8 394.7)" x="357.6" y="554.2" width="2.67" height="9.78"/>
 <polygon class="st52" points="363.2 603.8 355.6 600.2 356.8 597.7 363.2 600.8 368.7 590 371 591.3 365 603.2"/>
 <path class="st53" d="m416.8 580.1c-2.69 0-5.48-0.43-8.12-1.58l1.07-2.45c8.9 3.88 20.48-1.89 20.59-1.95l1.21 2.38c-0.37 0.2-7.17 3.6-14.75 3.6z"/>
 <path class="st52" d="m402.4 589c-5.39 3.95-12.96 6.24-21.01 5.71-6.57-0.43-12.32-2.83-16.6-6.31-8.4-6.8-11.16-17.69-3.57-25.82 3.66-3.91 8.98-6.38 14.79-7.42 11.81-2.16 25.63 1.51 31.56 10.59 0.28 0.44 0.55 0.89 0.8 1.36 4.51 8.45 1.19 16.63-5.97 21.89z"/>
 <path class="st51" d="m407.6 565.8c-3.09 2.51-9.53 3.38-16.99 1.44-9.2-2.38-14.97-7.74-14.57-12.03 11.81-2.16 25.63 1.51 31.56 10.59z"/>
 <path class="st52" d="m379.7 552.7c-1.57-15.08 3.75-19.92 3.97-20.12l1.76 2.01c-0.03 0.03-4.48 4.32-3.08 17.83l-2.65 0.28z"/>
 <polygon class="st52" points="364.6 556 360.2 544.4 356.1 545.4 355.4 542.8 361.8 541.2 367.1 555"/>
 <rect class="st53" transform="matrix(.9997 -.0263 .0263 .9997 -14.99 9.503)" x="344.5" y="573.1" width="18.29" height="2.67"/>
 <rect class="st52" transform="matrix(.8296 -.5584 .5584 .8296 -267.3 299)" x="345.7" y="586" width="21.01" height="2.67"/>
 <rect class="st52" transform="matrix(.0511 -.9987 .9987 .0511 -233.4 956.6)" x="382.4" y="599.8" width="8.56" height="2.67"/>
 <rect class="st52" transform="matrix(.9195 -.3932 .3932 .9195 -202.7 204.4)" x="396.3" y="587.8" width="2.67" height="18.45"/>
 <polygon class="st53" points="416 596.3 401.8 583.6 403.6 581.6 416.1 592.8 422.5 587.6 424.2 589.6"/>
 <path class="st7" d="m394.4 578.8c-5.37 1.35-9.99-2.93-8.33-7.67 0.35-1.01 0.94-1.89 1.68-2.6 2.71-2.65 7.49-3.11 10.4-0.42 0.2 0.19 0.38 0.38 0.54 0.58 2.92 3.46 0.79 8.85-4.29 10.11z"/>
 <path d="m392.6 573.8c-3.32-0.6-5.33-3.06-4.86-5.24 2.71-2.65 7.49-3.11 10.4-0.42 0.2 0.19 0.38 0.38 0.54 0.58 1.37 3.04-1.89 5.82-6.08 5.08z"/>
 <path class="st7" d="m372 576.9c-5.09-2.16-6.21-8.36-2.02-11.16 0.25-0.16 0.5-0.31 0.76-0.43 3.6-1.74 8.32 0.01 10.08 3.52 0.29 0.56 0.49 1.15 0.61 1.79 0.9 4.96-4.34 8.45-9.43 6.28z"/>
 <path d="m380.9 568.9c-0.34 2.16-2.96 3.78-6.16 3.26-4.12-0.67-6.2-4.37-3.92-6.78 3.59-1.74 8.32 0.01 10.08 3.52z"/>
 <path d="m392.9 585.9c-8.09-2.7-22.35-2.73-22.49-2.73v-2.67c0.6 0 14.83 0.03 23.34 2.87l-0.85 2.53z"/>
 <path d="m390.6 568.8c-1.88 0-3.65-0.41-4.91-0.89l0.96-2.49c0.32 0.12 7.88 2.92 10.67-3.56l2.46 1.06c-1.96 4.55-5.77 5.88-9.18 5.88z"/>
 <path d="m381.4 568.4c-2.22 0-8.36-0.71-11.29-8.15l2.49-0.98c2.84 7.21 9.21 6.45 9.27 6.44l0.35 2.65c-0.01 0.01-0.32 0.04-0.82 0.04z"/>
 <path class="st53" d="m402.4 589v0.01c-5.39 3.95-12.96 6.24-21 5.71-6.58-0.44-12.32-2.84-16.6-6.31 3.09-1 8.71-1.73 15.52 2.21-0.01 0 10.34-6.06 22.08-1.62z"/>
 <rect class="st31" transform="matrix(.9995 -.033 .033 .9995 -18.98 9.477)" x="267.4" y="578.1" width="20" height="2.66"/>
 <path class="st54" d="m276.2 568.3c-0.05-0.38-0.6-3.82-4.59-3.93l-0.73-2.16 4.45-3.59 1.53 1.89-2.45 1.97c2.89 1.17 4.02 3.93 4.21 5.54l-2.42 0.28z"/>
 <path class="st18" d="m281.4 577.9c-6.35 2.89-12.32 0.28-10.75-4.69s9.51-8.58 14.28-6.49c4.78 2.09 2.82 8.3-3.53 11.18z"/>
 <rect class="st55" transform="matrix(.4059 -.9139 .9139 .4059 -356.9 596.4)" x="275.3" y="571.4" width="9.87" height="2.43"/>
 <defs>
  <path id="by" d="m166 132c-0.8-13.83-14.31-0.41-14.31-0.41-5.56-15.49-17.61-3.05-17.61-3.05l57.23 31.58c5.79-45.67-6.47-37.18-25.31-28.12z"/>
 </defs>
 <clipPath>
  <use xlink:href="#by"/>
 </clipPath>
 <defs>
  <path id="i" d="m485.4 92.89c-4.87 8.53-19.52 16.01-50.95 30.44-1.55 0.71-3.39 0.16-4.3-1.28-11.68-18.55-17.35-28.93-18.27-36.25v-0.03c-1.9-15.17 16.59-17.19 44.11-51.55 3.56-3.54 14.05 1.39 14.05 1.39 11.35 33.03 21.79 46.06 15.36 57.28z"/>
 </defs>
 <clipPath>
  <use xlink:href="#i"/>
 </clipPath>
 <defs>
  <path id="g" d="m680.2 246.2c3.2-26.96 19.3-38.56 24.05-41.43 0.5-0.3 1.1 0.15 0.98 0.72-9.41 41.85 20.74 56.04 29.35 59.19 0.63 0.23 0.55 1.13-0.1 1.27-26.77 5.76-45.93-5.31-47.87-6.49-0.11-0.07-0.19-0.16-0.25-0.27l-6.1-12.62c-0.05-0.11-0.07-0.25-0.06-0.37z"/>
 </defs>
 <clipPath>
  <use xlink:href="#g"/>
 </clipPath>
 <defs>
  <path id="bb" d="m210.5 82.06c-11.51 0.47-20.35-7.07-22.1-16.23l29.75-21.65c3.85 1.44 7.3 3.96 9.8 7.58 8.84 12.77-0.85 29.61-17.45 30.3z"/>
 </defs>
 <clipPath>
  <use xlink:href="#bb"/>
 </clipPath>
 <defs>
  <path id="az" d="m532.8 193c-1.08-5.3-5.51-12.26-7.99-15.86-0.55-0.79 0.24-1.82 1.15-1.51 5.72 1.93 18.96 7.42 29.48 19.54 0.65 0.75-0.09 1.88-1.04 1.61-11.33-3.17-17.52-0.02-17.52-0.02l-4.08-3.76z"/>
 </defs>
 <clipPath>
  <use xlink:href="#az"/>
 </clipPath>
 <defs>
  <path id="bn" d="m534.4 191.8c-18.06 13.37-36.97 9.7-42.45 13.67-4.5 3.26-3.29 21.21-2.72 27.54 0.11 1.25 1.16 2.23 2.42 2.21 46.9-0.56 49.68-38.5 42.75-43.42z"/>
 </defs>
 <clipPath>
  <use xlink:href="#bn"/>
 </clipPath>
 <defs>
  <path id="n" d="m43.01 194.8-4.41-17.08c-20.37 3.93-18.45 25.89-18.45 25.89l16.98-1.32 5.88-7.49z"/>
 </defs>
 <clipPath>
  <use xlink:href="#n"/>
 </clipPath>
 <defs>
  <path id="t" d="m77.64 219.3-10.17-36.63c-0.2-0.72-1.01-1.09-1.68-0.76-24.06 11.89-28.48 36.21-29.23 42.33-0.09 0.74 0.51 1.39 1.26 1.34l36.86-2.13c2.08-0.13 3.52-2.14 2.96-4.15z"/>
 </defs>
 <clipPath>
  <use xlink:href="#t"/>
 </clipPath>
 <defs>
  <path id="bz" d="m77.64 219.3-10.17-36.63c-0.2-0.72-1.01-1.09-1.68-0.76-24.06 11.89-28.48 36.21-29.23 42.33-0.09 0.74 0.51 1.39 1.26 1.34l36.86-2.13c2.08-0.13 3.52-2.14 2.96-4.15z"/>
 </defs>
 <clipPath>
  <use xlink:href="#bz"/>
 </clipPath>
 <defs>
  <path id="am" d="m698.8 467.2-1.82 8.02c8.86 38.56 34.15 13.92 14.41-5.59 42.11-22.43 15.44-33.96-12.59-2.43z"/>
 </defs>
 <clipPath>
  <use xlink:href="#am"/>
 </clipPath>
 <defs>
  <path id="bs" d="m641.2 404.6c-9.85-19.01-19.42-16.01-21.48 11.02l54.16 25.32c-9.6-34.04-10.15-87.41-32.68-36.34z"/>
 </defs>
 <clipPath>
  <use xlink:href="#bs"/>
 </clipPath>
 <defs>
  <path id="ah" d="m700.4 475.2c-65.16 3.91-83.04 14.01-103.2-8.94 19.34-6.13 33.68-9.78 33.68-9.78-14.45-17.55-34.45-10.39-43.41-6.41-0.73-1.08-1.46-2.2-2.21-3.36-1.13-1.74-0.71-4.06 0.94-5.31 51.39-38.96 44.24-42.05 76.57-11.05 32.93 31.57 39.51 36.84 39.51 36.84 1.15 4.39-1.83 8.01-1.83 8.01z"/>
 </defs>
 <clipPath>
  <use xlink:href="#ah"/>
 </clipPath>
 <defs>
  <path id="bq" d="m686.4 259.4c-14.06 21.21-23.09 35.4-30.29 44.7v0.01c-16.06 20.76-22.98 17.12-56.33 12.65 40.87-34.12 43.2-52.63 43.2-52.63-41.04 3.05-64.92 19.12-64.92 19.12 9.97-38.95 20.35-51.7 38.78-52.15 14.76-0.36 34.47 7.09 63.29 15.33 7.74 3.15 6.27 12.97 6.27 12.97z"/>
 </defs>
 <clipPath>
  <use xlink:href="#bq"/>
 </clipPath>
 <defs>
  <path id="ba" d="m314 34.98-12.62 1.87c-1.39 0.21-1.97 1.89-1.01 2.91l30.68 32.59c1.21 1.28 3.33 0.16 2.96-1.55l-5.18-24.14c-0.22-1.04 0.53-2.03 1.58-2.1l12.6-0.82c1.07-0.07 1.82-1.08 1.58-2.12l-8.43-36.93c-0.2-0.87-1.03-1.45-1.92-1.34l-26.25 3.47c-1.11 0.15-1.79 1.28-1.4 2.33l8.78 23.5c0.39 1.04-0.27 2.17-1.37 2.33z"/>
 </defs>
 <clipPath>
  <use xlink:href="#ba"/>
 </clipPath>
 <defs>
  <path id="aw" d="m587 80.26c0.77-0.5 1.71 0.29 1.37 1.14-6.17 15.49-14.78 27.68-22.7 36.63v0.01c-7.52 8.49-14.41 14.04-17.99 16.68-1.24 0.91-3 0.31-3.43-1.17l-6.25-21.48 49-31.81z"/>
 </defs>
 <clipPath>
  <use xlink:href="#aw"/>
 </clipPath>
 <defs>
  <path id="ch" d="m119.6 351.1c-23.41 7.28-42.3 12.83-56.84 14.98-28.06 4.17-39.94-4.27-36.87-37.22 0.19-2.11 1.01-4.13 2.32-5.78 22.97-28.81 38.86-20.32 63.58 0.39 8.3 6.96 17.6 15.3 28.49 24.06 1.29 1.04 0.89 3.08-0.68 3.57z"/>
 </defs>
 <clipPath>
  <use xlink:href="#ch"/>
 </clipPath>
 <defs>
  <path id="ae" d="m119.6 351.1c-23.41 7.28-42.3 12.83-56.84 14.98 0 0-6.53-16.46 8.56-17.49 0 0-1.31-19.63 20.47-25.12 8.3 6.96 17.6 15.3 28.49 24.06 1.29 1.04 0.89 3.08-0.68 3.57z"/>
 </defs>
 <clipPath>
  <use xlink:href="#ae"/>
 </clipPath>
 <defs>
  <path id="at" d="m174.8 199.7c-0.2 3.6 19.41 9.78 19.14 13.06-0.28 3.28-5.39 4.06-27.81-3.15-7.31-2.35-13.47-4.72-19.25-9.2-11.94-9.24-22.24-27.49-37.63-73.22 0 0 0.36-6.63 8.57-7.2 0 0 8.42 4.35 48.29 25.31 7.61 4 13.7 7.33 18.54 10.31 20.53 12.61 18.85 18.79 17.5 42.1 0 0-27.15-1.75-27.35 1.99z"/>
 </defs>
 <clipPath>
  <use xlink:href="#at"/>
 </clipPath>
 <path class="st53" d="m166 132c-0.8-13.83-14.31-0.41-14.31-0.41-5.56-15.49-17.61-3.05-17.61-3.05l57.23 31.58c5.79-45.67-6.47-37.18-25.31-28.12z"/>
 <defs>
  <path id="bt" d="m166 132c-0.8-13.83-14.31-0.41-14.31-0.41-5.56-15.49-17.61-3.05-17.61-3.05l57.23 31.58c5.79-45.67-6.47-37.18-25.31-28.12z"/>
 </defs>
 <clipPath id="f">
  <use xlink:href="#bt"/>
 </clipPath>
 <g clip-path="url(#f)">
  <rect class="st52" transform="matrix(.4959 -.8684 .8684 .4959 -30.68 236.4)" x="176" y="143.4" width="24.46" height="2.43"/>
  <rect class="st52" transform="matrix(.2182 -.9759 .9759 .2182 4.469 277.1)" x="160.6" y="134.5" width="29.15" height="2.43"/>
  <rect class="st52" transform="matrix(.3054 -.9522 .9522 .3054 -15.69 245.2)" x="151.3" y="132.1" width="17.72" height="2.43"/>
 </g>
 <path class="st53" d="m102.6 110.3c-27.39-8.11-21.44 33.22 6.71 16.87l8.57-7.2c3.11-45.2-19.08-51.98-15.28-9.67z"/>
 <path class="st51" d="m87.98 320.3-54.97-2.88c-6.31-12.16-5.78-21.44-1.29-26.89 7.74-9.45 27.3-7.47 43.71 10.82 4.53 5.04 8.82 11.32 12.55 18.95z"/>
 <path class="st51" d="m16.53 323.5c-31.21 5.24-12.67 40.48 10.03 9.24l2.61-9.4c-9.45-30.9-28.02-25-12.11-1.07 0.32 0.48 0.04 1.13-0.53 1.23z"/>
 <path class="st53" d="m489.8 17.48-6.03 5.54-13.73 12.59-14.05-1.39s-0.45-1.45-1.63-4.13c-2.11-4.76-6.53-13.41-14.87-24.74 0 0 19.56-9.32 49.89 8.21 1.42 0.82 1.64 2.81 0.42 3.92z"/>
 <path class="st57" d="m483.8 23.02-13.73 12.59-14.05-1.39s-0.45-1.45-1.63-4.13c10.48-10.02 23.29-8.58 29.41-7.07z"/>
 <path class="st52" d="m462.4 34.84-2.99-0.25c0.02-0.2 1.51-20.07-8.02-32.79l2.4-1.8c10.22 13.64 8.68 33.98 8.61 34.84z"/>
 <rect class="st52" transform="matrix(.4506 -.8927 .8927 .4506 237.4 434.1)" x="458.9" y="22.62" width="25.01" height="3"/>
 <path class="st52" d="m485.5 78.61-1.05-2.81c2.66-0.99 4.24-2.38 4.7-4.13 0.88-3.35-2.38-7.35-2.41-7.38l-1.3-1.55 1.86-0.8c3.92-1.68 6.21-3.9 6.81-6.6 1.06-4.81-3.45-9.9-3.49-9.95l2.23-2.01c0.23 0.25 5.58 6.26 4.2 12.59-0.71 3.26-3.03 5.92-6.89 7.94 1.18 1.89 2.78 5.22 1.91 8.52-0.74 2.75-2.94 4.83-6.57 6.18z"/>
 <path class="st53" d="m432.1 54.01c-1.78-7.73-20.25-16.21-14.57 8.63 0 0-22.05-7.01-10.78 17.83-28.14-11.22-32.47 4.93 12.41 23.37l29.78-60.29c0-0.01-15.15-13.62-16.84 10.46z"/>
 <path class="st52" d="m485.4 92.89c-4.87 8.53-19.52 16.01-50.95 30.44-1.55 0.71-3.39 0.16-4.3-1.28-11.68-18.55-17.35-28.93-18.27-36.25v-0.03c-1.9-15.17 16.59-17.19 44.11-51.55 3.56-3.54 14.05 1.39 14.05 1.39 11.35 33.03 21.79 46.06 15.36 57.28z"/>
 <path class="st58" d="m485.4 92.89c-4.87 8.53-19.52 16.01-50.95 30.44-1.55 0.71-3.39 0.16-4.3-1.28-11.68-18.55-17.35-28.93-18.27-36.25v-0.03c40-18.59 50.18 2.62 50.18 2.62 13.25-10.91 22.95 3.88 23.34 4.5z"/>
 <path class="st53" d="m459.9 98.98c-7.58 2.51-14.75 7.36-13.18 16.33l-2.3 0.8c-2.71-7.41 1.72-14.38 8.47-17.44 2.06-0.91 4.19-1.57 6.38-2.03 0.01-0.01 0.63 2.34 0.63 2.34z"/>
 <path class="st44" d="m438 100.4c-0.98 2.73-3.81 4.97-8.49 5.13-0.61-2.15-1.33-3.64-2.28-5.19-0.55-0.89-1.18-1.81-1.91-2.88 0.26-5.9 7.39-7.85 10.87-4.48 2.12 2.06 2.74 4.94 1.81 7.42z"/>
 <path class="st59" d="m438 100.4c-0.98 2.73-3.81 4.97-8.49 5.13-0.61-2.15-1.33-3.64-2.28-5.19 0.78-1.23 2.24-2.27 4.06-2.73 3.12-0.79 6.11 0.4 6.69 2.67 0.01 0.04 0.02 0.08 0.02 0.12z"/>
 <path class="st53" d="m428.9 109.5c-0.01-0.08-0.82-8.73-8.19-14.56l1.83-2.31c8.4 6.65 9.26 16.23 9.29 16.63l-2.93 0.24z"/>
 <path class="st58" d="m410.8 119.9c-3.25 0.44-5.77-2.8-4.52-5.84 1.24-3.04 5.31-3.59 7.32-0.99 2.01 2.59 0.46 6.39-2.8 6.83z"/>
 <path class="st60" d="m530.8 125.5c-2.78 0.38-4.92-2.39-3.86-4.99 1.06-2.59 4.53-3.06 6.25-0.85s0.39 5.46-2.39 5.84z"/>
 <path class="st60" d="m396.6 108.3c-3.57 3.21-9.15 1.5-10.04-3.08s3.58-8.6 8.04-7.23 5.58 7.1 2 10.31z"/>
 <rect class="st52" transform="matrix(.4957 -.8685 .8685 .4957 146.2 397.4)" x="413.8" y="63.79" width="3" height="17.94"/>
 <rect class="st52" transform="matrix(.8329 -.5534 .5534 .8329 38.1 246.4)" x="425.6" y="51.41" width="3" height="17.42"/>
 <defs>
  <path id="x" d="m485.4 92.89c-4.87 8.53-19.52 16.01-50.95 30.44-1.55 0.71-3.39 0.16-4.3-1.28-11.68-18.55-17.35-28.93-18.27-36.25v-0.03c-1.9-15.17 16.59-17.19 44.11-51.55 3.56-3.54 14.05 1.39 14.05 1.39 11.35 33.03 21.79 46.06 15.36 57.28z"/>
 </defs>
 <clipPath id="ck">
  <use xlink:href="#x"/>
 </clipPath>
 <g clip-path="url(#ck)">
  <path class="st58" d="m486.5 72.8c-0.34-0.22-34.32-22.24-66.75-3.39l-1.47-2.53c34.03-19.77 69.49 3.25 69.84 3.48l-1.62 2.44z"/>
  <path class="st58" d="m481.4 57.23c-0.7-0.86-17.44-20.8-45.09-4.28l-1.5-2.51c29.87-17.84 48.68 4.72 48.86 4.95l-2.27 1.84z"/>
 </g>
 <path class="st53" d="m448.8 69.85c4.56-14.84 1.91-19.21 1.91-19.21 10.12 0.39 20.05 1.49 20.05 1.49-1.69 11.12-12.99 17.51-19.21 20.21-1.6 0.7-3.26-0.82-2.75-2.49z"/>
 <path class="st53" d="m734.4 266c-8.71 1.87-16.62 1.97-23.39 1.19-14.03-1.59-23.18-6.88-24.49-7.68-0.11-0.06-0.19-0.16-0.24-0.27l-6.1-12.62c-0.06-0.12-0.08-0.25-0.06-0.38 3.19-26.96 19.3-38.56 24.04-41.42 0.5-0.3 1.11 0.15 0.98 0.72-0.82 3.62-1.34 7.04-1.59 10.26-2.76 33.97 23.08 46.05 30.94 48.93 0.63 0.23 0.56 1.13-0.09 1.27z"/>
 <defs>
  <path id="af" d="m680.2 246.2c3.2-26.96 19.3-38.56 24.05-41.43 0.5-0.3 1.1 0.15 0.98 0.72-9.41 41.85 20.74 56.04 29.35 59.19 0.63 0.23 0.55 1.13-0.1 1.27-26.77 5.76-45.93-5.31-47.87-6.49-0.11-0.07-0.19-0.16-0.25-0.27l-6.1-12.62c-0.05-0.11-0.07-0.25-0.06-0.37z"/>
 </defs>
 <clipPath id="bg">
  <use xlink:href="#af"/>
 </clipPath>
 <g clip-path="url(#bg)">
  <rect class="st52" transform="matrix(.6656 -.7463 .7463 .6656 56.47 596)" x="673.6" y="233.5" width="39.4" height="3"/>
  <rect class="st52" transform="matrix(.8847 -.4661 .4661 .8847 -35.62 352.6)" x="682.2" y="246.8" width="25.54" height="3"/>
  <rect class="st52" transform="matrix(.9994 -.0339 .0339 .9994 -8.282 24.12)" x="691.5" y="255.1" width="32.9" height="3"/>
 </g>
 <g class="st63">
  <path class="st64" d="m734.4 266c-8.71 1.87-16.62 1.97-23.39 1.19-11.47-4.98-21-31-7.46-51.39-2.76 33.97 23.08 46.05 30.94 48.93 0.63 0.23 0.56 1.13-0.09 1.27z"/>
 </g>
 <path class="st53" d="m653.5 238.5c6.35-29.55-14.4-26.18-19.95-8.74-4.3-44.8-26.7-23.77-31.53 0.78-18.56-17.3-25.95 2.78-8.99 13.87"/>
 <rect class="st52" transform="matrix(.0277 -.9996 .9996 .0277 385.4 836)" x="609.1" y="218.4" width="26.69" height="3"/>
 <rect class="st52" transform="matrix(.2158 -.9764 .9764 .2158 284.6 809.5)" x="636.5" y="226" width="19.48" height="3"/>
 <polygon class="st52" points="609.6 233.6 605.1 217.5 594 213.1 595.2 210.3 607.6 215.2 612.5 232.8"/>
 <path class="st58" d="m58.4 366.6c-6.91 4.96-12.94 7.9-18.06 9.31-10.28 2.83-16.85-0.54-19.37-6.22-2.59-5.82-0.91-14.06 5.42-20.54l32.01 17.45z"/>
 <path class="st65" d="m578.1 283.2c12.28 7.39 50.16 1.3 66.01-9.25v-14.92c-62.17-2.66-66.01 24.17-66.01 24.17z"/>
 <path class="st65" d="m645.5 266.8s-43.18 29.62-45.71 49.96l40.66-7.42 8.66-34.38-3.61-8.16z"/>
 <path class="st44" d="m602.7 316.1c-4.97-24.12 0.01-22.09 7.14-13.99 0.65 0.73 1.86 0.3 1.89-0.67 0.67-17.86 6.18-12.82 8.78-9.38 0.54 0.72 1.67 0.49 1.9-0.37 1.42-5.24 2.34-18.17 14.66-9.28 10.46 9.73-34.37 33.69-34.37 33.69z"/>
 <path class="st53" d="m649.7 311.6s13.11 31.79 22.73-30.97l-22.73 30.97z"/>
 <path class="st44" d="m580.4 277c13.74 20.07 16.32 9.77 13.49-1.66-0.09-0.36 0.37-0.6 0.62-0.32 14.62 16.45 16.64 17.12 14.18-4.76-0.04-0.37 0.46-0.53 0.64-0.2 7.32 13.88 15.01 15.12 13-2.57-0.04-0.38 0.46-0.56 0.66-0.23 6.59 10.3 11.44 8.19 11.22-6.64-0.01 0-32.72-2.48-53.81 16.38z"/>
 <path class="st58" d="m686.4 259.4c-14.06 21.21-23.09 35.4-30.29 44.7v0.01c-16.06 20.76-22.98 17.12-56.33 12.65 40.87-34.12 43.2-52.63 43.2-52.63-41.04 3.05-64.92 19.12-64.92 19.12 9.97-38.95 20.35-51.7 38.78-52.15 14.69-0.36 34.5 7.1 63.29 15.33 7.74 3.15 6.27 12.97 6.27 12.97z"/>
 <path class="st52" d="m656.1 304.1v0.01c-16.06 20.76-22.98 17.12-56.33 12.65 40.87-34.12 43.2-52.63 43.2-52.63-41.04 3.05-64.92 19.12-64.92 19.12 9.97-38.95 20.35-51.7 38.78-52.15l0.01 0.01s15.35 1.73 22.52 24.72c8.29-14.52 22.66-5.34 16.74 48.27z"/>
 <path class="st44" d="m607.1 261.2c-0.17 0.03-0.35 0.08-0.53 0.11-9.44 1.82-12.66-2.75-5.12-11.77 2.18-2.6 5.24-5.57 9.32-8.87 6.32 1.94 7.91 17.81-3.67 20.53z"/>
 <path class="st59" d="m610 256.1c-0.08 2.09-1.21 3.92-2.91 5.05-0.17 0.03-0.35 0.08-0.53 0.11-9.44 1.82-12.66-2.75-5.12-11.77 0.54-0.11 1.1-0.16 1.68-0.14 3.91 0.12 6.99 3.14 6.88 6.75z"/>
 <path class="st58" d="m567.9 283.6c-2.27 2.21-6.07 1.13-6.85-1.93s2.05-5.83 5.1-4.97c3.04 0.86 4.02 4.69 1.75 6.9z"/>
 <path class="st60" d="m585.3 307.9c-4.23 2.88-9.99 0.11-10.37-4.99s4.9-8.71 9.51-6.49c4.61 2.21 5.09 8.59 0.86 11.48z"/>
 <path class="st53" d="m113.8 452.6c-9.36 18.26-12.66 19-14.83 16.56s-1.53-11.58-1.53-11.58l16.36-4.98z"/>
 <path class="st52" d="m104.2 455.8s-11.63 18.41-16.86 21.88-3.98-16.25-3.98-16.25l20.84-5.63z"/>
 <path class="st52" d="m172 424.6c-13.54 8.58-27.04 15.46-39.94 20.95-34.53 14.72-64.89 19.64-81 21.29-7.78 0.79-12.23 0.82-12.23 0.82s32.01-32.23 56.66-47.72c22.41 9.25 43.48 14.63 75.78 3.17 0.94-0.33 1.56 0.95 0.73 1.49z"/>
 <path class="st51" d="m132.1 445.6c-34.53 14.72-64.89 19.64-81 21.29 0 0 1.47-18.95 21.1-5.99 0 0 7.81-32.46 59.9-15.3z"/>
 <path class="st59" d="m113 428.6c3.51 5.29 8.89 6.98 14.75 4.48l1.19 2.12c-5.56 3.35-12.91 2.25-16.69-3.17-0.5-0.71-0.92-1.45-1.34-2.19l2.09-1.24z"/>
 <ellipse class="st59" transform="matrix(.4653 -.8852 .8852 .4653 -324.6 341.3)" cx="120.2" cy="439.3" rx="4.64" ry="4.13"/>
 <path class="st53" d="m38.87 467.7-33.97-24.22 10 27.96c0.57 1.6 2.29 2.48 3.92 2.01l20.05-5.75z"/>
 <path class="st53" d="m66.09 414.7c-1.96-0.91-4.28 0.11-4.93 2.18-9.8 31.03-18.15 39.81-18.15 39.81l3.81 3.25 41.28-34.99-22.01-10.25z"/>
 <path class="st60" d="m154.8 454.4c-2.25 2.04-5.86 0.88-6.5-2.09s2.17-5.51 5.06-4.58c2.89 0.92 3.69 4.63 1.44 6.67z"/>
 <path class="st58" d="m138.8 420.1c-3.55 3.21-9.24 1.38-10.25-3.3s3.42-8.7 7.98-7.23 5.82 7.32 2.27 10.53z"/>
 <path class="st60" d="m158.2 400.2c-2.33 2.12-6.08 0.91-6.75-2.17-0.66-3.08 2.25-5.72 5.25-4.76 3 0.97 3.83 4.82 1.5 6.93z"/>
 <path class="st53" d="m130.4 179.4c-35.44 0.6-7.41 24.34 23.3 25.34l-23.3-25.34z"/>
 <polygon class="st52" points="205.5 149.9 192.7 162.9 195.4 165.5 213.6 160.5"/>
 <path class="st53" d="m202.2 197.7c-2.7 5.31-17.54 9.35-17.54 9.35l-15.57-0.96-2.82-14.07s30.08 1.06 35.93 5.68z"/>
 <path class="st52" d="m174.8 199.7c-0.2 3.6 19.41 9.78 19.14 13.06-0.28 3.28-5.39 4.06-27.81-3.15-7.31-2.35-13.47-4.72-19.25-9.2-11.94-9.24-22.24-27.49-37.63-73.22 0 0 0.36-6.63 8.57-7.2 0 0 8.42 4.35 48.29 25.31 7.61 4 13.7 7.33 18.54 10.31 20.53 12.61 18.85 18.79 17.5 42.1 0 0-27.15-1.75-27.35 1.99z"/>
 <path class="st66" d="m174.8 199.7c-0.2 3.6 19.41 9.78 19.14 13.06-0.28 3.28-5.39 4.06-27.81-3.15-7.31-2.35-13.47-4.72-19.25-9.2-5.2-17.27 3.08-23.46 10.68-17.89 0 0 8.57-26.99 27.09-26.91 20.53 12.61 18.85 18.79 17.5 42.1 0 0-27.15-1.75-27.35 1.99z"/>
 <path class="st44" d="m193.5 184c0.28 4.93-6.48 6.45-10.22 3.31-0.61-0.52-1.14-1.16-1.55-1.93-2.9-5.48 2.91-13.33 8.58-11.18l2.55 7.82 0.64 1.98z"/>
 <path class="st59" d="m193.5 184c0.28 4.93-6.48 6.45-10.22 3.31-0.4-0.55-0.65-1.19-0.71-1.87-0.22-2.49 2.17-4.73 5.34-5.01 1.99-0.17 3.82 0.47 4.95 1.59l0.64 1.98z"/>
 <path class="st59" d="m193.4 169.7c-2.98 1.91-1.54 5.17-0.59 8.05 1.18 3.34 2.45 6.77 3.23 10.27 0 0-2.34 0.67-2.34 0.67-1.18-3.36-2.45-6.6-3.66-9.98-1.46-3.95-2.41-8.73 2.08-11.08 0.01 0 1.28 2.07 1.28 2.07z"/>
 <path class="st58" d="m215.1 210.3c-2.5 1.19-5.35-0.77-5.13-3.54 0.22-2.76 3.35-4.25 5.63-2.68 2.28 1.58 2.01 5.03-0.5 6.22z"/>
 <path class="st60" d="m224.7 192.5c-3.65 1.74-7.81-1.13-7.49-5.16s4.89-6.2 8.21-3.91c3.33 2.29 2.93 7.33-0.72 9.07z"/>
 <path class="st60" d="m293 93.52c-1.83 2.26-5.43 1.68-6.46-1.03-1.04-2.72 1.25-5.54 4.13-5.08 2.86 0.46 4.16 3.85 2.33 6.11z"/>
 <path class="st58" d="m277.6 115.2c-3.7 2.84-9.09 0.61-9.7-4.02s4.02-8.18 8.33-6.4 5.08 7.58 1.37 10.42z"/>
 <path class="st44" d="m592.7 171.3 12.62-5.52c-4.49-17.45-24.07-10.31-12.62 5.52z"/>
 <path class="st59" d="m596.9 160.8c1.8 1.8 0.97 4.87-1.48 5.53-2.46 0.66-4.7-1.59-4.04-4.04 0.65-2.46 3.72-3.29 5.52-1.49z"/>
 <path class="st52" d="m587.4 175.6-1.46-3.33 21.79-9.53c-0.34-2.73-0.53-8.3 3.15-10.82 2.65-1.82 6.44-1.52 11.49 0.92-1.99-4.46-2.96-8.94-0.63-11.35 2.05-2.12 5.83-1.99 11.7 0.47-3.88-5.78-4.55-8.47-3.04-10.32 2.12-2.61 6.84-2 29.23 8.53l-1.54 3.29c-14.27-6.71-22.62-9.9-24.77-9.48 0.09 0.97 1.3 3.74 7.27 11.7 0.51 0.68 0.48 1.63-0.08 2.28s-1.49 0.81-2.24 0.4c-11.5-6.31-13.69-4.57-13.9-4.35-0.85 0.88-0.46 4.96 4.1 12.6 0.43 0.73 0.31 1.66-0.3 2.24s-1.54 0.67-2.25 0.21c-8.45-5.54-11.75-4.97-12.96-4.14-2.29 1.56-1.77 6.82-1.41 8.54 0.18 0.84-0.26 1.69-1.05 2.04l-23.1 10.1z"/>
 <path class="st52" d="m585.6 165.8-1.91-3.09c0.29-0.18 7.34-4.71 8.08-14.57l3.62 0.27c-0.89 11.77-9.43 17.17-9.79 17.39z"/>
 <path class="st52" d="m224 50.87c-0.15 0-0.3-0.02-0.45-0.07-0.79-0.25-1.23-1.09-0.98-1.88l2.77-8.76-5.91 0.01c-0.82 0-1.6-0.35-2.16-0.95s-0.84-1.41-0.79-2.22l0.63-9.45c0.06-0.83 0.76-1.46 1.6-1.4 0.83 0.06 1.45 0.77 1.4 1.6l-0.63 9.45h5.9c0.95 0.01 1.82 0.45 2.38 1.22s0.72 1.73 0.43 2.64l-2.77 8.76c-0.19 0.64-0.78 1.05-1.42 1.05z"/>
 <path class="st53" d="m190.6 53.31 4.78-5.62c2.12-10-7.54-12.73-12.25-8.94-5.27 4.24-3.79 13.18 7.47 14.56z"/>
 <path class="st52" d="m210.5 82.06c-11.51 0.47-20.35-7.07-22.1-16.23-0.77-4.04-0.16-8.4 2.21-12.52 5.56-9.66 17.8-12.84 27.54-9.13 3.85 1.44 7.3 3.96 9.8 7.58 8.84 12.77-0.85 29.61-17.45 30.3z"/>
 <path class="st58" d="m210.5 82.06c-11.51 0.47-20.35-7.07-22.1-16.23l29.75-21.65c3.85 1.44 7.3 3.96 9.8 7.58 8.84 12.77-0.85 29.61-17.45 30.3z"/>
 <path class="st59" d="m222 55.21c1.46 3.85 0.71 6.89-3.07 6.12s-5.61-5.58-3.29-8.66c2.31-3.08 4.89-1.31 6.36 2.54z"/>
 <defs>
  <path id="bc" d="m210.5 82.06c-11.51 0.47-20.35-7.07-22.1-16.23l29.75-21.65c3.85 1.44 7.3 3.96 9.8 7.58 8.84 12.77-0.85 29.61-17.45 30.3z"/>
 </defs>
 <clipPath id="bp">
  <use xlink:href="#bc"/>
 </clipPath>
 <g clip-path="url(#bp)">
  <path class="st53" d="m219.2 81.32-2.32-6.88-8.29 1.4c-0.58 0.1-1.16-0.04-1.63-0.38s-0.78-0.86-0.86-1.44l-0.92-6.39-8.25 0.53-0.19-2.99 9.03-0.58c1.11-0.07 2.11 0.74 2.27 1.85l0.91 6.31 8.15-1.38c1.05-0.18 2.06 0.43 2.4 1.44l2.55 7.56-2.85 0.95zm-1.61-7z"/>
 </g>
 <path class="st53" d="m630 519.8 11.77 5.95c5.53-16.23 4.04-17.32-11.77-5.95z"/>
 <path class="st53" d="m642.9 535.8-1.85 3.49s5.84 11.94 14.3 6.57c6.5-4.13-1.08-13.47-12.45-10.06z"/>
 <path class="st52" d="m632.4 544.7c-10.37 2.16-18.98-6.74-15.51-16.02s16.44-11.98 23.33-4.86 2.55 18.72-7.82 20.88z"/>
 <path class="st59" d="m629.6 534c-3.44 1.67-7.23-0.69-6.83-4.24s4.69-5.63 7.73-3.75 2.53 6.33-0.9 7.99z"/>
 <path class="st53" d="m119.6 351.1c-23.41 7.28-42.3 12.83-56.84 14.98-28.06 4.17-39.94-4.27-36.87-37.22 0.19-2.11 1.01-4.13 2.32-5.78 22.97-28.81 38.86-20.32 63.58 0.39 8.3 6.96 17.6 15.3 28.49 24.06 1.29 1.04 0.89 3.08-0.68 3.57z"/>
 <path class="st52" d="m119.6 351.1c-23.41 7.28-42.3 12.83-56.84 14.98 0 0-6.53-16.46 8.56-17.49 0 0-1.31-19.63 20.47-25.12 8.3 6.96 17.6 15.3 28.49 24.06 1.29 1.04 0.89 3.08-0.68 3.57z"/>
 <path class="st44" d="m102.1 337.9c0.09 3.78-3.24 6.75-6.93 6.34-0.49-0.05-0.99-0.16-1.48-0.34-4.54-1.66-5.58-7.61-1.88-10.71 0.79-0.65 1.65-1.07 2.55-1.29 0.65 1.05 1.9 2.62 4.25 4.15 0.95 0.63 2.12 1.26 3.49 1.85z"/>
 <path class="st59" d="m105.8 340.5c-5.6-0.68-11.04-4-13.31-9.31-0.3-0.79-0.57-1.5-0.73-2.44l2.38-0.5c1.96 5.14 6.97 8.46 12.14 9.87l-0.48 2.38z"/>
 <path class="st59" d="m102.1 337.9c0.09 3.78-3.24 6.75-6.93 6.34-0.72-0.46-1.23-1.24-1.37-2.27-0.37-2.74 2.1-5.55 4.81-5.92 0.95 0.63 2.12 1.26 3.49 1.85z"/>
 <path class="st53" d="m542.2 110.2c-0.91-9.24 11.29-13.41 12.46-25.8 12.97-3.55 21.57 3.21 21.57 3.21l-34.03 22.59z"/>
 <path class="st53" d="m576.4 104.2-13.27 16.68c6.02 11.99 20.27-0.88 13.27-16.68z"/>
 <path class="st58" d="m587 80.26c0.77-0.5 1.71 0.29 1.37 1.14-6.17 15.49-14.78 27.68-22.7 36.63v0.01c-7.52 8.49-14.41 14.04-17.99 16.68-1.24 0.91-3 0.31-3.43-1.17l-6.25-21.48 49-31.81z"/>
 <path class="st53" d="m589.4 77.32 0.11-20.91c30.79 16.03 7.39 21.09 1.25 22.08-0.72 0.12-1.36-0.44-1.36-1.17z"/>
 <path class="st52" d="m565.7 118v0.01c-7.52 8.49-14.41 14.04-17.99 16.68-1.24 0.91-3 0.31-3.43-1.17l-6.25-21.48c21.36-5.53 27.67 5.96 27.67 5.96z"/>
 <path class="st58" d="m532.8 193c-1.08-5.3-5.51-12.26-7.99-15.86-0.55-0.79 0.24-1.82 1.15-1.51 5.72 1.93 18.96 7.42 29.48 19.54 0.65 0.75-0.09 1.88-1.04 1.61-11.33-3.17-17.52-0.02-17.52-0.02l-4.08-3.76z"/>
 <defs>
  <path id="q" d="m532.8 193c-1.08-5.3-5.51-12.26-7.99-15.86-0.55-0.79 0.24-1.82 1.15-1.51 5.72 1.93 18.96 7.42 29.48 19.54 0.65 0.75-0.09 1.88-1.04 1.61-11.33-3.17-17.52-0.02-17.52-0.02l-4.08-3.76z"/>
 </defs>
 <clipPath id="ci">
  <use xlink:href="#q"/>
 </clipPath>
 <g clip-path="url(#ci)">
  <path class="st52" d="m534.2 196.8c-0.56 0-1.1-0.32-1.36-0.86-0.36-0.75-0.04-1.64 0.71-2 0.43-0.2 10.59-4.99 18.88-5.78 0.81-0.09 1.56 0.53 1.63 1.35 0.08 0.82-0.53 1.56-1.35 1.63-7.76 0.74-17.77 5.45-17.87 5.5-0.21 0.11-0.43 0.16-0.64 0.16z"/>
  <path class="st52" d="m532.2 199c-0.43 0-0.86-0.19-1.16-0.54-0.53-0.64-0.44-1.58 0.2-2.11 7.15-5.9 3.4-18.72 3.36-18.85-0.24-0.79 0.21-1.63 1-1.87s1.63 0.21 1.87 1c0.18 0.6 4.37 14.85-4.32 22.03-0.28 0.23-0.62 0.34-0.95 0.34z"/>
 </g>
 <path class="st58" d="m492 206.5c12.14 2.63 23.62 2.29 30-6.85-5.05-10.79-25.58-20.14-30 6.85z"/>
 <path class="st52" d="m508.8 233s30.12 5.92 24.73-18.46l-24.73 18.46z"/>
 <path class="st52" d="m499.3 208.1c-0.11 0-0.22-0.01-0.33-0.04-0.81-0.18-1.32-0.98-1.14-1.79l3.04-13.69c0.18-0.81 0.97-1.32 1.79-1.14 0.81 0.18 1.32 0.98 1.14 1.79l-3.04 13.69c-0.15 0.7-0.77 1.18-1.46 1.18z"/>
 <path class="st52" d="m508.8 207c-0.11 0-0.22-0.01-0.33-0.04-0.81-0.18-1.32-0.98-1.14-1.79l2.46-11.04c0.18-0.81 0.98-1.32 1.79-1.14s1.32 0.98 1.14 1.79l-2.46 11.04c-0.15 0.71-0.77 1.18-1.46 1.18z"/>
 <path class="st53" d="m491.7 235.3c-1.25 0.02-2.35-0.96-2.47-2.2-0.19-2.09-0.45-5.47-0.55-9.17-0.12-4.8 0.02-10.15 0.95-13.93 0.51-2.08 1.25-3.68 2.32-4.45 5.28-3.83 23.09-0.55 40.56-12.34 1.35-0.91 3-0.42 3.64 1.07 4.18 9.74-2.3 40.49-44.45 41.02z"/>
 <path class="st52" d="m488.7 223.9c-0.12-4.8 0.02-10.15 0.95-13.93 17.08-8.16 26.29 12.79-0.95 13.93z"/>
 <path class="st59" d="m501.8 217.2c-1.25 2.71-4.98 3.05-6.7 0.61s-0.16-5.84 2.82-6.11 5.14 2.79 3.88 5.5z"/>
 <path class="st52" d="m520.1 210.7c1.08 0.93 10.14-3.38 8.07-8.45-2.08-5.07-9.15 7.52-8.07 8.45z"/>
 <defs>
  <path id="ad" d="m534.4 191.8c-18.06 13.37-36.97 9.7-42.45 13.67-4.5 3.26-3.29 21.21-2.72 27.54 0.11 1.25 1.16 2.23 2.42 2.21 46.9-0.56 49.68-38.5 42.75-43.42z"/>
 </defs>
 <clipPath id="ai">
  <use xlink:href="#ad"/>
 </clipPath>
 <g clip-path="url(#ai)">
  <path class="st70" d="m506.9 201.4c2.6 10.67 11.56 18.29 22.04 20.81l-0.4 2.54c-10.22-1.64-19.8-8.54-23.08-18.54-0.52-1.38-0.73-2.85-1.07-4.28 0-0.01 2.51-0.53 2.51-0.53z"/>
 </g>
 <path class="st52" d="m43.01 194.8-4.41-17.08c-20.37 3.93-18.45 25.89-18.45 25.89l16.98-1.32c-0.01 0 1.08-4.76 5.88-7.49z"/>
 <defs>
  <path id="cd" d="m43.01 194.8-4.41-17.08c-20.37 3.93-18.45 25.89-18.45 25.89l16.98-1.32 5.88-7.49z"/>
 </defs>
 <clipPath id="c">
  <use xlink:href="#cd"/>
 </clipPath>
 <g clip-path="url(#c)">
  <rect class="st53" transform="matrix(.7448 -.6673 .6673 .7448 -117.7 71.29)" x="33.12" y="178.7" width="2.43" height="21.83"/>
  <rect class="st53" transform="matrix(.4246 -.9054 .9054 .4246 -160.1 143.6)" x="31.75" y="190.1" width="2.43" height="15.42"/>
 </g>
 <path class="st52" d="m39.24 223c-3.86 0-6.46-1.76-7.66-3.55-1.04-1.55-1.21-3.35-0.43-4.8 0.52-0.98 1.89-2.55 5.31-2.94-0.81-2.77-1.98-8.58 0.86-12.9 1.8-2.74 4.84-4.37 9.06-4.87-1.5-2.67-1-4.92 0.16-6.27 1.28-1.5 3.78-2.36 6.77-1.42-0.22-2.48 1.04-4.44 2.68-5.39 2.43-1.41 6.29-1.06 9.03 3.03l-2.02 1.36c-1.88-2.81-4.26-3.17-5.79-2.28-1.31 0.76-2.09 2.59-0.9 4.98l1.94 3.89-3.68-2.32c-2.74-1.73-5.19-1.44-6.19-0.27-0.97 1.13-0.53 3.03 1.16 4.95l1.71 1.95-2.59 0.07c-4.54 0.12-7.67 1.43-9.31 3.92-3.08 4.68-0.14 12.17-0.11 12.25l0.67 1.67h-1.8c-2.48 0-4.24 0.63-4.83 1.74-0.35 0.66-0.24 1.5 0.3 2.31 0.9 1.34 3.22 2.78 6.79 2.41l0.25 2.42c-0.47 0.04-0.93 0.06-1.38 0.06z"/>
 <path class="st52" d="m75.45 215.4c12.6-23.35-1.32-29.08-7.19-23.19l7.19 23.19z"/>
 <path class="st53" d="m77.64 219.3-10.17-36.63c-0.2-0.72-1.01-1.09-1.68-0.76-24.06 11.89-28.48 36.21-29.23 42.33-0.09 0.74 0.51 1.39 1.26 1.34l36.86-2.13c2.08-0.13 3.52-2.14 2.96-4.15z"/>
 <defs>
  <path id="cg" d="m77.64 219.3-10.17-36.63c-0.2-0.72-1.01-1.09-1.68-0.76-24.06 11.89-28.48 36.21-29.23 42.33-0.09 0.74 0.51 1.39 1.26 1.34l36.86-2.13c2.08-0.13 3.52-2.14 2.96-4.15z"/>
 </defs>
 <clipPath id="o">
  <use xlink:href="#cg"/>
 </clipPath>
 <g clip-path="url(#o)">
  <path class="st52" d="m42.72 228.2-2.4-0.35c0.05-0.34 5.41-34.5 35.38-45.13l0.8 2.28c-28.56 10.13-33.73 42.87-33.78 43.2z"/>
 </g>
 <path class="st44" d="m55.35 210c-2.31 7.23 0.28 8.44 5.38 5.47 0.24-0.14 0.51 0.1 0.42 0.36-2.96 8.65 2.58 6.15 7.01 3.12 0.41-0.28 0.42-0.87 0.01-1.16-2.41-1.67-9.42-6.54-11.76-8.16-0.38-0.28-0.91-0.08-1.06 0.37z"/>
 <path class="st59" d="m61.17 207.1c-2.04-2.62-0.48-6.46 2.81-6.92s5.83 2.82 4.59 5.89c-1.25 3.07-5.36 3.64-7.4 1.03z"/>
 <defs>
  <path id="e" d="m77.64 219.3-10.17-36.63c-0.2-0.72-1.01-1.09-1.68-0.76-24.06 11.89-28.48 36.21-29.23 42.33-0.09 0.74 0.51 1.39 1.26 1.34l36.86-2.13c2.08-0.13 3.52-2.14 2.96-4.15z"/>
 </defs>
 <clipPath>
  <use xlink:href="#e"/>
 </clipPath>
 <path class="st58" d="m169.1 287.3c-20.99 21.15-29.99 7.09-26.6-4.35-17.36 13.04-15.42-0.36-14.48-4.75-23.11 9.64-17.82-10.62-17.82-10.62-13.05 7.98-16.93-8.04-14.73-10.69 2.21-2.65 8.73 6.54 8.73 6.54 18.34-17.18 16.67 6.17 16.67 6.17 8.12-4.42 12.89-5.43 15.63-4.75 5.89 1.47 2.25 10.87 2.25 10.87 27.18-15.77 17.32 3.93 30.35 11.58z"/>
 <path class="st59" d="m150.8 286.7c-2.14-2.98-0.97-6.64 2.11-6.6 3.08 0.05 5.75 3.77 4.82 6.7s-4.79 2.88-6.93-0.1z"/>
 <path class="st52" d="m136.4 264.8-8.47 13.34c-23.11 9.64-17.82-10.62-17.82-10.62-13.05 7.98-16.93-8.04-14.73-10.69 2.21-2.65 8.73 6.54 8.73 6.54 18.34-17.18 16.67 6.17 16.67 6.17 8.12-4.42 12.88-5.43 15.62-4.74z"/>
 <path class="st65" d="m643 264.1c-22.25 4.08-44.35 9.5-64.92 19.13l-0.01-0.01c17.16-13.02 43.6-19.33 64.93-19.12z"/>
 <path class="st65" d="m642.6 265.6c-6.68 20.78-24.25 39.99-42.82 51.08l-0.01-0.01c16.41-15.16 32.03-31.34 42.83-51.07z"/>
 <path class="st53" d="m698.8 467.2-1.82 8.02c8.86 38.56 34.15 13.92 14.41-5.59 42.11-22.43 15.44-33.96-12.59-2.43z"/>
 <defs>
  <path id="b" d="m698.8 467.2-1.82 8.02c8.86 38.56 34.15 13.92 14.41-5.59 42.11-22.43 15.44-33.96-12.59-2.43z"/>
 </defs>
 <clipPath id="cf">
  <use xlink:href="#b"/>
 </clipPath>
 <g clip-path="url(#cf)">
  <rect class="st52" transform="matrix(.6052 -.7961 .7961 .6052 -102.4 754)" x="707.8" y="466.2" width="2.43" height="28.26"/>
  <rect class="st52" transform="matrix(.9278 -.3731 .3731 .9278 -120.3 300.5)" x="697.4" y="459.9" width="37.72" height="2.43"/>
 </g>
 <path class="st53" d="m641.2 404.6c-9.85-19.01-19.42-16.01-21.48 11.02l54.16 25.32c-9.6-34.04-10.15-87.41-32.68-36.34z"/>
 <defs>
  <path id="bf" d="m641.2 404.6c-9.85-19.01-19.42-16.01-21.48 11.02l54.16 25.32c-9.6-34.04-10.15-87.41-32.68-36.34z"/>
 </defs>
 <clipPath id="p">
  <use xlink:href="#bf"/>
 </clipPath>
 <g clip-path="url(#p)">
  <rect class="st52" transform="matrix(.0566 -.9984 .9984 .0566 218 1033)" x="631.6" y="399.6" width="48.15" height="3"/>
  <rect class="st52" transform="matrix(.9954 -.0957 .0957 .9954 -35.56 62.12)" x="628.6" y="390.5" width="3" height="23.07"/>
 </g>
 <path class="st53" d="m667.2 477.6-25.14 1.6c16.65 12.01 51.43 16.51 25.14-1.6z"/>
 <path class="st44" d="m601.6 464.8 6.66-1.93c-1.75-2.98-7.56-6.67-6.66 1.93z"/>
 <path class="st75" d="m634.3 459.9c-9.94 0-29.01-4.91-46.83-9.83 2.29-7.18 34.46-16.29 46.83 9.83z"/>
 <path class="st44" d="m609.6 461.9 8.84-1.67c-2.95-7.84-7.58-6.02-8.84 1.67z"/>
 <path class="st44" d="m625.6 449.6c-0.58 3.68-5.95 8.44-12.02-0.68-0.18-0.27-0.58-0.23-0.69 0.07-2.6 6.59-7.57 8.5-11.66-1.09-0.14-0.32-0.6-0.33-0.72 0-2.84 7.31-9.1 8.46-9.83-0.05 0 0 13.64-11.69 34.92 1.75z"/>
 <path class="st52" d="m700.4 475.2c-65.16 3.91-83.04 14.01-103.2-8.94 19.34-6.13 33.68-9.78 33.68-9.78-14.45-17.55-34.45-10.39-43.41-6.41-0.73-1.08-1.46-2.2-2.21-3.36-1.13-1.74-0.71-4.06 0.94-5.31 51.39-38.96 44.24-42.05 76.57-11.05 32.93 31.57 39.51 36.84 39.51 36.84 1.15 4.39-1.83 8.01-1.83 8.01z"/>
 <path class="st44" d="m622.1 438.9c-2.01 0.73-3.76 0.64-5.16-0.03-2.38-1.14-3.74-4-3.57-7.5 2.19-0.37 4.07-0.84 5.87-1.63 1.53-0.67 2.99-1.56 4.55-2.84 4.86 4.3 3.74 10.04-1.69 12z"/>
 <path class="st53" d="m609.7 423.2 7.09-5.39c-8.8-37.49-26.18-28.07-7.09 5.39z"/>
 <path class="st59" d="m609.7 432.8c-1.46 0-2.42-0.12-2.56-0.14l0.31-2.41c0.13 0.02 12.94 1.54 18.61-8.06l2.09 1.23c-4.88 8.29-13.99 9.38-18.45 9.38z"/>
 <path class="st59" d="m621 434.6c-0.36 2.31-2.09 4.01-4.08 4.24-2.38-1.14-3.74-4-3.57-7.5 2.19-0.37 4.07-0.84 5.87-1.63 1.36 1.05 2.11 2.92 1.78 4.89z"/>
 <path class="st60" d="m580.2 438.1c-3.82 1.59-7.92-1.55-7.39-5.65s5.3-6.09 8.59-3.58 2.61 7.64-1.2 9.23z"/>
 <path class="st58" d="m584.6 417.9c-3.38 0-5.49-3.66-3.8-6.58s5.91-2.93 7.6 0-0.43 6.58-3.8 6.58z"/>
 <path class="st75" d="m630.9 456.5c-7.91-9.74-20.16-11.43-31.9-9.33-3.87 0.67-7.74 1.53-11.52 2.92 1.62-1.23 3.46-2.11 5.32-2.93 12.83-5.65 31.21-4.67 38.1 9.34z"/>
 <path class="st75" d="m597.2 466.3c10.66-4.86 22.05-8.28 33.68-9.78-10.99 4.08-22.27 7.17-33.68 9.78z"/>
 <defs>
  <path id="k" d="m700.4 475.2c-65.16 3.91-83.04 14.01-103.2-8.94 19.34-6.13 33.68-9.78 33.68-9.78-14.45-17.55-34.45-10.39-43.41-6.41-0.73-1.08-1.46-2.2-2.21-3.36-1.13-1.74-0.71-4.06 0.94-5.31 51.39-38.96 44.24-42.05 76.57-11.05 32.93 31.57 39.51 36.84 39.51 36.84 1.15 4.39-1.83 8.01-1.83 8.01z"/>
 </defs>
 <clipPath id="u">
  <use xlink:href="#k"/>
 </clipPath>
 <g clip-path="url(#u)">
  <rect class="st77" transform="matrix(.3952 -.9186 .9186 .3952 -7.607 892.9)" x="673" y="421.4" width="2.43" height="61.56"/>
  <rect class="st77" transform="matrix(.1039 -.9946 .9946 .1039 142.6 1097)" x="678.8" y="438.9" width="2.43" height="60.82"/>
  <rect class="st77" transform="matrix(.237 -.9715 .9715 .237 70.8 1020)" x="669" y="464" width="32.22" height="2.43"/>
  <rect class="st77" transform="matrix(.2403 -.9707 .9707 .2403 62.89 995.4)" x="641.7" y="456.3" width="51.38" height="2.43"/>
  <path class="st53" d="m648.4 413.1c1.17 13.61-1.14 27.2-4.34 40.4l-0.59-1.38c11.03 5.41 9.45 16.54 2.33 24.6-2.06 2.34-4.39 4.43-7.19 5.98l-1.24-2.09c2.28-1.58 4.37-3.6 6.15-5.8 6.15-7.54 7.65-15.85-2.04-21.04 0 0 0.23-0.89 0.23-0.89 3.12-12.85 5.4-26.26 4.27-39.51 0.01-0.01 2.42-0.27 2.42-0.27z"/>
 </g>
 <path class="st53" d="m681.3 461.4c0.04 4.81-22.7 5.29-24.22-0.88-1.53-6.18 24.17-3.93 24.22 0.88z"/>
 <path class="st44" d="m90.55 350.7c0.64 9.52 3.56 8.88 7.99 2.78 0.11-0.15 0.35-0.1 0.38 0.09 1.83 9.64 6.35 5.81 7.86 1.09-5.82-1.86-12.49-5.8-16.23-3.96z"/>
 <path class="st52" d="m730.3 351.8c-5.73 33.73-23.51 3.77-23.51 3.77-13.46 33.52-25.85 6.75-25.85 6.75-8.24 22.2-21.29 4.27-20.86-19.73 0.02-0.93 1.31-1.17 1.65-0.31 6.03 15.79 15.87 12.62 18.51-7.48 7.6 17.42 17.66 19.73 26.24 12.39 3.66-3.12 7.07-8 9.9-14.22 9.07 20.32 29.81-2.68 29.81-2.68 7.3 37.7-15.89 21.51-15.89 21.51z"/>
 <ellipse class="st59" transform="matrix(.3346 -.9424 .9424 .3346 121.9 877.2)" cx="682.1" cy="352.3" rx="3.93" ry="3.62"/>
 <path class="st58" d="m730.3 351.8c-5.73 33.73-23.51 3.77-23.51 3.77l-0.32-8.38c3.66-3.12 7.07-8 9.9-14.22 9.07 20.32 29.81-2.68 29.81-2.68 7.31 37.7-15.88 21.51-15.88 21.51z"/>
 <path class="st78" d="m317.4 184.4-31.11-3.18c-0.6-0.06-1.11-0.45-1.33-1-0.22-0.56-0.12-1.19 0.26-1.65l51.39-61.03c0.42-0.5 1.09-0.7 1.71-0.5 0.62 0.19 1.07 0.73 1.14 1.37 0.02 0.16 1.82 15.98 12.97 32.84l-2.7 1.78c-8.51-12.87-11.76-24.93-12.91-30.72l-47.15 56 28.07 2.87-0.34 3.22z"/>
 <path class="st78" d="m331.6 175.5-8.55-24.17-19.71 10.46c-0.39 0.21-0.86 0.25-1.28 0.1s-0.77-0.45-0.95-0.86l-15.71-34.46c-0.96 0.88-1.95 1.78-2.95 2.7-9.57 8.79-19.47 17.88-27.05 17.46-2.25-0.13-4.15-1.07-5.67-2.82l2.44-2.12c0.93 1.07 2.05 1.63 3.41 1.71 6.21 0.34 16.46-9.05 24.68-16.61 1.58-1.45 3.12-2.87 4.61-4.2 0.38-0.34 0.91-0.48 1.41-0.38 0.5 0.11 0.93 0.44 1.14 0.91l15.91 34.91 19.85-10.53c0.42-0.22 0.91-0.25 1.35-0.08s0.78 0.52 0.94 0.97l9.18 25.94-3.05 1.07z"/>
 <path class="st78" d="m269.6 186-2.74-1.71c9.19-14.74 7.07-36.11 7.04-36.32-0.06-0.57 0.18-1.12 0.64-1.47 0.46-0.34 1.06-0.42 1.59-0.2l25.78 10.67 7.23-49.62c0.1-0.69 0.63-1.24 1.32-1.36s1.38 0.21 1.7 0.83l10.73 20.02-2.85 1.53-8.41-15.69-6.82 46.81c-0.07 0.49-0.37 0.93-0.8 1.17-0.43 0.25-0.96 0.28-1.42 0.09l-25.29-10.47c0.3 6.43 0.2 23.05-7.7 35.72z"/>
 <path class="st44" d="m306.8 162c-4.92 3.57-12.34 1.56-15.04-2.15-2.35-3.23 1.29-4.34 5.52-6.92 0.63-0.38 1.27-0.81 1.91-1.27 0.81-0.59 1.55-1.21 2.26-1.82 3.57-3.12 5.88-5.99 8.13-2.9 2.71 3.7 2.13 11.47-2.78 15.06z"/>
 <path class="st59" d="m305.6 161.1c-2.74 1.73-7.34-1.77-8.26-6.29-0.14-0.69-0.18-1.32-0.13-1.89 0.63-0.38 1.27-0.81 1.91-1.27 0.81-0.59 1.55-1.21 2.26-1.82 0.68 0.19 1.42 0.55 2.15 1.11 3.67 2.78 4.82 8.43 2.07 10.16z"/>
 <defs>
  <path id="av" d="m686.4 259.4c-14.06 21.21-23.09 35.4-30.29 44.7v0.01c-16.06 20.76-22.98 17.12-56.33 12.65 40.87-34.12 43.2-52.63 43.2-52.63-41.04 3.05-64.92 19.12-64.92 19.12 9.97-38.95 20.35-51.7 38.78-52.15 14.76-0.36 34.47 7.09 63.29 15.33 7.74 3.15 6.27 12.97 6.27 12.97z"/>
 </defs>
 <clipPath id="m">
  <use xlink:href="#av"/>
 </clipPath>
 <g clip-path="url(#m)">
  <path class="st52" d="m679.8 275.2-3-0.02c0.12-15.61-5.48-19.03-10.89-22.33-4.48-2.73-9.12-5.56-8.57-15.03l2.99 0.17c-0.45 7.67 2.73 9.61 7.13 12.29 5.56 3.39 12.48 7.6 12.34 24.92z"/>
 </g>
 <path class="st53" d="m676.8 253.4c-2.9-10.21-5.36-7.98-18.51 4.22l1.65 5.36c16.95-1.12 19.76 0.63 16.86-9.58z"/>
 <path class="st53" d="m686.3 259.2c-8.88 16.11-18.65 32.01-30.67 46.02-3.83 4.36-7.9 8.63-12.6 12.13-2.52 1.74-5.12 3.6-8.28 4.04-5.31 0.08-10.49-0.8-15.7-1.45-4.57-0.65-9.12-1.41-13.63-2.43 9.24 0.03 18.46 0.87 27.54 1.38 6.82 0.41 16.39-10.42 20.94-15.19 12.13-13.65 22.44-29.21 32.4-44.5z"/>
 <path class="st58" d="m314 34.98-12.62 1.87c-1.39 0.21-1.97 1.89-1.01 2.91l30.68 32.59c1.21 1.28 3.33 0.16 2.96-1.55l-5.18-24.14c-0.22-1.04 0.53-2.03 1.58-2.1l12.6-0.82c1.07-0.07 1.82-1.08 1.58-2.12l-8.43-36.93c-0.2-0.87-1.03-1.45-1.92-1.34l-26.25 3.47c-1.11 0.15-1.79 1.28-1.4 2.33l8.78 23.5c0.39 1.04-0.27 2.17-1.37 2.33z"/>
 <defs>
  <path id="v" d="m314 34.98-12.62 1.87c-1.39 0.21-1.97 1.89-1.01 2.91l30.68 32.59c1.21 1.28 3.33 0.16 2.96-1.55l-5.18-24.14c-0.22-1.04 0.53-2.03 1.58-2.1l12.6-0.82c1.07-0.07 1.82-1.08 1.58-2.12l-8.43-36.93c-0.2-0.87-1.03-1.45-1.92-1.34l-26.25 3.47c-1.11 0.15-1.79 1.28-1.4 2.33l8.78 23.5c0.39 1.04-0.27 2.17-1.37 2.33z"/>
 </defs>
 <clipPath id="bx">
  <use xlink:href="#v"/>
 </clipPath>
 <g clip-path="url(#bx)">
  <path class="st81" d="m356.4 42.05c-0.36 0-0.72-0.13-1.01-0.39-18.2-16.67-39.53-21.29-55.66-12.06-0.72 0.41-1.64 0.16-2.05-0.56s-0.16-1.64 0.56-2.05c17.31-9.9 39.98-5.13 59.18 12.45 0.61 0.56 0.65 1.51 0.09 2.12-0.3 0.33-0.71 0.49-1.11 0.49z"/>
  <path class="st81" d="m306.1 59.53c-0.53 0-1.05-0.28-1.32-0.78-0.4-0.73-0.13-1.64 0.6-2.04 18.45-10.06 31.15-0.28 31.68 0.14 0.65 0.52 0.76 1.46 0.24 2.11s-1.46 0.76-2.11 0.24c-0.47-0.37-11.73-8.94-28.38 0.14-0.22 0.13-0.46 0.19-0.71 0.19z"/>
 </g>
 <path class="st44" d="m554 123c-0.02 0.04-0.05 0.06-0.07 0.1-2.34 3.4-7.04 3.28-8.45-0.2-0.14-0.35-0.24-0.71-0.29-1.08-0.52-3.23 2.19-6.64 5.57-6.56 3.71 0.1 5.48 4.36 3.24 7.74z"/>
 <path class="st59" d="m554 123c-0.02 0.04-0.05 0.06-0.07 0.1-2.34 3.4-7.04 3.28-8.45-0.2-0.14-0.35-0.24-0.71-0.29-1.08 0.13-0.39 0.34-0.77 0.65-1.12 1.96-2.27 6.25-1.84 7.72 0.76 0.28 0.51 0.42 1.03 0.44 1.54z"/>
 <path class="st59" d="m545.1 126.5-1.87-1.95c0.13-0.13 3.48-3.59-1.13-9.37l2.11-1.68c6.2 7.76 0.95 12.95 0.89 13z"/>
 <defs>
  <path id="h" d="m587 80.26c0.77-0.5 1.71 0.29 1.37 1.14-6.17 15.49-14.78 27.68-22.7 36.63v0.01c-7.52 8.49-14.41 14.04-17.99 16.68-1.24 0.91-3 0.31-3.43-1.17l-6.25-21.48 49-31.81z"/>
 </defs>
 <clipPath id="bu">
  <use xlink:href="#h"/>
 </clipPath>
 <g clip-path="url(#bu)">
  <path class="st52" d="m570.9 119.1-2.09-0.63c1.06-3.54 0.4-7.04-1.69-8.91-1.75-1.57-4.22-1.8-6.95-0.65l-1.52-1c-0.01-1.4-0.98-3.82-3.1-4.78-2.4-1.09-5.56-0.04-9.15 3.04l-1.43-1.66c5.4-4.65 9.22-4.4 11.48-3.37 2.29 1.04 3.71 3.23 4.2 5.28 3.01-0.88 5.85-0.35 7.92 1.52 2.77 2.46 3.65 6.74 2.33 11.16z"/>
  <path class="st52" d="m578.2 108.1-2.1-0.63c0.86-2.88 0.33-5.71-1.35-7.22-1.4-1.26-3.38-1.44-5.58-0.51l-1.52-1c-0.01-1.12-0.78-3.04-2.47-3.81-1.92-0.88-4.48-0.01-7.4 2.5l-1.43-1.66c4.56-3.93 7.81-3.71 9.74-2.83 1.89 0.86 3.09 2.63 3.54 4.33 2.5-0.67 4.84-0.2 6.58 1.35 2.36 2.12 3.11 5.75 1.99 9.48z"/>
  <path class="st52" d="m584.4 96-2.1-0.63c0.86-2.88 0.33-5.71-1.35-7.22-1.4-1.26-3.38-1.44-5.58-0.51l-1.52-1c-0.01-1.12-0.78-3.04-2.47-3.81-1.92-0.88-4.48-0.01-7.4 2.5l-1.43-1.66c4.56-3.93 7.81-3.71 9.74-2.83 1.89 0.86 3.09 2.63 3.54 4.33 2.5-0.67 4.84-0.2 6.58 1.35 2.36 2.11 3.11 5.74 1.99 9.48z"/>
 </g>
 <path class="st53" d="m567.4 103.8c-0.4 0.22-0.89-0.11-0.83-0.56 0.38-2.83 1.69-10.13 5.03-9.36 2.41 0.56 3.98 1.95 4.87 3.02 0.56 0.67 0.36 1.68-0.4 2.1l-8.67 4.8z"/>
 <defs>
  <path id="ax" d="m119.6 351.1c-23.41 7.28-42.3 12.83-56.84 14.98-28.06 4.17-39.94-4.27-36.87-37.22 0.19-2.11 1.01-4.13 2.32-5.78 22.97-28.81 38.86-20.32 63.58 0.39 8.3 6.96 17.6 15.3 28.49 24.06 1.29 1.04 0.89 3.08-0.68 3.57z"/>
 </defs>
 <clipPath id="bv">
  <use xlink:href="#ax"/>
 </clipPath>
 <g clip-path="url(#bv)">
  <path class="st52" d="m46.48 369.4c-5.19-6.59-5.62-19.05-1.11-31.75 5.81-16.35 17.57-27.96 31.45-31.08l0.59 2.63c-12.97 2.91-24 13.88-29.5 29.35-4.15 11.67-3.87 23.39 0.68 29.18l-2.11 1.67z"/>
 </g>
 <path class="st58" d="m69.37 334.6c-0.19-5.01-20.8-14.81-24.25-9.02-3.46 5.79 24.44 14.03 24.25 9.02z"/>
 <path class="st84" d="m75.43 301.4c-5.09 0.23-11.12-1.22-14.11-8.35 0 0-7.9 11.51-14.04-5.5 0 0-6.38 14.66-15.56 3.03 7.74-9.45 27.3-7.47 43.71 10.82z"/>
 <path class="st52" d="m40.34 375.9c-10.28 2.83-16.85-0.54-19.37-6.22 8.37-3.81 15.82 2.39 19.37 6.22z"/>
 <defs>
  <path id="ao" d="m119.6 351.1c-23.41 7.28-42.3 12.83-56.84 14.98 0 0-6.53-16.46 8.56-17.49 0 0-1.31-19.63 20.47-25.12 8.3 6.96 17.6 15.3 28.49 24.06 1.29 1.04 0.89 3.08-0.68 3.57z"/>
 </defs>
 <clipPath id="ap">
  <use xlink:href="#ao"/>
 </clipPath>
 <g clip-path="url(#ap)">
  <path class="st59" d="m111.6 356c-5.72-0.61-10.99-3.19-16.37-4.64-5.98-1.73-9.72 0.46-12.4 5.89 0 0-1.67-0.75-1.67-0.75 4.49-11.69 13.68-8.35 22.81-4.93 2.63 0.9 5.25 1.73 7.92 2.11l-0.29 2.32z"/>
 </g>
 <defs>
  <path id="au" d="m174.8 199.7c-0.2 3.6 19.41 9.78 19.14 13.06-0.28 3.28-5.39 4.06-27.81-3.15-7.31-2.35-13.47-4.72-19.25-9.2-11.94-9.24-22.24-27.49-37.63-73.22 0 0 0.36-6.63 8.57-7.2 0 0 8.42 4.35 48.29 25.31 7.61 4 13.7 7.33 18.54 10.31 20.53 12.61 18.85 18.79 17.5 42.1 0 0-27.15-1.75-27.35 1.99z"/>
 </defs>
 <clipPath id="l">
  <use xlink:href="#au"/>
 </clipPath>
 <g clip-path="url(#l)">
  <path class="st53" d="m130.5 186.4c-1.37-6.49 1.05-15.25 6.32-22.86 4.32-6.24 14.34-17.12 32.88-19.93l0.36 2.4c-17.63 2.67-27.15 12.99-31.25 18.91-4.91 7.08-7.18 15.12-5.94 20.97l-2.37 0.51z"/>
  <path class="st53" d="m118.5 156.3-2.39-0.43c0.15-0.87 1.63-8.51 6.15-10.35 1.56-0.64 3.23-0.5 4.98 0.38 1.47-3.64 6.54-12.38 21.66-12.94l0.09 2.43c-17.08 0.63-19.79 12.11-19.9 12.59l-0.39 1.8-1.5-1.07c-1.55-1.11-2.87-1.42-4.02-0.95-2.79 1.14-4.32 6.55-4.68 8.54z"/>
  <path class="st53" d="m112 138.1-2.26-0.89c0.07-0.19 7.59-18.71 22.5-13.06l-0.86 2.27c-5.29-2-10.13-0.69-14.39 3.89-3.29 3.54-4.97 7.74-4.99 7.79z"/>
 </g>
 <path class="st66" d="m153.3 164.2c-1.6 3.93-16.01-1.82-18.26-7.26-2.25-5.43 8.95-13.61 11.1-9.98 2.16 3.64 8.77 13.31 7.16 17.24z"/>
 <path class="st53" d="m158.8 182.8-2.36-0.6c0.07-0.28 7.24-27.65 28.26-27.83l4.31 0.17-0.1 2.43-4.25-0.17c-19.1 0.17-25.79 25.74-25.86 26z"/>
 <path class="st53" d="m637 445.5c-3.33 3.33-8.03 2.78-8.47-0.99s3.72-7.93 7.49-7.49c3.76 0.45 4.31 5.16 0.98 8.48z"/>
 <path class="st44" d="m535.1 309.5c-4.52 3.65-6.53 6.48-9.59 11.31-0.26-0.36-4.97-6.22-5.22-6.57-0.16-0.23-0.32-0.47-0.48-0.7-2.28-3.4-3.88-6.23-4.92-8.55-1.55-3.47-1.83-5.8-1.23-7.17v-0.01c1.77-4.09 14 0.61 21.44 11.69z"/>
 <path class="st59" d="m525.3 312.5c-0.23 2.04-1.12 3.69-2.3 4.8-0.23-0.22-0.45-0.44-0.68-0.67-3.28-3.26-5.68-6.04-7.34-8.38 0.6-1.15 1.47-2.13 2.61-2.76 4.06-2.22 8.34 1.66 7.71 7.01z"/>
 <path class="st52" d="m501 346.8-1.11-9.18c-0.06-0.49 0.13-0.97 0.5-1.29s0.88-0.43 1.35-0.3l9.17 2.52-0.98-6.7c-0.08-0.55 0.16-1.09 0.61-1.41l5.67-4c0.64-0.46 1.54-0.32 2.02 0.31 5.61 7.33 11.56 11.14 16.35 10.42 2.56-0.38 4.54-2.12 5.58-4.89 3-8.05-2.74-18.86-8.58-25.67-7.08-8.27-12.28-10.55-14.78-9.92-1.04 0.26-1.72 1.07-2.02 2.4-1.02 4.59 2.61 13.04 11.5 20.53l6.35-2.43 1.05 2.75-7.15 2.73c-0.49 0.19-1.05 0.1-1.45-0.23-10.77-8.77-14.37-18.58-13.17-23.99 0.54-2.44 2.03-4.08 4.18-4.62 4.48-1.12 10.77 2.74 17.72 10.86 10.16 11.86 11.36 22.56 9.1 28.62-1.41 3.77-4.29 6.24-7.9 6.77-5.61 0.83-12.2-2.95-18.25-10.43l-3.8 2.68 1.17 8.03c0.07 0.49-0.11 0.99-0.48 1.31s-0.88 0.45-1.36 0.32l-9.23-2.53 0.85 7.01-2.91 0.33z"/>
 <path class="st87" d="m511.6 290.4c4.13 5.58 4.22 13.74-1.19 18.55-0.73 0.66-1.43 1.22-2.38 1.75l-1.57-2.48c0.46-0.44 1.07-1.02 1.51-1.61 1.78-2.11 2.85-4.78 2.86-7.52-0.04-2.52-0.84-4.91-1.78-7.23-0.01 0 2.55-1.46 2.55-1.46z"/>
 <defs>
  <path id="ab" d="m166 132c-0.8-13.83-14.31-0.41-14.31-0.41-5.56-15.49-17.61-3.05-17.61-3.05l57.23 31.58c5.79-45.67-6.47-37.18-25.31-28.12z"/>
 </defs>
 <clipPath>
  <use xlink:href="#ab"/>
 </clipPath>
 <defs>
  <path id="ac" d="m485.4 92.89c-4.87 8.53-19.52 16.01-50.95 30.44-1.55 0.71-3.39 0.16-4.3-1.28-11.68-18.55-17.35-28.93-18.27-36.25v-0.03c-1.9-15.17 16.59-17.19 44.11-51.55 3.56-3.54 14.05 1.39 14.05 1.39 11.35 33.03 21.79 46.06 15.36 57.28z"/>
 </defs>
 <clipPath>
  <use xlink:href="#ac"/>
 </clipPath>
 <defs>
  <path id="br" d="m680.2 246.2c3.2-26.96 19.3-38.56 24.05-41.43 0.5-0.3 1.1 0.15 0.98 0.72-9.41 41.85 20.74 56.04 29.35 59.19 0.63 0.23 0.55 1.13-0.1 1.27-26.77 5.76-45.93-5.31-47.87-6.49-0.11-0.07-0.19-0.16-0.25-0.27l-6.1-12.62c-0.05-0.11-0.07-0.25-0.06-0.37z"/>
 </defs>
 <clipPath>
  <use xlink:href="#br"/>
 </clipPath>
 <defs>
  <path id="cj" d="m210.5 82.06c-11.51 0.47-20.35-7.07-22.1-16.23l29.75-21.65c3.85 1.44 7.3 3.96 9.8 7.58 8.84 12.77-0.85 29.61-17.45 30.3z"/>
 </defs>
 <clipPath>
  <use xlink:href="#cj"/>
 </clipPath>
 <defs>
  <path id="ay" d="m532.8 193c-1.08-5.3-5.51-12.26-7.99-15.86-0.55-0.79 0.24-1.82 1.15-1.51 5.72 1.93 18.96 7.42 29.48 19.54 0.65 0.75-0.09 1.88-1.04 1.61-11.33-3.17-17.52-0.02-17.52-0.02l-4.08-3.76z"/>
 </defs>
 <clipPath>
  <use xlink:href="#ay"/>
 </clipPath>
 <defs>
  <path id="z" d="m534.4 191.8c-18.06 13.37-36.97 9.7-42.45 13.67-4.5 3.26-3.29 21.21-2.72 27.54 0.11 1.25 1.16 2.23 2.42 2.21 46.9-0.56 49.68-38.5 42.75-43.42z"/>
 </defs>
 <clipPath>
  <use xlink:href="#z"/>
 </clipPath>
 <defs>
  <path id="bd" d="m43.01 194.8-4.41-17.08c-20.37 3.93-18.45 25.89-18.45 25.89l16.98-1.32 5.88-7.49z"/>
 </defs>
 <clipPath>
  <use xlink:href="#bd"/>
 </clipPath>
 <defs>
  <path id="bh" d="m77.64 219.3-10.17-36.63c-0.2-0.72-1.01-1.09-1.68-0.76-24.06 11.89-28.48 36.21-29.23 42.33-0.09 0.74 0.51 1.39 1.26 1.34l36.86-2.13c2.08-0.13 3.52-2.14 2.96-4.15z"/>
 </defs>
 <clipPath>
  <use xlink:href="#bh"/>
 </clipPath>
 <defs>
  <path id="bo" d="m77.64 219.3-10.17-36.63c-0.2-0.72-1.01-1.09-1.68-0.76-24.06 11.89-28.48 36.21-29.23 42.33-0.09 0.74 0.51 1.39 1.26 1.34l36.86-2.13c2.08-0.13 3.52-2.14 2.96-4.15z"/>
 </defs>
 <clipPath>
  <use xlink:href="#bo"/>
 </clipPath>
 <defs>
  <path id="bm" d="m698.8 467.2-1.82 8.02c8.86 38.56 34.15 13.92 14.41-5.59 42.11-22.43 15.44-33.96-12.59-2.43z"/>
 </defs>
 <clipPath>
  <use xlink:href="#bm"/>
 </clipPath>
 <defs>
  <path id="ag" d="m641.2 404.6c-9.85-19.01-19.42-16.01-21.48 11.02l54.16 25.32c-9.6-34.04-10.15-87.41-32.68-36.34z"/>
 </defs>
 <clipPath>
  <use xlink:href="#ag"/>
 </clipPath>
 <defs>
  <path id="an" d="m700.4 475.2c-65.16 3.91-83.04 14.01-103.2-8.94 19.34-6.13 33.68-9.78 33.68-9.78-14.45-17.55-34.45-10.39-43.41-6.41-0.73-1.08-1.46-2.2-2.21-3.36-1.13-1.74-0.71-4.06 0.94-5.31 51.39-38.96 44.24-42.05 76.57-11.05 32.93 31.57 39.51 36.84 39.51 36.84 1.15 4.39-1.83 8.01-1.83 8.01z"/>
 </defs>
 <clipPath>
  <use xlink:href="#an"/>
 </clipPath>
 <defs>
  <path id="d" d="m686.4 259.4c-14.06 21.21-23.09 35.4-30.29 44.7v0.01c-16.06 20.76-22.98 17.12-56.33 12.65 40.87-34.12 43.2-52.63 43.2-52.63-41.04 3.05-64.92 19.12-64.92 19.12 9.97-38.95 20.35-51.7 38.78-52.15 14.76-0.36 34.47 7.09 63.29 15.33 7.74 3.15 6.27 12.97 6.27 12.97z"/>
 </defs>
 <clipPath>
  <use xlink:href="#d"/>
 </clipPath>
 <defs>
  <path id="y" d="m314 34.98-12.62 1.87c-1.39 0.21-1.97 1.89-1.01 2.91l30.68 32.59c1.21 1.28 3.33 0.16 2.96-1.55l-5.18-24.14c-0.22-1.04 0.53-2.03 1.58-2.1l12.6-0.82c1.07-0.07 1.82-1.08 1.58-2.12l-8.43-36.93c-0.2-0.87-1.03-1.45-1.92-1.34l-26.25 3.47c-1.11 0.15-1.79 1.28-1.4 2.33l8.78 23.5c0.39 1.04-0.27 2.17-1.37 2.33z"/>
 </defs>
 <clipPath>
  <use xlink:href="#y"/>
 </clipPath>
 <defs>
  <path id="as" d="m587 80.26c0.77-0.5 1.71 0.29 1.37 1.14-6.17 15.49-14.78 27.68-22.7 36.63v0.01c-7.52 8.49-14.41 14.04-17.99 16.68-1.24 0.91-3 0.31-3.43-1.17l-6.25-21.48 49-31.81z"/>
 </defs>
 <clipPath>
  <use xlink:href="#as"/>
 </clipPath>
 <defs>
  <path id="w" d="m119.6 351.1c-23.41 7.28-42.3 12.83-56.84 14.98-28.06 4.17-39.94-4.27-36.87-37.22 0.19-2.11 1.01-4.13 2.32-5.78 22.97-28.81 38.86-20.32 63.58 0.39 8.3 6.96 17.6 15.3 28.49 24.06 1.29 1.04 0.89 3.08-0.68 3.57z"/>
 </defs>
 <clipPath>
  <use xlink:href="#w"/>
 </clipPath>
 <defs>
  <path id="ar" d="m119.6 351.1c-23.41 7.28-42.3 12.83-56.84 14.98 0 0-6.53-16.46 8.56-17.49 0 0-1.31-19.63 20.47-25.12 8.3 6.96 17.6 15.3 28.49 24.06 1.29 1.04 0.89 3.08-0.68 3.57z"/>
 </defs>
 <clipPath>
  <use xlink:href="#ar"/>
 </clipPath>
 <defs>
  <path id="j" d="m174.8 199.7c-0.2 3.6 19.41 9.78 19.14 13.06-0.28 3.28-5.39 4.06-27.81-3.15-7.31-2.35-13.47-4.72-19.25-9.2-11.94-9.24-22.24-27.49-37.63-73.22 0 0 0.36-6.63 8.57-7.2 0 0 8.42 4.35 48.29 25.31 7.61 4 13.7 7.33 18.54 10.31 20.53 12.61 18.85 18.79 17.5 42.1 0 0-27.15-1.75-27.35 1.99z"/>
 </defs>
 <clipPath>
  <use xlink:href="#j"/>
 </clipPath>
 <path class="st30" d="m294.5 658.2c84.77 24.81 177.6 23.72 261.6-3.87 17.37-6.22 46.97-17.97 55.94-34.64 3.25-6.79 0.32-12.42-5.66-16.48l1.12-1.66c6.77 4.47 10.24 11.15 6.57 19.09-8.96 17.53-39.21 29.64-57.11 36.15-84.33 28.06-178 28.83-263 3.33l0.59-1.92z"/>
</svg>
