<svg width="46" height="46" fill="none" xmlns="http://www.w3.org/2000/svg"><path d="m42.147 42.166-6.232-6.215m-.855 5.082-.02-5.955 5.96-.02M42.147 3.544l-6.251 6.251m-.836-5.118-.02 5.955 5.96.02M3.563 42.166l6.191-6.174m.896 5.04.02-5.954-5.96-.02M3.563 3.544l6.232 6.215m.855-5.082.02 5.955-5.96.02" stroke="#BD83FD" stroke-width="4.081" stroke-miterlimit="10" stroke-linecap="round" stroke-linejoin="round"/><path d="M32.442 20.253c0 3.69-4.498 6.682-10.049 6.682-5.45 0-9.877-2.888-10.034-6.487v5.057c0 3.69 4.5 6.682 10.05 6.682 5.55 0 10.049-2.992 10.049-6.682 0-.456.117-4.821-.014-5.253l-.002.002Z" stroke="#BD83FD" stroke-width="4.081" stroke-linecap="round" stroke-linejoin="round"/><path d="M22.393 26.935c5.549 0 10.049-2.991 10.049-6.681s-4.499-6.682-10.05-6.682c-5.55 0-10.048 2.992-10.048 6.681 0 3.69 4.498 6.682 10.049 6.682Z" stroke="#BD83FD" stroke-width="4.081" stroke-linecap="round" stroke-linejoin="round"/></svg>