<?xml version="1.0" encoding="UTF-8"?>
<svg id="Layer_1" data-name="Layer 1" xmlns="http://www.w3.org/2000/svg" xmlns:xlink="http://www.w3.org/1999/xlink" viewBox="0 0 1414 468.42">
  <defs>
    <linearGradient id="linear-gradient" x1="698.93" y1="372.46" x2="708.49" y2="25.75" gradientUnits="userSpaceOnUse">
      <stop offset="0" stop-color="#4b40a8"/>
      <stop offset=".29" stop-color="#423898"/>
      <stop offset=".85" stop-color="#2a236f"/>
      <stop offset="1" stop-color="#241e63"/>
    </linearGradient>
    <linearGradient id="linear-gradient-2" x1="633.81" y1="222.08" x2="811.79" y2="313.89" gradientUnits="userSpaceOnUse">
      <stop offset="0" stop-color="#fff" stop-opacity=".8"/>
      <stop offset=".09" stop-color="#fff" stop-opacity=".67"/>
      <stop offset=".26" stop-color="#fff" stop-opacity=".47"/>
      <stop offset=".43" stop-color="#fff" stop-opacity=".3"/>
      <stop offset=".59" stop-color="#fff" stop-opacity=".17"/>
      <stop offset=".74" stop-color="#fff" stop-opacity=".08"/>
      <stop offset=".88" stop-color="#fff" stop-opacity=".02"/>
      <stop offset="1" stop-color="#fff" stop-opacity="0"/>
    </linearGradient>
  </defs>
  <g>
    <path d="m1414,0v159.53s-146.01-17.93-146.01,112.13c-26.97-26.97-102.86-15.12-110.96,54.48,0,0-42.91-26-85.94-8.49-51.21,20.84-42.64,82.27-121.91,82.59-79.27.31-108.74,45.85-108.74,45.85-58.34-29.01-133.44,15.31-133.44,15.31-152.36-60.15-235.36,5.43-296.42,5.43s-124.84-79.36-237.19-19.2c-33.83-61.05-99.29-51-99.29-51C65.4,270.78,0,262.27,0,262.27V0h1414Z" style="fill: url(#linear-gradient); stroke-width: 0px;"/>
    <path d="m1414,152.38v7.15s-146.01-17.93-146.01,112.13c-26.97-26.97-102.86-15.12-110.96,54.48,0,0-42.91-26-85.94-8.49-51.21,20.84-42.64,82.27-121.91,82.59-79.27.31-108.74,45.85-108.74,45.85-58.34-29.01-133.44,15.31-133.44,15.31-127.5-50.34-206.43-12.62-264.57,1.02-11.34,2.66-21.89,4.41-31.85,4.41-61.06,0-124.84-79.36-237.19-19.2-33.83-61.05-99.29-51-99.29-51-2.23-32.32-8.21-56.9-15.85-75.58l22.46,7.2c21.9-26.23,89.68-20.62,99.87,38.77,92.92-40.1,153.21,30.76,153.21,30.76,76.78-8.03,137.59,51.55,137.59,51.55,29.2-36.97,84.19-42.81,131.1-18.35,50.45-26.18,137.44,12.6,137.44,12.6,33.92-60.22,103.85-43.39,103.85-43.39,46.19-87.29,166.05-54.09,166.05-54.09,32.86-91.63,144.2-114.41,144.2-114.41,57.05-67.72,125.9-34.57,125.9-34.57,48.44-68.39,134.08-44.74,134.08-44.74Z" style="fill: #3b318a; stroke-width: 0px;"/>
    <g>
      <path d="m719.87,416.47l-1.34,10.23c-.06.48-.35.89-.77,1.12-.42.23-.93.25-1.36.04-5.83-2.76-11.13-2.91-15.75-.43-8.25,4.42-12.89,16.27-14.57,26.34-.97-.33-1.93-.64-2.89-.95,3.38-19.81,13.09-26.45,16.05-28.04,4.98-2.67,10.55-2.82,16.57-.44l1.08-8.26c.11-.83.86-1.41,1.69-1.3.82.11,1.4.86,1.29,1.69Z" style="fill: #897dee; stroke-width: 0px;"/>
      <path d="m695.3,415.79c-.08.82-.81,1.44-1.63,1.36-.82-.07-1.43-.8-1.36-1.62.63-7.27-.99-12.59-4.54-14.98-2.38-1.6-5.46-1.7-8.24-.28-3.18,1.62-5.15,4.82-5.27,8.54-.16,4.56,1.89,8.06,4.06,11.77,4.04,6.91,8.62,14.73.81,30.94-.97-.31-1.94-.61-2.9-.9,7.38-15.06,3.38-21.9-.5-28.52-2.29-3.91-4.65-7.96-4.47-13.39.16-4.83,2.74-8.98,6.9-11.11,3.77-1.93,7.99-1.76,11.28.46,2.61,1.76,6.84,6.39,5.86,17.73Z" style="fill: #897dee; stroke-width: 0px;"/>
      <path d="m673.8,449.9c-1.01-.31-2.01-.61-3.01-.89-.2-18.67-5.97-32.02-16.32-37.73-7.75-4.26-17.29-3.62-25.54,1.72-.4.26-.91.32-1.36.14-.45-.17-.78-.55-.9-1.02l-1.81-6.95c-.21-.8.27-1.62,1.08-1.83.79-.2,1.62.28,1.83,1.08l1.29,5c8.78-4.95,18.68-5.27,26.85-.77,6.71,3.69,17.85,13.95,17.89,41.25Z" style="fill: #897dee; stroke-width: 0px;"/>
      <path d="m666.1,447.69c-1.01-.28-2.01-.55-3.01-.81-.16-6.77-2.19-11.99-5.7-14.51-3.6-2.58-8.84-2.58-15.59,0-.77.3-1.64-.09-1.94-.86-.29-.77.09-1.64.87-1.94,7.74-2.97,13.94-2.84,18.41.36,5.86,4.21,6.95,12.35,6.96,17.76Z" style="fill: #897dee; stroke-width: 0px;"/>
      <path d="m709.24,444.71c-.48.68-1.42.84-2.09.36-.04-.03-4.39-3.04-8.21-1.39-3.12,1.35-5.31,5.61-6.32,12.34-.96-.34-1.92-.68-2.88-1.01,1.24-7.6,3.94-12.34,8.03-14.09,5.38-2.31,10.89,1.54,11.12,1.7.67.48.83,1.42.35,2.09Z" style="fill: #897dee; stroke-width: 0px;"/>
    </g>
    <g>
      <path d="m1053.61,305.92c-.07.85-.15,1.71-.23,2.58,0,0-.94-.8-2.35-2.31-6.5-6.93-22.96-28.79-3.09-55.73.64-.87,1.84-.83,2.48-.13.2.21.34.47.4.79.21,1.05.45,2.33.7,3.82,1.67,9.8,3.97,28.66,2.09,50.98Z" style="fill: #7f73e6; stroke-width: 0px;"/>
      <path d="m1050.22,312.32s-6.03-1.45-12.92-4.24c-4.8-1.95-10.03-4.55-13.91-7.76,0,0-.62,9.34-9.58,14.66,0,0-7.14-14.87,3.47-29.95,0,0,14.54,1.27,32.94,27.29Z" style="fill: #7f73e6; stroke-width: 0px;"/>
      <path d="m1053.61,305.92c-.07.85-.15,1.71-.23,2.58,0,0-.94-.8-2.35-2.31-3.01-7.72-9.9-30.15-.61-55.86.2.21.34.47.4.79.21,1.05.45,2.33.7,3.82-7.36,24.18-.49,44.66,2.09,50.98Z" style="fill: #5548ba; stroke-width: 0px;"/>
      <path d="m1037.3,308.08c-4.8-1.95-10.03-4.55-13.91-7.76,0,0,.31-4.36-.86-8.38-.11-.38.31-.69.64-.48,4.06,2.63,12.7,12.19,14.13,16.62Z" style="fill: #5548ba; stroke-width: 0px;"/>
    </g>
    <g>
      <g>
        <path d="m1377.4,159.58c-.96.08-1.93.18-2.91.29-2.48-19.53-3.18-19.68-12.61-21.74-1.32-.29-2.79-.61-4.45-1.02-.78-.19-1.26-.98-1.07-1.77.19-.78.98-1.26,1.77-1.07,1.63.4,3.08.71,4.38,1,11.05,2.4,12.18,3.28,14.89,24.31Z" style="fill: #897dee; stroke-width: 0px;"/>
        <path d="m1394.1,153.91l-4.02,4.88c-1.24.04-2.52.09-3.83.16l4.41-5.36c-5.2-2.27-7.76-4.85-7.82-7.88-.08-3.97,4.43-7.03,7.18-8.52l-8.41-7.38c-.59-.52-.65-1.42-.13-2.02.52-.59,1.42-.65,2.02-.13l10.01,8.79c.36.32.54.81.46,1.3-.07.48-.39.89-.84,1.09-1.95.83-7.5,3.88-7.44,6.82.04,1.97,2.82,4.11,7.81,6.01.43.17.76.53.88.97.11.44.01.92-.28,1.27Z" style="fill: #282066; stroke-width: 0px;"/>
        <path d="m1400.58,158.74c-1.27-.03-2.61-.05-4.02-.05,10.02-9.54,7.1-19.97,7.07-20.08-.23-.77.21-1.59.98-1.82.78-.22,1.59.22,1.82.99.14.48,3.05,10.83-5.85,20.96Z" style="fill: #897dee; stroke-width: 0px;"/>
      </g>
      <path d="m1348.63,164.58c-1.93.52-3.87,1.07-5.81,1.68-26.93-32.38-11.06-58.05,5.81-1.68Z" style="fill: #897dee; stroke-width: 0px;"/>
      <g>
        <path d="m1323.63,173.81c-2.1,1.03-4.18,2.13-6.23,3.3-.82.47-1.65.96-2.46,1.46-1.8,1.08-3.56,2.23-5.3,3.44-25.17-13.69-28.96-32.87-21.63-40.37.67-.69,1.43-1.27,2.27-1.74,2.23-1.26,5.04-1.75,8.3-1.24,16.15,2.54,23.53,22.97,25.05,35.15Z" style="fill: #897dee; stroke-width: 0px;"/>
        <path d="m1317.4,177.11c-.82.47-1.65.96-2.46,1.46l-9.86-13.52-.37-.51-16.7-22.9c.67-.69,1.43-1.27,2.27-1.74l15.34,21.04,2.01,2.76,9.77,13.41Z" style="fill: #5a4ebc; stroke-width: 0px;"/>
        <path d="m1306.01,165.4c-.17,0-.33-.03-.5-.09-.74-.27-1.12-1.09-.84-1.83l5.57-15.05c.27-.74,1.1-1.12,1.83-.84.74.27,1.12,1.09.84,1.83l-5.57,15.05c-.21.58-.76.93-1.34.93Z" style="fill: #5a4ebc; stroke-width: 0px;"/>
      </g>
    </g>
    <g>
      <path d="m1249.02,196.51c-14.99,2.01-42.68,15.85-42.68,15.85l-12.54-20.43c-17.96,5.35-39.29,19.32-39.29,19.32l-31.49-8.51c-17.58,15.54-33.78,41.12-33.78,41.12l-3.38-2.44c-19.43,18.62-28.16,59.07-28.16,59.07l198.82-90.49-7.51-13.5Z" style="fill: #bab2ff; stroke-width: 0px;"/>
      <path d="m1271.29,220.43s-119.32,28.11-198.7,65.26c-5.82-35.32,16.15-54.4,35.2-47.73,0,0,1.17-34.34,20.9-37.07,19.74-2.73,30.71,16.02,41.78,13.68,1.25-.27,2.33-.74,3.27-1.37,3.11-2.06,4.83-5.84,6.74-9.66h0c2.64-5.31,5.66-10.67,13.3-11.61,14.82-1.8,27.91,32.38,39.95,16.16,14.94-20.11,35.36-14.65,37.54,12.33Z" style="fill: #7f73e6; stroke-width: 0px;"/>
      <path d="m1191.8,218.55c-.18,8.41-4.5,15.14-9.66,15.03s-9.19-7.01-9.01-15.43c.04-1.74.25-3.4.61-4.95,3.11-2.06,4.83-5.84,6.74-9.66h0c.74-.29,1.51-.44,2.3-.42,5.16.11,9.19,7.02,9.02,15.43Z" style="fill: #211a5c; stroke-width: 0px;"/>
      <ellipse cx="1124.62" cy="230.7" rx="17.22" ry="10.9" transform="translate(870 1350.15) rotate(-88.78)" style="fill: #211a5c; stroke-width: 0px;"/>
      <circle cx="1153.06" cy="242.53" r="9.3" style="fill: #5548ba; stroke-width: 0px;"/>
      <ellipse cx="1202.47" cy="202.79" rx="3.73" ry="5.51" transform="translate(244.04 956.76) rotate(-47.76)" style="fill: #6e61d4; stroke-width: 0px;"/>
      <ellipse cx="1211.07" cy="210.54" rx="1.81" ry="2.01" transform="translate(10.98 476.64) rotate(-22.36)" style="fill: #5548ba; stroke-width: 0px;"/>
      <path d="m1263.85,215.67c-1.89,1.08-4.2-2.32-6.47-6.3-2.27-3.97-3.65-7.01-1.76-8.09,1.89-1.08,5.27,1.26,7.54,5.24,2.27,3.97,2.58,8.07.69,9.15Z" style="fill: #6e61d4; stroke-width: 0px;"/>
      <ellipse cx="1241.87" cy="216.41" rx="14.01" ry="8.86" transform="translate(576.87 1287.32) rotate(-68.05)" style="fill: #211a5c; stroke-width: 0px;"/>
      <ellipse cx="1090.39" cy="268.63" rx="14.97" ry="13.43" transform="translate(798.59 1353.05) rotate(-88.78)" style="fill: #211a5c; stroke-width: 0px;"/>
      <circle cx="1191.49" cy="200.75" r="2.41" style="fill: #5548ba; stroke-width: 0px;"/>
      <ellipse cx="1162.11" cy="220.42" rx="3.75" ry="5.36" transform="translate(294.36 1024.22) rotate(-53.55)" style="fill: #6e61d4; stroke-width: 0px;"/>
      <ellipse cx="1151.17" cy="216.58" rx="2.15" ry="2.47" transform="translate(-8.4 50.73) rotate(-2.52)" style="fill: #5548ba; stroke-width: 0px;"/>
      <ellipse cx="1106.52" cy="254.47" rx="1.92" ry="2.65" transform="translate(626.45 1283.38) rotate(-77.94)" style="fill: #5548ba; stroke-width: 0px;"/>
      <ellipse cx="1205.85" cy="216.85" rx="3.25" ry="4.66" transform="translate(51.42 627.19) rotate(-29.76)" style="fill: #6658c9; stroke-width: 0px;"/>
      <ellipse cx="1143.23" cy="224.72" rx="3.25" ry="3.72" transform="translate(-.31 447.87) rotate(-22.16)" style="fill: #6658c9; stroke-width: 0px;"/>
      <ellipse cx="1101.63" cy="244.52" rx="3.24" ry="5.04" transform="translate(180.09 895.78) rotate(-47.76)" style="fill: #6e61d4; stroke-width: 0px;"/>
      <path d="m1146.44,210.62c-.41,1.64-4.64,1.29-9.65.04-5.01-1.25-8.91-2.93-8.5-4.57s4.97-2.63,9.98-1.38,8.57,4.26,8.16,5.9Z" style="fill: #6e61d4; stroke-width: 0px;"/>
    </g>
    <g>
      <path d="m1279.92,215.94c-7.43,14.61-11.93,32.88-11.93,55.72-26.97-26.97-102.86-15.12-110.96,54.48,0,0-42.91-26-85.94-8.49-24.67,10.04-35.47,29.5-48.89,47.01-5.26,6.85-10.92,13.41-17.97,18.98-7.15,5.65-15.73,10.29-26.77,13.21-8.01,2.12-17.3,3.34-28.28,3.39-79.27.31-108.74,45.85-108.74,45.85-23.56-11.72-49.86-11.47-72.84-7.01,47.46-50.25,139.17-81.58,203.15-83.8.82-.03,1.64-.05,2.46-.07,15.21-.36,28.75.97,39.65,4.13,52.73-105.77,158.05-135.74,267.06-143.4Z" style="fill: #292069; fill-rule: evenodd; stroke-width: 0px;"/>
      <path d="m1260.41,265.81c-8.49-5.08-19.39-7.67-30.94-7.49-4.42-10.77-13.21-25.38-29.65-31.65,9.61-2.05,19.36-3.79,29.2-5.26,9.7,5.1,23.33,16.96,31.39,44.4Z" style="fill: #3b318a; fill-rule: evenodd; stroke-width: 0px;"/>
      <path d="m1182.39,275.95c-6.22,5.31-11.71,11.88-16.02,19.79-22.64-31.96-55.39-32.58-65.56-31.92,10.88-6.54,22.26-12.24,34.05-17.21,23.61,4.28,38.53,17.4,47.53,29.34Z" style="fill: #3b318a; fill-rule: evenodd; stroke-width: 0px;"/>
      <path d="m1104.63,311.61c-10.63-.2-22.08,1.38-33.54,6.04-4.99,2.03-9.41,4.45-13.4,7.15-3.4-4-8.21-8.1-15.01-11.42,6.34-7.64,13.09-14.71,20.17-21.23,12.05,1.79,27.16,6.86,41.78,19.46Z" style="fill: #3b318a; fill-rule: evenodd; stroke-width: 0px;"/>
      <path d="m1022.2,364.66c-5.26,6.85-10.92,13.41-17.97,18.98-5.87-8.78-16.49-21.87-31.02-28.43,15.21-.36,28.75.97,39.65,4.13,0,0,4.56,1.96,9.34,5.32Z" style="fill: #1c1747; fill-rule: evenodd; stroke-width: 0px;"/>
      <path d="m977.46,396.85c-8.01,2.12-17.3,3.34-28.28,3.39-79.27.31-108.74,45.85-108.74,45.85-23.56-11.72-49.86-11.47-72.84-7.01,47.46-50.25,139.17-81.58,203.15-83.8,4.94,12.99,8.63,28.08,6.71,41.57Z" style="fill: #1c1747; fill-rule: evenodd; stroke-width: 0px;"/>
    </g>
    <path d="m442.43,462.42c-11.34,2.66-21.89,4.41-31.85,4.41-12.57,0-25.26-3.36-38.46-8.18-11.92-4.35-24.27-9.89-37.33-15.2-42.71-17.39-93.07-32.41-161.4,4.18-17.5-31.58-43.46-44.14-64.45-48.9-15.45-3.5-28.2-2.79-32.9-2.33h0c-1.26.12-1.94.23-1.94.23-2.23-32.32-8.21-56.9-15.85-75.58,31.96,0,56.68,7.8,75.59,18.57,9.95,5.66,18.28,12.15,25.22,18.76,22.52,21.46,30.25,44.19,30.25,44.19,55.23-18.77,121.45-9.59,174.05,10.61,12.64,4.85,24.5,10.34,35.22,16.23,18.59,10.2,33.8,21.61,43.85,33.01Z" style="fill: #292069; stroke-width: 0px;"/>
    <path d="m159.06,358.38c-42.7,3.85-51.81,23.7-54.34,39.48-15.45-3.5-23.98-1.92-28.68-1.46,4.68-37.78,36.75-53.58,57.8-56.78,9.95,5.66,18.28,12.15,25.22,18.76Z" style="fill: #1c1747; stroke-width: 0px;"/>
    <path d="m398.58,429.41c-13.82,9-21.84,20.04-26.46,29.24-11.92-4.35-24.27-9.89-37.33-15.2,7.35-15,18.74-24.48,28.57-30.27,12.64,4.85,24.5,10.34,35.22,16.23Z" style="fill: #1c1747; stroke-width: 0px;"/>
    <g>
      <g>
        <path d="m362.88,455.1c-8.52-3.41-17.28-7.23-26.4-10.97-2.59-1.06-5.2-2.11-7.85-3.15-.09-.04-.19-.07-.28-.11-1.42-.55-2.85-1.11-4.29-1.65-1.16-.44-2.33-.88-3.51-1.31-1.94-.71-3.9-1.4-5.88-2.08-3.27-1.12-6.59-2.19-9.96-3.19l3.33-17.5,7.45-2.76,12.43-4.62s1.11,2.29,3.09,5.92c5.57,10.2,18,31.01,31.87,41.42Z" style="fill: #dedafb; stroke-width: 0px;"/>
        <path d="m310.38,405.11l-2.25,9.65-.09.38-1.08.4-29.74,11.05c-13.75-1.91-28.37-2.15-44.08.26l-50.74-11.04-9.48-2.06-50.53-10.99c-2.4-.91-4.78-1.7-7.11-2.38v-24.02l10.64,5.54,9.84,5.11,29.02-16.69s.01.01.01.01l3.12,2.48,13.85,10.99,9.85,7.82,26.06-19.36c.12.1.24.21.35.32,1.44,1.28,7.16,6.43,13.67,12.59,3.02,2.86,6.21,5.93,9.22,8.94l41.39-18.14s.95,4.56,4.49,10.31c2.78,4.49,7.16,9.72,13.93,14.04,2.79,1.79,5.99,3.42,9.66,4.79Z" style="fill: #dedafb; stroke-width: 0px;"/>
        <path d="m328.35,440.87c-1.42-.55-2.85-1.11-4.29-1.65-1.16-.44-2.33-.88-3.51-1.31-1.94-.71-3.9-1.4-5.88-2.08-3.27-1.12-6.59-2.19-9.96-3.19-2.06-.61-4.15-1.2-6.25-1.75-.83-.22-1.66-.43-2.5-.64-1.97-.5-3.96-.96-5.96-1.39-2.79-.61-5.61-1.15-8.48-1.62-.12-.02-.23-.04-.35-.06-.59-.1-1.19-.19-1.79-.29-.72-.11-1.44-.21-2.16-.3-13.75-1.91-28.37-2.15-44.08.26-.64.1-1.28.2-1.93.31-.56.09-1.13.18-1.7.29-.52.09-1.04.18-1.56.28-.74.14-1.49.29-2.24.44-6.62,1.34-13.43,3.15-20.45,5.52-8.83,2.97-17.98,6.81-27.48,11.65-1.45.74-2.92,1.5-4.39,2.29-.25-.44-.49-.88-.75-1.32-.41-.73-.84-1.46-1.27-2.17-1.13-1.87-2.28-3.67-3.46-5.4-.29-.43-.58-.85-.88-1.26-1.69-2.41-3.44-4.69-5.25-6.83-.12-.15-.25-.31-.38-.46-.6-.71-1.21-1.41-1.83-2.09-3.34-3.73-6.83-7.04-10.4-9.96-2.51-2.07-5.06-3.94-7.63-5.64-1.4-.93-2.8-1.81-4.21-2.63-.08-.05-.15-.09-.22-.13-1.86-1.09-3.73-2.1-5.6-3.02-3.06-1.52-6.11-2.84-9.12-3.96-2.4-.91-4.78-1.7-7.11-2.38-.13-.04-.27-.08-.4-.12-1.23-.35-2.44-.68-3.64-.97-2.23-.57-4.41-1.04-6.52-1.43-6.56-1.21-12.51-1.69-17.38-1.82,8.02-20.09,20.97-25.29,27.94-19.68,2.93,2.36,4.8,6.64,4.8,12.53,1.82-2.53,3.78-4.87,5.84-6.99,12.46-12.92,28.41-18.12,38.86-11.58.01,0,.01.01.01.01,1.11.68,2.15,1.5,3.12,2.48,4.39,4.31,7.3,11.41,7.77,21.72,1.55-3.98,3.64-7.57,6.08-10.73,10.46-13.55,27.41-18.99,35.91-11.54.12.1.24.21.35.32,4.13,3.9,6.09,11.01,4.05,21.95,2.95-3.45,6.2-6.58,9.62-9.36,18.03-14.68,40.9-19.6,50.61-9.2,2.36,2.51,3.94,5.93,4.49,10.31.74,5.75-.28,13.17-3.64,22.44,5.93-4.26,11.91-7.01,17.57-8.4,11.51-2.83,21.65.01,27.2,7.44,1.3,1.73,2.34,3.71,3.09,5.92,2.37,6.91,1.89,16.11-2.66,27.19Z" style="fill: #897dee; stroke-width: 0px;"/>
        <ellipse cx="263.76" cy="403.5" rx="19.53" ry="11.95" transform="translate(-208.06 304.68) rotate(-45)" style="fill: #211a5c; stroke-width: 0px;"/>
        <path d="m326.13,435.99c-.61,1.16-1.31,2.24-2.07,3.23-1.16-.44-2.33-.88-3.51-1.31-1.94-.71-3.9-1.4-5.88-2.08-3.27-1.12-6.59-2.19-9.96-3.19-2.06-.61-4.15-1.2-6.25-1.75.19-2.7.97-5.5,2.37-8.17,1.57-2.99,3.71-5.43,6.13-7.18.38-.28.77-.54,1.17-.78,2.33-1.44,4.86-2.27,7.36-2.38,2.14-.11,4.26.32,6.19,1.33,6.99,3.67,8.98,13.64,4.45,22.28Z" style="fill: #211a5c; stroke-width: 0px;"/>
        <ellipse cx="205.08" cy="398.86" rx="20.04" ry="10.92" transform="translate(-243.4 395.22) rotate(-62.32)" style="fill: #211a5c; stroke-width: 0px;"/>
        <ellipse cx="157.81" cy="393.55" rx="15.58" ry="13.88" transform="translate(-264.01 350.52) rotate(-62.32)" style="fill: #211a5c; stroke-width: 0px;"/>
        <path d="m115.92,393.01c-.17.62-.39,1.21-.64,1.76-.94,2.08-2.41,3.68-4.04,4.52-2.23-.57-4.41-1.04-6.52-1.43-1.48-1.97-1.98-5.1-1.09-8.28,1.3-4.68,5.11-7.71,8.5-6.77,1.34.37,2.42,1.31,3.15,2.6,1.12,1.97,1.43,4.76.64,7.6Z" style="fill: #211a5c; stroke-width: 0px;"/>
        <path d="m181.13,402.53c7.23,2.23-2.03,22-8.74,18.47-5.56-2.92,1.51-20.71,8.74-18.47Z" style="fill: #5a4ebc; stroke-width: 0px;"/>
      </g>
      <path d="m227.95,427.73c-.74.14-1.49.29-2.24.44-6.62,1.34-13.43,3.15-20.45,5.52-8.83,2.97-17.98,6.81-27.48,11.65-1.45.74-2.92,1.5-4.39,2.29-.25-.44-.49-.88-.75-1.32-.41-.73-.84-1.46-1.27-2.17-3-4.99-6.2-9.47-9.59-13.49,9.84-3.66,30.04-7.88,66.17-2.92Z" style="fill: #5a4ebc; stroke-width: 0px;"/>
      <path d="m238.17,387.27c3.02,3.02-10.71,20.96-14.48,17.19s11.16-20.51,14.48-17.19Z" style="fill: #5a4ebc; stroke-width: 0px;"/>
      <ellipse cx="258.03" cy="382.08" rx="6.56" ry="4.42" transform="translate(-58.76 47.1) rotate(-9.37)" style="fill: #6e61d4; stroke-width: 0px;"/>
      <ellipse cx="246.91" cy="394.33" rx="2.68" ry="2.27" transform="translate(-198.31 259.25) rotate(-41.07)" style="fill: #6e61d4; stroke-width: 0px;"/>
      <ellipse cx="294.13" cy="411.12" rx="6.88" ry="3.77" transform="translate(-158.54 186.13) rotate(-27.99)" style="fill: #6e61d4; stroke-width: 0px;"/>
      <ellipse cx="127.89" cy="393.55" rx="5.7" ry="3.8" style="fill: #5a4ebc; stroke-width: 0px;"/>
      <ellipse cx="142.8" cy="375.53" rx="4.62" ry="3.42" transform="translate(-130.62 81.15) rotate(-22.07)" style="fill: #6e61d4; stroke-width: 0px;"/>
    </g>
    <g>
      <path d="m410.79,466.83h-.21c-1.42,0-2.85-.04-4.27-.13-.89-.05-1.78-.12-2.66-.21-.58-.05-1.15-.1-1.72-.17-8.06-7.81-21.24-20.67-7.56-28.96,0,0-31.77-13.24-9.46-30.66-31.87-6.31-29.42-28.96-14.97-27.9h.06c1.77.14,3.91.86,6.27,2.16,15.36,8.36,40.03,40.36,34.52,85.87Z" style="fill: #897dee; stroke-width: 0px;"/>
      <path d="m406.31,466.7c-.89-.05-1.78-.12-2.66-.21.2-39.72-10.69-68.08-33.71-87.69h.06c1.77.14,3.91.86,6.27,2.16,20.55,19.93,30.26,47.77,30.04,85.74Z" style="fill: #5548ba; stroke-width: 0px;"/>
    </g>
    <g>
      <g>
        <path d="m51.46,235.89c-.06.91-.17,1.83-.31,2.73-.15.91-.33,1.82-.54,2.72-.43,1.8-.99,3.59-1.67,5.37-2.38,6.34-6.14,12.62-10,19.08-2.72,4.54-5.46,9.12-7.82,13.85-2.58-2.43-5.12-4.53-7.56-6.33,2.26-4.32,4.73-8.46,7.12-12.45,2.78-4.64,5.39-9.01,7.41-13.2h0c.44-.92.85-1.82,1.22-2.71.25-.6.49-1.19.7-1.78t0-.01c.33-.88.62-1.76.87-2.63.33-1.16.6-2.31.78-3.45.09-.57.15-1.14.2-1.7.11-1.35.09-2.68-.07-4.01-.34-2.64,1.54-5.04,4.17-5.36,1.73-.22,3.35.51,4.35,1.77.26.33.49.71.66,1.11.11.27.21.55.27.84.04.15.06.3.08.45.04.34.08.69.11,1.03.14,1.57.13,3.14.02,4.68Z" style="fill: #685ad9; stroke-width: 0px;"/>
        <path d="m51.33,230.19c.24,1.92.27,3.82.13,5.7-.26,3.66-1.18,7.26-2.53,10.82-3.14-.79-6.9-.86-10.86.95,2.75-5.71,4.35-11.07,3.71-16.29-.33-2.64,1.54-5.04,4.18-5.36,2.64-.32,5.03,1.54,5.36,4.18Z" style="fill: #ada3ff; stroke-width: 0px;"/>
      </g>
      <g>
        <path d="m118.19,281.38c-1.93,5.32-4.86,9.62-8.37,13.25-5.69,5.89-12.88,10.04-19.93,14.12-.58.34-1.16.67-1.74,1.01-5.35,3.1-10.7,6.33-15.52,10.43-3.88,3.28-7.4,7.11-10.31,11.89-1.25-3.76-2.56-7.32-3.93-10.68,3.35-4.18,7.09-7.62,11-10.61,4.4-3.36,9.02-6.16,13.51-8.77.77-.45,1.55-.9,2.32-1.35,10.88-6.28,20.29-11.71,24.21-22.5.89-2.41,3.57-3.66,5.99-2.79,2.41.9,3.66,3.57,2.77,6Z" style="fill: #ada3ff; stroke-width: 0px;"/>
        <path d="m88.15,309.76c-5.34,3.1-10.7,6.33-15.52,10.43.96-5.37-1.89-8.34-3.24-9.4,4.4-3.37,9.02-6.16,13.51-8.77,3.26,2.33,4.68,5.21,5.25,7.74Z" style="fill: #685ad9; stroke-width: 0px;"/>
      </g>
      <g>
        <path d="m55.38,278.4c0,.96-.34,1.91-.95,2.66-.12.14-.25.28-.39.42-.29.26-.61.49-.98.68-.04.02-.16.08-.34.19-.12.06-.26.15-.43.25-.26.16-.57.36-.92.6-.23.15-.48.33-.74.52h-.01c-.27.21-.55.42-.84.65-.58.47-1.22,1.01-1.87,1.65-1.75,1.68-3.65,3.93-5.18,6.83-1.86-2.54-3.75-4.87-5.63-7.01.46-.7.93-1.35,1.4-1.95,1.16-1.49,2.37-2.8,3.53-3.91h.01c.7-.67,1.38-1.28,2.03-1.82.22-.18.43-.35.64-.52.63-.5,1.22-.94,1.76-1.31,1.6-1.11,2.69-1.67,2.79-1.72,1.63-.82,3.53-.48,4.78.69.07.06.14.13.21.21.27.28.51.61.69.98.12.25.22.51.29.77.04.13.07.26.09.39.02.13.03.27.04.4.01.11.02.24.02.35Z" style="fill: #ada3ff; stroke-width: 0px;"/>
        <path d="m54.93,276.49c.25.5.4,1.03.43,1.56.14,1.66-.73,3.31-2.31,4.1-.24.13-2.53,1.34-5.15,3.87-1.02-2.65-2.79-5.1-5.87-6.04,3.73-3.6,7.05-5.29,7.22-5.38,2.09-1.05,4.63-.2,5.68,1.89Z" style="fill: #685ad9; stroke-width: 0px;"/>
      </g>
      <g>
        <path d="m111.15,327.54c0,.17-.02.34-.06.51,0,.07-.02.13-.03.2-.02.14-.06.27-.1.4-.1.33-.23.66-.4.98-1.54,2.87-3.8,5.78-6.62,8.53-2.46,2.41-5.33,4.71-8.5,6.76-.45.29-.9.57-1.36.85-.01,0-.01.01-.02.01-.04.03-.09.07-.13.09-7.44,4.51-16.12,7.6-25.47,9.07-.72-3.43-1.5-6.73-2.33-9.92,9.04-1.47,20.28-5.16,28.2-11.59v-.02c3.04-2.44,5.58-5.28,7.33-8.56,1.32-2.46,4.39-3.38,6.85-2.06.53.28.98.65,1.36,1.07.08.09.15.17.22.26.35.45.62.95.8,1.47.22.62.31,1.28.26,1.95Z" style="fill: #685ad9; stroke-width: 0px;"/>
        <path d="m110.56,329.63c-3.07,5.75-9.08,11.62-16.5,16.15.61-2.28,1.67-7.5.27-12.36h0c3.03-2.46,5.57-5.3,7.32-8.57,1.32-2.46,4.39-3.38,6.85-2.06,2.46,1.32,3.38,4.38,2.06,6.84Z" style="fill: #ada3ff; stroke-width: 0px;"/>
      </g>
      <g>
        <path d="m79.28,281.65c-.31.3-.66.57-1.06.79-.04.02-.12.07-.23.14-.8.47-3.34,2.05-6.61,4.94-5.16,4.54-12.2,12.34-17.31,24.21-1.82-3.72-3.71-7.17-5.65-10.35,5.95-10.98,13.18-18.27,18.36-22.55.24-.19.47-.38.69-.56.68-.55,1.32-1.04,1.91-1.47.2-.14.39-.28.58-.42.93-.67,1.71-1.19,2.31-1.57,0,0,.01.01.01,0,.24-.16.45-.29.62-.39.36-.22.6-.35.69-.4,2.32-1.28,5.25-.43,6.53,1.9,1.06,1.92.66,4.25-.84,5.73Z" style="fill: #685ad9; stroke-width: 0px;"/>
        <path d="m80.12,275.92c1.27,2.32.43,5.25-1.9,6.53-.32.18-3.1,1.77-6.84,5.08-.54-2.16-1.79-5.54-4.59-8.69,3.76-3.11,6.46-4.62,6.8-4.81,2.33-1.28,5.25-.43,6.54,1.89Z" style="fill: #ada3ff; stroke-width: 0px;"/>
      </g>
    </g>
    <g>
      <g>
        <polygon points="949.92 339.08 953.78 306.26 815.41 353.39 808.56 385.93 949.92 339.08" style="fill: #897dee; stroke-width: 0px;"/>
        <path d="m943.62,338.48l1.97-20.75c.11-1.2-1.05-2.12-2.2-1.73l-121.58,41.41c-.56.19-.98.66-1.09,1.24l-4.55,22.09c-.26,1.26.95,2.33,2.17,1.91l124.17-42.75c.62-.21,1.05-.77,1.12-1.42Z" style="fill: #45389e; stroke-width: 0px;"/>
        <polygon points="962.66 348.73 951.13 354.98 946.51 338.94 949.92 339.08 962.66 348.73" style="fill: #897dee; stroke-width: 0px;"/>
        <path d="m953.78,306.26c22.03,37.54,9.06,55.92-3.85,32.82l3.85-32.82Z" style="fill: #bab2ff; stroke-width: 0px;"/>
      </g>
      <g>
        <path d="m933.41,348.7c2.76-5.18,2.47-11.14-.27-15.62l.94-1.76-6.37-3.4c-7.21-3.84-16.35-.78-20.42,6.85s-1.51,16.93,5.7,20.77l6.37,3.4.94-1.76c5.25-.23,10.36-3.31,13.12-8.49Z" style="fill: #d6902b; stroke-width: 0px;"/>
        <ellipse cx="926.72" cy="345.13" rx="15.65" ry="14.8" transform="translate(186.35 1000.7) rotate(-61.95)" style="fill: #f5c44f; stroke-width: 0px;"/>
        <path d="m926.23,357.02c-1.76,0-3.52-.41-5.16-1.29-2.71-1.44-4.66-3.91-5.5-6.95-.83-3.01-.45-6.21,1.05-9.03,3.11-5.84,10.17-8.18,15.74-5.22h0c5.57,2.97,7.56,10.13,4.45,15.98-2.2,4.12-6.36,6.5-10.58,6.5Zm.96-20.77c-3.14,0-6.27,1.8-7.92,4.92-1.14,2.14-1.42,4.56-.8,6.82.61,2.23,2.04,4.04,4.01,5.09,4.11,2.19,9.35.4,11.68-3.98,2.34-4.38.9-9.73-3.21-11.92-1.19-.63-2.48-.93-3.76-.93Z" style="fill: #d6902b; stroke-width: 0px;"/>
      </g>
      <g>
        <rect x="840.22" y="348.75" width="33.15" height="13.07" rx="2.85" ry="2.85" transform="translate(-68.8 295.24) rotate(-18.81)" style="fill: #d6902b; stroke-width: 0px;"/>
        <rect x="841.79" y="361.61" width="33.15" height="13.07" rx="2.85" ry="2.85" transform="translate(-72.86 296.43) rotate(-18.81)" style="fill: #d6902b; stroke-width: 0px;"/>
      </g>
      <path d="m969.76,398.54c-2.95.52-6.07.92-9.36,1.21-2.59.22-5.28.37-8.09.44l-.93-5.72-8.58-53.03-.25-1.57-.57-3.51,1.78.61,6.16,2.11s2.02,5.95,4.76,13.98c3.82,11.2,9.02,26.47,12.04,35.34,1.23,3.61,2.1,6.15,2.37,6.94.37,1.09.61,2.17.67,3.2Z" style="fill: #bab2ff; stroke-width: 0px;"/>
      <g>
        <path d="m877.24,345.5c2.46,5.57,7.5,9.13,12.91,9.76l.83,1.88,6.84-3.03c7.74-3.43,11.09-12.84,7.46-21.03-3.62-8.19-12.84-12.05-20.59-8.63l-6.84,3.03.83,1.88c-3.17,4.43-3.92,10.56-1.46,16.13Z" style="fill: #d6902b; stroke-width: 0px;"/>
        <ellipse cx="884.42" cy="342.32" rx="15.34" ry="16.22" transform="translate(-62.88 387.12) rotate(-23.87)" style="fill: #f5c44f; stroke-width: 0px;"/>
        <path d="m884.86,354.61c-4.64,0-9.16-2.83-11.23-7.52-2.76-6.24-.17-13.47,5.78-16.1,5.95-2.63,13.04.31,15.8,6.55,2.76,6.25.17,13.47-5.78,16.1h0c-1.48.65-3.03.96-4.57.96Zm-.88-21.58c-1.13,0-2.27.23-3.36.71-4.44,1.96-6.34,7.41-4.25,12.14,2.09,4.73,7.41,6.99,11.84,5.02h0c4.44-1.96,6.34-7.41,4.25-12.14-1.58-3.57-5-5.73-8.48-5.73Z" style="fill: #d6902b; stroke-width: 0px;"/>
      </g>
      <g>
        <rect x="808.24" y="346.88" width="35.13" height="13.85" rx="3.02" ry="3.02" transform="translate(-69.97 285.17) rotate(-18.81)" style="fill: #f5c44f; stroke-width: 0px;"/>
        <rect x="810.03" y="360.9" width="35.13" height="13.85" rx="3.02" ry="3.02" transform="translate(-74.4 286.49) rotate(-18.81)" style="fill: #f5c44f; stroke-width: 0px;"/>
        <path d="m814.32,366.53c-.62,0-1.21-.39-1.42-1.02-.27-.78.15-1.64.94-1.9l24.75-8.43c.78-.27,1.64.15,1.9.94.27.78-.15,1.64-.94,1.9l-24.75,8.43c-.16.05-.32.08-.48.08Z" style="fill: #d6902b; stroke-width: 0px;"/>
        <rect x="835.35" y="343.12" width="3" height="13.85" transform="translate(-68.17 288.55) rotate(-18.81)" style="fill: #d6902b; stroke-width: 0px;"/>
        <rect x="824.3" y="346.88" width="3" height="13.85" transform="translate(-69.97 285.13) rotate(-18.81)" style="fill: #d6902b; stroke-width: 0px;"/>
        <rect x="812.89" y="350.77" width="3" height="13.85" transform="translate(-71.83 281.66) rotate(-18.81)" style="fill: #d6902b; stroke-width: 0px;"/>
        <rect x="833.25" y="358.46" width="3" height="13.85" transform="translate(-73.23 288.69) rotate(-18.81)" style="fill: #d6902b; stroke-width: 0px;"/>
        <rect x="821.25" y="362.55" width="3" height="13.85" transform="translate(-75.19 285.04) rotate(-18.81)" style="fill: #d6902b; stroke-width: 0px;"/>
      </g>
      <path d="m960.4,399.75c-2.59.22-5.28.37-8.09.44-1.03.03-2.07.05-3.13.05-5.44.02-10.64.26-15.62.68-2.41.2-4.77.44-7.07.74-3,.36-5.9.8-8.72,1.3-10,1.76-18.89,4.28-26.76,7.22-3.25,1.21-6.33,2.5-9.24,3.85-2.63,1.2-5.12,2.45-7.47,3.73-2.44,1.32-4.73,2.66-6.88,4.02-1.82,1.14-3.54,2.28-5.16,3.43-15.26,10.73-21.82,20.88-21.82,20.88-8.4-4.18-17.14-6.83-25.96-8.32l-2.89-7.08-16.93-41.58c-.51-1.25.09-2.68,1.33-3.21,4.68-1.98,9.28-3.89,13.78-5.74h.01c1.21-.49,2.4-.98,3.6-1.46,1.17-.48,2.33-.95,3.49-1.41,2.54-1.02,5.05-2.02,7.53-2.99,4.02-1.59,7.97-3.11,11.82-4.58,1.86-.71,3.7-1.4,5.52-2.08.68-.26,1.36-.51,2.03-.76.61-.23,1.21-.45,1.81-.68.41-.15.82-.3,1.22-.45,2.26-.83,4.48-1.65,6.67-2.43.09-.03.17-.06.26-.09,5.77-2.1,11.29-4.04,16.56-5.84.84-.29,1.67-.58,2.5-.86,1.08-.37,2.15-.73,3.21-1.08,2.52-.85,4.96-1.66,7.35-2.45h.01c.09-.02.16-.05.24-.08h.01c1.78-.58,3.53-1.14,5.23-1.69.06-.02.13-.04.19-.06.34-.11.68-.22,1.01-.32.33-.11.66-.21.99-.31.13-.04.25-.08.37-.12.1-.04.21-.07.31-.1,2.55-.81,5.02-1.58,7.4-2.31,2.23-.68,4.37-1.33,6.44-1.95h.01c.07-.02.14-.04.2-.06,2.1-.63,4.12-1.22,6.05-1.78,1.82-.52,3.56-1.02,5.23-1.48,7.37-2.08,13.22-3.59,17.4-4.62.2-.05.4-.1.6-.14,1.99-.49,3.57-.86,4.71-1.12,1.47-.34,2.23-.5,2.23-.5l.96,3.3.46,1.58,14.88,51.22,2.12,7.29Z" style="fill: #897dee; stroke-width: 0px;"/>
      <path d="m960.4,399.75c-2.59.22-5.28.37-8.09.44-1.03.03-2.07.05-3.13.05-5.44.02-10.64.26-15.62.68-2.41.2-4.77.44-7.07.74-3,.36-5.9.8-8.72,1.3-10,1.76-18.89,4.28-26.76,7.22-3.25,1.21-6.33,2.5-9.24,3.85-2.63,1.2-5.12,2.45-7.47,3.73-2.44,1.32-4.73,2.66-6.88,4.02-1.82,1.14-3.54,2.28-5.16,3.43-15.26,10.73-21.82,20.88-21.82,20.88-8.4-4.18-17.14-6.83-25.96-8.32l-2.89-7.08c5.65-2.88,15.11-8.25,25.39-.54,0,0,51.13-39.26,114.4-35.68.8.05,1.6.1,2.4.16l4.5-2.17,2.12,7.29Z" style="fill: #45389e; stroke-width: 0px;"/>
      <path d="m938.19,396l-20.42,6.96c-10,1.76-18.89,4.28-26.76,7.22-3.25,1.21-6.33,2.5-9.24,3.85-2.63,1.2-5.12,2.45-7.47,3.73l-43.59,14.85-2.7-6.29c2.86.37,5.88,1.51,8.97,3.83,0,0,43.93-33.73,100.75-35.81l.46,1.66Z" style="fill: #45389e; stroke-width: 0px;"/>
      <path d="m939.36,394.3c-57.6,1.47-102.38,35.85-102.38,35.85-3.75-2.81-7.38-3.88-10.76-3.97l-4.77-11.12-.24-.56-.03-.07-8.71-20.26c12.68-5.31,25.44-10.2,37.64-14.62,1.04-.37,2.08-.74,3.11-1.11.02-.01.03-.02.05-.02,4.27-1.53,8.46-2.99,12.54-4.39,1.66-.57,3.3-1.13,4.91-1.67h.01c.98-.33,1.93-.66,2.89-.98,1.27-.42,2.52-.84,3.75-1.24,4.9-1.62,9.57-3.13,13.95-4.51.06-.02.12-.04.17-.06,1.03-.32,2.04-.64,3.03-.95,9.14-2.85,16.9-5.15,22.69-6.81.09-.03.17-.05.26-.08,3.42-.98,6.12-1.73,7.99-2.25.93-.26,1.66-.46,2.16-.59h.01c.53-.15.81-.22.81-.22l.15.56,1.34,4.84,4.41,16v.04s.13.45.13.45l4.89,17.74Z" style="fill: #b5adf8; stroke-width: 0px;"/>
      <path d="m940.11,397.02l-13.62,4.64c-3,.36-5.9.8-8.72,1.3-10,1.76-18.89,4.28-26.76,7.22-3.25,1.21-6.33,2.5-9.24,3.85-2.63,1.2-5.12,2.45-7.47,3.73-2.44,1.32-4.73,2.66-6.88,4.02l-37.59,12.8-3.61-8.4s7.24-.24,10.76.97c0,0,43.04-32.25,102.38-32.85l.75,2.72Z" style="fill: #897dee; stroke-width: 0px;"/>
      <rect x="817.72" y="392.84" width="119.48" height="3.06" transform="translate(-80.28 303.83) rotate(-18.8)" style="fill: #897dee; stroke-width: 0px;"/>
      <path d="m891.01,410.18c-3.25,1.21-6.33,2.5-9.24,3.85l-6.86-17.18-1.13-2.84-2.44-6.11-.82-2.06-.41-1.04-3.46-8.66-.84-2.11-.33-.83v-.03s3.26-1.1,3.26-1.1c.11-.04.23-.08.35-.12l1.34-.45,2.9-.97,3.74-1.26.3.87.71,2.09,3.01,8.84.36,1.04.71,2.11,2.12,6.21.98,2.89,5.75,16.86Z" style="fill: #897dee; stroke-width: 0px;"/>
      <g>
        <path d="m931.43,359.56l-1.33-4.82-.13-.49c-.08-.29-.23-.54-.45-.73-.08-.09-.19-.17-.3-.23-.37-.21-.81-.26-1.21-.14-1.83.52-3.67,1.05-5.53,1.59-2.09.62-4.19,1.24-6.31,1.88-.25.08-.5.16-.76.23-6.95,2.11-14.04,4.34-21.08,6.63-1,.33-2.01.66-3.01.99-.06.01-.12.04-.19.06-6.03,1.97-12.01,3.98-17.81,5.97-.97.33-1.93.66-2.89.99-.45.15-.9.31-1.34.46-.12.04-.24.08-.35.12-1.1.38-2.18.75-3.26,1.13-4.36,1.51-8.58,2.99-12.61,4.43-.02,0-.04.01-.06.02-1.04.37-2.08.74-3.1,1.11-21.86,7.8-37.5,13.82-37.81,13.94-.4.15-.73.46-.89.86-.17.4-.17.84,0,1.24l13.5,31.42c1.13-.08,2.3-.06,3.5.1l-5.06-11.77-1.21-2.82-7.17-16.67c4.49-1.71,18.41-6.98,36.56-13.46,1.03-.36,2.08-.74,3.14-1.11.01,0,.02,0,.03,0,3.96-1.4,8.09-2.86,12.35-4.34,1.58-.55,3.18-1.1,4.8-1.66.96-.32,1.92-.66,2.89-.98,1.24-.43,2.48-.85,3.74-1.27,4.46-1.52,9-3.04,13.59-4.55h.01s.1-.03.15-.05c1.01-.33,2.02-.66,3.03-.99,8.2-2.67,16.46-5.27,24.52-7.68h.01c2.68-.8,5.33-1.58,7.95-2.33l1.04,3.77,3.78,13.72.81,2.95,4.76,17.27c1.08-.04,2.18-.07,3.27-.08l-9.57-34.7Zm-54.06,10.58c-1.23.4-2.48.82-3.75,1.24l.72,2.12c1.24-.43,2.48-.85,3.74-1.27l-.71-2.09Zm41.99-11.19h-.01c-.35-.19-.69-.39-1.01-.61-.3-.19-.59-.39-.87-.61-.09.03-.17.05-.26.08l-1.8-.96c-6.95,2.11-14.04,4.34-21.08,6.63-1,.33-2.01.66-3.01.99l.17,1.1s-.11.04-.17.06c.1.6.2,1.17.3,1.73.02.11.04.22.06.32.05-.02.1-.03.15-.05,1.01-.33,2.02-.66,3.03-.99,8.2-2.67,16.46-5.27,24.52-7.68t-.02-.01Z" style="fill: #45389e; stroke-width: 0px;"/>
        <path d="m940.62,398.52l-7.06,2.4c-2.41.2-4.77.44-7.07.74-3,.36-5.9.8-8.72,1.3l20.42-6.96-.46-1.66c1.08-.04,2.18-.07,3.27-.08l.64,2.34c.22.8-.22,1.65-1.02,1.92Z" style="fill: #1d185e; stroke-width: 0px;"/>
        <path d="m874.3,417.76c-2.44,1.32-4.73,2.66-6.88,4.02-1.82,1.14-3.54,2.28-5.16,3.43l-31.92,10.87c-.17.06-.34.09-.51.09-.61,0-1.2-.37-1.45-.96l-3.87-8.99c1.13-.08,2.3-.06,3.5.1l2.7,6.29,43.59-14.85Z" style="fill: #1d185e; stroke-width: 0px;"/>
      </g>
      <path d="m892.05,350.22c.34,2.05.87,5.1,1.42,8.32,1.15,6.7,2.78,14.26,2.94,15.56.44,3.34-1.56,6.57-4.76,7.66l-28.93,9.85c-3.13,1.07-6.62-.36-8.12-3.31l-10.83-21.41c1.05-.39,2.1-.78,3.14-1.16l10.24,20.46c.75,1.47,2.5,2.19,4.08,1.65l28.93-9.85c1.7-.58,2.78-2.3,2.54-4.08-.16-1.23-1.41-8.44-2.5-14.8-.51-2.99-1-5.83-1.36-7.87,1.09-.35,2.16-.69,3.21-1.02Z" style="fill: #45389e; stroke-width: 0px;"/>
      <path d="m969.76,398.54c-2.95.52-6.07.92-9.36,1.21l-2.12-7.29,8.44-4.06c1.23,3.61,2.1,6.15,2.37,6.94.37,1.09.61,2.17.67,3.2Z" style="fill: #9d91ff; stroke-width: 0px;"/>
      <g>
        <path d="m890.29,379.1l-27.97,9.53c-1.89.64-3.96-.2-4.88-1.97l-7.46-14.52s-.04-.08-.06-.13l-2.84-5.53c-1.12-2.19-.04-4.86,2.28-5.65l34.7-11.82c2.36-.8,4.88.71,5.27,3.17l.63,3.93c.01.07.03.14.04.22l2.96,18.32c.31,1.94-.82,3.82-2.67,4.45Z" style="fill: #b5adf8; stroke-width: 0px;"/>
        <circle cx="869.85" cy="365.06" r="5.69" style="fill: #1d185e; stroke-width: 0px;"/>
        <path d="m873.6,377.6c-.64,0-1.23-.4-1.45-1.04l-3.77-11.07c-.27-.8.16-1.67.95-1.94.8-.27,1.67.16,1.94.95l3.77,11.07c.27.8-.16,1.67-.95,1.94-.16.06-.33.08-.49.08Z" style="fill: #1d185e; stroke-width: 0px;"/>
        <path d="m889.96,356.11c-.9-4.02-4.39-5.12-14.39-1.74-10.41,3.5-19.25,6.59-22.74,7.89-3.49,1.31-5.99,3.73-3,9.56.03.07.07.13.09.19l-2.84-5.53c-1.12-2.19-.04-4.86,2.28-5.65l34.7-11.82c2.36-.8,4.88.71,5.27,3.17l.63,3.93Z" style="fill: #efedff; stroke-width: 0px;"/>
      </g>
      <path d="m841.74,367.64c-14.37,6.19-28.76,12.33-43.28,18.15,0,0-1.35.54-1.35.54-1.03.41-1.71,1.51-1.65,2.61-.01.66.61,1.82.84,2.47,3.38,8.54,10.38,26.83,13.77,35.56-3.18-7.17-11.21-25.26-14.27-32.18-.39-.9-.79-1.79-1.16-2.69-.35-.94-.98-2-.99-3.07-.11-1.85,1.05-3.68,2.77-4.36,0,0,1.38-.55,1.38-.55,14.56-5.72,29.24-11.12,43.94-16.47h0Z" style="fill: #efedff; stroke-width: 0px;"/>
    </g>
    <path d="m1414,160.47c-56.05-3.91-121.06,12.62-139.17,72.41-1.27,4.02-2.4,8.54-3.17,12.68-1.68,8.57-2.47,17.32-2.67,26.1.01.55-.42,1.01-.97,1.02-.31,0-.53-.12-.73-.3-14.03-12.2-34.32-13.91-51.89-10.08-24.07,5-44.46,22.87-52.7,46.04-2.11,5.78-3.57,11.8-4.67,17.93-.1.57-.65.96-1.23.84-13.37-6.88-28.14-11.55-43.13-13.09-32.21-3.22-58.4,8.8-77.71,34.52-9.46,11.91-17.73,25.08-29.6,34.95-19.31,16.17-41.15,18.43-65.19,18.72-29.89,1.49-60.21,10-84,28.66-5.87,4.63-11.45,9.86-15.89,15.77-.28.44-.84.59-1.29.36-31.94-14.21-68.48-9-100.6,1.96-10.87,3.74-21.6,8.13-31.87,13.31-.26.16-.58.18-.85.09-83.08-30.41-150.45-30.66-234.89-5.87-20.79,5.45-41.93,12.49-63.71,11.92,0,0-2.2-.09-2.2-.09,0,0-1.1-.04-1.1-.04,0,0-1.09-.12-1.09-.12,0,0-4.36-.5-4.36-.5-1.45-.2-2.87-.5-4.31-.74-19.88-3.85-38.39-12.73-56.98-20.27-59.13-25.47-105.72-27.51-164.16,1.88-.48.25-1.08.07-1.35-.39-5.87-10.03-13.13-19.2-21.86-26.82-13.35-11.56-29.93-19.08-47.3-22.17-9.56-1.73-19.46-2.38-29.11-1.51-.57.07-1.09-.35-1.15-.92-2.77-26.87-7.27-53.93-18.32-78.72-10.63-23.95-28.3-48.28-54.79-55.07,0,0,0-1.54,0-1.54,3.57.53,6.97,1.52,10.21,2.82,9.67,3.93,18.2,10.3,25.5,17.69,28.71,30.58,37.38,74.12,39.39,114.69,0,0-1.18-.93-1.14-.92,29.75-4,61.48,5.91,82.7,27.37,7.02,7.15,12.93,15.34,17.61,24.13,0,0-1.37-.39-1.34-.4,20-11.27,42.35-19.68,65.27-22.31,34.84-4.61,69.42,5.41,101.14,19.02,18.49,7.54,36.6,16.41,56.27,20.2,2.67.59,6.64,1,9.41,1.3.57.01,2.53.11,3.15.12,9.92.41,19.75-1.25,29.45-3.29,22.34-5.06,44.13-12.55,66.42-18.02,56.24-14.94,115.62-13.39,170.92,4.71,10.85,3.43,21.92,7.64,32.39,12,.01,0-.92.08-.86.06,33.78-20.3,79.26-33.48,118.09-22.13,5.65,1.72,11.1,4.03,16.29,6.79,0,0-1.29.35-1.29.35,2.17-3.32,4.67-6.21,7.32-9.04,24.22-25.26,59.78-36.6,94.1-37.82,15.19-.14,30.27-.3,44.49-5.9,37.09-13.69,43.33-53.24,75.05-72.18,29.73-17.59,68.19-12.29,96.99,4.68,0,0-1.51.74-1.51.74.51-6.33,1.65-12.63,3.49-18.78,3.83-12.29,10.9-23.67,20.53-32.3,19.24-17.24,48.19-23.77,72.58-14.65,6.01,2.39,11.65,5.91,16.06,10.65,0,0-1.72.73-1.71.7-.33-17.77,2.26-35.93,9.47-52.3,20.47-47.75,76.28-63.75,124.35-61.82,4.45.16,8.73.44,13.19,1.01v1.93Z" style="fill: #1c1747; stroke-width: 0px;"/>
    <circle cx="1117.84" cy="118.45" r="3.66" style="fill: #8f83de; stroke-width: 0px;"/>
    <circle cx="1095.54" cy="153.58" r="5.15" style="fill: #8f83de; stroke-width: 0px;"/>
    <circle cx="1033.6" cy="246.23" r="3.7" style="fill: #8f83de; stroke-width: 0px;"/>
    <circle cx="1006.12" cy="211.91" r="3.97" style="fill: #8f83de; stroke-width: 0px;"/>
    <circle cx="1290.54" cy="60.25" r="5.85" style="fill: #8f83de; stroke-width: 0px;"/>
    <circle cx="1222.66" cy="96.59" r="4.02" style="fill: #8f83de; stroke-width: 0px;"/>
    <circle cx="730.99" cy="108.17" r="5.13" style="fill: #8f83de; stroke-width: 0px;"/>
    <circle cx="683.19" cy="89.5" r="3.89" style="fill: #8f83de; stroke-width: 0px;"/>
    <circle cx="127.89" cy="184.77" r="5.7" style="fill: #8f83de; stroke-width: 0px;"/>
    <circle cx="78.29" cy="247.09" r="4.54" style="fill: #8f83de; stroke-width: 0px;"/>
    <circle cx="134.36" cy="246.33" r="6.47" style="fill: #8f83de; stroke-width: 0px;"/>
    <circle cx="208.95" cy="337.59" r="3.88" style="fill: #8f83de; stroke-width: 0px;"/>
    <circle cx="280.8" cy="329.31" r="4.68" style="fill: #8f83de; stroke-width: 0px;"/>
    <circle cx="64.57" cy="134.89" r="3.48" style="fill: #8f83de; stroke-width: 0px;"/>
    <circle cx="359.73" cy="85.62" r="3.48" style="fill: #8f83de; stroke-width: 0px;"/>
    <circle cx="250.34" cy="108.17" r="5.14" style="fill: #8f83de; stroke-width: 0px;"/>
    <circle cx="280.96" cy="158.73" r="4.37" style="fill: #8f83de; stroke-width: 0px;"/>
  </g>
  <g>
    <g>
      <circle cx="698.06" cy="233.38" r="2.23" style="fill: #c4baff; stroke-width: 0px;"/>
      <circle cx="689.07" cy="258.31" r="3.96" style="fill: #c4baff; stroke-width: 0px;"/>
      <circle cx="659.68" cy="252.81" r="3.18" style="fill: #c4baff; stroke-width: 0px;"/>
      <circle cx="757.9" cy="240.83" r="3.86" style="fill: #c4baff; stroke-width: 0px;"/>
    </g>
    <g>
      <circle cx="655.17" cy="283.73" r="3.7" style="fill: #7466d1; stroke-width: 0px;"/>
      <circle cx="407.42" cy="254.79" r="3.16" style="fill: #7466d1; stroke-width: 0px;"/>
      <circle cx="370.62" cy="289.04" r="3.7" style="fill: #7466d1; stroke-width: 0px;"/>
      <circle cx="393.26" cy="242.55" r="4.38" style="fill: #7466d1; stroke-width: 0px;"/>
      <circle cx="407" cy="230.91" r="3.75" style="fill: #7466d1; stroke-width: 0px;"/>
      <circle cx="605.77" cy="139.26" r="4.36" style="fill: #7466d1; stroke-width: 0px;"/>
      <circle cx="595.76" cy="156.25" r="3.27" style="fill: #7466d1; stroke-width: 0px;"/>
    </g>
    <g>
      <circle cx="854.19" cy="320.43" r="3.7" style="fill: #7466d1; stroke-width: 0px;"/>
      <circle cx="924.4" cy="258.25" r="3.7" style="fill: #7466d1; stroke-width: 0px;"/>
      <circle cx="871.82" cy="298.27" r="5.76" style="fill: #7466d1; stroke-width: 0px;"/>
      <circle cx="824.63" cy="315.78" r="4.42" style="fill: #7466d1; stroke-width: 0px;"/>
    </g>
  </g>
  <g>
    <g>
      <g>
        <path d="m417.65,291.95l-1,8.69c-12.47-.73-22.38-3.92-29.44-8.48-7.52-4.89-11.77-11.35-12.37-18.12-.19-2.01-.04-4.04.43-6.07,3.12-13.38,21.64-13.11,35.58,9.82,2.45,4.02,4.75,8.71,6.8,14.16Z" style="fill: #645c8c; fill-rule: evenodd; stroke-width: 0px;"/>
        <path d="m417.65,291.95l-1,8.7c-12.47-.74-22.38-3.92-29.44-8.48,11.5.91,23.79-2.81,23.64-14.36,2.45,4.02,4.75,8.71,6.8,14.15Z" style="fill: #383254; fill-rule: evenodd; stroke-width: 0px;"/>
      </g>
      <path d="m418.4,312.28c-2.66,9.07-6.09,16.14-9.87,21.43-6.45,9.05-13.86,12.85-19.87,12.49h-.01c-4.85-.28-8.81-3.26-10.61-8.38-3.44-9.68.9-18.56,12.07-24.79.63-.35,1.28-.7,1.96-1.03,6.43-3.2,14.82-5.6,25.03-6.91l1.3,7.19Z" style="fill: #645c8c; fill-rule: evenodd; stroke-width: 0px;"/>
      <path d="m388.65,346.2c-4.85-.28-8.81-3.26-10.61-8.38-3.44-9.68.9-18.56,12.07-24.79.63-.35,1.28-.7,1.96-1.03l4.13-.26c-8.99,3.98-14.82,12.23-15.45,20.49-.53,6.91,1.87,12.82,7.9,13.97Z" style="fill: #998fc7; stroke-width: 0px;"/>
      <path d="m418.4,312.28c-2.66,9.08-6.09,16.15-9.87,21.43-1.41-11.85-6.07-20.47-18.42-20.68,6.65-3.72,15.71-6.49,26.99-7.93l1.3,7.18Z" style="fill: #383254; fill-rule: evenodd; stroke-width: 0px;"/>
      <path d="m416.65,300.64v3.81s-10.71,7.04-33.73,3.58c-8.88-1.33-11.79-4.58-9.73-7.36,2.97-4,16.28-7.03,36.88-1.88,2.12.53,4.31,1.14,6.58,1.85Z" style="fill: #998fc7; fill-rule: evenodd; stroke-width: 0px;"/>
      <path d="m410.85,277.79c-12.27-14.06-22.6-16.33-28.85-14.27-5.66,1.87-6.89,7.72-7.16,10.52-.19-2.01-.04-4.04.43-6.07,3.12-13.38,21.64-13.11,35.58,9.82Z" style="fill: #998fc7; stroke-width: 0px;"/>
      <path d="m416.65,300.64v3.81s-10.71,7.04-33.73,3.58c-8.88-1.33-11.79-4.58-9.73-7.36,8.45,4.75,31.67,6.88,36.88-1.88,2.12.53,4.31,1.14,6.58,1.85Z" style="fill: #645c8c; stroke-width: 0px;"/>
    </g>
    <g>
      <g>
        <g>
          <polygon points="620.51 245.54 610.74 253.97 599.63 245.09 605.62 233.3 620.51 245.54" style="fill: #0b091a; stroke-width: 0px;"/>
          <g>
            <path d="m635.71,252.85l-11.73-3.89c-2.97-.99-5.71-2.55-8.07-4.61l-11.47-10.02c-2.51-2.19-2.94-5.94-.99-8.64,1.99-2.75,3.78-5.08,5.43-7.04.79-.94,1.54-1.8,2.26-2.57,7.66-8.23,11.96-7.62,18.24-5.59.43.13.86.28,1.3.42l17.06,5.66c1.52.5,2.43,1.95,2.86,3.99,2.11,10.07-7.65,34.69-14.89,32.29Z" style="fill: #8c7cf8; fill-rule: evenodd; stroke-width: 0px;"/>
            <path d="m637.6,247.41c-3.63-1.2,4.96-26.49,8.41-25.35,3.97,1.32-4.52,26.64-8.41,25.35Z" style="fill: #fff; fill-rule: evenodd; stroke-width: 0px;"/>
            <path d="m633.14,252l-4.67-1.55-4.49-1.49c-2.97-.99-5.71-2.55-8.07-4.61l-11.47-10.02c-2.51-2.19-2.93-5.94-.99-8.64,1.99-2.75,3.78-5.08,5.43-7.04,4.44,1.78,8.27,6.86,8.74,18.86,0,0,4.26-1.5,8.76,2.48.93.82,1.87,1.88,2.78,3.23,1.44,2.12,2.81,4.97,3.98,8.78Z" style="fill: #614fd1; fill-rule: evenodd; stroke-width: 0px;"/>
            <g>
              <path d="m640.46,214.16c-1.62,1.85-4.3,6.28-7.28,14.61-1.98,5.53-3.29,10.51-4.02,14.45-.91-1.35-1.85-2.41-2.78-3.23.84-3.71,1.94-7.3,2.75-9.73,1.86-5.59,4-10.66,6.04-14.25.55-.96,1.19-2.02,1.91-2.97l3.38,1.12Z" style="fill: #4c3bb3; stroke-width: 0px;"/>
              <path d="m628.47,250.45l-3.35-1.12c-.03-2.74.51-6.09,1.26-9.34.93.82,1.87,1.88,2.78,3.23-.59,3.17-.8,5.67-.69,7.23Z" style="fill: #372c91; stroke-width: 0px;"/>
            </g>
          </g>
        </g>
        <path d="m646,222.06c52.05-18.76,136.13,14.24,236.15-2.99l-99.79,210.76c-72.27-35.9-84.31-129.55-144.77-182.41l8.41-25.35Z" style="fill: url(#linear-gradient-2); stroke-width: 0px;"/>
      </g>
      <path d="m650.6,220.56c-2.17-3.82-13.13-5.23-21.85-7.63-8.73-2.4-12.27-1.57-17.61,3.16h0c7.66-8.24,11.96-7.63,18.24-5.6.43.13.86.28,1.3.42l17.06,5.66c1.52.5,2.43,1.95,2.86,3.99Z" style="fill: #c0b8ff; stroke-width: 0px;"/>
    </g>
    <g>
      <path d="m561.29,190.89l-26.67-2.33c-2.42-.2-4.5,1.7-4.5,4.12v17.83h-20.23l1.07-13.78,1.6-20.53c.68-8.74,6.85-16.08,15.35-18.25l32.12-8.2,1.27,41.14Z" style="fill: #d4cbfe; fill-rule: evenodd; stroke-width: 0px;"/>
      <path d="m561.29,190.89l-26.67-2.33c-2.42-.2-4.5,1.7-4.5,4.12v17.83h-20.23l1.07-13.78,1.6-20.53c.68-8.74,6.85-16.08,15.35-18.25l32.12-8.2.83,26.72.45,14.42Z" style="fill: #d4cbfe; fill-rule: evenodd; stroke-width: 0px;"/>
      <path d="m561.29,190.89l-26.68-2.33c-.89-.07-1.74.14-2.45.56-.71.41-1.29,1.04-1.64,1.78-.06.11-.1.22-.14.33-.18.45-.27.94-.27,1.45v12.68c-2.67-1.34-4.28-3.53-4.28-6.84,0-4.65-.19-8.23.2-11.02.18-1.14.44-2.14.86-3.04,2.46-5.22,10.18-6.58,33.95-7.99l.45,14.42Z" style="fill: #998fc7; fill-rule: evenodd; stroke-width: 0px;"/>
      <ellipse cx="561.97" cy="170.24" rx="20.65" ry="21.96" transform="translate(-24.86 149.67) rotate(-14.85)" style="fill: #8c7cf8; stroke-width: 0px;"/>
      <path d="m562.56,194.35c-4.13,0-8.22-1.18-11.9-3.47-5.32-3.31-9.15-8.56-10.8-14.78-3.42-12.89,3.72-26.01,15.91-29.25,5.93-1.57,12.15-.6,17.51,2.74,5.32,3.31,9.15,8.56,10.8,14.78,3.42,12.89-3.72,26.01-15.91,29.25h0c-1.85.49-3.73.73-5.61.73Zm-1.23-44.8c-1.57,0-3.14.2-4.68.61-10.33,2.74-16.34,13.97-13.41,25.03,1.43,5.39,4.73,9.92,9.31,12.77,4.53,2.82,9.76,3.65,14.74,2.33h0c10.33-2.74,16.34-13.97,13.41-25.03-1.43-5.39-4.73-9.92-9.31-12.77-3.12-1.94-6.58-2.94-10.05-2.94Z" style="fill: #0e0b26; stroke-width: 0px;"/>
      <g>
        <path d="m546.84,168.57c13.88-20.67,27.12-6.11,30.94-1.03.71.95.8,2.21.25,3.26-11.84,22.64-26.64,6.93-31.06,1.35-.82-1.04-.87-2.48-.13-3.58Z" style="fill: #fff; stroke-width: 0px;"/>
        <ellipse cx="566.59" cy="171.53" rx="7.11" ry="7.38" style="fill: #0e0b26; stroke-width: 0px;"/>
      </g>
      <path d="m530.11,196.59v13.92h-20.23l1.07-13.78c4.81-.8,13.87-.84,19.16-.14Z" style="fill: #998fc7; fill-rule: evenodd; stroke-width: 0px;"/>
      <g>
        <path d="m526.89,184.46c-.42.9-.68,1.9-.86,3.04-4.99-4.98-9.9-12.77-8.25-23.44,1.06-1.17,2.25-2.21,3.55-3.11-2.36,8.13-.92,15.52,4.31,22.05.41.51.83,1,1.25,1.46Z" style="fill: #998fc7; stroke-width: 0px;"/>
        <path d="m532.16,189.12c-.71.41-1.29,1.04-1.64,1.78-.05.11-.1.22-.14.33-1.34-.99-2.85-2.23-4.35-3.73.18-1.14.44-2.14.86-3.04,1.79,1.96,3.67,3.51,5.27,4.66Z" style="fill: #645c8c; stroke-width: 0px;"/>
      </g>
    </g>
    <path d="m569.14,220.59s-39.35,0-92.62,2.55c.08-1.38.47-2.79,1.2-4.18.05-.1.11-.2.17-.3.82-1.49,2.02-2.96,3.63-4.35h0c9.99-8.67,35.3-14.53,79.14-6.03,1.06.2,1.99.87,2.52,1.81l1.25,2.2,2.02,3.55,2.69,4.74Z" style="fill: #998fc7; fill-rule: evenodd; stroke-width: 0px;"/>
    <path d="m566.45,215.84c-51.19-10.53-82.72.48-88.57,2.82.82-1.49,2.02-2.96,3.63-4.35h0c10.94-3.72,39.18-10.53,82.9-2.01l2.02,3.55Z" style="fill: #645c8c; stroke-width: 0px;"/>
    <g>
      <path d="m443.12,257.08l-.2,30.75-.02,1.96-.18,27.93-.02,3.1-.21,31.56s-22.15-7.43-26.04-12.25c-.3-.37-.57-1.05-.81-2.01-.9-3.54-1.46-10.79-1.73-19.3-.04-1.02-.06-2.06-.09-3.11-.18-7.76-.13-16.29.12-23.91.04-1.06.07-2.09.11-3.11.43-10.09,1.25-17.99,2.39-19.28,1.98-2.24,10.66-6.04,17.59-8.83,5.01-2.02,9.09-3.51,9.09-3.51Z" style="fill: #998fc7; fill-rule: evenodd; stroke-width: 0px;"/>
      <path d="m433.79,287.34c-.02,1.05-.05,2.08-.08,3.09l-19.76,1.38c.03-1.06.07-2.1.11-3.11l19.73-1.36Z" style="fill: #645c8c; stroke-width: 0px;"/>
      <path d="m431.6,316.95c-.17,1.06-.36,2.08-.55,3.06l-17.14-1.19c-.03-1.02-.06-2.05-.09-3.1l17.78,1.23Z" style="fill: #645c8c; stroke-width: 0px;"/>
      <path d="m443.13,257.08l-.21,30.75v1.96s-.2,27.93-.2,27.93l-.02,3.1-.21,31.57s-22.15-7.44-26.04-12.26c-.3-.37-.56-1.05-.81-2.01,8.31.31,12.89-5.72,15.41-18.11.19-.98.38-2,.55-3.06,1.16-7.07,1.78-15.91,2.11-26.52.03-1.01.06-2.04.08-3.09.2-7.97.25-16.89.25-26.75,5-2.03,9.09-3.51,9.09-3.51Z" style="fill: #645c8c; fill-rule: evenodd; stroke-width: 0px;"/>
      <path d="m443.06,289.78h-.15s-9.2.65-9.2.65c.03-1.01.06-2.04.08-3.09l9.05-.63.08,1.12v.04l.14,1.91Z" style="fill: #383254; stroke-width: 0px;"/>
      <path d="m443.06,317.75l-.22,3.08h-.14s-11.65-.82-11.65-.82c.19-.98.38-2,.55-3.06l11.12.77.34.03Z" style="fill: #383254; stroke-width: 0px;"/>
    </g>
    <g>
      <path d="m644.08,286.64l-1.94,45.59c20.06-24.8,19.22-20.36,1.94-45.59Z" style="fill: #ded9ff; fill-rule: evenodd; stroke-width: 0px;"/>
      <path d="m645.33,300.5c0,15-1.44,28.02-5.43,39.24-3.35,9.5-8.51,17.7-16.12,24.68-1.14,1.06-2.34,2.08-3.6,3.09-7.42,5.89-16.86,10.83-28.74,14.9-33.84,11.59-80.98,10.3-111.35,4.17-1.06-.22-2.1-.44-3.12-.67-6.97-1.54-12.91-3.33-17.44-5.29-15.47-6.66-19.66-20.15-20.66-39.84-.58-11.02-.14-24.02-.14-38.83,0-22.18.65-37.94,4.14-49.8.51-1.76,1.09-3.42,1.74-5.01,0-.03.03-.06.04-.09,3.1-7.61,7.8-13.45,14.88-18.41,18.58-13,67.62-17.09,111.06-8.55,14.37,2.82,27.43,8.12,38.43,15.41,2.7,1.79,5.28,3.69,7.72,5.72,1.49,1.22,2.93,2.5,4.32,3.82,15.17,14.31,24.25,33.46,24.25,55.46Z" style="fill: #8c7cf8; fill-rule: evenodd; stroke-width: 0px;"/>
      <path d="m609.04,235.51c-44.47-19.9-61.36-14.9-91.59-14.95-30.57-.06-60.69,4.89-72.8,26.5,3.1-7.61,7.8-13.45,14.89-18.41,18.58-13.01,67.62-17.09,111.06-8.55,14.38,2.83,27.43,8.12,38.44,15.41Z" style="fill: #c0b8ff; fill-rule: evenodd; stroke-width: 0px;"/>
      <path d="m639.91,339.74c-.91,2.58-1.96,5.07-3.15,7.46h0c-3.19,6.41-7.43,12.14-12.97,17.23-1.15,1.06-2.35,2.08-3.61,3.09-5.99,4.75-13.3,8.88-22.14,12.43-2.1.87-4.29,1.69-6.59,2.47-33.84,11.6-80.97,10.3-111.34,4.16-1.07-.21-2.11-.43-3.13-.66-3.97-.88-7.6-1.84-10.83-2.87-2.45-.76-4.66-1.58-6.61-2.42-10.07-4.34-15.36-11.57-18.1-21.52-.01-.02-.01-.03-.02-.05-1.46-5.32-2.19-11.42-2.54-18.27,44.75-44.62,150.25,35.99,201.03-1.05Z" style="fill: #614fd1; fill-rule: evenodd; stroke-width: 0px;"/>
      <g>
        <ellipse cx="474.33" cy="231.59" rx="3.19" ry="3.07" style="fill: #4c3bb3; stroke-width: 0px;"/>
        <ellipse cx="515.02" cy="228.52" rx="3.19" ry="3.07" style="fill: #5746c4; stroke-width: 0px;"/>
        <ellipse cx="552.38" cy="229.32" rx="3.19" ry="3.07" style="fill: #4c3bb3; stroke-width: 0px;"/>
        <ellipse cx="589.13" cy="232.39" rx="3.19" ry="3.07" style="fill: #4c3bb3; stroke-width: 0px;"/>
      </g>
      <g>
        <ellipse cx="500.99" cy="376.8" rx="3.07" ry="3.19" transform="translate(120.06 874.65) rotate(-89.53)" style="fill: #372c91; stroke-width: 0px;"/>
        <ellipse cx="541.7" cy="374.07" rx="3.07" ry="3.19" transform="translate(163.17 912.65) rotate(-89.53)" style="fill: #372c91; stroke-width: 0px;"/>
        <ellipse cx="579.06" cy="373.71" rx="3.07" ry="3.19" transform="translate(200.57 949.67) rotate(-89.53)" style="fill: #372c91; stroke-width: 0px;"/>
      </g>
      <g>
        <path d="m623.79,364.43c-1.15,1.06-2.35,2.08-3.62,3.09h-85.82c-23,0-45.35,2.38-54.25,19.06-1.06-.21-2.11-.43-3.13-.66,9.33-18.83,33.02-21.49,57.38-21.49h89.43Z" style="fill: #372c91; stroke-width: 0px;"/>
        <path d="m621.08,245.04c-28.11-4.73-70.25-7.29-105.4-6.39-38.39.99-64.42,5.86-72.8,13.5.51-1.76,1.09-3.42,1.74-5.01,14.15-8.28,45.18-10.92,70.98-11.58,33.36-.86,73.02,1.4,101.16,5.66,1.49,1.22,2.93,2.5,4.32,3.82Z" style="fill: #4c3bb3; stroke-width: 0px;"/>
      </g>
    </g>
    <path d="m634.43,261.42c-4.42,2.67-11.22,5.3-19.05,5.74-15.49.86-35.07-5.14-48.48-1.76-25.87,6.52-36.5,30.67-59.16,30.79-21.21.11-37.18-21.4-69.02,11.2,0-1.78.02-3.59.02-5.43,0-15.96.33-28.59,1.82-38.84,14.13,8.73,29.9-14.65,47.5-16.06,29.36-2.36,48.39,15.37,65.35,8.28,25.66-10.73,44.64,9.05,65.2-3.74,2.17-1.35,4.12-2.39,5.87-3.16,3.79,4.01,7.13,8.35,9.95,12.98Z" style="fill: #c0b8ff; fill-rule: evenodd; stroke-width: 0px;"/>
    <g>
      <g>
        <ellipse cx="515.02" cy="302.33" rx="42.81" ry="44.51" transform="translate(58.39 687.22) rotate(-70.54)" style="fill: #ded9ff; stroke-width: 0px;"/>
        <path d="m546.88,319.61c-5.23,9.65-14.53,15.74-24.83,17.43-7.76,1.27-16.08.03-23.64-4.06-13.89-7.54-21.06-22.49-18.94-36.79h0c.57-3.81,1.79-7.58,3.71-11.13,9.18-16.91,30.87-22.9,48.46-13.35,17.6,9.54,24.42,30.99,15.24,47.91Z" style="fill: #372d82; fill-rule: evenodd; stroke-width: 0px;"/>
        <path d="m516.07,347.2c-5.27,0-10.65-.88-15.93-2.75h0c-24.12-8.52-37.06-34.35-28.86-57.57,8.21-23.22,34.5-35.19,58.62-26.67,24.12,8.52,37.06,34.35,28.86,57.57-6.41,18.14-23.86,29.41-42.69,29.41Zm-14.9-5.66c22.51,7.95,47.04-3.16,54.68-24.78,7.64-21.62-4.46-45.68-26.98-53.64-22.51-7.95-47.04,3.16-54.68,24.78-7.64,21.62,4.46,45.68,26.98,53.64h0Z" style="fill: #614fd1; stroke-width: 0px;"/>
        <path d="m522.05,337.03c-7.76,1.27-16.08.03-23.64-4.06-13.89-7.54-21.06-22.49-18.94-36.79.91,23.66,43.78,21.03,42.59,40.85Z" style="fill: #16123d; fill-rule: evenodd; stroke-width: 0px;"/>
      </g>
      <g>
        <ellipse cx="539.2" cy="294.51" rx="4.18" ry="10.03" transform="translate(-74.74 271.14) rotate(-26.46)" style="fill: #8c7cf8; stroke-width: 0px;"/>
        <ellipse cx="529.12" cy="279.53" rx="2.49" ry="3.25" transform="translate(-42.68 456.02) rotate(-45)" style="fill: #8c7cf8; stroke-width: 0px;"/>
      </g>
    </g>
    <g>
      <ellipse cx="599.31" cy="303.08" rx="19.4" ry="19.06" transform="translate(74.17 721.72) rotate(-65.39)" style="fill: #ded9ff; stroke-width: 0px;"/>
      <path d="m599.01,324.83c-2.95,0-5.94-.62-8.78-1.92-10.75-4.93-15.43-17.83-10.42-28.76,5.01-10.93,17.83-15.82,28.59-10.89,10.75,4.93,15.43,17.83,10.42,28.76h0c-3.68,8.04-11.6,12.81-19.8,12.81Zm.59-40.4c-7.04,0-13.83,4.1-16.99,11.01-4.3,9.38-.31,20.45,8.9,24.67,9.21,4.22,20.2.01,24.5-9.37,4.3-9.38.31-20.45-8.9-24.67-2.43-1.11-4.98-1.64-7.5-1.64Z" style="fill: #6957de; stroke-width: 0px;"/>
      <path d="m599.77,289.27c-1.92,0-3.85.41-5.65,1.21-1.61.71-3.07,1.7-4.34,2.97-3.96,3.96-5.25,9.77-3.29,14.79.64,1.65,1.6,3.13,2.87,4.4.51.51,1.05.96,1.61,1.36,5.35,3.82,12.74,3.08,17.59-1.77,5.4-5.41,5.58-14.02.41-19.2-1.27-1.27-2.76-2.24-4.43-2.88-1.52-.59-3.14-.89-4.78-.89Z" style="fill: #372d82; stroke-width: 0px;"/>
      <ellipse cx="605.73" cy="298.47" rx="2.79" ry="4.68" transform="translate(-69.54 301.2) rotate(-26.46)" style="fill: #8c7cf8; stroke-width: 0px;"/>
    </g>
    <path d="m636.76,347.21c-3.19,6.4-7.43,12.13-12.97,17.22-1.15,1.06-2.35,2.08-3.61,3.09-5.99,4.75-13.3,8.88-22.14,12.43-2.1.87-4.29,1.69-6.59,2.47-33.84,11.6-80.97,10.3-111.34,4.16-1.07-.21-2.11-.43-3.13-.66-3.97-.88-7.6-1.84-10.83-2.87-2.45-.76-4.66-1.58-6.61-2.42-10.07-4.34-15.36-11.57-18.1-21.52,11.19,24.88,52.29,27.47,96.67,27.62,45.28.16,79.38-15.17,98.65-39.52Z" style="fill: #8c7cf8; stroke-width: 0px;"/>
  </g>
  <g>
    <path d="m360.27,315.93c-.73,0-1.37-.53-1.48-1.27-.07-.43-1.61-10.66-.84-23.98.71-12.36,3.65-29.72,13.64-42.25.52-.65,1.46-.75,2.11-.24.65.52.75,1.46.24,2.11-18.22,22.85-12.24,63.49-12.18,63.9.13.82-.44,1.58-1.25,1.71-.08.01-.15.02-.23.02Z" style="fill: #8f83de; stroke-width: 0px;"/>
    <path d="m396.18,367.33c-.18,0-.35-.02-.51-.05-6.6-1.21-3.72-31.33-2.69-40.53.09-.82.85-1.42,1.66-1.32.82.09,1.42.83,1.32,1.66-2.75,24.38-1.1,35.31.21,37.1.57-.54,2.34-2.86,4.71-12.18.2-.8,1.02-1.29,1.82-1.08.8.2,1.29,1.02,1.08,1.82-3.16,12.42-5.69,14.57-7.61,14.57Zm.17-2.94h0,0Z" style="fill: #8f83de; stroke-width: 0px;"/>
  </g>
  <g>
    <path d="m767.07,358.24c2.46-5.96,7.7-9.88,13.41-10.7l.83-2.02,7.33,3.02c8.3,3.42,12.1,13.3,8.48,22.07-3.61,8.78-13.27,13.12-21.57,9.71l-7.33-3.02.83-2.02c-3.48-4.6-4.44-11.08-1.99-17.04Z" style="fill: #d6902b; stroke-width: 0px;"/>
    <ellipse cx="774.77" cy="361.41" rx="17.18" ry="16.25" transform="translate(145.59 940.22) rotate(-67.62)" style="fill: #f5c44f; stroke-width: 0px;"/>
    <path d="m762.24,372.91c-9.06-8.83-4.06-25.09,7.81-28.45,3.77-1.12,7.94-.75,11.26,1.06-3.64-1.02-7.42-.85-10.77.42-10.59,3.98-14.72,17.68-8.31,26.97h0Z" style="fill: #fffdf5; stroke-width: 0px;"/>
    <path d="m774.34,374.41c-1.55,0-3.09-.3-4.55-.9-3.09-1.27-5.47-3.74-6.7-6.94-1.22-3.17-1.16-6.69.17-9.91,1.32-3.22,3.76-5.76,6.86-7.15,3.13-1.41,6.55-1.48,9.64-.21h0c3.09,1.27,5.47,3.74,6.7,6.94,1.22,3.17,1.16,6.69-.16,9.91s-3.76,5.76-6.86,7.15c-1.64.74-3.37,1.11-5.09,1.11Zm.86-23c-1.3,0-2.61.28-3.86.84-2.4,1.08-4.28,3.05-5.31,5.56-1.03,2.5-1.08,5.24-.14,7.69.93,2.42,2.72,4.28,5.04,5.24,2.32.96,4.9.9,7.27-.17,2.4-1.08,4.28-3.05,5.32-5.56,1.03-2.5,1.08-5.23.14-7.69-.93-2.42-2.72-4.28-5.04-5.24h0c-1.09-.45-2.25-.68-3.41-.68Z" style="fill: #d6902b; stroke-width: 0px;"/>
  </g>
  <g>
    <path d="m987.02,312.61c-13.42-28.1-46.26-30.91-59.37-20.34-.09.07-.16.16-.23.25l-12.59,19.25c-.53.81.25,1.83,1.18,1.54,22-6.83,46.59,5.99,57.73,22.49.43.64,1.4.57,1.76-.11l11.5-22.15c.15-.29.16-.64.02-.93Z" style="fill: #f5c44f; stroke-width: 0px;"/>
    <path d="m972.42,327.55c-.37,0-.73-.17-.97-.46-10.05-12.32-31.44-22.43-47.26-17.83-.47.14-.98-.02-1.3-.39q-.63-.75,1.35-3.5l7.64-10.56c.06-.09.14-.16.22-.23,5.22-4.29,14.04-5.75,23.04-3.8,11.71,2.52,21.45,10.11,26.73,20.81.19.38.17.82-.04,1.19l-8.33,14.16c-.21.35-.57.58-.98.61-.03,0-.06,0-.09,0Zm-39.8-21.92c5.8,0,12.11,1.32,18.44,3.92,8.28,3.4,15.9,8.67,21.18,14.6l7.1-12.06c-5-9.69-13.97-16.55-24.71-18.87-8.2-1.77-16.14-.54-20.8,3.19-.66.92-4.59,6.34-7.01,9.69,1.86-.32,3.81-.47,5.81-.47Z" style="fill: #d6902b; stroke-width: 0px;"/>
  </g>
</svg>