<svg width="484.2" height="131.3" xmlns="http://www.w3.org/2000/svg">
 <path d="M484.19 38.81v92.46H0V38.81C0 20.62 14.88 5.73 33.07 5.73h418.05c18.19 0 33.07 14.89 33.07 33.08Z" fill="#e2dcfe"/>
 <path d="m484.2 103c-97.04-10.68-108.7 16.66-196.9 7.19-88.14-9.47-200.6-22.73-257.6 6.13 145.6 20.21 446.7 11.04 446.7 11.04l7.71-24.35z" fill="#f7f7f7"/>
 <path d="m347.7 131.3c12.51-30.41 88.23-3.63 136.5-34.55v34.55h-136.5z" fill="#b8aeff"/>
 <path d="m128.5 115.2c-0.23-15.83-12.67-14.95-18.67-2.73-5.78-9.17-14.45-2.49-16.89 4.09l35.56-1.36z" fill="#8d7cf7"/>
 <path d="m277.2 131.3c-67.04-39.44-203.8 0-277.2-23.78v23.78h277.2z" fill="#b8aeff"/>
 <path d="M71.96 116.28c-1.08.84-2.58-.19-2.22-1.5 8.9-32.08 22.67-33.55 22.67-24.62s-13.96 21.07-20.45 26.12Z" fill="#8d7cf7"/>
 <path d="m62.92 118.6 9.34-30.14c-37.32-13.7-41.1-1.71-10 6.18m366 34.66c4.88-26.62-6.57-32.34-11.78-24.09" fill="none" stroke="#8d7cf7" stroke-linecap="round" stroke-linejoin="round" stroke-width="3px"/>
 <path d="m432.9 129.3c16.5-39.58-8.53-44.8-14.99-40.76m20.21 40.76c15.66-15.56 8.42-36.55 8.42-36.55m-0.17 36.55c8.42-24.26 16.84-17.52 14.82-9.78" fill="none" stroke="#8d7cf7" stroke-linecap="round" stroke-linejoin="round" stroke-width="3px"/>
 <path d="M484.19 51.69v3.01c-3.19-.32-5.59-1.49-7.13-3.47-1.71-2.19-1.93-4.82-1.83-6.55-4.1-.21-6.94-1.57-8.44-4.03-3.06-5.01.91-12.49 1.08-12.8l2.64 1.42c-.93 1.74-2.96 6.89-1.16 9.82 1.11 1.82 3.67 2.7 7.55 2.61.45-.03.91.2 1.2.57.29.36.4.84.29 1.29-.01.03-.81 3.49 1.04 5.84.98 1.25 2.57 2.01 4.76 2.29Zm0 6.94v3.02c-.89.09-1.73.13-2.53.13-5.49 0-9.06-1.83-11.22-3.57a14.17 14.17 0 0 1-3.47-4.12c-5.63 1.38-10.53.06-13.56-3.72-3.99-4.96-3.94-13.08.12-20.19l2.61 1.49c-3.46 6.05-3.61 12.81-.39 16.83 2.48 3.08 6.6 3.93 11.6 2.37.77-.24 1.6.18 1.86.95.12.33 3.02 8.1 14.98 6.81Zm0 11.33v3.16c-7.32-2.63-10.69 1.15-10.84 1.32-.27.32-.66.51-1.08.53h-.06c-.39 0-.78-.15-1.06-.43-3.92-3.88-7.36-5.57-9.93-4.89-3.23.85-4.55 5.24-4.56 5.28l-2.89-.81c.07-.25 1.77-6.08 6.68-7.37 3.45-.91 7.41.67 11.79 4.68 1.83-1.38 5.76-3.36 11.95-1.47Z" fill="#b8aeff"/>
 <path d="M370.78 117.95c.5.44 1.29.06 1.26-.61-1.32-26.14-12.09-36.18-15.5-26.09-3.25 9.63 7.66 20.84 14.24 26.69Zm2.24-1.62c-.28.72.6 1.34 1.2.85 11.75-9.55 13.96-17.8 9.13-17.06-3.91.6-8.42 11.24-10.33 16.21ZM126.34 71.18c1.62 5.04.41 10.28-2.74 13.83l.55 1.71-6.2 1.99c-7.02 2.26-14.65-1.93-17.04-9.35s1.37-15.28 8.39-17.53l6.2-1.99.55 1.71c4.63 1.04 8.67 4.6 10.29 9.64Z" fill="#8d7cf7"/>
 <ellipse transform="rotate(-17.83 119.8 73.27)" cx="119.8" cy="73.28" rx="13.36" ry="14.12" fill="#b8aeff"/>
 <ellipse transform="rotate(-17.83 119.8 73.27)" cx="119.8" cy="73.28" rx="8.97" ry="9.48" fill="none" stroke="#8d7cf7" stroke-linejoin="round" stroke-width="3px"/>
 <path d="M166.41 25.74c0 9.66-5.03 18.07-12.48 22.46v3.27h-11.87c-13.44 0-24.34-11.52-24.34-25.73S128.62 0 142.06 0h11.87v3.27c7.45 4.39 12.48 12.81 12.48 22.47Z" fill="#bc83fb"/>
 <ellipse cx="153.9" cy="25.74" rx="24.35" ry="25.74" fill="#ffc32b"/>
 <ellipse cx="153.9" cy="25.74" rx="19.68" ry="20.8" fill="none" stroke="#e3961b" stroke-miterlimit="10" stroke-width="3px"/>
 <g style="isolation:isolate">
  <path d="m146.2 30.84-1.79-2.73h-1.98v2.73h-2.15v-9.78h4.02c2.48 0 4.04 1.36 4.04 3.55 0 1.47-0.7 2.54-1.91 3.09l2.08 3.15h-2.31zm-2.02-7.94h-1.75v3.41h1.75c1.31 0 1.98-0.64 1.98-1.71s-0.66-1.71-1.98-1.71zm5.28 3.05c0-2.91 2.15-5.06 5.08-5.06s5.08 2.14 5.08 5.06-2.16 5.06-5.08 5.06-5.08-2.15-5.08-5.06zm7.99 0c0-1.86-1.25-3.13-2.91-3.13s-2.91 1.27-2.91 3.13 1.25 3.13 2.91 3.13 2.91-1.27 2.91-3.13zm3.22 0c0-2.95 2.15-5.06 5.04-5.06 1.61 0 2.95 0.61 3.82 1.73l-1.38 1.34c-0.62-0.75-1.41-1.15-2.34-1.15-1.74 0-2.97 1.29-2.97 3.13s1.23 3.13 2.97 3.13c0.93 0 1.71-0.39 2.34-1.16l1.38 1.34c-0.88 1.13-2.22 1.75-3.84 1.75-2.88 0-5.03-2.11-5.03-5.06z" fill="#fff"/>
 </g>
 <path d="M27.83 66C20.67 75.97 9.07 86.47 0 90.68v-5.63c7.86-4.12 27.82-19.06 27.82-19.06h.01Z" fill="#8d7cf7"/>
 <path d="M22.27 72.82C38.02 54.61 48.4 31.78 73.11 29.51c14.61-1.34-8.99 19.19-50.84 43.31ZM0 75.97c26.25-19.23 44.73-45.16 35.07-44.08C19.18 33.66 0 72.61 0 72.61v3.36Z" fill="#b8aeff"/>
 <circle cx="106.4" cy="39.02" r="4.09" fill="#f7f7f7"/>
 <circle cx="222.8" cy="16.63" r="3.07" fill="#f7f7f7"/>
 <circle cx="284.4" cy="23.54" r="3.13" fill="#f7f7f7"/>
 <circle cx="435" cy="23.82" r="5.29" fill="#f7f7f7"/>
 <circle cx="341.2" cy="95.71" r="4.05" fill="#f7f7f7"/>
 <circle cx="351.5" cy="63.03" r="4.35" fill="#f7f7f7"/>
 <circle cx="458" cy="84.4" r="3.53" fill="#f7f7f7"/>
 <circle cx="29.77" cy="18.19" r="3.98" fill="#f7f7f7"/>
 <circle cx="20.2" cy="94.99" r="4.19" fill="#f7f7f7"/>
 <path d="m159.6 131.3c-14.79-13.8-29.56-1.7-29.56-1.7-18.52-14.95-32.52 1.7-32.52 1.7h62.08z" fill="#e2dcfe"/>
 <path d="M375.16 35.85c-9.29-27.77-39.63-34.17-53.07-25.81-.09.06-.17.13-.24.21l-13.97 16.52c-.59.7.03 1.74.93 1.57 21.31-3.84 42.78 10.93 51.28 27.6.34.66 1.25.74 1.67.13l13.28-19.35c.17-.25.22-.58.12-.87Z" fill="#bc83fb"/>
 <path d="M374.41 25.63C360.94-1.79 328.68-4.18 315.95 6.34c-.09.07-.16.16-.22.25l-12.14 19.03c-.51.81.27 1.79 1.18 1.5 21.5-6.94 45.77 5.35 56.88 21.41.43.62 1.38.55 1.72-.13l11.04-21.85c.14-.28.15-.63 0-.91Z" fill="#ffc32b"/>
 <path d="m370.4 26.08c-11.85-23.35-40.61-26.73-51.81-17.3 0 0-9.62 13.61-9.61 13.61 17.89-5.43 41.54 5.81 52.61 19.07l8.81-15.37h0z" fill="none" stroke="#e3961b" stroke-linecap="round" stroke-linejoin="round" stroke-width="2.5px"/>
 <path d="M329.65 15.45c-.72-.11-1.07-.17-1.79-.26-.41 1.06-.62 1.59-1.03 2.66-1.1-.15-2.2-.26-3.31-.35 1.56-4 2.34-5.99 3.91-9.99 2.14.17 3.2.3 5.31.65 3.15.51 4.53 2.45 3.65 4.74-.57 1.47-1.79 2.35-3.45 2.65.5 1.46.75 2.2 1.25 3.71-1.38-.34-2.07-.5-3.47-.77-.42-1.22-.64-1.83-1.07-3.03Zm2.02-5.12c-.73-.12-1.09-.17-1.82-.27-.46 1.17-.68 1.76-1.14 2.93.73.1 1.1.15 1.82.27 1.35.22 2.24-.19 2.59-1.1.36-.93-.1-1.61-1.45-1.83Zm5.39 4.15c1.15-3 4.67-4.54 8.16-3.24s5.1 4.76 3.97 7.76c-1.13 3.01-4.43 3.96-7.93 2.65s-5.35-4.17-4.19-7.17h-.01Zm9.1 3.13c.66-1.73-.18-3.41-1.83-4.03-1.65-.62-3.4.1-4.06 1.83s.23 3.27 1.89 3.89c1.66.62 3.35.04 4.01-1.69h-.01Zm4.04 1.9c1.15-3.05 4.4-4.02 7.52-2.02 1.81 1.16 2.97 2.86 3.43 4.77-.92.15-1.38.22-2.31.39-.32-1.19-.91-2.11-1.85-2.72-1.62-1.04-3.21-.55-3.85 1.17s.09 3.52 1.72 4.57c.94.61 1.85.71 2.73.37.45 1.14.67 1.72 1.11 2.89-1.37.53-3.03.17-4.86-.99-3.14-2.01-4.78-5.37-3.63-8.42Z" fill="#fff"/>
 <ellipse transform="rotate(-83.24 411.8 122)" cx="411.8" cy="122" rx="1.91" ry="4.33" fill="#8d7cf7"/>
 <ellipse transform="rotate(-9.46 379.9 122.9)" cx="379.9" cy="122.9" rx="2.32" ry="1.51" fill="#8d7cf7"/>
 <ellipse transform="rotate(-14.99 476.5 110.1)" cx="476.5" cy="110.1" rx="2.95" ry="1.92" fill="#8d7cf7"/>
 <ellipse transform="rotate(-89.03 141.3 119.4)" cx="141.3" cy="119.4" rx="1.99" ry="3.06" fill="#8d7cf7"/>
 <ellipse transform="rotate(-82.41 71.25 125)" cx="71.25" cy="125" rx="2.5" ry="3.86" fill="#8d7cf7"/>
 <ellipse transform="rotate(-52.3 8.968 117.4)" cx="8.97" cy="117.4" rx="2.16" ry="2.5" fill="#8d7cf7"/>
 <ellipse transform="rotate(-82.76 19.67 124.4)" cx="19.67" cy="124.4" rx="2.79" ry="3.23" fill="#8d7cf7"/>
 <path d="m320.5 64.19 13.96-29.26h-143.4l-16.65 28.05 146.1 1.21z" fill="#8d7cf7"/>
 <path d="m314.84 61.63 8.39-18.64c.49-1.08-.3-2.31-1.49-2.31h-126c-.58 0-1.12.31-1.41.81l-11.21 19.07c-.64 1.09.15 2.47 1.41 2.46l128.83-.43c.64 0 1.22-.38 1.49-.96h-.01Z" fill="#5d4dc4"/>
 <path d="m329.28 77.17-12.68 2.16.78-16.35 3.12 1.21 8.78 12.98Z" fill="#8d7cf7"/>
 <path d="m334.5 34.93c8.58 41.83-9.27 54.8-13.96 29.26l13.96-29.26z" fill="#5d4dc4"/>
 <path d="m302.1 67.89c4.2-3.94 5.81-9.56 4.69-14.59l1.42-1.33-4.84-5.17c-5.48-5.85-14.94-5.9-21.13-0.1s-6.76 15.24-1.28 21.09l4.84 5.17 1.42-1.33c4.95 1.45 10.67 0.2 14.87-3.74z" fill="#e3961b"/>
 <ellipse transform="rotate(-43.14 297 62.45)" cx="297" cy="62.45" rx="15.35" ry="14.52" fill="#ffc32b"/>
 <ellipse transform="rotate(-43.14 297 62.45)" cx="297" cy="62.45" rx="10.31" ry="9.75" fill="none" stroke="#e3961b" stroke-miterlimit="10" stroke-width="3px"/>
 <rect x="212.6" y="43.36" width="32.52" height="12.82" rx="2.85" ry="2.85" fill="#e3961b"/>
 <rect x="210" y="55.8" width="32.52" height="12.82" rx="2.85" ry="2.85" fill="#e3961b"/>
 <path d="m314 59.14 6.51 5.04v58.31c0 4.27-1.69 7.77-6.51 7.77h-12.05l12.05-71.12z" fill="#5d4dc4"/>
 <path d="M250.97 47.16c.53 5.95 4.08 10.85 8.9 13.15l.18 2.01 7.31-.65c8.28-.73 14.36-8.42 13.58-17.17-.77-8.75-8.11-15.26-16.39-14.52l-7.31.65.18 2.01c-4.34 3.11-6.98 8.57-6.46 14.51h.01Z" fill="#e3961b"/>
 <ellipse transform="rotate(-5.06 258.6 46.46)" cx="258.6" cy="46.47" rx="15.05" ry="15.91" fill="#ffc32b"/>
 <ellipse transform="rotate(-5.06 258.6 46.46)" cx="258.6" cy="46.47" rx="10.1" ry="10.68" fill="none" stroke="#e3961b" stroke-miterlimit="10" stroke-width="3px"/>
 <rect x="183.4" y="31.8" width="34.46" height="13.59" rx="3.02" ry="3.02" fill="#ffc32b"/>
 <rect x="180.6" y="45.39" width="34.46" height="13.59" rx="3.02" ry="3.02" fill="#ffc32b"/>
 <path d="m212 45.39h-25.66" fill="none" stroke="#e3961b" stroke-linecap="round" stroke-miterlimit="10" stroke-width="3px"/>
 <path d="m212 31.8v13.59m-11.45-13.59v13.59m-11.83-13.59v13.59m16.47 0v13.59m-12.43-13.59v13.59" fill="none" stroke="#e3961b" stroke-miterlimit="10" stroke-width="3px"/>
 <path d="m164.16 124.08-3.66-62.55c-.08-1.32.93-2.46 2.25-2.56 94.16-6.8 151.24.17 151.24.17l-2.95 64.84a6.605 6.605 0 0 1-6.6 6.28H170.76c-3.49 0-6.37-2.71-6.59-6.19Z" fill="#8d7cf7"/>
 <path d="m295.6 71.87-2.56 43.02h-114.3l-3.34-43.02c60.53-4.13 120.2 0 120.2 0z" fill="#b8aeff"/>
 <path d="m177.1 92.6h117.2" fill="none" stroke="#8d7cf7" stroke-linejoin="round" stroke-width="3px"/>
 <path d="m231.3 69.13 2.39 46.65h9.62v-46.6l-12.01-0.05z" fill="#8d7cf7"/>
 <path d="m175.4 71.87 3.34 43.02h114.3l2.56-43.02c-52.33-2.69-120.2 0-120.2 0z" fill="none" stroke="#6b58e0" stroke-linejoin="round" stroke-width="3.11px"/>
 <path d="m216.33 57.1 3.24 22.02a3.95 3.95 0 0 0 3.91 3.37h28.98c1.93 0 3.57-1.39 3.89-3.29l3.74-22.02c.36-2.15-1.08-4.19-3.23-4.55-.22-.04-.44-.06-.66-.06h-35.96a3.952 3.952 0 0 0-3.91 4.52Z" fill="#8d7cf7"/>
 <circle cx="237.9" cy="62.98" r="5.58" fill="#281f70"/>
 <path d="m237.9 62.92v11.47" fill="none" stroke="#281f70" stroke-linecap="round" stroke-miterlimit="10" stroke-width="3px"/>
 <path d="M263.24 56.22c-.34 2.01-.81 5.01-1.31 8.18-1.05 6.59-2.13 13.4-2.39 14.66-.65 3.24-3.53 5.6-6.84 5.6h-29.98c-3.24 0-6.03-2.42-6.5-5.65l-3.09-22.59c1.1-.03 2.19-.06 3.28-.08l3.03 22.24a3.302 3.302 0 0 0 3.26 2.82h29.98c1.76 0 3.31-1.26 3.65-2.98.24-1.2 1.36-8.28 2.36-14.53.47-2.94.91-5.73 1.23-7.73 1.12.02 2.22.04 3.31.07h.01Z" fill="#6b58e0"/>
 <path d="m368.5 131.3c-17.27-19.55-33.34-2.34-33.34-2.34-12.65-16.19-29.42-1.58-29.42-1.58-8.67-12.12-21.85 3.92-21.85 3.92h84.61z" fill="#e2dcfe"/>
 <path d="M418.36 73.59c0 7.93-10.28 9.26-15.83.64l15.83-.64Zm-4.86-22.06c7-4.52 7.62 3.08 5.64 5.06l-18.87-2.39c2.26-8.77 10.98-10.3 13.23-2.67Z" fill="#8d7cf7"/>
 <path d="m407.2 75.6c7.96 1.25 15.2-2.81 16.18-9.05 0.98-6.25-4.68-13-12.64-14.25s-15.2 3.48-16.18 9.73 4.68 12.32 12.64 13.57z" fill="#b8aeff"/>
 <path d="m405 51.35c8.04 11.11 2.13 25.29 2.13 25.29" fill="none" stroke="#8d7cf7" stroke-miterlimit="10" stroke-width="2.5px"/>
 <ellipse transform="rotate(-66.57 390.4 53.92)" cx="390.4" cy="53.91" rx="1.79" ry="1.94" fill="#f7f7f7"/>
 <ellipse transform="rotate(-72.72 393.1 41.9)" cx="393.1" cy="41.9" rx="2.67" ry="2.74" fill="#f7f7f7"/>
 <path d="m411.8 64.53c0.32 2.02 5.69 3.17 6.86 1.75s-0.13-5.05-2.04-5.93-5.13 2.16-4.82 4.18zm17.64-7.4c2.39 1 2.96 11.61-0.31 13.5s-6.4-4.22-5.84-6.59 3.76-7.92 6.15-6.91z" fill="#8d7cf7"/>
 <path d="M403.77 63.89c-.49-1.22-1.81-3.03-2.94-1.59-.24.36-.38 1.01-.38 1.66 0 .51-.41.92-.91.92-.39 0-.74-.25-.87-.62-.57-1.37-.24-3.47 1.2-4.4 2.79-1.79 5.59.89 5.68 3.65.12 1.08-1.43 1.4-1.78.4v-.02Z"/>
</svg>
