<svg xmlns="http://www.w3.org/2000/svg" xmlns:xlink="http://www.w3.org/1999/xlink" viewBox="0 0 1476 257"><path d="M 0 61.701 L 415.961 61.701 C 409.611 38.067 371.986 58.428 371.986 58.428 C 352.421 41.508 319.379 54.956 312.63 54.085 C 305.892 53.215 283.93 5.056 250.016 0.283 C 216.102 -4.49 177.183 51.264 170.013 52.344 C 162.844 53.425 147.19 42.578 138.275 43.019 C 129.36 43.459 116.104 57.988 103.709 57.988 C 91.314 57.988 68.27 43.239 49.137 43.239 C 30.004 43.239 0 61.701 0 61.701 Z M 1243.393 80.457 C 1243.393 80.457 1002.881 84.044 885.495 80.457 C 896.565 59.32 934.222 52.145 945.292 74.478 C 1005.53 -8.853 1066.21 6.178 1091.021 71.425 C 1124.683 45.767 1162.035 64.879 1176.385 74.058 C 1185.846 80.111 1196.622 68.792 1211.35 67.722 C 1229.264 66.421 1243.393 80.457 1243.393 80.457 Z M 735.74 184.736 C 555.603 185.606 415.509 188.114 283.709 185.764 C 322.418 160.798 340.258 148.976 392.128 180.603 C 392.128 180.603 405.112 169.442 426.547 169.19 C 436.272 169.075 447.068 176.396 453.817 176.312 C 460.567 176.229 476.136 167.386 490.402 165.665 C 504.668 163.945 528.196 173.596 535.344 173.512 C 542.483 173.428 573.863 124.85 604.035 125.699 C 634.207 126.559 653.14 150.151 668.037 167.554 C 682.923 184.967 688.842 182.029 702.256 174.77 C 715.66 167.512 735.75 184.725 735.75 184.725 Z M 1476.41 256.224 C 1362.157 259.822 1123.747 254.346 1123.747 254.346 C 1154.476 233.178 1181.988 250.454 1181.988 250.454 C 1227.393 218.912 1261.328 251.094 1266.827 251.094 C 1272.325 251.094 1284.877 207.551 1319.107 201.205 C 1359.571 193.705 1411.746 253.916 1411.746 253.916 C 1428.272 229.443 1476.41 256.224 1476.41 256.224 Z" fill="rgb(223,198,254)"></path></svg>