<svg width="46" height="46" fill="none" xmlns="http://www.w3.org/2000/svg"><g clip-path="url(#a)" stroke="#BD83FD" stroke-width="4.082"><path d="M16.327 11.428V9.796a6.53 6.53 0 0 1 13.06 0v1.633h-13.06Z"/><path d="M32.653 11.428H13.061" stroke-linecap="round"/><path d="m30.136 25.412-2.018-.552a1.943 1.943 0 0 1-.972-3.128l1.372-1.623c2.112-2.5 2.277-6.006.623-8.68H16.558c-1.653 2.672-1.489 6.18.624 8.68l1.372 1.623a1.943 1.943 0 0 1-.972 3.128l-2.013.552a12.286 12.286 0 0 0-9.04 11.85v5.187h32.655V37.27c0-5.54-3.705-10.395-9.048-11.858Z" stroke-linecap="round" stroke-linejoin="round"/></g><defs><clipPath id="a"><rect width="45.714" height="45.714" rx="9.143" fill="#fff"/></clipPath></defs></svg>