<svg width="46" height="46" fill="none" xmlns="http://www.w3.org/2000/svg"><path d="M22.858 12.31a4.522 4.522 0 1 0-.001-9.044 4.522 4.522 0 0 0 .001 9.044ZM12.202 42.43a4.522 4.522 0 1 0-.001-9.044 4.522 4.522 0 0 0 0 9.043ZM7.786 24.37a4.522 4.522 0 1 0 0-9.044 4.522 4.522 0 0 0 0 9.044ZM37.928 24.37a4.522 4.522 0 1 0 0-9.044 4.522 4.522 0 0 0 0 9.044ZM33.393 42.445a4.522 4.522 0 1 0-.001-9.044 4.522 4.522 0 0 0 .001 9.044ZM16.712 38.222h12.16M11.467 17.07l7-7.001M34.217 17.045l-7.091-7.092M34.673 33.578l2.526-9.269M10.93 33.566l-2.502-9.232" stroke="#BD83FD" stroke-width="4.081" stroke-linecap="square" stroke-linejoin="bevel"/></svg>