<?xml version="1.0" encoding="UTF-8" standalone="no"?>
<!-- Generator: Adobe Illustrator 28.1.0, SVG Export Plug-In . SVG Version: 6.00 Build 0)  -->

<svg
   version="1.1"
   id="Ebene_1"
   x="0px"
   y="0px"
   viewBox="0 0 1780 1000"
   style="enable-background:new 0 0 1780 1000;"
   xml:space="preserve"
   sodipodi:docname="events-revive.svg"
   inkscape:version="1.3.2 (091e20e, 2023-11-25)"
   xmlns:inkscape="http://www.inkscape.org/namespaces/inkscape"
   xmlns:sodipodi="http://sodipodi.sourceforge.net/DTD/sodipodi-0.dtd"
   xmlns="http://www.w3.org/2000/svg"
   xmlns:svg="http://www.w3.org/2000/svg"><defs
   id="defs200" /><sodipodi:namedview
   id="namedview200"
   pagecolor="#ffffff"
   bordercolor="#000000"
   borderopacity="0.25"
   inkscape:showpageshadow="2"
   inkscape:pageopacity="0.0"
   inkscape:pagecheckerboard="0"
   inkscape:deskcolor="#d1d1d1"
   inkscape:zoom="0.55842697"
   inkscape:cx="667.05231"
   inkscape:cy="772.70624"
   inkscape:window-width="1392"
   inkscape:window-height="1212"
   inkscape:window-x="0"
   inkscape:window-y="25"
   inkscape:window-maximized="0"
   inkscape:current-layer="Ebene_1" />
<style
   type="text/css"
   id="style1">
	.st0{fill:#BC83FB;}
	.st1{fill:#8747CC;}
	.st2{fill:#D8B7FB;}
	.st3{fill:#642F9E;}
	.st4{fill:#FF705E;}
	.st5{fill:#E34135;}
	.st6{fill:#FFFFFF;}
	.st7{fill:#B8A3C9;}
	.st8{fill:#E2DCFE;}
	.st9{fill:#282828;}
	.st10{fill:#F7F7F7;}
</style>
<path
   class="st0"
   d="M1447,90.4v49.8c0,12.2-9.9,22.1-22,22.1H355c-12.2,0-22-9.9-22-22.1V90.4c0-12.2,9.9-22.1,22-22.1h14.2  c1.6,0,3.1,0.9,3.6,2.4c2.1,5.4,9.9,10,20.4,10.4c8.3,0.3,15.2-2.1,19-5.6c1.6-1.5,4.1-1.4,5.6,0.2c4.5,4.9,13.4,8.5,24.5,8.5  c12.2,0,21.3-4.4,25.6-10.1c1.4-1.9,4.2-1.9,5.7-0.1c5.9,7,16.7,12.1,29.5,12.2c16.1,0.1,27.2-6.9,31.9-14.6  c1.3-2.1,3.7-3.3,6.2-3.3h883.2c12.2,0.1,22.1,9.9,22.1,22.1L1447,90.4z"
   id="path1" />
<path
   class="st0"
   d="M394.6,74.9c-12.2,0.4-20-7.2-14-13.6c5.9-6.4,21.2-6.9,27.4-0.8S406.8,74.5,394.6,74.9z"
   id="path2" />
<path
   class="st0"
   d="M442.8,77.2c-16.3,0.6-26.9-9.1-19.1-17.5c7.9-8.4,28.3-9.2,36.8-1.4S459.1,76.6,442.8,77.2L442.8,77.2z"
   id="path3" />
<path
   class="st0"
   d="M504.5,78.8c-18.3,0.6-30.2-10.5-21.3-20s31.8-10.3,41.2-1.4C533.9,66.3,522.8,78.2,504.5,78.8L504.5,78.8z"
   id="path4" />
<path
   class="st1"
   d="M1076,589.9l-62.8-9.7c68.4-68.5,71.7-94,63.9-110.4c-2.4-5-7.2-8.1-14-8.8C1092,461.5,1128.6,510.8,1076,589.9  z"
   id="path5" />
<path
   class="st2"
   d="M1057,459c0,5.2,23,12.4,22.2,5.8C1078.4,458.1,1057,453.7,1057,459z"
   id="path6" />
<path
   class="st0"
   d="M1076,589.9c52.6-79.1,13.7-125.4-12.9-128.9c-15.1-2-34.8,6.1-59.1,26.2c-1.9,1.5-4.4-0.7-3.1-2.8  c34-53.5,82.3-62.1,109.8-45.6C1143.5,458.5,1149.2,536.4,1076,589.9L1076,589.9z"
   id="path7" />
<path
   class="st2"
   d="M1094,518.3c-4.7,14.4-16.1,20.6-20.5,11.2s1.5-27.3,10.6-32.3S1098.8,504,1094,518.3z"
   id="path8" />
<path
   class="st2"
   d="M1062,580.6c-13.3,13.3-30.2,13-30.5-0.6c-0.3-13.5,16.4-30.2,29.9-29.9C1074.9,550.3,1075.2,567.3,1062,580.6z  "
   id="path9" />
<path
   class="st0"
   d="M296.3,545.9c-41.9-26.9-74.1-15.4-87.6,1.9c-14.8,19-31,77.9,45.8,130.6c4.7,3.2,9.7,6.4,15.2,9.6l5.9,45.6  l5.1,39.6c-23.1-7.8-42.4-18.3-58.3-30.7c-53.9-42-69.2-105.6-60.4-155.3c2.9-16.6,9.8-31.6,19.4-43.7  c27.7-35.1,77.6-45.8,117.3-0.2C299.9,544.8,298,547,296.3,545.9L296.3,545.9z"
   id="path10" />
<path
   class="st1"
   d="M296.3,545.9c-41.9-26.9-74.1-15.4-87.6,1.9c-14.8,19-31,77.9,45.8,130.6c4.7,3.2,9.7,6.4,15.2,9.6l5.9,45.6  c-9.3-2.2-18.3-5.7-27-10.2c-41.6-21.7-74.3-67.5-79-118.4c-2.7-29,3.7-49.3,11.8-61.5c27.7-35.1,77.6-45.8,117.3-0.2  C299.9,544.8,298,547,296.3,545.9L296.3,545.9z"
   id="path11" />
<path
   class="st2"
   d="M238.1,673.5c10.8,15,9.9,29.9-1.6,26.7s-24.9-21.9-24.2-33.8S227.4,658.5,238.1,673.5z"
   id="path12" />
<path
   class="st2"
   d="M200.5,616.4c3,14.4-2.4,24.9-9.7,18.9s-11.1-23.9-6.8-32.3S197.5,602,200.5,616.4L200.5,616.4z"
   id="path13" />
<path
   class="st2"
   d="M204.4,555.2c-4.9,8.7-13.8,10.9-16.1,3.9s3.8-17.9,11-19.7C206.4,537.7,209.2,546.5,204.4,555.2z"
   id="path14" />
<path
   class="st2"
   d="M239.8,531.5c-9.1,0-14.9-4.9-10.3-8.8s16-3.9,20.6,0S248.9,531.5,239.8,531.5z"
   id="path15" />
<path
   class="st1"
   d="M280.5,773.2c-23.1-7.8-42.4-18.3-58.3-30.7c12,0.9,20.9-4.4,26.2-19.1c8.7,4.5,17.7,8,27,10.2L280.5,773.2z"
   id="path16" />
<path
   class="st3"
   d="M275.5,733.6c-9.3-2.2-18.3-5.7-27-10.2c3.7-10.1,5.7-24.8,6-45c4.7,3.2,9.7,6.4,15.2,9.6L275.5,733.6  L275.5,733.6z"
   id="path17" />
<path
   class="st4"
   d="M 1174,953.01489 H 285.7 c -10.8,0 -19.5,-9.59332 -19.5,-21.50227 V 589.90227 C 266.2,577.99332 274.9,568.4 285.7,568.4 H 1174 c 10.8,0 19.5,9.59332 19.5,21.50227 v 341.72062 c 0,11.79868 -8.8,21.392 -19.5,21.392 z"
   id="path18"
   style="stroke-width:1.05009" />
<path
   class="st5"
   d="M974.7,568.4V615c0,27.6-22.3,49.9-49.9,49.9H515.5c-27.6,0-49.9-22.3-49.9-49.9v-46.7h509.1V568.4z"
   id="path19" />
<path
   class="st0"
   d="M934.9,650.4H525.6c-27.6,0-49.9-22.3-49.9-49.9v-64.3c0-27.6,22.3-49.9,49.9-49.9h409.3  c27.6,0,49.9,22.3,49.9,49.9v64.3C984.8,628.1,962.4,650.4,934.9,650.4z"
   id="path20" />
<path
   class="st0"
   d="M1089,298.7l-16.9,27.2c0,0-61.9-42.2-141.1-36.1c-3.6,0.3-6.7-2.5-6.7-6.2l-0.9-39.1c-0.1-3.6,2.7-6.7,6.3-6.9  C1009.3,231.6,1068.1,268.1,1089,298.7z"
   id="path21" />
<path
   class="st0"
   d="M1110,331.3l-42.6,10c-2.9,0.7-5.3-2.5-3.8-5.1l30-51.9c1.5-2.6,5.4-2.2,6.3,0.7l12.6,41.9  C1113.1,328.9,1111.9,330.9,1110,331.3z"
   id="path22" />
<path
   class="st0"
   d="M1402,697.4l-21.5-22c0,0-55.3,49.6-134.5,43.5c-3.6-0.3-6.7,2.5-6.7,6.2l-0.9,39.3c-0.1,3.5,2.6,6.5,6.1,6.7  C1324.2,776.8,1384,732.9,1402,697.4z"
   id="path23" />
<path
   class="st0"
   d="M1414,660.7l-43.7,1.3c-3,0.1-4.5,3.7-2.3,5.9l42.4,42.4c2.1,2.1,5.8,0.7,5.9-2.3l1.3-43.7  C1417.6,662.2,1415.9,660.6,1414,660.7L1414,660.7z"
   id="path24" />
<path
   class="st6"
   d="M392.4,136.9V94.7h17.4c3.7,0,6.9,0.6,9.6,1.8s4.7,2.9,6.2,5.2c1.4,2.3,2.2,4.9,2.2,8s-0.7,5.8-2.2,8  c-1.4,2.2-3.5,3.9-6.2,5.1s-5.9,1.8-9.6,1.8h-13l3.5-3.6v15.9H392.4z M400.2,121.9l-3.5-3.7h12.7c3.5,0,6.1-0.7,7.8-2.2  s2.6-3.6,2.6-6.2c0-2.7-0.9-4.8-2.6-6.2s-4.4-2.2-7.8-2.2h-12.7l3.5-3.9V121.9L400.2,121.9z M420,136.9l-10.7-15.3h8.4l10.7,15.3  H420z"
   id="path25" />
<path
   class="st6"
   d="M450.9,137.3c-3.6,0-6.7-0.7-9.4-2.1s-4.7-3.4-6.2-5.9s-2.2-5.3-2.2-8.5s0.7-6.1,2.1-8.5s3.4-4.4,5.9-5.8  s5.4-2.1,8.6-2.1c3.1,0,5.9,0.7,8.4,2.1s4.4,3.3,5.8,5.8s2.1,5.4,2.1,8.8v1.1c0,0.4-0.1,0.8-0.1,1.1h-26.8v-5H462l-3,1.6  c0-1.8-0.3-3.5-1.1-4.9s-1.9-2.5-3.3-3.3s-3-1.2-4.8-1.2s-3.5,0.4-4.9,1.2s-2.5,1.9-3.3,3.3s-1.2,3.1-1.2,5v1.2  c0,1.9,0.4,3.6,1.3,5.1s2.1,2.6,3.7,3.4s3.5,1.2,5.5,1.2c1.8,0,3.4-0.3,4.9-0.8c1.4-0.6,2.7-1.4,3.9-2.7l4,4.6  c-1.4,1.7-3.3,3-5.5,3.9C456.2,136.9,453.7,137.3,450.9,137.3L450.9,137.3z"
   id="path26" />
<path
   class="st6"
   d="M482.1,137.3c-2.4,0-4.5-0.4-6.3-1.2s-3.2-2-4.2-3.4c-1-1.5-1.5-3.1-1.5-5c0-1.8,0.4-3.4,1.3-4.9  s2.3-2.6,4.3-3.4s4.6-1.3,7.8-1.3h9.3v5H484c-2.6,0-4.3,0.4-5.2,1.2s-1.3,1.8-1.3,3c0,1.4,0.5,2.5,1.6,3.3s2.6,1.2,4.5,1.2  c1.8,0,3.5-0.4,5-1.3s2.5-2.1,3.2-3.7l1.3,4.5c-0.7,1.9-2,3.4-3.9,4.4C487.3,136.8,484.9,137.3,482.1,137.3L482.1,137.3z   M492.2,136.9v-6.5l-0.4-1.4v-11.4c0-2.2-0.7-3.9-2-5.2c-1.3-1.2-3.3-1.8-6-1.8c-1.8,0-3.6,0.3-5.3,0.8c-1.7,0.6-3.2,1.3-4.4,2.4  l-3-5.5c1.7-1.3,3.8-2.3,6.2-3s4.9-1,7.4-1c4.7,0,8.3,1.1,10.8,3.3c2.6,2.2,3.8,5.7,3.8,10.3v18.9L492.2,136.9L492.2,136.9z"
   id="path27" />
<path
   class="st6"
   d="M522.7,137.3c-3.1,0-5.9-0.7-8.4-2.1s-4.4-3.3-5.8-5.8s-2.1-5.3-2.1-8.7c0-3.3,0.7-6.2,2.1-8.7s3.3-4.4,5.8-5.7  c2.5-1.4,5.3-2.1,8.4-2.1c2.7,0,5.1,0.6,7.2,1.8s3.8,3,5.1,5.4c1.2,2.4,1.9,5.5,1.9,9.3c0,3.7-0.6,6.8-1.8,9.3  c-1.2,2.4-2.9,4.3-5,5.5C527.9,136.7,525.4,137.3,522.7,137.3L522.7,137.3z M523.6,130.9c1.8,0,3.4-0.4,4.9-1.2  c1.4-0.8,2.6-2,3.4-3.5c0.9-1.5,1.3-3.3,1.3-5.4s-0.4-3.9-1.3-5.4s-2-2.7-3.4-3.5s-3-1.2-4.9-1.2c-1.8,0-3.4,0.4-4.9,1.2  c-1.4,0.8-2.6,2-3.4,3.5c-0.9,1.5-1.3,3.3-1.3,5.4c0,2,0.4,3.8,1.3,5.4c0.9,1.5,2,2.7,3.4,3.5S521.7,130.9,523.6,130.9z   M533.3,136.9v-7.6l0.3-8.6l-0.6-8.6v-20h7.5v44.7h-7.2V136.9z"
   id="path28" />
<path
   class="st6"
   d="M554.2,99.4c-1.4,0-2.6-0.4-3.5-1.3s-1.4-1.9-1.4-3.2s0.5-2.4,1.4-3.2c0.9-0.9,2.1-1.3,3.5-1.3s2.6,0.4,3.5,1.2  s1.4,1.9,1.4,3.1c0,1.3-0.4,2.4-1.3,3.3C556.9,99,555.7,99.4,554.2,99.4L554.2,99.4z M550.4,136.9v-32.2h7.5v32.2H550.4z"
   id="path29" />
<path
   class="st6"
   d="M586.1,104.3c2.6,0,4.9,0.5,6.9,1.5s3.6,2.5,4.8,4.6s1.7,4.7,1.7,8v18.5H592v-17.5c0-2.9-0.7-5-2-6.4  s-3.2-2.1-5.6-2.1c-1.8,0-3.3,0.4-4.7,1.1s-2.4,1.8-3.2,3.2c-0.7,1.4-1.1,3.2-1.1,5.4v16.3h-7.5v-32.2h7.2v8.7l-1.3-2.7  c1.1-2.1,2.8-3.6,4.9-4.7C580.9,104.9,583.3,104.3,586.1,104.3L586.1,104.3z"
   id="path30" />
<path
   class="st6"
   d="M622.9,135.5c-3.1,0-5.8-0.7-8.3-2s-4.4-3.1-5.8-5.5c-1.4-2.3-2.1-5.1-2.1-8.2s0.7-5.8,2.1-8.1s3.4-4.1,5.8-5.4  c2.5-1.3,5.2-1.9,8.3-1.9c2.7,0,5.2,0.5,7.4,1.6s3.9,2.8,5.2,5.1s2,5.2,2,8.8s-0.7,6.5-2,8.8c-1.3,2.3-3,4-5.2,5.1  S625.6,135.5,622.9,135.5z M623.8,149c-3,0-5.9-0.4-8.7-1.2s-5.2-1.9-7-3.4l3.4-5.7c1.4,1.2,3.2,2.1,5.3,2.8  c2.2,0.7,4.3,1.1,6.5,1.1c3.5,0,6.1-0.8,7.8-2.4c1.6-1.6,2.5-4.1,2.5-7.3v-5.7l0.6-7.3l-0.2-7.3v-7.8h7.2V132  c0,5.8-1.5,10.1-4.5,12.9C633.8,147.7,629.5,149,623.8,149L623.8,149z M624,129.1c1.9,0,3.6-0.4,5.1-1.2s2.6-1.9,3.5-3.3  c0.8-1.4,1.2-3,1.2-4.8s-0.4-3.4-1.2-4.8s-2-2.5-3.5-3.2s-3.2-1.1-5.1-1.1s-3.6,0.4-5.1,1.1s-2.7,1.8-3.5,3.2s-1.2,3-1.2,4.8  s0.4,3.4,1.2,4.8s2,2.5,3.5,3.3S622.1,129.1,624,129.1z"
   id="path31" />
<path
   class="st6"
   d="M688,137.5c-3.2,0-6.2-0.5-9-1.6s-5.1-2.6-7.2-4.5c-2-1.9-3.6-4.3-4.7-6.9c-1.1-2.7-1.7-5.5-1.7-8.7  c0-3.1,0.6-6,1.7-8.7s2.7-5,4.8-6.9c2-1.9,4.4-3.5,7.2-4.5c2.7-1.1,5.7-1.6,9-1.6c3.5,0,6.6,0.6,9.5,1.8s5.3,2.9,7.2,5.3l-5.1,4.8  c-1.5-1.6-3.2-2.9-5.1-3.7s-3.9-1.2-6.2-1.2c-2.2,0-4.2,0.4-6.1,1.1s-3.4,1.7-4.8,3.1c-1.3,1.3-2.4,2.9-3.1,4.7s-1.1,3.8-1.1,6  s0.4,4.2,1.1,6s1.8,3.4,3.1,4.7s2.9,2.4,4.8,3.1c1.8,0.7,3.8,1.1,6.1,1.1c2.2,0,4.3-0.4,6.2-1.2s3.6-2.1,5.1-3.8l5.1,4.8  c-2,2.3-4.4,4-7.2,5.2C694.7,136.9,691.5,137.5,688,137.5L688,137.5z"
   id="path32" />
<path
   class="st6"
   d="M724.8,137.3c-3.3,0-6.2-0.7-8.8-2.1s-4.6-3.4-6.1-5.9s-2.2-5.3-2.2-8.5s0.7-6.1,2.2-8.5s3.5-4.4,6.1-5.8  s5.5-2.1,8.8-2.1s6.3,0.7,8.9,2.1s4.6,3.3,6.1,5.8s2.2,5.3,2.2,8.6c0,3.2-0.7,6-2.2,8.5c-1.5,2.5-3.5,4.5-6.1,5.9  C731.1,136.6,728.2,137.3,724.8,137.3L724.8,137.3z M724.8,130.9c1.8,0,3.5-0.4,4.9-1.2s2.6-2,3.4-3.5s1.2-3.3,1.2-5.4  s-0.4-3.9-1.2-5.4s-2-2.7-3.4-3.5s-3.1-1.2-4.9-1.2s-3.5,0.4-4.9,1.2s-2.6,2-3.4,3.5s-1.3,3.3-1.3,5.4c0,2,0.4,3.8,1.3,5.4  c0.8,1.5,2,2.7,3.4,3.5C721.4,130.5,723,130.9,724.8,130.9z"
   id="path33" />
<path
   class="st6"
   d="M767.5,104.3c2.6,0,4.9,0.5,6.9,1.5s3.6,2.5,4.8,4.6s1.7,4.7,1.7,8v18.5h-7.5v-17.5c0-2.9-0.7-5-2-6.4  s-3.2-2.1-5.6-2.1c-1.8,0-3.3,0.4-4.7,1.1s-2.4,1.8-3.2,3.2c-0.7,1.4-1.1,3.2-1.1,5.4v16.3h-7.5v-32.2h7.2v8.7l-1.3-2.7  c1.1-2.1,2.8-3.6,4.9-4.7S764.7,104.3,767.5,104.3L767.5,104.3z"
   id="path34" />
<path
   class="st6"
   d="M786.3,111v-6h21.5v6H786.3z M802.7,137.3c-3.5,0-6.3-0.9-8.2-2.7s-2.9-4.5-2.9-8.1V97.6h7.5v28.7  c0,1.5,0.4,2.7,1.2,3.6c0.8,0.8,1.9,1.3,3.3,1.3c1.7,0,3.1-0.4,4.2-1.3l2.1,5.4c-0.9,0.7-2,1.3-3.3,1.6  C805.4,137.2,804.1,137.3,802.7,137.3L802.7,137.3z"
   id="path35" />
<path
   class="st6"
   d="M816.1,136.9v-32.2h7.2v8.9l-0.8-2.6c1-2.2,2.5-3.8,4.6-4.9s4.7-1.7,7.7-1.7v7.2c-0.3-0.1-0.6-0.1-0.9-0.2h-0.8  c-2.9,0-5.1,0.8-6.8,2.5s-2.5,4.2-2.5,7.4v15.6L816.1,136.9L816.1,136.9z"
   id="path36" />
<path
   class="st6"
   d="M848.6,137.3c-2.4,0-4.5-0.4-6.3-1.2s-3.2-2-4.2-3.4c-1-1.5-1.5-3.1-1.5-5c0-1.8,0.4-3.4,1.3-4.9  s2.3-2.6,4.3-3.4s4.6-1.3,7.8-1.3h9.3v5h-8.8c-2.6,0-4.3,0.4-5.2,1.2s-1.3,1.8-1.3,3c0,1.4,0.5,2.5,1.6,3.3s2.6,1.2,4.5,1.2  c1.8,0,3.5-0.4,5-1.3s2.5-2.1,3.2-3.7l1.3,4.5c-0.7,1.9-2,3.4-3.9,4.4C853.8,136.8,851.4,137.3,848.6,137.3L848.6,137.3z   M858.7,136.9v-6.5l-0.4-1.4v-11.4c0-2.2-0.7-3.9-2-5.2c-1.3-1.2-3.3-1.8-6-1.8c-1.8,0-3.6,0.3-5.3,0.8c-1.7,0.6-3.2,1.3-4.4,2.4  l-3-5.5c1.7-1.3,3.8-2.3,6.2-3s4.9-1,7.4-1c4.7,0,8.3,1.1,10.8,3.3c2.6,2.2,3.8,5.7,3.8,10.3v18.9L858.7,136.9L858.7,136.9z"
   id="path37" />
<path
   class="st6"
   d="M890.3,137.3c-3.4,0-6.4-0.7-9-2.1s-4.7-3.4-6.2-5.9s-2.2-5.3-2.2-8.5s0.7-6.1,2.2-8.5s3.5-4.4,6.2-5.8  c2.6-1.4,5.6-2.1,9-2.1c3.1,0,5.9,0.6,8.3,1.9s4.2,3.1,5.5,5.6l-5.8,3.4c-1-1.5-2.1-2.7-3.5-3.4s-2.9-1.1-4.5-1.1  c-1.8,0-3.5,0.4-5,1.2s-2.7,2-3.5,3.5s-1.3,3.3-1.3,5.4s0.4,3.9,1.3,5.4c0.8,1.5,2,2.7,3.5,3.5s3.2,1.2,5,1.2c1.6,0,3.1-0.4,4.5-1.1  s2.6-1.8,3.5-3.4l5.8,3.4c-1.2,2.4-3.1,4.3-5.5,5.6C896.2,136.7,893.4,137.3,890.3,137.3z"
   id="path38" />
<path
   class="st6"
   d="M906.7,111v-6h21.5v6H906.7z M923.1,137.3c-3.5,0-6.3-0.9-8.2-2.7s-2.9-4.5-2.9-8.1V97.6h7.5v28.7  c0,1.5,0.4,2.7,1.2,3.6c0.8,0.8,1.9,1.3,3.3,1.3c1.7,0,3.1-0.4,4.2-1.3l2.1,5.4c-0.9,0.7-2,1.3-3.3,1.6  C925.8,137.2,924.5,137.3,923.1,137.3L923.1,137.3z"
   id="path39" />
<path
   class="st6"
   d="M966.4,136.9l-18.5-42.2h8.5l16.5,38.2H968l16.6-38.2h7.8L974,136.9H966.4L966.4,136.9z"
   id="path40" />
<path
   class="st6"
   d="M1004,137.3c-2.4,0-4.5-0.4-6.3-1.2s-3.2-2-4.2-3.4c-1-1.5-1.5-3.1-1.5-5c0-1.8,0.4-3.4,1.3-4.9  s2.3-2.6,4.3-3.4s4.6-1.3,7.8-1.3h9.3v5h-8.8c-2.6,0-4.3,0.4-5.2,1.2s-1.3,1.8-1.3,3c0,1.4,0.5,2.5,1.6,3.3s2.6,1.2,4.5,1.2  c1.8,0,3.5-0.4,5-1.3s2.5-2.1,3.2-3.7l1.3,4.5c-0.7,1.9-2,3.4-3.9,4.4C1009.3,136.8,1006.9,137.3,1004,137.3L1004,137.3z   M1014.2,136.9v-6.5l-0.4-1.4v-11.4c0-2.2-0.7-3.9-2-5.2c-1.3-1.2-3.3-1.8-6-1.8c-1.8,0-3.6,0.3-5.3,0.8c-1.7,0.6-3.2,1.3-4.4,2.4  l-3-5.5c1.7-1.3,3.8-2.3,6.2-3s4.9-1,7.4-1c4.7,0,8.3,1.1,10.8,3.3c2.6,2.2,3.8,5.7,3.8,10.3v18.9L1014.2,136.9L1014.2,136.9z"
   id="path41" />
<path
   class="st6"
   d="M1030,136.9V92.2h7.5v44.7H1030z"
   id="path42" />
<path
   class="st6"
   d="M1062,137.3c-2.7,0-5.1-0.5-7.2-1.5s-3.7-2.6-4.9-4.7s-1.7-4.8-1.7-8v-18.4h7.5v17.4c0,2.9,0.7,5.1,2,6.5  c1.3,1.4,3.2,2.1,5.6,2.1c1.8,0,3.3-0.4,4.6-1.1s2.3-1.8,3.1-3.3c0.7-1.4,1.1-3.2,1.1-5.4v-16.3h7.5v32.2h-7.2v-8.7l1.3,2.7  c-1.1,2.1-2.7,3.7-4.8,4.8C1066.8,136.8,1064.5,137.3,1062,137.3z"
   id="path43" />
<path
   class="st6"
   d="M1104,137.3c-3.6,0-6.7-0.7-9.4-2.1s-4.7-3.4-6.2-5.9s-2.2-5.3-2.2-8.5s0.7-6.1,2.1-8.5s3.4-4.4,5.9-5.8  s5.4-2.1,8.6-2.1c3.1,0,5.9,0.7,8.4,2.1s4.4,3.3,5.8,5.8s2.1,5.4,2.1,8.8v1.1c0,0.4-0.1,0.8-0.1,1.1h-26.8v-5h22.9l-3,1.6  c0-1.8-0.3-3.5-1.1-4.9s-1.9-2.5-3.3-3.3s-3-1.2-4.8-1.2s-3.5,0.4-4.9,1.2s-2.5,1.9-3.3,3.3s-1.2,3.1-1.2,5v1.2  c0,1.9,0.4,3.6,1.3,5.1s2.1,2.6,3.7,3.4s3.5,1.2,5.5,1.2c1.8,0,3.4-0.3,4.9-0.8c1.4-0.6,2.7-1.4,3.9-2.7l4,4.6  c-1.4,1.7-3.3,3-5.5,3.9C1109.3,136.9,1106.8,137.3,1104,137.3L1104,137.3z"
   id="path44" />
<path
   class="st6"
   d="M1136,137.3c-2.7,0-5.3-0.4-7.7-1.1c-2.5-0.7-4.4-1.6-5.9-2.6l2.9-5.7c1.4,0.9,3.2,1.7,5.2,2.3s4,0.9,6,0.9  c2.4,0,4.1-0.3,5.2-1c1.1-0.6,1.6-1.5,1.6-2.6c0-0.9-0.4-1.6-1.1-2c-0.7-0.5-1.7-0.8-2.8-1.1c-1.2-0.2-2.5-0.5-3.9-0.7  s-2.9-0.5-4.3-0.8s-2.7-0.8-3.9-1.5s-2.1-1.6-2.8-2.7s-1.1-2.6-1.1-4.5c0-2.1,0.6-3.8,1.7-5.3c1.2-1.5,2.8-2.7,4.9-3.5  s4.6-1.2,7.5-1.2c2.2,0,4.4,0.2,6.6,0.7s4,1.2,5.5,2.1l-2.9,5.7c-1.5-0.9-3.1-1.6-4.6-1.9s-3.1-0.5-4.6-0.5c-2.3,0-4,0.3-5.1,1  s-1.7,1.5-1.7,2.6c0,1,0.4,1.7,1.1,2.2s1.7,0.9,2.8,1.1c1.2,0.3,2.5,0.5,3.9,0.7s2.8,0.5,4.3,0.8c1.4,0.4,2.7,0.9,3.9,1.5  s2.1,1.5,2.9,2.6c0.7,1.1,1.1,2.6,1.1,4.4c0,2-0.6,3.8-1.8,5.2c-1.2,1.5-2.9,2.6-5,3.5C1141.6,136.9,1139,137.3,1136,137.3  L1136,137.3z"
   id="path45" />
<path
   class="st6"
   d="M1160,114.4c-1.4,0-2.5-0.5-3.5-1.4s-1.4-2.1-1.4-3.6s0.5-2.7,1.4-3.6c1-0.9,2.1-1.4,3.5-1.4s2.5,0.5,3.5,1.4  s1.4,2.1,1.4,3.6c0,1.4-0.5,2.6-1.4,3.6C1162.5,113.9,1161.4,114.4,1160,114.4z M1160,137.3c-1.4,0-2.5-0.5-3.5-1.4  s-1.4-2.1-1.4-3.6s0.5-2.7,1.4-3.6c1-0.9,2.1-1.4,3.5-1.4s2.5,0.5,3.5,1.4c1,0.9,1.4,2.1,1.4,3.6c0,1.4-0.5,2.6-1.4,3.6  C1162.5,136.9,1161.4,137.3,1160,137.3z"
   id="path46" />
<path
   class="st6"
   d="M1197,130.3h23.8v6.6h-31.7V94.7h30.8v6.6h-23L1197,130.3L1197,130.3z M1196.4,112.2h21v6.5h-21V112.2z"
   id="path47" />
<path
   class="st6"
   d="M1237,136.9l-13.8-32.2h7.8l11.9,28.4h-3.9l12.3-28.4h7.2l-13.8,32.2H1237z"
   id="path48" />
<path
   class="st6"
   d="M1278,137.3c-3.6,0-6.7-0.7-9.4-2.1s-4.7-3.4-6.2-5.9s-2.2-5.3-2.2-8.5s0.7-6.1,2.1-8.5s3.4-4.4,5.9-5.8  s5.4-2.1,8.6-2.1c3.1,0,5.9,0.7,8.4,2.1s4.4,3.3,5.8,5.8s2.1,5.4,2.1,8.8v1.1c0,0.4-0.1,0.8-0.1,1.1h-26.8v-5h22.9l-3,1.6  c0-1.8-0.3-3.5-1.1-4.9s-1.9-2.5-3.3-3.3s-3-1.2-4.8-1.2s-3.5,0.4-4.9,1.2s-2.5,1.9-3.3,3.3s-1.2,3.1-1.2,5v1.2  c0,1.9,0.4,3.6,1.3,5.1s2.1,2.6,3.7,3.4s3.5,1.2,5.5,1.2c1.8,0,3.4-0.3,4.9-0.8c1.4-0.6,2.7-1.4,3.9-2.7l4,4.6  c-1.4,1.7-3.3,3-5.5,3.9C1283.3,136.9,1280.8,137.3,1278,137.3L1278,137.3z"
   id="path49" />
<path
   class="st6"
   d="M1318,104.3c2.6,0,4.9,0.5,6.9,1.5s3.6,2.5,4.8,4.6s1.7,4.7,1.7,8v18.5h-7.5v-17.5c0-2.9-0.7-5-2-6.4  s-3.2-2.1-5.6-2.1c-1.8,0-3.3,0.4-4.7,1.1s-2.4,1.8-3.2,3.2c-0.7,1.4-1.1,3.2-1.1,5.4v16.3h-7.5v-32.2h7.2v8.7l-1.3-2.7  c1.1-2.1,2.8-3.6,4.9-4.7C1312.8,104.9,1315.2,104.3,1318,104.3L1318,104.3z"
   id="path50" />
<path
   class="st6"
   d="M1337,111v-6h21.5v6H1337z M1353.4,137.3c-3.5,0-6.3-0.9-8.2-2.7s-2.9-4.5-2.9-8.1V97.6h7.5v28.7  c0,1.5,0.4,2.7,1.2,3.6c0.8,0.8,1.9,1.3,3.3,1.3c1.7,0,3.1-0.4,4.2-1.3l2.1,5.4c-0.9,0.7-2,1.3-3.3,1.6  C1356.1,137.2,1354.8,137.3,1353.4,137.3L1353.4,137.3z"
   id="path51" />
<path
   class="st6"
   d="M1377,137.3c-2.7,0-5.3-0.4-7.7-1.1c-2.5-0.7-4.4-1.6-5.9-2.6l2.9-5.7c1.4,0.9,3.2,1.7,5.2,2.3s4,0.9,6,0.9  c2.4,0,4.1-0.3,5.2-1c1.1-0.6,1.6-1.5,1.6-2.6c0-0.9-0.4-1.6-1.1-2c-0.7-0.5-1.7-0.8-2.8-1.1c-1.2-0.2-2.5-0.5-3.9-0.7  s-2.9-0.5-4.3-0.8s-2.7-0.8-3.9-1.5s-2.1-1.6-2.8-2.7s-1.1-2.6-1.1-4.5c0-2.1,0.6-3.8,1.7-5.3c1.2-1.5,2.8-2.7,4.9-3.5  s4.6-1.2,7.5-1.2c2.2,0,4.4,0.2,6.6,0.7s4,1.2,5.5,2.1l-2.9,5.7c-1.5-0.9-3.1-1.6-4.6-1.9s-3.1-0.5-4.6-0.5c-2.3,0-4,0.3-5.1,1  s-1.7,1.5-1.7,2.6c0,1,0.4,1.7,1.1,2.2s1.7,0.9,2.8,1.1c1.2,0.3,2.5,0.5,3.9,0.7s2.8,0.5,4.3,0.8c1.4,0.4,2.7,0.9,3.9,1.5  s2.1,1.5,2.9,2.6c0.7,1.1,1.1,2.6,1.1,4.4c0,2-0.6,3.8-1.8,5.2c-1.2,1.5-2.9,2.6-5,3.5C1382.6,136.9,1380,137.3,1377,137.3  L1377,137.3z"
   id="path52" />
<path
   class="st0"
   d="M678.4,275.2v-28.1h11.9c3,0,5.6,0.6,7.9,1.8s4.1,2.8,5.3,4.9c1.3,2.1,1.9,4.6,1.9,7.4s-0.6,5.2-1.9,7.4  c-1.3,2.1-3.1,3.8-5.3,4.9c-2.3,1.2-4.9,1.8-7.9,1.8L678.4,275.2L678.4,275.2z M682.4,271.7h7.6c2.3,0,4.3-0.4,6.1-1.3  c1.7-0.9,3-2.1,4-3.7c0.9-1.6,1.4-3.4,1.4-5.5s-0.5-4-1.4-5.5c-0.9-1.6-2.3-2.8-4-3.7s-3.7-1.3-6.1-1.3h-7.6V271.7z"
   id="path53" />
<path
   class="st0"
   d="M717.3,275.5c-1.6,0-3-0.3-4.2-0.8s-2.1-1.3-2.8-2.2c-0.6-1-1-2-1-3.2s0.3-2.2,0.8-3.1s1.4-1.7,2.7-2.3  s2.9-0.8,5-0.8h6.8v2.8H718c-1.9,0-3.2,0.3-3.9,1s-1,1.4-1,2.3c0,1,0.4,1.9,1.2,2.5s2,0.9,3.5,0.9c1.4,0,2.7-0.3,3.8-1  c1.1-0.6,1.9-1.6,2.4-2.8l0.8,2.7c-0.5,1.3-1.4,2.3-2.7,3C720.8,275.1,719.2,275.5,717.3,275.5z M724.3,275.2v-4.5l-0.2-0.8v-7.7  c0-1.6-0.5-2.9-1.4-3.8s-2.4-1.3-4.3-1.3c-1.3,0-2.5,0.2-3.7,0.6s-2.2,1-3.1,1.7l-1.6-2.9c1.1-0.9,2.4-1.6,4-2  c1.5-0.5,3.2-0.7,4.8-0.7c2.9,0,5.2,0.7,6.8,2.1c1.6,1.4,2.4,3.6,2.4,6.5v12.9h-3.7V275.2z"
   id="path54" />
<path
   class="st0"
   d="M735.1,283v-29.1h3.7v5.7l-0.2,4.9l0.4,4.9V283H735.1z M746.4,275.5c-1.8,0-3.4-0.4-4.8-1.2  c-1.5-0.8-2.6-2-3.5-3.6s-1.3-3.6-1.3-6s0.4-4.4,1.3-6c0.8-1.6,2-2.8,3.5-3.6s3.1-1.2,4.9-1.2c2.1,0,3.9,0.5,5.5,1.4  s2.9,2.2,3.8,3.8s1.4,3.5,1.4,5.7s-0.5,4.1-1.4,5.7s-2.2,2.9-3.8,3.8C750.3,275,748.5,275.5,746.4,275.5L746.4,275.5z M746,272.1  c1.4,0,2.6-0.3,3.7-0.9s1.9-1.5,2.6-2.6c0.6-1.1,0.9-2.5,0.9-4s-0.3-2.8-0.9-4c-0.6-1.1-1.5-2-2.6-2.6s-2.3-0.9-3.7-0.9  c-1.3,0-2.6,0.3-3.6,0.9c-1.1,0.6-1.9,1.5-2.6,2.6c-0.6,1.1-0.9,2.4-0.9,4c0,1.5,0.3,2.8,0.9,4c0.6,1.1,1.5,2,2.6,2.6  S744.7,272.1,746,272.1z"
   id="path55" />
<path
   class="st0"
   d="M762.5,283v-29.1h3.7v5.7l-0.2,4.9l0.4,4.9V283H762.5z M773.8,275.5c-1.8,0-3.4-0.4-4.8-1.2  c-1.5-0.8-2.6-2-3.5-3.6s-1.3-3.6-1.3-6s0.4-4.4,1.3-6c0.8-1.6,2-2.8,3.5-3.6s3.1-1.2,4.9-1.2c2.1,0,3.9,0.5,5.5,1.4  s2.9,2.2,3.8,3.8s1.4,3.5,1.4,5.7s-0.5,4.1-1.4,5.7s-2.2,2.9-3.8,3.8C777.7,275,775.9,275.5,773.8,275.5L773.8,275.5z M773.5,272.1  c1.4,0,2.6-0.3,3.7-0.9s1.9-1.5,2.6-2.6c0.6-1.1,0.9-2.5,0.9-4s-0.3-2.8-0.9-4c-0.6-1.1-1.5-2-2.6-2.6s-2.3-0.9-3.7-0.9  c-1.3,0-2.6,0.3-3.6,0.9c-1.1,0.6-1.9,1.5-2.6,2.6c-0.6,1.1-0.9,2.4-0.9,4c0,1.5,0.3,2.8,0.9,4c0.6,1.1,1.5,2,2.6,2.6  C770.9,271.8,772.1,272.1,773.5,272.1z"
   id="path56" />
<path
   class="st0"
   d="M322.1,393.2c-2.1,0-4.2-0.3-6.2-1s-3.5-1.5-4.6-2.6l1.5-3.1c1.1,0.9,2.4,1.7,4.1,2.3s3.4,0.9,5.2,0.9  c1.6,0,3-0.2,4-0.6s1.8-0.9,2.3-1.5c0.5-0.7,0.7-1.4,0.7-2.2c0-1-0.3-1.7-0.9-2.3s-1.4-1.1-2.5-1.4s-2.1-0.7-3.3-0.9l-3.6-0.9  c-1.2-0.4-2.3-0.8-3.3-1.4s-1.8-1.3-2.4-2.3s-0.9-2.2-0.9-3.7c0-1.4,0.4-2.8,1.1-4c0.8-1.2,1.9-2.2,3.5-2.9s3.6-1.1,6.1-1.1  c1.6,0,3.3,0.2,4.9,0.6s3,1,4.2,1.8l-1.3,3.2c-1.2-0.8-2.5-1.4-3.8-1.7c-1.3-0.4-2.6-0.5-3.9-0.5c-1.6,0-2.9,0.2-3.9,0.6  s-1.8,0.9-2.2,1.6c-0.5,0.7-0.7,1.4-0.7,2.3c0,1,0.3,1.8,0.9,2.4s1.4,1.1,2.5,1.4c1,0.3,2.1,0.7,3.3,0.9l3.6,0.9  c1.2,0.3,2.3,0.8,3.3,1.4s1.8,1.3,2.4,2.3c0.6,0.9,0.9,2.1,0.9,3.6c0,1.4-0.4,2.7-1.2,4c-0.8,1.2-2,2.2-3.6,2.9  C326.6,392.8,324.5,393.2,322.1,393.2L322.1,393.2z"
   id="path57" />
<path
   class="st0"
   d="M347.2,393.1c-1.8,0-3.4-0.3-4.8-1s-2.5-1.7-3.2-3.1c-0.8-1.4-1.1-3.1-1.1-5.2v-12.3h3.9v11.8  c0,2.1,0.5,3.7,1.5,4.7s2.4,1.6,4.2,1.6c1.3,0,2.5-0.3,3.5-0.8s1.8-1.4,2.3-2.4c0.5-1.1,0.8-2.3,0.8-3.8v-11h3.9v21.3h-3.7v-5.7  l0.6,1.5c-0.7,1.4-1.7,2.5-3.1,3.3C350.5,392.7,349,393.1,347.2,393.1L347.2,393.1z"
   id="path58" />
<path
   class="st0"
   d="M365.5,392.9v-29.8h3.9v14.2l-0.4,4.9l0.2,4.9v5.7L365.5,392.9L365.5,392.9z M376.8,393.1  c-1.8,0-3.5-0.4-4.9-1.2c-1.5-0.8-2.6-2-3.5-3.6c-0.8-1.6-1.3-3.6-1.3-6s0.4-4.4,1.3-6s2-2.8,3.5-3.6s3.1-1.2,4.8-1.2  c2.1,0,3.9,0.5,5.5,1.4s2.9,2.2,3.8,3.8s1.4,3.5,1.4,5.7s-0.5,4.1-1.4,5.7s-2.2,2.9-3.8,3.8C380.7,392.7,378.9,393.1,376.8,393.1  L376.8,393.1z M376.4,389.8c1.4,0,2.6-0.3,3.7-0.9s1.9-1.5,2.6-2.6c0.6-1.1,0.9-2.5,0.9-4s-0.3-2.8-0.9-4c-0.6-1.1-1.5-2-2.6-2.6  s-2.3-0.9-3.7-0.9c-1.3,0-2.6,0.3-3.6,0.9c-1.1,0.6-1.9,1.5-2.6,2.6c-0.6,1.1-0.9,2.4-0.9,4c0,1.5,0.3,2.8,0.9,4  c0.6,1.1,1.5,2,2.6,2.6S375.1,389.8,376.4,389.8z"
   id="path59" />
<path
   class="st0"
   d="M419.5,371.4c1.7,0,3.2,0.3,4.5,1s2.3,1.7,3.1,3.1c0.7,1.4,1.1,3.1,1.1,5.2V393h-3.9v-11.8  c0-2.1-0.5-3.6-1.4-4.7c-1-1-2.3-1.6-4.1-1.6c-1.3,0-2.4,0.3-3.4,0.8s-1.7,1.3-2.2,2.4c-0.5,1-0.8,2.3-0.8,3.9v11h-3.9v-11.8  c0-2.1-0.5-3.6-1.4-4.7c-1-1-2.3-1.6-4.1-1.6c-1.3,0-2.4,0.3-3.3,0.8c-1,0.5-1.7,1.3-2.3,2.4c-0.5,1-0.8,2.3-0.8,3.9v11h-3.9v-21.3  h3.7v5.7l-0.6-1.4c0.7-1.4,1.7-2.5,3.1-3.3s3-1.2,4.9-1.2c2,0,3.8,0.5,5.3,1.5s2.4,2.5,2.9,4.6l-1.6-0.6c0.6-1.6,1.8-2.9,3.4-3.9  C415.5,371.9,417.4,371.4,419.5,371.4L419.5,371.4z"
   id="path60" />
<path
   class="st0"
   d="M437.3,367.5c-0.8,0-1.4-0.2-1.9-0.7s-0.7-1.1-0.7-1.8s0.2-1.3,0.7-1.8s1.1-0.7,1.9-0.7s1.4,0.2,1.9,0.7  s0.7,1.1,0.7,1.7c0,0.7-0.2,1.3-0.7,1.8S438.1,367.5,437.3,367.5z M435.4,392.9v-21.3h3.9v21.3H435.4z"
   id="path61" />
<path
   class="st0"
   d="M443.5,374.8v-3.2h13.6v3.2H443.5z M453.9,393.1c-2.1,0-3.8-0.6-5-1.7c-1.2-1.2-1.8-2.8-1.8-4.9V367h3.9v19.4  c0,1.2,0.3,2,0.9,2.7c0.6,0.6,1.4,0.9,2.5,0.9c1.2,0,2.2-0.3,3-1l1.2,2.8c-0.6,0.5-1.3,0.9-2.1,1.1S454.8,393.1,453.9,393.1z"
   id="path62" />
<path
   class="st0"
   d="M478.6,389.4H495v3.5h-20.4v-28.1h19.9v3.5h-15.8v21.1H478.6z M478.3,376.9h14.5v3.4h-14.5V376.9z"
   id="path63" />
<path
   class="st0"
   d="M497.4,392.9l9.2-11.9v2l-8.7-11.4h4.3l6.7,8.8h-1.6l6.7-8.8h4.2l-8.8,11.5V381l9.2,11.9h-4.4l-7-9.3l1.6,0.2  l-6.9,9.1L497.4,392.9L497.4,392.9z"
   id="path64" />
<path
   class="st0"
   d="M519.6,374.8v-3.2h13.6v3.2H519.6z M530,393.1c-2.1,0-3.8-0.6-5-1.7c-1.2-1.2-1.8-2.8-1.8-4.9V367h3.9v19.4  c0,1.2,0.3,2,0.9,2.7c0.6,0.6,1.4,0.9,2.5,0.9c1.2,0,2.2-0.3,3-1l1.2,2.8c-0.6,0.5-1.3,0.9-2.1,1.1S530.9,393.1,530,393.1L530,393.1  z"
   id="path65" />
<path
   class="st0"
   d="M539.3,392.9v-21.3h3.7v5.8l-0.4-1.4c0.6-1.5,1.6-2.6,3-3.4s3.1-1.2,5.1-1.2v3.7h-0.5h-0.4  c-2.1,0-3.7,0.6-4.9,1.8s-1.8,3-1.8,5.3v10.6h-3.8L539.3,392.9z"
   id="path66" />
<path
   class="st0"
   d="M557.5,367.5c-0.8,0-1.4-0.2-1.9-0.7s-0.7-1.1-0.7-1.8s0.2-1.3,0.7-1.8s1.1-0.7,1.9-0.7s1.4,0.2,1.9,0.7  s0.7,1.1,0.7,1.7c0,0.7-0.2,1.3-0.7,1.8S558.2,367.5,557.5,367.5z M555.5,392.9v-21.3h3.9v21.3H555.5z"
   id="path67" />
<path
   class="st0"
   d="M578.1,371.4c1.7,0,3.3,0.3,4.6,1s2.4,1.7,3.1,3.1c0.8,1.4,1.1,3.1,1.1,5.2V393H583v-11.8  c0-2.1-0.5-3.6-1.5-4.7c-1-1-2.4-1.6-4.2-1.6c-1.4,0-2.6,0.3-3.6,0.8s-1.8,1.3-2.4,2.4c-0.5,1-0.8,2.3-0.8,3.9v11h-3.9v-21.3h3.7  v5.7l-0.6-1.5c0.7-1.4,1.8-2.5,3.2-3.3S576.2,371.4,578.1,371.4L578.1,371.4z"
   id="path68" />
<path
   class="st0"
   d="M600.2,393.1c-1.8,0-3.5-0.2-5-0.7c-1.6-0.5-2.8-1.1-3.8-1.8l1.6-3.1c0.9,0.6,2,1.1,3.4,1.6  c1.3,0.4,2.7,0.6,4.1,0.6c1.8,0,3.1-0.3,3.9-0.8s1.2-1.2,1.2-2.1c0-0.7-0.2-1.2-0.7-1.6s-1.1-0.7-1.9-0.8c-0.8-0.2-1.7-0.4-2.6-0.5  c-1-0.1-1.9-0.3-2.9-0.6c-1-0.2-1.8-0.5-2.7-1c-0.8-0.4-1.4-1-1.9-1.7s-0.7-1.7-0.7-3s0.4-2.4,1.1-3.4s1.7-1.7,3.1-2.2  c1.3-0.5,2.9-0.8,4.7-0.8c1.4,0,2.8,0.2,4.2,0.5s2.6,0.8,3.5,1.4l-1.6,3.1c-1-0.6-2-1.1-3-1.3s-2.1-0.4-3.1-0.4  c-1.7,0-2.9,0.3-3.8,0.8c-0.8,0.5-1.2,1.3-1.2,2.1c0,0.7,0.2,1.3,0.7,1.7s1.1,0.7,1.9,0.9s1.7,0.4,2.6,0.5c1,0.1,1.9,0.3,2.9,0.6  c1,0.2,1.8,0.5,2.6,0.9s1.4,1,1.9,1.7s0.7,1.7,0.7,2.9c0,1.3-0.4,2.4-1.1,3.3s-1.8,1.7-3.2,2.2C603.8,392.9,602.1,393.1,600.2,393.1  L600.2,393.1z"
   id="path69" />
<path
   class="st0"
   d="M616.2,367.5c-0.8,0-1.4-0.2-1.9-0.7s-0.7-1.1-0.7-1.8s0.2-1.3,0.7-1.8s1.1-0.7,1.9-0.7s1.4,0.2,1.9,0.7  s0.7,1.1,0.7,1.7c0,0.7-0.2,1.3-0.7,1.8S617,367.5,616.2,367.5z M614.3,392.9v-21.3h3.9v21.3H614.3z"
   id="path70" />
<path
   class="st0"
   d="M634.8,393.1c-2.2,0-4.1-0.5-5.8-1.4s-3-2.2-4-3.9s-1.4-3.5-1.4-5.6s0.5-4,1.4-5.6c1-1.6,2.3-2.9,4-3.8  s3.6-1.4,5.8-1.4c1.9,0,3.7,0.4,5.2,1.1c1.5,0.8,2.7,1.9,3.5,3.4l-2.9,1.9c-0.7-1-1.5-1.8-2.6-2.3c-1-0.5-2.1-0.7-3.2-0.7  c-1.4,0-2.6,0.3-3.7,0.9s-2,1.5-2.6,2.6s-1,2.4-1,4c0,1.5,0.3,2.9,1,4s1.5,2,2.6,2.6s2.3,0.9,3.7,0.9c1.2,0,2.2-0.2,3.2-0.7  s1.9-1.3,2.6-2.3l2.9,1.8c-0.8,1.5-2,2.6-3.5,3.4C638.4,392.7,636.7,393.1,634.8,393.1z"
   id="path71" />
<path
   class="st6"
   d="M463.4,800.3c-1.6,0-3.2-0.3-4.6-0.8s-2.6-1.1-3.7-1.8l1.3-1.9c1,0.7,2,1.2,3.2,1.7c1.2,0.4,2.5,0.6,4.1,0.6  c1.4,0,2.5-0.3,3.2-0.8s1.1-1.1,1.1-1.8c0-0.4-0.1-0.8-0.4-1.2s-0.7-0.7-1.5-1s-1.9-0.6-3.4-0.9c-2.2-0.5-3.8-1.1-4.9-1.8  c-1.1-0.8-1.7-1.8-1.7-3c0-1.4,0.6-2.5,1.8-3.4s2.9-1.4,5.2-1.4c1.3,0,2.5,0.2,3.7,0.6s2.2,0.9,3,1.5l-1.4,1.8  c-0.8-0.5-1.6-1-2.6-1.3c-0.9-0.3-2-0.5-3-0.5c-1.4,0-2.4,0.2-3,0.7s-0.9,1-0.9,1.7s0.4,1.3,1.2,1.7s2,0.8,3.7,1.1  c1.9,0.4,3.3,0.8,4.3,1.3s1.7,1,2.1,1.7c0.4,0.6,0.6,1.4,0.6,2.2c0,0.9-0.3,1.7-0.9,2.5s-1.4,1.4-2.5,1.8S465,800.3,463.4,800.3  L463.4,800.3z"
   id="path72" />
<path
   class="st6"
   d="M484.7,800.3c-1.7,0-3.2-0.3-4.6-1s-2.5-1.7-3.3-3s-1.2-2.9-1.2-4.8c0-1.8,0.4-3.4,1.2-4.7s1.9-2.3,3.2-3  s2.7-1.1,4.2-1.1c2.4,0,4.3,0.7,5.6,2.2s2,3.3,2,5.7v0.9c0,0.3-0.1,0.6-0.1,0.8h-13.2c0.2,1.9,0.9,3.3,2.1,4.3s2.7,1.4,4.4,1.4  c1,0,1.9-0.1,2.7-0.4s1.6-0.7,2.4-1.2l1,1.9c-0.8,0.6-1.8,1-2.8,1.4S486.1,800.3,484.7,800.3L484.7,800.3z M484.3,784.9  c-1.4,0-2.6,0.4-3.7,1.3s-1.7,2.2-2,3.8h10.7c-0.1-1.7-0.6-3-1.5-3.9C486.9,785.4,485.7,784.9,484.3,784.9L484.3,784.9z"
   id="path73" />
<path
   class="st6"
   d="M508.1,800.3c-1.8,0-3.1-0.5-4.1-1.5s-1.4-2.5-1.4-4.5v-16.6h-6v-2.3h8.8v19.1c0,1.2,0.3,2.1,0.9,2.7  s1.4,0.8,2.4,0.8s2-0.3,3.1-0.8l0.7,2.1c-0.8,0.3-1.5,0.6-2.1,0.7C509.8,800.2,509,800.3,508.1,800.3z"
   id="path74" />
<path
   class="st6"
   d="M523,799.8v-14.4h-4.8v-2.1l4.8-0.2v-1.4c0-2,0.6-3.7,1.7-4.9s2.8-1.9,5.1-1.9c1.7,0,3.3,0.3,4.8,1L534,778  c-0.7-0.3-1.3-0.5-1.9-0.6s-1.2-0.2-2-0.2c-1.5,0-2.6,0.4-3.2,1.2s-1,1.8-1,3.2v1.5h7v2.3h-7v14.4L523,799.8L523,799.8z"
   id="path75" />
<path
   class="st6"
   d="M545.7,800.3c-0.8,0-1.4-0.3-2-0.8c-0.5-0.5-0.8-1.2-0.8-2.1s0.3-1.6,0.8-2.1s1.2-0.8,2-0.8s1.4,0.3,2,0.8  c0.5,0.5,0.8,1.2,0.8,2.1c0,0.8-0.3,1.5-0.8,2.1C547.2,800,546.5,800.3,545.7,800.3z"
   id="path76" />
<path
   class="st6"
   d="M567.4,800.3c-1.7,0-3.2-0.3-4.6-1s-2.5-1.7-3.3-3s-1.2-2.9-1.2-4.8c0-1.8,0.4-3.4,1.2-4.7s1.9-2.3,3.2-3  s2.7-1.1,4.2-1.1c2.4,0,4.3,0.7,5.6,2.2s2,3.3,2,5.7v0.9c0,0.3-0.1,0.6-0.1,0.8h-13.2c0.2,1.9,0.9,3.3,2.1,4.3s2.7,1.4,4.4,1.4  c1,0,1.9-0.1,2.7-0.4s1.6-0.7,2.4-1.2l1,1.9c-0.8,0.6-1.8,1-2.8,1.4S568.8,800.3,567.4,800.3L567.4,800.3z M567,784.9  c-1.4,0-2.6,0.4-3.7,1.3s-1.7,2.2-2,3.8H572c-0.1-1.7-0.6-3-1.5-3.9C569.6,785.4,568.4,784.9,567,784.9L567,784.9z"
   id="path77" />
<path
   class="st6"
   d="M579.9,799.8v-16.7h2.3l0.2,2.9h0.1c0.9-0.9,1.8-1.7,2.8-2.3s2.2-0.9,3.5-0.9c2,0,3.4,0.6,4.4,1.7  c0.9,1.1,1.4,2.8,1.4,5v10.4h-2.8v-10c0-1.6-0.3-2.8-0.9-3.5s-1.6-1.2-3-1.2c-1,0-1.9,0.3-2.7,0.8s-1.7,1.3-2.7,2.3V800h-2.6V799.8z  "
   id="path78" />
<path
   class="st6"
   d="M606.2,799.8l-7.1-16.7h2.9l3.9,9.5c0.3,0.9,0.7,1.7,1,2.5s0.6,1.6,0.9,2.4h0.1c0.3-0.8,0.6-1.6,0.9-2.4  s0.6-1.6,0.9-2.5l3.9-9.5h2.7l-6.9,16.7H606.2L606.2,799.8z"
   id="path79" />
<path
   class="st6"
   d="M633,805.9c-2.4-1.9-4.3-4.1-5.7-6.7s-2.1-5.6-2.1-8.9s0.7-6.3,2.1-8.9s3.3-4.9,5.7-6.7l1.6,1.4  c-2.3,2-4,4.1-5.1,6.4s-1.7,4.9-1.7,7.8s0.6,5.5,1.7,7.8s2.8,4.4,5.1,6.4L633,805.9z"
   id="path80" />
<path
   class="st6"
   d="M644.5,805.9l-1.6-1.4c2.3-2,4-4.1,5.1-6.4s1.6-4.9,1.6-7.8s-0.5-5.5-1.6-7.8s-2.8-4.4-5.1-6.4l1.6-1.4  c2.4,1.9,4.3,4.1,5.7,6.7s2.1,5.6,2.1,8.9s-0.7,6.3-2.1,8.9S646.9,804.1,644.5,805.9z"
   id="path81" />
<path
   class="st6"
   d="M669.8,800.3c-0.8,0-1.4-0.3-2-0.8c-0.5-0.5-0.8-1.2-0.8-2.1s0.3-1.6,0.8-2.1s1.2-0.8,2-0.8s1.4,0.3,2,0.8  c0.5,0.5,0.8,1.2,0.8,2.1c0,0.8-0.3,1.5-0.8,2.1C671.2,800,670.5,800.3,669.8,800.3z"
   id="path82" />
<path
   class="st6"
   d="M691.5,800.3c-1.7,0-3.2-0.3-4.6-1s-2.5-1.7-3.3-3s-1.2-2.9-1.2-4.8c0-1.8,0.4-3.4,1.2-4.7s1.9-2.3,3.2-3  s2.7-1.1,4.2-1.1c2.4,0,4.3,0.7,5.6,2.2s2,3.3,2,5.7v0.9c0,0.3-0.1,0.6-0.1,0.8h-13.2c0.2,1.9,0.9,3.3,2.1,4.3s2.7,1.4,4.4,1.4  c1,0,1.9-0.1,2.7-0.4s1.6-0.7,2.4-1.2l1,1.9c-0.8,0.6-1.8,1-2.8,1.4C694,800.1,692.8,800.3,691.5,800.3L691.5,800.3z M691.1,784.9  c-1.4,0-2.6,0.4-3.7,1.3s-1.7,2.2-2,3.8H696c-0.1-1.7-0.6-3-1.5-3.9C693.6,785.4,692.5,784.9,691.1,784.9L691.1,784.9z"
   id="path83" />
<path
   class="st6"
   d="M702.8,799.8v-16.7h2.3l0.2,2.2h0.1c0.4-0.8,0.9-1.4,1.5-1.9s1.3-0.7,2.3-0.7c1.6,0,2.7,1,3.2,2.9  c0.5-0.9,1-1.6,1.6-2.1s1.4-0.8,2.3-0.8c1.2,0,2.1,0.4,2.7,1.3c0.7,0.9,1,2.2,1,3.8v12h-2.8V788c0-2-0.6-2.9-1.8-2.9  c-0.6,0-1.1,0.2-1.4,0.6c-0.4,0.4-0.8,1.1-1.3,1.9v12.1h-2.6v-11.8c0-1-0.1-1.7-0.4-2.2s-0.7-0.7-1.3-0.7s-1.1,0.2-1.5,0.6  s-0.8,1.1-1.3,1.9v12.1h-2.8V799.8z"
   id="path84" />
<path
   class="st6"
   d="M732.3,799.8v-14.4h-7.8v-2.3h10.6v16.7H732.3z M733.4,779.6c-0.6,0-1.2-0.2-1.6-0.6s-0.7-0.9-0.7-1.6  s0.2-1.2,0.7-1.6c0.4-0.4,1-0.6,1.6-0.6s1.2,0.2,1.6,0.6s0.7,0.9,0.7,1.6s-0.2,1.2-0.7,1.6C734.6,779.4,734.1,779.6,733.4,779.6z"
   id="path85" />
<path
   class="st6"
   d="M755.7,800.3c-1.6,0-2.9-0.3-3.9-0.9c-0.9-0.6-1.6-1.4-2-2.4s-0.6-2.2-0.6-3.6v-7.9h-4.7v-2.1l4.8-0.2l0.4-5.4  h2.3v5.4h8.2v2.3H752v8c0,1.5,0.3,2.6,0.9,3.4s1.7,1.2,3.3,1.2c0.8,0,1.5-0.1,2.2-0.2c0.6-0.1,1.3-0.3,1.9-0.6l0.6,2.1  c-0.8,0.3-1.6,0.5-2.4,0.7C757.7,800.2,756.7,800.3,755.7,800.3z"
   id="path86" />
<path
   class="st6"
   d="M764.9,804.7v-2.4h16.5v2.4H764.9z"
   id="path87" />
<path
   class="st6"
   d="M794.8,800.3c-1.7,0-3.2-0.3-4.6-1s-2.5-1.7-3.3-3s-1.2-2.9-1.2-4.8c0-1.8,0.4-3.4,1.2-4.7s1.9-2.3,3.2-3  s2.7-1.1,4.2-1.1c2.4,0,4.3,0.7,5.6,2.2s2,3.3,2,5.7v0.9c0,0.3-0.1,0.6-0.1,0.8h-13.2c0.2,1.9,0.9,3.3,2.1,4.3s2.7,1.4,4.4,1.4  c1,0,1.9-0.1,2.7-0.4s1.6-0.7,2.4-1.2l1,1.9c-0.8,0.6-1.8,1-2.8,1.4S796.2,800.3,794.8,800.3L794.8,800.3z M794.4,784.9  c-1.4,0-2.6,0.4-3.7,1.3s-1.7,2.2-2,3.8h10.7c-0.1-1.7-0.6-3-1.5-3.9C797,785.4,795.8,784.9,794.4,784.9L794.4,784.9z"
   id="path88" />
<path
   class="st6"
   d="M813,799.8l-7.1-16.7h2.9l3.9,9.5c0.3,0.9,0.7,1.7,1,2.5s0.6,1.6,0.9,2.4h0.1c0.3-0.8,0.6-1.6,0.9-2.4  s0.6-1.6,0.9-2.5l3.9-9.5h2.7l-6.9,16.7H813L813,799.8z"
   id="path89" />
<path
   class="st6"
   d="M836.2,800.3c-1.7,0-3.2-0.3-4.6-1s-2.5-1.7-3.3-3s-1.2-2.9-1.2-4.8c0-1.8,0.4-3.4,1.2-4.7s1.9-2.3,3.2-3  s2.7-1.1,4.2-1.1c2.4,0,4.3,0.7,5.6,2.2s2,3.3,2,5.7v0.9c0,0.3-0.1,0.6-0.1,0.8H830c0.2,1.9,0.9,3.3,2.1,4.3s2.7,1.4,4.4,1.4  c1,0,1.9-0.1,2.7-0.4s1.6-0.7,2.4-1.2l1,1.9c-0.8,0.6-1.8,1-2.8,1.4C838.7,800.1,837.5,800.3,836.2,800.3L836.2,800.3z M835.8,784.9  c-1.4,0-2.6,0.4-3.7,1.3s-1.7,2.2-2,3.8h10.7c-0.1-1.7-0.6-3-1.5-3.9C838.4,785.4,837.2,784.9,835.8,784.9L835.8,784.9z"
   id="path90" />
<path
   class="st6"
   d="M848.7,799.8v-16.7h2.3l0.2,2.9h0.1c0.9-0.9,1.8-1.7,2.8-2.3s2.2-0.9,3.5-0.9c2,0,3.4,0.6,4.4,1.7  c0.9,1.1,1.4,2.8,1.4,5v10.4h-2.8v-10c0-1.6-0.3-2.8-0.9-3.5s-1.6-1.2-3-1.2c-1,0-1.9,0.3-2.7,0.8s-1.7,1.3-2.7,2.3V800h-2.6V799.8z  "
   id="path91" />
<path
   class="st6"
   d="M879.7,800.3c-1.6,0-2.9-0.3-3.9-0.9c-0.9-0.6-1.6-1.4-2-2.4s-0.6-2.2-0.6-3.6v-7.9h-4.7v-2.1l4.8-0.2l0.4-5.4  h2.3v5.4h8.2v2.3H876v8c0,1.5,0.3,2.6,0.9,3.4s1.7,1.2,3.3,1.2c0.8,0,1.5-0.1,2.2-0.2c0.6-0.1,1.3-0.3,1.9-0.6l0.6,2.1  c-0.8,0.3-1.6,0.5-2.4,0.7C881.7,800.2,880.8,800.3,879.7,800.3z"
   id="path92" />
<path
   class="st6"
   d="M901.8,805.9c-2.4-1.9-4.3-4.1-5.7-6.7s-2.1-5.6-2.1-8.9s0.7-6.3,2.1-8.9s3.3-4.9,5.7-6.7l1.6,1.4  c-2.3,2-4,4.1-5.1,6.4s-1.7,4.9-1.7,7.8s0.6,5.5,1.7,7.8s2.8,4.4,5.1,6.4L901.8,805.9z"
   id="path93" />
<path
   class="st6"
   d="M502.9,841.2V821h-7.4v-2.4h17.8v2.4h-7.4v20.2H502.9z"
   id="path94" />
<path
   class="st6"
   d="M519.7,841.2v-16.7h2.3l0.2,4h0.1c0.9-1.4,2-2.4,3.2-3.2c1.3-0.8,2.7-1.2,4.2-1.2c0.6,0,1.2,0.1,1.7,0.2  s1.1,0.3,1.6,0.5l-0.7,2.4c-0.6-0.2-1.1-0.4-1.5-0.4c-0.4-0.1-1-0.1-1.6-0.1c-1.3,0-2.5,0.4-3.6,1.1s-2.2,2-3.3,3.7v9.8L519.7,841.2  L519.7,841.2z"
   id="path95" />
<path
   class="st6"
   d="M543.9,841.6c-1,0-2-0.2-2.8-0.6s-1.6-0.9-2.1-1.6s-0.8-1.6-0.8-2.5c0-1.3,0.4-2.3,1.2-3.2  c0.8-0.8,2.1-1.5,3.9-2s4.1-0.9,7-1.1c0-0.8-0.2-1.5-0.5-2.1s-0.8-1.1-1.4-1.5s-1.5-0.6-2.6-0.6s-2.1,0.2-3.2,0.6  c-1,0.4-1.9,0.9-2.7,1.4l-1.1-1.9c0.8-0.6,1.9-1.1,3.3-1.6s2.7-0.8,4.2-0.8c2.3,0,4,0.6,5.1,1.9s1.7,2.9,1.7,5v10.3h-2.3l-0.2-2.3  h-0.1c-0.9,0.7-2,1.3-3.1,1.9C546.2,841.3,545,841.6,543.9,841.6L543.9,841.6z M544.6,839.3c0.9,0,1.9-0.2,2.8-0.7  c1-0.4,1.9-1,2.8-1.8v-4.4c-2.4,0.2-4.3,0.5-5.6,0.8c-1.4,0.4-2.3,0.9-2.9,1.4c-0.6,0.6-0.8,1.2-0.8,1.9c0,0.9,0.4,1.6,1.1,2.1  C542.8,839.1,543.6,839.3,544.6,839.3L544.6,839.3z"
   id="path96" />
<path
   class="st6"
   d="M559.3,841.2v-16.7h2.3l0.2,2.9h0.1c0.9-0.9,1.8-1.7,2.8-2.3s2.2-0.9,3.5-0.9c2,0,3.4,0.6,4.4,1.7  c0.9,1.1,1.4,2.8,1.4,5v10.4h-2.8v-10c0-1.6-0.3-2.8-0.9-3.5s-1.6-1.2-3-1.2c-1,0-1.9,0.3-2.7,0.8s-1.7,1.3-2.7,2.3v11.7h-2.6V841.2  z"
   id="path97" />
<path
   class="st6"
   d="M587.4,841.6c-1.6,0-3.2-0.3-4.6-0.8s-2.6-1.1-3.7-1.8l1.3-1.9c1,0.7,2,1.2,3.2,1.7c1.2,0.4,2.5,0.6,4.1,0.6  c1.4,0,2.5-0.3,3.2-0.8s1.1-1.1,1.1-1.8c0-0.4-0.1-0.8-0.4-1.2s-0.7-0.7-1.5-1s-1.9-0.6-3.4-0.9c-2.2-0.5-3.8-1.1-4.9-1.8  c-1.1-0.8-1.7-1.8-1.7-3c0-1.4,0.6-2.5,1.8-3.4s2.9-1.4,5.2-1.4c1.3,0,2.5,0.2,3.7,0.6s2.2,0.9,3,1.5l-1.4,1.8  c-0.8-0.5-1.6-1-2.6-1.3c-0.9-0.3-2-0.5-3-0.5c-1.4,0-2.4,0.2-3,0.7s-0.9,1-0.9,1.7s0.4,1.3,1.2,1.7s2,0.8,3.7,1.1  c1.9,0.4,3.3,0.8,4.3,1.3s1.7,1,2.1,1.7c0.4,0.6,0.6,1.4,0.6,2.2c0,0.9-0.3,1.7-0.9,2.5s-1.4,1.4-2.5,1.8  C590.4,841.4,589,841.6,587.4,841.6L587.4,841.6z"
   id="path98" />
<path
   class="st6"
   d="M605.7,841.2v-14.4h-4.8v-2.1l4.8-0.2V823c0-2,0.6-3.7,1.7-4.9s2.8-1.9,5.1-1.9c1.7,0,3.3,0.3,4.8,1l-0.7,2.1  c-0.7-0.3-1.3-0.5-1.9-0.6s-1.2-0.2-2-0.2c-1.5,0-2.6,0.4-3.2,1.2s-1,1.8-1,3.2v1.5h7v2.3h-7v14.4h-2.8L605.7,841.2z"
   id="path99" />
<path
   class="st6"
   d="M629.4,841.6c-1.7,0-3.2-0.3-4.6-1s-2.5-1.7-3.3-3s-1.2-2.9-1.2-4.8c0-1.8,0.4-3.4,1.2-4.7s1.9-2.3,3.2-3  s2.7-1.1,4.2-1.1c2.4,0,4.3,0.7,5.6,2.2s2,3.3,2,5.7v0.9c0,0.3-0.1,0.6-0.1,0.8h-13.2c0.2,1.9,0.9,3.3,2.1,4.3s2.7,1.4,4.4,1.4  c1,0,1.9-0.1,2.7-0.4s1.6-0.7,2.4-1.2l1,1.9c-0.8,0.6-1.8,1-2.8,1.4S630.8,841.6,629.4,841.6L629.4,841.6z M629,826.3  c-1.4,0-2.6,0.4-3.7,1.3s-1.7,2.2-2,3.8H634c-0.1-1.7-0.6-3-1.5-3.9C631.6,826.7,630.5,826.3,629,826.3L629,826.3z"
   id="path100" />
<path
   class="st6"
   d="M643.8,841.2v-16.7h2.3l0.2,4h0.1c0.9-1.4,2-2.4,3.2-3.2c1.3-0.8,2.7-1.2,4.2-1.2c0.6,0,1.2,0.1,1.7,0.2  s1.1,0.3,1.6,0.5l-0.7,2.4c-0.6-0.2-1.1-0.4-1.5-0.4c-0.4-0.1-1-0.1-1.6-0.1c-1.3,0-2.5,0.4-3.6,1.1s-2.2,2-3.3,3.7v9.8L643.8,841.2  L643.8,841.2z"
   id="path101" />
<path
   class="st6"
   d="M695.3,846.4c-2.2,0-3.8-0.3-4.8-1s-1.6-1.8-1.6-3.6c0-1.3,0.1-2.4,0.2-3.4s0.2-2.1,0.2-3.2  c0-0.5-0.1-0.9-0.4-1.3s-0.8-0.7-1.5-1s-1.8-0.4-3.1-0.4v-1.8c1.4,0,2.4-0.2,3.1-0.4c0.7-0.3,1.2-0.6,1.5-1s0.4-0.8,0.4-1.3  c0-1.1-0.1-2.2-0.2-3.2c-0.1-1.1-0.2-2.2-0.2-3.4c0-1.8,0.5-3,1.6-3.6c1-0.6,2.6-1,4.8-1h2.1v1.6h-1.8c-1.2,0-2.1,0.1-2.7,0.3  s-1,0.5-1.3,1c-0.2,0.5-0.3,1.1-0.3,1.8c0,1,0,2,0.1,3s0.1,2.1,0.1,3.2s-0.2,2-0.7,2.6c-0.4,0.6-1.3,1-2.5,1.2v0.1  c1.2,0.2,2,0.6,2.5,1.2c0.4,0.6,0.7,1.4,0.7,2.6s0,2.2-0.1,3.2s-0.1,2-0.1,3c0,0.7,0.1,1.3,0.3,1.8s0.6,0.8,1.3,1  c0.6,0.2,1.5,0.3,2.7,0.3h1.8v1.6h-2.1V846.4z"
   id="path102" />
<path
   class="st6"
   d="M730.3,841.2l-7.1-16.7h2.9l3.9,9.5c0.3,0.9,0.7,1.7,1,2.5s0.6,1.6,0.9,2.4h0.1c0.3-0.8,0.6-1.6,0.9-2.4  s0.6-1.6,0.9-2.5l3.9-9.5h2.7l-6.9,16.7H730.3L730.3,841.2z"
   id="path103" />
<path
   class="st6"
   d="M750.6,841.6c-1,0-2-0.2-2.8-0.6s-1.6-0.9-2.1-1.6s-0.8-1.6-0.8-2.5c0-1.3,0.4-2.3,1.2-3.2  c0.8-0.8,2.1-1.5,3.9-2s4.1-0.9,7-1.1c0-0.8-0.2-1.5-0.5-2.1s-0.8-1.1-1.4-1.5s-1.5-0.6-2.6-0.6s-2.1,0.2-3.2,0.6  c-1,0.4-1.9,0.9-2.7,1.4l-1.1-1.9c0.8-0.6,1.9-1.1,3.3-1.6s2.7-0.8,4.2-0.8c2.3,0,4,0.6,5.1,1.9s1.7,2.9,1.7,5v10.3h-2.3l-0.2-2.3  h-0.1c-0.9,0.7-2,1.3-3.1,1.9C753,841.3,751.8,841.6,750.6,841.6L750.6,841.6z M751.4,839.3c0.9,0,1.9-0.2,2.8-0.7  c1-0.4,1.9-1,2.8-1.8v-4.4c-2.4,0.2-4.3,0.5-5.6,0.8c-1.4,0.4-2.3,0.9-2.9,1.4c-0.6,0.6-0.8,1.2-0.8,1.9c0,0.9,0.4,1.6,1.1,2.1  S750.4,839.3,751.4,839.3L751.4,839.3z"
   id="path104" />
<path
   class="st6"
   d="M776.8,841.6c-1.8,0-3.1-0.5-4.1-1.5s-1.4-2.5-1.4-4.5V819h-6v-2.3h8.8v19.1c0,1.2,0.3,2.1,0.9,2.7  s1.4,0.8,2.4,0.8s2-0.3,3.1-0.8l0.7,2.1c-0.8,0.3-1.5,0.6-2.1,0.7C778.5,841.5,777.7,841.6,776.8,841.6L776.8,841.6z"
   id="path105" />
<path
   class="st6"
   d="M791.9,841.6c-2,0-3.5-0.6-4.4-1.7s-1.4-2.8-1.4-5v-10.4h2.9v10c0,1.6,0.3,2.8,0.9,3.5c0.6,0.8,1.6,1.2,3,1.2  c1,0,1.8-0.2,2.6-0.7s1.6-1.3,2.6-2.4v-11.6h2.8v16.7h-2.3l-0.2-2.9h-0.1c-0.9,1-1.8,1.8-2.8,2.4S793.2,841.6,791.9,841.6z"
   id="path106" />
<path
   class="st6"
   d="M815.5,841.6c-1.7,0-3.2-0.3-4.6-1s-2.5-1.7-3.3-3s-1.2-2.9-1.2-4.8c0-1.8,0.4-3.4,1.2-4.7s1.9-2.3,3.2-3  s2.7-1.1,4.2-1.1c2.4,0,4.3,0.7,5.6,2.2s2,3.3,2,5.7v0.9c0,0.3-0.1,0.6-0.1,0.8h-13.2c0.2,1.9,0.9,3.3,2.1,4.3s2.7,1.4,4.4,1.4  c1,0,1.9-0.1,2.7-0.4s1.6-0.7,2.4-1.2l1,1.9c-0.8,0.6-1.8,1-2.8,1.4S816.9,841.6,815.5,841.6L815.5,841.6z M815.1,826.3  c-1.4,0-2.6,0.4-3.7,1.3s-1.7,2.2-2,3.8h10.7c-0.1-1.7-0.6-3-1.5-3.9C817.7,826.7,816.5,826.3,815.1,826.3L815.1,826.3z"
   id="path107" />
<path
   class="st6"
   d="M832.4,848.5l-0.8-1.8c1.4-0.6,2.5-1.4,3.2-2.3s1.1-2.1,1.1-3.4c-0.1,0-0.2,0-0.3,0.1h-0.3  c-0.7,0-1.4-0.2-1.9-0.7c-0.5-0.4-0.8-1.1-0.8-1.9s0.3-1.5,0.8-1.9c0.6-0.4,1.2-0.7,1.9-0.7c1,0,1.8,0.4,2.3,1.2s0.8,1.9,0.8,3.2  c0,2-0.5,3.7-1.6,5.1S834.3,847.8,832.4,848.5L832.4,848.5z"
   id="path108" />
<path
   class="st6"
   d="M874.5,841.2v-14.4h-4.8v-2.1l4.8-0.2V823c0-2,0.6-3.7,1.7-4.9s2.8-1.9,5.1-1.9c1.7,0,3.3,0.3,4.8,1l-0.7,2.1  c-0.7-0.3-1.3-0.5-1.9-0.6s-1.2-0.2-2-0.2c-1.5,0-2.6,0.4-3.2,1.2s-1,1.8-1,3.2v1.5h7v2.3h-7v14.4h-2.8L874.5,841.2z"
   id="path109" />
<path
   class="st6"
   d="M891.9,841.2v-16.7h2.3l0.2,4h0.1c0.9-1.4,2-2.4,3.2-3.2c1.3-0.8,2.7-1.2,4.2-1.2c0.6,0,1.2,0.1,1.7,0.2  s1.1,0.3,1.6,0.5l-0.7,2.4c-0.6-0.2-1.1-0.4-1.5-0.4c-0.4-0.1-1-0.1-1.6-0.1c-1.3,0-2.5,0.4-3.6,1.1s-2.2,2-3.3,3.7v9.8L891.9,841.2  L891.9,841.2z"
   id="path110" />
<path
   class="st6"
   d="M917.8,841.6c-1.5,0-2.8-0.3-4.1-1s-2.3-1.7-3-3s-1.2-2.9-1.2-4.7c0-1.9,0.4-3.5,1.2-4.8s1.8-2.3,3-3  s2.6-1,4.1-1s2.8,0.3,4.1,1s2.3,1.7,3,3c0.8,1.3,1.2,2.9,1.2,4.8c0,1.8-0.4,3.4-1.2,4.7s-1.8,2.3-3,3S919.3,841.6,917.8,841.6z   M917.8,839.3c1.6,0,2.9-0.6,3.9-1.8s1.5-2.7,1.5-4.6s-0.5-3.5-1.5-4.7s-2.3-1.8-3.9-1.8s-2.9,0.6-3.9,1.8s-1.5,2.8-1.5,4.7  s0.5,3.5,1.5,4.6C914.9,838.7,916.2,839.3,917.8,839.3z"
   id="path111" />
<path
   class="st6"
   d="M930.2,841.2v-16.7h2.3l0.2,2.2h0.1c0.4-0.8,0.9-1.4,1.5-1.9s1.3-0.7,2.3-0.7c1.6,0,2.7,1,3.2,2.9  c0.5-0.9,1-1.6,1.6-2.1s1.4-0.8,2.3-0.8c1.2,0,2.1,0.4,2.7,1.3c0.7,0.9,1,2.2,1,3.8v12h-2.8v-11.8c0-2-0.6-2.9-1.8-2.9  c-0.6,0-1.1,0.2-1.4,0.6c-0.4,0.4-0.8,1.1-1.3,1.9v12.1h-2.6v-11.8c0-1-0.1-1.7-0.4-2.2s-0.7-0.7-1.3-0.7s-1.1,0.2-1.5,0.6  s-0.8,1.1-1.3,1.9V841h-2.8V841.2z"
   id="path112" />
<path
   class="st6"
   d="M972.9,846.4v-1.6h1.8c1.2,0,2.1-0.1,2.7-0.3s1-0.5,1.3-1s0.3-1.1,0.3-1.8c0-1.1,0-2.1-0.1-3  c-0.1-1-0.1-2-0.1-3.2c0-1.1,0.2-2,0.7-2.6s1.3-1,2.4-1.2v-0.1c-1.2-0.2-2-0.6-2.4-1.2s-0.7-1.4-0.7-2.6c0-1.1,0-2.1,0.1-3.2  c0.1-1,0.1-2.1,0.1-3c0-0.8-0.1-1.4-0.3-1.8s-0.7-0.8-1.3-1s-1.5-0.3-2.7-0.3h-1.8v-1.6h2.1c2.2,0,3.8,0.3,4.8,1  c1,0.6,1.6,1.8,1.6,3.6c0,1.2-0.1,2.3-0.2,3.4s-0.2,2.2-0.2,3.2c0,0.4,0.1,0.9,0.4,1.3s0.8,0.7,1.5,1s1.8,0.4,3.1,0.4v1.8  c-1.4,0-2.4,0.1-3.1,0.4s-1.2,0.6-1.5,1s-0.4,0.8-0.4,1.3c0,1.1,0.1,2.2,0.2,3.2s0.2,2.1,0.2,3.4c0,1.8-0.5,3-1.6,3.6  c-1,0.6-2.6,1-4.8,1h-2.1V846.4z"
   id="path113" />
<path
   class="st6"
   d="M458.4,888.6l-1.6-1.4c2.3-2,4-4.1,5.1-6.4s1.6-4.9,1.6-7.8s-0.5-5.5-1.6-7.8s-2.8-4.4-5.1-6.4l1.6-1.4  c2.4,1.9,4.3,4.1,5.7,6.7s2.1,5.6,2.1,8.9s-0.7,6.3-2.1,8.9S460.8,886.7,458.4,888.6z"
   id="path114" />
<path
   class="st6"
   d="M480.9,889.9l-0.8-1.8c1.4-0.6,2.5-1.4,3.2-2.3s1.1-2.1,1.1-3.4c-0.1,0-0.2,0-0.3,0.1h-0.3  c-0.7,0-1.4-0.2-1.9-0.7c-0.5-0.4-0.8-1.1-0.8-1.9s0.3-1.5,0.8-1.9c0.6-0.4,1.2-0.7,1.9-0.7c1,0,1.8,0.4,2.3,1.2s0.8,1.9,0.8,3.2  c0,2-0.5,3.7-1.6,5.1S482.8,889.2,480.9,889.9L480.9,889.9z M483.7,870.6c-0.8,0-1.4-0.3-2-0.8c-0.5-0.5-0.8-1.2-0.8-2.1  s0.3-1.6,0.8-2.1s1.2-0.8,2-0.8s1.4,0.3,2,0.8s0.8,1.2,0.8,2.1c0,0.8-0.3,1.5-0.8,2.1C485.1,870.4,484.5,870.6,483.7,870.6z"
   id="path115" />
<path
   d="M590.4,580.2v-28.1h11c2.5,0,4.6,0.4,6.3,1.2s3.1,1.9,4,3.4s1.4,3.2,1.4,5.3s-0.5,3.8-1.4,5.2c-0.9,1.5-2.3,2.6-4,3.4  s-3.8,1.2-6.3,1.2h-8.8l1.8-1.8v10.4h-4V580.2z M594.4,570.2l-1.8-2h8.6c2.6,0,4.5-0.6,5.8-1.7s2-2.7,2-4.7s-0.7-3.6-2-4.7  s-3.3-1.6-5.8-1.6h-8.6l1.8-2V570.2z M609.2,580.2L602,570h4.3l7.2,10.2H609.2z"
   id="path116" />
<path
   d="M619.6,580.2v-28.1h11c2.5,0,4.6,0.4,6.3,1.2s3.1,1.9,4,3.4s1.4,3.2,1.4,5.3s-0.5,3.8-1.4,5.2c-0.9,1.5-2.3,2.6-4,3.4  s-3.8,1.2-6.3,1.2h-8.8l1.8-1.9v10.4h-4V580.2z M623.7,570.2l-1.8-2h8.6c2.6,0,4.5-0.5,5.8-1.6s2-2.7,2-4.7s-0.7-3.6-2-4.7  s-3.3-1.6-5.8-1.6h-8.6l1.8-2V570.2z"
   id="path117" />
<path
   d="M661.2,580.5c-2.1,0-4.1-0.4-5.9-1.1s-3.4-1.7-4.7-3s-2.4-2.8-3.1-4.6c-0.8-1.7-1.1-3.7-1.1-5.7c0-2.1,0.4-4,1.1-5.7  c0.8-1.7,1.8-3.3,3.1-4.6s2.9-2.3,4.7-3s3.8-1.1,5.9-1.1c2.2,0,4.2,0.4,6,1.1s3.4,1.8,4.7,3.3l-2.6,2.5c-1.1-1.1-2.3-2-3.6-2.5  s-2.8-0.8-4.3-0.8c-1.6,0-3,0.3-4.4,0.8s-2.5,1.3-3.5,2.3s-1.8,2.1-2.3,3.4s-0.8,2.8-0.8,4.3c0,1.6,0.3,3,0.8,4.3s1.3,2.5,2.3,3.4  s2.2,1.7,3.5,2.3c1.4,0.5,2.8,0.8,4.4,0.8c1.5,0,3-0.3,4.3-0.8s2.5-1.4,3.6-2.6l2.6,2.5c-1.3,1.4-2.8,2.5-4.7,3.3  S663.4,580.5,661.2,580.5L661.2,580.5z"
   id="path118" />
<path
   d="M692.6,576.7H709v3.5h-20.4v-28.1h19.9v3.5h-15.8v21.1H692.6z M692.2,564.2h14.5v3.4h-14.5V564.2z"
   id="path119" />
<path
   d="M726.3,558.7c1.7,0,3.3,0.3,4.6,1s2.4,1.7,3.1,3.1c0.8,1.4,1.1,3.1,1.1,5.2v12.3h-3.9v-11.8c0-2.1-0.5-3.6-1.5-4.7  c-1-1-2.4-1.6-4.2-1.6c-1.4,0-2.6,0.3-3.6,0.8s-1.8,1.3-2.4,2.4c-0.5,1-0.8,2.3-0.8,3.9v11h-3.9V559h3.7v5.7l-0.6-1.5  c0.7-1.4,1.8-2.5,3.2-3.3C722.7,559.1,724.4,558.7,726.3,558.7L726.3,558.7z"
   id="path120" />
<path
   d="M751.1,580.4c-2.1,0-3.9-0.5-5.5-1.4s-2.9-2.2-3.8-3.8s-1.4-3.5-1.4-5.7s0.5-4.1,1.4-5.7s2.2-2.9,3.8-3.8s3.5-1.4,5.5-1.4  c1.8,0,3.4,0.4,4.9,1.2c1.4,0.8,2.6,2,3.5,3.6s1.3,3.6,1.3,6s-0.4,4.4-1.3,6c-0.8,1.6-2,2.8-3.4,3.6  C754.6,580,752.9,580.4,751.1,580.4L751.1,580.4z M751.4,577.1c1.3,0,2.6-0.3,3.6-0.9c1.1-0.6,1.9-1.5,2.6-2.6  c0.6-1.1,0.9-2.5,0.9-4s-0.3-2.8-0.9-4c-0.6-1.1-1.5-2-2.6-2.6s-2.3-0.9-3.6-0.9c-1.4,0-2.6,0.3-3.7,0.9s-1.9,1.5-2.6,2.6  c-0.6,1.1-1,2.4-1,4c0,1.5,0.3,2.8,1,4c0.6,1.1,1.5,2,2.6,2.6S750,577.1,751.4,577.1z M758.7,580.2v-5.7l0.2-4.9l-0.4-4.9v-14.2h3.9  v29.8L758.7,580.2L758.7,580.2z"
   id="path121" />
<path
   d="M769.7,588v-29.1h3.7v5.7l-0.2,4.9l0.4,4.9V588L769.7,588L769.7,588z M781,580.4c-1.8,0-3.4-0.4-4.8-1.2  c-1.5-0.8-2.6-2-3.5-3.6s-1.3-3.6-1.3-6s0.4-4.4,1.3-6c0.8-1.6,2-2.8,3.5-3.6s3.1-1.2,4.9-1.2c2.1,0,3.9,0.5,5.5,1.4  s2.9,2.2,3.8,3.8s1.4,3.5,1.4,5.7s-0.5,4.1-1.4,5.7s-2.2,2.9-3.8,3.8C784.9,580,783.1,580.4,781,580.4L781,580.4z M780.7,577.1  c1.4,0,2.6-0.3,3.7-0.9s1.9-1.5,2.6-2.6c0.6-1.1,0.9-2.5,0.9-4s-0.3-2.8-0.9-4c-0.6-1.1-1.5-2-2.6-2.6s-2.3-0.9-3.7-0.9  c-1.3,0-2.6,0.3-3.6,0.9c-1.1,0.6-1.9,1.5-2.6,2.6c-0.6,1.1-0.9,2.4-0.9,4c0,1.5,0.3,2.8,0.9,4c0.6,1.1,1.5,2,2.6,2.6  C778.1,576.8,779.3,577.1,780.7,577.1z"
   id="path122" />
<path
   d="M806.2,580.4c-2.1,0-4-0.5-5.7-1.4s-3-2.2-3.9-3.9s-1.4-3.5-1.4-5.6s0.5-4,1.4-5.6s2.3-2.9,3.9-3.8c1.7-0.9,3.6-1.4,5.7-1.4  s4,0.5,5.7,1.4s3,2.2,3.9,3.8c1,1.6,1.4,3.5,1.4,5.6s-0.5,4-1.4,5.6c-1,1.6-2.3,2.9-3.9,3.9S808.4,580.4,806.2,580.4z M806.2,577.1  c1.4,0,2.6-0.3,3.7-0.9s1.9-1.5,2.6-2.6c0.6-1.1,0.9-2.5,0.9-4s-0.3-2.8-0.9-4c-0.6-1.1-1.5-2-2.6-2.6s-2.3-0.9-3.7-0.9  s-2.6,0.3-3.7,0.9s-1.9,1.5-2.6,2.6c-0.6,1.1-1,2.4-1,4c0,1.5,0.3,2.8,1,4c0.6,1.1,1.5,2,2.6,2.6  C803.7,576.8,804.9,577.1,806.2,577.1z"
   id="path123" />
<path
   d="M824.6,554.8c-0.8,0-1.4-0.2-1.9-0.7s-0.7-1.1-0.7-1.8s0.2-1.3,0.7-1.8s1.1-0.7,1.9-0.7s1.4,0.2,1.9,0.7s0.7,1.1,0.7,1.7  c0,0.7-0.2,1.3-0.7,1.8S825.4,554.8,824.6,554.8z M822.6,580.2v-21.3h3.9v21.3H822.6z"
   id="path124" />
<path
   d="M845.2,558.7c1.7,0,3.3,0.3,4.6,1s2.4,1.7,3.1,3.1c0.8,1.4,1.1,3.1,1.1,5.2v12.3h-3.9v-11.8c0-2.1-0.5-3.6-1.5-4.7  c-1-1-2.4-1.6-4.2-1.6c-1.4,0-2.6,0.3-3.6,0.8s-1.8,1.3-2.4,2.4c-0.5,1-0.8,2.3-0.8,3.9v11h-3.9V559h3.7v5.7l-0.6-1.5  c0.7-1.4,1.8-2.5,3.2-3.3C841.6,559.1,843.3,558.7,845.2,558.7L845.2,558.7z"
   id="path125" />
<path
   d="M858.2,562.1v-3.2h13.6v3.2H858.2z M868.6,580.4c-2.1,0-3.8-0.6-5-1.7c-1.2-1.2-1.8-2.8-1.8-4.9v-19.5h3.9v19.4  c0,1.2,0.3,2,0.9,2.7s1.4,0.9,2.5,0.9c1.2,0,2.2-0.3,3-1l1.2,2.8c-0.6,0.5-1.3,0.9-2.1,1.1C870.3,580.3,869.4,580.4,868.6,580.4  L868.6,580.4z"
   id="path126" />






























<path
   class="st7"
   d="M168.7,769.9c-4.1,4.1-11.1,2.2-12.7-3.4c-1.5-5.6,3.6-10.8,9.3-9.3S172.9,765.8,168.7,769.9z"
   id="path157" />
<path
   class="st7"
   d="M167.7,507.6c-4.2,1.6-8.3-1.3-7.4-5.2c1-3.9,6.3-5.9,9.5-3.6C173.1,501.1,171.9,506,167.7,507.6L167.7,507.6z"
   id="path158" />
<path
   class="st7"
   d="M398.9,523.9c-6.2-3.5-6.7-11.6-1-14.5c5.8-2.9,13.5,1.5,14,7.9C412.4,523.7,405.1,527.4,398.9,523.9z"
   id="path159" />
<path
   class="st8"
   d="M1379,619.7c-163.7-26.6-217.6-233.7-95.9-323.6c127.6-94.3,322.6-22.3,361.6,120.7  C1683.8,560.1,1539.9,645.9,1379,619.7L1379,619.7z"
   id="path160" />
<path
   class="st8"
   d="M1704,469.6c9.2,10.6-0.7,31.7-11.8,35c-12.1,3.6-17.5-12.8-13-24.4C1684,468.2,1696.3,460.7,1704,469.6z"
   id="path161" />
<path
   class="st8"
   d="M1620,580.1c-8.2,6.7-15.3,10.9-18.4,20c-2.4,7.1-1.2,18.2,13.1,23c21.6,7.2,48.2-8.6,55.2-29.6  c4.2-12.5,2.2-32.1-12.4-36.8C1643,551.9,1636.5,566.6,1620,580.1L1620,580.1z"
   id="path162" />
<path
   class="st8"
   d="M1653,673.4c-9.4,3.2-18.3-3.5-16-12.2c2.3-8.6,14-12.7,21.1-7.3C1665.2,659.4,1662.3,670.2,1653,673.4z"
   id="path163" />
<path
   class="st9"
   d="M1300,398.9V377h-8.1v-2.6h19.3v2.6h-8.1v21.9H1300L1300,398.9z"
   id="path164" />
<path
   class="st9"
   d="M1318,398.9v-18.1h2.5l0.3,4.3h0.1c0.9-1.5,2.1-2.6,3.5-3.5c1.4-0.8,2.9-1.3,4.6-1.3c0.7,0,1.3,0.1,1.9,0.2  s1.2,0.3,1.7,0.6l-0.7,2.7c-0.6-0.2-1.2-0.4-1.6-0.5s-1-0.1-1.8-0.1c-1.4,0-2.7,0.4-3.9,1.2c-1.3,0.8-2.4,2.1-3.5,4V399h-3.1V398.9z  "
   id="path165" />
<path
   class="st9"
   d="M1344,399.3c-1.1,0-2.1-0.2-3.1-0.6c-0.9-0.4-1.7-1-2.2-1.8c-0.6-0.8-0.8-1.7-0.8-2.8c0-1.4,0.4-2.5,1.3-3.4  s2.3-1.6,4.2-2.2c1.9-0.5,4.5-0.9,7.6-1.2c0-0.8-0.2-1.6-0.5-2.3s-0.8-1.2-1.5-1.7c-0.7-0.4-1.6-0.6-2.8-0.6s-2.3,0.2-3.4,0.7  s-2.1,1-2.9,1.5l-1.2-2.1c0.9-0.6,2.1-1.2,3.5-1.8s2.9-0.9,4.5-0.9c2.5,0,4.3,0.7,5.5,2c1.2,1.4,1.8,3.2,1.8,5.4v11.1h-2.5l-0.3-2.5  h-0.1c-1,0.8-2.1,1.5-3.4,2S1345.2,399.3,1344,399.3L1344,399.3z M1344.8,396.8c1,0,2-0.2,3.1-0.7c1-0.5,2.1-1.1,3.1-2v-4.8  c-2.6,0.2-4.6,0.5-6.1,0.9s-2.5,0.9-3.1,1.5s-0.9,1.3-0.9,2.1c0,1,0.4,1.8,1.2,2.2C1342.8,396.6,1343.7,396.8,1344.8,396.8  L1344.8,396.8z"
   id="path166" />
<path
   class="st9"
   d="M1360,398.9v-18.1h2.5l0.3,3.1h0.1c0.9-1,2-1.9,3.1-2.5c1.1-0.7,2.4-1,3.8-1c2.1,0,3.7,0.6,4.7,1.9  c1,1.2,1.5,3.1,1.5,5.5v11.3h-3.1V388c0-1.7-0.3-3-1-3.8c-0.6-0.8-1.7-1.3-3.2-1.3c-1.1,0-2,0.3-2.9,0.8c-0.8,0.5-1.8,1.4-2.9,2.5  v12.7H1360z"
   id="path167" />
<path
   class="st9"
   d="M1391,399.3c-1.8,0-3.4-0.3-5-0.8c-1.5-0.6-2.9-1.2-4-2l1.4-2c1,0.7,2.2,1.3,3.5,1.8c1.3,0.4,2.7,0.7,4.4,0.7  c1.5,0,2.7-0.3,3.5-0.8c0.8-0.6,1.1-1.2,1.1-2c0-0.5-0.1-0.9-0.4-1.3s-0.8-0.7-1.6-1.1c-0.8-0.3-2-0.7-3.7-1c-2.3-0.5-4.1-1.2-5.3-2  s-1.8-1.9-1.8-3.3c0-1.5,0.6-2.7,1.9-3.7s3.1-1.5,5.6-1.5c1.4,0,2.7,0.2,4,0.7s2.4,1,3.3,1.6l-1.5,2c-0.8-0.6-1.8-1-2.8-1.4  c-1-0.3-2.1-0.5-3.3-0.5c-1.5,0-2.6,0.3-3.2,0.8s-0.9,1.1-0.9,1.8c0,0.8,0.4,1.4,1.3,1.8c0.8,0.4,2.2,0.8,4,1.2  c2,0.4,3.6,0.9,4.6,1.4c1.1,0.5,1.8,1.1,2.2,1.8s0.6,1.5,0.6,2.4c0,1-0.3,1.9-0.9,2.7s-1.5,1.5-2.7,2S1392.8,399.3,1391,399.3  L1391,399.3z"
   id="path168" />
<path
   class="st9"
   d="M1411,398.9v-15.6h-5.2V381l5.2-0.2v-1.5c0-2.2,0.6-4,1.8-5.3s3-2,5.5-2c1.8,0,3.5,0.3,5.2,1l-0.7,2.3  c-0.7-0.3-1.4-0.6-2.1-0.7c-0.6-0.1-1.3-0.2-2.1-0.2c-1.6,0-2.8,0.4-3.5,1.3c-0.7,0.8-1.1,2-1.1,3.5v1.6h7.6v2.5h-7.6v15.6  L1411,398.9L1411,398.9z"
   id="path169" />
<path
   class="st9"
   d="M1437,399.3c-1.8,0-3.5-0.4-4.9-1.1s-2.7-1.8-3.5-3.3s-1.3-3.2-1.3-5.2s0.4-3.7,1.3-5.1s2-2.5,3.4-3.3  s2.9-1.1,4.5-1.1c2.6,0,4.6,0.8,6.1,2.3c1.5,1.6,2.2,3.6,2.2,6.2v1c0,0.3-0.1,0.6-0.1,0.9h-14.3c0.2,2,1,3.6,2.3,4.6  s2.9,1.6,4.8,1.6c1.1,0,2.1-0.2,3-0.5s1.7-0.7,2.6-1.3l1.1,2c-0.9,0.6-1.9,1.1-3.1,1.5S1438.4,399.3,1437,399.3z M1436.5,382.7  c-1.5,0-2.8,0.5-4,1.4s-1.9,2.3-2.2,4.1h11.6c-0.1-1.9-0.7-3.3-1.6-4.2C1439.3,383.2,1438.1,382.7,1436.5,382.7z"
   id="path170" />
<path
   class="st9"
   d="M1452,398.9v-18.1h2.5l0.3,4.3h0.1c0.9-1.5,2.1-2.6,3.5-3.5c1.4-0.8,2.9-1.3,4.6-1.3c0.7,0,1.3,0.1,1.9,0.2  s1.2,0.3,1.7,0.6l-0.7,2.7c-0.6-0.2-1.2-0.4-1.6-0.5s-1-0.1-1.8-0.1c-1.4,0-2.7,0.4-3.9,1.2c-1.3,0.8-2.4,2.1-3.5,4V399h-3.1V398.9z  "
   id="path171" />
<path
   class="st9"
   d="M1508,404.5c-2.3,0-4.1-0.3-5.2-1s-1.7-2-1.7-3.9c0-1.4,0.1-2.6,0.2-3.7s0.2-2.3,0.2-3.5c0-0.5-0.1-1-0.4-1.4  s-0.8-0.8-1.6-1.1s-1.9-0.4-3.4-0.4v-1.9c1.5,0,2.6-0.2,3.4-0.4c0.8-0.3,1.3-0.6,1.6-1.1c0.3-0.4,0.4-0.9,0.4-1.4  c0-1.2-0.1-2.3-0.2-3.5s-0.2-2.4-0.2-3.7c0-1.9,0.6-3.2,1.7-3.9s2.9-1,5.2-1h2.3v1.8h-1.9c-1.3,0-2.2,0.1-2.9,0.3s-1.1,0.6-1.4,1.1  c-0.2,0.5-0.4,1.2-0.4,2c0,1.1,0,2.2,0.1,3.3s0.1,2.3,0.1,3.5s-0.2,2.1-0.7,2.8c-0.5,0.6-1.4,1.1-2.7,1.3v0.1  c1.3,0.2,2.2,0.7,2.7,1.3s0.7,1.6,0.7,2.8c0,1.3,0,2.4-0.1,3.5c-0.1,1-0.1,2.1-0.1,3.3c0,0.8,0.1,1.4,0.4,2c0.2,0.5,0.7,0.9,1.4,1.1  s1.6,0.3,2.9,0.3h1.9v1.8h-2.3V404.5z"
   id="path172" />
<path
   class="st9"
   d="M1344,443.7l-7.7-18.1h3.1l4.2,10.3c0.4,0.9,0.7,1.8,1.1,2.7c0.3,0.9,0.7,1.8,1,2.6h0.1c0.3-0.9,0.6-1.7,1-2.6  c0.3-0.9,0.7-1.8,1-2.7l4.2-10.3h2.9l-7.5,18.1H1344L1344,443.7z"
   id="path173" />
<path
   class="st9"
   d="M1366,444.1c-1.1,0-2.1-0.2-3.1-0.6c-0.9-0.4-1.7-1-2.2-1.8c-0.6-0.8-0.8-1.7-0.8-2.8c0-1.4,0.4-2.5,1.3-3.4  s2.3-1.6,4.2-2.2c1.9-0.5,4.5-0.9,7.6-1.2c0-0.8-0.2-1.6-0.5-2.3s-0.8-1.2-1.5-1.7c-0.7-0.4-1.6-0.6-2.8-0.6s-2.3,0.2-3.4,0.7  s-2.1,1-2.9,1.5l-1.2-2.1c0.9-0.6,2.1-1.2,3.5-1.8s2.9-0.9,4.5-0.9c2.5,0,4.3,0.7,5.5,2c1.2,1.4,1.8,3.2,1.8,5.4v11.1h-2.5l-0.3-2.5  h-0.1c-1,0.8-2.1,1.5-3.4,2S1367.2,444.1,1366,444.1L1366,444.1z M1366.8,441.6c1,0,2-0.2,3.1-0.7c1-0.5,2.1-1.1,3.1-2v-4.8  c-2.6,0.2-4.6,0.5-6.1,0.9s-2.5,0.9-3.1,1.5s-0.9,1.3-0.9,2.1c0,1,0.4,1.8,1.2,2.2C1364.8,441.4,1365.7,441.6,1366.8,441.6  L1366.8,441.6z"
   id="path174" />
<path
   class="st9"
   d="M1395,444.1c-1.9,0-3.4-0.6-4.4-1.7s-1.5-2.7-1.5-4.9v-18h-6.5V417h9.5v20.7c0,1.3,0.3,2.3,1,2.9  s1.5,0.9,2.6,0.9s2.2-0.3,3.4-0.8l0.8,2.3c-0.8,0.3-1.6,0.6-2.3,0.8C1396.8,444,1396,444.1,1395,444.1L1395,444.1z"
   id="path175" />
<path
   class="st9"
   d="M1411,444.1c-2.2,0-3.8-0.6-4.8-1.9c-1-1.2-1.5-3.1-1.5-5.5v-11.3h3.1v10.9c0,1.7,0.3,3,1,3.8  c0.6,0.8,1.7,1.3,3.2,1.3c1,0,2-0.3,2.9-0.8s1.8-1.4,2.8-2.6v-12.6h3.1v18.1h-2.5l-0.3-3.2h-0.1c-0.9,1.1-1.9,1.9-3,2.6  C1413.7,443.8,1412.4,444.1,1411,444.1L1411,444.1z"
   id="path176" />
<path
   class="st9"
   d="M1437,444.1c-1.8,0-3.5-0.4-4.9-1.1s-2.7-1.8-3.5-3.3s-1.3-3.2-1.3-5.2s0.4-3.7,1.3-5.1s2-2.5,3.4-3.3  s2.9-1.1,4.5-1.1c2.6,0,4.6,0.8,6.1,2.3c1.5,1.6,2.2,3.6,2.2,6.2v1c0,0.3-0.1,0.6-0.1,0.9h-14.3c0.2,2,1,3.6,2.3,4.6  s2.9,1.6,4.8,1.6c1.1,0,2.1-0.2,3-0.5s1.7-0.7,2.6-1.3l1.1,2c-0.9,0.6-1.9,1.1-3.1,1.5S1438.4,444.1,1437,444.1z M1436.5,427.5  c-1.5,0-2.8,0.5-4,1.4s-1.9,2.3-2.2,4.1h11.6c-0.1-1.9-0.7-3.3-1.6-4.2C1439.3,427.9,1438.1,427.5,1436.5,427.5z"
   id="path177" />
<path
   class="st9"
   d="M1458,430.7c-0.8,0-1.6-0.3-2.1-0.9c-0.6-0.6-0.9-1.3-0.9-2.3c0-0.9,0.3-1.7,0.9-2.3s1.3-0.9,2.1-0.9  s1.6,0.3,2.1,0.9c0.6,0.6,0.9,1.4,0.9,2.3s-0.3,1.7-0.9,2.3S1458.8,430.7,1458,430.7z M1458,444.1c-0.8,0-1.6-0.3-2.1-0.9  c-0.6-0.6-0.9-1.3-0.9-2.3c0-0.9,0.3-1.7,0.9-2.3s1.3-0.9,2.1-0.9s1.6,0.3,2.1,0.9c0.6,0.6,0.9,1.4,0.9,2.3s-0.3,1.7-0.9,2.3  S1458.8,444.1,1458,444.1z"
   id="path178" />
<path
   class="st9"
   d="M1495,443.7v-2.5h6.9v-17.5h-5.3v-2c1.4-0.2,2.6-0.4,3.5-0.7c1-0.3,1.8-0.6,2.6-1h2.3v21.3h6.2v2.5L1495,443.7  L1495,443.7z"
   id="path179" />
<path
   class="st9"
   d="M1517,443.7v-1.8c2.7-2.4,5-4.5,6.8-6.3c1.9-1.8,3.3-3.4,4.2-4.9c1-1.4,1.4-2.8,1.4-4.1c0-1.4-0.4-2.5-1.3-3.4  c-0.8-0.9-2.2-1.3-3.9-1.3c-1.1,0-2.2,0.3-3.1,0.8c-1,0.6-1.8,1.2-2.6,2l-1.8-1.8c1.1-1.1,2.2-2,3.5-2.6c1.2-0.7,2.7-1,4.4-1  c2.4,0,4.3,0.6,5.7,1.9s2.1,3,2.1,5.1c0,1.5-0.5,3-1.4,4.5s-2.2,3.1-3.9,4.8s-3.6,3.5-5.7,5.5c0.7,0,1.5-0.1,2.3-0.1  s1.5-0.1,2.2-0.1h7.8v2.7L1517,443.7L1517,443.7z"
   id="path180" />
<path
   class="st9"
   d="M1547,444.1c-2,0-3.8-0.3-5.2-1s-2.5-1.5-3.4-2.3l1.6-2c0.8,0.7,1.8,1.4,2.9,2s2.4,0.9,4,0.9s3-0.4,4.1-1.2  s1.6-1.9,1.6-3.2c0-1.4-0.7-2.6-2-3.4c-1.3-0.9-3.5-1.3-6.7-1.3v-2.4c2.8,0,4.8-0.4,6-1.3s1.8-1.9,1.8-3.2c0-1.2-0.4-2.1-1.3-2.8  s-2.1-1-3.5-1c-1.1,0-2.2,0.2-3.2,0.7c-1,0.4-1.9,1-2.7,1.8l-1.6-1.9c1-0.9,2.1-1.6,3.4-2.1c1.3-0.6,2.7-0.8,4.2-0.8s2.8,0.2,4,0.7  s2.1,1.2,2.8,2.1s1,2,1,3.3c0,1.4-0.5,2.6-1.4,3.5c-1,0.9-2.2,1.6-3.6,2.1v0.1c1.1,0.2,2,0.6,2.9,1.1s1.6,1.2,2.1,2s0.8,1.8,0.8,2.9  c0,1.4-0.4,2.6-1.2,3.6s-1.8,1.8-3.1,2.4C1550,443.8,1548.6,444.1,1547,444.1L1547,444.1z"
   id="path181" />
<path
   class="st9"
   d="M1567,451.6l-0.9-1.9c1.5-0.7,2.7-1.5,3.5-2.5s1.2-2.2,1.2-3.7c-0.1,0-0.2,0-0.3,0.1h-0.4  c-0.8,0-1.5-0.2-2.1-0.7s-0.9-1.2-0.9-2.1s0.3-1.6,0.9-2.1s1.3-0.7,2.1-0.7c1.1,0,1.9,0.4,2.5,1.3s0.9,2,0.9,3.5  c0,2.2-0.6,4-1.7,5.5C1570.6,449.7,1569,450.8,1567,451.6L1567,451.6z"
   id="path182" />
<path
   class="st9"
   d="M1344,488.4v-15.6h-5.2v-2.3l5.2-0.2v-1.5c0-2.2,0.6-4,1.8-5.3s3-2,5.5-2c1.8,0,3.5,0.3,5.2,1l-0.7,2.3  c-0.7-0.3-1.4-0.6-2.1-0.7c-0.6-0.1-1.3-0.2-2.1-0.2c-1.6,0-2.8,0.4-3.5,1.3s-1.1,2-1.1,3.5v1.6h7.6v2.5h-7.6v15.6L1344,488.4  L1344,488.4z"
   id="path183" />
<path
   class="st9"
   d="M1362,488.4v-18.1h2.5l0.3,4.3h0.1c0.9-1.5,2.1-2.6,3.5-3.5c1.4-0.8,2.9-1.3,4.6-1.3c0.7,0,1.3,0.1,1.9,0.2  s1.2,0.3,1.7,0.6l-0.7,2.7c-0.6-0.2-1.2-0.4-1.6-0.5s-1-0.1-1.8-0.1c-1.4,0-2.7,0.4-3.9,1.2c-1.3,0.8-2.4,2.1-3.5,4v10.6h-3.1V488.4  z"
   id="path184" />
<path
   class="st9"
   d="M1391,488.9c-1.6,0-3.1-0.4-4.4-1.1c-1.4-0.7-2.5-1.8-3.3-3.2s-1.3-3.1-1.3-5.1s0.4-3.8,1.3-5.2  c0.8-1.4,1.9-2.5,3.3-3.2s2.8-1.1,4.4-1.1s3.1,0.4,4.4,1.1c1.4,0.7,2.5,1.8,3.3,3.2s1.2,3.1,1.2,5.2c0,2-0.4,3.7-1.2,5.1  s-1.9,2.5-3.3,3.2S1392.6,488.9,1391,488.9z M1391,486.4c1.7,0,3.1-0.6,4.2-1.9s1.6-3,1.6-5c0-2.1-0.5-3.8-1.6-5.1s-2.5-1.9-4.2-1.9  s-3.1,0.6-4.2,1.9s-1.6,3-1.6,5.1s0.5,3.7,1.6,5C1387.8,485.7,1389.2,486.4,1391,486.4z"
   id="path185" />
<path
   class="st9"
   d="M1404,488.4v-18.1h2.5l0.3,2.4h0.1c0.5-0.8,1-1.5,1.6-2.1s1.5-0.8,2.5-0.8c1.8,0,2.9,1,3.4,3.1  c0.5-1,1.1-1.7,1.7-2.3s1.5-0.8,2.5-0.8c1.3,0,2.3,0.5,3,1.4s1.1,2.3,1.1,4.2v13h-3.1v-12.8c0-2.1-0.6-3.2-1.9-3.2  c-0.6,0-1.1,0.2-1.5,0.7s-0.9,1.2-1.4,2.1v13.1h-2.8v-12.8c0-1-0.1-1.8-0.4-2.4s-0.8-0.8-1.4-0.8s-1.2,0.2-1.6,0.7  c-0.5,0.5-0.9,1.2-1.4,2.1v13.1h-3.2L1404,488.4z"
   id="path186" />
<path
   class="st9"
   d="M1436,475.5c-0.8,0-1.6-0.3-2.1-0.9c-0.6-0.6-0.9-1.3-0.9-2.3c0-0.9,0.3-1.7,0.9-2.3s1.3-0.9,2.1-0.9  s1.6,0.3,2.1,0.9c0.6,0.6,0.9,1.4,0.9,2.3s-0.3,1.7-0.9,2.3S1436.8,475.5,1436,475.5z M1436,488.9c-0.8,0-1.6-0.3-2.1-0.9  c-0.6-0.6-0.9-1.3-0.9-2.3c0-0.9,0.3-1.7,0.9-2.3s1.3-0.9,2.1-0.9s1.6,0.3,2.1,0.9c0.6,0.6,0.9,1.4,0.9,2.3s-0.3,1.7-0.9,2.3  S1436.8,488.9,1436,488.9z"
   id="path187" />
<path
   class="st9"
   d="M1480,488.9c-2.6,0-4.7-1.1-6.3-3.2s-2.3-5.2-2.3-9.2s0.8-7.1,2.3-9.1c1.5-2.1,3.6-3.1,6.3-3.1s4.8,1,6.3,3.1  s2.3,5.1,2.3,9.1s-0.8,7-2.3,9.2S1482.6,488.9,1480,488.9z M1480,486.4c1.7,0,3-0.8,4.1-2.4s1.6-4.1,1.6-7.5s-0.5-5.9-1.6-7.5  s-2.4-2.3-4.1-2.3s-3,0.8-4.1,2.3c-1.1,1.6-1.6,4-1.6,7.5c0,3.4,0.5,5.9,1.6,7.5C1476.9,485.6,1478.3,486.4,1480,486.4z M1480,478.7  c-0.6,0-1.2-0.2-1.6-0.7c-0.5-0.4-0.7-1.1-0.7-1.8c0-0.8,0.2-1.4,0.7-1.8s1-0.7,1.6-0.7s1.2,0.2,1.6,0.7c0.5,0.4,0.7,1,0.7,1.8  s-0.2,1.4-0.7,1.8C1481.1,478.5,1480.6,478.7,1480,478.7z"
   id="path188" />
<path
   class="st9"
   d="M1494,488.4l6.9-9.4l-6.4-8.7h3.4l2.9,4c0.3,0.5,0.7,1,1,1.5c0.4,0.5,0.7,1.1,1.1,1.5h0.1c0.3-0.5,0.7-1,1-1.6  c0.3-0.5,0.7-1.1,1-1.6l2.7-3.9h3.2l-6.5,9l6.9,9.1h-3.4l-3.2-4.2c-0.4-0.5-0.8-1.1-1.2-1.6c-0.4-0.6-0.8-1.1-1.2-1.6h-0.1  c-0.4,0.5-0.7,1.1-1.1,1.6s-0.7,1.1-1.1,1.7l-3,4.2H1494L1494,488.4z"
   id="path189" />
<path
   class="st9"
   d="M1525,488.9c-2.6,0-4.7-1.1-6.3-3.2s-2.3-5.2-2.3-9.2s0.8-7.1,2.3-9.1c1.5-2.1,3.6-3.1,6.3-3.1s4.8,1,6.3,3.1  s2.3,5.1,2.3,9.1s-0.8,7-2.3,9.2S1527.6,488.9,1525,488.9z M1525,486.4c1.7,0,3-0.8,4.1-2.4s1.6-4.1,1.6-7.5s-0.5-5.9-1.6-7.5  s-2.4-2.3-4.1-2.3s-3,0.8-4.1,2.3c-1.1,1.6-1.6,4-1.6,7.5c0,3.4,0.5,5.9,1.6,7.5C1521.9,485.6,1523.3,486.4,1525,486.4z M1525,478.7  c-0.6,0-1.2-0.2-1.6-0.7c-0.5-0.4-0.7-1.1-0.7-1.8c0-0.8,0.2-1.4,0.7-1.8s1-0.7,1.6-0.7s1.2,0.2,1.6,0.7c0.5,0.4,0.7,1,0.7,1.8  s-0.2,1.4-0.7,1.8C1526.1,478.5,1525.6,478.7,1525,478.7z"
   id="path190" />
<path
   class="st9"
   d="M1540,488.4v-2.5h6.9v-17.5h-5.3v-2c1.4-0.2,2.6-0.4,3.5-0.7s1.8-0.6,2.6-1h2.3V486h6.2v2.5L1540,488.4  L1540,488.4z"
   id="path191" />
<path
   class="st9"
   d="M1294,538.9v-1.8h1.9c1.3,0,2.2-0.1,2.9-0.3s1.1-0.6,1.4-1.1c0.2-0.5,0.4-1.2,0.4-2c0-1.1,0-2.2-0.1-3.3  c-0.1-1-0.1-2.2-0.1-3.5c0-1.2,0.2-2.1,0.7-2.8c0.5-0.6,1.4-1.1,2.7-1.3v-0.1c-1.3-0.2-2.2-0.7-2.7-1.3s-0.7-1.6-0.7-2.8  s0-2.3,0.1-3.5c0.1-1.1,0.1-2.2,0.1-3.3c0-0.8-0.1-1.5-0.4-2c-0.2-0.5-0.7-0.9-1.4-1.1s-1.6-0.3-2.9-0.3h-1.9v-1.8h2.3  c2.3,0,4.1,0.3,5.2,1s1.7,2,1.7,3.9c0,1.3-0.1,2.5-0.2,3.7s-0.2,2.3-0.2,3.5c0,0.5,0.1,0.9,0.4,1.4c0.3,0.4,0.8,0.8,1.6,1.1  s1.9,0.4,3.4,0.4v1.9c-1.5,0-2.6,0.1-3.4,0.4s-1.3,0.6-1.6,1.1c-0.3,0.4-0.4,0.9-0.4,1.4c0,1.2,0.1,2.4,0.2,3.5s0.2,2.3,0.2,3.7  c0,1.9-0.6,3.2-1.7,3.9s-2.8,1-5.2,1h-2.3V538.9z"
   id="path192" />
<path
   class="st10"
   d="M1525,321.9c-16.9-11.1-22.1-26.1-9.4-27s33.8,12.9,38,24.9S1541.9,333,1525,321.9z"
   id="path193" />
<path
   class="st10"
   d="M1473,292.4c-6.1-1.5-8.5-8-4.4-11.8s11.7-2,13.7,3.3S1479.1,293.9,1473,292.4L1473,292.4z"
   id="path194" />
<path
   class="st7"
   d="M1170,529.1c-4-1.9-4.4-7.3-0.8-9.8s8.5-0.2,8.9,4.2S1174,530.9,1170,529.1z"
   id="path195" />
<path
   class="st7"
   d="M1007,529.7c-5.2-3.1-5.6-9.9-0.7-12.2s11.5,1.7,11.8,7.1S1012.3,532.8,1007,529.7L1007,529.7z"
   id="path196" />
<path
   class="st7"
   d="M1039,511.4c-3.2,0-5.3-3.5-3.6-6.3c1.6-2.8,5.7-2.8,7.3,0S1042.3,511.4,1039,511.4L1039,511.4z"
   id="path197" />
<path
   class="st7"
   d="M359.2,534.9c-3.3,0-5.4-3.6-3.7-6.5s5.8-2.9,7.5,0C364.5,531.3,362.5,534.9,359.2,534.9z"
   id="path198" />
<path
   class="st0"
   d="M732.7,452.6l41.7-44.3c2.1-2.2,0.5-5.8-2.5-5.8h-83.5c-3,0-4.6,3.6-2.5,5.8l41.7,44.3  C729.1,454,731.4,454,732.7,452.6z"
   id="path199" />
<path
   class="st0"
   d="M705.6,404.1h49.2c0,0,6.9-22.1,6.9-46.5c0-17.1-2.8-31.4-4.9-39.5c-1.1-4.2-4.8-7.1-9.1-7.1h-35.1  c-4.3,0-8.1,2.9-9.1,7.1c-2,8.1-4.9,22.4-4.9,39.5C698.7,381.9,705.6,404.1,705.6,404.1L705.6,404.1z"
   id="path200" />
<path
   style="font-size:40px;font-family:Montserrat;-inkscape-font-specification:Montserrat;text-align:center;text-anchor:middle;stroke-width:0.64252"
   d="m 402.0863,722.84814 q 0,1.9336 -0.68359,3.59375 -0.66406,1.64063 -1.875,2.85157 -1.50391,1.5039 -3.55469,2.26562 -2.05078,0.74219 -5.17578,0.74219 h -3.86719 v 10.83984 h -3.86718 v -29.08203 h 7.89062 q 2.61719,0 4.43359,0.44922 1.81641,0.42969 3.22266,1.36719 1.66016,1.11328 2.55859,2.77344 0.91797,1.66015 0.91797,4.19921 z m -4.02343,0.0977 q 0,-1.50391 -0.52735,-2.61719 -0.52734,-1.11328 -1.60156,-1.8164 -0.9375,-0.60547 -2.14844,-0.85938 -1.1914,-0.27344 -3.02734,-0.27344 h -3.82813 v 11.6211 h 3.26172 q 2.34375,0 3.8086,-0.41016 1.46484,-0.42969 2.38281,-1.34765 0.91797,-0.9375 1.28906,-1.97266 0.39063,-1.03516 0.39063,-2.32422 z m 26.44531,9.29688 q 0,5.33203 -2.73438,8.41796 -2.73437,3.08594 -7.32422,3.08594 -4.6289,0 -7.36328,-3.08594 -2.71484,-3.08593 -2.71484,-8.41796 0,-5.33204 2.71484,-8.41797 2.73438,-3.10547 7.36328,-3.10547 4.58985,0 7.32422,3.10547 2.73438,3.08593 2.73438,8.41797 z m -3.78906,0 q 0,-4.23829 -1.66016,-6.28907 -1.66016,-2.07031 -4.60938,-2.07031 -2.98828,0 -4.64843,2.07031 -1.64063,2.05078 -1.64063,6.28907 0,4.10156 1.66016,6.23046 1.66015,2.10938 4.6289,2.10938 2.92969,0 4.58985,-2.08984 1.67969,-2.10938 1.67969,-6.25 z m 13.18359,10.89843 h -3.67188 v -30.39062 h 3.67188 z m 27.07031,0 h -4.84375 l -8.75,-9.55078 -2.38281,2.26563 v 7.28515 h -3.67188 v -30.39062 h 3.67188 v 19.49219 l 10.60547,-10.91797 h 4.6289 l -10.13671,10.07812 z m 20.82031,0 h -3.65234 v -2.32422 q -0.48828,0.33204 -1.32812,0.9375 -0.82032,0.58594 -1.60157,0.9375 -0.91797,0.44922 -2.10937,0.74219 -1.19141,0.3125 -2.79297,0.3125 -2.94922,0 -5,-1.95312 -2.05078,-1.95313 -2.05078,-4.98047 0,-2.48047 1.05469,-4.00391 1.07421,-1.54297 3.04687,-2.42187 1.99219,-0.87891 4.78516,-1.19141 2.79297,-0.3125 5.99609,-0.46875 v -0.56641 q 0,-1.25 -0.44922,-2.07031 -0.42969,-0.82031 -1.25,-1.28906 -0.78125,-0.44922 -1.875,-0.60547 -1.09375,-0.15625 -2.28515,-0.15625 -1.44532,0 -3.22266,0.39063 -1.77734,0.37109 -3.67188,1.09375 h -0.19531 v -3.73047 q 1.07422,-0.29297 3.10547,-0.64453 2.03125,-0.35157 4.00391,-0.35157 2.30468,0 4.0039,0.39063 1.71875,0.37109 2.96875,1.28906 1.23047,0.89844 1.875,2.32422 0.64453,1.42578 0.64453,3.53516 z m -3.65234,-5.37109 v -6.07422 q -1.67969,0.0977 -3.96484,0.29297 -2.26563,0.19531 -3.59375,0.56641 -1.58203,0.44921 -2.5586,1.40625 -0.97656,0.9375 -0.97656,2.59765 0,1.875 1.13281,2.83203 1.13282,0.9375 3.45703,0.9375 1.9336,0 3.53516,-0.74218 1.60156,-0.76172 2.96875,-1.81641 z m 28.41797,5.37109 h -3.67188 v -2.28515 q -1.58203,1.36718 -3.30078,2.1289 -1.71875,0.76172 -3.73047,0.76172 -3.90625,0 -6.21093,-3.00781 -2.28516,-3.00781 -2.28516,-8.33984 0,-2.77344 0.78125,-4.94141 0.80078,-2.16797 2.14844,-3.69141 1.32812,-1.48437 3.08594,-2.26562 1.77734,-0.78125 3.67187,-0.78125 1.71875,0 3.04688,0.37109 1.32812,0.35156 2.79296,1.11328 v -9.45312 h 3.67188 z m -3.67188,-5.37109 v -12.51953 q -1.48437,-0.66406 -2.65625,-0.91797 -1.17187,-0.25391 -2.55859,-0.25391 -3.08594,0 -4.80469,2.14844 -1.71875,2.14844 -1.71875,6.09375 0,3.88672 1.32813,5.91797 1.32812,2.01172 4.25781,2.01172 1.5625,0 3.16406,-0.6836 1.60157,-0.70312 2.98828,-1.79687 z m 29.49219,-5.52734 q 0,5.33203 -2.73437,8.41796 -2.73438,3.08594 -7.32422,3.08594 -4.62891,0 -7.36328,-3.08594 -2.71485,-3.08593 -2.71485,-8.41796 0,-5.33204 2.71485,-8.41797 2.73437,-3.10547 7.36328,-3.10547 4.58984,0 7.32422,3.10547 2.73437,3.08593 2.73437,8.41797 z m -3.78906,0 q 0,-4.23829 -1.66016,-6.28907 -1.66015,-2.07031 -4.60937,-2.07031 -2.98828,0 -4.64844,2.07031 -1.64062,2.05078 -1.64062,6.28907 0,4.10156 1.66015,6.23046 1.66016,2.10938 4.62891,2.10938 2.92969,0 4.58984,-2.08984 1.67969,-2.10938 1.67969,-6.25 z m 20.80078,10.70312 q -1.03516,0.27344 -2.26562,0.44922 -1.21094,0.17578 -2.16797,0.17578 -3.33985,0 -5.07813,-1.79687 -1.73828,-1.79688 -1.73828,-5.76172 v -11.60157 h -2.48047 v -3.08593 h 2.48047 v -6.26953 h 3.67188 v 6.26953 h 7.57812 v 3.08593 h -7.57812 v 9.94141 q 0,1.71875 0.0781,2.69531 0.0781,0.95703 0.54688,1.79688 0.42968,0.78125 1.17187,1.15234 0.76172,0.35156 2.30469,0.35156 0.89844,0 1.875,-0.2539 0.97656,-0.27344 1.40625,-0.44922 h 0.19531 z m 39.92188,-8.10547 q 0,1.69922 -0.80079,3.35938 -0.78125,1.66015 -2.20703,2.8125 -1.5625,1.25 -3.65234,1.95312 -2.07031,0.70313 -5,0.70313 -3.14453,0 -5.66406,-0.58594 -2.5,-0.58594 -5.09766,-1.73828 v -4.84375 h 0.27344 q 2.20703,1.83594 5.09765,2.83203 2.89063,0.99609 5.42969,0.99609 3.59375,0 5.58594,-1.34765 2.01172,-1.34766 2.01172,-3.59375 0,-1.9336 -0.95703,-2.85157 -0.9375,-0.91796 -2.8711,-1.42578 -1.46484,-0.39062 -3.18359,-0.64453 -1.69922,-0.2539 -3.61328,-0.64453 -3.86719,-0.82031 -5.74219,-2.79297 -1.85547,-1.99219 -1.85547,-5.17578 0,-3.65234 3.08594,-5.97656 3.08594,-2.34375 7.83203,-2.34375 3.06641,0 5.625,0.58594 2.55859,0.58593 4.53125,1.44531 v 4.57031 h -0.27344 q -1.66015,-1.40625 -4.375,-2.32422 -2.69531,-0.9375 -5.52734,-0.9375 -3.10547,0 -5,1.28906 -1.875,1.28907 -1.875,3.32032 0,1.8164 0.9375,2.85156 0.9375,1.03516 3.30078,1.58203 1.25,0.27344 3.55469,0.66406 2.30469,0.39063 3.90625,0.80078 3.24219,0.85938 4.88281,2.59766 1.64063,1.73828 1.64063,4.86328 z m 30.78125,-6.21094 q 0,3.96485 -1.73829,7.1875 -1.71875,3.22266 -4.58984,5 -1.99219,1.23047 -4.45312,1.77735 -2.44141,0.54687 -6.44532,0.54687 h -7.34375 v -29.08203 h 7.26563 q 4.25781,0 6.75781,0.625 2.51953,0.60547 4.25781,1.67969 2.96875,1.85547 4.62891,4.94141 1.66016,3.08593 1.66016,7.32421 z m -4.04297,-0.0586 q 0,-3.41797 -1.19141,-5.76172 -1.19141,-2.34375 -3.55469,-3.6914 -1.71875,-0.97657 -3.65234,-1.34766 -1.93359,-0.39063 -4.62891,-0.39063 h -3.63281 v 22.44141 h 3.63281 q 2.79297,0 4.86328,-0.41016 2.08985,-0.41015 3.82813,-1.52343 2.16797,-1.38672 3.24219,-3.65235 1.09375,-2.26562 1.09375,-5.66406 z m 33.67187,14.57031 h -5.01953 l -11.50391,-12.94922 -2.89062,3.08594 v 9.86328 h -3.86719 v -29.08203 h 3.86719 v 15.17578 l 14.12109,-15.17578 h 4.6875 l -12.98828,13.67188 z m 40.58594,0 h -4.78516 l -13.78906,-26.01562 v 26.01562 h -3.61328 v -29.08203 h 5.99609 l 12.57813,23.75 v -23.75 h 3.61328 z m 26.03516,-10.89843 q 0,5.33203 -2.73438,8.41796 -2.73437,3.08594 -7.32422,3.08594 -4.6289,0 -7.36328,-3.08594 -2.71484,-3.08593 -2.71484,-8.41796 0,-5.33204 2.71484,-8.41797 2.73438,-3.10547 7.36328,-3.10547 4.58985,0 7.32422,3.10547 2.73438,3.08593 2.73438,8.41797 z m -3.78907,0 q 0,-4.23829 -1.66015,-6.28907 -1.66016,-2.07031 -4.60938,-2.07031 -2.98828,0 -4.64844,2.07031 -1.64062,2.05078 -1.64062,6.28907 0,4.10156 1.66016,6.23046 1.66015,2.10938 4.6289,2.10938 2.92969,0 4.58985,-2.08984 1.67968,-2.10938 1.67968,-6.25 z m 27.16797,10.89843 h -3.67187 v -2.28515 q -1.58203,1.36718 -3.30078,2.1289 -1.71875,0.76172 -3.73047,0.76172 -3.90625,0 -6.21094,-3.00781 -2.28516,-3.00781 -2.28516,-8.33984 0,-2.77344 0.78125,-4.94141 0.80078,-2.16797 2.14844,-3.69141 1.32813,-1.48437 3.08594,-2.26562 1.77734,-0.78125 3.67187,-0.78125 1.71875,0 3.04688,0.37109 1.32812,0.35156 2.79297,1.11328 v -9.45312 h 3.67187 z m -3.67187,-5.37109 v -12.51953 q -1.48438,-0.66406 -2.65625,-0.91797 -1.17188,-0.25391 -2.5586,-0.25391 -3.08593,0 -4.80468,2.14844 -1.71875,2.14844 -1.71875,6.09375 0,3.88672 1.32812,5.91797 1.32813,2.01172 4.25781,2.01172 1.5625,0 3.16407,-0.6836 1.60156,-0.70312 2.98828,-1.79687 z m 29.16015,-5.15625 h -16.07422 q 0,2.01172 0.60547,3.51562 0.60547,1.48438 1.66016,2.44141 1.01562,0.9375 2.40234,1.40625 1.40625,0.46875 3.08594,0.46875 2.22656,0 4.47266,-0.87891 2.26562,-0.89843 3.22265,-1.75781 h 0.19532 v 4.00391 q -1.85547,0.78125 -3.78907,1.30859 -1.93359,0.52735 -4.0625,0.52735 -5.42968,0 -8.47656,-2.92969 -3.04687,-2.94922 -3.04687,-8.35938 0,-5.35156 2.91015,-8.49609 2.92969,-3.14453 7.69531,-3.14453 4.41407,0 6.79688,2.57812 2.40234,2.57813 2.40234,7.32422 z m -3.57422,-2.8125 q -0.0195,-2.89063 -1.46484,-4.47266 -1.42578,-1.58203 -4.35547,-1.58203 -2.94922,0 -4.70703,1.73828 -1.73828,1.73828 -1.97266,4.31641 z m 48.22266,2.16797 h -10.64453 v 10.64453 h -3.24219 v -10.64453 h -10.64453 v -3.125 h 10.64453 v -10.64453 h 3.24219 v 10.64453 h 10.64453 z m 40.97656,0 q 0,2.65625 -0.76172,4.86328 -0.76171,2.1875 -2.14843,3.71094 -1.28907,1.44531 -3.04688,2.24609 -1.73828,0.78125 -3.6914,0.78125 -1.69922,0 -3.08594,-0.37109 -1.36719,-0.3711 -2.79297,-1.15235 v 9.14063 h -3.67188 v -29.86328 h 3.67188 v 2.28515 q 1.46484,-1.23047 3.28125,-2.05078 1.83594,-0.83984 3.90625,-0.83984 3.94531,0 6.13281,2.98828 2.20703,2.96875 2.20703,8.26172 z m -3.78906,0.0976 q 0,-3.94531 -1.34766,-5.89843 -1.34765,-1.95313 -4.14062,-1.95313 -1.58203,0 -3.18359,0.6836 -1.60157,0.68359 -3.06641,1.79687 v 12.36328 q 1.5625,0.70313 2.67578,0.95703 1.13281,0.25391 2.55859,0.25391 3.06641,0 4.78516,-2.07031 1.71875,-2.07032 1.71875,-6.13282 z m 26.46484,11.07422 h -3.65234 v -2.32422 q -0.48828,0.33204 -1.32812,0.9375 -0.82032,0.58594 -1.60157,0.9375 -0.91797,0.44922 -2.10937,0.74219 -1.19141,0.3125 -2.79297,0.3125 -2.94922,0 -5,-1.95312 -2.05078,-1.95313 -2.05078,-4.98047 0,-2.48047 1.05469,-4.00391 1.07421,-1.54297 3.04687,-2.42187 1.99219,-0.87891 4.78516,-1.19141 2.79297,-0.3125 5.99609,-0.46875 v -0.56641 q 0,-1.25 -0.44922,-2.07031 -0.42969,-0.82031 -1.25,-1.28906 -0.78125,-0.44922 -1.875,-0.60547 -1.09375,-0.15625 -2.28515,-0.15625 -1.44532,0 -3.22266,0.39063 -1.77734,0.37109 -3.67188,1.09375 h -0.19531 v -3.73047 q 1.07422,-0.29297 3.10547,-0.64453 2.03125,-0.35157 4.00391,-0.35157 2.30468,0 4.0039,0.39063 1.71875,0.37109 2.96875,1.28906 1.23047,0.89844 1.875,2.32422 0.64453,1.42578 0.64453,3.53516 z m -3.65234,-5.37109 v -6.07422 q -1.67969,0.0977 -3.96484,0.29297 -2.26563,0.19531 -3.59375,0.56641 -1.58203,0.44921 -2.5586,1.40625 -0.97656,0.9375 -0.97656,2.59765 0,1.875 1.13281,2.83203 1.13282,0.9375 3.45703,0.9375 1.9336,0 3.53516,-0.74218 1.60156,-0.76172 2.96875,-1.81641 z m 14.43359,5.37109 h -3.67187 v -30.39062 h 3.67187 z m 10.97657,0 h -3.67188 v -30.39062 h 3.67188 z m 25.52734,-10.52734 h -16.07422 q 0,2.01172 0.60547,3.51562 0.60547,1.48438 1.66016,2.44141 1.01562,0.9375 2.40234,1.40625 1.40625,0.46875 3.08594,0.46875 2.22656,0 4.47265,-0.87891 2.26563,-0.89843 3.22266,-1.75781 h 0.19531 v 4.00391 q -1.85547,0.78125 -3.78906,1.30859 -1.93359,0.52735 -4.0625,0.52735 -5.42969,0 -8.47656,-2.92969 -3.04688,-2.94922 -3.04688,-8.35938 0,-5.35156 2.91016,-8.49609 2.92969,-3.14453 7.69531,-3.14453 4.41406,0 6.79688,2.57812 2.40234,2.57813 2.40234,7.32422 z m -3.57422,-2.8125 q -0.0195,-2.89063 -1.46484,-4.47266 -1.42578,-1.58203 -4.35547,-1.58203 -2.94922,0 -4.70703,1.73828 -1.73828,1.73828 -1.97266,4.31641 z m 20.46875,13.14453 q -1.03515,0.27344 -2.26562,0.44922 -1.21094,0.17578 -2.16797,0.17578 -3.33985,0 -5.07813,-1.79687 -1.73828,-1.79688 -1.73828,-5.76172 v -11.60157 h -2.48047 v -3.08593 h 2.48047 v -6.26953 h 3.67188 v 6.26953 h 7.57812 v 3.08593 h -7.57812 v 9.94141 q 0,1.71875 0.0781,2.69531 0.0781,0.95703 0.54688,1.79688 0.42968,0.78125 1.17187,1.15234 0.76172,0.35156 2.30469,0.35156 0.89844,0 1.875,-0.2539 0.97656,-0.27344 1.40625,-0.44922 h 0.19531 z m 15.21485,-10.76172 h -12.1875 v -3.53515 h 12.1875 z m 20.21484,-6.85547 h -0.19531 q -0.82032,-0.19531 -1.60157,-0.27343 -0.76171,-0.0977 -1.8164,-0.0977 -1.69922,0 -3.28125,0.76172 -1.58203,0.74219 -3.04688,1.93359 v 15.48828 h -3.67187 v -21.8164 h 3.67187 v 3.22265 q 2.1875,-1.75781 3.84766,-2.48047 1.67969,-0.74218 3.41797,-0.74218 0.95703,0 1.38672,0.0586 0.42968,0.0391 1.28906,0.17578 z m 21.71875,7.28516 h -16.07422 q 0,2.01172 0.60547,3.51562 0.60547,1.48438 1.66016,2.44141 1.01562,0.9375 2.40234,1.40625 1.40625,0.46875 3.08594,0.46875 2.22656,0 4.47265,-0.87891 2.26563,-0.89843 3.22266,-1.75781 h 0.19531 v 4.00391 q -1.85547,0.78125 -3.78906,1.30859 -1.93359,0.52735 -4.0625,0.52735 -5.42969,0 -8.47656,-2.92969 -3.04688,-2.94922 -3.04688,-8.35938 0,-5.35156 2.91016,-8.49609 2.92969,-3.14453 7.69531,-3.14453 4.41406,0 6.79688,2.57812 2.40234,2.57813 2.40234,7.32422 z m -3.57422,-2.8125 q -0.0195,-2.89063 -1.46484,-4.47266 -1.42578,-1.58203 -4.35547,-1.58203 -2.94922,0 -4.70703,1.73828 -1.73828,1.73828 -1.97266,4.31641 z m 28.00781,-8.47656 -8.8281,21.8164 h -3.6914 l -8.76956,-21.8164 h 3.98436 l 6.7578,17.36328 6.6992,-17.36328 z m 8.75,-3.65235 h -4.1406 v -3.80859 h 4.1406 z m -0.2344,25.46875 h -3.6718 v -21.8164 h 3.6718 z m 26.1328,-21.8164 -8.8281,21.8164 h -3.6914 l -8.7695,-21.8164 h 3.9844 l 6.7578,17.36328 6.6992,-17.36328 z m 22.7149,11.28906 h -16.0742 q 0,2.01172 0.6054,3.51562 0.6055,1.48438 1.6602,2.44141 1.0156,0.9375 2.4023,1.40625 1.4063,0.46875 3.086,0.46875 2.2265,0 4.4726,-0.87891 2.2657,-0.89843 3.2227,-1.75781 h 0.1953 v 4.00391 q -1.8555,0.78125 -3.7891,1.30859 -1.9336,0.52735 -4.0625,0.52735 -5.4297,0 -8.4765,-2.92969 -3.0469,-2.94922 -3.0469,-8.35938 0,-5.35156 2.9102,-8.49609 2.9296,-3.14453 7.6953,-3.14453 4.414,0 6.7968,2.57812 2.4024,2.57813 2.4024,7.32422 z m -3.5742,-2.8125 q -0.02,-2.89063 -1.4649,-4.47266 -1.4258,-1.58203 -4.3554,-1.58203 -2.9493,0 -4.7071,1.73828 -1.7383,1.73828 -1.9726,4.31641 z"
   id="text154"
   aria-label="Polkadot SDK Node + pallet-revive" /></svg>
