<svg width="46" height="46" fill="none" xmlns="http://www.w3.org/2000/svg"><path d="M3.265 30.802c0 6.662 4.031 10.246 8.486 11.305 1.874.445 3.807-.053 5.578-.812a14.234 14.234 0 0 1 11.208 0c1.77.759 3.703 1.257 5.578.812 4.455-1.06 8.486-4.643 8.486-11.305 0-6.43-4.677-11.642-11.38-11.642H14.645c-7.613 0-11.38 5.212-11.38 11.642Z" stroke="#BD83FD" stroke-width="4.081"/><path d="M9.997 30.565h8.744M14.369 26.193v8.744M29.152 33.114h.017M34.168 33.114h.017M29.152 28.016h.017M34.152 28.016h.017M22.97 3.265v15.894" stroke="#BD83FD" stroke-width="4.081" stroke-linecap="round" stroke-linejoin="round"/></svg>