<?xml version="1.0" encoding="UTF-8"?>
<svg id="Layer_1" data-name="Layer 1" xmlns="http://www.w3.org/2000/svg" viewBox="0 0 1200.05 1339.44">
  <g>
    <g>
      <circle cx="533.3" cy="270.28" r="90.75" style="fill: #bc83fb; stroke-width: 0px;"/>
      <g>
        <path d="m523.14,314.42c.09,11.57,14.63,12.27,15.75.7.54-3.39,5.56-2.94,5.51.47.15,7.64-6.11,14.81-14.21,14.23-3.82-.23-7.58-2.18-9.88-5.29-2.36-2.77-5.17-13.06.33-12.92,1.46.13,2.53,1.38,2.52,2.81h0Z" style="stroke-width: 0px;"/>
        <path d="m578.46,302.84c-.26-4.74-1.59-9.16-4.29-12.33-5.29-6.5-15.9-7.15-21.86-1.23-2.99,2.86-4.78,7.12-5.59,11.81-.22,1.44-1.58,2.42-3.01,2.17-1.23-.21-2.1-1.26-2.15-2.45-.11-2.82.26-5.7,1.08-8.56,4.78-16.57,27.29-20,37.2-6.07,3.57,4.88,4.58,11.2,3.77,16.96-.21,1.42-1.52,2.4-2.94,2.19-1.26-.18-2.18-1.25-2.22-2.48h0Z" style="stroke-width: 0px;"/>
        <path d="m515.87,299.37c-.3-4.76-1.65-9.18-4.36-12.35-5.31-6.49-15.9-7.14-21.89-1.24-3,2.85-4.81,7.11-5.66,11.82-.22,1.39-1.54,2.33-2.93,2.08-1.18-.21-2.01-1.21-2.07-2.36-.13-2.81.23-5.69,1.04-8.55,4.73-16.58,27.27-20.02,37.15-6.08,3.56,4.88,4.55,11.19,3.7,16.95-.21,1.37-1.49,2.31-2.86,2.1-1.21-.18-2.09-1.2-2.13-2.38h0Z" style="stroke-width: 0px;"/>
      </g>
      <path d="m453.81,226.5l82.04.84,83.79,14.9c3.37,10.36,4.91,21.52,4.27,33.06-.17,3.15-.51,6.26-.98,9.3-16.87-3.87-53.4-19.04-86.82-48.81,0,0-34.55,32.74-93.54,32.86,0-1.13.05-2.25.11-3.38.78-14.07,4.72-27.2,11.11-38.77Z" style="fill: #8747cc; stroke-width: 0px;"/>
      <g>
        <path d="m547.45.04c3.79,1.6,30.51,53.74,61.15,100.9,30.64,47.16,17.88,73.17-10.74,90.67-98.15-5.43-119.71-6.62-119.71-6.62-31.62-29.51-32.91-46.93,3.82-92.44C518.7,47.03,543.67-1.56,547.45.04Z" style="fill: #8747cc; stroke-width: 0px;"/>
        <path d="m618.2,217.6c-38.91-80.29-63.65-183.8-71.61-184.65-7.96-.85-44.93,95.56-92.87,178.41l164.48,6.24Z" style="fill: #bc83fb; stroke-width: 0px;"/>
        <path d="m547.96,52.54c-.63,19.29-2.38,38.54-4.27,57.72-1.77,18.94-4.62,38.19-2.84,57.09.26,2.95-4.16,3.51-4.59.52-1.28-9.75-1.05-19.56-.4-29.3,1.29-19.28,3.75-38.33,5.39-57.54.79-9.57,1.5-19.13,2.09-28.71.2-2.96,4.67-2.83,4.61.21h0Z" style="fill: #8747cc; stroke-width: 0px;"/>
        <path d="m631.16,262.76c-6.21,9.74-55.23,1.57-95.41-33.58-43.81,30.5-93.46,33.22-98.56,22.85-5.14-10.39,6.07-43.75,16.51-48.64,10.44-4.91,48.96-1.69,84.28-27.13h0c32.29,29.18,72.31,30.3,82.15,36.33,9.84,6.01,17.27,40.4,11.04,50.16Z" style="fill: #bc83fb; stroke-width: 0px;"/>
        <path d="m462.94,199.2c19.49-1.85,39.39-5.29,57.28-13.42,4.24-1.98,8.81-4.41,12.63-7.06,2.43-1.31,4.42-5.05,7.26-3.07,15.8,11.45,33.48,20.23,52.09,26.09,6.24,1.93,12.66,3.68,18.94,4.86,3.45.69,2.65,5.95-.93,5.46-26.63-4.54-52.32-15.19-73.49-32.03,0,0,3.7-.27,3.7-.27-1.45,1.49-2.74,2.47-4.16,3.61-9.69,7.26-21.15,11.89-32.69,15.18-12.95,3.72-26.82,5.51-40.26,6.19-3.59.19-4.03-5.22-.36-5.53h0Z" style="fill: #8747cc; stroke-width: 0px;"/>
      </g>
    </g>
    <path d="m587.7,342.92c-27.17,27.19-76.19,28.85-104.78,2.98,34.04,16.22,72.3,17.7,104.78-2.98h0Z" style="fill: #8747cc; stroke-width: 0px;"/>
    <path d="m622.9,284.71c-7.26,45.35-47.77,78.77-94.61,76.18-21.98-1.22-41.69-10.16-56.66-24.04,85.73,10.61,127.21,7.85,151.27-52.15Z" style="fill: #8747cc; stroke-width: 0px;"/>
  </g>
  <g>
    <g>
      <path d="m959.39,1228.13c-6.31-56.17-37.15-110.77-37.39-100.57,4.38,40.98,5.75,74.12,3.03,98.39-.95,8.55-2.4,15.99-4.4,22.3-.02.07-.05.13-.06.19-1.57,4.87-3.46,9.03-5.7,12.49-21.36,32.9-80-.78-128.3-58.71l-74.94-7.87-17.98-1.88-15.95-1.69c7.08,11.27,14.19,21.81,21.34,31.63,107.32,147.89,217.63,135.13,250.71,73.68,10.57-19.63,12.35-43.92,9.66-67.94Z" style="fill: #ba81f9; stroke-width: 0px;"/>
      <path d="m920.57,1248.43c-1.57,4.87-3.46,9.02-5.7,12.49-21.36,32.89-80-.79-128.3-58.71l-92.93-9.76c97.59,147.53,205.45,133.61,226.93,55.99Z" style="fill: #8547ca; stroke-width: 0px;"/>
      <path d="m851.77,1272.23c-11.45-4.59-22.46-5.59-24.63-.19-2.17,5.41,5.36,13.51,16.81,18.1,11.45,4.59,22.49,3.93,24.66-1.48,2.17-5.41-5.39-11.84-16.84-16.43Z" style="fill: #d6b5f9; stroke-width: 0px;"/>
      <ellipse cx="778.17" cy="1235.23" rx="14.93" ry="28.25" transform="translate(-660.98 989.88) rotate(-48.11)" style="fill: #d6b5f9; stroke-width: 0px;"/>
      <path d="m730.62,1218.5l-7.04-20.33-11.97-3.83-17.98-1.88-15.95-1.69c7.08,11.27,14.19,21.81,21.34,31.63,13.97-9.6,31.6-3.89,31.6-3.89Z" style="fill: #8547ca; stroke-width: 0px;"/>
    </g>
    <g>
      <path d="m836.89,595.9l-35.88-69.44s86.71,1.92,142.98-55.26c5.23-5.27,10.17-11.06,14.77-17.39,5.82-8.05,10.79-15.93,15.08-23.74,33.96-61.36,28.29-116.52,97.19-188.35,2.22-2.32,5.91.76,4.61,3.82-3.77,8.87-8.35,21.2-12.49,36.55v.02c-5.76,21.42-10.65,48.76-11.13,80.81-1.38,92.21-35.16,221.59-215.13,232.97Z" style="fill: #ba81f9; stroke-width: 0px;"/>
      <path d="m836.89,595.9l-21.27-41.17c52.27,7.91,123.92-22.1,158.99-64.28,48.12-57.86,47.25-117.3,60.88-148.73,13.61-31.45,27.66-59.62,27.66-59.62v.02c-5.76,21.42-10.65,48.76-11.13,80.81-1.38,92.21-35.16,221.59-215.13,232.97Z" style="fill: #8547ca; stroke-width: 0px;"/>
      <path d="m884.64,569.39c24.5-6.52,42.44-1.11,32.3,9.73-10.14,10.84-40.76,18.99-55.12,14.66-14.36-4.33-1.68-17.88,22.82-24.4Z" style="fill: #d6b5f9; stroke-width: 0px;"/>
      <path d="m962.51,533.18c21.81-17.27,41.32-19.34,35.11-3.71-6.21,15.63-33.47,37.22-49.07,38.87-15.61,1.65-7.85-17.88,13.96-35.16Z" style="fill: #d6b5f9; stroke-width: 0px;"/>
      <path d="m1020.77,459.43c6.99-21.74,18.93-31.79,21.49-18.08,2.56,13.71-6.19,40.88-15.73,48.92s-12.74-9.09-5.75-30.84Z" style="fill: #d6b5f9; stroke-width: 0px;"/>
      <path d="m1039.52,389.14c.7-17.08,6.94-26.98,11.24-17.82,4.3,9.16,3.42,30.51-1.57,38.43-5,7.92-10.37-3.53-9.67-20.61Z" style="fill: #d6b5f9; stroke-width: 0px;"/>
      <path d="m1048.53,326.23c1.44-12.9,6.76-19.99,9.57-12.77,2.81,7.23,1,23.35-3.25,29.03-4.25,5.68-7.76-3.36-6.32-16.26Z" style="fill: #d6b5f9; stroke-width: 0px;"/>
    </g>
    <path d="m922.36,711.61c4.69-2.43,9.61,9.05,4.23,11.75-14.58,7.3-28.45,16.13-41.77,25.22-14.54,9.9-28.41,20.81-41.82,32.27-6.1,4.95-13.74-3.7-7.85-9.12,26.66-23.11,55.8-43.82,87.22-60.12Z" style="fill: #8547ca; stroke-width: 0px;"/>
    <g>
      <path d="m432.87,1213.41c-31.78,43.25-81.85,23.71-67.21,24.73,10.39.72,19.66-6.56,22.61-28.03,1.19-8.64,12.37-24.48,44.6,3.3Z" style="fill: #8547ca; stroke-width: 0px;"/>
      <path d="m372.33,1193.51l7.88,6.68s12.22,25.99,13.44,25.73c5.67-1.32,8.82.05,18.27-.72,2.25-.19,4.6-.33,7.02-.42,1.19-.05,2.4-.08,3.63-.1.07,0,.14,0,.21,0,1.17,0,2.35,0,3.55,0,2.28.03,4.6.12,6.96.27,16.48,1.02,34.7,5.15,51.42,15.5,11.04-21.37,18.45-46.39,22.3-74.23l-78.49,15.92-18.12,3.67-24.27,4.92-11.89,2.41-1.89.38Z" style="fill: #8547ca; stroke-width: 0px;"/>
      <path d="m390.83,1189.89c-.09.18-.19.35-.27.52-4.67,8.91-6.05,17.88-4.8,25.09.83,4.8,2.82,8.81,5.78,11.49.58.53,1.21,1.01,1.87,1.44,3.13,2,7.07,2.73,11.69,1.76,3.79-.8,7.43-2.63,10.76-5.19,5.43-4.19,10.02-10.31,13.08-17.08,3.81-8.48,5.19-17.96,2.72-25.79-.08-.27-.17-.54-.26-.82-2.74-7.7-8.46-11.22-15.04-10.97-8.7.31-18.88,7.18-25.53,19.55Z" style="fill: #ba81f9; stroke-width: 0px;"/>
    </g>
    <g>
      <path d="m28.97,245.59l-.02-.02c5.23-13.61,11.34-27.45,18.32-41.53,1.29-2.6,8.12-1.83,5.77,7.53-16.6,65.94-14.25,141.77,16.05,206.84,2.88,6.22,6.05,12.34,9.47,18.34,6.9,12.15,14.87,23.81,23.98,34.84,6.18,7.48,12.29,14.38,18.36,20.82,59.51,63.7,110.41,85.36,105.61,198.92l-100.72-68.75C25.11,531.2-32.52,405.38,28.97,245.59Z" style="fill: #bb82fa; stroke-width: 0px;"/>
      <path d="m27.14,444.25s12.35-24.74,41.96-25.84c2.88,6.22,6.05,12.34,9.47,18.34-13.15,4.43-32.93,15.24-40.15,40.99l-11.28-33.48Z" style="fill: #d1a5ff; stroke-width: 0px;"/>
      <path d="m28.97,245.59s-25.2,120.64,14.67,215.8c15.15,36.18,35.66,59.69,56.44,80.25,33.85,33.53,68.41,59.2,81.65,119.11l-55.94-38.18c-23.75-21.55-45.1-45.01-63.06-70.38C4.55,469.97-18.02,367.7,28.97,245.59Z" style="fill: #8647cb; stroke-width: 0px;"/>
      <path d="m26.94,505.52c-9.42-19.7-6.8-35.94,4.72-29.23,11.51,6.71,23.29,31.33,21.19,44.32-2.1,12.99-16.49,4.6-25.91-15.1Z" style="fill: #d7b6fa; stroke-width: 0px;"/>
      <path d="m2.31,423.15c-3.03-17.39,2.68-29.59,10.29-21.96,7.61,7.63,11.4,29.37,6.83,39.13-4.57,9.76-14.08.22-17.12-17.17Z" style="fill: #d7b6fa; stroke-width: 0px;"/>
      <path d="m.03,348.12c.55-15.26,7.41-24.64,12.35-16.88,4.94,7.76,4.26,26.84-1.23,34.34-5.49,7.5-11.67-2.2-11.12-17.46Z" style="fill: #d7b6fa; stroke-width: 0px;"/>
      <path d="m20.02,288.06c-2.33,11.88-6.39,18.78-8.67,12.22-2.28-6.55.64-21.41,5.24-26.74,4.61-5.33,5.76,2.63,3.43,14.52Z" style="fill: #d7b6fa; stroke-width: 0px;"/>
      <path d="m100.08,541.63c26.32-4.01,51.99-1.38,73.89,3.53,33.38,34.31,55.81,69.03,52.55,146.15l-44.79-30.57c-13.24-59.91-47.8-85.58-81.65-119.11Z" style="fill: #8647cb; stroke-width: 0px;"/>
      <path d="m62.73,552.18c12.37-5.3,24.93-8.67,37.34-10.55,33.85,33.53,68.41,59.2,81.65,119.11l-55.94-38.18c-23.75-21.55-45.1-45.01-63.06-70.38Z" style="fill: #572c93; stroke-width: 0px;"/>
      <path d="m84.9,586.04c-16.64-17.13-18.58-35.65-3.49-33.33,15.08,2.32,35.88,23.73,37.43,38.54,1.55,14.81-17.3,11.92-33.94-5.21Z" style="fill: #bb82fa; stroke-width: 0px;"/>
    </g>
    <path d="m159.98,355.54h721.51c10.18,0,18.44,8.26,18.44,18.44v805.06c0,14.76-11.98,26.74-26.74,26.74H168.27c-14.75,0-26.73-11.98-26.73-26.73V373.98c0-10.18,8.26-18.44,18.44-18.44Z" style="fill: #bb82fa; stroke-width: 0px;"/>
    <path d="m899.93,397.56v779.56c0,15.82-10.97,28.66-24.49,28.66H166.02c-13.52,0-24.49-12.84-24.49-28.66V397.56h758.4Z" style="fill: #0e0c12; stroke-width: 0px;"/>
    <circle cx="169.8" cy="378.31" r="7.79" style="fill: #fff; stroke-width: 0px;"/>
    <circle cx="194.42" cy="378.31" r="7.79" style="fill: #fff; stroke-width: 0px;"/>
    <circle cx="219.05" cy="378.31" r="7.79" style="fill: #fff; stroke-width: 0px;"/>
    <g>
      <path d="m208.65,454.35h10.6v1.7h-10.6v-1.7Zm.5-5.17h10.6v1.7h-10.6v-1.7Zm2.88-4.5h1.54l-1.99,16.4h-1.57l2.02-16.4Zm4.71,0h1.54l-1.99,16.4h-1.57l2.02-16.4Z" style="fill: #19a3ff; stroke-width: 0px;"/>
      <path d="m227.21,443.22h7.11v1.39h-5.15v18.92h5.15v1.39h-7.11v-21.69Z" style="fill: #19a3ff; stroke-width: 0px;"/>
      <path d="m244.54,450.76h-5.51v-2h8.02v12.32h-2.51v-10.32Zm-.82-6.2c0-1.06.79-1.79,1.87-1.79s1.87.73,1.87,1.79-.79,1.78-1.87,1.78-1.87-.7-1.87-1.78Z" style="fill: #19a3ff; stroke-width: 0px;"/>
      <path d="m254.18,448.75h2.05l.2,1.96h.1c1.23-1.27,2.64-2.27,4.54-2.27,2.88,0,4.2,1.77,4.2,4.98v7.65h-2.51v-7.32c0-2.15-.72-3.15-2.55-3.15-1.34,0-2.24.66-3.52,1.96v8.5h-2.51v-12.32Z" style="fill: #19a3ff; stroke-width: 0px;"/>
      <path d="m269.57,443.19h2.51v11.63h.1l6.07-6.07h2.82l-9,9.04v3.28h-2.51v-17.88Zm4.84,11.59l1.49-1.61,5.77,7.9h-2.76l-4.49-6.29Z" style="fill: #19a3ff; stroke-width: 0px;"/>
      <path d="m287.54,450.22c0-1.36.98-2.36,2.27-2.36s2.27,1,2.27,2.36-.98,2.36-2.27,2.36-2.27-.97-2.27-2.36Zm0,8.8c0-1.36.98-2.36,2.27-2.36s2.27,1,2.27,2.36-.98,2.36-2.27,2.36-2.27-.97-2.27-2.36Z" style="fill: #19a3ff; stroke-width: 0px;"/>
      <path d="m302.68,450.22c0-1.36.98-2.36,2.27-2.36s2.27,1,2.27,2.36-.98,2.36-2.27,2.36-2.27-.97-2.27-2.36Zm0,8.8c0-1.36.98-2.36,2.27-2.36s2.27,1,2.27,2.36-.98,2.36-2.27,2.36-2.27-.97-2.27-2.36Z" style="fill: #19a3ff; stroke-width: 0px;"/>
      <path d="m314.46,454.94c0-4.13,3.19-6.49,6.94-6.49,1.99,0,3.5.78,4.52,1.77l-1.21,1.59c-1-.82-2.01-1.29-3.2-1.29-2.65,0-4.47,1.76-4.47,4.42s1.8,4.38,4.41,4.38c1.46,0,2.68-.65,3.66-1.45l1.08,1.62c-1.4,1.22-3.15,1.9-4.94,1.9-3.86,0-6.78-2.36-6.78-6.44Z" style="fill: #19a3ff; stroke-width: 0px;"/>
      <path d="m329.09,454.94c0-4.13,2.89-6.49,6.14-6.49s6.14,2.36,6.14,6.49-2.89,6.44-6.14,6.44-6.14-2.36-6.14-6.44Zm9.7,0c0-2.66-1.38-4.42-3.57-4.42s-3.57,1.76-3.57,4.42,1.38,4.38,3.57,4.38,3.57-1.74,3.57-4.38Z" style="fill: #19a3ff; stroke-width: 0px;"/>
      <path d="m345.01,448.75h2.05l.2,1.96h.1c1.23-1.27,2.64-2.27,4.54-2.27,2.88,0,4.2,1.77,4.2,4.98v7.65h-2.51v-7.32c0-2.15-.72-3.15-2.55-3.15-1.34,0-2.24.66-3.52,1.96v8.5h-2.51v-12.32Z" style="fill: #19a3ff; stroke-width: 0px;"/>
      <path d="m362.92,456.2v-5.44h-3.4v-1.87l3.5-.13.33-3.91h2.08v3.91h5.82v2h-5.82v5.45c0,2.12.75,3.15,2.98,3.15,1.08,0,1.96-.22,2.81-.53l.51,1.83c-1.11.38-2.33.72-3.9.72-3.69,0-4.91-2.09-4.91-5.18Z" style="fill: #19a3ff; stroke-width: 0px;"/>
      <path d="m376.54,448.75h2.08l.22,2.86h.06c1.27-2.01,3.17-3.16,5.37-3.16.96,0,1.67.14,2.42.5l-.55,2.13c-.84-.27-1.31-.39-2.26-.39-1.77,0-3.47.9-4.83,3.39v6.99h-2.51v-12.32Z" style="fill: #19a3ff; stroke-width: 0px;"/>
      <path d="m390.1,457.82c0-2.76,2.51-4.12,8.73-4.59-.09-1.52-.91-2.75-3.1-2.75-1.49,0-2.96.68-4.17,1.39l-.96-1.68c1.38-.85,3.43-1.75,5.57-1.75,3.4,0,5.16,1.95,5.16,5.2v7.42h-2.08l-.2-1.6h-.08c-1.32,1.03-3.03,1.9-4.72,1.9-2.36,0-4.17-1.39-4.17-3.56Zm8.73-.1v-2.89c-4.84.35-6.28,1.32-6.28,2.79,0,1.24,1.11,1.75,2.43,1.75s2.57-.62,3.85-1.66Z" style="fill: #19a3ff; stroke-width: 0px;"/>
      <path d="m405.28,454.94c0-4.13,3.19-6.49,6.94-6.49,1.99,0,3.5.78,4.52,1.77l-1.21,1.59c-1-.82-2.01-1.29-3.2-1.29-2.65,0-4.47,1.76-4.47,4.42s1.8,4.38,4.41,4.38c1.46,0,2.68-.65,3.66-1.45l1.08,1.62c-1.4,1.22-3.15,1.9-4.94,1.9-3.86,0-6.78-2.36-6.78-6.44Z" style="fill: #19a3ff; stroke-width: 0px;"/>
      <path d="m423.47,456.2v-5.44h-3.4v-1.87l3.5-.13.33-3.91h2.08v3.91h5.82v2h-5.82v5.45c0,2.12.75,3.15,2.98,3.15,1.08,0,1.96-.22,2.81-.53l.51,1.83c-1.11.38-2.33.72-3.9.72-3.69,0-4.91-2.09-4.91-5.18Z" style="fill: #19a3ff; stroke-width: 0px;"/>
      <path d="m436.13,463.52h5.15v-18.92h-5.15v-1.39h7.11v21.69h-7.11v-1.39Z" style="fill: #19a3ff; stroke-width: 0px;"/>
      <path d="m223.91,479.03h2.05l.2,1.49h.08c1.1-1.04,2.66-1.79,4.11-1.79,3.26,0,5.06,2.46,5.06,6.28,0,4.19-2.62,6.65-5.54,6.65-1.13,0-2.45-.56-3.51-1.53h-.06l.12,2.25v4.01h-2.51v-17.36Zm8.92,5.99c0-2.58-.94-4.2-3.16-4.2-1.01,0-2.13.5-3.25,1.65v5.83c1.02.93,2.18,1.26,2.97,1.26,1.96,0,3.44-1.63,3.44-4.54Z" style="fill: #ffc259; stroke-width: 0px;"/>
      <path d="m238.68,486.67v-7.65h2.51v7.32c0,2.13.71,3.15,2.57,3.15,1.29,0,2.22-.57,3.45-2.03v-8.43h2.51v12.32h-2.07l-.2-2.05h-.1c-1.2,1.4-2.61,2.36-4.48,2.36-2.89,0-4.19-1.77-4.19-4.98Z" style="fill: #ffc259; stroke-width: 0px;"/>
      <path d="m256.48,489.99h-.08l-.23,1.36h-1.99v-17.88h2.51v4.74l-.11,2.27h.08c1.06-1.07,2.55-1.75,3.93-1.75,3.26,0,5.08,2.46,5.08,6.26,0,4.22-2.62,6.67-5.5,6.67-1.2,0-2.6-.62-3.71-1.66Zm6.63-4.97c0-2.58-.94-4.2-3.16-4.2-1.01,0-2.13.5-3.25,1.65v5.83c1.02.93,2.18,1.26,3.01,1.26,1.92,0,3.4-1.63,3.4-4.54Z" style="fill: #ffc259; stroke-width: 0px;"/>
      <path d="m283.56,479.03h1.96l.2,1.6h.06c.59-1.1,1.35-1.9,2.78-1.9,1.18,0,1.94.71,2.28,2.1.64-1.26,1.43-2.1,2.85-2.1,1.73,0,2.74,1.39,2.74,3.85v8.78h-2.44v-8.6c0-1.25-.35-1.88-1.15-1.88s-1.18.57-1.75,1.72v8.77h-2.17v-8.6c0-1.25-.32-1.88-1.12-1.88-.75,0-1.25.57-1.78,1.72v8.77h-2.44v-12.32Z" style="fill: #ffc259; stroke-width: 0px;"/>
      <path d="m298.81,485.21c0-4.12,2.89-6.49,6.14-6.49s6.14,2.36,6.14,6.49-2.89,6.44-6.14,6.44-6.14-2.36-6.14-6.44Zm9.7,0c0-2.66-1.38-4.42-3.57-4.42s-3.57,1.76-3.57,4.42,1.38,4.38,3.57,4.38,3.57-1.74,3.57-4.38Z" style="fill: #ffc259; stroke-width: 0px;"/>
      <path d="m313.95,485.21c0-4.01,2.64-6.49,5.5-6.49,1.44,0,2.52.56,3.55,1.51h.06l-.12-2.17v-4.6h2.51v17.88h-2.05l-.2-1.53h-.08c-.99,1-2.41,1.83-3.87,1.83-3.18,0-5.29-2.36-5.29-6.44Zm8.98,2.7v-5.83c-1-.93-1.94-1.26-2.92-1.26-1.92,0-3.5,1.67-3.5,4.36s1.24,4.38,3.3,4.38c1.12,0,2.14-.53,3.11-1.65Z" style="fill: #ffc259; stroke-width: 0px;"/>
      <path d="m345.26,479.16l3.52-.13h7.33v2.01h-10.86v-1.88Zm3.46-.98c0-2.95,1.59-5.01,5.11-5.01,1.27,0,2.47.25,3.6.7l-.54,1.87c-.95-.4-1.76-.56-2.79-.56-2.04,0-2.89,1.09-2.89,2.94v13.24h-2.49v-13.17Z" style="fill: #19a3ff; stroke-width: 0px;"/>
      <path d="m363.88,487.04v-11.56h-4.24v-2h6.75v13.72c0,1.71.97,2.4,2.32,2.4.67,0,1.39-.16,2.21-.52l.6,1.87c-1.18.46-2,.72-3.4.72-2.76,0-4.25-1.65-4.25-4.62Z" style="fill: #19a3ff; stroke-width: 0px;"/>
      <path d="m380.78,481.03h-5.51v-2.01h8.02v12.32h-2.51v-10.32Zm-.82-6.2c0-1.06.79-1.79,1.87-1.79s1.87.73,1.87,1.79-.79,1.78-1.87,1.78-1.87-.7-1.87-1.78Z" style="fill: #19a3ff; stroke-width: 0px;"/>
      <path d="m390.42,479.03h2.05l.2,1.49h.08c1.1-1.04,2.66-1.79,4.11-1.79,3.26,0,5.06,2.46,5.06,6.28,0,4.19-2.62,6.65-5.54,6.65-1.13,0-2.45-.56-3.51-1.53h-.06l.12,2.25v4.01h-2.51v-17.36Zm8.92,5.99c0-2.58-.94-4.2-3.16-4.2-1.01,0-2.13.5-3.25,1.65v5.83c1.02.93,2.18,1.26,2.97,1.26,1.96,0,3.44-1.63,3.44-4.54Z" style="fill: #19a3ff; stroke-width: 0px;"/>
      <path d="m405.55,479.03h2.05l.2,1.49h.08c1.1-1.04,2.66-1.79,4.11-1.79,3.26,0,5.06,2.46,5.06,6.28,0,4.19-2.62,6.65-5.54,6.65-1.13,0-2.45-.56-3.51-1.53h-.06l.12,2.25v4.01h-2.51v-17.36Zm8.92,5.99c0-2.58-.94-4.2-3.16-4.2-1.01,0-2.13.5-3.25,1.65v5.83c1.02.93,2.18,1.26,2.97,1.26,1.96,0,3.44-1.63,3.44-4.54Z" style="fill: #19a3ff; stroke-width: 0px;"/>
      <path d="m420.11,485.17c0-4.01,3.02-6.44,6.32-6.44,3.62,0,5.67,2.38,5.67,5.82,0,.53-.06,1.04-.11,1.36h-10.14v-1.84h8.58l-.54.61c0-2.67-1.29-4.01-3.38-4.01s-3.93,1.59-3.93,4.5,1.9,4.52,4.55,4.52c1.38,0,2.49-.42,3.6-1.08l.88,1.59c-1.27.84-2.91,1.46-4.8,1.46-3.74,0-6.69-2.38-6.69-6.49Z" style="fill: #19a3ff; stroke-width: 0px;"/>
      <path d="m437.08,479.03h2.08l.22,2.86h.06c1.27-2.01,3.17-3.16,5.37-3.16.96,0,1.67.14,2.42.5l-.55,2.13c-.84-.27-1.31-.39-2.26-.39-1.77,0-3.47.9-4.83,3.39v6.99h-2.51v-12.32Z" style="fill: #19a3ff; stroke-width: 0px;"/>
      <path d="m470.18,491.77c0-1.83.25-3.06.25-4.72,0-.96-.7-1.91-3.61-1.94v-1.54c2.91-.03,3.61-.98,3.61-1.94,0-1.58-.25-2.98-.25-4.72,0-2.63,1.5-3.42,4.68-3.42h1.66v1.39h-1.24c-2.45,0-2.98.58-2.98,2.16,0,1.41.14,2.9.14,4.45,0,1.71-.6,2.5-2.36,2.8v.1c1.76.3,2.36,1.09,2.36,2.8s-.14,2.96-.14,4.45c0,1.58.53,2.16,2.98,2.16h1.24v1.39h-1.66c-3.18,0-4.68-.79-4.68-3.42Z" style="fill: #fff; stroke-width: 0px;"/>
      <path d="m269.2,514.9h10.6v1.7h-10.6v-1.7Zm.5-5.17h10.6v1.7h-10.6v-1.7Zm2.88-4.5h1.54l-1.99,16.4h-1.57l2.02-16.4Zm4.71,0h1.54l-1.99,16.4h-1.57l2.02-16.4Z" style="fill: #19a3ff; stroke-width: 0px;"/>
      <path d="m287.76,503.77h7.11v1.39h-5.15v18.92h5.15v1.39h-7.11v-21.69Z" style="fill: #19a3ff; stroke-width: 0px;"/>
      <path d="m305.09,511.31h-5.51v-2h8.02v12.32h-2.51v-10.32Zm-.82-6.2c0-1.06.79-1.79,1.87-1.79s1.87.73,1.87,1.79-.79,1.78-1.87,1.78-1.87-.7-1.87-1.78Z" style="fill: #19a3ff; stroke-width: 0px;"/>
      <path d="m314.73,509.3h2.05l.2,1.96h.1c1.23-1.27,2.64-2.27,4.54-2.27,2.88,0,4.2,1.77,4.2,4.98v7.65h-2.51v-7.32c0-2.15-.72-3.15-2.55-3.15-1.34,0-2.24.66-3.52,1.96v8.5h-2.51v-12.32Z" style="fill: #19a3ff; stroke-width: 0px;"/>
      <path d="m330.12,503.74h2.51v11.63h.1l6.07-6.07h2.82l-9,9.04v3.28h-2.51v-17.88Zm4.84,11.59l1.49-1.61,5.77,7.9h-2.76l-4.49-6.29Z" style="fill: #19a3ff; stroke-width: 0px;"/>
      <path d="m347.86,514.62c0-4.84,2.12-8.7,5.57-11.47l1.39,1.21c-3.28,2.87-4.77,6.09-4.77,10.26s1.49,7.39,4.77,10.26l-1.39,1.21c-3.45-2.77-5.57-6.63-5.57-11.47Z" style="fill: #19a3ff; stroke-width: 0px;"/>
      <path d="m359.61,520.01l1.12-1.63c1.45,1,3.12,1.62,5.25,1.62,1.89,0,2.79-.75,2.79-1.68,0-.87-.51-1.42-3.62-2.06-3.25-.67-4.78-1.8-4.78-3.67,0-2.06,1.85-3.59,5.26-3.59,1.96,0,3.83.77,5.07,1.6l-1.18,1.57c-1.17-.78-2.59-1.26-4.11-1.26-1.83,0-2.54.72-2.54,1.57,0,.97.98,1.34,3.4,1.86,4.01.88,5.02,1.91,5.02,3.84,0,2.06-2,3.76-5.64,3.76-2.35,0-4.54-.88-6.05-1.92Z" style="fill: #19a3ff; stroke-width: 0px;"/>
      <path d="m378.06,516.75v-5.44h-3.4v-1.87l3.5-.13.33-3.91h2.08v3.91h5.82v2h-5.82v5.45c0,2.12.75,3.15,2.98,3.15,1.08,0,1.96-.22,2.81-.53l.51,1.83c-1.11.38-2.33.72-3.9.72-3.69,0-4.91-2.09-4.91-5.18Z" style="fill: #19a3ff; stroke-width: 0px;"/>
      <path d="m389.64,515.49c0-4.13,2.89-6.49,6.14-6.49s6.14,2.36,6.14,6.49-2.89,6.44-6.14,6.44-6.14-2.36-6.14-6.44Zm9.7,0c0-2.66-1.38-4.42-3.57-4.42s-3.57,1.76-3.57,4.42,1.38,4.38,3.57,4.38,3.57-1.74,3.57-4.38Z" style="fill: #19a3ff; stroke-width: 0px;"/>
      <path d="m406.81,509.3h2.08l.22,2.86h.06c1.27-2.01,3.17-3.16,5.37-3.16.96,0,1.67.14,2.42.5l-.55,2.13c-.84-.27-1.31-.39-2.26-.39-1.77,0-3.47.9-4.83,3.39v6.99h-2.51v-12.32Z" style="fill: #19a3ff; stroke-width: 0px;"/>
      <path d="m420.38,518.37c0-2.76,2.51-4.12,8.73-4.59-.09-1.52-.91-2.75-3.1-2.75-1.49,0-2.96.68-4.17,1.39l-.96-1.68c1.38-.85,3.43-1.75,5.57-1.75,3.4,0,5.16,1.95,5.16,5.2v7.42h-2.08l-.2-1.6h-.08c-1.32,1.03-3.03,1.9-4.72,1.9-2.36,0-4.17-1.39-4.17-3.56Zm8.73-.1v-2.89c-4.84.35-6.28,1.32-6.28,2.79,0,1.24,1.11,1.75,2.43,1.75s2.57-.62,3.85-1.66Z" style="fill: #19a3ff; stroke-width: 0px;"/>
      <path d="m435.3,523.84c0-.99.7-1.94,2-2.67v-.1c-.67-.37-1.26-1.01-1.26-2.05,0-.8.55-1.68,1.47-2.31v-.1c-.86-.63-1.55-1.72-1.55-3.19,0-2.76,2.3-4.43,4.96-4.43.72,0,1.33.1,1.88.3h5.07v1.96h-3.01c.48.53.91,1.36.91,2.25,0,2.69-2.14,4.21-4.85,4.21-.6,0-1.31-.13-1.98-.4-.55.35-.85.75-.85,1.29,0,.88.86,1.29,2.44,1.29h2.64c3.19,0,4.77.84,4.77,2.95,0,2.38-2.71,4.34-6.98,4.34-3.5,0-5.65-1.17-5.65-3.35Zm10.21-.58c0-1.07-.89-1.35-2.64-1.35h-2.18c-.76,0-1.37-.05-1.88-.19-1.02.57-1.39,1.19-1.39,1.83,0,1.2,1.34,1.92,3.79,1.92,2.63,0,4.3-1.05,4.3-2.21Zm-2-9.83c0-1.61-1.16-2.66-2.58-2.66s-2.58,1.05-2.58,2.66,1.17,2.69,2.58,2.69,2.58-1.03,2.58-2.69Z" style="fill: #19a3ff; stroke-width: 0px;"/>
      <path d="m450.39,515.44c0-4.01,3.02-6.44,6.32-6.44,3.62,0,5.67,2.38,5.67,5.82,0,.53-.06,1.04-.11,1.37h-10.14v-1.84h8.57l-.54.61c0-2.67-1.29-4.01-3.38-4.01s-3.93,1.59-3.93,4.5,1.9,4.52,4.55,4.52c1.38,0,2.49-.42,3.6-1.08l.88,1.59c-1.27.83-2.91,1.46-4.8,1.46-3.74,0-6.69-2.38-6.69-6.49Z" style="fill: #19a3ff; stroke-width: 0px;"/>
      <path d="m467,524.88c3.28-2.87,4.77-6.09,4.77-10.26s-1.49-7.39-4.77-10.26l1.39-1.21c3.45,2.77,5.57,6.63,5.57,11.47s-2.12,8.7-5.57,11.47l-1.39-1.21Z" style="fill: #19a3ff; stroke-width: 0px;"/>
      <path d="m481.54,524.07h5.15v-18.92h-5.15v-1.39h7.11v21.69h-7.11v-1.39Z" style="fill: #19a3ff; stroke-width: 0px;"/>
      <path d="m269.32,539.58h2.05l.2,1.49h.08c1.1-1.04,2.66-1.79,4.11-1.79,3.26,0,5.06,2.46,5.06,6.28,0,4.19-2.62,6.65-5.54,6.65-1.13,0-2.45-.56-3.51-1.53h-.06l.12,2.25v4.01h-2.51v-17.36Zm8.92,5.99c0-2.58-.94-4.2-3.16-4.2-1.01,0-2.13.5-3.25,1.65v5.83c1.02.93,2.18,1.26,2.97,1.26,1.96,0,3.44-1.63,3.44-4.54Z" style="fill: #ffc259; stroke-width: 0px;"/>
      <path d="m284.09,547.22v-7.65h2.51v7.32c0,2.13.71,3.15,2.57,3.15,1.29,0,2.22-.57,3.45-2.03v-8.43h2.51v12.32h-2.07l-.2-2.05h-.1c-1.2,1.4-2.61,2.36-4.48,2.36-2.89,0-4.19-1.77-4.19-4.98Z" style="fill: #ffc259; stroke-width: 0px;"/>
      <path d="m301.89,550.54h-.08l-.23,1.36h-1.99v-17.88h2.51v4.74l-.11,2.27h.08c1.06-1.07,2.55-1.75,3.93-1.75,3.26,0,5.08,2.46,5.08,6.26,0,4.22-2.62,6.67-5.5,6.67-1.2,0-2.6-.62-3.71-1.66Zm6.63-4.97c0-2.58-.94-4.2-3.16-4.2-1.01,0-2.13.5-3.25,1.65v5.83c1.02.93,2.18,1.26,3.01,1.26,1.92,0,3.4-1.63,3.4-4.54Z" style="fill: #ffc259; stroke-width: 0px;"/>
      <path d="m329.33,550.29l1.12-1.63c1.45.99,3.12,1.62,5.25,1.62,1.89,0,2.79-.75,2.79-1.68,0-.87-.51-1.42-3.62-2.06-3.25-.67-4.78-1.8-4.78-3.67,0-2.06,1.85-3.59,5.26-3.59,1.96,0,3.83.77,5.07,1.6l-1.18,1.57c-1.17-.78-2.59-1.26-4.11-1.26-1.83,0-2.54.72-2.54,1.57,0,.96.98,1.34,3.4,1.86,4.01.88,5.02,1.91,5.02,3.84,0,2.06-2,3.76-5.64,3.76-2.35,0-4.54-.88-6.05-1.92Z" style="fill: #ffc259; stroke-width: 0px;"/>
      <path d="m347.79,547.03v-5.44h-3.4v-1.88l3.5-.13.33-3.91h2.08v3.91h5.82v2.01h-5.82v5.45c0,2.12.75,3.15,2.98,3.15,1.08,0,1.96-.22,2.81-.53l.51,1.84c-1.11.38-2.33.72-3.9.72-3.69,0-4.91-2.08-4.91-5.18Z" style="fill: #ffc259; stroke-width: 0px;"/>
      <path d="m361.4,539.58h2.08l.22,2.86h.06c1.27-2.01,3.17-3.16,5.37-3.16.96,0,1.67.14,2.42.5l-.55,2.13c-.84-.27-1.31-.39-2.26-.39-1.77,0-3.47.9-4.83,3.39v6.99h-2.51v-12.32Z" style="fill: #ffc259; stroke-width: 0px;"/>
      <path d="m374.91,547.22v-7.65h2.51v7.32c0,2.13.71,3.15,2.57,3.15,1.29,0,2.22-.57,3.45-2.03v-8.43h2.51v12.32h-2.07l-.2-2.05h-.1c-1.2,1.4-2.61,2.36-4.48,2.36-2.89,0-4.19-1.77-4.19-4.98Z" style="fill: #ffc259; stroke-width: 0px;"/>
      <path d="m390.14,545.76c0-4.12,3.19-6.49,6.94-6.49,1.99,0,3.5.78,4.52,1.77l-1.21,1.59c-1-.81-2.01-1.29-3.2-1.29-2.65,0-4.47,1.76-4.47,4.42s1.8,4.38,4.41,4.38c1.46,0,2.68-.65,3.66-1.45l1.08,1.62c-1.4,1.22-3.15,1.9-4.94,1.9-3.86,0-6.78-2.36-6.78-6.44Z" style="fill: #ffc259; stroke-width: 0px;"/>
      <path d="m408.33,547.03v-5.44h-3.4v-1.88l3.5-.13.33-3.91h2.08v3.91h5.82v2.01h-5.82v5.45c0,2.12.75,3.15,2.98,3.15,1.08,0,1.96-.22,2.81-.53l.51,1.84c-1.11.38-2.33.72-3.9.72-3.69,0-4.91-2.08-4.91-5.18Z" style="fill: #ffc259; stroke-width: 0px;"/>
      <path d="m436.79,535.38h10.36v2.13h-7.83v5.12h6.64v2.13h-6.64v7.13h-2.53v-16.52Z" style="fill: #19a3ff; stroke-width: 0px;"/>
      <path d="m454.7,547.59v-11.56h-4.24v-2h6.75v13.72c0,1.71.97,2.4,2.32,2.4.67,0,1.39-.16,2.21-.52l.6,1.87c-1.18.46-2,.72-3.4.72-2.76,0-4.25-1.65-4.25-4.62Z" style="fill: #19a3ff; stroke-width: 0px;"/>
      <path d="m471.6,541.58h-5.51v-2.01h8.02v12.32h-2.51v-10.32Zm-.82-6.2c0-1.06.79-1.79,1.87-1.79s1.87.73,1.87,1.79-.79,1.78-1.87,1.78-1.87-.7-1.87-1.78Z" style="fill: #19a3ff; stroke-width: 0px;"/>
      <path d="m481.24,539.58h2.05l.2,1.49h.08c1.1-1.04,2.66-1.79,4.11-1.79,3.26,0,5.06,2.46,5.06,6.28,0,4.19-2.62,6.65-5.54,6.65-1.13,0-2.45-.56-3.51-1.53h-.06l.12,2.25v4.01h-2.51v-17.36Zm8.92,5.99c0-2.58-.94-4.2-3.16-4.2-1.01,0-2.13.5-3.25,1.65v5.83c1.02.93,2.18,1.26,2.97,1.26,1.96,0,3.44-1.63,3.44-4.54Z" style="fill: #19a3ff; stroke-width: 0px;"/>
      <path d="m496.38,539.58h2.05l.2,1.49h.08c1.1-1.04,2.66-1.79,4.11-1.79,3.26,0,5.06,2.46,5.06,6.28,0,4.19-2.62,6.65-5.54,6.65-1.13,0-2.45-.56-3.51-1.53h-.06l.12,2.25v4.01h-2.51v-17.36Zm8.92,5.99c0-2.58-.94-4.2-3.16-4.2-1.01,0-2.13.5-3.25,1.65v5.83c1.02.93,2.18,1.26,2.97,1.26,1.96,0,3.44-1.63,3.44-4.54Z" style="fill: #19a3ff; stroke-width: 0px;"/>
      <path d="m510.94,545.72c0-4.01,3.02-6.44,6.32-6.44,3.62,0,5.67,2.38,5.67,5.82,0,.53-.06,1.04-.11,1.36h-10.14v-1.84h8.58l-.54.61c0-2.67-1.29-4.01-3.38-4.01s-3.93,1.59-3.93,4.5,1.9,4.52,4.55,4.52c1.38,0,2.49-.42,3.6-1.08l.88,1.59c-1.27.84-2.91,1.46-4.8,1.46-3.74,0-6.69-2.38-6.69-6.49Z" style="fill: #19a3ff; stroke-width: 0px;"/>
      <path d="m527.91,539.58h2.08l.22,2.86h.06c1.27-2.01,3.17-3.16,5.37-3.16.96,0,1.67.14,2.42.5l-.55,2.13c-.84-.27-1.31-.39-2.26-.39-1.77,0-3.47.9-4.83,3.39v6.99h-2.51v-12.32Z" style="fill: #19a3ff; stroke-width: 0px;"/>
      <path d="m561,552.32c0-1.83.25-3.06.25-4.72,0-.96-.7-1.91-3.61-1.94v-1.54c2.91-.03,3.61-.98,3.61-1.94,0-1.58-.25-2.98-.25-4.72,0-2.63,1.5-3.42,4.68-3.42h1.66v1.39h-1.24c-2.45,0-2.98.58-2.98,2.16,0,1.41.14,2.9.14,4.45,0,1.71-.6,2.5-2.36,2.8v.1c1.76.3,2.36,1.09,2.36,2.8s-.14,2.96-.14,4.45c0,1.58.53,2.16,2.98,2.16h1.24v1.39h-1.66c-3.18,0-4.68-.79-4.68-3.42Z" style="fill: #fff; stroke-width: 0px;"/>
      <path d="m328.8,569.85h2.55l2.6,6.67c.46,1.24.89,2.47,1.3,3.69h.1c.42-1.22.8-2.45,1.28-3.69l2.6-6.67h2.41l-4.96,12.32h-2.84l-5.05-12.32Z" style="fill: #19a3ff; stroke-width: 0px;"/>
      <path d="m344.69,578.92c0-2.76,2.51-4.12,8.73-4.59-.09-1.52-.91-2.75-3.1-2.75-1.49,0-2.96.68-4.17,1.39l-.96-1.68c1.38-.85,3.43-1.75,5.57-1.75,3.4,0,5.16,1.95,5.16,5.21v7.42h-2.08l-.2-1.6h-.08c-1.32,1.03-3.03,1.9-4.72,1.9-2.36,0-4.17-1.38-4.17-3.56Zm8.73-.1v-2.89c-4.84.35-6.28,1.32-6.28,2.79,0,1.24,1.11,1.75,2.43,1.75s2.57-.62,3.85-1.66Z" style="fill: #19a3ff; stroke-width: 0px;"/>
      <path d="m363.88,577.86v-11.56h-4.24v-2h6.75v13.72c0,1.71.97,2.4,2.32,2.4.67,0,1.39-.16,2.21-.52l.6,1.87c-1.18.46-2,.72-3.4.72-2.76,0-4.25-1.65-4.25-4.62Z" style="fill: #19a3ff; stroke-width: 0px;"/>
      <path d="m374.91,577.5v-7.65h2.51v7.32c0,2.13.71,3.15,2.57,3.15,1.29,0,2.22-.57,3.45-2.03v-8.43h2.51v12.32h-2.07l-.2-2.05h-.1c-1.2,1.4-2.61,2.36-4.48,2.36-2.89,0-4.19-1.77-4.19-4.98Z" style="fill: #19a3ff; stroke-width: 0px;"/>
      <path d="m389.84,575.99c0-4.01,3.02-6.44,6.32-6.44,3.62,0,5.67,2.38,5.67,5.82,0,.53-.06,1.04-.11,1.36h-10.14v-1.84h8.57l-.54.61c0-2.67-1.29-4.01-3.38-4.01s-3.93,1.59-3.93,4.5,1.9,4.52,4.55,4.52c1.38,0,2.49-.42,3.6-1.08l.88,1.59c-1.27.84-2.91,1.46-4.8,1.46-3.74,0-6.69-2.38-6.69-6.49Z" style="fill: #19a3ff; stroke-width: 0px;"/>
      <path d="m408.64,571.32c0-1.36.98-2.36,2.27-2.36s2.27,1,2.27,2.36-.98,2.36-2.27,2.36-2.27-.97-2.27-2.36Zm0,8.8c0-1.36.98-2.36,2.27-2.36s2.27,1,2.27,2.36-.98,2.36-2.27,2.36-2.27-.97-2.27-2.36Z" style="fill: #fff; stroke-width: 0px;"/>
      <path d="m438.13,580.81h-.08l-.23,1.36h-1.99v-17.88h2.51v4.74l-.11,2.27h.08c1.06-1.07,2.55-1.75,3.93-1.75,3.26,0,5.08,2.46,5.08,6.26,0,4.22-2.62,6.67-5.5,6.67-1.2,0-2.6-.62-3.71-1.66Zm6.63-4.97c0-2.58-.94-4.2-3.16-4.2-1.01,0-2.13.5-3.25,1.65v5.83c1.02.93,2.18,1.26,3.01,1.26,1.92,0,3.4-1.63,3.4-4.54Z" style="fill: #f55; stroke-width: 0px;"/>
      <path d="m450.19,576.03c0-4.12,2.89-6.49,6.14-6.49s6.14,2.36,6.14,6.49-2.89,6.44-6.14,6.44-6.14-2.36-6.14-6.44Zm9.7,0c0-2.66-1.38-4.42-3.57-4.42s-3.57,1.76-3.57,4.42,1.38,4.38,3.57,4.38,3.57-1.74,3.57-4.38Z" style="fill: #f55; stroke-width: 0px;"/>
      <path d="m465.32,576.03c0-4.12,2.89-6.49,6.14-6.49s6.14,2.36,6.14,6.49-2.89,6.44-6.14,6.44-6.14-2.36-6.14-6.44Zm9.7,0c0-2.66-1.38-4.42-3.57-4.42s-3.57,1.76-3.57,4.42,1.38,4.38,3.57,4.38,3.57-1.74,3.57-4.38Z" style="fill: #f55; stroke-width: 0px;"/>
      <path d="m484.97,577.86v-11.56h-4.24v-2h6.75v13.72c0,1.71.97,2.4,2.32,2.4.67,0,1.39-.16,2.21-.52l.6,1.87c-1.18.46-2,.72-3.4.72-2.76,0-4.25-1.65-4.25-4.62Z" style="fill: #f55; stroke-width: 0px;"/>
      <path d="m499.02,586.04c2.17-.92,3.23-2.25,3.2-4.22l-.37-2.5,1.44,2.13c-.42.44-.95.58-1.48.58-1.17,0-2.17-.71-2.17-2.07s1.02-2.09,2.23-2.09c1.63,0,2.49,1.33,2.49,3.51,0,3.02-1.71,5.15-4.67,6.19l-.69-1.53Z" style="fill: #fff; stroke-width: 0px;"/>
      <path d="m269.65,614.9h1.22c2.45,0,3-.58,3-2.16,0-1.49-.14-2.78-.14-4.45s.58-2.5,2.34-2.8v-.1c-1.76-.3-2.34-1.09-2.34-2.8,0-1.54.14-3.04.14-4.45,0-1.58-.55-2.16-3-2.16h-1.22v-1.39h1.64c3.2,0,4.66.79,4.66,3.42,0,1.75-.24,3.14-.24,4.72,0,.96.7,1.91,3.61,1.94v1.54c-2.92.03-3.61.98-3.61,1.94,0,1.67.24,2.9.24,4.72,0,2.63-1.46,3.42-4.66,3.42h-1.64v-1.39Z" style="fill: #fff; stroke-width: 0px;"/>
      <path d="m274.82,662.68h-5.51v-2h8.02v12.32h-2.51v-10.32Zm-.82-6.2c0-1.06.79-1.79,1.87-1.79s1.87.73,1.87,1.79-.79,1.78-1.87,1.78-1.87-.7-1.87-1.78Z" style="fill: #ffc259; stroke-width: 0px;"/>
      <path d="m283.56,660.68h1.96l.2,1.59h.06c.59-1.1,1.35-1.9,2.78-1.9,1.18,0,1.94.71,2.28,2.1.64-1.26,1.43-2.1,2.85-2.1,1.73,0,2.74,1.39,2.74,3.85v8.78h-2.44v-8.6c0-1.25-.35-1.88-1.15-1.88s-1.18.57-1.75,1.72v8.77h-2.17v-8.6c0-1.25-.32-1.88-1.12-1.88-.75,0-1.25.57-1.78,1.72v8.77h-2.44v-12.32Z" style="fill: #ffc259; stroke-width: 0px;"/>
      <path d="m299.59,660.68h2.05l.2,1.49h.08c1.1-1.04,2.66-1.79,4.11-1.79,3.26,0,5.06,2.46,5.06,6.28,0,4.2-2.62,6.65-5.54,6.65-1.13,0-2.45-.56-3.51-1.53h-.06l.12,2.25v4.01h-2.51v-17.36Zm8.92,5.99c0-2.58-.94-4.2-3.16-4.2-1.01,0-2.13.5-3.25,1.65v5.83c1.02.93,2.18,1.26,2.97,1.26,1.96,0,3.44-1.63,3.44-4.54Z" style="fill: #ffc259; stroke-width: 0px;"/>
      <path d="m318.46,668.69v-11.56h-4.24v-2.01h6.75v13.72c0,1.71.97,2.4,2.32,2.4.67,0,1.39-.16,2.21-.52l.6,1.87c-1.18.46-2,.72-3.4.72-2.76,0-4.25-1.65-4.25-4.62Z" style="fill: #ffc259; stroke-width: 0px;"/>
      <path d="m345.97,656.48h10.36v2.13h-7.83v5.12h6.64v2.13h-6.64v7.13h-2.53v-16.52Z" style="fill: #19a3ff; stroke-width: 0px;"/>
      <path d="m363.88,668.69v-11.56h-4.24v-2.01h6.75v13.72c0,1.71.97,2.4,2.32,2.4.67,0,1.39-.16,2.21-.52l.6,1.87c-1.18.46-2,.72-3.4.72-2.76,0-4.25-1.65-4.25-4.62Z" style="fill: #19a3ff; stroke-width: 0px;"/>
      <path d="m380.78,662.68h-5.51v-2h8.02v12.32h-2.51v-10.32Zm-.82-6.2c0-1.06.79-1.79,1.87-1.79s1.87.73,1.87,1.79-.79,1.78-1.87,1.78-1.87-.7-1.87-1.78Z" style="fill: #19a3ff; stroke-width: 0px;"/>
      <path d="m390.42,660.68h2.05l.2,1.49h.08c1.1-1.04,2.66-1.79,4.11-1.79,3.26,0,5.06,2.46,5.06,6.28,0,4.2-2.62,6.65-5.54,6.65-1.13,0-2.45-.56-3.51-1.53h-.06l.12,2.25v4.01h-2.51v-17.36Zm8.92,5.99c0-2.58-.94-4.2-3.16-4.2-1.01,0-2.13.5-3.25,1.65v5.83c1.02.93,2.18,1.26,2.97,1.26,1.96,0,3.44-1.63,3.44-4.54Z" style="fill: #19a3ff; stroke-width: 0px;"/>
      <path d="m405.55,660.68h2.05l.2,1.49h.08c1.1-1.04,2.66-1.79,4.11-1.79,3.26,0,5.06,2.46,5.06,6.28,0,4.2-2.62,6.65-5.54,6.65-1.13,0-2.45-.56-3.51-1.53h-.06l.12,2.25v4.01h-2.51v-17.36Zm8.92,5.99c0-2.58-.94-4.2-3.16-4.2-1.01,0-2.13.5-3.25,1.65v5.83c1.02.93,2.18,1.26,2.97,1.26,1.96,0,3.44-1.63,3.44-4.54Z" style="fill: #19a3ff; stroke-width: 0px;"/>
      <path d="m420.11,666.82c0-4.01,3.02-6.44,6.32-6.44,3.62,0,5.67,2.38,5.67,5.82,0,.53-.06,1.04-.11,1.37h-10.14v-1.84h8.58l-.54.61c0-2.67-1.29-4.01-3.38-4.01s-3.93,1.59-3.93,4.5,1.9,4.52,4.55,4.52c1.38,0,2.49-.42,3.6-1.08l.88,1.59c-1.27.83-2.91,1.46-4.8,1.46-3.74,0-6.69-2.38-6.69-6.49Z" style="fill: #19a3ff; stroke-width: 0px;"/>
      <path d="m437.08,660.68h2.08l.22,2.86h.06c1.27-2.01,3.17-3.16,5.37-3.16.96,0,1.67.14,2.42.5l-.55,2.13c-.84-.27-1.31-.39-2.26-.39-1.77,0-3.47.9-4.83,3.39v6.99h-2.51v-12.32Z" style="fill: #19a3ff; stroke-width: 0px;"/>
      <path d="m470.18,673.42c0-1.83.25-3.06.25-4.72,0-.96-.7-1.91-3.61-1.94v-1.54c2.91-.03,3.61-.98,3.61-1.94,0-1.58-.25-2.98-.25-4.72,0-2.63,1.5-3.42,4.68-3.42h1.66v1.39h-1.24c-2.45,0-2.98.58-2.98,2.16,0,1.41.14,2.9.14,4.45,0,1.71-.6,2.5-2.36,2.8v.1c1.76.3,2.36,1.09,2.36,2.8s-.14,2.96-.14,4.45c0,1.58.53,2.16,2.98,2.16h1.24v1.39h-1.66c-3.18,0-4.68-.79-4.68-3.42Z" style="fill: #fff; stroke-width: 0px;"/>
      <path d="m329.75,696.55h10.6v1.7h-10.6v-1.7Zm.5-5.17h10.6v1.7h-10.6v-1.7Zm2.88-4.5h1.54l-1.99,16.39h-1.57l2.02-16.39Zm4.71,0h1.54l-1.99,16.39h-1.57l2.02-16.39Z" style="fill: #19a3ff; stroke-width: 0px;"/>
      <path d="m348.31,685.42h7.11v1.39h-5.15v18.92h5.15v1.39h-7.11v-21.69Z" style="fill: #19a3ff; stroke-width: 0px;"/>
      <path d="m365.64,692.96h-5.51v-2.01h8.02v12.32h-2.51v-10.32Zm-.82-6.2c0-1.06.79-1.79,1.87-1.79s1.87.73,1.87,1.79-.79,1.78-1.87,1.78-1.87-.7-1.87-1.78Z" style="fill: #19a3ff; stroke-width: 0px;"/>
      <path d="m375.28,690.95h2.05l.2,1.96h.1c1.23-1.27,2.64-2.27,4.54-2.27,2.88,0,4.2,1.77,4.2,4.98v7.65h-2.51v-7.32c0-2.15-.72-3.15-2.55-3.15-1.34,0-2.24.66-3.52,1.96v8.5h-2.51v-12.32Z" style="fill: #19a3ff; stroke-width: 0px;"/>
      <path d="m390.66,685.39h2.51v11.63h.1l6.07-6.07h2.82l-9,9.04v3.28h-2.51v-17.88Zm4.84,11.59l1.49-1.61,5.77,7.9h-2.76l-4.49-6.29Z" style="fill: #19a3ff; stroke-width: 0px;"/>
      <path d="m408.41,696.26c0-4.83,2.12-8.7,5.57-11.47l1.39,1.21c-3.28,2.87-4.77,6.09-4.77,10.26s1.49,7.39,4.77,10.26l-1.39,1.21c-3.45-2.77-5.57-6.63-5.57-11.47Z" style="fill: #19a3ff; stroke-width: 0px;"/>
      <path d="m420.42,697.13c0-4.12,3.19-6.49,6.94-6.49,1.99,0,3.5.78,4.52,1.77l-1.21,1.59c-1-.81-2.01-1.29-3.2-1.29-2.65,0-4.47,1.76-4.47,4.42s1.8,4.38,4.41,4.38c1.46,0,2.68-.65,3.66-1.45l1.08,1.62c-1.4,1.22-3.15,1.9-4.94,1.9-3.86,0-6.78-2.36-6.78-6.44Z" style="fill: #19a3ff; stroke-width: 0px;"/>
      <path d="m435.05,697.13c0-4.12,2.89-6.49,6.14-6.49s6.14,2.36,6.14,6.49-2.89,6.44-6.14,6.44-6.14-2.36-6.14-6.44Zm9.7,0c0-2.66-1.38-4.42-3.57-4.42s-3.57,1.76-3.57,4.42,1.38,4.38,3.57,4.38,3.57-1.74,3.57-4.38Z" style="fill: #19a3ff; stroke-width: 0px;"/>
      <path d="m450.97,690.95h2.05l.2,1.96h.1c1.23-1.27,2.64-2.27,4.54-2.27,2.88,0,4.2,1.77,4.2,4.98v7.65h-2.51v-7.32c0-2.15-.72-3.15-2.55-3.15-1.34,0-2.24.66-3.52,1.96v8.5h-2.51v-12.32Z" style="fill: #19a3ff; stroke-width: 0px;"/>
      <path d="m465.57,701.66l1.12-1.63c1.45.99,3.12,1.62,5.25,1.62,1.89,0,2.79-.75,2.79-1.68,0-.87-.51-1.42-3.62-2.06-3.25-.67-4.78-1.8-4.78-3.67,0-2.06,1.85-3.59,5.26-3.59,1.96,0,3.83.77,5.07,1.6l-1.18,1.57c-1.17-.78-2.59-1.26-4.11-1.26-1.83,0-2.54.72-2.54,1.57,0,.96.98,1.34,3.4,1.86,4.01.88,5.02,1.91,5.02,3.84,0,2.06-2,3.76-5.64,3.76-2.35,0-4.54-.88-6.05-1.92Z" style="fill: #19a3ff; stroke-width: 0px;"/>
      <path d="m484.02,698.4v-5.44h-3.4v-1.88l3.5-.13.33-3.91h2.08v3.91h5.82v2.01h-5.82v5.45c0,2.12.75,3.15,2.98,3.15,1.08,0,1.96-.22,2.81-.53l.51,1.84c-1.11.38-2.33.72-3.9.72-3.69,0-4.91-2.08-4.91-5.18Z" style="fill: #19a3ff; stroke-width: 0px;"/>
      <path d="m497.63,690.95h2.08l.22,2.86h.06c1.27-2.01,3.17-3.16,5.37-3.16.96,0,1.67.14,2.42.5l-.55,2.13c-.84-.27-1.31-.39-2.26-.39-1.77,0-3.47.9-4.83,3.39v6.99h-2.51v-12.32Z" style="fill: #19a3ff; stroke-width: 0px;"/>
      <path d="m511.15,698.6v-7.65h2.51v7.32c0,2.13.71,3.15,2.57,3.15,1.29,0,2.22-.57,3.45-2.03v-8.43h2.51v12.32h-2.07l-.2-2.05h-.1c-1.2,1.4-2.61,2.36-4.48,2.36-2.89,0-4.19-1.77-4.19-4.98Z" style="fill: #19a3ff; stroke-width: 0px;"/>
      <path d="m526.38,697.13c0-4.12,3.19-6.49,6.94-6.49,1.99,0,3.5.78,4.52,1.77l-1.21,1.59c-1-.81-2.01-1.29-3.2-1.29-2.65,0-4.47,1.76-4.47,4.42s1.8,4.38,4.41,4.38c1.46,0,2.68-.65,3.66-1.45l1.08,1.62c-1.4,1.22-3.15,1.9-4.94,1.9-3.86,0-6.78-2.36-6.78-6.44Z" style="fill: #19a3ff; stroke-width: 0px;"/>
      <path d="m544.57,698.4v-5.44h-3.4v-1.88l3.5-.13.33-3.91h2.08v3.91h5.82v2.01h-5.82v5.45c0,2.12.75,3.15,2.98,3.15,1.08,0,1.96-.22,2.81-.53l.51,1.84c-1.11.38-2.33.72-3.9.72-3.69,0-4.91-2.08-4.91-5.18Z" style="fill: #19a3ff; stroke-width: 0px;"/>
      <path d="m556.15,697.13c0-4.12,2.89-6.49,6.14-6.49s6.14,2.36,6.14,6.49-2.89,6.44-6.14,6.44-6.14-2.36-6.14-6.44Zm9.7,0c0-2.66-1.38-4.42-3.57-4.42s-3.57,1.76-3.57,4.42,1.38,4.38,3.57,4.38,3.57-1.74,3.57-4.38Z" style="fill: #19a3ff; stroke-width: 0px;"/>
      <path d="m573.32,690.95h2.08l.22,2.86h.06c1.27-2.01,3.17-3.16,5.37-3.16.96,0,1.67.14,2.42.5l-.55,2.13c-.84-.27-1.31-.39-2.26-.39-1.77,0-3.47.9-4.83,3.39v6.99h-2.51v-12.32Z" style="fill: #19a3ff; stroke-width: 0px;"/>
      <path d="m588.1,706.52c3.28-2.87,4.78-6.09,4.78-10.26s-1.49-7.39-4.78-10.26l1.39-1.21c3.45,2.77,5.57,6.63,5.57,11.47s-2.12,8.7-5.57,11.47l-1.39-1.21Z" style="fill: #19a3ff; stroke-width: 0px;"/>
      <path d="m602.64,705.72h5.15v-18.92h-5.15v-1.39h7.11v21.69h-7.11v-1.39Z" style="fill: #19a3ff; stroke-width: 0px;"/>
      <path d="m329.87,721.23h2.05l.2,1.49h.08c1.1-1.04,2.66-1.79,4.11-1.79,3.26,0,5.06,2.46,5.06,6.28,0,4.2-2.62,6.65-5.54,6.65-1.13,0-2.45-.56-3.51-1.53h-.06l.12,2.25v4.01h-2.51v-17.36Zm8.92,5.99c0-2.58-.94-4.2-3.16-4.2-1.01,0-2.13.5-3.25,1.65v5.83c1.02.93,2.18,1.26,2.97,1.26,1.96,0,3.44-1.63,3.44-4.54Z" style="fill: #ffc259; stroke-width: 0px;"/>
      <path d="m344.64,728.87v-7.65h2.51v7.32c0,2.13.71,3.15,2.57,3.15,1.29,0,2.22-.57,3.45-2.03v-8.43h2.51v12.32h-2.07l-.2-2.05h-.1c-1.2,1.4-2.61,2.36-4.48,2.36-2.89,0-4.19-1.77-4.19-4.98Z" style="fill: #ffc259; stroke-width: 0px;"/>
      <path d="m362.44,732.19h-.08l-.23,1.36h-1.99v-17.88h2.51v4.74l-.11,2.27h.08c1.06-1.07,2.55-1.75,3.93-1.75,3.26,0,5.08,2.46,5.08,6.26,0,4.22-2.62,6.67-5.5,6.67-1.2,0-2.6-.62-3.71-1.67Zm6.63-4.97c0-2.58-.94-4.2-3.16-4.2-1.01,0-2.13.5-3.25,1.65v5.83c1.02.93,2.18,1.26,3.01,1.26,1.92,0,3.4-1.63,3.4-4.54Z" style="fill: #ffc259; stroke-width: 0px;"/>
      <path d="m390.67,721.36l3.52-.13h7.33v2h-10.86v-1.87Zm3.46-.98c0-2.95,1.59-5.01,5.11-5.01,1.27,0,2.47.25,3.6.7l-.54,1.87c-.95-.4-1.76-.56-2.79-.56-2.04,0-2.89,1.09-2.89,2.94v13.24h-2.49v-13.17Z" style="fill: #ffc259; stroke-width: 0px;"/>
      <path d="m405.55,721.23h2.05l.2,1.96h.1c1.23-1.27,2.64-2.27,4.54-2.27,2.88,0,4.2,1.77,4.2,4.98v7.65h-2.51v-7.32c0-2.15-.72-3.15-2.55-3.15-1.34,0-2.24.66-3.52,1.96v8.5h-2.51v-12.32Z" style="fill: #ffc259; stroke-width: 0px;"/>
      <path d="m435.83,721.23h2.05l.2,1.96h.1c1.23-1.27,2.64-2.27,4.54-2.27,2.88,0,4.2,1.77,4.2,4.98v7.65h-2.51v-7.32c0-2.15-.72-3.15-2.55-3.15-1.34,0-2.24.66-3.52,1.96v8.5h-2.51v-12.32Z" style="fill: #19a3ff; stroke-width: 0px;"/>
      <path d="m450.39,727.37c0-4.01,3.02-6.44,6.32-6.44,3.62,0,5.67,2.38,5.67,5.82,0,.53-.06,1.04-.11,1.37h-10.14v-1.84h8.57l-.54.61c0-2.67-1.29-4.01-3.38-4.01s-3.93,1.59-3.93,4.5,1.9,4.52,4.55,4.52c1.38,0,2.49-.42,3.6-1.08l.88,1.59c-1.27.83-2.91,1.46-4.8,1.46-3.74,0-6.69-2.38-6.69-6.49Z" style="fill: #19a3ff; stroke-width: 0px;"/>
      <path d="m464.07,721.23h2.46l1.28,6.77c.21,1.18.37,2.28.52,3.46h.1c.15-1.19.4-2.32.67-3.46l1.33-5.78h2.23l1.29,5.78c.27,1.18.57,2.28.72,3.46h.1c.19-1.19.3-2.29.5-3.46l1.26-6.77h2.31l-2.44,12.32h-3.11l-1.22-5.39c-.19-.91-.38-2.12-.57-3.65h-.1c-.18,1.43-.36,2.61-.56,3.65l-1.18,5.39h-3.09l-2.51-12.32Z" style="fill: #19a3ff; stroke-width: 0px;"/>
      <path d="m484.1,726.54c0-4.84,2.12-8.7,5.57-11.47l1.39,1.21c-3.28,2.87-4.77,6.09-4.77,10.26s1.49,7.39,4.77,10.26l-1.39,1.21c-3.45-2.77-5.57-6.63-5.57-11.47Z" style="fill: #19a3ff; stroke-width: 0px;"/>
      <path d="m495.31,721.23h2.55l2.6,6.67c.46,1.24.89,2.47,1.3,3.69h.1c.42-1.22.8-2.45,1.28-3.69l2.6-6.67h2.41l-4.96,12.32h-2.84l-5.05-12.32Z" style="fill: #19a3ff; stroke-width: 0px;"/>
      <path d="m511.2,730.3c0-2.76,2.51-4.12,8.73-4.59-.09-1.52-.91-2.75-3.1-2.75-1.49,0-2.96.68-4.17,1.39l-.96-1.68c1.38-.85,3.43-1.75,5.57-1.75,3.4,0,5.16,1.95,5.16,5.2v7.42h-2.08l-.2-1.6h-.08c-1.32,1.03-3.03,1.9-4.72,1.9-2.36,0-4.17-1.39-4.17-3.56Zm8.73-.1v-2.89c-4.84.35-6.28,1.32-6.28,2.79,0,1.24,1.11,1.75,2.43,1.75s2.57-.62,3.85-1.66Z" style="fill: #19a3ff; stroke-width: 0px;"/>
      <path d="m530.38,729.24v-11.56h-4.24v-2.01h6.75v13.72c0,1.71.97,2.4,2.32,2.4.67,0,1.39-.16,2.21-.52l.6,1.87c-1.18.46-2,.72-3.4.72-2.76,0-4.25-1.65-4.25-4.62Z" style="fill: #19a3ff; stroke-width: 0px;"/>
      <path d="m541.42,728.87v-7.65h2.51v7.32c0,2.13.71,3.15,2.57,3.15,1.29,0,2.22-.57,3.45-2.03v-8.43h2.51v12.32h-2.07l-.2-2.05h-.1c-1.2,1.4-2.61,2.36-4.48,2.36-2.89,0-4.19-1.77-4.19-4.98Z" style="fill: #19a3ff; stroke-width: 0px;"/>
      <path d="m556.35,727.37c0-4.01,3.02-6.44,6.32-6.44,3.62,0,5.67,2.38,5.67,5.82,0,.53-.06,1.04-.11,1.37h-10.14v-1.84h8.58l-.54.61c0-2.67-1.29-4.01-3.38-4.01s-3.93,1.59-3.93,4.5,1.9,4.52,4.55,4.52c1.38,0,2.49-.42,3.6-1.08l.88,1.59c-1.27.83-2.91,1.46-4.8,1.46-3.74,0-6.69-2.38-6.69-6.49Z" style="fill: #19a3ff; stroke-width: 0px;"/>
      <path d="m575.15,722.69c0-1.36.98-2.36,2.27-2.36s2.27,1,2.27,2.36-.98,2.36-2.27,2.36-2.27-.97-2.27-2.36Zm0,8.8c0-1.36.98-2.36,2.27-2.36s2.27,1,2.27,2.36-.98,2.36-2.27,2.36-2.27-.97-2.27-2.36Z" style="fill: #fff; stroke-width: 0px;"/>
      <path d="m604.63,732.19h-.08l-.23,1.36h-1.99v-17.88h2.51v4.74l-.11,2.27h.08c1.06-1.07,2.55-1.75,3.93-1.75,3.26,0,5.08,2.46,5.08,6.26,0,4.22-2.62,6.67-5.49,6.67-1.2,0-2.6-.62-3.71-1.67Zm6.63-4.97c0-2.58-.94-4.2-3.16-4.2-1.01,0-2.13.5-3.25,1.65v5.83c1.02.93,2.18,1.26,3.01,1.26,1.92,0,3.4-1.63,3.4-4.54Z" style="fill: #f55; stroke-width: 0px;"/>
      <path d="m616.7,727.41c0-4.13,2.89-6.49,6.14-6.49s6.14,2.36,6.14,6.49-2.89,6.44-6.14,6.44-6.14-2.36-6.14-6.44Zm9.71,0c0-2.66-1.38-4.42-3.57-4.42s-3.57,1.76-3.57,4.42,1.38,4.38,3.57,4.38,3.57-1.74,3.57-4.38Z" style="fill: #f55; stroke-width: 0px;"/>
      <path d="m631.83,727.41c0-4.13,2.89-6.49,6.14-6.49s6.14,2.36,6.14,6.49-2.89,6.44-6.14,6.44-6.14-2.36-6.14-6.44Zm9.71,0c0-2.66-1.38-4.42-3.57-4.42s-3.57,1.76-3.57,4.42,1.38,4.38,3.57,4.38,3.57-1.74,3.57-4.38Z" style="fill: #f55; stroke-width: 0px;"/>
      <path d="m651.48,729.24v-11.56h-4.23v-2.01h6.75v13.72c0,1.71.97,2.4,2.32,2.4.67,0,1.39-.16,2.21-.52l.61,1.87c-1.18.46-2,.72-3.4.72-2.76,0-4.25-1.65-4.25-4.62Z" style="fill: #f55; stroke-width: 0px;"/>
      <path d="m663.78,736.8c3.28-2.87,4.78-6.09,4.78-10.26s-1.49-7.39-4.78-10.26l1.39-1.21c3.45,2.77,5.57,6.63,5.57,11.47s-2.12,8.7-5.57,11.47l-1.39-1.21Z" style="fill: #fff; stroke-width: 0px;"/>
      <path d="m693,724.31h11.04v1.84h-11.04v-1.84Z" style="fill: #bb82fa; stroke-width: 0px;"/>
      <path d="m708.73,730.09l7.34-4.86v-.1l-7.34-4.86v-2.37l9.5,6.35v1.86l-9.5,6.35v-2.37Z" style="fill: #bb82fa; stroke-width: 0px;"/>
      <path d="m737.95,731.43l1.49-1.75c1.26,1.18,2.93,1.96,4.72,1.96,2.09,0,3.25-.96,3.25-2.29,0-1.62-1.21-2.06-2.84-2.75l-2.33-1.02c-1.69-.67-3.54-1.89-3.54-4.32,0-2.57,2.32-4.52,5.58-4.52,2.04,0,3.91.81,5.19,2.07l-1.31,1.62c-1.1-.93-2.3-1.47-3.99-1.47s-2.91.8-2.91,2.16c0,1.43,1.43,1.96,2.88,2.52l2.24.99c2.07.81,3.62,2.01,3.62,4.43,0,2.65-2.24,4.82-5.98,4.82-2.37,0-4.51-.92-6.07-2.43Z" style="fill: #f55; stroke-width: 0px;"/>
      <path d="m753.13,727.37c0-4.01,3.02-6.44,6.32-6.44,3.62,0,5.67,2.38,5.67,5.82,0,.53-.06,1.04-.11,1.37h-10.14v-1.84h8.57l-.54.61c0-2.67-1.29-4.01-3.38-4.01s-3.93,1.59-3.93,4.5,1.9,4.52,4.55,4.52c1.38,0,2.49-.42,3.6-1.08l.88,1.59c-1.27.83-2.91,1.46-4.8,1.46-3.74,0-6.69-2.38-6.69-6.49Z" style="fill: #f55; stroke-width: 0px;"/>
      <path d="m772.58,729.24v-11.56h-4.24v-2.01h6.75v13.72c0,1.71.97,2.4,2.32,2.4.67,0,1.39-.16,2.21-.52l.6,1.87c-1.18.46-2,.72-3.4.72-2.76,0-4.25-1.65-4.25-4.62Z" style="fill: #f55; stroke-width: 0px;"/>
      <path d="m784.24,721.36l3.52-.13h7.33v2h-10.86v-1.87Zm3.46-.98c0-2.95,1.59-5.01,5.11-5.01,1.27,0,2.46.25,3.6.7l-.54,1.87c-.95-.4-1.76-.56-2.79-.56-2.04,0-2.89,1.09-2.89,2.94v13.24h-2.49v-13.17Z" style="fill: #f55; stroke-width: 0px;"/>
      <path d="m818.34,733.97c0-1.83.25-3.06.25-4.72,0-.96-.7-1.91-3.61-1.94v-1.54c2.91-.03,3.61-.98,3.61-1.94,0-1.58-.25-2.98-.25-4.72,0-2.63,1.5-3.42,4.68-3.42h1.66v1.39h-1.24c-2.45,0-2.98.58-2.98,2.16,0,1.41.14,2.9.14,4.45,0,1.71-.6,2.5-2.36,2.8v.1c1.76.3,2.36,1.09,2.36,2.8s-.14,2.96-.14,4.45c0,1.58.53,2.16,2.98,2.16h1.24v1.39h-1.66c-3.18,0-4.68-.79-4.68-3.42Z" style="fill: #fff; stroke-width: 0px;"/>
      <path d="m389.79,761.7l1.49-1.75c1.26,1.18,2.92,1.96,4.72,1.96,2.09,0,3.25-.96,3.25-2.29,0-1.62-1.21-2.06-2.84-2.75l-2.33-1.02c-1.69-.67-3.54-1.89-3.54-4.32,0-2.57,2.32-4.52,5.58-4.52,2.04,0,3.91.81,5.19,2.07l-1.31,1.62c-1.1-.93-2.3-1.47-3.99-1.47s-2.91.8-2.91,2.16c0,1.43,1.43,1.96,2.88,2.52l2.24.99c2.07.81,3.62,2.01,3.62,4.43,0,2.65-2.24,4.82-5.98,4.82-2.37,0-4.51-.92-6.07-2.43Z" style="fill: #f55; stroke-width: 0px;"/>
      <path d="m404.98,757.64c0-4.01,3.02-6.44,6.32-6.44,3.62,0,5.67,2.38,5.67,5.82,0,.53-.06,1.04-.11,1.37h-10.14v-1.84h8.57l-.54.61c0-2.67-1.29-4.01-3.38-4.01s-3.93,1.59-3.93,4.5,1.9,4.52,4.55,4.52c1.38,0,2.49-.42,3.6-1.08l.88,1.59c-1.27.83-2.91,1.46-4.8,1.46-3.74,0-6.69-2.38-6.69-6.49Z" style="fill: #f55; stroke-width: 0px;"/>
      <path d="m424.42,759.51v-11.56h-4.24v-2.01h6.75v13.72c0,1.71.97,2.4,2.32,2.4.67,0,1.39-.16,2.21-.52l.6,1.87c-1.18.46-2,.72-3.4.72-2.76,0-4.25-1.65-4.25-4.62Z" style="fill: #f55; stroke-width: 0px;"/>
      <path d="m436.08,751.63l3.52-.13h7.33v2h-10.86v-1.87Zm3.46-.98c0-2.95,1.59-5.01,5.11-5.01,1.27,0,2.47.25,3.6.7l-.54,1.87c-.95-.4-1.76-.56-2.79-.56-2.04,0-2.89,1.09-2.89,2.94v13.24h-2.49v-13.17Z" style="fill: #f55; stroke-width: 0px;"/>
      <path d="m470.18,764.24c0-1.83.25-3.06.25-4.72,0-.96-.7-1.91-3.61-1.94v-1.54c2.91-.03,3.61-.98,3.61-1.94,0-1.58-.25-2.98-.25-4.72,0-2.63,1.5-3.42,4.68-3.42h1.66v1.39h-1.24c-2.45,0-2.98.58-2.98,2.16,0,1.41.14,2.9.14,4.45,0,1.71-.6,2.5-2.36,2.8v.1c1.76.3,2.36,1.09,2.36,2.8s-.14,2.96-.14,4.45c0,1.58.53,2.16,2.98,2.16h1.24v1.39h-1.66c-3.18,0-4.68-.79-4.68-3.42Z" style="fill: #fff; stroke-width: 0px;"/>
      <path d="m495.31,751.5h2.55l2.6,6.67c.46,1.24.89,2.47,1.3,3.69h.1c.42-1.22.8-2.45,1.28-3.69l2.6-6.67h2.41l-4.96,12.32h-2.84l-5.05-12.32Z" style="fill: #19a3ff; stroke-width: 0px;"/>
      <path d="m511.2,760.57c0-2.76,2.51-4.12,8.73-4.59-.09-1.52-.91-2.75-3.1-2.75-1.49,0-2.96.68-4.17,1.39l-.96-1.68c1.38-.85,3.43-1.75,5.57-1.75,3.4,0,5.16,1.95,5.16,5.2v7.42h-2.08l-.2-1.6h-.08c-1.32,1.03-3.03,1.9-4.72,1.9-2.36,0-4.17-1.39-4.17-3.56Zm8.73-.1v-2.89c-4.84.35-6.28,1.32-6.28,2.79,0,1.24,1.11,1.75,2.43,1.75s2.57-.62,3.85-1.66Z" style="fill: #19a3ff; stroke-width: 0px;"/>
      <path d="m530.38,759.51v-11.56h-4.24v-2.01h6.75v13.72c0,1.71.97,2.4,2.32,2.4.67,0,1.39-.16,2.21-.52l.6,1.87c-1.18.46-2,.72-3.4.72-2.76,0-4.25-1.65-4.25-4.62Z" style="fill: #19a3ff; stroke-width: 0px;"/>
      <path d="m541.42,759.15v-7.65h2.51v7.32c0,2.13.71,3.15,2.57,3.15,1.29,0,2.22-.57,3.45-2.03v-8.43h2.51v12.32h-2.07l-.2-2.05h-.1c-1.2,1.4-2.61,2.36-4.48,2.36-2.89,0-4.19-1.77-4.19-4.98Z" style="fill: #19a3ff; stroke-width: 0px;"/>
      <path d="m556.35,757.64c0-4.01,3.02-6.44,6.32-6.44,3.62,0,5.67,2.38,5.67,5.82,0,.53-.06,1.04-.11,1.37h-10.14v-1.84h8.58l-.54.61c0-2.67-1.29-4.01-3.38-4.01s-3.93,1.59-3.93,4.5,1.9,4.52,4.55,4.52c1.38,0,2.49-.42,3.6-1.08l.88,1.59c-1.27.83-2.91,1.46-4.8,1.46-3.74,0-6.69-2.38-6.69-6.49Z" style="fill: #19a3ff; stroke-width: 0px;"/>
      <path d="m587.53,766.27h1.22c2.45,0,3-.58,3-2.16,0-1.49-.14-2.78-.14-4.45s.58-2.5,2.34-2.8v-.1c-1.76-.3-2.34-1.09-2.34-2.8,0-1.54.14-3.04.14-4.45,0-1.58-.55-2.16-3-2.16h-1.22v-1.39h1.64c3.2,0,4.65.79,4.65,3.42,0,1.75-.24,3.14-.24,4.72,0,.96.7,1.91,3.61,1.94v1.54c-2.92.03-3.61.98-3.61,1.94,0,1.67.24,2.9.24,4.72,0,2.63-1.46,3.42-4.65,3.42h-1.64v-1.39Z" style="fill: #fff; stroke-width: 0px;"/>
      <path d="m330.2,796.55h1.22c2.45,0,3-.58,3-2.16,0-1.49-.14-2.78-.14-4.45s.58-2.5,2.34-2.8v-.1c-1.76-.3-2.34-1.09-2.34-2.8,0-1.54.14-3.04.14-4.45,0-1.58-.55-2.16-3-2.16h-1.22v-1.39h1.64c3.2,0,4.66.79,4.66,3.42,0,1.75-.24,3.14-.24,4.72,0,.96.7,1.91,3.61,1.94v1.54c-2.92.03-3.61.98-3.61,1.94,0,1.67.24,2.89.24,4.72,0,2.63-1.46,3.42-4.66,3.42h-1.64v-1.39Z" style="fill: #fff; stroke-width: 0px;"/>
      <path d="m329.75,847.92h10.6v1.7h-10.6v-1.7Zm.5-5.17h10.6v1.7h-10.6v-1.7Zm2.88-4.5h1.54l-1.99,16.39h-1.57l2.02-16.39Zm4.71,0h1.54l-1.99,16.39h-1.57l2.02-16.39Z" style="fill: #19a3ff; stroke-width: 0px;"/>
      <path d="m348.31,836.79h7.11v1.39h-5.15v18.92h5.15v1.39h-7.11v-21.69Z" style="fill: #19a3ff; stroke-width: 0px;"/>
      <path d="m365.64,844.33h-5.51v-2.01h8.02v12.32h-2.51v-10.32Zm-.82-6.2c0-1.06.79-1.79,1.87-1.79s1.87.73,1.87,1.79-.79,1.78-1.87,1.78-1.87-.7-1.87-1.78Z" style="fill: #19a3ff; stroke-width: 0px;"/>
      <path d="m375.28,842.33h2.05l.2,1.96h.1c1.23-1.27,2.64-2.27,4.54-2.27,2.88,0,4.2,1.77,4.2,4.98v7.65h-2.51v-7.32c0-2.15-.72-3.15-2.55-3.15-1.34,0-2.24.66-3.52,1.96v8.5h-2.51v-12.32Z" style="fill: #19a3ff; stroke-width: 0px;"/>
      <path d="m390.66,836.77h2.51v11.63h.1l6.07-6.07h2.82l-9,9.04v3.28h-2.51v-17.88Zm4.84,11.59l1.49-1.61,5.77,7.9h-2.76l-4.49-6.29Z" style="fill: #19a3ff; stroke-width: 0px;"/>
      <path d="m408.41,847.64c0-4.83,2.12-8.7,5.57-11.47l1.39,1.21c-3.28,2.87-4.77,6.09-4.77,10.26s1.49,7.39,4.77,10.26l-1.39,1.21c-3.45-2.77-5.57-6.63-5.57-11.47Z" style="fill: #19a3ff; stroke-width: 0px;"/>
      <path d="m419.8,842.33h1.96l.2,1.6h.06c.59-1.1,1.35-1.9,2.78-1.9,1.18,0,1.94.71,2.28,2.1.64-1.26,1.43-2.1,2.85-2.1,1.73,0,2.74,1.39,2.74,3.85v8.78h-2.44v-8.6c0-1.25-.35-1.88-1.15-1.88s-1.18.57-1.75,1.72v8.77h-2.17v-8.6c0-1.25-.32-1.88-1.12-1.88-.75,0-1.25.57-1.78,1.72v8.77h-2.44v-12.32Z" style="fill: #19a3ff; stroke-width: 0px;"/>
      <path d="m435.25,848.47c0-4.01,3.02-6.44,6.32-6.44,3.62,0,5.67,2.38,5.67,5.82,0,.53-.06,1.04-.11,1.36h-10.14v-1.84h8.58l-.54.61c0-2.67-1.29-4.01-3.38-4.01s-3.93,1.59-3.93,4.5,1.9,4.52,4.55,4.52c1.38,0,2.49-.42,3.6-1.08l.88,1.59c-1.27.84-2.91,1.46-4.8,1.46-3.74,0-6.69-2.38-6.69-6.49Z" style="fill: #19a3ff; stroke-width: 0px;"/>
      <path d="m450.43,853.04l1.12-1.63c1.45.99,3.12,1.62,5.25,1.62,1.89,0,2.79-.75,2.79-1.68,0-.87-.51-1.42-3.62-2.06-3.25-.67-4.78-1.8-4.78-3.67,0-2.06,1.85-3.59,5.26-3.59,1.96,0,3.83.77,5.07,1.6l-1.18,1.57c-1.17-.78-2.59-1.26-4.11-1.26-1.83,0-2.54.72-2.54,1.57,0,.96.98,1.34,3.4,1.86,4.01.88,5.02,1.91,5.02,3.84,0,2.06-2,3.76-5.64,3.76-2.35,0-4.54-.88-6.05-1.92Z" style="fill: #19a3ff; stroke-width: 0px;"/>
      <path d="m465.57,853.04l1.12-1.63c1.45.99,3.12,1.62,5.25,1.62,1.89,0,2.79-.75,2.79-1.68,0-.87-.51-1.42-3.62-2.06-3.25-.67-4.78-1.8-4.78-3.67,0-2.06,1.85-3.59,5.26-3.59,1.96,0,3.83.77,5.07,1.6l-1.18,1.57c-1.17-.78-2.59-1.26-4.11-1.26-1.83,0-2.54.72-2.54,1.57,0,.96.98,1.34,3.4,1.86,4.01.88,5.02,1.91,5.02,3.84,0,2.06-2,3.76-5.64,3.76-2.35,0-4.54-.88-6.05-1.92Z" style="fill: #19a3ff; stroke-width: 0px;"/>
      <path d="m480.93,851.4c0-2.76,2.51-4.12,8.73-4.59-.09-1.52-.91-2.75-3.1-2.75-1.49,0-2.96.68-4.17,1.39l-.96-1.68c1.38-.85,3.43-1.75,5.57-1.75,3.4,0,5.16,1.95,5.16,5.21v7.42h-2.08l-.2-1.6h-.08c-1.32,1.03-3.03,1.9-4.72,1.9-2.36,0-4.17-1.38-4.17-3.56Zm8.73-.1v-2.89c-4.84.35-6.28,1.32-6.28,2.79,0,1.24,1.11,1.75,2.43,1.75s2.57-.62,3.85-1.66Z" style="fill: #19a3ff; stroke-width: 0px;"/>
      <path d="m495.85,856.86c0-.99.7-1.94,2-2.67v-.1c-.67-.37-1.26-1.01-1.26-2.05,0-.8.55-1.68,1.47-2.31v-.1c-.86-.63-1.55-1.72-1.55-3.19,0-2.76,2.3-4.43,4.96-4.43.72,0,1.33.1,1.88.3h5.07v1.96h-3.01c.48.53.91,1.36.91,2.25,0,2.69-2.14,4.21-4.85,4.21-.6,0-1.31-.13-1.98-.4-.55.35-.85.75-.85,1.29,0,.88.86,1.29,2.44,1.29h2.64c3.19,0,4.77.83,4.77,2.95,0,2.38-2.71,4.34-6.98,4.34-3.5,0-5.65-1.17-5.65-3.35Zm10.21-.58c0-1.07-.89-1.35-2.64-1.35h-2.18c-.76,0-1.37-.05-1.88-.19-1.02.57-1.39,1.19-1.39,1.83,0,1.2,1.34,1.92,3.79,1.92,2.63,0,4.3-1.05,4.3-2.21Zm-2-9.83c0-1.61-1.16-2.66-2.58-2.66s-2.58,1.05-2.58,2.66,1.17,2.69,2.58,2.69,2.58-1.03,2.58-2.69Z" style="fill: #19a3ff; stroke-width: 0px;"/>
      <path d="m510.94,848.47c0-4.01,3.02-6.44,6.32-6.44,3.62,0,5.67,2.38,5.67,5.82,0,.53-.06,1.04-.11,1.36h-10.14v-1.84h8.58l-.54.61c0-2.67-1.29-4.01-3.38-4.01s-3.93,1.59-3.93,4.5,1.9,4.52,4.55,4.52c1.38,0,2.49-.42,3.6-1.08l.88,1.59c-1.27.84-2.91,1.46-4.8,1.46-3.74,0-6.69-2.38-6.69-6.49Z" style="fill: #19a3ff; stroke-width: 0px;"/>
      <path d="m527.55,857.9c3.28-2.87,4.77-6.09,4.77-10.26s-1.49-7.39-4.77-10.26l1.39-1.21c3.45,2.77,5.57,6.63,5.57,11.47s-2.12,8.7-5.57,11.47l-1.39-1.21Z" style="fill: #19a3ff; stroke-width: 0px;"/>
      <path d="m542.09,857.1h5.15v-18.92h-5.15v-1.39h7.11v21.69h-7.11v-1.39Z" style="fill: #19a3ff; stroke-width: 0px;"/>
      <path d="m329.87,872.6h2.05l.2,1.49h.08c1.1-1.04,2.66-1.79,4.11-1.79,3.26,0,5.06,2.46,5.06,6.28,0,4.2-2.62,6.65-5.54,6.65-1.13,0-2.45-.56-3.51-1.53h-.06l.12,2.25v4.01h-2.51v-17.36Zm8.92,5.99c0-2.58-.94-4.2-3.16-4.2-1.01,0-2.13.5-3.25,1.65v5.83c1.02.93,2.18,1.26,2.97,1.26,1.96,0,3.44-1.63,3.44-4.54Z" style="fill: #ffc259; stroke-width: 0px;"/>
      <path d="m344.64,880.25v-7.65h2.51v7.32c0,2.13.71,3.15,2.57,3.15,1.29,0,2.22-.57,3.45-2.03v-8.43h2.51v12.32h-2.07l-.2-2.05h-.1c-1.2,1.4-2.61,2.36-4.48,2.36-2.89,0-4.19-1.77-4.19-4.98Z" style="fill: #ffc259; stroke-width: 0px;"/>
      <path d="m362.44,883.56h-.08l-.23,1.36h-1.99v-17.88h2.51v4.74l-.11,2.27h.08c1.06-1.07,2.55-1.75,3.93-1.75,3.26,0,5.08,2.46,5.08,6.26,0,4.22-2.62,6.67-5.5,6.67-1.2,0-2.6-.62-3.71-1.67Zm6.63-4.97c0-2.58-.94-4.2-3.16-4.2-1.01,0-2.13.5-3.25,1.65v5.83c1.02.93,2.18,1.26,3.01,1.26,1.92,0,3.4-1.63,3.4-4.54Z" style="fill: #ffc259; stroke-width: 0px;"/>
      <path d="m390.67,872.73l3.52-.13h7.33v2h-10.86v-1.87Zm3.46-.98c0-2.95,1.59-5.01,5.11-5.01,1.27,0,2.47.25,3.6.7l-.54,1.87c-.95-.4-1.76-.56-2.79-.56-2.04,0-2.89,1.09-2.89,2.94v13.24h-2.49v-13.17Z" style="fill: #ffc259; stroke-width: 0px;"/>
      <path d="m405.55,872.6h2.05l.2,1.96h.1c1.23-1.27,2.64-2.27,4.54-2.27,2.88,0,4.2,1.77,4.2,4.98v7.65h-2.51v-7.32c0-2.15-.72-3.15-2.55-3.15-1.34,0-2.24.66-3.52,1.96v8.5h-2.51v-12.32Z" style="fill: #ffc259; stroke-width: 0px;"/>
      <path d="m436.08,872.73l3.52-.13h7.33v2h-10.86v-1.87Zm3.46-.98c0-2.95,1.59-5.01,5.11-5.01,1.27,0,2.47.25,3.6.7l-.54,1.87c-.95-.4-1.76-.56-2.79-.56-2.04,0-2.89,1.09-2.89,2.94v13.24h-2.49v-13.17Z" style="fill: #19a3ff; stroke-width: 0px;"/>
      <path d="m454.7,880.61v-11.56h-4.24v-2.01h6.75v13.72c0,1.71.97,2.4,2.32,2.4.67,0,1.39-.16,2.21-.52l.6,1.87c-1.18.46-2,.72-3.4.72-2.76,0-4.25-1.65-4.25-4.62Z" style="fill: #19a3ff; stroke-width: 0px;"/>
      <path d="m471.6,874.61h-5.51v-2h8.02v12.32h-2.51v-10.32Zm-.82-6.2c0-1.06.79-1.79,1.87-1.79s1.87.73,1.87,1.79-.79,1.78-1.87,1.78-1.87-.7-1.87-1.78Z" style="fill: #19a3ff; stroke-width: 0px;"/>
      <path d="m481.24,872.6h2.05l.2,1.49h.08c1.1-1.04,2.66-1.79,4.11-1.79,3.26,0,5.06,2.46,5.06,6.28,0,4.2-2.62,6.65-5.54,6.65-1.13,0-2.45-.56-3.51-1.53h-.06l.12,2.25v4.01h-2.51v-17.36Zm8.92,5.99c0-2.58-.94-4.2-3.16-4.2-1.01,0-2.13.5-3.25,1.65v5.83c1.02.93,2.18,1.26,2.97,1.26,1.96,0,3.44-1.63,3.44-4.54Z" style="fill: #19a3ff; stroke-width: 0px;"/>
      <path d="m499.24,877.91c0-4.84,2.12-8.7,5.57-11.47l1.39,1.21c-3.28,2.87-4.77,6.09-4.77,10.26s1.49,7.39,4.77,10.26l-1.39,1.21c-3.45-2.77-5.57-6.63-5.57-11.47Z" style="fill: #fff; stroke-width: 0px;"/>
      <path d="m510.24,880.61c0-4.85,7.04-5.62,7.04-9.09,0-.91-.37-1.67-1.39-1.67s-1.64.94-1.64,2.25c0,2.98,3.31,6.94,6.41,9.2,1.17.94,2.28,1.57,3.26,1.87l-.66,2.07c-1.29-.37-2.66-1.13-4.11-2.28-3.63-2.8-7.04-7.52-7.04-10.82,0-2.25,1.49-4.03,3.75-4.03s3.42,1.37,3.42,3.39c0,4.11-6.62,5.38-6.62,8.96,0,1.69,1.28,2.8,2.93,2.8,1.2,0,2.35-.77,3.3-1.87,1.2-1.42,2.06-3.26,2.59-5.49h2.31c-.65,2.47-1.67,4.74-3.16,6.67-1.36,1.58-3.06,2.66-5.36,2.66-3.06,0-5.03-1.98-5.03-4.62Z" style="fill: #fff; stroke-width: 0px;"/>
      <path d="m525.76,872.6h1.96l.2,1.59h.06c.59-1.1,1.35-1.9,2.78-1.9,1.18,0,1.94.71,2.28,2.1.64-1.26,1.43-2.1,2.85-2.1,1.73,0,2.74,1.39,2.74,3.85v8.78h-2.44v-8.6c0-1.25-.35-1.88-1.15-1.88s-1.18.57-1.75,1.72v8.77h-2.17v-8.6c0-1.25-.32-1.88-1.12-1.88-.75,0-1.25.57-1.78,1.72v8.77h-2.44v-12.32Z" style="fill: #19a3ff; stroke-width: 0px;"/>
      <path d="m541.42,880.25v-7.65h2.51v7.32c0,2.13.71,3.15,2.57,3.15,1.29,0,2.22-.57,3.45-2.03v-8.43h2.51v12.32h-2.07l-.2-2.05h-.1c-1.2,1.4-2.61,2.36-4.48,2.36-2.89,0-4.19-1.77-4.19-4.98Z" style="fill: #19a3ff; stroke-width: 0px;"/>
      <path d="m559.71,880.05v-5.44h-3.4v-1.87l3.5-.13.33-3.91h2.08v3.91h5.82v2h-5.82v5.45c0,2.12.75,3.15,2.98,3.15,1.08,0,1.96-.22,2.81-.53l.51,1.83c-1.11.38-2.33.72-3.9.72-3.69,0-4.91-2.09-4.91-5.18Z" style="fill: #19a3ff; stroke-width: 0px;"/>
      <path d="m586.67,883.31l1.12-1.63c1.45,1,3.12,1.62,5.25,1.62,1.89,0,2.79-.75,2.79-1.68,0-.87-.51-1.42-3.62-2.06-3.26-.67-4.78-1.8-4.78-3.67,0-2.06,1.85-3.59,5.27-3.59,1.96,0,3.83.77,5.06,1.6l-1.18,1.57c-1.17-.78-2.59-1.26-4.11-1.26-1.83,0-2.54.72-2.54,1.57,0,.97.98,1.34,3.4,1.86,4.01.88,5.02,1.91,5.02,3.84,0,2.06-2,3.76-5.64,3.76-2.35,0-4.54-.88-6.05-1.92Z" style="fill: #ffc259; stroke-width: 0px;"/>
      <path d="m601.76,878.74c0-4.01,3.02-6.44,6.32-6.44,3.62,0,5.68,2.38,5.68,5.82,0,.53-.06,1.04-.12,1.37h-10.14v-1.84h8.57l-.54.61c0-2.67-1.29-4.01-3.38-4.01s-3.93,1.59-3.93,4.5,1.9,4.52,4.55,4.52c1.38,0,2.49-.42,3.6-1.08l.88,1.59c-1.27.83-2.91,1.46-4.8,1.46-3.74,0-6.69-2.38-6.69-6.49Z" style="fill: #ffc259; stroke-width: 0px;"/>
      <path d="m621.21,880.61v-11.56h-4.24v-2.01h6.75v13.72c0,1.71.97,2.4,2.32,2.4.67,0,1.39-.16,2.21-.52l.6,1.87c-1.18.46-2,.72-3.4.72-2.76,0-4.25-1.65-4.25-4.62Z" style="fill: #ffc259; stroke-width: 0px;"/>
      <path d="m632.86,872.73l3.52-.13h7.33v2h-10.86v-1.87Zm3.46-.98c0-2.95,1.59-5.01,5.11-5.01,1.27,0,2.47.25,3.6.7l-.54,1.87c-.95-.4-1.76-.56-2.79-.56-2.04,0-2.89,1.09-2.89,2.94v13.24h-2.49v-13.17Z" style="fill: #ffc259; stroke-width: 0px;"/>
      <path d="m648.65,888.17c3.28-2.87,4.78-6.09,4.78-10.26s-1.49-7.39-4.78-10.26l1.39-1.21c3.45,2.77,5.57,6.63,5.57,11.47s-2.12,8.7-5.57,11.47l-1.39-1.21Z" style="fill: #fff; stroke-width: 0px;"/>
      <path d="m682.1,885.34c0-1.83.25-3.06.25-4.72,0-.96-.7-1.91-3.61-1.94v-1.54c2.91-.03,3.61-.98,3.61-1.94,0-1.58-.25-2.98-.25-4.72,0-2.63,1.5-3.42,4.68-3.42h1.66v1.39h-1.24c-2.45,0-2.98.58-2.98,2.16,0,1.41.14,2.9.14,4.45,0,1.71-.6,2.5-2.36,2.8v.1c1.76.3,2.36,1.09,2.36,2.8s-.14,2.96-.14,4.45c0,1.58.53,2.16,2.98,2.16h1.24v1.39h-1.66c-3.18,0-4.68-.79-4.68-3.42Z" style="fill: #fff; stroke-width: 0px;"/>
      <path d="m389.88,913.59l1.12-1.63c1.45,1,3.12,1.62,5.25,1.62,1.89,0,2.79-.75,2.79-1.68,0-.87-.51-1.42-3.62-2.06-3.25-.67-4.78-1.8-4.78-3.67,0-2.06,1.85-3.59,5.26-3.59,1.96,0,3.83.77,5.07,1.6l-1.18,1.57c-1.17-.78-2.59-1.26-4.11-1.26-1.83,0-2.54.72-2.54,1.57,0,.97.98,1.34,3.4,1.86,4.01.88,5.02,1.91,5.02,3.84,0,2.06-2,3.76-5.64,3.76-2.35,0-4.54-.88-6.05-1.92Z" style="fill: #ffc259; stroke-width: 0px;"/>
      <path d="m404.98,909.02c0-4.01,3.02-6.44,6.32-6.44,3.62,0,5.67,2.38,5.67,5.82,0,.53-.06,1.04-.11,1.37h-10.14v-1.84h8.57l-.54.61c0-2.67-1.29-4.01-3.38-4.01s-3.93,1.59-3.93,4.5,1.9,4.52,4.55,4.52c1.38,0,2.49-.42,3.6-1.08l.88,1.59c-1.27.83-2.91,1.46-4.8,1.46-3.74,0-6.69-2.38-6.69-6.49Z" style="fill: #ffc259; stroke-width: 0px;"/>
      <path d="m424.42,910.89v-11.56h-4.24v-2.01h6.75v13.72c0,1.71.97,2.4,2.32,2.4.67,0,1.39-.16,2.21-.52l.6,1.87c-1.18.46-2,.72-3.4.72-2.76,0-4.25-1.65-4.25-4.62Z" style="fill: #ffc259; stroke-width: 0px;"/>
      <path d="m436.08,903.01l3.52-.13h7.33v2h-10.86v-1.87Zm3.46-.98c0-2.95,1.59-5.01,5.11-5.01,1.27,0,2.47.25,3.6.7l-.54,1.87c-.95-.4-1.76-.56-2.79-.56-2.04,0-2.89,1.09-2.89,2.94v13.24h-2.49v-13.17Z" style="fill: #ffc259; stroke-width: 0px;"/>
      <path d="m454.05,913.15c0-1.36.98-2.36,2.27-2.36s2.27,1,2.27,2.36-.98,2.36-2.27,2.36-2.27-.97-2.27-2.36Z" style="fill: #fff; stroke-width: 0px;"/>
      <path d="m465.03,902.88h2.55l2.6,6.67c.46,1.24.89,2.47,1.3,3.69h.1c.42-1.22.8-2.45,1.28-3.69l2.6-6.67h2.41l-4.96,12.32h-2.84l-5.05-12.32Z" style="fill: #19a3ff; stroke-width: 0px;"/>
      <path d="m480.93,911.95c0-2.76,2.51-4.12,8.73-4.59-.09-1.52-.91-2.75-3.1-2.75-1.49,0-2.96.68-4.17,1.39l-.96-1.68c1.38-.85,3.43-1.75,5.57-1.75,3.4,0,5.16,1.95,5.16,5.2v7.42h-2.08l-.2-1.6h-.08c-1.32,1.03-3.03,1.9-4.72,1.9-2.36,0-4.17-1.39-4.17-3.56Zm8.73-.1v-2.89c-4.84.35-6.28,1.32-6.28,2.79,0,1.24,1.11,1.75,2.43,1.75s2.57-.62,3.85-1.66Z" style="fill: #19a3ff; stroke-width: 0px;"/>
      <path d="m500.11,910.89v-11.56h-4.24v-2.01h6.75v13.72c0,1.71.97,2.4,2.32,2.4.67,0,1.39-.16,2.21-.52l.6,1.87c-1.18.46-2,.72-3.4.72-2.76,0-4.25-1.65-4.25-4.62Z" style="fill: #19a3ff; stroke-width: 0px;"/>
      <path d="m511.15,910.52v-7.65h2.51v7.32c0,2.13.71,3.15,2.57,3.15,1.29,0,2.22-.57,3.45-2.03v-8.43h2.51v12.32h-2.07l-.2-2.05h-.1c-1.2,1.4-2.61,2.36-4.48,2.36-2.89,0-4.19-1.77-4.19-4.98Z" style="fill: #19a3ff; stroke-width: 0px;"/>
      <path d="m526.07,909.02c0-4.01,3.02-6.44,6.32-6.44,3.62,0,5.67,2.38,5.67,5.82,0,.53-.06,1.04-.11,1.37h-10.14v-1.84h8.57l-.54.61c0-2.67-1.29-4.01-3.38-4.01s-3.93,1.59-3.93,4.5,1.9,4.52,4.55,4.52c1.38,0,2.49-.42,3.6-1.08l.88,1.59c-1.27.83-2.91,1.46-4.8,1.46-3.74,0-6.69-2.38-6.69-6.49Z" style="fill: #19a3ff; stroke-width: 0px;"/>
      <path d="m556.76,903.2h11.04v1.84h-11.04v-1.84Zm0,5.52h11.04v1.84h-11.04v-1.84Z" style="fill: #bb82fa; stroke-width: 0px;"/>
      <path d="m590.52,913.38c0-1.29.91-2.09,2.04-2.09s2.04.81,2.04,2.09-.91,2.12-2.04,2.12-2.04-.84-2.04-2.12Zm.86-12.45l-.07-2.62h2.49l-.07,2.62-.34,8.25h-1.68l-.34-8.25Z" style="fill: #bb82fa; stroke-width: 0px;"/>
      <path d="m601.8,913.59l1.12-1.63c1.45,1,3.12,1.62,5.25,1.62,1.89,0,2.79-.75,2.79-1.68,0-.87-.51-1.42-3.62-2.06-3.26-.67-4.78-1.8-4.78-3.67,0-2.06,1.85-3.59,5.27-3.59,1.96,0,3.83.77,5.06,1.6l-1.18,1.57c-1.17-.78-2.59-1.26-4.11-1.26-1.83,0-2.54.72-2.54,1.57,0,.97.98,1.34,3.4,1.86,4.01.88,5.02,1.91,5.02,3.84,0,2.06-2,3.76-5.64,3.76-2.35,0-4.54-.88-6.05-1.92Z" style="fill: #ffc259; stroke-width: 0px;"/>
      <path d="m616.9,909.02c0-4.01,3.02-6.44,6.32-6.44,3.62,0,5.67,2.38,5.67,5.82,0,.53-.06,1.04-.11,1.37h-10.14v-1.84h8.57l-.54.61c0-2.67-1.29-4.01-3.38-4.01s-3.93,1.59-3.93,4.5,1.9,4.52,4.55,4.52c1.38,0,2.49-.42,3.6-1.08l.88,1.59c-1.27.83-2.91,1.46-4.8,1.46-3.74,0-6.69-2.38-6.69-6.49Z" style="fill: #ffc259; stroke-width: 0px;"/>
      <path d="m636.35,910.89v-11.56h-4.24v-2.01h6.75v13.72c0,1.71.97,2.4,2.32,2.4.67,0,1.39-.16,2.21-.52l.6,1.87c-1.18.46-2,.72-3.4.72-2.76,0-4.25-1.65-4.25-4.62Z" style="fill: #ffc259; stroke-width: 0px;"/>
      <path d="m648,903.01l3.52-.13h7.33v2h-10.86v-1.87Zm3.46-.98c0-2.95,1.59-5.01,5.11-5.01,1.27,0,2.46.25,3.6.7l-.54,1.87c-.95-.4-1.76-.56-2.79-.56-2.04,0-2.89,1.09-2.89,2.94v13.24h-2.49v-13.17Z" style="fill: #ffc259; stroke-width: 0px;"/>
      <path d="m665.97,913.15c0-1.36.98-2.36,2.27-2.36s2.28,1,2.28,2.36-.98,2.36-2.28,2.36-2.27-.97-2.27-2.36Z" style="fill: #fff; stroke-width: 0px;"/>
      <path d="m676.95,902.88h2.55l2.6,6.67c.46,1.24.89,2.47,1.3,3.69h.1c.41-1.22.8-2.45,1.28-3.69l2.61-6.67h2.41l-4.96,12.32h-2.84l-5.05-12.32Z" style="fill: #19a3ff; stroke-width: 0px;"/>
      <path d="m692.85,911.95c0-2.76,2.51-4.12,8.73-4.59-.09-1.52-.91-2.75-3.1-2.75-1.49,0-2.96.68-4.16,1.39l-.96-1.68c1.38-.85,3.43-1.75,5.57-1.75,3.4,0,5.16,1.95,5.16,5.2v7.42h-2.07l-.2-1.6h-.08c-1.32,1.03-3.03,1.9-4.72,1.9-2.36,0-4.17-1.39-4.17-3.56Zm8.73-.1v-2.89c-4.84.35-6.28,1.32-6.28,2.79,0,1.24,1.11,1.75,2.43,1.75s2.57-.62,3.85-1.66Z" style="fill: #19a3ff; stroke-width: 0px;"/>
      <path d="m712.03,910.89v-11.56h-4.24v-2.01h6.75v13.72c0,1.71.97,2.4,2.32,2.4.67,0,1.39-.16,2.21-.52l.6,1.87c-1.18.46-2,.72-3.4.72-2.76,0-4.25-1.65-4.25-4.62Z" style="fill: #19a3ff; stroke-width: 0px;"/>
      <path d="m723.07,910.52v-7.65h2.51v7.32c0,2.13.71,3.15,2.57,3.15,1.29,0,2.22-.57,3.45-2.03v-8.43h2.51v12.32h-2.07l-.2-2.05h-.1c-1.2,1.4-2.61,2.36-4.48,2.36-2.88,0-4.19-1.77-4.19-4.98Z" style="fill: #19a3ff; stroke-width: 0px;"/>
      <path d="m737.99,909.02c0-4.01,3.02-6.44,6.32-6.44,3.62,0,5.68,2.38,5.68,5.82,0,.53-.06,1.04-.12,1.37h-10.14v-1.84h8.57l-.54.61c0-2.67-1.29-4.01-3.38-4.01s-3.93,1.59-3.93,4.5,1.9,4.52,4.55,4.52c1.38,0,2.49-.42,3.6-1.08l.88,1.59c-1.27.83-2.91,1.46-4.8,1.46-3.74,0-6.69-2.38-6.69-6.49Z" style="fill: #19a3ff; stroke-width: 0px;"/>
      <path d="m756.36,919.07c2.17-.92,3.23-2.25,3.2-4.22l-.37-2.5,1.44,2.13c-.42.44-.95.58-1.48.58-1.17,0-2.17-.71-2.17-2.07s1.02-2.09,2.23-2.09c1.63,0,2.49,1.33,2.49,3.51,0,3.02-1.71,5.15-4.67,6.19l-.69-1.53Zm.44-14.72c0-1.36.98-2.36,2.27-2.36s2.27,1,2.27,2.36-.98,2.36-2.27,2.36-2.27-.97-2.27-2.36Z" style="fill: #fff; stroke-width: 0px;"/>
      <path d="m330.2,947.92h1.22c2.45,0,3-.58,3-2.16,0-1.49-.14-2.78-.14-4.45s.58-2.5,2.34-2.8v-.1c-1.76-.3-2.34-1.09-2.34-2.8,0-1.54.14-3.04.14-4.45,0-1.58-.55-2.16-3-2.16h-1.22v-1.39h1.64c3.2,0,4.66.79,4.66,3.42,0,1.75-.24,3.14-.24,4.72,0,.96.7,1.91,3.61,1.94v1.54c-2.92.03-3.61.98-3.61,1.94,0,1.67.24,2.89.24,4.72,0,2.63-1.46,3.42-4.66,3.42h-1.64v-1.39Z" style="fill: #fff; stroke-width: 0px;"/>
      <path d="m329.75,999.29h10.6v1.7h-10.6v-1.7Zm.5-5.17h10.6v1.7h-10.6v-1.7Zm2.88-4.5h1.54l-1.99,16.39h-1.57l2.02-16.39Zm4.71,0h1.54l-1.99,16.39h-1.57l2.02-16.39Z" style="fill: #19a3ff; stroke-width: 0px;"/>
      <path d="m348.31,988.17h7.11v1.39h-5.15v18.92h5.15v1.39h-7.11v-21.69Z" style="fill: #19a3ff; stroke-width: 0px;"/>
      <path d="m365.64,995.71h-5.51v-2.01h8.02v12.32h-2.51v-10.32Zm-.82-6.2c0-1.06.79-1.79,1.87-1.79s1.87.73,1.87,1.79-.79,1.78-1.87,1.78-1.87-.7-1.87-1.78Z" style="fill: #19a3ff; stroke-width: 0px;"/>
      <path d="m375.28,993.7h2.05l.2,1.96h.1c1.23-1.27,2.64-2.27,4.54-2.27,2.88,0,4.2,1.77,4.2,4.98v7.65h-2.51v-7.32c0-2.15-.72-3.15-2.55-3.15-1.34,0-2.24.66-3.52,1.96v8.5h-2.51v-12.32Z" style="fill: #19a3ff; stroke-width: 0px;"/>
      <path d="m390.66,988.14h2.51v11.63h.1l6.07-6.07h2.82l-9,9.04v3.28h-2.51v-17.88Zm4.84,11.59l1.49-1.61,5.77,7.9h-2.76l-4.49-6.29Z" style="fill: #19a3ff; stroke-width: 0px;"/>
      <path d="m408.41,999.01c0-4.83,2.12-8.7,5.57-11.47l1.39,1.21c-3.28,2.87-4.77,6.09-4.77,10.26s1.49,7.39,4.77,10.26l-1.39,1.21c-3.45-2.77-5.57-6.63-5.57-11.47Z" style="fill: #19a3ff; stroke-width: 0px;"/>
      <path d="m419.8,993.7h1.96l.2,1.6h.06c.59-1.1,1.35-1.9,2.78-1.9,1.18,0,1.94.71,2.28,2.1.64-1.26,1.43-2.1,2.85-2.1,1.73,0,2.74,1.39,2.74,3.85v8.78h-2.44v-8.6c0-1.25-.35-1.88-1.15-1.88s-1.18.57-1.75,1.72v8.77h-2.17v-8.6c0-1.25-.32-1.88-1.12-1.88-.75,0-1.25.57-1.78,1.72v8.77h-2.44v-12.32Z" style="fill: #19a3ff; stroke-width: 0px;"/>
      <path d="m435.25,999.84c0-4.01,3.02-6.44,6.32-6.44,3.62,0,5.67,2.38,5.67,5.82,0,.53-.06,1.04-.11,1.36h-10.14v-1.84h8.58l-.54.61c0-2.67-1.29-4.01-3.38-4.01s-3.93,1.59-3.93,4.5,1.9,4.52,4.55,4.52c1.38,0,2.49-.42,3.6-1.08l.88,1.59c-1.27.84-2.91,1.46-4.8,1.46-3.74,0-6.69-2.38-6.69-6.49Z" style="fill: #19a3ff; stroke-width: 0px;"/>
      <path d="m450.43,1004.41l1.12-1.63c1.45.99,3.12,1.62,5.25,1.62,1.89,0,2.79-.75,2.79-1.68,0-.87-.51-1.42-3.62-2.06-3.25-.67-4.78-1.8-4.78-3.67,0-2.06,1.85-3.59,5.26-3.59,1.96,0,3.83.77,5.07,1.6l-1.18,1.57c-1.17-.78-2.59-1.26-4.11-1.26-1.83,0-2.54.72-2.54,1.57,0,.96.98,1.34,3.4,1.86,4.01.88,5.02,1.91,5.02,3.84,0,2.06-2,3.76-5.64,3.76-2.35,0-4.54-.88-6.05-1.92Z" style="fill: #19a3ff; stroke-width: 0px;"/>
      <path d="m465.57,1004.41l1.12-1.63c1.45.99,3.12,1.62,5.25,1.62,1.89,0,2.79-.75,2.79-1.68,0-.87-.51-1.42-3.62-2.06-3.25-.67-4.78-1.8-4.78-3.67,0-2.06,1.85-3.59,5.26-3.59,1.96,0,3.83.77,5.07,1.6l-1.18,1.57c-1.17-.78-2.59-1.26-4.11-1.26-1.83,0-2.54.72-2.54,1.57,0,.96.98,1.34,3.4,1.86,4.01.88,5.02,1.91,5.02,3.84,0,2.06-2,3.76-5.64,3.76-2.35,0-4.54-.88-6.05-1.92Z" style="fill: #19a3ff; stroke-width: 0px;"/>
      <path d="m480.93,1002.77c0-2.76,2.51-4.12,8.73-4.59-.09-1.52-.91-2.75-3.1-2.75-1.49,0-2.96.68-4.17,1.39l-.96-1.68c1.38-.85,3.43-1.75,5.57-1.75,3.4,0,5.16,1.95,5.16,5.21v7.42h-2.08l-.2-1.6h-.08c-1.32,1.03-3.03,1.9-4.72,1.9-2.36,0-4.17-1.38-4.17-3.56Zm8.73-.1v-2.89c-4.84.35-6.28,1.32-6.28,2.79,0,1.24,1.11,1.75,2.43,1.75s2.57-.62,3.85-1.66Z" style="fill: #19a3ff; stroke-width: 0px;"/>
      <path d="m495.85,1008.24c0-.99.7-1.94,2-2.67v-.1c-.67-.37-1.26-1.01-1.26-2.05,0-.8.55-1.68,1.47-2.31v-.1c-.86-.63-1.55-1.72-1.55-3.19,0-2.76,2.3-4.43,4.96-4.43.72,0,1.33.1,1.88.3h5.07v1.96h-3.01c.48.53.91,1.36.91,2.25,0,2.69-2.14,4.21-4.85,4.21-.6,0-1.31-.13-1.98-.4-.55.35-.85.75-.85,1.29,0,.88.86,1.29,2.44,1.29h2.64c3.19,0,4.77.83,4.77,2.95,0,2.38-2.71,4.34-6.98,4.34-3.5,0-5.65-1.17-5.65-3.35Zm10.21-.58c0-1.07-.89-1.35-2.64-1.35h-2.18c-.76,0-1.37-.05-1.88-.19-1.02.57-1.39,1.19-1.39,1.83,0,1.2,1.34,1.92,3.79,1.92,2.63,0,4.3-1.05,4.3-2.21Zm-2-9.83c0-1.61-1.16-2.66-2.58-2.66s-2.58,1.05-2.58,2.66,1.17,2.69,2.58,2.69,2.58-1.03,2.58-2.69Z" style="fill: #19a3ff; stroke-width: 0px;"/>
      <path d="m510.94,999.84c0-4.01,3.02-6.44,6.32-6.44,3.62,0,5.67,2.38,5.67,5.82,0,.53-.06,1.04-.11,1.36h-10.14v-1.84h8.58l-.54.61c0-2.67-1.29-4.01-3.38-4.01s-3.93,1.59-3.93,4.5,1.9,4.52,4.55,4.52c1.38,0,2.49-.42,3.6-1.08l.88,1.59c-1.27.84-2.91,1.46-4.8,1.46-3.74,0-6.69-2.38-6.69-6.49Z" style="fill: #19a3ff; stroke-width: 0px;"/>
      <path d="m527.55,1009.27c3.28-2.87,4.77-6.09,4.77-10.26s-1.49-7.39-4.77-10.26l1.39-1.21c3.45,2.77,5.57,6.63,5.57,11.47s-2.12,8.7-5.57,11.47l-1.39-1.21Z" style="fill: #19a3ff; stroke-width: 0px;"/>
      <path d="m542.09,1008.47h5.15v-18.92h-5.15v-1.39h7.11v21.69h-7.11v-1.39Z" style="fill: #19a3ff; stroke-width: 0px;"/>
      <path d="m329.87,1023.98h2.05l.2,1.49h.08c1.1-1.04,2.66-1.79,4.11-1.79,3.26,0,5.06,2.46,5.06,6.28,0,4.2-2.62,6.65-5.54,6.65-1.13,0-2.45-.56-3.51-1.53h-.06l.12,2.25v4.01h-2.51v-17.36Zm8.92,5.99c0-2.58-.94-4.2-3.16-4.2-1.01,0-2.13.5-3.25,1.65v5.83c1.02.93,2.18,1.26,2.97,1.26,1.96,0,3.44-1.63,3.44-4.54Z" style="fill: #ffc259; stroke-width: 0px;"/>
      <path d="m344.64,1031.62v-7.65h2.51v7.32c0,2.13.71,3.15,2.57,3.15,1.29,0,2.22-.57,3.45-2.03v-8.43h2.51v12.32h-2.07l-.2-2.05h-.1c-1.2,1.4-2.61,2.36-4.48,2.36-2.89,0-4.19-1.77-4.19-4.98Z" style="fill: #ffc259; stroke-width: 0px;"/>
      <path d="m362.44,1034.94h-.08l-.23,1.36h-1.99v-17.88h2.51v4.74l-.11,2.27h.08c1.06-1.07,2.55-1.75,3.93-1.75,3.26,0,5.08,2.46,5.08,6.26,0,4.22-2.62,6.67-5.5,6.67-1.2,0-2.6-.62-3.71-1.67Zm6.63-4.97c0-2.58-.94-4.2-3.16-4.2-1.01,0-2.13.5-3.25,1.65v5.83c1.02.93,2.18,1.26,3.01,1.26,1.92,0,3.4-1.63,3.4-4.54Z" style="fill: #ffc259; stroke-width: 0px;"/>
      <path d="m390.67,1024.11l3.52-.13h7.33v2h-10.86v-1.87Zm3.46-.98c0-2.95,1.59-5.01,5.11-5.01,1.27,0,2.47.25,3.6.7l-.54,1.87c-.95-.4-1.76-.56-2.79-.56-2.04,0-2.89,1.09-2.89,2.94v13.24h-2.49v-13.17Z" style="fill: #ffc259; stroke-width: 0px;"/>
      <path d="m405.55,1023.98h2.05l.2,1.96h.1c1.23-1.27,2.64-2.27,4.54-2.27,2.88,0,4.2,1.77,4.2,4.98v7.65h-2.51v-7.32c0-2.15-.72-3.15-2.55-3.15-1.34,0-2.24.66-3.52,1.96v8.5h-2.51v-12.32Z" style="fill: #ffc259; stroke-width: 0px;"/>
      <path d="m435.3,1038.51c0-.99.7-1.94,2-2.67v-.1c-.67-.37-1.26-1.01-1.26-2.05,0-.8.55-1.68,1.47-2.31v-.1c-.86-.63-1.55-1.72-1.55-3.19,0-2.76,2.3-4.43,4.96-4.43.72,0,1.33.1,1.88.3h5.07v1.96h-3.01c.48.53.91,1.36.91,2.25,0,2.69-2.14,4.21-4.85,4.21-.6,0-1.31-.13-1.98-.4-.55.35-.85.75-.85,1.29,0,.88.86,1.29,2.44,1.29h2.64c3.19,0,4.77.84,4.77,2.95,0,2.38-2.71,4.34-6.98,4.34-3.5,0-5.65-1.17-5.65-3.35Zm10.21-.58c0-1.07-.89-1.35-2.64-1.35h-2.18c-.76,0-1.37-.05-1.88-.19-1.02.57-1.39,1.19-1.39,1.83,0,1.2,1.34,1.92,3.79,1.92,2.63,0,4.3-1.05,4.3-2.21Zm-2-9.83c0-1.61-1.16-2.66-2.58-2.66s-2.58,1.05-2.58,2.66,1.17,2.69,2.58,2.69,2.58-1.03,2.58-2.69Z" style="fill: #19a3ff; stroke-width: 0px;"/>
      <path d="m450.39,1030.12c0-4.01,3.02-6.44,6.32-6.44,3.62,0,5.67,2.38,5.67,5.82,0,.53-.06,1.04-.11,1.37h-10.14v-1.84h8.57l-.54.61c0-2.67-1.29-4.01-3.38-4.01s-3.93,1.59-3.93,4.5,1.9,4.52,4.55,4.52c1.38,0,2.49-.42,3.6-1.08l.88,1.59c-1.27.83-2.91,1.46-4.8,1.46-3.74,0-6.69-2.38-6.69-6.49Z" style="fill: #19a3ff; stroke-width: 0px;"/>
      <path d="m468.88,1031.42v-5.44h-3.4v-1.87l3.5-.13.33-3.91h2.08v3.91h5.82v2h-5.82v5.45c0,2.12.75,3.15,2.98,3.15,1.08,0,1.96-.22,2.81-.53l.51,1.83c-1.11.38-2.33.72-3.9.72-3.69,0-4.91-2.09-4.91-5.18Z" style="fill: #19a3ff; stroke-width: 0px;"/>
      <path d="m484.1,1029.29c0-4.84,2.12-8.7,5.57-11.47l1.39,1.21c-3.28,2.87-4.77,6.09-4.77,10.26s1.49,7.39,4.77,10.26l-1.39,1.21c-3.45-2.77-5.57-6.63-5.57-11.47Z" style="fill: #fff; stroke-width: 0px;"/>
      <path d="m495.11,1031.98c0-4.85,7.04-5.62,7.04-9.09,0-.91-.37-1.67-1.39-1.67s-1.64.94-1.64,2.25c0,2.98,3.31,6.94,6.41,9.2,1.17.94,2.28,1.57,3.26,1.87l-.66,2.07c-1.29-.37-2.66-1.13-4.11-2.28-3.63-2.8-7.04-7.52-7.04-10.82,0-2.25,1.49-4.03,3.75-4.03s3.42,1.37,3.42,3.39c0,4.11-6.62,5.38-6.62,8.96,0,1.69,1.28,2.8,2.93,2.8,1.2,0,2.35-.77,3.3-1.87,1.2-1.42,2.06-3.26,2.59-5.49h2.31c-.65,2.47-1.67,4.74-3.16,6.67-1.36,1.58-3.06,2.66-5.36,2.66-3.06,0-5.03-1.98-5.03-4.62Z" style="fill: #fff; stroke-width: 0px;"/>
      <path d="m510.98,1034.69l1.12-1.63c1.45,1,3.12,1.62,5.25,1.62,1.89,0,2.79-.75,2.79-1.68,0-.87-.51-1.42-3.62-2.06-3.25-.67-4.78-1.8-4.78-3.67,0-2.06,1.85-3.59,5.26-3.59,1.96,0,3.83.77,5.07,1.6l-1.18,1.57c-1.17-.78-2.59-1.26-4.11-1.26-1.83,0-2.54.72-2.54,1.57,0,.97.98,1.34,3.4,1.86,4.01.88,5.02,1.91,5.02,3.84,0,2.06-2,3.76-5.64,3.76-2.35,0-4.54-.88-6.05-1.92Z" style="fill: #ffc259; stroke-width: 0px;"/>
      <path d="m526.07,1030.12c0-4.01,3.02-6.44,6.32-6.44,3.62,0,5.67,2.38,5.67,5.82,0,.53-.06,1.04-.11,1.37h-10.14v-1.84h8.57l-.54.61c0-2.67-1.29-4.01-3.38-4.01s-3.93,1.59-3.93,4.5,1.9,4.52,4.55,4.52c1.38,0,2.49-.42,3.6-1.08l.88,1.59c-1.27.83-2.91,1.46-4.8,1.46-3.74,0-6.69-2.38-6.69-6.49Z" style="fill: #ffc259; stroke-width: 0px;"/>
      <path d="m545.52,1031.98v-11.56h-4.24v-2.01h6.75v13.72c0,1.71.97,2.4,2.32,2.4.67,0,1.39-.16,2.21-.52l.6,1.87c-1.18.46-2,.72-3.4.72-2.76,0-4.25-1.65-4.25-4.62Z" style="fill: #ffc259; stroke-width: 0px;"/>
      <path d="m557.18,1024.11l3.52-.13h7.33v2h-10.86v-1.87Zm3.46-.98c0-2.95,1.59-5.01,5.11-5.01,1.27,0,2.47.25,3.6.7l-.54,1.87c-.95-.4-1.76-.56-2.79-.56-2.04,0-2.89,1.09-2.89,2.94v13.24h-2.49v-13.17Z" style="fill: #ffc259; stroke-width: 0px;"/>
      <path d="m572.96,1039.55c3.28-2.87,4.77-6.09,4.77-10.26s-1.49-7.39-4.77-10.26l1.39-1.21c3.45,2.77,5.57,6.63,5.57,11.47s-2.12,8.7-5.57,11.47l-1.39-1.21Z" style="fill: #19a3ff; stroke-width: 0px;"/>
      <path d="m602.17,1027.06h11.04v1.84h-11.04v-1.84Z" style="fill: #bb82fa; stroke-width: 0px;"/>
      <path d="m617.9,1032.84l7.34-4.86v-.1l-7.34-4.86v-2.37l9.5,6.35v1.86l-9.5,6.35v-2.37Z" style="fill: #bb82fa; stroke-width: 0px;"/>
      <path d="m650.05,1034.94h-.08l-.23,1.36h-1.99v-17.88h2.51v4.74l-.11,2.27h.08c1.06-1.07,2.55-1.75,3.93-1.75,3.26,0,5.08,2.46,5.08,6.26,0,4.22-2.62,6.67-5.49,6.67-1.2,0-2.6-.62-3.71-1.67Zm6.63-4.97c0-2.58-.94-4.2-3.16-4.2-1.01,0-2.13.5-3.25,1.65v5.83c1.02.93,2.18,1.26,3.01,1.26,1.92,0,3.4-1.63,3.4-4.54Z" style="fill: #f55; stroke-width: 0px;"/>
      <path d="m662.11,1030.16c0-4.13,2.89-6.49,6.14-6.49s6.14,2.36,6.14,6.49-2.89,6.44-6.14,6.44-6.14-2.36-6.14-6.44Zm9.7,0c0-2.66-1.38-4.42-3.57-4.42s-3.56,1.76-3.56,4.42,1.38,4.38,3.56,4.38,3.57-1.74,3.57-4.38Z" style="fill: #f55; stroke-width: 0px;"/>
      <path d="m677.24,1030.16c0-4.13,2.89-6.49,6.14-6.49s6.14,2.36,6.14,6.49-2.89,6.44-6.14,6.44-6.14-2.36-6.14-6.44Zm9.71,0c0-2.66-1.38-4.42-3.57-4.42s-3.57,1.76-3.57,4.42,1.38,4.38,3.57,4.38,3.57-1.74,3.57-4.38Z" style="fill: #f55; stroke-width: 0px;"/>
      <path d="m696.89,1031.98v-11.56h-4.24v-2.01h6.75v13.72c0,1.71.97,2.4,2.32,2.4.67,0,1.39-.16,2.21-.52l.6,1.87c-1.18.46-2,.72-3.4.72-2.76,0-4.25-1.65-4.25-4.62Z" style="fill: #f55; stroke-width: 0px;"/>
      <path d="m727.51,1036.72c0-1.83.25-3.06.25-4.72,0-.96-.7-1.91-3.61-1.94v-1.54c2.91-.03,3.61-.98,3.61-1.94,0-1.58-.25-2.98-.25-4.72,0-2.63,1.5-3.42,4.68-3.42h1.66v1.39h-1.24c-2.45,0-2.98.58-2.98,2.16,0,1.41.14,2.9.14,4.45,0,1.71-.6,2.5-2.36,2.8v.1c1.76.3,2.36,1.09,2.36,2.8s-.14,2.96-.14,4.45c0,1.58.53,2.16,2.98,2.16h1.24v1.39h-1.66c-3.18,0-4.68-.79-4.68-3.42Z" style="fill: #fff; stroke-width: 0px;"/>
      <path d="m389.88,1064.96l1.12-1.63c1.45.99,3.12,1.62,5.25,1.62,1.89,0,2.79-.75,2.79-1.68,0-.87-.51-1.42-3.62-2.06-3.25-.67-4.78-1.8-4.78-3.67,0-2.06,1.85-3.59,5.26-3.59,1.96,0,3.83.77,5.07,1.6l-1.18,1.57c-1.17-.78-2.59-1.26-4.11-1.26-1.83,0-2.54.72-2.54,1.57,0,.96.98,1.34,3.4,1.86,4.01.88,5.02,1.91,5.02,3.84,0,2.06-2,3.76-5.64,3.76-2.35,0-4.54-.88-6.05-1.92Z" style="fill: #ffc259; stroke-width: 0px;"/>
      <path d="m404.98,1060.39c0-4.01,3.02-6.44,6.32-6.44,3.62,0,5.67,2.38,5.67,5.82,0,.53-.06,1.04-.11,1.36h-10.14v-1.84h8.57l-.54.61c0-2.67-1.29-4.01-3.38-4.01s-3.93,1.59-3.93,4.5,1.9,4.52,4.55,4.52c1.38,0,2.49-.42,3.6-1.08l.88,1.59c-1.27.84-2.91,1.46-4.8,1.46-3.74,0-6.69-2.38-6.69-6.49Z" style="fill: #ffc259; stroke-width: 0px;"/>
      <path d="m424.42,1062.26v-11.56h-4.24v-2h6.75v13.72c0,1.71.97,2.4,2.32,2.4.67,0,1.39-.16,2.21-.52l.6,1.87c-1.18.46-2,.72-3.4.72-2.76,0-4.25-1.65-4.25-4.62Z" style="fill: #ffc259; stroke-width: 0px;"/>
      <path d="m436.08,1054.38l3.52-.13h7.33v2.01h-10.86v-1.88Zm3.46-.98c0-2.95,1.59-5.01,5.11-5.01,1.27,0,2.47.25,3.6.7l-.54,1.87c-.95-.4-1.76-.56-2.79-.56-2.04,0-2.89,1.09-2.89,2.94v13.24h-2.49v-13.17Z" style="fill: #ffc259; stroke-width: 0px;"/>
      <path d="m454.05,1064.52c0-1.36.98-2.36,2.27-2.36s2.27,1,2.27,2.36-.98,2.36-2.27,2.36-2.27-.97-2.27-2.36Z" style="fill: #fff; stroke-width: 0px;"/>
      <path d="m465.03,1054.25h2.55l2.6,6.67c.46,1.24.89,2.47,1.3,3.69h.1c.42-1.22.8-2.45,1.28-3.69l2.6-6.67h2.41l-4.96,12.32h-2.84l-5.05-12.32Z" style="fill: #19a3ff; stroke-width: 0px;"/>
      <path d="m480.93,1063.32c0-2.76,2.51-4.12,8.73-4.59-.09-1.52-.91-2.75-3.1-2.75-1.49,0-2.96.68-4.17,1.39l-.96-1.68c1.38-.85,3.43-1.75,5.57-1.75,3.4,0,5.16,1.95,5.16,5.21v7.42h-2.08l-.2-1.6h-.08c-1.32,1.03-3.03,1.9-4.72,1.9-2.36,0-4.17-1.38-4.17-3.56Zm8.73-.1v-2.89c-4.84.35-6.28,1.32-6.28,2.79,0,1.24,1.11,1.75,2.43,1.75s2.57-.62,3.85-1.66Z" style="fill: #19a3ff; stroke-width: 0px;"/>
      <path d="m500.11,1062.26v-11.56h-4.24v-2h6.75v13.72c0,1.71.97,2.4,2.32,2.4.67,0,1.39-.16,2.21-.52l.6,1.87c-1.18.46-2,.72-3.4.72-2.76,0-4.25-1.65-4.25-4.62Z" style="fill: #19a3ff; stroke-width: 0px;"/>
      <path d="m511.15,1061.9v-7.65h2.51v7.32c0,2.13.71,3.15,2.57,3.15,1.29,0,2.22-.57,3.45-2.03v-8.43h2.51v12.32h-2.07l-.2-2.05h-.1c-1.2,1.4-2.61,2.36-4.48,2.36-2.89,0-4.19-1.77-4.19-4.98Z" style="fill: #19a3ff; stroke-width: 0px;"/>
      <path d="m526.07,1060.39c0-4.01,3.02-6.44,6.32-6.44,3.62,0,5.67,2.38,5.67,5.82,0,.53-.06,1.04-.11,1.36h-10.14v-1.84h8.57l-.54.61c0-2.67-1.29-4.01-3.38-4.01s-3.93,1.59-3.93,4.5,1.9,4.52,4.55,4.52c1.38,0,2.49-.42,3.6-1.08l.88,1.59c-1.27.84-2.91,1.46-4.8,1.46-3.74,0-6.69-2.38-6.69-6.49Z" style="fill: #19a3ff; stroke-width: 0px;"/>
      <path d="m330.2,1099.29h1.22c2.45,0,3-.58,3-2.16,0-1.49-.14-2.78-.14-4.45s.58-2.5,2.34-2.8v-.1c-1.76-.3-2.34-1.09-2.34-2.8,0-1.54.14-3.04.14-4.45,0-1.58-.55-2.16-3-2.16h-1.22v-1.39h1.64c3.2,0,4.66.79,4.66,3.42,0,1.75-.24,3.14-.24,4.72,0,.96.7,1.91,3.61,1.94v1.54c-2.92.03-3.61.98-3.61,1.94,0,1.67.24,2.9.24,4.72,0,2.63-1.46,3.42-4.66,3.42h-1.64v-1.39Z" style="fill: #fff; stroke-width: 0px;"/>
      <path d="m269.65,1129.57h1.22c2.45,0,3-.58,3-2.16,0-1.49-.14-2.78-.14-4.45s.58-2.5,2.34-2.8v-.1c-1.76-.3-2.34-1.09-2.34-2.8,0-1.54.14-3.04.14-4.45,0-1.58-.55-2.16-3-2.16h-1.22v-1.39h1.64c3.2,0,4.66.79,4.66,3.42,0,1.75-.24,3.14-.24,4.72,0,.96.7,1.91,3.61,1.94v1.54c-2.92.03-3.61.98-3.61,1.94,0,1.67.24,2.9.24,4.72,0,2.63-1.46,3.42-4.66,3.42h-1.64v-1.39Z" style="fill: #fff; stroke-width: 0px;"/>
      <path d="m209.1,1159.84h1.22c2.45,0,3-.58,3-2.16,0-1.49-.14-2.78-.14-4.45s.58-2.5,2.34-2.8v-.1c-1.76-.3-2.34-1.09-2.34-2.8,0-1.54.14-3.04.14-4.45,0-1.58-.55-2.16-3-2.16h-1.22v-1.39h1.64c3.2,0,4.66.79,4.66,3.42,0,1.75-.24,3.14-.24,4.72,0,.96.7,1.91,3.61,1.94v1.54c-2.92.03-3.61.98-3.61,1.94,0,1.67.24,2.89.24,4.72,0,2.63-1.46,3.42-4.66,3.42h-1.64v-1.39Z" style="fill: #fff; stroke-width: 0px;"/>
    </g>
    <path d="m873.19,1207.78H168.27c-15.84,0-28.73-12.89-28.73-28.73V373.98c0-11.27,9.17-20.44,20.44-20.44h721.51c11.27,0,20.44,9.17,20.44,20.44v805.06c0,15.85-12.89,28.74-28.74,28.74ZM159.98,357.54c-9.06,0-16.44,7.37-16.44,16.44v805.08c0,13.64,11.09,24.73,24.73,24.73h704.92c13.64,0,24.74-11.1,24.74-24.74V373.98c0-9.06-7.37-16.44-16.44-16.44H159.98Z" style="fill: #bb82fa; stroke-width: 0px;"/>
    <g>
      <path d="m969.91,769.05c-105.91-.7-104.15,4.36-135.31,86.13-1.45,3.8,1.45,7.88,5.51,7.74,116.62-3.93,116.73-44.61,134.99-85.9,1.65-3.74-1.11-7.94-5.2-7.97Z" style="fill: #ba81f9; stroke-width: 0px;"/>
      <path d="m1016.66,739.19c-17.33,21.47-40.28,37.12-62.96,51.95-30.32,19.36-62.27,35.64-94.61,50.86-3.75,1.64-6.54-3.78-2.74-5.77,31.99-15.49,63.31-32.51,92.76-52.13,21.46-14.63,43.04-30.8,58.79-51.52,4.95-7.31,14.08-20.5,5.12-27.37-9.9-5.7-23.01-3.56-34.43-1.42-18.02,4.1-35.38,11.03-51.99,19.57-4.83,2.48-9.44-9.14-4.23-11.75,8.86-4.43,17.9-8.43,27.2-11.93,19.79-6.99,50.83-16.49,70.28-4.12,15.73,11.23,6.46,31.98-3.18,43.64Z" style="fill: #8547ca; stroke-width: 0px;"/>
    </g>
    <g>
      <path d="m223.72,968.98c-26.02,1.23-50.22-.46-71-5.88-74.97-19.54-105.73-82.99-13.11-118.3v-85.36C17.01,787.54-11.24,862.25,7.53,922.93c17.98,58.12,83.25,86.52,185.88,75.84,58.6-6.1,79.99-26.83,79.99-32.49s-22.42,1.42-49.68,2.7Z" style="fill: #bb82fa; stroke-width: 0px;"/>
      <path d="m273.4,966.28c0,5.65-21.39,26.39-79.99,32.48-54.55,5.68-98.52.33-130.46-14.66-9.7-4.55-18.29-9.98-25.72-16.28-14.18-11.96-24.17-27.03-29.7-44.89-18.77-60.68,9.48-135.39,132.07-163.48v85.36c-51.59,19.68-64.89,48.07-53.6,72.75,2.57,5.65,6.45,11.1,11.45,16.21,12.37,12.64,31.62,23.17,55.27,29.33,20.78,5.41,44.99,7.1,71,5.88,27.25-1.29,49.68-8.37,49.68-2.7Z" style="fill: #bb82fa; stroke-width: 0px;"/>
      <path d="m62.95,984.11c-9.7-4.55-18.29-9.98-25.72-16.28,0-39.85,34.34-50.26,48.78-50.26,2.57,5.65,6.45,11.1,11.45,16.21-32.53,3.88-44.95,32.23-34.5,50.33Z" style="fill: #d1a5ff; stroke-width: 0px;"/>
      <path d="m147.92,961.77c-115.6-17.29-145.68-138.28-8.31-171.96v55c-90.62,34.54-63.12,96.02,8.31,116.96Z" style="fill: #8647cb; stroke-width: 0px;"/>
      <path d="m129.19,818.67c-5.92-8.9-22.56-4.63-36.07,3.92-13.07,8.27-23.22,20.55-17.62,29.06,6.24,9.48,23.28,7.62,36.84-1,13.02-8.28,22.85-22.95,16.85-31.97Z" style="fill: #d7b6fa; stroke-width: 0px;"/>
      <path d="m88.17,898.42c4.64,11.24,7.18,26.86,1.4,29.24-5.78,2.38-14.17-9.24-19.67-22.58-5.5-13.34-7.12-23.26-1.34-25.64,5.78-2.38,14.98,7.74,19.61,18.98Z" style="fill: #d7b6fa; stroke-width: 0px;"/>
      <path d="m110.48,943.91c1.24-7.37,42.24,11.62,42.24,19.2-1.14,1.14-43.61-11.06-42.24-19.2Z" style="fill: #d7b6fa; stroke-width: 0px;"/>
      <path d="m139.61,759.45v44.16l-18.9,5.13s1.37-20.69-17.4-38.69c11.04-4.03,23.12-7.59,36.3-10.6Z" style="fill: #8647cb; stroke-width: 0px;"/>
    </g>
    <g>
      <path d="m174.73,1216.74c-79.84,28.63-126.54,116.01-93.63,91.22,10.76-8.1,30.27-18.1,54.05-26,48.91-16.26,112.09-31.28,158.57,5,69.06,53.93,158.8,19.61,190.98-46.52,4.57-9.52-35.13-26.2-47.64-20.76-18.84,8.19-11.65,2.09-11.65,2.09,0,0-19.88,24.69-61.76,16.33-41.9-8.36-115.66-47.62-188.91-21.36Z" style="fill: #ba81f9; stroke-width: 0px;"/>
      <path d="m174.73,1216.74c-79.84,28.63-126.54,116.01-93.63,91.22,10.76-8.1,30.27-18.1,54.05-26,0,0,27.64-35.61,88.94-37.43,87.09-2.57,151.01,65.04,212.97-24.85,2.79-4.05-14.13.51-14.13.51,0,0-18,25.68-59.88,17.31-41.9-8.36-115.06-47.03-188.31-20.76Z" style="fill: #8547ca; stroke-width: 0px;"/>
      <path d="m242.04,1201.89c-21.25-.14-34.61,11.67-24.05,21.26,10.56,9.59,37.13,9.76,47.82.31s-2.52-21.43-23.77-21.57Z" style="fill: #d6b5f9; stroke-width: 0px;"/>
      <path d="m153.36,1222.63c-14.76,8.64-18.94,22.64-7.54,25.21,11.41,2.56,29.85-8.24,33.2-19.44,3.35-11.2-10.91-14.41-25.67-5.77Z" style="fill: #d6b5f9; stroke-width: 0px;"/>
      <path d="m94.8,1266.97c-9.96,8.82-11.04,20.14-1.95,20.38,9.1.24,21.55-10.79,22.41-19.85.87-9.06-10.5-9.35-20.46-.53Z" style="fill: #d6b5f9; stroke-width: 0px;"/>
      <path d="m335.63,1223.02c-22.71-5.19-39.5,2.9-30.21,14.56,9.28,11.66,37.67,18.15,51.1,11.68,13.43-6.47,1.82-21.05-20.89-26.24Z" style="fill: #d6b5f9; stroke-width: 0px;"/>
    </g>
    <g>
      <path d="m1177.4,1170.96c-.21,2.85-.85,5.59-1.85,8.12l6.81,1.07-16.37,11.24v-.02c-5.09,3.7-11.46,5.69-18.23,5.19l-368.93-26.98c-15.26-1.11-26.72-14.39-25.61-29.65l5.29-72.29c.63-8.6,5.12-16,11.65-20.61l.35-.24,16.57-11.36-1.29,6.55c.78-.01,1.56.01,2.35.07l368.94,26.98c15.25,1.11,26.71,14.39,25.6,29.64l-5.28,72.3Z" style="fill: #ba81f9; stroke-width: 0px;"/>
      <g>
        <rect x="921.28" y="894.79" width="127.88" height="425.31" rx="27.37" ry="27.37" transform="translate(-191.12 2009.28) rotate(-85.82)" style="fill: #fff; stroke-width: 0px;"/>
        <path d="m1161.96,1174.9c-.54,0-1.09-.02-1.64-.06l-358.14-26.19c-5.86-.43-11.21-3.12-15.05-7.57-3.84-4.45-5.72-10.13-5.29-15.99l4.73-64.71c.88-12.11,11.46-21.22,23.56-20.35l358.14,26.19c12.11.88,21.23,11.45,20.35,23.56l-4.73,64.71c-.43,5.86-3.12,11.21-7.57,15.05-4.03,3.48-9.08,5.36-14.35,5.36Zm-1.35-4.05c9.91.74,18.55-6.75,19.28-16.65l4.73-64.71c.72-9.91-6.75-18.55-16.65-19.28l-358.14-26.19c-9.91-.74-18.55,6.75-19.28,16.65l-4.73,64.71c-.35,4.8,1.19,9.45,4.33,13.09,3.14,3.64,7.52,5.84,12.32,6.19l358.14,26.19Z" style="fill: #ba81f9; stroke-width: 0px;"/>
        <g>
          <path d="m901.08,1128.08l4.44-15.29c1.8.35,4.15.72,7.44.96,7.69.56,14.12-1.08,18.75-4.48,4.64-3.41,7.44-8.56,7.91-14.94.32-4.33-.57-8.05-2.54-11.05-1.97-2.99-5-5.23-8.92-6.61-2.28-.8-4.86-1.32-7.71-1.53-3.02-.22-8.99.16-12.6.5l-.23.02-15.06,51.79,8.52.62h0Zm12.08-22.2c-1.16-.08-2.19-.18-3.13-.29-.83-.1-1.6-.22-2.33-.36l6.45-22.18c1.55-.11,3.73-.21,5.94-.05,1.37.1,2.61.3,3.72.6,2.14.57,3.81,1.49,5.02,2.71,1.83,1.83,2.65,4.37,2.43,7.49-.29,4-1.97,7.22-4.97,9.33-3.01,2.13-7.39,3.18-13.13,2.76Z" style="fill-rule: evenodd; stroke-width: 0px;"/>
          <path d="m976.1,1133.56l15.21-52.29-8.53-.62-15.21,52.29,8.53.62h0Z" style="stroke-width: 0px;"/>
          <path d="m1086.2,1107.5l5.53-18.88,8.53.62-10.02,34.27c-.89,3-1.72,6.42-1.87,8.46-.06.84,0,1.48.19,1.92.09.21.21.36.35.47.14.1.32.17.56.19.31.02.71-.09,1.18-.36.47-.27.99-.67,1.53-1.17,1.06-.97,2.18-2.28,3.18-3.6,0-.17.02-.35.03-.53.42-5.7,2.88-11.39,6.73-15.56,3.86-4.17,9.12-6.82,15.15-6.38,4.17.3,7.4,2.01,9.51,4.69,2.11,2.67,3.07,6.27,2.78,10.32-.71,9.67-7.25,19.34-16.53,21.58-1.7.41-3.51.57-5.36.44-1.84-.13-3.5-.54-4.97-1.19-2.53-1.12-4.45-2.95-5.7-5.27-1.91,2.08-3.98,3.62-6.22,4.39-1.3.45-2.67.64-4.05.54-1.38-.1-2.59-.48-3.59-1.11-2.12-1.36-3.23-3.85-3.16-7.23-2.18,3.05-4.99,5.4-8.44,6.4-1.48.43-3.07.6-4.78.48-1.6-.12-3.04-.51-4.31-1.15-2.67-1.32-4.56-3.66-5.56-6.54-2.05,2.89-4.19,4.77-6.52,5.65-1.25.47-2.56.65-3.88.56s-2.46-.47-3.41-1.1c-2.02-1.34-3.06-3.75-3.07-6.75-2.03,2.8-4.63,5-7.88,5.97-1.45.43-3.02.61-4.73.48-1.59-.12-3.04-.51-4.33-1.15-1.61-.79-2.82-1.99-3.72-3.43-1.9,1.63-4.06,2.77-6.33,3.29-2.53.59-5.24.42-7.7-.82-2.49-1.25-4.38-3.43-5.49-6.25-.56-1.44-1.11-3.15-1.64-4.8-.15-.46-.3-.92-.44-1.37-.32-.99-.65-1.95-.99-2.89-.93.12-1.82.19-2.66.2l-3.99,13.71-8.8-.64,15.28-52.55,8.8.64-8.48,29.14c4.53-.97,10.92-4.18,15.79-12.9l8.04,4.58c-4.5,8.06-10.25,12.79-15.74,15.36.32.89.61,1.77.88,2.6.18.55.35,1.08.51,1.59.51,1.59.94,2.94,1.4,4.11.41,1.04.93,1.48,1.33,1.68.44.22,1.09.34,1.98.13,1.78-.41,4.23-2.16,5.63-5.74l1.1-3.64c.5-2.41,1.28-4.58,2.18-6.15,4.3-7.52,12.13-12.25,20.37-11.65,2.68.2,5.44,1.05,7.81,2.21,2.38,1.16,4.4,2.64,5.62,4.11l.12.14-.05.18c-.35,1.14-.78,2.52-1.25,4.04-.77,2.46-1.64,5.28-2.45,7.98-.65,2.18-1.25,4.28-1.7,6.03-.45,1.76-.75,3.15-.81,3.94-.04.59.05,1.02.21,1.3.15.26.39.41.72.44.47.03,1.05-.19,1.73-.74.68-.55,1.44-1.4,2.25-2.54,1.63-2.27,3.48-5.64,5.49-9.92,3.8-9.22,12.24-14.84,20.24-14.25,3.67.27,6.15,1.56,7.85,3.38h0Zm-43.87,9.44l2.04-6.49c-1.39-.97-3-1.68-5.1-1.84-3.66-.27-7.03,1.54-9.58,4.42-2.55,2.88-4.23,6.8-4.51,10.66-.14,1.96.21,3.58.98,4.74.76,1.14,1.96,1.86,3.6,1.98,2.45.18,4.89-.9,7.07-3.18,2.19-2.28,4.11-5.75,5.51-10.29h0Zm41.33-.93l.54-1.91c-1.39-1.26-3.34-2.28-5.96-2.47-3.51-.26-6.75,1.5-9.2,4.34-2.45,2.84-4.08,6.72-4.37,10.63-.15,2.04.2,3.66.95,4.79.74,1.12,1.88,1.8,3.4,1.91,2.79.2,5.65-1.4,8.23-4.45,2.58-3.04,4.83-7.49,6.4-12.84h0Zm21.24,17.97c.82,1.25,2.17,2.09,4.21,2.24,2.94.21,5.77-1.53,7.96-4.3,2.18-2.76,3.67-6.47,3.93-10.04.14-1.93-.17-3.64-1-4.9-.82-1.25-2.17-2.09-4.21-2.24-2.94-.21-5.77,1.55-7.96,4.33-2.18,2.77-3.67,6.48-3.93,10.02-.14,1.93.17,3.64,1,4.9Z" style="fill-rule: evenodd; stroke-width: 0px;"/>
          <path d="m1157.58,1136.78l-.22.28c-1.73,2.2-4.05,4.62-5.59,5.81-1.26.97-2.69,1.86-4.25,2.51-1.88.79-3.94,1.24-6.1,1.08-1.83-.13-3.4-.58-4.69-1.29-3.51-1.92-4.92-5.73-4.6-10.21.13-1.77.46-3.49.78-4.83h0s0-.04,0-.04c.11-.47.23-.89.33-1.26l3.54-12.19-5.83-.43,2.14-7.35,5.79.42,4.14-14.11,8.53.62-4.16,14.11,10.33.76-2.14,7.35-10.36-.76-3.6,12.48s-.02.05-.02.08h0s0,.01,0,.01c0,.03-.02.06-.02.09h0v.03c-.48,1.76-.87,3.34-.97,4.66-.09,1.23.09,2.19.49,2.84.39.64.99,1.03,1.85,1.09.98.07,1.89-.22,2.94-.86,1.06-.65,2.22-1.64,3.69-2.96.12-.11.84-.88,1.63-1.72l.63-.67,5.72,4.45Z" style="stroke-width: 0px;"/>
          <path d="m957.28,1095.27c-6.02-.44-11.29,2.21-15.14,6.38-3.86,4.17-6.32,9.86-6.73,15.56-.47,6.37,2.14,11.61,7.32,13.9,1.46.65,3.12,1.05,4.96,1.19,1.84.13,3.65-.02,5.34-.43,9.29-2.23,15.83-11.9,16.54-21.58.3-4.05-.67-7.65-2.77-10.32-2.11-2.67-5.34-4.38-9.51-4.69Zm-8.14,29.25c-2.04-.15-3.39-.99-4.21-2.24-.83-1.26-1.14-2.97-.99-4.9.26-3.54,1.75-7.25,3.93-10.02,2.19-2.77,5.02-4.54,7.96-4.33,2.05.15,3.4,1,4.21,2.24.83,1.26,1.14,2.97.99,4.9-.26,3.57-1.75,7.29-3.93,10.04-2.19,2.76-5.02,4.51-7.96,4.3Z" style="fill-rule: evenodd; stroke-width: 0px;"/>
          <path d="m847.82,1075.67c7.33.54,13.52-2.53,13.84-6.84s-5.37-8.25-12.7-8.78c-7.33-.54-13.52,2.53-13.84,6.84s5.37,8.25,12.7,8.78Z" style="fill: #ff2670; stroke-width: 0px;"/>
          <path d="m843.52,1134.52c7.33.54,13.52-2.53,13.84-6.84.32-4.32-5.37-8.25-12.7-8.78s-13.52,2.53-13.84,6.84c-.32,4.32,5.37,8.25,12.7,8.78Z" style="fill: #ff2670; stroke-width: 0px;"/>
          <path d="m828.54,1085.12c4.13-6.16,4.62-13.11,1.09-15.54-3.53-2.43-9.75.59-13.88,6.75-4.13,6.16-4.62,13.11-1.09,15.54,3.53,2.43,9.75-.59,13.88-6.75Z" style="fill: #ff2670; stroke-width: 0px;"/>
          <path d="m876.75,1118.23c4.13-6.16,4.62-13.11,1.08-15.54-3.53-2.43-9.75.59-13.88,6.75-4.13,6.16-4.62,13.11-1.08,15.54,3.53,2.43,9.75-.59,13.88-6.75Z" style="fill: #ff2670; stroke-width: 0px;"/>
          <path d="m825.77,1122.27c3.85-1.89,4.38-8.84,1.19-15.53-3.19-6.69-8.9-10.58-12.76-8.7-3.85,1.89-4.38,8.84-1.19,15.53,3.19,6.69,8.9,10.58,12.76,8.7Z" style="fill: #ff2670; stroke-width: 0px;"/>
          <path d="m878.28,1096.52c3.85-1.89,4.38-8.84,1.19-15.53-3.19-6.69-8.9-10.58-12.76-8.7-3.85,1.89-4.38,8.84-1.19,15.53,3.19,6.69,8.9,10.58,12.76,8.7Z" style="fill: #ff2670; stroke-width: 0px;"/>
        </g>
      </g>
    </g>
    <path d="m959.39,1228.13c-2.7-23.26-7.94-45.05-15.65-60.94-11.51-23.71-26.08-35.48-26.21-29.16,4.68,42.3,9.62,67.57,6.9,92.64l34.95-2.53Z" style="fill: #ba81f9; stroke-width: 0px;"/>
  </g>
</svg>