<?xml version="1.0" encoding="UTF-8"?>
<svg id="Layer_1" data-name="Layer 1" xmlns="http://www.w3.org/2000/svg" viewBox="0 0 1056.81 1315.25">
  <g>
    <g>
      <circle cx="517.4" cy="250.71" r="84.17" style="fill: #bc83fb; stroke-width: 0px;"/>
      <g>
        <path d="m507.98,291.65c.09,10.73,13.57,11.38,14.6.65.5-3.14,5.16-2.72,5.11.44.14,7.09-5.66,13.73-13.18,13.2-3.55-.21-7.03-2.02-9.17-4.91-2.19-2.57-4.79-12.11.3-11.98,1.36.12,2.35,1.28,2.33,2.6h0Z" style="stroke-width: 0px;"/>
        <path d="m559.29,280.9c-.24-4.4-1.48-8.5-3.98-11.44-4.9-6.03-14.75-6.63-20.27-1.14-2.77,2.65-4.43,6.6-5.19,10.95-.2,1.33-1.46,2.24-2.79,2.01-1.14-.2-1.95-1.17-1.99-2.28-.1-2.61.24-5.29,1-7.94,4.44-15.37,25.32-18.55,34.51-5.63,3.31,4.53,4.25,10.38,3.49,15.73-.19,1.31-1.41,2.22-2.72,2.03-1.17-.17-2.02-1.16-2.06-2.3h0Z" style="stroke-width: 0px;"/>
        <path d="m501.23,277.69c-.27-4.41-1.53-8.52-4.04-11.45-4.93-6.02-14.75-6.62-20.3-1.15-2.78,2.65-4.46,6.6-5.25,10.96-.2,1.29-1.43,2.16-2.71,1.93-1.09-.2-1.87-1.12-1.92-2.19-.12-2.61.22-5.28.96-7.93,4.39-15.38,25.29-18.57,34.46-5.64,3.3,4.53,4.22,10.38,3.43,15.72-.19,1.27-1.38,2.15-2.65,1.95-1.12-.17-1.93-1.12-1.98-2.21h0Z" style="stroke-width: 0px;"/>
      </g>
      <path d="m443.67,210.09l76.1.78,77.72,13.82c3.12,9.61,4.56,19.96,3.96,30.66-.16,2.92-.48,5.81-.91,8.63-15.65-3.59-49.54-17.66-80.53-45.28,0,0-32.05,30.37-86.76,30.48,0-1.05.05-2.09.1-3.13.72-13.05,4.38-25.23,10.31-35.96Z" style="fill: #8747cc; stroke-width: 0px;"/>
      <g>
        <path d="m530.53.04c3.51,1.48,28.3,49.85,56.72,93.59,28.42,43.74,16.58,67.87-9.96,84.11-91.04-5.04-111.04-6.14-111.04-6.14-29.33-27.37-30.53-43.53,3.55-85.75C503.86,43.62,527.02-1.45,530.53.04Z" style="fill: #8747cc; stroke-width: 0px;"/>
        <path d="m596.16,201.84c-36.09-74.48-59.04-170.49-66.42-171.28-7.38-.79-41.68,88.64-86.14,165.49l152.57,5.79Z" style="fill: #bc83fb; stroke-width: 0px;"/>
        <path d="m531,48.73c-.59,17.89-2.2,35.75-3.96,53.54-1.65,17.56-4.29,35.42-2.63,52.96.24,2.73-3.86,3.26-4.25.48-1.19-9.04-.97-18.14-.37-27.18,1.2-17.88,3.48-35.56,5-53.37.74-8.87,1.4-17.75,1.94-26.63.19-2.74,4.33-2.62,4.28.2h0Z" style="fill: #8747cc; stroke-width: 0px;"/>
        <path d="m608.18,243.73c-5.76,9.04-51.23,1.45-88.5-31.15-40.64,28.29-86.69,30.81-91.42,21.2-4.76-9.64,5.63-40.58,15.31-45.11,9.68-4.55,45.41-1.56,78.17-25.16h0c29.96,27.07,67.08,28.11,76.2,33.7,9.12,5.57,16.02,37.47,10.24,46.53Z" style="fill: #bc83fb; stroke-width: 0px;"/>
        <path d="m452.14,184.77c18.08-1.72,36.54-4.91,53.13-12.45,3.93-1.84,8.17-4.09,11.71-6.55,2.26-1.22,4.1-4.69,6.74-2.85,14.65,10.62,31.05,18.77,48.32,24.2,5.79,1.79,11.75,3.41,17.57,4.5,3.2.64,2.46,5.52-.87,5.06-24.7-4.21-48.53-14.09-68.17-29.71,0,0,3.43-.25,3.43-.25-1.35,1.38-2.54,2.29-3.86,3.34-8.98,6.74-19.62,11.02-30.32,14.08-12.01,3.45-24.88,5.11-37.35,5.74-3.33.17-3.74-4.84-.33-5.13h0Z" style="fill: #8747cc; stroke-width: 0px;"/>
      </g>
    </g>
    <path d="m567.86,318.08c-25.2,25.22-70.67,26.76-97.19,2.76,31.58,15.04,67.06,16.41,97.19-2.76h0Z" style="fill: #8747cc; stroke-width: 0px;"/>
    <path d="m600.51,264.09c-6.73,42.06-44.31,73.07-87.76,70.67-20.38-1.13-38.67-9.42-52.55-22.3,79.52,9.84,117.99,7.28,140.32-48.37Z" style="fill: #8747cc; stroke-width: 0px;"/>
  </g>
  <g>
    <g>
      <path d="m819.83,1208.14c-6.07-46.46-35.49-106.59-35.73-96.76,4.18,39.43,7.23,62.44,2.9,94.67-1.1,8.2-2.3,15.39-4.2,21.45-.02.07-.04.12-.06.18-1.5,4.69-3.3,8.68-5.45,12.02-20.41,31.66-76.43-.75-122.58-56.49l-71.6-7.57-17.18-1.81-15.24-1.63c6.76,10.84,13.56,20.99,20.39,30.43,102.54,142.3,207.92,130.02,239.53,70.89,10.1-18.89,12.24-42.32,9.23-65.38Z" style="fill: #ba81f9; stroke-width: 0px;"/>
      <path d="m782.75,1227.68c-1.5,4.68-3.31,8.68-5.45,12.02-20.41,31.65-76.43-.76-122.58-56.49l-88.78-9.39c93.23,141.96,196.29,128.56,216.81,53.87Z" style="fill: #8547ca; stroke-width: 0px;"/>
      <path d="m717.01,1250.58c-10.94-4.42-21.46-5.38-23.53-.18-2.07,5.2,5.12,13,16.06,17.41,10.94,4.42,21.49,3.78,23.56-1.42,2.07-5.2-5.15-11.39-16.09-15.81Z" style="fill: #d6b5f9; stroke-width: 0px;"/>
      <ellipse cx="646.7" cy="1214.97" rx="14.32" ry="27.07" transform="translate(-687.5 876.89) rotate(-47.76)" style="fill: #d6b5f9; stroke-width: 0px;"/>
      <path d="m601.27,1198.88l-6.72-19.56-11.43-3.69-17.18-1.81-15.24-1.63c6.76,10.84,13.56,20.99,20.39,30.43,13.35-9.24,30.19-3.74,30.19-3.74Z" style="fill: #8547ca; stroke-width: 0px;"/>
    </g>
    <g>
      <path d="m1043.24,195.81c-2.63,9.38-5.64,22.35-7.82,38.28l.02.03c-3.03,22.24-4.41,50.31-.75,82.53,9.3,81.94-3.06,196.28-129.72,245.67-16.65,6.49-35.28,11.86-56.09,15.89l-44.96-65.05s61.25-6.51,109.98-46.63c9.44-7.76,18.41-16.79,26.37-27.28,4.57-5.96,8.78-12.41,12.57-19.36,4.8-8.82,8.78-17.38,12.07-25.77,26.16-65.96,13.35-120.58,73.21-201.55,1.93-2.62,6.03,0,5.12,3.24Z" style="fill: #ba81f9; stroke-width: 0px;"/>
      <path d="m848.89,578.21l-26.66-38.57c53.47,1.19,121.5-38.17,151.25-85.03,40.82-64.28,32.27-123.81,41.89-157.11,9.6-33.32,20.06-63.4,20.06-63.4l.02.02c-3.02,22.24-4.41,50.31-.75,82.53,10.52,92.72-6.68,226.91-185.81,261.56Z" style="fill: #8547ca; stroke-width: 0px;"/>
      <path d="m932.36,536.57l-27.39,25.75c-16.65,6.49-35.28,11.86-56.09,15.89l-44.96-65.05s61.25-6.51,109.98-46.63c-3.06,49.31,18.46,70.04,18.46,70.04Z" style="fill: #8547ca; stroke-width: 0px;"/>
      <path d="m893.39,545.44c23.74-9.7,42.45-6.59,33.67,5.6-8.78,12.19-38.45,24.32-53.42,21.83-14.96-2.49-3.99-17.73,19.75-27.43Z" style="fill: #d6b5f9; stroke-width: 0px;"/>
      <path d="m966.86,499.06c19.66-20.15,38.97-24.74,34.76-8.26-4.21,16.48-28.78,41.67-44.23,45.34-15.45,3.67-10.18-16.93,9.47-37.08Z" style="fill: #d6b5f9; stroke-width: 0px;"/>
      <path d="m1015.8,417.52c4.21-22.72,14.89-34.35,19.23-20.92,4.33,13.42-.93,41.83-9.47,51.12s-13.96-7.48-9.75-30.2Z" style="fill: #d6b5f9; stroke-width: 0px;"/>
      <path d="m1025.54,344.57c-1.5-17.23,3.48-27.97,8.98-19.34,5.5,8.64,7.38,30.18,3.39,38.77-3.99,8.59-10.86-2.2-12.36-19.44Z" style="fill: #d6b5f9; stroke-width: 0px;"/>
      <path d="m1026.46,280.28c-.22-13.13,4.2-20.94,7.95-14.05,3.75,6.89,4.02,23.3.49,29.55-3.53,6.24-8.22-2.37-8.44-15.5Z" style="fill: #d6b5f9; stroke-width: 0px;"/>
    </g>
    <path d="m936.95,686.05c5.31-2.75,10.88,10.24,4.78,13.29-16.49,8.26-32.19,18.25-47.26,28.53-16.45,11.2-32.14,23.55-47.32,36.51-6.9,5.6-15.55-4.19-8.89-10.32,30.17-26.15,63.13-49.58,98.69-68.02Z" style="fill: #622f9c; stroke-width: 0px;"/>
    <g>
      <path d="m411.77,1189.21c-31.78,43.25-81.85,23.71-67.21,24.73,10.39.72,19.66-6.56,22.61-28.03,1.19-8.64,12.37-24.48,44.6,3.3Z" style="fill: #8547ca; stroke-width: 0px;"/>
      <path d="m351.23,1169.32l7.88,6.68s12.22,25.99,13.44,25.73c5.67-1.32,8.82.05,18.27-.72,2.25-.19,4.6-.33,7.02-.42,1.19-.05,2.4-.08,3.63-.1.07,0,.14,0,.21,0,1.17,0,2.35,0,3.55,0,2.28.03,4.6.12,6.96.27,16.48,1.02,34.7,5.15,51.42,15.5,11.04-21.37,18.45-46.39,22.3-74.23l-78.49,15.92-18.12,3.67-24.27,4.92-11.89,2.41-1.89.38Z" style="fill: #8547ca; stroke-width: 0px;"/>
      <path d="m369.72,1165.7c-.09.18-.19.35-.27.52-4.67,8.91-6.05,17.88-4.8,25.09.83,4.8,2.82,8.81,5.78,11.49.58.53,1.21,1.01,1.87,1.44,3.13,2,7.07,2.73,11.69,1.76,3.79-.8,7.43-2.63,10.76-5.19,5.43-4.19,10.02-10.31,13.08-17.08,3.81-8.48,5.19-17.96,2.72-25.79-.08-.27-.17-.54-.26-.82-2.74-7.7-8.46-11.22-15.04-10.97-8.7.31-18.88,7.18-25.53,19.55Z" style="fill: #ba81f9; stroke-width: 0px;"/>
    </g>
    <g>
      <path d="m226.51,667.12l-44.78-30.57-55.95-38.18C25.11,507-32.52,381.19,28.97,221.39l-.02-.02c5.23-13.61,11.34-27.45,18.32-41.53,1.29-2.6,8.12-1.83,5.77,7.53-16.6,65.94-14.25,141.77,16.05,206.84,2.88,6.22,6.05,12.34,9.47,18.34,6.9,12.15,14.87,23.81,23.98,34.84,6.18,7.47,12.29,14.38,18.36,20.82,3.82,4.08,7.6,8,11.33,11.77,20.27,20.49,39.12,36.93,54.57,54.96,26.11,30.44,42.53,65.44,39.71,132.18Z" style="fill: #bb82fa; stroke-width: 0px;"/>
      <path d="m27.14,420.05s12.35-24.74,41.96-25.84c2.88,6.22,6.05,12.34,9.47,18.34-13.15,4.43-32.93,15.24-40.15,40.99l-11.28-33.48Z" style="fill: #d1a5ff; stroke-width: 0px;"/>
      <path d="m28.97,221.4s-25.2,120.64,14.67,215.8c15.15,36.18,35.66,59.69,56.44,80.25,33.85,33.53,68.41,59.2,81.65,119.11l-55.94-38.18c-23.75-21.55-45.1-45.01-63.06-70.38C4.55,445.78-18.02,343.51,28.97,221.4Z" style="fill: #8647cb; stroke-width: 0px;"/>
      <path d="m26.94,481.32c-9.42-19.7-6.8-35.94,4.72-29.23,11.51,6.71,23.29,31.33,21.19,44.32-2.1,12.99-16.49,4.6-25.91-15.1Z" style="fill: #d7b6fa; stroke-width: 0px;"/>
      <path d="m2.31,398.95c-3.03-17.39,2.68-29.59,10.29-21.96,7.61,7.63,11.4,29.37,6.83,39.13-4.57,9.76-14.08.22-17.12-17.17Z" style="fill: #d7b6fa; stroke-width: 0px;"/>
      <path d="m.03,323.92c.55-15.26,7.41-24.64,12.35-16.88,4.94,7.76,4.26,26.84-1.23,34.34-5.49,7.5-11.67-2.2-11.12-17.46Z" style="fill: #d7b6fa; stroke-width: 0px;"/>
      <path d="m20.02,263.87c-2.33,11.88-6.39,18.78-8.67,12.22-2.28-6.55.64-21.41,5.24-26.74,4.61-5.33,5.76,2.63,3.43,14.52Z" style="fill: #d7b6fa; stroke-width: 0px;"/>
      <path d="m226.51,667.12l-44.78-30.57c-13.25-59.91-47.81-85.59-81.66-119.11,21.13-3.22,28.26-16.1,32.16-37.46,20.27,20.49,39.12,36.93,54.57,54.96,22.75,40.2,41.55,88.71,39.71,132.18Z" style="fill: #8647cb; stroke-width: 0px;"/>
      <path d="m84.9,561.85c-16.64-17.13-18.58-35.65-3.49-33.33,15.08,2.32,35.88,23.73,37.43,38.54,1.55,14.81-17.3,11.92-33.94-5.21Z" style="fill: #d7b6fa; stroke-width: 0px;"/>
    </g>
    <path d="m159.98,331.35h721.51c10.18,0,18.44,8.26,18.44,18.44v805.06c0,14.76-11.98,26.74-26.74,26.74H168.27c-14.75,0-26.73-11.98-26.73-26.73V349.79c0-10.18,8.26-18.44,18.44-18.44Z" style="fill: #bb82fa; stroke-width: 0px;"/>
    <path d="m899.93,373.37v779.56c0,15.82-10.97,28.66-24.49,28.66H166.02c-13.52,0-24.49-12.84-24.49-28.66V373.37h758.4Z" style="fill: #0e0c12; stroke-width: 0px;"/>
    <circle cx="169.8" cy="354.11" r="7.79" style="fill: #fff; stroke-width: 0px;"/>
    <circle cx="194.42" cy="354.11" r="7.79" style="fill: #fff; stroke-width: 0px;"/>
    <circle cx="219.05" cy="354.11" r="7.79" style="fill: #fff; stroke-width: 0px;"/>
    <g>
      <path d="m208.65,427.15h10.6v1.7h-10.6v-1.7Zm.5-5.17h10.6v1.7h-10.6v-1.7Zm2.88-4.5h1.54l-1.99,16.4h-1.57l2.02-16.4Zm4.71,0h1.54l-1.99,16.4h-1.57l2.02-16.4Z" style="fill: #19a3ff; stroke-width: 0px;"/>
      <path d="m227.21,416.03h7.11v1.39h-5.15v18.92h5.15v1.39h-7.11v-21.69Z" style="fill: #19a3ff; stroke-width: 0px;"/>
      <path d="m244.54,423.56h-5.51v-2h8.02v12.32h-2.51v-10.32Zm-.82-6.2c0-1.06.79-1.79,1.87-1.79s1.87.73,1.87,1.79-.79,1.78-1.87,1.78-1.87-.7-1.87-1.78Z" style="fill: #19a3ff; stroke-width: 0px;"/>
      <path d="m254.18,421.56h2.05l.2,1.96h.1c1.23-1.27,2.64-2.27,4.54-2.27,2.88,0,4.2,1.77,4.2,4.98v7.65h-2.51v-7.32c0-2.15-.72-3.15-2.55-3.15-1.34,0-2.24.66-3.52,1.96v8.5h-2.51v-12.32Z" style="fill: #19a3ff; stroke-width: 0px;"/>
      <path d="m269.57,416h2.51v11.63h.1l6.07-6.07h2.82l-9,9.04v3.28h-2.51v-17.88Zm4.84,11.59l1.49-1.61,5.77,7.9h-2.76l-4.49-6.29Z" style="fill: #19a3ff; stroke-width: 0px;"/>
      <path d="m287.54,423.03c0-1.36.98-2.36,2.27-2.36s2.27,1,2.27,2.36-.98,2.36-2.27,2.36-2.27-.97-2.27-2.36Zm0,8.8c0-1.36.98-2.36,2.27-2.36s2.27,1,2.27,2.36-.98,2.36-2.27,2.36-2.27-.97-2.27-2.36Z" style="fill: #19a3ff; stroke-width: 0px;"/>
      <path d="m302.68,423.03c0-1.36.98-2.36,2.27-2.36s2.27,1,2.27,2.36-.98,2.36-2.27,2.36-2.27-.97-2.27-2.36Zm0,8.8c0-1.36.98-2.36,2.27-2.36s2.27,1,2.27,2.36-.98,2.36-2.27,2.36-2.27-.97-2.27-2.36Z" style="fill: #19a3ff; stroke-width: 0px;"/>
      <path d="m314.46,427.74c0-4.13,3.19-6.49,6.94-6.49,1.99,0,3.5.78,4.52,1.77l-1.21,1.59c-1-.82-2.01-1.29-3.2-1.29-2.65,0-4.47,1.76-4.47,4.42s1.8,4.38,4.41,4.38c1.46,0,2.68-.65,3.66-1.45l1.08,1.62c-1.4,1.22-3.15,1.9-4.94,1.9-3.86,0-6.78-2.36-6.78-6.44Z" style="fill: #19a3ff; stroke-width: 0px;"/>
      <path d="m329.09,427.74c0-4.13,2.89-6.49,6.14-6.49s6.14,2.36,6.14,6.49-2.89,6.44-6.14,6.44-6.14-2.36-6.14-6.44Zm9.7,0c0-2.66-1.38-4.42-3.57-4.42s-3.57,1.76-3.57,4.42,1.38,4.38,3.57,4.38,3.57-1.74,3.57-4.38Z" style="fill: #19a3ff; stroke-width: 0px;"/>
      <path d="m345.01,421.56h2.05l.2,1.96h.1c1.23-1.27,2.64-2.27,4.54-2.27,2.88,0,4.2,1.77,4.2,4.98v7.65h-2.51v-7.32c0-2.15-.72-3.15-2.55-3.15-1.34,0-2.24.66-3.52,1.96v8.5h-2.51v-12.32Z" style="fill: #19a3ff; stroke-width: 0px;"/>
      <path d="m362.92,429.01v-5.44h-3.4v-1.87l3.5-.13.33-3.91h2.08v3.91h5.82v2h-5.82v5.45c0,2.12.75,3.15,2.98,3.15,1.08,0,1.96-.22,2.81-.53l.51,1.83c-1.11.38-2.33.72-3.9.72-3.69,0-4.91-2.09-4.91-5.18Z" style="fill: #19a3ff; stroke-width: 0px;"/>
      <path d="m376.54,421.56h2.08l.22,2.86h.06c1.27-2.01,3.17-3.16,5.37-3.16.96,0,1.67.14,2.42.5l-.55,2.13c-.84-.27-1.31-.39-2.26-.39-1.77,0-3.47.9-4.83,3.39v6.99h-2.51v-12.32Z" style="fill: #19a3ff; stroke-width: 0px;"/>
      <path d="m390.1,430.63c0-2.76,2.51-4.12,8.73-4.59-.09-1.52-.91-2.75-3.1-2.75-1.49,0-2.96.68-4.17,1.39l-.96-1.68c1.38-.85,3.43-1.75,5.57-1.75,3.4,0,5.16,1.95,5.16,5.2v7.42h-2.08l-.2-1.6h-.08c-1.32,1.03-3.03,1.9-4.72,1.9-2.36,0-4.17-1.39-4.17-3.56Zm8.73-.1v-2.89c-4.84.35-6.28,1.32-6.28,2.79,0,1.24,1.11,1.75,2.43,1.75s2.57-.62,3.85-1.66Z" style="fill: #19a3ff; stroke-width: 0px;"/>
      <path d="m405.28,427.74c0-4.13,3.19-6.49,6.94-6.49,1.99,0,3.5.78,4.52,1.77l-1.21,1.59c-1-.82-2.01-1.29-3.2-1.29-2.65,0-4.47,1.76-4.47,4.42s1.8,4.38,4.41,4.38c1.46,0,2.68-.65,3.66-1.45l1.08,1.62c-1.4,1.22-3.15,1.9-4.94,1.9-3.86,0-6.78-2.36-6.78-6.44Z" style="fill: #19a3ff; stroke-width: 0px;"/>
      <path d="m423.47,429.01v-5.44h-3.4v-1.87l3.5-.13.33-3.91h2.08v3.91h5.82v2h-5.82v5.45c0,2.12.75,3.15,2.98,3.15,1.08,0,1.96-.22,2.81-.53l.51,1.83c-1.11.38-2.33.72-3.9.72-3.69,0-4.91-2.09-4.91-5.18Z" style="fill: #19a3ff; stroke-width: 0px;"/>
      <path d="m436.13,436.33h5.15v-18.92h-5.15v-1.39h7.11v21.69h-7.11v-1.39Z" style="fill: #19a3ff; stroke-width: 0px;"/>
      <path d="m223.91,451.83h2.05l.2,1.49h.08c1.1-1.04,2.66-1.79,4.11-1.79,3.26,0,5.06,2.46,5.06,6.28,0,4.19-2.62,6.65-5.54,6.65-1.13,0-2.45-.56-3.51-1.53h-.06l.12,2.25v4.01h-2.51v-17.36Zm8.92,5.99c0-2.58-.94-4.2-3.16-4.2-1.01,0-2.13.5-3.25,1.65v5.83c1.02.93,2.18,1.26,2.97,1.26,1.96,0,3.44-1.63,3.44-4.54Z" style="fill: #ffc259; stroke-width: 0px;"/>
      <path d="m238.68,459.48v-7.65h2.51v7.32c0,2.13.71,3.15,2.57,3.15,1.29,0,2.22-.57,3.45-2.03v-8.43h2.51v12.32h-2.07l-.2-2.05h-.1c-1.2,1.4-2.61,2.36-4.48,2.36-2.89,0-4.19-1.77-4.19-4.98Z" style="fill: #ffc259; stroke-width: 0px;"/>
      <path d="m256.48,462.8h-.08l-.23,1.36h-1.99v-17.88h2.51v4.74l-.11,2.27h.08c1.06-1.07,2.55-1.75,3.93-1.75,3.26,0,5.08,2.46,5.08,6.26,0,4.22-2.62,6.67-5.5,6.67-1.2,0-2.6-.62-3.71-1.66Zm6.63-4.97c0-2.58-.94-4.2-3.16-4.2-1.01,0-2.13.5-3.25,1.65v5.83c1.02.93,2.18,1.26,3.01,1.26,1.92,0,3.4-1.63,3.4-4.54Z" style="fill: #ffc259; stroke-width: 0px;"/>
      <path d="m283.56,451.83h1.96l.2,1.6h.06c.59-1.1,1.35-1.9,2.78-1.9,1.18,0,1.94.71,2.28,2.1.64-1.26,1.43-2.1,2.85-2.1,1.73,0,2.74,1.39,2.74,3.85v8.78h-2.44v-8.6c0-1.25-.35-1.88-1.15-1.88s-1.18.57-1.75,1.72v8.77h-2.17v-8.6c0-1.25-.32-1.88-1.12-1.88-.75,0-1.25.57-1.78,1.72v8.77h-2.44v-12.32Z" style="fill: #ffc259; stroke-width: 0px;"/>
      <path d="m298.81,458.02c0-4.12,2.89-6.49,6.14-6.49s6.14,2.36,6.14,6.49-2.89,6.44-6.14,6.44-6.14-2.36-6.14-6.44Zm9.7,0c0-2.66-1.38-4.42-3.57-4.42s-3.57,1.76-3.57,4.42,1.38,4.38,3.57,4.38,3.57-1.74,3.57-4.38Z" style="fill: #ffc259; stroke-width: 0px;"/>
      <path d="m313.95,458.02c0-4.01,2.64-6.49,5.5-6.49,1.44,0,2.52.56,3.55,1.51h.06l-.12-2.17v-4.6h2.51v17.88h-2.05l-.2-1.53h-.08c-.99,1-2.41,1.83-3.87,1.83-3.18,0-5.29-2.36-5.29-6.44Zm8.98,2.7v-5.83c-1-.93-1.94-1.26-2.92-1.26-1.92,0-3.5,1.67-3.5,4.36s1.24,4.38,3.3,4.38c1.12,0,2.14-.53,3.11-1.65Z" style="fill: #ffc259; stroke-width: 0px;"/>
      <path d="m345.26,451.96l3.52-.13h7.33v2.01h-10.86v-1.88Zm3.46-.98c0-2.95,1.59-5.01,5.11-5.01,1.27,0,2.47.25,3.6.7l-.54,1.87c-.95-.4-1.76-.56-2.79-.56-2.04,0-2.89,1.09-2.89,2.94v13.24h-2.49v-13.17Z" style="fill: #19a3ff; stroke-width: 0px;"/>
      <path d="m363.88,459.84v-11.56h-4.24v-2h6.75v13.72c0,1.71.97,2.4,2.32,2.4.67,0,1.39-.16,2.21-.52l.6,1.87c-1.18.46-2,.72-3.4.72-2.76,0-4.25-1.65-4.25-4.62Z" style="fill: #19a3ff; stroke-width: 0px;"/>
      <path d="m380.78,453.84h-5.51v-2.01h8.02v12.32h-2.51v-10.32Zm-.82-6.2c0-1.06.79-1.79,1.87-1.79s1.87.73,1.87,1.79-.79,1.78-1.87,1.78-1.87-.7-1.87-1.78Z" style="fill: #19a3ff; stroke-width: 0px;"/>
      <path d="m390.42,451.83h2.05l.2,1.49h.08c1.1-1.04,2.66-1.79,4.11-1.79,3.26,0,5.06,2.46,5.06,6.28,0,4.19-2.62,6.65-5.54,6.65-1.13,0-2.45-.56-3.51-1.53h-.06l.12,2.25v4.01h-2.51v-17.36Zm8.92,5.99c0-2.58-.94-4.2-3.16-4.2-1.01,0-2.13.5-3.25,1.65v5.83c1.02.93,2.18,1.26,2.97,1.26,1.96,0,3.44-1.63,3.44-4.54Z" style="fill: #19a3ff; stroke-width: 0px;"/>
      <path d="m405.55,451.83h2.05l.2,1.49h.08c1.1-1.04,2.66-1.79,4.11-1.79,3.26,0,5.06,2.46,5.06,6.28,0,4.19-2.62,6.65-5.54,6.65-1.13,0-2.45-.56-3.51-1.53h-.06l.12,2.25v4.01h-2.51v-17.36Zm8.92,5.99c0-2.58-.94-4.2-3.16-4.2-1.01,0-2.13.5-3.25,1.65v5.83c1.02.93,2.18,1.26,2.97,1.26,1.96,0,3.44-1.63,3.44-4.54Z" style="fill: #19a3ff; stroke-width: 0px;"/>
      <path d="m420.11,457.98c0-4.01,3.02-6.44,6.32-6.44,3.62,0,5.67,2.38,5.67,5.82,0,.53-.06,1.04-.11,1.36h-10.14v-1.84h8.58l-.54.61c0-2.67-1.29-4.01-3.38-4.01s-3.93,1.59-3.93,4.5,1.9,4.52,4.55,4.52c1.38,0,2.49-.42,3.6-1.08l.88,1.59c-1.27.84-2.91,1.46-4.8,1.46-3.74,0-6.69-2.38-6.69-6.49Z" style="fill: #19a3ff; stroke-width: 0px;"/>
      <path d="m437.08,451.83h2.08l.22,2.86h.06c1.27-2.01,3.17-3.16,5.37-3.16.96,0,1.67.14,2.42.5l-.55,2.13c-.84-.27-1.31-.39-2.26-.39-1.77,0-3.47.9-4.83,3.39v6.99h-2.51v-12.32Z" style="fill: #19a3ff; stroke-width: 0px;"/>
      <path d="m470.18,464.58c0-1.83.25-3.06.25-4.72,0-.96-.7-1.91-3.61-1.94v-1.54c2.91-.03,3.61-.98,3.61-1.94,0-1.58-.25-2.98-.25-4.72,0-2.63,1.5-3.42,4.68-3.42h1.66v1.39h-1.24c-2.45,0-2.98.58-2.98,2.16,0,1.41.14,2.9.14,4.45,0,1.71-.6,2.5-2.36,2.8v.1c1.76.3,2.36,1.09,2.36,2.8s-.14,2.96-.14,4.45c0,1.58.53,2.16,2.98,2.16h1.24v1.39h-1.66c-3.18,0-4.68-.79-4.68-3.42Z" style="fill: #fff; stroke-width: 0px;"/>
      <path d="m269.2,487.7h10.6v1.7h-10.6v-1.7Zm.5-5.17h10.6v1.7h-10.6v-1.7Zm2.88-4.5h1.54l-1.99,16.4h-1.57l2.02-16.4Zm4.71,0h1.54l-1.99,16.4h-1.57l2.02-16.4Z" style="fill: #19a3ff; stroke-width: 0px;"/>
      <path d="m287.76,476.58h7.11v1.39h-5.15v18.92h5.15v1.39h-7.11v-21.69Z" style="fill: #19a3ff; stroke-width: 0px;"/>
      <path d="m305.09,484.11h-5.51v-2h8.02v12.32h-2.51v-10.32Zm-.82-6.2c0-1.06.79-1.79,1.87-1.79s1.87.73,1.87,1.79-.79,1.78-1.87,1.78-1.87-.7-1.87-1.78Z" style="fill: #19a3ff; stroke-width: 0px;"/>
      <path d="m314.73,482.11h2.05l.2,1.96h.1c1.23-1.27,2.64-2.27,4.54-2.27,2.88,0,4.2,1.77,4.2,4.98v7.65h-2.51v-7.32c0-2.15-.72-3.15-2.55-3.15-1.34,0-2.24.66-3.52,1.96v8.5h-2.51v-12.32Z" style="fill: #19a3ff; stroke-width: 0px;"/>
      <path d="m330.12,476.55h2.51v11.63h.1l6.07-6.07h2.82l-9,9.04v3.28h-2.51v-17.88Zm4.84,11.59l1.49-1.61,5.77,7.9h-2.76l-4.49-6.29Z" style="fill: #19a3ff; stroke-width: 0px;"/>
      <path d="m347.86,487.42c0-4.84,2.12-8.7,5.57-11.47l1.39,1.21c-3.28,2.87-4.77,6.09-4.77,10.26s1.49,7.39,4.77,10.26l-1.39,1.21c-3.45-2.77-5.57-6.63-5.57-11.47Z" style="fill: #19a3ff; stroke-width: 0px;"/>
      <path d="m359.61,492.82l1.12-1.63c1.45,1,3.12,1.62,5.25,1.62,1.89,0,2.79-.75,2.79-1.68,0-.87-.51-1.42-3.62-2.06-3.25-.67-4.78-1.8-4.78-3.67,0-2.06,1.85-3.59,5.26-3.59,1.96,0,3.83.77,5.07,1.6l-1.18,1.57c-1.17-.78-2.59-1.26-4.11-1.26-1.83,0-2.54.72-2.54,1.57,0,.97.98,1.34,3.4,1.86,4.01.88,5.02,1.91,5.02,3.84,0,2.06-2,3.76-5.64,3.76-2.35,0-4.54-.88-6.05-1.92Z" style="fill: #19a3ff; stroke-width: 0px;"/>
      <path d="m378.06,489.56v-5.44h-3.4v-1.87l3.5-.13.33-3.91h2.08v3.91h5.82v2h-5.82v5.45c0,2.12.75,3.15,2.98,3.15,1.08,0,1.96-.22,2.81-.53l.51,1.83c-1.11.38-2.33.72-3.9.72-3.69,0-4.91-2.09-4.91-5.18Z" style="fill: #19a3ff; stroke-width: 0px;"/>
      <path d="m389.64,488.29c0-4.13,2.89-6.49,6.14-6.49s6.14,2.36,6.14,6.49-2.89,6.44-6.14,6.44-6.14-2.36-6.14-6.44Zm9.7,0c0-2.66-1.38-4.42-3.57-4.42s-3.57,1.76-3.57,4.42,1.38,4.38,3.57,4.38,3.57-1.74,3.57-4.38Z" style="fill: #19a3ff; stroke-width: 0px;"/>
      <path d="m406.81,482.11h2.08l.22,2.86h.06c1.27-2.01,3.17-3.16,5.37-3.16.96,0,1.67.14,2.42.5l-.55,2.13c-.84-.27-1.31-.39-2.26-.39-1.77,0-3.47.9-4.83,3.39v6.99h-2.51v-12.32Z" style="fill: #19a3ff; stroke-width: 0px;"/>
      <path d="m420.38,491.18c0-2.76,2.51-4.12,8.73-4.59-.09-1.52-.91-2.75-3.1-2.75-1.49,0-2.96.68-4.17,1.39l-.96-1.68c1.38-.85,3.43-1.75,5.57-1.75,3.4,0,5.16,1.95,5.16,5.2v7.42h-2.08l-.2-1.6h-.08c-1.32,1.03-3.03,1.9-4.72,1.9-2.36,0-4.17-1.39-4.17-3.56Zm8.73-.1v-2.89c-4.84.35-6.28,1.32-6.28,2.79,0,1.24,1.11,1.75,2.43,1.75s2.57-.62,3.85-1.66Z" style="fill: #19a3ff; stroke-width: 0px;"/>
      <path d="m435.3,496.65c0-.99.7-1.94,2-2.67v-.1c-.67-.37-1.26-1.01-1.26-2.05,0-.8.55-1.68,1.47-2.31v-.1c-.86-.63-1.55-1.72-1.55-3.19,0-2.76,2.3-4.43,4.96-4.43.72,0,1.33.1,1.88.3h5.07v1.96h-3.01c.48.53.91,1.36.91,2.25,0,2.69-2.14,4.21-4.85,4.21-.6,0-1.31-.13-1.98-.4-.55.35-.85.75-.85,1.29,0,.88.86,1.29,2.44,1.29h2.64c3.19,0,4.77.84,4.77,2.95,0,2.38-2.71,4.34-6.98,4.34-3.5,0-5.65-1.17-5.65-3.35Zm10.21-.58c0-1.07-.89-1.35-2.64-1.35h-2.18c-.76,0-1.37-.05-1.88-.19-1.02.57-1.39,1.19-1.39,1.83,0,1.2,1.34,1.92,3.79,1.92,2.63,0,4.3-1.05,4.3-2.21Zm-2-9.83c0-1.61-1.16-2.66-2.58-2.66s-2.58,1.05-2.58,2.66,1.17,2.69,2.58,2.69,2.58-1.03,2.58-2.69Z" style="fill: #19a3ff; stroke-width: 0px;"/>
      <path d="m450.39,488.25c0-4.01,3.02-6.44,6.32-6.44,3.62,0,5.67,2.38,5.67,5.82,0,.53-.06,1.04-.11,1.37h-10.14v-1.84h8.57l-.54.61c0-2.67-1.29-4.01-3.38-4.01s-3.93,1.59-3.93,4.5,1.9,4.52,4.55,4.52c1.38,0,2.49-.42,3.6-1.08l.88,1.59c-1.27.83-2.91,1.46-4.8,1.46-3.74,0-6.69-2.38-6.69-6.49Z" style="fill: #19a3ff; stroke-width: 0px;"/>
      <path d="m467,497.68c3.28-2.87,4.77-6.09,4.77-10.26s-1.49-7.39-4.77-10.26l1.39-1.21c3.45,2.77,5.57,6.63,5.57,11.47s-2.12,8.7-5.57,11.47l-1.39-1.21Z" style="fill: #19a3ff; stroke-width: 0px;"/>
      <path d="m481.54,496.88h5.15v-18.92h-5.15v-1.39h7.11v21.69h-7.11v-1.39Z" style="fill: #19a3ff; stroke-width: 0px;"/>
      <path d="m269.32,512.38h2.05l.2,1.49h.08c1.1-1.04,2.66-1.79,4.11-1.79,3.26,0,5.06,2.46,5.06,6.28,0,4.19-2.62,6.65-5.54,6.65-1.13,0-2.45-.56-3.51-1.53h-.06l.12,2.25v4.01h-2.51v-17.36Zm8.92,5.99c0-2.58-.94-4.2-3.16-4.2-1.01,0-2.13.5-3.25,1.65v5.83c1.02.93,2.18,1.26,2.97,1.26,1.96,0,3.44-1.63,3.44-4.54Z" style="fill: #ffc259; stroke-width: 0px;"/>
      <path d="m284.09,520.03v-7.65h2.51v7.32c0,2.13.71,3.15,2.57,3.15,1.29,0,2.22-.57,3.45-2.03v-8.43h2.51v12.32h-2.07l-.2-2.05h-.1c-1.2,1.4-2.61,2.36-4.48,2.36-2.89,0-4.19-1.77-4.19-4.98Z" style="fill: #ffc259; stroke-width: 0px;"/>
      <path d="m301.89,523.35h-.08l-.23,1.36h-1.99v-17.88h2.51v4.74l-.11,2.27h.08c1.06-1.07,2.55-1.75,3.93-1.75,3.26,0,5.08,2.46,5.08,6.26,0,4.22-2.62,6.67-5.5,6.67-1.2,0-2.6-.62-3.71-1.66Zm6.63-4.97c0-2.58-.94-4.2-3.16-4.2-1.01,0-2.13.5-3.25,1.65v5.83c1.02.93,2.18,1.26,3.01,1.26,1.92,0,3.4-1.63,3.4-4.54Z" style="fill: #ffc259; stroke-width: 0px;"/>
      <path d="m329.33,523.09l1.12-1.63c1.45.99,3.12,1.62,5.25,1.62,1.89,0,2.79-.75,2.79-1.68,0-.87-.51-1.42-3.62-2.06-3.25-.67-4.78-1.8-4.78-3.67,0-2.06,1.85-3.59,5.26-3.59,1.96,0,3.83.77,5.07,1.6l-1.18,1.57c-1.17-.78-2.59-1.26-4.11-1.26-1.83,0-2.54.72-2.54,1.57,0,.96.98,1.34,3.4,1.86,4.01.88,5.02,1.91,5.02,3.84,0,2.06-2,3.76-5.64,3.76-2.35,0-4.54-.88-6.05-1.92Z" style="fill: #ffc259; stroke-width: 0px;"/>
      <path d="m347.79,519.83v-5.44h-3.4v-1.88l3.5-.13.33-3.91h2.08v3.91h5.82v2.01h-5.82v5.45c0,2.12.75,3.15,2.98,3.15,1.08,0,1.96-.22,2.81-.53l.51,1.84c-1.11.38-2.33.72-3.9.72-3.69,0-4.91-2.08-4.91-5.18Z" style="fill: #ffc259; stroke-width: 0px;"/>
      <path d="m361.4,512.38h2.08l.22,2.86h.06c1.27-2.01,3.17-3.16,5.37-3.16.96,0,1.67.14,2.42.5l-.55,2.13c-.84-.27-1.31-.39-2.26-.39-1.77,0-3.47.9-4.83,3.39v6.99h-2.51v-12.32Z" style="fill: #ffc259; stroke-width: 0px;"/>
      <path d="m374.91,520.03v-7.65h2.51v7.32c0,2.13.71,3.15,2.57,3.15,1.29,0,2.22-.57,3.45-2.03v-8.43h2.51v12.32h-2.07l-.2-2.05h-.1c-1.2,1.4-2.61,2.36-4.48,2.36-2.89,0-4.19-1.77-4.19-4.98Z" style="fill: #ffc259; stroke-width: 0px;"/>
      <path d="m390.14,518.57c0-4.12,3.19-6.49,6.94-6.49,1.99,0,3.5.78,4.52,1.77l-1.21,1.59c-1-.81-2.01-1.29-3.2-1.29-2.65,0-4.47,1.76-4.47,4.42s1.8,4.38,4.41,4.38c1.46,0,2.68-.65,3.66-1.45l1.08,1.62c-1.4,1.22-3.15,1.9-4.94,1.9-3.86,0-6.78-2.36-6.78-6.44Z" style="fill: #ffc259; stroke-width: 0px;"/>
      <path d="m408.33,519.83v-5.44h-3.4v-1.88l3.5-.13.33-3.91h2.08v3.91h5.82v2.01h-5.82v5.45c0,2.12.75,3.15,2.98,3.15,1.08,0,1.96-.22,2.81-.53l.51,1.84c-1.11.38-2.33.72-3.9.72-3.69,0-4.91-2.08-4.91-5.18Z" style="fill: #ffc259; stroke-width: 0px;"/>
      <path d="m436.79,508.19h10.36v2.13h-7.83v5.12h6.64v2.13h-6.64v7.13h-2.53v-16.52Z" style="fill: #19a3ff; stroke-width: 0px;"/>
      <path d="m454.7,520.39v-11.56h-4.24v-2h6.75v13.72c0,1.71.97,2.4,2.32,2.4.67,0,1.39-.16,2.21-.52l.6,1.87c-1.18.46-2,.72-3.4.72-2.76,0-4.25-1.65-4.25-4.62Z" style="fill: #19a3ff; stroke-width: 0px;"/>
      <path d="m471.6,514.39h-5.51v-2.01h8.02v12.32h-2.51v-10.32Zm-.82-6.2c0-1.06.79-1.79,1.87-1.79s1.87.73,1.87,1.79-.79,1.78-1.87,1.78-1.87-.7-1.87-1.78Z" style="fill: #19a3ff; stroke-width: 0px;"/>
      <path d="m481.24,512.38h2.05l.2,1.49h.08c1.1-1.04,2.66-1.79,4.11-1.79,3.26,0,5.06,2.46,5.06,6.28,0,4.19-2.62,6.65-5.54,6.65-1.13,0-2.45-.56-3.51-1.53h-.06l.12,2.25v4.01h-2.51v-17.36Zm8.92,5.99c0-2.58-.94-4.2-3.16-4.2-1.01,0-2.13.5-3.25,1.65v5.83c1.02.93,2.18,1.26,2.97,1.26,1.96,0,3.44-1.63,3.44-4.54Z" style="fill: #19a3ff; stroke-width: 0px;"/>
      <path d="m496.38,512.38h2.05l.2,1.49h.08c1.1-1.04,2.66-1.79,4.11-1.79,3.26,0,5.06,2.46,5.06,6.28,0,4.19-2.62,6.65-5.54,6.65-1.13,0-2.45-.56-3.51-1.53h-.06l.12,2.25v4.01h-2.51v-17.36Zm8.92,5.99c0-2.58-.94-4.2-3.16-4.2-1.01,0-2.13.5-3.25,1.65v5.83c1.02.93,2.18,1.26,2.97,1.26,1.96,0,3.44-1.63,3.44-4.54Z" style="fill: #19a3ff; stroke-width: 0px;"/>
      <path d="m510.94,518.53c0-4.01,3.02-6.44,6.32-6.44,3.62,0,5.67,2.38,5.67,5.82,0,.53-.06,1.04-.11,1.36h-10.14v-1.84h8.58l-.54.61c0-2.67-1.29-4.01-3.38-4.01s-3.93,1.59-3.93,4.5,1.9,4.52,4.55,4.52c1.38,0,2.49-.42,3.6-1.08l.88,1.59c-1.27.84-2.91,1.46-4.8,1.46-3.74,0-6.69-2.38-6.69-6.49Z" style="fill: #19a3ff; stroke-width: 0px;"/>
      <path d="m527.91,512.38h2.08l.22,2.86h.06c1.27-2.01,3.17-3.16,5.37-3.16.96,0,1.67.14,2.42.5l-.55,2.13c-.84-.27-1.31-.39-2.26-.39-1.77,0-3.47.9-4.83,3.39v6.99h-2.51v-12.32Z" style="fill: #19a3ff; stroke-width: 0px;"/>
      <path d="m561,525.13c0-1.83.25-3.06.25-4.72,0-.96-.7-1.91-3.61-1.94v-1.54c2.91-.03,3.61-.98,3.61-1.94,0-1.58-.25-2.98-.25-4.72,0-2.63,1.5-3.42,4.68-3.42h1.66v1.39h-1.24c-2.45,0-2.98.58-2.98,2.16,0,1.41.14,2.9.14,4.45,0,1.71-.6,2.5-2.36,2.8v.1c1.76.3,2.36,1.09,2.36,2.8s-.14,2.96-.14,4.45c0,1.58.53,2.16,2.98,2.16h1.24v1.39h-1.66c-3.18,0-4.68-.79-4.68-3.42Z" style="fill: #fff; stroke-width: 0px;"/>
      <path d="m328.8,542.66h2.55l2.6,6.67c.46,1.24.89,2.47,1.3,3.69h.1c.42-1.22.8-2.45,1.28-3.69l2.6-6.67h2.41l-4.96,12.32h-2.84l-5.05-12.32Z" style="fill: #19a3ff; stroke-width: 0px;"/>
      <path d="m344.69,551.73c0-2.76,2.51-4.12,8.73-4.59-.09-1.52-.91-2.75-3.1-2.75-1.49,0-2.96.68-4.17,1.39l-.96-1.68c1.38-.85,3.43-1.75,5.57-1.75,3.4,0,5.16,1.95,5.16,5.21v7.42h-2.08l-.2-1.6h-.08c-1.32,1.03-3.03,1.9-4.72,1.9-2.36,0-4.17-1.38-4.17-3.56Zm8.73-.1v-2.89c-4.84.35-6.28,1.32-6.28,2.79,0,1.24,1.11,1.75,2.43,1.75s2.57-.62,3.85-1.66Z" style="fill: #19a3ff; stroke-width: 0px;"/>
      <path d="m363.88,550.67v-11.56h-4.24v-2h6.75v13.72c0,1.71.97,2.4,2.32,2.4.67,0,1.39-.16,2.21-.52l.6,1.87c-1.18.46-2,.72-3.4.72-2.76,0-4.25-1.65-4.25-4.62Z" style="fill: #19a3ff; stroke-width: 0px;"/>
      <path d="m374.91,550.3v-7.65h2.51v7.32c0,2.13.71,3.15,2.57,3.15,1.29,0,2.22-.57,3.45-2.03v-8.43h2.51v12.32h-2.07l-.2-2.05h-.1c-1.2,1.4-2.61,2.36-4.48,2.36-2.89,0-4.19-1.77-4.19-4.98Z" style="fill: #19a3ff; stroke-width: 0px;"/>
      <path d="m389.84,548.8c0-4.01,3.02-6.44,6.32-6.44,3.62,0,5.67,2.38,5.67,5.82,0,.53-.06,1.04-.11,1.36h-10.14v-1.84h8.57l-.54.61c0-2.67-1.29-4.01-3.38-4.01s-3.93,1.59-3.93,4.5,1.9,4.52,4.55,4.52c1.38,0,2.49-.42,3.6-1.08l.88,1.59c-1.27.84-2.91,1.46-4.8,1.46-3.74,0-6.69-2.38-6.69-6.49Z" style="fill: #19a3ff; stroke-width: 0px;"/>
      <path d="m408.64,544.13c0-1.36.98-2.36,2.27-2.36s2.27,1,2.27,2.36-.98,2.36-2.27,2.36-2.27-.97-2.27-2.36Zm0,8.8c0-1.36.98-2.36,2.27-2.36s2.27,1,2.27,2.36-.98,2.36-2.27,2.36-2.27-.97-2.27-2.36Z" style="fill: #fff; stroke-width: 0px;"/>
      <path d="m438.13,553.62h-.08l-.23,1.36h-1.99v-17.88h2.51v4.74l-.11,2.27h.08c1.06-1.07,2.55-1.75,3.93-1.75,3.26,0,5.08,2.46,5.08,6.26,0,4.22-2.62,6.67-5.5,6.67-1.2,0-2.6-.62-3.71-1.66Zm6.63-4.97c0-2.58-.94-4.2-3.16-4.2-1.01,0-2.13.5-3.25,1.65v5.83c1.02.93,2.18,1.26,3.01,1.26,1.92,0,3.4-1.63,3.4-4.54Z" style="fill: #f55; stroke-width: 0px;"/>
      <path d="m450.19,548.84c0-4.12,2.89-6.49,6.14-6.49s6.14,2.36,6.14,6.49-2.89,6.44-6.14,6.44-6.14-2.36-6.14-6.44Zm9.7,0c0-2.66-1.38-4.42-3.57-4.42s-3.57,1.76-3.57,4.42,1.38,4.38,3.57,4.38,3.57-1.74,3.57-4.38Z" style="fill: #f55; stroke-width: 0px;"/>
      <path d="m465.32,548.84c0-4.12,2.89-6.49,6.14-6.49s6.14,2.36,6.14,6.49-2.89,6.44-6.14,6.44-6.14-2.36-6.14-6.44Zm9.7,0c0-2.66-1.38-4.42-3.57-4.42s-3.57,1.76-3.57,4.42,1.38,4.38,3.57,4.38,3.57-1.74,3.57-4.38Z" style="fill: #f55; stroke-width: 0px;"/>
      <path d="m484.97,550.67v-11.56h-4.24v-2h6.75v13.72c0,1.71.97,2.4,2.32,2.4.67,0,1.39-.16,2.21-.52l.6,1.87c-1.18.46-2,.72-3.4.72-2.76,0-4.25-1.65-4.25-4.62Z" style="fill: #f55; stroke-width: 0px;"/>
      <path d="m499.02,558.85c2.17-.92,3.23-2.25,3.2-4.22l-.37-2.5,1.44,2.13c-.42.44-.95.58-1.48.58-1.17,0-2.17-.71-2.17-2.07s1.02-2.09,2.23-2.09c1.63,0,2.49,1.33,2.49,3.51,0,3.02-1.71,5.15-4.67,6.19l-.69-1.53Z" style="fill: #fff; stroke-width: 0px;"/>
      <path d="m269.65,587.7h1.22c2.45,0,3-.58,3-2.16,0-1.49-.14-2.78-.14-4.45s.58-2.5,2.34-2.8v-.1c-1.76-.3-2.34-1.09-2.34-2.8,0-1.54.14-3.04.14-4.45,0-1.58-.55-2.16-3-2.16h-1.22v-1.39h1.64c3.2,0,4.66.79,4.66,3.42,0,1.75-.24,3.14-.24,4.72,0,.96.7,1.91,3.61,1.94v1.54c-2.92.03-3.61.98-3.61,1.94,0,1.67.24,2.9.24,4.72,0,2.63-1.46,3.42-4.66,3.42h-1.64v-1.39Z" style="fill: #fff; stroke-width: 0px;"/>
      <path d="m274.82,635.49h-5.51v-2h8.02v12.32h-2.51v-10.32Zm-.82-6.2c0-1.06.79-1.79,1.87-1.79s1.87.73,1.87,1.79-.79,1.78-1.87,1.78-1.87-.7-1.87-1.78Z" style="fill: #ffc259; stroke-width: 0px;"/>
      <path d="m283.56,633.48h1.96l.2,1.59h.06c.59-1.1,1.35-1.9,2.78-1.9,1.18,0,1.94.71,2.28,2.1.64-1.26,1.43-2.1,2.85-2.1,1.73,0,2.74,1.39,2.74,3.85v8.78h-2.44v-8.6c0-1.25-.35-1.88-1.15-1.88s-1.18.57-1.75,1.72v8.77h-2.17v-8.6c0-1.25-.32-1.88-1.12-1.88-.75,0-1.25.57-1.78,1.72v8.77h-2.44v-12.32Z" style="fill: #ffc259; stroke-width: 0px;"/>
      <path d="m299.59,633.48h2.05l.2,1.49h.08c1.1-1.04,2.66-1.79,4.11-1.79,3.26,0,5.06,2.46,5.06,6.28,0,4.2-2.62,6.65-5.54,6.65-1.13,0-2.45-.56-3.51-1.53h-.06l.12,2.25v4.01h-2.51v-17.36Zm8.92,5.99c0-2.58-.94-4.2-3.16-4.2-1.01,0-2.13.5-3.25,1.65v5.83c1.02.93,2.18,1.26,2.97,1.26,1.96,0,3.44-1.63,3.44-4.54Z" style="fill: #ffc259; stroke-width: 0px;"/>
      <path d="m318.46,641.49v-11.56h-4.24v-2.01h6.75v13.72c0,1.71.97,2.4,2.32,2.4.67,0,1.39-.16,2.21-.52l.6,1.87c-1.18.46-2,.72-3.4.72-2.76,0-4.25-1.65-4.25-4.62Z" style="fill: #ffc259; stroke-width: 0px;"/>
      <path d="m345.97,629.29h10.36v2.13h-7.83v5.12h6.64v2.13h-6.64v7.13h-2.53v-16.52Z" style="fill: #19a3ff; stroke-width: 0px;"/>
      <path d="m363.88,641.49v-11.56h-4.24v-2.01h6.75v13.72c0,1.71.97,2.4,2.32,2.4.67,0,1.39-.16,2.21-.52l.6,1.87c-1.18.46-2,.72-3.4.72-2.76,0-4.25-1.65-4.25-4.62Z" style="fill: #19a3ff; stroke-width: 0px;"/>
      <path d="m380.78,635.49h-5.51v-2h8.02v12.32h-2.51v-10.32Zm-.82-6.2c0-1.06.79-1.79,1.87-1.79s1.87.73,1.87,1.79-.79,1.78-1.87,1.78-1.87-.7-1.87-1.78Z" style="fill: #19a3ff; stroke-width: 0px;"/>
      <path d="m390.42,633.48h2.05l.2,1.49h.08c1.1-1.04,2.66-1.79,4.11-1.79,3.26,0,5.06,2.46,5.06,6.28,0,4.2-2.62,6.65-5.54,6.65-1.13,0-2.45-.56-3.51-1.53h-.06l.12,2.25v4.01h-2.51v-17.36Zm8.92,5.99c0-2.58-.94-4.2-3.16-4.2-1.01,0-2.13.5-3.25,1.65v5.83c1.02.93,2.18,1.26,2.97,1.26,1.96,0,3.44-1.63,3.44-4.54Z" style="fill: #19a3ff; stroke-width: 0px;"/>
      <path d="m405.55,633.48h2.05l.2,1.49h.08c1.1-1.04,2.66-1.79,4.11-1.79,3.26,0,5.06,2.46,5.06,6.28,0,4.2-2.62,6.65-5.54,6.65-1.13,0-2.45-.56-3.51-1.53h-.06l.12,2.25v4.01h-2.51v-17.36Zm8.92,5.99c0-2.58-.94-4.2-3.16-4.2-1.01,0-2.13.5-3.25,1.65v5.83c1.02.93,2.18,1.26,2.97,1.26,1.96,0,3.44-1.63,3.44-4.54Z" style="fill: #19a3ff; stroke-width: 0px;"/>
      <path d="m420.11,639.62c0-4.01,3.02-6.44,6.32-6.44,3.62,0,5.67,2.38,5.67,5.82,0,.53-.06,1.04-.11,1.37h-10.14v-1.84h8.58l-.54.61c0-2.67-1.29-4.01-3.38-4.01s-3.93,1.59-3.93,4.5,1.9,4.52,4.55,4.52c1.38,0,2.49-.42,3.6-1.08l.88,1.59c-1.27.83-2.91,1.46-4.8,1.46-3.74,0-6.69-2.38-6.69-6.49Z" style="fill: #19a3ff; stroke-width: 0px;"/>
      <path d="m437.08,633.48h2.08l.22,2.86h.06c1.27-2.01,3.17-3.16,5.37-3.16.96,0,1.67.14,2.42.5l-.55,2.13c-.84-.27-1.31-.39-2.26-.39-1.77,0-3.47.9-4.83,3.39v6.99h-2.51v-12.32Z" style="fill: #19a3ff; stroke-width: 0px;"/>
      <path d="m470.18,646.23c0-1.83.25-3.06.25-4.72,0-.96-.7-1.91-3.61-1.94v-1.54c2.91-.03,3.61-.98,3.61-1.94,0-1.58-.25-2.98-.25-4.72,0-2.63,1.5-3.42,4.68-3.42h1.66v1.39h-1.24c-2.45,0-2.98.58-2.98,2.16,0,1.41.14,2.9.14,4.45,0,1.71-.6,2.5-2.36,2.8v.1c1.76.3,2.36,1.09,2.36,2.8s-.14,2.96-.14,4.45c0,1.58.53,2.16,2.98,2.16h1.24v1.39h-1.66c-3.18,0-4.68-.79-4.68-3.42Z" style="fill: #fff; stroke-width: 0px;"/>
      <path d="m329.75,669.35h10.6v1.7h-10.6v-1.7Zm.5-5.17h10.6v1.7h-10.6v-1.7Zm2.88-4.5h1.54l-1.99,16.39h-1.57l2.02-16.39Zm4.71,0h1.54l-1.99,16.39h-1.57l2.02-16.39Z" style="fill: #19a3ff; stroke-width: 0px;"/>
      <path d="m348.31,658.22h7.11v1.39h-5.15v18.92h5.15v1.39h-7.11v-21.69Z" style="fill: #19a3ff; stroke-width: 0px;"/>
      <path d="m365.64,665.76h-5.51v-2.01h8.02v12.32h-2.51v-10.32Zm-.82-6.2c0-1.06.79-1.79,1.87-1.79s1.87.73,1.87,1.79-.79,1.78-1.87,1.78-1.87-.7-1.87-1.78Z" style="fill: #19a3ff; stroke-width: 0px;"/>
      <path d="m375.28,663.76h2.05l.2,1.96h.1c1.23-1.27,2.64-2.27,4.54-2.27,2.88,0,4.2,1.77,4.2,4.98v7.65h-2.51v-7.32c0-2.15-.72-3.15-2.55-3.15-1.34,0-2.24.66-3.52,1.96v8.5h-2.51v-12.32Z" style="fill: #19a3ff; stroke-width: 0px;"/>
      <path d="m390.66,658.2h2.51v11.63h.1l6.07-6.07h2.82l-9,9.04v3.28h-2.51v-17.88Zm4.84,11.59l1.49-1.61,5.77,7.9h-2.76l-4.49-6.29Z" style="fill: #19a3ff; stroke-width: 0px;"/>
      <path d="m408.41,669.07c0-4.83,2.12-8.7,5.57-11.47l1.39,1.21c-3.28,2.87-4.77,6.09-4.77,10.26s1.49,7.39,4.77,10.26l-1.39,1.21c-3.45-2.77-5.57-6.63-5.57-11.47Z" style="fill: #19a3ff; stroke-width: 0px;"/>
      <path d="m420.42,669.94c0-4.12,3.19-6.49,6.94-6.49,1.99,0,3.5.78,4.52,1.77l-1.21,1.59c-1-.81-2.01-1.29-3.2-1.29-2.65,0-4.47,1.76-4.47,4.42s1.8,4.38,4.41,4.38c1.46,0,2.68-.65,3.66-1.45l1.08,1.62c-1.4,1.22-3.15,1.9-4.94,1.9-3.86,0-6.78-2.36-6.78-6.44Z" style="fill: #19a3ff; stroke-width: 0px;"/>
      <path d="m435.05,669.94c0-4.12,2.89-6.49,6.14-6.49s6.14,2.36,6.14,6.49-2.89,6.44-6.14,6.44-6.14-2.36-6.14-6.44Zm9.7,0c0-2.66-1.38-4.42-3.57-4.42s-3.57,1.76-3.57,4.42,1.38,4.38,3.57,4.38,3.57-1.74,3.57-4.38Z" style="fill: #19a3ff; stroke-width: 0px;"/>
      <path d="m450.97,663.76h2.05l.2,1.96h.1c1.23-1.27,2.64-2.27,4.54-2.27,2.88,0,4.2,1.77,4.2,4.98v7.65h-2.51v-7.32c0-2.15-.72-3.15-2.55-3.15-1.34,0-2.24.66-3.52,1.96v8.5h-2.51v-12.32Z" style="fill: #19a3ff; stroke-width: 0px;"/>
      <path d="m465.57,674.47l1.12-1.63c1.45.99,3.12,1.62,5.25,1.62,1.89,0,2.79-.75,2.79-1.68,0-.87-.51-1.42-3.62-2.06-3.25-.67-4.78-1.8-4.78-3.67,0-2.06,1.85-3.59,5.26-3.59,1.96,0,3.83.77,5.07,1.6l-1.18,1.57c-1.17-.78-2.59-1.26-4.11-1.26-1.83,0-2.54.72-2.54,1.57,0,.96.98,1.34,3.4,1.86,4.01.88,5.02,1.91,5.02,3.84,0,2.06-2,3.76-5.64,3.76-2.35,0-4.54-.88-6.05-1.92Z" style="fill: #19a3ff; stroke-width: 0px;"/>
      <path d="m484.02,671.21v-5.44h-3.4v-1.88l3.5-.13.33-3.91h2.08v3.91h5.82v2.01h-5.82v5.45c0,2.12.75,3.15,2.98,3.15,1.08,0,1.96-.22,2.81-.53l.51,1.84c-1.11.38-2.33.72-3.9.72-3.69,0-4.91-2.08-4.91-5.18Z" style="fill: #19a3ff; stroke-width: 0px;"/>
      <path d="m497.63,663.76h2.08l.22,2.86h.06c1.27-2.01,3.17-3.16,5.37-3.16.96,0,1.67.14,2.42.5l-.55,2.13c-.84-.27-1.31-.39-2.26-.39-1.77,0-3.47.9-4.83,3.39v6.99h-2.51v-12.32Z" style="fill: #19a3ff; stroke-width: 0px;"/>
      <path d="m511.15,671.4v-7.65h2.51v7.32c0,2.13.71,3.15,2.57,3.15,1.29,0,2.22-.57,3.45-2.03v-8.43h2.51v12.32h-2.07l-.2-2.05h-.1c-1.2,1.4-2.61,2.36-4.48,2.36-2.89,0-4.19-1.77-4.19-4.98Z" style="fill: #19a3ff; stroke-width: 0px;"/>
      <path d="m526.38,669.94c0-4.12,3.19-6.49,6.94-6.49,1.99,0,3.5.78,4.52,1.77l-1.21,1.59c-1-.81-2.01-1.29-3.2-1.29-2.65,0-4.47,1.76-4.47,4.42s1.8,4.38,4.41,4.38c1.46,0,2.68-.65,3.66-1.45l1.08,1.62c-1.4,1.22-3.15,1.9-4.94,1.9-3.86,0-6.78-2.36-6.78-6.44Z" style="fill: #19a3ff; stroke-width: 0px;"/>
      <path d="m544.57,671.21v-5.44h-3.4v-1.88l3.5-.13.33-3.91h2.08v3.91h5.82v2.01h-5.82v5.45c0,2.12.75,3.15,2.98,3.15,1.08,0,1.96-.22,2.81-.53l.51,1.84c-1.11.38-2.33.72-3.9.72-3.69,0-4.91-2.08-4.91-5.18Z" style="fill: #19a3ff; stroke-width: 0px;"/>
      <path d="m556.15,669.94c0-4.12,2.89-6.49,6.14-6.49s6.14,2.36,6.14,6.49-2.89,6.44-6.14,6.44-6.14-2.36-6.14-6.44Zm9.7,0c0-2.66-1.38-4.42-3.57-4.42s-3.57,1.76-3.57,4.42,1.38,4.38,3.57,4.38,3.57-1.74,3.57-4.38Z" style="fill: #19a3ff; stroke-width: 0px;"/>
      <path d="m573.32,663.76h2.08l.22,2.86h.06c1.27-2.01,3.17-3.16,5.37-3.16.96,0,1.67.14,2.42.5l-.55,2.13c-.84-.27-1.31-.39-2.26-.39-1.77,0-3.47.9-4.83,3.39v6.99h-2.51v-12.32Z" style="fill: #19a3ff; stroke-width: 0px;"/>
      <path d="m588.1,679.33c3.28-2.87,4.78-6.09,4.78-10.26s-1.49-7.39-4.78-10.26l1.39-1.21c3.45,2.77,5.57,6.63,5.57,11.47s-2.12,8.7-5.57,11.47l-1.39-1.21Z" style="fill: #19a3ff; stroke-width: 0px;"/>
      <path d="m602.64,678.53h5.15v-18.92h-5.15v-1.39h7.11v21.69h-7.11v-1.39Z" style="fill: #19a3ff; stroke-width: 0px;"/>
      <path d="m329.87,694.03h2.05l.2,1.49h.08c1.1-1.04,2.66-1.79,4.11-1.79,3.26,0,5.06,2.46,5.06,6.28,0,4.2-2.62,6.65-5.54,6.65-1.13,0-2.45-.56-3.51-1.53h-.06l.12,2.25v4.01h-2.51v-17.36Zm8.92,5.99c0-2.58-.94-4.2-3.16-4.2-1.01,0-2.13.5-3.25,1.65v5.83c1.02.93,2.18,1.26,2.97,1.26,1.96,0,3.44-1.63,3.44-4.54Z" style="fill: #ffc259; stroke-width: 0px;"/>
      <path d="m344.64,701.68v-7.65h2.51v7.32c0,2.13.71,3.15,2.57,3.15,1.29,0,2.22-.57,3.45-2.03v-8.43h2.51v12.32h-2.07l-.2-2.05h-.1c-1.2,1.4-2.61,2.36-4.48,2.36-2.89,0-4.19-1.77-4.19-4.98Z" style="fill: #ffc259; stroke-width: 0px;"/>
      <path d="m362.44,704.99h-.08l-.23,1.36h-1.99v-17.88h2.51v4.74l-.11,2.27h.08c1.06-1.07,2.55-1.75,3.93-1.75,3.26,0,5.08,2.46,5.08,6.26,0,4.22-2.62,6.67-5.5,6.67-1.2,0-2.6-.62-3.71-1.67Zm6.63-4.97c0-2.58-.94-4.2-3.16-4.2-1.01,0-2.13.5-3.25,1.65v5.83c1.02.93,2.18,1.26,3.01,1.26,1.92,0,3.4-1.63,3.4-4.54Z" style="fill: #ffc259; stroke-width: 0px;"/>
      <path d="m390.67,694.16l3.52-.13h7.33v2h-10.86v-1.87Zm3.46-.98c0-2.95,1.59-5.01,5.11-5.01,1.27,0,2.47.25,3.6.7l-.54,1.87c-.95-.4-1.76-.56-2.79-.56-2.04,0-2.89,1.09-2.89,2.94v13.24h-2.49v-13.17Z" style="fill: #ffc259; stroke-width: 0px;"/>
      <path d="m405.55,694.03h2.05l.2,1.96h.1c1.23-1.27,2.64-2.27,4.54-2.27,2.88,0,4.2,1.77,4.2,4.98v7.65h-2.51v-7.32c0-2.15-.72-3.15-2.55-3.15-1.34,0-2.24.66-3.52,1.96v8.5h-2.51v-12.32Z" style="fill: #ffc259; stroke-width: 0px;"/>
      <path d="m435.83,694.03h2.05l.2,1.96h.1c1.23-1.27,2.64-2.27,4.54-2.27,2.88,0,4.2,1.77,4.2,4.98v7.65h-2.51v-7.32c0-2.15-.72-3.15-2.55-3.15-1.34,0-2.24.66-3.52,1.96v8.5h-2.51v-12.32Z" style="fill: #19a3ff; stroke-width: 0px;"/>
      <path d="m450.39,700.17c0-4.01,3.02-6.44,6.32-6.44,3.62,0,5.67,2.38,5.67,5.82,0,.53-.06,1.04-.11,1.37h-10.14v-1.84h8.57l-.54.61c0-2.67-1.29-4.01-3.38-4.01s-3.93,1.59-3.93,4.5,1.9,4.52,4.55,4.52c1.38,0,2.49-.42,3.6-1.08l.88,1.59c-1.27.83-2.91,1.46-4.8,1.46-3.74,0-6.69-2.38-6.69-6.49Z" style="fill: #19a3ff; stroke-width: 0px;"/>
      <path d="m464.07,694.03h2.46l1.28,6.77c.21,1.18.37,2.28.52,3.46h.1c.15-1.19.4-2.32.67-3.46l1.33-5.78h2.23l1.29,5.78c.27,1.18.57,2.28.72,3.46h.1c.19-1.19.3-2.29.5-3.46l1.26-6.77h2.31l-2.44,12.32h-3.11l-1.22-5.39c-.19-.91-.38-2.12-.57-3.65h-.1c-.18,1.43-.36,2.61-.56,3.65l-1.18,5.39h-3.09l-2.51-12.32Z" style="fill: #19a3ff; stroke-width: 0px;"/>
      <path d="m484.1,699.35c0-4.84,2.12-8.7,5.57-11.47l1.39,1.21c-3.28,2.87-4.77,6.09-4.77,10.26s1.49,7.39,4.77,10.26l-1.39,1.21c-3.45-2.77-5.57-6.63-5.57-11.47Z" style="fill: #19a3ff; stroke-width: 0px;"/>
      <path d="m495.31,694.03h2.55l2.6,6.67c.46,1.24.89,2.47,1.3,3.69h.1c.42-1.22.8-2.45,1.28-3.69l2.6-6.67h2.41l-4.96,12.32h-2.84l-5.05-12.32Z" style="fill: #19a3ff; stroke-width: 0px;"/>
      <path d="m511.2,703.1c0-2.76,2.51-4.12,8.73-4.59-.09-1.52-.91-2.75-3.1-2.75-1.49,0-2.96.68-4.17,1.39l-.96-1.68c1.38-.85,3.43-1.75,5.57-1.75,3.4,0,5.16,1.95,5.16,5.2v7.42h-2.08l-.2-1.6h-.08c-1.32,1.03-3.03,1.9-4.72,1.9-2.36,0-4.17-1.39-4.17-3.56Zm8.73-.1v-2.89c-4.84.35-6.28,1.32-6.28,2.79,0,1.24,1.11,1.75,2.43,1.75s2.57-.62,3.85-1.66Z" style="fill: #19a3ff; stroke-width: 0px;"/>
      <path d="m530.38,702.04v-11.56h-4.24v-2.01h6.75v13.72c0,1.71.97,2.4,2.32,2.4.67,0,1.39-.16,2.21-.52l.6,1.87c-1.18.46-2,.72-3.4.72-2.76,0-4.25-1.65-4.25-4.62Z" style="fill: #19a3ff; stroke-width: 0px;"/>
      <path d="m541.42,701.68v-7.65h2.51v7.32c0,2.13.71,3.15,2.57,3.15,1.29,0,2.22-.57,3.45-2.03v-8.43h2.51v12.32h-2.07l-.2-2.05h-.1c-1.2,1.4-2.61,2.36-4.48,2.36-2.89,0-4.19-1.77-4.19-4.98Z" style="fill: #19a3ff; stroke-width: 0px;"/>
      <path d="m556.35,700.17c0-4.01,3.02-6.44,6.32-6.44,3.62,0,5.67,2.38,5.67,5.82,0,.53-.06,1.04-.11,1.37h-10.14v-1.84h8.58l-.54.61c0-2.67-1.29-4.01-3.38-4.01s-3.93,1.59-3.93,4.5,1.9,4.52,4.55,4.52c1.38,0,2.49-.42,3.6-1.08l.88,1.59c-1.27.83-2.91,1.46-4.8,1.46-3.74,0-6.69-2.38-6.69-6.49Z" style="fill: #19a3ff; stroke-width: 0px;"/>
      <path d="m575.15,695.5c0-1.36.98-2.36,2.27-2.36s2.27,1,2.27,2.36-.98,2.36-2.27,2.36-2.27-.97-2.27-2.36Zm0,8.8c0-1.36.98-2.36,2.27-2.36s2.27,1,2.27,2.36-.98,2.36-2.27,2.36-2.27-.97-2.27-2.36Z" style="fill: #fff; stroke-width: 0px;"/>
      <path d="m604.63,704.99h-.08l-.23,1.36h-1.99v-17.88h2.51v4.74l-.11,2.27h.08c1.06-1.07,2.55-1.75,3.93-1.75,3.26,0,5.08,2.46,5.08,6.26,0,4.22-2.62,6.67-5.49,6.67-1.2,0-2.6-.62-3.71-1.67Zm6.63-4.97c0-2.58-.94-4.2-3.16-4.2-1.01,0-2.13.5-3.25,1.65v5.83c1.02.93,2.18,1.26,3.01,1.26,1.92,0,3.4-1.63,3.4-4.54Z" style="fill: #f55; stroke-width: 0px;"/>
      <path d="m616.7,700.22c0-4.13,2.89-6.49,6.14-6.49s6.14,2.36,6.14,6.49-2.89,6.44-6.14,6.44-6.14-2.36-6.14-6.44Zm9.71,0c0-2.66-1.38-4.42-3.57-4.42s-3.57,1.76-3.57,4.42,1.38,4.38,3.57,4.38,3.57-1.74,3.57-4.38Z" style="fill: #f55; stroke-width: 0px;"/>
      <path d="m631.83,700.22c0-4.13,2.89-6.49,6.14-6.49s6.14,2.36,6.14,6.49-2.89,6.44-6.14,6.44-6.14-2.36-6.14-6.44Zm9.71,0c0-2.66-1.38-4.42-3.57-4.42s-3.57,1.76-3.57,4.42,1.38,4.38,3.57,4.38,3.57-1.74,3.57-4.38Z" style="fill: #f55; stroke-width: 0px;"/>
      <path d="m651.48,702.04v-11.56h-4.23v-2.01h6.75v13.72c0,1.71.97,2.4,2.32,2.4.67,0,1.39-.16,2.21-.52l.61,1.87c-1.18.46-2,.72-3.4.72-2.76,0-4.25-1.65-4.25-4.62Z" style="fill: #f55; stroke-width: 0px;"/>
      <path d="m663.78,709.61c3.28-2.87,4.78-6.09,4.78-10.26s-1.49-7.39-4.78-10.26l1.39-1.21c3.45,2.77,5.57,6.63,5.57,11.47s-2.12,8.7-5.57,11.47l-1.39-1.21Z" style="fill: #fff; stroke-width: 0px;"/>
      <path d="m693,697.12h11.04v1.84h-11.04v-1.84Z" style="fill: #bb82fa; stroke-width: 0px;"/>
      <path d="m708.73,702.89l7.34-4.86v-.1l-7.34-4.86v-2.37l9.5,6.35v1.86l-9.5,6.35v-2.37Z" style="fill: #bb82fa; stroke-width: 0px;"/>
      <path d="m737.95,704.23l1.49-1.75c1.26,1.18,2.93,1.96,4.72,1.96,2.09,0,3.25-.96,3.25-2.29,0-1.62-1.21-2.06-2.84-2.75l-2.33-1.02c-1.69-.67-3.54-1.89-3.54-4.32,0-2.57,2.32-4.52,5.58-4.52,2.04,0,3.91.81,5.19,2.07l-1.31,1.62c-1.1-.93-2.3-1.47-3.99-1.47s-2.91.8-2.91,2.16c0,1.43,1.43,1.96,2.88,2.52l2.24.99c2.07.81,3.62,2.01,3.62,4.43,0,2.65-2.24,4.82-5.98,4.82-2.37,0-4.51-.92-6.07-2.43Z" style="fill: #f55; stroke-width: 0px;"/>
      <path d="m753.13,700.17c0-4.01,3.02-6.44,6.32-6.44,3.62,0,5.67,2.38,5.67,5.82,0,.53-.06,1.04-.11,1.37h-10.14v-1.84h8.57l-.54.61c0-2.67-1.29-4.01-3.38-4.01s-3.93,1.59-3.93,4.5,1.9,4.52,4.55,4.52c1.38,0,2.49-.42,3.6-1.08l.88,1.59c-1.27.83-2.91,1.46-4.8,1.46-3.74,0-6.69-2.38-6.69-6.49Z" style="fill: #f55; stroke-width: 0px;"/>
      <path d="m772.58,702.04v-11.56h-4.24v-2.01h6.75v13.72c0,1.71.97,2.4,2.32,2.4.67,0,1.39-.16,2.21-.52l.6,1.87c-1.18.46-2,.72-3.4.72-2.76,0-4.25-1.65-4.25-4.62Z" style="fill: #f55; stroke-width: 0px;"/>
      <path d="m784.24,694.16l3.52-.13h7.33v2h-10.86v-1.87Zm3.46-.98c0-2.95,1.59-5.01,5.11-5.01,1.27,0,2.46.25,3.6.7l-.54,1.87c-.95-.4-1.76-.56-2.79-.56-2.04,0-2.89,1.09-2.89,2.94v13.24h-2.49v-13.17Z" style="fill: #f55; stroke-width: 0px;"/>
      <path d="m818.34,706.78c0-1.83.25-3.06.25-4.72,0-.96-.7-1.91-3.61-1.94v-1.54c2.91-.03,3.61-.98,3.61-1.94,0-1.58-.25-2.98-.25-4.72,0-2.63,1.5-3.42,4.68-3.42h1.66v1.39h-1.24c-2.45,0-2.98.58-2.98,2.16,0,1.41.14,2.9.14,4.45,0,1.71-.6,2.5-2.36,2.8v.1c1.76.3,2.36,1.09,2.36,2.8s-.14,2.96-.14,4.45c0,1.58.53,2.16,2.98,2.16h1.24v1.39h-1.66c-3.18,0-4.68-.79-4.68-3.42Z" style="fill: #fff; stroke-width: 0px;"/>
      <path d="m389.79,734.51l1.49-1.75c1.26,1.18,2.92,1.96,4.72,1.96,2.09,0,3.25-.96,3.25-2.29,0-1.62-1.21-2.06-2.84-2.75l-2.33-1.02c-1.69-.67-3.54-1.89-3.54-4.32,0-2.57,2.32-4.52,5.58-4.52,2.04,0,3.91.81,5.19,2.07l-1.31,1.62c-1.1-.93-2.3-1.47-3.99-1.47s-2.91.8-2.91,2.16c0,1.43,1.43,1.96,2.88,2.52l2.24.99c2.07.81,3.62,2.01,3.62,4.43,0,2.65-2.24,4.82-5.98,4.82-2.37,0-4.51-.92-6.07-2.43Z" style="fill: #f55; stroke-width: 0px;"/>
      <path d="m404.98,730.45c0-4.01,3.02-6.44,6.32-6.44,3.62,0,5.67,2.38,5.67,5.82,0,.53-.06,1.04-.11,1.37h-10.14v-1.84h8.57l-.54.61c0-2.67-1.29-4.01-3.38-4.01s-3.93,1.59-3.93,4.5,1.9,4.52,4.55,4.52c1.38,0,2.49-.42,3.6-1.08l.88,1.59c-1.27.83-2.91,1.46-4.8,1.46-3.74,0-6.69-2.38-6.69-6.49Z" style="fill: #f55; stroke-width: 0px;"/>
      <path d="m424.42,732.32v-11.56h-4.24v-2.01h6.75v13.72c0,1.71.97,2.4,2.32,2.4.67,0,1.39-.16,2.21-.52l.6,1.87c-1.18.46-2,.72-3.4.72-2.76,0-4.25-1.65-4.25-4.62Z" style="fill: #f55; stroke-width: 0px;"/>
      <path d="m436.08,724.44l3.52-.13h7.33v2h-10.86v-1.87Zm3.46-.98c0-2.95,1.59-5.01,5.11-5.01,1.27,0,2.47.25,3.6.7l-.54,1.87c-.95-.4-1.76-.56-2.79-.56-2.04,0-2.89,1.09-2.89,2.94v13.24h-2.49v-13.17Z" style="fill: #f55; stroke-width: 0px;"/>
      <path d="m470.18,737.05c0-1.83.25-3.06.25-4.72,0-.96-.7-1.91-3.61-1.94v-1.54c2.91-.03,3.61-.98,3.61-1.94,0-1.58-.25-2.98-.25-4.72,0-2.63,1.5-3.42,4.68-3.42h1.66v1.39h-1.24c-2.45,0-2.98.58-2.98,2.16,0,1.41.14,2.9.14,4.45,0,1.71-.6,2.5-2.36,2.8v.1c1.76.3,2.36,1.09,2.36,2.8s-.14,2.96-.14,4.45c0,1.58.53,2.16,2.98,2.16h1.24v1.39h-1.66c-3.18,0-4.68-.79-4.68-3.42Z" style="fill: #fff; stroke-width: 0px;"/>
      <path d="m495.31,724.31h2.55l2.6,6.67c.46,1.24.89,2.47,1.3,3.69h.1c.42-1.22.8-2.45,1.28-3.69l2.6-6.67h2.41l-4.96,12.32h-2.84l-5.05-12.32Z" style="fill: #19a3ff; stroke-width: 0px;"/>
      <path d="m511.2,733.38c0-2.76,2.51-4.12,8.73-4.59-.09-1.52-.91-2.75-3.1-2.75-1.49,0-2.96.68-4.17,1.39l-.96-1.68c1.38-.85,3.43-1.75,5.57-1.75,3.4,0,5.16,1.95,5.16,5.2v7.42h-2.08l-.2-1.6h-.08c-1.32,1.03-3.03,1.9-4.72,1.9-2.36,0-4.17-1.39-4.17-3.56Zm8.73-.1v-2.89c-4.84.35-6.28,1.32-6.28,2.79,0,1.24,1.11,1.75,2.43,1.75s2.57-.62,3.85-1.66Z" style="fill: #19a3ff; stroke-width: 0px;"/>
      <path d="m530.38,732.32v-11.56h-4.24v-2.01h6.75v13.72c0,1.71.97,2.4,2.32,2.4.67,0,1.39-.16,2.21-.52l.6,1.87c-1.18.46-2,.72-3.4.72-2.76,0-4.25-1.65-4.25-4.62Z" style="fill: #19a3ff; stroke-width: 0px;"/>
      <path d="m541.42,731.95v-7.65h2.51v7.32c0,2.13.71,3.15,2.57,3.15,1.29,0,2.22-.57,3.45-2.03v-8.43h2.51v12.32h-2.07l-.2-2.05h-.1c-1.2,1.4-2.61,2.36-4.48,2.36-2.89,0-4.19-1.77-4.19-4.98Z" style="fill: #19a3ff; stroke-width: 0px;"/>
      <path d="m556.35,730.45c0-4.01,3.02-6.44,6.32-6.44,3.62,0,5.67,2.38,5.67,5.82,0,.53-.06,1.04-.11,1.37h-10.14v-1.84h8.58l-.54.61c0-2.67-1.29-4.01-3.38-4.01s-3.93,1.59-3.93,4.5,1.9,4.52,4.55,4.52c1.38,0,2.49-.42,3.6-1.08l.88,1.59c-1.27.83-2.91,1.46-4.8,1.46-3.74,0-6.69-2.38-6.69-6.49Z" style="fill: #19a3ff; stroke-width: 0px;"/>
      <path d="m587.53,739.08h1.22c2.45,0,3-.58,3-2.16,0-1.49-.14-2.78-.14-4.45s.58-2.5,2.34-2.8v-.1c-1.76-.3-2.34-1.09-2.34-2.8,0-1.54.14-3.04.14-4.45,0-1.58-.55-2.16-3-2.16h-1.22v-1.39h1.64c3.2,0,4.65.79,4.65,3.42,0,1.75-.24,3.14-.24,4.72,0,.96.7,1.91,3.61,1.94v1.54c-2.92.03-3.61.98-3.61,1.94,0,1.67.24,2.9.24,4.72,0,2.63-1.46,3.42-4.65,3.42h-1.64v-1.39Z" style="fill: #fff; stroke-width: 0px;"/>
      <path d="m330.2,769.35h1.22c2.45,0,3-.58,3-2.16,0-1.49-.14-2.78-.14-4.45s.58-2.5,2.34-2.8v-.1c-1.76-.3-2.34-1.09-2.34-2.8,0-1.54.14-3.04.14-4.45,0-1.58-.55-2.16-3-2.16h-1.22v-1.39h1.64c3.2,0,4.66.79,4.66,3.42,0,1.75-.24,3.14-.24,4.72,0,.96.7,1.91,3.61,1.94v1.54c-2.92.03-3.61.98-3.61,1.94,0,1.67.24,2.89.24,4.72,0,2.63-1.46,3.42-4.66,3.42h-1.64v-1.39Z" style="fill: #fff; stroke-width: 0px;"/>
      <path d="m329.75,820.73h10.6v1.7h-10.6v-1.7Zm.5-5.17h10.6v1.7h-10.6v-1.7Zm2.88-4.5h1.54l-1.99,16.39h-1.57l2.02-16.39Zm4.71,0h1.54l-1.99,16.39h-1.57l2.02-16.39Z" style="fill: #19a3ff; stroke-width: 0px;"/>
      <path d="m348.31,809.6h7.11v1.39h-5.15v18.92h5.15v1.39h-7.11v-21.69Z" style="fill: #19a3ff; stroke-width: 0px;"/>
      <path d="m365.64,817.14h-5.51v-2.01h8.02v12.32h-2.51v-10.32Zm-.82-6.2c0-1.06.79-1.79,1.87-1.79s1.87.73,1.87,1.79-.79,1.78-1.87,1.78-1.87-.7-1.87-1.78Z" style="fill: #19a3ff; stroke-width: 0px;"/>
      <path d="m375.28,815.13h2.05l.2,1.96h.1c1.23-1.27,2.64-2.27,4.54-2.27,2.88,0,4.2,1.77,4.2,4.98v7.65h-2.51v-7.32c0-2.15-.72-3.15-2.55-3.15-1.34,0-2.24.66-3.52,1.96v8.5h-2.51v-12.32Z" style="fill: #19a3ff; stroke-width: 0px;"/>
      <path d="m390.66,809.57h2.51v11.63h.1l6.07-6.07h2.82l-9,9.04v3.28h-2.51v-17.88Zm4.84,11.59l1.49-1.61,5.77,7.9h-2.76l-4.49-6.29Z" style="fill: #19a3ff; stroke-width: 0px;"/>
      <path d="m408.41,820.44c0-4.83,2.12-8.7,5.57-11.47l1.39,1.21c-3.28,2.87-4.77,6.09-4.77,10.26s1.49,7.39,4.77,10.26l-1.39,1.21c-3.45-2.77-5.57-6.63-5.57-11.47Z" style="fill: #19a3ff; stroke-width: 0px;"/>
      <path d="m419.8,815.13h1.96l.2,1.6h.06c.59-1.1,1.35-1.9,2.78-1.9,1.18,0,1.94.71,2.28,2.1.64-1.26,1.43-2.1,2.85-2.1,1.73,0,2.74,1.39,2.74,3.85v8.78h-2.44v-8.6c0-1.25-.35-1.88-1.15-1.88s-1.18.57-1.75,1.72v8.77h-2.17v-8.6c0-1.25-.32-1.88-1.12-1.88-.75,0-1.25.57-1.78,1.72v8.77h-2.44v-12.32Z" style="fill: #19a3ff; stroke-width: 0px;"/>
      <path d="m435.25,821.27c0-4.01,3.02-6.44,6.32-6.44,3.62,0,5.67,2.38,5.67,5.82,0,.53-.06,1.04-.11,1.36h-10.14v-1.84h8.58l-.54.61c0-2.67-1.29-4.01-3.38-4.01s-3.93,1.59-3.93,4.5,1.9,4.52,4.55,4.52c1.38,0,2.49-.42,3.6-1.08l.88,1.59c-1.27.84-2.91,1.46-4.8,1.46-3.74,0-6.69-2.38-6.69-6.49Z" style="fill: #19a3ff; stroke-width: 0px;"/>
      <path d="m450.43,825.84l1.12-1.63c1.45.99,3.12,1.62,5.25,1.62,1.89,0,2.79-.75,2.79-1.68,0-.87-.51-1.42-3.62-2.06-3.25-.67-4.78-1.8-4.78-3.67,0-2.06,1.85-3.59,5.26-3.59,1.96,0,3.83.77,5.07,1.6l-1.18,1.57c-1.17-.78-2.59-1.26-4.11-1.26-1.83,0-2.54.72-2.54,1.57,0,.96.98,1.34,3.4,1.86,4.01.88,5.02,1.91,5.02,3.84,0,2.06-2,3.76-5.64,3.76-2.35,0-4.54-.88-6.05-1.92Z" style="fill: #19a3ff; stroke-width: 0px;"/>
      <path d="m465.57,825.84l1.12-1.63c1.45.99,3.12,1.62,5.25,1.62,1.89,0,2.79-.75,2.79-1.68,0-.87-.51-1.42-3.62-2.06-3.25-.67-4.78-1.8-4.78-3.67,0-2.06,1.85-3.59,5.26-3.59,1.96,0,3.83.77,5.07,1.6l-1.18,1.57c-1.17-.78-2.59-1.26-4.11-1.26-1.83,0-2.54.72-2.54,1.57,0,.96.98,1.34,3.4,1.86,4.01.88,5.02,1.91,5.02,3.84,0,2.06-2,3.76-5.64,3.76-2.35,0-4.54-.88-6.05-1.92Z" style="fill: #19a3ff; stroke-width: 0px;"/>
      <path d="m480.93,824.2c0-2.76,2.51-4.12,8.73-4.59-.09-1.52-.91-2.75-3.1-2.75-1.49,0-2.96.68-4.17,1.39l-.96-1.68c1.38-.85,3.43-1.75,5.57-1.75,3.4,0,5.16,1.95,5.16,5.21v7.42h-2.08l-.2-1.6h-.08c-1.32,1.03-3.03,1.9-4.72,1.9-2.36,0-4.17-1.38-4.17-3.56Zm8.73-.1v-2.89c-4.84.35-6.28,1.32-6.28,2.79,0,1.24,1.11,1.75,2.43,1.75s2.57-.62,3.85-1.66Z" style="fill: #19a3ff; stroke-width: 0px;"/>
      <path d="m495.85,829.67c0-.99.7-1.94,2-2.67v-.1c-.67-.37-1.26-1.01-1.26-2.05,0-.8.55-1.68,1.47-2.31v-.1c-.86-.63-1.55-1.72-1.55-3.19,0-2.76,2.3-4.43,4.96-4.43.72,0,1.33.1,1.88.3h5.07v1.96h-3.01c.48.53.91,1.36.91,2.25,0,2.69-2.14,4.21-4.85,4.21-.6,0-1.31-.13-1.98-.4-.55.35-.85.75-.85,1.29,0,.88.86,1.29,2.44,1.29h2.64c3.19,0,4.77.83,4.77,2.95,0,2.38-2.71,4.34-6.98,4.34-3.5,0-5.65-1.17-5.65-3.35Zm10.21-.58c0-1.07-.89-1.35-2.64-1.35h-2.18c-.76,0-1.37-.05-1.88-.19-1.02.57-1.39,1.19-1.39,1.83,0,1.2,1.34,1.92,3.79,1.92,2.63,0,4.3-1.05,4.3-2.21Zm-2-9.83c0-1.61-1.16-2.66-2.58-2.66s-2.58,1.05-2.58,2.66,1.17,2.69,2.58,2.69,2.58-1.03,2.58-2.69Z" style="fill: #19a3ff; stroke-width: 0px;"/>
      <path d="m510.94,821.27c0-4.01,3.02-6.44,6.32-6.44,3.62,0,5.67,2.38,5.67,5.82,0,.53-.06,1.04-.11,1.36h-10.14v-1.84h8.58l-.54.61c0-2.67-1.29-4.01-3.38-4.01s-3.93,1.59-3.93,4.5,1.9,4.52,4.55,4.52c1.38,0,2.49-.42,3.6-1.08l.88,1.59c-1.27.84-2.91,1.46-4.8,1.46-3.74,0-6.69-2.38-6.69-6.49Z" style="fill: #19a3ff; stroke-width: 0px;"/>
      <path d="m527.55,830.7c3.28-2.87,4.77-6.09,4.77-10.26s-1.49-7.39-4.77-10.26l1.39-1.21c3.45,2.77,5.57,6.63,5.57,11.47s-2.12,8.7-5.57,11.47l-1.39-1.21Z" style="fill: #19a3ff; stroke-width: 0px;"/>
      <path d="m542.09,829.9h5.15v-18.92h-5.15v-1.39h7.11v21.69h-7.11v-1.39Z" style="fill: #19a3ff; stroke-width: 0px;"/>
      <path d="m329.87,845.41h2.05l.2,1.49h.08c1.1-1.04,2.66-1.79,4.11-1.79,3.26,0,5.06,2.46,5.06,6.28,0,4.2-2.62,6.65-5.54,6.65-1.13,0-2.45-.56-3.51-1.53h-.06l.12,2.25v4.01h-2.51v-17.36Zm8.92,5.99c0-2.58-.94-4.2-3.16-4.2-1.01,0-2.13.5-3.25,1.65v5.83c1.02.93,2.18,1.26,2.97,1.26,1.96,0,3.44-1.63,3.44-4.54Z" style="fill: #ffc259; stroke-width: 0px;"/>
      <path d="m344.64,853.05v-7.65h2.51v7.32c0,2.13.71,3.15,2.57,3.15,1.29,0,2.22-.57,3.45-2.03v-8.43h2.51v12.32h-2.07l-.2-2.05h-.1c-1.2,1.4-2.61,2.36-4.48,2.36-2.89,0-4.19-1.77-4.19-4.98Z" style="fill: #ffc259; stroke-width: 0px;"/>
      <path d="m362.44,856.37h-.08l-.23,1.36h-1.99v-17.88h2.51v4.74l-.11,2.27h.08c1.06-1.07,2.55-1.75,3.93-1.75,3.26,0,5.08,2.46,5.08,6.26,0,4.22-2.62,6.67-5.5,6.67-1.2,0-2.6-.62-3.71-1.67Zm6.63-4.97c0-2.58-.94-4.2-3.16-4.2-1.01,0-2.13.5-3.25,1.65v5.83c1.02.93,2.18,1.26,3.01,1.26,1.92,0,3.4-1.63,3.4-4.54Z" style="fill: #ffc259; stroke-width: 0px;"/>
      <path d="m390.67,845.54l3.52-.13h7.33v2h-10.86v-1.87Zm3.46-.98c0-2.95,1.59-5.01,5.11-5.01,1.27,0,2.47.25,3.6.7l-.54,1.87c-.95-.4-1.76-.56-2.79-.56-2.04,0-2.89,1.09-2.89,2.94v13.24h-2.49v-13.17Z" style="fill: #ffc259; stroke-width: 0px;"/>
      <path d="m405.55,845.41h2.05l.2,1.96h.1c1.23-1.27,2.64-2.27,4.54-2.27,2.88,0,4.2,1.77,4.2,4.98v7.65h-2.51v-7.32c0-2.15-.72-3.15-2.55-3.15-1.34,0-2.24.66-3.52,1.96v8.5h-2.51v-12.32Z" style="fill: #ffc259; stroke-width: 0px;"/>
      <path d="m436.08,845.54l3.52-.13h7.33v2h-10.86v-1.87Zm3.46-.98c0-2.95,1.59-5.01,5.11-5.01,1.27,0,2.47.25,3.6.7l-.54,1.87c-.95-.4-1.76-.56-2.79-.56-2.04,0-2.89,1.09-2.89,2.94v13.24h-2.49v-13.17Z" style="fill: #19a3ff; stroke-width: 0px;"/>
      <path d="m454.7,853.42v-11.56h-4.24v-2.01h6.75v13.72c0,1.71.97,2.4,2.32,2.4.67,0,1.39-.16,2.21-.52l.6,1.87c-1.18.46-2,.72-3.4.72-2.76,0-4.25-1.65-4.25-4.62Z" style="fill: #19a3ff; stroke-width: 0px;"/>
      <path d="m471.6,847.41h-5.51v-2h8.02v12.32h-2.51v-10.32Zm-.82-6.2c0-1.06.79-1.79,1.87-1.79s1.87.73,1.87,1.79-.79,1.78-1.87,1.78-1.87-.7-1.87-1.78Z" style="fill: #19a3ff; stroke-width: 0px;"/>
      <path d="m481.24,845.41h2.05l.2,1.49h.08c1.1-1.04,2.66-1.79,4.11-1.79,3.26,0,5.06,2.46,5.06,6.28,0,4.2-2.62,6.65-5.54,6.65-1.13,0-2.45-.56-3.51-1.53h-.06l.12,2.25v4.01h-2.51v-17.36Zm8.92,5.99c0-2.58-.94-4.2-3.16-4.2-1.01,0-2.13.5-3.25,1.65v5.83c1.02.93,2.18,1.26,2.97,1.26,1.96,0,3.44-1.63,3.44-4.54Z" style="fill: #19a3ff; stroke-width: 0px;"/>
      <path d="m499.24,850.72c0-4.84,2.12-8.7,5.57-11.47l1.39,1.21c-3.28,2.87-4.77,6.09-4.77,10.26s1.49,7.39,4.77,10.26l-1.39,1.21c-3.45-2.77-5.57-6.63-5.57-11.47Z" style="fill: #fff; stroke-width: 0px;"/>
      <path d="m510.24,853.41c0-4.85,7.04-5.62,7.04-9.09,0-.91-.37-1.67-1.39-1.67s-1.64.94-1.64,2.25c0,2.98,3.31,6.94,6.41,9.2,1.17.94,2.28,1.57,3.26,1.87l-.66,2.07c-1.29-.37-2.66-1.13-4.11-2.28-3.63-2.8-7.04-7.52-7.04-10.82,0-2.25,1.49-4.03,3.75-4.03s3.42,1.37,3.42,3.39c0,4.11-6.62,5.38-6.62,8.96,0,1.69,1.28,2.8,2.93,2.8,1.2,0,2.35-.77,3.3-1.87,1.2-1.42,2.06-3.26,2.59-5.49h2.31c-.65,2.47-1.67,4.74-3.16,6.67-1.36,1.58-3.06,2.66-5.36,2.66-3.06,0-5.03-1.98-5.03-4.62Z" style="fill: #fff; stroke-width: 0px;"/>
      <path d="m525.76,845.41h1.96l.2,1.59h.06c.59-1.1,1.35-1.9,2.78-1.9,1.18,0,1.94.71,2.28,2.1.64-1.26,1.43-2.1,2.85-2.1,1.73,0,2.74,1.39,2.74,3.85v8.78h-2.44v-8.6c0-1.25-.35-1.88-1.15-1.88s-1.18.57-1.75,1.72v8.77h-2.17v-8.6c0-1.25-.32-1.88-1.12-1.88-.75,0-1.25.57-1.78,1.72v8.77h-2.44v-12.32Z" style="fill: #19a3ff; stroke-width: 0px;"/>
      <path d="m541.42,853.05v-7.65h2.51v7.32c0,2.13.71,3.15,2.57,3.15,1.29,0,2.22-.57,3.45-2.03v-8.43h2.51v12.32h-2.07l-.2-2.05h-.1c-1.2,1.4-2.61,2.36-4.48,2.36-2.89,0-4.19-1.77-4.19-4.98Z" style="fill: #19a3ff; stroke-width: 0px;"/>
      <path d="m559.71,852.86v-5.44h-3.4v-1.87l3.5-.13.33-3.91h2.08v3.91h5.82v2h-5.82v5.45c0,2.12.75,3.15,2.98,3.15,1.08,0,1.96-.22,2.81-.53l.51,1.83c-1.11.38-2.33.72-3.9.72-3.69,0-4.91-2.09-4.91-5.18Z" style="fill: #19a3ff; stroke-width: 0px;"/>
      <path d="m586.67,856.12l1.12-1.63c1.45,1,3.12,1.62,5.25,1.62,1.89,0,2.79-.75,2.79-1.68,0-.87-.51-1.42-3.62-2.06-3.26-.67-4.78-1.8-4.78-3.67,0-2.06,1.85-3.59,5.27-3.59,1.96,0,3.83.77,5.06,1.6l-1.18,1.57c-1.17-.78-2.59-1.26-4.11-1.26-1.83,0-2.54.72-2.54,1.57,0,.97.98,1.34,3.4,1.86,4.01.88,5.02,1.91,5.02,3.84,0,2.06-2,3.76-5.64,3.76-2.35,0-4.54-.88-6.05-1.92Z" style="fill: #ffc259; stroke-width: 0px;"/>
      <path d="m601.76,851.55c0-4.01,3.02-6.44,6.32-6.44,3.62,0,5.68,2.38,5.68,5.82,0,.53-.06,1.04-.12,1.37h-10.14v-1.84h8.57l-.54.61c0-2.67-1.29-4.01-3.38-4.01s-3.93,1.59-3.93,4.5,1.9,4.52,4.55,4.52c1.38,0,2.49-.42,3.6-1.08l.88,1.59c-1.27.83-2.91,1.46-4.8,1.46-3.74,0-6.69-2.38-6.69-6.49Z" style="fill: #ffc259; stroke-width: 0px;"/>
      <path d="m621.21,853.42v-11.56h-4.24v-2.01h6.75v13.72c0,1.71.97,2.4,2.32,2.4.67,0,1.39-.16,2.21-.52l.6,1.87c-1.18.46-2,.72-3.4.72-2.76,0-4.25-1.65-4.25-4.62Z" style="fill: #ffc259; stroke-width: 0px;"/>
      <path d="m632.86,845.54l3.52-.13h7.33v2h-10.86v-1.87Zm3.46-.98c0-2.95,1.59-5.01,5.11-5.01,1.27,0,2.47.25,3.6.7l-.54,1.87c-.95-.4-1.76-.56-2.79-.56-2.04,0-2.89,1.09-2.89,2.94v13.24h-2.49v-13.17Z" style="fill: #ffc259; stroke-width: 0px;"/>
      <path d="m648.65,860.98c3.28-2.87,4.78-6.09,4.78-10.26s-1.49-7.39-4.78-10.26l1.39-1.21c3.45,2.77,5.57,6.63,5.57,11.47s-2.12,8.7-5.57,11.47l-1.39-1.21Z" style="fill: #fff; stroke-width: 0px;"/>
      <path d="m682.1,858.15c0-1.83.25-3.06.25-4.72,0-.96-.7-1.91-3.61-1.94v-1.54c2.91-.03,3.61-.98,3.61-1.94,0-1.58-.25-2.98-.25-4.72,0-2.63,1.5-3.42,4.68-3.42h1.66v1.39h-1.24c-2.45,0-2.98.58-2.98,2.16,0,1.41.14,2.9.14,4.45,0,1.71-.6,2.5-2.36,2.8v.1c1.76.3,2.36,1.09,2.36,2.8s-.14,2.96-.14,4.45c0,1.58.53,2.16,2.98,2.16h1.24v1.39h-1.66c-3.18,0-4.68-.79-4.68-3.42Z" style="fill: #fff; stroke-width: 0px;"/>
      <path d="m389.88,886.39l1.12-1.63c1.45,1,3.12,1.62,5.25,1.62,1.89,0,2.79-.75,2.79-1.68,0-.87-.51-1.42-3.62-2.06-3.25-.67-4.78-1.8-4.78-3.67,0-2.06,1.85-3.59,5.26-3.59,1.96,0,3.83.77,5.07,1.6l-1.18,1.57c-1.17-.78-2.59-1.26-4.11-1.26-1.83,0-2.54.72-2.54,1.57,0,.97.98,1.34,3.4,1.86,4.01.88,5.02,1.91,5.02,3.84,0,2.06-2,3.76-5.64,3.76-2.35,0-4.54-.88-6.05-1.92Z" style="fill: #ffc259; stroke-width: 0px;"/>
      <path d="m404.98,881.82c0-4.01,3.02-6.44,6.32-6.44,3.62,0,5.67,2.38,5.67,5.82,0,.53-.06,1.04-.11,1.37h-10.14v-1.84h8.57l-.54.61c0-2.67-1.29-4.01-3.38-4.01s-3.93,1.59-3.93,4.5,1.9,4.52,4.55,4.52c1.38,0,2.49-.42,3.6-1.08l.88,1.59c-1.27.83-2.91,1.46-4.8,1.46-3.74,0-6.69-2.38-6.69-6.49Z" style="fill: #ffc259; stroke-width: 0px;"/>
      <path d="m424.42,883.69v-11.56h-4.24v-2.01h6.75v13.72c0,1.71.97,2.4,2.32,2.4.67,0,1.39-.16,2.21-.52l.6,1.87c-1.18.46-2,.72-3.4.72-2.76,0-4.25-1.65-4.25-4.62Z" style="fill: #ffc259; stroke-width: 0px;"/>
      <path d="m436.08,875.81l3.52-.13h7.33v2h-10.86v-1.87Zm3.46-.98c0-2.95,1.59-5.01,5.11-5.01,1.27,0,2.47.25,3.6.7l-.54,1.87c-.95-.4-1.76-.56-2.79-.56-2.04,0-2.89,1.09-2.89,2.94v13.24h-2.49v-13.17Z" style="fill: #ffc259; stroke-width: 0px;"/>
      <path d="m454.05,885.95c0-1.36.98-2.36,2.27-2.36s2.27,1,2.27,2.36-.98,2.36-2.27,2.36-2.27-.97-2.27-2.36Z" style="fill: #fff; stroke-width: 0px;"/>
      <path d="m465.03,875.68h2.55l2.6,6.67c.46,1.24.89,2.47,1.3,3.69h.1c.42-1.22.8-2.45,1.28-3.69l2.6-6.67h2.41l-4.96,12.32h-2.84l-5.05-12.32Z" style="fill: #19a3ff; stroke-width: 0px;"/>
      <path d="m480.93,884.75c0-2.76,2.51-4.12,8.73-4.59-.09-1.52-.91-2.75-3.1-2.75-1.49,0-2.96.68-4.17,1.39l-.96-1.68c1.38-.85,3.43-1.75,5.57-1.75,3.4,0,5.16,1.95,5.16,5.2v7.42h-2.08l-.2-1.6h-.08c-1.32,1.03-3.03,1.9-4.72,1.9-2.36,0-4.17-1.39-4.17-3.56Zm8.73-.1v-2.89c-4.84.35-6.28,1.32-6.28,2.79,0,1.24,1.11,1.75,2.43,1.75s2.57-.62,3.85-1.66Z" style="fill: #19a3ff; stroke-width: 0px;"/>
      <path d="m500.11,883.69v-11.56h-4.24v-2.01h6.75v13.72c0,1.71.97,2.4,2.32,2.4.67,0,1.39-.16,2.21-.52l.6,1.87c-1.18.46-2,.72-3.4.72-2.76,0-4.25-1.65-4.25-4.62Z" style="fill: #19a3ff; stroke-width: 0px;"/>
      <path d="m511.15,883.33v-7.65h2.51v7.32c0,2.13.71,3.15,2.57,3.15,1.29,0,2.22-.57,3.45-2.03v-8.43h2.51v12.32h-2.07l-.2-2.05h-.1c-1.2,1.4-2.61,2.36-4.48,2.36-2.89,0-4.19-1.77-4.19-4.98Z" style="fill: #19a3ff; stroke-width: 0px;"/>
      <path d="m526.07,881.82c0-4.01,3.02-6.44,6.32-6.44,3.62,0,5.67,2.38,5.67,5.82,0,.53-.06,1.04-.11,1.37h-10.14v-1.84h8.57l-.54.61c0-2.67-1.29-4.01-3.38-4.01s-3.93,1.59-3.93,4.5,1.9,4.52,4.55,4.52c1.38,0,2.49-.42,3.6-1.08l.88,1.59c-1.27.83-2.91,1.46-4.8,1.46-3.74,0-6.69-2.38-6.69-6.49Z" style="fill: #19a3ff; stroke-width: 0px;"/>
      <path d="m556.76,876h11.04v1.84h-11.04v-1.84Zm0,5.52h11.04v1.84h-11.04v-1.84Z" style="fill: #bb82fa; stroke-width: 0px;"/>
      <path d="m590.52,886.19c0-1.29.91-2.09,2.04-2.09s2.04.81,2.04,2.09-.91,2.12-2.04,2.12-2.04-.84-2.04-2.12Zm.86-12.45l-.07-2.62h2.49l-.07,2.62-.34,8.25h-1.68l-.34-8.25Z" style="fill: #bb82fa; stroke-width: 0px;"/>
      <path d="m601.8,886.39l1.12-1.63c1.45,1,3.12,1.62,5.25,1.62,1.89,0,2.79-.75,2.79-1.68,0-.87-.51-1.42-3.62-2.06-3.26-.67-4.78-1.8-4.78-3.67,0-2.06,1.85-3.59,5.27-3.59,1.96,0,3.83.77,5.06,1.6l-1.18,1.57c-1.17-.78-2.59-1.26-4.11-1.26-1.83,0-2.54.72-2.54,1.57,0,.97.98,1.34,3.4,1.86,4.01.88,5.02,1.91,5.02,3.84,0,2.06-2,3.76-5.64,3.76-2.35,0-4.54-.88-6.05-1.92Z" style="fill: #ffc259; stroke-width: 0px;"/>
      <path d="m616.9,881.82c0-4.01,3.02-6.44,6.32-6.44,3.62,0,5.67,2.38,5.67,5.82,0,.53-.06,1.04-.11,1.37h-10.14v-1.84h8.57l-.54.61c0-2.67-1.29-4.01-3.38-4.01s-3.93,1.59-3.93,4.5,1.9,4.52,4.55,4.52c1.38,0,2.49-.42,3.6-1.08l.88,1.59c-1.27.83-2.91,1.46-4.8,1.46-3.74,0-6.69-2.38-6.69-6.49Z" style="fill: #ffc259; stroke-width: 0px;"/>
      <path d="m636.35,883.69v-11.56h-4.24v-2.01h6.75v13.72c0,1.71.97,2.4,2.32,2.4.67,0,1.39-.16,2.21-.52l.6,1.87c-1.18.46-2,.72-3.4.72-2.76,0-4.25-1.65-4.25-4.62Z" style="fill: #ffc259; stroke-width: 0px;"/>
      <path d="m648,875.81l3.52-.13h7.33v2h-10.86v-1.87Zm3.46-.98c0-2.95,1.59-5.01,5.11-5.01,1.27,0,2.46.25,3.6.7l-.54,1.87c-.95-.4-1.76-.56-2.79-.56-2.04,0-2.89,1.09-2.89,2.94v13.24h-2.49v-13.17Z" style="fill: #ffc259; stroke-width: 0px;"/>
      <path d="m665.97,885.95c0-1.36.98-2.36,2.27-2.36s2.28,1,2.28,2.36-.98,2.36-2.28,2.36-2.27-.97-2.27-2.36Z" style="fill: #fff; stroke-width: 0px;"/>
      <path d="m676.95,875.68h2.55l2.6,6.67c.46,1.24.89,2.47,1.3,3.69h.1c.41-1.22.8-2.45,1.28-3.69l2.61-6.67h2.41l-4.96,12.32h-2.84l-5.05-12.32Z" style="fill: #19a3ff; stroke-width: 0px;"/>
      <path d="m692.85,884.75c0-2.76,2.51-4.12,8.73-4.59-.09-1.52-.91-2.75-3.1-2.75-1.49,0-2.96.68-4.16,1.39l-.96-1.68c1.38-.85,3.43-1.75,5.57-1.75,3.4,0,5.16,1.95,5.16,5.2v7.42h-2.07l-.2-1.6h-.08c-1.32,1.03-3.03,1.9-4.72,1.9-2.36,0-4.17-1.39-4.17-3.56Zm8.73-.1v-2.89c-4.84.35-6.28,1.32-6.28,2.79,0,1.24,1.11,1.75,2.43,1.75s2.57-.62,3.85-1.66Z" style="fill: #19a3ff; stroke-width: 0px;"/>
      <path d="m712.03,883.69v-11.56h-4.24v-2.01h6.75v13.72c0,1.71.97,2.4,2.32,2.4.67,0,1.39-.16,2.21-.52l.6,1.87c-1.18.46-2,.72-3.4.72-2.76,0-4.25-1.65-4.25-4.62Z" style="fill: #19a3ff; stroke-width: 0px;"/>
      <path d="m723.07,883.33v-7.65h2.51v7.32c0,2.13.71,3.15,2.57,3.15,1.29,0,2.22-.57,3.45-2.03v-8.43h2.51v12.32h-2.07l-.2-2.05h-.1c-1.2,1.4-2.61,2.36-4.48,2.36-2.88,0-4.19-1.77-4.19-4.98Z" style="fill: #19a3ff; stroke-width: 0px;"/>
      <path d="m737.99,881.82c0-4.01,3.02-6.44,6.32-6.44,3.62,0,5.68,2.38,5.68,5.82,0,.53-.06,1.04-.12,1.37h-10.14v-1.84h8.57l-.54.61c0-2.67-1.29-4.01-3.38-4.01s-3.93,1.59-3.93,4.5,1.9,4.52,4.55,4.52c1.38,0,2.49-.42,3.6-1.08l.88,1.59c-1.27.83-2.91,1.46-4.8,1.46-3.74,0-6.69-2.38-6.69-6.49Z" style="fill: #19a3ff; stroke-width: 0px;"/>
      <path d="m756.36,891.87c2.17-.92,3.23-2.25,3.2-4.22l-.37-2.5,1.44,2.13c-.42.44-.95.58-1.48.58-1.17,0-2.17-.71-2.17-2.07s1.02-2.09,2.23-2.09c1.63,0,2.49,1.33,2.49,3.51,0,3.02-1.71,5.15-4.67,6.19l-.69-1.53Zm.44-14.72c0-1.36.98-2.36,2.27-2.36s2.27,1,2.27,2.36-.98,2.36-2.27,2.36-2.27-.97-2.27-2.36Z" style="fill: #fff; stroke-width: 0px;"/>
      <path d="m330.2,920.73h1.22c2.45,0,3-.58,3-2.16,0-1.49-.14-2.78-.14-4.45s.58-2.5,2.34-2.8v-.1c-1.76-.3-2.34-1.09-2.34-2.8,0-1.54.14-3.04.14-4.45,0-1.58-.55-2.16-3-2.16h-1.22v-1.39h1.64c3.2,0,4.66.79,4.66,3.42,0,1.75-.24,3.14-.24,4.72,0,.96.7,1.91,3.61,1.94v1.54c-2.92.03-3.61.98-3.61,1.94,0,1.67.24,2.89.24,4.72,0,2.63-1.46,3.42-4.66,3.42h-1.64v-1.39Z" style="fill: #fff; stroke-width: 0px;"/>
      <path d="m329.75,972.1h10.6v1.7h-10.6v-1.7Zm.5-5.17h10.6v1.7h-10.6v-1.7Zm2.88-4.5h1.54l-1.99,16.39h-1.57l2.02-16.39Zm4.71,0h1.54l-1.99,16.39h-1.57l2.02-16.39Z" style="fill: #19a3ff; stroke-width: 0px;"/>
      <path d="m348.31,960.97h7.11v1.39h-5.15v18.92h5.15v1.39h-7.11v-21.69Z" style="fill: #19a3ff; stroke-width: 0px;"/>
      <path d="m365.64,968.51h-5.51v-2.01h8.02v12.32h-2.51v-10.32Zm-.82-6.2c0-1.06.79-1.79,1.87-1.79s1.87.73,1.87,1.79-.79,1.78-1.87,1.78-1.87-.7-1.87-1.78Z" style="fill: #19a3ff; stroke-width: 0px;"/>
      <path d="m375.28,966.51h2.05l.2,1.96h.1c1.23-1.27,2.64-2.27,4.54-2.27,2.88,0,4.2,1.77,4.2,4.98v7.65h-2.51v-7.32c0-2.15-.72-3.15-2.55-3.15-1.34,0-2.24.66-3.52,1.96v8.5h-2.51v-12.32Z" style="fill: #19a3ff; stroke-width: 0px;"/>
      <path d="m390.66,960.95h2.51v11.63h.1l6.07-6.07h2.82l-9,9.04v3.28h-2.51v-17.88Zm4.84,11.59l1.49-1.61,5.77,7.9h-2.76l-4.49-6.29Z" style="fill: #19a3ff; stroke-width: 0px;"/>
      <path d="m408.41,971.82c0-4.83,2.12-8.7,5.57-11.47l1.39,1.21c-3.28,2.87-4.77,6.09-4.77,10.26s1.49,7.39,4.77,10.26l-1.39,1.21c-3.45-2.77-5.57-6.63-5.57-11.47Z" style="fill: #19a3ff; stroke-width: 0px;"/>
      <path d="m419.8,966.51h1.96l.2,1.6h.06c.59-1.1,1.35-1.9,2.78-1.9,1.18,0,1.94.71,2.28,2.1.64-1.26,1.43-2.1,2.85-2.1,1.73,0,2.74,1.39,2.74,3.85v8.78h-2.44v-8.6c0-1.25-.35-1.88-1.15-1.88s-1.18.57-1.75,1.72v8.77h-2.17v-8.6c0-1.25-.32-1.88-1.12-1.88-.75,0-1.25.57-1.78,1.72v8.77h-2.44v-12.32Z" style="fill: #19a3ff; stroke-width: 0px;"/>
      <path d="m435.25,972.65c0-4.01,3.02-6.44,6.32-6.44,3.62,0,5.67,2.38,5.67,5.82,0,.53-.06,1.04-.11,1.36h-10.14v-1.84h8.58l-.54.61c0-2.67-1.29-4.01-3.38-4.01s-3.93,1.59-3.93,4.5,1.9,4.52,4.55,4.52c1.38,0,2.49-.42,3.6-1.08l.88,1.59c-1.27.84-2.91,1.46-4.8,1.46-3.74,0-6.69-2.38-6.69-6.49Z" style="fill: #19a3ff; stroke-width: 0px;"/>
      <path d="m450.43,977.22l1.12-1.63c1.45.99,3.12,1.62,5.25,1.62,1.89,0,2.79-.75,2.79-1.68,0-.87-.51-1.42-3.62-2.06-3.25-.67-4.78-1.8-4.78-3.67,0-2.06,1.85-3.59,5.26-3.59,1.96,0,3.83.77,5.07,1.6l-1.18,1.57c-1.17-.78-2.59-1.26-4.11-1.26-1.83,0-2.54.72-2.54,1.57,0,.96.98,1.34,3.4,1.86,4.01.88,5.02,1.91,5.02,3.84,0,2.06-2,3.76-5.64,3.76-2.35,0-4.54-.88-6.05-1.92Z" style="fill: #19a3ff; stroke-width: 0px;"/>
      <path d="m465.57,977.22l1.12-1.63c1.45.99,3.12,1.62,5.25,1.62,1.89,0,2.79-.75,2.79-1.68,0-.87-.51-1.42-3.62-2.06-3.25-.67-4.78-1.8-4.78-3.67,0-2.06,1.85-3.59,5.26-3.59,1.96,0,3.83.77,5.07,1.6l-1.18,1.57c-1.17-.78-2.59-1.26-4.11-1.26-1.83,0-2.54.72-2.54,1.57,0,.96.98,1.34,3.4,1.86,4.01.88,5.02,1.91,5.02,3.84,0,2.06-2,3.76-5.64,3.76-2.35,0-4.54-.88-6.05-1.92Z" style="fill: #19a3ff; stroke-width: 0px;"/>
      <path d="m480.93,975.58c0-2.76,2.51-4.12,8.73-4.59-.09-1.52-.91-2.75-3.1-2.75-1.49,0-2.96.68-4.17,1.39l-.96-1.68c1.38-.85,3.43-1.75,5.57-1.75,3.4,0,5.16,1.95,5.16,5.21v7.42h-2.08l-.2-1.6h-.08c-1.32,1.03-3.03,1.9-4.72,1.9-2.36,0-4.17-1.38-4.17-3.56Zm8.73-.1v-2.89c-4.84.35-6.28,1.32-6.28,2.79,0,1.24,1.11,1.75,2.43,1.75s2.57-.62,3.85-1.66Z" style="fill: #19a3ff; stroke-width: 0px;"/>
      <path d="m495.85,981.04c0-.99.7-1.94,2-2.67v-.1c-.67-.37-1.26-1.01-1.26-2.05,0-.8.55-1.68,1.47-2.31v-.1c-.86-.63-1.55-1.72-1.55-3.19,0-2.76,2.3-4.43,4.96-4.43.72,0,1.33.1,1.88.3h5.07v1.96h-3.01c.48.53.91,1.36.91,2.25,0,2.69-2.14,4.21-4.85,4.21-.6,0-1.31-.13-1.98-.4-.55.35-.85.75-.85,1.29,0,.88.86,1.29,2.44,1.29h2.64c3.19,0,4.77.83,4.77,2.95,0,2.38-2.71,4.34-6.98,4.34-3.5,0-5.65-1.17-5.65-3.35Zm10.21-.58c0-1.07-.89-1.35-2.64-1.35h-2.18c-.76,0-1.37-.05-1.88-.19-1.02.57-1.39,1.19-1.39,1.83,0,1.2,1.34,1.92,3.79,1.92,2.63,0,4.3-1.05,4.3-2.21Zm-2-9.83c0-1.61-1.16-2.66-2.58-2.66s-2.58,1.05-2.58,2.66,1.17,2.69,2.58,2.69,2.58-1.03,2.58-2.69Z" style="fill: #19a3ff; stroke-width: 0px;"/>
      <path d="m510.94,972.65c0-4.01,3.02-6.44,6.32-6.44,3.62,0,5.67,2.38,5.67,5.82,0,.53-.06,1.04-.11,1.36h-10.14v-1.84h8.58l-.54.61c0-2.67-1.29-4.01-3.38-4.01s-3.93,1.59-3.93,4.5,1.9,4.52,4.55,4.52c1.38,0,2.49-.42,3.6-1.08l.88,1.59c-1.27.84-2.91,1.46-4.8,1.46-3.74,0-6.69-2.38-6.69-6.49Z" style="fill: #19a3ff; stroke-width: 0px;"/>
      <path d="m527.55,982.08c3.28-2.87,4.77-6.09,4.77-10.26s-1.49-7.39-4.77-10.26l1.39-1.21c3.45,2.77,5.57,6.63,5.57,11.47s-2.12,8.7-5.57,11.47l-1.39-1.21Z" style="fill: #19a3ff; stroke-width: 0px;"/>
      <path d="m542.09,981.28h5.15v-18.92h-5.15v-1.39h7.11v21.69h-7.11v-1.39Z" style="fill: #19a3ff; stroke-width: 0px;"/>
      <path d="m329.87,996.78h2.05l.2,1.49h.08c1.1-1.04,2.66-1.79,4.11-1.79,3.26,0,5.06,2.46,5.06,6.28,0,4.2-2.62,6.65-5.54,6.65-1.13,0-2.45-.56-3.51-1.53h-.06l.12,2.25v4.01h-2.51v-17.36Zm8.92,5.99c0-2.58-.94-4.2-3.16-4.2-1.01,0-2.13.5-3.25,1.65v5.83c1.02.93,2.18,1.26,2.97,1.26,1.96,0,3.44-1.63,3.44-4.54Z" style="fill: #ffc259; stroke-width: 0px;"/>
      <path d="m344.64,1004.43v-7.65h2.51v7.32c0,2.13.71,3.15,2.57,3.15,1.29,0,2.22-.57,3.45-2.03v-8.43h2.51v12.32h-2.07l-.2-2.05h-.1c-1.2,1.4-2.61,2.36-4.48,2.36-2.89,0-4.19-1.77-4.19-4.98Z" style="fill: #ffc259; stroke-width: 0px;"/>
      <path d="m362.44,1007.74h-.08l-.23,1.36h-1.99v-17.88h2.51v4.74l-.11,2.27h.08c1.06-1.07,2.55-1.75,3.93-1.75,3.26,0,5.08,2.46,5.08,6.26,0,4.22-2.62,6.67-5.5,6.67-1.2,0-2.6-.62-3.71-1.67Zm6.63-4.97c0-2.58-.94-4.2-3.16-4.2-1.01,0-2.13.5-3.25,1.65v5.83c1.02.93,2.18,1.26,3.01,1.26,1.92,0,3.4-1.63,3.4-4.54Z" style="fill: #ffc259; stroke-width: 0px;"/>
      <path d="m390.67,996.91l3.52-.13h7.33v2h-10.86v-1.87Zm3.46-.98c0-2.95,1.59-5.01,5.11-5.01,1.27,0,2.47.25,3.6.7l-.54,1.87c-.95-.4-1.76-.56-2.79-.56-2.04,0-2.89,1.09-2.89,2.94v13.24h-2.49v-13.17Z" style="fill: #ffc259; stroke-width: 0px;"/>
      <path d="m405.55,996.78h2.05l.2,1.96h.1c1.23-1.27,2.64-2.27,4.54-2.27,2.88,0,4.2,1.77,4.2,4.98v7.65h-2.51v-7.32c0-2.15-.72-3.15-2.55-3.15-1.34,0-2.24.66-3.52,1.96v8.5h-2.51v-12.32Z" style="fill: #ffc259; stroke-width: 0px;"/>
      <path d="m435.3,1011.32c0-.99.7-1.94,2-2.67v-.1c-.67-.37-1.26-1.01-1.26-2.05,0-.8.55-1.68,1.47-2.31v-.1c-.86-.63-1.55-1.72-1.55-3.19,0-2.76,2.3-4.43,4.96-4.43.72,0,1.33.1,1.88.3h5.07v1.96h-3.01c.48.53.91,1.36.91,2.25,0,2.69-2.14,4.21-4.85,4.21-.6,0-1.31-.13-1.98-.4-.55.35-.85.75-.85,1.29,0,.88.86,1.29,2.44,1.29h2.64c3.19,0,4.77.84,4.77,2.95,0,2.38-2.71,4.34-6.98,4.34-3.5,0-5.65-1.17-5.65-3.35Zm10.21-.58c0-1.07-.89-1.35-2.64-1.35h-2.18c-.76,0-1.37-.05-1.88-.19-1.02.57-1.39,1.19-1.39,1.83,0,1.2,1.34,1.92,3.79,1.92,2.63,0,4.3-1.05,4.3-2.21Zm-2-9.83c0-1.61-1.16-2.66-2.58-2.66s-2.58,1.05-2.58,2.66,1.17,2.69,2.58,2.69,2.58-1.03,2.58-2.69Z" style="fill: #19a3ff; stroke-width: 0px;"/>
      <path d="m450.39,1002.92c0-4.01,3.02-6.44,6.32-6.44,3.62,0,5.67,2.38,5.67,5.82,0,.53-.06,1.04-.11,1.37h-10.14v-1.84h8.57l-.54.61c0-2.67-1.29-4.01-3.38-4.01s-3.93,1.59-3.93,4.5,1.9,4.52,4.55,4.52c1.38,0,2.49-.42,3.6-1.08l.88,1.59c-1.27.83-2.91,1.46-4.8,1.46-3.74,0-6.69-2.38-6.69-6.49Z" style="fill: #19a3ff; stroke-width: 0px;"/>
      <path d="m468.88,1004.23v-5.44h-3.4v-1.87l3.5-.13.33-3.91h2.08v3.91h5.82v2h-5.82v5.45c0,2.12.75,3.15,2.98,3.15,1.08,0,1.96-.22,2.81-.53l.51,1.83c-1.11.38-2.33.72-3.9.72-3.69,0-4.91-2.09-4.91-5.18Z" style="fill: #19a3ff; stroke-width: 0px;"/>
      <path d="m484.1,1002.09c0-4.84,2.12-8.7,5.57-11.47l1.39,1.21c-3.28,2.87-4.77,6.09-4.77,10.26s1.49,7.39,4.77,10.26l-1.39,1.21c-3.45-2.77-5.57-6.63-5.57-11.47Z" style="fill: #fff; stroke-width: 0px;"/>
      <path d="m495.11,1004.79c0-4.85,7.04-5.62,7.04-9.09,0-.91-.37-1.67-1.39-1.67s-1.64.94-1.64,2.25c0,2.98,3.31,6.94,6.41,9.2,1.17.94,2.28,1.57,3.26,1.87l-.66,2.07c-1.29-.37-2.66-1.13-4.11-2.28-3.63-2.8-7.04-7.52-7.04-10.82,0-2.25,1.49-4.03,3.75-4.03s3.42,1.37,3.42,3.39c0,4.11-6.62,5.38-6.62,8.96,0,1.69,1.28,2.8,2.93,2.8,1.2,0,2.35-.77,3.3-1.87,1.2-1.42,2.06-3.26,2.59-5.49h2.31c-.65,2.47-1.67,4.74-3.16,6.67-1.36,1.58-3.06,2.66-5.36,2.66-3.06,0-5.03-1.98-5.03-4.62Z" style="fill: #fff; stroke-width: 0px;"/>
      <path d="m510.98,1007.49l1.12-1.63c1.45,1,3.12,1.62,5.25,1.62,1.89,0,2.79-.75,2.79-1.68,0-.87-.51-1.42-3.62-2.06-3.25-.67-4.78-1.8-4.78-3.67,0-2.06,1.85-3.59,5.26-3.59,1.96,0,3.83.77,5.07,1.6l-1.18,1.57c-1.17-.78-2.59-1.26-4.11-1.26-1.83,0-2.54.72-2.54,1.57,0,.97.98,1.34,3.4,1.86,4.01.88,5.02,1.91,5.02,3.84,0,2.06-2,3.76-5.64,3.76-2.35,0-4.54-.88-6.05-1.92Z" style="fill: #ffc259; stroke-width: 0px;"/>
      <path d="m526.07,1002.92c0-4.01,3.02-6.44,6.32-6.44,3.62,0,5.67,2.38,5.67,5.82,0,.53-.06,1.04-.11,1.37h-10.14v-1.84h8.57l-.54.61c0-2.67-1.29-4.01-3.38-4.01s-3.93,1.59-3.93,4.5,1.9,4.52,4.55,4.52c1.38,0,2.49-.42,3.6-1.08l.88,1.59c-1.27.83-2.91,1.46-4.8,1.46-3.74,0-6.69-2.38-6.69-6.49Z" style="fill: #ffc259; stroke-width: 0px;"/>
      <path d="m545.52,1004.79v-11.56h-4.24v-2.01h6.75v13.72c0,1.71.97,2.4,2.32,2.4.67,0,1.39-.16,2.21-.52l.6,1.87c-1.18.46-2,.72-3.4.72-2.76,0-4.25-1.65-4.25-4.62Z" style="fill: #ffc259; stroke-width: 0px;"/>
      <path d="m557.18,996.91l3.52-.13h7.33v2h-10.86v-1.87Zm3.46-.98c0-2.95,1.59-5.01,5.11-5.01,1.27,0,2.47.25,3.6.7l-.54,1.87c-.95-.4-1.76-.56-2.79-.56-2.04,0-2.89,1.09-2.89,2.94v13.24h-2.49v-13.17Z" style="fill: #ffc259; stroke-width: 0px;"/>
      <path d="m572.96,1012.35c3.28-2.87,4.77-6.09,4.77-10.26s-1.49-7.39-4.77-10.26l1.39-1.21c3.45,2.77,5.57,6.63,5.57,11.47s-2.12,8.7-5.57,11.47l-1.39-1.21Z" style="fill: #19a3ff; stroke-width: 0px;"/>
      <path d="m602.17,999.86h11.04v1.84h-11.04v-1.84Z" style="fill: #bb82fa; stroke-width: 0px;"/>
      <path d="m617.9,1005.64l7.34-4.86v-.1l-7.34-4.86v-2.37l9.5,6.35v1.86l-9.5,6.35v-2.37Z" style="fill: #bb82fa; stroke-width: 0px;"/>
      <path d="m650.05,1007.74h-.08l-.23,1.36h-1.99v-17.88h2.51v4.74l-.11,2.27h.08c1.06-1.07,2.55-1.75,3.93-1.75,3.26,0,5.08,2.46,5.08,6.26,0,4.22-2.62,6.67-5.49,6.67-1.2,0-2.6-.62-3.71-1.67Zm6.63-4.97c0-2.58-.94-4.2-3.16-4.2-1.01,0-2.13.5-3.25,1.65v5.83c1.02.93,2.18,1.26,3.01,1.26,1.92,0,3.4-1.63,3.4-4.54Z" style="fill: #f55; stroke-width: 0px;"/>
      <path d="m662.11,1002.96c0-4.13,2.89-6.49,6.14-6.49s6.14,2.36,6.14,6.49-2.89,6.44-6.14,6.44-6.14-2.36-6.14-6.44Zm9.7,0c0-2.66-1.38-4.42-3.57-4.42s-3.56,1.76-3.56,4.42,1.38,4.38,3.56,4.38,3.57-1.74,3.57-4.38Z" style="fill: #f55; stroke-width: 0px;"/>
      <path d="m677.24,1002.96c0-4.13,2.89-6.49,6.14-6.49s6.14,2.36,6.14,6.49-2.89,6.44-6.14,6.44-6.14-2.36-6.14-6.44Zm9.71,0c0-2.66-1.38-4.42-3.57-4.42s-3.57,1.76-3.57,4.42,1.38,4.38,3.57,4.38,3.57-1.74,3.57-4.38Z" style="fill: #f55; stroke-width: 0px;"/>
      <path d="m696.89,1004.79v-11.56h-4.24v-2.01h6.75v13.72c0,1.71.97,2.4,2.32,2.4.67,0,1.39-.16,2.21-.52l.6,1.87c-1.18.46-2,.72-3.4.72-2.76,0-4.25-1.65-4.25-4.62Z" style="fill: #f55; stroke-width: 0px;"/>
      <path d="m727.51,1009.52c0-1.83.25-3.06.25-4.72,0-.96-.7-1.91-3.61-1.94v-1.54c2.91-.03,3.61-.98,3.61-1.94,0-1.58-.25-2.98-.25-4.72,0-2.63,1.5-3.42,4.68-3.42h1.66v1.39h-1.24c-2.45,0-2.98.58-2.98,2.16,0,1.41.14,2.9.14,4.45,0,1.71-.6,2.5-2.36,2.8v.1c1.76.3,2.36,1.09,2.36,2.8s-.14,2.96-.14,4.45c0,1.58.53,2.16,2.98,2.16h1.24v1.39h-1.66c-3.18,0-4.68-.79-4.68-3.42Z" style="fill: #fff; stroke-width: 0px;"/>
      <path d="m389.88,1037.77l1.12-1.63c1.45.99,3.12,1.62,5.25,1.62,1.89,0,2.79-.75,2.79-1.68,0-.87-.51-1.42-3.62-2.06-3.25-.67-4.78-1.8-4.78-3.67,0-2.06,1.85-3.59,5.26-3.59,1.96,0,3.83.77,5.07,1.6l-1.18,1.57c-1.17-.78-2.59-1.26-4.11-1.26-1.83,0-2.54.72-2.54,1.57,0,.96.98,1.34,3.4,1.86,4.01.88,5.02,1.91,5.02,3.84,0,2.06-2,3.76-5.64,3.76-2.35,0-4.54-.88-6.05-1.92Z" style="fill: #ffc259; stroke-width: 0px;"/>
      <path d="m404.98,1033.2c0-4.01,3.02-6.44,6.32-6.44,3.62,0,5.67,2.38,5.67,5.82,0,.53-.06,1.04-.11,1.36h-10.14v-1.84h8.57l-.54.61c0-2.67-1.29-4.01-3.38-4.01s-3.93,1.59-3.93,4.5,1.9,4.52,4.55,4.52c1.38,0,2.49-.42,3.6-1.08l.88,1.59c-1.27.84-2.91,1.46-4.8,1.46-3.74,0-6.69-2.38-6.69-6.49Z" style="fill: #ffc259; stroke-width: 0px;"/>
      <path d="m424.42,1035.07v-11.56h-4.24v-2h6.75v13.72c0,1.71.97,2.4,2.32,2.4.67,0,1.39-.16,2.21-.52l.6,1.87c-1.18.46-2,.72-3.4.72-2.76,0-4.25-1.65-4.25-4.62Z" style="fill: #ffc259; stroke-width: 0px;"/>
      <path d="m436.08,1027.19l3.52-.13h7.33v2.01h-10.86v-1.88Zm3.46-.98c0-2.95,1.59-5.01,5.11-5.01,1.27,0,2.47.25,3.6.7l-.54,1.87c-.95-.4-1.76-.56-2.79-.56-2.04,0-2.89,1.09-2.89,2.94v13.24h-2.49v-13.17Z" style="fill: #ffc259; stroke-width: 0px;"/>
      <path d="m454.05,1037.33c0-1.36.98-2.36,2.27-2.36s2.27,1,2.27,2.36-.98,2.36-2.27,2.36-2.27-.97-2.27-2.36Z" style="fill: #fff; stroke-width: 0px;"/>
      <path d="m465.03,1027.06h2.55l2.6,6.67c.46,1.24.89,2.47,1.3,3.69h.1c.42-1.22.8-2.45,1.28-3.69l2.6-6.67h2.41l-4.96,12.32h-2.84l-5.05-12.32Z" style="fill: #19a3ff; stroke-width: 0px;"/>
      <path d="m480.93,1036.13c0-2.76,2.51-4.12,8.73-4.59-.09-1.52-.91-2.75-3.1-2.75-1.49,0-2.96.68-4.17,1.39l-.96-1.68c1.38-.85,3.43-1.75,5.57-1.75,3.4,0,5.16,1.95,5.16,5.21v7.42h-2.08l-.2-1.6h-.08c-1.32,1.03-3.03,1.9-4.72,1.9-2.36,0-4.17-1.38-4.17-3.56Zm8.73-.1v-2.89c-4.84.35-6.28,1.32-6.28,2.79,0,1.24,1.11,1.75,2.43,1.75s2.57-.62,3.85-1.66Z" style="fill: #19a3ff; stroke-width: 0px;"/>
      <path d="m500.11,1035.07v-11.56h-4.24v-2h6.75v13.72c0,1.71.97,2.4,2.32,2.4.67,0,1.39-.16,2.21-.52l.6,1.87c-1.18.46-2,.72-3.4.72-2.76,0-4.25-1.65-4.25-4.62Z" style="fill: #19a3ff; stroke-width: 0px;"/>
      <path d="m511.15,1034.7v-7.65h2.51v7.32c0,2.13.71,3.15,2.57,3.15,1.29,0,2.22-.57,3.45-2.03v-8.43h2.51v12.32h-2.07l-.2-2.05h-.1c-1.2,1.4-2.61,2.36-4.48,2.36-2.89,0-4.19-1.77-4.19-4.98Z" style="fill: #19a3ff; stroke-width: 0px;"/>
      <path d="m526.07,1033.2c0-4.01,3.02-6.44,6.32-6.44,3.62,0,5.67,2.38,5.67,5.82,0,.53-.06,1.04-.11,1.36h-10.14v-1.84h8.57l-.54.61c0-2.67-1.29-4.01-3.38-4.01s-3.93,1.59-3.93,4.5,1.9,4.52,4.55,4.52c1.38,0,2.49-.42,3.6-1.08l.88,1.59c-1.27.84-2.91,1.46-4.8,1.46-3.74,0-6.69-2.38-6.69-6.49Z" style="fill: #19a3ff; stroke-width: 0px;"/>
      <path d="m330.2,1072.1h1.22c2.45,0,3-.58,3-2.16,0-1.49-.14-2.78-.14-4.45s.58-2.5,2.34-2.8v-.1c-1.76-.3-2.34-1.09-2.34-2.8,0-1.54.14-3.04.14-4.45,0-1.58-.55-2.16-3-2.16h-1.22v-1.39h1.64c3.2,0,4.66.79,4.66,3.42,0,1.75-.24,3.14-.24,4.72,0,.96.7,1.91,3.61,1.94v1.54c-2.92.03-3.61.98-3.61,1.94,0,1.67.24,2.9.24,4.72,0,2.63-1.46,3.42-4.66,3.42h-1.64v-1.39Z" style="fill: #fff; stroke-width: 0px;"/>
      <path d="m269.65,1102.37h1.22c2.45,0,3-.58,3-2.16,0-1.49-.14-2.78-.14-4.45s.58-2.5,2.34-2.8v-.1c-1.76-.3-2.34-1.09-2.34-2.8,0-1.54.14-3.04.14-4.45,0-1.58-.55-2.16-3-2.16h-1.22v-1.39h1.64c3.2,0,4.66.79,4.66,3.42,0,1.75-.24,3.14-.24,4.72,0,.96.7,1.91,3.61,1.94v1.54c-2.92.03-3.61.98-3.61,1.94,0,1.67.24,2.9.24,4.72,0,2.63-1.46,3.42-4.66,3.42h-1.64v-1.39Z" style="fill: #fff; stroke-width: 0px;"/>
      <path d="m209.1,1132.65h1.22c2.45,0,3-.58,3-2.16,0-1.49-.14-2.78-.14-4.45s.58-2.5,2.34-2.8v-.1c-1.76-.3-2.34-1.09-2.34-2.8,0-1.54.14-3.04.14-4.45,0-1.58-.55-2.16-3-2.16h-1.22v-1.39h1.64c3.2,0,4.66.79,4.66,3.42,0,1.75-.24,3.14-.24,4.72,0,.96.7,1.91,3.61,1.94v1.54c-2.92.03-3.61.98-3.61,1.94,0,1.67.24,2.89.24,4.72,0,2.63-1.46,3.42-4.66,3.42h-1.64v-1.39Z" style="fill: #fff; stroke-width: 0px;"/>
    </g>
    <path d="m873.19,1183.59H168.27c-15.84,0-28.73-12.89-28.73-28.73V349.79c0-11.27,9.17-20.44,20.44-20.44h721.51c11.27,0,20.44,9.17,20.44,20.44v805.06c0,15.85-12.89,28.74-28.74,28.74ZM159.98,333.35c-9.06,0-16.44,7.37-16.44,16.44v805.08c0,13.64,11.09,24.73,24.73,24.73h704.92c13.64,0,24.74-11.1,24.74-24.74V349.79c0-9.06-7.37-16.44-16.44-16.44H159.98Z" style="fill: #bb82fa; stroke-width: 0px;"/>
    <g>
      <path d="m990.74,751.05c-119.83-.79-117.84,4.94-153.1,97.45-1.64,4.31,1.64,8.92,6.24,8.76,131.95-4.44,132.08-50.47,152.74-97.19,1.87-4.23-1.26-8.98-5.88-9.02Z" style="fill: #ba81f9; stroke-width: 0px;"/>
      <path d="m1043.64,717.27c-19.61,24.29-45.57,42-71.23,58.78-34.3,21.9-70.46,40.33-107.05,57.54-4.24,1.86-7.4-4.28-3.1-6.52,36.2-17.53,71.63-36.78,104.95-58.99,24.28-16.55,48.7-34.85,66.51-58.29,5.61-8.27,15.93-23.19,5.8-30.97-11.21-6.45-26.04-4.03-38.95-1.61-20.39,4.64-40.03,12.48-58.83,22.14-5.46,2.81-10.68-10.34-4.78-13.29,10.02-5.02,20.26-9.54,30.77-13.5,22.39-7.91,57.51-18.66,79.52-4.66,17.8,12.7,7.31,36.19-3.6,49.38Z" style="fill: #8547ca; stroke-width: 0px;"/>
    </g>
    <g>
      <path d="m223.72,944.79c-26.02,1.23-50.22-.46-71-5.88-74.97-19.54-105.73-82.99-13.11-118.3v-85.36C17.01,763.35-11.24,838.06,7.53,898.74c17.98,58.12,83.25,86.52,185.88,75.84,58.6-6.1,79.99-26.83,79.99-32.49s-22.42,1.42-49.68,2.7Z" style="fill: #bb82fa; stroke-width: 0px;"/>
      <path d="m273.4,942.09c0,5.65-21.39,26.39-79.99,32.48-54.55,5.68-98.52.33-130.46-14.66-9.7-4.55-18.29-9.98-25.72-16.28-14.18-11.96-24.17-27.03-29.7-44.89-18.77-60.68,9.48-135.39,132.07-163.48v85.36c-51.59,19.68-64.89,48.07-53.6,72.75,2.57,5.65,6.45,11.1,11.45,16.21,12.37,12.64,31.62,23.17,55.27,29.33,20.78,5.41,44.99,7.1,71,5.88,27.25-1.29,49.68-8.37,49.68-2.7Z" style="fill: #bb82fa; stroke-width: 0px;"/>
      <path d="m62.95,959.91c-9.7-4.55-18.29-9.98-25.72-16.28,0-39.85,34.34-50.26,48.78-50.26,2.57,5.65,6.45,11.1,11.45,16.21-32.53,3.88-44.95,32.23-34.5,50.33Z" style="fill: #d1a5ff; stroke-width: 0px;"/>
      <path d="m147.92,937.58c-115.6-17.29-145.68-138.28-8.31-171.96v55c-90.62,34.54-63.12,96.02,8.31,116.96Z" style="fill: #8647cb; stroke-width: 0px;"/>
      <path d="m129.19,794.48c-5.92-8.9-22.56-4.63-36.07,3.92-13.07,8.27-23.22,20.55-17.62,29.06,6.24,9.48,23.28,7.62,36.84-1,13.02-8.28,22.85-22.95,16.85-31.97Z" style="fill: #d7b6fa; stroke-width: 0px;"/>
      <path d="m88.17,874.22c4.64,11.24,7.18,26.86,1.4,29.24-5.78,2.38-14.17-9.24-19.67-22.58-5.5-13.34-7.12-23.26-1.34-25.64,5.78-2.38,14.98,7.74,19.61,18.98Z" style="fill: #d7b6fa; stroke-width: 0px;"/>
      <path d="m110.48,919.71c1.24-7.37,42.24,11.62,42.24,19.2-1.14,1.14-43.61-11.06-42.24-19.2Z" style="fill: #d7b6fa; stroke-width: 0px;"/>
      <path d="m139.61,735.26v44.16l-18.9,5.13s1.37-20.69-17.4-38.69c11.04-4.03,23.12-7.59,36.3-10.6Z" style="fill: #8647cb; stroke-width: 0px;"/>
    </g>
    <g>
      <path d="m153.63,1192.54c-79.84,28.63-126.54,116.01-93.63,91.22,10.76-8.1,30.27-18.1,54.05-26,48.91-16.26,112.09-31.28,158.57,5,69.06,53.93,158.8,19.61,190.98-46.52,4.57-9.52-35.13-26.2-47.64-20.76-18.84,8.19-11.65,2.09-11.65,2.09,0,0-19.88,24.69-61.76,16.33-41.9-8.36-115.66-47.62-188.91-21.36Z" style="fill: #ba81f9; stroke-width: 0px;"/>
      <path d="m153.63,1192.54c-79.84,28.63-126.54,116.01-93.63,91.22,10.76-8.1,30.27-18.1,54.05-26,0,0,27.64-35.61,88.94-37.43,87.09-2.57,151.01,65.04,212.97-24.85,2.79-4.05-14.13.51-14.13.51,0,0-18,25.68-59.88,17.31-41.9-8.36-115.06-47.03-188.31-20.76Z" style="fill: #8547ca; stroke-width: 0px;"/>
      <path d="m220.94,1177.69c-21.25-.14-34.61,11.67-24.05,21.26,10.56,9.59,37.13,9.76,47.82.31s-2.52-21.43-23.77-21.57Z" style="fill: #d6b5f9; stroke-width: 0px;"/>
      <path d="m132.26,1198.43c-14.76,8.64-18.94,22.64-7.54,25.21,11.41,2.56,29.85-8.24,33.2-19.44,3.35-11.2-10.91-14.41-25.67-5.77Z" style="fill: #d6b5f9; stroke-width: 0px;"/>
      <path d="m73.69,1242.78c-9.96,8.82-11.04,20.14-1.95,20.38,9.1.24,21.55-10.79,22.41-19.85.87-9.06-10.5-9.35-20.46-.53Z" style="fill: #d6b5f9; stroke-width: 0px;"/>
      <path d="m314.53,1198.82c-22.71-5.19-39.5,2.9-30.21,14.56,9.28,11.66,37.67,18.15,51.1,11.68,13.43-6.47,1.82-21.05-20.89-26.24Z" style="fill: #d6b5f9; stroke-width: 0px;"/>
    </g>
    <g>
      <path d="m1041.64,1152.13c.12,2.75-.18,5.44-.86,7.97l6.63.26-14.39,12.59v-.02c-4.45,4.12-10.32,6.73-16.85,7.02l-355.83,15.73c-14.72.65-27.17-10.75-27.83-25.47l-3.08-69.72c-.37-8.3,3.1-15.87,8.82-21.02l.31-.27,14.57-12.73-.49,6.41c.74-.1,1.49-.17,2.25-.2l355.84-15.73c14.71-.65,27.16,10.75,27.82,25.46l3.09,69.73Z" style="fill: #d0acf9; stroke-width: 0px;"/>
      <g>
        <rect x="645.95" y="1051.45" width="409.52" height="123.13" rx="27.37" ry="27.37" transform="translate(-48.33 38.66) rotate(-2.53)" style="fill: #fff; stroke-width: 0px;"/>
        <path d="m680.06,1173.1c-5.51,0-10.75-2.03-14.84-5.78-4.34-3.97-6.87-9.39-7.13-15.27l-2.69-60.92c-.26-5.87,1.78-11.5,5.75-15.83s9.39-6.87,15.27-7.13l343.94-15.21c12.11-.55,22.43,8.89,22.96,21.02l2.69,60.92c.54,12.12-8.89,22.43-21.02,22.96l-343.94,15.21c-.33.01-.66.02-1,.02Zm341.28-116.15c-.27,0-.54,0-.81.02l-343.94,15.21c-4.81.21-9.24,2.28-12.49,5.83-3.25,3.55-4.92,8.15-4.71,12.96l2.69,60.92c.21,4.81,2.28,9.24,5.83,12.49,3.55,3.25,8.15,4.92,12.96,4.71l343.94-15.21.09,2-.09-2c9.92-.44,17.64-8.87,17.2-18.79l-2.69-60.92c-.43-9.65-8.42-17.22-17.99-17.22Z" style="fill: #ba81f9; stroke-width: 0px;"/>
        <g>
          <path d="m772.57,1142.22l2.52-15.12c1.76.13,4.05.22,7.22.08,7.41-.33,13.38-2.62,17.42-6.39,4.05-3.78,6.15-9.02,5.88-15.18-.18-4.18-1.45-7.64-3.67-10.28-2.22-2.64-5.37-4.44-9.27-5.31-2.27-.51-4.79-.71-7.54-.59-2.91.13-8.58,1.16-11.99,1.89l-.22.05-8.58,51.22,8.22-.36h0Zm9.06-22.59c-1.12.05-2.11.08-3.03.07-.81,0-1.55-.03-2.27-.08l3.68-21.94c1.47-.28,3.54-.62,5.68-.72,1.32-.06,2.53,0,3.62.15,2.11.31,3.81,1,5.11,2.02,1.96,1.54,3.03,3.88,3.16,6.89.17,3.86-1.07,7.12-3.7,9.49-2.64,2.37-6.71,3.87-12.24,4.11Z" style="fill-rule: evenodd; stroke-width: 0px;"/>
          <path d="m844.93,1139.02l8.66-51.71-8.22.36-8.65,51.71,8.22-.36h0Z" style="stroke-width: 0px;"/>
          <path d="m947.28,1101.71l3.16-18.68,8.23-.36-5.73,33.9c-.51,2.97-.92,6.34-.84,8.3.04.81.17,1.42.4,1.81.11.19.24.33.39.41.14.08.32.13.56.12.3-.01.66-.17,1.09-.48.42-.31.87-.75,1.33-1.29.9-1.05,1.83-2.43,2.64-3.8-.01-.17-.02-.33-.03-.51-.24-5.49,1.47-11.22,4.69-15.64,3.22-4.42,7.96-7.55,13.76-7.81,4.02-.18,7.3,1.09,9.62,3.41,2.31,2.32,3.64,5.65,3.82,9.56.41,9.33-4.75,19.31-13.38,22.5-1.58.58-3.29.94-5.07,1.02-1.78.08-3.41-.13-4.89-.58-2.54-.78-4.59-2.32-6.04-4.4-1.59,2.2-3.39,3.91-5.45,4.9-1.19.58-2.48.92-3.81.97-1.33.06-2.53-.16-3.56-.66-2.18-1.06-3.52-3.31-3.84-6.55-1.74,3.16-4.16,5.73-7.35,7.07-1.37.57-2.87.92-4.52.99-1.54.07-2.96-.15-4.25-.61-2.7-.97-4.77-2.99-6.05-5.63-1.64,3-3.47,5.03-5.6,6.14-1.14.59-2.38.91-3.64.97s-2.41-.18-3.38-.67c-2.08-1.05-3.35-3.24-3.69-6.1-1.62,2.9-3.86,5.31-6.87,6.59-1.34.57-2.82.92-4.47.99-1.53.07-2.97-.15-4.27-.61-1.63-.58-2.92-1.58-3.94-2.86-1.63,1.77-3.58,3.1-5.69,3.86-2.35.84-4.97.99-7.46.08-2.52-.92-4.58-2.79-5.95-5.36-.7-1.32-1.42-2.89-2.11-4.4-.19-.43-.39-.85-.57-1.26-.42-.91-.84-1.79-1.27-2.65-.88.22-1.72.39-2.52.49l-2.27,13.56-8.49.38,8.7-51.97,8.49-.38-4.83,28.82c4.23-1.44,9.98-5.23,13.65-14.12l8.2,3.48c-3.39,8.22-8.36,13.38-13.32,16.46.4.82.78,1.62,1.14,2.39.23.51.46.99.67,1.46.67,1.46,1.23,2.71,1.8,3.77.5.95,1.06,1.31,1.46,1.45.44.16,1.08.2,1.91-.09,1.66-.6,3.8-2.54,4.74-6.12l.65-3.6c.21-2.36.71-4.52,1.39-6.13,3.26-7.68,10.22-13.08,18.17-13.43,2.59-.11,5.32.39,7.72,1.23,2.4.84,4.51,2.03,5.83,3.3l.13.12-.03.18c-.2,1.13-.46,2.5-.74,4.01-.46,2.44-.97,5.24-1.44,7.91-.37,2.16-.71,4.23-.95,5.95-.24,1.74-.36,3.1-.33,3.85.03.57.16.97.35,1.22.18.23.42.35.74.34.45-.02.98-.29,1.58-.9.59-.6,1.22-1.5,1.87-2.68,1.3-2.36,2.69-5.79,4.13-10.1,2.6-9.24,10.03-15.57,17.75-15.91,3.54-.16,6.06.8,7.89,2.35h0Zm-40.89,13.97l1.22-6.43c-1.44-.78-3.06-1.27-5.09-1.18-3.53.16-6.55,2.27-8.66,5.31-2.11,3.04-3.28,6.98-3.12,10.7.08,1.89.6,3.4,1.47,4.42.86,1.01,2.08,1.56,3.66,1.49,2.37-.1,4.57-1.41,6.4-3.84,1.83-2.43,3.28-5.96,4.11-10.46h0Zm39.42-5.55l.3-1.89c-1.47-1.05-3.45-1.8-5.98-1.69-3.39.15-6.29,2.2-8.31,5.19-2.02,2.99-3.15,6.89-2.98,10.65.09,1.96.61,3.48,1.45,4.48.83.99,2,1.51,3.47,1.44,2.69-.12,5.25-1.97,7.37-5.18,2.12-3.2,3.78-7.7,4.67-13h0Zm22.34,14.8c.92,1.1,2.31,1.75,4.28,1.67,2.84-.13,5.35-2.12,7.13-5.01,1.78-2.88,2.78-6.6,2.63-10.05-.08-1.86-.57-3.46-1.51-4.57-.92-1.1-2.31-1.76-4.28-1.67-2.83.13-5.34,2.13-7.13,5.03-1.78,2.89-2.78,6.61-2.63,10.02.08,1.86.57,3.46,1.5,4.57Z" style="fill-rule: evenodd; stroke-width: 0px;"/>
          <path d="m1018.84,1121.67l-.18.29c-1.41,2.3-3.35,4.87-4.69,6.18-1.1,1.07-2.36,2.08-3.78,2.88-1.71.97-3.62,1.63-5.71,1.72-1.77.08-3.31-.17-4.63-.71-3.57-1.44-5.35-4.93-5.54-9.25-.08-1.71.04-3.39.2-4.7h0s0-.04,0-.04c.06-.46.12-.88.18-1.24l2.01-12.05-5.62.25,1.22-7.27,5.59-.25,2.37-13.96,8.22-.36-2.39,13.96,9.96-.44-1.22,7.27-9.99.44-2.03,12.33s0,.05-.01.08h0s0,.01,0,.01c0,.03,0,.06-.01.08h0v.03c-.26,1.73-.46,3.29-.4,4.57.05,1.18.34,2.08.79,2.67.44.57,1.06.87,1.89.84.94-.04,1.78-.42,2.71-1.15.94-.74,1.93-1.82,3.19-3.24.1-.12.7-.94,1.37-1.83l.53-.71,5.97,3.61Z" style="stroke-width: 0px;"/>
          <path d="m822.62,1104.52c-5.8.26-10.54,3.39-13.76,7.81-3.22,4.42-4.93,10.14-4.69,15.64.27,6.15,3.35,10.86,8.56,12.46,1.47.45,3.1.66,4.88.58,1.78-.08,3.48-.43,5.06-1.01,8.63-3.18,13.8-13.17,13.39-22.5-.17-3.91-1.5-7.24-3.81-9.56-2.32-2.32-5.6-3.59-9.63-3.41Zm-4.49,28.89c-1.97.09-3.36-.57-4.28-1.67-.93-1.11-1.42-2.71-1.5-4.57-.15-3.41.86-7.13,2.63-10.02,1.78-2.9,4.29-4.91,7.12-5.03,1.97-.09,3.36.57,4.28,1.67.93,1.11,1.42,2.72,1.5,4.57.15,3.45-.86,7.16-2.63,10.05-1.78,2.89-4.29,4.88-7.13,5.01Z" style="fill-rule: evenodd; stroke-width: 0px;"/>
          <path d="m715.74,1098.1c7.07-.31,12.65-3.94,12.46-8.1s-6.06-7.28-13.13-6.97c-7.07.31-12.65,3.94-12.46,8.1.18,4.16,6.06,7.28,13.13,6.97Z" style="fill: #ff2670; stroke-width: 0px;"/>
          <path d="m718.25,1154.86c7.07-.31,12.65-3.94,12.46-8.1-.18-4.16-6.06-7.28-13.13-6.97-7.07.31-12.65,3.94-12.46,8.1s6.06,7.28,13.13,6.97Z" style="fill: #ff2670; stroke-width: 0px;"/>
          <path d="m698.37,1109.31c3.26-6.35,2.94-13.06-.71-14.98-3.65-1.92-9.26,1.67-12.52,8.02-3.26,6.35-2.94,13.06.71,14.98,3.65,1.92,9.26-1.67,12.52-8.02Z" style="fill: #ff2670; stroke-width: 0px;"/>
          <path d="m748.19,1135.55c3.26-6.35,2.94-13.06-.71-14.98-3.65-1.92-9.26,1.67-12.52,8.02-3.26,6.35-2.94,13.06.71,14.98,3.65,1.92,9.26-1.66,12.52-8.02Z" style="fill: #ff2670; stroke-width: 0px;"/>
          <path d="m699.9,1145.14c3.47-2.24,3.2-8.95-.61-14.99-3.81-6.04-9.71-9.12-13.18-6.88-3.47,2.24-3.2,8.95.61,14.99,3.81,6.04,9.71,9.12,13.18,6.88Z" style="fill: #ff2670; stroke-width: 0px;"/>
          <path d="m747.22,1114.61c3.47-2.24,3.2-8.95-.61-14.99-3.81-6.04-9.71-9.12-13.18-6.88-3.47,2.24-3.2,8.95.61,14.99,3.81,6.04,9.71,9.12,13.18,6.88Z" style="fill: #ff2670; stroke-width: 0px;"/>
        </g>
      </g>
    </g>
    <path d="m819.83,1208.14c-2.58-22.38-8.17-36.72-16.11-51.87-13.72-26.18-19.06-23.64-17.09-7.64,3.37,27.31,2.4,37.83-.19,61.95l33.4-2.44Z" style="fill: #ba81f9; stroke-width: 0px;"/>
  </g>
</svg>