<svg xmlns="http://www.w3.org/2000/svg" width="1524.63" height="661.91" xmlns:xlink="http://www.w3.org/1999/xlink"><defs><clipPath id="b"><path d="M1145.48 367.23c.08-4.2 4.02-7.27 8.1-6.29 33.74 8.16 62.33 55.71 79.74 80.14 13.02 18.27 34.11 29.06 56.54 29.06h209.55c5.15 0 9.32 4.17 9.32 9.32v36.63c0 5.18-4.2 9.39-9.39 9.39h-347.3c-5.26 0-9.5-4.33-9.38-9.59l2.82-148.67Z" style="fill:none"/></clipPath><clipPath id="d"><path d="M371.36 282.97c-74.88 59.45-73.3 199.61-73.3 199.61h92.52c0-98.22 2.47-146.08-10.76-196.79-.97-3.71-5.46-5.2-8.46-2.81Z" style="fill:none"/></clipPath><clipPath id="e"><path d="M490.57 584.23c0 31.52-.53 53.59 44.66 53.59h445.5c37.29 0 48.86-17.34 48.86-46.76V244.99c0-8.82-27.58-7.06-39.43 15.44-28.14 53.42-20.42 170.6-72.74 241.95-55.96 76.31-158.31 83.57-264.21 64.58-135.58-24.32-162.64.46-162.64 17.27Z" style="fill:none"/></clipPath><radialGradient id="a" cx="1326.87" cy="311.89" fx="1326.87" fy="311.89" r="165.36" gradientTransform="matrix(1 0 0 1.58 0 -181.67)" gradientUnits="userSpaceOnUse"><stop offset="0" stop-color="#e0deff"/><stop offset="1" stop-color="#aea3f7"/></radialGradient><radialGradient id="c" cx="204.59" cy="313.13" fx="204.59" fy="313.13" r="164.39" gradientTransform="matrix(1 0 0 1.55 0 -171.68)" xlink:href="#a"/></defs><path d="M1134.26 495.34h-38.55c-12.34 0-23.8-6.13-30.65-16.4a17.763 17.763 0 0 0-14.82-7.93h-34.95c-5.25 0-9.51-4.26-9.51-9.51s4.26-9.51 9.51-9.51h34.95c12.35 0 23.8 6.13 30.65 16.41 3.31 4.96 8.85 7.93 14.82 7.93h38.55c5.25 0 9.51 4.26 9.51 9.51s-4.26 9.51-9.51 9.51ZM1524.63 540.98c0 9.14-409.56 10.17-409.56 0s409.56-9.14 409.56 0Z" style="fill:#9397ba"/><path d="m1167.61 386.27-35.13 7.1a16.755 16.755 0 0 0-13.44 16.42v14.87c0 9.25 7.5 16.75 16.75 16.75h35.5" style="fill:none;stroke:#6e7191;stroke-linecap:round;stroke-linejoin:round;stroke-width:5.37px"/><circle cx="1154.6" cy="485.43" r="25.9" style="fill:#45425e"/><path d="M1424.67 54.85c74.19 73.2 78.77 236.07 72.39 421.62l-341.73.19c0-140.58-4.93-343.76 11.46-417 18.45-82.44 191.82-69.98 257.88-4.8Z" style="fill:#e7e2fe"/><path d="M1174.45 489.24h304.83V306.79c0-101.66-21.75-166.52-21.75-166.52-140.51-4.07-281.93-5.74-281.93-5.74l-1.14 354.71Z" style="fill:url(#a)"/><path d="M1175.59 134.53c7.9 8.24 218.48 16.14 281.93 5.74-140.51-4.07-281.93-5.74-281.93-5.74Z" style="fill:#968cf7"/><path d="M1275.42 436.65c-22.2 2.93-87.87 50.23-87.87 50.23h65.85l22.02-50.23ZM1407.47 456.78l-25.11 7.27 15 15.11 10.11-22.38zM1359.68 448.87l-29.71 12.89 21.7 12.67 8.01-25.56z" style="fill:#5d4dc4"/><path d="M1253.4 486.88c-3.9-75.5 57.25-55.64 93.1-18.7 9.75-34.48 36.4-20.28 50.86 1.2 10.67-32.59 31.52 8.08 31.52 8.08l-175.48 9.41Z" style="fill:#968cf7"/><path d="m1331.49 482.69-47.88 2.57c-8.19-43.14 38.33-30.58 47.88-2.57Z" style="fill:#5d4dc4"/><path d="M1403.62 72.96c9.61-6.27 46.66 40.71 37.56 47.27-9.1 6.56-47.17-41-37.56-47.27Z" style="fill:#f7f7f7"/><ellipse cx="1383.25" cy="51.08" rx="6.53" ry="9.47" transform="rotate(-48.68 1383.149 51.124)" style="fill:#f7f7f7"/><path d="M1475.87 521.09v9.89c0 5.27-4.27 9.54-9.54 9.54h-20.4c-5.27 0-9.54-4.27-9.54-9.54v-9.89h39.48ZM1215.99 521.09v9.89c0 5.27-4.27 9.54-9.54 9.54h-20.4c-5.27 0-9.54-4.27-9.54-9.54v-9.89h39.48Z" style="fill:#45425e"/><path d="M1145.48 367.23c.08-4.2 4.02-7.27 8.1-6.29 33.74 8.16 62.33 55.71 79.74 80.14 13.02 18.27 34.11 29.06 56.54 29.06h209.55c5.15 0 9.32 4.17 9.32 9.32v36.63c0 5.18-4.2 9.39-9.39 9.39h-347.3c-5.26 0-9.5-4.33-9.38-9.59l2.82-148.67Z" style="fill:#6af"/><g style="clip-path:url(#b)"><path d="M1142.07 494.7c134.94 0 135.43-6.07 164.69 36.67M1465.86 454.75v97.16" style="fill:none;stroke:#427ed6;stroke-miterlimit:10;stroke-width:4.43px"/><path d="M1467.69 489.14c5.43.12 9.8 4.55 9.8 10s-4.37 9.89-9.8 10v-20.01Z" style="fill:#427ed6"/></g><path d="M1153.57 360.94c32.16 6.45 55.56 42.47 73.31 67.67 4.79 6.8 9.16 14.04 15.14 19.85 2.94 2.87 6.05 5.58 9.46 7.88 10.16 7.02 22.23 11.16 34.56 11.89 7.08.28 17.97.08 25.24.17 51.25.07 136.41.37 186.91.7 5.77-.58 11.53 4.36 10.53 10.36-.79-5.19-5.36-8.8-10.53-8.27-50.16.36-135.94.6-186.91.7-7.51-.08-17.96.2-25.44-.07-12.99-.72-25.76-5.01-36.49-12.4-3.59-2.43-6.9-5.28-9.98-8.33-6.12-6.06-10.59-13.44-15.52-20.41-17.84-25.2-40.16-59.35-70.28-69.75Z" style="fill:#8fd4ff"/><circle cx="1177.9" cy="427.55" r="12.96" style="fill:none;stroke:#427ed6;stroke-miterlimit:10;stroke-width:4.43px"/><circle cx="1189.29" cy="465.15" r="7" style="fill:#f3ff73"/><circle cx="1212.09" cy="465.15" r="7" style="fill:#427ed6"/><path style="fill:none;stroke:#427ed6;stroke-linecap:round;stroke-miterlimit:10;stroke-width:4.43px" d="m1424.97 485.74 17.16 24.89M1407.81 485.74l17.16 24.89M1390.66 485.74l17.15 24.89M1373.5 485.74l17.16 24.89"/><circle cx="1426.8" cy="207.69" r="5.93" style="fill:#e2dcfe"/><circle cx="1249.07" cy="281.55" r="5.93" style="fill:#e2dcfe"/><circle cx="1442.06" cy="341.64" r="5.93" style="fill:#e2dcfe"/><circle cx="1239.51" cy="174.62" r="5.13" style="fill:#e2dcfe"/><path d="M1376.67 244.39c-2.83 0-5.13-2.3-5.13-5.13s2.3-5.13 5.13-5.13 5.13 2.3 5.13 5.13-2.3 5.13-5.13 5.13Z" style="fill:#e2dcfe"/><circle cx="1215.04" cy="194.05" r="7.29" style="fill:#e2dcfe"/><circle cx="1391.98" cy="177.94" r="7.29" style="fill:#e2dcfe"/><circle cx="1202.92" cy="331.29" r="7.29" style="fill:#e2dcfe"/><path d="M416.35 480.38h-36.43c-5.25 0-9.51-4.26-9.51-9.51s4.26-9.51 9.51-9.51h36.43c6.25 0 12.26-2.65 16.47-7.26 7.81-8.56 18.94-13.46 30.52-13.46h36.43c5.25 0 9.51 4.26 9.51 9.51s-4.26 9.51-9.51 9.51h-36.43a22.34 22.34 0 0 0-16.47 7.27c-7.81 8.56-18.94 13.46-30.52 13.46Z" style="fill:#9397ba"/><path d="m497.99 392.88-17.03 17.74a21.18 21.18 0 0 0-5.9 14.68v49.33c0 5.78 2.36 11.3 6.53 15.3L498 505.65V392.88Z" style="fill:#45425e"/><path d="M408.61 544.12c0 9.12-408.61 10.15-408.61 0s408.61-9.12 408.61 0Z" style="fill:#9397ba"/><path d="M377.86 482.57H27.41c0-138.25 1.45-303.35 44.43-377.1 74.27-127.45 244.88-163.54 291.25 29.27 16.26 67.62 17.2 227.9 14.76 347.82Z" style="fill:#e7e2fe"/><path d="M45.41 482.58h317.93C366.94 226.21 347 147.67 347 147.67s-154.95-7.52-274.33-1.9C44.76 230 45.41 360.76 45.41 482.57Z" style="fill:url(#c)"/><path d="M72.67 145.78c82.54 17.5 274.33 1.9 274.33 1.9s-154.95-7.52-274.33-1.9Z" style="fill:#968cf7"/><path d="m369.12 315.82 38.87 7.5c6.7 1.29 11.54 7.16 11.54 13.98v33.36c0 5.86-3.59 11.12-9.05 13.26l-36.18 14.15" style="fill:none;stroke:#6e7191;stroke-linecap:round;stroke-linejoin:round;stroke-width:5.37px"/><circle cx="64.63" cy="527.75" r="15.63" style="fill:#3a3c54"/><path d="M383.47 434.74c42.33 34.41 4.34 68.82 4.34 68.82l-4.34-68.82Z" style="fill:#3a3c54"/><circle cx="345.1" cy="527.75" r="15.63" style="fill:#3a3c54"/><path d="M323.12 120.97c10.29-2.18-21.66-57.81-32.41-56.36-10.76 1.45 22.12 58.54 32.41 56.36Z" style="fill:#f7f7f7"/><ellipse cx="278.22" cy="49.74" rx="5.51" ry="8" transform="rotate(-39.65 278.232 49.735)" style="fill:#f7f7f7"/><path d="M143.95 445.59c-25.71 2.62-57.25 31.05-57.25 31.05l24.99 10.2 32.26-41.25ZM75.58 466.57c-20.9 4.13-45.03 21.78-45.03 21.78l30.47 1.49 14.56-23.27ZM222.33 461.57l-39.4 9.13 26.62 15.84 12.78-24.97z" style="fill:#5d4dc4"/><path d="M54.67 489.84c6.34-33.29 49.09-28.58 53.81-7.94 9.91-48.03 66.92-48.62 94.88-4.17 4.72-22.08 49.17-26.26 74.58 8.81 25.41 35.06-223.27 3.3-223.27 3.3Z" style="fill:#968cf7"/><path d="M189.08 487.52c-33.58-38.51-60.01-20.77-51.19 0 8.83 20.77 51.19 0 51.19 0Z" style="fill:none;stroke:#5d4dc4;stroke-miterlimit:10;stroke-width:4.35px"/><path d="M218.15 485.21c1.23-19.14 26.37-17.34 36.04 0 9.66 17.34-36.04 0-36.04 0Z" style="fill:#5d4dc4"/><rect x="18.55" y="477.22" width="372.03" height="51.93" rx="6.58" ry="6.58" style="fill:#ff8645"/><path d="M371.36 283.16c-74.88 53.77-73.3 199.41-73.3 199.41h92.52c0-88.84 2.47-150.99-10.76-196.86-.97-3.36-5.46-4.7-8.46-2.55Z" style="fill:#ff8645"/><circle cx="361.05" cy="451.52" r="9.66" style="fill:#d6502b"/><circle cx="331.78" cy="451.52" r="6.52" style="fill:#f3ff73"/><path style="fill:none;stroke:#d6502b;stroke-miterlimit:10;stroke-width:4.43px" d="M390.57 497.73H18.55"/><path d="M204.5 497.21c0 .17.03.34.03.52 0 5.84-4.73 10.57-10.57 10.57s-10.57-4.73-10.57-10.57c0-.18.02-.35.03-.52h21.08ZM172.75 497.21c0 .17.03.34.03.52 0 5.84-4.73 10.57-10.57 10.57s-10.57-4.73-10.57-10.57c0-.18.02-.35.03-.52h21.08ZM141.01 497.21c0 .17.03.34.03.52 0 5.84-4.73 10.57-10.57 10.57s-10.57-4.73-10.57-10.57c0-.18.02-.35.03-.52h21.08ZM109.26 497.21c0 .17.03.34.03.52 0 5.84-4.73 10.57-10.57 10.57s-10.57-4.73-10.57-10.57c0-.18.02-.35.03-.52h21.08Z" style="fill:#d6502b"/><g style="clip-path:url(#d)"><path d="M388.45 337.64c-36.52 5.99-7.17 93.82-88.81 63.94" style="fill:none;stroke:#d6502b;stroke-miterlimit:10;stroke-width:4.43px"/></g><path d="M371.68 283.07c-40.14 36.82-59.94 88.18-68.11 141.07-2.8 18.24-4.3 36.73-3.68 55.13h-2.11c-76.72.01-170.97-.43-247.56-.94-4.46-.04-20.43-.11-24.87-.15-3.27.13-6.28 2.18-6.81 5.62-1.03-4.26 3.29-7.69 7.3-7.53 14.68-.09 44.65-.27 59.68-.36 63.03-.42 149.23-.74 212.26-.73 0 0-2.05 2.12-2.04 2.12-.69-18.02.77-36.04 3.53-53.83 7.78-49.2 29.58-111.42 72.41-140.4Z" style="fill:#ffc6ad"/><circle cx="280.49" cy="266.23" r="5.47" style="fill:#e2dcfe"/><circle cx="106.13" cy="406.47" r="5.47" style="fill:#e2dcfe"/><circle cx="90.03" cy="205.58" r="5.47" style="fill:#e2dcfe"/><circle cx="310.34" cy="287.55" r="7.84" style="fill:#e2dcfe"/><circle cx="273.13" cy="421.41" r="6.63" style="fill:#e2dcfe"/><circle cx="132.41" cy="189.73" r="7.11" style="fill:#e2dcfe"/><circle cx="124.83" cy="259.85" r="7.11" style="fill:#e2dcfe"/><circle cx="314.35" cy="197.31" r="7.11" style="fill:#e2dcfe"/><circle cx="252.75" cy="195.42" r="7.11" style="fill:#e2dcfe"/><path d="M929.78 45.47H573.91c-52.94 0-75.49 14.71-75.49 79.41v456.46h519.59V127.82c0-65.68-31.37-82.35-88.23-82.35Z" style="fill:#e7e2fe"/><path d="M880.89 65.88c-.8 10.63 59.15 11.33 60.82 2.76 1.67-8.58-60.02-13.39-60.82-2.76Z" style="fill:#f7f7f7"/><ellipse cx="973.96" cy="82.37" rx="10.41" ry="14.36" transform="rotate(-51.19 973.939 82.38)" style="fill:#f7f7f7"/><path d="M1001.37 134.5v446.84H515.93V139.62c0-2.8 2.32-5.03 5.11-4.92 10.92.41 38.55 1.38 75.01 2.16 6.13.13 12.51.26 19.1.38 9.99.18 20.45.34 31.27.46h.01c61.7.72 134.96.41 195.65-3.19 132.92-7.89 159.28 0 159.28 0Z" style="fill:#968cf7"/><path d="M1001.37 134.5c-143.08 17.07-352.89 3.33-354.93 3.19 61.7.72 134.96.41 195.65-3.19 132.92-7.89 159.28 0 159.28 0Z" style="fill:#b8aeff"/><path d="M615.15 137.23c-6.59-.12-12.97-.24-19.1-.38 1.08-4.25 4.93-7.38 9.51-7.38s8.65 3.32 9.6 7.76Z" style="fill:#c5bdff"/><path d="M988.76 471.46s-10.58 45.68-50.07 76.61c-15.47 12.12-35.37 21.97-60.81 25.92-.27.04-.55.09-.83.13-28.6 4.34-74.79 6.03-124.72 6.29-24.84.13-50.61-.09-75.59-.51-84.91-1.43-160.8-5.14-160.8-5.14V548.5s8.68-23.5 42.37-7.43c0 0 35.84-16.31 77.11 16.23 0 0 20.5-24.47 47.24.74 17.7-1.16 33.06-3.78 46.79-7.43 21.66-5.75 39.28-14.04 55.68-23.15 16.24-9.02 31.27-18.83 47.8-27.76 35.76-19.3 78.54-34.43 155.84-28.27Z" style="fill:#5d4dc4"/><path d="M938.69 548.07c-15.47 12.12-35.37 21.97-60.81 25.92-.27.04-.55.09-.83.13-42.85 0-47.97-45.8-91.92-46.64 16.24-9.02 31.27-18.83 47.8-27.76 32.42 3.64 83.68 14.72 105.77 48.35Z" style="fill:#7160e0"/><path d="M752.32 580.41c-24.84.13-50.61-.09-75.59-.51 5.7-7.12 10.63-16.03 5.92-21.85 17.7-1.16 33.06-3.78 46.79-7.43 8.05 6.28 17.25 15.92 22.87 29.78Z" style="fill:#3f328f"/><circle cx="660.19" cy="505.88" r="5.64" style="fill:#c5bdff"/><circle cx="840.02" cy="229.45" r="7.34" style="fill:#c5bdff"/><circle cx="734.75" cy="236.39" r="5.48" style="fill:#c5bdff"/><circle cx="768.38" cy="191.07" r="4.02" style="fill:#c5bdff"/><circle cx="643.02" cy="274.42" r="7.88" style="fill:#c5bdff"/><circle cx="878.31" cy="356.99" r="7.32" style="fill:#c5bdff"/><circle cx="805.66" cy="280.98" r="4.79" style="fill:#c5bdff"/><circle cx="925.54" cy="196.92" r="5.48" style="fill:#c5bdff"/><circle cx="562.05" cy="189.88" r="7.31" style="fill:#c5bdff"/><circle cx="542.61" cy="401.28" r="4.89" style="fill:#c5bdff"/><circle cx="579.9" cy="426.38" r="6.5" style="fill:#c5bdff"/><circle cx="735.86" cy="429.12" r="4.58" style="fill:#c5bdff"/><circle cx="725.43" cy="524.77" r="5.85" style="fill:#c5bdff"/><circle cx="684" cy="200.36" r="5.27" style="fill:#c5bdff"/><circle cx="603" cy="271.74" r="4.96" style="fill:#c5bdff"/><path d="M686.56 490.87c-41.07-27.99-32.89-65.02-32.89-65.02-112.2-16.82-93.25-70.61-60.74-67.12-72.98-39.61-56.17-53.22-34.42-43.61.82.37 1.59-.61 1.01-1.31-22.89-28-11.68-37.06-1.82-29.72 4.24 3.14 8.23 9.32 9.14 18.33 13.03-6.61 23.95-8.24 31.2-4.97 10.12 4.57 13.09 18.71 4.57 42.17 2.18-.58 4.31-.99 6.38-1.26 19.49-2.54 34.15 7.84 40.27 21.8 4.93 11.24 4.32 24.81-3.78 35.86 31.55 6.59 33.45 23.52 21.27 29.84 25.01 14.64 24.92 48.32 19.8 65.02Z" style="fill:#b8aeff"/><path d="M649.27 360.16c-4.91 1.47-10.64 1.78-16.53.65-13.78-2.66-23.73-12.35-23.74-22.45 19.49-2.54 34.15 7.84 40.27 21.8ZM598.04 297.45c-1.92 7.82-11.23 13.73-22.42 13.73-12.6 0-22.81-7.5-22.81-16.75 0-3.91 1.83-7.5 4.88-10.34 4.24 3.14 8.23 9.32 9.14 18.33 13.03-6.61 23.95-8.24 31.2-4.97Z" style="fill:#e2dcfe"/><path d="M700.44 578.3c-21.98-152.91-16.07-120.27-131.08-269.15" style="fill:none;stroke:#5d4dc4;stroke-linecap:round;stroke-miterlimit:10;stroke-width:4.83px"/><path d="M708.45 475.93s-19.71-19.76-7.54-34.51c0 0-30.66-34.65-13.93-88.31 0 0-22.39-12.31-9.62-53.91 1.93-6.27 4.66-13.22 8.38-20.88 9.03 15.47 17.11 24.38 19.52 37.13 1.53 8.07.79 17.66-3.41 31.41-.58 1.92-1.23 3.92-1.96 6.01 5.16 10.52 8.79 22.11 11.21 33.95 6.92 33.92 3.78 69.97-2.64 89.11Z" style="fill:#b8aeff"/><path d="M705.26 315.45c-3.99-.26-8.18-1.26-12.27-3.06-6.97-3.05-12.41-7.85-15.62-13.19 1.93-6.27 4.66-13.22 8.38-20.88 9.03 15.47 17.11 24.38 19.52 37.13ZM711.09 386.81c-3.82-1.4-7.62-3.79-10.94-7.11-9.35-9.35-11.35-22.47-4.5-29.34 1.72-1.72 3.83-2.88 6.19-3.51-.58 1.92-1.23 3.92-1.96 6.01 5.16 10.52 8.79 22.11 11.21 33.95Z" style="fill:#e2dcfe"/><path d="M686.3 290.89c21.2 160.79 30.08 287.81 30.08 287.81" style="fill:none;stroke:#5d4dc4;stroke-linecap:round;stroke-miterlimit:10;stroke-width:4.83px"/><ellipse cx="962.45" cy="251.08" rx="17.14" ry="14.64" transform="rotate(-7.69 962.843 251.165)" style="fill:#3f328f"/><path d="M930.18 345.39c-21.74 4.49-42.51-6.71-46.44-25.26-3.93-18.55 10.49-37.32 32.21-41.92 21.72-4.6 43.5 9.73 47.61 28.24 5.13 23.14-6.58 33.4-33.38 38.94Z" style="fill:#3f328f"/><path d="M996.61 275.83c-4.94-37.34-31.51-29.77-34.55-12.23-28.48-10.96-58.4 31.97-8.73 71.54-82.97-16.59-75.45 74.74-25.93 84.29-27.43 10.55-27.93 50.31 23.02 53.77 50.95 3.46 46.2-197.38 46.2-197.38Z" style="fill:#5d4dc4"/><path d="M959.12 260.66c20.32 6.77 26.86 32.02 26.86 32.02M943.03 331.46c15.22 4.45 33.15 21.42 33.15 21.42M927.4 419.44c18.67-8.24 37.35 2.25 37.35 2.25" style="fill:none;stroke:#3f328f;stroke-linecap:round;stroke-miterlimit:10;stroke-width:3.9px"/><ellipse cx="913.44" cy="381.38" rx="11.21" ry="14.22" transform="rotate(-8.42 913.28 381.306)" style="fill:#281f70"/><ellipse cx="926.98" cy="345.93" rx="10.42" ry="5.4" transform="rotate(-15.78 926.965 345.933)" style="fill:#281f70"/><ellipse cx="948.71" cy="280.62" rx="12.92" ry="8.94" transform="rotate(-20.96 948.472 280.586)" style="fill:#281f70"/><ellipse cx="948.08" cy="313.99" rx="5.14" ry="7.43" transform="rotate(-45 948.08 313.992)" style="fill:#281f70"/><ellipse cx="938.16" cy="364.55" rx="5.18" ry="6.07" transform="rotate(-80.12 938.162 364.554)" style="fill:#281f70"/><ellipse cx="930.08" cy="436.18" rx="11.7" ry="9.99" transform="rotate(-30.46 930.205 436.216)" style="fill:#281f70"/><ellipse cx="903.37" cy="307.51" rx="17.27" ry="11.03" transform="rotate(-59.59 903.393 307.505)" style="fill:#181345"/><ellipse cx="921.18" cy="322.52" rx="6.29" ry="4.62" transform="rotate(-25.77 921.165 322.507)" style="fill:#5d4dc4"/><ellipse cx="967.06" cy="301.11" rx="4.69" ry="6.39" transform="rotate(-56.77 967.117 301.103)" style="fill:#8d7cf7"/><ellipse cx="942.84" cy="393.52" rx="12.79" ry="9.39" transform="rotate(-24.15 942.95 393.544)" style="fill:#8d7cf7"/><path d="M605.29 524.69c16.09.24 22.96 8.83 22.96 8.83l-17.45 30.49-16.74-2.8 11.23-36.51Z" style="fill:#281f70"/><path d="M641.13 485.58s-.39.41-1.11 1.22h-.01c-2.26 2.53-7.74 8.91-14.57 18.65-2.13 3.02-4.39 6.39-6.73 10.05l-.02.02c-7.06 11.1-16.32 31.1-23.21 47.47l-11.35-2.62s6.73-20.55 16.67-52.84c.88-2.83 1.77-5.77 2.7-8.84 2.3-7.59 4.78-15.91 7.42-24.94 0 0 27.19-2.8 30.22 11.81Z" style="fill:#5d4dc4"/><path d="M641.13 485.58c-.34.47-.71.88-1.11 1.22h-.01c-6.78 5.72-22.08-6.56-29.1-13.04 0 0 27.19-2.8 30.22 11.81Z" style="fill:#281f70"/><path d="M625.43 505.46c-2.13 3.02-4.39 6.39-6.73 10.05l-.02.02s-8.46 1.57-17.9-7.98c.88-2.83 1.77-5.77 2.7-8.84 3.88 3.14 10.93 7.01 21.94 6.74ZM560.83 563.96l-10.63-.25s-2.28-22.12-21.44-41.74a81.563 81.563 0 0 0-7.61-6.88s-2.8-7.07 15.52-18.57c0 0 3.89 4.6 8.57 13 6.44 11.59 14.37 30.42 15.6 54.44Z" style="fill:#3f328f"/><path d="M545.23 509.51c-4.98 7.75-16.47 12.45-16.47 12.45a81.563 81.563 0 0 0-7.61-6.88s-2.8-7.07 15.52-18.57c0 0 3.89 4.6 8.57 13Z" style="fill:#5d4dc4"/><path d="M665.41 537.39c-8.14 1.93-14.96 4.14-20.67 6.44-4.57 1.84-8.44 3.74-11.68 5.61-13.07 7.5-16.24 14.37-16.24 14.37l-14.51 4.42c5.76-14.22 12.85-25.02 19.65-33.07a99.55 99.55 0 0 1 9.84-10.15c8.35-7.45 14.61-10.33 14.61-10.33 20.07 11.24 18.99 22.7 18.99 22.7ZM631 454.65c-.29.33-.58.67-.87 1.02-7 8.13-13.09 16.72-18.36 25.38-2.99 4.9-5.71 9.82-8.2 14.68-18.46 36.1-23.76 69.23-23.76 69.23l-10.97-1.86c6.48-28.97 11.45-55.5 14.98-76.11a1851.1 1851.1 0 0 0 2.96-17.87c2.49-15.68 3.7-25 3.7-25 23.11-4.76 40.52 10.54 40.52 10.54Z" style="fill:#3f328f"/><path d="M574.64 496.84c1.32 18.99 1.03 41.49-2.86 66.17l-15.05-1.78s0-30.18-9.69-63.54c-1.22-4.22-2.61-8.49-4.16-12.76-2.92-8.01-6.46-15.99-10.74-23.61 0 0-6.03-9.19 31.09-25.54 0 0 6.26 16.86 9.79 44.5.66 5.15 1.22 10.69 1.62 16.55Z" style="fill:#5d4dc4"/><path d="M630.13 455.67c-5.6 1.45-32.42-1.08-39.65-11.56 23.11-4.76 40.52 10.54 40.52 10.54.4.43.05.78-.87 1.02ZM665.41 537.39s-13.36-4.6-18.99-22.7c20.07 11.24 18.99 22.7 18.99 22.7Z" style="fill:#281f70"/><path d="M563.79 435.61c8.19 23.23 12.88 47.74 13.81 72.36.08 3.54.14 7.04-.04 10.65l-4.42-.13c-.25-13.82-1.35-27.7-3.05-41.43-1.7-13.84-4.28-27.51-7.43-41.11l1.13-.34Z" style="fill:#3f328f"/><path d="M563.23 435.78c-.28 14.15-24.61 32.16-31.09 25.54 0 0-6.03-9.19 31.09-25.54ZM611.78 481.02v.02c-2.99 4.9-5.72 9.82-8.21 14.68-8.89-1.5-15.58-5.5-19.75-8.75a1851.1 1851.1 0 0 0 2.96-17.87c10.16 10.43 25 11.91 25 11.91ZM644.83 543.22l-.09.61c-4.57 1.84-8.44 3.74-11.68 5.61-5.22-3.36-8.84-9.37-11.09-14.27a99.55 99.55 0 0 1 9.84-10.15c3.39 13.29 13.02 18.2 13.02 18.2Z" style="fill:#281f70"/><path d="M574.64 496.84s-15.7 5.56-27.61.85c-1.22-4.22-2.61-8.49-4.16-12.76 9.43 5.9 30.15-4.64 30.15-4.64.66 5.15 1.22 10.69 1.62 16.55Z" style="fill:#3f328f"/><path d="m601.38 524.31-7.51 17.9-5.36 12.77-2.27 5.41-15.16-1.67c-.08-2.82-.26-5.95-.48-9.23-.33-4.75-.78-9.8-1.24-14.59-1.17-11.86-2.48-22.08-2.48-22.08 20.17-.64 34.51 11.49 34.51 11.49Z" style="fill:#8d7cf7"/><path d="M601.38 524.31s-21.31-1.46-34.51-11.49c20.17-.64 34.51 11.49 34.51 11.49Z" style="fill:#3f328f"/><path d="m593.87 542.21-5.36 12.77c-6.85.04-13.23-2.71-17.92-5.49-.33-4.75-.78-9.8-1.24-14.59 9.12 6.36 18.32 7.5 24.52 7.31Z" style="fill:#b8aeff"/><path d="M640.97 486c-15.49 20.7-28.35 43.17-39.57 66.44l-1.22-.44c5.71-18.79 15.49-36.17 27.12-51.91 3.88-5.26 8.17-10.22 12.68-14.93l.99.84Z" style="fill:#281f70"/><path d="M798.03 345.88c1.72 29.25 3.6 58.7 10.35 87.23 1.46 5.46 3.32 11.98 5.57 17.12 3.08 7.6 7.73 14.61 13.93 20.06 3.51 3.18 7.49 6.14 11.21 9.66 3.74 3.49 7.04 7.56 9.74 11.9 7.97 12.89 11.85 27.83 14.98 42.39 2.12 9.68 3.55 19.47 4.99 29.26l-5.64.75c-.72-4.83-1.35-9.68-2.15-14.49-2.43-14.28-5.28-28.82-10.5-42.28-3.51-8.82-8.14-17.13-15.13-23.62-7.2-6.56-15.87-12.62-21.05-21.36l-1.97-3.31c-.53-1.17-2.03-4-2.53-5.15-.48-1.17-1.65-4.08-2.14-5.28-1.53-4.14-3.22-10.07-4.34-14.39-6.76-28.95-8.56-58.71-10.19-88.23l4.87-.24Z" style="fill:#3f328f"/><path d="M815.45 320.81c6.75 82.23 10.32 95.33-11.45 104.67M771.31 334.21c4.92 35.02 13.79 41.8 25.8 42.25" style="fill:none;stroke:#3f328f;stroke-miterlimit:10;stroke-width:4.88px"/><path d="M836.16 336.79c1.45 34.96 2.69 47.63-15.69 48.94M845.41 380.72c-.77 42.72 6.89 46.61 17.08 51.21" style="fill:none;stroke:#3f328f;stroke-miterlimit:10;stroke-width:4.88px"/><path d="M862.29 394.82c7.98 51.79-9.82 52.68-26.2 56.91l-1.89 27.43M808.58 443.36c-43.36-6.57-14.91-60.05-62.91-53.9M758.96 361.27l6.5 30.73M850.5 500.51c-39.05.16-39.84-10.82-61.82-47.25" style="fill:none;stroke:#3f328f;stroke-miterlimit:10;stroke-width:4.88px"/><path d="M857.4 521.54c15.64-7.2 22.58-20.42 25.01-36.99 2.29-13.91 2.82-34.66 3.77-48.96l4.87.29c-.88 14.77-1.2 35.01-3.46 49.51-1.33 8.42-3.54 16.91-8.18 24.25-4.58 7.46-11.79 13.15-19.55 16.94l-2.47-5.04Z" style="fill:#3f328f"/><path d="M869.79 450.65c-2.44 31.6 4.5 33.87 14.46 38.56" style="fill:none;stroke:#3f328f;stroke-miterlimit:10;stroke-width:4.88px"/><path d="M847.71 562.7c-5.71-31.05-58.38-26.62-84.93-62.04-3.29-4.32-6.06-9-8.38-13.88l4.42-2.07c4.4 9.12 10.61 17.29 18.53 23.63 11.87 9.77 26.72 15.38 40.98 21.15 9.93 4.17 20.26 8.43 27.78 16.75 3.8 4.29 6.46 9.71 7.55 15.31l-5.94 1.15Z" style="fill:#3f328f"/><path d="M755.64 449.79c32.37 42.09 38.59 50.01 26.42 65.31" style="fill:none;stroke:#3f328f;stroke-miterlimit:10;stroke-width:4.88px"/><path d="M829.71 537.96c-13.73 22.99-32.45 15.55-50.58 2.91-5.09-3.47-9.99-7.1-14.95-10.54l2.75-4.03c5.09 3.43 10.03 6.99 15.05 10.31 15.45 10.17 31.32 18.5 42.67-1.64l5.06 2.98Z" style="fill:#3f328f"/><ellipse cx="764.33" cy="450.49" rx="22.29" ry="4.54" transform="rotate(-23.33 764.455 450.532)" style="fill:#e2dcfe"/><ellipse cx="768.53" cy="483.82" rx="25.93" ry="5.29" transform="rotate(-18.1 768.513 483.813)" style="fill:#e2dcfe"/><ellipse cx="765.65" cy="506.59" rx="18.22" ry="3.71" transform="rotate(-17.18 765.69 506.624)" style="fill:#b8aeff"/><ellipse cx="768" cy="531.01" rx="13.87" ry="4.64" transform="rotate(-22.54 767.955 530.987)" style="fill:#e2dcfe"/><ellipse cx="877.26" cy="395.41" rx="23.62" ry="4.82" transform="rotate(-2.86 876.187 395.051)" style="fill:#e2dcfe"/><ellipse cx="852.85" cy="380.35" rx="13.26" ry="4.52" transform="rotate(-2.86 851.71 380.01)" style="fill:#b8aeff"/><ellipse cx="846.31" cy="336.28" rx="18.16" ry="3.7" transform="rotate(-2.86 845.194 335.956)" style="fill:#e2dcfe"/><ellipse cx="811.78" cy="321.07" rx="18.63" ry="3.8" transform="rotate(-2.86 810.703 320.665)" style="fill:#b8aeff"/><ellipse cx="771.52" cy="335.28" rx="17.2" ry="3.51" transform="rotate(-7.37 771.08 335.138)" style="fill:#e2dcfe"/><ellipse cx="801.45" cy="348.16" rx="15.43" ry="5.21" transform="rotate(-2.86 800.409 347.665)" style="fill:#e2dcfe"/><ellipse cx="753.94" cy="362.9" rx="18.49" ry="3.77" transform="rotate(-10.24 754.27 363.017)" style="fill:#b8aeff"/><ellipse cx="747.19" cy="390.11" rx="14.08" ry="3.87" transform="rotate(-72.18 747.17 390.112)" style="fill:#e2dcfe"/><ellipse cx="781.66" cy="402.42" rx="16.97" ry="5.61" transform="rotate(-14.11 781.63 402.414)" style="fill:#e2dcfe"/><ellipse cx="826.97" cy="403.08" rx="5.12" ry="15.77" transform="rotate(-86.59 826.967 403.082)" style="fill:#b8aeff"/><ellipse cx="813.41" cy="461.61" rx="20.66" ry="4.21" transform="rotate(-17.92 813.497 461.652)" style="fill:#b8aeff"/><ellipse cx="789.95" cy="453.92" rx="13.22" ry="4.21" transform="rotate(-18.03 790.038 453.953)" style="fill:#e2dcfe"/><ellipse cx="817.9" cy="521.8" rx="20.06" ry="6.46" transform="rotate(-27.52 817.823 521.768)" style="fill:#b8aeff"/><ellipse cx="847.55" cy="481.41" rx="22.66" ry="4.62" transform="rotate(-20.11 847.393 481.357)" style="fill:#e2dcfe"/><ellipse cx="900.49" cy="433.31" rx="23.27" ry="4.74" transform="rotate(-2.86 899.297 432.705)" style="fill:#e2dcfe"/><ellipse cx="875.56" cy="451.95" rx="4.42" ry="14.94" transform="rotate(-84.62 875.578 451.944)" style="fill:#b8aeff"/><path d="M1338.15 268.91c24.86 11.03 25.9 48.38 47.15 91.9 10.6 21.7 27.64 36.48 27.35 38.41-.29 1.93-27.39-9.56-46.84-34.32-20.79-26.45-44.15-57.67-44.21-80.69-.05-23.02 16.55-15.3 16.55-15.3Z" style="fill:#8747cc"/><ellipse cx="1391.28" cy="387.03" rx="2.76" ry="7.04" transform="rotate(-53.63 1391.215 387.042)"/><ellipse cx="1370.67" cy="367" rx="3.82" ry="9.74" transform="rotate(-39.23 1370.63 366.996)"/><ellipse cx="1350.44" cy="339.72" rx="4.19" ry="12.7" transform="rotate(-34.1 1350.437 339.726)"/><path d="M1297.37 298.14c24.17 69.08-1.7 116.46-6.75 126.54-5.05 10.09 62.19-37.67 42.28-125.69-9.73-43.02-45.12-28.28-35.53-.85Z" style="fill:#8747cc"/><ellipse cx="1320.24" cy="345.37" rx="9.26" ry="6.19" transform="rotate(-87 1320.224 345.382)"/><ellipse cx="1316.35" cy="376.09" rx="7.73" ry="5.22" transform="rotate(-79.08 1316.35 376.093)"/><ellipse cx="1306.71" cy="400.8" rx="5.35" ry="3.61" transform="rotate(-66.4 1306.764 400.783)"/><path d="m1400.756 334.014 6.052-20.63 10.248 3.006-6.052 20.63z"/><ellipse cx="1422.88" cy="278.15" rx="40.8" ry="45.87" transform="rotate(-81.45 1422.952 278.11)" style="fill:#427ed6"/><ellipse cx="1422.88" cy="278.15" rx="33.61" ry="37.78" transform="rotate(-69.47 1422.816 278.175)" style="fill:#e2dcfe"/><ellipse cx="1447.7" cy="275.46" rx="5.38" ry="9.27" transform="rotate(-12.89 1448.215 275.483)" style="fill:#f7f7f7"/><rect x="1384.92" y="331.06" width="23.03" height="74.03" rx="11.52" ry="11.52" transform="rotate(16.35 1396.784 368.215)" style="fill:#427ed6"/><path transform="rotate(-73.65 1402.68 346.564)" style="fill:#6af" d="M1401.05 335.01h3.43v23.03h-3.43z"/><path transform="rotate(-73.65 1390.032 389.65)" style="fill:#6af" d="M1388.4 378.1h3.43v23.03h-3.43z"/><path d="M1341.84 276.38c15.84 14.24 16.32 56.07 26.36 79.27 6.99 16.14 19.95 23.32 43.35 4.4 1.58-1.28 3.74.68 2.61 2.38-32.11 48.44-56.31 25-70.8 5.32-14.07-19.1-25.75-46.55-29.65-82.06-2.37-21.59 12.32-23.52 28.13-9.3Z" style="fill:#bc83fb"/><path d="M1280.03 290.6c-7.74 60.54-45.34 86.84-53.89 90.82-.59.27-.39 1.15.26 1.17 43.13 1.21 65.63-33.82 82.4-79.92 15.64-43-24.37-46.47-28.76-12.07Z" style="fill:#8747cc"/><path d="M1285.94 332.99c-3.14 7.24-9.71 9.77-11.82 4.55-2.11-5.22 1.82-14.27 7.07-16.3s7.89 4.5 4.75 11.74ZM1270.11 360.07c-4.14 5.01-9.92 5.51-10.39.9-.47-4.61 4.7-10.87 9.32-11.27 4.62-.4 5.21 5.36 1.07 10.37ZM1249.97 376.43c-3.62 1.8-7.02.63-6.13-2.11s5.41-4.99 8.14-4.05 1.61 4.36-2.01 6.16Z"/><path d="M1302.54 261.75c-45.29 23.98-2.51 121.05-62.43 163.21-4.29 3.02 7.85 3.03 25.3-11.9 17.45-14.93 57.84-70.48 53.21-143.3-1.24-19.45-16.09-8.02-16.09-8.02Z" style="fill:#bc83fb"/><path d="M1315.9 155.01c28.66 28.69 47.24 36.97 27.28 68.02-10.18-16.9-27.28-68.02-27.28-68.02ZM1312.57 156.09c-32.74 32.93-46.06 43.22-22.85 66.94 10.18-18.43 22.85-66.94 22.85-66.94Z" style="fill:#8747cc"/><path d="M1345.84 262.68c-13.66 25.18-46.5 21.68-59.48 1.19-19.05-30.07 8.66-67.64 19.14-91.23l.02-.04c2.98-6.73 5.56-13.38 7.17-19.99.46-1.91 3.12-1.91 3.6-.01 8.75 34.49 51.33 69.92 29.54 110.08Z" style="fill:#bc83fb"/><path d="M1341.85 268.69c-6.11 13.74-26.31 17.8-38.15 9.27 3.52.74 6.92.95 10.32.9 10.32.02 19.97-3.28 27.82-10.17Z" style="fill:#8747cc"/><path d="M1311.85 259.33c1.32 4.15 9 4.3 10.08-.08.35-1.33 2.37-.94 2.22.42-.31 5.69-7.88 7.37-11.99 4.43-1.43-.71-4.2-5.08-1.55-5.64.58-.05 1.09.33 1.24.87Z"/><path d="M1282.52 337.74c41.64 15.34 73.24-2.35 73.24-2.35l-22.14-51.87c-12.14 2.34-20.93 2.12-33.83 0l-17.27 54.21Z" style="fill:#f7f7f7"/><ellipse cx="1317.84" cy="296.02" rx="7.2" ry="6.43" transform="rotate(-19.02 1317.893 296.014)" style="fill:#6af"/><path d="M1291.24 269.98c3.34 5.88 11.38 9.28 17.48 11.09 4.3 1.28 6.93 5.59 6.02 9.98-8.2 39.65-15.12 57-15.12 57-31.63 2.97-45.47-22.74-45.47-22.74 24.93-20.14 23.82-48.65 35.46-55.75.56-.34 1.3-.16 1.63.41ZM1341.13 269.71c-3.09 5.76-9.27 9.45-14.02 11.55-3.67 1.63-5.71 5.6-4.93 9.54 8 40.22 12.47 56.99 12.47 56.99 31.63 2.97 43.56-22.74 43.56-22.74-12.49-32.67-23.12-49.47-35.51-55.83-.56-.29-1.27-.08-1.56.48Z" style="fill:#211d45"/><path d="M1346.09 272.81c-1.92 13.42-18.21 33.55-18.21 33.55M1287.2 273.94c6.71 23.96 22.05 31.63 22.05 31.63M1278.37 340.64c16.81-24.71 1.98-34.6-16.81-11.86M1352.99 340.38c-14.17-34.81 9.88-31.63 18.78-11.86" style="fill:none;stroke:#000;stroke-linecap:round;stroke-miterlimit:10;stroke-width:3px"/><path d="m1315.21 301.98-4.55 37.21c-.09.74.11 1.48.55 2.08l5.84 7.8c1.19 1.59 3.6 1.53 4.71-.13l5.1-7.64c.41-.61.57-1.36.44-2.09l-6.39-37.36a2.885 2.885 0 0 0-2.84-2.4c-1.46 0-2.69 1.09-2.86 2.53Z" style="fill:#6af"/><ellipse cx="1333" cy="247.03" rx="14.65" ry="11.24" transform="rotate(-6.9 1333.398 247.113)" style="fill:#e2dcfe;opacity:.5"/><path style="fill:none;stroke:#565191;stroke-linecap:round;stroke-miterlimit:10;stroke-width:3px" d="M1347.85 246.35h6.93"/><path d="M1320.64 251.94c.8-7.55 10.98-10.94 16.6-6.08 1.72 1.08 5.1 7.11 1.95 7.68-.66.06-1.26-.33-1.48-.93-.58-1.61-1.53-2.89-2.77-3.74-3.95-2.68-9.95-.87-11.55 3.77-.62 1.55-2.96.93-2.75-.71Z"/><g style="opacity:.5"><ellipse cx="1299.03" cy="247.03" rx="11.24" ry="14.65" transform="rotate(-83.1 1299.003 247.044)" style="fill:#e2dcfe"/><path style="fill:#e2dcfe" d="M1284.18 246.35h-6.94"/></g><path d="M1310.85 252.59c-2.29-6.45-12.19-6.69-14.3.03-.58 1.56-2.93 1.01-2.77-.63.65-7.84 10.74-10.89 16.47-6.05 1.68 1.06 5.27 6.92 2.13 7.61-.69.09-1.32-.33-1.54-.96Z"/><ellipse cx="1299.03" cy="247.03" rx="11.24" ry="14.65" transform="rotate(-83.1 1299.003 247.044)" style="fill:none;stroke:#565191;stroke-miterlimit:10;stroke-width:3px"/><path style="fill:none;stroke:#565191;stroke-linecap:round;stroke-miterlimit:10;stroke-width:3px" d="M1284.18 246.35h-6.94"/><ellipse cx="1333" cy="247.03" rx="14.65" ry="11.24" transform="rotate(-6.9 1333.398 247.113)" style="fill:none;stroke:#565191;stroke-miterlimit:10;stroke-width:3px"/><path d="M235.71 277.38c23.39 13.33 20.7 50.21 37.31 95.16 8.28 22.42 23.6 38.66 23.12 40.53s-26.02-12.13-42.72-38.44c-17.84-28.11-37.75-61.16-35.52-83.83 2.23-22.67 17.82-13.43 17.82-13.43Z" style="fill:#8747cc"/><ellipse cx="276.31" cy="398.95" rx="2.73" ry="6.97" transform="rotate(-47.88 276.278 398.929)"/><ellipse cx="258" cy="377.18" rx="3.78" ry="9.64" transform="rotate(-33.48 257.978 377.152)"/><ellipse cx="240.79" cy="348.32" rx="4.14" ry="12.57" transform="rotate(-28.35 240.777 348.312)"/><path d="M154.3 429.54c-2.01 0-2.91-1.14-2.91-1.14-1.1-3.19 2.68-13.73 9.03-18.55 8.59-6.51 1.04 7.99 1.04 7.99l-7.17 11.7ZM234.48 305.93c-23.96 68.48 1.68 115.44 6.69 125.44 5.01 10-61.65-37.34-41.91-124.59 9.65-42.65 44.73-28.03 35.22-.85Z" style="fill:#8747cc"/><ellipse cx="211.8" cy="352.75" rx="6.14" ry="9.18" transform="rotate(-3 211.83 352.918)"/><ellipse cx="215.66" cy="383.2" rx="5.17" ry="7.66" transform="rotate(-10.92 215.643 383.21)"/><ellipse cx="225.22" cy="407.69" rx="3.58" ry="5.3" transform="rotate(-23.6 225.19 407.655)"/><path d="M252.67 440.37c-3.27-4.08-.08-30.39-21.18-72.59-10.15-20.3-23.15-50.05-21.28-83.88.68-12.29 15.05-13.71 21.32-6.48 14.65 16.85 18.83 45.47 23.48 75.98 6.29 41.31 1.72 92.06-2.35 86.98Z" style="fill:#bc83fb"/><path d="M173.89 292.87c-13.49 58.98-53.14 81.29-61.95 84.39-.61.21-.5 1.1.14 1.18 42.43 5.36 68.02-27.02 89.02-70.88 19.59-40.91-19.54-48.2-27.21-14.69Z" style="fill:#8747cc"/><path d="M175.62 335.27c-3.8 6.84-10.53 8.7-12.1 3.35s3.18-13.91 8.55-15.39c5.38-1.49 7.35 5.2 3.55 12.05ZM157.38 360.46c-4.57 4.54-10.32 4.47-10.34-.12s5.69-10.27 10.29-10.22c4.59.05 4.62 5.8.05 10.34ZM135.92 374.64c-3.74 1.43-6.99-.06-5.84-2.67s5.82-4.4 8.42-3.21c2.6 1.19 1.16 4.46-2.58 5.89Z"/><path d="m169.57 441.25-1.51-3.69-6.6-16.16-51.17-125.22 7.23-2.35 55.5 113.81 8.76 17.96 4.31 8.84c2.13 5.16-14.39 11.97-16.52 6.8Z" style="fill:#ba7050"/><path d="M179.28 420.47c-4.33 6.94-9.52 10.63-13.2 12.22l-4.61-11.28c5.09-5.08 8.93-10 11.56-13.76l6.25 12.82Z" style="fill:#854535"/><path d="m143.99 287.36-55.06 24.1c-2.39 1.04-5.18 0-6.28-2.38l-14.34-30.92a4.807 4.807 0 0 1 2.72-6.53l12.71-4.6 43.22-15.64c2.29-.83 4.84.19 5.93 2.37l5.55 11.16 7.91 15.89a4.81 4.81 0 0 1-2.37 6.54Z" style="fill:#1b1838"/><path d="M138.45 264.93c-28.76 13.89-45.67 8.69-54.7 2.1l43.22-15.64c2.29-.83 4.84.19 5.93 2.37l5.55 11.16Z" style="fill:#38355e"/><path d="M119.46 298.08c-3.15-7.14-10.37-4.24-7.11 3.13 2.18 4.94 9 1.15 7.11-3.13Z" style="fill:#ba7050"/><path d="M195.65 270.92c-43.34 26.51 1.27 112.29-43.55 155.83-3.73 3.63 6.93 4.97 16.13-3.84 16.44-15.74 52.89-73.29 43.84-145.05-2.42-19.17-16.41-6.95-16.41-6.95Z" style="fill:#bc83fb"/><path d="M251.76 230.23c-6.16 4.88-60.79 15.3-83.8 4.34 36.16-29.59 89.99-9.25 83.8-4.34Z"/><path d="M209.15 164.05c28.41 28.44 42.12 40.82 27.05 67.43-10.09-16.75-27.05-67.43-27.05-67.43ZM205.85 165.12c-28.94 29.13-45.66 42.85-22.65 66.36 10.09-18.27 22.65-66.36 22.65-66.36Z" style="fill:#8747cc"/><path d="M238.82 270.78c-13.54 24.96-46.1 21.49-58.96 1.17-7.12-11.24-7.65-23.53-4.99-35.75 2.16-9.94 6.44-19.82 10.99-29.02 4.7-9.49 9.69-18.27 12.98-25.67 0-.02.03-.03.03-.03 2.95-6.66 5.51-13.27 7.1-19.82.46-1.89 3.09-1.89 3.57 0 4.14 16.29 15.89 32.8 24.72 49.93 4.99 9.67 9.04 19.53 10.26 29.67 1.16 9.58-.2 19.4-5.7 29.52Z" style="fill:#bc83fb"/><path d="M234.88 276.74c-6.05 13.64-26.07 17.67-37.81 9.19 3.49.73 6.86.93 10.23.88 10.23.01 19.78-3.26 27.58-10.07ZM244.52 241.26c-21.07.22-32.81-17.4-69.64-5.05 2.16-9.94 6.44-19.82 10.99-29.02l48.4 4.4c4.99 9.67 9.04 19.53 10.26 29.67Z" style="fill:#8747cc"/><path d="M248.36 226.94c-33.77-15.13-80.35 4.66-80.35 4.66-1.21-35.24 18.5-57.17 38.79-58.5 12.56-.81 25.33 6.24 33.49 22.92 3.94 8.02 6.8 18.26 8.07 30.92Z" style="fill:#ffbe54"/><path d="M240.28 196.02c-7.91 2.59-24.12 3.93-33.49-22.92 12.56-.81 25.33 6.24 33.49 22.92Z" style="fill:#ffe97a"/><path d="M168.89 234.5c42.06-12.74 71.34-6.98 81.42-4.14 1.64.46 3.12-1.19 2.41-2.74-12.44-27.03-67.18-19.35-86.03 3.7-1.26 1.54.29 3.76 2.19 3.18Z" style="fill:#eb9540"/><path d="M199.99 217.97c1.1-24.11-3.29-40.54-3.29-40.54M219.71 217.97c1.1-24.11-3.29-40.54-3.29-40.54M232.31 215.23c-1.1-10.96 7.67-13.15 7.67-13.15M180.72 222.9c1.1-10.96-7.67-13.15-7.67-13.15" style="fill:none;stroke:#eb9540;stroke-linecap:round;stroke-miterlimit:10;stroke-width:3px"/><path d="M205.13 267.45c1.3 4.11 8.92 4.27 10-.08.35-1.31 2.35-.93 2.2.41-.3 5.64-7.81 7.31-11.88 4.39-1.42-.71-4.16-5.03-1.54-5.59.57-.05 1.08.33 1.23.86ZM213.85 260.14c.79-7.48 10.89-10.84 16.46-6.02 1.7 1.07 5.06 7.05 1.93 7.61-.66.06-1.25-.33-1.47-.92-.57-1.59-1.52-2.87-2.75-3.71-3.91-2.66-9.87-.86-11.45 3.74-.61 1.54-2.94.92-2.73-.7ZM204.15 260.77c-2.27-6.39-12.08-6.63-14.17.03-.57 1.54-2.9 1-2.75-.63.64-7.78 10.65-10.79 16.33-6 1.66 1.05 5.22 6.86 2.11 7.54-.68.09-1.31-.33-1.52-.95Z"/><path d="M464.54 653.87c0 10.42 593.06 11 593.06 0s-593.06-10.42-593.06 0Z" style="fill:#9397ba"/><path d="M1023.7 326.4h26c6.36 0 11.51 5.15 11.51 11.51v16.79c0 6.36-5.15 11.51-11.51 11.51h-26" style="fill:none;stroke:#6e7191;stroke-miterlimit:10;stroke-width:4.98px"/><path d="M1023.7 346.09h11.97c6.36 0 11.51 5.15 11.51 11.51v23.8c0 6.36-5.15 11.51-11.51 11.51h-11.97" style="fill:none;stroke:#4f516e;stroke-miterlimit:10;stroke-width:6.08px"/><path d="M1028.2 292.52v70.05s29.98-35.71 0-70.05ZM1030.68 412.14l14.11 9.46c4.36 2.92 6.98 7.83 6.98 13.08v50.8c0 4.33-1.79 8.48-4.94 11.45l-16.15 15.24V412.13Z" style="fill:#45425e"/><circle cx="548.72" cy="633.87" r="18.39" style="fill:#121226"/><circle cx="966.97" cy="633.87" r="18.39" style="fill:#121226"/><path d="M1029.59 244.99v346.07c0 29.42-11.58 46.76-48.86 46.76h-445.5c-45.18 0-44.66-22.07-44.66-53.59 0-16.81 27.07-41.59 162.64-17.27 3.86.69 7.72 1.35 11.58 1.97 5.67.92 11.34 1.75 16.98 2.49 76.38 10.13 148.83 4.27 200.81-34.06-3.9-3.24-7.31-7.14-10.03-11.69-13.8-23.08-4.86-53.82 19.96-68.65 16.19-9.68 35.15-10.19 50.19-2.97 25.37-68.08 25.04-151.08 47.45-193.62 11.85-22.5 39.44-24.25 39.44-15.44Z" style="fill:#9397ba"/><circle cx="527.21" cy="614.79" r="6.23" style="fill:#f3ff73"/><ellipse cx="1000.15" cy="319.12" rx="12.29" ry="11.43" transform="rotate(-37 1000.022 319.133)" style="fill:#6e7191"/><path style="fill:none;stroke:#4f516e;stroke-linecap:round;stroke-miterlimit:10;stroke-width:4.43px" d="m1003.61 306.83-6.91 24.59"/><ellipse cx="999.66" cy="354.32" rx="8.19" ry="7.61" transform="rotate(-11.56 999.643 354.339)" style="fill:none;stroke:#6e7191;stroke-linecap:round;stroke-linejoin:round;stroke-width:4.88px"/><ellipse cx="999.66" cy="381.38" rx="6.09" ry="5.66" transform="rotate(-11.56 999.65 381.386)" style="fill:#4f516e"/><ellipse cx="999.66" cy="397.48" rx="6.09" ry="5.66" transform="rotate(-11.56 999.664 397.506)" style="fill:#6e7191"/><ellipse cx="999.66" cy="429.66" rx="7.57" ry="7.04" transform="rotate(-11.56 999.655 429.642)" style="fill:#121226"/><ellipse cx="999.66" cy="429.66" rx="14.42" ry="13.41" transform="rotate(-11.56 999.655 429.642)" style="fill:none;stroke:#6e7191;stroke-linecap:round;stroke-linejoin:round;stroke-width:4.88px"/><path d="M955.59 512.96c9.61 43.18 50.19-.81 74 26.26v18.12c-51.26 17.09-86-13.31-88.23-27.26l14.23-17.12ZM659.33 637.82h-39.98s-.23-51.6 50.21-68.89c5.67.92 11.34 1.75 16.98 2.49 4.11 33.14-41.1 20.33-27.21 66.39Z" style="fill:#b6bad9"/><circle cx="956.81" cy="574.44" r="4.73" style="fill:#121226"/><circle cx="973.6" cy="574.44" r="4.73" style="fill:#121226"/><circle cx="990.4" cy="574.44" r="4.73" style="fill:#121226"/><circle cx="973.6" cy="547.3" r="4.73" style="fill:#121226"/><circle cx="990.4" cy="547.3" r="4.73" style="fill:#121226"/><circle cx="1007.19" cy="574.44" r="4.73" style="fill:#121226"/><circle cx="965.2" cy="560.87" r="4.73" style="fill:#121226"/><circle cx="982" cy="560.87" r="4.73" style="fill:#121226"/><circle cx="982" cy="534.22" r="4.73" style="fill:#121226"/><circle cx="998.8" cy="560.87" r="4.73" style="fill:#121226"/><ellipse cx="921" cy="500.15" rx="39.78" ry="37" transform="rotate(-12.44 921.124 500.22)" style="fill:#f7f7f7"/><ellipse cx="921" cy="500.15" rx="41.7" ry="38.78" transform="rotate(-12.44 921.124 500.22)" style="fill:none;stroke:#6e7191;stroke-linecap:round;stroke-linejoin:round;stroke-width:4.88px"/><ellipse cx="921" cy="500.15" rx="13.74" ry="12.78" transform="rotate(-12.44 921.124 500.22)" style="fill:none;stroke:#a4a6bd;stroke-miterlimit:10;stroke-width:4.43px"/><ellipse cx="921" cy="500.15" rx="6.6" ry="6.14" transform="rotate(-12.44 921.124 500.22)" style="fill:#a4a6bd"/><ellipse cx="950.24" cy="501.02" rx="3.71" ry="3.45" transform="rotate(-12.44 950.368 501.087)" style="fill:#6e7191"/><ellipse cx="943.78" cy="481.6" rx="3.71" ry="3.45" transform="rotate(-12.44 943.9 481.627)" style="fill:#6e7191"/><ellipse cx="925.54" cy="471.49" rx="3.71" ry="3.45" transform="rotate(-12.44 925.645 471.514)" style="fill:#6e7191"/><ellipse cx="904.15" cy="476.95" rx="3.71" ry="3.45" transform="rotate(-12.44 904.253 476.981)" style="fill:#6e7191"/><ellipse cx="892.95" cy="493.14" rx="3.71" ry="3.45" transform="rotate(-12.44 893.065 493.17)" style="fill:#6e7191"/><ellipse cx="894.98" cy="512.09" rx="3.71" ry="3.45" transform="rotate(-12.44 895.082 512.144)" style="fill:#6e7191"/><ellipse cx="907.99" cy="524.94" rx="3.71" ry="3.45" transform="rotate(-12.44 908.12 524.985)" style="fill:#6e7191"/><path style="fill:none;stroke:#a4a6bd;stroke-linecap:round;stroke-miterlimit:10;stroke-width:4.43px" d="m914.71 471.95 6.29 28.2"/><g style="clip-path:url(#e)"><path d="m485.79 604.4 1.45-2.04c3.34-4.69 8.74-7.48 14.5-7.48h533.12" style="fill:none;stroke:#6e7191;stroke-linecap:round;stroke-linejoin:round;stroke-width:4.88px"/><path style="fill:none;stroke:#6e7191;stroke-linecap:round;stroke-linejoin:round;stroke-width:5.37px" d="m852.93 595.02-23.03 44.39M875.97 595.02l-23.04 44.39M899.01 595.02l-23.04 44.39"/><path d="M504.68 651.48c155.52-63.85 307.26-5.64 307.26-5.64 131.63-60.27 205.44.68 205.44.68l-512.7 4.96Z" style="fill:#6e7191"/></g><path d="M1029.58 244.99c2.93 57.41 3.73 115.56 4.03 173.03.13 57.58-.44 115.54-4.03 173.03-3.58-57.49-4.16-115.46-4.03-173.03.29-57.48 1.1-115.62 4.03-173.03Z" style="fill:#6e7191"/><path d="M1029.58 244.99c-.95-5.42-9.08-4.17-12.95-3.26-4.84 1.24-9.35 3.59-13.24 6.6-6.02 4.55-10.01 10.76-12.91 17.67-3.04 7.03-5.41 14.29-7.36 21.71-6.15 23.18-10.58 52.29-14.76 76.18-5.46 30.83-11.65 61.85-23.35 91.03-.46 1.39-2.08 2.03-3.38 1.37-2.68-1.14-5.42-2.12-8.24-2.82-19.89-5.03-41.89 3.22-54.27 19.43-14.69 18.82-13.64 46.83 5.03 62.59 1.22.99 1.16 2.96-.11 3.88-13.99 10.45-29.65 18.54-46.02 24.47-49.24 17.67-102.89 17.03-154.15 10.49-34-4.75-67.62-12.36-101.93-14.49-20.15-1.36-40.59-1.85-60.51 1.82-9.14 1.95-18.75 4.67-25.6 11.35-2.92 3.02-5.07 6.93-5.27 11.23-.27-4.4 1.54-8.7 4.34-12.07 8.95-9.97 22.8-13.18 35.48-15.39 34.43-4.76 69.17-.33 103.27 4.51 17.01 2.57 33.82 5.87 50.88 7.88 66.41 8.07 140.26 6.74 196.58-33.77 0 0-.1 3.9-.12 3.88-15.49-12.21-21.43-34.16-15.45-52.79 9.48-31.89 48.2-50.04 78.21-34.64 0 0-3.4 1.38-3.37 1.35 16.95-49.18 20.98-101.43 32.52-152.01 3.01-12.74 6.86-25.57 12.58-37.5 4.42-9.94 12.45-18.65 22.82-22.41 5.06-1.9 10.64-2.89 15.98-1.63 2.54.53 5.58 2.47 5.29 5.36Z" style="fill:#b6bad9"/></svg>