<?xml version="1.0" encoding="UTF-8" standalone="no"?>
<svg
   id="Layer_1"
   data-name="Layer 1"
   viewBox="0 0 1627.9999 800.85"
   version="1.1"
   sodipodi:docname="kv.svg"
   inkscape:version="1.2.1 (9c6d41e410, 2022-07-14)"
   width="1628"
   height="800.84998"
   xmlns:inkscape="http://www.inkscape.org/namespaces/inkscape"
   xmlns:sodipodi="http://sodipodi.sourceforge.net/DTD/sodipodi-0.dtd"
   xmlns="http://www.w3.org/2000/svg"
   xmlns:svg="http://www.w3.org/2000/svg">
  <sodipodi:namedview
     id="namedview276"
     pagecolor="#ffffff"
     bordercolor="#666666"
     borderopacity="1.0"
     inkscape:showpageshadow="2"
     inkscape:pageopacity="0.0"
     inkscape:pagecheckerboard="0"
     inkscape:deskcolor="#d1d1d1"
     showgrid="false"
     inkscape:zoom="0.40863342"
     inkscape:cx="586.09988"
     inkscape:cy="409.90284"
     inkscape:window-width="1499"
     inkscape:window-height="1080"
     inkscape:window-x="0"
     inkscape:window-y="23"
     inkscape:window-maximized="1"
     inkscape:current-layer="Layer_1" />
  <defs
     id="defs7">
    <rect
       x="1332.4901"
       y="598.33582"
       width="267.96634"
       height="36.707718"
       id="rect364" />
    <rect
       x="1348.3969"
       y="365.85358"
       width="291.21457"
       height="123.58265"
       id="rect617" />
    <rect
       x="1029.6658"
       y="250.83607"
       width="507.16394"
       height="312.01559"
       id="rect487" />
    <style
       id="style2">
      .cls-1, .cls-2, .cls-3 {
        fill: none;
      }

      .cls-4 {
        clip-path: url(#clippath);
      }

      .cls-5 {
        fill: #fff;
      }

      .cls-6 {
        fill: #bc83fb;
      }

      .cls-7 {
        fill: #d8b7fb;
      }

      .cls-8 {
        fill: #242526;
      }

      .cls-2 {
        stroke: #bc83fb;
      }

      .cls-2, .cls-3 {
        stroke-linecap: round;
        stroke-miterlimit: 10;
        stroke-width: 4px;
      }

      .cls-3 {
        stroke: #8747cc;
      }
    </style>
    <clipPath
       id="clippath">
      <path
         class="cls-1"
         d="m 324.31,296.75 v 197.33 c 0,42.56 -221.68,42.56 -221.68,0 V 296.75 c 0,-36.79 221.68,-36.79 221.68,0 z"
         id="path4" />
    </clipPath>
  </defs>
  <rect
     class="cls-8"
     width="1628.2864"
     height="800.84998"
     id="rect9"
     x="0"
     y="0"
     style="stroke-width:1.00827" />
  <g
     id="g43">
    <path
       d="M 324.31,484.48 213.47,526 c 130.63,6.23 203.27,-29.21 110.84,-41.52 z"
       id="path11" />
    <g
       id="g23">
      <path
         class="cls-6"
         d="m 324.31,296.75 v 197.33 c 0,42.56 -221.68,42.56 -221.68,0 V 296.75 c 0,-36.79 221.68,-36.79 221.68,0 z"
         id="path13" />
      <path
         class="cls-7"
         d="m 324.31,296.75 c 0,33.22 -221.68,33.22 -221.68,0 0,-36.79 221.68,-36.79 221.68,0 z"
         id="path15" />
      <g
         class="cls-4"
         clip-path="url(#clippath)"
         id="g21">
        <path
           class="cls-3"
           d="m 326.34,364.69 c 0,33.23 -225.73,33.23 -225.73,0"
           id="path17" />
        <path
           class="cls-3"
           d="m 326.34,432.63 c 0,33.23 -225.73,33.23 -225.73,0"
           id="path19" />
      </g>
    </g>
    <g
       id="g41">
      <path
         class="cls-5"
         d="m 120.34,424.54 c 0,-10.78 0,-16.18 0,-26.96 4.85,1 7.28,1.47 12.14,2.34 2.91,0.52 5.47,1.51 7.7,2.99 2.22,1.48 3.96,3.3 5.22,5.49 1.25,2.19 1.88,4.66 1.88,7.4 0,2.74 -0.63,5 -1.88,6.83 -1.25,1.83 -2.99,3.13 -5.22,3.89 -2.22,0.76 -4.79,0.88 -7.7,0.36 -4.87,-0.87 -7.3,-1.34 -12.14,-2.34 z m 6.18,-3.89 c 2.26,0.44 3.39,0.65 5.66,1.05 1.79,0.32 3.34,0.25 4.65,-0.21 1.32,-0.46 2.34,-1.26 3.07,-2.4 0.73,-1.14 1.09,-2.56 1.09,-4.25 0,-1.69 -0.36,-3.26 -1.09,-4.62 -0.73,-1.36 -1.75,-2.49 -3.07,-3.4 -1.32,-0.9 -2.87,-1.51 -4.65,-1.83 -2.26,-0.41 -3.4,-0.62 -5.66,-1.05 0,6.69 0,10.03 0,16.71 z"
         id="path25" />
      <path
         class="cls-5"
         d="m 157.93,431.02 c -1.62,-0.2 -3,-0.65 -4.16,-1.35 -1.15,-0.7 -2.04,-1.57 -2.65,-2.61 -0.62,-1.03 -0.92,-2.14 -0.92,-3.32 0,-1.18 0.3,-2.27 0.9,-3.11 0.6,-0.84 1.56,-1.44 2.87,-1.79 1.31,-0.36 3.01,-0.4 5.12,-0.15 2.2,0.26 3.31,0.39 5.51,0.62 v 3.5 c -1.94,-0.21 -2.91,-0.32 -4.86,-0.55 -1.41,-0.17 -2.38,-0.06 -2.91,0.34 -0.53,0.4 -0.79,0.94 -0.79,1.63 0,0.77 0.3,1.42 0.9,1.94 0.6,0.52 1.43,0.85 2.48,0.98 1,0.12 1.9,-0.01 2.7,-0.4 0.8,-0.39 1.37,-1.02 1.73,-1.91 0.37,1.15 0.56,1.72 0.93,2.87 -0.44,1.29 -1.23,2.22 -2.39,2.78 -1.16,0.56 -2.65,0.74 -4.47,0.52 z m 6.32,0.42 c 0,-1.62 0,-2.43 0,-4.04 -0.15,-0.37 -0.23,-0.56 -0.39,-0.93 v -7.24 c 0,-1.28 -0.39,-2.33 -1.18,-3.13 -0.78,-0.81 -1.98,-1.3 -3.6,-1.49 -1.1,-0.13 -2.19,-0.09 -3.25,0.12 -1.06,0.21 -1.97,0.56 -2.71,1.05 -0.86,-1.79 -1.29,-2.69 -2.15,-4.49 1.13,-0.64 2.49,-1.07 4.08,-1.31 1.59,-0.23 3.21,-0.25 4.85,-0.06 3.16,0.37 5.61,1.37 7.36,3.04 1.75,1.67 2.62,4.07 2.62,7.23 0,4.73 0,7.09 0,11.82 -2.25,-0.22 -3.38,-0.33 -5.63,-0.57 z"
         id="path27" />
      <path
         class="cls-5"
         d="m 172.85,416.65 v -4.62 c 5.76,0.51 8.64,0.72 14.41,1.05 0,1.85 0,2.77 0,4.62 -5.77,-0.33 -8.65,-0.54 -14.41,-1.05 z m 10.97,16.79 c -2.45,-0.16 -4.35,-0.92 -5.72,-2.27 -1.36,-1.35 -2.05,-3.26 -2.05,-5.73 0,-7.27 0,-10.91 0,-18.18 2.41,0.2 3.62,0.29 6.03,0.45 0,7.24 0,10.86 0,18.1 0,0.87 0.23,1.56 0.7,2.07 0.46,0.51 1.09,0.79 1.89,0.84 0.95,0.06 1.77,-0.15 2.44,-0.62 0.65,1.73 0.97,2.6 1.62,4.33 -0.62,0.4 -1.36,0.69 -2.22,0.86 -0.86,0.17 -1.76,0.22 -2.69,0.16 z"
         id="path29" />
      <path
         class="cls-5"
         d="m 198.56,434.15 c -1.63,-0.05 -3.02,-0.38 -4.18,-0.98 -1.16,-0.6 -2.05,-1.39 -2.67,-2.37 -0.62,-0.98 -0.93,-2.06 -0.93,-3.24 0,-1.18 0.3,-2.3 0.91,-3.19 0.61,-0.9 1.57,-1.58 2.88,-2.05 1.32,-0.47 3.03,-0.67 5.15,-0.61 2.21,0.07 3.32,0.09 5.54,0.13 0,1.4 0,2.1 0,3.5 -1.95,-0.04 -2.93,-0.06 -4.88,-0.11 -1.42,-0.04 -2.39,0.16 -2.92,0.6 -0.53,0.44 -0.79,1.01 -0.79,1.7 0,0.77 0.3,1.39 0.91,1.86 0.61,0.47 1.44,0.72 2.5,0.75 1.01,0.03 1.91,-0.18 2.71,-0.64 0.8,-0.46 1.38,-1.14 1.74,-2.06 0.37,1.12 0.56,1.67 0.93,2.79 -0.44,1.33 -1.24,2.33 -2.4,2.99 -1.16,0.67 -2.66,0.98 -4.49,0.92 z m 6.35,-0.15 c 0,-1.62 0,-2.43 0,-4.04 -0.15,-0.36 -0.23,-0.54 -0.39,-0.89 v -7.24 c 0,-1.28 -0.39,-2.29 -1.18,-3.03 -0.79,-0.74 -1.99,-1.12 -3.62,-1.17 -1.11,-0.03 -2.2,0.1 -3.27,0.41 -1.07,0.31 -1.98,0.74 -2.73,1.3 -0.87,-1.72 -1.3,-2.58 -2.17,-4.3 1.13,-0.74 2.5,-1.3 4.1,-1.67 1.6,-0.37 3.22,-0.54 4.88,-0.49 3.17,0.09 5.64,0.87 7.39,2.38 1.75,1.51 2.63,3.84 2.63,7 0,4.73 0,7.09 0,11.82 -2.26,-0.01 -3.39,-0.03 -5.65,-0.07 z"
         id="path31" />
      <path
         class="cls-5"
         d="m 216.02,434.08 c 0,-11.43 0,-17.15 0,-28.58 2.42,-0.01 3.62,-0.03 6.04,-0.07 0,4.82 0,7.23 0,12.06 -0.15,2.45 -0.23,3.68 -0.39,6.13 0.05,2.46 0.07,3.7 0.12,6.16 0,1.69 0,2.54 0,4.24 -2.31,0.04 -3.46,0.05 -5.77,0.07 z m 12.31,0.08 c -1.83,0.06 -3.41,-0.29 -4.72,-1.03 -1.32,-0.74 -2.32,-1.9 -3.02,-3.47 -0.7,-1.57 -1.05,-3.56 -1.05,-5.97 0,-2.41 0.37,-4.45 1.1,-6.02 0.74,-1.58 1.76,-2.76 3.08,-3.56 1.32,-0.8 2.85,-1.22 4.61,-1.28 1.96,-0.06 3.72,0.3 5.28,1.11 1.56,0.81 2.8,1.98 3.71,3.52 0.92,1.54 1.37,3.41 1.37,5.59 0,2.16 -0.46,4.06 -1.37,5.7 -0.92,1.64 -2.15,2.94 -3.71,3.89 -1.56,0.95 -3.32,1.47 -5.28,1.53 z m -1.05,-4.9 c 1.01,-0.03 1.9,-0.29 2.69,-0.78 0.79,-0.49 1.42,-1.18 1.9,-2.06 0.48,-0.88 0.72,-1.91 0.72,-3.09 0,-1.18 -0.24,-2.22 -0.72,-3.05 -0.48,-0.83 -1.11,-1.46 -1.9,-1.89 -0.79,-0.43 -1.68,-0.63 -2.69,-0.6 -1.01,0.03 -1.91,0.28 -2.71,0.77 -0.8,0.49 -1.43,1.15 -1.9,2.01 -0.46,0.86 -0.7,1.89 -0.7,3.09 0,1.2 0.23,2.2 0.7,3.05 0.46,0.85 1.1,1.5 1.9,1.94 0.8,0.44 1.7,0.65 2.71,0.62 z"
         id="path33" />
      <path
         class="cls-5"
         d="m 248.79,433.04 c -1.62,0.12 -3.01,-0.05 -4.17,-0.53 -1.16,-0.47 -2.05,-1.17 -2.67,-2.08 -0.62,-0.91 -0.93,-1.96 -0.93,-3.14 0,-1.23 0.3,-2.33 0.91,-3.29 0.61,-0.96 1.57,-1.75 2.88,-2.36 1.31,-0.62 3.03,-1 5.14,-1.17 2.21,-0.18 3.31,-0.27 5.52,-0.47 v 3.5 c -1.95,0.18 -2.92,0.26 -4.86,0.42 -1.42,0.11 -2.39,0.42 -2.92,0.92 -0.53,0.5 -0.79,1.1 -0.79,1.79 0,0.77 0.3,1.36 0.91,1.76 0.6,0.4 1.44,0.57 2.49,0.48 1,-0.08 1.91,-0.39 2.7,-0.94 0.8,-0.54 1.38,-1.3 1.74,-2.25 0.37,1.08 0.56,1.61 0.93,2.69 -0.44,1.38 -1.23,2.46 -2.39,3.26 -1.16,0.79 -2.65,1.27 -4.48,1.41 z m 6.33,-0.84 v -4.04 c -0.15,-0.34 -0.23,-0.51 -0.39,-0.85 v -7.24 c 0,-1.28 -0.39,-2.25 -1.18,-2.9 -0.79,-0.65 -1.99,-0.91 -3.61,-0.78 -1.11,0.09 -2.2,0.34 -3.26,0.77 -1.07,0.42 -1.98,0.95 -2.72,1.59 -0.87,-1.62 -1.3,-2.43 -2.16,-4.06 1.13,-0.87 2.5,-1.57 4.1,-2.12 1.6,-0.55 3.22,-0.89 4.87,-1.02 3.17,-0.26 5.62,0.26 7.37,1.58 1.75,1.32 2.62,3.55 2.62,6.71 0,4.73 0,7.09 0,11.82 -2.25,0.23 -3.38,0.34 -5.63,0.55 z"
         id="path35" />
      <path
         class="cls-5"
         d="m 273.16,430.51 c -1.77,0.23 -3.47,0.23 -5.1,0 -1.63,-0.23 -2.92,-0.62 -3.87,-1.15 0.8,-1.81 1.2,-2.72 2,-4.54 0.95,0.48 2.07,0.83 3.37,1.04 1.3,0.21 2.57,0.24 3.83,0.07 1.38,-0.18 2.36,-0.48 2.94,-0.9 0.58,-0.41 0.87,-0.92 0.87,-1.51 0,-0.49 -0.23,-0.82 -0.67,-1 -0.45,-0.18 -1.04,-0.29 -1.79,-0.31 -0.74,-0.03 -1.56,-0.05 -2.44,-0.06 -0.89,-0.01 -1.78,-0.08 -2.67,-0.18 -0.9,-0.11 -1.72,-0.34 -2.46,-0.69 -0.75,-0.35 -1.34,-0.87 -1.79,-1.56 -0.45,-0.69 -0.67,-1.63 -0.67,-2.81 0,-1.31 0.38,-2.51 1.14,-3.59 0.76,-1.09 1.86,-2.01 3.29,-2.76 1.44,-0.75 3.16,-1.26 5.16,-1.52 1.41,-0.19 2.85,-0.23 4.31,-0.13 1.46,0.1 2.68,0.37 3.65,0.81 -0.8,1.83 -1.2,2.75 -2,4.57 -1,-0.44 -2,-0.7 -3.02,-0.78 -1.01,-0.08 -1.99,-0.05 -2.94,0.07 -1.33,0.18 -2.31,0.48 -2.92,0.92 -0.62,0.44 -0.92,0.94 -0.92,1.5 0,0.51 0.22,0.87 0.67,1.07 0.45,0.2 1.05,0.33 1.79,0.39 0.74,0.06 1.56,0.08 2.44,0.08 0.88,0 1.77,0.05 2.67,0.15 0.9,0.1 1.71,0.31 2.44,0.63 0.73,0.32 1.33,0.8 1.79,1.47 0.46,0.66 0.69,1.58 0.69,2.76 0,1.28 -0.38,2.48 -1.15,3.58 -0.77,1.1 -1.88,2.05 -3.32,2.82 -1.45,0.77 -3.21,1.3 -5.29,1.57 z"
         id="path37" />
      <path
         class="cls-5"
         d="m 296.82,426.79 c -2.35,0.43 -4.41,0.33 -6.18,-0.29 -1.78,-0.62 -3.15,-1.66 -4.12,-3.11 -0.97,-1.45 -1.46,-3.2 -1.46,-5.26 0,-2.06 0.48,-4 1.44,-5.76 0.96,-1.76 2.27,-3.23 3.93,-4.42 1.66,-1.19 3.54,-1.98 5.63,-2.36 2.01,-0.37 3.83,-0.28 5.44,0.26 1.62,0.55 2.89,1.52 3.83,2.93 0.94,1.41 1.41,3.23 1.41,5.47 0,0.23 -0.01,0.5 -0.04,0.8 -0.03,0.3 -0.05,0.58 -0.08,0.84 -6.66,1.38 -10,2 -16.7,3.13 v -3.51 c 5.44,-0.92 8.16,-1.42 13.57,-2.5 -0.92,0.6 -1.37,0.9 -2.29,1.49 0,-1.08 -0.22,-1.97 -0.65,-2.69 -0.43,-0.71 -1.03,-1.22 -1.8,-1.53 -0.76,-0.3 -1.66,-0.36 -2.68,-0.18 -1.02,0.19 -1.92,0.57 -2.7,1.16 -0.78,0.59 -1.38,1.32 -1.82,2.2 -0.43,0.88 -0.65,1.88 -0.65,2.98 v 0.92 c 0,1.13 0.25,2.08 0.75,2.86 0.5,0.77 1.2,1.31 2.11,1.6 0.9,0.29 1.97,0.32 3.19,0.1 1.1,-0.2 2.06,-0.55 2.88,-1.04 0.83,-0.49 1.58,-1.14 2.27,-1.94 1.27,1.14 1.9,1.7 3.17,2.83 -0.94,1.27 -2.12,2.34 -3.55,3.19 -1.43,0.86 -3.07,1.46 -4.93,1.8 z"
         id="path39" />
    </g>
  </g>
  <g
     id="g163">
    <g
       id="g63">
      <path
         class="cls-2"
         d="M 926.64,75.31 H 522.97 c -8.87,0 -16.06,7.19 -16.06,16.06 v 618.1 c 0,8.87 7.19,16.06 16.06,16.06 h 403.67"
         id="path45" />
      <g
         id="g61">
        <line
           class="cls-2"
           x1="522.96997"
           y1="156.57001"
           x2="926.64001"
           y2="156.57001"
           id="line47" />
        <line
           class="cls-2"
           x1="522.96997"
           y1="237.86"
           x2="926.64001"
           y2="237.86"
           id="line49" />
        <line
           class="cls-2"
           x1="522.96997"
           y1="319.14001"
           x2="926.64001"
           y2="319.14001"
           id="line51" />
        <line
           class="cls-2"
           x1="522.96997"
           y1="400.42999"
           x2="926.64001"
           y2="400.42999"
           id="line53" />
        <line
           class="cls-2"
           x1="522.96997"
           y1="481.70999"
           x2="926.64001"
           y2="481.70999"
           id="line55" />
        <line
           class="cls-2"
           x1="522.96997"
           y1="562.98999"
           x2="926.64001"
           y2="562.98999"
           id="line57" />
        <line
           class="cls-2"
           x1="522.96997"
           y1="644.28003"
           x2="926.64001"
           y2="644.28003"
           id="line59" />
      </g>
    </g>
    <g
       id="g71">
      <path
         class="cls-6"
         d="m 413.46,400.43 c 0.01,5.77 3.73,10.88 9.22,12.67 9.09,2.96 9.09,7.69 9.09,9.96 v 290.26 c 0,7.24 5.7,13.46 12.94,13.49 1.16,0 2.28,-0.14 3.35,-0.42 0.42,-0.11 0.77,-0.41 0.94,-0.81 0.17,-0.4 0.15,-0.86 -0.07,-1.24 -0.08,-0.14 -0.15,-0.27 -0.22,-0.41 -6.44,-12 -2.07,-25.39 7.72,-30.69 0.82,-0.44 1.31,-1.31 1.31,-2.24 V 423.08 c 0,-8.09 -2.4,-15.26 -6.87,-21.13 -0.34,-0.44 -0.51,-0.97 -0.52,-1.5 0,-0.53 0.18,-1.05 0.52,-1.5 4.47,-5.86 6.87,-13.03 6.87,-21.13 V 109.88 c 0,-0.93 -0.49,-1.8 -1.31,-2.24 -9.79,-5.3 -14.16,-18.7 -7.72,-30.69 0.07,-0.14 0.15,-0.27 0.22,-0.41 0.21,-0.38 0.24,-0.84 0.07,-1.24 -0.17,-0.4 -0.52,-0.7 -0.94,-0.81 -1.07,-0.28 -2.19,-0.43 -3.35,-0.42 -7.24,0.02 -12.94,6.25 -12.94,13.49 v 290.26 c 0,2.27 0,7 -9.09,9.96 -5.49,1.79 -9.21,6.9 -9.22,12.67 z"
         id="path65" />
      <path
         class="cls-6"
         d="m 476.92,719.59 c 5.16,-8.48 -0.73,-20.36 -10.6,-21.39 -9.88,-1.02 -16.33,9.58 -11.62,19.08 4.71,9.5 17.06,10.78 22.22,2.3 z"
         id="path67" />
      <path
         class="cls-6"
         d="m 454.7,83.57 c 4.71,-9.5 17.06,-10.78 22.22,-2.3 5.16,8.48 -0.73,20.36 -10.6,21.39 -9.87,1.03 -16.33,-9.58 -11.62,-19.08 z"
         id="path69" />
    </g>
    <g
       id="g91">
      <path
         class="cls-5"
         d="m 549.96,127.36 c -2.35,0 -4.21,-0.97 -5.58,-2.9 -1.36,-1.93 -2.05,-4.66 -2.05,-8.19 0,-3.53 0.68,-6.29 2.05,-8.15 1.37,-1.86 3.22,-2.8 5.58,-2.8 2.36,0 4.24,0.93 5.59,2.8 1.35,1.86 2.03,4.58 2.03,8.15 0,3.57 -0.68,6.26 -2.03,8.19 -1.35,1.93 -3.22,2.9 -5.59,2.9 z m 0,-2.2 c 1.49,0 2.7,-0.72 3.64,-2.16 0.94,-1.44 1.41,-3.68 1.41,-6.72 0,-3.04 -0.47,-5.29 -1.41,-6.67 -0.94,-1.39 -2.16,-2.08 -3.64,-2.08 -1.48,0 -2.7,0.69 -3.64,2.08 -0.94,1.39 -1.41,3.61 -1.41,6.67 0,3.06 0.47,5.28 1.41,6.72 0.94,1.44 2.16,2.16 3.64,2.16 z m 0,-6.89 c -0.56,0 -1.04,-0.2 -1.45,-0.6 -0.41,-0.4 -0.62,-0.94 -0.62,-1.63 0,-0.69 0.2,-1.23 0.62,-1.61 0.41,-0.39 0.89,-0.58 1.45,-0.58 0.56,0 1.04,0.19 1.45,0.58 0.41,0.39 0.62,0.93 0.62,1.61 0,0.68 -0.21,1.23 -0.62,1.63 -0.41,0.4 -0.89,0.6 -1.45,0.6 z"
         id="path73" />
      <path
         class="cls-5"
         d="m 562.07,126.97 6.16,-8.39 -5.69,-7.79 h 3.03 l 2.56,3.56 c 0.29,0.42 0.59,0.87 0.92,1.35 0.32,0.48 0.65,0.94 0.98,1.38 h 0.13 c 0.31,-0.44 0.62,-0.91 0.93,-1.4 0.31,-0.49 0.61,-0.95 0.9,-1.4 l 2.43,-3.49 h 2.9 l -5.76,8.02 6.19,8.15 h -3 l -2.83,-3.73 c -0.33,-0.47 -0.68,-0.95 -1.05,-1.46 -0.37,-0.51 -0.73,-1 -1.08,-1.46 h -0.13 c -0.33,0.49 -0.67,0.97 -1,1.45 -0.33,0.48 -0.67,0.97 -1,1.48 l -2.66,3.73 z"
         id="path75" />
      <path
         class="cls-5"
         d="m 589.89,127.36 c -2.35,0 -4.21,-0.97 -5.58,-2.9 -1.36,-1.93 -2.05,-4.66 -2.05,-8.19 0,-3.53 0.68,-6.29 2.05,-8.15 1.37,-1.86 3.22,-2.8 5.58,-2.8 2.36,0 4.24,0.93 5.59,2.8 1.35,1.86 2.03,4.58 2.03,8.15 0,3.57 -0.68,6.26 -2.03,8.19 -1.35,1.93 -3.22,2.9 -5.59,2.9 z m 0,-2.2 c 1.49,0 2.7,-0.72 3.64,-2.16 0.94,-1.44 1.41,-3.68 1.41,-6.72 0,-3.04 -0.47,-5.29 -1.41,-6.67 -0.94,-1.39 -2.16,-2.08 -3.64,-2.08 -1.48,0 -2.7,0.69 -3.64,2.08 -0.94,1.39 -1.41,3.61 -1.41,6.67 0,3.06 0.47,5.28 1.41,6.72 0.94,1.44 2.16,2.16 3.64,2.16 z m 0,-6.89 c -0.56,0 -1.04,-0.2 -1.45,-0.6 -0.41,-0.4 -0.62,-0.94 -0.62,-1.63 0,-0.69 0.2,-1.23 0.62,-1.61 0.41,-0.39 0.89,-0.58 1.45,-0.58 0.56,0 1.04,0.19 1.45,0.58 0.41,0.39 0.62,0.93 0.62,1.61 0,0.68 -0.21,1.23 -0.62,1.63 -0.41,0.4 -0.89,0.6 -1.45,0.6 z"
         id="path77" />
      <path
         class="cls-5"
         d="m 603.1,126.97 v -2.26 h 6.12 v -15.64 h -4.76 v -1.76 c 1.24,-0.18 2.29,-0.39 3.14,-0.65 0.85,-0.25 1.62,-0.56 2.31,-0.92 h 2.03 v 18.97 h 5.56 v 2.26 h -14.41 z"
         id="path79" />
      <path
         class="cls-5"
         d="m 629.83,127.36 c -2.35,0 -4.21,-0.97 -5.58,-2.9 -1.36,-1.93 -2.05,-4.66 -2.05,-8.19 0,-3.53 0.68,-6.29 2.05,-8.15 1.37,-1.86 3.22,-2.8 5.58,-2.8 2.36,0 4.24,0.93 5.59,2.8 1.35,1.86 2.03,4.58 2.03,8.15 0,3.57 -0.68,6.26 -2.03,8.19 -1.35,1.93 -3.22,2.9 -5.59,2.9 z m 0,-2.2 c 1.49,0 2.7,-0.72 3.64,-2.16 0.94,-1.44 1.41,-3.68 1.41,-6.72 0,-3.04 -0.47,-5.29 -1.41,-6.67 -0.94,-1.39 -2.16,-2.08 -3.64,-2.08 -1.48,0 -2.7,0.69 -3.64,2.08 -0.94,1.39 -1.41,3.61 -1.41,6.67 0,3.06 0.47,5.28 1.41,6.72 0.94,1.44 2.16,2.16 3.64,2.16 z m 0,-6.89 c -0.56,0 -1.04,-0.2 -1.45,-0.6 -0.41,-0.4 -0.62,-0.94 -0.62,-1.63 0,-0.69 0.2,-1.23 0.62,-1.61 0.41,-0.39 0.89,-0.58 1.45,-0.58 0.56,0 1.04,0.19 1.45,0.58 0.41,0.39 0.62,0.93 0.62,1.61 0,0.68 -0.21,1.23 -0.62,1.63 -0.41,0.4 -0.89,0.6 -1.45,0.6 z"
         id="path81" />
      <path
         class="cls-5"
         d="m 643.04,126.97 v -2.26 h 6.12 v -15.64 h -4.76 v -1.76 c 1.24,-0.18 2.29,-0.39 3.14,-0.65 0.85,-0.25 1.62,-0.56 2.31,-0.92 h 2.03 v 18.97 h 5.56 v 2.26 h -14.41 z"
         id="path83" />
      <path
         class="cls-5"
         d="m 669.76,127.36 c -0.75,0 -1.39,-0.26 -1.91,-0.78 -0.52,-0.52 -0.78,-1.19 -0.78,-2.01 0,-0.82 0.26,-1.53 0.78,-2.05 0.52,-0.52 1.16,-0.78 1.91,-0.78 0.75,0 1.39,0.26 1.91,0.78 0.52,0.52 0.78,1.2 0.78,2.05 0,0.85 -0.26,1.49 -0.78,2.01 -0.52,0.52 -1.16,0.78 -1.91,0.78 z"
         id="path85" />
      <path
         class="cls-5"
         d="m 689.73,127.36 c -0.75,0 -1.39,-0.26 -1.91,-0.78 -0.52,-0.52 -0.78,-1.19 -0.78,-2.01 0,-0.82 0.26,-1.53 0.78,-2.05 0.52,-0.52 1.16,-0.78 1.91,-0.78 0.75,0 1.39,0.26 1.91,0.78 0.52,0.52 0.78,1.2 0.78,2.05 0,0.85 -0.26,1.49 -0.78,2.01 -0.52,0.52 -1.16,0.78 -1.91,0.78 z"
         id="path87" />
      <path
         class="cls-5"
         d="m 709.7,127.36 c -0.75,0 -1.39,-0.26 -1.91,-0.78 -0.52,-0.52 -0.78,-1.19 -0.78,-2.01 0,-0.82 0.26,-1.53 0.78,-2.05 0.52,-0.52 1.16,-0.78 1.91,-0.78 0.75,0 1.39,0.26 1.91,0.78 0.52,0.52 0.78,1.2 0.78,2.05 0,0.85 -0.26,1.49 -0.78,2.01 -0.52,0.52 -1.16,0.78 -1.91,0.78 z"
         id="path89" />
    </g>
    <g
       id="g111">
      <path
         class="cls-5"
         d="m 549.96,208.1 c -2.35,0 -4.21,-0.97 -5.58,-2.9 -1.36,-1.93 -2.05,-4.66 -2.05,-8.19 0,-3.53 0.68,-6.29 2.05,-8.15 1.37,-1.86 3.22,-2.8 5.58,-2.8 2.36,0 4.24,0.93 5.59,2.8 1.35,1.86 2.03,4.58 2.03,8.15 0,3.57 -0.68,6.26 -2.03,8.19 -1.35,1.93 -3.22,2.9 -5.59,2.9 z m 0,-2.2 c 1.49,0 2.7,-0.72 3.64,-2.16 0.94,-1.44 1.41,-3.68 1.41,-6.72 0,-3.04 -0.47,-5.29 -1.41,-6.67 -0.94,-1.39 -2.16,-2.08 -3.64,-2.08 -1.48,0 -2.7,0.69 -3.64,2.08 -0.94,1.39 -1.41,3.61 -1.41,6.67 0,3.06 0.47,5.28 1.41,6.72 0.94,1.44 2.16,2.16 3.64,2.16 z m 0,-6.89 c -0.56,0 -1.04,-0.2 -1.45,-0.6 -0.41,-0.4 -0.62,-0.94 -0.62,-1.63 0,-0.69 0.2,-1.23 0.62,-1.61 0.41,-0.39 0.89,-0.58 1.45,-0.58 0.56,0 1.04,0.19 1.45,0.58 0.41,0.39 0.62,0.93 0.62,1.61 0,0.68 -0.21,1.23 -0.62,1.63 -0.41,0.4 -0.89,0.6 -1.45,0.6 z"
         id="path93" />
      <path
         class="cls-5"
         d="m 562.07,207.7 6.16,-8.39 -5.69,-7.79 h 3.03 l 2.56,3.56 c 0.29,0.42 0.59,0.87 0.92,1.35 0.32,0.48 0.65,0.94 0.98,1.38 h 0.13 c 0.31,-0.44 0.62,-0.91 0.93,-1.4 0.31,-0.49 0.61,-0.95 0.9,-1.4 l 2.43,-3.49 h 2.9 l -5.76,8.02 6.19,8.15 h -3 l -2.83,-3.73 c -0.33,-0.47 -0.68,-0.95 -1.05,-1.46 -0.37,-0.51 -0.73,-1 -1.08,-1.46 h -0.13 c -0.33,0.49 -0.67,0.97 -1,1.45 -0.33,0.48 -0.67,0.97 -1,1.48 L 565,207.7 Z"
         id="path95" />
      <path
         class="cls-5"
         d="m 591.59,208.1 c -1.8,0 -3.41,-0.45 -4.84,-1.35 -1.43,-0.9 -2.57,-2.19 -3.41,-3.88 -0.84,-1.69 -1.26,-3.72 -1.26,-6.09 0,-2.37 0.42,-4.37 1.26,-6.06 0.84,-1.69 2,-2.98 3.48,-3.89 1.48,-0.91 3.16,-1.36 5.04,-1.36 1.31,0 2.47,0.27 3.49,0.8 1.02,0.53 1.84,1.15 2.46,1.86 l -1.56,1.76 c -0.56,-0.6 -1.2,-1.08 -1.93,-1.45 -0.73,-0.37 -1.55,-0.55 -2.46,-0.55 -1.4,0 -2.61,0.36 -3.64,1.08 -1.03,0.72 -1.84,1.74 -2.41,3.04 -0.58,1.31 -0.87,2.87 -0.87,4.69 0,1.82 0.29,3.4 0.87,4.74 0.58,1.34 1.38,2.38 2.41,3.11 1.03,0.73 2.25,1.1 3.64,1.1 1,0 1.9,-0.21 2.7,-0.63 0.8,-0.42 1.54,-1.02 2.23,-1.8 l 1.56,1.7 c -0.87,1 -1.85,1.78 -2.95,2.33 -1.1,0.55 -2.37,0.83 -3.81,0.83 z"
         id="path97" />
      <path
         class="cls-5"
         d="m 609.86,208.1 c -1.64,0 -3.1,-0.45 -4.36,-1.36 -1.26,-0.91 -2.25,-2.21 -2.96,-3.91 -0.71,-1.7 -1.06,-3.74 -1.06,-6.14 0,-2.4 0.35,-4.36 1.06,-6.04 0.71,-1.68 1.7,-2.96 2.96,-3.84 1.26,-0.89 2.72,-1.33 4.36,-1.33 1.64,0 3.09,0.44 4.36,1.33 1.26,0.89 2.25,2.17 2.96,3.84 0.71,1.68 1.06,3.69 1.06,6.04 0,2.35 -0.35,4.44 -1.06,6.14 -0.71,1.7 -1.7,3 -2.96,3.91 -1.26,0.91 -2.72,1.36 -4.36,1.36 z m 0,-2.43 c 1.66,0 3,-0.8 4.01,-2.4 1.01,-1.6 1.51,-3.79 1.51,-6.59 0,-2.8 -0.5,-4.9 -1.51,-6.46 -1.01,-1.55 -2.35,-2.33 -4.01,-2.33 -1.66,0 -3,0.78 -4.01,2.33 -1.01,1.55 -1.51,3.71 -1.51,6.46 0,2.75 0.5,4.99 1.51,6.59 1.01,1.6 2.35,2.4 4.01,2.4 z"
         id="path99" />
      <path
         class="cls-5"
         d="m 624.27,207.7 v -21.83 h 13.41 v 2.33 h -10.62 v 7.39 h 8.99 v 2.33 h -8.99 v 9.78 h -2.8 z"
         id="path101" />
      <path
         class="cls-5"
         d="m 643.6,207.7 v -21.83 h 13.51 v 2.33 h -10.72 v 6.86 h 9.05 v 2.36 h -9.05 v 7.92 h 11.05 v 2.36 z"
         id="path103" />
      <path
         class="cls-5"
         d="m 669.76,208.1 c -0.75,0 -1.39,-0.26 -1.91,-0.78 -0.52,-0.52 -0.78,-1.19 -0.78,-2.01 0,-0.82 0.26,-1.53 0.78,-2.05 0.52,-0.52 1.16,-0.78 1.91,-0.78 0.75,0 1.39,0.26 1.91,0.78 0.52,0.52 0.78,1.2 0.78,2.05 0,0.85 -0.26,1.49 -0.78,2.01 -0.52,0.52 -1.16,0.78 -1.91,0.78 z"
         id="path105" />
      <path
         class="cls-5"
         d="m 689.73,208.1 c -0.75,0 -1.39,-0.26 -1.91,-0.78 -0.52,-0.52 -0.78,-1.19 -0.78,-2.01 0,-0.82 0.26,-1.53 0.78,-2.05 0.52,-0.52 1.16,-0.78 1.91,-0.78 0.75,0 1.39,0.26 1.91,0.78 0.52,0.52 0.78,1.2 0.78,2.05 0,0.85 -0.26,1.49 -0.78,2.01 -0.52,0.52 -1.16,0.78 -1.91,0.78 z"
         id="path107" />
      <path
         class="cls-5"
         d="m 709.7,208.1 c -0.75,0 -1.39,-0.26 -1.91,-0.78 -0.52,-0.52 -0.78,-1.19 -0.78,-2.01 0,-0.82 0.26,-1.53 0.78,-2.05 0.52,-0.52 1.16,-0.78 1.91,-0.78 0.75,0 1.39,0.26 1.91,0.78 0.52,0.52 0.78,1.2 0.78,2.05 0,0.85 -0.26,1.49 -0.78,2.01 -0.52,0.52 -1.16,0.78 -1.91,0.78 z"
         id="path109" />
    </g>
    <g
       id="g131">
      <path
         class="cls-5"
         d="m 549.96,289.63 c -2.35,0 -4.21,-0.97 -5.58,-2.9 -1.36,-1.93 -2.05,-4.66 -2.05,-8.19 0,-3.53 0.68,-6.29 2.05,-8.15 1.37,-1.86 3.22,-2.8 5.58,-2.8 2.36,0 4.24,0.93 5.59,2.8 1.35,1.86 2.03,4.58 2.03,8.15 0,3.57 -0.68,6.26 -2.03,8.19 -1.35,1.93 -3.22,2.9 -5.59,2.9 z m 0,-2.2 c 1.49,0 2.7,-0.72 3.64,-2.16 0.94,-1.44 1.41,-3.68 1.41,-6.72 0,-3.04 -0.47,-5.29 -1.41,-6.67 -0.94,-1.39 -2.16,-2.08 -3.64,-2.08 -1.48,0 -2.7,0.69 -3.64,2.08 -0.94,1.39 -1.41,3.61 -1.41,6.67 0,3.06 0.47,5.28 1.41,6.72 0.94,1.44 2.16,2.16 3.64,2.16 z m 0,-6.89 c -0.56,0 -1.04,-0.2 -1.45,-0.6 -0.41,-0.4 -0.62,-0.94 -0.62,-1.63 0,-0.69 0.2,-1.23 0.62,-1.61 0.41,-0.39 0.89,-0.58 1.45,-0.58 0.56,0 1.04,0.19 1.45,0.58 0.41,0.39 0.62,0.93 0.62,1.61 0,0.68 -0.21,1.23 -0.62,1.63 -0.41,0.4 -0.89,0.6 -1.45,0.6 z"
         id="path113" />
      <path
         class="cls-5"
         d="m 562.07,289.23 6.16,-8.39 -5.69,-7.79 h 3.03 l 2.56,3.56 c 0.29,0.42 0.59,0.87 0.92,1.35 0.32,0.48 0.65,0.94 0.98,1.38 h 0.13 c 0.31,-0.44 0.62,-0.91 0.93,-1.4 0.31,-0.49 0.61,-0.95 0.9,-1.4 l 2.43,-3.49 h 2.9 l -5.76,8.02 6.19,8.15 h -3 l -2.83,-3.73 c -0.33,-0.47 -0.68,-0.95 -1.05,-1.46 -0.37,-0.51 -0.73,-1 -1.08,-1.46 h -0.13 c -0.33,0.49 -0.67,0.97 -1,1.45 -0.33,0.48 -0.67,0.97 -1,1.48 l -2.66,3.73 z"
         id="path115" />
      <path
         class="cls-5"
         d="m 583.14,289.23 v -2.26 h 6.12 v -15.64 h -4.76 v -1.76 c 1.24,-0.18 2.29,-0.39 3.14,-0.65 0.85,-0.25 1.62,-0.56 2.31,-0.92 h 2.03 v 18.97 h 5.56 v 2.26 h -14.41 z"
         id="path117" />
      <path
         class="cls-5"
         d="m 600.94,289.23 7.35,-21.83 h 3.13 l 7.36,21.83 h -2.93 l -2.06,-6.66 h -7.92 l -2.1,6.66 z m 6.66,-12.21 -1.03,3.33 h 6.52 l -1.03,-3.33 c -0.38,-1.22 -0.75,-2.43 -1.12,-3.64 -0.37,-1.21 -0.72,-2.45 -1.05,-3.71 h -0.13 c -0.35,1.26 -0.71,2.5 -1.06,3.71 -0.36,1.21 -0.72,2.42 -1.1,3.64 z"
         id="path119" />
      <path
         class="cls-5"
         d="m 629.83,289.63 c -2.35,0 -4.21,-0.97 -5.58,-2.9 -1.36,-1.93 -2.05,-4.66 -2.05,-8.19 0,-3.53 0.68,-6.29 2.05,-8.15 1.37,-1.86 3.22,-2.8 5.58,-2.8 2.36,0 4.24,0.93 5.59,2.8 1.35,1.86 2.03,4.58 2.03,8.15 0,3.57 -0.68,6.26 -2.03,8.19 -1.35,1.93 -3.22,2.9 -5.59,2.9 z m 0,-2.2 c 1.49,0 2.7,-0.72 3.64,-2.16 0.94,-1.44 1.41,-3.68 1.41,-6.72 0,-3.04 -0.47,-5.29 -1.41,-6.67 -0.94,-1.39 -2.16,-2.08 -3.64,-2.08 -1.48,0 -2.7,0.69 -3.64,2.08 -0.94,1.39 -1.41,3.61 -1.41,6.67 0,3.06 0.47,5.28 1.41,6.72 0.94,1.44 2.16,2.16 3.64,2.16 z m 0,-6.89 c -0.56,0 -1.04,-0.2 -1.45,-0.6 -0.41,-0.4 -0.62,-0.94 -0.62,-1.63 0,-0.69 0.2,-1.23 0.62,-1.61 0.41,-0.39 0.89,-0.58 1.45,-0.58 0.56,0 1.04,0.19 1.45,0.58 0.41,0.39 0.62,0.93 0.62,1.61 0,0.68 -0.21,1.23 -0.62,1.63 -0.41,0.4 -0.89,0.6 -1.45,0.6 z"
         id="path121" />
      <path
         class="cls-5"
         d="M 644.24,289.23 V 267.4 h 13.41 v 2.33 h -10.62 v 7.39 h 8.99 v 2.33 h -8.99 v 9.78 h -2.8 z"
         id="path123" />
      <path
         class="cls-5"
         d="m 669.76,289.63 c -0.75,0 -1.39,-0.26 -1.91,-0.78 -0.52,-0.52 -0.78,-1.19 -0.78,-2.01 0,-0.82 0.26,-1.53 0.78,-2.05 0.52,-0.52 1.16,-0.78 1.91,-0.78 0.75,0 1.39,0.26 1.91,0.78 0.52,0.52 0.78,1.2 0.78,2.05 0,0.85 -0.26,1.49 -0.78,2.01 -0.52,0.52 -1.16,0.78 -1.91,0.78 z"
         id="path125" />
      <path
         class="cls-5"
         d="m 689.73,289.63 c -0.75,0 -1.39,-0.26 -1.91,-0.78 -0.52,-0.52 -0.78,-1.19 -0.78,-2.01 0,-0.82 0.26,-1.53 0.78,-2.05 0.52,-0.52 1.16,-0.78 1.91,-0.78 0.75,0 1.39,0.26 1.91,0.78 0.52,0.52 0.78,1.2 0.78,2.05 0,0.85 -0.26,1.49 -0.78,2.01 -0.52,0.52 -1.16,0.78 -1.91,0.78 z"
         id="path127" />
      <path
         class="cls-5"
         d="m 709.7,289.63 c -0.75,0 -1.39,-0.26 -1.91,-0.78 -0.52,-0.52 -0.78,-1.19 -0.78,-2.01 0,-0.82 0.26,-1.53 0.78,-2.05 0.52,-0.52 1.16,-0.78 1.91,-0.78 0.75,0 1.39,0.26 1.91,0.78 0.52,0.52 0.78,1.2 0.78,2.05 0,0.85 -0.26,1.49 -0.78,2.01 -0.52,0.52 -1.16,0.78 -1.91,0.78 z"
         id="path129" />
    </g>
    <g
       id="g151">
      <path
         class="cls-5"
         d="m 549.96,694.83 c -2.35,0 -4.21,-0.96 -5.58,-2.9 -1.36,-1.93 -2.05,-4.66 -2.05,-8.19 0,-3.53 0.68,-6.29 2.05,-8.15 1.37,-1.86 3.22,-2.8 5.58,-2.8 2.36,0 4.24,0.93 5.59,2.8 1.35,1.86 2.03,4.58 2.03,8.15 0,3.57 -0.68,6.26 -2.03,8.19 -1.35,1.93 -3.22,2.9 -5.59,2.9 z m 0,-2.2 c 1.49,0 2.7,-0.72 3.64,-2.16 0.94,-1.44 1.41,-3.68 1.41,-6.72 0,-3.04 -0.47,-5.29 -1.41,-6.67 -0.94,-1.38 -2.16,-2.08 -3.64,-2.08 -1.48,0 -2.7,0.69 -3.64,2.08 -0.94,1.39 -1.41,3.61 -1.41,6.67 0,3.06 0.47,5.28 1.41,6.72 0.94,1.44 2.16,2.16 3.64,2.16 z m 0,-6.89 c -0.56,0 -1.04,-0.2 -1.45,-0.6 -0.41,-0.4 -0.62,-0.94 -0.62,-1.63 0,-0.69 0.2,-1.23 0.62,-1.61 0.41,-0.39 0.89,-0.58 1.45,-0.58 0.56,0 1.04,0.19 1.45,0.58 0.41,0.39 0.62,0.93 0.62,1.61 0,0.68 -0.21,1.23 -0.62,1.63 -0.41,0.4 -0.89,0.6 -1.45,0.6 z"
         id="path133" />
      <path
         class="cls-5"
         d="m 562.07,694.43 6.16,-8.39 -5.69,-7.79 h 3.03 l 2.56,3.56 c 0.29,0.42 0.59,0.87 0.92,1.35 0.32,0.48 0.65,0.94 0.98,1.38 h 0.13 c 0.31,-0.44 0.62,-0.91 0.93,-1.4 0.31,-0.49 0.61,-0.95 0.9,-1.4 l 2.43,-3.49 h 2.9 l -5.76,8.02 6.19,8.15 h -3 l -2.83,-3.73 c -0.33,-0.47 -0.68,-0.95 -1.05,-1.46 -0.37,-0.51 -0.73,-1 -1.08,-1.46 h -0.13 c -0.33,0.49 -0.67,0.97 -1,1.45 -0.33,0.48 -0.67,0.97 -1,1.48 l -2.66,3.73 z"
         id="path135" />
      <path
         class="cls-5"
         d="m 589.43,694.83 c -1.89,0 -3.43,-0.3 -4.62,-0.9 -1.2,-0.6 -2.21,-1.26 -3.03,-2 l 1.37,-1.8 c 0.71,0.62 1.53,1.18 2.46,1.68 0.93,0.5 2.11,0.75 3.53,0.75 1,0 1.91,-0.2 2.73,-0.6 0.82,-0.4 1.47,-0.96 1.95,-1.7 0.48,-0.73 0.71,-1.59 0.71,-2.56 0,-1.46 -0.48,-2.61 -1.43,-3.43 -0.95,-0.82 -2.22,-1.23 -3.79,-1.23 -0.89,0 -1.64,0.11 -2.26,0.33 -0.62,0.22 -1.31,0.54 -2.06,0.96 l -1.46,-0.93 0.7,-10.22 h 12.01 v 2.36 h -9.58 l -0.57,6.29 c 0.62,-0.27 1.23,-0.48 1.81,-0.63 0.58,-0.15 1.29,-0.23 2.11,-0.23 1.35,0 2.58,0.24 3.68,0.72 1.1,0.48 1.97,1.2 2.63,2.18 0.65,0.98 0.98,2.23 0.98,3.76 0,1.53 -0.37,2.83 -1.12,3.91 -0.74,1.08 -1.71,1.89 -2.91,2.45 -1.2,0.55 -2.47,0.83 -3.83,0.83 z"
         id="path137" />
      <path
         class="cls-5"
         d="m 612.12,694.43 v -5.86 h -10.95 v -1.83 l 10.62,-13.54 h 2.93 v 13.18 h 3.29 v 2.2 h -3.29 v 5.86 h -2.6 z m -7.92,-8.05 h 7.92 v -6.59 c 0.02,-0.58 0.05,-1.2 0.08,-1.88 0.03,-0.68 0.06,-1.3 0.08,-1.88 h -0.17 c -0.33,0.51 -0.69,1.03 -1.07,1.55 -0.38,0.52 -0.74,1.04 -1.1,1.55 l -5.76,7.25 z"
         id="path139" />
      <path
         class="cls-5"
         d="m 628.4,694.83 c -1.29,0 -2.42,-0.22 -3.39,-0.65 -0.97,-0.43 -1.82,-0.96 -2.53,-1.58 l 1.53,-1.73 c 0.53,0.51 1.17,0.92 1.9,1.23 0.73,0.31 1.51,0.47 2.33,0.47 1.13,0 2.17,-0.29 3.13,-0.87 0.96,-0.58 1.74,-1.53 2.35,-2.86 0.61,-1.33 0.94,-3.13 0.98,-5.39 -0.87,0.84 -1.81,1.51 -2.85,2 -1.03,0.49 -2.09,0.73 -3.18,0.73 -1.95,0 -3.54,-0.55 -4.76,-1.65 -1.22,-1.1 -1.83,-2.73 -1.83,-4.91 0,-1.35 0.33,-2.54 0.98,-3.56 0.65,-1.02 1.52,-1.82 2.6,-2.4 1.08,-0.58 2.23,-0.87 3.48,-0.87 1.55,0 2.94,0.38 4.16,1.13 1.22,0.75 2.19,1.89 2.91,3.39 0.72,1.51 1.08,3.41 1.08,5.69 0,2.13 -0.24,3.94 -0.73,5.44 -0.49,1.5 -1.15,2.72 -1.98,3.66 -0.83,0.94 -1.78,1.63 -2.85,2.06 -1.06,0.43 -2.17,0.65 -3.33,0.65 z m -3.73,-15.21 c 0,1.44 0.38,2.55 1.15,3.33 0.77,0.78 1.89,1.17 3.38,1.17 0.84,0 1.74,-0.22 2.7,-0.67 0.95,-0.44 1.86,-1.17 2.73,-2.16 -0.22,-2.06 -0.79,-3.63 -1.71,-4.71 -0.92,-1.08 -2.17,-1.61 -3.74,-1.61 -1.26,0 -2.33,0.43 -3.2,1.28 -0.87,0.85 -1.3,1.98 -1.3,3.38 z"
         id="path141" />
      <path
         class="cls-5"
         d="M 642.71,694.43 V 672.6 h 5.39 c 3.28,0 5.79,0.94 7.52,2.81 1.73,1.88 2.6,4.54 2.6,8 0,3.46 -0.86,6.19 -2.58,8.12 -1.72,1.93 -4.19,2.9 -7.4,2.9 h -5.52 z m 2.76,-2.26 h 2.43 c 2.51,0 4.38,-0.77 5.61,-2.31 1.23,-1.54 1.85,-3.69 1.85,-6.44 0,-2.75 -0.62,-4.86 -1.85,-6.34 -1.23,-1.48 -3.1,-2.21 -5.61,-2.21 h -2.43 v 17.31 z"
         id="path143" />
      <path
         class="cls-5"
         d="m 669.76,694.83 c -0.75,0 -1.39,-0.26 -1.91,-0.78 -0.52,-0.52 -0.78,-1.19 -0.78,-2.01 0,-0.82 0.26,-1.52 0.78,-2.05 0.52,-0.53 1.16,-0.78 1.91,-0.78 0.75,0 1.39,0.26 1.91,0.78 0.52,0.52 0.78,1.2 0.78,2.05 0,0.85 -0.26,1.49 -0.78,2.01 -0.52,0.52 -1.16,0.78 -1.91,0.78 z"
         id="path145" />
      <path
         class="cls-5"
         d="m 689.73,694.83 c -0.75,0 -1.39,-0.26 -1.91,-0.78 -0.52,-0.52 -0.78,-1.19 -0.78,-2.01 0,-0.82 0.26,-1.52 0.78,-2.05 0.52,-0.53 1.16,-0.78 1.91,-0.78 0.75,0 1.39,0.26 1.91,0.78 0.52,0.52 0.78,1.2 0.78,2.05 0,0.85 -0.26,1.49 -0.78,2.01 -0.52,0.52 -1.16,0.78 -1.91,0.78 z"
         id="path147" />
      <path
         class="cls-5"
         d="m 709.7,694.83 c -0.75,0 -1.39,-0.26 -1.91,-0.78 -0.52,-0.52 -0.78,-1.19 -0.78,-2.01 0,-0.82 0.26,-1.52 0.78,-2.05 0.52,-0.53 1.16,-0.78 1.91,-0.78 0.75,0 1.39,0.26 1.91,0.78 0.52,0.52 0.78,1.2 0.78,2.05 0,0.85 -0.26,1.49 -0.78,2.01 -0.52,0.52 -1.16,0.78 -1.91,0.78 z"
         id="path149" />
    </g>
    <g
       id="g161">
      <path
         class="cls-5"
         d="m 549.96,534.6 c -2.35,0 -4.21,-0.96 -5.58,-2.9 -1.36,-1.93 -2.05,-4.66 -2.05,-8.19 0,-3.53 0.68,-6.29 2.05,-8.15 1.37,-1.86 3.22,-2.8 5.58,-2.8 2.36,0 4.24,0.93 5.59,2.8 1.35,1.86 2.03,4.58 2.03,8.15 0,3.57 -0.68,6.26 -2.03,8.19 -1.35,1.93 -3.22,2.9 -5.59,2.9 z m 0,-2.2 c 1.49,0 2.7,-0.72 3.64,-2.16 0.94,-1.44 1.41,-3.68 1.41,-6.72 0,-3.04 -0.47,-5.29 -1.41,-6.67 -0.94,-1.38 -2.16,-2.08 -3.64,-2.08 -1.48,0 -2.7,0.69 -3.64,2.08 -0.94,1.39 -1.41,3.61 -1.41,6.67 0,3.06 0.47,5.28 1.41,6.72 0.94,1.44 2.16,2.16 3.64,2.16 z m 0,-6.89 c -0.56,0 -1.04,-0.2 -1.45,-0.6 -0.41,-0.4 -0.62,-0.94 -0.62,-1.63 0,-0.69 0.2,-1.23 0.62,-1.61 0.41,-0.39 0.89,-0.58 1.45,-0.58 0.56,0 1.04,0.19 1.45,0.58 0.41,0.39 0.62,0.93 0.62,1.61 0,0.68 -0.21,1.23 -0.62,1.63 -0.41,0.4 -0.89,0.6 -1.45,0.6 z"
         id="path153" />
      <path
         class="cls-5"
         d="m 562.07,534.2 6.16,-8.39 -5.69,-7.79 h 3.03 l 2.56,3.56 c 0.29,0.42 0.59,0.87 0.92,1.35 0.32,0.48 0.65,0.94 0.98,1.38 h 0.13 c 0.31,-0.44 0.62,-0.91 0.93,-1.4 0.31,-0.49 0.61,-0.95 0.9,-1.4 l 2.43,-3.49 h 2.9 l -5.76,8.02 6.19,8.15 h -3 l -2.83,-3.73 c -0.33,-0.47 -0.68,-0.95 -1.05,-1.46 -0.37,-0.51 -0.73,-1 -1.08,-1.46 h -0.13 c -0.33,0.49 -0.67,0.97 -1,1.45 -0.33,0.48 -0.67,0.97 -1,1.48 L 565,534.2 Z"
         id="path155" />
      <path
         class="cls-5"
         d="m 589.89,534.6 c -2.35,0 -4.21,-0.96 -5.58,-2.9 -1.36,-1.93 -2.05,-4.66 -2.05,-8.19 0,-3.53 0.68,-6.29 2.05,-8.15 1.37,-1.86 3.22,-2.8 5.58,-2.8 2.36,0 4.24,0.93 5.59,2.8 1.35,1.86 2.03,4.58 2.03,8.15 0,3.57 -0.68,6.26 -2.03,8.19 -1.35,1.93 -3.22,2.9 -5.59,2.9 z m 0,-2.2 c 1.49,0 2.7,-0.72 3.64,-2.16 0.94,-1.44 1.41,-3.68 1.41,-6.72 0,-3.04 -0.47,-5.29 -1.41,-6.67 -0.94,-1.38 -2.16,-2.08 -3.64,-2.08 -1.48,0 -2.7,0.69 -3.64,2.08 -0.94,1.39 -1.41,3.61 -1.41,6.67 0,3.06 0.47,5.28 1.41,6.72 0.94,1.44 2.16,2.16 3.64,2.16 z m 0,-6.89 c -0.56,0 -1.04,-0.2 -1.45,-0.6 -0.41,-0.4 -0.62,-0.94 -0.62,-1.63 0,-0.69 0.2,-1.23 0.62,-1.61 0.41,-0.39 0.89,-0.58 1.45,-0.58 0.56,0 1.04,0.19 1.45,0.58 0.41,0.39 0.62,0.93 0.62,1.61 0,0.68 -0.21,1.23 -0.62,1.63 -0.41,0.4 -0.89,0.6 -1.45,0.6 z"
         id="path157" />
      <path
         class="cls-5"
         d="m 603.1,534.2 v -2.26 h 6.12 V 516.3 h -4.76 v -1.76 c 1.24,-0.18 2.29,-0.39 3.14,-0.65 0.85,-0.26 1.62,-0.56 2.31,-0.92 h 2.03 v 18.97 h 5.56 v 2.26 h -14.41 z"
         id="path159" />
    </g>
  </g>
  <text
     xml:space="preserve"
     id="text485"
     style="font-size:40px;line-height:1.25;font-family:'Fira Sans';-inkscape-font-specification:'Fira Sans';white-space:pre;shape-inside:url(#rect487);display:inline" />
  <text
     xml:space="preserve"
     style="font-size:40px;line-height:1.25;font-family:'Fira Sans';-inkscape-font-specification:'Fira Sans'"
     x="1044.3011"
     y="239.82375"
     id="text493"><tspan
       sodipodi:role="line"
       id="tspan491"
       x="1044.3011"
       y="239.82375" /></text>
  <text
     xml:space="preserve"
     style="font-size:85.3333px;line-height:1.25;font-family:'Fira Sans';-inkscape-font-specification:'Fira Sans';fill:#ffffff"
     x="1073.0889"
     y="184.76218"
     id="text547"><tspan
       sodipodi:role="line"
       id="tspan545"
       x="1073.0889"
       y="184.76218" /></text>
  <g
     aria-label="Key / Value Database

- Arbitrary key length
- SCALE encoded values

"
     id="text551"
     style="font-size:48px;line-height:1.25;font-family:'Fira Sans';-inkscape-font-specification:'Fira Sans'">
    <path
       d="m 1037.3416,311.43712 -0.336,-7.392 17.616,-18.288 h 7.008 l -14.64,15.552 -3.456,3.792 z m -5.568,7.92 v -33.6 h 6.24 v 33.6 z m 23.424,0 -12.864,-15.312 4.128,-4.56 16.032,19.872 z"
       style="font-weight:600;font-family:Montserrat;-inkscape-font-specification:'Montserrat Semi-Bold';fill:#ffffff"
       id="path1171" />
    <path
       d="m 1077.1336,319.69312 q -4.272,0 -7.488,-1.68 -3.168,-1.728 -4.944,-4.704 -1.728,-2.976 -1.728,-6.768 0,-3.84 1.68,-6.768 1.728,-2.976 4.704,-4.656 3.024,-1.68 6.864,-1.68 3.744,0 6.672,1.632 2.928,1.632 4.608,4.608 1.68,2.976 1.68,7.008 0,0.384 -0.048,0.864 0,0.48 -0.048,0.912 h -21.36 v -3.984 h 18.192 l -2.352,1.248 q 0.048,-2.208 -0.912,-3.888 -0.96,-1.68 -2.64,-2.64 -1.632,-0.96 -3.792,-0.96 -2.208,0 -3.888,0.96 -1.632,0.96 -2.592,2.688 -0.912,1.68 -0.912,3.984 v 0.96 q 0,2.304 1.056,4.08 1.056,1.776 2.976,2.736 1.92,0.96 4.416,0.96 2.16,0 3.888,-0.672 1.728,-0.672 3.072,-2.112 l 3.216,3.696 q -1.728,2.016 -4.368,3.12 -2.592,1.056 -5.952,1.056 z"
       style="font-weight:600;font-family:Montserrat;-inkscape-font-specification:'Montserrat Semi-Bold';fill:#ffffff"
       id="path1173" />
    <path
       d="m 1096.5735,329.00512 q -1.872,0 -3.744,-0.624 -1.872,-0.624 -3.12,-1.728 l 2.4,-4.416 q 0.912,0.816 2.064,1.296 1.152,0.48 2.352,0.48 1.632,0 2.64,-0.816 1.008,-0.816 1.872,-2.736 l 1.488,-3.36 0.48,-0.72 9.696,-22.656 h 5.76 l -12,27.696 q -1.2,2.88 -2.688,4.56 -1.44,1.68 -3.264,2.352 -1.776,0.672 -3.936,0.672 z m 5.28,-8.736 -11.568,-26.544 h 6.24 l 9.408,22.128 z"
       style="font-weight:600;font-family:Montserrat;-inkscape-font-specification:'Montserrat Semi-Bold';fill:#ffffff"
       id="path1175" />
    <path
       d="m 1130.0775,324.15712 15.84,-45.216 h 5.376 l -15.84,45.216 z"
       style="font-weight:600;font-family:Montserrat;-inkscape-font-specification:'Montserrat Semi-Bold';fill:#ffffff"
       id="path1177" />
    <path
       d="m 1177.0214,319.35712 -14.688,-33.6 h 6.768 l 13.104,30.384 h -3.888 l 13.248,-30.384 h 6.24 l -14.64,33.6 z"
       style="font-weight:600;font-family:Montserrat;-inkscape-font-specification:'Montserrat Semi-Bold';fill:#ffffff"
       id="path1179" />
    <path
       d="m 1214.6534,319.35712 v -5.184 l -0.336,-1.104 v -9.072 q 0,-2.64 -1.584,-4.08 -1.584,-1.488 -4.8,-1.488 -2.16,0 -4.272,0.672 -2.064,0.672 -3.504,1.872 l -2.352,-4.368 q 2.064,-1.584 4.896,-2.352 2.88,-0.816 5.952,-0.816 5.568,0 8.592,2.688 3.072,2.64 3.072,8.208 v 15.024 z m -8.064,0.336 q -2.88,0 -5.04,-0.96 -2.16,-1.008 -3.36,-2.736 -1.152,-1.776 -1.152,-3.984 0,-2.16 1.008,-3.888 1.056,-1.728 3.408,-2.736 2.352,-1.008 6.24,-1.008 h 7.44 v 3.984 h -7.008 q -3.072,0 -4.128,1.008 -1.056,0.96 -1.056,2.4 0,1.632 1.296,2.592 1.296,0.96 3.6,0.96 2.208,0 3.936,-1.008 1.776,-1.008 2.544,-2.976 l 1.008,3.6 q -0.864,2.256 -3.12,3.504 -2.208,1.248 -5.616,1.248 z"
       style="font-weight:600;font-family:Montserrat;-inkscape-font-specification:'Montserrat Semi-Bold';fill:#ffffff"
       id="path1181" />
    <path
       d="m 1227.9974,319.35712 v -35.616 h 6 v 35.616 z"
       style="font-weight:600;font-family:Montserrat;-inkscape-font-specification:'Montserrat Semi-Bold';fill:#ffffff"
       id="path1183" />
    <path
       d="m 1252.7174,319.69312 q -3.264,0 -5.76,-1.2 -2.496,-1.248 -3.888,-3.744 -1.392,-2.544 -1.392,-6.384 v -14.64 h 6 v 13.824 q 0,3.456 1.536,5.184 1.584,1.68 4.464,1.68 2.112,0 3.648,-0.864 1.584,-0.864 2.448,-2.592 0.912,-1.728 0.912,-4.272 v -12.96 h 6 v 25.632 h -5.712 v -6.912 l 1.008,2.112 q -1.296,2.496 -3.792,3.84 -2.496,1.296 -5.472,1.296 z"
       style="font-weight:600;font-family:Montserrat;-inkscape-font-specification:'Montserrat Semi-Bold';fill:#ffffff"
       id="path1185" />
    <path
       d="m 1286.6054,319.69312 q -4.272,0 -7.488,-1.68 -3.168,-1.728 -4.944,-4.704 -1.728,-2.976 -1.728,-6.768 0,-3.84 1.68,-6.768 1.728,-2.976 4.704,-4.656 3.024,-1.68 6.864,-1.68 3.744,0 6.672,1.632 2.928,1.632 4.608,4.608 1.68,2.976 1.68,7.008 0,0.384 -0.048,0.864 0,0.48 -0.048,0.912 h -21.36 v -3.984 h 18.192 l -2.352,1.248 q 0.048,-2.208 -0.912,-3.888 -0.96,-1.68 -2.64,-2.64 -1.632,-0.96 -3.792,-0.96 -2.208,0 -3.888,0.96 -1.632,0.96 -2.592,2.688 -0.912,1.68 -0.912,3.984 v 0.96 q 0,2.304 1.056,4.08 1.056,1.776 2.976,2.736 1.92,0.96 4.416,0.96 2.16,0 3.888,-0.672 1.728,-0.672 3.072,-2.112 l 3.216,3.696 q -1.728,2.016 -4.368,3.12 -2.592,1.056 -5.952,1.056 z"
       style="font-weight:600;font-family:Montserrat;-inkscape-font-specification:'Montserrat Semi-Bold';fill:#ffffff"
       id="path1187" />
    <path
       d="m 1318.2373,319.35712 v -33.6 h 14.688 q 5.472,0 9.6,2.112 4.128,2.112 6.432,5.856 2.304,3.744 2.304,8.832 0,5.04 -2.304,8.832 -2.304,3.744 -6.432,5.856 -4.128,2.112 -9.6,2.112 z m 6.24,-5.28 h 8.16 q 3.792,0 6.528,-1.44 2.784,-1.44 4.272,-4.032 1.536,-2.592 1.536,-6.048 0,-3.504 -1.536,-6.048 -1.488,-2.592 -4.272,-4.032 -2.736,-1.44 -6.528,-1.44 h -8.16 z"
       style="font-weight:600;font-family:Montserrat;-inkscape-font-specification:'Montserrat Semi-Bold';fill:#ffffff"
       id="path1189" />
    <path
       d="m 1373.1014,319.35712 v -5.184 l -0.336,-1.104 v -9.072 q 0,-2.64 -1.584,-4.08 -1.584,-1.488 -4.8,-1.488 -2.16,0 -4.272,0.672 -2.064,0.672 -3.504,1.872 l -2.352,-4.368 q 2.064,-1.584 4.896,-2.352 2.88,-0.816 5.952,-0.816 5.568,0 8.592,2.688 3.072,2.64 3.072,8.208 v 15.024 z m -8.064,0.336 q -2.88,0 -5.04,-0.96 -2.16,-1.008 -3.36,-2.736 -1.152,-1.776 -1.152,-3.984 0,-2.16 1.008,-3.888 1.056,-1.728 3.408,-2.736 2.352,-1.008 6.24,-1.008 h 7.44 v 3.984 h -7.008 q -3.072,0 -4.128,1.008 -1.056,0.96 -1.056,2.4 0,1.632 1.296,2.592 1.296,0.96 3.6,0.96 2.208,0 3.936,-1.008 1.776,-1.008 2.544,-2.976 l 1.008,3.6 q -0.864,2.256 -3.12,3.504 -2.208,1.248 -5.616,1.248 z"
       style="font-weight:600;font-family:Montserrat;-inkscape-font-specification:'Montserrat Semi-Bold';fill:#ffffff"
       id="path1191" />
    <path
       d="m 1396.0934,319.69312 q -4.224,0 -6.528,-2.16 -2.304,-2.208 -2.304,-6.48 v -22.992 h 6 v 22.848 q 0,1.824 0.912,2.832 0.96,1.008 2.64,1.008 2.016,0 3.36,-1.056 l 1.68,4.272 q -1.056,0.864 -2.592,1.296 -1.536,0.432 -3.168,0.432 z m -13.056,-20.976 v -4.8 h 17.088 v 4.8 z"
       style="font-weight:600;font-family:Montserrat;-inkscape-font-specification:'Montserrat Semi-Bold';fill:#ffffff"
       id="path1193" />
    <path
       d="m 1422.5894,319.35712 v -5.184 l -0.336,-1.104 v -9.072 q 0,-2.64 -1.584,-4.08 -1.584,-1.488 -4.8,-1.488 -2.16,0 -4.272,0.672 -2.064,0.672 -3.504,1.872 l -2.352,-4.368 q 2.064,-1.584 4.896,-2.352 2.88,-0.816 5.952,-0.816 5.568,0 8.592,2.688 3.072,2.64 3.072,8.208 v 15.024 z m -8.064,0.336 q -2.88,0 -5.04,-0.96 -2.16,-1.008 -3.36,-2.736 -1.152,-1.776 -1.152,-3.984 0,-2.16 1.008,-3.888 1.056,-1.728 3.408,-2.736 2.352,-1.008 6.24,-1.008 h 7.44 v 3.984 h -7.008 q -3.072,0 -4.128,1.008 -1.056,0.96 -1.056,2.4 0,1.632 1.296,2.592 1.296,0.96 3.6,0.96 2.208,0 3.936,-1.008 1.776,-1.008 2.544,-2.976 l 1.008,3.6 q -0.864,2.256 -3.12,3.504 -2.208,1.248 -5.616,1.248 z"
       style="font-weight:600;font-family:Montserrat;-inkscape-font-specification:'Montserrat Semi-Bold';fill:#ffffff"
       id="path1195" />
    <path
       d="m 1450.1414,319.69312 q -3.264,0 -5.808,-1.44 -2.544,-1.44 -4.032,-4.32 -1.44,-2.928 -1.44,-7.392 0,-4.512 1.488,-7.392 1.536,-2.88 4.08,-4.272 2.592,-1.44 5.712,-1.44 3.792,0 6.672,1.632 2.928,1.632 4.608,4.56 1.728,2.928 1.728,6.912 0,3.984 -1.728,6.912 -1.68,2.928 -4.608,4.608 -2.88,1.632 -6.672,1.632 z m -14.208,-0.336 v -35.616 h 6 v 15.936 l -0.48,6.816 0.192,6.816 v 6.048 z m 13.536,-4.8 q 2.16,0 3.84,-0.96 1.728,-0.96 2.736,-2.784 1.008,-1.824 1.008,-4.272 0,-2.496 -1.008,-4.272 -1.008,-1.824 -2.736,-2.784 -1.68,-0.96 -3.84,-0.96 -2.16,0 -3.888,0.96 -1.728,0.96 -2.736,2.784 -1.008,1.776 -1.008,4.272 0,2.448 1.008,4.272 1.008,1.824 2.736,2.784 1.728,0.96 3.888,0.96 z"
       style="font-weight:600;font-family:Montserrat;-inkscape-font-specification:'Montserrat Semi-Bold';fill:#ffffff"
       id="path1197" />
    <path
       d="m 1484.3174,319.35712 v -5.184 l -0.336,-1.104 v -9.072 q 0,-2.64 -1.584,-4.08 -1.584,-1.488 -4.8,-1.488 -2.16,0 -4.272,0.672 -2.064,0.672 -3.504,1.872 l -2.352,-4.368 q 2.064,-1.584 4.896,-2.352 2.88,-0.816 5.952,-0.816 5.568,0 8.592,2.688 3.072,2.64 3.072,8.208 v 15.024 z m -8.064,0.336 q -2.88,0 -5.04,-0.96 -2.16,-1.008 -3.36,-2.736 -1.152,-1.776 -1.152,-3.984 0,-2.16 1.008,-3.888 1.056,-1.728 3.408,-2.736 2.352,-1.008 6.24,-1.008 h 7.44 v 3.984 h -7.008 q -3.072,0 -4.128,1.008 -1.056,0.96 -1.056,2.4 0,1.632 1.296,2.592 1.296,0.96 3.6,0.96 2.208,0 3.936,-1.008 1.776,-1.008 2.544,-2.976 l 1.008,3.6 q -0.864,2.256 -3.12,3.504 -2.208,1.248 -5.616,1.248 z"
       style="font-weight:600;font-family:Montserrat;-inkscape-font-specification:'Montserrat Semi-Bold';fill:#ffffff"
       id="path1199" />
    <path
       d="m 1505.5814,319.69312 q -3.216,0 -6.192,-0.816 -2.928,-0.864 -4.656,-2.064 l 2.304,-4.56 q 1.728,1.104 4.128,1.824 2.4,0.72 4.8,0.72 2.832,0 4.08,-0.768 1.296,-0.768 1.296,-2.064 0,-1.056 -0.864,-1.584 -0.864,-0.576 -2.256,-0.864 -1.392,-0.288 -3.12,-0.528 -1.68,-0.24 -3.408,-0.624 -1.68,-0.432 -3.072,-1.2 -1.392,-0.816 -2.256,-2.16 -0.864,-1.344 -0.864,-3.552 0,-2.448 1.392,-4.224 1.392,-1.824 3.888,-2.784 2.544,-1.008 6,-1.008 2.592,0 5.232,0.576 2.64,0.576 4.368,1.632 l -2.304,4.56 q -1.824,-1.104 -3.696,-1.488 -1.824,-0.432 -3.648,-0.432 -2.736,0 -4.08,0.816 -1.296,0.816 -1.296,2.064 0,1.152 0.864,1.728 0.864,0.576 2.256,0.912 1.392,0.336 3.072,0.576 1.728,0.192 3.408,0.624 1.68,0.432 3.072,1.2 1.44,0.72 2.304,2.064 0.864,1.344 0.864,3.504 0,2.4 -1.44,4.176 -1.392,1.776 -3.984,2.784 -2.592,0.96 -6.192,0.96 z"
       style="font-weight:600;font-family:Montserrat;-inkscape-font-specification:'Montserrat Semi-Bold';fill:#ffffff"
       id="path1201" />
    <path
       d="m 1534.4294,319.69312 q -4.272,0 -7.488,-1.68 -3.168,-1.728 -4.944,-4.704 -1.728,-2.976 -1.728,-6.768 0,-3.84 1.68,-6.768 1.728,-2.976 4.704,-4.656 3.024,-1.68 6.864,-1.68 3.744,0 6.672,1.632 2.928,1.632 4.608,4.608 1.68,2.976 1.68,7.008 0,0.384 -0.048,0.864 0,0.48 -0.048,0.912 h -21.36 v -3.984 h 18.192 l -2.352,1.248 q 0.048,-2.208 -0.912,-3.888 -0.96,-1.68 -2.64,-2.64 -1.632,-0.96 -3.792,-0.96 -2.208,0 -3.888,0.96 -1.632,0.96 -2.592,2.688 -0.912,1.68 -0.912,3.984 v 0.96 q 0,2.304 1.056,4.08 1.056,1.776 2.976,2.736 1.92,0.96 4.416,0.96 2.16,0 3.888,-0.672 1.728,-0.672 3.072,-2.112 l 3.216,3.696 q -1.728,2.016 -4.368,3.12 -2.592,1.056 -5.952,1.056 z"
       style="font-weight:600;font-family:Montserrat;-inkscape-font-specification:'Montserrat Semi-Bold';fill:#ffffff"
       id="path1203" />
    <path
       d="m 1029.9016,429.94209 v -4.992 h 13.2 v 4.992 z"
       style="font-weight:600;font-family:Montserrat;-inkscape-font-specification:'Montserrat Semi-Bold';fill:#ffffff"
       id="path1205" />
    <path
       d="m 1058.7496,440.79009 15.12,-33.6 h 6.144 l 15.168,33.6 h -6.528 l -13.008,-30.288 h 2.496 l -12.96,30.288 z m 6.96,-7.776 1.68,-4.896 h 18.144 l 1.68,4.896 z"
       style="font-weight:600;font-family:Montserrat;-inkscape-font-specification:'Montserrat Semi-Bold';fill:#ffffff"
       id="path1207" />
    <path
       d="m 1098.8776,440.79009 v -25.632 h 5.712 v 7.056 l -0.672,-2.064 q 1.152,-2.592 3.6,-3.936 2.496,-1.344 6.192,-1.344 v 5.712 q -0.384,-0.096 -0.72,-0.096 -0.336,-0.048 -0.672,-0.048 -3.408,0 -5.424,2.016 -2.016,1.968 -2.016,5.904 v 12.432 z"
       style="font-weight:600;font-family:Montserrat;-inkscape-font-specification:'Montserrat Semi-Bold';fill:#ffffff"
       id="path1209" />
    <path
       d="m 1133.0056,441.12609 q -3.264,0 -5.808,-1.44 -2.544,-1.44 -4.032,-4.32 -1.44,-2.928 -1.44,-7.392 0,-4.512 1.488,-7.392 1.536,-2.88 4.08,-4.272 2.592,-1.44 5.712,-1.44 3.792,0 6.672,1.632 2.928,1.632 4.608,4.56 1.728,2.928 1.728,6.912 0,3.984 -1.728,6.912 -1.68,2.928 -4.608,4.608 -2.88,1.632 -6.672,1.632 z m -14.208,-0.336 v -35.616 h 6 v 15.936 l -0.48,6.816 0.192,6.816 v 6.048 z m 13.536,-4.8 q 2.16,0 3.84,-0.96 1.728,-0.96 2.736,-2.784 1.008,-1.824 1.008,-4.272 0,-2.496 -1.008,-4.272 -1.008,-1.824 -2.736,-2.784 -1.68,-0.96 -3.84,-0.96 -2.16,0 -3.888,0.96 -1.728,0.96 -2.736,2.784 -1.008,1.776 -1.008,4.272 0,2.448 1.008,4.272 1.008,1.824 2.736,2.784 1.728,0.96 3.888,0.96 z"
       style="font-weight:600;font-family:Montserrat;-inkscape-font-specification:'Montserrat Semi-Bold';fill:#ffffff"
       id="path1211" />
    <path
       d="m 1151.7257,440.79009 v -25.632 h 6 v 25.632 z m 3.024,-29.856 q -1.68,0 -2.784,-1.056 -1.056,-1.056 -1.056,-2.544 0,-1.536 1.056,-2.544 1.104,-1.056 2.784,-1.056 1.68,0 2.736,1.008 1.104,0.96 1.104,2.448 0,1.584 -1.056,2.688 -1.056,1.056 -2.784,1.056 z"
       style="font-weight:600;font-family:Montserrat;-inkscape-font-specification:'Montserrat Semi-Bold';fill:#ffffff"
       id="path1213" />
    <path
       d="m 1175.2457,441.12609 q -4.224,0 -6.528,-2.16 -2.304,-2.208 -2.304,-6.48 v -22.992 h 6 v 22.848 q 0,1.824 0.912,2.832 0.96,1.008 2.64,1.008 2.016,0 3.36,-1.056 l 1.68,4.272 q -1.056,0.864 -2.592,1.296 -1.536,0.432 -3.168,0.432 z m -13.056,-20.976 v -4.8 h 17.088 v 4.8 z"
       style="font-weight:600;font-family:Montserrat;-inkscape-font-specification:'Montserrat Semi-Bold';fill:#ffffff"
       id="path1215" />
    <path
       d="m 1185.9496,440.79009 v -25.632 h 5.712 v 7.056 l -0.672,-2.064 q 1.152,-2.592 3.6,-3.936 2.496,-1.344 6.192,-1.344 v 5.712 q -0.384,-0.096 -0.72,-0.096 -0.336,-0.048 -0.672,-0.048 -3.408,0 -5.424,2.016 -2.016,1.968 -2.016,5.904 v 12.432 z"
       style="font-weight:600;font-family:Montserrat;-inkscape-font-specification:'Montserrat Semi-Bold';fill:#ffffff"
       id="path1217" />
    <path
       d="m 1219.8377,440.79009 v -5.184 l -0.336,-1.104 v -9.072 q 0,-2.64 -1.584,-4.08 -1.584,-1.488 -4.8,-1.488 -2.16,0 -4.272,0.672 -2.064,0.672 -3.504,1.872 l -2.352,-4.368 q 2.064,-1.584 4.896,-2.352 2.88,-0.816 5.952,-0.816 5.568,0 8.592,2.688 3.072,2.64 3.072,8.208 v 15.024 z m -8.064,0.336 q -2.88,0 -5.04,-0.96 -2.16,-1.008 -3.36,-2.736 -1.152,-1.776 -1.152,-3.984 0,-2.16 1.008,-3.888 1.056,-1.728 3.408,-2.736 2.352,-1.008 6.24,-1.008 h 7.44 v 3.984 h -7.008 q -3.072,0 -4.128,1.008 -1.056,0.96 -1.056,2.4 0,1.632 1.296,2.592 1.296,0.96 3.6,0.96 2.208,0 3.936,-1.008 1.776,-1.008 2.544,-2.976 l 1.008,3.6 q -0.864,2.256 -3.12,3.504 -2.208,1.248 -5.616,1.248 z"
       style="font-weight:600;font-family:Montserrat;-inkscape-font-specification:'Montserrat Semi-Bold';fill:#ffffff"
       id="path1219" />
    <path
       d="m 1233.1817,440.79009 v -25.632 h 5.712 v 7.056 l -0.672,-2.064 q 1.152,-2.592 3.6,-3.936 2.496,-1.344 6.192,-1.344 v 5.712 q -0.384,-0.096 -0.72,-0.096 -0.336,-0.048 -0.672,-0.048 -3.408,0 -5.424,2.016 -2.016,1.968 -2.016,5.904 v 12.432 z"
       style="font-weight:600;font-family:Montserrat;-inkscape-font-specification:'Montserrat Semi-Bold';fill:#ffffff"
       id="path1221" />
    <path
       d="m 1256.1737,450.43809 q -1.872,0 -3.744,-0.624 -1.872,-0.624 -3.12,-1.728 l 2.4,-4.416 q 0.912,0.816 2.064,1.296 1.152,0.48 2.352,0.48 1.632,0 2.64,-0.816 1.008,-0.816 1.872,-2.736 l 1.488,-3.36 0.48,-0.72 9.696,-22.656 h 5.76 l -12,27.696 q -1.2,2.88 -2.688,4.56 -1.44,1.68 -3.264,2.352 -1.776,0.672 -3.936,0.672 z m 5.28,-8.736 -11.568,-26.544 h 6.24 l 9.408,22.128 z"
       style="font-weight:600;font-family:Montserrat;-inkscape-font-specification:'Montserrat Semi-Bold';fill:#ffffff"
       id="path1223" />
    <path
       d="m 1299.9496,435.07809 0.144,-7.536 13.392,-12.384 h 7.2 l -11.376,11.424 -3.168,2.64 z m -4.896,5.712 v -35.616 h 6 v 35.616 z m 19.344,0 -9.36,-11.568 3.792,-4.8 12.864,16.368 z"
       style="font-weight:600;font-family:Montserrat;-inkscape-font-specification:'Montserrat Semi-Bold';fill:#ffffff"
       id="path1225" />
    <path
       d="m 1336.5736,441.12609 q -4.272,0 -7.488,-1.68 -3.168,-1.728 -4.944,-4.704 -1.728,-2.976 -1.728,-6.768 0,-3.84 1.68,-6.768 1.728,-2.976 4.704,-4.656 3.024,-1.68 6.864,-1.68 3.744,0 6.672,1.632 2.928,1.632 4.608,4.608 1.68,2.976 1.68,7.008 0,0.384 -0.048,0.864 0,0.48 -0.048,0.912 h -21.36 v -3.984 h 18.192 l -2.352,1.248 q 0.048,-2.208 -0.912,-3.888 -0.96,-1.68 -2.64,-2.64 -1.632,-0.96 -3.792,-0.96 -2.208,0 -3.888,0.96 -1.632,0.96 -2.592,2.688 -0.912,1.68 -0.912,3.984 v 0.96 q 0,2.304 1.056,4.08 1.056,1.776 2.976,2.736 1.92,0.96 4.416,0.96 2.16,0 3.888,-0.672 1.728,-0.672 3.072,-2.112 l 3.216,3.696 q -1.728,2.016 -4.368,3.12 -2.592,1.056 -5.952,1.056 z"
       style="font-weight:600;font-family:Montserrat;-inkscape-font-specification:'Montserrat Semi-Bold';fill:#ffffff"
       id="path1227" />
    <path
       d="m 1356.0136,450.43809 q -1.872,0 -3.744,-0.624 -1.872,-0.624 -3.12,-1.728 l 2.4,-4.416 q 0.912,0.816 2.064,1.296 1.152,0.48 2.352,0.48 1.632,0 2.64,-0.816 1.008,-0.816 1.872,-2.736 l 1.488,-3.36 0.48,-0.72 9.696,-22.656 h 5.76 l -12,27.696 q -1.2,2.88 -2.688,4.56 -1.44,1.68 -3.264,2.352 -1.776,0.672 -3.936,0.672 z m 5.28,-8.736 -11.568,-26.544 h 6.24 l 9.408,22.128 z"
       style="font-weight:600;font-family:Montserrat;-inkscape-font-specification:'Montserrat Semi-Bold';fill:#ffffff"
       id="path1229" />
    <path
       d="m 1394.8935,440.79009 v -35.616 h 6 v 35.616 z"
       style="font-weight:600;font-family:Montserrat;-inkscape-font-specification:'Montserrat Semi-Bold';fill:#ffffff"
       id="path1231" />
    <path
       d="m 1420.8135,441.12609 q -4.272,0 -7.488,-1.68 -3.168,-1.728 -4.944,-4.704 -1.728,-2.976 -1.728,-6.768 0,-3.84 1.68,-6.768 1.728,-2.976 4.704,-4.656 3.024,-1.68 6.864,-1.68 3.744,0 6.672,1.632 2.928,1.632 4.608,4.608 1.68,2.976 1.68,7.008 0,0.384 -0.048,0.864 0,0.48 -0.048,0.912 h -21.36 v -3.984 h 18.192 l -2.352,1.248 q 0.048,-2.208 -0.912,-3.888 -0.96,-1.68 -2.64,-2.64 -1.632,-0.96 -3.792,-0.96 -2.208,0 -3.888,0.96 -1.632,0.96 -2.592,2.688 -0.912,1.68 -0.912,3.984 v 0.96 q 0,2.304 1.056,4.08 1.056,1.776 2.976,2.736 1.92,0.96 4.416,0.96 2.16,0 3.888,-0.672 1.728,-0.672 3.072,-2.112 l 3.216,3.696 q -1.728,2.016 -4.368,3.12 -2.592,1.056 -5.952,1.056 z"
       style="font-weight:600;font-family:Montserrat;-inkscape-font-specification:'Montserrat Semi-Bold';fill:#ffffff"
       id="path1233" />
    <path
       d="m 1453.1655,414.87009 q 3.072,0 5.472,1.2 2.448,1.2 3.84,3.696 1.392,2.448 1.392,6.336 v 14.688 h -6 v -13.92 q 0,-3.408 -1.632,-5.088 -1.584,-1.68 -4.464,-1.68 -2.112,0 -3.744,0.864 -1.632,0.864 -2.544,2.592 -0.864,1.68 -0.864,4.272 v 12.96 h -6 v -25.632 h 5.712 v 6.912 l -1.008,-2.112 q 1.344,-2.448 3.888,-3.744 2.592,-1.344 5.952,-1.344 z"
       style="font-weight:600;font-family:Montserrat;-inkscape-font-specification:'Montserrat Semi-Bold';fill:#ffffff"
       id="path1235" />
    <path
       d="m 1483.1654,450.43809 q -3.552,0 -6.96,-0.96 -3.36,-0.912 -5.52,-2.688 l 2.688,-4.512 q 1.68,1.392 4.224,2.208 2.592,0.864 5.232,0.864 4.224,0 6.192,-1.968 1.968,-1.92 1.968,-5.808 v -4.56 l 0.48,-5.808 -0.192,-5.808 v -6.24 h 5.712 v 21.744 q 0,6.96 -3.552,10.224 -3.552,3.312 -10.272,3.312 z m -0.768,-10.8 q -3.648,0 -6.624,-1.536 -2.928,-1.584 -4.656,-4.368 -1.68,-2.784 -1.68,-6.528 0,-3.696 1.68,-6.48 1.728,-2.784 4.656,-4.32 2.976,-1.536 6.624,-1.536 3.264,0 5.856,1.296 2.592,1.296 4.128,4.032 1.584,2.736 1.584,7.008 0,4.272 -1.584,7.056 -1.536,2.736 -4.128,4.08 -2.592,1.296 -5.856,1.296 z m 0.912,-5.088 q 2.256,0 4.032,-0.912 1.776,-0.96 2.736,-2.592 1.008,-1.68 1.008,-3.84 0,-2.16 -1.008,-3.792 -0.96,-1.68 -2.736,-2.544 -1.776,-0.912 -4.032,-0.912 -2.256,0 -4.08,0.912 -1.776,0.864 -2.784,2.544 -0.96,1.632 -0.96,3.792 0,2.16 0.96,3.84 1.008,1.632 2.784,2.592 1.824,0.912 4.08,0.912 z"
       style="font-weight:600;font-family:Montserrat;-inkscape-font-specification:'Montserrat Semi-Bold';fill:#ffffff"
       id="path1237" />
    <path
       d="m 1514.5094,441.12609 q -4.224,0 -6.528,-2.16 -2.304,-2.208 -2.304,-6.48 v -22.992 h 6 v 22.848 q 0,1.824 0.912,2.832 0.96,1.008 2.64,1.008 2.016,0 3.36,-1.056 l 1.68,4.272 q -1.056,0.864 -2.592,1.296 -1.536,0.432 -3.168,0.432 z m -13.056,-20.976 v -4.8 h 17.088 v 4.8 z"
       style="font-weight:600;font-family:Montserrat;-inkscape-font-specification:'Montserrat Semi-Bold';fill:#ffffff"
       id="path1239" />
    <path
       d="m 1539.7574,414.87009 q 3.072,0 5.472,1.2 2.448,1.2 3.84,3.696 1.392,2.448 1.392,6.336 v 14.688 h -6 v -13.92 q 0,-3.408 -1.632,-5.088 -1.584,-1.68 -4.464,-1.68 -2.112,0 -3.744,0.864 -1.632,0.864 -2.544,2.592 -0.864,1.68 -0.864,4.272 v 12.96 h -6 v -35.616 h 6 v 16.896 l -1.296,-2.112 q 1.344,-2.448 3.888,-3.744 2.592,-1.344 5.952,-1.344 z"
       style="font-weight:600;font-family:Montserrat;-inkscape-font-specification:'Montserrat Semi-Bold';fill:#ffffff"
       id="path1241" />
    <path
       d="m 1029.9016,490.65858 v -4.992 h 13.2 v 4.992 z"
       style="font-weight:600;font-family:Montserrat;-inkscape-font-specification:'Montserrat Semi-Bold';fill:#ffffff"
       id="path1243" />
    <path
       d="m 1073.9176,501.98658 q -3.936,0 -7.536,-1.104 -3.6,-1.152 -5.712,-2.928 l 2.16,-4.848 q 2.016,1.584 4.992,2.64 2.976,1.056 6.096,1.056 2.64,0 4.272,-0.576 1.632,-0.576 2.4,-1.536 0.768,-1.008 0.768,-2.256 0,-1.536 -1.104,-2.448 -1.104,-0.96 -2.88,-1.488 -1.728,-0.576 -3.888,-1.056 -2.112,-0.48 -4.272,-1.104 -2.112,-0.672 -3.888,-1.68 -1.728,-1.056 -2.832,-2.784 -1.104,-1.728 -1.104,-4.416 0,-2.736 1.44,-4.992 1.488,-2.304 4.464,-3.648 3.024,-1.392 7.632,-1.392 3.024,0 6,0.768 2.976,0.768 5.184,2.208 l -1.968,4.848 q -2.256,-1.344 -4.656,-1.968 -2.4,-0.672 -4.608,-0.672 -2.592,0 -4.224,0.624 -1.584,0.624 -2.352,1.632 -0.72,1.008 -0.72,2.304 0,1.536 1.056,2.496 1.104,0.912 2.832,1.44 1.776,0.528 3.936,1.056 2.16,0.48 4.272,1.104 2.16,0.624 3.888,1.632 1.776,1.008 2.832,2.736 1.104,1.728 1.104,4.368 0,2.688 -1.488,4.992 -1.44,2.256 -4.464,3.648 -3.024,1.344 -7.632,1.344 z"
       style="font-weight:600;font-family:Montserrat;-inkscape-font-specification:'Montserrat Semi-Bold';fill:#ffffff"
       id="path1245" />
    <path
       d="m 1109.2455,501.98658 q -3.84,0 -7.152,-1.248 -3.264,-1.296 -5.712,-3.6 -2.4,-2.352 -3.744,-5.52 -1.344,-3.168 -1.344,-6.912 0,-3.744 1.344,-6.912 1.344,-3.168 3.792,-5.472 2.448,-2.352 5.712,-3.6 3.264,-1.296 7.152,-1.296 4.128,0 7.536,1.44 3.408,1.392 5.76,4.176 l -4.032,3.792 q -1.824,-1.968 -4.08,-2.928 -2.256,-1.008 -4.896,-1.008 -2.64,0 -4.848,0.864 -2.16,0.864 -3.792,2.448 -1.584,1.584 -2.496,3.744 -0.864,2.16 -0.864,4.752 0,2.592 0.864,4.752 0.912,2.16 2.496,3.744 1.632,1.584 3.792,2.448 2.208,0.864 4.848,0.864 2.64,0 4.896,-0.96 2.256,-1.008 4.08,-3.024 l 4.032,3.84 q -2.352,2.736 -5.76,4.176 -3.408,1.44 -7.584,1.44 z"
       style="font-weight:600;font-family:Montserrat;-inkscape-font-specification:'Montserrat Semi-Bold';fill:#ffffff"
       id="path1247" />
    <path
       d="m 1123.1175,501.50658 15.12,-33.6 h 6.144 l 15.168,33.6 h -6.528 l -13.008,-30.288 h 2.496 l -12.96,30.288 z m 6.96,-7.776 1.68,-4.896 h 18.144 l 1.68,4.896 z"
       style="font-weight:600;font-family:Montserrat;-inkscape-font-specification:'Montserrat Semi-Bold';fill:#ffffff"
       id="path1249" />
    <path
       d="m 1163.8216,501.50658 v -33.6 h 6.24 v 28.32 h 17.568 v 5.28 z"
       style="font-weight:600;font-family:Montserrat;-inkscape-font-specification:'Montserrat Semi-Bold';fill:#ffffff"
       id="path1251" />
    <path
       d="m 1198.3336,481.87458 h 16.704 v 5.136 h -16.704 z m 0.48,14.4 h 18.96 v 5.232 h -25.2 v -33.6 h 24.528 v 5.232 h -18.288 z"
       style="font-weight:600;font-family:Montserrat;-inkscape-font-specification:'Montserrat Semi-Bold';fill:#ffffff"
       id="path1253" />
    <path
       d="m 1249.4536,501.84258 q -4.272,0 -7.488,-1.68 -3.168,-1.728 -4.944,-4.704 -1.728,-2.976 -1.728,-6.768 0,-3.84 1.68,-6.768 1.728,-2.976 4.704,-4.656 3.024,-1.68 6.864,-1.68 3.744,0 6.672,1.632 2.928,1.632 4.608,4.608 1.68,2.976 1.68,7.008 0,0.384 -0.048,0.864 0,0.48 -0.048,0.912 h -21.36 v -3.984 h 18.192 l -2.352,1.248 q 0.048,-2.208 -0.912,-3.888 -0.96,-1.68 -2.64,-2.64 -1.632,-0.96 -3.792,-0.96 -2.208,0 -3.888,0.96 -1.632,0.96 -2.592,2.688 -0.912,1.68 -0.912,3.984 v 0.96 q 0,2.304 1.056,4.08 1.056,1.776 2.976,2.736 1.92,0.96 4.416,0.96 2.16,0 3.888,-0.672 1.728,-0.672 3.072,-2.112 l 3.216,3.696 q -1.728,2.016 -4.368,3.12 -2.592,1.056 -5.952,1.056 z"
       style="font-weight:600;font-family:Montserrat;-inkscape-font-specification:'Montserrat Semi-Bold';fill:#ffffff"
       id="path1255" />
    <path
       d="m 1281.8056,475.58658 q 3.072,0 5.472,1.2 2.448,1.2 3.84,3.696 1.392,2.448 1.392,6.336 v 14.688 h -6 v -13.92 q 0,-3.408 -1.632,-5.088 -1.584,-1.68 -4.464,-1.68 -2.112,0 -3.744,0.864 -1.632,0.864 -2.544,2.592 -0.864,1.68 -0.864,4.272 v 12.96 h -6 v -25.632 h 5.712 v 6.912 l -1.008,-2.112 q 1.344,-2.448 3.888,-3.744 2.592,-1.344 5.952,-1.344 z"
       style="font-weight:600;font-family:Montserrat;-inkscape-font-specification:'Montserrat Semi-Bold';fill:#ffffff"
       id="path1257" />
    <path
       d="m 1311.9495,501.84258 q -4.032,0 -7.2,-1.68 -3.12,-1.728 -4.896,-4.704 -1.776,-2.976 -1.776,-6.768 0,-3.84 1.776,-6.768 1.776,-2.976 4.896,-4.656 3.168,-1.68 7.2,-1.68 3.744,0 6.576,1.536 2.88,1.488 4.368,4.416 l -4.608,2.688 q -1.152,-1.824 -2.832,-2.688 -1.632,-0.864 -3.552,-0.864 -2.208,0 -3.984,0.96 -1.776,0.96 -2.784,2.784 -1.008,1.776 -1.008,4.272 0,2.496 1.008,4.32 1.008,1.776 2.784,2.736 1.776,0.96 3.984,0.96 1.92,0 3.552,-0.864 1.68,-0.864 2.832,-2.688 l 4.608,2.688 q -1.488,2.88 -4.368,4.464 -2.832,1.536 -6.576,1.536 z"
       style="font-weight:600;font-family:Montserrat;-inkscape-font-specification:'Montserrat Semi-Bold';fill:#ffffff"
       id="path1259" />
    <path
       d="m 1339.2135,501.84258 q -3.936,0 -7.008,-1.68 -3.072,-1.728 -4.848,-4.704 -1.776,-2.976 -1.776,-6.768 0,-3.84 1.776,-6.768 1.776,-2.976 4.848,-4.656 3.072,-1.68 7.008,-1.68 3.984,0 7.056,1.68 3.12,1.68 4.848,4.608 1.776,2.928 1.776,6.816 0,3.792 -1.776,6.768 -1.728,2.976 -4.848,4.704 -3.072,1.68 -7.056,1.68 z m 0,-5.136 q 2.208,0 3.936,-0.96 1.728,-0.96 2.688,-2.784 1.008,-1.824 1.008,-4.272 0,-2.496 -1.008,-4.272 -0.96,-1.824 -2.688,-2.784 -1.728,-0.96 -3.888,-0.96 -2.208,0 -3.936,0.96 -1.68,0.96 -2.688,2.784 -1.008,1.776 -1.008,4.272 0,2.448 1.008,4.272 1.008,1.824 2.688,2.784 1.728,0.96 3.888,0.96 z"
       style="font-weight:600;font-family:Montserrat;-inkscape-font-specification:'Montserrat Semi-Bold';fill:#ffffff"
       id="path1261" />
    <path
       d="m 1369.5015,501.84258 q -3.696,0 -6.672,-1.632 -2.928,-1.68 -4.608,-4.608 -1.68,-2.928 -1.68,-6.912 0,-3.984 1.68,-6.912 1.68,-2.928 4.608,-4.56 2.976,-1.632 6.672,-1.632 3.216,0 5.76,1.44 2.544,1.392 4.032,4.272 1.488,2.88 1.488,7.392 0,4.464 -1.44,7.392 -1.44,2.88 -3.984,4.32 -2.544,1.44 -5.856,1.44 z m 0.72,-5.136 q 2.16,0 3.84,-0.96 1.728,-0.96 2.736,-2.784 1.056,-1.824 1.056,-4.272 0,-2.496 -1.056,-4.272 -1.008,-1.824 -2.736,-2.784 -1.68,-0.96 -3.84,-0.96 -2.16,0 -3.888,0.96 -1.68,0.96 -2.736,2.784 -1.008,1.776 -1.008,4.272 0,2.448 1.008,4.272 1.056,1.824 2.736,2.784 1.728,0.96 3.888,0.96 z m 7.776,4.8 v -6.048 l 0.24,-6.816 -0.48,-6.816 v -15.936 h 5.952 v 35.616 z"
       style="font-weight:600;font-family:Montserrat;-inkscape-font-specification:'Montserrat Semi-Bold';fill:#ffffff"
       id="path1263" />
    <path
       d="m 1403.6775,501.84258 q -4.272,0 -7.488,-1.68 -3.168,-1.728 -4.944,-4.704 -1.728,-2.976 -1.728,-6.768 0,-3.84 1.68,-6.768 1.728,-2.976 4.704,-4.656 3.024,-1.68 6.864,-1.68 3.744,0 6.672,1.632 2.928,1.632 4.608,4.608 1.68,2.976 1.68,7.008 0,0.384 -0.048,0.864 0,0.48 -0.048,0.912 h -21.36 v -3.984 h 18.192 l -2.352,1.248 q 0.048,-2.208 -0.912,-3.888 -0.96,-1.68 -2.64,-2.64 -1.632,-0.96 -3.792,-0.96 -2.208,0 -3.888,0.96 -1.632,0.96 -2.592,2.688 -0.912,1.68 -0.912,3.984 v 0.96 q 0,2.304 1.056,4.08 1.056,1.776 2.976,2.736 1.92,0.96 4.416,0.96 2.16,0 3.888,-0.672 1.728,-0.672 3.072,-2.112 l 3.216,3.696 q -1.728,2.016 -4.368,3.12 -2.592,1.056 -5.952,1.056 z"
       style="font-weight:600;font-family:Montserrat;-inkscape-font-specification:'Montserrat Semi-Bold';fill:#ffffff"
       id="path1265" />
    <path
       d="m 1432.3335,501.84258 q -3.696,0 -6.672,-1.632 -2.928,-1.68 -4.608,-4.608 -1.68,-2.928 -1.68,-6.912 0,-3.984 1.68,-6.912 1.68,-2.928 4.608,-4.56 2.976,-1.632 6.672,-1.632 3.216,0 5.76,1.44 2.544,1.392 4.032,4.272 1.488,2.88 1.488,7.392 0,4.464 -1.44,7.392 -1.44,2.88 -3.984,4.32 -2.544,1.44 -5.856,1.44 z m 0.72,-5.136 q 2.16,0 3.84,-0.96 1.728,-0.96 2.736,-2.784 1.056,-1.824 1.056,-4.272 0,-2.496 -1.056,-4.272 -1.008,-1.824 -2.736,-2.784 -1.68,-0.96 -3.84,-0.96 -2.16,0 -3.888,0.96 -1.68,0.96 -2.736,2.784 -1.008,1.776 -1.008,4.272 0,2.448 1.008,4.272 1.056,1.824 2.736,2.784 1.728,0.96 3.888,0.96 z m 7.776,4.8 v -6.048 l 0.24,-6.816 -0.48,-6.816 v -15.936 h 5.952 v 35.616 z"
       style="font-weight:600;font-family:Montserrat;-inkscape-font-specification:'Montserrat Semi-Bold';fill:#ffffff"
       id="path1267" />
    <path
       d="m 1474.5255,501.50658 -10.992,-25.632 h 6.24 l 9.456,22.608 h -3.072 l 9.792,-22.608 h 5.76 l -10.992,25.632 z"
       style="font-weight:600;font-family:Montserrat;-inkscape-font-specification:'Montserrat Semi-Bold';fill:#ffffff"
       id="path1269" />
    <path
       d="m 1510.4294,501.50658 v -5.184 l -0.336,-1.104 v -9.072 q 0,-2.64 -1.584,-4.08 -1.584,-1.488 -4.8,-1.488 -2.16,0 -4.272,0.672 -2.064,0.672 -3.504,1.872 l -2.352,-4.368 q 2.064,-1.584 4.896,-2.352 2.88,-0.816 5.952,-0.816 5.568,0 8.592,2.688 3.072,2.64 3.072,8.208 v 15.024 z m -8.064,0.336 q -2.88,0 -5.04,-0.96 -2.16,-1.008 -3.36,-2.736 -1.152,-1.776 -1.152,-3.984 0,-2.16 1.008,-3.888 1.056,-1.728 3.408,-2.736 2.352,-1.008 6.24,-1.008 h 7.44 v 3.984 h -7.008 q -3.072,0 -4.128,1.008 -1.056,0.96 -1.056,2.4 0,1.632 1.296,2.592 1.296,0.96 3.6,0.96 2.208,0 3.936,-1.008 1.776,-1.008 2.544,-2.976 l 1.008,3.6 q -0.864,2.256 -3.12,3.504 -2.208,1.248 -5.616,1.248 z"
       style="font-weight:600;font-family:Montserrat;-inkscape-font-specification:'Montserrat Semi-Bold';fill:#ffffff"
       id="path1271" />
    <path
       d="m 1523.7735,501.50658 v -35.616 h 6 v 35.616 z"
       style="font-weight:600;font-family:Montserrat;-inkscape-font-specification:'Montserrat Semi-Bold';fill:#ffffff"
       id="path1273" />
    <path
       d="m 1548.4934,501.84258 q -3.264,0 -5.76,-1.2 -2.496,-1.248 -3.888,-3.744 -1.392,-2.544 -1.392,-6.384 v -14.64 h 6 v 13.824 q 0,3.456 1.536,5.184 1.584,1.68 4.464,1.68 2.112,0 3.648,-0.864 1.584,-0.864 2.448,-2.592 0.912,-1.728 0.912,-4.272 v -12.96 h 6 v 25.632 h -5.712 v -6.912 l 1.008,2.112 q -1.296,2.496 -3.792,3.84 -2.496,1.296 -5.472,1.296 z"
       style="font-weight:600;font-family:Montserrat;-inkscape-font-specification:'Montserrat Semi-Bold';fill:#ffffff"
       id="path1275" />
    <path
       d="m 1582.3815,501.84258 q -4.272,0 -7.488,-1.68 -3.168,-1.728 -4.944,-4.704 -1.728,-2.976 -1.728,-6.768 0,-3.84 1.68,-6.768 1.728,-2.976 4.704,-4.656 3.024,-1.68 6.864,-1.68 3.744,0 6.672,1.632 2.928,1.632 4.608,4.608 1.68,2.976 1.68,7.008 0,0.384 -0.048,0.864 0,0.48 -0.048,0.912 h -21.36 v -3.984 h 18.192 l -2.352,1.248 q 0.048,-2.208 -0.912,-3.888 -0.96,-1.68 -2.64,-2.64 -1.632,-0.96 -3.792,-0.96 -2.208,0 -3.888,0.96 -1.632,0.96 -2.592,2.688 -0.912,1.68 -0.912,3.984 v 0.96 q 0,2.304 1.056,4.08 1.056,1.776 2.976,2.736 1.92,0.96 4.416,0.96 2.16,0 3.888,-0.672 1.728,-0.672 3.072,-2.112 l 3.216,3.696 q -1.728,2.016 -4.368,3.12 -2.592,1.056 -5.952,1.056 z"
       style="font-weight:600;font-family:Montserrat;-inkscape-font-specification:'Montserrat Semi-Bold';fill:#ffffff"
       id="path1277" />
    <path
       d="m 1608.1094,501.84258 q -3.216,0 -6.192,-0.816 -2.928,-0.864 -4.656,-2.064 l 2.304,-4.56 q 1.728,1.104 4.128,1.824 2.4,0.72 4.8,0.72 2.832,0 4.08,-0.768 1.296,-0.768 1.296,-2.064 0,-1.056 -0.864,-1.584 -0.864,-0.576 -2.256,-0.864 -1.392,-0.288 -3.12,-0.528 -1.68,-0.24 -3.408,-0.624 -1.68,-0.432 -3.072,-1.2 -1.392,-0.816 -2.256,-2.16 -0.864,-1.344 -0.864,-3.552 0,-2.448 1.392,-4.224 1.392,-1.824 3.888,-2.784 2.544,-1.008 6,-1.008 2.592,0 5.232,0.576 2.64,0.576 4.368,1.632 l -2.304,4.56 q -1.824,-1.104 -3.696,-1.488 -1.824,-0.432 -3.648,-0.432 -2.736,0 -4.08,0.816 -1.296,0.816 -1.296,2.064 0,1.152 0.864,1.728 0.864,0.576 2.256,0.912 1.392,0.336 3.072,0.576 1.728,0.192 3.408,0.624 1.68,0.432 3.072,1.2 1.44,0.72 2.304,2.064 0.864,1.344 0.864,3.504 0,2.4 -1.44,4.176 -1.392,1.776 -3.984,2.784 -2.592,0.96 -6.192,0.96 z"
       style="font-weight:600;font-family:Montserrat;-inkscape-font-specification:'Montserrat Semi-Bold';fill:#ffffff"
       id="path1279" />
  </g>
  <text
     xml:space="preserve"
     id="text615"
     style="font-size:85.3333px;line-height:1.25;font-family:'Fira Sans';-inkscape-font-specification:'Fira Sans';white-space:pre;shape-inside:url(#rect617);display:inline" />
  <text
     xml:space="preserve"
     id="text362"
     style="white-space:pre;shape-inside:url(#rect364);display:inline;fill:#000000" />
</svg>
