<svg xmlns="http://www.w3.org/2000/svg" width="428.71" height="295.54"><path d="M215.79 205.92c-42.42-27.55-33.98-63.99-33.98-63.99-115.91-16.55-96.32-69.49-62.74-66.06-75.39-38.99-58.03-52.39-35.56-42.93.85.36 1.64-.6 1.04-1.29C60.9 4.09 72.48-4.83 82.67 2.4c4.38 3.09 8.5 9.18 9.45 18.04 13.45-6.51 24.74-8.1 32.23-4.89 10.46 4.5 13.52 18.41 4.72 41.5 2.25-.57 4.45-.97 6.59-1.24 20.13-2.5 35.28 7.71 41.6 21.46 5.09 11.07 4.46 24.42-3.9 35.29 32.59 6.49 34.55 23.14 21.97 29.37 25.83 14.41 25.74 47.56 20.45 63.99Z" style="fill:#b8aeff"/><path d="M177.27 77.27c-5.08 1.45-10.99 1.75-17.08.64-14.23-2.62-24.51-12.15-24.52-22.1 20.13-2.5 35.28 7.71 41.6 21.46ZM124.35 15.55c-1.98 7.69-11.6 13.52-23.16 13.52-13.01 0-23.56-7.38-23.56-16.49 0-3.85 1.89-7.39 5.04-10.18 4.38 3.09 8.5 9.18 9.45 18.04 13.45-6.51 24.74-8.1 32.23-4.89Z" style="fill:#e2dcfe"/><path d="M230.12 291.97c-22.7-150.49-16.6-118.37-135.4-264.9" style="fill:none;stroke:#5d4dc4;stroke-linecap:round;stroke-miterlimit:10;stroke-width:4.83px"/><path d="M296.46 65.52c1.81 30.75 3.78 61.71 10.88 91.7 1.54 5.75 3.49 12.6 5.86 18.01 3.24 8 8.15 15.39 14.67 21.13 3.69 3.35 7.88 6.46 11.78 10.15 3.92 3.66 7.38 7.92 10.22 12.48 8.37 13.53 12.44 29.21 15.73 44.51 2.22 10.18 3.73 20.46 5.24 30.75l-5.64.75c-.76-5.08-1.42-10.18-2.26-15.24-2.56-15.02-5.56-30.3-11.04-44.46-3.69-9.28-8.58-18.04-15.94-24.88-3.59-3.43-7.71-6.51-11.66-10.11-3.97-3.57-7.57-7.75-10.44-12.32l-2.07-3.48c-.56-1.22-2.13-4.19-2.66-5.4-.51-1.23-1.74-4.28-2.25-5.54-1.61-4.35-3.38-10.58-4.56-15.11-7.1-30.41-9-61.68-10.72-92.71l4.87-.24Z" style="fill:#3f328f"/><path d="M314.9 39.16c7.1 86.43 10.85 100.19-12.03 110M268.5 53.24c5.17 36.81 14.5 43.93 27.12 44.4" style="fill:none;stroke:#3f328f;stroke-miterlimit:10;stroke-width:4.88px"/><path d="M336.67 55.95c1.53 36.75 2.83 50.06-16.5 51.44M346.38 102.12c-.81 44.9 7.24 48.99 17.95 53.83" style="fill:none;stroke:#3f328f;stroke-miterlimit:10;stroke-width:4.88px"/><path d="M364.13 116.94c8.39 54.43-10.32 55.37-27.54 59.81l-1.99 28.83M307.68 167.96c-45.57-6.9-15.67-63.12-66.12-56.65M255.52 81.68l6.84 32.3M351.73 228.02c-41.05.17-41.87-11.37-64.97-49.66" style="fill:none;stroke:#3f328f;stroke-miterlimit:10;stroke-width:4.88px"/><path d="M359.05 250.26c26.24-11.91 27.15-39.27 28.85-64.54l1.47-25.92 4.87.29-1.28 25.91c-1.18 17.37-1.53 36.16-10.94 51.54-4.81 7.82-12.35 13.78-20.49 17.75l-2.47-5.04Z" style="fill:#3f328f"/><path d="M372.01 175.62c-2.56 33.21 4.73 35.6 15.2 40.53" style="fill:none;stroke:#3f328f;stroke-miterlimit:10;stroke-width:4.88px"/><path d="M349.15 295.54c-2.91-16.49-19.38-24.2-33.32-30.45-15.4-6.8-31.16-13.29-44.25-24.43-8.82-7.33-15.87-16.76-20.74-27.12l4.42-2.07c4.68 9.71 11.29 18.41 19.65 25.23 12.53 10.5 28.16 16.78 43.19 23.26 15.81 6.78 33.53 15.68 37 34.43l-5.94 1.15Z" style="fill:#3f328f"/><path d="M252.04 174.71c34.02 44.24 40.56 52.57 27.76 68.64" style="fill:none;stroke:#3f328f;stroke-miterlimit:10;stroke-width:4.88px"/><path d="M329.76 267.31c-14.37 24.09-33.97 16.25-52.96 3.03-5.34-3.65-10.49-7.45-15.71-11.07l2.75-4.03c5.35 3.61 10.54 7.34 15.82 10.84 16.38 10.81 33.1 19.42 45.04-1.75l5.06 2.98Z" style="fill:#3f328f"/><ellipse cx="261.17" cy="175.45" rx="23.43" ry="4.78" transform="rotate(-23.33 261.206 175.459)" style="fill:#e2dcfe"/><ellipse cx="265.59" cy="210.49" rx="27.25" ry="5.56" transform="rotate(-18.1 265.564 210.48)" style="fill:#e2dcfe"/><ellipse cx="262.55" cy="234.41" rx="19.15" ry="3.9" transform="rotate(-17.18 262.581 234.434)" style="fill:#b8aeff"/><ellipse cx="265.03" cy="260.08" rx="14.57" ry="4.88" transform="rotate(-22.54 265.004 260.072)" style="fill:#e2dcfe"/><ellipse cx="379.86" cy="117.56" rx="24.83" ry="5.06" transform="rotate(-2.86 379.465 117.498)" style="fill:#e2dcfe"/><ellipse cx="354.21" cy="101.73" rx="13.93" ry="4.75" transform="rotate(-2.86 353.806 101.626)" style="fill:#b8aeff"/><ellipse cx="347.33" cy="55.42" rx="19.09" ry="3.89" transform="rotate(-2.86 346.945 55.358)" style="fill:#e2dcfe"/><ellipse cx="311.04" cy="39.43" rx="19.58" ry="3.99" transform="rotate(-2.86 310.666 39.421)" style="fill:#b8aeff"/><ellipse cx="268.73" cy="54.37" rx="18.08" ry="3.69" transform="rotate(-7.37 268.57 54.326)" style="fill:#e2dcfe"/><ellipse cx="300.18" cy="67.91" rx="16.22" ry="5.48" transform="rotate(-2.86 299.736 67.808)" style="fill:#e2dcfe"/><ellipse cx="250.25" cy="83.39" rx="19.44" ry="3.96" transform="rotate(-10.24 250.33 83.406)" style="fill:#b8aeff"/><ellipse cx="243.16" cy="111.99" rx="14.8" ry="4.07" transform="rotate(-72.18 243.147 111.99)" style="fill:#e2dcfe"/><ellipse cx="279.38" cy="124.93" rx="17.83" ry="5.9" transform="rotate(-14.11 279.388 124.944)" style="fill:#e2dcfe"/><ellipse cx="327.01" cy="125.63" rx="5.38" ry="16.57" transform="rotate(-86.59 327.005 125.627)" style="fill:#b8aeff"/><ellipse cx="312.76" cy="187.14" rx="21.71" ry="4.43" transform="rotate(-17.92 312.786 187.15)" style="fill:#b8aeff"/><ellipse cx="288.1" cy="179.06" rx="13.89" ry="4.43" transform="rotate(-18.03 288.116 179.08)" style="fill:#e2dcfe"/><ellipse cx="317.47" cy="250.4" rx="21.08" ry="6.79" transform="rotate(-27.52 317.448 250.378)" style="fill:#b8aeff"/><ellipse cx="348.64" cy="207.95" rx="23.82" ry="4.86" transform="rotate(-20.11 348.561 207.927)" style="fill:#e2dcfe"/><ellipse cx="404.28" cy="157.39" rx="24.46" ry="4.99" transform="rotate(-2.86 403.727 157.185)" style="fill:#e2dcfe"/><ellipse cx="378.08" cy="176.99" rx="4.64" ry="15.7" transform="rotate(-84.62 378.085 176.985)" style="fill:#b8aeff"/><path d="M154.64 276.59c27.77 7.44 12.59 18.38 12.59 18.38H26.05c9.52-13.31 12.8-21.31 51.91-21.31s76.68 2.93 76.68 2.93Z" style="fill:#46379e"/><path d="M197.64 246.5c-.98 1.72-16.08 9.92-30.11 20.51-5.42 4.08-10.67 8.51-14.89 13.07-19.77 8.86-38.01 2.73-38.01 2.73-9.55 6.81-24.24 2.22-24.24 2.22-12.93 12-23.64 6.25-39.16-1.53-2-1.01-4.08-2.04-6.26-3.08C25.91 271.33 0 261.36 0 261.36c3.13-11.02 12.06-21 12.06-21l-10.61-8.69c8.52-14.15 22.33-21.82 22.33-21.82l5.96 2.9 6.82-7.16-11.08-12.27c11.08-15.56 29.83-20.8 29.83-20.8l12.61 16.54c8.46-4.1 16.23-6.55 22.92-7.98 15.02-3.22 24.64-1.3 24.64-1.3l1.02 10.98s12.18-3.42 25.45.99c1.64.54 2.63 2.19 2.3 3.88-1.47 7.51-2.69 13.2-2.69 13.2 20.33 1.41 33.07 8.01 31.54 11.59-.58 1.35-1.6 3.92-2.65 6.59-1.72 4.41-3.5 9.09-3.5 9.09 27.44 1.54 32.05 8.01 30.69 10.4Z" style="fill:#b8aeff"/><path d="M167.53 267.01c-5.42 4.08-10.67 8.51-14.89 13.07-19.77 8.86-38.01 2.73-38.01 2.73-9.55 6.81-24.24 2.22-24.24 2.22-12.93 12-23.64 6.25-39.16-1.53 8.93.72 22.84-.41 31.75-12.09l-3.58-7.56s8.02-8.35 14.58-7.15l1.38 16.49s9.05-27.87 45.32 6.06c0 0 12.02-26.22 26.85-12.24Z" style="fill:#8d7cf7"/><path d="M173.1 220.42c-.58 1.35-1.6 3.92-2.65 6.59-4.2 3.07-9.03 5.52-14.47 7.18-34.44 10.48-68.4-18.38-65.14-53.11 15.02-3.22 24.64-1.3 24.64-1.3l1.02 10.98s12.18-3.42 25.45.99c1.64.54 2.63 2.19 2.3 3.88-1.47 7.51-2.69 13.2-2.69 13.2 20.33 1.41 33.07 8.01 31.54 11.59Z" style="fill:#dad3fe"/><path style="fill:none;stroke:#7667d6;stroke-miterlimit:10;stroke-width:2.7px" d="m165.42 239.35-5.18 11.04M127.25 263.38s4.92-30.72 6.5-37.74c1.58-7.02-41.08-.87-41.25 6.59-.18 7.46 3.51 48.18 3.51 48.18M88.04 282.08l-22.76-48.02c-23.87 3.69-37.22 15.45-33.35 19.31s23.52 25.81 23.52 25.81M9.62 240.54l25.45 16.16M29.74 212.75l20.61 14.11"/><path d="m54.75 236.36-6.76-8c6.67-14.22 40.31-20.63 42.4-18.7 2.09 1.93 3.54 20.21 3.54 20.21M93.09 244.75l-19.23 6.73M116.5 190.76s-7.34 1.35-6.81 3.45c.53 2.11-1.08 30.22-1.08 30.22" style="fill:none;stroke:#7667d6;stroke-miterlimit:10;stroke-width:2.7px"/><path d="m81.16 210.24-13.23-21.18s20.79-12.53 47.56-9.28M36.56 205.59c15.37-10.85 15.72-11.07 19.06-4.53 3.34 6.54 8.49 14.48 8.49 14.48" style="fill:none;stroke:#7667d6;stroke-miterlimit:10;stroke-width:2.7px"/><path d="M90.39 209.66c2.97 4.7-40.28 20.41-42.4 18.7-5.92-4.77 39.43-23.4 42.4-18.7ZM133.74 225.64c-.04 7.47-39.26 11.74-41.25 6.59-2.07-5.36 41.3-15.03 41.25-6.59Z" style="fill:#7667d6"/><path d="M65.28 234.06c1.62 6.1-26.77 22.29-33.35 19.31" style="fill:none;stroke:#7667d6;stroke-miterlimit:10;stroke-width:2.7px"/><path d="M23.78 209.85c-.21 7.96-17.95 23.84-22.33 21.82 8.52-14.15 22.33-21.82 22.33-21.82ZM55.31 172.52c.02 4.35-27.92 23.35-29.83 20.8 11.08-15.56 29.83-20.8 29.83-20.8ZM173.1 220.42c-3.25 3.83-58.73-12.82-31.54-11.59 20.33 1.41 33.07 8.01 31.54 11.59Z" style="fill:#7667d6"/><path style="fill:none;stroke:#7667d6;stroke-miterlimit:10;stroke-width:2.7px" d="m136.23 210.53-5.04 12.63M130.78 241.93c-17.64 8.46-37.42 6.6-37.42 6.6M38.22 218.55c-5.08 15.11-21.17 26.35-21.17 26.35M130.15 245.63s36.79 2.49 33.44 8.11l-10.95 22.34"/></svg>