<?xml version="1.0" encoding="utf-8"?>
<!-- Generator: Adobe Illustrator 28.1.0, SVG Export Plug-In . SVG Version: 6.00 Build 0)  -->
<svg version="1.1" id="Ebene_1" xmlns="http://www.w3.org/2000/svg" xmlns:xlink="http://www.w3.org/1999/xlink" x="0px" y="0px"
	 viewBox="0 0 1780 1000" style="enable-background:new 0 0 1780 1000;" xml:space="preserve">
<style type="text/css">
	.st0{fill:#8747CC;}
	.st1{fill:#BC83FB;}
	.st2{fill:#B8A3C9;}
	.st3{fill:#D8B7FB;}
	.st4{fill:#FFFFFF;}
	.st5{fill:#FF705E;}
	.st6{fill:#E34135;}
</style>
<path class="st0" d="M1505,640.3c42.4-2.6,49.5-12.6,49.7-35.1c0.1-15.1,1.2-28.9,1.9-36.3c0.2-2.4-2.3-3.9-4.4-2.7
	C1501.6,596.4,1494,599,1505,640.3z"/>
<path class="st1" d="M1551,575.3c0.6-0.8,0.5-1.8-0.3-2.4s-1.9-0.6-2.5,0.2c-14.8,17.3-28.7,35.4-41.6,54.3
	c-20.7,31.3-43.7,69.5-55.6,108.4c-8.8-2.2-17.8-3.3-26.4-3.3c-23.4-0.2-45.5,8.8-63.7,22.9c-10.5,8.1-19.6,17.9-27.1,28.7
	c-5.9,8.7,6.9,17.2,12.7,8.7c6.7-10.4,14.8-19.8,24.2-27.5c7-5.8,14.8-10.6,23.2-14.1c16.6-7.3,36.2-9.3,54.3-5.4
	c-3.5,13.8-5.5,27.6-5.4,41.2c0.3,6.2,0.8,12.7,2.6,18.7c6.1,23.1,30.9,36.2,51.5,21c14.4-11,15.7-31.2,9.7-46.7
	c-6.1-15.6-18.2-27.3-32.7-35.2c-3.6-2-7.4-3.7-11.3-5.2C1476.6,680,1518,618.8,1551,575.3L1551,575.3z M1469.2,753.3
	c5.4,2.9,10.4,6.5,14.8,10.8c7.5,7.1,12.4,16.4,13.2,26.7c1.8,13-5.9,27.5-20.1,26.3c-11.1-1.1-16.8-12.8-18.2-23.2
	c-1.8-14.4-1-29.4,1.8-44.5C1463.7,750.5,1466.5,751.8,1469.2,753.3L1469.2,753.3z"/>
<path class="st0" d="M1474,744.7l-4.9,8.6c-2.7-1.5-5.6-2.8-8.5-3.9l2-9.9C1466.6,741,1470.4,742.7,1474,744.7L1474,744.7z"/>
<path class="st0" d="M1371,765.1c-9.4,7.7-17.6,17.1-24.2,27.5c-5.9,8.6-18.6,0.1-12.7-8.7c7.4-10.8,16.6-20.6,27.1-28.7
	C1363.5,760.3,1367.5,763.4,1371,765.1L1371,765.1z"/>
<path class="st0" d="M311.1,793.6c-64.4,3.5-62.5-3.2-77.4,21c-9.9,16-21,30.7-27.5,38.9c-1.9,2.4,0,6,3.1,5.7
	C304.6,848.8,293.1,858.1,311.1,793.6L311.1,793.6z"/>
<path class="st1" d="M439.3,744c-12.1-1.5-24.1-3.3-36.1-5.4c-13.1-2.3-26.2-5-39-8.3c11.4-28.4,12.7-59.5-5.5-86.5
	c-12.4-18-31.5-32.1-53.7-34.8c-23.1-3.4-49.4,9-54.9,33.3c-7.2,31.3,11.2,55.9,36.7,71.4c18.7,11.1,38.6,19.2,59.2,25.6
	c-1.9,4-3.9,8-6.3,11.8c-0.8,1.3-1.5,2.5-2.3,3.8c-10,16-23,29.9-37.5,42c-14.6,12.3-30.4,23.6-46.9,33.3
	c-11.1,6.5-22.5,12.5-34.3,17.4c-2.5,1.2-0.9,4.5,1.5,3.8c12.4-4.4,24.2-9.9,35.8-15.9c23.2-12.3,45.1-26.6,65-44
	c9.7-8.7,19-19.2,26.9-30.7c3.9-5.7,7.5-11.6,10.7-17.8c12.8,3.5,25.8,6.5,38.8,9.2c13.2,2.8,26.5,5.3,39.7,7.8
	C447.9,761.5,450.1,745.7,439.3,744L439.3,744z M351,726.8c-7.9-2.3-15.8-4.9-23.5-7.7c-25.6-10-60.7-26.3-64.3-56.4
	c-3.4-33.5,28.7-43.3,54.8-30C356.1,653.5,363,691,351,726.8L351,726.8z"/>
<path class="st0" d="M358.4,743c-3.2,6.1-6.8,12.1-10.7,17.8l-8-9.6c2.3-3.9,4.4-7.8,6.3-11.8l0.8,0.2l11.1,3.2L358.4,743L358.4,743
	z"/>
<path class="st0" d="M436.9,760c-13.2-2.5-26.4-5-39.7-7.8c2.4-3.3,4.7-7.8,6-13.6c12,2.1,24,3.9,36.1,5.4
	C450.1,745.7,447.9,761.5,436.9,760L436.9,760z"/>
<path class="st2" d="M449.9,539.7c-4.7,1.8-9.2-1.4-8.2-5.8c1.1-4.3,6.9-6.5,10.6-3.9S454.6,538,449.9,539.7z"/>
<path class="st1" d="M580.3,549.2c-2.3,3.9-5,8.1-8.1,12.4h-88.1c72-58.6,53.2-87.2,30-113.6c-21.8-24.7-18.5-65.9,42.3-75.1
	c1.5-0.2,2.1,1.9,0.7,2.4c-10.3,4.2-23.4,12.3-25.6,27c-3.6,24.6,0,34.4,25.5,61.7C580.4,489.2,606.1,504.8,580.3,549.2z"/>
<path class="st0" d="M555.7,561.6h-71.5c72-58.6,53.2-87.2,30-113.6c9.2,10.4,21.9,19.7,32.9,29.9c3.2,3,6.3,6,9.1,9.2
	C571.6,504.8,578.8,526.6,555.7,561.6z"/>
<path class="st3" d="M540.2,555.4c-13,13-28.6,13.9-27.9,1.4c0.6-12.4,17-28.7,29.4-29.4S553.2,542.3,540.2,555.4z"/>
<path class="st3" d="M547.2,505.6c-6.7-4.4-9.4-18.1-5-24.7c1.4-2,3.1-2.9,4.9-2.9c3.2,3,6.3,6,9.1,9.2c0.4,1.1,0.7,2.2,1,3.5
	C559.4,501.7,553.8,509.9,547.2,505.6z"/>
<path class="st0" d="M580.3,549.2c-2.3,3.9-5,8.1-8.1,12.4H547l4-12.4H580.3z"/>
<path class="st1" d="M887.5,451.8l-33.4-35.5c-2.1-2.2-0.5-5.8,2.5-5.8h66.8c3,0,4.6,3.6,2.5,5.8l-33.4,35.5
	C891.1,453.2,888.9,453.2,887.5,451.8L887.5,451.8z"/>
<path class="st1" d="M887.5,294.4l-33.4,35.5c-2.1,2.2-0.5,5.8,2.5,5.8h66.8c3,0,4.6-3.6,2.5-5.8l-33.4-35.5
	C891.1,292.9,888.9,292.9,887.5,294.4L887.5,294.4z"/>
<path class="st1" d="M910.5,334.3h-41c0,0-5.7,18.4-5.7,38.7c0,22.2,5.7,38.7,5.7,38.7h41c0,0,5.7-16.5,5.7-38.7
	C916.2,352.7,910.5,334.3,910.5,334.3z"/>
<path class="st1" d="M1387,89.7v49.4c0,12.1-9.8,21.9-21.9,21.9H395.7c-12.1,0-21.9-9.8-21.9-21.9V89.7c0-12.1,9.8-21.9,21.9-21.9
	h14.1c1.6,0,3,0.9,3.6,2.4c2.1,5.3,9.8,9.9,20.2,10.4c8.3,0.3,15.1-2,18.9-5.6c1.6-1.5,4.1-1.4,5.6,0.2c4.5,4.9,13.3,8.4,24.3,8.4
	c12.1,0,21.1-4.3,25.4-10c1.4-1.8,4.1-1.9,5.6-0.1c5.8,7,16.6,12,29.3,12.1c16,0.1,27-6.9,31.7-14.5c1.3-2.1,3.6-3.3,6.1-3.3h784.6
	C1377.2,67.8,1387,77.6,1387,89.7L1387,89.7z"/>
<path class="st1" d="M435.2,74.3c-12.1,0.4-19.8-7.1-13.9-13.5s21-6.8,27.2-0.8S447.2,73.9,435.2,74.3L435.2,74.3z"/>
<path class="st1" d="M482.9,76.6c-16.2,0.6-26.7-9.1-18.9-17.4s28.1-9.1,36.5-1.4S499.1,75.9,482.9,76.6z"/>
<path class="st1" d="M544.2,78.2c-18.2,0.6-30-10.4-21.2-19.8s31.5-10.2,40.9-1.4S562.3,77.6,544.2,78.2z"/>
<path class="st4" d="M432.4,137.8V96h17.2c3.7,0,6.9,0.6,9.5,1.8c2.7,1.2,4.7,2.9,6.1,5.1s2.2,4.9,2.2,8s-0.7,5.7-2.2,7.9
	c-1.4,2.2-3.5,3.9-6.1,5.1c-2.7,1.2-5.8,1.8-9.5,1.8h-12.9l3.5-3.5v15.7h-7.8L432.4,137.8z M440.2,122.9l-3.5-3.7h12.6
	c3.4,0,6-0.7,7.7-2.2s2.6-3.5,2.6-6.2s-0.9-4.7-2.6-6.2s-4.3-2.2-7.7-2.2h-12.6l3.5-3.8C440.2,98.6,440.2,122.9,440.2,122.9z
	 M459.8,137.8l-10.6-15.2h8.3l10.6,15.2H459.8z"/>
<path class="st4" d="M490.4,138.3c-3.5,0-6.6-0.7-9.3-2.1s-4.7-3.4-6.2-5.8c-1.5-2.5-2.2-5.3-2.2-8.4c0-3.2,0.7-6,2.1-8.5
	s3.4-4.4,5.9-5.8s5.3-2.1,8.5-2.1c3.1,0,5.9,0.7,8.3,2c2.4,1.4,4.3,3.3,5.7,5.7c1.4,2.5,2.1,5.4,2.1,8.7v1.1c0,0.4,0,0.8-0.1,1.1
	h-26.6v-5h22.7l-2.9,1.6c0-1.8-0.3-3.4-1.1-4.8s-1.9-2.5-3.3-3.3s-3-1.2-4.8-1.2s-3.4,0.4-4.8,1.2s-2.5,1.9-3.2,3.3
	c-0.8,1.4-1.2,3.1-1.2,5v1.2c0,1.9,0.4,3.6,1.3,5.1s2.1,2.6,3.7,3.4s3.4,1.2,5.5,1.2c1.8,0,3.4-0.3,4.8-0.8c1.4-0.6,2.7-1.4,3.8-2.6
	l4,4.6c-1.4,1.7-3.2,3-5.4,3.9C495.7,137.8,493.2,138.3,490.4,138.3L490.4,138.3z"/>
<path class="st4" d="M521.3,138.3c-2.4,0-4.5-0.4-6.3-1.2s-3.2-2-4.2-3.4c-1-1.5-1.5-3.1-1.5-4.9s0.4-3.4,1.3-4.8s2.3-2.6,4.2-3.4
	c2-0.8,4.5-1.3,7.8-1.3h9.3v5h-8.7c-2.6,0-4.3,0.4-5.1,1.2c-0.9,0.8-1.3,1.8-1.3,3c0,1.4,0.5,2.4,1.6,3.2s2.6,1.2,4.5,1.2
	c1.8,0,3.5-0.4,4.9-1.3c1.5-0.8,2.5-2.1,3.1-3.7l1.3,4.5c-0.7,1.9-2,3.3-3.9,4.4C526.5,137.7,524.2,138.3,521.3,138.3L521.3,138.3z
	 M531.4,137.8v-6.5L531,130v-11.3c0-2.2-0.7-3.9-2-5.1s-3.3-1.8-6-1.8c-1.8,0-3.6,0.3-5.3,0.8c-1.7,0.6-3.2,1.3-4.4,2.3l-2.9-5.4
	c1.7-1.3,3.8-2.3,6.1-3c2.4-0.7,4.8-1,7.4-1c4.6,0,8.2,1.1,10.7,3.3s3.8,5.6,3.8,10.3v18.7H531.4z"/>
<path class="st4" d="M561.6,138.3c-3.1,0-5.8-0.7-8.3-2.1s-4.4-3.3-5.8-5.7s-2.1-5.3-2.1-8.6s0.7-6.2,2.1-8.6s3.3-4.3,5.8-5.7
	s5.2-2,8.3-2c2.7,0,5.1,0.6,7.2,1.8s3.8,3,5,5.4s1.9,5.5,1.9,9.2s-0.6,6.8-1.8,9.2s-2.9,4.2-5,5.4
	C566.8,137.7,564.3,138.3,561.6,138.3L561.6,138.3z M562.5,131.9c1.8,0,3.4-0.4,4.8-1.2s2.6-2,3.4-3.5c0.9-1.5,1.3-3.3,1.3-5.3
	c0-2.1-0.4-3.9-1.3-5.4s-2-2.6-3.4-3.4s-3-1.2-4.8-1.2s-3.4,0.4-4.8,1.2s-2.6,1.9-3.4,3.4c-0.9,1.5-1.3,3.3-1.3,5.4
	c0,2,0.4,3.8,1.3,5.3s2,2.7,3.4,3.5S560.7,131.9,562.5,131.9z M572.2,137.8v-7.5l0.3-8.5l-0.6-8.5V93.5h7.4v44.4L572.2,137.8
	L572.2,137.8z"/>
<path class="st4" d="M592.9,100.6c-1.4,0-2.5-0.4-3.4-1.3s-1.3-1.9-1.3-3.2s0.4-2.3,1.3-3.2s2-1.3,3.4-1.3s2.5,0.4,3.4,1.2
	s1.3,1.8,1.3,3.1s-0.4,2.4-1.3,3.3C595.5,100.2,594.4,100.6,592.9,100.6z M589.2,137.8v-31.9h7.5v31.9H589.2z"/>
<path class="st4" d="M624.6,105.5c2.6,0,4.8,0.5,6.8,1.5s3.6,2.5,4.8,4.6s1.7,4.7,1.7,7.9v18.3h-7.5v-17.3c0-2.8-0.7-4.9-2-6.3
	s-3.2-2.1-5.6-2.1c-1.8,0-3.3,0.4-4.7,1.1s-2.4,1.8-3.1,3.2s-1.1,3.2-1.1,5.4v16.1h-7.5V106h7.1v8.6l-1.3-2.6c1.1-2,2.7-3.6,4.9-4.7
	C619.3,106.1,621.8,105.5,624.6,105.5L624.6,105.5z"/>
<path class="st4" d="M661,136.4c-3,0-5.8-0.6-8.2-1.9c-2.5-1.3-4.4-3.1-5.8-5.4s-2.1-5-2.1-8.1s0.7-5.8,2.1-8.1s3.3-4.1,5.8-5.4
	s5.2-1.9,8.2-1.9c2.7,0,5.1,0.5,7.3,1.6s3.9,2.8,5.2,5c1.3,2.3,1.9,5.2,1.9,8.7s-0.6,6.5-1.9,8.8c-1.3,2.3-3,4-5.2,5.1
	C666.1,135.8,663.7,136.4,661,136.4L661,136.4z M662,149.9c-3,0-5.8-0.4-8.6-1.2s-5.1-1.9-6.9-3.4l3.3-5.6c1.4,1.2,3.2,2.1,5.3,2.8
	s4.3,1,6.5,1c3.5,0,6.1-0.8,7.7-2.4s2.5-4,2.5-7.3v-5.7l0.6-7.2l-0.2-7.2v-7.8h7.1V133c0,5.8-1.5,10-4.4,12.8
	C671.8,148.5,667.5,149.9,662,149.9L662,149.9z M662.1,130.1c1.9,0,3.5-0.4,5-1.2s2.6-1.9,3.4-3.2c0.8-1.4,1.2-3,1.2-4.8
	s-0.4-3.4-1.2-4.8s-2-2.4-3.4-3.2c-1.5-0.7-3.2-1.1-5-1.1c-1.9,0-3.6,0.4-5.1,1.1s-2.7,1.8-3.5,3.2s-1.2,3-1.2,4.8s0.4,3.4,1.2,4.8
	s2,2.5,3.5,3.2C658.6,129.7,660.3,130.1,662.1,130.1z"/>
<path class="st4" d="M725.6,138.4c-3.2,0-6.2-0.5-8.9-1.6s-5.1-2.6-7.1-4.5s-3.6-4.2-4.7-6.8s-1.7-5.5-1.7-8.6s0.6-6,1.7-8.6
	s2.7-4.9,4.7-6.8s4.4-3.4,7.1-4.5s5.7-1.6,8.9-1.6c3.4,0,6.6,0.6,9.4,1.8s5.2,2.9,7.2,5.2l-5,4.7c-1.5-1.6-3.2-2.9-5.1-3.7
	s-3.9-1.2-6.1-1.2s-4.2,0.4-6,1.1s-3.4,1.7-4.7,3.1s-2.4,2.9-3.1,4.7s-1.1,3.8-1.1,5.9s0.4,4.1,1.1,5.9s1.8,3.3,3.1,4.7
	c1.3,1.4,2.9,2.3,4.7,3.1s3.8,1.1,6,1.1s4.2-0.4,6.1-1.2s3.6-2.1,5.1-3.7l5,4.8c-2,2.3-4.3,4-7.2,5.2
	C732.2,137.8,729.1,138.4,725.6,138.4z"/>
<path class="st4" d="M762.1,138.3c-3.3,0-6.2-0.7-8.7-2.1c-2.6-1.4-4.6-3.4-6-5.8c-1.5-2.5-2.2-5.3-2.2-8.4c0-3.2,0.7-6,2.2-8.5
	s3.5-4.4,6-5.8c2.6-1.4,5.5-2.1,8.7-2.1c3.3,0,6.2,0.7,8.8,2.1s4.6,3.3,6,5.7c1.5,2.4,2.2,5.3,2.2,8.5s-0.7,6-2.2,8.4
	c-1.5,2.5-3.5,4.4-6,5.8S765.5,138.3,762.1,138.3L762.1,138.3z M762.1,131.9c1.8,0,3.5-0.4,4.9-1.2s2.6-2,3.4-3.5s1.2-3.3,1.2-5.3
	c0-2.1-0.4-3.9-1.2-5.4s-1.9-2.6-3.4-3.4c-1.4-0.8-3-1.2-4.8-1.2s-3.5,0.4-4.9,1.2s-2.5,1.9-3.4,3.4c-0.8,1.5-1.3,3.3-1.3,5.4
	c0,2,0.4,3.8,1.3,5.3c0.8,1.5,2,2.7,3.4,3.5S760.3,131.9,762.1,131.9z"/>
<path class="st4" d="M804.5,105.5c2.6,0,4.8,0.5,6.8,1.5s3.6,2.5,4.8,4.6s1.7,4.7,1.7,7.9v18.3h-7.5v-17.3c0-2.8-0.7-4.9-2-6.3
	s-3.2-2.1-5.6-2.1c-1.8,0-3.3,0.4-4.7,1.1s-2.4,1.8-3.1,3.2s-1.1,3.2-1.1,5.4v16.1h-7.5V106h7.1v8.6l-1.3-2.6c1.1-2,2.7-3.6,4.9-4.7
	C799.2,106.1,801.7,105.5,804.5,105.5L804.5,105.5z"/>
<path class="st4" d="M823.1,112.1v-6h21.3v6H823.1z M839.4,138.3c-3.5,0-6.2-0.9-8.1-2.7s-2.9-4.5-2.9-8V98.8h7.5v28.5
	c0,1.5,0.4,2.7,1.2,3.5s1.9,1.3,3.3,1.3c1.7,0,3.1-0.4,4.2-1.3l2.1,5.3c-0.9,0.7-2,1.3-3.2,1.6C842,138.1,840.7,138.3,839.4,138.3
	L839.4,138.3z"/>
<path class="st4" d="M852.7,137.8v-31.9h7.1v8.8l-0.8-2.6c1-2.2,2.5-3.8,4.5-4.9c2.1-1.1,4.6-1.7,7.7-1.7v7.1
	c-0.3-0.1-0.6-0.1-0.9-0.1h-0.8c-2.8,0-5.1,0.8-6.8,2.5s-2.5,4.1-2.5,7.4v15.5h-7.5V137.8z"/>
<path class="st4" d="M884.9,138.3c-2.4,0-4.5-0.4-6.3-1.2s-3.2-2-4.2-3.4c-1-1.5-1.5-3.1-1.5-4.9s0.4-3.4,1.3-4.8s2.3-2.6,4.2-3.4
	c2-0.8,4.5-1.3,7.8-1.3h9.3v5h-8.7c-2.6,0-4.3,0.4-5.1,1.2c-0.9,0.8-1.3,1.8-1.3,3c0,1.4,0.5,2.4,1.6,3.2s2.6,1.2,4.5,1.2
	c1.8,0,3.5-0.4,4.9-1.3c1.5-0.8,2.5-2.1,3.1-3.7l1.3,4.5c-0.7,1.9-2,3.3-3.9,4.4C890.1,137.7,887.7,138.3,884.9,138.3L884.9,138.3z
	 M894.9,137.8v-6.5l-0.4-1.4v-11.3c0-2.2-0.7-3.9-2-5.1s-3.3-1.8-6-1.8c-1.8,0-3.6,0.3-5.3,0.8c-1.7,0.6-3.2,1.3-4.4,2.3l-2.9-5.4
	c1.7-1.3,3.8-2.3,6.1-3c2.4-0.7,4.8-1,7.4-1c4.6,0,8.2,1.1,10.7,3.3s3.8,5.6,3.8,10.3v18.7L894.9,137.8L894.9,137.8z"/>
<path class="st4" d="M926.3,138.3c-3.3,0-6.3-0.7-8.9-2.1s-4.7-3.4-6.1-5.8c-1.5-2.5-2.2-5.3-2.2-8.4c0-3.2,0.7-6,2.2-8.5
	s3.5-4.4,6.1-5.8s5.6-2.1,8.9-2.1c3.1,0,5.9,0.6,8.2,1.9c2.4,1.3,4.2,3.1,5.4,5.5l-5.7,3.3c-1-1.5-2.1-2.6-3.5-3.3s-2.9-1.1-4.5-1.1
	c-1.8,0-3.5,0.4-5,1.2s-2.6,1.9-3.5,3.4c-0.8,1.5-1.3,3.3-1.3,5.4s0.4,3.9,1.3,5.4c0.8,1.5,2,2.6,3.5,3.4s3.1,1.2,5,1.2
	c1.6,0,3.1-0.4,4.5-1.1s2.5-1.8,3.5-3.3l5.7,3.3c-1.2,2.4-3,4.2-5.4,5.5S929.4,138.3,926.3,138.3L926.3,138.3z"/>
<path class="st4" d="M942.5,112.1v-6h21.3v6H942.5z M958.8,138.3c-3.5,0-6.2-0.9-8.1-2.7s-2.9-4.5-2.9-8V98.8h7.5v28.5
	c0,1.5,0.4,2.7,1.2,3.5s1.9,1.3,3.3,1.3c1.7,0,3.1-0.4,4.2-1.3l2.1,5.3c-0.9,0.7-2,1.3-3.2,1.6C961.5,138.1,960.2,138.3,958.8,138.3
	L958.8,138.3z"/>
<path class="st4" d="M1002,137.8L983.7,96h8.4l16.3,37.9h-4.8l16.5-37.9h7.8l-18.2,41.9L1002,137.8L1002,137.8z"/>
<path class="st4" d="M1039,138.3c-2.4,0-4.5-0.4-6.3-1.2s-3.2-2-4.2-3.4c-1-1.5-1.5-3.1-1.5-4.9s0.4-3.4,1.3-4.8s2.3-2.6,4.2-3.4
	c2-0.8,4.5-1.3,7.8-1.3h9.3v5h-8.7c-2.6,0-4.3,0.4-5.1,1.2c-0.9,0.8-1.3,1.8-1.3,3c0,1.4,0.5,2.4,1.6,3.2s2.6,1.2,4.5,1.2
	c1.8,0,3.5-0.4,4.9-1.3c1.5-0.8,2.5-2.1,3.1-3.7l1.3,4.5c-0.7,1.9-2,3.3-3.9,4.4C1044.2,137.7,1041.8,138.3,1039,138.3L1039,138.3z
	 M1049,137.8v-6.5l-0.4-1.4v-11.3c0-2.2-0.7-3.9-2-5.1s-3.3-1.8-6-1.8c-1.8,0-3.6,0.3-5.3,0.8c-1.7,0.6-3.2,1.3-4.4,2.3l-2.9-5.4
	c1.7-1.3,3.8-2.3,6.1-3c2.4-0.7,4.8-1,7.4-1c4.6,0,8.2,1.1,10.7,3.3s3.8,5.6,3.8,10.3v18.7L1049,137.8L1049,137.8z"/>
<path class="st4" d="M1065,137.8V93.5h7.5v44.4L1065,137.8L1065,137.8z"/>
<path class="st4" d="M1096,138.3c-2.7,0-5.1-0.5-7.2-1.5s-3.7-2.6-4.8-4.7c-1.2-2.1-1.7-4.7-1.7-7.9V106h7.5v17.2
	c0,2.9,0.6,5,1.9,6.4s3.1,2.1,5.5,2.1c1.8,0,3.3-0.4,4.6-1.1s2.3-1.8,3.1-3.2c0.7-1.4,1.1-3.2,1.1-5.3V106h7.5v31.9h-7.1v-8.6
	l1.3,2.6c-1.1,2.1-2.7,3.7-4.7,4.8C1100.7,137.7,1098.4,138.3,1096,138.3L1096,138.3z"/>
<path class="st4" d="M1138,138.3c-3.5,0-6.6-0.7-9.3-2.1s-4.7-3.4-6.2-5.8c-1.5-2.5-2.2-5.3-2.2-8.4c0-3.2,0.7-6,2.1-8.5
	s3.4-4.4,5.9-5.8s5.3-2.1,8.5-2.1c3.1,0,5.9,0.7,8.3,2c2.4,1.4,4.3,3.3,5.7,5.7c1.4,2.5,2.1,5.4,2.1,8.7v1.1c0,0.4,0,0.8-0.1,1.1
	h-26.6v-5h22.7l-2.9,1.6c0-1.8-0.3-3.4-1.1-4.8s-1.9-2.5-3.3-3.3s-3-1.2-4.8-1.2s-3.4,0.4-4.8,1.2s-2.5,1.9-3.2,3.3
	c-0.8,1.4-1.2,3.1-1.2,5v1.2c0,1.9,0.4,3.6,1.3,5.1s2.1,2.6,3.7,3.4s3.4,1.2,5.5,1.2c1.8,0,3.4-0.3,4.8-0.8c1.4-0.6,2.7-1.4,3.8-2.6
	l4,4.6c-1.4,1.7-3.2,3-5.4,3.9C1143.3,137.8,1140.8,138.3,1138,138.3L1138,138.3z"/>
<path class="st4" d="M1170,138.3c-2.7,0-5.2-0.3-7.7-1s-4.4-1.5-5.8-2.5l2.9-5.7c1.4,0.9,3.1,1.7,5.1,2.3s4,0.9,6,0.9
	c2.4,0,4.1-0.3,5.1-1c1.1-0.6,1.6-1.5,1.6-2.6c0-0.9-0.4-1.5-1.1-2s-1.7-0.8-2.8-1c-1.2-0.2-2.4-0.5-3.9-0.7
	c-1.4-0.2-2.8-0.5-4.2-0.8s-2.7-0.8-3.9-1.5s-2.1-1.5-2.8-2.7c-0.7-1.1-1.1-2.6-1.1-4.4c0-2,0.6-3.8,1.7-5.3
	c1.2-1.5,2.8-2.7,4.9-3.5s4.6-1.2,7.4-1.2c2.2,0,4.3,0.2,6.5,0.7s4,1.2,5.4,2l-2.9,5.7c-1.5-0.9-3-1.5-4.6-1.9
	c-1.5-0.3-3.1-0.5-4.6-0.5c-2.3,0-4,0.3-5.1,1s-1.6,1.5-1.6,2.6c0,1,0.4,1.7,1.1,2.2s1.7,0.9,2.8,1.1c1.2,0.3,2.4,0.5,3.9,0.7
	c1.4,0.2,2.8,0.4,4.2,0.8s2.7,0.8,3.9,1.5c1.2,0.6,2.1,1.5,2.8,2.6s1.1,2.6,1.1,4.4c0,2-0.6,3.7-1.8,5.2s-2.8,2.6-5,3.4
	S1172.9,138.3,1170,138.3L1170,138.3z"/>
<path class="st4" d="M1194,115.5c-1.4,0-2.5-0.5-3.5-1.4s-1.4-2.1-1.4-3.6s0.5-2.7,1.4-3.6s2.1-1.3,3.5-1.3s2.5,0.4,3.5,1.3
	s1.4,2.1,1.4,3.6c0,1.4-0.5,2.6-1.4,3.6C1196.5,115,1195.3,115.5,1194,115.5z M1194,138.3c-1.4,0-2.5-0.5-3.5-1.4s-1.4-2.1-1.4-3.6
	s0.5-2.7,1.4-3.6c1-0.9,2.1-1.3,3.5-1.3s2.5,0.4,3.5,1.3s1.4,2.1,1.4,3.6c0,1.4-0.5,2.6-1.4,3.6
	C1196.5,137.8,1195.3,138.3,1194,138.3z"/>
<path class="st4" d="M1223,137.8V96h17.2c3.7,0,6.9,0.6,9.5,1.8c2.7,1.2,4.7,2.9,6.1,5.1s2.2,4.9,2.2,8s-0.7,5.7-2.2,7.9
	c-1.4,2.2-3.5,3.9-6.1,5.1c-2.7,1.2-5.8,1.8-9.5,1.8h-12.9l3.5-3.5v15.7h-7.8L1223,137.8z M1230.8,122.9l-3.5-3.7h12.6
	c3.4,0,6-0.7,7.7-2.2s2.6-3.5,2.6-6.2s-0.9-4.7-2.6-6.2s-4.3-2.2-7.7-2.2h-12.6l3.5-3.8C1230.8,98.6,1230.8,122.9,1230.8,122.9z
	 M1250.4,137.8l-10.6-15.2h8.3l10.6,15.2H1250.4z"/>
<path class="st4" d="M1267,137.8V96h17.2c3.7,0,6.9,0.6,9.5,1.8c2.7,1.2,4.7,2.9,6.1,5.1s2.2,4.9,2.2,8s-0.7,5.7-2.2,8
	c-1.4,2.2-3.5,3.9-6.1,5.1c-2.7,1.2-5.8,1.8-9.5,1.8h-12.9l3.5-3.6v15.7h-7.8L1267,137.8z M1274.8,122.9l-3.5-3.8h12.6
	c3.4,0,6-0.7,7.7-2.2s2.6-3.5,2.6-6.1c0-2.7-0.9-4.7-2.6-6.2s-4.3-2.2-7.7-2.2h-12.6l3.5-3.8C1274.8,98.6,1274.8,122.9,1274.8,122.9
	z"/>
<path class="st4" d="M1330,138.4c-3.2,0-6.2-0.5-8.9-1.6s-5.1-2.6-7.1-4.5s-3.6-4.2-4.7-6.8s-1.7-5.5-1.7-8.6s0.6-6,1.7-8.6
	s2.7-4.9,4.7-6.8s4.4-3.4,7.1-4.5s5.7-1.6,8.9-1.6c3.4,0,6.6,0.6,9.4,1.8s5.2,2.9,7.2,5.2l-5,4.7c-1.5-1.6-3.2-2.9-5.1-3.7
	s-3.9-1.2-6.1-1.2s-4.2,0.4-6,1.1s-3.4,1.7-4.7,3.1s-2.4,2.9-3.1,4.7s-1.1,3.8-1.1,5.9s0.4,4.1,1.1,5.9s1.8,3.3,3.1,4.7
	c1.3,1.4,2.9,2.3,4.7,3.1s3.8,1.1,6,1.1s4.2-0.4,6.1-1.2s3.6-2.1,5.1-3.7l5,4.8c-2,2.3-4.3,4-7.2,5.2
	C1336.7,137.8,1333.5,138.4,1330,138.4z"/>
<path class="st1" d="M838.6,263.6v-27.9h11.8c3,0,5.6,0.6,7.9,1.8s4,2.8,5.3,4.9s1.9,4.5,1.9,7.3s-0.6,5.2-1.9,7.3
	c-1.3,2.1-3,3.7-5.3,4.9s-4.9,1.8-7.9,1.8L838.6,263.6L838.6,263.6z M842.6,260.1h7.5c2.3,0,4.3-0.4,6-1.3s3-2.1,3.9-3.7
	c0.9-1.6,1.4-3.4,1.4-5.5s-0.5-3.9-1.4-5.5s-2.2-2.8-3.9-3.7s-3.7-1.3-6-1.3h-7.5V260.1L842.6,260.1z"/>
<path class="st1" d="M877.2,263.8c-1.6,0-2.9-0.3-4.1-0.8s-2.1-1.3-2.7-2.2s-1-2-1-3.2c0-1.1,0.3-2.2,0.8-3.1s1.4-1.7,2.7-2.2
	c1.2-0.6,2.9-0.8,5-0.8h6.7v2.8H878c-1.9,0-3.2,0.3-3.9,1c-0.7,0.6-1,1.4-1,2.3c0,1,0.4,1.9,1.2,2.5s2,0.9,3.4,0.9s2.7-0.3,3.8-1
	c1.1-0.6,1.9-1.6,2.3-2.8l0.8,2.6c-0.5,1.2-1.4,2.2-2.7,3C880.7,263.5,879.1,263.8,877.2,263.8z M884.1,263.6v-4.5l-0.2-0.8v-7.6
	c0-1.6-0.5-2.9-1.4-3.8s-2.4-1.3-4.2-1.3c-1.2,0-2.5,0.2-3.7,0.6s-2.2,1-3,1.7L870,245c1.1-0.9,2.4-1.5,3.9-2s3.1-0.7,4.8-0.7
	c2.9,0,5.1,0.7,6.7,2.1s2.4,3.6,2.4,6.5v12.8h-3.7V263.6z"/>
<path class="st1" d="M894.8,271.3v-28.9h3.7v5.7l-0.2,4.9l0.4,4.9v13.4H894.8z M906,263.8c-1.8,0-3.4-0.4-4.8-1.2s-2.6-2-3.5-3.6
	s-1.3-3.6-1.3-6s0.4-4.4,1.3-6c0.8-1.6,2-2.8,3.4-3.6s3.1-1.2,4.9-1.2c2.1,0,3.9,0.5,5.5,1.4s2.9,2.2,3.8,3.8s1.4,3.5,1.4,5.6
	s-0.5,4-1.4,5.7c-0.9,1.6-2.2,2.9-3.8,3.8S908.1,263.8,906,263.8L906,263.8z M905.7,260.5c1.4,0,2.6-0.3,3.6-0.9
	c1.1-0.6,1.9-1.5,2.6-2.6c0.6-1.1,0.9-2.4,0.9-3.9s-0.3-2.8-0.9-3.9s-1.5-2-2.6-2.6s-2.3-0.9-3.6-0.9s-2.5,0.3-3.6,0.9
	s-1.9,1.5-2.6,2.6c-0.6,1.1-0.9,2.4-0.9,3.9s0.3,2.8,0.9,3.9c0.6,1.1,1.5,2,2.6,2.6S904.4,260.5,905.7,260.5z"/>
<path class="st1" d="M922,271.3v-28.9h3.7v5.7l-0.2,4.9l0.4,4.9v13.4H922z M933.2,263.8c-1.8,0-3.4-0.4-4.8-1.2s-2.6-2-3.5-3.6
	s-1.3-3.6-1.3-6s0.4-4.4,1.3-6c0.8-1.6,2-2.8,3.4-3.6s3.1-1.2,4.9-1.2c2.1,0,3.9,0.5,5.5,1.4s2.9,2.2,3.8,3.8s1.4,3.5,1.4,5.6
	s-0.5,4-1.4,5.7c-0.9,1.6-2.2,2.9-3.8,3.8S935.3,263.8,933.2,263.8L933.2,263.8z M932.9,260.5c1.4,0,2.6-0.3,3.6-0.9
	c1.1-0.6,1.9-1.5,2.6-2.6c0.6-1.1,0.9-2.4,0.9-3.9s-0.3-2.8-0.9-3.9s-1.5-2-2.6-2.6s-2.3-0.9-3.6-0.9s-2.5,0.3-3.6,0.9
	s-1.9,1.5-2.6,2.6c-0.6,1.1-0.9,2.4-0.9,3.9s0.3,2.8,0.9,3.9c0.6,1.1,1.5,2,2.6,2.6S931.6,260.5,932.9,260.5z"/>
<path class="st1" d="M998.5,381.4v-27.9h11.8c3,0,5.6,0.6,7.9,1.8s4,2.8,5.3,4.9c1.3,2.1,1.9,4.5,1.9,7.3s-0.6,5.2-1.9,7.3
	s-3,3.7-5.3,4.9s-4.9,1.8-7.9,1.8L998.5,381.4L998.5,381.4z M1002.5,377.9h7.5c2.3,0,4.3-0.4,6-1.3s3-2.1,3.9-3.7s1.4-3.4,1.4-5.5
	s-0.5-3.9-1.4-5.5s-2.2-2.8-3.9-3.7s-3.7-1.3-6-1.3h-7.5V377.9z"/>
<path class="st1" d="M1031,381.4v-21.1h3.7v5.7l-0.4-1.4c0.6-1.5,1.6-2.6,3-3.3s3.1-1.2,5.1-1.2v3.7h-0.5c0,0-0.3,0-0.4,0
	c-2,0-3.7,0.6-4.9,1.8s-1.8,3-1.8,5.3v10.5H1031L1031,381.4z"/>
<path class="st1" d="M1049,389.4c-1,0-2-0.2-3-0.5s-1.8-0.8-2.5-1.5l1.6-2.9c0.5,0.5,1.1,0.9,1.8,1.2c0.6,0.3,1.3,0.4,2,0.4
	c0.9,0,1.7-0.2,2.3-0.7s1.2-1.3,1.7-2.6l1.3-2.9l0.4-0.5l8.3-19.2h3.7l-10.2,23.2c-0.6,1.5-1.3,2.7-2.1,3.5
	c-0.8,0.9-1.6,1.5-2.5,1.8S1050.1,389.4,1049,389.4L1049,389.4z M1054,382.1l-9.7-21.8h4l8.2,18.8L1054,382.1z"/>
<path class="st1" d="M1068,372.1v-3.3h10.7v3.3H1068z"/>
<path class="st1" d="M1085,381.4v-27.9h10.9c2.4,0,4.5,0.4,6.3,1.2c1.7,0.8,3.1,1.9,4,3.3c0.9,1.5,1.4,3.2,1.4,5.2s-0.5,3.8-1.4,5.2
	s-2.3,2.6-4,3.3c-1.7,0.8-3.8,1.2-6.3,1.2h-8.7l1.8-1.8v10.3L1085,381.4L1085,381.4z M1089,371.5l-1.8-2h8.6c2.6,0,4.5-0.6,5.8-1.7
	s2-2.7,2-4.6s-0.7-3.5-2-4.6s-3.2-1.6-5.8-1.6h-8.6l1.8-2V371.5L1089,371.5z M1103.7,381.4l-7.1-10.1h4.3l7.2,10.1H1103.7z"/>
<path class="st1" d="M1123,381.6c-1.8,0-3.4-0.3-4.8-1s-2.4-1.7-3.2-3.1s-1.1-3.1-1.1-5.2v-12.2h3.8V372c0,2.1,0.5,3.6,1.5,4.7
	c1,1,2.4,1.6,4.2,1.6c1.3,0,2.5-0.3,3.5-0.8s1.7-1.3,2.3-2.4c0.5-1,0.8-2.3,0.8-3.8v-10.9h3.8v21.1h-3.6v-5.7l0.6,1.5
	c-0.7,1.4-1.7,2.5-3.1,3.3C1126.3,381.3,1124.7,381.6,1123,381.6L1123,381.6z"/>
<path class="st1" d="M1152,360.1c1.7,0,3.2,0.3,4.6,1c1.3,0.7,2.3,1.7,3.1,3c0.7,1.4,1.1,3.1,1.1,5.1v12.2h-3.8v-11.7
	c0-2-0.5-3.6-1.5-4.6s-2.4-1.6-4.2-1.6c-1.4,0-2.5,0.3-3.5,0.8s-1.8,1.3-2.3,2.4c-0.5,1-0.8,2.3-0.8,3.9v10.9h-3.8v-21.1h3.7v5.7
	l-0.6-1.5c0.7-1.4,1.8-2.5,3.2-3.2S1150.1,360.1,1152,360.1L1152,360.1z"/>
<path class="st5" d="M1331,906.7H449.8c-10.7,0-19.4-8.7-19.4-19.4V580c0-10.7,8.7-19.4,19.4-19.4h881.1c10.7,0,19.4,8.7,19.4,19.4
	v307.4C1350.3,898,1341.6,906.7,1331,906.7L1331,906.7z"/>
<path class="st6" d="M1132,560.6v46.3c0,27.3-22.2,49.5-49.5,49.5h-406c-27.3,0-49.5-22.2-49.5-49.5v-46.3H1132z"/>
<path class="st1" d="M1093,642H687c-27.3,0-49.5-22.2-49.5-49.5v-63.8c0-27.3,22.2-49.5,49.5-49.5h406c27.3,0,49.5,22.2,49.5,49.5
	v63.8C1142.5,619.9,1120.3,642,1093,642z"/>
<path d="M621.6,812.1v-15.5h-5.1v-2.3l5.1-0.2v-1.5c0-2.2,0.6-4,1.8-5.3s3-2,5.5-2c1.8,0,3.5,0.3,5.2,1l-0.7,2.3
	c-0.7-0.3-1.4-0.6-2.1-0.7c-0.6-0.1-1.3-0.2-2.1-0.2c-1.6,0-2.8,0.4-3.5,1.3c-0.7,0.8-1.1,2-1.1,3.4v1.6h7.6v2.5h-7.6V812h-3
	L621.6,812.1z"/>
<path d="M638.3,812.1v-18h2.5l0.3,3.1h0.1c0.9-1,2-1.9,3-2.5c1.1-0.7,2.3-1,3.7-1c2.1,0,3.7,0.6,4.7,1.9c1,1.2,1.5,3,1.5,5.4v11.2
	h-3v-10.8c0-1.7-0.3-3-1-3.8c-0.6-0.8-1.7-1.2-3.2-1.2c-1.1,0-2,0.3-2.9,0.8c-0.8,0.5-1.8,1.4-2.9,2.4v12.6h-2.8L638.3,812.1z"/>
<path d="M688.3,812.1v-15.5h-5.1v-2.3l5.1-0.2v-1.5c0-2.2,0.6-4,1.8-5.3s3-2,5.5-2c1.8,0,3.5,0.3,5.2,1l-0.7,2.3
	c-0.7-0.3-1.4-0.6-2.1-0.7c-0.6-0.1-1.3-0.2-2.1-0.2c-1.6,0-2.8,0.4-3.5,1.3c-0.7,0.8-1.1,2-1.1,3.4v1.6h7.6v2.5h-7.6V812h-3
	L688.3,812.1z"/>
<path d="M716.6,812.5c-1.9,0-3.4-0.5-4.4-1.6s-1.5-2.7-1.5-4.8v-17.8h-6.4v-2.5h9.4v20.5c0,1.3,0.3,2.3,1,2.9s1.5,0.9,2.6,0.9
	s2.2-0.3,3.4-0.8l0.8,2.3c-0.8,0.3-1.6,0.6-2.3,0.8C718.4,812.4,717.6,812.5,716.6,812.5L716.6,812.5z"/>
<path d="M735.4,812.1v-15.5H727v-2.5h11.4v18H735.4z M736.6,790.3c-0.7,0-1.3-0.2-1.7-0.6c-0.5-0.4-0.7-1-0.7-1.7s0.2-1.3,0.7-1.7
	s1-0.6,1.7-0.6s1.3,0.2,1.7,0.6c0.5,0.4,0.7,1,0.7,1.7s-0.2,1.3-0.7,1.7C737.9,790.1,737.3,790.3,736.6,790.3z"/>
<path d="M749.4,819.7v-25.6h2.5l0.3,2.3h0.1c0.8-0.8,1.8-1.4,2.9-2c1.1-0.5,2.2-0.8,3.3-0.8c2.4,0,4.3,0.8,5.5,2.5
	c1.3,1.7,1.9,3.9,1.9,6.7c0,2-0.4,3.8-1.1,5.2c-0.8,1.5-1.8,2.6-3,3.3c-1.2,0.8-2.6,1.1-4,1.1c-0.8,0-1.7-0.2-2.7-0.6
	s-1.9-1-2.6-1.7h-0.1l0.1,3.4v6.1L749.4,819.7L749.4,819.7z M757.2,809.9c1.6,0,2.9-0.6,4-1.9c1-1.3,1.6-3,1.6-5.2
	c0-2-0.4-3.6-1.2-4.8s-2.1-1.8-3.9-1.8c-0.8,0-1.6,0.2-2.5,0.6s-1.8,1.1-2.8,2.1v9c0.9,0.8,1.7,1.3,2.6,1.6S756.6,809.9,757.2,809.9
	L757.2,809.9z"/>
<path d="M784.2,818.6c-2.6-2-4.6-4.4-6.1-7.2s-2.2-6-2.2-9.6s0.7-6.8,2.2-9.6s3.5-5.2,6.1-7.2l1.7,1.6c-2.5,2.1-4.3,4.4-5.5,6.9
	s-1.8,5.3-1.8,8.4s0.6,5.9,1.8,8.4s3,4.8,5.5,6.9L784.2,818.6L784.2,818.6z"/>
<path d="M799.2,812.5c-1.4,0-2.7-0.3-3.8-0.9s-1.9-1.4-2.6-2.4s-0.9-2.2-0.9-3.5c0-1.1,0.2-2,0.6-2.8s1-1.6,1.7-2.3s1.4-1.3,2.2-1.9
	c-0.5-1-0.9-2-1.2-3s-0.4-1.9-0.4-2.8c0-1.1,0.2-2.1,0.7-2.9c0.4-0.9,1.1-1.5,1.9-2.1c0.8-0.5,1.7-0.8,2.8-0.8
	c1.5,0,2.7,0.4,3.5,1.3s1.2,2,1.2,3.5c0,1-0.3,2-0.8,2.8s-1.2,1.6-2,2.3s-1.6,1.4-2.5,2c0.8,1.2,1.7,2.4,2.7,3.6s2.1,2.2,3.2,3.2
	c0.7-1,1.3-2.1,1.8-3.3s0.9-2.5,1.3-3.9h2.8c-0.4,1.6-1,3.1-1.6,4.6s-1.4,2.8-2.3,4.1c1.5,1.1,2.9,1.9,4.2,2.3l-0.9,2.5
	c-1.6-0.5-3.3-1.4-5.1-2.8c-0.9,0.8-1.9,1.5-2.9,2C801.8,812.3,800.6,812.5,799.2,812.5L799.2,812.5z M794.9,805.6
	c0,1.4,0.5,2.4,1.4,3.3c0.9,0.8,2,1.2,3.3,1.2c0.8,0,1.5-0.2,2.2-0.5s1.4-0.8,2-1.4c-1.2-1-2.3-2.2-3.3-3.4c-1.1-1.2-2-2.5-2.9-3.8
	c-0.8,0.7-1.4,1.4-1.9,2.2C795.2,803.8,794.9,804.6,794.9,805.6z M797.5,793c0,0.7,0.1,1.4,0.3,2.1s0.5,1.4,0.8,2.2
	c1-0.7,1.9-1.5,2.7-2.3s1.1-1.7,1.1-2.8c0-0.7-0.2-1.3-0.5-1.9c-0.3-0.5-0.9-0.8-1.7-0.8s-1.5,0.3-2,1S797.5,792,797.5,793
	L797.5,793z"/>
<path d="M814.7,812.1v-18h2.4l0.3,2.4h0.1c0.5-0.8,1-1.5,1.6-2s1.4-0.8,2.5-0.8c1.8,0,2.9,1,3.4,3.1c0.5-1,1.1-1.7,1.7-2.3
	s1.5-0.8,2.5-0.8c1.3,0,2.2,0.5,2.9,1.4c0.7,1,1.1,2.3,1.1,4.1v12.9h-3v-12.7c0-2.1-0.6-3.1-1.9-3.1c-0.6,0-1.1,0.2-1.5,0.7
	s-0.9,1.2-1.4,2.1v13h-2.8v-12.7c0-1-0.1-1.8-0.4-2.4c-0.3-0.5-0.8-0.8-1.4-0.8s-1.2,0.2-1.6,0.7c-0.5,0.5-0.9,1.2-1.4,2.1v13
	L814.7,812.1L814.7,812.1z"/>
<path d="M843.9,812.5c-2.1,0-3.7-0.6-4.7-1.9c-1-1.2-1.5-3-1.5-5.4V794h3.1v10.8c0,1.7,0.3,3,0.9,3.8s1.7,1.2,3.2,1.2
	c1,0,2-0.3,2.8-0.8s1.8-1.4,2.8-2.5V794h3v18H851l-0.3-3.1h-0.1c-0.9,1.1-1.9,1.9-3,2.6S845.3,812.5,843.9,812.5L843.9,812.5z"/>
<path d="M871.6,812.5c-1.8,0-3.1-0.3-4.1-0.9s-1.7-1.5-2.2-2.6s-0.6-2.4-0.6-3.9v-8.5h-5.1v-2.3l5.2-0.2l0.4-5.8h2.5v5.8h8.8v2.5
	h-8.8v8.6c0,1.6,0.3,2.8,1,3.7c0.7,0.8,1.8,1.3,3.6,1.3c0.9,0,1.6-0.1,2.3-0.2s1.4-0.3,2-0.6l0.7,2.2c-0.8,0.3-1.7,0.5-2.6,0.8
	C873.8,812.4,872.8,812.5,871.6,812.5L871.6,812.5z"/>
<path d="M912.9,812.5c-1.8,0-3.4-0.3-4.9-0.8c-1.5-0.6-2.8-1.2-3.9-2l1.4-2c1,0.7,2.2,1.3,3.4,1.8s2.7,0.7,4.4,0.7
	c1.5,0,2.7-0.3,3.4-0.8c0.8-0.6,1.1-1.2,1.1-2c0-0.5-0.1-0.9-0.4-1.3s-0.8-0.7-1.6-1.1c-0.8-0.3-2-0.7-3.6-1c-2.3-0.5-4.1-1.2-5.3-2
	s-1.8-1.9-1.8-3.3c0-1.5,0.6-2.7,1.9-3.6c1.3-1,3.1-1.5,5.6-1.5c1.4,0,2.7,0.2,4,0.7s2.4,1,3.3,1.6l-1.5,2c-0.8-0.6-1.8-1-2.8-1.4
	c-1-0.3-2.1-0.5-3.3-0.5c-1.5,0-2.6,0.3-3.2,0.8s-0.9,1.1-0.9,1.8c0,0.8,0.4,1.4,1.2,1.8s2.2,0.8,4,1.2c2,0.4,3.5,0.9,4.6,1.4
	s1.8,1.1,2.2,1.8s0.6,1.5,0.6,2.4c0,1-0.3,1.9-0.9,2.7s-1.5,1.5-2.7,2C916.1,812.3,914.7,812.5,912.9,812.5L912.9,812.5z"/>
<path d="M935.9,812.5c-1.8,0-3.4-0.4-4.9-1.1s-2.6-1.8-3.5-3.2s-1.3-3.1-1.3-5.1c0-1.9,0.4-3.6,1.3-5s2-2.5,3.4-3.2
	c1.4-0.8,2.9-1.1,4.5-1.1c2.6,0,4.6,0.8,6.1,2.3c1.4,1.5,2.2,3.6,2.2,6.1v1c0,0.3-0.1,0.6-0.1,0.9h-14.2c0.2,2,0.9,3.6,2.2,4.6
	s2.9,1.6,4.8,1.6c1.1,0,2.1-0.2,2.9-0.5c0.9-0.3,1.7-0.7,2.5-1.2l1.1,2c-0.9,0.6-1.9,1.1-3.1,1.5
	C938.7,812.3,937.4,812.5,935.9,812.5z M935.5,796c-1.5,0-2.8,0.5-4,1.4s-1.9,2.3-2.1,4.1h11.5c-0.1-1.9-0.7-3.2-1.6-4.1
	C938.2,796.5,937,796,935.5,796L935.5,796z"/>
<path d="M961,812.5c-1.9,0-3.4-0.5-4.4-1.6s-1.5-2.7-1.5-4.8v-17.8h-6.4v-2.5h9.4v20.5c0,1.3,0.3,2.3,1,2.9s1.5,0.9,2.6,0.9
	s2.2-0.3,3.4-0.8l0.8,2.3c-0.8,0.3-1.6,0.6-2.3,0.8C962.8,812.4,962,812.5,961,812.5L961,812.5z"/>
<path d="M977.1,812.1v-15.5H972v-2.3l5.1-0.2v-1.5c0-2.2,0.6-4,1.8-5.3s3-2,5.5-2c1.8,0,3.5,0.3,5.2,1l-0.7,2.3
	c-0.7-0.3-1.4-0.6-2.1-0.7c-0.6-0.1-1.3-0.2-2.1-0.2c-1.6,0-2.8,0.4-3.5,1.3c-0.7,0.8-1.1,2-1.1,3.4v1.6h7.6v2.5h-7.6V812h-3
	L977.1,812.1z"/>
<path d="M996.5,818.6l-1.7-1.6c2.5-2.1,4.3-4.4,5.5-6.9s1.8-5.3,1.8-8.4s-0.6-5.9-1.8-8.4s-3-4.8-5.5-6.9l1.7-1.6
	c2.6,2,4.6,4.4,6.1,7.2s2.2,6,2.2,9.6s-0.7,6.8-2.2,9.6C1001.1,814.2,999.1,816.6,996.5,818.6L996.5,818.6z"/>
<path d="M1046,812.6l-1.6-1.7l7.4-6.9h-16.3v-2.5h16.3l-7.4-6.9l1.6-1.7l10.1,9.8v0.1L1046,812.6L1046,812.6z"/>
<path d="M1091,812.5c-0.9,0-1.8-0.2-2.8-0.6s-1.9-1-2.8-1.8h-0.1l-0.3,2h-2.4v-26.4h3v7.2l-0.1,3.5h0.1c0.8-0.8,1.8-1.5,2.8-2
	c1.1-0.5,2.1-0.7,3.2-0.7c2.4,0,4.3,0.8,5.6,2.5s1.9,3.9,1.9,6.7c0,2-0.4,3.8-1.1,5.3c-0.8,1.5-1.8,2.6-3,3.3
	C1093.8,812.1,1092.5,812.5,1091,812.5L1091,812.5z M1090.6,809.9c1.6,0,2.9-0.6,3.9-1.9s1.6-3,1.6-5.2c0-2-0.4-3.6-1.2-4.8
	s-2.1-1.8-3.9-1.8c-0.8,0-1.6,0.2-2.5,0.6s-1.8,1.1-2.8,2.1v9c0.9,0.8,1.7,1.3,2.6,1.6S1089.9,809.9,1090.6,809.9L1090.6,809.9z"/>
<path d="M1112,812.5c-1.6,0-3-0.4-4.4-1.1c-1.3-0.7-2.4-1.8-3.3-3.2c-0.8-1.4-1.2-3.1-1.2-5.1s0.4-3.7,1.2-5.1s1.9-2.5,3.3-3.2
	c1.3-0.7,2.8-1.1,4.4-1.1s3,0.4,4.4,1.1c1.3,0.7,2.4,1.8,3.3,3.2c0.8,1.4,1.2,3.1,1.2,5.1s-0.4,3.7-1.2,5.1s-1.9,2.5-3.3,3.2
	C1115.1,812.1,1113.6,812.5,1112,812.5z M1112,810c1.7,0,3.1-0.6,4.2-1.9c1-1.3,1.6-2.9,1.6-5s-0.5-3.8-1.6-5
	c-1-1.3-2.4-1.9-4.2-1.9c-1.7,0-3.1,0.6-4.2,1.9c-1,1.3-1.6,3-1.6,5s0.5,3.7,1.6,5S1110.3,810,1112,810z"/>
<path d="M1135,812.5c-1.6,0-3-0.4-4.4-1.1c-1.3-0.7-2.4-1.8-3.3-3.2c-0.8-1.4-1.2-3.1-1.2-5.1s0.4-3.7,1.2-5.1s1.9-2.5,3.3-3.2
	c1.3-0.7,2.8-1.1,4.4-1.1s3,0.4,4.4,1.1c1.3,0.7,2.4,1.8,3.3,3.2c0.8,1.4,1.2,3.1,1.2,5.1s-0.4,3.7-1.2,5.1s-1.9,2.5-3.3,3.2
	C1138.1,812.1,1136.6,812.5,1135,812.5z M1135,810c1.7,0,3.1-0.6,4.2-1.9c1-1.3,1.6-2.9,1.6-5s-0.5-3.8-1.6-5
	c-1-1.3-2.4-1.9-4.2-1.9c-1.7,0-3.1,0.6-4.2,1.9c-1,1.3-1.6,3-1.6,5s0.5,3.7,1.6,5S1133.3,810,1135,810z"/>
<path d="M1161,812.5c-1.9,0-3.4-0.5-4.4-1.6s-1.5-2.7-1.5-4.8v-17.8h-6.4v-2.5h9.4v20.5c0,1.3,0.3,2.3,1,2.9s1.5,0.9,2.6,0.9
	s2.2-0.3,3.4-0.8l0.8,2.3c-0.8,0.3-1.6,0.6-2.3,0.8C1162.8,812.4,1162,812.5,1161,812.5L1161,812.5z"/>
<path d="M621.6,856.5V841h-5.1v-2.3l5.1-0.2V837c0-2.2,0.6-4,1.8-5.3s3-2,5.5-2c1.8,0,3.5,0.3,5.2,1l-0.7,2.3
	c-0.7-0.3-1.4-0.6-2.1-0.7c-0.6-0.1-1.3-0.2-2.1-0.2c-1.6,0-2.8,0.4-3.5,1.3c-0.7,0.8-1.1,2-1.1,3.4v1.6h7.6v2.5h-7.6v15.5h-3
	L621.6,856.5z"/>
<path d="M638.3,856.5v-18h2.5l0.3,3.1h0.1c0.9-1,2-1.9,3-2.5c1.1-0.7,2.3-1,3.7-1c2.1,0,3.7,0.6,4.7,1.9c1,1.2,1.5,3,1.5,5.4v11.2
	h-3v-10.8c0-1.7-0.3-3-1-3.8c-0.6-0.8-1.7-1.2-3.2-1.2c-1.1,0-2,0.3-2.9,0.8c-0.8,0.5-1.8,1.4-2.9,2.4v12.6h-2.8L638.3,856.5z"/>
<path d="M690.3,864.8c-2.6,0-4.7-0.4-6.1-1.3c-1.5-0.9-2.2-2.1-2.2-3.7c0-1.5,1-2.9,3-4v-0.1c-0.5-0.3-0.9-0.6-1.3-1.1
	s-0.6-1.1-0.6-1.9c0-0.6,0.2-1.2,0.6-1.8s0.9-1.1,1.6-1.6v-0.1c-0.6-0.5-1.1-1.1-1.6-1.9c-0.4-0.8-0.6-1.7-0.6-2.8
	c0-1.3,0.3-2.4,1-3.4s1.5-1.7,2.6-2.2s2.2-0.8,3.5-0.8c1,0,1.9,0.1,2.7,0.4h7.4v2.5h-4.7c0.4,0.4,0.8,1,1.1,1.6s0.4,1.3,0.4,2
	c0,1.3-0.3,2.4-0.9,3.3s-1.5,1.6-2.5,2.1s-2.2,0.7-3.5,0.7c-0.5,0-1-0.1-1.5-0.2s-1-0.3-1.5-0.5c-0.4,0.3-0.8,0.6-1,0.9
	s-0.4,0.7-0.4,1.1c0,0.7,0.3,1.2,1,1.6c0.7,0.3,1.6,0.5,2.8,0.5h4c2.3,0,4,0.3,5.2,1c1.1,0.6,1.7,1.7,1.7,3.3c0,1.1-0.4,2.1-1.2,3.1
	s-2,1.7-3.5,2.3C694.1,864.5,692.3,864.8,690.3,864.8L690.3,864.8z M690.5,862.6c2.1,0,3.8-0.4,5-1.1s1.8-1.6,1.8-2.5
	s-0.3-1.4-1-1.7s-1.7-0.4-3.1-0.4h-3.5c-0.5,0-1,0-1.5-0.1c-0.5,0-0.9-0.1-1.3-0.2c-0.8,0.5-1.4,1-1.8,1.5c-0.3,0.5-0.5,1-0.5,1.5
	c0,0.9,0.5,1.7,1.5,2.2S688.6,862.6,690.5,862.6L690.5,862.6z M690.1,848.8c1.2,0,2.1-0.4,2.9-1.2s1.2-1.8,1.2-3.1s-0.4-2.3-1.2-3.1
	s-1.8-1.2-2.9-1.2s-2.1,0.4-2.9,1.2s-1.2,1.8-1.2,3.1s0.4,2.3,1.2,3.1S688.9,848.8,690.1,848.8z"/>
<path d="M713.7,856.9c-1.8,0-3.4-0.4-4.9-1.1s-2.6-1.8-3.5-3.2s-1.3-3.1-1.3-5.1c0-1.9,0.4-3.6,1.3-5s2-2.5,3.4-3.2
	c1.4-0.8,2.9-1.1,4.5-1.1c2.6,0,4.6,0.8,6.1,2.3c1.4,1.5,2.2,3.6,2.2,6.1v1c0,0.3-0.1,0.6-0.1,0.9h-14.2c0.2,2,0.9,3.6,2.2,4.6
	s2.9,1.6,4.8,1.6c1.1,0,2.1-0.2,2.9-0.5c0.9-0.3,1.7-0.7,2.5-1.2l1.1,2c-0.9,0.6-1.9,1.1-3.1,1.5
	C716.5,856.7,715.2,856.9,713.7,856.9z M713.3,840.5c-1.5,0-2.8,0.5-4,1.4s-1.9,2.3-2.1,4.1h11.5c-0.1-1.9-0.7-3.2-1.6-4.1
	C716.1,840.9,714.8,840.5,713.3,840.5L713.3,840.5z"/>
<path d="M738.3,856.9c-1.8,0-3.1-0.3-4.1-0.9s-1.7-1.5-2.2-2.6s-0.6-2.4-0.6-3.9V841h-5.1v-2.3l5.2-0.2l0.4-5.8h2.5v5.8h8.8v2.5
	h-8.8v8.6c0,1.6,0.3,2.8,1,3.7c0.7,0.8,1.8,1.3,3.6,1.3c0.9,0,1.6-0.1,2.3-0.2s1.4-0.3,2-0.6l0.7,2.2c-0.8,0.3-1.7,0.5-2.6,0.8
	C740.5,856.8,739.5,856.9,738.3,856.9L738.3,856.9z"/>
<path d="M762,863c-2.6-2-4.6-4.4-6.1-7.2s-2.2-6-2.2-9.6s0.7-6.8,2.2-9.6s3.5-5.2,6.1-7.2l1.7,1.6c-2.5,2.1-4.3,4.4-5.5,6.9
	s-1.8,5.3-1.8,8.4s0.6,5.9,1.8,8.4s3,4.8,5.5,6.9L762,863L762,863z"/>
<path d="M777,856.9c-1.4,0-2.7-0.3-3.8-0.9s-1.9-1.4-2.6-2.4s-0.9-2.2-0.9-3.5c0-1.1,0.2-2,0.6-2.8s1-1.6,1.7-2.3s1.4-1.3,2.2-1.9
	c-0.5-1-0.9-2-1.2-3s-0.4-1.9-0.4-2.8c0-1.1,0.2-2.1,0.7-2.9c0.4-0.9,1.1-1.5,1.9-2.1c0.8-0.5,1.7-0.8,2.8-0.8
	c1.5,0,2.7,0.4,3.5,1.3s1.2,2,1.2,3.5c0,1-0.3,2-0.8,2.8s-1.2,1.6-2,2.3s-1.6,1.4-2.5,2c0.8,1.2,1.7,2.4,2.7,3.6s2.1,2.2,3.2,3.2
	c0.7-1,1.3-2.1,1.8-3.3s0.9-2.5,1.3-3.9h2.8c-0.4,1.6-1,3.1-1.6,4.6s-1.4,2.8-2.3,4.1c1.5,1.1,2.9,1.9,4.2,2.3l-0.9,2.5
	c-1.6-0.5-3.3-1.4-5.1-2.8c-0.9,0.8-1.9,1.5-2.9,2C779.6,856.7,778.4,856.9,777,856.9L777,856.9z M772.7,850c0,1.4,0.5,2.4,1.4,3.3
	c0.9,0.8,2,1.2,3.3,1.2c0.8,0,1.5-0.2,2.2-0.5s1.4-0.8,2-1.4c-1.2-1-2.3-2.2-3.3-3.4c-1.1-1.2-2-2.5-2.9-3.8
	c-0.8,0.7-1.4,1.4-1.9,2.2C772.9,848.2,772.7,849.1,772.7,850z M775.3,837.5c0,0.7,0.1,1.4,0.3,2.1s0.5,1.4,0.8,2.2
	c1-0.7,1.9-1.5,2.7-2.3s1.1-1.7,1.1-2.8c0-0.7-0.2-1.3-0.5-1.9c-0.3-0.5-0.9-0.8-1.7-0.8s-1.5,0.3-2,1S775.3,836.4,775.3,837.5
	L775.3,837.5z"/>
<path d="M801.9,856.9c-1.8,0-3.4-0.3-4.9-0.8c-1.5-0.6-2.8-1.2-3.9-2l1.4-2c1,0.7,2.2,1.3,3.4,1.8s2.7,0.7,4.4,0.7
	c1.5,0,2.7-0.3,3.4-0.8c0.8-0.6,1.1-1.2,1.1-2c0-0.5-0.1-0.9-0.4-1.3s-0.8-0.7-1.6-1.1c-0.8-0.3-2-0.7-3.6-1c-2.3-0.5-4.1-1.2-5.3-2
	s-1.8-1.9-1.8-3.3c0-1.5,0.6-2.7,1.9-3.6c1.3-1,3.1-1.5,5.6-1.5c1.4,0,2.7,0.2,4,0.7s2.4,1,3.3,1.6l-1.5,2c-0.8-0.6-1.8-1-2.8-1.4
	c-1-0.3-2.1-0.5-3.3-0.5c-1.5,0-2.6,0.3-3.2,0.8s-0.9,1.1-0.9,1.8c0,0.8,0.4,1.4,1.2,1.8s2.2,0.8,4,1.2c2,0.4,3.5,0.9,4.6,1.4
	s1.8,1.1,2.2,1.8s0.6,1.5,0.6,2.4c0,1-0.3,1.9-0.9,2.7s-1.5,1.5-2.7,2C805,856.7,803.6,856.9,801.9,856.9L801.9,856.9z"/>
<path d="M824.8,856.9c-1.8,0-3.4-0.4-4.9-1.1s-2.6-1.8-3.5-3.2s-1.3-3.1-1.3-5.1c0-1.9,0.4-3.6,1.3-5s2-2.5,3.4-3.2
	c1.4-0.8,2.9-1.1,4.5-1.1c2.6,0,4.6,0.8,6.1,2.3c1.4,1.5,2.2,3.6,2.2,6.1v1c0,0.3-0.1,0.6-0.1,0.9h-14.2c0.2,2,0.9,3.6,2.2,4.6
	s2.9,1.6,4.8,1.6c1.1,0,2.1-0.2,2.9-0.5c0.9-0.3,1.7-0.7,2.5-1.2l1.1,2c-0.9,0.6-1.9,1.1-3.1,1.5
	C827.6,856.7,826.3,856.9,824.8,856.9z M824.4,840.5c-1.5,0-2.8,0.5-4,1.4s-1.9,2.3-2.1,4.1h11.5c-0.1-1.9-0.7-3.2-1.6-4.1
	C827.2,840.9,825.9,840.5,824.4,840.5L824.4,840.5z"/>
<path d="M849.9,856.9c-1.9,0-3.4-0.5-4.4-1.6s-1.5-2.7-1.5-4.8v-17.8h-6.4v-2.5h9.4v20.5c0,1.3,0.3,2.3,1,2.9s1.5,0.9,2.6,0.9
	s2.2-0.3,3.4-0.8l0.8,2.3c-0.8,0.3-1.6,0.6-2.3,0.8C851.7,856.8,850.9,856.9,849.9,856.9L849.9,856.9z"/>
<path d="M866,856.5V841h-5.1v-2.3l5.1-0.2V837c0-2.2,0.6-4,1.8-5.3s3-2,5.5-2c1.8,0,3.5,0.3,5.2,1l-0.7,2.3
	c-0.7-0.3-1.4-0.6-2.1-0.7c-0.6-0.1-1.3-0.2-2.1-0.2c-1.6,0-2.8,0.4-3.5,1.3c-0.7,0.8-1.1,2-1.1,3.4v1.6h7.6v2.5H869v15.5h-3
	L866,856.5z"/>
<path d="M885.4,863l-1.7-1.6c2.5-2.1,4.3-4.4,5.5-6.9s1.8-5.3,1.8-8.4s-0.6-5.9-1.8-8.4s-3-4.8-5.5-6.9l1.7-1.6
	c2.6,2,4.6,4.4,6.1,7.2s2.2,6,2.2,9.6s-0.7,6.8-2.2,9.6C890,858.6,888,861,885.4,863L885.4,863z"/>
<path d="M935.1,857l-1.6-1.7l7.4-6.9h-16.3v-2.5H941l-7.4-6.9l1.6-1.7l10.1,9.8v0.1L935.1,857L935.1,857z"/>
<path d="M980,856.9c-0.9,0-1.8-0.2-2.8-0.6s-1.9-1-2.8-1.8h-0.1l-0.3,2h-2.4v-26.4h3v7.2l-0.1,3.5h0.1c0.8-0.8,1.8-1.5,2.8-2
	c1.1-0.5,2.1-0.7,3.2-0.7c2.4,0,4.3,0.8,5.6,2.5s1.9,3.9,1.9,6.7c0,2-0.4,3.8-1.1,5.3c-0.8,1.5-1.8,2.6-3,3.3
	C982.7,856.6,981.4,856.9,980,856.9L980,856.9z M979.5,854.4c1.6,0,2.9-0.6,3.9-1.9s1.6-3,1.6-5.2c0-2-0.4-3.6-1.2-4.8
	s-2.1-1.8-3.9-1.8c-0.8,0-1.6,0.2-2.5,0.6s-1.8,1.1-2.8,2.1v9c0.9,0.8,1.7,1.3,2.6,1.6S978.8,854.4,979.5,854.4L979.5,854.4z"/>
<path d="M1001,856.9c-1.6,0-3-0.4-4.4-1.1c-1.3-0.7-2.4-1.8-3.3-3.2c-0.8-1.4-1.2-3.1-1.2-5.1s0.4-3.7,1.2-5.1s1.9-2.5,3.3-3.2
	c1.3-0.7,2.8-1.1,4.4-1.1s3,0.4,4.4,1.1c1.3,0.7,2.4,1.8,3.3,3.2c0.8,1.4,1.2,3.1,1.2,5.1s-0.4,3.7-1.2,5.1s-1.9,2.5-3.3,3.2
	C1004.1,856.6,1002.6,856.9,1001,856.9z M1001,854.4c1.7,0,3.1-0.6,4.2-1.9c1-1.3,1.6-2.9,1.6-5s-0.5-3.8-1.6-5
	c-1-1.3-2.4-1.9-4.2-1.9c-1.7,0-3.1,0.6-4.2,1.9c-1,1.3-1.6,3-1.6,5s0.5,3.7,1.6,5S999.3,854.4,1001,854.4z"/>
<path d="M1024,856.9c-1.6,0-3-0.4-4.4-1.1c-1.3-0.7-2.4-1.8-3.3-3.2c-0.8-1.4-1.2-3.1-1.2-5.1s0.4-3.7,1.2-5.1s1.9-2.5,3.3-3.2
	c1.3-0.7,2.8-1.1,4.4-1.1c1.6,0,3,0.4,4.4,1.1c1.3,0.7,2.4,1.8,3.3,3.2c0.8,1.4,1.2,3.1,1.2,5.1s-0.4,3.7-1.2,5.1s-1.9,2.5-3.3,3.2
	C1027,856.6,1025.5,856.9,1024,856.9z M1024,854.4c1.7,0,3.1-0.6,4.2-1.9c1-1.3,1.6-2.9,1.6-5s-0.5-3.8-1.6-5
	c-1-1.3-2.4-1.9-4.2-1.9c-1.7,0-3.1,0.6-4.2,1.9c-1,1.3-1.6,3-1.6,5s0.5,3.7,1.6,5C1020.8,853.8,1022.2,854.4,1024,854.4L1024,854.4
	z"/>
<path d="M1050,856.9c-1.9,0-3.4-0.5-4.4-1.6s-1.5-2.7-1.5-4.8v-17.8h-6.4v-2.5h9.4v20.5c0,1.3,0.3,2.3,1,2.9s1.5,0.9,2.6,0.9
	s2.2-0.3,3.4-0.8l0.8,2.3c-0.8,0.3-1.6,0.6-2.3,0.8C1051.9,856.8,1051,856.9,1050,856.9L1050,856.9z"/>
<path d="M751.3,572.4v-27.9h10.9c2.4,0,4.5,0.4,6.3,1.2c1.7,0.8,3.1,1.9,4,3.3c0.9,1.5,1.4,3.2,1.4,5.2s-0.5,3.8-1.4,5.2
	s-2.3,2.6-4,3.3c-1.7,0.8-3.8,1.2-6.3,1.2h-8.7l1.8-1.8v10.3H751.3z M755.3,562.5l-1.8-2h8.6c2.6,0,4.5-0.6,5.8-1.7s2-2.7,2-4.6
	s-0.7-3.5-2-4.6s-3.2-1.6-5.8-1.6h-8.6l1.8-2V562.5L755.3,562.5z M770,572.4l-7.1-10.1h4.3l7.2,10.1H770z"/>
<path d="M780.3,572.4v-27.9h10.9c2.4,0,4.5,0.4,6.3,1.2c1.7,0.8,3.1,1.9,4,3.3c0.9,1.5,1.4,3.2,1.4,5.2s-0.5,3.8-1.4,5.2
	s-2.3,2.6-4,3.3c-1.7,0.8-3.8,1.2-6.3,1.2h-8.7l1.8-1.9v10.3h-4V572.4z M784.3,562.5l-1.8-2h8.6c2.6,0,4.5-0.5,5.8-1.6s2-2.6,2-4.6
	s-0.7-3.5-2-4.6s-3.2-1.6-5.8-1.6h-8.6l1.8-2V562.5L784.3,562.5z"/>
<path d="M821.6,572.7c-2.1,0-4.1-0.4-5.9-1.1s-3.3-1.7-4.7-3c-1.3-1.3-2.3-2.8-3.1-4.5c-0.7-1.7-1.1-3.6-1.1-5.7s0.4-4,1.1-5.7
	s1.8-3.2,3.1-4.5s2.9-2.3,4.7-3s3.8-1.1,5.9-1.1c2.2,0,4.1,0.4,6,1.1c1.8,0.7,3.4,1.8,4.6,3.2l-2.6,2.5c-1.1-1.1-2.3-1.9-3.6-2.5
	c-1.3-0.5-2.8-0.8-4.3-0.8c-1.6,0-3,0.3-4.4,0.8c-1.3,0.5-2.5,1.3-3.5,2.2s-1.7,2.1-2.3,3.4c-0.5,1.3-0.8,2.7-0.8,4.3
	c0,1.5,0.3,3,0.8,4.3s1.3,2.5,2.3,3.4s2.1,1.7,3.5,2.2c1.3,0.5,2.8,0.8,4.4,0.8c1.5,0,2.9-0.3,4.3-0.8c1.3-0.5,2.5-1.4,3.6-2.5
	l2.6,2.5c-1.3,1.4-2.8,2.5-4.6,3.3S823.8,572.7,821.6,572.7L821.6,572.7z"/>
<path d="M852.7,568.9H869v3.5h-20.3v-27.9h19.7v3.5h-15.7V568.9z M852.3,556.5h14.4v3.4h-14.4V556.5z"/>
<path d="M886.1,551.1c1.7,0,3.2,0.3,4.6,1c1.3,0.7,2.3,1.7,3.1,3c0.7,1.4,1.1,3.1,1.1,5.1v12.2h-3.8v-11.7c0-2-0.5-3.6-1.5-4.6
	s-2.4-1.6-4.2-1.6c-1.4,0-2.5,0.3-3.5,0.8s-1.8,1.3-2.3,2.4c-0.5,1-0.8,2.3-0.8,3.9v10.9H875v-21.1h3.7v5.7l-0.6-1.5
	c0.7-1.4,1.8-2.5,3.2-3.2S884.2,551.1,886.1,551.1L886.1,551.1z"/>
<path d="M910.7,572.6c-2,0-3.9-0.5-5.5-1.4s-2.9-2.2-3.8-3.8s-1.4-3.5-1.4-5.7s0.5-4,1.4-5.6s2.2-2.9,3.8-3.8s3.4-1.4,5.5-1.4
	c1.8,0,3.4,0.4,4.8,1.2s2.6,2,3.4,3.6c0.9,1.6,1.3,3.6,1.3,6s-0.4,4.4-1.3,6c-0.8,1.6-2,2.8-3.4,3.6
	C914.2,572.2,912.5,572.6,910.7,572.6L910.7,572.6z M911,569.3c1.3,0,2.5-0.3,3.6-0.9s1.9-1.5,2.6-2.6c0.6-1.1,0.9-2.4,0.9-3.9
	s-0.3-2.8-0.9-3.9s-1.5-2-2.6-2.6s-2.3-0.9-3.6-0.9c-1.4,0-2.6,0.3-3.6,0.9c-1.1,0.6-1.9,1.5-2.6,2.6c-0.6,1.1-1,2.4-1,3.9
	s0.3,2.8,1,3.9c0.6,1.1,1.5,2,2.6,2.6S909.7,569.3,911,569.3z M918.3,572.4v-5.7l0.2-4.9l-0.4-4.9v-14.1h3.8v29.6L918.3,572.4
	L918.3,572.4z"/>
<path d="M929.2,580.1v-28.9h3.7v5.7l-0.2,4.9l0.4,4.9v13.4L929.2,580.1L929.2,580.1z M940.4,572.6c-1.8,0-3.4-0.4-4.8-1.2
	s-2.6-2-3.5-3.6s-1.3-3.6-1.3-6s0.4-4.4,1.3-6c0.8-1.6,2-2.8,3.4-3.6s3.1-1.2,4.9-1.2c2.1,0,3.9,0.5,5.5,1.4s2.9,2.2,3.8,3.8
	s1.4,3.5,1.4,5.6s-0.5,4-1.4,5.7c-0.9,1.6-2.2,2.9-3.8,3.8S942.5,572.6,940.4,572.6L940.4,572.6z M940.1,569.3
	c1.4,0,2.6-0.3,3.6-0.9c1.1-0.6,1.9-1.5,2.6-2.6c0.6-1.1,0.9-2.4,0.9-3.9s-0.3-2.8-0.9-3.9s-1.5-2-2.6-2.6s-2.3-0.9-3.6-0.9
	s-2.5,0.3-3.6,0.9s-1.9,1.5-2.6,2.6c-0.6,1.1-0.9,2.4-0.9,3.9s0.3,2.8,0.9,3.9s1.5,2,2.6,2.6C937.5,569,938.7,569.3,940.1,569.3z"/>
<path d="M965.4,572.6c-2.1,0-4-0.5-5.7-1.4c-1.6-0.9-3-2.2-3.9-3.8s-1.4-3.5-1.4-5.6s0.5-4,1.4-5.6c1-1.6,2.3-2.9,3.9-3.8
	s3.5-1.4,5.7-1.4c2.1,0,4,0.5,5.6,1.4s3,2.2,3.9,3.8s1.4,3.5,1.4,5.6s-0.5,4-1.4,5.6s-2.2,2.9-3.9,3.8
	C969.4,572.2,967.5,572.6,965.4,572.6z M965.4,569.3c1.4,0,2.6-0.3,3.6-0.9c1.1-0.6,1.9-1.5,2.5-2.6s0.9-2.4,0.9-3.9
	s-0.3-2.8-0.9-3.9s-1.5-2-2.5-2.6c-1.1-0.6-2.3-0.9-3.6-0.9c-1.4,0-2.6,0.3-3.6,0.9c-1.1,0.6-1.9,1.5-2.6,2.6c-0.6,1.1-1,2.4-1,3.9
	s0.3,2.8,1,3.9c0.6,1.1,1.5,2,2.6,2.6S964.1,569.3,965.4,569.3z"/>
<path d="M983.6,547.2c-0.7,0-1.4-0.2-1.9-0.7s-0.7-1.1-0.7-1.8s0.2-1.3,0.7-1.8s1.1-0.7,1.9-0.7c0.7,0,1.4,0.2,1.9,0.7
	s0.7,1,0.7,1.7s-0.2,1.3-0.7,1.8S984.4,547.2,983.6,547.2z M981.7,572.4v-21.1h3.8v21.1H981.7z"/>
<path d="M1004,551.1c1.7,0,3.2,0.3,4.6,1c1.3,0.7,2.3,1.7,3.1,3c0.7,1.4,1.1,3.1,1.1,5.1v12.2h-3.8v-11.7c0-2-0.5-3.6-1.5-4.6
	s-2.4-1.6-4.2-1.6c-1.4,0-2.5,0.3-3.5,0.8s-1.8,1.3-2.3,2.4c-0.5,1-0.8,2.3-0.8,3.9v10.9h-3.8v-21.1h3.7v5.7l-0.6-1.5
	c0.7-1.4,1.8-2.5,3.2-3.2S1002.1,551.1,1004,551.1L1004,551.1z"/>
<path d="M1017,554.4v-3.1h13.5v3.1H1017z M1027.3,572.6c-2.1,0-3.8-0.6-4.9-1.7c-1.2-1.1-1.8-2.8-1.8-4.9v-19.4h3.8v19.2
	c0,1.1,0.3,2,0.9,2.6s1.4,0.9,2.5,0.9c1.2,0,2.2-0.3,3-1l1.2,2.8c-0.6,0.5-1.3,0.9-2.1,1.1C1029.1,572.5,1028.2,572.6,1027.3,572.6
	L1027.3,572.6z"/>
<path d="M563.7,728.9c-2.1,0-4.2-0.3-6.1-1s-3.5-1.5-4.6-2.5l1.5-3.1c1.1,0.9,2.4,1.7,4.1,2.3c1.6,0.6,3.4,0.9,5.1,0.9
	c1.6,0,2.9-0.2,3.9-0.6s1.8-0.9,2.2-1.5c0.5-0.7,0.7-1.4,0.7-2.2c0-1-0.3-1.7-0.9-2.3s-1.4-1.1-2.4-1.4s-2.1-0.7-3.3-0.9l-3.6-0.9
	c-1.2-0.4-2.3-0.8-3.3-1.4s-1.8-1.3-2.4-2.3c-0.6-0.9-0.9-2.2-0.9-3.6s0.4-2.8,1.1-4c0.8-1.2,1.9-2.2,3.5-2.9s3.6-1.1,6-1.1
	c1.6,0,3.2,0.2,4.8,0.6s3,1,4.1,1.8L572,706c-1.2-0.8-2.5-1.4-3.8-1.7c-1.3-0.4-2.6-0.5-3.9-0.5c-1.6,0-2.9,0.2-3.9,0.6
	s-1.7,0.9-2.2,1.6s-0.7,1.4-0.7,2.2c0,1,0.3,1.8,0.9,2.4s1.4,1.1,2.4,1.4s2.1,0.7,3.3,0.9l3.6,0.9c1.2,0.3,2.3,0.8,3.3,1.4
	s1.8,1.3,2.4,2.2s0.9,2.1,0.9,3.6c0,1.4-0.4,2.7-1.2,3.9s-2,2.2-3.6,2.9C568.2,728.5,566.1,728.9,563.7,728.9L563.7,728.9z"/>
<path d="M588.6,728.8c-1.8,0-3.4-0.3-4.8-1s-2.4-1.7-3.2-3.1s-1.1-3.1-1.1-5.2v-12.2h3.8V719c0,2.1,0.5,3.6,1.5,4.7
	c1,1,2.4,1.6,4.2,1.6c1.3,0,2.5-0.3,3.5-0.8s1.7-1.3,2.3-2.4c0.5-1,0.8-2.3,0.8-3.8v-10.9h3.8v21.1h-3.6v-5.7l0.6,1.5
	c-0.7,1.4-1.7,2.5-3.1,3.3S590.4,728.8,588.6,728.8L588.6,728.8z"/>
<path d="M606.8,728.5v-29.6h3.8V713l-0.4,4.9l0.2,4.9v5.7L606.8,728.5L606.8,728.5z M618,728.8c-1.8,0-3.4-0.4-4.9-1.2
	c-1.4-0.8-2.6-2-3.4-3.6s-1.3-3.6-1.3-6s0.4-4.4,1.3-6s2-2.8,3.5-3.6c1.4-0.8,3.1-1.2,4.8-1.2c2.1,0,3.9,0.5,5.5,1.4
	s2.9,2.2,3.8,3.8s1.4,3.5,1.4,5.6s-0.5,4-1.4,5.7c-0.9,1.6-2.2,2.9-3.8,3.8C621.9,728.3,620,728.8,618,728.8L618,728.8z
	 M617.6,725.4c1.4,0,2.6-0.3,3.6-0.9c1.1-0.6,1.9-1.5,2.6-2.6c0.6-1.1,0.9-2.4,0.9-3.9s-0.3-2.8-0.9-3.9s-1.5-2-2.6-2.6
	s-2.3-0.9-3.6-0.9s-2.5,0.3-3.6,0.9s-1.9,1.5-2.6,2.6c-0.6,1.1-0.9,2.4-0.9,3.9s0.3,2.8,0.9,3.9s1.5,2,2.6,2.6
	S616.3,725.4,617.6,725.4z"/>
<path d="M640,728.8c-1.8,0-3.4-0.2-5-0.7s-2.8-1.1-3.7-1.8l1.6-3c0.9,0.6,2,1.1,3.3,1.6c1.3,0.4,2.7,0.6,4.1,0.6
	c1.8,0,3.1-0.3,3.8-0.8c0.8-0.5,1.2-1.2,1.2-2.1c0-0.7-0.2-1.2-0.7-1.6s-1.1-0.7-1.9-0.8c-0.8-0.2-1.7-0.4-2.6-0.5
	c-1-0.1-1.9-0.3-2.9-0.6c-1-0.2-1.8-0.5-2.6-1c-0.8-0.4-1.4-1-1.9-1.7s-0.7-1.7-0.7-2.9c0-1.3,0.4-2.4,1.1-3.3s1.7-1.7,3-2.2
	s2.9-0.8,4.7-0.8c1.4,0,2.8,0.2,4.2,0.5s2.6,0.8,3.5,1.4l-1.6,3c-1-0.6-2-1.1-3-1.3s-2.1-0.4-3.1-0.4c-1.7,0-2.9,0.3-3.7,0.8
	s-1.2,1.2-1.2,2.1c0,0.7,0.2,1.3,0.7,1.7s1.1,0.7,1.9,0.9s1.7,0.4,2.6,0.5s1.9,0.3,2.9,0.6c1,0.2,1.8,0.5,2.6,0.9s1.4,1,1.9,1.7
	s0.7,1.7,0.7,2.9c0,1.3-0.4,2.4-1.1,3.3s-1.8,1.7-3.2,2.2S641.9,728.8,640,728.8L640,728.8z"/>
<path d="M650.9,710.5v-3.1h13.5v3.1H650.9z M661.2,728.8c-2.1,0-3.8-0.6-4.9-1.7c-1.2-1.1-1.8-2.8-1.8-4.9v-19.4h3.8V722
	c0,1.1,0.3,2,0.9,2.6s1.4,0.9,2.5,0.9c1.2,0,2.2-0.3,3-1l1.2,2.8c-0.6,0.5-1.3,0.9-2.1,1.1C662.9,728.7,662.1,728.8,661.2,728.8
	L661.2,728.8z"/>
<path d="M670.4,728.5v-21.1h3.7v5.7l-0.4-1.4c0.6-1.5,1.6-2.6,3-3.3s3.1-1.2,5.1-1.2v3.7h-0.5c0,0-0.3,0-0.4,0c-2,0-3.7,0.6-4.9,1.8
	s-1.8,3-1.8,5.3v10.5H670.4L670.4,728.5z"/>
<path d="M691.1,728.8c-1.6,0-2.9-0.3-4.1-0.8s-2.1-1.3-2.7-2.2s-1-2-1-3.2c0-1.1,0.3-2.2,0.8-3.1s1.4-1.7,2.7-2.2
	c1.2-0.6,2.9-0.8,5-0.8h6.7v2.8H692c-1.9,0-3.2,0.3-3.9,1c-0.7,0.6-1,1.4-1,2.3c0,1,0.4,1.9,1.2,2.5s2,0.9,3.4,0.9s2.7-0.3,3.8-1
	c1.1-0.6,1.9-1.6,2.3-2.8l0.8,2.6c-0.5,1.2-1.4,2.2-2.7,3C694.7,728.4,693.1,728.8,691.1,728.8z M698.1,728.5V724l-0.2-0.8v-7.6
	c0-1.6-0.5-2.9-1.4-3.8s-2.4-1.3-4.2-1.3c-1.2,0-2.5,0.2-3.7,0.6s-2.2,1-3,1.7l-1.6-2.9c1.1-0.9,2.4-1.5,3.9-2s3.1-0.7,4.8-0.7
	c2.9,0,5.1,0.7,6.7,2.1s2.4,3.6,2.4,6.5v12.8L698.1,728.5L698.1,728.5z"/>
<path d="M705.8,710.5v-3.1h13.5v3.1H705.8z M716,728.8c-2.1,0-3.8-0.6-4.9-1.7c-1.2-1.1-1.8-2.8-1.8-4.9v-19.4h3.8V722
	c0,1.1,0.3,2,0.9,2.6s1.4,0.9,2.5,0.9c1.2,0,2.2-0.3,3-1l1.2,2.8c-0.6,0.5-1.3,0.9-2.1,1.1C717.8,728.7,716.9,728.8,716,728.8
	L716,728.8z"/>
<path d="M734,728.8c-2.3,0-4.2-0.5-6-1.4c-1.7-0.9-3-2.2-4-3.8c-0.9-1.6-1.4-3.5-1.4-5.6s0.5-4,1.4-5.6s2.2-2.9,3.8-3.8
	s3.4-1.4,5.4-1.4s3.9,0.5,5.4,1.4c1.6,0.9,2.8,2.2,3.7,3.8s1.3,3.5,1.3,5.7v0.6c0,0.2,0,0.4-0.1,0.6h-18v-2.8h16l-1.6,1
	c0-1.4-0.3-2.6-0.8-3.6c-0.6-1.1-1.4-1.9-2.4-2.5s-2.2-0.9-3.6-0.9c-1.3,0-2.5,0.3-3.5,0.9s-1.8,1.4-2.4,2.5s-0.9,2.3-0.9,3.7v0.6
	c0,1.4,0.3,2.7,1,3.8s1.6,2,2.7,2.6c1.2,0.6,2.5,0.9,4,0.9c1.2,0,2.4-0.2,3.4-0.6s1.9-1.1,2.7-1.9l2.1,2.5c-1,1.1-2.1,2-3.6,2.6
	C737.3,728.5,735.7,728.8,734,728.8L734,728.8z"/>
<path d="M760.3,728.5v-27.9h3.3l18.5,22.9h-1.7v-22.9h4v27.9H781l-18.5-22.9h1.7v22.9H760.3L760.3,728.5z"/>
<path d="M801.1,728.8c-2.1,0-4-0.5-5.7-1.4c-1.6-0.9-3-2.2-3.9-3.8s-1.4-3.5-1.4-5.6s0.5-4,1.4-5.6c1-1.6,2.3-2.9,3.9-3.8
	s3.5-1.4,5.7-1.4c2.1,0,4,0.5,5.6,1.4s3,2.2,3.9,3.8s1.4,3.5,1.4,5.6s-0.5,4-1.4,5.6s-2.2,2.9-3.9,3.8
	C805.1,728.3,803.2,728.8,801.1,728.8z M801.1,725.4c1.4,0,2.6-0.3,3.6-0.9c1.1-0.6,1.9-1.5,2.5-2.6s0.9-2.4,0.9-3.9
	s-0.3-2.8-0.9-3.9s-1.5-2-2.5-2.6c-1.1-0.6-2.3-0.9-3.6-0.9c-1.4,0-2.6,0.3-3.6,0.9c-1.1,0.6-1.9,1.5-2.6,2.6c-0.6,1.1-1,2.4-1,3.9
	s0.3,2.8,1,3.9c0.6,1.1,1.5,2,2.6,2.6S799.8,725.4,801.1,725.4z"/>
<path d="M826.1,728.8c-2,0-3.9-0.5-5.5-1.4s-2.9-2.2-3.8-3.8s-1.4-3.5-1.4-5.7s0.5-4,1.4-5.6s2.2-2.9,3.8-3.8s3.4-1.4,5.5-1.4
	c1.8,0,3.4,0.4,4.8,1.2s2.6,2,3.4,3.6c0.9,1.6,1.3,3.6,1.3,6s-0.4,4.4-1.3,6c-0.8,1.6-2,2.8-3.4,3.6
	C829.6,728.4,828,728.8,826.1,728.8L826.1,728.8z M826.5,725.4c1.3,0,2.5-0.3,3.6-0.9s1.9-1.5,2.6-2.6c0.6-1.1,0.9-2.4,0.9-3.9
	s-0.3-2.8-0.9-3.9s-1.5-2-2.6-2.6s-2.3-0.9-3.6-0.9c-1.4,0-2.6,0.3-3.6,0.9c-1.1,0.6-1.9,1.5-2.6,2.6c-0.6,1.1-1,2.4-1,3.9
	s0.3,2.8,1,3.9c0.6,1.1,1.5,2,2.6,2.6C823.9,725.1,825.1,725.4,826.5,725.4z M833.7,728.5v-5.7l0.2-4.9l-0.4-4.9v-14.1h3.8v29.6
	L833.7,728.5L833.7,728.5z"/>
<path d="M854,728.8c-2.3,0-4.2-0.5-6-1.4c-1.7-0.9-3-2.2-4-3.8c-0.9-1.6-1.4-3.5-1.4-5.6s0.5-4,1.4-5.6s2.2-2.9,3.8-3.8
	s3.4-1.4,5.4-1.4s3.9,0.5,5.4,1.4c1.6,0.9,2.8,2.2,3.7,3.8s1.3,3.5,1.3,5.7v0.6c0,0.2,0,0.4-0.1,0.6h-18v-2.8h16l-1.6,1
	c0-1.4-0.3-2.6-0.8-3.6c-0.6-1.1-1.4-1.9-2.4-2.5s-2.2-0.9-3.6-0.9c-1.3,0-2.5,0.3-3.5,0.9s-1.8,1.4-2.4,2.5s-0.9,2.3-0.9,3.7v0.6
	c0,1.4,0.3,2.7,1,3.8s1.6,2,2.7,2.6c1.2,0.6,2.5,0.9,4,0.9c1.2,0,2.4-0.2,3.4-0.6s1.9-1.1,2.7-1.9l2.1,2.5c-1,1.1-2.1,2-3.6,2.6
	C857.4,728.5,855.8,728.8,854,728.8L854,728.8z"/>
<path d="M878.8,716.2V713h17.9v3.1h-17.9V716.2z M886,723.3v-17.5h3.3v17.5H886z"/>
<path d="M913.7,736.3v-28.9h3.7v5.7l-0.2,4.9l0.4,4.9v13.4L913.7,736.3L913.7,736.3z M924.9,728.8c-1.8,0-3.4-0.4-4.8-1.2
	s-2.6-2-3.5-3.6s-1.3-3.6-1.3-6s0.4-4.4,1.3-6c0.8-1.6,2-2.8,3.4-3.6s3.1-1.2,4.9-1.2c2.1,0,3.9,0.5,5.5,1.4s2.9,2.2,3.8,3.8
	s1.4,3.5,1.4,5.6s-0.5,4-1.4,5.7c-0.9,1.6-2.2,2.9-3.8,3.8C928.8,728.3,926.9,728.8,924.9,728.8L924.9,728.8z M924.6,725.4
	c1.4,0,2.6-0.3,3.6-0.9c1.1-0.6,1.9-1.5,2.6-2.6c0.6-1.1,0.9-2.4,0.9-3.9s-0.3-2.8-0.9-3.9s-1.5-2-2.6-2.6s-2.3-0.9-3.6-0.9
	s-2.5,0.3-3.6,0.9s-1.9,1.5-2.6,2.6c-0.6,1.1-0.9,2.4-0.9,3.9s0.3,2.8,0.9,3.9s1.5,2,2.6,2.6C922,725.1,923.2,725.4,924.6,725.4z"/>
<path d="M946.8,728.8c-1.6,0-2.9-0.3-4.1-0.8s-2.1-1.3-2.7-2.2s-1-2-1-3.2c0-1.1,0.3-2.2,0.8-3.1s1.4-1.7,2.7-2.2
	c1.2-0.6,2.9-0.8,5-0.8h6.7v2.8h-6.5c-1.9,0-3.2,0.3-3.9,1c-0.7,0.6-1,1.4-1,2.3c0,1,0.4,1.9,1.2,2.5s2,0.9,3.4,0.9s2.7-0.3,3.8-1
	c1.1-0.6,1.9-1.6,2.3-2.8l0.8,2.6c-0.5,1.2-1.4,2.2-2.7,3C950.4,728.4,948.8,728.8,946.8,728.8z M953.8,728.5V724l-0.2-0.8v-7.6
	c0-1.6-0.5-2.9-1.4-3.8s-2.4-1.3-4.2-1.3c-1.2,0-2.5,0.2-3.7,0.6s-2.2,1-3,1.7l-1.6-2.9c1.1-0.9,2.4-1.5,3.9-2s3.1-0.7,4.8-0.7
	c2.9,0,5.1,0.7,6.7,2.1s2.4,3.6,2.4,6.5v12.8L953.8,728.5L953.8,728.5z"/>
<path d="M964.5,728.5v-29.6h3.8v29.6H964.5z"/>
<path d="M975.6,728.5v-29.6h3.8v29.6H975.6z"/>
<path d="M996.2,728.8c-2.3,0-4.2-0.5-6-1.4c-1.7-0.9-3-2.2-4-3.8c-0.9-1.6-1.4-3.5-1.4-5.6s0.5-4,1.4-5.6s2.2-2.9,3.8-3.8
	s3.4-1.4,5.4-1.4s3.9,0.5,5.4,1.4c1.6,0.9,2.8,2.2,3.7,3.8s1.3,3.5,1.3,5.7v0.6c0,0.2,0,0.4-0.1,0.6h-18v-2.8h16l-1.6,1
	c0-1.4-0.3-2.6-0.8-3.6c-0.6-1.1-1.4-1.9-2.4-2.5s-2.2-0.9-3.6-0.9c-1.3,0-2.5,0.3-3.5,0.9s-1.8,1.4-2.4,2.5s-0.9,2.3-0.9,3.7v0.6
	c0,1.4,0.3,2.7,1,3.8s1.6,2,2.7,2.6c1.2,0.6,2.5,0.9,4,0.9c1.2,0,2.4-0.2,3.4-0.6s1.9-1.1,2.7-1.9l2.1,2.5c-1,1.1-2.1,2-3.6,2.6
	C999.5,728.5,997.9,728.8,996.2,728.8L996.2,728.8z"/>
<path d="M1008,710.5v-3.1h13.5v3.1H1008z M1018.3,728.8c-2.1,0-3.8-0.6-4.9-1.7c-1.2-1.1-1.8-2.8-1.8-4.9v-19.4h3.8V722
	c0,1.1,0.3,2,0.9,2.6s1.4,0.9,2.5,0.9c1.2,0,2.2-0.3,3-1l1.2,2.8c-0.6,0.5-1.3,0.9-2.1,1.1C1020,728.7,1019.2,728.8,1018.3,728.8
	L1018.3,728.8z"/>
<path d="M1026,719.2v-3.3h10.7v3.3H1026z"/>
<path d="M1052,728.8c-2.2,0-4.1-0.5-5.8-1.4s-3-2.2-4-3.8s-1.4-3.5-1.4-5.6s0.5-4,1.4-5.6c1-1.6,2.3-2.9,4-3.8s3.6-1.4,5.8-1.4
	c1.9,0,3.6,0.4,5.1,1.1s2.7,1.9,3.5,3.4l-2.9,1.9c-0.7-1-1.5-1.8-2.5-2.3s-2.1-0.7-3.2-0.7c-1.4,0-2.6,0.3-3.7,0.9s-2,1.5-2.6,2.6
	s-1,2.4-1,3.9s0.3,2.8,1,3.9c0.6,1.1,1.5,2,2.6,2.6s2.3,0.9,3.7,0.9c1.1,0,2.2-0.2,3.2-0.7s1.8-1.3,2.5-2.3l2.9,1.8
	c-0.8,1.5-2,2.6-3.5,3.4S1053.9,728.8,1052,728.8L1052,728.8z"/>
<path d="M1074,728.8c-2.1,0-4-0.5-5.7-1.4c-1.6-0.9-3-2.2-3.9-3.8s-1.4-3.5-1.4-5.6s0.5-4,1.4-5.6c1-1.6,2.3-2.9,3.9-3.8
	s3.5-1.4,5.7-1.4c2.1,0,4,0.5,5.6,1.4s3,2.2,3.9,3.8s1.4,3.5,1.4,5.6s-0.5,4-1.4,5.6s-2.2,2.9-3.9,3.8
	C1078,728.3,1076.1,728.8,1074,728.8z M1074,725.4c1.4,0,2.6-0.3,3.6-0.9c1.1-0.6,1.9-1.5,2.5-2.6s0.9-2.4,0.9-3.9s-0.3-2.8-0.9-3.9
	s-1.5-2-2.5-2.6c-1.1-0.6-2.3-0.9-3.6-0.9c-1.4,0-2.6,0.3-3.6,0.9c-1.1,0.6-1.9,1.5-2.6,2.6c-0.6,1.1-1,2.4-1,3.9s0.3,2.8,1,3.9
	c0.6,1.1,1.5,2,2.6,2.6S1072.7,725.4,1074,725.4z"/>
<path d="M1102,707.2c1.7,0,3.2,0.3,4.6,1c1.3,0.7,2.3,1.7,3.1,3c0.7,1.4,1.1,3.1,1.1,5.1v12.2h-3.8v-11.7c0-2-0.5-3.6-1.5-4.6
	s-2.4-1.6-4.2-1.6c-1.4,0-2.5,0.3-3.5,0.8s-1.8,1.3-2.3,2.4c-0.5,1-0.8,2.3-0.8,3.9v10.9h-3.8v-21.1h3.7v5.7l-0.6-1.5
	c0.7-1.4,1.8-2.5,3.2-3.2S1100.1,707.2,1102,707.2L1102,707.2z"/>
<path d="M1115,710.5v-3.1h13.5v3.1H1115z M1125.3,728.8c-2.1,0-3.8-0.6-4.9-1.7c-1.2-1.1-1.8-2.8-1.8-4.9v-19.4h3.8V722
	c0,1.1,0.3,2,0.9,2.6s1.4,0.9,2.5,0.9c1.2,0,2.2-0.3,3-1l1.2,2.8c-0.6,0.5-1.3,0.9-2.1,1.1C1127,728.7,1126.2,728.8,1125.3,728.8
	L1125.3,728.8z"/>
<path d="M1134,728.5v-21.1h3.7v5.7l-0.4-1.4c0.6-1.5,1.6-2.6,3-3.3s3.1-1.2,5.1-1.2v3.7h-0.5c0,0-0.3,0-0.4,0c-2,0-3.7,0.6-4.9,1.8
	s-1.8,3-1.8,5.3v10.5H1134L1134,728.5z"/>
<path d="M1155,728.8c-1.6,0-2.9-0.3-4.1-0.8s-2.1-1.3-2.7-2.2s-1-2-1-3.2c0-1.1,0.3-2.2,0.8-3.1s1.4-1.7,2.7-2.2
	c1.2-0.6,2.9-0.8,5-0.8h6.7v2.8h-6.5c-1.9,0-3.2,0.3-3.9,1c-0.7,0.6-1,1.4-1,2.3c0,1,0.4,1.9,1.2,2.5s2,0.9,3.4,0.9s2.7-0.3,3.8-1
	c1.1-0.6,1.9-1.6,2.3-2.8l0.8,2.6c-0.5,1.2-1.4,2.2-2.7,3C1158.5,728.4,1156.9,728.8,1155,728.8L1155,728.8z M1161.9,728.5V724
	l-0.2-0.8v-7.6c0-1.6-0.5-2.9-1.4-3.8s-2.4-1.3-4.2-1.3c-1.2,0-2.5,0.2-3.7,0.6s-2.2,1-3,1.7l-1.6-2.9c1.1-0.9,2.4-1.5,3.9-2
	s3.1-0.7,4.8-0.7c2.9,0,5.1,0.7,6.7,2.1s2.4,3.6,2.4,6.5v12.8L1161.9,728.5L1161.9,728.5z"/>
<path d="M1182,728.8c-2.2,0-4.1-0.5-5.8-1.4s-3-2.2-4-3.8s-1.4-3.5-1.4-5.6s0.5-4,1.4-5.6c1-1.6,2.3-2.9,4-3.8s3.6-1.4,5.8-1.4
	c1.9,0,3.6,0.4,5.1,1.1s2.7,1.9,3.5,3.4l-2.9,1.9c-0.7-1-1.5-1.8-2.5-2.3s-2.1-0.7-3.2-0.7c-1.4,0-2.6,0.3-3.7,0.9s-2,1.5-2.6,2.6
	s-1,2.4-1,3.9s0.3,2.8,1,3.9c0.6,1.1,1.5,2,2.6,2.6s2.3,0.9,3.7,0.9c1.1,0,2.2-0.2,3.2-0.7s1.8-1.3,2.5-2.3l2.9,1.8
	c-0.8,1.5-2,2.6-3.5,3.4C1185.7,728.4,1184,728.8,1182,728.8L1182,728.8z"/>
<path d="M1193,710.5v-3.1h13.5v3.1H1193z M1203.3,728.8c-2.1,0-3.8-0.6-4.9-1.7c-1.2-1.1-1.8-2.8-1.8-4.9v-19.4h3.8V722
	c0,1.1,0.3,2,0.9,2.6s1.4,0.9,2.5,0.9c1.2,0,2.2-0.3,3-1l1.2,2.8c-0.6,0.5-1.3,0.9-2.1,1.1C1205.1,728.7,1204.2,728.8,1203.3,728.8
	L1203.3,728.8z"/>
<path d="M1218,728.8c-1.8,0-3.4-0.2-5-0.7s-2.8-1.1-3.7-1.8l1.6-3c0.9,0.6,2,1.1,3.3,1.6c1.3,0.4,2.7,0.6,4.1,0.6
	c1.8,0,3.1-0.3,3.8-0.8c0.8-0.5,1.2-1.2,1.2-2.1c0-0.7-0.2-1.2-0.7-1.6s-1.1-0.7-1.9-0.8c-0.8-0.2-1.7-0.4-2.6-0.5
	c-1-0.1-1.9-0.3-2.9-0.6c-1-0.2-1.8-0.5-2.6-1c-0.8-0.4-1.4-1-1.9-1.7s-0.7-1.7-0.7-2.9c0-1.3,0.4-2.4,1.1-3.3s1.7-1.7,3-2.2
	s2.9-0.8,4.7-0.8c1.4,0,2.8,0.2,4.2,0.5s2.6,0.8,3.5,1.4l-1.6,3c-1-0.6-2-1.1-3-1.3s-2.1-0.4-3.1-0.4c-1.7,0-2.9,0.3-3.7,0.8
	s-1.2,1.2-1.2,2.1c0,0.7,0.2,1.3,0.7,1.7s1.1,0.7,1.9,0.9s1.7,0.4,2.6,0.5s1.9,0.3,2.9,0.6c1,0.2,1.8,0.5,2.6,0.9s1.4,1,1.9,1.7
	s0.7,1.7,0.7,2.9c0,1.3-0.4,2.4-1.1,3.3s-1.8,1.7-3.2,2.2C1221.6,728.5,1219.9,728.8,1218,728.8L1218,728.8z"/>
<path class="st2" d="M388.8,819.3c-4.1,4.1-11.1,2.2-12.5-3.4c-1.5-5.6,3.6-10.7,9.2-9.2C391,808.2,392.9,815.2,388.8,819.3
	L388.8,819.3z"/>
<path class="st2" d="M391.1,495.5c-7.4-4.2-7.6-14.5-0.4-18.6s16.4,1.2,16.6,9.4C407.5,494.6,398.5,499.7,391.1,495.5z"/>
<path class="st2" d="M1351,528.8c-6.1-2.9-6.8-11.3-1.3-15.2c5.6-3.9,13.2-0.3,13.8,6.5S1357.2,531.7,1351,528.8z"/>
<path class="st2" d="M1150,487.5c2.4-5.6,9-6.8,11.9-2.3s-0.2,11.5-5.4,12.5S1147.5,493.1,1150,487.5z"/>
<path class="st2" d="M1162,547.1c-3.2,0-5.2-3.5-3.6-6.3s5.6-2.8,7.2,0C1167.2,543.7,1165.2,547.1,1162,547.1z"/>
<path class="st2" d="M605.5,545.8c-3.3,0-5.3-3.6-3.7-6.4s5.8-2.8,7.4,0C610.9,542.2,608.8,545.8,605.5,545.8z"/>
<path class="st2" d="M1374,689.8c-2,4.2-7.3,4.9-9.6,1.2c-2.2-3.6,0.3-8.9,4.5-9.4S1376,685.6,1374,689.8z"/>
<path class="st2" d="M1415,847.2c0,7.2-7.8,11.6-14,8.1c-6.2-3.6-6.2-12.5,0-16.1C1407.3,835.6,1415,840,1415,847.2z"/>
<path class="st6" d="M1304,560.7h9.2C1316.6,587.5,1310.3,593.5,1304,560.7z"/>
<path class="st1" d="M1316,572.4c-3,0-8.6-41.3-22.2-70.3c-14.5-31-42.7-34.6-46.8-6.7s11.5,65.2,11.5,65.2h-23h-25.4
	c-1.4-6.8-2.6-13.2-3.4-19.3c-15.8-109.4,51-117.7,82.5-89.3C1328.1,487.1,1319,572.4,1316,572.4L1316,572.4z"/>
<path class="st0" d="M1294,502.1c-14.5-31-42.7-34.6-46.8-6.7c-4.1,27.9,11.5,65.2,11.5,65.2h-36.1c0,0-9.9-52.7,0.8-81.1
	C1238,441.1,1278.8,454.4,1294,502.1L1294,502.1z"/>
<path class="st3" d="M1247,535.6c1.1,12.8-6,21.5-12.8,15.7c-6.8-5.9-8.3-21.9-2.6-28.8C1237.4,515.5,1245.9,522.8,1247,535.6z"/>
<path class="st3" d="M1245,487.7c-4.6,9.5-13.7,12.5-16.2,5.4c-2.6-7.1,3.2-19.1,10.4-21.5C1246.5,469.2,1249.7,478.2,1245,487.7
	L1245,487.7z"/>
<path class="st3" d="M1267,476.9c-7.7-4.6-10.3-11.1-4.7-11.8s15.2,5,17.3,10.3S1274.7,481.5,1267,476.9L1267,476.9z"/>
<path class="st0" d="M1237,555l-1.7,5.6h-25.4c-1.4-6.8-2.6-13.2-3.4-19.3C1218.2,554.3,1237,555,1237,555z"/>
</svg>
