<svg enable-background="new 0 0 326.55 387.43" version="1.1" viewBox="0 0 326.6 387.4" xmlns="http://www.w3.org/2000/svg">
 <style type="text/css">.st0{fill-rule:evenodd;clip-rule:evenodd;fill:#FF705E;}
	.st1{fill:#FF705E;}
	.st2{fill-rule:evenodd;clip-rule:evenodd;fill:#FFFFFF;}
	.st3{fill:#50D985;}
	.st4{fill:#8747CC;}
	.st5{fill:#642F9E;}
	.st6{fill:#BC83FB;}
	.st7{fill:#D8B7FB;}
	.st8{fill-rule:evenodd;clip-rule:evenodd;fill:#BC83FB;}
	.st9{fill:#151424;}
	.st10{fill:#6EFFDB;}</style>
 <path class="st0" d="m42.94 112.7c0.61 0.06 0.89 0.39 0.83 1.01l-3.87 41.12c-0.06 0.61-0.39 0.89-1.01 0.83l-6.08-0.57c-0.61-0.06-0.89-0.39-0.83-1.01l3.87-41.12c0.06-0.61 0.39-0.89 1.01-0.83l6.08 0.57zm23.84 14.38c6.69 0.63 8.59 5.39 8.01 11.65l-1.81 19.21c-0.06 0.61-0.39 0.89-1.01 0.83l-6.08-0.57c-0.61-0.06-0.89-0.39-0.83-1.01l1.9-20.13c0.2-2.09-1.27-2.97-3.05-3.14l-0.74-0.07c-2.64-0.25-4.65 0.68-5.42 1.72l-1.95 20.74c-0.06 0.61-0.39 0.89-1.01 0.83l-6.08-0.57c-0.61-0.06-0.89-0.39-0.83-1.01l2.72-28.85c0.06-0.61 0.39-0.89 1.01-0.83l6.08 0.57c0.61 0.06 0.89 0.39 0.83 1.01l-0.25 2.7c1.07-1.45 3.62-3.56 8.16-3.13l0.35 0.05zm24.52-9.83c0.61 0.06 0.89 0.39 0.83 1.01l-2.01 21.3 9.58-8.39c0.41-0.39 0.99-0.65 1.48-0.6l6.32 0.6c0.8 0.08 1.45 1.07 0.23 2.13l-10.07 8.96 9.07 18.13c0.3 0.71 0.15 1.69-0.89 1.59l-5.77-0.54c-0.8-0.08-1.51-0.39-1.92-1.3l-6.32-13.1-2.62 2.17-0.96 10.19c-0.06 0.61-0.39 0.89-1.01 0.83l-6.08-0.57c-0.61-0.06-0.89-0.39-0.83-1.01l3.87-41.12c0.06-0.61 0.39-0.89 1.01-0.83l6.09 0.55z"/>
 <path class="st0" d="m105.3 235.1c-2.73 1.33-3.99 4.49-2.82 7.07s4.34 3.6 7.07 2.27 3.99-4.49 2.82-7.07-4.34-3.59-7.07-2.27zm-96.99-32.22c0.74-0.08 1.15 0.25 1.23 0.99l5.22 49.62c0.08 0.74-0.25 1.15-0.99 1.23l-7.33 0.77c-0.74 0.08-1.15-0.25-1.23-0.99l-5.22-49.62c-0.08-0.74 0.25-1.15 0.99-1.23l7.33-0.77zm31.67 11.34c8.07-0.85 11.46 4.34 12.26 11.89l2.44 23.18c0.08 0.74-0.25 1.15-0.99 1.23l-7.33 0.77c-0.74 0.08-1.15-0.25-1.23-0.99l-2.57-24.29c-0.26-2.52-2.21-3.21-4.36-2.99l-0.89 0.09c-3.18 0.34-5.34 1.91-6.01 3.33l2.63 25.03c0.08 0.74-0.25 1.15-0.99 1.23l-7.33 0.77c-0.74 0.08-1.15-0.25-1.23-0.99l-3.66-34.81c-0.08-0.74 0.25-1.15 0.99-1.23l7.33-0.77c0.74-0.08 1.15 0.25 1.23 0.99l0.34 3.26c0.92-1.97 3.43-5.08 8.91-5.66l0.46-0.04zm26.69-17.48c0.74-0.08 1.15 0.25 1.23 0.99l2.7 25.7 9.35-12.22c0.39-0.57 1.02-1.01 1.61-1.07l7.63-0.8c0.96-0.1 1.97 0.92 0.78 2.46l-9.79 13.01 15.06 19.31c0.53 0.77 0.58 1.96-0.68 2.09l-6.96 0.73c-0.96 0.1-1.88-0.1-2.58-1.08l-10.61-14.01-2.58 3.19 1.29 12.29c0.08 0.74-0.25 1.15-0.99 1.23l-7.33 0.77c-0.74 0.08-1.15-0.25-1.23-0.99l-5.22-49.62c-0.08-0.74 0.25-1.15 0.99-1.23l7.33-0.75z"/>
 <path class="st0" d="m103.5 226.6-1.62 0.16c-0.74 0.08-1.15-0.25-1.23-0.99l-3.27-31.1c-0.08-0.74 0.25-1.15 0.99-1.23l7.55-0.79c0.74-0.08 1.15 0.25 1.23 0.99l0.11 1.05c-2.8 1-4.73 4.16-4.52 7.83 0.16 2.95 1.66 5.47 3.75 6.77-1.33 1.13-2.22 2.89-2.27 4.9-0.06 2.18 0.87 4.15 2.34 5.36-1.28 0.73-2.38 2.06-2.9 3.72-0.38 1.17-0.41 2.33-0.16 3.33z"/>
 <path class="st0" d="m105.6 223.8c-0.42 1.31 0.14 2.6 1.25 2.86 1.11 0.27 2.35-0.59 2.77-1.9s-0.14-2.6-1.25-2.86c-1.12-0.26-2.36 0.59-2.77 1.9zm1.02-9.41c-0.16 1.98 1.06 3.7 2.72 3.84 1.66 0.13 3.15-1.37 3.31-3.36 0.16-1.98-1.06-3.7-2.72-3.84-1.66-0.13-3.15 1.38-3.31 3.36zm-1.61-11.42c0.15 2.68 2.1 4.79 4.36 4.71 2.25-0.08 3.96-2.31 3.81-4.99s-2.1-4.79-4.35-4.71c-2.27 0.07-3.97 2.31-3.82 4.99z"/>
 <path class="st1" d="m276 212.7-0.45-0.04c-5.52-0.53-8.62 2.03-9.92 3.78l0.32-3.28c0.07-0.75-0.26-1.15-1.01-1.23l-7.38-0.71c-0.75-0.07-1.15 0.26-1.23 1.01l-3.39 35.04c-0.07 0.75 0.26 1.15 1.01 1.23l7.38 0.71c0.75 0.07 1.15-0.26 1.23-1.01l2.44-25.2c0.95-1.26 3.39-2.38 6.6-2.07l0.89 0.09c2.16 0.21 3.94 1.28 3.69 3.82l-2.36 24.45c-0.07 0.75 0.26 1.15 1.01 1.23l7.38 0.71c0.75 0.07 1.15-0.26 1.23-1.01l2.26-23.33c0.72-7.61-1.58-13.4-9.7-14.19z"/>
 <path class="st1" d="m245.6 210.1-7.38-0.71c-0.75-0.07-1.15 0.26-1.23 1.01l-3.39 35.04c-0.07 0.75 0.26 1.15 1.01 1.23l7.38 0.71c0.75 0.07 1.15-0.26 1.23-1.01l3.39-35.04c0.07-0.75-0.27-1.16-1.01-1.23z"/>
 <path class="st1" d="m313.5 231.3 12.26-10.85c1.48-1.29 0.69-2.49-0.28-2.59l-7.68-0.74c-0.6-0.06-1.3 0.25-1.8 0.73l-11.67 10.16 2.5-25.87c0.07-0.75-0.26-1.15-1.01-1.23l-7.38-0.71c-0.75-0.07-1.15 0.26-1.23 1.01l-4.83 49.95c-0.07 0.75 0.26 1.15 1.01 1.23l7.38 0.71c0.75 0.07 1.15-0.26 1.23-1.01l1.2-12.37 3.19-2.63 7.64 15.94c0.5 1.1 1.36 1.49 2.33 1.58l7.01 0.68c1.27 0.12 1.46-1.06 1.09-1.93l-10.96-22.06z"/>
 <path class="st1" d="m241.8 196.5c-2.88 0.58-4.84 3.24-4.37 5.94s3.19 4.43 6.07 3.85 4.84-3.24 4.37-5.94-3.19-4.42-6.07-3.85z"/>
 <path class="st1" d="m217.2 234.9c-2.96 0.76-4.84 3.63-4.2 6.4 0.64 2.78 3.55 4.42 6.51 3.66s4.84-3.63 4.2-6.4-3.56-4.41-6.51-3.66z"/>
 <path class="st1" d="m215.5 226 1.62 0.17c-0.04-1.04 0.22-2.17 0.83-3.25 0.85-1.53 2.2-2.62 3.61-3.09-1.21-1.49-1.73-3.61-1.23-5.75 0.46-1.96 1.68-3.52 3.22-4.37-1.8-1.7-2.77-4.49-2.34-7.43 0.54-3.66 3.07-6.39 6.03-6.81l0.11-1.06c0.07-0.75-0.26-1.15-1.01-1.23l-7.6-0.74c-0.75-0.07-1.15 0.26-1.23 1.01l-3.03 31.31c-0.06 0.76 0.28 1.17 1.02 1.24z"/>
 <path class="st1" d="m220.4 226.9c1.04 0.48 2.43-0.11 3.11-1.32s0.38-2.59-0.66-3.07-2.43 0.11-3.11 1.32c-0.68 1.2-0.38 2.58 0.66 3.07z"/>
 <path class="st1" d="m228.1 199.1c-2.24-0.38-4.37 1.48-4.76 4.15s1.11 5.14 3.34 5.52c2.24 0.38 4.37-1.48 4.76-4.15s-1.11-5.14-3.34-5.52z"/>
 <path class="st1" d="m226.6 212.2c-1.61-0.46-3.38 0.72-3.94 2.64s0.3 3.86 1.91 4.33 3.38-0.72 3.94-2.64-0.3-3.86-1.91-4.33z"/>
 <path class="st1" d="m247.2 123.6-0.38 0.08c-4.69 0.93-6.63 3.81-7.26 5.59l-0.55-2.79c-0.13-0.63-0.5-0.89-1.14-0.76l-6.28 1.24c-0.63 0.13-0.89 0.51-0.76 1.14l5.89 29.8c0.13 0.63 0.5 0.89 1.14 0.76l6.28-1.24c0.63-0.13 0.89-0.51 0.76-1.14l-4.24-21.43c0.47-1.28 2.21-2.81 4.94-3.35l0.76-0.15c1.84-0.36 3.57 0.08 4 2.24l4.11 20.8c0.13 0.63 0.5 0.89 1.14 0.76l6.28-1.24c0.63-0.13 0.89-0.51 0.76-1.14l-3.92-19.85c-1.28-6.47-4.62-10.68-11.53-9.32z"/>
 <path class="st1" d="m221.4 129-6.28 1.24c-0.63 0.13-0.89 0.51-0.76 1.14l5.89 29.8c0.13 0.63 0.51 0.89 1.14 0.76l6.28-1.24c0.63-0.13 0.89-0.51 0.76-1.14l-5.89-29.8c-0.13-0.63-0.5-0.89-1.14-0.76z"/>
 <path class="st1" d="m282.8 129.6 7.44-12.01c0.9-1.43-0.05-2.23-0.87-2.07l-6.53 1.29c-0.51 0.1-1.02 0.53-1.31 1.05l-7.12 11.29-4.35-22c-0.13-0.63-0.5-0.89-1.14-0.76l-6.28 1.24c-0.63 0.13-0.89 0.51-0.76 1.14l8.4 42.48c0.13 0.63 0.51 0.89 1.14 0.76l6.28-1.24c0.63-0.13 0.89-0.51 0.76-1.14l-2.08-10.53 1.98-2.96 10.27 11.28c0.68 0.79 1.49 0.89 2.32 0.73l5.96-1.18c1.08-0.21 0.94-1.24 0.42-1.86l-14.53-15.51z"/>
 <path class="st1" d="m214.9 118.6c-2.24 1.19-3.2 3.87-2.14 5.99s3.73 2.87 5.97 1.68 3.2-3.87 2.14-5.99c-1.05-2.12-3.73-2.87-5.97-1.68z"/>
 <g stroke="#000">
  <g stroke="#000">
   <g stroke="#000">
    <path class="st2" d="m240.5 356.2c-4.29 1.55-6.68 6.1-5.33 10.14s5.93 6.07 10.23 4.51c4.29-1.55 6.68-6.1 5.33-10.14-1.35-4.05-5.94-6.07-10.23-4.51zm-140.1-41.1c1.12 0 1.68 0.56 1.68 1.68v52.69c0 1.12-0.56 1.68-1.68 1.68h-11.09c-1.12 0-1.68-0.56-1.68-1.68v-52.69c0-1.12 0.56-1.68 1.68-1.68h11.09zm45.63-0.45c12.22 0 16.48 8.3 16.48 19.73v35.09c0 1.12-0.56 1.68-1.68 1.68h-11.1c-1.12 0-1.68-0.56-1.68-1.68v-36.77c0-3.81-2.8-5.16-6.05-5.16h-1.35c-4.82 0-8.3 2.02-9.53 4.04v37.89c0 1.12-0.56 1.68-1.68 1.68h-11.1c-1.12 0-1.68-0.56-1.68-1.68v-52.69c0-1.12 0.56-1.68 1.68-1.68h11.1c1.12 0 1.68 0.56 1.68 1.68v4.93c1.68-2.8 5.94-7.06 14.24-7.06h0.67zm42.71-21.97c1.12 0 1.68 0.56 1.68 1.68v38.9l15.92-16.82c0.67-0.78 1.68-1.35 2.58-1.35h11.55c1.46 0 2.8 1.68 0.78 3.81l-16.7 17.94 19.51 31.28c0.67 1.23 0.56 3.03-1.35 3.03h-10.54c-1.46 0-2.8-0.45-3.7-2.02l-13.68-22.64-4.37 4.37v18.61c0 1.12-0.56 1.68-1.68 1.68h-11.1c-1.12 0-1.68-0.56-1.68-1.68v-75.11c0-1.12 0.56-1.68 1.68-1.68h11.1zm-96.06 2.67c-4.21 1.27-6.74 5.52-5.65 9.48s5.39 6.14 9.6 4.87 6.74-5.52 5.65-9.48c-1.09-3.97-5.39-6.15-9.6-4.87z"/>
    <path class="st2" d="m239.2 343.1-2.44-0.02c-1.12 0-1.68-0.56-1.68-1.68v-47.08c0-1.12 0.56-1.68 1.68-1.68h11.43c1.12 0 1.68 0.56 1.68 1.68l-0.01 1.59c-4.35 1.06-7.73 5.49-8.01 11.02-0.22 4.44 1.63 8.46 4.55 10.73-2.18 1.48-3.77 3.98-4.17 6.97-0.44 3.26 0.65 6.35 2.66 8.39-2.03 0.89-3.88 2.71-4.93 5.12-0.74 1.69-0.98 3.42-0.76 4.96z"/>
    <path class="st2" d="m242.7 339.3c-0.83 1.9-0.2 3.91 1.42 4.48s3.61-0.51 4.44-2.41 0.2-3.91-1.42-4.48-3.61 0.51-4.44 2.41zm3.02-13.93c-0.56 2.95 1 5.71 3.47 6.17s4.93-1.56 5.48-4.5c0.56-2.95-1-5.71-3.47-6.17s-4.93 1.55-5.48 4.5zm-0.62-17.36c-0.2 4.03 2.39 7.5 5.78 7.74s6.3-2.84 6.49-6.87c0.2-4.03-2.39-7.5-5.78-7.74-3.38-0.24-6.29 2.84-6.49 6.87z"/>
    <path class="st3" d="m215.8 387.4c-2.19 0-4.38-0.74-6.17-2.21l-1.84-1.51c-2.33-1.91-5.71-1.92-8.03 0l-1.84 1.51c-3.58 2.94-8.77 2.94-12.34 0l-1.84-1.51c-2.33-1.92-5.71-1.92-8.03 0l-1.84 1.51c-3.58 2.94-8.77 2.94-12.34 0l-1.84-1.51c-2.33-1.91-5.71-1.92-8.03 0l-1.84 1.51c-3.58 2.94-8.77 2.94-12.34 0l-1.84-1.51c-2.33-1.91-5.71-1.92-8.03 0l-1.84 1.51c-3.58 2.94-8.77 2.94-12.34 0l-1.84-1.51c-2.33-1.92-5.71-1.92-8.03 0l-1.84 1.51c-3.58 2.94-8.77 2.94-12.34 0l-1.84-1.51c-2.33-1.91-5.71-1.92-8.03 0-0.72 0.6-1.79 0.49-2.39-0.23s-0.49-1.79 0.23-2.39c3.58-2.94 8.77-2.94 12.34 0l1.84 1.51c2.33 1.91 5.71 1.92 8.03 0l1.84-1.51c3.58-2.94 8.77-2.94 12.34 0l1.84 1.51c2.33 1.91 5.71 1.92 8.03 0l1.84-1.51c3.58-2.94 8.77-2.94 12.34 0l1.84 1.51c2.33 1.91 5.71 1.92 8.03 0l1.84-1.51c3.57-2.94 8.77-2.94 12.34 0l1.84 1.51c2.33 1.91 5.71 1.92 8.03 0l1.84-1.51c3.58-2.94 8.77-2.94 12.34 0l1.84 1.51c2.33 1.92 5.71 1.92 8.03 0l1.84-1.51c3.57-2.94 8.77-2.94 12.34 0l1.84 1.51c2.33 1.92 5.71 1.92 8.03 0l1.84-1.51c3.58-2.94 8.77-2.94 12.34 0l1.84 1.51c2.33 1.91 5.71 1.92 8.03 0l1.84-1.51c3.57-2.94 8.77-2.94 12.34 0 0.72 0.59 0.83 1.66 0.23 2.39-0.59 0.72-1.66 0.83-2.39 0.23-2.33-1.92-5.71-1.92-8.03 0l-1.84 1.51c-3.58 2.94-8.77 2.94-12.34 0l-1.84-1.51c-2.33-1.92-5.71-1.92-8.03 0l-1.84 1.51c-1.78 1.48-3.97 2.21-6.16 2.21z"/>
   </g>
  </g>
 </g>
 <path class="st4" d="m182.5 122c42.7 40.87 2.89 94.03 2.89 94.03-5.04-34.65-4.17-95.25-2.89-94.03z"/>
 <path class="st4" d="m172.6 129.6c46.42 50.51-15.46 81.81-7.95 152.9 0.13 1.2-1.68 3.11-4.74-8.55-5.7-21.75 3.47-134.5 3.47-134.5l9.22-9.83z"/>
 <path class="st4" d="m141 127.2c-45.5 63.22 0.24 101.5 25.09 164.4 0.34 0.87 2.43 0.52 1.36-8.41-4.67-38.89-9.13-147.6-9.13-147.6l-17.32-8.32z"/>
 <path class="st5" d="m156.5 124.7c-20.48 67.23 7.19 139.9 7.19 139.9 23.31-109.7 5.45-133.6 5.45-133.6l-12.64-6.27z"/>
 <path class="st6" d="m161.8 289.7v0.05c-0.36 5.31-0.53 13.38-1.46 15.74-0.92 2.36-2.47-3.87-3.22-8.99-8.21-56.17-44.84-110.6-16.85-169.1 0 0 27.71 7.29 22.42 13.8s-5.08 18.91-5.08 18.91c1.43 31.24 7.43 82.26 4.19 129.6z"/>
 <path class="st4" d="m161.8 289.7c0.54-33.97-32.19-108.7-4.18-129.6 1.42 31.24 7.42 82.26 4.18 129.6z"/>
 <path class="st7" d="m159.5 190.5c0.5 8.36-3.06 13.82-6.4 9.82s-3.97-14.45-1.12-18.82c2.84-4.36 7.02 0.63 7.52 9z"/>
 <path class="st7" d="m161.1 220.9c0.82 6.42-1.63 10.82-4.42 7.91s-3.82-10.94-1.85-14.45c1.96-3.51 5.44 0.12 6.27 6.54z"/>
 <path class="st7" d="m164 247.7c0.27 6.54-2.02 10.73-4.12 7.54s-2.45-11.36-0.61-14.71c1.82-3.35 4.45 0.63 4.73 7.17z"/>
 <path class="st6" d="m197.5 188.5c-0.44 3.94-1.05 7.89-1.83 11.84v0.02c-9.01 46.39-38.51 92.71-42.1 97.64-0.06 0.08-0.11 0.16-0.16 0.22-2.17 2.82-0.83-1.74 1.18-12.12v-0.01c0.43-2.21 0.89-4.68 1.35-7.41 1.57-9.32 4.55-32.6 8.17-47.51 10.05-41.36 1.66-84.17-6.88-90.66l26.45-11.26c13.07 15.83 16.24 37.65 13.82 59.25z"/>
 <path class="st4" d="m195.7 200.3c-9.01 46.39-39.51 94.71-43.1 99.64-0.06 0.08-0.11 0.16-0.16 0.22-2.17 2.82 0.17-3.74 2.18-14.12v-0.01c16.65-49.9 27.24-37.95 41.08-85.73z"/>
 <path class="st7" d="m180.3 238.9c3.85-6.64 7.24-9.6 6.92-5.34-0.32 4.25-4.09 12.53-7.63 14.92-3.54 2.38-3.14-2.94 0.71-9.58z"/>
 <path class="st7" d="m174.4 264.4c-2.45 4.97-6.41 6.89-7.12 3.44s2.36-9.66 5.52-11.19c3.17-1.53 4.06 2.77 1.6 7.75z"/>
 <path class="st7" d="m164.1 283.8c-1.86 3.93-5.12 5.4-5.87 2.64-0.74-2.76 1.59-7.68 4.2-8.85s3.54 2.28 1.67 6.21z"/>
 <path class="st8" d="m189.6 266.3c-2.84 2.72-7.22 1.69-7.89-1.86s2.88-6.94 6.39-6.11c3.5 0.82 4.34 5.25 1.5 7.97z"/>
 <path class="st8" d="m180.8 279.2c1.7 2.09 0.76 5.03-1.69 5.3-2.46 0.27-4.59-2.34-3.83-4.7 0.74-2.35 3.81-2.69 5.52-0.6z"/>
 <path class="st8" d="m137.6 289.2c2.33-2.23 5.84-1.47 6.32 1.36s-2.43 5.61-5.24 5.01-3.41-4.14-1.08-6.37z"/>
 <path class="st4" d="m187.8 62.18c19.71-13.64 12.34-39.08-21.23-55.96-13.7-6.89-28.68-6.49-34.83-5.95-1.2 0.11-1.77 1.59-0.97 2.53 11.12 13.14 11.49 19.84 4.16 29.13-7.29 9.24-12.99 18.91-11.3 25.81 1.15 4.69 6.32 7.5 14.33 10.37 18.66 6.68 49.84-5.93 49.84-5.93z"/>
 <path class="st6" d="m195.3 87.04-63.72 0.17s0.36-15.82 3.92-31.46c0 0 0.01-0.04 0.02-0.11 0-0.03 0.01-0.06 0.02-0.09 3.42-17.02 8.82-29.48 12.07-39.44 0 0-7.92-8.04-6.24-9.8 1.69-1.75 29.02-0.3 42.59 35.84 5.12 12.01 9.36 28.59 11.34 44.89z"/>
 <ellipse class="st6" transform="matrix(.9922 -.1247 .1247 .9922 -12.31 21.23)" cx="163.4" cy="108.9" rx="31.29" ry="30.27"/>
 <path class="st6" d="m197.1 88.47c5.09 11.82-2.56 16.56-2.56 16.56-23.23-1.4-31.05-17.78-31.05-17.78-12.99 17.78-30.99 17.78-30.99 17.78-6.27-6.79-4.26-13.59-2.96-16.41 0.37-0.81 1.15-1.35 2.04-1.4 15.26-0.91 31.93-17.11 31.93-17.11 10.29 12.19 27.13 16.07 31.8 16.94 0.8 0.14 1.47 0.67 1.79 1.42z"/>
 <path class="st4" d="m149.7 12.35c8.08 5.87 14.53 13.43 15.14 23.84 0.71 9.61-0.58 19-0.68 28.56-0.02 0.88-1.38 0.92-1.4 0-0.33-9.42 0.8-19.02 0.08-28.36-0.4-4.55-1.77-9.09-4.4-12.85-2.53-3.82-6.12-7.11-9.6-10.08-0.69-0.55 0.13-1.65 0.86-1.11z"/>
 <path class="st4" d="m164.2 69.6c5.86 7.77 13.99 14.33 23.75 16.13 2.17 0.41 4.55 0.63 6.7 0.45 1.1-0.09 1.3 1.56 0.18 1.72-10.49 1.06-20.62-4.25-27.58-11.79-1.6-1.64-3.1-3.68-4.46-5.5-0.29-0.38-0.22-0.92 0.16-1.21 0.41-0.3 0.97-0.2 1.25 0.2z"/>
 <path class="st4" d="m159.8 74.47c-6.93 7.93-16.96 13.48-27.66 13.6-1.14-0.04-1.11-1.74 0.04-1.73 10.04-0.54 19.56-5.7 26.33-13.03 0.77-0.86 2.08 0.29 1.29 1.16z"/>
 <path class="st4" d="m133.5 104.3c10.82-2.53 22.04-7.23 28.42-16.77l0.33-0.53c0.56-0.85 1.96-0.79 2.45 0.08 3.08 4.93 7.16 9.25 12.11 12.29 4.88 3.02 10.72 4.85 16.44 4.93 0.45-0.03 0.85 0.33 0.85 0.79 0 0.41-0.33 0.75-0.74 0.78-3.16 0.17-6.19-0.28-9.16-1.09-8.99-2.34-16.57-8.69-21.5-16.42 0.28 0.51 1.15 0.58 1.5 0.04-3.16 5.08-7.94 9.01-13.1 11.92-5.35 3.03-11.32 4.79-17.32 5.54-0.96 0.1-1.25-1.35-0.28-1.56z"/>
 <path class="st7" d="m186.5 59.37c0.77 3.61-0.02 6.84-1.77 7.22s-3.05-2.98-3.82-6.59-0.72-6.85 1.03-7.22c1.75-0.39 3.79 2.98 4.56 6.59z"/>
 <ellipse class="st7" transform="matrix(.9512 -.3085 .3085 .9512 -5.698 57.99)" cx="180.6" cy="47.01" rx="1.35" ry="1.56"/>
 <path class="st9" d="m169.9 110.9c1.09 5.6 10.32 5.23 11.62-0.05 0.24-1.25 2.09-0.94 1.9 0.32-0.67 6.45-9.9 8.42-13.93 3.78-0.8-0.85-2.55-4.57-0.68-4.91 0.55-0.08 1.02 0.33 1.09 0.86z"/>
 <path class="st9" d="m158.5 111.1c-0.42 7.25-11.24 8.45-14.59 2.66-0.42-0.96-1.66-3.31-0.08-3.73 0.54-0.1 1.04 0.28 1.14 0.8 0.98 4.03 6.43 5.21 9.61 3.13 1.08-0.71 1.77-1.85 2.02-3.18 0.26-1.19 2.04-0.89 1.9 0.32z"/>
 <path class="st9" d="m158.2 126.1 10.12 0.08c0.83 0.01 1.4-0.83 1.12-1.61-2.16-5.96-10.1-5.95-12.34-0.1-0.29 0.78 0.27 1.63 1.1 1.63z"/>
 <path class="st4" d="m187.6 129.1c-8.51 12.47-26.29 15.97-38.69 7.22-0.34-0.24-0.03-0.79 0.35-0.62 13.52 5.6 27.45 3.62 37.79-7.05 0.29-0.32 0.81 0.11 0.55 0.45z"/>
 <path class="st10" d="m178 119.8c-3.15 2.97-4.47 6.15-3.57 8.57 1.49 4.01 7.08 3.01 7.84-0.38 0.54-2.43-0.88-5.67-4.27-8.19z"/>
</svg>
