<?xml version="1.0" encoding="UTF-8" standalone="no"?>
<!-- Generator: Adobe Illustrator 26.3.1, SVG Export Plug-In . SVG Version: 6.00 Build 0)  -->

<svg
   version="1.1"
   id="Layer_1"
   x="0px"
   y="0px"
   viewBox="0 0 1780 604.36"
   style="enable-background:new 0 0 1780 604.36;"
   xml:space="preserve"
   sodipodi:docname="smart-contract-vs-rollup.svg"
   inkscape:version="1.3.2 (091e20e, 2023-11-25)"
   xmlns:inkscape="http://www.inkscape.org/namespaces/inkscape"
   xmlns:sodipodi="http://sodipodi.sourceforge.net/DTD/sodipodi-0.dtd"
   xmlns="http://www.w3.org/2000/svg"
   xmlns:svg="http://www.w3.org/2000/svg"><defs
   id="defs56" /><sodipodi:namedview
   id="namedview56"
   pagecolor="#ffffff"
   bordercolor="#000000"
   borderopacity="0.25"
   inkscape:showpageshadow="2"
   inkscape:pageopacity="0.0"
   inkscape:pagecheckerboard="0"
   inkscape:deskcolor="#d1d1d1"
   inkscape:zoom="0.78973499"
   inkscape:cx="403.29985"
   inkscape:cy="351.3837"
   inkscape:window-width="1392"
   inkscape:window-height="1212"
   inkscape:window-x="0"
   inkscape:window-y="25"
   inkscape:window-maximized="0"
   inkscape:current-layer="Layer_1" />
<style
   type="text/css"
   id="style1">
	.st0{fill:#282828;}
	.st1{fill:#BC83FB;}
	.st2{fill:#8B50C9;}
	.st3{fill:#D8B7FB;}
	.st4{fill:#642F9E;}
	.st5{fill:#F9E3FF;}
	.st6{fill:#FF705E;}
	.st7{fill:#0C0C12;}
	.st8{fill:none;stroke:#0C0C12;stroke-width:4.2019;stroke-linecap:round;stroke-miterlimit:10;}
	.st9{fill:#F7F7F7;}
	.st10{font-family:'Montserrat-Medium';}
	.st11{font-size:34px;}
</style>

<g
   id="g9">
	<g
   id="g2">
		<path
   class="st1"
   d="M582.77,140.84c-7.29,15.73-21.87,40.57-58.34,46.49c-1.11,0.18-2.2,0.36-3.29,0.53    c-0.55,0.09-1.09,0.17-1.63,0.26c-4.47,0.7-8.76,1.34-12.84,1.99c-0.83,0.13-1.65,0.26-2.47,0.39c-1.17,0.18-2.31,0.37-3.44,0.56    c-0.48,0.08-0.96,0.16-1.43,0.24c-0.48,0.08-0.95,0.16-1.41,0.24c-0.68,0.12-1.35,0.24-2.01,0.35c-0.25,0.05-0.5,0.09-0.75,0.14    c-0.65,0.12-1.28,0.24-1.91,0.36c-2.17,0.42-4.26,0.85-6.26,1.32c-0.38,0.09-0.76,0.18-1.14,0.27c-0.78,0.19-1.55,0.38-2.3,0.58    c-1.13,0.3-2.23,0.61-3.29,0.94c-0.71,0.21-1.4,0.44-2.08,0.67c-0.68,0.22-1.34,0.46-1.98,0.71c-0.66,0.25-1.3,0.5-1.92,0.77    c-0.31,0.13-0.62,0.27-0.92,0.4c-0.6,0.27-1.19,0.55-1.76,0.84c-0.58,0.29-1.13,0.59-1.67,0.9c-0.5,0.29-0.98,0.58-1.45,0.88    c-0.55,0.36-1.09,0.73-1.6,1.11c-0.24,0.18-0.47,0.36-0.7,0.54s-0.45,0.37-0.67,0.56c-0.2,0.17-0.4,0.34-0.59,0.52    c-0.14,0.12-0.27,0.24-0.4,0.37c-0.17,0.16-0.34,0.32-0.5,0.49c-0.14,0.13-0.26,0.26-0.38,0.4c-0.15,0.15-0.29,0.31-0.43,0.47    c-0.24,0.27-0.48,0.54-0.69,0.82c-0.16,0.19-0.31,0.39-0.45,0.59c-0.31,0.39-0.59,0.8-0.85,1.22c-0.11,0.17-0.22,0.34-0.32,0.51    c-0.26,0.43-0.51,0.86-0.73,1.31c-0.26,0.5-0.5,1.02-0.72,1.56c-0.25,0.59-0.48,1.2-0.67,1.83c-0.08,0.25-0.16,0.5-0.23,0.75    c-0.16,0.54-0.31,1.09-0.43,1.66h-22.3c0,0,0.33-4.18,2.18-9.65c-10.03-1.62-19.6-2.91-22.62-13.39    c16.42-29.47,59.19-25.55,89-23.47c36,2.51,55.04-9.46,66.42-20.83c7.9-7.9,13.42-17.01,14.76-17.01    C586.32,131.03,585.41,135.15,582.77,140.84z"
   id="path1" />
		<path
   class="st2"
   d="M582.77,140.84c-7.29,15.73-21.87,40.57-58.34,46.49c-1.11,0.18-2.2,0.36-3.29,0.53    c-0.54,0.09-1.09,0.17-1.63,0.26c-4.47,0.7-8.76,1.34-12.84,1.99c-0.83,0.13-1.66,0.26-2.47,0.39c-1.17,0.18-2.31,0.37-3.44,0.56    c-0.48,0.08-0.96,0.16-1.43,0.24c-0.48,0.08-0.95,0.16-1.41,0.24c-0.68,0.12-1.35,0.24-2.01,0.35c-0.25,0.05-0.5,0.09-0.75,0.14    c-0.64,0.12-1.28,0.24-1.91,0.36c-2.17,0.42-4.26,0.85-6.26,1.32c-0.38,0.08-0.76,0.17-1.14,0.27c-0.78,0.18-1.55,0.38-2.3,0.58    c-1.13,0.3-2.23,0.61-3.29,0.94c-0.71,0.21-1.4,0.44-2.08,0.67c-0.68,0.22-1.34,0.46-1.98,0.71c-0.66,0.25-1.3,0.5-1.92,0.77    c-0.31,0.13-0.62,0.26-0.92,0.4c-0.6,0.27-1.19,0.55-1.76,0.84c-0.57,0.29-1.13,0.59-1.67,0.9c-0.5,0.28-0.98,0.58-1.45,0.88    c-0.55,0.36-1.09,0.73-1.6,1.11c-0.24,0.18-0.47,0.36-0.7,0.54s-0.45,0.36-0.67,0.56c-0.2,0.16-0.4,0.33-0.59,0.52    c-0.14,0.12-0.27,0.24-0.4,0.37c-0.17,0.16-0.34,0.32-0.5,0.49c-0.14,0.13-0.26,0.26-0.38,0.4c-0.15,0.15-0.29,0.31-0.43,0.47    c-0.24,0.27-0.48,0.54-0.69,0.82c-0.16,0.19-0.31,0.39-0.45,0.59c-0.31,0.39-0.59,0.8-0.85,1.22c-0.11,0.17-0.22,0.34-0.32,0.51    c-0.26,0.43-0.51,0.86-0.73,1.31c-0.26,0.5-0.5,1.02-0.72,1.56c-0.25,0.59-0.48,1.2-0.67,1.83c-0.09,0.25-0.17,0.5-0.23,0.75    c-0.16,0.54-0.31,1.09-0.43,1.66h-22.3c0,0,0.33-4.18,2.18-9.65c2.99-8.88,9.97-21.18,26.03-24.52    c31.71-6.59,79.59,6.05,106.77-33.17c7.9-7.9,13.42-17.01,14.76-17.01C586.32,131.03,585.41,135.15,582.77,140.84z"
   id="path2" />
	</g>
	<path
   class="st3"
   d="M483.78,194.58c-8.12,1.65-13.99-1.21-10.56-5.15s13.58-6.01,18.27-3.72S491.91,192.93,483.78,194.58z"
   id="path3" />
	<path
   class="st3"
   d="M518.41,188.33c-6.81,1.09-11.54-1.17-8.51-4.06c3.03-2.89,11.54-4.26,15.32-2.45   C529.01,183.62,525.22,187.24,518.41,188.33z"
   id="path4" />
	<path
   class="st3"
   d="M551.98,177.47c-5.43,3.27-10.23,2.97-8.64-0.54c1.59-3.51,8.37-7.59,12.21-7.36   C559.39,169.81,557.4,174.2,551.98,177.47z"
   id="path5" />
	<path
   class="st3"
   d="M575.11,155.24c-2.63,3.54-6.19,4.34-6.4,1.43s3.08-7.33,5.93-7.97C577.48,148.07,577.74,151.7,575.11,155.24z   "
   id="path6" />
	<path
   class="st2"
   d="M438,205.73c-1.85,5.47-2.18,9.65-2.18,9.65h-26.93c0.78-9.34,3.06-16.91,6.49-23.04   C418.4,202.82,427.97,204.11,438,205.73z"
   id="path7" />
	<path
   class="st4"
   d="M458.55,213.72c-0.16,0.54-0.31,1.09-0.43,1.66h-22.3c0,0,0.33-4.18,2.18-9.65   C445.41,206.93,453.08,208.31,458.55,213.72z"
   id="path8" />
	<path
   class="st3"
   d="M459.28,213.23c-3.78,8.4-11.25,11.35-13.44,5.31c-2.2-6.04,2.52-16.53,8.5-18.89   C460.31,197.29,463.06,204.83,459.28,213.23z"
   id="path9" />
</g>
<g
   id="g20">
	<path
   class="st3"
   d="M729.89,371.61c-0.4,6.95-3.42,11.13-5.43,7.53c-2.01-3.6-1.51-12.28,0.9-15.63   C727.77,360.16,730.29,364.66,729.89,371.61z"
   id="path10" />
	<path
   class="st3"
   d="M726.74,335.35c1.32,5.01-0.62,8.87-3.49,6.95c-2.87-1.92-4.52-8.19-2.97-11.28   C721.83,327.93,725.42,330.34,726.74,335.35z"
   id="path11" />
	<path
   class="st1"
   d="M742.05,417.21c-20.21,56.48-110.89,76.21-162.16,13.25c-8.02-9.85-15.08-21.73-20.75-35.81h60.89   c0,0,0.97,2.2,3.11,5.45c6.5,9.91,23.9,29.6,58,26.63c30.47-2.66,41.65-23.14,45.05-43.91v-0.03c2.52-15.38,0.76-30.92-0.58-39.49   c-3.17-20.17-16.61-34.8-9.49-30.45C723.23,317.2,760.78,364.87,742.05,417.21z"
   id="path12" />
	<path
   class="st2"
   d="M726.19,382.82c-3.6,64.32-84.59,74.43-124.7,32.88c-5.76-5.96-10.67-12.98-14.39-21.05h32.93   c0,0,15.82,36.03,61.11,32.08C711.61,424.07,722.79,403.59,726.19,382.82z"
   id="path13" />
	<path
   class="st3"
   d="M616.94,417.92c-3.73-0.62-7.72-3.29-11.05-6.84c-4.51-4.81-7.82-11.25-7.65-16.43c0-0.14,0.01-0.28,0.02-0.42   c0.57-8.12,9.64-7.45,17.5,0.42c0.89,0.88,1.76,1.86,2.6,2.93c0.82,1.03,1.54,2.07,2.18,3.11   C626.44,410.2,625,419.26,616.94,417.92z"
   id="path14" />
	<path
   class="st3"
   d="M659.37,434.48c-11.06-1.2-17.47-6.54-11.54-9.62c5.93-3.08,19.75-1.58,24.87,2.7   C677.83,431.84,670.43,435.68,659.37,434.48z"
   id="path15" />
	<path
   class="st3"
   d="M712.53,416.64c-6.06,6.62-12.01,8.79-10.7,3.9c1.3-4.89,8.88-13.17,13.64-14.9S718.59,410.01,712.53,416.64z"
   id="path16" />
	<path
   class="st2"
   d="M601.49,415.7c-6.29,6.65-12.85,13.21-21.6,14.76c-8.02-9.85-15.08-21.73-20.75-35.81h27.96   C590.82,402.72,595.73,409.74,601.49,415.7z"
   id="path17" />
	<path
   class="st4"
   d="M605.89,411.08c-1.47,1.5-2.92,3.06-4.4,4.62c-5.76-5.96-10.67-12.98-14.39-21.05h11.14   C598.07,399.83,601.38,406.27,605.89,411.08z"
   id="path18" />
	<path
   class="st4"
   d="M623.14,400.1c-0.89,0.13-1.75,0.33-2.6,0.59c-0.64-1.04-1.36-2.08-2.18-3.11c-0.84-1.07-1.71-2.05-2.6-2.93   h4.27C620.03,394.65,621,396.85,623.14,400.1z"
   id="path19" />
	<path
   class="st1"
   d="M620.54,400.69c-5.47,1.66-10.11,5.75-14.65,10.39c-4.51-4.81-7.82-11.25-7.65-16.43h17.52   c0.89,0.88,1.76,1.86,2.6,2.93C619.18,398.61,619.9,399.65,620.54,400.69z"
   id="path20" />
</g>
<g
   id="g26">
	<g
   id="g25">
		<g
   id="g24">
			<path
   class="st5"
   d="M1653.99,513.07v29.46c0,8.54-6.92,15.46-15.46,15.46H172.19v-60.38h1204.6c3.33,0,6.48,1.66,8.23,4.49     c6.28,10.18,21.04,19.49,42.47,19.36c17.06-0.1,31.42-6.83,39.26-16.15c2-2.38,5.7-2.44,7.57,0.04     c5.73,7.64,17.75,13.47,34.07,13.47c14.77,0,26.63-4.78,32.62-11.33c1.96-2.16,5.33-2.31,7.45-0.29     c5.04,4.76,14.23,7.95,25.33,7.49c13.99-0.59,24.39-6.72,27.14-13.89c0.76-1.97,2.73-3.19,4.85-3.19h32.75     C1647.07,497.61,1653.99,504.53,1653.99,513.07z"
   id="path21" />
			<path
   class="st5"
   d="M1572.3,506.26c16.22,0.5,26.6-9.55,18.68-18.09c-7.91-8.54-28.19-9.16-36.49-1.12     C1546.19,495.09,1556.08,505.76,1572.3,506.26z"
   id="path22" />
			<path
   class="st5"
   d="M1508.17,509.32c21.74,0.82,35.83-12.15,25.37-23.33c-10.47-11.18-37.64-12.2-48.91-1.84     C1473.35,494.53,1486.43,508.51,1508.17,509.32z"
   id="path23" />
			<path
   class="st5"
   d="M1426.04,511.53c24.39,0.83,40.15-13.95,28.38-26.61s-42.26-13.7-54.87-1.88     C1386.94,494.87,1401.66,510.69,1426.04,511.53z"
   id="path24" />
		</g>
		<path
   class="st5"
   d="M127.47,531.36l41.19,39.81c3.14,3.03,8.38,0.81,8.38-3.56v-79.62c0-4.37-5.24-6.59-8.38-3.56l-41.19,39.81    C125.46,526.19,125.46,529.41,127.47,531.36z"
   id="path25" />
	</g>
</g>
<g
   id="g31">
	<g
   id="g30">
		<g
   id="g29">
			<path
   class="st5"
   d="M1607.81,53.99v60.38H141.47c-8.54,0-15.46-6.92-15.46-15.46V69.45c0-8.53,6.92-15.46,15.46-15.46h32.75     c2.12,0,4.09,1.23,4.85,3.19c2.75,7.17,13.15,13.3,27.14,13.9c11.1,0.45,20.29-2.74,25.33-7.5c2.12-2.02,5.49-1.87,7.45,0.29     c5.99,6.56,17.85,11.33,32.62,11.33c16.32,0,28.34-5.83,34.07-13.46c1.87-2.49,5.57-2.43,7.57-0.05     c7.84,9.32,22.2,16.05,39.26,16.15c21.43,0.13,36.19-9.18,42.47-19.36c1.75-2.83,4.9-4.49,8.23-4.49H1607.81z"
   id="path26" />
			<path
   class="st5"
   d="M207.7,62.64c-16.22,0.5-26.6-9.55-18.68-18.09s28.19-9.16,36.49-1.12S223.92,62.14,207.7,62.64z"
   id="path27" />
			<path
   class="st5"
   d="M271.83,65.71c-21.74,0.82-35.83-12.15-25.37-23.33s37.64-12.2,48.91-1.84     C306.65,50.91,293.57,64.89,271.83,65.71z"
   id="path28" />
			<path
   class="st5"
   d="M353.96,67.91c-24.39,0.83-40.15-13.95-28.38-26.61s42.26-13.7,54.87-1.88S378.34,67.07,353.96,67.91z"
   id="path29" />
		</g>
		<path
   class="st5"
   d="M1652.53,87.74l-41.19,39.81c-3.14,3.03-8.38,0.81-8.38-3.56V44.37c0-4.37,5.24-6.59,8.38-3.56l41.19,39.81    C1654.54,82.57,1654.54,85.8,1652.53,87.74z"
   id="path30" />
	</g>
</g>
<path
   class="st6"
   d="M1601.7,394.65h-513.5c-9.28,0-16.8-7.52-16.8-16.8V232.18c0-9.28,7.52-16.8,16.8-16.8h513.5  c9.28,0,16.8,7.52,16.8,16.8v145.66C1618.51,387.13,1610.98,394.65,1601.7,394.65z"
   id="path31" />
<path
   class="st1"
   d="M672.64,394.65H265.91c-2.98,0-5.01-3.01-3.9-5.78c21.56-53.95,21.18-111.98-0.14-167.77  c-1.05-2.76,0.97-5.72,3.93-5.72h406.84c9.28,0,16.8,7.52,16.8,16.8v145.66C689.44,387.13,681.92,394.65,672.64,394.65z"
   id="path32" />
<g
   id="g47">
	<path
   class="st7"
   d="M198.45,166.44c-49.67,40.8-58.14,37.46-36.95,72.95C195.77,203.16,198.45,166.44,198.45,166.44z"
   id="path33" />
	<path
   class="st7"
   d="M202.81,168.48c24.77,31.08,65.04,24.16,29.72,63.85C202.81,206.84,202.81,168.48,202.81,168.48z"
   id="path34" />
	<path
   class="st7"
   d="M216.44,392.17c0,0,0,34.04,28.77,43c1.05,0.33,2.01-0.75,1.55-1.75c-19.77-42.49,31.22-117.14-11.28-144.25   L212,295.39L216.44,392.17z"
   id="path35" />
	<path
   class="st1"
   d="M232.87,293.3c-31.49,21.63-62.49-0.41-62.49-0.41c-8.63-11.63-12.33-23.87-12.75-36.1   c-1-29.8,17.54-59.54,31.8-80.56v-0.03c3.85-5.6,7.36-10.6,10.12-14.81c0.91-1.36,3-0.82,3.15,0.82   c5.33,50.87,67.73,60.3,36.77,123.37C237.95,288.65,235.69,291.36,232.87,293.3z"
   id="path36" />
	<path
   class="st8"
   d="M231.09,265.7c-1.21-10.47-19.7-11.07-21.8,0"
   id="path37" />
	<path
   class="st8"
   d="M210.45,276.91c-0.85,8.53-13.81,9.03-15.27,0"
   id="path38" />
	<path
   class="st8"
   d="M174.54,265.7c1.21-10.47,19.7-11.07,21.8,0"
   id="path39" />
	<path
   class="st1"
   d="M185.6,445.25c1.24-10.16,3.49-35.19-0.68-61.36c0,0-0.91,7.63-4.33,18.9c-2.24,7.36-5.54,16.29-10.36,25.65   c-0.58,1.09-2.3,0.64-2.15-0.58c4.36-41.95-40.98-91.28,2.3-134.98h63.06c3.06,10.33,5.85,19.66,7.51,28.95   c5.44,30.48-1.51,60.53-52.95,124.41C187.14,447.31,185.43,446.6,185.6,445.25z"
   id="path40" />
	<path
   class="st7"
   d="M184.91,383.89c0,0-0.91,7.63-4.33,18.9c-5.63-25.47-6.36-71.66,9.93-97.85c0.45-0.73,1.64-0.21,1.36,0.64   C188.64,316.32,182.04,343.88,184.91,383.89z"
   id="path41" />
	<path
   class="st2"
   d="M187.94,446.32c-0.48,0.59-1.42,0.04-1.13-0.66c5.42-13.06,20.89-52.63,25.19-81.68   c5.81-39.19,21.13-48.65,28.94-42.14C246.38,352.33,239.43,382.38,187.94,446.32z"
   id="path42" />
	<path
   class="st7"
   d="M235.62,358.51c-3.91,12.05-13.61,17.29-17.46,9.43c-3.85-7.86,1.03-22.92,8.79-27.11   C234.71,336.63,239.53,346.46,235.62,358.51z"
   id="path43" />
	<path
   class="st7"
   d="M221.92,392.64c-3.25,8.17-10.21,11.37-12.54,5.75c-2.32-5.61,1.73-15.82,7.31-18.38   C222.26,377.46,225.17,384.47,221.92,392.64z"
   id="path44" />
	<path
   class="st7"
   d="M207.69,420.96c-2.55,6.1-8.21,8.25-10.18,3.88s1.22-12,5.74-13.72S210.24,414.86,207.69,420.96z"
   id="path45" />
	<path
   class="st9"
   d="M231.58,231.73c2.85,7.71,0.5,14.02-4.24,11.36s-8.31-12.3-6.42-17.35S228.72,224.01,231.58,231.73z"
   id="path46" />
	<path
   class="st2"
   d="M189.43,176.22c-10.96,21.62,6.24,75.93-31.77,80.68l-0.03-0.12C156.63,226.98,175.16,197.24,189.43,176.22z"
   id="path47" />
</g>
<g
   id="g52">
	<path
   class="st7"
   d="M703.32,371.53c-3.68,0-5.98-3.76-4.14-6.77c1.84-3.01,6.44-3.01,8.28,0   C709.31,367.77,707.01,371.53,703.32,371.53z"
   id="path48" />
	<path
   class="st7"
   d="M540.81,419.48c-2.58-2.58-2.12-6.26,0.82-6.62c2.94-0.37,6.16,2.86,5.8,5.8   C547.06,421.6,543.38,422.06,540.81,419.48z"
   id="path49" />
	<path
   class="st7"
   d="M401.04,423.01c-3.48,3.48-9.13,2.17-10.18-2.36c-1.05-4.52,3.3-8.87,7.82-7.82   C403.2,413.88,404.51,419.53,401.04,423.01z"
   id="path50" />
	<path
   class="st7"
   d="M419.32,437.56c-2.68-2.09-2.6-5.65,0.14-6.4c2.74-0.75,6.09,1.87,6.03,4.71S422,439.66,419.32,437.56z"
   id="path51" />
	<path
   class="st7"
   d="M302,194.86c-3.09-1.27-3.64-5.41-1-7.44s6.5-0.45,6.94,2.86C308.39,193.58,305.09,196.13,302,194.86z"
   id="path52" />
</g>
<g
   id="text53"
   style="white-space:pre;inline-size:768.346"
   transform="translate(-77.346376,293.26109)"
   aria-label="ink! Smart Contract&#10;on a Rollup"><path
     style="font-size:34px;font-family:Montserrat-Medium;text-align:center;text-anchor:middle"
     d="m 389.36865,-21.648437 h -3.51953 v -3.237305 h 3.51953 z M 389.16943,0 h -3.12109 v -18.543945 h 3.12109 z m 21.68164,0 h -3.12109 v -10.558594 q 0,-1.27832 -0.14941,-2.390625 -0.14942,-1.128906 -0.54786,-1.759765 -0.41503,-0.697266 -1.19531,-1.029297 -0.78027,-0.348633 -2.02539,-0.348633 -1.27832,0 -2.67285,0.630859 -1.39453,0.63086 -2.67285,1.610352 V 0 h -3.1211 v -18.543945 h 3.1211 v 2.058593 q 1.46094,-1.211914 3.02148,-1.892578 1.56055,-0.680664 3.2041,-0.680664 3.00489,0 4.58204,1.809571 1.57714,1.80957 1.57714,5.21289 z m 22.84375,0 h -4.11718 l -7.4375,-8.1181641 -2.02539,1.9257813 V 0 h -3.1211 v -25.832031 h 3.1211 v 16.5683591 l 9.01464,-9.2802731 h 3.93457 l -8.61621,8.5664059 z m 8.76563,-24.719727 -0.43164,17.9130864 h -2.82227 L 438.7417,-24.719727 Z M 442.29443,0 h -3.38672 v -3.5029297 h 3.38672 z m 38.2334,-7.0556641 q 0,1.444336 -0.68066,2.8554688 -0.66406,1.4111328 -1.87598,2.390625 -1.32812,1.06249999 -3.10449,1.66015624 -1.75977,0.59765625 -4.25,0.59765625 -2.67285,0 -4.81445,-0.49804688 -2.125,-0.49804687 -4.33301,-1.47753901 v -4.1171875 h 0.23242 q 1.87598,1.5605468 4.33301,2.4072265 2.45703,0.8466797 4.61523,0.8466797 3.05469,0 4.74805,-1.1455078 1.70996,-1.1455078 1.70996,-3.0546875 0,-1.6435547 -0.81348,-2.4238281 -0.79687,-0.7802735 -2.44043,-1.2119146 -1.24511,-0.332031 -2.70605,-0.547851 -1.44434,-0.21582 -3.07129,-0.547852 -3.28711,-0.697265 -4.88086,-2.374023 -1.57715,-1.693359 -1.57715,-4.399414 0,-3.104492 2.62305,-5.080078 2.62305,-1.992188 6.65723,-1.992188 2.60644,0 4.78125,0.498047 2.1748,0.498047 3.85156,1.228516 v 3.884765 h -0.23242 q -1.41114,-1.195312 -3.71875,-1.975586 -2.29102,-0.796875 -4.69825,-0.796875 -2.63964,0 -4.25,1.095704 -1.59375,1.095703 -1.59375,2.822265 0,1.543946 0.79688,2.423828 0.79687,0.879883 2.80566,1.344727 1.0625,0.232422 3.02149,0.564453 1.95898,0.332031 3.32031,0.680664 2.75586,0.730469 4.15039,2.208008 1.39453,1.4775389 1.39453,4.1337889 z M 512.61865,0 h -3.12109 v -10.558594 q 0,-1.195312 -0.11621,-2.307617 -0.0996,-1.112305 -0.44824,-1.776367 -0.38184,-0.713867 -1.09571,-1.079102 -0.71386,-0.365234 -2.05859,-0.365234 -1.31152,0 -2.62305,0.664062 -1.31152,0.647461 -2.62305,1.660157 0.0498,0.381836 0.083,0.896484 0.0332,0.498047 0.0332,0.996094 V 0 h -3.1211 v -10.558594 q 0,-1.228515 -0.11621,-2.324219 -0.0996,-1.112304 -0.44824,-1.776367 -0.38184,-0.713867 -1.0957,-1.0625 -0.71387,-0.365234 -2.0586,-0.365234 -1.27832,0 -2.57324,0.630859 -1.27832,0.63086 -2.55664,1.610352 V 0 h -3.12109 v -18.543945 h 3.12109 v 2.058593 q 1.46094,-1.211914 2.90527,-1.892578 1.46094,-0.680664 3.10449,-0.680664 1.89258,0 3.20411,0.796875 1.32812,0.796875 1.97558,2.208008 1.89258,-1.59375 3.45313,-2.291016 1.56054,-0.713867 3.33691,-0.713867 3.05469,0 4.49902,1.859375 1.46094,1.842774 1.46094,5.163086 z m 20.41992,0 h -3.10449 v -1.9755859 q -0.41504,0.2822265 -1.1289,0.796875 -0.69727,0.49804684 -1.36133,0.79687496 Q 526.66357,0 525.65088,0.24902344 q -1.0127,0.265625 -2.37402,0.265625 -2.50684,0 -4.25,-1.66015624 -1.74317,-1.6601563 -1.74317,-4.2333984 0,-2.1083985 0.89649,-3.4033204 0.91308,-1.3115234 2.58984,-2.0585934 1.69336,-0.747071 4.06738,-1.012696 2.37403,-0.265625 5.09668,-0.398437 v -0.481445 q 0,-1.0625 -0.38183,-1.759766 -0.36524,-0.697266 -1.0625,-1.095703 -0.66407,-0.381836 -1.59375,-0.514649 -0.92969,-0.132812 -1.94239,-0.132812 -1.22851,0 -2.73925,0.332031 -1.51075,0.31543 -3.1211,0.929688 h -0.16601 v -3.170899 q 0.91308,-0.249023 2.63964,-0.547851 1.72657,-0.298828 3.40332,-0.298828 1.95899,0 3.40333,0.332031 1.46093,0.315429 2.52343,1.095703 1.0459,0.763672 1.59375,1.975586 0.54785,1.211914 0.54785,3.004883 z m -3.10449,-4.5654297 v -5.1630859 q -1.42773,0.083008 -3.37012,0.2490234 -1.92578,0.1660156 -3.05468,0.4814453 -1.34473,0.381836 -2.17481,1.1953125 -0.83008,0.796875 -0.83008,2.2080078 0,1.59375 0.9629,2.4072266 0.96289,0.796875 2.93847,0.796875 1.64356,0 3.00488,-0.6308594 1.36133,-0.6474609 2.52344,-1.5439453 z m 20.68555,-10.5751953 h -0.16602 q -0.69726,-0.166016 -1.36132,-0.232422 -0.64747,-0.08301 -1.54395,-0.08301 -1.44434,0 -2.78906,0.647461 -1.34473,0.63086 -2.58985,1.643555 V 0 h -3.12109 v -18.543945 h 3.12109 v 2.739257 q 1.85938,-1.49414 3.27051,-2.108398 1.42774,-0.630859 2.90527,-0.630859 0.81348,0 1.17872,0.0498 0.36523,0.0332 1.0957,0.149414 z m 12.56738,14.97460938 q -0.87988,0.23242187 -1.92578,0.38183593 -1.0293,0.14941407 -1.84277,0.14941407 -2.83887,0 -4.31641,-1.52734378 -1.47754,-1.5273437 -1.47754,-4.8974609 v -9.8613277 h -2.1084 v -2.623047 h 2.1084 v -5.329102 h 3.1211 v 5.329102 h 6.4414 v 2.623047 h -6.4414 v 8.4501949 q 0,1.4609375 0.0664,2.2910156 0.0664,0.8134766 0.46485,1.5273437 0.36523,0.6640625 0.99609,0.9794922 0.64746,0.2988282 1.95898,0.2988282 0.76368,0 1.59375,-0.2158204 0.83008,-0.2324218 1.19532,-0.3818359 h 0.16601 z m 35.0625,-1.62695308 q -0.91308,0.3984375 -1.66015,0.7470703 -0.73047,0.34863278 -1.92579,0.73046871 -1.01269,0.31542969 -2.208,0.53125 -1.17871,0.23242188 -2.60645,0.23242188 -2.68945,0 -4.89746,-0.74707032 Q 582.76025,-1.0625 581.1333,-2.6728516 579.53955,-4.25 578.64307,-6.6738281 q -0.89649,-2.4404297 -0.89649,-5.6611329 0,-3.054687 0.86328,-5.461914 0.86328,-2.407227 2.49024,-4.067383 1.57715,-1.610351 3.80176,-2.457031 2.24121,-0.84668 4.96386,-0.84668 1.99219,0 3.96778,0.481446 1.99218,0.481445 4.41601,1.693359 v 3.901367 h -0.24902 q -2.04199,-1.709961 -4.05078,-2.490234 -2.00879,-0.780274 -4.29981,-0.780274 -1.87597,0 -3.38672,0.614258 -1.49414,0.597656 -2.67285,1.875977 -1.14551,1.245117 -1.79297,3.154297 -0.63086,1.892578 -0.63086,4.382812 0,2.6064454 0.69727,4.4824219 0.71387,1.8759766 1.82617,3.0546875 1.16211,1.2285157 2.70606,1.8261719 1.56054,0.5810547 3.28711,0.5810547 2.37402,0 4.44921,-0.8134766 2.0752,-0.8134765 3.88477,-2.4404296 h 0.23242 z m 20.2041,-7.4707032 q 0,4.5322266 -2.32422,7.1552735 -2.32421,2.62304684 -6.22558,2.62304684 -3.93457,0 -6.25879,-2.62304684 -2.30762,-2.6230469 -2.30762,-7.1552735 0,-4.5322261 2.30762,-7.1552731 2.32422,-2.639649 6.25879,-2.639649 3.90137,0 6.22558,2.639649 2.32422,2.623047 2.32422,7.1552731 z m -3.2207,0 q 0,-3.6025391 -1.41113,-5.3457031 -1.41114,-1.759766 -3.91797,-1.759766 -2.54004,0 -3.95117,1.759766 -1.39453,1.743164 -1.39453,5.3457031 0,3.4863282 1.41113,5.2958985 1.41113,1.7929687 3.93457,1.7929687 2.49023,0 3.90137,-1.7763672 1.42773,-1.7929687 1.42773,-5.3125 z M 638.79053,0 h -3.1211 v -10.558594 q 0,-1.27832 -0.14941,-2.390625 -0.14941,-1.128906 -0.54785,-1.759765 -0.41504,-0.697266 -1.19531,-1.029297 -0.78028,-0.348633 -2.0254,-0.348633 -1.27832,0 -2.67285,0.630859 -1.39453,0.63086 -2.67285,1.610352 V 0 h -3.12109 v -18.543945 h 3.12109 v 2.058593 q 1.46094,-1.211914 3.02149,-1.892578 1.56054,-0.680664 3.2041,-0.680664 3.00488,0 4.58203,1.809571 1.57715,1.80957 1.57715,5.21289 z m 15.63867,-0.16601562 q -0.87988,0.23242187 -1.92578,0.38183593 -1.0293,0.14941407 -1.84278,0.14941407 -2.83886,0 -4.3164,-1.52734378 -1.47754,-1.5273437 -1.47754,-4.8974609 v -9.8613277 h -2.1084 v -2.623047 h 2.1084 v -5.329102 h 3.12109 v 5.329102 h 6.44141 v 2.623047 h -6.44141 v 8.4501949 q 0,1.4609375 0.0664,2.2910156 0.0664,0.8134766 0.46484,1.5273437 0.36524,0.6640625 0.9961,0.9794922 0.64746,0.2988282 1.95898,0.2988282 0.76367,0 1.59375,-0.2158204 0.83008,-0.2324218 1.19531,-0.3818359 h 0.16602 z M 669.76904,-15.140625 h -0.16601 q -0.69727,-0.166016 -1.36133,-0.232422 -0.64746,-0.08301 -1.54395,-0.08301 -1.44433,0 -2.78906,0.647461 -1.34473,0.63086 -2.58984,1.643555 V 0 h -3.1211 v -18.543945 h 3.1211 v 2.739257 q 1.85937,-1.49414 3.27051,-2.108398 1.42773,-0.630859 2.90527,-0.630859 0.81348,0 1.17871,0.0498 0.36523,0.0332 1.0957,0.149414 z M 686.52002,0 h -3.10449 v -1.9755859 q -0.41504,0.2822265 -1.12891,0.796875 -0.69726,0.49804684 -1.36133,0.79687496 Q 680.14502,0 679.13232,0.24902344 q -1.01269,0.265625 -2.37402,0.265625 -2.50684,0 -4.25,-1.66015624 -1.74316,-1.6601563 -1.74316,-4.2333984 0,-2.1083985 0.89648,-3.4033204 0.91309,-1.3115234 2.58984,-2.0585934 1.69336,-0.747071 4.06739,-1.012696 2.37402,-0.265625 5.09668,-0.398437 v -0.481445 q 0,-1.0625 -0.38184,-1.759766 -0.36523,-0.697266 -1.0625,-1.095703 -0.66406,-0.381836 -1.59375,-0.514649 -0.92969,-0.132812 -1.94238,-0.132812 -1.22852,0 -2.73926,0.332031 -1.51074,0.31543 -3.12109,0.929688 h -0.16602 v -3.170899 q 0.91309,-0.249023 2.63965,-0.547851 1.72656,-0.298828 3.40332,-0.298828 1.95898,0 3.40332,0.332031 1.46094,0.315429 2.52344,1.095703 1.0459,0.763672 1.59375,1.975586 0.54785,1.211914 0.54785,3.004883 z m -3.10449,-4.5654297 v -5.1630859 q -1.42774,0.083008 -3.37012,0.2490234 -1.92578,0.1660156 -3.05469,0.4814453 -1.34472,0.381836 -2.1748,1.1953125 -0.83008,0.796875 -0.83008,2.2080078 0,1.59375 0.96289,2.4072266 0.96289,0.796875 2.93848,0.796875 1.64355,0 3.00488,-0.6308594 1.36133,-0.6474609 2.52344,-1.5439453 z m 22.82715,3.4033203 Q 704.68213,-0.41503906 703.271,0 q -1.39454,0.41503906 -2.97168,0.41503906 -2.00879,0 -3.68555,-0.58105468 -1.67676,-0.59765625 -2.87207,-1.79296878 -1.21191,-1.1953125 -1.87598,-3.0214843 -0.66406,-1.8261719 -0.66406,-4.2666016 0,-4.5488277 2.49023,-7.1386717 2.50684,-2.589844 6.60743,-2.589844 1.59375,0 3.12109,0.448242 1.54395,0.448242 2.82227,1.095703 v 3.469727 h -0.16602 q -1.42773,-1.112305 -2.95508,-1.709961 -1.51074,-0.597656 -2.95508,-0.597656 -2.65625,0 -4.20019,1.792968 -1.52735,1.776368 -1.52735,5.2294927 0,3.3535156 1.49415,5.1630859 1.51074,1.7929688 4.23339,1.7929688 0.94629,0 1.92579,-0.2490235 0.97949,-0.2490234 1.75976,-0.6474609 0.68066,-0.3486328 1.27832,-0.7304688 0.59766,-0.3984374 0.94629,-0.680664 h 0.16602 z m 13.62988,0.99609378 q -0.87988,0.23242187 -1.92578,0.38183593 -1.0293,0.14941407 -1.84278,0.14941407 -2.83886,0 -4.3164,-1.52734378 -1.47754,-1.5273437 -1.47754,-4.8974609 v -9.8613277 h -2.1084 v -2.623047 h 2.1084 v -5.329102 h 3.12109 v 5.329102 h 6.44141 v 2.623047 h -6.44141 v 8.4501949 q 0,1.4609375 0.0664,2.2910156 0.0664,0.8134766 0.46484,1.5273437 0.36524,0.6640625 0.9961,0.9794922 0.64746,0.2988282 1.95898,0.2988282 0.76367,0 1.59375,-0.2158204 0.83008,-0.2324218 1.19531,-0.3818359 h 0.16602 z"
     id="path58" /><path
     style="font-size:34px;font-family:Montserrat-Medium;text-align:center;text-anchor:middle"
     d="m 474.99121,33.236329 q 0,4.532227 -2.32422,7.155273 -2.32422,2.623047 -6.22558,2.623047 -3.93457,0 -6.25879,-2.623047 -2.30762,-2.623046 -2.30762,-7.155273 0,-4.532227 2.30762,-7.155273 2.32422,-2.639649 6.25879,-2.639649 3.90136,0 6.22558,2.639649 2.32422,2.623046 2.32422,7.155273 z m -3.2207,0 q 0,-3.602539 -1.41114,-5.345703 -1.41113,-1.759766 -3.91796,-1.759766 -2.54004,0 -3.95118,1.759766 -1.39453,1.743164 -1.39453,5.345703 0,3.486328 1.41114,5.295898 1.41113,1.792969 3.93457,1.792969 2.49023,0 3.90136,-1.776367 1.42774,-1.792969 1.42774,-5.3125 z m 23.55761,9.263672 h -3.12109 V 31.941407 q 0,-1.27832 -0.14941,-2.390625 -0.14942,-1.128906 -0.54785,-1.759765 -0.41504,-0.697266 -1.19532,-1.029297 -0.78027,-0.348633 -2.02539,-0.348633 -1.27832,0 -2.67285,0.630859 -1.39453,0.63086 -2.67285,1.610352 v 13.845703 h -3.12109 V 23.956056 h 3.12109 v 2.058593 q 1.46094,-1.211914 3.02148,-1.892578 1.56055,-0.680664 3.20411,-0.680664 3.00488,0 4.58203,1.80957 1.57714,1.809571 1.57714,5.212891 z m 32.37305,0 h -3.10449 v -1.975586 q -0.41504,0.282227 -1.12891,0.796875 -0.69726,0.498047 -1.36132,0.796875 -0.78028,0.381836 -1.79297,0.630859 -1.0127,0.265625 -2.37403,0.265625 -2.50683,0 -4.25,-1.660156 -1.74316,-1.660156 -1.74316,-4.233398 0,-2.108399 0.89648,-3.403321 0.91309,-1.311523 2.58985,-2.058593 1.69336,-0.747071 4.06738,-1.012696 2.37402,-0.265625 5.09668,-0.398437 v -0.481446 q 0,-1.0625 -0.38184,-1.759765 -0.36523,-0.697266 -1.0625,-1.095703 -0.66406,-0.381836 -1.59375,-0.514649 -0.92968,-0.132812 -1.94238,-0.132812 -1.22851,0 -2.73926,0.332031 -1.51074,0.31543 -3.12109,0.929688 h -0.16602 v -3.170899 q 0.91309,-0.249023 2.63965,-0.547851 1.72656,-0.298829 3.40332,-0.298829 1.95899,0 3.40332,0.332032 1.46094,0.315429 2.52344,1.095703 1.0459,0.763672 1.59375,1.975586 0.54785,1.211914 0.54785,3.004883 z m -3.10449,-4.56543 v -5.163086 q -1.42773,0.08301 -3.37012,0.249024 -1.92578,0.166015 -3.05469,0.481445 -1.34472,0.381836 -2.1748,1.195313 -0.83008,0.796875 -0.83008,2.208007 0,1.59375 0.96289,2.407227 0.96289,0.796875 2.93848,0.796875 1.64355,0 3.00488,-0.630859 1.36133,-0.647461 2.52344,-1.543946 z m 41.76953,4.56543 h -4.2666 l -8.26758,-9.828125 h -4.63183 v 9.828125 h -3.28711 V 17.780274 h 6.92285 q 2.24121,0 3.73535,0.298828 1.49414,0.282227 2.68945,1.029297 1.34473,0.84668 2.0918,2.141602 0.76367,1.27832 0.76367,3.253906 0,2.672852 -1.34473,4.482422 -1.34472,1.792969 -3.70214,2.706055 z m -7.68652,-17.763672 q 0,-1.0625 -0.38184,-1.875977 -0.36523,-0.830078 -1.22851,-1.394531 -0.71387,-0.481445 -1.69336,-0.664062 -0.9795,-0.199219 -2.30762,-0.199219 h -3.86816 v 9.330078 h 3.32031 q 1.56054,0 2.72265,-0.265625 1.16211,-0.282226 1.97559,-1.029297 0.74707,-0.697265 1.0957,-1.59375 0.36524,-0.913086 0.36524,-2.307617 z m 25.59961,8.5 q 0,4.532227 -2.32422,7.155273 -2.32422,2.623047 -6.22559,2.623047 -3.93457,0 -6.25879,-2.623047 -2.30761,-2.623046 -2.30761,-7.155273 0,-4.532227 2.30761,-7.155273 2.32422,-2.639649 6.25879,-2.639649 3.90137,0 6.22559,2.639649 2.32422,2.623046 2.32422,7.155273 z m -3.22071,0 q 0,-3.602539 -1.41113,-5.345703 -1.41113,-1.759766 -3.91797,-1.759766 -2.54004,0 -3.95117,1.759766 -1.39453,1.743164 -1.39453,5.345703 0,3.486328 1.41113,5.295898 1.41113,1.792969 3.93457,1.792969 2.49024,0 3.90137,-1.776367 1.42773,-1.792969 1.42773,-5.3125 z m 11.20606,9.263672 h -3.1211 V 16.66797 h 3.1211 z m 9.33008,0 h -3.1211 V 16.66797 h 3.1211 z m 21.54882,0 h -3.12109 v -2.058594 q -1.57715,1.245117 -3.02148,1.90918 -1.44434,0.664062 -3.1875,0.664062 -2.92188,0 -4.54883,-1.776367 -1.62695,-1.792969 -1.62695,-5.246094 V 23.956056 h 3.12109 v 10.558593 q 0,1.411133 0.13281,2.423828 0.13281,0.996094 0.56445,1.709961 0.44825,0.730469 1.16211,1.0625 0.71387,0.332032 2.0752,0.332032 1.21191,0 2.63965,-0.63086 1.44433,-0.630859 2.68945,-1.610351 V 23.956056 h 3.12109 z m 22.46192,-9.496094 q 0,2.257813 -0.64746,4.133789 -0.64746,1.859375 -1.82617,3.154297 -1.09571,1.228516 -2.58985,1.90918 -1.47754,0.664062 -3.13769,0.664062 -1.44434,0 -2.62305,-0.315429 -1.16211,-0.31543 -2.37402,-0.979493 v 7.769532 h -3.1211 V 23.956056 h 3.1211 v 1.942382 q 1.24511,-1.045898 2.78906,-1.743164 1.56055,-0.713867 3.32031,-0.713867 3.35352,0 5.21289,2.540039 1.87598,2.523438 1.87598,7.022461 z m -3.2207,0.08301 q 0,-3.353516 -1.14551,-5.013672 -1.14551,-1.660156 -3.51953,-1.660156 -1.34473,0 -2.70606,0.581055 -1.36133,0.581054 -2.60644,1.527343 v 10.508789 q 1.32812,0.597657 2.27441,0.813477 0.96289,0.21582 2.17481,0.21582 2.60644,0 4.06738,-1.759765 1.46094,-1.759766 1.46094,-5.212891 z"
     id="path59" /></g>
<path
   d="M 20.951172,-21.797852 H 12.119141 V 0 H 8.8320313 V -21.797852 H 0 v -2.921875 H 20.951172 Z M 40.557617,0 H 24.271484 v -24.719727 h 16.286133 v 2.921875 H 27.558594 v 6.773438 h 12.999023 v 2.921875 H 27.558594 v 9.180664 h 12.999023 z m 24.304688,-1.7929687 q -0.913086,0.3984375 -1.660157,0.7470703 -0.730468,0.34863278 -1.925781,0.73046871 Q 60.263672,0 59.068359,0.21582031 q -1.178711,0.23242188 -2.606445,0.23242188 -2.689453,0 -4.897461,-0.74707032 Q 49.373047,-1.0625 47.746094,-2.6728516 46.152344,-4.25 45.255859,-6.6738281 q -0.896484,-2.4404297 -0.896484,-5.6611329 0,-3.054687 0.863281,-5.461914 0.863281,-2.407227 2.490235,-4.067383 1.577148,-1.610351 3.801757,-2.457031 2.241211,-0.84668 4.963868,-0.84668 1.992187,0 3.967773,0.481446 1.992188,0.481445 4.416016,1.693359 v 3.901367 h -0.249024 q -2.041992,-1.709961 -4.050781,-2.490234 -2.008789,-0.780274 -4.299805,-0.780274 -1.875976,0 -3.386718,0.614258 -1.494141,0.597656 -2.672852,1.875977 -1.145508,1.245117 -1.792969,3.154297 -0.630859,1.892578 -0.630859,4.382812 0,2.6064454 0.697265,4.4824219 0.713868,1.8759766 1.826172,3.0546875 1.16211,1.2285157 2.706055,1.8261719 1.560547,0.5810547 3.287109,0.5810547 2.374024,0 4.449219,-0.8134766 2.075195,-0.8134765 3.884766,-2.4404296 h 0.232422 z M 88.419922,0 h -3.28711 V -12.102539 H 72.797852 V 0 h -3.28711 v -24.719727 h 3.28711 v 9.695313 h 12.33496 v -9.695313 h 3.28711 z m 25.499998,0 h -4.06738 L 98.131836,-22.113281 V 0 h -3.071289 v -24.719727 h 5.096683 l 10.6914,20.1875004 V -24.719727 h 3.07129 z m 15.29004,0 h -9.76172 v -2.5234375 h 3.23731 V -22.196289 h -3.23731 v -2.523438 h 9.76172 v 2.523438 h -3.2373 v 19.6728515 h 3.2373 z m 24.68652,-1.7929687 q -0.91308,0.3984375 -1.66015,0.7470703 -0.73047,0.34863278 -1.92578,0.73046871 -1.0127,0.31542969 -2.20801,0.53125 -1.17871,0.23242188 -2.60645,0.23242188 -2.68945,0 -4.89746,-0.74707032 Q 138.40723,-1.0625 136.78027,-2.6728516 135.18652,-4.25 134.29004,-6.6738281 q -0.89649,-2.4404297 -0.89649,-5.6611329 0,-3.054687 0.86329,-5.461914 0.86328,-2.407227 2.49023,-4.067383 1.57715,-1.610351 3.80176,-2.457031 2.24121,-0.84668 4.96387,-0.84668 1.99218,0 3.96777,0.481446 1.99219,0.481445 4.41601,1.693359 v 3.901367 h -0.24902 q -2.04199,-1.709961 -4.05078,-2.490234 -2.00879,-0.780274 -4.29981,-0.780274 -1.87597,0 -3.38671,0.614258 -1.49414,0.597656 -2.67286,1.875977 -1.1455,1.245117 -1.79296,3.154297 -0.63086,1.892578 -0.63086,4.382812 0,2.6064454 0.69726,4.4824219 0.71387,1.8759766 1.82617,3.0546875 1.16211,1.2285157 2.70606,1.8261719 1.56055,0.5810547 3.28711,0.5810547 2.37402,0 4.44922,-0.8134766 2.07519,-0.8134765 3.88476,-2.4404296 h 0.23242 z M 178.03516,0 h -3.50293 L 172.1084,-6.8896484 H 161.41699 L 158.99316,0 h -3.33691 l 8.99805,-24.719727 h 4.38281 z m -6.93946,-9.7119141 -4.333,-12.1357419 -4.34961,12.1357419 z M 197.42578,0 h -15.63867 v -24.719727 h 3.28711 v 21.797852 h 12.35156 z m 31.02832,-21.797852 h -12.50098 v 6.972657 h 10.74122 v 2.921875 H 215.95312 V 0 h -3.2871 V -24.719727 H 228.4541 Z M 252.65918,0 h -4.2666 L 240.125,-9.828125 h -4.63184 V 0 h -3.28711 v -24.719727 h 6.92286 q 2.24121,0 3.73535,0.298829 1.49414,0.282226 2.68945,1.029296 1.34473,0.84668 2.0918,2.141602 0.76367,1.27832 0.76367,3.253906 0,2.672852 -1.34473,4.482422 -1.34472,1.792969 -3.70215,2.706055 z m -7.68652,-17.763672 q 0,-1.0625 -0.38184,-1.875976 -0.36523,-0.830079 -1.22852,-1.394532 -0.71386,-0.481445 -1.69335,-0.664062 -0.9795,-0.199219 -2.30762,-0.199219 h -3.86817 v 9.330078 h 3.32032 q 1.56054,0 2.72265,-0.265625 1.16211,-0.282226 1.97559,-1.029297 0.74707,-0.697265 1.0957,-1.59375 0.36524,-0.913086 0.36524,-2.307617 z M 272.13281,0 h -16.28613 v -24.719727 h 16.28613 v 2.921875 h -12.99902 v 6.773438 h 12.99902 v 2.921875 h -12.99902 v 9.180664 h 12.99902 z m 21.49903,0 H 277.3457 v -24.719727 h 16.28614 v 2.921875 h -12.99903 v 6.773438 h 12.99903 v 2.921875 h -12.99903 v 9.180664 h 12.99903 z m 26.09765,-12.334961 q 0,3.3701172 -1.47754,6.1093751 -1.46093,2.7392578 -3.90136,4.25 -1.69336,1.0458984 -3.78516,1.51074215 Q 308.49023,0 305.08691,0 h -6.24218 v -24.719727 h 6.17578 q 3.61914,0 5.74414,0.53125 2.1416,0.514649 3.61914,1.427735 2.52344,1.577148 3.93457,4.200195 1.41113,2.623047 1.41113,6.225586 z m -3.43652,-0.04981 q 0,-2.905273 -1.0127,-4.897461 -1.01269,-1.992187 -3.02148,-3.137695 -1.46094,-0.830078 -3.10449,-1.145508 -1.64356,-0.332031 -3.93457,-0.332031 h -3.08789 v 19.0751954 h 3.08789 q 2.37402,0 4.13379,-0.3486328 1.77636,-0.3486329 3.2539,-1.2949219 1.84278,-1.1787109 2.75586,-3.1044922 0.92969,-1.9257813 0.92969,-4.8144535 z m 27.17676,-9.496093 q 1.51074,1.660156 2.30761,4.067382 0.81348,2.407227 0.81348,5.461914 0,3.054688 -0.83008,5.4785161 -0.81347,2.4072266 -2.29101,4.0175781 -1.52735,1.6767579 -3.61914,2.52343755 -2.0752,0.84667969 -4.74805,0.84667969 -2.60645,0 -4.74805,-0.86328125 -2.125,-0.86328129 -3.61914,-2.50683599 -1.49414,-1.6435546 -2.30762,-4.0341796 -0.79687,-2.390625 -0.79687,-5.4619146 0,-3.021484 0.79687,-5.412109 0.79688,-2.407226 2.32422,-4.117187 1.46094,-1.626953 3.61914,-2.490235 2.17481,-0.863281 4.73145,-0.863281 2.65625,0 4.76465,0.879883 2.125,0.863281 3.60254,2.473633 z m -0.29883,9.529296 q 0,-4.814453 -2.1582,-7.420898 -2.15821,-2.623047 -5.89356,-2.623047 -3.76855,0 -5.92676,2.623047 -2.1416,2.606445 -2.1416,7.420898 0,4.8642583 2.19141,7.4541021 2.1914,2.5732421 5.87695,2.5732421 3.68555,0 5.86035,-2.5732421 2.19141,-2.5898438 2.19141,-7.4541021 z M 373.81738,0 h -3.28711 v -21.299805 l -6.87304,14.4931644 h -1.95899 L 354.875,-21.299805 V 0 h -3.07129 v -24.719727 h 4.48242 l 6.59082,13.762696 6.375,-13.762696 h 4.56543 z"
   id="text54"
   class="st10 st11"
   style="font-size:34px;font-family:Montserrat-Medium"
   transform="matrix(1 0 0 1 693.441 95.4776)"
   aria-label="TECHNICAL FREEDOM" />
<path
   d="m 24.205078,-12.334961 q 0,3.3701172 -1.477539,6.1093751 -1.460937,2.7392578 -3.901367,4.25 -1.69336,1.0458984 -3.785156,1.51074215 Q 12.96582,0 9.5625,0 H 3.3203125 v -24.719727 h 6.1757813 q 3.6191402,0 5.7441402,0.53125 2.141602,0.514649 3.619141,1.427735 2.523437,1.577148 3.93457,4.200195 1.411133,2.623047 1.411133,6.225586 z m -3.436523,-0.04981 q 0,-2.905273 -1.012696,-4.897461 -1.012695,-1.992187 -3.021484,-3.137695 Q 15.273438,-21.25 13.629883,-21.56543 11.986328,-21.897461 9.6953125,-21.897461 H 6.6074219 v 19.0751954 h 3.0878906 q 2.3740235,0 4.1337895,-0.3486328 1.776367,-0.3486329 3.253906,-1.2949219 1.842773,-1.1787109 2.755859,-3.1044922 0.929688,-1.9257813 0.929688,-4.8144535 z M 45.803711,0 H 29.517578 v -24.719727 h 16.286133 v 2.921875 H 32.804687 v 6.773438 h 12.999024 v 2.921875 H 32.804687 v 9.180664 H 45.803711 Z M 70.506836,-24.719727 61.508789,0 H 57.125977 L 48.12793,-24.719727 h 3.519531 l 7.75293,21.7480473 7.752929,-21.7480473 z M 90.544922,0 H 74.258789 v -24.719727 h 16.286133 v 2.921875 H 77.545898 v 6.773438 h 12.999024 v 2.921875 H 77.545898 v 9.180664 H 90.544922 Z M 111.39648,0 H 95.757812 v -24.719727 h 3.28711 v 21.797852 h 12.351558 z m 21.38282,-21.880859 q 1.51074,1.660156 2.30761,4.067382 0.81348,2.407227 0.81348,5.461914 0,3.054688 -0.83008,5.4785161 -0.81347,2.4072266 -2.29101,4.0175781 -1.52735,1.6767579 -3.61914,2.52343755 -2.0752,0.84667969 -4.74805,0.84667969 -2.60645,0 -4.74805,-0.86328125 -2.125,-0.86328129 -3.61914,-2.50683599 -1.49414,-1.6435546 -2.30762,-4.0341796 -0.79687,-2.390625 -0.79687,-5.4619146 0,-3.021484 0.79687,-5.412109 0.79688,-2.407226 2.32422,-4.117187 1.46094,-1.626953 3.61914,-2.490235 2.17481,-0.863281 4.73145,-0.863281 2.65625,0 4.76465,0.879883 2.125,0.863281 3.60254,2.473633 z m -0.29883,9.529296 q 0,-4.814453 -2.1582,-7.420898 -2.15821,-2.623047 -5.89356,-2.623047 -3.76855,0 -5.92676,2.623047 -2.1416,2.606445 -2.1416,7.420898 0,4.8642583 2.19141,7.4541021 2.1914,2.5732421 5.87695,2.5732421 3.68555,0 5.86035,-2.5732421 2.19141,-2.5898438 2.19141,-7.4541021 z m 24.80273,-4.89746 q 0,1.643554 -0.58105,3.054687 -0.56445,1.394531 -1.59375,2.423828 -1.27832,1.27832 -3.02149,1.9257814 -1.74316,0.6308594 -4.39941,0.6308594 h -3.28711 V 0 h -3.28711 v -24.719727 h 6.70703 q 2.22461,0 3.76856,0.381836 1.54394,0.365235 2.73925,1.16211 1.41114,0.946289 2.17481,2.357422 0.78027,1.411132 0.78027,3.569336 z m -3.41992,0.08301 q 0,-1.27832 -0.44824,-2.224609 -0.44824,-0.946289 -1.36133,-1.543945 -0.79687,-0.514649 -1.82617,-0.730469 -1.0127,-0.232422 -2.57324,-0.232422 h -3.25391 v 9.87793 h 2.77246 q 1.99219,0 3.23731,-0.348633 1.24511,-0.365234 2.02539,-1.145508 0.78027,-0.796875 1.0957,-1.676758 0.33203,-0.879882 0.33203,-1.975586 z M 183.62988,0 h -3.28711 v -21.299805 l -6.87304,14.4931644 h -1.95899 L 164.6875,-21.299805 V 0 h -3.07129 v -24.719727 h 4.48242 l 6.59082,13.762696 6.375,-13.762696 h 4.56543 z m 22.92676,0 h -16.28613 v -24.719727 h 16.28613 v 2.921875 h -12.99902 v 6.773438 h 12.99902 v 2.921875 h -12.99902 v 9.180664 h 12.99902 z m 24.07227,0 h -4.06739 l -11.7207,-22.113281 V 0 h -3.07129 v -24.719727 h 5.09668 l 10.69141,20.1875004 V -24.719727 h 3.07129 z m 24.20507,-21.797852 h -8.83203 V 0 h -3.28711 v -21.797852 h -8.83203 v -2.921875 h 20.95117 z M 286.39355,0 h -16.28613 v -24.719727 h 16.28613 v 2.921875 h -12.99902 v 6.773438 h 12.99902 v 2.921875 h -12.99902 v 9.180664 h 12.99902 z m 24.70313,0 h -3.50293 l -2.42383,-6.8896484 h -10.6914 L 292.05469,0 h -3.33692 l 8.99805,-24.719727 h 4.38281 z m -6.93945,-9.7119141 -4.33301,-12.1357419 -4.34961,12.1357419 z m 28.48828,2.65625 q 0,1.444336 -0.68067,2.8554688 -0.66406,1.4111328 -1.87597,2.390625 -1.32813,1.06249999 -3.1045,1.66015624 -1.75976,0.59765625 -4.25,0.59765625 -2.67285,0 -4.81445,-0.49804688 -2.125,-0.49804687 -4.33301,-1.47753901 v -4.1171875 h 0.23243 q 1.87597,1.5605468 4.333,2.4072265 2.45703,0.8466797 4.61524,0.8466797 3.05469,0 4.74804,-1.1455078 1.70997,-1.1455078 1.70997,-3.0546875 0,-1.6435547 -0.81348,-2.4238281 -0.79688,-0.7802735 -2.44043,-1.2119146 -1.24512,-0.332031 -2.70606,-0.547851 -1.44433,-0.21582 -3.07128,-0.547852 -3.28711,-0.697265 -4.88086,-2.374023 -1.57715,-1.693359 -1.57715,-4.399414 0,-3.104492 2.62304,-5.080078 2.62305,-1.992188 6.65723,-1.992188 2.60645,0 4.78125,0.498047 2.17481,0.498047 3.85156,1.228516 v 3.884765 h -0.23242 q -1.41113,-1.195312 -3.71875,-1.975586 -2.29101,-0.796875 -4.69824,-0.796875 -2.63965,0 -4.25,1.095704 -1.59375,1.095703 -1.59375,2.822265 0,1.543946 0.79687,2.423828 0.79688,0.879883 2.80567,1.344727 1.0625,0.232422 3.02148,0.564453 1.95899,0.332031 3.32032,0.680664 2.75586,0.730469 4.15039,2.208008 1.39453,1.4775389 1.39453,4.1337889 z M 354.21094,0 H 337.9248 v -24.719727 h 16.28614 v 2.921875 h -12.99903 v 6.773438 h 12.99903 v 2.921875 h -12.99903 v 9.180664 h 12.99903 z"
   id="text55"
   class="st10 st11"
   style="font-size:34px;font-family:Montserrat-Medium"
   transform="matrix(1 0 0 1 693.441 540.1879)"
   aria-label="DEVELOPMENT EASE" />
<path
   style="font-size:34px;font-family:Montserrat-Medium"
   d="m 1209.282,314.51111 h -4.2666 l -8.2676,-9.82813 h -4.6318 v 9.82813 h -3.2871 v -24.71973 h 6.9228 q 2.2412,0 3.7354,0.29883 1.4941,0.28223 2.6894,1.0293 1.3447,0.84668 2.0918,2.1416 0.7637,1.27832 0.7637,3.2539 0,2.67286 -1.3447,4.48243 -1.3448,1.79297 -3.7022,2.70605 z m -7.6865,-17.76367 q 0,-1.0625 -0.3819,-1.87598 -0.3652,-0.83008 -1.2285,-1.39453 -0.7139,-0.48145 -1.6934,-0.66406 -0.9794,-0.19922 -2.3076,-0.19922 h -3.8681 v 9.33008 h 3.3203 q 1.5605,0 2.7226,-0.26563 1.1621,-0.28223 1.9756,-1.0293 0.7471,-0.69726 1.0957,-1.59375 0.3653,-0.91308 0.3653,-2.30761 z m 25.5996,8.5 q 0,4.53222 -2.3243,7.15527 -2.3242,2.62305 -6.2255,2.62305 -3.9346,0 -6.2588,-2.62305 -2.3076,-2.62305 -2.3076,-7.15527 0,-4.53223 2.3076,-7.15528 2.3242,-2.63965 6.2588,-2.63965 3.9013,0 6.2255,2.63965 2.3243,2.62305 2.3243,7.15528 z m -3.2207,0 q 0,-3.60254 -1.4112,-5.34571 -1.4111,-1.75976 -3.9179,-1.75976 -2.5401,0 -3.9512,1.75976 -1.3945,1.74317 -1.3945,5.34571 0,3.48632 1.4111,5.29589 1.4111,1.79297 3.9346,1.79297 2.4902,0 3.9013,-1.77636 1.4278,-1.79297 1.4278,-5.3125 z m 11.206,9.26367 h -3.1211 v -25.83203 h 3.1211 z m 9.3301,0 h -3.1211 v -25.83203 h 3.1211 z m 21.5488,0 h -3.1211 v -2.0586 q -1.5771,1.24512 -3.0215,1.90918 -1.4443,0.66407 -3.1875,0.66407 -2.9218,0 -4.5488,-1.77637 -1.6269,-1.79297 -1.6269,-5.24609 v -12.03614 h 3.1211 v 10.5586 q 0,1.41113 0.1328,2.42382 0.1328,0.9961 0.5644,1.70997 0.4483,0.73046 1.1621,1.0625 0.7139,0.33203 2.0752,0.33203 1.2119,0 2.6397,-0.63086 1.4443,-0.63086 2.6894,-1.61035 v -13.84571 h 3.1211 z m 22.4619,-9.4961 q 0,2.25782 -0.6474,4.13379 -0.6475,1.85938 -1.8262,3.1543 -1.0957,1.22852 -2.5898,1.90918 -1.4776,0.66406 -3.1377,0.66406 -1.4444,0 -2.6231,-0.31543 -1.1621,-0.31543 -2.374,-0.97949 v 7.76953 h -3.1211 v -25.38379 h 3.1211 v 1.94239 q 1.2451,-1.0459 2.7891,-1.74317 1.5605,-0.71387 3.3203,-0.71387 3.3535,0 5.2129,2.54004 1.8759,2.52344 1.8759,7.02246 z m -3.2207,0.083 q 0,-3.35351 -1.1455,-5.01367 -1.1455,-1.66016 -3.5195,-1.66016 -1.3447,0 -2.7061,0.58106 -1.3613,0.58105 -2.6064,1.52734 v 10.50879 q 1.3281,0.59766 2.2744,0.81348 0.9629,0.21582 2.1748,0.21582 2.6065,0 4.0674,-1.75977 1.4609,-1.75976 1.4609,-5.21289 z m 35.8428,0.14942 q 0,4.53222 -2.3242,7.15527 -2.3242,2.62305 -6.2256,2.62305 -3.9346,0 -6.2588,-2.62305 -2.3076,-2.62305 -2.3076,-7.15527 0,-4.53223 2.3076,-7.15528 2.3242,-2.63965 6.2588,-2.63965 3.9014,0 6.2256,2.63965 2.3242,2.62305 2.3242,7.15528 z m -3.2207,0 q 0,-3.60254 -1.4111,-5.34571 -1.4112,-1.75976 -3.918,-1.75976 -2.54,0 -3.9512,1.75976 -1.3945,1.74317 -1.3945,5.34571 0,3.48632 1.4111,5.29589 1.4112,1.79297 3.9346,1.79297 2.4902,0 3.9014,-1.77636 1.4277,-1.79297 1.4277,-5.3125 z m 23.5576,9.26367 h -3.1211 v -10.5586 q 0,-1.27832 -0.1494,-2.39062 -0.1494,-1.12891 -0.5478,-1.75977 -0.4151,-0.69726 -1.1953,-1.02929 -0.7803,-0.34864 -2.0254,-0.34864 -1.2784,0 -2.6729,0.63086 -1.3945,0.63086 -2.6728,1.61036 v 13.8457 h -3.1211 v -18.54395 h 3.1211 v 2.0586 q 1.4609,-1.21192 3.0214,-1.89258 1.5606,-0.68067 3.2041,-0.68067 3.0049,0 4.5821,1.80957 1.5771,1.80958 1.5771,5.2129 z m 34.3819,-17.24903 q 0,1.64356 -0.5811,3.05469 -0.5644,1.39453 -1.5937,2.42383 -1.2784,1.27832 -3.0215,1.92578 -1.7432,0.63086 -4.3994,0.63086 h -3.2872 v 9.21387 h -3.2871 v -24.71973 h 6.7071 q 2.2246,0 3.7685,0.38184 1.544,0.36523 2.7393,1.16211 1.4111,0.94629 2.1748,2.35742 0.7803,1.41113 0.7803,3.56933 z m -3.42,0.083 q 0,-1.27832 -0.4482,-2.22461 -0.4482,-0.94629 -1.3613,-1.54394 -0.7969,-0.51465 -1.8262,-0.73047 -1.0127,-0.23242 -2.5732,-0.23242 h -3.254 v 9.87793 h 2.7725 q 1.9922,0 3.2373,-0.34864 1.2451,-0.36523 2.0254,-1.1455 0.7803,-0.79688 1.0957,-1.67676 0.332,-0.87988 0.332,-1.97559 z m 22.4786,7.90235 q 0,4.53222 -2.3243,7.15527 -2.3242,2.62305 -6.2256,2.62305 -3.9345,0 -6.2587,-2.62305 -2.3077,-2.62305 -2.3077,-7.15527 0,-4.53223 2.3077,-7.15528 2.3242,-2.63965 6.2587,-2.63965 3.9014,0 6.2256,2.63965 2.3243,2.62305 2.3243,7.15528 z m -3.2207,0 q 0,-3.60254 -1.4112,-5.34571 -1.4111,-1.75976 -3.918,-1.75976 -2.54,0 -3.9511,1.75976 -1.3946,1.74317 -1.3946,5.34571 0,3.48632 1.4112,5.29589 1.4111,1.79297 3.9345,1.79297 2.4903,0 3.9014,-1.77636 1.4278,-1.79297 1.4278,-5.3125 z m 11.206,9.26367 h -3.1211 v -25.83203 h 3.1211 z m 23.0098,0 h -4.1172 l -7.4375,-8.11817 -2.0254,1.92579 v 6.19238 h -3.1211 v -25.83203 h 3.1211 v 16.56836 l 9.0146,-9.28028 h 3.9346 l -8.6162,8.56641 z m 17.6972,0 h -3.1045 v -1.97559 q -0.415,0.28223 -1.1289,0.79688 -0.6972,0.49804 -1.3613,0.79687 -0.7803,0.38184 -1.793,0.63086 -1.0127,0.26563 -2.374,0.26563 -2.5068,0 -4.25,-1.66016 -1.7431,-1.66016 -1.7431,-4.2334 0,-2.1084 0.8964,-3.40332 0.9131,-1.31152 2.5899,-2.05859 1.6933,-0.74707 4.0674,-1.0127 2.374,-0.26562 5.0966,-0.39843 v -0.48145 q 0,-1.0625 -0.3818,-1.75977 -0.3652,-0.69726 -1.0625,-1.0957 -0.6641,-0.38183 -1.5937,-0.51465 -0.9297,-0.13281 -1.9424,-0.13281 -1.2285,0 -2.7393,0.33203 -1.5107,0.31543 -3.1211,0.92969 h -0.166 v -3.1709 q 0.9131,-0.24902 2.6397,-0.54785 1.7265,-0.29883 3.4033,-0.29883 1.959,0 3.4033,0.33203 1.4609,0.31543 2.5234,1.09571 1.0459,0.76367 1.5938,1.97558 0.5478,1.21192 0.5478,3.00488 z m -3.1045,-4.56543 v -5.16309 q -1.4277,0.083 -3.3701,0.24903 -1.9258,0.16601 -3.0547,0.48144 -1.3447,0.38184 -2.1748,1.19531 -0.83,0.79688 -0.83,2.20801 0,1.59375 0.9628,2.40723 0.9629,0.79687 2.9385,0.79687 1.6436,0 3.0049,-0.63086 1.3613,-0.64746 2.5234,-1.54394 z m 24.1553,4.56543 h -3.1211 v -1.94238 q -1.3447,1.1621 -2.8056,1.80957 -1.461,0.64746 -3.1709,0.64746 -3.3204,0 -5.2793,-2.55664 -1.9424,-2.55664 -1.9424,-7.08887 0,-2.35742 0.664,-4.2002 0.6807,-1.84277 1.8262,-3.13769 1.1289,-1.26172 2.6231,-1.92578 1.5107,-0.66407 3.1211,-0.66407 1.4609,0 2.5898,0.31543 1.1289,0.29883 2.374,0.94629 v -8.03515 h 3.1211 z m -3.1211,-4.56543 v -10.6416 q -1.2617,-0.56446 -2.2578,-0.78028 -0.9961,-0.21582 -2.1748,-0.21582 -2.623,0 -4.084,1.82618 -1.4609,1.82617 -1.4609,5.17968 0,3.30371 1.1289,5.03028 1.1289,1.70996 3.6191,1.70996 1.3282,0 2.6895,-0.58106 1.3613,-0.59765 2.54,-1.52734 z m 25.0684,-4.69824 q 0,4.53222 -2.3242,7.15527 -2.3243,2.62305 -6.2256,2.62305 -3.9346,0 -6.2588,-2.62305 -2.3076,-2.62305 -2.3076,-7.15527 0,-4.53223 2.3076,-7.15528 2.3242,-2.63965 6.2588,-2.63965 3.9013,0 6.2256,2.63965 2.3242,2.62305 2.3242,7.15528 z m -3.2207,0 q 0,-3.60254 -1.4112,-5.34571 -1.4111,-1.75976 -3.9179,-1.75976 -2.5401,0 -3.9512,1.75976 -1.3945,1.74317 -1.3945,5.34571 0,3.48632 1.4111,5.29589 1.4111,1.79297 3.9346,1.79297 2.4902,0 3.9013,-1.77636 1.4278,-1.79297 1.4278,-5.3125 z m 17.6806,9.09765 q -0.8798,0.23242 -1.9257,0.38184 -1.0293,0.14941 -1.8428,0.14941 -2.8389,0 -4.3164,-1.52734 -1.4776,-1.52734 -1.4776,-4.89746 v -9.86133 h -2.1084 v -2.62305 h 2.1084 v -5.3291 h 3.1211 v 5.3291 h 6.4414 v 2.62305 h -6.4414 v 8.4502 q 0,1.46093 0.066,2.29101 0.067,0.81348 0.4649,1.52734 0.3652,0.66407 0.9961,0.9795 0.6474,0.29882 1.959,0.29882 0.7636,0 1.5937,-0.21582 0.8301,-0.23242 1.1953,-0.38183 h 0.166 z"
   id="text56"
   aria-label="Rollup on Polkadot" />
</svg>
