<?xml version="1.0" encoding="UTF-8"?>
<svg id="Layer_1" data-name="Layer 1" xmlns="http://www.w3.org/2000/svg" xmlns:xlink="http://www.w3.org/1999/xlink" viewBox="0 0 1601.68 800.85">
  <defs>
    <style>
      .cls-1, .cls-2, .cls-3 {
        fill: none;
      }

      .cls-4 {
        clip-path: url(#clippath);
      }

      .cls-5 {
        fill: #fff;
      }

      .cls-6 {
        fill: #bc83fb;
      }

      .cls-7 {
        fill: #d8b7fb;
      }

      .cls-8 {
        fill: #242526;
      }

      .cls-2 {
        stroke: #bc83fb;
      }

      .cls-2, .cls-3 {
        stroke-linecap: round;
        stroke-miterlimit: 10;
        stroke-width: 4px;
      }

      .cls-3 {
        stroke: #8747cc;
      }
    </style>
    <clipPath id="clippath">
      <path class="cls-1" d="m324.31,291.81v197.33c0,42.56-221.68,42.56-221.68,0v-197.33c0-36.79,221.68-36.79,221.68,0Z"/>
    </clipPath>
  </defs>
  <rect class="cls-8" width="1601.68" height="800.85"/>
  <g>
    <path d="m324.31,479.54l-110.84,41.52c130.63,6.23,203.27-29.21,110.84-41.52Z"/>
    <g>
      <path class="cls-6" d="m324.31,291.81v197.33c0,42.56-221.68,42.56-221.68,0v-197.33c0-36.79,221.68-36.79,221.68,0Z"/>
      <path class="cls-7" d="m324.31,291.81c0,33.22-221.68,33.22-221.68,0,0-36.79,221.68-36.79,221.68,0Z"/>
      <g class="cls-4">
        <path class="cls-3" d="m326.34,359.75c0,33.23-225.73,33.23-225.73,0"/>
        <path class="cls-3" d="m326.34,427.68c0,33.23-225.73,33.23-225.73,0"/>
      </g>
    </g>
    <g>
      <path class="cls-5" d="m120.34,419.6c0-10.78,0-16.18,0-26.96,4.85,1,7.28,1.47,12.14,2.34,2.91.52,5.47,1.51,7.7,2.99,2.22,1.48,3.96,3.3,5.22,5.49,1.25,2.19,1.88,4.66,1.88,7.4s-.63,5-1.88,6.83c-1.25,1.83-2.99,3.13-5.22,3.89-2.22.76-4.79.88-7.7.36-4.87-.87-7.3-1.34-12.14-2.34Zm6.18-3.89c2.26.44,3.39.65,5.66,1.05,1.79.32,3.34.25,4.65-.21,1.32-.46,2.34-1.26,3.07-2.4.73-1.14,1.09-2.56,1.09-4.25s-.36-3.26-1.09-4.62c-.73-1.36-1.75-2.49-3.07-3.4-1.32-.9-2.87-1.51-4.65-1.83-2.26-.41-3.4-.62-5.66-1.05,0,6.69,0,10.03,0,16.71Z"/>
      <path class="cls-5" d="m157.93,426.08c-1.62-.2-3-.65-4.16-1.35-1.15-.7-2.04-1.57-2.65-2.61-.62-1.03-.92-2.14-.92-3.32s.3-2.27.9-3.11c.6-.84,1.56-1.44,2.87-1.79,1.31-.36,3.01-.4,5.12-.15,2.2.26,3.31.39,5.51.62v3.5c-1.94-.21-2.91-.32-4.86-.55-1.41-.17-2.38-.06-2.91.34-.53.4-.79.94-.79,1.63,0,.77.3,1.42.9,1.94.6.52,1.43.85,2.48.98,1,.12,1.9-.01,2.7-.4.8-.39,1.37-1.02,1.73-1.91.37,1.15.56,1.72.93,2.87-.44,1.29-1.23,2.22-2.39,2.78-1.16.56-2.65.74-4.47.52Zm6.32.42c0-1.62,0-2.43,0-4.04-.15-.37-.23-.56-.39-.93v-7.24c0-1.28-.39-2.33-1.18-3.13-.78-.81-1.98-1.3-3.6-1.49-1.1-.13-2.19-.09-3.25.12-1.06.21-1.97.56-2.71,1.05-.86-1.79-1.29-2.69-2.15-4.49,1.13-.64,2.49-1.07,4.08-1.31,1.59-.23,3.21-.25,4.85-.06,3.16.37,5.61,1.37,7.36,3.04,1.75,1.67,2.62,4.07,2.62,7.23,0,4.73,0,7.09,0,11.82-2.25-.22-3.38-.33-5.63-.57Z"/>
      <path class="cls-5" d="m172.85,411.7v-4.62c5.76.51,8.64.72,14.41,1.05,0,1.85,0,2.77,0,4.62-5.77-.33-8.65-.54-14.41-1.05Zm10.97,16.79c-2.45-.16-4.35-.92-5.72-2.27-1.36-1.35-2.05-3.26-2.05-5.73,0-7.27,0-10.91,0-18.18,2.41.2,3.62.29,6.03.45,0,7.24,0,10.86,0,18.1,0,.87.23,1.56.7,2.07.46.51,1.09.79,1.89.84.95.06,1.77-.15,2.44-.62.65,1.73.97,2.6,1.62,4.33-.62.4-1.36.69-2.22.86-.86.17-1.76.22-2.69.16Z"/>
      <path class="cls-5" d="m198.56,429.21c-1.63-.05-3.02-.38-4.18-.98-1.16-.6-2.05-1.39-2.67-2.37-.62-.98-.93-2.06-.93-3.24s.3-2.3.91-3.19c.61-.9,1.57-1.58,2.88-2.05,1.32-.47,3.03-.67,5.15-.61,2.21.07,3.32.09,5.54.13,0,1.4,0,2.1,0,3.5-1.95-.04-2.93-.06-4.88-.11-1.42-.04-2.39.16-2.92.6-.53.44-.79,1.01-.79,1.7,0,.77.3,1.39.91,1.86.61.47,1.44.72,2.5.75,1.01.03,1.91-.18,2.71-.64.8-.46,1.38-1.14,1.74-2.06.37,1.12.56,1.67.93,2.79-.44,1.33-1.24,2.33-2.4,2.99-1.16.67-2.66.98-4.49.92Zm6.35-.15c0-1.62,0-2.43,0-4.04-.15-.36-.23-.54-.39-.89v-7.24c0-1.28-.39-2.29-1.18-3.03-.79-.74-1.99-1.12-3.62-1.17-1.11-.03-2.2.1-3.27.41-1.07.31-1.98.74-2.73,1.3-.87-1.72-1.3-2.58-2.17-4.3,1.13-.74,2.5-1.3,4.1-1.67,1.6-.37,3.22-.54,4.88-.49,3.17.09,5.64.87,7.39,2.38,1.75,1.51,2.63,3.84,2.63,7,0,4.73,0,7.09,0,11.82-2.26-.01-3.39-.03-5.65-.07Z"/>
      <path class="cls-5" d="m216.02,429.14c0-11.43,0-17.15,0-28.58,2.42-.01,3.62-.03,6.04-.07,0,4.82,0,7.23,0,12.06-.15,2.45-.23,3.68-.39,6.13.05,2.46.07,3.7.12,6.16,0,1.69,0,2.54,0,4.24-2.31.04-3.46.05-5.77.07Zm12.31.08c-1.83.06-3.41-.29-4.72-1.03-1.32-.74-2.32-1.9-3.02-3.47-.7-1.57-1.05-3.56-1.05-5.97s.37-4.45,1.1-6.02c.74-1.58,1.76-2.76,3.08-3.56,1.32-.8,2.85-1.22,4.61-1.28,1.96-.06,3.72.3,5.28,1.11,1.56.81,2.8,1.98,3.71,3.52.92,1.54,1.37,3.41,1.37,5.59,0,2.16-.46,4.06-1.37,5.7-.92,1.64-2.15,2.94-3.71,3.89-1.56.95-3.32,1.47-5.28,1.53Zm-1.05-4.9c1.01-.03,1.9-.29,2.69-.78.79-.49,1.42-1.18,1.9-2.06.48-.88.72-1.91.72-3.09s-.24-2.22-.72-3.05c-.48-.83-1.11-1.46-1.9-1.89-.79-.43-1.68-.63-2.69-.6-1.01.03-1.91.28-2.71.77s-1.43,1.15-1.9,2.01c-.46.86-.7,1.89-.7,3.09s.23,2.2.7,3.05c.46.85,1.1,1.5,1.9,1.94s1.7.65,2.71.62Z"/>
      <path class="cls-5" d="m248.79,428.1c-1.62.12-3.01-.05-4.17-.53-1.16-.47-2.05-1.17-2.67-2.08-.62-.91-.93-1.96-.93-3.14,0-1.23.3-2.33.91-3.29.61-.96,1.57-1.75,2.88-2.36,1.31-.62,3.03-1,5.14-1.17,2.21-.18,3.31-.27,5.52-.47v3.5c-1.95.18-2.92.26-4.86.42-1.42.11-2.39.42-2.92.92-.53.5-.79,1.1-.79,1.79,0,.77.3,1.36.91,1.76.6.4,1.44.57,2.49.48,1-.08,1.91-.39,2.7-.94.8-.54,1.38-1.3,1.74-2.25.37,1.08.56,1.61.93,2.69-.44,1.38-1.23,2.46-2.39,3.26-1.16.79-2.65,1.27-4.48,1.41Zm6.33-.84v-4.04c-.15-.34-.23-.51-.39-.85v-7.24c0-1.28-.39-2.25-1.18-2.9-.79-.65-1.99-.91-3.61-.78-1.11.09-2.2.34-3.26.77-1.07.42-1.98.95-2.72,1.59-.87-1.62-1.3-2.43-2.16-4.06,1.13-.87,2.5-1.57,4.1-2.12,1.6-.55,3.22-.89,4.87-1.02,3.17-.26,5.62.26,7.37,1.58,1.75,1.32,2.62,3.55,2.62,6.71,0,4.73,0,7.09,0,11.82-2.25.23-3.38.34-5.63.55Z"/>
      <path class="cls-5" d="m273.16,425.57c-1.77.23-3.47.23-5.1,0-1.63-.23-2.92-.62-3.87-1.15.8-1.81,1.2-2.72,2-4.54.95.48,2.07.83,3.37,1.04,1.3.21,2.57.24,3.83.07,1.38-.18,2.36-.48,2.94-.9.58-.41.87-.92.87-1.51,0-.49-.23-.82-.67-1-.45-.18-1.04-.29-1.79-.31-.74-.03-1.56-.05-2.44-.06-.89-.01-1.78-.08-2.67-.18-.9-.11-1.72-.34-2.46-.69-.75-.35-1.34-.87-1.79-1.56-.45-.69-.67-1.63-.67-2.81,0-1.31.38-2.51,1.14-3.59.76-1.09,1.86-2.01,3.29-2.76,1.44-.75,3.16-1.26,5.16-1.52,1.41-.19,2.85-.23,4.31-.13,1.46.1,2.68.37,3.65.81-.8,1.83-1.2,2.75-2,4.57-1-.44-2-.7-3.02-.78-1.01-.08-1.99-.05-2.94.07-1.33.18-2.31.48-2.92.92-.62.44-.92.94-.92,1.5,0,.51.22.87.67,1.07.45.2,1.05.33,1.79.39.74.06,1.56.08,2.44.08.88,0,1.77.05,2.67.15.9.1,1.71.31,2.44.63.73.32,1.33.8,1.79,1.47.46.66.69,1.58.69,2.76,0,1.28-.38,2.48-1.15,3.58-.77,1.1-1.88,2.05-3.32,2.82-1.45.77-3.21,1.3-5.29,1.57Z"/>
      <path class="cls-5" d="m296.82,421.85c-2.35.43-4.41.33-6.18-.29-1.78-.62-3.15-1.66-4.12-3.11-.97-1.45-1.46-3.2-1.46-5.26s.48-4,1.44-5.76c.96-1.76,2.27-3.23,3.93-4.42,1.66-1.19,3.54-1.98,5.63-2.36,2.01-.37,3.83-.28,5.44.26,1.62.55,2.89,1.52,3.83,2.93.94,1.41,1.41,3.23,1.41,5.47,0,.23-.01.5-.04.8-.03.3-.05.58-.08.84-6.66,1.38-10,2-16.7,3.13v-3.51c5.44-.92,8.16-1.42,13.57-2.5-.92.6-1.37.9-2.29,1.49,0-1.08-.22-1.97-.65-2.69-.43-.71-1.03-1.22-1.8-1.53-.76-.3-1.66-.36-2.68-.18-1.02.19-1.92.57-2.7,1.16-.78.59-1.38,1.32-1.82,2.2-.43.88-.65,1.88-.65,2.98v.92c0,1.13.25,2.08.75,2.86.5.77,1.2,1.31,2.11,1.6.9.29,1.97.32,3.19.1,1.1-.2,2.06-.55,2.88-1.04.83-.49,1.58-1.14,2.27-1.94,1.27,1.14,1.9,1.7,3.17,2.83-.94,1.27-2.12,2.34-3.55,3.19-1.43.86-3.07,1.46-4.93,1.8Z"/>
    </g>
  </g>
  <g>
    <path class="cls-5" d="m1206.7,373.54v-28.62h9.22v1.56h-7.02v25.49h7.02v1.56h-9.22Z"/>
    <path class="cls-5" d="m1222.41,368.48v-2.26h6.12v-15.64h-4.76v-1.76c1.24-.18,2.29-.39,3.14-.65.85-.25,1.62-.56,2.31-.92h2.03v18.97h5.56v2.26h-14.41Z"/>
    <path class="cls-5" d="m1249.13,368.88c-2.35,0-4.21-.97-5.58-2.9-1.36-1.93-2.05-4.66-2.05-8.19s.68-6.29,2.05-8.15c1.37-1.86,3.22-2.8,5.58-2.8s4.24.93,5.59,2.8c1.35,1.86,2.03,4.58,2.03,8.15s-.68,6.26-2.03,8.19c-1.35,1.93-3.22,2.9-5.59,2.9Zm0-2.2c1.49,0,2.7-.72,3.64-2.16.94-1.44,1.41-3.68,1.41-6.72s-.47-5.29-1.41-6.67c-.94-1.39-2.16-2.08-3.64-2.08s-2.7.69-3.64,2.08c-.94,1.39-1.41,3.61-1.41,6.67s.47,5.28,1.41,6.72c.94,1.44,2.16,2.16,3.64,2.16Zm0-6.89c-.56,0-1.04-.2-1.45-.6-.41-.4-.62-.94-.62-1.63s.2-1.23.62-1.61c.41-.39.89-.58,1.45-.58s1.04.19,1.45.58c.41.39.62.93.62,1.61s-.21,1.23-.62,1.63c-.41.4-.89.6-1.45.6Z"/>
    <path class="cls-5" d="m1266.43,375.57l-.77-1.73c1.38-.62,2.41-1.38,3.1-2.26.69-.89,1.05-1.99,1.1-3.29-.09.02-.19.04-.3.05-.11.01-.22.02-.33.02-.71,0-1.32-.21-1.83-.63-.51-.42-.77-1.04-.77-1.86s.27-1.45.8-1.88c.53-.43,1.15-.65,1.86-.65.98,0,1.72.38,2.23,1.15s.77,1.8.77,3.11c0,1.95-.52,3.6-1.55,4.94-1.03,1.34-2.47,2.36-4.31,3.04Z"/>
    <path class="cls-5" d="m1311.3,368.48v-5.86h-10.95v-1.83l10.62-13.54h2.93v13.18h3.29v2.2h-3.29v5.86h-2.6Zm-7.92-8.05h7.92v-6.59c.02-.58.05-1.2.08-1.88.03-.68.06-1.3.08-1.88h-.17c-.33.51-.69,1.03-1.07,1.55-.38.52-.74,1.04-1.1,1.55l-5.76,7.25Z"/>
    <path class="cls-5" d="m1321.45,368.48v-1.63c2.4-2.13,4.43-3.99,6.09-5.59,1.66-1.6,2.92-3.04,3.78-4.33.85-1.29,1.28-2.52,1.28-3.69s-.38-2.22-1.13-3c-.75-.78-1.92-1.17-3.49-1.17-1,0-1.92.25-2.78.75-.85.5-1.63,1.1-2.31,1.81l-1.56-1.56c.95-.98,1.99-1.76,3.1-2.35,1.11-.59,2.41-.88,3.89-.88,2.13,0,3.82.57,5.06,1.71,1.24,1.14,1.86,2.66,1.86,4.54,0,1.33-.41,2.68-1.23,4.04-.82,1.36-1.97,2.8-3.44,4.29s-3.18,3.12-5.11,4.88c.67-.04,1.34-.09,2.01-.13.68-.04,1.33-.07,1.95-.07h6.99v2.36h-14.94Z"/>
    <path class="cls-5" d="m1346.31,375.57l-.77-1.73c1.38-.62,2.41-1.38,3.1-2.26.69-.89,1.05-1.99,1.1-3.29-.09.02-.19.04-.3.05-.11.01-.22.02-.33.02-.71,0-1.32-.21-1.83-.63-.51-.42-.77-1.04-.77-1.86s.27-1.45.8-1.88c.53-.43,1.15-.65,1.86-.65.98,0,1.72.38,2.23,1.15s.77,1.8.77,3.11c0,1.95-.52,3.6-1.55,4.94-1.03,1.34-2.47,2.36-4.31,3.04Z"/>
    <path class="cls-5" d="m1382.15,368.48v-2.26h6.12v-15.64h-4.76v-1.76c1.24-.18,2.29-.39,3.14-.65.85-.25,1.62-.56,2.31-.92h2.03v18.97h5.56v2.26h-14.41Z"/>
    <path class="cls-5" d="m1401.32,368.48v-1.63c2.4-2.13,4.43-3.99,6.09-5.59,1.66-1.6,2.92-3.04,3.78-4.33.85-1.29,1.28-2.52,1.28-3.69s-.38-2.22-1.13-3c-.75-.78-1.92-1.17-3.49-1.17-1,0-1.92.25-2.78.75-.85.5-1.63,1.1-2.31,1.81l-1.56-1.56c.95-.98,1.99-1.76,3.1-2.35,1.11-.59,2.41-.88,3.89-.88,2.13,0,3.82.57,5.06,1.71,1.24,1.14,1.86,2.66,1.86,4.54,0,1.33-.41,2.68-1.23,4.04-.82,1.36-1.97,2.8-3.44,4.29s-3.18,3.12-5.11,4.88c.67-.04,1.34-.09,2.01-.13.68-.04,1.33-.07,1.95-.07h6.99v2.36h-14.94Z"/>
    <path class="cls-5" d="m1428.41,368.88c-1.82,0-3.36-.31-4.61-.92-1.25-.61-2.27-1.3-3.05-2.08l1.4-1.8c.71.67,1.56,1.25,2.56,1.76,1,.51,2.17.77,3.53.77,1.44,0,2.65-.35,3.63-1.06.98-.71,1.46-1.65,1.46-2.83,0-1.26-.59-2.29-1.76-3.06-1.18-.78-3.16-1.16-5.96-1.16v-2.1c2.51,0,4.29-.38,5.36-1.15,1.06-.77,1.6-1.7,1.6-2.81,0-1.04-.39-1.86-1.18-2.46-.79-.6-1.84-.9-3.15-.9-1,0-1.94.2-2.83.6-.89.4-1.69.92-2.4,1.56l-1.46-1.73c.89-.78,1.9-1.41,3.05-1.91,1.14-.5,2.39-.75,3.74-.75s2.52.21,3.58.63c1.05.42,1.89,1.03,2.51,1.83.62.8.93,1.77.93,2.93,0,1.29-.43,2.34-1.28,3.16-.85.82-1.94,1.45-3.25,1.9v.13c.95.2,1.83.54,2.61,1.02.79.48,1.43,1.08,1.91,1.81.49.73.73,1.59.73,2.56,0,1.24-.35,2.32-1.05,3.23-.7.91-1.62,1.61-2.78,2.1-1.15.49-2.44.73-3.86.73Z"/>
    <path class="cls-5" d="m1442.08,373.54v-1.56h7.02v-25.49h-7.02v-1.56h9.22v28.62h-9.22Z"/>
  </g>
  <g>
    <g>
      <path class="cls-2" d="m926.64,75.31h-403.67c-8.87,0-16.06,7.19-16.06,16.06v618.1c0,8.87,7.19,16.06,16.06,16.06h403.67"/>
      <g>
        <line class="cls-2" x1="522.97" y1="156.57" x2="926.64" y2="156.57"/>
        <line class="cls-2" x1="522.97" y1="237.86" x2="926.64" y2="237.86"/>
        <line class="cls-2" x1="522.97" y1="319.14" x2="926.64" y2="319.14"/>
        <line class="cls-2" x1="522.97" y1="400.43" x2="926.64" y2="400.43"/>
        <line class="cls-2" x1="522.97" y1="481.71" x2="926.64" y2="481.71"/>
        <line class="cls-2" x1="522.97" y1="562.99" x2="926.64" y2="562.99"/>
        <line class="cls-2" x1="522.97" y1="644.28" x2="926.64" y2="644.28"/>
      </g>
    </g>
    <g>
      <path class="cls-6" d="m413.46,400.43c.01,5.77,3.73,10.88,9.22,12.67,9.09,2.96,9.09,7.69,9.09,9.96v290.26c0,7.24,5.7,13.46,12.94,13.49,1.16,0,2.28-.14,3.35-.42.42-.11.77-.41.94-.81s.15-.86-.07-1.24c-.08-.14-.15-.27-.22-.41-6.44-12-2.07-25.39,7.72-30.69.82-.44,1.31-1.31,1.31-2.24v-267.92c0-8.09-2.4-15.26-6.87-21.13-.34-.44-.51-.97-.52-1.5,0-.53.18-1.05.52-1.5,4.47-5.86,6.87-13.03,6.87-21.13V109.88c0-.93-.49-1.8-1.31-2.24-9.79-5.3-14.16-18.7-7.72-30.69.07-.14.15-.27.22-.41.21-.38.24-.84.07-1.24s-.52-.7-.94-.81c-1.07-.28-2.19-.43-3.35-.42-7.24.02-12.94,6.25-12.94,13.49v290.26c0,2.27,0,7-9.09,9.96-5.49,1.79-9.21,6.9-9.22,12.67Z"/>
      <path class="cls-6" d="m476.92,719.59c5.16-8.48-.73-20.36-10.6-21.39s-16.33,9.58-11.62,19.08,17.06,10.78,22.22,2.3Z"/>
      <path class="cls-6" d="m454.7,83.57c4.71-9.5,17.06-10.78,22.22-2.3s-.73,20.36-10.6,21.39-16.33-9.58-11.62-19.08Z"/>
    </g>
    <g>
      <path class="cls-5" d="m549.52,368.88c-1.82,0-3.36-.31-4.61-.92-1.25-.61-2.27-1.3-3.05-2.08l1.4-1.8c.71.67,1.56,1.25,2.56,1.76,1,.51,2.17.77,3.53.77,1.44,0,2.65-.35,3.63-1.06.98-.71,1.46-1.65,1.46-2.83,0-1.26-.59-2.29-1.76-3.06-1.18-.78-3.16-1.16-5.96-1.16v-2.1c2.51,0,4.29-.38,5.36-1.15,1.06-.77,1.6-1.7,1.6-2.81,0-1.04-.39-1.86-1.18-2.46-.79-.6-1.84-.9-3.15-.9-1,0-1.94.2-2.83.6-.89.4-1.69.92-2.4,1.56l-1.46-1.73c.89-.78,1.9-1.41,3.05-1.91,1.14-.5,2.39-.75,3.74-.75s2.52.21,3.58.63c1.05.42,1.89,1.03,2.51,1.83.62.8.93,1.77.93,2.93,0,1.29-.43,2.34-1.28,3.16-.85.82-1.94,1.45-3.25,1.9v.13c.95.2,1.83.54,2.61,1.02.79.48,1.43,1.08,1.91,1.81.49.73.73,1.59.73,2.56,0,1.24-.35,2.32-1.05,3.23-.7.91-1.62,1.61-2.78,2.1-1.15.49-2.44.73-3.86.73Z"/>
      <path class="cls-5" d="m594.32,374.33c-2.31-1.8-4.13-3.96-5.47-6.49-1.34-2.53-2.01-5.4-2.01-8.62s.67-6.09,2.01-8.62c1.34-2.53,3.17-4.69,5.47-6.49l1.5,1.4c-2.22,1.89-3.86,3.94-4.93,6.17-1.07,2.23-1.6,4.74-1.6,7.54s.53,5.31,1.6,7.54c1.06,2.23,2.71,4.29,4.93,6.17l-1.5,1.4Z"/>
      <path class="cls-5" d="m613.42,368.88c-1.71,0-3.02-.49-3.94-1.48-.92-.99-1.38-2.43-1.38-4.34v-16.04h-5.76v-2.23h8.49v18.47c0,1.18.29,2.03.88,2.56.59.53,1.36.8,2.31.8s1.96-.24,3.03-.73l.7,2.03c-.75.31-1.44.55-2.06.72-.62.17-1.38.25-2.26.25Z"/>
      <path class="cls-5" d="m630.83,368.88c-1.62,0-3.09-.33-4.41-1-1.32-.67-2.37-1.64-3.15-2.91-.78-1.28-1.17-2.81-1.17-4.61s.39-3.26,1.17-4.53,1.79-2.23,3.04-2.91,2.6-1.02,4.04-1.02c2.33,0,4.14.69,5.44,2.08s1.95,3.22,1.95,5.51c0,.31-.01.61-.03.9-.02.29-.06.54-.1.77h-12.75c.18,1.82.85,3.2,2.01,4.13,1.16.93,2.59,1.4,4.28,1.4.98,0,1.86-.14,2.65-.42.79-.28,1.55-.65,2.28-1.12l1,1.8c-.8.53-1.71.99-2.75,1.36-1.03.38-2.2.57-3.51.57Zm-.4-14.81c-1.33,0-2.52.43-3.56,1.28-1.04.85-1.69,2.08-1.93,3.68h10.32c-.11-1.66-.6-2.91-1.46-3.73s-1.99-1.23-3.36-1.23Z"/>
      <path class="cls-5" d="m642.91,368.48v-16.17h2.26l.23,2.76h.13c.84-.91,1.75-1.66,2.73-2.26.98-.6,2.1-.9,3.36-.9,1.91,0,3.32.55,4.23,1.66.91,1.11,1.36,2.73,1.36,4.86v10.05h-2.73v-9.68c0-1.53-.29-2.67-.87-3.41-.58-.74-1.53-1.11-2.86-1.11-.95,0-1.81.24-2.56.73-.75.49-1.61,1.22-2.56,2.2v11.28h-2.73Z"/>
      <path class="cls-5" d="m669.63,375.93c-2.35,0-4.18-.39-5.49-1.18-1.31-.79-1.96-1.89-1.96-3.31s.89-2.57,2.66-3.59v-.13c-.42-.24-.8-.58-1.15-1s-.52-.98-.52-1.66c0-.51.17-1.04.5-1.58.33-.54.81-1.03,1.43-1.45v-.13c-.56-.42-1.03-.99-1.42-1.7-.39-.71-.58-1.54-.58-2.5,0-1.18.29-2.2.88-3.06s1.36-1.54,2.33-2.01c.97-.48,2.01-.72,3.15-.72.91,0,1.71.13,2.4.4h6.69v2.23h-4.19c.38.38.7.85.97,1.43.27.58.4,1.19.4,1.83,0,1.15-.28,2.15-.83,2.98-.55.83-1.3,1.47-2.25,1.91s-2,.67-3.18.67c-.42,0-.87-.05-1.35-.15-.48-.1-.94-.25-1.38-.45-.4.24-.71.52-.93.83-.22.31-.33.65-.33,1.03,0,.62.29,1.09.88,1.4.59.31,1.41.47,2.48.47h3.63c2.08,0,3.63.29,4.64.87,1.01.58,1.51,1.55,1.51,2.93,0,1-.37,1.93-1.1,2.8s-1.77,1.56-3.11,2.08c-1.34.52-2.93.78-4.78.78Zm.2-2c1.88,0,3.37-.33,4.46-1s1.63-1.41,1.63-2.23c0-.78-.3-1.3-.92-1.56s-1.54-.4-2.78-.4h-3.16c-.47,0-.9-.02-1.31-.07-.41-.04-.79-.11-1.15-.2-.75.42-1.29.86-1.6,1.31-.31.45-.47.92-.47,1.38,0,.84.45,1.51,1.35,2.01.9.5,2.21.75,3.94.75Zm-.37-12.41c1.04,0,1.92-.35,2.65-1.05.72-.7,1.08-1.62,1.08-2.78s-.36-2.05-1.08-2.75-1.6-1.05-2.65-1.05-1.9.35-2.63,1.05c-.73.7-1.1,1.61-1.1,2.75s.37,2.08,1.1,2.78c.73.7,1.61,1.05,2.63,1.05Z"/>
      <path class="cls-5" d="m692.86,368.88c-1.58,0-2.82-.28-3.73-.85-.91-.57-1.56-1.35-1.95-2.35-.39-1-.58-2.16-.58-3.49v-7.65h-4.56v-2.06l4.66-.17.37-5.19h2.26v5.19h7.95v2.23h-7.95v7.69c0,1.44.29,2.54.88,3.29.59.75,1.66,1.13,3.21,1.13.78,0,1.48-.07,2.1-.2.62-.13,1.22-.31,1.8-.53l.6,2c-.73.27-1.5.49-2.31.68-.81.19-1.72.28-2.75.28Z"/>
      <path class="cls-5" d="m702.81,368.48v-23.7h2.73v6.46l-.17,3.83h.1c.84-.91,1.75-1.66,2.71-2.26s2.08-.9,3.34-.9c1.91,0,3.32.55,4.23,1.66.91,1.11,1.36,2.73,1.36,4.86v10.05h-2.73v-9.68c0-1.53-.29-2.67-.87-3.41-.58-.74-1.53-1.11-2.86-1.11-.95,0-1.81.24-2.56.73-.75.49-1.61,1.22-2.56,2.2v11.28h-2.73Z"/>
      <path class="cls-5" d="m725.24,374.33l-1.5-1.4c2.24-1.89,3.89-3.94,4.94-6.17,1.05-2.23,1.58-4.74,1.58-7.54s-.53-5.31-1.58-7.54c-1.05-2.23-2.7-4.29-4.94-6.17l1.5-1.4c2.31,1.8,4.13,3.96,5.47,6.49,1.34,2.53,2.01,5.4,2.01,8.62s-.67,6.09-2.01,8.62c-1.34,2.53-3.17,4.69-5.47,6.49Z"/>
    </g>
    <g>
      <path class="cls-5" d="m552.22,534.2v-5.86h-10.95v-1.83l10.62-13.54h2.93v13.18h3.29v2.2h-3.29v5.86h-2.6Zm-7.92-8.05h7.92v-6.59c.02-.58.05-1.2.08-1.88s.06-1.3.08-1.88h-.17c-.33.51-.69,1.03-1.07,1.55-.38.52-.74,1.04-1.1,1.55l-5.76,7.25Z"/>
      <path class="cls-5" d="m562.37,534.2v-1.63c2.4-2.13,4.43-3.99,6.09-5.59s2.92-3.04,3.78-4.33c.85-1.29,1.28-2.52,1.28-3.69s-.38-2.22-1.13-3-1.92-1.17-3.49-1.17c-1,0-1.92.25-2.78.75-.85.5-1.63,1.1-2.31,1.81l-1.56-1.56c.95-.98,1.99-1.76,3.1-2.35,1.11-.59,2.41-.88,3.89-.88,2.13,0,3.82.57,5.06,1.71,1.24,1.14,1.86,2.66,1.86,4.54,0,1.33-.41,2.68-1.23,4.04-.82,1.36-1.97,2.8-3.44,4.29-1.48,1.5-3.18,3.12-5.11,4.88.67-.04,1.34-.09,2.01-.13.68-.04,1.33-.07,1.95-.07h6.99v2.36h-14.94Z"/>
    </g>
    <g>
      <path class="cls-5" d="m543.2,613.81v-2.26h6.12v-15.64h-4.76v-1.76c1.24-.18,2.29-.39,3.14-.65s1.62-.56,2.31-.92h2.03v18.97h5.56v2.26h-14.41Z"/>
      <path class="cls-5" d="m562.37,613.81v-1.63c2.4-2.13,4.43-3.99,6.09-5.59s2.92-3.04,3.78-4.33c.85-1.29,1.28-2.52,1.28-3.69s-.38-2.22-1.13-3-1.92-1.17-3.49-1.17c-1,0-1.92.25-2.78.75-.85.5-1.63,1.1-2.31,1.81l-1.56-1.56c.95-.98,1.99-1.76,3.1-2.35,1.11-.59,2.41-.88,3.89-.88,2.13,0,3.82.57,5.06,1.71,1.24,1.14,1.86,2.66,1.86,4.54,0,1.33-.41,2.68-1.23,4.04-.82,1.36-1.97,2.8-3.44,4.29-1.48,1.5-3.18,3.12-5.11,4.88.67-.04,1.34-.09,2.01-.13.68-.04,1.33-.07,1.95-.07h6.99v2.36h-14.94Z"/>
      <path class="cls-5" d="m589.46,614.21c-1.82,0-3.36-.31-4.61-.92-1.25-.61-2.27-1.3-3.05-2.08l1.4-1.8c.71.67,1.56,1.25,2.56,1.76,1,.51,2.17.77,3.53.77,1.44,0,2.65-.36,3.63-1.07.98-.71,1.46-1.65,1.46-2.83,0-1.26-.59-2.28-1.76-3.06-1.18-.78-3.16-1.17-5.96-1.17v-2.1c2.51,0,4.29-.38,5.36-1.15,1.06-.77,1.6-1.7,1.6-2.81,0-1.04-.39-1.86-1.18-2.46-.79-.6-1.84-.9-3.15-.9-1,0-1.94.2-2.83.6-.89.4-1.69.92-2.4,1.56l-1.46-1.73c.89-.78,1.9-1.41,3.05-1.91,1.14-.5,2.39-.75,3.74-.75s2.52.21,3.58.63c1.05.42,1.89,1.03,2.51,1.83.62.8.93,1.78.93,2.93,0,1.29-.43,2.34-1.28,3.16-.85.82-1.94,1.45-3.25,1.9v.13c.95.2,1.83.54,2.61,1.01.79.48,1.43,1.08,1.91,1.81.49.73.73,1.59.73,2.56,0,1.24-.35,2.32-1.05,3.23-.7.91-1.62,1.61-2.78,2.1-1.15.49-2.44.73-3.86.73Z"/>
    </g>
    <g>
      <path class="cls-5" d="m543.2,452.71v-2.26h6.12v-15.64h-4.76v-1.76c1.24-.18,2.29-.39,3.14-.65s1.62-.56,2.31-.92h2.03v18.97h5.56v2.26h-14.41Z"/>
      <path class="cls-5" d="m569.93,453.11c-2.35,0-4.21-.96-5.58-2.9-1.36-1.93-2.05-4.66-2.05-8.19s.68-6.29,2.05-8.15c1.37-1.86,3.22-2.8,5.58-2.8s4.24.93,5.59,2.8c1.35,1.86,2.03,4.58,2.03,8.15s-.68,6.26-2.03,8.19c-1.35,1.93-3.22,2.9-5.59,2.9Zm0-2.2c1.49,0,2.7-.72,3.64-2.16s1.41-3.68,1.41-6.72-.47-5.29-1.41-6.67-2.16-2.08-3.64-2.08-2.7.69-3.64,2.08c-.94,1.39-1.41,3.61-1.41,6.67s.47,5.28,1.41,6.72c.94,1.44,2.16,2.16,3.64,2.16Zm0-6.89c-.56,0-1.04-.2-1.45-.6-.41-.4-.62-.94-.62-1.63s.2-1.23.62-1.61c.41-.39.89-.58,1.45-.58s1.04.19,1.45.58c.41.39.62.93.62,1.61s-.21,1.23-.62,1.63c-.41.4-.89.6-1.45.6Z"/>
    </g>
  </g>
  <g>
    <line class="cls-2" x1="982.97" y1="359.78" x2="1182.82" y2="359.78"/>
    <path class="cls-6" d="m967.29,361.76l22.58,13.04c1.52.88,3.43-.22,3.43-1.98v-26.07c0-1.76-1.91-2.86-3.43-1.98l-22.58,13.04c-1.52.88-1.52,3.08,0,3.96Z"/>
  </g>
</svg>