<?xml version="1.0" encoding="UTF-8"?>
<svg width="2000px" height="401px" viewBox="0 0 2000 401" version="1.1" xmlns="http://www.w3.org/2000/svg" xmlns:xlink="http://www.w3.org/1999/xlink">
    <!-- Generator: Sketch 52.6 (67491) - http://www.bohemiancoding.com/sketch -->
    <title>Artboard</title>
    <desc>Created with Sketch.</desc>
    <g id="Artboard" stroke="none" stroke-width="1" fill="none" fill-rule="evenodd">
        <g id="1" transform="translate(20.000000, 14.000000)" fill="#FFFFFF" fill-rule="nonzero">
            <circle id="Oval" fill-opacity="0.75" cx="97.5" cy="53.5" r="2.5"></circle>
            <circle id="Oval" fill-opacity="0.85" cx="293.5" cy="84.5" r="1.5"></circle>
            <circle id="Oval" fill-opacity="0.85" cx="485.5" cy="108.5" r="1.5"></circle>
            <circle id="Oval" fill-opacity="0.85" cx="30.5" cy="354.5" r="1.5"></circle>
            <circle id="Oval" fill-opacity="0.85" cx="786.5" cy="313.5" r="1.5"></circle>
            <circle id="Oval" fill-opacity="0.85" cx="910.5" cy="83.5" r="1.5"></circle>
            <circle id="Oval" fill-opacity="0.85" cx="1081.5" cy="43.5" r="1.5"></circle>
            <circle id="Oval" fill-opacity="0.85" cx="1237.5" cy="154.5" r="1"></circle>
            <circle id="Oval" fill-opacity="0.85" cx="1006.5" cy="125.5" r="1"></circle>
            <circle id="Oval" fill-opacity="0.85" cx="945.5" cy="228.5" r="1"></circle>
            <circle id="Oval" fill-opacity="0.85" cx="1529.5" cy="37.5" r="1"></circle>
            <circle id="Oval" fill-opacity="0.85" cx="1594.5" cy="256.5" r="1"></circle>
            <circle id="Oval" fill-opacity="0.85" cx="1426.5" cy="182.5" r="1"></circle>
            <circle id="Oval" fill-opacity="0.85" cx="1140.5" cy="327.5" r="1"></circle>
            <circle id="Oval" fill-opacity="0.85" cx="1177.5" cy="291.5" r="1"></circle>
            <circle id="Oval" fill-opacity="0.85" cx="1125.5" cy="292.5" r="1"></circle>
            <circle id="Oval" fill-opacity="0.85" cx="868.5" cy="25.5" r="1"></circle>
            <circle id="Oval" fill-opacity="0.85" cx="1037.5" cy="1.5" r="1"></circle>
            <circle id="Oval" fill-opacity="0.85" cx="1375.5" cy="337.5" r="1"></circle>
            <circle id="Oval" fill-opacity="0.85" cx="1345.5" cy="14.5" r="1"></circle>
            <circle id="Oval" fill-opacity="0.85" cx="1294.5" cy="0.5" r="1"></circle>
            <circle id="Oval" fill-opacity="0.85" cx="1316.5" cy="244.5" r="1"></circle>
            <circle id="Oval" fill-opacity="0.85" cx="891.5" cy="315.5" r="1"></circle>
            <circle id="Oval" fill-opacity="0.85" cx="1611.5" cy="13.5" r="1"></circle>
            <circle id="Oval" fill-opacity="0.85" cx="1806.5" cy="112.5" r="1"></circle>
            <circle id="Oval" fill-opacity="0.85" cx="1843.5" cy="76.5" r="1"></circle>
            <circle id="Oval" fill-opacity="0.85" cx="1791.5" cy="77.5" r="1"></circle>
            <circle id="Oval" fill-opacity="0.85" cx="1557.5" cy="100.5" r="1"></circle>
            <circle id="Oval" fill-opacity="0.85" cx="1599.5" cy="208.5" r="1"></circle>
            <circle id="Oval" fill-opacity="0.85" cx="1794.5" cy="307.5" r="1"></circle>
            <circle id="Oval" fill-opacity="0.85" cx="1831.5" cy="271.5" r="1"></circle>
            <circle id="Oval" fill-opacity="0.85" cx="1779.5" cy="272.5" r="1"></circle>
            <circle id="Oval" fill-opacity="0.85" cx="1545.5" cy="295.5" r="1"></circle>
            <circle id="Oval" fill-opacity="0.85" cx="887.5" cy="58.5" r="1"></circle>
            <circle id="Oval" fill-opacity="0.85" cx="1082.5" cy="157.5" r="1"></circle>
            <circle id="Oval" fill-opacity="0.85" cx="1119.5" cy="121.5" r="1"></circle>
            <circle id="Oval" fill-opacity="0.85" cx="1067.5" cy="122.5" r="1"></circle>
            <circle id="Oval" fill-opacity="0.85" cx="833.5" cy="145.5" r="1"></circle>
            <circle id="Oval" fill-opacity="0.85" cx="483.5" cy="250.5" r="1"></circle>
            <circle id="Oval" fill-opacity="0.85" cx="678.5" cy="349.5" r="1"></circle>
            <circle id="Oval" fill-opacity="0.85" cx="715.5" cy="313.5" r="1"></circle>
            <circle id="Oval" fill-opacity="0.85" cx="663.5" cy="314.5" r="1"></circle>
            <circle id="Oval" fill-opacity="0.85" cx="429.5" cy="337.5" r="1"></circle>
            <circle id="Oval" fill-opacity="0.85" cx="410.5" cy="11.5" r="1"></circle>
            <circle id="Oval" fill-opacity="0.85" cx="605.5" cy="110.5" r="1"></circle>
            <circle id="Oval" fill-opacity="0.85" cx="642.5" cy="74.5" r="1"></circle>
            <circle id="Oval" fill-opacity="0.85" cx="590.5" cy="75.5" r="1"></circle>
            <circle id="Oval" fill-opacity="0.85" cx="356.5" cy="98.5" r="1"></circle>
            <circle id="Oval" fill-opacity="0.85" cx="54.5" cy="113.5" r="1"></circle>
            <circle id="Oval" fill-opacity="0.85" cx="249.5" cy="212.5" r="1"></circle>
            <circle id="Oval" fill-opacity="0.85" cx="214.5" cy="130.5" r="1"></circle>
            <circle id="Oval" fill-opacity="0.85" cx="162.5" cy="131.5" r="1"></circle>
            <circle id="Oval" fill-opacity="0.85" cx="267.5" cy="339.5" r="1"></circle>
            <circle id="Oval" fill-opacity="0.85" cx="162.5" cy="315.5" r="1"></circle>
            <circle id="Oval" fill-opacity="0.85" cx="446.5" cy="174.5" r="1"></circle>
            <circle id="Oval" fill-opacity="0.85" cx="595.5" cy="181.5" r="1"></circle>
            <circle id="Oval" fill-opacity="0.85" cx="749.5" cy="164.5" r="1"></circle>
            <circle id="Oval" fill-opacity="0.85" cx="1458.5" cy="343.5" r="1.5"></circle>
            <circle id="Oval" fill-opacity="0.85" cx="1087.5" cy="229.5" r="1.5"></circle>
            <circle id="Oval" fill-opacity="0.85" cx="1428.5" cy="92.5" r="1.5"></circle>
            <circle id="Oval" fill-opacity="0.85" cx="558.5" cy="29.5" r="1.5"></circle>
            <circle id="Oval" fill-opacity="0.85" cx="1663.5" cy="149.5" r="1.5"></circle>
            <circle id="Oval" fill-opacity="0.85" cx="1624.5" cy="57.5" r="1.5"></circle>
            <circle id="Oval" fill-opacity="0.85" cx="1808.5" cy="337.5" r="1.5"></circle>
            <circle id="Oval" fill-opacity="0.75" cx="704.5" cy="156.5" r="2.5"></circle>
            <circle id="Oval" fill-opacity="0.75" cx="289.5" cy="266.5" r="2.5"></circle>
            <circle id="Oval" fill-opacity="0.75" cx="1860.5" cy="25.5" r="2.5"></circle>
            <circle id="Oval" fill-opacity="0.75" cx="1909.5" cy="361.5" r="2.5"></circle>
            <circle id="Oval" fill-opacity="0.75" cx="1156.5" cy="69.5" r="2.5"></circle>
            <circle id="Oval" fill-opacity="0.75" cx="1292.5" cy="264.5" r="2.5"></circle>
            <circle id="Oval" fill-opacity="0.75" cx="1292.5" cy="264.5" r="2.5"></circle>
            <circle id="Oval" fill-opacity="0.75" cx="97.5" cy="53.5" r="2.5"></circle>
            <circle id="Oval" fill-opacity="0.85" cx="0.5" cy="200.5" r="1"></circle>
        </g>
        <g id="1-copy" transform="translate(966.000000, 196.000000) scale(-1, -1) translate(-966.000000, -196.000000) translate(10.000000, 14.000000)" fill="#FFFFFF" fill-rule="nonzero">
            <circle id="Oval" fill-opacity="0.75" cx="97.5" cy="53.5" r="2.5"></circle>
            <circle id="Oval" fill-opacity="0.85" cx="293.5" cy="84.5" r="1.5"></circle>
            <circle id="Oval" fill-opacity="0.85" cx="485.5" cy="108.5" r="1.5"></circle>
            <circle id="Oval" fill-opacity="0.85" cx="30.5" cy="354.5" r="1.5"></circle>
            <circle id="Oval" fill-opacity="0.85" cx="786.5" cy="313.5" r="1.5"></circle>
            <circle id="Oval" fill-opacity="0.85" cx="910.5" cy="83.5" r="1.5"></circle>
            <circle id="Oval" fill-opacity="0.85" cx="1081.5" cy="43.5" r="1.5"></circle>
            <circle id="Oval" fill-opacity="0.85" cx="1237.5" cy="154.5" r="1"></circle>
            <circle id="Oval" fill-opacity="0.85" cx="1006.5" cy="125.5" r="1"></circle>
            <circle id="Oval" fill-opacity="0.85" cx="945.5" cy="228.5" r="1"></circle>
            <circle id="Oval" fill-opacity="0.85" cx="1529.5" cy="37.5" r="1"></circle>
            <circle id="Oval" fill-opacity="0.85" cx="1594.5" cy="256.5" r="1"></circle>
            <circle id="Oval" fill-opacity="0.85" cx="1426.5" cy="182.5" r="1"></circle>
            <circle id="Oval" fill-opacity="0.85" cx="1140.5" cy="327.5" r="1"></circle>
            <circle id="Oval" fill-opacity="0.85" cx="1177.5" cy="291.5" r="1"></circle>
            <circle id="Oval" fill-opacity="0.85" cx="1125.5" cy="292.5" r="1"></circle>
            <circle id="Oval" fill-opacity="0.85" cx="868.5" cy="25.5" r="1"></circle>
            <circle id="Oval" fill-opacity="0.85" cx="1037.5" cy="1.5" r="1"></circle>
            <circle id="Oval" fill-opacity="0.85" cx="1375.5" cy="337.5" r="1"></circle>
            <circle id="Oval" fill-opacity="0.85" cx="1345.5" cy="14.5" r="1"></circle>
            <circle id="Oval" fill-opacity="0.85" cx="1294.5" cy="0.5" r="1"></circle>
            <circle id="Oval" fill-opacity="0.85" cx="1316.5" cy="244.5" r="1"></circle>
            <circle id="Oval" fill-opacity="0.85" cx="891.5" cy="315.5" r="1"></circle>
            <circle id="Oval" fill-opacity="0.85" cx="1611.5" cy="13.5" r="1"></circle>
            <circle id="Oval" fill-opacity="0.85" cx="1806.5" cy="112.5" r="1"></circle>
            <circle id="Oval" fill-opacity="0.85" cx="1843.5" cy="76.5" r="1"></circle>
            <circle id="Oval" fill-opacity="0.85" cx="1791.5" cy="77.5" r="1"></circle>
            <circle id="Oval" fill-opacity="0.85" cx="1557.5" cy="100.5" r="1"></circle>
            <circle id="Oval" fill-opacity="0.85" cx="1599.5" cy="208.5" r="1"></circle>
            <circle id="Oval" fill-opacity="0.85" cx="1794.5" cy="307.5" r="1"></circle>
            <circle id="Oval" fill-opacity="0.85" cx="1831.5" cy="271.5" r="1"></circle>
            <circle id="Oval" fill-opacity="0.85" cx="1779.5" cy="272.5" r="1"></circle>
            <circle id="Oval" fill-opacity="0.85" cx="1545.5" cy="295.5" r="1"></circle>
            <circle id="Oval" fill-opacity="0.85" cx="887.5" cy="58.5" r="1"></circle>
            <circle id="Oval" fill-opacity="0.85" cx="1082.5" cy="157.5" r="1"></circle>
            <circle id="Oval" fill-opacity="0.85" cx="1119.5" cy="121.5" r="1"></circle>
            <circle id="Oval" fill-opacity="0.85" cx="1067.5" cy="122.5" r="1"></circle>
            <circle id="Oval" fill-opacity="0.85" cx="833.5" cy="145.5" r="1"></circle>
            <circle id="Oval" fill-opacity="0.85" cx="483.5" cy="250.5" r="1"></circle>
            <circle id="Oval" fill-opacity="0.85" cx="678.5" cy="349.5" r="1"></circle>
            <circle id="Oval" fill-opacity="0.85" cx="715.5" cy="313.5" r="1"></circle>
            <circle id="Oval" fill-opacity="0.85" cx="663.5" cy="314.5" r="1"></circle>
            <circle id="Oval" fill-opacity="0.85" cx="429.5" cy="337.5" r="1"></circle>
            <circle id="Oval" fill-opacity="0.85" cx="410.5" cy="11.5" r="1"></circle>
            <circle id="Oval" fill-opacity="0.85" cx="605.5" cy="110.5" r="1"></circle>
            <circle id="Oval" fill-opacity="0.85" cx="642.5" cy="74.5" r="1"></circle>
            <circle id="Oval" fill-opacity="0.85" cx="590.5" cy="75.5" r="1"></circle>
            <circle id="Oval" fill-opacity="0.85" cx="356.5" cy="98.5" r="1"></circle>
            <circle id="Oval" fill-opacity="0.85" cx="54.5" cy="113.5" r="1"></circle>
            <circle id="Oval" fill-opacity="0.85" cx="249.5" cy="212.5" r="1"></circle>
            <circle id="Oval" fill-opacity="0.85" cx="214.5" cy="130.5" r="1"></circle>
            <circle id="Oval" fill-opacity="0.85" cx="162.5" cy="131.5" r="1"></circle>
            <circle id="Oval" fill-opacity="0.85" cx="267.5" cy="339.5" r="1"></circle>
            <circle id="Oval" fill-opacity="0.85" cx="162.5" cy="315.5" r="1"></circle>
            <circle id="Oval" fill-opacity="0.85" cx="446.5" cy="174.5" r="1"></circle>
            <circle id="Oval" fill-opacity="0.85" cx="595.5" cy="181.5" r="1"></circle>
            <circle id="Oval" fill-opacity="0.85" cx="749.5" cy="164.5" r="1"></circle>
            <circle id="Oval" fill-opacity="0.85" cx="1458.5" cy="343.5" r="1.5"></circle>
            <circle id="Oval" fill-opacity="0.85" cx="1087.5" cy="229.5" r="1.5"></circle>
            <circle id="Oval" fill-opacity="0.85" cx="1428.5" cy="92.5" r="1.5"></circle>
            <circle id="Oval" fill-opacity="0.85" cx="558.5" cy="29.5" r="1.5"></circle>
            <circle id="Oval" fill-opacity="0.85" cx="1663.5" cy="149.5" r="1.5"></circle>
            <circle id="Oval" fill-opacity="0.85" cx="1624.5" cy="57.5" r="1.5"></circle>
            <circle id="Oval" fill-opacity="0.85" cx="1808.5" cy="337.5" r="1.5"></circle>
            <circle id="Oval" fill-opacity="0.75" cx="704.5" cy="156.5" r="2.5"></circle>
            <circle id="Oval" fill-opacity="0.75" cx="289.5" cy="266.5" r="2.5"></circle>
            <circle id="Oval" fill-opacity="0.75" cx="1860.5" cy="25.5" r="2.5"></circle>
            <circle id="Oval" fill-opacity="0.75" cx="1909.5" cy="361.5" r="2.5"></circle>
            <circle id="Oval" fill-opacity="0.75" cx="1156.5" cy="69.5" r="2.5"></circle>
            <circle id="Oval" fill-opacity="0.75" cx="1297.5" cy="102.5" r="2.5"></circle>
            <circle id="Oval" fill-opacity="0.75" cx="1506.5" cy="202.5" r="2.5"></circle>
            <circle id="Oval" fill-opacity="0.75" cx="97.5" cy="53.5" r="2.5"></circle>
            <circle id="Oval" fill-opacity="0.85" cx="0.5" cy="200.5" r="1"></circle>
        </g>
    </g>
</svg>