<?xml version="1.0" encoding="utf-8"?>
<!-- Generator: Adobe Illustrator 27.1.1, SVG Export Plug-In . SVG Version: 6.00 Build 0)  -->
<svg version="1.1" id="Layer_1" xmlns="http://www.w3.org/2000/svg" xmlns:xlink="http://www.w3.org/1999/xlink" x="0px" y="0px"
	 viewBox="0 0 1628.3 800.9" style="enable-background:new 0 0 1628.3 800.9;" xml:space="preserve">
<style type="text/css">
	.st0{fill:#242526;}
	.st1{fill:#FFFFFF;}
	.st2{fill:#BC83FB;}
</style>
<g>
	<rect y="0" class="st0" width="1628.3" height="800.9"/>
</g>
<g>
	<path class="st1" d="M386,240.4c-2.4,0-4.2-1-5.6-2.9c-1.4-1.9-2-4.7-2-8.2c0-3.6,0.7-6.3,2-8.2c1.4-1.9,3.2-2.8,5.6-2.8
		s4.2,0.9,5.6,2.8c1.4,1.9,2,4.6,2,8.2c0,3.5-0.7,6.3-2,8.2C390.3,239.4,388.4,240.4,386,240.4z M386,238.2c1.5,0,2.7-0.7,3.6-2.2
		c0.9-1.4,1.4-3.7,1.4-6.7c0-3.1-0.5-5.3-1.4-6.7s-2.2-2.1-3.6-2.1c-1.5,0-2.7,0.7-3.6,2.1c-0.9,1.4-1.4,3.6-1.4,6.7
		c0,3,0.5,5.3,1.4,6.7S384.5,238.2,386,238.2z M386,231.3c-0.6,0-1-0.2-1.4-0.6c-0.4-0.4-0.6-0.9-0.6-1.6c0-0.7,0.2-1.2,0.6-1.6
		c0.4-0.4,0.9-0.6,1.4-0.6c0.6,0,1,0.2,1.4,0.6c0.4,0.4,0.6,0.9,0.6,1.6c0,0.7-0.2,1.2-0.6,1.6C387.1,231.1,386.6,231.3,386,231.3z"
		/>
	<path class="st1" d="M398.1,240l6.2-8.4l-5.7-7.8h3l2.6,3.6c0.3,0.4,0.6,0.9,0.9,1.3c0.3,0.5,0.6,0.9,1,1.4h0.1
		c0.3-0.4,0.6-0.9,0.9-1.4c0.3-0.5,0.6-1,0.9-1.4l2.4-3.5h2.9l-5.8,8l6.2,8.2h-3l-2.8-3.7c-0.3-0.5-0.7-1-1-1.5
		c-0.4-0.5-0.7-1-1.1-1.5h-0.1c-0.3,0.5-0.7,1-1,1.4c-0.3,0.5-0.7,1-1,1.5l-2.6,3.8H398.1z"/>
	<path class="st1" d="M425.9,240.4c-2.4,0-4.2-1-5.6-2.9c-1.4-1.9-2-4.7-2-8.2c0-3.6,0.7-6.3,2-8.2c1.4-1.9,3.2-2.8,5.6-2.8
		s4.2,0.9,5.6,2.8c1.4,1.9,2,4.6,2,8.2c0,3.5-0.7,6.3-2,8.2C430.2,239.4,428.3,240.4,425.9,240.4z M425.9,238.2
		c1.5,0,2.7-0.7,3.6-2.2c0.9-1.4,1.4-3.7,1.4-6.7c0-3.1-0.5-5.3-1.4-6.7s-2.2-2.1-3.6-2.1c-1.5,0-2.7,0.7-3.6,2.1
		c-0.9,1.4-1.4,3.6-1.4,6.7c0,3,0.5,5.3,1.4,6.7C423.2,237.4,424.5,238.2,425.9,238.2z M425.9,231.3c-0.6,0-1-0.2-1.4-0.6
		c-0.4-0.4-0.6-0.9-0.6-1.6c0-0.7,0.2-1.2,0.6-1.6c0.4-0.4,0.9-0.6,1.4-0.6c0.6,0,1,0.2,1.4,0.6c0.4,0.4,0.6,0.9,0.6,1.6
		c0,0.7-0.2,1.2-0.6,1.6C427,231.1,426.5,231.3,425.9,231.3z"/>
	<path class="st1" d="M445.9,240.4c-2.4,0-4.2-1-5.6-2.9c-1.4-1.9-2-4.7-2-8.2c0-3.6,0.7-6.3,2-8.2c1.4-1.9,3.2-2.8,5.6-2.8
		s4.2,0.9,5.6,2.8c1.4,1.9,2,4.6,2,8.2c0,3.5-0.7,6.3-2,8.2C450.2,239.4,448.3,240.4,445.9,240.4z M445.9,238.2
		c1.5,0,2.7-0.7,3.6-2.2c0.9-1.4,1.4-3.7,1.4-6.7c0-3.1-0.5-5.3-1.4-6.7s-2.2-2.1-3.6-2.1c-1.5,0-2.7,0.7-3.6,2.1
		c-0.9,1.4-1.4,3.6-1.4,6.7c0,3,0.5,5.3,1.4,6.7C443.2,237.4,444.4,238.2,445.9,238.2z M445.9,231.3c-0.6,0-1-0.2-1.4-0.6
		c-0.4-0.4-0.6-0.9-0.6-1.6c0-0.7,0.2-1.2,0.6-1.6c0.4-0.4,0.9-0.6,1.4-0.6c0.6,0,1,0.2,1.4,0.6c0.4,0.4,0.6,0.9,0.6,1.6
		c0,0.7-0.2,1.2-0.6,1.6C447,231.1,446.5,231.3,445.9,231.3z"/>
	<path class="st1" d="M465.9,240.4c-2.4,0-4.2-1-5.6-2.9c-1.4-1.9-2-4.7-2-8.2c0-3.6,0.7-6.3,2-8.2c1.4-1.9,3.2-2.8,5.6-2.8
		s4.2,0.9,5.6,2.8c1.4,1.9,2,4.6,2,8.2c0,3.5-0.7,6.3-2,8.2C470.1,239.4,468.3,240.4,465.9,240.4z M465.9,238.2
		c1.5,0,2.7-0.7,3.6-2.2c0.9-1.4,1.4-3.7,1.4-6.7c0-3.1-0.5-5.3-1.4-6.7s-2.2-2.1-3.6-2.1c-1.5,0-2.7,0.7-3.6,2.1
		c-0.9,1.4-1.4,3.6-1.4,6.7c0,3,0.5,5.3,1.4,6.7C463.2,237.4,464.4,238.2,465.9,238.2z M465.9,231.3c-0.6,0-1-0.2-1.4-0.6
		c-0.4-0.4-0.6-0.9-0.6-1.6c0-0.7,0.2-1.2,0.6-1.6c0.4-0.4,0.9-0.6,1.4-0.6c0.6,0,1,0.2,1.4,0.6c0.4,0.4,0.6,0.9,0.6,1.6
		c0,0.7-0.2,1.2-0.6,1.6C466.9,231.1,466.4,231.3,465.9,231.3z"/>
	<path class="st1" d="M485.9,240.4c-2.4,0-4.2-1-5.6-2.9c-1.4-1.9-2-4.7-2-8.2c0-3.6,0.7-6.3,2-8.2c1.4-1.9,3.2-2.8,5.6-2.8
		s4.2,0.9,5.6,2.8c1.4,1.9,2,4.6,2,8.2c0,3.5-0.7,6.3-2,8.2C490.1,239.4,488.2,240.4,485.9,240.4z M485.9,238.2
		c1.5,0,2.7-0.7,3.6-2.2c0.9-1.4,1.4-3.7,1.4-6.7c0-3.1-0.5-5.3-1.4-6.7s-2.2-2.1-3.6-2.1c-1.5,0-2.7,0.7-3.6,2.1
		c-0.9,1.4-1.4,3.6-1.4,6.7c0,3,0.5,5.3,1.4,6.7C483.2,237.4,484.4,238.2,485.9,238.2z M485.9,231.3c-0.6,0-1-0.2-1.4-0.6
		c-0.4-0.4-0.6-0.9-0.6-1.6c0-0.7,0.2-1.2,0.6-1.6c0.4-0.4,0.9-0.6,1.4-0.6c0.6,0,1,0.2,1.4,0.6c0.4,0.4,0.6,0.9,0.6,1.6
		c0,0.7-0.2,1.2-0.6,1.6C486.9,231.1,486.4,231.3,485.9,231.3z"/>
	<path class="st1" d="M505.8,240.4c-2.4,0-4.2-1-5.6-2.9c-1.4-1.9-2-4.7-2-8.2c0-3.6,0.7-6.3,2-8.2c1.4-1.9,3.2-2.8,5.6-2.8
		s4.2,0.9,5.6,2.8c1.4,1.9,2,4.6,2,8.2c0,3.5-0.7,6.3-2,8.2S508.2,240.4,505.8,240.4z M505.8,238.2c1.5,0,2.7-0.7,3.6-2.2
		c0.9-1.4,1.4-3.7,1.4-6.7c0-3.1-0.5-5.3-1.4-6.7s-2.2-2.1-3.6-2.1c-1.5,0-2.7,0.7-3.6,2.1c-0.9,1.4-1.4,3.6-1.4,6.7
		c0,3,0.5,5.3,1.4,6.7C503.1,237.4,504.3,238.2,505.8,238.2z M505.8,231.3c-0.6,0-1-0.2-1.4-0.6c-0.4-0.4-0.6-0.9-0.6-1.6
		c0-0.7,0.2-1.2,0.6-1.6c0.4-0.4,0.9-0.6,1.4-0.6c0.6,0,1,0.2,1.4,0.6c0.4,0.4,0.6,0.9,0.6,1.6c0,0.7-0.2,1.2-0.6,1.6
		C506.9,231.1,506.4,231.3,505.8,231.3z"/>
	<path class="st1" d="M525.8,240.4c-2.4,0-4.2-1-5.6-2.9c-1.4-1.9-2-4.7-2-8.2c0-3.6,0.7-6.3,2-8.2c1.4-1.9,3.2-2.8,5.6-2.8
		c2.4,0,4.2,0.9,5.6,2.8c1.4,1.9,2,4.6,2,8.2c0,3.5-0.7,6.3-2,8.2C530,239.4,528.2,240.4,525.8,240.4z M525.8,238.2
		c1.5,0,2.7-0.7,3.6-2.2c0.9-1.4,1.4-3.7,1.4-6.7c0-3.1-0.5-5.3-1.4-6.7c-0.9-1.4-2.2-2.1-3.6-2.1c-1.5,0-2.7,0.7-3.6,2.1
		c-0.9,1.4-1.4,3.6-1.4,6.7c0,3,0.5,5.3,1.4,6.7C523.1,237.4,524.3,238.2,525.8,238.2z M525.8,231.3c-0.6,0-1-0.2-1.4-0.6
		c-0.4-0.4-0.6-0.9-0.6-1.6c0-0.7,0.2-1.2,0.6-1.6c0.4-0.4,0.9-0.6,1.4-0.6c0.6,0,1,0.2,1.4,0.6c0.4,0.4,0.6,0.9,0.6,1.6
		c0,0.7-0.2,1.2-0.6,1.6C526.8,231.1,526.3,231.3,525.8,231.3z"/>
	<path class="st1" d="M545.8,240.4c-2.4,0-4.2-1-5.6-2.9c-1.4-1.9-2-4.7-2-8.2c0-3.6,0.7-6.3,2-8.2c1.4-1.9,3.2-2.8,5.6-2.8
		c2.4,0,4.2,0.9,5.6,2.8c1.4,1.9,2,4.6,2,8.2c0,3.5-0.7,6.3-2,8.2C550,239.4,548.1,240.4,545.8,240.4z M545.8,238.2
		c1.5,0,2.7-0.7,3.6-2.2c0.9-1.4,1.4-3.7,1.4-6.7c0-3.1-0.5-5.3-1.4-6.7c-0.9-1.4-2.2-2.1-3.6-2.1c-1.5,0-2.7,0.7-3.6,2.1
		c-0.9,1.4-1.4,3.6-1.4,6.7c0,3,0.5,5.3,1.4,6.7C543.1,237.4,544.3,238.2,545.8,238.2z M545.8,231.3c-0.6,0-1-0.2-1.4-0.6
		c-0.4-0.4-0.6-0.9-0.6-1.6c0-0.7,0.2-1.2,0.6-1.6c0.4-0.4,0.9-0.6,1.4-0.6c0.6,0,1,0.2,1.4,0.6c0.4,0.4,0.6,0.9,0.6,1.6
		c0,0.7-0.2,1.2-0.6,1.6C546.8,231.1,546.3,231.3,545.8,231.3z"/>
	<path class="st1" d="M565.7,240.4c-2.4,0-4.2-1-5.6-2.9c-1.4-1.9-2-4.7-2-8.2c0-3.6,0.7-6.3,2-8.2c1.4-1.9,3.2-2.8,5.6-2.8
		c2.4,0,4.2,0.9,5.6,2.8c1.4,1.9,2,4.6,2,8.2c0,3.5-0.7,6.3-2,8.2C570,239.4,568.1,240.4,565.7,240.4z M565.7,238.2
		c1.5,0,2.7-0.7,3.6-2.2c0.9-1.4,1.4-3.7,1.4-6.7c0-3.1-0.5-5.3-1.4-6.7c-0.9-1.4-2.2-2.1-3.6-2.1c-1.5,0-2.7,0.7-3.6,2.1
		c-0.9,1.4-1.4,3.6-1.4,6.7c0,3,0.5,5.3,1.4,6.7C563,237.4,564.2,238.2,565.7,238.2z M565.7,231.3c-0.6,0-1-0.2-1.4-0.6
		c-0.4-0.4-0.6-0.9-0.6-1.6c0-0.7,0.2-1.2,0.6-1.6c0.4-0.4,0.9-0.6,1.4-0.6c0.6,0,1,0.2,1.4,0.6c0.4,0.4,0.6,0.9,0.6,1.6
		c0,0.7-0.2,1.2-0.6,1.6C566.8,231.1,566.3,231.3,565.7,231.3z"/>
</g>
<g>
	<path class="st1" d="M386,586.4c-2.4,0-4.2-1-5.6-2.9c-1.4-1.9-2-4.7-2-8.2c0-3.6,0.7-6.3,2-8.2c1.4-1.9,3.2-2.8,5.6-2.8
		s4.2,0.9,5.6,2.8c1.4,1.9,2,4.6,2,8.2c0,3.5-0.7,6.3-2,8.2C390.3,585.4,388.4,586.4,386,586.4z M386,584.2c1.5,0,2.7-0.7,3.6-2.2
		s1.4-3.7,1.4-6.7c0-3.1-0.5-5.3-1.4-6.7s-2.2-2.1-3.6-2.1c-1.5,0-2.7,0.7-3.6,2.1c-0.9,1.4-1.4,3.6-1.4,6.7c0,3,0.5,5.3,1.4,6.7
		S384.5,584.2,386,584.2z M386,577.3c-0.6,0-1-0.2-1.4-0.6c-0.4-0.4-0.6-0.9-0.6-1.6c0-0.7,0.2-1.2,0.6-1.6c0.4-0.4,0.9-0.6,1.4-0.6
		c0.6,0,1,0.2,1.4,0.6c0.4,0.4,0.6,0.9,0.6,1.6c0,0.7-0.2,1.2-0.6,1.6C387.1,577.1,386.6,577.3,386,577.3z"/>
	<path class="st1" d="M398.1,586l6.2-8.4l-5.7-7.8h3l2.6,3.6c0.3,0.4,0.6,0.9,0.9,1.3c0.3,0.5,0.6,0.9,1,1.4h0.1
		c0.3-0.4,0.6-0.9,0.9-1.4c0.3-0.5,0.6-1,0.9-1.4l2.4-3.5h2.9l-5.8,8l6.2,8.2h-3l-2.8-3.7c-0.3-0.5-0.7-1-1-1.5
		c-0.4-0.5-0.7-1-1.1-1.5h-0.1c-0.3,0.5-0.7,1-1,1.4c-0.3,0.5-0.7,1-1,1.5l-2.6,3.8H398.1z"/>
	<path class="st1" d="M419.2,586v-2.3h6.1v-15.6h-4.8v-1.8c1.2-0.2,2.3-0.4,3.1-0.6c0.9-0.3,1.6-0.6,2.3-0.9h2v19h5.6v2.3h-14.3V586
		z"/>
	<path class="st1" d="M438.4,586v-1.6c2.4-2.1,4.4-4,6.1-5.6s2.9-3,3.8-4.3c0.9-1.3,1.3-2.5,1.3-3.7s-0.4-2.2-1.1-3
		c-0.8-0.8-1.9-1.2-3.5-1.2c-1,0-1.9,0.2-2.8,0.7s-1.6,1.1-2.3,1.8l-1.6-1.6c1-1,2-1.8,3.1-2.3c1.1-0.6,2.4-0.9,3.9-0.9
		c2.1,0,3.8,0.6,5.1,1.7c1.2,1.1,1.9,2.7,1.9,4.5c0,1.3-0.4,2.7-1.2,4c-0.8,1.4-2,2.8-3.4,4.3c-1.5,1.5-3.2,3.1-5.1,4.9
		c0.7,0,1.3-0.1,2-0.1c0.7,0,1.3-0.1,1.9-0.1h7v2.4L438.4,586L438.4,586z"/>
	<path class="st1" d="M465.5,586.4c-1.8,0-3.4-0.3-4.6-0.9c-1.3-0.6-2.3-1.3-3-2.1l1.4-1.8c0.7,0.7,1.6,1.3,2.6,1.8s2.2,0.8,3.5,0.8
		c1.4,0,2.7-0.4,3.6-1.1c1-0.7,1.5-1.7,1.5-2.8c0-1.3-0.6-2.3-1.8-3.1c-1.2-0.8-3.2-1.2-6-1.2v-2.1c2.5,0,4.3-0.4,5.4-1.1
		c1.1-0.8,1.6-1.7,1.6-2.8c0-1-0.4-1.9-1.2-2.5c-0.8-0.6-1.8-0.9-3.1-0.9c-1,0-1.9,0.2-2.8,0.6c-0.9,0.4-1.7,0.9-2.4,1.6l-1.5-1.7
		c0.9-0.8,1.9-1.4,3-1.9s2.4-0.7,3.7-0.7c1.3,0,2.5,0.2,3.6,0.6c1.1,0.4,1.9,1,2.5,1.8s0.9,1.8,0.9,2.9c0,1.3-0.4,2.3-1.3,3.2
		c-0.9,0.8-1.9,1.5-3.2,1.9v0.1c1,0.2,1.8,0.5,2.6,1c0.8,0.5,1.4,1.1,1.9,1.8s0.7,1.6,0.7,2.6c0,1.2-0.3,2.3-1,3.2
		c-0.7,0.9-1.6,1.6-2.8,2.1C468.2,586.1,466.9,586.4,465.5,586.4z"/>
	<path class="st1" d="M488.1,586v-5.9h-10.9v-1.8l10.6-13.5h2.9V578h3.3v2.2h-3.3v5.9h-2.6V586z M480.2,577.9h7.9v-6.6
		c0-0.6,0-1.2,0.1-1.9c0-0.7,0.1-1.3,0.1-1.9h-0.2c-0.3,0.5-0.7,1-1.1,1.5s-0.7,1-1.1,1.5L480.2,577.9z"/>
	<path class="st1" d="M505.4,586.4c-1.9,0-3.4-0.3-4.6-0.9c-1.2-0.6-2.2-1.3-3-2l1.4-1.8c0.7,0.6,1.5,1.2,2.5,1.7
		c0.9,0.5,2.1,0.7,3.5,0.7c1,0,1.9-0.2,2.7-0.6c0.8-0.4,1.5-1,1.9-1.7c0.5-0.7,0.7-1.6,0.7-2.6c0-1.5-0.5-2.6-1.4-3.4
		c-1-0.8-2.2-1.2-3.8-1.2c-0.9,0-1.6,0.1-2.3,0.3c-0.6,0.2-1.3,0.5-2.1,1l-1.5-0.9l0.7-10.2h12v2.4h-9.6l-0.6,6.3
		c0.6-0.3,1.2-0.5,1.8-0.6s1.3-0.2,2.1-0.2c1.4,0,2.6,0.2,3.7,0.7s2,1.2,2.6,2.2c0.7,1,1,2.2,1,3.8c0,1.5-0.4,2.8-1.1,3.9
		c-0.7,1.1-1.7,1.9-2.9,2.4C508,586.1,506.7,586.4,505.4,586.4z"/>
	<path class="st1" d="M526.5,586.4c-1.5,0-2.9-0.4-4.1-1.1c-1.2-0.8-2.2-1.9-2.9-3.4c-0.7-1.5-1.1-3.4-1.1-5.7
		c0-2.1,0.2-3.9,0.7-5.4s1.1-2.7,2-3.7c0.9-1,1.8-1.6,2.8-2.1c1.1-0.4,2.2-0.6,3.3-0.6c1.3,0,2.5,0.2,3.4,0.6c0.9,0.4,1.8,1,2.5,1.6
		l-1.5,1.7c-0.6-0.5-1.2-0.9-1.9-1.2s-1.5-0.4-2.3-0.4c-1.1,0-2.2,0.3-3.1,0.9c-0.9,0.6-1.8,1.5-2.4,2.8c-0.6,1.3-0.9,3.1-1,5.4
		c0.9-0.8,1.8-1.5,2.9-2c1-0.5,2.1-0.7,3.2-0.7c2,0,3.6,0.5,4.8,1.6c1.2,1.1,1.8,2.7,1.8,4.9c0,1.4-0.3,2.5-1,3.6
		c-0.7,1-1.5,1.8-2.6,2.4C528.9,586.1,527.8,586.4,526.5,586.4z M526.5,575c-0.8,0-1.7,0.2-2.7,0.7c-1,0.4-1.9,1.2-2.7,2.2
		c0.2,2,0.8,3.6,1.7,4.7c0.9,1.1,2.2,1.6,3.7,1.6c1.3,0,2.3-0.4,3.2-1.3c0.9-0.9,1.3-2,1.3-3.4s-0.4-2.6-1.2-3.3
		C529,575.4,527.9,575,526.5,575z"/>
	<path class="st1" d="M543.3,586c0.1-2,0.3-3.9,0.6-5.5c0.3-1.6,0.7-3.2,1.3-4.7c0.5-1.5,1.2-2.9,2.1-4.3c0.9-1.4,1.9-2.9,3.1-4.3
		h-12.3v-2.4h15.4v1.7c-1.4,1.6-2.6,3.1-3.5,4.6c-0.9,1.5-1.6,3-2.2,4.5c-0.5,1.5-0.9,3.1-1.2,4.8c-0.3,1.7-0.4,3.6-0.5,5.7
		L543.3,586L543.3,586z"/>
	<path class="st1" d="M565.8,586.4c-1.6,0-3-0.2-4.1-0.7c-1.2-0.5-2.1-1.2-2.7-2.1c-0.6-0.9-0.9-1.9-0.9-3c0-1,0.2-1.8,0.7-2.5
		c0.4-0.7,1-1.3,1.7-1.8s1.4-0.9,2.2-1.3v-0.1c-0.9-0.6-1.6-1.2-2.3-2.1c-0.6-0.8-0.9-1.8-0.9-2.9c0-1.1,0.3-2,0.8-2.9
		c0.6-0.8,1.3-1.5,2.3-1.9s2.1-0.7,3.4-0.7c2.1,0,3.7,0.5,4.9,1.6c1.2,1.1,1.7,2.4,1.7,4.1c0,1-0.3,1.9-0.9,2.8
		c-0.6,0.9-1.4,1.6-2.3,2.2v0.1c0.8,0.4,1.5,0.8,2.1,1.3c0.6,0.5,1.1,1,1.5,1.7c0.4,0.7,0.5,1.5,0.5,2.5s-0.3,2-0.9,2.9
		c-0.6,0.9-1.5,1.5-2.6,2C568.8,586.1,567.4,586.4,565.8,586.4z M565.9,584.3c1.6,0,2.8-0.3,3.6-1c0.9-0.7,1.3-1.6,1.3-2.7
		c0-1-0.3-1.8-0.9-2.3c-0.6-0.5-1.4-1-2.4-1.4s-2.1-0.8-3.4-1.2c-1,0.6-1.9,1.2-2.6,1.9s-1,1.6-1,2.7c0,1.2,0.5,2.1,1.5,2.9
		C562.9,584,564.2,584.3,565.9,584.3z M567.5,574.4c1.8-1.3,2.7-2.7,2.7-4.3c0-1-0.4-1.9-1.1-2.7c-0.7-0.7-1.8-1.1-3.2-1.1
		c-1.2,0-2.1,0.3-2.9,0.9s-1.1,1.5-1.1,2.5c0,0.8,0.2,1.5,0.7,2.1s1.2,1,2,1.4C565.5,573.7,566.4,574.1,567.5,574.4z"/>
</g>
<g>
	<path class="st1" d="M802.7,245c-2.1,0-3.6-0.3-4.6-0.9c-1-0.6-1.5-1.8-1.5-3.5c0-1.2,0-2.3,0.1-3.3s0.2-2,0.2-3.1
		c0-0.4-0.1-0.9-0.4-1.2c-0.3-0.4-0.7-0.7-1.4-1s-1.7-0.4-3-0.4v-1.7c1.3,0,2.3-0.2,3-0.4s1.2-0.6,1.4-1c0.3-0.4,0.4-0.8,0.4-1.2
		c0-1,0-2.1-0.2-3.1c-0.1-1-0.1-2.1-0.1-3.3c0-1.7,0.5-2.9,1.5-3.5s2.6-0.9,4.6-0.9h2v1.6H803c-1.1,0-2,0.1-2.6,0.3s-1,0.5-1.2,1
		c-0.2,0.4-0.3,1-0.3,1.8c0,1,0,1.9,0.1,2.9s0.1,2,0.1,3.1s-0.2,1.9-0.6,2.5c-0.4,0.6-1.2,0.9-2.4,1.1v0.1c1.2,0.2,1.9,0.6,2.4,1.1
		s0.6,1.4,0.6,2.5s0,2.2-0.1,3.1c-0.1,0.9-0.1,1.9-0.1,2.9c0,0.7,0.1,1.3,0.3,1.7s0.6,0.8,1.2,1c0.6,0.2,1.5,0.3,2.6,0.3h1.7v1.6h-2
		V245z"/>
	<path class="st1" d="M876.1,280.3c-1,0-1.9-0.2-2.7-0.5c-0.8-0.4-1.5-0.9-2-1.6s-0.7-1.5-0.7-2.5c0-1.2,0.4-2.2,1.2-3
		s2-1.5,3.8-1.9c1.7-0.5,4-0.8,6.8-1.1c0-0.7-0.2-1.4-0.4-2c-0.3-0.6-0.7-1.1-1.3-1.5s-1.5-0.6-2.5-0.6s-2.1,0.2-3,0.6
		c-1,0.4-1.9,0.8-2.6,1.3l-1.1-1.9c0.8-0.5,1.9-1.1,3.1-1.6c1.3-0.5,2.6-0.8,4-0.8c2.2,0,3.9,0.6,4.9,1.8c1.1,1.2,1.6,2.8,1.6,4.8
		v9.9H883l-0.2-2.2h-0.1c-0.9,0.7-1.9,1.3-3,1.8S877.2,280.3,876.1,280.3z M876.8,278.1c0.9,0,1.8-0.2,2.7-0.6s1.8-1,2.7-1.8v-4.3
		c-2.3,0.2-4.1,0.4-5.4,0.8s-2.3,0.8-2.8,1.4c-0.5,0.5-0.8,1.2-0.8,1.9c0,0.9,0.4,1.6,1.1,2S875.9,278.1,876.8,278.1z"/>
	<path class="st1" d="M897.9,268.4c-0.8,0-1.4-0.3-1.9-0.8s-0.8-1.2-0.8-2s0.3-1.5,0.8-2s1.2-0.8,1.9-0.8c0.8,0,1.4,0.3,1.9,0.8
		s0.8,1.2,0.8,2s-0.3,1.5-0.8,2C899.2,268.1,898.6,268.4,897.9,268.4z M897.9,280.3c-0.8,0-1.4-0.3-1.9-0.8s-0.8-1.2-0.8-2
		s0.3-1.5,0.8-2s1.2-0.8,1.9-0.8c0.8,0,1.4,0.3,1.9,0.8s0.8,1.2,0.8,2s-0.3,1.5-0.8,2S898.6,280.3,897.9,280.3z"/>
	<path class="st1" d="M938.5,280.3c-0.8,0-1.6-0.2-2.5-0.6s-1.7-0.9-2.5-1.6h-0.1l-0.2,1.8H931v-23.7h2.7v6.5l-0.1,3.1h0.1
		c0.7-0.8,1.6-1.4,2.5-1.8c1-0.4,1.9-0.7,2.9-0.7c2.2,0,3.8,0.7,5,2.2s1.7,3.5,1.7,6c0,1.8-0.3,3.4-1,4.7s-1.6,2.3-2.7,3
		C940.9,280,939.7,280.3,938.5,280.3z M938,278c1.4,0,2.6-0.6,3.5-1.7s1.4-2.7,1.4-4.7c0-1.8-0.4-3.2-1.1-4.3
		c-0.7-1.1-1.9-1.6-3.5-1.6c-0.7,0-1.5,0.2-2.3,0.6s-1.6,1-2.5,1.8v8.1c0.8,0.7,1.6,1.2,2.3,1.5C936.8,277.9,937.4,278,938,278z"/>
	<path class="st1" d="M957.8,280.3c-1.4,0-2.7-0.3-3.9-1s-2.2-1.6-2.9-2.9s-1.1-2.8-1.1-4.6c0-1.8,0.4-3.4,1.1-4.6s1.7-2.2,2.9-2.9
		c1.2-0.7,2.5-1,3.9-1s2.7,0.3,3.9,1s2.2,1.6,2.9,2.9s1.1,2.8,1.1,4.6c0,1.8-0.4,3.3-1.1,4.6c-0.7,1.3-1.7,2.2-2.9,2.9
		C960.5,280,959.2,280.3,957.8,280.3z M957.8,278c1.6,0,2.8-0.6,3.7-1.7s1.4-2.6,1.4-4.5s-0.5-3.4-1.4-4.5c-0.9-1.2-2.2-1.7-3.7-1.7
		c-1.6,0-2.8,0.6-3.7,1.7c-0.9,1.2-1.4,2.7-1.4,4.5s0.5,3.3,1.4,4.5S956.2,278,957.8,278z"/>
	<path class="st1" d="M977.7,280.3c-1.4,0-2.7-0.3-3.9-1s-2.2-1.6-2.9-2.9s-1.1-2.8-1.1-4.6c0-1.8,0.4-3.4,1.1-4.6s1.7-2.2,2.9-2.9
		c1.2-0.7,2.5-1,3.9-1s2.7,0.3,3.9,1s2.2,1.6,2.9,2.9s1.1,2.8,1.1,4.6c0,1.8-0.4,3.3-1.1,4.6c-0.7,1.3-1.7,2.2-2.9,2.9
		C980.5,280,979.1,280.3,977.7,280.3z M977.7,278c1.6,0,2.8-0.6,3.7-1.7s1.4-2.6,1.4-4.5s-0.5-3.4-1.4-4.5c-0.9-1.2-2.2-1.7-3.7-1.7
		c-1.6,0-2.8,0.6-3.7,1.7c-0.9,1.2-1.4,2.7-1.4,4.5s0.5,3.3,1.4,4.5S976.2,278,977.7,278z"/>
	<path class="st1" d="M1001.3,280.3c-1.7,0-3-0.5-3.9-1.5s-1.4-2.4-1.4-4.3v-16h-5.8v-2.2h8.5v18.5c0,1.2,0.3,2,0.9,2.6
		c0.6,0.5,1.4,0.8,2.3,0.8s2-0.2,3-0.7l0.7,2c-0.8,0.3-1.4,0.5-2.1,0.7C1002.9,280.2,1002.1,280.3,1001.3,280.3z"/>
	<path class="st1" d="M1015,287l-0.8-1.7c1.4-0.6,2.4-1.4,3.1-2.3c0.7-0.9,1.1-2,1.1-3.3c-0.1,0-0.2,0-0.3,0s-0.2,0-0.3,0
		c-0.7,0-1.3-0.2-1.8-0.6s-0.8-1-0.8-1.9s0.3-1.4,0.8-1.9c0.5-0.4,1.2-0.6,1.9-0.6c1,0,1.7,0.4,2.2,1.1s0.8,1.8,0.8,3.1
		c0,2-0.5,3.6-1.5,4.9C1018.3,285.3,1016.8,286.3,1015,287z"/>
	<path class="st1" d="M878.6,320.2c-0.8,0-1.6-0.2-2.5-0.6s-1.7-0.9-2.5-1.6h-0.1l-0.2,1.8h-2.2v-23.7h2.7v6.5l-0.1,3.1h0.1
		c0.7-0.8,1.6-1.4,2.5-1.8c1-0.4,1.9-0.7,2.9-0.7c2.2,0,3.8,0.7,5,2.2s1.7,3.5,1.7,6c0,1.8-0.3,3.4-1,4.7s-1.6,2.3-2.7,3
		C881,319.9,879.8,320.2,878.6,320.2z M878.1,317.9c1.4,0,2.6-0.6,3.5-1.7s1.4-2.7,1.4-4.7c0-1.8-0.4-3.2-1.1-4.3
		c-0.7-1.1-1.9-1.6-3.5-1.6c-0.7,0-1.5,0.2-2.3,0.6s-1.6,1-2.5,1.8v8.1c0.8,0.7,1.6,1.2,2.3,1.5
		C876.9,317.8,877.5,317.9,878.1,317.9z"/>
	<path class="st1" d="M897.9,308.3c-0.8,0-1.4-0.3-1.9-0.8s-0.8-1.2-0.8-2s0.3-1.5,0.8-2s1.2-0.8,1.9-0.8c0.8,0,1.4,0.3,1.9,0.8
		s0.8,1.2,0.8,2s-0.3,1.5-0.8,2C899.2,308.1,898.6,308.3,897.9,308.3z M897.9,320.2c-0.8,0-1.4-0.3-1.9-0.8s-0.8-1.2-0.8-2
		s0.3-1.5,0.8-2s1.2-0.8,1.9-0.8c0.8,0,1.4,0.3,1.9,0.8s0.8,1.2,0.8,2s-0.3,1.5-0.8,2S898.6,320.2,897.9,320.2z"/>
	<path class="st1" d="M936,320.2c-1.9,0-3.3-0.6-4.3-1.7c-0.9-1.1-1.4-2.7-1.4-4.9v-10.1h2.8v9.7c0,1.5,0.3,2.7,0.8,3.4
		c0.6,0.7,1.5,1.1,2.9,1.1c0.9,0,1.8-0.2,2.5-0.7c0.8-0.5,1.6-1.2,2.5-2.3v-11.2h2.7v16.2h-2.2l-0.2-2.7H942c-0.8,1-1.7,1.7-2.7,2.3
		C938.3,319.9,937.2,320.2,936,320.2z"/>
	<path class="st1" d="M957.3,320.2c-1.8,0-3.4-0.3-4.6-0.9c-1.3-0.6-2.3-1.3-3-2.1l1.4-1.8c0.7,0.7,1.6,1.3,2.6,1.8s2.2,0.8,3.5,0.8
		c1.4,0,2.7-0.4,3.6-1.1c1-0.7,1.5-1.7,1.5-2.8c0-1.3-0.6-2.3-1.8-3.1c-1.2-0.8-3.2-1.2-6-1.2v-2.1c2.5,0,4.3-0.4,5.4-1.1
		c1.1-0.8,1.6-1.7,1.6-2.8c0-1-0.4-1.9-1.2-2.5s-1.8-0.9-3.1-0.9c-1,0-1.9,0.2-2.8,0.6c-0.9,0.4-1.7,0.9-2.4,1.6l-1.5-1.7
		c0.9-0.8,1.9-1.4,3-1.9s2.4-0.7,3.7-0.7s2.5,0.2,3.6,0.6s1.9,1,2.5,1.8s0.9,1.8,0.9,2.9c0,1.3-0.4,2.3-1.3,3.2
		c-0.9,0.8-1.9,1.5-3.2,1.9v0.1c1,0.2,1.8,0.5,2.6,1s1.4,1.1,1.9,1.8c0.5,0.7,0.7,1.6,0.7,2.6c0,1.2-0.3,2.3-1,3.2
		c-0.7,0.9-1.6,1.6-2.8,2.1C960,320,958.7,320.2,957.3,320.2z"/>
	<path class="st1" d="M970.2,319.8v-1.6c2.4-2.1,4.4-4,6.1-5.6c1.7-1.6,2.9-3,3.8-4.3c0.9-1.3,1.3-2.5,1.3-3.7s-0.4-2.2-1.1-3
		c-0.8-0.8-1.9-1.2-3.5-1.2c-1,0-1.9,0.2-2.8,0.7c-0.9,0.5-1.6,1.1-2.3,1.8l-1.6-1.6c1-1,2-1.8,3.1-2.3c1.1-0.6,2.4-0.9,3.9-0.9
		c2.1,0,3.8,0.6,5.1,1.7c1.2,1.1,1.9,2.7,1.9,4.5c0,1.3-0.4,2.7-1.2,4c-0.8,1.4-2,2.8-3.4,4.3s-3.2,3.1-5.1,4.9c0.7,0,1.3-0.1,2-0.1
		s1.3-0.1,1.9-0.1h7v2.4h-15.1V319.8z"/>
	<path class="st1" d="M995,326.9l-0.8-1.7c1.4-0.6,2.4-1.4,3.1-2.3c0.7-0.9,1.1-2,1.1-3.3c-0.1,0-0.2,0-0.3,0s-0.2,0-0.3,0
		c-0.7,0-1.3-0.2-1.8-0.6s-0.8-1-0.8-1.9s0.3-1.4,0.8-1.9c0.5-0.4,1.2-0.6,1.9-0.6c1,0,1.7,0.4,2.2,1.1s0.8,1.8,0.8,3.1
		c0,2-0.5,3.6-1.5,4.9C998.3,325.2,996.9,326.2,995,326.9z"/>
	<path class="st1" d="M879.4,360.2c-1.7,0-3.2-0.3-4.5-1s-2.4-1.6-3.2-2.9s-1.2-2.8-1.2-4.6c0-1.8,0.4-3.4,1.2-4.6
		c0.8-1.3,1.9-2.2,3.3-2.9c1.4-0.7,2.9-1,4.5-1c1.3,0,2.5,0.2,3.4,0.7c1,0.5,1.8,1,2.5,1.7l-1.4,1.8c-0.7-0.6-1.4-1-2.1-1.4
		c-0.7-0.3-1.5-0.5-2.3-0.5c-1.2,0-2.3,0.3-3.3,0.8c-0.9,0.5-1.7,1.3-2.2,2.2s-0.8,2-0.8,3.3c0,1.2,0.3,2.3,0.8,3.2
		c0.5,0.9,1.2,1.7,2.2,2.2s2,0.8,3.3,0.8c1,0,1.9-0.2,2.7-0.6s1.6-0.9,2.2-1.4l1.2,1.8c-0.9,0.8-1.9,1.4-3,1.9
		C881.8,359.9,880.6,360.2,879.4,360.2z"/>
	<path class="st1" d="M897.9,348.3c-0.8,0-1.4-0.3-1.9-0.8s-0.8-1.2-0.8-2s0.3-1.5,0.8-2s1.2-0.8,1.9-0.8c0.8,0,1.4,0.3,1.9,0.8
		s0.8,1.2,0.8,2s-0.3,1.5-0.8,2C899.2,348,898.6,348.3,897.9,348.3z M897.9,360.2c-0.8,0-1.4-0.3-1.9-0.8s-0.8-1.2-0.8-2
		s0.3-1.5,0.8-2s1.2-0.8,1.9-0.8c0.8,0,1.4,0.3,1.9,0.8s0.8,1.2,0.8,2s-0.3,1.5-0.8,2S898.6,360.2,897.9,360.2z"/>
	<path class="st1" d="M936.2,359.8l-7-21.8h2.9l3.5,11.8c0.4,1.3,0.7,2.5,1,3.6s0.7,2.3,1.1,3.6h0.1c0.4-1.3,0.8-2.5,1.1-3.6
		s0.7-2.3,1-3.6l3.5-11.8h2.8l-6.9,21.8H936.2z"/>
	<path class="st1" d="M958.8,360.2c-1.6,0-3.1-0.3-4.4-1c-1.3-0.7-2.4-1.6-3.1-2.9c-0.8-1.3-1.2-2.8-1.2-4.6c0-1.8,0.4-3.3,1.2-4.5
		s1.8-2.2,3-2.9s2.6-1,4-1c2.3,0,4.1,0.7,5.4,2.1s1.9,3.2,1.9,5.5c0,0.3,0,0.6,0,0.9s-0.1,0.5-0.1,0.8h-12.7c0.2,1.8,0.8,3.2,2,4.1
		s2.6,1.4,4.3,1.4c1,0,1.9-0.1,2.6-0.4c0.8-0.3,1.5-0.6,2.3-1.1l1,1.8c-0.8,0.5-1.7,1-2.7,1.4C961.2,360,960.1,360.2,958.8,360.2z
		 M958.4,345.4c-1.3,0-2.5,0.4-3.6,1.3c-1,0.9-1.7,2.1-1.9,3.7h10.3c-0.1-1.7-0.6-2.9-1.5-3.7S959.7,345.4,958.4,345.4z"/>
	<path class="st1" d="M979.3,360.2c-1.7,0-3.2-0.3-4.5-1s-2.4-1.6-3.2-2.9s-1.2-2.8-1.2-4.6c0-1.8,0.4-3.4,1.2-4.6
		c0.8-1.3,1.9-2.2,3.3-2.9c1.4-0.7,2.9-1,4.5-1c1.3,0,2.5,0.2,3.4,0.7c1,0.5,1.8,1,2.5,1.7l-1.4,1.8c-0.7-0.6-1.4-1-2.1-1.4
		c-0.7-0.3-1.5-0.5-2.3-0.5c-1.2,0-2.3,0.3-3.3,0.8c-0.9,0.5-1.7,1.3-2.2,2.2s-0.8,2-0.8,3.3c0,1.2,0.3,2.3,0.8,3.2
		c0.5,0.9,1.2,1.7,2.2,2.2s2,0.8,3.3,0.8c1,0,1.9-0.2,2.7-0.6s1.6-0.9,2.2-1.4l1.2,1.8c-0.9,0.8-1.9,1.4-3,1.9
		C981.6,359.9,980.5,360.2,979.3,360.2z"/>
	<path class="st1" d="M1004.1,358.2l-12.4-8.4v-2.1l12.4-8.4v2.6l-10,6.8v0.1l10,6.8V358.2z"/>
	<path class="st1" d="M1015.9,360.2c-1.9,0-3.3-0.6-4.3-1.7c-0.9-1.1-1.4-2.7-1.4-4.9v-10.1h2.8v9.7c0,1.5,0.3,2.7,0.8,3.4
		c0.6,0.7,1.5,1.1,2.9,1.1c0.9,0,1.8-0.2,2.5-0.7c0.8-0.5,1.6-1.2,2.5-2.3v-11.2h2.7v16.2h-2.2l-0.2-2.8h-0.1
		c-0.8,1-1.7,1.7-2.7,2.3C1018.2,359.9,1017.1,360.2,1015.9,360.2z"/>
	<path class="st1" d="M1037.2,360.2c-1.8,0-3.4-0.3-4.6-0.9c-1.3-0.6-2.3-1.3-3-2.1l1.4-1.8c0.7,0.7,1.6,1.3,2.6,1.8
		s2.2,0.8,3.5,0.8c1.4,0,2.7-0.4,3.6-1.1c1-0.7,1.5-1.7,1.5-2.8c0-1.3-0.6-2.3-1.8-3.1c-1.2-0.8-3.2-1.2-6-1.2v-2.1
		c2.5,0,4.3-0.4,5.4-1.1c1.1-0.8,1.6-1.7,1.6-2.8c0-1-0.4-1.9-1.2-2.5c-0.8-0.6-1.8-0.9-3.1-0.9c-1,0-1.9,0.2-2.8,0.6
		s-1.7,0.9-2.4,1.6l-1.5-1.7c0.9-0.8,1.9-1.4,3-1.9s2.4-0.7,3.7-0.7c1.3,0,2.5,0.2,3.6,0.6s1.9,1,2.5,1.8s0.9,1.8,0.9,2.9
		c0,1.3-0.4,2.3-1.3,3.2c-0.9,0.8-1.9,1.5-3.2,1.9v0.1c1,0.2,1.8,0.5,2.6,1c0.8,0.5,1.4,1.1,1.9,1.8c0.5,0.7,0.7,1.6,0.7,2.6
		c0,1.2-0.3,2.3-1,3.2c-0.7,0.9-1.6,1.6-2.8,2.1C1039.9,359.9,1038.6,360.2,1037.2,360.2z"/>
	<path class="st1" d="M1050,359.8v-1.6c2.4-2.1,4.4-4,6.1-5.6s2.9-3,3.8-4.3c0.9-1.3,1.3-2.5,1.3-3.7s-0.4-2.2-1.1-3
		c-0.8-0.8-1.9-1.2-3.5-1.2c-1,0-1.9,0.2-2.8,0.7s-1.6,1.1-2.3,1.8l-1.6-1.6c1-1,2-1.8,3.1-2.3c1.1-0.6,2.4-0.9,3.9-0.9
		c2.1,0,3.8,0.6,5.1,1.7c1.2,1.1,1.9,2.7,1.9,4.5c0,1.3-0.4,2.7-1.2,4c-0.8,1.4-2,2.8-3.4,4.3s-3.2,3.1-5.1,4.9c0.7,0,1.3-0.1,2-0.1
		c0.7,0,1.3-0.1,1.9-0.1h7v2.4H1050V359.8z"/>
	<path class="st1" d="M1071.1,358.2v-2.6l10-6.8v-0.1l-10-6.8v-2.6l12.4,8.4v2.1L1071.1,358.2z"/>
	<path class="st1" d="M1094.9,366.9l-0.8-1.7c1.4-0.6,2.4-1.4,3.1-2.3s1.1-2,1.1-3.3c-0.1,0-0.2,0-0.3,0s-0.2,0-0.3,0
		c-0.7,0-1.3-0.2-1.8-0.6s-0.8-1-0.8-1.9s0.3-1.4,0.8-1.9c0.5-0.4,1.2-0.6,1.9-0.6c1,0,1.7,0.4,2.2,1.1s0.8,1.8,0.8,3.1
		c0,2-0.5,3.6-1.5,4.9C1098.1,365.2,1096.7,366.2,1094.9,366.9z"/>
	<path class="st1" d="M876.9,400.1c-2.1,0-3.8-0.7-5.1-2.2s-1.9-3.6-1.9-6.2c0-1.8,0.3-3.3,1-4.5c0.7-1.3,1.6-2.3,2.7-2.9
		c1.1-0.7,2.3-1,3.6-1c1,0,1.9,0.2,2.6,0.5c0.8,0.4,1.5,0.9,2.2,1.5h0.1l-0.1-3V376h2.7v23.7h-2.3l-0.2-2.1h-0.1
		c-0.7,0.7-1.5,1.3-2.4,1.8C878.9,399.9,877.9,400.1,876.9,400.1z M877.5,397.8c1.6,0,3.1-0.8,4.6-2.4v-8.1
		c-0.7-0.7-1.4-1.2-2.1-1.5c-0.7-0.3-1.4-0.4-2.1-0.4c-0.9,0-1.8,0.3-2.5,0.8c-0.8,0.5-1.4,1.2-1.8,2.2c-0.5,0.9-0.7,2-0.7,3.2
		c0,1.9,0.4,3.4,1.3,4.5C874.8,397.3,876,397.8,877.5,397.8z"/>
	<path class="st1" d="M897.9,388.2c-0.8,0-1.4-0.3-1.9-0.8s-0.8-1.2-0.8-2s0.3-1.5,0.8-2s1.2-0.8,1.9-0.8c0.8,0,1.4,0.3,1.9,0.8
		s0.8,1.2,0.8,2s-0.3,1.5-0.8,2C899.2,387.9,898.6,388.2,897.9,388.2z M897.9,400.1c-0.8,0-1.4-0.3-1.9-0.8s-0.8-1.2-0.8-2
		s0.3-1.5,0.8-2s1.2-0.8,1.9-0.8c0.8,0,1.4,0.3,1.9,0.8s0.8,1.2,0.8,2s-0.3,1.5-0.8,2S898.6,400.1,897.9,400.1z"/>
	<path class="st1" d="M932.3,399.7v-21.8h2.7v19.5h10.8v2.4h-13.5V399.7z"/>
	<path class="st1" d="M956,400.1c-1,0-1.9-0.2-2.7-0.5c-0.8-0.4-1.5-0.9-2-1.6s-0.7-1.5-0.7-2.5c0-1.2,0.4-2.2,1.2-3s2-1.5,3.8-1.9
		c1.7-0.5,4-0.8,6.8-1.1c0-0.7-0.2-1.4-0.4-2c-0.3-0.6-0.7-1.1-1.3-1.5s-1.5-0.6-2.5-0.6s-2.1,0.2-3,0.6c-1,0.4-1.9,0.8-2.6,1.3
		l-1.1-1.9c0.8-0.5,1.9-1.1,3.1-1.6c1.3-0.5,2.6-0.8,4-0.8c2.2,0,3.9,0.6,4.9,1.8c1.1,1.2,1.6,2.8,1.6,4.8v9.9h-2.2l-0.2-2.2h-0.1
		c-0.9,0.7-1.9,1.3-3,1.8S957.1,400.1,956,400.1z M956.7,397.9c0.9,0,1.8-0.2,2.7-0.6s1.8-1,2.7-1.8v-4.3c-2.3,0.2-4.1,0.4-5.4,0.8
		s-2.3,0.8-2.8,1.4c-0.5,0.5-0.8,1.2-0.8,1.9c0,0.9,0.4,1.6,1.1,2S955.8,397.9,956.7,397.9z"/>
	<path class="st1" d="M970.1,399.7v-1.5l11.1-12.5h-9.9v-2.2h13.8v1.5L974,397.5h11.4v2.2H970.1z"/>
	<path class="st1" d="M992.1,406.7c-0.8,0-1.5-0.1-2.1-0.3l0.6-2.2c0.2,0.1,0.5,0.1,0.7,0.2c0.3,0,0.5,0.1,0.7,0.1
		c1.1,0,2.1-0.3,2.8-1s1.3-1.5,1.7-2.5l0.5-1.2l-7.6-16.2h2.8l4,9c0.3,0.7,0.6,1.5,1,2.3s0.7,1.6,1,2.4h0.1c0.3-0.8,0.6-1.6,0.9-2.4
		c0.3-0.8,0.6-1.6,0.8-2.3l3.5-9h2.6l-7.1,17.5c-0.4,1.1-0.9,2-1.5,2.9c-0.6,0.8-1.3,1.5-2.2,2C994.3,406.4,993.3,406.7,992.1,406.7
		z"/>
	<path class="st1" d="M1024.1,398.1l-12.4-8.4v-2.1l12.4-8.4v2.6l-10,6.8v0.1l10,6.8V398.1z"/>
	<path class="st1" d="M1030,399.7v-21.8h3.4l3.1,9.3l1.1,3.5h0.1l1-3.5l3.1-9.3h3.4v21.8h-2.7v-10.9c0-0.7,0-1.5,0.1-2.5
		s0.1-1.9,0.2-2.9c0.1-0.9,0.1-1.7,0.2-2.3h-0.1l-1.2,4.3l-3.1,8.6h-2l-3.1-8.6l-1.3-4.3h-0.1c0.1,0.6,0.1,1.4,0.2,2.3
		c0.1,0.9,0.1,1.9,0.2,2.9s0.1,1.8,0.1,2.5v10.9H1030z"/>
	<path class="st1" d="M1052,406.7c-0.8,0-1.5-0.1-2.1-0.3l0.6-2.2c0.2,0.1,0.5,0.1,0.7,0.2c0.3,0,0.5,0.1,0.7,0.1
		c1.1,0,2.1-0.3,2.8-1c0.7-0.7,1.3-1.5,1.7-2.5l0.5-1.2l-7.6-16.2h2.8l4,9c0.3,0.7,0.6,1.5,1,2.3s0.7,1.6,1,2.4h0.1
		c0.3-0.8,0.6-1.6,0.9-2.4s0.6-1.6,0.8-2.3l3.5-9h2.6l-7.1,17.5c-0.4,1.1-0.9,2-1.5,2.9c-0.6,0.8-1.3,1.5-2.2,2
		C1054.2,406.4,1053.2,406.7,1052,406.7z"/>
	<path class="st1" d="M1076.2,399.7v-19.5h-7.2v-2.3h17.1v2.3h-7.2v19.5H1076.2z"/>
	<path class="st1" d="M1091.9,406.7c-0.8,0-1.5-0.1-2.1-0.3l0.6-2.2c0.2,0.1,0.5,0.1,0.7,0.2c0.3,0,0.5,0.1,0.7,0.1
		c1.1,0,2.1-0.3,2.8-1c0.7-0.7,1.3-1.5,1.7-2.5l0.5-1.2l-7.6-16.2h2.8l4,9c0.3,0.7,0.6,1.5,1,2.3s0.7,1.6,1,2.4h0.1
		c0.3-0.8,0.6-1.6,0.9-2.4c0.3-0.8,0.6-1.6,0.8-2.3l3.5-9h2.6l-7.1,17.5c-0.4,1.1-0.9,2-1.5,2.9c-0.6,0.8-1.3,1.5-2.2,2
		C1094.2,406.4,1093.1,406.7,1091.9,406.7z"/>
	<path class="st1" d="M1110.6,406.5v-23h2.3l0.2,2.1h0.1c0.8-0.7,1.6-1.3,2.6-1.8s2-0.7,3-0.7c2.2,0,3.8,0.7,5,2.2
		c1.2,1.5,1.7,3.5,1.7,6c0,1.8-0.3,3.4-1,4.7c-0.7,1.3-1.6,2.3-2.7,3s-2.3,1-3.6,1c-0.8,0-1.6-0.2-2.4-0.5c-0.9-0.4-1.7-0.9-2.4-1.5
		h-0.1l0.1,3.1v5.5h-2.8V406.5z M1117.7,397.8c1.4,0,2.6-0.6,3.6-1.7c0.9-1.1,1.4-2.7,1.4-4.7c0-1.8-0.4-3.2-1.1-4.3
		c-0.7-1.1-1.9-1.6-3.5-1.6c-0.7,0-1.5,0.2-2.3,0.6c-0.8,0.4-1.6,1-2.5,1.8v8.1c0.8,0.7,1.6,1.2,2.3,1.5
		C1116.4,397.7,1117.1,397.8,1117.7,397.8z"/>
	<path class="st1" d="M1138.5,400.1c-1.6,0-3.1-0.3-4.4-1s-2.4-1.6-3.1-2.9c-0.8-1.3-1.2-2.8-1.2-4.6c0-1.8,0.4-3.3,1.2-4.5
		c0.8-1.2,1.8-2.2,3-2.9c1.2-0.7,2.6-1,4-1c2.3,0,4.1,0.7,5.4,2.1s1.9,3.2,1.9,5.5c0,0.3,0,0.6,0,0.9s-0.1,0.5-0.1,0.8h-12.7
		c0.2,1.8,0.8,3.2,2,4.1c1.2,0.9,2.6,1.4,4.3,1.4c1,0,1.9-0.1,2.6-0.4c0.8-0.3,1.5-0.6,2.3-1.1l1,1.8c-0.8,0.5-1.7,1-2.7,1.4
		C1140.9,399.9,1139.8,400.1,1138.5,400.1z M1138.1,385.3c-1.3,0-2.5,0.4-3.6,1.3c-1,0.9-1.7,2.1-1.9,3.7h10.3
		c-0.1-1.7-0.6-2.9-1.5-3.7S1139.4,385.3,1138.1,385.3z"/>
	<path class="st1" d="M1151,398.1v-2.6l10-6.8v-0.1l-10-6.8v-2.6l12.4,8.4v2.1L1151,398.1z"/>
	<path class="st1" d="M791.3,444.7v-1.6h1.7c1.1,0,2-0.1,2.6-0.3c0.6-0.2,1-0.5,1.2-1s0.3-1,0.3-1.7c0-1,0-2-0.1-2.9s-0.1-2-0.1-3.1
		s0.2-1.9,0.6-2.5c0.4-0.6,1.2-0.9,2.4-1.1v-0.1c-1.2-0.2-1.9-0.6-2.4-1.1c-0.4-0.6-0.6-1.4-0.6-2.5c0-1,0-2.1,0.1-3.1
		s0.1-2,0.1-2.9c0-0.7-0.1-1.3-0.3-1.8c-0.2-0.4-0.6-0.8-1.2-1s-1.5-0.3-2.6-0.3h-1.7v-1.6h2c2.1,0,3.6,0.3,4.6,0.9s1.5,1.8,1.5,3.5
		c0,1.2,0,2.3-0.1,3.3s-0.2,2.1-0.2,3.1c0,0.4,0.1,0.8,0.4,1.2s0.7,0.7,1.4,1c0.7,0.2,1.7,0.4,3,0.4v1.7c-1.3,0-2.3,0.1-3,0.4
		s-1.2,0.6-1.4,1c-0.3,0.4-0.4,0.8-0.4,1.2c0,1.1,0,2.2,0.2,3.1c0.1,1,0.1,2.1,0.1,3.3c0,1.7-0.5,2.9-1.5,3.5s-2.5,0.9-4.6,0.9h-2
		V444.7z"/>
</g>
<g>
	<path class="st1" d="M790.4,586v-21.8h3.4l3.1,9.3l1.1,3.5h0.1l1-3.5l3.1-9.3h3.4V586h-2.7v-11c0-0.7,0-1.5,0.1-2.5
		s0.1-1.9,0.2-2.9c0.1-0.9,0.1-1.7,0.2-2.3h-0.1l-1.2,4.3l-3.1,8.6h-2l-3.1-8.6l-1.3-4.3h-0.1c0.1,0.6,0.1,1.4,0.2,2.3
		c0.1,0.9,0.1,1.9,0.2,2.9c0.1,1,0.1,1.8,0.1,2.5v11H790.4z"/>
	<path class="st1" d="M812.4,592.9c-0.8,0-1.5-0.1-2.1-0.3l0.6-2.2c0.2,0.1,0.5,0.1,0.7,0.2c0.3,0,0.5,0.1,0.7,0.1
		c1.1,0,2.1-0.3,2.8-1s1.3-1.5,1.7-2.5l0.5-1.2l-7.6-16.2h2.8l4,9c0.3,0.7,0.6,1.5,1,2.3c0.3,0.8,0.7,1.6,1,2.4h0.1
		c0.3-0.8,0.6-1.6,0.9-2.4s0.6-1.6,0.8-2.3l3.5-9h2.6l-7.1,17.5c-0.4,1.1-0.9,2-1.5,2.9c-0.6,0.8-1.3,1.5-2.2,2
		C814.6,592.7,813.6,592.9,812.4,592.9z"/>
	<path class="st1" d="M836.6,586v-19.5h-7.2v-2.3h17.2v2.3h-7.2V586H836.6z"/>
	<path class="st1" d="M852.3,592.9c-0.8,0-1.5-0.1-2.1-0.3l0.6-2.2c0.2,0.1,0.5,0.1,0.7,0.2c0.3,0,0.5,0.1,0.7,0.1
		c1.1,0,2.1-0.3,2.8-1s1.3-1.5,1.7-2.5l0.5-1.2l-7.6-16.2h2.8l4,9c0.3,0.7,0.6,1.5,1,2.3c0.3,0.8,0.7,1.6,1,2.4h0.1
		c0.3-0.8,0.6-1.6,0.9-2.4s0.6-1.6,0.8-2.3l3.5-9h2.6l-7.1,17.5c-0.4,1.1-0.9,2-1.5,2.9c-0.6,0.8-1.3,1.5-2.2,2
		S853.5,592.9,852.3,592.9z"/>
	<path class="st1" d="M871,592.8v-23h2.3l0.2,2.1h0.1c0.8-0.7,1.6-1.3,2.6-1.8s2-0.7,3-0.7c2.2,0,3.8,0.7,5,2.2
		c1.1,1.5,1.7,3.5,1.7,6c0,1.8-0.3,3.4-1,4.7s-1.6,2.3-2.7,3c-1.1,0.7-2.3,1-3.6,1c-0.8,0-1.6-0.2-2.4-0.5c-0.9-0.4-1.7-0.9-2.4-1.5
		h-0.1l0.1,3.1v5.5L871,592.8L871,592.8z M878.1,584.1c1.4,0,2.6-0.6,3.6-1.7s1.4-2.7,1.4-4.7c0-1.8-0.4-3.2-1.1-4.3
		c-0.7-1.1-1.9-1.6-3.5-1.6c-0.7,0-1.5,0.2-2.3,0.6c-0.8,0.4-1.6,1-2.5,1.8v8.1c0.8,0.7,1.6,1.2,2.3,1.5S877.5,584.1,878.1,584.1z"
		/>
	<path class="st1" d="M898.9,586.4c-1.6,0-3.1-0.3-4.4-1c-1.3-0.7-2.4-1.6-3.1-2.9c-0.8-1.3-1.2-2.8-1.2-4.6s0.4-3.3,1.2-4.5
		s1.8-2.2,3-2.9s2.6-1,4-1c2.3,0,4.1,0.7,5.4,2.1s1.9,3.2,1.9,5.5c0,0.3,0,0.6,0,0.9c0,0.3-0.1,0.5-0.1,0.8h-12.7
		c0.2,1.8,0.8,3.2,2,4.1c1.2,0.9,2.6,1.4,4.3,1.4c1,0,1.9-0.1,2.6-0.4c0.8-0.3,1.5-0.6,2.3-1.1l1,1.8c-0.8,0.5-1.7,1-2.7,1.4
		C901.3,586.2,900.2,586.4,898.9,586.4z M898.5,571.6c-1.3,0-2.5,0.4-3.6,1.3c-1,0.9-1.7,2.1-1.9,3.7h10.3c-0.1-1.7-0.6-2.9-1.5-3.7
		C900.9,572,899.8,571.6,898.5,571.6z"/>
</g>
<g>
	<path class="st2" d="M743.2,705.7c-1.1,0-2-0.9-2-2v-617c0-1.1,0.9-2,2-2c1.1,0,2,0.9,2,2v617C745.2,704.8,744.3,705.7,743.2,705.7
		z"/>
</g>
<g>
	<path class="st2" d="M1217.7,176.7h-858c-1.1,0-2-0.9-2-2s0.9-2,2-2h858c1.1,0,2,0.9,2,2S1218.8,176.7,1217.7,176.7z"/>
</g>
<g>
	<path class="st2" d="M991.7,522.7h-632c-1.1,0-2-0.9-2-2s0.9-2,2-2h632c1.1,0,2,0.9,2,2S992.8,522.7,991.7,522.7z"/>
</g>
<g>
	<path class="st1" d="M392.8,143.5c-2.5,0-5-0.4-7.3-1.1c-2.3-0.7-4.2-1.7-5.5-2.8l2.1-4.7c1.3,1,2.9,1.9,4.8,2.6
		c1.9,0.7,3.9,1,5.9,1c1.7,0,3.1-0.2,4.1-0.6c1.1-0.4,1.8-0.9,2.3-1.5s0.7-1.4,0.7-2.2c0-1-0.4-1.8-1.1-2.4
		c-0.7-0.6-1.6-1.1-2.8-1.4c-1.1-0.4-2.4-0.7-3.8-1c-1.4-0.3-2.8-0.7-4.1-1.1c-1.4-0.4-2.6-1-3.8-1.6c-1.1-0.7-2.1-1.6-2.8-2.7
		c-0.7-1.1-1.1-2.5-1.1-4.3s0.5-3.4,1.4-4.9s2.4-2.7,4.3-3.5c1.9-0.9,4.4-1.3,7.4-1.3c2,0,3.9,0.2,5.8,0.7c1.9,0.5,3.6,1.2,5,2.1
		l-1.9,4.7c-1.5-0.9-3-1.5-4.5-1.9c-1.6-0.4-3-0.6-4.5-0.6c-1.7,0-3,0.2-4.1,0.6c-1,0.4-1.8,0.9-2.3,1.6s-0.7,1.4-0.7,2.2
		c0,1,0.3,1.8,1,2.4c0.7,0.6,1.6,1.1,2.8,1.4c1.1,0.3,2.4,0.7,3.8,1c1.4,0.3,2.8,0.7,4.2,1.1s2.6,0.9,3.8,1.6
		c1.2,0.7,2.1,1.5,2.8,2.7c0.7,1.1,1,2.5,1,4.2s-0.5,3.3-1.4,4.8c-0.9,1.5-2.4,2.7-4.4,3.5C398.3,143.1,395.8,143.5,392.8,143.5z"/>
	<path class="st1" d="M408.2,123v-4.7h16.6v4.7H408.2z M420.8,143.4c-2.7,0-4.8-0.7-6.3-2.1c-1.5-1.4-2.2-3.5-2.2-6.3v-22.3h5.8
		v22.2c0,1.2,0.3,2.1,0.9,2.8s1.5,1,2.5,1c1.3,0,2.4-0.3,3.3-1l1.6,4.1c-0.7,0.6-1.5,1-2.5,1.3C422.9,143.2,421.9,143.4,420.8,143.4
		z"/>
	<path class="st1" d="M441.6,143.4c-2.5,0-4.8-0.6-6.8-1.7c-2-1.1-3.6-2.6-4.7-4.5c-1.2-1.9-1.7-4.1-1.7-6.6s0.6-4.7,1.7-6.6
		s2.7-3.4,4.7-4.5s4.3-1.6,6.8-1.6c2.6,0,4.9,0.5,6.9,1.6s3.6,2.6,4.7,4.5c1.1,1.9,1.7,4.1,1.7,6.6s-0.6,4.6-1.7,6.6
		c-1.1,1.9-2.7,3.4-4.7,4.5S444.2,143.4,441.6,143.4z M441.6,138.4c1.4,0,2.7-0.3,3.8-0.9c1.1-0.6,2-1.5,2.6-2.7s1-2.6,1-4.1
		c0-1.6-0.3-3-1-4.2c-0.6-1.2-1.5-2.1-2.6-2.7s-2.4-0.9-3.8-0.9s-2.7,0.3-3.8,0.9s-2,1.5-2.6,2.7c-0.7,1.2-1,2.6-1,4.2
		c0,1.6,0.3,3,1,4.1c0.7,1.2,1.5,2.1,2.6,2.7C438.9,138.1,440.2,138.4,441.6,138.4z"/>
	<path class="st1" d="M460.5,143.1v-24.9h5.5v6.9l-0.7-2c0.7-1.7,1.9-3,3.5-3.8c1.6-0.9,3.6-1.3,6-1.3v5.5c-0.2-0.1-0.5-0.1-0.7-0.1
		c-0.2,0-0.4,0-0.7,0c-2.2,0-4,0.6-5.3,1.9c-1.3,1.3-2,3.2-2,5.8v12.1h-5.6V143.1z"/>
	<path class="st1" d="M485.6,143.4c-1.9,0-3.5-0.3-4.9-1s-2.5-1.5-3.2-2.7c-0.8-1.1-1.1-2.4-1.1-3.8c0-1.4,0.3-2.7,1-3.8
		c0.7-1.1,1.8-2,3.3-2.7s3.5-1,6.1-1h7.2v3.9h-6.8c-2,0-3.3,0.3-4,1c-0.7,0.6-1,1.4-1,2.4c0,1.1,0.4,1.9,1.3,2.5
		c0.8,0.6,2,0.9,3.5,0.9c1.4,0,2.7-0.3,3.8-1s2-1.6,2.4-2.9l1,3.5c-0.6,1.5-1.6,2.6-3,3.4C489.6,143,487.8,143.4,485.6,143.4z
		 M493.4,143.1v-5l-0.3-1.1v-8.8c0-1.7-0.5-3-1.5-4c-1-0.9-2.6-1.4-4.7-1.4c-1.4,0-2.8,0.2-4.1,0.7c-1.4,0.4-2.5,1-3.4,1.8l-2.3-4.2
		c1.3-1,2.9-1.8,4.8-2.3c1.8-0.5,3.8-0.8,5.8-0.8c3.6,0,6.4,0.9,8.4,2.6s3,4.4,3,8v14.6L493.4,143.1L493.4,143.1z"/>
	<path class="st1" d="M516.9,141.9c-2.4,0-4.5-0.5-6.4-1.5s-3.4-2.4-4.5-4.2s-1.7-3.9-1.7-6.3c0-2.4,0.6-4.5,1.7-6.3
		c1.1-1.8,2.6-3.2,4.5-4.2s4-1.5,6.4-1.5c2.1,0,4,0.4,5.7,1.3c1.7,0.8,3,2.1,4,3.9s1.5,4,1.5,6.8c0,2.8-0.5,5-1.5,6.8s-2.4,3.1-4,4
		C520.9,141.5,519,141.9,516.9,141.9z M517.7,152.4c-2.3,0-4.5-0.3-6.7-0.9c-2.2-0.6-4-1.5-5.4-2.6l2.6-4.4c1.1,0.9,2.5,1.6,4.1,2.2
		c1.7,0.5,3.3,0.8,5.1,0.8c2.7,0,4.7-0.6,6-1.9c1.3-1.3,1.9-3.1,1.9-5.7v-4.4l0.5-5.6l-0.2-5.6v-6.1h5.5v21.1c0,4.5-1.2,7.8-3.5,10
		C525.4,151.4,522,152.4,517.7,152.4z M517.8,137c1.5,0,2.8-0.3,3.9-0.9c1.1-0.6,2-1.4,2.7-2.5c0.6-1.1,1-2.3,1-3.7s-0.3-2.6-1-3.7
		c-0.6-1.1-1.5-1.9-2.7-2.5s-2.5-0.9-3.9-0.9c-1.5,0-2.8,0.3-3.9,0.9c-1.2,0.6-2.1,1.4-2.7,2.5c-0.6,1.1-1,2.3-1,3.7s0.3,2.6,1,3.7
		c0.6,1.1,1.5,1.9,2.7,2.5C515,136.7,516.4,137,517.8,137z"/>
	<path class="st1" d="M550.5,143.4c-2.8,0-5.2-0.6-7.3-1.7c-2.1-1.1-3.7-2.6-4.8-4.5c-1.1-1.9-1.7-4.1-1.7-6.6s0.6-4.7,1.7-6.6
		c1.1-1.9,2.6-3.4,4.6-4.5c1.9-1.1,4.2-1.6,6.6-1.6c2.4,0,4.6,0.5,6.5,1.6c1.9,1.1,3.4,2.5,4.5,4.5c1.1,1.9,1.6,4.2,1.6,6.8
		c0,0.2,0,0.5,0,0.8s0,0.6-0.1,0.9h-20.7v-3.9h17.7l-2.3,1.2c0-1.4-0.3-2.7-0.9-3.8c-0.6-1.1-1.5-1.9-2.5-2.6
		c-1.1-0.6-2.3-0.9-3.7-0.9c-1.4,0-2.7,0.3-3.8,0.9s-1.9,1.5-2.5,2.6c-0.6,1.1-0.9,2.4-0.9,3.9v0.9c0,1.5,0.3,2.8,1,4s1.6,2,2.9,2.7
		c1.2,0.6,2.7,0.9,4.3,0.9c1.4,0,2.7-0.2,3.8-0.7c1.1-0.4,2.1-1.1,3-2.1l3.1,3.6c-1.1,1.3-2.5,2.3-4.2,3
		C554.6,143,552.6,143.4,550.5,143.4z"/>
	<path class="st1" d="M596.3,143.5c-2.5,0-4.8-0.4-6.9-1.2c-2.1-0.8-4-2-5.5-3.5c-1.6-1.5-2.8-3.3-3.7-5.3c-0.9-2.1-1.3-4.3-1.3-6.7
		c0-2.4,0.4-4.7,1.3-6.7c0.9-2.1,2.1-3.8,3.7-5.3c1.6-1.5,3.4-2.7,5.5-3.5c2.1-0.8,4.4-1.2,6.9-1.2c2.7,0,5.1,0.5,7.3,1.4
		s4.1,2.3,5.6,4.1l-3.9,3.7c-1.2-1.3-2.5-2.2-4-2.9c-1.5-0.6-3-1-4.8-1c-1.7,0-3.3,0.3-4.7,0.8c-1.4,0.6-2.6,1.4-3.7,2.4
		c-1,1-1.8,2.2-2.4,3.6c-0.6,1.4-0.9,2.9-0.9,4.6s0.3,3.2,0.9,4.6c0.6,1.4,1.4,2.6,2.4,3.6s2.3,1.8,3.7,2.4c1.4,0.6,3,0.8,4.7,0.8
		s3.3-0.3,4.8-1c1.5-0.6,2.8-1.6,4-2.9l3.9,3.7c-1.5,1.8-3.4,3.1-5.6,4.1C601.5,143.1,599,143.5,596.3,143.5z"/>
	<path class="st1" d="M625.3,143.4c-2.8,0-5.2-0.6-7.3-1.7c-2.1-1.1-3.7-2.6-4.8-4.5c-1.1-1.9-1.7-4.1-1.7-6.6s0.6-4.7,1.7-6.6
		c1.1-1.9,2.6-3.4,4.6-4.5c1.9-1.1,4.2-1.6,6.6-1.6c2.4,0,4.6,0.5,6.5,1.6c1.9,1.1,3.4,2.5,4.5,4.5c1.1,1.9,1.6,4.2,1.6,6.8
		c0,0.2,0,0.5,0,0.8s0,0.6-0.1,0.9h-20.7v-3.9h17.7l-2.3,1.2c0-1.4-0.3-2.7-0.9-3.8c-0.6-1.1-1.5-1.9-2.5-2.6
		c-1.1-0.6-2.3-0.9-3.7-0.9c-1.4,0-2.7,0.3-3.8,0.9s-1.9,1.5-2.5,2.6c-0.6,1.1-0.9,2.4-0.9,3.9v0.9c0,1.5,0.3,2.8,1,4s1.6,2,2.9,2.7
		c1.2,0.6,2.7,0.9,4.3,0.9c1.4,0,2.7-0.2,3.8-0.7c1.1-0.4,2.1-1.1,3-2.1l3.1,3.6c-1.1,1.3-2.5,2.3-4.2,3
		C629.4,143,627.5,143.4,625.3,143.4z"/>
	<path class="st1" d="M642.6,143.1v-34.6h5.8v34.6H642.6z"/>
	<path class="st1" d="M656.1,143.1v-34.6h5.8v34.6H656.1z"/>
</g>
<g>
	<path class="st2" d="M1094.6,547.5v-24.3h4v4.2l-0.1,4.7l0.3,4.7v10.6L1094.6,547.5L1094.6,547.5z M1104.5,541.3
		c-1.4,0-2.8-0.3-4-1c-1.2-0.7-2.1-1.7-2.8-3c-0.7-1.3-1.1-3.1-1.1-5.1c0-2.1,0.3-3.8,1-5.1c0.7-1.3,1.6-2.3,2.8-3
		c1.2-0.7,2.5-1,4-1c1.8,0,3.3,0.4,4.7,1.1c1.3,0.8,2.4,1.8,3.2,3.2c0.8,1.4,1.2,3,1.2,4.8s-0.4,3.5-1.2,4.8
		c-0.8,1.4-1.9,2.4-3.2,3.2C1107.8,540.9,1106.3,541.3,1104.5,541.3z M1104,537.7c1,0,1.9-0.2,2.7-0.7c0.8-0.4,1.4-1.1,1.9-1.9
		s0.7-1.8,0.7-3s-0.2-2.2-0.7-3s-1.1-1.5-1.9-1.9c-0.8-0.4-1.7-0.7-2.7-0.7s-1.9,0.2-2.7,0.7c-0.8,0.4-1.4,1.1-1.9,1.9
		c-0.5,0.8-0.7,1.8-0.7,3c0,1.1,0.2,2.1,0.7,3c0.5,0.8,1.1,1.5,1.9,1.9C1102.1,537.5,1103,537.7,1104,537.7z"/>
	<path class="st2" d="M1125.5,541.3c-1.8,0-3.4-0.4-4.9-1.2s-2.5-1.9-3.4-3.3c-0.8-1.4-1.2-2.9-1.2-4.7s0.4-3.4,1.2-4.7
		c0.8-1.4,1.9-2.4,3.4-3.2c1.4-0.8,3-1.2,4.9-1.2c1.8,0,3.5,0.4,4.9,1.2s2.6,1.8,3.4,3.2c0.8,1.4,1.2,2.9,1.2,4.7s-0.4,3.3-1.2,4.7
		c-0.8,1.4-1.9,2.5-3.4,3.3C1129,540.9,1127.3,541.3,1125.5,541.3z M1125.5,537.7c1,0,1.9-0.2,2.7-0.7c0.8-0.4,1.4-1.1,1.9-1.9
		c0.5-0.8,0.7-1.8,0.7-3s-0.2-2.2-0.7-3s-1.1-1.5-1.9-1.9c-0.8-0.4-1.7-0.7-2.7-0.7s-1.9,0.2-2.7,0.7c-0.8,0.4-1.4,1.1-1.9,1.9
		c-0.5,0.8-0.7,1.8-0.7,3c0,1.1,0.2,2.1,0.7,3s1.1,1.5,1.9,1.9C1123.6,537.5,1124.5,537.7,1125.5,537.7z"/>
	<path class="st2" d="M1141.1,520.3c-0.8,0-1.4-0.2-1.9-0.7s-0.8-1.1-0.8-1.8s0.2-1.3,0.8-1.8c0.5-0.5,1.1-0.7,1.9-0.7
		s1.4,0.2,1.9,0.7s0.8,1,0.8,1.7s-0.2,1.4-0.7,1.9C1142.6,520.1,1141.9,520.3,1141.1,520.3z M1139,541.1v-17.8h4.2v17.8H1139z"/>
	<path class="st2" d="M1158.7,523c1.4,0,2.7,0.3,3.8,0.8c1.1,0.6,2,1.4,2.7,2.6c0.6,1.1,1,2.6,1,4.4V541h-4.2v-9.7
		c0-1.6-0.4-2.8-1.1-3.5c-0.7-0.8-1.8-1.2-3.1-1.2c-1,0-1.8,0.2-2.6,0.6c-0.8,0.4-1.3,1-1.8,1.8s-0.6,1.8-0.6,3v9h-4.2v-17.8h4v4.8
		l-0.7-1.5c0.6-1.1,1.5-2,2.7-2.6C1155.8,523.4,1157.2,523,1158.7,523z"/>
	<path class="st2" d="M1169.1,526.7v-3.3h11.9v3.3H1169.1z M1178.2,541.3c-2,0-3.5-0.5-4.5-1.5c-1.1-1-1.6-2.5-1.6-4.5v-16h4.2v15.9
		c0,0.8,0.2,1.5,0.7,2s1,0.7,1.8,0.7c0.9,0,1.7-0.2,2.3-0.7l1.2,3c-0.5,0.4-1.1,0.7-1.8,0.9C1179.7,541.2,1178.9,541.3,1178.2,541.3
		z"/>
	<path class="st2" d="M1193.4,541.3c-2,0-3.7-0.4-5.2-1.2s-2.6-1.9-3.4-3.3c-0.8-1.4-1.2-2.9-1.2-4.7s0.4-3.4,1.2-4.7
		c0.8-1.4,1.9-2.4,3.3-3.2c1.4-0.8,3-1.2,4.8-1.2c1.7,0,3.3,0.4,4.6,1.1c1.4,0.8,2.4,1.8,3.2,3.2c0.8,1.4,1.2,3,1.2,4.9
		c0,0.2,0,0.4,0,0.6c0,0.2,0,0.4,0,0.6h-14.8v-2.8h12.6l-1.6,0.9c0-1-0.2-1.9-0.6-2.7c-0.4-0.8-1-1.4-1.8-1.8
		c-0.8-0.4-1.7-0.7-2.7-0.7s-1.9,0.2-2.7,0.7c-0.8,0.4-1.4,1.1-1.8,1.9c-0.4,0.8-0.7,1.7-0.7,2.8v0.7c0,1.1,0.2,2,0.7,2.8
		s1.2,1.5,2.1,1.9c0.9,0.4,1.9,0.7,3.1,0.7c1,0,1.9-0.2,2.7-0.5c0.8-0.3,1.5-0.8,2.1-1.5l2.2,2.6c-0.8,0.9-1.8,1.7-3,2.2
		C1196.3,541,1195,541.3,1193.4,541.3z"/>
	<path class="st2" d="M1205.8,541.1v-17.8h4v4.9l-0.5-1.4c0.5-1.2,1.4-2.1,2.5-2.7c1.1-0.6,2.6-0.9,4.3-0.9v4
		c-0.2,0-0.3-0.1-0.5-0.1c-0.2,0-0.3,0-0.5,0c-1.6,0-2.8,0.5-3.8,1.4c-0.9,0.9-1.4,2.3-1.4,4.1v8.6L1205.8,541.1L1205.8,541.1z"/>
	<path class="st2" d="M1092.3,566.7v-3.3h11.8v3.3H1092.3z M1101.3,581.3c-2,0-3.5-0.5-4.5-1.5c-1.1-1-1.6-2.5-1.6-4.5v-16h4.2v15.9
		c0,0.8,0.2,1.5,0.7,2s1,0.7,1.8,0.7c0.9,0,1.7-0.2,2.3-0.7l1.2,3c-0.5,0.4-1.1,0.7-1.8,0.9C1102.8,581.2,1102.1,581.3,1101.3,581.3
		z"/>
	<path class="st2" d="M1116.2,581.3c-1.8,0-3.4-0.4-4.9-1.2s-2.5-1.9-3.4-3.3c-0.8-1.4-1.2-2.9-1.2-4.7s0.4-3.4,1.2-4.7
		c0.8-1.4,1.9-2.4,3.4-3.2c1.4-0.8,3-1.2,4.9-1.2c1.8,0,3.5,0.4,4.9,1.2s2.6,1.8,3.4,3.2c0.8,1.4,1.2,2.9,1.2,4.7s-0.4,3.3-1.2,4.7
		c-0.8,1.4-1.9,2.5-3.4,3.3C1119.7,580.9,1118,581.3,1116.2,581.3z M1116.2,577.7c1,0,1.9-0.2,2.7-0.7c0.8-0.4,1.4-1.1,1.9-1.9
		c0.5-0.8,0.7-1.8,0.7-3s-0.2-2.2-0.7-3s-1.1-1.5-1.9-1.9c-0.8-0.4-1.7-0.7-2.7-0.7s-1.9,0.2-2.7,0.7c-0.8,0.4-1.4,1.1-1.9,1.9
		c-0.5,0.8-0.7,1.8-0.7,3c0,1.1,0.2,2.1,0.7,3s1.1,1.5,1.9,1.9C1114.3,577.5,1115.2,577.7,1116.2,577.7z"/>
	<path class="st2" d="M1149,563.1c1.4,0,2.7,0.3,3.8,0.8c1.1,0.6,2,1.4,2.7,2.6c0.6,1.1,1,2.6,1,4.4v10.2h-4.2v-9.7
		c0-1.6-0.4-2.8-1.1-3.5c-0.7-0.8-1.8-1.2-3.1-1.2c-1,0-1.8,0.2-2.6,0.6c-0.8,0.4-1.3,1-1.8,1.8s-0.6,1.8-0.6,3v9h-4.2v-24.7h4.2
		v11.7l-0.9-1.5c0.6-1.1,1.5-2,2.7-2.6C1146.1,563.4,1147.4,563.1,1149,563.1z"/>
	<path class="st2" d="M1170.1,581.3c-2,0-3.7-0.4-5.2-1.2s-2.6-1.9-3.4-3.3c-0.8-1.4-1.2-2.9-1.2-4.7s0.4-3.4,1.2-4.7
		c0.8-1.4,1.9-2.4,3.3-3.2s3-1.2,4.8-1.2c1.7,0,3.3,0.4,4.6,1.1c1.4,0.8,2.4,1.8,3.2,3.2c0.8,1.4,1.2,3,1.2,4.9c0,0.2,0,0.4,0,0.6
		c0,0.2,0,0.4,0,0.6h-14.8v-2.8h12.6l-1.6,0.9c0-1-0.2-1.9-0.6-2.7c-0.4-0.8-1-1.4-1.8-1.8c-0.8-0.4-1.7-0.7-2.7-0.7
		s-1.9,0.2-2.7,0.7c-0.8,0.4-1.4,1.1-1.8,1.9c-0.4,0.8-0.7,1.7-0.7,2.8v0.7c0,1.1,0.2,2,0.7,2.8s1.2,1.5,2.1,1.9s1.9,0.7,3.1,0.7
		c1,0,1.9-0.2,2.7-0.5c0.8-0.3,1.5-0.8,2.1-1.5l2.2,2.6c-0.8,0.9-1.8,1.7-3,2.2C1173.1,581.1,1171.7,581.3,1170.1,581.3z"/>
	<path class="st2" d="M1182.5,581.1v-17.8h4v4.9l-0.5-1.4c0.5-1.2,1.4-2.1,2.5-2.7c1.1-0.6,2.6-0.9,4.3-0.9v4
		c-0.2,0-0.3-0.1-0.5-0.1c-0.2,0-0.3,0-0.5,0c-1.6,0-2.8,0.5-3.8,1.4c-0.9,0.9-1.4,2.3-1.4,4.1v8.6L1182.5,581.1L1182.5,581.1z"/>
	<path class="st2" d="M1204.5,581.3c-2,0-3.7-0.4-5.2-1.2s-2.6-1.9-3.4-3.3c-0.8-1.4-1.2-2.9-1.2-4.7s0.4-3.4,1.2-4.7
		c0.8-1.4,1.9-2.4,3.3-3.2s3-1.2,4.8-1.2c1.7,0,3.3,0.4,4.6,1.1c1.4,0.8,2.4,1.8,3.2,3.2c0.8,1.4,1.2,3,1.2,4.9c0,0.2,0,0.4,0,0.6
		c0,0.2,0,0.4,0,0.6h-14.8v-2.8h12.6l-1.6,0.9c0-1-0.2-1.9-0.6-2.7c-0.4-0.8-1-1.4-1.8-1.8c-0.8-0.4-1.7-0.7-2.7-0.7
		s-1.9,0.2-2.7,0.7c-0.8,0.4-1.4,1.1-1.8,1.9c-0.4,0.8-0.7,1.7-0.7,2.8v0.7c0,1.1,0.2,2,0.7,2.8s1.2,1.5,2.1,1.9s1.9,0.7,3.1,0.7
		c1,0,1.9-0.2,2.7-0.5c0.8-0.3,1.5-0.8,2.1-1.5l2.2,2.6c-0.8,0.9-1.8,1.7-3,2.2C1207.5,581.1,1206.1,581.3,1204.5,581.3z"/>
</g>
<g>
	<path class="st1" d="M801.2,143.5c-2.5,0-5-0.4-7.3-1.1s-4.2-1.7-5.5-2.8l2.1-4.7c1.3,1,2.9,1.9,4.8,2.6c1.9,0.7,3.9,1,5.9,1
		c1.7,0,3.1-0.2,4.1-0.6s1.8-0.9,2.3-1.5s0.7-1.4,0.7-2.2c0-1-0.4-1.8-1.1-2.4c-0.7-0.6-1.6-1.1-2.8-1.4c-1.1-0.4-2.4-0.7-3.8-1
		c-1.4-0.3-2.8-0.7-4.1-1.1c-1.4-0.4-2.6-1-3.8-1.6c-1.2-0.6-2.1-1.6-2.8-2.7c-0.7-1.1-1.1-2.5-1.1-4.3s0.5-3.4,1.4-4.9
		c0.9-1.5,2.4-2.7,4.3-3.5c1.9-0.9,4.4-1.3,7.4-1.3c2,0,3.9,0.2,5.8,0.7c1.9,0.5,3.6,1.2,5,2.1l-1.9,4.7c-1.5-0.9-3-1.5-4.5-1.9
		c-1.6-0.4-3-0.6-4.5-0.6c-1.7,0-3,0.2-4.1,0.6c-1,0.4-1.8,0.9-2.3,1.6s-0.7,1.4-0.7,2.2c0,1,0.3,1.8,1,2.4s1.6,1.1,2.8,1.4
		c1.1,0.3,2.4,0.7,3.8,1c1.4,0.3,2.8,0.7,4.2,1.1s2.6,0.9,3.8,1.6s2.1,1.5,2.8,2.7c0.7,1.1,1,2.5,1,4.2s-0.5,3.3-1.4,4.8
		s-2.4,2.7-4.4,3.5C806.6,143.1,804.2,143.5,801.2,143.5z"/>
	<path class="st1" d="M816.5,123v-4.7h16.6v4.7H816.5z M829.2,143.4c-2.7,0-4.8-0.7-6.3-2.1c-1.5-1.4-2.2-3.5-2.2-6.3v-22.3h5.8
		v22.2c0,1.2,0.3,2.1,0.9,2.8c0.6,0.7,1.5,1,2.5,1c1.3,0,2.4-0.3,3.3-1l1.6,4.1c-0.7,0.6-1.5,1-2.5,1.3
		C831.3,143.2,830.3,143.4,829.2,143.4z"/>
	<path class="st1" d="M850,143.4c-2.5,0-4.8-0.6-6.8-1.7c-2-1.1-3.6-2.6-4.7-4.5c-1.2-1.9-1.7-4.1-1.7-6.6s0.6-4.7,1.7-6.6
		c1.1-1.9,2.7-3.4,4.7-4.5s4.3-1.6,6.8-1.6c2.6,0,4.9,0.5,6.9,1.6s3.6,2.6,4.7,4.5c1.1,1.9,1.7,4.1,1.7,6.6s-0.6,4.6-1.7,6.6
		c-1.1,1.9-2.7,3.4-4.7,4.5C854.8,142.8,852.5,143.4,850,143.4z M850,138.4c1.4,0,2.7-0.3,3.8-0.9c1.1-0.6,2-1.5,2.6-2.7
		s1-2.6,1-4.1c0-1.6-0.3-3-1-4.2c-0.6-1.2-1.5-2.1-2.6-2.7s-2.4-0.9-3.8-0.9c-1.4,0-2.7,0.3-3.8,0.9s-2,1.5-2.6,2.7
		c-0.7,1.2-1,2.6-1,4.2c0,1.6,0.3,3,1,4.1c0.7,1.2,1.5,2.1,2.6,2.7C847.3,138.1,848.6,138.4,850,138.4z"/>
	<path class="st1" d="M868.8,143.1v-24.9h5.5v6.9l-0.7-2c0.7-1.7,1.9-3,3.5-3.8c1.6-0.9,3.6-1.3,6-1.3v5.5c-0.2-0.1-0.5-0.1-0.7-0.1
		s-0.4,0-0.7,0c-2.2,0-4,0.6-5.3,1.9s-2,3.2-2,5.8v12.1h-5.6V143.1z"/>
	<path class="st1" d="M893.9,143.4c-1.9,0-3.5-0.3-4.9-1c-1.4-0.6-2.5-1.5-3.2-2.7c-0.8-1.1-1.1-2.4-1.1-3.8c0-1.4,0.3-2.7,1-3.8
		s1.8-2,3.3-2.7s3.5-1,6.1-1h7.2v3.9h-6.8c-2,0-3.3,0.3-4,1c-0.7,0.6-1,1.4-1,2.4c0,1.1,0.4,1.9,1.3,2.5c0.8,0.6,2,0.9,3.5,0.9
		c1.4,0,2.7-0.3,3.8-1s2-1.6,2.4-2.9l1,3.5c-0.6,1.5-1.6,2.6-3,3.4C898,143,896.1,143.4,893.9,143.4z M901.8,143.1v-5l-0.3-1.1v-8.8
		c0-1.7-0.5-3-1.5-4c-1-0.9-2.6-1.4-4.7-1.4c-1.4,0-2.8,0.2-4.1,0.7c-1.4,0.4-2.5,1-3.4,1.8l-2.3-4.2c1.3-1,2.9-1.8,4.8-2.3
		c1.8-0.5,3.8-0.8,5.8-0.8c3.6,0,6.4,0.9,8.4,2.6s3,4.4,3,8v14.6L901.8,143.1L901.8,143.1z"/>
	<path class="st1" d="M925.3,141.9c-2.4,0-4.5-0.5-6.4-1.5s-3.4-2.4-4.5-4.2s-1.7-3.9-1.7-6.3c0-2.4,0.6-4.5,1.7-6.3
		c1.1-1.8,2.6-3.2,4.5-4.2s4-1.5,6.4-1.5c2.1,0,4,0.4,5.7,1.3c1.7,0.8,3,2.1,4,3.9s1.5,4,1.5,6.8c0,2.8-0.5,5-1.5,6.8s-2.4,3.1-4,4
		C929.3,141.5,927.4,141.9,925.3,141.9z M926.1,152.4c-2.3,0-4.5-0.3-6.7-0.9c-2.2-0.6-4-1.5-5.4-2.6l2.6-4.4
		c1.1,0.9,2.5,1.6,4.1,2.2c1.7,0.5,3.3,0.8,5.1,0.8c2.7,0,4.7-0.6,6-1.9c1.3-1.3,1.9-3.1,1.9-5.7v-4.4l0.5-5.6l-0.2-5.6v-6.1h5.5
		v21.1c0,4.5-1.2,7.8-3.5,10C933.7,151.4,930.4,152.4,926.1,152.4z M926.2,137c1.5,0,2.8-0.3,3.9-0.9c1.1-0.6,2-1.4,2.7-2.5
		c0.6-1.1,1-2.3,1-3.7s-0.3-2.6-1-3.7c-0.6-1.1-1.5-1.9-2.7-2.5s-2.5-0.9-3.9-0.9s-2.8,0.3-3.9,0.9c-1.2,0.6-2.1,1.4-2.7,2.5
		c-0.6,1.1-1,2.3-1,3.7s0.3,2.6,1,3.7c0.6,1.1,1.5,1.9,2.7,2.5S924.7,137,926.2,137z"/>
	<path class="st1" d="M958.8,143.4c-2.8,0-5.2-0.6-7.2-1.7c-2.1-1.1-3.7-2.6-4.8-4.5s-1.7-4.1-1.7-6.6s0.6-4.7,1.7-6.6
		s2.6-3.4,4.6-4.5c1.9-1.1,4.2-1.6,6.6-1.6c2.4,0,4.6,0.5,6.5,1.6s3.4,2.5,4.5,4.5c1.1,1.9,1.6,4.2,1.6,6.8c0,0.2,0,0.5,0,0.8
		s0,0.6-0.1,0.9h-20.7v-3.9h17.7l-2.3,1.2c0-1.4-0.3-2.7-0.9-3.8c-0.6-1.1-1.5-1.9-2.5-2.6c-1.1-0.6-2.3-0.9-3.7-0.9
		s-2.7,0.3-3.8,0.9s-1.9,1.5-2.5,2.6s-0.9,2.4-0.9,3.9v0.9c0,1.5,0.3,2.8,1,4s1.6,2,2.9,2.7c1.2,0.6,2.7,0.9,4.3,0.9
		c1.4,0,2.7-0.2,3.8-0.7c1.1-0.4,2.1-1.1,3-2.1l3.1,3.6c-1.1,1.3-2.5,2.3-4.2,3C962.9,143,961,143.4,958.8,143.4z"/>
	<path class="st1" d="M999.2,143.1l-14.3-32.6h6.6l12.7,29.5h-3.8l12.9-29.5h6.1l-14.2,32.6H999.2z"/>
	<path class="st1" d="M1027.9,143.4c-1.9,0-3.5-0.3-4.9-1c-1.4-0.7-2.5-1.5-3.2-2.7c-0.8-1.1-1.1-2.4-1.1-3.8c0-1.4,0.3-2.7,1-3.8
		s1.8-2,3.3-2.7c1.5-0.7,3.5-1,6.1-1h7.2v3.9h-6.8c-2,0-3.3,0.3-4,1c-0.7,0.6-1,1.4-1,2.4c0,1.1,0.4,1.9,1.3,2.5
		c0.8,0.6,2,0.9,3.5,0.9c1.4,0,2.7-0.3,3.8-1s2-1.6,2.4-2.9l1,3.5c-0.6,1.5-1.6,2.6-3,3.4C1032,143,1030.1,143.4,1027.9,143.4z
		 M1035.8,143.1v-5l-0.3-1.1v-8.8c0-1.7-0.5-3-1.5-4c-1-0.9-2.6-1.4-4.7-1.4c-1.4,0-2.8,0.2-4.1,0.7c-1.4,0.4-2.5,1-3.4,1.8
		l-2.3-4.2c1.3-1,2.9-1.8,4.8-2.3c1.8-0.5,3.8-0.8,5.8-0.8c3.6,0,6.4,0.9,8.4,2.6s3,4.4,3,8v14.6L1035.8,143.1L1035.8,143.1z"/>
	<path class="st1" d="M1048.7,143.1v-34.6h5.8v34.6H1048.7z"/>
	<path class="st1" d="M1072.7,143.4c-2.1,0-4-0.4-5.6-1.2s-2.9-2-3.8-3.6s-1.4-3.7-1.4-6.2v-14.2h5.8v13.4c0,2.2,0.5,3.9,1.5,5
		s2.4,1.7,4.3,1.7c1.4,0,2.6-0.3,3.6-0.8c1-0.6,1.8-1.4,2.4-2.5s0.9-2.5,0.9-4.1v-12.6h5.8v24.9h-5.5v-6.7l1,2.1
		c-0.8,1.6-2.1,2.9-3.7,3.7C1076.4,143,1074.7,143.4,1072.7,143.4z"/>
	<path class="st1" d="M1105.7,143.4c-2.8,0-5.2-0.6-7.3-1.7c-2.1-1.1-3.7-2.6-4.8-4.5s-1.7-4.1-1.7-6.6s0.6-4.7,1.7-6.6
		c1.1-1.9,2.6-3.4,4.6-4.5c1.9-1.1,4.2-1.6,6.6-1.6s4.6,0.5,6.5,1.6s3.4,2.5,4.5,4.5c1.1,1.9,1.6,4.2,1.6,6.8c0,0.2,0,0.5,0,0.8
		s0,0.6-0.1,0.9h-20.8v-3.9h17.7l-2.3,1.2c0-1.4-0.3-2.7-0.9-3.8c-0.6-1.1-1.5-1.9-2.5-2.6c-1.1-0.6-2.3-0.9-3.7-0.9
		s-2.7,0.3-3.8,0.9s-1.9,1.5-2.5,2.6s-0.9,2.4-0.9,3.9v0.9c0,1.5,0.3,2.8,1,4c0.7,1.2,1.6,2,2.9,2.7c1.2,0.6,2.7,0.9,4.3,0.9
		c1.4,0,2.7-0.2,3.8-0.7c1.1-0.4,2.1-1.1,3-2.1l3.1,3.6c-1.1,1.3-2.5,2.3-4.2,3C1109.8,142.9,1107.8,143.4,1105.7,143.4z"/>
</g>
<g>
	<g>
		<path class="st2" d="M1098.7,457.7c-7.1,2.8-12,15-8.7,21.9c3.3,6.9,12.1,3.4,16-6.3C1109.8,463.5,1105.8,454.8,1098.7,457.7z"/>
	</g>
	<g>
		<path class="st2" d="M1082.3,491.2c-9.6,1.4-18.9,14.8-16.7,24.3c2.2,9.5,14.1,7.7,21.6-3C1094.5,501.6,1091.9,489.8,1082.3,491.2
			z"/>
	</g>
	<g>
		<path class="st2" d="M1054.6,528.7c-10.7,0.1-23.2,13.7-22.5,24.4c0.7,10.7,14.1,10.5,24.1-0.3
			C1066.2,541.9,1065.3,528.5,1054.6,528.7z"/>
	</g>
	<g>
		<path class="st2" d="M1001.4,566.1l-13.9-18.7c-0.9-1.2-0.7-2.9,0.5-3.8c10.2-7.6,53.5-42.5,72-99.8c1.4-4.5,6.3-6.8,10.7-5.1
			l24.9,9.8c2.3,0.9,2.3,4.1,0,5.1c-11.2,4.7-14.3,19.1-11.2,28.2c0.6,1.7-0.6,3.5-2.4,3.6c-11.9,1-26.5,17.3-20.9,34
			c0.6,2-1.1,3.9-3.1,3.5c-17.2-3.6-32.7,16.6-32.2,29.1c0.1,2-0.9,3.8-2.6,4.8c-6.5,4.1-12.9,7.7-18.5,10.2
			C1003.5,567.5,1002.2,567.1,1001.4,566.1z"/>
	</g>
	<g>
		<path class="st2" d="M969.3,573.8l5.1-35.4c0.5-3.3,4.7-4.5,6.8-1.8l30.5,38.4c2.1,2.6,0,6.5-3.3,6.2l-35.6-3
			C970.6,578,969,576,969.3,573.8z"/>
	</g>
</g>
</svg>
