<?xml version="1.0" encoding="utf-8"?>
<!-- Generator: Adobe Illustrator 27.1.1, SVG Export Plug-In . SVG Version: 6.00 Build 0)  -->
<svg version="1.1" id="Layer_1" xmlns="http://www.w3.org/2000/svg" xmlns:xlink="http://www.w3.org/1999/xlink" x="0px" y="0px"
	 viewBox="0 0 1002.1 800.9" style="enable-background:new 0 0 1002.1 800.9;" xml:space="preserve">
<style type="text/css">
	.st0{fill:#242526;}
	.st1{fill:#FFFFFF;}
	.st2{fill:#BC83FB;}
</style>
<g>
	<rect class="st0" width="1002.1" height="800.9"/>
</g>
<g>
	<path class="st1" d="M101.9,240.4c-2.4,0-4.2-1-5.6-2.9c-1.4-1.9-2-4.7-2-8.2c0-3.6,0.7-6.3,2-8.2c1.4-1.9,3.2-2.8,5.6-2.8
		c2.4,0,4.2,0.9,5.6,2.8c1.4,1.9,2,4.6,2,8.2c0,3.5-0.7,6.3-2,8.2C106.2,239.4,104.3,240.4,101.9,240.4z M101.9,238.2
		c1.5,0,2.7-0.7,3.6-2.2c0.9-1.4,1.4-3.7,1.4-6.7c0-3.1-0.5-5.3-1.4-6.7c-0.9-1.4-2.2-2.1-3.6-2.1c-1.5,0-2.7,0.7-3.6,2.1
		c-0.9,1.4-1.4,3.6-1.4,6.7c0,3,0.5,5.3,1.4,6.7C99.2,237.4,100.4,238.2,101.9,238.2z M101.9,231.3c-0.6,0-1-0.2-1.4-0.6
		c-0.4-0.4-0.6-0.9-0.6-1.6c0-0.7,0.2-1.2,0.6-1.6c0.4-0.4,0.9-0.6,1.4-0.6c0.6,0,1,0.2,1.4,0.6c0.4,0.4,0.6,0.9,0.6,1.6
		c0,0.7-0.2,1.2-0.6,1.6C103,231.1,102.5,231.3,101.9,231.3z"/>
	<path class="st1" d="M114,240l6.2-8.4l-5.7-7.8h3l2.6,3.6c0.3,0.4,0.6,0.9,0.9,1.3c0.3,0.5,0.6,0.9,1,1.4h0.1
		c0.3-0.4,0.6-0.9,0.9-1.4c0.3-0.5,0.6-1,0.9-1.4l2.4-3.5h2.9l-5.8,8l6.2,8.2h-3l-2.8-3.7c-0.3-0.5-0.7-1-1-1.5
		c-0.4-0.5-0.7-1-1.1-1.5h-0.1c-0.3,0.5-0.7,1-1,1.4c-0.3,0.5-0.7,1-1,1.5L117,240H114z"/>
	<path class="st1" d="M141.8,240.4c-2.4,0-4.2-1-5.6-2.9c-1.4-1.9-2-4.7-2-8.2c0-3.6,0.7-6.3,2-8.2c1.4-1.9,3.2-2.8,5.6-2.8
		c2.4,0,4.2,0.9,5.6,2.8c1.4,1.9,2,4.6,2,8.2c0,3.5-0.7,6.3-2,8.2C146.1,239.4,144.2,240.4,141.8,240.4z M141.8,238.2
		c1.5,0,2.7-0.7,3.6-2.2c0.9-1.4,1.4-3.7,1.4-6.7c0-3.1-0.5-5.3-1.4-6.7c-0.9-1.4-2.2-2.1-3.6-2.1c-1.5,0-2.7,0.7-3.6,2.1
		c-0.9,1.4-1.4,3.6-1.4,6.7c0,3,0.5,5.3,1.4,6.7C139.1,237.4,140.4,238.2,141.8,238.2z M141.8,231.3c-0.6,0-1-0.2-1.4-0.6
		c-0.4-0.4-0.6-0.9-0.6-1.6c0-0.7,0.2-1.2,0.6-1.6c0.4-0.4,0.9-0.6,1.4-0.6c0.6,0,1,0.2,1.4,0.6c0.4,0.4,0.6,0.9,0.6,1.6
		c0,0.7-0.2,1.2-0.6,1.6C142.9,231.1,142.4,231.3,141.8,231.3z"/>
	<path class="st1" d="M161.8,240.4c-2.4,0-4.2-1-5.6-2.9c-1.4-1.9-2-4.7-2-8.2c0-3.6,0.7-6.3,2-8.2c1.4-1.9,3.2-2.8,5.6-2.8
		c2.4,0,4.2,0.9,5.6,2.8c1.4,1.9,2,4.6,2,8.2c0,3.5-0.7,6.3-2,8.2C166.1,239.4,164.2,240.4,161.8,240.4z M161.8,238.2
		c1.5,0,2.7-0.7,3.6-2.2c0.9-1.4,1.4-3.7,1.4-6.7c0-3.1-0.5-5.3-1.4-6.7c-0.9-1.4-2.2-2.1-3.6-2.1c-1.5,0-2.7,0.7-3.6,2.1
		c-0.9,1.4-1.4,3.6-1.4,6.7c0,3,0.5,5.3,1.4,6.7C159.1,237.4,160.3,238.2,161.8,238.2z M161.8,231.3c-0.6,0-1-0.2-1.4-0.6
		c-0.4-0.4-0.6-0.9-0.6-1.6c0-0.7,0.2-1.2,0.6-1.6c0.4-0.4,0.9-0.6,1.4-0.6c0.6,0,1,0.2,1.4,0.6c0.4,0.4,0.6,0.9,0.6,1.6
		c0,0.7-0.2,1.2-0.6,1.6C162.9,231.1,162.4,231.3,161.8,231.3z"/>
	<path class="st1" d="M181.8,240.4c-2.4,0-4.2-1-5.6-2.9c-1.4-1.9-2-4.7-2-8.2c0-3.6,0.7-6.3,2-8.2c1.4-1.9,3.2-2.8,5.6-2.8
		c2.4,0,4.2,0.9,5.6,2.8c1.4,1.9,2,4.6,2,8.2c0,3.5-0.7,6.3-2,8.2C186,239.4,184.2,240.4,181.8,240.4z M181.8,238.2
		c1.5,0,2.7-0.7,3.6-2.2c0.9-1.4,1.4-3.7,1.4-6.7c0-3.1-0.5-5.3-1.4-6.7c-0.9-1.4-2.2-2.1-3.6-2.1c-1.5,0-2.7,0.7-3.6,2.1
		c-0.9,1.4-1.4,3.6-1.4,6.7c0,3,0.5,5.3,1.4,6.7C179.1,237.4,180.3,238.2,181.8,238.2z M181.8,231.3c-0.6,0-1-0.2-1.4-0.6
		c-0.4-0.4-0.6-0.9-0.6-1.6c0-0.7,0.2-1.2,0.6-1.6c0.4-0.4,0.9-0.6,1.4-0.6c0.6,0,1,0.2,1.4,0.6c0.4,0.4,0.6,0.9,0.6,1.6
		c0,0.7-0.2,1.2-0.6,1.6C182.8,231.1,182.3,231.3,181.8,231.3z"/>
	<path class="st1" d="M201.8,240.4c-2.4,0-4.2-1-5.6-2.9c-1.4-1.9-2-4.7-2-8.2c0-3.6,0.7-6.3,2-8.2c1.4-1.9,3.2-2.8,5.6-2.8
		c2.4,0,4.2,0.9,5.6,2.8c1.4,1.9,2,4.6,2,8.2c0,3.5-0.7,6.3-2,8.2C206,239.4,204.1,240.4,201.8,240.4z M201.8,238.2
		c1.5,0,2.7-0.7,3.6-2.2c0.9-1.4,1.4-3.7,1.4-6.7c0-3.1-0.5-5.3-1.4-6.7c-0.9-1.4-2.2-2.1-3.6-2.1c-1.5,0-2.7,0.7-3.6,2.1
		c-0.9,1.4-1.4,3.6-1.4,6.7c0,3,0.5,5.3,1.4,6.7C199.1,237.4,200.3,238.2,201.8,238.2z M201.8,231.3c-0.6,0-1-0.2-1.4-0.6
		c-0.4-0.4-0.6-0.9-0.6-1.6c0-0.7,0.2-1.2,0.6-1.6c0.4-0.4,0.9-0.6,1.4-0.6c0.6,0,1,0.2,1.4,0.6c0.4,0.4,0.6,0.9,0.6,1.6
		c0,0.7-0.2,1.2-0.6,1.6C202.8,231.1,202.3,231.3,201.8,231.3z"/>
	<path class="st1" d="M221.7,240.4c-2.4,0-4.2-1-5.6-2.9c-1.4-1.9-2-4.7-2-8.2c0-3.6,0.7-6.3,2-8.2c1.4-1.9,3.2-2.8,5.6-2.8
		c2.4,0,4.2,0.9,5.6,2.8c1.4,1.9,2,4.6,2,8.2c0,3.5-0.7,6.3-2,8.2C226,239.4,224.1,240.4,221.7,240.4z M221.7,238.2
		c1.5,0,2.7-0.7,3.6-2.2c0.9-1.4,1.4-3.7,1.4-6.7c0-3.1-0.5-5.3-1.4-6.7c-0.9-1.4-2.2-2.1-3.6-2.1c-1.5,0-2.7,0.7-3.6,2.1
		c-0.9,1.4-1.4,3.6-1.4,6.7c0,3,0.5,5.3,1.4,6.7C219,237.4,220.2,238.2,221.7,238.2z M221.7,231.3c-0.6,0-1-0.2-1.4-0.6
		c-0.4-0.4-0.6-0.9-0.6-1.6c0-0.7,0.2-1.2,0.6-1.6c0.4-0.4,0.9-0.6,1.4-0.6c0.6,0,1,0.2,1.4,0.6c0.4,0.4,0.6,0.9,0.6,1.6
		c0,0.7-0.2,1.2-0.6,1.6C222.8,231.1,222.3,231.3,221.7,231.3z"/>
	<path class="st1" d="M241.7,240.4c-2.4,0-4.2-1-5.6-2.9c-1.4-1.9-2-4.7-2-8.2c0-3.6,0.7-6.3,2-8.2c1.4-1.9,3.2-2.8,5.6-2.8
		c2.4,0,4.2,0.9,5.6,2.8c1.4,1.9,2,4.6,2,8.2c0,3.5-0.7,6.3-2,8.2C245.9,239.4,244.1,240.4,241.7,240.4z M241.7,238.2
		c1.5,0,2.7-0.7,3.6-2.2c0.9-1.4,1.4-3.7,1.4-6.7c0-3.1-0.5-5.3-1.4-6.7c-0.9-1.4-2.2-2.1-3.6-2.1c-1.5,0-2.7,0.7-3.6,2.1
		c-0.9,1.4-1.4,3.6-1.4,6.7c0,3,0.5,5.3,1.4,6.7C239,237.4,240.2,238.2,241.7,238.2z M241.7,231.3c-0.6,0-1-0.2-1.4-0.6
		c-0.4-0.4-0.6-0.9-0.6-1.6c0-0.7,0.2-1.2,0.6-1.6c0.4-0.4,0.9-0.6,1.4-0.6c0.6,0,1,0.2,1.4,0.6c0.4,0.4,0.6,0.9,0.6,1.6
		c0,0.7-0.2,1.2-0.6,1.6C242.7,231.1,242.2,231.3,241.7,231.3z"/>
	<path class="st1" d="M261.7,240.4c-2.4,0-4.2-1-5.6-2.9c-1.4-1.9-2-4.7-2-8.2c0-3.6,0.7-6.3,2-8.2c1.4-1.9,3.2-2.8,5.6-2.8
		c2.4,0,4.2,0.9,5.6,2.8c1.4,1.9,2,4.6,2,8.2c0,3.5-0.7,6.3-2,8.2C265.9,239.4,264,240.4,261.7,240.4z M261.7,238.2
		c1.5,0,2.7-0.7,3.6-2.2c0.9-1.4,1.4-3.7,1.4-6.7c0-3.1-0.5-5.3-1.4-6.7c-0.9-1.4-2.2-2.1-3.6-2.1c-1.5,0-2.7,0.7-3.6,2.1
		c-0.9,1.4-1.4,3.6-1.4,6.7c0,3,0.5,5.3,1.4,6.7C259,237.4,260.2,238.2,261.7,238.2z M261.7,231.3c-0.6,0-1-0.2-1.4-0.6
		c-0.4-0.4-0.6-0.9-0.6-1.6c0-0.7,0.2-1.2,0.6-1.6c0.4-0.4,0.9-0.6,1.4-0.6c0.6,0,1,0.2,1.4,0.6c0.4,0.4,0.6,0.9,0.6,1.6
		c0,0.7-0.2,1.2-0.6,1.6C262.7,231.1,262.2,231.3,261.7,231.3z"/>
	<path class="st1" d="M281.6,240.4c-2.4,0-4.2-1-5.6-2.9c-1.4-1.9-2-4.7-2-8.2c0-3.6,0.7-6.3,2-8.2c1.4-1.9,3.2-2.8,5.6-2.8
		c2.4,0,4.2,0.9,5.6,2.8c1.4,1.9,2,4.6,2,8.2c0,3.5-0.7,6.3-2,8.2C285.9,239.4,284,240.4,281.6,240.4z M281.6,238.2
		c1.5,0,2.7-0.7,3.6-2.2c0.9-1.4,1.4-3.7,1.4-6.7c0-3.1-0.5-5.3-1.4-6.7c-0.9-1.4-2.2-2.1-3.6-2.1c-1.5,0-2.7,0.7-3.6,2.1
		c-0.9,1.4-1.4,3.6-1.4,6.7c0,3,0.5,5.3,1.4,6.7C278.9,237.4,280.1,238.2,281.6,238.2z M281.6,231.3c-0.6,0-1-0.2-1.4-0.6
		c-0.4-0.4-0.6-0.9-0.6-1.6c0-0.7,0.2-1.2,0.6-1.6c0.4-0.4,0.9-0.6,1.4-0.6c0.6,0,1,0.2,1.4,0.6c0.4,0.4,0.6,0.9,0.6,1.6
		c0,0.7-0.2,1.2-0.6,1.6C282.7,231.1,282.2,231.3,281.6,231.3z"/>
</g>
<g>
	<path class="st1" d="M101.9,586.4c-2.4,0-4.2-1-5.6-2.9c-1.4-1.9-2-4.7-2-8.2c0-3.6,0.7-6.3,2-8.2c1.4-1.9,3.2-2.8,5.6-2.8
		c2.4,0,4.2,0.9,5.6,2.8c1.4,1.9,2,4.6,2,8.2c0,3.5-0.7,6.3-2,8.2C106.2,585.4,104.3,586.4,101.9,586.4z M101.9,584.2
		c1.5,0,2.7-0.7,3.6-2.2s1.4-3.7,1.4-6.7c0-3.1-0.5-5.3-1.4-6.7c-0.9-1.4-2.2-2.1-3.6-2.1c-1.5,0-2.7,0.7-3.6,2.1
		c-0.9,1.4-1.4,3.6-1.4,6.7c0,3,0.5,5.3,1.4,6.7C99.2,583.4,100.4,584.2,101.9,584.2z M101.9,577.3c-0.6,0-1-0.2-1.4-0.6
		c-0.4-0.4-0.6-0.9-0.6-1.6c0-0.7,0.2-1.2,0.6-1.6c0.4-0.4,0.9-0.6,1.4-0.6c0.6,0,1,0.2,1.4,0.6c0.4,0.4,0.6,0.9,0.6,1.6
		c0,0.7-0.2,1.2-0.6,1.6C103,577.1,102.5,577.3,101.9,577.3z"/>
	<path class="st1" d="M114,586l6.2-8.4l-5.7-7.8h3l2.6,3.6c0.3,0.4,0.6,0.9,0.9,1.3c0.3,0.5,0.6,0.9,1,1.4h0.1
		c0.3-0.4,0.6-0.9,0.9-1.4s0.6-1,0.9-1.4l2.4-3.5h2.9l-5.8,8l6.2,8.2h-3l-2.8-3.7c-0.3-0.5-0.7-1-1-1.5c-0.4-0.5-0.7-1-1.1-1.5h-0.1
		c-0.3,0.5-0.7,1-1,1.4c-0.3,0.5-0.7,1-1,1.5L117,586H114z"/>
	<path class="st1" d="M135.1,586v-2.3h6.1v-15.6h-4.8v-1.8c1.2-0.2,2.3-0.4,3.1-0.6c0.9-0.3,1.6-0.6,2.3-0.9h2v19h5.6v2.3H135.1z"/>
	<path class="st1" d="M154.3,586v-1.6c2.4-2.1,4.4-4,6.1-5.6s2.9-3,3.8-4.3c0.9-1.3,1.3-2.5,1.3-3.7c0-1.2-0.4-2.2-1.1-3
		c-0.8-0.8-1.9-1.2-3.5-1.2c-1,0-1.9,0.2-2.8,0.7c-0.9,0.5-1.6,1.1-2.3,1.8l-1.6-1.6c1-1,2-1.8,3.1-2.3c1.1-0.6,2.4-0.9,3.9-0.9
		c2.1,0,3.8,0.6,5.1,1.7c1.2,1.1,1.9,2.7,1.9,4.5c0,1.3-0.4,2.7-1.2,4c-0.8,1.4-2,2.8-3.4,4.3c-1.5,1.5-3.2,3.1-5.1,4.9
		c0.7,0,1.3-0.1,2-0.1c0.7,0,1.3-0.1,1.9-0.1h7v2.4H154.3z"/>
	<path class="st1" d="M181.4,586.4c-1.8,0-3.4-0.3-4.6-0.9c-1.3-0.6-2.3-1.3-3-2.1l1.4-1.8c0.7,0.7,1.6,1.3,2.6,1.8
		c1,0.5,2.2,0.8,3.5,0.8c1.4,0,2.7-0.4,3.6-1.1c1-0.7,1.5-1.7,1.5-2.8c0-1.3-0.6-2.3-1.8-3.1c-1.2-0.8-3.2-1.2-6-1.2v-2.1
		c2.5,0,4.3-0.4,5.4-1.1c1.1-0.8,1.6-1.7,1.6-2.8c0-1-0.4-1.9-1.2-2.5c-0.8-0.6-1.8-0.9-3.1-0.9c-1,0-1.9,0.2-2.8,0.6
		c-0.9,0.4-1.7,0.9-2.4,1.6l-1.5-1.7c0.9-0.8,1.9-1.4,3-1.9c1.1-0.5,2.4-0.7,3.7-0.7c1.3,0,2.5,0.2,3.6,0.6c1.1,0.4,1.9,1,2.5,1.8
		c0.6,0.8,0.9,1.8,0.9,2.9c0,1.3-0.4,2.3-1.3,3.2c-0.9,0.8-1.9,1.5-3.2,1.9v0.1c1,0.2,1.8,0.5,2.6,1c0.8,0.5,1.4,1.1,1.9,1.8
		c0.5,0.7,0.7,1.6,0.7,2.6c0,1.2-0.3,2.3-1,3.2c-0.7,0.9-1.6,1.6-2.8,2.1C184.1,586.1,182.8,586.4,181.4,586.4z"/>
	<path class="st1" d="M204,586v-5.9h-10.9v-1.8l10.6-13.5h2.9v13.2h3.3v2.2h-3.3v5.9H204z M196.1,577.9h7.9v-6.6
		c0-0.6,0-1.2,0.1-1.9c0-0.7,0.1-1.3,0.1-1.9H204c-0.3,0.5-0.7,1-1.1,1.5c-0.4,0.5-0.7,1-1.1,1.5L196.1,577.9z"/>
	<path class="st1" d="M221.3,586.4c-1.9,0-3.4-0.3-4.6-0.9c-1.2-0.6-2.2-1.3-3-2l1.4-1.8c0.7,0.6,1.5,1.2,2.5,1.7
		c0.9,0.5,2.1,0.7,3.5,0.7c1,0,1.9-0.2,2.7-0.6c0.8-0.4,1.5-1,1.9-1.7c0.5-0.7,0.7-1.6,0.7-2.6c0-1.5-0.5-2.6-1.4-3.4
		c-1-0.8-2.2-1.2-3.8-1.2c-0.9,0-1.6,0.1-2.3,0.3c-0.6,0.2-1.3,0.5-2.1,1l-1.5-0.9l0.7-10.2h12v2.4h-9.6l-0.6,6.3
		c0.6-0.3,1.2-0.5,1.8-0.6s1.3-0.2,2.1-0.2c1.4,0,2.6,0.2,3.7,0.7c1.1,0.5,2,1.2,2.6,2.2c0.7,1,1,2.2,1,3.8c0,1.5-0.4,2.8-1.1,3.9
		c-0.7,1.1-1.7,1.9-2.9,2.4C223.9,586.1,222.6,586.4,221.3,586.4z"/>
	<path class="st1" d="M242.4,586.4c-1.5,0-2.9-0.4-4.1-1.1c-1.2-0.8-2.2-1.9-2.9-3.4c-0.7-1.5-1.1-3.4-1.1-5.7
		c0-2.1,0.2-3.9,0.7-5.4c0.5-1.5,1.1-2.7,2-3.7s1.8-1.6,2.8-2.1c1.1-0.4,2.2-0.6,3.3-0.6c1.3,0,2.5,0.2,3.4,0.6s1.8,1,2.5,1.6
		l-1.5,1.7c-0.6-0.5-1.2-0.9-1.9-1.2c-0.7-0.3-1.5-0.4-2.3-0.4c-1.1,0-2.2,0.3-3.1,0.9s-1.8,1.5-2.4,2.8c-0.6,1.3-0.9,3.1-1,5.4
		c0.9-0.8,1.8-1.5,2.9-2c1-0.5,2.1-0.7,3.2-0.7c2,0,3.6,0.5,4.8,1.6c1.2,1.1,1.8,2.7,1.8,4.9c0,1.4-0.3,2.5-1,3.6
		c-0.7,1-1.5,1.8-2.6,2.4C244.8,586.1,243.7,586.4,242.4,586.4z M242.4,575c-0.8,0-1.7,0.2-2.7,0.7c-1,0.4-1.9,1.2-2.7,2.2
		c0.2,2,0.8,3.6,1.7,4.7c0.9,1.1,2.2,1.6,3.7,1.6c1.3,0,2.3-0.4,3.2-1.3c0.9-0.9,1.3-2,1.3-3.4c0-1.4-0.4-2.6-1.2-3.3
		C244.9,575.4,243.8,575,242.4,575z"/>
	<path class="st1" d="M259.2,586c0.1-2,0.3-3.9,0.6-5.5s0.7-3.2,1.3-4.7c0.5-1.5,1.2-2.9,2.1-4.3c0.9-1.4,1.9-2.9,3.1-4.3H254v-2.4
		h15.4v1.7c-1.4,1.6-2.6,3.1-3.5,4.6c-0.9,1.5-1.6,3-2.2,4.5c-0.5,1.5-0.9,3.1-1.2,4.8c-0.3,1.7-0.4,3.6-0.5,5.7H259.2z"/>
	<path class="st1" d="M281.7,586.4c-1.6,0-3-0.2-4.1-0.7c-1.2-0.5-2.1-1.2-2.7-2.1c-0.6-0.9-0.9-1.9-0.9-3c0-1,0.2-1.8,0.7-2.5
		c0.4-0.7,1-1.3,1.7-1.8c0.7-0.5,1.4-0.9,2.2-1.3v-0.1c-0.9-0.6-1.6-1.2-2.3-2.1c-0.6-0.8-0.9-1.8-0.9-2.9c0-1.1,0.3-2,0.8-2.9
		c0.6-0.8,1.3-1.5,2.3-1.9s2.1-0.7,3.4-0.7c2.1,0,3.7,0.5,4.9,1.6c1.2,1.1,1.7,2.4,1.7,4.1c0,1-0.3,1.9-0.9,2.8
		c-0.6,0.9-1.4,1.6-2.3,2.2v0.1c0.8,0.4,1.5,0.8,2.1,1.3c0.6,0.5,1.1,1,1.5,1.7c0.4,0.7,0.5,1.5,0.5,2.5c0,1-0.3,2-0.9,2.9
		c-0.6,0.9-1.5,1.5-2.6,2C284.7,586.1,283.3,586.4,281.7,586.4z M281.8,584.3c1.6,0,2.8-0.3,3.6-1c0.9-0.7,1.3-1.6,1.3-2.7
		c0-1-0.3-1.8-0.9-2.3s-1.4-1-2.4-1.4c-1-0.4-2.1-0.8-3.4-1.2c-1,0.6-1.9,1.2-2.6,1.9c-0.7,0.7-1,1.6-1,2.7c0,1.2,0.5,2.1,1.5,2.9
		C278.8,584,280.1,584.3,281.8,584.3z M283.4,574.4c1.8-1.3,2.7-2.7,2.7-4.3c0-1-0.4-1.9-1.1-2.7c-0.7-0.7-1.8-1.1-3.2-1.1
		c-1.2,0-2.1,0.3-2.9,0.9s-1.1,1.5-1.1,2.5c0,0.8,0.2,1.5,0.7,2.1s1.2,1,2,1.4C281.4,573.7,282.3,574.1,283.4,574.4z"/>
</g>
<g>
	<path class="st1" d="M518.6,245c-2.1,0-3.6-0.3-4.6-0.9c-1-0.6-1.5-1.8-1.5-3.5c0-1.2,0-2.3,0.1-3.3c0.1-1,0.2-2,0.2-3.1
		c0-0.4-0.1-0.9-0.4-1.2c-0.3-0.4-0.7-0.7-1.4-1c-0.7-0.3-1.7-0.4-3-0.4v-1.7c1.3,0,2.3-0.2,3-0.4c0.7-0.2,1.2-0.6,1.4-1
		c0.3-0.4,0.4-0.8,0.4-1.2c0-1,0-2.1-0.2-3.1c-0.1-1-0.1-2.1-0.1-3.3c0-1.7,0.5-2.9,1.5-3.5c1-0.6,2.6-0.9,4.6-0.9h2v1.6h-1.7
		c-1.1,0-2,0.1-2.6,0.3c-0.6,0.2-1,0.5-1.2,1c-0.2,0.4-0.3,1-0.3,1.8c0,1,0,1.9,0.1,2.9c0.1,1,0.1,2,0.1,3.1c0,1.1-0.2,1.9-0.6,2.5
		c-0.4,0.6-1.2,0.9-2.4,1.1v0.1c1.2,0.2,1.9,0.6,2.4,1.1s0.6,1.4,0.6,2.5c0,1.1,0,2.2-0.1,3.1c-0.1,0.9-0.1,1.9-0.1,2.9
		c0,0.7,0.1,1.3,0.3,1.7s0.6,0.8,1.2,1c0.6,0.2,1.5,0.3,2.6,0.3h1.7v1.6H518.6z"/>
	<path class="st1" d="M592,280.3c-1,0-1.9-0.2-2.7-0.5c-0.8-0.4-1.5-0.9-2-1.6c-0.5-0.7-0.7-1.5-0.7-2.5c0-1.2,0.4-2.2,1.2-3
		c0.8-0.8,2-1.5,3.8-1.9c1.7-0.5,4-0.8,6.8-1.1c0-0.7-0.2-1.4-0.4-2c-0.3-0.6-0.7-1.1-1.3-1.5c-0.6-0.4-1.5-0.6-2.5-0.6
		c-1,0-2.1,0.2-3,0.6c-1,0.4-1.9,0.8-2.6,1.3l-1.1-1.9c0.8-0.5,1.9-1.1,3.1-1.6c1.3-0.5,2.6-0.8,4-0.8c2.2,0,3.9,0.6,4.9,1.8
		c1.1,1.2,1.6,2.8,1.6,4.8v9.9h-2.2l-0.2-2.2h-0.1c-0.9,0.7-1.9,1.3-3,1.8S593.1,280.3,592,280.3z M592.7,278.1
		c0.9,0,1.8-0.2,2.7-0.6c0.9-0.4,1.8-1,2.7-1.8v-4.3c-2.3,0.2-4.1,0.4-5.4,0.8s-2.3,0.8-2.8,1.4c-0.5,0.5-0.8,1.2-0.8,1.9
		c0,0.9,0.4,1.6,1.1,2S591.8,278.1,592.7,278.1z"/>
	<path class="st1" d="M613.8,268.4c-0.8,0-1.4-0.3-1.9-0.8c-0.5-0.5-0.8-1.2-0.8-2c0-0.8,0.3-1.5,0.8-2c0.5-0.5,1.2-0.8,1.9-0.8
		c0.8,0,1.4,0.3,1.9,0.8c0.5,0.5,0.8,1.2,0.8,2c0,0.8-0.3,1.5-0.8,2C615.1,268.1,614.5,268.4,613.8,268.4z M613.8,280.3
		c-0.8,0-1.4-0.3-1.9-0.8s-0.8-1.2-0.8-2c0-0.8,0.3-1.5,0.8-2c0.5-0.5,1.2-0.8,1.9-0.8c0.8,0,1.4,0.3,1.9,0.8c0.5,0.5,0.8,1.2,0.8,2
		c0,0.8-0.3,1.5-0.8,2S614.5,280.3,613.8,280.3z"/>
	<path class="st1" d="M654.4,280.3c-0.8,0-1.6-0.2-2.5-0.6c-0.9-0.4-1.7-0.9-2.5-1.6h-0.1l-0.2,1.8h-2.2v-23.7h2.7v6.5l-0.1,3.1h0.1
		c0.7-0.8,1.6-1.4,2.5-1.8c1-0.4,1.9-0.7,2.9-0.7c2.2,0,3.8,0.7,5,2.2c1.2,1.5,1.7,3.5,1.7,6c0,1.8-0.3,3.4-1,4.7s-1.6,2.3-2.7,3
		C656.8,280,655.6,280.3,654.4,280.3z M653.9,278c1.4,0,2.6-0.6,3.5-1.7c0.9-1.1,1.4-2.7,1.4-4.7c0-1.8-0.4-3.2-1.1-4.3
		c-0.7-1.1-1.9-1.6-3.5-1.6c-0.7,0-1.5,0.2-2.3,0.6c-0.8,0.4-1.6,1-2.5,1.8v8.1c0.8,0.7,1.6,1.2,2.3,1.5
		C652.7,277.9,653.3,278,653.9,278z"/>
	<path class="st1" d="M673.7,280.3c-1.4,0-2.7-0.3-3.9-1s-2.2-1.6-2.9-2.9c-0.7-1.3-1.1-2.8-1.1-4.6c0-1.8,0.4-3.4,1.1-4.6
		s1.7-2.2,2.9-2.9c1.2-0.7,2.5-1,3.9-1c1.4,0,2.7,0.3,3.9,1c1.2,0.7,2.2,1.6,2.9,2.9c0.7,1.3,1.1,2.8,1.1,4.6c0,1.8-0.4,3.3-1.1,4.6
		c-0.7,1.3-1.7,2.2-2.9,2.9C676.4,280,675.1,280.3,673.7,280.3z M673.7,278c1.6,0,2.8-0.6,3.7-1.7c0.9-1.1,1.4-2.6,1.4-4.5
		c0-1.9-0.5-3.4-1.4-4.5c-0.9-1.2-2.2-1.7-3.7-1.7c-1.6,0-2.8,0.6-3.7,1.7c-0.9,1.2-1.4,2.7-1.4,4.5c0,1.8,0.5,3.3,1.4,4.5
		C670.9,277.5,672.1,278,673.7,278z"/>
	<path class="st1" d="M693.6,280.3c-1.4,0-2.7-0.3-3.9-1s-2.2-1.6-2.9-2.9c-0.7-1.3-1.1-2.8-1.1-4.6c0-1.8,0.4-3.4,1.1-4.6
		s1.7-2.2,2.9-2.9c1.2-0.7,2.5-1,3.9-1c1.4,0,2.7,0.3,3.9,1c1.2,0.7,2.2,1.6,2.9,2.9c0.7,1.3,1.1,2.8,1.1,4.6c0,1.8-0.4,3.3-1.1,4.6
		c-0.7,1.3-1.7,2.2-2.9,2.9C696.4,280,695,280.3,693.6,280.3z M693.6,278c1.6,0,2.8-0.6,3.7-1.7c0.9-1.1,1.4-2.6,1.4-4.5
		c0-1.9-0.5-3.4-1.4-4.5c-0.9-1.2-2.2-1.7-3.7-1.7c-1.6,0-2.8,0.6-3.7,1.7c-0.9,1.2-1.4,2.7-1.4,4.5c0,1.8,0.5,3.3,1.4,4.5
		C690.8,277.5,692.1,278,693.6,278z"/>
	<path class="st1" d="M717.2,280.3c-1.7,0-3-0.5-3.9-1.5c-0.9-1-1.4-2.4-1.4-4.3v-16h-5.8v-2.2h8.5v18.5c0,1.2,0.3,2,0.9,2.6
		c0.6,0.5,1.4,0.8,2.3,0.8s2-0.2,3-0.7l0.7,2c-0.8,0.3-1.4,0.5-2.1,0.7C718.8,280.2,718,280.3,717.2,280.3z"/>
	<path class="st1" d="M730.9,287l-0.8-1.7c1.4-0.6,2.4-1.4,3.1-2.3c0.7-0.9,1.1-2,1.1-3.3c-0.1,0-0.2,0-0.3,0c-0.1,0-0.2,0-0.3,0
		c-0.7,0-1.3-0.2-1.8-0.6c-0.5-0.4-0.8-1-0.8-1.9s0.3-1.4,0.8-1.9c0.5-0.4,1.2-0.6,1.9-0.6c1,0,1.7,0.4,2.2,1.1s0.8,1.8,0.8,3.1
		c0,2-0.5,3.6-1.5,4.9C734.2,285.3,732.7,286.3,730.9,287z"/>
	<path class="st1" d="M594.5,320.2c-0.8,0-1.6-0.2-2.5-0.6c-0.9-0.4-1.7-0.9-2.5-1.6h-0.1l-0.2,1.8h-2.2v-23.7h2.7v6.5l-0.1,3.1h0.1
		c0.7-0.8,1.6-1.4,2.5-1.8c1-0.4,1.9-0.7,2.9-0.7c2.2,0,3.8,0.7,5,2.2c1.2,1.5,1.7,3.5,1.7,6c0,1.8-0.3,3.4-1,4.7s-1.6,2.3-2.7,3
		C596.9,319.9,595.7,320.2,594.5,320.2z M594,317.9c1.4,0,2.6-0.6,3.5-1.7c0.9-1.1,1.4-2.7,1.4-4.7c0-1.8-0.4-3.2-1.1-4.3
		c-0.7-1.1-1.9-1.6-3.5-1.6c-0.7,0-1.5,0.2-2.3,0.6c-0.8,0.4-1.6,1-2.5,1.8v8.1c0.8,0.7,1.6,1.2,2.3,1.5
		C592.8,317.8,593.4,317.9,594,317.9z"/>
	<path class="st1" d="M613.8,308.3c-0.8,0-1.4-0.3-1.9-0.8c-0.5-0.5-0.8-1.2-0.8-2c0-0.8,0.3-1.5,0.8-2c0.5-0.5,1.2-0.8,1.9-0.8
		c0.8,0,1.4,0.3,1.9,0.8c0.5,0.5,0.8,1.2,0.8,2c0,0.8-0.3,1.5-0.8,2C615.1,308.1,614.5,308.3,613.8,308.3z M613.8,320.2
		c-0.8,0-1.4-0.3-1.9-0.8s-0.8-1.2-0.8-2c0-0.8,0.3-1.5,0.8-2c0.5-0.5,1.2-0.8,1.9-0.8c0.8,0,1.4,0.3,1.9,0.8c0.5,0.5,0.8,1.2,0.8,2
		c0,0.8-0.3,1.5-0.8,2S614.5,320.2,613.8,320.2z"/>
	<path class="st1" d="M651.9,320.2c-1.9,0-3.3-0.6-4.3-1.7c-0.9-1.1-1.4-2.7-1.4-4.9v-10.1h2.8v9.7c0,1.5,0.3,2.7,0.8,3.4
		c0.6,0.7,1.5,1.1,2.9,1.1c0.9,0,1.8-0.2,2.5-0.7c0.8-0.5,1.6-1.2,2.5-2.3v-11.2h2.7v16.2h-2.2L658,317h-0.1c-0.8,1-1.7,1.7-2.7,2.3
		C654.2,319.9,653.1,320.2,651.9,320.2z"/>
	<path class="st1" d="M673.2,320.2c-1.8,0-3.4-0.3-4.6-0.9c-1.3-0.6-2.3-1.3-3-2.1l1.4-1.8c0.7,0.7,1.6,1.3,2.6,1.8
		c1,0.5,2.2,0.8,3.5,0.8c1.4,0,2.7-0.4,3.6-1.1c1-0.7,1.5-1.7,1.5-2.8c0-1.3-0.6-2.3-1.8-3.1c-1.2-0.8-3.2-1.2-6-1.2v-2.1
		c2.5,0,4.3-0.4,5.4-1.1c1.1-0.8,1.6-1.7,1.6-2.8c0-1-0.4-1.9-1.2-2.5c-0.8-0.6-1.8-0.9-3.1-0.9c-1,0-1.9,0.2-2.8,0.6
		c-0.9,0.4-1.7,0.9-2.4,1.6l-1.5-1.7c0.9-0.8,1.9-1.4,3-1.9c1.1-0.5,2.4-0.7,3.7-0.7c1.3,0,2.5,0.2,3.6,0.6c1.1,0.4,1.9,1,2.5,1.8
		c0.6,0.8,0.9,1.8,0.9,2.9c0,1.3-0.4,2.3-1.3,3.2c-0.9,0.8-1.9,1.5-3.2,1.9v0.1c1,0.2,1.8,0.5,2.6,1c0.8,0.5,1.4,1.1,1.9,1.8
		c0.5,0.7,0.7,1.6,0.7,2.6c0,1.2-0.3,2.3-1,3.2c-0.7,0.9-1.6,1.6-2.8,2.1C675.9,320,674.6,320.2,673.2,320.2z"/>
	<path class="st1" d="M686.1,319.8v-1.6c2.4-2.1,4.4-4,6.1-5.6c1.7-1.6,2.9-3,3.8-4.3c0.9-1.3,1.3-2.5,1.3-3.7c0-1.2-0.4-2.2-1.1-3
		c-0.8-0.8-1.9-1.2-3.5-1.2c-1,0-1.9,0.2-2.8,0.7c-0.9,0.5-1.6,1.1-2.3,1.8l-1.6-1.6c1-1,2-1.8,3.1-2.3c1.1-0.6,2.4-0.9,3.9-0.9
		c2.1,0,3.8,0.6,5.1,1.7c1.2,1.1,1.9,2.7,1.9,4.5c0,1.3-0.4,2.7-1.2,4c-0.8,1.4-2,2.8-3.4,4.3s-3.2,3.1-5.1,4.9c0.7,0,1.3-0.1,2-0.1
		c0.7,0,1.3-0.1,1.9-0.1h7v2.4H686.1z"/>
	<path class="st1" d="M710.9,326.9l-0.8-1.7c1.4-0.6,2.4-1.4,3.1-2.3c0.7-0.9,1.1-2,1.1-3.3c-0.1,0-0.2,0-0.3,0c-0.1,0-0.2,0-0.3,0
		c-0.7,0-1.3-0.2-1.8-0.6c-0.5-0.4-0.8-1-0.8-1.9s0.3-1.4,0.8-1.9c0.5-0.4,1.2-0.6,1.9-0.6c1,0,1.7,0.4,2.2,1.1s0.8,1.8,0.8,3.1
		c0,2-0.5,3.6-1.5,4.9C714.2,325.2,712.8,326.2,710.9,326.9z"/>
	<path class="st1" d="M595.3,360.2c-1.7,0-3.2-0.3-4.5-1c-1.3-0.7-2.4-1.6-3.2-2.9c-0.8-1.3-1.2-2.8-1.2-4.6c0-1.8,0.4-3.4,1.2-4.6
		c0.8-1.3,1.9-2.2,3.3-2.9c1.4-0.7,2.9-1,4.5-1c1.3,0,2.5,0.2,3.4,0.7c1,0.5,1.8,1,2.5,1.7l-1.4,1.8c-0.7-0.6-1.4-1-2.1-1.4
		c-0.7-0.3-1.5-0.5-2.3-0.5c-1.2,0-2.3,0.3-3.3,0.8c-0.9,0.5-1.7,1.3-2.2,2.2s-0.8,2-0.8,3.3c0,1.2,0.3,2.3,0.8,3.2
		c0.5,0.9,1.2,1.7,2.2,2.2s2,0.8,3.3,0.8c1,0,1.9-0.2,2.7-0.6s1.6-0.9,2.2-1.4l1.2,1.8c-0.9,0.8-1.9,1.4-3,1.9
		C597.7,359.9,596.5,360.2,595.3,360.2z"/>
	<path class="st1" d="M613.8,348.3c-0.8,0-1.4-0.3-1.9-0.8c-0.5-0.5-0.8-1.2-0.8-2c0-0.8,0.3-1.5,0.8-2c0.5-0.5,1.2-0.8,1.9-0.8
		c0.8,0,1.4,0.3,1.9,0.8c0.5,0.5,0.8,1.2,0.8,2c0,0.8-0.3,1.5-0.8,2C615.1,348,614.5,348.3,613.8,348.3z M613.8,360.2
		c-0.8,0-1.4-0.3-1.9-0.8s-0.8-1.2-0.8-2c0-0.8,0.3-1.5,0.8-2c0.5-0.5,1.2-0.8,1.9-0.8c0.8,0,1.4,0.3,1.9,0.8c0.5,0.5,0.8,1.2,0.8,2
		c0,0.8-0.3,1.5-0.8,2S614.5,360.2,613.8,360.2z"/>
	<path class="st1" d="M652.1,359.8l-7-21.8h2.9l3.5,11.8c0.4,1.3,0.7,2.5,1,3.6c0.3,1.1,0.7,2.3,1.1,3.6h0.1
		c0.4-1.3,0.8-2.5,1.1-3.6c0.3-1.1,0.7-2.3,1-3.6l3.5-11.8h2.8l-6.9,21.8H652.1z"/>
	<path class="st1" d="M674.7,360.2c-1.6,0-3.1-0.3-4.4-1c-1.3-0.7-2.4-1.6-3.1-2.9c-0.8-1.3-1.2-2.8-1.2-4.6c0-1.8,0.4-3.3,1.2-4.5
		s1.8-2.2,3-2.9s2.6-1,4-1c2.3,0,4.1,0.7,5.4,2.1s1.9,3.2,1.9,5.5c0,0.3,0,0.6,0,0.9c0,0.3-0.1,0.5-0.1,0.8h-12.7
		c0.2,1.8,0.8,3.2,2,4.1c1.2,0.9,2.6,1.4,4.3,1.4c1,0,1.9-0.1,2.6-0.4c0.8-0.3,1.5-0.6,2.3-1.1l1,1.8c-0.8,0.5-1.7,1-2.7,1.4
		C677.1,360,676,360.2,674.7,360.2z M674.3,345.4c-1.3,0-2.5,0.4-3.6,1.3c-1,0.9-1.7,2.1-1.9,3.7h10.3c-0.1-1.7-0.6-2.9-1.5-3.7
		S675.6,345.4,674.3,345.4z"/>
	<path class="st1" d="M695.2,360.2c-1.7,0-3.2-0.3-4.5-1c-1.3-0.7-2.4-1.6-3.2-2.9c-0.8-1.3-1.2-2.8-1.2-4.6c0-1.8,0.4-3.4,1.2-4.6
		c0.8-1.3,1.9-2.2,3.3-2.9c1.4-0.7,2.9-1,4.5-1c1.3,0,2.5,0.2,3.4,0.7c1,0.5,1.8,1,2.5,1.7l-1.4,1.8c-0.7-0.6-1.4-1-2.1-1.4
		c-0.7-0.3-1.5-0.5-2.3-0.5c-1.2,0-2.3,0.3-3.3,0.8c-0.9,0.5-1.7,1.3-2.2,2.2s-0.8,2-0.8,3.3c0,1.2,0.3,2.3,0.8,3.2
		c0.5,0.9,1.2,1.7,2.2,2.2s2,0.8,3.3,0.8c1,0,1.9-0.2,2.7-0.6s1.6-0.9,2.2-1.4l1.2,1.8c-0.9,0.8-1.9,1.4-3,1.9
		C697.5,359.9,696.4,360.2,695.2,360.2z"/>
	<path class="st1" d="M720,358.2l-12.4-8.4v-2.1l12.4-8.4v2.6l-10,6.8v0.1l10,6.8V358.2z"/>
	<path class="st1" d="M731.8,360.2c-1.9,0-3.3-0.6-4.3-1.7c-0.9-1.1-1.4-2.7-1.4-4.9v-10.1h2.8v9.7c0,1.5,0.3,2.7,0.8,3.4
		c0.6,0.7,1.5,1.1,2.9,1.1c0.9,0,1.8-0.2,2.5-0.7c0.8-0.5,1.6-1.2,2.5-2.3v-11.2h2.7v16.2h-2.2l-0.2-2.8h-0.1
		c-0.8,1-1.7,1.7-2.7,2.3C734.1,359.9,733,360.2,731.8,360.2z"/>
	<path class="st1" d="M753.1,360.2c-1.8,0-3.4-0.3-4.6-0.9c-1.3-0.6-2.3-1.3-3-2.1l1.4-1.8c0.7,0.7,1.6,1.3,2.6,1.8
		c1,0.5,2.2,0.8,3.5,0.8c1.4,0,2.7-0.4,3.6-1.1c1-0.7,1.5-1.7,1.5-2.8c0-1.3-0.6-2.3-1.8-3.1c-1.2-0.8-3.2-1.2-6-1.2v-2.1
		c2.5,0,4.3-0.4,5.4-1.1c1.1-0.8,1.6-1.7,1.6-2.8c0-1-0.4-1.9-1.2-2.5c-0.8-0.6-1.8-0.9-3.1-0.9c-1,0-1.9,0.2-2.8,0.6
		c-0.9,0.4-1.7,0.9-2.4,1.6l-1.5-1.7c0.9-0.8,1.9-1.4,3-1.9c1.1-0.5,2.4-0.7,3.7-0.7c1.3,0,2.5,0.2,3.6,0.6c1.1,0.4,1.9,1,2.5,1.8
		c0.6,0.8,0.9,1.8,0.9,2.9c0,1.3-0.4,2.3-1.3,3.2c-0.9,0.8-1.9,1.5-3.2,1.9v0.1c1,0.2,1.8,0.5,2.6,1c0.8,0.5,1.4,1.1,1.9,1.8
		c0.5,0.7,0.7,1.6,0.7,2.6c0,1.2-0.3,2.3-1,3.2c-0.7,0.9-1.6,1.6-2.8,2.1C755.8,359.9,754.5,360.2,753.1,360.2z"/>
	<path class="st1" d="M765.9,359.8v-1.6c2.4-2.1,4.4-4,6.1-5.6c1.7-1.6,2.9-3,3.8-4.3c0.9-1.3,1.3-2.5,1.3-3.7c0-1.2-0.4-2.2-1.1-3
		c-0.8-0.8-1.9-1.2-3.5-1.2c-1,0-1.9,0.2-2.8,0.7c-0.9,0.5-1.6,1.1-2.3,1.8l-1.6-1.6c1-1,2-1.8,3.1-2.3c1.1-0.6,2.4-0.9,3.9-0.9
		c2.1,0,3.8,0.6,5.1,1.7c1.2,1.1,1.9,2.7,1.9,4.5c0,1.3-0.4,2.7-1.2,4c-0.8,1.4-2,2.8-3.4,4.3s-3.2,3.1-5.1,4.9c0.7,0,1.3-0.1,2-0.1
		c0.7,0,1.3-0.1,1.9-0.1h7v2.4H765.9z"/>
	<path class="st1" d="M787,358.2v-2.6l10-6.8v-0.1l-10-6.8v-2.6l12.4,8.4v2.1L787,358.2z"/>
	<path class="st1" d="M810.8,366.9l-0.8-1.7c1.4-0.6,2.4-1.4,3.1-2.3c0.7-0.9,1.1-2,1.1-3.3c-0.1,0-0.2,0-0.3,0c-0.1,0-0.2,0-0.3,0
		c-0.7,0-1.3-0.2-1.8-0.6c-0.5-0.4-0.8-1-0.8-1.9s0.3-1.4,0.8-1.9c0.5-0.4,1.2-0.6,1.9-0.6c1,0,1.7,0.4,2.2,1.1s0.8,1.8,0.8,3.1
		c0,2-0.5,3.6-1.5,4.9C814,365.2,812.6,366.2,810.8,366.9z"/>
	<path class="st1" d="M592.8,400.1c-2.1,0-3.8-0.7-5.1-2.2c-1.3-1.5-1.9-3.6-1.9-6.2c0-1.8,0.3-3.3,1-4.5c0.7-1.3,1.6-2.3,2.7-2.9
		c1.1-0.7,2.3-1,3.6-1c1,0,1.9,0.2,2.6,0.5c0.8,0.4,1.5,0.9,2.2,1.5h0.1l-0.1-3V376h2.7v23.7h-2.3l-0.2-2.1h-0.1
		c-0.7,0.7-1.5,1.3-2.4,1.8C594.8,399.9,593.8,400.1,592.8,400.1z M593.4,397.8c1.6,0,3.1-0.8,4.6-2.4v-8.1
		c-0.7-0.7-1.4-1.2-2.1-1.5c-0.7-0.3-1.4-0.4-2.1-0.4c-0.9,0-1.8,0.3-2.5,0.8c-0.8,0.5-1.4,1.2-1.8,2.2c-0.5,0.9-0.7,2-0.7,3.2
		c0,1.9,0.4,3.4,1.3,4.5C590.7,397.3,591.9,397.8,593.4,397.8z"/>
	<path class="st1" d="M613.8,388.2c-0.8,0-1.4-0.3-1.9-0.8c-0.5-0.5-0.8-1.2-0.8-2c0-0.8,0.3-1.5,0.8-2c0.5-0.5,1.2-0.8,1.9-0.8
		c0.8,0,1.4,0.3,1.9,0.8c0.5,0.5,0.8,1.2,0.8,2c0,0.8-0.3,1.5-0.8,2C615.1,387.9,614.5,388.2,613.8,388.2z M613.8,400.1
		c-0.8,0-1.4-0.3-1.9-0.8s-0.8-1.2-0.8-2c0-0.8,0.3-1.5,0.8-2c0.5-0.5,1.2-0.8,1.9-0.8c0.8,0,1.4,0.3,1.9,0.8c0.5,0.5,0.8,1.2,0.8,2
		c0,0.8-0.3,1.5-0.8,2S614.5,400.1,613.8,400.1z"/>
	<path class="st1" d="M648.2,399.7v-21.8h2.7v19.5h10.8v2.4H648.2z"/>
	<path class="st1" d="M671.9,400.1c-1,0-1.9-0.2-2.7-0.5c-0.8-0.4-1.5-0.9-2-1.6c-0.5-0.7-0.7-1.5-0.7-2.5c0-1.2,0.4-2.2,1.2-3
		c0.8-0.8,2-1.5,3.8-1.9c1.7-0.5,4-0.8,6.8-1.1c0-0.7-0.2-1.4-0.4-2c-0.3-0.6-0.7-1.1-1.3-1.5c-0.6-0.4-1.5-0.6-2.5-0.6
		c-1,0-2.1,0.2-3,0.6c-1,0.4-1.9,0.8-2.6,1.3l-1.1-1.9c0.8-0.5,1.9-1.1,3.1-1.6c1.3-0.5,2.6-0.8,4-0.8c2.2,0,3.9,0.6,4.9,1.8
		c1.1,1.2,1.6,2.8,1.6,4.8v9.9h-2.2l-0.2-2.2h-0.1c-0.9,0.7-1.9,1.3-3,1.8S673,400.1,671.9,400.1z M672.6,397.9
		c0.9,0,1.8-0.2,2.7-0.6c0.9-0.4,1.8-1,2.7-1.8v-4.3c-2.3,0.2-4.1,0.4-5.4,0.8s-2.3,0.8-2.8,1.4c-0.5,0.5-0.8,1.2-0.8,1.9
		c0,0.9,0.4,1.6,1.1,2S671.7,397.9,672.6,397.9z"/>
	<path class="st1" d="M686,399.7v-1.5l11.1-12.5h-9.9v-2.2H701v1.5l-11.1,12.5h11.4v2.2H686z"/>
	<path class="st1" d="M708,406.7c-0.8,0-1.5-0.1-2.1-0.3l0.6-2.2c0.2,0.1,0.5,0.1,0.7,0.2c0.3,0,0.5,0.1,0.7,0.1
		c1.1,0,2.1-0.3,2.8-1c0.7-0.7,1.3-1.5,1.7-2.5l0.5-1.2l-7.6-16.2h2.8l4,9c0.3,0.7,0.6,1.5,1,2.3s0.7,1.6,1,2.4h0.1
		c0.3-0.8,0.6-1.6,0.9-2.4c0.3-0.8,0.6-1.6,0.8-2.3l3.5-9h2.6l-7.1,17.5c-0.4,1.1-0.9,2-1.5,2.9c-0.6,0.8-1.3,1.5-2.2,2
		C710.2,406.4,709.2,406.7,708,406.7z"/>
	<path class="st1" d="M740,398.1l-12.4-8.4v-2.1l12.4-8.4v2.6l-10,6.8v0.1l10,6.8V398.1z"/>
	<path class="st1" d="M745.9,399.7v-21.8h3.4l3.1,9.3l1.1,3.5h0.1l1-3.5l3.1-9.3h3.4v21.8h-2.7v-10.9c0-0.7,0-1.5,0.1-2.5
		c0.1-1,0.1-1.9,0.2-2.9c0.1-0.9,0.1-1.7,0.2-2.3h-0.1l-1.2,4.3l-3.1,8.6h-2l-3.1-8.6l-1.3-4.3h-0.1c0.1,0.6,0.1,1.4,0.2,2.3
		c0.1,0.9,0.1,1.9,0.2,2.9c0.1,1,0.1,1.8,0.1,2.5v10.9H745.9z"/>
	<path class="st1" d="M767.9,406.7c-0.8,0-1.5-0.1-2.1-0.3l0.6-2.2c0.2,0.1,0.5,0.1,0.7,0.2c0.3,0,0.5,0.1,0.7,0.1
		c1.1,0,2.1-0.3,2.8-1c0.7-0.7,1.3-1.5,1.7-2.5l0.5-1.2l-7.6-16.2h2.8l4,9c0.3,0.7,0.6,1.5,1,2.3s0.7,1.6,1,2.4h0.1
		c0.3-0.8,0.6-1.6,0.9-2.4c0.3-0.8,0.6-1.6,0.8-2.3l3.5-9h2.6l-7.1,17.5c-0.4,1.1-0.9,2-1.5,2.9c-0.6,0.8-1.3,1.5-2.2,2
		C770.1,406.4,769.1,406.7,767.9,406.7z"/>
	<path class="st1" d="M792.1,399.7v-19.5h-7.2v-2.3H802v2.3h-7.2v19.5H792.1z"/>
	<path class="st1" d="M807.8,406.7c-0.8,0-1.5-0.1-2.1-0.3l0.6-2.2c0.2,0.1,0.5,0.1,0.7,0.2c0.3,0,0.5,0.1,0.7,0.1
		c1.1,0,2.1-0.3,2.8-1c0.7-0.7,1.3-1.5,1.7-2.5l0.5-1.2l-7.6-16.2h2.8l4,9c0.3,0.7,0.6,1.5,1,2.3s0.7,1.6,1,2.4h0.1
		c0.3-0.8,0.6-1.6,0.9-2.4c0.3-0.8,0.6-1.6,0.8-2.3l3.5-9h2.6l-7.1,17.5c-0.4,1.1-0.9,2-1.5,2.9c-0.6,0.8-1.3,1.5-2.2,2
		C810.1,406.4,809,406.7,807.8,406.7z"/>
	<path class="st1" d="M826.5,406.5v-23h2.3l0.2,2.1h0.1c0.8-0.7,1.6-1.3,2.6-1.8c1-0.5,2-0.7,3-0.7c2.2,0,3.8,0.7,5,2.2
		s1.7,3.5,1.7,6c0,1.8-0.3,3.4-1,4.7s-1.6,2.3-2.7,3c-1.1,0.7-2.3,1-3.6,1c-0.8,0-1.6-0.2-2.4-0.5c-0.9-0.4-1.7-0.9-2.4-1.5h-0.1
		l0.1,3.1v5.5H826.5z M833.6,397.8c1.4,0,2.6-0.6,3.6-1.7c0.9-1.1,1.4-2.7,1.4-4.7c0-1.8-0.4-3.2-1.1-4.3c-0.7-1.1-1.9-1.6-3.5-1.6
		c-0.7,0-1.5,0.2-2.3,0.6c-0.8,0.4-1.6,1-2.5,1.8v8.1c0.8,0.7,1.6,1.2,2.3,1.5C832.3,397.7,833,397.8,833.6,397.8z"/>
	<path class="st1" d="M854.4,400.1c-1.6,0-3.1-0.3-4.4-1c-1.3-0.7-2.4-1.6-3.1-2.9c-0.8-1.3-1.2-2.8-1.2-4.6c0-1.8,0.4-3.3,1.2-4.5
		s1.8-2.2,3-2.9s2.6-1,4-1c2.3,0,4.1,0.7,5.4,2.1s1.9,3.2,1.9,5.5c0,0.3,0,0.6,0,0.9c0,0.3-0.1,0.5-0.1,0.8h-12.7
		c0.2,1.8,0.8,3.2,2,4.1c1.2,0.9,2.6,1.4,4.3,1.4c1,0,1.9-0.1,2.6-0.4c0.8-0.3,1.5-0.6,2.3-1.1l1,1.8c-0.8,0.5-1.7,1-2.7,1.4
		C856.8,399.9,855.7,400.1,854.4,400.1z M854,385.3c-1.3,0-2.5,0.4-3.6,1.3c-1,0.9-1.7,2.1-1.9,3.7h10.3c-0.1-1.7-0.6-2.9-1.5-3.7
		S855.3,385.3,854,385.3z"/>
	<path class="st1" d="M866.9,398.1v-2.6l10-6.8v-0.1l-10-6.8v-2.6l12.4,8.4v2.1L866.9,398.1z"/>
	<path class="st1" d="M507.2,444.7v-1.6h1.7c1.1,0,2-0.1,2.6-0.3c0.6-0.2,1-0.5,1.2-1c0.2-0.5,0.3-1,0.3-1.7c0-1,0-2-0.1-2.9
		c-0.1-0.9-0.1-2-0.1-3.1c0-1.1,0.2-1.9,0.6-2.5c0.4-0.6,1.2-0.9,2.4-1.1v-0.1c-1.2-0.2-1.9-0.6-2.4-1.1c-0.4-0.6-0.6-1.4-0.6-2.5
		c0-1,0-2.1,0.1-3.1c0.1-1,0.1-2,0.1-2.9c0-0.7-0.1-1.3-0.3-1.8c-0.2-0.4-0.6-0.8-1.2-1c-0.6-0.2-1.5-0.3-2.6-0.3h-1.7v-1.6h2
		c2.1,0,3.6,0.3,4.6,0.9c1,0.6,1.5,1.8,1.5,3.5c0,1.2,0,2.3-0.1,3.3c-0.1,1-0.2,2.1-0.2,3.1c0,0.4,0.1,0.8,0.4,1.2s0.7,0.7,1.4,1
		c0.7,0.2,1.7,0.4,3,0.4v1.7c-1.3,0-2.3,0.1-3,0.4c-0.7,0.3-1.2,0.6-1.4,1c-0.3,0.4-0.4,0.8-0.4,1.2c0,1.1,0,2.2,0.2,3.1
		c0.1,1,0.1,2.1,0.1,3.3c0,1.7-0.5,2.9-1.5,3.5c-1,0.6-2.5,0.9-4.6,0.9H507.2z"/>
</g>
<g>
	<path class="st1" d="M506.3,586v-21.8h3.4l3.1,9.3l1.1,3.5h0.1l1-3.5l3.1-9.3h3.4V586h-2.7V575c0-0.7,0-1.5,0.1-2.5
		c0.1-1,0.1-1.9,0.2-2.9c0.1-0.9,0.1-1.7,0.2-2.3h-0.1l-1.2,4.3l-3.1,8.6h-2l-3.1-8.6l-1.3-4.3h-0.1c0.1,0.6,0.1,1.4,0.2,2.3
		s0.1,1.9,0.2,2.9c0.1,1,0.1,1.8,0.1,2.5V586H506.3z"/>
	<path class="st1" d="M528.3,592.9c-0.8,0-1.5-0.1-2.1-0.3l0.6-2.2c0.2,0.1,0.5,0.1,0.7,0.2c0.3,0,0.5,0.1,0.7,0.1
		c1.1,0,2.1-0.3,2.8-1c0.7-0.7,1.3-1.5,1.7-2.5l0.5-1.2l-7.6-16.2h2.8l4,9c0.3,0.7,0.6,1.5,1,2.3c0.3,0.8,0.7,1.6,1,2.4h0.1
		c0.3-0.8,0.6-1.6,0.9-2.4s0.6-1.6,0.8-2.3l3.5-9h2.6l-7.1,17.5c-0.4,1.1-0.9,2-1.5,2.9c-0.6,0.8-1.3,1.5-2.2,2
		C530.5,592.7,529.5,592.9,528.3,592.9z"/>
	<path class="st1" d="M552.5,586v-19.5h-7.2v-2.3h17.2v2.3h-7.2V586H552.5z"/>
	<path class="st1" d="M568.2,592.9c-0.8,0-1.5-0.1-2.1-0.3l0.6-2.2c0.2,0.1,0.5,0.1,0.7,0.2c0.3,0,0.5,0.1,0.7,0.1
		c1.1,0,2.1-0.3,2.8-1c0.7-0.7,1.3-1.5,1.7-2.5l0.5-1.2l-7.6-16.2h2.8l4,9c0.3,0.7,0.6,1.5,1,2.3c0.3,0.8,0.7,1.6,1,2.4h0.1
		c0.3-0.8,0.6-1.6,0.9-2.4s0.6-1.6,0.8-2.3l3.5-9h2.6l-7.1,17.5c-0.4,1.1-0.9,2-1.5,2.9c-0.6,0.8-1.3,1.5-2.2,2
		C570.5,592.7,569.4,592.9,568.2,592.9z"/>
	<path class="st1" d="M586.9,592.8v-23h2.3l0.2,2.1h0.1c0.8-0.7,1.6-1.3,2.6-1.8c1-0.5,2-0.7,3-0.7c2.2,0,3.8,0.7,5,2.2
		c1.1,1.5,1.7,3.5,1.7,6c0,1.8-0.3,3.4-1,4.7c-0.7,1.3-1.6,2.3-2.7,3c-1.1,0.7-2.3,1-3.6,1c-0.8,0-1.6-0.2-2.4-0.5
		c-0.9-0.4-1.7-0.9-2.4-1.5h-0.1l0.1,3.1v5.5H586.9z M594,584.1c1.4,0,2.6-0.6,3.6-1.7s1.4-2.7,1.4-4.7c0-1.8-0.4-3.2-1.1-4.3
		c-0.7-1.1-1.9-1.6-3.5-1.6c-0.7,0-1.5,0.2-2.3,0.6c-0.8,0.4-1.6,1-2.5,1.8v8.1c0.8,0.7,1.6,1.2,2.3,1.5S593.4,584.1,594,584.1z"/>
	<path class="st1" d="M614.8,586.4c-1.6,0-3.1-0.3-4.4-1c-1.3-0.7-2.4-1.6-3.1-2.9c-0.8-1.3-1.2-2.8-1.2-4.6c0-1.8,0.4-3.3,1.2-4.5
		s1.8-2.2,3-2.9s2.6-1,4-1c2.3,0,4.1,0.7,5.4,2.1s1.9,3.2,1.9,5.5c0,0.3,0,0.6,0,0.9c0,0.3-0.1,0.5-0.1,0.8h-12.7
		c0.2,1.8,0.8,3.2,2,4.1c1.2,0.9,2.6,1.4,4.3,1.4c1,0,1.9-0.1,2.6-0.4c0.8-0.3,1.5-0.6,2.3-1.1l1,1.8c-0.8,0.5-1.7,1-2.7,1.4
		C617.2,586.2,616.1,586.4,614.8,586.4z M614.4,571.6c-1.3,0-2.5,0.4-3.6,1.3c-1,0.9-1.7,2.1-1.9,3.7h10.3c-0.1-1.7-0.6-2.9-1.5-3.7
		C616.8,572,615.7,571.6,614.4,571.6z"/>
</g>
<g>
	<path class="st2" d="M459.1,705.7c-1.1,0-2-0.9-2-2v-617c0-1.1,0.9-2,2-2s2,0.9,2,2v617C461.1,704.8,460.2,705.7,459.1,705.7z"/>
</g>
<g>
	<path class="st2" d="M933.6,176.7h-858c-1.1,0-2-0.9-2-2s0.9-2,2-2h858c1.1,0,2,0.9,2,2S934.7,176.7,933.6,176.7z"/>
</g>
<g>
	<path class="st2" d="M707.6,522.7h-632c-1.1,0-2-0.9-2-2s0.9-2,2-2h632c1.1,0,2,0.9,2,2S708.7,522.7,707.6,522.7z"/>
</g>
<g>
	<path class="st1" d="M108.7,143.5c-2.5,0-5-0.4-7.3-1.1c-2.3-0.7-4.2-1.7-5.5-2.8l2.1-4.7c1.3,1,2.9,1.9,4.8,2.6
		c1.9,0.7,3.9,1,5.9,1c1.7,0,3.1-0.2,4.1-0.6c1.1-0.4,1.8-0.9,2.3-1.5c0.5-0.6,0.7-1.4,0.7-2.2c0-1-0.4-1.8-1.1-2.4
		c-0.7-0.6-1.6-1.1-2.8-1.4c-1.1-0.4-2.4-0.7-3.8-1c-1.4-0.3-2.8-0.7-4.1-1.1c-1.4-0.4-2.6-1-3.8-1.6c-1.1-0.7-2.1-1.6-2.8-2.7
		c-0.7-1.1-1.1-2.5-1.1-4.3c0-1.8,0.5-3.4,1.4-4.9c0.9-1.5,2.4-2.7,4.3-3.5c1.9-0.9,4.4-1.3,7.4-1.3c2,0,3.9,0.2,5.8,0.7
		c1.9,0.5,3.6,1.2,5,2.1l-1.9,4.7c-1.5-0.9-3-1.5-4.5-1.9c-1.6-0.4-3-0.6-4.5-0.6c-1.7,0-3,0.2-4.1,0.6c-1,0.4-1.8,0.9-2.3,1.6
		c-0.5,0.7-0.7,1.4-0.7,2.2c0,1,0.3,1.8,1,2.4c0.7,0.6,1.6,1.1,2.8,1.4c1.1,0.3,2.4,0.7,3.8,1c1.4,0.3,2.8,0.7,4.2,1.1
		c1.4,0.4,2.6,0.9,3.8,1.6s2.1,1.5,2.8,2.7c0.7,1.1,1,2.5,1,4.2c0,1.7-0.5,3.3-1.4,4.8c-0.9,1.5-2.4,2.7-4.4,3.5
		C114.2,143.1,111.7,143.5,108.7,143.5z"/>
	<path class="st1" d="M124.1,123v-4.7h16.6v4.7H124.1z M136.7,143.4c-2.7,0-4.8-0.7-6.3-2.1c-1.5-1.4-2.2-3.5-2.2-6.3v-22.3h5.8
		v22.2c0,1.2,0.3,2.1,0.9,2.8c0.6,0.7,1.5,1,2.5,1c1.3,0,2.4-0.3,3.3-1l1.6,4.1c-0.7,0.6-1.5,1-2.5,1.3
		C138.8,143.2,137.8,143.4,136.7,143.4z"/>
	<path class="st1" d="M157.5,143.4c-2.5,0-4.8-0.6-6.8-1.7c-2-1.1-3.6-2.6-4.7-4.5c-1.2-1.9-1.7-4.1-1.7-6.6c0-2.5,0.6-4.7,1.7-6.6
		c1.1-1.9,2.7-3.4,4.7-4.5c2-1.1,4.3-1.6,6.8-1.6c2.6,0,4.9,0.5,6.9,1.6c2,1.1,3.6,2.6,4.7,4.5c1.1,1.9,1.7,4.1,1.7,6.6
		c0,2.5-0.6,4.6-1.7,6.6c-1.1,1.9-2.7,3.4-4.7,4.5C162.4,142.8,160.1,143.4,157.5,143.4z M157.5,138.4c1.4,0,2.7-0.3,3.8-0.9
		c1.1-0.6,2-1.5,2.6-2.7c0.6-1.2,1-2.6,1-4.1c0-1.6-0.3-3-1-4.2c-0.6-1.2-1.5-2.1-2.6-2.7c-1.1-0.6-2.4-0.9-3.8-0.9
		c-1.4,0-2.7,0.3-3.8,0.9c-1.1,0.6-2,1.5-2.6,2.7c-0.7,1.2-1,2.6-1,4.2c0,1.6,0.3,3,1,4.1c0.7,1.2,1.5,2.1,2.6,2.7
		C154.8,138.1,156.1,138.4,157.5,138.4z"/>
	<path class="st1" d="M176.4,143.1v-24.9h5.5v6.9l-0.7-2c0.7-1.7,1.9-3,3.5-3.8c1.6-0.9,3.6-1.3,6-1.3v5.5c-0.2-0.1-0.5-0.1-0.7-0.1
		c-0.2,0-0.4,0-0.7,0c-2.2,0-4,0.6-5.3,1.9c-1.3,1.3-2,3.2-2,5.8v12.1H176.4z"/>
	<path class="st1" d="M201.5,143.4c-1.9,0-3.5-0.3-4.9-1s-2.5-1.5-3.2-2.7c-0.8-1.1-1.1-2.4-1.1-3.8c0-1.4,0.3-2.7,1-3.8
		c0.7-1.1,1.8-2,3.3-2.7c1.5-0.7,3.5-1,6.1-1h7.2v3.9h-6.8c-2,0-3.3,0.3-4,1c-0.7,0.6-1,1.4-1,2.4c0,1.1,0.4,1.9,1.3,2.5
		c0.8,0.6,2,0.9,3.5,0.9c1.4,0,2.7-0.3,3.8-1c1.1-0.7,2-1.6,2.4-2.9l1,3.5c-0.6,1.5-1.6,2.6-3,3.4
		C205.5,143,203.7,143.4,201.5,143.4z M209.3,143.1v-5L209,137v-8.8c0-1.7-0.5-3-1.5-4c-1-0.9-2.6-1.4-4.7-1.4
		c-1.4,0-2.8,0.2-4.1,0.7c-1.4,0.4-2.5,1-3.4,1.8l-2.3-4.2c1.3-1,2.9-1.8,4.8-2.3c1.8-0.5,3.8-0.8,5.8-0.8c3.6,0,6.4,0.9,8.4,2.6
		c2,1.7,3,4.4,3,8v14.6H209.3z"/>
	<path class="st1" d="M232.8,141.9c-2.4,0-4.5-0.5-6.4-1.5c-1.9-1-3.4-2.4-4.5-4.2c-1.1-1.8-1.7-3.9-1.7-6.3c0-2.4,0.6-4.5,1.7-6.3
		c1.1-1.8,2.6-3.2,4.5-4.2c1.9-1,4-1.5,6.4-1.5c2.1,0,4,0.4,5.7,1.3c1.7,0.8,3,2.1,4,3.9c1,1.8,1.5,4,1.5,6.8c0,2.8-0.5,5-1.5,6.8
		c-1,1.8-2.4,3.1-4,4C236.8,141.5,234.9,141.9,232.8,141.9z M233.6,152.4c-2.3,0-4.5-0.3-6.7-0.9c-2.2-0.6-4-1.5-5.4-2.6l2.6-4.4
		c1.1,0.9,2.5,1.6,4.1,2.2c1.7,0.5,3.3,0.8,5.1,0.8c2.7,0,4.7-0.6,6-1.9c1.3-1.3,1.9-3.1,1.9-5.7v-4.4l0.5-5.6l-0.2-5.6v-6.1h5.5
		v21.1c0,4.5-1.2,7.8-3.5,10C241.3,151.4,237.9,152.4,233.6,152.4z M233.7,137c1.5,0,2.8-0.3,3.9-0.9c1.1-0.6,2-1.4,2.7-2.5
		c0.6-1.1,1-2.3,1-3.7s-0.3-2.6-1-3.7c-0.6-1.1-1.5-1.9-2.7-2.5c-1.2-0.6-2.5-0.9-3.9-0.9c-1.5,0-2.8,0.3-3.9,0.9
		c-1.2,0.6-2.1,1.4-2.7,2.5c-0.6,1.1-1,2.3-1,3.7s0.3,2.6,1,3.7c0.6,1.1,1.5,1.9,2.7,2.5C230.9,136.7,232.3,137,233.7,137z"/>
	<path class="st1" d="M266.4,143.4c-2.8,0-5.2-0.6-7.3-1.7c-2.1-1.1-3.7-2.6-4.8-4.5c-1.1-1.9-1.7-4.1-1.7-6.6
		c0-2.5,0.6-4.7,1.7-6.6c1.1-1.9,2.6-3.4,4.6-4.5c1.9-1.1,4.2-1.6,6.6-1.6c2.4,0,4.6,0.5,6.5,1.6c1.9,1.1,3.4,2.5,4.5,4.5
		c1.1,1.9,1.6,4.2,1.6,6.8c0,0.2,0,0.5,0,0.8c0,0.3,0,0.6-0.1,0.9h-20.7v-3.9h17.7l-2.3,1.2c0-1.4-0.3-2.7-0.9-3.8
		c-0.6-1.1-1.5-1.9-2.5-2.6c-1.1-0.6-2.3-0.9-3.7-0.9c-1.4,0-2.7,0.3-3.8,0.9c-1.1,0.6-1.9,1.5-2.5,2.6c-0.6,1.1-0.9,2.4-0.9,3.9
		v0.9c0,1.5,0.3,2.8,1,4c0.7,1.2,1.6,2,2.9,2.7c1.2,0.6,2.7,0.9,4.3,0.9c1.4,0,2.7-0.2,3.8-0.7c1.1-0.4,2.1-1.1,3-2.1l3.1,3.6
		c-1.1,1.3-2.5,2.3-4.2,3C270.5,143,268.5,143.4,266.4,143.4z"/>
	<path class="st1" d="M312.2,143.5c-2.5,0-4.8-0.4-6.9-1.2c-2.1-0.8-4-2-5.5-3.5c-1.6-1.5-2.8-3.3-3.7-5.3c-0.9-2.1-1.3-4.3-1.3-6.7
		c0-2.4,0.4-4.7,1.3-6.7c0.9-2.1,2.1-3.8,3.7-5.3c1.6-1.5,3.4-2.7,5.5-3.5c2.1-0.8,4.4-1.2,6.9-1.2c2.7,0,5.1,0.5,7.3,1.4
		c2.2,0.9,4.1,2.3,5.6,4.1l-3.9,3.7c-1.2-1.3-2.5-2.2-4-2.9c-1.5-0.6-3-1-4.8-1c-1.7,0-3.3,0.3-4.7,0.8c-1.4,0.6-2.6,1.4-3.7,2.4
		c-1,1-1.8,2.2-2.4,3.6c-0.6,1.4-0.9,2.9-0.9,4.6s0.3,3.2,0.9,4.6c0.6,1.4,1.4,2.6,2.4,3.6c1,1,2.3,1.8,3.7,2.4
		c1.4,0.6,3,0.8,4.7,0.8c1.7,0,3.3-0.3,4.8-1c1.5-0.6,2.8-1.6,4-2.9l3.9,3.7c-1.5,1.8-3.4,3.1-5.6,4.1
		C317.4,143.1,314.9,143.5,312.2,143.5z"/>
	<path class="st1" d="M341.2,143.4c-2.8,0-5.2-0.6-7.3-1.7c-2.1-1.1-3.7-2.6-4.8-4.5c-1.1-1.9-1.7-4.1-1.7-6.6
		c0-2.5,0.6-4.7,1.7-6.6c1.1-1.9,2.6-3.4,4.6-4.5c1.9-1.1,4.2-1.6,6.6-1.6c2.4,0,4.6,0.5,6.5,1.6c1.9,1.1,3.4,2.5,4.5,4.5
		c1.1,1.9,1.6,4.2,1.6,6.8c0,0.2,0,0.5,0,0.8c0,0.3,0,0.6-0.1,0.9h-20.7v-3.9h17.7l-2.3,1.2c0-1.4-0.3-2.7-0.9-3.8
		c-0.6-1.1-1.5-1.9-2.5-2.6c-1.1-0.6-2.3-0.9-3.7-0.9c-1.4,0-2.7,0.3-3.8,0.9c-1.1,0.6-1.9,1.5-2.5,2.6c-0.6,1.1-0.9,2.4-0.9,3.9
		v0.9c0,1.5,0.3,2.8,1,4c0.7,1.2,1.6,2,2.9,2.7c1.2,0.6,2.7,0.9,4.3,0.9c1.4,0,2.7-0.2,3.8-0.7c1.1-0.4,2.1-1.1,3-2.1l3.1,3.6
		c-1.1,1.3-2.5,2.3-4.2,3C345.3,143,343.4,143.4,341.2,143.4z"/>
	<path class="st1" d="M358.5,143.1v-34.6h5.8v34.6H358.5z"/>
	<path class="st1" d="M372,143.1v-34.6h5.8v34.6H372z"/>
</g>
<g>
	<path class="st2" d="M810.5,547.5v-24.3h4v4.2l-0.1,4.7l0.3,4.7v10.6H810.5z M820.4,541.3c-1.4,0-2.8-0.3-4-1s-2.1-1.7-2.8-3
		c-0.7-1.3-1.1-3.1-1.1-5.1c0-2.1,0.3-3.8,1-5.1c0.7-1.3,1.6-2.3,2.8-3c1.2-0.7,2.5-1,4-1c1.8,0,3.3,0.4,4.7,1.1
		c1.3,0.8,2.4,1.8,3.2,3.2c0.8,1.4,1.2,3,1.2,4.8c0,1.8-0.4,3.5-1.2,4.8c-0.8,1.4-1.9,2.4-3.2,3.2
		C823.7,540.9,822.2,541.3,820.4,541.3z M819.9,537.7c1,0,1.9-0.2,2.7-0.7c0.8-0.4,1.4-1.1,1.9-1.9s0.7-1.8,0.7-3
		c0-1.2-0.2-2.2-0.7-3c-0.5-0.8-1.1-1.5-1.9-1.9c-0.8-0.4-1.7-0.7-2.7-0.7c-1,0-1.9,0.2-2.7,0.7c-0.8,0.4-1.4,1.1-1.9,1.9
		c-0.5,0.8-0.7,1.8-0.7,3c0,1.1,0.2,2.1,0.7,3c0.5,0.8,1.1,1.5,1.9,1.9C818,537.5,818.9,537.7,819.9,537.7z"/>
	<path class="st2" d="M841.4,541.3c-1.8,0-3.4-0.4-4.9-1.2s-2.5-1.9-3.4-3.3c-0.8-1.4-1.2-2.9-1.2-4.7c0-1.8,0.4-3.4,1.2-4.7
		c0.8-1.4,1.9-2.4,3.4-3.2c1.4-0.8,3-1.2,4.9-1.2c1.8,0,3.5,0.4,4.9,1.2c1.4,0.8,2.6,1.8,3.4,3.2c0.8,1.4,1.2,2.9,1.2,4.7
		c0,1.8-0.4,3.3-1.2,4.7c-0.8,1.4-1.9,2.5-3.4,3.3C844.9,540.9,843.2,541.3,841.4,541.3z M841.4,537.7c1,0,1.9-0.2,2.7-0.7
		c0.8-0.4,1.4-1.1,1.9-1.9c0.5-0.8,0.7-1.8,0.7-3c0-1.2-0.2-2.2-0.7-3c-0.5-0.8-1.1-1.5-1.9-1.9c-0.8-0.4-1.7-0.7-2.7-0.7
		c-1,0-1.9,0.2-2.7,0.7c-0.8,0.4-1.4,1.1-1.9,1.9c-0.5,0.8-0.7,1.8-0.7,3c0,1.1,0.2,2.1,0.7,3s1.1,1.5,1.9,1.9
		C839.5,537.5,840.4,537.7,841.4,537.7z"/>
	<path class="st2" d="M857,520.3c-0.8,0-1.4-0.2-1.9-0.7s-0.8-1.1-0.8-1.8c0-0.7,0.2-1.3,0.8-1.8c0.5-0.5,1.1-0.7,1.9-0.7
		s1.4,0.2,1.9,0.7s0.8,1,0.8,1.7c0,0.7-0.2,1.4-0.7,1.9C858.5,520.1,857.8,520.3,857,520.3z M854.9,541.1v-17.8h4.2v17.8H854.9z"/>
	<path class="st2" d="M874.6,523c1.4,0,2.7,0.3,3.8,0.8c1.1,0.6,2,1.4,2.7,2.6c0.6,1.1,1,2.6,1,4.4v10.2h-4.2v-9.7
		c0-1.6-0.4-2.8-1.1-3.5c-0.7-0.8-1.8-1.2-3.1-1.2c-1,0-1.8,0.2-2.6,0.6s-1.3,1-1.8,1.8s-0.6,1.8-0.6,3v9h-4.2v-17.8h4v4.8l-0.7-1.5
		c0.6-1.1,1.5-2,2.7-2.6C871.7,523.4,873.1,523,874.6,523z"/>
	<path class="st2" d="M885,526.7v-3.3h11.9v3.3H885z M894.1,541.3c-2,0-3.5-0.5-4.5-1.5c-1.1-1-1.6-2.5-1.6-4.5v-16h4.2v15.9
		c0,0.8,0.2,1.5,0.7,2s1,0.7,1.8,0.7c0.9,0,1.7-0.2,2.3-0.7l1.2,3c-0.5,0.4-1.1,0.7-1.8,0.9C895.6,541.2,894.8,541.3,894.1,541.3z"
		/>
	<path class="st2" d="M909.3,541.3c-2,0-3.7-0.4-5.2-1.2s-2.6-1.9-3.4-3.3c-0.8-1.4-1.2-2.9-1.2-4.7c0-1.8,0.4-3.4,1.2-4.7
		c0.8-1.4,1.9-2.4,3.3-3.2c1.4-0.8,3-1.2,4.8-1.2c1.7,0,3.3,0.4,4.6,1.1c1.4,0.8,2.4,1.8,3.2,3.2c0.8,1.4,1.2,3,1.2,4.9
		c0,0.2,0,0.4,0,0.6c0,0.2,0,0.4,0,0.6h-14.8v-2.8h12.6l-1.6,0.9c0-1-0.2-1.9-0.6-2.7s-1-1.4-1.8-1.8c-0.8-0.4-1.7-0.7-2.7-0.7
		c-1,0-1.9,0.2-2.7,0.7c-0.8,0.4-1.4,1.1-1.8,1.9c-0.4,0.8-0.7,1.7-0.7,2.8v0.7c0,1.1,0.2,2,0.7,2.8c0.5,0.8,1.2,1.5,2.1,1.9
		c0.9,0.4,1.9,0.7,3.1,0.7c1,0,1.9-0.2,2.7-0.5c0.8-0.3,1.5-0.8,2.1-1.5l2.2,2.6c-0.8,0.9-1.8,1.7-3,2.2
		C912.2,541,910.9,541.3,909.3,541.3z"/>
	<path class="st2" d="M921.7,541.1v-17.8h4v4.9l-0.5-1.4c0.5-1.2,1.4-2.1,2.5-2.7c1.1-0.6,2.6-0.9,4.3-0.9v4c-0.2,0-0.3-0.1-0.5-0.1
		c-0.2,0-0.3,0-0.5,0c-1.6,0-2.8,0.5-3.8,1.4c-0.9,0.9-1.4,2.3-1.4,4.1v8.6H921.7z"/>
	<path class="st2" d="M808.2,566.7v-3.3H820v3.3H808.2z M817.2,581.3c-2,0-3.5-0.5-4.5-1.5c-1.1-1-1.6-2.5-1.6-4.5v-16h4.2v15.9
		c0,0.8,0.2,1.5,0.7,2s1,0.7,1.8,0.7c0.9,0,1.7-0.2,2.3-0.7l1.2,3c-0.5,0.4-1.1,0.7-1.8,0.9C818.7,581.2,818,581.3,817.2,581.3z"/>
	<path class="st2" d="M832.1,581.3c-1.8,0-3.4-0.4-4.9-1.2s-2.5-1.9-3.4-3.3c-0.8-1.4-1.2-2.9-1.2-4.7c0-1.8,0.4-3.4,1.2-4.7
		c0.8-1.4,1.9-2.4,3.4-3.2c1.4-0.8,3-1.2,4.9-1.2c1.8,0,3.5,0.4,4.9,1.2c1.4,0.8,2.6,1.8,3.4,3.2c0.8,1.4,1.2,2.9,1.2,4.7
		c0,1.8-0.4,3.3-1.2,4.7c-0.8,1.4-1.9,2.5-3.4,3.3C835.6,580.9,833.9,581.3,832.1,581.3z M832.1,577.7c1,0,1.9-0.2,2.7-0.7
		c0.8-0.4,1.4-1.1,1.9-1.9c0.5-0.8,0.7-1.8,0.7-3c0-1.2-0.2-2.2-0.7-3c-0.5-0.8-1.1-1.5-1.9-1.9c-0.8-0.4-1.7-0.7-2.7-0.7
		c-1,0-1.9,0.2-2.7,0.7c-0.8,0.4-1.4,1.1-1.9,1.9c-0.5,0.8-0.7,1.8-0.7,3c0,1.1,0.2,2.1,0.7,3s1.1,1.5,1.9,1.9
		C830.2,577.5,831.1,577.7,832.1,577.7z"/>
	<path class="st2" d="M864.9,563.1c1.4,0,2.7,0.3,3.8,0.8c1.1,0.6,2,1.4,2.7,2.6c0.6,1.1,1,2.6,1,4.4v10.2h-4.2v-9.7
		c0-1.6-0.4-2.8-1.1-3.5c-0.7-0.8-1.8-1.2-3.1-1.2c-1,0-1.8,0.2-2.6,0.6s-1.3,1-1.8,1.8s-0.6,1.8-0.6,3v9h-4.2v-24.7h4.2v11.7
		l-0.9-1.5c0.6-1.1,1.5-2,2.7-2.6C862,563.4,863.3,563.1,864.9,563.1z"/>
	<path class="st2" d="M886,581.3c-2,0-3.7-0.4-5.2-1.2s-2.6-1.9-3.4-3.3c-0.8-1.4-1.2-2.9-1.2-4.7c0-1.8,0.4-3.4,1.2-4.7
		c0.8-1.4,1.9-2.4,3.3-3.2c1.4-0.8,3-1.2,4.8-1.2c1.7,0,3.3,0.4,4.6,1.1c1.4,0.8,2.4,1.8,3.2,3.2c0.8,1.4,1.2,3,1.2,4.9
		c0,0.2,0,0.4,0,0.6c0,0.2,0,0.4,0,0.6h-14.8v-2.8h12.6l-1.6,0.9c0-1-0.2-1.9-0.6-2.7s-1-1.4-1.8-1.8c-0.8-0.4-1.7-0.7-2.7-0.7
		c-1,0-1.9,0.2-2.7,0.7c-0.8,0.4-1.4,1.1-1.8,1.9c-0.4,0.8-0.7,1.7-0.7,2.8v0.7c0,1.1,0.2,2,0.7,2.8c0.5,0.8,1.2,1.5,2.1,1.9
		c0.9,0.4,1.9,0.7,3.1,0.7c1,0,1.9-0.2,2.7-0.5c0.8-0.3,1.5-0.8,2.1-1.5l2.2,2.6c-0.8,0.9-1.8,1.7-3,2.2
		C889,581.1,887.6,581.3,886,581.3z"/>
	<path class="st2" d="M898.4,581.1v-17.8h4v4.9l-0.5-1.4c0.5-1.2,1.4-2.1,2.5-2.7c1.1-0.6,2.6-0.9,4.3-0.9v4c-0.2,0-0.3-0.1-0.5-0.1
		c-0.2,0-0.3,0-0.5,0c-1.6,0-2.8,0.5-3.8,1.4c-0.9,0.9-1.4,2.3-1.4,4.1v8.6H898.4z"/>
	<path class="st2" d="M920.4,581.3c-2,0-3.7-0.4-5.2-1.2s-2.6-1.9-3.4-3.3c-0.8-1.4-1.2-2.9-1.2-4.7c0-1.8,0.4-3.4,1.2-4.7
		c0.8-1.4,1.9-2.4,3.3-3.2c1.4-0.8,3-1.2,4.8-1.2c1.7,0,3.3,0.4,4.6,1.1c1.4,0.8,2.4,1.8,3.2,3.2c0.8,1.4,1.2,3,1.2,4.9
		c0,0.2,0,0.4,0,0.6c0,0.2,0,0.4,0,0.6h-14.8v-2.8h12.6l-1.6,0.9c0-1-0.2-1.9-0.6-2.7s-1-1.4-1.8-1.8c-0.8-0.4-1.7-0.7-2.7-0.7
		c-1,0-1.9,0.2-2.7,0.7c-0.8,0.4-1.4,1.1-1.8,1.9c-0.4,0.8-0.7,1.7-0.7,2.8v0.7c0,1.1,0.2,2,0.7,2.8c0.5,0.8,1.2,1.5,2.1,1.9
		c0.9,0.4,1.9,0.7,3.1,0.7c1,0,1.9-0.2,2.7-0.5c0.8-0.3,1.5-0.8,2.1-1.5l2.2,2.6c-0.8,0.9-1.8,1.7-3,2.2
		C923.4,581.1,922,581.3,920.4,581.3z"/>
</g>
<g>
	<path class="st1" d="M517.1,143.5c-2.5,0-5-0.4-7.3-1.1s-4.2-1.7-5.5-2.8l2.1-4.7c1.3,1,2.9,1.9,4.8,2.6c1.9,0.7,3.9,1,5.9,1
		c1.7,0,3.1-0.2,4.1-0.6s1.8-0.9,2.3-1.5c0.5-0.6,0.7-1.4,0.7-2.2c0-1-0.4-1.8-1.1-2.4c-0.7-0.6-1.6-1.1-2.8-1.4
		c-1.1-0.4-2.4-0.7-3.8-1c-1.4-0.3-2.8-0.7-4.1-1.1c-1.4-0.4-2.6-1-3.8-1.6s-2.1-1.6-2.8-2.7c-0.7-1.1-1.1-2.5-1.1-4.3
		c0-1.8,0.5-3.4,1.4-4.9c0.9-1.5,2.4-2.7,4.3-3.5c1.9-0.9,4.4-1.3,7.4-1.3c2,0,3.9,0.2,5.8,0.7c1.9,0.5,3.6,1.2,5,2.1l-1.9,4.7
		c-1.5-0.9-3-1.5-4.5-1.9c-1.6-0.4-3-0.6-4.5-0.6c-1.7,0-3,0.2-4.1,0.6c-1,0.4-1.8,0.9-2.3,1.6s-0.7,1.4-0.7,2.2c0,1,0.3,1.8,1,2.4
		c0.7,0.6,1.6,1.1,2.8,1.4c1.1,0.3,2.4,0.7,3.8,1c1.4,0.3,2.8,0.7,4.2,1.1c1.4,0.4,2.6,0.9,3.8,1.6s2.1,1.5,2.8,2.7
		c0.7,1.1,1,2.5,1,4.2c0,1.7-0.5,3.3-1.4,4.8c-0.9,1.5-2.4,2.7-4.4,3.5C522.5,143.1,520.1,143.5,517.1,143.5z"/>
	<path class="st1" d="M532.4,123v-4.7H549v4.7H532.4z M545.1,143.4c-2.7,0-4.8-0.7-6.3-2.1c-1.5-1.4-2.2-3.5-2.2-6.3v-22.3h5.8v22.2
		c0,1.2,0.3,2.1,0.9,2.8c0.6,0.7,1.5,1,2.5,1c1.3,0,2.4-0.3,3.3-1l1.6,4.1c-0.7,0.6-1.5,1-2.5,1.3
		C547.2,143.2,546.2,143.4,545.1,143.4z"/>
	<path class="st1" d="M565.9,143.4c-2.5,0-4.8-0.6-6.8-1.7c-2-1.1-3.6-2.6-4.7-4.5c-1.2-1.9-1.7-4.1-1.7-6.6c0-2.5,0.6-4.7,1.7-6.6
		c1.1-1.9,2.7-3.4,4.7-4.5c2-1.1,4.3-1.6,6.8-1.6c2.6,0,4.9,0.5,6.9,1.6c2,1.1,3.6,2.6,4.7,4.5c1.1,1.9,1.7,4.1,1.7,6.6
		c0,2.5-0.6,4.6-1.7,6.6c-1.1,1.9-2.7,3.4-4.7,4.5C570.7,142.8,568.4,143.4,565.9,143.4z M565.9,138.4c1.4,0,2.7-0.3,3.8-0.9
		c1.1-0.6,2-1.5,2.6-2.7c0.6-1.2,1-2.6,1-4.1c0-1.6-0.3-3-1-4.2c-0.6-1.2-1.5-2.1-2.6-2.7c-1.1-0.6-2.4-0.9-3.8-0.9
		c-1.4,0-2.7,0.3-3.8,0.9c-1.1,0.6-2,1.5-2.6,2.7c-0.7,1.2-1,2.6-1,4.2c0,1.6,0.3,3,1,4.1c0.7,1.2,1.5,2.1,2.6,2.7
		C563.2,138.1,564.5,138.4,565.9,138.4z"/>
	<path class="st1" d="M584.7,143.1v-24.9h5.5v6.9l-0.7-2c0.7-1.7,1.9-3,3.5-3.8c1.6-0.9,3.6-1.3,6-1.3v5.5c-0.2-0.1-0.5-0.1-0.7-0.1
		c-0.2,0-0.4,0-0.7,0c-2.2,0-4,0.6-5.3,1.9c-1.3,1.3-2,3.2-2,5.8v12.1H584.7z"/>
	<path class="st1" d="M609.8,143.4c-1.9,0-3.5-0.3-4.9-1c-1.4-0.6-2.5-1.5-3.2-2.7c-0.8-1.1-1.1-2.4-1.1-3.8c0-1.4,0.3-2.7,1-3.8
		c0.7-1.1,1.8-2,3.3-2.7c1.5-0.7,3.5-1,6.1-1h7.2v3.9h-6.8c-2,0-3.3,0.3-4,1c-0.7,0.6-1,1.4-1,2.4c0,1.1,0.4,1.9,1.3,2.5
		c0.8,0.6,2,0.9,3.5,0.9c1.4,0,2.7-0.3,3.8-1c1.1-0.7,2-1.6,2.4-2.9l1,3.5c-0.6,1.5-1.6,2.6-3,3.4C613.9,143,612,143.4,609.8,143.4z
		 M617.7,143.1v-5l-0.3-1.1v-8.8c0-1.7-0.5-3-1.5-4c-1-0.9-2.6-1.4-4.7-1.4c-1.4,0-2.8,0.2-4.1,0.7c-1.4,0.4-2.5,1-3.4,1.8l-2.3-4.2
		c1.3-1,2.9-1.8,4.8-2.3c1.8-0.5,3.8-0.8,5.8-0.8c3.6,0,6.4,0.9,8.4,2.6c2,1.7,3,4.4,3,8v14.6H617.7z"/>
	<path class="st1" d="M641.2,141.9c-2.4,0-4.5-0.5-6.4-1.5c-1.9-1-3.4-2.4-4.5-4.2c-1.1-1.8-1.7-3.9-1.7-6.3c0-2.4,0.6-4.5,1.7-6.3
		c1.1-1.8,2.6-3.2,4.5-4.2c1.9-1,4-1.5,6.4-1.5c2.1,0,4,0.4,5.7,1.3c1.7,0.8,3,2.1,4,3.9s1.5,4,1.5,6.8c0,2.8-0.5,5-1.5,6.8
		c-1,1.8-2.4,3.1-4,4C645.2,141.5,643.3,141.9,641.2,141.9z M642,152.4c-2.3,0-4.5-0.3-6.7-0.9c-2.2-0.6-4-1.5-5.4-2.6l2.6-4.4
		c1.1,0.9,2.5,1.6,4.1,2.2c1.7,0.5,3.3,0.8,5.1,0.8c2.7,0,4.7-0.6,6-1.9c1.3-1.3,1.9-3.1,1.9-5.7v-4.4l0.5-5.6l-0.2-5.6v-6.1h5.5
		v21.1c0,4.5-1.2,7.8-3.5,10C649.6,151.4,646.3,152.4,642,152.4z M642.1,137c1.5,0,2.8-0.3,3.9-0.9c1.1-0.6,2-1.4,2.7-2.5
		c0.6-1.1,1-2.3,1-3.7s-0.3-2.6-1-3.7c-0.6-1.1-1.5-1.9-2.7-2.5c-1.2-0.6-2.5-0.9-3.9-0.9s-2.8,0.3-3.9,0.9
		c-1.2,0.6-2.1,1.4-2.7,2.5c-0.6,1.1-1,2.3-1,3.7s0.3,2.6,1,3.7c0.6,1.1,1.5,1.9,2.7,2.5S640.6,137,642.1,137z"/>
	<path class="st1" d="M674.7,143.4c-2.8,0-5.2-0.6-7.2-1.7c-2.1-1.1-3.7-2.6-4.8-4.5c-1.1-1.9-1.7-4.1-1.7-6.6
		c0-2.5,0.6-4.7,1.7-6.6s2.6-3.4,4.6-4.5c1.9-1.1,4.2-1.6,6.6-1.6c2.4,0,4.6,0.5,6.5,1.6c1.9,1.1,3.4,2.5,4.5,4.5
		c1.1,1.9,1.6,4.2,1.6,6.8c0,0.2,0,0.5,0,0.8c0,0.3,0,0.6-0.1,0.9h-20.7v-3.9h17.7l-2.3,1.2c0-1.4-0.3-2.7-0.9-3.8
		c-0.6-1.1-1.5-1.9-2.5-2.6c-1.1-0.6-2.3-0.9-3.7-0.9c-1.4,0-2.7,0.3-3.8,0.9c-1.1,0.6-1.9,1.5-2.5,2.6c-0.6,1.1-0.9,2.4-0.9,3.9
		v0.9c0,1.5,0.3,2.8,1,4c0.7,1.2,1.6,2,2.9,2.7c1.2,0.6,2.7,0.9,4.3,0.9c1.4,0,2.7-0.2,3.8-0.7c1.1-0.4,2.1-1.1,3-2.1l3.1,3.6
		c-1.1,1.3-2.5,2.3-4.2,3C678.8,143,676.9,143.4,674.7,143.4z"/>
	<path class="st1" d="M715.1,143.1l-14.3-32.6h6.6l12.7,29.5h-3.8l12.9-29.5h6.1l-14.2,32.6H715.1z"/>
	<path class="st1" d="M743.8,143.4c-1.9,0-3.5-0.3-4.9-1s-2.5-1.5-3.2-2.7c-0.8-1.1-1.1-2.4-1.1-3.8c0-1.4,0.3-2.7,1-3.8
		s1.8-2,3.3-2.7s3.5-1,6.1-1h7.2v3.9h-6.8c-2,0-3.3,0.3-4,1c-0.7,0.6-1,1.4-1,2.4c0,1.1,0.4,1.9,1.3,2.5c0.8,0.6,2,0.9,3.5,0.9
		c1.4,0,2.7-0.3,3.8-1c1.1-0.7,2-1.6,2.4-2.9l1,3.5c-0.6,1.5-1.6,2.6-3,3.4C747.9,143,746,143.4,743.8,143.4z M751.7,143.1v-5
		l-0.3-1.1v-8.8c0-1.7-0.5-3-1.5-4c-1-0.9-2.6-1.4-4.7-1.4c-1.4,0-2.8,0.2-4.1,0.7c-1.4,0.4-2.5,1-3.4,1.8l-2.3-4.2
		c1.3-1,2.9-1.8,4.8-2.3c1.8-0.5,3.8-0.8,5.8-0.8c3.6,0,6.4,0.9,8.4,2.6c2,1.7,3,4.4,3,8v14.6H751.7z"/>
	<path class="st1" d="M764.6,143.1v-34.6h5.8v34.6H764.6z"/>
	<path class="st1" d="M788.6,143.4c-2.1,0-4-0.4-5.6-1.2c-1.6-0.8-2.9-2-3.8-3.6c-0.9-1.6-1.4-3.7-1.4-6.2v-14.2h5.8v13.4
		c0,2.2,0.5,3.9,1.5,5c1,1.1,2.4,1.7,4.3,1.7c1.4,0,2.6-0.3,3.6-0.8c1-0.6,1.8-1.4,2.4-2.5c0.6-1.1,0.9-2.5,0.9-4.1v-12.6h5.8v24.9
		h-5.5v-6.7l1,2.1c-0.8,1.6-2.1,2.9-3.7,3.7C792.3,143,790.6,143.4,788.6,143.4z"/>
	<path class="st1" d="M821.6,143.4c-2.8,0-5.2-0.6-7.3-1.7c-2.1-1.1-3.7-2.6-4.8-4.5c-1.1-1.9-1.7-4.1-1.7-6.6
		c0-2.5,0.6-4.7,1.7-6.6c1.1-1.9,2.6-3.4,4.6-4.5c1.9-1.1,4.2-1.6,6.6-1.6c2.4,0,4.6,0.5,6.5,1.6c1.9,1.1,3.4,2.5,4.5,4.5
		c1.1,1.9,1.6,4.2,1.6,6.8c0,0.2,0,0.5,0,0.8c0,0.3,0,0.6-0.1,0.9h-20.8v-3.9h17.7l-2.3,1.2c0-1.4-0.3-2.7-0.9-3.8
		c-0.6-1.1-1.5-1.9-2.5-2.6c-1.1-0.6-2.3-0.9-3.7-0.9c-1.4,0-2.7,0.3-3.8,0.9c-1.1,0.6-1.9,1.5-2.5,2.6c-0.6,1.1-0.9,2.4-0.9,3.9
		v0.9c0,1.5,0.3,2.8,1,4c0.7,1.2,1.6,2,2.9,2.7c1.2,0.6,2.7,0.9,4.3,0.9c1.4,0,2.7-0.2,3.8-0.7c1.1-0.4,2.1-1.1,3-2.1l3.1,3.6
		c-1.1,1.3-2.5,2.3-4.2,3S823.7,143.4,821.6,143.4z"/>
</g>
<g>
	<g>
		<path class="st2" d="M814.6,457.7c-7.1,2.8-12,15-8.7,21.9s12.1,3.4,16-6.3C825.7,463.5,821.7,454.8,814.6,457.7z"/>
	</g>
	<g>
		<path class="st2" d="M798.2,491.2c-9.6,1.4-18.9,14.8-16.7,24.3s14.1,7.7,21.6-3C810.4,501.6,807.8,489.8,798.2,491.2z"/>
	</g>
	<g>
		<path class="st2" d="M770.5,528.7c-10.7,0.1-23.2,13.7-22.5,24.4s14.1,10.5,24.1-0.3C782.1,541.9,781.2,528.5,770.5,528.7z"/>
	</g>
	<g>
		<path class="st2" d="M717.3,566.1l-13.9-18.7c-0.9-1.2-0.7-2.9,0.5-3.8c10.2-7.6,53.5-42.5,72-99.8c1.4-4.5,6.3-6.8,10.7-5.1
			l24.9,9.8c2.3,0.9,2.3,4.1,0,5.1c-11.2,4.7-14.3,19.1-11.2,28.2c0.6,1.7-0.6,3.5-2.4,3.6c-11.9,1-26.5,17.3-20.9,34
			c0.6,2-1.1,3.9-3.1,3.5c-17.2-3.6-32.7,16.6-32.2,29.1c0.1,2-0.9,3.8-2.6,4.8c-6.5,4.1-12.9,7.7-18.5,10.2
			C719.4,567.5,718.1,567.1,717.3,566.1z"/>
	</g>
	<g>
		<path class="st2" d="M685.2,573.8l5.1-35.4c0.5-3.3,4.7-4.5,6.8-1.8l30.5,38.4c2.1,2.6,0,6.5-3.3,6.2l-35.6-3
			C686.5,578,684.9,576,685.2,573.8z"/>
	</g>
</g>
</svg>
