<svg width="611" height="728" fill="none" xmlns="http://www.w3.org/2000/svg"><g clip-path="url(#a)"><mask id="b" style="mask-type:luminance" maskUnits="userSpaceOnUse" x="0" y="-82" width="1442" height="810"><path d="M1441.31-81.363H0v808.854h1441.31V-81.363Z" fill="#fff"/></mask><g mask="url(#b)"><path d="M79.35 8.27C65.33 24.866 63.157 35.12 60.042 51.924c-.065.332-.121.663-.186.995-.242 1.31-.484 2.652-.75 4.043C56.24 72.23 55.416 75.36 46.99 81.877l-.12.097c-3.294 2.547-7.741 5.612-13.907 10.108 0 0-14.456-21.842-10.67-32.581 4.075-11.565 14.253-27.86 56.103-52.54.775-.453 1.542.614.952 1.31Z" fill="#8747CC"/><path d="M66.492 18.517C44.376 34.925 27.62 60.964 33.456 89.389a1.338 1.338 0 0 1-1.041 1.601 1.317 1.317 0 0 1-1.558-1.059c-4.334-21.309 4.318-43.256 18.75-58.84 4.786-5.215 10.161-9.817 15.755-14.095.985-.735 2.155.728 1.13 1.52Z" fill="#BC83FB"/><path d="M38.452 535.592c-16.046 9.074-33.658 17.791-52.98 26.048v-21.309c12.066-5.596 23.552-11.353 34.456-17.265 109.698-59.51 160.935-135.186 158.19-222.345-.629-19.91-7.877-38.607-18.047-55.403-.178-.307-.363-.606-.549-.914-7.087-11.572-15.529-22.222-24.101-31.74-.565-.615-1.122-1.237-1.679-1.844-12.962-14.152-26.046-25.675-34.997-33.786-23.803-21.576-72.158-48.343-68.38-102.5.016-.267.355-.267.379-.008 5.513 45.989 29.904 57.869 64.49 88.461 35.74 31.611 85.976 67.209 95.702 126.938 9.015 55.386-8.83 164.517-152.484 245.667Z" fill="#BC83FB"/><path d="M38.452 535.592c-16.046 9.074-33.658 17.791-52.98 26.048v-21.309c12.066-5.596 23.552-11.353 34.456-17.265 3.915 6.453 11.324 10.27 18.524 12.526Z" fill="#8747CC"/><mask id="c" style="mask-type:luminance" maskUnits="userSpaceOnUse" x="-15" y="74" width="208" height="488"><path d="M38.452 535.592c-16.046 9.074-33.658 17.791-52.98 26.048v-21.309c12.066-5.596 23.552-11.353 34.456-17.265 109.698-59.51 160.935-135.186 158.19-222.345-.637-20.274-8.144-39.286-18.596-56.317-7.547-12.324-16.635-23.605-25.78-33.584-12.962-14.152-26.046-25.675-34.997-33.786-23.803-21.576-72.158-48.343-68.38-102.5.016-.267.355-.267.379-.008 5.513 45.989 29.904 57.869 64.49 88.461 35.74 31.611 85.976 67.209 95.702 126.938 9.015 55.386-8.83 164.517-152.484 245.667Z" fill="#fff"/></mask><g mask="url(#c)"><path d="M185.423 406.665c-.275-.04-27.176-4.278-23.48-43.879l2.414.227c-1.445 15.526 1.832 27.584 9.491 34.878 5.715 5.451 11.857 6.364 11.914 6.372l-.339 2.402Z" fill="#975CD6"/></g><path d="M160.071 245.318c-.178-.307-.363-.606-.549-.914-7.087-11.572-15.529-22.222-24.101-31.74 16.748 3.679 23.528 17.039 24.65 32.654Z" fill="#975CD6"/><path d="M521.061 690.446c9.718 3.154 17.725-3.663 17.725-8.507l-17.725 8.507Z" fill="#D8B7FB"/><path d="M134.057 669.396c-1.308 43.491-52.738 56.252-79.398 50.898-26.651-5.345-43.569-25.36-29.355-20.249 3.6 1.294 7.99 2.305 12.881 2.725 14.424 1.245 33.246-2.588 49.437-19.085 21.696-22.101 2.938-67.039-89.236-64.831v-32.485c20.905-1.431 40.074.453 57.008 4.788.016.008.032.008.048.016.258.056.517.121.767.194.016 0 .032.008.048.008.04.008.08.016.121.032 1.695.445 3.366.914 5.013 1.407 45.756 13.667 73.602 45.545 72.666 76.582Z" fill="#8747CC"/><path d="M56.031 592.151c-.298-.064-.557-.137-.799-.202l.388-1.569c.274.065.549.13.815.211l-.404 1.56Z" fill="#0E0B14"/><path d="M134.057 669.396c-1.308 43.491-52.738 56.252-79.398 50.898-26.651-5.345-43.569-25.36-29.355-20.249a115.864 115.864 0 0 0 12.882 2.725c53.634 8.184 101.916-23.241 74.684-65.486-14.98-23.234-35.038-38.874-51.48-44.47 45.757 13.667 73.603 45.545 72.667 76.582Z" fill="#642F9E"/><path d="M40.978 713.857c-4.399-1.472-6.086-5.612-3.027-7.448 3.06-1.836 8.564 0 9.904 3.308 1.34 3.307-2.478 5.612-6.877 4.14ZM74.006 718.442c-6.457 1.132-11.316-2.887-8.75-7.229 2.567-4.343 10.639-5.758 14.529-2.548 3.89 3.211.678 8.645-5.779 9.777ZM114.549 704.21c-6.627 5.208-13.568 4.892-12.495-.575 1.074-5.466 9.355-11.976 14.908-11.717 5.553.259 4.213 7.084-2.413 12.292ZM135.687 666.461c0 10.189-4.261 16.561-7.668 11.467-3.406-5.095-3.406-17.832 0-22.926 3.415-5.103 7.668 1.269 7.668 11.459ZM120.731 394.721c-15.344 20.557-36.781 38.339-65.208 50.599-18.242 7.868-39.364 13.456-63.594 16.044v-69.15c89.963 14.759 127.583-79.663 115.985-125.369-9.476-37.345-42.827-47.105-68.913-38.841-18.217 5.782-38.791 19.764-27.217 8.297 4.916-4.868 9.871-9.105 14.835-12.736 59.058-43.272 118.826-1.585 124.557 60.869 3.326 36.229-5.537 76.913-30.445 110.287Z" fill="#BC83FB"/><mask id="d" style="mask-type:luminance" maskUnits="userSpaceOnUse" x="-9" y="205" width="161" height="257"><path d="M120.731 394.721c-15.344 20.557-36.781 38.339-65.208 50.599-18.242 7.868-39.364 13.456-63.594 16.044v-69.15c89.963 14.759 127.583-79.663 115.985-125.369-9.476-37.345-42.827-47.105-68.913-38.841-18.217 5.782-38.791 19.764-27.217 8.297 4.916-4.868 9.871-9.105 14.835-12.736 59.058-43.272 118.826-1.585 124.557 60.869 3.326 36.229-5.537 76.913-30.445 110.287Z" fill="#fff"/></mask><g mask="url(#d)"><path d="M121.094 312.729v-2.426c1.195 0 29.251-.396 32.56-30.39l2.405.267c-3.551 32.177-34.65 32.549-34.965 32.549Z" fill="#975CD6"/></g><path d="M-8.071 427.133v-34.919c89.963 14.759 127.583-79.662 115.985-125.369-9.476-37.345-42.827-47.105-68.913-38.841-18.217 5.782-38.791 19.764-27.217 8.297 4.916-4.868 9.871-9.105 14.835-12.736h.033c13.027-7.456 34.57-13.934 52.802-8.799 23.439 6.599 41.148 27.795 46.354 59.082 11.324 67.961-27.66 150.632-133.88 153.285Z" fill="#8747CC"/><path d="M27.54 414.695c-15.95 4.011-27.645-.954-21.059-8.944 6.587-7.989 26.523-13.003 35.877-9.024 9.355 3.978 1.122 13.957-14.818 17.968ZM87.348 381.815c-10 9.259-20.711 9.817-19.282.994 1.428-8.822 13.923-20.395 22.494-20.839 8.572-.437 6.788 10.585-3.212 19.845ZM116.243 336.003c-4.423 11.136-12.744 15.697-14.972 8.208-2.228-7.488 3.301-21.405 9.96-25.061 6.659-3.647 9.444 5.718 5.012 16.853ZM121.094 286.739c0 9.906-5.028 16.1-9.048 11.151-4.019-4.957-4.019-17.346 0-22.295 4.02-4.957 9.048 1.237 9.048 11.144ZM109.786 247.696c3.721 7.326 2.567 13.836-2.09 11.709-4.649-2.118-9.306-11.281-8.378-16.489.928-5.207 6.739-2.547 10.468 4.78ZM83.329 230.859c-6.377-3.874-8.467-9.672-3.77-10.44 4.698-.768 12.664 4.068 14.343 8.709 1.67 4.642-4.205 5.605-10.573 1.731ZM59.106 224.584c-6.723 0-10.928-3.275-7.57-5.887 3.357-2.612 11.776-2.621 15.133 0 3.366 2.612-.84 5.887-7.563 5.887ZM37.225 227.859c-4.165 1.827-7.74.542-6.44-2.313 1.299-2.855 6.497-5.135 9.362-4.108 2.865 1.027 1.243 4.593-2.922 6.421ZM22.656 234.53c-2.034 2.119-4.681 2.022-4.762-.186-.08-2.207 2.462-4.86 4.585-4.779 2.114.089 2.211 2.839.177 4.965Z" fill="#D8B7FB"/><path d="M120.731 394.721c-15.344 20.557-36.781 38.339-65.208 50.599-7.256-12.721 7.837-25.304 21.268-16.416 0 0 16.925-31.336 43.94-34.183Z" fill="#975CD6"/><path d="M27.443 328.976c-3.64 1.164-6.966-1.399-5.99-4.626.977-3.218 5.53-4.674 8.185-2.62 2.663 2.054 1.445 6.081-2.195 7.246ZM66.41 325.604c-2.033-2.038-1.565-5.063.848-5.443 2.414-.38 4.956 2.176 4.585 4.594-.38 2.417-3.398 2.886-5.432.849ZM45.918 250.704c-1.961 1.965-5.303 1.067-6.021-1.617-.719-2.685 1.735-5.135 4.407-4.416 2.671.72 3.575 4.068 1.614 6.033ZM36.797 264.726c-2.13.494-3.801-.679-3.01-2.118.79-1.44 3.454-2.054 4.794-1.116 1.332.946.347 2.741-1.784 3.234ZM33.222 143.239c-2.801 2.806-7.273 1.836-8.048-1.747-.774-3.582 2.729-7.092 6.304-6.316 3.576.777 4.544 5.257 1.744 8.063ZM52.383 159.081c-1.38 1.383-3.745.752-4.254-1.14-.508-1.893 1.227-3.631 3.116-3.122 1.889.502 2.518 2.871 1.138 4.262ZM278.001 641.287c-2.696 4.205-7.208 5.005-8.12 1.455-.912-3.558 2.462-8.806 6.07-9.453 3.6-.655 4.746 3.792 2.05 7.998ZM289.204 637.736c-2.244 0-3.648-2.434-2.526-4.383 1.122-1.948 3.931-1.948 5.052 0 1.122 1.949-.282 4.383-2.526 4.383ZM353.686 621.846c-2.736.76-5.133-1.221-4.31-3.566.823-2.345 4.245-3.3 6.166-1.715 1.913 1.585.88 4.521-1.856 5.281ZM173.187 690.042c-5.844 0-9.492-4.731-6.57-8.516 2.921-3.784 10.226-3.784 13.148 0 2.914 3.777-.735 8.516-6.578 8.516ZM205.117 715.733c-1.647-1.649-1.066-4.294 1.041-4.755 2.115-.461 4.173 1.601 3.705 3.712-.46 2.119-3.1 2.693-4.746 1.043ZM41.842 667.245c-4.496 1.35-8.29-1.092-6.829-4.391 1.461-3.308 7.079-4.99 10.114-3.041 3.035 1.949 1.21 6.082-3.285 7.432ZM9.871 672.663c0 2.248-2.074 3.655-3.737 2.531-1.662-1.124-1.662-3.938 0-5.062 1.663-1.132 3.737.275 3.737 2.531ZM46.96 483.417c-2.172 2.175-5.538 1.528-6.054-1.165-.517-2.693 2.195-5.418 4.89-4.9 2.688.517 3.334 3.889 1.163 6.065ZM565.002 694.562c-2.438 2.442-6.207 1.715-6.789-1.31-.581-3.024 2.462-6.073 5.481-5.491 3.011.582 3.737 4.359 1.308 6.801ZM23.835 488.156c-1.8 5.555-5.763 8.103-7.143 4.585s.871-10.456 4.043-12.494c3.18-2.038 4.9 2.353 3.1 7.909ZM137.407 544.043c-3.447 0-5.594-3.736-3.875-6.72 1.719-2.984 6.021-2.984 7.749 0 1.719 2.984-.428 6.72-3.874 6.72Z" fill="#000"/><path d="M545.525 678.696c-14.116 8.378-31.316 15.882-49.227 21.058-50.05 14.483-160.684 26.346-268.711-9.34-97.485-32.194-125.194-78.62-229.201-76.995v-65.332c146.494 16.707 212.195 97.882 324.903 123.63 79.043 18.058 140.684 11.839 177.255 1.795 15.577-4.278 26.603-9.243 32.487-13.327.436-.299.864-.606 1.275-.905 6.352-4.61 9.871-8.896 10.888-12.527 0-.008.008-.008.008-.016 1.897-6.752-4.907-11.2-18.2-11.2-20.897 0-44.159 4.415-31.648 16.739 5.004 4.925 11.51 8.5 11.51 9.947 0 1.925-7.103.332-14.948-3.421-9.057-4.342-18.048-12.623-13.73-22.133.008-.008.016-.008.016-.016 1.34-2.952 3.971-6.025 8.29-9.13 19.686-14.16 61.221-14.5 86.435.776 17.887 12.001 1.808 33.067-27.402 50.397Z" fill="#BC83FB"/><mask id="e" style="mask-type:luminance" maskUnits="userSpaceOnUse" x="-2" y="548" width="583" height="166"><path d="M545.525 678.696c-14.116 8.378-31.316 15.882-49.227 21.058-50.05 14.483-160.684 26.346-268.711-9.34-97.485-32.194-125.194-78.62-229.201-76.995v-65.332c146.494 16.707 212.195 97.882 324.903 123.63 79.043 18.058 140.684 11.839 177.255 1.795 15.577-4.278 26.603-9.243 32.487-13.327.436-.299.864-.606 1.275-.905 6.352-4.61 9.871-8.896 10.888-12.527 0-.008.008-.008.008-.016 1.897-6.752-4.907-11.2-18.2-11.2-20.897 0-44.159 4.415-31.648 16.739 5.004 4.925 11.51 8.5 11.51 9.947 0 1.925-7.103.332-14.948-3.421-9.057-4.342-18.048-12.623-13.73-22.133.008-.008.016-.008.016-.016 1.34-2.952 3.971-6.025 8.29-9.13 19.686-14.16 61.221-14.5 86.435.776 17.887 12.001 1.808 33.067-27.402 50.397Z" fill="#fff"/></mask><g mask="url(#e)"><path d="M314.435 650.902c-2.187 10.205.048 15.793 7.797 22.562 3.309 3.089 6.844 6.647 7.99 11.273 1.251 4.601.339 9.356-1.299 13.691l-1.388-.421c.855-4.132 1.436-8.507.185-12.543-2.502-8.41-12.978-12.461-15.311-21.26-1.396-4.512-.718-9.291.613-13.674.008 0 1.413.372 1.413.372Z" fill="#975CD6"/></g><mask id="f" style="mask-type:luminance" maskUnits="userSpaceOnUse" x="-2" y="548" width="583" height="166"><path d="M545.525 678.696c-14.116 8.378-31.316 15.882-49.227 21.058-50.05 14.483-160.684 26.346-268.711-9.34-97.485-32.194-125.194-78.62-229.201-76.995v-65.332c146.494 16.707 212.195 97.882 324.903 123.63 79.043 18.058 140.684 11.839 177.255 1.795 15.577-4.278 26.603-9.243 32.487-13.327.436-.299.864-.606 1.275-.905 6.352-4.61 9.871-8.896 10.888-12.527 0-.008.008-.008.008-.016 1.897-6.752-4.907-11.2-18.2-11.2-20.897 0-44.159 4.415-31.648 16.739 5.004 4.925 11.51 8.5 11.51 9.947 0 1.925-7.103.332-14.948-3.421-9.057-4.342-18.048-12.623-13.73-22.133.008-.008.016-.008.016-.016 1.34-2.952 3.971-6.025 8.29-9.13 19.686-14.16 61.221-14.5 86.435.776 17.887 12.001 1.808 33.067-27.402 50.397Z" fill="#fff"/></mask><g mask="url(#f)"><path d="M243.956 627.765c-1.751 24.156 10.218 35.323 34.077 30.479 2.656-.533 5.335-1.237 7.846-2.135l.783 2.038c-5.368 1.957-10.897 3.146-16.587 3.47-12.373.849-23.617-4.424-26.958-17.072-1.639-5.434-1.687-11.321-1.34-16.933l2.179.153Z" fill="#975CD6"/></g><path d="M545.203 646.737c1.896-6.753-4.908-11.2-18.201-11.2-20.897 0-44.159 4.415-31.648 16.739 5.004 4.925 11.51 8.5 11.51 9.947 0 1.925-7.103.332-14.948-3.421-9.056-4.342-18.048-12.623-13.73-22.133.008-.008.016-.008.016-.016 10.8-15.325 38.428-16.336 54.127-12.333 14.181 3.623 18.499 11.993 12.874 22.417Z" fill="#8747CC"/><path d="M527.147 634.704c-7.523-.841-11.841-4.787-7.773-7.116 4.068-2.329 13.463-1.278 16.918 1.884 3.454 3.162-1.623 6.065-9.145 5.232ZM497.485 638.068c-5.013 2.305-9.5.784-8.072-2.725 1.429-3.518 7.692-6.389 11.276-5.184 3.584 1.205 1.808 5.612-3.204 7.909ZM494.87 650.869c2.494 3.647 2.623 6.906.242 5.863-2.381-1.043-5.497-5.604-5.602-8.208-.105-2.604 2.874-1.302 5.36 2.345Z" fill="#D8B7FB"/><path d="M545.525 678.696c-14.116 8.378-31.316 15.882-49.227 21.058-50.05 14.483-160.684 26.346-268.711-9.34-97.485-32.194-125.194-78.62-229.201-76.995v-34.49c64.772-9.081 121.376 34.515 227.474 83.804 105.258 48.908 243.738 48.625 319.665 15.963Z" fill="#8747CC"/><path d="M501.117 701.565c-7.442 2.135-12.761 1.14-9.573-1.787 3.188-2.935 12.495-5.604 16.748-4.812 4.254.801.275 4.464-7.175 6.599ZM458.662 710.816c-11.098 1.602-18.468-.452-13.278-3.703 5.198-3.251 19.065-5.249 24.965-3.607 5.9 1.642-.597 5.709-11.687 7.31ZM404.559 716.032c-13.164.397-21.502-2.903-15.004-5.943 6.497-3.041 22.955-3.534 29.622-.89 6.667 2.644-1.453 6.437-14.618 6.833ZM346.325 715.159c-14.601-1.359-23.302-6.752-15.667-9.704 7.636-2.952 25.893-1.254 32.851 3.065 6.965 4.31-2.583 8.006-17.184 6.639ZM278.114 705.034c-15.513-3.954-23.778-12.089-14.868-14.653 8.911-2.563 28.307 2.378 34.917 8.888 6.61 6.509-4.528 9.712-20.049 5.765ZM201.073 678.405c-16.845-6.429-24.779-17.257-14.286-19.497 10.493-2.241 31.543 5.79 37.895 14.459 6.352 8.661-6.764 11.459-23.609 5.038ZM138.811 647.473a16.696 16.696 0 0 1-.549-.251c-15.626-7.44-22.398-18.413-12.188-19.756 6.256-.817 16.014 2.353 23.883 6.955 4.972 2.903 9.186 6.38 11.284 9.777 5.359 8.677-7.046 10.415-22.43 3.275Z" fill="#D8B7FB"/><path d="M25.61 607.16c-17.999-.194-29.153-8.636-20.081-15.195 9.072-6.558 31.567-6.315 40.486.437 8.927 6.752-2.413 14.952-20.405 14.758ZM149.957 634.421c-2.437 7.706-7.038 11.346-11.146 13.052a16.696 16.696 0 0 1-.549-.251c-15.626-7.44-22.398-18.413-12.188-19.756 6.256-.817 16.014 2.353 23.883 6.955Z" fill="#BC83FB"/><path d="M500.544 673.512c15.578-4.278 26.603-9.243 32.487-13.327.436-.299.864-.606 1.275-.905 6.595 11.353-8.975 17.103-33.762 14.232Z" fill="#8747CC"/><path d="M314.54 599.834c-13.011 9.615-41.656 26.961-88.228 29.427-8.676.461-17.966.405-27.902-.315-5.206-.372-10.469-.801-15.796-1.253-59.405-5.014-125.751-12.6-185.172 21.332l-11.615-54.084c105.662-38.444 167.101-13.707 210.048.542 42.964 14.249 74.499 14.411 100.747 4.189a470.73 470.73 0 0 1 11.631-4.367c.024 0 .048-.016.072-.016 16.312-5.823 19.032-4.917 6.215 4.545Z" fill="#BC83FB"/><path d="m308.325 595.289-.072.024a470.73 470.73 0 0 0-11.631 4.367c-26.248 10.214-57.791 10.052-100.747-4.197-42.947-14.241-104.386-38.978-210.048-.542l3.592 16.74s75.668-23.792 140.481-11.209c64.813 12.592 103.612 16.748 137.657 12.187 33.932-4.545 47.669-19.602 40.768-17.37Z" fill="#8747CC"/><path d="M269.752 604.298c-6.158.889-9.976 3.784-6.869 5.216 3.108 1.431 10.808.323 13.859-1.998s-.831-4.1-6.99-3.218ZM234.715 603.149c-7.854-1.075-13.423 1.108-10.017 3.93 3.406 2.823 13.221 4.173 17.676 2.426 4.448-1.746.194-5.28-7.659-6.356ZM196.182 595.224c-9.718-1.997-16.813.316-12.769 4.165 4.044 3.849 16.199 6.348 21.873 4.496 5.674-1.852.614-6.663-9.104-8.661ZM149.901 583.272c-12.155-2.224-21.131 1.577-16.167 6.833 4.964 5.257 20.154 8.039 27.346 4.998 7.183-3.041.968-9.607-11.179-11.831ZM92.594 576.811c-14.455.307-24.06 6.526-17.288 11.2 6.772 4.674 24.843 4.286 32.527-.688 7.692-4.981-.775-10.82-15.239-10.512ZM23.52 584.493c-16.813 3.105-27.007 11.281-18.346 14.718 8.652 3.437 29.67-.453 37.822-6.987 8.152-6.55-2.672-10.836-19.476-7.731ZM226.312 629.261c-8.676.461-17.966.405-27.902-.315-5.206-.372-10.469-.8-15.796-1.253-59.405-5.014-125.751-12.6-185.172 21.332 60.171-54.529 200.968-20.079 228.87-19.764Z" fill="#D8B7FB"/><path d="M59.857 52.918c-.242 1.31-.484 2.652-.75 4.043C56.24 72.23 55.416 75.36 46.99 81.876c-1.55-5.709-1.646-16.602 12.866-28.958Z" fill="#BC83FB"/></g></g><defs><clipPath id="a"><path fill="#fff" transform="translate(0 .313)" d="M0 0h611v727H0z"/></clipPath></defs></svg>