<svg xmlns="http://www.w3.org/2000/svg" width="4345.39" height="1173.44"><defs><mask id="b" x="2540.64" y="1047.94" width="179" height="124" maskUnits="userSpaceOnUse"><path d="M2719.64 1047.94h-179v124h179v-124Z" style="fill:#fff"/></mask><mask id="c" x="1467.34" y="955.84" width="101.2" height="70.1" maskUnits="userSpaceOnUse"><path d="M1568.54 955.84h-101.2v70.1h101.2v-70.1Z" style="fill:#fff"/></mask><mask id="d" x="2761.64" y="830.76" width="57.9" height="40.19" maskUnits="userSpaceOnUse"><path d="M2819.44 830.84h-57.8v40.1h57.8v-40.1Z" style="fill:#fff"/></mask><clipPath id="a"><path style="fill:none" d="M794.24 161.24h2763.7v1011.7H794.24z"/></clipPath></defs><g style="clip-path:url(#a)"><path d="M4287.84.54H.64v1172.4h4287.2V.54Z" style="fill:none;stroke:#444950;stroke-miterlimit:10"/><path d="m4287.84 1171.94-340.6-84.9h-1197.5l-78.4-61.2-59.2-46.2-46.3-36.1-37.2-29-30.5-23.8-25.5-19.9-21.7-16.9h-560.5l-24.5 16.9-28.8 19.9-34.5 23.8-42 29-52.3 36.1-67 46.2-88.6 61.2H355.34l-354.8 84.9" style="fill:none;stroke:#444950;stroke-linecap:round;stroke-linejoin:round;stroke-width:1.09px"/><path d="m238.84 1171.94 316.1-84.9 227.9-61.2h686.8l88-46.2h1205.6l80.3 46.2h686.5l217.7 61.2 301.9 84.9" style="fill:none;stroke:#444950;stroke-linecap:round;stroke-linejoin:round;stroke-width:1.09px"/><path d="m477.04 1171.94 277.5-84.9 200-61.2 151.1-46.2 118.1-36.1h268.5l68.4-29h1210.1l63.6 29h268.4l112.1 36.1 143.3 46.2 189.8 61.2 263.3 84.9" style="fill:none;stroke:#444950;stroke-linecap:round;stroke-linejoin:round;stroke-width:1.09px"/><path d="m355.34 1087.14 255.7-61.2h171.8l172.1-46.2h602.8l68.8-36.1 55.2-29 45.4-23.8h881.3l41.4 23.8 50.4 29 62.8 36.1h602.7l164.4 46.2h171.7l245.6 61.2" style="fill:none;stroke:#444950;stroke-linecap:round;stroke-linejoin:round;stroke-width:1.09px"/><path d="m715.14 1171.94 238.9-84.8 172.2-61.2 130-46.2 101.6-36.1 81.7-29 67-23.8h110.2l47-19.9h1213.6l61.8 19.9h110.2l84.7 23.8h121l116.4 29" style="fill:none;stroke:#444950;stroke-linecap:round;stroke-linejoin:round;stroke-width:1.09px"/><path d="M4287.84 1171.94h-1667.3l-70.2-84.9-50.6-61.2-38.2-46.2-29.9-36.1-24-29-19.7-23.8-16.5-19.9-13.9-16.9-12-14.5-10.4-12.6h-324.3l-12.5 12.6-14.4 14.5-16.8 16.9-19.8 19.9-23.6 23.8-28.8 29-35.9 36.1-45.9 46.2-60.8 61.2-84.3 84.9H.64M2620.64 1171.94h-952.7" style="fill:none;stroke:#444950;stroke-linecap:round;stroke-linejoin:round;stroke-width:1.09px"/><path d="m953.34 1171.94 200.2-84.9 144.4-61.2 109-46.2 85.2-36.1h1342.3l79.2 36.1 101.3 46.2 134.2 61.2 186 84.9" style="fill:none;stroke:#444950;stroke-linecap:round;stroke-linejoin:round;stroke-width:1.09px"/><path d="m611.04 1025.94 193.1-46.2h150.7l134.5-36.1h134.3l94.8-29h242l56.2-23.8h110.2l37.9-19.9 32.1-16.9h93.4l21-14.5h521.1l18.6 14.5h93.5l29.3 16.9 34.6 19.9h110.2l52.2 23.8h242l90 29h134.2l128.5 36.1h150.7l185.4 46.2" style="fill:none;stroke:#444950;stroke-linecap:round;stroke-linejoin:round;stroke-width:1.09px"/><path d="m1191.54 1171.94 161.6-84.9 116.5-61.2h1373.6l106.3 61.2 147.4 84.9" style="fill:none;stroke:#444950;stroke-linecap:round;stroke-linejoin:round;stroke-width:1.09px"/><path d="m1429.74 1171.94 123-84.9h1197.3l108.9 84.9M804.24 979.74l150.9-36.1h134.3l108.1-29h121l77.9-23.8h110.2l56-19.9h101.2l39.8-16.9h93.4l27.6-14.5 24-12.6h162.2" style="fill:none;stroke:#444950;stroke-linecap:round;stroke-linejoin:round;stroke-width:1.09px"/><path d="m955.14 943.64 121.3-29h121l88.7-23.8h110.2l65.1-19.9h101.1l47.5-16.9h93.5l34.2-14.5h173.7l18.2-12.6M1906.04 1171.94l45.7-84.9 32.9-61.2 24.9-46.2 19.5-36.1 15.6-29 12.8-23.8 10.7-19.9 9.1-16.9 7.8-14.5 6.8-12.6" style="fill:none;stroke:#444950;stroke-linecap:round;stroke-linejoin:round;stroke-width:1.09px"/><path d="m1076.44 914.64 99.6-23.8h110.2l74.1-19.9h101.2l55.2-16.9h93.3l40.8-14.5 35.4-12.6h162.2" style="fill:none;stroke:#444950;stroke-linecap:round;stroke-linejoin:round;stroke-width:1.09px"/><path d="m1175.94 890.84 83.2-19.9h101.1l62.9-16.9h93.4l47.4-14.5h173.8l29.6-12.6M2740.94 826.94h162.2l50.5 12.6 58.2 14.5M2335.24 826.94h81.1l16.1 12.6h86.8l25.2 14.5h93.4l37 16.9 43.6 19.9h110.2l63 23.8 76.8 29 95.6 36.1 122.3 46.2 162 61.2 224.7 84.9M2578.64 826.94h162.3l39 12.6 45 14.5h93.4l60.1 16.9h101.2l79.8 19.9" style="fill:none;stroke:#444950;stroke-linecap:round;stroke-linejoin:round;stroke-width:1.09px"/><path d="M2416.44 826.94h162.3l27.6 12.6 31.8 14.5h93.5l44.7 16.9 52.7 19.9h110l73.9 23.8h121l103.2 29h134.2l144.9 36.1M1259.14 870.94l70.5-16.9h93.4l54-14.5 46.9-12.6h162.2" style="fill:none;stroke:#444950;stroke-linecap:round;stroke-linejoin:round;stroke-width:1.09px"/><path d="m1329.64 854.04 60.6-14.5h173.7l41.1-12.6M1390.24 839.54l52.6-12.6h81.1M2822.04 826.94l44.8 12.6h86.9M2659.74 826.94l33.3 12.6h173.7l51.6 14.5h93.5l67.8 16.9M2497.54 826.94l21.8 12.6h173.7l38.4 14.5h93.4l52.4 16.9h101.1l70.8 19.9h110.2l95.6 23.8M2254.14 826.94l4.7 12.6 5.4 14.5 6.3 16.9 7.4 19.9 8.8 23.8 10.8 29 13.4 36.1 17.2 46.2 22.7 61.2 31.6 84.9M2173.04 826.94l-1.1 12.6-1.2 14.5-1.4 16.9-1.6 19.9-2 23.8-2.4 29-3 36.1-3.8 46.2-5.1 61.2-7.1 84.9M1583.84 826.94v-440.9L.64.54M2761.64 826.94v-440.9L4344.84.54M2761.64 386.04h-1177.8M2095.04 386.04c21.2 80 134.2 79.6 155.3 0h-155.3Z" style="fill:none;stroke:#444950;stroke-linecap:round;stroke-linejoin:round;stroke-width:1.09px"/><path d="M2172.74 430.44c14.64 0 26.5-7.16 26.5-16s-11.86-16-26.5-16-26.5 7.16-26.5 16 11.86 16 26.5 16Z" style="fill:none;stroke:#444950;stroke-linecap:round;stroke-linejoin:round;stroke-width:1.09px"/><path d="M2172.74 425.64c5.69 0 10.3-2.78 10.3-6.2s-4.61-6.2-10.3-6.2-10.3 2.78-10.3 6.2 4.61 6.2 10.3 6.2Z" style="fill:none;stroke:#444950;stroke-miterlimit:10"/><path d="m1691.94 386.04 106.1 440.9" style="fill:none;stroke:#444950;stroke-linecap:round;stroke-linejoin:round;stroke-width:1.09px"/><path d="M1733.74 559.94c-.8.2-1.6.3-2.5.3-5.8 0-10.5-4.7-10.5-10.5 0-4.9 3.4-9.1 8-10.2l5 20.4ZM1635.44 508.04c8.84 0 16-7.16 16-16s-7.16-16-16-16-16 7.16-16 16 7.16 16 16 16Z" style="fill:none;stroke:#444950;stroke-miterlimit:10"/><path d="M1635.44 554.14c5.74 0 10.4-4.66 10.4-10.4s-4.66-10.4-10.4-10.4-10.4 4.66-10.4 10.4 4.66 10.4 10.4 10.4ZM1635.44 584.14c5.74 0 10.4-4.66 10.4-10.4s-4.66-10.4-10.4-10.4-10.4 4.66-10.4 10.4 4.66 10.4 10.4 10.4ZM2653.54 386.04l-106.1 440.9" style="fill:none;stroke:#444950;stroke-linecap:round;stroke-linejoin:round;stroke-width:1.09px"/><path d="M2611.74 559.94c.8.2 1.6.3 2.4.3 5.8 0 10.5-4.7 10.5-10.5 0-4.9-3.4-9.1-8-10.2l-4.9 20.4ZM2709.94 508.04c8.84 0 16-7.16 16-16s-7.16-16-16-16-16 7.16-16 16 7.16 16 16 16Z" style="fill:none;stroke:#444950;stroke-miterlimit:10"/><path d="M2709.94 554.14c5.74 0 10.4-4.66 10.4-10.4s-4.66-10.4-10.4-10.4-10.4 4.66-10.4 10.4 4.66 10.4 10.4 10.4ZM2709.94 584.14c5.74 0 10.4-4.66 10.4-10.4s-4.66-10.4-10.4-10.4-10.4 4.66-10.4 10.4 4.66 10.4 10.4 10.4ZM2631.14 479.04h-916.8M1721.04 507.24h905.2M2889.84 354.84h-1434.3M2822.04 371.34l22.9 60.2c4.7 12.4 17.1 20.1 30.3 18.7l1469.6-148.5M2889.84 354.84v93M2933.94 344.14v100.2M2761.64 530.04l1526.2 599.5M3239.14 413.54c-111.5 62.4-115.9 250.9 0 304.1M2883.64 704.64c7.51 0 13.6-11.73 13.6-26.2s-6.09-26.2-13.6-26.2-13.6 11.73-13.6 26.2 6.09 26.2 13.6 26.2ZM3064.94 431.14l-56.1 196M1523.44 371.34l-22.9 60.2c-4.7 12.4-17.1 20.1-30.3 18.7L.64 301.74M1455.54 354.84v93M1411.54 344.14v100.2M1583.84 530.04l-1526.2 599.5M1106.34 413.54c111.5 62.4 115.9 250.9 0 304.1M1461.84 704.64c7.51 0 13.6-11.73 13.6-26.2s-6.09-26.2-13.6-26.2-13.6 11.73-13.6 26.2 6.09 26.2 13.6 26.2ZM1280.54 431.14l56 196M2761.64 681.34h-178.4M1762.24 681.34h-178.4" style="fill:none;stroke:#444950;stroke-linecap:round;stroke-linejoin:round;stroke-width:1.09px"/><path d="M2773.44 332.14c27.28 0 49.4-4.61 49.4-10.3s-22.12-10.3-49.4-10.3-49.4 4.61-49.4 10.3 22.12 10.3 49.4 10.3ZM2573.24 332.14c27.28 0 49.4-4.61 49.4-10.3s-22.12-10.3-49.4-10.3-49.4 4.61-49.4 10.3 22.12 10.3 49.4 10.3ZM2372.94 332.14c27.28 0 49.4-4.61 49.4-10.3s-22.12-10.3-49.4-10.3-49.4 4.61-49.4 10.3 22.12 10.3 49.4 10.3ZM2172.74 332.14c27.28 0 49.4-4.61 49.4-10.3s-22.12-10.3-49.4-10.3-49.4 4.61-49.4 10.3 22.12 10.3 49.4 10.3ZM1972.44 332.14c27.28 0 49.4-4.61 49.4-10.3s-22.12-10.3-49.4-10.3-49.4 4.61-49.4 10.3 22.12 10.3 49.4 10.3ZM1772.24 332.14c27.28 0 49.4-4.61 49.4-10.3s-22.12-10.3-49.4-10.3-49.4 4.61-49.4 10.3 22.12 10.3 49.4 10.3ZM1571.94 332.14c27.28 0 49.4-4.61 49.4-10.3s-22.12-10.3-49.4-10.3-49.4 4.61-49.4 10.3 22.12 10.3 49.4 10.3Z" style="fill:none;stroke:#444950;stroke-miterlimit:10"/><path d="M3026.74 254.54c38.77 0 70.2-6.54 70.2-14.6s-31.43-14.6-70.2-14.6-70.2 6.54-70.2 14.6 31.43 14.6 70.2 14.6ZM2742.04 254.54c38.77 0 70.2-6.54 70.2-14.6s-31.43-14.6-70.2-14.6-70.2 6.54-70.2 14.6 31.43 14.6 70.2 14.6ZM2457.44 254.54c38.77 0 70.2-6.54 70.2-14.6s-31.43-14.6-70.2-14.6-70.2 6.54-70.2 14.6 31.43 14.6 70.2 14.6ZM2172.74 254.54c38.77 0 70.2-6.54 70.2-14.6s-31.43-14.6-70.2-14.6-70.2 6.54-70.2 14.6 31.43 14.6 70.2 14.6ZM1888.04 254.54c38.77 0 70.2-6.54 70.2-14.6s-31.43-14.6-70.2-14.6-70.2 6.54-70.2 14.6 31.43 14.6 70.2 14.6ZM1603.44 254.54c38.77 0 70.2-6.54 70.2-14.6s-31.43-14.6-70.2-14.6-70.2 6.54-70.2 14.6 31.43 14.6 70.2 14.6ZM1318.74 254.54c38.77 0 70.2-6.54 70.2-14.6s-31.43-14.6-70.2-14.6-70.2 6.54-70.2 14.6 31.43 14.6 70.2 14.6Z" style="fill:none;stroke:#444950;stroke-linecap:round;stroke-linejoin:round;stroke-width:1.09px"/></g><g style="mask:url(#b)"><path d="M2630.74 1134.34c-17.7-11.6-14.2-26.8-14.2-26.8-48.4-6.9-40.2-29.2-26.2-27.7-31.5-16.4-24.2-22-14.8-18 .3.2.7-.3.4-.5-9.9-11.6-5-15.3-.8-12.3 1.8 1.3 3.5 3.9 3.9 7.6 5.6-2.7 10.3-3.4 13.5-2.1 4.4 1.9 5.6 7.7 2 17.4.9-.2 1.9-.4 2.8-.5 8.4-1 14.7 3.2 17.4 9 2.1 4.6 1.9 10.2-1.6 14.8 13.6 2.7 14.4 9.7 9.2 12.3 10.6 6 10.6 20 8.4 26.8Z" style="fill:#b8aeff"/><path d="M2614.64 1080.44c-2.1.6-4.6.7-7.1.3-5.9-1.1-10.2-5.1-10.2-9.3 8.3-1.1 14.7 3.2 17.3 9ZM2592.54 1054.54c-.8 3.2-4.8 5.7-9.7 5.7-5.4 0-9.8-3.1-9.8-6.9 0-1.6.8-3.1 2.1-4.3 1.8 1.3 3.5 3.9 3.9 7.6 5.7-2.8 10.4-3.5 13.5-2.1Z" style="fill:#e2dcfe"/><path d="M2636.74 1171.44c-.5 0-.9-.4-1-.9l-.4-2.4q-7.5-49.9-35.1-82.9c-5.6-6.7-12.5-15-20.9-25.3-.3-.4-.3-1.1.2-1.4.4-.3 1.1-.3 1.4.2 8.3 10.3 15.2 18.6 20.8 25.3q28 33.5 35.5 83.9l.4 2.4c.1.5-.3 1.1-.9 1.1Z" style="fill:#5d4dc4"/><path d="M2664.44 1075.44c.8 12.9 1.6 25.9 4.5 38.5.7 2.4 1.5 5.3 2.5 7.6 1.3 3.4 3.4 6.5 6.1 8.9 1.5 1.4 3.3 2.7 4.9 4.3 1.6 1.5 3.1 3.3 4.3 5.2 3.5 5.7 5.2 12.3 6.6 18.7.9 4.3 1.6 8.6 2.2 12.9l-2.4.3c-.3-2.1-.6-4.3-.9-6.4-1.1-6.3-2.3-12.7-4.6-18.7-1.5-3.9-3.6-7.6-6.7-10.4-1.5-1.4-3.2-2.7-4.9-4.2-1.7-1.5-3.2-3.3-4.4-5.2l-.9-1.5c-.2-.5-.9-1.8-1.1-2.3-.2-.5-.7-1.8-.9-2.3-.7-1.8-1.4-4.4-1.9-6.3-3-12.8-3.8-25.9-4.5-38.9l2.1-.2Z" style="fill:#3f328f"/><path d="m2667.44 1111.44-.8-1.8c7.7-3.3 7.6-7.1 5.2-35.4-.3-3-.5-6.2-.8-9.8l2-.2c.3 3.5.6 6.8.8 9.8 2.4 27.7 2.9 33.4-6.4 37.4ZM2664.04 1089.94c-8-.3-10.6-7.7-12.3-19.5l2-.3c2.3 16.1 6.4 17.6 10.4 17.8l-.1 2Z" style="fill:#3f328f"/><path d="m2674.34 1094.04-.1-2c6.6-.5 6.7-4 6-18.9l-.1-1.6 2-.1.1 1.6c.6 14.4.9 20.4-7.9 21ZM2692.34 1114.34c-5.2-2.4-8.4-4.8-8.1-23.5h2c-.3 18.4 2.9 19.8 6.9 21.7l-.8 1.8Z" style="fill:#3f328f"/><path d="m2681.34 1134.34-2-.1.9-12.8.7-.2c.4-.1.9-.2 1.3-.3 6.5-1.6 12.6-3.1 9.4-23.6l2-.3c3.2 20.8-2.5 23.8-10.9 25.9-.2 0-.4.1-.6.1l-.8 11.3ZM2668.94 1119.44c-9.7-1.5-11.8-8-13.6-13.8-2-6.3-3.6-11.3-13.8-9.9l-.3-2c11.9-1.5 13.9 5 15.9 11.3 1.8 5.7 3.5 11.2 12 12.5l-.2 1.9Z" style="fill:#3f328f"/><path d="m2648.32 1082.19-1.96.41 2.84 13.51 1.96-.41-2.84-13.51ZM2687.14 1144.64c-15.2 0-17.6-4-24.4-15.8-1-1.7-2-3.5-3.2-5.5l1.7-1c1.2 2 2.3 3.9 3.2 5.5 6.8 11.7 8.6 14.9 23 14.8v2h-.3ZM2690.54 1152.94c11-5 11.3-16.5 12-27.1l.6-10.9 2 .1-.5 10.9c-.5 7.3-.6 15.2-4.6 21.6-2 3.3-5.2 5.8-8.6 7.4l-.9-2Z" style="fill:#3f328f"/><path d="m2701.84 1139.54-.4-.2c-4.9-2.3-7.6-4.2-6.5-17.8l2 .2c-1 12.8 1.4 14 5.4 15.8l.4.2-.9 1.8ZM2686.44 1171.94c-1.2-6.9-8.1-10.2-13.9-12.8-6.4-2.9-13-5.6-18.5-10.2-3.7-3.1-6.6-7-8.7-11.4l1.8-.9c2 4.1 4.7 7.7 8.2 10.6 5.2 4.4 11.8 7 18 9.8 6.6 2.8 14 6.6 15.5 14.4l-2.4.5Z" style="fill:#3f328f"/><path d="m2658.24 1150.74-1.6-1.2c4.7-5.9 3-8.5-11.4-27.3l-.2-.3 1.6-1.2.2.3c14.2 18.5 17.2 22.4 11.4 29.7ZM2678.34 1160.14c-6 10.1-14.2 6.8-22.1 1.3-2.2-1.5-4.4-3.1-6.6-4.6l1.2-1.7c2.2 1.5 4.4 3.1 6.6 4.5 6.8 4.5 13.8 8.1 18.8-.7l2.1 1.2Z" style="fill:#3f328f"/><path d="M2650.44 1123.44c5-2.2 8.6-4.7 8.2-5.7s-4.8-.1-9.8 2.1c-5 2.1-8.6 4.7-8.2 5.7.5 1 4.9.1 9.8-2.1ZM2652.24 1138.54c6-2 10.5-4.5 10.1-5.8-.4-1.2-5.6-.6-11.5 1.3-6 2-10.5 4.5-10.1 5.8.4 1.2 5.5.6 11.5-1.3Z" style="fill:#e2dcfe"/><path d="M2650.74 1147.94c4.2-1.3 7.4-3.1 7.2-3.9-.3-.9-3.9-.5-8.1.8-4.2 1.3-7.4 3.1-7.2 3.9.2.8 3.9.5 8.1-.8Z" style="fill:#b8aeff"/><path d="M2652.04 1159.04c3.1-1.3 5.3-3.2 4.8-4.2-.4-1-3.3-.8-6.4.5-3.1 1.3-5.3 3.2-4.8 4.2s3.3.7 6.4-.5ZM2699.34 1099.44c5.7-.3 10.3-1.5 10.2-2.6-.1-1.2-4.7-1.9-10.5-1.6-5.8.3-10.3 1.5-10.2 2.6.1 1.1 4.8 1.9 10.5 1.6Z" style="fill:#e2dcfe"/><path d="M2688.64 1092.64c3.2-.2 5.8-1.2 5.7-2.3 0-1.1-2.7-1.9-5.9-1.7-3.2.2-5.8 1.2-5.7 2.3 0 1.1 2.7 1.9 5.9 1.7Z" style="fill:#b8aeff"/><path d="M2685.74 1072.84c4.4-.2 7.9-1.1 7.9-2s-3.6-1.5-8-1.2c-4.4.2-7.9 1.1-7.9 2s3.6 1.4 8 1.2Z" style="fill:#e2dcfe"/><path d="M2670.54 1066.24c4.5-.2 8.1-1.2 8.1-2.1s-3.7-1.5-8.2-1.3c-4.5.2-8.1 1.2-8.1 2.1s3.7 1.5 8.2 1.3Z" style="fill:#b8aeff"/><path d="M2653.04 1072.34c4.1-.5 7.4-1.7 7.3-2.5-.1-.8-3.5-1.1-7.7-.6-4.1.5-7.4 1.7-7.3 2.5s3.6 1.1 7.7.6ZM2666.04 1078.74c3.7-.2 6.7-1.4 6.7-2.6-.1-1.3-3.1-2.1-6.9-2-3.7.2-6.7 1.4-6.7 2.6.1 1.3 3.2 2.2 6.9 2Z" style="fill:#e2dcfe"/><path d="M2645.44 1084.64c4.4-.8 7.9-2.2 7.7-3.1-.2-.9-3.9-1-8.3-.2s-7.8 2.2-7.7 3.1c.2.9 3.9 1 8.3.2Z" style="fill:#b8aeff"/><path d="M2643.74 1095.54c1-3.3 1.2-6.1.3-6.4-.9-.3-2.5 2.1-3.5 5.4-1.1 3.3-1.2 6.1-.3 6.4.9.2 2.5-2.2 3.5-5.4ZM2657.84 1102.84c4-1 6.9-2.9 6.6-4.2-.3-1.3-3.8-1.6-7.8-.6s-7 2.9-6.6 4.2c.4 1.3 3.9 1.6 7.8.6Z" style="fill:#e2dcfe"/><path d="M2684.04 1101.14c.1-1.2-3-2.4-6.8-2.7-3.8-.2-7 .6-7 1.8-.1 1.2 3 2.4 6.8 2.7 3.8.2 7-.6 7-1.8ZM2671.84 1128.24c4.8-1.5 8.4-3.6 8-4.6-.3-1-4.4-.5-9.2 1-4.8 1.5-8.4 3.6-8.1 4.6.4 1 4.5.6 9.3-1Z" style="fill:#b8aeff"/><path d="M2661.54 1124.84c3.1-1 5.3-2.6 4.9-3.6-.3-1-3-1-6.1 0-3 1-5.3 2.6-4.9 3.6.3 1.1 3 1 6.1 0Z" style="fill:#e2dcfe"/><path d="M2674.54 1155.54c4.3-2.3 7.2-5.2 6.5-6.6-.7-1.4-4.8-.7-9.1 1.6s-7.2 5.2-6.5 6.6c.7 1.4 4.8.7 9.1-1.6Z" style="fill:#b8aeff"/><path d="M2686.94 1137.14c5.2-1.9 9-4.3 8.6-5.4-.4-1.1-4.9-.4-10 1.5s-9 4.3-8.6 5.4c.3 1.1 4.8.4 10-1.5ZM2709.54 1116.14c5.6-.3 10.2-1.4 10.1-2.6s-4.7-1.9-10.3-1.6-10.1 1.4-10.1 2.6c.1 1.1 4.7 1.8 10.3 1.6Z" style="fill:#e2dcfe"/><path d="M2705.04 1122.84c.1-1.1-2.7-2.2-6.3-2.6-3.6-.3-6.6.2-6.7 1.3-.1 1.1 2.7 2.2 6.3 2.6 3.6.4 6.6-.2 6.7-1.3Z" style="fill:#b8aeff"/><path d="M2605.24 1164.04c11.6 3.1 5.2 7.7 5.2 7.7h-58.9c4-5.6 5.3-8.9 21.7-8.9s32 1.2 32 1.2Z" style="fill:#46379e"/><path d="M2623.14 1151.44c-.4.7-6.7 4.2-12.6 8.6-2.3 1.7-4.5 3.6-6.2 5.5-8.2 3.7-15.9 1.1-15.9 1.1-4 2.9-10.1.9-10.1.9-5.4 5-9.9 2.6-16.3-.6-.8-.4-1.7-.9-2.6-1.3-8-3.8-18.8-8-18.8-8 1.3-4.6 5-8.8 5-8.8l-4.4-3.6c3.6-5.9 9.3-9.2 9.3-9.2l2.5 1.2 2.8-3-4.6-5.1c4.6-6.5 12.4-8.7 12.4-8.7l5.3 6.9c3.5-1.7 6.8-2.7 9.6-3.3 6.3-1.4 10.3-.5 10.3-.5l.4 4.6s5.1-1.4 10.6.4c.7.2 1.1.9 1 1.6-.6 3.2-1.1 5.5-1.1 5.5 8.5.6 13.8 3.4 13.2 4.9-.2.6-.7 1.6-1.1 2.8-.7 1.8-1.5 3.8-1.5 3.8 11.5.6 13.4 3.3 12.8 4.3Z" style="fill:#b8aeff"/><path d="M2610.54 1160.04c-2.3 1.7-4.5 3.6-6.2 5.5-8.2 3.7-15.9 1.1-15.9 1.1-4 2.9-10.1.9-10.1.9-5.4 5-9.9 2.6-16.3-.6 3.7.3 9.5-.2 13.3-5.1l-1.5-3.2s3.3-3.5 6.1-3l.6 6.9s3.8-11.7 18.9 2.5c-.1.1 5-10.9 11.1-5Z" style="fill:#8d7cf7"/><path d="M2612.94 1140.44c-.2.6-.7 1.6-1.1 2.8-1.8 1.3-3.8 2.3-6 3-14.4 4.4-28.6-7.7-27.2-22.3 6.3-1.4 10.3-.5 10.3-.5l.4 4.6s5.1-1.4 10.6.4c.7.2 1.1.9 1 1.6-.6 3.2-1.1 5.5-1.1 5.5 8.4.7 13.7 3.4 13.1 4.9Z" style="fill:#dad3fe"/><path d="m2608.66 1148.02-2.16 4.62 1.82.85 2.15-4.62-1.81-.85ZM2579.74 1165.74c-.1-.7-1.5-17.2-1.5-20.3 0-1 .9-1.9 2.5-2.7 4-1.8 13.8-3.3 16.1-1.5.5.4.8 1 .6 1.7-.6 2.9-2.7 15.6-2.7 15.8l-2-.3c.1-.5 2-12.4 2.7-15.7-1.1-.6-6.1-.4-10.9.9-3.3.9-4.2 1.7-4.3 2-.1 3 1.5 19.9 1.5 20.1h-2ZM2576.44 1166.74l-9.2-19.5c-8.4 1.5-12.8 5.3-12.6 6.3 1.6 1.6 9.5 10.5 9.8 10.8l-1.5 1.3c-.1-.1-8.2-9.2-9.8-10.8-.5-.6-.7-1.3-.4-2.2.9-2.8 6.7-6.4 14.9-7.6l.7-.1 9.8 20.8-1.7 1Z" style="fill:#7667d6"/><path d="m2545.23 1148.06-1.08 1.69 10.62 6.78 1.08-1.69-10.62-6.78ZM2553.58 1136.45l-1.14 1.65 8.57 5.9 1.13-1.65-8.56-5.9Z" style="fill:#7667d6"/><path d="m2562.74 1147.84-3.2-3.8.3-.6c2.7-5.7 13.5-7.9 14.7-8.2 3.8-.7 4.3-.2 4.6 0 .8.7 1.4 3.8 1.8 9.1l-2 .2c-.2-3.1-.7-6.7-1.1-7.7-2.2-.2-13 2.3-15.8 6.9l2.4 2.8-1.7 1.3ZM2579.21 1149.7l-8.02 2.82.66 1.89 8.02-2.82-.66-1.89ZM2586.94 1142.24l-2-.1c.3-5.5.6-11.7.5-12.4-.1-.3 0-.7.2-1.1.6-.9 2.4-1.4 3.4-1.6l.4 2c-.8.1-1.6.4-2 .6.1 1.8-.2 8.5-.5 12.6Z" style="fill:#7667d6"/><path d="m2573.64 1136.74-6.1-9.7.9-.5c.4-.2 9.1-5.4 20.5-4l-.2 2c-8.7-1.1-15.9 2-18.3 3.3l5 8-1.8.9ZM2566.54 1138.94c-.1-.1-2.2-3.4-3.6-6.2-.2-.4-.6-1.2-.8-1.3-.5-.1-2.8 1.5-5.7 3.6l-1.2-1.6c4.4-3.1 5.9-4.2 7.3-3.9 1 .3 1.6 1.3 2.1 2.3 1.4 2.7 3.5 6 3.5 6l-1.6 1.1Z" style="fill:#7667d6"/><path d="M2578.34 1135.94c1.2 2-16.8 8.6-17.7 7.8-2.4-1.9 16.5-9.8 17.7-7.8ZM2596.44 1142.64c0 3.1-16.4 4.9-17.2 2.8-.9-2.3 17.3-6.3 17.2-2.8ZM2554.84 1155.44c-.5 0-.9-.1-1.3-.2l.8-1.8c.8.4 4.3-.7 8.3-3.2 3.2-2 4.2-3.4 4.2-3.8l1.9-.5c.3 1.1-.5 2.4-2.3 4-2.5 2.2-8.4 5.5-11.6 5.5ZM2550.54 1136.04c-.1 3.3-7.5 10-9.3 9.2 3.6-6 9.3-9.2 9.3-9.2ZM2563.74 1120.34c0 1.8-11.7 9.8-12.4 8.7 4.6-6.5 12.4-8.7 12.4-8.7ZM2612.94 1140.44c-1.3 1.6-24.5-5.4-13.2-4.9 8.5.7 13.8 3.4 13.2 4.9Z" style="fill:#7667d6"/><path d="m2596.62 1135.8-2.1 5.3 1.86.74 2.1-5.3-1.86-.74ZM2581.74 1153.34c-1.3 0-2.1-.1-2.2-.1l.2-2c.1 0 8.1.7 15.1-2.7l.9 1.8c-5.4 2.6-11 3-14 3ZM2548.34 1151.54l-1.1-1.6c.1 0 6.5-4.6 8.5-10.6l1.9.6c-2.3 6.6-9 11.4-9.3 11.6Z" style="fill:#7667d6"/><path d="m2605.24 1164.24-1.8-.9 4.5-9.1c-1.3-.9-7.6-1.8-13-2.2l.1-2c5 .3 13.7 1.2 14.8 3.4.3.5.2 1-.1 1.5l-4.5 9.3Z" style="fill:#7667d6"/></g><g style="mask:url(#c)"><path d="M1517.64 1004.74c-1.2-3.9-1.3-11.8 4.8-15.2-3-1.5-2.5-5.4 5.2-7-2-2.6-2.1-5.7-.9-8.4 1.5-3.3 5.1-5.7 9.8-5.1.5.1 1 .2 1.6.3-2.1-5.5-1.4-8.8 1.1-9.8 1.8-.8 4.4-.4 7.6 1.2.2-2.1 1.2-3.5 2.2-4.3 2.4-1.7 5.1.4-.4 6.9-.1.2 0 .4.2.3 5.3-2.2 9.4.9-8.4 10.2 7.9-.8 12.6 11.7-14.8 15.7 0 0 2 8.7-8 15.2Z" style="fill:#b8aeff"/><path d="M1536.54 969.14c0 2.4-2.4 4.6-5.8 5.2-1.4.3-2.8.2-4-.2 1.5-3.2 5.1-5.6 9.8-5ZM1546.84 960.74c.2-2.1 1.2-3.5 2.2-4.3.7.7 1.2 1.5 1.2 2.4 0 2.2-2.5 3.9-5.6 3.9-2.7 0-5-1.4-5.5-3.2 1.8-.7 4.5-.4 7.7 1.2Z" style="fill:#e2dcfe"/><path d="M1514.24 1025.74c.3 0 .5-.2.6-.5l.2-1.4q4.2-28.2 19.8-46.9c3.2-3.8 7.1-8.5 11.8-14.3.2-.2.2-.6-.1-.8-.2-.2-.6-.2-.8.1-4.7 5.8-8.6 10.5-11.8 14.3q-15.8 18.9-20.1 47.4l-.2 1.4c0 .3.2.6.6.7Z" style="fill:#5d4dc4"/><path d="m1498.54 971.44 1.2.1c-.4 7.4-.9 14.8-2.5 22-.3 1.1-.7 2.6-1.1 3.6-.1.3-.4 1-.5 1.3-.1.3-.5 1-.6 1.3l-.5.8c-.7 1.1-1.5 2.1-2.5 2.9-.9.9-1.9 1.6-2.7 2.4-1.7 1.6-2.9 3.7-3.8 5.9-1.3 3.4-2 7-2.6 10.5-.2 1.2-.4 2.4-.5 3.6l-1.3-.2c.4-2.4.7-4.9 1.2-7.3.8-3.6 1.7-7.3 3.7-10.6.7-1.1 1.5-2.1 2.4-3 .9-.9 1.9-1.6 2.8-2.4 1.5-1.4 2.7-3.1 3.5-5 .6-1.3 1-2.9 1.4-4.3 1.6-7 2-14.3 2.4-21.6Z" style="fill:#3f328f"/><path d="m1496.84 991.74.4-1c-4.3-1.9-4.3-4-3-20 .1-1.7.3-3.5.5-5.5l-1.1-.1c-.2 2-.3 3.8-.5 5.5-1.3 15.6-1.5 18.9 3.7 21.1ZM1498.84 979.64c4.5-.2 6-4.3 6.9-11l-1.1-.2c-1.3 9.1-3.6 10-5.9 10l.1 1.2Z" style="fill:#3f328f"/><path d="m1492.94 981.94.1-1.1c-3.7-.3-3.8-2.3-3.4-10.7v-.9h-1.1v.9c-.4 8.1-.5 11.4 4.4 11.8ZM1482.84 993.34c3-1.3 4.8-2.7 4.6-13.3h-1.1c.2 10.4-1.6 11.2-3.9 12.2l.4 1.1Z" style="fill:#3f328f"/><path d="m1489.04 1004.64 1.1-.1-.5-7.2-.4-.1c-.2-.1-.5-.1-.7-.2-3.7-.9-7.1-1.7-5.3-13.4l-1.1-.2c-1.8 11.7 1.4 13.5 6.2 14.6.1 0 .2.1.3.1l.4 6.5ZM1496.04 996.24c5.5-.8 6.6-4.5 7.7-7.8 1.1-3.6 2-6.4 7.8-5.6l.1-1.1c-6.7-.9-7.9 2.8-9 6.4-1 3.2-2 6.3-6.8 7l.2 1.1Z" style="fill:#3f328f"/><path d="m1507.64 975.22-1.6 7.63 1.08.23 1.6-7.63-1.08-.23ZM1485.74 1010.54c8.6 0 9.9-2.3 13.8-8.9.5-.9 1.1-2 1.8-3.1l-1-.6c-.7 1.1-1.3 2.2-1.8 3.1-3.8 6.6-4.9 8.4-13 8.4v1.1h.2ZM1483.84 1015.24l-.6 1.2c-1.9-.9-3.7-2.4-4.8-4.2-2.2-3.6-2.3-8.1-2.6-12.2l-.3-6.1 1.2-.1.3 6.1c.4 6 .6 12.5 6.8 15.3Z" style="fill:#3f328f"/><path d="m1477.44 1007.64.2-.1c2.8-1.3 4.3-2.4 3.7-10.1l-1.1.1c.6 7.3-.8 7.9-3.1 9l-.2.1.5 1ZM1486.14 1025.94l-1.4-.3c.8-4.4 5-6.6 8.7-8.2 3.6-1.5 7.2-3 10.2-5.5 2-1.6 3.5-3.7 4.6-6l1 .5c-1.2 2.5-2.8 4.7-4.9 6.4-3.1 2.6-6.8 4.2-10.4 5.8-3.2 1.6-7.1 3.4-7.8 7.3Z" style="fill:#3f328f"/><path d="m1502.04 1013.94.9-.7c-2.6-3.3-1.7-4.8 6.4-15.4l.1-.2-.9-.7-.1.2c-8 10.5-9.6 12.7-6.4 16.8ZM1491.94 1018.54c2.8 5 6.8 3 10.6.4 1.2-.8 2.5-1.7 3.7-2.6l.7 1c-1.2.9-2.4 1.8-3.7 2.6-4.5 3.1-9.1 5-12.5-.7l1.2-.7Z" style="fill:#3f328f"/><path d="M1512.04 999.74c.2-.6-1.8-2-4.6-3.2s-5.3-1.7-5.5-1.2c-.2.6 1.8 2 4.6 3.2 2.7 1.2 5.2 1.7 5.5 1.2ZM1511.94 1007.84c.2-.7-2.3-2.2-5.7-3.3-3.4-1.1-6.3-1.4-6.5-.8-.2.7 2.3 2.2 5.7 3.3 3.4 1.1 6.3 1.5 6.5.8Z" style="fill:#e2dcfe"/><path d="M1510.94 1012.84c.1-.5-1.7-1.5-4-2.2-2.4-.7-4.4-.9-4.6-.5-.2.5 1.7 1.5 4 2.2 2.4.8 4.4 1 4.6.5Z" style="fill:#b8aeff"/><path d="M1509.14 1018.94c.2-.6-1-1.7-2.7-2.4-1.8-.7-3.4-.8-3.6-.3-.2.6 1 1.7 2.7 2.4 1.8.7 3.4.8 3.6.3ZM1484.74 984.04c0-.7-2.6-1.3-5.8-1.5s-5.9.2-5.9.9 2.6 1.3 5.8 1.5c3.2.2 5.9-.2 5.9-.9Z" style="fill:#e2dcfe"/><path d="M1488.24 980.14c0-.6-1.4-1.2-3.2-1.3-1.8-.1-3.3.3-3.3 1 0 .6 1.4 1.2 3.2 1.3 1.8.1 3.3-.3 3.3-1Z" style="fill:#b8aeff"/><path d="M1491.04 969.24c0-.5-2-1-4.5-1.1-2.5-.1-4.5.2-4.5.7s2 1 4.5 1.1c2.5.1 4.5-.2 4.5-.7Z" style="fill:#e2dcfe"/><path d="M1499.74 965.44c0-.5-2-1-4.6-1.2-2.5-.1-4.6.2-4.7.7 0 .5 2 1 4.6 1.2 2.6.2 4.7-.2 4.7-.7Z" style="fill:#b8aeff"/><path d="M1509.34 969.34c.1-.5-1.8-1.1-4.1-1.4s-4.3-.2-4.3.3c-.1.5 1.8 1.1 4.1 1.4 2.3.3 4.3.2 4.3-.3ZM1501.54 972.14c0-.7-1.7-1.4-3.8-1.5-2.1-.1-3.9.4-3.9 1.1s1.6 1.4 3.8 1.5c2.1.2 3.9-.3 3.9-1.1Z" style="fill:#e2dcfe"/><path d="M1514.04 976.44c.1-.5-1.9-1.3-4.3-1.7-2.5-.5-4.6-.4-4.7.1-.1.5 1.9 1.3 4.3 1.7 2.5.5 4.6.5 4.7-.1Z" style="fill:#b8aeff"/><path d="M1512.24 985.74c.5-.2.4-1.8-.2-3.6-.6-1.8-1.5-3.2-2-3-.5.2-.4 1.8.2 3.6s1.5 3.2 2 3ZM1506.74 986.54c.2-.7-1.5-1.8-3.7-2.4-2.3-.6-4.2-.4-4.4.3-.2.7 1.5 1.8 3.7 2.4 2.2.6 4.2.5 4.4-.3Z" style="fill:#e2dcfe"/><path d="M1491.44 986.94c2.2-.1 3.9-.8 3.8-1.5 0-.7-1.8-1.2-4-1-2.2.1-3.9.8-3.8 1.5.1.7 1.9 1.1 4 1ZM1499.64 1001.84c.2-.6-1.9-1.7-4.6-2.6s-5-1.1-5.2-.6c-.2.6 1.9 1.7 4.6 2.6s5 1.2 5.2.6Z" style="fill:#b8aeff"/><path d="M1503.64 999.34c.2-.6-1.1-1.5-2.8-2-1.7-.6-3.3-.6-3.4 0-.2.6 1.1 1.5 2.8 2 1.7.6 3.3.6 3.4 0Z" style="fill:#e2dcfe"/><path d="M1498.04 1017.54c.4-.8-1.2-2.5-3.7-3.7-2.5-1.2-4.7-1.7-5.2-.9-.4.8 1.2 2.5 3.7 3.7 2.5 1.3 4.8 1.7 5.2.9Z" style="fill:#b8aeff"/><path d="M1491.54 1007.14c.2-.6-2-2-4.9-3-2.9-1.1-5.5-1.5-5.7-.9s2 2 4.9 3c3 1.1 5.5 1.5 5.7.9ZM1478.94 993.54c0-.7-2.5-1.3-5.7-1.5s-5.8.2-5.8.9 2.5 1.3 5.7 1.5c3.1.1 5.7-.3 5.8-.9Z" style="fill:#e2dcfe"/><path d="M1479.44 998.94c2-.2 3.6-.8 3.6-1.4-.1-.6-1.8-.9-3.8-.7-2 .2-3.6.8-3.6 1.4s1.7.9 3.8.7Z" style="fill:#b8aeff"/><path d="M1550.14 1020.84c9.2 0 10 1.9 12.3 5.1h-33.3s-3.6-2.6 3-4.4c-.1 0 8.8-.7 18-.7Z" style="fill:#46379e"/><path d="m1529.14 1011.84-.8-2.2c-.2-.6-.5-1.2-.6-1.6-.4-.8 2.6-2.4 7.4-2.7 0 0-.3-1.3-.6-3.1-.1-.4.2-.8.5-.9 3.1-1 6-.2 6-.2l.2-2.6s2.3-.5 5.8.3c1.6.3 3.4.9 5.4 1.9l3-3.9s4.4 1.2 7 4.9l-2.6 2.9 1.6 1.7 1.4-.7s3.3 1.8 5.3 5.2l-2.5 2.1s2.1 2.4 2.8 5c0 0-6.1 2.4-10.6 4.5-.5.2-1 .5-1.5.7-3.7 1.8-6.2 3.2-9.2.4 0 0-3.5 1.1-5.7-.5 0 0-4.3 1.5-9-.6-1-1.1-2.2-2.1-3.5-3.1-3.3-2.5-6.9-4.5-7.1-4.9-.2-.7.8-2.2 7.3-2.6Z" style="fill:#b8aeff"/><path d="M1535.34 1022.14c8.6-8 10.7-1.4 10.7-1.4l.3-3.9c1.5-.3 3.4 1.7 3.4 1.7l-.8 1.8c2.1 2.8 5.4 3 7.5 2.9-3.7 1.8-6.2 3.2-9.2.4 0 0-3.5 1.1-5.7-.5 0 0-4.3 1.5-9-.6-1-1.1-2.2-2.1-3.5-3.1 3.5-3.5 6.3 2.7 6.3 2.7Z" style="fill:#8d7cf7"/><path d="M1535.14 1005.44s-.3-1.3-.6-3.1c-.1-.4.2-.8.5-.9 3.1-1 6-.2 6-.2l.2-2.6s2.3-.5 5.8.3c.8 8.2-7.2 15.1-15.4 12.6-1.3-.4-2.4-1-3.4-1.7-.2-.6-.5-1.2-.6-1.6-.3-.9 2.7-2.5 7.5-2.8Z" style="fill:#dad3fe"/><path d="m1529.94 1012.44-1 .46 1.23 2.63 1-.47-1.23-2.63ZM1545.34 1022.34c0-.1.9-9.6.8-11.3 0-.1-.6-.6-2.4-1.1-2.7-.7-5.5-.8-6.2-.5.4 1.9 1.5 8.6 1.5 8.9l-1.1.2c0-.1-1.2-7.3-1.5-8.9-.1-.4 0-.7.3-.9 1.3-1 6.8-.2 9.1.9.9.4 1.4.9 1.4 1.5 0 1.8-.8 11.1-.8 11.5l-1.1-.3ZM1548.34 1023.04l5.2-11c4.7.8 7.2 3 7.1 3.6-.9.9-5.4 5.9-5.6 6.1l.8.8c0-.1 4.6-5.2 5.5-6.1.3-.3.4-.8.2-1.2-.5-1.6-3.8-3.6-8.4-4.3l-.4-.1-5.6 11.8 1.2.4Z" style="fill:#7667d6"/><path d="m1566.01 1012.54-5.98 3.82.59.93 5.98-3.82-.59-.93ZM1561.17 1005.86l-4.86 3.35.62.91 4.86-3.35-.62-.91Z" style="fill:#7667d6"/><path d="m1555.24 1011.54 1.3-1.6c-1.6-2.6-7.7-4-9-3.9-.2.6-.5 2.6-.6 4.4l-1.1-.1c.2-3 .6-4.8 1-5.2.2-.1.5-.4 2.6 0 .7.1 6.8 1.4 8.3 4.6l.2.3-1.9 2.3-.8-.8ZM1546.84 1013.35l-.36 1.04 4.53 1.59.36-1.04-4.53-1.59ZM1542.14 1002.04c-.2-.1-.7-.3-1.1-.4l.2-1.1c.6.1 1.6.4 1.9.9.1.2.2.4.1.6-.1.4.1 3.9.3 7l-1.1.1c-.2-2.3-.4-6.1-.3-7.1Z" style="fill:#7667d6"/><path d="m1549.84 1006.04 3.4-5.5-.5-.3c-.2-.1-5.1-3.1-11.6-2.3l.1 1.1c4.9-.6 9 1.2 10.4 1.9l-2.8 4.5 1 .6ZM1553.94 1007.34c.1-.1 1.2-1.9 2-3.5.1-.2.3-.7.5-.7.3-.1 1.6.9 3.2 2l.7-.9c-2.5-1.8-3.4-2.4-4.1-2.2-.6.1-.9.7-1.2 1.3-.8 1.5-2 3.4-2 3.4l.9.6Z" style="fill:#7667d6"/><path d="M1557.24 1010.04c-.5.4-10.7-3.3-10-4.4.7-1.1 11.4 3.3 10 4.4ZM1546.74 1010.94c-.5 1.2-9.7.2-9.7-1.6-.1-1.9 10.2.4 9.7 1.6ZM1560.54 1016.64c.3 0 .5 0 .7-.1l-.5-1c-.4.2-2.5-.4-4.7-1.8-1.8-1.1-2.4-1.9-2.4-2.1l-1.1-.3c-.2.6.3 1.4 1.3 2.2 1.6 1.2 4.9 3.1 6.7 3.1ZM1568.24 1010.84c-1 .5-5.2-3.3-5.3-5.2 0 0 3.3 1.8 5.3 5.2ZM1562.54 1001.74c-.5.6-7-3.9-7-4.9 0 0 4.4 1.2 7 4.9ZM1535.14 1005.44c6.4-.3-6.7 3.7-7.4 2.7-.4-.8 2.6-2.4 7.4-2.7Z" style="fill:#7667d6"/><path d="m1536.98 1005.69-1.02.41 1.18 2.97 1.02-.4-1.18-2.98ZM1545.34 1015.44h1.2l-.1-1.1s-4.6.4-8.5-1.5l-.5 1c3 1.4 6.2 1.6 7.9 1.6ZM1564.24 1014.44l.6-.9s-3.7-2.6-4.8-6l-1.1.4c1.3 3.7 5.1 6.4 5.3 6.5Z" style="fill:#7667d6"/><path d="M1529.44 1016.34c-.2-.3-.2-.6 0-.9.6-1.2 5.5-1.7 8.4-1.9l.1 1.1c-3.1.2-6.6.7-7.4 1.2l2.5 5.2-1 .5-2.6-5.2Z" style="fill:#7667d6"/></g><g style="mask:url(#d)"><path d="M2790.74 858.74c-5.7-3.7-4.6-8.7-4.6-8.7-15.6-2.2-13-9.4-8.5-9-10.2-5.3-7.8-7.1-4.8-5.8.1 0 .2-.1.1-.2-3.2-3.7-1.6-4.9-.3-4 .6.4 1.1 1.2 1.3 2.4 1.8-.9 3.3-1.1 4.3-.7 1.4.6 1.8 2.5.6 5.6.3-.1.6-.1.9-.2 2.7-.3 4.8 1 5.6 2.9.7 1.5.6 3.3-.5 4.8 4.4.9 4.7 3.1 3 4 3.6 2.2 3.6 6.7 2.9 8.9Z" style="fill:#b8aeff"/><path d="M2785.54 841.24c-.7.2-1.5.2-2.3.1-1.9-.4-3.3-1.6-3.3-3 2.7-.3 4.8 1.1 5.6 2.9ZM2778.44 832.94c-.3 1-1.6 1.8-3.1 1.8-1.8 0-3.2-1-3.2-2.2 0-.5.3-1 .7-1.4.6.4 1.1 1.2 1.3 2.4 1.7-.8 3.3-1.1 4.3-.6Z" style="fill:#e2dcfe"/><path d="M2792.64 870.74c-.2 0-.3-.1-.3-.3l-.1-.8q-2.4-16.1-11.3-26.8c-1.8-2.2-4.1-4.8-6.7-8.2-.1-.1-.1-.3 0-.5.1-.1.3-.1.5 0 2.7 3.3 4.9 6 6.7 8.2q9 10.8 11.5 27.1l.1.8c0 .3-.1.4-.4.5q.1 0 0 0Z" style="fill:#5d4dc4"/><path d="M2801.64 839.74c.2 4.2.5 8.4 1.5 12.4.2.8.5 1.7.8 2.4.4 1.1 1.1 2.1 2 2.9.5.5 1.1.9 1.6 1.4s1 1.1 1.4 1.7c1.1 1.8 1.7 4 2.1 6 .3 1.4.5 2.8.7 4.2l-.8.1-.3-2.1c-.3-2-.7-4.1-1.5-6-.5-1.3-1.2-2.4-2.2-3.4-.5-.5-1-.9-1.6-1.4-.5-.5-1-1.1-1.4-1.7l-.3-.5c-.1-.2-.3-.6-.4-.7-.1-.2-.2-.6-.3-.8-.2-.6-.5-1.4-.6-2-1-4.1-1.2-8.4-1.4-12.6l.7.1Z" style="fill:#3f328f"/><path d="m2802.64 851.34-.3-.6c2.5-1.1 2.5-2.3 1.7-11.4-.1-1-.2-2-.3-3.2l.6-.1c.1 1.1.2 2.2.3 3.2.8 8.9 1 10.8-2 12.1ZM2801.54 844.34c-2.6-.1-3.4-2.5-4-6.3l.6-.1c.7 5.2 2.1 5.7 3.3 5.7l.1.7Z" style="fill:#3f328f"/><path d="M2804.84 845.74v-.6c2.1-.2 2.2-1.3 1.9-6.1v-.5h.6v.5c.3 4.5.3 6.5-2.5 6.7ZM2810.64 852.24c-1.7-.8-2.7-1.5-2.6-7.6h.6c-.1 5.9.9 6.4 2.2 7l-.2.6Z" style="fill:#3f328f"/><path d="M2807.14 858.74h-.6l.3-4.1.2-.1c.1 0 .3-.1.4-.1 2.1-.5 4.1-1 3.1-7.6l.6-.1c1 6.7-.8 7.7-3.5 8.4h-.2l-.3 3.6ZM2803.14 853.94c-3.1-.5-3.8-2.6-4.4-4.5-.6-2-1.1-3.6-4.4-3.2l-.1-.6c3.8-.5 4.5 1.6 5.1 3.7.6 1.9 1.1 3.6 3.9 4l-.1.6Z" style="fill:#3f328f"/><path d="m2796.39 841.94-.59.12.93 4.4.58-.12-.92-4.4ZM2808.94 862.04c-4.9 0-5.7-1.3-7.9-5.1-.3-.5-.7-1.1-1-1.8l.6-.3c.4.7.7 1.2 1 1.8 2.2 3.8 2.8 4.8 7.4 4.8l-.1.6q.1 0 0 0ZM2810.04 864.74c3.5-1.6 3.7-5.3 3.9-8.8l.2-3.5h.7l-.2 3.5c-.2 2.4-.2 4.9-1.5 7-.6 1.1-1.7 1.9-2.8 2.4l-.3-.6Z" style="fill:#3f328f"/><path d="m2813.74 860.44-.1-.1c-1.6-.7-2.4-1.4-2.1-5.8h.6c-.3 4.2.5 4.5 1.7 5.1l.1.1-.2.7ZM2808.74 870.84c-.4-2.2-2.6-3.3-4.5-4.1-2.1-.9-4.2-1.8-6-3.3-1.2-1-2.1-2.3-2.8-3.7l.6-.3c.6 1.3 1.5 2.5 2.6 3.4 1.7 1.4 3.8 2.3 5.8 3.2 2.1.9 4.5 2.1 5 4.7l-.7.1Z" style="fill:#3f328f"/><path d="m2799.64 864.04-.5-.4c1.5-1.9 1-2.7-3.7-8.8l-.1-.1.5-.4.1.1c4.6 6 5.6 7.2 3.7 9.6ZM2806.14 867.04c-1.9 3.3-4.6 2.2-7.1.4l-2.1-1.5.4-.5 2.1 1.5c2.2 1.5 4.5 2.6 6.1-.2l.6.3Z" style="fill:#3f328f"/><path d="M2797.14 855.24c1.6-.7 2.8-1.5 2.6-1.9-.1-.3-1.6 0-3.2.7s-2.8 1.5-2.6 1.9c.2.2 1.6 0 3.2-.7ZM2797.74 860.04c1.9-.6 3.4-1.5 3.3-1.9-.1-.4-1.8-.2-3.7.4-1.9.6-3.4 1.5-3.3 1.9.1.5 1.7.3 3.7-.4Z" style="fill:#e2dcfe"/><path d="M2797.24 863.14c1.4-.4 2.4-1 2.3-1.3-.1-.3-1.3-.2-2.6.3-1.4.4-2.4 1-2.3 1.3 0 .2 1.2.1 2.6-.3Z" style="fill:#b8aeff"/><path d="M2797.64 866.64c1-.4 1.7-1 1.6-1.4-.1-.3-1.1-.3-2.1.1s-1.7 1-1.6 1.4c.2.4 1.1.4 2.1-.1ZM2812.94 847.44c1.8-.1 3.3-.5 3.3-.9s-1.5-.6-3.4-.5c-1.8.1-3.3.5-3.3.9s1.5.6 3.4.5Z" style="fill:#e2dcfe"/><path d="M2809.44 845.24c1-.1 1.9-.4 1.8-.7 0-.4-.9-.6-1.9-.5-1 .1-1.9.4-1.8.7 0 .3.9.6 1.9.5Z" style="fill:#b8aeff"/><path d="M2808.54 838.84c1.4-.1 2.6-.4 2.5-.7 0-.3-1.2-.5-2.6-.4-1.4.1-2.6.4-2.5.7 0 .3 1.2.5 2.6.4Z" style="fill:#e2dcfe"/><path d="M2803.64 836.74c1.5-.1 2.6-.4 2.6-.7s-1.2-.5-2.7-.4c-1.5.1-2.6.4-2.6.7 0 .2 1.2.4 2.7.4Z" style="fill:#b8aeff"/><path d="M2797.94 838.64c1.3-.2 2.4-.5 2.4-.8s-1.1-.4-2.5-.2c-1.3.2-2.4.5-2.4.8.1.3 1.2.4 2.5.2ZM2802.14 840.74c1.2-.1 2.2-.4 2.1-.9s-1-.7-2.2-.6c-1.2.1-2.2.4-2.1.9 0 .4 1 .7 2.2.6Z" style="fill:#e2dcfe"/><path d="M2795.54 842.64c1.4-.3 2.5-.7 2.5-1-.1-.3-1.3-.3-2.7-.1-1.4.3-2.5.7-2.5 1s1.2.4 2.7.1Z" style="fill:#b8aeff"/><path d="M2794.94 846.14c.3-1.1.4-2 .1-2.1-.3-.1-.8.7-1.1 1.7-.3 1.1-.4 2-.1 2.1.3.2.8-.6 1.1-1.7ZM2799.54 848.54c1.3-.3 2.2-.9 2.1-1.4-.1-.4-1.2-.5-2.5-.2s-2.2.9-2.1 1.4c.1.4 1.2.5 2.5.2Z" style="fill:#e2dcfe"/><path d="M2807.94 847.94c0-.4-1-.8-2.2-.9-1.2-.1-2.3.2-2.3.6s1 .8 2.2.9c1.3.1 2.3-.2 2.3-.6ZM2804.04 856.74c1.5-.5 2.7-1.2 2.6-1.5s-1.4-.2-3 .3c-1.5.5-2.7 1.2-2.6 1.5.1.4 1.4.2 3-.3Z" style="fill:#b8aeff"/><path d="M2800.64 855.64c1-.3 1.7-.8 1.6-1.2-.1-.3-1-.3-2 0s-1.7.8-1.6 1.2c.2.3 1.1.3 2 0Z" style="fill:#e2dcfe"/><path d="M2804.94 865.54c1.4-.7 2.3-1.7 2.1-2.1-.2-.5-1.6-.2-2.9.5-1.3.7-2.3 1.7-2.1 2.1.1.5 1.5.3 2.9-.5Z" style="fill:#b8aeff"/><path d="M2808.94 859.64c1.7-.6 2.9-1.4 2.8-1.7s-1.6-.1-3.2.5c-1.7.6-2.9 1.4-2.8 1.7 0 .3 1.5.1 3.2-.5ZM2816.24 852.84c1.8-.1 3.3-.5 3.3-.8 0-.4-1.5-.6-3.3-.5-1.8.1-3.3.5-3.3.8s1.5.6 3.3.5Z" style="fill:#e2dcfe"/><path d="M2814.74 855.04c0-.3-.9-.7-2-.8-1.2-.1-2.1.1-2.2.4 0 .3.9.7 2 .8 1.2.1 2.2-.1 2.2-.4Z" style="fill:#b8aeff"/><path d="M2782.54 868.34c3.7 1 1.7 2.5 1.7 2.5h-19c1.3-1.8 1.7-2.9 7-2.9s10.3.4 10.3.4Z" style="fill:#46379e"/><path d="M2788.34 864.24c-.1.2-2.2 1.3-4.1 2.8-.7.6-1.4 1.2-2 1.8-2.7 1.2-5.1.4-5.1.4-1.3.9-3.3.3-3.3.3-1.7 1.6-3.2.8-5.3-.2-.3-.1-.5-.3-.8-.4-2.6-1.2-6.1-2.6-6.1-2.6.4-1.5 1.6-2.8 1.6-2.8l-1.4-1.2c1.1-1.9 3-3 3-3l.8.4.9-1-1.5-1.7c1.5-2.1 4-2.8 4-2.8l1.7 2.2c1.1-.6 2.2-.9 3.1-1.1 2-.4 3.3-.2 3.3-.2l.1 1.5s1.6-.5 3.4.1c.2.1.4.3.3.5-.2 1-.4 1.8-.4 1.8 2.7.2 4.5 1.1 4.3 1.6-.1.2-.2.5-.4.9-.2.6-.5 1.2-.5 1.2 3.9.3 4.5 1.2 4.4 1.5Z" style="fill:#b8aeff"/><path d="M2784.24 867.04c-.7.6-1.4 1.2-2 1.8-2.7 1.2-5.1.4-5.1.4-1.3.9-3.3.3-3.3.3-1.7 1.6-3.2.8-5.3-.2 1.2.1 3.1-.1 4.3-1.6l-.5-1s1.1-1.1 2-1l.2 2.2s1.2-3.8 6.1.8c0-.1 1.6-3.6 3.6-1.7Z" style="fill:#8d7cf7"/><path d="M2784.94 860.74c-.1.2-.2.5-.4.9-.6.4-1.2.7-2 1-4.6 1.4-9.2-2.5-8.8-7.2 2-.4 3.3-.2 3.3-.2l.1 1.5s1.6-.5 3.4.1c.2.1.4.3.3.5-.2 1-.4 1.8-.4 1.8 3 .2 4.8 1.1 4.5 1.6Z" style="fill:#dad3fe"/><path d="m2783.54 863.14-.72 1.54.54.25.72-1.54-.54-.25ZM2774.24 868.84c0-.2-.5-5.6-.5-6.6 0-.3.3-.6.8-.9 1.3-.6 4.5-1.1 5.2-.5.2.1.2.3.2.5-.2.9-.9 5.1-.9 5.1l-.6-.1c0-.2.6-4 .9-5.1-.4-.2-2-.1-3.5.3-1.1.3-1.4.6-1.4.6 0 1 .5 6.4.5 6.5l-.7.2ZM2773.24 869.24l-3-6.3c-2.7.5-4.1 1.7-4.1 2 .5.5 3.1 3.4 3.2 3.5l-.5.4s-2.6-3-3.2-3.5c-.2-.2-.2-.4-.1-.7.3-.9 2.2-2.1 4.8-2.5h.2l3.2 6.7-.5.4Z" style="fill:#7667d6"/><path d="m2763.03 863.11-.32.51 3.45 2.21.33-.51-3.46-2.21ZM2765.71 859.49l-.34.49 2.8 1.93.34-.49-2.8-1.93Z" style="fill:#7667d6"/><path d="m2768.74 863.04-1-1.2.1-.2c.9-1.8 4.3-2.6 4.7-2.6 1.2-.2 1.4-.1 1.5 0 .2.2.4 1.2.6 3l-.6.1c-.1-1-.2-2.2-.4-2.5-.7-.1-4.2.8-5.1 2.2l.8.9-.6.3ZM2774.21 863.7l-2.64.93.2.57 2.64-.93-.2-.57ZM2776.64 861.24h-.6c.1-1.8.2-3.8.2-4 0-.1 0-.2.1-.3.2-.3.8-.4 1.1-.5l.1.6c-.3 0-.5.1-.6.2-.1.6-.3 2.7-.3 4Z" style="fill:#7667d6"/><path d="m2772.34 859.44-2-3.1.3-.2c.1-.1 2.9-1.8 6.6-1.3l-.1.6c-2.8-.3-5.1.7-5.9 1.1l1.6 2.6-.5.3ZM2770.04 860.24s-.7-1.1-1.2-2c-.1-.1-.2-.4-.3-.4-.2 0-.9.5-1.8 1.1l-.4-.5c1.4-1 1.9-1.4 2.4-1.2.3.1.5.4.7.8.4.9 1.1 1.9 1.1 1.9l-.5.3Z" style="fill:#7667d6"/><path d="M2773.84 859.24c.4.6-5.4 2.8-5.7 2.5-.8-.6 5.3-3.1 5.7-2.5ZM2779.64 861.44c0 1-5.3 1.6-5.6.9-.2-.8 5.6-2.1 5.6-.9ZM2766.24 865.54c-.2 0-.3 0-.4-.1l.3-.6c.3.1 1.4-.2 2.7-1 1-.6 1.4-1.1 1.4-1.2l.6-.2c.1.4-.2.8-.7 1.3-1 .7-2.9 1.8-3.9 1.8ZM2764.84 859.24c0 1.1-2.4 3.2-3 3 1.1-1.9 3-3 3-3ZM2769.14 854.24c0 .6-3.8 3.2-4 2.8 1.4-2.1 4-2.8 4-2.8ZM2784.94 860.74c-.4.5-7.9-1.7-4.3-1.6 2.8.2 4.6 1.1 4.3 1.6Z" style="fill:#7667d6"/><path d="m2779.71 859.13-.66 1.67.55.22.67-1.67-.56-.22ZM2774.94 864.84h-.7l.1-.6s2.6.2 4.9-.9l.3.6c-1.8.8-3.7.9-4.6.9ZM2764.14 864.24l-.4-.5s2.1-1.5 2.7-3.4l.6.2c-.7 2.1-2.8 3.7-2.9 3.7Z" style="fill:#7667d6"/><path d="m2782.54 868.34-.6-.3 1.4-3c-.4-.3-2.4-.6-4.2-.7v-.6c1.6.1 4.4.4 4.8 1.1.1.2.1.3 0 .5l-1.4 3Z" style="fill:#7667d6"/></g></svg>