<svg width="238" height="118" fill="none" viewBox="0 0 238 118" xmlns="http://www.w3.org/2000/svg">
 <g opacity=".8">
  <path d="m208.4 90.33c-5.609 2.03-8.731 7.967-6.968 13.25 1.763 5.283 7.749 7.924 13.36 5.894 5.61-2.03 8.732-7.967 6.968-13.25-1.763-5.283-7.749-7.924-13.36-5.894zm-183.1-53.68c1.464 1e-4 2.197 0.7322 2.197 2.197v68.83c0 1.464-0.7322 2.196-2.197 2.196h-14.5c-1.464 0-2.197-0.732-2.197-2.196v-68.83c0-1.464 0.7323-2.197 2.197-2.197h14.5zm59.6-0.5857c15.96 0 21.53 10.84 21.53 25.77v45.84c0 1.464-0.733 2.196-2.197 2.196h-14.5c-1.464 0-2.197-0.732-2.197-2.196v-48.03c0-4.979-3.661-6.736-7.908-6.736h-1.757c-6.297 0-10.84 2.636-12.45 5.272v49.5c0 1.464-0.7322 2.196-2.197 2.196h-14.5c-1.464 0-2.197-0.732-2.197-2.196v-68.83c0-1.464 0.7322-2.197 2.197-2.197h14.5c1.464 1e-4 2.197 0.7322 2.197 2.197v6.443c2.197-3.661 7.761-9.226 18.6-9.226h0.8787zm55.79-28.7c1.465 0 2.197 0.7323 2.197 2.197v50.82l20.79-21.97c0.879-1.025 2.197-1.757 3.369-1.757h15.08c1.904 1e-4 3.661 2.197 1.025 4.979l-21.82 23.43 25.48 40.86c0.879 1.611 0.732 3.954-1.757 3.954h-13.77c-1.903 0-3.661-0.585-4.832-2.636l-17.87-29.58-5.711 5.711v24.31c0 1.464-0.732 2.196-2.197 2.196h-14.5c-1.464 0-2.196-0.732-2.196-2.196v-98.12c0-1.464 0.732-2.197 2.196-2.197h14.5zm-125.5 3.479c-5.497 1.662-8.805 7.209-7.383 12.38 1.423 5.17 7.041 8.018 12.54 6.356 5.497-1.662 8.805-7.209 7.383-12.38-1.423-5.17-7.041-8.018-12.54-6.356z" clip-rule="evenodd" fill="#000" fill-rule="evenodd"/>
  <path d="m25.33 36.15h-14.5c-0.8093 0-1.508 0.2027-2.001 0.6956-0.493 0.493-0.6956 1.192-0.6956 2.001v68.83c0 0.809 0.2027 1.508 0.6956 2.001s1.192 0.695 2.001 0.695h14.5c0.8093 0 1.508-0.202 2.001-0.695s0.6956-1.192 0.6956-2.001v-68.83c0-0.8093-0.2027-1.508-0.6956-2.001-0.4929-0.4929-1.192-0.6956-2.001-0.6956zm162 69.53-7e-3 -0.013-7e-3 -0.012-25.28-40.53 21.56-23.15c1e-3 -5e-4 1e-3 -1e-3 2e-3 -0.0015 1.395-1.474 1.733-2.916 1.291-4.056-0.431-1.114-1.55-1.765-2.681-1.765h-15.08c-1.353 1e-4 -2.795 0.8251-3.74 1.922l-19.92 21.05v-49.56c0-0.8092-0.203-1.508-0.696-2.001-0.493-0.493-1.192-0.6956-2.001-0.6956h-14.5c-0.809 0-1.508 0.2027-2.001 0.6956-0.493 0.4929-0.695 1.192-0.695 2.001v98.12c0 0.809 0.202 1.508 0.695 2.001s1.192 0.695 2.001 0.695h14.5c0.809 0 1.508-0.202 2.001-0.695s0.696-1.192 0.696-2.001v-24.1l5.113-5.113 17.53 29.02 3e-3 6e-3c0.631 1.103 1.435 1.833 2.353 2.282 0.913 0.447 1.91 0.6 2.91 0.6h13.77c0.701 0 1.283-0.165 1.735-0.481 0.454-0.318 0.738-0.761 0.885-1.247 0.288-0.951 0.059-2.079-0.424-2.965zm-172.2-95.32 0.1447 0.4786-0.1447-0.4786c-5.727 1.731-9.223 7.529-7.72 12.99v1e-4c1.506 5.472 7.431 8.435 13.16 6.701 5.727-1.732 9.223-7.529 7.72-12.99-1.506-5.473-7.431-8.435-13.16-6.702zm193.1 79.5c-5.835 2.112-9.131 8.31-7.272 13.88 1.863 5.581 8.161 8.32 14 6.206 5.834-2.112 9.131-8.31 7.272-13.88-1.863-5.581-8.162-8.32-14-6.206zm-101.3-28.02c0-7.516-1.398-14.09-4.876-18.79-3.499-4.728-9.045-7.488-17.15-7.488h-0.8787c-9.762 0-15.36 4.443-18.1 8.091v-4.809c0-0.8093-0.2027-1.508-0.6956-2.001-0.4929-0.4929-1.192-0.6956-2.001-0.6956h-14.5c-0.8093 0-1.508 0.2027-2.001 0.6956-0.493 0.493-0.6956 1.192-0.6956 2.001v68.83c0 0.809 0.2026 1.508 0.6956 2.001 0.4929 0.493 1.192 0.695 2.001 0.695h14.5c0.8093 0 1.508-0.202 2.001-0.695s0.6956-1.192 0.6956-2.001v-49.35c1.557-2.407 5.862-4.916 11.95-4.916h1.757c2.066 0 3.923 0.4294 5.251 1.404 1.302 0.9561 2.157 2.482 2.157 4.832v48.03c0 0.809 0.2026 1.508 0.6955 2.001 0.493 0.493 1.192 0.695 2.001 0.695h14.5c0.809 0 1.508-0.202 2.001-0.695s0.696-1.192 0.696-2.001v-45.84z" stroke="#fff" stroke-opacity=".8"/>
  <path d="m206.6 73.28-3.191-0.0236c-1.464 0-2.196-0.7323-2.196-2.197v-61.51c0-1.464 0.732-2.197 2.196-2.197h14.94c1.465 0 2.197 0.7323 2.197 2.197l-9e-3 2.076c-5.681 1.384-10.1 7.172-10.46 14.39-0.284 5.797 2.129 11.05 5.943 14.02-2.841 1.933-4.93 5.198-5.453 9.109-0.57 4.258 0.847 8.291 3.477 10.96-2.654 1.165-5.071 3.546-6.447 6.685-0.972 2.219-1.276 4.48-0.996 6.488z" clip-rule="evenodd" fill="#000" fill-rule="evenodd"/>
  <path d="m206.6 73.78 0.578 0.0043-0.079-0.5733c-0.267-1.91 0.02-4.078 0.958-6.219 1.328-3.032 3.658-5.317 6.19-6.428l0.665-0.2918-0.51-0.5171c-2.517-2.553-3.888-6.431-3.338-10.54l-0.495-0.0664 0.495 0.0664c0.505-3.774 2.519-6.911 5.24-8.762l0.567-0.386-0.541-0.4218c-3.674-2.862-6.029-7.951-5.751-13.6 0.345-7.044 4.654-12.61 10.08-13.93l0.38-0.0926 2e-3 -0.3911 9e-3 -2.075v-0.00216c0-0.8092-0.203-1.508-0.696-2.001-0.493-0.4929-1.191-0.6956-2.001-0.6956h-14.94c-0.809 0-1.508 0.2027-2.001 0.6956-0.493 0.493-0.695 1.192-0.695 2.001v61.51c0 0.8093 0.202 1.508 0.695 2.001 0.493 0.4927 1.191 0.6954 2 0.6957h1e-3l3.188 0.0236z" stroke="#fff" stroke-opacity=".8"/>
  <path d="m211.2 68.31c-1.089 2.485-0.256 5.11 1.859 5.857 2.114 0.747 4.715-0.6643 5.804-3.15s0.256-5.11-1.859-5.857c-2.114-0.7472-4.715 0.6643-5.804 3.15zm3.944-18.2c-0.727 3.848 1.302 7.46 4.528 8.062 3.226 0.6016 6.436-2.034 7.163-5.882s-1.302-7.46-4.529-8.062c-3.226-0.6015-6.435 2.034-7.162 5.882zm-0.811-22.68c-0.258 5.265 3.124 9.793 7.548 10.11s8.226-3.708 8.484-8.973c0.258-5.265-3.124-9.794-7.548-10.11s-8.226 3.708-8.484 8.973z" clip-rule="evenodd" fill="#000" fill-rule="evenodd"/>
  <path d="m219.3 71.21-0.458-0.2006 0.458 0.2006c1.164-2.656 0.328-5.653-2.15-6.529-2.434-0.8597-5.269 0.772-6.429 3.42-1.164 2.656-0.328 5.653 2.15 6.529 2.434 0.8597 5.269-0.7719 6.429-3.42zm3.077-27.48c-3.575-0.6664-6.984 2.246-7.746 6.281-0.762 4.034 1.352 7.979 4.928 8.646 3.575 0.6665 6.984-2.246 7.746-6.281 0.762-4.034-1.352-7.979-4.928-8.646zm-8.564-16.33c-0.268 5.455 3.242 10.29 8.012 10.63 4.784 0.3382 8.751-3.989 9.018-9.447 0.268-5.455-3.242-10.29-8.012-10.63-4.784-0.3382-8.751 3.989-9.018 9.447z" stroke="#fff" stroke-opacity=".8"/>
 </g>
</svg>
