<svg width="1088" height="688" viewBox="0 0 1088 688" xmlns="http://www.w3.org/2000/svg">
 <g transform="translate(-57 -56)" data-name="Group 12">
  <g transform="translate(57 56)" data-name="Group 11">
   <path transform="translate(-56 -106)" d="m1018 560.5c-5.27 45.15-16.22 81.4-31.25 110.3-20 38.52-54.21 54.04-84.77 70.28a193.3 193.3 0 0 1-27.46 11.94c-55.61 19.3-117.8 14.18-166.7 3.99a657.3 657.3 0 0 0-104.1-13.16q-14.97-0.675-29.97-0.67c-15.42 0.02-293.1 5.29-360.7-131.6-16.69-33.76-28.13-75-32.24-125.3-11.63-142.1 52.29-235.5 134.7-296.5 156-115.4 369.8-110.6 523.4 7.88 102.4 78.9 198.2 198.3 179 362.7z" fill="#3f3d56" data-name="Path 83"/>
   <path transform="translate(-56 -106)" d="m986.6 670.8c-20 38.52-47.21 64.04-77.77 80.28a193.3 193.3 0 0 1-27.46 11.94c-55.61 19.3-117.8 14.18-166.7 3.99a657.3 657.3 0 0 0-104.1-13.16q-14.97-0.675-29.97-0.67-23.13 0.03-46.25 1.72c-100.2 7.36-253.8-6.43-321.4-143.3l169.1-327.6 62.95 161.6 20.09 51.59 55.37-75.98 28.59-39.23 130.2 149.3 36.8-81.27 269 219.5z" fill="#f2f2f2" data-name="Path 84"/>
   <path d="m302 283 26-57 36 83-31-60z" opacity=".1" data-name="Path 85"/>
   <path transform="translate(-56 -106)" d="m610.5 753.8q-14.97-0.675-29.97-0.67l-115.5-256z" opacity=".1" data-name="Path 86"/>
   <path d="m464.4 315.2 28.59-22.23 130 150-132-128z" opacity=".1" data-name="Path 87"/>
   <path transform="translate(-56 -106)" d="m908.8 751.1a193.3 193.3 0 0 1-27.46 11.94l-202.1-231.7z" opacity=".1" data-name="Path 88"/>
   <circle transform="translate(479 98.96)" cx="3" cy="3" r="3" fill="#f2f2f2" data-name="Ellipse 11"/>
   <circle transform="translate(396 202)" cx="3" cy="3" r="3" fill="#f2f2f2" data-name="Ellipse 12"/>
   <circle transform="translate(600 221)" cx="2" cy="2" r="2" fill="#f2f2f2" data-name="Ellipse 13"/>
   <circle transform="translate(180 266)" cx="2" cy="2" r="2" fill="#f2f2f2" data-name="Ellipse 14"/>
   <circle transform="translate(612 96.96)" cx="2" cy="2" r="2" fill="#f2f2f2" data-name="Ellipse 15"/>
   <circle transform="translate(736 193)" cx="2" cy="2" r="2" fill="#f2f2f2" data-name="Ellipse 16"/>
   <circle transform="translate(858 345)" cx="2" cy="2" r="2" fill="#f2f2f2" data-name="Ellipse 17"/>
   <path d="M306,121.222h-2.76v-2.76h-1.48v2.76H299V122.7h2.76v2.759h1.48V122.7H306Z" fill="#f2f2f2" data-name="Path 89"/>
   <path d="M848,424.222h-2.76v-2.76h-1.48v2.76H841V425.7h2.76v2.759h1.48V425.7H848Z" fill="#f2f2f2" data-name="Path 90"/>
   <path transform="translate(-56 -106)" d="m1144 720c0 16.57-243.6 74-544 74s-544-57.43-544-74 243.6 14 544 14 544-30.57 544-14z" fill="#3f3d56" data-name="Path 91"/>
   <path transform="translate(-56 -106)" d="m1144 720c0 16.57-243.6 74-544 74s-544-57.43-544-74 243.6 14 544 14 544-30.57 544-14z" opacity=".1" data-name="Path 92"/>
   <ellipse transform="translate(0 584)" cx="544" cy="30" rx="544" ry="30" fill="#3f3d56" data-name="Ellipse 18"/>
   <path transform="translate(-56 -106)" d="m624 678c0 33.14-14.78 24-33 24s-33 9.137-33-24 33-96 33-96 33 62.86 33 96z" fill="#ff6584" data-name="Path 93"/>
   <path transform="translate(-56 -106)" d="m606 690.7c0 15.06-6.716 10.91-15 10.91s-15 4.153-15-10.91 15-43.64 15-43.64 15 28.58 15 43.64z" opacity=".1" data-name="Path 94"/>
   <rect transform="translate(489 605)" width="92" height="18" rx="9" fill="#2f2e41" data-name="Rectangle 97"/>
   <rect transform="translate(489 587)" width="92" height="18" rx="9" fill="#2f2e41" data-name="Rectangle 98"/>
   <path transform="translate(-56 -106)" d="m193 596.5c0 55.34 34.72 100.1 77.63 100.1" fill="#3f3d56" data-name="Path 95"/>
   <path transform="translate(-56 -106)" d="m270.6 696.7c0-55.96 38.74-101.3 86.63-101.3" fill="#6c63ff" data-name="Path 96"/>
   <path transform="translate(-56 -106)" d="m221.1 601.6c0 52.57 22.14 95.11 49.5 95.11" fill="#6c63ff" data-name="Path 97"/>
   <path transform="translate(-56 -106)" d="m270.6 696.7c0-71.51 44.78-129.4 100.1-129.4" fill="#3f3d56" data-name="Path 98"/>
   <path transform="translate(-56 -106)" d="m254.3 697.4s11.01-0.339 14.33-2.7 16.93-5.183 17.76-1.395 16.54 18.84 4.115 18.94-28.88-1.936-32.19-3.953-4.008-10.9-4.008-10.9z" fill="#a8a8a8" data-name="Path 99"/>
   <path transform="translate(-56 -106)" d="m290.7 710.9c-12.43 0.1-28.88-1.936-32.19-3.953-2.522-1.536-3.527-7.048-3.863-9.591l-0.368 0.014s0.7 8.879 4.009 10.9 19.76 4.053 32.19 3.953c3.588-0.029 4.827-1.305 4.759-3.2-0.498 1.142-1.867 1.855-4.537 1.877z" opacity=".2" data-name="Path 100"/>
   <path transform="translate(-56 -106)" d="m777.4 633.1c0 38.03 23.86 68.8 53.34 68.8" fill="#3f3d56" data-name="Path 101"/>
   <path transform="translate(-56 -106)" d="m830.8 701.9c0-38.46 26.62-69.58 59.52-69.58" fill="#6c63ff" data-name="Path 102"/>
   <path transform="translate(-56 -106)" d="m796.8 636.5c0 36.12 15.21 65.35 34.01 65.35" fill="#6c63ff" data-name="Path 103"/>
   <path transform="translate(-56 -106)" d="m830.8 701.9c0-49.14 30.77-88.9 68.8-88.9" fill="#3f3d56" data-name="Path 104"/>
   <path transform="translate(-56 -106)" d="m819.5 702.4s7.565-0.233 9.844-1.856 11.64-3.562 12.2-0.958 11.37 12.95 2.828 13.02-19.84-1.33-22.12-2.716-2.753-7.488-2.753-7.488z" fill="#a8a8a8" data-name="Path 105"/>
   <path transform="translate(-56 -106)" d="m844.6 711.7c-8.54 0.069-19.84-1.33-22.12-2.716-1.733-1.056-2.423-4.843-2.654-6.59l-0.253 0.01s0.479 6.1 2.755 7.487 13.58 2.785 22.12 2.716c2.465-0.02 3.317-0.9 3.27-2.2-0.343 0.788-1.283 1.278-3.118 1.293z" opacity=".2" data-name="Path 106"/>
   <path transform="translate(-56 -106)" d="m949.8 724.7s11.36-1.729 14.5-4.591 16.89-7.488 18.22-3.667 19.49 17.45 6.633 19.11-30.15 1.609-33.84-0.065-5.515-10.78-5.515-10.78z" fill="#a8a8a8" data-name="Path 107"/>
   <path transform="translate(-56 -106)" d="m989.2 734.2c-12.86 1.659-30.15 1.609-33.84-0.065-2.8-1.275-4.535-6.858-5.2-9.45l-0.379 0.061s1.833 9.109 5.516 10.78 20.98 1.725 33.84 0.065c3.712-0.479 4.836-1.956 4.529-3.906-0.375 1.246-1.703 2.156-4.466 2.512z" opacity=".2" data-name="Path 108"/>
   <path transform="translate(-56 -106)" d="m670.3 723.9s9.587-1.459 12.24-3.875 14.26-6.32 15.37-3.095 16.45 14.72 5.6 16.12-25.45 1.358-28.56-0.055-4.656-9.1-4.656-9.1z" fill="#a8a8a8" data-name="Path 109"/>
   <path transform="translate(-56 -106)" d="m703.5 731.9c-10.85 1.4-25.45 1.358-28.56-0.055-2.367-1.076-3.827-5.788-4.39-7.976l-0.32 0.051s1.547 7.687 4.655 9.1 17.7 1.456 28.56 0.055c3.133-0.4 4.081-1.651 3.822-3.3-0.314 1.057-1.435 1.825-3.767 2.125z" opacity=".2" data-name="Path 110"/>
   <path transform="translate(-56 -106)" d="m178.4 719.1s7.463-1.136 9.527-3.016 11.1-4.92 11.97-2.409 12.81 11.46 4.358 12.55-19.81 1.057-22.23-0.043-3.624-7.085-3.624-7.085z" fill="#a8a8a8" data-name="Path 111"/>
   <path transform="translate(-56 -106)" d="m204.3 725.3c-8.449 1.09-19.81 1.057-22.23-0.043-1.842-0.838-2.979-4.506-3.417-6.209l-0.249 0.04s1.2 5.984 3.624 7.085 13.78 1.133 22.23 0.043c2.439-0.315 3.177-1.285 2.976-2.566-0.246 0.818-1.119 1.416-2.934 1.65z" opacity=".2" data-name="Path 112"/>
   <path transform="translate(-56 -106)" d="m439.7 707.3c0 30.22-42.12 20.87-93.7 20.87s-93.07 9.347-93.07-20.87 42.12-36.79 93.69-36.79 93.08 6.573 93.08 36.79z" opacity=".1" data-name="Path 113"/>
   <path transform="translate(-56 -106)" d="m439.7 699.9c0 30.22-42.12 20.87-93.7 20.87s-93.07 9.347-93.07-20.87 42.11-36.8 93.69-36.8 93.08 6.576 93.08 36.8z" fill="#3f3d56" data-name="Path 114"/>
  </g>
  <g transform="translate(312.3 493.7)">
   <path transform="translate(5.904 -14)" d="M99,52h91.791V89.153H99Z" fill="#fff" fill-rule="evenodd" data-name="Path 40"/>
   <path transform="translate(-3 -4.634)" d="m24.86 163.9a21.83 21.83 0 0 1-18.91-10.93 21.83 21.83 0 0 0 18.91 32.78h21.86v-21.86z" fill="#3ecc5f" fill-rule="evenodd" data-name="Path 41"/>
   <path transform="translate(-1.681 -17.23)" d="m121.9 61.1 76.51-4.782v-10.93a21.85 21.85 0 0 0-21.86-21.86h-98.35l-2.732-4.735a3.154 3.154 0 0 0-5.464 0l-2.732 4.732-2.732-4.732a3.154 3.154 0 0 0-5.464 0l-2.732 4.732-2.731-4.732a3.154 3.154 0 0 0-5.464 0l-2.732 4.735h-0.071l-4.526-4.525a3.153 3.153 0 0 0-5.276 1.414l-1.5 5.577-5.674-1.521a3.154 3.154 0 0 0-3.863 3.864l1.52 5.679-5.575 1.494a3.155 3.155 0 0 0-1.416 5.278l4.526 4.526v0.07l-4.735 2.731a3.154 3.154 0 0 0 0 5.464l4.732 2.732-4.732 2.732a3.154 3.154 0 0 0 0 5.464l4.732 2.732-4.732 2.731a3.154 3.154 0 0 0 0 5.464l4.732 2.732-4.732 2.727a3.154 3.154 0 0 0 0 5.464l4.735 2.736-4.735 2.732a3.154 3.154 0 0 0 0 5.464l4.732 2.732-4.732 2.732a3.154 3.154 0 0 0 0 5.464l4.732 2.732-4.732 2.731a3.154 3.154 0 0 0 0 5.464l4.732 2.732-4.732 2.732a3.154 3.154 0 0 0 0 5.464l4.732 2.732-4.732 2.731a3.154 3.154 0 0 0 0 5.464l4.732 2.732-4.732 2.731a3.154 3.154 0 0 0 0 5.464l4.732 2.732-4.732 2.735a3.154 3.154 0 0 0 0 5.464l4.732 2.732-4.732 2.728a3.154 3.154 0 0 0 0 5.464l4.732 2.732a21.85 21.85 0 0 0 21.86 21.86h131.1a21.85 21.85 0 0 0 21.86-21.86v-87.42l-76.51-4.782a11.63 11.63 0 0 1 0-23.22" fill="#3ecc5f" fill-rule="evenodd" data-name="Path 42"/>
   <path transform="translate(9.984 -5.561)" d="M143,186.71h32.782V143H143Z" fill="#3ecc5f" fill-rule="evenodd" data-name="Path 43"/>
   <path transform="translate(10.91 -6.025)" d="M196.71,159.855a5.438,5.438,0,0,0-.7.07c-.042-.164-.081-.329-.127-.493a5.457,5.457,0,1,0-5.4-9.372q-.181-.185-.366-.367a5.454,5.454,0,1,0-9.384-5.4c-.162-.046-.325-.084-.486-.126a5.467,5.467,0,1,0-10.788,0c-.162.042-.325.08-.486.126a5.457,5.457,0,1,0-9.384,5.4,21.843,21.843,0,1,0,36.421,21.02,5.452,5.452,0,1,0,.7-10.858" fill="#44d860" fill-rule="evenodd" data-name="Path 44"/>
   <path transform="translate(10.91 -9.271)" d="M153,124.855h32.782V103H153Z" fill="#3ecc5f" fill-rule="evenodd" data-name="Path 45"/>
   <path transform="translate(12.77 -9.377)" d="M194.855,116.765a2.732,2.732,0,1,0,0-5.464,2.811,2.811,0,0,0-.349.035c-.022-.082-.04-.164-.063-.246a2.733,2.733,0,0,0-1.052-5.253,2.7,2.7,0,0,0-1.648.566q-.09-.093-.184-.184a2.7,2.7,0,0,0,.553-1.633,2.732,2.732,0,0,0-5.245-1.07,10.928,10.928,0,1,0,0,21.031,2.732,2.732,0,0,0,5.245-1.07,2.7,2.7,0,0,0-.553-1.633q.093-.09.184-.184a2.7,2.7,0,0,0,1.648.566,2.732,2.732,0,0,0,1.052-5.253c.023-.081.042-.164.063-.246a2.814,2.814,0,0,0,.349.035" fill="#44d860" fill-rule="evenodd" data-name="Path 46"/>
   <path transform="translate(.478 -15.07)" d="m65.09 56.89a2.732 2.732 0 0 1-2.732-2.732 8.2 8.2 0 0 0-16.39 0 2.732 2.732 0 0 1-5.464 0 13.66 13.66 0 0 1 27.32 0 2.732 2.732 0 0 1-2.732 2.732" fill-rule="evenodd" data-name="Path 47"/>
   <path transform="translate(6.275 -10.2)" d="m103 191.3h65.56a21.85 21.85 0 0 0 21.86-21.86v-76.49h-65.56a21.85 21.85 0 0 0-21.86 21.86z" fill="#ffff50" fill-rule="evenodd" data-name="Path 48"/>
   <path transform="translate(7.109 -13.11)" d="m173.2 129.8h-54.68a1.093 1.093 0 1 1 0-2.185h54.68a1.093 1.093 0 0 1 0 2.185m0 21.86h-54.68a1.093 1.093 0 1 1 0-2.186h54.68a1.093 1.093 0 0 1 0 2.186m0 21.86h-54.68a1.093 1.093 0 1 1 0-2.185h54.68a1.093 1.093 0 0 1 0 2.185m0-54.43h-54.68a1.093 1.093 0 1 1 0-2.185h54.68a1.093 1.093 0 0 1 0 2.185m0 21.65h-54.68a1.093 1.093 0 1 1 0-2.186h54.68a1.093 1.093 0 0 1 0 2.186m0 21.86h-54.68a1.093 1.093 0 1 1 0-2.186h54.68a1.093 1.093 0 0 1 0 2.186m16.37-101c-0.013 0-0.024-7e-3 -0.037-5e-3 -3.377 0.115-4.974 3.492-6.384 6.472-1.471 3.114-2.608 5.139-4.473 5.078-2.064-0.074-3.244-2.406-4.494-4.874-1.436-2.835-3.075-6.049-6.516-5.929-3.329 0.114-4.932 3.053-6.346 5.646-1.5 2.762-2.529 4.442-4.5 4.364-2.106-0.076-3.225-1.972-4.52-4.167-1.444-2.443-3.112-5.191-6.487-5.1-3.272 0.113-4.879 2.606-6.3 4.808-1.5 2.328-2.552 3.746-4.551 3.662-2.156-0.076-3.27-1.65-4.558-3.472-1.447-2.047-3.077-4.363-6.442-4.251-3.2 0.109-4.807 2.153-6.224 3.954-1.346 1.709-2.4 3.062-4.621 2.977a1.093 1.093 0 0 0-0.079 2.186c3.3 0.11 4.967-1.967 6.417-3.81 1.286-1.635 2.4-3.045 4.582-3.12 2.1-0.09 3.091 1.218 4.584 3.327 1.417 2 3.026 4.277 6.263 4.394 3.391 0.114 5.022-2.42 6.467-4.663 1.292-2 2.406-3.734 4.535-3.807 1.959-0.073 3.026 1.475 4.529 4.022 1.417 2.4 3.023 5.121 6.324 5.241 3.415 0.118 5.064-2.863 6.5-5.5 1.245-2.282 2.419-4.437 4.5-4.509 1.959-0.046 2.981 1.743 4.492 4.732 1.412 2.79 3.013 5.95 6.365 6.071h0.185c3.348 0 4.937-3.36 6.343-6.331 1.245-2.634 2.423-5.114 4.444-5.216z" fill-rule="evenodd" data-name="Path 49"/>
   <path transform="translate(4.42 -5.561)" d="M83,186.71h43.71V143H83Z" fill="#3ecc5f" fill-rule="evenodd" data-name="Path 50"/>
   <g transform="matrix(.966 -.259 .259 .966 109.3 91.08)" data-name="Group 8">
    <rect transform="translate(0)" width="92.36" height="36.46" rx="2" fill="#d8d8d8" data-name="Rectangle 3"/>
    <g transform="translate(1.531 23.03)" fill="#4a4a4a" data-name="Group 2">
     <rect transform="translate(16.8)" width="5.336" height="5.336" rx="1" data-name="Rectangle 4"/>
     <rect transform="translate(23.12)" width="5.336" height="5.336" rx="1" data-name="Rectangle 5"/>
     <rect transform="translate(29.44)" width="5.336" height="5.336" rx="1" data-name="Rectangle 6"/>
     <rect transform="translate(35.77)" width="5.336" height="5.336" rx="1" data-name="Rectangle 7"/>
     <rect transform="translate(42.09)" width="5.336" height="5.336" rx="1" data-name="Rectangle 8"/>
     <rect transform="translate(48.42)" width="5.336" height="5.336" rx="1" data-name="Rectangle 9"/>
     <rect transform="translate(54.74)" width="5.336" height="5.336" rx="1" data-name="Rectangle 10"/>
     <rect transform="translate(61.06)" width="5.336" height="5.336" rx="1" data-name="Rectangle 11"/>
     <rect transform="translate(67.39)" width="5.336" height="5.336" rx="1" data-name="Rectangle 12"/>
     <path transform="translate(0)" d="M1.093,0H14.518a1.093,1.093,0,0,1,1.093,1.093V4.243a1.093,1.093,0,0,1-1.093,1.093H1.093A1.093,1.093,0,0,1,0,4.243V1.093A1.093,1.093,0,0,1,1.093,0ZM75,0H88.426a1.093,1.093,0,0,1,1.093,1.093V4.243a1.093,1.093,0,0,1-1.093,1.093H75a1.093,1.093,0,0,1-1.093-1.093V1.093A1.093,1.093,0,0,1,75,0Z" fill-rule="evenodd" data-name="Path 51"/>
    </g>
    <g transform="translate(1.531 10.26)" fill="#4a4a4a" data-name="Group 3">
     <path transform="translate(0)" d="M1.093,0H6.218A1.093,1.093,0,0,1,7.31,1.093V4.242A1.093,1.093,0,0,1,6.218,5.335H1.093A1.093,1.093,0,0,1,0,4.242V1.093A1.093,1.093,0,0,1,1.093,0Z" fill-rule="evenodd" data-name="Path 52"/>
     <rect transform="translate(8.299)" width="5.336" height="5.336" rx="1" data-name="Rectangle 13"/>
     <rect transform="translate(14.62)" width="5.336" height="5.336" rx="1" data-name="Rectangle 14"/>
     <rect transform="translate(20.95)" width="5.336" height="5.336" rx="1" data-name="Rectangle 15"/>
     <rect transform="translate(27.27)" width="5.336" height="5.336" rx="1" data-name="Rectangle 16"/>
     <rect transform="translate(33.59)" width="5.336" height="5.336" rx="1" data-name="Rectangle 17"/>
     <rect transform="translate(39.92)" width="5.336" height="5.336" rx="1" data-name="Rectangle 18"/>
     <rect transform="translate(46.24)" width="5.336" height="5.336" rx="1" data-name="Rectangle 19"/>
     <rect transform="translate(52.56)" width="5.336" height="5.336" rx="1" data-name="Rectangle 20"/>
     <rect transform="translate(58.89)" width="5.336" height="5.336" rx="1" data-name="Rectangle 21"/>
     <rect transform="translate(65.21)" width="5.336" height="5.336" rx="1" data-name="Rectangle 22"/>
     <rect transform="translate(71.54)" width="5.336" height="5.336" rx="1" data-name="Rectangle 23"/>
     <rect transform="translate(77.86)" width="5.336" height="5.336" rx="1" data-name="Rectangle 24"/>
     <rect transform="translate(84.18)" width="5.336" height="5.336" rx="1" data-name="Rectangle 25"/>
    </g>
    <g transform="translate(91.05 9.546) rotate(180)" fill="#4a4a4a" data-name="Group 4">
     <path transform="translate(0)" d="M1.093,0H6.219A1.093,1.093,0,0,1,7.312,1.093v3.15A1.093,1.093,0,0,1,6.219,5.336H1.093A1.093,1.093,0,0,1,0,4.243V1.093A1.093,1.093,0,0,1,1.093,0Z" fill-rule="evenodd" data-name="Path 53"/>
     <rect transform="translate(8.299)" width="5.336" height="5.336" rx="1" data-name="Rectangle 26"/>
     <rect transform="translate(14.62)" width="5.336" height="5.336" rx="1" data-name="Rectangle 27"/>
     <rect transform="translate(20.95)" width="5.336" height="5.336" rx="1" data-name="Rectangle 28"/>
     <rect transform="translate(27.27)" width="5.336" height="5.336" rx="1" data-name="Rectangle 29"/>
     <rect transform="translate(33.59)" width="5.336" height="5.336" rx="1" data-name="Rectangle 30"/>
     <rect transform="translate(39.92)" width="5.336" height="5.336" rx="1" data-name="Rectangle 31"/>
     <rect transform="translate(46.24)" width="5.336" height="5.336" rx="1" data-name="Rectangle 32"/>
     <rect transform="translate(52.56)" width="5.336" height="5.336" rx="1" data-name="Rectangle 33"/>
     <rect transform="translate(58.89)" width="5.336" height="5.336" rx="1" data-name="Rectangle 34"/>
     <rect transform="translate(65.21)" width="5.336" height="5.336" rx="1" data-name="Rectangle 35"/>
     <rect transform="translate(71.54)" width="5.336" height="5.336" rx="1" data-name="Rectangle 36"/>
     <rect transform="translate(77.86)" width="5.336" height="5.336" rx="1" data-name="Rectangle 37"/>
     <rect transform="translate(84.18)" width="5.336" height="5.336" rx="1" data-name="Rectangle 38"/>
     <rect transform="translate(8.299)" width="5.336" height="5.336" rx="1" data-name="Rectangle 39"/>
     <rect transform="translate(14.62)" width="5.336" height="5.336" rx="1" data-name="Rectangle 40"/>
     <rect transform="translate(20.95)" width="5.336" height="5.336" rx="1" data-name="Rectangle 41"/>
     <rect transform="translate(27.27)" width="5.336" height="5.336" rx="1" data-name="Rectangle 42"/>
     <rect transform="translate(33.59)" width="5.336" height="5.336" rx="1" data-name="Rectangle 43"/>
     <rect transform="translate(39.92)" width="5.336" height="5.336" rx="1" data-name="Rectangle 44"/>
     <rect transform="translate(46.24)" width="5.336" height="5.336" rx="1" data-name="Rectangle 45"/>
     <rect transform="translate(52.56)" width="5.336" height="5.336" rx="1" data-name="Rectangle 46"/>
     <rect transform="translate(58.89)" width="5.336" height="5.336" rx="1" data-name="Rectangle 47"/>
     <rect transform="translate(65.21)" width="5.336" height="5.336" rx="1" data-name="Rectangle 48"/>
     <rect transform="translate(71.54)" width="5.336" height="5.336" rx="1" data-name="Rectangle 49"/>
     <rect transform="translate(77.86)" width="5.336" height="5.336" rx="1" data-name="Rectangle 50"/>
     <rect transform="translate(84.18)" width="5.336" height="5.336" rx="1" data-name="Rectangle 51"/>
    </g>
    <g transform="translate(1.531 16.58)" fill="#4a4a4a" data-name="Group 6">
     <path transform="translate(0)" d="M1.093,0h7.3A1.093,1.093,0,0,1,9.485,1.093v3.15A1.093,1.093,0,0,1,8.392,5.336h-7.3A1.093,1.093,0,0,1,0,4.243V1.094A1.093,1.093,0,0,1,1.093,0Z" fill-rule="evenodd" data-name="Path 54"/>
     <g transform="translate(10.67)" data-name="Group 5">
      <rect width="5.336" height="5.336" rx="1" data-name="Rectangle 52"/>
      <rect transform="translate(6.324)" width="5.336" height="5.336" rx="1" data-name="Rectangle 53"/>
      <rect transform="translate(12.65)" width="5.336" height="5.336" rx="1" data-name="Rectangle 54"/>
      <rect transform="translate(18.97)" width="5.336" height="5.336" rx="1" data-name="Rectangle 55"/>
      <rect transform="translate(25.3)" width="5.336" height="5.336" rx="1" data-name="Rectangle 56"/>
      <rect transform="translate(31.62)" width="5.336" height="5.336" rx="1" data-name="Rectangle 57"/>
      <rect transform="translate(37.94)" width="5.336" height="5.336" rx="1" data-name="Rectangle 58"/>
      <rect transform="translate(44.26)" width="5.336" height="5.336" rx="1" data-name="Rectangle 59"/>
      <rect transform="translate(50.59)" width="5.336" height="5.336" rx="1" data-name="Rectangle 60"/>
      <rect transform="translate(56.91)" width="5.336" height="5.336" rx="1" data-name="Rectangle 61"/>
      <rect transform="translate(63.24)" width="5.336" height="5.336" rx="1" data-name="Rectangle 62"/>
     </g>
     <path transform="translate(80.43)" d="M1.094,0H8A1.093,1.093,0,0,1,9.091,1.093v3.15A1.093,1.093,0,0,1,8,5.336H1.093A1.093,1.093,0,0,1,0,4.243V1.094A1.093,1.093,0,0,1,1.093,0Z" fill-rule="evenodd" data-name="Path 55"/>
    </g>
    <g transform="translate(1.531 29.63)" fill="#4a4a4a" data-name="Group 7">
     <rect transform="translate(0)" width="5.336" height="5.336" rx="1" data-name="Rectangle 63"/>
     <rect transform="translate(6.324)" width="5.336" height="5.336" rx="1" data-name="Rectangle 64"/>
     <rect transform="translate(12.65)" width="5.336" height="5.336" rx="1" data-name="Rectangle 65"/>
     <rect transform="translate(18.97)" width="5.336" height="5.336" rx="1" data-name="Rectangle 66"/>
     <path transform="translate(25.29)" d="M1.093,0H31.515a1.093,1.093,0,0,1,1.093,1.093V4.244a1.093,1.093,0,0,1-1.093,1.093H1.093A1.093,1.093,0,0,1,0,4.244V1.093A1.093,1.093,0,0,1,1.093,0ZM34.687,0h3.942a1.093,1.093,0,0,1,1.093,1.093V4.244a1.093,1.093,0,0,1-1.093,1.093H34.687a1.093,1.093,0,0,1-1.093-1.093V1.093A1.093,1.093,0,0,1,34.687,0Z" fill-rule="evenodd" data-name="Path 56"/>
     <rect transform="translate(66)" width="5.336" height="5.336" rx="1" data-name="Rectangle 67"/>
     <rect transform="translate(72.33)" width="5.336" height="5.336" rx="1" data-name="Rectangle 68"/>
     <rect transform="translate(84.18)" width="5.336" height="5.336" rx="1" data-name="Rectangle 69"/>
     <path transform="translate(83.59 2.273) rotate(180)" d="M5.336,0V1.18A1.093,1.093,0,0,1,4.243,2.273H1.093A1.093,1.093,0,0,1,0,1.18V0Z" data-name="Path 57"/>
     <path transform="translate(78.26 3.063)" d="M5.336,0V1.18A1.093,1.093,0,0,1,4.243,2.273H1.093A1.093,1.093,0,0,1,0,1.18V0Z" data-name="Path 58"/>
    </g>
    <rect transform="translate(1.925 1.17)" width="88.93" height="2.371" rx="1.085" fill="#4a4a4a" data-name="Rectangle 70"/>
    <rect transform="translate(4.1 1.566)" width="4.986" height="1.581" rx=".723" fill="#d8d8d8" opacity=".136" data-name="Rectangle 71"/>
    <rect transform="translate(10.92 1.566)" width="4.986" height="1.581" rx=".723" fill="#d8d8d8" opacity=".136" data-name="Rectangle 72"/>
    <rect transform="translate(16.17 1.566)" width="4.986" height="1.581" rx=".723" fill="#d8d8d8" opacity=".136" data-name="Rectangle 73"/>
    <rect transform="translate(21.42 1.566)" width="4.986" height="1.581" rx=".723" fill="#d8d8d8" opacity=".136" data-name="Rectangle 74"/>
    <rect transform="translate(26.67 1.566)" width="4.986" height="1.581" rx=".723" fill="#d8d8d8" opacity=".136" data-name="Rectangle 75"/>
    <rect transform="translate(33.23 1.566)" width="4.986" height="1.581" rx=".723" fill="#d8d8d8" opacity=".136" data-name="Rectangle 76"/>
    <rect transform="translate(38.48 1.566)" width="4.986" height="1.581" rx=".723" fill="#d8d8d8" opacity=".136" data-name="Rectangle 77"/>
    <rect transform="translate(43.73 1.566)" width="4.986" height="1.581" rx=".723" fill="#d8d8d8" opacity=".136" data-name="Rectangle 78"/>
    <rect transform="translate(48.98 1.566)" width="4.986" height="1.581" rx=".723" fill="#d8d8d8" opacity=".136" data-name="Rectangle 79"/>
    <rect transform="translate(55.54 1.566)" width="4.986" height="1.581" rx=".723" fill="#d8d8d8" opacity=".136" data-name="Rectangle 80"/>
    <rect transform="translate(60.79 1.566)" width="4.986" height="1.581" rx=".723" fill="#d8d8d8" opacity=".136" data-name="Rectangle 81"/>
    <rect transform="translate(66.04 1.566)" width="4.986" height="1.581" rx=".723" fill="#d8d8d8" opacity=".136" data-name="Rectangle 82"/>
    <rect transform="translate(72.6 1.566)" width="4.986" height="1.581" rx=".723" fill="#d8d8d8" opacity=".136" data-name="Rectangle 83"/>
    <rect transform="translate(77.85 1.566)" width="4.986" height="1.581" rx=".723" fill="#d8d8d8" opacity=".136" data-name="Rectangle 84"/>
    <rect transform="translate(83.1 1.566)" width="4.986" height="1.581" rx=".723" fill="#d8d8d8" opacity=".136" data-name="Rectangle 85"/>
   </g>
   <path transform="translate(6.275 -6.025)" d="M146.71,159.855a5.439,5.439,0,0,0-.7.07c-.042-.164-.081-.329-.127-.493a5.457,5.457,0,1,0-5.4-9.372q-.181-.185-.366-.367a5.454,5.454,0,1,0-9.384-5.4c-.162-.046-.325-.084-.486-.126a5.467,5.467,0,1,0-10.788,0c-.162.042-.325.08-.486.126a5.457,5.457,0,1,0-9.384,5.4,21.843,21.843,0,1,0,36.421,21.02,5.452,5.452,0,1,0,.7-10.858" fill="#44d860" fill-rule="evenodd" data-name="Path 59"/>
   <path transform="translate(4.42 -9.271)" d="M83,124.855h43.71V103H83Z" fill="#3ecc5f" fill-rule="evenodd" data-name="Path 60"/>
   <path transform="translate(7.202 -9.377)" d="M134.855,116.765a2.732,2.732,0,1,0,0-5.464,2.811,2.811,0,0,0-.349.035c-.022-.082-.04-.164-.063-.246a2.733,2.733,0,0,0-1.052-5.253,2.7,2.7,0,0,0-1.648.566q-.09-.093-.184-.184a2.7,2.7,0,0,0,.553-1.633,2.732,2.732,0,0,0-5.245-1.07,10.928,10.928,0,1,0,0,21.031,2.732,2.732,0,0,0,5.245-1.07,2.7,2.7,0,0,0-.553-1.633q.093-.09.184-.184a2.7,2.7,0,0,0,1.648.566,2.732,2.732,0,0,0,1.052-5.253c.023-.081.042-.164.063-.246a2.811,2.811,0,0,0,.349.035" fill="#44d860" fill-rule="evenodd" data-name="Path 61"/>
   <path transform="translate(9.753 -15.53)" d="M143.232,42.33a2.967,2.967,0,0,1-.535-.055,2.754,2.754,0,0,1-.514-.153,2.838,2.838,0,0,1-.471-.251,4.139,4.139,0,0,1-.415-.339,3.2,3.2,0,0,1-.338-.415A2.7,2.7,0,0,1,140.5,39.6a2.968,2.968,0,0,1,.055-.535,3.152,3.152,0,0,1,.152-.514,2.874,2.874,0,0,1,.252-.47,2.633,2.633,0,0,1,.753-.754,2.837,2.837,0,0,1,.471-.251,2.753,2.753,0,0,1,.514-.153,2.527,2.527,0,0,1,1.071,0,2.654,2.654,0,0,1,.983.4,4.139,4.139,0,0,1,.415.339,4.019,4.019,0,0,1,.339.415,2.786,2.786,0,0,1,.251.47,2.864,2.864,0,0,1,.208,1.049,2.77,2.77,0,0,1-.8,1.934,4.139,4.139,0,0,1-.415.339,2.722,2.722,0,0,1-1.519.459m21.855-1.366a2.789,2.789,0,0,1-1.935-.8,4.162,4.162,0,0,1-.338-.415,2.7,2.7,0,0,1-.459-1.519,2.789,2.789,0,0,1,.8-1.934,4.139,4.139,0,0,1,.415-.339,2.838,2.838,0,0,1,.471-.251,2.752,2.752,0,0,1,.514-.153,2.527,2.527,0,0,1,1.071,0,2.654,2.654,0,0,1,.983.4,4.139,4.139,0,0,1,.415.339,2.79,2.79,0,0,1,.8,1.934,3.069,3.069,0,0,1-.055.535,2.779,2.779,0,0,1-.153.514,3.885,3.885,0,0,1-.251.47,4.02,4.02,0,0,1-.339.415,4.138,4.138,0,0,1-.415.339,2.722,2.722,0,0,1-1.519.459" fill-rule="evenodd" data-name="Path 62"/>
  </g>
 </g>
</svg>
