<svg width="1129" height="663" data-name="Layer 1" viewBox="0 0 1129 663" xmlns="http://www.w3.org/2000/svg">
 <circle cx="321" cy="321" r="321" fill="#f2f2f2"/>
 <ellipse cx="559" cy="635.5" rx="514" ry="27.5" fill="#3f3d56"/>
 <ellipse cx="558" cy="627" rx="460" ry="22" opacity=".2"/>
 <rect x="131" y="152.5" width="840" height="50" fill="#3f3d56"/>
 <path transform="translate(-35.5 -118.5)" d="m166.5 727.3a21.67 21.67 0 0 0 21.67 21.67h796.7a21.67 21.67 0 0 0 21.67-21.67v-431.3h-840z" fill="#3f3d56"/>
 <path transform="translate(-35.5 -118.5)" d="m984.8 236h-796.7a21.67 21.67 0 0 0-21.67 21.67v38.33h840v-38.33a21.67 21.67 0 0 0-21.67-21.67z" fill="#3f3d56"/>
 <path transform="translate(-35.5 -118.5)" d="m984.8 236h-796.7a21.67 21.67 0 0 0-21.67 21.67v38.33h840v-38.33a21.67 21.67 0 0 0-21.67-21.67z" opacity=".2"/>
 <circle cx="181" cy="147.5" r="13" fill="#3f3d56"/>
 <circle cx="217" cy="147.5" r="13" fill="#3f3d56"/>
 <circle cx="253" cy="147.5" r="13" fill="#3f3d56"/>
 <rect x="168" y="213.5" width="337" height="386" rx="5.335" fill="#606060"/>
 <rect x="603" y="272.5" width="284" height="22" rx="5.476" fill="#2e8555"/>
 <rect x="537" y="352.5" width="416" height="15" rx="5.476" fill="#2e8555"/>
 <rect x="537" y="396.5" width="416" height="15" rx="5.476" fill="#2e8555"/>
 <rect x="537" y="440.5" width="416" height="15" rx="5.476" fill="#2e8555"/>
 <rect x="537" y="484.5" width="416" height="15" rx="5.476" fill="#2e8555"/>
 <rect x="865" y="552.5" width="88" height="26" rx="7.028" fill="#3ecc5f"/>
 <path transform="translate(-35.5 -118.5)" d="m1089 624.6a30.11 30.11 0 0 0 3.983-15.27c0-13.8-8.544-24.98-19.08-24.98s-19.08 11.18-19.08 24.98a30.11 30.11 0 0 0 3.983 15.27 31.25 31.25 0 0 0 0 30.53 31.25 31.25 0 0 0 0 30.53 31.25 31.25 0 0 0 0 30.53 30.11 30.11 0 0 0-3.983 15.27c0 13.8 8.544 24.98 19.08 24.98s19.08-11.18 19.08-24.98a30.11 30.11 0 0 0-3.983-15.27 31.25 31.25 0 0 0 0-30.53 31.25 31.25 0 0 0 0-30.53 31.25 31.25 0 0 0 0-30.53z" fill="#3f3d56"/>
 <ellipse cx="1038" cy="460.3" rx="19.08" ry="24.98" fill="#3f3d56"/>
 <ellipse cx="1038" cy="429.8" rx="19.08" ry="24.98" fill="#3f3d56"/>
 <path transform="translate(-35.5 -118.5)" d="m1145 339.3a91.61 91.61 0 0 0 7.107-10.46l-50.14-8.235 54.23 0.4033a91.57 91.57 0 0 0 1.746-72.43l-72.75 37.74 67.1-49.32a91.41 91.41 0 1 0-151 102.3 91.46 91.46 0 0 0-10.42 16.67l65.09 33.81-69.4-23.29a91.46 91.46 0 0 0 14.74 85.84 91.41 91.41 0 1 0 143.7 0 91.42 91.42 0 0 0 0-113z" fill="#3ecc5f" fill-rule="evenodd"/>
 <path transform="translate(-35.5 -118.5)" d="m981.7 395.9a91.01 91.01 0 0 0 19.56 56.51 91.41 91.41 0 1 0 143.7 0c12.25-15.55-163.3-66.77-163.3-56.51z" opacity=".1"/>
 <path transform="translate(-35.5 -118.5)" d="m365.6 461.4h111.5v45.12h-111.5z" fill="#fff" fill-rule="evenodd"/>
 <path transform="translate(-35.5 -118.5)" d="m264.8 608.7a26.51 26.51 0 0 1-22.96-13.27 26.51 26.51 0 0 0 22.96 39.81h26.54v-26.54z" fill="#3ecc5f" fill-rule="evenodd"/>
 <path transform="translate(-35.5 -118.5)" d="m384.2 468.6 92.92-5.807v-13.27a26.54 26.54 0 0 0-26.54-26.54h-119.4l-3.318-5.746a3.83 3.83 0 0 0-6.635 0l-3.318 5.746-3.318-5.746a3.83 3.83 0 0 0-6.635 0l-3.318 5.746-3.318-5.746a3.83 3.83 0 0 0-6.635 0l-3.318 5.746c-0.02919 0-0.05573 4e-3 -0.08625 4e-3l-5.497-5.495a3.829 3.829 0 0 0-6.407 1.717l-1.817 6.773-6.89-1.847a3.83 3.83 0 0 0-4.691 4.693l1.845 6.891-6.771 1.814a3.832 3.832 0 0 0-1.72 6.41l5.497 5.497c0 0.02787-4e-3 0.05574-4e-3 0.08493l-5.746 3.318a3.83 3.83 0 0 0 0 6.635l5.746 3.318-5.746 3.318a3.83 3.83 0 0 0 0 6.635l5.746 3.318-5.746 3.318a3.83 3.83 0 0 0 0 6.635l5.746 3.318-5.746 3.318a3.83 3.83 0 0 0 0 6.635l5.746 3.318-5.746 3.318a3.83 3.83 0 0 0 0 6.635l5.746 3.318-5.746 3.318a3.83 3.83 0 0 0 0 6.635l5.746 3.318-5.746 3.318a3.83 3.83 0 0 0 0 6.635l5.746 3.318-5.746 3.318a3.83 3.83 0 0 0 0 6.635l5.746 3.318-5.746 3.318a3.83 3.83 0 0 0 0 6.635l5.746 3.318-5.746 3.318a3.83 3.83 0 0 0 0 6.635l5.746 3.318-5.746 3.318a3.83 3.83 0 0 0 0 6.635l5.746 3.318-5.746 3.318a3.83 3.83 0 0 0 0 6.635l5.746 3.318a26.54 26.54 0 0 0 26.54 26.54h159.2a26.54 26.54 0 0 0 26.54-26.54v-106.2l-92.92-5.807a14.13 14.13 0 0 1 0-28.2" fill="#3ecc5f" fill-rule="evenodd"/>
 <path transform="translate(-35.5 -118.5)" d="m424 635.3h39.81v-53.08h-39.81z" fill="#3ecc5f" fill-rule="evenodd"/>
 <path transform="translate(-35.5 -118.5)" d="m490.4 602.1a6.602 6.602 0 0 0-0.848 0.08493c-0.05042-0.1991-0.09821-0.3994-0.1539-0.5985a6.627 6.627 0 1 0-6.557-11.38q-0.2203-0.2249-0.4446-0.4459a6.624 6.624 0 1 0-11.4-6.564c-0.1964-0.05575-0.3941-0.1022-0.5906-0.1526a6.64 6.64 0 1 0-13.1 0c-0.1964 0.05042-0.3941 0.09687-0.5906 0.1526a6.628 6.628 0 1 0-11.4 6.564 26.53 26.53 0 1 0 44.23 25.53 6.621 6.621 0 1 0 0.848-13.19" fill="#44d860" fill-rule="evenodd"/>
 <path transform="translate(-35.5 -118.5)" d="m437.3 555.7h39.81v-26.54h-39.81z" fill="#3ecc5f" fill-rule="evenodd"/>
 <path transform="translate(-35.5 -118.5)" d="m490.4 545.7a3.318 3.318 0 0 0 0-6.635 3.411 3.411 0 0 0-0.4233 0.04247c-0.02655-0.09953-0.04911-0.1991-0.077-0.2986a3.319 3.319 0 0 0-1.278-6.379 3.282 3.282 0 0 0-2.001 0.6874q-0.1095-0.1135-0.2229-0.223a3.282 3.282 0 0 0 0.6715-1.983 3.318 3.318 0 0 0-6.37-1.299 13.27 13.27 0 1 0 0 25.54 3.318 3.318 0 0 0 6.37-1.299 3.282 3.282 0 0 0-0.6715-1.983q0.1135-0.1095 0.2229-0.2229a3.282 3.282 0 0 0 2.001 0.6874 3.318 3.318 0 0 0 1.278-6.379c0.02786-0.0982 0.05042-0.1991 0.077-0.2986a3.413 3.413 0 0 0 0.4233 0.04246" fill="#44d860" fill-rule="evenodd"/>
 <path transform="translate(-35.5 -118.5)" d="m317.8 466.1a3.318 3.318 0 0 1-3.318-3.318 9.953 9.953 0 1 0-19.91 0 3.318 3.318 0 1 1-6.635 0 16.59 16.59 0 1 1 33.18 0 3.318 3.318 0 0 1-3.318 3.318" fill-rule="evenodd"/>
 <path transform="translate(-35.5 -118.5)" d="m370.9 635.3h79.62a26.54 26.54 0 0 0 26.54-26.54v-92.9h-79.62a26.54 26.54 0 0 0-26.54 26.54z" fill="#ffff50" fill-rule="evenodd"/>
 <path transform="translate(-35.5 -118.5)" d="m457.2 557h-66.41a1.327 1.327 0 0 1 0-2.654h66.41a1.327 1.327 0 0 1 0 2.654m0 26.54h-66.41a1.327 1.327 0 1 1 0-2.654h66.41a1.327 1.327 0 0 1 0 2.654m0 26.54h-66.41a1.327 1.327 0 1 1 0-2.654h66.41a1.327 1.327 0 0 1 0 2.654m0-66.11h-66.41a1.327 1.327 0 0 1 0-2.654h66.41a1.327 1.327 0 0 1 0 2.654m0 26.29h-66.41a1.327 1.327 0 0 1 0-2.654h66.41a1.327 1.327 0 0 1 0 2.654m0 26.54h-66.41a1.327 1.327 0 0 1 0-2.654h66.41a1.327 1.327 0 0 1 0 2.654m19.88-122.6c-0.01592 0-0.0292-8e-3 -0.04512-0.00663-4.101 0.1393-6.041 4.241-7.753 7.86-1.786 3.782-3.168 6.241-5.432 6.167-2.507-0.09024-3.94-2.922-5.458-5.919-1.744-3.442-3.734-7.347-7.913-7.201-4.042 0.138-5.989 3.708-7.706 6.857-1.827 3.355-3.071 5.395-5.469 5.3-2.557-0.09289-3.916-2.395-5.489-5.06-1.753-2.967-3.78-6.304-7.878-6.189-3.973 0.1367-5.925 3.165-7.648 5.839-1.822 2.827-3.099 4.549-5.527 4.447-2.618-0.09289-3.971-2.004-5.535-4.216-1.757-2.486-3.737-5.299-7.823-5.162-3.886 0.1327-5.838 2.614-7.559 4.801-1.635 2.076-2.912 3.718-5.612 3.615a1.328 1.328 0 1 0-0.09555 2.654c4.004 0.134 6.032-2.389 7.793-4.628 1.562-1.985 2.91-3.699 5.564-3.789 2.556-0.1088 3.754 1.48 5.567 4.041 1.721 2.434 3.675 5.194 7.605 5.336 4.118 0.138 6.099-2.939 7.854-5.663 1.569-2.434 2.922-4.535 5.507-4.624 2.379-0.08892 3.675 1.792 5.501 4.885 1.721 2.916 3.671 6.219 7.68 6.365 4.147 0.1433 6.15-3.477 7.895-6.682 1.512-2.771 2.938-5.388 5.466-5.476 2.379-0.05573 3.62 2.117 5.456 5.746 1.715 3.388 3.659 7.226 7.73 7.373l0.2243 4e-3c4.066 0 5.996-4.081 7.704-7.689 1.512-3.198 2.942-6.211 5.397-6.334z" fill-rule="evenodd"/>
 <path transform="translate(-35.5 -118.5)" d="m344.4 635.3h53.08v-53.08h-53.08z" fill="#3ecc5f" fill-rule="evenodd"/>
 <path transform="translate(-35.5 -118.5)" d="m424 602.1a6.602 6.602 0 0 0-0.848 0.08493c-0.05042-0.1991-0.09821-0.3994-0.1539-0.5985a6.627 6.627 0 1 0-6.557-11.38q-0.2203-0.2249-0.4446-0.4459a6.624 6.624 0 1 0-11.4-6.564c-0.1964-0.05575-0.3941-0.1022-0.5905-0.1526a6.64 6.64 0 1 0-13.1 0c-0.1964 0.05042-0.3941 0.09687-0.5906 0.1526a6.628 6.628 0 1 0-11.4 6.564 26.53 26.53 0 1 0 44.23 25.53 6.621 6.621 0 1 0 0.848-13.19" fill="#44d860" fill-rule="evenodd"/>
 <path transform="translate(-35.5 -118.5)" d="m344.4 555.7h53.08v-26.54h-53.08z" fill="#3ecc5f" fill-rule="evenodd"/>
 <path transform="translate(-35.5 -118.5)" d="m410.7 545.7a3.318 3.318 0 1 0 0-6.635 3.411 3.411 0 0 0-0.4233 0.04247c-0.02655-0.09953-0.04911-0.1991-0.077-0.2986a3.319 3.319 0 0 0-1.278-6.379 3.282 3.282 0 0 0-2.001 0.6874q-0.1095-0.1135-0.2229-0.223a3.282 3.282 0 0 0 0.6715-1.983 3.318 3.318 0 0 0-6.37-1.299 13.27 13.27 0 1 0 0 25.54 3.318 3.318 0 0 0 6.37-1.299 3.282 3.282 0 0 0-0.6715-1.983q0.1135-0.1095 0.2229-0.2229a3.282 3.282 0 0 0 2.001 0.6874 3.318 3.318 0 0 0 1.278-6.379c0.02786-0.0982 0.05042-0.1991 0.077-0.2986a3.413 3.413 0 0 0 0.4233 0.04246" fill="#44d860" fill-rule="evenodd"/>
 <path transform="translate(-35.5 -118.5)" d="m424 447.8a3.603 3.603 0 0 1-0.6503-0.06636 3.344 3.344 0 0 1-0.6237-0.1858 3.447 3.447 0 0 1-0.572-0.3052 5.027 5.027 0 0 1-0.5043-0.4114 3.887 3.887 0 0 1-0.4101-0.5043 3.275 3.275 0 0 1-0.5574-1.845 3.602 3.602 0 0 1 0.06636-0.6503 3.826 3.826 0 0 1 0.1845-0.6237 3.489 3.489 0 0 1 0.3066-0.5706 3.197 3.197 0 0 1 0.9144-0.9157 3.447 3.447 0 0 1 0.572-0.3052 3.344 3.344 0 0 1 0.6237-0.1858 3.069 3.069 0 0 1 1.301 0 3.223 3.223 0 0 1 1.194 0.491 5.028 5.028 0 0 1 0.5043 0.4114 4.88 4.88 0 0 1 0.4114 0.5043 3.382 3.382 0 0 1 0.3052 0.5706 3.478 3.478 0 0 1 0.2522 1.274 3.364 3.364 0 0 1-0.9688 2.349 5.027 5.027 0 0 1-0.5043 0.4114 3.306 3.306 0 0 1-1.845 0.5574m26.54-1.659a3.388 3.388 0 0 1-2.35-0.9688 5.042 5.042 0 0 1-0.4101-0.5043 3.275 3.275 0 0 1-0.5574-1.845 3.387 3.387 0 0 1 0.9674-2.349 5.026 5.026 0 0 1 0.5043-0.4114 3.447 3.447 0 0 1 0.572-0.3052 3.343 3.343 0 0 1 0.6237-0.1858 3.07 3.07 0 0 1 1.301 0 3.224 3.224 0 0 1 1.194 0.491 5.026 5.026 0 0 1 0.5043 0.4114 3.388 3.388 0 0 1 0.9688 2.349 3.726 3.726 0 0 1-0.06636 0.6503 3.374 3.374 0 0 1-0.1858 0.6237 4.715 4.715 0 0 1-0.3052 0.5706 4.88 4.88 0 0 1-0.4114 0.5043 5.026 5.026 0 0 1-0.5043 0.4114 3.305 3.305 0 0 1-1.845 0.5574" fill-rule="evenodd"/>
</svg>
