<?xml version="1.0" encoding="UTF-8"?>
<svg id="Layer_1" data-name="Layer 1" xmlns="http://www.w3.org/2000/svg" xmlns:xlink="http://www.w3.org/1999/xlink" viewBox="0 0 1240.52 300.63">
  <defs>
    <linearGradient id="linear-gradient" x1="620.28" y1="25.32" x2="620.28" y2="292.02" gradientUnits="userSpaceOnUse">
      <stop offset="0" stop-color="#7d6ce6"/>
      <stop offset=".1" stop-color="#7d6ce6" stop-opacity=".95"/>
      <stop offset=".27" stop-color="#7d6ce6" stop-opacity=".8"/>
      <stop offset=".51" stop-color="#7d6ce6" stop-opacity=".57"/>
      <stop offset=".79" stop-color="#7d6ce6" stop-opacity=".26"/>
      <stop offset="1" stop-color="#7d6ce6" stop-opacity="0"/>
    </linearGradient>
  </defs>
  <path d="m1120.91,15.39c-20.75-1.65-37.56-13.15-67.15-9.73s-55.04,18.11-96.54,7.34c-41.5-10.77-72.51-17.77-107.7-6.8-33.53,10.45-62.66,19.93-89.26,12.15-48.42-14.16-82.67-13.5-114.95-5.06-32.28,8.44-48.56-6.59-98.33-6.59s-67.25,15.93-114.8,15.93c-66.34,0-69.88-17.3-111.63-22.02-33.81-3.82-74.11,11.82-93.21,13.14-19.1,1.32-34.64-11.22-64.81-9.19-31.86,2.13-36.36,13.93-66.95,13.52C67.21,17.67,45.02.28.3,13.78v286.85h1239.96V10.55c-66.71-10.06-98.6,6.48-119.35,4.84Z" style="fill: url(#linear-gradient); stroke-width: 0px;"/>
  <path d="m1051.55,19.12c12.49-2.59,20.79.12,15.1,4.07-5.7,3.95-21.31,7.18-28.1,5.82s.52-7.3,13.01-9.89Z" style="fill: #bdb3ff; stroke-width: 0px;"/>
  <path d="m1085.46,27.68c-3.81-.87-5.6-3.99-3.22-5.62,2.38-1.63,7.14-.54,8.57,1.96s-1.54,4.53-5.35,3.66Z" style="fill: #bdb3ff; stroke-width: 0px;"/>
  <path d="m540.3,20.71c0,4.95,34.97,8.01,34.97,3.64s-34.97-8.59-34.97-3.64Z" style="fill: #bdb3ff; stroke-width: 0px;"/>
  <path d="m271.18,24.68c-7.58,2.01-12.82-.41-9.58-3.48,3.24-3.07,12.72-5.58,17.06-4.51s.1,5.99-7.49,7.99Z" style="fill: #bdb3ff; stroke-width: 0px;"/>
  <path d="m249.47,27.71c-3.58.17-5.91-1.63-4.19-3.25s6.19-1.83,8.05-.39-.28,3.46-3.86,3.64Z" style="fill: #bdb3ff; stroke-width: 0px;"/>
  <path d="m.3,22.78c66.16-18.77,89.18,2.1,121.39,0,32.2-2.1,38.88-9.48,81.26-1.87s52.84-10.87,97.04-11.8c44.2-.93,66.8,19,103.61,17.39s74.29-8.4,111.28-14.42,57.29,3.47,87.01,12.35c29.72,8.88,53.12-4.58,89.12-8.87s50.72,10.99,89.44,10.99,60.21-15.3,102.55-17.17c27.33-1.21,53.1,10.44,81.11,16.32,34.99,7.35,64.06-5.81,78.66-9.95,14.6-4.14,29.97-7.28,62.88,6.8,32.9,14.08,61.96-3.43,83.42-9.76,21.46-6.33,51.2.65,51.2.65" style="fill: none; stroke: #5e4dc4; stroke-miterlimit: 10; stroke-width: 2.2px;"/>
</svg>