<?xml version="1.0" encoding="UTF-8"?>
<svg id="Layer_1" data-name="Layer 1" xmlns="http://www.w3.org/2000/svg" viewBox="0 0 55.64 43.27">
  <path d="m23.96,11.24h23.47c-12.85-20.37-27.22-8.47-23.47,0Z" style="fill: #8d7cf7; stroke-width: 0px;"/>
  <path d="m14.36,25.71c0-6.42-6.73-14.12-10.91-10.71-4.18,3.4-4.58,16.88-1.08,21.07s11.99-3.93,11.99-10.35h0Z" style="fill: #8d7cf7; stroke-width: 0px;"/>
  <path d="m37.4,42.97c-1.63.25-3.23.34-4.8.28-.94-.03-1.87-.12-2.77-.26-8.19-1.26-14.72-6.67-15.86-14.02-1.48-9.51,6.61-18.67,18.07-20.46.38-.06.75-.11,1.13-.15.95-.1,1.88-.15,2.81-.15,9.83.02,18.18,5.89,19.49,14.3,1.48,9.52-6.61,18.68-18.07,20.46h0Z" style="fill: #b8aeff; stroke-width: 0px;"/>
  <ellipse cx="43.69" cy="25.7" rx="3.92" ry="3.25" transform="translate(3.23 56.24) rotate(-67.52)" style="stroke-width: 0px;"/>
  <path d="m23.49,29.11c-3.16-.98-4.18-4.66-1.84-6.62s6.43,0,7.25,2.94-2.25,4.66-5.41,3.68Z" style="fill: #8d7cf7; stroke-width: 0px;"/>
  <path d="m35.98,8.21l-3.38,35.04c-.94-.03-1.87-.12-2.77-.26l3.34-34.63c.95-.1,1.88-.15,2.81-.15h0Z" style="fill: #8d7cf7; stroke-width: 0px;"/>
  <ellipse cx="34.72" cy="25.75" rx="21" ry="17.43" transform="translate(-3.54 5.64) rotate(-8.84)" style="fill: none; stroke-width: 0px;"/>
</svg>