<?xml version="1.0" encoding="utf-8"?>
<!-- Generator: Adobe Illustrator 28.0.0, SVG Export Plug-In . SVG Version: 6.00 Build 0)  -->
<svg version="1.1" id="Layer_1" xmlns="http://www.w3.org/2000/svg" xmlns:xlink="http://www.w3.org/1999/xlink" x="0px" y="0px"
	 viewBox="0 0 75 55.5" style="enable-background:new 0 0 75 55.5;" xml:space="preserve">
<style type="text/css">
	.st0{fill:#5D4DC4;}
	.st1{fill:#372B8F;}
	.st2{fill:none;}
	.st3{fill:#8D7CF7;}
	.st4{fill:#B8AEFF;}
</style>
<g>
	<g>
		<path class="st0" d="M18.8,36.9c0-10.8-7.8-19.7-15.3-16.6c-6.5,2.8-4.1,12.8,7.3,16.4c-7.6,6.3-5.6,12.8-2,12.8
			C14.6,49.5,18.9,43.9,18.8,36.9L18.8,36.9z"/>
		<path class="st1" d="M19.5,34.3C8,34.1,2,25,1.8,24.6l1.8-1.2c0.1,0.1,5.7,8.6,16,8.8C19.5,32.2,19.5,34.3,19.5,34.3z"/>
		<path class="st1" d="M11.4,44.3L9.8,43c0.2-0.2,4.5-5.3,9.9-5.8l0.2,2.1C15.4,39.7,11.5,44.3,11.4,44.3L11.4,44.3z"/>
		<path class="st2" d="M18.8,36.9c0-10.8-7.8-19.7-15.3-16.6c-6.5,2.8-4.1,12.8,7.3,16.4c-7.6,6.3-5.6,12.8-2,12.8
			C14.6,49.5,18.9,43.9,18.8,36.9L18.8,36.9z"/>
	</g>
	<path class="st0" d="M56.2,47.8c-9.7,10.7-23.2,7-23.2,7l-2.5-8.2L56.2,47.8L56.2,47.8z"/>
	<g>
		<path class="st0" d="M61.9,21.3H27.6c0,0,0.8-5.9,5.4-11.6c0.5-0.5,0.9-1.1,1.5-1.6c2-2,4.4-3.9,7.6-5.4c0.6-0.3,1.3-0.6,2-0.8
			C46.3,1,48.8,0.4,51.6,0C51.6,0,56.9,7.2,61.9,21.3z"/>
		<path class="st1" d="M51.9,16.3l-1.9,1l-8-14.6c0.6-0.3,1.3-0.6,2-0.8L51.9,16.3L51.9,16.3z"/>
		<path class="st1" d="M40.1,17.2l-1.8,1.1l-5.2-8.5c0.5-0.5,0.9-1.1,1.5-1.6L40.1,17.2z"/>
		<path class="st2" d="M61.9,21.3C56.9,7.2,51.6,0,51.6,0C30.2,3,27.6,21.3,27.6,21.3H61.9z"/>
	</g>
	<path class="st3" d="M74.7,37.6c-3.2,3.3-11.5,8.9-21.7,11c-2.2,0.5-4.4,0.8-6.7,0.9c-8.9,0.4-18.7-2.2-27.5-11.1
		c-0.9-0.9-1.3-2.3-0.9-3.5c3.8-12.2,15.9-22,29.8-19.9c2.8,0.4,5.6,1.3,8.4,2.7c6.4,3.2,12.8,9.1,18.8,18.5
		C75.1,36.7,75.1,37.2,74.7,37.6z"/>
	<path class="st4" d="M53,48.6c-2.2,0.5-4.4,0.8-6.7,0.9c-9-7-8-25.7,1.4-34.5c2.8,0.4,5.6,1.3,8.4,2.7C47.1,23.4,46.3,40.1,53,48.6
		z"/>
	<ellipse transform="matrix(0.2654 -0.9641 0.9641 0.2654 12.987 81.355)" cx="59.9" cy="32.2" rx="3.8" ry="3"/>
	<path class="st0" d="M43.6,32.1c0.2,2.6-10.1,5.7-10.1,5.7c-2.2-5.8-1-11.6-1-11.6C37.6,26.2,43.4,29.5,43.6,32.1L43.6,32.1z"/>
</g>
</svg>
