<?xml version="1.0" encoding="utf-8"?>
<!-- Generator: Adobe Illustrator 28.0.0, SVG Export Plug-In . SVG Version: 6.00 Build 0)  -->
<svg version="1.1" id="Layer_1" xmlns="http://www.w3.org/2000/svg" xmlns:xlink="http://www.w3.org/1999/xlink" x="0px" y="0px"
	 viewBox="0 0 129.9 115.6" style="enable-background:new 0 0 129.9 115.6;" xml:space="preserve">
<style type="text/css">
	.st0{fill:#AA9EFF;}
	.st1{fill:#8D7CF7;}
	.st2{fill:none;}
	.st3{fill:#5D4DC4;}
	.st4{fill:#FFFFFF;}
	.st5{fill:#FEFEFE;}
	.st6{fill:#B8AEFF;}
</style>
<g>
	<g>
		<path class="st0" d="M30.1,69.2c0,0.7,0.1,1.5,0.1,2.5c0,5.4-1.1,14.7-8.6,17.3c-1.8,0.6-3.4,0.8-4.8,0.7
			c-0.9-0.1-1.6-0.3-2.3-0.6c-6-2.8-6.8-13.4,0.8-21.9c-0.4-0.1-0.8-0.2-1.2-0.4h0c-1.7-0.6-3.2-1.2-4.6-2c-4.7-2.5-7.4-6.1-8.7-9.7
			c-0.3-0.8-0.5-1.6-0.6-2.5c-1.9-11.2,10.2-21,23.7-1.2c1,1.4,1.9,3,2.9,4.7c0.7,1.2,1.4,2.6,2.1,4h4.6l0.3,2.3l0.3,2.4l0.3,2.8
			h-4.5C29.9,67.7,30,68.2,30.1,69.2z"/>
		<g>
			<path class="st1" d="M26.8,56.2c-12.1-9.1-22.5-3.4-26-1c-0.3-0.8-0.5-1.6-0.6-2.5c4-2.5,13.1-6.7,23.7-1.2
				C24.8,52.9,25.8,54.5,26.8,56.2C26.8,56.2,26.8,56.2,26.8,56.2z"/>
			<path class="st1" d="M34.1,64.9l-20,1.9h0c-1.7-0.6-3.2-1.2-4.6-2l24.3-2.4L34.1,64.9L34.1,64.9z"/>
			<path class="st1" d="M30.2,71.7c-9.5,3.6-12.5,13.9-13.4,18c-0.9-0.1-1.6-0.3-2.3-0.6c1-4.8,4.6-16.2,15.6-19.9
				C30.1,69.8,30.2,70.7,30.2,71.7z"/>
		</g>
		<path class="st2" d="M33.5,60.2h-4.6c-22.2-44.7-44.7-1.9-13.6,7C5.2,78.4,9.8,93.3,21.6,89.1c10.7-3.9,8.3-21.4,8.3-21.4h4.5
			L33.5,60.2L33.5,60.2L33.5,60.2z"/>
	</g>
	<path class="st1" d="M89.6,94.1c3.4,17.8-11.3,20.4-14.8,15.1c-3.6-5.3,5.8-14.5,5.8-14.5L89.6,94.1L89.6,94.1L89.6,94.1z"/>
	<path class="st0" d="M83.2,96.4c-0.7,22.3-22.3,21.7-24.2,15.5c-1.9-6.2,15-16.2,15-16.2L83.2,96.4L83.2,96.4L83.2,96.4z"/>
	<path class="st1" d="M60.1,112.1l-0.1-2.4c0.5,0,11.4-0.6,16.8-16.1l2.3,0.8C73.1,111.5,60.6,112.1,60.1,112.1L60.1,112.1
		L60.1,112.1z"/>
	<path class="st0" d="M107.6,27.2c-7.2-2.2-14.4-3-21.2-2.8h0c-0.4,0-0.8,0-1.2,0C79.1,24.7,73.3,25.6,68,27
		c-0.4,0.1-0.8,0.2-1.2,0.3h0c-6.1,1.6-11.4,3.7-15.3,5.4c-0.4,0.2-0.8,0.3-1.1,0.5c-4.4,2-7,3.6-7,3.6c-7.3-7.8-7.1-13.6-2-15.6
		c0.7-0.3,1.6-0.5,2.5-0.6c2.8-0.4,6.5,0,10.9,1.3c-3.3-5.5-4.3-10.1-3.7-13.6C51.4,7.4,51.6,6.7,52,6c1.8-3.7,5.8-5.8,11.3-5.9
		c2.7-0.1,5.7,0.3,9,1.2h0C82.8,4,95.9,12.3,107.6,27.2C107.6,27.2,107.6,27.2,107.6,27.2z"/>
	<g>
		<path class="st1" d="M87.6,24.2l-1.2,0.2h0l-1.2,0.2l0-0.1C84.9,22.6,81.8,5,63.2,0c2.7-0.1,5.7,0.3,8.9,1.2h0
			C85.4,9.1,87.6,24,87.6,24.2L87.6,24.2z"/>
		<path class="st1" d="M68.1,27.1l-1.2,0.2h0l-1.2,0.2c0-0.1-1.9-13.2-14.4-19.1C51.4,7.4,51.6,6.7,52,6C65.4,12.1,67.8,25.3,68,27
			C68,27,68.1,27.1,68.1,27.1L68.1,27.1z"/>
		<path class="st1" d="M52.4,32l-1,0.7l-1,0.7l-0.2-0.2l-9-12c0.7-0.3,1.6-0.5,2.5-0.6L52.4,32C52.4,32,52.4,32,52.4,32z"/>
	</g>
	<path class="st2" d="M107.6,27.2C77.5-11.1,38.5-5.2,54.9,21.9c-15.9-4.8-23,2.6-11.5,14.9C43.4,36.8,75.4,17.1,107.6,27.2z"/>
	<path class="st1" d="M91.9,95.7c-0.7,0.1-1.4,0.2-2.1,0.3c-32.7,3.8-55.6-19.2-57.2-30.6c-1.6-11.5,6.2-28,22.4-38.3
		c9.6-6.1,24.7-8.8,39.4-5.1c10.1,2.5,20,8,27.7,17.4C141.2,62.5,123.2,90.9,91.9,95.7z"/>
	<path class="st3" d="M91.9,95.7L91.9,95.7c-0.7,0.1-1.4,0.2-2.1,0.3c-9.9,1.2-18.9-0.1-26.7-2.8c-1.2-0.4-2.3-0.8-3.4-1.3h0
		c-3.7-1.5-7-3.4-10-5.4c-1.3-0.8-2.5-1.7-3.6-2.6c-8-6.2-12.8-13.5-13.5-18.5c-1.4-9.7,4-22.9,15.3-32.9c2-1.8,4.2-3.5,6.6-5
		c0.2-0.1,0.3-0.2,0.5-0.3c4.2-2.7,9.5-4.7,15.4-5.8c1.2-0.2,2.4-0.4,3.6-0.5c6.5-0.8,13.5-0.5,20.4,1.3
		c-25,13.9-15.4,33.7-15.4,33.7C62.2,71,75.7,93,91.9,95.7z"/>
	<path class="st4" d="M105.3,58.7c-2,0.2-4.2-0.2-6.2-1.3c-7.1-3.6-8.2-12.4-2-15.7c4.5-2.4,10.4-0.7,13.6,3.2c1.2,1.4,2,3.1,2.2,5
		C113.6,54.7,110,58.2,105.3,58.7z"/>
	<path d="M111.4,66.5c-3.3,2.9-8.3,3.8-12.5,2.2c-1.1-0.4-5.2-2.1-3.8-3.7c0.3-0.3,0.7-0.4,1.1-0.3c1.2,0.4,2.4,0.8,3.6,1.1
		c3.6,0.8,7.2,0.2,10.7-1.1C111.5,64.5,112.3,65.9,111.4,66.5C111.4,66.5,111.4,66.5,111.4,66.5z"/>
	<path d="M105.3,58.7c-0.9-0.1-1.8-0.4-2.6-0.8c-5.2-2.7-5.6-10.2-0.8-13.5c2.9-2,6.4-1.5,8.8,0.5c1.2,1.4,2,3.1,2.2,5
		C113.6,54.7,110,58.2,105.3,58.7C105.3,58.7,105.3,58.7,105.3,58.7z"/>
	<path class="st5" d="M100.4,49c-3.4-0.4-5.3-2.3-3.5-3.5s6-0.7,7.6,0.8S103.7,49.4,100.4,49C100.4,49,100.4,49,100.4,49z"/>
	<path class="st6" d="M87.4,72.9c-1.6,0.5-3.1-1-2.7-2.6s2.4-2.2,3.6-1C89.5,70.4,89,72.4,87.4,72.9z"/>
	<path class="st6" d="M81.3,66.8c-1.2,0.2-2.2-1-1.8-2.2c0.4-1.2,2-1.4,2.8-0.4C83.1,65.1,82.6,66.6,81.3,66.8L81.3,66.8z"/>
	<path class="st6" d="M81.1,74.6C80.3,75.4,79,75,78.7,74s0.7-2,1.7-1.7S81.8,73.8,81.1,74.6L81.1,74.6L81.1,74.6z"/>
	<g>
		<path class="st1" d="M68.3,60.2c0.2,3.3-1.5,7.3-3.3,11.4c-3,6.9-6.4,14.6-1.9,21.5c-1.2-0.4-2.3-0.8-3.4-1.3h0
			c-3-7.2,0.3-14.8,3.1-21.2c1.7-3.9,3.3-7.6,3.1-10.3c-0.1-1.8-0.8-3.8-1.6-6.1c-2.5-7.5-6-17.7,6-33.1c1.2-0.2,2.4-0.4,3.6-0.5
			C60.7,36.2,64,45.8,66.6,53.5C67.4,55.9,68.1,58.1,68.3,60.2L68.3,60.2L68.3,60.2z"/>
		<path class="st1" d="M49.6,86.5c-1.3-0.8-2.5-1.7-3.6-2.6c-2.4-6.5-4.9-16.1-4.7-27.1c0.2-9.2,2.4-17.4,6.5-24.4
			c2-1.8,4.2-3.5,6.6-5C44.8,38.5,38.2,59.9,49.6,86.5C49.6,86.5,49.6,86.5,49.6,86.5z"/>
	</g>
	<path class="st2" d="M91.9,95.7L91.9,95.7c-0.7,0.1-1.4,0.2-2.1,0.3c-32.7,3.8-55.6-19.2-57.2-30.6c-1.6-11.5,6.2-28,22.4-38.3
		c9.6-6.1,24.7-8.8,39.4-5.1c-25,13.9-15.4,33.7-15.4,33.7C62.2,71,75.7,93,91.9,95.7L91.9,95.7z"/>
	<g>
		<path class="st6" d="M59.2,78.5c-7.2,1.6-11.4-2-11.4-6.3c0-2,0.9-4.1,2.7-6c5-5,11.3-9.9,15.6-8.7c0.9,0.2,1.7,0.7,2.4,1.5
			C72.7,63.5,69.6,76.2,59.2,78.5z"/>
		<path class="st1" d="M66.1,57.5c-3.3,12-13.9,14.3-18.4,14.7c0-2,0.9-4.1,2.7-6C55.5,61.2,61.8,56.3,66.1,57.5z"/>
	</g>
</g>
</svg>
