<?xml version="1.0" encoding="utf-8"?>
<!-- Generator: Adobe Illustrator 28.0.0, SVG Export Plug-In . SVG Version: 6.00 Build 0)  -->
<svg version="1.1" id="Layer_1" xmlns="http://www.w3.org/2000/svg" xmlns:xlink="http://www.w3.org/1999/xlink" x="0px" y="0px"
	 viewBox="0 0 143.9 113.2" style="enable-background:new 0 0 143.9 113.2;" xml:space="preserve">
<style type="text/css">
	.st0{fill:#5D4DC4;}
	.st1{fill:#8D7CF7;}
	.st2{fill:#B8AEFF;}
	.st3{fill:#FFFFFF;}
	.st4{fill:#E2DCFE;}
	.st5{fill:none;}
</style>
<g>
	<g>
		<path class="st0" d="M80,107.6c-18.4,10.6-35.6,4.8-40.6-5.8c1.5-2.1,3.7-4.6,3.7-4.6L80,107.6L80,107.6L80,107.6z"/>
		
			<rect x="48.4" y="105.1" transform="matrix(0.606 -0.7955 0.7955 0.606 -63.1286 85.2641)" class="st1" width="12.2" height="2.4"/>
	</g>
	<g>
		<path class="st1" d="M91,10.6l-16.6,0.8l-1.4,0.1L63,12l-1.3,0.1l-10.5,0.5l-1.6-6.6c0,0,3.4-2.9,9.1-4.6c0.8-0.2,1.7-0.5,2.6-0.7
			c2.5-0.5,5.2-0.8,8.2-0.5c0.9,0.1,1.9,0.2,2.9,0.4C78,1.6,84.4,4.5,91,10.6L91,10.6z"/>
		<path class="st0" d="M75.7,11l-1.3,0.4l-1.3,0.4l-0.1-0.3L69.5,0.1c0.9,0.1,1.9,0.2,2.9,0.4L75.7,11L75.7,11z"/>
		<path class="st0" d="M64.3,11.7L63,12l-1.3,0.4l-0.1-0.3l-3-10.8c0.8-0.2,1.7-0.5,2.6-0.7L64.3,11.7
			C64.3,11.7,64.3,11.7,64.3,11.7z"/>
	</g>
	<path class="st2" d="M143.6,64.1c-5.8,12.4-16.2,23.5-28.6,31.3c-18.1,11.5-40.5,16.2-58.9,8.8c-8-3.2-14.8-7.8-20.3-13.2
		c-0.6-0.6-1.2-1.2-1.8-1.9C23.8,77.7,19.3,62.7,22.6,47.2c0.2-0.8,0.4-1.6,0.6-2.3c1.5-5.6,4-11.2,7.7-16.8
		C46,5.3,82.9-2.5,115,24.4c10.3,8.6,20.1,20.8,28.6,37.2C144,62.4,144,63.3,143.6,64.1C143.6,64.1,143.6,64.1,143.6,64.1z"/>
	<path class="st1" d="M143.6,64.1c-5.8,12.4-16.2,23.5-28.6,31.3c0,0-16-12.9-6.5-26.6c0,0-15.1-18.4,6.5-44.4
		c10.3,8.6,20.1,20.8,28.6,37.2C144,62.4,144,63.3,143.6,64.1C143.6,64.1,143.6,64.1,143.6,64.1z"/>
	<g>
		<path class="st3" d="M123.8,59.3c-1.5-0.1-3.1-0.5-4.7-1.3c-6.2-3.2-7.4-10.4-2.1-12.9c3.3-1.6,7.6-0.5,10.6,1.8l0,0
			c1.8,1.4,3.1,3.3,3.4,5.5C131.6,56.7,128.1,59.5,123.8,59.3L123.8,59.3L123.8,59.3z"/>
		<path d="M115.4,61.8c1.2,1.5,2.8,2.2,4.7,2.3c0.7,0.1,1.4,0.1,2.1,0.1c1,0,1.2,1.4,0.3,1.7c-3.2,1.3-7.6,0.2-8.7-3.3
			C113.5,61.7,114.8,61,115.4,61.8C115.4,61.8,115.4,61.8,115.4,61.8z"/>
		<path d="M123.8,59.3c-0.4-0.1-0.8-0.3-1.3-0.6c-4-2.5-4-8.8,0-11.3c1.6-1,3.4-1.1,5-0.5l0,0c1.8,1.4,3.1,3.3,3.4,5.5
			C131.6,56.7,128.1,59.5,123.8,59.3L123.8,59.3z"/>
		<path class="st3" d="M121.1,51.3c-2.6-1.2-3.5-3.4-1.7-4s5.1,0.8,5.8,2.6S123.7,52.5,121.1,51.3z"/>
	</g>
	<g>
		<path class="st1" d="M22,51v7.6c-2.9,8.8-10.8,16.1-16.6,12.3l0,0c-0.8-0.6-1.6-1.3-2.4-2.4c-5.8-8.2-0.9-20.3-3-33.3
			c0,0,3.1-0.2,7.2,1.2C12,38,18.3,41.9,22,51C22,51,22,51,22,51z"/>
		<path class="st0" d="M22,51C6,57.6,3.3,42.8,7.2,36.4C12,38,18.2,41.9,22,51L22,51z"/>
		<path class="st0" d="M22,55.5v3c-2.9,8.8-10.8,16.1-16.6,12.3l0,0C5.4,70.9,6.2,57.9,22,55.5C22,55.5,22,55.5,22,55.5z"/>
	</g>
	<g>
		<path class="st1" d="M88.2,58.1c0,5.6-4.7,9.4-9.2,10.2c-5.7,0-5.7-5.9-0.6-7.2c-6.2-1-9-3-9.7-5.1c-1.2-3.4,3.3-7.1,8.1-7.2
			c4.7-0.1,9.6,2.8,11,7C88.1,56.6,88.2,57.3,88.2,58.1z"/>
		<path class="st4" d="M87.9,55.8c-6.6-4.2-19,0.2-19,0.2c-1.2-3.4,3.3-7.1,8.1-7.2C81.6,48.7,86.5,51.6,87.9,55.8z"/>
	</g>
	<g>
		<path class="st1" d="M93.9,44.5c-3.1,0-5-3.3-3.4-6s5.4-2.7,6.9,0S97,44.5,93.9,44.5L93.9,44.5L93.9,44.5z"/>
		<path class="st1" d="M99,28c-1.9,0.8-4-0.7-3.7-2.8s2.6-3.1,4.3-1.8S100.9,27.2,99,28C99,28,99,28,99,28z"/>
		<path class="st1" d="M82.9,24.4c-3.4,1-6.6-2-5.8-5.4s5-4.7,7.6-2.3S86.2,23.4,82.9,24.4L82.9,24.4z"/>
		<path class="st1" d="M67.4,28.3c-1.7,0.7-3.6-0.7-3.3-2.5s2.4-2.8,3.8-1.6S69.1,27.5,67.4,28.3L67.4,28.3z"/>
		<path class="st1" d="M55.4,22.1c-2.4,1.1-5-0.8-4.8-3.4s3.2-4,5.3-2.5S57.8,21.1,55.4,22.1L55.4,22.1z"/>
		<path class="st1" d="M57.4,32.5c-1.1,1.1-2.9,0.6-3.2-0.9s0.9-2.8,2.4-2.4S58.4,31.4,57.4,32.5C57.4,32.5,57.4,32.5,57.4,32.5z"/>
		<path class="st1" d="M81.1,36.4c-1.3,1.3-3.6,0.7-4.1-1.1s1.2-3.5,3-3C81.8,32.7,82.4,35,81.1,36.4z"/>
		<path class="st1" d="M43.5,44.3c-4.4,2.3-9.6-1.1-9.3-6s5.7-7.8,9.9-5.1S47.9,42.1,43.5,44.3C43.5,44.3,43.5,44.3,43.5,44.3z"/>
		<path class="st1" d="M63,45.1c-2.9,0.8-5.5-1.8-4.7-4.7s4.3-3.8,6.4-1.7S65.8,44.3,63,45.1L63,45.1L63,45.1z"/>
	</g>
	<g>
		<path class="st1" d="M110.4,87c-8.6,8.5-17.6,11.2-26.5,11.2c-8.3,0-16.5-2.4-24.2-4.6c-9.3-2.7-17.5-5.1-23.9-2.6
			c-0.6-0.6-1.2-1.2-1.8-1.9c7.3-3.4,16.6-0.7,26.4,2.1c15.3,4.4,32.6,9.5,48.3-5.9L110.4,87C110.4,87,110.4,87,110.4,87z"/>
		<path class="st1" d="M108.5,79.2c-8.6,10.3-19.2,12.5-26.7,12.5h-0.3c-11.8-0.1-24.6-5.8-31.2-13.9c-3.2-3.9-5.4-8.1-7.5-12
			c-4.4-8.3-8.2-15.5-20.1-18.5c0.2-0.8,0.4-1.6,0.6-2.3c13,3.2,17.2,11.2,21.7,19.7c2,3.9,4.2,7.9,7.2,11.6
			c5.1,6.2,16.4,13,29.4,13.1c7,0.1,17-1.9,25.1-11.6L108.5,79.2C108.5,79.2,108.5,79.2,108.5,79.2z"/>
	</g>
	<path class="st5" d="M143.6,61.6c0.4,0.8,0.4,1.7,0.1,2.4c-5.8,12.4-16.2,23.5-28.6,31.3c-18.1,11.5-40.5,16.2-58.9,8.8
		c-31.4-12.6-45.2-46-25.2-76.2C46,5.3,82.9-2.5,115,24.4C125.3,33,135.1,45.2,143.6,61.6L143.6,61.6z"/>
	<path class="st0" d="M115,24.4c-8.1,11.9-12.7,24.3-8.1,38.6c0.6,1.8,1.3,3.7,2.2,5.4c0.1,0.2,0.1,0.5,0,0.8
		c-0.4,1.1-0.8,2.3-1.1,3.5c-2.4,9.1,1.3,16,7,22.8c-9.3-5.4-15.1-18.1-7.1-27.1v0.9c-2.7-3.3-4.3-7.2-5.2-11.3
		C100.1,45.4,106,32.8,115,24.4L115,24.4L115,24.4z"/>
</g>
</svg>
