<?xml version="1.0" encoding="utf-8"?>
<!-- Generator: Adobe Illustrator 28.0.0, SVG Export Plug-In . SVG Version: 6.00 Build 0)  -->
<svg version="1.1" id="Layer_1" xmlns="http://www.w3.org/2000/svg" xmlns:xlink="http://www.w3.org/1999/xlink" x="0px" y="0px"
	 viewBox="0 0 110.2 85.3" style="enable-background:new 0 0 110.2 85.3;" xml:space="preserve">
<style type="text/css">
	.st0{fill:#CEC7FF;}
	.st1{fill:#B8AEFF;}
	.st2{fill:#5D4DC4;}
	.st3{fill:#8D7CF7;}
	.st4{fill:#AA9EFF;}
	.st5{fill:none;}
</style>
<g>
	<path class="st0" d="M74.5,22.4l-49.3,9.8c-8.3-9.4-9.9-17.7-7.2-23.5C22.7-1.5,40.5-4.1,59.1,8.4C64.2,11.9,69.4,16.5,74.5,22.4
		L74.5,22.4L74.5,22.4z"/>
	<path class="st0" d="M11.9,41.1c-26.5,11.6-2.2,38.7,11,5.9l0.2-8.9c-15.3-25.3-30.4-15.9-11,1.8C12.5,40.3,12.4,40.9,11.9,41.1
		L11.9,41.1L11.9,41.1z"/>
	<path class="st1" d="M58.6,70c-5,5.9-9.7,9.9-13.9,12.3c-8.5,4.8-15,3.3-18.5-1.2c-3.6-4.6-4-12.2,0.2-19.4L58.6,70z"/>
	<path class="st2" d="M109.3,42.6c-19.1,11.7-34.6,20.8-47,26c-4.7,1.9-8.9,3.3-12.7,4.1c-1.1,0.2-2.2,0.4-3.3,0.5
		c-13.8,1.4-21.6-6.9-25.1-29.3c-0.3-1.9,0-3.9,0.8-5.6c9.6-21.1,20.1-25.8,34.4-22.5c1.1,0.3,2.2,0.6,3.4,0.9
		c5.6,1.7,11.8,4.4,18.6,7.7c8.9,4.3,19,9.6,30.6,14.9C110.5,39.9,110.6,41.8,109.3,42.6C109.3,42.6,109.3,42.6,109.3,42.6z"/>
	<path class="st3" d="M109.3,42.6c-19.1,11.7-34.6,20.8-47,26c0,0-9.5-13.1,3.7-17.4c0,0-5.5-17.1,12.5-26.8
		c8.9,4.3,19,9.6,30.6,14.9C110.5,39.9,110.6,41.8,109.3,42.6L109.3,42.6L109.3,42.6z"/>
	<path class="st4" d="M59.1,8.4C54.6,9.8,49,9.8,44.7,4.2c0,0-4.4,12-13.7-1.7c0,0-2.4,14.4-13.1,6.2C22.7-1.5,40.5-4.1,59.1,8.4
		L59.1,8.4L59.1,8.4z"/>
	<path class="st3" d="M44.7,82.3c-8.5,4.8-15,3.3-18.5-1.2C32.7,75.9,40.7,79.7,44.7,82.3z"/>
	<path d="M86,39.7c-1.2,2.9-4.2,3.7-5.4,1.5s0.2-5.8,2.7-6.5S87.2,36.9,86,39.7L86,39.7L86,39.7z"/>
	<path class="st3" d="M43.2,47.5c-1,10.8,1.6,20.7,6.5,25.1c-1.1,0.2-2.2,0.4-3.3,0.5c-4.6-5.4-6.9-15.2-5.9-25.9
		c1.3-13.5,7.1-24.9,16-31.6c1.1,0.3,2.2,0.6,3.4,0.9C50.6,22.6,44.4,33.9,43.2,47.5C43.2,47.5,43.2,47.5,43.2,47.5z"/>
	<path class="st5" d="M109.3,42.6c-19.1,11.7-34.6,20.8-47,26c-23.9,10-36.3,5.2-41-24.7c-0.3-1.9,0-3.9,0.8-5.6
		C36,7.5,52,11.5,78.5,24.3c8.9,4.3,19,9.6,30.6,14.9C110.5,39.9,110.6,41.8,109.3,42.6L109.3,42.6L109.3,42.6z"/>
	<path class="st1" d="M61.2,39.2c-1.3-4.4-21.7-8.5-23.5-2.6C35.9,42.5,62.4,43.6,61.2,39.2z"/>
</g>
</svg>
