<?xml version="1.0" encoding="utf-8"?>
<!-- Generator: Adobe Illustrator 28.0.0, SVG Export Plug-In . SVG Version: 6.00 Build 0)  -->
<svg version="1.1" id="Layer_1" xmlns="http://www.w3.org/2000/svg" xmlns:xlink="http://www.w3.org/1999/xlink" x="0px" y="0px"
	 viewBox="0 0 154.8 64.9" style="enable-background:new 0 0 154.8 64.9;" xml:space="preserve">
<style type="text/css">
	.st0{fill:#8D7CF7;}
	.st1{fill:#B8AEFF;}
	.st2{fill:#5D4DC4;}
	.st3{fill:#372B8F;}
	.st4{fill:#FFFFFF;}
</style>
<g>
	<g>
		<path class="st0" d="M122.6,62.8c-6.5,1.9-20,2.3-35.1,1.9c-7.7-0.2-15.8-0.5-23.6-1c-3.8-0.2-7.6-0.4-11.1-0.7
			c-12.4-0.8-22.9-1.7-28-2.1c-0.9-0.1-1.6-0.1-2.1-0.2c-10.5-0.7-2.9-10.5,6.6-14.9l65.8-6.7L122.6,62.8
			C122.6,62.8,122.6,62.8,122.6,62.8z"/>
		<path class="st1" d="M52.9,63.1c-12.4-0.8-22.9-1.7-28-2.1C27.5,54.9,40.9,49.9,52.9,63.1z"/>
		<path class="st1" d="M93.7,49.4c0,0-1.2,8.8-6.1,15.4c-7.7-0.2-15.8-0.5-23.6-1c0,0,5.1-6,5.7-11.9L93.7,49.4
			C93.7,49.4,93.7,49.4,93.7,49.4z"/>
	</g>
	<g>
		<path class="st1" d="M128,11.2L68.9,31l-27.4-6.5l-10.7-2.6C14.4,17.7,9.8,6,18.7,3.7c1.5-0.4,4.2-0.9,7.8-1.4
			c7-1,17.5-2,29.6-2.3c9.6-0.2,20.2,0,30.8,1.1c3.3,0.3,6.5,0.7,9.8,1.2h0c3.8,0.6,7.6,1.3,11.3,2.1C115.1,6.1,121.9,8.3,128,11.2
			C128,11.2,128,11.2,128,11.2z"/>
		<path class="st0" d="M43.7,21.5l-2.2,2.9l-10.7-2.6C14.4,17.7,9.8,6,18.7,3.7c1.5-0.4,4.2-0.9,7.8-1.4
			C40.2,4.1,43.7,21.5,43.7,21.5L43.7,21.5z"/>
		<path class="st0" d="M86.9,1.1c0,0-19.5,17-30.8-1l0,0C65.8-0.1,76.4,0.1,86.9,1.1z"/>
		<path class="st0" d="M108,4.5c-6.3,7.1-7.5,14.8-7.5,14.8l-6.6-1c0,0-1.3-8.9,2.8-15.9h0C100.5,2.9,104.3,3.6,108,4.5
			C108,4.5,108,4.5,108,4.5z"/>
	</g>
	<g>
		<path class="st0" d="M28.9,31.3l0,5.5c-5.1,3.7-10,5.5-14.2,5.8C7.5,43.1,2.3,39.6,0.6,35c-0.5-1.5-0.7-3.1-0.5-4.7
			c0.7-4.7,3.9-8,8.7-8.5C13.9,21.2,20.9,23.8,28.9,31.3C28.9,31.3,28.9,31.3,28.9,31.3z"/>
		<path class="st1" d="M28.9,31.3c0,0-17.4,2.2-20.1-9.5C13.9,21.2,20.9,23.8,28.9,31.3z"/>
		<path class="st1" d="M14.7,42.6C7.5,43.1,2.3,39.6,0.6,35C3.8,28.8,15.4,30.5,14.7,42.6z"/>
	</g>
	<path class="st2" d="M154.1,34.7c0.9,1.5,0.9,3.5,0,5c-8.8,15.2-20.5,22.3-34.7,23.4c-2,0.2-4,0.2-6.1,0.1l0,0
		c-2.2-0.1-4.4-0.3-6.7-0.6c-5.3-0.8-10.9-2.1-16.7-4.1c-12.9-4.3-26.2-7.3-37.1-9.2c-4.2-0.8-8.1-1.4-11.4-1.9
		C34.1,46.4,29.4,46,29.4,46s-5.3-11,1.4-24.1c0,0,4.5,0,11.5-0.3c3.4-0.1,7.4-0.3,11.7-0.6h0c15.4-0.9,35.2-2.9,49.1-7.1
		c1.9-0.6,3.8-1.1,5.6-1.5c2.3-0.6,4.6-1.1,6.8-1.4c2.2-0.3,4.4-0.5,6.5-0.5C133.5,10.7,143.8,16.4,154.1,34.7L154.1,34.7
		L154.1,34.7z"/>
	<path class="st3" d="M52.9,49.4c-4.2-0.8-8.1-1.4-11.4-1.9c-7.3-12.3-2.7-21.4,0.8-25.9c3.4-0.1,7.4-0.3,11.7-0.6
		C42.1,31.6,52.9,49.4,52.9,49.4L52.9,49.4z"/>
	<path class="st3" d="M122,10.6l-2.5,52.6c-2,0.2-4,0.2-6.1,0.1l0,0c-2.2-0.1-4.4-0.3-6.7-0.6c0,0-15.2-27.9,2.1-50.2
		c2.3-0.6,4.6-1.1,6.8-1.4C117.7,10.7,119.9,10.6,122,10.6C122,10.6,122,10.6,122,10.6z"/>
	<path class="st0" d="M154.1,34.7c0.9,1.5,0.9,3.5,0,5c-10,17.3-23.8,24.2-40.8,23.6l0,0c-0.3-0.7-13.6-32.2,2.1-52.2
		C129.6,9,141.9,13,154.1,34.7L154.1,34.7L154.1,34.7z"/>
	<path class="st1" d="M83,35.9c-0.3,4-14.6,4-17.3,2.2s-0.2-6.8,3.2-7.1C72.3,30.7,83.2,31.9,83,35.9z"/>
	<path class="st4" d="M136.7,33.8c-1.7,0.9-3.9,1-6.2,0.1c-5.2-2-6.6-8-2.5-10.8c2.1-1.5,5-1.5,7.3-0.4c2.1,0.9,3.9,2.7,4.4,5
		C140.3,30.4,138.9,32.7,136.7,33.8L136.7,33.8L136.7,33.8z"/>
	<path d="M136.7,33.8c-1.1,0.4-2.4,0.3-3.6-0.5c-3.2-2.1-3.4-7.5-0.3-9.8c0.8-0.5,1.6-0.8,2.4-0.8c2.1,0.9,3.9,2.7,4.4,5
		C140.3,30.4,138.9,32.7,136.7,33.8z"/>
	<path d="M140.8,38.9c-4,4.3-11.3,5-15.6,0.8c-0.8-0.8,0.2-2,1.1-1.4c2.8,1.4,6.2,1.9,9.2,1c1.5-0.4,2.9-1.1,4.3-1.8
		C140.7,37,141.5,38.2,140.8,38.9C140.8,38.9,140.8,38.9,140.8,38.9z"/>
</g>
</svg>
