<?xml version="1.0" encoding="utf-8"?>
<!-- Generator: Adobe Illustrator 28.0.0, SVG Export Plug-In . SVG Version: 6.00 Build 0)  -->
<svg version="1.1" id="Layer_1" xmlns="http://www.w3.org/2000/svg" xmlns:xlink="http://www.w3.org/1999/xlink" x="0px" y="0px"
	 viewBox="0 0 94 54.3" style="enable-background:new 0 0 94 54.3;" xml:space="preserve">
<style type="text/css">
	.st0{fill:#8D7CF7;}
	.st1{fill:#B8AEFF;}
	.st2{fill:#5D4DC4;}
	.st3{fill:none;}
</style>
<g>
	<g>
		<path class="st0" d="M75.4,17.4L67,18h0l-1,0.1l-7.9,0.6l-1,0.1l-24.6,1.9c0.8-3.2,2.2-6.1,4-8.5c2.3-3.2,5.4-5.7,8.6-7.6
			c2-1.2,4.2-2.2,6.2-2.9c0.7-0.2,1.3-0.4,1.9-0.6c0.5-0.2,1-0.3,1.5-0.4C56.6,0.2,58.1,0,59.4,0c0.8,0,1.6,0.2,2.3,0.5
			C65.1,1.9,68,6.4,75.4,17.4C75.4,17.4,75.4,17.4,75.4,17.4z"/>
		<path class="st1" d="M36.4,12.1c2.3-3.2,5.4-5.7,8.6-7.6C47.5,15.6,40.4,16.2,36.4,12.1z"/>
		<g>
			<path class="st2" d="M67.9,17.7L67,18h0L66,18.4L66,18.1L59.4,0c0.8,0,1.6,0.2,2.3,0.5L67.9,17.7L67.9,17.7z"/>
			<path class="st2" d="M59,18.4l-0.9,0.3l-1,0.3L57,18.8L51.2,1.6c0.7-0.2,1.3-0.4,1.9-0.6C53.1,1,59,18.4,59,18.4z"/>
		</g>
		<path class="st3" d="M75.4,17.4l-43,3.2c0.8-3.2,2.2-6.1,4-8.5c2.3-3.2,5.4-5.7,8.6-7.6c3.2-1.9,6.6-3.2,9.7-3.9
			C63.2-1.2,63.9,0.2,75.4,17.4z"/>
	</g>
	<path class="st0" d="M14.5,34.5L14.5,34.5c-0.1,0.7-0.2,1.4-0.4,2.1c-1.3,5.3-4.7,10-8.1,9.6c-2.5-0.3-4.3-2.9-5.2-6.2
		c-0.2-0.8-0.4-1.5-0.5-2.3c-0.4-2.5-0.4-5.3-0.1-7.8c0.1-0.8,0.3-1.5,0.5-2.3c0.2-0.7,0.3-1.4,0.6-2.1C3,20,5.8,15.1,7.7,16.1
		c1.7,1,4.6,5.2,6.3,11.5c0.1,0.6,0.3,1.1,0.4,1.7c0,0.1,0,0.1,0,0.2C14.8,31.1,14.8,32.8,14.5,34.5C14.5,34.5,14.5,34.5,14.5,34.5z
		"/>
	<g>
		<path class="st2" d="M14.5,34.5c-0.1,0.7-0.2,1.4-0.4,2.1c-1.3,0.2-2.7,0.9-4.2,1.6c-2.2,1-4.6,2.1-7.1,2.1c-0.7,0-1.3-0.1-2-0.3
			c-0.2-0.8-0.4-1.5-0.5-2.3C3.1,39,6,37.7,9.1,36.3C11,35.5,12.8,34.7,14.5,34.5z"/>
		<path class="st2" d="M14.5,29.6c-1.3,0.4-2.7,0.6-4.2,0.6c-3,0-6.1-0.8-8.4-1.9c-0.4-0.2-0.8-0.4-1.1-0.7c0.2-0.7,0.3-1.4,0.6-2.1
			c0.3,0.3,0.8,0.6,1.5,1c3.1,1.6,7.9,2.3,11.2,1.2c0.1,0.6,0.3,1.1,0.4,1.7C14.4,29.4,14.4,29.5,14.5,29.6z"/>
	</g>
	<path class="st3" d="M14.4,29.3c1.5,7.2-3.5,17.5-8.4,16.8s-6.8-9.6-5.8-16.3s5-15.1,7.5-13.7C9.6,17.2,12.9,22.1,14.4,29.3z"/>
	<path class="st2" d="M43,46.9c8.1,11.6,21.6,7.6,26.3,0.8C69.3,47.7,43,46.9,43,46.9z"/>
	<path class="st1" d="M93.9,33.9c-0.8,7.6-13.1,13-28.5,14.3c-0.7,0.1-1.4,0.1-2.2,0.1c-3.4,0.2-6.9,0.2-10.4-0.1
		c-0.7,0-1.4-0.1-2.1-0.2c-5.2-0.5-10.5-1.5-15.5-3h0c-0.8-0.2-1.5-0.5-2.3-0.8c-1-0.3-2.1-0.7-3.1-1.2C6.5,33.6,10.6,26,32.3,18.9
		c0.8-0.3,1.6-0.5,2.4-0.7c1-0.3,2.1-0.6,3.1-0.8c5-1.2,10-1.9,14.8-2.1c0.8,0,1.6-0.1,2.4-0.1c4.1-0.1,8,0.1,11.7,0.6
		c0.9,0.1,1.7,0.2,2.6,0.4C84.2,18.6,94.8,25.4,93.9,33.9L93.9,33.9z"/>
	<ellipse transform="matrix(0.1607 -0.987 0.987 0.1607 34.5635 101.5209)" cx="77" cy="30.4" rx="4.1" ry="2.9"/>
	<g>
		<path class="st0" d="M68,39.8l0.9,1.4l-1.7,0.1c-1.6,0.1-2.6,0.6-2.9,1.4c-0.7,1.5,0.4,4,1.2,5.5c-0.7,0.1-1.4,0.1-2.2,0.1
			c-0.9-1.7-1.8-4.4-0.8-6.5c0.6-1.1,1.6-1.9,3.1-2.2c-2-3.9-6.9-15.8,1.2-23.8c0.9,0.1,1.7,0.2,2.6,0.4
			C58.9,24.6,67.6,39.2,68,39.8L68,39.8z"/>
		<path class="st0" d="M52.9,48.2c-0.7,0-1.4-0.1-2.1-0.2c-0.6-2.2-1.5-6.2-1.9-11c-0.7-8.6,0.6-16.1,3.8-21.8
			c0.8,0,1.6-0.1,2.4-0.1C47.6,27,51.7,44.1,52.9,48.2z"/>
		<path class="st0" d="M35.2,45c-0.8-0.2-1.5-0.5-2.3-0.8c-1.2-4.7-3.6-17.6,1.8-26.1c1-0.3,2.1-0.6,3.1-0.8
			C30.4,25.7,34.4,42.1,35.2,45z"/>
	</g>
	<path class="st3" d="M93.9,33.9c-1.4,13.2-37.7,20-64.1,9.3C6.5,33.6,10.6,26,32.3,18.9C61.9,9.3,95.5,19.1,93.9,33.9z"/>
	<g>
		<path class="st2" d="M54,33.2c-0.2,1.7-4.1,3.5-7.8,4c-2.5,0.3-5,0-6-1.3c-2-2.7,0-6.5,2.8-8.4c0.7-0.5,1.5-0.8,2.3-1
			C49.1,25.6,54.2,30.3,54,33.2z"/>
		<path class="st0" d="M46.2,37.2c-2.5,0.3-5,0-6-1.3c-2-2.7,0-6.5,2.8-8.4C46.2,29.7,46.4,34.5,46.2,37.2z"/>
	</g>
</g>
</svg>
