<?xml version="1.0" encoding="utf-8"?>
<!-- Generator: Adobe Illustrator 28.0.0, SVG Export Plug-In . SVG Version: 6.00 Build 0)  -->
<svg version="1.1" id="Layer_1" xmlns="http://www.w3.org/2000/svg" xmlns:xlink="http://www.w3.org/1999/xlink" x="0px" y="0px"
	 viewBox="0 0 132.8 55.4" style="enable-background:new 0 0 132.8 55.4;" xml:space="preserve">
<style type="text/css">
	.st0{fill:#8D7CF7;}
	.st1{fill:#5D4DC4;}
	.st2{fill:none;}
	.st3{fill:#B8AEFF;}
</style>
<g>
	<g>
		<path class="st0" d="M78.5,47.5c-4.5,5.2-9.1,7.5-12.5,7.8c-0.7,0.1-1.4,0-2-0.1c-3.8-0.7-5.1-4.9-0.7-10.5l4.6,0.9l2.1,0.4
			C70.1,46,78.5,47.5,78.5,47.5z"/>
		<path class="st1" d="M71,44.6c0,0-0.4,0.5-1,1.4c-1.3,2-3.7,6-4.1,9.4c-0.7,0.1-1.4,0-2-0.1c0.4-3.5,2.5-7.3,4-9.7
			c0.8-1.2,1.4-2.1,1.5-2.2C69.5,43.4,71,44.6,71,44.6z"/>
		<path class="st2" d="M63.3,44.7c-8.4,10.8,3.6,16.1,15.2,2.8C78.5,47.5,63.3,44.7,63.3,44.7z"/>
	</g>
	<g>
		<path class="st3" d="M82.2,9.8l-9.8,0.6l-2,0.1l-6.2,0.4C58.3,6.6,59.6,2,63.9,0.5C64.7,0.2,65.7,0,66.7,0
			C71.2-0.1,77.2,2.4,82.2,9.8z"/>
		<path class="st0" d="M72.4,10.4c-0.1,0.8-0.3,1.6-0.7,2.5l-1.8-0.8c0.2-0.5,0.4-1.1,0.5-1.6c0.8-4.6-4-8.4-6.4-10
			C64.7,0.2,65.7,0,66.7,0C69.8,2.4,72.9,6.2,72.4,10.4C72.4,10.4,72.4,10.4,72.4,10.4z"/>
		<path class="st2" d="M64.1,10.9l18.1-1.1C70.2-7.9,52.2,2.1,64.1,10.9z"/>
	</g>
	<g>
		<path class="st3" d="M20.5,38.4c0.1,0.8,0.2,1.5,0.1,2.3c-0.1,0.9-0.3,1.8-0.6,2.7c-1.7,4-4.6,6-7,6.2c-0.8,0.1-1.5,0-2.2-0.3
			C8,48.1,7.3,43.5,14,37.1c-1.8-0.5-5.3-2.2-8.3-4.8c-0.5-0.5-1.1-0.9-1.5-1.4c-2.8-2.9-4.8-6.6-3.9-11c0.1-0.6,0.3-1.3,0.6-1.9
			c0.1-0.3,0.3-0.7,0.5-1c2.4-4.8,7.2-6.1,11.4-4.1c0.6,0.3,1.2,0.6,1.7,1c4.2,3,7.3,9.4,5.9,18.8c-0.1,0.7-0.2,1.5-0.4,2.2
			c-0.1,0.2-0.1,0.5-0.2,0.8l0.5,1.9C20.4,37.8,20.4,38.1,20.5,38.4C20.5,38.4,20.5,38.4,20.5,38.4z"/>
		<g>
			<path class="st0" d="M20.3,32.7c-0.1,0.7-0.2,1.5-0.4,2.2c-11.5-8.4-8.5-18.8-7.2-22c0.6,0.3,1.2,0.6,1.7,1
				C13.3,16.8,11,25.3,20.3,32.7z"/>
			<path class="st0" d="M5.7,32.3c-0.5-0.5-1.1-0.9-1.5-1.4c0.6-1.4,1.5-4,0.6-6.5c-0.7-1.9-2.2-3.4-4.5-4.5
				c0.1-0.6,0.3-1.3,0.6-1.9c3,1.4,5,3.3,5.8,5.8C7.9,27.3,6.4,30.9,5.7,32.3C5.7,32.3,5.7,32.3,5.7,32.3z"/>
			<path class="st0" d="M20.6,40.7c-3.2,2.2-6,6.2-7.6,8.9c-0.8,0.1-1.5,0-2.2-0.3c1.8-3.1,5.4-8.4,9.7-10.8
				C20.6,39.2,20.7,40,20.6,40.7z"/>
		</g>
		<path class="st2" d="M19.7,35.6c5.1-22-13-29.7-18.5-18.7S9.6,35.7,14,37.1c-12.7,12.4,1.2,17.7,6,6.3c0.8-1.9,0.9-4,0.3-5.9
			C20.3,37.5,19.7,35.6,19.7,35.6z"/>
	</g>
	<path class="st1" d="M132.8,30c-3.3,6-20.9,16.9-43.8,17.9c-2.3,0.1-4.7,0.1-7.1,0C57.4,46.5,43.4,34.4,20,38.3
		c-1,0.2-2-0.4-2.1-1.4c-0.1-0.6,0.1-1.4,1.1-2.2c4.6-4.4,9.6-8.4,14.8-11.7c2.9-1.8,5.8-3.5,8.8-5c2.8-1.4,5.7-2.6,8.6-3.6
		c3.7-1.3,7.4-2.4,11.2-3.1c3.8-0.8,7.8-1.3,11.7-1.5c3.8-0.2,7.7-0.1,11.7,0.3c2.5,0.2,5,0.6,7.6,1.1h0c1.1,0.2,2.1,0.4,3.2,0.7
		c2.6,0.6,5.1,1.4,7.7,2.3C113.8,17.5,123.4,22.7,132.8,30L132.8,30z"/>
	<path class="st0" d="M132.8,30c-3.3,6-20.9,16.9-43.8,17.9h0c0,0-7.9-19.1,4.4-36.6h0C106.5,13.9,119.8,19.9,132.8,30
		C132.8,30,132.8,30,132.8,30z"/>
	<path d="M109.6,28.2c-0.6,3-3.4,4.4-5.1,2.5s-1-5.6,1.3-6.7S110.1,25.2,109.6,28.2z"/>
	<path class="st3" d="M104.3,14.2L104.3,14.2c-6.5,8.6-10.2,4.1-7.7-2.3C99.2,12.6,101.7,13.3,104.3,14.2z"/>
	<path class="st0" d="M85.9,10.1c-8.9,18.7-15.9,13.4-11.7-0.3C78.1,9.6,81.9,9.7,85.9,10.1z"/>
	<path class="st0" d="M62.5,11.2c-2.4,12.9-12.3,15.1-11.2,3.1C54.9,13.1,58.7,12,62.5,11.2z"/>
	<path class="st0" d="M42.7,18c-2,13.6-8.3,12.3-8.8,5C36.7,21.2,39.6,19.5,42.7,18z"/>
	<g>
		<path class="st3" d="M72.2,31.8c-0.7,3.4-8.2,8.4-12.7,6.4c-0.3-0.1-0.6-0.3-0.9-0.5c-0.6-0.4-1.1-0.8-1.5-1.3
			c-2.2-2.8-1.1-7.1,2.4-8.6c3.9-1.7,10.3-0.6,12.2,2.1c0.2,0.3,0.4,0.6,0.5,1C72.3,31.1,72.3,31.5,72.2,31.8z"/>
		<path class="st0" d="M72.2,31.8c-6.9,0.2-11.6,4-13.6,5.9c-0.6-0.4-1.1-0.8-1.5-1.3c2.1-2.1,7.1-6.2,14.6-6.5
			c0.2,0.3,0.4,0.6,0.5,1C72.3,31.1,72.3,31.5,72.2,31.8z"/>
		<path class="st2" d="M72.2,30.8c0.9,3.3-7.7,9.7-12.7,7.4s-4.4-8.5,0-10.5S71.3,27.5,72.2,30.8L72.2,30.8L72.2,30.8z"/>
	</g>
</g>
</svg>
