<?xml version="1.0" encoding="utf-8"?>
<!-- Generator: Adobe Illustrator 28.0.0, SVG Export Plug-In . SVG Version: 6.00 Build 0)  -->
<svg version="1.1" id="Layer_1" xmlns="http://www.w3.org/2000/svg" xmlns:xlink="http://www.w3.org/1999/xlink" x="0px" y="0px"
	 viewBox="0 0 140.5 151.3" style="enable-background:new 0 0 140.5 151.3;" xml:space="preserve">
<style type="text/css">
	.st0{fill:#5D4DC4;}
	.st1{fill:#8D7CF7;}
	.st2{fill:none;}
	.st3{fill:#B8AEFF;}
	.st4{fill:#FFFFFF;}
</style>
<g>
	<path class="st0" d="M82.6,130.1c-5.5,22.9,12.1,14.2,20.4-8.4L82.6,130.1z"/>
	<path class="st0" d="M26.8,56.4c-0.1-0.3-2.8-7.6,0.2-12.9c1.2-2.1,3.1-3.5,5.7-4.3c-0.8-2-1.7-5.6-0.2-8.8
		c1.2-2.6,3.7-4.4,7.4-5.3c-0.4-2.6-0.8-8.3,2.5-11.8c2-2.1,5-3.1,8.9-2.7c-0.2-1.7-0.1-4.3,1.6-6.5c2-2.7,5.5-4.1,10.6-4.1v2.7
		c-4.2,0-7,1-8.5,3c-1.9,2.6-0.8,6.1-0.8,6.2l0.6,2.1l-2.1-0.4c-3.9-0.7-6.7-0.1-8.4,1.7c-3.3,3.5-1.6,10.6-1.6,10.7l0.3,1.4
		l-1.4,0.3c-3.5,0.7-5.8,2-6.8,4.1c-1.6,3.5,0.8,7.9,0.8,8l0.9,1.6l-1.8,0.3c-2.6,0.5-4.4,1.6-5.5,3.4c-2.4,4.1,0,10.5,0,10.6
		L26.8,56.4L26.8,56.4L26.8,56.4z"/>
	<path class="st0" d="M49.7,139.6c-2.1,0-8.5-0.3-11.5-4c-1.3-1.6-1.7-3.6-1.4-5.9c-1.8-0.3-4.6-1.1-5.9-3.4c-1.1-2-1-4.5,0.4-7.5
		c-1.7-0.3-3.7-1-4.6-2.7c-0.9-1.7-0.6-3.9,0.9-6.7c-1.6-0.9-4.1-2.7-4.6-5.4c-0.5-2.3,0.5-4.8,3.1-7.2l1.9,1.9
		c-1.8,1.8-2.6,3.4-2.3,4.8c0.4,2.2,3.3,3.7,4.4,4.1l1.5,0.6l-0.9,1.4c-1.6,2.4-2.1,4.2-1.6,5.2c0.5,0.9,2.1,1.5,4.4,1.5h2.3l-1.2,2
		c-1.2,2.1-2.4,4.9-1.4,6.7c1,1.8,4.1,2.2,5.2,2.2h1.8l-0.5,1.7c-0.6,2.1-0.4,3.8,0.5,5.1c2.2,2.8,7.9,3.1,10,3l0.1,2.7
		C50.4,139.6,50.1,139.6,49.7,139.6L49.7,139.6L49.7,139.6z"/>
	<path class="st0" d="M117.9,60.5c-9.6-10.8-10.1-26.1-10.1-29.1c0-0.7,0.3-1.3,0.9-1.6c0.6-0.4,1.3-0.4,1.9-0.2l7.8,3.4l-1.1,2.4
		l-6.8-3c0.1,4.3,1.2,17.1,9.4,26.2L117.9,60.5C117.9,60.5,117.9,60.5,117.9,60.5z"/>
	<g>
		<path class="st1" d="M91.6,128.5c-10.4,21.7-21,27-22.6,19.5c-0.6-2.6,0-6.7,2-12.2l8.8-3.1L91.6,128.5L91.6,128.5L91.6,128.5z"/>
		<path class="st0" d="M79.8,132.8C77.2,143,69.3,147.9,69,148.1c-0.6-2.6,0-6.7,2-12.2L79.8,132.8z"/>
	</g>
	<path class="st1" d="M119.9,39.6c-3.5-1.6-4.2-5.9-1.2-7.8c2.9-1.9,7.3,0.1,7.9,3.6C127.1,38.9,123.4,41.2,119.9,39.6z"/>
	<g>
		<path class="st0" d="M30.7,89.3c0,0-8.3-1.6-15.4,13.1c-0.5,1-1.8,1.5-2.8,1c-1.3-0.6-3-1.7-4.5-3.4c-0.6-0.8-1.3-1.7-1.7-2.7
			c-1.4-3.1-1.9-7.3,0.2-13.3c0,0-1-0.6-2.3-2c-0.5-0.6-1.1-1.3-1.7-2.2c-2.4-3.8-4.3-10.6,0.3-20.9l0,0c0.5-1.1,1-2.2,1.7-3.3
			c1.5-2.8,3.5-5.8,6-9.1c1.1-1.4,3.4-0.9,3.7,0.9c1.5,7.3,5.7,20.6,16.3,19.9l0,4v1.4l0,3.8l0,1.3l0,5.8v1.3L30.7,89.3
			C30.7,89.3,30.7,89.3,30.7,89.3z"/>
		<g>
			<path class="st1" d="M30.9,72.5c0,0-0.1,0-0.3,0.1c-0.8,0.2-3.1,0.6-6,0.6c-6.7,0-16.9-2.2-21.7-14.3l0,0c0.5-1.1,1-2.2,1.7-3.3
				c5.8,19.3,24.9,14.6,25.7,14.4l0.3,1.3v0L30.9,72.5C30.9,72.5,30.9,72.5,30.9,72.5z"/>
			<path class="st1" d="M30.8,76.4l-0.2,1.3L30.4,79c-0.2,0-15.2-2.5-26.2,2.9c-0.5-0.6-1.1-1.3-1.7-2.2c11.2-5.8,26-3.8,28.1-3.4
				C30.7,76.4,30.8,76.4,30.8,76.4C30.8,76.4,30.8,76.4,30.8,76.4z"/>
			<path class="st1" d="M30.8,84.8h-0.1C13.9,86.5,9.1,97,8,99.9c-0.6-0.8-1.3-1.7-1.7-2.7c2.2-4.6,8.4-13.5,24.2-15.1l0.1,1.3v0
				L30.8,84.8L30.8,84.8L30.8,84.8z"/>
		</g>
		<path class="st2" d="M30.5,67.2c-10.7,0.7-14.8-12.6-16.3-19.9c-0.4-1.8-2.6-2.3-3.7-0.9c-20.9,27.2-4.1,37.5-4.1,37.5
			c-4.3,12.6,2.5,17.7,6.1,19.5c1,0.5,2.3,0.1,2.8-1c7.1-14.7,15.4-13.1,15.4-13.1L30.5,67.2L30.5,67.2L30.5,67.2z"/>
	</g>
	<path class="st1" d="M118.4,113.7c-1.8,1.4-3.6,2.7-5.5,3.9c-4.6,2.9-9.7,5.6-14.9,8.1h0c-4,1.9-8.1,3.7-12.2,5.2
		c-3,1.2-6,2.2-8.9,3.2c-7.3,2.4-14,4-18.8,4.7c-3.8,0.5-6.6,0.4-7.8-0.4C35,127.8,2.9,60.8,63.4,1.3c1.7,2.8,3.5,5.5,5.3,8.1
		l0.1,0.1c0.7,1.1,1.5,2.1,2.3,3.2l0,0.1c4.8,6.4,9.9,12.3,15.2,17.7l2.4,2.4c6.3,6.2,12.6,11.6,18.6,16.3c0.8,0.6,1.5,1.2,2.3,1.7
		c0.5,0.4,1.1,0.8,1.6,1.2c4.6,3.4,8.8,6.3,12.6,8.8c6.3,4.2,11.2,7,13.6,8.6C145.5,74.8,137.8,98.5,118.4,113.7
		C118.4,113.7,118.4,113.7,118.4,113.7z"/>
	<path class="st3" d="M118.4,113.7c-1.8,1.4-3.6,2.7-5.5,3.9c-9.5-4.8-32.7-32.2-5.7-68.5c0.8,0.6,1.5,1.2,2.3,1.7
		C88.5,86.8,107.4,109.4,118.4,113.7L118.4,113.7z"/>
	<path class="st3" d="M98,125.7c-4,1.9-8.1,3.7-12.2,5.2h0c-1,0.1-1.9-0.4-2.4-1.3c-11.5-20.2-3.3-33.2-1.3-45.3
		c2.1-12.4-7.8-18.1-7.8-29.3s11.8-24.5,11.8-24.5l2.4,2.4C76.3,50.8,80,57.6,86,64.6c8.6,10,1.6,13.2-1.1,24.3
		C81.8,101.5,81.6,119,98,125.7L98,125.7L98,125.7z"/>
	<path class="st3" d="M55.3,99.4c-1.6,11.7,4.6,30.6,22.4,34.4c-7.6,2.5-14.5,4.3-19.6,4.9c-13.1-7.7-9.2-31.2-5.6-44.6
		s-8.7-24.5-9-39.2c-0.3-14.6,7.4-31,25.1-45.5l0.1,0.1l2.3,3.2l0.1,0.1c-25.4,17.7-12,36.7-10.4,50.5
		C62.3,77.1,56.9,87.8,55.3,99.4L55.3,99.4L55.3,99.4z"/>
	<path class="st4" d="M126.9,79.1c-1.7,1.4-4.2,2.1-6.8,1.4c-5.6-1.5-7.6-8.1-3.6-11.9c2.9-2.7,7.3-2.5,10.2-0.2l0,0
		c1.1,0.9,1.9,2.1,2.4,3.5C130,74.8,129,77.5,126.9,79.1L126.9,79.1L126.9,79.1z"/>
	<path d="M126.9,79.1c-1,0.4-2.1,0.4-3.2,0c-3.8-1.4-5.1-6.8-2.3-9.7c1.5-1.6,3.7-1.8,5.4-1l0,0c1.1,0.9,1.9,2.1,2.4,3.5
		C130,74.8,129,77.5,126.9,79.1L126.9,79.1L126.9,79.1z"/>
	<path d="M110.7,80.6c2.3,4.3,6.8,6.8,11.6,6.7c0.6,0,1.2,0.5,1.2,1.1c0,0.5-0.4,0.9-0.8,1c-2.9,0.6-5.9,0.2-8.5-1.2
		c-2-1.1-3.5-2.8-4.6-4.7c-0.4-1-1.6-2.7-0.2-3.4C109.9,79.9,110.5,80.2,110.7,80.6L110.7,80.6L110.7,80.6z"/>
	<path class="st0" d="M126.8,68.5L126.8,68.5c-2.8-2.3-7.3-2.6-10.2,0.2c-0.6,0.5-1,1.1-1.3,1.7c5.1,1.8,8.2,2,13.9,1.6
		C128.7,70.5,127.9,69.4,126.8,68.5L126.8,68.5L126.8,68.5z"/>
	<path d="M123.5,72.9c-6.6,0-10.9-3.1-11.2-3.3l1.2-1.6c0.1,0,6.4,4.6,15.1,2.2l0.5,1.9C127.1,72.7,125.2,72.9,123.5,72.9
		C123.5,72.9,123.5,72.9,123.5,72.9z"/>
	<path class="st0" d="M123.7,60.9c-10,3.8-11.5-1-12.6-8.8C115.7,55.5,119.9,58.4,123.7,60.9z"/>
</g>
</svg>
