<?xml version="1.0" encoding="utf-8"?>
<!-- Generator: Adobe Illustrator 28.0.0, SVG Export Plug-In . SVG Version: 6.00 Build 0)  -->
<svg version="1.1" id="Layer_1" xmlns="http://www.w3.org/2000/svg" xmlns:xlink="http://www.w3.org/1999/xlink" x="0px" y="0px"
	 viewBox="0 0 147.5 126.8" style="enable-background:new 0 0 147.5 126.8;" xml:space="preserve">
<style type="text/css">
	.st0{fill:#5D4DC4;}
	.st1{fill:#8D7CF7;}
	.st2{fill:#B8AEFF;}
	.st3{fill:none;}
	.st4{fill:#FFFFFF;}
</style>
<g>
	<path class="st0" d="M67.3,99.4c0,0-0.2-10.2-4.4-18.3c-2.1-4-5.2-7.6-9.7-9.2v-8.5c2.5-0.6,6.8-2.7,9.7-7.2
		c3.4-5.2,4.9-13.5-0.3-26.2C71.7,33.2,104.6,68.1,67.3,99.4L67.3,99.4z"/>
	<path d="M62.9,81.1c-2.1-4-5.2-7.6-9.7-9.2v-8.5c2.5-0.6,6.8-2.7,9.7-7.2C72.3,70,62.9,81.1,62.9,81.1L62.9,81.1z"/>
	<g>
		<path class="st1" d="M55.5,69.5c-0.3,4.8-2.7,8-12.4,12.9c-4.5,2.3-9.4,0.7-12.9-2.7l0,0c-0.8-0.7-1.5-1.5-2.1-2.4
			c-2.1-3-3.4-6.7-3.1-10.2c0.1-0.8,0.2-1.6,0.4-2.4c0-0.1,0-0.1,0-0.1c-7.6-5.1-7.4-12.5-3.6-17.6c0.5-0.7,1.2-1.4,1.8-2
			c1.7-1.5,3.7-2.6,6-3.2c9.1-2.3,22.1,6.2,23.4,18.9c0.1,0.8,0.1,1.7,0.1,2.5v0.1c0,0,1.1,0.5,1.8,2.2c0.3,0.7,0.5,1.6,0.6,2.8
			C55.6,68.8,55.6,69.1,55.5,69.5L55.5,69.5L55.5,69.5z"/>
		<path class="st2" d="M53.1,63.3c-2.6-0.6-5.2-1.7-8-3c-0.7-0.4-1.5-0.8-2.2-1.2c-3-1.7-6-3.6-8.8-5.4c-4.7-3-9.3-6-12.4-6.7
			c0.5-0.7,1.2-1.4,1.8-2c3.3,1.2,7.4,3.8,11.9,6.6c5.7,3.6,12,7.7,17.5,9.1C53.1,61.6,53.2,62.5,53.1,63.3L53.1,63.3z"/>
		<path class="st2" d="M55.5,68.4c-10.9,10-20.9,11.4-25.4,11.4l0,0c-0.8-0.7-1.5-1.5-2.1-2.4c0,0,12.9,1.8,26.9-11.8
			C55.3,66.3,55.5,67.3,55.5,68.4L55.5,68.4L55.5,68.4z"/>
		<path class="st2" d="M45.4,59.4c0,0-0.1,0.4-0.2,0.9c-0.4,1.2-1.4,3.2-3.8,4.9c-2.5,1.7-5.8,2.6-9.9,2.6c-2,0-4.1-0.2-6.4-0.6
			c0.1-0.8,0.2-1.6,0.4-2.4c6.4,1.1,11.4,0.6,14.5-1.6c2.4-1.6,3-3.6,3.1-4.1c0-0.1,0-0.1,0-0.1L45.4,59.4
			C45.4,59.4,45.4,59.4,45.4,59.4z"/>
		<path class="st3" d="M55.5,69.5c0.3-4.8-2.4-6.1-2.4-6.1c0.3-14.1-13.8-24-23.5-21.5S14.1,57,25.4,64.6c-3,10,8,22.7,17.7,17.8
			C52.8,77.5,55.2,74.3,55.5,69.5L55.5,69.5L55.5,69.5z"/>
	</g>
	<path class="st2" d="M147.3,62.6c-3.3,6.9-16,30.4-40.8,46.5c-3.3,2.2-6.9,4.1-10.7,5.8h0c-7.8,3.6-16.6,6.3-26,8.2
		C52,126.8,32,127.6,11.8,126c-0.4,0-0.7-0.5-0.4-0.9c3.4-5.7,17.3-2,32.4-8.5c15.8-6.8,35.4-30.1,35.4-52.9S52.8,17.9,31,12.7
		C10.2,7.8,1,6.5,0,0.7C-0.1,0.3,0.3-0.1,0.7,0c32.2,7.8,58.6,7.7,79.5,12.4c1.6,0.4,3.1,0.7,4.6,1.1c6,1.6,11.5,3.8,16.6,6.8
		c22.2,13.4,32.2,34,44.8,39.5C147.3,60.3,147.8,61.6,147.3,62.6L147.3,62.6L147.3,62.6z"/>
	<path class="st4" d="M127,55.3c0,1.3-0.3,2.5-0.9,3.5c-2.3,4.3-8.6,5.7-13.7,2c-6.3-4.5-6.1-13.1,0.4-15.6
		c3.7-1.4,7.8-0.2,10.6,2.4h0C125.7,49.5,127.1,52.3,127,55.3z"/>
	<path d="M107.1,62.7c3.8,4.7,9.6,6.8,15.5,5.7c1.2-0.3,1.7,1.4,0.6,1.8c-6,2.6-13.8,0.4-17.1-5.3c-0.4-0.7-1.3-1.8-0.2-2.4
		C106.3,62.2,106.8,62.4,107.1,62.7L107.1,62.7L107.1,62.7z"/>
	<path d="M127,55.3c0,1.3-0.3,2.5-0.9,3.5c-2.1,2.9-6.1,3.9-9.3,1.6c-4.3-3.2-3.8-10.1,1-12.6c1.9-1,3.9-0.9,5.5-0.2h0
		C125.7,49.5,127.1,52.3,127,55.3C127,55.3,127,55.3,127,55.3z"/>
	<path class="st1" d="M95.8,115L95.8,115c-7.9,3.6-16.6,6.3-26,8.2c25.4-14.5,29-36,19.8-61.2c-9.1-25.2-16-41-9.3-49.6
		c1.6,0.4,3.1,0.7,4.6,1.1c12.4,11.3,4.3,30.1,5.7,36.6c1.8,7.9,13.2,20.1,16,32.8S104.3,109,95.8,115L95.8,115L95.8,115z"/>
	<path class="st4" d="M114.4,52.4c-3.4-1.5-4.8-4.1-2.5-4.7s6.5,1.3,7.6,3.4S117.8,53.9,114.4,52.4L114.4,52.4z"/>
</g>
</svg>
