<?xml version="1.0" encoding="utf-8"?>
<!-- Generator: Adobe Illustrator 28.0.0, SVG Export Plug-In . SVG Version: 6.00 Build 0)  -->
<svg version="1.1" id="Layer_1" xmlns="http://www.w3.org/2000/svg" xmlns:xlink="http://www.w3.org/1999/xlink" x="0px" y="0px"
	 viewBox="0 0 86.3 50.2" style="enable-background:new 0 0 86.3 50.2;" xml:space="preserve">
<style type="text/css">
	.st0{fill:#8D7CF7;}
	.st1{fill:#5D4DC4;}
	.st2{fill:none;}
	.st3{fill:#372B8F;}
	.st4{fill:#B8AEFF;}
</style>
<g>
	<path class="st0" d="M73.3,18.1c0,0-3.7,0-9.2,0.2c-0.3,0-0.7,0-1.1,0c-5.8,0.2-13.4,0.6-20.9,1.5c-0.5,0-1,0.1-1.4,0.2
		c-4.1,0.5-8.1,1.1-11.8,1.8h0c-0.4,0.1-0.7,0.1-1,0.2c-2.3,0.5-4.4,1-6.4,1.7c-1.5-3.8-0.8-7.4,1.5-10.2c0.4-0.5,0.9-1,1.5-1.5
		c2.5-2.2,6.1-3.7,10.3-4c0.7-0.1,1.5-0.1,2.2-0.1c3.6,0.1,7.5,1,11.5,2.9C46.9,5.4,49.9,0.4,54.8,0c0.7-0.1,1.5,0,2.3,0.2
		C61.9,1.1,67.9,6.1,73.3,18.1C73.3,18.1,73.3,18.1,73.3,18.1z"/>
	<g>
		<path class="st1" d="M65.1,17.9l-0.9,0.4l-0.9,0.4l-0.2-0.4L54.8,0c0.7-0.1,1.5,0,2.3,0.2L65.1,17.9z"/>
		<path class="st1" d="M42.8,19.6l-0.6,0.3L41,20.4L40.7,20L34.9,7.9c0.7-0.1,1.5-0.1,2.2-0.1C37.1,7.8,42.8,19.6,42.8,19.6z"/>
		<path class="st1" d="M29.9,21.3L29,21.8h0l-0.9,0.5L28,22l-4.9-8.6c0.4-0.5,0.9-1,1.5-1.5L29.9,21.3
			C29.9,21.3,29.9,21.3,29.9,21.3z"/>
	</g>
	<path class="st2" d="M73.3,18.1C60.8-9.6,45.1,0,48.5,10.7c-16.4-8-31.3,1.7-26.9,12.9C38.7,18.1,73.3,18.1,73.3,18.1z"/>
	<path class="st1" d="M63.3,42.1L54,50.2c-2.4,0-4.6-0.2-6.7-0.5c-0.8-0.1-1.6-0.3-2.3-0.4c-12.1-2.6-18.4-9.7-18.4-9.7L51,41.2
		l1.3,0.1L63.3,42.1z"/>
	<path class="st3" d="M53.1,41.9l-5.8,7.7c-0.8-0.1-1.6-0.3-2.3-0.4l6.1-8l0.4-0.6l0.9,0.7L53.1,41.9L53.1,41.9z"/>
	<path class="st2" d="M63.3,42.1L54,50.2c-18,0-27.5-10.6-27.5-10.6L63.3,42.1z"/>
	<path class="st0" d="M13.2,30.6c0,0.5-0.1,1.1-0.1,1.7c-0.1,0.8-0.3,1.5-0.6,2.3C10.5,40.4,5.1,46,5.1,46s-2.3-3.2-3.8-7.8
		c-0.2-0.6-0.4-1.2-0.6-1.9c-0.9-3.4-1.1-7.5,0.1-11.6C1,24,1.2,23.3,1.5,22.7c0.9-2.3,2.4-4.6,4.5-6.8c0,0,5,5.4,6.7,11.2l0,0
		c0.2,0.8,0.4,1.6,0.5,2.3l0,0C13.2,29.9,13.2,30.3,13.2,30.6C13.2,30.6,13.2,30.6,13.2,30.6z"/>
	<path class="st4" d="M84.9,34.7c-8.9,4.7-18.2,7.2-27.2,8.2c-0.7,0.1-1.4,0.1-2.1,0.2c-7,0.5-13.6,0.1-19.7-1
		c-0.7-0.1-1.4-0.3-2.1-0.4c-8.4-1.8-15.4-5-19.8-8.9c-1.1-1-1-2.7,0.1-3.6c1.8-1.5,3.7-2.8,5.5-4.1c0.6-0.4,1.2-0.9,1.9-1.3
		c13.1-8.6,25.4-11.9,36.1-10.9c0.8,0.1,1.5,0.2,2.2,0.3C70.9,14.9,80,21.3,85.9,31C86.7,32.3,86.2,34,84.9,34.7
		C84.9,34.7,84.9,34.7,84.9,34.7z"/>
	<ellipse transform="matrix(0.2677 -0.9635 0.9635 0.2677 25.9562 87.6402)" cx="70.6" cy="26.7" rx="3.7" ry="3"/>
	<path class="st0" d="M48.9,28.4c0.1,2.4-8.5,5.7-10.9,4.4c-2.4-1.3-3.4-6.6-0.9-8.8S48.7,26,48.9,28.4z"/>
	<g>
		<path class="st1" d="M13.2,29.5L0.8,24.6C1,24,1.2,23.3,1.5,22.7l11.2,4.4l0,0C12.9,27.9,13.1,28.7,13.2,29.5
			C13.2,29.5,13.2,29.5,13.2,29.5z"/>
		<path class="st1" d="M13.1,32.3c-0.1,0.8-0.3,1.5-0.6,2.3L1.3,38.1c-0.2-0.6-0.4-1.2-0.6-1.9L13.1,32.3z"/>
	</g>
	<path class="st2" d="M13.2,30.6c0-7-7.2-14.7-7.2-14.7C-7,29.6,5.1,46,5.1,46S13.2,37.6,13.2,30.6C13.2,30.6,13.2,30.6,13.2,30.6z"
		/>
	<g>
		<path class="st0" d="M57.7,42.9c-0.7,0.1-1.4,0.1-2.1,0.2c-2.2-4.9-6.3-17.3,2-30.1c0.8,0.1,1.5,0.2,2.2,0.3
			C50.7,26.3,55.6,38.8,57.7,42.9z"/>
		<path class="st0" d="M35.9,42c-0.7-0.1-1.4-0.3-2.1-0.4c-1.2-8.7-10.9-14.7-14.3-16.5c0.6-0.4,1.2-0.9,1.9-1.3
			C25.8,26.3,35,32.7,35.9,42z"/>
	</g>
	<path class="st2" d="M84.9,34.7C57.5,49.1,26.2,43.2,14,32.7c-1.1-1-1.1-2.7,0.1-3.6C44.8,4.5,73,9.7,85.9,31
		C86.7,32.3,86.2,34,84.9,34.7C84.9,34.7,84.9,34.7,84.9,34.7z"/>
</g>
</svg>
