<?xml version="1.0" encoding="utf-8"?>
<!-- Generator: Adobe Illustrator 28.0.0, SVG Export Plug-In . SVG Version: 6.00 Build 0)  -->
<svg version="1.1" id="Layer_1" xmlns="http://www.w3.org/2000/svg" xmlns:xlink="http://www.w3.org/1999/xlink" x="0px" y="0px"
	 viewBox="0 0 54.7 49.5" style="enable-background:new 0 0 54.7 49.5;" xml:space="preserve">
<style type="text/css">
	.st0{fill:#5D4DC4;}
	.st1{fill:#8D7CF7;}
	.st2{fill:#B8AEFF;}
</style>
<g>
	<path class="st0" d="M26.5,7.2c-10.3-6.7-11.2,4.5-8.3,7.5L46,11.2C42.6-1.8,29.8-4,26.5,7.2L26.5,7.2z"/>
	<path class="st0" d="M19.3,39.8c0,11.7,15.2,13.7,23.3,0.9L19.3,39.8z"/>
	<path class="st1" d="M35.8,42.7c-0.2,0-0.4,0.1-0.6,0.1c-11.5,1.5-21.8-4.4-23.3-13.4c-1.4-9.2,6.9-19.2,18.6-21
		C32.9,8,35.3,8,37.6,8.3c8.7,1.2,15.6,7.1,16.8,14.4C55.9,31.9,47.5,40.9,35.8,42.7z"/>
	<path class="st2" d="M35.8,42.7c-0.2,0-0.4,0.1-0.6,0.1c-1.7-5.6-5.6-22.2,2.5-34.5c8.7,1.2,15.6,7.1,16.8,14.4
		C55.9,31.9,47.5,40.9,35.8,42.7z"/>
	<ellipse transform="matrix(0.4152 -0.9097 0.9097 0.4152 3.6661 53.8215)" cx="43.7" cy="24.1" rx="3.7" ry="2.9"/>
	<path class="st0" d="M28.9,26.4c-0.5,3-8.4,4.7-10.1,2.6s0.2-7.4,3-8.7S29.4,23.4,28.9,26.4L28.9,26.4z"/>
	<path class="st0" d="M2.9,15.5C-0.6,17-1.5,32.6,3.4,35.4s9.4-6.2,8.6-9.7S6.4,14,2.9,15.5L2.9,15.5z"/>
</g>
</svg>
