<?xml version="1.0" encoding="utf-8"?>
<!-- Generator: Adobe Illustrator 28.0.0, SVG Export Plug-In . SVG Version: 6.00 Build 0)  -->
<svg version="1.1" id="Layer_1" xmlns="http://www.w3.org/2000/svg" xmlns:xlink="http://www.w3.org/1999/xlink" x="0px" y="0px"
	 viewBox="0 0 180.2 108.6" style="enable-background:new 0 0 180.2 108.6;" xml:space="preserve">
<style type="text/css">
	.st0{fill:#8D7CF7;}
	.st1{fill:#B8AEFF;}
	.st2{fill:none;}
	.st3{fill:#5D4DC4;}
	.st4{fill:#E2DCFE;}
	.st5{fill:#FFFFFF;}
	.st6{fill:#FFFFFE;}
</style>
<g>
	<g>
		<path class="st0" d="M33.3,90.2c-8.5,5.2-20.2,5.1-26.2,1.4c-0.5-0.3-0.9-0.6-1.3-1c-0.9-0.7-1.6-1.6-2.3-2.5
			C-1,82-1.5,71.9,4,65.1c0.5-0.6,1.1-1.2,1.7-1.8c2.6-2.4,6.3-4.2,11-4.9C7.9,56.2,1,43.5,5.1,34.9c0.3-0.7,0.8-1.4,1.3-2.1
			c1.8-2.3,4.6-4.1,8.6-5.1c8.3-2,15.3,0.4,20.1,4.4c6.2,5.1,8.6,12.5,5.3,15.7c-2.1,2.1-3.5,4.1-3.9,5.9c-0.1,0.5-0.2,0.9-0.2,1.4
			c0,0.9,0.2,1.7,0.7,2.5c0.9,1.5,2.8,2.8,5.6,4l0.7,6.8C44.4,79.2,39.8,86.2,33.3,90.2L33.3,90.2L33.3,90.2z"/>
		<g>
			<path class="st1" d="M31.7,80.8c-7.8,8.5-19.4,9.8-25.9,9.8c-0.9-0.7-1.6-1.6-2.3-2.5c5.1,0.2,18.2-0.1,26.4-9L31.7,80.8
				L31.7,80.8z"/>
			<path class="st1" d="M31,75.5c-1.9,0.6-3.9,0.9-5.9,0.9c-5,0-10.1-1.9-14.9-5.5c-2.7-2-4.8-4.2-6.2-5.8c0.5-0.6,1.1-1.2,1.7-1.8
				c3.7,4.3,13.2,13.3,24.6,9.9L31,75.5C31,75.5,31,75.5,31,75.5z"/>
			<path class="st1" d="M37,57.6c-3.3,2.2-7.9,2.8-12,2.8c-4.5,0-8.3-0.7-8.6-0.8l0.2-1.2l0.2-1.2c0.1,0,13.6,2.7,19.4-2.1
				C36.3,56,36.6,56.8,37,57.6z"/>
			<path class="st1" d="M26.9,40.3c-2.3,1.3-4.6,1.8-6.8,1.8c-6.7,0-12.5-4.8-15-7.2c0.3-0.7,0.8-1.4,1.3-2.1
				c2.6,2.6,11.1,10,19.3,5.4L26.9,40.3L26.9,40.3z"/>
		</g>
		<path class="st2" d="M33.3,90.2c-8.5,5.2-20.2,5.1-26.2,1.4c-10.5-6.6-11.1-30,9.6-33.2C4.6,55.3-4,32.4,15,27.7
			c8.3-2.1,15.3,0.4,20.1,4.4c6.2,5.1,8.6,12.5,5.3,15.7c-2.1,2.1-3.5,4.1-3.9,5.9c-0.8,3.2,1.1,5.8,6.1,7.8l0.7,6.8
			C44.4,79.2,39.7,86.2,33.3,90.2L33.3,90.2L33.3,90.2z"/>
		<path class="st3" d="M33.3,90.2L33.3,90.2c-5.3-4.1-10.6-27.4,9.3-28.7l0.7,6.8C44.4,79.2,39.7,86.2,33.3,90.2L33.3,90.2
			L33.3,90.2z"/>
		<path class="st3" d="M40.4,47.8c-2.1,2.1-3.5,4.1-3.9,5.9h0c-18,0-16.2-21.3-1.4-21.7C41.3,37.2,43.7,44.6,40.4,47.8
			C40.4,47.8,40.4,47.8,40.4,47.8z"/>
	</g>
	<g>
		<path class="st4" d="M147.9,39.2l-16.3-0.1l-28.1-0.2l-20.7-0.1c0,0,1.8-8.7,8.2-13.6c4.9-3.7,12.3-5.2,23.7,1
			c-3.9-3.5-14.5-20.5-2.4-25.2c1.2-0.4,2.4-0.8,3.7-0.9C125.3-0.9,138,7.3,147.9,39.2L147.9,39.2z"/>
		<path class="st1" d="M147.9,39.2l-16.3-0.1c-0.1-1.4,0-2.9,0.2-4.6c0,0,1.8-13-10.1-18c0,0,1.9-8.9-9.4-15.6l3.7-0.9
			C125.3-0.9,138,7.3,147.9,39.2L147.9,39.2L147.9,39.2z"/>
		<path class="st1" d="M103.8,35.6c0,1.2-0.1,2.3-0.2,3.3l-20.7-0.1c0,0,1.8-8.7,8.2-13.6h0C100.4,26,103.8,35.6,103.8,35.6
			C103.8,35.6,103.8,35.6,103.8,35.6z"/>
	</g>
	<g>
		<g>
			<path class="st3" d="M156.8,89.7c-7.4,10.9-15,16.3-22,18.1l0,0c-5.9,1.6-11.3,0.6-15.7-1.9c-5.1-2.8-8.9-7.5-10.6-12.2l21.8-1.8
				l11.8-1L156.8,89.7L156.8,89.7L156.8,89.7z"/>
			<path class="st0" d="M142.1,90.9v3.5l-7.4,13.4l0,0c-5.9,1.6-11.3,0.6-15.7-1.9l7.9-9.8l3.4-4.2L142.1,90.9L142.1,90.9
				L142.1,90.9z"/>
		</g>
		<path class="st0" d="M92.6,87.4c-9.8,6.4-18.6,7.2-23.2,5.1c-5.3-2.5-5.1-8.9,5.6-15.4l7.8,4.6L92.6,87.4L92.6,87.4L92.6,87.4z"/>
		<path class="st3" d="M82.8,81.7c0,0-11.8,2.2-13.4,10.8c-5.3-2.5-5.1-8.9,5.6-15.4L82.8,81.7L82.8,81.7L82.8,81.7z"/>
	</g>
	<path class="st0" d="M145,93.7c-1.6,0.4-3.3,0.8-5.1,1.1c-2.5,0.5-4.9,0.8-7.3,1c-6.4,0.6-12.2,0.3-17.7-0.7
		c-9.4-1.6-17.5-5.1-24.8-9.1c-3.1-1.7-6.1-3.4-9-5.1l0,0c-1.5-0.9-3-1.8-4.5-2.7c-2.5-1.4-4.9-2.7-7.2-3.7
		c-3.2-1.4-6.2-2.4-9.1-3.2c-9.2-2.5-16.6-2.6-19.9-3.6c-5.1-1.5-6.4-6.7,2.2-8.4c6.4-1.2,14.4-7.5,25.6-13.7
		c5.5-3,11.7-6.1,18.9-8.5c3.8-1.3,7.7-2.3,11.5-3c9.5-1.7,18.9-1.8,27.5-0.7c3.7,0.5,7.1,1.1,10.5,2c4.1,1,7.9,2.2,11.3,3.6
		c0.9,0.4,1.9,0.8,2.8,1.2c2.5,1.1,5,2.3,7.5,3.6l0,0c11,5.7,21.3,13.1,21.9,19.6C180.8,71.5,170.3,87.4,145,93.7L145,93.7L145,93.7
		z"/>
	<path class="st1" d="M145,93.7L145,93.7c-5.8-2.4-14.3-14.5-2.5-22.1c0,0-11.2-21.2,8.3-31.2c13.2,5.8,28.7,15.2,29.4,23.2
		C180.9,71.5,170.3,87.4,145,93.7L145,93.7z"/>
	<path d="M171.4,74c-1.3,1.3-3.6,0.7-4.1-1.1s1.2-3.5,3-3S172.8,72.6,171.4,74L171.4,74z"/>
	<path class="st5" d="M161.2,69.2c-2.4,0.9-5.5,0.8-8.4-0.8c-6.6-3.6-7.4-11.8-1.5-14.9c3.8-2,8.5-0.8,11.6,2c1.7,1.6,2.9,3.7,3.1,6
		C166.5,65.2,164.3,68,161.2,69.2L161.2,69.2z"/>
	<path d="M161.2,69.2c-1.1,0.2-2.2,0.1-3.4-0.3c-4.9-1.9-6.4-9-2.6-12.7c2.3-2.2,5.4-2.2,7.8-0.6c1.7,1.6,2.9,3.7,3.1,6
		C166.5,65.2,164.3,68,161.2,69.2L161.2,69.2L161.2,69.2z"/>
	<path class="st6" d="M153.8,60.3c-3.4-0.8-5.2-2.8-3.2-3.6c2-0.8,6.3,0.1,7.7,1.7S157.2,61.1,153.8,60.3L153.8,60.3L153.8,60.3z"/>
	<path class="st3" d="M158.3,44L158.3,44c-13.3,6.7-21.7-0.1-21.7-8.4c4.1,1,7.9,2.2,11.3,3.6c0.9,0.4,1.9,0.8,2.8,1.2
		C153.2,41.5,155.8,42.7,158.3,44z"/>
	<g>
		<path class="st1" d="M126.1,33.6c-13.2,23.6-28.3,15.9-27.5,0.7C108.2,32.5,117.5,32.5,126.1,33.6z"/>
		<path class="st1" d="M87.1,37.2c-3.8,17.1-16,18.7-18.9,8.5C73.7,42.7,79.9,39.7,87.1,37.2z"/>
		<path class="st1" d="M81.2,81L81.2,81c0-0.4-0.9-12.7,0.9-22.5c1.8-10,8.2-4.2,8.1,27.6C87,84.4,84.1,82.7,81.2,81
			C81.2,81,81.2,81,81.2,81z"/>
		<path class="st1" d="M69.4,74.6c-3.2-1.4-6.2-2.4-9.1-3.2C58.5,51.2,68.2,50.4,69.4,74.6z"/>
		<path class="st1" d="M132.6,95.8L132.6,95.8c-6.4,0.6-12.2,0.3-17.7-0.7C112.7,77.8,127.4,71.9,132.6,95.8z"/>
	</g>
	<g>
		<path class="st4" d="M122.7,70.6c-0.6,1.7-2.1,3.5-5.2,5.4c-3.8,2.4-8.2,2.7-11.9,1c-0.8-0.3-1.5-0.8-2.2-1.3
			c-1.5-1.1-2.8-2.6-3.7-4.4c-1.9-3.6-2.7-8-2.4-11.7l0,0c0.1-0.9,0.2-1.8,0.4-2.6c0.5-2.1,1.5-3.7,3-4.5c4.3-2.4,7.2,0.8,10.3,3.9
			c2.5,2.5,6.6,4.9,9.2,7.3c0.7,0.6,1.2,1.2,1.6,1.9c0.1,0.1,0.2,0.2,0.2,0.3c0.4,0.7,0.8,1.5,0.9,2.3C123,69,123,69.8,122.7,70.6
			C122.7,70.6,122.7,70.6,122.7,70.6z"/>
		<g>
			<path class="st1" d="M122,65.9c-1.2,0.2-2.4,0.3-3.6,0.3c-8.7,0-17.7-4.6-21.1-6.6l0,0c0.1-0.9,0.2-1.8,0.4-2.6
				c2.5,1.5,13.1,7.4,22.5,6.6c0.7,0.6,1.2,1.2,1.6,1.9C121.8,65.7,121.9,65.8,122,65.9C122,65.9,122,65.9,122,65.9z"/>
			<path class="st1" d="M122.7,70.6c-8-0.2-14.7,4.5-17.1,6.4c-0.8-0.3-1.5-0.8-2.2-1.3c1.9-1.7,9.6-7.8,19.5-7.5
				C123,69,123,69.8,122.7,70.6C122.7,70.6,122.7,70.6,122.7,70.6z"/>
		</g>
		<path class="st2" d="M121.8,65.5c1.9,3,2.2,6.6-4.2,10.5s-14.3,2.1-17.8-4.7c-3.5-6.8-3.4-16.4,0.9-18.8s7.2,0.8,10.3,3.9
			C114.1,59.5,119.8,62.5,121.8,65.5C121.8,65.5,121.8,65.5,121.8,65.5z"/>
	</g>
</g>
</svg>
