   <svg xmlns="http://www.w3.org/2000/svg" viewBox="0 0 500 300">
  <g  id="fish-1" style="transform: translate(-325px, -190px);">
    <g>
      <path d="m414.84,272.21c-9.18,10.68-18.27,14.99-24.18,14.38-.27-.03-.54-.06-.8-.11-1-.18-1.92-.48-2.74-.9-5.44-2.72-7.03-10.08-3.98-15.16l14.55.82,2.47.14,14.68.83Z" style="fill: #372b8f; stroke-width: 0px;"/>
      <path d="m400.35,270.65c-.06.25-.12.49-.19.73-1.92,7.13-7.35,12.57-10.3,15.1-1-.18-1.92-.48-2.74-.9,2.02-1.58,8.38-7.06,10.57-14.34.11-.37.21-.75.3-1.13l2.36.54Z" style="fill: #5d4dc4; stroke-width: 0px;"/>
      <path d="m383.14,270.42c-3.64,6.05-.68,15.34,7.52,16.17,5.91.6,15.01-3.7,24.19-14.39l-31.7-1.79Z" style="fill: none; stroke-width: 0px;"/>
      <g>
        <path d="m357.4,252.29c-.06.87-.14,1.75-.26,2.62-.91,6.93-3.67,13.53-9.4,15.75-.79.31-1.6.49-2.4.55-.82.08-1.63.02-2.4-.16-6.08-1.35-9.63-10.07,4.48-23.75-1.21-.15-2.36-.37-3.45-.66-.92-.24-1.8-.52-2.63-.86-10.5-4.15-13.5-14.79-8.95-20.73.49-.65,1.07-1.23,1.74-1.74,1.27-1,2.86-1.74,4.77-2.13,8.68-1.77,13.56,5.15,16.12,12.81.26.79.49,1.58.7,2.37.27.98.5,1.95.7,2.91.17.82.31,1.62.44,2.4.3,1.85.47,3.58.56,5.05.11,1.79.11,3.67-.02,5.57Z" style="fill: #5d4dc4; stroke-width: 0px;"/>
        <g>
          <path d="m355.72,236.36c-.8.08-1.59.12-2.35.12-11.08,0-18.39-8.05-20.98-11.43.49-.65,1.07-1.23,1.74-1.74,2.27,2.99,9.77,11.54,20.89,10.68.26.79.49,1.58.7,2.37Z" style="fill: #8d7cf7; stroke-width: 0px;"/>
          <path d="m356.86,241.67c-2.38.25-8.53,1.24-12.89,4.97-.92-.24-1.8-.52-2.63-.86,4.85-4.91,12.09-6.19,15.08-6.51.17.82.31,1.62.44,2.4Z" style="fill: #8d7cf7; stroke-width: 0px;"/>
          <path d="m357.4,252.29c-.06.87-.14,1.75-.26,2.62-9.92,3.34-11.54,13.11-11.8,16.3-.82.08-1.63.02-2.4-.16.35-3.73,2.4-15.34,14.46-18.76Z" style="fill: #8d7cf7; stroke-width: 0px;"/>
        </g>
        <path d="m357.42,246.72c-.54-9.2-4.71-28.36-18.52-25.53-13.81,2.82-10.9,23.75,8.51,26.12-17.63,17.11-7.67,26.46.33,23.36s10.22-14.74,9.68-23.94Z" style="fill: none; stroke-width: 0px;"/>
      </g>
      <path d="m424.82,225.52l-53.93.5c-7.11-11.21-6.5-20.45-1.47-25.88.73-.79,1.56-1.5,2.47-2.12,3.46-2.37,8.12-3.49,13.43-3.06.84.07,1.69.18,2.55.33,4.69.8,9.77,2.76,14.92,6.09h.01c.74.47,1.47.98,2.21,1.51,6.86,4.94,13.73,12.33,19.81,22.63Z" style="fill: #5d4dc4; stroke-width: 0px;"/>
      <g>
        <path d="m398.18,213.07l-1.65,1.77c-.38-.36-9.04-8.55-11.21-19.88.84.07,1.69.18,2.55.33,2.28,10.16,10.23,17.7,10.31,17.78Z" style="fill: #8d7cf7; stroke-width: 0px;"/>
        <path d="m380.21,219.9l-1.86,1.56c-.38-.46-8.58-10.38-8.93-21.32.73-.79,1.56-1.5,2.47-2.12-.8,10.83,8.22,21.77,8.32,21.88Z" style="fill: #8d7cf7; stroke-width: 0px;"/>
        <path d="m406.2,214.86l-2.34.63c-.09-.36-2.19-8.29-1.07-14.11h.01c.74.47,1.47.98,2.21,1.51-.61,5.17,1.17,11.89,1.19,11.97Z" style="fill: #8d7cf7; stroke-width: 0px;"/>
      </g>
      <path d="m370.89,226.02l53.93-.5c-28.65-48.51-74.92-32.57-53.93.5Z" style="fill: none; stroke-width: 0px;"/>
      <path d="m444.96,245.42c-12.9,18.59-26.12,27.46-39.12,29.11-5.01.64-9.99.2-14.91-1.16h0c-7.79-2.17-15.41-6.65-22.75-12.89,0,0,0-.01-.01-.02-4.13-3.5-8.17-7.57-12.1-12.09-.72-.83-.79-2.06-.19-2.97,3.92-5.91,7.75-11.06,11.5-15.45,6.92-8.11,13.57-13.6,20.06-16.5,6.46-2.89,12.75-3.22,19.02-1,4.17,1.47,8.33,4.07,12.51,7.79.52.46,1.01.91,1.51,1.35,4.35,3.89,7.98,7.24,11,10.09,10.33,9.77,13.49,13.74,13.49,13.74Z" style="fill: #8d7cf7; stroke-width: 0px;"/>
      <path d="m405.84,274.53c-5.01.64-9.99.2-14.91-1.16h0c-21-34.12-3.49-59.92-3.49-59.92,6.46-2.89,12.75-3.22,19.02-1-24.48,28.42-.61,62.08-.61,62.08Z" style="fill: #5d4dc4; stroke-width: 0px;"/>
      <path d="m368.16,260.46c-4.13-3.5-8.17-7.57-12.1-12.09-.72-.83-.79-2.06-.19-2.97,3.92-5.91,7.75-11.06,11.5-15.45-5.86,16.88.51,29.95.79,30.51Z" style="fill: #b8aeff; stroke-width: 0px;"/>
      <path d="m429.42,241.35c-5.38,9.87-17.51,11.27-21.82,2.51-4.31-8.75,2.43-21.1,12.12-22.21.25-.03.5-.05.74-.06,4.34,3.89,7.98,7.24,10.99,10.09.35,3.02-.26,6.41-2.04,9.67Z" style="fill: #b8aeff; stroke-width: 0px;"/>
      <g>
        <path d="m389.86,245c.04.67-.23,1.33-.74,1.76-8.81,7.4-14.39,4.36-15.53-1.06-.13-.61-.2-1.25-.21-1.88-.01-.77.06-1.54.18-2.3.73-4.31,3.46-8.14,5.21-7.75,1.86.4,7.76,4.44,9.97,5.99.54.38.87.98.91,1.64l.05.85.14,2.33.02.42Z" style="fill: #b8aeff; stroke-width: 0px;"/>
        <path d="m389.84,244.58c-2.16.86-4.41,1.18-6.56,1.18-4.17,0-7.95-1.19-9.9-1.94-.01-.77.06-1.54.18-2.3,2.21.89,9.92,3.61,16.14.73l.14,2.33Z" style="fill: #8d7cf7; stroke-width: 0px;"/>
        <path d="m389.65,241.4l.21,3.6c.04.67-.23,1.33-.74,1.76-8.81,7.4-14.39,4.36-15.53-1.06-1.17-5.59,2.87-12.43,5.18-11.93,1.86.4,7.75,4.45,9.97,6,.54.38.87.98.91,1.64Z" style="fill: none; stroke-width: 0px;"/>
      </g>
      <path d="m420.99,237.8c-.96,3.99-4.61,5.75-6.57,3.17-1.96-2.58-.75-7.57,2.16-8.98,2.92-1.41,5.36,1.82,4.4,5.81Z" style="stroke-width: 0px;"/>
    </g>
    <g>
      <path d="m446.28,227.8c-2.56,1.2-5.46-.82-5.22-3.63s3.44-4.32,5.76-2.7,2.02,5.13-.54,6.34Z" style="fill: #e2dcfe; stroke-width: 0px;"/>
      <path d="m438.31,210.51c-4.4,1.62-8.91-2.13-8.12-6.75s6.3-6.65,9.91-3.65,2.61,8.78-1.79,10.41Z" style="fill: #e2dcfe; stroke-width: 0px;"/>
    </g>
  </g>
</svg>
