<?xml version="1.0" encoding="utf-8"?>
<!-- Generator: Adobe Illustrator 28.0.0, SVG Export Plug-In . SVG Version: 6.00 Build 0)  -->
<svg version="1.1" id="Layer_1" xmlns="http://www.w3.org/2000/svg" xmlns:xlink="http://www.w3.org/1999/xlink" x="0px" y="0px"
	 viewBox="0 0 109.7 87.4" style="enable-background:new 0 0 109.7 87.4;" xml:space="preserve">
<style type="text/css">
	.st0{fill:#8D7CF7;}
	.st1{fill:#5D4DC4;}
	.st2{fill:none;}
	.st3{fill:#B8AEFF;}
	.st4{fill:#E2DCFE;}
</style>
<g>
	<g>
		<path class="st0" d="M25.1,50.8c0,0-0.2,0.7-0.7,1.8c-1.8,4.3-7.2,14.9-14.4,12.8c-3.9-1.1-5.6-4-5.5-7c0-0.7,0.1-1.3,0.3-2
			c0.7-2.6,2.6-5.1,5.3-6.6C2.8,46.9,0,41.1,0,36.3c0-1,0.1-1.9,0.3-2.7c0.8-3.2,3.1-5.3,6.2-4.5c5.1,1.4,6.2,9.6,11.5,14.4
			c0.8,0.7,1.7,1.4,2.7,1.9c1,0.5,2.1,1,3.4,1.3l0.7,2.8L25.1,50.8C25.1,50.8,25.1,50.8,25.1,50.8z"/>
		<g>
			<path class="st1" d="M25.1,50.8c0,0-0.2,0.7-0.7,1.8c-5.3,4.8-11.5,6.1-16.1,6.1c-1.4,0-2.7-0.1-3.8-0.3c0-0.7,0.1-1.3,0.3-2
				c4.5,0.8,13.2,0.5,20-7C24.8,49.4,25.1,50.8,25.1,50.8z"/>
			<path class="st1" d="M20.7,45.4c-0.8,0.1-1.6,0.1-2.4,0.1C9.5,45.5,3.2,40,0,36.3c0-1,0.1-1.9,0.3-2.7c2.3,3.1,8.5,9.8,17.7,10
				C18.8,44.2,19.7,44.8,20.7,45.4L20.7,45.4z"/>
		</g>
		<path class="st2" d="M24.1,46.6C13,44,13,30.9,6.5,29.1C-1.3,26.8-4.2,44.1,10,49.8C3.4,53.5,1.9,63.1,10,65.4
			c9.1,2.6,15.2-14.6,15.2-14.6L24.1,46.6C24.1,46.6,24.1,46.6,24.1,46.6z"/>
	</g>
	<path class="st0" d="M65,79.2c-5,5.9-12.2,8.4-17.5,8.2c-0.9,0-1.8-0.2-2.5-0.4c-4.8-1.2-7.1-5.1-3-11.3l9.5,1.4l2.3,0.3L65,79.2
		L65,79.2z"/>
	<path class="st1" d="M54.5,76c-0.2,0.5-0.5,1-0.7,1.6c-2.1,4.1-4.6,7.7-6.3,9.8c-0.9,0-1.8-0.2-2.5-0.4c1.5-1.8,4.2-5.5,6.5-9.8
		c0.4-0.7,0.7-1.4,1-2.1L54.5,76C54.5,76,54.5,76,54.5,76z"/>
	<path class="st2" d="M42,75.7c-8.9,13.1,12,16.4,23,3.5L42,75.7z"/>
	<g>
		<path class="st0" d="M80.3,24.5l-16.9-0.3l-2.3,0l-1,0c-4.6,0.1-9.9-2.7-13.5-6.5c-0.6-0.6-1.1-1.3-1.6-2c-2.9-4-3.6-8.7,0-12.3
			c2.8-2.8,7.2-3.8,12.1-3.1c0.8,0.1,1.5,0.3,2.3,0.5C66.2,2.5,73.5,7.9,77.8,17c0.3,0.7,0.7,1.5,0.9,2.2
			C79.3,20.9,79.9,22.6,80.3,24.5C80.3,24.5,80.3,24.5,80.3,24.5z"/>
		<g>
			<path class="st1" d="M78.7,19.3C63.4,18.9,57.9,7.3,57,0.2c0.8,0.1,1.5,0.3,2.3,0.5C60.2,5,63.6,16.2,77.8,17
				C78.1,17.7,78.4,18.5,78.7,19.3C78.7,19.3,78.7,19.3,78.7,19.3z"/>
			<path class="st1" d="M63.6,24.9l-2.2,0.5c0-0.1-0.1-0.5-0.4-1.2c-1-2.5-4.5-7.8-14.5-6.5c-0.6-0.6-1.1-1.3-1.6-2
				c13.6-2.3,17.6,5.9,18.5,8.5C63.5,24.6,63.6,24.9,63.6,24.9C63.6,24.9,63.6,24.9,63.6,24.9z"/>
		</g>
		<path class="st2" d="M44.9,3.3c-8.1,8,5.3,21,15.1,20.8l20.3,0.3C75,1.5,53-4.6,44.9,3.3L44.9,3.3L44.9,3.3z"/>
	</g>
	<path class="st0" d="M33.5,27.3l14.9-2.2C37.6,15.4,30.9,24,33.5,27.3z"/>
	<path class="st3" d="M67.2,79.1c-1.4,0.1-2.8,0.1-4.1,0.1c-12.7,0.1-22-2.9-28.4-7.3c-0.7-0.5-1.4-1-2-1.5c-5.2-4.3-8-9.7-8.7-14.9
		C22.7,45,20.8,32.9,31,28.3c0.7-0.3,1.5-0.6,2.3-0.9c1.1-0.3,2.2-0.6,3.5-0.8c6.6-1,20-2.9,33-2.8c4.4,0,8.7,0.3,12.8,0.9h0
		c3.6,0.5,7,1.3,9.9,2.5c8.5,3.3,10.2,11.4,11,20.4C122.2,66.8,95.9,77.6,67.2,79.1L67.2,79.1z"/>
	<path class="st4" d="M47,47.3c0.9,1.6,2.2,6-1.2,9.8c-2.2,2.5-7,3.6-9.3,2.4c-2.1-1.1-2-4.2,2.4-6.1c-8.9-5.5-4-10.2,0-10.7
		C42.8,42.3,46.1,45.7,47,47.3C47,47.3,47,47.3,47,47.3z"/>
	<path class="st3" d="M47.8,51.9c-9.3,0-12.8-8.6-12.9-8.7l2.2-0.9c0.1,0.3,3.2,7.8,11.7,7.1l0.2,2.4C48.6,51.9,48.2,51.9,47.8,51.9
		L47.8,51.9L47.8,51.9z"/>
	<g>
		<path class="st0" d="M57,38.1c-2.1,0.2-4,0.3-5.7,0.3c-14.8,0-19.2-7.4-20.4-10.2c0.7-0.3,1.5-0.6,2.3-0.9
			c1,2.5,5.7,10.2,23.5,8.3L57,38.1C57,38.1,57,38.1,57,38.1z"/>
		<path class="st0" d="M55.5,67.2l-0.5,2.4c-11.8-2.7-17.9,0.5-20.2,2.3c-0.7-0.5-1.4-1-2-1.5C35.1,68.4,41.9,64.1,55.5,67.2
			L55.5,67.2z"/>
	</g>
	<path class="st2" d="M67.2,79.1c-1.4,0.1-2.8,0.1-4.1,0.1C37.3,79.4,25.6,67,24.1,55.5C22.4,43.3,20.2,29,36.7,26.7
		c6.6-1,20-2.9,33-2.8c4.4,0,8.7,0.3,12.8,0.9l0,0c3.6,0.5,7,1.4,9.9,2.5c8.5,3.3,10.2,11.4,11,20.4C122.2,66.8,95.9,77.6,67.2,79.1
		L67.2,79.1L67.2,79.1z"/>
	<path class="st1" d="M67.2,79.1c-1.4,0.1-2.8,0.1-4.1,0.1c-13.9-4.6-22.2-42,6.6-55.3c4.4,0,8.7,0.3,12.8,0.9l0,0
		c3.6,0.5,7,1.4,9.9,2.5c8.5,3.3,10.2,11.4,11,20.4C122.2,66.8,95.9,77.6,67.2,79.1L67.2,79.1L67.2,79.1z"/>
	<path class="st0" d="M97.1,73.2c-7.9,3.4-18.8,5.4-29.9,5.9c-8.5-6.2-12.9-41.6,15.3-54.4l0,0c3.6,0.5,7,1.3,9.9,2.5
		c8.5,3.3,10.2,11.4,11,20.4c2.2,2.2,3.8,4.4,4.8,6.4C112.5,62.5,107.2,68.9,97.1,73.2C97.1,73.2,97.1,73.2,97.1,73.2z"/>
	<path class="st3" d="M97.1,73.2c4-7.2,1.4-16.4,11.1-19.1C112.6,62.5,107.2,68.9,97.1,73.2z"/>
	<path d="M92.7,43.9c-0.4,3.5-3.3,5.3-5.2,3.3s-1.3-6.4,1-7.8S93.1,40.4,92.7,43.9z"/>
</g>
</svg>
