<?xml version="1.0" encoding="utf-8"?>
<!-- Generator: Adobe Illustrator 28.0.0, SVG Export Plug-In . SVG Version: 6.00 Build 0)  -->
<svg version="1.1" id="Layer_1" xmlns="http://www.w3.org/2000/svg" xmlns:xlink="http://www.w3.org/1999/xlink" x="0px" y="0px"
	 viewBox="0 0 75.5 49.3" style="enable-background:new 0 0 75.5 49.3;" xml:space="preserve">
<style type="text/css">
	.st0{fill:#B8AEFF;}
	.st1{fill:#8D7CF7;}
	.st2{fill:none;}
	.st3{fill:#5D4DC4;}
	.st4{fill:#372B8F;}
</style>
<g>
	<path class="st0" d="M15.8,23.1l-0.1,1.2l0,0.4l-0.3,2.1l-0.1,0.5l-0.2,1.3c0,0-6.8,1.6-13.3,11.4C1.3,40.8,0,40.4,0,39.4
		c0-2,0.1-3.9,0.3-5.7c0.1-1,0.2-2.1,0.4-3.1c0.8-4.9,2-9.4,3.4-13.2c0.4-1,0.7-2,1.1-2.9c1.6-4,3.3-7.1,4.5-9.1
		c0.5-0.8,1.8-0.6,1.9,0.4C12.1,10.2,13.2,18.4,15.8,23.1L15.8,23.1L15.8,23.1z"/>
	<path class="st1" d="M16.6,26.9c0,0-0.1,0-0.3,0.1h0c-0.2,0.1-0.5,0.2-1,0.3c-2.8,0.8-9.9,3.2-15,6.4c0.1-1,0.2-2.1,0.4-3.1
		c4.1-2.3,8.7-4,11.8-5c1.5-0.5,2.6-0.8,3.1-1c0.2,0,0.3-0.1,0.3-0.1c0.6-0.2,1.3,0.2,1.5,0.9C17.6,26.1,17.2,26.8,16.6,26.9z"/>
	<path class="st1" d="M20.5,26.1c0,0.7-0.5,1.2-1.2,1.2h-0.2c-1,0-1.9-0.1-2.8-0.3h0c-0.3-0.1-0.6-0.1-0.9-0.2c-1-0.3-2-0.7-2.9-1.2
		c-3.8-2-6.6-5.5-8.4-8.2c0.4-1,0.7-2,1.1-2.9c1.7,2.9,5.3,8.1,10.4,9.8c1.1,0.4,2.3,0.6,3.6,0.6C19.9,24.9,20.5,25.4,20.5,26.1z"/>
	<path class="st2" d="M15.8,23.1c-2.6-4.7-3.8-12.9-4.2-17.2c-0.1-1-1.4-1.2-1.9-0.4c-3.1,5.2-9.6,17.9-9.8,34c0,1,1.3,1.4,1.8,0.5
		c6.6-9.8,13.3-11.4,13.3-11.4L15.8,23.1L15.8,23.1L15.8,23.1z"/>
	<path class="st0" d="M55.7,6.9C48.2,16.8,39.2,24,28.4,21.2C25.3,9.7,34.9-10.8,55.7,6.9z"/>
	<path class="st1" d="M60.1,38c0,0-19.1,24-30.8,2L60.1,38z"/>
	<path class="st1" d="M50.2,12.8c-0.2,0-0.5-0.1-0.7-0.2L38.4,4.1c-0.5-0.4-0.6-1.1-0.2-1.5c0.4-0.5,1-0.6,1.5-0.2l11.2,8.5
		c0.5,0.4,0.6,1,0.2,1.5C50.9,12.7,50.5,12.8,50.2,12.8L50.2,12.8L50.2,12.8z"/>
	<path class="st1" d="M42.2,18.2c-0.2,0-0.5-0.1-0.7-0.2l-9-6.8c-0.5-0.4-0.6-1-0.2-1.5c0.4-0.5,1-0.6,1.5-0.2l9,6.8
		c0.5,0.4,0.6,1,0.2,1.5C42.9,18.1,42.6,18.2,42.2,18.2L42.2,18.2L42.2,18.2z"/>
	<path class="st3" d="M74.6,28.7C62,39.1,50.5,42.6,41,42.4c-0.9,0-1.7-0.1-2.5-0.2c-13.5-1.3-22.5-10.2-24.3-16
		c-0.5-1.5,0.5-3,2.1-3.2c10.8-1.2,19.1-5.6,25.5-9.6c0.6-0.4,1.2-0.8,1.8-1.1c5-3.2,8.7-6,11.5-6.2C56.4,6.1,58,6.8,59.7,8
		c3.2,2.3,6.7,6.3,9.7,10c2.3,2.9,4.3,5.6,5.5,7.3C75.7,26.4,75.5,27.9,74.6,28.7C74.6,28.7,74.6,28.7,74.6,28.7z"/>
	<path class="st1" d="M69.5,18c-3-3.7-6.6-7.7-9.8-10C41.4,12.9,48,34.8,69.5,18z"/>
	<path d="M55.2,21.4c2.7,1.2,5.8-0.9,5.5-3.9S57,13,54.6,14.7S52.5,20.2,55.2,21.4z"/>
	<path class="st1" d="M37,28.3c-0.2,1.4-9.9,4-11.6-1.2C23.7,21.9,37.2,26.9,37,28.3z"/>
	<path class="st4" d="M41,42.4c-0.9,0-1.7-0.1-2.5-0.2c5.8-8.3,7.6-19.4,3.2-28.7c0.6-0.4,1.2-0.8,1.8-1.1
		C48.9,21.9,47.3,33.6,41,42.4z"/>
	<path class="st2" d="M13.9,23.3C36.3,21.7,48.3,6.7,55.1,6.2c5.5-0.4,16.3,14,19.9,19.2c0.7,1,0.6,2.5-0.4,3.2
		C38.5,58.6,11.8,31.5,13.9,23.3z"/>
</g>
</svg>
