<?xml version="1.0" encoding="utf-8"?>
<!-- Generator: Adobe Illustrator 28.0.0, SVG Export Plug-In . SVG Version: 6.00 Build 0)  -->
<svg version="1.1" id="Layer_1" xmlns="http://www.w3.org/2000/svg" xmlns:xlink="http://www.w3.org/1999/xlink" x="0px" y="0px"
	 viewBox="0 0 104 101" style="enable-background:new 0 0 104 101;" xml:space="preserve">
<style type="text/css">
	.st0{fill:#5D4DC4;}
	.st1{fill:#8D7CF7;}
	.st2{fill:none;}
	.st3{fill:#B8AEFF;}
	.st4{fill:#E2DCFE;}
</style>
<g>
	<path class="st0" d="M34.4,54.5c0,0.3,0,0.6-0.1,0.9c-0.2,0.7-0.9,1.3-1.8,1.3c-0.9,0-2.1,0.2-3.5,0.4c-5.3,0.9-13.2,3.7-18.8,11.8
		C9.4,70,7.8,70.1,7,69c-1.4-1.8-3.4-4.7-4.8-8.7c-0.3-0.7-0.5-1.5-0.8-2.3c-1.1-3.6-1.7-8-1.2-12.9c0.1-0.8,0.2-1.7,0.3-2.6
		c0.3-1.9,0.8-3.8,1.4-5.8c0.5-1.5,2.5-1.9,3.4-0.6c3.4,4.3,10.8,12,21.6,14c1.6,0.3,3.4,0.5,5.2,0.5c0.8,0,1.5,0.5,1.8,1.2
		c0.1,0.2,0.1,0.4,0.2,0.6L34.4,54.5C34.4,54.5,34.4,54.5,34.4,54.5z"/>
	<g>
		<path class="st1" d="M34.3,51.6c0,0-0.2,0-0.3,0.1c-0.9,0.2-3.6,0.8-7.7,0.8c-6.2,0-15.4-1.3-26.1-7.4c0.1-0.8,0.2-1.7,0.3-2.6
			c11,6.4,20.5,7.6,26.5,7.5c4.1,0,6.5-0.7,6.6-0.7L34.3,51.6C34.3,51.6,34.3,51.6,34.3,51.6z"/>
		<path class="st1" d="M34.9,55.5l-0.5,2.4c-0.1,0-2.1-0.5-5.4-0.8c-6.2-0.6-16.8-0.7-26.9,3.2c-0.3-0.7-0.5-1.5-0.8-2.3
			c14.6-5.7,29.7-3.3,32.9-2.7C34.7,55.4,34.9,55.5,34.9,55.5C34.9,55.5,34.9,55.5,34.9,55.5z"/>
	</g>
	<path class="st2" d="M32.2,50.5C18.5,50.5,9.3,41,5.4,36c-1-1.2-3-0.9-3.5,0.6C-3.4,53.1,3.5,64.6,7,69c0.8,1.1,2.4,1,3.2-0.1
		C17.3,58.6,28,56.9,32.5,56.7c1.1-0.1,2-1.1,1.9-2.2l-0.2-2.2C34.1,51.2,33.2,50.5,32.2,50.5L32.2,50.5L32.2,50.5z"/>
	<g>
		<path class="st0" d="M85.7,72.2c-4.8,8.9-10.6,15.4-16.6,20c-1.1,0.8-2.1,1.6-3.2,2.2c-5.8,3.7-11.7,5.7-17.2,6.3
			c-1.1,0.1-2.2,0.2-3.2,0.2c-6.5,0.1-12.2-1.9-15.7-5.4c-0.6-0.6-1.1-1.2-1.6-1.9c-2-2.9-2.9-6.5-2.1-10.6
			C26.1,83.1,85.7,72.2,85.7,72.2z"/>
		<path class="st1" d="M72.1,79.7c-0.6,4.1-2,9-3,12.4c-1.1,0.8-2.1,1.6-3.2,2.2c0.8-2.7,2.9-9.8,3.8-15.1L72.1,79.7z"/>
		<path class="st1" d="M55.6,86.1c-1.2,6-4.6,11.5-6.9,14.6c-1.1,0.1-2.2,0.2-3.2,0.2c2-2.4,6.4-8.6,7.7-15.3L55.6,86.1
			C55.6,86.1,55.6,86.1,55.6,86.1z"/>
		<path class="st1" d="M39.4,87.6c-1.3,3.2-6.3,6.2-9.5,8c-0.6-0.6-1.1-1.2-1.6-1.9c3.3-1.7,7.9-4.6,8.9-7L39.4,87.6z"/>
		<path class="st2" d="M26.1,83.1c-4.3,21.7,37.7,29.6,59.6-10.9C85.7,72.2,26.1,83.1,26.1,83.1z"/>
	</g>
	<g>
		<path class="st1" d="M86.4,38.4L14.3,25.8c0,0-9.7-9.5-6.6-17.3C8.1,7.8,8.5,7,9.1,6.3c0.6-0.7,1.2-1.3,2.1-2
			c4.1-3,11.3-5.1,20.5-4c1.2,0.1,2.4,0.3,3.6,0.6c6.3,1.3,13.5,4,21.1,8.8h0c1.3,0.8,2.7,1.7,4,2.7C68.7,18.3,77.5,26.7,86.4,38.4
			L86.4,38.4z"/>
		<path class="st0" d="M64.7,25.9l-2.4,0.3c-0.7-5.8-4.5-13.6-5.9-16.5c1.3,0.8,2.7,1.7,4,2.7C62.1,16.2,64.2,21.5,64.7,25.9
			C64.7,25.9,64.7,25.9,64.7,25.9z"/>
		<g>
			<path class="st0" d="M41.4,15.1L39,15.6c0-0.1-2-9.6-7.4-15.3c1.2,0.1,2.4,0.3,3.6,0.6C39.7,6.9,41.3,14.7,41.4,15.1z"/>
			<path class="st0" d="M22,15.5L20,16.8c0-0.1-4.7-7.5-12.2-8.3C8.1,7.8,8.5,7,9.1,6.3C17.1,7.7,21.8,15.2,22,15.5z"/>
		</g>
		<path class="st2" d="M86.4,38.4c-33.1-43.3-64.6-42-75.2-34s3.1,21.5,3.1,21.5L86.4,38.4z"/>
	</g>
	<path class="st3" d="M80.2,75.7c-2.3,1.3-4.7,2.6-7.2,3.9c-4.4,2.2-9.2,4.3-14.4,6.1C50.4,88.5,43,89.1,37,87.9
		c-1.5-0.3-2.8-0.6-4.1-1.1c-14-4.9-17.5-20.1,0.2-32.7c-34.4-32.9-15.2-46,7.2-40.8l0,0c3.6,0.9,7.4,2.2,11,4
		c7.8,3.9,16,8.7,23.7,13.5c1.1,0.7,2.2,1.4,3.3,2.1l0,0c13.6,8.8,24.6,17.1,25.7,19.8C105.2,55.9,96.3,66.2,80.2,75.7z"/>
	<path class="st4" d="M80.2,75.7c-2.3,1.3-4.7,2.6-7.2,3.9c-11.7-29.2,1.8-48.7,1.8-48.7c1.1,0.7,2.2,1.4,3.3,2.1l0,0
		C70.5,47,77.3,68.1,80.2,75.7C80.2,75.7,80.2,75.7,80.2,75.7z"/>
	<path class="st4" d="M37,87.9c-1.5-0.3-2.8-0.6-4.1-1.1c22.7-40.6,9.9-66.2,7.4-73.5c3.6,0.8,7.4,2.2,11,4
		C61,39.1,50.3,75.5,37,87.9z"/>
	<path d="M90.5,51.7c-0.8,3.5-3.8,5.2-5.4,3s-0.6-6.6,1.8-7.9S91.3,48.2,90.5,51.7C90.5,51.7,90.5,51.7,90.5,51.7z"/>
</g>
</svg>
