<?xml version="1.0" encoding="utf-8"?>
<!-- Generator: Adobe Illustrator 28.0.0, SVG Export Plug-In . SVG Version: 6.00 Build 0)  -->
<svg version="1.1" id="Layer_1" xmlns="http://www.w3.org/2000/svg" xmlns:xlink="http://www.w3.org/1999/xlink" x="0px" y="0px"
	 viewBox="0 0 114.6 91.8" style="enable-background:new 0 0 114.6 91.8;" xml:space="preserve">
<style type="text/css">
	.st0{fill:#372B8F;}
	.st1{fill:#5D4DC4;}
	.st2{fill:none;}
	.st3{fill:#8D7CF7;}
	.st4{fill:#B8AEFF;}
</style>
<g>
	<path class="st0" d="M84.5,77.3c-9.2,10.7-18.3,15-24.2,14.4c-0.3,0-0.5-0.1-0.8-0.1c-1-0.2-1.9-0.5-2.7-0.9
		c-5.4-2.7-7-10.1-4-15.2l14.6,0.8l2.5,0.1L84.5,77.3C84.5,77.3,84.5,77.3,84.5,77.3z"/>
	<path class="st1" d="M70,75.8c-0.1,0.2-0.1,0.5-0.2,0.7c-1.9,7.1-7.4,12.6-10.3,15.1c-1-0.2-1.9-0.5-2.7-0.9
		c2-1.6,8.4-7.1,10.6-14.3c0.1-0.4,0.2-0.8,0.3-1.1L70,75.8L70,75.8z"/>
	<path class="st2" d="M52.8,75.6c-3.6,6.1-0.7,15.3,7.5,16.2c5.9,0.6,15-3.7,24.2-14.4L52.8,75.6L52.8,75.6L52.8,75.6z"/>
	<g>
		<path class="st1" d="M27.1,57.4c-0.1,0.9-0.1,1.8-0.3,2.6c-0.9,6.9-3.7,13.5-9.4,15.7c-0.8,0.3-1.6,0.5-2.4,0.6
			c-0.8,0.1-1.6,0-2.4-0.2C6.5,74.8,3,66.1,17.1,52.4c-1.2-0.2-2.4-0.4-3.4-0.7c-0.9-0.2-1.8-0.5-2.6-0.9
			C0.5,46.8-2.5,36.1,2.1,30.2c0.5-0.6,1.1-1.2,1.7-1.7c1.3-1,2.9-1.7,4.8-2.1c8.7-1.8,13.6,5.1,16.1,12.8c0.3,0.8,0.5,1.6,0.7,2.4
			c0.3,1,0.5,2,0.7,2.9c0.2,0.8,0.3,1.6,0.4,2.4c0.3,1.8,0.5,3.6,0.6,5C27.2,53.6,27.2,55.5,27.1,57.4
			C27.1,57.4,27.1,57.4,27.1,57.4z"/>
		<g>
			<path class="st3" d="M25.4,41.5c-0.8,0.1-1.6,0.1-2.4,0.1c-11.1,0-18.4-8-21-11.4c0.5-0.6,1.1-1.2,1.7-1.7
				c2.3,3,9.8,11.5,20.9,10.7C25,39.9,25.2,40.7,25.4,41.5L25.4,41.5z"/>
			<path class="st3" d="M26.5,46.8c-2.4,0.2-8.5,1.2-12.9,5c-0.9-0.2-1.8-0.5-2.6-0.9c4.9-4.9,12.1-6.2,15.1-6.5
				C26.3,45.2,26.4,46,26.5,46.8C26.5,46.8,26.5,46.8,26.5,46.8z"/>
			<path class="st3" d="M27.1,57.4c-0.1,0.9-0.1,1.8-0.3,2.6C16.9,63.4,15.3,73.2,15,76.3c-0.8,0.1-1.6,0-2.4-0.2
				C13,72.5,15,60.8,27.1,57.4z"/>
		</g>
		<path class="st2" d="M27.1,51.9c-0.5-9.2-4.7-28.4-18.5-25.5c-13.8,2.8-10.9,23.8,8.5,26.1c-17.6,17.1-7.7,26.5,0.3,23.4
			S27.6,61.1,27.1,51.9L27.1,51.9L27.1,51.9z"/>
	</g>
	<path class="st1" d="M94.5,30.7l-53.9,0.5c-7.1-11.2-6.5-20.5-1.5-25.9c0.7-0.8,1.6-1.5,2.5-2.1C45,0.8,49.7-0.3,55,0.1
		c0.8,0.1,1.7,0.2,2.5,0.3c4.7,0.8,9.8,2.8,14.9,6.1h0c0.7,0.5,1.5,1,2.2,1.5C81.5,13,88.4,20.4,94.5,30.7z"/>
	<g>
		<path class="st3" d="M67.9,18.2L66.2,20c-0.4-0.4-9-8.5-11.2-19.9c0.8,0.1,1.7,0.2,2.5,0.3C59.8,10.6,67.8,18.1,67.9,18.2z"/>
		<path class="st3" d="M49.9,25L48,26.6c-0.4-0.5-8.6-10.4-8.9-21.3c0.7-0.8,1.6-1.5,2.5-2.1C40.8,14,49.8,24.9,49.9,25
			C49.9,25,49.9,25,49.9,25z"/>
		<path class="st3" d="M75.9,20l-2.3,0.6c-0.1-0.4-2.2-8.3-1.1-14.1h0c0.7,0.5,1.5,1,2.2,1.5C74.1,13.2,75.9,19.9,75.9,20z"/>
	</g>
	<path class="st2" d="M40.6,31.2l53.9-0.5C65.8-17.9,19.6-1.9,40.6,31.2z"/>
	<path class="st3" d="M114.6,50.6C101.7,69.1,88.5,78,75.5,79.7c-5,0.6-10,0.2-14.9-1.2l0,0c-7.8-2.2-15.4-6.7-22.8-12.9
		c0,0,0,0,0,0c-4.1-3.5-8.2-7.6-12.1-12.1c-0.7-0.8-0.8-2.1-0.2-3c3.9-5.9,7.8-11.1,11.5-15.5C44,27,50.6,21.5,57.1,18.6
		c6.5-2.9,12.8-3.2,19-1c4.2,1.5,8.3,4.1,12.5,7.8c0.5,0.5,1,0.9,1.5,1.4c4.3,3.9,8,7.2,11,10.1C111.5,46.6,114.6,50.6,114.6,50.6
		L114.6,50.6L114.6,50.6z"/>
	<path class="st1" d="M75.5,79.7c-5,0.6-10,0.2-14.9-1.2l0,0c-21-34.1-3.5-59.9-3.5-59.9c6.5-2.9,12.8-3.2,19-1
		C51.7,46,75.5,79.7,75.5,79.7L75.5,79.7z"/>
	<path class="st4" d="M37.8,65.6c-4.1-3.5-8.2-7.6-12.1-12.1c-0.7-0.8-0.8-2.1-0.2-3c3.9-5.9,7.8-11.1,11.5-15.5
		C31.2,52,37.6,65,37.8,65.6z"/>
	<path class="st4" d="M99.1,46.5c-5.4,9.9-17.5,11.3-21.8,2.5c-4.3-8.8,2.4-21.1,12.1-22.2c0.2,0,0.5,0,0.7-0.1
		c4.3,3.9,8,7.2,11,10.1C101.5,39.8,100.9,43.2,99.1,46.5C99.1,46.5,99.1,46.5,99.1,46.5z"/>
	<g>
		<path class="st4" d="M59.5,50.1c0,0.7-0.2,1.3-0.7,1.8c-8.8,7.4-14.4,4.4-15.5-1.1c-0.1-0.6-0.2-1.2-0.2-1.9
			c0-0.8,0.1-1.5,0.2-2.3c0.7-4.3,3.5-8.1,5.2-7.8c1.9,0.4,7.8,4.4,10,6c0.5,0.4,0.9,1,0.9,1.6l0,0.8l0.1,2.3
			C59.5,49.7,59.5,50.1,59.5,50.1z"/>
		<path class="st3" d="M59.5,49.7c-2.2,0.9-4.4,1.2-6.6,1.2c-4.2,0-8-1.2-9.9-1.9c0-0.8,0.1-1.5,0.2-2.3c2.2,0.9,9.9,3.6,16.1,0.7
			L59.5,49.7C59.5,49.7,59.5,49.7,59.5,49.7z"/>
		<path class="st2" d="M59.3,46.5l0.2,3.6c0,0.7-0.2,1.3-0.7,1.8c-8.8,7.4-14.4,4.4-15.5-1.1c-1.2-5.6,2.9-12.4,5.2-11.9
			c1.9,0.4,7.8,4.5,10,6C59,45.3,59.3,45.9,59.3,46.5L59.3,46.5L59.3,46.5z"/>
	</g>
	<path d="M90.7,42.9c-1,4-4.6,5.8-6.6,3.2s-0.8-7.6,2.2-9C89.2,35.7,91.6,38.9,90.7,42.9C90.7,42.9,90.7,42.9,90.7,42.9z"/>
</g>
</svg>
