<?xml version="1.0" encoding="utf-8"?>
<!-- Generator: Adobe Illustrator 28.0.0, SVG Export Plug-In . SVG Version: 6.00 Build 0)  -->
<svg version="1.1" id="Layer_1" xmlns="http://www.w3.org/2000/svg" xmlns:xlink="http://www.w3.org/1999/xlink" x="0px" y="0px"
	 viewBox="0 0 187.6 128.3" style="enable-background:new 0 0 187.6 128.3;" xml:space="preserve">
<style type="text/css">
	.st0{fill:#B8AEFF;}
	.st1{fill:#8D7CF7;}
	.st2{fill:#E2DCFE;}
	.st3{fill:#5D4DC4;}
	.st4{fill:#FFFFFF;}
	.st5{fill:#FEFEFE;}
</style>
<g>
	<g>
		<path class="st0" d="M35.5,33.6c-0.3,4.7-1.3,8.8-2.5,11.3c-0.8,1.5-1.5,2.9-2.3,4.2c-7.2,11.7-15.6,13.4-20.1,10.9
			c-5-2.8-5.1-10.8,6.8-16C-7.8,37.4-1.7,13.6,11,7.4h0c3-1.5,6.4-1.9,9.8-1c3.6,1.1,6.4,2.9,8.6,5.3C34.6,17.5,36,26.3,35.5,33.6
			L35.5,33.6L35.5,33.6z"/>
		<path class="st1" d="M35.5,33.6c0,0-14.9-7.5-6-21.9C34.6,17.5,36,26.3,35.5,33.6z"/>
		<path class="st1" d="M33,45c-0.8,1.5-1.5,2.9-2.3,4.2c-10.1-1.9-20.1,10.9-20.1,10.9c-5-2.8-5.1-10.8,6.8-16
			C-7.8,37.4-1.7,13.6,11,7.4h0C6.9,36.5,33,45,33,45L33,45L33,45z"/>
	</g>
	<g>
		<path class="st0" d="M148.8,35.3c-10.9,4.3-20.2,7.2-29.1,8.8c-7.1,1.2-14,1.6-21.3,1.2c-4.4-0.2-8.9-0.8-13.8-1.6
			c-3.3-0.5-6.8-1.2-10.5-2c-4.1-3.6-5.2-7.1-4.3-9.5c1.5-4.5,9.3-5.8,16.9,0.4c-2-5.2-2.9-9.7-3.1-13.7C83.3,7.6,89.8,1.2,99.1,0.1
			c4.3-0.5,9.3,0.2,14.4,2.1c9.6,3.5,20.1,11.1,29,23.3C144.7,28.5,146.8,31.8,148.8,35.3C148.8,35.3,148.8,35.3,148.8,35.3z"/>
		<path class="st2" d="M84.6,43.7c-3.3-0.5-6.8-1.2-10.5-2c-4.1-3.6-5.2-7.1-4.3-9.5l0,0C84,33.5,84.6,43.7,84.6,43.7L84.6,43.7
			L84.6,43.7z"/>
		<path class="st2" d="M120,43.7l-0.3,0.4c-7.1,1.2-14,1.6-21.3,1.2c0-2,0-20.8-14.8-26.4C83.3,7.6,89.8,1.2,99.1,0.1h0
			C92.6,27.8,120,43.7,120,43.7L120,43.7z"/>
		<path class="st2" d="M142.5,25.5c0,0-31.9,3-29-23.3l0,0C123.2,5.7,133.7,13.4,142.5,25.5z"/>
	</g>
	<path class="st0" d="M65.3,41.5c-7.4,0.7-12.4,0.4-18.5-0.7c-2.5-0.4-5.1-1-8.2-1.6c0,0,6.6-7.4,14.3-7.1
		C57.1,32.2,61.5,34.6,65.3,41.5L65.3,41.5z"/>
	<path class="st2" d="M53,32.1l-6.1,8.7c-2.5-0.4-5.1-1-8.2-1.6C38.7,39.2,45.3,31.8,53,32.1C53,32.1,53,32.1,53,32.1z"/>
	<g>
		<path class="st0" d="M124.5,127.4c-5.2,1.7-10.9,0.7-15.3-3.1c-2.2-1.9-4.1-4.4-5.4-7.7c-5.8,7-12.1,8.6-16.9,7
			c-4.6-1.6-7.7-6.1-7.2-11.6l14.7-3.7l24.5-6.1l11.3-2.8l7.9-2C140.7,114.3,133.3,124.6,124.5,127.4
			C124.5,127.4,124.5,127.4,124.5,127.4z"/>
		<path class="st1" d="M124.5,127.4c-5.2,1.7-10.9,0.7-15.3-3.1c0,0,8.4-6.7,7.3-19.1l2.4-2.9l11.3-2.8l0.9,3.1
			C131.6,117.1,124.5,127.4,124.5,127.4z"/>
		<path class="st1" d="M94.5,108.4c-0.3,11.4-7.5,15.3-7.5,15.3c-4.6-1.6-7.7-6.1-7.2-11.6C79.8,112,94.5,108.4,94.5,108.4z"/>
	</g>
	<g>
		<path class="st0" d="M73.8,109.6c-6.9,1.3-19.5,2.1-27.5-5.6c-3.2-3-5.6-7.4-6.6-13.5c-0.9-4.9-0.8-10.9,0.4-18.4L52,85.3l8.7,9.7
			L73.8,109.6L73.8,109.6z"/>
		<path class="st1" d="M60.7,95c-4.2,8-14.4,9-14.4,9c-3.2-3-5.6-7.4-6.6-13.5c0.4,0.1,8.9,0.9,12.3-5.1C52,85.3,60.7,95,60.7,95z"
			/>
	</g>
	<path class="st1" d="M187.3,41.5c-24.4,36.3-45.8,56.2-64.2,65.8l0,0c-4.3,2.3-8.5,3.9-12.5,5.1c-21.6,6.4-38.2-1.6-49.7-11.5
		c-5.9-5.1-10.7-10.9-14.6-17c-3.9-6.2-6.8-12.7-8.9-18.9c-2-5.9-3.2-11.5-3.9-16.5c-0.4-2.8-0.6-5.5-0.6-7.8c0-1.2,1.1-2.2,2.3-2
		c7.4,1.1,15,1.9,22.5,2.4c3.2,0.2,6.5,0.4,9.7,0.5c8.8,0.3,17.4,0.2,25.7-0.1c3.6-0.1,7.2-0.3,10.6-0.5h0
		c7.3-0.5,14.3-1.1,20.8-1.9c2.9-0.3,5.7-0.7,8.4-1.1c2.6-0.4,5.2-0.8,7.5-1.2c24.6-4.3,37.2-4.7,46.4,2.1
		C187.7,39.4,187.9,40.6,187.3,41.5L187.3,41.5z"/>
	<path class="st3" d="M123.1,107.3L123.1,107.3c-4.3,2.3-8.5,3.9-12.5,5.1L124.5,39l0,0c2.9-0.4,5.7-0.7,8.4-1.1
		C133.7,64.4,123.1,107.3,123.1,107.3z"/>
	<path class="st3" d="M67.4,41.5C58,62,37.4,65,37.4,65c-2-5.9-3.2-11.5-3.9-16.5c0,0,14.7,3.3,24.2-7.4
		C61,41.3,64.2,41.4,67.4,41.5C67.4,41.5,67.4,41.5,67.4,41.5z"/>
	<path class="st3" d="M103.8,40.9c-20.1,11-12.1,58.2-42.9,60c-5.9-5.1-10.7-10.9-14.6-17c34.6-2.1,32.6-32.2,46.8-42.4
		C96.8,41.3,100.3,41.2,103.8,40.9C103.8,40.9,103.8,40.9,103.8,40.9z"/>
	<g>
		<path class="st2" d="M111.4,73.5c-1,5.6-5.3,11-13.4,12c-6.7,0.8-9.6-2.7-9.7-6.2c0-1.9,0.8-3.8,2.3-5.1c-1.7-1-2.9-2.2-3.7-3.4
			c-3.3-4.7-0.1-9.9,6.6-10.4c8.8-0.7,17.2,4.1,17.8,8.5C111.7,70.3,111.7,71.9,111.4,73.5C111.4,73.5,111.4,73.5,111.4,73.5z"/>
		<path class="st0" d="M111.4,68.8c-8.9,5.3-14.6-10.2-24.5,1.9c-3.3-4.7-0.1-9.9,6.6-10.4C102.4,59.6,110.8,64.4,111.4,68.8z"/>
		<path class="st0" d="M111.4,73.5c-1,5.6-5.3,11-13.4,12c-6.7,0.8-9.6-2.7-9.7-6.2l0,0C88.3,79.2,100.5,83,111.4,73.5
			C111.4,73.5,111.4,73.5,111.4,73.5z"/>
	</g>
	<path class="st4" d="M157,63.1c-2.6,1.5-6.1,1.8-9.6,0.3c-7.6-3.2-9.3-12.4-3.1-16.6c4.1-2.8,9.7-2,13.4,1c0,0,0,0,0,0
		c1.9,1.5,3.2,3.6,3.7,6.1C162.2,57.9,160.2,61.3,157,63.1L157,63.1z"/>
	<path d="M157,63.1c-1.5,0.6-3.3,0.6-5-0.2c-5.4-2.4-6.6-10.3-2.3-14.2c2.4-2.2,5.5-2.2,8-0.8c0,0,0,0,0,0c1.9,1.5,3.2,3.6,3.7,6.1
		C162.2,57.9,160.2,61.3,157,63.1L157,63.1z"/>
	<path d="M136.6,67.5c4.3,8.2,11.9,5.1,14.6,3.6c0.4-0.2,0.4-0.9,0-1.1c-5.6-2.6-9.3-3.4-14.1-3.4C136.7,66.6,136.4,67.1,136.6,67.5
		L136.6,67.5L136.6,67.5z"/>
	<path class="st5" d="M147.4,54.7c-2.8-1.2-3.5-4.2-1.4-5.4s5.6,0.3,6.2,2.7S150.2,55.9,147.4,54.7L147.4,54.7L147.4,54.7z"/>
	<path class="st3" d="M138.2,97.5c-10.9,10.5-25.8,17.9-41.2,18.8c-15.7,0.9-31-6.8-41.3-18.2c-7-7.5-12.1-16.5-15.6-26
		c4.5,8.9,10.2,17.3,17.4,24.3c14.2,14.3,34.5,19.9,53.9,14.1C121,107.8,129.6,102.5,138.2,97.5C138.2,97.5,138.2,97.5,138.2,97.5z"
		/>
</g>
</svg>
