<?xml version="1.0" encoding="utf-8"?>
<!-- Generator: Adobe Illustrator 28.0.0, SVG Export Plug-In . SVG Version: 6.00 Build 0)  -->
<svg version="1.1" id="Layer_1" xmlns="http://www.w3.org/2000/svg" xmlns:xlink="http://www.w3.org/1999/xlink" x="0px" y="0px"
	 viewBox="0 0 116.3 93.8" style="enable-background:new 0 0 116.3 93.8;" xml:space="preserve">
<style type="text/css">
	.st0{fill:#5D4DC4;}
	.st1{fill:#8D7CF7;}
	.st2{fill:none;}
	.st3{fill:#B8AEFF;}
	.st4{fill:#FFFFFF;}
</style>
<g>
	<g>
		<path class="st0" d="M91.2,79c-6,7.4-15.2,12.2-24.6,14c-1.1,0.2-2.1,0.4-3.2,0.5c-6.1,0.7-12.1,0.1-17.2-2h0
			c-1-0.4-1.9-0.8-2.8-1.4c-4.2-2.3-7.5-5.9-9.4-10.7l20.2-0.2h1l17.1-0.1h1L91.2,79C91.2,79,91.2,79,91.2,79z"/>
		<path class="st1" d="M74.5,79.4c-1.6,5.8-5.2,10.7-7.8,13.6c-1.1,0.2-2.1,0.4-3.2,0.5c2.2-2.2,7-7.7,9-14.4c0-0.1,0.1-0.2,0.1-0.3
			l0.9,0.3h0L74.5,79.4z"/>
		<path class="st1" d="M56.4,79.5c-1.7,7.9-6.6,10.9-10.1,12h0c-1-0.4-1.9-0.8-2.8-1.4c2.4-0.3,8.8-2,10.8-10.8c0-0.1,0-0.1,0.1-0.2
			l1,0.2L56.4,79.5z"/>
		<path class="st2" d="M34.1,79.4C42.3,100,76.5,97.1,91.2,79C91.2,79,34.1,79.4,34.1,79.4z"/>
	</g>
	<path class="st0" d="M108.1,33l-77.3,7.2c-4.4-9.3-5.8-16.7-5.3-22.4c0.1-0.7,0.2-1.5,0.3-2.1c0.9-4.5,3.2-7.8,6.2-10
		c2.3-1.7,5-2.9,8-3.7c0.7-0.2,1.4-0.4,2.2-0.5C47.8,0.1,53.8,0,59,0c0.4,0,0.7,0,1.1,0c1,0,1.9,0,2.9,0.1c5.1,0.2,10,0.6,14.5,1.6
		c1.1,0.2,2.2,0.5,3.3,0.9C92.1,6.1,101.5,14.2,108.1,33L108.1,33z"/>
	<g>
		<path class="st1" d="M86.5,17.6l-2,0.2c0-0.1-1.1-9.4-7.1-16c1.1,0.2,2.2,0.5,3.3,0.9C85.6,9.3,86.4,17.2,86.5,17.6
			C86.5,17.6,86.5,17.6,86.5,17.6z"/>
		<path class="st1" d="M67.8,15.1h-2C65.8,15,65.7,5,60,0c1,0,1.9,0,2.9,0.1C67.7,5.8,67.8,14.7,67.8,15.1z"/>
		<path class="st1" d="M47.6,15l-2,0.3c0-0.1-1.2-8.7-5.6-13.3c0.7-0.2,1.4-0.4,2.2-0.5C46.4,6.5,47.6,14.6,47.6,15z"/>
		<path class="st1" d="M37.1,22.6l-1,1.7l-10.5-6.5c0.1-0.7,0.2-1.5,0.3-2.1C25.9,15.7,37.1,22.6,37.1,22.6z"/>
	</g>
	<path class="st2" d="M59,0c-8.7-0.1-19.8,0.4-26.8,5.6c-7.1,5.2-10,16.2-1.3,34.5l77.3-7.2C97.6,3.1,80.1,0.3,59,0L59,0L59,0z"/>
	<g>
		<path class="st0" d="M31.5,66.4c0,0-3.4,1.5-8.7,5.6h0c-1.7,1.3-3.5,2.8-5.5,4.7c-6.4,5.9-11.8,8.2-14.9-1.4
			c-0.9-2.8-1.6-6.6-2.1-11.6c0-0.5-0.1-1.1-0.1-1.6c-0.5-6.9,0.4-13,1.9-17.6c2.7-8.4,7.5-11.7,9.7-5c2.7,8.1,9.3,16.7,14.8,19.4h0
			c1.7,0.8,3.2,1.1,4.6,0.6l0.1,2.6L31.5,66.4C31.5,66.4,31.5,66.4,31.5,66.4z"/>
		<path class="st1" d="M26.5,58.9C26,58.9,9,58.7,2,44.5c2.7-8.4,7.5-11.7,9.7-5C14.3,47.6,21,56.2,26.5,58.9z"/>
		<path class="st1" d="M31.5,66.4c0,0-3.4,1.5-8.7,5.6h0c-11-4.5-20.4,3.3-20.4,3.3c-0.9-2.8-1.6-6.6-2.1-11.6
			c0-0.5-0.1-1.1-0.1-1.6c1.6,0.3,18,3.6,31.1,0C31.2,62.1,31.5,66.4,31.5,66.4z"/>
	</g>
	<path class="st1" d="M94.9,77.9c-1.7,0.5-3.4,1-5.2,1.4c-5.9,1.4-12.7,2.5-20.9,2.8c-1.9,0.1-3.8,0.1-5.9,0.1h0
		c-7.3,0-15.7-0.5-25.4-1.6c-3.2-0.4-5.8-3-6-6.3c-0.1-2.3-0.3-5.1-0.4-8.3c0-0.8-0.1-1.6-0.1-2.4c-0.2-6.5-0.4-14.1-0.2-21.2
		c0-0.8,0-1.5,0.1-2.2c0.1-3,0.3-6,0.6-8.6c0.1-1,0.2-1.9,0.4-2.8c0,0,0,0,0,0c2.7-17.3,15-17.6,40.8-15.2
		c7.4,0.7,13.3,1.8,18.2,3.7c11.9,4.5,17.4,13.3,23.8,30.6C120.1,62.6,112.3,72.5,94.9,77.9C94.9,77.9,94.9,77.9,94.9,77.9z"/>
	<path class="st3" d="M94.9,77.9c-1.7,0.5-3.4,1-5.2,1.4c0,0-19.5-29.6,1.2-62.1h0c11.9,4.5,17.4,13.3,23.8,30.6
		C120.1,62.6,112.3,72.5,94.9,77.9z"/>
	<path class="st3" d="M72.7,54.2c0.8,5.5-19.3,6.7-19,0C53.9,47.4,72,48.7,72.7,54.2z"/>
	<rect x="52.4" y="53" transform="matrix(0.9512 -0.3087 0.3087 0.9512 -13.5953 21.927)" class="st1" width="20.3" height="2"/>
	<path class="st2" d="M72.7,54.2c0.8,5.5-19.3,6.7-19,0C53.9,47.4,72,48.7,72.7,54.2z"/>
	<g>
		<path class="st4" d="M101.3,54.6c-1.4,0.4-3.1,0.4-4.7-0.2c-5.5-1.9-7-8.8-2.7-12.3c3.4-2.7,8.3-1.9,10.9,1.2c1.1,1.4,1.2,1.4,0,0
			c0.7,0.9,1.3,2,1.5,3.2C107.2,50.3,104.7,53.6,101.3,54.6L101.3,54.6z"/>
		<path d="M101.3,54.6c-1.1,0-2.1-0.3-3.1-1.1c-3.3-2.8-2.7-8.8,1.1-10.8c2-1.1,4-0.6,5.5,0.7c1,0.9,1,0.9,0,0
			c0.7,0.9,1.3,2,1.5,3.2C107.2,50.3,104.7,53.6,101.3,54.6L101.3,54.6L101.3,54.6z"/>
	</g>
	<path class="st4" d="M89.9,58.8c2.9,6.3,9.4,4.4,11.8,3.5c0.4-0.2,0.5-0.7,0.1-0.9c-3.4-2.5-7.1-1-11.1-3.3
		C90.1,57.8,89.6,58.3,89.9,58.8z"/>
	<g>
		<path class="st3" d="M84.7,59.6c-0.2,0.1-15.2,10-34.5,10c-6.1,0-12.6-1-19.2-3.5c0-0.8-0.1-1.6-0.1-2.4
			c26.9,11,52.3-5.7,52.6-5.9L84.7,59.6z"/>
		<path class="st3" d="M87.1,67.7c-4.4,6.8-12.4,11.6-18.4,14.5c-1.9,0.1-3.8,0.1-5.9,0.1C68,80.3,79.7,75,85.2,66.5L87.1,67.7
			C87.1,67.7,87.1,67.7,87.1,67.7z"/>
		<path class="st3" d="M85.3,37.5c-7.8,5.7-16.7,7.3-25.1,7.3c-6,0-11.9-0.8-16.9-1.5c-5.1-0.7-9.7-1.4-12.5-0.8
			c0-0.8,0-1.5,0.1-2.2c3.2-0.5,7.5,0.2,12.7,0.9C55.2,42.7,71.3,45,84,35.7L85.3,37.5L85.3,37.5z"/>
		<path class="st3" d="M87.1,30.6C82,33.1,77.2,34,72.7,34c-6.1,0-11.6-1.6-16.7-3.1c-8.7-2.6-16.3-4.8-24.5,0.8
			c0.1-1,0.2-1.9,0.4-2.8c0,0,0,0,0,0c8.5-4.9,16.4-2.5,24.8,0c9,2.6,18.2,5.4,29.6-0.1L87.1,30.6L87.1,30.6z"/>
	</g>
	<path class="st2" d="M94.9,77.9c-1.7,0.5-3.4,1-5.2,1.4c-12.1,3-27.9,4.2-52.2,1.3c-3.2-0.4-5.8-3-6-6.3
		c-0.6-10.3-1.6-32.6,0.4-45.6c2.6-17.4,15-17.6,40.8-15.2c7.4,0.7,13.3,1.8,18.2,3.7c11.9,4.5,17.4,13.3,23.8,30.6
		C120.1,62.6,112.3,72.5,94.9,77.9L94.9,77.9z"/>
</g>
</svg>
