<?xml version="1.0" encoding="utf-8"?>
<!-- Generator: Adobe Illustrator 28.0.0, SVG Export Plug-In . SVG Version: 6.00 Build 0)  -->
<svg version="1.1" id="Layer_1" xmlns="http://www.w3.org/2000/svg" xmlns:xlink="http://www.w3.org/1999/xlink" x="0px" y="0px"
	 viewBox="0 0 130.9 99.5" style="enable-background:new 0 0 130.9 99.5;" xml:space="preserve">
<style type="text/css">
	.st0{fill:#5D4DC4;}
	.st1{fill:#8D7CF7;}
	.st2{fill:none;}
	.st3{fill:#B8AEFF;}
	.st4{fill:#FFFFFF;}
	.st5{fill:#E2DCFE;}
</style>
<g>
	<path class="st0" d="M96.6,36.2c-0.3-0.1-4.9-2-11.6-4.3c-0.5-0.2-1-0.4-1.6-0.5c-7.4-2.5-16.8-5.6-25.7-7.6
		c-0.5-0.1-1-0.2-1.5-0.4c-6.5-1.4-12.5-2.2-17-1.9c-1.3-2,2.8-11.3,13.6-16.3c0.9-0.4,1.8-0.8,2.7-1.1c2.6-0.9,5.6-1.6,9-1.9
		l4.5,10.3C68.5,8.9,68.6,4.9,68.9,2c3.3,0,6.9,0.4,10.9,1.3c0.8,0.2,1.7,0.4,2.6,0.6c2.6,0.7,5.3,1.6,8.2,2.6
		C90.5,6.6,91,21.7,96.6,36.2C96.6,36.2,96.6,36.2,96.6,36.2z"/>
	<g>
		<path class="st1" d="M86.3,31.5L85,31.9l-1.3,0.4c0-0.1-0.1-0.4-0.3-0.9c-1.1-3.8-4.9-18.2-3.8-28c0.8,0.2,1.7,0.4,2.6,0.6
			C81.2,14.6,86.3,31.3,86.3,31.5C86.3,31.5,86.3,31.5,86.3,31.5z"/>
		<path class="st1" d="M59.1,23.3l-2.5,0.8c0-0.1-0.1-0.3-0.2-0.8c-0.8-2.7-3.5-11.8-3.4-18.2c0.9-0.4,1.8-0.8,2.7-1.1
			C55,10.8,59.1,23.2,59.1,23.3z"/>
	</g>
	<path class="st2" d="M96.7,36.2c0,0-40.2-16-57.3-14.7C37.7,18.9,45,3.9,64.6,2.2l4.5,10.3C68.5,8.9,68.6,4.9,68.9,2
		C75,2.1,82.2,3.4,90.6,6.6C90.6,6.6,91,21.7,96.7,36.2L96.7,36.2L96.7,36.2z"/>
	<path class="st0" d="M25.4,50l0,0.2l-0.3,2.7L24.8,55l-0.3,2.7l-0.1,1.5c0,0-11.2,5.9-17.5,21.6c-0.3,0.7-1.3,0.8-1.6,0.1
		C4.1,78.6,2.1,74.1,1,68.1c-0.2-1.1-0.4-2.2-0.5-3.3c-0.9-6.8-0.6-15.1,2.8-24c0.3-0.9,0.7-1.8,1.1-2.8c1.8-4,4.2-8.1,7.3-12.3
		c0.5-0.6,1.5-0.4,1.6,0.4C13.8,30.5,16.1,40.5,25.4,50C25.4,50,25.4,50,25.4,50z"/>
	<g>
		<path class="st1" d="M26.9,50.4L26.4,53c-0.5-0.1-0.9-0.2-1.4-0.2c-11.3-2.2-18.5-8.4-21.9-12c0.3-0.9,0.7-1.8,1.1-2.8
			c2.6,3,9.6,9.8,21,12.2C25.8,50.2,26.3,50.3,26.9,50.4L26.9,50.4z"/>
		<path class="st1" d="M25.9,55.1l-0.2,2.7c-0.4,0-0.8,0-1.2,0C11.8,57.4,3.4,65.4,1,68.1c-0.2-1.1-0.4-2.2-0.5-3.3
			c3.8-3.8,12.2-10.2,24.4-9.8C25.2,55,25.6,55.1,25.9,55.1C25.9,55.1,25.9,55.1,25.9,55.1z"/>
	</g>
	<path class="st2" d="M25.4,50c-9.3-9.4-11.5-19.5-12.1-23.9c-0.1-0.8-1.1-1.1-1.6-0.4C-7.5,50.8,2,74.4,5.3,80.9
		c0.3,0.7,1.3,0.6,1.6-0.1C13.2,65,24.4,59.2,24.4,59.2L25.4,50L25.4,50L25.4,50z"/>
	<path class="st1" d="M71.6,28.2c-0.2-0.6-3.8-15.7-3.9-28.1l2.7,0c0.1,12.2,3.8,27.4,3.8,27.5L71.6,28.2L71.6,28.2z"/>
	<path class="st0" d="M108.8,45.3c-4.6-25.7-11.1-35.7-11.5-26.2s3,19.8,3,19.8S104.4,44,108.8,45.3z"/>
	<path class="st0" d="M49.6,88c-9,8.5,5,22.5,30.6-3.1L49.6,88z"/>
	<path class="st1" d="M130.9,60.3c0.1,3.9-16.4,9.5-38.1,18.9c-4.1,1.8-8.3,3.7-12.6,5.7c-1.4,0.6-2.7,1.2-4.1,1.7h0
		c-11,4.2-20.7,3.7-28.7,0.6h0C33.1,81.7,24.2,68,23.1,57.9c-1.4-14,9.3-33.7,21.5-40.2c2-1.1,4-1.8,6.1-2c0.9-0.1,1.9-0.1,2.8-0.1
		c4.5,0.1,9.7,1.7,15.2,4c3.4,1.5,6.9,3.3,10.4,5.3c4.5,2.5,9,5.4,13.2,8.3c4.3,3,8.3,6,11.6,8.6C119.4,54,130.8,55.7,130.9,60.3
		L130.9,60.3L130.9,60.3z"/>
	<path class="st3" d="M92.9,79.2c-4.1,1.8-8.3,3.7-12.6,5.7c-1.4,0.6-2.7,1.2-4.1,1.7h0C57.5,68.7,79.4,60.4,79.6,56
		C79.7,52,69,35.1,79.3,24.9c4.5,2.5,9,5.4,13.2,8.3C79.9,55.4,92.9,79.2,92.9,79.2C92.9,79.2,92.9,79.2,92.9,79.2z"/>
	<path class="st4" d="M107.9,59.3c-0.9,0.7-2.1,1.1-3.4,1.2c-4.8,0.2-8.1-4.9-5.8-9.2c2-3.8,6.8-4.4,9.8-1.8
		c0.4,0.4,0.8,0.8,1.1,1.3C111.5,53.8,110.5,57.5,107.9,59.3L107.9,59.3z"/>
	<path class="st3" d="M47.5,87.2L47.5,87.2C33.1,81.7,24.2,68,23.1,57.9c-1.4-14,9.3-33.7,21.5-40.2h0
		C29.5,41.8,34.1,74.9,47.5,87.2L47.5,87.2L47.5,87.2z"/>
	<path class="st3" d="M68.8,19.6c-2.5,14.9-14.6,12.8-15.2-4C58.1,15.7,63.4,17.3,68.8,19.6z"/>
	<g>
		<path class="st5" d="M69.5,53.4c0,1-2,3.4-5,5.2c-3.5,2.1-8.2,3.3-12.3,0.7c-0.6-0.4-1.2-0.8-1.7-1.3c-3.7-3.6-2.8-8.9,0.2-12
			c1.4-1.5,3.3-2.4,5.4-2.5C63.3,43,69.3,51,69.5,53.4C69.4,53.3,69.4,53.4,69.5,53.4C69.4,53.4,69.5,53.4,69.5,53.4z"/>
		<path class="st3" d="M69.4,53.3c-12.6-0.4-18.7-7.4-18.7-7.4c1.4-1.5,3.3-2.4,5.4-2.5C63.3,43,69.2,51,69.4,53.3L69.4,53.3
			L69.4,53.3z"/>
		<path class="st3" d="M64.4,58.6c-3.5,2.1-8.2,3.3-12.3,0.7c-0.6-0.4-1.2-0.8-1.7-1.3C50.5,58,57.5,52.6,64.4,58.6L64.4,58.6
			L64.4,58.6z"/>
	</g>
	<path d="M107.9,59.3c-1.4,0.3-3.1,0.1-4.4-1c-3.1-2.4-2.4-7.3,1.3-8.8c1.2-0.5,2.5-0.5,3.6-0.1c0.4,0.4,0.8,0.8,1.1,1.3
		C111.5,53.8,110.5,57.5,107.9,59.3C107.9,59.3,107.9,59.3,107.9,59.3z"/>
</g>
</svg>
