<?xml version="1.0" encoding="UTF-8"?>
<svg id="Layer_1" data-name="Layer 1" xmlns="http://www.w3.org/2000/svg" viewBox="0 0 32.18 25.72">
  <path d="m13.93,8.7l13.93-1.03c-8.52-14.44-18.87-5.2-13.93,1.03Z" style="fill: #8d7cf7; stroke-width: 0px;"/>
  <path d="m7.04,13.99L1.09,8.86c-.44-.38-1.12-.05-1.09.53l.5,11.24c.02.52.61.81,1.04.51l5.14-3.61.36-3.53h0Z" style="fill: #5d4dc4; stroke-width: 0px;"/>
  <path d="m20.97,25.54c-2.61.39-5.15.13-7.34-.65-3.71-1.31-6.46-4.07-7.04-7.6-.81-5.01,3.09-9.86,8.96-11.57.69-.21,1.4-.36,2.14-.47,7.03-1.04,13.47,2.65,14.38,8.24.91,5.61-4.06,11-11.1,12.05Z" style="fill: #8d7cf7; stroke-width: 0px;"/>
  <path d="m20.97,25.54c-2.61.39-5.15.13-7.34-.65l1.92-19.17c.69-.21,1.4-.36,2.14-.47,7.03-1.04,13.47,2.65,14.38,8.24.91,5.61-4.06,11-11.1,12.05Z" style="fill: #b8aeff; stroke-width: 0px;"/>
  <ellipse cx="24.88" cy="14.54" rx="2.6" ry="2.22" transform="translate(.39 29.73) rotate(-62.11)" style="stroke-width: 0px;"/>
</svg>