<?xml version="1.0" encoding="UTF-8"?>
<svg id="Layer_1" data-name="Layer 1" xmlns="http://www.w3.org/2000/svg" viewBox="0 0 60.19 51.32">
  <path d="m22.34,16.74l29.54-4.5C41.36-8.89,18.43.48,22.34,16.74Z" style="fill: #5d4dc4; stroke-width: 0px;"/>
  <path d="m22.36,42.31c-1.71,10.6,7.6,10.78,11.13,6.02l-11.13-6.02Z" style="fill: #5d4dc4; stroke-width: 0px;"/>
  <path d="m17.47,29.35c0,3.38-9.13,14.64-13.96,11.32s-4.53-21.29,0-23.57c4.53-2.29,13.96,8.87,13.96,12.25Z" style="fill: #b8aeff; stroke-width: 0px;"/>
  <path d="m45.31,47.43c-1.82.64-3.65,1.03-5.47,1.19-.93.1-1.85.13-2.77.1-8.38-.22-15.92-5.11-18.65-12.92-3.6-10.34,2.6-21.9,13.86-25.81,2.1-.74,4.23-1.15,6.33-1.27,1-.06,2-.05,2.98.03,7.95.58,14.97,5.38,17.58,12.86,3.6,10.34-2.6,21.9-13.86,25.82h0Z" style="fill: #8d7cf7; stroke-width: 0px;"/>
  <ellipse cx="49.98" cy="27.4" rx="4.14" ry="3.81" transform="translate(8.01 65.96) rotate(-71.31)" style="stroke-width: 0px;"/>
  <ellipse cx="27.79" cy="27.96" rx="5.28" ry="5.75" transform="translate(-7.01 46.49) rotate(-73.2)" style="fill: #b8aeff; stroke-width: 0px;"/>
  <path d="m39.84,48.62c-.93.1-1.85.13-2.77.1-.62-2.45-1.72-7.52-2.19-13.78-.54-7.23-.24-17.32,3.73-26.22,1-.06,2-.05,2.98.03-7.48,15.22-2.93,35.36-1.75,39.87h0Z" style="fill: #5d4dc4; stroke-width: 0px;"/>
  <ellipse cx="38.79" cy="28.67" rx="21.58" ry="19.82" transform="translate(-7.27 14.35) rotate(-19.2)" style="fill: none; stroke-width: 0px;"/>
</svg>