<?xml version="1.0" encoding="utf-8"?>
<!-- Generator: Adobe Illustrator 28.0.0, SVG Export Plug-In . SVG Version: 6.00 Build 0)  -->
<svg version="1.1" id="Layer_1" xmlns="http://www.w3.org/2000/svg" xmlns:xlink="http://www.w3.org/1999/xlink" x="0px" y="0px"
	 viewBox="0 0 186 93.1" style="enable-background:new 0 0 186 93.1;" xml:space="preserve">
<style type="text/css">
	.st0{fill:#B8AEFF;}
	.st1{fill:#5D4DC4;}
	.st2{fill:#8D7CF7;}
	.st3{fill:#FFFFFF;}
</style>
<g>
	<path class="st0" d="M72,66.9c-7.1,5.6,1.1,17.1,20.5,9.8C92.5,76.7,72,66.9,72,66.9z"/>
	<path class="st1" d="M120.7,81.8c-8.6,11.3,9.8,18.6,21.6-2.5L120.7,81.8z"/>
	<path class="st2" d="M133.8,80.8c-8.5,8.5-16.8,12.1-22.5,12.3c-7.3,0.2-10.4-5.1-4.7-12.8l14.4,0.3L133.8,80.8L133.8,80.8z"/>
	<path class="st0" d="M133.8,80.8c-8.5,8.5-16.8,12.1-22.5,12.3c0-0.3,0.6-7.7,9.6-12.5h0C120.9,80.6,133.8,80.8,133.8,80.8z"/>
	<g>
		<g>
			<path class="st0" d="M175.4,34L64.7,34.1c0.2-6.6,0.6-12.1,1.6-16.7c0.9-4.5,2.4-8,4.8-10.8c2.5-2.8,5.9-4.7,10.7-5.7
				c3.1-0.7,6.9-1,11.3-0.9c3,0,6.4,0.3,10.1,0.6c4.3,0.4,8.5,0.9,12.5,1.5c7.8,1.2,15,2.7,21.6,4.5c6.6,1.8,12.5,4,17.6,6.5
				c4.6,2.3,8.6,4.8,11.8,7.7C171,24.7,174,29,175.4,34L175.4,34z"/>
			<path class="st0" d="M171.9,31.3l5.1,3.1C180.2,17,171.9,16.7,171.9,31.3z"/>
		</g>
		<path class="st2" d="M166.6,20.8l-1.9,9.7l-9.8-7.2c0,0-2-4.8-0.1-10.2C159.4,15.4,163.4,18,166.6,20.8L166.6,20.8z"/>
		<path class="st2" d="M140,20.1l-20.1-4.3c0,0-3.8-6.3-4.3-13.6c7.8,1.2,15,2.7,21.6,4.5C135.8,13,140,20.1,140,20.1z"/>
		<path class="st2" d="M100.7,16.7l-12.4,5c0,0-6.3-10.4-6.6-20.8C84.9,0.2,88.6,0,93,0C93.4,9.3,100.7,16.7,100.7,16.7L100.7,16.7z
			"/>
		<path class="st2" d="M66.2,17.4c0.9-4.5,2.4-8,4.8-10.8C85.1,20.4,72,23.3,66.2,17.4z"/>
	</g>
	<path class="st2" d="M185.9,49.8c0,6-15.6,21.9-40.5,28.7l0,0c-5.1,1.4-10.6,2.4-16.4,2.8c-2.2,0.2-4.4,0.3-6.6,0.3
		c-4.9,0-9.7-0.3-14.2-1.1l0,0c-5-0.8-9.8-1.9-14.3-3.4l0,0c-4.2-1.3-8-2.9-11.6-4.6c-4.7-2.2-8.9-4.7-12.5-7.2
		c-8.6-5.9-13.5-11.9-13.5-14.9c0-3.5,3.8-12.7,13.2-21.3c4.1-3.8,9.3-7.5,15.7-10.5c3.2-1.5,6.7-2.9,10.6-3.9
		c4.3-1.2,9.1-2.2,14.3-2.7c2.8-0.3,5.8-0.4,8.9-0.5c1.8,0,3.6,0,5.3,0.1c7.6,0.4,14.5,1.6,20.7,3.4
		C173.1,23.4,185.9,43.8,185.9,49.8L185.9,49.8L185.9,49.8z"/>
	<path class="st1" d="M185.9,49.8c0,6-15.6,21.9-40.5,28.7l0,0c-7.3-2.9-13.1-13.7-9.5-29.5c3.5-15.8,11.4-19.6,9-33.9
		C173,23.4,185.9,43.8,185.9,49.8L185.9,49.8L185.9,49.8z"/>
	<path class="st1" d="M129,81.3L129,81.3c-2.2,0.2-4.4,0.3-6.6,0.3c-4.9,0-9.7-0.3-14.2-1.1l0,0c-6.9-10.3,5-23.3,4.2-35.1
		c-0.8-11.7-17.7-23.1-2.4-33.4c2.8-0.3,5.8-0.4,8.9-0.5c1.8,0,3.6,0,5.3,0.1l0,0c-9.4,22.5,1.4,30,4.6,41.3
		C132.1,64.3,123,73.2,129,81.3C129,81.3,129,81.3,129,81.3z"/>
	<path class="st1" d="M93.9,77.2c-4.2-1.3-8-2.9-11.6-4.6c-5.1-10.9,4.1-17.8,1.1-26.1c-3.1-8.4-9-16.5,1.8-27.7
		c3.2-1.5,6.7-2.9,10.6-3.9c-9.6,9.8,0.1,16.1,0.2,27.2C95.9,53,86.8,67.4,93.9,77.2L93.9,77.2L93.9,77.2z"/>
	<path class="st1" d="M69.8,65.4c-8.6-5.9-13.5-11.9-13.5-14.9c0-3.5,3.8-12.7,13.2-21.3C62.7,44.2,65.7,57.7,69.8,65.4L69.8,65.4
		L69.8,65.4z"/>
	<path class="st3" d="M162.5,45.4c-1.7,0.7-3.8,0.8-5.9,0.2c-6.2-1.8-8.4-8.7-4-12.4c2.5-2.1,5.9-2.3,8.9-1.1
		c2.4,0.9,4.3,2.7,5.1,5.2C167.7,40.9,165.7,44.1,162.5,45.4L162.5,45.4L162.5,45.4z"/>
	<path d="M162.5,45.4c-0.9,0.1-1.8,0-2.7-0.3c-4.3-1.7-5.7-8-2.5-11.4c1.2-1.2,2.7-1.7,4.1-1.6c2.4,0.9,4.3,2.7,5.1,5.2
		C167.7,40.9,165.7,44.1,162.5,45.4L162.5,45.4L162.5,45.4z"/>
	<path d="M170.5,51c-2.5,1.5-5.5,2.2-8.4,2.2c-1-0.1-3.9,0.2-3.6-1.5c0.1-0.4,0.5-0.7,0.9-0.7c0.8,0,1.8,0,2.7-0.1
		c2.6-0.2,5.2-0.8,7.8-1.6C170.8,49.1,171.4,50.5,170.5,51L170.5,51z"/>
	<g>
		<path class="st0" d="M51.2,57c-3.4,2.6-8.3,5.4-14,7.5c-4.5,1.7-8.7,1.7-12.5,0.2l0,0c-3.4-1.4-6.5-4-9.4-8l0,0
			c-2.1-2.8-4.2-6.4-6.1-10.6c-0.7-1.5-1.3-2.9-2-4.3l0,0c-2-4.3-3.6-8-4.8-11.1c-2.6-6.9-3.2-11.4-1.2-15.7c0.4-0.9,1-1.6,1.8-2.1
			l0,0c5.1-3.2,17.7,2.2,28,11.3C41,33,51.7,43.3,55.1,48.2c0.6,0.9,1,1.6,1.1,2.1C56.6,51.8,54.7,54.3,51.2,57L51.2,57L51.2,57z"/>
		<path class="st2" d="M56.2,50.3c-26-3.5-53.8-19.6-53.8-19.6C-0.2,23.8-0.8,19.3,1.2,15c0.4-0.9,1-1.6,1.8-2.1l0,0
			c0,0,16.5,19,52.2,35.3C55.7,49.1,56.1,49.8,56.2,50.3L56.2,50.3z"/>
		<path class="st2" d="M51.2,57c-3.4,2.6-8.3,5.4-14,7.5c-4.5,1.7-8.7,1.7-12.5,0.2l0,0C25.7,57.4,34.5,46,51.2,57z"/>
		<path class="st2" d="M15.3,56.7L15.3,56.7c-2.1-2.8-4.2-6.4-6.1-10.7c-0.7-1.5-1.3-2.9-2-4.3l0,0C25.7,43.1,23.3,54.7,15.3,56.7
			L15.3,56.7L15.3,56.7z"/>
	</g>
	<path class="st3" d="M156.1,37.9c-2.5-0.9-3.6-2.6-2-3.2s4.7,0.5,5.6,1.9S158.6,38.7,156.1,37.9L156.1,37.9L156.1,37.9z"/>
</g>
</svg>
