<?xml version="1.0" encoding="utf-8"?>
<!-- Generator: Adobe Illustrator 28.0.0, SVG Export Plug-In . SVG Version: 6.00 Build 0)  -->
<svg version="1.1" id="Layer_1" xmlns="http://www.w3.org/2000/svg" xmlns:xlink="http://www.w3.org/1999/xlink" x="0px" y="0px"
	 viewBox="0 0 125.6 51" style="enable-background:new 0 0 125.6 51;" xml:space="preserve">
<style type="text/css">
	.st0{fill:#5D4DC4;}
	.st1{fill:#8D7CF7;}
	.st2{fill:#CEC7FF;}
</style>
<g>
	<path class="st0" d="M64.1,12.8l-12.2,5.4l-2.2,1l-9.2,4.1l-2.3,1l-11.5,5.1l-2.1-3.2c0,0,3-1.7,8.5-7.9c0.5-0.5,1-1.1,1.5-1.6
		c1.9-2.2,4-4.9,6.4-8.1l0,0c0.5-0.6,0.9-1.3,1.4-2C43.7,5,45,3.2,46.3,1.2c0.9-1.4,2.8-1.6,4-0.5C50.3,0.7,64.1,12.8,64.1,12.8z"/>
	<path class="st1" d="M76.9,38.4c-10.7,11.3-13.2,11.1-14.3,8.9s1.3-8.7,1.3-8.7L76.9,38.4z"/>
	<path class="st2" d="M69.3,38.6c0,0-12.4,10.9-16.9,12.3c-4.5,1.4,0.6-12.7,0.6-12.7L69.3,38.6L69.3,38.6z"/>
	<path class="st1" d="M125.2,30.4c-11.7,3.4-22.9,5.5-33.5,6.7c-28.2,3.4-51.3,0.5-63.4-1.7c-5.8-1.1-9.1-2-9.1-2
		s30.1-16.6,51.3-22.6C84.9,22.2,99.1,30.6,125,29.1C125.7,29.1,125.9,30.2,125.2,30.4C125.2,30.4,125.2,30.4,125.2,30.4z"/>
	<path class="st2" d="M91.7,37.1c-28.2,3.4-51.3,0.5-63.4-1.7c0,0,5.1-13.5,16.6,0.1C44.9,35.5,57.5,13.6,91.7,37.1z"/>
	<ellipse transform="matrix(0.695 -0.719 0.719 0.695 6.462 66.046)" cx="81.1" cy="25.4" rx="3.5" ry="3.1"/>
	<path class="st0" d="M19.3,33.4L2.2,11.6c-0.8-0.9-2.3-0.4-2.2,0.8L1.1,31c0.1,1.3,1.1,2.3,2.4,2.3L19.3,33.4L19.3,33.4L19.3,33.4z
		"/>
	<path class="st1" d="M54.3,19.4l-0.7,1.9c-0.2-0.1-1.8-0.7-3.9-2.1C46.9,17.3,43.1,14,41,8.7l0,0c0.5-0.6,0.9-1.3,1.4-2
		c2,6.3,6.7,9.8,9.5,11.5C53.3,19,54.3,19.4,54.3,19.4z"/>
	<path class="st1" d="M41.6,23.7l-0.5,1.9c-0.1,0-1.3-0.3-2.9-1.3c-1.6-1-3.6-2.9-5.1-5.9c0.5-0.5,1-1.1,1.5-1.6
		c1.7,4.1,4.4,5.8,5.9,6.5C41.1,23.6,41.5,23.7,41.6,23.7C41.6,23.7,41.6,23.7,41.6,23.7z"/>
</g>
</svg>
