<?xml version="1.0" encoding="UTF-8"?>
<svg id="Layer_1" data-name="Layer 1" xmlns="http://www.w3.org/2000/svg" viewBox="0 0 36.18 34.91">
  <g>
    <path d="m23.88,10.62c-.52,0-1.03-.29-1.27-.8l-2.28-4.76-2.34,2.17c-.47.44-1.12.67-1.76.62-.64-.04-1.25-.36-1.66-.85l-3.86-4.71c-.49-.6-.4-1.48.2-1.97s1.48-.4,1.97.2l3.55,4.34,2.44-2.26c.55-.51,1.31-.73,2.04-.58.73.14,1.36.62,1.68,1.29l2.55,5.33c.33.7.04,1.54-.66,1.87-.2.09-.4.14-.61.14v-.03Z" style="fill: #8d7cf7; stroke-width: 0px;"/>
    <path d="m9.96,25.75l-.23-4.74C6.33,15.38.59,18.35.05,22.21c-.61,4.31,4.02,7.85,9.91,3.54Z" style="fill: #5d4dc4; stroke-width: 0px;"/>
    <path d="m31.93,30.49c-5.19,5.28-12.66,5.63-17.5,2.11-2.14-1.56-3.77-3.87-4.47-6.84-1.64-6.98,2.7-13.85,8.9-16.4,2.44-1.02,5.17-1.35,7.93-.76,9.76,2.1,12.63,14.26,5.14,21.89Z" style="fill: #8d7cf7; stroke-width: 0px;"/>
    <path d="m31.93,30.49c-5.19,5.28-12.66,5.63-17.5,2.11l4.43-23.24c2.44-1.02,5.17-1.35,7.93-.76,9.76,2.1,12.63,14.26,5.14,21.89Z" style="fill: #b8aeff; stroke-width: 0px;"/>
    <path d="m31.93,30.49c-5.19,5.28-12.66,5.63-17.5,2.11l4.43-23.24c2.44-1.02,5.17-1.35,7.93-.76,9.76,2.1,12.63,14.26,5.14,21.89Z" style="fill: none; stroke-width: 0px;"/>
  </g>
  <path d="m27.17,19.97c-1.33,2.07-4.05,2.14-4.9.14s.81-4.59,2.99-4.65c2.18-.06,3.24,2.45,1.91,4.51Z" style="stroke-width: 0px;"/>
</svg>