<?xml version="1.0" encoding="utf-8"?>
<!-- Generator: Adobe Illustrator 28.0.0, SVG Export Plug-In . SVG Version: 6.00 Build 0)  -->
<svg version="1.1" id="Layer_1" xmlns="http://www.w3.org/2000/svg" xmlns:xlink="http://www.w3.org/1999/xlink" x="0px" y="0px"
	 viewBox="0 0 98 60.9" style="enable-background:new 0 0 98 60.9;" xml:space="preserve">
<style type="text/css">
	.st0{fill:#5D4DC4;}
	.st1{fill:#8D7CF7;}
	.st2{fill:none;}
	.st3{fill:#B8AEFF;}
</style>
<g>
	<g>
		<path class="st0" d="M72.2,54.4c-1.4,1.8-6.4,5.3-12,6.3c-0.8,0.1-1.6,0.2-2.5,0.3c-2.3,0.1-4.6-0.3-6.8-1.4
			c-0.6-0.3-1.2-0.6-1.7-1c-2.7-1.9-5.1-5-7-9.9l11.2,2.2l0.4,0.1l8.7,1.7l0.9,0.2h0L72.2,54.4C72.2,54.4,72.2,54.4,72.2,54.4z"/>
		<g>
			<path class="st1" d="M64.5,53.3l-4.3,7.4c-0.8,0.1-1.6,0.2-2.5,0.3l4.8-8.4l0.2-0.3l0.8,0.4h0C63.5,52.7,64.5,53.3,64.5,53.3z"/>
			<path class="st1" d="M55.2,51.6l-4.3,7.9c-0.6-0.3-1.2-0.6-1.7-1l4.2-7.7l0.1-0.1l0.3,0.2L55.2,51.6
				C55.2,51.6,55.2,51.6,55.2,51.6z"/>
		</g>
		<path class="st2" d="M42.2,48.6c8.1,21.1,27,9.6,30,5.8C72.2,54.4,42.2,48.6,42.2,48.6z"/>
	</g>
	<path class="st0" d="M67.9,5.8l-10.8,7l-0.6,0.4l-1,0.7L46,20l0,0l-0.8,0.6l-14.8,9.6c-2.2-3.9-3.7-7.6-4.2-11
		c-0.1-0.8-0.2-1.5-0.3-2.3c-0.4-6.5,2.3-11.6,8-14.3c1.6-0.8,3.4-1.3,5.5-1.7C46.3-0.3,55.9,1,67.9,5.8C67.9,5.8,67.9,5.8,67.9,5.8
		z"/>
	<g>
		<path class="st0" d="M25,38.1c0,0.5-0.1,0.9-0.2,1.4c-0.1,0.6-0.4,1.3-0.7,1.9c-2.3,4.9-9,9.7-14.9,8.5c-0.4-0.1-0.8-0.2-1.2-0.3
			c-0.2-0.1-0.4-0.2-0.7-0.3C0.4,46-3.4,31.2,4.1,24.5c0.2-0.2,0.4-0.3,0.6-0.5c0.4-0.3,0.7-0.5,1.1-0.7c7.4-4.1,16.6,6,18.7,12.4
			c0.2,0.7,0.4,1.4,0.4,2C25,37.9,25,38,25,38.1C25,38.1,25,38.1,25,38.1z"/>
		<g>
			<path class="st1" d="M25,37.7c-0.5,0-1,0-1.4,0C10,37.8,5.4,28.1,4.1,24.5c0.2-0.2,0.4-0.3,0.6-0.5c0.4-0.3,0.7-0.5,1.1-0.7
				c0.7,2.5,4.5,13,18.7,12.4C24.8,36.5,24.9,37.1,25,37.7C25,37.7,25,37.7,25,37.7z"/>
			<path class="st1" d="M24.8,39.5c-0.1,0.6-0.4,1.3-0.7,1.9c-10.6-1.3-14.1,5.9-14.9,8.5c-0.4-0.1-0.8-0.2-1.2-0.3
				c-0.2-0.1-0.4-0.2-0.7-0.3C8.4,46.3,12.6,37.8,24.8,39.5z"/>
		</g>
		<path class="st2" d="M25,38.1c0,6-9.5,14.1-17,11.5S-3.8,30.7,4.7,24C13.3,17.4,25,32.1,25,38.1z"/>
	</g>
	<g>
		<path class="st1" d="M57.1,12.8l-0.6,0.4l-1,0.7c0,0,0,0,0,0c-3.8-5.7-8.7-9.3-14.7-10.8c-3-0.7-5.5-0.7-6.9-0.6
			c1.6-0.8,3.4-1.3,5.5-1.7C44.5,1.7,51.7,4.5,57.1,12.8L57.1,12.8z"/>
		<path class="st1" d="M46.8,19.4L46,20l0,0l-0.8,0.6c0,0,0-0.1-0.1-0.1c-2.5-3-5.4-4.7-8.6-5c-4.9-0.4-9.2,2.6-10.5,3.6
			c-0.1-0.8-0.2-1.5-0.3-2.3c2.1-1.4,6.2-3.7,10.9-3.3C40.5,13.9,43.9,15.8,46.8,19.4C46.8,19.4,46.8,19.4,46.8,19.4z"/>
	</g>
	<path class="st2" d="M30.3,30.1L67.9,5.8C31.5-8.7,17.7,8.5,30.3,30.1z"/>
	<path class="st0" d="M69.9,5.9l10.2,2.6C73.7-3.6,66-1.2,69.9,5.9z"/>
	<path class="st1" d="M69.9,54.4L69.9,54.4c-0.7,0-1.4-0.1-2.2-0.2c-6.8-0.7-13.1-1.9-18.5-3.4c-1-0.3-2-0.6-2.9-0.9
		C33.7,46,26,40.6,26,38.1c0-1.4,2.3-5.6,6.2-10.5c0.6-0.7,1.2-1.4,1.8-2.2c4-4.5,9.2-9.4,15.2-13.2c0.6-0.4,1.2-0.7,1.8-1.1
		c3.3-1.9,6.9-3.5,10.6-4.5c5.4-1.4,10.5-1.1,15.1,0.4h0c12.2,4,20.4,15.9,21.2,22.6C98.8,38.3,93,55.6,69.9,54.4L69.9,54.4z"/>
	<path class="st3" d="M56.5,32.1c0.1,2.7-7.2,6.1-11.4,4.9c-4.2-1.2-6.9-8.8-1.3-11.2C49.5,23.4,56.4,29.4,56.5,32.1
		C56.5,32.1,56.5,32.1,56.5,32.1z"/>
	<path class="st0" d="M64.6,23l-0.3,2c-0.1,0-12-2.1-15-12.7c0.6-0.4,1.2-0.7,1.8-1.1C53.4,21,64.1,22.9,64.6,23L64.6,23z"/>
	<path class="st0" d="M49.2,50.8c-1-0.3-2-0.6-2.9-0.9c-0.8-1-1.9-2-3.2-3.1c-4.2-3.8-9.8-9-10.9-19.2c0.6-0.7,1.2-1.4,1.8-2.2
		c0.5,10.8,6,15.8,10.4,19.9C46.6,47.3,48.4,48.9,49.2,50.8C49.2,50.8,49.2,50.8,49.2,50.8z"/>
	<path class="st2" d="M69.9,54.4L69.9,54.4c-0.7,0-1.4-0.1-2.2-0.2C42.8,51.9,26,41.9,26,38.1S41.6,12,61.6,6.7
		c5.4-1.4,10.5-1.1,15.1,0.4h0c12.2,4,20.4,15.9,21.2,22.7C98.8,38.3,93,55.6,69.9,54.4z"/>
	<path class="st3" d="M69.9,54.4L69.9,54.4C60.5,49.8,54.7,22,76.7,7.2h0c12.2,4,20.4,15.9,21.2,22.6C98.8,38.3,93,55.6,69.9,54.4z"
		/>
	<path d="M82.7,28.2c-0.9,3.4-4.2,4.8-6,2.5s-0.6-6.5,2.1-7.6S83.7,24.8,82.7,28.2L82.7,28.2z"/>
	<path class="st1" d="M50.5,32.1c-5.3,0-10.4-3.1-10.8-3.3l1-1.7c0.1,0.1,9.5,5.8,15.1,1.2l1.3,1.5C55.2,31.5,52.8,32.1,50.5,32.1
		C50.5,32.1,50.5,32.1,50.5,32.1z"/>
	<path class="st2" d="M56.5,32.1c0.1,2.7-7.2,6.1-11.4,4.9c-4.2-1.2-6.9-8.8-1.3-11.2C49.5,23.4,56.4,29.4,56.5,32.1
		C56.5,32.1,56.5,32.1,56.5,32.1z"/>
</g>
</svg>
