<?xml version="1.0" encoding="utf-8"?>
<!-- Generator: Adobe Illustrator 28.0.0, SVG Export Plug-In . SVG Version: 6.00 Build 0)  -->
<svg version="1.1" id="Layer_1" xmlns="http://www.w3.org/2000/svg" xmlns:xlink="http://www.w3.org/1999/xlink" x="0px" y="0px"
	 viewBox="0 0 63.5 52.7" style="enable-background:new 0 0 63.5 52.7;" xml:space="preserve">
<style type="text/css">
	.st0{fill:#8D7CF7;}
	.st1{fill:#5D4DC4;}
	.st2{fill:none;}
</style>
<g>
	<g>
		<path class="st0" d="M19.1,32.8c0.2,0.7,0.3,1.1,0.3,1.1l-13,10.9c0,0-8.1-9.4-6-20.5c0.1-0.8,0.3-1.6,0.6-2.4
			C1.8,19,3.5,16,6.3,13l13.5,11.3c-0.3,0.6-0.5,1.1-0.6,1.7c-0.2,0.8-0.4,1.6-0.5,2.4c-0.1,0.7-0.1,1.4,0,2
			C18.8,31.4,18.9,32.2,19.1,32.8C19.1,32.8,19.1,32.8,19.1,32.8z"/>
		<g>
			<path class="st1" d="M20.7,26.3l-0.5,2.4l-1.4-0.3L0.3,24.3c0.1-0.8,0.3-1.6,0.6-2.4L19.2,26L20.7,26.3
				C20.7,26.3,20.7,26.3,20.7,26.3z"/>
			<path class="st1" d="M19.1,32.8l-13,2.4l-0.4-2.4l13.1-2.4C18.8,31.4,18.9,32.2,19.1,32.8z"/>
		</g>
		<path class="st2" d="M19.9,24.3L6.3,13c-14.3,15,0,31.8,0,31.8l13-10.9L19.9,24.3L19.9,24.3L19.9,24.3z"/>
	</g>
	<path class="st0" d="M27.4,51.5c-0.9,0-1.8-0.2-2.5-0.4c-1.8-0.7-2.9-2-3.1-3.7c-0.1-1.1,0-3.2,2.6-5.5c-2.3-1.8-6.6-5.8-6.8-11
		c-0.1-3.3,1.4-6.4,4.5-9.2c-2.8-1.3-3.7-3.4-3.5-5.2c0.2-2,1.7-4.1,4.7-5.1c-1.6-1.9-1.7-4.2-1-5.9c1.1-2.6,4.5-4.5,9.1-2.8L30.6,5
		c-3.2-1.2-5.3-0.1-6,1.5c-0.6,1.4-0.2,3.3,2.2,4.6l3.8,2l-4.3,0.2c-3.2,0.2-5.1,1.8-5.2,3.4c-0.1,1.5,1.3,2.8,3.8,3.4l2.5,0.6
		l-2.1,1.6c-3.6,2.7-5.4,5.6-5.3,8.6c0.2,5.6,7,10,7,10l1.5,1l-1.5,1c-2,1.4-3.1,3-2.9,4.2c0.1,0.7,0.7,1.4,1.6,1.7
		c1.5,0.6,4.2,0.4,6.9-2l1.6,1.8C31.9,50.8,29.5,51.5,27.4,51.5L27.4,51.5L27.4,51.5z"/>
	<path class="st0" d="M58.2,22.3C54.9-4.1,40.3-0.6,38.9,7.6C38.9,7.6,58.2,22.3,58.2,22.3z"/>
	<path class="st1" d="M62.3,29.3L37.8,49l-2,1.6l-2.3,1.9c-0.6,0.5-1.5,0.3-1.8-0.4c-3-5.4-13.5-27.8-0.8-51.4
		c0.4-0.7,1.2-0.8,1.8-0.4l2.7,2.2L37.4,4l24.9,20.2C63.9,25.5,63.9,28,62.3,29.3C62.3,29.3,62.3,29.3,62.3,29.3z"/>
	<path class="st0" d="M37.8,49l-2,1.6c-2.8-6.8-10-28-0.4-48.1L37.4,4C28.8,22.6,35,41.9,37.8,49z"/>
	<path class="st2" d="M62.3,24.2L32.7,0.3c-0.6-0.5-1.5-0.3-1.8,0.4c-12.7,23.7-2.1,46,0.8,51.4c0.4,0.7,1.2,0.8,1.8,0.4l28.8-23.2
		C63.9,28,63.9,25.5,62.3,24.2L62.3,24.2z"/>
	<path d="M42.5,28.1c-3.2-1-4.1-5-1.7-7.3s6.4-1.1,7.2,2.1S45.7,29.1,42.5,28.1L42.5,28.1L42.5,28.1z"/>
	<path class="st2" d="M62.3,24.2L32.7,0.3c-0.6-0.5-1.5-0.3-1.8,0.4c-12.7,23.7-2.1,46,0.8,51.4c0.4,0.7,1.2,0.8,1.8,0.4l28.8-23.2
		C63.9,28,63.9,25.5,62.3,24.2L62.3,24.2z"/>
</g>
</svg>
