<?xml version="1.0" encoding="utf-8"?>
<!-- Generator: Adobe Illustrator 28.0.0, SVG Export Plug-In . SVG Version: 6.00 Build 0)  -->
<svg version="1.1" id="Layer_1" xmlns="http://www.w3.org/2000/svg" xmlns:xlink="http://www.w3.org/1999/xlink" x="0px" y="0px"
	 viewBox="0 0 193.4 138.2" style="enable-background:new 0 0 193.4 138.2;" xml:space="preserve">
<style type="text/css">
	.st0{fill:#8D7CF7;}
	.st1{fill:#5D4DC4;}
	.st2{fill:#B8AEFF;}
	.st3{fill:#FFFFFF;}
	.st4{fill:#FFFFFE;}
</style>
<g>
	<path class="st0" d="M159.7,49.1c-1.2-8.5-5-27.1,8.4-27v2.2c-2.2,0-4.4,0.7-5.5,2.7c-2.2,4-1.5,9.5-0.9,14
		c0.3,2.2,0.9,5.2,1.3,7.4L159.7,49.1L159.7,49.1L159.7,49.1z"/>
	<path class="st1" d="M167.3,33.3c-6-1.4-8.6-6.8-4.8-9.8c2.6-2.1,7-1.9,10.2-0.1h0c1.4,0.8,2.6,1.9,3.2,3.2
		C178.1,30.9,173.3,34.7,167.3,33.3L167.3,33.3L167.3,33.3z"/>
	<path class="st0" d="M167.3,33.3c0,0-1.5-8.9,5.4-9.9h0c1.4,0.8,2.6,1.9,3.2,3.2C178.1,30.9,173.3,34.7,167.3,33.3z"/>
	<g>
		<path class="st2" d="M42.7,78c-0.3,5.4-1.8,9.9-4.2,13.6c-2.2,3.5-5.2,6.2-8.4,8.2c-10.5,6.3-24.1,4.3-27-6.5
			C3,93,3.2,92.8,3.4,92.8c8.9,0.1,15-1.7,19.1-5c2-1.6,3.4-3.5,4.5-5.6c2.5-5.2,2.4-12,0.6-19.3c-0.4-1.6-0.9-3.1-1.6-4.7l0,0
			c-1-2.3-2.2-4.5-3.8-6.7C16.9,44.1,8.8,38.2,0.3,37.2c-0.4,0-0.4-0.6-0.1-0.7c8.6-2.8,17.4-1.6,24.8,2.8c3.5,2.1,6.6,4.9,9.2,8.3
			l0,0C39.9,55,43.3,65.4,42.7,78L42.7,78L42.7,78z"/>
		<path class="st0" d="M34.2,47.6L34.2,47.6C26.4,48.9,26,57.8,26,58.1c-1-2.3-2.2-4.5-3.8-6.7c0,0-1.5-9.5,2.8-12.2
			C28.5,41.4,31.6,44.2,34.2,47.6z"/>
		<path class="st0" d="M38.5,91.6c-2.2,3.5-5.2,6.2-8.4,8.2c0,0-9.4-3.2-7.6-11.9c2-1.6,3.4-3.5,4.5-5.6l0,0
			C27.8,91.6,38.5,91.6,38.5,91.6L38.5,91.6z"/>
	</g>
	<g>
		<path class="st2" d="M158.8,46.5l-13.6-0.3l-37.1-0.9L94.4,45l-20.4-0.5c-3.5-4.9-3.9-18.8,7.3-20.6l0,0c2-0.4,4.4-0.3,7.2,0.2
			c0,0-0.1-6.1,2.8-11.5c2.3-4.4,6.5-8.3,14.2-8.2l4.5,7.1c0,0,8.9-9.9,21.3-11.4c5-0.6,10.5,0.2,16.2,3.5c2.1,1.2,4.3,2.8,6.5,4.8
			C154.1,8.5,148.9,28,158.8,46.5L158.8,46.5z"/>
		<path class="st0" d="M158.8,46.5l-13.6-0.3c0,0-12.3-23,2.4-42.5c2.1,1.2,4.3,2.8,6.5,4.8C154.1,8.5,148.9,28,158.8,46.5
			C158.8,46.5,158.8,46.5,158.8,46.5z"/>
		<path class="st0" d="M134.7,46l-6.4-0.2l-18.3-34.2c0,0,8.9-10,21.3-11.4C131,0.8,119.6,24.1,134.7,46L134.7,46z"/>
		<path class="st0" d="M108.1,45.4L94.4,45c0.4-9.8-12.5-12.5-13.1-21.1l0,0c2-0.4,4.4-0.3,7.2,0.2c0,0-0.1-6.1,2.8-11.5
			C108.8,19.3,108.1,45.4,108.1,45.4C108.1,45.4,108.1,45.4,108.1,45.4z"/>
	</g>
	<path class="st1" d="M101.3,117.4c-7.5,10.6,1,19,20,2.9L101.3,117.4z"/>
	<path class="st0" d="M193.4,77.1c0,3.6-12.8,13.3-26.8,22.8c-7.6,5.1-15.5,10.2-21.8,14.2c-3.9,2.5-7.2,4.6-9.6,6
		c-9.3,5.9-26,4.8-43.7-2.8c-2.8-1.2-5.7-2.6-8.6-4.2c-4.3-2.3-8.5-5-12.7-8c-2.1-1.6-4.1-3-6-4.4c-4.8-3.6-8.8-6.6-12-9.2
		c-1.8-1.5-3.4-2.8-4.7-4c-3.2-2.8-5.1-5-6.3-6.7c-1-1.4-1.3-2.6-1.3-3.5c0-0.1,0-0.2,0-0.4l0,0c0.8-4.1,13.6-15.5,33.8-33.7
		c20.8-18.8,36.3-31.8,65.2-11.8c7.8,5.5,15.4,10.8,22.4,15.9c3.6,2.6,6.9,5.1,10.1,7.5c9.4,7.2,16.6,13.4,20,17.8
		C192.7,74.4,193.4,75.9,193.4,77.1L193.4,77.1L193.4,77.1z"/>
	<g>
		<path class="st2" d="M105.1,101.2c-2.8,11-13.6,16.2-13.6,16.2c-2.8-1.2-5.7-2.6-8.6-4.2c0.4-0.2,9.7-4.1,13.2-12.8L105.1,101.2z"
			/>
		<path class="st2" d="M80.1,95.2c-2.2,6-9.9,10-9.9,10c-2.1-1.6-4.1-3-6-4.4c0.3-0.1,6.1-2.7,9.1-8.6L80.1,95.2z"/>
		<path class="st2" d="M60.9,86.4c-3.4,5.8-8.7,5.2-8.7,5.2c-1.8-1.5-3.4-2.8-4.7-4c5.2-2.2,7.3-5.3,7.3-5.3S60.9,86.4,60.9,86.4z"
			/>
	</g>
	<path class="st2" d="M191.3,72.7c0,0-18.5,1.8-20-17.8C180.8,62.1,188,68.3,191.3,72.7z"/>
	<path class="st1" d="M137.3,68.4c-3.7-1.8-8.6-1.7-11,2.7c-2.4,4.4,1.9,11.3,0.5,17.3c-1.7,7-9.6,12.9-22.9,12.8
		c-21.9-0.1-49.3-22.1-62.6-20.4L39.9,77l0,0c0.8-4.1,13.6-15.5,33.8-33.7c20.8-18.8,36.3-31.8,65.2-11.8
		c7.8,5.5,15.4,10.8,22.4,15.9C137.4,34.3,124.2,52,137.3,68.4L137.3,68.4z"/>
	<g>
		<path class="st2" d="M126.4,137.1c-0.7-0.4-1.3-0.8-2-1.4c0,0-2.9,1.5-6.6,1.6l0,0c-2.3,0-4.9-0.5-7.4-2.4c-0.8-0.6-0.6-1.7,0.3-2
			c3.9-1.2,12.3-5.2,14.8-16.2c0.1-0.6,0.4-1.2,0.9-1.6c0.5-0.5,1.1-0.8,1.8-0.9l3.2-0.4c1.3-0.2,2.5,0.5,3.1,1.6
			C143.9,132.1,134.3,141.5,126.4,137.1L126.4,137.1L126.4,137.1z"/>
		<path class="st0" d="M126.4,137.1c-0.7-0.4-1.3-0.8-2-1.4c0,0-2.9,1.5-6.6,1.6c0.4-0.4,11.4-8.9,8.7-22.1c0.5-0.5,1.1-0.8,1.8-0.9
			l3.2-0.4C134.9,126.8,126.4,137.1,126.4,137.1L126.4,137.1z"/>
	</g>
	<path d="M142.1,73.8c4.9,4.3,11.5,6.2,17.9,4.3c1.4-0.5,2.3,1.4,1,2.1c-6.9,3.8-16.1,1.6-20.6-4.8C139.4,74.2,141,72.8,142.1,73.8
		C142.1,73.8,142.1,73.8,142.1,73.8z"/>
	<path class="st3" d="M151.3,69.8c-6.9-2.7-8.6-11.1-3.1-15.1s14.2-0.6,15.5,6.1S158.2,72.5,151.3,69.8L151.3,69.8L151.3,69.8z"/>
	<path d="M163.9,62.2c0,5.9-5.8,9.6-10.4,6.7s-4.6-10.4,0-13.3S163.9,56.2,163.9,62.2L163.9,62.2L163.9,62.2z"/>
	<path class="st4" d="M151,61.2c-2.8-0.9-4-3.2-2.2-4.3s5.4,0,6.4,1.9S153.8,62,151,61.2L151,61.2L151,61.2z"/>
	<g>
		<path class="st0" d="M120.7,59.4c-3.1,1.5-6.4-0.1-5.9-3s4.4-4.8,7-3.5S123.8,57.8,120.7,59.4z"/>
		<path class="st0" d="M98.3,69.1c-5,1.3-9.5-3.4-8.1-8.3s7.7-6.6,11.3-2.9S103.3,67.8,98.3,69.1L98.3,69.1z"/>
		<path class="st0" d="M73.3,67.1c-2.6,1.2-5.5-0.8-5.2-3.6s3.4-4.3,5.8-2.7S75.9,65.9,73.3,67.1z"/>
		<path class="st2" d="M85.1,52.2c-2.8,1.5-5.7,0-5.3-2.6s3.8-4.4,6.2-3.3S87.9,50.8,85.1,52.2z"/>
		<path class="st0" d="M105.8,49.2c-3.4-0.3-5.2-3.5-3.3-5.6s6.2-1.7,7.6,0.8S109.2,49.5,105.8,49.2L105.8,49.2z"/>
		<path class="st0" d="M97.6,35.3c-1.7,0.7-3.6-0.7-3.3-2.5s2.4-2.8,3.9-1.6C99.6,32.3,99.3,34.6,97.6,35.3z"/>
		<path class="st2" d="M115.8,38.5c-3.8-1.9-4.6-6.3-1.4-8s8,0.6,8.6,4.2S119.7,40.4,115.8,38.5C115.8,38.5,115.8,38.5,115.8,38.5z"
			/>
		<path class="st0" d="M133.5,39.2c-2,0-3.3-2.2-2.3-3.9s3.5-1.7,4.5,0S135.5,39.2,133.5,39.2L133.5,39.2L133.5,39.2z"/>
	</g>
	<path class="st2" d="M166.6,99.9c-7.6,5.1-15.5,10.2-21.8,14.2C144.8,108.4,146.8,94,166.6,99.9z"/>
</g>
</svg>
