<?xml version="1.0" encoding="UTF-8"?>
<svg id="Layer_1" data-name="Layer 1" xmlns="http://www.w3.org/2000/svg" viewBox="0 0 386.52 373.69">
  <path d="m276.92,310.59s-2.59,5.57-5.92,12.58c-3.65,7.64-8.18,16.98-11.21,22.65-5.8,10.88-8.9,13.6-13.67,13.6h-109.53c-5.27,0-9.55-1.52-13.67-11.52-2.15-5.25-5.8-14.49-8.97-22.63-3.4-8.68-6.27-16.11-6.27-16.11l169.25,1.43Z" style="fill: #bc83fb; stroke-width: 0px;"/>
  <polygon points="172.14 359.43 153.69 359.43 147.85 332.78 162.99 327.64 172.14 359.43" style="fill: #8747cc; stroke-width: 0px;"/>
  <polygon points="236.9 334.74 231.41 359.43 218.69 359.43 220.68 339.07 236.9 334.74" style="fill: #8747cc; stroke-width: 0px;"/>
  <path d="m235.25,350.41h-91.66c-8.49,0-10.87-4.13-13.1-9.54-2.17-5.27-9.7-30.03-10.02-31.08-.28-.92.24-1.9,1.17-2.18.93-.28,1.9.24,2.18,1.17.08.26,7.8,25.65,9.91,30.76,2.11,5.13,3.69,7.37,9.87,7.37h91.66c7.94,0,10.72-2.66,12.4-5.26,1.37-2.14,9.35-20.22,14.38-31.86.38-.89,1.41-1.3,2.3-.91.89.38,1.3,1.41.91,2.3-1.29,2.99-12.68,29.3-14.65,32.36-2.06,3.2-5.66,6.87-15.34,6.87Z" style="fill: #8747cc; stroke-width: 0px;"/>
  <path d="m276.92,310.59s-2.59,5.57-5.92,12.58c-52.15,32.97-117.03,27.51-157.05,2.1-3.4-8.68-6.27-16.11-6.27-16.11l169.25,1.43Z" style="fill: #8747cc; stroke-width: 0px;"/>
  <path d="m244.37,26.05c10.32-22.3-6.89-18.26-27.1-10.18-20.75-21.91-27.91-20.5-49.36.31-25.03-13.74-37.77-11.97-24.66,9.81l101.11.06Z" style="fill: #bc83fb; stroke-width: 0px;"/>
  <path d="m179,19.92c-.34,0-.69-.1-.99-.31-.8-.55-1-1.64-.45-2.43.28-.4,6.84-9.78,15.98-9.83.02,0,.05,0,.07,0,5.4,0,10.42,3.23,14.91,9.61.56.79.37,1.88-.42,2.44-.79.56-1.88.37-2.44-.42-3.8-5.39-7.85-8.13-12.05-8.13h-.05c-7.34.04-13.06,8.23-13.12,8.31-.34.49-.89.76-1.44.76Z" style="fill: #8747cc; stroke-width: 0px;"/>
  <path d="m232.72,330.43s-.41,2.11-1.05,5.34c-1.85,9.47-5.58,28.48-6.29,31.5-.96,4.04-2.15,6.42-13.09,6.42h-43.07c-7.13,0-9.28-3.32-10.47-10.7-.8-4.99-3.05-18.17-4.42-26.22-.66-3.87-1.12-6.55-1.12-6.55l79.5.21Z" style="fill: #bc83fb; stroke-width: 0px;"/>
  <path d="m232.72,330.43s-.41,2.11-1.05,5.34c-17.66,6.49-43.37,10.36-77.34,1-.66-3.87-1.12-6.55-1.12-6.55l79.5.21Z" style="fill: #8747cc; stroke-width: 0px;"/>
  <path d="m205.97,363.23h-28.86c-4.77,0-7.73-2.92-9.04-8.94-1.14-5.25-4.02-23.04-4.14-23.79-.15-.95.49-1.85,1.45-2.01.96-.16,1.85.5,2.01,1.45.03.18,2.98,18.45,4.1,23.61,1.18,5.43,3.4,6.18,5.62,6.18h28.86c2.75,0,6.16-1.18,6.75-4.51.67-3.83,3.63-24.86,3.66-25.08.13-.96,1.03-1.62,1.98-1.49.96.13,1.62,1.02,1.49,1.98-.12.87-2.99,21.31-3.68,25.2-.78,4.43-4.88,7.4-10.2,7.4Z" style="fill: #8747cc; stroke-width: 0px;"/>
  <g>
    <path d="m299.46,294.28c79.05-30.39,63.71-64.08,40.02-51.38-23.68,12.7-40.02,51.38-40.02,51.38Z" style="fill: #bc83fb; stroke-width: 0px;"/>
    <path d="m341.33,235.11c48.43-29.19,51.12-80.03,37.32-85.86-11.64-4.91-26.14,12.36-26.14,12.36l-11.18,73.5Z" style="fill: #bc83fb; stroke-width: 0px;"/>
    <path d="m351.41,153.79c19.86-44.77,4.2-70.98-14.14-47.18l14.14,47.18Z" style="fill: #bc83fb; stroke-width: 0px;"/>
    <path d="m348.16,141.3c-.22,0-.45-.04-.67-.13-.89-.37-1.32-1.39-.95-2.29,4.73-11.46,3.99-23.66,1-25.56-1.23-.78-3.44.43-6.06,3.3-.65.71-1.76.77-2.47.11-.71-.65-.76-1.76-.11-2.47,5.05-5.54,8.51-5.18,10.52-3.9,4.74,3.01,5.91,16.42.36,29.85-.28.67-.93,1.08-1.62,1.08Z" style="fill: #8747cc; stroke-width: 0px;"/>
    <path d="m343.2,224.57c-.52,0-1.03-.23-1.37-.66-.6-.76-.47-1.86.28-2.46.19-.15,18.91-15.16,27.6-36.63,3.4-8.41,3.74-14.98.87-17.15-3.09-2.34-10.11.26-18.77,6.97-.76.59-1.86.45-2.46-.31-.59-.76-.45-1.86.31-2.46,13.18-10.2,19.8-9.43,23.02-6.99,4.31,3.27,4.41,11.01.26,21.25-9.05,22.35-27.87,37.43-28.67,38.06-.32.25-.7.38-1.08.38Z" style="fill: #8747cc; stroke-width: 0px;"/>
    <path d="m312.06,281.32c-.68,0-1.33-.4-1.61-1.07-.38-.89.04-1.92.93-2.29,21.28-8.99,30.23-20.87,29.2-23.75-.29-.82-2.77-1.42-8.36.26-.92.28-1.9-.25-2.18-1.17-.28-.93.25-1.9,1.17-2.18,8.93-2.68,11.81-.44,12.66,1.91,2.5,6.94-12.05,20.1-31.13,28.16-.22.09-.45.14-.68.14Z" style="fill: #8747cc; stroke-width: 0px;"/>
  </g>
  <g>
    <path d="m84.67,294.76c-78.53-31.7-62.63-65.13-39.17-52.04,23.47,13.1,39.17,52.04,39.17,52.04Z" style="fill: #bc83fb; stroke-width: 0px;"/>
    <path d="m45.45,235.11C-2.97,205.92-5.67,155.08,8.13,149.25c11.64-4.91,26.14,12.36,26.14,12.36l11.18,73.5Z" style="fill: #bc83fb; stroke-width: 0px;"/>
    <path d="m34.22,150.49c-16.57-41.16-2.89-69.88,14.19-46.08l-14.19,46.08Z" style="fill: #bc83fb; stroke-width: 0px;"/>
    <path d="m38.27,139.1c-.7,0-1.37-.43-1.63-1.12-4.28-11.14-4.95-26.65.61-29.95,1.92-1.14,5.17-1.35,9.78,4.08.63.74.54,1.84-.2,2.47s-1.84.54-2.47-.2c-2.3-2.71-4.29-3.95-5.33-3.34-2.83,1.68-3.58,14.11.87,25.68.35.9-.1,1.91-1.01,2.26-.21.08-.42.12-.63.12Z" style="fill: #8747cc; stroke-width: 0px;"/>
    <path d="m43.58,224.57c-.38,0-.76-.12-1.08-.38-.8-.63-19.62-15.71-28.67-38.06-4.15-10.24-4.05-17.99.26-21.25,3.23-2.44,9.84-3.22,23.02,6.99.76.59.9,1.69.31,2.46-.59.76-1.69.9-2.46.31-8.66-6.7-15.67-9.31-18.77-6.97-2.87,2.17-2.53,8.74.87,17.15,8.69,21.47,27.41,36.48,27.6,36.63.76.6.88,1.7.28,2.46-.35.44-.86.66-1.37.66Z" style="fill: #8747cc; stroke-width: 0px;"/>
    <path d="m72.31,281.6c-.25,0-.5-.05-.74-.17-17.82-8.34-35.4-21.95-33.16-28.93,1.63-5.06,10.9-3.34,13.95-2.77.95.18,1.58,1.09,1.4,2.04-.18.95-1.09,1.57-2.04,1.4-7.35-1.37-9.74-.34-9.97.4-.96,3,10.48,14.94,31.31,24.69.88.41,1.25,1.45.84,2.33-.3.64-.93,1.01-1.59,1.01Z" style="fill: #8747cc; stroke-width: 0px;"/>
  </g>
  <ellipse cx="192.3" cy="176.21" rx="160.25" ry="158.57" transform="translate(-40.2 58) rotate(-15.55)" style="fill: #bc83fb; stroke-width: 0px;"/>
  <path d="m317.17,76.14s-10.63,2.05-12.53,11.7l-35.09-31.3s-.86-13.04,11.25-13.04h.01c13.65,8.89,25.95,19.88,36.36,32.65Z" style="fill: #ead4ff; stroke-width: 0px;"/>
  <path d="m110.91,293.17s0,10.74-10.91,13.21h-.01c-14.07-9.75-26.57-21.76-36.91-35.7.28-.06,9.19-1.73,13.27-10.76l34.55,33.25Z" style="fill: #ead4ff; stroke-width: 0px;"/>
  <ellipse cx="192.3" cy="176.21" rx="143.36" ry="141.86" transform="translate(-17.47 21.21) rotate(-6.04)" style="fill: #8747cc; stroke-width: 0px;"/>
  <path d="m327.93,196.96c-10.51,73.43-79.6,124.41-154.31,113.86-26.93-3.8-50.92-15.08-70.09-31.39-18.34-15.6-32.28-35.82-40.16-58.49-6.76-19.38-9.09-40.56-5.98-62.2,10.51-73.43,79.6-124.41,154.32-113.86,26.21,3.7,49.62,14.49,68.53,30.1h0c8.78,7.24,16.57,15.51,23.23,24.62h0c19.9,27.2,29.58,61.64,24.47,97.37Z" style="fill: #bc83fb; stroke-width: 0px;"/>
  <path d="m110.91,313.31c-15.17-7.42-28.39-18.51-39.61-31.07-22.6-25.16-36.65-57.81-39.56-91.49-5.75-59.43,25.19-119.69,76.27-150.41,103.02-62.7,236.23,3.27,245.17,124.4,3.03,42.26-12.03,85.23-40.27,116.75-5.61,6.31-11.86,12.1-18.88,16.79,5.94-6,11.82-11.89,17.36-18.15,27.82-31.13,42.65-73.55,39.6-115.24-4.3-66.3-51.37-123.02-115.34-140.43-50.33-14.07-107.01-1.56-146.62,32.57C29.29,107.88,15.53,194.62,57.63,261.03c6.72,10.51,14.8,20.29,23.77,28.96,9.14,8.63,19.15,16.13,29.5,23.32h0Z" style="fill: #ead4ff; stroke-width: 0px;"/>
  <path d="m352.06,161.22c7.8-10.52,27.95-23.82,33.38-4.16,3.92,17.58-3.3,36.31-13.79,50.23,9.15-13.99,15.93-33,11.82-49.67-3.95-14.95-18.66-6.79-26.34.3-1.44,1.29-2.82,2.67-4.16,4.08-.5.54-1.37-.19-.9-.78h0Z" style="fill: #e3effc; stroke-width: 0px;"/>
  <path d="m32.58,160.87c-11.45-11.06-28.97-20.49-30.57,3.24-.78,15.35,4.8,30.48,13.15,43.24-10.6-13.48-20.2-38.44-12.2-54.97,6.2-10.71,19.89-2.75,26.39,3.46,1.44,1.33,2.82,2.72,4.09,4.2.21.25.19.63-.06.84-.23.2-.58.19-.8-.02h0Z" style="fill: #e3effc; stroke-width: 0px;"/>
  <g>
    <g style="opacity: .6;">
      <path d="m193.23,285.96h-.84c-1.17-.25-1.94-.97-2.54-1.99-1.46-2.51-3-4.97-4.46-7.49-.41-.71-.86-1.11-1.71-1.05-.41.03-.83-.04-1.24-.12-.32-.06-.52.05-.72.28-.66.74-1.33,1.47-2,2.2-1.54,1.7-3.08,3.4-4.63,5.1-.72.8-1.62,1.19-2.7,1.05-1.3-.16-2.15-.91-2.59-2.13-1.08-3.01-2.17-6.02-3.23-9.04-.15-.43-.37-.71-.84-.8-.48-.1-.95-.23-1.4-.42-.52-.23-.9-.09-1.33.24-2.53,1.9-5.07,3.79-7.63,5.66-2.02,1.48-4.61.4-4.99-2.07-.49-3.23-.97-6.46-1.45-9.69-.05-.33-.19-.54-.48-.69-.53-.27-1.06-.53-1.56-.84-.37-.23-.68-.21-1.07-.03-2.92,1.39-5.84,2.78-8.77,4.15-2.26,1.05-4.63-.6-4.49-3.09.18-3.09.31-6.18.5-9.27.04-.65-.08-1.14-.67-1.5-.37-.23-.7-.52-1.01-.83-.32-.33-.65-.36-1.08-.25-2.52.65-5.06,1.28-7.59,1.91-.57.14-1.15.29-1.72.43-2.53.61-4.5-1.36-3.88-3.88.72-2.94,1.43-5.88,2.22-8.8.22-.81.18-1.42-.47-1.99-.28-.25-.5-.58-.73-.89-.2-.28-.45-.41-.8-.38-.55.05-1.11.07-1.67.1-2.67.13-5.35.26-8.02.4-.68.03-1.32-.08-1.91-.42-1.45-.83-1.95-2.53-1.2-4.12,1.37-2.93,2.76-5.85,4.15-8.77.17-.35.17-.63-.03-.97-.31-.5-.58-1.03-.84-1.56-.16-.33-.4-.47-.76-.53-3.18-.46-6.36-.93-9.54-1.43-2.65-.41-3.67-2.97-2.07-5.13,1.88-2.54,3.76-5.09,5.66-7.63.25-.34.34-.64.18-1.05-.19-.48-.35-.99-.45-1.5-.1-.51-.4-.74-.87-.9-3-1.06-6-2.14-8.99-3.21-1.22-.44-1.96-1.3-2.12-2.6-.14-1.1.29-2,1.1-2.74,2.37-2.15,4.73-4.31,7.12-6.45.33-.3.48-.58.4-1.03-.09-.49-.1-1-.13-1.51-.03-.47-.21-.79-.64-1.04-2.71-1.6-5.41-3.23-8.1-4.85-2.35-1.42-2.35-4.18,0-5.6,2.44-1.47,4.87-2.97,7.35-4.38.93-.53,1.59-1.08,1.43-2.24-.01-.08.02-.17.04-.26.18-.76.07-1.39-.66-1.83-.22-.13-.39-.35-.58-.52-2.09-1.89-4.18-3.79-6.26-5.68-.8-.72-1.2-1.62-1.06-2.7.16-1.3.9-2.16,2.12-2.6,3.01-1.08,6.02-2.17,9.04-3.23.43-.15.71-.36.81-.84.1-.49.24-.98.43-1.45.2-.48.09-.83-.21-1.24-1.9-2.53-3.78-5.08-5.66-7.63-1.52-2.07-.46-4.65,2.08-5.04,3.21-.49,6.43-.97,9.64-1.44.33-.05.54-.18.69-.48.27-.53.53-1.06.84-1.56.23-.37.22-.68.03-1.07-1.4-2.92-2.78-5.84-4.15-8.77-1.04-2.24.57-4.62,3.03-4.49,3.12.16,6.25.32,9.37.5.6.03,1.08-.06,1.42-.62.23-.38.54-.73.86-1.05.32-.32.36-.65.25-1.08-.79-3.08-1.56-6.17-2.33-9.25-.64-2.59,1.32-4.56,3.92-3.92,2.83.7,5.68,1.38,8.49,2.15.97.27,1.74.27,2.41-.55.16-.2.39-.35.61-.49.39-.25.54-.58.51-1.05-.09-1.34-.14-2.67-.21-4.01-.09-1.82-.18-3.65-.28-5.47-.03-.46.01-.9.14-1.34.56-1.84,2.56-2.68,4.39-1.83,2.93,1.37,5.85,2.76,8.77,4.15.35.17.63.18.97-.03.52-.32,1.07-.59,1.61-.86.29-.15.43-.36.48-.69.45-3.1.91-6.19,1.37-9.28.07-.48.14-.96.36-1.41.87-1.77,3.04-2.28,4.7-1.06,2.6,1.9,5.18,3.82,7.76,5.75.34.25.64.35,1.05.19.52-.2,1.06-.35,1.6-.48.4-.1.62-.3.75-.69.34-1.02.72-2.03,1.08-3.05.73-2.05,1.45-4.1,2.2-6.14.58-1.57,2.05-2.38,3.61-2.03.74.17,1.31.6,1.82,1.16,2.15,2.38,4.3,4.74,6.45,7.11.17.19.33.38.65.33.6-.09,1.21-.13,1.82-.17.45-.03.75-.22.99-.63,1.59-2.7,3.21-5.38,4.82-8.06,1.45-2.42,4.2-2.43,5.65-.02,1.54,2.56,3.11,5.11,4.6,7.71.42.73.95.89,1.72,1.06,1.35.29,2.12-.28,2.94-1.23,1.8-2.12,3.72-4.14,5.59-6.2.75-.82,1.66-1.26,2.79-1.1,1.3.18,2.13.94,2.57,2.16,1.08,3.01,2.16,6.02,3.23,9.04.15.42.37.66.81.76.56.13,1.11.31,1.65.5.33.12.59.07.87-.14.66-.51,1.34-1,2.01-1.5,1.96-1.45,3.9-2.91,5.87-4.35,1.93-1.4,4.57-.39,4.93,1.91.49,3.07.95,6.15,1.36,9.23.11.78.34,1.34,1.13,1.61.31.1.61.27.87.47.47.35.89.29,1.4.04,2.85-1.38,5.71-2.73,8.58-4.07,2.16-1.01,4.52.45,4.5,2.8-.02,1.65-.16,3.3-.25,4.95-.08,1.7-.16,3.4-.25,5.1-.02.31.09.53.33.72.47.36.94.73,1.37,1.13.32.3.63.33,1.04.23,3.08-.79,6.17-1.56,9.26-2.32,2.6-.65,4.57,1.31,3.93,3.9-.69,2.8-1.35,5.61-2.13,8.39-.29,1.04-.29,1.87.58,2.59.22.19.39.45.56.69.19.27.43.38.76.35.61-.04,1.21-.07,1.82-.1,2.62-.13,5.24-.25,7.86-.4,1.48-.08,2.78.68,3.28,2,.34.9.22,1.77-.18,2.62-1.38,2.91-2.75,5.82-4.13,8.72-.15.31-.17.57.02.88.31.52.59,1.06.86,1.61.16.33.38.49.76.54,3.2.46,6.4.93,9.59,1.44,2.62.42,3.62,2.97,2.04,5.11-1.81,2.45-3.61,4.91-5.45,7.33-.42.55-.6,1.04-.3,1.7.2.44.3.93.42,1.4.08.3.25.47.54.57.87.3,1.74.62,2.6.93,2.23.8,4.46,1.58,6.68,2.4,1.58.58,2.38,2.04,2.04,3.6-.16.74-.59,1.32-1.15,1.82-2.35,2.12-4.69,4.26-7.04,6.38-.29.26-.47.51-.38.94.09.49.11,1,.13,1.5.02.51.2.85.67,1.13,2.62,1.54,5.22,3.14,7.84,4.68,1.02.6,1.74,1.37,1.99,2.54v.84c-.25,1.17-.97,1.94-1.99,2.54-2.49,1.45-4.94,2.99-7.44,4.43-.75.43-1.17.9-1.1,1.79.03.39-.04.8-.12,1.19-.06.32.04.52.27.73.69.61,1.37,1.23,2.05,1.85,1.79,1.63,3.61,3.22,5.36,4.89,1.68,1.59,1.14,4.21-.99,5.1-.24.1-.49.18-.73.27-2.85,1.02-5.69,2.05-8.55,3.05-.4.14-.64.35-.74.77-.11.51-.26,1.01-.45,1.5-.18.46-.1.8.19,1.19,1.91,2.55,3.8,5.1,5.69,7.67,1.51,2.05.46,4.63-2.04,5.03-3.21.5-6.42.97-9.64,1.44-.37.05-.6.2-.76.53-.25.51-.51,1.03-.81,1.52-.23.37-.21.68-.03,1.07,1.39,2.92,2.78,5.84,4.15,8.77,1.05,2.27-.59,4.63-3.08,4.49-3.09-.18-6.18-.31-9.27-.5-.67-.04-1.17.11-1.54.71-.21.35-.5.67-.79.97-.32.32-.36.65-.25,1.08.69,2.69,1.36,5.39,2.04,8.09.16.62.36,1.25.42,1.88.2,2.1-1.77,3.82-4,3.23-2.84-.75-5.71-1.4-8.54-2.18-.97-.27-1.74-.27-2.41.54-.11.13-.25.25-.4.33-.64.35-.75.9-.71,1.58.19,3.09.34,6.18.5,9.27.08,1.53-.83,2.83-2.26,3.25-.85.25-1.64.08-2.42-.29-2.86-1.36-5.72-2.7-8.58-4.07-.38-.18-.7-.2-1.07.03-.49.3-1,.56-1.52.81-.33.16-.48.39-.54.76-.46,3.18-1.02,6.35-1.4,9.54-.28,2.31-2.96,3.81-5.2,2.06-2.4-1.87-4.9-3.62-7.32-5.46-.55-.42-1.03-.55-1.66-.26-.36.16-.76.27-1.15.35-.51.09-.75.38-.91.86-1.03,2.95-2.1,5.89-3.15,8.84-.34.95-.89,1.69-1.84,2.08-1.26.51-2.55.2-3.55-.89-1.94-2.12-3.9-4.22-5.77-6.39-.75-.87-1.47-1.4-2.64-1.03-.18.06-.38.03-.57.03-.49.02-.81.22-1.08.67-1.54,2.62-3.14,5.21-4.68,7.84-.6,1.02-1.37,1.74-2.54,1.99Zm-57.38-158.61s.04.09.07.14c.28,0,.55,0,.83,0,26.93,0,53.86,0,80.79,0,1.79,0,3.58.12,5.35.44,7.42,1.37,13.51,5.01,18.25,10.86,3.41,4.2,5.49,8.99,5.85,14.42.35,5.16-1.05,9.88-3.95,14.15-2.63,3.87-6.12,6.81-10.08,9.23-.52.32-.52.31-.07.68.16.13.33.26.48.4,4.95,4.61,8.28,10.18,9.78,16.78.65,2.87,2.16,4.96,4.74,6.31,1.15.6,2.38.96,3.68,1.07,2.86.24,5.35-.54,7.27-2.74,1.61-1.85,2.24-4.09,2.41-6.48.13-1.74.1-3.48.1-5.22,0-1.06.31-1.38,1.36-1.38,2.28,0,4.56-.01,6.84,0,.47,0,.67-.17.68-.63.02-.56.08-1.11.1-1.67.1-4.33.08-8.66-.47-12.97-.07-.55-.3-.82-.75-1.05-3.88-1.96-7.75-3.94-11.62-5.92-3.45-1.77-4.57-5.21-2.82-8.67,1.99-3.93,3.99-7.85,6-11.76.2-.39.19-.68-.02-1.06-3.28-5.86-7.24-11.22-11.9-16.06-6.81-7.07-14.67-12.67-23.59-16.78-5.57-2.56-11.37-4.41-17.38-5.61-.46-.09-.77.02-1.1.36-3.03,3.05-6.07,6.09-9.11,9.12-.34.34-.7.69-1.08.98-2.43,1.85-5.79,1.6-8.04-.63-3.18-3.15-6.33-6.31-9.48-9.49-.32-.32-.61-.43-1.06-.34-6.59,1.3-12.9,3.4-18.94,6.34-8.36,4.07-15.75,9.48-22.19,16.18-.31.32-.61.66-.91.99Zm26.6,99.13c-10.35,0-20.7,0-31.05,0-.18,0-.43-.1-.52.11-.08.17.13.3.23.44,1.53,2.01,3.16,3.93,4.87,5.79.32.35.64.45,1.1.38,4.41-.71,8.82-1.4,13.23-2.1,3.34-.53,6.45,1.63,7.04,4.95.31,1.76.57,3.53.85,5.3.43,2.73.86,5.46,1.28,8.19.06.41.23.69.64.85,1.04.43,2.07.92,3.11,1.35,8.3,3.45,16.96,5.35,25.93,5.77,5.38.25,10.74-.03,16.06-.9,6.99-1.14,13.7-3.18,20.15-6.13.53-.24.75-.56.84-1.11.68-4.43,1.37-8.86,2.1-13.28.55-3.31,3.7-5.52,7.01-4.99,4.41.71,8.82,1.4,13.23,2.1.47.08.82-.03,1.15-.4,1.67-1.82,3.27-3.7,4.77-5.67.13-.17.41-.33.28-.56-.1-.18-.39-.08-.59-.08-5.43,0-10.86,0-16.28,0-4.58,0-9.15.01-13.73,0-3.59-.01-6.52-1.39-8.63-4.35-1.43-2.01-2.3-4.28-2.99-6.63-1.15-3.91-1.79-7.93-2.72-11.89-.73-3.12-1.57-6.21-3.1-9.05-2.25-4.16-5.69-6.37-10.46-6.38-6.23-.01-12.46,0-18.68-.01-.77,0-.79.02-.79.79,0,4.12,0,8.25,0,12.37,0,.79,0,.79.78.79,5.2,0,10.4,0,15.6,0,.23,0,.45,0,.68.02.62.06.98.41,1.07,1.03.03.24.03.49.03.73,0,6.94,0,13.88,0,20.82,0,.23,0,.45-.02.68-.08.65-.43,1-1.08,1.07-.26.03-.52.02-.78.02-10.19,0-20.39,0-30.58,0Zm-20.1-49.46c0-8.16,0-16.32,0-24.48,0-.41-.03-.7-.57-.7-3.97.02-7.93.01-11.9,0-.45,0-.51.15-.31.53.54,1.05,1.09,2.1,1.6,3.17,1.41,2.93.32,6.39-2.52,7.99-.39.22-.8.42-1.2.63-3.69,1.88-7.38,3.76-11.07,5.64-.28.14-.54.26-.59.65-.23,1.95-.43,3.91-.49,5.87-.13,4.03-.08,8.06.37,12.09.49,4.38,1.31,8.69,2.52,12.93.22.78.23.78,1.02.78,7.43,0,14.86,0,22.29,0q.84,0,.85-.83c0-8.09,0-16.18,0-24.27Zm48.1-11.21c3.76,0,7.51,0,11.27,0,1.15,0,2.29-.04,3.43-.24,2.07-.37,4-1.03,5.63-2.42,2.75-2.35,2.85-5.91.24-8.4-.43-.41-.9-.77-1.41-1.07-2.09-1.25-4.39-1.78-6.78-1.79-8.47-.04-16.94-.02-25.41-.02-.62,0-.66.04-.66.7,0,4.14,0,8.28,0,12.42q0,.83.86.83c4.28,0,8.56,0,12.84,0Zm-74.41-4.73c3.28.02,5.97-2.63,6.03-5.94.06-3.27-2.61-5.99-5.93-6.02-3.35-.03-6.05,2.62-6.07,5.94-.02,3.26,2.7,6,5.96,6.02Zm153.52-11.96c-3.34-.02-6.01,2.63-6.03,5.97-.02,3.22,2.7,5.96,5.94,5.99,3.32.02,6.05-2.69,6.05-6.03,0-3.26-2.66-5.91-5.97-5.93Zm-29.32,90.2c-3.35,0-5.96,2.6-5.97,5.94,0,3.32,2.63,6,5.92,6.01,3.31.01,6.03-2.69,6.03-5.99,0-3.31-2.66-5.95-5.98-5.96Zm-88.89,5.96c0-3.35-2.6-5.96-5.94-5.96-3.34,0-6.01,2.66-6,5.98,0,3.27,2.72,5.97,6,5.97,3.3,0,5.95-2.67,5.95-5.99Zm41.44-139.95c3.29,0,6.03-2.73,6.02-6.02-.01-3.28-2.66-5.92-5.96-5.94-3.35-.02-6.04,2.64-6.03,5.95,0,3.29,2.7,5.99,5.97,6Z" style="fill: #8747cc; stroke-width: 0px;"/>
    </g>
    <path d="m193.23,281.95h-.84c-1.17-.25-1.94-.97-2.54-1.99-1.46-2.51-3-4.97-4.46-7.49-.41-.71-.86-1.11-1.71-1.05-.41.03-.83-.04-1.24-.12-.32-.06-.52.05-.72.28-.66.74-1.33,1.47-2,2.2-1.54,1.7-3.08,3.4-4.63,5.1-.72.8-1.62,1.19-2.7,1.05-1.3-.16-2.15-.91-2.59-2.13-1.08-3.01-2.17-6.02-3.23-9.04-.15-.43-.37-.71-.84-.8-.48-.1-.95-.23-1.4-.42-.52-.23-.9-.09-1.33.24-2.53,1.9-5.07,3.79-7.63,5.66-2.02,1.48-4.61.4-4.99-2.07-.49-3.23-.97-6.46-1.45-9.69-.05-.33-.19-.54-.48-.69-.53-.27-1.06-.53-1.56-.84-.37-.23-.68-.21-1.07-.03-2.92,1.39-5.84,2.78-8.77,4.15-2.26,1.05-4.63-.6-4.49-3.09.18-3.09.31-6.18.5-9.27.04-.65-.08-1.14-.67-1.5-.37-.23-.7-.52-1.01-.83-.32-.33-.65-.36-1.08-.25-2.52.65-5.06,1.28-7.59,1.91-.57.14-1.15.29-1.72.43-2.53.61-4.5-1.36-3.88-3.88.72-2.94,1.43-5.88,2.22-8.8.22-.81.18-1.42-.47-1.99-.28-.25-.5-.58-.73-.89-.2-.28-.45-.41-.8-.38-.55.05-1.11.07-1.67.1-2.67.13-5.35.26-8.02.4-.68.03-1.32-.08-1.91-.42-1.45-.83-1.95-2.53-1.2-4.12,1.37-2.93,2.76-5.85,4.15-8.77.17-.35.17-.63-.03-.97-.31-.5-.58-1.03-.84-1.56-.16-.33-.4-.47-.76-.53-3.18-.46-6.36-.93-9.54-1.43-2.65-.41-3.67-2.97-2.07-5.13,1.88-2.54,3.76-5.09,5.66-7.63.25-.34.34-.64.18-1.05-.19-.48-.35-.99-.45-1.5-.1-.51-.4-.74-.87-.9-3-1.06-6-2.14-8.99-3.21-1.22-.44-1.96-1.3-2.12-2.6-.14-1.1.29-2,1.1-2.74,2.37-2.15,4.73-4.31,7.12-6.45.33-.3.48-.58.4-1.03-.09-.49-.1-1-.13-1.51-.03-.47-.21-.79-.64-1.04-2.71-1.6-5.41-3.23-8.1-4.85-2.35-1.42-2.35-4.18,0-5.6,2.44-1.47,4.87-2.97,7.35-4.38.93-.53,1.59-1.08,1.43-2.24-.01-.08.02-.17.04-.26.18-.76.07-1.39-.66-1.83-.22-.13-.39-.35-.58-.52-2.09-1.89-4.18-3.79-6.26-5.68-.8-.72-1.2-1.62-1.06-2.7.16-1.3.9-2.16,2.12-2.6,3.01-1.08,6.02-2.17,9.04-3.23.43-.15.71-.36.81-.84.1-.49.24-.98.43-1.45.2-.48.09-.83-.21-1.24-1.9-2.53-3.78-5.08-5.66-7.63-1.52-2.07-.46-4.65,2.08-5.04,3.21-.49,6.43-.97,9.64-1.44.33-.05.54-.18.69-.48.27-.53.53-1.06.84-1.56.23-.37.22-.68.03-1.07-1.4-2.92-2.78-5.84-4.15-8.77-1.04-2.24.57-4.62,3.03-4.49,3.12.16,6.25.32,9.37.5.6.03,1.08-.06,1.42-.62.23-.38.54-.73.86-1.05.32-.32.36-.65.25-1.08-.79-3.08-1.56-6.17-2.33-9.25-.64-2.59,1.32-4.56,3.92-3.92,2.83.7,5.68,1.38,8.49,2.15.97.27,1.74.27,2.41-.55.16-.2.39-.35.61-.49.39-.25.54-.58.51-1.05-.09-1.34-.14-2.67-.21-4.01-.09-1.82-.18-3.65-.28-5.47-.03-.46.01-.9.14-1.34.56-1.84,2.56-2.68,4.39-1.83,2.93,1.37,5.85,2.76,8.77,4.15.35.17.63.18.97-.03.52-.32,1.07-.59,1.61-.86.29-.15.43-.36.48-.69.45-3.1.91-6.19,1.37-9.28.07-.48.14-.96.36-1.41.87-1.77,3.04-2.28,4.7-1.06,2.6,1.9,5.18,3.82,7.76,5.75.34.25.64.35,1.05.19.52-.2,1.06-.35,1.6-.48.4-.1.62-.3.75-.69.34-1.02.72-2.03,1.08-3.05.73-2.05,1.45-4.1,2.2-6.14.58-1.57,2.05-2.38,3.61-2.03.74.17,1.31.6,1.82,1.16,2.15,2.38,4.3,4.74,6.45,7.11.17.19.33.38.65.33.6-.09,1.21-.13,1.82-.17.45-.03.75-.22.99-.63,1.59-2.7,3.21-5.38,4.82-8.06,1.45-2.42,4.2-2.43,5.65-.02,1.54,2.56,3.11,5.11,4.6,7.71.42.73.95.89,1.72,1.06,1.35.29,2.12-.28,2.94-1.23,1.8-2.12,3.72-4.14,5.59-6.2.75-.82,1.66-1.26,2.79-1.1,1.3.18,2.13.94,2.57,2.16,1.08,3.01,2.16,6.02,3.23,9.04.15.42.37.66.81.76.56.13,1.11.31,1.65.5.33.12.59.07.87-.14.66-.51,1.34-1,2.01-1.5,1.96-1.45,3.9-2.91,5.87-4.35,1.93-1.4,4.57-.39,4.93,1.91.49,3.07.95,6.15,1.36,9.23.11.78.34,1.34,1.13,1.61.31.1.61.27.87.47.47.35.89.29,1.4.04,2.85-1.38,5.71-2.73,8.58-4.07,2.16-1.01,4.52.45,4.5,2.8-.02,1.65-.16,3.3-.25,4.95-.08,1.7-.16,3.4-.25,5.1-.02.31.09.53.33.72.47.36.94.73,1.37,1.13.32.3.63.33,1.04.23,3.08-.79,6.17-1.56,9.26-2.32,2.6-.65,4.57,1.31,3.93,3.9-.69,2.8-1.35,5.61-2.13,8.39-.29,1.04-.29,1.87.58,2.59.22.19.39.45.56.69.19.27.43.38.76.35.61-.04,1.21-.07,1.82-.1,2.62-.13,5.24-.25,7.86-.4,1.48-.08,2.78.68,3.28,2,.34.9.22,1.77-.18,2.62-1.38,2.91-2.75,5.82-4.13,8.72-.15.31-.17.57.02.88.31.52.59,1.06.86,1.61.16.33.38.49.76.54,3.2.46,6.4.93,9.59,1.44,2.62.42,3.62,2.97,2.04,5.11-1.81,2.45-3.61,4.91-5.45,7.33-.42.55-.6,1.04-.3,1.7.2.44.3.93.42,1.4.08.3.25.47.54.57.87.3,1.74.62,2.6.93,2.23.8,4.46,1.58,6.68,2.4,1.58.58,2.38,2.04,2.04,3.6-.16.74-.59,1.32-1.15,1.82-2.35,2.12-4.69,4.26-7.04,6.38-.29.26-.47.51-.38.94.09.49.11,1,.13,1.5.02.51.2.85.67,1.13,2.62,1.54,5.22,3.14,7.84,4.68,1.02.6,1.74,1.37,1.99,2.54v.84c-.25,1.17-.97,1.94-1.99,2.54-2.49,1.45-4.94,2.99-7.44,4.43-.75.43-1.17.9-1.1,1.79.03.39-.04.8-.12,1.19-.06.32.04.52.27.73.69.61,1.37,1.23,2.05,1.85,1.79,1.63,3.61,3.22,5.36,4.89,1.68,1.59,1.14,4.21-.99,5.1-.24.1-.49.18-.73.27-2.85,1.02-5.69,2.05-8.55,3.05-.4.14-.64.35-.74.77-.11.51-.26,1.01-.45,1.5-.18.46-.1.8.19,1.19,1.91,2.55,3.8,5.1,5.69,7.67,1.51,2.05.46,4.63-2.04,5.03-3.21.5-6.42.97-9.64,1.44-.37.05-.6.2-.76.53-.25.51-.51,1.03-.81,1.52-.23.37-.21.68-.03,1.07,1.39,2.92,2.78,5.84,4.15,8.77,1.05,2.27-.59,4.63-3.08,4.49-3.09-.18-6.18-.31-9.27-.5-.67-.04-1.17.11-1.54.71-.21.35-.5.67-.79.97-.32.32-.36.65-.25,1.08.69,2.69,1.36,5.39,2.04,8.09.16.62.36,1.25.42,1.88.2,2.1-1.77,3.82-4,3.23-2.84-.75-5.71-1.4-8.54-2.18-.97-.27-1.74-.27-2.41.54-.11.13-.25.25-.4.33-.64.35-.75.9-.71,1.58.19,3.09.34,6.18.5,9.27.08,1.53-.83,2.83-2.26,3.25-.85.25-1.64.08-2.42-.29-2.86-1.36-5.72-2.7-8.58-4.07-.38-.18-.7-.2-1.07.03-.49.3-1,.56-1.52.81-.33.16-.48.39-.54.76-.46,3.18-1.02,6.35-1.4,9.54-.28,2.31-2.96,3.81-5.2,2.06-2.4-1.87-4.9-3.62-7.32-5.46-.55-.42-1.03-.55-1.66-.26-.36.16-.76.27-1.15.35-.51.09-.75.38-.91.86-1.03,2.95-2.1,5.89-3.15,8.84-.34.95-.89,1.69-1.84,2.08-1.26.51-2.55.2-3.55-.89-1.94-2.12-3.9-4.22-5.77-6.39-.75-.87-1.47-1.4-2.64-1.03-.18.06-.38.03-.57.03-.49.02-.81.22-1.08.67-1.54,2.62-3.14,5.21-4.68,7.84-.6,1.02-1.37,1.74-2.54,1.99Zm-57.38-158.61s.04.09.07.14c.28,0,.55,0,.83,0,26.93,0,53.86,0,80.79,0,1.79,0,3.58.12,5.35.44,7.42,1.37,13.51,5.01,18.25,10.86,3.41,4.2,5.49,8.99,5.85,14.42.35,5.16-1.05,9.88-3.95,14.15-2.63,3.87-6.12,6.81-10.08,9.23-.52.32-.52.31-.07.68.16.13.33.26.48.4,4.95,4.61,8.28,10.18,9.78,16.78.65,2.87,2.16,4.96,4.74,6.31,1.15.6,2.38.96,3.68,1.07,2.86.24,5.35-.54,7.27-2.74,1.61-1.85,2.24-4.09,2.41-6.48.13-1.74.1-3.48.1-5.22,0-1.06.31-1.38,1.36-1.38,2.28,0,4.56-.01,6.84,0,.47,0,.67-.17.68-.63.02-.56.08-1.11.1-1.67.1-4.33.08-8.66-.47-12.97-.07-.55-.3-.82-.75-1.05-3.88-1.96-7.75-3.94-11.62-5.92-3.45-1.77-4.57-5.21-2.82-8.67,1.99-3.93,3.99-7.85,6-11.76.2-.39.19-.68-.02-1.06-3.28-5.86-7.24-11.22-11.9-16.06-6.81-7.07-14.67-12.67-23.59-16.78-5.57-2.56-11.37-4.41-17.38-5.61-.46-.09-.77.02-1.1.36-3.03,3.05-6.07,6.09-9.11,9.12-.34.34-.7.69-1.08.98-2.43,1.85-5.79,1.6-8.04-.63-3.18-3.15-6.33-6.31-9.48-9.49-.32-.32-.61-.43-1.06-.34-6.59,1.3-12.9,3.4-18.94,6.34-8.36,4.07-15.75,9.48-22.19,16.18-.31.32-.61.66-.91.99Zm26.6,99.13c-10.35,0-20.7,0-31.05,0-.18,0-.43-.1-.52.11-.08.17.13.3.23.44,1.53,2.01,3.16,3.93,4.87,5.79.32.35.64.45,1.1.38,4.41-.71,8.82-1.4,13.23-2.1,3.34-.53,6.45,1.63,7.04,4.95.31,1.76.57,3.53.85,5.3.43,2.73.86,5.46,1.28,8.19.06.41.23.69.64.85,1.04.43,2.07.92,3.11,1.35,8.3,3.45,16.96,5.35,25.93,5.77,5.38.25,10.74-.03,16.06-.9,6.99-1.14,13.7-3.18,20.15-6.13.53-.24.75-.56.84-1.11.68-4.43,1.37-8.86,2.1-13.28.55-3.31,3.7-5.52,7.01-4.99,4.41.71,8.82,1.4,13.23,2.1.47.08.82-.03,1.15-.4,1.67-1.82,3.27-3.7,4.77-5.67.13-.17.41-.33.28-.56-.1-.18-.39-.08-.59-.08-5.43,0-10.86,0-16.28,0-4.58,0-9.15.01-13.73,0-3.59-.01-6.52-1.39-8.63-4.35-1.43-2.01-2.3-4.28-2.99-6.63-1.15-3.91-1.79-7.93-2.72-11.89-.73-3.12-1.57-6.21-3.1-9.05-2.25-4.16-5.69-6.37-10.46-6.38-6.23-.01-12.46,0-18.68-.01-.77,0-.79.02-.79.79,0,4.12,0,8.25,0,12.37,0,.79,0,.79.78.79,5.2,0,10.4,0,15.6,0,.23,0,.45,0,.68.02.62.06.98.41,1.07,1.03.03.24.03.49.03.73,0,6.94,0,13.88,0,20.82,0,.23,0,.45-.02.68-.08.65-.43,1-1.08,1.07-.26.03-.52.02-.78.02-10.19,0-20.39,0-30.58,0Zm-20.1-49.46c0-8.16,0-16.32,0-24.48,0-.41-.03-.7-.57-.7-3.97.02-7.93.01-11.9,0-.45,0-.51.15-.31.53.54,1.05,1.09,2.1,1.6,3.17,1.41,2.93.32,6.39-2.52,7.99-.39.22-.8.42-1.2.63-3.69,1.88-7.38,3.76-11.07,5.64-.28.14-.54.26-.59.65-.23,1.95-.43,3.91-.49,5.87-.13,4.03-.08,8.06.37,12.09.49,4.38,1.31,8.69,2.52,12.93.22.78.23.78,1.02.78,7.43,0,14.86,0,22.29,0q.84,0,.85-.83c0-8.09,0-16.18,0-24.27Zm48.1-11.21c3.76,0,7.51,0,11.27,0,1.15,0,2.29-.04,3.43-.24,2.07-.37,4-1.03,5.63-2.42,2.75-2.35,2.85-5.91.24-8.4-.43-.41-.9-.77-1.41-1.07-2.09-1.25-4.39-1.78-6.78-1.79-8.47-.04-16.94-.02-25.41-.02-.62,0-.66.04-.66.7,0,4.14,0,8.28,0,12.42q0,.83.86.83c4.28,0,8.56,0,12.84,0Zm-74.41-4.73c3.28.02,5.97-2.63,6.03-5.94.06-3.27-2.61-5.99-5.93-6.02-3.35-.03-6.05,2.62-6.07,5.94-.02,3.26,2.7,6,5.96,6.02Zm153.52-11.96c-3.34-.02-6.01,2.63-6.03,5.97-.02,3.22,2.7,5.96,5.94,5.99,3.32.02,6.05-2.69,6.05-6.03,0-3.26-2.66-5.91-5.97-5.93Zm-29.32,90.2c-3.35,0-5.96,2.6-5.97,5.94,0,3.32,2.63,6,5.92,6.01,3.31.01,6.03-2.69,6.03-5.99,0-3.31-2.66-5.95-5.98-5.96Zm-88.89,5.96c0-3.35-2.6-5.96-5.94-5.96-3.34,0-6.01,2.66-6,5.98,0,3.27,2.72,5.97,6,5.97,3.3,0,5.95-2.67,5.95-5.99Zm41.44-139.95c3.29,0,6.03-2.73,6.02-6.02-.01-3.28-2.66-5.92-5.96-5.94-3.35-.02-6.04,2.64-6.03,5.95,0,3.29,2.7,5.99,5.97,6Z" style="fill: #110024; stroke-width: 0px;"/>
  </g>
</svg>