<?xml version="1.0" encoding="utf-8"?>
<!-- Generator: Adobe Illustrator 27.1.1, SVG Export Plug-In . SVG Version: 6.00 Build 0)  -->
<svg version="1.1" id="Layer_1" xmlns="http://www.w3.org/2000/svg" xmlns:xlink="http://www.w3.org/1999/xlink" x="0px" y="0px"
	 viewBox="0 0 562.6 145.8" style="enable-background:new 0 0 562.6 145.8;" xml:space="preserve">
<style type="text/css">
	.st0{fill:#1B1B1D;}
	.st1{fill-rule:evenodd;clip-rule:evenodd;fill:#1B1B1D;}
	.st2{clip-path:url(#SVGID_00000144315206000891879660000008897419640584214440_);}
	.st3{fill:#FFFFFF;}
</style>
<g>
	<g>
		<path class="st0" d="M562.6,30.4v75.4c0,11.9-7.3,22.1-17.7,26.5c-1,0.4-2.2-0.4-2.2-1.5c0-0.2,0-0.3,0-0.4
			c-2.1-12.3-17.1-17.6-30.6-17c-9.1,0.4-19.1,4-24.6,10c-0.6,0.7-1.6,0.7-2.3,0.1c-4.7-4.5-12.4-7.1-19.6-7.3
			c-8.3-0.2-17.6,2.6-22.4,8.2c-0.6,0.7-1.6,0.8-2.3,0.2c-3.5-2.9-8.6-4.7-13.4-4.9c-12.5-0.6-19.7,7.3-19.5,12.9c0,0.1,0,0.2,0,0.3
			c0,0.9-0.7,1.6-1.6,1.6h-376C13.7,134.5,0,120.9,0,104.2V30.4C0,13.7,13.7,0,30.4,0h501.8C548.9,0,562.6,13.7,562.6,30.4z"/>
		<g>
			<path class="st1" d="M533.5,132.3c0.3,7-8.5,13-19.5,13.4c-11.1,0.5-20.3-4.8-20.6-11.8c-0.3-8,10.3-13,19.5-13.4
				C522.1,120.2,533.2,124.3,533.5,132.3z"/>
			<path class="st1" d="M481.1,133.5c-0.3,5.7-7.9,10.2-17,10c-9.1-0.2-16.2-5-15.9-10.7c0.4-6.6,9.4-10.1,17-10
				C473,123,481.5,127,481.1,133.5z"/>
			<path class="st1" d="M439.2,133.7c-0.3,4.3-6.2,7.7-13,7.4c-6.8-0.2-12.1-3.9-11.9-8.2c-0.1-3.2,4.7-7.8,13-7.6
				C433.1,125.6,439.6,128.7,439.2,133.7z"/>
		</g>
	</g>
	<g>
		<defs>
			<rect id="SVGID_1_" x="61.1" y="46.3" width="440.3" height="42"/>
		</defs>
		<clipPath id="SVGID_00000110453822868198869320000004754048251918242979_">
			<use xlink:href="#SVGID_1_"  style="overflow:visible;"/>
		</clipPath>
		<g style="clip-path:url(#SVGID_00000110453822868198869320000004754048251918242979_);">
			<path class="st3" d="M125.1,81.6v-34c0-0.2-0.1-0.3-0.2-0.4c-0.1-0.1-0.3-0.2-0.4-0.2h-4.9c-0.2,0-0.3,0.1-0.4,0.2
				c-0.1,0.1-0.2,0.3-0.2,0.4v39.5c0,0.2,0.1,0.3,0.2,0.4c0.1,0.1,0.3,0.2,0.4,0.2h25.3c0.2,0,0.3-0.1,0.4-0.2
				c0.1-0.1,0.2-0.3,0.2-0.4v-4.9c0-0.2-0.1-0.3-0.2-0.4c-0.1-0.1-0.3-0.2-0.4-0.2H125.1z"/>
			<path class="st3" d="M188.3,46.9H159c-0.3,0-0.6,0.3-0.6,0.6v4.9c0,0.3,0.3,0.6,0.6,0.6h29.4c0.3,0,0.6-0.3,0.6-0.6v-4.9
				C188.9,47.2,188.7,46.9,188.3,46.9z"/>
			<path class="st3" d="M188.3,81.6H159c-0.3,0-0.6,0.3-0.6,0.6v4.9c0,0.3,0.3,0.6,0.6,0.6h29.4c0.3,0,0.6-0.3,0.6-0.6v-4.9
				C188.9,81.9,188.7,81.6,188.3,81.6z"/>
			<path class="st3" d="M188.3,64.2H159c-0.3,0-0.6,0.3-0.6,0.6v4.9c0,0.3,0.3,0.6,0.6,0.6h29.4c0.3,0,0.6-0.3,0.6-0.6v-4.9
				C188.9,64.5,188.7,64.2,188.3,64.2z"/>
			<path class="st3" d="M403.6,46.9h-29.4c-0.3,0-0.6,0.3-0.6,0.6v4.9c0,0.3,0.3,0.6,0.6,0.6h29.4c0.3,0,0.6-0.3,0.6-0.6v-4.9
				C404.2,47.2,403.9,46.9,403.6,46.9z"/>
			<path class="st3" d="M403.6,81.6h-29.4c-0.3,0-0.6,0.3-0.6,0.6v4.9c0,0.3,0.3,0.6,0.6,0.6h29.4c0.3,0,0.6-0.3,0.6-0.6v-4.9
				C404.2,81.9,403.9,81.6,403.6,81.6z"/>
			<path class="st3" d="M403.6,64.2h-29.4c-0.3,0-0.6,0.3-0.6,0.6v4.9c0,0.3,0.3,0.6,0.6,0.6h29.4c0.3,0,0.6-0.3,0.6-0.6v-4.9
				C404.2,64.5,403.9,64.2,403.6,64.2z"/>
			<path class="st3" d="M285.6,46.9h-4.9c-0.3,0-0.6,0.3-0.6,0.6v39.5c0,0.3,0.3,0.6,0.6,0.6h4.9c0.3,0,0.6-0.3,0.6-0.6V47.5
				C286.2,47.2,285.9,46.9,285.6,46.9z"/>
			<path class="st3" d="M273.3,64.3h-15.7V47.6c0-0.2-0.1-0.3-0.2-0.4s-0.3-0.2-0.4-0.2h-4.9c-0.2,0-0.3,0.1-0.4,0.2
				c-0.1,0.1-0.2,0.3-0.2,0.4v16.7H246c-0.2,0-0.3,0.1-0.4,0.2s-0.2,0.3-0.2,0.4v4.9c0,0.2,0.1,0.3,0.2,0.4c0.1,0.1,0.3,0.2,0.4,0.2
				h5.5v16.7c0,0.2,0.1,0.3,0.2,0.4c0.1,0.1,0.3,0.2,0.4,0.2h4.9c0.2,0,0.3-0.1,0.4-0.2c0.1-0.1,0.2-0.3,0.2-0.4V70.4h15.7
				c0.2,0,0.3-0.1,0.4-0.2c0.1-0.1,0.2-0.3,0.2-0.4v-4.9c0-0.2-0.1-0.3-0.2-0.4C273.6,64.3,273.5,64.3,273.3,64.3z"/>
			<path class="st3" d="M96.5,70.4h6.8c0.2,0,0.3-0.1,0.4-0.2c0.1-0.1,0.2-0.3,0.2-0.4v-4.9c0-0.2-0.1-0.3-0.2-0.4
				c-0.1-0.1-0.3-0.2-0.4-0.2h-9.5l-7.5-16.8c-0.1-0.1-0.2-0.3-0.3-0.4c-0.1-0.1-0.3-0.1-0.4-0.1h-6.1c-0.2,0-0.3,0-0.4,0.1
				c-0.1,0.1-0.2,0.2-0.3,0.4l-7.5,16.8h-9.5c-0.1,0-0.2,0-0.2,0c-0.1,0-0.1,0.1-0.2,0.1c-0.1,0.1-0.1,0.1-0.1,0.2
				c0,0.1,0,0.2,0,0.2v4.9c0,0.2,0.1,0.3,0.2,0.4c0.1,0.1,0.3,0.2,0.4,0.2h6.8l-7.3,16.5c0,0.1-0.1,0.2,0,0.3c0,0.1,0,0.2,0.1,0.3
				c0.1,0.1,0.1,0.2,0.2,0.2c0.1,0,0.2,0.1,0.3,0.1h5.5c0.2,0,0.3,0,0.4-0.1c0.1-0.1,0.2-0.2,0.3-0.4l14.6-32.8l14.6,32.8
				c0.1,0.1,0.2,0.3,0.3,0.4c0.1,0.1,0.3,0.1,0.4,0.1h5.5c0.1,0,0.2,0,0.3-0.1c0.1,0,0.2-0.1,0.2-0.2c0.1-0.1,0.1-0.2,0.1-0.3
				c0-0.1,0-0.2-0.1-0.3L96.5,70.4z"/>
			<path class="st3" d="M235.3,56c-1.1-2.7-3-5-5.5-6.6c-2.4-1.6-5.3-2.5-8.2-2.5h-17.2c-0.2,0-0.3,0.1-0.4,0.2
				c-0.1,0.1-0.2,0.3-0.2,0.4v4.9c0,0.2,0.1,0.3,0.2,0.4c0.1,0.1,0.3,0.2,0.4,0.2h17.2c1.2,0,2.3,0.2,3.4,0.7
				c1.5,0.7,2.9,1.7,3.8,3.1c1,1.4,1.5,3.1,1.5,4.8c0,1.2-0.2,2.3-0.7,3.4c-0.7,1.5-1.8,2.9-3.1,3.8c-1.4,1-3.1,1.5-4.8,1.5h-17.2
				c-0.2,0-0.3,0.1-0.4,0.2c-0.1,0.1-0.2,0.3-0.2,0.4v16.1c0,0.2,0.1,0.3,0.2,0.4c0.1,0.1,0.3,0.2,0.4,0.2h4.9
				c0.2,0,0.3-0.1,0.4-0.2c0.1-0.1,0.2-0.3,0.2-0.4V76.5h11.7c3.9,0,7.7-1.6,10.4-4.3c2.8-2.8,4.3-6.5,4.3-10.4
				C236.5,59.7,236.1,57.8,235.3,56z"/>
			<path class="st3" d="M449.2,70c1.6-2.4,2.5-5.3,2.5-8.3c0-1.9-0.4-3.9-1.1-5.7c-0.7-1.8-1.8-3.4-3.2-4.8c-1.4-1.4-3-2.5-4.8-3.2
				c-1.8-0.7-3.7-1.1-5.7-1.1h-17.2c-0.2,0-0.3,0.1-0.4,0.2c-0.1,0.1-0.2,0.3-0.2,0.4v4.9c0,0.2,0.1,0.3,0.2,0.4
				c0.1,0.1,0.3,0.2,0.4,0.2H437c1.2,0,2.3,0.2,3.4,0.7c1.6,0.7,2.9,1.8,3.9,3.2c0.9,1.4,1.4,3.1,1.4,4.8c0,1.2-0.2,2.3-0.7,3.4
				c-0.7,1.5-1.8,2.9-3.1,3.8c-1.4,1-3.1,1.5-4.8,1.5h-17.2c-0.2,0-0.3,0.1-0.4,0.2c-0.1,0.1-0.2,0.3-0.2,0.4v16.1
				c0,0.2,0.1,0.3,0.2,0.4c0.1,0.1,0.3,0.2,0.4,0.2h4.9c0.2,0,0.3-0.1,0.4-0.2c0.1-0.1,0.2-0.3,0.2-0.4V76.5H437c1,0,2-0.1,3-0.3
				l5,11.2c0,0.1,0.1,0.2,0.2,0.3c0.1,0.1,0.2,0.1,0.3,0.1h5.6c0.1,0,0.2,0,0.3-0.1c0.1,0,0.2-0.1,0.2-0.2c0.1-0.1,0.1-0.2,0.1-0.3
				c0-0.1,0-0.2-0.1-0.3l-5.9-13.3C447.1,72.6,448.3,71.4,449.2,70z"/>
			<path class="st3" d="M360.1,46.9h-29.4c-0.2,0-0.3,0.1-0.4,0.2c-0.1,0.1-0.2,0.3-0.2,0.4v4.9c0,0.2,0.1,0.3,0.2,0.4
				c0.1,0.1,0.3,0.2,0.4,0.2h20.9l-8.1,10.4c-0.1,0.1-0.1,0.2-0.1,0.3c0,0.1,0,0.2,0,0.3c0,0.1,0.1,0.2,0.2,0.2
				c0.1,0.1,0.2,0.1,0.3,0.1h6.2c0.2,0,0.4,0,0.5-0.1c0.2-0.1,0.3-0.2,0.4-0.3l9.4-12c0.2-0.2,0.3-0.5,0.3-0.8v-3.5
				c0-0.1,0-0.2,0-0.2c0-0.1-0.1-0.1-0.1-0.2c-0.1-0.1-0.1-0.1-0.2-0.1C360.3,46.9,360.2,46.9,360.1,46.9z"/>
			<path class="st3" d="M360.1,81.6h-23l8.1-10.3c0.1-0.1,0.1-0.2,0.1-0.3c0-0.1,0-0.2,0-0.3c0-0.1-0.1-0.2-0.2-0.2
				c-0.1-0.1-0.2-0.1-0.3-0.1h-6.2c-0.2,0-0.4,0-0.5,0.1c-0.2,0.1-0.3,0.2-0.4,0.3l-9.3,11.9c-0.2,0.2-0.3,0.5-0.3,0.8v3.6
				c0,0.2,0.1,0.3,0.2,0.4c0.1,0.1,0.3,0.2,0.4,0.2h31.4c0.2,0,0.3-0.1,0.4-0.2c0.1-0.1,0.2-0.3,0.2-0.4v-4.9c0-0.1,0-0.2,0-0.2
				c0-0.1-0.1-0.1-0.1-0.2c-0.1-0.1-0.1-0.1-0.2-0.1C360.3,81.6,360.2,81.6,360.1,81.6z"/>
			<path class="st3" d="M495.9,70.3c-0.1,0-0.3,0.1-0.4,0.1c-0.1,0.1-0.2,0.2-0.2,0.4c-0.2,1-0.4,1.9-0.8,2.8
				c-0.9,2.5-2.6,4.7-4.8,6.3c-2.2,1.5-4.8,2.3-7.4,2.2c-1.8,0-3.5-0.3-5.2-1c-2.4-1-4.4-2.7-5.8-5c-1-1.6-1.7-3.4-2-5.3
				c0-0.1-0.1-0.3-0.2-0.4c-0.1-0.1-0.2-0.1-0.4-0.1h-5c-0.1,0-0.2,0-0.3,0.1c-0.1,0-0.2,0.1-0.2,0.2c-0.1,0.1-0.1,0.1-0.1,0.2
				c0,0.1,0,0.2,0,0.3c0.2,1.6,0.6,3.2,1.2,4.8c1.3,3.7,3.7,6.9,6.9,9.1c3.2,2.2,7,3.4,10.9,3.4c2.6,0,5.1-0.5,7.5-1.5
				c3.6-1.5,6.6-4.1,8.6-7.4c1.6-2.6,2.6-5.4,3-8.4c0-0.1,0-0.2,0-0.3c0-0.1-0.1-0.2-0.1-0.2c-0.1-0.1-0.1-0.1-0.2-0.2
				c-0.1,0-0.2-0.1-0.3-0.1H495.9z"/>
			<path class="st3" d="M468.8,64.2c0.1,0,0.3-0.1,0.4-0.1c0.1-0.1,0.2-0.2,0.2-0.4c0.2-1,0.4-1.9,0.8-2.9c0.9-2.5,2.6-4.7,4.8-6.3
				c2.2-1.5,4.8-2.3,7.4-2.2c1.8,0,3.5,0.3,5.2,1c2.4,1,4.4,2.7,5.8,5c1,1.6,1.7,3.5,2,5.4c0,0.1,0.1,0.3,0.2,0.4
				c0.1,0.1,0.2,0.1,0.4,0.1h5c0.1,0,0.2,0,0.3-0.1c0.1,0,0.2-0.1,0.2-0.2c0.1-0.1,0.1-0.1,0.1-0.2c0-0.1,0-0.2,0-0.3
				c-0.2-1.6-0.6-3.2-1.2-4.8c-1.4-3.7-3.8-6.9-7-9.2c-3.2-2.2-7-3.3-10.9-3.3c-2.6,0-5.1,0.5-7.5,1.5c-3.6,1.5-6.6,4.1-8.6,7.4
				c-1.6,2.6-2.6,5.4-3,8.4c0,0.1,0,0.2,0,0.3c0,0.1,0.1,0.2,0.1,0.2c0.1,0.1,0.1,0.1,0.2,0.2c0.1,0,0.2,0.1,0.3,0.1H468.8z"/>
		</g>
	</g>
</g>
</svg>
