<svg width="702" height="67" viewBox="0 0 702 67" fill="none" xmlns="http://www.w3.org/2000/svg">
<g clip-path="url(#clip0_232_763)">
<path d="M102.027 56.2967V2.03404C102.027 1.77552 101.924 1.52758 101.741 1.34477C101.558 1.16196 101.31 1.05927 101.052 1.05927H93.2537C92.9952 1.05927 92.7472 1.16196 92.5644 1.34477C92.3816 1.52758 92.2789 1.77552 92.2789 2.03404V65.0696C92.2789 65.3282 92.3816 65.5761 92.5644 65.7589C92.7472 65.9417 92.9952 66.0444 93.2537 66.0444H133.545C133.803 66.0444 134.051 65.9417 134.234 65.7589C134.417 65.5761 134.519 65.3282 134.519 65.0696V57.2714C134.519 57.0129 134.417 56.765 134.234 56.5822C134.051 56.3994 133.803 56.2967 133.545 56.2967H102.027Z" fill="white"/>
<path d="M202.754 1.05927H155.964C155.426 1.05927 154.99 1.49569 154.99 2.03404V9.83226C154.99 10.3706 155.426 10.807 155.964 10.807H202.754C203.292 10.807 203.728 10.3706 203.728 9.83226V2.03404C203.728 1.49569 203.292 1.05927 202.754 1.05927Z" fill="white"/>
<path d="M202.754 56.2966H155.964C155.426 56.2966 154.99 56.7331 154.99 57.2714V65.0696C154.99 65.608 155.426 66.0444 155.964 66.0444H202.754C203.292 66.0444 203.728 65.608 203.728 65.0696V57.2714C203.728 56.7331 203.292 56.2966 202.754 56.2966Z" fill="white"/>
<path d="M202.754 28.639H155.964C155.426 28.639 154.99 29.0754 154.99 29.6138V37.412C154.99 37.9503 155.426 38.3868 155.964 38.3868H202.754C203.292 38.3868 203.728 37.9503 203.728 37.412V29.6138C203.728 29.0754 203.292 28.639 202.754 28.639Z" fill="white"/>
<path d="M545.817 1.05927H499.028C498.489 1.05927 498.053 1.49569 498.053 2.03404V9.83226C498.053 10.3706 498.489 10.807 499.028 10.807H545.817C546.355 10.807 546.792 10.3706 546.792 9.83226V2.03404C546.792 1.49569 546.355 1.05927 545.817 1.05927Z" fill="white"/>
<path d="M545.817 56.2966H499.028C498.489 56.2966 498.053 56.7331 498.053 57.2714V65.0696C498.053 65.608 498.489 66.0444 499.028 66.0444H545.817C546.355 66.0444 546.792 65.608 546.792 65.0696V57.2714C546.792 56.7331 546.355 56.2966 545.817 56.2966Z" fill="white"/>
<path d="M545.817 28.639H499.028C498.489 28.639 498.053 29.0754 498.053 29.6138V37.412C498.053 37.9503 498.489 38.3868 499.028 38.3868H545.817C546.355 38.3868 546.792 37.9503 546.792 37.412V29.6138C546.792 29.0754 546.355 28.639 545.817 28.639Z" fill="white"/>
<path d="M357.743 1.05927H349.945C349.407 1.05927 348.97 1.49569 348.97 2.03404V65.0696C348.97 65.608 349.407 66.0444 349.945 66.0444H357.743C358.282 66.0444 358.718 65.608 358.718 65.0696V2.03404C358.718 1.49569 358.282 1.05927 357.743 1.05927Z" fill="white"/>
<path d="M338.248 28.691H313.228V2.04704C313.228 1.78852 313.126 1.54058 312.943 1.35777C312.76 1.17496 312.512 1.07227 312.254 1.07227H304.455C304.197 1.07227 303.949 1.17496 303.766 1.35777C303.583 1.54058 303.481 1.78852 303.481 2.04704V28.691H294.708C294.451 28.6909 294.205 28.7919 294.023 28.9719C293.841 29.1519 293.736 29.3965 293.733 29.6527V37.451C293.733 37.7095 293.836 37.9574 294.018 38.1402C294.201 38.323 294.449 38.4257 294.708 38.4257H303.481V65.0696C303.481 65.3282 303.583 65.5761 303.766 65.7589C303.949 65.9417 304.197 66.0444 304.455 66.0444H312.254C312.512 66.0444 312.76 65.9417 312.943 65.7589C313.126 65.5761 313.228 65.3282 313.228 65.0696V38.4257H338.248C338.506 38.4257 338.754 38.323 338.937 38.1402C339.12 37.9574 339.223 37.7095 339.223 37.451V29.6527C339.219 29.3965 339.115 29.1519 338.932 28.9719C338.75 28.7919 338.504 28.6909 338.248 28.691Z" fill="white"/>
<path d="M56.4461 38.3932H67.2596C67.5126 38.3934 67.7558 38.2952 67.9377 38.1193C68.1196 37.9435 68.226 37.7038 68.2344 37.451V29.6527C68.2344 29.3942 68.1317 29.1463 67.9489 28.9635C67.7661 28.7807 67.5182 28.678 67.2596 28.678H52.1051L40.1673 1.83259C40.0662 1.60434 39.9016 1.41004 39.693 1.2729C39.4844 1.13576 39.2407 1.0616 38.9911 1.05927H29.2433C28.9926 1.06035 28.7475 1.13393 28.5377 1.27114C28.3278 1.40836 28.1621 1.60334 28.0606 1.83259L16.1293 28.6455H0.974777C0.843987 28.6454 0.714519 28.6716 0.594084 28.7227C0.47365 28.7737 0.364714 28.8484 0.27376 28.9424C0.182805 29.0363 0.111693 29.1477 0.064662 29.2697C0.0176305 29.3918 -0.00435964 29.522 5.40749e-08 29.6527V37.451C5.40749e-08 37.7095 0.102699 37.9574 0.285505 38.1402C0.468311 38.323 0.71625 38.4257 0.974777 38.4257H11.7883L0.0909789 64.7057C0.032046 64.8521 0.00951515 65.0105 0.025318 65.1675C0.0411207 65.3245 0.0947844 65.4753 0.181705 65.6069C0.268625 65.7386 0.386203 65.8472 0.524341 65.9234C0.662478 65.9996 0.817049 66.0411 0.974777 66.0444H9.67629C9.92813 66.0446 10.1746 65.9716 10.3857 65.8343C10.5968 65.697 10.7635 65.5014 10.8655 65.2711L34.1172 13.049L57.3689 65.2711C57.4709 65.5014 57.6376 65.697 57.8487 65.8343C58.0598 65.9716 58.3063 66.0446 58.5581 66.0444H67.2596C67.4221 66.0444 67.5819 66.0038 67.7247 65.9262C67.8674 65.8487 67.9885 65.7367 68.077 65.6005C68.1654 65.4642 68.2184 65.3081 68.2312 65.1461C68.2439 64.9842 68.216 64.8216 68.1499 64.6732L56.4461 38.3932Z" fill="white"/>
<path d="M277.669 15.447C275.863 11.1827 272.842 7.54429 268.982 4.9857C265.122 2.42711 260.594 1.06152 255.964 1.05927H228.507C228.249 1.05927 228.001 1.16196 227.818 1.34477C227.635 1.52758 227.533 1.77552 227.533 2.03404V9.83226C227.533 10.0908 227.635 10.3387 227.818 10.5215C228.001 10.7043 228.249 10.807 228.507 10.807H255.964C257.81 10.8015 259.638 11.1707 261.338 11.8923C263.804 12.9377 265.915 14.6758 267.414 16.8962C268.961 19.1728 269.783 21.864 269.773 24.6164C269.775 26.4625 269.406 28.2902 268.688 29.9907C267.638 32.4583 265.898 34.5704 263.677 36.0733C261.401 37.614 258.713 38.4337 255.964 38.4257H228.507C228.249 38.4257 228.001 38.5284 227.818 38.7112C227.635 38.894 227.533 39.142 227.533 39.4005V65.0696C227.533 65.3282 227.635 65.5761 227.818 65.7589C228.001 65.9417 228.249 66.0444 228.507 66.0444H236.306C236.564 66.0444 236.812 65.9417 236.995 65.7589C237.178 65.5761 237.28 65.3282 237.28 65.0696V48.1735H255.964C262.211 48.1718 268.202 45.6893 272.619 41.2719C277.037 36.8544 279.519 30.8636 279.521 24.6164C279.521 21.467 278.892 18.3493 277.669 15.447Z" fill="white"/>
<path d="M618.587 37.7889C621.215 33.8992 622.617 29.3107 622.61 24.6164C622.611 21.5226 622.002 18.4589 620.818 15.6005C619.635 12.742 617.9 10.1447 615.712 7.95708C613.524 5.76943 610.927 4.03426 608.069 2.85071C605.21 1.66715 602.147 1.05841 599.053 1.05927H571.596C571.338 1.05927 571.09 1.16196 570.907 1.34477C570.724 1.52758 570.622 1.77552 570.622 2.03404V9.83226C570.622 10.0908 570.724 10.3387 570.907 10.5215C571.09 10.7043 571.338 10.807 571.596 10.807H599.053C600.899 10.8015 602.727 11.1707 604.427 11.8923C606.932 12.9449 609.07 14.7142 610.573 16.9779C612.076 19.2417 612.877 21.8991 612.875 24.6164C612.88 26.4621 612.513 28.2898 611.796 29.9907C610.744 32.4569 609.005 34.5685 606.786 36.0733C604.507 37.6142 601.817 38.4338 599.066 38.4257H571.596C571.338 38.4257 571.09 38.5284 570.907 38.7112C570.724 38.894 570.622 39.142 570.622 39.4005V65.0697C570.622 65.3282 570.724 65.5761 570.907 65.7589C571.09 65.9417 571.338 66.0444 571.596 66.0444H579.395C579.653 66.0444 579.901 65.9417 580.084 65.7589C580.267 65.5761 580.369 65.3282 580.369 65.0697V48.1735H599.053C600.684 48.174 602.311 48.0041 603.907 47.6666L611.835 65.4661C611.911 65.6387 612.036 65.7854 612.194 65.8881C612.352 65.9909 612.537 66.0452 612.726 66.0444H621.635C621.797 66.0444 621.957 66.0038 622.1 65.9262C622.243 65.8487 622.364 65.7367 622.452 65.6005C622.541 65.4642 622.594 65.3081 622.607 65.1461C622.619 64.9842 622.591 64.8216 622.525 64.6732L613.103 43.5141C615.238 41.9259 617.092 39.9906 618.587 37.7889Z" fill="white"/>
<path d="M476.634 1.05926H429.844C429.586 1.05926 429.338 1.16196 429.155 1.34476C428.972 1.52757 428.87 1.77551 428.87 2.03403V9.83225C428.87 10.0908 428.972 10.3387 429.155 10.5215C429.338 10.7043 429.586 10.807 429.844 10.807H463.117L450.178 27.3263C450.082 27.4499 450.021 27.5981 450.004 27.7541C449.987 27.9101 450.014 28.0678 450.081 28.2095C450.149 28.3512 450.254 28.4713 450.386 28.5563C450.518 28.6414 450.671 28.688 450.828 28.6909H460.68C460.975 28.6908 461.267 28.6234 461.533 28.494C461.798 28.3645 462.031 28.1763 462.213 27.9436L477.16 8.82499C477.453 8.49073 477.622 8.06658 477.641 7.62276V2.03403C477.641 1.90324 477.615 1.77378 477.564 1.65334C477.513 1.53291 477.438 1.42397 477.344 1.33302C477.25 1.24206 477.139 1.17095 477.017 1.12392C476.895 1.07689 476.764 1.0549 476.634 1.05926Z" fill="white"/>
<path d="M476.634 56.2967H439.995L452.947 39.8034C453.043 39.6797 453.103 39.5316 453.121 39.3756C453.138 39.2196 453.111 39.0619 453.044 38.9202C452.976 38.7785 452.87 38.6584 452.739 38.5733C452.607 38.4883 452.454 38.4417 452.297 38.4387H442.419C442.122 38.4379 441.829 38.5048 441.562 38.6343C441.296 38.7638 441.062 38.9525 440.879 39.1861L426.036 58.1292C425.767 58.4722 425.621 58.8955 425.62 59.3315V65.0697C425.62 65.3282 425.723 65.5761 425.906 65.7589C426.089 65.9417 426.337 66.0444 426.595 66.0444H476.634C476.892 66.0444 477.14 65.9417 477.323 65.7589C477.506 65.5761 477.608 65.3282 477.608 65.0697V57.2714C477.608 57.1434 477.583 57.0167 477.534 56.8984C477.485 56.7801 477.413 56.6727 477.323 56.5822C477.232 56.4916 477.125 56.4198 477.007 56.3709C476.888 56.3219 476.762 56.2967 476.634 56.2967Z" fill="white"/>
<path d="M692.956 38.3673C692.726 38.3684 692.504 38.4504 692.328 38.5988C692.152 38.7473 692.034 38.9529 691.994 39.1796C691.72 40.701 691.311 42.195 690.773 43.644C689.324 47.6822 686.661 51.1733 683.15 53.6388C679.685 55.9972 675.579 57.2356 671.388 57.1869C668.563 57.2033 665.764 56.6554 663.154 55.5753C659.341 53.9675 656.13 51.2035 653.972 47.6731C652.386 45.0672 651.306 42.1857 650.787 39.1796C650.748 38.9529 650.63 38.7473 650.454 38.5988C650.278 38.4504 650.056 38.3684 649.826 38.3673H641.917C641.778 38.3669 641.64 38.3964 641.513 38.4537C641.386 38.5111 641.273 38.5949 641.182 38.6995C641.09 38.8042 641.022 38.9273 640.981 39.0605C640.941 39.1938 640.93 39.3341 640.949 39.472C641.326 42.0665 641.979 44.6133 642.898 47.0688C644.988 52.939 648.86 58.0095 653.972 61.5714C659.085 65.1332 665.183 67.0084 671.414 66.9347C675.532 66.9488 679.613 66.1425 683.416 64.5628C689.092 62.167 693.879 58.0596 697.109 52.8134C699.595 48.7417 701.21 44.1991 701.853 39.472C701.871 39.3341 701.86 39.1938 701.82 39.0605C701.78 38.9273 701.711 38.8042 701.62 38.6995C701.528 38.5949 701.415 38.5111 701.288 38.4537C701.161 38.3964 701.024 38.3669 700.884 38.3673H692.956Z" fill="white"/>
<path d="M649.806 28.6195C650.037 28.6196 650.26 28.5381 650.436 28.3894C650.612 28.2407 650.73 28.0344 650.768 27.8071C651.042 26.2574 651.453 24.7351 651.996 23.2582C653.448 19.236 656.103 15.758 659.599 13.296C663.069 10.9412 667.175 9.70319 671.368 9.74777C674.191 9.73141 676.988 10.2794 679.595 11.3594C683.415 12.9635 686.635 15.725 688.804 19.2551C690.394 21.8783 691.476 24.7773 691.994 27.8006C692.034 28.0273 692.152 28.2329 692.328 28.3814C692.504 28.5298 692.726 28.6118 692.956 28.613H700.858C700.998 28.6131 701.136 28.5836 701.263 28.5264C701.39 28.4691 701.503 28.3854 701.596 28.2809C701.688 28.1764 701.757 28.0534 701.798 27.9202C701.839 27.7869 701.851 27.6465 701.833 27.5082C701.46 24.896 700.806 22.3316 699.884 19.8595C697.729 13.9596 693.814 8.8644 688.667 5.26379C683.573 1.78535 677.537 -0.0534978 671.368 -0.00650658C667.254 -0.0232002 663.178 0.780978 659.378 2.35895C653.7 4.75369 648.914 8.86702 645.693 14.1213C643.195 18.207 641.577 22.7685 640.942 27.5147C640.924 27.6526 640.935 27.7929 640.975 27.9262C641.015 28.0594 641.083 28.1825 641.175 28.2872C641.267 28.3918 641.38 28.4757 641.507 28.533C641.634 28.5903 641.771 28.6198 641.91 28.6195H649.806Z" fill="white"/>
</g>
<defs>
<clipPath id="clip0_232_763">
<rect width="701.84" height="66.9347" fill="white"/>
</clipPath>
</defs>
</svg>
