<?xml version="1.0" encoding="UTF-8"?>
<svg width="180px" height="50px" viewBox="0 0 180 50" version="1.1" xmlns="http://www.w3.org/2000/svg" xmlns:xlink="http://www.w3.org/1999/xlink">
    <!-- Generator: Sketch 52.6 (67491) - http://www.bohemiancoding.com/sketch -->
    <title>alephzero</title>
    <desc>Created with Sketch.</desc>
    <g id="alephzero" stroke="none" stroke-width="1" fill="none" fill-rule="evenodd">
        <g id="A0-horizontal-white" transform="translate(0.000000, 17.000000)" fill="#FFFFFF">
            <path d="M25.5384615,14.1 L25.5384615,0.74 C25.5384615,0.60745166 25.4248107,0.5 25.2846154,0.5 L23.2538462,0.5 C23.1136508,0.5 23,0.60745166 23,0.74 L23,16.26 C23,16.3925483 23.1136508,16.5 23.2538462,16.5 L33.7461538,16.5 C33.8863492,16.5 34,16.3925483 34,16.26 L34,14.34 C34,14.2074517 33.8863492,14.1 33.7461538,14.1 L25.5384615,14.1 Z" id="Path"></path>
            <rect id="Rectangle" x="41" y="0.5" width="12" height="2" rx="1"></rect>
            <rect id="Rectangle" x="41" y="14.5" width="12" height="2" rx="1"></rect>
            <rect id="Rectangle" x="41" y="7.5" width="12" height="2" rx="1"></rect>
            <rect id="Rectangle" x="127" y="0.5" width="12" height="2" rx="1"></rect>
            <rect id="Rectangle" x="127" y="14.5" width="12" height="2" rx="1"></rect>
            <rect id="Rectangle" x="127" y="7.5" width="12" height="2" rx="1"></rect>
            <rect id="Rectangle" x="90" y="0.5" width="3" height="16" rx="1.5"></rect>
            <path d="M86.7428571,7.3024208 L80.1428571,7.3024208 L80.1428571,0.74 C80.1428612,0.676346872 80.1157708,0.615299713 80.0675463,0.570290154 C80.0193217,0.525280596 79.9539141,0.49999618 79.8857143,0.5 L77.8285714,0.5 C77.6865644,0.500020318 77.5714503,0.607460077 77.5714286,0.74 L77.5714286,7.3024208 L75.2571429,7.3024208 C75.1151358,7.30244112 75.0000218,7.40988088 75,7.5424208 L75,9.4624208 C75.0000218,9.59496072 75.1151358,9.70240048 75.2571429,9.7024208 L77.5714286,9.7024208 L77.5714286,16.26 C77.5714503,16.3925399 77.6865644,16.4999797 77.8285714,16.5 L79.8857143,16.5 C79.9539141,16.5000038 80.0193217,16.4747194 80.0675463,16.4297098 C80.1157708,16.3847003 80.1428612,16.3236531 80.1428571,16.26 L80.1428571,9.7024208 L86.7428571,9.7024208 C86.8110569,9.70242462 86.8764646,9.6771402 86.9246891,9.63213065 C86.9729136,9.58712109 87.0000041,9.52607393 87,9.4624208 L87,7.5424208 C87.0000041,7.47876767 86.9729136,7.41772051 86.9246891,7.37271095 C86.8764646,7.3277014 86.8110569,7.30241698 86.7428571,7.3024208 Z" id="Path"></path>
            <path d="M14.8905137,9.69116936 L17.7428571,9.69116936 C17.8848732,9.69116936 18,9.58371772 18,9.45116941 L18,7.53116979 C18,7.39862148 17.8848732,7.29116984 17.7428571,7.29116984 L13.745676,7.29116984 L10.5965966,0.689843162 C10.5415193,0.574385737 10.4187927,0.499999869 10.2833811,0.5 L7.71661714,0.5 C7.58120683,0.500001133 7.45848193,0.574386797 7.40340514,0.689843162 L4.25440971,7.29116984 L0.257142857,7.29116984 C0.115126779,7.29116984 0,7.39862148 0,7.53116979 L0,9.45116941 C0,9.58371772 0.115126779,9.69116936 0.257142857,9.69116936 L3.109488,9.69116936 L0.022548,16.1623569 C-0.0128707614,16.2366058 -0.00562461245,16.3225401 0.0418026542,16.3907036 C0.0892299208,16.4588672 0.170394559,16.4999989 0.257475429,16.5 L2.55309771,16.5 C2.68851585,16.4999996 2.81124824,16.4256101 2.86632857,16.3101472 L9,3.45211141 L15.1336731,16.3101472 C15.1887535,16.4256101 15.3114859,16.4999996 15.446904,16.5 L17.7425674,16.5 C17.8296423,16.5000002 17.910802,16.458872 17.9582263,16.3907133 C18.0056507,16.3225546 18.0128963,16.2366261 17.9774794,16.1623825 L14.8905137,9.69116936 Z" id="Path"></path>
            <path d="M71.5365376,4.041992 C70.6145182,1.89496896 68.4768614,0.499861011 66.1093726,0.5000384 L59.2437499,0.5 C59.1091391,0.500020318 59.0000206,0.607460077 59,0.74 L59,2.66 C59.0000072,2.79254541 59.1091335,2.89999293 59.2437499,2.9 L66.1093726,2.9 C67.0252872,2.8997134 67.9037719,3.25783462 68.5514213,3.89552045 C69.1990707,4.53320627 69.5627875,5.3981761 69.5624964,6.3 L69.5624964,6.3000384 C69.5627948,7.20186451 69.1990804,8.06683854 68.5514294,8.70452593 C67.9037784,9.34221332 67.0252894,9.70033222 66.1093726,9.7000384 L59.2437499,9.7 C59.1091391,9.70002032 59.0000206,9.80746008 59,9.94 L59,16.26 C59.0000072,16.3925454 59.1091335,16.4999929 59.2437499,16.5 L61.1937493,16.5 C61.2583989,16.5000102 61.3204037,16.4747278 61.3661179,16.4297169 C61.4118321,16.3847059 61.4375095,16.3236551 61.4374992,16.26 L61.4374992,12.1000384 L66.1093726,12.1 C67.6717484,12.1003192 69.1702258,11.4893549 70.2749887,10.4015808 C71.3797516,9.31380668 72.0002521,7.83837816 71.9999176,6.3000384 L71.9999972,6.3 C72.000765,5.52435445 71.843156,4.75647236 71.5365376,4.041992 Z" id="Path"></path>
            <path d="M158.993182,9.5437488 C159.650653,8.58598073 160.001334,7.45610029 159.99992,6.3000784 L160,6.3 C160.000324,4.76165385 159.379807,3.28622397 158.275029,2.19845631 C157.17025,1.11068865 155.671758,0.499738795 154.109375,0.5000784 L147.24375,0.5 C147.109145,0.500033563 147.000034,0.607465565 147,0.74 L147,2.66 C147.000006,2.79254578 147.109133,2.89999381 147.24375,2.9 L154.109375,2.9 C155.025285,2.89972869 155.903761,3.25785483 156.551407,3.89553734 C157.199054,4.53321984 157.562775,5.39818079 157.5625,6.3 L157.5625,6.3000784 C157.562775,7.20189735 157.199052,8.0668578 156.551406,8.70454012 C155.90376,9.34222245 155.025285,9.70034885 154.109375,9.7000784 L147.24375,9.7 C147.109145,9.70003356 147.000034,9.80746556 147,9.94 L147,16.26 C147.000006,16.3925458 147.109133,16.4999938 147.24375,16.5 L149.19375,16.5 C149.2584,16.5000098 149.320404,16.4747273 149.366118,16.4297164 C149.411832,16.3847056 149.43751,16.3236549 149.4375,16.26 L149.4375,12.1000784 L154.109375,12.1 C154.517203,12.1000332 154.923935,12.0584305 155.323047,11.9758592 L157.304468,16.357656 C157.343621,16.4442314 157.430859,16.500006 157.527111,16.5 L159.756011,16.5 C159.838546,16.5000128 159.915479,16.4588914 159.96043,16.3907358 C160.00538,16.3225802 160.01224,16.2366542 159.978655,16.1624208 L157.622643,10.951992 C158.156635,10.5617665 158.619977,10.0856781 158.993182,9.5437488 Z" id="Path"></path>
            <path d="M121.76,0.5 L110.24,0.5 C110.107452,0.5 110,0.610562471 110,0.746948191 L110,2.72253372 C110,2.85891944 110.107452,2.96948191 110.24,2.96948191 L118.433208,2.96948191 L115.246262,7.15391857 C115.197168,7.2183785 115.188122,7.30601147 115.222961,7.37964464 C115.2578,7.4532778 115.330417,7.50000301 115.410008,7.5 L117.83172,7.5 C117.979219,7.50000023 118.118527,7.43021851 118.209507,7.31076031 L121.897795,2.46805361 C121.964015,2.38110575 122,2.27382789 122,2.16336234 L122,0.746948191 C122,0.610562471 121.892548,0.5 121.76,0.5 Z" id="Path"></path>
            <path d="M121.75625,14.028311 L112.594203,14.028311 L115.826089,9.84636694 C115.875945,9.78185461 115.885133,9.69415094 115.849753,9.62045765 C115.814374,9.54676437 115.74063,9.49999967 115.659803,9.5 L113.200245,9.5 C113.050419,9.4999998 112.908914,9.56985516 112.816499,9.68943899 L109.103784,14.493667 C109.036541,14.5806795 109.000001,14.6880357 109,14.798582 L109,16.2528304 C109,16.3893384 109.109131,16.5 109.24375,16.5 L121.75625,16.5 C121.890869,16.5 122,16.3893384 122,16.2528304 L122,14.275474 C121.999996,14.1389686 121.890867,14.028311 121.75625,14.028311 Z" id="Path"></path>
            <path d="M177.666804,9.5 C177.542309,9.50069435 177.436194,9.5843788 177.414795,9.69874016 C177.342678,10.0714771 177.235297,10.4375252 177.09391,10.7925936 C176.713035,11.7820365 176.013512,12.6375314 175.091103,13.2419634 C174.180104,13.8194896 173.101211,14.1228812 171.999682,14.1112914 C171.257779,14.1153052 170.522518,13.9808252 169.837215,13.7157742 C168.835234,13.3219083 167.991112,12.6447081 167.423876,11.779663 C167.007621,11.140926 166.723674,10.4349936 166.586792,9.69855069 C166.565481,9.58437926 166.459608,9.50078616 166.335329,9.50000637 L164.256892,9.50000637 C164.182876,9.49980329 164.112385,9.52946577 164.063578,9.58135201 C164.014771,9.63323824 163.992422,9.70227485 164.002287,9.77067626 C164.098348,10.4061727 164.267721,11.0301389 164.507461,11.6317244 C165.634027,14.5795794 168.643802,16.5350715 171.999682,16.4995233 C173.082301,16.5034902 174.15485,16.3056343 175.154297,15.917583 C176.645566,15.3314826 177.903084,14.3254104 178.750967,13.0400819 C179.404335,12.0423991 179.828842,10.9292673 179.997701,9.77092623 C180.007595,9.70248064 179.98525,9.63339061 179.936424,9.58145763 C179.887597,9.52952465 179.817064,9.49982738 179.742998,9.50001751 L177.666804,9.5 Z" id="Path"></path>
            <path d="M166.332191,7.5 C166.45682,7.49930189 166.562992,7.41553962 166.584191,7.3011906 C166.656291,6.92507828 166.764405,6.55572979 166.90724,6.19756653 C167.288018,5.20982246 167.987387,4.35579855 168.909598,3.7524169 C169.820416,3.17587406 170.899095,2.87300476 172.000404,2.88458674 C172.742108,2.88059375 173.477171,3.01482763 174.162303,3.2793827 C175.164043,3.67259544 176.007968,4.34862285 176.575101,5.2121581 C176.993463,5.85325411 177.278224,6.56205655 177.414456,7.30140994 C177.435581,7.41555782 177.54151,7.49921305 177.665913,7.49999364 L179.743142,7.49999364 C179.817089,7.50019175 179.88752,7.47062205 179.936317,7.41889054 C179.985115,7.36715904 180.007516,7.29831501 179.997759,7.23006667 C179.902038,6.59140762 179.732074,5.96432189 179.490858,5.35984817 C178.36457,2.4170934 175.355498,0.464982458 172.000401,0.500476082 C170.917995,0.496488958 169.845654,0.69400484 168.846411,1.08141367 C167.355471,1.66647628 166.098231,2.67080473 165.250549,3.95391721 C164.595065,4.95352213 164.16997,6.06910226 164.002253,7.22982985 C163.992466,7.29811955 164.01486,7.36701488 164.063675,7.41879196 C164.112489,7.47056904 164.182959,7.50017333 164.256954,7.49998887 L166.332191,7.5 Z" id="Path"></path>
        </g>
    </g>
</svg>