<?xml version="1.0" encoding="utf-8"?>
<!-- Generator: Adobe Illustrator 27.1.1, SVG Export Plug-In . SVG Version: 6.00 Build 0)  -->
<svg version="1.1" id="Layer_1" xmlns="http://www.w3.org/2000/svg" xmlns:xlink="http://www.w3.org/1999/xlink" x="0px" y="0px"
	 viewBox="0 0 562.6 145.8" style="enable-background:new 0 0 562.6 145.8;" xml:space="preserve">
<style type="text/css">
	.st0{fill:#1B1B1D;}
	.st1{fill-rule:evenodd;clip-rule:evenodd;fill:#1B1B1D;}
	.st2{fill:#4EE499;}
	.st3{fill-rule:evenodd;clip-rule:evenodd;fill:#4EE499;}
	.st4{fill:none;stroke:#4EE499;stroke-width:0.7625;stroke-miterlimit:3.0499;}
</style>
<g>
	<g>
		<path class="st0" d="M562.6,30.4v75.4c0,11.9-7.3,22.1-17.7,26.5c-1,0.4-2.2-0.4-2.2-1.5c0-0.2,0-0.3,0-0.4
			c-2.1-12.3-17.1-17.6-30.6-17c-9.1,0.4-19.1,4-24.6,10c-0.6,0.7-1.6,0.7-2.3,0.1c-4.7-4.5-12.4-7.1-19.6-7.3
			c-8.3-0.2-17.6,2.6-22.4,8.2c-0.6,0.7-1.6,0.8-2.3,0.2c-3.5-2.9-8.6-4.7-13.4-4.9c-12.5-0.6-19.7,7.3-19.5,12.9c0,0.1,0,0.2,0,0.3
			c0,0.9-0.7,1.6-1.6,1.6h-376C13.7,134.5,0,120.9,0,104.2V30.4C0,13.7,13.7,0,30.4,0h501.8C548.9,0,562.6,13.7,562.6,30.4z"/>
		<g>
			<path class="st1" d="M533.5,132.3c0.3,7-8.5,13-19.5,13.4c-11.1,0.5-20.3-4.8-20.6-11.8c-0.3-8,10.3-13,19.5-13.4
				C522.1,120.2,533.2,124.3,533.5,132.3z"/>
			<path class="st1" d="M481.1,133.5c-0.3,5.7-7.9,10.2-17,10c-9.1-0.2-16.2-5-15.9-10.7c0.4-6.6,9.4-10.1,17-10
				C473,123,481.5,127,481.1,133.5z"/>
			<path class="st1" d="M439.2,133.7c-0.3,4.3-6.2,7.7-13,7.4c-6.8-0.2-12.1-3.9-11.9-8.2c-0.1-3.2,4.7-7.8,13-7.6
				C433.1,125.6,439.6,128.7,439.2,133.7z"/>
		</g>
	</g>
	<g id="Amplitude-Logo-Green" transform="translate(0 -33.127)">
		<path id="Path_59" class="st2" d="M76.6,99.8c0,0,2,6,3.1,8.9s1.7,4.7,4.5,4.7c1.2,0,2.4-1.5,3.8-4.7c1.6-4.2,3.4-8.9,3.4-8.9
			H76.6z"/>
		<path id="Path_60" class="st2" d="M91.4,99.8c0,0-2-6-3.1-8.9c-1.1-2.9-1.8-4.7-4.5-4.7c-1.2,0-2.4,1.5-3.8,4.7
			c-1.6,4.2-3.4,8.9-3.4,8.9H91.4z"/>
		<path id="Path_61" class="st2" d="M123.2,99.8c0,0-7.9-14.8-9.1-17.1c-1.2-2.4-3.1-5.8-6.9-5.8c-3.9,0-5.4,3.7-6.4,5.8
			c-1,2.1-9.4,17.1-9.4,17.1H123.2z"/>
		<path id="Path_58" class="st2" d="M91.4,99.8c0,0,7.9,14.8,9.1,17.1c1.2,2.4,3.1,5.8,6.9,5.8c3.9,0,5.4-3.7,6.4-5.8
			c1-2.1,9.4-17.1,9.4-17.1H91.4z"/>
		<path id="Path_68" class="st2" d="M162.4,124.9l18.7-48.2h7.6l18.5,48.2h-7.9l-11-29.1c-0.1-0.3-0.4-1.1-0.8-2.3
			c-0.4-1.2-0.8-2.6-1.3-4.1c-0.5-1.5-1-2.9-1.4-4.2s-0.7-2.1-0.8-2.4l1.6-0.1c-0.3,0.8-0.6,1.8-1,3c-0.4,1.2-0.8,2.5-1.2,3.8
			c-0.4,1.3-0.9,2.6-1.3,3.8l-1,2.9l-11,28.8L162.4,124.9z M170.7,112.9l2.8-7.2h21.9l3.2,7.2H170.7z M213.8,124.9V88.7h7.2v7.7
			l-1.3,0.8c0.4-1.2,1-2.4,1.8-3.4c0.8-1.1,1.8-2.1,3-2.9c1.2-0.8,2.4-1.5,3.8-2c1.3-0.5,2.7-0.8,4.2-0.8c1.9,0,3.7,0.3,5.4,1
			c1.5,0.7,2.9,1.7,3.9,3.1c1.1,1.6,1.8,3.3,2.2,5.2l-1.1-0.3l0.5-1.2c0.5-1.1,1.2-2.1,2.1-3c0.9-1,1.9-1.8,3.1-2.5
			c1.1-0.7,2.4-1.3,3.7-1.7c1.2-0.4,2.5-0.6,3.8-0.6c2.7,0,4.9,0.6,6.7,1.7c1.8,1.1,3.1,2.8,4,5c0.9,2.3,1.3,5.1,1.3,8.4v21.7h-7.2
			v-21.3c0-2.1-0.3-3.8-0.8-5.1c-0.4-1.2-1.3-2.2-2.4-2.9c-1.1-0.6-2.4-1-4.1-1c-1.2,0-2.5,0.2-3.6,0.7c-1.1,0.4-2.1,1-2.9,1.8
			c-0.8,0.8-1.5,1.7-1.9,2.7c-0.5,1.1-0.7,2.2-0.7,3.4v21.6h-7.2v-21.4c0-1.6-0.2-3.3-0.8-4.8c-0.5-1.2-1.3-2.3-2.4-3
			c-1.2-0.7-2.5-1.1-3.9-1c-1.2,0-2.4,0.2-3.6,0.7c-1.1,0.4-2,1-2.9,1.8c-0.8,0.8-1.5,1.7-1.9,2.7c-0.5,1.1-0.7,2.2-0.7,3.3v21.8
			L213.8,124.9z M277.4,140V88.7h7.2V97l-1.1-0.6c0.3-1.4,1.1-2.7,2.3-4c1.4-1.3,3-2.4,4.7-3.1c1.8-0.8,3.8-1.2,5.8-1.2
			c3.1-0.1,6.1,0.8,8.7,2.4c2.5,1.6,4.6,3.9,6,6.6c1.5,2.8,2.2,6,2.2,9.6c0.1,3.3-0.7,6.6-2.2,9.6c-1.4,2.7-3.4,5-6,6.7
			c-2.5,1.6-5.5,2.5-8.5,2.4c-2.1,0-4.2-0.4-6.1-1.3c-1.9-0.8-3.6-1.9-5-3.3c-1.4-1.3-2.2-2.7-2.5-4.1l1.8-1V140L277.4,140z
			 M295.3,118.9c2,0,4-0.5,5.6-1.6c1.7-1.1,3-2.6,3.9-4.3c1-1.9,1.5-4.1,1.4-6.3c0-2.2-0.4-4.3-1.4-6.2c-0.9-1.8-2.2-3.2-3.9-4.3
			c-1.7-1.1-3.7-1.6-5.7-1.6c-2,0-4,0.5-5.7,1.6c-1.7,1.1-3,2.5-3.9,4.3c-1,1.9-1.5,4.1-1.4,6.3c0,2.2,0.5,4.3,1.4,6.3
			c0.9,1.8,2.3,3.3,3.9,4.3C291.3,118.4,293.3,119,295.3,118.9L295.3,118.9z M321,124.9v-51h7.1v51L321,124.9z M339.3,124.9V88.7
			h7.1v36.2L339.3,124.9z M342.7,80.7c-1.5,0-2.7-0.4-3.5-1.2c-0.8-0.8-1.2-1.9-1.2-3.3c0-1.2,0.4-2.4,1.3-3.2
			c0.8-0.8,2-1.2,3.5-1.2c1.5,0,2.7,0.4,3.5,1.2c0.8,0.8,1.2,1.9,1.2,3.3c0,1.2-0.4,2.4-1.3,3.2C345.4,80.3,344.2,80.7,342.7,80.7
			L342.7,80.7z M361.8,124.9V79.5h7.1v45.4L361.8,124.9z M354.3,95.6v-6.9h23v6.9H354.3z M396.4,125.6c-2.4,0.1-4.7-0.6-6.7-1.8
			c-1.9-1.2-3.5-3-4.4-5c-1-2.2-1.6-4.7-1.6-7.7V88.7h7.1v20.4c0,1.9,0.3,3.7,1,5.5c0.6,1.4,1.6,2.7,2.9,3.5c1.4,0.9,3,1.3,4.6,1.2
			c1.2,0,2.5-0.2,3.7-0.7c1.1-0.4,2-1,2.9-1.8c0.8-0.8,1.5-1.8,1.9-2.8c0.5-1.1,0.7-2.4,0.7-3.6V88.7h7.1v36.2h-7.1v-7.6l1.2-0.8
			c-0.6,1.7-1.5,3.3-2.8,4.6c-1.3,1.4-2.9,2.5-4.7,3.3C400.4,125.2,398.4,125.6,396.4,125.6L396.4,125.6z M440.5,125.6
			c-3.1,0.1-6.2-0.8-8.9-2.4c-2.6-1.6-4.7-4-6.2-6.7c-1.5-2.8-2.3-6.1-2.3-9.7c0-3.6,0.7-6.9,2.2-9.7c1.4-2.7,3.5-5,6.1-6.7
			c2.6-1.6,5.7-2.5,8.8-2.4c1.8,0,3.5,0.3,5.2,0.9c1.6,0.5,3.1,1.3,4.5,2.3c1.2,0.9,2.3,2,3.1,3.2c0.7,1,1.1,2.3,1.1,3.5l-2.1,0.1
			V73.9h7.1v51h-7.1v-8.6h1.4c0,1.2-0.4,2.3-1.1,3.3c-0.8,1.2-1.8,2.2-2.9,3c-1.3,1-2.7,1.7-4.2,2.2
			C443.8,125.3,442.2,125.6,440.5,125.6L440.5,125.6z M441.5,119.4c2,0,4-0.5,5.7-1.7c1.7-1.1,3-2.7,3.9-4.5c1-2,1.5-4.3,1.4-6.5
			c0-2.3-0.4-4.5-1.4-6.5c-0.9-1.8-2.2-3.4-3.9-4.5c-1.7-1.1-3.7-1.7-5.7-1.7c-2,0-4,0.5-5.7,1.7c-1.7,1.1-3,2.7-3.9,4.5
			c-1,2-1.5,4.3-1.4,6.5c0,2.3,0.4,4.5,1.4,6.5c0.9,1.8,2.2,3.4,3.9,4.5C437.5,118.9,439.4,119.5,441.5,119.4L441.5,119.4z
			 M486,125.6c-3.7,0-7-0.8-9.9-2.4c-2.8-1.5-5.1-3.8-6.8-6.5c-1.6-2.8-2.4-5.9-2.4-9.5c0-2.7,0.4-5.3,1.4-7.8
			c0.9-2.3,2.2-4.3,3.8-6.1c1.6-1.7,3.6-3.1,5.9-4c2.4-1,4.9-1.4,7.4-1.4c2.3,0,4.5,0.4,6.5,1.3c2,0.9,3.8,2.1,5.3,3.7
			c1.5,1.6,2.7,3.5,3.4,5.5c0.8,2.2,1.2,4.6,1.1,7l-0.1,3h-29.6l-1.6-5.6h25l-1,1.2v-1.7c-0.1-1.5-0.6-2.9-1.5-4.1
			c-0.9-1.2-2-2.2-3.3-2.8c-1.3-0.7-2.8-1-4.3-1c-2.5,0-4.6,0.5-6.3,1.4c-1.7,0.9-3,2.4-3.9,4.1c-0.9,1.8-1.3,4.1-1.3,6.7
			c0,2.5,0.5,4.7,1.6,6.6c1,1.8,2.6,3.3,4.5,4.3c2.1,1,4.4,1.6,6.7,1.5c1.7,0,3.4-0.3,5-0.9c1.5-0.6,3.2-1.7,5-3.2l3.6,5
			c-1.2,1.2-2.5,2.1-4,2.9c-1.6,0.8-3.3,1.5-5,2C489.5,125.3,487.7,125.6,486,125.6L486,125.6z"/>
		<path id="Combined-Shape" class="st3" d="M99.8,60.8c21.6,0,39,17.5,39,39s-17.5,39-39,39s-39-17.5-39-39l0,0
			C60.8,78.2,78.2,60.8,99.8,60.8z M99.8,68.4c-17.3,0-31.4,14-31.4,31.4s14,31.4,31.4,31.4s31.4-14,31.4-31.4S117.1,68.4,99.8,68.4
			L99.8,68.4z"/>
		<line id="Line_11" class="st4" x1="91.6" y1="99.9" x2="122.8" y2="99.9"/>
		<line id="Line_12" class="st4" x1="76.8" y1="99.9" x2="91.3" y2="99.9"/>
	</g>
</g>
</svg>
