<?xml version="1.0" encoding="utf-8"?>
<!-- Generator: Adobe Illustrator 27.1.1, SVG Export Plug-In . SVG Version: 6.00 Build 0)  -->
<svg version="1.1" id="Layer_1" xmlns="http://www.w3.org/2000/svg" xmlns:xlink="http://www.w3.org/1999/xlink" x="0px" y="0px"
	 viewBox="0 0 562.6 145.8" style="enable-background:new 0 0 562.6 145.8;" xml:space="preserve">
<style type="text/css">
	.st0{fill:#1B1B1D;}
	.st1{fill-rule:evenodd;clip-rule:evenodd;fill:#1B1B1D;}
	.st2{fill:url(#SVGID_1_);}
	.st3{opacity:0.9;fill:url(#SVGID_00000012467877381271228890000007683050734669049492_);enable-background:new    ;}
	.st4{opacity:0.8;fill:#FFFFFF;enable-background:new    ;}
	.st5{opacity:0.5;fill:url(#SVGID_00000066505900901247340650000000093544539409297594_);enable-background:new    ;}
	.st6{opacity:0.6;fill:url(#SVGID_00000001644879199189232570000013665241268096221866_);enable-background:new    ;}
	.st7{opacity:0.9;fill:url(#SVGID_00000023248473091150096750000003597227493815677067_);enable-background:new    ;}
	.st8{opacity:0.4;fill:url(#SVGID_00000144323909694602749230000015451638196725939605_);enable-background:new    ;}
	.st9{opacity:0.5;fill:url(#SVGID_00000114761462024034248930000017521524841508707223_);enable-background:new    ;}
	.st10{opacity:0.9;fill:url(#SVGID_00000080176459877682057030000005216130992257168770_);enable-background:new    ;}
	.st11{opacity:0.3;fill:url(#SVGID_00000132803011261213916150000017543302028775007374_);enable-background:new    ;}
	.st12{opacity:0.4;fill:url(#SVGID_00000016765803523350561290000002325075005341213352_);enable-background:new    ;}
	.st13{opacity:0.4;fill:url(#SVGID_00000154387277211614912930000011618816906541854908_);enable-background:new    ;}
	.st14{opacity:0.4;fill:url(#SVGID_00000045595183913561206240000013276202647370934432_);enable-background:new    ;}
	.st15{opacity:0.4;fill:url(#SVGID_00000059292899745596563610000005085129293958971527_);enable-background:new    ;}
	.st16{opacity:0.5;fill:url(#SVGID_00000109748465262454950300000016642036578471441047_);enable-background:new    ;}
	.st17{opacity:0.5;fill:url(#SVGID_00000064327826152850834220000015158409233746353556_);enable-background:new    ;}
	.st18{opacity:0.5;fill:url(#SVGID_00000011020838167649680230000012054816428020992144_);enable-background:new    ;}
	.st19{opacity:0.6;fill:url(#SVGID_00000002354524814294294810000007665270391361957030_);enable-background:new    ;}
	.st20{opacity:0.5;fill:url(#SVGID_00000106835900580078959570000016848334247075104904_);enable-background:new    ;}
	.st21{opacity:0.6;fill:url(#SVGID_00000052089996913632256450000000830118993901113494_);enable-background:new    ;}
	.st22{opacity:0.3;fill:url(#SVGID_00000182505860083904847230000007951065371817329298_);enable-background:new    ;}
	.st23{opacity:0.3;fill:url(#SVGID_00000092440483007842943680000009764960992645018303_);enable-background:new    ;}
	.st24{opacity:0.3;fill:url(#SVGID_00000175299609386089630570000002142041230134658984_);enable-background:new    ;}
	.st25{opacity:0.3;fill:url(#SVGID_00000151518126629797706750000003834017456881575060_);enable-background:new    ;}
	.st26{opacity:0.3;fill:url(#SVGID_00000140723879024711085560000001689481434764690864_);enable-background:new    ;}
	.st27{opacity:0.3;fill:url(#SVGID_00000175288665290220960430000009979738799241543563_);enable-background:new    ;}
	.st28{fill:#FFFFFF;}
</style>
<g>
	<g>
		<path class="st0" d="M562.6,30.4v75.4c0,11.9-7.3,22.1-17.7,26.5c-1,0.4-2.2-0.4-2.2-1.5c0-0.2,0-0.3,0-0.4
			c-2.1-12.3-17.1-17.6-30.6-17c-9.1,0.4-19.1,4-24.6,10c-0.6,0.7-1.6,0.7-2.3,0.1c-4.7-4.5-12.4-7.1-19.6-7.3
			c-8.3-0.2-17.6,2.6-22.4,8.2c-0.6,0.7-1.6,0.8-2.3,0.2c-3.5-2.9-8.6-4.7-13.4-4.9c-12.5-0.6-19.7,7.3-19.5,12.9c0,0.1,0,0.2,0,0.3
			c0,0.9-0.7,1.6-1.6,1.6h-376C13.7,134.5,0,120.9,0,104.2V30.4C0,13.7,13.7,0,30.4,0h501.8C548.9,0,562.6,13.7,562.6,30.4z"/>
		<g>
			<path class="st1" d="M533.5,132.3c0.3,7-8.5,13-19.5,13.4c-11.1,0.5-20.3-4.8-20.6-11.8c-0.3-8,10.3-13,19.5-13.4
				C522.1,120.2,533.2,124.3,533.5,132.3z"/>
			<path class="st1" d="M481.1,133.5c-0.3,5.7-7.9,10.2-17,10c-9.1-0.2-16.2-5-15.9-10.7c0.4-6.6,9.4-10.1,17-10
				C473,123,481.5,127,481.1,133.5z"/>
			<path class="st1" d="M439.2,133.7c-0.3,4.3-6.2,7.7-13,7.4c-6.8-0.2-12.1-3.9-11.9-8.2c-0.1-3.2,4.7-7.8,13-7.6
				C433.1,125.6,439.6,128.7,439.2,133.7z"/>
		</g>
	</g>
	<g>
		
			<linearGradient id="SVGID_1_" gradientUnits="userSpaceOnUse" x1="145.3947" y1="45.0777" x2="207.018" y2="106.709" gradientTransform="matrix(1 0 0 -1 0 145.3312)">
			<stop  offset="0" style="stop-color:#E5007A"/>
			<stop  offset="0.21" style="stop-color:#703AC1"/>
			<stop  offset="0.46" style="stop-color:#0070EA"/>
			<stop  offset="0.77" style="stop-color:#0296FA"/>
			<stop  offset="1" style="stop-color:#0AE1FF"/>
		</linearGradient>
		<path class="st2" d="M226.6,64c-1.8-26.6-24.9-46.8-51.5-44.9c-13.3,0.9-24.9,7.1-33,16.3l0,0c-0.1,0.1-0.1,0.1-0.2,0.2
			c-8.1,9.3-12.6,21.7-11.7,35c0.1,1.3,0.2,2.5,0.4,3.7c0,0.1,0,0.1,0,0.2c0.1,0.8,0.3,1.6,0.4,2.4c0.1,0.7,0.3,1.5,0.5,2.2
			c5.6,22.3,26.4,38,50.1,36.4C208.3,113.7,228.4,90.6,226.6,64L226.6,64z M216.1,64.7c0.2,3.3,0,6.5-0.6,9.6c0,0,0,0,0,0
			C212,65.7,205,59.5,199,56.1c1.2-14.5-3.7-20.6-9.3-21.6c-4.4-0.8-8.6,2.1-9.4,6.4c0,0.2-0.1,0.3-0.1,0.5c-0.6,4.4,2.5,8.5,7,9
			c0,0,0,0,0,0c0.4,0,0.8,0.1,1.1,0.1c0,0.5,0,1,0,1.6c-5.2-1.3-10-1.5-14.4-1.1c-1.7,0.1-3.3,0.3-4.9,0.6c0.5-4.9,2.4-10.4,6-14.4
			c3.4-3.9,8.6-6.1,14.2-5.6c1.1,0.1,2.2,0.4,3.2,0.7c0,0,0.1,0,0.1,0C205.5,37.5,215.1,49.8,216.1,64.7
			C216.1,64.7,216.1,64.7,216.1,64.7z M182.4,72.1C182.4,72.1,182.4,72.1,182.4,72.1c-1.2,1.8-2.6,3.4-4.1,4.9
			c-2.3-2.4-4.3-5.2-5.8-8.2c-0.1-0.2-0.2-0.3-0.2-0.5v0c-0.9-1.9-1.6-4-2.2-6c3.4-0.8,6.8-1.1,10-1l0.5,0h0c2,0.2,4.1,0.5,6.3,1.1
			C185.8,65.9,184.3,69.1,182.4,72.1C182.4,72.1,182.4,72.1,182.4,72.1z M165.9,31.6L165.9,31.6c-5.7,7.3-7.6,16.4-7.5,23.4
			c-13.2,6.2-16,13.5-14.1,18.8c0,0.1,0.1,0.3,0.2,0.4c1.7,4.1,6.4,6.1,10.6,4.3c4.1-1.7,6.1-6.4,4.3-10.6c-0.2-0.4-0.3-0.7-0.5-1
			c0.4-0.3,0.9-0.5,1.3-0.8c1.5,5.1,3.6,9.4,6.2,13c0.9,1.4,1.9,2.7,3,3.9c-4.5,2-10.2,3.1-15.5,2.1c-5.1-1-9.6-4.4-11.9-9.5
			c-0.4-1-0.8-2.1-1-3.1c-0.1-0.9-0.2-1.9-0.3-2.8C139.5,52.5,150.2,37.1,165.9,31.6z M180.9,105c-10.3,0.7-19.9-2.8-27.2-9
			c9.2,1.3,18-1.7,24-5.2c12,8.3,19.7,7.1,23.4,2.8c2.9-3.4,2.5-8.5-0.9-11.4c-0.1-0.1-0.2-0.2-0.4-0.3c-3.5-2.7-8.6-2-11.3,1.5
			c0,0,0,0,0,0c-0.2,0.3-0.4,0.6-0.6,1c-0.4-0.2-0.9-0.5-1.4-0.7c3.4-3.5,6.1-7.5,8.2-11.9c0.7-1.5,1.4-3,1.9-4.6
			c4,2.9,7.8,7.3,9.5,12.4c1.6,4.9,1,10.5-2.3,15c-0.7,0.9-1.4,1.7-2.2,2.4l0,0C195.7,101.7,188.5,104.4,180.9,105
			C180.9,105,180.9,105,180.9,105z"/>
		
			<radialGradient id="SVGID_00000114755492848893036340000001219846908497457328_" cx="-182.1286" cy="532.2648" r="1.6111" gradientTransform="matrix(11.408 0 0 -11.408 2269.8789 6129.5586)" gradientUnits="userSpaceOnUse">
			<stop  offset="0" style="stop-color:#FFFFFF"/>
			<stop  offset="1" style="stop-color:#FFFFFF;stop-opacity:0"/>
		</radialGradient>
		<path style="opacity:0.9;fill:url(#SVGID_00000114755492848893036340000001219846908497457328_);enable-background:new    ;" d="
			M189.7,34.4c-0.9-0.2-1.8-0.2-2.7,0c4.6,2.5,8,9.5,6.2,23.3c-0.6,4.5-1.9,8.9-3.9,12.9c-1.7,3.7-4,7.2-6.7,10.2
			c1.3,1,2.6,1.8,4,2.6c3.4-3.5,6.1-7.5,8.2-11.9c2-4.1,3.3-8.4,3.9-12.9C200.8,42.3,195.6,35.5,189.7,34.4L189.7,34.4L189.7,34.4z"
			/>
		<path class="st4" d="M193.2,57.8c1.8-13.8-1.6-20.8-6.2-23.4c-0.2,0-0.4,0.1-0.5,0.1c4.5,2.6,7.8,9.6,6,23.2
			c-0.6,4.5-1.9,8.9-3.9,12.9c-1.7,3.6-3.8,6.9-6.4,9.9c0.1,0.1,0.3,0.2,0.4,0.3c2.7-3.1,4.9-6.5,6.7-10.2
			C191.3,66.6,192.6,62.3,193.2,57.8L193.2,57.8z"/>
		
			<radialGradient id="SVGID_00000012470860888707297970000003068968848834425267_" cx="-160.504" cy="501.289" r="1.6111" gradientTransform="matrix(6.6384 0 0 -6.6384 1230.4794 3419.3303)" gradientUnits="userSpaceOnUse">
			<stop  offset="0" style="stop-color:#FFFFFF"/>
			<stop  offset="1" style="stop-color:#FFFFFF;stop-opacity:0"/>
		</radialGradient>
		<path style="opacity:0.5;fill:url(#SVGID_00000012470860888707297970000003068968848834425267_);enable-background:new    ;" d="
			M175.6,89.1c-0.4-0.3-0.9-0.7-1.3-1c-6.8,2.8-16.3,4.6-25.7,2.4c1.5,2,3.3,3.8,5.1,5.4c9.2,1.3,18-1.7,24-5.2
			C177,90.2,176.3,89.6,175.6,89.1L175.6,89.1z"/>
		
			<linearGradient id="SVGID_00000174580544273324658280000001110774671026299810_" gradientUnits="userSpaceOnUse" x1="148.9444" y1="55.5638" x2="159.2523" y2="55.7056" gradientTransform="matrix(1 0 0 -1 0 145.3312)">
			<stop  offset="0" style="stop-color:#FFFFFF;stop-opacity:0"/>
			<stop  offset="1" style="stop-color:#FFFFFF"/>
		</linearGradient>
		<path style="opacity:0.6;fill:url(#SVGID_00000174580544273324658280000001110774671026299810_);enable-background:new    ;" d="
			M174.3,88.1c-0.2-0.2-0.4-0.3-0.6-0.5c-6.9,2.7-16.4,4.4-25.8,2.1c0.2,0.3,0.5,0.6,0.7,0.9C158,92.7,167.5,90.9,174.3,88.1
			L174.3,88.1z"/>
		
			<radialGradient id="SVGID_00000007393630448066614850000008884661824723785856_" cx="-265.0974" cy="565.8149" r="1.6111" gradientTransform="matrix(-5.704 -9.8796 -9.8796 5.704 4240.938 -5786.2432)" gradientUnits="userSpaceOnUse">
			<stop  offset="0" style="stop-color:#FFFFFF"/>
			<stop  offset="1" style="stop-color:#FFFFFF;stop-opacity:0"/>
		</radialGradient>
		<path style="opacity:0.9;fill:url(#SVGID_00000007393630448066614850000008884661824723785856_);enable-background:new    ;" d="
			M144.3,73.9c0,0.1,0.1,0.3,0.2,0.4c0.3,0.7,0.7,1.4,1.2,2c-0.1-5.3,4.3-11.7,17.1-17.1c4.2-1.7,8.6-2.8,13.2-3.1
			c4.1-0.4,8.2-0.1,12.2,0.7c0.2-1.7,0.3-3.4,0.3-4.8c-4.7-1.2-9.5-1.6-14.4-1.1c-4.5,0.3-9,1.3-13.2,3.1
			C145.5,60.4,142.2,68.2,144.3,73.9L144.3,73.9L144.3,73.9z"/>
		<path class="st4" d="M162.7,59.2c-12.9,5.4-17.2,11.8-17.1,17.1c0.1,0.1,0.2,0.3,0.4,0.4c0-5.2,4.4-11.5,17.1-16.9
			c4.2-1.7,8.6-2.8,13.2-3.1c3.9-0.3,7.9-0.2,11.8,0.6c0-0.2,0-0.4,0.1-0.5c-4-0.8-8.1-1-12.2-0.7C171.4,56.4,166.9,57.5,162.7,59.2
			L162.7,59.2z"/>
		
			<radialGradient id="SVGID_00000117672438512623085290000012925626324853402768_" cx="-303.0853" cy="558.9446" r="1.6111" gradientTransform="matrix(-3.3192 -5.749 -5.749 3.3192 2413.5068 -3530.9783)" gradientUnits="userSpaceOnUse">
			<stop  offset="0" style="stop-color:#FFFFFF"/>
			<stop  offset="1" style="stop-color:#FFFFFF;stop-opacity:0"/>
		</radialGradient>
		<path style="opacity:0.4;fill:url(#SVGID_00000117672438512623085290000012925626324853402768_);enable-background:new    ;" d="
			M198.7,58.8c-0.1,0.5-0.2,1.1-0.2,1.6c5.9,4.5,12.2,11.8,15,21c0.9-2.3,1.6-4.7,2.1-7.1c-3.5-8.6-10.4-14.7-16.5-18.2
			C198.9,56.9,198.8,57.8,198.7,58.8C198.7,58.8,198.7,58.8,198.7,58.8z"/>
		
			<linearGradient id="SVGID_00000090999820513358544070000018318122755072721070_" gradientUnits="userSpaceOnUse" x1="212.5723" y1="63.826" x2="207.296" y2="72.6806" gradientTransform="matrix(1 0 0 -1 0 145.3312)">
			<stop  offset="0" style="stop-color:#FFFFFF;stop-opacity:0"/>
			<stop  offset="1" style="stop-color:#FFFFFF"/>
		</linearGradient>
		<path style="opacity:0.5;fill:url(#SVGID_00000090999820513358544070000018318122755072721070_);enable-background:new    ;" d="
			M198.4,60.4c0,0.3-0.1,0.5-0.1,0.8c5.8,4.6,12,12,14.6,21.3c0.2-0.4,0.3-0.7,0.4-1.1C210.6,72.2,204.3,64.9,198.4,60.4L198.4,60.4
			z"/>
		
			<radialGradient id="SVGID_00000181773445287422313400000013832139297715383740_" cx="-194.5676" cy="620.8537" r="1.6111" gradientTransform="matrix(-5.704 9.8796 9.8796 5.704 -7064.52 -1535.8568)" gradientUnits="userSpaceOnUse">
			<stop  offset="0" style="stop-color:#FFFFFF"/>
			<stop  offset="1" style="stop-color:#FFFFFF;stop-opacity:0"/>
		</radialGradient>
		<path style="opacity:0.9;fill:url(#SVGID_00000181773445287422313400000013832139297715383740_);enable-background:new    ;" d="
			M201.1,93.5c0.6-0.7,1.1-1.5,1.4-2.4c-4.5,2.7-12.2,2.2-23.3-6.3c-3.6-2.8-6.7-6.1-9.2-9.9c-2.4-3.4-4.2-7-5.5-10.9
			c-1.6,0.7-3.1,1.4-4.3,2.2c1.3,4.7,3.4,9.1,6.2,13c2.5,3.7,5.6,7.1,9.2,9.9C188.8,99.2,197.3,98.1,201.1,93.5L201.1,93.5
			L201.1,93.5z"/>
		<path class="st4" d="M179.2,84.8c11.1,8.4,18.8,9,23.3,6.3c0.1-0.2,0.1-0.3,0.2-0.5c-4.5,2.6-12.2,1.9-23.1-6.4
			c-3.6-2.8-6.7-6.1-9.2-9.9c-2.3-3.2-4.1-6.8-5.4-10.5c-0.2,0.1-0.3,0.1-0.5,0.2c1.3,3.9,3.2,7.6,5.5,10.9
			C172.5,78.7,175.6,82,179.2,84.8L179.2,84.8L179.2,84.8z"/>
		
			<radialGradient id="SVGID_00000182485973546534223370000002414120853842732443_" cx="-181.8628" cy="653.5957" r="1.6111" gradientTransform="matrix(-3.3192 5.749 5.749 3.3192 -4197.1489 -1080.3542)" gradientUnits="userSpaceOnUse">
			<stop  offset="0" style="stop-color:#FFFFFF"/>
			<stop  offset="1" style="stop-color:#FFFFFF;stop-opacity:0"/>
		</radialGradient>
		<path style="opacity:0.3;fill:url(#SVGID_00000182485973546534223370000002414120853842732443_);enable-background:new    ;" d="
			M160.8,53.9c0.5-0.2,1-0.4,1.5-0.6c0.9-7.3,4.1-16.4,10.7-23.5c-2.5,0.4-4.9,0.9-7.2,1.8c-5.7,7.3-7.6,16.4-7.5,23.4
			C159.2,54.7,160,54.3,160.8,53.9L160.8,53.9L160.8,53.9z"/>
		
			<linearGradient id="SVGID_00000085935467317087968380000003945957618015484038_" gradientUnits="userSpaceOnUse" x1="173.5884" y1="114.8104" x2="168.5634" y2="105.8092" gradientTransform="matrix(1 0 0 -1 0 145.3312)">
			<stop  offset="0" style="stop-color:#FFFFFF;stop-opacity:0"/>
			<stop  offset="1" style="stop-color:#FFFFFF"/>
		</linearGradient>
		<path style="opacity:0.4;fill:url(#SVGID_00000085935467317087968380000003945957618015484038_);enable-background:new    ;" d="
			M162.4,53.3c0.3-0.1,0.5-0.2,0.8-0.3c1.1-7.3,4.4-16.4,11.1-23.3c-0.4,0-0.8,0.1-1.1,0.1C166.5,36.9,163.3,46,162.4,53.3
			L162.4,53.3L162.4,53.3z"/>
		
			<linearGradient id="SVGID_00000077285098966401909580000016157243771827879581_" gradientUnits="userSpaceOnUse" x1="175.8458" y1="119.3776" x2="160.0956" y2="114.7956" gradientTransform="matrix(1 0 0 -1 0 145.3312)">
			<stop  offset="0" style="stop-color:#231F20"/>
			<stop  offset="1" style="stop-color:#FFFFFF"/>
		</linearGradient>
		<path style="opacity:0.4;fill:url(#SVGID_00000077285098966401909580000016157243771827879581_);enable-background:new    ;" d="
			M175.1,19.1c-13.3,0.9-24.9,7.1-33,16.3l-0.2,0.2c1.6,1.6,6.8,4.7,8.8,6c4.2-4.5,9.4-7.9,15.2-9.9c0.4-0.5,0.8-1.1,1.3-1.6
			c5.5-6.2,12.9-9.4,21.6-9.4c1,0,2.9,0.2,3,0.2C186.3,19.3,180.7,18.7,175.1,19.1L175.1,19.1z"/>
		
			<linearGradient id="SVGID_00000083808300942747500250000002280848916951115916_" gradientUnits="userSpaceOnUse" x1="146.0884" y1="59.3249" x2="159.2576" y2="45.5789" gradientTransform="matrix(1 0 0 -1 0 145.3312)">
			<stop  offset="0" style="stop-color:#231F20"/>
			<stop  offset="1" style="stop-color:#FFFFFF"/>
		</linearGradient>
		<path style="opacity:0.4;fill:url(#SVGID_00000083808300942747500250000002280848916951115916_);enable-background:new    ;" d="
			M180.9,105c-10.3,0.7-19.9-2.8-27.2-9c-0.7-0.1-1.4-0.2-2-0.3c-8.1-1.6-14.6-6.5-18.9-14c-0.5-0.8-0.9-1.7-1.3-2.5
			c5.6,22.3,26.4,38,50.1,36.4C181.8,113.1,181,107.4,180.9,105C180.9,105,180.9,105,180.9,105z"/>
		
			<linearGradient id="SVGID_00000066508370493947898020000003551723532025923759_" gradientUnits="userSpaceOnUse" x1="216.7645" y1="61.3965" x2="221.3465" y2="75.3262" gradientTransform="matrix(1 0 0 -1 0 145.3312)">
			<stop  offset="0" style="stop-color:#231F20"/>
			<stop  offset="1" style="stop-color:#FFFFFF"/>
		</linearGradient>
		<path style="opacity:0.4;fill:url(#SVGID_00000066508370493947898020000003551723532025923759_);enable-background:new    ;" d="
			M226.6,64c-1.5-0.1-8.7,0.4-10.5,0.7c0.2,3.3,0,6.5-0.6,9.6c0.2,0.6,0.5,1.2,0.7,1.9c2.6,7.8,1.7,15.9-2.6,23.4
			c-0.5,0.8-1,1.6-1.6,2.4c0,0,0,0,0,0C221.9,92.4,227.6,78.7,226.6,64C226.6,64,226.6,64,226.6,64z"/>
		
			<linearGradient id="SVGID_00000147220919179190333380000002667288440006427055_" gradientUnits="userSpaceOnUse" x1="183.0168" y1="111.4094" x2="204.1272" y2="106.5777" gradientTransform="matrix(1 0 0 -1 0 145.3312)">
			<stop  offset="0" style="stop-color:#231F20"/>
			<stop  offset="1" style="stop-color:#FFFFFF"/>
		</linearGradient>
		<path style="opacity:0.5;fill:url(#SVGID_00000147220919179190333380000002667288440006427055_);enable-background:new    ;" d="
			M189.2,31.5c1.1,0.1,2.2,0.4,3.2,0.7c0,0,0.1,0,0.1,0c4.1,1.7,8,4.1,11.3,7.1c0,0,0,0,0,0c1.6-1.8,4.6-3.8,4.6-3.8
			s-4.7-4.8-11.8-6.3c-5-1-16.3-2-23.4,10.1l0.1-0.1c0.5-0.8,1.1-1.6,1.7-2.3C178.5,33.2,183.6,30.9,189.2,31.5z"/>
		
			<linearGradient id="SVGID_00000181775311872122777650000005514097227100011686_" gradientUnits="userSpaceOnUse" x1="204.941" y1="57.3739" x2="190.1913" y2="41.5044" gradientTransform="matrix(1 0 0 -1 0 145.3312)">
			<stop  offset="0" style="stop-color:#231F20"/>
			<stop  offset="1" style="stop-color:#FFFFFF"/>
		</linearGradient>
		<path style="opacity:0.5;fill:url(#SVGID_00000181775311872122777650000005514097227100011686_);enable-background:new    ;" d="
			M203.9,94.5c-0.7,0.9-1.4,1.7-2.2,2.4c0,0-0.1,0.1-0.1,0.1c-3.5,2.7-7.5,4.8-11.8,6.2c0,0,0,0,0,0c0.8,2.3,1,5.9,1,5.9
			s6.5-1.7,11.3-7.1c3.4-3.8,9.9-13.1,3-25.3c0,0,0,0,0,0.1c0.4,0.9,0.8,1.7,1.1,2.6C207.9,84.4,207.2,90,203.9,94.5L203.9,94.5z"/>
		
			<linearGradient id="SVGID_00000055708351264143243670000004481300861981330838_" gradientUnits="userSpaceOnUse" x1="147.1765" y1="65.3943" x2="140.8127" y2="86.0954" gradientTransform="matrix(1 0 0 -1 0 145.3312)">
			<stop  offset="0" style="stop-color:#231F20"/>
			<stop  offset="1" style="stop-color:#FFFFFF"/>
		</linearGradient>
		<path style="opacity:0.5;fill:url(#SVGID_00000055708351264143243670000004481300861981330838_);enable-background:new    ;" d="
			M142,75.8c-0.4-1-0.8-2.1-1-3.1c0,0,0-0.1,0-0.1c-0.6-4.5-0.4-9,0.5-13.3v0c-2.4-0.5-5.6-2.1-5.6-2.1s-1.8,6.4,0.5,13.4
			c1.6,4.9,6.4,15.1,20.4,15.2c0,0,0,0-0.1,0c-1-0.1-1.9-0.2-2.8-0.3C148.8,84.2,144.3,80.9,142,75.8L142,75.8z"/>
		
			<linearGradient id="SVGID_00000122687895257124209690000004481330478575507364_" gradientUnits="userSpaceOnUse" x1="187.6293" y1="103.626" x2="180.9545" y2="96.9415" gradientTransform="matrix(1 0 0 -1 0 145.3312)">
			<stop  offset="0" style="stop-color:#231F20"/>
			<stop  offset="1" style="stop-color:#FFFFFF"/>
		</linearGradient>
		<path style="opacity:0.6;fill:url(#SVGID_00000122687895257124209690000004481330478575507364_);enable-background:new    ;" d="
			M187.2,50.4c0.4,0,0.8,0.1,1.1,0.1c0,0-0.3-5-0.9-7.6c-0.6-2.6-1.5-4.3-2.5-5.3c-0.7-0.7-3-1.6-4.7,3.8
			C179.6,45.8,182.8,49.8,187.2,50.4C187.2,50.4,187.2,50.4,187.2,50.4L187.2,50.4L187.2,50.4z"/>
		
			<linearGradient id="SVGID_00000145034603041361181690000009828914021412292542_" gradientUnits="userSpaceOnUse" x1="151.6163" y1="73.2958" x2="160.7384" y2="70.8453" gradientTransform="matrix(1 0 0 -1 0 145.3312)">
			<stop  offset="0" style="stop-color:#231F20"/>
			<stop  offset="1" style="stop-color:#FFFFFF"/>
		</linearGradient>
		<path style="opacity:0.5;fill:url(#SVGID_00000145034603041361181690000009828914021412292542_);enable-background:new    ;" d="
			M159.4,68.1c-0.2-0.4-0.3-0.7-0.5-1c0,0-4.2,2.7-6.1,4.5c-1.9,1.8-2.9,3.5-3.3,4.8c-0.2,1,0.1,3.4,5.6,2.2
			C159.1,76.9,161.1,72.2,159.4,68.1L159.4,68.1z"/>
		
			<linearGradient id="SVGID_00000087371579007404016340000004650938610509535126_" gradientUnits="userSpaceOnUse" x1="195.8807" y1="57.2721" x2="193.4366" y2="66.391" gradientTransform="matrix(1 0 0 -1 0 145.3312)">
			<stop  offset="0" style="stop-color:#231F20"/>
			<stop  offset="1" style="stop-color:#FFFFFF"/>
		</linearGradient>
		<path style="opacity:0.6;fill:url(#SVGID_00000087371579007404016340000004650938610509535126_);enable-background:new    ;" d="
			M188.6,83.3c-0.2,0.3-0.4,0.6-0.6,1c0,0,4.5,2.3,7,3c2.5,0.8,4.5,0.8,5.8,0.4c1-0.3,2.8-1.8-0.9-6
			C196.4,79.1,191.3,79.8,188.6,83.3C188.6,83.3,188.6,83.3,188.6,83.3L188.6,83.3z"/>
		
			<linearGradient id="SVGID_00000125596986298457074300000012925044161273876154_" gradientUnits="userSpaceOnUse" x1="181.986" y1="65.3888" x2="185.9977" y2="70.9213" gradientTransform="matrix(1 0 0 -1 0 145.3312)">
			<stop  offset="0" style="stop-color:#231F20"/>
			<stop  offset="1" style="stop-color:#FFFFFF"/>
		</linearGradient>
		<path style="opacity:0.3;fill:url(#SVGID_00000125596986298457074300000012925044161273876154_);enable-background:new    ;" d="
			M186.9,62.5c-1,3.4-2.4,6.4-4.2,9.1c-0.1,0.1-0.2,0.3-0.3,0.4c0,0,0,0,0,0c-1.2,1.8-2.6,3.4-4.1,4.9c1.1,1.2,2.3,2.3,3.6,3.4
			c1.5,1.2,3.1,2.2,4.7,3.2c3.4-3.5,6.1-7.5,8.2-11.9c0.7-1.5,1.4-3,1.9-4.6c-1.7-1.2-3.4-2.2-5-2.9C190.1,63.5,188.5,63,186.9,62.5
			L186.9,62.5L186.9,62.5z"/>
		
			<linearGradient id="SVGID_00000038411977902486098900000006128744892306249601_" gradientUnits="userSpaceOnUse" x1="168.1938" y1="67.7847" x2="160.1785" y2="63.9632" gradientTransform="matrix(1 0 0 -1 0 145.3312)">
			<stop  offset="0" style="stop-color:#231F20"/>
			<stop  offset="1" style="stop-color:#FFFFFF"/>
		</linearGradient>
		<path style="opacity:0.3;fill:url(#SVGID_00000038411977902486098900000006128744892306249601_);enable-background:new    ;" d="
			M153.8,95.9c9.2,1.2,18-1.7,24-5.2c-0.7-0.5-1.5-1-2.2-1.6c-2.3-1.7-4.4-3.7-6.3-5.9c-4.5,2-10.2,3.1-15.5,2.1
			c-5.1-1-9.6-4.4-11.9-9.5c-0.4-1-0.8-2.1-1-3.1C142.3,82,147,90.1,153.8,95.9L153.8,95.9L153.8,95.9z"/>
		
			<linearGradient id="SVGID_00000059281254891383316270000014224181573561111720_" gradientUnits="userSpaceOnUse" x1="165.2919" y1="81.1286" x2="167.773" y2="75.9747" gradientTransform="matrix(1 0 0 -1 0 145.3312)">
			<stop  offset="0" style="stop-color:#231F20"/>
			<stop  offset="1" style="stop-color:#FFFFFF"/>
		</linearGradient>
		<path style="opacity:0.3;fill:url(#SVGID_00000059281254891383316270000014224181573561111720_);enable-background:new    ;" d="
			M178.2,77c-2.3-2.4-4.3-5.2-5.8-8.2c-0.1-0.2-0.2-0.3-0.2-0.5v0c-0.9-1.9-1.6-4-2.2-6c-1.6,0.4-3.2,0.8-4.7,1.4
			c-1.8,0.7-3.5,1.5-5.1,2.5c1.5,5.1,3.6,9.4,6.2,13c0.9,1.4,1.9,2.7,3,3.9c1.9-0.8,3.7-1.8,5-2.9C175.8,79.3,177,78.2,178.2,77
			L178.2,77z"/>
		
			<linearGradient id="SVGID_00000047039435217113906310000006457921106527346072_" gradientUnits="userSpaceOnUse" x1="176.8172" y1="97.037" x2="175.1046" y2="102.9514" gradientTransform="matrix(1 0 0 -1 0 145.3312)">
			<stop  offset="0" style="stop-color:#231F20"/>
			<stop  offset="1" style="stop-color:#FFFFFF"/>
		</linearGradient>
		<path style="opacity:0.3;fill:url(#SVGID_00000047039435217113906310000006457921106527346072_);enable-background:new    ;" d="
			M165.8,31.6c-5.7,7.3-7.6,16.4-7.5,23.4c0.8-0.4,1.6-0.7,2.5-1.1c2.7-1.1,5.4-1.9,8.2-2.5c0.5-4.9,2.4-10.4,6-14.4
			c3.4-3.9,8.6-6.1,14.2-5.6c1.1,0.1,2.2,0.4,3.2,0.7c0,0,0.1,0,0.1,0c-5.3-2.2-11-3.1-16.8-2.7C172.3,29.8,169,30.5,165.8,31.6
			C165.9,31.6,165.8,31.6,165.8,31.6L165.8,31.6L165.8,31.6z"/>
		
			<linearGradient id="SVGID_00000094600207396093252800000014842673967511680924_" gradientUnits="userSpaceOnUse" x1="195.3354" y1="69.9528" x2="200.2977" y2="68.8105" gradientTransform="matrix(1 0 0 -1 0 145.3312)">
			<stop  offset="0" style="stop-color:#231F20"/>
			<stop  offset="1" style="stop-color:#FFFFFF"/>
		</linearGradient>
		<path style="opacity:0.3;fill:url(#SVGID_00000094600207396093252800000014842673967511680924_);enable-background:new    ;" d="
			M215.5,74.2c-3.5-8.6-10.4-14.7-16.5-18.2c-0.1,0.9-0.2,1.8-0.3,2.7c-0.4,2.8-1,5.7-2,8.4c4,2.9,7.8,7.3,9.5,12.4
			c1.6,4.9,1,10.5-2.3,15c-0.7,0.9-1.4,1.7-2.2,2.4l0,0C208.8,91.4,213.8,83.4,215.5,74.2C215.5,74.3,215.5,74.2,215.5,74.2
			L215.5,74.2L215.5,74.2z"/>
		
			<linearGradient id="SVGID_00000178201794514246949970000015579697836534179723_" gradientUnits="userSpaceOnUse" x1="187.5504" y1="86.7177" x2="181.2558" y2="87.86" gradientTransform="matrix(1 0 0 -1 0 145.3312)">
			<stop  offset="0" style="stop-color:#231F20"/>
			<stop  offset="1" style="stop-color:#FFFFFF"/>
		</linearGradient>
		<path style="opacity:0.3;fill:url(#SVGID_00000178201794514246949970000015579697836534179723_);enable-background:new    ;" d="
			M169.1,57.3c0.2,1.7,0.5,3.4,1,5c3.4-0.8,6.8-1.1,10-1l0.5,0h0c2,0.2,4.1,0.5,6.3,1.1c0.5-1.5,0.9-3.2,1.1-4.8
			c0.3-2.1,0.4-4,0.4-5.7c-5.2-1.3-10-1.5-14.4-1.1c-1.7,0.1-3.3,0.3-4.9,0.6C168.9,53.6,168.9,55.6,169.1,57.3L169.1,57.3z"/>
		<path class="st28" d="M372.4,54.8l-6.2,17.3h0L372.4,54.8L372.4,54.8L372.4,54.8z M262,54.8l-6.2,17.3h0L262,54.8L262,54.8z
			 M263.5,59.2l4.7,13h-9.4l-2.4,6.6h14.1l4,11.1h8.9l-16.3-40.9L263.5,59.2z"/>
		<path class="st28" d="M255.8,72.1l6.2-17.3l0,0.1l2.6-7.3h-6.9L241,89.8h8.4L255.8,72.1L255.8,72.1L255.8,72.1z M310.6,68.1
			c-2-1.2-4.7-2.3-8.1-3.4c-1.9-0.6-3.4-1.2-4.5-1.7c-1.1-0.5-1.9-1.1-2.3-1.8c-0.4-0.7-0.6-1.5-0.6-2.4c0-1.6,0.6-2.9,1.9-3.8
			c1.3-0.9,3-1.3,5.3-1.3c1.9,0,3.8,0.3,5.8,0.8c2,0.6,3.8,1.3,5.4,2.3l1.2-6.8c-1.6-1-3.5-1.7-5.8-2.3c-2.2-0.6-4.5-0.9-6.8-0.9
			c-3.1,0-5.7,0.5-8,1.5c-2.3,1-4,2.4-5.2,4.3s-1.9,4-1.9,6.6c0,2.2,0.4,4,1.2,5.6c0.8,1.6,2.2,2.9,4.1,4.1c1.9,1.2,4.4,2.2,7.4,3.1
			c2.2,0.7,3.9,1.3,5.2,1.9c1.2,0.6,2.1,1.3,2.6,2c0.5,0.7,0.7,1.6,0.7,2.6c0,1.7-0.7,3.1-2.1,4.1c-1.4,1-3.4,1.5-5.9,1.5
			c-2.2,0-4.5-0.3-6.9-1c-2.4-0.7-4.5-1.6-6.2-2.6l-0.8,7c1,0.7,2.3,1.3,3.9,1.8c1.6,0.5,3.2,0.9,5,1.2c1.8,0.3,3.6,0.4,5.4,0.4
			c5,0,8.9-1.1,11.8-3.4c2.8-2.3,4.3-5.4,4.3-9.5c0-2.1-0.5-4-1.4-5.6C314.1,70.7,312.7,69.3,310.6,68.1L310.6,68.1L310.6,68.1z
			 M354.9,47.6h-35.7v6.9h35.7V47.6z M341.3,57.4h-8.5v32.4h8.5V57.4z M366.2,72.1l6.2-17.3l0,0.1l2.6-7.3h-6.9l-16.8,42.2h8.4
			l4-11.1h0L366.2,72.1L366.2,72.1L366.2,72.1z M374,59.2l4.6,13h-9.3l-2.4,6.6H381l4,11.1h8.9L377.7,49L374,59.2L374,59.2z
			 M421.4,72.7c2-1.1,3.7-2.7,5-4.6c1.3-1.9,1.9-4.2,1.9-6.8c0-2.8-0.6-5.2-1.9-7.3c-1.3-2-3.1-3.6-5.4-4.7
			c-2.3-1.1-5.1-1.7-8.3-1.7h-3V54h1.8c5.6,0,8.4,2.4,8.4,7.2s-2.9,7.2-8.7,7.2h-1.6v6.4h4.3l8.9,15h9.5L421.4,72.7L421.4,72.7
			L421.4,72.7z M406.9,47.6h-8v42.2h8V47.6z"/>
	</g>
</g>
</svg>
