<?xml version="1.0" encoding="UTF-8"?>
<svg width="180px" height="50px" viewBox="0 0 180 50" version="1.1" xmlns="http://www.w3.org/2000/svg" xmlns:xlink="http://www.w3.org/1999/xlink">
    <!-- Generator: Sketch 52.6 (67491) - http://www.bohemiancoding.com/sketch -->
    <title>astar</title>
    <desc>Created with Sketch.</desc>
    <defs>
        <linearGradient x1="15.8813438%" y1="84.1241073%" x2="79.6320406%" y2="20.3641182%" id="linearGradient-1">
            <stop stop-color="#E6007A" offset="0%"></stop>
            <stop stop-color="#703AC2" offset="21%"></stop>
            <stop stop-color="#0070EB" offset="46%"></stop>
            <stop stop-color="#0297FB" offset="77%"></stop>
            <stop stop-color="#0AE2FF" offset="100%"></stop>
        </linearGradient>
        <radialGradient cx="57.7823874%" cy="47.0521691%" fx="57.7823874%" fy="47.0521691%" r="110.927216%" gradientTransform="translate(0.577824,0.470522),scale(1.000000,0.320000),translate(-0.577824,-0.470522)" id="radialGradient-2">
            <stop stop-color="#FFFFFF" offset="0%"></stop>
            <stop stop-color="#FFFFFF" stop-opacity="0" offset="100%"></stop>
        </radialGradient>
        <radialGradient cx="56.1101572%" cy="42.9701733%" fx="56.1101572%" fy="42.9701733%" r="137.670643%" gradientTransform="translate(0.561102,0.429702),scale(0.266667,1.000000),translate(-0.561102,-0.429702)" id="radialGradient-3">
            <stop stop-color="#FFFFFF" offset="0%"></stop>
            <stop stop-color="#FFFFFF" stop-opacity="0" offset="100%"></stop>
        </radialGradient>
        <linearGradient x1="3.74630564%" y1="55.824023%" x2="42.8474989%" y2="52.2297357%" id="linearGradient-4">
            <stop stop-color="#FFFFFF" stop-opacity="0" offset="0%"></stop>
            <stop stop-color="#FFFFFF" offset="100%"></stop>
        </linearGradient>
        <radialGradient cx="43.1657383%" cy="37.2298996%" fx="43.1657383%" fy="37.2298996%" r="72.1049039%" gradientTransform="translate(0.431657,0.372299),scale(0.565217,1.000000),rotate(-120.326385),translate(-0.431657,-0.372299)" id="radialGradient-5">
            <stop stop-color="#FFFFFF" offset="0%"></stop>
            <stop stop-color="#FFFFFF" stop-opacity="0" offset="100%"></stop>
        </radialGradient>
        <radialGradient cx="45.1354135%" cy="42.0048902%" fx="45.1354135%" fy="42.0048902%" r="61.4573594%" gradientTransform="translate(0.451354,0.420049),scale(1.000000,0.692308),rotate(-120.669570),translate(-0.451354,-0.420049)" id="radialGradient-6">
            <stop stop-color="#FFFFFF" offset="0%"></stop>
            <stop stop-color="#FFFFFF" stop-opacity="0" offset="100%"></stop>
        </radialGradient>
        <linearGradient x1="94.6161859%" y1="95.7810855%" x2="59.6700321%" y2="55.6551535%" id="linearGradient-7">
            <stop stop-color="#FFFFFF" stop-opacity="0" offset="0%"></stop>
            <stop stop-color="#FFFFFF" offset="100%"></stop>
        </linearGradient>
        <radialGradient cx="44.6829473%" cy="58.4715957%" fx="44.6829473%" fy="58.4715957%" r="56.0744527%" gradientTransform="translate(0.446829,0.584716),scale(0.772727,1.000000),rotate(120.010159),translate(-0.446829,-0.584716)" id="radialGradient-8">
            <stop stop-color="#FFFFFF" offset="0%"></stop>
            <stop stop-color="#FFFFFF" stop-opacity="0" offset="100%"></stop>
        </radialGradient>
        <radialGradient cx="38.342521%" cy="54.2700175%" fx="38.342521%" fy="54.2700175%" r="70.0367417%" gradientTransform="translate(0.383425,0.542700),scale(1.000000,0.615385),rotate(121.259567),translate(-0.383425,-0.542700)" id="radialGradient-9">
            <stop stop-color="#FFFFFF" offset="0%"></stop>
            <stop stop-color="#FFFFFF" stop-opacity="0" offset="100%"></stop>
        </radialGradient>
        <linearGradient x1="94.6446939%" y1="3.31711943%" x2="52.2616327%" y2="41.4521784%" id="linearGradient-10">
            <stop stop-color="#FFFFFF" stop-opacity="0" offset="0%"></stop>
            <stop stop-color="#FFFFFF" offset="100%"></stop>
        </linearGradient>
        <linearGradient x1="68.2081127%" y1="31.0135009%" x2="36.5865193%" y2="51.2827565%" id="linearGradient-11">
            <stop stop-color="#231F20" offset="0%"></stop>
            <stop stop-color="#FFFFFF" offset="100%"></stop>
        </linearGradient>
        <linearGradient x1="29.0651158%" y1="18.9736798%" x2="55.3267739%" y2="56.6045123%" id="linearGradient-12">
            <stop stop-color="#231F20" offset="0%"></stop>
            <stop stop-color="#FFFFFF" offset="100%"></stop>
        </linearGradient>
        <linearGradient x1="32.2972929%" y1="52.5860019%" x2="63.489406%" y2="15.9053197%" id="linearGradient-13">
            <stop stop-color="#231F20" offset="0%"></stop>
            <stop stop-color="#FFFFFF" offset="100%"></stop>
        </linearGradient>
        <linearGradient x1="27.6551819%" y1="48.4784544%" x2="87.5355525%" y2="93.8216335%" id="linearGradient-14">
            <stop stop-color="#231F20" offset="0%"></stop>
            <stop stop-color="#FFFFFF" offset="100%"></stop>
        </linearGradient>
        <linearGradient x1="82.5861457%" y1="34.5489552%" x2="2.34478974%" y2="83.4935075%" id="linearGradient-15">
            <stop stop-color="#231F20" offset="0%"></stop>
            <stop stop-color="#FFFFFF" offset="100%"></stop>
        </linearGradient>
        <linearGradient x1="55.3870908%" y1="80.0333474%" x2="25.9148376%" y2="7.71339814%" id="linearGradient-16">
            <stop stop-color="#231F20" offset="0%"></stop>
            <stop stop-color="#FFFFFF" offset="100%"></stop>
        </linearGradient>
        <linearGradient x1="91.508146%" y1="34.6078655%" x2="10.0788282%" y2="84.6162136%" id="linearGradient-17">
            <stop stop-color="#231F20" offset="0%"></stop>
            <stop stop-color="#FFFFFF" offset="100%"></stop>
        </linearGradient>
        <linearGradient x1="21.2723678%" y1="41.7933979%" x2="107.135808%" y2="62.4221911%" id="linearGradient-18">
            <stop stop-color="#231F20" offset="0%"></stop>
            <stop stop-color="#FFFFFF" offset="100%"></stop>
        </linearGradient>
        <linearGradient x1="55.8882058%" y1="100.54313%" x2="38.6189959%" y2="-15.5012255%" id="linearGradient-19">
            <stop stop-color="#231F20" offset="0%"></stop>
            <stop stop-color="#FFFFFF" offset="100%"></stop>
        </linearGradient>
        <linearGradient x1="20.3261326%" y1="82.797931%" x2="42.0983585%" y2="56.5162069%" id="linearGradient-20">
            <stop stop-color="#231F20" offset="0%"></stop>
            <stop stop-color="#FFFFFF" offset="100%"></stop>
        </linearGradient>
        <linearGradient x1="73.9548652%" y1="20.8557426%" x2="52.175904%" y2="37.0522011%" id="linearGradient-21">
            <stop stop-color="#231F20" offset="0%"></stop>
            <stop stop-color="#FFFFFF" offset="100%"></stop>
        </linearGradient>
        <linearGradient x1="28.3388922%" y1="9.09478563%" x2="42.0617844%" y2="33.7766512%" id="linearGradient-22">
            <stop stop-color="#231F20" offset="0%"></stop>
            <stop stop-color="#FFFFFF" offset="100%"></stop>
        </linearGradient>
        <linearGradient x1="53.9454924%" y1="73.6360572%" x2="48.9349163%" y2="50.4947674%" id="linearGradient-23">
            <stop stop-color="#231F20" offset="0%"></stop>
            <stop stop-color="#FFFFFF" offset="100%"></stop>
        </linearGradient>
        <linearGradient x1="-7.12130937%" y1="47.1943262%" x2="19.2048139%" y2="49.9844267%" id="linearGradient-24">
            <stop stop-color="#231F20" offset="0%"></stop>
            <stop stop-color="#FFFFFF" offset="100%"></stop>
        </linearGradient>
        <linearGradient x1="95.7522146%" y1="67.096696%" x2="63.415575%" y2="57.4343994%" id="linearGradient-25">
            <stop stop-color="#231F20" offset="0%"></stop>
            <stop stop-color="#FFFFFF" offset="100%"></stop>
        </linearGradient>
        <linearGradient x1="0%" y1="50%" x2="100%" y2="50%" id="linearGradient-26">
            <stop stop-color="#E6007A" offset="0%"></stop>
            <stop stop-color="#703AC2" offset="21%"></stop>
            <stop stop-color="#0070EB" offset="46%"></stop>
            <stop stop-color="#0297FB" offset="77%"></stop>
            <stop stop-color="#0AE2FF" offset="100%"></stop>
        </linearGradient>
    </defs>
    <g id="astar" stroke="none" stroke-width="1" fill="none" fill-rule="evenodd">
        <g id="full-astar-logo" transform="translate(13.500000, 0.000000)">
            <path d="M49.4423514,22.8351399 C48.5224341,9.33668634 36.8333512,-0.86228154 23.3350975,0.0576494175 C16.6135682,0.517614896 10.7076989,3.64538015 6.58646922,8.33702804 L6.57420366,8.33089516 C6.54353975,8.3676924 6.51900862,8.40448964 6.49447749,8.44128688 C2.40391174,13.1635991 0.0979856255,19.4375283 0.557944293,26.16529 C0.600873768,26.8092417 0.674467155,27.4347947 0.766458888,28.0603478 C0.766458888,28.0910121 0.772591671,28.1155436 0.778724453,28.146208 C0.840052275,28.5571105 0.913645662,28.968013 0.993371831,29.3727826 C1.06696522,29.7468879 1.15282417,30.1148602 1.2448159,30.4828326 C4.07816129,41.767319 14.6449451,49.7584526 26.6651982,48.9427805 C40.1634519,48.0228496 50.3622688,36.3397264 49.4423514,22.8351399 C49.4423514,22.8290071 49.4423514,22.8351399 49.4423514,22.8351399 Z M44.1068309,23.2031123 C44.2233538,24.8651209 44.1129637,26.4903323 43.8185901,28.0603478 C43.8185901,28.0542149 43.8124574,28.0419492 43.8124574,28.0358163 C42.0339505,23.6937422 38.5198663,20.559844 35.4350768,18.8303738 C36.0606206,11.477059 33.5645782,8.37382528 30.7373656,7.87092968 C28.5172985,7.45389432 26.3830903,8.9135181 25.9660611,11.1336181 C25.9537955,11.2133455 25.9415299,11.2930728 25.9292644,11.3728002 C25.6410236,13.6112989 27.2232814,15.6596785 29.4617469,15.9479235 L29.4678797,15.9479235 C29.6641287,15.972455 29.8603778,15.9785879 30.0443612,15.9785879 C30.0566268,16.2423014 30.0627596,16.5060149 30.0627596,16.7697285 C27.4501944,16.1257768 25.009347,15.9908536 22.7831471,16.1932384 C21.9429559,16.2484343 21.1150303,16.3526931 20.2871047,16.5060149 C20.5630799,14.0222014 21.5013956,11.2317441 23.3044336,9.19563026 C25.0522765,7.22084514 27.6525762,6.0923965 30.4859216,6.38064153 C31.0256064,6.43583739 31.5959552,6.5707606 32.1111089,6.74248104 C32.13564,6.74861392 32.1601711,6.76087966 32.1847022,6.76087966 C38.7590448,9.43481231 43.5916772,15.6658113 44.1068309,23.2031123 C44.1006981,23.2031123 44.1068309,23.2031123 44.1068309,23.2031123 Z M27.0270324,26.9441649 C27.0270324,26.9441649 27.0270324,26.9502977 27.0208996,26.9502977 C26.4014886,27.8395643 25.7023514,28.6675022 24.9234881,29.4279785 C23.7521267,28.1891381 22.758616,26.790843 21.9736198,25.2698905 C21.9368231,25.1901632 21.8938937,25.1165687 21.857097,25.0368414 L21.857097,25.0307085 C21.3971383,24.0494488 21.0291714,23.025259 20.759329,21.9765377 C22.5010391,21.5656352 24.2059526,21.4123134 25.8372726,21.4920407 L26.0948495,21.5043065 L26.1009823,21.5043065 C27.1251569,21.5901667 28.192261,21.7741529 29.290029,22.0807965 C28.7871409,23.8041339 28.0205431,25.441611 27.0270324,26.9441649 C27.0331652,26.938032 27.0270324,26.9441649 27.0270324,26.9441649 Z M18.6619174,6.42357164 L18.6496519,6.44197026 C15.773377,10.1523585 14.816663,14.7581461 14.8595924,18.2968139 C8.17485982,21.430712 6.73978878,25.1411002 7.71490115,27.8456972 C7.73943228,27.9192917 7.77009619,27.9928862 7.8007601,28.0664806 C8.67161518,30.1516575 11.069533,31.1329172 13.154679,30.2620492 C15.2398249,29.3911812 16.2210701,26.9932279 15.350215,24.908051 C15.2766216,24.7301977 15.1846299,24.5584773 15.0865054,24.3928897 C15.29502,24.2518336 15.5219329,24.1169104 15.7672442,23.9758543 C16.5154437,26.5639267 17.6132117,28.7472296 18.9010959,30.5748257 C19.3671874,31.2678404 19.8700755,31.9301907 20.4158931,32.5741423 C18.1283654,33.5738006 15.2398249,34.1625565 12.5720647,33.6167308 C9.99016336,33.0893037 7.71490115,31.4027636 6.54353975,28.8024254 C6.31662681,28.2933969 6.15104169,27.759837 6.0406516,27.2140113 C5.973191,26.7479129 5.91799596,26.2756817 5.88733205,25.8034505 C5.29245217,17.0211763 10.73223,9.20789601 18.6619174,6.42357164 Z M26.2972313,43.607181 C21.0843664,43.9628876 16.2149373,42.1843544 12.5291352,39.0259248 C17.1777841,39.6576107 21.6424496,38.1857212 24.6904424,36.3765236 C30.7496312,40.5959403 34.6807446,39.9887859 36.5328448,37.7932173 C38.0047126,36.0760128 37.8084635,33.4940733 36.0912845,32.0221838 C36.0299567,31.9669879 35.9686289,31.9179249 35.9011683,31.8688619 C34.1042631,30.5012312 31.5346273,30.8446721 30.1670169,32.6416039 C30.050494,32.7949258 29.9462367,32.9666462 29.854245,33.1322338 C29.6334648,33.0157092 29.3942863,32.8930517 29.1612406,32.7519957 C30.8661541,30.9918611 32.2644284,28.9557472 33.3008686,26.7295143 C33.6688355,25.9751709 33.993873,25.2024289 34.275981,24.4112883 C36.2875336,25.8954436 38.2438911,28.097145 39.1086134,30.6852174 C39.9426718,33.1812968 39.6237671,36.0024184 37.9556503,38.3145115 C37.6244801,38.7622112 37.2503804,39.1731137 36.8333512,39.5410861 L36.8149528,39.5594847 C33.797624,41.9390395 30.1302202,43.3434674 26.2972313,43.607181 C26.3033641,43.6010481 26.2972313,43.607181 26.2972313,43.607181 Z" id="Shape" fill="url(#linearGradient-1)" fill-rule="nonzero"></path>
            <path d="M29.9347314,8.06943526 C29.4966279,7.9834678 29.0468416,7.97732726 28.6087381,8.05101366 C30.8401452,9.32824456 32.4698902,12.8836133 31.6112074,19.9022427 C31.3308211,22.1865211 30.6882694,24.4032535 29.7244417,26.4664727 C28.8891244,28.3516164 27.8026277,30.1016683 26.5,31.6613638 C27.1191863,32.1526064 27.7675794,32.5947248 28.4393381,33 C30.0632417,31.237667 31.4009177,29.19901 32.3822695,26.9699964 C33.3519386,24.9067773 33.988649,22.6900448 34.2690352,20.4057664 C35.2854353,12.0607818 32.7853247,8.60980218 29.9347314,8.06943526 Z" id="Path" fill="url(#radialGradient-2)" opacity="0.9"></path>
            <path d="M32.2505249,20.046814 C33.1721238,12.9123537 31.4172984,9.29830949 29.0059916,8 C28.9113068,8.01248375 28.8229343,8.03120936 28.7282495,8.05617685 C31.0890577,9.39817945 32.7870722,13.0122237 31.8780979,20.046814 C31.5751065,22.3687906 30.8807511,24.6221066 29.8392181,26.7193758 C28.9681177,28.5669701 27.8508368,30.2897269 26.5,31.8314694 C26.5757479,31.8938882 26.6514957,31.950065 26.7272436,32 C28.1348913,30.4083225 29.3089831,28.6293888 30.211645,26.7193758 C31.2531781,24.6221066 31.9475334,22.3687906 32.2505249,20.046814 Z" id="Path" fill="#FFFFFF" opacity="0.8"></path>
            <path d="M23.3725083,35.5064964 C23.1482558,35.3456093 22.9364618,35.1728047 22.7184385,35 C19.2051495,36.4003136 14.333887,37.2822133 9.5,36.2036738 C10.2848837,37.1689964 11.1756645,38.0568548 12.1474252,38.8553315 C16.869186,39.469086 21.4040698,38.0389785 24.5,36.281138 C24.1137874,36.0308692 23.7400332,35.7686828 23.3725083,35.5064964 Z" id="Path" fill="url(#radialGradient-3)" opacity="0.5"></path>
            <path d="M22.5,35.2637896 C22.3985773,35.1779046 22.2911886,35.085885 22.195732,35 C18.8070216,36.3925639 14.1177145,37.2268754 9.5,36.0428893 C9.61335475,36.1962554 9.7267095,36.3557561 9.84006425,36.5091221 C14.4697109,37.6133579 19.1351537,36.7054307 22.5,35.2637896 Z" id="Path" fill="url(#linearGradient-4)" opacity="0.6"></path>
            <path d="M6.7814663,27.7761967 C6.80639,27.8499939 6.83754462,27.9237911 6.86869925,27.9975883 C7.02447237,28.3665742 7.2300929,28.6986615 7.4793299,29 C7.41078972,26.3248522 9.66638457,23.0593269 16.2898579,20.3226814 C18.4457579,19.4371152 20.7387383,18.9082354 23.0691043,18.7606411 C25.168926,18.5761481 27.2874405,18.6868439 29.3561076,19.0988781 C29.4620333,18.213312 29.5056498,17.3892434 29.4994189,16.6635712 C27.08182,16.0608942 24.583219,15.8702514 22.09708,16.0854932 C19.766714,16.2392374 17.4737336,16.7619674 15.3178335,17.6475336 C7.4294825,20.9069091 5.72843997,24.9104062 6.7814663,27.7761967 Z" id="Path" fill="url(#radialGradient-5)" opacity="0.9"></path>
            <path d="M16.361058,20.7240811 C9.70700155,23.5762334 7.43259242,26.9936772 7.50151391,29.7815919 C7.56416981,29.8586771 7.62682571,29.9293386 7.68948161,30 C7.68321602,27.2313566 9.98268751,23.8717267 16.5490257,21.0516932 C18.7169198,20.1266708 21.0226569,19.5742269 23.3659875,19.4200565 C25.4023042,19.2337672 27.4574177,19.3365475 29.4686721,19.7283973 C29.4812032,19.6320408 29.4937344,19.5356843 29.5,19.4393278 C27.4198242,19.0153592 25.2895236,18.8997314 23.1780198,19.0860206 C20.8346892,19.2466148 18.5289521,19.7926349 16.361058,20.7240811 C16.361058,20.7176573 16.361058,20.7240811 16.361058,20.7240811 Z" id="Path" fill="#FFFFFF" opacity="0.8"></path>
            <path d="M34.6340426,20.3795411 C34.6021277,20.6591778 34.5510638,20.9326004 34.5,21.2060229 C37.5957447,23.5114723 40.9085106,27.2586042 42.3957447,32 C42.887234,30.8130975 43.2574468,29.582696 43.5,28.3274379 C41.6553191,23.9278203 37.9978723,20.7586042 34.787234,19 C34.7489362,19.4474187 34.6978723,19.9010516 34.6340426,20.3795411 Z" id="Path" fill="url(#radialGradient-6)" opacity="0.4"></path>
            <path d="M34.5769231,21 C34.5512821,21.1326754 34.525641,21.2653509 34.5,21.3980263 C37.5833333,23.6836623 40.8525641,27.3744518 42.2628205,32 C42.3461538,31.8251096 42.4230769,31.6441886 42.5,31.4692982 C41.0128205,26.8739035 37.6923077,23.2373904 34.5769231,21 Z" id="Path" fill="url(#linearGradient-7)" opacity="0.5"></path>
            <path d="M36.7718973,38.2525546 C37.0794579,37.8886516 37.3305278,37.4745551 37.5,37.0290877 C35.1713267,38.4533287 31.1479315,38.1458934 25.3921541,33.7665091 C23.5216833,32.3359939 21.9022825,30.6105918 20.596719,28.6530447 C19.3727532,26.9150942 18.4061341,25.0140148 17.7282454,23 C16.8934379,23.3576288 16.146505,23.7403544 15.5,24.1168057 C16.1904422,26.5323687 17.2763195,28.8098995 18.7199715,30.8615594 C20.0067047,32.7814614 21.6135521,34.5194119 23.5154066,35.9750238 C30.3633381,41.1951495 34.7633381,40.6304724 36.7718973,38.2525546 Z" id="Path" fill="url(#radialGradient-8)" opacity="0.9"></path>
            <path d="M24.8321745,33.9503517 C30.3328066,38.3608222 34.182048,38.6704398 36.4159292,37.2297703 C36.4459545,37.1413081 36.4759798,37.0465273 36.5,36.9643838 C34.2601138,38.3355473 30.4408976,37.9753799 25.0123262,33.6280967 C23.2228192,32.1874272 21.6735145,30.4497776 20.4244627,28.4783352 C19.295512,26.7912354 18.4007585,24.9461675 17.7522124,23 C17.6681416,23.0379124 17.5840708,23.0758247 17.5,23.1137371 C18.1545512,25.142048 19.07933,27.0566219 20.244311,28.8069089 C21.4753477,30.740439 23.0126422,32.490726 24.8321745,33.9503517 Z" id="Path" fill="#FFFFFF" opacity="0.8"></path>
            <path d="M15.8433315,17.4369586 C16.1195964,17.3306064 16.3892835,17.2305101 16.6721262,17.1304139 C17.1851896,13.3392685 18.915134,8.64100096 22.5,5 C21.1581419,5.18142445 19.8425948,5.48171319 18.5665141,5.90712223 C15.481556,9.69201155 14.4554292,14.3902791 14.5014734,18 C14.9290262,17.8123195 15.3763122,17.6246391 15.8433315,17.4369586 Z" id="Path" fill="url(#radialGradient-9)" opacity="0.3"></path>
            <path d="M16.5,17 C16.6285714,16.9569452 16.7571429,16.9015889 16.8857143,16.8585341 C17.4183673,13.1312148 19.1020408,8.53049718 22.5,5 C22.3102041,5.01845208 22.1142857,5.04920554 21.9244898,5.0738083 C18.5877551,8.65351102 16.977551,13.2726807 16.5,17 Z" id="Path" fill="url(#linearGradient-10)" opacity="0.4"></path>
            <path d="M23.1747632,0.0559549263 C16.5133592,0.497484448 10.671727,3.49988519 6.59108574,8.00348631 L6.5,8.10356634 C7.29548215,8.86888418 9.89446199,10.3759716 10.9389118,11 C13.0338839,8.81590063 15.6450085,7.15574963 18.5476075,6.1667235 C18.7540685,5.90769285 18.9666019,5.65454926 19.1912801,5.40729273 C21.9299247,2.41077904 25.6705125,0.827159824 30.0122662,0.827159824 C30.4919845,0.827159824 31.4757105,0.903691608 31.5,0.903691608 C28.7977897,0.156034951 25.9862764,-0.132431003 23.1747632,0.0559549263 Z" id="Path" fill="url(#linearGradient-11)" opacity="0.4"></path>
            <path d="M26.13861,43.7577974 C21.0118491,44.1035695 16.2228512,42.3747091 12.5979296,39.3044915 C12.2601665,39.2627604 11.9224035,39.2031445 11.5846404,39.137567 C7.5616409,38.3267911 4.29860834,35.9481177 2.14536873,32.257895 C1.91014088,31.852507 1.69300747,31.4292343 1.5,31 C4.28654537,41.9693211 14.6787914,49.7372697 26.4944676,48.9443786 C26.5487509,47.7401379 26.1868619,44.9501149 26.13861,43.7577974 Z" id="Path" fill="url(#linearGradient-12)" opacity="0.4"></path>
            <path d="M49.4394392,23.0116669 C48.6290234,22.9390306 44.6823644,23.2235227 43.70723,23.3687952 C43.8258274,25.0091645 43.7138187,26.6132155 43.3975589,28.1627894 C43.5359226,28.4714936 43.6611088,28.7862508 43.7797062,29.101008 C45.1962866,33.0052078 44.7021307,37.0486272 42.3499483,40.8015014 C42.0863984,41.213107 41.8096711,41.6126065 41.5,42 C41.5,42 41.5131775,41.993947 41.5197662,41.9818409 C46.8698282,37.2120588 49.9797164,30.3903019 49.4394392,23.0116669 C49.4394392,23.0177199 49.4394392,23.0116669 49.4394392,23.0116669 Z" id="Path" fill="url(#linearGradient-13)" opacity="0.4"></path>
            <path d="M29.6475635,6.29307093 C30.1849691,6.34416184 30.7656143,6.46905072 31.2844887,6.6280002 C31.309197,6.63367697 31.3339053,6.64503051 31.3586136,6.64503051 C33.4773507,7.43977793 35.4231297,8.5751314 37.1156486,9.98864647 C37.1156486,9.98864647 37.1218257,9.99432323 37.1280027,9.99432323 C37.9371997,9.14280813 39.5,8.21181829 39.5,8.21181829 C39.5,8.21181829 37.1156486,5.96949519 33.4588195,5.27125281 C30.90151,4.78305082 25.1382979,4.31187913 21.5,10 L21.5308854,9.97161616 C21.8026767,9.59694952 22.0868222,9.23363641 22.4080302,8.89870714 C24.174674,7.06511129 26.7875772,6.0205861 29.6475635,6.29307093 Z" id="Path" fill="url(#linearGradient-14)" opacity="0.5"></path>
            <path d="M37.4305103,38.7701493 C37.1106406,39.2059701 36.7493063,39.6059701 36.3465074,39.9641791 C36.3287369,39.9820896 36.3109663,39.9940299 36.2931958,40.0119403 C34.5576065,41.3671642 32.6028471,42.4 30.511847,43.0686567 C30.5059235,43.0686567 30.5059235,43.0686567 30.5,43.0746269 C30.8791048,44.2029851 30.9798046,46 30.9798046,46 C30.9798046,46 34.148884,45.1820896 36.5360598,42.4955224 C38.200567,40.6149254 41.3933405,36.0358209 37.9991675,30 C37.9991675,30 38.0050911,30.0179104 38.0110146,30.041791 C38.224261,30.4656716 38.4138135,30.8955224 38.5559778,31.3373134 C39.355652,33.7791045 39.0476294,36.519403 37.4305103,38.7701493 C37.4364338,38.7701493 37.4305103,38.7701493 37.4305103,38.7701493 Z" id="Path" fill="url(#linearGradient-15)" opacity="0.5"></path>
            <path d="M5.95625781,28.8203719 C5.72821985,28.2941674 5.56181377,27.7426036 5.45087639,27.1783601 C5.4447132,27.1530008 5.43855001,27.1276416 5.43238682,27.1022823 C5.11806423,24.7692308 5.22283843,22.3981403 5.7035671,20.1221471 L5.7035671,20.1094675 C4.49558224,19.8685545 2.84384784,19 2.84384784,19 C2.84384784,19 1.92553281,22.3791209 3.09037536,26.0118343 C3.91007937,28.5540997 6.33837547,33.9429417 13.5,34 C13.5,34 13.4815104,33.9936602 13.4568577,33.9873204 C12.9699658,33.9556213 12.4892372,33.9049028 12.0146717,33.8034658 C9.41380631,33.2519019 7.12726354,31.5084531 5.95625781,28.8203719 C5.95009462,28.8203719 5.95625781,28.8203719 5.95625781,28.8203719 Z" id="Path" fill="url(#linearGradient-16)" opacity="0.5"></path>
            <path d="M28.945054,15.9683215 C29.1339718,15.9936643 29.3228896,16 29.5,16 C29.5,16 29.3760227,13.3706874 29.074935,12.0211849 C28.7738473,10.6716823 28.3251676,9.77834958 27.8410658,9.27149415 C27.4927486,8.91035965 26.3887604,8.45418977 25.5327267,11.2355589 C25.2552537,13.5480869 26.7724996,15.6642083 28.9332467,15.9619858 C28.9391504,15.9619858 28.9391504,15.9619858 28.945054,15.9683215 Z" id="Path" fill="url(#linearGradient-17)" opacity="0.6"></path>
            <path d="M15.2051362,25.5133035 C15.1368101,25.3360916 15.0514025,25.1649904 14.9603011,25 C14.9603011,25 12.9731511,26.3810309 12.0678306,27.2976444 C11.1625102,28.2142578 10.6842277,29.0514315 10.5248002,29.7297254 C10.4109234,30.2185859 10.5931262,31.4224049 13.1667416,30.8479938 C15.102647,29.9802664 16.0136613,27.5909607 15.2051362,25.5133035 Z" id="Path" fill="url(#linearGradient-18)" opacity="0.5"></path>
            <path d="M29.8051777,32.6165026 C29.691484,32.7704613 29.5897581,32.942895 29.5,33.1091704 C29.5,33.1091704 31.7140341,34.273098 32.9706481,34.6610739 C34.2272621,35.0428914 35.1846823,35.0798415 35.8429086,34.8827744 C36.3156349,34.7411324 37.2431356,33.9651807 35.4060857,31.8405508 C33.6468261,30.4672394 31.139582,30.8121068 29.8051777,32.6165026 C29.8051777,32.6226609 29.8051777,32.6226609 29.8051777,32.6165026 C29.8051777,32.6226609 29.8051777,32.6165026 29.8051777,32.6165026 Z" id="Path" fill="url(#linearGradient-19)" opacity="0.6"></path>
            <path d="M28.7074852,22 C28.2110965,23.7637931 27.5137886,25.3695402 26.6628365,26.7793103 C26.6155614,26.8551724 26.5741957,26.9247126 26.5269206,27.0068966 C26.5269206,27.0068966 26.5269206,27.0132184 26.5210112,27.0132184 C25.9241628,27.9298851 25.2504924,28.7833333 24.5,29.5672414 C25.0436638,30.1804598 25.622784,30.7747126 26.2669074,31.3436782 C26.9996717,31.9568966 27.7678923,32.5132184 28.5774787,33 C30.2202889,31.1856322 31.5735391,29.0867816 32.5663165,26.791954 C32.9208798,26.0143678 33.2340775,25.2178161 33.5,24.4022989 C32.6667761,23.7511494 31.8276428,23.2264368 31.0535128,22.8724138 C30.2912016,22.5247126 29.5052528,22.233908 28.7074852,22 Z" id="Path" fill="url(#linearGradient-20)" opacity="0.3"></path>
            <path d="M12.1143984,38.850617 C16.8425378,39.4843728 21.3957922,38.0076604 24.5,36.1925347 C24.1190007,35.9279571 23.7442472,35.6633794 23.3694938,35.3864958 C22.1890204,34.5004684 21.1084813,33.4913816 20.1403682,32.3776943 C17.8106509,33.3806282 14.8688363,33.9713131 12.1518738,33.4236989 C9.52235371,32.8945437 7.20512821,31.2024774 6.01216305,28.5936188 C5.78106509,28.0829224 5.61242604,27.5476142 5.5,27 C6.18704799,31.7562445 8.61669954,35.9033452 12.1143984,38.850617 Z" id="Path" fill="url(#linearGradient-21)" opacity="0.3"></path>
            <path d="M24.4973234,29.7369641 C23.3470632,28.4495944 22.3714498,26.9965238 21.6005948,25.4223638 C21.564461,25.3395133 21.5223048,25.2630359 21.486171,25.1801854 L21.486171,25.1738123 C21.0344981,24.1541136 20.6731599,23.089803 20.4081784,22 C19.6252788,22.1975666 18.8423792,22.4397451 18.0474349,22.7520278 C17.1681784,23.1216686 16.3190335,23.5614137 15.5,24.0648899 C16.2347212,26.7543453 17.3187361,29.023175 18.5834201,30.9223638 C19.0411152,31.6425261 19.5349442,32.3308227 20.0769517,33 C21.0405204,32.5538818 21.90171,32.0312862 22.5882528,31.4831981 C23.2627509,30.9478563 23.9011152,30.3615295 24.4973234,29.7369641 C24.5033457,29.730591 24.4973234,29.7369641 24.4973234,29.7369641 Z" id="Path" fill="url(#linearGradient-22)" opacity="0.3"></path>
            <path d="M18.219991,6.10469457 C15.3979139,9.82774671 14.4592273,14.4492544 14.5013478,18 C14.9045017,17.8030782 15.31969,17.6184641 15.7288611,17.4400037 C17.0466327,16.8738537 18.4185594,16.4553949 19.8265893,16.1907813 C20.0973643,13.6984902 21.0179993,10.8985088 22.7870625,8.85544549 C24.5019708,6.87392022 27.0532729,5.74162007 29.8332295,6.03084891 C30.3567278,6.08623316 30.9223467,6.22161687 31.4277933,6.39392342 C31.4518622,6.40007722 31.4759311,6.41238483 31.5,6.41238483 C28.8644568,5.3108537 26.0122935,4.84316451 23.1721647,5.04624008 C21.445222,5.16931618 19.790486,5.52623688 18.2260083,6.09238696 C18.219991,6.09238696 18.219991,6.09854077 18.219991,6.10469457 Z" id="Path" fill="url(#linearGradient-23)" opacity="0.3"></path>
            <path d="M43.4807445,28.3147163 C41.6193838,23.9210993 37.9415918,20.75 34.7130937,19 C34.6745828,19.4468085 34.6232349,19.9060284 34.5590501,20.3838652 C34.360077,21.8484043 34.0070603,23.2819149 33.5,24.6719858 C35.6052632,26.1737589 37.6527599,28.4015957 38.5577664,31.0203901 C39.4306804,33.5460993 39.0969191,36.4007092 37.3510911,38.7402482 C37.0044929,39.1932624 36.6129653,39.6090426 36.1765083,39.981383 L36.1572529,40 C39.9249037,37.1391844 42.5821566,33.018617 43.5,28.3519504 C43.5,28.3457447 43.4935815,28.3333333 43.4935815,28.3271277 L43.4807445,28.3147163 Z" id="Path" fill="url(#linearGradient-24)" opacity="0.3"></path>
            <path d="M19.5801613,19.3597207 C19.6858183,20.2132063 19.8474114,21.0605518 20.0711557,21.8956169 C21.8362493,21.4842245 23.5640522,21.3307199 25.2172737,21.4105423 L25.4783087,21.4228227 L25.4845238,21.4228227 C26.5224486,21.5087852 27.6038792,21.6929908 28.7163854,22 C28.9525599,21.2140564 29.1514437,20.3974119 29.3006065,19.5500664 C29.4559845,18.4939547 29.5057054,17.5115252 29.4994903,16.6641797 C26.8518499,16.0194604 24.3782327,15.8843763 22.1221448,16.0870024 C21.2706735,16.142264 20.4316325,16.2466472 19.5925916,16.4001518 C19.4745043,17.4746841 19.4682892,18.4816743 19.5801613,19.3597207 Z" id="Path" fill="url(#linearGradient-25)" opacity="0.3"></path>
            <path d="M123.481647,18.0452797 L120.337101,26.9387393 L120.361572,26.9387393 L123.5,18.0949985 L123.481647,18.0452797 Z M67.6445458,18.0452797 L64.5,26.9387393 L64.5122356,26.9387393 L67.6567814,18.076354 C67.6567814,18.0701391 67.6445458,18.0452797 67.6445458,18.0452797 Z M68.4337412,20.2639834 L70.7952095,26.9325244 L66.0661551,26.9325244 L64.8731854,30.2947618 L72.0004148,30.2947618 L74.0192866,36 L78.540336,36 L70.2996682,15 L68.4337412,20.2639834 Z" id="Shape" fill="url(#linearGradient-26)" fill-rule="nonzero"></path>
            <path d="M63.9761514,26.7263216 L67.1259397,18.05837 L67.1381957,18.0886564 L68.4679702,14.4421806 L64.9933982,14.4421806 L56.5,35.5638767 L60.7650831,35.5638767 L63.9884074,26.7202643 L63.9761514,26.7263216 Z M91.7604713,24.685022 C90.7309685,24.0853524 89.3582981,23.5220264 87.654716,23.0011013 C86.6803652,22.6861233 85.914366,22.3953744 85.3628467,22.1288546 C84.8113273,21.8623348 84.4252638,21.5534141 84.210784,21.214207 C83.9963043,20.8689427 83.8860004,20.469163 83.8860004,20.0027533 C83.8860004,19.185022 84.204656,18.5550661 84.8419673,18.1128855 C85.4792785,17.6707048 86.3739655,17.4465859 87.5137722,17.4465859 C88.4513551,17.4465859 89.425706,17.5859031 90.4490808,17.8645374 C91.4724556,18.1431718 92.3732706,18.5247797 93.1637817,19.003304 L93.752069,15.5870044 C92.9493019,15.1084802 91.968823,14.720815 90.8167604,14.4300661 C89.6892097,14.1453744 88.531019,14 87.3728284,14 C85.8163182,14 84.4681597,14.248348 83.328353,14.7511013 C82.1824183,15.2538546 81.2999874,15.9625551 80.6749321,16.8893172 C80.0437488,17.8160793 79.7312212,18.9124449 79.7312212,20.1662996 C79.7312212,21.2444934 79.9395729,22.1712555 80.3624044,22.9587004 C80.785236,23.7461454 81.4715712,24.4306167 82.4275381,25 C83.383505,25.5754405 84.6397435,26.0963656 86.1962537,26.5567181 C87.3176764,26.8959251 88.1878514,27.2048458 88.8129067,27.501652 C89.431834,27.7984581 89.8669215,28.1255507 90.1059132,28.4889868 C90.3510329,28.8524229 90.4674648,29.282489 90.4674648,29.779185 C90.4674648,30.6514317 90.1059132,31.3298458 89.388938,31.8204846 C88.6658349,32.3111233 87.666972,32.5594714 86.3923495,32.5594714 C85.2831828,32.5594714 84.1311201,32.3898678 82.9177775,32.0446035 C81.7044349,31.6993392 80.6565481,31.2632159 79.7557331,30.7241189 L79.3635416,34.2494493 C79.884421,34.6007709 80.5462442,34.9096916 81.3306273,35.1640969 C82.1211384,35.4245595 82.9668014,35.6305066 83.8737444,35.7758811 C84.7806873,35.9273128 85.6876303,36 86.5884453,36 C89.1193063,36 91.104776,35.4306167 92.5509824,34.2918502 C93.9910607,33.1530837 94.7141639,31.5721366 94.7141639,29.5550661 C94.7141639,28.4829295 94.4813001,27.5501101 94.0094447,26.7626652 C93.5437172,25.9812775 92.7961021,25.2846916 91.7604713,24.685022 Z M114.195053,14.4421806 L96.1174743,14.4421806 L96.1174743,17.8887665 L114.195053,17.8887665 L114.195053,14.4421806 Z M107.307189,19.3303965 L103.005338,19.3303965 L103.005338,35.5638767 L107.307189,35.5638767 L107.307189,19.3303965 Z M119.906343,26.7263216 L123.056131,18.05837 L123.074515,18.1068282 L124.410418,14.4421806 L120.917462,14.4421806 L112.430191,35.5699339 L116.701402,35.5699339 L118.72364,30.0093612 L118.729768,30.0093612 L119.930855,26.7323789 L119.906343,26.7263216 Z M123.846642,20.2389868 L126.199792,26.7263216 L121.475109,26.7263216 L120.28015,30.003304 L127.407006,30.003304 L129.429244,35.5638767 L133.957831,35.5638767 L125.709552,15.1145374 L123.846642,20.2389868 Z M147.88063,27.0049559 C148.897877,26.44163 149.768052,25.6481278 150.411492,24.685022 C151.067187,23.7098018 151.398098,22.5770925 151.398098,21.280837 C151.398098,19.8694934 151.079443,18.6580396 150.442132,17.6404185 C149.80482,16.6227974 148.897877,15.8353524 147.715175,15.2780837 C146.532472,14.720815 145.129162,14.4482379 143.499116,14.4482379 L142.003885,14.4482379 L142.003885,17.6464758 L142.93534,17.6464758 C145.784857,17.6464758 147.206551,18.8518722 147.206551,21.2566079 C147.206551,23.6613436 145.735833,24.8667401 142.788268,24.8667401 L141.997757,24.8667401 L141.997757,28.064978 L144.191579,28.064978 L148.689526,35.5699339 L153.5,35.5699339 L147.88063,27.0049559 Z M140.545423,14.4421806 L136.470308,14.4421806 L136.470308,35.5638767 L140.545423,35.5638767 L140.545423,14.4421806 Z" id="Shape" fill="url(#linearGradient-26)" fill-rule="nonzero"></path>
        </g>
    </g>
</svg>