<?xml version="1.0" encoding="utf-8"?>
<!-- Generator: Adobe Illustrator 27.1.1, SVG Export Plug-In . SVG Version: 6.00 Build 0)  -->
<svg version="1.1" id="Layer_1" xmlns="http://www.w3.org/2000/svg" xmlns:xlink="http://www.w3.org/1999/xlink" x="0px" y="0px"
	 viewBox="0 0 562.6 145.8" style="enable-background:new 0 0 562.6 145.8;" xml:space="preserve">
<style type="text/css">
	.st0{fill:#1B1B1D;}
	.st1{fill-rule:evenodd;clip-rule:evenodd;fill:#1B1B1D;}
	.st2{fill:#7567CE;}
	.st3{fill:#FFFFFF;}
</style>
<g>
	<g>
		<path class="st0" d="M562.6,30.4v75.4c0,11.9-7.3,22.1-17.7,26.5c-1,0.4-2.2-0.4-2.2-1.5c0-0.2,0-0.3,0-0.4
			c-2.1-12.3-17.1-17.6-30.6-17c-9.1,0.4-19.1,4-24.6,10c-0.6,0.7-1.6,0.7-2.3,0.1c-4.7-4.5-12.4-7.1-19.6-7.3
			c-8.3-0.2-17.6,2.6-22.4,8.2c-0.6,0.7-1.6,0.8-2.3,0.2c-3.5-2.9-8.6-4.7-13.4-4.9c-12.5-0.6-19.7,7.3-19.5,12.9c0,0.1,0,0.2,0,0.3
			c0,0.9-0.7,1.6-1.6,1.6h-376C13.7,134.5,0,120.9,0,104.2V30.4C0,13.7,13.7,0,30.4,0h501.8C548.9,0,562.6,13.7,562.6,30.4z"/>
		<g>
			<path class="st1" d="M533.5,132.3c0.3,7-8.5,13-19.5,13.4c-11.1,0.5-20.3-4.8-20.6-11.8c-0.3-8,10.3-13,19.5-13.4
				C522.1,120.2,533.2,124.3,533.5,132.3z"/>
			<path class="st1" d="M481.1,133.5c-0.3,5.7-7.9,10.2-17,10c-9.1-0.2-16.2-5-15.9-10.7c0.4-6.6,9.4-10.1,17-10
				C473,123,481.5,127,481.1,133.5z"/>
			<path class="st1" d="M439.2,133.7c-0.3,4.3-6.2,7.7-13,7.4c-6.8-0.2-12.1-3.9-11.9-8.2c-0.1-3.2,4.7-7.8,13-7.6
				C433.1,125.6,439.6,128.7,439.2,133.7z"/>
		</g>
	</g>
	<g>
		<path class="st2" d="M104.9,67.3c0-29.4,23.8-53.2,53.2-53.2c29.4,0,53.2,23.8,53.2,53.2c0,29.4-23.8,53.2-53.2,53.2
			C128.8,120.5,104.9,96.7,104.9,67.3z"/>
		<path class="st3" d="M153.2,38.2c-20,0-28.3,8.5-28.3,20v18.3c0,11.4,8.3,20,28.3,20h19.3c18.1,0,18.9-2.2,18.9-5.8
			c0-4.2-1.7-5.8-5.8-5.8h-32.4c-10,0-15-5-15-10v-1.7h47.4c3.3,0,5.8-2.2,5.8-5.8c0-3.6-2.5-5.8-5.8-5.8h-47.4v-1.7c0-5,5-10,15-10
			h32.4c4.2,0,5.8-1.7,5.8-5.8c0-3.6-0.8-5.8-18.9-5.8H153.2z"/>
		<path class="st2" d="M394.3,45.4c-2.2,0-3.2,1.1-3.2,3.6v36.4c0,2.5,1,3.6,3.2,3.6h3.6c2.2,0,3.2-1.1,3.2-3.6V49.1
			c0-2.5-1-3.6-3.2-3.6H394.3z"/>
		<path class="st2" d="M319.6,85.2c2.7,3.4,5.8,3.9,9.2,3.9h2.6c3.8,0,4.8-3,4.8-4.8V49.1c0-2.5-1-3.6-3.2-3.6h-3.6
			c-2.2,0-3.2,1.1-3.2,3.6v28.7l-21.7-28.4c-2.7-3.4-5.8-3.9-9.2-3.9h-2.6c-3.8,0-4.8,3-4.8,4.8v35.3c0,2.5,1,3.6,3.2,3.6h3.6
			c2.2,0,3.2-1.1,3.2-3.6V56.8L319.6,85.2z"/>
		<path class="st2" d="M441.1,85.2c2.7,3.4,5.8,3.9,9.2,3.9h2.6c3.8,0,4.8-3,4.8-4.8V49.1c0-2.5-1-3.6-3.2-3.6h-3.6
			c-2.2,0-3.2,1.1-3.2,3.6v28.7l-21.7-28.4c-2.7-3.4-5.8-3.9-9.2-3.9h-2.6c-3.8,0-4.8,3-4.8,4.8v35.3c0,2.5,1,3.6,3.2,3.6h3.6
			c2.2,0,3.2-1.1,3.2-3.6V56.8L441.1,85.2z"/>
		<path class="st2" d="M252.6,45.4c-15,0-21.2,6.4-21.2,15v13.7c0,8.6,6.2,15,21.2,15h14.5c13.6,0,14.2-1.6,14.2-4.4
			c0-3.1-1.2-4.4-4.4-4.4h-24.3c-7.5,0-11.2-3.7-11.2-7.5v-1.2h35.6c2.5,0,4.4-1.6,4.4-4.4s-1.9-4.4-4.4-4.4h-35.6v-1.2
			c0-3.8,3.7-7.5,11.2-7.5h24.3c3.1,0,4.4-1.2,4.4-4.4c0-2.7-0.6-4.4-14.2-4.4H252.6z"/>
		<path class="st2" d="M372.8,72.5V49.1c0-2.5,1-3.6,3.2-3.6h3.6c2.2,0,3.2,1.1,3.2,3.6v24.5c0,8.6-6.1,15.5-13.7,15.5h-12
			c-13.6,0-14.2-1.6-14.2-4.4c0-3.1,1.2-4.4,4.4-4.4h19.3C369.9,80.4,372.8,76.3,372.8,72.5z"/>
	</g>
</g>
</svg>
