<?xml version="1.0" encoding="UTF-8"?>
<svg width="180px" height="50px" viewBox="0 0 180 50" version="1.1" xmlns="http://www.w3.org/2000/svg" xmlns:xlink="http://www.w3.org/1999/xlink">
    <!-- Generator: Sketch 52.6 (67491) - http://www.bohemiancoding.com/sketch -->
    <title>krest</title>
    <desc>Created with Sketch.</desc>
    <g id="krest" stroke="none" stroke-width="1" fill="none" fill-rule="evenodd">
        <g id="Group" transform="translate(20.000000, 5.000000)" fill="#FFFFFF">
            <polygon id="Path" points="12.8339254 27.5252525 12.8339254 27.5252525 6.91563055 27.5757576 6.91563055 27.5757576 6.91563055 40 6.91563055 40 0.5 40 0.5 40 0.5 0 0.5 0 6.91563055 0 6.91563055 0 6.91563055 21.0606061 6.91563055 21.0606061 12.9831261 21.010101 12.9831261 21.010101 20.1447602 11.6666667 20.1447602 11.6666667 27.8534636 11.6666667 27.8534636 11.6666667 18.2548845 24.2424242 18.2548845 24.2424242 18.2548845 24.2929293 18.2548845 24.2929293 28.5 40 28.5 40 20.9404973 40 20.9404973 40"></polygon>
            <path d="M32.5,16.7914439 C32.5,13.6969697 34.1625917,12 37.1943765,12 L52.5,12 L52.5,17.6399287 L38.8080685,17.6399287 L38.8080685,40 L32.5,40 L32.5,16.7914439 Z" id="Path"></path>
            <path d="M85.5,27.5841584 L62.9662162,27.5841584 C63.1621622,32.4356436 67.5219595,35.7029703 73.4003378,35.7029703 C77.1722973,35.7029703 81.4341216,34.4653465 84.4712838,32.3366337 L84.5202703,32.3366337 L84.5202703,37.5841584 C81.8260135,39.7623762 77.6621622,41 73.3023649,41 C63.0641892,41 56.5,35.1089109 56.5,26 C56.5,17.2376238 62.5743243,11 71.0489865,11 C79.5726351,11 85.5,17.1386139 85.5,26.1485149 L85.5,27.5841584 Z M78.9358108,23.1287129 C78.2010135,19.019802 75.2618243,16.2970297 70.9510135,16.2970297 C66.8361486,16.2970297 63.9459459,18.9207921 63.1131757,23.1287129 L78.9358108,23.1287129 Z" id="Shape" fill-rule="nonzero"></path>
            <path d="M104.635667,16.5445545 C100.961707,16.4950495 98.9989059,17.4356436 98.9485777,18.8712871 C98.8982495,19.8613861 99.7035011,20.9009901 104.384026,23.1782178 C108.309628,24.9108911 114.5,27.1881188 114.5,33.0792079 C114.5,38.3267327 109.618162,41 103.478118,41 C99.3008753,41 94.1673961,39.8118812 91.5,38.4257426 L91.5,32.8811881 L91.5503282,32.8316832 C94.0667396,34.2178218 99.3512035,35.5049505 102.521882,35.5544554 C105.239606,35.6039604 107.40372,34.8613861 107.454048,32.980198 C107.504376,30.4554455 103.629103,29.1683168 101.314004,28.1287129 C96.2811816,25.8019802 91.9026258,23.2772277 91.952954,18.5742574 C91.952954,13.7722772 96.6838074,11 103.42779,11 C106.749453,11 111.580963,11.8910891 113.795405,12.9306931 L113.795405,18.4257426 L113.745077,18.4752475 C111.329322,17.3861386 106.900438,16.5940594 104.635667,16.5445545 Z" id="Path"></path>
            <path d="M124.748826,11.6814159 L124.748826,0 L131.410798,0 L131.410798,3.08470291 L131.410798,11.6814159 L140.5,11.6814159 L140.5,17.3957016 L131.410798,17.3957016 L131.410798,34.2857143 L140.5,34.2857143 L140.5,40 L131.049296,40 C126.969484,40 124.748826,37.7749684 124.748826,33.8305942 L124.748826,17.4462705 L118.5,17.4462705 L118.5,11.6814159 L124.748826,11.6814159 Z" id="Path"></path>
        </g>
    </g>
</svg>