<?xml version="1.0" encoding="utf-8"?>
<!-- Generator: Adobe Illustrator 27.1.1, SVG Export Plug-In . SVG Version: 6.00 Build 0)  -->
<svg version="1.1" id="Layer_1" xmlns="http://www.w3.org/2000/svg" xmlns:xlink="http://www.w3.org/1999/xlink" x="0px" y="0px"
	 viewBox="0 0 981 146.8" style="enable-background:new 0 0 981 146.8;" xml:space="preserve">
<style type="text/css">
	.st0{fill:#BB82FA;}
	.st1{fill-rule:evenodd;clip-rule:evenodd;fill:#BB82FA;}
	.st2{fill:#FFFFFF;}
</style>
<g>
	<g>
		<g>
			<path class="st0" d="M981,30.4v75.4c0,11.9-7.3,22.1-17.7,26.5c-1,0.4-2.2-0.4-2.2-1.5c0-0.2,0-0.3,0-0.4
				c-2.1-12.3-17.1-17.6-30.6-17c-9.1,0.4-19.1,4-24.6,10c-0.6,0.7-1.6,0.7-2.3,0.1c-4.7-4.5-12.4-7.1-19.6-7.3
				c-8.3-0.2-17.6,2.6-22.4,8.2c-0.6,0.7-1.6,0.8-2.3,0.2c-3.5-2.9-8.6-4.7-13.4-4.9c-12.5-0.6-19.7,7.3-19.5,12.9
				c0,0.1,0,0.2,0,0.3c0,0.9-0.7,1.6-1.6,1.6H30.4C13.7,134.5,0,120.9,0,104.2V30.4C0,13.7,13.7,0,30.4,0h920.3
				C967.3,0,981,13.7,981,30.4z"/>
		</g>
		<g>
			<g>
				<path class="st1" d="M951.3,133.3c0.3,7-8.5,13-19.5,13.4c-11.1,0.5-20.3-4.8-20.6-11.8c-0.3-8,10.3-13,19.5-13.4
					C939.9,121.2,951,125.3,951.3,133.3z"/>
			</g>
			<g>
				<path class="st1" d="M898.9,134.5c-0.3,5.7-7.9,10.2-17,10c-9.1-0.2-16.2-5-15.9-10.7c0.4-6.6,9.4-10.1,17-10
					C890.8,124,899.3,128,898.9,134.5z"/>
			</g>
			<g>
				<path class="st1" d="M857,134.7c-0.3,4.3-6.2,7.7-13,7.4c-6.8-0.2-12.1-3.9-11.9-8.2c-0.1-3.2,4.7-7.8,13-7.6
					C850.9,126.6,857.4,129.7,857,134.7z"/>
			</g>
		</g>
	</g>
	<g>
		<path class="st2" d="M62.9,84.4v-33H49.6v-7.7h36.2v7.7H72.5v33H62.9z"/>
		<path class="st2" d="M102.8,84.9c-3.6,0-6.8-0.7-9.6-2.1c-2.7-1.4-4.9-3.3-6.4-5.7c-1.5-2.4-2.3-5.2-2.3-8.3
			c0-3.1,0.7-5.9,2.2-8.3c1.5-2.4,3.5-4.3,6.1-5.7c2.6-1.4,5.5-2.1,8.7-2.1c3.1,0,5.9,0.6,8.4,1.9c2.5,1.3,4.5,3.2,6,5.6
			c1.5,2.4,2.2,5.3,2.2,8.7c0,0.3,0,0.7-0.1,1.2c0,0.4-0.1,0.9-0.1,1.2H92.2v-5.3h21l-3.6,1.6c0-1.6-0.3-3-1-4.2
			c-0.7-1.2-1.6-2.1-2.8-2.8c-1.2-0.7-2.6-1-4.2-1c-1.6,0-3,0.3-4.2,1c-1.2,0.7-2.1,1.6-2.8,2.8c-0.7,1.2-1,2.7-1,4.3v1.4
			c0,1.7,0.4,3.2,1.2,4.5c0.8,1.3,1.9,2.3,3.3,3c1.4,0.7,3.1,1,5,1c1.7,0,3.2-0.3,4.5-0.8c1.3-0.5,2.5-1.3,3.5-2.3l4.9,5.2
			c-1.5,1.6-3.3,2.9-5.5,3.7C108.3,84.5,105.7,84.9,102.8,84.9z"/>
		<path class="st2" d="M135.1,84.9c-2.7,0-5.3-0.3-7.9-1c-2.5-0.6-4.5-1.4-6-2.4l3.1-6.5c1.5,0.9,3.2,1.6,5.2,2.2
			c2,0.6,4,0.8,5.9,0.8c2.1,0,3.6-0.3,4.5-0.8c0.9-0.5,1.3-1.2,1.3-2.1c0-0.7-0.3-1.3-1-1.7c-0.7-0.4-1.6-0.6-2.8-0.8
			c-1.1-0.2-2.4-0.4-3.8-0.6c-1.4-0.2-2.7-0.5-4.1-0.8c-1.4-0.3-2.6-0.8-3.8-1.5c-1.1-0.7-2.1-1.5-2.8-2.7c-0.7-1.1-1-2.6-1-4.4
			c0-2,0.6-3.7,1.7-5.2c1.2-1.5,2.9-2.7,5.1-3.6c2.2-0.9,4.9-1.3,7.9-1.3c2.2,0,4.4,0.2,6.6,0.7c2.3,0.5,4.1,1.1,5.6,2l-3.1,6.4
			c-1.5-0.9-3.1-1.5-4.7-1.8c-1.6-0.3-3.1-0.5-4.5-0.5c-2.1,0-3.6,0.3-4.5,0.8c-0.9,0.5-1.4,1.2-1.4,2.1c0,0.8,0.3,1.4,1,1.7
			c0.7,0.4,1.6,0.7,2.8,0.9c1.1,0.2,2.4,0.4,3.8,0.6c1.4,0.2,2.7,0.4,4.1,0.8c1.4,0.3,2.6,0.8,3.8,1.5c1.1,0.6,2,1.5,2.8,2.6
			c0.7,1.1,1.1,2.5,1.1,4.3c0,1.9-0.6,3.6-1.8,5.1c-1.2,1.5-2.9,2.7-5.1,3.5C141.1,84.5,138.3,84.9,135.1,84.9z"/>
		<path class="st2" d="M152.1,60.9v-7h22.1v7H152.1z M168.9,84.9c-3.8,0-6.7-0.9-8.8-2.8c-2.1-1.9-3.1-4.7-3.1-8.4V46.3h9.2v27.3
			c0,1.3,0.4,2.3,1.1,3s1.7,1.1,2.9,1.1c1.5,0,2.7-0.4,3.7-1.2l2.5,6.4c-0.9,0.7-2.1,1.2-3.4,1.5C171.7,84.7,170.4,84.9,168.9,84.9z
			"/>
		<path class="st2" d="M201.1,52.7c2.5,0,4.8,0.5,6.8,1.5c2,1,3.6,2.5,4.7,4.5c1.1,2,1.7,4.6,1.7,7.8v17.9H205V67.9
			c0-2.5-0.6-4.4-1.7-5.6c-1.1-1.2-2.7-1.8-4.8-1.8c-1.5,0-2.8,0.3-3.9,0.9c-1.2,0.6-2.1,1.5-2.7,2.8c-0.7,1.2-1,2.8-1,4.8v15.4
			h-9.2V53.2h8.8v8.7l-1.7-2.6c1.1-2.1,2.8-3.7,4.9-4.8C195.9,53.3,198.3,52.7,201.1,52.7z"/>
		<path class="st2" d="M238.7,84.9c-3.6,0-6.8-0.7-9.6-2.1c-2.7-1.4-4.9-3.3-6.4-5.7c-1.5-2.4-2.3-5.2-2.3-8.3
			c0-3.1,0.7-5.9,2.2-8.3c1.5-2.4,3.5-4.3,6.1-5.7c2.6-1.4,5.5-2.1,8.7-2.1c3.1,0,5.9,0.6,8.4,1.9c2.5,1.3,4.5,3.2,6,5.6
			c1.5,2.4,2.2,5.3,2.2,8.7c0,0.3,0,0.7-0.1,1.2c0,0.4-0.1,0.9-0.1,1.2H228v-5.3h21l-3.6,1.6c0-1.6-0.3-3-1-4.2
			c-0.7-1.2-1.6-2.1-2.8-2.8c-1.2-0.7-2.6-1-4.2-1c-1.6,0-3,0.3-4.2,1c-1.2,0.7-2.1,1.6-2.8,2.8c-0.7,1.2-1,2.7-1,4.3v1.4
			c0,1.7,0.4,3.2,1.2,4.5c0.8,1.3,1.9,2.3,3.3,3c1.4,0.7,3.1,1,5,1c1.7,0,3.2-0.3,4.5-0.8c1.3-0.5,2.5-1.3,3.5-2.3l4.9,5.2
			c-1.5,1.6-3.3,2.9-5.5,3.7C244.1,84.5,241.6,84.9,238.7,84.9z"/>
		<path class="st2" d="M256.5,60.9v-7h22.1v7H256.5z M273.3,84.9c-3.8,0-6.7-0.9-8.8-2.8c-2.1-1.9-3.1-4.7-3.1-8.4V46.3h9.2v27.3
			c0,1.3,0.4,2.3,1.1,3s1.7,1.1,2.9,1.1c1.5,0,2.7-0.4,3.7-1.2l2.5,6.4c-0.9,0.7-2.1,1.2-3.4,1.5C276.1,84.7,274.8,84.9,273.3,84.9z
			"/>
		<path class="st2" d="M322.2,52.7c2.5,0,4.8,0.5,6.8,1.5c2,1,3.6,2.5,4.7,4.5c1.1,2,1.7,4.6,1.7,7.8v17.9h-9.2V67.9
			c0-2.5-0.6-4.4-1.7-5.6c-1.1-1.2-2.7-1.8-4.8-1.8c-1.5,0-2.8,0.3-3.9,0.9c-1.2,0.6-2.1,1.5-2.7,2.8c-0.7,1.2-1,2.8-1,4.8v15.4
			h-9.2V53.2h8.8v8.7l-1.7-2.6c1.1-2.1,2.8-3.7,4.9-4.8C317.1,53.3,319.5,52.7,322.2,52.7z"/>
		<path class="st2" d="M359.2,84.9c-3.4,0-6.4-0.7-9-2.1c-2.6-1.4-4.7-3.3-6.2-5.7c-1.5-2.4-2.3-5.2-2.3-8.3c0-3.1,0.8-5.9,2.3-8.3
			c1.5-2.4,3.6-4.3,6.2-5.7c2.6-1.4,5.6-2.1,9-2.1c3.4,0,6.4,0.7,9,2.1c2.6,1.4,4.7,3.3,6.2,5.7c1.5,2.4,2.3,5.2,2.3,8.4
			c0,3.1-0.8,5.9-2.3,8.3c-1.5,2.4-3.6,4.3-6.2,5.7C365.6,84.2,362.6,84.9,359.2,84.9z M359.2,77.5c1.5,0,2.9-0.3,4.2-1
			c1.2-0.7,2.2-1.7,2.9-3c0.7-1.3,1.1-2.8,1.1-4.6c0-1.8-0.4-3.4-1.1-4.6c-0.7-1.3-1.7-2.3-2.9-3c-1.2-0.7-2.6-1-4.2-1
			c-1.5,0-2.9,0.3-4.1,1c-1.2,0.7-2.2,1.7-2.9,3c-0.7,1.3-1.1,2.8-1.1,4.6c0,1.8,0.4,3.3,1.1,4.6c0.7,1.3,1.7,2.3,2.9,3
			C356.3,77.1,357.7,77.5,359.2,77.5z"/>
		<path class="st2" d="M389.3,84.4l-11.5-31.2h8.7l9.5,26.9h-4.2l10-26.9h7.8l9.7,26.9h-4.1l9.8-26.9h8.2l-11.6,31.2h-9l-8.5-23.1
			h2.7l-8.8,23.1H389.3z"/>
		<path class="st2" d="M452.7,66.6V61H489v5.6H452.7z"/>
		<path class="st2" d="M513.3,84.4V43.8h7.9l17.7,28.7h-4.2L552,43.8h7.9l0.1,40.7h-9L551,57.3h1.7l-13.9,22.8h-4.3l-14.2-22.8h2
			v27.1H513.3z"/>
		<path class="st2" d="M579.1,84.9c-2.5,0-4.6-0.4-6.4-1.2s-3.1-2-4.1-3.4c-0.9-1.4-1.4-3-1.4-4.8c0-1.9,0.5-3.5,1.4-4.9
			c0.9-1.4,2.4-2.5,4.4-3.3c2-0.8,4.6-1.2,7.9-1.2h8.5v5.3h-7.5c-2.2,0-3.7,0.3-4.5,1c-0.8,0.7-1.2,1.6-1.2,2.6
			c0,1.2,0.5,2.1,1.4,2.8c0.9,0.7,2.2,1,3.8,1c1.5,0,2.9-0.4,4.2-1.1c1.2-0.7,2.1-1.8,2.7-3.2l1.4,4.2c-0.7,2-1.9,3.5-3.7,4.6
			S581.9,84.9,579.1,84.9z M588.8,84.4v-6.1l-0.6-1.3V66.1c0-1.9-0.6-3.4-1.8-4.5c-1.2-1.1-3.1-1.6-5.5-1.6c-1.7,0-3.4,0.3-5,0.8
			c-1.6,0.5-3,1.2-4.2,2.1l-3.3-6.3c1.7-1.2,3.8-2.1,6.3-2.8c2.5-0.7,4.9-1,7.5-1c4.9,0,8.6,1.1,11.3,3.4c2.7,2.2,4,5.7,4,10.5v17.8
			H588.8z"/>
		<path class="st2" d="M610.4,48.8c-1.7,0-3.1-0.5-4.1-1.5c-1.1-1-1.6-2.2-1.6-3.6c0-1.4,0.5-2.6,1.6-3.6c1.1-1,2.5-1.5,4.1-1.5
			s3.1,0.5,4.2,1.4c1.1,0.9,1.6,2.1,1.6,3.5c0,1.5-0.5,2.8-1.6,3.7C613.6,48.3,612.2,48.8,610.4,48.8z M605.8,84.4V53.2h9.2v31.2
			H605.8z"/>
		<path class="st2" d="M643,52.7c2.5,0,4.8,0.5,6.8,1.5c2,1,3.6,2.5,4.7,4.5c1.1,2,1.7,4.6,1.7,7.8v17.9H647V67.9
			c0-2.5-0.6-4.4-1.7-5.6c-1.1-1.2-2.7-1.8-4.8-1.8c-1.5,0-2.8,0.3-3.9,0.9c-1.2,0.6-2.1,1.5-2.7,2.8c-0.7,1.2-1,2.8-1,4.8v15.4
			h-9.2V53.2h8.8v8.7l-1.7-2.6c1.1-2.1,2.8-3.7,4.9-4.8C637.9,53.3,640.3,52.7,643,52.7z"/>
		<path class="st2" d="M684,52.7c2.5,0,4.8,0.5,6.8,1.5c2,1,3.6,2.5,4.7,4.5c1.1,2,1.7,4.6,1.7,7.8v17.9H688V67.9
			c0-2.5-0.6-4.4-1.7-5.6c-1.1-1.2-2.7-1.8-4.8-1.8c-1.5,0-2.8,0.3-3.9,0.9c-1.2,0.6-2.1,1.5-2.7,2.8c-0.7,1.2-1,2.8-1,4.8v15.4
			h-9.2V53.2h8.8v8.7l-1.7-2.6c1.1-2.1,2.8-3.7,4.9-4.8C678.8,53.3,681.3,52.7,684,52.7z"/>
		<path class="st2" d="M721.6,84.9c-3.6,0-6.8-0.7-9.6-2.1c-2.7-1.4-4.9-3.3-6.4-5.7c-1.5-2.4-2.3-5.2-2.3-8.3
			c0-3.1,0.7-5.9,2.2-8.3c1.5-2.4,3.5-4.3,6.1-5.7c2.6-1.4,5.5-2.1,8.7-2.1c3.1,0,5.9,0.6,8.4,1.9c2.5,1.3,4.5,3.2,6,5.6
			c1.5,2.4,2.2,5.3,2.2,8.7c0,0.3,0,0.7-0.1,1.2c0,0.4-0.1,0.9-0.1,1.2H711v-5.3h21l-3.6,1.6c0-1.6-0.3-3-1-4.2
			c-0.7-1.2-1.6-2.1-2.8-2.8c-1.2-0.7-2.6-1-4.1-1c-1.6,0-3,0.3-4.2,1c-1.2,0.7-2.1,1.6-2.8,2.8c-0.7,1.2-1,2.7-1,4.3v1.4
			c0,1.7,0.4,3.2,1.2,4.5c0.8,1.3,1.9,2.3,3.3,3c1.4,0.7,3.1,1,5,1c1.7,0,3.2-0.3,4.5-0.8c1.3-0.5,2.5-1.3,3.5-2.3l4.9,5.2
			c-1.5,1.6-3.3,2.9-5.5,3.7C727.1,84.5,724.5,84.9,721.6,84.9z"/>
		<path class="st2" d="M739.4,60.9v-7h22.1v7H739.4z M756.3,84.9c-3.8,0-6.7-0.9-8.8-2.8c-2.1-1.9-3.1-4.7-3.1-8.4V46.3h9.2v27.3
			c0,1.3,0.4,2.3,1.1,3c0.7,0.7,1.7,1.1,2.9,1.1c1.5,0,2.7-0.4,3.7-1.2l2.5,6.4c-0.9,0.7-2.1,1.2-3.4,1.5S757.7,84.9,756.3,84.9z"/>
		<path class="st2" d="M796.5,84.9c-2.7,0-5.3-0.3-7.9-1s-4.5-1.4-6-2.4l3.1-6.5c1.5,0.9,3.2,1.6,5.2,2.2c2,0.6,4,0.8,5.9,0.8
			c2.1,0,3.6-0.3,4.5-0.8c0.9-0.5,1.3-1.2,1.3-2.1c0-0.7-0.3-1.3-1-1.7c-0.7-0.4-1.6-0.6-2.8-0.8c-1.1-0.2-2.4-0.4-3.8-0.6
			c-1.4-0.2-2.7-0.5-4.1-0.8c-1.4-0.3-2.6-0.8-3.8-1.5c-1.1-0.7-2.1-1.5-2.8-2.7c-0.7-1.1-1-2.6-1-4.4c0-2,0.6-3.7,1.7-5.2
			c1.2-1.5,2.9-2.7,5.1-3.6c2.2-0.9,4.9-1.3,7.9-1.3c2.2,0,4.4,0.2,6.6,0.7c2.3,0.5,4.1,1.1,5.6,2l-3.1,6.4
			c-1.5-0.9-3.1-1.5-4.7-1.8c-1.6-0.3-3.1-0.5-4.5-0.5c-2.1,0-3.6,0.3-4.5,0.8c-0.9,0.5-1.4,1.2-1.4,2.1c0,0.8,0.3,1.4,1,1.7
			c0.7,0.4,1.6,0.7,2.8,0.9c1.1,0.2,2.4,0.4,3.8,0.6c1.4,0.2,2.7,0.4,4.1,0.8c1.4,0.3,2.6,0.8,3.8,1.5c1.1,0.6,2,1.5,2.8,2.6
			c0.7,1.1,1.1,2.5,1.1,4.3c0,1.9-0.6,3.6-1.8,5.1s-2.9,2.7-5.1,3.5C802.4,84.5,799.7,84.9,796.5,84.9z"/>
		<path class="st2" d="M832.4,84.9c-3.4,0-6.4-0.7-9-2.1c-2.6-1.4-4.7-3.3-6.2-5.7c-1.5-2.4-2.3-5.2-2.3-8.3c0-3.1,0.8-5.9,2.3-8.3
			c1.5-2.4,3.6-4.3,6.2-5.7c2.6-1.4,5.6-2.1,9-2.1c3.4,0,6.4,0.7,9,2.1c2.6,1.4,4.7,3.3,6.2,5.7c1.5,2.4,2.3,5.2,2.3,8.4
			c0,3.1-0.8,5.9-2.3,8.3c-1.5,2.4-3.6,4.3-6.2,5.7C838.8,84.2,835.8,84.9,832.4,84.9z M832.4,77.5c1.5,0,2.9-0.3,4.2-1
			c1.2-0.7,2.2-1.7,2.9-3c0.7-1.3,1.1-2.8,1.1-4.6c0-1.8-0.4-3.4-1.1-4.6c-0.7-1.3-1.7-2.3-2.9-3c-1.2-0.7-2.6-1-4.2-1
			c-1.5,0-2.9,0.3-4.1,1c-1.2,0.7-2.2,1.7-2.9,3c-0.7,1.3-1.1,2.8-1.1,4.6c0,1.8,0.4,3.3,1.1,4.6c0.7,1.3,1.7,2.3,2.9,3
			C829.5,77.1,830.9,77.5,832.4,77.5z"/>
		<path class="st2" d="M871.3,84.9c-3.4,0-6.4-0.7-9-2.1c-2.6-1.4-4.7-3.3-6.2-5.7c-1.5-2.4-2.3-5.2-2.3-8.3c0-3.1,0.8-5.9,2.3-8.3
			c1.5-2.4,3.6-4.3,6.2-5.7c2.6-1.4,5.6-2.1,9-2.1c3.4,0,6.4,0.7,9,2.1c2.6,1.4,4.7,3.3,6.2,5.7c1.5,2.4,2.3,5.2,2.3,8.4
			c0,3.1-0.8,5.9-2.3,8.3c-1.5,2.4-3.6,4.3-6.2,5.7C877.6,84.2,874.6,84.9,871.3,84.9z M871.3,77.5c1.5,0,2.9-0.3,4.2-1
			c1.2-0.7,2.2-1.7,2.9-3c0.7-1.3,1.1-2.8,1.1-4.6c0-1.8-0.4-3.4-1.1-4.6c-0.7-1.3-1.7-2.3-2.9-3c-1.2-0.7-2.6-1-4.2-1
			c-1.5,0-2.9,0.3-4.1,1c-1.2,0.7-2.2,1.7-2.9,3c-0.7,1.3-1.1,2.8-1.1,4.6c0,1.8,0.4,3.3,1.1,4.6c0.7,1.3,1.7,2.3,2.9,3
			C868.4,77.1,869.7,77.5,871.3,77.5z"/>
		<path class="st2" d="M914.3,52.7c2.5,0,4.8,0.5,6.8,1.5c2,1,3.6,2.5,4.7,4.5c1.1,2,1.7,4.6,1.7,7.8v17.9h-9.2V67.9
			c0-2.5-0.6-4.4-1.7-5.6c-1.1-1.2-2.7-1.8-4.8-1.8c-1.5,0-2.8,0.3-3.9,0.9c-1.2,0.6-2.1,1.5-2.7,2.8c-0.7,1.2-1,2.8-1,4.8v15.4
			h-9.2V53.2h8.8v8.7l-1.7-2.6c1.1-2.1,2.8-3.7,4.9-4.8C909.2,53.3,911.6,52.7,914.3,52.7z"/>
	</g>
</g>
</svg>
