<?xml version="1.0" encoding="UTF-8"?>
<svg width="180px" height="50px" viewBox="0 0 180 50" version="1.1" xmlns="http://www.w3.org/2000/svg" xmlns:xlink="http://www.w3.org/1999/xlink">
    <!-- Generator: Sketch 52.6 (67491) - http://www.bohemiancoding.com/sketch -->
    <title>peaq</title>
    <desc>Created with Sketch.</desc>
    <g id="peaq" stroke="none" stroke-width="1" fill="none" fill-rule="evenodd">
        <g id="peaq-logotype-purple" transform="translate(17.500000, 5.000000)" fill="#6666FE">
            <path d="M91.9636164,0 L91.3569783,0 C82.8414302,0 77.7635326,5.34633288 74.3033714,9.98570323 C72.977751,11.7751742 71.7419642,13.6530579 70.5736049,15.4645678 C68.3492304,18.9109678 66.2372003,22.1364645 63.7432206,24.4782451 C61.1143859,26.9525677 57.8114857,28.2780904 54.1940634,28.2780904 C51.2507067,28.1897291 48.5096325,26.9746581 46.4649251,24.8758711 C44.4203225,22.7770841 43.2968799,19.9934968 43.2968799,17.0552772 C43.2968799,14.1169549 44.5326667,11.1566449 46.6446969,9.05782711 C48.7792378,6.93697033 51.632761,5.76608001 54.6659512,5.76608001 L54.6884619,5.76608001 C55.9241441,5.76608001 57.3622134,6.00909421 58.7776673,6.45094194 C59.0472725,6.53931354 59.2719611,6.73814707 59.3618993,7.02534193 C59.4517328,7.31253679 59.406816,7.62183226 59.2270443,7.86484646 L51.8574495,18.3366192 C51.632761,18.6458838 51.6102502,19.0435098 51.790022,19.3749675 C51.969689,19.7063225 52.3067218,19.9051355 52.688776,19.9051355 L56.8678149,19.9051355 C57.4295362,19.9051355 57.9688514,19.6400515 58.2833735,19.1760518 L65.8777615,8.30669419 C66.1922835,7.88693679 66.3720553,7.40090839 66.4843995,6.87069934 C66.5742331,6.36257034 66.5742331,5.83236128 66.4843995,5.32423228 C66.3720553,4.81611355 66.1473668,4.33008516 65.8552508,3.91032776 C65.5407287,3.49058063 65.1586745,3.1371045 64.7094022,2.84989937 C64.3947754,2.67316644 64.0802534,2.49642324 63.7432206,2.31969031 C60.9571249,0.817414192 57.7890797,0.0220922838 54.6210344,0.0220922838 C50.0599414,0.0220922838 45.7684536,1.78947098 42.5329808,4.99285675 C39.3424249,8.15205159 37.5,12.5263482 37.5,17.0331869 C37.5,21.5399228 39.1851639,25.6491354 42.2857816,28.8304514 C45.386504,32.033755 49.5431368,33.867458 54.0143964,34 C58.822584,34 63.0691551,32.3652127 66.9786933,28.9850837 C70.4612606,25.9804904 73.135012,22.0481031 75.3818972,18.6237935 C77.1119778,15.9506579 78.7521202,13.4320518 80.5496283,11.3554579 C81.1787771,10.6263742 81.7854151,9.98570323 82.3920532,9.43340385 C85.1107214,6.93697033 87.9642446,5.76608001 91.3793844,5.76608001 L91.8063554,5.76608001 C94.7497121,5.85445161 97.4907863,7.04743226 99.5354937,9.16828904 C101.28798,10.9798195 102.411423,13.3878712 102.658622,15.9064772 C102.703539,16.2820128 102.725945,16.6575485 102.725945,17.0331869 C102.725945,20.0376775 101.53518,22.8655481 99.3782326,24.9863227 C97.2436918,27.1072001 94.3901686,28.2780904 91.3569783,28.2780904 L91.3344676,28.2780904 C89.761648,28.2780904 88.2562559,27.9025547 87.2452623,27.5932901 C86.9755523,27.504826 86.7509685,27.306013 86.6610303,27.0188387 C86.5711967,26.7316644 86.6161135,26.4223998 86.7958852,26.1572131 L94.143074,15.7959228 C94.3677625,15.4866582 94.3901686,15.0890322 94.2103968,14.7576772 C94.0307298,14.4041292 93.693697,14.2274065 93.3117475,14.2274065 L89.1326039,14.2274065 C88.5708826,14.2274065 88.0540781,14.4924905 87.7170453,14.9564902 L80.122762,25.7154064 C79.8081353,26.1572131 79.6284682,26.6212128 79.516124,27.1513807 C79.4261857,27.6595611 79.4261857,28.1897291 79.516124,28.6978067 C79.6284682,29.2059871 79.853052,29.6919743 80.145168,30.1117934 C80.4372841,30.5315097 80.8641504,30.9070453 81.3135274,31.1722321 C81.6281541,31.3489547 81.9201654,31.5256774 82.2347922,31.7024 C85.0208879,33.2046453 88.1889331,34 91.3569783,34 C95.9404774,34 100.231965,32.2326707 103.467438,29.0292644 C106.703329,25.8258581 108.5,21.5841034 108.5,17.0552772 C108.5,12.5263482 106.770338,8.30669419 103.692126,5.16958968 C100.591509,1.96621418 96.4348759,0.132553292 91.9636164,6.57047079e-15 Z" id="Path"></path>
            <path d="M139.047204,0.587254406 L138.077314,3.22903472 C138.000094,3.44128284 137.745781,3.51354088 137.566629,3.38031349 C134.730063,1.24431734 131.221164,-0.0178722194 127.420886,0.000191290935 C118.268713,0.0430919902 110.71243,7.61846075 110.50445,16.9685409 C110.288232,26.7476852 117.979394,34.7453188 127.500166,34.7453188 C131.672132,34.7453188 135.489913,33.2076435 138.447972,30.6607081 C138.594177,30.5364801 138.812453,30.6381307 138.812453,30.8299857 L138.812453,41.0968009 C138.812453,41.5958129 139.207822,42 139.696885,42 L143.616598,42 C144.104631,42 144.5,41.5958129 144.5,41.0968009 L144.5,0.907880126 C144.5,0.408877563 144.104631,0.00470715014 143.616598,0.00470715014 L139.870889,0.00470715014 C139.50229,0.00244921529 139.172816,0.23501619 139.042055,0.589512141 L139.047204,0.587254406 Z M128.240453,28.9108057 C121.421368,29.355632 115.776036,23.5865407 116.211559,16.6185394 C116.571921,10.858584 121.125871,6.20499242 126.761938,5.83695006 C133.581022,5.39213419 139.228414,11.1611205 138.790831,18.1291218 C138.430469,23.8890772 133.876519,28.5427423 128.240453,28.9108057 Z" id="Shape" fill-rule="nonzero"></path>
            <path d="M5.12892132,0.00244941914 L1.38380388,0.00244941914 C0.895501938,0.00470723195 0.5,0.408855431 0.5,0.907832072 L0.5,41.0968497 C0.5,41.5958347 0.895501938,42 1.38380388,42 L5.30347151,42 C5.79177551,42 6.18728054,41.5958347 6.18728054,41.0968497 L6.18728054,30.8305895 C6.18728054,30.6364347 6.40822507,30.5347896 6.55184571,30.661321 C9.51038558,33.2081188 13.3284562,34.7456059 17.499931,34.7456059 C27.0207573,34.7456059 34.7120652,26.7485096 34.4955377,16.9698939 C34.290027,7.62030864 26.7334954,0.045347873 17.5816822,0.000191616833 C13.7813827,-0.0178708646 10.2726592,1.24198404 7.43565473,3.38013285 C7.2566772,3.51560014 7.00258945,3.44109891 6.92525525,3.22886225 L5.95527797,0.587222632 C5.8271324,0.235004506 5.49570016,0.000191616833 5.12892132,0.00244941914 Z M6.21157939,18.128207 C5.77631073,11.1605823 11.421614,5.38958719 18.2401194,5.83663663 C23.8766297,6.2046591 28.4303997,10.8579571 28.7905581,16.6177062 C29.2258782,23.5853309 23.5805132,29.3540054 16.7620078,28.909203 C11.1254974,28.5411596 6.57173782,23.887851 6.21157939,18.128207 Z" id="Shape" fill-rule="nonzero"></path>
        </g>
    </g>
</svg>