<?xml version="1.0" encoding="utf-8"?>
<!-- Generator: Adobe Illustrator 27.1.1, SVG Export Plug-In . SVG Version: 6.00 Build 0)  -->
<svg version="1.1" id="Layer_1" xmlns="http://www.w3.org/2000/svg" xmlns:xlink="http://www.w3.org/1999/xlink" x="0px" y="0px"
	 viewBox="0 0 562.6 145.8" style="enable-background:new 0 0 562.6 145.8;" xml:space="preserve">
<style type="text/css">
	.st0{fill:#1B1B1D;}
	.st1{fill-rule:evenodd;clip-rule:evenodd;fill:#1B1B1D;}
	.st2{fill:#6666FF;}
</style>
<g>
	<path class="st0" d="M562.6,30.4v75.4c0,11.9-7.3,22.1-17.7,26.5c-1,0.4-2.2-0.4-2.2-1.5c0-0.2,0-0.3,0-0.4
		c-2.1-12.3-17.1-17.6-30.6-17c-9.1,0.4-19.1,4-24.6,10c-0.6,0.7-1.6,0.7-2.3,0.1c-4.7-4.5-12.4-7.1-19.6-7.3
		c-8.3-0.2-17.6,2.6-22.4,8.2c-0.6,0.7-1.6,0.8-2.3,0.2c-3.5-2.9-8.6-4.7-13.4-4.9c-12.5-0.6-19.7,7.3-19.5,12.9c0,0.1,0,0.2,0,0.3
		c0,0.9-0.7,1.6-1.6,1.6h-376C13.7,134.5,0,120.9,0,104.2V30.4C0,13.7,13.7,0,30.4,0h501.8C548.9,0,562.6,13.7,562.6,30.4z"/>
	<g>
		<path class="st1" d="M533.5,132.3c0.3,7-8.5,13-19.5,13.4c-11.1,0.5-20.3-4.8-20.6-11.8c-0.3-8,10.3-13,19.5-13.4
			C522.1,120.2,533.2,124.3,533.5,132.3z"/>
		<path class="st1" d="M481.1,133.5c-0.3,5.7-7.9,10.2-17,10c-9.1-0.2-16.2-5-15.9-10.7c0.4-6.6,9.4-10.1,17-10
			C473,123,481.5,127,481.1,133.5z"/>
		<path class="st1" d="M439.2,133.7c-0.3,4.3-6.2,7.7-13,7.4c-6.8-0.2-12.1-3.9-11.9-8.2c-0.1-3.2,4.7-7.8,13-7.6
			C433.1,125.6,439.6,128.7,439.2,133.7z"/>
	</g>
</g>
<g id="b">
	<g>
		<path class="st2" d="M345,54.3v0.1c0,16.8-13.7,30.4-30.5,30.4c-5.7,0-11.2-1.4-16.3-4.1c-0.6-0.3-1.1-0.6-1.7-1
			c-1.5-0.9-2.6-2.5-3-4.2c-0.4-1.7,0-3.6,1-5l13.1-18.8c1.5-2.1,4.4-2.7,6.5-1.2s2.7,4.4,1.2,6.5l-11.2,16.1
			c3.3,1.5,6.8,2.3,10.4,2.3c11.6,0,21.1-9.5,21.1-21.1v-0.1c0-5.5-2.1-10.7-5.9-14.7c-3.8-4-8.9-6.2-14.4-6.4
			c-14.6-0.4-21.8,10.7-30.1,23.6l0,0.1c-8.5,13.1-18,27.9-37.2,27.9c-0.4,0-0.7,0-1.1,0c-7.9-0.2-15.3-3.5-20.9-9.3
			c-5.5-5.7-8.5-13.2-8.5-21.2v-0.1c0-16.8,13.7-30.4,30.5-30.4c5.7,0,11.2,1.4,16.3,4.1c0.6,0.3,1.1,0.6,1.7,1
			c1.5,0.9,2.6,2.5,3,4.2c0.4,1.7,0,3.6-1,5L254.9,57c-1.5,2.1-4.4,2.7-6.5,1.2c-2.1-1.5-2.7-4.4-1.2-6.5l11.2-16.1
			c-3.3-1.5-6.8-2.3-10.4-2.3c-11.6,0-21.1,9.5-21.1,21.1v0.1c0,5.5,2.1,10.7,5.9,14.7c3.8,4,8.9,6.2,14.4,6.4c0.3,0,0.5,0,0.8,0
			c14.1,0,21.1-11,29.3-23.6l0-0.1c8.6-13.4,18.4-28.5,38.3-27.9c7.9,0.2,15.3,3.5,20.9,9.3C342,38.8,345,46.4,345,54.3L345,54.3z"
			/>
		<g>
			<path class="st2" d="M181.3,23.8c-16.7,0-30.3,13.5-30.5,30.2c0,0.1,0,0.2,0,0.3V106c0,2.6,2.1,4.7,4.7,4.7s4.7-2.1,4.7-4.7V76.3
				c5.5,5.3,12.9,8.5,21.1,8.5c16.8,0,30.5-13.7,30.5-30.5S198.1,23.8,181.3,23.8z M181.3,75.5c-11.6,0-21.1-9.5-21.1-21.1
				s9.5-21.1,21.1-21.1c11.6,0,21.1,9.5,21.1,21.1S193,75.5,181.3,75.5z"/>
			<path class="st2" d="M381.2,23.8c-16.8,0-30.5,13.7-30.5,30.5s13.7,30.5,30.5,30.5c8.2,0,15.6-3.2,21.1-8.5V106
				c0,2.6,2.1,4.7,4.7,4.7s4.7-2.1,4.7-4.7V54.3C411.7,37.5,398,23.8,381.2,23.8z M381.2,75.5c-11.6,0-21.1-9.5-21.1-21.1
				s9.5-21.1,21.1-21.1s21.1,9.5,21.1,21.1l0,0C402.3,66,392.9,75.5,381.2,75.5z"/>
		</g>
	</g>
</g>
</svg>
