<?xml version="1.0" encoding="UTF-8"?><svg xmlns="http://www.w3.org/2000/svg" viewBox="0 0 695.39 231.52"><defs><style>.c{fill:#66f;}</style></defs><g id="a"/><g id="b"><g><path class="c" d="M517.66,81.19v.28c-.09,44.73-36.56,81.11-81.29,81.11-15.21,0-29.8-3.69-43.37-10.97-1.52-.82-3.05-1.69-4.55-2.6-4.06-2.46-6.95-6.53-7.93-11.16-.98-4.62,0-9.49,2.7-13.36l34.89-50.17c3.94-5.67,11.73-7.07,17.4-3.13,5.67,3.94,7.07,11.73,3.13,17.4l-29.87,42.95c8.75,4.01,18.02,6.04,27.6,6.04,30.98,0,56.23-25.19,56.29-56.16v-.23c0-14.66-5.6-28.55-15.76-39.12-10.16-10.56-23.78-16.61-38.34-17.03-38.94-1.14-58.11,28.55-80.3,62.94l-.12,.18c-22.54,34.93-48.03,74.42-99.09,74.42-.97,0-1.95-.01-2.94-.04-21.14-.62-40.9-9.39-55.63-24.69-14.67-15.24-22.75-35.29-22.75-56.46v-.27c.1-44.73,36.56-81.12,81.29-81.12,15.21,0,29.81,3.7,43.37,10.98,1.53,.82,3.06,1.69,4.55,2.6,4.06,2.46,6.95,6.53,7.94,11.16,.98,4.62,0,9.48-2.7,13.35l-34.9,50.18c-3.94,5.67-11.73,7.07-17.39,3.13-5.67-3.95-7.07-11.74-3.13-17.4l29.87-42.95c-8.75-4.02-18.02-6.05-27.61-6.05-30.97,0-56.22,25.2-56.29,56.17v.22c0,14.67,5.6,28.56,15.77,39.12,10.16,10.57,23.78,16.62,38.34,17.04,.72,.02,1.44,.03,2.15,.03,37.5,0,56.36-29.23,78.15-62.97l.11-.19C360.22,38.83,386.27-1.5,439.29,.05c21.14,.61,40.89,9.38,55.62,24.69,14.67,15.24,22.75,35.29,22.75,56.45Z"/><g><path class="c" d="M81.31,.02C36.77,.02,.48,36.03,.03,80.47c-.02,.27-.03,.55-.03,.83V219.02c0,6.9,5.6,12.5,12.5,12.5s12.5-5.6,12.5-12.5v-79.14c14.62,14.07,34.47,22.72,56.31,22.72,44.83,0,81.3-36.46,81.3-81.29S126.14,.02,81.31,.02Zm0,137.58c-31.04,0-56.29-25.25-56.29-56.29S50.27,25.02,81.31,25.02s56.3,25.25,56.3,56.29-25.25,56.29-56.3,56.29Z"/><path class="c" d="M614.1,.02c-44.83,0-81.3,36.47-81.3,81.29s36.47,81.29,81.3,81.29c21.83,0,41.67-8.64,56.29-22.7v79.12c0,6.9,5.6,12.5,12.5,12.5s12.5-5.6,12.5-12.5V81.29C695.38,36.48,658.91,.02,614.1,.02Zm0,137.58c-31.04,0-56.3-25.25-56.3-56.29s25.26-56.29,56.3-56.29,56.28,25.24,56.29,56.28h0c0,31.05-25.25,56.3-56.29,56.3Z"/></g></g></g></svg>