<?xml version="1.0" encoding="utf-8"?>
<!-- Generator: Adobe Illustrator 27.1.1, SVG Export Plug-In . SVG Version: 6.00 Build 0)  -->
<svg version="1.1" id="Layer_1" xmlns="http://www.w3.org/2000/svg" xmlns:xlink="http://www.w3.org/1999/xlink" x="0px" y="0px"
	 viewBox="0 0 562.6 145.8" style="enable-background:new 0 0 562.6 145.8;" xml:space="preserve">
<style type="text/css">
	.st0{fill:#1B1B1D;}
	.st1{fill-rule:evenodd;clip-rule:evenodd;fill:#1B1B1D;}
	.st2{fill:#D0FF52;}
</style>
<g>
	<g>
		<path class="st0" d="M562.6,30.4v75.4c0,11.9-7.3,22.1-17.7,26.5c-1,0.4-2.2-0.4-2.2-1.5c0-0.2,0-0.3,0-0.4
			c-2.1-12.3-17.1-17.6-30.6-17c-9.1,0.4-19.1,4-24.6,10c-0.6,0.7-1.6,0.7-2.3,0.1c-4.7-4.5-12.4-7.1-19.6-7.3
			c-8.3-0.2-17.6,2.6-22.4,8.2c-0.6,0.7-1.6,0.8-2.3,0.2c-3.5-2.9-8.6-4.7-13.4-4.9c-12.5-0.6-19.7,7.3-19.5,12.9c0,0.1,0,0.2,0,0.3
			c0,0.9-0.7,1.6-1.6,1.6h-376C13.7,134.5,0,120.9,0,104.2V30.4C0,13.7,13.7,0,30.4,0h501.8C548.9,0,562.6,13.7,562.6,30.4z"/>
		<g>
			<path class="st1" d="M533.5,132.3c0.3,7-8.5,13-19.5,13.4c-11.1,0.5-20.3-4.8-20.6-11.8c-0.3-8,10.3-13,19.5-13.4
				C522.1,120.2,533.2,124.3,533.5,132.3z"/>
			<path class="st1" d="M481.1,133.5c-0.3,5.7-7.9,10.2-17,10s-16.2-5-15.9-10.7c0.4-6.6,9.4-10.1,17-10
				C473,123,481.5,127,481.1,133.5z"/>
			<path class="st1" d="M439.2,133.7c-0.3,4.3-6.2,7.7-13,7.4c-6.8-0.2-12.1-3.9-11.9-8.2c-0.1-3.2,4.7-7.8,13-7.6
				C433.1,125.6,439.6,128.7,439.2,133.7z"/>
		</g>
	</g>
	<g>
		<path class="st2" d="M170.3,42.8h-13.2v19.9h13.2V42.8z"/>
		<path class="st2" d="M103.5,79.6v3.2V96h13.2V82.8v-6.8h-13.2V79.6z"/>
		<path class="st2" d="M116.7,60.4V56V42.8h40V29.6h-40h-1.6h-11.6v26.8v4.4v2.4h13.2v13.2h40V63.2h-40V60.4z"/>
		<path class="st2" d="M297,29.6h-13.6l0,0l-26.8,66.8h13.2l5.2-13.2h29.2l5.2,13.2h14L297,29.6L297,29.6z M281,69.6l9.2-23.2
			l9.2,23.2H281z"/>
		<path class="st2" d="M230.3,63.2h-33.1V29.6h-13.6v66.8h13.2V76.4h33.1v19.9h13.6V29.6h-13.2L230.3,63.2L230.3,63.2z"/>
		<path class="st2" d="M450.1,96.4h13.2l-26.8-66.8l0,0h-13.2l0,0l-26.8,66.8h13.2l5.2-13.2h29.2L450.1,96.4z M420.5,69.6l9.2-23.2
			l9.6,23.2H420.5z"/>
		<path class="st2" d="M350.2,29.6H337v53.6v13.2h13.2h40V83.2h-40V29.6z"/>
	</g>
</g>
</svg>
