<?xml version="1.0" encoding="utf-8"?>
<!-- Generator: Adobe Illustrator 27.1.1, SVG Export Plug-In . SVG Version: 6.00 Build 0)  -->
<svg version="1.1" id="Ebene_1" xmlns="http://www.w3.org/2000/svg" xmlns:xlink="http://www.w3.org/1999/xlink" x="0px" y="0px"
	 viewBox="0 0 90 26" style="enable-background:new 0 0 90 26;" xml:space="preserve">
<style type="text/css">
	.st0{fill:#D1FF52;}
</style>
<path class="st0" d="M16.7,9.3h-3.3v5h3.3V9.3z"/>
<path class="st0" d="M0,18.5v0.8v3.3h3.3v-3.3v-1.7H0V18.5z"/>
<path class="st0" d="M3.3,13.7v-1.1V9.3h10V6h-10H2.9H0v6.7v1.1v0.6h3.3v3.3h10v-3.3h-10V13.7z"/>
<path class="st0" d="M48.4,6H45h0l-6.7,16.7h3.3l1.3-3.3h7.3l1.3,3.3H55L48.4,6L48.4,6z M44.4,16l2.3-5.8L49,16H44.4z"/>
<path class="st0" d="M31.7,14.4h-8.3V6H20v16.7h3.3v-5h8.3v5H35V6h-3.3V14.4z"/>
<path class="st0" d="M86.7,22.7H90L83.3,6h0H80h0l-6.7,16.7h3.3l1.3-3.3h7.3L86.7,22.7z M79.3,16l2.3-5.8L84,16H79.3z"/>
<path class="st0" d="M61.7,6h-3.3v13.4v3.3h3.3h10v-3.3h-10V6z"/>
</svg>
