<?xml version="1.0" encoding="UTF-8"?>
<svg width="180px" height="50px" viewBox="0 0 180 50" version="1.1" xmlns="http://www.w3.org/2000/svg" xmlns:xlink="http://www.w3.org/1999/xlink">
    <!-- Generator: Sketch 52.6 (67491) - http://www.bohemiancoding.com/sketch -->
    <title>phala</title>
    <desc>Created with Sketch.</desc>
    <g id="phala" stroke="none" stroke-width="1" fill="none" fill-rule="evenodd">
        <g id="01-Phala_Horizontal_primary" transform="translate(14.500000, 0.000000)">
            <path d="M0.5,8 C0.5,5.19975 0.5,3.79961111 1.04496667,2.73004722 C1.52433333,1.78923611 2.28923611,1.02433333 3.23004722,0.544966667 C4.29961111,0 5.69975,0 8.5,0 L42.5,0 C45.3002778,0 46.7002778,0 47.77,0.544966667 C48.7108333,1.02433333 49.4755556,1.78923611 49.955,2.73004722 C50.5,3.79961111 50.5,5.19975 50.5,8 L50.5,42 C50.5,44.8002778 50.5,46.2002778 49.955,47.27 C49.4755556,48.2108333 48.7108333,48.9755556 47.77,49.455 C46.7002778,50 45.3002778,50 42.5,50 L8.5,50 C5.69975,50 4.29961111,50 3.23004722,49.455 C2.28923611,48.9755556 1.52433333,48.2108333 1.04496667,47.27 C0.5,46.2002778 0.5,44.8002778 0.5,42 L0.5,8 Z" id="Path" fill="#1A1A1A"></path>
            <polygon id="Path" fill="#CDFA50" points="11.5 31 17.5 31 17.5 39 11.5 39"></polygon>
            <polygon id="Path" fill="#CDFA50" points="33.5 17 39.5 17 39.5 25 33.5 25"></polygon>
            <polygon id="Path" fill="#CDFA50" points="17.5 25 33.5 25 33.5 31 17.5 31"></polygon>
            <polygon id="Path" fill="#CDFA50" points="11.5 11 33.5 11 33.5 16.6 17 16.6 17 25 11.5 24.93"></polygon>
            <path d="M76,22.9014302 C76,26.8600963 73.5246024,29.1424523 69.2058116,29.1424523 L65.8338958,29.1424523 L65.8338958,34 L62,34 L62,17 L69.2058116,17 C73.5246024,17 76,19.13727 76,22.9014302 Z M72.3604583,23.0227697 C72.3604583,21.1287738 71.1468062,20.1818042 69.0120234,20.1818042 L65.8338958,20.1818042 L65.8338958,25.9374967 L69.0120234,25.9374967 C71.1468062,25.9374967 72.3604583,24.9655337 72.3604583,23.0227697 Z" id="Shape" fill="#FFFFFF" fill-rule="nonzero"></path>
            <polygon id="Path" fill="#FFFFFF" points="81.7423302 17 81.7423302 25.5002834 89.2565643 25.5002834 89.2565643 17 93 17 93 34 89.2565643 34 89.2565643 28.8998867 81.7423302 28.8998867 81.7423302 34 78 34 78 17"></polygon>
            <path d="M107.698581,30.5975573 L100.160588,30.5975573 L98.8306442,34 L95,34 L102.143449,17 L105.974093,17 L113,34 L109.028525,34 L107.698581,30.5975573 Z M106.376309,27.195228 L103.950956,21.0051457 L101.505328,27.197495 L106.376309,27.195228 Z" id="Shape" fill="#FFFFFF" fill-rule="nonzero"></path>
            <path d="M138.700515,30.5975573 L131.161374,30.5975573 L129.830953,34 L126,34 L133.144536,17 L136.975489,17 L144,34 L140.027921,34 L138.700515,30.5975573 Z M137.378315,27.195228 L134.954511,21.0029071 L132.50851,27.195228 L137.378315,27.195228 Z" id="Shape" fill="#FFFFFF" fill-rule="nonzero"></path>
            <polygon id="Path" fill="#FFFFFF" points="117.795015 17 117.795015 30.6485698 125 30.6485698 125 34 114 34 114 17"></polygon>
        </g>
    </g>
</svg>