<?xml version="1.0" encoding="UTF-8" standalone="no"?>
<!-- Generator: Adobe Illustrator 27.6.1, SVG Export Plug-In . SVG Version: 6.00 Build 0)  -->

<svg
   version="1.1"
   id="Layer_1"
   x="0px"
   y="0px"
   viewBox="0 0 562.6 145.8"
   style="enable-background:new 0 0 562.6 145.8;"
   xml:space="preserve"
   sodipodi:docname="polkadot-pop-network.svg"
   inkscape:version="1.3.2 (091e20e, 2023-11-25)"
   xmlns:inkscape="http://www.inkscape.org/namespaces/inkscape"
   xmlns:sodipodi="http://sodipodi.sourceforge.net/DTD/sodipodi-0.dtd"
   xmlns="http://www.w3.org/2000/svg"
   xmlns:svg="http://www.w3.org/2000/svg"><defs
   id="defs11"><clipPath
     id="clip0_873_174"><rect
       width="512"
       height="512"
       rx="256"
       fill="#ffffff"
       id="rect28"
       x="0"
       y="0" /></clipPath><radialGradient
     id="paint0_radial_873_174"
     cx="0"
     cy="0"
     r="1"
     gradientUnits="userSpaceOnUse"
     gradientTransform="matrix(229.99965,647.20057,-371.3092,131.95444,-62.8,-86.4)"><stop
       stop-color="#6335EC"
       id="stop25" /><stop
       offset="1"
       stop-opacity="0"
       id="stop26" /></radialGradient><radialGradient
     id="paint1_radial_873_174"
     cx="0"
     cy="0"
     r="1"
     gradientUnits="userSpaceOnUse"
     gradientTransform="matrix(-469.99296,-944.80643,592.79855,-294.88701,640.4,677.6)"><stop
       stop-color="#E6007A"
       id="stop27" /><stop
       offset="1"
       stop-opacity="0"
       id="stop28" /></radialGradient><mask
     id="mask0_873_174"
     maskUnits="userSpaceOnUse"
     x="-429"
     y="-502"
     width="1428"
     height="1351"><path
       d="M 127.637,-501.289 998.91,322.903 984.661,336.383 113.388,-487.809 Z"
       fill="#d9d9d9"
       id="path3-7" /><path
       d="M 88.9594,-464.701 960.232,359.491 945.983,372.971 74.7096,-451.221 Z"
       fill="#d9d9d9"
       id="path4-7" /><path
       d="M 50.2814,-428.113 921.554,396.079 907.305,409.559 36.0316,-414.633 Z"
       fill="#d9d9d9"
       id="path5-3" /><path
       d="M 11.6034,-391.525 882.876,432.667 868.627,446.147 -2.64642,-378.045 Z"
       fill="#d9d9d9"
       id="path6-2" /><path
       d="M -27.0746,-354.937 844.198,469.255 829.949,482.735 -41.3244,-341.457 Z"
       fill="#d9d9d9"
       id="path7-5" /><path
       d="M -65.7526,-318.349 805.52,505.843 791.271,519.323 -80.0024,-304.869 Z"
       fill="#d9d9d9"
       id="path8-6" /><path
       d="m -104.431,-281.761 871.273,824.192 -14.249,13.48 -871.273,-824.192 z"
       fill="#d9d9d9"
       id="path9-3" /><path
       d="m -143.109,-245.173 871.273,824.192 -14.249,13.48 -871.273,-824.192 z"
       fill="#d9d9d9"
       id="path10-4" /><path
       d="m -181.787,-208.585 871.273,824.192 -14.249,13.48 -871.273,-824.192 z"
       fill="#d9d9d9"
       id="path11-0" /><path
       d="m -220.465,-171.997 871.273,824.192 -14.249,13.48 -871.273,-824.192 z"
       fill="#d9d9d9"
       id="path12" /><path
       d="m -259.143,-135.409 871.273,824.192 -14.249,13.48 -871.273,-824.192 z"
       fill="#d9d9d9"
       id="path13" /><path
       d="M -297.821,-98.8211 573.452,725.371 559.203,738.851 -312.07,-85.3413 Z"
       fill="#d9d9d9"
       id="path14" /><path
       d="M -336.499,-62.2331 534.774,761.959 520.525,775.439 -350.748,-48.7533 Z"
       fill="#d9d9d9"
       id="path15" /><path
       d="M -375.177,-25.6452 496.096,798.547 481.847,812.027 -389.426,-12.1654 Z"
       fill="#d9d9d9"
       id="path16" /><path
       d="M -413.855,10.9428 457.418,835.135 443.169,848.614 -428.104,24.4226 Z"
       fill="#d9d9d9"
       id="path17" /></mask><mask
     id="path-6-outside-1_873_174"
     maskUnits="userSpaceOnUse"
     x="35.8232"
     y="166.788"
     width="435"
     height="156"
     fill="#000000"><rect
       fill="#ffffff"
       x="35.8232"
       y="166.78799"
       width="435"
       height="156"
       id="rect22" /><path
       fill-rule="evenodd"
       clip-rule="evenodd"
       d="M 68.9791,168.599 H 131.11 c 8.395,0 15.832,2.234 22.11,6.846 6.094,4.342 10.707,10.041 13.812,17.016 3.197,6.883 4.8,14.151 4.8,21.761 0,7.619 -1.606,15.125 -4.765,22.491 -3.145,7.332 -7.501,14.006 -13.045,20.011 l -0.016,0.018 -0.017,0.017 c -5.572,5.892 -12.009,10.639 -19.29,14.23 -7.419,3.657 -15.352,5.483 -23.749,5.483 H 93.6573 l -9.2734,44.203 H 36.8232 Z M 90.3873,272.416 H 110.95 c 7.795,0 15.12,-1.689 21.974,-5.069 6.854,-3.379 12.902,-7.84 18.144,-13.383 5.241,-5.677 9.34,-11.963 12.297,-18.857 2.957,-6.894 4.435,-13.856 4.435,-20.885 0,-7.029 -1.478,-13.721 -4.435,-20.074 -2.822,-6.353 -6.989,-11.49 -12.499,-15.41 -5.51,-4.056 -12.096,-6.083 -19.756,-6.083 H 72.2437 L 41.8028,316.62 h 39.3111 z m 29.6497,-41.79 0.015,-0.019 c 0.958,-1.253 1.758,-2.901 2.32,-5.048 l 0.025,-0.096 0.03,-0.093 c 0.651,-2.074 1.022,-4.685 1.022,-7.904 0,-2.456 -0.319,-3.883 -0.647,-4.607 -0.44,-0.975 -0.761,-1.204 -0.76,-1.206 l -0.166,-0.095 -0.166,-0.119 c -0.311,-0.224 -0.51,-0.259 -0.68,-0.259 h -13.461 l -4.754,22.71 h 12.772 c 0.292,0 0.857,-0.096 1.756,-0.638 0.788,-0.476 1.697,-1.289 2.679,-2.606 z m -22.1906,7.32 6.4506,-30.821 h 16.733 c 1.075,0 2.083,0.338 3.024,1.014 0.941,0.541 1.747,1.554 2.419,3.041 0.672,1.487 1.008,3.583 1.008,6.286 0,3.515 -0.403,6.556 -1.21,9.125 -0.672,2.568 -1.68,4.731 -3.024,6.488 -1.209,1.622 -2.486,2.839 -3.83,3.65 -1.344,0.811 -2.621,1.217 -3.83,1.217 z m 115.5076,78.686 -0.042,-0.021 c -7.343,-3.62 -13.579,-8.498 -18.66,-14.63 -5.028,-6.07 -8.83,-12.931 -11.405,-20.555 l -0.007,-0.022 c -2.559,-7.721 -3.836,-15.725 -3.836,-23.993 0,-9.126 1.562,-18.1 4.668,-26.904 l 0.009,-0.028 0.01,-0.027 c 3.228,-8.752 7.652,-16.873 13.263,-24.351 l 0.007,-0.009 c 5.738,-7.601 12.392,-14.225 19.957,-19.863 7.707,-5.777 16.054,-10.293 25.032,-13.538 9.045,-3.27 18.444,-4.903 28.176,-4.903 9.373,0 17.85,1.786 25.332,5.469 7.357,3.487 13.603,8.304 18.689,14.442 5.043,6.087 8.78,13.033 11.218,20.801 2.556,7.586 3.828,15.516 3.828,23.768 0,9.144 -1.634,18.132 -4.883,26.944 -3.094,8.623 -7.448,16.738 -13.045,24.337 l -0.01,0.015 -0.011,0.014 c -5.604,7.468 -12.184,14.085 -19.73,19.847 -7.585,5.793 -15.877,10.316 -24.863,13.564 -9.045,3.27 -18.445,4.903 -28.176,4.903 -9.365,0 -17.885,-1.715 -25.478,-5.24 z m 107.57,-58.815 c 3.092,-8.381 4.637,-16.897 4.637,-25.549 0,-7.84 -1.21,-15.342 -3.629,-22.507 -2.284,-7.3 -5.779,-13.788 -10.483,-19.466 -4.703,-5.677 -10.483,-10.138 -17.337,-13.382 -6.854,-3.38 -14.716,-5.07 -23.586,-5.07 -9.274,0 -18.211,1.555 -26.813,4.664 -8.601,3.109 -16.598,7.435 -23.99,12.977 -7.257,5.407 -13.641,11.761 -19.151,19.06 -5.376,7.165 -9.61,14.938 -12.701,23.319 -2.956,8.381 -4.435,16.897 -4.435,25.548 0,7.841 1.21,15.411 3.629,22.71 2.419,7.165 5.981,13.586 10.685,19.263 4.703,5.678 10.483,10.206 17.337,13.586 6.988,3.244 14.918,4.866 23.788,4.866 9.273,0 18.211,-1.554 26.812,-4.663 8.602,-3.109 16.531,-7.435 23.788,-12.977 7.258,-5.543 13.575,-11.896 18.95,-19.061 5.376,-7.299 9.543,-15.072 12.499,-23.318 z m -48.684,6.628 0.014,-0.019 c 3.119,-4.518 5.413,-9.327 6.901,-14.439 1.515,-5.208 2.257,-10.231 2.257,-15.083 0,-4.557 -0.734,-8.65 -2.148,-12.324 l -0.027,-0.072 -0.025,-0.074 c -1.24,-3.628 -3.21,-6.386 -5.885,-8.43 -2.47,-1.889 -5.966,-3.026 -10.865,-3.026 -5.662,0 -10.495,1.324 -14.63,3.866 l -0.036,0.021 -0.035,0.021 c -4.314,2.531 -7.907,5.899 -10.802,10.146 -2.991,4.386 -5.299,9.148 -6.928,14.3 -1.506,5.191 -2.244,10.2 -2.244,15.038 0,4.574 0.672,8.77 1.981,12.619 1.368,3.647 3.421,6.515 6.143,8.717 2.483,1.882 5.911,2.996 10.625,2.996 5.813,0 10.71,-1.332 14.831,-3.866 4.351,-2.674 7.967,-6.128 10.873,-10.391 z m -38.808,14.46 c -3.36,-2.704 -5.846,-6.218 -7.459,-10.544 -1.478,-4.326 -2.218,-8.989 -2.218,-13.991 0,-5.272 0.807,-10.679 2.42,-16.221 1.747,-5.543 4.233,-10.68 7.459,-15.411 3.225,-4.731 7.257,-8.516 12.095,-11.355 4.839,-2.974 10.416,-4.461 16.733,-4.461 5.51,0 9.945,1.284 13.305,3.853 3.36,2.568 5.779,6.015 7.257,10.341 1.613,4.191 2.42,8.787 2.42,13.788 0,5.272 -0.807,10.679 -2.42,16.222 -1.612,5.542 -4.099,10.746 -7.459,15.613 -3.225,4.731 -7.257,8.584 -12.095,11.558 -4.839,2.974 -10.483,4.46 -16.934,4.46 -5.376,0 -9.744,-1.284 -13.104,-3.852 z M 367.309,168.599 h 62.13 c 8.396,0 15.833,2.234 22.111,6.846 6.094,4.342 10.706,10.04 13.811,17.015 3.198,6.884 4.801,14.151 4.801,21.762 0,7.619 -1.606,15.125 -4.765,22.491 -3.145,7.332 -7.501,14.006 -13.045,20.011 l -0.017,0.018 -0.016,0.017 c -5.572,5.892 -12.009,10.639 -19.291,14.23 -7.418,3.657 -15.351,5.483 -23.748,5.483 h -17.293 l -9.273,44.203 h -47.561 z m 21.408,103.817 h 20.563 c 7.795,0 15.12,-1.689 21.974,-5.069 6.854,-3.379 12.902,-7.84 18.143,-13.383 5.242,-5.677 9.341,-11.963 12.298,-18.857 2.956,-6.894 4.435,-13.856 4.435,-20.885 0,-7.029 -1.479,-13.721 -4.435,-20.074 -2.823,-6.353 -6.989,-11.49 -12.499,-15.41 -5.51,-4.056 -12.096,-6.083 -19.757,-6.083 H 370.574 L 340.133,316.62 h 39.311 z m 29.649,-41.79 0.015,-0.019 c 0.959,-1.253 1.759,-2.901 2.321,-5.048 l 0.025,-0.096 0.029,-0.093 c 0.652,-2.074 1.023,-4.685 1.023,-7.904 0,-2.456 -0.319,-3.883 -0.647,-4.607 -0.44,-0.975 -0.761,-1.204 -0.76,-1.206 l -0.166,-0.095 -0.166,-0.119 c -0.311,-0.224 -0.51,-0.259 -0.68,-0.259 h -13.461 l -4.754,22.71 h 12.772 c 0.292,0 0.857,-0.096 1.756,-0.638 0.788,-0.476 1.696,-1.289 2.679,-2.606 z m -22.19,7.32 6.451,-30.821 h 16.733 c 1.075,0 2.083,0.338 3.024,1.014 0.94,0.541 1.747,1.554 2.419,3.041 0.672,1.487 1.008,3.583 1.008,6.286 0,3.515 -0.403,6.556 -1.21,9.125 -0.672,2.568 -1.68,4.731 -3.024,6.488 -1.209,1.622 -2.486,2.839 -3.83,3.65 -1.344,0.811 -2.621,1.217 -3.83,1.217 z"
       id="path23" /></mask></defs><sodipodi:namedview
   id="namedview11"
   pagecolor="#ffffff"
   bordercolor="#000000"
   borderopacity="0.25"
   inkscape:showpageshadow="2"
   inkscape:pageopacity="0.0"
   inkscape:pagecheckerboard="0"
   inkscape:deskcolor="#d1d1d1"
   inkscape:zoom="1.4788483"
   inkscape:cx="275.21416"
   inkscape:cy="80.806125"
   inkscape:window-width="1392"
   inkscape:window-height="1212"
   inkscape:window-x="0"
   inkscape:window-y="25"
   inkscape:window-maximized="0"
   inkscape:current-layer="Layer_1" />
<style
   type="text/css"
   id="style1">
	.st0{fill:#1B1B1D;}
	.st1{fill-rule:evenodd;clip-rule:evenodd;fill:#1B1B1D;}
	.st2{fill:#FFFFFF;}
</style>
<g
   id="g5"
   transform="translate(-1.2207031e-5,0.03366969)">
	<path
   class="st0"
   d="m 562.6,30.4 v 75.4 c 0,11.9 -7.3,22.1 -17.7,26.5 -1,0.4 -2.2,-0.4 -2.2,-1.5 0,-0.2 0,-0.3 0,-0.4 -2.1,-12.3 -17.1,-17.6 -30.6,-17 -9.1,0.4 -19.1,4 -24.6,10 -0.6,0.7 -1.6,0.7 -2.3,0.1 -4.7,-4.5 -12.4,-7.1 -19.6,-7.3 -8.3,-0.2 -17.6,2.6 -22.4,8.2 -0.6,0.7 -1.6,0.8 -2.3,0.2 -3.5,-2.9 -8.6,-4.7 -13.4,-4.9 -12.5,-0.6 -19.7,7.3 -19.5,12.9 0,0.1 0,0.2 0,0.3 0,0.9 -0.7,1.6 -1.6,1.6 H 30.4 C 13.7,134.5 0,120.9 0,104.2 V 30.4 C 0,13.7 13.7,0 30.4,0 h 501.8 c 16.7,0 30.4,13.7 30.4,30.4 z"
   id="path1" />
	<g
   id="g4">
		<path
   class="st1"
   d="m 533.5,132.3 c 0.3,7 -8.5,13 -19.5,13.4 -11.1,0.5 -20.3,-4.8 -20.6,-11.8 -0.3,-8 10.3,-13 19.5,-13.4 9.2,-0.3 20.3,3.8 20.6,11.8 z"
   id="path2" />
		<path
   class="st1"
   d="m 481.1,133.5 c -0.3,5.7 -7.9,10.2 -17,10 -9.1,-0.2 -16.2,-5 -15.9,-10.7 0.4,-6.6 9.4,-10.1 17,-10 7.8,0.2 16.3,4.2 15.9,10.7 z"
   id="path3" />
		<path
   class="st1"
   d="m 439.2,133.7 c -0.3,4.3 -6.2,7.7 -13,7.4 -6.8,-0.2 -12.1,-3.9 -11.9,-8.2 -0.1,-3.2 4.7,-7.8 13,-7.6 5.8,0.3 12.3,3.4 11.9,8.4 z"
   id="path4" />
	</g>
</g>

<g
   clip-path="url(#clip0_873_174)"
   id="g25"
   transform="matrix(0.22342438,0,0,0.22342438,40.766824,10.379562)"><rect
     width="512"
     height="512"
     rx="256"
     fill="#1c0533"
     id="rect1"
     x="0"
     y="0" /><rect
     width="512"
     height="512"
     rx="256"
     fill="url(#paint0_radial_873_174)"
     fill-opacity="0.8"
     id="rect2"
     x="0"
     y="0"
     style="fill:url(#paint0_radial_873_174)" /><rect
     width="512"
     height="512"
     rx="256"
     fill="url(#paint1_radial_873_174)"
     fill-opacity="0.6"
     id="rect3"
     x="0"
     y="0"
     style="fill:url(#paint1_radial_873_174)" /><mask
     id="mask31"
     maskUnits="userSpaceOnUse"
     x="-429"
     y="-502"
     width="1428"
     height="1351"><path
       d="M 127.637,-501.289 998.91,322.903 984.661,336.383 113.388,-487.809 Z"
       fill="#d9d9d9"
       id="path1-6" /><path
       d="M 88.9594,-464.701 960.232,359.491 945.983,372.971 74.7096,-451.221 Z"
       fill="#d9d9d9"
       id="path2-0" /><path
       d="M 50.2814,-428.113 921.554,396.079 907.305,409.559 36.0316,-414.633 Z"
       fill="#d9d9d9"
       id="path18" /><path
       d="M 11.6034,-391.525 882.876,432.667 868.627,446.147 -2.64642,-378.045 Z"
       fill="#d9d9d9"
       id="path19" /><path
       d="M -27.0746,-354.937 844.198,469.255 829.949,482.735 -41.3244,-341.457 Z"
       fill="#d9d9d9"
       id="path20" /><path
       d="M -65.7526,-318.349 805.52,505.843 791.271,519.323 -80.0024,-304.869 Z"
       fill="#d9d9d9"
       id="path21" /><path
       d="m -104.431,-281.761 871.273,824.192 -14.249,13.48 -871.273,-824.192 z"
       fill="#d9d9d9"
       id="path22" /><path
       d="m -143.109,-245.173 871.273,824.192 -14.249,13.48 -871.273,-824.192 z"
       fill="#d9d9d9"
       id="path24" /><path
       d="m -181.787,-208.585 871.273,824.192 -14.249,13.48 -871.273,-824.192 z"
       fill="#d9d9d9"
       id="path25" /><path
       d="m -220.465,-171.997 871.273,824.192 -14.249,13.48 -871.273,-824.192 z"
       fill="#d9d9d9"
       id="path26" /><path
       d="m -259.143,-135.409 871.273,824.192 -14.249,13.48 -871.273,-824.192 z"
       fill="#d9d9d9"
       id="path27" /><path
       d="M -297.821,-98.8211 573.452,725.371 559.203,738.851 -312.07,-85.3413 Z"
       fill="#d9d9d9"
       id="path28" /><path
       d="M -336.499,-62.2331 534.774,761.959 520.525,775.439 -350.748,-48.7533 Z"
       fill="#d9d9d9"
       id="path29" /><path
       d="M -375.177,-25.6452 496.096,798.547 481.847,812.027 -389.426,-12.1654 Z"
       fill="#d9d9d9"
       id="path30" /><path
       d="M -413.855,10.9428 457.418,835.135 443.169,848.614 -428.104,24.4226 Z"
       fill="#d9d9d9"
       id="path31" /></mask><g
     mask="url(#mask0_873_174)"
     id="g18"><path
       d="M 511.169,254.929 C 511.169,396.905 396.739,512 255.584,512 114.428,512 -9.76562e-4,396.905 -9.76562e-4,254.929 -9.76562e-4,112.953 114.428,-2.14209 255.584,-2.14209 c 141.155,0 255.585,115.09509 255.585,257.07109 z"
       fill="#e6007a"
       id="path32" /></g><path
     d="m 183.804,160.44 c -12.752,-9.296 -27.346,-13.272 -41.94,-13.272 H 52.2334 L 5.63086,367.567 H 122.684 l 9.399,-44.802 c 9.796,-1.143 19.301,-3.925 28.32,-8.371 1.397,-0.689 2.775,-1.408 4.133,-2.155 3.713,8.775 8.641,16.934 14.779,24.342 8.258,9.967 18.342,17.785 29.802,23.435 l 0.003,0.002 0.397,0.195 0.4,0.186 c 12.688,5.89 26.181,8.385 39.713,8.385 13.588,0 26.877,-2.295 39.662,-6.916 6.068,-2.193 11.92,-4.822 17.54,-7.88 l -2.871,13.579 h 117.052 l 9.4,-44.802 c 9.796,-1.143 19.301,-3.925 28.32,-8.371 10.877,-5.364 20.584,-12.517 28.939,-21.348 l 0.01,-0.011 0.159,-0.168 0.154,-0.167 0.003,-0.003 c 8.092,-8.766 14.613,-18.702 19.34,-29.722 4.865,-11.344 7.542,-23.439 7.542,-36.022 0,-12.506 -2.649,-24.626 -7.879,-35.976 -5.493,-12.224 -13.86,-22.642 -24.867,-30.537 -12.752,-9.296 -27.346,-13.272 -41.94,-13.272 h -89.631 l -5.24,24.781 c -7.026,-6.908 -15.097,-12.504 -24.009,-16.758 -12.764,-6.233 -26.404,-8.834 -40.034,-8.834 -13.589,0 -26.878,2.295 -39.662,6.916 -12.145,4.39 -23.444,10.507 -33.804,18.268 -2.437,1.817 -4.803,3.711 -7.099,5.68 -4.653,-6.398 -10.307,-12.044 -16.911,-16.781 z"
     fill="#2b0532"
     id="path33" /><path
     fill-rule="evenodd"
     clip-rule="evenodd"
     d="m 229.569,331.163 0.063,0.031 0.064,0.03 c 7.896,3.665 16.711,5.426 26.323,5.426 9.96,0 19.59,-1.672 28.858,-5.022 9.178,-3.318 17.651,-7.939 25.4,-13.857 7.69,-5.873 14.403,-12.621 20.12,-20.24 l 0.016,-0.022 0.016,-0.022 c 5.708,-7.75 10.156,-16.036 13.319,-24.849 3.326,-9.027 5.005,-18.25 5.005,-27.639 0,-8.458 -1.303,-16.601 -3.928,-24.399 -2.514,-8.002 -6.373,-15.177 -11.586,-21.468 -5.276,-6.369 -11.755,-11.363 -19.364,-14.972 -7.797,-3.835 -16.58,-5.669 -26.205,-5.669 -9.961,0 -19.591,1.673 -28.858,5.022 -9.165,3.313 -17.687,7.924 -25.551,13.819 -7.719,5.752 -14.51,12.512 -20.362,20.265 l -0.01,0.014 c -5.729,7.635 -10.247,15.929 -13.544,24.867 l -0.015,0.04 -0.014,0.041 c -3.181,9.016 -4.784,18.219 -4.784,27.583 0,8.482 1.311,16.702 3.94,24.634 l 0.005,0.016 0.005,0.016 c 2.653,7.855 6.575,14.936 11.766,21.201 5.269,6.361 11.733,11.413 19.321,15.154 z m 58.163,-55.148 0.01,-0.015 c 2.998,-4.343 5.197,-8.955 6.622,-13.852 1.467,-5.04 2.176,-9.872 2.176,-14.513 0,-4.335 -0.697,-8.177 -2.012,-11.592 l -0.041,-0.109 -0.038,-0.11 c -1.121,-3.279 -2.866,-5.693 -5.197,-7.475 -2.026,-1.548 -5.053,-2.613 -9.646,-2.613 -5.335,0 -9.796,1.243 -13.579,3.569 l -0.053,0.032 -0.053,0.031 c -4.052,2.378 -7.426,5.537 -10.156,9.541 -2.872,4.214 -5.092,8.789 -6.661,13.745 -1.454,5.016 -2.157,9.826 -2.157,14.447 0,4.358 0.638,8.321 1.862,11.932 1.246,3.306 3.081,5.852 5.484,7.803 2.048,1.543 5.008,2.569 9.387,2.569 5.495,0 10.017,-1.255 13.78,-3.568 4.107,-2.524 7.515,-5.779 10.262,-9.808 z"
     fill="#e6007a"
     id="path34" /><path
     fill-rule="evenodd"
     clip-rule="evenodd"
     d="m 171.542,186.53 c -6.663,-4.89 -14.525,-7.228 -23.288,-7.228 H 84.4909 L 51.4775,335.434 h 51.6855 l 9.273,-44.204 h 15.658 c 8.698,0 16.935,-1.893 24.636,-5.69 7.495,-3.696 14.126,-8.586 19.864,-14.652 l 0.025,-0.027 0.024,-0.027 c 5.696,-6.169 10.181,-13.036 13.419,-20.587 3.261,-7.602 4.93,-15.381 4.93,-23.294 0,-7.901 -1.665,-15.457 -4.983,-22.605 -3.247,-7.286 -8.082,-13.265 -14.467,-17.818 z m -35.967,55.601 0.023,-0.03 c 0.765,-1.001 1.462,-2.391 1.969,-4.328 l 0.037,-0.142 0.044,-0.141 c 0.574,-1.827 0.929,-4.221 0.929,-7.293 0,-2.333 -0.311,-3.426 -0.466,-3.769 -0.087,-0.193 -0.163,-0.335 -0.222,-0.434 l -0.027,-0.045 -0.013,-0.01 h -11.5 l -3.905,18.655 h 10.249 c 0.063,-0.013 0.306,-0.078 0.757,-0.35 0.511,-0.309 1.235,-0.919 2.103,-2.084 z"
     fill="#e6007a"
     id="path35" /><path
     fill-rule="evenodd"
     clip-rule="evenodd"
     d="m 469.872,186.53 c -6.663,-4.89 -14.525,-7.228 -23.289,-7.228 h -63.762 l -33.014,156.132 h 51.686 l 9.273,-44.204 h 15.658 c 8.698,0 16.935,-1.893 24.636,-5.69 7.495,-3.696 14.126,-8.586 19.863,-14.652 l 0.026,-0.027 0.024,-0.027 c 5.696,-6.169 10.18,-13.036 13.419,-20.587 3.26,-7.602 4.93,-15.381 4.93,-23.294 0,-7.901 -1.665,-15.457 -4.983,-22.605 -3.247,-7.286 -8.082,-13.265 -14.467,-17.818 z m -35.967,55.601 0.023,-0.03 c 0.765,-1.001 1.462,-2.391 1.968,-4.328 l 0.038,-0.142 0.044,-0.141 c 0.574,-1.827 0.929,-4.221 0.929,-7.293 0,-2.333 -0.311,-3.426 -0.466,-3.769 -0.087,-0.193 -0.163,-0.335 -0.222,-0.434 l -0.027,-0.045 -0.014,-0.01 h -11.5 l -3.904,18.655 h 10.249 c 0.063,-0.013 0.306,-0.078 0.756,-0.35 0.511,-0.309 1.235,-0.919 2.104,-2.084 z"
     fill="#e6007a"
     id="path36" /><mask
     id="mask37"
     maskUnits="userSpaceOnUse"
     x="35.8232"
     y="166.788"
     width="435"
     height="156"
     fill="#000000"><rect
       fill="#ffffff"
       x="35.8232"
       y="166.78799"
       width="435"
       height="156"
       id="rect36" /><path
       fill-rule="evenodd"
       clip-rule="evenodd"
       d="M 68.9791,168.599 H 131.11 c 8.395,0 15.832,2.234 22.11,6.846 6.094,4.342 10.707,10.041 13.812,17.016 3.197,6.883 4.8,14.151 4.8,21.761 0,7.619 -1.606,15.125 -4.765,22.491 -3.145,7.332 -7.501,14.006 -13.045,20.011 l -0.016,0.018 -0.017,0.017 c -5.572,5.892 -12.009,10.639 -19.29,14.23 -7.419,3.657 -15.352,5.483 -23.749,5.483 H 93.6573 l -9.2734,44.203 H 36.8232 Z M 90.3873,272.416 H 110.95 c 7.795,0 15.12,-1.689 21.974,-5.069 6.854,-3.379 12.902,-7.84 18.144,-13.383 5.241,-5.677 9.34,-11.963 12.297,-18.857 2.957,-6.894 4.435,-13.856 4.435,-20.885 0,-7.029 -1.478,-13.721 -4.435,-20.074 -2.822,-6.353 -6.989,-11.49 -12.499,-15.41 -5.51,-4.056 -12.096,-6.083 -19.756,-6.083 H 72.2437 L 41.8028,316.62 h 39.3111 z m 29.6497,-41.79 0.015,-0.019 c 0.958,-1.253 1.758,-2.901 2.32,-5.048 l 0.025,-0.096 0.03,-0.093 c 0.651,-2.074 1.022,-4.685 1.022,-7.904 0,-2.456 -0.319,-3.883 -0.647,-4.607 -0.44,-0.975 -0.761,-1.204 -0.76,-1.206 l -0.166,-0.095 -0.166,-0.119 c -0.311,-0.224 -0.51,-0.259 -0.68,-0.259 h -13.461 l -4.754,22.71 h 12.772 c 0.292,0 0.857,-0.096 1.756,-0.638 0.788,-0.476 1.697,-1.289 2.679,-2.606 z m -22.1906,7.32 6.4506,-30.821 h 16.733 c 1.075,0 2.083,0.338 3.024,1.014 0.941,0.541 1.747,1.554 2.419,3.041 0.672,1.487 1.008,3.583 1.008,6.286 0,3.515 -0.403,6.556 -1.21,9.125 -0.672,2.568 -1.68,4.731 -3.024,6.488 -1.209,1.622 -2.486,2.839 -3.83,3.65 -1.344,0.811 -2.621,1.217 -3.83,1.217 z m 115.5076,78.686 -0.042,-0.021 c -7.343,-3.62 -13.579,-8.498 -18.66,-14.63 -5.028,-6.07 -8.83,-12.931 -11.405,-20.555 l -0.007,-0.022 c -2.559,-7.721 -3.836,-15.725 -3.836,-23.993 0,-9.126 1.562,-18.1 4.668,-26.904 l 0.009,-0.028 0.01,-0.027 c 3.228,-8.752 7.652,-16.873 13.263,-24.351 l 0.007,-0.009 c 5.738,-7.601 12.392,-14.225 19.957,-19.863 7.707,-5.777 16.054,-10.293 25.032,-13.538 9.045,-3.27 18.444,-4.903 28.176,-4.903 9.373,0 17.85,1.786 25.332,5.469 7.357,3.487 13.603,8.304 18.689,14.442 5.043,6.087 8.78,13.033 11.218,20.801 2.556,7.586 3.828,15.516 3.828,23.768 0,9.144 -1.634,18.132 -4.883,26.944 -3.094,8.623 -7.448,16.738 -13.045,24.337 l -0.01,0.015 -0.011,0.014 c -5.604,7.468 -12.184,14.085 -19.73,19.847 -7.585,5.793 -15.877,10.316 -24.863,13.564 -9.045,3.27 -18.445,4.903 -28.176,4.903 -9.365,0 -17.885,-1.715 -25.478,-5.24 z m 107.57,-58.815 c 3.092,-8.381 4.637,-16.897 4.637,-25.549 0,-7.84 -1.21,-15.342 -3.629,-22.507 -2.284,-7.3 -5.779,-13.788 -10.483,-19.466 -4.703,-5.677 -10.483,-10.138 -17.337,-13.382 -6.854,-3.38 -14.716,-5.07 -23.586,-5.07 -9.274,0 -18.211,1.555 -26.813,4.664 -8.601,3.109 -16.598,7.435 -23.99,12.977 -7.257,5.407 -13.641,11.761 -19.151,19.06 -5.376,7.165 -9.61,14.938 -12.701,23.319 -2.956,8.381 -4.435,16.897 -4.435,25.548 0,7.841 1.21,15.411 3.629,22.71 2.419,7.165 5.981,13.586 10.685,19.263 4.703,5.678 10.483,10.206 17.337,13.586 6.988,3.244 14.918,4.866 23.788,4.866 9.273,0 18.211,-1.554 26.812,-4.663 8.602,-3.109 16.531,-7.435 23.788,-12.977 7.258,-5.543 13.575,-11.896 18.95,-19.061 5.376,-7.299 9.543,-15.072 12.499,-23.318 z m -48.684,6.628 0.014,-0.019 c 3.119,-4.518 5.413,-9.327 6.901,-14.439 1.515,-5.208 2.257,-10.231 2.257,-15.083 0,-4.557 -0.734,-8.65 -2.148,-12.324 l -0.027,-0.072 -0.025,-0.074 c -1.24,-3.628 -3.21,-6.386 -5.885,-8.43 -2.47,-1.889 -5.966,-3.026 -10.865,-3.026 -5.662,0 -10.495,1.324 -14.63,3.866 l -0.036,0.021 -0.035,0.021 c -4.314,2.531 -7.907,5.899 -10.802,10.146 -2.991,4.386 -5.299,9.148 -6.928,14.3 -1.506,5.191 -2.244,10.2 -2.244,15.038 0,4.574 0.672,8.77 1.981,12.619 1.368,3.647 3.421,6.515 6.143,8.717 2.483,1.882 5.911,2.996 10.625,2.996 5.813,0 10.71,-1.332 14.831,-3.866 4.351,-2.674 7.967,-6.128 10.873,-10.391 z m -38.808,14.46 c -3.36,-2.704 -5.846,-6.218 -7.459,-10.544 -1.478,-4.326 -2.218,-8.989 -2.218,-13.991 0,-5.272 0.807,-10.679 2.42,-16.221 1.747,-5.543 4.233,-10.68 7.459,-15.411 3.225,-4.731 7.257,-8.516 12.095,-11.355 4.839,-2.974 10.416,-4.461 16.733,-4.461 5.51,0 9.945,1.284 13.305,3.853 3.36,2.568 5.779,6.015 7.257,10.341 1.613,4.191 2.42,8.787 2.42,13.788 0,5.272 -0.807,10.679 -2.42,16.222 -1.612,5.542 -4.099,10.746 -7.459,15.613 -3.225,4.731 -7.257,8.584 -12.095,11.558 -4.839,2.974 -10.483,4.46 -16.934,4.46 -5.376,0 -9.744,-1.284 -13.104,-3.852 z M 367.309,168.599 h 62.13 c 8.396,0 15.833,2.234 22.111,6.846 6.094,4.342 10.706,10.04 13.811,17.015 3.198,6.884 4.801,14.151 4.801,21.762 0,7.619 -1.606,15.125 -4.765,22.491 -3.145,7.332 -7.501,14.006 -13.045,20.011 l -0.017,0.018 -0.016,0.017 c -5.572,5.892 -12.009,10.639 -19.291,14.23 -7.418,3.657 -15.351,5.483 -23.748,5.483 h -17.293 l -9.273,44.203 h -47.561 z m 21.408,103.817 h 20.563 c 7.795,0 15.12,-1.689 21.974,-5.069 6.854,-3.379 12.902,-7.84 18.143,-13.383 5.242,-5.677 9.341,-11.963 12.298,-18.857 2.956,-6.894 4.435,-13.856 4.435,-20.885 0,-7.029 -1.479,-13.721 -4.435,-20.074 -2.823,-6.353 -6.989,-11.49 -12.499,-15.41 -5.51,-4.056 -12.096,-6.083 -19.757,-6.083 H 370.574 L 340.133,316.62 h 39.311 z m 29.649,-41.79 0.015,-0.019 c 0.959,-1.253 1.759,-2.901 2.321,-5.048 l 0.025,-0.096 0.029,-0.093 c 0.652,-2.074 1.023,-4.685 1.023,-7.904 0,-2.456 -0.319,-3.883 -0.647,-4.607 -0.44,-0.975 -0.761,-1.204 -0.76,-1.206 l -0.166,-0.095 -0.166,-0.119 c -0.311,-0.224 -0.51,-0.259 -0.68,-0.259 h -13.461 l -4.754,22.71 h 12.772 c 0.292,0 0.857,-0.096 1.756,-0.638 0.788,-0.476 1.696,-1.289 2.679,-2.606 z m -22.19,7.32 6.451,-30.821 h 16.733 c 1.075,0 2.083,0.338 3.024,1.014 0.94,0.541 1.747,1.554 2.419,3.041 0.672,1.487 1.008,3.583 1.008,6.286 0,3.515 -0.403,6.556 -1.21,9.125 -0.672,2.568 -1.68,4.731 -3.024,6.488 -1.209,1.622 -2.486,2.839 -3.83,3.65 -1.344,0.811 -2.621,1.217 -3.83,1.217 z"
       id="path37" /></mask><path
     fill-rule="evenodd"
     clip-rule="evenodd"
     d="M 68.9791,168.599 H 131.11 c 8.395,0 15.832,2.234 22.11,6.846 6.094,4.342 10.707,10.041 13.812,17.016 3.197,6.883 4.8,14.151 4.8,21.761 0,7.619 -1.606,15.125 -4.765,22.491 -3.145,7.332 -7.501,14.006 -13.045,20.011 l -0.016,0.018 -0.017,0.017 c -5.572,5.892 -12.009,10.639 -19.29,14.23 -7.419,3.657 -15.352,5.483 -23.749,5.483 H 93.6573 l -9.2734,44.203 H 36.8232 Z M 90.3873,272.416 H 110.95 c 7.795,0 15.12,-1.689 21.974,-5.069 6.854,-3.379 12.902,-7.84 18.144,-13.383 5.241,-5.677 9.34,-11.963 12.297,-18.857 2.957,-6.894 4.435,-13.856 4.435,-20.885 0,-7.029 -1.478,-13.721 -4.435,-20.074 -2.822,-6.353 -6.989,-11.49 -12.499,-15.41 -5.51,-4.056 -12.096,-6.083 -19.756,-6.083 H 72.2437 L 41.8028,316.62 h 39.3111 z m 29.6497,-41.79 0.015,-0.019 c 0.958,-1.253 1.758,-2.901 2.32,-5.048 l 0.025,-0.096 0.03,-0.093 c 0.651,-2.074 1.022,-4.685 1.022,-7.904 0,-2.456 -0.319,-3.883 -0.647,-4.607 -0.44,-0.975 -0.761,-1.204 -0.76,-1.206 l -0.166,-0.095 -0.166,-0.119 c -0.311,-0.224 -0.51,-0.259 -0.68,-0.259 h -13.461 l -4.754,22.71 h 12.772 c 0.292,0 0.857,-0.096 1.756,-0.638 0.788,-0.476 1.697,-1.289 2.679,-2.606 z m -22.1906,7.32 6.4506,-30.821 h 16.733 c 1.075,0 2.083,0.338 3.024,1.014 0.941,0.541 1.747,1.554 2.419,3.041 0.672,1.487 1.008,3.583 1.008,6.286 0,3.515 -0.403,6.556 -1.21,9.125 -0.672,2.568 -1.68,4.731 -3.024,6.488 -1.209,1.622 -2.486,2.839 -3.83,3.65 -1.344,0.811 -2.621,1.217 -3.83,1.217 z m 115.5076,78.686 -0.042,-0.021 c -7.343,-3.62 -13.579,-8.498 -18.66,-14.63 -5.028,-6.07 -8.83,-12.931 -11.405,-20.555 l -0.007,-0.022 c -2.559,-7.721 -3.836,-15.725 -3.836,-23.993 0,-9.126 1.562,-18.1 4.668,-26.904 l 0.009,-0.028 0.01,-0.027 c 3.228,-8.752 7.652,-16.873 13.263,-24.351 l 0.007,-0.009 c 5.738,-7.601 12.392,-14.225 19.957,-19.863 7.707,-5.777 16.054,-10.293 25.032,-13.538 9.045,-3.27 18.444,-4.903 28.176,-4.903 9.373,0 17.85,1.786 25.332,5.469 7.357,3.487 13.603,8.304 18.689,14.442 5.043,6.087 8.78,13.033 11.218,20.801 2.556,7.586 3.828,15.516 3.828,23.768 0,9.144 -1.634,18.132 -4.883,26.944 -3.094,8.623 -7.448,16.738 -13.045,24.337 l -0.01,0.015 -0.011,0.014 c -5.604,7.468 -12.184,14.085 -19.73,19.847 -7.585,5.793 -15.877,10.316 -24.863,13.564 -9.045,3.27 -18.445,4.903 -28.176,4.903 -9.365,0 -17.885,-1.715 -25.478,-5.24 z m 107.57,-58.815 c 3.092,-8.381 4.637,-16.897 4.637,-25.549 0,-7.84 -1.21,-15.342 -3.629,-22.507 -2.284,-7.3 -5.779,-13.788 -10.483,-19.466 -4.703,-5.677 -10.483,-10.138 -17.337,-13.382 -6.854,-3.38 -14.716,-5.07 -23.586,-5.07 -9.274,0 -18.211,1.555 -26.813,4.664 -8.601,3.109 -16.598,7.435 -23.99,12.977 -7.257,5.407 -13.641,11.761 -19.151,19.06 -5.376,7.165 -9.61,14.938 -12.701,23.319 -2.956,8.381 -4.435,16.897 -4.435,25.548 0,7.841 1.21,15.411 3.629,22.71 2.419,7.165 5.981,13.586 10.685,19.263 4.703,5.678 10.483,10.206 17.337,13.586 6.988,3.244 14.918,4.866 23.788,4.866 9.273,0 18.211,-1.554 26.812,-4.663 8.602,-3.109 16.531,-7.435 23.788,-12.977 7.258,-5.543 13.575,-11.896 18.95,-19.061 5.376,-7.299 9.543,-15.072 12.499,-23.318 z m -48.684,6.628 0.014,-0.019 c 3.119,-4.518 5.413,-9.327 6.901,-14.439 1.515,-5.208 2.257,-10.231 2.257,-15.083 0,-4.557 -0.734,-8.65 -2.148,-12.324 l -0.027,-0.072 -0.025,-0.074 c -1.24,-3.628 -3.21,-6.386 -5.885,-8.43 -2.47,-1.889 -5.966,-3.026 -10.865,-3.026 -5.662,0 -10.495,1.324 -14.63,3.866 l -0.036,0.021 -0.035,0.021 c -4.314,2.531 -7.907,5.899 -10.802,10.146 -2.991,4.386 -5.299,9.148 -6.928,14.3 -1.506,5.191 -2.244,10.2 -2.244,15.038 0,4.574 0.672,8.77 1.981,12.619 1.368,3.647 3.421,6.515 6.143,8.717 2.483,1.882 5.911,2.996 10.625,2.996 5.813,0 10.71,-1.332 14.831,-3.866 4.351,-2.674 7.967,-6.128 10.873,-10.391 z m -38.808,14.46 c -3.36,-2.704 -5.846,-6.218 -7.459,-10.544 -1.478,-4.326 -2.218,-8.989 -2.218,-13.991 0,-5.272 0.807,-10.679 2.42,-16.221 1.747,-5.543 4.233,-10.68 7.459,-15.411 3.225,-4.731 7.257,-8.516 12.095,-11.355 4.839,-2.974 10.416,-4.461 16.733,-4.461 5.51,0 9.945,1.284 13.305,3.853 3.36,2.568 5.779,6.015 7.257,10.341 1.613,4.191 2.42,8.787 2.42,13.788 0,5.272 -0.807,10.679 -2.42,16.222 -1.612,5.542 -4.099,10.746 -7.459,15.613 -3.225,4.731 -7.257,8.584 -12.095,11.558 -4.839,2.974 -10.483,4.46 -16.934,4.46 -5.376,0 -9.744,-1.284 -13.104,-3.852 z M 367.309,168.599 h 62.13 c 8.396,0 15.833,2.234 22.111,6.846 6.094,4.342 10.706,10.04 13.811,17.015 3.198,6.884 4.801,14.151 4.801,21.762 0,7.619 -1.606,15.125 -4.765,22.491 -3.145,7.332 -7.501,14.006 -13.045,20.011 l -0.017,0.018 -0.016,0.017 c -5.572,5.892 -12.009,10.639 -19.291,14.23 -7.418,3.657 -15.351,5.483 -23.748,5.483 h -17.293 l -9.273,44.203 h -47.561 z m 21.408,103.817 h 20.563 c 7.795,0 15.12,-1.689 21.974,-5.069 6.854,-3.379 12.902,-7.84 18.143,-13.383 5.242,-5.677 9.341,-11.963 12.298,-18.857 2.956,-6.894 4.435,-13.856 4.435,-20.885 0,-7.029 -1.479,-13.721 -4.435,-20.074 -2.823,-6.353 -6.989,-11.49 -12.499,-15.41 -5.51,-4.056 -12.096,-6.083 -19.757,-6.083 H 370.574 L 340.133,316.62 h 39.311 z m 29.649,-41.79 0.015,-0.019 c 0.959,-1.253 1.759,-2.901 2.321,-5.048 l 0.025,-0.096 0.029,-0.093 c 0.652,-2.074 1.023,-4.685 1.023,-7.904 0,-2.456 -0.319,-3.883 -0.647,-4.607 -0.44,-0.975 -0.761,-1.204 -0.76,-1.206 l -0.166,-0.095 -0.166,-0.119 c -0.311,-0.224 -0.51,-0.259 -0.68,-0.259 h -13.461 l -4.754,22.71 h 12.772 c 0.292,0 0.857,-0.096 1.756,-0.638 0.788,-0.476 1.696,-1.289 2.679,-2.606 z m -22.19,7.32 6.451,-30.821 h 16.733 c 1.075,0 2.083,0.338 3.024,1.014 0.94,0.541 1.747,1.554 2.419,3.041 0.672,1.487 1.008,3.583 1.008,6.286 0,3.515 -0.403,6.556 -1.21,9.125 -0.672,2.568 -1.68,4.731 -3.024,6.488 -1.209,1.622 -2.486,2.839 -3.83,3.65 -1.344,0.811 -2.621,1.217 -3.83,1.217 z"
     fill="#ffffff"
     id="path38" /><path
     fill-rule="evenodd"
     clip-rule="evenodd"
     d="M 68.9791,168.599 H 131.11 c 8.395,0 15.832,2.234 22.11,6.846 6.094,4.342 10.707,10.041 13.812,17.016 3.197,6.883 4.8,14.151 4.8,21.761 0,7.619 -1.606,15.125 -4.765,22.491 -3.145,7.332 -7.501,14.006 -13.045,20.011 l -0.016,0.018 -0.017,0.017 c -5.572,5.892 -12.009,10.639 -19.29,14.23 -7.419,3.657 -15.352,5.483 -23.749,5.483 H 93.6573 l -9.2734,44.203 H 36.8232 Z M 90.3873,272.416 H 110.95 c 7.795,0 15.12,-1.689 21.974,-5.069 6.854,-3.379 12.902,-7.84 18.144,-13.383 5.241,-5.677 9.34,-11.963 12.297,-18.857 2.957,-6.894 4.435,-13.856 4.435,-20.885 0,-7.029 -1.478,-13.721 -4.435,-20.074 -2.822,-6.353 -6.989,-11.49 -12.499,-15.41 -5.51,-4.056 -12.096,-6.083 -19.756,-6.083 H 72.2437 L 41.8028,316.62 h 39.3111 z m 29.6497,-41.79 0.015,-0.019 c 0.958,-1.253 1.758,-2.901 2.32,-5.048 l 0.025,-0.096 0.03,-0.093 c 0.651,-2.074 1.022,-4.685 1.022,-7.904 0,-2.456 -0.319,-3.883 -0.647,-4.607 -0.44,-0.975 -0.761,-1.204 -0.76,-1.206 l -0.166,-0.095 -0.166,-0.119 c -0.311,-0.224 -0.51,-0.259 -0.68,-0.259 h -13.461 l -4.754,22.71 h 12.772 c 0.292,0 0.857,-0.096 1.756,-0.638 0.788,-0.476 1.697,-1.289 2.679,-2.606 z m -22.1906,7.32 6.4506,-30.821 h 16.733 c 1.075,0 2.083,0.338 3.024,1.014 0.941,0.541 1.747,1.554 2.419,3.041 0.672,1.487 1.008,3.583 1.008,6.286 0,3.515 -0.403,6.556 -1.21,9.125 -0.672,2.568 -1.68,4.731 -3.024,6.488 -1.209,1.622 -2.486,2.839 -3.83,3.65 -1.344,0.811 -2.621,1.217 -3.83,1.217 z m 115.5076,78.686 -0.042,-0.021 c -7.343,-3.62 -13.579,-8.498 -18.66,-14.63 -5.028,-6.07 -8.83,-12.931 -11.405,-20.555 l -0.007,-0.022 c -2.559,-7.721 -3.836,-15.725 -3.836,-23.993 0,-9.126 1.562,-18.1 4.668,-26.904 l 0.009,-0.028 0.01,-0.027 c 3.228,-8.752 7.652,-16.873 13.263,-24.351 l 0.007,-0.009 c 5.738,-7.601 12.392,-14.225 19.957,-19.863 7.707,-5.777 16.054,-10.293 25.032,-13.538 9.045,-3.27 18.444,-4.903 28.176,-4.903 9.373,0 17.85,1.786 25.332,5.469 7.357,3.487 13.603,8.304 18.689,14.442 5.043,6.087 8.78,13.033 11.218,20.801 2.556,7.586 3.828,15.516 3.828,23.768 0,9.144 -1.634,18.132 -4.883,26.944 -3.094,8.623 -7.448,16.738 -13.045,24.337 l -0.01,0.015 -0.011,0.014 c -5.604,7.468 -12.184,14.085 -19.73,19.847 -7.585,5.793 -15.877,10.316 -24.863,13.564 -9.045,3.27 -18.445,4.903 -28.176,4.903 -9.365,0 -17.885,-1.715 -25.478,-5.24 z m 107.57,-58.815 c 3.092,-8.381 4.637,-16.897 4.637,-25.549 0,-7.84 -1.21,-15.342 -3.629,-22.507 -2.284,-7.3 -5.779,-13.788 -10.483,-19.466 -4.703,-5.677 -10.483,-10.138 -17.337,-13.382 -6.854,-3.38 -14.716,-5.07 -23.586,-5.07 -9.274,0 -18.211,1.555 -26.813,4.664 -8.601,3.109 -16.598,7.435 -23.99,12.977 -7.257,5.407 -13.641,11.761 -19.151,19.06 -5.376,7.165 -9.61,14.938 -12.701,23.319 -2.956,8.381 -4.435,16.897 -4.435,25.548 0,7.841 1.21,15.411 3.629,22.71 2.419,7.165 5.981,13.586 10.685,19.263 4.703,5.678 10.483,10.206 17.337,13.586 6.988,3.244 14.918,4.866 23.788,4.866 9.273,0 18.211,-1.554 26.812,-4.663 8.602,-3.109 16.531,-7.435 23.788,-12.977 7.258,-5.543 13.575,-11.896 18.95,-19.061 5.376,-7.299 9.543,-15.072 12.499,-23.318 z m -48.684,6.628 0.014,-0.019 c 3.119,-4.518 5.413,-9.327 6.901,-14.439 1.515,-5.208 2.257,-10.231 2.257,-15.083 0,-4.557 -0.734,-8.65 -2.148,-12.324 l -0.027,-0.072 -0.025,-0.074 c -1.24,-3.628 -3.21,-6.386 -5.885,-8.43 -2.47,-1.889 -5.966,-3.026 -10.865,-3.026 -5.662,0 -10.495,1.324 -14.63,3.866 l -0.036,0.021 -0.035,0.021 c -4.314,2.531 -7.907,5.899 -10.802,10.146 -2.991,4.386 -5.299,9.148 -6.928,14.3 -1.506,5.191 -2.244,10.2 -2.244,15.038 0,4.574 0.672,8.77 1.981,12.619 1.368,3.647 3.421,6.515 6.143,8.717 2.483,1.882 5.911,2.996 10.625,2.996 5.813,0 10.71,-1.332 14.831,-3.866 4.351,-2.674 7.967,-6.128 10.873,-10.391 z m -38.808,14.46 c -3.36,-2.704 -5.846,-6.218 -7.459,-10.544 -1.478,-4.326 -2.218,-8.989 -2.218,-13.991 0,-5.272 0.807,-10.679 2.42,-16.221 1.747,-5.543 4.233,-10.68 7.459,-15.411 3.225,-4.731 7.257,-8.516 12.095,-11.355 4.839,-2.974 10.416,-4.461 16.733,-4.461 5.51,0 9.945,1.284 13.305,3.853 3.36,2.568 5.779,6.015 7.257,10.341 1.613,4.191 2.42,8.787 2.42,13.788 0,5.272 -0.807,10.679 -2.42,16.222 -1.612,5.542 -4.099,10.746 -7.459,15.613 -3.225,4.731 -7.257,8.584 -12.095,11.558 -4.839,2.974 -10.483,4.46 -16.934,4.46 -5.376,0 -9.744,-1.284 -13.104,-3.852 z M 367.309,168.599 h 62.13 c 8.396,0 15.833,2.234 22.111,6.846 6.094,4.342 10.706,10.04 13.811,17.015 3.198,6.884 4.801,14.151 4.801,21.762 0,7.619 -1.606,15.125 -4.765,22.491 -3.145,7.332 -7.501,14.006 -13.045,20.011 l -0.017,0.018 -0.016,0.017 c -5.572,5.892 -12.009,10.639 -19.291,14.23 -7.418,3.657 -15.351,5.483 -23.748,5.483 h -17.293 l -9.273,44.203 h -47.561 z m 21.408,103.817 h 20.563 c 7.795,0 15.12,-1.689 21.974,-5.069 6.854,-3.379 12.902,-7.84 18.143,-13.383 5.242,-5.677 9.341,-11.963 12.298,-18.857 2.956,-6.894 4.435,-13.856 4.435,-20.885 0,-7.029 -1.479,-13.721 -4.435,-20.074 -2.823,-6.353 -6.989,-11.49 -12.499,-15.41 -5.51,-4.056 -12.096,-6.083 -19.757,-6.083 H 370.574 L 340.133,316.62 h 39.311 z m 29.649,-41.79 0.015,-0.019 c 0.959,-1.253 1.759,-2.901 2.321,-5.048 l 0.025,-0.096 0.029,-0.093 c 0.652,-2.074 1.023,-4.685 1.023,-7.904 0,-2.456 -0.319,-3.883 -0.647,-4.607 -0.44,-0.975 -0.761,-1.204 -0.76,-1.206 l -0.166,-0.095 -0.166,-0.119 c -0.311,-0.224 -0.51,-0.259 -0.68,-0.259 h -13.461 l -4.754,22.71 h 12.772 c 0.292,0 0.857,-0.096 1.756,-0.638 0.788,-0.476 1.696,-1.289 2.679,-2.606 z m -22.19,7.32 6.451,-30.821 h 16.733 c 1.075,0 2.083,0.338 3.024,1.014 0.94,0.541 1.747,1.554 2.419,3.041 0.672,1.487 1.008,3.583 1.008,6.286 0,3.515 -0.403,6.556 -1.21,9.125 -0.672,2.568 -1.68,4.731 -3.024,6.488 -1.209,1.622 -2.486,2.839 -3.83,3.65 -1.344,0.811 -2.621,1.217 -3.83,1.217 z"
     stroke="#ffffff"
     stroke-width="0.3"
     mask="url(#path-6-outside-1_873_174)"
     id="path39" /></g><text
   xml:space="preserve"
   style="font-size:61.3333px;font-family:Freude;-inkscape-font-specification:Freude;fill:#000000"
   x="174.37427"
   y="82.496628"
   id="text1"><tspan
     sodipodi:role="line"
     id="tspan1"
     x="174.37427"
     class="font-freude"
     y="82.496628"
     style="font-size:61.3333px;fill:#ffffff">Pop Network</tspan></text></svg>
