<?xml version="1.0" encoding="utf-8"?>
<!-- Generator: Adobe Illustrator 27.1.1, SVG Export Plug-In . SVG Version: 6.00 Build 0)  -->
<svg version="1.1" id="Content" xmlns="http://www.w3.org/2000/svg" xmlns:xlink="http://www.w3.org/1999/xlink" x="0px" y="0px"
	 viewBox="0 0 6161.9 1410.3" style="enable-background:new 0 0 6161.9 1410.3;" xml:space="preserve">
<style type="text/css">
	.st0{fill:#E6007A;}
	.st1{fill:#FFFFFF;}
</style>
<ellipse class="st0" cx="663" cy="147.9" rx="254.3" ry="147.9"/>
<ellipse class="st0" cx="663" cy="1262.3" rx="254.3" ry="147.9"/>
<ellipse transform="matrix(0.5 -0.866 0.866 0.5 -279.16 369.5309)" class="st0" cx="180.4" cy="426.5" rx="254.3" ry="148"/>
<ellipse transform="matrix(0.5 -0.866 0.866 0.5 -279.1616 1483.895)" class="st0" cx="1145.5" cy="983.7" rx="254.3" ry="147.9"/>
<ellipse transform="matrix(0.866 -0.5 0.5 0.866 -467.6686 222.0377)" class="st0" cx="180.5" cy="983.7" rx="148" ry="254.3"/>
<ellipse transform="matrix(0.866 -0.5 0.5 0.866 -59.7981 629.9581)" class="st0" cx="1145.6" cy="426.6" rx="147.9" ry="254.3"/>
<g>
	<path class="st1" d="M1718.2,923.6h155v-349h-155v-138h281.7l18.8,82.3h5c23.3-27.5,50-50.4,80.1-68.8c30-18.3,65-27.5,105.1-27.5
		c50,0,89.4,18.4,118.2,55.1c28.8,36.7,43.2,98,43.2,183.9h-146c0-29.9-4.4-51.7-13.2-65.4c-8.8-13.7-22.8-20.6-42-20.6
		c-33.4,0-60.4,8.3-80.8,25s-37.8,35.8-52,57.4v265.7h271v138h-589V923.6z"/>
	<path class="st1" d="M2463.1,749.1c0-52.6,7.9-99.3,23.8-140.2c15.8-40.9,38.4-75.5,67.5-103.9c29.2-28.4,64-49.9,104.5-64.5
		c40.4-14.6,85.7-21.9,135.7-21.9c52.5,0,99.5,7.9,140.7,23.8s76.1,38.2,104.5,67c28.3,28.8,49.8,63.6,64.4,104.5
		c14.6,40.9,21.9,86,21.9,135.2c0,52.6-7.9,99.3-23.8,140.2c-15.8,40.9-38.4,75.5-67.6,103.9s-64,49.9-104.5,64.5
		s-85.7,21.9-135.7,21.9c-52.5,0-99.5-7.9-140.7-23.8c-41.3-15.9-76.1-38.2-104.5-67c-28.4-28.8-49.8-63.6-64.4-104.5
		C2470.4,843.4,2463.1,798.3,2463.1,749.1z M2631.1,749.1c0,27.5,3.7,52.9,11.2,76.2c7.5,23.3,18.3,43.8,32.5,61.2
		c14.1,17.5,31.2,31,51.2,40.6c20,9.6,42.8,14.4,68.6,14.4c48.2,0,87.6-15.4,117.9-46.2c30.4-30.8,45.6-79.6,45.6-146.2
		c0-57.5-14.2-104-42.4-139.4c-28.3-35.4-68.7-53.1-121.1-53.1c-23.3,0-44.9,3.5-64.9,10.6c-20,7.1-37.2,18.5-51.8,34.4
		c-14.6,15.8-26,35.8-34.3,60C2635.3,685.7,2631.1,714.9,2631.1,749.1z"/>
	<path class="st1" d="M3852.1,1001.9c-34.2,25.9-74.2,45.3-120.1,58.2s-93.8,19.4-143.9,19.4c-54.2,0-102.4-7.9-144.5-23.8
		c-42.1-15.9-77.6-38.2-106.3-67c-28.8-28.8-50.7-63.6-65.7-104.5c-15-40.9-22.5-86-22.5-135.2c0-52.6,8.8-99.3,26.2-140.2
		c17.5-40.9,41.9-75.5,73.2-103.9c31.3-28.4,68.2-49.9,110.7-64.5c42.5-14.6,88.8-21.9,138.8-21.9c46.7,0,90.5,5.4,131.3,16.3
		c40.8,10.9,72.1,21.3,93.8,31.3v220.4h-138V571.3c-25.8-5.8-51.5-8.8-77.3-8.8c-23.3,0-46.3,3.5-69.2,10.6
		c-22.9,7.1-43.2,18.4-61.1,33.8c-17.9,15.4-32.4,34.8-43.6,58.2c-11.2,23.4-16.8,51.3-16.8,83.9c0,26.7,4.6,51.3,13.8,73.8
		c9.2,22.5,22.1,42.2,38.8,58.8c16.7,16.7,37.3,29.8,61.9,39.4c24.6,9.6,51.9,14.4,81.9,14.4c47.5,0,86.5-6.7,116.9-20
		c30.4-13.3,53.1-25,68.1-35L3852.1,1001.9z"/>
	<path class="st1" d="M3963.1,749.1c0-52.6,7.9-99.3,23.8-140.2c15.8-40.9,38.4-75.5,67.5-103.9c29.2-28.4,64-49.9,104.5-64.5
		c40.4-14.6,85.7-21.9,135.7-21.9c52.5,0,99.5,7.9,140.7,23.8s76.1,38.2,104.5,67c28.3,28.8,49.8,63.6,64.4,104.5
		c14.6,40.9,21.9,86,21.9,135.2c0,52.6-7.9,99.3-23.8,140.2c-15.8,40.9-38.4,75.5-67.6,103.9s-64,49.9-104.5,64.5
		s-85.7,21.9-135.7,21.9c-52.5,0-99.5-7.9-140.7-23.8c-41.3-15.9-76.1-38.2-104.5-67c-28.4-28.8-49.8-63.6-64.4-104.5
		C3970.4,843.4,3963.1,798.3,3963.1,749.1z M4131.1,749.1c0,27.5,3.7,52.9,11.2,76.2c7.5,23.3,18.3,43.8,32.5,61.2
		c14.1,17.5,31.2,31,51.2,40.6c20,9.6,42.8,14.4,68.6,14.4c48.2,0,87.6-15.4,117.9-46.2c30.4-30.8,45.6-79.6,45.6-146.2
		c0-57.5-14.2-104-42.4-139.4c-28.3-35.4-68.7-53.1-121.1-53.1c-23.3,0-44.9,3.5-64.9,10.6c-20,7.1-37.2,18.5-51.8,34.4
		c-14.6,15.8-26,35.8-34.3,60C4135.3,685.7,4131.1,714.9,4131.1,749.1z"/>
	<path class="st1" d="M5352.1,1001.9c-34.2,25.9-74.2,45.3-120.1,58.2s-93.8,19.4-143.9,19.4c-54.2,0-102.4-7.9-144.5-23.8
		c-42.1-15.9-77.6-38.2-106.3-67c-28.8-28.8-50.7-63.6-65.7-104.5c-15-40.9-22.5-86-22.5-135.2c0-52.6,8.8-99.3,26.2-140.2
		c17.5-40.9,41.9-75.5,73.2-103.9c31.3-28.4,68.2-49.9,110.7-64.5c42.5-14.6,88.8-21.9,138.8-21.9c46.7,0,90.5,5.4,131.3,16.3
		c40.8,10.9,72.1,21.3,93.8,31.3v220.4h-138V571.3c-25.8-5.8-51.5-8.8-77.3-8.8c-23.3,0-46.3,3.5-69.2,10.6
		c-22.9,7.1-43.2,18.4-61.1,33.8c-17.9,15.4-32.4,34.8-43.6,58.2c-11.2,23.4-16.8,51.3-16.8,83.9c0,26.7,4.6,51.3,13.8,73.8
		c9.2,22.5,22.1,42.2,38.8,58.8c16.7,16.7,37.3,29.8,61.9,39.4c24.6,9.6,51.9,14.4,81.9,14.4c47.5,0,86.5-6.7,116.9-20
		c30.4-13.3,53.1-25,68.1-35L5352.1,1001.9z"/>
	<path class="st1" d="M5463.1,749.1c0-52.6,7.9-99.3,23.8-140.2c15.8-40.9,38.4-75.5,67.5-103.9c29.2-28.4,64-49.9,104.5-64.5
		c40.4-14.6,85.7-21.9,135.7-21.9c52.5,0,99.5,7.9,140.7,23.8s76.1,38.2,104.5,67c28.3,28.8,49.8,63.6,64.4,104.5
		c14.6,40.9,21.9,86,21.9,135.2c0,52.6-7.9,99.3-23.8,140.2c-15.8,40.9-38.4,75.5-67.6,103.9s-64,49.9-104.5,64.5
		s-85.7,21.9-135.7,21.9c-52.5,0-99.5-7.9-140.7-23.8c-41.3-15.9-76.1-38.2-104.5-67c-28.4-28.8-49.8-63.6-64.4-104.5
		C5470.4,843.4,5463.1,798.3,5463.1,749.1z M5631.1,749.1c0,27.5,3.7,52.9,11.2,76.2c7.5,23.3,18.3,43.8,32.5,61.2
		c14.1,17.5,31.2,31,51.2,40.6c20,9.6,42.8,14.4,68.6,14.4c48.2,0,87.6-15.4,117.9-46.2c30.4-30.8,45.6-79.6,45.6-146.2
		c0-57.5-14.2-104-42.4-139.4c-28.3-35.4-68.7-53.1-121.1-53.1c-23.3,0-44.9,3.5-64.9,10.6c-20,7.1-37.2,18.5-51.8,34.4
		c-14.6,15.8-26,35.8-34.3,60C5635.3,685.7,5631.1,714.9,5631.1,749.1z"/>
</g>
</svg>
