<?xml version="1.0" encoding="utf-8"?>
<!-- Generator: Adobe Illustrator 27.1.1, SVG Export Plug-In . SVG Version: 6.00 Build 0)  -->
<svg version="1.1" id="Layer_1" xmlns="http://www.w3.org/2000/svg" xmlns:xlink="http://www.w3.org/1999/xlink" x="0px" y="0px"
	 viewBox="0 0 562.6 146.8" style="enable-background:new 0 0 562.6 146.8;" xml:space="preserve">
<style type="text/css">
	.st0{fill:#BB82FA;}
	.st1{fill-rule:evenodd;clip-rule:evenodd;fill:#BB82FA;}
	.st2{fill:#FFFFFF;}
</style>
<g>
	<g>
		<g>
			<path class="st0" d="M562.6,30.4v75.4c0,11.9-7.3,22.1-17.7,26.5c-1,0.4-2.2-0.4-2.2-1.5c0-0.2,0-0.3,0-0.4
				c-2.1-12.3-17.1-17.6-30.6-17c-9.1,0.4-19.1,4-24.6,10c-0.6,0.7-1.6,0.7-2.3,0.1c-4.7-4.5-12.4-7.1-19.6-7.3
				c-8.3-0.2-17.6,2.6-22.4,8.2c-0.6,0.7-1.6,0.8-2.3,0.2c-3.5-2.9-8.6-4.7-13.4-4.9c-12.5-0.6-19.7,7.3-19.5,12.9
				c0,0.1,0,0.2,0,0.3c0,0.9-0.7,1.6-1.6,1.6h-376C13.7,134.5,0,120.9,0,104.2V30.4C0,13.7,13.7,0,30.4,0h501.8
				C548.9,0,562.6,13.7,562.6,30.4z"/>
		</g>
		<g>
			<g>
				<path class="st1" d="M533.5,133.3c0.3,7-8.5,13-19.5,13.4c-11.1,0.5-20.3-4.8-20.6-11.8c-0.3-8,10.3-13,19.5-13.4
					C522.1,121.2,533.2,125.3,533.5,133.3z"/>
			</g>
			<g>
				<path class="st1" d="M481.1,134.5c-0.3,5.7-7.9,10.2-17,10c-9.1-0.2-16.2-5-15.9-10.7c0.4-6.6,9.4-10.1,17-10
					C473,124,481.5,128,481.1,134.5z"/>
			</g>
			<g>
				<path class="st1" d="M439.2,134.7c-0.3,4.3-6.2,7.7-13,7.4c-6.8-0.2-12.1-3.9-11.9-8.2c-0.1-3.2,4.7-7.8,13-7.6
					C433.1,126.6,439.6,129.7,439.2,134.7z"/>
			</g>
		</g>
	</g>
	<g>
		<path class="st2" d="M73.9,84.4V43.8h9.6v40.7H73.9z"/>
		<path class="st2" d="M112.1,52.7c2.5,0,4.8,0.5,6.8,1.5c2,1,3.6,2.5,4.7,4.5c1.1,2,1.7,4.6,1.7,7.8v17.9h-9.2V67.9
			c0-2.5-0.6-4.4-1.7-5.6c-1.1-1.2-2.7-1.8-4.8-1.8c-1.5,0-2.8,0.3-3.9,0.9c-1.2,0.6-2.1,1.5-2.7,2.8c-0.7,1.2-1,2.8-1,4.8v15.4
			h-9.2V53.2h8.8v8.7l-1.7-2.6c1.1-2.1,2.8-3.7,4.9-4.8C106.9,53.3,109.4,52.7,112.1,52.7z"/>
		<path class="st2" d="M151.1,84.4V43.8h18c3.7,0,6.9,0.6,9.6,1.8c2.7,1.2,4.8,2.9,6.2,5.1c1.5,2.2,2.2,4.8,2.2,7.9
			c0,3-0.7,5.6-2.2,7.8c-1.5,2.2-3.5,3.9-6.2,5.1c-2.7,1.2-5.9,1.8-9.6,1.8h-12.6l4.3-4.2v15.4H151.1z M160.7,70l-4.3-4.5h12.1
			c3,0,5.2-0.6,6.6-1.9c1.5-1.2,2.2-3,2.2-5.2c0-2.2-0.7-4-2.2-5.2c-1.5-1.2-3.7-1.9-6.6-1.9h-12.1l4.3-4.5V70z"/>
		<path class="st2" d="M193.3,84.4V53.2h8.8V62l-1.2-2.6c0.9-2.2,2.5-3.9,4.6-5c2.1-1.1,4.6-1.7,7.6-1.7v8.4c-0.4,0-0.8-0.1-1.1-0.1
			c-0.3,0-0.7,0-1,0c-2.5,0-4.6,0.7-6.1,2.1c-1.6,1.4-2.3,3.6-2.3,6.6v14.8H193.3z"/>
		<path class="st2" d="M233.5,84.9c-3.4,0-6.4-0.7-9-2.1c-2.6-1.4-4.7-3.3-6.2-5.7c-1.5-2.4-2.3-5.2-2.3-8.3c0-3.1,0.8-5.9,2.3-8.3
			c1.5-2.4,3.6-4.3,6.2-5.7c2.6-1.4,5.6-2.1,9-2.1c3.4,0,6.4,0.7,9,2.1c2.6,1.4,4.7,3.3,6.2,5.7c1.5,2.4,2.3,5.2,2.3,8.4
			c0,3.1-0.8,5.9-2.3,8.3c-1.5,2.4-3.6,4.3-6.2,5.7C239.8,84.2,236.8,84.9,233.5,84.9z M233.5,77.5c1.5,0,2.9-0.3,4.1-1
			c1.2-0.7,2.2-1.7,2.9-3c0.7-1.3,1.1-2.8,1.1-4.6c0-1.8-0.4-3.4-1.1-4.6c-0.7-1.3-1.7-2.3-2.9-3c-1.2-0.7-2.6-1-4.1-1
			s-2.9,0.3-4.1,1c-1.2,0.7-2.2,1.7-2.9,3c-0.7,1.3-1.1,2.8-1.1,4.6c0,1.8,0.4,3.3,1.1,4.6c0.7,1.3,1.7,2.3,2.9,3
			C230.5,77.1,231.9,77.5,233.5,77.5z"/>
		<path class="st2" d="M270.8,84.9c-3,0-5.7-0.7-8.1-2c-2.4-1.3-4.3-3.2-5.7-5.6c-1.4-2.4-2.1-5.2-2.1-8.5c0-3.3,0.7-6.1,2.1-8.5
			c1.4-2.4,3.3-4.3,5.7-5.6c2.4-1.3,5.1-2,8.1-2c2.7,0,5,0.6,7.1,1.7s3.6,2.9,4.7,5.3c1.1,2.4,1.7,5.4,1.7,9.1c0,3.6-0.5,6.6-1.6,9
			c-1.1,2.4-2.6,4.2-4.6,5.3C276,84.3,273.6,84.9,270.8,84.9z M272.4,77.5c1.5,0,2.9-0.3,4.1-1c1.2-0.7,2.2-1.7,2.9-3
			c0.7-1.3,1.1-2.8,1.1-4.6c0-1.8-0.4-3.4-1.1-4.6c-0.7-1.3-1.7-2.3-2.9-3c-1.2-0.7-2.6-1-4.1-1c-1.5,0-2.9,0.3-4.2,1
			c-1.2,0.7-2.2,1.7-2.9,3c-0.7,1.3-1.1,2.8-1.1,4.6c0,1.8,0.4,3.3,1.1,4.6c0.7,1.3,1.7,2.3,2.9,3C269.5,77.1,270.9,77.5,272.4,77.5
			z M280.8,84.4V78l0.2-9.3l-0.6-9.2V41.3h9.2v43.1H280.8z"/>
		<path class="st2" d="M311.6,84.9c-2.6,0-5-0.5-7.1-1.5c-2.1-1-3.7-2.5-4.8-4.6c-1.1-2.1-1.7-4.7-1.7-7.9V53.2h9.2v16.3
			c0,2.6,0.6,4.5,1.7,5.7c1.1,1.2,2.7,1.8,4.8,1.8c1.4,0,2.7-0.3,3.8-0.9c1.1-0.6,2-1.5,2.6-2.8c0.6-1.3,0.9-2.8,0.9-4.7V53.2h9.2
			v31.2h-8.8v-8.6l1.6,2.5c-1.1,2.2-2.6,3.8-4.7,4.9S314,84.9,311.6,84.9z"/>
		<path class="st2" d="M354.3,84.9c-3.4,0-6.5-0.7-9.2-2.1c-2.7-1.4-4.8-3.3-6.3-5.7c-1.5-2.4-2.3-5.2-2.3-8.3
			c0-3.1,0.8-5.9,2.3-8.3c1.5-2.4,3.6-4.3,6.3-5.7c2.7-1.4,5.8-2.1,9.2-2.1c3.4,0,6.3,0.7,8.8,2.1c2.5,1.4,4.3,3.3,5.5,5.9l-7.2,3.8
			c-0.8-1.5-1.9-2.6-3.1-3.3c-1.2-0.7-2.6-1-4.1-1c-1.6,0-3,0.3-4.3,1c-1.3,0.7-2.3,1.7-3,3c-0.7,1.3-1.1,2.8-1.1,4.6
			c0,1.8,0.4,3.4,1.1,4.6c0.7,1.3,1.7,2.3,3,3c1.3,0.7,2.7,1,4.3,1c1.5,0,2.8-0.3,4.1-1c1.2-0.7,2.3-1.8,3.1-3.3l7.2,3.8
			c-1.2,2.5-3,4.5-5.5,5.8C360.6,84.2,357.6,84.9,354.3,84.9z"/>
		<path class="st2" d="M370.6,60.9v-7h22.1v7H370.6z M387.4,84.9c-3.8,0-6.7-0.9-8.8-2.8c-2.1-1.9-3.1-4.7-3.1-8.4V46.3h9.2v27.3
			c0,1.3,0.4,2.3,1.1,3c0.7,0.7,1.7,1.1,2.9,1.1c1.5,0,2.7-0.4,3.7-1.2l2.5,6.4c-0.9,0.7-2.1,1.2-3.4,1.5S388.8,84.9,387.4,84.9z"/>
		<path class="st2" d="M404.8,48.8c-1.7,0-3.1-0.5-4.1-1.5c-1.1-1-1.6-2.2-1.6-3.6c0-1.4,0.5-2.6,1.6-3.6c1.1-1,2.5-1.5,4.1-1.5
			s3.1,0.5,4.2,1.4c1.1,0.9,1.6,2.1,1.6,3.5c0,1.5-0.5,2.8-1.6,3.7C407.9,48.3,406.5,48.8,404.8,48.8z M400.2,84.4V53.2h9.2v31.2
			H400.2z"/>
		<path class="st2" d="M433.2,84.9c-3.4,0-6.4-0.7-9-2.1c-2.6-1.4-4.7-3.3-6.2-5.7c-1.5-2.4-2.3-5.2-2.3-8.3c0-3.1,0.8-5.9,2.3-8.3
			c1.5-2.4,3.6-4.3,6.2-5.7c2.6-1.4,5.6-2.1,9-2.1c3.4,0,6.4,0.7,9,2.1c2.6,1.4,4.7,3.3,6.2,5.7c1.5,2.4,2.3,5.2,2.3,8.4
			c0,3.1-0.8,5.9-2.3,8.3c-1.5,2.4-3.6,4.3-6.2,5.7C439.6,84.2,436.6,84.9,433.2,84.9z M433.2,77.5c1.5,0,2.9-0.3,4.2-1
			c1.2-0.7,2.2-1.7,2.9-3c0.7-1.3,1.1-2.8,1.1-4.6c0-1.8-0.4-3.4-1.1-4.6c-0.7-1.3-1.7-2.3-2.9-3c-1.2-0.7-2.6-1-4.2-1
			c-1.5,0-2.9,0.3-4.1,1c-1.2,0.7-2.2,1.7-2.9,3c-0.7,1.3-1.1,2.8-1.1,4.6c0,1.8,0.4,3.3,1.1,4.6c0.7,1.3,1.7,2.3,2.9,3
			C430.3,77.1,431.7,77.5,433.2,77.5z"/>
		<path class="st2" d="M476.2,52.7c2.5,0,4.8,0.5,6.8,1.5c2,1,3.6,2.5,4.7,4.5c1.1,2,1.7,4.6,1.7,7.8v17.9h-9.2V67.9
			c0-2.5-0.6-4.4-1.7-5.6c-1.1-1.2-2.7-1.8-4.8-1.8c-1.5,0-2.8,0.3-3.9,0.9c-1.2,0.6-2.1,1.5-2.7,2.8c-0.7,1.2-1,2.8-1,4.8v15.4
			h-9.2V53.2h8.8v8.7l-1.7-2.6c1.1-2.1,2.8-3.7,4.9-4.8C471.1,53.3,473.5,52.7,476.2,52.7z"/>
	</g>
</g>
</svg>
