<?xml version="1.0" encoding="utf-8"?>
<!-- Generator: Adobe Illustrator 27.1.1, SVG Export Plug-In . SVG Version: 6.00 Build 0)  -->
<svg version="1.1" id="Layer_1" xmlns="http://www.w3.org/2000/svg" xmlns:xlink="http://www.w3.org/1999/xlink" x="0px" y="0px"
	 viewBox="0 0 562.6 145.8" style="enable-background:new 0 0 562.6 145.8;" xml:space="preserve">
<style type="text/css">
	.st0{fill:#1B1B1D;}
	.st1{fill-rule:evenodd;clip-rule:evenodd;fill:#1B1B1D;}
	.st2{fill:#5928B1;}
	.st3{fill:#764BC4;}
	.st4{fill:#BBA5E1;}
</style>
<g>
	<g>
		<path class="st0" d="M562.6,30.4v75.4c0,11.9-7.3,22.1-17.7,26.5c-1,0.4-2.2-0.4-2.2-1.5c0-0.2,0-0.3,0-0.4
			c-2.1-12.3-17.1-17.6-30.6-17c-9.1,0.4-19.1,4-24.6,10c-0.6,0.7-1.6,0.7-2.3,0.1c-4.7-4.5-12.4-7.1-19.6-7.3
			c-8.3-0.2-17.6,2.6-22.4,8.2c-0.6,0.7-1.6,0.8-2.3,0.2c-3.5-2.9-8.6-4.7-13.4-4.9c-12.5-0.6-19.7,7.3-19.5,12.9c0,0.1,0,0.2,0,0.3
			c0,0.9-0.7,1.6-1.6,1.6h-376C13.7,134.5,0,120.9,0,104.2V30.4C0,13.7,13.7,0,30.4,0h501.8C548.9,0,562.6,13.7,562.6,30.4z"/>
		<g>
			<path class="st1" d="M533.5,132.3c0.3,7-8.5,13-19.5,13.4c-11.1,0.5-20.3-4.8-20.6-11.8c-0.3-8,10.3-13,19.5-13.4
				C522.1,120.2,533.2,124.3,533.5,132.3z"/>
			<path class="st1" d="M481.1,133.5c-0.3,5.7-7.9,10.2-17,10c-9.1-0.2-16.2-5-15.9-10.7c0.4-6.6,9.4-10.1,17-10
				C473,123,481.5,127,481.1,133.5z"/>
			<path class="st1" d="M439.2,133.7c-0.3,4.3-6.2,7.7-13,7.4c-6.8-0.2-12.1-3.9-11.9-8.2c-0.1-3.2,4.7-7.8,13-7.6
				C433.1,125.6,439.6,128.7,439.2,133.7z"/>
		</g>
	</g>
	<g>
		<path class="st2" d="M160.3,39c-8.3,2.4-20.5,7.3-31.6,17.4c-11.2,10.6-3.6,20-3.5,20.1c0,0-4.1-7.6,5.8-16.9
			c0.1-0.1,12.8-11.1,31.3-16.3c2.4-0.7,4.7-1.2,7.1-1.7l0.2,0l3-4.8l-0.7,0.1C171.7,36.8,167.1,37.1,160.3,39z"/>
		<path class="st3" d="M173,25.5c-1.9-1.6-3.8-2.9-3.8-2.9l-0.1-0.1l-0.1,0c-0.1,0-5.2,0.6-12.2,2.6c-12.6,3.6-29.6,11-38.8,25.7
			c-4.4,6.7-0.9,14.7-0.9,14.7l-0.1-2c0-0.2-0.6-21.8,43.6-34.4c3.9-1.1,8-2.1,12.3-3l0.8-0.2L173,25.5z"/>
		<path class="st3" d="M175.7,28.3c-0.1,0-5.9,0.6-14,2.9c-8.6,2.4-21,7.2-31.8,15.9c-6.4,4.9-10.4,10.9-11,16.3
			c-0.3,2.7,2.8,8.3,2.8,8.3l-0.7-2c0-0.1-2.8-9.2,11.3-19.8c7.9-5.9,16.1-10,25.9-12.8c5-1.4,9.9-2.4,15.2-3.4l0.2,0l0.1-0.2
			c0.4-0.9,2.3-4.7,2.3-4.7l0.3-0.6L175.7,28.3z"/>
		<path class="st4" d="M113.9,56.1c0.5-8.6,7-16.5,19.3-23.5c6.5-4,13.7-7.2,21.5-9.4c6.6-1.9,12.2-2.4,12.2-2.4l-4.5-3.2
			c0,0-4.2,0.5-10.1,2.2c-37.9,10.8-42.6,29.4-42.2,36.9c0.7,13,16.1,22.3,16.1,22.3S113.1,68.8,113.9,56.1z"/>
		<path class="st2" d="M114.4,95.5c8.3-2.4,20.5-7.3,31.6-17.4c11.2-10.6,3.6-20,3.5-20.1c0,0,4.1,7.6-5.8,16.9
			c-0.1,0.1-12.8,11.1-31.3,16.3c-2.4,0.7-4.7,1.2-7.1,1.7l-0.2,0l-3,4.8l0.7-0.1C103,97.8,107.6,97.4,114.4,95.5z"/>
		<path class="st3" d="M101.7,109c1.9,1.6,3.8,2.9,3.8,2.9l0.1,0.1l0.1,0c0.1,0,5.2-0.6,12.2-2.6c12.6-3.6,29.6-11,38.8-25.7
			c4.4-6.7,0.9-14.7,0.9-14.7l0.1,2c0,0.2,0.6,21.8-43.6,34.4c-3.9,1.1-8,2.1-12.3,3l-0.8,0.2L101.7,109z"/>
		<path class="st3" d="M99,106.2c0.1,0,5.9-0.6,14-2.9c8.6-2.4,21-7.2,31.8-15.9c6.4-4.9,10.4-10.9,11-16.3c0.3-2.7-2.8-8.3-2.8-8.3
			l0.7,2c0,0.1,2.8,9.2-11.3,19.8c-7.9,5.9-16.1,10-25.9,12.8c-5,1.4-9.9,2.4-15.2,3.4l-0.2,0L101,101c-0.4,0.9-2.3,4.7-2.3,4.7
			l-0.3,0.6L99,106.2z"/>
		<path class="st4" d="M160.8,78.5c-0.5,8.6-7,16.5-19.3,23.5c-6.5,4-13.7,7.2-21.5,9.4c-6.6,1.9-12.2,2.4-12.2,2.4l4.5,3.2
			c0,0,4.2-0.5,10.1-2.2c37.9-10.8,42.6-29.4,42.2-36.9c-0.7-13-16.1-22.3-16.1-22.3S161.6,65.7,160.8,78.5z"/>
		<path class="st2" d="M241.6,77.2c0,1.6-0.2,3-0.6,4.3c-0.4,1.3-0.9,2.4-1.6,3.3c-0.7,1-1.4,1.8-2.3,2.5c-0.9,0.7-1.8,1.2-2.7,1.7
			c-1,0.4-1.9,0.7-2.9,1c-1,0.2-1.9,0.3-2.8,0.3h-31.1v-8h31.1c1.6,0,2.8-0.5,3.6-1.4c0.9-0.9,1.3-2.1,1.3-3.6c0-0.7-0.1-1.4-0.3-2
			c-0.2-0.6-0.5-1.1-1-1.6c-0.4-0.4-0.9-0.8-1.6-1c-0.6-0.2-1.3-0.4-2-0.4h-18.5c-1.3,0-2.7-0.2-4.2-0.7c-1.5-0.5-2.9-1.2-4.2-2.2
			c-1.3-1-2.4-2.4-3.2-4c-0.9-1.7-1.3-3.7-1.3-6.1s0.4-4.4,1.3-6.1c0.9-1.7,1.9-3,3.2-4c1.3-1,2.7-1.8,4.2-2.2
			c1.5-0.5,2.9-0.7,4.2-0.7h27.4v8h-27.4c-1.5,0-2.7,0.5-3.6,1.4c-0.9,0.9-1.3,2.1-1.3,3.7c0,1.5,0.4,2.8,1.3,3.7
			c0.9,0.9,2,1.3,3.6,1.3h18.5h0.1c0.9,0,1.8,0.1,2.7,0.4c1,0.2,1.9,0.6,2.9,1c1,0.4,1.9,1,2.7,1.7c0.9,0.7,1.6,1.5,2.3,2.5
			c0.7,1,1.2,2.1,1.6,3.3C241.4,74.2,241.6,75.7,241.6,77.2z M256.4,46v18.1h28.3V46h8v44.2h-8V72.2h-28.3v18.1h-8V46L256.4,46z
			 M310.3,46v44.2h-8.1V46L310.3,46z M364,64.5v7.2c0,2.7-0.5,5.2-1.4,7.4c-0.9,2.3-2.2,4.2-3.9,5.8c-1.6,1.6-3.6,2.9-5.9,3.8
			c-2.3,0.9-4.7,1.4-7.4,1.4h-21.7c-0.6,0-1.1-0.1-1.6-0.3c-0.5-0.2-0.9-0.5-1.3-0.9c-0.4-0.4-0.6-0.8-0.8-1.3
			c-0.2-0.5-0.3-1-0.3-1.6V50.1c0-0.6,0.1-1.1,0.3-1.6c0.2-0.5,0.5-0.9,0.8-1.3c0.4-0.4,0.8-0.7,1.3-0.9c0.5-0.2,1-0.3,1.6-0.3h21.7
			c2.7,0,5.1,0.5,7.4,1.4c2.3,0.9,4.2,2.2,5.9,3.8c1.7,1.6,3,3.6,3.9,5.9C363.5,59.4,364,61.9,364,64.5z M355.9,71.8v-7.2
			c0-1.6-0.3-3-0.8-4.3c-0.5-1.3-1.2-2.4-2.2-3.3c-0.9-0.9-2-1.6-3.3-2.1c-1.3-0.5-2.7-0.8-4.3-0.8h-17.8v28.2h17.8
			c1.6,0,3-0.3,4.3-0.8c1.3-0.5,2.4-1.2,3.3-2.1c0.9-0.9,1.7-2,2.2-3.3C355.7,74.8,355.9,73.3,355.9,71.8z M408.4,64.1v8.1H383v-8.1
			H408.4z M412,82.2v8H383c-1.1,0-2.3-0.2-3.7-0.6c-1.3-0.4-2.5-1-3.7-1.9c-1.1-0.9-2.1-2.1-2.8-3.5c-0.7-1.4-1.1-3.2-1.1-5.2V50.1
			c0-0.6,0.1-1.1,0.3-1.6c0.2-0.5,0.5-0.9,0.9-1.3c0.4-0.4,0.8-0.7,1.3-0.9c0.5-0.2,1-0.3,1.6-0.3H412v8h-32.3v25
			c0,1,0.3,1.8,0.8,2.4c0.6,0.6,1.4,0.8,2.5,0.8H412z M464.2,46v40.8c0,0.6-0.1,1.1-0.3,1.6c-0.2,0.5-0.5,0.9-0.9,1.3
			c-0.4,0.4-0.8,0.6-1.3,0.8c-0.5,0.2-1,0.3-1.6,0.3c-0.5,0-1-0.1-1.5-0.3c-0.5-0.2-1-0.5-1.3-0.9l-29.4-30.6v31.1h-8V49.5
			c0-0.8,0.2-1.6,0.7-2.2c0.5-0.7,1.1-1.2,1.8-1.5c0.8-0.3,1.5-0.4,2.4-0.2c0.8,0.2,1.5,0.5,2.1,1.1l29.4,30.5V46L464.2,46z"/>
	</g>
</g>
</svg>
