<?xml version="1.0" encoding="UTF-8"?>
<svg width="180px" height="50px" viewBox="0 0 180 50" version="1.1" xmlns="http://www.w3.org/2000/svg" xmlns:xlink="http://www.w3.org/1999/xlink">
    <!-- Generator: Sketch 52.6 (67491) - http://www.bohemiancoding.com/sketch -->
    <title>ternoa</title>
    <desc>Created with Sketch.</desc>
    <g id="ternoa" stroke="none" stroke-width="1" fill="none" fill-rule="evenodd">
        <g id="ternoa-white-horizontal" transform="translate(13.000000, 3.000000)" fill="#FFFFFF">
            <path d="M67.1456,32.1195 C66.0348,32.1195 65.0765,31.8979 64.2707,31.4548 C63.4649,31.0117 62.855,30.3692 62.4195,29.5273 C61.9838,28.6854 61.7661,27.644 61.7661,26.4255 L61.7661,18.7818 L59,18.7818 L59,15.2813 L61.7442,15.2813 L61.7442,11 L66.0131,11 L66.0131,15.2813 L70.4125,15.2813 L70.4125,18.7818 L66.0131,18.7818 L66.0131,25.8937 C66.0131,26.6692 66.1655,27.2896 66.4922,27.7106 C66.8189,28.1315 67.3199,28.353 67.995,28.353 C68.3435,28.353 68.7137,28.3087 69.1057,28.1979 C69.4978,28.0873 69.8898,27.9543 70.2384,27.7991 L71.0007,31.056 C70.4778,31.3661 69.8898,31.632 69.2364,31.8315 C68.583,32.0087 67.8862,32.1195 67.1456,32.1195 Z" id="Path"></path>
            <path d="M80.8234,32.1193 C79.6254,32.1193 78.5146,31.8978 77.5128,31.4769 C76.5109,31.0558 75.6397,30.4577 74.8993,29.6822 C74.1587,28.9068 73.5924,27.9984 73.2004,26.9128 C72.7866,25.8493 72.5906,24.6751 72.5906,23.4344 C72.5906,22.2158 72.7866,21.0858 73.2004,20.0225 C73.6143,18.959 74.1806,18.0505 74.8993,17.2752 C75.618,16.4997 76.4674,15.9015 77.4475,15.4583 C78.4276,15.0153 79.473,14.8159 80.6273,14.8159 C81.8034,14.8159 82.8706,15.0153 83.8507,15.4362 C84.809,15.8571 85.6367,16.4332 86.3335,17.2086 C87.0305,17.9841 87.5532,18.8924 87.9235,19.9338 C88.2938,20.9973 88.4898,22.1714 88.4898,23.4787 L88.4898,24.5422 L76.9465,24.5422 C77.1208,25.7607 77.5563,26.7134 78.2533,27.4002 C78.9503,28.0871 79.8214,28.4415 80.8668,28.4415 C81.6074,28.4415 82.2608,28.2643 82.8706,27.9097 C83.4805,27.5553 83.9596,27.0457 84.3516,26.381 L88.1631,27.6217 C87.7928,28.5523 87.2483,29.3499 86.5078,30.0146 C85.7673,30.6793 84.9179,31.1887 83.9379,31.5433 C82.9576,31.9421 81.9341,32.1193 80.8234,32.1193 Z M80.6055,18.1613 C79.669,18.1613 78.8849,18.4715 78.2533,19.0919 C77.6216,19.7122 77.1861,20.5542 76.9901,21.6398 L84.0903,21.6398 C83.9379,20.5542 83.5458,19.7122 82.9142,19.0919 C82.3043,18.4715 81.5202,18.1613 80.6055,18.1613 Z" id="Shape" fill-rule="nonzero"></path>
            <path d="M91.1249,31.6545 L91.1249,15.2815 L95.0671,15.2815 L95.2195,17.7629 C95.6332,16.8989 96.1778,16.2342 96.8747,15.7688 C97.5716,15.3036 98.3776,15.082 99.3141,15.082 C99.5971,15.082 99.8804,15.1043 100.163,15.1486 C100.447,15.1928 100.708,15.2594 100.926,15.3479 L100.468,19.624 C100.251,19.5354 100.011,19.4911 99.7932,19.4467 C99.5537,19.4245 99.3141,19.4024 99.0744,19.4024 C97.8983,19.4024 96.9836,19.7791 96.3519,20.5102 C95.7204,21.2413 95.4155,22.2826 95.4155,23.6341 L95.4155,31.6545 L91.1249,31.6545 Z" id="Path"></path>
            <path d="M103.234,31.6541 L103.234,15.2811 L107.177,15.2811 L107.307,17.3858 C107.765,16.6105 108.418,15.9679 109.246,15.5027 C110.073,15.0374 111.01,14.8159 112.055,14.8159 C113.231,14.8159 114.255,15.1039 115.148,15.6578 C116.041,16.2338 116.716,17.0314 117.195,18.0949 C117.674,19.1583 117.936,20.399 117.936,21.817 L117.936,31.6541 L113.667,31.6541 L113.667,22.3709 C113.667,21.241 113.406,20.3326 112.905,19.69 C112.404,19.0476 111.685,18.7152 110.792,18.7152 C110.139,18.7152 109.572,18.8703 109.093,19.1583 C108.614,19.4686 108.222,19.8674 107.939,20.4213 C107.656,20.953 107.503,21.5733 107.503,22.2601 L107.503,31.6541 L103.234,31.6541 Z" id="Path"></path>
            <path d="M129.087,32.1193 C127.889,32.1193 126.778,31.8978 125.755,31.4769 C124.731,31.0337 123.86,30.4355 123.098,29.66 C122.335,28.8847 121.769,27.9763 121.355,26.9128 C120.941,25.8493 120.724,24.7194 120.724,23.4787 C120.724,22.238 120.941,21.0858 121.355,20.0446 C121.791,19.0032 122.379,18.0949 123.141,17.2973 C123.903,16.5218 124.796,15.9015 125.82,15.4583 C126.844,15.0153 127.976,14.8159 129.196,14.8159 C130.394,14.8159 131.505,15.0374 132.528,15.4583 C133.552,15.9015 134.423,16.4997 135.185,17.2752 C135.948,18.0505 136.514,18.959 136.928,20.0003 C137.341,21.0415 137.559,22.1937 137.559,23.4344 C137.559,24.6751 137.341,25.8271 136.928,26.8685 C136.492,27.932 135.904,28.8403 135.142,29.6379 C134.38,30.4134 133.486,31.0337 132.463,31.4769 C131.417,31.8978 130.307,32.1193 129.087,32.1193 Z M129.131,28.22 C129.893,28.22 130.59,28.0205 131.2,27.5996 C131.809,27.1786 132.289,26.6248 132.637,25.9158 C132.986,25.2069 133.16,24.3871 133.16,23.4787 C133.16,22.5702 132.986,21.7505 132.637,21.0415 C132.289,20.3326 131.809,19.7566 131.2,19.3578 C130.59,18.9368 129.893,18.7373 129.131,18.7373 C128.368,18.7373 127.671,18.9368 127.061,19.3578 C126.452,19.7787 125.973,20.3326 125.624,21.0415 C125.276,21.7505 125.101,22.5702 125.101,23.4787 C125.101,24.3871 125.276,25.2069 125.624,25.9158 C125.973,26.6248 126.452,27.2008 127.061,27.5996 C127.671,27.9984 128.368,28.22 129.131,28.22 Z" id="Shape" fill-rule="nonzero"></path>
            <path d="M145.335,32.1196 C144.507,32.1196 143.745,31.9867 143.048,31.7429 C142.351,31.4993 141.763,31.1448 141.24,30.6796 C140.717,30.2142 140.325,29.6825 140.042,29.0622 C139.759,28.4418 139.607,27.755 139.607,27.0239 C139.607,25.9825 139.89,25.0742 140.434,24.2988 C140.979,23.5233 141.763,22.903 142.743,22.4598 C143.745,22.0167 144.899,21.7952 146.227,21.7952 C146.903,21.7952 147.535,21.8616 148.123,21.9724 C148.732,22.1054 149.299,22.2826 149.864,22.5042 L149.864,21.5515 C149.864,20.6209 149.603,19.8676 149.08,19.2916 C148.558,18.7155 147.862,18.4275 146.968,18.4275 C146.293,18.4275 145.683,18.6047 145.139,18.9372 C144.594,19.2694 144.202,19.7569 143.984,20.3772 L140.173,19.6018 C140.391,18.6491 140.848,17.8294 141.501,17.0982 C142.155,16.3892 142.961,15.8353 143.919,15.4365 C144.877,15.0377 145.901,14.8384 147.033,14.8384 C148.079,14.8384 149.015,14.9934 149.864,15.3257 C150.714,15.6581 151.455,16.1233 152.065,16.7438 C152.674,17.364 153.154,18.0953 153.502,18.9372 C153.829,19.779 154.003,20.7096 154.003,21.7508 L154.003,31.6765 L150.191,31.6765 L150.06,29.749 C149.626,30.458 149.015,31.034 148.21,31.4771 C147.404,31.898 146.445,32.1196 145.335,32.1196 Z M143.81,26.7802 C143.81,27.3562 144.05,27.8437 144.507,28.1981 C144.964,28.5747 145.596,28.7519 146.358,28.7519 C147.033,28.7519 147.622,28.5969 148.166,28.3089 C148.688,28.0209 149.103,27.622 149.407,27.1124 C149.712,26.603 149.864,26.0491 149.864,25.4286 L149.864,25.2736 C149.407,25.0964 148.95,24.9413 148.427,24.8305 C147.927,24.7197 147.404,24.6532 146.903,24.6532 C145.944,24.6532 145.182,24.8526 144.638,25.2293 C144.071,25.6281 143.81,26.1376 143.81,26.7802 Z" id="Shape" fill-rule="nonzero"></path>
            <path d="M22.33,2.68845e-06 C17.4543,-0.00241668 12.712,1.62814 8.82798,4.64249 C4.94389,7.65683 2.13171,11.8891 0.821271,16.6924 C-0.489167,21.4956 -0.225772,26.6057 1.57121,31.2414 C3.36817,35.8771 6.59987,39.7835 10.7723,42.3634 C11.6214,42.8905 12.5957,43.1691 13.5889,43.169 L13.6617,43.169 C14.3874,43.173 15.1067,43.0298 15.778,42.7477 C16.4491,42.4655 17.059,42.0501 17.5722,41.5251 C18.0853,41.0003 18.4917,40.3766 18.7675,39.69 C19.0433,39.0034 19.1834,38.2678 19.1794,37.5254 L19.1794,27.1273 C19.1783,27.0696 19.1554,27.0146 19.1155,26.9738 C19.0756,26.933 19.0218,26.9096 18.9654,26.9084 L15.6094,26.9084 C15.1872,26.9243 14.7664,26.8532 14.3719,26.699 C13.9773,26.5446 13.6172,26.3107 13.3131,26.0108 C13.009,25.7111 12.7671,25.3516 12.6019,24.9541 C12.4366,24.5565 12.3515,24.129 12.3515,23.6969 C12.3515,23.265 12.4366,22.8374 12.6019,22.4399 C12.7671,22.0422 13.009,21.6829 13.3131,21.3831 C13.6172,21.0833 13.9773,20.8493 14.3719,20.6951 C14.7664,20.5409 15.1872,20.4697 15.6094,20.4856 L29.0292,20.4856 C29.4512,20.4697 29.872,20.5409 30.2666,20.6951 C30.6612,20.8493 31.0213,21.0833 31.3254,21.3831 C31.6295,21.6829 31.8714,22.0422 32.0366,22.4399 C32.2019,22.8374 32.287,23.265 32.287,23.6969 C32.287,24.129 32.2019,24.5565 32.0366,24.9541 C31.8714,25.3516 31.6295,25.7111 31.3254,26.0108 C31.0213,26.3107 30.6612,26.5446 30.2666,26.699 C29.872,26.8532 29.4512,26.9243 29.0292,26.9084 L25.6817,26.9084 C25.6252,26.9096 25.5715,26.933 25.5316,26.9738 C25.4917,27.0146 25.4688,27.0696 25.4677,27.1273 L25.4677,37.5254 C25.4778,39.0229 26.0644,40.456 27.1004,41.514 C28.1365,42.572 29.5384,43.1697 31.0025,43.1778 L31.0753,43.1778 C32.0701,43.1771 33.0454,42.8937 33.8919,42.3591 C38.0581,39.7765 41.2838,35.8706 43.0767,31.2375 C44.8695,26.6045 45.131,21.4986 43.8212,16.6993 C42.5115,11.9001 39.7024,7.67092 35.8228,4.65728 C31.9431,1.64366 27.206,0.0110867 22.3343,0.00876763 L22.33,2.68845e-06 Z M6.49169,27.3463 C5.78524,27.347 5.09441,27.1335 4.50666,26.7327 C3.91892,26.3318 3.46068,25.7616 3.18994,25.0942 C2.9192,24.4267 2.84815,23.6922 2.98576,22.9835 C3.12338,22.2749 3.46348,21.6238 3.96302,21.1128 C4.46256,20.6019 5.09906,20.2542 5.79197,20.1134 C6.48488,19.9727 7.20305,20.0453 7.85557,20.3222 C8.50809,20.599 9.06561,21.0679 9.45757,21.6689 C9.84951,22.2701 10.0583,22.9766 10.0574,23.6991 C10.0552,24.6627 9.68115,25.5864 9.01663,26.2693 C8.35211,26.9522 7.45083,27.3393 6.5088,27.3463 L6.49169,27.3463 Z M22.33,16.4796 C21.2343,16.4804 20.1629,16.1489 19.2514,15.5269 C18.34,14.9049 17.6293,14.0204 17.2095,12.9852 C16.7896,11.9501 16.6792,10.8108 16.8924,9.71157 C17.1058,8.6123 17.6329,7.60243 18.4074,6.80966 C19.1818,6.01692 20.1689,5.47691 21.2435,5.25796 C22.3181,5.039 23.432,5.15092 24.4444,5.57958 C25.4567,6.00825 26.3222,6.73441 26.931,7.66618 C27.5398,8.59794 27.8647,9.69343 27.8647,10.8141 C27.8558,12.3123 27.2696,13.7464 26.2336,14.8053 C25.1974,15.8644 23.7947,16.4628 22.33,16.4707 L22.33,16.4796 Z M38.104,27.3463 C37.3978,27.3463 36.7073,27.1319 36.1201,26.7305 C35.5331,26.3291 35.0754,25.7586 34.8054,25.0911 C34.5352,24.4237 34.4648,23.6893 34.6028,22.9809 C34.741,22.2724 35.0814,21.6219 35.5812,21.1114 C36.0809,20.6009 36.7174,20.2535 37.4101,20.113 C38.103,19.9727 38.8209,20.0456 39.4731,20.3226 C40.1255,20.5996 40.6827,21.0683 41.0745,21.6693 C41.4662,22.2704 41.6749,22.9769 41.674,23.6991 C41.6717,24.6664 41.2948,25.5935 40.6256,26.277 C39.9565,26.9606 39.0498,27.3451 38.104,27.3463 Z" id="Shape" fill-rule="nonzero"></path>
        </g>
    </g>
</svg>