<?xml version="1.0" encoding="utf-8"?>
<!-- Generator: Adobe Illustrator 27.1.1, SVG Export Plug-In . SVG Version: 6.00 Build 0)  -->
<svg version="1.1" id="Layer_1" xmlns="http://www.w3.org/2000/svg" xmlns:xlink="http://www.w3.org/1999/xlink" x="0px" y="0px"
	 viewBox="0 0 562.6 145.8" style="enable-background:new 0 0 562.6 145.8;" xml:space="preserve">
<style type="text/css">
	.st0{fill:#1B1B1D;}
	.st1{fill-rule:evenodd;clip-rule:evenodd;fill:#1B1B1D;}
	.st2{fill:#E6007A;}
	.st3{fill:#FFFFFF;}
</style>
<g>
	<g>
		<path class="st0" d="M562.6,30.4v75.4c0,11.9-7.3,22.1-17.7,26.5c-1,0.4-2.2-0.4-2.2-1.5c0-0.2,0-0.3,0-0.4
			c-2.1-12.3-17.1-17.6-30.6-17c-9.1,0.4-19.1,4-24.6,10c-0.6,0.7-1.6,0.7-2.3,0.1c-4.7-4.5-12.4-7.1-19.6-7.3
			c-8.3-0.2-17.6,2.6-22.4,8.2c-0.6,0.7-1.6,0.8-2.3,0.2c-3.5-2.9-8.6-4.7-13.4-4.9c-12.5-0.6-19.7,7.3-19.5,12.9c0,0.1,0,0.2,0,0.3
			c0,0.9-0.7,1.6-1.6,1.6h-376C13.7,134.5,0,120.9,0,104.2V30.4C0,13.7,13.7,0,30.4,0h501.8C548.9,0,562.6,13.7,562.6,30.4z"/>
		<g>
			<path class="st1" d="M533.5,132.3c0.3,7-8.5,13-19.5,13.4c-11.1,0.5-20.3-4.8-20.6-11.8c-0.3-8,10.3-13,19.5-13.4
				C522.1,120.2,533.2,124.3,533.5,132.3z"/>
			<path class="st1" d="M481.1,133.5c-0.3,5.7-7.9,10.2-17,10c-9.1-0.2-16.2-5-15.9-10.7c0.4-6.6,9.4-10.1,17-10
				C473,123,481.5,127,481.1,133.5z"/>
			<path class="st1" d="M439.2,133.7c-0.3,4.3-6.2,7.7-13,7.4c-6.8-0.2-12.1-3.9-11.9-8.2c-0.1-3.2,4.7-7.8,13-7.6
				C433.1,125.6,439.6,128.7,439.2,133.7z"/>
		</g>
	</g>
	<g>
		<ellipse class="st2" cx="122.8" cy="30.5" rx="16.8" ry="9.8"/>
		<ellipse class="st2" cx="122.8" cy="104.1" rx="16.8" ry="9.8"/>
		<ellipse transform="matrix(0.5 -0.866 0.866 0.5 3.1309 103.1746)" class="st2" cx="90.9" cy="48.9" rx="16.8" ry="9.8"/>
		<ellipse transform="matrix(0.5 -0.866 0.866 0.5 3.1307 176.7638)" class="st2" cx="154.6" cy="85.7" rx="16.8" ry="9.8"/>
		<ellipse transform="matrix(0.866 -0.5 0.5 0.866 -30.6516 56.9414)" class="st2" cx="90.9" cy="85.7" rx="9.8" ry="16.8"/>
		<ellipse transform="matrix(0.866 -0.5 0.5 0.866 -3.7186 83.8792)" class="st2" cx="154.7" cy="48.9" rx="9.8" ry="16.8"/>
		<g>
			<path class="st3" d="M192.5,81.7h10.2v-23h-10.2v-9.1h18.6l1.2,5.4h0.3c1.5-1.8,3.3-3.3,5.3-4.5c2-1.2,4.3-1.8,6.9-1.8
				c3.3,0,5.9,1.2,7.8,3.6c1.9,2.4,2.9,6.5,2.9,12.1h-9.6c0-2-0.3-3.4-0.9-4.3c-0.6-0.9-1.5-1.4-2.8-1.4c-2.2,0-4,0.5-5.3,1.7
				c-1.3,1.1-2.5,2.4-3.4,3.8v17.5h17.9v9.1h-38.9L192.5,81.7L192.5,81.7z"/>
			<path class="st3" d="M241.7,70.2c0-3.5,0.5-6.6,1.6-9.3c1-2.7,2.5-5,4.5-6.9c1.9-1.9,4.2-3.3,6.9-4.3c2.7-1,5.7-1.4,9-1.4
				c3.5,0,6.6,0.5,9.3,1.6s5,2.5,6.9,4.4c1.9,1.9,3.3,4.2,4.3,6.9s1.4,5.7,1.4,8.9c0,3.5-0.5,6.6-1.6,9.3c-1,2.7-2.5,5-4.5,6.9
				s-4.2,3.3-6.9,4.3c-2.7,1-5.7,1.4-9,1.4c-3.5,0-6.6-0.5-9.3-1.6c-2.7-1-5-2.5-6.9-4.4c-1.9-1.9-3.3-4.2-4.3-6.9
				C242.1,76.4,241.7,73.4,241.7,70.2z M252.8,70.2c0,1.8,0.2,3.5,0.7,5c0.5,1.5,1.2,2.9,2.1,4c0.9,1.2,2.1,2,3.4,2.7
				c1.3,0.6,2.8,1,4.5,1c3.2,0,5.8-1,7.8-3.1c2-2,3-5.3,3-9.7c0-3.8-0.9-6.9-2.8-9.2c-1.9-2.3-4.5-3.5-8-3.5c-1.5,0-3,0.2-4.3,0.7
				c-1.3,0.5-2.5,1.2-3.4,2.3c-1,1-1.7,2.4-2.3,4C253,66,252.8,67.9,252.8,70.2z"/>
			<path class="st3" d="M333.4,86.9c-2.3,1.7-4.9,3-7.9,3.8S319.3,92,316,92c-3.6,0-6.8-0.5-9.5-1.6c-2.8-1-5.1-2.5-7-4.4
				c-1.9-1.9-3.3-4.2-4.3-6.9c-1-2.7-1.5-5.7-1.5-8.9c0-3.5,0.6-6.6,1.7-9.3c1.2-2.7,2.8-5,4.8-6.9c2.1-1.9,4.5-3.3,7.3-4.3
				c2.8-1,5.9-1.4,9.2-1.4c3.1,0,6,0.4,8.7,1.1c2.7,0.7,4.8,1.4,6.2,2.1V66h-9.1v-7.6c-1.7-0.4-3.4-0.6-5.1-0.6
				c-1.5,0-3.1,0.2-4.6,0.7c-1.5,0.5-2.9,1.2-4,2.2c-1.2,1-2.1,2.3-2.9,3.8c-0.7,1.5-1.1,3.4-1.1,5.5c0,1.8,0.3,3.4,0.9,4.9
				c0.6,1.5,1.5,2.8,2.6,3.9c1.1,1.1,2.5,2,4.1,2.6c1.6,0.6,3.4,1,5.4,1c3.1,0,5.7-0.4,7.7-1.3s3.5-1.7,4.5-2.3L333.4,86.9z"/>
			<path class="st3" d="M340.7,70.2c0-3.5,0.5-6.6,1.6-9.3c1-2.7,2.5-5,4.5-6.9c1.9-1.9,4.2-3.3,6.9-4.3c2.7-1,5.7-1.4,9-1.4
				c3.5,0,6.6,0.5,9.3,1.6s5,2.5,6.9,4.4c1.9,1.9,3.3,4.2,4.3,6.9s1.4,5.7,1.4,8.9c0,3.5-0.5,6.6-1.6,9.3c-1,2.7-2.5,5-4.5,6.9
				s-4.2,3.3-6.9,4.3c-2.7,1-5.7,1.4-9,1.4c-3.5,0-6.6-0.5-9.3-1.6c-2.7-1-5-2.5-6.9-4.4c-1.9-1.9-3.3-4.2-4.3-6.9
				C341.2,76.4,340.7,73.4,340.7,70.2z M351.8,70.2c0,1.8,0.2,3.5,0.7,5c0.5,1.5,1.2,2.9,2.1,4c0.9,1.2,2.1,2,3.4,2.7
				c1.3,0.6,2.8,1,4.5,1c3.2,0,5.8-1,7.8-3.1c2-2,3-5.3,3-9.7c0-3.8-0.9-6.9-2.8-9.2c-1.9-2.3-4.5-3.5-8-3.5c-1.5,0-3,0.2-4.3,0.7
				c-1.3,0.5-2.5,1.2-3.4,2.3c-1,1-1.7,2.4-2.3,4C352.1,66,351.8,67.9,351.8,70.2z"/>
			<path class="st3" d="M432.4,86.9c-2.3,1.7-4.9,3-7.9,3.8c-3,0.9-6.2,1.3-9.5,1.3c-3.6,0-6.8-0.5-9.5-1.6c-2.8-1-5.1-2.5-7-4.4
				c-1.9-1.9-3.3-4.2-4.3-6.9c-1-2.7-1.5-5.7-1.5-8.9c0-3.5,0.6-6.6,1.7-9.3c1.2-2.7,2.8-5,4.8-6.9c2.1-1.9,4.5-3.3,7.3-4.3
				c2.8-1,5.9-1.4,9.2-1.4c3.1,0,6,0.4,8.7,1.1c2.7,0.7,4.8,1.4,6.2,2.1V66h-9.1v-7.6c-1.7-0.4-3.4-0.6-5.1-0.6
				c-1.5,0-3.1,0.2-4.6,0.7c-1.5,0.5-2.9,1.2-4,2.2c-1.2,1-2.1,2.3-2.9,3.8s-1.1,3.4-1.1,5.5c0,1.8,0.3,3.4,0.9,4.9
				c0.6,1.5,1.5,2.8,2.6,3.9c1.1,1.1,2.5,2,4.1,2.6c1.6,0.6,3.4,1,5.4,1c3.1,0,5.7-0.4,7.7-1.3s3.5-1.7,4.5-2.3L432.4,86.9z"/>
			<path class="st3" d="M439.8,70.2c0-3.5,0.5-6.6,1.6-9.3c1-2.7,2.5-5,4.5-6.9c1.9-1.9,4.2-3.3,6.9-4.3c2.7-1,5.7-1.4,9-1.4
				c3.5,0,6.6,0.5,9.3,1.6c2.7,1,5,2.5,6.9,4.4c1.9,1.9,3.3,4.2,4.3,6.9s1.4,5.7,1.4,8.9c0,3.5-0.5,6.6-1.6,9.3
				c-1,2.7-2.5,5-4.5,6.9s-4.2,3.3-6.9,4.3c-2.7,1-5.7,1.4-9,1.4c-3.5,0-6.6-0.5-9.3-1.6c-2.7-1-5-2.5-6.9-4.4s-3.3-4.2-4.3-6.9
				C440.3,76.4,439.8,73.4,439.8,70.2z M450.9,70.2c0,1.8,0.2,3.5,0.7,5c0.5,1.5,1.2,2.9,2.1,4c0.9,1.2,2.1,2,3.4,2.7
				c1.3,0.6,2.8,1,4.5,1c3.2,0,5.8-1,7.8-3.1c2-2,3-5.3,3-9.7c0-3.8-0.9-6.9-2.8-9.2c-1.9-2.3-4.5-3.5-8-3.5c-1.5,0-3,0.2-4.3,0.7
				c-1.3,0.5-2.5,1.2-3.4,2.3c-1,1-1.7,2.4-2.3,4C451.1,66,450.9,67.9,450.9,70.2z"/>
		</g>
	</g>
</g>
</svg>
