<svg width="204" height="64" viewBox="0 0 204 64" fill="none" xmlns="http://www.w3.org/2000/svg">
<g clip-path="url(#clip0_1_75)">
<path fill-rule="evenodd" clip-rule="evenodd" d="M32 60C47.464 60 60 47.464 60 32C60 16.536 47.464 4 32 4C16.536 4 4 16.536 4 32C4 47.464 16.536 60 32 60ZM32 64C49.6731 64 64 49.6731 64 32C64 14.3269 49.6731 0 32 0C14.3269 0 0 14.3269 0 32C0 49.6731 14.3269 64 32 64Z" fill="#D6E4E3"/>
<path fill-rule="evenodd" clip-rule="evenodd" d="M10.9312 33.3736C15.0664 36.9129 21.4858 40.2513 29.2328 42.3271C36.9798 44.4029 44.2083 44.7215 49.5592 43.724C55.229 42.667 57.3855 40.4913 57.8078 38.9152C58.2302 37.3391 57.4504 34.3767 53.0686 30.6263C48.9334 27.087 42.514 23.7487 34.767 21.6729C27.0201 19.5971 19.7915 19.2785 14.4407 20.276C8.77079 21.333 6.61433 23.5087 6.192 25.0848C5.76968 26.6609 6.54941 29.6233 10.9312 33.3736ZM2.3283 24.0495C0.22829 31.8869 11.8103 41.7998 28.1975 46.1908C44.5847 50.5817 59.5715 47.7878 61.6715 39.9505C63.7715 32.1131 52.1895 22.2002 35.8023 17.8092C19.4151 13.4183 4.42831 16.2122 2.3283 24.0495Z" fill="#D6E4E3"/>
<path d="M46.1421 26.3432C43.799 28.6864 40 28.6864 37.6568 26.3432C35.3137 24.0001 35.3137 20.2011 37.6568 17.8579C40 15.5148 43.799 15.5148 46.1421 17.8579C48.4853 20.2011 48.4853 24.0001 46.1421 26.3432Z" fill="#D6E4E3"/>
<path d="M22.8076 44.0209C20.4644 46.364 16.6654 46.364 14.3223 44.0209C11.9792 41.6777 11.9792 37.8788 14.3223 35.5356C16.6654 33.1925 20.4644 33.1925 22.8076 35.5356C25.1507 37.8788 25.1507 41.6777 22.8076 44.0209Z" fill="#D6E4E3"/>
</g>
<path d="M192.513 47.4474C190.197 47.4474 188.193 46.9552 186.503 45.9709C184.822 44.9766 183.525 43.5944 182.61 41.8246C181.695 40.0447 181.238 37.9815 181.238 35.6349C181.238 33.2685 181.695 31.2003 182.61 29.4304C183.525 27.6506 184.822 26.2685 186.503 25.2841C188.193 24.2898 190.197 23.7926 192.513 23.7926C194.83 23.7926 196.829 24.2898 198.509 25.2841C200.199 26.2685 201.502 27.6506 202.417 29.4304C203.332 31.2003 203.789 33.2685 203.789 35.6349C203.789 37.9815 203.332 40.0447 202.417 41.8246C201.502 43.5944 200.199 44.9766 198.509 45.9709C196.829 46.9552 194.83 47.4474 192.513 47.4474ZM192.543 42.5256C193.597 42.5256 194.477 42.2273 195.183 41.6307C195.889 41.0241 196.421 40.1989 196.779 39.1548C197.147 38.1108 197.331 36.9226 197.331 35.5902C197.331 34.2578 197.147 33.0696 196.779 32.0256C196.421 30.9815 195.889 30.1562 195.183 29.5497C194.477 28.9432 193.597 28.6399 192.543 28.6399C191.479 28.6399 190.584 28.9432 189.859 29.5497C189.143 30.1562 188.601 30.9815 188.233 32.0256C187.875 33.0696 187.696 34.2578 187.696 35.5902C187.696 36.9226 187.875 38.1108 188.233 39.1548C188.601 40.1989 189.143 41.0241 189.859 41.6307C190.584 42.2273 191.479 42.5256 192.543 42.5256Z" fill="#D6E4E3"/>
<path d="M167.501 47.4474C165.145 47.4474 163.116 46.9702 161.416 46.0156C159.726 45.0511 158.423 43.6889 157.508 41.929C156.594 40.1591 156.136 38.066 156.136 35.6498C156.136 33.2933 156.594 31.2251 157.508 29.4453C158.423 27.6655 159.711 26.2784 161.371 25.2841C163.042 24.2898 165.001 23.7926 167.248 23.7926C168.759 23.7926 170.166 24.0362 171.469 24.5234C172.781 25.0007 173.925 25.7216 174.899 26.6861C175.883 27.6506 176.649 28.8636 177.196 30.3253C177.743 31.777 178.016 33.4773 178.016 35.4261V37.1712H158.672V33.2337H172.035C172.035 32.3189 171.836 31.5085 171.439 30.8025C171.041 30.0966 170.489 29.5447 169.783 29.147C169.087 28.7393 168.277 28.5355 167.352 28.5355C166.388 28.5355 165.533 28.7592 164.787 29.2067C164.051 29.6442 163.474 30.2358 163.057 30.9815C162.639 31.7173 162.425 32.5376 162.415 33.4425V37.1861C162.415 38.3196 162.624 39.299 163.042 40.1243C163.469 40.9496 164.071 41.5859 164.846 42.0334C165.622 42.4808 166.542 42.7045 167.606 42.7045C168.312 42.7045 168.958 42.6051 169.545 42.4062C170.131 42.2074 170.633 41.9091 171.051 41.5114C171.469 41.1136 171.787 40.6264 172.006 40.0497L177.882 40.4375C177.584 41.8494 176.972 43.0824 176.047 44.1364C175.133 45.1804 173.949 45.9957 172.498 46.5824C171.056 47.1591 169.39 47.4474 167.501 47.4474Z" fill="#D6E4E3"/>
<path d="M152.538 30.6236L146.721 30.9815C146.622 30.4844 146.408 30.0369 146.08 29.6392C145.752 29.2315 145.319 28.9084 144.782 28.6697C144.255 28.4212 143.624 28.2969 142.888 28.2969C141.904 28.2969 141.074 28.5057 140.397 28.9233C139.721 29.331 139.383 29.8778 139.383 30.5639C139.383 31.1108 139.602 31.5731 140.039 31.951C140.477 32.3288 141.228 32.6321 142.292 32.8608L146.438 33.696C148.665 34.1534 150.326 34.8892 151.419 35.9034C152.513 36.9176 153.06 38.25 153.06 39.9006C153.06 41.402 152.618 42.7194 151.733 43.853C150.858 44.9865 149.654 45.8714 148.123 46.5078C146.602 47.1342 144.847 47.4474 142.858 47.4474C139.826 47.4474 137.409 46.816 135.61 45.5533C133.82 44.2805 132.771 42.5504 132.463 40.3629L138.712 40.0348C138.901 40.9595 139.358 41.6655 140.084 42.1527C140.81 42.63 141.74 42.8686 142.873 42.8686C143.987 42.8686 144.882 42.6548 145.558 42.2273C146.244 41.7898 146.592 41.228 146.602 40.5419C146.592 39.9652 146.348 39.4929 145.871 39.125C145.394 38.7471 144.658 38.4588 143.664 38.2599L139.696 37.4694C137.459 37.022 135.794 36.2464 134.7 35.1427C133.616 34.0391 133.074 32.6321 133.074 30.9219C133.074 29.4503 133.472 28.1825 134.267 27.1186C135.073 26.0547 136.201 25.2344 137.653 24.6577C139.115 24.081 140.825 23.7926 142.784 23.7926C145.677 23.7926 147.954 24.4041 149.615 25.6271C151.285 26.8501 152.26 28.5156 152.538 30.6236Z" fill="#D6E4E3"/>
<path d="M115.646 47.4325C114.185 47.4325 112.882 47.179 111.739 46.6719C110.595 46.1548 109.69 45.3942 109.024 44.3899C108.368 43.3757 108.04 42.1129 108.04 40.6016C108.04 39.3288 108.273 38.2599 108.741 37.3949C109.208 36.5298 109.844 35.8338 110.65 35.3068C111.455 34.7798 112.37 34.3821 113.394 34.1136C114.428 33.8452 115.512 33.6562 116.646 33.5469C117.978 33.4077 119.052 33.2784 119.867 33.1591C120.683 33.0298 121.274 32.8409 121.642 32.5923C122.01 32.3437 122.194 31.9758 122.194 31.4886V31.3991C122.194 30.4545 121.896 29.7237 121.299 29.2067C120.712 28.6896 119.877 28.4311 118.793 28.4311C117.65 28.4311 116.74 28.6846 116.064 29.1917C115.388 29.6889 114.94 30.3153 114.722 31.071L108.845 30.5937C109.143 29.2017 109.73 27.9986 110.605 26.9844C111.48 25.9602 112.609 25.1747 113.991 24.6278C115.383 24.071 116.994 23.7926 118.823 23.7926C120.096 23.7926 121.314 23.9417 122.477 24.24C123.651 24.5383 124.69 25.0007 125.594 25.6271C126.509 26.2535 127.23 27.0589 127.757 28.0433C128.284 29.0177 128.548 30.1861 128.548 31.5483V47H122.522V43.8231H122.343C121.975 44.5391 121.483 45.1704 120.867 45.7173C120.25 46.2543 119.509 46.6768 118.644 46.9851C117.779 47.2834 116.78 47.4325 115.646 47.4325ZM117.466 43.0476C118.401 43.0476 119.226 42.8636 119.942 42.4957C120.658 42.1179 121.219 41.6108 121.627 40.9744C122.035 40.3381 122.239 39.6172 122.239 38.8118V36.3807C122.04 36.5099 121.766 36.6292 121.418 36.7386C121.08 36.8381 120.697 36.9325 120.27 37.022C119.842 37.1016 119.415 37.1761 118.987 37.2457C118.56 37.3054 118.172 37.3601 117.824 37.4098C117.078 37.5192 116.427 37.6932 115.87 37.9318C115.313 38.1704 114.881 38.4936 114.572 38.9013C114.264 39.299 114.11 39.7962 114.11 40.3927C114.11 41.2578 114.423 41.919 115.05 42.3764C115.686 42.8239 116.491 43.0476 117.466 43.0476Z" fill="#D6E4E3"/>
<path d="M82.6548 47V16.4545H94.706C97.0227 16.4545 98.9965 16.897 100.627 17.7819C102.258 18.6569 103.501 19.875 104.356 21.4361C105.221 22.9872 105.653 24.777 105.653 26.8054C105.653 28.8338 105.216 30.6236 104.341 32.1747C103.466 33.7258 102.198 34.9339 100.538 35.799C98.8871 36.664 96.8885 37.0966 94.5419 37.0966H86.8608V31.9211H93.4979C94.7408 31.9211 95.7649 31.7074 96.5703 31.2798C97.3857 30.8423 97.9922 30.2408 98.3899 29.4751C98.7976 28.6996 99.0014 27.8096 99.0014 26.8054C99.0014 25.7912 98.7976 24.9062 98.3899 24.1506C97.9922 23.3849 97.3857 22.7933 96.5703 22.3757C95.755 21.9481 94.7209 21.7344 93.4681 21.7344H89.1129V47H82.6548Z" fill="#D6E4E3"/>
<defs>
<clipPath id="clip0_1_75">
<rect width="64" height="64" fill="white"/>
</clipPath>
</defs>
</svg>
