<?xml version="1.0" encoding="UTF-8"?>
<svg width="180px" height="50px" viewBox="0 0 180 50" version="1.1" xmlns="http://www.w3.org/2000/svg" xmlns:xlink="http://www.w3.org/1999/xlink">
    <!-- Generator: Sketch 52.6 (67491) - http://www.bohemiancoding.com/sketch -->
    <title>yerba</title>
    <desc>Created with Sketch.</desc>
    <g id="yerba" stroke="none" stroke-width="1" fill="none" fill-rule="evenodd">
        <g id="Group" transform="translate(20.000000, 3.000000)">
            <path d="M5.25670732,19.0058824 L28.6434146,18.9132353 C28.6434146,18.9132353 37.577561,33.6485294 25.922561,40.2926471 C19.7995122,43.7823529 8.01365854,41.2455882 5.58609756,39.2647059 C3.15402439,37.2838235 -2.08463415,32.1617647 5.25670732,19.0102941 L5.25670732,19.0058824 Z" id="Path" fill="#A5503C"></path>
            <path d="M0.0992682927,34.0632353 C-0.843780488,22.4161765 8.1354878,13.8970588 5.6447561,19.4823529 C-0.0676829268,29.9911765 3.75865854,36.1941176 7.56695122,38.8102941 C11.7858537,41.7132353 38.3897561,43.3588235 27.9304878,19.5 L28.814878,18.4632353 C33.3180488,23.6691176 37.6993902,38.7352941 26.3196341,43.1779412 C16.5913415,46.9764706 0.925,44.6205882 0.0992682927,34.0632353 Z" id="Path" fill="#8A4B38"></path>
            <path d="M28.814878,18.4632353 C28.1064634,19.9191176 25.0562195,21.375 19.3753659,21.7279412 C15.0526829,21.9970588 7.24207317,21.3088235 5.64926829,19.4779412 C3.13146341,16.5882353 4.77841463,13.9147059 8.09487805,12.8514706 C10.7841463,12 15.309878,11.8323529 18.1435366,11.8808824 C21.3381707,11.9514706 22.9129268,12.2338235 22.9129268,12.2338235 C22.9129268,12.2338235 23.8108537,10.7911765 27.1995122,6.41029412 C27.6371951,6.64852941 27.8041463,7.14264706 28.2147561,7.40294118 C28.4313415,7.54411765 28.2373171,7.59264706 22.1368293,16.6102941 C21.992439,16.8220588 22.1593902,16.9632353 20.0296341,17.0117647 C19.6686585,16.8220588 19.957439,16.8 21.3607317,14.5985294 C22.015,13.5573529 23.0302439,13.275 16.835,13.2485294 C15.3820732,13.2485294 16.857561,12.3970588 15.4813415,12.3485294 C13.4959756,12.3 11.5106098,12.4897059 9.57487805,12.9397059 C7.85573171,13.3191176 7.92792683,13.6014706 8.09939024,14.1705882 C8.12195122,14.6426471 7.08414634,14.5985294 7.10670732,15.2338235 C7.15634146,17.625 26.4730488,17.6470588 26.594878,15.2338235 C26.617439,14.6426471 25.3856098,14.4529412 25.020122,14.0955882 C25.0923171,13.575 25.3810976,13.1955882 25.8413415,12.9352941 C29.1352439,14.2367647 29.7895122,16.4602941 28.8193902,18.45 L28.814878,18.4632353 Z" id="Path" fill="#CCD6DD"></path>
            <path d="M21.8660976,16.8661765 L28.0703659,7.53088235 C28.0703659,7.53088235 27.3258537,7.05 27.1679268,6.43676471 C27.0957317,5.25441176 27.5559756,4.61470588 27.5559756,4.61470588 L28.8103659,3.68823529 C29.7534146,3.52941176 30.547561,3.42352941 31.2018293,4.275 C31.2018293,4.275 31.3597561,4.61470588 35.6959756,2.32058824 C35.867439,2.22794118 36.6390244,1.70294118 36.860122,1.87058824 C35.9892683,2.93382353 31.427439,5.76617647 31.3868293,6.08382353 L29.184878,7.95441176 C23.8108537,15.7411765 23.9552439,16.05 23.2062195,16.7382353 L21.875122,16.8705882 L21.8660976,16.8661765 Z" id="Path" fill="#99AAB5"></path>
            <path d="M31.3868293,4.69411765 C31.3868293,4.69411765 31.0032927,3.66617647 29.830122,3.57794118 L33.8730488,0.357352941 C34.7935366,-0.423529412 36.5623171,0.855882353 36.8510976,1.87058824 C36.5352439,2.17941176 31.3868293,4.69411765 31.3868293,4.69411765 Z" id="Path" fill="#CCD6DD"></path>
            <path d="M27.5559756,4.61470588 C27.5334146,4.66323529 27.4837805,4.70735294 27.4612195,4.75588235 C27.4837805,4.70735294 27.5334146,4.66323529 27.5559756,4.61470588 Z" id="Path" fill="#99AAB5"></path>
            <path d="M29.275122,21.7279412 C29.0585366,21.3 28.837439,20.8985294 28.6434146,20.475 C28.86,20.9029412 29.0540244,21.3264706 29.275122,21.7279412 Z" id="Path" fill="#A4503C"></path>
            <path d="M7.63012195,17.6117647 C7.64817073,16.5705882 9.27256098,17.7794118 13.875,17.9382353 C23.657439,18.2779412 25.3314634,16.3102941 25.8368293,17.3294118 C27.0731707,19.8044118 7.5804878,20.2897059 7.63012195,17.6117647 Z" id="Path" fill="#FFFFFF"></path>
            <path d="M7.79707317,16.05 C7.70231707,14.2014706 21.2569512,13.9191176 21.3787805,14.7264706 C20.3184146,16.3367647 19.8987805,17.0470588 19.8987805,17.0470588 C19.8987805,17.0470588 18.9196341,17.1132353 17.9179268,17.1397059 C17.8953659,17.1397059 12.787561,17.5676471 7.79707317,16.05 Z" id="Path" fill="#77B255"></path>
            <path d="M16.1762195,13.0676471 C14.4796341,13.2088235 13.8885366,13.0897059 8.17609756,14.2014706 C7.63012195,13.7779412 7.72939024,13.2794118 8.55060976,13.0897059 C11.8309756,12.3352941 14.0960976,12.2382353 15.4993902,12.2117647 C16.2754878,12.2117647 16.2754878,12.5735294 16.1762195,13.0632353 L16.1762195,13.0676471 Z" id="Path" fill="#E1E8ED"></path>
            <path d="M24.2620732,15.2426471 C24.2620732,15.2426471 24.8215854,14.4352941 25.0652439,14.0558824 C25.4758537,14.2235294 25.8368293,14.4132353 26.2203659,14.625 C26.9242683,15.0264706 26.9964634,15.5470588 25.8819512,16.0235294 C25.2502439,15.8823529 24.7178049,15.5955882 24.2620732,15.2426471 Z" id="Path" fill="#677780"></path>
            <path d="M24.2620732,15.2426471 C24.7945122,15.5029412 25.3495122,15.7632353 25.8819512,16.0235294 C24.3613415,16.5308824 23.1926829,16.7338235 23.1926829,16.7338235 C23.1926829,16.7338235 23.5040244,16.3058824 24.257561,15.2426471 L24.2620732,15.2426471 Z" id="Path" fill="#78B158"></path>
            <path d="M13.342561,17.0426471 C13.6809756,17.0647059 14.0193902,17.0911765 14.3578049,17.1132353 C14.0193902,17.0911765 13.6809756,17.0647059 13.342561,17.0426471 Z" id="Path" fill="#95B78E"></path>
            <path d="M21.3832927,14.7220588 C18.6218293,14.2720588 13.4914634,14.25 9.95390244,15.1014706 C8.7897561,15.3838235 7.79707317,16.05 7.79707317,16.05 C7.04804878,15.5779412 6.36670732,15.0308824 7.99109756,14.2279412 C8.93414634,13.7558824 12.5935366,13.0323529 15.3234146,13.0323529 C19.4385366,13.0323529 22.1323171,13.4470588 22.1323171,13.4470588 C22.1323171,13.4470588 21.8435366,14.0867647 21.3832927,14.7264706 L21.3832927,14.7220588 Z" id="Path" fill="#66767F"></path>
            <ellipse id="Oval" fill="#99AAB5" transform="translate(29.336955, 5.700468) rotate(-49.460000) translate(-29.336955, -5.700468) " cx="29.3369547" cy="5.70046762" rx="2.31630419" ry="2.13223773"></ellipse>
            <ellipse id="Oval" fill="#CCD6DD" transform="translate(28.901763, 5.201822) rotate(-41.630000) translate(-28.901763, -5.201822) " cx="28.9017629" cy="5.20182188" rx="1.65319628" ry="1.46617098"></ellipse>
        </g>
        <g id="Group" transform="translate(65.000000, 11.000000)" fill="#4F6F4B">
            <path d="M3.41729858,1.93245902 C5.20023697,1.93245902 6.41587678,3.28655738 7.17677725,4.8747541 L9.41445498,9.55672131 C9.79265403,10.3691803 10.6300948,12.2281967 11.3099526,12.2281967 C11.728673,12.2281967 12.106872,11.2596721 12.2959716,10.8740984 C13.3225118,8.7442623 14.07891,6.54098361 15.2180095,4.33311475 C16.1274882,2.55213115 17.0414692,1.8957377 18.6353081,1.8957377 C20.5353081,1.8957377 21.7869668,3.0157377 21.7869668,4.95278689 C21.7869668,7.6242623 19.7744076,9.82754098 18.4101896,11.8793443 C16.6632701,14.3947541 14.1194313,16.1344262 14.1194313,19.1547541 C14.1194313,20.8577049 14.2725118,22.3678689 14.2725118,24.0708197 C14.2725118,26.2006557 12.9443128,27.3206557 10.8957346,27.3206557 C8.95971564,27.3206557 7.93317536,25.9252459 7.93317536,23.8780328 C7.93317536,22.3678689 8.16279621,21.0918033 8.16279621,19.544918 C8.16279621,17.415082 7.40189573,16.602623 6.26279621,14.9777049 C5.0471564,13.3114754 3.98459716,12.0767213 2.69691943,10.3737705 C1.48127962,8.74885246 -2.84217094e-14,7.23868852 -2.84217094e-14,5.34295082 C-2.84217094e-14,3.25442623 1.40473934,1.93704918 3.41729858,1.93704918 L3.41729858,1.93245902 Z" id="Path"></path>
            <path d="M37.8829384,16.4419672 C36.136019,19.3062295 30.5170616,18.2596721 27.8606635,18.8793443 C27.2933649,19.0354098 26.9511848,19.3062295 26.9511848,19.962623 C26.9511848,22.0511475 29.1168246,22.9829508 30.899763,22.9829508 C34.8843602,22.9829508 34.3170616,20.4308197 36.5547393,20.4308197 C37.8469194,20.4308197 39.1751185,21.477377 39.1751185,22.8681967 C39.1751185,26.3108197 33.785782,27.8990164 31.0123223,27.8990164 C24.9026066,27.8990164 21.5618483,24.3370492 21.5618483,18.144918 C21.5618483,11.6039344 24.0291469,7.1147541 30.899763,7.1147541 C34.8483412,7.1147541 38.7203791,9.28131148 38.7203791,13.4629508 C38.7203791,14.5095082 38.4187204,15.5514754 37.8874408,16.4419672 L37.8829384,16.4419672 Z M33.4796209,13.1921311 C33.4796209,11.6039344 31.313981,11.2596721 30.2154028,11.2596721 C28.3199052,11.2596721 27.0277251,12.6137705 27.0277251,14.5095082 C27.0277251,15.3219672 27.9777251,15.3219672 29.1168246,15.3219672 C30.8637441,15.3219672 33.4841232,15.2852459 33.4841232,13.1921311 L33.4796209,13.1921311 Z" id="Shape" fill-rule="nonzero"></path>
            <path d="M41.2957346,10.2544262 C41.2957346,8.39540984 42.6239336,7.46819672 44.3708531,7.46819672 C46.6850711,7.46819672 47.3334123,9.05639344 47.5585308,11.1036066 C47.5585308,11.1403279 47.5585308,11.3377049 47.6350711,11.3377049 C47.67109,11.3377049 47.7116114,11.2596721 47.7881517,11.1816393 C48.6616114,9.40065574 49.4585308,7.73901639 51.8853081,7.73901639 C53.7447867,7.73901639 54.9604265,8.97836066 54.9604265,10.8740984 C54.9604265,12.0721311 54.5056872,13.3527869 53.4791469,13.9678689 C51.8853081,15.0144262 50.0258294,13.9678689 48.5805687,15.5147541 C47.707109,16.4419672 47.5180095,17.1029508 47.5180095,18.4157377 C47.5180095,20.6603279 48.0132701,23.1390164 48.0132701,24.2222951 C48.0132701,26.1547541 47.1037915,27.4354098 45.2037915,27.4354098 C42.9255924,27.4354098 41.7504739,26.2740984 41.7504739,23.9147541 C41.7504739,21.3993443 42.092654,18.8472131 42.092654,16.3318033 C42.092654,13.0819672 41.2957346,12.2695082 41.2957346,10.2544262 Z" id="Path"></path>
            <path d="M63.3483412,3.63540984 C63.3483412,5.7652459 62.9296209,7.58295082 62.8530806,9.7495082 C63.686019,8.20262295 65.9281991,7.58295082 67.486019,7.58295082 C73.2175355,7.58295082 75.342654,11.8793443 75.342654,17.8006557 C75.342654,22.987541 72.7627962,27.4767213 67.1843602,27.4767213 C64.2218009,27.4767213 63.1232227,25.9665574 62.5919431,25.9665574 C61.9841232,25.9665574 61.7590047,27.5547541 59.6699052,27.5547541 C57.2026066,27.5547541 56.5947867,25.3881967 56.5947867,23.4511475 C56.5947867,20.2793443 56.9369668,18.6544262 56.9369668,13.5455738 C56.9369668,9.79081967 56.5182464,8.32196721 56.5182464,5.96262295 C56.5182464,2.55672131 57.2386256,0.197377049 60.2777251,0.197377049 C62.249763,0.197377049 63.3528436,1.78557377 63.3528436,3.64 L63.3483412,3.63540984 Z M66.3469194,22.3632787 C68.7016588,22.3632787 69.764218,19.4622951 69.764218,17.4885246 C69.764218,14.2754098 68.5485782,12.4209836 65.7796209,12.4209836 C63.3123223,12.4209836 62.249763,14.6655738 62.249763,16.9101639 C62.249763,19.4622951 63.5014218,22.3678689 66.3469194,22.3678689 L66.3469194,22.3632787 Z" id="Shape" fill-rule="nonzero"></path>
            <path d="M94.6623223,12.7698361 C94.6623223,14.0091803 94.4732227,15.5560656 94.4732227,16.7954098 C94.4732227,22.0603279 94.8919431,23.7219672 94.8919431,24.9980328 C94.8919431,26.6596721 93.4872038,27.4354098 92.0464455,27.4354098 C89.5791469,27.4354098 89.543128,25.227541 88.6696682,25.227541 C88.1383886,25.227541 87.0398104,27.4354098 84.0772512,27.4354098 C79.3722749,27.4354098 77.2066351,23.1022951 77.2066351,18.8059016 C77.2066351,11.3744262 80.7725118,7.23409836 87.5305687,7.23409836 C91.4791469,7.23409836 94.6668246,8.6295082 94.6668246,12.7698361 L94.6623223,12.7698361 Z M85.6305687,22.2898361 C88.593128,22.2898361 89.4620853,18.4203279 89.4620853,16.0977049 C89.4620853,13.775082 89.4260664,12.1501639 86.7291469,12.1501639 C83.4649289,12.1501639 82.5914692,15.6340984 82.5914692,18.3790164 C82.5914692,20.3160656 83.3883886,22.2852459 85.6260664,22.2852459 L85.6305687,22.2898361 Z" id="Shape" fill-rule="nonzero"></path>
        </g>
    </g>
</svg>