<?xml version="1.0" encoding="utf-8"?>
<!-- Generator: Adobe Illustrator 27.1.1, SVG Export Plug-In . SVG Version: 6.00 Build 0)  -->
<svg version="1.1" id="Layer_1" xmlns="http://www.w3.org/2000/svg" xmlns:xlink="http://www.w3.org/1999/xlink" x="0px" y="0px"
	 viewBox="0 0 1780 1000" style="enable-background:new 0 0 1780 1000;" xml:space="preserve">
<style type="text/css">
	.st0{fill:#BC83FB;}
	.st1{fill:#8747CC;}
	.st2{fill:#D8B7FB;}
	.st3{fill:#642F9E;}
	.st4{fill:#FF705E;}
	.st5{fill:#E34135;}
	.st6{fill:#50D985;}
	.st7{fill:#FFFFFF;}
	.st8{fill:#B8A3C9;}
	.st9{fill:#E2DCFE;}
	.st10{fill:#282828;}
	.st11{fill:#F7F7F7;}
</style>
<g>
	<g>
		<path class="st0" d="M1446.8,90.4v49.8c0,12.2-9.9,22.1-22,22.1H355.3c-12.2,0-22-9.9-22-22.1V90.4c0-12.2,9.9-22.1,22-22.1h14.2
			c1.6,0,3.1,0.9,3.6,2.4c2.1,5.4,9.9,10,20.4,10.4c8.3,0.3,15.2-2.1,19-5.6c1.6-1.5,4.1-1.4,5.6,0.2c4.5,4.9,13.4,8.5,24.5,8.5
			c12.2,0,21.3-4.4,25.6-10.1c1.4-1.9,4.2-1.9,5.7-0.1c5.9,7,16.7,12.1,29.5,12.2c16.1,0.1,27.2-6.9,31.9-14.6
			c1.3-2.1,3.7-3.3,6.2-3.3h883.2C1436.9,68.4,1446.8,78.2,1446.8,90.4z"/>
	</g>
	<g>
		<path class="st0" d="M394.6,74.9c-12.2,0.4-20-7.2-14-13.6c5.9-6.4,21.2-6.9,27.4-0.8S406.8,74.5,394.6,74.9z"/>
	</g>
	<g>
		<path class="st0" d="M442.8,77.2c-16.3,0.6-26.9-9.1-19.1-17.5c7.9-8.4,28.3-9.2,36.8-1.4C469,66.1,459.1,76.6,442.8,77.2z"/>
	</g>
	<g>
		<path class="st0" d="M504.5,78.8c-18.3,0.6-30.2-10.5-21.3-20s31.8-10.3,41.2-1.4C533.9,66.3,522.8,78.2,504.5,78.8z"/>
	</g>
</g>
<g>
	<g>
		<path class="st1" d="M1075.8,589.9l-62.8-9.7c68.4-68.5,71.7-94,63.9-110.4c-2.4-5-7.2-8.1-14-8.8
			C1091.8,461.5,1128.4,510.8,1075.8,589.9z"/>
	</g>
	<g>
		<path class="st2" d="M1056.6,459c0,5.2,23,12.4,22.2,5.8C1078,458.1,1056.6,453.7,1056.6,459z"/>
	</g>
	<g>
		<path class="st0" d="M1075.8,589.9c52.6-79.1,13.7-125.4-12.9-128.9c-15.1-2-34.8,6.1-59.1,26.2c-1.9,1.5-4.4-0.7-3.1-2.8
			c34-53.5,82.3-62.1,109.8-45.6C1143.3,458.5,1149,536.4,1075.8,589.9z"/>
	</g>
	<g>
		<path class="st2" d="M1093.6,518.3c-4.7,14.4-16.1,20.6-20.5,11.2c-4.4-9.4,1.5-27.3,10.6-32.3S1098.4,504,1093.6,518.3z"/>
	</g>
	<g>
		<path class="st2" d="M1061.5,580.6c-13.3,13.3-30.2,13-30.5-0.6c-0.3-13.5,16.4-30.2,29.9-29.9
			C1074.4,550.3,1074.7,567.3,1061.5,580.6z"/>
	</g>
</g>
<g>
	<g>
		<path class="st0" d="M296.3,545.9c-41.9-26.9-74.1-15.4-87.6,1.9c-14.8,19-31,77.9,45.8,130.6c4.7,3.2,9.7,6.4,15.2,9.6l5.9,45.6
			l5.1,39.6c-23.1-7.8-42.4-18.3-58.3-30.7c-53.9-42-69.2-105.6-60.4-155.3c2.9-16.6,9.8-31.6,19.4-43.7l0,0
			c27.7-35.1,77.6-45.8,117.3-0.2C299.9,544.8,298,547,296.3,545.9z"/>
	</g>
	<g>
		<path class="st1" d="M296.3,545.9c-41.9-26.9-74.1-15.4-87.6,1.9c-14.8,19-31,77.9,45.8,130.6c4.7,3.2,9.7,6.4,15.2,9.6l5.9,45.6
			c-9.3-2.2-18.3-5.7-27-10.2c-41.6-21.7-74.3-67.5-79-118.4c-2.7-29,3.7-49.3,11.8-61.5l0,0c27.7-35.1,77.6-45.8,117.3-0.2
			C299.9,544.8,298,547,296.3,545.9z"/>
	</g>
	<g>
		<path class="st2" d="M238.1,673.5c10.8,15,9.9,29.9-1.6,26.7s-24.9-21.9-24.2-33.8C213,654.5,227.4,658.5,238.1,673.5z"/>
	</g>
	<g>
		<path class="st2" d="M200.5,616.4c3,14.4-2.4,24.9-9.7,18.9s-11.1-23.9-6.8-32.3S197.5,602,200.5,616.4z"/>
	</g>
	<g>
		<path class="st2" d="M204.4,555.2c-4.9,8.7-13.8,10.9-16.1,3.9s3.8-17.9,11-19.7C206.4,537.7,209.2,546.5,204.4,555.2z"/>
	</g>
	<g>
		<path class="st2" d="M239.8,531.5c-9.1,0-14.9-4.9-10.3-8.8c4.6-3.9,16-3.9,20.6,0C254.7,526.6,248.9,531.5,239.8,531.5z"/>
	</g>
	<g>
		<path class="st1" d="M280.5,773.2c-23.1-7.8-42.4-18.3-58.3-30.7c12,0.9,20.9-4.4,26.2-19.1c8.7,4.5,17.7,8,27,10.2L280.5,773.2z"
			/>
	</g>
	<g>
		<path class="st3" d="M275.5,733.6c-9.3-2.2-18.3-5.7-27-10.2c3.7-10.1,5.7-24.8,6-45c4.7,3.2,9.7,6.4,15.2,9.6L275.5,733.6z"/>
	</g>
</g>
<g>
	<path class="st4" d="M1174.4,917.2H286.1c-10.8,0-19.5-8.7-19.5-19.5V587.9c0-10.8,8.7-19.5,19.5-19.5h888.3
		c10.8,0,19.5,8.7,19.5,19.5v309.9C1193.9,908.5,1185.1,917.2,1174.4,917.2z"/>
</g>
<g>
	<path class="st5" d="M974.7,568.4V615c0,27.6-22.3,49.9-49.9,49.9H515.5c-27.6,0-49.9-22.3-49.9-49.9v-46.7h509.1V568.4z"/>
</g>
<g>
	<path class="st6" d="M934.9,650.4H525.6c-27.6,0-49.9-22.3-49.9-49.9v-64.3c0-27.6,22.3-49.9,49.9-49.9h409.3
		c27.6,0,49.9,22.3,49.9,49.9v64.3C984.8,628.1,962.4,650.4,934.9,650.4z"/>
</g>
<g>
	<g>
		<g>
			<path class="st0" d="M1089.2,298.7l-16.9,27.2c0,0-61.9-42.2-141.1-36.1c-3.6,0.3-6.7-2.5-6.7-6.2l-0.9-39.1
				c-0.1-3.6,2.7-6.7,6.3-6.9C1009.5,231.6,1068.3,268.1,1089.2,298.7z"/>
		</g>
	</g>
	<g>
		<path class="st0" d="M1110.3,331.3l-42.6,10c-2.9,0.7-5.3-2.5-3.8-5.1l30-51.9c1.5-2.6,5.4-2.2,6.3,0.7l12.6,41.9
			C1113.4,328.9,1112.2,330.9,1110.3,331.3z"/>
	</g>
</g>
<g>
	<g>
		<g>
			<path class="st0" d="M1401.9,697.4l-21.5-22c0,0-55.3,49.6-134.5,43.5c-3.6-0.3-6.7,2.5-6.7,6.2l-0.9,39.3
				c-0.1,3.5,2.6,6.5,6.1,6.7C1324.1,776.8,1383.9,732.9,1401.9,697.4z"/>
		</g>
	</g>
	<g>
		<path class="st0" d="M1413.9,660.7l-43.7,1.3c-3,0.1-4.5,3.7-2.3,5.9l42.4,42.4c2.1,2.1,5.8,0.7,5.9-2.3l1.3-43.7
			C1417.5,662.2,1415.8,660.6,1413.9,660.7z"/>
	</g>
</g>
<g>
	<path class="st0" d="M678.4,275.2v-28.1h11.9c3,0,5.6,0.6,7.9,1.8c2.3,1.2,4.1,2.8,5.3,4.9c1.3,2.1,1.9,4.6,1.9,7.4
		c0,2.8-0.6,5.2-1.9,7.4c-1.3,2.1-3.1,3.8-5.3,4.9c-2.3,1.2-4.9,1.8-7.9,1.8L678.4,275.2L678.4,275.2z M682.4,271.7h7.6
		c2.3,0,4.3-0.4,6.1-1.3c1.7-0.9,3-2.1,4-3.7c0.9-1.6,1.4-3.4,1.4-5.5s-0.5-4-1.4-5.5c-0.9-1.6-2.3-2.8-4-3.7s-3.7-1.3-6.1-1.3h-7.6
		V271.7z"/>
	<path class="st0" d="M717.3,275.5c-1.6,0-3-0.3-4.2-0.8s-2.1-1.3-2.8-2.2c-0.6-1-1-2-1-3.2s0.3-2.2,0.8-3.1s1.4-1.7,2.7-2.3
		s2.9-0.8,5-0.8h6.8v2.8H718c-1.9,0-3.2,0.3-3.9,1s-1,1.4-1,2.3c0,1,0.4,1.9,1.2,2.5s2,0.9,3.5,0.9c1.4,0,2.7-0.3,3.8-1
		c1.1-0.6,1.9-1.6,2.4-2.8l0.8,2.7c-0.5,1.3-1.4,2.3-2.7,3C720.8,275.1,719.2,275.5,717.3,275.5z M724.3,275.2v-4.5l-0.2-0.8v-7.7
		c0-1.6-0.5-2.9-1.4-3.8s-2.4-1.3-4.3-1.3c-1.3,0-2.5,0.2-3.7,0.6s-2.2,1-3.1,1.7l-1.6-2.9c1.1-0.9,2.4-1.6,4-2
		c1.5-0.5,3.2-0.7,4.8-0.7c2.9,0,5.2,0.7,6.8,2.1c1.6,1.4,2.4,3.6,2.4,6.5v12.9h-3.7V275.2z"/>
	<path class="st0" d="M735.1,283v-29.1h3.7v5.7l-0.2,4.9l0.4,4.9V283H735.1z M746.4,275.5c-1.8,0-3.4-0.4-4.8-1.2
		c-1.5-0.8-2.6-2-3.5-3.6s-1.3-3.6-1.3-6s0.4-4.4,1.3-6c0.8-1.6,2-2.8,3.5-3.6s3.1-1.2,4.9-1.2c2.1,0,3.9,0.5,5.5,1.4
		c1.6,0.9,2.9,2.2,3.8,3.8c0.9,1.6,1.4,3.5,1.4,5.7s-0.5,4.1-1.4,5.7s-2.2,2.9-3.8,3.8C750.3,275,748.5,275.5,746.4,275.5z
		 M746,272.1c1.4,0,2.6-0.3,3.7-0.9c1.1-0.6,1.9-1.5,2.6-2.6c0.6-1.1,0.9-2.5,0.9-4s-0.3-2.8-0.9-4c-0.6-1.1-1.5-2-2.6-2.6
		s-2.3-0.9-3.7-0.9c-1.3,0-2.6,0.3-3.6,0.9c-1.1,0.6-1.9,1.5-2.6,2.6c-0.6,1.1-0.9,2.4-0.9,4c0,1.5,0.3,2.8,0.9,4
		c0.6,1.1,1.5,2,2.6,2.6C743.5,271.8,744.7,272.1,746,272.1z"/>
	<path class="st0" d="M762.5,283v-29.1h3.7v5.7l-0.2,4.9l0.4,4.9V283H762.5z M773.8,275.5c-1.8,0-3.4-0.4-4.8-1.2
		c-1.5-0.8-2.6-2-3.5-3.6s-1.3-3.6-1.3-6s0.4-4.4,1.3-6c0.8-1.6,2-2.8,3.5-3.6s3.1-1.2,4.9-1.2c2.1,0,3.9,0.5,5.5,1.4
		c1.6,0.9,2.9,2.2,3.8,3.8c0.9,1.6,1.4,3.5,1.4,5.7s-0.5,4.1-1.4,5.7s-2.2,2.9-3.8,3.8C777.7,275,775.9,275.5,773.8,275.5z
		 M773.5,272.1c1.4,0,2.6-0.3,3.7-0.9c1.1-0.6,1.9-1.5,2.6-2.6c0.6-1.1,0.9-2.5,0.9-4s-0.3-2.8-0.9-4c-0.6-1.1-1.5-2-2.6-2.6
		s-2.3-0.9-3.7-0.9c-1.3,0-2.6,0.3-3.6,0.9c-1.1,0.6-1.9,1.5-2.6,2.6c-0.6,1.1-0.9,2.4-0.9,4c0,1.5,0.3,2.8,0.9,4
		c0.6,1.1,1.5,2,2.6,2.6C770.9,271.8,772.1,272.1,773.5,272.1z"/>
</g>
<g>
	<path class="st7" d="M463.4,800.3c-1.6,0-3.2-0.3-4.6-0.8s-2.6-1.1-3.7-1.8l1.3-1.9c1,0.7,2,1.2,3.2,1.7c1.2,0.4,2.5,0.6,4.1,0.6
		c1.4,0,2.5-0.3,3.2-0.8s1.1-1.1,1.1-1.8c0-0.4-0.1-0.8-0.4-1.2s-0.7-0.7-1.5-1s-1.9-0.6-3.4-0.9c-2.2-0.5-3.8-1.1-4.9-1.8
		c-1.1-0.8-1.7-1.8-1.7-3c0-1.4,0.6-2.5,1.8-3.4c1.2-0.9,2.9-1.4,5.2-1.4c1.3,0,2.5,0.2,3.7,0.6c1.2,0.4,2.2,0.9,3,1.5l-1.4,1.8
		c-0.8-0.5-1.6-1-2.6-1.3c-0.9-0.3-2-0.5-3-0.5c-1.4,0-2.4,0.2-3,0.7s-0.9,1-0.9,1.7s0.4,1.3,1.2,1.7s2,0.8,3.7,1.1
		c1.9,0.4,3.3,0.8,4.3,1.3s1.7,1,2.1,1.7c0.4,0.6,0.6,1.4,0.6,2.2c0,0.9-0.3,1.7-0.9,2.5s-1.4,1.4-2.5,1.8
		C466.3,800,465,800.3,463.4,800.3z"/>
	<path class="st7" d="M484.7,800.3c-1.7,0-3.2-0.3-4.6-1s-2.5-1.7-3.3-3s-1.2-2.9-1.2-4.8c0-1.8,0.4-3.4,1.2-4.7s1.9-2.3,3.2-3
		c1.3-0.7,2.7-1.1,4.2-1.1c2.4,0,4.3,0.7,5.6,2.2s2,3.3,2,5.7c0,0.3,0,0.6,0,0.9c0,0.3-0.1,0.6-0.1,0.8h-13.2
		c0.2,1.9,0.9,3.3,2.1,4.3s2.7,1.4,4.4,1.4c1,0,1.9-0.1,2.7-0.4s1.6-0.7,2.4-1.2l1,1.9c-0.8,0.6-1.8,1-2.8,1.4
		C487.3,800.1,486.1,800.3,484.7,800.3z M484.3,784.9c-1.4,0-2.6,0.4-3.7,1.3c-1.1,0.9-1.7,2.2-2,3.8h10.7c-0.1-1.7-0.6-3-1.5-3.9
		C486.9,785.4,485.7,784.9,484.3,784.9z"/>
	<path class="st7" d="M508.1,800.3c-1.8,0-3.1-0.5-4.1-1.5s-1.4-2.5-1.4-4.5v-16.6h-6v-2.3h8.8v19.1c0,1.2,0.3,2.1,0.9,2.7
		c0.6,0.6,1.4,0.8,2.4,0.8s2-0.3,3.1-0.8l0.7,2.1c-0.8,0.3-1.5,0.6-2.1,0.7C509.8,800.2,509,800.3,508.1,800.3z"/>
	<path class="st7" d="M523,799.8v-14.4h-4.8v-2.1l4.8-0.2v-1.4c0-2,0.6-3.7,1.7-4.9c1.1-1.2,2.8-1.9,5.1-1.9c1.7,0,3.3,0.3,4.8,1
		L534,778c-0.7-0.3-1.3-0.5-1.9-0.6s-1.2-0.2-2-0.2c-1.5,0-2.6,0.4-3.2,1.2s-1,1.8-1,3.2v1.5h7v2.3h-7v14.4L523,799.8L523,799.8z"/>
	<path class="st7" d="M545.7,800.3c-0.8,0-1.4-0.3-2-0.8c-0.5-0.5-0.8-1.2-0.8-2.1c0-0.9,0.3-1.6,0.8-2.1s1.2-0.8,2-0.8
		s1.4,0.3,2,0.8c0.5,0.5,0.8,1.2,0.8,2.1c0,0.8-0.3,1.5-0.8,2.1C547.2,800,546.5,800.3,545.7,800.3z"/>
	<path class="st7" d="M567.4,800.3c-1.7,0-3.2-0.3-4.6-1c-1.4-0.7-2.5-1.7-3.3-3s-1.2-2.9-1.2-4.8c0-1.8,0.4-3.4,1.2-4.7
		s1.9-2.3,3.2-3s2.7-1.1,4.2-1.1c2.4,0,4.3,0.7,5.6,2.2s2,3.3,2,5.7c0,0.3,0,0.6,0,0.9c0,0.3-0.1,0.6-0.1,0.8h-13.2
		c0.2,1.9,0.9,3.3,2.1,4.3s2.7,1.4,4.4,1.4c1,0,1.9-0.1,2.7-0.4s1.6-0.7,2.4-1.2l1,1.9c-0.8,0.6-1.8,1-2.8,1.4
		C570,800.1,568.8,800.3,567.4,800.3z M567,784.9c-1.4,0-2.6,0.4-3.7,1.3c-1.1,0.9-1.7,2.2-2,3.8H572c-0.1-1.7-0.6-3-1.5-3.9
		C569.6,785.4,568.4,784.9,567,784.9z"/>
	<path class="st7" d="M579.9,799.8v-16.7h2.3l0.2,2.9h0.1c0.9-0.9,1.8-1.7,2.8-2.3s2.2-0.9,3.5-0.9c2,0,3.4,0.6,4.4,1.7
		c0.9,1.1,1.4,2.8,1.4,5v10.4h-2.8v-10c0-1.6-0.3-2.8-0.9-3.5s-1.6-1.2-3-1.2c-1,0-1.9,0.3-2.7,0.8s-1.7,1.3-2.7,2.3V800h-2.6V799.8
		z"/>
	<path class="st7" d="M606.2,799.8l-7.1-16.7h2.9l3.9,9.5c0.3,0.9,0.7,1.7,1,2.5s0.6,1.6,0.9,2.4h0.1c0.3-0.8,0.6-1.6,0.9-2.4
		c0.3-0.8,0.6-1.6,0.9-2.5l3.9-9.5h2.7l-6.9,16.7H606.2z"/>
	<path class="st7" d="M633,805.9c-2.4-1.9-4.3-4.1-5.7-6.7c-1.4-2.6-2.1-5.6-2.1-8.9s0.7-6.3,2.1-8.9c1.4-2.6,3.3-4.9,5.7-6.7
		l1.6,1.4c-2.3,2-4,4.1-5.1,6.4s-1.7,4.9-1.7,7.8s0.6,5.5,1.7,7.8s2.8,4.4,5.1,6.4L633,805.9z"/>
	<path class="st7" d="M644.5,805.9l-1.6-1.4c2.3-2,4-4.1,5.1-6.4s1.6-4.9,1.6-7.8s-0.5-5.5-1.6-7.8s-2.8-4.4-5.1-6.4l1.6-1.4
		c2.4,1.9,4.3,4.1,5.7,6.7c1.4,2.6,2.1,5.6,2.1,8.9s-0.7,6.3-2.1,8.9C648.8,801.8,646.9,804.1,644.5,805.9z"/>
	<path class="st7" d="M669.8,800.3c-0.8,0-1.4-0.3-2-0.8c-0.5-0.5-0.8-1.2-0.8-2.1c0-0.9,0.3-1.6,0.8-2.1s1.2-0.8,2-0.8
		s1.4,0.3,2,0.8c0.5,0.5,0.8,1.2,0.8,2.1c0,0.8-0.3,1.5-0.8,2.1C671.2,800,670.5,800.3,669.8,800.3z"/>
	<path class="st7" d="M691.5,800.3c-1.7,0-3.2-0.3-4.6-1c-1.4-0.7-2.5-1.7-3.3-3s-1.2-2.9-1.2-4.8c0-1.8,0.4-3.4,1.2-4.7
		s1.9-2.3,3.2-3s2.7-1.1,4.2-1.1c2.4,0,4.3,0.7,5.6,2.2s2,3.3,2,5.7c0,0.3,0,0.6,0,0.9c0,0.3-0.1,0.6-0.1,0.8h-13.2
		c0.2,1.9,0.9,3.3,2.1,4.3s2.7,1.4,4.4,1.4c1,0,1.9-0.1,2.7-0.4s1.6-0.7,2.4-1.2l1,1.9c-0.8,0.6-1.8,1-2.8,1.4
		C694,800.1,692.8,800.3,691.5,800.3z M691.1,784.9c-1.4,0-2.6,0.4-3.7,1.3c-1.1,0.9-1.7,2.2-2,3.8H696c-0.1-1.7-0.6-3-1.5-3.9
		C693.6,785.4,692.5,784.9,691.1,784.9z"/>
	<path class="st7" d="M702.8,799.8v-16.7h2.3l0.2,2.2h0.1c0.4-0.8,0.9-1.4,1.5-1.9s1.3-0.7,2.3-0.7c1.6,0,2.7,1,3.2,2.9
		c0.5-0.9,1-1.6,1.6-2.1s1.4-0.8,2.3-0.8c1.2,0,2.1,0.4,2.7,1.3c0.7,0.9,1,2.2,1,3.8v12h-2.8V788c0-2-0.6-2.9-1.8-2.9
		c-0.6,0-1.1,0.2-1.4,0.6c-0.4,0.4-0.8,1.1-1.3,1.9v12.1h-2.6v-11.8c0-1-0.1-1.7-0.4-2.2c-0.3-0.5-0.7-0.7-1.3-0.7s-1.1,0.2-1.5,0.6
		c-0.4,0.4-0.8,1.1-1.3,1.9v12.1h-2.8V799.8z"/>
	<path class="st7" d="M732.3,799.8v-14.4h-7.8v-2.3h10.6v16.7H732.3z M733.4,779.6c-0.6,0-1.2-0.2-1.6-0.6c-0.4-0.4-0.7-0.9-0.7-1.6
		c0-0.7,0.2-1.2,0.7-1.6c0.4-0.4,1-0.6,1.6-0.6s1.2,0.2,1.6,0.6s0.7,0.9,0.7,1.6c0,0.7-0.2,1.2-0.7,1.6
		C734.6,779.4,734.1,779.6,733.4,779.6z"/>
	<path class="st7" d="M755.7,800.3c-1.6,0-2.9-0.3-3.9-0.9c-0.9-0.6-1.6-1.4-2-2.4s-0.6-2.2-0.6-3.6v-7.9h-4.7v-2.1l4.8-0.2l0.4-5.4
		h2.3v5.4h8.2v2.3H752v8c0,1.5,0.3,2.6,0.9,3.4c0.6,0.8,1.7,1.2,3.3,1.2c0.8,0,1.5-0.1,2.2-0.2c0.6-0.1,1.3-0.3,1.9-0.6l0.6,2.1
		c-0.8,0.3-1.6,0.5-2.4,0.7C757.7,800.2,756.7,800.3,755.7,800.3z"/>
	<path class="st7" d="M764.9,804.7v-2.4h16.5v2.4H764.9z"/>
	<path class="st7" d="M794.8,800.3c-1.7,0-3.2-0.3-4.6-1c-1.4-0.7-2.5-1.7-3.3-3s-1.2-2.9-1.2-4.8c0-1.8,0.4-3.4,1.2-4.7
		s1.9-2.3,3.2-3s2.7-1.1,4.2-1.1c2.4,0,4.3,0.7,5.6,2.2s2,3.3,2,5.7c0,0.3,0,0.6,0,0.9c0,0.3-0.1,0.6-0.1,0.8h-13.2
		c0.2,1.9,0.9,3.3,2.1,4.3s2.7,1.4,4.4,1.4c1,0,1.9-0.1,2.7-0.4s1.6-0.7,2.4-1.2l1,1.9c-0.8,0.6-1.8,1-2.8,1.4
		C797.4,800.1,796.2,800.3,794.8,800.3z M794.4,784.9c-1.4,0-2.6,0.4-3.7,1.3c-1.1,0.9-1.7,2.2-2,3.8h10.7c-0.1-1.7-0.6-3-1.5-3.9
		C797,785.4,795.8,784.9,794.4,784.9z"/>
	<path class="st7" d="M813,799.8l-7.1-16.7h2.9l3.9,9.5c0.3,0.9,0.7,1.7,1,2.5s0.6,1.6,0.9,2.4h0.1c0.3-0.8,0.6-1.6,0.9-2.4
		c0.3-0.8,0.6-1.6,0.9-2.5l3.9-9.5h2.7l-6.9,16.7H813z"/>
	<path class="st7" d="M836.2,800.3c-1.7,0-3.2-0.3-4.6-1c-1.4-0.7-2.5-1.7-3.3-3s-1.2-2.9-1.2-4.8c0-1.8,0.4-3.4,1.2-4.7
		s1.9-2.3,3.2-3s2.7-1.1,4.2-1.1c2.4,0,4.3,0.7,5.6,2.2s2,3.3,2,5.7c0,0.3,0,0.6,0,0.9c0,0.3-0.1,0.6-0.1,0.8H830
		c0.2,1.9,0.9,3.3,2.1,4.3s2.7,1.4,4.4,1.4c1,0,1.9-0.1,2.7-0.4s1.6-0.7,2.4-1.2l1,1.9c-0.8,0.6-1.8,1-2.8,1.4
		C838.7,800.1,837.5,800.3,836.2,800.3z M835.8,784.9c-1.4,0-2.6,0.4-3.7,1.3c-1.1,0.9-1.7,2.2-2,3.8h10.7c-0.1-1.7-0.6-3-1.5-3.9
		C838.4,785.4,837.2,784.9,835.8,784.9z"/>
	<path class="st7" d="M848.7,799.8v-16.7h2.3l0.2,2.9h0.1c0.9-0.9,1.8-1.7,2.8-2.3s2.2-0.9,3.5-0.9c2,0,3.4,0.6,4.4,1.7
		c0.9,1.1,1.4,2.8,1.4,5v10.4h-2.8v-10c0-1.6-0.3-2.8-0.9-3.5s-1.6-1.2-3-1.2c-1,0-1.9,0.3-2.7,0.8s-1.7,1.3-2.7,2.3V800h-2.6V799.8
		z"/>
	<path class="st7" d="M879.7,800.3c-1.6,0-2.9-0.3-3.9-0.9c-0.9-0.6-1.6-1.4-2-2.4s-0.6-2.2-0.6-3.6v-7.9h-4.7v-2.1l4.8-0.2l0.4-5.4
		h2.3v5.4h8.2v2.3H876v8c0,1.5,0.3,2.6,0.9,3.4c0.6,0.8,1.7,1.2,3.3,1.2c0.8,0,1.5-0.1,2.2-0.2c0.6-0.1,1.3-0.3,1.9-0.6l0.6,2.1
		c-0.8,0.3-1.6,0.5-2.4,0.7C881.7,800.2,880.8,800.3,879.7,800.3z"/>
	<path class="st7" d="M901.8,805.9c-2.4-1.9-4.3-4.1-5.7-6.7c-1.4-2.6-2.1-5.6-2.1-8.9s0.7-6.3,2.1-8.9c1.4-2.6,3.3-4.9,5.7-6.7
		l1.6,1.4c-2.3,2-4,4.1-5.1,6.4s-1.7,4.9-1.7,7.8s0.6,5.5,1.7,7.8s2.8,4.4,5.1,6.4L901.8,805.9z"/>
	<path class="st7" d="M502.9,841.2V821h-7.4v-2.4h17.8v2.4h-7.4v20.2H502.9z"/>
	<path class="st7" d="M519.7,841.2v-16.7h2.3l0.2,4h0.1c0.9-1.4,2-2.4,3.2-3.2c1.3-0.8,2.7-1.2,4.2-1.2c0.6,0,1.2,0.1,1.7,0.2
		s1.1,0.3,1.6,0.5l-0.7,2.4c-0.6-0.2-1.1-0.4-1.5-0.4c-0.4-0.1-1-0.1-1.6-0.1c-1.3,0-2.5,0.4-3.6,1.1s-2.2,2-3.3,3.7v9.8
		L519.7,841.2L519.7,841.2z"/>
	<path class="st7" d="M543.9,841.6c-1,0-2-0.2-2.8-0.6s-1.6-0.9-2.1-1.6c-0.5-0.7-0.8-1.6-0.8-2.5c0-1.3,0.4-2.3,1.2-3.2
		c0.8-0.8,2.1-1.5,3.9-2c1.8-0.5,4.1-0.9,7-1.1c0-0.8-0.2-1.5-0.5-2.1s-0.8-1.1-1.4-1.5c-0.6-0.4-1.5-0.6-2.6-0.6s-2.1,0.2-3.2,0.6
		c-1,0.4-1.9,0.9-2.7,1.4l-1.1-1.9c0.8-0.6,1.9-1.1,3.3-1.6s2.7-0.8,4.2-0.8c2.3,0,4,0.6,5.1,1.9c1.1,1.3,1.7,2.9,1.7,5v10.3h-2.3
		l-0.2-2.3h-0.1c-0.9,0.7-2,1.3-3.1,1.9C546.2,841.3,545,841.6,543.9,841.6z M544.6,839.3c0.9,0,1.9-0.2,2.8-0.7
		c1-0.4,1.9-1,2.8-1.8v-4.4c-2.4,0.2-4.3,0.5-5.6,0.8c-1.4,0.4-2.3,0.9-2.9,1.4c-0.6,0.6-0.8,1.2-0.8,1.9c0,0.9,0.4,1.6,1.1,2.1
		C542.8,839.1,543.6,839.3,544.6,839.3z"/>
	<path class="st7" d="M559.3,841.2v-16.7h2.3l0.2,2.9h0.1c0.9-0.9,1.8-1.7,2.8-2.3s2.2-0.9,3.5-0.9c2,0,3.4,0.6,4.4,1.7
		c0.9,1.1,1.4,2.8,1.4,5v10.4h-2.8v-10c0-1.6-0.3-2.8-0.9-3.5s-1.6-1.2-3-1.2c-1,0-1.9,0.3-2.7,0.8s-1.7,1.3-2.7,2.3v11.7h-2.6
		V841.2z"/>
	<path class="st7" d="M587.4,841.6c-1.6,0-3.2-0.3-4.6-0.8c-1.4-0.5-2.6-1.1-3.7-1.8l1.3-1.9c1,0.7,2,1.2,3.2,1.7
		c1.2,0.4,2.5,0.6,4.1,0.6c1.4,0,2.5-0.3,3.2-0.8s1.1-1.1,1.1-1.8c0-0.4-0.1-0.8-0.4-1.2s-0.7-0.7-1.5-1s-1.9-0.6-3.4-0.9
		c-2.2-0.5-3.8-1.1-4.9-1.8c-1.1-0.8-1.7-1.8-1.7-3c0-1.4,0.6-2.5,1.8-3.4s2.9-1.4,5.2-1.4c1.3,0,2.5,0.2,3.7,0.6
		c1.2,0.4,2.2,0.9,3,1.5l-1.4,1.8c-0.8-0.5-1.6-1-2.6-1.3c-0.9-0.3-2-0.5-3-0.5c-1.4,0-2.4,0.2-3,0.7s-0.9,1-0.9,1.7
		s0.4,1.3,1.2,1.7s2,0.8,3.7,1.1c1.9,0.4,3.3,0.8,4.3,1.3s1.7,1,2.1,1.7c0.4,0.6,0.6,1.4,0.6,2.2c0,0.9-0.3,1.7-0.9,2.5
		c-0.6,0.8-1.4,1.4-2.5,1.8C590.4,841.4,589,841.6,587.4,841.6z"/>
	<path class="st7" d="M605.7,841.2v-14.4h-4.8v-2.1l4.8-0.2V823c0-2,0.6-3.7,1.7-4.9c1.1-1.2,2.8-1.9,5.1-1.9c1.7,0,3.3,0.3,4.8,1
		l-0.7,2.1c-0.7-0.3-1.3-0.5-1.9-0.6s-1.2-0.2-2-0.2c-1.5,0-2.6,0.4-3.2,1.2s-1,1.8-1,3.2v1.5h7v2.3h-7v14.4h-2.8V841.2z"/>
	<path class="st7" d="M629.4,841.6c-1.7,0-3.2-0.3-4.6-1c-1.4-0.7-2.5-1.7-3.3-3s-1.2-2.9-1.2-4.8c0-1.8,0.4-3.4,1.2-4.7
		s1.9-2.3,3.2-3s2.7-1.1,4.2-1.1c2.4,0,4.3,0.7,5.6,2.2s2,3.3,2,5.7c0,0.3,0,0.6,0,0.9c0,0.3-0.1,0.6-0.1,0.8h-13.2
		c0.2,1.9,0.9,3.3,2.1,4.3s2.7,1.4,4.4,1.4c1,0,1.9-0.1,2.7-0.4s1.6-0.7,2.4-1.2l1,1.9c-0.8,0.6-1.8,1-2.8,1.4
		C632,841.4,630.8,841.6,629.4,841.6z M629,826.3c-1.4,0-2.6,0.4-3.7,1.3c-1.1,0.9-1.7,2.2-2,3.8H634c-0.1-1.7-0.6-3-1.5-3.9
		C631.6,826.7,630.5,826.3,629,826.3z"/>
	<path class="st7" d="M643.8,841.2v-16.7h2.3l0.2,4h0.1c0.9-1.4,2-2.4,3.2-3.2c1.3-0.8,2.7-1.2,4.2-1.2c0.6,0,1.2,0.1,1.7,0.2
		s1.1,0.3,1.6,0.5l-0.7,2.4c-0.6-0.2-1.1-0.4-1.5-0.4c-0.4-0.1-1-0.1-1.6-0.1c-1.3,0-2.5,0.4-3.6,1.1s-2.2,2-3.3,3.7v9.8
		L643.8,841.2L643.8,841.2z"/>
	<path class="st7" d="M695.3,846.4c-2.2,0-3.8-0.3-4.8-1s-1.6-1.8-1.6-3.6c0-1.3,0.1-2.4,0.2-3.4c0.1-1,0.2-2.1,0.2-3.2
		c0-0.5-0.1-0.9-0.4-1.3c-0.3-0.4-0.8-0.7-1.5-1s-1.8-0.4-3.1-0.4v-1.8c1.4,0,2.4-0.2,3.1-0.4c0.7-0.3,1.2-0.6,1.5-1
		s0.4-0.8,0.4-1.3c0-1.1-0.1-2.2-0.2-3.2c-0.1-1.1-0.2-2.2-0.2-3.4c0-1.8,0.5-3,1.6-3.6c1-0.6,2.6-1,4.8-1h2.1v1.6h-1.8
		c-1.2,0-2.1,0.1-2.7,0.3c-0.6,0.2-1,0.5-1.3,1c-0.2,0.5-0.3,1.1-0.3,1.8c0,1,0,2,0.1,3s0.1,2.1,0.1,3.2c0,1.1-0.2,2-0.7,2.6
		c-0.4,0.6-1.3,1-2.5,1.2v0.1c1.2,0.2,2,0.6,2.5,1.2c0.4,0.6,0.7,1.4,0.7,2.6c0,1.2,0,2.2-0.1,3.2s-0.1,2-0.1,3
		c0,0.7,0.1,1.3,0.3,1.8s0.6,0.8,1.3,1c0.6,0.2,1.5,0.3,2.7,0.3h1.8v1.6h-2.1V846.4z"/>
	<path class="st7" d="M730.3,841.2l-7.1-16.7h2.9l3.9,9.5c0.3,0.9,0.7,1.7,1,2.5s0.6,1.6,0.9,2.4h0.1c0.3-0.8,0.6-1.6,0.9-2.4
		c0.3-0.8,0.6-1.6,0.9-2.5l3.9-9.5h2.7l-6.9,16.7H730.3z"/>
	<path class="st7" d="M750.6,841.6c-1,0-2-0.2-2.8-0.6s-1.6-0.9-2.1-1.6c-0.5-0.7-0.8-1.6-0.8-2.5c0-1.3,0.4-2.3,1.2-3.2
		c0.8-0.8,2.1-1.5,3.9-2c1.8-0.5,4.1-0.9,7-1.1c0-0.8-0.2-1.5-0.5-2.1s-0.8-1.1-1.4-1.5c-0.6-0.4-1.5-0.6-2.6-0.6s-2.1,0.2-3.2,0.6
		c-1,0.4-1.9,0.9-2.7,1.4l-1.1-1.9c0.8-0.6,1.9-1.1,3.3-1.6s2.7-0.8,4.2-0.8c2.3,0,4,0.6,5.1,1.9c1.1,1.3,1.7,2.9,1.7,5v10.3h-2.3
		l-0.2-2.3h-0.1c-0.9,0.7-2,1.3-3.1,1.9C753,841.3,751.8,841.6,750.6,841.6z M751.4,839.3c0.9,0,1.9-0.2,2.8-0.7
		c1-0.4,1.9-1,2.8-1.8v-4.4c-2.4,0.2-4.3,0.5-5.6,0.8c-1.4,0.4-2.3,0.9-2.9,1.4c-0.6,0.6-0.8,1.2-0.8,1.9c0,0.9,0.4,1.6,1.1,2.1
		C749.5,839.1,750.4,839.3,751.4,839.3z"/>
	<path class="st7" d="M776.8,841.6c-1.8,0-3.1-0.5-4.1-1.5s-1.4-2.5-1.4-4.5V819h-6v-2.3h8.8v19.1c0,1.2,0.3,2.1,0.9,2.7
		c0.6,0.6,1.4,0.8,2.4,0.8s2-0.3,3.1-0.8l0.7,2.1c-0.8,0.3-1.5,0.6-2.1,0.7C778.5,841.5,777.7,841.6,776.8,841.6z"/>
	<path class="st7" d="M791.9,841.6c-2,0-3.5-0.6-4.4-1.7c-0.9-1.1-1.4-2.8-1.4-5v-10.4h2.9v10c0,1.6,0.3,2.8,0.9,3.5
		c0.6,0.8,1.6,1.2,3,1.2c1,0,1.8-0.2,2.6-0.7s1.6-1.3,2.6-2.4v-11.6h2.8v16.7h-2.3l-0.2-2.9h-0.1c-0.9,1-1.8,1.8-2.8,2.4
		S793.2,841.6,791.9,841.6z"/>
	<path class="st7" d="M815.5,841.6c-1.7,0-3.2-0.3-4.6-1c-1.4-0.7-2.5-1.7-3.3-3s-1.2-2.9-1.2-4.8c0-1.8,0.4-3.4,1.2-4.7
		s1.9-2.3,3.2-3s2.7-1.1,4.2-1.1c2.4,0,4.3,0.7,5.6,2.2s2,3.3,2,5.7c0,0.3,0,0.6,0,0.9c0,0.3-0.1,0.6-0.1,0.8h-13.2
		c0.2,1.9,0.9,3.3,2.1,4.3s2.7,1.4,4.4,1.4c1,0,1.9-0.1,2.7-0.4s1.6-0.7,2.4-1.2l1,1.9c-0.8,0.6-1.8,1-2.8,1.4
		C818.1,841.4,816.9,841.6,815.5,841.6z M815.1,826.3c-1.4,0-2.6,0.4-3.7,1.3c-1.1,0.9-1.7,2.2-2,3.8h10.7c-0.1-1.7-0.6-3-1.5-3.9
		C817.7,826.7,816.5,826.3,815.1,826.3z"/>
	<path class="st7" d="M832.4,848.5l-0.8-1.8c1.4-0.6,2.5-1.4,3.2-2.3c0.7-0.9,1.1-2.1,1.1-3.4c-0.1,0-0.2,0-0.3,0.1
		c-0.1,0-0.2,0-0.3,0c-0.7,0-1.4-0.2-1.9-0.7c-0.5-0.4-0.8-1.1-0.8-1.9s0.3-1.5,0.8-1.9c0.6-0.4,1.2-0.7,1.9-0.7
		c1,0,1.8,0.4,2.3,1.2s0.8,1.9,0.8,3.2c0,2-0.5,3.7-1.6,5.1S834.3,847.8,832.4,848.5z"/>
	<path class="st7" d="M874.5,841.2v-14.4h-4.8v-2.1l4.8-0.2V823c0-2,0.6-3.7,1.7-4.9c1.1-1.2,2.8-1.9,5.1-1.9c1.7,0,3.3,0.3,4.8,1
		l-0.7,2.1c-0.7-0.3-1.3-0.5-1.9-0.6s-1.2-0.2-2-0.2c-1.5,0-2.6,0.4-3.2,1.2s-1,1.8-1,3.2v1.5h7v2.3h-7v14.4h-2.8V841.2z"/>
	<path class="st7" d="M891.9,841.2v-16.7h2.3l0.2,4h0.1c0.9-1.4,2-2.4,3.2-3.2c1.3-0.8,2.7-1.2,4.2-1.2c0.6,0,1.2,0.1,1.7,0.2
		s1.1,0.3,1.6,0.5l-0.7,2.4c-0.6-0.2-1.1-0.4-1.5-0.4c-0.4-0.1-1-0.1-1.6-0.1c-1.3,0-2.5,0.4-3.6,1.1s-2.2,2-3.3,3.7v9.8
		L891.9,841.2L891.9,841.2z"/>
	<path class="st7" d="M917.8,841.6c-1.5,0-2.8-0.3-4.1-1s-2.3-1.7-3-3s-1.2-2.9-1.2-4.7c0-1.9,0.4-3.5,1.2-4.8s1.8-2.3,3-3
		s2.6-1,4.1-1s2.8,0.3,4.1,1s2.3,1.7,3,3c0.8,1.3,1.2,2.9,1.2,4.8c0,1.8-0.4,3.4-1.2,4.7s-1.8,2.3-3,3
		C920.7,841.3,919.3,841.6,917.8,841.6z M917.8,839.3c1.6,0,2.9-0.6,3.9-1.8s1.5-2.7,1.5-4.6c0-1.9-0.5-3.5-1.5-4.7
		s-2.3-1.8-3.9-1.8c-1.6,0-2.9,0.6-3.9,1.8s-1.5,2.8-1.5,4.7s0.5,3.5,1.5,4.6C914.9,838.7,916.2,839.3,917.8,839.3z"/>
	<path class="st7" d="M930.2,841.2v-16.7h2.3l0.2,2.2h0.1c0.4-0.8,0.9-1.4,1.5-1.9s1.3-0.7,2.3-0.7c1.6,0,2.7,1,3.2,2.9
		c0.5-0.9,1-1.6,1.6-2.1s1.4-0.8,2.3-0.8c1.2,0,2.1,0.4,2.7,1.3c0.7,0.9,1,2.2,1,3.8v12h-2.8v-11.8c0-2-0.6-2.9-1.8-2.9
		c-0.6,0-1.1,0.2-1.4,0.6c-0.4,0.4-0.8,1.1-1.3,1.9v12.1h-2.6v-11.8c0-1-0.1-1.7-0.4-2.2c-0.3-0.5-0.7-0.7-1.3-0.7s-1.1,0.2-1.5,0.6
		c-0.4,0.4-0.8,1.1-1.3,1.9V841h-2.8V841.2z"/>
	<path class="st7" d="M972.9,846.4v-1.6h1.8c1.2,0,2.1-0.1,2.7-0.3c0.6-0.2,1-0.5,1.3-1s0.3-1.1,0.3-1.8c0-1.1,0-2.1-0.1-3
		c-0.1-1-0.1-2-0.1-3.2c0-1.1,0.2-2,0.7-2.6s1.3-1,2.4-1.2v-0.1c-1.2-0.2-2-0.6-2.4-1.2s-0.7-1.4-0.7-2.6c0-1.1,0-2.1,0.1-3.2
		c0.1-1,0.1-2.1,0.1-3c0-0.8-0.1-1.4-0.3-1.8s-0.7-0.8-1.3-1s-1.5-0.3-2.7-0.3h-1.8v-1.6h2.1c2.2,0,3.8,0.3,4.8,1
		c1,0.6,1.6,1.8,1.6,3.6c0,1.2-0.1,2.3-0.2,3.4c-0.1,1.1-0.2,2.2-0.2,3.2c0,0.4,0.1,0.9,0.4,1.3c0.3,0.4,0.8,0.7,1.5,1
		s1.8,0.4,3.1,0.4v1.8c-1.4,0-2.4,0.1-3.1,0.4c-0.7,0.3-1.2,0.6-1.5,1s-0.4,0.8-0.4,1.3c0,1.1,0.1,2.2,0.2,3.2
		c0.1,1,0.2,2.1,0.2,3.4c0,1.8-0.5,3-1.6,3.6c-1,0.6-2.6,1-4.8,1h-2.1V846.4z"/>
	<path class="st7" d="M458.4,888.6l-1.6-1.4c2.3-2,4-4.1,5.1-6.4s1.6-4.9,1.6-7.8s-0.5-5.5-1.6-7.8s-2.8-4.4-5.1-6.4l1.6-1.4
		c2.4,1.9,4.3,4.1,5.7,6.7c1.4,2.6,2.1,5.6,2.1,8.9s-0.7,6.3-2.1,8.9S460.8,886.7,458.4,888.6z"/>
	<path class="st7" d="M480.9,889.9l-0.8-1.8c1.4-0.6,2.5-1.4,3.2-2.3c0.7-0.9,1.1-2.1,1.1-3.4c-0.1,0-0.2,0-0.3,0.1
		c-0.1,0-0.2,0-0.3,0c-0.7,0-1.4-0.2-1.9-0.7c-0.5-0.4-0.8-1.1-0.8-1.9s0.3-1.5,0.8-1.9c0.6-0.4,1.2-0.7,1.9-0.7
		c1,0,1.8,0.4,2.3,1.2s0.8,1.9,0.8,3.2c0,2-0.5,3.7-1.6,5.1S482.8,889.2,480.9,889.9z M483.7,870.6c-0.8,0-1.4-0.3-2-0.8
		c-0.5-0.5-0.8-1.2-0.8-2.1c0-0.9,0.3-1.6,0.8-2.1s1.2-0.8,2-0.8s1.4,0.3,2,0.8s0.8,1.2,0.8,2.1c0,0.8-0.3,1.5-0.8,2.1
		C485.1,870.4,484.5,870.6,483.7,870.6z"/>
</g>
<g>
	<path d="M590.4,580.2v-28.1h11c2.5,0,4.6,0.4,6.3,1.2s3.1,1.9,4,3.4s1.4,3.2,1.4,5.3s-0.5,3.8-1.4,5.2c-0.9,1.5-2.3,2.6-4,3.4
		s-3.8,1.2-6.3,1.2h-8.8l1.8-1.8v10.4h-4V580.2z M594.4,570.2l-1.8-2h8.6c2.6,0,4.5-0.6,5.8-1.7c1.3-1.1,2-2.7,2-4.7s-0.7-3.6-2-4.7
		c-1.3-1.1-3.3-1.6-5.8-1.6h-8.6l1.8-2V570.2z M609.2,580.2L602,570h4.3l7.2,10.2H609.2z"/>
	<path d="M619.6,580.2v-28.1h11c2.5,0,4.6,0.4,6.3,1.2s3.1,1.9,4,3.4s1.4,3.2,1.4,5.3s-0.5,3.8-1.4,5.2c-0.9,1.5-2.3,2.6-4,3.4
		c-1.7,0.8-3.8,1.2-6.3,1.2h-8.8l1.8-1.9v10.4h-4V580.2z M623.7,570.2l-1.8-2h8.6c2.6,0,4.5-0.5,5.8-1.6s2-2.7,2-4.7s-0.7-3.6-2-4.7
		c-1.3-1.1-3.3-1.6-5.8-1.6h-8.6l1.8-2V570.2z"/>
	<path d="M661.2,580.5c-2.1,0-4.1-0.4-5.9-1.1c-1.8-0.7-3.4-1.7-4.7-3s-2.4-2.8-3.1-4.6c-0.8-1.7-1.1-3.7-1.1-5.7
		c0-2.1,0.4-4,1.1-5.7c0.8-1.7,1.8-3.3,3.1-4.6s2.9-2.3,4.7-3s3.8-1.1,5.9-1.1c2.2,0,4.2,0.4,6,1.1c1.8,0.7,3.4,1.8,4.7,3.3
		l-2.6,2.5c-1.1-1.1-2.3-2-3.6-2.5s-2.8-0.8-4.3-0.8c-1.6,0-3,0.3-4.4,0.8s-2.5,1.3-3.5,2.3s-1.8,2.1-2.3,3.4
		c-0.5,1.3-0.8,2.8-0.8,4.3c0,1.6,0.3,3,0.8,4.3s1.3,2.5,2.3,3.4s2.2,1.7,3.5,2.3c1.4,0.5,2.8,0.8,4.4,0.8c1.5,0,3-0.3,4.3-0.8
		s2.5-1.4,3.6-2.6l2.6,2.5c-1.3,1.4-2.8,2.5-4.7,3.3S663.4,580.5,661.2,580.5z"/>
	<path d="M692.6,576.7H709v3.5h-20.4v-28.1h19.9v3.5h-15.8v21.1H692.6z M692.2,564.2h14.5v3.4h-14.5V564.2z"/>
	<path d="M726.3,558.7c1.7,0,3.3,0.3,4.6,1s2.4,1.7,3.1,3.1c0.8,1.4,1.1,3.1,1.1,5.2v12.3h-3.9v-11.8c0-2.1-0.5-3.6-1.5-4.7
		c-1-1-2.4-1.6-4.2-1.6c-1.4,0-2.6,0.3-3.6,0.8s-1.8,1.3-2.4,2.4c-0.5,1-0.8,2.3-0.8,3.9v11h-3.9V559h3.7v5.7l-0.6-1.5
		c0.7-1.4,1.8-2.5,3.2-3.3C722.7,559.1,724.4,558.7,726.3,558.7z"/>
	<path d="M751.1,580.4c-2.1,0-3.9-0.5-5.5-1.4s-2.9-2.2-3.8-3.8c-0.9-1.6-1.4-3.5-1.4-5.7s0.5-4.1,1.4-5.7c0.9-1.6,2.2-2.9,3.8-3.8
		c1.6-0.9,3.5-1.4,5.5-1.4c1.8,0,3.4,0.4,4.9,1.2c1.4,0.8,2.6,2,3.5,3.6s1.3,3.6,1.3,6s-0.4,4.4-1.3,6c-0.8,1.6-2,2.8-3.4,3.6
		C754.6,580,752.9,580.4,751.1,580.4z M751.4,577.1c1.3,0,2.6-0.3,3.6-0.9c1.1-0.6,1.9-1.5,2.6-2.6c0.6-1.1,0.9-2.5,0.9-4
		s-0.3-2.8-0.9-4c-0.6-1.1-1.5-2-2.6-2.6s-2.3-0.9-3.6-0.9c-1.4,0-2.6,0.3-3.7,0.9c-1.1,0.6-1.9,1.5-2.6,2.6c-0.6,1.1-1,2.4-1,4
		c0,1.5,0.3,2.8,1,4c0.6,1.1,1.5,2,2.6,2.6C748.8,576.8,750,577.1,751.4,577.1z M758.7,580.2v-5.7l0.2-4.9l-0.4-4.9v-14.2h3.9v29.8
		L758.7,580.2L758.7,580.2z"/>
	<path d="M769.7,588v-29.1h3.7v5.7l-0.2,4.9l0.4,4.9V588H769.7z M781,580.4c-1.8,0-3.4-0.4-4.8-1.2c-1.5-0.8-2.6-2-3.5-3.6
		s-1.3-3.6-1.3-6s0.4-4.4,1.3-6c0.8-1.6,2-2.8,3.5-3.6s3.1-1.2,4.9-1.2c2.1,0,3.9,0.5,5.5,1.4s2.9,2.2,3.8,3.8
		c0.9,1.6,1.4,3.5,1.4,5.7s-0.5,4.1-1.4,5.7c-0.9,1.6-2.2,2.9-3.8,3.8C784.9,580,783.1,580.4,781,580.4z M780.7,577.1
		c1.4,0,2.6-0.3,3.7-0.9c1.1-0.6,1.9-1.5,2.6-2.6c0.6-1.1,0.9-2.5,0.9-4s-0.3-2.8-0.9-4c-0.6-1.1-1.5-2-2.6-2.6s-2.3-0.9-3.7-0.9
		c-1.3,0-2.6,0.3-3.6,0.9c-1.1,0.6-1.9,1.5-2.6,2.6c-0.6,1.1-0.9,2.4-0.9,4c0,1.5,0.3,2.8,0.9,4c0.6,1.1,1.5,2,2.6,2.6
		C778.1,576.8,779.3,577.1,780.7,577.1z"/>
	<path d="M806.2,580.4c-2.1,0-4-0.5-5.7-1.4s-3-2.2-3.9-3.9s-1.4-3.5-1.4-5.6s0.5-4,1.4-5.6s2.3-2.9,3.9-3.8
		c1.7-0.9,3.6-1.4,5.7-1.4c2.1,0,4,0.5,5.7,1.4s3,2.2,3.9,3.8c1,1.6,1.4,3.5,1.4,5.6s-0.5,4-1.4,5.6c-1,1.6-2.3,2.9-3.9,3.9
		S808.4,580.4,806.2,580.4z M806.2,577.1c1.4,0,2.6-0.3,3.7-0.9c1.1-0.6,1.9-1.5,2.6-2.6c0.6-1.1,0.9-2.5,0.9-4s-0.3-2.8-0.9-4
		c-0.6-1.1-1.5-2-2.6-2.6s-2.3-0.9-3.7-0.9s-2.6,0.3-3.7,0.9c-1.1,0.6-1.9,1.5-2.6,2.6c-0.6,1.1-1,2.4-1,4c0,1.5,0.3,2.8,1,4
		c0.6,1.1,1.5,2,2.6,2.6C803.7,576.8,804.9,577.1,806.2,577.1z"/>
	<path d="M824.6,554.8c-0.8,0-1.4-0.2-1.9-0.7s-0.7-1.1-0.7-1.8s0.2-1.3,0.7-1.8s1.1-0.7,1.9-0.7c0.8,0,1.4,0.2,1.9,0.7
		s0.7,1.1,0.7,1.7c0,0.7-0.2,1.3-0.7,1.8S825.4,554.8,824.6,554.8z M822.6,580.2v-21.3h3.9v21.3H822.6z"/>
	<path d="M845.2,558.7c1.7,0,3.3,0.3,4.6,1s2.4,1.7,3.1,3.1c0.8,1.4,1.1,3.1,1.1,5.2v12.3h-3.9v-11.8c0-2.1-0.5-3.6-1.5-4.7
		c-1-1-2.4-1.6-4.2-1.6c-1.4,0-2.6,0.3-3.6,0.8s-1.8,1.3-2.4,2.4c-0.5,1-0.8,2.3-0.8,3.9v11h-3.9V559h3.7v5.7l-0.6-1.5
		c0.7-1.4,1.8-2.5,3.2-3.3C841.6,559.1,843.3,558.7,845.2,558.7z"/>
	<path d="M858.2,562.1v-3.2h13.6v3.2H858.2z M868.6,580.4c-2.1,0-3.8-0.6-5-1.7c-1.2-1.2-1.8-2.8-1.8-4.9v-19.5h3.9v19.4
		c0,1.2,0.3,2,0.9,2.7s1.4,0.9,2.5,0.9c1.2,0,2.2-0.3,3-1l1.2,2.8c-0.6,0.5-1.3,0.9-2.1,1.1C870.3,580.3,869.4,580.4,868.6,580.4z"
		/>
</g>
<g>
	<path d="M401.2,733.8c-2.1,0-4.2-0.3-6.2-1s-3.5-1.5-4.6-2.6l1.5-3.1c1.1,0.9,2.4,1.7,4.1,2.3s3.4,0.9,5.2,0.9c1.6,0,3-0.2,4-0.6
		c1-0.4,1.8-0.9,2.3-1.5c0.5-0.7,0.7-1.4,0.7-2.2c0-1-0.3-1.7-0.9-2.3s-1.4-1.1-2.5-1.4c-1-0.4-2.1-0.7-3.3-0.9
		c-1.2-0.3-2.4-0.6-3.6-0.9c-1.2-0.4-2.3-0.8-3.3-1.4c-1-0.6-1.8-1.3-2.4-2.3s-0.9-2.2-0.9-3.7c0-1.4,0.4-2.8,1.1-4
		c0.8-1.2,1.9-2.2,3.5-2.9s3.6-1.1,6.1-1.1c1.6,0,3.3,0.2,4.9,0.6s3,1,4.2,1.8l-1.3,3.2c-1.2-0.8-2.5-1.4-3.8-1.7
		c-1.3-0.4-2.6-0.5-3.9-0.5c-1.6,0-2.9,0.2-3.9,0.6c-1,0.4-1.8,0.9-2.2,1.6s-0.7,1.4-0.7,2.3c0,1,0.3,1.8,0.9,2.4
		c0.6,0.6,1.4,1.1,2.5,1.4c1,0.3,2.1,0.7,3.3,0.9s2.4,0.6,3.6,0.9c1.2,0.3,2.3,0.8,3.3,1.4c1,0.6,1.8,1.3,2.4,2.3
		c0.6,0.9,0.9,2.1,0.9,3.6c0,1.4-0.4,2.7-1.2,4c-0.8,1.2-2,2.2-3.6,2.9C405.7,733.4,403.7,733.8,401.2,733.8z"/>
	<path d="M426.4,733.7c-1.8,0-3.4-0.3-4.8-1s-2.5-1.7-3.2-3.1c-0.8-1.4-1.1-3.1-1.1-5.2v-12.3h3.9V724c0,2.1,0.5,3.7,1.5,4.7
		s2.4,1.6,4.2,1.6c1.3,0,2.5-0.3,3.5-0.8s1.8-1.4,2.3-2.4c0.5-1.1,0.8-2.3,0.8-3.8v-11h3.9v21.3h-3.7v-5.7l0.6,1.5
		c-0.7,1.4-1.7,2.5-3.1,3.3C429.7,733.3,428.1,733.7,426.4,733.7z"/>
	<path d="M444.6,733.5v-29.8h3.9v14.2l-0.4,4.9l0.2,4.9v5.7L444.6,733.5L444.6,733.5z M455.9,733.7c-1.8,0-3.5-0.4-4.9-1.2
		c-1.5-0.8-2.6-2-3.5-3.6c-0.8-1.6-1.3-3.6-1.3-6s0.4-4.4,1.3-6s2-2.8,3.5-3.6s3.1-1.2,4.8-1.2c2.1,0,3.9,0.5,5.5,1.4
		s2.9,2.2,3.8,3.8s1.4,3.5,1.4,5.7s-0.5,4.1-1.4,5.7c-0.9,1.6-2.2,2.9-3.8,3.8C459.9,733.3,458,733.7,455.9,733.7z M455.6,730.4
		c1.4,0,2.6-0.3,3.7-0.9c1.1-0.6,1.9-1.5,2.6-2.6c0.6-1.1,0.9-2.5,0.9-4s-0.3-2.8-0.9-4c-0.6-1.1-1.5-2-2.6-2.6s-2.3-0.9-3.7-0.9
		c-1.3,0-2.6,0.3-3.6,0.9c-1.1,0.6-1.9,1.5-2.6,2.6c-0.6,1.1-0.9,2.4-0.9,4c0,1.5,0.3,2.8,0.9,4c0.6,1.1,1.5,2,2.6,2.6
		C453.1,730,454.3,730.4,455.6,730.4z"/>
	<path d="M478.2,733.7c-1.8,0-3.5-0.2-5-0.7c-1.6-0.5-2.8-1.1-3.8-1.8l1.6-3.1c0.9,0.6,2,1.1,3.4,1.6s2.7,0.6,4.1,0.6
		c1.8,0,3.1-0.3,3.9-0.8s1.2-1.2,1.2-2.1c0-0.7-0.2-1.2-0.7-1.6c-0.5-0.4-1.1-0.7-1.9-0.8c-0.8-0.2-1.7-0.4-2.6-0.5
		c-1-0.1-1.9-0.3-2.9-0.6s-1.8-0.5-2.7-1c-0.8-0.4-1.4-1-1.9-1.7s-0.7-1.7-0.7-3s0.4-2.4,1.1-3.4s1.7-1.7,3.1-2.2
		c1.3-0.5,2.9-0.8,4.7-0.8c1.4,0,2.8,0.2,4.2,0.5c1.4,0.3,2.6,0.8,3.5,1.4L485,717c-1-0.6-2-1.1-3-1.3s-2.1-0.4-3.1-0.4
		c-1.7,0-2.9,0.3-3.8,0.8c-0.8,0.5-1.2,1.3-1.2,2.1c0,0.7,0.2,1.3,0.7,1.7s1.1,0.7,1.9,0.9s1.7,0.4,2.6,0.5c1,0.1,1.9,0.3,2.9,0.6
		s1.8,0.5,2.6,0.9c0.8,0.4,1.4,1,1.9,1.7s0.7,1.7,0.7,2.9c0,1.3-0.4,2.4-1.1,3.3s-1.8,1.7-3.2,2.2
		C481.7,733.5,480.1,733.7,478.2,733.7z"/>
	<path d="M489.1,715.4v-3.2h13.6v3.2H489.1z M499.5,733.7c-2.1,0-3.8-0.6-5-1.7c-1.2-1.2-1.8-2.8-1.8-4.9v-19.5h3.9V727
		c0,1.2,0.3,2,0.9,2.7s1.4,0.9,2.5,0.9c1.2,0,2.2-0.3,3-1l1.2,2.8c-0.6,0.5-1.3,0.9-2.1,1.1C501.3,733.6,500.4,733.7,499.5,733.7z"
		/>
	<path d="M508.8,733.5v-21.3h3.7v5.8l-0.4-1.4c0.6-1.5,1.6-2.6,3-3.4c1.4-0.8,3.1-1.2,5.1-1.2v3.7c-0.2,0-0.3,0-0.5,0
		c-0.1,0-0.3,0-0.4,0c-2.1,0-3.7,0.6-4.9,1.8s-1.8,3-1.8,5.3v10.6h-3.8V733.5z"/>
	<path d="M529.7,733.7c-1.6,0-3-0.3-4.2-0.8s-2.1-1.3-2.8-2.2c-0.6-1-1-2-1-3.2s0.3-2.2,0.8-3.1c0.5-0.9,1.4-1.7,2.7-2.3
		s2.9-0.8,5-0.8h6.8v2.8h-6.6c-1.9,0-3.2,0.3-3.9,1s-1,1.4-1,2.3c0,1,0.4,1.9,1.2,2.5s2,0.9,3.5,0.9c1.4,0,2.7-0.3,3.8-1
		c1.1-0.6,1.9-1.6,2.4-2.8l0.8,2.7c-0.5,1.3-1.4,2.3-2.7,3C533.3,733.4,531.7,733.7,529.7,733.7z M536.7,733.5V729l-0.2-0.8v-7.7
		c0-1.6-0.5-2.9-1.4-3.8c-1-0.9-2.4-1.3-4.3-1.3c-1.3,0-2.5,0.2-3.7,0.6c-1.2,0.4-2.2,1-3.1,1.7l-1.6-2.9c1.1-0.9,2.4-1.6,4-2
		c1.5-0.5,3.2-0.7,4.8-0.7c2.9,0,5.2,0.7,6.8,2.1c1.6,1.4,2.4,3.6,2.4,6.5v12.9L536.7,733.5L536.7,733.5z"/>
	<path d="M544.5,715.4v-3.2h13.6v3.2H544.5z M554.8,733.7c-2.1,0-3.8-0.6-5-1.7c-1.2-1.2-1.8-2.8-1.8-4.9v-19.5h3.9V727
		c0,1.2,0.3,2,0.9,2.7s1.4,0.9,2.5,0.9c1.2,0,2.2-0.3,3-1l1.2,2.8c-0.6,0.5-1.3,0.9-2.1,1.1C556.6,733.6,555.7,733.7,554.8,733.7z"
		/>
	<path d="M572.9,733.7c-2.3,0-4.3-0.5-6-1.4s-3.1-2.2-4-3.9c-1-1.6-1.4-3.5-1.4-5.6s0.5-4,1.4-5.6s2.2-2.9,3.8-3.8
		c1.6-0.9,3.5-1.4,5.5-1.4c2.1,0,3.9,0.5,5.5,1.4s2.8,2.2,3.7,3.8s1.3,3.6,1.3,5.8c0,0.2,0,0.3,0,0.6c0,0.2,0,0.4-0.1,0.6h-18.1
		v-2.8h16.1l-1.6,1c0-1.4-0.3-2.6-0.8-3.7c-0.6-1.1-1.4-1.9-2.4-2.5s-2.2-0.9-3.6-0.9c-1.3,0-2.5,0.3-3.6,0.9
		c-1,0.6-1.9,1.4-2.5,2.5s-0.9,2.3-0.9,3.7v0.6c0,1.4,0.3,2.7,1,3.8s1.6,2,2.8,2.6s2.5,0.9,4.1,0.9c1.3,0,2.4-0.2,3.4-0.6
		c1-0.4,1.9-1.1,2.7-1.9l2.1,2.5c-1,1.1-2.2,2-3.6,2.6C576.3,733.4,574.7,733.7,572.9,733.7z"/>
	<path d="M599.4,733.5v-28.1h3.3l18.6,23.1h-1.7v-23.1h4v28.1h-3.3l-18.6-23.1h1.7v23.1H599.4z"/>
	<path d="M640.6,733.7c-2.1,0-4-0.5-5.7-1.4s-3-2.2-3.9-3.9s-1.4-3.5-1.4-5.6s0.5-4,1.4-5.6s2.3-2.9,3.9-3.8
		c1.7-0.9,3.6-1.4,5.7-1.4c2.1,0,4,0.5,5.7,1.4s3,2.2,3.9,3.8c1,1.6,1.4,3.5,1.4,5.6s-0.5,4-1.4,5.6c-1,1.6-2.3,2.9-3.9,3.9
		C644.6,733.3,642.7,733.7,640.6,733.7z M640.6,730.4c1.4,0,2.6-0.3,3.7-0.9c1.1-0.6,1.9-1.5,2.6-2.6c0.6-1.1,0.9-2.5,0.9-4
		s-0.3-2.8-0.9-4c-0.6-1.1-1.5-2-2.6-2.6s-2.3-0.9-3.7-0.9s-2.6,0.3-3.7,0.9c-1.1,0.6-1.9,1.5-2.6,2.6c-0.6,1.1-1,2.4-1,4
		c0,1.5,0.3,2.8,1,4c0.6,1.1,1.5,2,2.6,2.6C638,730,639.3,730.4,640.6,730.4z"/>
	<path d="M665.8,733.7c-2.1,0-3.9-0.5-5.5-1.4s-2.9-2.2-3.8-3.8c-0.9-1.6-1.4-3.5-1.4-5.7s0.5-4.1,1.4-5.7c0.9-1.6,2.2-2.9,3.8-3.8
		c1.6-0.9,3.5-1.4,5.5-1.4c1.8,0,3.4,0.4,4.9,1.2c1.4,0.8,2.6,2,3.5,3.6s1.3,3.6,1.3,6s-0.4,4.4-1.3,6c-0.8,1.6-2,2.8-3.4,3.6
		C669.3,733.3,667.7,733.7,665.8,733.7z M666.1,730.4c1.3,0,2.6-0.3,3.6-0.9c1.1-0.6,1.9-1.5,2.6-2.6c0.6-1.1,0.9-2.5,0.9-4
		s-0.3-2.8-0.9-4c-0.6-1.1-1.5-2-2.6-2.6s-2.3-0.9-3.6-0.9c-1.4,0-2.6,0.3-3.7,0.9c-1.1,0.6-1.9,1.5-2.6,2.6c-0.6,1.1-1,2.4-1,4
		c0,1.5,0.3,2.8,1,4c0.6,1.1,1.5,2,2.6,2.6C663.6,730,664.8,730.4,666.1,730.4z M673.4,733.5v-5.7l0.2-4.9l-0.4-4.9v-14.2h3.9v29.8
		L673.4,733.5L673.4,733.5z"/>
	<path d="M693.9,733.7c-2.3,0-4.3-0.5-6-1.4s-3.1-2.2-4-3.9c-1-1.6-1.4-3.5-1.4-5.6s0.5-4,1.4-5.6s2.2-2.9,3.8-3.8
		c1.6-0.9,3.5-1.4,5.5-1.4c2.1,0,3.9,0.5,5.5,1.4s2.8,2.2,3.7,3.8s1.3,3.6,1.3,5.8c0,0.2,0,0.3,0,0.6c0,0.2,0,0.4-0.1,0.6h-18.1
		v-2.8h16.1l-1.6,1c0-1.4-0.3-2.6-0.8-3.7c-0.6-1.1-1.4-1.9-2.4-2.5s-2.2-0.9-3.6-0.9c-1.3,0-2.5,0.3-3.6,0.9
		c-1,0.6-1.9,1.4-2.5,2.5s-0.9,2.3-0.9,3.7v0.6c0,1.4,0.3,2.7,1,3.8s1.6,2,2.8,2.6s2.5,0.9,4.1,0.9c1.3,0,2.4-0.2,3.4-0.6
		c1-0.4,1.9-1.1,2.7-1.9l2.1,2.5c-1,1.1-2.2,2-3.6,2.6C697.3,733.4,695.7,733.7,693.9,733.7z"/>
	<path d="M718.9,721v-3.2h18v3.2H718.9z M726.2,728.2v-17.6h3.4v17.6H726.2z"/>
	<path d="M754.1,741.3v-29.1h3.7v5.7l-0.2,4.9l0.4,4.9v13.5L754.1,741.3L754.1,741.3z M765.4,733.7c-1.8,0-3.4-0.4-4.8-1.2
		c-1.5-0.8-2.6-2-3.5-3.6s-1.3-3.6-1.3-6s0.4-4.4,1.3-6c0.8-1.6,2-2.8,3.5-3.6s3.1-1.2,4.9-1.2c2.1,0,3.9,0.5,5.5,1.4
		s2.9,2.2,3.8,3.8c0.9,1.6,1.4,3.5,1.4,5.7s-0.5,4.1-1.4,5.7c-0.9,1.6-2.2,2.9-3.8,3.8C769.3,733.3,767.5,733.7,765.4,733.7z
		 M765,730.4c1.4,0,2.6-0.3,3.7-0.9c1.1-0.6,1.9-1.5,2.6-2.6c0.6-1.1,0.9-2.5,0.9-4s-0.3-2.8-0.9-4c-0.6-1.1-1.5-2-2.6-2.6
		s-2.3-0.9-3.7-0.9c-1.3,0-2.6,0.3-3.6,0.9c-1.1,0.6-1.9,1.5-2.6,2.6c-0.6,1.1-0.9,2.4-0.9,4c0,1.5,0.3,2.8,0.9,4
		c0.6,1.1,1.5,2,2.6,2.6C762.5,730,763.7,730.4,765,730.4z"/>
	<path d="M787.5,733.7c-1.6,0-3-0.3-4.2-0.8s-2.1-1.3-2.8-2.2c-0.6-1-1-2-1-3.2s0.3-2.2,0.8-3.1c0.5-0.9,1.4-1.7,2.7-2.3
		s2.9-0.8,5-0.8h6.8v2.8h-6.6c-1.9,0-3.2,0.3-3.9,1s-1,1.4-1,2.3c0,1,0.4,1.9,1.2,2.5s2,0.9,3.5,0.9c1.4,0,2.7-0.3,3.8-1
		c1.1-0.6,1.9-1.6,2.4-2.8l0.8,2.7c-0.5,1.3-1.4,2.3-2.7,3C791.1,733.4,789.5,733.7,787.5,733.7z M794.5,733.5V729l-0.2-0.8v-7.7
		c0-1.6-0.5-2.9-1.4-3.8c-1-0.9-2.4-1.3-4.3-1.3c-1.3,0-2.5,0.2-3.7,0.6c-1.2,0.4-2.2,1-3.1,1.7l-1.6-2.9c1.1-0.9,2.4-1.6,4-2
		c1.5-0.5,3.2-0.7,4.8-0.7c2.9,0,5.2,0.7,6.8,2.1c1.6,1.4,2.4,3.6,2.4,6.5v12.9L794.5,733.5L794.5,733.5z"/>
	<path d="M805.3,733.5v-29.8h3.9v29.8H805.3z"/>
	<path d="M816.5,733.5v-29.8h3.9v29.8H816.5z"/>
	<path d="M837.2,733.7c-2.3,0-4.3-0.5-6-1.4s-3.1-2.2-4-3.9c-1-1.6-1.4-3.5-1.4-5.6s0.5-4,1.4-5.6s2.2-2.9,3.8-3.8
		c1.6-0.9,3.5-1.4,5.5-1.4c2.1,0,3.9,0.5,5.5,1.4s2.8,2.2,3.7,3.8s1.3,3.6,1.3,5.8c0,0.2,0,0.3,0,0.6c0,0.2,0,0.4-0.1,0.6h-18.1
		v-2.8h16.1l-1.6,1c0-1.4-0.3-2.6-0.8-3.7c-0.6-1.1-1.4-1.9-2.4-2.5s-2.2-0.9-3.6-0.9c-1.3,0-2.5,0.3-3.6,0.9
		c-1,0.6-1.9,1.4-2.5,2.5s-0.9,2.3-0.9,3.7v0.6c0,1.4,0.3,2.7,1,3.8s1.6,2,2.8,2.6s2.5,0.9,4.1,0.9c1.3,0,2.4-0.2,3.4-0.6
		c1-0.4,1.9-1.1,2.7-1.9l2.1,2.5c-1,1.1-2.2,2-3.6,2.6C840.6,733.4,839,733.7,837.2,733.7z"/>
	<path d="M849.3,715.4v-3.2h13.6v3.2H849.3z M859.7,733.7c-2.1,0-3.8-0.6-5-1.7c-1.2-1.2-1.8-2.8-1.8-4.9v-19.5h3.9V727
		c0,1.2,0.3,2,0.9,2.7s1.4,0.9,2.5,0.9c1.2,0,2.2-0.3,3-1l1.2,2.8c-0.6,0.5-1.3,0.9-2.1,1.1C861.4,733.6,860.6,733.7,859.7,733.7z"
		/>
	<path d="M867.2,724.1v-3.3H878v3.3H867.2z"/>
	<path d="M893.7,733.7c-2.2,0-4.1-0.5-5.8-1.4s-3-2.2-4-3.9c-1-1.6-1.4-3.5-1.4-5.6s0.5-4,1.4-5.6s2.3-2.9,4-3.8
		c1.7-0.9,3.6-1.4,5.8-1.4c1.9,0,3.7,0.4,5.2,1.1c1.5,0.8,2.7,1.9,3.5,3.4l-2.9,1.9c-0.7-1-1.5-1.8-2.6-2.3c-1-0.5-2.1-0.7-3.2-0.7
		c-1.4,0-2.6,0.3-3.7,0.9c-1.1,0.6-2,1.5-2.6,2.6s-1,2.4-1,4s0.3,2.9,1,4c0.6,1.1,1.5,2,2.6,2.6s2.3,0.9,3.7,0.9
		c1.2,0,2.2-0.2,3.2-0.7s1.9-1.3,2.6-2.3l2.9,1.8c-0.8,1.5-2,2.6-3.5,3.4C897.3,733.3,895.6,733.7,893.7,733.7z"/>
	<path d="M916.2,733.7c-2.1,0-4-0.5-5.7-1.4s-3-2.2-3.9-3.9s-1.4-3.5-1.4-5.6s0.5-4,1.4-5.6s2.3-2.9,3.9-3.8
		c1.7-0.9,3.6-1.4,5.7-1.4c2.1,0,4,0.5,5.7,1.4s3,2.2,3.9,3.8c1,1.6,1.4,3.5,1.4,5.6s-0.5,4-1.4,5.6c-1,1.6-2.3,2.9-3.9,3.9
		C920.2,733.3,918.3,733.7,916.2,733.7z M916.2,730.4c1.4,0,2.6-0.3,3.7-0.9c1.1-0.6,1.9-1.5,2.6-2.6c0.6-1.1,0.9-2.5,0.9-4
		s-0.3-2.8-0.9-4c-0.6-1.1-1.5-2-2.6-2.6s-2.3-0.9-3.7-0.9s-2.6,0.3-3.7,0.9c-1.1,0.6-1.9,1.5-2.6,2.6c-0.6,1.1-1,2.4-1,4
		c0,1.5,0.3,2.8,1,4c0.6,1.1,1.5,2,2.6,2.6C913.6,730,914.8,730.4,916.2,730.4z"/>
	<path d="M943.9,712c1.7,0,3.3,0.3,4.6,1s2.4,1.7,3.1,3.1c0.8,1.4,1.1,3.1,1.1,5.2v12.3h-3.9v-11.8c0-2.1-0.5-3.6-1.5-4.7
		c-1-1-2.4-1.6-4.2-1.6c-1.4,0-2.6,0.3-3.6,0.8s-1.8,1.3-2.4,2.4c-0.5,1-0.8,2.3-0.8,3.9v11h-3.9v-21.3h3.7v5.7l-0.6-1.5
		c0.7-1.4,1.8-2.5,3.2-3.3C940.3,712.4,942,712,943.9,712z"/>
	<path d="M956.9,715.4v-3.2h13.6v3.2H956.9z M967.2,733.7c-2.1,0-3.8-0.6-5-1.7c-1.2-1.2-1.8-2.8-1.8-4.9v-19.5h3.9V727
		c0,1.2,0.3,2,0.9,2.7s1.4,0.9,2.5,0.9c1.2,0,2.2-0.3,3-1l1.2,2.8c-0.6,0.5-1.3,0.9-2.1,1.1C969,733.6,968.1,733.7,967.2,733.7z"/>
	<path d="M976.6,733.5v-21.3h3.7v5.8l-0.4-1.4c0.6-1.5,1.6-2.6,3-3.4c1.4-0.8,3.1-1.2,5.1-1.2v3.7c-0.2,0-0.3,0-0.5,0
		c-0.1,0-0.3,0-0.4,0c-2.1,0-3.7,0.6-4.9,1.8s-1.8,3-1.8,5.3v10.6h-3.8V733.5z"/>
	<path d="M997.4,733.7c-1.6,0-3-0.3-4.2-0.8s-2.1-1.3-2.8-2.2c-0.6-1-1-2-1-3.2s0.3-2.2,0.8-3.1c0.5-0.9,1.4-1.7,2.7-2.3
		s2.9-0.8,5-0.8h6.8v2.8h-6.6c-1.9,0-3.2,0.3-3.9,1s-1,1.4-1,2.3c0,1,0.4,1.9,1.2,2.5s2,0.9,3.5,0.9c1.4,0,2.7-0.3,3.8-1
		c1.1-0.6,1.9-1.6,2.4-2.8l0.8,2.7c-0.5,1.3-1.4,2.3-2.7,3C1001,733.4,999.4,733.7,997.4,733.7z M1004.4,733.5V729l-0.2-0.8v-7.7
		c0-1.6-0.5-2.9-1.4-3.8c-1-0.9-2.4-1.3-4.3-1.3c-1.3,0-2.5,0.2-3.7,0.6c-1.2,0.4-2.2,1-3.1,1.7l-1.6-2.9c1.1-0.9,2.4-1.6,4-2
		c1.5-0.5,3.2-0.7,4.8-0.7c2.9,0,5.2,0.7,6.8,2.1c1.6,1.4,2.4,3.6,2.4,6.5v12.9L1004.4,733.5L1004.4,733.5z"/>
	<path d="M1024.5,733.7c-2.2,0-4.1-0.5-5.8-1.4s-3-2.2-4-3.9c-1-1.6-1.4-3.5-1.4-5.6s0.5-4,1.4-5.6s2.3-2.9,4-3.8
		c1.7-0.9,3.6-1.4,5.8-1.4c1.9,0,3.7,0.4,5.2,1.1c1.5,0.8,2.7,1.9,3.5,3.4l-2.9,1.9c-0.7-1-1.5-1.8-2.6-2.3c-1-0.5-2.1-0.7-3.2-0.7
		c-1.4,0-2.6,0.3-3.7,0.9c-1.1,0.6-2,1.5-2.6,2.6s-1,2.4-1,4s0.3,2.9,1,4c0.6,1.1,1.5,2,2.6,2.6s2.3,0.9,3.7,0.9
		c1.2,0,2.2-0.2,3.2-0.7s1.9-1.3,2.6-2.3l2.9,1.8c-0.8,1.5-2,2.6-3.5,3.4C1028.2,733.3,1026.5,733.7,1024.5,733.7z"/>
	<path d="M1035.4,715.4v-3.2h13.6v3.2H1035.4z M1045.8,733.7c-2.1,0-3.8-0.6-5-1.7c-1.2-1.2-1.8-2.8-1.8-4.9v-19.5h3.9V727
		c0,1.2,0.3,2,0.9,2.7s1.4,0.9,2.5,0.9c1.2,0,2.2-0.3,3-1l1.2,2.8c-0.6,0.5-1.3,0.9-2.1,1.1C1047.5,733.6,1046.7,733.7,1045.8,733.7
		z"/>
	<path d="M1061.2,733.7c-1.8,0-3.5-0.2-5-0.7c-1.6-0.5-2.8-1.1-3.8-1.8l1.6-3.1c0.9,0.6,2,1.1,3.4,1.6s2.7,0.6,4.1,0.6
		c1.8,0,3.1-0.3,3.9-0.8s1.2-1.2,1.2-2.1c0-0.7-0.2-1.2-0.7-1.6c-0.5-0.4-1.1-0.7-1.9-0.8c-0.8-0.2-1.7-0.4-2.6-0.5
		c-1-0.1-1.9-0.3-2.9-0.6s-1.8-0.5-2.7-1c-0.8-0.4-1.4-1-1.9-1.7s-0.7-1.7-0.7-3s0.4-2.4,1.1-3.4s1.7-1.7,3.1-2.2
		c1.3-0.5,2.9-0.8,4.7-0.8c1.4,0,2.8,0.2,4.2,0.5c1.4,0.3,2.6,0.8,3.5,1.4l-1.6,3.1c-1-0.6-2-1.1-3-1.3s-2.1-0.4-3.1-0.4
		c-1.7,0-2.9,0.3-3.8,0.8c-0.8,0.5-1.2,1.3-1.2,2.1c0,0.7,0.2,1.3,0.7,1.7s1.1,0.7,1.9,0.9s1.7,0.4,2.6,0.5c1,0.1,1.9,0.3,2.9,0.6
		s1.8,0.5,2.6,0.9c0.8,0.4,1.4,1,1.9,1.7s0.7,1.7,0.7,2.9c0,1.3-0.4,2.4-1.1,3.3s-1.8,1.7-3.2,2.2
		C1064.8,733.5,1063.1,733.7,1061.2,733.7z"/>
</g>
<g>
	<path class="st8" d="M168.7,769.9c-4.1,4.1-11.1,2.2-12.7-3.4c-1.5-5.6,3.6-10.8,9.3-9.3S172.9,765.8,168.7,769.9z"/>
</g>
<g>
	<path class="st8" d="M167.7,507.6c-4.2,1.6-8.3-1.3-7.4-5.2c1-3.9,6.3-5.9,9.5-3.6C173.1,501.1,171.9,506,167.7,507.6z"/>
</g>
<g>
	<path class="st8" d="M398.9,523.9c-6.2-3.5-6.7-11.6-1-14.5c5.8-2.9,13.5,1.5,14,7.9C412.4,523.7,405.1,527.4,398.9,523.9z"/>
</g>
<g>
	<g>
		<path class="st9" d="M1379.4,619.7c-163.7-26.6-217.6-233.7-95.9-323.6c127.6-94.3,322.6-22.3,361.6,120.7
			C1684.2,560.1,1540.3,645.9,1379.4,619.7z"/>
	</g>
	<g>
		<path class="st9" d="M1704,469.6c9.2,10.6-0.7,31.7-11.8,35c-12.1,3.6-17.5-12.8-13-24.4C1684,468.2,1696.3,460.7,1704,469.6z"/>
	</g>
	<g>
		<path class="st9" d="M1620,580.1c-8.2,6.7-15.3,10.9-18.4,20c-2.4,7.1-1.2,18.2,13.1,23c21.6,7.2,48.2-8.6,55.2-29.6
			c4.2-12.5,2.2-32.1-12.4-36.8C1643,551.9,1636.5,566.6,1620,580.1z"/>
	</g>
	<g>
		<path class="st9" d="M1653.1,673.4c-9.4,3.2-18.3-3.5-16-12.2c2.3-8.6,14-12.7,21.1-7.3C1665.3,659.4,1662.4,670.2,1653.1,673.4z"
			/>
	</g>
	<g>
		<path class="st10" d="M1299.5,398.9V377h-8.1v-2.6h19.3v2.6h-8.1v21.9H1299.5z"/>
		<path class="st10" d="M1317.7,398.9v-18.1h2.5l0.3,4.3h0.1c0.9-1.5,2.1-2.6,3.5-3.5c1.4-0.8,2.9-1.3,4.6-1.3
			c0.7,0,1.3,0.1,1.9,0.2s1.2,0.3,1.7,0.6l-0.7,2.7c-0.6-0.2-1.2-0.4-1.6-0.5s-1-0.1-1.8-0.1c-1.4,0-2.7,0.4-3.9,1.2
			c-1.3,0.8-2.4,2.1-3.5,4V399h-3.1V398.9z"/>
		<path class="st10" d="M1343.9,399.3c-1.1,0-2.1-0.2-3.1-0.6c-0.9-0.4-1.7-1-2.2-1.8c-0.6-0.8-0.8-1.7-0.8-2.8
			c0-1.4,0.4-2.5,1.3-3.4s2.3-1.6,4.2-2.2c1.9-0.5,4.5-0.9,7.6-1.2c0-0.8-0.2-1.6-0.5-2.3c-0.3-0.7-0.8-1.2-1.5-1.7
			c-0.7-0.4-1.6-0.6-2.8-0.6s-2.3,0.2-3.4,0.7s-2.1,1-2.9,1.5l-1.2-2.1c0.9-0.6,2.1-1.2,3.5-1.8c1.4-0.6,2.9-0.9,4.5-0.9
			c2.5,0,4.3,0.7,5.5,2c1.2,1.4,1.8,3.2,1.8,5.4v11.1h-2.5l-0.3-2.5h-0.1c-1,0.8-2.1,1.5-3.4,2S1345.1,399.3,1343.9,399.3z
			 M1344.7,396.8c1,0,2-0.2,3.1-0.7c1-0.5,2.1-1.1,3.1-2v-4.8c-2.6,0.2-4.6,0.5-6.1,0.9s-2.5,0.9-3.1,1.5s-0.9,1.3-0.9,2.1
			c0,1,0.4,1.8,1.2,2.2C1342.7,396.6,1343.6,396.8,1344.7,396.8z"/>
		<path class="st10" d="M1360.5,398.9v-18.1h2.5l0.3,3.1h0.1c0.9-1,2-1.9,3.1-2.5c1.1-0.7,2.4-1,3.8-1c2.1,0,3.7,0.6,4.7,1.9
			c1,1.2,1.5,3.1,1.5,5.5v11.3h-3.1V388c0-1.7-0.3-3-1-3.8c-0.6-0.8-1.7-1.3-3.2-1.3c-1.1,0-2,0.3-2.9,0.8c-0.8,0.5-1.8,1.4-2.9,2.5
			v12.7L1360.5,398.9L1360.5,398.9z"/>
		<path class="st10" d="M1391,399.3c-1.8,0-3.4-0.3-5-0.8c-1.5-0.6-2.9-1.2-4-2l1.4-2c1,0.7,2.2,1.3,3.5,1.8
			c1.3,0.4,2.7,0.7,4.4,0.7c1.5,0,2.7-0.3,3.5-0.8c0.8-0.6,1.1-1.2,1.1-2c0-0.5-0.1-0.9-0.4-1.3s-0.8-0.7-1.6-1.1
			c-0.8-0.3-2-0.7-3.7-1c-2.3-0.5-4.1-1.2-5.3-2c-1.2-0.8-1.8-1.9-1.8-3.3c0-1.5,0.6-2.7,1.9-3.7s3.1-1.5,5.6-1.5
			c1.4,0,2.7,0.2,4,0.7s2.4,1,3.3,1.6l-1.5,2c-0.8-0.6-1.8-1-2.8-1.4c-1-0.3-2.1-0.5-3.3-0.5c-1.5,0-2.6,0.3-3.2,0.8
			s-0.9,1.1-0.9,1.8c0,0.8,0.4,1.4,1.3,1.8c0.8,0.4,2.2,0.8,4,1.2c2,0.4,3.6,0.9,4.6,1.4c1.1,0.5,1.8,1.1,2.2,1.8
			c0.4,0.7,0.6,1.5,0.6,2.4c0,1-0.3,1.9-0.9,2.7c-0.6,0.8-1.5,1.5-2.7,2S1392.8,399.3,1391,399.3z"/>
		<path class="st10" d="M1410.9,398.9v-15.6h-5.2V381l5.2-0.2v-1.5c0-2.2,0.6-4,1.8-5.3c1.2-1.3,3-2,5.5-2c1.8,0,3.5,0.3,5.2,1
			l-0.7,2.3c-0.7-0.3-1.4-0.6-2.1-0.7c-0.6-0.1-1.3-0.2-2.1-0.2c-1.6,0-2.8,0.4-3.5,1.3c-0.7,0.8-1.1,2-1.1,3.5v1.6h7.6v2.5h-7.6
			v15.6L1410.9,398.9L1410.9,398.9z"/>
		<path class="st10" d="M1436.6,399.3c-1.8,0-3.5-0.4-4.9-1.1s-2.7-1.8-3.5-3.3s-1.3-3.2-1.3-5.2s0.4-3.7,1.3-5.1s2-2.5,3.4-3.3
			s2.9-1.1,4.5-1.1c2.6,0,4.6,0.8,6.1,2.3c1.5,1.6,2.2,3.6,2.2,6.2c0,0.3,0,0.7,0,1s-0.1,0.6-0.1,0.9H1430c0.2,2,1,3.6,2.3,4.6
			s2.9,1.6,4.8,1.6c1.1,0,2.1-0.2,3-0.5s1.7-0.7,2.6-1.3l1.1,2c-0.9,0.6-1.9,1.1-3.1,1.5S1438,399.3,1436.6,399.3z M1436.1,382.7
			c-1.5,0-2.8,0.5-4,1.4s-1.9,2.3-2.2,4.1h11.6c-0.1-1.9-0.7-3.3-1.6-4.2C1438.9,383.2,1437.7,382.7,1436.1,382.7z"/>
		<path class="st10" d="M1452.1,398.9v-18.1h2.5l0.3,4.3h0.1c0.9-1.5,2.1-2.6,3.5-3.5c1.4-0.8,2.9-1.3,4.6-1.3
			c0.7,0,1.3,0.1,1.9,0.2s1.2,0.3,1.7,0.6l-0.7,2.7c-0.6-0.2-1.2-0.4-1.6-0.5s-1-0.1-1.8-0.1c-1.4,0-2.7,0.4-3.9,1.2
			c-1.3,0.8-2.4,2.1-3.5,4V399h-3.1V398.9z"/>
		<path class="st10" d="M1507.9,404.5c-2.3,0-4.1-0.3-5.2-1s-1.7-2-1.7-3.9c0-1.4,0.1-2.6,0.2-3.7s0.2-2.3,0.2-3.5
			c0-0.5-0.1-1-0.4-1.4s-0.8-0.8-1.6-1.1c-0.8-0.3-1.9-0.4-3.4-0.4v-1.9c1.5,0,2.6-0.2,3.4-0.4c0.8-0.3,1.3-0.6,1.6-1.1
			c0.3-0.4,0.4-0.9,0.4-1.4c0-1.2-0.1-2.3-0.2-3.5s-0.2-2.4-0.2-3.7c0-1.9,0.6-3.2,1.7-3.9c1.1-0.7,2.9-1,5.2-1h2.3v1.8h-1.9
			c-1.3,0-2.2,0.1-2.9,0.3c-0.7,0.2-1.1,0.6-1.4,1.1c-0.2,0.5-0.4,1.2-0.4,2c0,1.1,0,2.2,0.1,3.3c0.1,1.1,0.1,2.3,0.1,3.5
			s-0.2,2.1-0.7,2.8c-0.5,0.6-1.4,1.1-2.7,1.3v0.1c1.3,0.2,2.2,0.7,2.7,1.3c0.5,0.6,0.7,1.6,0.7,2.8c0,1.3,0,2.4-0.1,3.5
			c-0.1,1-0.1,2.1-0.1,3.3c0,0.8,0.1,1.4,0.4,2c0.2,0.5,0.7,0.9,1.4,1.1s1.6,0.3,2.9,0.3h1.9v1.8h-2.3V404.5z"/>
		<path class="st10" d="M1344.2,443.7l-7.7-18.1h3.1l4.2,10.3c0.4,0.9,0.7,1.8,1.1,2.7c0.3,0.9,0.7,1.8,1,2.6h0.1
			c0.3-0.9,0.6-1.7,1-2.6c0.3-0.9,0.7-1.8,1-2.7l4.2-10.3h2.9l-7.5,18.1H1344.2z"/>
		<path class="st10" d="M1366.3,444.1c-1.1,0-2.1-0.2-3.1-0.6c-0.9-0.4-1.7-1-2.2-1.8c-0.6-0.8-0.8-1.7-0.8-2.8
			c0-1.4,0.4-2.5,1.3-3.4s2.3-1.6,4.2-2.2c1.9-0.5,4.5-0.9,7.6-1.2c0-0.8-0.2-1.6-0.5-2.3c-0.3-0.7-0.8-1.2-1.5-1.7
			c-0.7-0.4-1.6-0.6-2.8-0.6s-2.3,0.2-3.4,0.7s-2.1,1-2.9,1.5l-1.2-2.1c0.9-0.6,2.1-1.2,3.5-1.8c1.4-0.6,2.9-0.9,4.5-0.9
			c2.5,0,4.3,0.7,5.5,2c1.2,1.4,1.8,3.2,1.8,5.4v11.1h-2.5l-0.3-2.5h-0.1c-1,0.8-2.1,1.5-3.4,2S1367.5,444.1,1366.3,444.1z
			 M1367.1,441.6c1,0,2-0.2,3.1-0.7c1-0.5,2.1-1.1,3.1-2v-4.8c-2.6,0.2-4.6,0.5-6.1,0.9s-2.5,0.9-3.1,1.5s-0.9,1.3-0.9,2.1
			c0,1,0.4,1.8,1.2,2.2C1365.1,441.4,1366,441.6,1367.1,441.6z"/>
		<path class="st10" d="M1394.7,444.1c-1.9,0-3.4-0.6-4.4-1.7s-1.5-2.7-1.5-4.9v-18h-6.5V417h9.5v20.7c0,1.3,0.3,2.3,1,2.9
			s1.5,0.9,2.6,0.9s2.2-0.3,3.4-0.8l0.8,2.3c-0.8,0.3-1.6,0.6-2.3,0.8C1396.5,444,1395.7,444.1,1394.7,444.1z"/>
		<path class="st10" d="M1411,444.1c-2.2,0-3.8-0.6-4.8-1.9c-1-1.2-1.5-3.1-1.5-5.5v-11.3h3.1v10.9c0,1.7,0.3,3,1,3.8
			c0.6,0.8,1.7,1.3,3.2,1.3c1,0,2-0.3,2.9-0.8s1.8-1.4,2.8-2.6v-12.6h3.1v18.1h-2.5l-0.3-3.2h-0.1c-0.9,1.1-1.9,1.9-3,2.6
			C1413.7,443.8,1412.4,444.1,1411,444.1z"/>
		<path class="st10" d="M1436.6,444.1c-1.8,0-3.5-0.4-4.9-1.1s-2.7-1.8-3.5-3.3s-1.3-3.2-1.3-5.2s0.4-3.7,1.3-5.1s2-2.5,3.4-3.3
			s2.9-1.1,4.5-1.1c2.6,0,4.6,0.8,6.1,2.3c1.5,1.6,2.2,3.6,2.2,6.2c0,0.3,0,0.7,0,1s-0.1,0.6-0.1,0.9H1430c0.2,2,1,3.6,2.3,4.6
			s2.9,1.6,4.8,1.6c1.1,0,2.1-0.2,3-0.5s1.7-0.7,2.6-1.3l1.1,2c-0.9,0.6-1.9,1.1-3.1,1.5S1438,444.1,1436.6,444.1z M1436.1,427.5
			c-1.5,0-2.8,0.5-4,1.4s-1.9,2.3-2.2,4.1h11.6c-0.1-1.9-0.7-3.3-1.6-4.2C1438.9,427.9,1437.7,427.5,1436.1,427.5z"/>
		<path class="st10" d="M1457.9,430.7c-0.8,0-1.6-0.3-2.1-0.9c-0.6-0.6-0.9-1.3-0.9-2.3c0-0.9,0.3-1.7,0.9-2.3
			c0.6-0.6,1.3-0.9,2.1-0.9c0.8,0,1.6,0.3,2.1,0.9c0.6,0.6,0.9,1.4,0.9,2.3s-0.3,1.7-0.9,2.3S1458.7,430.7,1457.9,430.7z
			 M1457.9,444.1c-0.8,0-1.6-0.3-2.1-0.9c-0.6-0.6-0.9-1.3-0.9-2.3c0-0.9,0.3-1.7,0.9-2.3c0.6-0.6,1.3-0.9,2.1-0.9
			c0.8,0,1.6,0.3,2.1,0.9c0.6,0.6,0.9,1.4,0.9,2.3s-0.3,1.7-0.9,2.3S1458.7,444.1,1457.9,444.1z"/>
		<path class="st10" d="M1495.1,443.7v-2.5h6.9v-17.5h-5.3v-2c1.4-0.2,2.6-0.4,3.5-0.7c1-0.3,1.8-0.6,2.6-1h2.3v21.3h6.2v2.5
			L1495.1,443.7L1495.1,443.7z"/>
		<path class="st10" d="M1516.6,443.7v-1.8c2.7-2.4,5-4.5,6.8-6.3c1.9-1.8,3.3-3.4,4.2-4.9c1-1.4,1.4-2.8,1.4-4.1
			c0-1.4-0.4-2.5-1.3-3.4c-0.8-0.9-2.2-1.3-3.9-1.3c-1.1,0-2.2,0.3-3.1,0.8c-1,0.6-1.8,1.2-2.6,2l-1.8-1.8c1.1-1.1,2.2-2,3.5-2.6
			c1.2-0.7,2.7-1,4.4-1c2.4,0,4.3,0.6,5.7,1.9c1.4,1.3,2.1,3,2.1,5.1c0,1.5-0.5,3-1.4,4.5s-2.2,3.1-3.9,4.8
			c-1.7,1.7-3.6,3.5-5.7,5.5c0.7,0,1.5-0.1,2.3-0.1s1.5-0.1,2.2-0.1h7.8v2.7L1516.6,443.7L1516.6,443.7z"/>
		<path class="st10" d="M1547,444.1c-2,0-3.8-0.3-5.2-1s-2.5-1.5-3.4-2.3l1.6-2c0.8,0.7,1.8,1.4,2.9,2s2.4,0.9,4,0.9s3-0.4,4.1-1.2
			c1.1-0.8,1.6-1.9,1.6-3.2c0-1.4-0.7-2.6-2-3.4c-1.3-0.9-3.5-1.3-6.7-1.3v-2.4c2.8,0,4.8-0.4,6-1.3s1.8-1.9,1.8-3.2
			c0-1.2-0.4-2.1-1.3-2.8c-0.9-0.7-2.1-1-3.5-1c-1.1,0-2.2,0.2-3.2,0.7c-1,0.4-1.9,1-2.7,1.8l-1.6-1.9c1-0.9,2.1-1.6,3.4-2.1
			c1.3-0.6,2.7-0.8,4.2-0.8s2.8,0.2,4,0.7s2.1,1.2,2.8,2.1s1,2,1,3.3c0,1.4-0.5,2.6-1.4,3.5c-1,0.9-2.2,1.6-3.6,2.1v0.1
			c1.1,0.2,2,0.6,2.9,1.1s1.6,1.2,2.1,2s0.8,1.8,0.8,2.9c0,1.4-0.4,2.6-1.2,3.6c-0.8,1-1.8,1.8-3.1,2.4
			C1550,443.8,1548.6,444.1,1547,444.1z"/>
		<path class="st10" d="M1566.9,451.6l-0.9-1.9c1.5-0.7,2.7-1.5,3.5-2.5s1.2-2.2,1.2-3.7c-0.1,0-0.2,0-0.3,0.1c-0.1,0-0.2,0-0.4,0
			c-0.8,0-1.5-0.2-2.1-0.7s-0.9-1.2-0.9-2.1s0.3-1.6,0.9-2.1s1.3-0.7,2.1-0.7c1.1,0,1.9,0.4,2.5,1.3s0.9,2,0.9,3.5
			c0,2.2-0.6,4-1.7,5.5C1570.5,449.7,1568.9,450.8,1566.9,451.6z"/>
		<path class="st10" d="M1343.7,488.4v-15.6h-5.2v-2.3l5.2-0.2v-1.5c0-2.2,0.6-4,1.8-5.3s3-2,5.5-2c1.8,0,3.5,0.3,5.2,1l-0.7,2.3
			c-0.7-0.3-1.4-0.6-2.1-0.7c-0.6-0.1-1.3-0.2-2.1-0.2c-1.6,0-2.8,0.4-3.5,1.3s-1.1,2-1.1,3.5v1.6h7.6v2.5h-7.6v15.6L1343.7,488.4
			L1343.7,488.4z"/>
		<path class="st10" d="M1362.5,488.4v-18.1h2.5l0.3,4.3h0.1c0.9-1.5,2.1-2.6,3.5-3.5c1.4-0.8,2.9-1.3,4.6-1.3
			c0.7,0,1.3,0.1,1.9,0.2s1.2,0.3,1.7,0.6l-0.7,2.7c-0.6-0.2-1.2-0.4-1.6-0.5s-1-0.1-1.8-0.1c-1.4,0-2.7,0.4-3.9,1.2
			c-1.3,0.8-2.4,2.1-3.5,4v10.6h-3.1V488.4z"/>
		<path class="st10" d="M1390.7,488.9c-1.6,0-3.1-0.4-4.4-1.1c-1.4-0.7-2.5-1.8-3.3-3.2c-0.8-1.4-1.3-3.1-1.3-5.1s0.4-3.8,1.3-5.2
			c0.8-1.4,1.9-2.5,3.3-3.2s2.8-1.1,4.4-1.1s3.1,0.4,4.4,1.1c1.4,0.7,2.5,1.8,3.3,3.2c0.8,1.4,1.2,3.1,1.2,5.2c0,2-0.4,3.7-1.2,5.1
			c-0.8,1.4-1.9,2.5-3.3,3.2S1392.3,488.9,1390.7,488.9z M1390.7,486.4c1.7,0,3.1-0.6,4.2-1.9s1.6-3,1.6-5c0-2.1-0.5-3.8-1.6-5.1
			c-1.1-1.3-2.5-1.9-4.2-1.9s-3.1,0.6-4.2,1.9s-1.6,3-1.6,5.1s0.5,3.7,1.6,5C1387.5,485.7,1388.9,486.4,1390.7,486.4z"/>
		<path class="st10" d="M1404,488.4v-18.1h2.5l0.3,2.4h0.1c0.5-0.8,1-1.5,1.6-2.1s1.5-0.8,2.5-0.8c1.8,0,2.9,1,3.4,3.1
			c0.5-1,1.1-1.7,1.7-2.3s1.5-0.8,2.5-0.8c1.3,0,2.3,0.5,3,1.4s1.1,2.3,1.1,4.2v13h-3.1v-12.8c0-2.1-0.6-3.2-1.9-3.2
			c-0.6,0-1.1,0.2-1.5,0.7s-0.9,1.2-1.4,2.1v13.1h-2.8v-12.8c0-1-0.1-1.8-0.4-2.4s-0.8-0.8-1.4-0.8s-1.2,0.2-1.6,0.7
			c-0.5,0.5-0.9,1.2-1.4,2.1v13.1h-3.2V488.4z"/>
		<path class="st10" d="M1435.5,475.5c-0.8,0-1.6-0.3-2.1-0.9c-0.6-0.6-0.9-1.3-0.9-2.3c0-0.9,0.3-1.7,0.9-2.3
			c0.6-0.6,1.3-0.9,2.1-0.9c0.8,0,1.6,0.3,2.1,0.9c0.6,0.6,0.9,1.4,0.9,2.3s-0.3,1.7-0.9,2.3S1436.3,475.5,1435.5,475.5z
			 M1435.5,488.9c-0.8,0-1.6-0.3-2.1-0.9c-0.6-0.6-0.9-1.3-0.9-2.3c0-0.9,0.3-1.7,0.9-2.3c0.6-0.6,1.3-0.9,2.1-0.9
			c0.8,0,1.6,0.3,2.1,0.9c0.6,0.6,0.9,1.4,0.9,2.3s-0.3,1.7-0.9,2.3C1437,488.6,1436.3,488.9,1435.5,488.9z"/>
		<path class="st10" d="M1480.3,488.9c-2.6,0-4.7-1.1-6.3-3.2s-2.3-5.2-2.3-9.2s0.8-7.1,2.3-9.1c1.5-2.1,3.6-3.1,6.3-3.1
			c2.7,0,4.8,1,6.3,3.1s2.3,5.1,2.3,9.1s-0.8,7-2.3,9.2S1482.9,488.9,1480.3,488.9z M1480.3,486.4c1.7,0,3-0.8,4.1-2.4
			s1.6-4.1,1.6-7.5s-0.5-5.9-1.6-7.5s-2.4-2.3-4.1-2.3s-3,0.8-4.1,2.3c-1.1,1.6-1.6,4-1.6,7.5c0,3.4,0.5,5.9,1.6,7.5
			C1477.2,485.6,1478.6,486.4,1480.3,486.4z M1480.3,478.7c-0.6,0-1.2-0.2-1.6-0.7c-0.5-0.4-0.7-1.1-0.7-1.8c0-0.8,0.2-1.4,0.7-1.8
			s1-0.7,1.6-0.7s1.2,0.2,1.6,0.7c0.5,0.4,0.7,1,0.7,1.8s-0.2,1.4-0.7,1.8C1481.4,478.5,1480.9,478.7,1480.3,478.7z"/>
		<path class="st10" d="M1493.8,488.4l6.9-9.4l-6.4-8.7h3.4l2.9,4c0.3,0.5,0.7,1,1,1.5c0.4,0.5,0.7,1.1,1.1,1.5h0.1
			c0.3-0.5,0.7-1,1-1.6c0.3-0.5,0.7-1.1,1-1.6l2.7-3.9h3.2l-6.5,9l6.9,9.1h-3.4l-3.2-4.2c-0.4-0.5-0.8-1.1-1.2-1.6
			c-0.4-0.6-0.8-1.1-1.2-1.6h-0.1c-0.4,0.5-0.7,1.1-1.1,1.6s-0.7,1.1-1.1,1.7l-3,4.2H1493.8z"/>
		<path class="st10" d="M1525.1,488.9c-2.6,0-4.7-1.1-6.3-3.2s-2.3-5.2-2.3-9.2s0.8-7.1,2.3-9.1c1.5-2.1,3.6-3.1,6.3-3.1
			c2.7,0,4.8,1,6.3,3.1s2.3,5.1,2.3,9.1s-0.8,7-2.3,9.2S1527.7,488.9,1525.1,488.9z M1525.1,486.4c1.7,0,3-0.8,4.1-2.4
			s1.6-4.1,1.6-7.5s-0.5-5.9-1.6-7.5s-2.4-2.3-4.1-2.3s-3,0.8-4.1,2.3c-1.1,1.6-1.6,4-1.6,7.5c0,3.4,0.5,5.9,1.6,7.5
			C1522,485.6,1523.4,486.4,1525.1,486.4z M1525.1,478.7c-0.6,0-1.2-0.2-1.6-0.7c-0.5-0.4-0.7-1.1-0.7-1.8c0-0.8,0.2-1.4,0.7-1.8
			s1-0.7,1.6-0.7s1.2,0.2,1.6,0.7c0.5,0.4,0.7,1,0.7,1.8s-0.2,1.4-0.7,1.8C1526.2,478.5,1525.7,478.7,1525.1,478.7z"/>
		<path class="st10" d="M1539.9,488.4v-2.5h6.9v-17.5h-5.3v-2c1.4-0.2,2.6-0.4,3.5-0.7s1.8-0.6,2.6-1h2.3V486h6.2v2.5L1539.9,488.4
			L1539.9,488.4z"/>
		<path class="st10" d="M1293.6,538.9v-1.8h1.9c1.3,0,2.2-0.1,2.9-0.3c0.7-0.2,1.1-0.6,1.4-1.1c0.2-0.5,0.4-1.2,0.4-2
			c0-1.1,0-2.2-0.1-3.3c-0.1-1-0.1-2.2-0.1-3.5c0-1.2,0.2-2.1,0.7-2.8c0.5-0.6,1.4-1.1,2.7-1.3v-0.1c-1.3-0.2-2.2-0.7-2.7-1.3
			s-0.7-1.6-0.7-2.8s0-2.3,0.1-3.5c0.1-1.1,0.1-2.2,0.1-3.3c0-0.8-0.1-1.5-0.4-2c-0.2-0.5-0.7-0.9-1.4-1.1c-0.7-0.2-1.6-0.3-2.9-0.3
			h-1.9v-1.8h2.3c2.3,0,4.1,0.3,5.2,1s1.7,2,1.7,3.9c0,1.3-0.1,2.5-0.2,3.7s-0.2,2.3-0.2,3.5c0,0.5,0.1,0.9,0.4,1.4
			c0.3,0.4,0.8,0.8,1.6,1.1c0.8,0.3,1.9,0.4,3.4,0.4v1.9c-1.5,0-2.6,0.1-3.4,0.4c-0.8,0.3-1.3,0.6-1.6,1.1c-0.3,0.4-0.4,0.9-0.4,1.4
			c0,1.2,0.1,2.4,0.2,3.5s0.2,2.3,0.2,3.7c0,1.9-0.6,3.2-1.7,3.9s-2.8,1-5.2,1h-2.3V538.9z"/>
	</g>
	<g>
		<g>
			<path class="st11" d="M1524.7,321.9c-16.9-11.1-22.1-26.1-9.4-27s33.8,12.9,38,24.9C1557.5,331.8,1541.6,333,1524.7,321.9z"/>
		</g>
		<g>
			<path class="st11" d="M1472.8,292.4c-6.1-1.5-8.5-8-4.4-11.8s11.7-2,13.7,3.3S1478.9,293.9,1472.8,292.4z"/>
		</g>
	</g>
</g>
<g>
	<g>
		<path class="st8" d="M1169.6,529.1c-4-1.9-4.4-7.3-0.8-9.8s8.5-0.2,8.9,4.2S1173.6,530.9,1169.6,529.1z"/>
	</g>
	<g>
		<g>
			<path class="st8" d="M1007.4,529.7c-5.2-3.1-5.6-9.9-0.7-12.2s11.5,1.7,11.8,7.1C1018.8,530,1012.7,532.8,1007.4,529.7z"/>
		</g>
		<g>
			<path class="st8" d="M1039.1,511.4c-3.2,0-5.3-3.5-3.6-6.3c1.6-2.8,5.7-2.8,7.3,0C1044.4,507.9,1042.4,511.4,1039.1,511.4z"/>
		</g>
	</g>
</g>
<g>
	<path class="st8" d="M359.2,534.9c-3.3,0-5.4-3.6-3.7-6.5c1.7-2.9,5.8-2.9,7.5,0C364.5,531.3,362.5,534.9,359.2,534.9z"/>
</g>
<g>
	<g>
		<path class="st6" d="M732.7,452.6l41.7-44.3c2.1-2.2,0.5-5.8-2.5-5.8h-83.5c-3,0-4.6,3.6-2.5,5.8l41.7,44.3
			C729.1,454,731.4,454,732.7,452.6z"/>
	</g>
	<g>
		<path class="st6" d="M705.6,404.1h49.2c0,0,6.9-22.1,6.9-46.5c0-17.1-2.8-31.4-4.9-39.5c-1.1-4.2-4.8-7.1-9.1-7.1h-35.1
			c-4.3,0-8.1,2.9-9.1,7.1c-2,8.1-4.9,22.4-4.9,39.5C698.7,381.9,705.6,404.1,705.6,404.1z"/>
	</g>
</g>
<g>
	<path class="st6" d="M306.3,371.4v3.7h-21.3v-29.4h20.8v3.7h-16.6v9h14.7v3.6h-14.7v9.5H306.3z"/>
	<path class="st6" d="M333.2,362.3v12.8h-4v-12.4c0-4.4-2.2-6.5-6-6.5c-4.3,0-7.1,2.6-7.1,7.4v11.5h-4v-22.3h3.9v3.4
		c1.6-2.3,4.5-3.6,8-3.6C329.3,352.6,333.2,355.7,333.2,362.3z"/>
	<path class="st6" d="M359.5,352.8l-9.7,22.3h-4.1l-9.7-22.3h4.2l7.6,17.9l7.8-17.9H359.5z"/>
	<path class="st6" d="M362.1,345.9c0-1.5,1.2-2.6,2.7-2.6c1.6,0,2.7,1.1,2.7,2.6c0,1.5-1.1,2.7-2.7,2.7
		C363.3,348.5,362.1,347.4,362.1,345.9z M362.9,352.8h4v22.3h-4V352.8z"/>
	<path class="st6" d="M391.8,361.6v13.4H388v-2.9c-1.3,2-3.8,3.2-7.3,3.2c-5,0-8.2-2.7-8.2-6.6c0-3.6,2.3-6.5,8.9-6.5h6.4v-0.8
		c0-3.4-2-5.4-6-5.4c-2.6,0-5.3,0.9-7.1,2.4l-1.7-3c2.3-1.8,5.6-2.9,9.2-2.9C388.4,352.6,391.8,355.5,391.8,361.6z M387.8,368.3
		v-3.1h-6.2c-4,0-5.1,1.6-5.1,3.4c0,2.2,1.8,3.6,4.9,3.6C384.4,372.2,386.8,370.8,387.8,368.3z"/>
	<path class="st6" d="M410.8,352.6v3.9c-0.3,0-0.6,0-0.9,0c-4.3,0-7,2.6-7,7.5v11.1h-4v-22.3h3.9v3.7
		C404.1,353.9,406.9,352.6,410.8,352.6z"/>
	<path class="st6" d="M447.3,352.8v22.3h-3.8v-3.4c-1.6,2.3-4.4,3.6-7.6,3.6c-5.8,0-9.6-3.2-9.6-9.7v-12.8h4v12.4
		c0,4.4,2.2,6.6,6,6.6c4.2,0,6.9-2.6,6.9-7.4v-11.5H447.3z"/>
	<path class="st6" d="M475.7,362.3v12.8h-4v-12.4c0-4.4-2.2-6.5-6-6.5c-4.3,0-7.1,2.6-7.1,7.4v11.5h-4v-22.3h3.9v3.4
		c1.6-2.3,4.5-3.6,8-3.6C471.9,352.6,475.7,355.7,475.7,362.3z"/>
	<path class="st6" d="M513.6,365.3h-18.1c0.5,3.9,3.7,6.5,8.1,6.5c2.6,0,4.8-0.9,6.4-2.7l2.2,2.6c-2,2.4-5.1,3.6-8.8,3.6
		c-7.2,0-12-4.7-12-11.4c0-6.6,4.7-11.3,11.2-11.3c6.4,0,11,4.6,11,11.5C513.7,364.4,513.7,364.9,513.6,365.3z M495.6,362.4h14.3
		c-0.4-3.7-3.2-6.4-7.1-6.4C498.9,356,496,358.6,495.6,362.4z"/>
	<path class="st6" d="M532.5,375.1l-6.4-8.5l-6.5,8.5H515l8.8-11.4l-8.4-10.9h4.5l6.1,8l6.1-8h4.4l-8.4,10.9l8.9,11.4H532.5z"/>
	<path class="st6" d="M553.5,373.8c-1.2,1.1-3.1,1.6-4.9,1.6c-4.5,0-7.1-2.5-7.1-7v-12.2h-3.8v-3.3h3.8v-4.9h4v4.9h6.4v3.3h-6.4
		v12.1c0,2.4,1.3,3.7,3.5,3.7c1.2,0,2.3-0.4,3.2-1.1L553.5,373.8z"/>
	<path class="st6" d="M570,352.6v3.9c-0.3,0-0.6,0-0.9,0c-4.3,0-7,2.6-7,7.5v11.1h-4v-22.3h3.9v3.7
		C563.3,353.9,566.1,352.6,570,352.6z"/>
	<path class="st6" d="M573.8,345.9c0-1.5,1.2-2.6,2.7-2.6c1.6,0,2.7,1.1,2.7,2.6c0,1.5-1.1,2.7-2.7,2.7
		C575,348.5,573.8,347.4,573.8,345.9z M574.5,352.8h4v22.3h-4V352.8z"/>
	<path class="st6" d="M606.9,362.3v12.8h-4v-12.4c0-4.4-2.2-6.5-6-6.5c-4.3,0-7.1,2.6-7.1,7.4v11.5h-4v-22.3h3.9v3.4
		c1.6-2.3,4.5-3.6,8-3.6C603.1,352.6,606.9,355.7,606.9,362.3z"/>
	<path class="st6" d="M611.2,372.7l1.7-3.2c1.9,1.3,4.9,2.3,7.8,2.3c3.7,0,5.3-1.1,5.3-3c0-5-14.1-0.7-14.1-9.5c0-4,3.6-6.7,9.3-6.7
		c2.9,0,6.2,0.8,8.1,2l-1.7,3.2c-2-1.3-4.2-1.8-6.4-1.8c-3.5,0-5.3,1.3-5.3,3.1c0,5.3,14.1,1,14.1,9.6c0,4-3.7,6.6-9.6,6.6
		C616.7,375.3,613,374.2,611.2,372.7z"/>
	<path class="st6" d="M633.9,345.9c0-1.5,1.2-2.6,2.7-2.6c1.6,0,2.7,1.1,2.7,2.6c0,1.5-1.1,2.7-2.7,2.7
		C635.1,348.5,633.9,347.4,633.9,345.9z M634.6,352.8h4v22.3h-4V352.8z"/>
	<path class="st6" d="M643.8,363.9c0-6.6,4.9-11.3,11.8-11.3c4,0,7.3,1.6,9.1,4.7l-3.1,2c-1.4-2.2-3.6-3.2-6-3.2
		c-4.4,0-7.6,3.1-7.6,7.8c0,4.8,3.3,7.9,7.6,7.9c2.4,0,4.6-1,6-3.2l3.1,1.9c-1.8,3.1-5.1,4.8-9.1,4.8
		C648.8,375.3,643.8,370.6,643.8,363.9z"/>
</g>
<g>
	<path class="st7" d="M388.9,100.1h6.8v30.7h19v5.7h-25.8V100.1z"/>
	<path class="st7" d="M445.1,124.7h-21.8c0.8,4.1,4.2,6.7,9,6.7c3.1,0,5.6-1,7.5-3l3.5,4c-2.5,3-6.4,4.5-11.2,4.5
		c-9.3,0-15.3-6-15.3-14.2c0-8.3,6.1-14.2,14.4-14.2c8.1,0,14,5.7,14,14.4C445.2,123.3,445.2,124.1,445.1,124.7z M423.3,120.4h15.8
		c-0.5-4-3.6-6.8-7.9-6.8C427,113.6,423.9,116.3,423.3,120.4z"/>
	<path class="st7" d="M477,108.8l-13,30c-2.5,6.3-6.1,8.2-10.7,8.2c-2.8,0-5.7-0.9-7.4-2.5l2.6-4.8c1.2,1.2,3,1.9,4.8,1.9
		c2.3,0,3.6-1.1,4.9-3.8l0.5-1.1l-12.1-27.9h6.8l8.7,20.5l8.8-20.5H477z"/>
	<path class="st7" d="M506.2,124.7h-21.8c0.8,4.1,4.2,6.7,9,6.7c3.1,0,5.6-1,7.5-3l3.5,4c-2.5,3-6.4,4.5-11.2,4.5
		c-9.3,0-15.3-6-15.3-14.2c0-8.3,6.1-14.2,14.4-14.2c8.1,0,14,5.7,14,14.4C506.3,123.3,506.3,124.1,506.2,124.7z M484.4,120.4h15.8
		c-0.5-4-3.6-6.8-7.9-6.8C488.1,113.6,485,116.3,484.4,120.4z"/>
	<path class="st7" d="M539.9,120.6v15.9h-6.5v-15.1c0-4.9-2.4-7.3-6.6-7.3c-4.6,0-7.7,2.8-7.7,8.4v14h-6.5v-27.8h6.2v3.6
		c2.1-2.5,5.5-3.9,9.6-3.9C535,108.4,539.9,112.2,539.9,120.6z"/>
	<path class="st7" d="M575.7,97.9v38.6h-6.2v-3.6c-2.2,2.7-5.4,4-9.2,4c-8.1,0-14-5.6-14-14.2c0-8.6,6-14.2,14-14.2
		c3.6,0,6.8,1.2,8.9,3.7V97.9H575.7z M569.3,122.6c0-5.3-3.6-8.7-8.3-8.7c-4.7,0-8.3,3.4-8.3,8.7c0,5.3,3.6,8.7,8.3,8.7
		C565.7,131.3,569.3,127.9,569.3,122.6z"/>
	<path class="st7" d="M581.9,122.6c0-8.3,6.2-14.2,14.8-14.2c8.6,0,14.8,5.9,14.8,14.2s-6.2,14.2-14.8,14.2
		C588.1,136.9,581.9,131,581.9,122.6z M604.9,122.6c0-5.3-3.5-8.7-8.3-8.7c-4.7,0-8.2,3.4-8.2,8.7c0,5.3,3.5,8.7,8.2,8.7
		C601.4,131.3,604.9,127.9,604.9,122.6z"/>
	<path class="st7" d="M658.1,108.8l-11.9,27.8h-6.7l-11.9-27.8h6.8l8.6,20.6l8.9-20.6H658.1z"/>
	<path class="st7" d="M684.5,120.2v16.3h-6.1v-3.4c-1.6,2.4-4.6,3.7-8.7,3.7c-6.3,0-10.3-3.5-10.3-8.3c0-4.6,3.1-8.3,11.5-8.3h7.2
		v-0.4c0-3.8-2.3-6-6.9-6c-3.1,0-6.3,1-8.4,2.8l-2.5-4.7c3-2.3,7.3-3.4,11.8-3.4C679.9,108.4,684.5,112.2,684.5,120.2z M678,127.8
		v-3.2h-6.7c-4.4,0-5.6,1.7-5.6,3.7c0,2.3,2,3.8,5.3,3.8C674.1,132.2,676.9,130.7,678,127.8z"/>
	<path class="st7" d="M692.8,97.9h6.5v38.6h-6.5V97.9z"/>
	<path class="st7" d="M705.6,122.6c0-8.3,6.2-14.2,14.8-14.2c8.6,0,14.8,5.9,14.8,14.2s-6.2,14.2-14.8,14.2
		C711.8,136.9,705.6,131,705.6,122.6z M728.6,122.6c0-5.3-3.5-8.7-8.3-8.7c-4.7,0-8.2,3.4-8.2,8.7c0,5.3,3.5,8.7,8.2,8.7
		C725.1,131.3,728.6,127.9,728.6,122.6z"/>
	<path class="st7" d="M757.4,108.4v6.2c-0.6-0.1-1-0.2-1.5-0.2c-4.9,0-8.1,2.9-8.1,8.6v13.5h-6.5v-27.8h6.2v4.1
		C749.4,109.9,752.8,108.4,757.4,108.4z"/>
	<path class="st7" d="M788.7,124.7h-21.8c0.8,4.1,4.2,6.7,9,6.7c3.1,0,5.6-1,7.5-3l3.5,4c-2.5,3-6.4,4.5-11.2,4.5
		c-9.3,0-15.3-6-15.3-14.2c0-8.3,6.1-14.2,14.4-14.2c8.1,0,14,5.7,14,14.4C788.8,123.3,788.8,124.1,788.7,124.7z M766.9,120.4h15.8
		c-0.5-4-3.6-6.8-7.9-6.8C770.6,113.6,767.5,116.3,766.9,120.4z"/>
	<path class="st7" d="M791.9,133.8l2.5-4.9c2.4,1.6,6.2,2.8,9.7,2.8c4.1,0,5.8-1.1,5.8-3.1c0-5.3-17.2-0.3-17.2-11.4
		c0-5.3,4.7-8.7,12.2-8.7c3.7,0,7.9,0.9,10.4,2.4l-2.5,4.9c-2.7-1.6-5.3-2.1-8-2.1c-4,0-5.8,1.3-5.8,3.1c0,5.6,17.2,0.6,17.2,11.5
		c0,5.2-4.8,8.6-12.6,8.6C799,136.9,794.4,135.5,791.9,133.8z"/>
	<path class="st7" d="M863.4,97.9v38.6h-6.2v-3.6c-2.2,2.7-5.4,4-9.2,4c-8.1,0-14-5.6-14-14.2c0-8.6,6-14.2,14-14.2
		c3.6,0,6.8,1.2,8.9,3.7V97.9H863.4z M857,122.6c0-5.3-3.6-8.7-8.3-8.7c-4.7,0-8.3,3.4-8.3,8.7c0,5.3,3.6,8.7,8.3,8.7
		C853.4,131.3,857,127.9,857,122.6z"/>
	<path class="st7" d="M897.9,124.7h-21.8c0.8,4.1,4.2,6.7,9,6.7c3.1,0,5.6-1,7.5-3l3.5,4c-2.5,3-6.4,4.5-11.2,4.5
		c-9.3,0-15.3-6-15.3-14.2c0-8.3,6.1-14.2,14.4-14.2c8.1,0,14,5.7,14,14.4C898,123.3,898,124.1,897.9,124.7z M876.1,120.4h15.8
		c-0.5-4-3.6-6.8-7.9-6.8C879.8,113.6,876.7,116.3,876.1,120.4z"/>
	<path class="st7" d="M904.2,97.9h6.5v38.6h-6.5V97.9z"/>
	<path class="st7" d="M931.3,122.6c0-8.3,6.2-14.2,15-14.2c5.4,0,9.7,2.2,11.9,6.4l-5,2.9c-1.7-2.7-4.2-3.8-6.9-3.8
		c-4.8,0-8.4,3.3-8.4,8.7c0,5.4,3.6,8.7,8.4,8.7c2.8,0,5.3-1.2,6.9-3.8l5,2.9c-2.1,4.2-6.4,6.5-11.9,6.5
		C937.6,136.9,931.3,131,931.3,122.6z"/>
	<path class="st7" d="M961.1,122.6c0-8.3,6.2-14.2,14.8-14.2c8.6,0,14.8,5.9,14.8,14.2s-6.2,14.2-14.8,14.2
		C967.4,136.9,961.1,131,961.1,122.6z M984.2,122.6c0-5.3-3.5-8.7-8.3-8.7c-4.7,0-8.2,3.4-8.2,8.7c0,5.3,3.5,8.7,8.2,8.7
		C980.6,131.3,984.2,127.9,984.2,122.6z"/>
	<path class="st7" d="M1024.3,120.6v15.9h-6.5v-15.1c0-4.9-2.4-7.3-6.6-7.3c-4.6,0-7.7,2.8-7.7,8.4v14H997v-27.8h6.2v3.6
		c2.1-2.5,5.5-3.9,9.6-3.9C1019.4,108.4,1024.3,112.2,1024.3,120.6z"/>
	<path class="st7" d="M1049.3,135c-1.6,1.2-3.9,1.9-6.2,1.9c-6.1,0-9.6-3.2-9.6-9.4v-13.4h-4.6V109h4.6v-6.3h6.5v6.3h7.4v5.2h-7.4
		v13.2c0,2.7,1.4,4.2,3.8,4.2c1.4,0,2.7-0.4,3.6-1.1L1049.3,135z"/>
	<path class="st7" d="M1070.7,108.4v6.2c-0.6-0.1-1-0.2-1.5-0.2c-4.9,0-8.1,2.9-8.1,8.6v13.5h-6.5v-27.8h6.2v4.1
		C1062.7,109.9,1066.1,108.4,1070.7,108.4z"/>
	<path class="st7" d="M1099.3,120.2v16.3h-6.1v-3.4c-1.6,2.4-4.6,3.7-8.7,3.7c-6.3,0-10.3-3.5-10.3-8.3c0-4.6,3.1-8.3,11.5-8.3h7.2
		v-0.4c0-3.8-2.3-6-6.9-6c-3.1,0-6.3,1-8.4,2.8l-2.5-4.7c3-2.3,7.3-3.4,11.8-3.4C1094.7,108.4,1099.3,112.2,1099.3,120.2z
		 M1092.8,127.8v-3.2h-6.7c-4.4,0-5.6,1.7-5.6,3.7c0,2.3,2,3.8,5.3,3.8C1088.9,132.2,1091.7,130.7,1092.8,127.8z"/>
	<path class="st7" d="M1124.3,135c-1.6,1.2-3.9,1.9-6.2,1.9c-6.1,0-9.6-3.2-9.6-9.4v-13.4h-4.6V109h4.6v-6.3h6.5v6.3h7.4v5.2h-7.4
		v13.2c0,2.7,1.4,4.2,3.8,4.2c1.4,0,2.7-0.4,3.6-1.1L1124.3,135z"/>
	<path class="st7" d="M1126.4,122.6c0-8.3,6.2-14.2,14.8-14.2c8.6,0,14.8,5.9,14.8,14.2s-6.2,14.2-14.8,14.2
		C1132.7,136.9,1126.4,131,1126.4,122.6z M1149.5,122.6c0-5.3-3.5-8.7-8.3-8.7c-4.7,0-8.2,3.4-8.2,8.7c0,5.3,3.5,8.7,8.2,8.7
		C1145.9,131.3,1149.5,127.9,1149.5,122.6z"/>
	<path class="st7" d="M1160.1,112.8c0-2.6,1.9-4.3,4.3-4.3c2.3,0,4.3,1.7,4.3,4.3c0,2.5-1.9,4.3-4.3,4.3
		C1162,117.1,1160.1,115.3,1160.1,112.8z M1160.1,132.6c0-2.6,1.9-4.3,4.3-4.3c2.3,0,4.3,1.7,4.3,4.3c0,2.5-1.9,4.3-4.3,4.3
		C1162,136.9,1160.1,135.1,1160.1,132.6z"/>
	<path class="st7" d="M1217.2,130.9v5.7h-27.3v-36.4h26.6v5.7h-19.8v9.5h17.6v5.6h-17.6v10H1217.2z"/>
	<path class="st7" d="M1249.8,108.8l-11.9,27.8h-6.7l-11.9-27.8h6.8l8.6,20.6l8.9-20.6H1249.8z"/>
	<path class="st7" d="M1279.1,124.7h-21.8c0.8,4.1,4.2,6.7,9,6.7c3.1,0,5.6-1,7.5-3l3.5,4c-2.5,3-6.4,4.5-11.2,4.5
		c-9.3,0-15.3-6-15.3-14.2c0-8.3,6.1-14.2,14.4-14.2c8.1,0,14,5.7,14,14.4C1279.2,123.3,1279.1,124.1,1279.1,124.7z M1257.2,120.4
		h15.8c-0.5-4-3.6-6.8-7.9-6.8C1260.9,113.6,1257.8,116.3,1257.2,120.4z"/>
	<path class="st7" d="M1312.8,120.6v15.9h-6.5v-15.1c0-4.9-2.4-7.3-6.6-7.3c-4.6,0-7.7,2.8-7.7,8.4v14h-6.5v-27.8h6.2v3.6
		c2.1-2.5,5.5-3.9,9.6-3.9C1307.8,108.4,1312.8,112.2,1312.8,120.6z"/>
	<path class="st7" d="M1337.7,135c-1.6,1.2-3.9,1.9-6.2,1.9c-6.1,0-9.6-3.2-9.6-9.4v-13.4h-4.6V109h4.6v-6.3h6.5v6.3h7.4v5.2h-7.4
		v13.2c0,2.7,1.4,4.2,3.8,4.2c1.4,0,2.7-0.4,3.6-1.1L1337.7,135z"/>
	<path class="st7" d="M1339.8,122.6c0-8.3,6.2-14.2,14.8-14.2c8.6,0,14.8,5.9,14.8,14.2s-6.2,14.2-14.8,14.2
		C1346.1,136.9,1339.8,131,1339.8,122.6z M1362.9,122.6c0-5.3-3.5-8.7-8.3-8.7c-4.7,0-8.2,3.4-8.2,8.7c0,5.3,3.5,8.7,8.2,8.7
		C1359.3,131.3,1362.9,127.9,1362.9,122.6z"/>
	<path class="st7" d="M1372.5,133.8l2.5-4.9c2.4,1.6,6.2,2.8,9.7,2.8c4.1,0,5.8-1.1,5.8-3.1c0-5.3-17.2-0.3-17.2-11.4
		c0-5.3,4.7-8.7,12.2-8.7c3.7,0,7.9,0.9,10.4,2.4l-2.5,4.9c-2.7-1.6-5.3-2.1-8-2.1c-4,0-5.8,1.3-5.8,3.1c0,5.6,17.2,0.6,17.2,11.5
		c0,5.2-4.8,8.6-12.6,8.6C1379.6,136.9,1375,135.5,1372.5,133.8z"/>
</g>
</svg>
