<svg enable-background="new 0 0 1780 1000" version="1.1" viewBox="0 0 1780 1e3" xmlns="http://www.w3.org/2000/svg">
 <style type="text/css">.st0{fill:#BC83FB;}
	.st1{fill:#8747CC;}
	.st2{fill:#D8B7FB;}
	.st3{fill:#642F9E;}
	.st4{fill:#FF705E;}
	.st5{fill:#E34135;}
	.st6{fill:#50D985;}
	.st7{fill:#FFFFFF;}
	.st8{fill:#B8A3C9;}
	.st9{fill:#E2DCFE;}
	.st10{fill:#282828;}
	.st11{fill:#F7F7F7;}</style>
 <path class="st0" d="m1447 90.4v49.8c0 12.2-9.9 22.1-22 22.1h-1070c-12.2 0-22-9.9-22-22.1v-49.8c0-12.2 9.9-22.1 22-22.1h14.2c1.6 0 3.1 0.9 3.6 2.4 2.1 5.4 9.9 10 20.4 10.4 8.3 0.3 15.2-2.1 19-5.6 1.6-1.5 4.1-1.4 5.6 0.2 4.5 4.9 13.4 8.5 24.5 8.5 12.2 0 21.3-4.4 25.6-10.1 1.4-1.9 4.2-1.9 5.7-0.1 5.9 7 16.7 12.1 29.5 12.2 16.1 0.1 27.2-6.9 31.9-14.6 1.3-2.1 3.7-3.3 6.2-3.3h883.2c12.2 0.1 22.1 9.9 22.1 22.1z"/>
 <path class="st0" d="m394.6 74.9c-12.2 0.4-20-7.2-14-13.6 5.9-6.4 21.2-6.9 27.4-0.8s-1.2 14-13.4 14.4z"/>
 <path class="st0" d="m442.8 77.2c-16.3 0.6-26.9-9.1-19.1-17.5 7.9-8.4 28.3-9.2 36.8-1.4s-1.4 18.3-17.7 18.9z"/>
 <path class="st0" d="m504.5 78.8c-18.3 0.6-30.2-10.5-21.3-20s31.8-10.3 41.2-1.4c9.5 8.9-1.6 20.8-19.9 21.4z"/>
 <path class="st1" d="m1076 589.9-62.8-9.7c68.4-68.5 71.7-94 63.9-110.4-2.4-5-7.2-8.1-14-8.8 28.9 0.5 65.5 49.8 12.9 128.9z"/>
 <path class="st2" d="m1057 459c0 5.2 23 12.4 22.2 5.8-0.8-6.7-22.2-11.1-22.2-5.8z"/>
 <path class="st0" d="m1076 589.9c52.6-79.1 13.7-125.4-12.9-128.9-15.1-2-34.8 6.1-59.1 26.2-1.9 1.5-4.4-0.7-3.1-2.8 34-53.5 82.3-62.1 109.8-45.6 32.8 19.7 38.5 97.6-34.7 151.1z"/>
 <path class="st2" d="m1094 518.3c-4.7 14.4-16.1 20.6-20.5 11.2s1.5-27.3 10.6-32.3 14.7 6.8 9.9 21.1z"/>
 <path class="st2" d="m1062 580.6c-13.3 13.3-30.2 13-30.5-0.6-0.3-13.5 16.4-30.2 29.9-29.9 13.5 0.2 13.8 17.2 0.6 30.5z"/>
 <path class="st0" d="m296.3 545.9c-41.9-26.9-74.1-15.4-87.6 1.9-14.8 19-31 77.9 45.8 130.6 4.7 3.2 9.7 6.4 15.2 9.6l5.9 45.6 5.1 39.6c-23.1-7.8-42.4-18.3-58.3-30.7-53.9-42-69.2-105.6-60.4-155.3 2.9-16.6 9.8-31.6 19.4-43.7 27.7-35.1 77.6-45.8 117.3-0.2 1.2 1.5-0.7 3.7-2.4 2.6z"/>
 <path class="st1" d="m296.3 545.9c-41.9-26.9-74.1-15.4-87.6 1.9-14.8 19-31 77.9 45.8 130.6 4.7 3.2 9.7 6.4 15.2 9.6l5.9 45.6c-9.3-2.2-18.3-5.7-27-10.2-41.6-21.7-74.3-67.5-79-118.4-2.7-29 3.7-49.3 11.8-61.5 27.7-35.1 77.6-45.8 117.3-0.2 1.2 1.5-0.7 3.7-2.4 2.6z"/>
 <path class="st2" d="m238.1 673.5c10.8 15 9.9 29.9-1.6 26.7s-24.9-21.9-24.2-33.8 15.1-7.9 25.8 7.1z"/>
 <path class="st2" d="m200.5 616.4c3 14.4-2.4 24.9-9.7 18.9s-11.1-23.9-6.8-32.3 13.5-1 16.5 13.4z"/>
 <path class="st2" d="m204.4 555.2c-4.9 8.7-13.8 10.9-16.1 3.9s3.8-17.9 11-19.7c7.1-1.7 9.9 7.1 5.1 15.8z"/>
 <path class="st2" d="m239.8 531.5c-9.1 0-14.9-4.9-10.3-8.8s16-3.9 20.6 0-1.2 8.8-10.3 8.8z"/>
 <path class="st1" d="m280.5 773.2c-23.1-7.8-42.4-18.3-58.3-30.7 12 0.9 20.9-4.4 26.2-19.1 8.7 4.5 17.7 8 27 10.2l5.1 39.6z"/>
 <path class="st3" d="m275.5 733.6c-9.3-2.2-18.3-5.7-27-10.2 3.7-10.1 5.7-24.8 6-45 4.7 3.2 9.7 6.4 15.2 9.6l5.8 45.6z"/>
 <path class="st4" d="m1174 917.2h-888.3c-10.8 0-19.5-8.7-19.5-19.5v-309.8c0-10.8 8.7-19.5 19.5-19.5h888.3c10.8 0 19.5 8.7 19.5 19.5v309.9c0 10.7-8.8 19.4-19.5 19.4z"/>
 <path class="st5" d="m974.7 568.4v46.6c0 27.6-22.3 49.9-49.9 49.9h-409.3c-27.6 0-49.9-22.3-49.9-49.9v-46.7h509.1v0.1z"/>
 <path class="st6" d="m934.9 650.4h-409.3c-27.6 0-49.9-22.3-49.9-49.9v-64.3c0-27.6 22.3-49.9 49.9-49.9h409.3c27.6 0 49.9 22.3 49.9 49.9v64.3c0 27.6-22.4 49.9-49.9 49.9z"/>
 <path class="st0" d="m1089 298.7-16.9 27.2s-61.9-42.2-141.1-36.1c-3.6 0.3-6.7-2.5-6.7-6.2l-0.9-39.1c-0.1-3.6 2.7-6.7 6.3-6.9 79.6-6 138.4 30.5 159.3 61.1z"/>
 <path class="st0" d="m1110 331.3-42.6 10c-2.9 0.7-5.3-2.5-3.8-5.1l30-51.9c1.5-2.6 5.4-2.2 6.3 0.7l12.6 41.9c0.6 2-0.6 4-2.5 4.4z"/>
 <path class="st0" d="m1402 697.4-21.5-22s-55.3 49.6-134.5 43.5c-3.6-0.3-6.7 2.5-6.7 6.2l-0.9 39.3c-0.1 3.5 2.6 6.5 6.1 6.7 79.7 5.7 139.5-38.2 157.5-73.7z"/>
 <path class="st0" d="m1414 660.7-43.7 1.3c-3 0.1-4.5 3.7-2.3 5.9l42.4 42.4c2.1 2.1 5.8 0.7 5.9-2.3l1.3-43.7c0-2.1-1.7-3.7-3.6-3.6z"/>
 <path class="st0" d="m678.4 275.2v-28.1h11.9c3 0 5.6 0.6 7.9 1.8s4.1 2.8 5.3 4.9c1.3 2.1 1.9 4.6 1.9 7.4s-0.6 5.2-1.9 7.4c-1.3 2.1-3.1 3.8-5.3 4.9-2.3 1.2-4.9 1.8-7.9 1.8l-11.9-0.1zm4-3.5h7.6c2.3 0 4.3-0.4 6.1-1.3 1.7-0.9 3-2.1 4-3.7 0.9-1.6 1.4-3.4 1.4-5.5s-0.5-4-1.4-5.5c-0.9-1.6-2.3-2.8-4-3.7s-3.7-1.3-6.1-1.3h-7.6v21z"/>
 <path class="st0" d="m717.3 275.5c-1.6 0-3-0.3-4.2-0.8s-2.1-1.3-2.8-2.2c-0.6-1-1-2-1-3.2s0.3-2.2 0.8-3.1 1.4-1.7 2.7-2.3 2.9-0.8 5-0.8h6.8v2.8h-6.6c-1.9 0-3.2 0.3-3.9 1s-1 1.4-1 2.3c0 1 0.4 1.9 1.2 2.5s2 0.9 3.5 0.9c1.4 0 2.7-0.3 3.8-1 1.1-0.6 1.9-1.6 2.4-2.8l0.8 2.7c-0.5 1.3-1.4 2.3-2.7 3-1.3 0.6-2.9 1-4.8 1zm7-0.3v-4.5l-0.2-0.8v-7.7c0-1.6-0.5-2.9-1.4-3.8s-2.4-1.3-4.3-1.3c-1.3 0-2.5 0.2-3.7 0.6s-2.2 1-3.1 1.7l-1.6-2.9c1.1-0.9 2.4-1.6 4-2 1.5-0.5 3.2-0.7 4.8-0.7 2.9 0 5.2 0.7 6.8 2.1s2.4 3.6 2.4 6.5v12.9h-3.7v-0.1z"/>
 <path class="st0" d="m735.1 283v-29.1h3.7v5.7l-0.2 4.9 0.4 4.9v13.6h-3.9zm11.3-7.5c-1.8 0-3.4-0.4-4.8-1.2-1.5-0.8-2.6-2-3.5-3.6s-1.3-3.6-1.3-6 0.4-4.4 1.3-6c0.8-1.6 2-2.8 3.5-3.6s3.1-1.2 4.9-1.2c2.1 0 3.9 0.5 5.5 1.4s2.9 2.2 3.8 3.8 1.4 3.5 1.4 5.7-0.5 4.1-1.4 5.7-2.2 2.9-3.8 3.8c-1.7 0.7-3.5 1.2-5.6 1.2zm-0.4-3.4c1.4 0 2.6-0.3 3.7-0.9s1.9-1.5 2.6-2.6c0.6-1.1 0.9-2.5 0.9-4s-0.3-2.8-0.9-4c-0.6-1.1-1.5-2-2.6-2.6s-2.3-0.9-3.7-0.9c-1.3 0-2.6 0.3-3.6 0.9-1.1 0.6-1.9 1.5-2.6 2.6-0.6 1.1-0.9 2.4-0.9 4 0 1.5 0.3 2.8 0.9 4 0.6 1.1 1.5 2 2.6 2.6s2.3 0.9 3.6 0.9z"/>
 <path class="st0" d="m762.5 283v-29.1h3.7v5.7l-0.2 4.9 0.4 4.9v13.6h-3.9zm11.3-7.5c-1.8 0-3.4-0.4-4.8-1.2-1.5-0.8-2.6-2-3.5-3.6s-1.3-3.6-1.3-6 0.4-4.4 1.3-6c0.8-1.6 2-2.8 3.5-3.6s3.1-1.2 4.9-1.2c2.1 0 3.9 0.5 5.5 1.4s2.9 2.2 3.8 3.8 1.4 3.5 1.4 5.7-0.5 4.1-1.4 5.7-2.2 2.9-3.8 3.8c-1.7 0.7-3.5 1.2-5.6 1.2zm-0.3-3.4c1.4 0 2.6-0.3 3.7-0.9s1.9-1.5 2.6-2.6c0.6-1.1 0.9-2.5 0.9-4s-0.3-2.8-0.9-4c-0.6-1.1-1.5-2-2.6-2.6s-2.3-0.9-3.7-0.9c-1.3 0-2.6 0.3-3.6 0.9-1.1 0.6-1.9 1.5-2.6 2.6-0.6 1.1-0.9 2.4-0.9 4 0 1.5 0.3 2.8 0.9 4 0.6 1.1 1.5 2 2.6 2.6 1 0.6 2.2 0.9 3.6 0.9z"/>
 <path class="st7" d="m463.4 800.3c-1.6 0-3.2-0.3-4.6-0.8s-2.6-1.1-3.7-1.8l1.3-1.9c1 0.7 2 1.2 3.2 1.7 1.2 0.4 2.5 0.6 4.1 0.6 1.4 0 2.5-0.3 3.2-0.8s1.1-1.1 1.1-1.8c0-0.4-0.1-0.8-0.4-1.2s-0.7-0.7-1.5-1-1.9-0.6-3.4-0.9c-2.2-0.5-3.8-1.1-4.9-1.8-1.1-0.8-1.7-1.8-1.7-3 0-1.4 0.6-2.5 1.8-3.4s2.9-1.4 5.2-1.4c1.3 0 2.5 0.2 3.7 0.6s2.2 0.9 3 1.5l-1.4 1.8c-0.8-0.5-1.6-1-2.6-1.3-0.9-0.3-2-0.5-3-0.5-1.4 0-2.4 0.2-3 0.7s-0.9 1-0.9 1.7 0.4 1.3 1.2 1.7 2 0.8 3.7 1.1c1.9 0.4 3.3 0.8 4.3 1.3s1.7 1 2.1 1.7c0.4 0.6 0.6 1.4 0.6 2.2 0 0.9-0.3 1.7-0.9 2.5s-1.4 1.4-2.5 1.8-2.4 0.7-4 0.7z"/>
 <path class="st7" d="m484.7 800.3c-1.7 0-3.2-0.3-4.6-1s-2.5-1.7-3.3-3-1.2-2.9-1.2-4.8c0-1.8 0.4-3.4 1.2-4.7s1.9-2.3 3.2-3 2.7-1.1 4.2-1.1c2.4 0 4.3 0.7 5.6 2.2s2 3.3 2 5.7v0.9c0 0.3-0.1 0.6-0.1 0.8h-13.2c0.2 1.9 0.9 3.3 2.1 4.3s2.7 1.4 4.4 1.4c1 0 1.9-0.1 2.7-0.4s1.6-0.7 2.4-1.2l1 1.9c-0.8 0.6-1.8 1-2.8 1.4s-2.2 0.6-3.6 0.6zm-0.4-15.4c-1.4 0-2.6 0.4-3.7 1.3s-1.7 2.2-2 3.8h10.7c-0.1-1.7-0.6-3-1.5-3.9-0.9-0.7-2.1-1.2-3.5-1.2z"/>
 <path class="st7" d="m508.1 800.3c-1.8 0-3.1-0.5-4.1-1.5s-1.4-2.5-1.4-4.5v-16.6h-6v-2.3h8.8v19.1c0 1.2 0.3 2.1 0.9 2.7s1.4 0.8 2.4 0.8 2-0.3 3.1-0.8l0.7 2.1c-0.8 0.3-1.5 0.6-2.1 0.7-0.6 0.2-1.4 0.3-2.3 0.3z"/>
 <path class="st7" d="m523 799.8v-14.4h-4.8v-2.1l4.8-0.2v-1.4c0-2 0.6-3.7 1.7-4.9s2.8-1.9 5.1-1.9c1.7 0 3.3 0.3 4.8 1l-0.6 2.1c-0.7-0.3-1.3-0.5-1.9-0.6s-1.2-0.2-2-0.2c-1.5 0-2.6 0.4-3.2 1.2s-1 1.8-1 3.2v1.5h7v2.3h-7v14.4h-2.9z"/>
 <path class="st7" d="m545.7 800.3c-0.8 0-1.4-0.3-2-0.8-0.5-0.5-0.8-1.2-0.8-2.1s0.3-1.6 0.8-2.1 1.2-0.8 2-0.8 1.4 0.3 2 0.8c0.5 0.5 0.8 1.2 0.8 2.1 0 0.8-0.3 1.5-0.8 2.1-0.5 0.5-1.2 0.8-2 0.8z"/>
 <path class="st7" d="m567.4 800.3c-1.7 0-3.2-0.3-4.6-1s-2.5-1.7-3.3-3-1.2-2.9-1.2-4.8c0-1.8 0.4-3.4 1.2-4.7s1.9-2.3 3.2-3 2.7-1.1 4.2-1.1c2.4 0 4.3 0.7 5.6 2.2s2 3.3 2 5.7v0.9c0 0.3-0.1 0.6-0.1 0.8h-13.2c0.2 1.9 0.9 3.3 2.1 4.3s2.7 1.4 4.4 1.4c1 0 1.9-0.1 2.7-0.4s1.6-0.7 2.4-1.2l1 1.9c-0.8 0.6-1.8 1-2.8 1.4s-2.2 0.6-3.6 0.6zm-0.4-15.4c-1.4 0-2.6 0.4-3.7 1.3s-1.7 2.2-2 3.8h10.7c-0.1-1.7-0.6-3-1.5-3.9-0.9-0.7-2.1-1.2-3.5-1.2z"/>
 <path class="st7" d="m579.9 799.8v-16.7h2.3l0.2 2.9h0.1c0.9-0.9 1.8-1.7 2.8-2.3s2.2-0.9 3.5-0.9c2 0 3.4 0.6 4.4 1.7 0.9 1.1 1.4 2.8 1.4 5v10.4h-2.8v-10c0-1.6-0.3-2.8-0.9-3.5s-1.6-1.2-3-1.2c-1 0-1.9 0.3-2.7 0.8s-1.7 1.3-2.7 2.3v11.7h-2.6v-0.2z"/>
 <path class="st7" d="m606.2 799.8-7.1-16.7h2.9l3.9 9.5c0.3 0.9 0.7 1.7 1 2.5s0.6 1.6 0.9 2.4h0.1c0.3-0.8 0.6-1.6 0.9-2.4s0.6-1.6 0.9-2.5l3.9-9.5h2.7l-6.9 16.7h-3.2z"/>
 <path class="st7" d="m633 805.9c-2.4-1.9-4.3-4.1-5.7-6.7s-2.1-5.6-2.1-8.9 0.7-6.3 2.1-8.9 3.3-4.9 5.7-6.7l1.6 1.4c-2.3 2-4 4.1-5.1 6.4s-1.7 4.9-1.7 7.8 0.6 5.5 1.7 7.8 2.8 4.4 5.1 6.4l-1.6 1.4z"/>
 <path class="st7" d="m644.5 805.9-1.6-1.4c2.3-2 4-4.1 5.1-6.4s1.6-4.9 1.6-7.8-0.5-5.5-1.6-7.8-2.8-4.4-5.1-6.4l1.6-1.4c2.4 1.9 4.3 4.1 5.7 6.7s2.1 5.6 2.1 8.9-0.7 6.3-2.1 8.9-3.3 4.9-5.7 6.7z"/>
 <path class="st7" d="m669.8 800.3c-0.8 0-1.4-0.3-2-0.8-0.5-0.5-0.8-1.2-0.8-2.1s0.3-1.6 0.8-2.1 1.2-0.8 2-0.8 1.4 0.3 2 0.8c0.5 0.5 0.8 1.2 0.8 2.1 0 0.8-0.3 1.5-0.8 2.1-0.6 0.5-1.3 0.8-2 0.8z"/>
 <path class="st7" d="m691.5 800.3c-1.7 0-3.2-0.3-4.6-1s-2.5-1.7-3.3-3-1.2-2.9-1.2-4.8c0-1.8 0.4-3.4 1.2-4.7s1.9-2.3 3.2-3 2.7-1.1 4.2-1.1c2.4 0 4.3 0.7 5.6 2.2s2 3.3 2 5.7v0.9c0 0.3-0.1 0.6-0.1 0.8h-13.2c0.2 1.9 0.9 3.3 2.1 4.3s2.7 1.4 4.4 1.4c1 0 1.9-0.1 2.7-0.4s1.6-0.7 2.4-1.2l1 1.9c-0.8 0.6-1.8 1-2.8 1.4-1.1 0.4-2.3 0.6-3.6 0.6zm-0.4-15.4c-1.4 0-2.6 0.4-3.7 1.3s-1.7 2.2-2 3.8h10.6c-0.1-1.7-0.6-3-1.5-3.9-0.9-0.7-2-1.2-3.4-1.2z"/>
 <path class="st7" d="m702.8 799.8v-16.7h2.3l0.2 2.2h0.1c0.4-0.8 0.9-1.4 1.5-1.9s1.3-0.7 2.3-0.7c1.6 0 2.7 1 3.2 2.9 0.5-0.9 1-1.6 1.6-2.1s1.4-0.8 2.3-0.8c1.2 0 2.1 0.4 2.7 1.3 0.7 0.9 1 2.2 1 3.8v12h-2.8v-11.8c0-2-0.6-2.9-1.8-2.9-0.6 0-1.1 0.2-1.4 0.6-0.4 0.4-0.8 1.1-1.3 1.9v12.1h-2.6v-11.8c0-1-0.1-1.7-0.4-2.2s-0.7-0.7-1.3-0.7-1.1 0.2-1.5 0.6-0.8 1.1-1.3 1.9v12.1h-2.8v0.2z"/>
 <path class="st7" d="m732.3 799.8v-14.4h-7.8v-2.3h10.6v16.7h-2.8zm1.1-20.2c-0.6 0-1.2-0.2-1.6-0.6s-0.7-0.9-0.7-1.6 0.2-1.2 0.7-1.6c0.4-0.4 1-0.6 1.6-0.6s1.2 0.2 1.6 0.6 0.7 0.9 0.7 1.6-0.2 1.2-0.7 1.6c-0.4 0.4-0.9 0.6-1.6 0.6z"/>
 <path class="st7" d="m755.7 800.3c-1.6 0-2.9-0.3-3.9-0.9-0.9-0.6-1.6-1.4-2-2.4s-0.6-2.2-0.6-3.6v-7.9h-4.7v-2.1l4.8-0.2 0.4-5.4h2.3v5.4h8.2v2.3h-8.2v8c0 1.5 0.3 2.6 0.9 3.4s1.7 1.2 3.3 1.2c0.8 0 1.5-0.1 2.2-0.2 0.6-0.1 1.3-0.3 1.9-0.6l0.6 2.1c-0.8 0.3-1.6 0.5-2.4 0.7-0.8 0.1-1.8 0.2-2.8 0.2z"/>
 <path class="st7" d="m764.9 804.7v-2.4h16.5v2.4h-16.5z"/>
 <path class="st7" d="m794.8 800.3c-1.7 0-3.2-0.3-4.6-1s-2.5-1.7-3.3-3-1.2-2.9-1.2-4.8c0-1.8 0.4-3.4 1.2-4.7s1.9-2.3 3.2-3 2.7-1.1 4.2-1.1c2.4 0 4.3 0.7 5.6 2.2s2 3.3 2 5.7v0.9c0 0.3-0.1 0.6-0.1 0.8h-13.2c0.2 1.9 0.9 3.3 2.1 4.3s2.7 1.4 4.4 1.4c1 0 1.9-0.1 2.7-0.4s1.6-0.7 2.4-1.2l1 1.9c-0.8 0.6-1.8 1-2.8 1.4s-2.2 0.6-3.6 0.6zm-0.4-15.4c-1.4 0-2.6 0.4-3.7 1.3s-1.7 2.2-2 3.8h10.7c-0.1-1.7-0.6-3-1.5-3.9-0.9-0.7-2.1-1.2-3.5-1.2z"/>
 <path class="st7" d="m813 799.8-7.1-16.7h2.9l3.9 9.5c0.3 0.9 0.7 1.7 1 2.5s0.6 1.6 0.9 2.4h0.1c0.3-0.8 0.6-1.6 0.9-2.4s0.6-1.6 0.9-2.5l3.9-9.5h2.7l-6.9 16.7h-3.2z"/>
 <path class="st7" d="m836.2 800.3c-1.7 0-3.2-0.3-4.6-1s-2.5-1.7-3.3-3-1.2-2.9-1.2-4.8c0-1.8 0.4-3.4 1.2-4.7s1.9-2.3 3.2-3 2.7-1.1 4.2-1.1c2.4 0 4.3 0.7 5.6 2.2s2 3.3 2 5.7v0.9c0 0.3-0.1 0.6-0.1 0.8h-13.2c0.2 1.9 0.9 3.3 2.1 4.3s2.7 1.4 4.4 1.4c1 0 1.9-0.1 2.7-0.4s1.6-0.7 2.4-1.2l1 1.9c-0.8 0.6-1.8 1-2.8 1.4-1.1 0.4-2.3 0.6-3.6 0.6zm-0.4-15.4c-1.4 0-2.6 0.4-3.7 1.3s-1.7 2.2-2 3.8h10.7c-0.1-1.7-0.6-3-1.5-3.9-0.9-0.7-2.1-1.2-3.5-1.2z"/>
 <path class="st7" d="m848.7 799.8v-16.7h2.3l0.2 2.9h0.1c0.9-0.9 1.8-1.7 2.8-2.3s2.2-0.9 3.5-0.9c2 0 3.4 0.6 4.4 1.7 0.9 1.1 1.4 2.8 1.4 5v10.4h-2.8v-10c0-1.6-0.3-2.8-0.9-3.5s-1.6-1.2-3-1.2c-1 0-1.9 0.3-2.7 0.8s-1.7 1.3-2.7 2.3v11.7h-2.6v-0.2z"/>
 <path class="st7" d="m879.7 800.3c-1.6 0-2.9-0.3-3.9-0.9-0.9-0.6-1.6-1.4-2-2.4s-0.6-2.2-0.6-3.6v-7.9h-4.7v-2.1l4.8-0.2 0.4-5.4h2.3v5.4h8.2v2.3h-8.2v8c0 1.5 0.3 2.6 0.9 3.4s1.7 1.2 3.3 1.2c0.8 0 1.5-0.1 2.2-0.2 0.6-0.1 1.3-0.3 1.9-0.6l0.6 2.1c-0.8 0.3-1.6 0.5-2.4 0.7-0.8 0.1-1.7 0.2-2.8 0.2z"/>
 <path class="st7" d="m901.8 805.9c-2.4-1.9-4.3-4.1-5.7-6.7s-2.1-5.6-2.1-8.9 0.7-6.3 2.1-8.9 3.3-4.9 5.7-6.7l1.6 1.4c-2.3 2-4 4.1-5.1 6.4s-1.7 4.9-1.7 7.8 0.6 5.5 1.7 7.8 2.8 4.4 5.1 6.4l-1.6 1.4z"/>
 <path class="st7" d="m502.9 841.2v-20.2h-7.4v-2.4h17.8v2.4h-7.4v20.2h-3z"/>
 <path class="st7" d="m519.7 841.2v-16.7h2.3l0.2 4h0.1c0.9-1.4 2-2.4 3.2-3.2 1.3-0.8 2.7-1.2 4.2-1.2 0.6 0 1.2 0.1 1.7 0.2s1.1 0.3 1.6 0.5l-0.7 2.4c-0.6-0.2-1.1-0.4-1.5-0.4-0.4-0.1-1-0.1-1.6-0.1-1.3 0-2.5 0.4-3.6 1.1s-2.2 2-3.3 3.7v9.8l-2.6-0.1z"/>
 <path class="st7" d="m543.9 841.6c-1 0-2-0.2-2.8-0.6s-1.6-0.9-2.1-1.6-0.8-1.6-0.8-2.5c0-1.3 0.4-2.3 1.2-3.2 0.8-0.8 2.1-1.5 3.9-2s4.1-0.9 7-1.1c0-0.8-0.2-1.5-0.5-2.1s-0.8-1.1-1.4-1.5-1.5-0.6-2.6-0.6-2.1 0.2-3.2 0.6c-1 0.4-1.9 0.9-2.7 1.4l-1.1-1.9c0.8-0.6 1.9-1.1 3.3-1.6s2.7-0.8 4.2-0.8c2.3 0 4 0.6 5.1 1.9s1.7 2.9 1.7 5v10.3h-2.3l-0.2-2.3h-0.1c-0.9 0.7-2 1.3-3.1 1.9-1.2 0.4-2.4 0.7-3.5 0.7zm0.7-2.3c0.9 0 1.9-0.2 2.8-0.7 1-0.4 1.9-1 2.8-1.8v-4.4c-2.4 0.2-4.3 0.5-5.6 0.8-1.4 0.4-2.3 0.9-2.9 1.4-0.6 0.6-0.8 1.2-0.8 1.9 0 0.9 0.4 1.6 1.1 2.1 0.8 0.5 1.6 0.7 2.6 0.7z"/>
 <path class="st7" d="m559.3 841.2v-16.7h2.3l0.2 2.9h0.1c0.9-0.9 1.8-1.7 2.8-2.3s2.2-0.9 3.5-0.9c2 0 3.4 0.6 4.4 1.7 0.9 1.1 1.4 2.8 1.4 5v10.4h-2.8v-10c0-1.6-0.3-2.8-0.9-3.5s-1.6-1.2-3-1.2c-1 0-1.9 0.3-2.7 0.8s-1.7 1.3-2.7 2.3v11.7h-2.6v-0.2z"/>
 <path class="st7" d="m587.4 841.6c-1.6 0-3.2-0.3-4.6-0.8s-2.6-1.1-3.7-1.8l1.3-1.9c1 0.7 2 1.2 3.2 1.7 1.2 0.4 2.5 0.6 4.1 0.6 1.4 0 2.5-0.3 3.2-0.8s1.1-1.1 1.1-1.8c0-0.4-0.1-0.8-0.4-1.2s-0.7-0.7-1.5-1-1.9-0.6-3.4-0.9c-2.2-0.5-3.8-1.1-4.9-1.8-1.1-0.8-1.7-1.8-1.7-3 0-1.4 0.6-2.5 1.8-3.4s2.9-1.4 5.2-1.4c1.3 0 2.5 0.2 3.7 0.6s2.2 0.9 3 1.5l-1.4 1.8c-0.8-0.5-1.6-1-2.6-1.3-0.9-0.3-2-0.5-3-0.5-1.4 0-2.4 0.2-3 0.7s-0.9 1-0.9 1.7 0.4 1.3 1.2 1.7 2 0.8 3.7 1.1c1.9 0.4 3.3 0.8 4.3 1.3s1.7 1 2.1 1.7c0.4 0.6 0.6 1.4 0.6 2.2 0 0.9-0.3 1.7-0.9 2.5s-1.4 1.4-2.5 1.8c-1 0.5-2.4 0.7-4 0.7z"/>
 <path class="st7" d="m605.7 841.2v-14.4h-4.8v-2.1l4.8-0.2v-1.5c0-2 0.6-3.7 1.7-4.9s2.8-1.9 5.1-1.9c1.7 0 3.3 0.3 4.8 1l-0.7 2.1c-0.7-0.3-1.3-0.5-1.9-0.6s-1.2-0.2-2-0.2c-1.5 0-2.6 0.4-3.2 1.2s-1 1.8-1 3.2v1.5h7v2.3h-7v14.4h-2.8v0.1z"/>
 <path class="st7" d="m629.4 841.6c-1.7 0-3.2-0.3-4.6-1s-2.5-1.7-3.3-3-1.2-2.9-1.2-4.8c0-1.8 0.4-3.4 1.2-4.7s1.9-2.3 3.2-3 2.7-1.1 4.2-1.1c2.4 0 4.3 0.7 5.6 2.2s2 3.3 2 5.7v0.9c0 0.3-0.1 0.6-0.1 0.8h-13.2c0.2 1.9 0.9 3.3 2.1 4.3s2.7 1.4 4.4 1.4c1 0 1.9-0.1 2.7-0.4s1.6-0.7 2.4-1.2l1 1.9c-0.8 0.6-1.8 1-2.8 1.4s-2.2 0.6-3.6 0.6zm-0.4-15.3c-1.4 0-2.6 0.4-3.7 1.3s-1.7 2.2-2 3.8h10.7c-0.1-1.7-0.6-3-1.5-3.9-0.9-0.8-2-1.2-3.5-1.2z"/>
 <path class="st7" d="m643.8 841.2v-16.7h2.3l0.2 4h0.1c0.9-1.4 2-2.4 3.2-3.2 1.3-0.8 2.7-1.2 4.2-1.2 0.6 0 1.2 0.1 1.7 0.2s1.1 0.3 1.6 0.5l-0.7 2.4c-0.6-0.2-1.1-0.4-1.5-0.4-0.4-0.1-1-0.1-1.6-0.1-1.3 0-2.5 0.4-3.6 1.1s-2.2 2-3.3 3.7v9.8l-2.6-0.1z"/>
 <path class="st7" d="m695.3 846.4c-2.2 0-3.8-0.3-4.8-1s-1.6-1.8-1.6-3.6c0-1.3 0.1-2.4 0.2-3.4s0.2-2.1 0.2-3.2c0-0.5-0.1-0.9-0.4-1.3s-0.8-0.7-1.5-1-1.8-0.4-3.1-0.4v-1.8c1.4 0 2.4-0.2 3.1-0.4 0.7-0.3 1.2-0.6 1.5-1s0.4-0.8 0.4-1.3c0-1.1-0.1-2.2-0.2-3.2-0.1-1.1-0.2-2.2-0.2-3.4 0-1.8 0.5-3 1.6-3.6 1-0.6 2.6-1 4.8-1h2.1v1.6h-1.8c-1.2 0-2.1 0.1-2.7 0.3s-1 0.5-1.3 1c-0.2 0.5-0.3 1.1-0.3 1.8 0 1 0 2 0.1 3s0.1 2.1 0.1 3.2-0.2 2-0.7 2.6c-0.4 0.6-1.3 1-2.5 1.2v0.1c1.2 0.2 2 0.6 2.5 1.2 0.4 0.6 0.7 1.4 0.7 2.6s0 2.2-0.1 3.2-0.1 2-0.1 3c0 0.7 0.1 1.3 0.3 1.8s0.6 0.8 1.3 1c0.6 0.2 1.5 0.3 2.7 0.3h1.8v1.6h-2.1v0.1z"/>
 <path class="st7" d="m730.3 841.2-7.1-16.7h2.9l3.9 9.5c0.3 0.9 0.7 1.7 1 2.5s0.6 1.6 0.9 2.4h0.1c0.3-0.8 0.6-1.6 0.9-2.4s0.6-1.6 0.9-2.5l3.9-9.5h2.7l-6.9 16.7h-3.2z"/>
 <path class="st7" d="m750.6 841.6c-1 0-2-0.2-2.8-0.6s-1.6-0.9-2.1-1.6-0.8-1.6-0.8-2.5c0-1.3 0.4-2.3 1.2-3.2 0.8-0.8 2.1-1.5 3.9-2s4.1-0.9 7-1.1c0-0.8-0.2-1.5-0.5-2.1s-0.8-1.1-1.4-1.5-1.5-0.6-2.6-0.6-2.1 0.2-3.2 0.6c-1 0.4-1.9 0.9-2.7 1.4l-1.1-1.9c0.8-0.6 1.9-1.1 3.3-1.6s2.7-0.8 4.2-0.8c2.3 0 4 0.6 5.1 1.9s1.7 2.9 1.7 5v10.3h-2.3l-0.2-2.3h-0.1c-0.9 0.7-2 1.3-3.1 1.9-1.1 0.4-2.3 0.7-3.5 0.7zm0.8-2.3c0.9 0 1.9-0.2 2.8-0.7 1-0.4 1.9-1 2.8-1.8v-4.4c-2.4 0.2-4.3 0.5-5.6 0.8-1.4 0.4-2.3 0.9-2.9 1.4-0.6 0.6-0.8 1.2-0.8 1.9 0 0.9 0.4 1.6 1.1 2.1s1.6 0.7 2.6 0.7z"/>
 <path class="st7" d="m776.8 841.6c-1.8 0-3.1-0.5-4.1-1.5s-1.4-2.5-1.4-4.5v-16.6h-6v-2.3h8.8v19.1c0 1.2 0.3 2.1 0.9 2.7s1.4 0.8 2.4 0.8 2-0.3 3.1-0.8l0.7 2.1c-0.8 0.3-1.5 0.6-2.1 0.7-0.6 0.2-1.4 0.3-2.3 0.3z"/>
 <path class="st7" d="m791.9 841.6c-2 0-3.5-0.6-4.4-1.7s-1.4-2.8-1.4-5v-10.4h2.9v10c0 1.6 0.3 2.8 0.9 3.5 0.6 0.8 1.6 1.2 3 1.2 1 0 1.8-0.2 2.6-0.7s1.6-1.3 2.6-2.4v-11.6h2.8v16.7h-2.3l-0.2-2.9h-0.1c-0.9 1-1.8 1.8-2.8 2.4s-2.3 0.9-3.6 0.9z"/>
 <path class="st7" d="m815.5 841.6c-1.7 0-3.2-0.3-4.6-1s-2.5-1.7-3.3-3-1.2-2.9-1.2-4.8c0-1.8 0.4-3.4 1.2-4.7s1.9-2.3 3.2-3 2.7-1.1 4.2-1.1c2.4 0 4.3 0.7 5.6 2.2s2 3.3 2 5.7v0.9c0 0.3-0.1 0.6-0.1 0.8h-13.2c0.2 1.9 0.9 3.3 2.1 4.3s2.7 1.4 4.4 1.4c1 0 1.9-0.1 2.7-0.4s1.6-0.7 2.4-1.2l1 1.9c-0.8 0.6-1.8 1-2.8 1.4s-2.2 0.6-3.6 0.6zm-0.4-15.3c-1.4 0-2.6 0.4-3.7 1.3s-1.7 2.2-2 3.8h10.7c-0.1-1.7-0.6-3-1.5-3.9-0.9-0.8-2.1-1.2-3.5-1.2z"/>
 <path class="st7" d="m832.4 848.5-0.8-1.8c1.4-0.6 2.5-1.4 3.2-2.3s1.1-2.1 1.1-3.4c-0.1 0-0.2 0-0.3 0.1h-0.3c-0.7 0-1.4-0.2-1.9-0.7-0.5-0.4-0.8-1.1-0.8-1.9s0.3-1.5 0.8-1.9c0.6-0.4 1.2-0.7 1.9-0.7 1 0 1.8 0.4 2.3 1.2s0.8 1.9 0.8 3.2c0 2-0.5 3.7-1.6 5.1s-2.5 2.4-4.4 3.1z"/>
 <path class="st7" d="m874.5 841.2v-14.4h-4.8v-2.1l4.8-0.2v-1.5c0-2 0.6-3.7 1.7-4.9s2.8-1.9 5.1-1.9c1.7 0 3.3 0.3 4.8 1l-0.7 2.1c-0.7-0.3-1.3-0.5-1.9-0.6s-1.2-0.2-2-0.2c-1.5 0-2.6 0.4-3.2 1.2s-1 1.8-1 3.2v1.5h7v2.3h-7v14.4h-2.8v0.1z"/>
 <path class="st7" d="m891.9 841.2v-16.7h2.3l0.2 4h0.1c0.9-1.4 2-2.4 3.2-3.2 1.3-0.8 2.7-1.2 4.2-1.2 0.6 0 1.2 0.1 1.7 0.2s1.1 0.3 1.6 0.5l-0.7 2.4c-0.6-0.2-1.1-0.4-1.5-0.4-0.4-0.1-1-0.1-1.6-0.1-1.3 0-2.5 0.4-3.6 1.1s-2.2 2-3.3 3.7v9.8l-2.6-0.1z"/>
 <path class="st7" d="m917.8 841.6c-1.5 0-2.8-0.3-4.1-1s-2.3-1.7-3-3-1.2-2.9-1.2-4.7c0-1.9 0.4-3.5 1.2-4.8s1.8-2.3 3-3 2.6-1 4.1-1 2.8 0.3 4.1 1 2.3 1.7 3 3c0.8 1.3 1.2 2.9 1.2 4.8 0 1.8-0.4 3.4-1.2 4.7s-1.8 2.3-3 3-2.6 1-4.1 1zm0-2.3c1.6 0 2.9-0.6 3.9-1.8s1.5-2.7 1.5-4.6-0.5-3.5-1.5-4.7-2.3-1.8-3.9-1.8-2.9 0.6-3.9 1.8-1.5 2.8-1.5 4.7 0.5 3.5 1.5 4.6c1 1.2 2.3 1.8 3.9 1.8z"/>
 <path class="st7" d="m930.2 841.2v-16.7h2.3l0.2 2.2h0.1c0.4-0.8 0.9-1.4 1.5-1.9s1.3-0.7 2.3-0.7c1.6 0 2.7 1 3.2 2.9 0.5-0.9 1-1.6 1.6-2.1s1.4-0.8 2.3-0.8c1.2 0 2.1 0.4 2.7 1.3 0.7 0.9 1 2.2 1 3.8v12h-2.8v-11.8c0-2-0.6-2.9-1.8-2.9-0.6 0-1.1 0.2-1.4 0.6-0.4 0.4-0.8 1.1-1.3 1.9v12.1h-2.6v-11.8c0-1-0.1-1.7-0.4-2.2s-0.7-0.7-1.3-0.7-1.1 0.2-1.5 0.6-0.8 1.1-1.3 1.9v12.1h-2.8v0.2z"/>
 <path class="st7" d="m972.9 846.4v-1.6h1.8c1.2 0 2.1-0.1 2.7-0.3s1-0.5 1.3-1 0.3-1.1 0.3-1.8c0-1.1 0-2.1-0.1-3-0.1-1-0.1-2-0.1-3.2 0-1.1 0.2-2 0.7-2.6s1.3-1 2.4-1.2v-0.1c-1.2-0.2-2-0.6-2.4-1.2s-0.7-1.4-0.7-2.6c0-1.1 0-2.1 0.1-3.2 0.1-1 0.1-2.1 0.1-3 0-0.8-0.1-1.4-0.3-1.8s-0.7-0.8-1.3-1-1.5-0.3-2.7-0.3h-1.8v-1.6h2.1c2.2 0 3.8 0.3 4.8 1 1 0.6 1.6 1.8 1.6 3.6 0 1.2-0.1 2.3-0.2 3.4s-0.2 2.2-0.2 3.2c0 0.4 0.1 0.9 0.4 1.3s0.8 0.7 1.5 1 1.8 0.4 3.1 0.4v1.8c-1.4 0-2.4 0.1-3.1 0.4s-1.2 0.6-1.5 1-0.4 0.8-0.4 1.3c0 1.1 0.1 2.2 0.2 3.2s0.2 2.1 0.2 3.4c0 1.8-0.5 3-1.6 3.6-1 0.6-2.6 1-4.8 1h-2.1v-0.1z"/>
 <path class="st7" d="m458.4 888.6-1.6-1.4c2.3-2 4-4.1 5.1-6.4s1.6-4.9 1.6-7.8-0.5-5.5-1.6-7.8-2.8-4.4-5.1-6.4l1.6-1.4c2.4 1.9 4.3 4.1 5.7 6.7s2.1 5.6 2.1 8.9-0.7 6.3-2.1 8.9-3.3 4.8-5.7 6.7z"/>
 <path class="st7" d="m480.9 889.9-0.8-1.8c1.4-0.6 2.5-1.4 3.2-2.3s1.1-2.1 1.1-3.4c-0.1 0-0.2 0-0.3 0.1h-0.3c-0.7 0-1.4-0.2-1.9-0.7-0.5-0.4-0.8-1.1-0.8-1.9s0.3-1.5 0.8-1.9c0.6-0.4 1.2-0.7 1.9-0.7 1 0 1.8 0.4 2.3 1.2s0.8 1.9 0.8 3.2c0 2-0.5 3.7-1.6 5.1s-2.5 2.4-4.4 3.1zm2.8-19.3c-0.8 0-1.4-0.3-2-0.8-0.5-0.5-0.8-1.2-0.8-2.1s0.3-1.6 0.8-2.1 1.2-0.8 2-0.8 1.4 0.3 2 0.8 0.8 1.2 0.8 2.1c0 0.8-0.3 1.5-0.8 2.1-0.6 0.6-1.2 0.8-2 0.8z"/>
 <path d="m590.4 580.2v-28.1h11c2.5 0 4.6 0.4 6.3 1.2s3.1 1.9 4 3.4 1.4 3.2 1.4 5.3-0.5 3.8-1.4 5.2c-0.9 1.5-2.3 2.6-4 3.4s-3.8 1.2-6.3 1.2h-8.8l1.8-1.8v10.4h-4v-0.2zm4-10-1.8-2h8.6c2.6 0 4.5-0.6 5.8-1.7s2-2.7 2-4.7-0.7-3.6-2-4.7-3.3-1.6-5.8-1.6h-8.6l1.8-2v16.7zm14.8 10-7.2-10.2h4.3l7.2 10.2h-4.3z"/>
 <path d="m619.6 580.2v-28.1h11c2.5 0 4.6 0.4 6.3 1.2s3.1 1.9 4 3.4 1.4 3.2 1.4 5.3-0.5 3.8-1.4 5.2c-0.9 1.5-2.3 2.6-4 3.4s-3.8 1.2-6.3 1.2h-8.8l1.8-1.9v10.4h-4v-0.1zm4.1-10-1.8-2h8.6c2.6 0 4.5-0.5 5.8-1.6s2-2.7 2-4.7-0.7-3.6-2-4.7-3.3-1.6-5.8-1.6h-8.6l1.8-2v16.6z"/>
 <path d="m661.2 580.5c-2.1 0-4.1-0.4-5.9-1.1s-3.4-1.7-4.7-3-2.4-2.8-3.1-4.6c-0.8-1.7-1.1-3.7-1.1-5.7 0-2.1 0.4-4 1.1-5.7 0.8-1.7 1.8-3.3 3.1-4.6s2.9-2.3 4.7-3 3.8-1.1 5.9-1.1c2.2 0 4.2 0.4 6 1.1s3.4 1.8 4.7 3.3l-2.6 2.5c-1.1-1.1-2.3-2-3.6-2.5s-2.8-0.8-4.3-0.8c-1.6 0-3 0.3-4.4 0.8s-2.5 1.3-3.5 2.3-1.8 2.1-2.3 3.4-0.8 2.8-0.8 4.3c0 1.6 0.3 3 0.8 4.3s1.3 2.5 2.3 3.4 2.2 1.7 3.5 2.3c1.4 0.5 2.8 0.8 4.4 0.8 1.5 0 3-0.3 4.3-0.8s2.5-1.4 3.6-2.6l2.6 2.5c-1.3 1.4-2.8 2.5-4.7 3.3s-3.8 1.2-6 1.2z"/>
 <path d="m692.6 576.7h16.4v3.5h-20.4v-28.1h19.9v3.5h-15.8v21.1h-0.1zm-0.4-12.5h14.5v3.4h-14.5v-3.4z"/>
 <path d="m726.3 558.7c1.7 0 3.3 0.3 4.6 1s2.4 1.7 3.1 3.1c0.8 1.4 1.1 3.1 1.1 5.2v12.3h-3.9v-11.8c0-2.1-0.5-3.6-1.5-4.7-1-1-2.4-1.6-4.2-1.6-1.4 0-2.6 0.3-3.6 0.8s-1.8 1.3-2.4 2.4c-0.5 1-0.8 2.3-0.8 3.9v11h-3.9v-21.3h3.7v5.7l-0.6-1.5c0.7-1.4 1.8-2.5 3.2-3.3 1.6-0.8 3.3-1.2 5.2-1.2z"/>
 <path d="m751.1 580.4c-2.1 0-3.9-0.5-5.5-1.4s-2.9-2.2-3.8-3.8-1.4-3.5-1.4-5.7 0.5-4.1 1.4-5.7 2.2-2.9 3.8-3.8 3.5-1.4 5.5-1.4c1.8 0 3.4 0.4 4.9 1.2 1.4 0.8 2.6 2 3.5 3.6s1.3 3.6 1.3 6-0.4 4.4-1.3 6c-0.8 1.6-2 2.8-3.4 3.6-1.5 1-3.2 1.4-5 1.4zm0.3-3.3c1.3 0 2.6-0.3 3.6-0.9 1.1-0.6 1.9-1.5 2.6-2.6 0.6-1.1 0.9-2.5 0.9-4s-0.3-2.8-0.9-4c-0.6-1.1-1.5-2-2.6-2.6s-2.3-0.9-3.6-0.9c-1.4 0-2.6 0.3-3.7 0.9s-1.9 1.5-2.6 2.6c-0.6 1.1-1 2.4-1 4 0 1.5 0.3 2.8 1 4 0.6 1.1 1.5 2 2.6 2.6s2.3 0.9 3.7 0.9zm7.3 3.1v-5.7l0.2-4.9-0.4-4.9v-14.2h3.9v29.8l-3.7-0.1z"/>
 <path d="m769.7 588v-29.1h3.7v5.7l-0.2 4.9 0.4 4.9v13.6h-3.9zm11.3-7.6c-1.8 0-3.4-0.4-4.8-1.2-1.5-0.8-2.6-2-3.5-3.6s-1.3-3.6-1.3-6 0.4-4.4 1.3-6c0.8-1.6 2-2.8 3.5-3.6s3.1-1.2 4.9-1.2c2.1 0 3.9 0.5 5.5 1.4s2.9 2.2 3.8 3.8 1.4 3.5 1.4 5.7-0.5 4.1-1.4 5.7-2.2 2.9-3.8 3.8c-1.7 0.8-3.5 1.2-5.6 1.2zm-0.3-3.3c1.4 0 2.6-0.3 3.7-0.9s1.9-1.5 2.6-2.6c0.6-1.1 0.9-2.5 0.9-4s-0.3-2.8-0.9-4c-0.6-1.1-1.5-2-2.6-2.6s-2.3-0.9-3.7-0.9c-1.3 0-2.6 0.3-3.6 0.9-1.1 0.6-1.9 1.5-2.6 2.6-0.6 1.1-0.9 2.4-0.9 4 0 1.5 0.3 2.8 0.9 4 0.6 1.1 1.5 2 2.6 2.6 1 0.6 2.2 0.9 3.6 0.9z"/>
 <path d="m806.2 580.4c-2.1 0-4-0.5-5.7-1.4s-3-2.2-3.9-3.9-1.4-3.5-1.4-5.6 0.5-4 1.4-5.6 2.3-2.9 3.9-3.8c1.7-0.9 3.6-1.4 5.7-1.4s4 0.5 5.7 1.4 3 2.2 3.9 3.8c1 1.6 1.4 3.5 1.4 5.6s-0.5 4-1.4 5.6c-1 1.6-2.3 2.9-3.9 3.9s-3.5 1.4-5.7 1.4zm0-3.3c1.4 0 2.6-0.3 3.7-0.9s1.9-1.5 2.6-2.6c0.6-1.1 0.9-2.5 0.9-4s-0.3-2.8-0.9-4c-0.6-1.1-1.5-2-2.6-2.6s-2.3-0.9-3.7-0.9-2.6 0.3-3.7 0.9-1.9 1.5-2.6 2.6c-0.6 1.1-1 2.4-1 4 0 1.5 0.3 2.8 1 4 0.6 1.1 1.5 2 2.6 2.6 1.2 0.6 2.4 0.9 3.7 0.9z"/>
 <path d="m824.6 554.8c-0.8 0-1.4-0.2-1.9-0.7s-0.7-1.1-0.7-1.8 0.2-1.3 0.7-1.8 1.1-0.7 1.9-0.7 1.4 0.2 1.9 0.7 0.7 1.1 0.7 1.7c0 0.7-0.2 1.3-0.7 1.8s-1.1 0.8-1.9 0.8zm-2 25.4v-21.3h3.9v21.3h-3.9z"/>
 <path d="m845.2 558.7c1.7 0 3.3 0.3 4.6 1s2.4 1.7 3.1 3.1c0.8 1.4 1.1 3.1 1.1 5.2v12.3h-3.9v-11.8c0-2.1-0.5-3.6-1.5-4.7-1-1-2.4-1.6-4.2-1.6-1.4 0-2.6 0.3-3.6 0.8s-1.8 1.3-2.4 2.4c-0.5 1-0.8 2.3-0.8 3.9v11h-3.9v-21.3h3.7v5.7l-0.6-1.5c0.7-1.4 1.8-2.5 3.2-3.3 1.6-0.8 3.3-1.2 5.2-1.2z"/>
 <path d="m858.2 562.1v-3.2h13.6v3.2h-13.6zm10.4 18.3c-2.1 0-3.8-0.6-5-1.7-1.2-1.2-1.8-2.8-1.8-4.9v-19.5h3.9v19.4c0 1.2 0.3 2 0.9 2.7s1.4 0.9 2.5 0.9c1.2 0 2.2-0.3 3-1l1.2 2.8c-0.6 0.5-1.3 0.9-2.1 1.1-0.9 0.1-1.8 0.2-2.6 0.2z"/>
 <path d="m401.2 733.8c-2.1 0-4.2-0.3-6.2-1s-3.5-1.5-4.6-2.6l1.5-3.1c1.1 0.9 2.4 1.7 4.1 2.3s3.4 0.9 5.2 0.9c1.6 0 3-0.2 4-0.6s1.8-0.9 2.3-1.5c0.5-0.7 0.7-1.4 0.7-2.2 0-1-0.3-1.7-0.9-2.3s-1.4-1.1-2.5-1.4c-1-0.4-2.1-0.7-3.3-0.9l-3.6-0.9c-1.2-0.4-2.3-0.8-3.3-1.4s-1.8-1.3-2.4-2.3-0.9-2.2-0.9-3.7c0-1.4 0.4-2.8 1.1-4 0.8-1.2 1.9-2.2 3.5-2.9s3.6-1.1 6.1-1.1c1.6 0 3.3 0.2 4.9 0.6s3 1 4.2 1.8l-1.3 3.2c-1.2-0.8-2.5-1.4-3.8-1.7-1.3-0.4-2.6-0.5-3.9-0.5-1.6 0-2.9 0.2-3.9 0.6s-1.8 0.9-2.2 1.6-0.7 1.4-0.7 2.3c0 1 0.3 1.8 0.9 2.4s1.4 1.1 2.5 1.4c1 0.3 2.1 0.7 3.3 0.9s2.4 0.6 3.6 0.9 2.3 0.8 3.3 1.4 1.8 1.3 2.4 2.3c0.6 0.9 0.9 2.1 0.9 3.6 0 1.4-0.4 2.7-1.2 4-0.8 1.2-2 2.2-3.6 2.9-1.7 0.6-3.7 1-6.2 1z"/>
 <path d="m426.4 733.7c-1.8 0-3.4-0.3-4.8-1s-2.5-1.7-3.2-3.1c-0.8-1.4-1.1-3.1-1.1-5.2v-12.3h3.9v11.9c0 2.1 0.5 3.7 1.5 4.7s2.4 1.6 4.2 1.6c1.3 0 2.5-0.3 3.5-0.8s1.8-1.4 2.3-2.4c0.5-1.1 0.8-2.3 0.8-3.8v-11h3.9v21.3h-3.7v-5.7l0.6 1.5c-0.7 1.4-1.7 2.5-3.1 3.3-1.5 0.6-3.1 1-4.8 1z"/>
 <path d="m444.6 733.5v-29.8h3.9v14.2l-0.4 4.9 0.2 4.9v5.7l-3.7 0.1zm11.3 0.2c-1.8 0-3.5-0.4-4.9-1.2-1.5-0.8-2.6-2-3.5-3.6-0.8-1.6-1.3-3.6-1.3-6s0.4-4.4 1.3-6 2-2.8 3.5-3.6 3.1-1.2 4.8-1.2c2.1 0 3.9 0.5 5.5 1.4s2.9 2.2 3.8 3.8 1.4 3.5 1.4 5.7-0.5 4.1-1.4 5.7-2.2 2.9-3.8 3.8c-1.4 0.8-3.3 1.2-5.4 1.2zm-0.3-3.3c1.4 0 2.6-0.3 3.7-0.9s1.9-1.5 2.6-2.6c0.6-1.1 0.9-2.5 0.9-4s-0.3-2.8-0.9-4c-0.6-1.1-1.5-2-2.6-2.6s-2.3-0.9-3.7-0.9c-1.3 0-2.6 0.3-3.6 0.9-1.1 0.6-1.9 1.5-2.6 2.6-0.6 1.1-0.9 2.4-0.9 4 0 1.5 0.3 2.8 0.9 4 0.6 1.1 1.5 2 2.6 2.6 1.1 0.5 2.3 0.9 3.6 0.9z"/>
 <path d="m478.2 733.7c-1.8 0-3.5-0.2-5-0.7-1.6-0.5-2.8-1.1-3.8-1.8l1.6-3.1c0.9 0.6 2 1.1 3.4 1.6s2.7 0.6 4.1 0.6c1.8 0 3.1-0.3 3.9-0.8s1.2-1.2 1.2-2.1c0-0.7-0.2-1.2-0.7-1.6s-1.1-0.7-1.9-0.8c-0.8-0.2-1.7-0.4-2.6-0.5-1-0.1-1.9-0.3-2.9-0.6s-1.8-0.5-2.7-1c-0.8-0.4-1.4-1-1.9-1.7s-0.7-1.7-0.7-3 0.4-2.4 1.1-3.4 1.7-1.7 3.1-2.2c1.3-0.5 2.9-0.8 4.7-0.8 1.4 0 2.8 0.2 4.2 0.5s2.6 0.8 3.5 1.4l-1.8 3.3c-1-0.6-2-1.1-3-1.3s-2.1-0.4-3.1-0.4c-1.7 0-2.9 0.3-3.8 0.8-0.8 0.5-1.2 1.3-1.2 2.1 0 0.7 0.2 1.3 0.7 1.7s1.1 0.7 1.9 0.9 1.7 0.4 2.6 0.5c1 0.1 1.9 0.3 2.9 0.6s1.8 0.5 2.6 0.9 1.4 1 1.9 1.7 0.7 1.7 0.7 2.9c0 1.3-0.4 2.4-1.1 3.3s-1.8 1.7-3.2 2.2c-1.2 0.6-2.8 0.8-4.7 0.8z"/>
 <path d="m489.1 715.4v-3.2h13.6v3.2h-13.6zm10.4 18.3c-2.1 0-3.8-0.6-5-1.7-1.2-1.2-1.8-2.8-1.8-4.9v-19.5h3.9v19.4c0 1.2 0.3 2 0.9 2.7s1.4 0.9 2.5 0.9c1.2 0 2.2-0.3 3-1l1.2 2.8c-0.6 0.5-1.3 0.9-2.1 1.1-0.8 0.1-1.7 0.2-2.6 0.2z"/>
 <path d="m508.8 733.5v-21.3h3.7v5.8l-0.4-1.4c0.6-1.5 1.6-2.6 3-3.4s3.1-1.2 5.1-1.2v3.7h-0.5-0.4c-2.1 0-3.7 0.6-4.9 1.8s-1.8 3-1.8 5.3v10.6h-3.8v0.1z"/>
 <path d="m529.7 733.7c-1.6 0-3-0.3-4.2-0.8s-2.1-1.3-2.8-2.2c-0.6-1-1-2-1-3.2s0.3-2.2 0.8-3.1 1.4-1.7 2.7-2.3 2.9-0.8 5-0.8h6.8v2.8h-6.6c-1.9 0-3.2 0.3-3.9 1s-1 1.4-1 2.3c0 1 0.4 1.9 1.2 2.5s2 0.9 3.5 0.9c1.4 0 2.7-0.3 3.8-1 1.1-0.6 1.9-1.6 2.4-2.8l0.8 2.7c-0.5 1.3-1.4 2.3-2.7 3-1.2 0.7-2.8 1-4.8 1zm7-0.2v-4.5l-0.2-0.8v-7.7c0-1.6-0.5-2.9-1.4-3.8-1-0.9-2.4-1.3-4.3-1.3-1.3 0-2.5 0.2-3.7 0.6s-2.2 1-3.1 1.7l-1.6-2.9c1.1-0.9 2.4-1.6 4-2 1.5-0.5 3.2-0.7 4.8-0.7 2.9 0 5.2 0.7 6.8 2.1s2.4 3.6 2.4 6.5v12.9l-3.7-0.1z"/>
 <path d="m544.5 715.4v-3.2h13.6v3.2h-13.6zm10.3 18.3c-2.1 0-3.8-0.6-5-1.7-1.2-1.2-1.8-2.8-1.8-4.9v-19.5h3.9v19.4c0 1.2 0.3 2 0.9 2.7s1.4 0.9 2.5 0.9c1.2 0 2.2-0.3 3-1l1.2 2.8c-0.6 0.5-1.3 0.9-2.1 1.1-0.8 0.1-1.7 0.2-2.6 0.2z"/>
 <path d="m572.9 733.7c-2.3 0-4.3-0.5-6-1.4s-3.1-2.2-4-3.9c-1-1.6-1.4-3.5-1.4-5.6s0.5-4 1.4-5.6 2.2-2.9 3.8-3.8 3.5-1.4 5.5-1.4c2.1 0 3.9 0.5 5.5 1.4s2.8 2.2 3.7 3.8 1.3 3.6 1.3 5.8v0.6c0 0.2 0 0.4-0.1 0.6h-18.1v-2.8h16.1l-1.6 1c0-1.4-0.3-2.6-0.8-3.7-0.6-1.1-1.4-1.9-2.4-2.5s-2.2-0.9-3.6-0.9c-1.3 0-2.5 0.3-3.6 0.9-1 0.6-1.9 1.4-2.5 2.5s-0.9 2.3-0.9 3.7v0.6c0 1.4 0.3 2.7 1 3.8s1.6 2 2.8 2.6 2.5 0.9 4.1 0.9c1.3 0 2.4-0.2 3.4-0.6s1.9-1.1 2.7-1.9l2.1 2.5c-1 1.1-2.2 2-3.6 2.6-1.4 0.5-3 0.8-4.8 0.8z"/>
 <path d="m599.4 733.5v-28.1h3.3l18.6 23.1h-1.7v-23.1h4v28.1h-3.3l-18.6-23.1h1.7v23.1h-4z"/>
 <path d="m640.6 733.7c-2.1 0-4-0.5-5.7-1.4s-3-2.2-3.9-3.9-1.4-3.5-1.4-5.6 0.5-4 1.4-5.6 2.3-2.9 3.9-3.8c1.7-0.9 3.6-1.4 5.7-1.4s4 0.5 5.7 1.4 3 2.2 3.9 3.8c1 1.6 1.4 3.5 1.4 5.6s-0.5 4-1.4 5.6c-1 1.6-2.3 2.9-3.9 3.9-1.7 1-3.6 1.4-5.7 1.4zm0-3.3c1.4 0 2.6-0.3 3.7-0.9s1.9-1.5 2.6-2.6c0.6-1.1 0.9-2.5 0.9-4s-0.3-2.8-0.9-4c-0.6-1.1-1.5-2-2.6-2.6s-2.3-0.9-3.7-0.9-2.6 0.3-3.7 0.9-1.9 1.5-2.6 2.6c-0.6 1.1-1 2.4-1 4 0 1.5 0.3 2.8 1 4 0.6 1.1 1.5 2 2.6 2.6 1.1 0.5 2.4 0.9 3.7 0.9z"/>
 <path d="m665.8 733.7c-2.1 0-3.9-0.5-5.5-1.4s-2.9-2.2-3.8-3.8-1.4-3.5-1.4-5.7 0.5-4.1 1.4-5.7 2.2-2.9 3.8-3.8 3.5-1.4 5.5-1.4c1.8 0 3.4 0.4 4.9 1.2 1.4 0.8 2.6 2 3.5 3.6s1.3 3.6 1.3 6-0.4 4.4-1.3 6c-0.8 1.6-2 2.8-3.4 3.6-1.5 1-3.1 1.4-5 1.4zm0.3-3.3c1.3 0 2.6-0.3 3.6-0.9 1.1-0.6 1.9-1.5 2.6-2.6 0.6-1.1 0.9-2.5 0.9-4s-0.3-2.8-0.9-4c-0.6-1.1-1.5-2-2.6-2.6s-2.3-0.9-3.6-0.9c-1.4 0-2.6 0.3-3.7 0.9s-1.9 1.5-2.6 2.6c-0.6 1.1-1 2.4-1 4 0 1.5 0.3 2.8 1 4 0.6 1.1 1.5 2 2.6 2.6 1.2 0.5 2.4 0.9 3.7 0.9zm7.3 3.1v-5.7l0.2-4.9-0.4-4.9v-14.2h3.9v29.8l-3.7-0.1z"/>
 <path d="m693.9 733.7c-2.3 0-4.3-0.5-6-1.4s-3.1-2.2-4-3.9c-1-1.6-1.4-3.5-1.4-5.6s0.5-4 1.4-5.6 2.2-2.9 3.8-3.8 3.5-1.4 5.5-1.4c2.1 0 3.9 0.5 5.5 1.4s2.8 2.2 3.7 3.8 1.3 3.6 1.3 5.8v0.6c0 0.2 0 0.4-0.1 0.6h-18.1v-2.8h16.1l-1.6 1c0-1.4-0.3-2.6-0.8-3.7-0.6-1.1-1.4-1.9-2.4-2.5s-2.2-0.9-3.6-0.9c-1.3 0-2.5 0.3-3.6 0.9-1 0.6-1.9 1.4-2.5 2.5s-0.9 2.3-0.9 3.7v0.6c0 1.4 0.3 2.7 1 3.8s1.6 2 2.8 2.6 2.5 0.9 4.1 0.9c1.3 0 2.4-0.2 3.4-0.6s1.9-1.1 2.7-1.9l2.1 2.5c-1 1.1-2.2 2-3.6 2.6-1.4 0.5-3 0.8-4.8 0.8z"/>
 <path d="m718.9 721v-3.2h18v3.2h-18zm7.3 7.2v-17.6h3.4v17.6h-3.4z"/>
 <path d="m754.1 741.3v-29.1h3.7v5.7l-0.2 4.9 0.4 4.9v13.5l-3.9 0.1zm11.3-7.6c-1.8 0-3.4-0.4-4.8-1.2-1.5-0.8-2.6-2-3.5-3.6s-1.3-3.6-1.3-6 0.4-4.4 1.3-6c0.8-1.6 2-2.8 3.5-3.6s3.1-1.2 4.9-1.2c2.1 0 3.9 0.5 5.5 1.4s2.9 2.2 3.8 3.8 1.4 3.5 1.4 5.7-0.5 4.1-1.4 5.7-2.2 2.9-3.8 3.8c-1.7 0.8-3.5 1.2-5.6 1.2zm-0.4-3.3c1.4 0 2.6-0.3 3.7-0.9s1.9-1.5 2.6-2.6c0.6-1.1 0.9-2.5 0.9-4s-0.3-2.8-0.9-4c-0.6-1.1-1.5-2-2.6-2.6s-2.3-0.9-3.7-0.9c-1.3 0-2.6 0.3-3.6 0.9-1.1 0.6-1.9 1.5-2.6 2.6-0.6 1.1-0.9 2.4-0.9 4 0 1.5 0.3 2.8 0.9 4 0.6 1.1 1.5 2 2.6 2.6 1.1 0.5 2.3 0.9 3.6 0.9z"/>
 <path d="m787.5 733.7c-1.6 0-3-0.3-4.2-0.8s-2.1-1.3-2.8-2.2c-0.6-1-1-2-1-3.2s0.3-2.2 0.8-3.1 1.4-1.7 2.7-2.3 2.9-0.8 5-0.8h6.8v2.8h-6.6c-1.9 0-3.2 0.3-3.9 1s-1 1.4-1 2.3c0 1 0.4 1.9 1.2 2.5s2 0.9 3.5 0.9c1.4 0 2.7-0.3 3.8-1 1.1-0.6 1.9-1.6 2.4-2.8l0.8 2.7c-0.5 1.3-1.4 2.3-2.7 3-1.2 0.7-2.8 1-4.8 1zm7-0.2v-4.5l-0.2-0.8v-7.7c0-1.6-0.5-2.9-1.4-3.8-1-0.9-2.4-1.3-4.3-1.3-1.3 0-2.5 0.2-3.7 0.6s-2.2 1-3.1 1.7l-1.6-2.9c1.1-0.9 2.4-1.6 4-2 1.5-0.5 3.2-0.7 4.8-0.7 2.9 0 5.2 0.7 6.8 2.1s2.4 3.6 2.4 6.5v12.9l-3.7-0.1z"/>
 <path d="m805.3 733.5v-29.8h3.9v29.8h-3.9z"/>
 <path d="m816.5 733.5v-29.8h3.9v29.8h-3.9z"/>
 <path d="m837.2 733.7c-2.3 0-4.3-0.5-6-1.4s-3.1-2.2-4-3.9c-1-1.6-1.4-3.5-1.4-5.6s0.5-4 1.4-5.6 2.2-2.9 3.8-3.8 3.5-1.4 5.5-1.4c2.1 0 3.9 0.5 5.5 1.4s2.8 2.2 3.7 3.8 1.3 3.6 1.3 5.8v0.6c0 0.2 0 0.4-0.1 0.6h-18.1v-2.8h16.1l-1.6 1c0-1.4-0.3-2.6-0.8-3.7-0.6-1.1-1.4-1.9-2.4-2.5s-2.2-0.9-3.6-0.9c-1.3 0-2.5 0.3-3.6 0.9-1 0.6-1.9 1.4-2.5 2.5s-0.9 2.3-0.9 3.7v0.6c0 1.4 0.3 2.7 1 3.8s1.6 2 2.8 2.6 2.5 0.9 4.1 0.9c1.3 0 2.4-0.2 3.4-0.6s1.9-1.1 2.7-1.9l2.1 2.5c-1 1.1-2.2 2-3.6 2.6-1.4 0.5-3 0.8-4.8 0.8z"/>
 <path d="m849.3 715.4v-3.2h13.6v3.2h-13.6zm10.4 18.3c-2.1 0-3.8-0.6-5-1.7-1.2-1.2-1.8-2.8-1.8-4.9v-19.5h3.9v19.4c0 1.2 0.3 2 0.9 2.7s1.4 0.9 2.5 0.9c1.2 0 2.2-0.3 3-1l1.2 2.8c-0.6 0.5-1.3 0.9-2.1 1.1-0.9 0.1-1.7 0.2-2.6 0.2z"/>
 <path d="M867.2,724.1v-3.3H878v3.3H867.2z"/>
 <path d="m893.7 733.7c-2.2 0-4.1-0.5-5.8-1.4s-3-2.2-4-3.9c-1-1.6-1.4-3.5-1.4-5.6s0.5-4 1.4-5.6 2.3-2.9 4-3.8 3.6-1.4 5.8-1.4c1.9 0 3.7 0.4 5.2 1.1 1.5 0.8 2.7 1.9 3.5 3.4l-2.9 1.9c-0.7-1-1.5-1.8-2.6-2.3-1-0.5-2.1-0.7-3.2-0.7-1.4 0-2.6 0.3-3.7 0.9s-2 1.5-2.6 2.6-1 2.4-1 4 0.3 2.9 1 4c0.6 1.1 1.5 2 2.6 2.6s2.3 0.9 3.7 0.9c1.2 0 2.2-0.2 3.2-0.7s1.9-1.3 2.6-2.3l2.9 1.8c-0.8 1.5-2 2.6-3.5 3.4-1.6 0.7-3.3 1.1-5.2 1.1z"/>
 <path d="m916.2 733.7c-2.1 0-4-0.5-5.7-1.4s-3-2.2-3.9-3.9-1.4-3.5-1.4-5.6 0.5-4 1.4-5.6 2.3-2.9 3.9-3.8c1.7-0.9 3.6-1.4 5.7-1.4s4 0.5 5.7 1.4 3 2.2 3.9 3.8c1 1.6 1.4 3.5 1.4 5.6s-0.5 4-1.4 5.6c-1 1.6-2.3 2.9-3.9 3.9-1.7 1-3.6 1.4-5.7 1.4zm0-3.3c1.4 0 2.6-0.3 3.7-0.9s1.9-1.5 2.6-2.6c0.6-1.1 0.9-2.5 0.9-4s-0.3-2.8-0.9-4c-0.6-1.1-1.5-2-2.6-2.6s-2.3-0.9-3.7-0.9-2.6 0.3-3.7 0.9-1.9 1.5-2.6 2.6c-0.6 1.1-1 2.4-1 4 0 1.5 0.3 2.8 1 4 0.6 1.1 1.5 2 2.6 2.6 1.1 0.5 2.3 0.9 3.7 0.9z"/>
 <path d="m943.9 712c1.7 0 3.3 0.3 4.6 1s2.4 1.7 3.1 3.1c0.8 1.4 1.1 3.1 1.1 5.2v12.3h-3.9v-11.8c0-2.1-0.5-3.6-1.5-4.7-1-1-2.4-1.6-4.2-1.6-1.4 0-2.6 0.3-3.6 0.8s-1.8 1.3-2.4 2.4c-0.5 1-0.8 2.3-0.8 3.9v11h-3.9v-21.3h3.7v5.7l-0.6-1.5c0.7-1.4 1.8-2.5 3.2-3.3 1.6-0.8 3.3-1.2 5.2-1.2z"/>
 <path d="m956.9 715.4v-3.2h13.6v3.2h-13.6zm10.3 18.3c-2.1 0-3.8-0.6-5-1.7-1.2-1.2-1.8-2.8-1.8-4.9v-19.5h3.9v19.4c0 1.2 0.3 2 0.9 2.7s1.4 0.9 2.5 0.9c1.2 0 2.2-0.3 3-1l1.2 2.8c-0.6 0.5-1.3 0.9-2.1 1.1-0.8 0.1-1.7 0.2-2.6 0.2z"/>
 <path d="m976.6 733.5v-21.3h3.7v5.8l-0.4-1.4c0.6-1.5 1.6-2.6 3-3.4s3.1-1.2 5.1-1.2v3.7h-0.5-0.4c-2.1 0-3.7 0.6-4.9 1.8s-1.8 3-1.8 5.3v10.6h-3.8v0.1z"/>
 <path d="m997.4 733.7c-1.6 0-3-0.3-4.2-0.8s-2.1-1.3-2.8-2.2c-0.6-1-1-2-1-3.2s0.3-2.2 0.8-3.1 1.4-1.7 2.7-2.3 2.9-0.8 5-0.8h6.8v2.8h-6.6c-1.9 0-3.2 0.3-3.9 1s-1 1.4-1 2.3c0 1 0.4 1.9 1.2 2.5s2 0.9 3.5 0.9c1.4 0 2.7-0.3 3.8-1 1.1-0.6 1.9-1.6 2.4-2.8l0.8 2.7c-0.5 1.3-1.4 2.3-2.7 3-1.2 0.7-2.8 1-4.8 1zm7-0.2v-4.5l-0.2-0.8v-7.7c0-1.6-0.5-2.9-1.4-3.8-1-0.9-2.4-1.3-4.3-1.3-1.3 0-2.5 0.2-3.7 0.6s-2.2 1-3.1 1.7l-1.6-2.9c1.1-0.9 2.4-1.6 4-2 1.5-0.5 3.2-0.7 4.8-0.7 2.9 0 5.2 0.7 6.8 2.1s2.4 3.6 2.4 6.5v12.9l-3.7-0.1z"/>
 <path d="m1024 733.7c-2.2 0-4.1-0.5-5.8-1.4s-3-2.2-4-3.9c-1-1.6-1.4-3.5-1.4-5.6s0.5-4 1.4-5.6 2.3-2.9 4-3.8 3.6-1.4 5.8-1.4c1.9 0 3.7 0.4 5.2 1.1 1.5 0.8 2.7 1.9 3.5 3.4l-2.9 1.9c-0.7-1-1.5-1.8-2.6-2.3-1-0.5-2.1-0.7-3.2-0.7-1.4 0-2.6 0.3-3.7 0.9s-2 1.5-2.6 2.6-1 2.4-1 4 0.3 2.9 1 4c0.6 1.1 1.5 2 2.6 2.6s2.3 0.9 3.7 0.9c1.2 0 2.2-0.2 3.2-0.7s1.9-1.3 2.6-2.3l2.9 1.8c-0.8 1.5-2 2.6-3.5 3.4-1.5 0.7-3.2 1.1-5.2 1.1z"/>
 <path d="m1035 715.4v-3.2h13.6v3.2h-13.6zm10.4 18.3c-2.1 0-3.8-0.6-5-1.7-1.2-1.2-1.8-2.8-1.8-4.9v-19.5h3.9v19.4c0 1.2 0.3 2 0.9 2.7s1.4 0.9 2.5 0.9c1.2 0 2.2-0.3 3-1l1.2 2.8c-0.6 0.5-1.3 0.9-2.1 1.1-0.9 0.1-1.7 0.2-2.6 0.2z"/>
 <path d="m1061 733.7c-1.8 0-3.5-0.2-5-0.7-1.6-0.5-2.8-1.1-3.8-1.8l1.6-3.1c0.9 0.6 2 1.1 3.4 1.6s2.7 0.6 4.1 0.6c1.8 0 3.1-0.3 3.9-0.8s1.2-1.2 1.2-2.1c0-0.7-0.2-1.2-0.7-1.6s-1.1-0.7-1.9-0.8c-0.8-0.2-1.7-0.4-2.6-0.5-1-0.1-1.9-0.3-2.9-0.6s-1.8-0.5-2.7-1c-0.8-0.4-1.4-1-1.9-1.7s-0.7-1.7-0.7-3 0.4-2.4 1.1-3.4 1.7-1.7 3.1-2.2c1.3-0.5 2.9-0.8 4.7-0.8 1.4 0 2.8 0.2 4.2 0.5s2.6 0.8 3.5 1.4l-1.6 3.1c-1-0.6-2-1.1-3-1.3s-2.1-0.4-3.1-0.4c-1.7 0-2.9 0.3-3.8 0.8-0.8 0.5-1.2 1.3-1.2 2.1 0 0.7 0.2 1.3 0.7 1.7s1.1 0.7 1.9 0.9 1.7 0.4 2.6 0.5c1 0.1 1.9 0.3 2.9 0.6s1.8 0.5 2.6 0.9 1.4 1 1.9 1.7 0.7 1.7 0.7 2.9c0 1.3-0.4 2.4-1.1 3.3s-1.8 1.7-3.2 2.2c-1.3 0.8-3 1-4.9 1z"/>
 <path class="st8" d="m168.7 769.9c-4.1 4.1-11.1 2.2-12.7-3.4-1.5-5.6 3.6-10.8 9.3-9.3s7.6 8.6 3.4 12.7z"/>
 <path class="st8" d="m167.7 507.6c-4.2 1.6-8.3-1.3-7.4-5.2 1-3.9 6.3-5.9 9.5-3.6 3.3 2.3 2.1 7.2-2.1 8.8z"/>
 <path class="st8" d="m398.9 523.9c-6.2-3.5-6.7-11.6-1-14.5 5.8-2.9 13.5 1.5 14 7.9s-6.8 10.1-13 6.6z"/>
 <path class="st9" d="m1379 619.7c-163.7-26.6-217.6-233.7-95.9-323.6 127.6-94.3 322.6-22.3 361.6 120.7 39.1 143.3-104.8 229.1-265.7 202.9z"/>
 <path class="st9" d="m1704 469.6c9.2 10.6-0.7 31.7-11.8 35-12.1 3.6-17.5-12.8-13-24.4 4.8-12 17.1-19.5 24.8-10.6z"/>
 <path class="st9" d="m1620 580.1c-8.2 6.7-15.3 10.9-18.4 20-2.4 7.1-1.2 18.2 13.1 23 21.6 7.2 48.2-8.6 55.2-29.6 4.2-12.5 2.2-32.1-12.4-36.8-14.5-4.8-21 9.9-37.5 23.4z"/>
 <path class="st9" d="m1653 673.4c-9.4 3.2-18.3-3.5-16-12.2 2.3-8.6 14-12.7 21.1-7.3 7.1 5.5 4.2 16.3-5.1 19.5z"/>
 <path class="st10" d="m1300 398.9v-21.9h-8.1v-2.6h19.3v2.6h-8.1v21.9h-3.1z"/>
 <path class="st10" d="m1318 398.9v-18.1h2.5l0.3 4.3h0.1c0.9-1.5 2.1-2.6 3.5-3.5 1.4-0.8 2.9-1.3 4.6-1.3 0.7 0 1.3 0.1 1.9 0.2s1.2 0.3 1.7 0.6l-0.7 2.7c-0.6-0.2-1.2-0.4-1.6-0.5s-1-0.1-1.8-0.1c-1.4 0-2.7 0.4-3.9 1.2-1.3 0.8-2.4 2.1-3.5 4v10.6h-3.1v-0.1z"/>
 <path class="st10" d="m1344 399.3c-1.1 0-2.1-0.2-3.1-0.6-0.9-0.4-1.7-1-2.2-1.8-0.6-0.8-0.8-1.7-0.8-2.8 0-1.4 0.4-2.5 1.3-3.4s2.3-1.6 4.2-2.2c1.9-0.5 4.5-0.9 7.6-1.2 0-0.8-0.2-1.6-0.5-2.3s-0.8-1.2-1.5-1.7c-0.7-0.4-1.6-0.6-2.8-0.6s-2.3 0.2-3.4 0.7-2.1 1-2.9 1.5l-1.2-2.1c0.9-0.6 2.1-1.2 3.5-1.8s2.9-0.9 4.5-0.9c2.5 0 4.3 0.7 5.5 2 1.2 1.4 1.8 3.2 1.8 5.4v11.1h-2.5l-0.3-2.5h-0.1c-1 0.8-2.1 1.5-3.4 2s-2.5 1.2-3.7 1.2zm0.8-2.5c1 0 2-0.2 3.1-0.7 1-0.5 2.1-1.1 3.1-2v-4.8c-2.6 0.2-4.6 0.5-6.1 0.9s-2.5 0.9-3.1 1.5-0.9 1.3-0.9 2.1c0 1 0.4 1.8 1.2 2.2 0.7 0.6 1.6 0.8 2.7 0.8z"/>
 <path class="st10" d="m1360 398.9v-18.1h2.5l0.3 3.1h0.1c0.9-1 2-1.9 3.1-2.5 1.1-0.7 2.4-1 3.8-1 2.1 0 3.7 0.6 4.7 1.9 1 1.2 1.5 3.1 1.5 5.5v11.3h-3.1v-11.1c0-1.7-0.3-3-1-3.8-0.6-0.8-1.7-1.3-3.2-1.3-1.1 0-2 0.3-2.9 0.8-0.8 0.5-1.8 1.4-2.9 2.5v12.7h-2.9z"/>
 <path class="st10" d="m1391 399.3c-1.8 0-3.4-0.3-5-0.8-1.5-0.6-2.9-1.2-4-2l1.4-2c1 0.7 2.2 1.3 3.5 1.8 1.3 0.4 2.7 0.7 4.4 0.7 1.5 0 2.7-0.3 3.5-0.8 0.8-0.6 1.1-1.2 1.1-2 0-0.5-0.1-0.9-0.4-1.3s-0.8-0.7-1.6-1.1c-0.8-0.3-2-0.7-3.7-1-2.3-0.5-4.1-1.2-5.3-2s-1.8-1.9-1.8-3.3c0-1.5 0.6-2.7 1.9-3.7s3.1-1.5 5.6-1.5c1.4 0 2.7 0.2 4 0.7s2.4 1 3.3 1.6l-1.5 2c-0.8-0.6-1.8-1-2.8-1.4-1-0.3-2.1-0.5-3.3-0.5-1.5 0-2.6 0.3-3.2 0.8s-0.9 1.1-0.9 1.8c0 0.8 0.4 1.4 1.3 1.8 0.8 0.4 2.2 0.8 4 1.2 2 0.4 3.6 0.9 4.6 1.4 1.1 0.5 1.8 1.1 2.2 1.8s0.6 1.5 0.6 2.4c0 1-0.3 1.9-0.9 2.7s-1.5 1.5-2.7 2-2.5 0.7-4.3 0.7z"/>
 <path class="st10" d="m1411 398.9v-15.6h-5.2v-2.3l5.2-0.2v-1.5c0-2.2 0.6-4 1.8-5.3s3-2 5.5-2c1.8 0 3.5 0.3 5.2 1l-0.7 2.3c-0.7-0.3-1.4-0.6-2.1-0.7-0.6-0.1-1.3-0.2-2.1-0.2-1.6 0-2.8 0.4-3.5 1.3-0.7 0.8-1.1 2-1.1 3.5v1.6h7.6v2.5h-7.6v15.6h-3z"/>
 <path class="st10" d="m1437 399.3c-1.8 0-3.5-0.4-4.9-1.1s-2.7-1.8-3.5-3.3-1.3-3.2-1.3-5.2 0.4-3.7 1.3-5.1 2-2.5 3.4-3.3 2.9-1.1 4.5-1.1c2.6 0 4.6 0.8 6.1 2.3 1.5 1.6 2.2 3.6 2.2 6.2v1s-0.1 0.6-0.1 0.9h-14.3c0.2 2 1 3.6 2.3 4.6s2.9 1.6 4.8 1.6c1.1 0 2.1-0.2 3-0.5s1.7-0.7 2.6-1.3l1.1 2c-0.9 0.6-1.9 1.1-3.1 1.5s-2.7 0.8-4.1 0.8zm-0.5-16.6c-1.5 0-2.8 0.5-4 1.4s-1.9 2.3-2.2 4.1h11.6c-0.1-1.9-0.7-3.3-1.6-4.2-1-0.8-2.2-1.3-3.8-1.3z"/>
 <path class="st10" d="m1452 398.9v-18.1h2.5l0.3 4.3h0.1c0.9-1.5 2.1-2.6 3.5-3.5 1.4-0.8 2.9-1.3 4.6-1.3 0.7 0 1.3 0.1 1.9 0.2s1.2 0.3 1.7 0.6l-0.7 2.7c-0.6-0.2-1.2-0.4-1.6-0.5s-1-0.1-1.8-0.1c-1.4 0-2.7 0.4-3.9 1.2-1.3 0.8-2.4 2.1-3.5 4v10.6h-3.1v-0.1z"/>
 <path class="st10" d="m1508 404.5c-2.3 0-4.1-0.3-5.2-1s-1.7-2-1.7-3.9c0-1.4 0.1-2.6 0.2-3.7s0.2-2.3 0.2-3.5c0-0.5-0.1-1-0.4-1.4s-0.8-0.8-1.6-1.1-1.9-0.4-3.4-0.4v-1.9c1.5 0 2.6-0.2 3.4-0.4 0.8-0.3 1.3-0.6 1.6-1.1 0.3-0.4 0.4-0.9 0.4-1.4 0-1.2-0.1-2.3-0.2-3.5s-0.2-2.4-0.2-3.7c0-1.9 0.6-3.2 1.7-3.9s2.9-1 5.2-1h2.3v1.8h-1.9c-1.3 0-2.2 0.1-2.9 0.3s-1.1 0.6-1.4 1.1c-0.2 0.5-0.4 1.2-0.4 2 0 1.1 0 2.2 0.1 3.3s0.1 2.3 0.1 3.5-0.2 2.1-0.7 2.8c-0.5 0.6-1.4 1.1-2.7 1.3v0.1c1.3 0.2 2.2 0.7 2.7 1.3s0.7 1.6 0.7 2.8c0 1.3 0 2.4-0.1 3.5-0.1 1-0.1 2.1-0.1 3.3 0 0.8 0.1 1.4 0.4 2 0.2 0.5 0.7 0.9 1.4 1.1s1.6 0.3 2.9 0.3h1.9v1.8h-2.3v-0.4z"/>
 <path class="st10" d="m1344 443.7-7.7-18.1h3.1l4.2 10.3c0.4 0.9 0.7 1.8 1.1 2.7 0.3 0.9 0.7 1.8 1 2.6h0.1c0.3-0.9 0.6-1.7 1-2.6 0.3-0.9 0.7-1.8 1-2.7l4.2-10.3h2.9l-7.5 18.1h-3.4z"/>
 <path class="st10" d="m1366 444.1c-1.1 0-2.1-0.2-3.1-0.6-0.9-0.4-1.7-1-2.2-1.8-0.6-0.8-0.8-1.7-0.8-2.8 0-1.4 0.4-2.5 1.3-3.4s2.3-1.6 4.2-2.2c1.9-0.5 4.5-0.9 7.6-1.2 0-0.8-0.2-1.6-0.5-2.3s-0.8-1.2-1.5-1.7c-0.7-0.4-1.6-0.6-2.8-0.6s-2.3 0.2-3.4 0.7-2.1 1-2.9 1.5l-1.2-2.1c0.9-0.6 2.1-1.2 3.5-1.8s2.9-0.9 4.5-0.9c2.5 0 4.3 0.7 5.5 2 1.2 1.4 1.8 3.2 1.8 5.4v11.1h-2.5l-0.3-2.5h-0.1c-1 0.8-2.1 1.5-3.4 2s-2.5 1.2-3.7 1.2zm0.8-2.5c1 0 2-0.2 3.1-0.7 1-0.5 2.1-1.1 3.1-2v-4.8c-2.6 0.2-4.6 0.5-6.1 0.9s-2.5 0.9-3.1 1.5-0.9 1.3-0.9 2.1c0 1 0.4 1.8 1.2 2.2 0.7 0.6 1.6 0.8 2.7 0.8z"/>
 <path class="st10" d="m1395 444.1c-1.9 0-3.4-0.6-4.4-1.7s-1.5-2.7-1.5-4.9v-18h-6.5v-2.5h9.5v20.7c0 1.3 0.3 2.3 1 2.9s1.5 0.9 2.6 0.9 2.2-0.3 3.4-0.8l0.8 2.3c-0.8 0.3-1.6 0.6-2.3 0.8-0.8 0.2-1.6 0.3-2.6 0.3z"/>
 <path class="st10" d="m1411 444.1c-2.2 0-3.8-0.6-4.8-1.9-1-1.2-1.5-3.1-1.5-5.5v-11.3h3.1v10.9c0 1.7 0.3 3 1 3.8 0.6 0.8 1.7 1.3 3.2 1.3 1 0 2-0.3 2.9-0.8s1.8-1.4 2.8-2.6v-12.6h3.1v18.1h-2.5l-0.3-3.2h-0.1c-0.9 1.1-1.9 1.9-3 2.6-1.2 0.9-2.5 1.2-3.9 1.2z"/>
 <path class="st10" d="m1437 444.1c-1.8 0-3.5-0.4-4.9-1.1s-2.7-1.8-3.5-3.3-1.3-3.2-1.3-5.2 0.4-3.7 1.3-5.1 2-2.5 3.4-3.3 2.9-1.1 4.5-1.1c2.6 0 4.6 0.8 6.1 2.3 1.5 1.6 2.2 3.6 2.2 6.2v1s-0.1 0.6-0.1 0.9h-14.3c0.2 2 1 3.6 2.3 4.6s2.9 1.6 4.8 1.6c1.1 0 2.1-0.2 3-0.5s1.7-0.7 2.6-1.3l1.1 2c-0.9 0.6-1.9 1.1-3.1 1.5s-2.7 0.8-4.1 0.8zm-0.5-16.6c-1.5 0-2.8 0.5-4 1.4s-1.9 2.3-2.2 4.1h11.6c-0.1-1.9-0.7-3.3-1.6-4.2-1-0.9-2.2-1.3-3.8-1.3z"/>
 <path class="st10" d="m1458 430.7c-0.8 0-1.6-0.3-2.1-0.9-0.6-0.6-0.9-1.3-0.9-2.3 0-0.9 0.3-1.7 0.9-2.3s1.3-0.9 2.1-0.9 1.6 0.3 2.1 0.9c0.6 0.6 0.9 1.4 0.9 2.3s-0.3 1.7-0.9 2.3-1.3 0.9-2.1 0.9zm0 13.4c-0.8 0-1.6-0.3-2.1-0.9-0.6-0.6-0.9-1.3-0.9-2.3 0-0.9 0.3-1.7 0.9-2.3s1.3-0.9 2.1-0.9 1.6 0.3 2.1 0.9c0.6 0.6 0.9 1.4 0.9 2.3s-0.3 1.7-0.9 2.3-1.3 0.9-2.1 0.9z"/>
 <path class="st10" d="m1495 443.7v-2.5h6.9v-17.5h-5.3v-2c1.4-0.2 2.6-0.4 3.5-0.7 1-0.3 1.8-0.6 2.6-1h2.3v21.3h6.2v2.5l-16.2-0.1z"/>
 <path class="st10" d="m1517 443.7v-1.8c2.7-2.4 5-4.5 6.8-6.3 1.9-1.8 3.3-3.4 4.2-4.9 1-1.4 1.4-2.8 1.4-4.1 0-1.4-0.4-2.5-1.3-3.4-0.8-0.9-2.2-1.3-3.9-1.3-1.1 0-2.2 0.3-3.1 0.8-1 0.6-1.8 1.2-2.6 2l-1.8-1.8c1.1-1.1 2.2-2 3.5-2.6 1.2-0.7 2.7-1 4.4-1 2.4 0 4.3 0.6 5.7 1.9s2.1 3 2.1 5.1c0 1.5-0.5 3-1.4 4.5s-2.2 3.1-3.9 4.8-3.6 3.5-5.7 5.5c0.7 0 1.5-0.1 2.3-0.1s1.5-0.1 2.2-0.1h7.8v2.7l-16.7 0.1z"/>
 <path class="st10" d="m1547 444.1c-2 0-3.8-0.3-5.2-1s-2.5-1.5-3.4-2.3l1.6-2c0.8 0.7 1.8 1.4 2.9 2s2.4 0.9 4 0.9 3-0.4 4.1-1.2 1.6-1.9 1.6-3.2c0-1.4-0.7-2.6-2-3.4-1.3-0.9-3.5-1.3-6.7-1.3v-2.4c2.8 0 4.8-0.4 6-1.3s1.8-1.9 1.8-3.2c0-1.2-0.4-2.1-1.3-2.8s-2.1-1-3.5-1c-1.1 0-2.2 0.2-3.2 0.7-1 0.4-1.9 1-2.7 1.8l-1.6-1.9c1-0.9 2.1-1.6 3.4-2.1 1.3-0.6 2.7-0.8 4.2-0.8s2.8 0.2 4 0.7 2.1 1.2 2.8 2.1 1 2 1 3.3c0 1.4-0.5 2.6-1.4 3.5-1 0.9-2.2 1.6-3.6 2.1v0.1c1.1 0.2 2 0.6 2.9 1.1s1.6 1.2 2.1 2 0.8 1.8 0.8 2.9c0 1.4-0.4 2.6-1.2 3.6s-1.8 1.8-3.1 2.4c-1.3 0.4-2.7 0.7-4.3 0.7z"/>
 <path class="st10" d="m1567 451.6-0.9-1.9c1.5-0.7 2.7-1.5 3.5-2.5s1.2-2.2 1.2-3.7c-0.1 0-0.2 0-0.3 0.1h-0.4c-0.8 0-1.5-0.2-2.1-0.7s-0.9-1.2-0.9-2.1 0.3-1.6 0.9-2.1 1.3-0.7 2.1-0.7c1.1 0 1.9 0.4 2.5 1.3s0.9 2 0.9 3.5c0 2.2-0.6 4-1.7 5.5-1.2 1.4-2.8 2.5-4.8 3.3z"/>
 <path class="st10" d="m1344 488.4v-15.6h-5.2v-2.3l5.2-0.2v-1.5c0-2.2 0.6-4 1.8-5.3s3-2 5.5-2c1.8 0 3.5 0.3 5.2 1l-0.7 2.3c-0.7-0.3-1.4-0.6-2.1-0.7-0.6-0.1-1.3-0.2-2.1-0.2-1.6 0-2.8 0.4-3.5 1.3s-1.1 2-1.1 3.5v1.6h7.6v2.5h-7.6v15.6h-3z"/>
 <path class="st10" d="m1362 488.4v-18.1h2.5l0.3 4.3h0.1c0.9-1.5 2.1-2.6 3.5-3.5 1.4-0.8 2.9-1.3 4.6-1.3 0.7 0 1.3 0.1 1.9 0.2s1.2 0.3 1.7 0.6l-0.7 2.7c-0.6-0.2-1.2-0.4-1.6-0.5s-1-0.1-1.8-0.1c-1.4 0-2.7 0.4-3.9 1.2-1.3 0.8-2.4 2.1-3.5 4v10.6h-3.1v-0.1z"/>
 <path class="st10" d="m1391 488.9c-1.6 0-3.1-0.4-4.4-1.1-1.4-0.7-2.5-1.8-3.3-3.2s-1.3-3.1-1.3-5.1 0.4-3.8 1.3-5.2c0.8-1.4 1.9-2.5 3.3-3.2s2.8-1.1 4.4-1.1 3.1 0.4 4.4 1.1c1.4 0.7 2.5 1.8 3.3 3.2s1.2 3.1 1.2 5.2c0 2-0.4 3.7-1.2 5.1s-1.9 2.5-3.3 3.2-2.8 1.1-4.4 1.1zm0-2.5c1.7 0 3.1-0.6 4.2-1.9s1.6-3 1.6-5c0-2.1-0.5-3.8-1.6-5.1s-2.5-1.9-4.2-1.9-3.1 0.6-4.2 1.9-1.6 3-1.6 5.1 0.5 3.7 1.6 5c1 1.2 2.4 1.9 4.2 1.9z"/>
 <path class="st10" d="m1404 488.4v-18.1h2.5l0.3 2.4h0.1c0.5-0.8 1-1.5 1.6-2.1s1.5-0.8 2.5-0.8c1.8 0 2.9 1 3.4 3.1 0.5-1 1.1-1.7 1.7-2.3s1.5-0.8 2.5-0.8c1.3 0 2.3 0.5 3 1.4s1.1 2.3 1.1 4.2v13h-3.1v-12.8c0-2.1-0.6-3.2-1.9-3.2-0.6 0-1.1 0.2-1.5 0.7s-0.9 1.2-1.4 2.1v13.1h-2.8v-12.8c0-1-0.1-1.8-0.4-2.4s-0.8-0.8-1.4-0.8-1.2 0.2-1.6 0.7c-0.5 0.5-0.9 1.2-1.4 2.1v13.1h-3.2v0.2z"/>
 <path class="st10" d="m1436 475.5c-0.8 0-1.6-0.3-2.1-0.9-0.6-0.6-0.9-1.3-0.9-2.3 0-0.9 0.3-1.7 0.9-2.3s1.3-0.9 2.1-0.9 1.6 0.3 2.1 0.9c0.6 0.6 0.9 1.4 0.9 2.3s-0.3 1.7-0.9 2.3-1.3 0.9-2.1 0.9zm0 13.4c-0.8 0-1.6-0.3-2.1-0.9-0.6-0.6-0.9-1.3-0.9-2.3 0-0.9 0.3-1.7 0.9-2.3s1.3-0.9 2.1-0.9 1.6 0.3 2.1 0.9c0.6 0.6 0.9 1.4 0.9 2.3s-0.3 1.7-0.9 2.3-1.3 0.9-2.1 0.9z"/>
 <path class="st10" d="m1480 488.9c-2.6 0-4.7-1.1-6.3-3.2s-2.3-5.2-2.3-9.2 0.8-7.1 2.3-9.1c1.5-2.1 3.6-3.1 6.3-3.1s4.8 1 6.3 3.1 2.3 5.1 2.3 9.1-0.8 7-2.3 9.2-3.7 3.2-6.3 3.2zm0-2.5c1.7 0 3-0.8 4.1-2.4s1.6-4.1 1.6-7.5-0.5-5.9-1.6-7.5-2.4-2.3-4.1-2.3-3 0.8-4.1 2.3c-1.1 1.6-1.6 4-1.6 7.5 0 3.4 0.5 5.9 1.6 7.5 1 1.6 2.4 2.4 4.1 2.4zm0-7.7c-0.6 0-1.2-0.2-1.6-0.7-0.5-0.4-0.7-1.1-0.7-1.8 0-0.8 0.2-1.4 0.7-1.8s1-0.7 1.6-0.7 1.2 0.2 1.6 0.7c0.5 0.4 0.7 1 0.7 1.8s-0.2 1.4-0.7 1.8c-0.5 0.5-1 0.7-1.6 0.7z"/>
 <path class="st10" d="m1494 488.4 6.9-9.4-6.4-8.7h3.4l2.9 4c0.3 0.5 0.7 1 1 1.5 0.4 0.5 0.7 1.1 1.1 1.5h0.1c0.3-0.5 0.7-1 1-1.6 0.3-0.5 0.7-1.1 1-1.6l2.7-3.9h3.2l-6.5 9 6.9 9.1h-3.4l-3.2-4.2c-0.4-0.5-0.8-1.1-1.2-1.6-0.4-0.6-0.8-1.1-1.2-1.6h-0.1c-0.4 0.5-0.7 1.1-1.1 1.6s-0.7 1.1-1.1 1.7l-3 4.2h-3z"/>
 <path class="st10" d="m1525 488.9c-2.6 0-4.7-1.1-6.3-3.2s-2.3-5.2-2.3-9.2 0.8-7.1 2.3-9.1c1.5-2.1 3.6-3.1 6.3-3.1s4.8 1 6.3 3.1 2.3 5.1 2.3 9.1-0.8 7-2.3 9.2-3.7 3.2-6.3 3.2zm0-2.5c1.7 0 3-0.8 4.1-2.4s1.6-4.1 1.6-7.5-0.5-5.9-1.6-7.5-2.4-2.3-4.1-2.3-3 0.8-4.1 2.3c-1.1 1.6-1.6 4-1.6 7.5 0 3.4 0.5 5.9 1.6 7.5 1 1.6 2.4 2.4 4.1 2.4zm0-7.7c-0.6 0-1.2-0.2-1.6-0.7-0.5-0.4-0.7-1.1-0.7-1.8 0-0.8 0.2-1.4 0.7-1.8s1-0.7 1.6-0.7 1.2 0.2 1.6 0.7c0.5 0.4 0.7 1 0.7 1.8s-0.2 1.4-0.7 1.8c-0.5 0.5-1 0.7-1.6 0.7z"/>
 <path class="st10" d="m1540 488.4v-2.5h6.9v-17.5h-5.3v-2c1.4-0.2 2.6-0.4 3.5-0.7s1.8-0.6 2.6-1h2.3v21.3h6.2v2.5l-16.2-0.1z"/>
 <path class="st10" d="m1294 538.9v-1.8h1.9c1.3 0 2.2-0.1 2.9-0.3s1.1-0.6 1.4-1.1c0.2-0.5 0.4-1.2 0.4-2 0-1.1 0-2.2-0.1-3.3-0.1-1-0.1-2.2-0.1-3.5 0-1.2 0.2-2.1 0.7-2.8 0.5-0.6 1.4-1.1 2.7-1.3v-0.1c-1.3-0.2-2.2-0.7-2.7-1.3s-0.7-1.6-0.7-2.8 0-2.3 0.1-3.5c0.1-1.1 0.1-2.2 0.1-3.3 0-0.8-0.1-1.5-0.4-2-0.2-0.5-0.7-0.9-1.4-1.1s-1.6-0.3-2.9-0.3h-1.9v-1.8h2.3c2.3 0 4.1 0.3 5.2 1s1.7 2 1.7 3.9c0 1.3-0.1 2.5-0.2 3.7s-0.2 2.3-0.2 3.5c0 0.5 0.1 0.9 0.4 1.4 0.3 0.4 0.8 0.8 1.6 1.1s1.9 0.4 3.4 0.4v1.9c-1.5 0-2.6 0.1-3.4 0.4s-1.3 0.6-1.6 1.1c-0.3 0.4-0.4 0.9-0.4 1.4 0 1.2 0.1 2.4 0.2 3.5s0.2 2.3 0.2 3.7c0 1.9-0.6 3.2-1.7 3.9s-2.8 1-5.2 1h-2.3v0.4z"/>
 <path class="st11" d="m1525 321.9c-16.9-11.1-22.1-26.1-9.4-27s33.8 12.9 38 24.9-11.7 13.2-28.6 2.1z"/>
 <path class="st11" d="m1473 292.4c-6.1-1.5-8.5-8-4.4-11.8s11.7-2 13.7 3.3-3.2 10-9.3 8.5z"/>
 <path class="st8" d="m1170 529.1c-4-1.9-4.4-7.3-0.8-9.8s8.5-0.2 8.9 4.2-4.1 7.4-8.1 5.6z"/>
 <path class="st8" d="m1007 529.7c-5.2-3.1-5.6-9.9-0.7-12.2s11.5 1.7 11.8 7.1-5.8 8.2-11.1 5.1z"/>
 <path class="st8" d="m1039 511.4c-3.2 0-5.3-3.5-3.6-6.3 1.6-2.8 5.7-2.8 7.3 0s-0.4 6.3-3.7 6.3z"/>
 <path class="st8" d="m359.2 534.9c-3.3 0-5.4-3.6-3.7-6.5s5.8-2.9 7.5 0c1.5 2.9-0.5 6.5-3.8 6.5z"/>
 <path class="st6" d="m732.7 452.6 41.7-44.3c2.1-2.2 0.5-5.8-2.5-5.8h-83.5c-3 0-4.6 3.6-2.5 5.8l41.7 44.3c1.5 1.4 3.8 1.4 5.1 0z"/>
 <path class="st6" d="m705.6 404.1h49.2s6.9-22.1 6.9-46.5c0-17.1-2.8-31.4-4.9-39.5-1.1-4.2-4.8-7.1-9.1-7.1h-35.1c-4.3 0-8.1 2.9-9.1 7.1-2 8.1-4.9 22.4-4.9 39.5 0.1 24.3 7 46.5 7 46.5z"/>
 <path class="st6" d="m306.3 371.4v3.7h-21.3v-29.4h20.8v3.7h-16.6v9h14.7v3.6h-14.7v9.5h17.1z"/>
 <path class="st6" d="m333.2 362.3v12.8h-4v-12.4c0-4.4-2.2-6.5-6-6.5-4.3 0-7.1 2.6-7.1 7.4v11.5h-4v-22.3h3.9v3.4c1.6-2.3 4.5-3.6 8-3.6 5.3 0 9.2 3.1 9.2 9.7z"/>
 <path class="st6" d="m359.5 352.8-9.7 22.3h-4.1l-9.7-22.3h4.2l7.6 17.9 7.8-17.9h3.9z"/>
 <path class="st6" d="m362.1 345.9c0-1.5 1.2-2.6 2.7-2.6 1.6 0 2.7 1.1 2.7 2.6s-1.1 2.7-2.7 2.7c-1.5-0.1-2.7-1.2-2.7-2.7zm0.8 6.9h4v22.3h-4v-22.3z"/>
 <path class="st6" d="m391.8 361.6v13.4h-3.8v-2.9c-1.3 2-3.8 3.2-7.3 3.2-5 0-8.2-2.7-8.2-6.6 0-3.6 2.3-6.5 8.9-6.5h6.4v-0.8c0-3.4-2-5.4-6-5.4-2.6 0-5.3 0.9-7.1 2.4l-1.7-3c2.3-1.8 5.6-2.9 9.2-2.9 6.2 0.1 9.6 3 9.6 9.1zm-4 6.7v-3.1h-6.2c-4 0-5.1 1.6-5.1 3.4 0 2.2 1.8 3.6 4.9 3.6 3 0 5.4-1.4 6.4-3.9z"/>
 <path class="st6" d="m410.8 352.6v3.9h-0.9c-4.3 0-7 2.6-7 7.5v11.1h-4v-22.3h3.9v3.7c1.3-2.6 4.1-3.9 8-3.9z"/>
 <path class="st6" d="m447.3 352.8v22.3h-3.8v-3.4c-1.6 2.3-4.4 3.6-7.6 3.6-5.8 0-9.6-3.2-9.6-9.7v-12.8h4v12.4c0 4.4 2.2 6.6 6 6.6 4.2 0 6.9-2.6 6.9-7.4v-11.5h4.1z"/>
 <path class="st6" d="m475.7 362.3v12.8h-4v-12.4c0-4.4-2.2-6.5-6-6.5-4.3 0-7.1 2.6-7.1 7.4v11.5h-4v-22.3h3.9v3.4c1.6-2.3 4.5-3.6 8-3.6 5.4 0 9.2 3.1 9.2 9.7z"/>
 <path class="st6" d="m513.6 365.3h-18.1c0.5 3.9 3.7 6.5 8.1 6.5 2.6 0 4.8-0.9 6.4-2.7l2.2 2.6c-2 2.4-5.1 3.6-8.8 3.6-7.2 0-12-4.7-12-11.4 0-6.6 4.7-11.3 11.2-11.3 6.4 0 11 4.6 11 11.5 0.1 0.3 0.1 0.8 0 1.2zm-18-2.9h14.3c-0.4-3.7-3.2-6.4-7.1-6.4s-6.8 2.6-7.2 6.4z"/>
 <path class="st6" d="m532.5 375.1-6.4-8.5-6.5 8.5h-4.6l8.8-11.4-8.4-10.9h4.5l6.1 8 6.1-8h4.4l-8.4 10.9 8.9 11.4h-4.5z"/>
 <path class="st6" d="m553.5 373.8c-1.2 1.1-3.1 1.6-4.9 1.6-4.5 0-7.1-2.5-7.1-7v-12.2h-3.8v-3.3h3.8v-4.9h4v4.9h6.4v3.3h-6.4v12.1c0 2.4 1.3 3.7 3.5 3.7 1.2 0 2.3-0.4 3.2-1.1l1.3 2.9z"/>
 <path class="st6" d="m570 352.6v3.9h-0.9c-4.3 0-7 2.6-7 7.5v11.1h-4v-22.3h3.9v3.7c1.3-2.6 4.1-3.9 8-3.9z"/>
 <path class="st6" d="m573.8 345.9c0-1.5 1.2-2.6 2.7-2.6 1.6 0 2.7 1.1 2.7 2.6s-1.1 2.7-2.7 2.7c-1.5-0.1-2.7-1.2-2.7-2.7zm0.7 6.9h4v22.3h-4v-22.3z"/>
 <path class="st6" d="m606.9 362.3v12.8h-4v-12.4c0-4.4-2.2-6.5-6-6.5-4.3 0-7.1 2.6-7.1 7.4v11.5h-4v-22.3h3.9v3.4c1.6-2.3 4.5-3.6 8-3.6 5.4 0 9.2 3.1 9.2 9.7z"/>
 <path class="st6" d="m611.2 372.7 1.7-3.2c1.9 1.3 4.9 2.3 7.8 2.3 3.7 0 5.3-1.1 5.3-3 0-5-14.1-0.7-14.1-9.5 0-4 3.6-6.7 9.3-6.7 2.9 0 6.2 0.8 8.1 2l-1.7 3.2c-2-1.3-4.2-1.8-6.4-1.8-3.5 0-5.3 1.3-5.3 3.1 0 5.3 14.1 1 14.1 9.6 0 4-3.7 6.6-9.6 6.6-3.7 0-7.4-1.1-9.2-2.6z"/>
 <path class="st6" d="m633.9 345.9c0-1.5 1.2-2.6 2.7-2.6 1.6 0 2.7 1.1 2.7 2.6s-1.1 2.7-2.7 2.7c-1.5-0.1-2.7-1.2-2.7-2.7zm0.7 6.9h4v22.3h-4v-22.3z"/>
 <path class="st6" d="m643.8 363.9c0-6.6 4.9-11.3 11.8-11.3 4 0 7.3 1.6 9.1 4.7l-3.1 2c-1.4-2.2-3.6-3.2-6-3.2-4.4 0-7.6 3.1-7.6 7.8 0 4.8 3.3 7.9 7.6 7.9 2.4 0 4.6-1 6-3.2l3.1 1.9c-1.8 3.1-5.1 4.8-9.1 4.8-6.8 0-11.8-4.7-11.8-11.4z"/>
 <path class="st7" d="m388.9 100.1h6.8v30.7h19v5.7h-25.8v-36.4z"/>
 <path class="st7" d="m445.1 124.7h-21.8c0.8 4.1 4.2 6.7 9 6.7 3.1 0 5.6-1 7.5-3l3.5 4c-2.5 3-6.4 4.5-11.2 4.5-9.3 0-15.3-6-15.3-14.2 0-8.3 6.1-14.2 14.4-14.2 8.1 0 14 5.7 14 14.4 0 0.4 0 1.2-0.1 1.8zm-21.8-4.3h15.8c-0.5-4-3.6-6.8-7.9-6.8-4.2 0-7.3 2.7-7.9 6.8z"/>
 <path class="st7" d="m477 108.8-13 30c-2.5 6.3-6.1 8.2-10.7 8.2-2.8 0-5.7-0.9-7.4-2.5l2.6-4.8c1.2 1.2 3 1.9 4.8 1.9 2.3 0 3.6-1.1 4.9-3.8l0.5-1.1-12.1-27.9h6.8l8.7 20.5 8.8-20.5h6.1z"/>
 <path class="st7" d="m506.2 124.7h-21.8c0.8 4.1 4.2 6.7 9 6.7 3.1 0 5.6-1 7.5-3l3.5 4c-2.5 3-6.4 4.5-11.2 4.5-9.3 0-15.3-6-15.3-14.2 0-8.3 6.1-14.2 14.4-14.2 8.1 0 14 5.7 14 14.4 0 0.4 0 1.2-0.1 1.8zm-21.8-4.3h15.8c-0.5-4-3.6-6.8-7.9-6.8-4.2 0-7.3 2.7-7.9 6.8z"/>
 <path class="st7" d="m539.9 120.6v15.9h-6.5v-15.1c0-4.9-2.4-7.3-6.6-7.3-4.6 0-7.7 2.8-7.7 8.4v14h-6.5v-27.8h6.2v3.6c2.1-2.5 5.5-3.9 9.6-3.9 6.6 0 11.5 3.8 11.5 12.2z"/>
 <path class="st7" d="m575.7 97.9v38.6h-6.2v-3.6c-2.2 2.7-5.4 4-9.2 4-8.1 0-14-5.6-14-14.2s6-14.2 14-14.2c3.6 0 6.8 1.2 8.9 3.7v-14.3h6.5zm-6.4 24.7c0-5.3-3.6-8.7-8.3-8.7s-8.3 3.4-8.3 8.7 3.6 8.7 8.3 8.7 8.3-3.4 8.3-8.7z"/>
 <path class="st7" d="m581.9 122.6c0-8.3 6.2-14.2 14.8-14.2s14.8 5.9 14.8 14.2-6.2 14.2-14.8 14.2c-8.6 0.1-14.8-5.8-14.8-14.2zm23 0c0-5.3-3.5-8.7-8.3-8.7-4.7 0-8.2 3.4-8.2 8.7s3.5 8.7 8.2 8.7c4.8 0 8.3-3.4 8.3-8.7z"/>
 <path class="st7" d="m658.1 108.8-11.9 27.8h-6.7l-11.9-27.8h6.8l8.6 20.6 8.9-20.6h6.2z"/>
 <path class="st7" d="m684.5 120.2v16.3h-6.1v-3.4c-1.6 2.4-4.6 3.7-8.7 3.7-6.3 0-10.3-3.5-10.3-8.3 0-4.6 3.1-8.3 11.5-8.3h7.2v-0.4c0-3.8-2.3-6-6.9-6-3.1 0-6.3 1-8.4 2.8l-2.5-4.7c3-2.3 7.3-3.4 11.8-3.4 7.8-0.1 12.4 3.7 12.4 11.7zm-6.5 7.6v-3.2h-6.7c-4.4 0-5.6 1.7-5.6 3.7 0 2.3 2 3.8 5.3 3.8 3.1 0.1 5.9-1.4 7-4.3z"/>
 <path class="st7" d="M692.8,97.9h6.5v38.6h-6.5V97.9z"/>
 <path class="st7" d="m705.6 122.6c0-8.3 6.2-14.2 14.8-14.2s14.8 5.9 14.8 14.2-6.2 14.2-14.8 14.2c-8.6 0.1-14.8-5.8-14.8-14.2zm23 0c0-5.3-3.5-8.7-8.3-8.7-4.7 0-8.2 3.4-8.2 8.7s3.5 8.7 8.2 8.7c4.8 0 8.3-3.4 8.3-8.7z"/>
 <path class="st7" d="m757.4 108.4v6.2c-0.6-0.1-1-0.2-1.5-0.2-4.9 0-8.1 2.9-8.1 8.6v13.5h-6.5v-27.8h6.2v4.1c1.9-2.9 5.3-4.4 9.9-4.4z"/>
 <path class="st7" d="m788.7 124.7h-21.8c0.8 4.1 4.2 6.7 9 6.7 3.1 0 5.6-1 7.5-3l3.5 4c-2.5 3-6.4 4.5-11.2 4.5-9.3 0-15.3-6-15.3-14.2 0-8.3 6.1-14.2 14.4-14.2 8.1 0 14 5.7 14 14.4 0 0.4 0 1.2-0.1 1.8zm-21.8-4.3h15.8c-0.5-4-3.6-6.8-7.9-6.8-4.2 0-7.3 2.7-7.9 6.8z"/>
 <path class="st7" d="m791.9 133.8 2.5-4.9c2.4 1.6 6.2 2.8 9.7 2.8 4.1 0 5.8-1.1 5.8-3.1 0-5.3-17.2-0.3-17.2-11.4 0-5.3 4.7-8.7 12.2-8.7 3.7 0 7.9 0.9 10.4 2.4l-2.5 4.9c-2.7-1.6-5.3-2.1-8-2.1-4 0-5.8 1.3-5.8 3.1 0 5.6 17.2 0.6 17.2 11.5 0 5.2-4.8 8.6-12.6 8.6-4.6 0-9.2-1.4-11.7-3.1z"/>
 <path class="st7" d="m863.4 97.9v38.6h-6.2v-3.6c-2.2 2.7-5.4 4-9.2 4-8.1 0-14-5.6-14-14.2s6-14.2 14-14.2c3.6 0 6.8 1.2 8.9 3.7v-14.3h6.5zm-6.4 24.7c0-5.3-3.6-8.7-8.3-8.7s-8.3 3.4-8.3 8.7 3.6 8.7 8.3 8.7 8.3-3.4 8.3-8.7z"/>
 <path class="st7" d="m897.9 124.7h-21.8c0.8 4.1 4.2 6.7 9 6.7 3.1 0 5.6-1 7.5-3l3.5 4c-2.5 3-6.4 4.5-11.2 4.5-9.3 0-15.3-6-15.3-14.2 0-8.3 6.1-14.2 14.4-14.2 8.1 0 14 5.7 14 14.4 0 0.4 0 1.2-0.1 1.8zm-21.8-4.3h15.8c-0.5-4-3.6-6.8-7.9-6.8-4.2 0-7.3 2.7-7.9 6.8z"/>
 <path class="st7" d="M904.2,97.9h6.5v38.6h-6.5V97.9z"/>
 <path class="st7" d="m931.3 122.6c0-8.3 6.2-14.2 15-14.2 5.4 0 9.7 2.2 11.9 6.4l-5 2.9c-1.7-2.7-4.2-3.8-6.9-3.8-4.8 0-8.4 3.3-8.4 8.7s3.6 8.7 8.4 8.7c2.8 0 5.3-1.2 6.9-3.8l5 2.9c-2.1 4.2-6.4 6.5-11.9 6.5-8.7 0-15-5.9-15-14.3z"/>
 <path class="st7" d="m961.1 122.6c0-8.3 6.2-14.2 14.8-14.2s14.8 5.9 14.8 14.2-6.2 14.2-14.8 14.2c-8.5 0.1-14.8-5.8-14.8-14.2zm23.1 0c0-5.3-3.5-8.7-8.3-8.7-4.7 0-8.2 3.4-8.2 8.7s3.5 8.7 8.2 8.7 8.3-3.4 8.3-8.7z"/>
 <path class="st7" d="m1024 120.6v15.9h-6.5v-15.1c0-4.9-2.4-7.3-6.6-7.3-4.6 0-7.7 2.8-7.7 8.4v14h-6.5v-27.8h6.2v3.6c2.1-2.5 5.5-3.9 9.6-3.9 6.6 0 11.5 3.8 11.5 12.2z"/>
 <path class="st7" d="m1049 135c-1.6 1.2-3.9 1.9-6.2 1.9-6.1 0-9.6-3.2-9.6-9.4v-13.4h-4.6v-5.1h4.6v-6.3h6.5v6.3h7.4v5.2h-7.4v13.2c0 2.7 1.4 4.2 3.8 4.2 1.4 0 2.7-0.4 3.6-1.1l1.9 4.5z"/>
 <path class="st7" d="m1071 108.4v6.2c-0.6-0.1-1-0.2-1.5-0.2-4.9 0-8.1 2.9-8.1 8.6v13.5h-6.5v-27.8h6.2v4.1c1.9-2.9 5.3-4.4 9.9-4.4z"/>
 <path class="st7" d="m1099 120.2v16.3h-6.1v-3.4c-1.6 2.4-4.6 3.7-8.7 3.7-6.3 0-10.3-3.5-10.3-8.3 0-4.6 3.1-8.3 11.5-8.3h7.2v-0.4c0-3.8-2.3-6-6.9-6-3.1 0-6.3 1-8.4 2.8l-2.5-4.7c3-2.3 7.3-3.4 11.8-3.4 7.8-0.1 12.4 3.7 12.4 11.7zm-6.5 7.6v-3.2h-6.7c-4.4 0-5.6 1.7-5.6 3.7 0 2.3 2 3.8 5.3 3.8 3.1 0.1 5.9-1.4 7-4.3z"/>
 <path class="st7" d="m1124 135c-1.6 1.2-3.9 1.9-6.2 1.9-6.1 0-9.6-3.2-9.6-9.4v-13.4h-4.6v-5.1h4.6v-6.3h6.5v6.3h7.4v5.2h-7.4v13.2c0 2.7 1.4 4.2 3.8 4.2 1.4 0 2.7-0.4 3.6-1.1l1.9 4.5z"/>
 <path class="st7" d="m1126 122.6c0-8.3 6.2-14.2 14.8-14.2s14.8 5.9 14.8 14.2-6.2 14.2-14.8 14.2c-8.5 0.1-14.8-5.8-14.8-14.2zm23.1 0c0-5.3-3.5-8.7-8.3-8.7-4.7 0-8.2 3.4-8.2 8.7s3.5 8.7 8.2 8.7 8.3-3.4 8.3-8.7z"/>
 <path class="st7" d="m1160 112.8c0-2.6 1.9-4.3 4.3-4.3 2.3 0 4.3 1.7 4.3 4.3 0 2.5-1.9 4.3-4.3 4.3s-4.3-1.8-4.3-4.3zm0 19.8c0-2.6 1.9-4.3 4.3-4.3 2.3 0 4.3 1.7 4.3 4.3 0 2.5-1.9 4.3-4.3 4.3s-4.3-1.8-4.3-4.3z"/>
 <path class="st7" d="m1217 130.9v5.7h-27.3v-36.4h26.6v5.7h-19.8v9.5h17.6v5.6h-17.6v10h20.5z"/>
 <path class="st7" d="m1250 108.8-11.9 27.8h-6.7l-11.9-27.8h6.8l8.6 20.6 8.9-20.6h6.2z"/>
 <path class="st7" d="m1279 124.7h-21.8c0.8 4.1 4.2 6.7 9 6.7 3.1 0 5.6-1 7.5-3l3.5 4c-2.5 3-6.4 4.5-11.2 4.5-9.3 0-15.3-6-15.3-14.2 0-8.3 6.1-14.2 14.4-14.2 8.1 0 14 5.7 14 14.4 0 0.4-0.1 1.2-0.1 1.8zm-21.9-4.3h15.8c-0.5-4-3.6-6.8-7.9-6.8-4.2 0-7.3 2.7-7.9 6.8z"/>
 <path class="st7" d="m1313 120.6v15.9h-6.5v-15.1c0-4.9-2.4-7.3-6.6-7.3-4.6 0-7.7 2.8-7.7 8.4v14h-6.5v-27.8h6.2v3.6c2.1-2.5 5.5-3.9 9.6-3.9 6.5 0 11.5 3.8 11.5 12.2z"/>
 <path class="st7" d="m1338 135c-1.6 1.2-3.9 1.9-6.2 1.9-6.1 0-9.6-3.2-9.6-9.4v-13.4h-4.6v-5.1h4.6v-6.3h6.5v6.3h7.4v5.2h-7.4v13.2c0 2.7 1.4 4.2 3.8 4.2 1.4 0 2.7-0.4 3.6-1.1l1.9 4.5z"/>
 <path class="st7" d="m1340 122.6c0-8.3 6.2-14.2 14.8-14.2s14.8 5.9 14.8 14.2-6.2 14.2-14.8 14.2c-8.5 0.1-14.8-5.8-14.8-14.2zm23.1 0c0-5.3-3.5-8.7-8.3-8.7-4.7 0-8.2 3.4-8.2 8.7s3.5 8.7 8.2 8.7 8.3-3.4 8.3-8.7z"/>
 <path class="st7" d="m1372 133.8 2.5-4.9c2.4 1.6 6.2 2.8 9.7 2.8 4.1 0 5.8-1.1 5.8-3.1 0-5.3-17.2-0.3-17.2-11.4 0-5.3 4.7-8.7 12.2-8.7 3.7 0 7.9 0.9 10.4 2.4l-2.5 4.9c-2.7-1.6-5.3-2.1-8-2.1-4 0-5.8 1.3-5.8 3.1 0 5.6 17.2 0.6 17.2 11.5 0 5.2-4.8 8.6-12.6 8.6-4.6 0-9.2-1.4-11.7-3.1z"/>
</svg>
