<?xml version="1.0" encoding="utf-8"?>
<!-- Generator: Adobe Illustrator 27.1.1, SVG Export Plug-In . SVG Version: 6.00 Build 0)  -->
<svg version="1.1"
	 id="Layer_1" xmlns:sodipodi="http://sodipodi.sourceforge.net/DTD/sodipodi-0.dtd" xmlns:svg="http://www.w3.org/2000/svg" xmlns:inkscape="http://www.inkscape.org/namespaces/inkscape"
	 xmlns="http://www.w3.org/2000/svg" xmlns:xlink="http://www.w3.org/1999/xlink" x="0px" y="0px" viewBox="0 0 1628 800.8"
	 style="enable-background:new 0 0 1628 800.8;" xml:space="preserve">
<style type="text/css">
	.st0{fill:#242526;}
	.st1{fill:#BC83FB;}
	.st2{fill:#D8B7FB;}
	.st3{clip-path:url(#SVGID_00000157286136360104819020000017044625547939170738_);}
	.st4{fill:none;stroke:#8747CC;stroke-width:4;stroke-linecap:round;stroke-miterlimit:10;}
	.st5{fill:#FFFFFF;}
	.st6{fill:none;stroke:#BC83FB;stroke-width:4;stroke-linecap:round;stroke-miterlimit:10;}
</style>
<sodipodi:namedview  bordercolor="#666666" borderopacity="1.0" id="namedview276" inkscape:current-layer="Layer_1" inkscape:cx="586.09988" inkscape:cy="409.90284" inkscape:deskcolor="#d1d1d1" inkscape:pagecheckerboard="0" inkscape:pageopacity="0.0" inkscape:showpageshadow="2" inkscape:window-height="1080" inkscape:window-maximized="1" inkscape:window-width="1499" inkscape:window-x="0" inkscape:window-y="23" inkscape:zoom="0.40863342" pagecolor="#ffffff" showgrid="false">
	</sodipodi:namedview>
<rect id="rect9" class="st0" width="1628.3" height="800.8"/>
<g id="g43">
	<path id="path11" d="M324.3,484.5L213.5,526C344.1,532.2,416.7,496.8,324.3,484.5z"/>
	<g id="g23">
		<path id="path13" class="st1" d="M324.3,296.8v197.3c0,42.6-221.7,42.6-221.7,0V296.8C102.6,260,324.3,260,324.3,296.8z"/>
		<path id="path15" class="st2" d="M324.3,296.8c0,33.2-221.7,33.2-221.7,0C102.6,260,324.3,260,324.3,296.8z"/>
		<g>
			<g>
				<defs>
					<path id="SVGID_1_" d="M324.3,296.8v197.3c0,42.6-221.7,42.6-221.7,0V296.8C102.6,260,324.3,260,324.3,296.8z"/>
				</defs>
				<clipPath id="SVGID_00000022558515166862773120000000208734313444109489_">
					<use xlink:href="#SVGID_1_"  style="overflow:visible;"/>
				</clipPath>
				<g id="g21" style="clip-path:url(#SVGID_00000022558515166862773120000000208734313444109489_);">
					<path id="path17" class="st4" d="M326.3,364.7c0,33.2-225.7,33.2-225.7,0"/>
					<path id="path19" class="st4" d="M326.3,432.6c0,33.2-225.7,33.2-225.7,0"/>
					<g>
						<g>
							<path class="st5" d="M114.7,422.7c-0.4-8.4,0-12.6-0.4-21c3.7,0.6,5.5,0.9,9.2,1.4c2.4,0.3,4.2,1.1,5.4,2.3
								c1.2,1.2,1.8,2.6,1.8,4.2c0,1.1-0.2,2-0.7,2.8c-0.5,0.7-1.1,1.3-2,1.6c-0.8,0.3-1.8,0.4-2.9,0.2c0.2-0.5,0.3-0.7,0.5-1.2
								c1.2,0.2,2.2,0.5,3.1,1.1c0.9,0.6,1.6,1.3,2.1,2.2c0.5,0.9,0.8,2,0.8,3.2c0,1.8-0.6,3.1-1.8,4c-1.2,0.8-3.1,1.1-5.5,0.7
								C120.5,423.6,118.5,423.3,114.7,422.7z M118.8,419.7c2,0.3,3,0.5,5.1,0.8c1.1,0.2,2,0.1,2.5-0.2c0.6-0.3,0.9-0.9,0.8-1.8
								c0-0.9-0.3-1.6-0.9-2.1c-0.6-0.5-1.4-0.9-2.6-1c-2.2-0.3-3.2-0.5-5.4-0.8c0-1.4,0-2.1,0-3.5c1.9,0.3,2.8,0.4,4.6,0.7
								c1.1,0.2,1.9,0.1,2.4-0.3c0.6-0.3,0.8-0.9,0.8-1.8c0-0.8-0.3-1.5-0.9-2c-0.6-0.5-1.4-0.8-2.4-1c-1.7-0.3-2.6-0.4-4.3-0.7
								C118.8,411.5,118.7,414.2,118.8,419.7z"/>
							<path class="st5" d="M139.3,426.4c-1.1-0.1-2.1-0.5-2.9-1s-1.5-1.2-1.9-2c-0.4-0.8-0.7-1.7-0.7-2.6c0-1,0.2-1.8,0.6-2.4
								c0.4-0.7,1.1-1.1,2-1.4c0.9-0.3,2.1-0.4,3.6-0.2c1.5,0.2,2.3,0.3,3.8,0.4c0,1.1,0,1.6,0,2.7c-1.4-0.2-2-0.2-3.4-0.4
								c-1-0.1-1.7,0-2,0.3c-0.4,0.3-0.5,0.7-0.5,1.3c0,0.6,0.2,1.1,0.7,1.5c0.4,0.4,1,0.6,1.7,0.7c0.7,0.1,1.3,0,1.9-0.3
								c0.5-0.3,0.9-0.8,1.2-1.5c0.3,0.9,0.4,1.3,0.7,2.2c-0.3,1-0.8,1.7-1.6,2.2C141.6,426.4,140.6,426.5,139.3,426.4z
								 M143.7,426.7c0-1.3-0.1-1.9-0.1-3.1c-0.1-0.3-0.2-0.4-0.3-0.7c0-2.3-0.1-3.4-0.1-5.6c0-1-0.3-1.8-0.8-2.4
								c-0.5-0.6-1.4-1-2.5-1.1c-0.8-0.1-1.5-0.1-2.3,0.1c-0.7,0.2-1.4,0.5-1.9,0.9c-0.6-1.4-0.9-2.1-1.5-3.5
								c0.8-0.5,1.7-0.9,2.8-1.1c1.1-0.2,2.2-0.2,3.4-0.1c2.2,0.3,3.9,1,5.1,2.3c1.2,1.3,1.9,3.2,1.9,5.6c0,3.7,0.1,5.5,0.2,9.2
								C146,426.9,145.3,426.8,143.7,426.7z"/>
							<path class="st5" d="M156.3,428.2c-1.2-0.1-2.4-0.4-3.6-0.8c-1.1-0.4-2.1-0.9-2.7-1.5c0.5-1.3,0.8-1.9,1.3-3.2
								c0.7,0.5,1.5,1,2.4,1.4c0.9,0.4,1.8,0.6,2.7,0.7c1,0.1,1.6,0,2-0.2c0.4-0.2,0.6-0.6,0.6-1c0-0.4-0.2-0.7-0.5-0.9
								c-0.3-0.2-0.7-0.4-1.3-0.5c-0.5-0.1-1.1-0.3-1.7-0.5c-0.6-0.2-1.2-0.4-1.9-0.6c-0.6-0.2-1.2-0.5-1.7-0.9
								c-0.5-0.4-0.9-0.9-1.3-1.5c-0.3-0.6-0.5-1.4-0.5-2.3c0-1,0.2-1.9,0.8-2.6s1.3-1.3,2.3-1.6c1-0.3,2.2-0.5,3.6-0.3
								c1,0.1,2,0.3,3,0.6c1,0.3,1.9,0.8,2.6,1.3c-0.5,1.3-0.8,1.9-1.3,3.2c-0.7-0.5-1.4-0.9-2.1-1.1c-0.7-0.2-1.4-0.4-2.1-0.4
								c-0.9-0.1-1.6,0-2,0.2c-0.4,0.2-0.6,0.6-0.6,1c0,0.4,0.2,0.7,0.5,0.9c0.3,0.2,0.7,0.4,1.3,0.6c0.5,0.2,1.1,0.3,1.7,0.5
								c0.6,0.1,1.2,0.3,1.9,0.6s1.2,0.5,1.7,0.9c0.5,0.4,0.9,0.9,1.3,1.5c0.3,0.6,0.5,1.4,0.5,2.3c0,1-0.2,1.9-0.7,2.6
								c-0.5,0.7-1.3,1.3-2.3,1.6C158.9,428.2,157.7,428.3,156.3,428.2z"/>
							<path class="st5" d="M172.8,429.5c-1.6-0.1-3.1-0.6-4.4-1.4c-1.3-0.8-2.3-1.9-3-3.2c-0.7-1.3-1.1-2.7-1.1-4.3
								c0-1.6,0.3-3,0.9-4.2c0.6-1.2,1.5-2.1,2.7-2.7c1.2-0.6,2.5-0.9,3.9-0.8c1.4,0.1,2.7,0.5,3.9,1.2c1.2,0.7,2.1,1.7,2.8,3
								c0.7,1.3,1,2.8,1.1,4.5c0,0.2,0,0.4,0,0.6c0,0.2,0,0.4,0,0.6c-4.7-0.3-7.1-0.4-11.8-0.8c0-1.1,0-1.6-0.1-2.7
								c3.8,0.3,5.7,0.4,9.6,0.6c-0.6,0.3-1,0.4-1.6,0.7c0-0.8-0.2-1.6-0.5-2.2c-0.3-0.6-0.7-1.1-1.3-1.5c-0.5-0.4-1.2-0.6-1.9-0.6
								c-0.7,0-1.3,0.1-1.9,0.4c-0.5,0.3-1,0.8-1.3,1.4c-0.3,0.6-0.4,1.3-0.4,2.2c0,0.3,0,0.4,0,0.7c0,0.9,0.2,1.7,0.6,2.4
								c0.4,0.7,0.9,1.2,1.5,1.6c0.6,0.4,1.4,0.6,2.3,0.7c0.8,0.1,1.4,0,2-0.3c0.6-0.2,1.1-0.6,1.6-1.1c0.9,1.1,1.4,1.7,2.3,2.8
								c-0.6,0.8-1.5,1.4-2.5,1.8S174.1,429.6,172.8,429.5z"/>
							<path class="st5" d="M196.5,430.6c-1.4,0-2.6-0.4-3.7-1.1c-1.1-0.7-2-1.7-2.6-3c-0.7-1.3-1-2.7-1-4.4c0-1.7,0.3-3.1,0.9-4.4
								c0.6-1.2,1.5-2.1,2.6-2.8c1.1-0.6,2.3-0.9,3.7-0.9c1.2,0,2.3,0.4,3.2,1s1.6,1.5,2.2,2.8c0.5,1.2,0.8,2.8,0.8,4.7
								c0,1.9-0.2,3.4-0.7,4.6c-0.5,1.2-1.2,2.1-2.1,2.7C198.8,430.4,197.7,430.7,196.5,430.6z M197.2,426.8c0.7,0,1.3-0.1,1.9-0.5
								c0.6-0.3,1-0.8,1.3-1.5c0.3-0.7,0.5-1.4,0.5-2.4c0-0.9-0.2-1.7-0.5-2.4c-0.3-0.7-0.8-1.2-1.4-1.6c-0.6-0.4-1.2-0.6-1.9-0.6
								c-0.7,0-1.3,0.1-1.9,0.5c-0.6,0.3-1,0.8-1.3,1.5c-0.3,0.6-0.5,1.4-0.5,2.4c0,0.9,0.2,1.7,0.5,2.4c0.3,0.7,0.8,1.2,1.4,1.6
								C195.8,426.6,196.5,426.8,197.2,426.8z M201,430.5c0-1.3,0-2,0-3.3c0-1.9,0-2.9,0-4.8c-0.1-1.9-0.2-2.9-0.3-4.8
								c0-3.7,0-5.6-0.1-9.4c1.7,0,2.5,0.1,4.2,0.1c0,8.9,0.1,13.3,0.1,22.2C203.4,430.6,202.6,430.5,201,430.5z"/>
							<path class="st5" d="M216.1,430.9c-1.7,0-3.1-0.4-4.3-1.1c-1.2-0.7-2.2-1.7-2.9-3c-0.7-1.3-1-2.7-1-4.3c0-1.6,0.3-3,1-4.3
								c0.7-1.2,1.6-2.2,2.8-2.9c1.2-0.7,2.5-1.1,4-1.1c1.4,0,2.7,0.3,3.9,1c1.1,0.7,2.1,1.6,2.7,2.8c0.7,1.2,1,2.7,1,4.5
								c0,0.2,0,0.4,0,0.6c0,0.2,0,0.4-0.1,0.6c-4.7,0.1-7.1,0.1-11.8,0.1c0-1.1,0-1.6,0-2.7c3.8,0,5.8,0,9.6,0
								c-0.7,0.3-1,0.5-1.6,0.8c0-0.8-0.1-1.6-0.5-2.2c-0.3-0.6-0.7-1.1-1.3-1.4c-0.5-0.3-1.2-0.5-1.9-0.5c-0.7,0-1.4,0.2-1.9,0.5
								c-0.6,0.3-1,0.8-1.3,1.5c-0.3,0.6-0.5,1.4-0.5,2.2c0,0.3,0,0.4,0,0.7c0,0.9,0.2,1.6,0.5,2.3c0.4,0.7,0.8,1.2,1.5,1.5
								c0.6,0.3,1.4,0.5,2.3,0.5c0.8,0,1.5-0.1,2-0.4c0.6-0.3,1.1-0.7,1.6-1.2c0.9,1.1,1.3,1.6,2.2,2.7c-0.7,0.8-1.5,1.5-2.5,2
								C218.5,430.6,217.4,430.9,216.1,430.9z"/>
							<path class="st5" d="M233.8,430.3c0.1-8.4,0.1-12.6,0.2-20.9c3.5-0.1,5.2-0.2,8.7-0.3c2.1-0.1,3.9,0.2,5.4,1
								c1.6,0.8,2.8,1.9,3.6,3.4c0.9,1.5,1.3,3.3,1.2,5.5c0,2.1-0.5,4-1.4,5.6c-0.9,1.6-2.2,2.9-3.7,3.9c-1.6,1-3.4,1.5-5.4,1.6
								C238.9,430.1,237.2,430.2,233.8,430.3z M238.2,426.2c1.6-0.1,2.4-0.1,4-0.2c1.3-0.1,2.4-0.4,3.3-1c0.9-0.6,1.7-1.4,2.2-2.4
								c0.5-1,0.8-2.2,0.8-3.5c0-1.3-0.2-2.5-0.7-3.4c-0.5-0.9-1.2-1.6-2.1-2.1s-2-0.7-3.3-0.6c-1.6,0.1-2.4,0.1-4,0.2
								C238.3,418.4,238.3,421,238.2,426.2z"/>
							<path class="st5" d="M260.2,429.1c-1.1,0.1-2.1-0.1-2.9-0.4s-1.4-0.9-1.8-1.6c-0.4-0.7-0.6-1.5-0.6-2.4c0-1,0.2-1.8,0.7-2.6
								c0.4-0.7,1.1-1.4,2-1.8c0.9-0.5,2.1-0.8,3.6-0.9c1.5-0.1,2.3-0.2,3.8-0.3c0,1.1,0,1.6,0,2.7c-1.3,0.1-2,0.2-3.4,0.3
								c-1,0.1-1.7,0.3-2,0.7c-0.4,0.4-0.6,0.8-0.6,1.4c0,0.6,0.2,1.1,0.6,1.4c0.4,0.3,1,0.4,1.7,0.4c0.7-0.1,1.3-0.3,1.9-0.7
								c0.6-0.4,1-1,1.2-1.7c0.2,0.8,0.4,1.3,0.6,2.1c-0.3,1.1-0.9,1.9-1.7,2.5C262.5,428.7,261.4,429,260.2,429.1z M264.6,428.5
								c0-1.2,0-1.9,0-3.1c-0.1-0.3-0.2-0.4-0.3-0.7c0-2.2,0.1-3.4,0.1-5.6c0-1-0.2-1.8-0.8-2.3c-0.5-0.5-1.4-0.7-2.5-0.6
								c-0.8,0.1-1.5,0.2-2.3,0.6c-0.7,0.3-1.4,0.7-1.9,1.2c-0.6-1.3-0.9-1.9-1.4-3.2c0.8-0.7,1.8-1.2,2.9-1.6
								c1.1-0.4,2.2-0.7,3.4-0.8c2.2-0.2,3.9,0.3,5.1,1.3c1.2,1.1,1.8,2.8,1.7,5.3c-0.1,3.7-0.1,5.5-0.1,9.2
								C266.9,428.3,266.1,428.4,264.6,428.5z"/>
							<path class="st5" d="M270.7,415.9c0-1.4,0-2.2,0-3.6c4-0.4,5.9-0.6,9.9-1c0,1.4,0,2.2,0,3.6
								C276.7,415.3,274.7,415.5,270.7,415.9z M278.2,427.5c-1.7,0.2-3-0.2-4-1c-0.9-0.9-1.4-2.3-1.4-4.2c0.1-5.6,0.1-8.5,0.1-14.2
								c1.6-0.2,2.5-0.2,4.1-0.4c0,5.6,0,8.5-0.1,14.1c0,0.7,0.2,1.2,0.5,1.5c0.3,0.3,0.8,0.5,1.3,0.4c0.7-0.1,1.2-0.3,1.7-0.8
								c0.4,1.3,0.7,1.9,1.1,3.1c-0.4,0.4-0.9,0.7-1.5,0.9C279.4,427.3,278.8,427.4,278.2,427.5z"/>
							<path class="st5" d="M290.4,426.1c-1.5,0.2-2.9,0-4.1-0.6c-1.2-0.6-2.1-1.4-2.8-2.6c-0.7-1.2-1-2.5-1-4.1
								c0-1.6,0.4-3.1,1-4.4c0.7-1.3,1.6-2.4,2.8-3.3c1.2-0.9,2.5-1.4,4-1.6c1.5-0.2,2.8,0,4,0.5c1.2,0.6,2.1,1.4,2.8,2.6
								c0.7,1.2,1,2.6,1,4.2c0,1.6-0.3,3.1-1,4.4c-0.7,1.3-1.6,2.4-2.8,3.3C293.2,425.4,291.9,425.9,290.4,426.1z M290.3,422.3
								c0.7-0.1,1.3-0.3,1.9-0.8c0.5-0.4,1-1,1.3-1.7c0.3-0.7,0.5-1.5,0.5-2.4c0-0.9-0.2-1.7-0.5-2.3c-0.3-0.6-0.8-1.1-1.3-1.4
								c-0.6-0.3-1.2-0.4-1.9-0.3c-0.7,0.1-1.3,0.3-1.9,0.8c-0.5,0.4-1,1-1.3,1.7c-0.3,0.7-0.5,1.5-0.5,2.5c0,0.9,0.2,1.7,0.5,2.3
								c0.3,0.6,0.8,1.1,1.3,1.4C289,422.3,289.6,422.4,290.3,422.3z"/>
							<path class="st5" d="M305.9,424c-1.2,0.2-2.4,0.2-3.6,0c-1.1-0.2-2-0.4-2.7-0.8c0.5-1.4,0.8-2.1,1.4-3.5
								c0.7,0.4,1.4,0.6,2.4,0.8c0.9,0.2,1.8,0.2,2.7,0c1-0.1,1.6-0.4,2-0.7c0.4-0.3,0.6-0.7,0.6-1.2c0-0.4-0.2-0.6-0.5-0.8
								c-0.3-0.1-0.7-0.2-1.2-0.2c-0.5,0-1.1,0-1.7,0c-0.6,0-1.2-0.1-1.9-0.1c-0.6-0.1-1.2-0.3-1.7-0.5c-0.5-0.3-0.9-0.7-1.3-1.2
								c-0.3-0.5-0.5-1.3-0.5-2.2c0-1,0.2-2,0.8-2.8c0.5-0.9,1.3-1.6,2.3-2.2c1-0.6,2.2-1,3.6-1.2c1-0.1,2-0.2,3-0.1
								c1,0.1,1.9,0.3,2.6,0.7c-0.5,1.4-0.8,2.2-1.4,3.6c-0.7-0.4-1.4-0.6-2.1-0.6c-0.7-0.1-1.4,0-2.1,0.1c-0.9,0.1-1.6,0.4-2,0.7
								s-0.6,0.7-0.6,1.2c0,0.4,0.2,0.7,0.5,0.8c0.3,0.2,0.7,0.3,1.2,0.3c0.5,0,1.1,0.1,1.7,0.1c0.6,0,1.2,0,1.9,0.1
								s1.2,0.3,1.7,0.5s0.9,0.6,1.3,1.2c0.3,0.5,0.5,1.2,0.5,2.1c0,1-0.3,1.9-0.8,2.7c-0.5,0.8-1.3,1.6-2.3,2.1
								C308.6,423.3,307.3,423.8,305.9,424z"/>
						</g>
					</g>
				</g>
			</g>
		</g>
	</g>
</g>
<g id="g163">
	<g id="g63">
		<path id="path45" class="st6" d="M926.6,75.3H523c-8.9,0-16.1,7.2-16.1,16.1v618.1c0,8.9,7.2,16.1,16.1,16.1h403.7"/>
		<g id="g61">
			<line id="line47" class="st6" x1="523" y1="156.6" x2="926.6" y2="156.6"/>
			<line id="line49" class="st6" x1="523" y1="237.9" x2="926.6" y2="237.9"/>
			<line id="line51" class="st6" x1="523" y1="319.1" x2="926.6" y2="319.1"/>
			<line id="line53" class="st6" x1="523" y1="400.4" x2="926.6" y2="400.4"/>
			<line id="line55" class="st6" x1="523" y1="481.7" x2="926.6" y2="481.7"/>
			<line id="line57" class="st6" x1="523" y1="563" x2="926.6" y2="563"/>
			<line id="line59" class="st6" x1="523" y1="644.3" x2="926.6" y2="644.3"/>
		</g>
	</g>
	<g id="g71">
		<path id="path65" class="st1" d="M413.5,400.4c0,5.8,3.7,10.9,9.2,12.7c9.1,3,9.1,7.7,9.1,10v290.3c0,7.2,5.7,13.5,12.9,13.5
			c1.2,0,2.3-0.1,3.4-0.4c0.4-0.1,0.8-0.4,0.9-0.8s0.1-0.9-0.1-1.2c-0.1-0.1-0.1-0.3-0.2-0.4c-6.4-12-2.1-25.4,7.7-30.7
			c0.8-0.4,1.3-1.3,1.3-2.2V423.1c0-8.1-2.4-15.3-6.9-21.1c-0.3-0.4-0.5-1-0.5-1.5s0.2-1,0.5-1.5c4.5-5.9,6.9-13,6.9-21.1v-268
			c0-0.9-0.5-1.8-1.3-2.2c-9.8-5.3-14.2-18.7-7.7-30.7c0.1-0.1,0.1-0.3,0.2-0.4c0.2-0.4,0.2-0.8,0.1-1.2c-0.2-0.4-0.5-0.7-0.9-0.8
			c-1.1-0.3-2.2-0.4-3.4-0.4c-7.2,0-12.9,6.2-12.9,13.5V378c0,2.3,0,7-9.1,10C417.2,389.6,413.5,394.7,413.5,400.4L413.5,400.4z"/>
		<path id="path67" class="st1" d="M476.9,719.6c5.2-8.5-0.7-20.4-10.6-21.4s-16.3,9.6-11.6,19.1S471.8,728.1,476.9,719.6
			L476.9,719.6z"/>
		<path id="path69" class="st1" d="M454.7,83.6c4.7-9.5,17.1-10.8,22.2-2.3s-0.7,20.4-10.6,21.4S450,93.1,454.7,83.6L454.7,83.6z"/>
	</g>
	<g id="g91">
		<path id="path73" class="st5" d="M550,127.4c-2.3,0-4.2-1-5.6-2.9c-1.4-1.9-2-4.7-2-8.2s0.7-6.3,2-8.2s3.2-2.8,5.6-2.8
			c2.4,0,4.2,0.9,5.6,2.8c1.3,1.9,2,4.6,2,8.2s-0.7,6.3-2,8.2C554.2,126.4,552.3,127.4,550,127.4z M550,125.2c1.5,0,2.7-0.7,3.6-2.2
			s1.4-3.7,1.4-6.7s-0.5-5.3-1.4-6.7c-0.9-1.4-2.2-2.1-3.6-2.1c-1.5,0-2.7,0.7-3.6,2.1s-1.4,3.6-1.4,6.7s0.5,5.3,1.4,6.7
			S548.5,125.2,550,125.2z M550,118.3c-0.6,0-1-0.2-1.5-0.6c-0.4-0.4-0.6-0.9-0.6-1.6s0.2-1.2,0.6-1.6c0.4-0.4,0.9-0.6,1.5-0.6
			s1,0.2,1.5,0.6c0.4,0.4,0.6,0.9,0.6,1.6s-0.2,1.2-0.6,1.6C551,118.1,550.5,118.3,550,118.3z"/>
		<path id="path75" class="st5" d="M562.1,127l6.2-8.4l-5.7-7.8h3l2.6,3.6c0.3,0.4,0.6,0.9,0.9,1.3c0.3,0.5,0.7,0.9,1,1.4h0.1
			c0.3-0.4,0.6-0.9,0.9-1.4s0.6-0.9,0.9-1.4l2.4-3.5h2.9l-5.8,8l6.2,8.2h-3l-2.8-3.7c-0.3-0.5-0.7-0.9-1-1.5s-0.7-1-1.1-1.5h-0.1
			c-0.3,0.5-0.7,1-1,1.4c-0.3,0.5-0.7,1-1,1.5L565,127H562.1z"/>
		<path id="path77" class="st5" d="M589.9,127.4c-2.3,0-4.2-1-5.6-2.9c-1.4-1.9-2-4.7-2-8.2s0.7-6.3,2-8.2s3.2-2.8,5.6-2.8
			c2.4,0,4.2,0.9,5.6,2.8c1.3,1.9,2,4.6,2,8.2s-0.7,6.3-2,8.2C594.1,126.4,592.3,127.4,589.9,127.4z M589.9,125.2
			c1.5,0,2.7-0.7,3.6-2.2s1.4-3.7,1.4-6.7s-0.5-5.3-1.4-6.7c-0.9-1.4-2.2-2.1-3.6-2.1c-1.5,0-2.7,0.7-3.6,2.1s-1.4,3.6-1.4,6.7
			s0.5,5.3,1.4,6.7S588.4,125.2,589.9,125.2z M589.9,118.3c-0.6,0-1-0.2-1.5-0.6c-0.4-0.4-0.6-0.9-0.6-1.6s0.2-1.2,0.6-1.6
			c0.4-0.4,0.9-0.6,1.5-0.6s1,0.2,1.5,0.6c0.4,0.4,0.6,0.9,0.6,1.6s-0.2,1.2-0.6,1.6C590.9,118.1,590.5,118.3,589.9,118.3z"/>
		<path id="path79" class="st5" d="M603.1,127v-2.3h6.1v-15.6h-4.8v-1.8c1.2-0.2,2.3-0.4,3.1-0.7c0.8-0.2,1.6-0.6,2.3-0.9h2v19h5.6
			v2.3H603.1L603.1,127z"/>
		<path id="path81" class="st5" d="M629.8,127.4c-2.3,0-4.2-1-5.6-2.9c-1.4-1.9-2-4.7-2-8.2s0.7-6.3,2-8.2s3.2-2.8,5.6-2.8
			c2.4,0,4.2,0.9,5.6,2.8c1.3,1.9,2,4.6,2,8.2s-0.7,6.3-2,8.2C634.1,126.4,632.2,127.4,629.8,127.4z M629.8,125.2
			c1.5,0,2.7-0.7,3.6-2.2s1.4-3.7,1.4-6.7s-0.5-5.3-1.4-6.7c-0.9-1.4-2.2-2.1-3.6-2.1c-1.5,0-2.7,0.7-3.6,2.1s-1.4,3.6-1.4,6.7
			s0.5,5.3,1.4,6.7S628.4,125.2,629.8,125.2z M629.8,118.3c-0.6,0-1-0.2-1.5-0.6c-0.4-0.4-0.6-0.9-0.6-1.6s0.2-1.2,0.6-1.6
			c0.4-0.4,0.9-0.6,1.5-0.6s1,0.2,1.5,0.6c0.4,0.4,0.6,0.9,0.6,1.6s-0.2,1.2-0.6,1.6C630.9,118.1,630.4,118.3,629.8,118.3z"/>
		<path id="path83" class="st5" d="M643,127v-2.3h6.1v-15.6h-4.8v-1.8c1.2-0.2,2.3-0.4,3.1-0.7c0.8-0.2,1.6-0.6,2.3-0.9h2v19h5.6
			v2.3H643L643,127z"/>
		<path id="path85" class="st5" d="M669.8,127.4c-0.8,0-1.4-0.3-1.9-0.8s-0.8-1.2-0.8-2s0.3-1.5,0.8-2.1c0.5-0.5,1.2-0.8,1.9-0.8
			s1.4,0.3,1.9,0.8s0.8,1.2,0.8,2.1c0,0.8-0.3,1.5-0.8,2S670.5,127.4,669.8,127.4z"/>
		<path id="path87" class="st5" d="M689.7,127.4c-0.8,0-1.4-0.3-1.9-0.8s-0.8-1.2-0.8-2s0.3-1.5,0.8-2.1c0.5-0.5,1.2-0.8,1.9-0.8
			s1.4,0.3,1.9,0.8s0.8,1.2,0.8,2.1c0,0.8-0.3,1.5-0.8,2C691.1,127.1,690.5,127.4,689.7,127.4z"/>
		<path id="path89" class="st5" d="M709.7,127.4c-0.8,0-1.4-0.3-1.9-0.8s-0.8-1.2-0.8-2s0.3-1.5,0.8-2.1c0.5-0.5,1.2-0.8,1.9-0.8
			s1.4,0.3,1.9,0.8s0.8,1.2,0.8,2.1c0,0.8-0.3,1.5-0.8,2C711.1,127.1,710.5,127.4,709.7,127.4z"/>
	</g>
	<g id="g111">
		<path id="path93" class="st5" d="M550,208.1c-2.3,0-4.2-1-5.6-2.9c-1.4-1.9-2-4.7-2-8.2s0.7-6.3,2-8.1s3.2-2.8,5.6-2.8
			c2.4,0,4.2,0.9,5.6,2.8c1.3,1.9,2,4.6,2,8.1c0,3.6-0.7,6.3-2,8.2C554.2,207.1,552.3,208.1,550,208.1z M550,205.9
			c1.5,0,2.7-0.7,3.6-2.2s1.4-3.7,1.4-6.7s-0.5-5.3-1.4-6.7s-2.2-2.1-3.6-2.1c-1.5,0-2.7,0.7-3.6,2.1s-1.4,3.6-1.4,6.7
			s0.5,5.3,1.4,6.7S548.5,205.9,550,205.9z M550,199c-0.6,0-1-0.2-1.5-0.6c-0.4-0.4-0.6-0.9-0.6-1.6s0.2-1.2,0.6-1.6
			c0.4-0.4,0.9-0.6,1.5-0.6s1,0.2,1.5,0.6c0.4,0.4,0.6,0.9,0.6,1.6c0,0.7-0.2,1.2-0.6,1.6C551,198.8,550.5,199,550,199z"/>
		<path id="path95" class="st5" d="M562.1,207.7l6.2-8.4l-5.7-7.8h3l2.6,3.6c0.3,0.4,0.6,0.9,0.9,1.4c0.3,0.5,0.7,0.9,1,1.4h0.1
			c0.3-0.4,0.6-0.9,0.9-1.4c0.3-0.5,0.6-0.9,0.9-1.4l2.4-3.5h2.9l-5.8,8l6.2,8.1h-3l-2.8-3.7c-0.3-0.5-0.7-0.9-1-1.5
			c-0.4-0.5-0.7-1-1.1-1.5h-0.1c-0.3,0.5-0.7,1-1,1.4s-0.7,1-1,1.5l-2.7,3.7L562.1,207.7L562.1,207.7z"/>
		<path id="path97" class="st5" d="M591.6,208.1c-1.8,0-3.4-0.4-4.8-1.4c-1.4-0.9-2.6-2.2-3.4-3.9c-0.8-1.7-1.3-3.7-1.3-6.1
			s0.4-4.4,1.3-6.1s2-3,3.5-3.9s3.2-1.4,5-1.4c1.3,0,2.5,0.3,3.5,0.8s1.8,1.1,2.5,1.9l-1.6,1.8c-0.6-0.6-1.2-1.1-1.9-1.4
			s-1.5-0.6-2.5-0.6c-1.4,0-2.6,0.4-3.6,1.1s-1.8,1.7-2.4,3c-0.6,1.3-0.9,2.9-0.9,4.7s0.3,3.4,0.9,4.7c0.6,1.3,1.4,2.4,2.4,3.1
			c1,0.7,2.2,1.1,3.6,1.1c1,0,1.9-0.2,2.7-0.6s1.5-1,2.2-1.8l1.6,1.7c-0.9,1-1.8,1.8-3,2.3C594.3,207.8,593,208.1,591.6,208.1
			L591.6,208.1z"/>
		<path id="path99" class="st5" d="M609.9,208.1c-1.6,0-3.1-0.4-4.4-1.4s-2.2-2.2-3-3.9s-1.1-3.7-1.1-6.1s0.3-4.4,1.1-6s1.7-3,3-3.8
			c1.3-0.9,2.7-1.3,4.4-1.3s3.1,0.4,4.4,1.3c1.3,0.9,2.2,2.2,3,3.8c0.7,1.7,1.1,3.7,1.1,6c0,2.4-0.3,4.4-1.1,6.1s-1.7,3-3,3.9
			S611.5,208.1,609.9,208.1z M609.9,205.7c1.7,0,3-0.8,4-2.4c1-1.6,1.5-3.8,1.5-6.6s-0.5-4.9-1.5-6.5s-2.3-2.3-4-2.3s-3,0.8-4,2.3
			s-1.5,3.7-1.5,6.5s0.5,5,1.5,6.6C606.9,204.9,608.2,205.7,609.9,205.7z"/>
		<path id="path101" class="st5" d="M624.3,207.7v-21.8h13.4v2.3h-10.6v7.4h9v2.3h-9v9.8H624.3L624.3,207.7z"/>
		<path id="path103" class="st5" d="M643.6,207.7v-21.8h13.5v2.3h-10.7v6.9h9v2.4h-9v7.9h11v2.4L643.6,207.7L643.6,207.7z"/>
		<path id="path105" class="st5" d="M669.8,208.1c-0.8,0-1.4-0.3-1.9-0.8s-0.8-1.2-0.8-2s0.3-1.5,0.8-2.1s1.2-0.8,1.9-0.8
			s1.4,0.3,1.9,0.8s0.8,1.2,0.8,2.1s-0.3,1.5-0.8,2S670.5,208.1,669.8,208.1z"/>
		<path id="path107" class="st5" d="M689.7,208.1c-0.8,0-1.4-0.3-1.9-0.8s-0.8-1.2-0.8-2s0.3-1.5,0.8-2.1s1.2-0.8,1.9-0.8
			s1.4,0.3,1.9,0.8s0.8,1.2,0.8,2.1s-0.3,1.5-0.8,2C691.1,207.8,690.5,208.1,689.7,208.1z"/>
		<path id="path109" class="st5" d="M709.7,208.1c-0.8,0-1.4-0.3-1.9-0.8s-0.8-1.2-0.8-2s0.3-1.5,0.8-2.1s1.2-0.8,1.9-0.8
			s1.4,0.3,1.9,0.8s0.8,1.2,0.8,2.1s-0.3,1.5-0.8,2C711.1,207.8,710.5,208.1,709.7,208.1z"/>
	</g>
	<g id="g131">
		<path id="path113" class="st5" d="M550,289.6c-2.3,0-4.2-1-5.6-2.9c-1.4-1.9-2-4.7-2-8.2s0.7-6.3,2-8.1s3.2-2.8,5.6-2.8
			c2.4,0,4.2,0.9,5.6,2.8c1.3,1.9,2,4.6,2,8.1s-0.7,6.3-2,8.2C554.2,288.7,552.3,289.6,550,289.6z M550,287.4c1.5,0,2.7-0.7,3.6-2.2
			s1.4-3.7,1.4-6.7s-0.5-5.3-1.4-6.7c-0.9-1.4-2.2-2.1-3.6-2.1c-1.5,0-2.7,0.7-3.6,2.1c-0.9,1.4-1.4,3.6-1.4,6.7s0.5,5.3,1.4,6.7
			S548.5,287.4,550,287.4z M550,280.5c-0.6,0-1-0.2-1.5-0.6c-0.4-0.4-0.6-0.9-0.6-1.6s0.2-1.2,0.6-1.6c0.4-0.4,0.9-0.6,1.5-0.6
			s1,0.2,1.5,0.6c0.4,0.4,0.6,0.9,0.6,1.6s-0.2,1.2-0.6,1.6S550.5,280.5,550,280.5z"/>
		<path id="path115" class="st5" d="M562.1,289.2l6.2-8.4l-5.7-7.8h3l2.6,3.6c0.3,0.4,0.6,0.9,0.9,1.4c0.3,0.5,0.7,0.9,1,1.4h0.1
			c0.3-0.4,0.6-0.9,0.9-1.4s0.6-1,0.9-1.4l2.4-3.5h2.9l-5.8,8l6.2,8.1h-3l-2.8-3.7c-0.3-0.5-0.7-1-1-1.5c-0.4-0.5-0.7-1-1.1-1.5
			h-0.1c-0.3,0.5-0.7,1-1,1.5s-0.7,1-1,1.5l-2.7,3.7L562.1,289.2z"/>
		<path id="path117" class="st5" d="M583.1,289.2V287h6.1v-15.6h-4.8v-1.8c1.2-0.2,2.3-0.4,3.1-0.6s1.6-0.6,2.3-0.9h2v19h5.6v2.3
			L583.1,289.2L583.1,289.2z"/>
		<path id="path119" class="st5" d="M600.9,289.2l7.3-21.8h3.1l7.4,21.8h-2.9l-2.1-6.7h-7.9l-2.1,6.7H600.9z M607.6,277l-1,3.3h6.5
			l-1-3.3c-0.4-1.2-0.8-2.4-1.1-3.6c-0.4-1.2-0.7-2.5-1-3.7h-0.1c-0.3,1.3-0.7,2.5-1.1,3.7C608.3,274.6,608,275.8,607.6,277z"/>
		<path id="path121" class="st5" d="M629.8,289.6c-2.3,0-4.2-1-5.6-2.9c-1.4-1.9-2-4.7-2-8.2s0.7-6.3,2-8.1s3.2-2.8,5.6-2.8
			c2.4,0,4.2,0.9,5.6,2.8c1.3,1.9,2,4.6,2,8.1s-0.7,6.3-2,8.2C634.1,288.7,632.2,289.6,629.8,289.6z M629.8,287.4
			c1.5,0,2.7-0.7,3.6-2.2s1.4-3.7,1.4-6.7s-0.5-5.3-1.4-6.7c-0.9-1.4-2.2-2.1-3.6-2.1c-1.5,0-2.7,0.7-3.6,2.1
			c-0.9,1.4-1.4,3.6-1.4,6.7s0.5,5.3,1.4,6.7S628.4,287.4,629.8,287.4z M629.8,280.5c-0.6,0-1-0.2-1.5-0.6c-0.4-0.4-0.6-0.9-0.6-1.6
			s0.2-1.2,0.6-1.6c0.4-0.4,0.9-0.6,1.5-0.6s1,0.2,1.5,0.6c0.4,0.4,0.6,0.9,0.6,1.6s-0.2,1.2-0.6,1.6S630.4,280.5,629.8,280.5z"/>
		<path id="path123" class="st5" d="M644.2,289.2v-21.8h13.4v2.3H647v7.4h9v2.3h-9v9.8L644.2,289.2L644.2,289.2z"/>
		<path id="path125" class="st5" d="M669.8,289.6c-0.8,0-1.4-0.3-1.9-0.8s-0.8-1.2-0.8-2s0.3-1.5,0.8-2s1.2-0.8,1.9-0.8
			s1.4,0.3,1.9,0.8s0.8,1.2,0.8,2c0,0.9-0.3,1.5-0.8,2C671.2,289.4,670.5,289.6,669.8,289.6z"/>
		<path id="path127" class="st5" d="M689.7,289.6c-0.8,0-1.4-0.3-1.9-0.8s-0.8-1.2-0.8-2s0.3-1.5,0.8-2s1.2-0.8,1.9-0.8
			s1.4,0.3,1.9,0.8s0.8,1.2,0.8,2c0,0.9-0.3,1.5-0.8,2C691.1,289.4,690.5,289.6,689.7,289.6z"/>
		<path id="path129" class="st5" d="M709.7,289.6c-0.8,0-1.4-0.3-1.9-0.8s-0.8-1.2-0.8-2s0.3-1.5,0.8-2s1.2-0.8,1.9-0.8
			s1.4,0.3,1.9,0.8s0.8,1.2,0.8,2c0,0.9-0.3,1.5-0.8,2C711.1,289.4,710.5,289.6,709.7,289.6z"/>
	</g>
	<g id="g151">
		<path id="path133" class="st5" d="M550,694.8c-2.3,0-4.2-1-5.6-2.9c-1.4-1.9-2-4.7-2-8.2s0.7-6.3,2-8.2c1.4-1.9,3.2-2.8,5.6-2.8
			c2.4,0,4.2,0.9,5.6,2.8c1.3,1.9,2,4.6,2,8.2s-0.7,6.3-2,8.2C554.2,693.9,552.3,694.8,550,694.8z M550,692.6c1.5,0,2.7-0.7,3.6-2.2
			s1.4-3.7,1.4-6.7s-0.5-5.3-1.4-6.7s-2.2-2.1-3.6-2.1c-1.5,0-2.7,0.7-3.6,2.1s-1.4,3.6-1.4,6.7s0.5,5.3,1.4,6.7
			C547.3,691.9,548.5,692.6,550,692.6z M550,685.7c-0.6,0-1-0.2-1.5-0.6c-0.4-0.4-0.6-0.9-0.6-1.6s0.2-1.2,0.6-1.6
			c0.4-0.4,0.9-0.6,1.5-0.6s1,0.2,1.5,0.6c0.4,0.4,0.6,0.9,0.6,1.6s-0.2,1.2-0.6,1.6S550.5,685.7,550,685.7z"/>
		<path id="path135" class="st5" d="M562.1,694.4l6.2-8.4l-5.7-7.8h3l2.6,3.6c0.3,0.4,0.6,0.9,0.9,1.3c0.3,0.5,0.7,0.9,1,1.4h0.1
			c0.3-0.4,0.6-0.9,0.9-1.4c0.3-0.5,0.6-1,0.9-1.4l2.4-3.5h2.9l-5.8,8l6.2,8.2h-3l-2.8-3.7c-0.3-0.5-0.7-1-1-1.5s-0.7-1-1.1-1.5
			h-0.1c-0.3,0.5-0.7,1-1,1.5s-0.7,1-1,1.5l-2.7,3.7L562.1,694.4z"/>
		<path id="path137" class="st5" d="M589.4,694.8c-1.9,0-3.4-0.3-4.6-0.9c-1.2-0.6-2.2-1.3-3-2l1.4-1.8c0.7,0.6,1.5,1.2,2.5,1.7
			s2.1,0.8,3.5,0.8c1,0,1.9-0.2,2.7-0.6c0.8-0.4,1.5-1,2-1.7s0.7-1.6,0.7-2.6c0-1.5-0.5-2.6-1.4-3.4s-2.2-1.2-3.8-1.2
			c-0.9,0-1.6,0.1-2.3,0.3c-0.6,0.2-1.3,0.5-2.1,1l-1.5-0.9l0.7-10.2h12v2.4h-9.6L586,682c0.6-0.3,1.2-0.5,1.8-0.6s1.3-0.2,2.1-0.2
			c1.3,0,2.6,0.2,3.7,0.7s2,1.2,2.6,2.2c0.7,1,1,2.2,1,3.8s-0.4,2.8-1.1,3.9c-0.7,1.1-1.7,1.9-2.9,2.5
			C592.1,694.5,590.8,694.8,589.4,694.8L589.4,694.8z"/>
		<path id="path139" class="st5" d="M612.1,694.4v-5.9h-11v-1.8l10.6-13.5h2.9v13.2h3.3v2.2h-3.3v5.9L612.1,694.4L612.1,694.4z
			 M604.2,686.4h7.9v-6.6c0-0.6,0-1.2,0.1-1.9s0.1-1.3,0.1-1.9h-0.2c-0.3,0.5-0.7,1-1.1,1.5c-0.4,0.5-0.7,1-1.1,1.5L604.2,686.4
			L604.2,686.4z"/>
		<path id="path141" class="st5" d="M628.4,694.8c-1.3,0-2.4-0.2-3.4-0.7c-1-0.4-1.8-1-2.5-1.6l1.5-1.7c0.5,0.5,1.2,0.9,1.9,1.2
			s1.5,0.5,2.3,0.5c1.1,0,2.2-0.3,3.1-0.9s1.7-1.5,2.3-2.9c0.6-1.3,0.9-3.1,1-5.4c-0.9,0.8-1.8,1.5-2.8,2s-2.1,0.7-3.2,0.7
			c-2,0-3.5-0.5-4.8-1.7c-1.2-1.1-1.8-2.7-1.8-4.9c0-1.3,0.3-2.5,1-3.6c0.7-1,1.5-1.8,2.6-2.4c1.1-0.6,2.2-0.9,3.5-0.9
			c1.5,0,2.9,0.4,4.2,1.1s2.2,1.9,2.9,3.4s1.1,3.4,1.1,5.7c0,2.1-0.2,3.9-0.7,5.4s-1.2,2.7-2,3.7c-0.8,0.9-1.8,1.6-2.8,2.1
			C630.7,694.6,629.6,694.8,628.4,694.8L628.4,694.8z M624.7,679.6c0,1.4,0.4,2.5,1.2,3.3s1.9,1.2,3.4,1.2c0.8,0,1.7-0.2,2.7-0.7
			c1-0.4,1.9-1.2,2.7-2.2c-0.2-2.1-0.8-3.6-1.7-4.7c-0.9-1.1-2.2-1.6-3.7-1.6c-1.3,0-2.3,0.4-3.2,1.3
			C625.1,677.1,624.7,678.2,624.7,679.6L624.7,679.6z"/>
		<path id="path143" class="st5" d="M642.7,694.4v-21.8h5.4c3.3,0,5.8,0.9,7.5,2.8c1.7,1.9,2.6,4.5,2.6,8s-0.9,6.2-2.6,8.1
			c-1.7,1.9-4.2,2.9-7.4,2.9H642.7L642.7,694.4z M645.5,692.2h2.4c2.5,0,4.4-0.8,5.6-2.3s1.8-3.7,1.8-6.4s-0.6-4.9-1.8-6.3
			c-1.2-1.5-3.1-2.2-5.6-2.2h-2.4V692.2L645.5,692.2z"/>
		<path id="path145" class="st5" d="M669.8,694.8c-0.8,0-1.4-0.3-1.9-0.8s-0.8-1.2-0.8-2s0.3-1.5,0.8-2s1.2-0.8,1.9-0.8
			s1.4,0.3,1.9,0.8s0.8,1.2,0.8,2s-0.3,1.5-0.8,2S670.5,694.8,669.8,694.8z"/>
		<path id="path147" class="st5" d="M689.7,694.8c-0.8,0-1.4-0.3-1.9-0.8s-0.8-1.2-0.8-2s0.3-1.5,0.8-2s1.2-0.8,1.9-0.8
			s1.4,0.3,1.9,0.8s0.8,1.2,0.8,2s-0.3,1.5-0.8,2S690.5,694.8,689.7,694.8z"/>
		<path id="path149" class="st5" d="M709.7,694.8c-0.8,0-1.4-0.3-1.9-0.8s-0.8-1.2-0.8-2s0.3-1.5,0.8-2s1.2-0.8,1.9-0.8
			s1.4,0.3,1.9,0.8s0.8,1.2,0.8,2s-0.3,1.5-0.8,2S710.5,694.8,709.7,694.8z"/>
	</g>
	<g id="g161">
		<path id="path153" class="st5" d="M550,534.6c-2.3,0-4.2-1-5.6-2.9c-1.4-1.9-2-4.7-2-8.2s0.7-6.3,2-8.2c1.4-1.9,3.2-2.8,5.6-2.8
			c2.4,0,4.2,0.9,5.6,2.8c1.3,1.9,2,4.6,2,8.2s-0.7,6.3-2,8.2C554.2,533.6,552.3,534.6,550,534.6z M550,532.4c1.5,0,2.7-0.7,3.6-2.2
			s1.4-3.7,1.4-6.7s-0.5-5.3-1.4-6.7s-2.2-2.1-3.6-2.1c-1.5,0-2.7,0.7-3.6,2.1s-1.4,3.6-1.4,6.7s0.5,5.3,1.4,6.7
			C547.3,531.7,548.5,532.4,550,532.4z M550,525.5c-0.6,0-1-0.2-1.5-0.6c-0.4-0.4-0.6-0.9-0.6-1.6s0.2-1.2,0.6-1.6
			c0.4-0.4,0.9-0.6,1.5-0.6s1,0.2,1.5,0.6c0.4,0.4,0.6,0.9,0.6,1.6s-0.2,1.2-0.6,1.6S550.5,525.5,550,525.5z"/>
		<path id="path155" class="st5" d="M562.1,534.2l6.2-8.4l-5.7-7.8h3l2.6,3.6c0.3,0.4,0.6,0.9,0.9,1.3c0.3,0.5,0.7,0.9,1,1.4h0.1
			c0.3-0.4,0.6-0.9,0.9-1.4c0.3-0.5,0.6-1,0.9-1.4l2.4-3.5h2.9l-5.8,8l6.2,8.2h-3l-2.8-3.7c-0.3-0.5-0.7-1-1-1.5s-0.7-1-1.1-1.5
			h-0.1c-0.3,0.5-0.7,1-1,1.5s-0.7,1-1,1.5l-2.7,3.7L562.1,534.2L562.1,534.2z"/>
		<path id="path157" class="st5" d="M589.9,534.6c-2.3,0-4.2-1-5.6-2.9c-1.4-1.9-2-4.7-2-8.2s0.7-6.3,2-8.2c1.4-1.9,3.2-2.8,5.6-2.8
			c2.4,0,4.2,0.9,5.6,2.8c1.3,1.9,2,4.6,2,8.2s-0.7,6.3-2,8.2C594.1,533.6,592.3,534.6,589.9,534.6z M589.9,532.4
			c1.5,0,2.7-0.7,3.6-2.2s1.4-3.7,1.4-6.7s-0.5-5.3-1.4-6.7s-2.2-2.1-3.6-2.1c-1.5,0-2.7,0.7-3.6,2.1s-1.4,3.6-1.4,6.7
			s0.5,5.3,1.4,6.7C587.2,531.7,588.4,532.4,589.9,532.4z M589.9,525.5c-0.6,0-1-0.2-1.5-0.6c-0.4-0.4-0.6-0.9-0.6-1.6
			s0.2-1.2,0.6-1.6c0.4-0.4,0.9-0.6,1.5-0.6s1,0.2,1.5,0.6c0.4,0.4,0.6,0.9,0.6,1.6s-0.2,1.2-0.6,1.6S590.5,525.5,589.9,525.5z"/>
		<path id="path159" class="st5" d="M603.1,534.2v-2.3h6.1v-15.6h-4.8v-1.8c1.2-0.2,2.3-0.4,3.1-0.7s1.6-0.6,2.3-0.9h2v19h5.6v2.3
			H603.1L603.1,534.2z"/>
	</g>
</g>
<g>
	<path class="st5" d="M1021.6,278.6c0,5.8-4.5,9.1-13.2,9.1h-16.7v-33.6h15.7c8.1,0,12.4,3.4,12.4,8.7c0,3.5-1.7,6-4.3,7.4
		C1019.2,271.4,1021.6,274.2,1021.6,278.6z M998,259v9.3h8.8c4.3,0,6.8-1.5,6.8-4.6s-2.4-4.7-6.8-4.7L998,259L998,259z
		 M1015.3,277.9c0-3.4-2.5-4.8-7.2-4.8H998v9.7h10.1C1012.8,282.8,1015.3,281.3,1015.3,277.9z"/>
	<path class="st5" d="M1049.2,272.7v15h-5.7v-3.1c-1.4,2.2-4.2,3.5-8.1,3.5c-5.9,0-9.6-3.2-9.6-7.7c0-4.3,2.9-7.6,10.7-7.6h6.6v-0.4
		c0-3.5-2.1-5.6-6.4-5.6c-2.9,0-5.9,1-7.8,2.5l-2.4-4.4c2.7-2.1,6.7-3.2,10.8-3.2C1044.9,261.8,1049.2,265.3,1049.2,272.7z
		 M1043.2,279.7v-3h-6.2c-4.1,0-5.2,1.5-5.2,3.4c0,2.2,1.8,3.6,4.9,3.6C1039.6,283.7,1042.1,282.3,1043.2,279.7z"/>
	<path class="st5" d="M1053.9,285.1l2.3-4.6c2.3,1.5,5.7,2.5,8.9,2.5c3.8,0,5.4-1.1,5.4-2.8c0-4.9-15.8-0.3-15.8-10.5
		c0-4.8,4.4-8,11.3-8c3.4,0,7.3,0.8,9.6,2.2l-2.3,4.6c-2.4-1.4-4.9-1.9-7.3-1.9c-3.6,0-5.4,1.2-5.4,2.9c0,5.2,15.8,0.6,15.8,10.6
		c0,4.8-4.4,7.9-11.6,7.9C1060.5,288,1056.2,286.8,1053.9,285.1z"/>
	<path class="st5" d="M1105.6,276.8h-20.1c0.7,3.7,3.8,6.1,8.3,6.1c2.9,0,5.1-0.9,7-2.8l3.2,3.7c-2.3,2.7-5.9,4.2-10.3,4.2
		c-8.6,0-14.2-5.5-14.2-13.2c0-7.6,5.6-13.1,13.2-13.1c7.5,0,13,5.2,13,13.2C1105.6,275.5,1105.6,276.2,1105.6,276.8z M1085.4,272.8
		h14.5c-0.5-3.7-3.3-6.2-7.2-6.2C1088.8,266.6,1086,269.1,1085.4,272.8z"/>
	<path class="st5" d="M1149.8,252.1v35.6h-5.8v-3.3c-2,2.4-5,3.6-8.5,3.6c-7.4,0-13-5.2-13-13.2s5.5-13.1,13-13.1
		c3.3,0,6.2,1.1,8.3,3.5V252L1149.8,252.1L1149.8,252.1z M1143.9,274.9c0-4.9-3.3-8-7.6-8c-4.3,0-7.6,3.1-7.6,8s3.3,8,7.6,8
		C1140.5,282.9,1143.9,279.8,1143.9,274.9z"/>
	<path class="st5" d="M1181.6,276.8h-20.1c0.7,3.7,3.8,6.1,8.3,6.1c2.9,0,5.1-0.9,7-2.8l3.2,3.7c-2.3,2.7-5.9,4.2-10.3,4.2
		c-8.6,0-14.2-5.5-14.2-13.2c0-7.6,5.6-13.1,13.2-13.1c7.5,0,13,5.2,13,13.2C1181.7,275.5,1181.7,276.2,1181.6,276.8z M1161.5,272.8
		h14.5c-0.5-3.7-3.3-6.2-7.2-6.2C1164.9,266.6,1162,269.1,1161.5,272.8z"/>
	<path class="st5" d="M1225.8,252.1v35.6h-5.8v-3.3c-2,2.4-5,3.6-8.5,3.6c-7.4,0-13-5.2-13-13.2s5.5-13.1,13-13.1
		c3.3,0,6.2,1.1,8.3,3.5V252L1225.8,252.1L1225.8,252.1z M1219.9,274.9c0-4.9-3.3-8-7.6-8c-4.3,0-7.6,3.1-7.6,8s3.3,8,7.6,8
		S1219.9,279.8,1219.9,274.9z"/>
	<path class="st5" d="M1255.2,272.7v15h-5.7v-3.1c-1.4,2.2-4.2,3.5-8.1,3.5c-5.9,0-9.6-3.2-9.6-7.7c0-4.3,2.9-7.6,10.7-7.6h6.6v-0.4
		c0-3.5-2.1-5.6-6.4-5.6c-2.9,0-5.9,1-7.8,2.5l-2.4-4.4c2.7-2.1,6.7-3.2,10.8-3.2C1250.9,261.8,1255.2,265.3,1255.2,272.7z
		 M1249.2,279.7v-3h-6.2c-4.1,0-5.2,1.5-5.2,3.4c0,2.2,1.8,3.6,4.9,3.6C1245.6,283.7,1248.2,282.3,1249.2,279.7z"/>
	<path class="st5" d="M1278.3,286.3c-1.4,1.2-3.6,1.7-5.8,1.7c-5.6,0-8.8-3-8.8-8.6v-12.3h-4.2v-4.8h4.2v-5.9h6v5.9h6.9v4.8h-6.9
		v12.2c0,2.5,1.2,3.8,3.6,3.8c1.2,0,2.4-0.3,3.4-1.1L1278.3,286.3z"/>
	<path class="st5" d="M1280.2,274.9c0-7.7,5.8-13.1,13.6-13.1c8,0,13.7,5.4,13.7,13.1s-5.7,13.2-13.7,13.2
		C1286,288,1280.2,282.6,1280.2,274.9z M1301.5,274.9c0-4.9-3.3-8-7.6-8c-4.3,0-7.6,3.1-7.6,8s3.3,8,7.6,8
		S1301.5,279.8,1301.5,274.9z"/>
	<path class="st5" d="M1310.4,285.1l2.3-4.6c2.3,1.5,5.7,2.5,8.9,2.5c3.8,0,5.4-1.1,5.4-2.8c0-4.9-15.8-0.3-15.8-10.5
		c0-4.8,4.4-8,11.3-8c3.4,0,7.3,0.8,9.6,2.2l-2.3,4.6c-2.4-1.4-4.9-1.9-7.3-1.9c-3.6,0-5.4,1.2-5.4,2.9c0,5.2,15.8,0.6,15.8,10.6
		c0,4.8-4.4,7.9-11.6,7.9C1316.9,288,1312.7,286.8,1310.4,285.1z"/>
	<path class="st5" d="M1349.4,270.9c0-10,7.7-17.3,18-17.3c5.5,0,10.2,2,13.3,5.6l-4,3.8c-2.4-2.6-5.5-3.9-9-3.9
		c-7,0-12,4.9-12,11.8s5,11.8,12,11.8c3.5,0,6.5-1.3,9-4l4,3.8c-3.1,3.6-7.8,5.6-13.3,5.6C1357.1,288.2,1349.4,280.9,1349.4,270.9z"
		/>
	<path class="st5" d="M1386.2,252.1h6v35.6h-6V252.1z"/>
	<path class="st5" d="M1421.5,272.7v15h-5.7v-3.1c-1.4,2.2-4.2,3.5-8.1,3.5c-5.9,0-9.6-3.2-9.6-7.7c0-4.3,2.9-7.6,10.7-7.6h6.6v-0.4
		c0-3.5-2.1-5.6-6.4-5.6c-2.9,0-5.9,1-7.8,2.5l-2.4-4.4c2.7-2.1,6.7-3.2,10.8-3.2C1417.2,261.8,1421.5,265.3,1421.5,272.7z
		 M1415.5,279.7v-3h-6.2c-4.1,0-5.2,1.5-5.2,3.4c0,2.2,1.8,3.6,4.9,3.6C1411.9,283.7,1414.5,282.3,1415.5,279.7z"/>
	<path class="st5" d="M1452.7,262.1l-11,25.6h-6.2l-11-25.6h6.2l8,19l8.2-19H1452.7z"/>
	<path class="st5" d="M1479.7,276.8h-20.1c0.7,3.7,3.8,6.1,8.3,6.1c2.9,0,5.1-0.9,7-2.8l3.2,3.7c-2.3,2.7-5.9,4.2-10.3,4.2
		c-8.6,0-14.2-5.5-14.2-13.2c0-7.6,5.6-13.1,13.2-13.1c7.5,0,13,5.2,13,13.2C1479.8,275.5,1479.8,276.2,1479.7,276.8z M1459.5,272.8
		h14.5c-0.5-3.7-3.3-6.2-7.2-6.2C1463,266.6,1460.1,269.1,1459.5,272.8z"/>
	<path class="st5" d="M1496,247.3h5.4l-15.8,45.2h-5.4L1496,247.3z"/>
	<path class="st5" d="M1536.1,254.1l-14.6,33.6h-6.1l-14.7-33.6h6.8l11.2,25.9l11.3-25.9H1536.1z"/>
	<path class="st5" d="M1558.6,272.7v15h-5.7v-3.1c-1.4,2.2-4.2,3.5-8.1,3.5c-5.9,0-9.6-3.2-9.6-7.7c0-4.3,2.9-7.6,10.7-7.6h6.6v-0.4
		c0-3.5-2.1-5.6-6.4-5.6c-2.9,0-5.9,1-7.8,2.5l-2.4-4.4c2.7-2.1,6.7-3.2,10.8-3.2C1554.3,261.8,1558.6,265.3,1558.6,272.7z
		 M1552.6,279.7v-3h-6.2c-4.1,0-5.2,1.5-5.2,3.4c0,2.2,1.8,3.6,4.9,3.6C1549.1,283.7,1551.6,282.3,1552.6,279.7z"/>
	<path class="st5" d="M1566.3,252.1h6v35.6h-6V252.1z"/>
	<path class="st5" d="M1578.1,274.9c0-7.7,5.8-13.1,13.6-13.1c8,0,13.7,5.4,13.7,13.1s-5.7,13.2-13.7,13.2
		C1583.8,288,1578.1,282.6,1578.1,274.9z M1599.3,274.9c0-4.9-3.3-8-7.6-8c-4.3,0-7.6,3.1-7.6,8s3.3,8,7.6,8
		C1596.1,282.9,1599.3,279.8,1599.3,274.9z"/>
	<path class="st5" d="M1626,261.8v5.7c-0.5-0.1-1-0.1-1.4-0.1c-4.6,0-7.4,2.7-7.4,7.9v12.4h-6v-25.6h5.7v3.7
		C1618.6,263.1,1621.7,261.8,1626,261.8z"/>
	<path class="st5" d="M987.2,387.6h24v3.9h-24V387.6z"/>
	<path class="st5" d="M1029,369.3h6.2v28.3h17.6v5.3H1029V369.3z"/>
	<path class="st5" d="M1054.8,390.1c0-7.7,5.8-13.1,13.6-13.1c8,0,13.7,5.4,13.7,13.1s-5.7,13.2-13.7,13.2
		C1060.6,403.2,1054.8,397.8,1054.8,390.1z M1076.1,390.1c0-4.9-3.3-8-7.6-8c-4.3,0-7.6,3.1-7.6,8s3.3,8,7.6,8
		C1072.8,398.1,1076.1,395,1076.1,390.1z"/>
	<path class="st5" d="M1113.1,388.2v14.7h-6V389c0-4.6-2.3-6.8-6.1-6.8c-4.3,0-7.2,2.6-7.2,7.7v13h-6v-25.6h5.7v3.3
		c2-2.4,5.1-3.6,8.8-3.6C1108.6,377,1113.1,380.5,1113.1,388.2z"/>
	<path class="st5" d="M1146.4,377.3V399c0,9.3-4.8,13.5-13.8,13.5c-4.8,0-9.6-1.2-12.5-3.6l2.7-4.5c2.3,1.9,5.9,3.1,9.5,3.1
		c5.7,0,8.2-2.6,8.2-7.8v-1.3c-2.1,2.3-5.1,3.4-8.6,3.4c-7.3,0-13-5-13-12.4s5.6-12.3,13-12.3c3.6,0,6.8,1.2,8.9,3.7v-3.4h5.6V377.3
		z M1140.5,389.3c0-4.3-3.3-7.2-7.8-7.2c-4.6,0-7.8,2.9-7.8,7.2c0,4.4,3.3,7.3,7.8,7.3C1137.3,396.7,1140.5,393.7,1140.5,389.3z"/>
	<path class="st5" d="M1153.5,369.4c0-2,1.6-3.6,3.8-3.6c2.2,0,3.8,1.5,3.8,3.5c0,2.1-1.6,3.7-3.8,3.7S1153.5,371.5,1153.5,369.4z
		 M1154.3,377.3h6v25.6h-6V377.3z"/>
	<path class="st5" d="M1183.6,401.5c-1.4,1.2-3.6,1.7-5.8,1.7c-5.6,0-8.8-3-8.8-8.6v-12.3h-4.2v-4.8h4.2v-5.9h6v5.9h6.9v4.8h-6.9
		v12.2c0,2.5,1.2,3.8,3.6,3.8c1.2,0,2.4-0.3,3.4-1.1L1183.6,401.5z"/>
	<path class="st5" d="M1213.4,377.3v25.6h-5.7v-3.3c-1.9,2.4-4.9,3.6-8.3,3.6c-6.6,0-11-3.6-11-11.3v-14.6h6v13.8
		c0,4.7,2.2,6.9,6,6.9c4.2,0,7-2.6,7-7.7v-13H1213.4z"/>
	<path class="st5" d="M1246.3,367.3v35.6h-5.8v-3.3c-2,2.4-5,3.6-8.5,3.6c-7.4,0-13-5.2-13-13.2s5.5-13.1,13-13.1
		c3.3,0,6.2,1.1,8.3,3.5v-13.2h6V367.3z M1240.4,390.1c0-4.9-3.3-8-7.6-8c-4.3,0-7.6,3.1-7.6,8s3.3,8,7.6,8S1240.4,395,1240.4,390.1
		z"/>
	<path class="st5" d="M1292.6,367.3v35.6h-5.8v-3.3c-2,2.4-5,3.6-8.5,3.6c-7.4,0-13-5.2-13-13.2s5.5-13.1,13-13.1
		c3.3,0,6.2,1.1,8.3,3.5v-13.2h6V367.3z M1286.7,390.1c0-4.9-3.3-8-7.6-8c-4.3,0-7.6,3.1-7.6,8s3.3,8,7.6,8
		C1283.3,398.1,1286.7,395,1286.7,390.1z"/>
	<path class="st5" d="M1324.4,392h-20.1c0.7,3.7,3.8,6.1,8.3,6.1c2.9,0,5.1-0.9,7-2.8l3.2,3.7c-2.3,2.7-5.9,4.2-10.3,4.2
		c-8.6,0-14.2-5.5-14.2-13.2c0-7.6,5.6-13.1,13.2-13.1c7.5,0,13,5.2,13,13.2C1324.5,390.7,1324.5,391.4,1324.4,392z M1304.3,388
		h14.5c-0.5-3.7-3.3-6.2-7.2-6.2C1307.7,381.8,1304.8,384.3,1304.3,388z"/>
	<path class="st5" d="M1341.4,390.1c0-7.7,5.8-13.1,13.9-13.1c5,0,9,2.1,10.9,6l-4.6,2.7c-1.5-2.4-3.8-3.6-6.4-3.6
		c-4.4,0-7.8,3.1-7.8,8c0,5,3.4,8,7.8,8c2.5,0,4.8-1.1,6.4-3.6l4.6,2.7c-2,3.8-6,6-10.9,6C1347.2,403.2,1341.4,397.8,1341.4,390.1z"
		/>
	<path class="st5" d="M1371.2,367.3h6v35.6h-6V367.3z"/>
	<path class="st5" d="M1406.5,387.9v15h-5.7v-3.1c-1.4,2.2-4.2,3.5-8.1,3.5c-5.9,0-9.6-3.2-9.6-7.7c0-4.3,2.9-7.6,10.7-7.6h6.6v-0.4
		c0-3.5-2.1-5.6-6.4-5.6c-2.9,0-5.9,1-7.8,2.5l-2.4-4.4c2.7-2.1,6.7-3.2,10.8-3.2C1402.2,377,1406.5,380.5,1406.5,387.9z
		 M1400.5,394.9v-3h-6.2c-4.1,0-5.2,1.5-5.2,3.4c0,2.2,1.8,3.6,4.9,3.6C1397,398.9,1399.5,397.5,1400.5,394.9z"/>
	<path class="st5" d="M1437.7,377.3l-11,25.6h-6.2l-11-25.6h6.2l8,19l8.2-19H1437.7z"/>
	<path class="st5" d="M1464.7,392h-20.1c0.7,3.7,3.8,6.1,8.3,6.1c2.9,0,5.1-0.9,7-2.8l3.2,3.7c-2.3,2.7-5.9,4.2-10.3,4.2
		c-8.6,0-14.2-5.5-14.2-13.2c0-7.6,5.6-13.1,13.2-13.1c7.5,0,13,5.2,13,13.2C1464.8,390.7,1464.8,391.4,1464.7,392z M1444.6,388
		h14.5c-0.5-3.7-3.3-6.2-7.2-6.2C1448,381.8,1445.1,384.3,1444.6,388z"/>
	<path class="st5" d="M1052.4,445.5v15h-5.7v-3.1c-1.4,2.2-4.2,3.5-8.1,3.5c-5.9,0-9.6-3.2-9.6-7.7c0-4.3,2.9-7.6,10.7-7.6h6.6v-0.4
		c0-3.5-2.1-5.6-6.4-5.6c-2.9,0-5.9,1-7.8,2.5l-2.4-4.4c2.7-2.1,6.7-3.2,10.8-3.2C1048.1,434.6,1052.4,438.1,1052.4,445.5z
		 M1046.4,452.5v-3h-6.2c-4.1,0-5.2,1.5-5.2,3.4c0,2.2,1.8,3.6,4.9,3.6C1042.8,456.5,1045.4,455.1,1046.4,452.5z"/>
	<path class="st5" d="M1074.9,434.6v5.7c-0.5-0.1-1-0.1-1.4-0.1c-4.6,0-7.4,2.7-7.4,7.9v12.4h-6v-25.6h5.7v3.7
		C1067.5,435.9,1070.6,434.6,1074.9,434.6z"/>
	<path class="st5" d="M1107.2,447.7c0,8-5.5,13.2-13,13.2c-3.5,0-6.5-1.2-8.5-3.6v3.3h-5.7V425h6v13c2.1-2.3,4.9-3.4,8.2-3.4
		C1101.7,434.6,1107.2,439.7,1107.2,447.7z M1101.1,447.7c0-4.9-3.3-8-7.6-8s-7.6,3.1-7.6,8s3.3,8,7.6,8S1101.1,452.6,1101.1,447.7z
		"/>
	<path class="st5" d="M1112.1,427c0-2,1.6-3.6,3.8-3.6c2.2,0,3.8,1.5,3.8,3.5c0,2.1-1.6,3.7-3.8,3.7S1112.1,429.1,1112.1,427z
		 M1112.9,434.9h6v25.6h-6V434.9z"/>
	<path class="st5" d="M1142.2,459.1c-1.4,1.2-3.6,1.7-5.8,1.7c-5.6,0-8.8-3-8.8-8.6v-12.3h-4.2v-4.8h4.2v-5.9h6v5.9h6.9v4.8h-6.9
		V452c0,2.5,1.2,3.8,3.6,3.8c1.2,0,2.4-0.3,3.4-1.1L1142.2,459.1z"/>
	<path class="st5" d="M1162,434.6v5.7c-0.5-0.1-1-0.1-1.4-0.1c-4.6,0-7.4,2.7-7.4,7.9v12.4h-6v-25.6h5.7v3.7
		C1154.6,435.9,1157.7,434.6,1162,434.6z"/>
	<path class="st5" d="M1188.4,445.5v15h-5.7v-3.1c-1.4,2.2-4.2,3.5-8.1,3.5c-5.9,0-9.6-3.2-9.6-7.7c0-4.3,2.9-7.6,10.7-7.6h6.6v-0.4
		c0-3.5-2.1-5.6-6.4-5.6c-2.9,0-5.9,1-7.8,2.5l-2.4-4.4c2.7-2.1,6.7-3.2,10.8-3.2C1184.1,434.6,1188.4,438.1,1188.4,445.5z
		 M1182.3,452.5v-3h-6.2c-4.1,0-5.2,1.5-5.2,3.4c0,2.2,1.8,3.6,4.9,3.6C1178.8,456.5,1181.3,455.1,1182.3,452.5z"/>
	<path class="st5" d="M1210.9,434.6v5.7c-0.5-0.1-1-0.1-1.4-0.1c-4.6,0-7.4,2.7-7.4,7.9v12.4h-6v-25.6h5.7v3.7
		C1203.5,435.9,1206.6,434.6,1210.9,434.6z"/>
	<path class="st5" d="M1215.1,427c0-2,1.6-3.6,3.8-3.6c2.2,0,3.8,1.5,3.8,3.5c0,2.1-1.6,3.7-3.8,3.7
		C1216.8,430.6,1215.1,429.1,1215.1,427z M1215.9,434.9h6v25.6h-6V434.9z"/>
	<path class="st5" d="M1251.3,445.5v15h-5.7v-3.1c-1.4,2.2-4.2,3.5-8.1,3.5c-5.9,0-9.6-3.2-9.6-7.7c0-4.3,2.9-7.6,10.7-7.6h6.6v-0.4
		c0-3.5-2.1-5.6-6.4-5.6c-2.9,0-5.9,1-7.8,2.5l-2.4-4.4c2.7-2.1,6.7-3.2,10.8-3.2C1247,434.6,1251.3,438.1,1251.3,445.5z
		 M1245.3,452.5v-3h-6.2c-4.1,0-5.2,1.5-5.2,3.4c0,2.2,1.8,3.6,4.9,3.6C1241.7,456.5,1244.3,455.1,1245.3,452.5z"/>
	<path class="st5" d="M987.2,502.8h24v3.9h-24V502.8z"/>
	<path class="st5" d="M1059.7,484.5l-14.6,33.6h-6.1l-14.7-33.6h6.8l11.2,25.9l11.3-25.9L1059.7,484.5L1059.7,484.5z"/>
	<path class="st5" d="M1082.2,503.1v15h-5.7V515c-1.4,2.2-4.2,3.5-8.1,3.5c-5.9,0-9.6-3.2-9.6-7.7c0-4.3,2.9-7.6,10.7-7.6h6.6v-0.4
		c0-3.5-2.1-5.6-6.4-5.6c-2.9,0-5.9,1-7.8,2.5l-2.4-4.4c2.7-2.1,6.7-3.2,10.8-3.2C1078,492.2,1082.2,495.7,1082.2,503.1z
		 M1076.2,510.1v-3h-6.2c-4.1,0-5.2,1.5-5.2,3.4c0,2.2,1.8,3.6,4.9,3.6C1072.7,514.1,1075.2,512.7,1076.2,510.1z"/>
	<path class="st5" d="M1089.9,482.5h6v35.6h-6V482.5z"/>
	<path class="st5" d="M1101.7,505.3c0-7.7,5.8-13.1,13.6-13.1c8,0,13.7,5.4,13.7,13.1s-5.7,13.2-13.7,13.2
		C1107.4,518.4,1101.7,513,1101.7,505.3z M1122.9,505.3c0-4.9-3.3-8-7.6-8c-4.3,0-7.6,3.1-7.6,8s3.3,8,7.6,8
		C1119.7,513.3,1122.9,510.2,1122.9,505.3z"/>
	<path class="st5" d="M1149.6,492.2v5.7c-0.5-0.1-1-0.1-1.4-0.1c-4.6,0-7.4,2.7-7.4,7.9v12.4h-6v-25.6h5.7v3.7
		C1142.2,493.5,1145.3,492.2,1149.6,492.2z"/>
	<path class="st5" d="M1178.4,507.2h-20.1c0.7,3.7,3.8,6.1,8.3,6.1c2.9,0,5.1-0.9,7-2.8l3.2,3.7c-2.3,2.7-5.9,4.2-10.3,4.2
		c-8.6,0-14.2-5.5-14.2-13.2c0-7.6,5.6-13.1,13.2-13.1c7.5,0,13,5.2,13,13.2C1178.5,505.9,1178.5,506.6,1178.4,507.2z M1158.3,503.2
		h14.5c-0.5-3.7-3.3-6.2-7.2-6.2C1161.7,497,1158.8,499.5,1158.3,503.2z"/>
	<path class="st5" d="M1181.3,515.5l2.3-4.6c2.3,1.5,5.7,2.5,8.9,2.5c3.8,0,5.4-1.1,5.4-2.8c0-4.9-15.8-0.3-15.8-10.5
		c0-4.8,4.4-8,11.3-8c3.4,0,7.3,0.8,9.6,2.2l-2.3,4.6c-2.4-1.4-4.9-1.9-7.3-1.9c-3.6,0-5.4,1.2-5.4,2.9c0,5.2,15.8,0.6,15.8,10.6
		c0,4.8-4.4,7.9-11.6,7.9C1187.9,518.4,1183.6,517.2,1181.3,515.5z"/>
	<path class="st5" d="M1220.1,505.3c0-7.7,5.8-13.1,13.9-13.1c5,0,9,2.1,10.9,6l-4.6,2.7c-1.5-2.4-3.8-3.6-6.4-3.6
		c-4.4,0-7.8,3.1-7.8,8c0,5,3.4,8,7.8,8c2.5,0,4.8-1.1,6.4-3.6l4.6,2.7c-2,3.8-6,6-10.9,6C1225.9,518.4,1220.1,513,1220.1,505.3z"/>
	<path class="st5" d="M1247.6,505.3c0-7.7,5.8-13.1,13.6-13.1c8,0,13.7,5.4,13.7,13.1s-5.7,13.2-13.7,13.2
		C1253.4,518.4,1247.6,513,1247.6,505.3z M1268.9,505.3c0-4.9-3.3-8-7.6-8c-4.3,0-7.6,3.1-7.6,8s3.3,8,7.6,8
		S1268.9,510.2,1268.9,505.3z"/>
	<path class="st5" d="M1305.8,482.5v35.6h-5.8v-3.3c-2,2.4-5,3.6-8.5,3.6c-7.4,0-13-5.2-13-13.2s5.5-13.1,13-13.1
		c3.3,0,6.2,1.1,8.3,3.5v-13.2h6V482.5z M1299.9,505.3c0-4.9-3.3-8-7.6-8c-4.3,0-7.6,3.1-7.6,8s3.3,8,7.6,8
		S1299.9,510.2,1299.9,505.3z"/>
	<path class="st5" d="M1312.9,484.6c0-2,1.6-3.6,3.8-3.6c2.2,0,3.8,1.5,3.8,3.5c0,2.1-1.6,3.7-3.8,3.7S1312.9,486.7,1312.9,484.6z
		 M1313.7,492.5h6v25.6h-6V492.5z"/>
	<path class="st5" d="M1337.5,482.1c2.1,0,4.1,0.4,5.4,1.4l-1.7,4.5c-0.9-0.6-2.1-1.1-3.3-1.1c-2.5,0-3.8,1.4-3.8,4.1v1.5h7.1v4.8
		h-6.9v20.6h-6v-20.6h-4.2v-4.8h4.2V491C1328.4,485.6,1331.6,482.1,1337.5,482.1z M1348.3,484.6c0-2,1.6-3.6,3.8-3.6
		s3.8,1.5,3.8,3.5c0,2.1-1.6,3.7-3.8,3.7S1348.3,486.7,1348.3,484.6z M1349.1,492.5h6v25.6h-6V492.5z"/>
	<path class="st5" d="M1360.9,505.3c0-7.7,5.8-13.1,13.9-13.1c5,0,9,2.1,10.9,6l-4.6,2.7c-1.5-2.4-3.8-3.6-6.4-3.6
		c-4.4,0-7.8,3.1-7.8,8c0,5,3.4,8,7.8,8c2.5,0,4.8-1.1,6.4-3.6l4.6,2.7c-2,3.8-6,6-10.9,6C1366.6,518.4,1360.9,513,1360.9,505.3z"/>
	<path class="st5" d="M1412.3,503.1v15h-5.7V515c-1.4,2.2-4.2,3.5-8.1,3.5c-5.9,0-9.6-3.2-9.6-7.7c0-4.3,2.9-7.6,10.7-7.6h6.6v-0.4
		c0-3.5-2.1-5.6-6.4-5.6c-2.9,0-5.9,1-7.8,2.5l-2.4-4.4c2.7-2.1,6.7-3.2,10.8-3.2C1408,492.2,1412.3,495.7,1412.3,503.1z
		 M1406.3,510.1v-3h-6.2c-4.1,0-5.2,1.5-5.2,3.4c0,2.2,1.8,3.6,4.9,3.6C1402.8,514.1,1405.3,512.7,1406.3,510.1z"/>
	<path class="st5" d="M1445.3,482.5v35.6h-5.8v-3.3c-2,2.4-5,3.6-8.5,3.6c-7.4,0-13-5.2-13-13.2s5.5-13.1,13-13.1
		c3.3,0,6.2,1.1,8.3,3.5v-13.2h6V482.5z M1439.4,505.3c0-4.9-3.3-8-7.6-8c-4.3,0-7.6,3.1-7.6,8s3.3,8,7.6,8
		S1439.4,510.2,1439.4,505.3z"/>
	<path class="st5" d="M1451.1,505.3c0-7.7,5.8-13.1,13.6-13.1c8,0,13.7,5.4,13.7,13.1s-5.7,13.2-13.7,13.2
		C1456.9,518.4,1451.1,513,1451.1,505.3z M1472.4,505.3c0-4.9-3.3-8-7.6-8c-4.3,0-7.6,3.1-7.6,8s3.3,8,7.6,8
		S1472.4,510.2,1472.4,505.3z"/>
	<path class="st5" d="M1481.2,515.5l2.3-4.6c2.3,1.5,5.7,2.5,8.9,2.5c3.8,0,5.4-1.1,5.4-2.8c0-4.9-15.8-0.3-15.8-10.5
		c0-4.8,4.4-8,11.3-8c3.4,0,7.3,0.8,9.6,2.2l-2.3,4.6c-2.4-1.4-4.9-1.9-7.3-1.9c-3.6,0-5.4,1.2-5.4,2.9c0,5.2,15.8,0.6,15.8,10.6
		c0,4.8-4.4,7.9-11.6,7.9C1487.8,518.4,1483.5,517.2,1481.2,515.5z"/>
	<path class="st5" d="M1028.8,562.9c0-7.7,5.8-13.1,13.9-13.1c5,0,9,2.1,10.9,6l-4.6,2.7c-1.5-2.4-3.8-3.6-6.4-3.6
		c-4.4,0-7.8,3.1-7.8,8c0,5,3.4,8,7.8,8c2.5,0,4.8-1.1,6.4-3.6l4.6,2.7c-2,3.8-6,6-10.9,6C1034.6,576,1028.8,570.6,1028.8,562.9z"/>
	<path class="st5" d="M1056.3,562.9c0-7.7,5.8-13.1,13.6-13.1c8,0,13.7,5.4,13.7,13.1s-5.7,13.2-13.7,13.2
		C1062.1,576,1056.3,570.6,1056.3,562.9z M1077.6,562.9c0-4.9-3.3-8-7.6-8c-4.3,0-7.6,3.1-7.6,8s3.3,8,7.6,8
		C1074.3,570.9,1077.6,567.8,1077.6,562.9z"/>
	<path class="st5" d="M1114.6,561v14.7h-6v-13.9c0-4.6-2.3-6.8-6.1-6.8c-4.3,0-7.2,2.6-7.2,7.7v13h-6v-25.6h5.7v3.3
		c2-2.4,5.1-3.6,8.8-3.6C1110.1,549.8,1114.6,553.3,1114.6,561z"/>
	<path class="st5" d="M1133.2,572.1l2.2-4.8c2.7,2.2,7,3.7,11.1,3.7c5.2,0,7.4-1.9,7.4-4.4c0-7.2-20-2.5-20-15c0-5.4,4.3-10,13.5-10
		c4,0,8.3,1.1,11.2,3l-2,4.8c-3-1.8-6.3-2.6-9.3-2.6c-5.2,0-7.3,2-7.3,4.6c0,7.2,19.9,2.5,19.9,14.8c0,5.4-4.4,10-13.6,10
		C1141.3,576.2,1136,574.5,1133.2,572.1z"/>
	<path class="st5" d="M1163.9,558.9c0-10,7.7-17.3,18-17.3c5.5,0,10.2,2,13.3,5.6l-4,3.8c-2.4-2.6-5.5-3.9-9-3.9
		c-7,0-12,4.9-12,11.8c0,6.9,5,11.8,12,11.8c3.5,0,6.5-1.3,9-4l4,3.8c-3.1,3.6-7.8,5.6-13.3,5.6
		C1171.5,576.2,1163.9,568.9,1163.9,558.9z"/>
	<path class="st5" d="M1222.2,567.9h-16.8l-3.3,7.8h-6.4l15.1-33.6h6.1l15.2,33.6h-6.5L1222.2,567.9z M1220.2,563l-6.3-14.7
		l-6.3,14.7H1220.2z"/>
	<path class="st5" d="M1236.4,542.1h6.2v28.3h17.6v5.3h-23.8L1236.4,542.1L1236.4,542.1z"/>
	<path class="st5" d="M1290.3,570.5v5.2h-25.2v-33.6h24.5v5.2h-18.3v8.7h16.2v5.1h-16.2v9.3L1290.3,570.5L1290.3,570.5z"/>
</g>
</svg>
