<svg enable-background="new 0 0 75 75" version="1.1" viewBox="0 0 75 75" xmlns="http://www.w3.org/2000/svg">
 <style type="text/css">.st0{fill:#FFFFFF;}
	.st1{fill:#BC83FB;}</style>
 <ellipse class="st0" transform="matrix(.7071 -.7071 .7071 .7071 -15.53 37.5)" cx="37.5" cy="37.5" rx="38.92" ry="36.03"/>
 <ellipse class="st1" transform="matrix(.7662 -.6426 .6426 .7662 -20.31 19.01)" cx="15.97" cy="37.41" rx="8.16" ry="7.23"/>
 <circle class="st1" cx="52.27" cy="13.71" r="4.15"/>
 <circle class="st1" cx="52.27" cy="61.11" r="4.15"/>
 <circle class="st1" cx="60.57" cy="37.41" r="4.15"/>
 <path d="m46.24 38.57h-14.22c-0.69 0-1.25-0.56-1.25-1.25s0.56-1.25 1.25-1.25h14.22c0.69 0 1.25 0.56 1.25 1.25s-0.56 1.25-1.25 1.25z"/>
 <path d="m51.95 36.71-5.85-4.95c-0.59-0.5-1.5-0.08-1.5 0.69v9.9c0 0.77 0.91 1.19 1.5 0.69l5.85-4.95c0.43-0.35 0.43-1.01 0-1.38z"/>
 <path d="m29.02 31.03c-0.38 0-0.76-0.18-1.01-0.51-0.41-0.56-0.29-1.34 0.27-1.75l11.46-8.41c0.56-0.41 1.34-0.29 1.75 0.27s0.29 1.34-0.27 1.75l-11.46 8.41c-0.22 0.16-0.48 0.24-0.74 0.24z"/>
 <path d="m44.73 17.51-7.65-0.53c-0.77-0.05-1.25 0.82-0.8 1.45l5.86 7.98c0.46 0.62 1.44 0.43 1.62-0.33l1.79-7.45c0.14-0.55-0.26-1.08-0.82-1.12z"/>
 <path d="m40.48 54.7c-0.26 0-0.52-0.08-0.74-0.24l-11.46-8.41c-0.56-0.41-0.68-1.19-0.27-1.75s1.19-0.68 1.75-0.27l11.46 8.41c0.56 0.41 0.68 1.19 0.27 1.75-0.24 0.33-0.62 0.51-1.01 0.51z"/>
 <path d="m44.73 57.31-7.65 0.53c-0.77 0.05-1.25-0.82-0.8-1.45l5.86-7.98c0.46-0.62 1.44-0.43 1.62 0.33l1.79 7.45c0.14 0.55-0.26 1.08-0.82 1.12z"/>
</svg>
