<?xml version="1.0" encoding="utf-8"?>
<!-- Generator: Adobe Illustrator 27.1.1, SVG Export Plug-In . SVG Version: 6.00 Build 0)  -->
<svg version="1.1" id="Layer_1" xmlns="http://www.w3.org/2000/svg" xmlns:xlink="http://www.w3.org/1999/xlink" x="0px" y="0px"
	 viewBox="0 0 75 75" style="enable-background:new 0 0 75 75;" xml:space="preserve">
<style type="text/css">
	.st0{fill:#FFFFFF;}
	.st1{fill:#BC83FB;}
	.st2{fill:#8747CC;}
	.st3{fill-rule:evenodd;clip-rule:evenodd;fill:#BC83FB;}
	.st4{fill:#D8B7FB;}
</style>
<ellipse transform="matrix(0.7071 -0.7071 0.7071 0.7071 -15.533 37.5)" class="st0" cx="37.5" cy="37.5" rx="38.92" ry="36.03"/>
<g>
	<g>
		<path class="st1" d="M34.56,50.4c0,0,3.56,4.75,9.4-1.47c3.71-3.94,6.78-4.02,7.19-1.17c0.51,3.54-5.11,12.97-13.43,12.97
			L34.56,50.4z"/>
	</g>
	<g>
		<path class="st1" d="M37.5,66.74c-15.46,0-28.04-12.58-28.04-28.04c0-9.82,5-18.76,13.38-23.91c0.89-0.55,2.05-0.27,2.59,0.62
			c0.55,0.89,0.27,2.05-0.62,2.59c-7.25,4.46-11.58,12.19-11.58,20.7c0,13.38,10.89,24.27,24.27,24.27
			c13.38,0,24.27-10.89,24.27-24.27c0-8.5-4.33-16.24-11.58-20.69c-0.89-0.55-1.16-1.71-0.62-2.59c0.55-0.89,1.71-1.16,2.59-0.62
			c8.38,5.15,13.38,14.09,13.38,23.91C65.54,54.15,52.96,66.74,37.5,66.74z"/>
	</g>
	<g>
		<path class="st2" d="M37.5,60.73L37.5,60.73c-3.55,0-6.46-2.91-6.46-6.46V29.56c0-3.55,2.91-6.46,6.46-6.46h0
			c3.55,0,6.46,2.91,6.46,6.46v24.71C43.96,57.82,41.05,60.73,37.5,60.73z"/>
	</g>
	<g>
		
			<ellipse transform="matrix(0.229 -0.9734 0.9734 0.229 15.4557 47.1474)" class="st3" cx="37.49" cy="13.82" rx="5.51" ry="6.18"/>
	</g>
	<g>
		
			<ellipse transform="matrix(0.0977 -0.9952 0.9952 0.0977 -18.0015 83.8701)" class="st4" cx="37.25" cy="51.86" rx="3.54" ry="2.4"/>
	</g>
	<g>
		
			<ellipse transform="matrix(0.0977 -0.9952 0.9952 0.0977 -5.5528 72.5836)" class="st4" cx="37.25" cy="39.35" rx="4.39" ry="2.97"/>
	</g>
	<g>
		<path class="st1" d="M43.96,29.55v7.86c0-4.78-2.03-7.84-5.29-7.75c-2.38,0.06-5.25,3.51-7.63,6.05c-3.7,3.95-6.78,3.22-7.18,0.37
			c-0.5-3.47,5.11-12.6,13.17-12.95c0.15-0.01,0.31-0.02,0.46-0.02h0.02C41.06,23.11,43.96,26,43.96,29.55z"/>
	</g>
</g>
</svg>
