<?xml version="1.0" encoding="utf-8"?>
<!-- Generator: Adobe Illustrator 27.0.0, SVG Export Plug-In . SVG Version: 6.00 Build 0)  -->
<svg version="1.1" id="Layer_1" xmlns="http://www.w3.org/2000/svg" xmlns:xlink="http://www.w3.org/1999/xlink" x="0px" y="0px"
	 viewBox="0 0 75 75" style="enable-background:new 0 0 75 75;" xml:space="preserve">
<style type="text/css">
	.st0{fill:#FFFFFF;}
	.st1{fill:#BC83FB;}
	.st2{fill:#383838;}
	.st3{fill:#666666;}
	.st4{fill-rule:evenodd;clip-rule:evenodd;fill:#BC83FB;}
	.st5{fill-rule:evenodd;clip-rule:evenodd;fill:#5A007E;}
	.st6{fill-rule:evenodd;clip-rule:evenodd;fill:#D8B6FF;}
</style>
<g>
	
		<ellipse transform="matrix(0.7071 -0.7071 0.7071 0.7071 -15.3112 37.4081)" class="st0" cx="37.5" cy="37.19" rx="38.92" ry="36.03"/>
	<g>
		<g>
			<path class="st1" d="M39.89,39.78v-4.84c0,0-1.34-0.68-3.05-0.68c-1.72,0-3.05,0.68-3.05,0.68v4.84c0,0,1.34,0.68,3.05,0.68
				C38.55,40.46,39.89,39.78,39.89,39.78z"/>
			<g>
				<path class="st1" d="M44.91,36.73l-4.58-6.28c-0.61-0.84-1.94-0.41-1.94,0.63v12.56c0,1.04,1.33,1.47,1.94,0.63L44.91,38
					C45.18,37.62,45.18,37.11,44.91,36.73z"/>
				<path class="st1" d="M28.77,36.73l4.58-6.28c0.61-0.84,1.94-0.41,1.94,0.63v12.56c0,1.04-1.33,1.47-1.94,0.63L28.77,38
					C28.5,37.62,28.5,37.11,28.77,36.73z"/>
			</g>
		</g>
		<g>
			<g>
				<polygon class="st2" points="54.6,44.84 49.39,53.84 59.81,53.84 				"/>
				<path class="st2" d="M58.75,37.66l-4.15,7.18h10.41l-4.15-7.18C60.39,36.85,59.22,36.85,58.75,37.66z"/>
				<polygon points="59.81,53.84 65.01,44.84 54.6,44.84 				"/>
				<path class="st3" d="M49.39,53.84l5.21-9h-8.3c-0.94,0-1.52,1.02-1.05,1.83L49.39,53.84z"/>
			</g>
			<g>
				<polygon class="st2" points="54.6,29.89 59.81,20.89 49.39,20.89 				"/>
				<path class="st2" d="M50.45,37.07l4.15-7.18H44.19l4.15,7.18C48.81,37.88,49.98,37.88,50.45,37.07z"/>
				<polygon points="49.39,20.89 44.19,29.89 54.6,29.89 				"/>
				<path class="st3" d="M59.81,20.89l-5.21,9h8.3c0.94,0,1.52-1.02,1.05-1.83L59.81,20.89z"/>
			</g>
		</g>
		<g id="ink-_just-squid">
			<g id="head">
				<g>
					<path class="st4" d="M11.24,24.94c0,0-0.24-1.1-0.53-2.4c-0.48-2.16,0.51-4.38,2.44-5.48c1.25-0.71,2.61-1.83,3.59-3.57"/>
					<path d="M11.24,25.54c-0.28,0-0.53-0.19-0.59-0.47l-0.53-2.4c-0.26-1.19-0.14-2.4,0.36-3.51c0.49-1.11,1.32-2.02,2.37-2.62
						c1.44-0.82,2.57-1.95,3.36-3.35c0.16-0.29,0.53-0.39,0.82-0.23c0.29,0.16,0.39,0.53,0.23,0.82c-0.9,1.59-2.18,2.87-3.81,3.8
						c-1.71,0.97-2.57,2.91-2.15,4.83l0.53,2.4c0.07,0.32-0.13,0.65-0.46,0.72C11.32,25.54,11.28,25.54,11.24,25.54z"/>
				</g>
				<g>
					<path class="st4" d="M26.22,24.94c0,0,0.15-0.67,0.34-1.53c0.4-1.8-0.46-3.65-2.1-4.51c-1.65-0.86-3.41-2.47-3.56-5.41
						l-0.03,9.9L26.22,24.94z"/>
					<path d="M26.22,25.54c-0.06,0-0.11-0.01-0.17-0.02l-5.34-1.55c-0.26-0.07-0.44-0.31-0.43-0.58l0.03-9.9
						c0-0.33,0.26-0.59,0.59-0.6c0.32-0.01,0.6,0.24,0.62,0.57c0.12,2.19,1.21,3.85,3.24,4.91c1.88,0.98,2.87,3.11,2.41,5.17
						l-0.34,1.53c-0.04,0.16-0.14,0.3-0.28,0.39C26.43,25.51,26.32,25.54,26.22,25.54z M21.48,22.94l4.29,1.24l0.2-0.9
						c0.34-1.53-0.39-3.12-1.79-3.84c-0.91-0.48-1.92-1.21-2.69-2.3L21.48,22.94z"/>
				</g>
				<g>
					<path class="st4" d="M17.75,11.57c0,0,0.25-1.14,1.53-1.15c0.71,0,1.34,0.47,1.53,1.15c0,0,0.57,4.23,0.88,6.46
						c0.11,0.83,0.48,1.6,1.06,2.2c2.02,2.13,6.5,7.88,2.1,13.26c0,0-0.35-4.55-5.85-4.55c-0.97,0,0.78,0-0.19,0
						c-5.5,0-6.22,4.55-6.22,4.55C7.07,26.73,16.06,15.43,17.75,11.57L17.75,11.57z"/>
					<path d="M12.6,34.23c-0.22,0-0.43-0.1-0.58-0.27c-4.76-5.82,0.34-14.49,3.38-19.68c0.7-1.2,1.31-2.23,1.64-2.96
						c0.17-0.61,0.82-1.64,2.23-1.65c0,0,0.01,0,0.01,0c1.03,0,1.95,0.69,2.24,1.69l0,0c0.02,0.08,0.03,0.18,0.05,0.3l0.85,6.27
						c0.09,0.68,0.39,1.3,0.86,1.79c0.97,1.03,2.74,3.13,3.62,5.68c0.49,1.42,0.66,2.81,0.49,4.14c-0.2,1.57-0.86,3.06-1.97,4.42
						c-0.19,0.23-0.51,0.33-0.8,0.24c-0.29-0.09-0.49-0.35-0.52-0.65c0-0.01-0.09-1-0.77-1.96c-0.88-1.26-2.34-1.9-4.34-1.9h-0.19
						c-4.77,0-5.46,3.77-5.49,3.93c-0.05,0.29-0.26,0.52-0.54,0.6C12.73,34.22,12.67,34.23,12.6,34.23z M18.43,11.86L18.43,11.86
						c-0.35,0.81-1,1.9-1.74,3.17c-1.44,2.46-3.42,5.82-4.44,9.13c-0.96,3.14-0.92,5.66,0.14,7.68c0.17-0.34,0.38-0.71,0.66-1.08
						c0.88-1.15,2.56-2.52,5.61-2.57c0.01,0,0.03,0,0.04,0h0.42c0.01,0,0.03,0,0.04,0c1.73,0.03,4.02,0.51,5.44,2.6
						c0.22,0.33,0.4,0.65,0.53,0.96c0.98-1.79,1.1-3.76,0.37-5.88c-0.79-2.29-2.41-4.2-3.3-5.14c-0.69-0.72-1.12-1.63-1.25-2.61
						l-0.54-3.98c-0.16-1.19-0.29-2.17-0.33-2.42c-0.12-0.34-0.44-0.58-0.8-0.57c-0.62,0-0.78,0.44-0.82,0.58
						C18.46,11.78,18.45,11.82,18.43,11.86z M17.75,11.57L17.75,11.57L17.75,11.57z"/>
				</g>
			</g>
			<g id="body_bg">
				<path class="st4" d="M24.39,35.28c1.86,0.8,2.5,3.09,1.99,4.99c0,0,0,0,0,0c-2.36,12.15-8.48,22.86-10.96,23.69
					c0,0,0.45-2.99,0.68-4.48c0.1-0.65,0.06-1.32-0.1-1.96c-0.66-2.5-2.21-4.61-2.83-7.03c-0.94-3.62-1.19-7.56-2.41-11.98
					c-0.36-1.3,0.23-2.68,1.43-3.31c0,0,0,0,0,0c1.7-0.33,0.25-2.22,0.17-3.62c1.32-3.95,2.38-5.31,5.87-5.35
					c3.79-0.34,5.92,2.59,6.89,5.28C24.79,34.92,24.2,34.62,24.39,35.28L24.39,35.28z"/>
			</g>
			<g id="flippers">
				<g>
					<path class="st5" d="M25.02,45.84c-3.47,13.83-1.6,15.16-1.6,15.16l-2.5-2.34"/>
					<path d="M23.42,61.75c-0.15,0-0.3-0.05-0.43-0.14c-0.04-0.03-0.08-0.06-0.12-0.11l-2.45-2.3c-0.3-0.28-0.31-0.75-0.03-1.05
						c0.28-0.3,0.75-0.31,1.05-0.03l0.75,0.7c-0.07-2.23,0.37-6.18,2.12-13.16c0.1-0.4,0.5-0.64,0.9-0.54c0.4,0.1,0.64,0.5,0.54,0.9
						c-1.28,5.1-1.98,9.06-2.07,11.76c-0.07,1.99,0.23,2.6,0.28,2.7c0.27,0.27,0.29,0.7,0.05,0.99
						C23.85,61.65,23.63,61.75,23.42,61.75z M23.95,60.5L23.95,60.5L23.95,60.5z"/>
				</g>
				<g>
					<path class="st5" d="M12.88,49.34c0.22,5.98,1.38,9.41-0.71,10.47c0,0,2.21-0.06,3.33-1.88"/>
					<path d="M12.17,60.55c-0.34,0-0.64-0.23-0.72-0.56c-0.09-0.34,0.07-0.69,0.39-0.84c1.01-0.51,0.92-2.09,0.62-5.32
						c-0.12-1.3-0.25-2.77-0.32-4.46c-0.02-0.41,0.3-0.75,0.71-0.77c0.41-0.01,0.75,0.3,0.77,0.71c0.06,1.65,0.19,3.1,0.31,4.38
						c0.16,1.7,0.28,3.04,0.17,4.12c-0.02,0.19-0.05,0.4-0.1,0.62c0.32-0.22,0.63-0.51,0.87-0.89c0.22-0.35,0.67-0.46,1.02-0.24
						c0.35,0.21,0.46,0.67,0.24,1.02c-1.32,2.13-3.83,2.23-3.94,2.23C12.19,60.55,12.18,60.55,12.17,60.55z"/>
				</g>
			</g>
			<g id="light">
				<g>
					<path class="st6" d="M23.46,35.88l1.65,1.01c0.48,0.29,0.72,0.86,0.59,1.41c-0.73,3.1-3.15,13.14-4.74,16.01l-0.05,0.17
						l-0.16,0.59c-0.13,0.63-0.28,1.4-0.27,1.01l0.27-1.01c0.07-0.34,0.14-0.64,0.17-0.71l0.03-0.06c2.1-7.75,3.83-13.54-0.23-16.7
						C22.15,37.36,23.05,36.8,23.46,35.88L23.46,35.88z"/>
				</g>
				<g>
					<path class="st5" d="M18.59,12.18c0.03-0.61-1.04,2.2-1.1,2.41c-1.87,5.94-6.92,9.47-4.83,16.42c0.02,0.06,0.22-0.35,0.62-1.05
						c1.13-2.01,4.2-2.57,4.2-2.57C11.63,22.85,18.39,16.78,18.59,12.18z"/>
				</g>
				<g>
					<path class="st6" d="M19.71,12.55c0.15-0.59,0.4,1.27,0.36,1.48c-1.09,5.75,7.67,10.72,4.65,17.35
						c-0.01,0.03-0.23-1.01-0.83-1.79c-0.62-0.81-1.62-1.37-1.62-1.37C25.52,24.59,17.79,20.25,19.71,12.55L19.71,12.55z"/>
				</g>
				<g>
					<path class="st5" d="M15.96,37.41c-3.91,3.23,0.55,16.86,1,22.44c0,0.06-0.02,0.12-0.03,0.18c-0.1,0.6-0.09-1.04-0.12-1.26
						c-0.22-1.89-1.22-4.68-2.32-7.01c-1.14-2.41-1.32-6.17-1.59-8.75c-0.43-4.19-1.88-5.26,0.87-7.36
						c0.01-0.01,0.08,0.03,0.21,0.09C14.28,36.55,14.94,37.1,15.96,37.41L15.96,37.41z"/>
				</g>
				<g>
					<path class="st6" d="M16.19,37.48l0.09,0.02c-0.84,1.22-1.93,5.52,0.06,17.29c-0.49-2.87-3.14-13.75-0.21-17.33L16.19,37.48z"
						/>
				</g>
				<g>
					<path class="st5" d="M16.45,37.54c0.62,0.14,1.34,0.2,2.17,0.21c-2.28,1.09-3.46,2.68-1.33,13.54
						c0.62,3.17-0.35,6.27-0.33,8.56c0,0.06-0.02,0.12-0.03,0.18c-0.1,0.6-0.09-1.04-0.12-1.26C16.09,50.15,14.92,42.57,16.45,37.54
						L16.45,37.54z"/>
				</g>
			</g>
			<g id="body_line">
				<path d="M15.42,64.7c-0.17,0-0.34-0.06-0.48-0.17c-0.2-0.17-0.3-0.42-0.26-0.68l0.68-4.48c0.08-0.56,0.06-1.12-0.09-1.66
					c-0.31-1.19-0.86-2.33-1.39-3.43c-0.55-1.14-1.12-2.33-1.45-3.6c-0.43-1.67-0.72-3.39-1.02-5.2c-0.33-1.98-0.67-4.04-1.24-6.21
					c-0.51-1.96,0.45-3.99,2.3-4.83c0.02-0.01,0.03-0.02,0.05-0.02c0.38-0.16,0.81,0.01,0.98,0.38c0.16,0.37,0,0.81-0.38,0.98
					c-1.21,0.53-1.84,1.85-1.51,3.12c0.58,2.24,0.93,4.32,1.27,6.34c0.3,1.78,0.58,3.46,0.99,5.07c0.29,1.13,0.8,2.2,1.35,3.33
					c0.56,1.16,1.14,2.37,1.49,3.69c0.19,0.74,0.23,1.5,0.12,2.26l-0.39,2.6c0.97-1.1,2.31-3.08,3.84-6.17
					c1.4-2.82,3.96-8.63,5.37-15.9c0-0.02,0.01-0.03,0.01-0.05l0,0c0.53-2.01-0.41-3.62-1.57-4.12c-0.38-0.16-0.55-0.6-0.39-0.97
					c0.16-0.38,0.6-0.55,0.98-0.39c1.05,0.45,1.86,1.35,2.29,2.51c0.38,1.04,0.42,2.22,0.14,3.32c-1.07,5.5-3.02,11.27-5.49,16.25
					c-1.05,2.12-2.15,3.98-3.16,5.37c-1.09,1.49-2.01,2.35-2.79,2.61C15.58,64.69,15.5,64.7,15.42,64.7z M26.38,40.27L26.38,40.27
					L26.38,40.27z"/>
			</g>
			<g id="tenticles">
				<g>
					<path class="st6" d="M19.6,55.77c-0.22,0.9,0.15,1.78,0.83,1.97c0.68,0.19,1.42-0.39,1.64-1.28c0.22-0.9-0.15-1.78-0.83-1.97
						C20.56,54.3,19.82,54.88,19.6,55.77L19.6,55.77z"/>
					<path d="M20.69,58.52c-0.16,0-0.31-0.02-0.46-0.06c-1.08-0.3-1.68-1.56-1.35-2.86c0.18-0.7,0.6-1.29,1.16-1.62
						c0.44-0.26,0.94-0.33,1.4-0.2c1.08,0.3,1.68,1.56,1.35,2.86c-0.18,0.7-0.6,1.29-1.16,1.62C21.34,58.43,21.01,58.52,20.69,58.52
						z M20.98,55.2c-0.06,0-0.13,0.02-0.19,0.06c-0.21,0.12-0.39,0.39-0.46,0.7h0c-0.13,0.52,0.06,1,0.31,1.07
						c0.08,0.02,0.17,0,0.26-0.05c0.21-0.12,0.39-0.39,0.46-0.7c0.13-0.52-0.06-1-0.31-1.07C21.02,55.2,21,55.2,20.98,55.2z
						 M19.6,55.77L19.6,55.77L19.6,55.77z"/>
				</g>
				<g>
					<path class="st6" d="M20.97,51.48c-0.31,1.13,0.14,2.26,1,2.52c0.86,0.26,1.81-0.45,2.12-1.58c0.31-1.13-0.14-2.26-1-2.52
						C22.23,49.64,21.28,50.35,20.97,51.48z"/>
					<path d="M22.33,54.79c-0.19,0-0.39-0.03-0.57-0.08c-0.63-0.19-1.14-0.69-1.41-1.37c-0.25-0.62-0.28-1.35-0.08-2.05v0
						c0.23-0.84,0.75-1.53,1.42-1.9c0.52-0.29,1.1-0.36,1.63-0.2c0.63,0.19,1.14,0.69,1.41,1.37c0.25,0.62,0.28,1.35,0.08,2.05
						c-0.23,0.84-0.75,1.53-1.42,1.9C23.05,54.69,22.69,54.79,22.33,54.79z M21.69,51.67L21.69,51.67c-0.22,0.8,0.08,1.49,0.49,1.61
						c0.15,0.05,0.31,0.02,0.49-0.08c0.32-0.18,0.58-0.55,0.7-0.99c0.22-0.8-0.08-1.49-0.49-1.61c-0.15-0.05-0.31-0.02-0.49,0.08
						C22.07,50.86,21.81,51.23,21.69,51.67z"/>
				</g>
				<g>
					<path class="st6" d="M18.48,58.86c-0.42,0.7-0.32,1.51,0.21,1.83c0.54,0.31,1.32,0,1.74-0.69c0.42-0.7,0.32-1.51-0.21-1.83
						C19.68,57.86,18.9,58.17,18.48,58.86z"/>
					<path d="M19.17,61.56c-0.29,0-0.58-0.07-0.85-0.23c-0.39-0.23-0.66-0.6-0.78-1.06c-0.15-0.57-0.03-1.23,0.31-1.79l0,0
						c0.64-1.06,1.84-1.47,2.75-0.95c0.39,0.23,0.66,0.6,0.78,1.06c0.15,0.57,0.04,1.23-0.31,1.79
						C20.61,61.13,19.88,61.56,19.17,61.56z M19.74,58.79c-0.17,0-0.44,0.15-0.63,0.46l0,0c-0.16,0.26-0.18,0.51-0.14,0.66
						c0.01,0.05,0.04,0.12,0.09,0.15c0.14,0.08,0.5-0.05,0.73-0.43c0.16-0.26,0.18-0.51,0.14-0.66c-0.01-0.05-0.04-0.12-0.09-0.15
						C19.82,58.8,19.78,58.79,19.74,58.79z M18.48,58.86L18.48,58.86L18.48,58.86z"/>
				</g>
				<g>
					<path class="st6" d="M16.68,61.41c-0.54,0.49-0.66,1.19-0.27,1.56s1.14,0.28,1.67-0.21c0.54-0.49,0.66-1.19,0.27-1.56
						C17.97,60.83,17.22,60.92,16.68,61.41z"/>
					<path d="M17.04,63.94c-0.43,0-0.84-0.14-1.15-0.44c-0.3-0.29-0.46-0.69-0.45-1.12c0.01-0.55,0.28-1.1,0.74-1.52l0,0
						c0.83-0.76,2.01-0.84,2.69-0.19c0.3,0.29,0.46,0.69,0.45,1.12c-0.01,0.55-0.28,1.1-0.74,1.52
						C18.13,63.73,17.57,63.94,17.04,63.94z M17.74,61.71c-0.13,0-0.35,0.06-0.55,0.24h0c-0.25,0.23-0.27,0.45-0.25,0.49
						c0.05,0.04,0.36,0.04,0.65-0.23c0.25-0.22,0.27-0.44,0.25-0.49C17.82,61.72,17.79,61.71,17.74,61.71z M16.68,61.41L16.68,61.41
						L16.68,61.41z"/>
				</g>
			</g>
			<g id="face">
				<g>
					<path d="M18.96,34.73C18.96,34.73,18.96,34.73,18.96,34.73c-0.4,0-0.76-0.25-0.89-0.62c-0.01-0.03-0.02-0.06-0.02-0.09
						c0-0.15,0.12-0.27,0.27-0.27c0.12,0,0.22,0.08,0.26,0.18c0.06,0.16,0.22,0.26,0.39,0.26c0,0,0,0,0,0
						c0.17,0,0.33-0.11,0.39-0.27l0-0.01c0.05-0.14,0.21-0.21,0.35-0.16c0.14,0.05,0.21,0.21,0.16,0.35l0,0.01
						C19.72,34.48,19.36,34.73,18.96,34.73z M18.59,34.02L18.59,34.02L18.59,34.02z"/>
				</g>
				<g>
					<path d="M23.02,33.03c-0.14,0-0.27-0.06-0.36-0.17l-0.07-0.08c-0.33-0.41-0.94-0.5-1.38-0.2l-0.16,0.11
						c-0.21,0.15-0.5,0.09-0.65-0.12s-0.09-0.5,0.12-0.64l0.16-0.11c0.84-0.58,1.99-0.41,2.63,0.38l0.07,0.08
						c0.16,0.2,0.13,0.49-0.07,0.65C23.23,32.99,23.13,33.03,23.02,33.03z"/>
				</g>
				<g>
					<path d="M14.78,33.09c-0.12,0-0.24-0.05-0.33-0.14c-0.18-0.18-0.18-0.47,0-0.65l0.24-0.24c0.6-0.6,1.52-0.74,2.27-0.35
						l0.44,0.23c0.23,0.12,0.32,0.4,0.2,0.62c-0.12,0.23-0.4,0.32-0.62,0.2l-0.44-0.23c-0.4-0.2-0.88-0.13-1.19,0.19l-0.24,0.24
						C15.02,33.05,14.9,33.09,14.78,33.09z"/>
				</g>
			</g>
		</g>
	</g>
</g>
</svg>
