<?xml version="1.0" encoding="utf-8"?>
<!-- Generator: Adobe Illustrator 27.0.0, SVG Export Plug-In . SVG Version: 6.00 Build 0)  -->
<svg version="1.1" id="Layer_1" xmlns="http://www.w3.org/2000/svg" xmlns:xlink="http://www.w3.org/1999/xlink" x="0px" y="0px"
	 viewBox="0 0 75 75" style="enable-background:new 0 0 75 75;" xml:space="preserve">
<style type="text/css">
	.st0{fill:#FFFFFF;}
	.st1{fill-rule:evenodd;clip-rule:evenodd;fill:#BC83FB;}
	.st2{fill-rule:evenodd;clip-rule:evenodd;}
	.st3{fill-rule:evenodd;clip-rule:evenodd;fill:#FFFFFF;}
</style>
<g>
	<ellipse transform="matrix(0.7071 -0.7071 0.7071 0.7071 -15.533 37.5)" class="st0" cx="37.5" cy="37.5" rx="38.92" ry="36.03"/>
	<g>
		<path class="st1" d="M57.68,58.24H23.6c-3.02,0-5.47-2.45-5.47-5.47V17.32c0-3.02,2.45-5.47,5.47-5.47h34.09
			c3.02,0,5.47,2.45,5.47,5.47v35.45C63.15,55.79,60.7,58.24,57.68,58.24z"/>
		<path d="M54.84,55.37H26.43c-3.06,0-5.55-2.49-5.55-5.55V20.27c0-3.06,2.49-5.55,5.55-5.55h28.41c3.06,0,5.55,2.49,5.55,5.55
			v29.54C60.39,52.88,57.9,55.37,54.84,55.37z M26.43,16.7c-1.97,0-3.57,1.6-3.57,3.57v29.54c0,1.97,1.6,3.57,3.57,3.57h28.41
			c1.97,0,3.57-1.6,3.57-3.57V20.27c0-1.97-1.6-3.57-3.57-3.57H26.43z"/>
		<g>
			<g>
				<circle class="st2" cx="49.12" cy="25.05" r="3.99"/>
				<path d="M49.12,32.79c-0.66,0-1.2-0.54-1.2-1.2v-6.55c0-0.66,0.54-1.2,1.2-1.2s1.2,0.54,1.2,1.2v6.55
					C50.31,32.25,49.78,32.79,49.12,32.79z"/>
			</g>
			<g>
				<circle class="st2" cx="49.12" cy="41.64" r="3.99"/>
				<path d="M49.12,49.38c-0.66,0-1.2-0.54-1.2-1.2v-6.55c0-0.66,0.54-1.2,1.2-1.2s1.2,0.54,1.2,1.2v6.55
					C50.31,48.84,49.78,49.38,49.12,49.38z"/>
			</g>
		</g>
		<path class="st2" d="M55.46,63.15h-3.39c-0.66,0-1.2-0.54-1.2-1.2v-3.72h5.78v3.72C56.65,62.62,56.12,63.15,55.46,63.15z"/>
		<path class="st2" d="M29.21,63.15h-3.39c-0.66,0-1.2-0.54-1.2-1.2v-3.72h5.78v3.72C30.4,62.62,29.87,63.15,29.21,63.15z"/>
		<g>
			<g>
				<g>
					<circle class="st2" cx="18.04" cy="49.22" r="6.19"/>
					<circle class="st3" cx="15.92" cy="49.22" r="2"/>
				</g>
				<path class="st2" d="M37.93,49.68l-1.47,1.96c-0.15,0.2-0.38,0.31-0.61,0.31h-0.19c-0.21,0-0.39-0.15-0.43-0.36
					c-0.17-0.9-0.96-1.59-1.91-1.59c-0.93,0-1.71,0.66-1.9,1.53c-0.05,0.24-0.27,0.42-0.52,0.42h-0.43c-0.25,0-0.46-0.17-0.52-0.42
					C29.76,50.66,28.98,50,28.05,50c-0.93,0-1.7,0.65-1.9,1.52c-0.06,0.25-0.28,0.42-0.53,0.42h-2.14c-0.42,0-0.77-0.34-0.77-0.77
					v-3.92c0-0.42,0.34-0.77,0.77-0.77h12.37c0.24,0,0.47,0.11,0.61,0.31l1.47,1.96C38.14,49.04,38.14,49.41,37.93,49.68z"/>
			</g>
			<g>
				<g>
					<circle class="st2" cx="18.04" cy="20.87" r="6.19"/>
					<circle class="st3" cx="15.92" cy="20.87" r="2"/>
				</g>
				<path class="st2" d="M38.21,20.45v4.97c0,0.45-0.37,0.82-0.82,0.82h-0.85c-0.49,0-0.88-0.39-0.88-0.88v-1.92
					c0-0.43-0.34-0.77-0.77-0.77s-0.77,0.34-0.77,0.77v1.92c0,0.49-0.39,0.88-0.88,0.88h-0.83c-0.45,0-0.82-0.37-0.82-0.82v-2.35
					c0-0.23-0.19-0.42-0.42-0.42h-8.21c-0.23,0-0.42-0.19-0.42-0.42v-2.75c0-0.23,0.19-0.42,0.42-0.42h13.89
					C37.6,19.07,38.21,19.69,38.21,20.45z"/>
			</g>
			<g>
				<g>
					<circle class="st2" cx="18.04" cy="35.04" r="6.19"/>
					<circle class="st3" cx="15.92" cy="35.04" r="2"/>
				</g>
				<path class="st2" d="M38.3,37.3l-2.09,1.95c-0.32,0.3-0.81,0.26-1.09-0.07l-1.62-1.94c-0.1-0.13-0.26-0.2-0.42-0.2h-0.5
					c-0.27,0-0.52-0.17-0.61-0.42l-0.53-1.36c-0.15-0.4-0.6-0.6-1-0.44c-0.4,0.15-0.6,0.6-0.44,1l0.13,0.34
					c0.16,0.43-0.15,0.89-0.62,0.89h-0.23c-0.27,0-0.52-0.17-0.61-0.42l-0.53-1.36c-0.15-0.4-0.6-0.6-1-0.44
					c-0.4,0.15-0.6,0.6-0.45,1l0.13,0.34c0.16,0.43-0.15,0.89-0.62,0.89h-3.94c-0.3,0-0.54-0.24-0.54-0.54v-2.8
					c0-0.3,0.24-0.54,0.54-0.54h14.35c0.22,0,0.42,0.14,0.5,0.34l1.3,3.21C38.51,36.91,38.46,37.14,38.3,37.3z"/>
			</g>
		</g>
	</g>
</g>
</svg>
