<svg enable-background="new 0 0 75 75" version="1.1" viewBox="0 0 75 75" xmlns="http://www.w3.org/2000/svg">
 <style type="text/css">.st0{fill:#FFFFFF;}
	.st1{fill-rule:evenodd;clip-rule:evenodd;}
	.st2{fill-rule:evenodd;clip-rule:evenodd;fill:#BC83FB;}</style>
 <ellipse class="st0" transform="matrix(.7071 -.7071 .7071 .7071 -15.53 37.5)" cx="37.5" cy="37.5" rx="38.92" ry="36.03"/>
 <path class="st1" d="m39.1 54.14-18.27-18.25c-1.86-1.86-1.86-4.88 0-6.74l18.27-18.25c1.86-1.86 4.88-1.86 6.74 0l18.26 18.25c1.86 1.86 1.86 4.88 0 6.74l-18.27 18.25c-1.86 1.86-4.87 1.86-6.73 0z"/>
 <ellipse class="st2" cx="55.11" cy="32.52" rx="3.35" ry="3.12"/>
 <ellipse class="st2" cx="42.47" cy="19.87" rx="3.35" ry="3.12"/>
 <path class="st2" d="m44.1 61.5h-25.83c-2.63 0-4.77-2.13-4.77-4.76v-25.81c0-2.63 2.13-4.76 4.77-4.76h25.83c2.63 0 4.77 2.13 4.77 4.76v25.81c0 2.63-2.13 4.76-4.77 4.76z"/>
 <ellipse class="st1" transform="matrix(.7071 -.7071 .7071 .7071 -13.37 38.68)" cx="40.01" cy="35.48" rx="3.35" ry="3.12"/>
 <ellipse class="st1" transform="matrix(.7071 -.7071 .7071 .7071 -21.95 35.12)" cx="31.42" cy="44.06" rx="3.35" ry="3.12"/>
 <ellipse class="st1" transform="matrix(.7071 -.7071 .7071 .7071 -30.54 31.56)" cx="22.83" cy="52.65" rx="3.35" ry="3.12"/>
</svg>
