<?xml version="1.0" encoding="utf-8"?>
<!-- Generator: Adobe Illustrator 27.0.0, SVG Export Plug-In . SVG Version: 6.00 Build 0)  -->
<svg version="1.1" id="Layer_1" xmlns="http://www.w3.org/2000/svg" xmlns:xlink="http://www.w3.org/1999/xlink" x="0px" y="0px"
	 viewBox="0 0 75.01 75.01" style="enable-background:new 0 0 75.01 75.01;" xml:space="preserve">
<style type="text/css">
	.st0{fill:#FFFFFF;}
	.st1{fill:#BC83FB;}
</style>
<g>
	<g>
		
			<ellipse transform="matrix(0.7071 -0.7071 0.7071 0.7071 -15.5341 37.5027)" class="st0" cx="37.5" cy="37.5" rx="38.92" ry="36.03"/>
	</g>
	<g>
		<g>
			<path d="M52.37,48.84c0,0-2.7,9-2.08,9.51c0.62,0.51,5.78-9.51,5.78-9.51H52.37z"/>
		</g>
		<g>
			<path d="M23.01,48.84c0,0,2.7,9,2.08,9.51c-0.62,0.51-5.78-9.51-5.78-9.51H23.01z"/>
		</g>
		<g>
			<path class="st1" d="M21.69,41.16c-1.69-1.51-5.14-1.73-3.6,3.45l1.42,4.31c0,0,17.46,9.7,36.18,0.1l1.21-4.39
				c0.53-1.75,1.82-6.51-3.49-3.74c2.35-4.88-0.36-6.36-2.86-4.46c0.71-5.95-2.24-5.49-3.85-3.02c-0.15-5.49-2.57-6.13-4.54-2.27
				c-1.21-5.38-4.24-3.36-4.83-0.45c-2.5-4.83-5.23-2.55-4.94,1.24c-4-3.55-5.14-1.05-4.28,2.36c-3.98-2.83-5.21,0.03-3.49,3.08
				C21.21,34.97,19.57,37.91,21.69,41.16z"/>
		</g>
		<g>
			<g>
				<path d="M35.71,45.93c0.09,1.1,0.92,1.87,2,1.87c1.09,0.02,1.89-0.77,1.98-1.88c0.03-0.22,0.23-0.38,0.45-0.36
					c0.6,0.11,0.33,1.03,0.25,1.47c-0.57,2.01-3.41,2.5-4.78,1.01c-0.54-0.55-0.77-1.36-0.71-2.1c0.02-0.22,0.22-0.39,0.44-0.37
					C35.54,45.58,35.69,45.74,35.71,45.93L35.71,45.93z"/>
			</g>
			<g>
				<path d="M39.54,43.25c0.02-3.36,5.18-4.14,6.54-1.22c0.18,0.48,0.6,1.6-0.19,1.66c-0.22,0-0.4-0.16-0.44-0.36
					c-0.14-0.59-0.45-1.06-0.9-1.37c-1.38-0.95-3.76-0.43-4.12,1.38C40.32,43.86,39.54,43.78,39.54,43.25L39.54,43.25z"/>
			</g>
			<g>
				<path d="M34.97,43.34c-0.44-2.49-4.6-2.53-5.02-0.01c-0.1,0.54-0.9,0.46-0.89-0.09c0.04-2.81,3.74-3.86,5.71-2.19
					c0.66,0.52,1.08,1.37,1.09,2.2c0.01,0.25-0.19,0.45-0.44,0.46C35.19,43.71,35,43.55,34.97,43.34L34.97,43.34z"/>
			</g>
		</g>
		<g>
			<path class="st1" d="M56.57,45.18c5.8,2.56,7.6,2.93,4.17,6.81c-2.38,2.69-4.77,8.3-6.21,10.33c-0.23,0.33-0.74,0.06-0.61-0.32
				c1.88-5.4,3.88-11.84,1.77-12.71C52.94,48.16,56.57,45.18,56.57,45.18z"/>
		</g>
		<g>
			<path class="st1" d="M18.43,45.16c-5.8,2.56-7.61,2.96-4.18,6.84c2.38,2.69,4.77,8.3,6.21,10.33c0.23,0.33,0.74,0.06,0.61-0.32
				c-1.88-5.4-3.88-11.84-1.77-12.71C22.05,48.16,18.43,45.16,18.43,45.16z"/>
		</g>
		<g>
			<g>
				<path class="st1" d="M19.94,40.75c-4.53-5.53-1.85-10.86-1.02-12.41c0.13-0.23,0.05-0.52-0.18-0.65l0,0
					c-0.22-0.13-0.51-0.06-0.64,0.16c-5.73,9.01,0.15,14.24,0.15,14.24L19.94,40.75z"/>
			</g>
			<g>
				<path class="st1" d="M13.09,23.33c2.17,5.99,9.97,7.37,14.04,2.48c2.38-2.85,2.44-6.6,0.84-9.44c-0.12-0.21-0.4-0.26-0.58-0.1
					l-7.29,6.55c-0.23,0.21-0.61,0.06-0.63-0.26l-0.53-9.68c-0.01-0.25-0.26-0.41-0.49-0.34C14.16,13.84,11.38,18.62,13.09,23.33z"
					/>
			</g>
		</g>
		<g>
			<g>
				<path class="st1" d="M55.12,40.75c4.53-5.53,1.85-10.86,1.01-12.41c-0.13-0.23-0.05-0.52,0.18-0.65l0,0
					c0.22-0.13,0.51-0.06,0.64,0.16c5.73,9.01-0.15,14.24-0.15,14.24L55.12,40.75z"/>
			</g>
			<g>
				<path class="st1" d="M61.96,23.33c-2.17,5.99-9.97,7.37-14.04,2.48c-2.38-2.85-2.44-6.6-0.84-9.44c0.12-0.21,0.4-0.26,0.58-0.1
					l7.29,6.55c0.23,0.21,0.61,0.06,0.63-0.26l0.53-9.68c0.01-0.25,0.26-0.41,0.49-0.34C60.89,13.84,63.67,18.62,61.96,23.33z"/>
			</g>
		</g>
		<g>
			<path d="M55.39,49.57c-10.64,6.32-24.41,5.22-35.3,0.05c-0.08-0.04-0.12-0.14-0.08-0.23c0.04-0.08,0.14-0.11,0.22-0.08
				c5.62,2.06,11.59,3.29,17.57,3.46c4.29,0.13,8.6-0.41,12.7-1.66c1.62-0.49,3.17-1.14,4.72-1.83c0.09-0.04,0.19,0,0.23,0.08
				C55.49,49.44,55.46,49.53,55.39,49.57L55.39,49.57z"/>
		</g>
	</g>
</g>
</svg>
