<?xml version="1.0" encoding="utf-8"?>
<!-- Generator: Adobe Illustrator 27.0.0, SVG Export Plug-In . SVG Version: 6.00 Build 0)  -->
<svg version="1.1" id="Layer_1" xmlns="http://www.w3.org/2000/svg" xmlns:xlink="http://www.w3.org/1999/xlink" x="0px" y="0px"
	 viewBox="0 0 75 75" style="enable-background:new 0 0 75 75;" xml:space="preserve">
<style type="text/css">
	.st0{fill:#FFFFFF;}
	.st1{fill:#24CC85;}
</style>
<g>
	<ellipse transform="matrix(0.7071 -0.7071 0.7071 0.7071 -15.533 37.5)" class="st0" cx="37.5" cy="37.5" rx="38.92" ry="36.03"/>
	<g>
		<path class="st1" d="M59.1,61.03H15.9c-1.06,0-1.93-0.86-1.93-1.93v-7.33c0-1.06,0.86-1.93,1.93-1.93H59.1
			c1.06,0,1.93,0.86,1.93,1.93v7.33C61.03,60.17,60.17,61.03,59.1,61.03z"/>
		<g>
			<path d="M46.86,30.19c-4.04-2.98-8.35-2.84-10.73-3.51c-2.86-0.81-4-3.63-2.04-5.09c2.23-1.67,6.07-0.09,6.58,2.2
				c0.13,0.6,0.66,1.03,1.27,1.03h6.29c0.79,0,1.42-0.7,1.3-1.49c-1.23-8.29-15.33-12.95-22.56-5.94c-3.88,3.77-3.59,9.2,0.36,12.54
				c4.96,4.18,12.16,1.78,13.98,6.32c0.97,2.41-1.64,4.35-4.69,3.5c-1.78-0.5-2.93-1.74-3.17-2.99c-0.12-0.62-0.65-1.08-1.28-1.08
				h-6.59c-0.8,0-1.42,0.72-1.3,1.51c0.69,4.38,4.97,8.48,11.44,9.45C48.78,48.59,54.65,35.94,46.86,30.19z"/>
		</g>
	</g>
</g>
</svg>
