<svg enable-background="new 0 0 75 75" version="1.1" viewBox="0 0 75 75" xmlns="http://www.w3.org/2000/svg">
 <style type="text/css">.st0{fill:#FFFFFF;}
	.st1{fill-rule:evenodd;clip-rule:evenodd;fill:#654FF0;}
	.st2{fill-rule:evenodd;clip-rule:evenodd;fill:#FFFFFF;}</style>
 <ellipse class="st0" transform="matrix(.7071 -.7071 .7071 .7071 -15.53 37.5)" cx="37.5" cy="37.5" rx="38.9" ry="36"/>
 <path class="st1" d="m60.8 17.6v39.4c0 2.2-1.8 4.1-4.1 4.1h-39.3c-2.2 0-4.1-1.8-4.1-4.1v-39.4c0-2.2 1.8-4.1 4.1-4.1h10.5c1.5 0 2.8 0.9 3.3 2.3 0.9 2.4 3.2 4.1 5.9 4.1s5-1.7 5.9-4.1c0.5-1.4 1.8-2.3 3.3-2.3h10.5c2.2 0 4 1.8 4 4.1z"/>
 <path class="st2" d="m48.4 39.7c-0.2 0-0.3 0.1-0.4 0.3l-4 15.4c-0.1 0.3 0.1 0.5 0.4 0.5h3c0.2 0 0.3-0.1 0.4-0.3l2.3-8.8c0.1-0.3 0.4-0.3 0.5 0l2.3 8.8c0 0.2 0.2 0.3 0.4 0.3h3c0.3 0 0.5-0.2 0.4-0.5l-4-15.4c0-0.2-0.2-0.3-0.4-0.3"/>
 <path class="st2" d="m40.3 40-2.2 8.5c-0.1 0.3-0.5 0.3-0.5 0l-2-8.5c0-0.2-0.2-0.3-0.4-0.3h-2.9c-0.2 0-0.3 0.1-0.4 0.3l-2 8.5c-0.1 0.3-0.4 0.3-0.5 0l-2.3-8.5c0-0.2-0.2-0.3-0.4-0.3h-3c-0.3 0-0.5 0.2-0.4 0.5l4 15.4c0 0.2 0.2 0.3 0.4 0.3h3.2c0.2 0 0.3-0.1 0.4-0.3l2.1-8.8c0.1-0.3 0.5-0.3 0.5 0l2.2 9.1h3.5c0.2 0 0.3-0.1 0.4-0.3l4-15.4c0.1-0.3-0.1-0.5-0.4-0.5h-3c-0.1 0-0.2 0.1-0.3 0.3z"/>
 <polygon class="st2" points="47.9 54 52.7 54 52.7 51.7 47.9 51.7"/>
</svg>
