<svg enable-background="new 0 0 112.96 112.96" version="1.1" viewBox="0 0 113 113" xmlns="http://www.w3.org/2000/svg">
 <style type="text/css">.st0{fill-rule:evenodd;clip-rule:evenodd;fill:#654FF0;}
	.st1{fill-rule:evenodd;clip-rule:evenodd;fill:#FFFFFF;}</style>
 <path class="st0" d="m113 9.66v93.63c0 5.34-4.33 9.66-9.66 9.66h-93.64c-5.34 0-9.66-4.33-9.66-9.66v-93.63c0-5.33 4.33-9.66 9.66-9.66h25.02c3.45 0 6.54 2.12 7.77 5.35 2.16 5.64 7.63 9.65 14.03 9.65s11.87-4.01 14.02-9.65c1.23-3.23 4.32-5.35 7.77-5.35h25.02c5.34 0 9.67 4.33 9.67 9.66z"/>
 <path class="st1" d="m83.47 62.18c-0.43 0-0.81 0.29-0.92 0.71l-9.57 36.6c-0.16 0.6 0.3 1.2 0.92 1.2h7.02c0.43 0 0.81-0.29 0.92-0.71l5.49-21.02c0.16-0.63 1.05-0.63 1.22 0l5.49 21.02c0.11 0.42 0.49 0.71 0.92 0.71h7.04c0.63 0 1.08-0.59 0.92-1.2l-9.57-36.6c-0.11-0.42-0.49-0.71-0.92-0.71"/>
 <path class="st1" d="m64.2 62.89-5.26 20.14c-0.17 0.63-1.07 0.62-1.22-0.01l-4.83-20.11c-0.1-0.43-0.49-0.73-0.93-0.73h-6.93c-0.44 0-0.82 0.3-0.93 0.73l-4.83 20.11c-0.15 0.64-1.06 0.65-1.22 0.01l-5.26-20.14c-0.11-0.42-0.49-0.71-0.92-0.71h-7.02c-0.63 0-1.08 0.59-0.92 1.2l9.57 36.6c0.11 0.42 0.49 0.71 0.92 0.71h7.5c0.44 0 0.82-0.3 0.93-0.73l5.04-20.99c0.15-0.64 1.07-0.64 1.22 0l5.22 21.72h8.26c0.43 0 0.81-0.29 0.92-0.71l9.57-36.6c0.16-0.6-0.3-1.2-0.92-1.2h-7.02c-0.46 0-0.84 0.29-0.94 0.71z"/>
 <polygon class="st1" points="82.14 96.32 93.69 96.32 93.69 90.67 82.21 90.67"/>
</svg>
