<?xml version="1.0" encoding="utf-8"?>
<!-- Generator: Adobe Illustrator 27.1.1, SVG Export Plug-In . SVG Version: 6.00 Build 0)  -->
<svg version="1.1" id="Layer_1" xmlns="http://www.w3.org/2000/svg" xmlns:xlink="http://www.w3.org/1999/xlink" x="0px" y="0px"
	 viewBox="0 0 1600 500" style="enable-background:new 0 0 1600 500;" xml:space="preserve">
<style type="text/css">
	.st0{fill-rule:evenodd;clip-rule:evenodd;fill:#D7B6FA;}
	.st1{fill-rule:evenodd;clip-rule:evenodd;fill:#BA81F9;}
	.st2{fill:#BA81F9;}
	.st3{fill:#EAD9FC;}
	.st4{fill-rule:evenodd;clip-rule:evenodd;fill:#FFFFFF;}
</style>
<g>
	<g>
		<g>
			<g>
				<path class="st0" d="M1600,24.8v428.5c0,8.3-4.1,15.7-10.3,20.2c-2.4,1.7-5.8,0.9-6.9-1.9c-3.9-9.7-16.4-16.8-31.2-16.8
					c-9.5,0-18,2.9-23.9,7.6c-1.9,1.5-4.6,1.3-6.2-0.6c-7.7-8.7-21.2-14.5-36.7-14.5c-13.9,0-26.4,4.7-34.3,12
					c-1.8,1.7-4.7,1.5-6.4-0.3c-9.3-10.1-25.8-16.8-44.6-16.8c-27.1,0-49.3,13.9-52.4,31.7c-0.4,2.4-2.5,4.1-4.9,4.1l-1317.2,0
					C11.1,478.2,0,467.1,0,453.4V24.8C0,11.1,11.1,0,24.8,0h1550.3C1588.9,0,1600,11.1,1600,24.8z"/>
			</g>
			<g>
				<ellipse class="st1" cx="1399.5" cy="479.2" rx="33.9" ry="20.8"/>
				<ellipse class="st1" cx="1483.8" cy="478.7" rx="27.9" ry="17.2"/>
				<ellipse class="st1" cx="1552.4" cy="479" rx="18.6" ry="11.5"/>
			</g>
		</g>
	</g>
	<path class="st2" d="M1600,395.5v57.8c0,8.3-4.1,15.7-10.4,20.2c-2.4,1.7-5.8,0.9-6.9-1.9c-3.9-9.7-16.4-16.8-31.2-16.8
		c-9.5,0-18,2.9-23.9,7.5c-1.9,1.5-4.6,1.2-6.2-0.6c-7.7-8.7-21.2-14.5-36.7-14.5c-13.9,0-26.4,4.7-34.3,12
		c-1.8,1.7-4.7,1.6-6.4-0.3c-9.3-10.1-25.8-16.8-44.6-16.8c-27.1,0-49.3,13.9-52.4,31.7c-0.4,2.4-2.5,4.1-4.9,4.1l-1317.2,0
		C11.1,478.2,0,467.1,0,453.4V306.4c0,0,282.7,89,465.5,88.9C755,395.2,1180.6,268.7,1600,395.5z"/>
	<path class="st3" d="M0,21.3l0,58.6C526.8,31,864.3,217.9,1600,76V21.3c0-11.8-11.1-21.3-24.8-21.3L24.8,0C11.1,0,0,9.5,0,21.3z"/>
	<g>
		<g>
			<path class="st4" d="M1114.1,321.9H485.9c-16.3,0-29.5-13.2-29.5-29.5V182.6c0-16.3,13.2-29.5,29.5-29.5h628.2
				c16.3,0,29.5,13.2,29.5,29.5v109.8C1143.6,308.7,1130.4,321.9,1114.1,321.9z"/>
		</g>
		<g>
			<path d="M521.9,265.4l1.9-15.1h-5.9v-4.2h6.4l1.3-11h-6.3v-4.3h6.8l1.7-13.5h3.9l-1.6,13.5h9.8l1.7-13.5h3.9l-1.6,13.5h5.9v4.3
				h-6.4l-1.3,11h6.3v4.2h-6.8l-1.9,15.1h-4l1.8-15.1h-9.8l-1.8,15.1H521.9z M528.3,246.1h9.8l1.3-11h-9.8L528.3,246.1z"/>
			<path d="M572.5,276.6V213H593v3.5h-15.6v56.7H593v3.5H572.5z"/>
			<path d="M623.6,265.4v-31h-16.7v-5h22.8v36H623.6z M626,221.9c-1.4,0-2.5-0.4-3.5-1.3c-0.9-0.9-1.4-2-1.4-3.4
				c0-1.4,0.5-2.6,1.4-3.4c0.9-0.9,2.1-1.3,3.5-1.3c1.4,0,2.5,0.4,3.5,1.3c0.9,0.9,1.4,2,1.4,3.4c0,1.4-0.5,2.6-1.4,3.4
				C628.5,221.5,627.3,221.9,626,221.9z"/>
			<path d="M651.5,265.4v-36h5l0.5,6.1h0.3c1.9-2,3.9-3.7,6.1-5c2.2-1.3,4.7-2,7.5-2c4.2,0,7.4,1.2,9.4,3.7c2,2.5,3,6.1,3,10.8v22.3
				h-6.1v-21.5c0-3.4-0.6-5.9-1.9-7.6c-1.3-1.7-3.4-2.5-6.4-2.5c-2.1,0-4,0.5-5.7,1.6c-1.7,1.1-3.6,2.7-5.7,4.9v25.1H651.5z"/>
			<path d="M696.8,265.4v-52.7h6.1v35.7h0.3l19.4-18.9h7l-14.4,14.1l16.3,21.8h-6.8l-13.2-18.1l-8.5,8.4v9.8H696.8z"/>
			<path d="M765.4,278.4c-5.1-4-9.2-8.8-12.2-14.4c-3-5.6-4.5-12-4.5-19.2c0-7.2,1.5-13.5,4.5-19.2c3-5.6,7-10.4,12.2-14.4l3.3,3.1
				c-4.9,4.2-8.6,8.8-11,13.7s-3.6,10.5-3.6,16.8c0,6.2,1.2,11.8,3.6,16.8s6,9.5,11,13.7L765.4,278.4z"/>
			<path d="M807,266.3c-3.5,0-6.3-0.6-8.3-1.9c-2-1.3-3.5-3-4.3-5.2c-0.9-2.2-1.3-4.8-1.3-7.8v-17h-10.1v-4.6l10.4-0.4l0.8-11.5h5
				v11.5h17.7v5h-17.7v17.1c0,3.2,0.7,5.6,2,7.3c1.3,1.7,3.7,2.5,7.1,2.5c1.7,0,3.3-0.1,4.7-0.4c1.4-0.3,2.7-0.7,4-1.2l1.3,4.4
				c-1.6,0.6-3.3,1.1-5.1,1.5S809.2,266.3,807,266.3z"/>
			<path d="M844.4,266.3c-3.2,0-6.1-0.7-8.8-2.2c-2.7-1.5-4.9-3.6-6.5-6.4c-1.7-2.8-2.5-6.2-2.5-10.1c0-4,0.8-7.5,2.5-10.3
				c1.7-2.8,3.8-5,6.5-6.4c2.7-1.5,5.6-2.2,8.8-2.2c3.2,0,6.1,0.7,8.8,2.2c2.7,1.5,4.9,3.6,6.5,6.4c1.7,2.8,2.5,6.2,2.5,10.3
				c0,3.9-0.8,7.3-2.5,10.1c-1.7,2.8-3.8,5-6.5,6.4C850.5,265.5,847.6,266.3,844.4,266.3z M844.4,261.3c3.5,0,6.2-1.3,8.3-3.8
				c2.1-2.5,3.1-5.9,3.1-10c0-4.1-1-7.5-3.1-10.1c-2.1-2.6-4.9-3.8-8.3-3.8c-3.5,0-6.2,1.3-8.3,3.8c-2.1,2.6-3.1,5.9-3.1,10.1
				c0,4.1,1,7.4,3.1,10C838.2,260,840.9,261.3,844.4,261.3z"/>
			<path d="M873.5,280.6v-51.1h5l0.5,4.6h0.2c1.7-1.6,3.6-2.9,5.8-3.9c2.2-1,4.4-1.6,6.6-1.6c4.8,0,8.5,1.7,11.1,5
				c2.5,3.3,3.8,7.8,3.8,13.4c0,4-0.8,7.5-2.3,10.4c-1.5,2.9-3.5,5.1-6,6.7c-2.5,1.5-5.2,2.3-8.1,2.3c-1.7,0-3.5-0.4-5.4-1.2
				c-1.9-0.8-3.7-2-5.3-3.4h-0.2l0.3,6.8v12.1H873.5z M889.2,261.2c3.2,0,5.9-1.3,8-3.8c2.1-2.5,3.1-6,3.1-10.5
				c0-3.9-0.8-7.1-2.4-9.6c-1.6-2.4-4.2-3.7-7.8-3.7c-1.6,0-3.3,0.4-5.1,1.3c-1.8,0.9-3.6,2.2-5.5,4.1V257c1.7,1.5,3.5,2.6,5.2,3.3
				C886.5,260.9,887.9,261.2,889.2,261.2z"/>
			<path d="M934.4,265.4v-31h-16.7v-5h22.8v36H934.4z M936.8,221.9c-1.4,0-2.5-0.4-3.5-1.3c-0.9-0.9-1.4-2-1.4-3.4
				c0-1.4,0.5-2.6,1.4-3.4c0.9-0.9,2.1-1.3,3.5-1.3c1.4,0,2.5,0.4,3.5,1.3c0.9,0.9,1.4,2,1.4,3.4c0,1.4-0.5,2.6-1.4,3.4
				C939.3,221.5,938.1,221.9,936.8,221.9z"/>
			<path d="M981,266.3c-3.7,0-7.1-0.7-10.1-2.2c-3-1.5-5.3-3.6-7-6.4c-1.7-2.8-2.6-6.2-2.6-10.1c0-4,0.9-7.5,2.7-10.3
				c1.8-2.8,4.3-5,7.3-6.4c3.1-1.5,6.4-2.2,10-2.2c2.9,0,5.5,0.5,7.6,1.6c2.2,1,4,2.3,5.5,3.7l-3,3.9c-1.5-1.3-3-2.3-4.6-3
				c-1.6-0.7-3.3-1.1-5.2-1.1c-2.8,0-5.2,0.6-7.3,1.7c-2.1,1.2-3.7,2.8-4.9,4.9c-1.2,2.1-1.8,4.5-1.8,7.3c0,2.7,0.6,5.1,1.7,7.2
				c1.2,2.1,2.8,3.7,4.8,4.8s4.5,1.7,7.3,1.7c2.2,0,4.3-0.4,6.1-1.3c1.8-0.9,3.5-1.9,5-3.2l2.7,3.9c-2,1.8-4.2,3.2-6.6,4.1
				C986.2,265.8,983.7,266.3,981,266.3z"/>
			<path d="M1012.2,278.4l-3.3-3.1c5-4.2,8.6-8.8,11-13.7c2.3-5,3.5-10.5,3.5-16.8c0-6.2-1.2-11.8-3.5-16.8c-2.3-5-6-9.5-11-13.7
				l3.3-3.1c5.1,4,9.2,8.8,12.2,14.4c3,5.6,4.5,12,4.5,19.2c0,7.2-1.5,13.5-4.5,19.2C1021.3,269.6,1017.3,274.4,1012.2,278.4z"/>
			<path d="M1051.4,276.6v-3.5h15.6v-56.7h-15.6V213h20.5v63.6H1051.4z"/>
		</g>
	</g>
	<g>
		<ellipse class="st1" cx="1399.5" cy="479.2" rx="33.9" ry="20.8"/>
		<ellipse class="st1" cx="1483.8" cy="478.7" rx="27.9" ry="17.2"/>
		<ellipse class="st1" cx="1552.4" cy="479" rx="18.6" ry="11.5"/>
	</g>
</g>
</svg>
