<?xml version="1.0" encoding="UTF-8"?>
<svg id="Layer_1" data-name="Layer 1" xmlns="http://www.w3.org/2000/svg" viewBox="0 0 1600 500">
  <g>
    <path d="m1600,24.84v428.52c0,8.31-4.08,15.66-10.34,20.17-2.4,1.73-5.84.86-6.95-1.88-3.92-9.72-16.41-16.83-31.21-16.83-9.47,0-17.99,2.91-23.93,7.55-1.91,1.49-4.64,1.25-6.24-.56-7.66-8.68-21.22-14.45-36.68-14.45-13.95,0-26.37,4.71-34.28,12.01-1.84,1.7-4.72,1.55-6.42-.29-9.32-10.07-25.83-16.76-44.62-16.76-27.05,0-49.35,13.85-52.36,31.7-.4,2.39-2.49,4.14-4.91,4.14l-1317.22.05c-13.71,0-24.83-11.12-24.83-24.84V24.84C0,11.12,11.12,0,24.83,0h1550.34c13.71,0,24.83,11.12,24.83,24.84Z" style="fill: #d5cfff; fill-rule: evenodd; stroke-width: 0px;"/>
    <ellipse cx="1483.78" cy="478.69" rx="27.94" ry="17.19" style="fill: #d5cfff; stroke-width: 0px;"/>
    <ellipse cx="1552.37" cy="479.04" rx="18.65" ry="11.48" style="fill: #d5cfff; stroke-width: 0px;"/>
    <ellipse cx="1399.46" cy="479.16" rx="33.87" ry="20.84" style="fill: #d5cfff; stroke-width: 0px;"/>
  </g>
  <g>
    <g>
      <path d="m1158.4,345.22c-.21,7.41-18.3,12.9-40.39,12.26-22.09-.65-39.83-7.18-39.61-14.59.19-6.63,14.67-11.73,33.53-12.27.92-.02,1.85-.04,2.78-.05,1.35,0,2.7.02,4.07.06,1.45.04,2.87.11,4.28.2.9.06,1.79.13,2.67.2,18.75,1.65,32.86,7.57,32.66,14.19Z" style="fill: #a091ff; fill-rule: evenodd; stroke-width: 0px;"/>
      <path d="m1120.1,285.76c31.77.93,50.98-20.25,49.31-49.41-1.51-26.59-15.84-37.72-1.44-68.71l-88.78-2.59c12.57,31.78-2.37,42.06-5.44,68.51-3.35,29.01,14.59,51.27,46.35,52.19Z" style="fill: #a091ff; fill-rule: evenodd; stroke-width: 0px;"/>
      <path d="m1120.38,276.29c26.73.78,42.89-17.03,41.49-41.57-.8-13.92-5.77-22.81-6.49-33.82v-.02c-.03-.44-.05-.88-.07-1.33-1.4-4.74-15.34-8.82-32.43-9.32-17.14-.5-31.31,2.79-32.93,7.46-.03.41-.08.82-.14,1.23-1.33,10.99-6.83,19.58-8.45,33.46-2.82,24.41,12.28,43.13,39,43.91Z" style="fill: #f55d76; fill-rule: evenodd; stroke-width: 0px;"/>
      <ellipse cx="1123.69" cy="162.55" rx="13.05" ry="46.42" transform="translate(928.5 1281.03) rotate(-88.33)" style="fill: #e9e6ff; stroke-width: 0px;"/>
      <ellipse cx="1123.71" cy="162.27" rx="10.15" ry="39.54" transform="translate(928.79 1280.78) rotate(-88.33)" style="fill: #a091ff; stroke-width: 0px;"/>
      <ellipse cx="1122.62" cy="199.46" rx="9.23" ry="32.83" transform="translate(890.56 1315.8) rotate(-88.33)" style="fill: #ff969c; stroke-width: 0px;"/>
      <g>
        <ellipse cx="1151.88" cy="237.27" rx="4.89" ry="10.99" transform="translate(-11.98 68.26) rotate(-3.38)" style="fill: #ffd6d9; stroke-width: 0px;"/>
        <ellipse cx="1148.68" cy="216.22" rx="3.2" ry="4.39" transform="translate(-19.99 195.5) rotate(-9.64)" style="fill: #ffd6d9; stroke-width: 0px;"/>
      </g>
      <path d="m1123.07,330.86s.59-20.13.85-29.35c.27-9.22.48-10.72,10.31-17.17l-27.94-.81c9.43,7.01,9.56,8.53,9.29,17.74-.27,9.22-.85,29.35-.85,29.35l8.35.24Z" style="fill: #a091ff; fill-rule: evenodd; stroke-width: 0px;"/>
      <path d="m1139.09,342.36c-6.51-.87-15.85-3.54-16.01-11.53.9.06,1.79.13,2.67.2-.04,4.65,5.03,7,8.93,8.27,1.52.47,3.13.85,4.68,1.08,1.26.21,1.02,2.1-.27,1.98Z" style="fill: #7a68ed; stroke-width: 0px;"/>
      <path d="m1114.73,330.66c-.21,6.02-6.51,8.91-11.61,9.87-1.68.34-3.32.55-5.06.64-.55.02-1.01-.4-1.03-.95-.03-.55.39-1.01.94-1.03,5.13-.61,13.61-2.21,13.98-8.56.92-.02,1.85-.04,2.78-.05,0,.03,0,.06,0,.09Z" style="fill: #7a68ed; stroke-width: 0px;"/>
      <g>
        <path d="m1140.89,200.67c-.16,0-.33-.03-.49-.1-.63-.27-.93-1.01-.66-1.64l32.35-75.76c.27-.63,1-.93,1.64-.66.63.27.93,1.01.66,1.64l-32.35,75.76c-.2.48-.66.76-1.15.76Z" style="fill: #5141ba; stroke-width: 0px;"/>
        <path d="m1129.36,156.77l47.36,20.33c.97.42,2.08-.11,2.38-1.12,10.48-34.5-33.93-48.88-50.55-21.74-.56.91-.18,2.12.81,2.54Z" style="fill: #f55d76; fill-rule: evenodd; stroke-width: 0px;"/>
        <path d="m1131.85,157.84c15.78-22.72,49.42-11.41,42,18.03l-42-18.03Z" style="fill: #f5b14c; fill-rule: evenodd; stroke-width: 0px;"/>
        <path d="m1154.83,168.04c-.47,0-.89-.26-1.11-.67l-10.06-19.38c-.32-.61-.08-1.37.53-1.69.61-.32,1.37-.08,1.69.53l8.86,17.05,7.18-16.44c.28-.63,1.01-.92,1.65-.65.63.28.92,1.01.65,1.65l-8.22,18.84c-.19.44-.62.73-1.1.75-.01,0-.03,0-.04,0Z" style="fill: #d97c2b; stroke-width: 0px;"/>
        <path d="m1154.82,168.04c-.62,0-1.16-.47-1.24-1.1-.08-.69.41-1.31,1.09-1.39l19.86-2.4c.68-.08,1.31.41,1.39,1.09.08.69-.41,1.31-1.09,1.39l-19.86,2.4c-.05,0-.1,0-.15,0Z" style="fill: #d97c2b; stroke-width: 0px;"/>
        <circle cx="1167.67" cy="136.43" r="7.5" style="fill: #f55d76; stroke-width: 0px;"/>
        <path d="m1174.03,176.4c-.09,0-.19-.01-.28-.03-.67-.16-1.09-.83-.94-1.5,3.25-14.06-3.35-22.62-10.61-25.94-11.48-5.25-23.02.98-28.88,9-.41.56-1.19.68-1.75.27-.56-.41-.68-1.19-.27-1.75,6.44-8.81,19.18-15.64,31.94-9.8,8.16,3.73,15.6,13.25,12.01,28.77-.13.58-.65.97-1.22.97Z" style="fill: #c73a51; stroke-width: 0px;"/>
      </g>
      <path d="m1104.4,199.22c-1.56.18-4.19.19-6.67-1.1-.36-.19-.6-.55-.66-.95l-4.07-25.66c2.29.64,4.79,1.21,7.46,1.71l5.07,24.42c.16.75-.36,1.49-1.13,1.58Z" style="fill: #5141ba; fill-rule: evenodd; stroke-width: 0px;"/>
      <path d="m1100.46,173.23c-2.67-.5-5.17-1.07-7.46-1.71l-.62-3.91c2.11.77,4.59,1.46,7.35,2.08l.74,3.54Z" style="fill: #a091ff; fill-rule: evenodd; stroke-width: 0px;"/>
      <path d="m1099.72,169.69c-2.76-.62-5.24-1.32-7.35-2.08l-1.86-11.75-.51-3.19-.23-1.41c-.04-.26-.13-1.5-.31-1.7l-1.4-1.61-1.54,1.44c-.25.23-.67.17-.84-.14l-1.01-1.89-34.93,3.93c-4.48-4.98-.88-9.61-.88-9.61,0,0,35.35-3.93,35.7-3.56l1.41,1.52,2.43-.99c.46-.19.99,0,1.24.42l.89,1.53,2.08-.34c.56-.09,1.1.29,1.2.85l2.12,10.23.58,2.83,3.22,15.52Z" style="fill: #7a68ed; fill-rule: evenodd; stroke-width: 0px;"/>
    </g>
    <g>
      <path d="m1353.11,324.62c-.18,6.29-15.54,10.96-34.31,10.42-18.77-.55-33.84-6.1-33.65-12.4.16-5.64,12.47-9.97,28.49-10.42.78-.02,1.57-.03,2.36-.04,1.14,0,2.29.01,3.46.05,1.23.04,2.44.09,3.64.17.77.05,1.52.11,2.27.17,15.93,1.4,27.92,6.43,27.74,12.06Z" style="fill: #a091ff; fill-rule: evenodd; stroke-width: 0px;"/>
      <path d="m1320.57,274.11c26.99.79,43.31-17.2,41.89-41.97-1.29-22.58-13.46-32.04-1.22-58.37l-75.42-2.2c10.68,27-2.01,35.73-4.62,58.2-2.85,24.65,12.4,43.55,39.38,44.34Z" style="fill: #a091ff; fill-rule: evenodd; stroke-width: 0px;"/>
      <path d="m1320.8,266.07c22.71.66,36.44-14.47,35.25-35.31-.68-11.83-4.9-19.38-5.51-28.73v-.02c-.02-.37-.05-.75-.06-1.13-1.19-4.02-13.03-7.5-27.55-7.92-14.56-.42-26.6,2.37-27.97,6.33-.03.35-.07.7-.11,1.04-1.13,9.34-5.8,16.63-7.17,28.42-2.4,20.74,10.43,36.64,33.13,37.3Z" style="fill: #f55d76; fill-rule: evenodd; stroke-width: 0px;"/>
      <ellipse cx="1323.62" cy="169.44" rx="11.09" ry="39.43" transform="translate(1115.71 1487.57) rotate(-88.33)" style="fill: #e9e6ff; stroke-width: 0px;"/>
      <ellipse cx="1323.64" cy="169.21" rx="8.63" ry="33.59" transform="translate(1115.96 1487.35) rotate(-88.33)" style="fill: #a091ff; stroke-width: 0px;"/>
      <ellipse cx="1322.71" cy="200.8" rx="7.84" ry="27.89" transform="translate(1083.48 1517.1) rotate(-88.33)" style="fill: #ff969c; stroke-width: 0px;"/>
      <g>
        <ellipse cx="1347.56" cy="232.92" rx="4.15" ry="9.33" transform="translate(-11.38 79.78) rotate(-3.38)" style="fill: #ffd6d9; stroke-width: 0px;"/>
        <ellipse cx="1344.85" cy="215.04" rx="2.71" ry="3.73" transform="translate(-17.02 228.35) rotate(-9.64)" style="fill: #ffd6d9; stroke-width: 0px;"/>
      </g>
      <path d="m1323.09,312.43s.5-17.1.73-24.93c.23-7.83.41-9.11,8.75-14.59l-23.74-.69c8.01,5.96,8.12,7.24,7.89,15.07-.23,7.83-.73,24.93-.73,24.93l7.09.21Z" style="fill: #a091ff; fill-rule: evenodd; stroke-width: 0px;"/>
      <path d="m1336.7,322.19c-5.53-.74-13.47-3.01-13.6-9.8.77.05,1.52.11,2.27.17-.04,3.95,4.27,5.95,7.59,7.03,1.29.4,2.66.72,3.98.92,1.07.18.87,1.78-.23,1.68Z" style="fill: #7a68ed; stroke-width: 0px;"/>
      <path d="m1316,312.26c-.18,5.12-5.53,7.57-9.87,8.38-1.42.29-2.82.47-4.3.54-.47.02-.86-.34-.88-.81-.03-.47.34-.86.8-.88,4.36-.52,11.56-1.88,11.88-7.27.78-.02,1.57-.03,2.36-.04,0,.03,0,.05,0,.08Z" style="fill: #7a68ed; stroke-width: 0px;"/>
      <g>
        <path d="m1338.23,201.71c-.16,0-.33-.03-.49-.1-.63-.27-.93-1.01-.66-1.64l27.49-64.36c.27-.63,1-.93,1.64-.66.63.27.93,1.01.66,1.64l-27.49,64.36c-.2.48-.66.76-1.15.76Z" style="fill: #5141ba; stroke-width: 0px;"/>
        <path d="m1328.44,164.23l40.23,17.27c.82.35,1.77-.1,2.03-.95,8.91-29.31-28.82-41.53-42.95-18.47-.48.78-.15,1.8.69,2.16Z" style="fill: #f55d76; fill-rule: evenodd; stroke-width: 0px;"/>
        <path d="m1330.55,165.14c13.4-19.3,41.98-9.7,35.68,15.31l-35.68-15.31Z" style="fill: #f5b14c; fill-rule: evenodd; stroke-width: 0px;"/>
        <path d="m1350.07,173.99c-.47,0-.89-.26-1.11-.67l-8.55-16.46c-.32-.61-.08-1.37.53-1.69.61-.32,1.37-.08,1.69.53l7.34,14.14,5.94-13.61c.28-.63,1.01-.92,1.65-.65.63.28.92,1.01.65,1.65l-6.99,16.01c-.19.44-.62.73-1.1.75-.01,0-.03,0-.04,0Z" style="fill: #d97c2b; stroke-width: 0px;"/>
        <path d="m1350.07,173.99c-.62,0-1.16-.47-1.24-1.1-.08-.69.41-1.31,1.09-1.39l16.87-2.04c.67-.08,1.31.41,1.39,1.09.08.69-.41,1.31-1.09,1.39l-16.87,2.04c-.05,0-.1,0-.15,0Z" style="fill: #d97c2b; stroke-width: 0px;"/>
        <circle cx="1360.98" cy="146.95" r="6.37" style="fill: #f55d76; stroke-width: 0px;"/>
        <path d="m1366.39,181.09c-.09,0-.19-.01-.28-.03-.67-.16-1.09-.83-.94-1.5,2.74-11.83-2.81-19.03-8.91-21.82-9.66-4.42-19.37.83-24.3,7.59-.41.56-1.19.68-1.75.27s-.68-1.19-.27-1.75c5.51-7.55,16.43-13.39,27.36-8.39,7,3.2,13.38,11.36,10.3,24.66-.13.58-.65.97-1.22.97Z" style="fill: #c73a51; stroke-width: 0px;"/>
      </g>
      <path d="m1307.23,200.59c-1.32.15-3.56.16-5.67-.93-.31-.16-.51-.47-.56-.81l-3.46-21.79c1.95.54,4.07,1.03,6.34,1.45l4.3,20.74c.13.64-.31,1.26-.96,1.34Z" style="fill: #5141ba; fill-rule: evenodd; stroke-width: 0px;"/>
      <path d="m1303.88,178.51c-2.27-.43-4.39-.91-6.34-1.45l-.53-3.32c1.79.65,3.9,1.24,6.24,1.77l.63,3Z" style="fill: #a091ff; fill-rule: evenodd; stroke-width: 0px;"/>
      <path d="m1303.26,175.51c-2.34-.52-4.45-1.12-6.24-1.77l-1.58-9.98-.43-2.71-.19-1.2c-.04-.22-.11-1.28-.26-1.45l-1.19-1.36-1.31,1.23c-.22.2-.57.14-.71-.12l-.86-1.61-29.67,3.34c-3.81-4.23-.75-8.16-.75-8.16,0,0,30.03-3.34,30.32-3.02l1.19,1.29,2.06-.84c.39-.16.84,0,1.05.36l.75,1.3,1.76-.29c.48-.08.93.25,1.02.72l1.81,8.69.5,2.4,2.73,13.19Z" style="fill: #7a68ed; fill-rule: evenodd; stroke-width: 0px;"/>
    </g>
    <g>
      <path d="m1516.29,300.24c-.15,5.34-13.18,9.29-29.1,8.83-15.91-.47-28.69-5.17-28.53-10.51.14-4.78,10.57-8.45,24.16-8.84.66-.01,1.33-.03,2.01-.03.97,0,1.94.01,2.93.04,1.05.03,2.07.08,3.08.14.65.04,1.29.09,1.92.15,13.51,1.19,23.67,5.45,23.53,10.22Z" style="fill: #a091ff; fill-rule: evenodd; stroke-width: 0px;"/>
      <path d="m1488.7,257.41c22.89.67,36.72-14.59,35.52-35.59-1.09-19.15-11.41-27.17-1.04-49.5l-63.96-1.86c9.06,22.9-1.71,30.3-3.92,49.36-2.41,20.9,10.51,36.94,33.39,37.6Z" style="fill: #a091ff; fill-rule: evenodd; stroke-width: 0px;"/>
      <path d="m1488.9,250.59c19.25.56,30.9-12.27,29.89-29.95-.58-10.03-4.16-16.43-4.67-24.37h0c-.02-.33-.04-.65-.05-.97-1.01-3.41-11.05-6.36-23.36-6.71-12.34-.36-22.55,2.01-23.72,5.37-.02.29-.06.59-.1.89-.96,7.92-4.92,14.1-6.08,24.1-2.03,17.59,8.85,31.07,28.1,31.64Z" style="fill: #f55d76; fill-rule: evenodd; stroke-width: 0px;"/>
      <ellipse cx="1491.28" cy="168.65" rx="9.4" ry="33.44" transform="translate(1279.29 1654.39) rotate(-88.33)" style="fill: #e9e6ff; stroke-width: 0px;"/>
      <ellipse cx="1491.3" cy="168.45" rx="7.31" ry="28.49" transform="translate(1279.5 1654.21) rotate(-88.33)" style="fill: #a091ff; stroke-width: 0px;"/>
      <ellipse cx="1490.51" cy="195.24" rx="6.65" ry="23.65" transform="translate(1251.95 1679.43) rotate(-88.33)" style="fill: #ff969c; stroke-width: 0px;"/>
      <g>
        <ellipse cx="1511.59" cy="222.48" rx="3.52" ry="7.92" transform="translate(-10.48 89.42) rotate(-3.38)" style="fill: #ffd6d9; stroke-width: 0px;"/>
        <ellipse cx="1509.28" cy="207.32" rx="2.3" ry="3.16" transform="translate(-13.4 255.78) rotate(-9.64)" style="fill: #ffd6d9; stroke-width: 0px;"/>
      </g>
      <path d="m1490.83,289.9s.42-14.5.62-21.14.35-7.72,7.42-12.37l-20.13-.59c6.8,5.05,6.89,6.14,6.69,12.78-.19,6.64-.62,21.14-.62,21.14l6.01.18Z" style="fill: #a091ff; fill-rule: evenodd; stroke-width: 0px;"/>
      <path d="m1502.37,298.18c-4.69-.63-11.42-2.55-11.53-8.31.65.04,1.29.09,1.92.15-.03,3.35,3.62,5.05,6.43,5.96,1.1.34,2.26.61,3.37.78.91.15.73,1.51-.19,1.42Z" style="fill: #7a68ed; stroke-width: 0px;"/>
      <path d="m1484.82,289.76c-.15,4.34-4.69,6.42-8.37,7.11-1.21.24-2.39.4-3.65.46-.4.02-.73-.29-.74-.69-.02-.4.28-.73.68-.75,3.7-.44,9.8-1.6,10.07-6.17.66-.01,1.33-.03,2.01-.03,0,.02,0,.04,0,.06Z" style="fill: #7a68ed; stroke-width: 0px;"/>
      <g>
        <path d="m1503.67,195.9c-.16,0-.33-.03-.49-.1-.63-.27-.93-1.01-.66-1.64l23.31-54.58c.27-.63,1-.93,1.64-.66.63.27.93,1.01.66,1.64l-23.31,54.58c-.2.48-.66.76-1.15.76Z" style="fill: #5141ba; stroke-width: 0px;"/>
        <path d="m1495.37,163.93l34.12,14.64c.7.3,1.5-.08,1.72-.81,7.55-24.86-24.44-35.22-36.42-15.67-.4.66-.13,1.53.58,1.83Z" style="fill: #f55d76; fill-rule: evenodd; stroke-width: 0px;"/>
        <path d="m1497.16,164.7c11.37-16.37,35.6-8.22,30.26,12.99l-30.26-12.99Z" style="fill: #f5b14c; fill-rule: evenodd; stroke-width: 0px;"/>
        <path d="m1513.71,172.39c-.47,0-.89-.26-1.11-.67l-7.25-13.96c-.32-.61-.08-1.37.53-1.69.61-.32,1.37-.08,1.69.53l6.04,11.63,4.88-11.17c.28-.63,1.01-.92,1.65-.65.63.28.92,1.01.65,1.65l-5.92,13.57c-.19.44-.62.73-1.1.75-.01,0-.03,0-.04,0Z" style="fill: #d97c2b; stroke-width: 0px;"/>
        <path d="m1513.71,172.39c-.62,0-1.16-.47-1.24-1.1-.08-.69.41-1.31,1.09-1.39l14.31-1.73c.68-.08,1.31.41,1.39,1.09.08.69-.41,1.31-1.09,1.39l-14.31,1.73c-.05,0-.1,0-.15,0Z" style="fill: #d97c2b; stroke-width: 0px;"/>
        <circle cx="1522.97" cy="149.27" r="5.4" style="fill: #f55d76; stroke-width: 0px;"/>
        <path d="m1527.55,178.41c-.09,0-.19-.01-.28-.03-.67-.16-1.09-.83-.94-1.5,2.29-9.92-2.34-15.95-7.45-18.29-8.09-3.7-16.24.71-20.38,6.37-.41.56-1.19.68-1.75.27s-.68-1.19-.27-1.75c4.72-6.46,14.06-11.46,23.43-7.17,6,2.75,11.48,9.74,8.84,21.13-.13.58-.65.97-1.22.97Z" style="fill: #c73a51; stroke-width: 0px;"/>
      </g>
      <path d="m1477.38,195.07c-1.12.13-3.02.14-4.81-.79-.26-.13-.43-.4-.48-.68l-2.93-18.48c1.65.46,3.45.87,5.38,1.23l3.65,17.59c.11.54-.26,1.07-.81,1.14Z" style="fill: #5141ba; fill-rule: evenodd; stroke-width: 0px;"/>
      <path d="m1474.54,176.34c-1.92-.36-3.73-.77-5.38-1.23l-.45-2.81c1.52.55,3.31,1.05,5.29,1.5l.53,2.55Z" style="fill: #a091ff; fill-rule: evenodd; stroke-width: 0px;"/>
      <path d="m1474.01,173.79c-1.99-.45-3.77-.95-5.29-1.5l-1.34-8.46-.37-2.3-.16-1.02c-.03-.19-.09-1.08-.22-1.23l-1.01-1.16-1.11,1.04c-.18.17-.48.12-.6-.1l-.73-1.36-25.16,2.83c-3.23-3.59-.64-6.92-.64-6.92,0,0,25.47-2.83,25.72-2.56l1.01,1.09,1.75-.71c.33-.14.71,0,.89.3l.64,1.1,1.49-.25c.41-.07.79.21.86.61l1.53,7.37.42,2.04,2.32,11.18Z" style="fill: #7a68ed; fill-rule: evenodd; stroke-width: 0px;"/>
    </g>
  </g>
  <g>
    <g>
      <path d="m442.84,345.22c.21,7.41,18.3,12.9,40.39,12.26,22.09-.65,39.83-7.18,39.61-14.59-.19-6.63-14.67-11.73-33.53-12.27-.92-.02-1.85-.04-2.78-.05-1.35,0-2.7.02-4.07.06-1.45.04-2.87.11-4.28.2-.9.06-1.79.13-2.67.2-18.75,1.65-32.86,7.57-32.66,14.19Z" style="fill: #a091ff; fill-rule: evenodd; stroke-width: 0px;"/>
      <path d="m481.14,285.76c-31.77.93-50.98-20.25-49.31-49.41,1.51-26.59,15.84-37.72,1.44-68.71l88.78-2.59c-12.57,31.78,2.37,42.06,5.44,68.51,3.35,29.01-14.59,51.27-46.35,52.19Z" style="fill: #a091ff; fill-rule: evenodd; stroke-width: 0px;"/>
      <path d="m480.86,276.29c-26.73.78-42.89-17.03-41.49-41.57.8-13.92,5.77-22.81,6.49-33.82v-.02c.03-.44.05-.88.07-1.33,1.4-4.74,15.34-8.82,32.43-9.32s31.31,2.79,32.93,7.46c.03.41.08.82.14,1.23,1.33,10.99,6.83,19.58,8.45,33.46,2.82,24.41-12.28,43.13-39,43.91Z" style="fill: #f55d76; fill-rule: evenodd; stroke-width: 0px;"/>
      <ellipse cx="477.55" cy="162.55" rx="46.42" ry="13.05" transform="translate(-4.53 13.97) rotate(-1.67)" style="fill: #e9e6ff; stroke-width: 0px;"/>
      <ellipse cx="477.53" cy="162.27" rx="39.54" ry="10.15" transform="translate(-4.52 13.97) rotate(-1.67)" style="fill: #a091ff; stroke-width: 0px;"/>
      <ellipse cx="478.62" cy="199.46" rx="32.83" ry="9.23" transform="translate(-5.6 14.02) rotate(-1.67)" style="fill: #ff969c; stroke-width: 0px;"/>
      <g>
        <ellipse cx="449.36" cy="237.27" rx="10.99" ry="4.89" transform="translate(186.04 671.87) rotate(-86.62)" style="fill: #ffd6d9; stroke-width: 0px;"/>
        <ellipse cx="452.56" cy="216.22" rx="4.39" ry="3.2" transform="translate(163.57 626.16) rotate(-80.36)" style="fill: #ffd6d9; stroke-width: 0px;"/>
      </g>
      <path d="m478.17,330.86s-.59-20.13-.85-29.35c-.27-9.22-.48-10.72-10.31-17.17l27.94-.81c-9.43,7.01-9.56,8.53-9.29,17.74.27,9.22.85,29.35.85,29.35l-8.35.24Z" style="fill: #a091ff; fill-rule: evenodd; stroke-width: 0px;"/>
      <path d="m462.15,342.36c6.51-.87,15.85-3.54,16.01-11.53-.9.06-1.79.13-2.67.2.04,4.65-5.03,7-8.93,8.27-1.52.47-3.13.85-4.68,1.08-1.26.21-1.02,2.1.27,1.98Z" style="fill: #7a68ed; stroke-width: 0px;"/>
      <path d="m486.51,330.66c.21,6.02,6.51,8.91,11.61,9.87,1.68.34,3.32.55,5.06.64.55.02,1.01-.4,1.03-.95.03-.55-.39-1.01-.94-1.03-5.13-.61-13.61-2.21-13.98-8.56-.92-.02-1.85-.04-2.78-.05,0,.03,0,.06,0,.09Z" style="fill: #7a68ed; stroke-width: 0px;"/>
      <g>
        <path d="m460.35,200.67c-.49,0-.95-.28-1.15-.76l-32.35-75.76c-.27-.63.02-1.37.66-1.64.63-.27,1.37.02,1.64.66l32.35,75.76c.27.63-.02,1.37-.66,1.64-.16.07-.33.1-.49.1Z" style="fill: #5141ba; stroke-width: 0px;"/>
        <path d="m471.88,156.77l-47.36,20.33c-.97.42-2.08-.11-2.38-1.12-10.48-34.5,33.93-48.88,50.55-21.74.56.91.18,2.12-.81,2.54Z" style="fill: #f55d76; fill-rule: evenodd; stroke-width: 0px;"/>
        <path d="m469.39,157.84c-15.78-22.72-49.42-11.41-42,18.03l42-18.03Z" style="fill: #f5b14c; fill-rule: evenodd; stroke-width: 0px;"/>
        <path d="m446.42,168.04s-.03,0-.04,0c-.48-.02-.91-.31-1.1-.75l-8.22-18.84c-.28-.63.01-1.37.65-1.65.63-.28,1.37.01,1.65.65l7.18,16.44,8.86-17.05c.32-.61,1.07-.85,1.69-.53.61.32.85,1.07.53,1.69l-10.06,19.38c-.22.42-.64.67-1.11.67Z" style="fill: #d97c2b; stroke-width: 0px;"/>
        <path d="m446.42,168.04s-.1,0-.15,0l-19.86-2.4c-.69-.08-1.17-.71-1.09-1.39.08-.69.71-1.17,1.39-1.09l19.86,2.4c.69.08,1.17.71,1.09,1.39-.08.63-.62,1.1-1.24,1.1Z" style="fill: #d97c2b; stroke-width: 0px;"/>
        <circle cx="433.57" cy="136.43" r="7.5" style="fill: #f55d76; stroke-width: 0px;"/>
        <path d="m427.21,176.4c-.57,0-1.08-.39-1.22-.97-3.59-15.52,3.85-25.04,12.01-28.77,12.76-5.84,25.5.99,31.94,9.8.41.56.29,1.34-.27,1.75-.56.41-1.34.29-1.75-.27-5.86-8.02-17.39-14.26-28.88-9-7.26,3.32-13.86,11.88-10.61,25.94.16.67-.26,1.34-.94,1.5-.09.02-.19.03-.28.03Z" style="fill: #c73a51; stroke-width: 0px;"/>
      </g>
      <path d="m496.84,199.22c1.56.18,4.19.19,6.67-1.1.36-.19.6-.55.66-.95l4.07-25.66c-2.29.64-4.79,1.21-7.46,1.71l-5.07,24.42c-.16.75.36,1.49,1.13,1.58Z" style="fill: #5141ba; fill-rule: evenodd; stroke-width: 0px;"/>
      <path d="m500.78,173.23c2.67-.5,5.17-1.07,7.46-1.71l.62-3.91c-2.11.77-4.59,1.46-7.35,2.08l-.74,3.54Z" style="fill: #a091ff; fill-rule: evenodd; stroke-width: 0px;"/>
      <path d="m501.52,169.69c2.76-.62,5.24-1.32,7.35-2.08l1.86-11.75.51-3.19.23-1.41c.04-.26.13-1.5.31-1.7l1.4-1.61,1.54,1.44c.25.23.67.17.84-.14l1.01-1.89,34.93,3.93c4.48-4.98.88-9.61.88-9.61,0,0-35.35-3.93-35.7-3.56l-1.41,1.52-2.43-.99c-.46-.19-.99,0-1.24.42l-.89,1.53-2.08-.34c-.56-.09-1.1.29-1.2.85l-2.12,10.23-.58,2.83-3.22,15.52Z" style="fill: #7a68ed; fill-rule: evenodd; stroke-width: 0px;"/>
    </g>
    <g>
      <path d="m248.13,324.62c.18,6.29,15.54,10.96,34.31,10.42,18.77-.55,33.84-6.1,33.65-12.4-.16-5.64-12.47-9.97-28.49-10.42-.78-.02-1.57-.03-2.36-.04-1.14,0-2.29.01-3.46.05-1.23.04-2.44.09-3.64.17-.77.05-1.52.11-2.27.17-15.93,1.4-27.92,6.43-27.74,12.06Z" style="fill: #a091ff; fill-rule: evenodd; stroke-width: 0px;"/>
      <path d="m280.67,274.11c-26.99.79-43.31-17.2-41.89-41.97,1.29-22.58,13.46-32.04,1.22-58.37l75.42-2.2c-10.68,27,2.01,35.73,4.62,58.2,2.85,24.65-12.4,43.55-39.38,44.34Z" style="fill: #a091ff; fill-rule: evenodd; stroke-width: 0px;"/>
      <path d="m280.44,266.07c-22.71.66-36.44-14.47-35.25-35.31.68-11.83,4.9-19.38,5.51-28.73v-.02c.02-.37.05-.75.06-1.13,1.19-4.02,13.03-7.5,27.55-7.92s26.6,2.37,27.97,6.33c.03.35.07.7.11,1.04,1.13,9.34,5.8,16.63,7.17,28.42,2.4,20.74-10.43,36.64-33.13,37.3Z" style="fill: #f55d76; fill-rule: evenodd; stroke-width: 0px;"/>
      <ellipse cx="277.62" cy="169.44" rx="39.43" ry="11.09" transform="translate(-4.82 8.15) rotate(-1.67)" style="fill: #e9e6ff; stroke-width: 0px;"/>
      <ellipse cx="277.61" cy="169.21" rx="33.59" ry="8.63" transform="translate(-4.81 8.15) rotate(-1.67)" style="fill: #a091ff; stroke-width: 0px;"/>
      <ellipse cx="278.53" cy="200.8" rx="27.89" ry="7.84" transform="translate(-5.73 8.19) rotate(-1.67)" style="fill: #ff969c; stroke-width: 0px;"/>
      <g>
        <ellipse cx="253.68" cy="232.92" rx="9.33" ry="4.15" transform="translate(6.22 472.44) rotate(-86.62)" style="fill: #ffd6d9; stroke-width: 0px;"/>
        <ellipse cx="256.39" cy="215.04" rx="3.73" ry="2.71" transform="translate(1.44 431.78) rotate(-80.36)" style="fill: #ffd6d9; stroke-width: 0px;"/>
      </g>
      <path d="m278.15,312.43s-.5-17.1-.73-24.93c-.23-7.83-.41-9.11-8.75-14.59l23.74-.69c-8.01,5.96-8.12,7.24-7.89,15.07.23,7.83.73,24.93.73,24.93l-7.09.21Z" style="fill: #a091ff; fill-rule: evenodd; stroke-width: 0px;"/>
      <path d="m264.54,322.19c5.53-.74,13.47-3.01,13.6-9.8-.77.05-1.52.11-2.27.17.04,3.95-4.27,5.95-7.59,7.03-1.29.4-2.66.72-3.98.92-1.07.18-.87,1.78.23,1.68Z" style="fill: #7a68ed; stroke-width: 0px;"/>
      <path d="m285.24,312.26c.18,5.12,5.53,7.57,9.87,8.38,1.42.29,2.82.47,4.3.54.47.02.86-.34.88-.81.03-.47-.34-.86-.8-.88-4.36-.52-11.56-1.88-11.88-7.27-.78-.02-1.57-.03-2.36-.04,0,.03,0,.05,0,.08Z" style="fill: #7a68ed; stroke-width: 0px;"/>
      <g>
        <path d="m263.01,201.71c-.49,0-.95-.28-1.15-.76l-27.49-64.36c-.27-.63.02-1.37.66-1.64.64-.27,1.37.02,1.64.66l27.49,64.36c.27.63-.02,1.37-.66,1.64-.16.07-.33.1-.49.1Z" style="fill: #5141ba; stroke-width: 0px;"/>
        <path d="m272.81,164.23l-40.23,17.27c-.82.35-1.77-.1-2.03-.95-8.91-29.31,28.82-41.53,42.95-18.47.48.78.15,1.8-.69,2.16Z" style="fill: #f55d76; fill-rule: evenodd; stroke-width: 0px;"/>
        <path d="m270.69,165.14c-13.4-19.3-41.98-9.7-35.68,15.31l35.68-15.31Z" style="fill: #f5b14c; fill-rule: evenodd; stroke-width: 0px;"/>
        <path d="m251.17,173.99s-.03,0-.04,0c-.48-.02-.91-.31-1.1-.75l-6.99-16.01c-.28-.63.01-1.37.65-1.65.63-.28,1.37.01,1.65.65l5.94,13.61,7.34-14.14c.32-.61,1.07-.85,1.69-.53.61.32.85,1.07.53,1.69l-8.55,16.46c-.22.42-.64.67-1.11.67Z" style="fill: #d97c2b; stroke-width: 0px;"/>
        <path d="m251.18,173.99s-.1,0-.15,0l-16.87-2.04c-.69-.08-1.17-.71-1.09-1.39.08-.69.7-1.17,1.39-1.09l16.87,2.04c.69.08,1.17.71,1.09,1.39-.08.63-.62,1.1-1.24,1.1Z" style="fill: #d97c2b; stroke-width: 0px;"/>
        <circle cx="240.26" cy="146.95" r="6.37" style="fill: #f55d76; stroke-width: 0px;"/>
        <path d="m234.86,181.09c-.57,0-1.08-.39-1.22-.97-3.08-13.3,3.31-21.46,10.3-24.66,10.93-5,21.85.84,27.36,8.39.41.56.29,1.34-.27,1.75-.56.41-1.34.29-1.75-.27-4.93-6.75-14.64-12.01-24.3-7.59-6.1,2.79-11.65,9.99-8.91,21.82.16.67-.26,1.34-.94,1.5-.09.02-.19.03-.28.03Z" style="fill: #c73a51; stroke-width: 0px;"/>
      </g>
      <path d="m294.01,200.59c1.32.15,3.56.16,5.67-.93.31-.16.51-.47.56-.81l3.46-21.79c-1.95.54-4.07,1.03-6.34,1.45l-4.3,20.74c-.13.64.31,1.26.96,1.34Z" style="fill: #5141ba; fill-rule: evenodd; stroke-width: 0px;"/>
      <path d="m297.36,178.51c2.27-.43,4.39-.91,6.34-1.45l.53-3.32c-1.79.65-3.9,1.24-6.24,1.77l-.63,3Z" style="fill: #a091ff; fill-rule: evenodd; stroke-width: 0px;"/>
      <path d="m297.98,175.51c2.34-.52,4.45-1.12,6.24-1.77l1.58-9.98.43-2.71.19-1.2c.04-.22.11-1.28.26-1.45l1.19-1.36,1.31,1.23c.22.2.57.14.71-.12l.86-1.61,29.67,3.34c3.81-4.23.75-8.16.75-8.16,0,0-30.03-3.34-30.32-3.02l-1.19,1.29-2.06-.84c-.39-.16-.84,0-1.05.36l-.75,1.3-1.76-.29c-.48-.08-.93.25-1.02.72l-1.81,8.69-.5,2.4-2.73,13.19Z" style="fill: #7a68ed; fill-rule: evenodd; stroke-width: 0px;"/>
    </g>
    <g>
      <path d="m84.95,300.24c.15,5.34,13.18,9.29,29.1,8.83,15.91-.47,28.69-5.17,28.53-10.51-.14-4.78-10.57-8.45-24.16-8.84-.66-.01-1.33-.03-2.01-.03-.97,0-1.94.01-2.93.04-1.05.03-2.07.08-3.08.14-.65.04-1.29.09-1.92.15-13.51,1.19-23.67,5.45-23.53,10.22Z" style="fill: #a091ff; fill-rule: evenodd; stroke-width: 0px;"/>
      <path d="m112.55,257.41c-22.89.67-36.72-14.59-35.52-35.59,1.09-19.15,11.41-27.17,1.04-49.5l63.96-1.86c-9.06,22.9,1.71,30.3,3.92,49.36,2.41,20.9-10.51,36.94-33.39,37.6Z" style="fill: #a091ff; fill-rule: evenodd; stroke-width: 0px;"/>
      <path d="m112.35,250.59c-19.25.56-30.9-12.27-29.89-29.95.58-10.03,4.16-16.43,4.67-24.37h0c.02-.33.04-.65.05-.97,1.01-3.41,11.05-6.36,23.36-6.71,12.34-.36,22.55,2.01,23.72,5.37.02.29.06.59.1.89.96,7.92,4.92,14.1,6.08,24.1,2.03,17.59-8.85,31.07-28.1,31.64Z" style="fill: #f55d76; fill-rule: evenodd; stroke-width: 0px;"/>
      <ellipse cx="109.96" cy="168.65" rx="33.44" ry="9.4" transform="translate(-4.86 3.27) rotate(-1.67)" style="fill: #e9e6ff; stroke-width: 0px;"/>
      <ellipse cx="109.95" cy="168.45" rx="28.49" ry="7.31" transform="translate(-4.86 3.27) rotate(-1.67)" style="fill: #a091ff; stroke-width: 0px;"/>
      <ellipse cx="110.73" cy="195.24" rx="23.65" ry="6.65" transform="translate(-5.64 3.31) rotate(-1.67)" style="fill: #ff969c; stroke-width: 0px;"/>
      <g>
        <ellipse cx="89.65" cy="222.48" rx="7.92" ry="3.52" transform="translate(-137.71 298.87) rotate(-86.62)" style="fill: #ffd6d9; stroke-width: 0px;"/>
        <ellipse cx="91.96" cy="207.32" rx="3.16" ry="2.3" transform="translate(-127.83 263.24) rotate(-80.36)" style="fill: #ffd6d9; stroke-width: 0px;"/>
      </g>
      <path d="m110.41,289.9s-.42-14.5-.62-21.14c-.19-6.64-.35-7.72-7.42-12.37l20.13-.59c-6.8,5.05-6.89,6.14-6.69,12.78.19,6.64.62,21.14.62,21.14l-6.01.18Z" style="fill: #a091ff; fill-rule: evenodd; stroke-width: 0px;"/>
      <path d="m98.87,298.18c4.69-.63,11.42-2.55,11.53-8.31-.65.04-1.29.09-1.92.15.03,3.35-3.62,5.05-6.43,5.96-1.1.34-2.26.61-3.37.78-.91.15-.73,1.51.19,1.42Z" style="fill: #7a68ed; stroke-width: 0px;"/>
      <path d="m116.42,289.76c.15,4.34,4.69,6.42,8.37,7.11,1.21.24,2.39.4,3.65.46.4.02.73-.29.74-.69.02-.4-.28-.73-.68-.75-3.7-.44-9.8-1.6-10.07-6.17-.66-.01-1.33-.03-2.01-.03,0,.02,0,.04,0,.06Z" style="fill: #7a68ed; stroke-width: 0px;"/>
      <g>
        <path d="m97.57,195.9c-.49,0-.95-.28-1.15-.76l-23.31-54.58c-.27-.63.02-1.37.66-1.64.63-.27,1.37.02,1.64.66l23.31,54.58c.27.63-.02,1.37-.66,1.64-.16.07-.33.1-.49.1Z" style="fill: #5141ba; stroke-width: 0px;"/>
        <path d="m105.87,163.93l-34.12,14.64c-.7.3-1.5-.08-1.72-.81-7.55-24.86,24.44-35.22,36.42-15.67.4.66.13,1.53-.58,1.83Z" style="fill: #f55d76; fill-rule: evenodd; stroke-width: 0px;"/>
        <path d="m104.08,164.7c-11.37-16.37-35.6-8.22-30.26,12.99l30.26-12.99Z" style="fill: #f5b14c; fill-rule: evenodd; stroke-width: 0px;"/>
        <path d="m87.53,172.39s-.03,0-.04,0c-.48-.02-.91-.31-1.1-.75l-5.92-13.57c-.28-.63.01-1.37.65-1.65.63-.28,1.37.01,1.65.65l4.88,11.17,6.04-11.63c.32-.61,1.07-.85,1.69-.53.61.32.85,1.07.53,1.69l-7.25,13.96c-.22.42-.64.67-1.11.67Z" style="fill: #d97c2b; stroke-width: 0px;"/>
        <path d="m87.53,172.39s-.1,0-.15,0l-14.31-1.73c-.69-.08-1.17-.71-1.09-1.39.08-.69.71-1.17,1.39-1.09l14.31,1.73c.69.08,1.17.71,1.09,1.39-.08.63-.62,1.1-1.24,1.1Z" style="fill: #d97c2b; stroke-width: 0px;"/>
        <circle cx="78.28" cy="149.27" r="5.4" style="fill: #f55d76; stroke-width: 0px;"/>
        <path d="m73.69,178.41c-.57,0-1.08-.39-1.22-.97-2.63-11.39,2.84-18.38,8.84-21.13,9.37-4.29,18.71.71,23.43,7.17.41.56.29,1.34-.27,1.75-.56.41-1.34.29-1.75-.27-4.14-5.67-12.28-10.08-20.38-6.37-5.11,2.34-9.74,8.37-7.45,18.29.16.67-.26,1.34-.94,1.5-.09.02-.19.03-.28.03Z" style="fill: #c73a51; stroke-width: 0px;"/>
      </g>
      <path d="m123.86,195.07c1.12.13,3.02.14,4.81-.79.26-.13.43-.4.48-.68l2.93-18.48c-1.65.46-3.45.87-5.38,1.23l-3.65,17.59c-.11.54.26,1.07.81,1.14Z" style="fill: #5141ba; fill-rule: evenodd; stroke-width: 0px;"/>
      <path d="m126.7,176.34c1.92-.36,3.73-.77,5.38-1.23l.45-2.81c-1.52.55-3.31,1.05-5.29,1.5l-.53,2.55Z" style="fill: #a091ff; fill-rule: evenodd; stroke-width: 0px;"/>
      <path d="m127.23,173.79c1.99-.45,3.77-.95,5.29-1.5l1.34-8.46.37-2.3.16-1.02c.03-.19.09-1.08.22-1.23l1.01-1.16,1.11,1.04c.18.17.48.12.6-.1l.73-1.36,25.16,2.83c3.23-3.59.64-6.92.64-6.92,0,0-25.47-2.83-25.72-2.56l-1.01,1.09-1.75-.71c-.33-.14-.71,0-.89.3l-.64,1.1-1.49-.25c-.41-.07-.79.21-.86.61l-1.53,7.37-.42,2.04-2.32,11.18Z" style="fill: #7a68ed; fill-rule: evenodd; stroke-width: 0px;"/>
    </g>
  </g>
  <g>
    <path d="m892.05,338.26c-1.27-5.45-36.59-10.67-36-6.49s37.65,13.58,36,6.49Z" style="fill: #8747cc; fill-rule: evenodd; stroke-width: 0px;"/>
    <g>
      <path d="m970.67,350.91c19.11-3.43,33.64-38.4,18.77-72.73-18.69-43.13-59.19-59.67-60.12-63.04s55.12,11.7,74.99,62.47c15.58,39.82-5.99,75.81-29.85,80.49-23.86,4.68-22.89-3.76-3.78-7.19Z" style="fill: #bc83fb; stroke-width: 0px;"/>
      <path d="m793.64,206.19c57.07,12.11,79.45,45.11,106.47,91.16s64.74,66.46,94.28,45.13c24.78-17.9,9.91-64.86,9.91-64.86,19.09,53.68,0,92.16-35.13,93.98-88.18,4.57-95.17-99.48-171.46-123.67l-4.06-41.73Z" style="fill: #8747cc; stroke-width: 0px;"/>
      <ellipse cx="906.3" cy="331.78" rx="7.59" ry="14.89" transform="translate(-4.13 652.06) rotate(-39.49)" style="fill: #d8b7fb; stroke-width: 0px;"/>
      <ellipse cx="945.17" cy="357.8" rx="6.99" ry="11.63" transform="translate(369.23 1188.25) rotate(-75.99)" style="fill: #d8b7fb; stroke-width: 0px;"/>
      <ellipse cx="986.69" cy="358.1" rx="9.73" ry="5.19" transform="translate(-42.94 562.2) rotate(-31.16)" style="fill: #d8b7fb; stroke-width: 0px;"/>
    </g>
    <g>
      <path d="m768.86,296.35c-3.23,76.15,13.96,130.02,38.73,135.68,19.82,4.53,32.36-7.61,9.24-4.26-24.42-48.25-8.27-131.09-8.27-131.09-39.47-45-38.57-27.12-39.7-.33Z" style="fill: #6b36a8; stroke-width: 0px;"/>
      <ellipse cx="793.01" cy="396.46" rx="5.26" ry="9.86" transform="translate(-62.35 163.22) rotate(-11.31)" style="fill: #bc83fb; stroke-width: 0px;"/>
      <ellipse cx="785.41" cy="356.96" rx="7.02" ry="13.15" transform="translate(-27.68 68.57) rotate(-4.91)" style="fill: #bc83fb; stroke-width: 0px;"/>
      <ellipse cx="803.37" cy="423.67" rx="3.82" ry="5.93" transform="translate(-103.99 463.7) rotate(-30.33)" style="fill: #bc83fb; stroke-width: 0px;"/>
    </g>
    <path d="m742.53,238.48l-.3,7.17-2.93,70.93c-14.77,83.38-59.92,110.51-96.97,116.23-10.8,1.68-20.92,1.53-29.38.42-3.35-.43-6.44-1.02-9.21-1.7-8.41-2.07-17.01-5.36-24.65-8.94-23.12-10.81-37.59-24.21-12.33-14.11,10.69,4.27,23.71,6.9,37.35,7.16,7.5.15,15.2-.42,22.79-1.83,21.98-4.06,43.15-15.13,56.59-36.06,16.75-26.08,12.53-62.51,21.89-93.56,4.68-15.48,12.73-29.62,28.44-40.46,2.67-1.85,5.57-3.6,8.71-5.25Z" style="fill: #bc83fb; stroke-width: 0px;"/>
    <path d="m644.18,426.47l-1.85,6.34c-10.8,1.68-20.92,1.53-29.38.42-3.17-4.59-6.46-10.49-8.84-17.59,7.5.15,15.2-.42,22.79-1.83l17.28,12.66Z" style="fill: #8747cc; stroke-width: 0px;"/>
    <path d="m742.53,238.48l-.3,7.17-2.93,70.93c-20.78,117.3-101.7,123.27-135.56,114.95-8.41-2.07-17.01-5.36-24.65-8.94,58.51,17.26,138.55-8.07,126.3-138.39h-.01c4.68-15.49,12.73-29.63,28.44-40.47,2.67-1.85,5.57-3.6,8.71-5.25Z" style="fill: #8747cc; stroke-width: 0px;"/>
    <path d="m641.91,82.43c-11.71,28.59-27.02,55.83,9.43,62.66.47.09.97.03,1.41-.16,33.74-14.7,20.08-44.32-7.25-63.55-1.26-.89-3.01-.38-3.59,1.04Z" style="fill: #bc83fb; stroke-width: 0px;"/>
    <ellipse cx="719.47" cy="347" rx="16.34" ry="7.44" transform="translate(176.9 933.23) rotate(-72.96)" style="fill: #d8b7fb; stroke-width: 0px;"/>
    <path d="m746.22,277.06c-7.58,23.8-20.85,47.46-43.13,60.3-23.29,13.49-52.29,10.81-72.46-7.1-13.51-11.89-20.15-27.12-21.96-44.81-7.69-60.89,47.36-104.16,42.6-164.21-.54-8.02-2.03-15.97-4.16-23.8-.15-.56.18-1.14.74-1.3.53-.14,1.08.15,1.27.66,2.84,7.75,4.79,15.88,5.6,24.16,2.66,25-6.34,49.38-16.48,71.75-13.89,30.05-29.73,61.14-23.99,95.08.39,2.28.99,5.04,1.45,7.32.88,3.22,1.96,6.64,3.31,9.68.42.85,1.51,3.11,1.91,3.94.47.82,1.75,2.92,2.24,3.76,1.8,2.79,4.02,5.57,6.26,8.04.67.69,2.42,2.37,3.1,3.07,18.44,16.81,45.29,19.9,67.06,7.59,20.97-11.75,33.73-33.74,42.29-55.61,1.04-2.8,5.26-1.42,4.35,1.5h0Z" style="fill: #6b36a8; stroke-width: 0px;"/>
    <ellipse cx="699.81" cy="388.52" rx="13.42" ry="5.58" transform="translate(-15.42 747.85) rotate(-55.71)" style="fill: #d8b7fb; stroke-width: 0px;"/>
    <ellipse cx="669.93" cy="417.57" rx="9.94" ry="3.73" transform="translate(-118.69 382.26) rotate(-29.37)" style="fill: #d8b7fb; stroke-width: 0px;"/>
    <path d="m947.19,438.73c21.89-10.65,17.5-13.33-21.35,2.74l21.35-2.74Z" style="fill: #8747cc; stroke-width: 0px;"/>
    <path d="m947.19,438.73s-13.44,7.31-42.15,4.83c-15.44-1.33-32.81-8.21-47.99-19.74-45.98-34.94-64.61-97.58-80.44-149.32,11.69,50.57,5.68,111.05-17.09,142.18-25.55,34.94-84.31,61.16-131.3,15.01,1.28.88,25.26,17.08,53.56,11.77,2.71-.51,5.39-1.28,8.02-2.32.02,0,.03-.01.05-.02,25.63-10.17,46.45-45.98,37.68-113.53-9.69-74.53,11.9-112.45,45.5-117.78l25.61-.62c46.66,18.12,32.97,66.68,43.09,128.29,10.44,63.55,38.15,102.49,105.46,101.25Z" style="fill: #bc83fb; stroke-width: 0px;"/>
    <path d="m733.55,255.64c-14.77,4.12-17.26,12.49-11.89,21.97l-28.28,27.92c-4.69-3.83-8.6-8.03-11.53-12.62-29.38-45.9,28.49-95.06,89.3-85.67,16.98,9.38-6.88,39.85-37.6,48.4Z" style="fill: #bc83fb; stroke-width: 0px;"/>
    <path d="m681.78,443.46c-42.12-3.22-72.38-57.94-79.92-66.93s5.12,39.13,26.3,55.12c26.92,20.31,45.8,16.22,53.61,11.81Z" style="fill: #bc83fb; stroke-width: 0px;"/>
    <path d="m759.52,416.68c-25.55,34.94-84.31,61.16-131.3,15.01,1.28.88,25.26,17.08,53.56,11.77,2.71-.51,5.39-1.28,8.02-2.32.02,0,.03-.01.05-.02,37.71-11.03,66.83-53.55,68.91-116.34.77-23.28,3.42-37.23,6.8-45.95,3.73-9.64,8.72-9.92,11.02-4.44,0,0,0,.02.01.05,0,.01,0,.03.02.06,11.69,50.57,5.68,111.05-17.09,142.18Z" style="fill: #8747cc; stroke-width: 0px;"/>
    <ellipse cx="764.58" cy="375.43" rx="17.97" ry="8.49" transform="translate(208.66 1020.78) rotate(-75.41)" style="fill: #d8b7fb; stroke-width: 0px;"/>
    <ellipse cx="772.22" cy="315.11" rx="19.57" ry="6.59" transform="translate(420.48 1071.34) rotate(-87.25)" style="fill: #d8b7fb; stroke-width: 0px;"/>
    <ellipse cx="743.38" cy="420.61" rx="12.46" ry="6.7" transform="translate(-73.45 670.23) rotate(-46.49)" style="fill: #d8b7fb; stroke-width: 0px;"/>
    <ellipse cx="709.52" cy="444.89" rx="11.04" ry="4.92" transform="translate(-115.77 302.59) rotate(-22.31)" style="fill: #d8b7fb; stroke-width: 0px;"/>
    <ellipse cx="676.15" cy="451.2" rx="7.74" ry="2.75" transform="translate(-9.09 13.93) rotate(-1.17)" style="fill: #d8b7fb; stroke-width: 0px;"/>
    <g>
      <g>
        <circle cx="783.16" cy="162.14" r="49.6" style="fill: #bc83fb; stroke-width: 0px;"/>
        <g>
          <path d="m809.34,177.82c-1.31-12.39-16.99-12.01-17.59.48-.1,1.57-2.41,1.63-2.6.07-.99-6.83,3.87-13.46,11.01-13.55,7.09-.24,12.34,6.07,11.77,12.92-.1,1.58-2.41,1.63-2.6.07h0Z" style="stroke-width: 0px;"/>
          <path d="m775.09,178.77c-.5-4.99-4.02-9.28-9.12-9.1-5.14.09-8.29,4.58-8.55,9.59-.05.71-.67,1.24-1.38,1.18-.6-.06-1.07-.53-1.14-1.11-.18-1.52-.13-3.09.2-4.66,1.79-9.08,13.82-11.96,19.71-4.92,2.14,2.47,2.97,5.82,2.79,8.96-.04.7-.64,1.23-1.34,1.18-.62-.04-1.11-.52-1.18-1.11h0Z" style="stroke-width: 0px;"/>
        </g>
        <path d="m737.88,141.88l44.73-3.25,46.32,4.33c2.3,5.49,3.65,11.5,3.82,17.82.05,1.73,0,3.43-.11,5.11-9.37-1.35-29.95-7.96-49.5-22.67,0,0-17.34,19.4-49.47,22.13-.05-.61-.07-1.23-.09-1.85-.21-7.7,1.34-15.03,4.3-21.62Z" style="fill: #8747cc; stroke-width: 0px;"/>
        <g>
          <path d="m778.74,17.29c2.13.7,18.96,24.9,37.79,49.2,18.82,24.3,13.04,39.05-1.75,49.88-53.71,1.48-65.51,1.8-65.51,1.8-18.56-14.65-20.05-24.08-2.1-50.53,17.95-26.45,29.44-51.05,31.57-50.35Z" style="fill: #8747cc; stroke-width: 0px;"/>
          <path d="m827.03,129.6c-24.83-41.98-42.98-97.24-47.35-97.35-4.37-.1-20.16,54.09-42.52,101.38l89.88-4.04Z" style="fill: #bc83fb; stroke-width: 0px;"/>
          <path d="m781.35,42.86c.53,10.53.45,21.1.29,31.64-.11,10.39-.79,21.01,1.03,31.22.28,1.65-2.18,2.17-2.56.5-1.14-5.26-1.46-10.61-1.54-15.95-.17-10.56.31-21.05.33-31.58,0-5.25-.04-10.49-.15-15.74-.02-1.67,2.5-1.79,2.6-.09h0Z" style="fill: #8747cc; stroke-width: 0px;"/>
          <path d="m836.13,153.62c-2.94,5.59-30.02,3.35-53.49-13.98-22.49,18.6-49.41,22.32-52.65,16.9-3.27-5.43,1.33-24.11,6.79-27.24,5.47-3.15,26.59-3.13,44.68-18.59h0c18.91,14.44,40.76,13.24,46.39,16.08,5.63,2.83,11.23,21.22,8.28,26.83Z" style="fill: #bc83fb; stroke-width: 0px;"/>
          <path d="m741.61,126.54c10.52-1.9,21.2-4.67,30.58-9.9,2.22-1.27,4.59-2.8,6.55-4.41,1.28-.85,2.21-2.97,3.88-2,9.12,5.51,19.14,9.5,29.54,11.85,3.48.77,7.06,1.43,10.53,1.79,1.98.23,1.77,3.22-.27,3.11-14.72-1.26-29.21-5.9-41.5-14.13,0,0,2.07-.33,2.07-.33-1.97,2.3-4.19,3.98-6.65,5.65-3.9,2.59-8.25,4.65-12.6,6.28-6.89,2.61-14.37,4.21-21.67,5.19-2.01.27-2.51-2.75-.46-3.09h0Z" style="fill: #8747cc; stroke-width: 0px;"/>
        </g>
      </g>
      <path d="m816.07,199.24c-13.52,16.1-40.24,19.25-56.94,6.36,19.31,7.2,40.14,6.32,56.94-6.36h0Z" style="fill: #8747cc; stroke-width: 0px;"/>
    </g>
    <path d="m791.11,190.76c-2.55,0-5.59-.93-7.23-4.25-.34-.69-.06-1.53.64-1.87.69-.34,1.53-.06,1.87.64,1.89,3.84,6.63,2.44,6.83,2.38.74-.22,1.52.19,1.75.92s-.18,1.52-.92,1.75c-.77.24-1.81.43-2.95.43Z" style="stroke-width: 0px;"/>
    <path d="m786.83,200.64c-.07,0-.14,0-.21-.02-.76-.12-1.28-.82-1.17-1.58.33-2.24,2.58-6.47,8.76-6.47.77,0,1.4.63,1.4,1.4s-.63,1.4-1.4,1.4c-5.17,0-5.92,3.67-5.99,4.08-.11.69-.71,1.18-1.38,1.18Z" style="stroke-width: 0px;"/>
    <g>
      <path d="m916.27,384.09c.27,7.45-17.52,14.14-39.73,14.94-6.13.22-11.97-.04-17.2-.67-13.71-1.68-23.31-6-23.5-11.39-.14-3.78,4.36-7.36,11.71-10.07,5.63-2.08,12.95-3.66,21.14-4.43.92-.08,1.85-.16,2.79-.23,1.35-.09,2.71-.16,4.09-.21,1.46-.05,2.89-.08,4.31-.08.91,0,1.8,0,2.69.03,18.92.43,33.47,5.45,33.7,12.11Z" style="fill: #a091ff; fill-rule: evenodd; stroke-width: 0px;"/>
      <path d="m916.26,301.94c-5.26,11.11-15.07,19.35-28.55,22.97-4.23,1.15-8.83,1.83-13.76,2.01-31.92,1.14-51.38-20.02-49.91-49.36.33-6.46,1.41-12.02,2.66-17.18,3.1-12.78,7.2-23.07,3.29-38.44-1.03-4.09-2.63-8.53-4.97-13.48l89.27-3.2c-12.43,32.04,2.67,42.28,5.92,68.86,1.27,10.33-.16,19.82-3.95,27.82Z" style="fill: #a091ff; fill-rule: evenodd; stroke-width: 0px;"/>
      <path d="m916.26,301.94c-5.26,11.11-15.07,19.35-28.55,22.97-18.2-25.14-43.91-25.47-61.01-64.53,3.1-12.78,7.2-23.07,3.29-38.44,18.95,11.62,45.6,58.69,86.27,80Z" style="fill: #7a68ed; fill-rule: evenodd; stroke-width: 0px;"/>
      <path d="m873.62,317.4c26.87-.96,41.93-19.89,38.92-44.42-1.71-13.92-7.28-22.51-8.72-33.52v-.02c-.06-.44-.11-.88-.16-1.33-1.72-4.66-15.97-7.85-33.15-7.24-17.23.62-31.24,4.84-32.56,9.63,0,.41-.03.83-.06,1.24-.62,11.12-5.57,20.09-6.29,34.13-1.24,24.68,15.14,42.49,42,41.52Z" style="fill: #f55d76; fill-rule: evenodd; stroke-width: 0px;"/>
      <ellipse cx="869.52" cy="203.04" rx="46.68" ry="13.13" transform="translate(-6.71 31.25) rotate(-2.05)" style="fill: #e9e6ff; stroke-width: 0px;"/>
      <ellipse cx="869.52" cy="202.76" rx="39.76" ry="10.21" transform="translate(-6.7 31.25) rotate(-2.05)" style="fill: #a091ff; stroke-width: 0px;"/>
      <ellipse cx="870.85" cy="240.15" rx="33.02" ry="9.28" transform="translate(-8.04 31.32) rotate(-2.05)" style="fill: #ff969c; stroke-width: 0px;"/>
      <g>
        <ellipse cx="902.68" cy="276.18" rx="4.92" ry="11.05" transform="translate(-27.2 113.63) rotate(-7.1)" style="fill: #ffd6d9; stroke-width: 0px;"/>
        <ellipse cx="898.1" cy="255.27" rx="3.21" ry="4.42" transform="translate(-34.68 214.5) rotate(-13.36)" style="fill: #ffd6d9; stroke-width: 0px;"/>
      </g>
      <path d="m879.88,371.99l-1.06-29.51c-.33-9.27-.22-10.79,9.22-17.91l-28.1,1.01c9.92,6.42,10.15,7.93,10.48,17.2s1.06,29.51,1.06,29.51l8.39-.3Z" style="fill: #a091ff; fill-rule: evenodd; stroke-width: 0px;"/>
      <path d="m896.7,382.48c-6.59-.45-16.14-2.52-16.82-10.53.91,0,1.8,0,2.69.03.26,4.67,5.5,6.7,9.5,7.72,1.56.37,3.2.65,4.77.78,1.28.13,1.16,2.04-.14,2Z" style="fill: #7a68ed; stroke-width: 0px;"/>
      <path d="m871.49,372.33c.18,6.06-5.95,9.37-11.01,10.66-1.66.45-3.3.77-5.04.97-.55.06-1.04-.34-1.1-.89-.07-.55.33-1.04.88-1.1,5.11-.95,13.51-3.11,13.47-9.5.92-.08,1.85-.16,2.79-.23.01.03.01.06.01.09Z" style="fill: #7a68ed; stroke-width: 0px;"/>
      <g>
        <path d="m889.32,240.17c-.14,0-.28-.02-.42-.07-.65-.23-.99-.94-.76-1.59l27.53-78.14c.23-.65.94-1,1.59-.76.65.23.99.94.76,1.59l-27.53,78.14c-.18.51-.66.83-1.18.83Z" style="fill: #5141ba; stroke-width: 0px;"/>
        <path d="m874.97,196.88l48.85,17.31c1,.35,2.08-.25,2.32-1.28,8.27-35.31-37.24-46.84-52.15-18.52-.5.95-.04,2.14.98,2.5Z" style="fill: #f55d76; fill-rule: evenodd; stroke-width: 0px;"/>
        <path d="m877.53,197.79c14.35-23.83,48.85-14.68,43.33,15.35l-43.33-15.35Z" style="fill: #f5b14c; fill-rule: evenodd; stroke-width: 0px;"/>
        <path d="m901.17,206.52c-.43,0-.84-.23-1.07-.6l-11.36-18.79c-.36-.59-.17-1.36.42-1.72.59-.36,1.36-.17,1.72.42l10.01,16.55,6.13-16.98c.23-.65.95-.99,1.6-.75.65.23.99.95.75,1.6l-7.02,19.45c-.16.45-.57.77-1.05.82-.04,0-.08,0-.12,0Z" style="fill: #d97c2b; stroke-width: 0px;"/>
        <path d="m901.17,206.52c-.59,0-1.12-.42-1.23-1.02-.13-.68.32-1.33,1-1.46l19.78-3.7c.68-.13,1.33.32,1.46,1s-.32,1.33-1,1.46l-19.78,3.7c-.08.01-.16.02-.23.02Z" style="fill: #d97c2b; stroke-width: 0px;"/>
        <circle cx="912.08" cy="173.97" r="7.54" style="fill: #f55d76; stroke-width: 0px;"/>
        <path d="m920.99,213.65c-.07,0-.14,0-.2-.02-.68-.11-1.14-.75-1.03-1.44,2.35-14.32-4.84-22.48-12.35-25.35-11.87-4.52-23.04,2.49-28.4,10.92-.37.58-1.14.75-1.72.38-.58-.37-.75-1.14-.38-1.73,5.88-9.26,18.22-16.94,31.4-11.92,8.43,3.21,16.51,12.28,13.92,28.09-.1.61-.63,1.05-1.23,1.05Z" style="fill: #c73a51; stroke-width: 0px;"/>
      </g>
      <path d="m852.55,241.1c-1.55.28-4.19.47-6.77-.67-.37-.16-.64-.51-.73-.91l-5.76-25.48c2.34.49,4.89.9,7.6,1.23l6.68,24.17c.21.75-.27,1.52-1.03,1.65Z" style="fill: #5141ba; fill-rule: evenodd; stroke-width: 0px;"/>
      <path d="m846.9,215.27c-2.71-.33-5.26-.74-7.6-1.23l-.88-3.88c2.17.63,4.7,1.17,7.51,1.61l.97,3.5Z" style="fill: #a091ff; fill-rule: evenodd; stroke-width: 0px;"/>
      <path d="m845.93,211.77c-2.81-.44-5.34-.98-7.51-1.61l-2.63-11.67-.72-3.17-.32-1.4c-.06-.26-.23-1.5-.42-1.69l-1.51-1.52-1.45,1.55c-.24.25-.66.21-.85-.09l-1.14-1.83-34.8,6.23c-4.82-4.7-1.51-9.59-1.51-9.59,0,0,35.22-6.25,35.59-5.9l1.51,1.43,2.37-1.15c.45-.22.99-.07,1.27.34l.99,1.48,2.06-.48c.56-.13,1.12.22,1.26.77l2.8,10.13.77,2.8,4.24,15.37Z" style="fill: #7a68ed; fill-rule: evenodd; stroke-width: 0px;"/>
      <path d="m859.34,398.36c-13.71-1.68-23.31-6-23.5-11.39-.14-3.78,4.36-7.36,11.71-10.07,3.12,13.64,8.11,17.69,11.79,21.46Z" style="fill: #7a68ed; fill-rule: evenodd; stroke-width: 0px;"/>
    </g>
    <path d="m879.74,342.58c-37.77,3.32-144.07-2.38-186.36-37.05l28.28-27.92c5.79,10.25,20.75,21.8,39.33,30.69,35.77,17.11,80.92,27.32,118.23,25.91,9.75-.37,23.07,6.38.52,8.37Z" style="fill: #bc83fb; stroke-width: 0px;"/>
    <path d="m702.04,311.7c10.73,5.16,22.24,9.92,33.61,13.46,34.58,10.76,70.86,16.93,107.05,17.98,0,0,.18,1.02.18,1.02,0,0-9.08.39-19.68-.25-38.7-2.33-90.17-10.69-121.17-32.21h0Z" style="fill: #8747cc; stroke-width: 0px;"/>
    <path d="m721.66,277.61c18.47,24.07,58.14,38.21,86.7,46.25,10.73,2.98,21.59,5.5,32.52,7.92-22.31-2.12-44.39-7.35-65.31-15.44-18.44-7.32-44.79-20.36-53.91-38.73h0Z" style="fill: #d8b7fb; stroke-width: 0px;"/>
  </g>
</svg>