<?xml version="1.0" encoding="UTF-8"?>
<svg id="Layer_1" data-name="Layer 1" xmlns="http://www.w3.org/2000/svg" xmlns:xlink="http://www.w3.org/1999/xlink" viewBox="0 0 1600 500">
  <defs>
    <linearGradient id="linear-gradient" x1="1010.52" y1="364.58" x2="1269.55" y2="364.58" gradientUnits="userSpaceOnUse">
      <stop offset="0" stop-color="#372980" stop-opacity=".7"/>
      <stop offset="1" stop-color="#372980" stop-opacity="0"/>
    </linearGradient>
    <linearGradient id="linear-gradient-2" x1="957.2" y1="323.5" x2="1216.32" y2="323.5" gradientTransform="translate(-7.45 111.12) rotate(-1.44) scale(1 .8)" xlink:href="#linear-gradient"/>
  </defs>
  <path d="m1600,24.84v242.74H0V24.84C0,11.12,11.12,0,24.83,0h1550.34c13.71,0,24.83,11.12,24.83,24.84Z" style="fill: #d7d1ff; stroke-width: 0px;"/>
  <path d="m186.82,236.49c-16.03-28.99-37.86-14.42-41.61-.57-8.19-32.86-38.54-19.99-44.34-8.52-3.41-34.57-36.84-35.6-50.48-14.79-1.71-38.88-47.07-33.77-50.39-15.11v58.09l147.26,11.74,39.57-30.84Z" style="fill: #f7f7f7; stroke-width: 0px;"/>
  <path d="m1600,200.39c-9.67-12.32-31.82-7.3-26.86,21.16-29.47-24.57-38.35,14.48-38.35,14.48-39.34-17.46-149.44-7.54-149.44-7.54-31.15-28.1-46.29,5.29-46.29,5.29-40.68-35.52-56.87-3.31-56.87-3.31-12.23-27.03-40.16-20.62-36.28,5.56-13.64-20.21-24.55-1.41-24.55-1.41-25.4-37.93-87.25-30.93-110.72,3.81,102.71,45.29,154.69,38.16,154.69,38.16l334.66-20.83v-55.38Z" style="fill: #f7f7f7; stroke-width: 0px;"/>
  <path d="m1099.37,246.02c-29.94-40.62-63.09-15.95-63.09-15.95-17.85-27.24-28.91-22.23-28.91-22.23l-11.17,36.9,11.17,15.93s105.28,17.4,92-14.64Z" style="fill: #f7f7f7; stroke-width: 0px;"/>
  <path d="m1600,237.97c-50.23-19.34-92.24,16.82-92.24,16.82-88.39-37.92-137.25-10.8-168.67-15.06-31.42-4.27-48.64-10.93-89.66,14.17-90.67-56.93-181.66-5.89-181.66-5.89-81.91-46.98-218.58-28.08-302.38-28.08s-525.76,5.27-567.65,5.33c-41.89.06-71.95,29.72-71.95,29.72-57.56-41.71-92.51-31.42-125.78-17.18v29.78h1600v-29.61Z" style="fill: #a396ff; stroke-width: 0px;"/>
  <path d="m1600,267.58v185.78c0,8.31-4.08,15.66-10.34,20.17-2.4,1.73-5.84.86-6.95-1.88-3.92-9.72-16.41-16.83-31.21-16.83-9.47,0-17.99,2.91-23.93,7.55-1.9,1.49-4.64,1.26-6.24-.56-7.65-8.68-21.22-14.45-36.68-14.45-13.95,0-26.37,4.71-34.28,12.01-1.85,1.7-4.72,1.54-6.43-.3-9.32-10.07-25.82-16.76-44.62-16.76-27.05,0-49.35,13.85-52.36,31.7-.41,2.4-2.49,4.14-4.91,4.14h-241.11s-142.23.01-142.23.01l-933.88.04C11.12,478.2,0,467.08,0,453.36v-185.78h1600Z" style="fill: #5d4dc4; stroke-width: 0px;"/>
  <g>
    <polygon points="1600 312.98 42.17 312.98 69.67 288.18 1600 288.18 1600 312.98" style="fill: #a396ff; stroke-width: 0px;"/>
    <polygon points="1600 289.43 68.28 289.43 70.97 286.93 1600 286.93 1600 289.43" style="fill: #372980; stroke-width: 0px;"/>
  </g>
  <path d="m1371.27,302.39h0c0,.93.74,1.69,1.67,1.73l227.06,8.04v-15.13l-35.9-.89-192.83,6.26Z" style="fill: #7a68e8; stroke-width: 0px;"/>
  <g>
    <rect x="908.01" y="0" width="105.48" height="267.58" style="fill: #7a68e8; stroke-width: 0px;"/>
    <rect x="201.65" width="706.35" height="267.58" style="fill: #a396ff; stroke-width: 0px;"/>
    <g>
      <polygon points="998.74 276.75 922.77 276.75 922.77 23.24 998.74 30.74 998.74 276.75" style="fill: #a396ff; stroke-width: 0px;"/>
      <g>
        <path d="m999.78,277.79h-78.05V22.09l78.05,7.71v248Zm-75.97-2.08h73.88V31.68l-73.88-7.29v251.32Z" style="fill: #5849ba; stroke-width: 0px;"/>
        <rect x="959.71" y="6.73" width="2.08" height="76.26" transform="translate(832.08 998.01) rotate(-84.98)" style="fill: #5849ba; stroke-width: 0px;"/>
        <rect x="959.71" y="24.66" width="2.08" height="76.19" transform="translate(824.62 1015.89) rotate(-85.61)" style="fill: #5849ba; stroke-width: 0px;"/>
        <rect x="959.71" y="42.59" width="2.08" height="76.13" transform="translate(817.17 1034.04) rotate(-86.23)" style="fill: #5849ba; stroke-width: 0px;"/>
        <rect x="959.71" y="60.52" width="2.08" height="76.08" transform="translate(809.72 1052.47) rotate(-86.86)" style="fill: #5849ba; stroke-width: 0px;"/>
        <rect x="959.71" y="78.44" width="2.08" height="76.04" transform="translate(802.3 1071.18) rotate(-87.49)" style="fill: #5849ba; stroke-width: 0px;"/>
        <rect x="959.71" y="96.35" width="2.08" height="76.01" transform="translate(794.87 1090.17) rotate(-88.12)" style="fill: #5849ba; stroke-width: 0px;"/>
        <rect x="959.71" y="114.26" width="2.08" height="75.98" transform="translate(787.46 1109.44) rotate(-88.74)" style="fill: #5849ba; stroke-width: 0px;"/>
        <rect x="959.71" y="132.17" width="2.08" height="75.97" transform="translate(780.07 1128.98) rotate(-89.37)" style="fill: #5849ba; stroke-width: 0px;"/>
        <rect x="922.77" y="187.01" width="75.97" height="2.08" style="fill: #5849ba; stroke-width: 0px;"/>
        <rect x="922.77" y="204.91" width="75.97" height="2.08" transform="translate(-2.26 10.82) rotate(-.64)" style="fill: #5849ba; stroke-width: 0px;"/>
        <rect x="922.77" y="223.23" width="75.97" height="2.08" transform="translate(-2.46 10.82) rotate(-.64)" style="fill: #5849ba; stroke-width: 0px;"/>
        <rect x="922.77" y="241.96" width="75.97" height="2.08" style="fill: #5849ba; stroke-width: 0px;"/>
        <rect x="922.77" y="260.28" width="75.97" height="2.08" style="fill: #5849ba; stroke-width: 0px;"/>
      </g>
    </g>
    <g>
      <rect x="632.15" y="27.31" width="237.97" height="191.83" style="fill: #e7e3ff; stroke-width: 0px;"/>
      <path d="m846.82,27.31c-1.26,109.9-118.86,78.7-140.94,191.83h-14.46c-3.85-142.02,95.04-62.3,89.66-191.83h65.74Z" style="fill: #f7f7f7; stroke-width: 0px;"/>
      <rect x="745.71" y="27.31" width="8.33" height="191.83" style="fill: #7a68e8; stroke-width: 0px;"/>
      <path d="m808.29,218.86c-.12-1.03-.24-2.03-.39-3-.04-.3-.08-.59-.13-.89h-171.46v-7.59c-.33.28-.66.57-1,.87-.68.59-1.37,1.2-2.08,1.82-.35.3-.72.62-1.08.95v8.12h10.87v4.17h93.63c-.07-.44-.15-.89-.24-1.34-.06-.32-.12-.65-.19-.97-.06-.32-.12-.64-.19-.96.65,0,1.29-.01,1.92-.01.54,0,1.07-.01,1.6-.01s1.05,0,1.57,0c1.56-.01,3.07-.02,4.54-.02,3.38-.02,6.53-.03,9.45-.04,1.74-.01,3.4-.01,4.97-.01,1.8-.01,3.49-.01,5.05-.01h.26c1.17,0,2.34,0,3.53-.01.92-.01,1.85-.01,2.78-.02,2.85-.03,5.75-.08,8.7-.14,1.08-.03,2.16-.05,3.24-.08,1.26-.03,2.53-.06,3.81-.1,1.28-.03,2.57-.07,3.87-.11.13,0,.25-.01.38-.01,2.22-.07,4.46-.15,6.72-.22.84-.04,1.69-.07,2.53-.1h7.37c-.01-.1-.02-.19-.03-.28Zm0,0c-.12-1.03-.24-2.03-.39-3-.04-.3-.08-.59-.13-.89h-171.46v-7.59c-.33.28-.66.57-1,.87-.68.59-1.37,1.2-2.08,1.82-.35.3-.72.62-1.08.95v8.12h10.87v4.17h93.63c-.07-.44-.15-.89-.24-1.34-.06-.32-.12-.65-.19-.97-.06-.32-.12-.64-.19-.96.65,0,1.29-.01,1.92-.01.54,0,1.07-.01,1.6-.01s1.05,0,1.57,0c1.56-.01,3.07-.02,4.54-.02,3.38-.02,6.53-.03,9.45-.04,1.74-.01,3.4-.01,4.97-.01,1.8-.01,3.49-.01,5.05-.01h.26c1.17,0,2.34,0,3.53-.01.92-.01,1.85-.01,2.78-.02,2.85-.03,5.75-.08,8.7-.14,1.08-.03,2.16-.05,3.24-.08,1.26-.03,2.53-.06,3.81-.1,1.28-.03,2.57-.07,3.87-.11.13,0,.25-.01.38-.01,2.22-.07,4.46-.15,6.72-.22.84-.04,1.69-.07,2.53-.1h7.37c-.01-.1-.02-.19-.03-.28Zm0,0c-.12-1.03-.24-2.03-.39-3-.04-.3-.08-.59-.13-.89h-171.46v-7.59c-.33.28-.66.57-1,.87-.68.59-1.37,1.2-2.08,1.82-.35.3-.72.62-1.08.95v8.12h10.87v4.17h93.63c-.07-.44-.15-.89-.24-1.34-.06-.32-.12-.65-.19-.97-.06-.32-.12-.64-.19-.96.65,0,1.29-.01,1.92-.01.54,0,1.07-.01,1.6-.01s1.05,0,1.57,0c1.56-.01,3.07-.02,4.54-.02,3.38-.02,6.53-.03,9.45-.04,1.74-.01,3.4-.01,4.97-.01,1.8-.01,3.49-.01,5.05-.01h.26c1.17,0,2.34,0,3.53-.01.92-.01,1.85-.01,2.78-.02,2.85-.03,5.75-.08,8.7-.14,1.08-.03,2.16-.05,3.24-.08,1.26-.03,2.53-.06,3.81-.1,1.28-.03,2.57-.07,3.87-.11.13,0,.25-.01.38-.01,2.22-.07,4.46-.15,6.72-.22.84-.04,1.69-.07,2.53-.1h7.37c-.01-.1-.02-.19-.03-.28ZM627.98,23.14v200.17h246.31V23.14h-246.31Zm237.98,191.83h-229.65V31.48h229.65v183.49Zm-57.67,3.89c-.12-1.03-.24-2.03-.39-3-.04-.3-.08-.59-.13-.89h-171.46v-7.59c-.33.28-.66.57-1,.87-.68.59-1.37,1.2-2.08,1.82-.35.3-.72.62-1.08.95v8.12h10.87v4.17h93.63c-.07-.44-.15-.89-.24-1.34-.06-.32-.12-.65-.19-.97-.06-.32-.12-.64-.19-.96.65,0,1.29-.01,1.92-.01.54,0,1.07-.01,1.6-.01s1.05,0,1.57,0c1.56-.01,3.07-.02,4.54-.02,3.38-.02,6.53-.03,9.45-.04,1.74-.01,3.4-.01,4.97-.01,1.8-.01,3.49-.01,5.05-.01h.26c1.17,0,2.34,0,3.53-.01.92-.01,1.85-.01,2.78-.02,2.85-.03,5.75-.08,8.7-.14,1.08-.03,2.16-.05,3.24-.08,1.26-.03,2.53-.06,3.81-.1,1.28-.03,2.57-.07,3.87-.11.13,0,.25-.01.38-.01,2.22-.07,4.46-.15,6.72-.22.84-.04,1.69-.07,2.53-.1h7.37c-.01-.1-.02-.19-.03-.28Zm0,0c-.12-1.03-.24-2.03-.39-3-.04-.3-.08-.59-.13-.89h-171.46v-7.59c-.33.28-.66.57-1,.87-.68.59-1.37,1.2-2.08,1.82-.35.3-.72.62-1.08.95v8.12h10.87v4.17h93.63c-.07-.44-.15-.89-.24-1.34-.06-.32-.12-.65-.19-.97-.06-.32-.12-.64-.19-.96.65,0,1.29-.01,1.92-.01.54,0,1.07-.01,1.6-.01s1.05,0,1.57,0c1.56-.01,3.07-.02,4.54-.02,3.38-.02,6.53-.03,9.45-.04,1.74-.01,3.4-.01,4.97-.01,1.8-.01,3.49-.01,5.05-.01h.26c1.17,0,2.34,0,3.53-.01.92-.01,1.85-.01,2.78-.02,2.85-.03,5.75-.08,8.7-.14,1.08-.03,2.16-.05,3.24-.08,1.26-.03,2.53-.06,3.81-.1,1.28-.03,2.57-.07,3.87-.11.13,0,.25-.01.38-.01,2.22-.07,4.46-.15,6.72-.22.84-.04,1.69-.07,2.53-.1h7.37c-.01-.1-.02-.19-.03-.28Zm0,0c-.12-1.03-.24-2.03-.39-3-.04-.3-.08-.59-.13-.89h-171.46v-7.59c-.33.28-.66.57-1,.87-.68.59-1.37,1.2-2.08,1.82-.35.3-.72.62-1.08.95v8.12h10.87v4.17h93.63c-.07-.44-.15-.89-.24-1.34-.06-.32-.12-.65-.19-.97-.06-.32-.12-.64-.19-.96.65,0,1.29-.01,1.92-.01.54,0,1.07-.01,1.6-.01s1.05,0,1.57,0c1.56-.01,3.07-.02,4.54-.02,3.38-.02,6.53-.03,9.45-.04,1.74-.01,3.4-.01,4.97-.01,1.8-.01,3.49-.01,5.05-.01h.26c1.17,0,2.34,0,3.53-.01.92-.01,1.85-.01,2.78-.02,2.85-.03,5.75-.08,8.7-.14,1.08-.03,2.16-.05,3.24-.08,1.26-.03,2.53-.06,3.81-.1,1.28-.03,2.57-.07,3.87-.11.13,0,.25-.01.38-.01,2.22-.07,4.46-.15,6.72-.22.84-.04,1.69-.07,2.53-.1h7.37c-.01-.1-.02-.19-.03-.28Z" style="fill: #7a68e8; stroke-width: 0px;"/>
    </g>
    <g>
      <rect x="240.37" y="27.31" width="237.97" height="191.83" style="fill: #e7e3ff; stroke-width: 0px;"/>
      <path d="m455.04,27.31c-1.26,109.9-118.86,78.7-140.94,191.83h-14.46c-3.85-142.02,95.04-62.3,89.66-191.83h65.74Z" style="fill: #f7f7f7; stroke-width: 0px;"/>
      <rect x="353.93" y="27.31" width="8.33" height="191.83" style="fill: #7a68e8; stroke-width: 0px;"/>
      <path d="m355.04,214.97v4.17h20.44v4.17h20.56c7.56-.08,15.21-.16,22.92-.24,1.78-.02,3.55-.04,5.33-.06,1.79-.02,3.57-.04,5.36-.06,6.81-.07,13.66-.14,20.54-.21v-3.6h12.17v-4.17h-107.32Zm0,0v4.17h20.44v4.17h20.56c7.56-.08,15.21-.16,22.92-.24,1.78-.02,3.55-.04,5.33-.06,1.79-.02,3.57-.04,5.36-.06,6.81-.07,13.66-.14,20.54-.21v-3.6h12.17v-4.17h-107.32Zm0,0v4.17h20.44v4.17h20.56c7.56-.08,15.21-.16,22.92-.24,1.78-.02,3.55-.04,5.33-.06,1.79-.02,3.57-.04,5.36-.06,6.81-.07,13.66-.14,20.54-.21v-3.6h12.17v-4.17h-107.32ZM236.2,23.14v200.17h246.31V23.14h-246.31Zm237.98,191.83h-229.65V31.48h229.65v183.49Zm-119.14,0v4.17h20.44v4.17h20.56c7.56-.08,15.21-.16,22.92-.24,1.78-.02,3.55-.04,5.33-.06,1.79-.02,3.57-.04,5.36-.06,6.81-.07,13.66-.14,20.54-.21v-3.6h12.17v-4.17h-107.32Zm0,0v4.17h20.44v4.17h20.56c7.56-.08,15.21-.16,22.92-.24,1.78-.02,3.55-.04,5.33-.06,1.79-.02,3.57-.04,5.36-.06,6.81-.07,13.66-.14,20.54-.21v-3.6h12.17v-4.17h-107.32Zm0,0v4.17h20.44v4.17h20.56c7.56-.08,15.21-.16,22.92-.24,1.78-.02,3.55-.04,5.33-.06,1.79-.02,3.57-.04,5.36-.06,6.81-.07,13.66-.14,20.54-.21v-3.6h12.17v-4.17h-107.32Z" style="fill: #7a68e8; stroke-width: 0px;"/>
    </g>
  </g>
  <path d="m182.65,302.39h0c0,.93.73,1.7,1.66,1.75l115.43,5.99v-7.74h-117.1Z" style="fill: #7a68e8; stroke-width: 0px;"/>
  <g>
    <path d="m295.04,171.52h-38.39c-6.84,0-12.41-5.57-12.41-12.41v-47.12c0-6.84,5.57-12.41,12.41-12.41h38.39c6.84,0,12.41,5.57,12.41,12.41v47.12c0,6.84-5.57,12.41-12.41,12.41Zm-38.39-70.28c-5.93,0-10.75,4.82-10.75,10.75v47.12c0,5.93,4.82,10.75,10.75,10.75h38.39c5.93,0,10.75-4.82,10.75-10.75v-47.12c0-5.93-4.82-10.75-10.75-10.75h-38.39Z" style="fill: #151424; stroke-width: 0px;"/>
    <g>
      <g>
        <path d="m375.48,11.21v284.92l-20.44,6.26-3.31-34.81-.98-10.29-6.82-71.73-13.47-141.63-1.63-17.14L326.29,0h46.63c1.64,3.39,2.56,7.19,2.56,11.21Z" style="fill: #5849ba; stroke-width: 0px;"/>
        <path d="m355.04,15.55v286.84h-172.39V15.55C182.65,9.86,184.23,4.54,186.97,0h163.76c2.74,4.54,4.32,9.86,4.32,15.55Z" style="fill: #7a68e8; stroke-width: 0px;"/>
        <rect x="182.65" y="26.79" width="172.4" height="17.14" style="fill: #b8aeff; stroke-width: 0px;"/>
        <rect x="241.89" y="100.41" width="61.55" height="70.28" rx="11.58" ry="11.58" style="fill: #5646bd; stroke-width: 0px;"/>
        <rect x="254.46" y="111.17" width="47.04" height="53.72" rx="8.05" ry="8.05" style="fill: #372980; stroke-width: 0px;"/>
        <ellipse cx="365.05" cy="35.16" rx="12.3" ry="3.9" transform="translate(323.87 399.58) rotate(-89.05)" style="fill: #372980; stroke-width: 0px;"/>
        <rect x="182.65" y="257.29" width="172.4" height="45.09" style="fill: #b8aeff; stroke-width: 0px;"/>
        <polygon points="355.04 257.29 375.48 253.96 375.48 296.13 355.04 302.39 355.04 257.29" style="fill: #8d7cf7; stroke-width: 0px;"/>
        <g>
          <rect x="206.32" y="68.81" width="124.83" height="13.64" style="fill: #f7f7f7; stroke-width: 0px;"/>
          <rect x="206.32" y="68.81" width="94.61" height="13.64" style="fill: #b8aeff; stroke-width: 0px;"/>
          <g>
            <path d="m213.45,64.29c-.58,0-1.04-.47-1.04-1.04v-8.25c0-.58.47-1.04,1.04-1.04s1.04.47,1.04,1.04v8.25c0,.58-.47,1.04-1.04,1.04Z" style="fill: #5849ba; stroke-width: 0px;"/>
            <path d="m241.15,64.29c-.58,0-1.04-.47-1.04-1.04v-8.25c0-.58.47-1.04,1.04-1.04s1.04.47,1.04,1.04v8.25c0,.58-.47,1.04-1.04,1.04Z" style="fill: #5849ba; stroke-width: 0px;"/>
            <path d="m268.85,64.29c-.58,0-1.04-.47-1.04-1.04v-8.25c0-.58.47-1.04,1.04-1.04s1.04.47,1.04,1.04v8.25c0,.58-.47,1.04-1.04,1.04Z" style="fill: #5849ba; stroke-width: 0px;"/>
            <path d="m296.55,64.29c-.58,0-1.04-.47-1.04-1.04v-8.25c0-.58.47-1.04,1.04-1.04s1.04.47,1.04,1.04v8.25c0,.58-.47,1.04-1.04,1.04Z" style="fill: #5849ba; stroke-width: 0px;"/>
            <path d="m324.25,64.29c-.58,0-1.04-.47-1.04-1.04v-8.25c0-.58.47-1.04,1.04-1.04s1.04.47,1.04,1.04v8.25c0,.58-.47,1.04-1.04,1.04Z" style="fill: #5849ba; stroke-width: 0px;"/>
            <path d="m227.3,64.29c-.58,0-1.04-.47-1.04-1.04v-4.68c0-.58.47-1.04,1.04-1.04s1.04.47,1.04,1.04v4.68c0,.58-.47,1.04-1.04,1.04Z" style="fill: #5849ba; stroke-width: 0px;"/>
            <path d="m255.31,64.29c-.58,0-1.04-.47-1.04-1.04v-4.68c0-.58.47-1.04,1.04-1.04s1.04.47,1.04,1.04v4.68c0,.58-.47,1.04-1.04,1.04Z" style="fill: #5849ba; stroke-width: 0px;"/>
            <path d="m283.33,64.29c-.58,0-1.04-.47-1.04-1.04v-4.68c0-.58.47-1.04,1.04-1.04s1.04.47,1.04,1.04v4.68c0,.58-.47,1.04-1.04,1.04Z" style="fill: #5849ba; stroke-width: 0px;"/>
            <path d="m311.35,64.29c-.58,0-1.04-.47-1.04-1.04v-4.68c0-.58.47-1.04,1.04-1.04s1.04.47,1.04,1.04v4.68c0,.58-.47,1.04-1.04,1.04Z" style="fill: #5849ba; stroke-width: 0px;"/>
          </g>
          <path d="m332.19,83.5h-126.91v-15.72h126.91v15.72Zm-124.83-2.08h122.75v-11.56h-122.75v11.56Z" style="fill: #5849ba; stroke-width: 0px;"/>
        </g>
      </g>
      <g>
        <circle cx="274.51" cy="196.15" r="17.29" style="fill: #b8aeff; stroke-width: 0px;"/>
        <circle cx="274.51" cy="196.15" r="10.32" style="fill: #372980; stroke-width: 0px;"/>
      </g>
    </g>
    <g>
      <path d="m291,114.9v35.48c0,2.77-2.24,5.01-5.01,5.01h-21.93c-3.54,0-6.42-2.87-6.42-6.42v-32.66c0-3.54,2.88-6.42,6.42-6.42h21.93c2.77,0,5.01,2.24,5.01,5.01Z" style="fill: #7a68e8; stroke-width: 0px;"/>
      <path d="m291,114.9v35.48c0,2.77-2.24,5.01-5.01,5.01h-5.26c2.12,0,3.85-1.72,3.85-3.86v-37.77c0-2.13-1.73-3.86-3.85-3.86h5.26c2.77,0,5.01,2.24,5.01,5.01Z" style="fill: #5849ba; stroke-width: 0px;"/>
    </g>
    <path d="m269.33,155.38v40.74c0,2.87,2.33,5.2,5.2,5.2h0c2.87,0,5.2-2.33,5.2-5.2v-40.74h-10.41Z" style="fill: #5646bd; stroke-width: 0px;"/>
    <rect x="193.36" y="43.93" width="2.08" height="212.71" style="fill: #5849ba; stroke-width: 0px;"/>
    <rect x="342.89" y="43.93" width="2.08" height="212.71" style="fill: #5849ba; stroke-width: 0px;"/>
  </g>
  <g>
    <path d="m643.03,11.21v284.92l-20.44,6.26-3.31-34.81-.98-10.29-7.65-80.48-12.63-132.88-1.63-17.14L593.83,0h46.63c1.64,3.39,2.56,7.19,2.56,11.21Z" style="fill: #5849ba; stroke-width: 0px;"/>
    <path d="m622.58,15.55v286.84h-172.39V15.55C450.19,9.86,451.77,4.54,454.51,0h163.76c2.74,4.54,4.32,9.86,4.32,15.55Z" style="fill: #7a68e8; stroke-width: 0px;"/>
    <rect x="450.19" y="26.79" width="172.4" height="17.14" style="fill: #b8aeff; stroke-width: 0px;"/>
    <ellipse cx="632.59" cy="35.16" rx="12.3" ry="3.9" transform="translate(587 667.09) rotate(-89.05)" style="fill: #372980; stroke-width: 0px;"/>
    <rect x="450.19" y="257.29" width="172.4" height="45.09" style="fill: #b8aeff; stroke-width: 0px;"/>
    <polygon points="622.59 257.29 643.02 253.96 643.02 296.13 622.59 302.39 622.59 257.29" style="fill: #8d7cf7; stroke-width: 0px;"/>
    <rect x="461.32" y="43.93" width="2.08" height="213.36" style="fill: #5849ba; stroke-width: 0px;"/>
    <rect x="609.6" y="43.93" width="2.08" height="213.36" style="fill: #5849ba; stroke-width: 0px;"/>
  </g>
  <g>
    <polygon points="1600 311.73 1600 323.97 35.5 323.97 42.17 312.98 43.55 311.73 1600 311.73" style="fill: #372980; stroke-width: 0px;"/>
    <rect x="1416.96" y="311.73" width="89.67" height="12.23" style="fill: #8d7cf7; stroke-width: 0px;"/>
    <rect x="1236.12" y="311.73" width="89.67" height="12.23" style="fill: #8d7cf7; stroke-width: 0px;"/>
    <rect x="1055.28" y="311.73" width="89.67" height="12.23" style="fill: #8d7cf7; stroke-width: 0px;"/>
    <rect x="874.43" y="311.73" width="89.67" height="12.23" style="fill: #8d7cf7; stroke-width: 0px;"/>
    <rect x="693.59" y="311.73" width="89.67" height="12.23" style="fill: #8d7cf7; stroke-width: 0px;"/>
    <rect x="512.75" y="311.73" width="89.67" height="12.23" style="fill: #8d7cf7; stroke-width: 0px;"/>
    <rect x="331.91" y="311.73" width="89.67" height="12.23" style="fill: #8d7cf7; stroke-width: 0px;"/>
    <rect x="151.06" y="311.73" width="89.67" height="12.23" style="fill: #8d7cf7; stroke-width: 0px;"/>
  </g>
  <g>
    <path d="m981.04,356.67c28.33,2.2,55.95,7.61,42.99,14.01-12.96,6.4-263.05,56.29-358.5,75.63-95.44,19.34-167.19,24.17-201.72,21.17-42.44-3.68-240.64-28.42-229.3-78.83,11.33-50.4,628.4-68.9,628.4-68.9l118.13,36.92Z" style="fill: #372980; stroke-width: 0px;"/>
    <path d="m983.71,374.19c95.27-28.2,352.76-4.25,352.76-4.25v-8.61c-159.23-16.74-314.61-12.85-363.88,6.43-49.28,19.28,11.13,6.43,11.13,6.43Z" style="fill: url(#linear-gradient); stroke-width: 0px;"/>
    <path d="m929.38,357.26c134.7-33.27,352.58-17.41,352.58-17.41l-.19-7.7c-159.56-10.98-314.82,1.16-363.65,19.64-48.83,18.48,11.27,5.47,11.27,5.47Z" style="fill: url(#linear-gradient-2); stroke-width: 0px;"/>
    <path d="m994.96,354.63c-16.59-1.66-22.38-6.35-22.38-6.35l18.67-33.3,9.33,2.89-5.62,36.76Z" style="stroke-width: 0px;"/>
    <path d="m1006.79,213.74c2.58-29.41-24.45-32.81-81.93-35.48-60.52-2.81-82.54-2.41-85.19,3.28l167.12,32.2Z" style="fill: #8747cc; stroke-width: 0px;"/>
    <path d="m629.04,425.16c-7.62.91-18.18,0-18.18,0l19.81-26.97,21.89,6.78-23.52,20.2Z" style="stroke-width: 0px;"/>
    <path d="m954.06,380.53c-19.97,2.6-48.93,1.8-71.22-5.62-22.29-7.42-32.57-35.27-28.47-68.79,4.46-36.27,24.95-59.5,47.86-59.41,18.24.07,44.64.41,61.67,2.62l-22.78,25.96s29.4,103.05,12.94,105.23Z" style="stroke-width: 0px;"/>
    <path d="m581.82,452.29c-23.73,3.09-58.14,2.14-84.62-6.67-26.48-8.81-38.7-41.9-33.83-81.73,5.3-43.09,29.65-70.69,56.87-70.58,21.68.08,53.04.49,73.27,3.11l-27.06,30.84s34.94,122.44,15.37,125.03Z" style="stroke-width: 0px;"/>
    <path d="m1009.37,344.07c-3.4,4.88-8.28,8.29-11.94,10.35-2.13,1.2-4.71-.53-4.42-2.94l1.73-14.47c14.62-84.93-33.77-106.07-63.9-75.41-19.19,19.52-23.62,39.23-25.26,63.18-1.31,19.29,1.83,43.86-8.77,45.53-9.8,1.55-42.75,6.25-73.08,11.31-11.13,1.86-21.92,3.76-31.07,5.59-1.66.33-3.27.66-4.82.98-28.43,5.95-128.43,29.85-158.82,36.97-3.81.89-7.25-2.49-6.43-6.32l4.15-19.25c4.89-25.48,3.97-52.94-3.28-73.25-.53-1.49-1.1-2.95-1.7-4.37-7.09-16.63-18.94-27.41-35.9-26.4-35.55,2.13-51.12,42.88-56.08,61.82h0c-7.29,27.88-3.66,56.91-1,70.46,1.13,5.71-2.77,11.17-8.53,11.98-17.93,2.51-35.07,4.23-51.44,5.26-145.29,9.16-228.56-35.98-249.51-61.45-6.71-8.15,9.08-10.49,5.87-18.38-3.21-7.88-20.75-18.99-17.24-31.27,1.26-4.43,9.61-17.87,24.92-34.05,8.11-8.57,18.18-17.91,30.18-27.09,28.15-21.52,66.96-42.13,116.21-49.78,2.43-.38,10.22-3.42,21.18-7.91.94-.39,1.91-.79,2.9-1.2,25.52-10.53,65.79-27.76,97.08-38.52,0,0,.03,0,.03,0,9-3.1,17.24-5.66,24.18-7.38,42.95-10.62,119.67-16.49,202.79-10.05,45.24,3.5,97.69,12.49,141.7,20.91,5.37,1.03,10.62,2.04,15.72,3.04,29.84,5.88,54.39,11.08,67.92,13.42,32.15,5.57,60.63,13.88,67.54,37.05.57,1.87.98,3.82,1.25,5.88.21,1.64.38,3.43.51,5.33,1.98,30.35-6.93,92.15-12.68,100.41Z" style="fill: #bc83fb; stroke-width: 0px;"/>
    <g>
      <ellipse cx="955.86" cy="314.99" rx="66.14" ry="41.73" transform="translate(513.85 1219.15) rotate(-82.19)" style="fill: #4a3261; stroke-width: 0px;"/>
      <ellipse cx="957.23" cy="313.86" rx="50.64" ry="29.97" transform="translate(518.57 1220.71) rotate(-82.34)" style="fill: #d8b7fb; stroke-width: 0px;"/>
      <path d="m952.84,366.2c-.66,0-1.31-.03-1.97-.1-5.9-.59-11.32-3.79-15.68-9.24-8.38-10.48-12.04-27.77-9.77-46.23,3.52-28.78,20.67-50.77,38.16-49,5.9.59,11.32,3.79,15.68,9.24,8.38,10.48,12.04,27.77,9.77,46.23-3.39,27.7-19.38,49.1-36.19,49.1Zm8.7-100.69c-14.8,0-29.02,19.9-32.16,45.6-2.1,17.16,1.32,33.74,8.93,43.25,3.67,4.6,8.16,7.28,12.96,7.76,15.37,1.54,30.54-18.88,33.8-45.52,2.1-17.16-1.32-33.74-8.93-43.25-3.68-4.6-8.16-7.28-12.96-7.77-.55-.05-1.09-.08-1.64-.08Z" style="fill: #f0d9ff; stroke-width: 0px;"/>
      <ellipse cx="957.23" cy="313.86" rx="19.39" ry="11.48" transform="translate(518.57 1220.71) rotate(-82.34)" style="fill: #f7f7f7; stroke-width: 0px;"/>
    </g>
    <path d="m412,248.45c2.57,51.01-109.19,34.4-122.52,76.94,10.11,2.87,30.23,0,30.23,0,36.43-45.99,132.59-23.54,134.38-68.89l-42.09-8.05Z" style="fill: #d8b7fb; stroke-width: 0px;"/>
    <path d="m568.68,266.66c-17.77,5.27-36.74,10.28-54.32,16.14-13.44,4.4-26.78,9.11-39.86,14.46-4.36,1.78-8.75,3.65-12.9,5.66-2.72,1.25-4.73-2.74-2-4.15,21.58-10.05,44.31-17.42,67.11-24.1,13.66-3.97,27.43-7.6,41.39-10.39,1.47-.29,2.1,1.92.58,2.38h0Z" style="fill: #8747cc; stroke-width: 0px;"/>
    <path d="m372.77,330.72c-21.69-2.88-38.53-2.23-52.06-1.71-13.68.53-24.49.95-35.4-2.01-15.3-4.16-21.28-14.17-26.55-23-2.55-4.28-4.97-8.32-8.23-11.41l3.16-3.34c3.73,3.53,6.3,7.84,9.02,12.4,5.06,8.48,10.29,17.24,23.8,20.91,10.23,2.78,20.73,2.37,34.02,1.86,13.71-.53,30.76-1.19,52.85,1.74l-.61,4.56Z" style="fill: #8747cc; stroke-width: 0px;"/>
    <path d="m263.04,272.87c-10.94,30.76-30.18,27.09-30.18,27.09,8.11-8.57,18.18-17.91,30.18-27.09Z" style="fill: #f7f7f7; stroke-width: 0px;"/>
    <ellipse cx="277.68" cy="346.17" rx="12.23" ry="5.6" transform="translate(-163.55 393.61) rotate(-57.4)" style="fill: #ffce0a; stroke-width: 0px;"/>
    <g>
      <path d="m314.91,417.61c-44.15-13.21-77.49-30.83-80.99-35.47-3.5-4.63-5.97-13.06.64-14.17.48-.09,1.38-.03,2.62.13,16.99,2.21,100.12,25.35,117.17,32.27,10.68,4.33,17.55,10.28,21.69,15.82,2.98,3.96,4.57,7.72,5.19,10.54,1.46,6.77-22.17,4.08-66.31-9.12Z" style="stroke-width: 0px;"/>
      <path d="m314.91,417.61c-44.15-13.21-77.49-30.83-80.99-35.47-3.5-4.63-5.97-13.06.64-14.17.48-.09,1.38-.03,2.62.13h.02c.26,8.32,53.01,28.39,89.48,37.43,36.47,9.05,49.36,10.66,49.36,10.66,2.98,3.96,4.57,7.72,5.19,10.54,1.46,6.77-22.17,4.08-66.31-9.12Z" style="fill: #642f9e; stroke-width: 0px;"/>
    </g>
    <path d="m658.5,189.55c-10.05,6.77-30.81,24.56-79.79,70.28,0,0-43.08-3.14-82.2-3.7-10.98-.16-21.64-.11-30.96.26-10.9.44-20.31-.11-28.49-1.3-23.69-3.44-37.05-12.28-46.65-18.02-12.23-7.32-6.66-14.74,10.01-21.89.93-.41,1.9-.81,2.9-1.2,25.52-10.53,65.79-27.76,97.08-38.52,0,0,.03,0,.03,0,16-4.65,41.61-7.44,76.48-4.85h.05c8.22.61,16.96,1.53,26.21,2.79h.03c16.46,2.24,34.54,5.57,54.21,10.27,2.77.66,3.43,4.31,1.08,5.89Z" style="fill: #f0d9ff; stroke-width: 0px;"/>
    <path d="m844.21,212.91c-11.02,6.64-22.86,12.99-35.23,18.9-13.15,6.28-26.89,12.06-40.87,17.17-11.06,4.04-22.26,7.65-33.44,10.74-48.53,13.43-96.48,17.13-129.3,3.69,34.85-48.44,73.37-70.92,109.62-79.05,10.13-2.27,20.08-3.42,29.72-3.7,8.47-.25,16.71.17,24.63,1.09,10.59,1.22,20.32,3.22,29.06,5.61,22.31,6.08,38.24,14.66,45.81,19.27,2.37,1.43,2.37,4.86,0,6.28Z" style="fill: #f0d9ff; stroke-width: 0px;"/>
    <path d="m768.11,248.98c-11.06,4.04-22.26,7.65-33.44,10.74,6.89-15.29,4.38-59.97-19.68-75.36,10.13-2.27,20.08-3.42,29.72-3.7,9.54,9.89,23.87,31.02,23.39,68.31Z" style="fill: #f7f7f7; stroke-width: 0px;"/>
    <path d="m844.21,212.91c-11.02,6.64-22.86,12.99-35.23,18.9.09-29.33-10.57-44.45-10.57-44.45,22.31,6.08,38.24,14.66,45.81,19.27,2.37,1.43,2.37,4.86,0,6.28Z" style="fill: #8747cc; stroke-width: 0px;"/>
    <path d="m746.21,256.34c21.62,24.5-.48,69.11,18.3,106,21.02.08,37.44-13.58,37.44-13.58-34.11-24.17,19.9-74.61-21.9-104.33l-33.84,11.91Z" style="fill: #d8b7fb; stroke-width: 0px;"/>
    <g>
      <path d="m654.2,235.39c7.85-6.85,71.5,1.34,69.15,13.44-2.35,12.1-75.16,17.48-75.16,17.48,0,0-1.84-24.08,6.01-30.92Z" style="fill: #8747cc; stroke-width: 0px;"/>
      <path d="m649.49,279.99c-1.68,0-3.04-1.36-3.05-3.04,0-1.02-.02-25,4.77-35.76.68-1.54,2.49-2.23,4.03-1.55,1.54.68,2.23,2.49,1.55,4.03-4.26,9.57-4.24,33.03-4.24,33.26,0,1.68-1.36,3.05-3.04,3.06h0Z" style="fill: #8747cc; stroke-width: 0px;"/>
    </g>
    <path d="m884.43,215.45c-9.61,8.1-20.69,14.34-31.67,20.23-14.68,7.75-29.72,14.68-44.93,21.3-60.31,26.07-122.35,47.81-184.35,69.37-.42.15-.86.3-1.28.45l-1.56-4.42c.38-.14.75-.27,1.14-.4,61.04-21.65,124.91-43.75,184.2-69.28,15.1-6.54,30.1-13.4,44.65-21.04,10.84-5.74,21.47-11.83,30.95-19.57,9.72-8.23,17.36-17.85,3.26-26.4-3.37-2.09-7.08-3.78-10.9-5.19-1.6-.54-3.2-1.07-4.82-1.57,5.37,1.03,10.62,2.04,15.72,3.04,14.57,7.87,16.54,18.91-.4,33.48Z" style="fill: #8747cc; stroke-width: 0px;"/>
    <path d="m823.75,381.62c-11.13,1.86-21.92,3.76-31.07,5.59-8.1-8.58-1.91-24.52-6.43-28.87-4.52-4.36,28.8-10.05,28.8-10.05,9.86,5.48.08,23.72,8.7,33.33Z" style="fill: #d8b7fb; stroke-width: 0px;"/>
    <g>
      <path d="m883.61,252.23c-6.7,28.49-22.4,67.52-22.4,67.52-3.81,6.38-8.12,15.56-17.6,20.47-44.01,22.77-122.06,38.37-122.06,38.37-1.45.27-2.13-1.68-.8-2.27,0,0,80.58-23.97,110.07-40.68,8.22-4.66,11.41-12.12,14.01-18,2.29-5.14,3.95-10.55,5.33-16.43,5.38-22.58,7.51-41.99,8.3-51.35.28-3.28,3.17-5.69,6.45-5.38l10.85.38c5.31.48,9.07,2.18,7.84,7.37Z" style="fill: #8747cc; stroke-width: 0px;"/>
      <path d="m883.61,252.23c-6.7,28.49-13.8,52.33-22.4,67.52l-16.38-2.08v-.03c2.29-5.14,3.95-10.55,5.34-16.43,5.43-22.79,7.55-42.36,8.32-51.62.26-3.14,3.03-5.44,6.17-5.14l11.11.41c5.31.48,9.07,2.18,7.84,7.37Z" style="stroke-width: 0px;"/>
    </g>
    <g>
      <ellipse cx="583.95" cy="374.41" rx="78.59" ry="49.58" transform="translate(133.63 902.04) rotate(-82.19)" style="fill: #4a3261; stroke-width: 0px;"/>
      <ellipse cx="585.58" cy="373.08" rx="60.16" ry="35.6" transform="translate(137.77 903.71) rotate(-82.34)" style="fill: #d8b7fb; stroke-width: 0px;"/>
      <path d="m580.38,434.89c-.77,0-1.54-.04-2.31-.12-6.9-.69-13.26-4.44-18.37-10.84-9.9-12.38-14.21-32.81-11.53-54.65,4.16-33.99,24.32-59.97,44.93-57.89,6.9.69,13.26,4.44,18.37,10.84,9.9,12.38,14.21,32.81,11.53,54.65l-1.98-.24,1.98.24c-4.01,32.72-22.84,58.01-42.62,58.01Zm10.34-119.63c-17.77,0-34.83,23.79-38.59,54.51-2.51,20.49,1.59,40.29,10.69,51.67,4.43,5.54,9.85,8.78,15.66,9.36.66.07,1.32.1,1.98.1,17.77,0,34.83-23.79,38.59-54.51,2.51-20.49-1.59-40.29-10.69-51.67-4.43-5.54-9.84-8.78-15.65-9.36-.66-.07-1.32-.1-1.98-.1Z" style="fill: #f0d9ff; stroke-width: 0px;"/>
      <ellipse cx="585.58" cy="373.08" rx="23.04" ry="13.64" transform="translate(137.77 903.71) rotate(-82.34)" style="fill: #f7f7f7; stroke-width: 0px;"/>
    </g>
    <path d="m603.22,173.39c-82.68,33.89-44.54,72.74-106.71,82.74-10.98-.16-21.64-.11-30.96.26-10.9.44-20.31-.11-28.49-1.3,28.53-54.75,56.36-43.79,84.81-49.67,21.54-4.45,31.99-24.83,55.05-34.83h.05s26.21,2.79,26.21,2.79h.03Z" style="fill: #f7f7f7; stroke-width: 0px;"/>
    <path d="m981.81,215.81c.03.4,0,.79-.11,1.16-.61,2.23-3.46,3.65-7.74,4.23h-.02c-4.14.55-9.62.31-15.7-.78-2.42-.43-4.94-1-7.51-1.7-.42-.12-.85-.24-1.26-.36-15.01-4.36-25.88-11.84-24.48-16.96,1.39-5.04,14.18-5.97,29.05-2.25.64.15,1.29.32,1.93.5,2.58.7,5.04,1.51,7.34,2.37,10.75,4.03,18.24,9.5,18.51,13.78Z" style="stroke-width: 0px;"/>
    <g>
      <path d="m982.15,188.28l-17.7,12.8c-.41.3-.79.61-1.15.95-2.61,2.35-4.21,5.61-4.44,9.16l-.19,2.81-.43,6.42c-2.42-.43-4.94-1-7.51-1.7-.42-.12-.85-.24-1.26-.36l.52-7.76c.05-.68.12-1.35.23-2.01.53-3.43,1.85-6.65,3.82-9.44,1.42-2.01,3.16-3.79,5.21-5.27l17.71-12.81,5.21,7.21Z" style="fill: #cec7ff; stroke-width: 0px;"/>
      <path d="m958.67,214l-.43,6.42c-2.42-.43-4.94-1-7.51-1.7-.42-.12-.85-.24-1.26-.36l.52-7.76c.05-.68.12-1.35.23-2.01,2.7,3.35,5.76,4.83,8.46,5.41Z" style="fill: #aca4ed; stroke-width: 0px;"/>
    </g>
    <g>
      <path d="m478.15,299.27c-.08,8.45-39.98,33.41-49.45,36.97-5.68,2.13-23.22,6.87-37.28,9.36-9.38,1.67-17.22,2.34-18.94.56-4.31-4.44-2.08-26.22,1.65-30.07,1.74-1.79,12.83-5.04,25.93-8.29,15.07-3.76,32.8-7.55,41.96-9.2,21.25-3.83,36.18-4.82,36.13.67Z" style="fill: #f7f7f7; stroke-width: 0px;"/>
      <path d="m434.14,341.1c-7.84,0-14.49-5.5-16.64-13.84-1.49-5.76-.57-12.13,2.57-17.93,3.55-6.55,9.9-12.3,18.37-16.63l2.79,5.47c-10.15,5.18-20.89,15.5-17.78,27.55,1.47,5.69,5.93,9.42,11.04,9.23l.2,6.14c-.18,0-.37,0-.55,0Z" style="fill: #bc83fb; stroke-width: 0px;"/>
      <path d="m391.42,345.61c-9.38,1.67-17.22,2.34-18.94.56-4.31-4.44-2.08-26.22,1.65-30.07,1.74-1.79,12.83-5.04,25.93-8.29,0,0-13.03,18.99-8.64,37.8Z" style="fill: #f0d9ff; stroke-width: 0px;"/>
    </g>
    <g>
      <path d="m438,425.66c-1.72,11.63-48.97,4.94-52.2-57.66-.13-2.79,1.46-5.45,3.37-5.58l6.82-.42,17.66-1.14c1.11-.09,2.1.76,2.56,2.16,5.08,14.83,9.3,25.81,12.63,34.17,6.86,17.17,9.95,23.17,9.16,28.47Z" style="fill: #642f9e; stroke-width: 0px;"/>
      <path d="m428.84,397.19c-13.12,1.68-27.34-4.47-32.85-35.2l17.66-1.14c1.11-.09,2.1.76,2.56,2.16,5.08,14.83,9.3,25.81,12.63,34.17Z" style="stroke-width: 0px;"/>
    </g>
    <path d="m529.79,357.41c-7.29,27.88-3.66,56.9-1,70.45,1.13,5.71-2.77,11.17-8.53,11.98-17.93,2.51-35.07,4.23-51.44,5.26,51.55-9.33,4.26-76.33,60.96-87.7h0Z" style="fill: #d8b7fb; stroke-width: 0px;"/>
    <path d="m1022.05,243.66c-23.38-20.59-46.85-22.37-48.09-22.46,4.28-.58,7.13-2,7.74-4.23.1-.37.14-.76.11-1.16,18.96,3.01,32.61,12.06,38.48,16.63.57,1.87.98,3.82,1.25,5.88.21,1.64.38,3.43.51,5.33Z" style="fill: #8747cc; stroke-width: 0px;"/>
  </g>
  <g>
    <g>
      <path d="m1564.1,11.21v284.92l-20.43,6.26-3.31-34.81-.98-10.29-7.71-81.07-12.58-132.29-1.63-17.14L1514.91,0h46.64c1.63,3.39,2.55,7.19,2.55,11.21Z" style="fill: #5849ba; stroke-width: 0px;"/>
      <path d="m1543.67,15.55v286.84h-172.39V15.55C1371.28,9.86,1372.85,4.54,1375.59,0h163.76c2.74,4.54,4.32,9.86,4.32,15.55Z" style="fill: #7a68e8; stroke-width: 0px;"/>
      <rect x="1371.27" y="26.79" width="172.4" height="17.14" style="fill: #b8aeff; stroke-width: 0px;"/>
      <rect x="1430.51" y="100.41" width="61.55" height="70.28" rx="11.58" ry="11.58" style="fill: #5646bd; stroke-width: 0px;"/>
      <rect x="1443.08" y="111.17" width="47.04" height="53.72" rx="8.05" ry="8.05" style="fill: #372980; stroke-width: 0px;"/>
      <ellipse cx="1553.67" cy="35.16" rx="12.3" ry="3.9" transform="translate(1492.88 1588.04) rotate(-89.05)" style="fill: #372980; stroke-width: 0px;"/>
      <rect x="1371.27" y="257.29" width="172.4" height="45.09" style="fill: #b8aeff; stroke-width: 0px;"/>
      <polygon points="1543.67 257.29 1564.1 253.96 1564.1 296.13 1543.67 302.39 1543.67 257.29" style="fill: #8d7cf7; stroke-width: 0px;"/>
      <g>
        <rect x="1394.95" y="68.81" width="124.83" height="13.64" style="fill: #f7f7f7; stroke-width: 0px;"/>
        <rect x="1394.95" y="68.81" width="94.61" height="13.64" style="fill: #b8aeff; stroke-width: 0px;"/>
        <g>
          <path d="m1402.07,64.29c-.58,0-1.04-.47-1.04-1.04v-8.25c0-.58.47-1.04,1.04-1.04s1.04.47,1.04,1.04v8.25c0,.58-.47,1.04-1.04,1.04Z" style="fill: #5849ba; stroke-width: 0px;"/>
          <path d="m1429.77,64.29c-.58,0-1.04-.47-1.04-1.04v-8.25c0-.58.47-1.04,1.04-1.04s1.04.47,1.04,1.04v8.25c0,.58-.47,1.04-1.04,1.04Z" style="fill: #5849ba; stroke-width: 0px;"/>
          <path d="m1457.47,64.29c-.58,0-1.04-.47-1.04-1.04v-8.25c0-.58.47-1.04,1.04-1.04s1.04.47,1.04,1.04v8.25c0,.58-.47,1.04-1.04,1.04Z" style="fill: #5849ba; stroke-width: 0px;"/>
          <path d="m1485.17,64.29c-.58,0-1.04-.47-1.04-1.04v-8.25c0-.58.47-1.04,1.04-1.04s1.04.47,1.04,1.04v8.25c0,.58-.47,1.04-1.04,1.04Z" style="fill: #5849ba; stroke-width: 0px;"/>
          <path d="m1512.87,64.29c-.58,0-1.04-.47-1.04-1.04v-8.25c0-.58.47-1.04,1.04-1.04s1.04.47,1.04,1.04v8.25c0,.58-.47,1.04-1.04,1.04Z" style="fill: #5849ba; stroke-width: 0px;"/>
          <path d="m1415.92,64.29c-.58,0-1.04-.47-1.04-1.04v-4.68c0-.58.47-1.04,1.04-1.04s1.04.47,1.04,1.04v4.68c0,.58-.47,1.04-1.04,1.04Z" style="fill: #5849ba; stroke-width: 0px;"/>
          <path d="m1443.94,64.29c-.58,0-1.04-.47-1.04-1.04v-4.68c0-.58.47-1.04,1.04-1.04s1.04.47,1.04,1.04v4.68c0,.58-.47,1.04-1.04,1.04Z" style="fill: #5849ba; stroke-width: 0px;"/>
          <path d="m1471.95,64.29c-.58,0-1.04-.47-1.04-1.04v-4.68c0-.58.47-1.04,1.04-1.04s1.04.47,1.04,1.04v4.68c0,.58-.47,1.04-1.04,1.04Z" style="fill: #5849ba; stroke-width: 0px;"/>
          <path d="m1499.97,64.29c-.58,0-1.04-.47-1.04-1.04v-4.68c0-.58.47-1.04,1.04-1.04s1.04.47,1.04,1.04v4.68c0,.58-.47,1.04-1.04,1.04Z" style="fill: #5849ba; stroke-width: 0px;"/>
        </g>
        <path d="m1520.82,83.5h-126.91v-15.72h126.91v15.72Zm-124.83-2.08h122.75v-11.56h-122.75v11.56Z" style="fill: #5849ba; stroke-width: 0px;"/>
      </g>
    </g>
    <g>
      <circle cx="1463.14" cy="196.15" r="17.29" style="fill: #b8aeff; stroke-width: 0px;"/>
      <circle cx="1463.14" cy="196.15" r="10.32" style="fill: #372980; stroke-width: 0px;"/>
    </g>
    <rect x="1381.58" y="43.93" width="2.08" height="213.31" style="fill: #5849ba; stroke-width: 0px;"/>
    <rect x="1530.62" y="43.93" width="2.08" height="213.31" style="fill: #5849ba; stroke-width: 0px;"/>
  </g>
  <g>
    <circle cx="1172.65" cy="47.96" r="3.62" style="fill: #f7f7f7; stroke-width: 0px;"/>
    <circle cx="1191.81" cy="108.92" r="5.07" style="fill: #f7f7f7; stroke-width: 0px;"/>
    <circle cx="1073.2" cy="67.03" r="5.43" style="fill: #f7f7f7; stroke-width: 0px;"/>
    <circle cx="1084.84" cy="92.79" r="3.93" style="fill: #f7f7f7; stroke-width: 0px;"/>
    <circle cx="1108.77" cy="20.89" r="6.69" style="fill: #f7f7f7; stroke-width: 0px;"/>
    <circle cx="1175.21" cy="159.44" r="4.08" style="fill: #f7f7f7; stroke-width: 0px;"/>
  </g>
  <g>
    <path d="m1397.59,162.15c-1.66-.38-3.32-.73-4.97-1.06l1.17,13.01c1.78.38,3.59.81,5.42,1.28,0,0,0-7.5-1.62-13.23Z" style="fill: #372980; stroke-width: 0px;"/>
    <path d="m1411.73,179.06c-.02.97-.05,1.94-.1,2.91-1.57,29.5-18.27,53.93-42.53,62.23-8.61,2.94-17.19,4.38-25.3,4.38-14.3,0-27.13-4.48-36.13-13.12-10.06-9.67-13.44-23.22-9.28-37.21,4.76-15.98,16.44-27.9,33.77-34.46,16.59-6.27,37.49-7.21,60.45-2.71h.02c1.47,5.66,1.18,13.01,1.18,13.01-10.34-2.26-19.88-3.25-28.47-3.25-11.41,0-21.12,1.76-28.75,4.64-13.54,5.13-22.61,14.23-26.21,26.33-2.82,9.47-.71,18.22,5.96,24.62,10.53,10.12,29.66,12.44,48.72,5.92,19.42-6.64,32.81-26.68,34.1-51.06.1-1.98.13-3.96.07-5.93,0,0,0-7.5-1.62-13.23-1.66-7.62-4.56-14.97-8.62-21.83-8.47-14.25-21.38-25.49-38.38-33.41-38.58-17.97-90.82-23.2-147.11-14.72-57.07,8.58-116.76,30.66-173.46,64.05-4.29,2.53-8.57,5.12-12.83,7.78-2.93,1.83-6.78.93-8.61-1.99-1.83-2.93-1.73-6.19,1.19-8.02,4.07-2.53,8.15-5.02,12.26-7.45,58.41-34.55,120.65-57.87,179.58-66.73,59.54-8.96,112.88-3.51,154.25,15.76,19.06,8.87,34.22,22.13,43.85,38.36,5.87,9.88,9.65,20.66,11.22,31.79,1.06,8.36.8,13.33.8,13.33Z" style="fill: #5646bd; stroke-width: 0px;"/>
    <path d="m1468.93,200.41c-1.83,2.93-5.68,3.82-8.62,1.99-15.26-9.52-29.82-16.55-43.39-21.53-1.75-.64-3.48-1.24-5.19-1.82,0,0,.26-4.98-.8-13.33,1.54.48,3.08.97,4.62,1.48,17.02,5.7,34.45,14.02,51.38,24.59,2.93,1.83,3.82,5.68,1.99,8.61Z" style="fill: #5646bd; stroke-width: 0px;"/>
    <path d="m1416.92,180.88c-1.75-.64-3.48-1.24-5.19-1.82,0,0,.26-4.98-.8-13.33,1.54.48,3.08.97,4.62,1.48,1.92,5.04,1.78,10.28,1.37,13.67Z" style="fill: #372980; stroke-width: 0px;"/>
    <path d="m1030.02,156.23c-4.29,2.53-8.57,5.12-12.83,7.78-2.93,1.83-6.78.93-8.61-1.99-1.83-2.93-1.73-6.19,1.19-8.02,4.07-2.53,8.15-5.02,12.26-7.45,5.78,2.26,7.53,6.49,7.98,9.68Z" style="fill: #372980; stroke-width: 0px;"/>
  </g>
  <g>
    <path d="m1083.93,379.09c1.47,13.79,147.29,5.6,145.21-5.22s-146.68-8.58-145.21,5.22Z" style="fill: #372980; stroke-width: 0px;"/>
    <path d="m1251.17,327.89c-4.38,10.73-28.63,20.94-38.76,3.93-10.13-17.01-12.73-45.19-28.32-69.92-15.6-24.73-34.42-27.6-42.87-50.66-20.24-55.19,17.39-21.16,17.39-21.16,18.98,14.17,30.36,26.06,39.59,40.51l.08.11c3.14,4.91,6.03,10.11,8.88,15.8,9.1,20.66,10.95,42.67,13.2,59.27,1.73,12.74,4,20.96,9.38,23.32,10.5,4.61,25.3-10.64,21.44-1.2Z" style="fill: #8747cc; stroke-width: 0px;"/>
    <g>
      <path d="m1103.87,333.75c-1.17-1.37-2.31-2.81-3.42-4.32-18.13-24.55-26.51-64.71,2.79-107.23,4.09-5.96,8.94-11.96,14.6-17.97l20.47.74c16.2,35.28-19.55,53.09-25.03,76.68,0,.03-.02.05-.02.08-.36,1.61-.59,3.25-.65,4.92-.26,7.3-.08,13.89.68,19.91,2.4,18.91,10.6,32.22,29.06,44.22,6.66,4.34-17.33,7.88-38.49-17.02Z" style="fill: #8747cc; stroke-width: 0px;"/>
      <ellipse cx="1096.7" cy="295" rx="5.9" ry="12.84" transform="translate(-17.8 76.67) rotate(-3.97)" style="fill: #d8b7fb; stroke-width: 0px;"/>
      <path d="m1117.88,346.34c-3.75-2.48-7.65-5.68-11.5-9.77-.84-.89-1.68-1.83-2.52-2.81-1.17-1.37-2.31-2.81-3.42-4.32,2.11-7.42,6.01-15.35,12.84-22.88.56,4.44,1.45,8.58,2.71,12.45,1.37,4.25,3.21,8.2,5.58,11.91,4.66,7.32,11.39,13.76,20.77,19.86,5.2,3.38-8.26,6.28-24.48-4.43Z" style="fill: #bc83fb; stroke-width: 0px;"/>
      <ellipse cx="1102.1" cy="253.1" rx="16.58" ry="8.48" transform="translate(488.4 1202.86) rotate(-70.06)" style="fill: #d8b7fb; stroke-width: 0px;"/>
      <path d="m1113.29,281.65c3.14-21.44,14.83-52.31-10.05-59.45,4.09-5.96,8.94-11.96,14.6-17.97l20.47.74c16.2,35.28-19.55,53.09-25.03,76.68Z" style="fill: #6a2da8; stroke-width: 0px;"/>
      <path d="m1117.88,346.34c-3.75-2.48-7.65-5.68-11.5-9.77l3.46-14.17,6.16-3.39c1.37,4.25,3.21,8.2,5.58,11.91-3.92,5.7-4.09,11.74-3.7,15.42Z" style="fill: #8747cc; stroke-width: 0px;"/>
    </g>
    <path d="m1153.84,371.14c-2.73,3.76-18.21-20.04-26.2-52.84-2-8.19-3.54-16.95-4.28-25.98-.23-2.8-.39-5.63-.46-8.48-1.23-48.73,39.11-76.5,39.11-76.5-8.64,25.47-12.79,49.18-14.35,70.2-.54,7.17-.78,14.03-.8,20.54-.08,42.3,9.24,69.94,6.99,73.04Z" style="fill: #bc83fb; stroke-width: 0px;"/>
    <path d="m1147.65,277.55c-.54,7.17-.78,14.03-.8,20.54-8.13,1.67-18.09,13.49-19.22,20.21-2-8.19-3.54-16.95-4.28-25.98l24.3-14.77Z" style="fill: #8747cc; stroke-width: 0px;"/>
    <path d="m1206.97,293.16c-6.91,44.73-36.43,69.22-44.9,72.68-6.28,2.56,2.14-7.09,9.24-18.91,2.48-4.13,4.8-8.53,6.27-12.76,8.34-23.92,5.96-72.19-26.09-96.31-1.7-7.39-4.07-13.25-6.93-17.6-6.44-9.83-15.43-11.9-25.13-6.53-2.46,1.36-5.43,2.88-8.84,4.37h0c-15.97,7.04-41.39,13.64-66.91,1.63-9.98-4.7-20.44-12.89-30.07-21.9-3.5-3.27-6.88-6.66-10.11-10.02-.25-.27-.51-.53-.76-.81-8.76-9.22-16.18-18.21-20.99-24.32-2.9-3.69-4.85-6.33-5.58-7.36-3.26-4.65,3.78-9.88,17.06-.45,1.36.97,2.8,2.09,4.29,3.38,7.37,6.4,13.33,13.98,21,20.81,2.28,2.03,4.71,3.99,7.38,5.84,7.83,5.43,17.66,9.85,31.6,11.96,15.02,2.27,31.62-19.26,59.84-27.62,7.19-2.14,15.13-3.42,24-3.22,4.75,1,9.25,2.56,13.51,4.6,40.22,19.31,58.39,81.96,52.12,122.51Z" style="fill: #bc83fb; stroke-width: 0px;"/>
    <path d="m993.24,154.89l-11.48,7.81c-2.9-3.69-4.85-6.33-5.58-7.36-3.26-4.65,3.78-9.88,17.06-.45Z" style="fill: #8747cc; stroke-width: 0px;"/>
    <path d="m1025.91,184.93c-3.27,6.56-8.25,10.57-12.28,12.92-3.5-3.27-6.88-6.66-10.11-10.02l15.01-8.74c2.28,2.03,4.71,3.99,7.38,5.84Z" style="fill: #8747cc; stroke-width: 0px;"/>
    <path d="m1110.6,218.12h0c-15.97,7.04-41.39,13.64-66.91,1.63-13.9-6.54-28.71-19.85-40.94-32.72,19.34,20.12,36.03,25.55,54.37,28.08,16.37,2.27,31.09-4.54,53.48,3.01Z" style="fill: #8747cc; stroke-width: 0px;"/>
    <path d="m1177.59,334.18c8.34-23.92,5.96-72.19-26.09-96.31-1.7-7.39-4.07-13.25-6.93-17.6l-.47-2.21c55.43,22.83,61.55,93.85,27.21,128.88,2.48-4.13,4.8-8.53,6.27-12.76Z" style="fill: #8747cc; stroke-width: 0px;"/>
    <path d="m1186.7,274.54c1.91,7.05,1.45,13.3-1.02,13.97-2.47.67-4.73-4.83-6.63-11.88-1.91-7.05-2.75-12.98-.28-13.65s6.03,4.5,7.94,11.55Z" style="fill: #d8b7fb; stroke-width: 0px;"/>
    <path d="m1186.41,312.02c-.76,5.97-2.93,10.61-4.84,10.37s-1.84-5.14-1.08-11.11c.76-5.97,1.93-10.76,3.84-10.51s2.84,5.28,2.07,11.25Z" style="fill: #d8b7fb; stroke-width: 0px;"/>
    <ellipse cx="1074.93" cy="223.44" rx="15" ry="4.25" transform="translate(-8.51 45.76) rotate(-2.43)" style="fill: #d8b7fb; stroke-width: 0px;"/>
    <path d="m1037.49,218.29c-4.57-2.58-7.7-5.7-6.98-6.97s4.72.29,9.29,2.87c4.57,2.58,7.98,5.2,7.26,6.47s-5,.2-9.57-2.38Z" style="fill: #d8b7fb; stroke-width: 0px;"/>
    <path d="m1154.85,170.65s-19.01,12.18-37.51-1.38c7.19-2.14,15.13-3.42,24-3.22,4.75,1,9.25,2.56,13.51,4.6Z" style="fill: #8747cc; stroke-width: 0px;"/>
    <g>
      <ellipse cx="1131.28" cy="134.03" rx="37.18" ry="38.17" transform="translate(-5.94 201.07) rotate(-10.13)" style="fill: #bc83fb; stroke-width: 0px;"/>
      <path d="m1132.4,147.93c-.34,5.76-7.04,9.1-11.04,4.22-1.13-1.36-2.56-6,.1-6.06.76.03,1.35.67,1.34,1.41.04,1.98,1.19,3.9,3.22,3.93,2.13.06,3.33-1.95,3.71-3.96.39-1.65,2.85-1.22,2.66.46h0Z" style="fill: #151424; stroke-width: 0px;"/>
      <path d="m1094.26,129.77c-4.49-8.49.49-18.5,5.63-20.33,6.69-2.39,19.49-10.91,19.49-10.91,17.53,13.63,41.88,13.21,41.88,13.21,10.83,3.25,11.97,19.68,7.17,20.46-5.67.92-31.88-2.69-50.79-22.65-14.44,10.68-23.38,20.23-23.38,20.23Z" style="fill: #bc83fb; stroke-width: 0px;"/>
      <path d="m1134.14,32.34c-2.94.05-12.01,21.45-27.21,42.65-12.78,17.82.44,25.5.44,25.5l28.38-51.82-1.61-16.33Z" style="fill: #8747cc; stroke-width: 0px;"/>
      <path d="m1134.14,32.34c3.14-.05,9.83,22.7,30.08,44.31,9.69,10.34-6.88,25.21-6.88,25.21-16.71-15.57-22.84-60.64-22.84-60.64l-.36-8.87Z" style="fill: #8747cc; stroke-width: 0px;"/>
      <path d="m1099.47,110.92c13.35-25.28,32.46-73.83,35.03-69.71,2.57,4.12,15.11,45.99,28.89,73.85-45.82-2.57-63.92-4.14-63.92-4.14Z" style="fill: #bc83fb; stroke-width: 0px;"/>
      <path d="m1127.06,93.2c.98-11.58,2.96-23.09,4.51-34.59.49-3.82.8-7.67,1.2-11.53.06-.65,1.07-.63,1.08.04.07,3.89-.03,7.79-.33,11.69-1.19,11.62-3.14,23.08-5.05,34.58-.15.86-1.49.71-1.41-.19h0Z" style="fill: #8747cc; stroke-width: 0px;"/>
      <path d="m1167.33,133.21c-13.47,1.76-31.72-12.68-41.32-21.24-.22-.05-.05-.18-1,.45-3.59,2.42-7.23,4.89-10.87,7.23-5.92,3.76-11.85,7.49-18.36,10.2-.38.15-.8-.03-.96-.4-.15-.37.02-.79.39-.95,3.11-1.4,6.1-3.15,9.04-4.97,6.61-4.12,12.93-8.75,19.22-13.34,0,0,.55-.39.55-.39.77-.64,2.25-.86,3.2-.33.48.21.94.68,1.34,1.01,6.12,5.39,12.56,10.55,19.52,14.73,4.75,2.8,9.78,5.21,15.23,6.11,1.17.15,2.5.27,3.64.07,1.15-.21,1.54,1.53.37,1.81h0Z" style="fill: #8747cc; stroke-width: 0px;"/>
      <path d="m1161.27,112.45c-5.55.05-10.89-1.23-16.05-3.12-6.1-2.22-11.83-5.41-16.87-9.49-.22-.16-.06-.05-.02-.05.1.02.22,0,.3-.06.04-.03-.03.02-.07.04-.08.05-.53.3-.62.35-8.27,3.86-16.76,7.15-25.63,9.43-.71.17-1.02-.93-.28-1.13,5.07-1.49,10-3.59,14.87-5.74,3.3-1.49,6.64-3.02,9.8-4.79.36-.21.74-.52,1.16-.62,1.14-.36,2.07.47,2.87,1,0,0,1.64,1.1,1.64,1.1,8.7,5.66,18.39,10.68,28.86,11.63.92,0,.99,1.41.02,1.44h0Z" style="fill: #8747cc; stroke-width: 0px;"/>
      <g>
        <path d="m1163.32,134.45c-2.24,7.44-8.51,11.99-15.15,13.08-1.61.27-3.25.33-4.85.18-6.73-.63-12.95-4.98-14.84-13.65-.25-1.13.65-2.2,1.82-2.2l16.98.11,6.42.04,7.87.05c1.24.01,2.11,1.21,1.75,2.39Z" style="fill: #151424; stroke-width: 0px;"/>
        <path d="m1124.52,134.34c-2.28,7.09-8.2,11.46-14.56,12.66-1.49.28-3.01.39-4.5.32-7.18-.35-13.95-4.82-15.78-14.02-.22-1.15.7-2.2,1.87-2.17l17.65.45,6.93.17,6.68.17c1.24.03,2.09,1.25,1.71,2.42Z" style="fill: #151424; stroke-width: 0px;"/>
        <path d="m1169.03,142.62c-.62,0-1.2-.36-1.46-.96l-.8-1.85c-.48-1.1-1.56-1.82-2.76-1.82h-44.55c-.88,0-1.59-.71-1.59-1.59s.71-1.59,1.59-1.59h44.55c2.48,0,4.71,1.47,5.69,3.74l.8,1.86c.35.81-.02,1.75-.83,2.09-.21.09-.42.13-.63.13Z" style="fill: #151424; stroke-width: 0px;"/>
        <path d="m1153.7,132.02c-4.26,1.55-4.62,4.89-4.79,9.83-.06,1.79-.13,3.87-.74,5.69-1.61.27-3.25.33-4.85.18,1.25-.68,1.47-2.32,1.59-6.01.1-2.93.23-6.74,2.37-9.73l6.42.04Z" style="fill: #454175; stroke-width: 0px;"/>
        <path d="m1116.13,131.76c-5.03,1.41-5.42,4.86-5.59,10.09-.06,1.62-.12,3.47-.58,5.16-1.49.28-3.01.39-4.5.32.8-.84.97-2.5,1.08-5.62.1-3.06.24-7.08,2.66-10.12l6.93.17Z" style="fill: #454175; stroke-width: 0px;"/>
      </g>
    </g>
    <g>
      <path d="m1144.91,257.12c18.46,48,10.12,93.83,16.4,88.33,6.27-5.51,16.29-49.68,4.84-96.15-11.44-46.46-27.75-9.12-21.24,7.82Z" style="fill: #6a2da8; stroke-width: 0px;"/>
      <ellipse cx="1159.27" cy="280.95" rx="4.26" ry="8.11" transform="translate(-21.19 109.6) rotate(-5.36)" style="fill: #bc83fb; stroke-width: 0px;"/>
      <ellipse cx="1161.72" cy="304.85" rx="3.55" ry="6.77" transform="translate(-9.66 39.54) rotate(-1.94)" style="fill: #bc83fb; stroke-width: 0px;"/>
      <ellipse cx="1161.72" cy="327.05" rx="5.13" ry="2.69" transform="translate(827.48 1486.72) rotate(-89.65)" style="fill: #bc83fb; stroke-width: 0px;"/>
    </g>
    <g>
      <path d="m1136.97,381.96c-2.9.98-7.14,1.08-11.99-.07-11.45-2.7-26.28-12.28-34.77-33.06-12.75-31.21,18.24-73.7,30.08-90.89,6.34-9.21,7.14-23.81,6.5-35.39-.55-10.05-2.18-17.84-2.18-17.84l36.63-12.51c25.98,54.85-19.89,98.11-35.92,120.54-14.53,20.33-13.45,46.8-6.72,53.52,6.72,6.72,24.12,13.74,18.36,15.7Z" style="fill: #bc83fb; stroke-width: 0px;"/>
      <path d="m1124.99,381.88h0c-11.45-2.7-26.28-12.28-34.77-33.05-12.75-31.21,18.24-73.7,30.08-90.89,6.34-9.21,7.14-23.81,6.5-35.39,18.48,50.37-12.72,64.94-25.85,91.31-13.14,26.37,1.97,58.97,24.04,68.02Z" style="fill: #8747cc; stroke-width: 0px;"/>
      <ellipse cx="1114.08" cy="278.04" rx="16.72" ry="4.79" transform="translate(256.22 1041.29) rotate(-55.67)" style="fill: #d8b7fb; stroke-width: 0px;"/>
      <path d="m1095.77,317.18c-2,7.13-4.43,12.43-6.39,11.88s-2.71-6.74-.71-13.87c2-7.13,6-12.5,7.96-11.95s1.14,6.81-.86,13.94Z" style="fill: #d8b7fb; stroke-width: 0px;"/>
      <path d="m1095.55,351.06c1.75,5.43,2.45,9.87.95,10.35s-4.61-3.18-6.36-8.61-1.47-10.58.03-11.06,3.63,3.89,5.38,9.32Z" style="fill: #d8b7fb; stroke-width: 0px;"/>
    </g>
  </g>
  <polygon points="76.21 328.23 0 413.43 0 438.15 83.4 328.23 76.21 328.23" style="fill: #b8aeff; stroke-width: 0px;"/>
  <g>
    <polygon points="1318.91 303.23 1340.47 303.23 1348.13 300.74 1328.79 300.73 1318.91 303.23" style="fill: #7a68e8; stroke-width: 0px;"/>
    <path d="m1328.79,259.15v41.58l-9.88,2.5h-43.17v-44.08c0-2.95,2.39-5.35,5.35-5.35h42.35c2.96,0,5.35,2.4,5.35,5.35Z" style="fill: #372980; stroke-width: 0px;"/>
    <path d="m1318.91,259.84v43.39h-43.17v-44.08c0-2.95,2.39-5.35,5.35-5.35h31.78c3.33,0,6.04,2.7,6.04,6.04Z" style="fill: #5646bd; stroke-width: 0px;"/>
    <rect x="1275.74" y="273.15" width="43.09" height="2.08" style="fill: #372980; stroke-width: 0px;"/>
  </g>
  <g>
    <polygon points="126.57 303.23 148.13 303.23 155.79 300.74 136.45 300.73 126.57 303.23" style="fill: #7a68e8; stroke-width: 0px;"/>
    <path d="m136.45,259.15v41.58l-9.88,2.5h-43.17v-44.08c0-2.95,2.39-5.35,5.35-5.35h42.35c2.96,0,5.35,2.4,5.35,5.35Z" style="fill: #372980; stroke-width: 0px;"/>
    <path d="m126.57,259.84v43.39h-43.17v-44.08c0-2.95,2.39-5.35,5.35-5.35h31.78c3.33,0,6.04,2.7,6.04,6.04Z" style="fill: #5646bd; stroke-width: 0px;"/>
    <rect x="83.4" y="273.15" width="43.09" height="2.08" style="fill: #372980; stroke-width: 0px;"/>
  </g>
  <g>
    <g>
      <path d="m1032.35,166.94v3.48c0,2.28-1.08,4.42-2.89,5.79l-33.42,25.09c-2.53,1.9-5.99,1.93-8.56.1l-3.37-2.42c-.59-.42-1.12-.93-1.56-1.52l-3.15-4.17-.36-.47-11.97-15.82c-2.48-3.28-1.74-7.95,1.63-10.3l10.22-7.13,7.38-5.15,16.57-11.56c2.87-2,6.77-1.66,9.25.82l13.83,13.82s.02.02.03.03l4.27,4.27c1.36,1.36,2.12,3.2,2.12,5.12Z" style="fill: #6656d1; stroke-width: 0px;"/>
      <path d="m1032.35,166.94v3.48c0,2.28-1.08,4.42-2.89,5.79l-33.42,25.09c-2.53,1.9-5.99,1.93-8.56.1l-3.37-2.42c-.59-.42-1.12-.93-1.56-1.52l-3.15-4.17c1.75,2.31,5.03,2.77,7.35,1.03l38.62-28.88c2.55-1.92,2.83-5.65.59-7.92l4.27,4.27c1.36,1.36,2.12,3.2,2.12,5.12Z" style="fill: #372980; stroke-width: 0px;"/>
    </g>
    <g>
      <path d="m998.26,182.29c-11.39-10.14-17.15-18.9-19.35-22.7l7.38-5.15c3.08,11.9,14.12,22.5,11.98,27.85Z" style="fill: #5243b5; stroke-width: 0px;"/>
      <path d="m987.66,151.56c-11.81-6.94-18.47-4.43-17.19,2.61,1.08,5.99,9.06,14.65,18.13,22.72,14.16,12.6,11.99,5.04,4.56-4.47-6.02-7.71-18.59-25.13-5.5-20.86Z" style="fill: #bc83fb; stroke-width: 0px;"/>
    </g>
    <ellipse cx="1008.65" cy="157.55" rx="4.46" ry="6.06" transform="translate(124.81 668.45) rotate(-38.91)" style="fill: #a396ff; stroke-width: 0px;"/>
  </g>
  <g>
    <ellipse cx="1399.46" cy="479.16" rx="33.87" ry="20.84" style="fill: #8d7cf7; stroke-width: 0px;"/>
    <path d="m1511.71,478.69c0,9.49-12.51,17.19-27.93,17.19s-27.94-7.7-27.94-17.19,12.51-17.19,27.94-17.19,27.93,7.69,27.93,17.19Z" style="fill: #8d7cf7; stroke-width: 0px;"/>
    <path d="m1571.02,479.04c0,6.34-8.35,11.48-18.65,11.48s-18.65-5.14-18.65-11.48,8.35-11.47,18.65-11.47,18.65,5.14,18.65,11.47Z" style="fill: #8d7cf7; stroke-width: 0px;"/>
    <path d="m1600,415.38v37.98c0,8.31-4.08,15.66-10.34,20.17-2.4,1.73-5.84.86-6.95-1.88-3.92-9.72-16.41-16.83-31.21-16.83-9.47,0-17.99,2.91-23.93,7.55-1.9,1.49-4.64,1.26-6.24-.56-7.65-8.68-21.22-14.45-36.68-14.45-13.95,0-26.37,4.71-34.28,12.01-1.85,1.7-4.72,1.54-6.43-.3-9.32-10.07-25.82-16.76-44.62-16.76-27.05,0-49.35,13.85-52.36,31.7-.41,2.4-2.49,4.14-4.91,4.14h-241.11s-138.29.01-138.29.01c9.92-5.87,22.26-12.46,37.12-19.11,4.5-2.02,9.24-4.05,14.21-6.05,4.77-1.95,9.77-3.87,14.97-5.77,3.96-1.44,8.03-2.87,12.24-4.27,3.58-1.2,7.25-2.38,11.02-3.55,4.01-1.23,8.13-2.45,12.36-3.64.36-.1.72-.2,1.08-.3.01-.01.02-.01.04-.01,7.48-2.09,15.08-4.02,22.92-5.8,5.76-1.31,11.65-2.54,17.73-3.69,9.45-1.79,19.35-3.39,29.92-4.81.02-.01.04-.01.06-.01,7.11-.96,14.53-1.84,22.3-2.64h.01c8.05-.83,16.48-1.58,25.37-2.24,29.93-2.24,65.03-3.59,107.95-4.17.29,0,.59-.01.88-.01h.02c.65-.01,1.32-.02,1.98-.03.46-.01.92-.01,1.38-.02.48-.01.95-.01,1.43-.02,3.94-.04,7.95-.07,12.03-.11h.35c31.29-.26,66.5-.16,106.54.27,3.31.04,6.64.07,10.01.11h.01c1.79.02,3.57.04,5.38.07h.01c1.13.01,2.26.02,3.4.04,5.69.07,11.48.15,17.36.23.8.01,1.6.02,2.4.04.25,0,.51,0,.76.01,3.99.05,8.02.11,12.1.17,14.6.23,29.78.49,45.55.78,4.58.08,9.22.16,13.91.25,22.92.44,72.55,1.5,72.55,1.5Z" style="fill: #8d7cf7; stroke-width: 0px;"/>
    <path d="m1600,418.07c-25.26-.55-49.22-1.04-71.96-1.47h-.01c-4.52-.09-8.98-.17-13.41-.24-16.14-.3-31.65-.56-46.56-.77-2.86-.05-5.7-.09-8.52-.13-.79,0-1.57-.02-2.36-.04-.94-.01-1.88-.02-2.82-.04-5.58-.07-11.07-.14-16.48-.21h-.01c-.87-.01-1.74-.02-2.61-.03-5.09-.06-10.1-.12-15.03-.17-2.26-.02-4.51-.05-6.74-.07-44.88-.44-83.6-.46-117.44-.04-44.89.57-81.17,1.94-111.78,4.22-8.73.64-17,1.37-24.88,2.17-8.53.86-16.59,1.82-24.28,2.87h0s-.02,0-.03.01c-9.83,1.34-19.04,2.83-27.83,4.48-7.77,1.46-15.21,3.04-22.44,4.76h0c-6.64,1.57-13.08,3.25-19.46,5.04t-.02.01c-4.58,1.29-9.04,2.62-13.38,3.98-3.33,1.05-6.58,2.11-9.77,3.2-4.19,1.42-8.26,2.87-12.21,4.34-4.64,1.72-9.11,3.48-13.42,5.25-3.77,1.55-7.41,3.11-10.93,4.67,0,0-.01-.01-.01,0-.84.37-1.66.74-2.48,1.11-12.91,5.84-24.12,11.71-33.64,17.19h-10.75c10.3-6.31,23.01-13.33,38.11-20.35,4.71-2.2,9.66-4.39,14.84-6.56,5.2-2.18,10.62-4.34,16.29-6.45h.01c3.96-1.47,8.03-2.92,12.22-4.35,4.01-1.36,8.12-2.69,12.33-3.99,3.69-1.14,7.46-2.26,11.31-3.34.74-.21,1.48-.42,2.23-.62.02-.01.03-.01.05-.01,8.92-2.47,18.02-4.72,27.55-6.77,3.93-.84,7.94-1.65,12.04-2.42,9.53-1.8,19.55-3.42,30.3-4.85.03-.01.07-.01.1-.01,6.98-.94,14.26-1.79,21.91-2.58h.01c8.14-.84,16.69-1.59,25.73-2.26,28.45-2.12,61.76-3.45,102.26-4.09,7.73-.12,15.7-.22,23.97-.29h.01c32.44-.28,69.16-.19,111.15.26h.01c1.48.01,2.96.03,4.46.04h.01c1.77.02,3.55.04,5.34.07,6.3.07,12.73.15,19.27.24h.01c1.23.01,2.45.03,3.69.04,4.12.06,8.27.12,12.48.18h.01c14.76.22,30.11.47,46.08.76,4.71.08,9.47.17,14.29.26,23.11.43,47.49.93,73.21,1.49v5.51Z" style="fill: #a396ff; stroke-width: 0px;"/>
    <g>
      <path d="m1313.51,445.02c1.18.77,2.66-.44,2.13-1.75-16.66-41.02-4.99-67.97-20.96-80.32-13.01-10.06-20.82,16.11-14.13,39.9,6.38,22.67,24.87,36.87,32.96,42.17Z" style="fill: #45339e; stroke-width: 0px;"/>
      <path d="m1320.54,444.14c1.95,3.11,6.08-3.77,9.51-12.39,3.28-8.23,6.79-18.66,2.16-18.66-12.36,0-17.57,21.65-11.66,31.05Z" style="fill: #45339e; stroke-width: 0px;"/>
    </g>
    <g>
      <path d="m1132.38,420.2c.01.32-.01.64-.06.95-.14,1.1-.57,2.12-1.21,2.97h0c-.17.25-.38.49-.6.71-.15.15-.3.29-.46.41-1.11.92-2.53,1.48-4.07,1.51-.06,0-2.13.06-5.36.57-.37.05-.76.12-1.17.19-1.7.31-3.66.72-5.79,1.31-.3.08-.61.17-.92.26-.31.08-.62.18-.94.28-2.2.69-4.54,1.55-6.91,2.63-5.46,2.47-11.13,6.11-15.79,11.57-7.51,8.55-11.35,20.18-11.43,34.6h-12.87c.1-17.65,4.98-32.17,14.63-43.26.45-.52.91-1.03,1.37-1.53h0c1.23-1.32,2.51-2.56,3.81-3.71,1.65-1.44,3.34-2.75,5.05-3.94,3.82-2.65,7.76-4.71,11.58-6.32,12.66-5.38,23.86-5.6,24.59-5.6,2.95-.06,5.46,1.93,6.27,4.64.17.56.27,1.15.28,1.76Z" style="fill: #45339e; stroke-width: 0px;"/>
      <path d="m1071.34,398.38c-.07.07-4.29,8.59-7.49,24.08-.15.65-.29,1.31-.44,2.04,0,.01,0,.02-.01.03-.47,2.44-.93,5.1-1.34,7.97-.14.97-.28,1.96-.41,2.97-.12.96-.24,1.95-.34,2.95-.4,3.55-.72,7.37-.93,11.44v.07c-.09,1.65-.16,3.35-.2,5.09-.18,7.06-.02,14.79.66,23.14h-12.99c-.48-6.23-.66-12.16-.66-17.8,0-6.4.27-12.4.74-17.96.09-1.01.18-2.01.28-2.99.1-1,.2-1.98.31-2.95.64-5.53,1.46-10.56,2.38-15.09,3.56-17.97,8.58-28.01,8.95-28.81,1.6-3.2,5.53-4.44,8.65-2.84,3.21,1.6,4.44,5.53,2.84,8.66Z" style="fill: #45339e; stroke-width: 0px;"/>
      <path d="m1116.37,465.31c-.07,0-6.18,1.02-11.93,4.87-.22.15-.44.29-.58.44-3.09,2.11-5.39,4.61-6.92,7.54h-13.83c2.44-8.27,7.63-14.23,13.43-18.35,0-.01.03-.02.04-.03,6.12-4.29,12.88-6.55,17.9-7.28.16-.02.32-.04.48-.05.33-.03.66-.02.99,0,2.96.23,5.45,2.44,5.88,5.5.51,3.56-1.89,6.84-5.46,7.35Z" style="fill: #45339e; stroke-width: 0px;"/>
      <path d="m1044.88,478.16h-13.01c-.3-3.08-.68-6.01-1.12-8.78-1.2-7.45-2.85-13.88-4.8-19.44-.32-.93-.66-1.83-1-2.71-.32-.83-.65-1.64-.98-2.43h-.01c-2.23-5.22-4.74-9.55-7.4-13.17-12.51-17.1-27.78-17.68-28.8-17.68-3.57,0-6.4-2.91-6.4-6.48s2.91-6.47,6.47-6.47c.58,0,14.69.15,28.81,11.93,2.03,1.67,3.93,3.49,5.74,5.46,5.59,6.06,10.2,13.42,13.81,22.06.35.82.68,1.66,1,2.51.34.87.66,1.74.97,2.64,2.57,7.29,4.5,15.38,5.75,24.29,0,.02.01.05.01.07.18,1.25.34,2.51.5,3.79.17,1.45.33,2.92.46,4.41Z" style="fill: #45339e; stroke-width: 0px;"/>
      <path d="m1026.61,478.16h-13.78c-3.46-8.48-8.54-13.62-13-16.71-.24-.17-.48-.33-.72-.48-1.19-.79-2.32-1.42-3.34-1.92-1.13-.56-2.13-.96-2.94-1.24-1.37-.49-2.2-.65-2.24-.65-3.12-.58-5.31-3.27-5.31-6.33,0-.36.08-.8.08-1.16.65-3.49,4-5.82,7.49-5.17.56.13,7.28,1.42,14.82,6.75.76.53,1.54,1.12,2.31,1.75.52.42,1.05.86,1.57,1.32.33.28.65.57.98.87,5.48,4.97,10.8,12.3,14.08,22.97Z" style="fill: #45339e; stroke-width: 0px;"/>
      <path d="m1104.8,431.99c-2.4-4.44-3.35-8.87-3.64-12.51,12.66-5.38,23.86-5.6,24.59-5.6,3.56-.07,6.47,2.84,6.55,6.4s-2.84,6.47-6.4,6.55c-.07-.07-10.18.22-21.1,5.16Z" style="fill: #7461e8; stroke-width: 0px;"/>
      <path d="m1063.49,424.57c-.49,2.42-.96,5.06-1.38,7.92-.15.97-.29,1.96-.42,2.97-.12.96-.24,1.94-.36,2.95-.4,3.55-.73,7.37-.95,11.45v.07c-.08,1.66-.15,3.35-.2,5.09-.18,7.06-.02,14.79.66,23.14h-12.99c-.48-6.23-.66-12.16-.66-17.8,0-6.4.27-12.4.74-17.96.09-1.01.18-2.01.28-2.99.1-1,.2-1.98.31-2.95.64-5.53,1.46-10.56,2.38-15.09,3.75.29,8.02,1.15,12.5,3.16.03.01.06.03.09.04Z" style="fill: #7461e8; stroke-width: 0px;"/>
      <path d="m1016.56,431.63c-12.51-17.1-27.79-17.68-28.81-17.68-3.56,0-6.4-2.91-6.4-6.47,0-3.56,2.91-6.47,6.47-6.47.58,0,14.69.15,28.81,11.93,2.04,1.67,3.93,3.49,5.75,5.46-1.31,6.33-3.49,10.48-5.82,13.24Z" style="fill: #7461e8; stroke-width: 0px;"/>
      <path d="m1044.88,478.16h-13.01c-.3-3.08-.68-6.01-1.12-8.78,2.91-.8,7.48-1.24,13.16.51h.01c.18,1.27.35,2.56.5,3.86.17,1.45.33,2.92.46,4.41Z" style="fill: #7461e8; stroke-width: 0px;"/>
      <path d="m999.83,461.45c-5.02-3.49-9.17-4.29-9.24-4.29-3.13-.58-5.31-3.27-5.31-6.33,0-.36.07-.8.07-1.16.65-3.49,4-5.82,7.49-5.16.65.15,9.75,1.89,18.7,9.82-5.02,1.38-9.17,4.66-11.71,7.13Z" style="fill: #7461e8; stroke-width: 0px;"/>
      <path d="m1103.79,470.54c-1.89-4.51-4.8-8.22-7.27-10.77,6.11-4.29,12.88-6.55,17.9-7.27,3.56-.51,6.84,1.89,7.35,5.46.51,3.56-1.89,6.84-5.46,7.35-.07,0-6.18,1.02-11.93,4.87-.15.07-.36.22-.58.36Z" style="fill: #7461e8; stroke-width: 0px;"/>
    </g>
    <g>
      <path d="m1206.85,478.15h-2.93c-1.34-5.5-4.3-12.33-10.76-17.81-.02-.01-.03-.03-.05-.05-2.39-2-5.1-3.72-8.06-5.07h-.01c-.3-.14-.56-.26-.83-.38-.73-.3-1.08-1.13-.77-1.86.29-.72,1.13-1.07,1.85-.77.3.12.59.26.88.4.01.01.03.01.04.02,2.65,1.2,5.1,2.66,7.32,4.35.51.39,1,.78,1.48,1.19.27.23.55.48.81.72,6.71,6.05,9.7,13.43,11.03,19.25Z" style="fill: #5d4dc4; stroke-width: 0px;"/>
      <path d="m1221,478.15h-2.98c2.74-8.03,4.33-20.96-1.48-39.48-.01-.02-.01-.03-.01-.05-.27-.84-.57-1.72-.86-2.59-.24-.74.15-1.55.89-1.8.74-.25,1.55.14,1.81.88.3.9.59,1.8.87,2.67,0,.01.01.02.01.03,5.83,18.56,4.47,31.82,1.76,40.33Z" style="fill: #5d4dc4; stroke-width: 0px;"/>
      <path d="m1259.45,433.89c-.15.72-.3,1.43-.46,2.12-.02.09-.04.18-.06.27-4.86,21.33-13.69,34.24-21.43,41.86h-4.16c9.15-8.08,14.95-18.9,18.58-28.44.35-.89.67-1.78.96-2.64,1.54-4.41,2.61-8.43,3.33-11.66.02-.11.05-.21.07-.32.13-.58.25-1.18.39-1.79.16-.76.91-1.25,1.69-1.09.77.16,1.26.91,1.1,1.69Z" style="fill: #5d4dc4; stroke-width: 0px;"/>
      <path d="m1272.94,456.47c-.18.51-.38,1.02-.57,1.5-.02.04-.03.08-.05.12-3.73,9.4-9.35,15.81-14.54,20.06h-4.71c5.55-3.86,12.34-10.42,16.58-21.03.01-.02.02-.05.03-.07.19-.5.4-1.03.58-1.54.27-.74,1.09-1.13,1.83-.85.73.26,1.12,1.08.85,1.82Z" style="fill: #5d4dc4; stroke-width: 0px;"/>
      <path d="m1194.08,460.68c-.22,0-.44-.05-.64-.15-.7-.36-.98-1.21-.62-1.91.07-.13,6.74-13.55,2.29-29.18-.22-.75.22-1.54.98-1.75.75-.22,1.54.22,1.75.98,4.76,16.74-2.19,30.66-2.49,31.25-.25.49-.75.77-1.26.77Z" style="fill: #5d4dc4; stroke-width: 0px;"/>
      <path d="m1252.19,449.74c-.27,0-.55-.08-.79-.24-6.56-4.43-10.87-12.57-12.45-23.54-1.17-8.16-.46-14.94-.43-15.23.08-.78.78-1.35,1.57-1.26.78.08,1.34.79,1.26,1.56-.03.26-2.68,26.45,11.64,36.11.65.44.82,1.32.38,1.97-.27.41-.72.63-1.18.63Z" style="fill: #5d4dc4; stroke-width: 0px;"/>
      <path d="m1240.96,412.11c-10.2-1.27-16.26-5.33-10.89-7.32s18.12-.4,22.96,2.85c4.84,3.25-1.86,5.73-12.06,4.47Z" style="fill: #e2dcfe; stroke-width: 0px;"/>
      <path d="m1257.3,435.57c-9.14-4.32-13.08-11.69-7.09-13.27s17.4,3.82,20.55,9.72c3.15,5.9-4.32,7.87-13.46,3.55Z" style="fill: #45339e; stroke-width: 0px;"/>
      <path d="m1272.61,458.04c-10.49-2.82-16.11-8.92-10.12-10.96s19.1,1.48,23.59,6.35c4.5,4.87-2.99,7.43-13.48,4.61Z" style="fill: #e2dcfe; stroke-width: 0px;"/>
      <path d="m1235.83,459.08c-7.33.31-12.06-3.68-8.5-7.18,3.55-3.5,12.72-3.89,16.5-.7,3.78,3.19-.66,7.57-7.99,7.88Z" style="fill: #b8aeff; stroke-width: 0px;"/>
      <path d="m1218.02,438.19c-10.3,3.18-17.71,1.23-13.34-3.52s17.24-8.72,23.17-7.16c5.93,1.56.47,7.49-9.83,10.67Z" style="fill: #45339e; stroke-width: 0px;"/>
      <path d="m1184.65,455.97c-5.27,9.9-13.81,12.6-15.37,4.87-1.56-7.74,5.03-20.12,11.86-22.28,6.83-2.16,8.78,7.51,3.51,17.41Z" style="fill: #b8aeff; stroke-width: 0px;"/>
      <path d="m1196.74,429.93c-6.6,1.62-11.59-1.73-8.97-6.03,2.61-4.3,10.87-6.33,14.85-3.65,3.99,2.68.72,8.06-5.88,9.69Z" style="fill: #e2dcfe; stroke-width: 0px;"/>
    </g>
    <path d="m1528,435.26c-6.4-57.23-28.04-49.59-19.43-26,8.61,23.59,19.43,30.51,19.43,30.51,30.01-23.56,10.24-29.04,0-4.51Z" style="fill: #c5bdff; stroke-width: 0px;"/>
    <g>
      <path d="m1452.04,440.91c-15.35,1.25-36.3-5.71-36.76-12.83s11.06-13.66,25.72-14.61c14.67-.95,25.05,4.17,25.51,11.29.46,7.12-2.28,15.16-14.47,16.15Z" style="fill: #7a68e8; stroke-width: 0px;"/>
      <path d="m1466.51,424.77c2.17,12.25-15.23,19.11-27.85,8.2l27.85-8.2Z" style="fill: #5d4dc4; stroke-width: 0px;"/>
      <path d="m1462.44,428.85c-.57.29-1.15.57-1.75.84-4.53,2.03-10.09,3.61-16.2,4.42-.74.1-1.48.19-2.21.26-.6.06-1.2.11-1.78.15-14.62,1.05-26.53-3-27.43-9.69-.61-4.65,4.23-9.44,12.05-12.88.88-.38,1.79-.75,2.74-1.1,1.65-.6,3.4-1.16,5.24-1.63,2.49-.65,5.13-1.17,7.88-1.54.2-.03.39-.05.59-.07,2.44-.3,4.82-.47,7.12-.5,2.99-.04,5.82.13,8.42.51,8.61,1.24,14.67,4.63,15.29,9.33.56,4.22-3.38,8.56-9.96,11.89Z" style="fill: #d7d1ff; stroke-width: 0px;"/>
      <path d="m1442.29,434.37c-.6.06-1.2.11-1.78.15.75-2.38,1.15-4.99,1.02-7.47-.32-9.2-8.37-13.39-16.39-15.1.88-.38,1.79-.75,2.74-1.1,4.92,1.09,9.77,3.28,12.83,7.41,3.44,4.63,3.52,10.85,1.59,16.11Z" style="fill: #9187ff; stroke-width: 0px;"/>
      <path d="m1457.11,407.63c-7.47,7.87-18.32,4.33-24.01,1.59,2.49-.65,5.13-1.17,7.88-1.54.2-.03.39-.05.59-.07,2.44-.3,4.82-.47,7.12-.5,2.99-.04,5.82.13,8.42.51Z" style="fill: #f7f7f7; stroke-width: 0px;"/>
      <path d="m1462.44,428.85c-.57.29-1.15.57-1.75.84-.14-2.64-.62-5.32-1.42-7.81-2.68-8.6-9.25-12.82-17.69-14.26,2.44-.3,4.82-.47,7.12-.5,7.85,2.64,13.19,9.33,13.76,18.65.06,1.04.07,2.05-.01,3.08Z" style="fill: #9187ff; stroke-width: 0px;"/>
    </g>
    <ellipse cx="1348.13" cy="440.32" rx="7.1" ry="4.36" style="fill: #5d4dc4; stroke-width: 0px;"/>
    <circle cx="1557.16" cy="441.44" r="3.12" style="fill: #5d4dc4; stroke-width: 0px;"/>
    <circle cx="1160.36" cy="434.13" r="4.74" style="fill: #5d4dc4; stroke-width: 0px;"/>
    <ellipse cx="1142.44" cy="450.65" rx="3.42" ry="2.43" style="fill: #5d4dc4; stroke-width: 0px;"/>
    <ellipse cx="1580.32" cy="429.81" rx="3.59" ry="5.05" transform="translate(1025.85 1970.82) rotate(-85.43)" style="fill: #5d4dc4; stroke-width: 0px;"/>
  </g>
  <g>
    <circle cx="125.91" cy="145.12" r="5.21" style="fill: #f7f7f7; stroke-width: 0px;"/>
    <circle cx="227.3" cy="147.83" r="5.21" style="fill: #d7d1ff; stroke-width: 0px;"/>
    <circle cx="149.01" cy="64.81" r="4.01" style="fill: #f7f7f7; stroke-width: 0px;"/>
    <circle cx="75.62" cy="50.38" r="4.63" style="fill: #f7f7f7; stroke-width: 0px;"/>
    <circle cx="422.12" cy="153.84" r="6.02" style="fill: #f7f7f7; stroke-width: 0px;"/>
    <circle cx="683.5" cy="52.48" r="5.11" style="fill: #f7f7f7; stroke-width: 0px;"/>
    <circle cx="891.85" cy="135.09" r="3.62" style="fill: #d7d1ff; stroke-width: 0px;"/>
    <circle cx="852.86" cy="116.49" r="4.47" style="fill: #f7f7f7; stroke-width: 0px;"/>
    <circle cx="985.56" cy="55.68" r="2.69" style="fill: #d7d1ff; stroke-width: 0px;"/>
    <circle cx="1272.42" cy="141.25" r="4.09" style="fill: #f7f7f7; stroke-width: 0px;"/>
    <circle cx="1348.57" cy="52.52" r="6.05" style="fill: #f7f7f7; stroke-width: 0px;"/>
    <circle cx="1577" cy="148.17" r="5.35" style="fill: #f7f7f7; stroke-width: 0px;"/>
    <circle cx="1426.31" cy="234.62" r="4.49" style="fill: #d7d1ff; stroke-width: 0px;"/>
    <circle cx="1511.58" cy="107.02" r="4.16" style="fill: #d7d1ff; stroke-width: 0px;"/>
    <circle cx="593.82" cy="108.98" r="5.81" style="fill: #d7d1ff; stroke-width: 0px;"/>
    <circle cx="547.65" cy="78.5" r="3.41" style="fill: #d7d1ff; stroke-width: 0px;"/>
    <circle cx="326.82" cy="122.04" r="3.95" style="fill: #d7d1ff; stroke-width: 0px;"/>
    <circle cx="208.42" cy="199.74" r="3.46" style="fill: #d7d1ff; stroke-width: 0px;"/>
    <circle cx="55.39" cy="245" r="5.02" style="fill: #f7f7f7; stroke-width: 0px;"/>
    <circle cx="1314.57" cy="24.74" r="3.45" style="fill: #f7f7f7; stroke-width: 0px;"/>
    <circle cx="83.4" cy="159.86" r="3.45" style="fill: #f7f7f7; stroke-width: 0px;"/>
  </g>
</svg>