<svg enable-background="new 0 0 1600 500" version="1.1" viewBox="0 0 1600 500" xmlns="http://www.w3.org/2000/svg" xmlns:xlink="http://www.w3.org/1999/xlink">
 <style type="text/css">.st0{fill-rule:evenodd;clip-rule:evenodd;fill:#BC83FB;}
	.st1{clip-path:url(#SVGID_00000147905588785156734620000002002634711801605052_);}
	.st2{fill:#F7F7F7;}
	.st3{clip-path:url(#SVGID_00000012458695563666614480000001489662843142676111_);}
	.st4{clip-path:url(#SVGID_00000174574696174337761110000011567106561858751883_);}</style>
 <path class="st0" d="m1600 24.8v428.5c0 8.3-4.1 15.7-10.3 20.2-2.4 1.7-5.8 0.9-6.9-1.9-3.9-9.7-16.4-16.8-31.2-16.8-9.5 0-18 2.9-23.9 7.6-1.9 1.5-4.6 1.3-6.2-0.6-7.7-8.7-21.2-14.5-36.7-14.5-13.9 0-26.4 4.7-34.3 12-1.8 1.7-4.7 1.5-6.4-0.3-9.3-10.1-25.8-16.8-44.6-16.8-27.1 0-49.3 13.9-52.4 31.7-0.4 2.4-2.5 4.1-4.9 4.1h-1317c-13.9 0.2-25-10.9-25-24.6v-428.6c0-13.7 11.1-24.8 24.8-24.8h1550c13.8 0 24.9 11.1 24.9 24.8z"/>
 <ellipse class="st0" cx="1484" cy="478.7" rx="27.9" ry="17.2"/>
 <ellipse class="st0" cx="1552" cy="479" rx="18.6" ry="11.5"/>
 <ellipse class="st0" cx="1400" cy="479.2" rx="33.9" ry="20.8"/>
 <defs>
  <path id="a" d="m1600 24.8v428.5c0 8.3-4.1 15.7-10.3 20.2-2.4 1.7-5.8 0.9-6.9-1.9-3.9-9.7-16.4-16.8-31.2-16.8-9.5 0-18 2.9-23.9 7.6-1.9 1.5-4.6 1.3-6.2-0.6-7.7-8.7-21.2-14.5-36.7-14.5-13.9 0-26.4 4.7-34.3 12-1.8 1.7-4.7 1.5-6.4-0.3-9.3-10.1-25.8-16.8-44.6-16.8-27.1 0-49.3 13.9-52.4 31.7-0.4 2.4-2.5 4.1-4.9 4.1h-1317c-13.9 0.2-25-10.9-25-24.6v-428.6c0-13.7 11.1-24.8 24.8-24.8h1550c13.8 0 24.9 11.1 24.9 24.8z"/>
 </defs>
 <clipPath id="d">
  <use xlink:href="#a"/>
 </clipPath>
 <g clip-path="url(#d)">
  <path class="st2" d="m110.3 97.4c-5.9 2.5-10.4 6.7-12.7 11.4-0.7 1.4-2.4 1.8-3.7 1-3-2-6.9-3.2-11.2-3.3-6.1-0.1-11.6 2.1-14.9 5.6-1 1.1-2.8 1.1-3.8 0-2-2.3-4.9-4.2-8.3-5.2-7.1-2.1-13.2 0.1-16.8 6.6-0.8 1.5-2.6 2.2-4.3 1.7-1.2-0.4-2.1-1.4-2.4-2.6-5.6-23.6-10.8-55.3 5.7-82.6 17.7-29 63.6-13.1 47.1 34.3-0.5 1.5 0.8 3 2.4 2.6 33-8.1 48.9 10.9 46.4 28.6-0.3 1.8-2.2 2.8-3.8 2-5.3-2.8-12.7-3-19.7-0.1z"/>
  <ellipse class="st2" transform="matrix(.9217 -.388 .388 .9217 -34.83 54.09)" cx="116.5" cy="113.3" rx="14.4" ry="10.9"/>
  <ellipse class="st2" transform="matrix(.02428 -.9997 .9997 .02428 -40.25 199.6)" cx="82.1" cy="120.4" rx="8.6" ry="11.3"/>
  <ellipse class="st2" transform="matrix(.2799 -.96 .96 .2799 -76.28 135.4)" cx="52.1" cy="118.5" rx="6.5" ry="8.5"/>
  <path class="st2" d="m403.6 178.2c-5 9-6.4 18.7-4.7 26.8 0.5 2.4-1.2 4.7-3.6 4.9-5.7 0.5-11.9 2.8-17.3 6.9-7.9 5.9-12.6 14.1-13.3 21.7-0.2 2.4-2.4 4.1-4.8 3.7-4.8-0.9-10.2-0.4-15.5 1.7-10.9 4.4-16.5 13.1-14.6 24.8 0.4 2.7-1.1 5.4-3.7 6.3h-0.1c-1.9 0.7-4 0.3-5.6-0.9-30.1-24.2-67.9-58.8-73.9-109.3-6.4-53.9 66.9-79.1 92.9-3.3 0.8 2.4 4 3 5.6 0.9 33.5-42.6 72.1-34.5 86.4-9.8 1.4 2.5 0 5.7-2.8 6.2-9.5 1.7-19 8.7-25 19.4z"/>
  <ellipse class="st2" transform="matrix(.4861 -.8739 .8739 .4861 51.78 471.9)" cx="427.1" cy="191.9" rx="22.9" ry="17.4"/>
  <ellipse class="st2" transform="matrix(.8018 -.5976 .5976 .8018 -62.79 280.1)" cx="390.9" cy="234.7" rx="18" ry="13.7"/>
  <ellipse class="st2" transform="matrix(.9283 -.3719 .3719 .9283 -72.2 149.5)" cx="351.4" cy="261.9" rx="13.6" ry="10.3"/>
  <path class="st2" d="m229.9 15.6c-8.6-1.2-16.7 0.6-22.6 4.5-1.7 1.1-4.1 0.5-5-1.4-2.2-4.4-5.9-8.5-10.7-11.6-7-4.4-15-5.6-21.2-3.9-2 0.6-4-0.7-4.4-2.7-0.7-4.1-2.8-8.2-6.1-11.7-6.8-7.3-15.4-9-24.1-4-2 1.2-4.6 0.8-6.1-1v-0.1c-1.1-1.3-1.5-3.1-1-4.7 9.9-31.2 25.8-71.6 63.8-91.8 40.6-21.6 82.9 28.7 31 72.4-1.7 1.4-1.1 4.1 1 4.7 43.9 13.4 49.3 46.5 34.1 65.3-1.5 1.9-4.5 1.8-5.8-0.3-4.2-6.9-12.6-12.2-22.9-13.7z"/>
  <ellipse class="st2" transform="matrix(.1381 -.9904 .9904 .1381 157 257.2)" cx="226.2" cy="38.4" rx="14.7" ry="19.4"/>
  <ellipse class="st2" transform="matrix(.5322 -.8466 .8466 .5322 65.45 164.2)" cx="181.3" cy="22.9" rx="11.6" ry="15.3"/>
  <ellipse class="st2" transform="matrix(.7316 -.6817 .6817 .7316 39.71 100.7)" cx="147.8" cy="-.1" rx="8.7" ry="11.5"/>
  <path class="st2" d="m263.5 336.8c-0.5 6.8 1.3 13.2 4.6 17.6 1 1.3 0.6 3.2-0.9 4-3.4 1.9-6.4 5-8.6 9-3.2 5.8-3.8 12.1-2.1 16.9 0.5 1.5-0.3 3.2-1.9 3.6-3.2 0.8-6.3 2.6-9 5.3-5.4 5.7-6.4 12.6-2 19.2 1 1.5 0.8 3.6-0.5 4.9-1 0.9-2.4 1.3-3.7 1-25.1-6.4-57.7-17-75.4-46-18.9-31 18.8-66.7 55.7-27.8 1.2 1.2 3.2 0.7 3.7-1 8.5-35.2 34.3-41.1 49.9-29.9 1.6 1.1 1.6 3.5 0 4.6-5.3 3.5-9.2 10.4-9.8 18.6z"/>
  <ellipse class="st2" transform="matrix(.07963 -.9968 .9968 .07963 -78.38 592.3)" cx="281.6" cy="338.6" rx="15.3" ry="11.6"/>
  <ellipse class="st2" transform="matrix(.4816 -.8764 .8764 .4816 -187.7 432.2)" cx="271.4" cy="374.7" rx="12.1" ry="9.2"/>
  <ellipse class="st2" transform="matrix(.6903 -.7236 .7236 .6903 -212.1 309)" cx="254.9" cy="402.3" rx="9.1" ry="6.9"/>
  <path class="st2" d="m559.4 277.4c-7-1.1-13.7 0.3-18.5 3.4-1.4 0.9-3.3 0.3-4.1-1.2-1.7-3.6-4.7-7-8.6-9.6-5.7-3.7-12.1-4.7-17.3-3.3-1.6 0.4-3.3-0.6-3.5-2.2-0.6-3.3-2.2-6.7-4.9-9.6-5.5-6-12.5-7.5-19.6-3.5-1.7 0.9-3.8 0.6-5-0.9-0.9-1.1-1.2-2.5-0.7-3.8 8.4-25.4 21.7-58.2 52.9-74.3 33.3-17.2 67.4 24.2 24.6 59.4-1.4 1.1-1 3.3 0.7 3.8 35.7 11.4 39.8 38.4 27.2 53.6-1.3 1.5-3.7 1.4-4.7-0.3-3.3-5.7-10.1-10.2-18.5-11.5z"/>
  <ellipse class="st2" transform="matrix(.1496 -.9887 .9887 .1496 180.4 801.7)" cx="556.2" cy="296" rx="12" ry="15.8"/>
  <ellipse class="st2" transform="matrix(.5421 -.8403 .8403 .5421 .2826 566.3)" cx="519.8" cy="282.9" rx="9.5" ry="12.5"/>
  <ellipse class="st2" transform="matrix(.7395 -.6731 .6731 .7395 -49.3 400.3)" cx="492.6" cy="263.9" rx="7.1" ry="9.4"/>
  <path class="st2" d="m413.1-26.2c5.9 4.8 12.8 7.1 19 6.9 1.8-0.1 3.3 1.5 3.1 3.3-0.4 4.3 0.5 9 2.8 13.6 3.3 6.5 8.6 11 14.2 12.5 1.7 0.5 2.7 2.3 2.1 4-1.3 3.4-1.6 7.4-0.8 11.6 1.8 8.5 7.5 13.8 16.3 13.9 2.1 0 3.8 1.5 4.1 3.5v0.1c0.2 1.5-0.3 3-1.4 4-21.6 18.9-51.9 42-89.6 39.8-40.3-2.3-49.1-59.2 9.7-68.4 1.9-0.3 2.7-2.5 1.4-3.9-26.8-30-15.9-57.3 4.1-64.5 2-0.7 4.2 0.7 4.2 2.9-0.1 7.1 3.8 15 10.8 20.7z"/>
  <ellipse class="st2" transform="matrix(.6318 -.7751 .7751 .6318 189.2 315.1)" cx="426.2" cy="-41.6" rx="12.9" ry="17"/>
  <ellipse class="st2" transform="matrix(.8942 -.4477 .4477 .8942 52.19 201.7)" cx="452.8" cy="-9.5" rx="10.2" ry="13.4"/>
  <ellipse class="st2" transform="matrix(.9791 -.2033 .2033 .9791 5.102 95.55)" cx="467.6" cy="22.9" rx="7.7" ry="10.1"/>
  <path class="st2" d="m749.5 138c1.4 7.6 5.2 14 10.1 17.9 1.4 1.2 1.5 3.3 0.2 4.6-3.1 3.1-5.6 7.3-6.9 12.3-1.8 7.2-0.6 14.3 2.6 19.1 1 1.5 0.5 3.6-1.1 4.4-3.2 1.8-6.2 4.7-8.3 8.4-4.3 7.8-3.3 15.6 3.3 21.6 1.6 1.4 1.9 3.7 0.9 5.5v0.1c-0.8 1.3-2.2 2.1-3.7 2.1-29.3 0.3-68-1.9-95.7-28.6-29.6-28.5 1.2-78.4 52.8-46.5 1.7 1 3.7-0.2 3.7-2.1-0.8-41 25.7-54.8 45.9-47.1 2 0.8 2.7 3.3 1.3 5-4.5 5.5-6.7 14.2-5.1 23.3z"/>
  <ellipse class="st2" transform="matrix(.9841 -.1776 .1776 .9841 -11.7 138.9)" cx="769.9" cy="134.8" rx="13.2" ry="17.4"/>
  <ellipse class="st2" transform="matrix(.2417 -.9703 .9703 .2417 411.3 880.8)" cx="769.2" cy="177.2" rx="13.7" ry="10.4"/>
  <ellipse class="st2" transform="matrix(.4826 -.8759 .8759 .4826 207 774.6)" cx="759.1" cy="212.1" rx="10.3" ry="7.8"/>
  <path class="st2" d="m806.4 327.2c-2.8 8.5-2.5 17 0.2 23.6 0.8 2-0.3 4.2-2.3 4.8-4.8 1.4-9.7 4.3-13.7 8.6-5.8 6.3-8.5 14-7.9 20.7 0.2 2.1-1.4 3.9-3.5 3.9-4.2 0-8.8 1.3-13 3.9-8.6 5.5-12 13.8-8.6 23.5 0.8 2.3-0.1 4.8-2.2 6h-0.1c-1.5 0.9-3.4 0.9-4.9 0.1-29.6-15.9-67.3-39.5-80.5-81.6-14.1-45 44.5-78.2 78.9-17.6 1.1 1.9 3.9 1.9 4.9-0.1 21.8-41.7 56.1-41 72.2-22.1 1.6 1.9 0.9 4.9-1.4 5.7-7.7 3-14.7 10.5-18.1 20.6z"/>
  <ellipse class="st2" transform="matrix(.318 -.9481 .9481 .318 247.4 1014)" cx="828.7" cy="335.1" rx="19.9" ry="15.1"/>
  <ellipse class="st2" transform="matrix(.6789 -.7342 .7342 .6789 -18.82 711.9)" cx="804.6" cy="377.5" rx="15.7" ry="11.9"/>
  <ellipse class="st2" transform="matrix(.8446 -.5354 .5354 .8446 -97.44 478.3)" cx="775.1" cy="407" rx="11.8" ry="9"/>
  <path class="st2" d="m927.3 467.9c-3.5 7.2-4.2 14.8-2.5 21 0.5 1.8-0.7 3.7-2.6 4-4.4 0.6-9.1 2.7-13.2 6.1-5.9 4.9-9.2 11.5-9.4 17.4-0.1 1.9-1.7 3.3-3.6 3.1-3.8-0.5-8 0.1-12 2-8.3 3.9-12.2 10.9-10.3 19.9 0.4 2.1-0.6 4.2-2.6 5.1h-0.1c-1.4 0.6-3.1 0.4-4.4-0.5-24.5-17.5-55.3-42.8-62.1-81.7-7.3-41.6 48.5-64.3 72.1-6.6 0.8 1.8 3.2 2.1 4.4 0.5 24.2-34.5 54.6-29.9 66.7-11.3 1.2 1.9 0.3 4.4-1.9 4.9-7.2 1.7-14.3 7.5-18.5 16.1z"/>
  <ellipse class="st2" transform="matrix(.437 -.8995 .8995 .437 103.2 1120)" cx="946.2" cy="477.5" rx="17.8" ry="13.5"/>
  <ellipse class="st2" transform="matrix(.7675 -.6411 .6411 .7675 -114.6 708.8)" cx="919.9" cy="512.4" rx="14" ry="10.6"/>
  <ellipse class="st2" transform="matrix(.9063 -.4227 .4227 .9063 -142.8 426.5)" cx="890.3" cy="535.2" rx="10.6" ry="8"/>
  <path class="st2" d="m908.1 239c-5.2-0.5-10.1 0.9-13.5 3.4-1 0.7-2.4 0.4-3-0.7-1.4-2.6-3.8-5-6.8-6.7-4.4-2.5-9.2-3-12.9-1.7-1.2 0.4-2.4-0.3-2.7-1.5-0.6-2.4-1.9-4.9-4-6.9-4.3-4.2-9.5-5-14.6-1.7-1.2 0.8-2.7 0.6-3.7-0.4-0.7-0.7-1-1.8-0.7-2.8 5-19.1 13.4-43.9 35.7-57.2 23.9-14.2 50.8 14.8 20.8 42.7-1 0.9-0.6 2.5 0.7 2.8 26.8 6.8 31.1 26.5 22.5 38.3-0.9 1.2-2.7 1.2-3.5 0-2.9-4-8.1-7-14.3-7.6z"/>
  <ellipse class="st2" transform="matrix(.08983 -.996 .996 .08983 573.3 1133)" cx="906.5" cy="252.8" rx="8.9" ry="11.7"/>
  <ellipse class="st2" transform="matrix(.4905 -.8714 .8714 .4905 234.5 890.7)" cx="879" cy="244.8" rx="7" ry="9.2"/>
  <ellipse class="st2" transform="matrix(.6976 -.7164 .7164 .6976 93.27 684.9)" cx="858.1" cy="232" rx="5.3" ry="6.9"/>
  <path class="st2" d="m592.4 64.5c-1.1-9.2-5.2-17.1-10.7-22.1-1.6-1.5-1.6-4.1 0.1-5.5 3.9-3.4 7.2-8.3 9.1-14.2 2.7-8.5 1.8-17-1.7-23-1.1-1.9-0.4-4.3 1.6-5.2 4-1.9 7.7-5.1 10.5-9.5 5.7-9 5.1-18.3-2.4-26-1.8-1.8-2-4.5-0.6-6.6v-0.1c1-1.5 2.8-2.4 4.6-2.3 34.9 1.8 80.9 7.3 112.1 41.1 33.2 36.2-7.2 93.4-66.5 51.6-1.9-1.3-4.5-0.1-4.6 2.3-2 48.9-34.7 63.5-58.2 52.9-2.4-1.1-3-4.2-1.2-6 5.9-6.2 9.2-16.4 7.9-27.4z"/>
  <ellipse class="st2" transform="matrix(.9932 -.1166 .1166 .9932 -3.927 66.71)" cx="567.9" cy="66.9" rx="15.7" ry="20.7"/>
  <ellipse class="st2" transform="matrix(.3011 -.9536 .9536 .3011 384.1 556.7)" cx="571.8" cy="16.3" rx="16.3" ry="12.4"/>
  <ellipse class="st2" transform="matrix(.5356 -.8445 .8445 .5356 293.1 483.9)" cx="586.5" cy="-24.5" rx="12.3" ry="9.3"/>
  <path class="st2" d="m904.5 56.2c-7 2.7-12.3 7.5-15.1 12.8-0.8 1.6-2.9 2.1-4.3 1-3.5-2.4-7.9-4-12.9-4.2-7.1-0.4-13.6 2-17.5 6-1.2 1.2-3.3 1.2-4.4-0.2-2.3-2.7-5.5-5-9.5-6.3-8.1-2.6-15.3-0.3-19.8 7.1-1 1.7-3.1 2.5-5 1.8h-0.1c-1.4-0.5-2.4-1.7-2.7-3.1-5.6-27.6-10.6-64.5 9.6-95.6 21.5-33.2 74.2-13.1 53.5 41.5-0.7 1.7 0.9 3.5 2.7 3.1 38.6-8.2 56.4 14.3 52.9 34.8-0.4 2.1-2.6 3.2-4.5 2.1-6-3.5-14.6-4-22.9-0.8z"/>
  <ellipse class="st2" transform="matrix(.9328 -.3604 .3604 .9328 34.27 333.5)" cx="911.2" cy="74.9" rx="16.7" ry="12.7"/>
  <ellipse class="st2" transform="matrix(.05395 -.9985 .9985 .05395 742.2 947.3)" cx="871" cy="81.9" rx="10" ry="13.1"/>
  <ellipse class="st2" transform="matrix(.3083 -.9513 .9513 .3083 503.5 850)" cx="836.2" cy="78.7" rx="7.5" ry="9.9"/>
  <path class="st2" d="m1063 86.8c0.9 6.4 3.9 11.8 7.9 15.1 1.2 1 1.2 2.8 0.1 3.8-2.7 2.4-4.8 5.9-6 10-1.7 5.9-0.9 11.8 1.7 15.9 0.8 1.3 0.4 3-1 3.7-2.7 1.4-5.2 3.7-7.1 6.8-3.7 6.3-3.2 12.8 2.2 17.9 1.3 1.2 1.5 3.1 0.6 4.6-0.7 1.1-1.9 1.7-3.1 1.7-24.2-0.5-56.2-3.4-78.5-26.2-23.8-24.4 3.1-64.8 45-37.1 1.3 0.9 3.1 0 3.1-1.7 0.4-33.9 22.7-44.7 39.2-37.8 1.7 0.7 2.2 2.8 1 4.2-4.1 4.4-6.2 11.5-5.1 19.1z"/>
  <ellipse class="st2" transform="matrix(.9893 -.1461 .1461 .9893 -.7833 158.7)" cx="1080" cy="84.7" rx="10.9" ry="14.4"/>
  <ellipse class="st2" transform="matrix(.2726 -.9621 .9621 .2726 669.2 1125)" cx="1078" cy="119.8" rx="11.3" ry="8.6"/>
  <ellipse class="st2" transform="matrix(.5103 -.86 .86 .5103 395.9 992.1)" cx="1069" cy="148.4" rx="8.5" ry="6.5"/>
  <path class="st2" d="m1216 445c-5.7 2.6-9.8 6.9-11.9 11.5-0.6 1.4-2.3 1.9-3.5 1.1-3-1.8-6.9-2.8-11-2.8-6 0.1-11.2 2.4-14.3 6-1 1.1-2.7 1.2-3.7 0.1-2-2.2-4.9-3.9-8.2-4.7-6.9-1.7-12.8 0.6-16.1 7-0.8 1.5-2.5 2.3-4.1 1.8-1.2-0.3-2.1-1.3-2.4-2.5-6.2-22.7-12.5-53.2 2.6-80.2 16.1-28.9 61.1-15.1 47 31.5-0.5 1.5 0.9 2.9 2.4 2.4 31.7-9.1 47.9 8.7 46 26-0.2 1.7-2 2.8-3.6 2-5.2-2.5-12.4-2.4-19.2 0.8z"/>
  <ellipse class="st2" transform="matrix(.9061 -.423 .423 .9061 -79.82 560.5)" cx="1223" cy="460.1" rx="13.9" ry="10.6"/>
  <ellipse class="st2" transform="matrix(.9999 -.01401 .01401 .9999 -6.445 16.72)" cx="1190" cy="468.3" rx="11" ry="8.3"/>
  <ellipse class="st2" transform="matrix(.243 -.97 .97 .243 425.1 1480)" cx="1161" cy="467.6" rx="6.3" ry="8.3"/>
  <path class="st2" d="m1057 386.2c-10.4-0.9-20.1 1.7-26.9 6.7-2 1.5-4.9 0.8-6.1-1.4-2.9-5.1-7.5-9.9-13.6-13.3-8.7-4.9-18.3-5.9-25.7-3.4-2.3 0.8-4.8-0.6-5.4-3-1.1-4.8-3.8-9.7-8-13.7-8.6-8.3-19-9.9-29.2-3.4-2.4 1.5-5.5 1.2-7.4-0.8l-0.1-0.1c-1.4-1.5-2-3.6-1.4-5.6 10.1-38.1 26.7-87.5 71.2-114 47.5-28.3 101.3 29.6 41.5 85.2-1.9 1.8-1.1 4.9 1.4 5.6 53.5 13.5 62 52.9 44.8 76.4-1.7 2.4-5.3 2.4-6.9-0.1-5.3-8-15.7-14-28.2-15.1z"/>
  <ellipse class="st2" transform="matrix(.0897 -.996 .996 .0897 547.6 1427)" cx="1054" cy="413.7" rx="17.7" ry="23.4"/>
  <ellipse class="st2" transform="matrix(.4904 -.8715 .8715 .4904 162.7 1074)" cx="999.4" cy="397.7" rx="13.9" ry="18.4"/>
  <ellipse class="st2" transform="matrix(.6975 -.7165 .7165 .6975 23.03 798.8)" cx="957.8" cy="372.1" rx="10.5" ry="13.8"/>
  <path class="st2" d="m1151 177.9c8.6 1.3 16.7-0.5 22.6-4.3 1.7-1.1 4.1-0.4 5 1.4 2.1 4.4 5.8 8.6 10.6 11.7 7 4.5 14.9 5.8 21.1 4 2-0.5 4 0.7 4.3 2.7 0.7 4.1 2.7 8.2 6 11.8 6.7 7.3 15.3 9.1 24 4.2 2-1.2 4.6-0.7 6.1 1v0.1c1.1 1.3 1.5 3.1 0.9 4.7-10.1 31.1-26.3 71.3-64.5 91.1-40.7 21.2-82.5-29.3-30.3-72.6 1.7-1.4 1.2-4-0.9-4.7-43.7-13.8-48.9-46.8-33.5-65.4 1.6-1.9 4.5-1.7 5.7 0.4 4.2 6.9 12.6 12.4 22.9 13.9z"/>
  <ellipse class="st2" transform="matrix(.1465 -.9892 .9892 .1465 831.9 1275)" cx="1154" cy="155.2" rx="14.7" ry="19.4"/>
  <ellipse class="st2" transform="matrix(.5394 -.8421 .8421 .5394 408.4 1089)" cx="1199" cy="171" rx="11.6" ry="15.3"/>
  <ellipse class="st2" transform="matrix(.7374 -.6755 .6755 .7374 192.5 883.6)" cx="1232" cy="194.2" rx="8.7" ry="11.5"/>
  <path class="st2" d="m1430 29.7c7.5-6.3 12.2-14.5 13.4-22.3 0.4-2.3 2.7-3.8 4.9-3.1 5.3 1.5 11.6 1.6 17.9-0.2 9-2.5 16.1-8.3 19.3-14.9 1-2.1 3.6-2.8 5.5-1.6 4 2.5 9 3.9 14.5 3.8 11.2-0.2 19.2-6.1 21.6-17.2 0.6-2.6 2.8-4.4 5.5-4.4h0.1c1.9 0 3.7 1.1 4.7 2.7 18.7 32 40.5 75.9 28.6 123.1-12.7 50.4-86.9 47.8-84.2-28.9 0.1-2.5-2.5-4-4.7-2.8-44.5 26.6-76.4 6.1-80.6-20.9-0.4-2.7 1.9-5.1 4.7-4.6 8.9 1.8 19.8-1.2 28.8-8.7z"/>
  <ellipse class="st2" transform="matrix(.7669 -.6417 .6417 .7669 323.6 909.7)" cx="1414" cy="9.4" rx="22" ry="16.6"/>
  <ellipse class="st2" transform="matrix(.9627 -.2706 .2706 .9627 58.99 394.8)" cx="1461" cy="-16.5" rx="17.3" ry="13.1"/>
  <ellipse class="st2" transform="matrix(.9999 -.0146 .0146 .9999 .5584 21.98)" cx="1506" cy="-27.3" rx="13" ry="9.9"/>
  <path class="st2" d="m1339 386.3c-6.2-6.9-14.1-11.1-21.5-12-2.2-0.3-3.7-2.4-3.1-4.6 1.3-5.1 1.1-11-0.8-16.9-2.7-8.5-8.3-14.9-14.7-17.8-2-0.9-2.8-3.3-1.7-5.2 2.2-3.8 3.4-8.6 3.1-13.8-0.5-10.6-6.4-18-16.9-19.9-2.5-0.4-4.3-2.5-4.3-5v-0.1c0-1.8 0.9-3.5 2.5-4.5 29.7-18.6 70.5-40.7 115.5-30.9 48.1 10.5 47.9 80.7-24.7 80.6-2.3 0-3.7 2.5-2.5 4.5 26.5 41.3 8.2 72-17.3 76.9-2.6 0.5-4.9-1.7-4.5-4.3 1.5-8.5-1.7-18.7-9.1-27z"/>
  <ellipse class="st2" transform="matrix(.7454 -.6666 .6666 .7454 68.02 982.8)" cx="1321" cy="402.4" rx="15.8" ry="20.8"/>
  <ellipse class="st2" transform="matrix(.9533 -.3022 .3022 .9533 -47.86 408)" cx="1295" cy="358.7" rx="12.4" ry="16.4"/>
  <ellipse class="st2" transform="matrix(.9989 -.04752 .04752 .9989 -13.6 61.34)" cx="1283" cy="316.7" rx="9.3" ry="12.3"/>
  <path class="st2" d="m1274 36.7c-4.9 7.7-6.6 16.2-5.5 23.4 0.3 2.1-1.3 4.1-3.5 4.2-5.1 0.2-10.6 1.9-15.7 5.2-7.3 4.8-11.8 11.8-12.8 18.5-0.3 2.1-2.4 3.5-4.4 3-4.2-1-9-0.9-13.8 0.7-9.8 3.3-15.2 10.8-14.2 21.2 0.2 2.4-1.2 4.7-3.6 5.4h-0.1c-1.7 0.5-3.6 0.1-4.9-1.1-25.4-22.9-57-55.5-59.8-100.4-3-48 63.1-66.5 82.3 1.8 0.6 2.2 3.4 2.8 4.9 1.1 31.7-36 65.5-26.9 76.9-4.3 1.1 2.3-0.3 5-2.8 5.3-8.4 1.1-17.2 6.8-23 16z"/>
  <ellipse class="st2" transform="matrix(.5352 -.8447 .8447 .5352 559.1 1116)" cx="1294" cy="50" rx="20.3" ry="15.4"/>
  <ellipse class="st2" transform="matrix(.8346 -.5508 .5508 .8346 160.9 708)" cx="1260" cy="86" rx="16" ry="12.1"/>
  <ellipse class="st2" transform="matrix(.948 -.3182 .3182 .948 29.21 394.9)" cx="1223" cy="108" rx="12" ry="9.1"/>
  <path class="st2" d="m1380 170.4c-6 1-11 4-14.1 7.8-0.9 1.1-2.6 1.2-3.6 0.1-2.4-2.5-5.7-4.4-9.6-5.4-5.6-1.5-11.2-0.6-15 1.9-1.2 0.8-2.8 0.4-3.5-0.9-1.4-2.5-3.6-4.9-6.5-6.5-6.1-3.4-12.2-2.7-16.9 2.5-1.1 1.2-2.9 1.5-4.3 0.6-1-0.6-1.6-1.7-1.6-2.9 0-22.9 1.9-53.2 23-74.7 22.5-23 61.3 1.5 36 41.7-0.8 1.3 0.1 2.9 1.6 2.9 32.1-0.4 42.7 20.5 36.6 36.2-0.6 1.6-2.6 2.1-3.9 1-4.3-3.8-11.1-5.5-18.2-4.3z"/>
  <ellipse class="st2" transform="matrix(.9855 -.1694 .1694 .9855 -11.59 236.8)" cx="1382" cy="186.3" rx="13.6" ry="10.3"/>
  <ellipse class="st2" transform="matrix(.2498 -.9683 .9683 .2498 832.1 1445)" cx="1349" cy="185.5" rx="8.1" ry="10.7"/>
  <ellipse class="st2" transform="matrix(.4898 -.8718 .8718 .4898 519.5 1243)" cx="1321" cy="177.4" rx="6.1" ry="8.1"/>
  <path class="st2" d="m1465 433.5c2.5 5.9 6.7 10.3 11.3 12.5 1.4 0.7 1.8 2.4 1 3.7-1.9 3-3.2 6.9-3.3 11.1-0.1 6.1 2 11.5 5.5 14.8 1.1 1 1.1 2.8 0 3.7-2.3 2-4.1 4.8-5.1 8.2-2 7 0.1 13.1 6.5 16.6 1.5 0.8 2.2 2.6 1.7 4.2-0.4 1.2-1.4 2.1-2.6 2.4-23.3 5.5-54.7 10.6-81.6-5.7-28.8-17.5-13-62.9 33.9-46.6 1.5 0.5 3-0.8 2.6-2.4-8-32.6 10.7-48.4 28.3-45.9 1.8 0.3 2.8 2.2 1.9 3.7-2.8 5.4-3 12.7-0.1 19.7z"/>
  <ellipse class="st2" transform="matrix(.9217 -.388 .388 .9217 -49.82 607.8)" cx="1480" cy="427.3" rx="10.8" ry="14.2"/>
  <ellipse class="st2" transform="matrix(.02428 -.9997 .9997 .02428 990.1 1937)" cx="1487" cy="461.3" rx="11.2" ry="8.5"/>
  <ellipse class="st2" transform="matrix(.2799 -.96 .96 .2799 598.3 1780)" cx="1486" cy="491" rx="8.4" ry="6.4"/>
  <path class="st2" d="m1633 371.7c-5.5 7.1-8 15.3-7.5 22.5 0.1 2.1-1.7 3.9-3.8 3.8-5-0.3-10.6 0.9-15.9 3.7-7.6 4-12.7 10.5-14.3 17-0.5 2-2.6 3.2-4.6 2.5-4-1.4-8.8-1.7-13.6-0.5-10 2.4-15.9 9.2-15.9 19.6 0 2.4-1.6 4.5-4 5h-0.1c-1.7 0.3-3.5-0.2-4.7-1.5-22.9-24.8-51-59.6-49.7-104 1.4-47.4 68-59.7 80.7 9.2 0.4 2.2 3.1 3.1 4.7 1.5 34.4-32.5 66.8-20.5 75.9 2.7 0.9 2.3-0.7 4.9-3.2 5-8.4 0.2-17.5 5-24 13.5z"/>
  <ellipse class="st2" transform="matrix(.6101 -.7923 .7923 .6101 337.7 1459)" cx="1652" cy="386.6" rx="20" ry="15.2"/>
  <ellipse class="st2" transform="matrix(.8814 -.4723 .4723 .8814 -6.38 812.3)" cx="1615" cy="418.9" rx="15.8" ry="12"/>
  <ellipse class="st2" transform="matrix(.9731 -.2304 .2304 .9731 -58.31 375.1)" cx="1577" cy="437.3" rx="11.9" ry="9"/>
  <path class="st2" d="m1562 197.7c-4 6-5.6 12.7-4.9 18.4 0.2 1.7-1.1 3.2-2.8 3.2-4 0-8.4 1.3-12.5 3.8-5.8 3.6-9.6 9.1-10.6 14.4-0.3 1.7-1.9 2.7-3.6 2.3-3.3-0.9-7.1-0.9-10.9 0.3-7.9 2.4-12.3 8.2-11.7 16.4 0.1 1.9-1.1 3.7-3 4.2h-0.1c-1.4 0.4-2.8 0-3.8-1-19.6-18.7-43.8-45.1-45-80.7-1.3-38 51.4-51.2 65 3.3 0.4 1.7 2.6 2.3 3.8 1 25.9-27.7 52.4-19.8 60.9-1.6 0.9 1.8-0.3 4-2.3 4.2-6.6 0.4-13.7 4.7-18.5 11.8z"/>
  <ellipse class="st2" transform="matrix(.5591 -.8291 .8291 .5591 522.4 1400)" cx="1577" cy="208.7" rx="16.1" ry="12.2"/>
  <ellipse class="st2" transform="matrix(.85 -.5267 .5267 .85 107.9 851.6)" cx="1550" cy="236.4" rx="12.6" ry="9.6"/>
  <ellipse class="st2" transform="matrix(.9567 -.291 .291 .9567 -7.82 453.4)" cx="1520" cy="253" rx="9.5" ry="7.2"/>
  <path class="st2" d="m422.4 441.9c-6.5-3.4-13.4-4.3-19.2-3-1.7 0.4-3.4-0.8-3.6-2.5-0.5-4.1-2.2-8.4-5.2-12.3-4.3-5.5-10.2-8.8-15.7-9.1-1.7-0.1-3-1.7-2.7-3.4 0.6-3.4 0.1-7.3-1.4-11-3.3-7.7-9.6-11.5-17.9-10.1-1.9 0.3-3.9-0.7-4.6-2.5v-0.1c-0.5-1.3-0.3-2.9 0.6-4 16.8-21.9 41-49.3 76.9-54.4 38.4-5.4 57.4 46.5 3.7 66.3-1.7 0.6-2 2.9-0.6 4 30.9 23.2 25.7 50.9 8.3 61.5-1.8 1.1-4.1 0.1-4.5-1.9-1.3-6.7-6.4-13.4-14.1-17.5z"/>
  <ellipse class="st2" transform="matrix(.4676 -.8839 .8839 .4676 -185.8 609.3)" cx="412.9" cy="458.9" rx="12.4" ry="16.4"/>
  <ellipse class="st2" transform="matrix(.7891 -.6143 .6143 .7891 -185.9 326.1)" cx="381.8" cy="433.7" rx="9.8" ry="12.9"/>
  <ellipse class="st2" transform="matrix(.9202 -.3913 .3913 .9202 -130 174)" cx="361.9" cy="405.9" rx="7.4" ry="9.7"/>
  <path class="st2" d="m686.5 501.4c-8.9 8-14.1 18.1-15.3 27.6-0.3 2.8-3.1 4.7-5.9 4-6.5-1.6-14.1-1.4-21.6 1-10.9 3.5-19.1 10.7-22.8 18.8-1.1 2.5-4.2 3.6-6.7 2.2-4.9-2.8-11.1-4.3-17.7-4-13.6 0.7-23 8.2-25.5 21.7-0.6 3.2-3.2 5.5-6.4 5.5h-0.1c-2.3 0-4.5-1.2-5.8-3.1-23.9-38-52.2-90.3-39.7-147.9 13.4-61.6 103.3-61.4 103.2 31.6 0 3 3.2 4.8 5.7 3.1 52.8-34 92.2-10.6 98.5 22 0.6 3.3-2.1 6.3-5.4 5.7-10.9-1.8-24 2.3-34.5 11.8z"/>
  <ellipse class="st2" transform="matrix(.7447 -.6674 .6674 .7447 -170.1 606)" cx="707" cy="525.3" rx="26.6" ry="20.2"/>
  <ellipse class="st2" transform="matrix(.9529 -.3032 .3032 .9529 -138.7 223.7)" cx="651.1" cy="558.6" rx="21" ry="15.9"/>
  <ellipse class="st2" transform="matrix(.9988 -.04857 .04857 .9988 -27.15 29.69)" cx="597.4" cy="573.4" rx="15.8" ry="12"/>
  <path class="st2" d="m-12.8 262.1c5.4 2.6 11.1 3.1 15.8 1.9 1.4-0.4 2.8 0.6 3 2 0.5 3.3 2 6.8 4.6 9.9 3.7 4.4 8.6 6.9 13.1 7 1.4 0 2.5 1.3 2.3 2.7-0.4 2.8 0.1 6 1.5 9 2.9 6.2 8.2 9.2 15 7.7 1.6-0.3 3.2 0.5 3.8 2 0.5 1.1 0.3 2.3-0.4 3.3-12.9 18.4-32 41.6-61.3 46.9-31.3 5.6-48.5-36.5-5.1-54.2 1.4-0.6 1.6-2.4 0.4-3.3-26-18.1-22.6-41-8.6-50.2 1.4-0.9 3.3-0.2 3.7 1.4 1.3 5.4 5.7 10.7 12.2 13.9z"/>
  <ellipse class="st2" transform="matrix(.4352 -.9004 .9004 .4352 -226.3 135)" cx="-5.6" cy="247.9" rx="10.2" ry="13.4"/>
  <ellipse class="st2" transform="matrix(.7662 -.6426 .6426 .7662 -167.1 75.85)" cx="20.7" cy="267.6" rx="8" ry="10.6"/>
  <ellipse class="st2" transform="matrix(.9054 -.4245 .4245 .9054 -119.4 43.51)" cx="37.9" cy="289.8" rx="6" ry="8"/>
  <path class="st2" d="m150.3 275.9c-6.7-2.4-13.4-2.3-18.7-0.2-1.6 0.6-3.3-0.3-3.7-1.9-1-3.9-3.2-7.8-6.6-11-4.9-4.7-10.9-7-16.2-6.6-1.7 0.1-3.1-1.2-3-2.9 0.1-3.4-0.9-7-2.9-10.4-4.2-6.9-10.8-9.7-18.5-7.2-1.8 0.6-3.8-0.1-4.7-1.8v-0.1c-0.7-1.2-0.7-2.7 0-3.9 13.1-23.2 32.5-52.7 66.1-62.4 35.9-10.3 61.2 36.7 12.5 62.8-1.6 0.8-1.6 3 0 3.9 32.7 18 31.5 45.2 16.2 57.6-1.5 1.3-3.9 0.6-4.5-1.2-2.3-6.1-8.1-11.8-16-14.7z"/>
  <ellipse class="st2" transform="matrix(.3392 -.9407 .9407 .3392 -181.1 328.9)" cx="143.6" cy="293.4" rx="12" ry="15.8"/>
  <ellipse class="st2" transform="matrix(.6952 -.7188 .7188 .6952 -163 162.8)" cx="110.4" cy="273.5" rx="9.4" ry="12.4"/>
  <ellipse class="st2" transform="matrix(.8564 -.5164 .5164 .8564 -116.3 81.08)" cx="87.6" cy="249.7" rx="7.1" ry="9.4"/>
  <path class="st2" d="m87.5 431.6c-4.7 0.7-8.7 2.8-11.2 5.7-0.7 0.9-2.1 0.9-2.8 0-1.8-2-4.3-3.6-7.4-4.5-4.4-1.3-8.7-0.7-11.7 1.2-0.9 0.6-2.2 0.2-2.7-0.7-1-2-2.7-3.9-5-5.2-4.6-2.8-9.4-2.4-13.2 1.5-0.9 0.9-2.3 1.1-3.4 0.4-0.8-0.5-1.2-1.4-1.2-2.3 0.5-17.9 2.8-41.4 19.7-57.7 18.1-17.4 47.8 2.6 27.1 33.3-0.7 1 0 2.3 1.2 2.3 25 0.5 32.9 17 27.7 29.1-0.5 1.2-2.1 1.6-3.1 0.7-3.2-3-8.4-4.6-14-3.8z"/>
  <ellipse class="st2" transform="matrix(.9902 -.1396 .1396 .9902 -61.14 16.77)" cx="89" cy="444.1" rx="10.6" ry="8"/>
  <ellipse class="st2" transform="matrix(.2789 -.9603 .9603 .2789 -379.7 379.8)" cx="63.1" cy="442.7" rx="6.3" ry="8.3"/>
  <ellipse class="st2" transform="matrix(.5159 -.8566 .8566 .5159 -352.9 246.9)" cx="42" cy="435.7" rx="4.8" ry="6.3"/>
 </g>
 <defs>
  <ellipse id="b" cx="1484" cy="478.7" rx="27.9" ry="17.2"/>
 </defs>
 <clipPath id="f">
  <use xlink:href="#b"/>
 </clipPath>
 <g clip-path="url(#f)">
  <path class="st2" d="m110.3 97.4c-5.9 2.5-10.4 6.7-12.7 11.4-0.7 1.4-2.4 1.8-3.7 1-3-2-6.9-3.2-11.2-3.3-6.1-0.1-11.6 2.1-14.9 5.6-1 1.1-2.8 1.1-3.8 0-2-2.3-4.9-4.2-8.3-5.2-7.1-2.1-13.2 0.1-16.8 6.6-0.8 1.5-2.6 2.2-4.3 1.7-1.2-0.4-2.1-1.4-2.4-2.6-5.6-23.6-10.8-55.3 5.7-82.6 17.7-29 63.6-13.1 47.1 34.3-0.5 1.5 0.8 3 2.4 2.6 33-8.1 48.9 10.9 46.4 28.6-0.3 1.8-2.2 2.8-3.8 2-5.3-2.8-12.7-3-19.7-0.1z"/>
  <ellipse class="st2" transform="matrix(.9217 -.388 .388 .9217 -34.83 54.09)" cx="116.5" cy="113.3" rx="14.4" ry="10.9"/>
  <ellipse class="st2" transform="matrix(.02428 -.9997 .9997 .02428 -40.25 199.6)" cx="82.1" cy="120.4" rx="8.6" ry="11.3"/>
  <ellipse class="st2" transform="matrix(.2799 -.96 .96 .2799 -76.28 135.4)" cx="52.1" cy="118.5" rx="6.5" ry="8.5"/>
  <path class="st2" d="m403.6 178.2c-5 9-6.4 18.7-4.7 26.8 0.5 2.4-1.2 4.7-3.6 4.9-5.7 0.5-11.9 2.8-17.3 6.9-7.9 5.9-12.6 14.1-13.3 21.7-0.2 2.4-2.4 4.1-4.8 3.7-4.8-0.9-10.2-0.4-15.5 1.7-10.9 4.4-16.5 13.1-14.6 24.8 0.4 2.7-1.1 5.4-3.7 6.3h-0.1c-1.9 0.7-4 0.3-5.6-0.9-30.1-24.2-67.9-58.8-73.9-109.3-6.4-53.9 66.9-79.1 92.9-3.3 0.8 2.4 4 3 5.6 0.9 33.5-42.6 72.1-34.5 86.4-9.8 1.4 2.5 0 5.7-2.8 6.2-9.5 1.7-19 8.7-25 19.4z"/>
  <ellipse class="st2" transform="matrix(.4861 -.8739 .8739 .4861 51.78 471.9)" cx="427.1" cy="191.9" rx="22.9" ry="17.4"/>
  <ellipse class="st2" transform="matrix(.8018 -.5976 .5976 .8018 -62.79 280.1)" cx="390.9" cy="234.7" rx="18" ry="13.7"/>
  <ellipse class="st2" transform="matrix(.9283 -.3719 .3719 .9283 -72.2 149.5)" cx="351.4" cy="261.9" rx="13.6" ry="10.3"/>
  <path class="st2" d="m229.9 15.6c-8.6-1.2-16.7 0.6-22.6 4.5-1.7 1.1-4.1 0.5-5-1.4-2.2-4.4-5.9-8.5-10.7-11.6-7-4.4-15-5.6-21.2-3.9-2 0.6-4-0.7-4.4-2.7-0.7-4.1-2.8-8.2-6.1-11.7-6.8-7.3-15.4-9-24.1-4-2 1.2-4.6 0.8-6.1-1v-0.1c-1.1-1.3-1.5-3.1-1-4.7 9.9-31.2 25.8-71.6 63.8-91.8 40.6-21.6 82.9 28.7 31 72.4-1.7 1.4-1.1 4.1 1 4.7 43.9 13.4 49.3 46.5 34.1 65.3-1.5 1.9-4.5 1.8-5.8-0.3-4.2-6.9-12.6-12.2-22.9-13.7z"/>
  <ellipse class="st2" transform="matrix(.1381 -.9904 .9904 .1381 157 257.2)" cx="226.2" cy="38.4" rx="14.7" ry="19.4"/>
  <ellipse class="st2" transform="matrix(.5322 -.8466 .8466 .5322 65.45 164.2)" cx="181.3" cy="22.9" rx="11.6" ry="15.3"/>
  <ellipse class="st2" transform="matrix(.7316 -.6817 .6817 .7316 39.71 100.7)" cx="147.8" cy="-.1" rx="8.7" ry="11.5"/>
  <path class="st2" d="m263.5 336.8c-0.5 6.8 1.3 13.2 4.6 17.6 1 1.3 0.6 3.2-0.9 4-3.4 1.9-6.4 5-8.6 9-3.2 5.8-3.8 12.1-2.1 16.9 0.5 1.5-0.3 3.2-1.9 3.6-3.2 0.8-6.3 2.6-9 5.3-5.4 5.7-6.4 12.6-2 19.2 1 1.5 0.8 3.6-0.5 4.9-1 0.9-2.4 1.3-3.7 1-25.1-6.4-57.7-17-75.4-46-18.9-31 18.8-66.7 55.7-27.8 1.2 1.2 3.2 0.7 3.7-1 8.5-35.2 34.3-41.1 49.9-29.9 1.6 1.1 1.6 3.5 0 4.6-5.3 3.5-9.2 10.4-9.8 18.6z"/>
  <ellipse class="st2" transform="matrix(.07963 -.9968 .9968 .07963 -78.38 592.3)" cx="281.6" cy="338.6" rx="15.3" ry="11.6"/>
  <ellipse class="st2" transform="matrix(.4816 -.8764 .8764 .4816 -187.7 432.2)" cx="271.4" cy="374.7" rx="12.1" ry="9.2"/>
  <ellipse class="st2" transform="matrix(.6903 -.7236 .7236 .6903 -212.1 309)" cx="254.9" cy="402.3" rx="9.1" ry="6.9"/>
  <path class="st2" d="m559.4 277.4c-7-1.1-13.7 0.3-18.5 3.4-1.4 0.9-3.3 0.3-4.1-1.2-1.7-3.6-4.7-7-8.6-9.6-5.7-3.7-12.1-4.7-17.3-3.3-1.6 0.4-3.3-0.6-3.5-2.2-0.6-3.3-2.2-6.7-4.9-9.6-5.5-6-12.5-7.5-19.6-3.5-1.7 0.9-3.8 0.6-5-0.9-0.9-1.1-1.2-2.5-0.7-3.8 8.4-25.4 21.7-58.2 52.9-74.3 33.3-17.2 67.4 24.2 24.6 59.4-1.4 1.1-1 3.3 0.7 3.8 35.7 11.4 39.8 38.4 27.2 53.6-1.3 1.5-3.7 1.4-4.7-0.3-3.3-5.7-10.1-10.2-18.5-11.5z"/>
  <ellipse class="st2" transform="matrix(.1496 -.9887 .9887 .1496 180.4 801.7)" cx="556.2" cy="296" rx="12" ry="15.8"/>
  <ellipse class="st2" transform="matrix(.5421 -.8403 .8403 .5421 .2826 566.3)" cx="519.8" cy="282.9" rx="9.5" ry="12.5"/>
  <ellipse class="st2" transform="matrix(.7395 -.6731 .6731 .7395 -49.3 400.3)" cx="492.6" cy="263.9" rx="7.1" ry="9.4"/>
  <path class="st2" d="m413.1-26.2c5.9 4.8 12.8 7.1 19 6.9 1.8-0.1 3.3 1.5 3.1 3.3-0.4 4.3 0.5 9 2.8 13.6 3.3 6.5 8.6 11 14.2 12.5 1.7 0.5 2.7 2.3 2.1 4-1.3 3.4-1.6 7.4-0.8 11.6 1.8 8.5 7.5 13.8 16.3 13.9 2.1 0 3.8 1.5 4.1 3.5v0.1c0.2 1.5-0.3 3-1.4 4-21.6 18.9-51.9 42-89.6 39.8-40.3-2.3-49.1-59.2 9.7-68.4 1.9-0.3 2.7-2.5 1.4-3.9-26.8-30-15.9-57.3 4.1-64.5 2-0.7 4.2 0.7 4.2 2.9-0.1 7.1 3.8 15 10.8 20.7z"/>
  <ellipse class="st2" transform="matrix(.6318 -.7751 .7751 .6318 189.2 315.1)" cx="426.2" cy="-41.6" rx="12.9" ry="17"/>
  <ellipse class="st2" transform="matrix(.8942 -.4477 .4477 .8942 52.19 201.7)" cx="452.8" cy="-9.5" rx="10.2" ry="13.4"/>
  <ellipse class="st2" transform="matrix(.9791 -.2033 .2033 .9791 5.102 95.55)" cx="467.6" cy="22.9" rx="7.7" ry="10.1"/>
  <path class="st2" d="m749.5 138c1.4 7.6 5.2 14 10.1 17.9 1.4 1.2 1.5 3.3 0.2 4.6-3.1 3.1-5.6 7.3-6.9 12.3-1.8 7.2-0.6 14.3 2.6 19.1 1 1.5 0.5 3.6-1.1 4.4-3.2 1.8-6.2 4.7-8.3 8.4-4.3 7.8-3.3 15.6 3.3 21.6 1.6 1.4 1.9 3.7 0.9 5.5v0.1c-0.8 1.3-2.2 2.1-3.7 2.1-29.3 0.3-68-1.9-95.7-28.6-29.6-28.5 1.2-78.4 52.8-46.5 1.7 1 3.7-0.2 3.7-2.1-0.8-41 25.7-54.8 45.9-47.1 2 0.8 2.7 3.3 1.3 5-4.5 5.5-6.7 14.2-5.1 23.3z"/>
  <ellipse class="st2" transform="matrix(.9841 -.1776 .1776 .9841 -11.7 138.9)" cx="769.9" cy="134.8" rx="13.2" ry="17.4"/>
  <ellipse class="st2" transform="matrix(.2417 -.9703 .9703 .2417 411.3 880.8)" cx="769.2" cy="177.2" rx="13.7" ry="10.4"/>
  <ellipse class="st2" transform="matrix(.4826 -.8759 .8759 .4826 207 774.6)" cx="759.1" cy="212.1" rx="10.3" ry="7.8"/>
  <path class="st2" d="m806.4 327.2c-2.8 8.5-2.5 17 0.2 23.6 0.8 2-0.3 4.2-2.3 4.8-4.8 1.4-9.7 4.3-13.7 8.6-5.8 6.3-8.5 14-7.9 20.7 0.2 2.1-1.4 3.9-3.5 3.9-4.2 0-8.8 1.3-13 3.9-8.6 5.5-12 13.8-8.6 23.5 0.8 2.3-0.1 4.8-2.2 6h-0.1c-1.5 0.9-3.4 0.9-4.9 0.1-29.6-15.9-67.3-39.5-80.5-81.6-14.1-45 44.5-78.2 78.9-17.6 1.1 1.9 3.9 1.9 4.9-0.1 21.8-41.7 56.1-41 72.2-22.1 1.6 1.9 0.9 4.9-1.4 5.7-7.7 3-14.7 10.5-18.1 20.6z"/>
  <ellipse class="st2" transform="matrix(.318 -.9481 .9481 .318 247.4 1014)" cx="828.7" cy="335.1" rx="19.9" ry="15.1"/>
  <ellipse class="st2" transform="matrix(.6789 -.7342 .7342 .6789 -18.82 711.9)" cx="804.6" cy="377.5" rx="15.7" ry="11.9"/>
  <ellipse class="st2" transform="matrix(.8446 -.5354 .5354 .8446 -97.44 478.3)" cx="775.1" cy="407" rx="11.8" ry="9"/>
  <path class="st2" d="m927.3 467.9c-3.5 7.2-4.2 14.8-2.5 21 0.5 1.8-0.7 3.7-2.6 4-4.4 0.6-9.1 2.7-13.2 6.1-5.9 4.9-9.2 11.5-9.4 17.4-0.1 1.9-1.7 3.3-3.6 3.1-3.8-0.5-8 0.1-12 2-8.3 3.9-12.2 10.9-10.3 19.9 0.4 2.1-0.6 4.2-2.6 5.1h-0.1c-1.4 0.6-3.1 0.4-4.4-0.5-24.5-17.5-55.3-42.8-62.1-81.7-7.3-41.6 48.5-64.3 72.1-6.6 0.8 1.8 3.2 2.1 4.4 0.5 24.2-34.5 54.6-29.9 66.7-11.3 1.2 1.9 0.3 4.4-1.9 4.9-7.2 1.7-14.3 7.5-18.5 16.1z"/>
  <ellipse class="st2" transform="matrix(.437 -.8995 .8995 .437 103.2 1120)" cx="946.2" cy="477.5" rx="17.8" ry="13.5"/>
  <ellipse class="st2" transform="matrix(.7675 -.6411 .6411 .7675 -114.6 708.8)" cx="919.9" cy="512.4" rx="14" ry="10.6"/>
  <ellipse class="st2" transform="matrix(.9063 -.4227 .4227 .9063 -142.8 426.5)" cx="890.3" cy="535.2" rx="10.6" ry="8"/>
  <path class="st2" d="m908.1 239c-5.2-0.5-10.1 0.9-13.5 3.4-1 0.7-2.4 0.4-3-0.7-1.4-2.6-3.8-5-6.8-6.7-4.4-2.5-9.2-3-12.9-1.7-1.2 0.4-2.4-0.3-2.7-1.5-0.6-2.4-1.9-4.9-4-6.9-4.3-4.2-9.5-5-14.6-1.7-1.2 0.8-2.7 0.6-3.7-0.4-0.7-0.7-1-1.8-0.7-2.8 5-19.1 13.4-43.9 35.7-57.2 23.9-14.2 50.8 14.8 20.8 42.7-1 0.9-0.6 2.5 0.7 2.8 26.8 6.8 31.1 26.5 22.5 38.3-0.9 1.2-2.7 1.2-3.5 0-2.9-4-8.1-7-14.3-7.6z"/>
  <ellipse class="st2" transform="matrix(.08983 -.996 .996 .08983 573.3 1133)" cx="906.5" cy="252.8" rx="8.9" ry="11.7"/>
  <ellipse class="st2" transform="matrix(.4905 -.8714 .8714 .4905 234.5 890.7)" cx="879" cy="244.8" rx="7" ry="9.2"/>
  <ellipse class="st2" transform="matrix(.6976 -.7164 .7164 .6976 93.27 684.9)" cx="858.1" cy="232" rx="5.3" ry="6.9"/>
  <path class="st2" d="m592.4 64.5c-1.1-9.2-5.2-17.1-10.7-22.1-1.6-1.5-1.6-4.1 0.1-5.5 3.9-3.4 7.2-8.3 9.1-14.2 2.7-8.5 1.8-17-1.7-23-1.1-1.9-0.4-4.3 1.6-5.2 4-1.9 7.7-5.1 10.5-9.5 5.7-9 5.1-18.3-2.4-26-1.8-1.8-2-4.5-0.6-6.6v-0.1c1-1.5 2.8-2.4 4.6-2.3 34.9 1.8 80.9 7.3 112.1 41.1 33.2 36.2-7.2 93.4-66.5 51.6-1.9-1.3-4.5-0.1-4.6 2.3-2 48.9-34.7 63.5-58.2 52.9-2.4-1.1-3-4.2-1.2-6 5.9-6.2 9.2-16.4 7.9-27.4z"/>
  <ellipse class="st2" transform="matrix(.9932 -.1166 .1166 .9932 -3.927 66.71)" cx="567.9" cy="66.9" rx="15.7" ry="20.7"/>
  <ellipse class="st2" transform="matrix(.3011 -.9536 .9536 .3011 384.1 556.7)" cx="571.8" cy="16.3" rx="16.3" ry="12.4"/>
  <ellipse class="st2" transform="matrix(.5356 -.8445 .8445 .5356 293.1 483.9)" cx="586.5" cy="-24.5" rx="12.3" ry="9.3"/>
  <path class="st2" d="m904.5 56.2c-7 2.7-12.3 7.5-15.1 12.8-0.8 1.6-2.9 2.1-4.3 1-3.5-2.4-7.9-4-12.9-4.2-7.1-0.4-13.6 2-17.5 6-1.2 1.2-3.3 1.2-4.4-0.2-2.3-2.7-5.5-5-9.5-6.3-8.1-2.6-15.3-0.3-19.8 7.1-1 1.7-3.1 2.5-5 1.8h-0.1c-1.4-0.5-2.4-1.7-2.7-3.1-5.6-27.6-10.6-64.5 9.6-95.6 21.5-33.2 74.2-13.1 53.5 41.5-0.7 1.7 0.9 3.5 2.7 3.1 38.6-8.2 56.4 14.3 52.9 34.8-0.4 2.1-2.6 3.2-4.5 2.1-6-3.5-14.6-4-22.9-0.8z"/>
  <ellipse class="st2" transform="matrix(.9328 -.3604 .3604 .9328 34.27 333.5)" cx="911.2" cy="74.9" rx="16.7" ry="12.7"/>
  <ellipse class="st2" transform="matrix(.05395 -.9985 .9985 .05395 742.2 947.3)" cx="871" cy="81.9" rx="10" ry="13.1"/>
  <ellipse class="st2" transform="matrix(.3083 -.9513 .9513 .3083 503.5 850)" cx="836.2" cy="78.7" rx="7.5" ry="9.9"/>
  <path class="st2" d="m1063 86.8c0.9 6.4 3.9 11.8 7.9 15.1 1.2 1 1.2 2.8 0.1 3.8-2.7 2.4-4.8 5.9-6 10-1.7 5.9-0.9 11.8 1.7 15.9 0.8 1.3 0.4 3-1 3.7-2.7 1.4-5.2 3.7-7.1 6.8-3.7 6.3-3.2 12.8 2.2 17.9 1.3 1.2 1.5 3.1 0.6 4.6-0.7 1.1-1.9 1.7-3.1 1.7-24.2-0.5-56.2-3.4-78.5-26.2-23.8-24.4 3.1-64.8 45-37.1 1.3 0.9 3.1 0 3.1-1.7 0.4-33.9 22.7-44.7 39.2-37.8 1.7 0.7 2.2 2.8 1 4.2-4.1 4.4-6.2 11.5-5.1 19.1z"/>
  <ellipse class="st2" transform="matrix(.9893 -.1461 .1461 .9893 -.7833 158.7)" cx="1080" cy="84.7" rx="10.9" ry="14.4"/>
  <ellipse class="st2" transform="matrix(.2726 -.9621 .9621 .2726 669.2 1125)" cx="1078" cy="119.8" rx="11.3" ry="8.6"/>
  <ellipse class="st2" transform="matrix(.5103 -.86 .86 .5103 395.9 992.1)" cx="1069" cy="148.4" rx="8.5" ry="6.5"/>
  <path class="st2" d="m1216 445c-5.7 2.6-9.8 6.9-11.9 11.5-0.6 1.4-2.3 1.9-3.5 1.1-3-1.8-6.9-2.8-11-2.8-6 0.1-11.2 2.4-14.3 6-1 1.1-2.7 1.2-3.7 0.1-2-2.2-4.9-3.9-8.2-4.7-6.9-1.7-12.8 0.6-16.1 7-0.8 1.5-2.5 2.3-4.1 1.8-1.2-0.3-2.1-1.3-2.4-2.5-6.2-22.7-12.5-53.2 2.6-80.2 16.1-28.9 61.1-15.1 47 31.5-0.5 1.5 0.9 2.9 2.4 2.4 31.7-9.1 47.9 8.7 46 26-0.2 1.7-2 2.8-3.6 2-5.2-2.5-12.4-2.4-19.2 0.8z"/>
  <ellipse class="st2" transform="matrix(.9061 -.423 .423 .9061 -79.82 560.5)" cx="1223" cy="460.1" rx="13.9" ry="10.6"/>
  <ellipse class="st2" transform="matrix(.9999 -.01401 .01401 .9999 -6.445 16.72)" cx="1190" cy="468.3" rx="11" ry="8.3"/>
  <ellipse class="st2" transform="matrix(.243 -.97 .97 .243 425.1 1480)" cx="1161" cy="467.6" rx="6.3" ry="8.3"/>
  <path class="st2" d="m1057 386.2c-10.4-0.9-20.1 1.7-26.9 6.7-2 1.5-4.9 0.8-6.1-1.4-2.9-5.1-7.5-9.9-13.6-13.3-8.7-4.9-18.3-5.9-25.7-3.4-2.3 0.8-4.8-0.6-5.4-3-1.1-4.8-3.8-9.7-8-13.7-8.6-8.3-19-9.9-29.2-3.4-2.4 1.5-5.5 1.2-7.4-0.8l-0.1-0.1c-1.4-1.5-2-3.6-1.4-5.6 10.1-38.1 26.7-87.5 71.2-114 47.5-28.3 101.3 29.6 41.5 85.2-1.9 1.8-1.1 4.9 1.4 5.6 53.5 13.5 62 52.9 44.8 76.4-1.7 2.4-5.3 2.4-6.9-0.1-5.3-8-15.7-14-28.2-15.1z"/>
  <ellipse class="st2" transform="matrix(.0897 -.996 .996 .0897 547.6 1427)" cx="1054" cy="413.7" rx="17.7" ry="23.4"/>
  <ellipse class="st2" transform="matrix(.4904 -.8715 .8715 .4904 162.7 1074)" cx="999.4" cy="397.7" rx="13.9" ry="18.4"/>
  <ellipse class="st2" transform="matrix(.6975 -.7165 .7165 .6975 23.03 798.8)" cx="957.8" cy="372.1" rx="10.5" ry="13.8"/>
  <path class="st2" d="m1151 177.9c8.6 1.3 16.7-0.5 22.6-4.3 1.7-1.1 4.1-0.4 5 1.4 2.1 4.4 5.8 8.6 10.6 11.7 7 4.5 14.9 5.8 21.1 4 2-0.5 4 0.7 4.3 2.7 0.7 4.1 2.7 8.2 6 11.8 6.7 7.3 15.3 9.1 24 4.2 2-1.2 4.6-0.7 6.1 1v0.1c1.1 1.3 1.5 3.1 0.9 4.7-10.1 31.1-26.3 71.3-64.5 91.1-40.7 21.2-82.5-29.3-30.3-72.6 1.7-1.4 1.2-4-0.9-4.7-43.7-13.8-48.9-46.8-33.5-65.4 1.6-1.9 4.5-1.7 5.7 0.4 4.2 6.9 12.6 12.4 22.9 13.9z"/>
  <ellipse class="st2" transform="matrix(.1465 -.9892 .9892 .1465 831.9 1275)" cx="1154" cy="155.2" rx="14.7" ry="19.4"/>
  <ellipse class="st2" transform="matrix(.5394 -.8421 .8421 .5394 408.4 1089)" cx="1199" cy="171" rx="11.6" ry="15.3"/>
  <ellipse class="st2" transform="matrix(.7374 -.6755 .6755 .7374 192.5 883.6)" cx="1232" cy="194.2" rx="8.7" ry="11.5"/>
  <path class="st2" d="m1430 29.7c7.5-6.3 12.2-14.5 13.4-22.3 0.4-2.3 2.7-3.8 4.9-3.1 5.3 1.5 11.6 1.6 17.9-0.2 9-2.5 16.1-8.3 19.3-14.9 1-2.1 3.6-2.8 5.5-1.6 4 2.5 9 3.9 14.5 3.8 11.2-0.2 19.2-6.1 21.6-17.2 0.6-2.6 2.8-4.4 5.5-4.4h0.1c1.9 0 3.7 1.1 4.7 2.7 18.7 32 40.5 75.9 28.6 123.1-12.7 50.4-86.9 47.8-84.2-28.9 0.1-2.5-2.5-4-4.7-2.8-44.5 26.6-76.4 6.1-80.6-20.9-0.4-2.7 1.9-5.1 4.7-4.6 8.9 1.8 19.8-1.2 28.8-8.7z"/>
  <ellipse class="st2" transform="matrix(.7669 -.6417 .6417 .7669 323.6 909.7)" cx="1414" cy="9.4" rx="22" ry="16.6"/>
  <ellipse class="st2" transform="matrix(.9627 -.2706 .2706 .9627 58.99 394.8)" cx="1461" cy="-16.5" rx="17.3" ry="13.1"/>
  <ellipse class="st2" transform="matrix(.9999 -.0146 .0146 .9999 .5584 21.98)" cx="1506" cy="-27.3" rx="13" ry="9.9"/>
  <path class="st2" d="m1339 386.3c-6.2-6.9-14.1-11.1-21.5-12-2.2-0.3-3.7-2.4-3.1-4.6 1.3-5.1 1.1-11-0.8-16.9-2.7-8.5-8.3-14.9-14.7-17.8-2-0.9-2.8-3.3-1.7-5.2 2.2-3.8 3.4-8.6 3.1-13.8-0.5-10.6-6.4-18-16.9-19.9-2.5-0.4-4.3-2.5-4.3-5v-0.1c0-1.8 0.9-3.5 2.5-4.5 29.7-18.6 70.5-40.7 115.5-30.9 48.1 10.5 47.9 80.7-24.7 80.6-2.3 0-3.7 2.5-2.5 4.5 26.5 41.3 8.2 72-17.3 76.9-2.6 0.5-4.9-1.7-4.5-4.3 1.5-8.5-1.7-18.7-9.1-27z"/>
  <ellipse class="st2" transform="matrix(.7454 -.6666 .6666 .7454 68.02 982.8)" cx="1321" cy="402.4" rx="15.8" ry="20.8"/>
  <ellipse class="st2" transform="matrix(.9533 -.3022 .3022 .9533 -47.86 408)" cx="1295" cy="358.7" rx="12.4" ry="16.4"/>
  <ellipse class="st2" transform="matrix(.9989 -.04752 .04752 .9989 -13.6 61.34)" cx="1283" cy="316.7" rx="9.3" ry="12.3"/>
  <path class="st2" d="m1274 36.7c-4.9 7.7-6.6 16.2-5.5 23.4 0.3 2.1-1.3 4.1-3.5 4.2-5.1 0.2-10.6 1.9-15.7 5.2-7.3 4.8-11.8 11.8-12.8 18.5-0.3 2.1-2.4 3.5-4.4 3-4.2-1-9-0.9-13.8 0.7-9.8 3.3-15.2 10.8-14.2 21.2 0.2 2.4-1.2 4.7-3.6 5.4h-0.1c-1.7 0.5-3.6 0.1-4.9-1.1-25.4-22.9-57-55.5-59.8-100.4-3-48 63.1-66.5 82.3 1.8 0.6 2.2 3.4 2.8 4.9 1.1 31.7-36 65.5-26.9 76.9-4.3 1.1 2.3-0.3 5-2.8 5.3-8.4 1.1-17.2 6.8-23 16z"/>
  <ellipse class="st2" transform="matrix(.5352 -.8447 .8447 .5352 559.1 1116)" cx="1294" cy="50" rx="20.3" ry="15.4"/>
  <ellipse class="st2" transform="matrix(.8346 -.5508 .5508 .8346 160.9 708)" cx="1260" cy="86" rx="16" ry="12.1"/>
  <ellipse class="st2" transform="matrix(.948 -.3182 .3182 .948 29.21 394.9)" cx="1223" cy="108" rx="12" ry="9.1"/>
  <path class="st2" d="m1380 170.4c-6 1-11 4-14.1 7.8-0.9 1.1-2.6 1.2-3.6 0.1-2.4-2.5-5.7-4.4-9.6-5.4-5.6-1.5-11.2-0.6-15 1.9-1.2 0.8-2.8 0.4-3.5-0.9-1.4-2.5-3.6-4.9-6.5-6.5-6.1-3.4-12.2-2.7-16.9 2.5-1.1 1.2-2.9 1.5-4.3 0.6-1-0.6-1.6-1.7-1.6-2.9 0-22.9 1.9-53.2 23-74.7 22.5-23 61.3 1.5 36 41.7-0.8 1.3 0.1 2.9 1.6 2.9 32.1-0.4 42.7 20.5 36.6 36.2-0.6 1.6-2.6 2.1-3.9 1-4.3-3.8-11.1-5.5-18.2-4.3z"/>
  <ellipse class="st2" transform="matrix(.9855 -.1694 .1694 .9855 -11.59 236.8)" cx="1382" cy="186.3" rx="13.6" ry="10.3"/>
  <ellipse class="st2" transform="matrix(.2498 -.9683 .9683 .2498 832.1 1445)" cx="1349" cy="185.5" rx="8.1" ry="10.7"/>
  <ellipse class="st2" transform="matrix(.4898 -.8718 .8718 .4898 519.5 1243)" cx="1321" cy="177.4" rx="6.1" ry="8.1"/>
  <path class="st2" d="m1465 433.5c2.5 5.9 6.7 10.3 11.3 12.5 1.4 0.7 1.8 2.4 1 3.7-1.9 3-3.2 6.9-3.3 11.1-0.1 6.1 2 11.5 5.5 14.8 1.1 1 1.1 2.8 0 3.7-2.3 2-4.1 4.8-5.1 8.2-2 7 0.1 13.1 6.5 16.6 1.5 0.8 2.2 2.6 1.7 4.2-0.4 1.2-1.4 2.1-2.6 2.4-23.3 5.5-54.7 10.6-81.6-5.7-28.8-17.5-13-62.9 33.9-46.6 1.5 0.5 3-0.8 2.6-2.4-8-32.6 10.7-48.4 28.3-45.9 1.8 0.3 2.8 2.2 1.9 3.7-2.8 5.4-3 12.7-0.1 19.7z"/>
  <ellipse class="st2" transform="matrix(.9217 -.388 .388 .9217 -49.82 607.8)" cx="1480" cy="427.3" rx="10.8" ry="14.2"/>
  <ellipse class="st2" transform="matrix(.02428 -.9997 .9997 .02428 990.1 1937)" cx="1487" cy="461.3" rx="11.2" ry="8.5"/>
  <ellipse class="st2" transform="matrix(.2799 -.96 .96 .2799 598.3 1780)" cx="1486" cy="491" rx="8.4" ry="6.4"/>
  <path class="st2" d="m1633 371.7c-5.5 7.1-8 15.3-7.5 22.5 0.1 2.1-1.7 3.9-3.8 3.8-5-0.3-10.6 0.9-15.9 3.7-7.6 4-12.7 10.5-14.3 17-0.5 2-2.6 3.2-4.6 2.5-4-1.4-8.8-1.7-13.6-0.5-10 2.4-15.9 9.2-15.9 19.6 0 2.4-1.6 4.5-4 5h-0.1c-1.7 0.3-3.5-0.2-4.7-1.5-22.9-24.8-51-59.6-49.7-104 1.4-47.4 68-59.7 80.7 9.2 0.4 2.2 3.1 3.1 4.7 1.5 34.4-32.5 66.8-20.5 75.9 2.7 0.9 2.3-0.7 4.9-3.2 5-8.4 0.2-17.5 5-24 13.5z"/>
  <ellipse class="st2" transform="matrix(.6101 -.7923 .7923 .6101 337.7 1459)" cx="1652" cy="386.6" rx="20" ry="15.2"/>
  <ellipse class="st2" transform="matrix(.8814 -.4723 .4723 .8814 -6.38 812.3)" cx="1615" cy="418.9" rx="15.8" ry="12"/>
  <ellipse class="st2" transform="matrix(.9731 -.2304 .2304 .9731 -58.31 375.1)" cx="1577" cy="437.3" rx="11.9" ry="9"/>
  <path class="st2" d="m1562 197.7c-4 6-5.6 12.7-4.9 18.4 0.2 1.7-1.1 3.2-2.8 3.2-4 0-8.4 1.3-12.5 3.8-5.8 3.6-9.6 9.1-10.6 14.4-0.3 1.7-1.9 2.7-3.6 2.3-3.3-0.9-7.1-0.9-10.9 0.3-7.9 2.4-12.3 8.2-11.7 16.4 0.1 1.9-1.1 3.7-3 4.2h-0.1c-1.4 0.4-2.8 0-3.8-1-19.6-18.7-43.8-45.1-45-80.7-1.3-38 51.4-51.2 65 3.3 0.4 1.7 2.6 2.3 3.8 1 25.9-27.7 52.4-19.8 60.9-1.6 0.9 1.8-0.3 4-2.3 4.2-6.6 0.4-13.7 4.7-18.5 11.8z"/>
  <ellipse class="st2" transform="matrix(.5591 -.8291 .8291 .5591 522.4 1400)" cx="1577" cy="208.7" rx="16.1" ry="12.2"/>
  <ellipse class="st2" transform="matrix(.85 -.5267 .5267 .85 107.9 851.6)" cx="1550" cy="236.4" rx="12.6" ry="9.6"/>
  <ellipse class="st2" transform="matrix(.9567 -.291 .291 .9567 -7.82 453.4)" cx="1520" cy="253" rx="9.5" ry="7.2"/>
  <path class="st2" d="m422.4 441.9c-6.5-3.4-13.4-4.3-19.2-3-1.7 0.4-3.4-0.8-3.6-2.5-0.5-4.1-2.2-8.4-5.2-12.3-4.3-5.5-10.2-8.8-15.7-9.1-1.7-0.1-3-1.7-2.7-3.4 0.6-3.4 0.1-7.3-1.4-11-3.3-7.7-9.6-11.5-17.9-10.1-1.9 0.3-3.9-0.7-4.6-2.5v-0.1c-0.5-1.3-0.3-2.9 0.6-4 16.8-21.9 41-49.3 76.9-54.4 38.4-5.4 57.4 46.5 3.7 66.3-1.7 0.6-2 2.9-0.6 4 30.9 23.2 25.7 50.9 8.3 61.5-1.8 1.1-4.1 0.1-4.5-1.9-1.3-6.7-6.4-13.4-14.1-17.5z"/>
  <ellipse class="st2" transform="matrix(.4676 -.8839 .8839 .4676 -185.8 609.3)" cx="412.9" cy="458.9" rx="12.4" ry="16.4"/>
  <ellipse class="st2" transform="matrix(.7891 -.6143 .6143 .7891 -185.9 326.1)" cx="381.8" cy="433.7" rx="9.8" ry="12.9"/>
  <ellipse class="st2" transform="matrix(.9202 -.3913 .3913 .9202 -130 174)" cx="361.9" cy="405.9" rx="7.4" ry="9.7"/>
  <path class="st2" d="m686.5 501.4c-8.9 8-14.1 18.1-15.3 27.6-0.3 2.8-3.1 4.7-5.9 4-6.5-1.6-14.1-1.4-21.6 1-10.9 3.5-19.1 10.7-22.8 18.8-1.1 2.5-4.2 3.6-6.7 2.2-4.9-2.8-11.1-4.3-17.7-4-13.6 0.7-23 8.2-25.5 21.7-0.6 3.2-3.2 5.5-6.4 5.5h-0.1c-2.3 0-4.5-1.2-5.8-3.1-23.9-38-52.2-90.3-39.7-147.9 13.4-61.6 103.3-61.4 103.2 31.6 0 3 3.2 4.8 5.7 3.1 52.8-34 92.2-10.6 98.5 22 0.6 3.3-2.1 6.3-5.4 5.7-10.9-1.8-24 2.3-34.5 11.8z"/>
  <ellipse class="st2" transform="matrix(.7447 -.6674 .6674 .7447 -170.1 606)" cx="707" cy="525.3" rx="26.6" ry="20.2"/>
  <ellipse class="st2" transform="matrix(.9529 -.3032 .3032 .9529 -138.7 223.7)" cx="651.1" cy="558.6" rx="21" ry="15.9"/>
  <ellipse class="st2" transform="matrix(.9988 -.04857 .04857 .9988 -27.15 29.69)" cx="597.4" cy="573.4" rx="15.8" ry="12"/>
  <path class="st2" d="m-12.8 262.1c5.4 2.6 11.1 3.1 15.8 1.9 1.4-0.4 2.8 0.6 3 2 0.5 3.3 2 6.8 4.6 9.9 3.7 4.4 8.6 6.9 13.1 7 1.4 0 2.5 1.3 2.3 2.7-0.4 2.8 0.1 6 1.5 9 2.9 6.2 8.2 9.2 15 7.7 1.6-0.3 3.2 0.5 3.8 2 0.5 1.1 0.3 2.3-0.4 3.3-12.9 18.4-32 41.6-61.3 46.9-31.3 5.6-48.5-36.5-5.1-54.2 1.4-0.6 1.6-2.4 0.4-3.3-26-18.1-22.6-41-8.6-50.2 1.4-0.9 3.3-0.2 3.7 1.4 1.3 5.4 5.7 10.7 12.2 13.9z"/>
  <ellipse class="st2" transform="matrix(.4352 -.9004 .9004 .4352 -226.3 135)" cx="-5.6" cy="247.9" rx="10.2" ry="13.4"/>
  <ellipse class="st2" transform="matrix(.7662 -.6426 .6426 .7662 -167.1 75.85)" cx="20.7" cy="267.6" rx="8" ry="10.6"/>
  <ellipse class="st2" transform="matrix(.9054 -.4245 .4245 .9054 -119.4 43.51)" cx="37.9" cy="289.8" rx="6" ry="8"/>
  <path class="st2" d="m150.3 275.9c-6.7-2.4-13.4-2.3-18.7-0.2-1.6 0.6-3.3-0.3-3.7-1.9-1-3.9-3.2-7.8-6.6-11-4.9-4.7-10.9-7-16.2-6.6-1.7 0.1-3.1-1.2-3-2.9 0.1-3.4-0.9-7-2.9-10.4-4.2-6.9-10.8-9.7-18.5-7.2-1.8 0.6-3.8-0.1-4.7-1.8v-0.1c-0.7-1.2-0.7-2.7 0-3.9 13.1-23.2 32.5-52.7 66.1-62.4 35.9-10.3 61.2 36.7 12.5 62.8-1.6 0.8-1.6 3 0 3.9 32.7 18 31.5 45.2 16.2 57.6-1.5 1.3-3.9 0.6-4.5-1.2-2.3-6.1-8.1-11.8-16-14.7z"/>
  <ellipse class="st2" transform="matrix(.3392 -.9407 .9407 .3392 -181.1 328.9)" cx="143.6" cy="293.4" rx="12" ry="15.8"/>
  <ellipse class="st2" transform="matrix(.6952 -.7188 .7188 .6952 -163 162.8)" cx="110.4" cy="273.5" rx="9.4" ry="12.4"/>
  <ellipse class="st2" transform="matrix(.8564 -.5164 .5164 .8564 -116.3 81.08)" cx="87.6" cy="249.7" rx="7.1" ry="9.4"/>
  <path class="st2" d="m87.5 431.6c-4.7 0.7-8.7 2.8-11.2 5.7-0.7 0.9-2.1 0.9-2.8 0-1.8-2-4.3-3.6-7.4-4.5-4.4-1.3-8.7-0.7-11.7 1.2-0.9 0.6-2.2 0.2-2.7-0.7-1-2-2.7-3.9-5-5.2-4.6-2.8-9.4-2.4-13.2 1.5-0.9 0.9-2.3 1.1-3.4 0.4-0.8-0.5-1.2-1.4-1.2-2.3 0.5-17.9 2.8-41.4 19.7-57.7 18.1-17.4 47.8 2.6 27.1 33.3-0.7 1 0 2.3 1.2 2.3 25 0.5 32.9 17 27.7 29.1-0.5 1.2-2.1 1.6-3.1 0.7-3.2-3-8.4-4.6-14-3.8z"/>
  <ellipse class="st2" transform="matrix(.9902 -.1396 .1396 .9902 -61.14 16.77)" cx="89" cy="444.1" rx="10.6" ry="8"/>
  <ellipse class="st2" transform="matrix(.2789 -.9603 .9603 .2789 -379.7 379.8)" cx="63.1" cy="442.7" rx="6.3" ry="8.3"/>
  <ellipse class="st2" transform="matrix(.5159 -.8566 .8566 .5159 -352.9 246.9)" cx="42" cy="435.7" rx="4.8" ry="6.3"/>
 </g>
 <defs>
  <ellipse id="e" cx="1400" cy="479.2" rx="33.9" ry="20.8"/>
 </defs>
 <clipPath id="c">
  <use xlink:href="#e"/>
 </clipPath>
 <g clip-path="url(#c)">
  <path class="st2" d="m110.3 97.4c-5.9 2.5-10.4 6.7-12.7 11.4-0.7 1.4-2.4 1.8-3.7 1-3-2-6.9-3.2-11.2-3.3-6.1-0.1-11.6 2.1-14.9 5.6-1 1.1-2.8 1.1-3.8 0-2-2.3-4.9-4.2-8.3-5.2-7.1-2.1-13.2 0.1-16.8 6.6-0.8 1.5-2.6 2.2-4.3 1.7-1.2-0.4-2.1-1.4-2.4-2.6-5.6-23.6-10.8-55.3 5.7-82.6 17.7-29 63.6-13.1 47.1 34.3-0.5 1.5 0.8 3 2.4 2.6 33-8.1 48.9 10.9 46.4 28.6-0.3 1.8-2.2 2.8-3.8 2-5.3-2.8-12.7-3-19.7-0.1z"/>
  <ellipse class="st2" transform="matrix(.9217 -.388 .388 .9217 -34.83 54.09)" cx="116.5" cy="113.3" rx="14.4" ry="10.9"/>
  <ellipse class="st2" transform="matrix(.02428 -.9997 .9997 .02428 -40.25 199.6)" cx="82.1" cy="120.4" rx="8.6" ry="11.3"/>
  <ellipse class="st2" transform="matrix(.2799 -.96 .96 .2799 -76.28 135.4)" cx="52.1" cy="118.5" rx="6.5" ry="8.5"/>
  <path class="st2" d="m403.6 178.2c-5 9-6.4 18.7-4.7 26.8 0.5 2.4-1.2 4.7-3.6 4.9-5.7 0.5-11.9 2.8-17.3 6.9-7.9 5.9-12.6 14.1-13.3 21.7-0.2 2.4-2.4 4.1-4.8 3.7-4.8-0.9-10.2-0.4-15.5 1.7-10.9 4.4-16.5 13.1-14.6 24.8 0.4 2.7-1.1 5.4-3.7 6.3h-0.1c-1.9 0.7-4 0.3-5.6-0.9-30.1-24.2-67.9-58.8-73.9-109.3-6.4-53.9 66.9-79.1 92.9-3.3 0.8 2.4 4 3 5.6 0.9 33.5-42.6 72.1-34.5 86.4-9.8 1.4 2.5 0 5.7-2.8 6.2-9.5 1.7-19 8.7-25 19.4z"/>
  <ellipse class="st2" transform="matrix(.4861 -.8739 .8739 .4861 51.78 471.9)" cx="427.1" cy="191.9" rx="22.9" ry="17.4"/>
  <ellipse class="st2" transform="matrix(.8018 -.5976 .5976 .8018 -62.79 280.1)" cx="390.9" cy="234.7" rx="18" ry="13.7"/>
  <ellipse class="st2" transform="matrix(.9283 -.3719 .3719 .9283 -72.2 149.5)" cx="351.4" cy="261.9" rx="13.6" ry="10.3"/>
  <path class="st2" d="m229.9 15.6c-8.6-1.2-16.7 0.6-22.6 4.5-1.7 1.1-4.1 0.5-5-1.4-2.2-4.4-5.9-8.5-10.7-11.6-7-4.4-15-5.6-21.2-3.9-2 0.6-4-0.7-4.4-2.7-0.7-4.1-2.8-8.2-6.1-11.7-6.8-7.3-15.4-9-24.1-4-2 1.2-4.6 0.8-6.1-1v-0.1c-1.1-1.3-1.5-3.1-1-4.7 9.9-31.2 25.8-71.6 63.8-91.8 40.6-21.6 82.9 28.7 31 72.4-1.7 1.4-1.1 4.1 1 4.7 43.9 13.4 49.3 46.5 34.1 65.3-1.5 1.9-4.5 1.8-5.8-0.3-4.2-6.9-12.6-12.2-22.9-13.7z"/>
  <ellipse class="st2" transform="matrix(.1381 -.9904 .9904 .1381 157 257.2)" cx="226.2" cy="38.4" rx="14.7" ry="19.4"/>
  <ellipse class="st2" transform="matrix(.5322 -.8466 .8466 .5322 65.45 164.2)" cx="181.3" cy="22.9" rx="11.6" ry="15.3"/>
  <ellipse class="st2" transform="matrix(.7316 -.6817 .6817 .7316 39.71 100.7)" cx="147.8" cy="-.1" rx="8.7" ry="11.5"/>
  <path class="st2" d="m263.5 336.8c-0.5 6.8 1.3 13.2 4.6 17.6 1 1.3 0.6 3.2-0.9 4-3.4 1.9-6.4 5-8.6 9-3.2 5.8-3.8 12.1-2.1 16.9 0.5 1.5-0.3 3.2-1.9 3.6-3.2 0.8-6.3 2.6-9 5.3-5.4 5.7-6.4 12.6-2 19.2 1 1.5 0.8 3.6-0.5 4.9-1 0.9-2.4 1.3-3.7 1-25.1-6.4-57.7-17-75.4-46-18.9-31 18.8-66.7 55.7-27.8 1.2 1.2 3.2 0.7 3.7-1 8.5-35.2 34.3-41.1 49.9-29.9 1.6 1.1 1.6 3.5 0 4.6-5.3 3.5-9.2 10.4-9.8 18.6z"/>
  <ellipse class="st2" transform="matrix(.07963 -.9968 .9968 .07963 -78.38 592.3)" cx="281.6" cy="338.6" rx="15.3" ry="11.6"/>
  <ellipse class="st2" transform="matrix(.4816 -.8764 .8764 .4816 -187.7 432.2)" cx="271.4" cy="374.7" rx="12.1" ry="9.2"/>
  <ellipse class="st2" transform="matrix(.6903 -.7236 .7236 .6903 -212.1 309)" cx="254.9" cy="402.3" rx="9.1" ry="6.9"/>
  <path class="st2" d="m559.4 277.4c-7-1.1-13.7 0.3-18.5 3.4-1.4 0.9-3.3 0.3-4.1-1.2-1.7-3.6-4.7-7-8.6-9.6-5.7-3.7-12.1-4.7-17.3-3.3-1.6 0.4-3.3-0.6-3.5-2.2-0.6-3.3-2.2-6.7-4.9-9.6-5.5-6-12.5-7.5-19.6-3.5-1.7 0.9-3.8 0.6-5-0.9-0.9-1.1-1.2-2.5-0.7-3.8 8.4-25.4 21.7-58.2 52.9-74.3 33.3-17.2 67.4 24.2 24.6 59.4-1.4 1.1-1 3.3 0.7 3.8 35.7 11.4 39.8 38.4 27.2 53.6-1.3 1.5-3.7 1.4-4.7-0.3-3.3-5.7-10.1-10.2-18.5-11.5z"/>
  <ellipse class="st2" transform="matrix(.1496 -.9887 .9887 .1496 180.4 801.7)" cx="556.2" cy="296" rx="12" ry="15.8"/>
  <ellipse class="st2" transform="matrix(.5421 -.8403 .8403 .5421 .2826 566.3)" cx="519.8" cy="282.9" rx="9.5" ry="12.5"/>
  <ellipse class="st2" transform="matrix(.7395 -.6731 .6731 .7395 -49.3 400.3)" cx="492.6" cy="263.9" rx="7.1" ry="9.4"/>
  <path class="st2" d="m413.1-26.2c5.9 4.8 12.8 7.1 19 6.9 1.8-0.1 3.3 1.5 3.1 3.3-0.4 4.3 0.5 9 2.8 13.6 3.3 6.5 8.6 11 14.2 12.5 1.7 0.5 2.7 2.3 2.1 4-1.3 3.4-1.6 7.4-0.8 11.6 1.8 8.5 7.5 13.8 16.3 13.9 2.1 0 3.8 1.5 4.1 3.5v0.1c0.2 1.5-0.3 3-1.4 4-21.6 18.9-51.9 42-89.6 39.8-40.3-2.3-49.1-59.2 9.7-68.4 1.9-0.3 2.7-2.5 1.4-3.9-26.8-30-15.9-57.3 4.1-64.5 2-0.7 4.2 0.7 4.2 2.9-0.1 7.1 3.8 15 10.8 20.7z"/>
  <ellipse class="st2" transform="matrix(.6318 -.7751 .7751 .6318 189.2 315.1)" cx="426.2" cy="-41.6" rx="12.9" ry="17"/>
  <ellipse class="st2" transform="matrix(.8942 -.4477 .4477 .8942 52.19 201.7)" cx="452.8" cy="-9.5" rx="10.2" ry="13.4"/>
  <ellipse class="st2" transform="matrix(.9791 -.2033 .2033 .9791 5.102 95.55)" cx="467.6" cy="22.9" rx="7.7" ry="10.1"/>
  <path class="st2" d="m749.5 138c1.4 7.6 5.2 14 10.1 17.9 1.4 1.2 1.5 3.3 0.2 4.6-3.1 3.1-5.6 7.3-6.9 12.3-1.8 7.2-0.6 14.3 2.6 19.1 1 1.5 0.5 3.6-1.1 4.4-3.2 1.8-6.2 4.7-8.3 8.4-4.3 7.8-3.3 15.6 3.3 21.6 1.6 1.4 1.9 3.7 0.9 5.5v0.1c-0.8 1.3-2.2 2.1-3.7 2.1-29.3 0.3-68-1.9-95.7-28.6-29.6-28.5 1.2-78.4 52.8-46.5 1.7 1 3.7-0.2 3.7-2.1-0.8-41 25.7-54.8 45.9-47.1 2 0.8 2.7 3.3 1.3 5-4.5 5.5-6.7 14.2-5.1 23.3z"/>
  <ellipse class="st2" transform="matrix(.9841 -.1776 .1776 .9841 -11.7 138.9)" cx="769.9" cy="134.8" rx="13.2" ry="17.4"/>
  <ellipse class="st2" transform="matrix(.2417 -.9703 .9703 .2417 411.3 880.8)" cx="769.2" cy="177.2" rx="13.7" ry="10.4"/>
  <ellipse class="st2" transform="matrix(.4826 -.8759 .8759 .4826 207 774.6)" cx="759.1" cy="212.1" rx="10.3" ry="7.8"/>
  <path class="st2" d="m806.4 327.2c-2.8 8.5-2.5 17 0.2 23.6 0.8 2-0.3 4.2-2.3 4.8-4.8 1.4-9.7 4.3-13.7 8.6-5.8 6.3-8.5 14-7.9 20.7 0.2 2.1-1.4 3.9-3.5 3.9-4.2 0-8.8 1.3-13 3.9-8.6 5.5-12 13.8-8.6 23.5 0.8 2.3-0.1 4.8-2.2 6h-0.1c-1.5 0.9-3.4 0.9-4.9 0.1-29.6-15.9-67.3-39.5-80.5-81.6-14.1-45 44.5-78.2 78.9-17.6 1.1 1.9 3.9 1.9 4.9-0.1 21.8-41.7 56.1-41 72.2-22.1 1.6 1.9 0.9 4.9-1.4 5.7-7.7 3-14.7 10.5-18.1 20.6z"/>
  <ellipse class="st2" transform="matrix(.318 -.9481 .9481 .318 247.4 1014)" cx="828.7" cy="335.1" rx="19.9" ry="15.1"/>
  <ellipse class="st2" transform="matrix(.6789 -.7342 .7342 .6789 -18.82 711.9)" cx="804.6" cy="377.5" rx="15.7" ry="11.9"/>
  <ellipse class="st2" transform="matrix(.8446 -.5354 .5354 .8446 -97.44 478.3)" cx="775.1" cy="407" rx="11.8" ry="9"/>
  <path class="st2" d="m927.3 467.9c-3.5 7.2-4.2 14.8-2.5 21 0.5 1.8-0.7 3.7-2.6 4-4.4 0.6-9.1 2.7-13.2 6.1-5.9 4.9-9.2 11.5-9.4 17.4-0.1 1.9-1.7 3.3-3.6 3.1-3.8-0.5-8 0.1-12 2-8.3 3.9-12.2 10.9-10.3 19.9 0.4 2.1-0.6 4.2-2.6 5.1h-0.1c-1.4 0.6-3.1 0.4-4.4-0.5-24.5-17.5-55.3-42.8-62.1-81.7-7.3-41.6 48.5-64.3 72.1-6.6 0.8 1.8 3.2 2.1 4.4 0.5 24.2-34.5 54.6-29.9 66.7-11.3 1.2 1.9 0.3 4.4-1.9 4.9-7.2 1.7-14.3 7.5-18.5 16.1z"/>
  <ellipse class="st2" transform="matrix(.437 -.8995 .8995 .437 103.2 1120)" cx="946.2" cy="477.5" rx="17.8" ry="13.5"/>
  <ellipse class="st2" transform="matrix(.7675 -.6411 .6411 .7675 -114.6 708.8)" cx="919.9" cy="512.4" rx="14" ry="10.6"/>
  <ellipse class="st2" transform="matrix(.9063 -.4227 .4227 .9063 -142.8 426.5)" cx="890.3" cy="535.2" rx="10.6" ry="8"/>
  <path class="st2" d="m908.1 239c-5.2-0.5-10.1 0.9-13.5 3.4-1 0.7-2.4 0.4-3-0.7-1.4-2.6-3.8-5-6.8-6.7-4.4-2.5-9.2-3-12.9-1.7-1.2 0.4-2.4-0.3-2.7-1.5-0.6-2.4-1.9-4.9-4-6.9-4.3-4.2-9.5-5-14.6-1.7-1.2 0.8-2.7 0.6-3.7-0.4-0.7-0.7-1-1.8-0.7-2.8 5-19.1 13.4-43.9 35.7-57.2 23.9-14.2 50.8 14.8 20.8 42.7-1 0.9-0.6 2.5 0.7 2.8 26.8 6.8 31.1 26.5 22.5 38.3-0.9 1.2-2.7 1.2-3.5 0-2.9-4-8.1-7-14.3-7.6z"/>
  <ellipse class="st2" transform="matrix(.08983 -.996 .996 .08983 573.3 1133)" cx="906.5" cy="252.8" rx="8.9" ry="11.7"/>
  <ellipse class="st2" transform="matrix(.4905 -.8714 .8714 .4905 234.5 890.7)" cx="879" cy="244.8" rx="7" ry="9.2"/>
  <ellipse class="st2" transform="matrix(.6976 -.7164 .7164 .6976 93.27 684.9)" cx="858.1" cy="232" rx="5.3" ry="6.9"/>
  <path class="st2" d="m592.4 64.5c-1.1-9.2-5.2-17.1-10.7-22.1-1.6-1.5-1.6-4.1 0.1-5.5 3.9-3.4 7.2-8.3 9.1-14.2 2.7-8.5 1.8-17-1.7-23-1.1-1.9-0.4-4.3 1.6-5.2 4-1.9 7.7-5.1 10.5-9.5 5.7-9 5.1-18.3-2.4-26-1.8-1.8-2-4.5-0.6-6.6v-0.1c1-1.5 2.8-2.4 4.6-2.3 34.9 1.8 80.9 7.3 112.1 41.1 33.2 36.2-7.2 93.4-66.5 51.6-1.9-1.3-4.5-0.1-4.6 2.3-2 48.9-34.7 63.5-58.2 52.9-2.4-1.1-3-4.2-1.2-6 5.9-6.2 9.2-16.4 7.9-27.4z"/>
  <ellipse class="st2" transform="matrix(.9932 -.1166 .1166 .9932 -3.927 66.71)" cx="567.9" cy="66.9" rx="15.7" ry="20.7"/>
  <ellipse class="st2" transform="matrix(.3011 -.9536 .9536 .3011 384.1 556.7)" cx="571.8" cy="16.3" rx="16.3" ry="12.4"/>
  <ellipse class="st2" transform="matrix(.5356 -.8445 .8445 .5356 293.1 483.9)" cx="586.5" cy="-24.5" rx="12.3" ry="9.3"/>
  <path class="st2" d="m904.5 56.2c-7 2.7-12.3 7.5-15.1 12.8-0.8 1.6-2.9 2.1-4.3 1-3.5-2.4-7.9-4-12.9-4.2-7.1-0.4-13.6 2-17.5 6-1.2 1.2-3.3 1.2-4.4-0.2-2.3-2.7-5.5-5-9.5-6.3-8.1-2.6-15.3-0.3-19.8 7.1-1 1.7-3.1 2.5-5 1.8h-0.1c-1.4-0.5-2.4-1.7-2.7-3.1-5.6-27.6-10.6-64.5 9.6-95.6 21.5-33.2 74.2-13.1 53.5 41.5-0.7 1.7 0.9 3.5 2.7 3.1 38.6-8.2 56.4 14.3 52.9 34.8-0.4 2.1-2.6 3.2-4.5 2.1-6-3.5-14.6-4-22.9-0.8z"/>
  <ellipse class="st2" transform="matrix(.9328 -.3604 .3604 .9328 34.27 333.5)" cx="911.2" cy="74.9" rx="16.7" ry="12.7"/>
  <ellipse class="st2" transform="matrix(.05395 -.9985 .9985 .05395 742.2 947.3)" cx="871" cy="81.9" rx="10" ry="13.1"/>
  <ellipse class="st2" transform="matrix(.3083 -.9513 .9513 .3083 503.5 850)" cx="836.2" cy="78.7" rx="7.5" ry="9.9"/>
  <path class="st2" d="m1063 86.8c0.9 6.4 3.9 11.8 7.9 15.1 1.2 1 1.2 2.8 0.1 3.8-2.7 2.4-4.8 5.9-6 10-1.7 5.9-0.9 11.8 1.7 15.9 0.8 1.3 0.4 3-1 3.7-2.7 1.4-5.2 3.7-7.1 6.8-3.7 6.3-3.2 12.8 2.2 17.9 1.3 1.2 1.5 3.1 0.6 4.6-0.7 1.1-1.9 1.7-3.1 1.7-24.2-0.5-56.2-3.4-78.5-26.2-23.8-24.4 3.1-64.8 45-37.1 1.3 0.9 3.1 0 3.1-1.7 0.4-33.9 22.7-44.7 39.2-37.8 1.7 0.7 2.2 2.8 1 4.2-4.1 4.4-6.2 11.5-5.1 19.1z"/>
  <ellipse class="st2" transform="matrix(.9893 -.1461 .1461 .9893 -.7833 158.7)" cx="1080" cy="84.7" rx="10.9" ry="14.4"/>
  <ellipse class="st2" transform="matrix(.2726 -.9621 .9621 .2726 669.2 1125)" cx="1078" cy="119.8" rx="11.3" ry="8.6"/>
  <ellipse class="st2" transform="matrix(.5103 -.86 .86 .5103 395.9 992.1)" cx="1069" cy="148.4" rx="8.5" ry="6.5"/>
  <path class="st2" d="m1216 445c-5.7 2.6-9.8 6.9-11.9 11.5-0.6 1.4-2.3 1.9-3.5 1.1-3-1.8-6.9-2.8-11-2.8-6 0.1-11.2 2.4-14.3 6-1 1.1-2.7 1.2-3.7 0.1-2-2.2-4.9-3.9-8.2-4.7-6.9-1.7-12.8 0.6-16.1 7-0.8 1.5-2.5 2.3-4.1 1.8-1.2-0.3-2.1-1.3-2.4-2.5-6.2-22.7-12.5-53.2 2.6-80.2 16.1-28.9 61.1-15.1 47 31.5-0.5 1.5 0.9 2.9 2.4 2.4 31.7-9.1 47.9 8.7 46 26-0.2 1.7-2 2.8-3.6 2-5.2-2.5-12.4-2.4-19.2 0.8z"/>
  <ellipse class="st2" transform="matrix(.9061 -.423 .423 .9061 -79.82 560.5)" cx="1223" cy="460.1" rx="13.9" ry="10.6"/>
  <ellipse class="st2" transform="matrix(.9999 -.01401 .01401 .9999 -6.445 16.72)" cx="1190" cy="468.3" rx="11" ry="8.3"/>
  <ellipse class="st2" transform="matrix(.243 -.97 .97 .243 425.1 1480)" cx="1161" cy="467.6" rx="6.3" ry="8.3"/>
  <path class="st2" d="m1057 386.2c-10.4-0.9-20.1 1.7-26.9 6.7-2 1.5-4.9 0.8-6.1-1.4-2.9-5.1-7.5-9.9-13.6-13.3-8.7-4.9-18.3-5.9-25.7-3.4-2.3 0.8-4.8-0.6-5.4-3-1.1-4.8-3.8-9.7-8-13.7-8.6-8.3-19-9.9-29.2-3.4-2.4 1.5-5.5 1.2-7.4-0.8l-0.1-0.1c-1.4-1.5-2-3.6-1.4-5.6 10.1-38.1 26.7-87.5 71.2-114 47.5-28.3 101.3 29.6 41.5 85.2-1.9 1.8-1.1 4.9 1.4 5.6 53.5 13.5 62 52.9 44.8 76.4-1.7 2.4-5.3 2.4-6.9-0.1-5.3-8-15.7-14-28.2-15.1z"/>
  <ellipse class="st2" transform="matrix(.0897 -.996 .996 .0897 547.6 1427)" cx="1054" cy="413.7" rx="17.7" ry="23.4"/>
  <ellipse class="st2" transform="matrix(.4904 -.8715 .8715 .4904 162.7 1074)" cx="999.4" cy="397.7" rx="13.9" ry="18.4"/>
  <ellipse class="st2" transform="matrix(.6975 -.7165 .7165 .6975 23.03 798.8)" cx="957.8" cy="372.1" rx="10.5" ry="13.8"/>
  <path class="st2" d="m1151 177.9c8.6 1.3 16.7-0.5 22.6-4.3 1.7-1.1 4.1-0.4 5 1.4 2.1 4.4 5.8 8.6 10.6 11.7 7 4.5 14.9 5.8 21.1 4 2-0.5 4 0.7 4.3 2.7 0.7 4.1 2.7 8.2 6 11.8 6.7 7.3 15.3 9.1 24 4.2 2-1.2 4.6-0.7 6.1 1v0.1c1.1 1.3 1.5 3.1 0.9 4.7-10.1 31.1-26.3 71.3-64.5 91.1-40.7 21.2-82.5-29.3-30.3-72.6 1.7-1.4 1.2-4-0.9-4.7-43.7-13.8-48.9-46.8-33.5-65.4 1.6-1.9 4.5-1.7 5.7 0.4 4.2 6.9 12.6 12.4 22.9 13.9z"/>
  <ellipse class="st2" transform="matrix(.1465 -.9892 .9892 .1465 831.9 1275)" cx="1154" cy="155.2" rx="14.7" ry="19.4"/>
  <ellipse class="st2" transform="matrix(.5394 -.8421 .8421 .5394 408.4 1089)" cx="1199" cy="171" rx="11.6" ry="15.3"/>
  <ellipse class="st2" transform="matrix(.7374 -.6755 .6755 .7374 192.5 883.6)" cx="1232" cy="194.2" rx="8.7" ry="11.5"/>
  <path class="st2" d="m1430 29.7c7.5-6.3 12.2-14.5 13.4-22.3 0.4-2.3 2.7-3.8 4.9-3.1 5.3 1.5 11.6 1.6 17.9-0.2 9-2.5 16.1-8.3 19.3-14.9 1-2.1 3.6-2.8 5.5-1.6 4 2.5 9 3.9 14.5 3.8 11.2-0.2 19.2-6.1 21.6-17.2 0.6-2.6 2.8-4.4 5.5-4.4h0.1c1.9 0 3.7 1.1 4.7 2.7 18.7 32 40.5 75.9 28.6 123.1-12.7 50.4-86.9 47.8-84.2-28.9 0.1-2.5-2.5-4-4.7-2.8-44.5 26.6-76.4 6.1-80.6-20.9-0.4-2.7 1.9-5.1 4.7-4.6 8.9 1.8 19.8-1.2 28.8-8.7z"/>
  <ellipse class="st2" transform="matrix(.7669 -.6417 .6417 .7669 323.6 909.7)" cx="1414" cy="9.4" rx="22" ry="16.6"/>
  <ellipse class="st2" transform="matrix(.9627 -.2706 .2706 .9627 58.99 394.8)" cx="1461" cy="-16.5" rx="17.3" ry="13.1"/>
  <ellipse class="st2" transform="matrix(.9999 -.0146 .0146 .9999 .5584 21.98)" cx="1506" cy="-27.3" rx="13" ry="9.9"/>
  <path class="st2" d="m1339 386.3c-6.2-6.9-14.1-11.1-21.5-12-2.2-0.3-3.7-2.4-3.1-4.6 1.3-5.1 1.1-11-0.8-16.9-2.7-8.5-8.3-14.9-14.7-17.8-2-0.9-2.8-3.3-1.7-5.2 2.2-3.8 3.4-8.6 3.1-13.8-0.5-10.6-6.4-18-16.9-19.9-2.5-0.4-4.3-2.5-4.3-5v-0.1c0-1.8 0.9-3.5 2.5-4.5 29.7-18.6 70.5-40.7 115.5-30.9 48.1 10.5 47.9 80.7-24.7 80.6-2.3 0-3.7 2.5-2.5 4.5 26.5 41.3 8.2 72-17.3 76.9-2.6 0.5-4.9-1.7-4.5-4.3 1.5-8.5-1.7-18.7-9.1-27z"/>
  <ellipse class="st2" transform="matrix(.7454 -.6666 .6666 .7454 68.02 982.8)" cx="1321" cy="402.4" rx="15.8" ry="20.8"/>
  <ellipse class="st2" transform="matrix(.9533 -.3022 .3022 .9533 -47.86 408)" cx="1295" cy="358.7" rx="12.4" ry="16.4"/>
  <ellipse class="st2" transform="matrix(.9989 -.04752 .04752 .9989 -13.6 61.34)" cx="1283" cy="316.7" rx="9.3" ry="12.3"/>
  <path class="st2" d="m1274 36.7c-4.9 7.7-6.6 16.2-5.5 23.4 0.3 2.1-1.3 4.1-3.5 4.2-5.1 0.2-10.6 1.9-15.7 5.2-7.3 4.8-11.8 11.8-12.8 18.5-0.3 2.1-2.4 3.5-4.4 3-4.2-1-9-0.9-13.8 0.7-9.8 3.3-15.2 10.8-14.2 21.2 0.2 2.4-1.2 4.7-3.6 5.4h-0.1c-1.7 0.5-3.6 0.1-4.9-1.1-25.4-22.9-57-55.5-59.8-100.4-3-48 63.1-66.5 82.3 1.8 0.6 2.2 3.4 2.8 4.9 1.1 31.7-36 65.5-26.9 76.9-4.3 1.1 2.3-0.3 5-2.8 5.3-8.4 1.1-17.2 6.8-23 16z"/>
  <ellipse class="st2" transform="matrix(.5352 -.8447 .8447 .5352 559.1 1116)" cx="1294" cy="50" rx="20.3" ry="15.4"/>
  <ellipse class="st2" transform="matrix(.8346 -.5508 .5508 .8346 160.9 708)" cx="1260" cy="86" rx="16" ry="12.1"/>
  <ellipse class="st2" transform="matrix(.948 -.3182 .3182 .948 29.21 394.9)" cx="1223" cy="108" rx="12" ry="9.1"/>
  <path class="st2" d="m1380 170.4c-6 1-11 4-14.1 7.8-0.9 1.1-2.6 1.2-3.6 0.1-2.4-2.5-5.7-4.4-9.6-5.4-5.6-1.5-11.2-0.6-15 1.9-1.2 0.8-2.8 0.4-3.5-0.9-1.4-2.5-3.6-4.9-6.5-6.5-6.1-3.4-12.2-2.7-16.9 2.5-1.1 1.2-2.9 1.5-4.3 0.6-1-0.6-1.6-1.7-1.6-2.9 0-22.9 1.9-53.2 23-74.7 22.5-23 61.3 1.5 36 41.7-0.8 1.3 0.1 2.9 1.6 2.9 32.1-0.4 42.7 20.5 36.6 36.2-0.6 1.6-2.6 2.1-3.9 1-4.3-3.8-11.1-5.5-18.2-4.3z"/>
  <ellipse class="st2" transform="matrix(.9855 -.1694 .1694 .9855 -11.59 236.8)" cx="1382" cy="186.3" rx="13.6" ry="10.3"/>
  <ellipse class="st2" transform="matrix(.2498 -.9683 .9683 .2498 832.1 1445)" cx="1349" cy="185.5" rx="8.1" ry="10.7"/>
  <ellipse class="st2" transform="matrix(.4898 -.8718 .8718 .4898 519.5 1243)" cx="1321" cy="177.4" rx="6.1" ry="8.1"/>
  <path class="st2" d="m1465 433.5c2.5 5.9 6.7 10.3 11.3 12.5 1.4 0.7 1.8 2.4 1 3.7-1.9 3-3.2 6.9-3.3 11.1-0.1 6.1 2 11.5 5.5 14.8 1.1 1 1.1 2.8 0 3.7-2.3 2-4.1 4.8-5.1 8.2-2 7 0.1 13.1 6.5 16.6 1.5 0.8 2.2 2.6 1.7 4.2-0.4 1.2-1.4 2.1-2.6 2.4-23.3 5.5-54.7 10.6-81.6-5.7-28.8-17.5-13-62.9 33.9-46.6 1.5 0.5 3-0.8 2.6-2.4-8-32.6 10.7-48.4 28.3-45.9 1.8 0.3 2.8 2.2 1.9 3.7-2.8 5.4-3 12.7-0.1 19.7z"/>
  <ellipse class="st2" transform="matrix(.9217 -.388 .388 .9217 -49.82 607.8)" cx="1480" cy="427.3" rx="10.8" ry="14.2"/>
  <ellipse class="st2" transform="matrix(.02428 -.9997 .9997 .02428 990.1 1937)" cx="1487" cy="461.3" rx="11.2" ry="8.5"/>
  <ellipse class="st2" transform="matrix(.2799 -.96 .96 .2799 598.3 1780)" cx="1486" cy="491" rx="8.4" ry="6.4"/>
  <path class="st2" d="m1633 371.7c-5.5 7.1-8 15.3-7.5 22.5 0.1 2.1-1.7 3.9-3.8 3.8-5-0.3-10.6 0.9-15.9 3.7-7.6 4-12.7 10.5-14.3 17-0.5 2-2.6 3.2-4.6 2.5-4-1.4-8.8-1.7-13.6-0.5-10 2.4-15.9 9.2-15.9 19.6 0 2.4-1.6 4.5-4 5h-0.1c-1.7 0.3-3.5-0.2-4.7-1.5-22.9-24.8-51-59.6-49.7-104 1.4-47.4 68-59.7 80.7 9.2 0.4 2.2 3.1 3.1 4.7 1.5 34.4-32.5 66.8-20.5 75.9 2.7 0.9 2.3-0.7 4.9-3.2 5-8.4 0.2-17.5 5-24 13.5z"/>
  <ellipse class="st2" transform="matrix(.6101 -.7923 .7923 .6101 337.7 1459)" cx="1652" cy="386.6" rx="20" ry="15.2"/>
  <ellipse class="st2" transform="matrix(.8814 -.4723 .4723 .8814 -6.38 812.3)" cx="1615" cy="418.9" rx="15.8" ry="12"/>
  <ellipse class="st2" transform="matrix(.9731 -.2304 .2304 .9731 -58.31 375.1)" cx="1577" cy="437.3" rx="11.9" ry="9"/>
  <path class="st2" d="m1562 197.7c-4 6-5.6 12.7-4.9 18.4 0.2 1.7-1.1 3.2-2.8 3.2-4 0-8.4 1.3-12.5 3.8-5.8 3.6-9.6 9.1-10.6 14.4-0.3 1.7-1.9 2.7-3.6 2.3-3.3-0.9-7.1-0.9-10.9 0.3-7.9 2.4-12.3 8.2-11.7 16.4 0.1 1.9-1.1 3.7-3 4.2h-0.1c-1.4 0.4-2.8 0-3.8-1-19.6-18.7-43.8-45.1-45-80.7-1.3-38 51.4-51.2 65 3.3 0.4 1.7 2.6 2.3 3.8 1 25.9-27.7 52.4-19.8 60.9-1.6 0.9 1.8-0.3 4-2.3 4.2-6.6 0.4-13.7 4.7-18.5 11.8z"/>
  <ellipse class="st2" transform="matrix(.5591 -.8291 .8291 .5591 522.4 1400)" cx="1577" cy="208.7" rx="16.1" ry="12.2"/>
  <ellipse class="st2" transform="matrix(.85 -.5267 .5267 .85 107.9 851.6)" cx="1550" cy="236.4" rx="12.6" ry="9.6"/>
  <ellipse class="st2" transform="matrix(.9567 -.291 .291 .9567 -7.82 453.4)" cx="1520" cy="253" rx="9.5" ry="7.2"/>
  <path class="st2" d="m422.4 441.9c-6.5-3.4-13.4-4.3-19.2-3-1.7 0.4-3.4-0.8-3.6-2.5-0.5-4.1-2.2-8.4-5.2-12.3-4.3-5.5-10.2-8.8-15.7-9.1-1.7-0.1-3-1.7-2.7-3.4 0.6-3.4 0.1-7.3-1.4-11-3.3-7.7-9.6-11.5-17.9-10.1-1.9 0.3-3.9-0.7-4.6-2.5v-0.1c-0.5-1.3-0.3-2.9 0.6-4 16.8-21.9 41-49.3 76.9-54.4 38.4-5.4 57.4 46.5 3.7 66.3-1.7 0.6-2 2.9-0.6 4 30.9 23.2 25.7 50.9 8.3 61.5-1.8 1.1-4.1 0.1-4.5-1.9-1.3-6.7-6.4-13.4-14.1-17.5z"/>
  <ellipse class="st2" transform="matrix(.4676 -.8839 .8839 .4676 -185.8 609.3)" cx="412.9" cy="458.9" rx="12.4" ry="16.4"/>
  <ellipse class="st2" transform="matrix(.7891 -.6143 .6143 .7891 -185.9 326.1)" cx="381.8" cy="433.7" rx="9.8" ry="12.9"/>
  <ellipse class="st2" transform="matrix(.9202 -.3913 .3913 .9202 -130 174)" cx="361.9" cy="405.9" rx="7.4" ry="9.7"/>
  <path class="st2" d="m686.5 501.4c-8.9 8-14.1 18.1-15.3 27.6-0.3 2.8-3.1 4.7-5.9 4-6.5-1.6-14.1-1.4-21.6 1-10.9 3.5-19.1 10.7-22.8 18.8-1.1 2.5-4.2 3.6-6.7 2.2-4.9-2.8-11.1-4.3-17.7-4-13.6 0.7-23 8.2-25.5 21.7-0.6 3.2-3.2 5.5-6.4 5.5h-0.1c-2.3 0-4.5-1.2-5.8-3.1-23.9-38-52.2-90.3-39.7-147.9 13.4-61.6 103.3-61.4 103.2 31.6 0 3 3.2 4.8 5.7 3.1 52.8-34 92.2-10.6 98.5 22 0.6 3.3-2.1 6.3-5.4 5.7-10.9-1.8-24 2.3-34.5 11.8z"/>
  <ellipse class="st2" transform="matrix(.7447 -.6674 .6674 .7447 -170.1 606)" cx="707" cy="525.3" rx="26.6" ry="20.2"/>
  <ellipse class="st2" transform="matrix(.9529 -.3032 .3032 .9529 -138.7 223.7)" cx="651.1" cy="558.6" rx="21" ry="15.9"/>
  <ellipse class="st2" transform="matrix(.9988 -.04857 .04857 .9988 -27.15 29.69)" cx="597.4" cy="573.4" rx="15.8" ry="12"/>
  <path class="st2" d="m-12.8 262.1c5.4 2.6 11.1 3.1 15.8 1.9 1.4-0.4 2.8 0.6 3 2 0.5 3.3 2 6.8 4.6 9.9 3.7 4.4 8.6 6.9 13.1 7 1.4 0 2.5 1.3 2.3 2.7-0.4 2.8 0.1 6 1.5 9 2.9 6.2 8.2 9.2 15 7.7 1.6-0.3 3.2 0.5 3.8 2 0.5 1.1 0.3 2.3-0.4 3.3-12.9 18.4-32 41.6-61.3 46.9-31.3 5.6-48.5-36.5-5.1-54.2 1.4-0.6 1.6-2.4 0.4-3.3-26-18.1-22.6-41-8.6-50.2 1.4-0.9 3.3-0.2 3.7 1.4 1.3 5.4 5.7 10.7 12.2 13.9z"/>
  <ellipse class="st2" transform="matrix(.4352 -.9004 .9004 .4352 -226.3 135)" cx="-5.6" cy="247.9" rx="10.2" ry="13.4"/>
  <ellipse class="st2" transform="matrix(.7662 -.6426 .6426 .7662 -167.1 75.85)" cx="20.7" cy="267.6" rx="8" ry="10.6"/>
  <ellipse class="st2" transform="matrix(.9054 -.4245 .4245 .9054 -119.4 43.51)" cx="37.9" cy="289.8" rx="6" ry="8"/>
  <path class="st2" d="m150.3 275.9c-6.7-2.4-13.4-2.3-18.7-0.2-1.6 0.6-3.3-0.3-3.7-1.9-1-3.9-3.2-7.8-6.6-11-4.9-4.7-10.9-7-16.2-6.6-1.7 0.1-3.1-1.2-3-2.9 0.1-3.4-0.9-7-2.9-10.4-4.2-6.9-10.8-9.7-18.5-7.2-1.8 0.6-3.8-0.1-4.7-1.8v-0.1c-0.7-1.2-0.7-2.7 0-3.9 13.1-23.2 32.5-52.7 66.1-62.4 35.9-10.3 61.2 36.7 12.5 62.8-1.6 0.8-1.6 3 0 3.9 32.7 18 31.5 45.2 16.2 57.6-1.5 1.3-3.9 0.6-4.5-1.2-2.3-6.1-8.1-11.8-16-14.7z"/>
  <ellipse class="st2" transform="matrix(.3392 -.9407 .9407 .3392 -181.1 328.9)" cx="143.6" cy="293.4" rx="12" ry="15.8"/>
  <ellipse class="st2" transform="matrix(.6952 -.7188 .7188 .6952 -163 162.8)" cx="110.4" cy="273.5" rx="9.4" ry="12.4"/>
  <ellipse class="st2" transform="matrix(.8564 -.5164 .5164 .8564 -116.3 81.08)" cx="87.6" cy="249.7" rx="7.1" ry="9.4"/>
  <path class="st2" d="m87.5 431.6c-4.7 0.7-8.7 2.8-11.2 5.7-0.7 0.9-2.1 0.9-2.8 0-1.8-2-4.3-3.6-7.4-4.5-4.4-1.3-8.7-0.7-11.7 1.2-0.9 0.6-2.2 0.2-2.7-0.7-1-2-2.7-3.9-5-5.2-4.6-2.8-9.4-2.4-13.2 1.5-0.9 0.9-2.3 1.1-3.4 0.4-0.8-0.5-1.2-1.4-1.2-2.3 0.5-17.9 2.8-41.4 19.7-57.7 18.1-17.4 47.8 2.6 27.1 33.3-0.7 1 0 2.3 1.2 2.3 25 0.5 32.9 17 27.7 29.1-0.5 1.2-2.1 1.6-3.1 0.7-3.2-3-8.4-4.6-14-3.8z"/>
  <ellipse class="st2" transform="matrix(.9902 -.1396 .1396 .9902 -61.14 16.77)" cx="89" cy="444.1" rx="10.6" ry="8"/>
  <ellipse class="st2" transform="matrix(.2789 -.9603 .9603 .2789 -379.7 379.8)" cx="63.1" cy="442.7" rx="6.3" ry="8.3"/>
  <ellipse class="st2" transform="matrix(.5159 -.8566 .8566 .5159 -352.9 246.9)" cx="42" cy="435.7" rx="4.8" ry="6.3"/>
 </g>
</svg>
