<?xml version="1.0" encoding="UTF-8"?>
<svg id="Layer_1" data-name="Layer 1" xmlns="http://www.w3.org/2000/svg" viewBox="0 0 1600 500">
  <defs>
    <style>
      .cls-1 {
        fill: #d7b6fa;
        fill-rule: evenodd;
      }

      .cls-1, .cls-2, .cls-3, .cls-4, .cls-5 {
        stroke-width: 0px;
      }

      .cls-3 {
        fill: #ba81f9;
      }

      .cls-4 {
        fill: #fff;
      }

      .cls-5 {
        fill: #ead9fc;
      }
    </style>
  </defs>
  <g>
    <path class="cls-1" d="M1600,24.84v428.52c0,8.31-4.08,15.66-10.34,20.17-2.4,1.73-5.84.86-6.95-1.88-3.92-9.72-16.41-16.83-31.21-16.83-9.47,0-17.99,2.91-23.93,7.55-1.91,1.49-4.64,1.25-6.24-.56-7.66-8.68-21.22-14.45-36.68-14.45-13.95,0-26.37,4.71-34.28,12.01-1.84,1.7-4.72,1.55-6.42-.29-9.32-10.07-25.83-16.76-44.62-16.76-27.05,0-49.35,13.85-52.36,31.7-.4,2.39-2.49,4.14-4.91,4.14l-1317.22.05c-13.71,0-24.83-11.12-24.83-24.84V24.84C0,11.12,11.12,0,24.83,0h1550.34C1588.88,0,1600,11.12,1600,24.84Z"/>
    <g>
      <ellipse class="cls-3" cx="1399.46" cy="479.16" rx="33.87" ry="20.84"/>
      <ellipse class="cls-3" cx="1483.78" cy="478.69" rx="27.94" ry="17.19"/>
      <ellipse class="cls-3" cx="1552.37" cy="479.04" rx="18.65" ry="11.48"/>
    </g>
  </g>
  <path class="cls-3" d="M1600,395.54v57.82c0,8.31-4.08,15.66-10.35,20.17-2.4,1.72-5.84.86-6.94-1.88-3.93-9.72-16.41-16.83-31.21-16.83-9.47,0-17.99,2.91-23.93,7.55-1.91,1.49-4.64,1.25-6.24-.56-7.66-8.68-21.22-14.45-36.68-14.45-13.95,0-26.37,4.7-34.29,12-1.84,1.7-4.71,1.55-6.42-.29-9.32-10.07-25.83-16.76-44.62-16.76-27.06,0-49.35,13.85-52.37,31.7-.4,2.39-2.48,4.14-4.91,4.14l-1317.21.05C11.12,478.2,0,467.08,0,453.36v-146.93s282.67,88.97,465.45,88.88c289.52-.15,715.14-126.59,1134.55.24Z"/>
  <path class="cls-5" d="M0,21.33v58.55c526.76-48.85,864.32,138.05,1600-3.86V21.33C1600,9.55,1588.88,0,1575.17,0H24.83C11.12,0,0,9.55,0,21.33Z"/>
  <g>
    <rect class="cls-4" x="243.98" y="153.12" width="1092.33" height="168.76" rx="35.65" ry="35.65"/>
    <g>
      <path class="cls-2" d="M358.78,255.07c-2.84,0-5.38-.56-7.62-1.68-2.24-1.12-4.01-2.74-5.32-4.87-1.31-2.13-1.96-4.69-1.96-7.67s.69-5.66,2.07-7.78c1.38-2.13,3.23-3.75,5.54-4.87,2.31-1.12,4.83-1.68,7.56-1.68,2.2,0,4.12.39,5.77,1.18,1.64.78,3.02,1.72,4.14,2.8l-2.3,2.97c-1.12-.97-2.29-1.74-3.5-2.3-1.21-.56-2.53-.84-3.95-.84-2.09,0-3.93.44-5.52,1.32-1.59.88-2.83,2.11-3.72,3.7-.9,1.59-1.34,3.43-1.34,5.52s.44,3.86,1.32,5.43c.88,1.57,2.1,2.79,3.67,3.67,1.57.88,3.4,1.32,5.49,1.32,1.68,0,3.22-.34,4.62-1.01s2.66-1.47,3.78-2.41l2.07,2.97c-1.49,1.34-3.16,2.39-5.01,3.14s-3.78,1.12-5.8,1.12Z"/>
      <path class="cls-2" d="M386.78,255.07c-1.68,0-3.22-.31-4.62-.92-1.4-.62-2.52-1.5-3.36-2.66s-1.26-2.54-1.26-4.14c0-2.05.66-3.76,1.99-5.12,1.32-1.36,3.44-2.45,6.36-3.28,2.91-.82,6.7-1.42,11.37-1.79-.04-1.23-.29-2.36-.76-3.39-.47-1.03-1.22-1.86-2.27-2.49-1.04-.63-2.45-.95-4.2-.95s-3.46.35-5.12,1.04c-1.66.69-3.13,1.43-4.4,2.21l-1.79-3.14c1.38-.9,3.14-1.77,5.29-2.63,2.15-.86,4.41-1.29,6.8-1.29,3.73,0,6.5,1.02,8.32,3.05,1.81,2.04,2.72,4.75,2.72,8.15v16.69h-3.75l-.39-3.7h-.17c-1.49,1.16-3.17,2.18-5.04,3.05-1.87.88-3.77,1.32-5.71,1.32ZM388.02,251.38c1.53,0,3.07-.35,4.62-1.06,1.55-.71,3.09-1.7,4.62-2.97v-7.17c-3.88.3-6.94.76-9.16,1.37-2.22.62-3.79,1.38-4.7,2.3-.92.92-1.37,1.97-1.37,3.16,0,1.53.61,2.64,1.82,3.33,1.21.69,2.6,1.04,4.17,1.04Z"/>
      <path class="cls-2" d="M414.78,254.4v-27.22h3.81l.39,6.44h.17c1.42-2.2,3.17-3.94,5.26-5.21,2.09-1.27,4.39-1.9,6.89-1.9,1.01,0,1.95.08,2.83.25.88.17,1.73.46,2.55.87l-1.06,3.98c-.93-.34-1.74-.58-2.41-.73-.67-.15-1.55-.22-2.63-.22-2.05,0-4.02.59-5.91,1.76s-3.65,3.18-5.29,6.02v15.96h-4.59Z"/>
      <path class="cls-2" d="M456.78,266.94c-3.96,0-7.04-.66-9.24-1.99-2.2-1.33-3.3-3.18-3.3-5.57s1.49-4.33,4.48-6.05v-.22c-.71-.41-1.35-.97-1.93-1.68-.58-.71-.87-1.64-.87-2.8,0-.86.28-1.74.84-2.66.56-.91,1.36-1.73,2.41-2.44v-.22c-.93-.71-1.73-1.66-2.38-2.86-.65-1.19-.98-2.59-.98-4.2,0-1.98.5-3.7,1.48-5.15.99-1.46,2.3-2.58,3.92-3.39,1.62-.8,3.39-1.2,5.29-1.2,1.53,0,2.87.22,4.03.67h11.26v3.75h-7.06c.63.64,1.18,1.44,1.62,2.41.45.97.67,2,.67,3.08,0,1.94-.47,3.61-1.4,5.01-.93,1.4-2.19,2.47-3.78,3.22-1.59.75-3.37,1.12-5.35,1.12-.71,0-1.47-.08-2.27-.25-.8-.17-1.58-.42-2.32-.76-.67.41-1.2.88-1.57,1.4-.37.52-.56,1.1-.56,1.74,0,1.05.49,1.83,1.48,2.35.99.52,2.38.78,4.17.78h6.1c3.51,0,6.11.49,7.81,1.46,1.7.97,2.55,2.61,2.55,4.93,0,1.68-.62,3.25-1.85,4.7-1.23,1.46-2.98,2.62-5.24,3.5-2.26.88-4.94,1.32-8.04,1.32ZM457.12,263.58c3.17,0,5.67-.56,7.5-1.68,1.83-1.12,2.74-2.37,2.74-3.75,0-1.31-.51-2.18-1.54-2.63-1.03-.45-2.59-.67-4.68-.67h-5.32c-.78,0-1.52-.04-2.21-.11-.69-.08-1.33-.19-1.93-.34-1.27.71-2.17,1.45-2.69,2.21-.52.76-.78,1.54-.78,2.32,0,1.42.76,2.55,2.27,3.39,1.51.84,3.72,1.26,6.64,1.26ZM456.5,242.7c1.75,0,3.24-.59,4.45-1.76,1.21-1.18,1.82-2.73,1.82-4.68s-.61-3.44-1.82-4.62c-1.21-1.18-2.7-1.76-4.45-1.76s-3.19.59-4.42,1.76c-1.23,1.18-1.85,2.72-1.85,4.62s.62,3.5,1.85,4.68c1.23,1.18,2.71,1.76,4.42,1.76Z"/>
      <path class="cls-2" d="M490.61,255.07c-2.39,0-4.6-.56-6.64-1.68-2.04-1.12-3.68-2.74-4.93-4.87-1.25-2.13-1.88-4.69-1.88-7.67s.62-5.66,1.88-7.78c1.25-2.13,2.89-3.75,4.93-4.87,2.03-1.12,4.25-1.68,6.64-1.68s4.6.56,6.64,1.68,3.68,2.74,4.93,4.87c1.25,2.13,1.88,4.72,1.88,7.78s-.63,5.54-1.88,7.67c-1.25,2.13-2.89,3.75-4.93,4.87-2.04,1.12-4.25,1.68-6.64,1.68ZM490.61,251.26c2.61,0,4.71-.96,6.3-2.88,1.59-1.92,2.38-4.43,2.38-7.53s-.79-5.67-2.38-7.62c-1.59-1.94-3.69-2.91-6.3-2.91s-4.71.97-6.3,2.91c-1.59,1.94-2.38,4.48-2.38,7.62s.79,5.61,2.38,7.53c1.59,1.92,3.69,2.88,6.3,2.88Z"/>
      <path class="cls-2" d="M560.38,255.07c-2.84,0-5.38-.56-7.62-1.68-2.24-1.12-4.01-2.74-5.32-4.87-1.31-2.13-1.96-4.69-1.96-7.67s.69-5.66,2.07-7.78c1.38-2.13,3.23-3.75,5.54-4.87,2.31-1.12,4.83-1.68,7.56-1.68,2.2,0,4.12.39,5.77,1.18,1.64.78,3.02,1.72,4.14,2.8l-2.3,2.97c-1.12-.97-2.29-1.74-3.5-2.3-1.21-.56-2.53-.84-3.95-.84-2.09,0-3.93.44-5.52,1.32-1.59.88-2.83,2.11-3.72,3.7-.9,1.59-1.34,3.43-1.34,5.52s.44,3.86,1.32,5.43c.88,1.57,2.1,2.79,3.67,3.67,1.57.88,3.4,1.32,5.49,1.32,1.68,0,3.22-.34,4.62-1.01s2.66-1.47,3.78-2.41l2.07,2.97c-1.49,1.34-3.16,2.39-5.01,3.14s-3.78,1.12-5.8,1.12Z"/>
      <path class="cls-2" d="M591.4,255.07c-2.39,0-4.6-.56-6.64-1.68-2.04-1.12-3.68-2.74-4.93-4.87-1.25-2.13-1.88-4.69-1.88-7.67s.62-5.66,1.88-7.78c1.25-2.13,2.89-3.75,4.93-4.87,2.03-1.12,4.25-1.68,6.64-1.68s4.6.56,6.64,1.68,3.68,2.74,4.93,4.87c1.25,2.13,1.88,4.72,1.88,7.78s-.63,5.54-1.88,7.67c-1.25,2.13-2.89,3.75-4.93,4.87-2.04,1.12-4.25,1.68-6.64,1.68ZM591.4,251.26c2.61,0,4.71-.96,6.3-2.88,1.59-1.92,2.38-4.43,2.38-7.53s-.79-5.67-2.38-7.62c-1.59-1.94-3.69-2.91-6.3-2.91s-4.71.97-6.3,2.91c-1.59,1.94-2.38,4.48-2.38,7.62s.79,5.61,2.38,7.53c1.59,1.92,3.69,2.88,6.3,2.88Z"/>
      <path class="cls-2" d="M613.41,254.4v-27.22h3.81l.39,4.65h.22c1.42-1.53,2.95-2.8,4.59-3.81s3.53-1.51,5.66-1.51c3.21,0,5.58.93,7.11,2.8,1.53,1.87,2.3,4.59,2.3,8.18v16.91h-4.59v-16.3c0-2.58-.49-4.49-1.46-5.74-.97-1.25-2.58-1.88-4.82-1.88-1.61,0-3.04.41-4.31,1.23-1.27.82-2.71,2.05-4.31,3.7v18.98h-4.59Z"/>
      <path class="cls-2" d="M663.87,255.07c-2.65,0-4.74-.48-6.27-1.43-1.53-.95-2.62-2.27-3.28-3.95s-.98-3.64-.98-5.88v-12.88h-7.67v-3.47l7.84-.28.62-8.74h3.81v8.74h13.38v3.75h-13.38v12.94c0,2.43.49,4.28,1.48,5.54.99,1.27,2.79,1.9,5.4,1.9,1.31,0,2.48-.11,3.53-.34,1.04-.22,2.05-.52,3.02-.9l1.01,3.36c-1.23.45-2.53.83-3.89,1.15-1.36.32-2.9.48-4.62.48Z"/>
      <path class="cls-2" d="M683.58,254.4v-27.22h3.81l.39,6.44h.17c1.42-2.2,3.17-3.94,5.26-5.21,2.09-1.27,4.39-1.9,6.89-1.9,1.01,0,1.95.08,2.83.25.88.17,1.73.46,2.55.87l-1.06,3.98c-.93-.34-1.74-.58-2.41-.73-.67-.15-1.55-.22-2.63-.22-2.05,0-4.02.59-5.91,1.76s-3.65,3.18-5.29,6.02v15.96h-4.59Z"/>
      <path class="cls-2" d="M722.78,255.07c-1.68,0-3.22-.31-4.62-.92-1.4-.62-2.52-1.5-3.36-2.66s-1.26-2.54-1.26-4.14c0-2.05.66-3.76,1.99-5.12,1.32-1.36,3.44-2.45,6.36-3.28,2.91-.82,6.7-1.42,11.37-1.79-.04-1.23-.29-2.36-.76-3.39-.47-1.03-1.22-1.86-2.27-2.49-1.04-.63-2.45-.95-4.2-.95s-3.46.35-5.12,1.04c-1.66.69-3.13,1.43-4.4,2.21l-1.79-3.14c1.38-.9,3.14-1.77,5.29-2.63,2.15-.86,4.41-1.29,6.8-1.29,3.73,0,6.5,1.02,8.32,3.05,1.81,2.04,2.72,4.75,2.72,8.15v16.69h-3.75l-.39-3.7h-.17c-1.49,1.16-3.17,2.18-5.04,3.05-1.87.88-3.77,1.32-5.71,1.32ZM724.01,251.38c1.53,0,3.07-.35,4.62-1.06,1.55-.71,3.09-1.7,4.62-2.97v-7.17c-3.88.3-6.94.76-9.16,1.37-2.22.62-3.79,1.38-4.7,2.3-.92.92-1.37,1.97-1.37,3.16,0,1.53.61,2.64,1.82,3.33,1.21.69,2.6,1.04,4.17,1.04Z"/>
      <path class="cls-2" d="M761.98,255.07c-2.84,0-5.38-.56-7.62-1.68-2.24-1.12-4.01-2.74-5.32-4.87-1.31-2.13-1.96-4.69-1.96-7.67s.69-5.66,2.07-7.78c1.38-2.13,3.23-3.75,5.54-4.87,2.31-1.12,4.83-1.68,7.56-1.68,2.2,0,4.12.39,5.77,1.18,1.64.78,3.02,1.72,4.14,2.8l-2.3,2.97c-1.12-.97-2.29-1.74-3.5-2.3-1.21-.56-2.53-.84-3.95-.84-2.09,0-3.93.44-5.52,1.32-1.59.88-2.83,2.11-3.72,3.7-.9,1.59-1.34,3.43-1.34,5.52s.44,3.86,1.32,5.43c.88,1.57,2.1,2.79,3.67,3.67,1.57.88,3.4,1.32,5.49,1.32,1.68,0,3.22-.34,4.62-1.01s2.66-1.47,3.78-2.41l2.07,2.97c-1.49,1.34-3.16,2.39-5.01,3.14s-3.78,1.12-5.8,1.12Z"/>
      <path class="cls-2" d="M798.27,255.07c-2.65,0-4.74-.48-6.27-1.43-1.53-.95-2.62-2.27-3.28-3.95s-.98-3.64-.98-5.88v-12.88h-7.67v-3.47l7.84-.28.62-8.74h3.81v8.74h13.38v3.75h-13.38v12.94c0,2.43.49,4.28,1.48,5.54.99,1.27,2.79,1.9,5.4,1.9,1.31,0,2.48-.11,3.53-.34,1.04-.22,2.05-.52,3.02-.9l1.01,3.36c-1.23.45-2.53.83-3.89,1.15-1.36.32-2.9.48-4.62.48Z"/>
      <path class="cls-2" d="M861.32,255.07c-1.31,0-2.72-.33-4.23-.98-1.51-.65-2.92-1.56-4.23-2.72h-.17l-.39,3.02h-3.7v-39.87h4.59v10.86l-.17,5.26h.17c1.23-1.27,2.66-2.28,4.28-3.02,1.62-.75,3.24-1.12,4.84-1.12,3.66,0,6.46,1.25,8.4,3.75,1.94,2.5,2.91,5.86,2.91,10.08,0,3.1-.58,5.75-1.74,7.95-1.16,2.2-2.67,3.88-4.54,5.04-1.87,1.16-3.88,1.74-6.05,1.74ZM860.59,251.21c2.39,0,4.37-.96,5.94-2.88s2.35-4.56,2.35-7.92c0-2.99-.6-5.4-1.79-7.25-1.2-1.85-3.16-2.77-5.88-2.77-1.2,0-2.47.33-3.84.98-1.36.65-2.75,1.69-4.17,3.11v13.55c1.31,1.16,2.62,1.98,3.95,2.46,1.32.49,2.47.73,3.44.73Z"/>
      <path class="cls-2" d="M890.78,255.07c-3.25,0-5.64-.93-7.17-2.8-1.53-1.87-2.3-4.59-2.3-8.18v-16.91h4.65v16.3c0,2.58.48,4.49,1.43,5.74.95,1.25,2.57,1.88,4.84,1.88,1.57,0,3-.4,4.28-1.2s2.68-2.08,4.17-3.84v-18.87h4.59v27.22h-3.75l-.39-4.76h-.22c-1.38,1.61-2.89,2.91-4.54,3.92-1.64,1.01-3.51,1.51-5.6,1.51Z"/>
      <path class="cls-2" d="M928.3,254.4v-23.46h-12.66v-3.75h17.25v27.22h-4.59ZM930.09,221.47c-1.05,0-1.92-.33-2.63-.98-.71-.65-1.06-1.52-1.06-2.6s.35-1.95,1.06-2.6c.71-.65,1.59-.98,2.63-.98s1.92.33,2.63.98c.71.65,1.06,1.52,1.06,2.6s-.35,1.95-1.06,2.6c-.71.65-1.59.98-2.63.98Z"/>
      <path class="cls-2" d="M966.99,255.07c-2.88,0-5.09-.83-6.64-2.49-1.55-1.66-2.32-4.1-2.32-7.31v-26.99h-9.69v-3.75h14.28v31.08c0,1.98.49,3.42,1.48,4.31.99.9,2.29,1.34,3.89,1.34s3.3-.41,5.1-1.23l1.18,3.42c-1.27.52-2.43.92-3.47,1.2s-2.31.42-3.81.42Z"/>
      <path class="cls-2" d="M992.98,255.07c-3.55,0-6.4-1.24-8.57-3.72-2.17-2.48-3.25-5.98-3.25-10.5,0-2.95.59-5.5,1.76-7.64,1.18-2.15,2.71-3.8,4.59-4.96,1.88-1.16,3.89-1.74,6.02-1.74,1.64,0,3.12.31,4.42.92,1.31.62,2.54,1.48,3.7,2.6h.17l-.22-5.04v-10.47h4.59v39.87h-3.81l-.39-3.58h-.17c-1.12,1.16-2.46,2.16-4,3-1.55.84-3.16,1.26-4.84,1.26ZM993.93,251.21c2.69,0,5.25-1.36,7.67-4.09v-13.55c-1.23-1.16-2.44-1.98-3.61-2.46-1.18-.48-2.36-.73-3.56-.73-1.57,0-3,.44-4.28,1.32-1.29.88-2.31,2.09-3.08,3.64-.77,1.55-1.15,3.37-1.15,5.46,0,3.25.71,5.8,2.13,7.64,1.42,1.85,3.38,2.77,5.88,2.77Z"/>
      <path class="cls-2" d="M1049.76,237.66v-3.47h24.08v3.47h-24.08Z"/>
      <path class="cls-2" d="M1083.36,237.66v-3.47h24.08v3.47h-24.08Z"/>
      <path class="cls-2" d="M1134.99,255.07c-2.88,0-5.09-.83-6.64-2.49-1.55-1.66-2.32-4.1-2.32-7.31v-26.99h-9.69v-3.75h14.28v31.08c0,1.98.49,3.42,1.48,4.31.99.9,2.29,1.34,3.89,1.34s3.3-.41,5.1-1.23l1.18,3.42c-1.27.52-2.43.92-3.47,1.2s-2.31.42-3.81.42Z"/>
      <path class="cls-2" d="M1163.49,254.4v-23.46h-12.66v-3.75h17.25v27.22h-4.59ZM1165.28,221.47c-1.05,0-1.92-.33-2.63-.98-.71-.65-1.06-1.52-1.06-2.6s.35-1.95,1.06-2.6c.71-.65,1.59-.98,2.63-.98s1.92.33,2.63.98c.71.65,1.06,1.52,1.06,2.6s-.35,1.95-1.06,2.6c-.71.65-1.59.98-2.63.98Z"/>
      <path class="cls-2" d="M1184.6,254.4v-27.22h3.81l.39,4.65h.22c1.42-1.53,2.95-2.8,4.59-3.81s3.53-1.51,5.66-1.51c3.21,0,5.58.93,7.11,2.8,1.53,1.87,2.3,4.59,2.3,8.18v16.91h-4.59v-16.3c0-2.58-.49-4.49-1.46-5.74-.97-1.25-2.58-1.88-4.82-1.88-1.61,0-3.04.41-4.31,1.23-1.27.82-2.71,2.05-4.31,3.7v18.98h-4.59Z"/>
      <path class="cls-2" d="M1235.06,255.07c-2.65,0-4.74-.48-6.27-1.43-1.53-.95-2.62-2.27-3.28-3.95s-.98-3.64-.98-5.88v-12.88h-7.67v-3.47l7.84-.28.62-8.74h3.81v8.74h13.38v3.75h-13.38v12.94c0,2.43.49,4.28,1.48,5.54.99,1.27,2.79,1.9,5.4,1.9,1.31,0,2.48-.11,3.53-.34,1.04-.22,2.05-.52,3.02-.9l1.01,3.36c-1.23.45-2.53.83-3.89,1.15-1.36.32-2.9.48-4.62.48Z"/>
    </g>
  </g>
  <g>
    <ellipse class="cls-3" cx="1399.46" cy="479.16" rx="33.87" ry="20.84"/>
    <ellipse class="cls-3" cx="1483.78" cy="478.69" rx="27.94" ry="17.19"/>
    <ellipse class="cls-3" cx="1552.37" cy="479.04" rx="18.65" ry="11.48"/>
  </g>
</svg>