<svg enable-background="new 0 0 1600 500" version="1.1" viewBox="0 0 1600 500" xmlns="http://www.w3.org/2000/svg" xmlns:xlink="http://www.w3.org/1999/xlink">
 <style type="text/css">.st0{fill-rule:evenodd;clip-rule:evenodd;fill:#BC83FB;}
	.st1{clip-path:url(#SVGID_00000081638776007224915650000014924707650719492029_);}
	.st2{fill:#8747CC;}
	.st3{fill:#E2DCFE;}
	.st4{fill:#F7F7F7;}
	.st5{fill:#642F9E;}
	.st6{clip-path:url(#SVGID_00000145054261925467817930000014902111691353217198_);}
	.st7{clip-path:url(#SVGID_00000143606347672888838780000014467488631761868221_);}</style>
 <path class="st0" d="m1600 24.8v428.5c0 8.3-4.1 15.7-10.3 20.2-2.4 1.7-5.8 0.9-6.9-1.9-3.9-9.7-16.4-16.8-31.2-16.8-9.5 0-18 2.9-23.9 7.6-1.9 1.5-4.6 1.3-6.2-0.6-7.7-8.7-21.2-14.5-36.7-14.5-13.9 0-26.4 4.7-34.3 12-1.8 1.7-4.7 1.5-6.4-0.3-9.3-10.1-25.8-16.8-44.6-16.8-27.1 0-49.3 13.9-52.4 31.7-0.4 2.4-2.5 4.1-4.9 4.1h-1317c-13.9 0.2-25-10.9-25-24.6v-428.6c0-13.7 11.1-24.8 24.8-24.8h1550c13.8 0 24.9 11.1 24.9 24.8z"/>
 <ellipse class="st0" cx="1400" cy="479.2" rx="33.9" ry="20.8"/>
 <ellipse class="st0" cx="1484" cy="478.7" rx="27.9" ry="17.2"/>
 <ellipse class="st0" cx="1552" cy="479" rx="18.6" ry="11.5"/>
 <defs>
  <path id="a" d="m1600 24.8v428.5c0 8.3-4.1 15.7-10.3 20.2-2.4 1.7-5.8 0.9-6.9-1.9-3.9-9.7-16.4-16.8-31.2-16.8-9.5 0-18 2.9-23.9 7.6-1.9 1.5-4.6 1.3-6.2-0.6-7.7-8.7-21.2-14.5-36.7-14.5-13.9 0-26.4 4.7-34.3 12-1.8 1.7-4.7 1.5-6.4-0.3-9.3-10.1-25.8-16.8-44.6-16.8-27.1 0-49.3 13.9-52.4 31.7-0.4 2.4-2.5 4.1-4.9 4.1h-1317c-13.9 0.2-25-10.9-25-24.6v-428.6c0-13.7 11.1-24.8 24.8-24.8h1550c13.8 0 24.9 11.1 24.9 24.8z"/>
 </defs>
 <clipPath id="b">
  <use xlink:href="#a"/>
 </clipPath>
 <g clip-path="url(#b)">
  <rect transform="matrix(.8278 -.561 .561 .8278 -241.9 103.1)" x="28.5" y="436.4" width="37.1" height="18.4"/>
  <ellipse class="st2" transform="matrix(.7439 -.6683 .6683 .7439 -236.1 180.3)" cx="117.2" cy="398.2" rx="70.4" ry="79.2"/>
  <ellipse class="st3" transform="matrix(.8665 -.4992 .4992 .8665 -183.1 111.7)" cx="117.2" cy="398.2" rx="58" ry="65.2"/>
  <ellipse class="st4" transform="matrix(.4481 -.894 .894 .4481 -292.6 369.8)" cx="153.2" cy="421.8" rx="16" ry="9.3"/>
  <path class="st2" d="m-69.6 524.7c-6.2-9.1-3.8-21.4 5.3-27.6l72.9-49.4c9.1-6.2 21.4-3.8 27.6 5.3s3.8 21.4-5.3 27.6l-72.9 49.4c-9.1 6.2-21.4 3.8-27.6-5.3z"/>
  <rect class="st5" transform="matrix(.8278 -.561 .561 .8278 -259.4 89.06)" x="12.4" y="447.2" width="5.9" height="39.7"/>
  <rect class="st5" transform="matrix(.8278 -.561 .561 .8278 -294.9 60.56)" x="-51.7" y="490.7" width="5.9" height="39.7"/>
  <rect transform="matrix(.3038 -.9527 .9527 .3038 -299.5 188.8)" x="-34.7" y="292.4" width="28.2" height="14"/>
  <ellipse class="st2" transform="matrix(.1715 -.9852 .9852 .1715 -235.3 196.3)" cx="-.9" cy="238" rx="53.5" ry="60.2"/>
  <ellipse class="st3" transform="matrix(.3724 -.9281 .9281 .3724 -221.5 148.5)" cx="-.9" cy="238" rx="44.1" ry="49.6"/>
  <ellipse class="st4" transform="matrix(.9797 -.2005 .2005 .9797 -46.52 11.13)" cx="31.7" cy="235.2" rx="7.1" ry="12.2"/>
  <path class="st2" d="m-53.1 401.4c-7.9-2.5-12.3-11-9.8-19l20.3-63.7c2.5-7.9 11-12.3 19-9.8 7.9 2.5 12.3 11 9.8 19l-20.3 63.7c-2.6 7.9-11.1 12.3-19 9.8z"/>
  <rect class="st5" transform="matrix(.3038 -.9527 .9527 .3038 -332.1 199.7)" x="-31.7" y="312" width="4.5" height="30.2"/>
  <rect class="st5" transform="matrix(.3038 -.9527 .9527 .3038 -398 221.7)" x="-49.5" y="368.1" width="4.5" height="30.2"/>
  <rect transform="matrix(.6786 -.7345 .7345 .6786 -16.47 40.91)" x="21.5" y="30.8" width="34" height="16.9"/>
  <ellipse class="st2" transform="matrix(.5725 -.8199 .8199 .5725 53.56 67.27)" cx="91.3" cy="-17.7" rx="64.5" ry="72.6"/>
  <ellipse class="st3" transform="matrix(.7303 -.6831 .6831 .7303 36.73 57.58)" cx="91.3" cy="-17.7" rx="53.2" ry="59.8"/>
  <ellipse class="st4" transform="matrix(.2332 -.9724 .9724 .2332 102.4 121.7)" cx="128.3" cy="-4.1" rx="14.7" ry="8.5"/>
  <path class="st2" d="m-49.1 134.1c-7.4-6.8-7.8-18.4-1-25.7l54.7-59.3c6.8-7.4 18.4-7.8 25.7-1 7.4 6.8 7.8 18.4 1 25.7l-54.7 59.2c-6.8 7.5-18.3 7.9-25.7 1.1z"/>
  <rect class="st5" transform="matrix(.6786 -.7345 .7345 .6786 -43.04 31.71)" x="12" y="46.8" width="5.4" height="36.4"/>
  <rect class="st5" transform="matrix(.6786 -.7345 .7345 .6786 -96.85 13.08)" x="-36.2" y="99" width="5.4" height="36.4"/>
  <rect transform="matrix(.974 -.2268 .2268 .974 -12.33 55.21)" x="222.4" y="75.4" width="23.5" height="11.7"/>
  <ellipse class="st2" transform="matrix(.9341 -.357 .357 .9341 -5.808 106.8)" cx="286.5" cy="69.2" rx="44.7" ry="50.2"/>
  <ellipse class="st3" transform="matrix(.9879 -.1552 .1552 .9879 -7.26 45.3)" cx="286.5" cy="69.2" rx="36.8" ry="41.4"/>
  <ellipse class="st4" transform="matrix(.739 -.6737 .6737 .739 17.39 227.6)" cx="302.5" cy="91.4" rx="10.1" ry="5.9"/>
  <path class="st2" d="m147.1 101.6c-1.6-6.8 2.6-13.6 9.4-15.1l54.4-12.7c6.8-1.6 13.6 2.6 15.1 9.4 1.6 6.8-2.6 13.6-9.4 15.1l-54.4 12.7c-6.8 1.6-13.5-2.7-15.1-9.4z"/>
  <rect class="st5" transform="matrix(.974 -.2268 .2268 .974 -14.2 49.99)" x="208.6" y="74.2" width="3.8" height="25.2"/>
  <rect class="st5" transform="matrix(.974 -.2268 .2268 .974 -17.97 39.43)" x="160.7" y="85.3" width="3.8" height="25.2"/>
  <rect transform="matrix(.6118 -.791 .791 .6118 -109.7 250.4)" x="192.5" y="221.2" width="15.7" height="31.5"/>
  <ellipse class="st2" transform="matrix(.4987 -.8668 .8668 .4987 -114.7 363.9)" cx="257.2" cy="281.1" rx="67.3" ry="59.8"/>
  <ellipse class="st3" transform="matrix(.6678 -.7443 .7443 .6678 -123.8 284.8)" cx="257.2" cy="281.1" rx="55.4" ry="49.3"/>
  <ellipse class="st4" transform="matrix(.1473 -.9891 .9891 .1473 -101.8 514.7)" cx="247.6" cy="316.4" rx="7.9" ry="13.6"/>
  <path class="st2" d="m105.6 163.7c5.7-7.4 16.3-8.7 23.7-3l59.2 45.8c7.4 5.7 8.7 16.3 3 23.7s-16.3 8.7-23.7 3l-59.2-45.8c-7.3-5.7-8.7-16.3-3-23.7z"/>
  <rect class="st5" transform="matrix(.6118 -.791 .791 .6118 -103.9 222.4)" x="157.7" y="214.6" width="33.8" height="5"/>
  <rect class="st5" transform="matrix(.6118 -.791 .791 .6118 -92.29 165.5)" x="105.6" y="174.3" width="33.8" height="5"/>
  <rect transform="matrix(.321 -.9471 .9471 .321 50.67 562.1)" x="398.5" y="236.4" width="37.6" height="18.7"/>
  <ellipse class="st2" transform="matrix(.1893 -.9819 .9819 .1893 199.4 570.2)" cx="445" cy="164.3" rx="71.4" ry="80.3"/>
  <ellipse class="st3" transform="matrix(.3891 -.9212 .9212 .3891 120.5 510.3)" cx="445" cy="164.3" rx="58.8" ry="66.1"/>
  <ellipse class="st4" transform="matrix(.9832 -.1827 .1827 .9832 -21.27 91.98)" cx="488.6" cy="161.4" rx="9.4" ry="16.2"/>
  <path class="st2" d="m371.5 381c-10.5-3.6-16.2-15-12.6-25.6l28.6-84.5c3.6-10.5 15-16.2 25.6-12.6 10.5 3.6 16.2 15 12.6 25.6l-28.7 84.5c-3.6 10.6-15 16.2-25.5 12.6z"/>
  <rect class="st5" transform="matrix(.321 -.9471 .9471 .321 7.413 575.2)" x="401.9" y="262.3" width="6" height="40.3"/>
  <rect class="st5" transform="matrix(.321 -.9471 .9471 .321 -80.22 601.9)" x="376.6" y="336.7" width="6" height="40.3"/>
  <rect transform="matrix(.8699 -.4931 .4931 .8699 -107.9 298.8)" x="503.5" y="349.6" width="18.2" height="9"/>
  <ellipse class="st2" transform="matrix(.7949 -.6068 .6068 .7949 -89.84 401.4)" cx="548.8" cy="333.6" rx="34.6" ry="38.9"/>
  <ellipse class="st3" transform="matrix(.9036 -.4284 .4284 .9036 -90.01 267.3)" cx="548.8" cy="333.6" rx="28.5" ry="32"/>
  <ellipse class="st4" transform="matrix(.5181 -.8553 .8553 .5181 -23.92 650.7)" cx="565.5" cy="346.6" rx="7.8" ry="4.6"/>
  <path class="st2" d="m452.5 388.2c-2.7-4.7-1-10.6 3.7-13.3l37.6-21.3c4.7-2.7 10.6-1 13.3 3.7s1 10.6-3.7 13.3l-37.6 21.3c-4.7 2.6-10.7 1-13.3-3.7z"/>
  <rect class="st5" transform="matrix(.8699 -.4931 .4931 .8699 -114.6 292)" x="494.8" y="353.6" width="2.9" height="19.5"/>
  <rect class="st5" transform="matrix(.8699 -.4931 .4931 .8699 -128.2 278.1)" x="461.8" y="372.3" width="2.9" height="19.5"/>
  <rect transform="matrix(.9457 -.3251 .3251 .9457 -144.1 202.7)" x="528" y="519.6" width="13" height="26.1"/>
  <ellipse class="st2" transform="matrix(.8928 -.4505 .4505 .8928 -159.3 283.2)" cx="515.1" cy="476.2" rx="55.8" ry="49.6"/>
  <ellipse class="st3" transform="matrix(.9669 -.2553 .2553 .9669 -104.5 147.3)" cx="515.1" cy="476.2" rx="45.9" ry="40.9"/>
  <ellipse class="st4" transform="matrix(.6663 -.7457 .7457 .6663 -160.6 553.3)" cx="537.9" cy="456.1" rx="6.5" ry="11.3"/>
  <path class="st2" d="m566.8 626.6c-7.3 2.5-15.3-1.4-17.8-8.7l-20.2-58.6c-2.5-7.3 1.4-15.3 8.7-17.8s15.3 1.4 17.8 8.7l20.2 58.6c2.5 7.3-1.4 15.2-8.7 17.8z"/>
  <rect class="st5" transform="matrix(.9457 -.3251 .3251 .9457 -151.9 206.9)" x="529.3" y="556.1" width="28" height="4.2"/>
  <rect class="st5" transform="matrix(.9457 -.3251 .3251 .9457 -167.8 215.5)" x="547" y="607.7" width="28" height="4.2"/>
  <rect transform="matrix(.157 -.9876 .9876 .157 204.6 1064)" x="717.2" y="395.5" width="16.3" height="32.9"/>
  <ellipse class="st2" transform="matrix(.02133 -.9998 .9998 .02133 358.8 1214)" cx="799.6" cy="423.9" rx="70.2" ry="62.4"/>
  <ellipse class="st3" transform="matrix(.2285 -.9735 .9735 .2285 204.2 1105)" cx="799.6" cy="423.9" rx="57.8" ry="51.4"/>
  <ellipse class="st4" transform="matrix(.9384 -.3456 .3456 .9384 -109.5 307.8)" cx="808.5" cy="461" rx="14.2" ry="8.2"/>
  <path class="st2" d="m602 392.4c1.5-9.6 10.6-16.2 20.2-14.6l77.1 12.2c9.6 1.5 16.2 10.6 14.6 20.2-1.5 9.6-10.6 16.2-20.2 14.6l-77.1-12.2c-9.6-1.6-16.1-10.6-14.6-20.2z"/>
  <rect class="st5" transform="matrix(.157 -.9876 .9876 .157 181.7 1026)" x="674.3" y="404" width="35.2" height="5.2"/>
  <rect class="st5" transform="matrix(.157 -.9876 .9876 .157 135.1 950)" x="606.4" y="393.2" width="35.2" height="5.2"/>
  <rect transform="matrix(.643 -.7658 .7658 .643 -231.7 408.1)" x="316.8" y="442.2" width="10.2" height="20.6"/>
  <ellipse class="st2" transform="matrix(.533 -.8461 .8461 .533 -241.4 528.3)" cx="357.9" cy="482.8" rx="43.9" ry="39.1"/>
  <ellipse class="st3" transform="matrix(.6971 -.7169 .7169 .6971 -237.8 402.8)" cx="357.9" cy="482.8" rx="36.2" ry="32.2"/>
  <ellipse class="st4" transform="matrix(.1869 -.9824 .9824 .1869 -211.5 755.7)" cx="350.7" cy="505.6" rx="5.2" ry="8.9"/>
  <path class="st2" d="m262 402.2c3.9-4.7 10.9-5.3 15.5-1.4l37.4 31.4c4.7 3.9 5.3 10.9 1.4 15.5-3.9 4.7-10.9 5.3-15.5 1.4l-37.4-31.4c-4.7-3.8-5.3-10.8-1.4-15.5z"/>
  <rect class="st5" transform="matrix(.643 -.7658 .7658 .643 -227 390.7)" x="294.6" y="437.2" width="22.1" height="3.3"/>
  <rect class="st5" transform="matrix(.643 -.7658 .7658 .643 -217.6 355.6)" x="261.7" y="409.6" width="22.1" height="3.3"/>
  <rect transform="matrix(.3938 -.9192 .9192 .3938 283.1 290.1)" x="352.4" y="-88" width="18.3" height="36.9"/>
  <ellipse class="st2" transform="matrix(.2653 -.9642 .9642 .2653 357.5 396.4)" cx="438.9" cy="-36.3" rx="78.6" ry="69.9"/>
  <ellipse class="st3" transform="matrix(.4598 -.888 .888 .4598 269.4 370.1)" cx="438.9" cy="-36.3" rx="64.8" ry="57.6"/>
  <ellipse class="st4" transform="matrix(.9944 -.1055 .1055 .9944 1.767 46.28)" cx="438.4" cy="6.4" rx="15.9" ry="9.2"/>
  <path class="st2" d="m232.9-124.7c4.3-10 15.9-14.7 25.9-10.4l80.3 34.4c10 4.3 14.7 15.9 10.4 25.9s-15.9 14.7-25.9 10.4l-80.3-34.4c-10-4.3-14.7-15.9-10.4-25.9z"/>
  <rect class="st5" transform="matrix(.3938 -.9192 .9192 .3938 275.7 249)" x="306.9" y="-87.5" width="39.5" height="5.9"/>
  <rect class="st5" transform="matrix(.3938 -.9192 .9192 .3938 260.7 165.6)" x="236.1" y="-117.8" width="39.5" height="5.9"/>
  <rect transform="matrix(.9339 -.3576 .3576 .9339 20.29 221.2)" x="601.6" y="42.5" width="13.2" height="26.5"/>
  <ellipse class="st2" transform="matrix(.8766 -.4812 .4812 .8766 23.69 316.9)" cx="629.8" cy="112.2" rx="56.5" ry="50.3"/>
  <ellipse class="st3" transform="matrix(.9575 -.2886 .2886 .9575 -5.596 186.5)" cx="629.8" cy="112.2" rx="46.5" ry="41.4"/>
  <ellipse class="st4" transform="matrix(.6401 -.7683 .7683 .6401 116.1 514.7)" cx="607.5" cy="133.4" rx="6.6" ry="11.4"/>
  <path class="st2" d="m572.2-38.2c7.3-2.8 15.5 0.9 18.3 8.2l22.5 58.6c2.8 7.3-0.9 15.5-8.2 18.3s-15.5-0.9-18.3-8.2l-22.5-58.7c-2.7-7.2 0.9-15.4 8.2-18.2z"/>
  <rect class="st5" transform="matrix(.9339 -.3576 .3576 .9339 28.77 216)" x="584.3" y="28.1" width="28.4" height="4.2"/>
  <rect class="st5" transform="matrix(.9339 -.3576 .3576 .9339 45.94 205.5)" x="564.5" y="-23.6" width="28.4" height="4.2"/>
  <rect transform="matrix(.5615 -.8275 .8275 .5615 164.8 707)" x="734.3" y="190.5" width="30.2" height="15"/>
  <ellipse class="st2" transform="matrix(.4438 -.8961 .8961 .4438 312.1 784.7)" cx="788.3" cy="140.9" rx="57.4" ry="64.5"/>
  <ellipse class="st3" transform="matrix(.6203 -.7844 .7844 .6203 188.8 671.8)" cx="788.3" cy="140.9" rx="47.3" ry="53.1"/>
  <ellipse class="st4" transform="matrix(.08557 -.9963 .9963 .08557 604.8 954.9)" cx="822.6" cy="148" rx="13" ry="7.6"/>
  <path class="st2" d="m684.9 293c-7.4-5-9.3-15.1-4.3-22.5l40.3-59.4c5-7.4 15.1-9.3 22.5-4.3s9.3 15.1 4.3 22.5l-40.3 59.4c-5 7.4-15.1 9.4-22.5 4.3z"/>
  <rect class="st5" transform="matrix(.5615 -.8275 .8275 .5615 135.7 703.8)" x="729.5" y="207.6" width="4.8" height="32.4"/>
  <rect class="st5" transform="matrix(.5615 -.8275 .8275 .5615 76.93 697.4)" x="694" y="259.9" width="4.8" height="32.4"/>
  <rect transform="matrix(.4946 -.8691 .8691 .4946 199.8 926)" x="891" y="281" width="10.1" height="20.3"/>
  <ellipse class="st2" transform="matrix(.3719 -.9283 .9283 .3719 296.5 1067)" cx="936.4" cy="314.2" rx="43.3" ry="38.5"/>
  <ellipse class="st3" transform="matrix(.5566 -.8308 .8308 .5566 154.2 917.2)" cx="936.4" cy="314.2" rx="35.7" ry="31.7"/>
  <ellipse class="st4" transform="matrix(.006859 -1 1 .006859 589.5 1269)" cx="933.5" cy="337.6" rx="5.1" ry="8.8"/>
  <path class="st2" d="m829.1 253.1c3-5.2 9.6-7 14.8-4.1l41.9 23.8c5.2 3 7 9.6 4.1 14.8-3 5.2-9.6 7-14.8 4.1l-41.9-23.8c-5.3-3-7.1-9.6-4.1-14.8z"/>
  <rect class="st5" transform="matrix(.4946 -.8691 .8691 .4946 199.6 904.9)" x="867" y="279.2" width="21.8" height="3.2"/>
  <rect class="st5" transform="matrix(.4946 -.8691 .8691 .4946 199.2 862.3)" x="830.1" y="258.2" width="21.8" height="3.2"/>
  <rect transform="matrix(.8995 -.4369 .4369 .8995 37.86 439.1)" x="967.6" y="125.4" width="11.7" height="23.6"/>
  <ellipse class="st2" transform="matrix(.8318 -.555 .555 .8318 64.55 584.6)" cx="997" cy="185.8" rx="50.4" ry="44.8"/>
  <ellipse class="st3" transform="matrix(.929 -.3702 .3702 .929 2.047 382.2)" cx="997" cy="185.8" rx="41.5" ry="36.9"/>
  <ellipse class="st4" transform="matrix(.5714 -.8207 .8207 .5714 250.2 891.7)" cx="978.8" cy="206.3" rx="5.9" ry="10.2"/>
  <path class="st2" d="m934.3 56.5c6.3-3.1 13.9-0.4 16.9 5.9l24.5 50.4c3.1 6.3 0.4 13.9-5.9 16.9-6.3 3.1-13.9 0.4-16.9-5.9l-24.5-50.4c-3.1-6.2-0.4-13.8 5.9-16.9z"/>
  <rect class="st5" transform="matrix(.8995 -.4369 .4369 .8995 46.36 432.2)" x="950.1" y="113.4" width="25.3" height="3.8"/>
  <rect class="st5" transform="matrix(.8995 -.4369 .4369 .8995 63.58 418.3)" x="928.6" y="69.1" width="25.3" height="3.8"/>
  <rect transform="matrix(.4878 -.8729 .8729 .4878 455.3 1128)" x="1183" y="164" width="12.2" height="24.5"/>
  <ellipse class="st2" transform="matrix(.3647 -.9311 .9311 .3647 597 1282)" cx="1238" cy="203.6" rx="52.3" ry="46.5"/>
  <ellipse class="st3" transform="matrix(.5501 -.8351 .8351 .5501 387 1125)" cx="1238" cy="203.6" rx="43" ry="38.3"/>
  <ellipse class="st4" cx="1235" cy="231.8" rx="10.6" ry="6.1"/>
  <path class="st2" d="m1108 130.9c3.5-6.3 11.5-8.6 17.9-5.1l50.7 28.3c6.3 3.5 8.6 11.5 5.1 17.9-3.5 6.3-11.5 8.6-17.9 5.1l-50.7-28.3c-6.3-3.6-8.6-11.6-5.1-17.9z"/>
  <rect class="st5" transform="matrix(.4878 -.8729 .8729 .4878 454.7 1103)" x="1154" y="162" width="26.2" height="3.9"/>
  <rect class="st5" transform="matrix(.4878 -.8729 .8729 .4878 453.6 1051)" x="1109" y="137" width="26.2" height="3.9"/>
  <rect transform="matrix(.07706 -.997 .997 .07706 1137 1256)" x="1235" y="7.6" width="24.8" height="12.3"/>
  <ellipse class="st2" transform="matrix(.9983 -.05911 .05911 .9983 4.712 73.91)" cx="1252" cy="-42.7" rx="52.8" ry="47"/>
  <ellipse class="st3" transform="matrix(.1495 -.9888 .9888 .1495 1107 1201)" cx="1252" cy="-42.7" rx="38.7" ry="43.5"/>
  <ellipse class="st4" transform="matrix(.9076 -.4199 .4199 .9076 139.9 532.3)" cx="1279" cy="-51.6" rx="6.2" ry="10.7"/>
  <path class="st2" d="m1240 107.5c-7.3-0.6-12.8-6.9-12.2-14.2l4.5-58.6c0.6-7.3 6.9-12.8 14.2-12.2s12.8 6.9 12.2 14.2l-4.5 58.6c-0.5 7.3-6.9 12.7-14.2 12.2z"/>
  <rect class="st5" transform="matrix(.07706 -.997 .997 .07706 1110 1278)" x="1243" y="25.9" width="3.9" height="26.5"/>
  <rect class="st5" transform="matrix(.07706 -.997 .997 .07706 1055 1321)" x="1239" y="77.5" width="3.9" height="26.5"/>
  <rect transform="matrix(.04494 -.999 .999 .04494 1228 1650)" x="1469" y="168.1" width="14.9" height="30"/>
  <ellipse class="st2" transform="matrix(.9958 -.0912 .0912 .9958 -10.55 141.7)" cx="1545" cy="186.3" rx="56.9" ry="64"/>
  <ellipse class="st3" transform="matrix(.1176 -.9931 .9931 .1176 1179 1699)" cx="1545" cy="186.3" rx="52.7" ry="46.9"/>
  <ellipse class="st4" transform="matrix(.8936 -.4489 .4489 .8936 67.4 722.3)" cx="1557" cy="219" rx="12.9" ry="7.5"/>
  <path class="st2" d="m1363 178c0.4-8.9 7.9-15.7 16.8-15.3l71.1 3.2c8.9 0.4 15.7 7.9 15.3 16.8s-7.9 15.7-16.8 15.3l-71.1-3.2c-8.9-0.4-15.7-7.9-15.3-16.8z"/>
  <rect class="st5" transform="matrix(.04494 -.999 .999 .04494 1199 1618)" x="1430" y="179.3" width="32.1" height="4.8"/>
  <rect class="st5" transform="matrix(.04494 -.999 .999 .04494 1142 1553)" x="1367" y="176.5" width="32.1" height="4.8"/>
  <rect transform="matrix(.5333 -.8459 .8459 .5333 261.3 1504)" x="1477" y="506.9" width="34.1" height="16.9"/>
  <ellipse class="st2" transform="matrix(.4135 -.9105 .9105 .4135 491.3 1662)" cx="1536" cy="449.5" rx="64.6" ry="72.7"/>
  <ellipse class="st3" transform="matrix(.5936 -.8048 .8048 .5936 262.3 1418)" cx="1536" cy="449.5" rx="53.2" ry="59.9"/>
  <ellipse class="st4" transform="matrix(.05203 -.9986 .9986 .05203 1037 2005)" cx="1574" cy="456.2" rx="14.7" ry="8.5"/>
  <path class="st2" d="m1425 624.7c-8.5-5.4-11.1-16.6-5.7-25.2l43.1-68.3c5.4-8.5 16.6-11.1 25.2-5.7 8.5 5.4 11.1 16.6 5.7 25.2l-43.1 68.3c-5.4 8.5-16.7 11.1-25.2 5.7z"/>
  <rect class="st5" transform="matrix(.5333 -.8459 .8459 .5333 227.4 1502)" x="1472" y="526.8" width="5.4" height="36.5"/>
  <rect class="st5" transform="matrix(.5333 -.8459 .8459 .5333 158.8 1498)" x="1435" y="587" width="5.4" height="36.5"/>
  <rect transform="matrix(.567 -.8237 .8237 .567 428.5 1518)" x="1650" y="336.2" width="15" height="30.2"/>
  <ellipse class="st2" transform="matrix(.4499 -.8931 .8931 .4499 594.7 1746)" cx="1715" cy="390.4" rx="64.3" ry="57.2"/>
  <ellipse class="st3" transform="matrix(.6255 -.7802 .7802 .6255 337.5 1484)" cx="1715" cy="390.4" rx="53" ry="47.1"/>
  <ellipse class="st4" transform="matrix(.09227 -.9957 .9957 .09227 1127 2086)" cx="1707" cy="424.6" rx="7.5" ry="13"/>
  <path class="st2" d="m1564 286.4c5.1-7.3 15.1-9.2 22.5-4.1l58.9 40.6c7.3 5.1 9.2 15.1 4.1 22.5-5.1 7.3-15.1 9.2-22.5 4.1l-58.9-40.6c-7.3-5.1-9.1-15.2-4.1-22.5z"/>
  <rect class="st5" transform="matrix(.567 -.8237 .8237 .567 432 1489)" x="1616" y="331.2" width="32.3" height="4.8"/>
  <rect class="st5" transform="matrix(.567 -.8237 .8237 .567 438.9 1431)" x="1564" y="295.5" width="32.3" height="4.8"/>
  <rect transform="matrix(.8712 -.4909 .4909 .8712 162.1 703.9)" x="1412" y="37.5" width="21.9" height="10.9"/>
  <ellipse class="st2" transform="matrix(.7964 -.6047 .6047 .7964 239.9 847.6)" cx="1379" cy="67.5" rx="41.6" ry="46.7"/>
  <ellipse class="st3" transform="matrix(.9047 -.4261 .4261 .9047 102.7 594)" cx="1379" cy="67.5" rx="34.2" ry="38.5"/>
  <ellipse class="st4" transform="matrix(.5203 -.854 .854 .5203 607.7 1185)" cx="1359" cy="51.8" rx="9.4" ry="5.5"/>
  <path class="st2" d="m1495 2.1c3.2 5.6 1.2 12.8-4.5 16l-45.2 25.5c-5.6 3.2-12.8 1.2-16-4.5-3.2-5.6-1.2-12.8 4.5-16l45.2-25.4c5.6-3.2 12.8-1.2 16 4.4z"/>
  <rect class="st5" transform="matrix(.8712 -.4909 .4909 .8712 170.1 712.1)" x="1440" y="20.1" width="3.5" height="23.5"/>
  <rect class="st5" transform="matrix(.8712 -.4909 .4909 .8712 186.3 728.8)" x="1480" y="-2.3" width="3.5" height="23.5"/>
  <rect transform="matrix(.493 -.87 .87 .493 827.5 1388)" x="1589" y="-24" width="32.1" height="15.9"/>
  <ellipse class="st2" transform="matrix(.3703 -.9289 .9289 .3703 1108 1474)" cx="1641" cy="-79.8" rx="60.9" ry="68.5"/>
  <ellipse class="st3" transform="matrix(.5551 -.8318 .8318 .5551 796.4 1330)" cx="1641" cy="-79.8" rx="50.2" ry="56.4"/>
  <ellipse class="st4" transform="matrix(.005103 -1 1 .005103 1745 1603)" cx="1678" cy="-75.2" rx="13.8" ry="8"/>
  <path class="st2" d="m1545 90c-8.3-4.7-11.2-15.2-6.5-23.4l37.5-66.2c4.7-8.3 15.2-11.2 23.4-6.5 8.3 4.7 11.2 15.2 6.5 23.4l-37.5 66.2c-4.6 8.3-15.1 11.2-23.4 6.5z"/>
  <rect class="st5" transform="matrix(.493 -.87 .87 .493 794.2 1389)" x="1586" y="-4.4" width="5.1" height="34.4"/>
  <rect class="st5" transform="matrix(.493 -.87 .87 .493 726.7 1389)" x="1553" y="53.9" width="5.1" height="34.4"/>
  <rect transform="matrix(.9232 -.3843 .3843 .9232 -19.41 549.3)" x="1351" y="316.4" width="27.5" height="13.7"/>
  <ellipse class="st2" transform="matrix(.8625 -.5061 .5061 .8625 44.31 761.3)" cx="1423" cy="299.2" rx="52.2" ry="58.7"/>
  <ellipse class="st3" transform="matrix(.9488 -.316 .316 .9488 -21.63 464.9)" cx="1423" cy="299.2" rx="43" ry="48.3"/>
  <ellipse class="st4" transform="matrix(.6178 -.7864 .7864 .6178 299.6 1260)" cx="1446" cy="321.7" rx="11.9" ry="6.9"/>
  <path class="st2" d="m1268 363.4c-3.1-7.5 0.4-16.1 7.9-19.3l60.2-25.1c7.5-3.1 16.1 0.4 19.3 7.9 3.1 7.5-0.4 16.1-7.9 19.3l-60.2 25.1c-7.5 3.1-16.1-0.4-19.3-7.9z"/>
  <rect class="st5" transform="matrix(.9232 -.3843 .3843 .9232 -25.61 540.1)" x="1337" y="319.4" width="4.4" height="29.5"/>
  <rect class="st5" transform="matrix(.9232 -.3843 .3843 .9232 -38.16 521.4)" x="1284" y="341.5" width="4.4" height="29.5"/>
  <rect transform="matrix(.5042 -.8636 .8636 .5042 231.9 1321)" x="1260" y="445.8" width="12.5" height="25.1"/>
  <ellipse class="st2" transform="matrix(.3822 -.9241 .9241 .3822 362.4 1517)" cx="1316" cy="487.4" rx="53.6" ry="47.7"/>
  <ellipse class="st3" transform="matrix(.5658 -.8246 .8246 .5658 169.4 1296)" cx="1316" cy="487.4" rx="44.2" ry="39.3"/>
  <ellipse class="st4" transform="matrix(.01797 -.9998 .9998 .01797 771.9 1818)" cx="1312" cy="516.3" rx="6.3" ry="10.8"/>
  <path class="st2" d="m1184 410.2c3.7-6.4 12-8.6 18.4-4.8l51.5 30.1c6.4 3.7 8.6 12 4.8 18.4-3.7 6.4-12 8.6-18.4 4.8l-51.5-30.1c-6.4-3.7-8.5-11.9-4.8-18.4z"/>
  <rect class="st5" transform="matrix(.5042 -.8636 .8636 .5042 232.1 1295)" x="1230" y="443.3" width="26.9" height="4"/>
  <rect class="st5" transform="matrix(.5042 -.8636 .8636 .5042 232.4 1242)" x="1185" y="416.8" width="26.9" height="4"/>
  <rect transform="matrix(.7119 -.7023 .7023 .7119 290.8 771.6)" x="1075" y="26" width="21.4" height="10.7"/>
  <ellipse class="st2" transform="matrix(.6099 -.7925 .7925 .6099 439.6 887.1)" cx="1121" cy="-3" rx="40.7" ry="45.8"/>
  <ellipse class="st3" transform="matrix(.7612 -.6486 .6486 .7612 269.6 726.2)" cx="1121" cy="-3" rx="33.5" ry="37.7"/>
  <ellipse class="st4" transform="matrix(.278 -.9606 .9606 .278 819.4 1103)" cx="1144" cy="6.7" rx="9.2" ry="5.4"/>
  <path class="st2" d="m1028 88.6c-4.5-4.5-4.4-11.8 0.1-16.2l36.2-35.7c4.5-4.5 11.8-4.4 16.2 0.1 4.5 4.5 4.4 11.8-0.1 16.2l-36.2 35.7c-4.5 4.4-11.8 4.4-16.2-0.1z"/>
  <rect class="st5" transform="matrix(.7119 -.7023 .7023 .7119 275.4 765.1)" x="1068" y="35.4" width="3.4" height="23"/>
  <rect class="st5" transform="matrix(.7119 -.7023 .7023 .7119 244.1 751.7)" x="1036" y="66.9" width="3.4" height="23"/>
  <rect transform="matrix(.8073 -.5901 .5901 .8073 -10.29 705.4)" x="1059" y="360.7" width="31.3" height="15.6"/>
  <ellipse class="st2" transform="matrix(.7197 -.6943 .6943 .7197 91 878)" cx="1133" cy="326.3" rx="59.4" ry="66.8"/>
  <ellipse class="st3" transform="matrix(.8482 -.5297 .5297 .8482 -.869 649.6)" cx="1133" cy="326.3" rx="48.9" ry="55"/>
  <ellipse class="st4" transform="matrix(.4161 -.9093 .9093 .4161 365.7 1260)" cx="1164" cy="345.2" rx="13.5" ry="7.8"/>
  <path class="st2" d="m979.1 438.6c-5.5-7.5-3.8-18 3.6-23.4l59.9-43.8c7.5-5.5 18-3.8 23.4 3.6 5.5 7.5 3.8 18-3.6 23.4l-59.9 43.8c-7.5 5.5-18 3.9-23.4-3.6z"/>
  <rect class="st5" transform="matrix(.8073 -.5901 .5901 .8073 -26.55 693.7)" x="1046" y="370.7" width="5" height="33.5"/>
  <rect class="st5" transform="matrix(.8073 -.5901 .5901 .8073 -59.49 669.9)" x="993.7" y="409.3" width="5" height="33.5"/>
  <rect transform="matrix(.6707 -.7418 .7418 .6707 -55.38 886.2)" x="965.3" y="495.4" width="10.1" height="20.3"/>
  <ellipse class="st2" transform="matrix(.5637 -.826 .826 .5637 -4.84 1064)" cx="1005" cy="536.6" rx="43.2" ry="38.5"/>
  <ellipse class="st3" transform="matrix(.7229 -.6909 .6909 .7229 -92.37 842.8)" cx="1005" cy="536.6" rx="35.6" ry="31.7"/>
  <ellipse class="st4" transform="matrix(.2227 -.9749 .9749 .2227 230.1 1406)" cx="996.8" cy="558.7" rx="5.1" ry="8.7"/>
  <path class="st2" d="m913.3 453.9c4-4.4 10.9-4.8 15.3-0.8l35.7 32.2c4.4 4 4.8 10.9 0.8 15.3s-10.9 4.8-15.3 0.8l-35.7-32.2c-4.5-4-4.8-10.9-0.8-15.3z"/>
  <rect class="st5" transform="matrix(.6707 -.7418 .7418 .6707 -50.09 870.1)" x="944" y="489.9" width="21.7" height="3.2"/>
  <rect class="st5" transform="matrix(.6707 -.7418 .7418 .6707 -39.37 837.5)" x="912.6" y="461.5" width="21.7" height="3.2"/>
  <rect transform="matrix(.9472 -.3207 .3207 .9472 54.34 287.1)" x="886.7" y="-27.3" width="23.7" height="11.8"/>
  <ellipse class="st2" transform="matrix(.8948 -.4465 .4465 .8948 90.94 377.8)" cx="847.2" cy="-4.1" rx="45" ry="50.6"/>
  <ellipse class="st3" transform="matrix(.968 -.2509 .2509 .968 28.12 212.4)" cx="847.2" cy="-4.1" rx="37.1" ry="41.7"/>
  <ellipse class="st4" transform="matrix(.6697 -.7426 .7426 .6697 292.3 607.5)" cx="829.1" cy="-24.8" rx="10.2" ry="5.9"/>
  <path class="st2" d="m983.9-50.3c2.3 6.6-1.3 13.9-8 16.1l-53.3 18.1c-6.6 2.3-13.9-1.3-16.1-8-2.3-6.6 1.3-13.9 8-16.1l53.3-18.1c6.7-2.2 13.9 1.4 16.1 8z"/>
  <rect class="st5" transform="matrix(.9472 -.3207 .3207 .9472 58.08 294.1)" x="919.9" y="-42" width="3.8" height="25.4"/>
  <rect class="st5" transform="matrix(.9472 -.3207 .3207 .9472 65.66 308.3)" x="966.8" y="-57.9" width="3.8" height="25.4"/>
 </g>
 <defs>
  <ellipse id="d" cx="1484" cy="478.7" rx="27.9" ry="17.2"/>
 </defs>
 <clipPath id="e">
  <use xlink:href="#d"/>
 </clipPath>
 <g clip-path="url(#e)">
  <rect transform="matrix(.8278 -.561 .561 .8278 -241.9 103.1)" x="28.5" y="436.4" width="37.1" height="18.4"/>
  <ellipse class="st2" transform="matrix(.7439 -.6683 .6683 .7439 -236.1 180.3)" cx="117.2" cy="398.2" rx="70.4" ry="79.2"/>
  <ellipse class="st3" transform="matrix(.8665 -.4992 .4992 .8665 -183.1 111.7)" cx="117.2" cy="398.2" rx="58" ry="65.2"/>
  <ellipse class="st4" transform="matrix(.4481 -.894 .894 .4481 -292.6 369.8)" cx="153.2" cy="421.8" rx="16" ry="9.3"/>
  <path class="st2" d="m-69.6 524.7c-6.2-9.1-3.8-21.4 5.3-27.6l72.9-49.4c9.1-6.2 21.4-3.8 27.6 5.3s3.8 21.4-5.3 27.6l-72.9 49.4c-9.1 6.2-21.4 3.8-27.6-5.3z"/>
  <rect class="st5" transform="matrix(.8278 -.561 .561 .8278 -259.4 89.06)" x="12.4" y="447.2" width="5.9" height="39.7"/>
  <rect class="st5" transform="matrix(.8278 -.561 .561 .8278 -294.9 60.56)" x="-51.7" y="490.7" width="5.9" height="39.7"/>
  <rect transform="matrix(.3038 -.9527 .9527 .3038 -299.5 188.8)" x="-34.7" y="292.4" width="28.2" height="14"/>
  <ellipse class="st2" transform="matrix(.1715 -.9852 .9852 .1715 -235.3 196.3)" cx="-.9" cy="238" rx="53.5" ry="60.2"/>
  <ellipse class="st3" transform="matrix(.3724 -.9281 .9281 .3724 -221.5 148.5)" cx="-.9" cy="238" rx="44.1" ry="49.6"/>
  <ellipse class="st4" transform="matrix(.9797 -.2005 .2005 .9797 -46.52 11.13)" cx="31.7" cy="235.2" rx="7.1" ry="12.2"/>
  <path class="st2" d="m-53.1 401.4c-7.9-2.5-12.3-11-9.8-19l20.3-63.7c2.5-7.9 11-12.3 19-9.8 7.9 2.5 12.3 11 9.8 19l-20.3 63.7c-2.6 7.9-11.1 12.3-19 9.8z"/>
  <rect class="st5" transform="matrix(.3038 -.9527 .9527 .3038 -332.1 199.7)" x="-31.7" y="312" width="4.5" height="30.2"/>
  <rect class="st5" transform="matrix(.3038 -.9527 .9527 .3038 -398 221.7)" x="-49.5" y="368.1" width="4.5" height="30.2"/>
  <rect transform="matrix(.6786 -.7345 .7345 .6786 -16.47 40.91)" x="21.5" y="30.8" width="34" height="16.9"/>
  <ellipse class="st2" transform="matrix(.5725 -.8199 .8199 .5725 53.56 67.27)" cx="91.3" cy="-17.7" rx="64.5" ry="72.6"/>
  <ellipse class="st3" transform="matrix(.7303 -.6831 .6831 .7303 36.73 57.58)" cx="91.3" cy="-17.7" rx="53.2" ry="59.8"/>
  <ellipse class="st4" transform="matrix(.2332 -.9724 .9724 .2332 102.4 121.7)" cx="128.3" cy="-4.1" rx="14.7" ry="8.5"/>
  <path class="st2" d="m-49.1 134.1c-7.4-6.8-7.8-18.4-1-25.7l54.7-59.3c6.8-7.4 18.4-7.8 25.7-1 7.4 6.8 7.8 18.4 1 25.7l-54.7 59.2c-6.8 7.5-18.3 7.9-25.7 1.1z"/>
  <rect class="st5" transform="matrix(.6786 -.7345 .7345 .6786 -43.04 31.71)" x="12" y="46.8" width="5.4" height="36.4"/>
  <rect class="st5" transform="matrix(.6786 -.7345 .7345 .6786 -96.85 13.08)" x="-36.2" y="99" width="5.4" height="36.4"/>
  <rect transform="matrix(.974 -.2268 .2268 .974 -12.33 55.21)" x="222.4" y="75.4" width="23.5" height="11.7"/>
  <ellipse class="st2" transform="matrix(.9341 -.357 .357 .9341 -5.808 106.8)" cx="286.5" cy="69.2" rx="44.7" ry="50.2"/>
  <ellipse class="st3" transform="matrix(.9879 -.1552 .1552 .9879 -7.26 45.3)" cx="286.5" cy="69.2" rx="36.8" ry="41.4"/>
  <ellipse class="st4" transform="matrix(.739 -.6737 .6737 .739 17.39 227.6)" cx="302.5" cy="91.4" rx="10.1" ry="5.9"/>
  <path class="st2" d="m147.1 101.6c-1.6-6.8 2.6-13.6 9.4-15.1l54.4-12.7c6.8-1.6 13.6 2.6 15.1 9.4 1.6 6.8-2.6 13.6-9.4 15.1l-54.4 12.7c-6.8 1.6-13.5-2.7-15.1-9.4z"/>
  <rect class="st5" transform="matrix(.974 -.2268 .2268 .974 -14.2 49.99)" x="208.6" y="74.2" width="3.8" height="25.2"/>
  <rect class="st5" transform="matrix(.974 -.2268 .2268 .974 -17.97 39.43)" x="160.7" y="85.3" width="3.8" height="25.2"/>
  <rect transform="matrix(.6118 -.791 .791 .6118 -109.7 250.4)" x="192.5" y="221.2" width="15.7" height="31.5"/>
  <ellipse class="st2" transform="matrix(.4987 -.8668 .8668 .4987 -114.7 363.9)" cx="257.2" cy="281.1" rx="67.3" ry="59.8"/>
  <ellipse class="st3" transform="matrix(.6678 -.7443 .7443 .6678 -123.8 284.8)" cx="257.2" cy="281.1" rx="55.4" ry="49.3"/>
  <ellipse class="st4" transform="matrix(.1473 -.9891 .9891 .1473 -101.8 514.7)" cx="247.6" cy="316.4" rx="7.9" ry="13.6"/>
  <path class="st2" d="m105.6 163.7c5.7-7.4 16.3-8.7 23.7-3l59.2 45.8c7.4 5.7 8.7 16.3 3 23.7s-16.3 8.7-23.7 3l-59.2-45.8c-7.3-5.7-8.7-16.3-3-23.7z"/>
  <rect class="st5" transform="matrix(.6118 -.791 .791 .6118 -103.9 222.4)" x="157.7" y="214.6" width="33.8" height="5"/>
  <rect class="st5" transform="matrix(.6118 -.791 .791 .6118 -92.29 165.5)" x="105.6" y="174.3" width="33.8" height="5"/>
  <rect transform="matrix(.321 -.9471 .9471 .321 50.67 562.1)" x="398.5" y="236.4" width="37.6" height="18.7"/>
  <ellipse class="st2" transform="matrix(.1893 -.9819 .9819 .1893 199.4 570.2)" cx="445" cy="164.3" rx="71.4" ry="80.3"/>
  <ellipse class="st3" transform="matrix(.3891 -.9212 .9212 .3891 120.5 510.3)" cx="445" cy="164.3" rx="58.8" ry="66.1"/>
  <ellipse class="st4" transform="matrix(.9832 -.1827 .1827 .9832 -21.27 91.98)" cx="488.6" cy="161.4" rx="9.4" ry="16.2"/>
  <path class="st2" d="m371.5 381c-10.5-3.6-16.2-15-12.6-25.6l28.6-84.5c3.6-10.5 15-16.2 25.6-12.6 10.5 3.6 16.2 15 12.6 25.6l-28.7 84.5c-3.6 10.6-15 16.2-25.5 12.6z"/>
  <rect class="st5" transform="matrix(.321 -.9471 .9471 .321 7.413 575.2)" x="401.9" y="262.3" width="6" height="40.3"/>
  <rect class="st5" transform="matrix(.321 -.9471 .9471 .321 -80.22 601.9)" x="376.6" y="336.7" width="6" height="40.3"/>
  <rect transform="matrix(.8699 -.4931 .4931 .8699 -107.9 298.8)" x="503.5" y="349.6" width="18.2" height="9"/>
  <ellipse class="st2" transform="matrix(.7949 -.6068 .6068 .7949 -89.84 401.4)" cx="548.8" cy="333.6" rx="34.6" ry="38.9"/>
  <ellipse class="st3" transform="matrix(.9036 -.4284 .4284 .9036 -90.01 267.3)" cx="548.8" cy="333.6" rx="28.5" ry="32"/>
  <ellipse class="st4" transform="matrix(.5181 -.8553 .8553 .5181 -23.92 650.7)" cx="565.5" cy="346.6" rx="7.8" ry="4.6"/>
  <path class="st2" d="m452.5 388.2c-2.7-4.7-1-10.6 3.7-13.3l37.6-21.3c4.7-2.7 10.6-1 13.3 3.7s1 10.6-3.7 13.3l-37.6 21.3c-4.7 2.6-10.7 1-13.3-3.7z"/>
  <rect class="st5" transform="matrix(.8699 -.4931 .4931 .8699 -114.6 292)" x="494.8" y="353.6" width="2.9" height="19.5"/>
  <rect class="st5" transform="matrix(.8699 -.4931 .4931 .8699 -128.2 278.1)" x="461.8" y="372.3" width="2.9" height="19.5"/>
  <rect transform="matrix(.9457 -.3251 .3251 .9457 -144.1 202.7)" x="528" y="519.6" width="13" height="26.1"/>
  <ellipse class="st2" transform="matrix(.8928 -.4505 .4505 .8928 -159.3 283.2)" cx="515.1" cy="476.2" rx="55.8" ry="49.6"/>
  <ellipse class="st3" transform="matrix(.9669 -.2553 .2553 .9669 -104.5 147.3)" cx="515.1" cy="476.2" rx="45.9" ry="40.9"/>
  <ellipse class="st4" transform="matrix(.6663 -.7457 .7457 .6663 -160.6 553.3)" cx="537.9" cy="456.1" rx="6.5" ry="11.3"/>
  <path class="st2" d="m566.8 626.6c-7.3 2.5-15.3-1.4-17.8-8.7l-20.2-58.6c-2.5-7.3 1.4-15.3 8.7-17.8s15.3 1.4 17.8 8.7l20.2 58.6c2.5 7.3-1.4 15.2-8.7 17.8z"/>
  <rect class="st5" transform="matrix(.9457 -.3251 .3251 .9457 -151.9 206.9)" x="529.3" y="556.1" width="28" height="4.2"/>
  <rect class="st5" transform="matrix(.9457 -.3251 .3251 .9457 -167.8 215.5)" x="547" y="607.7" width="28" height="4.2"/>
  <rect transform="matrix(.157 -.9876 .9876 .157 204.6 1064)" x="717.2" y="395.5" width="16.3" height="32.9"/>
  <ellipse class="st2" transform="matrix(.02133 -.9998 .9998 .02133 358.8 1214)" cx="799.6" cy="423.9" rx="70.2" ry="62.4"/>
  <ellipse class="st3" transform="matrix(.2285 -.9735 .9735 .2285 204.2 1105)" cx="799.6" cy="423.9" rx="57.8" ry="51.4"/>
  <ellipse class="st4" transform="matrix(.9384 -.3456 .3456 .9384 -109.5 307.8)" cx="808.5" cy="461" rx="14.2" ry="8.2"/>
  <path class="st2" d="m602 392.4c1.5-9.6 10.6-16.2 20.2-14.6l77.1 12.2c9.6 1.5 16.2 10.6 14.6 20.2-1.5 9.6-10.6 16.2-20.2 14.6l-77.1-12.2c-9.6-1.6-16.1-10.6-14.6-20.2z"/>
  <rect class="st5" transform="matrix(.157 -.9876 .9876 .157 181.7 1026)" x="674.3" y="404" width="35.2" height="5.2"/>
  <rect class="st5" transform="matrix(.157 -.9876 .9876 .157 135.1 950)" x="606.4" y="393.2" width="35.2" height="5.2"/>
  <rect transform="matrix(.643 -.7658 .7658 .643 -231.7 408.1)" x="316.8" y="442.2" width="10.2" height="20.6"/>
  <ellipse class="st2" transform="matrix(.533 -.8461 .8461 .533 -241.4 528.3)" cx="357.9" cy="482.8" rx="43.9" ry="39.1"/>
  <ellipse class="st3" transform="matrix(.6971 -.7169 .7169 .6971 -237.8 402.8)" cx="357.9" cy="482.8" rx="36.2" ry="32.2"/>
  <ellipse class="st4" transform="matrix(.1869 -.9824 .9824 .1869 -211.5 755.7)" cx="350.7" cy="505.6" rx="5.2" ry="8.9"/>
  <path class="st2" d="m262 402.2c3.9-4.7 10.9-5.3 15.5-1.4l37.4 31.4c4.7 3.9 5.3 10.9 1.4 15.5-3.9 4.7-10.9 5.3-15.5 1.4l-37.4-31.4c-4.7-3.8-5.3-10.8-1.4-15.5z"/>
  <rect class="st5" transform="matrix(.643 -.7658 .7658 .643 -227 390.7)" x="294.6" y="437.2" width="22.1" height="3.3"/>
  <rect class="st5" transform="matrix(.643 -.7658 .7658 .643 -217.6 355.6)" x="261.7" y="409.6" width="22.1" height="3.3"/>
  <rect transform="matrix(.3938 -.9192 .9192 .3938 283.1 290.1)" x="352.4" y="-88" width="18.3" height="36.9"/>
  <ellipse class="st2" transform="matrix(.2653 -.9642 .9642 .2653 357.5 396.4)" cx="438.9" cy="-36.3" rx="78.6" ry="69.9"/>
  <ellipse class="st3" transform="matrix(.4598 -.888 .888 .4598 269.4 370.1)" cx="438.9" cy="-36.3" rx="64.8" ry="57.6"/>
  <ellipse class="st4" transform="matrix(.9944 -.1055 .1055 .9944 1.767 46.28)" cx="438.4" cy="6.4" rx="15.9" ry="9.2"/>
  <path class="st2" d="m232.9-124.7c4.3-10 15.9-14.7 25.9-10.4l80.3 34.4c10 4.3 14.7 15.9 10.4 25.9s-15.9 14.7-25.9 10.4l-80.3-34.4c-10-4.3-14.7-15.9-10.4-25.9z"/>
  <rect class="st5" transform="matrix(.3938 -.9192 .9192 .3938 275.7 249)" x="306.9" y="-87.5" width="39.5" height="5.9"/>
  <rect class="st5" transform="matrix(.3938 -.9192 .9192 .3938 260.7 165.6)" x="236.1" y="-117.8" width="39.5" height="5.9"/>
  <rect transform="matrix(.9339 -.3576 .3576 .9339 20.29 221.2)" x="601.6" y="42.5" width="13.2" height="26.5"/>
  <ellipse class="st2" transform="matrix(.8766 -.4812 .4812 .8766 23.69 316.9)" cx="629.8" cy="112.2" rx="56.5" ry="50.3"/>
  <ellipse class="st3" transform="matrix(.9575 -.2886 .2886 .9575 -5.596 186.5)" cx="629.8" cy="112.2" rx="46.5" ry="41.4"/>
  <ellipse class="st4" transform="matrix(.6401 -.7683 .7683 .6401 116.1 514.7)" cx="607.5" cy="133.4" rx="6.6" ry="11.4"/>
  <path class="st2" d="m572.2-38.2c7.3-2.8 15.5 0.9 18.3 8.2l22.5 58.6c2.8 7.3-0.9 15.5-8.2 18.3s-15.5-0.9-18.3-8.2l-22.5-58.7c-2.7-7.2 0.9-15.4 8.2-18.2z"/>
  <rect class="st5" transform="matrix(.9339 -.3576 .3576 .9339 28.77 216)" x="584.3" y="28.1" width="28.4" height="4.2"/>
  <rect class="st5" transform="matrix(.9339 -.3576 .3576 .9339 45.94 205.5)" x="564.5" y="-23.6" width="28.4" height="4.2"/>
  <rect transform="matrix(.5615 -.8275 .8275 .5615 164.8 707)" x="734.3" y="190.5" width="30.2" height="15"/>
  <ellipse class="st2" transform="matrix(.4438 -.8961 .8961 .4438 312.1 784.7)" cx="788.3" cy="140.9" rx="57.4" ry="64.5"/>
  <ellipse class="st3" transform="matrix(.6203 -.7844 .7844 .6203 188.8 671.8)" cx="788.3" cy="140.9" rx="47.3" ry="53.1"/>
  <ellipse class="st4" transform="matrix(.08557 -.9963 .9963 .08557 604.8 954.9)" cx="822.6" cy="148" rx="13" ry="7.6"/>
  <path class="st2" d="m684.9 293c-7.4-5-9.3-15.1-4.3-22.5l40.3-59.4c5-7.4 15.1-9.3 22.5-4.3s9.3 15.1 4.3 22.5l-40.3 59.4c-5 7.4-15.1 9.4-22.5 4.3z"/>
  <rect class="st5" transform="matrix(.5615 -.8275 .8275 .5615 135.7 703.8)" x="729.5" y="207.6" width="4.8" height="32.4"/>
  <rect class="st5" transform="matrix(.5615 -.8275 .8275 .5615 76.93 697.4)" x="694" y="259.9" width="4.8" height="32.4"/>
  <rect transform="matrix(.4946 -.8691 .8691 .4946 199.8 926)" x="891" y="281" width="10.1" height="20.3"/>
  <ellipse class="st2" transform="matrix(.3719 -.9283 .9283 .3719 296.5 1067)" cx="936.4" cy="314.2" rx="43.3" ry="38.5"/>
  <ellipse class="st3" transform="matrix(.5566 -.8308 .8308 .5566 154.2 917.2)" cx="936.4" cy="314.2" rx="35.7" ry="31.7"/>
  <ellipse class="st4" transform="matrix(.006859 -1 1 .006859 589.5 1269)" cx="933.5" cy="337.6" rx="5.1" ry="8.8"/>
  <path class="st2" d="m829.1 253.1c3-5.2 9.6-7 14.8-4.1l41.9 23.8c5.2 3 7 9.6 4.1 14.8-3 5.2-9.6 7-14.8 4.1l-41.9-23.8c-5.3-3-7.1-9.6-4.1-14.8z"/>
  <rect class="st5" transform="matrix(.4946 -.8691 .8691 .4946 199.6 904.9)" x="867" y="279.2" width="21.8" height="3.2"/>
  <rect class="st5" transform="matrix(.4946 -.8691 .8691 .4946 199.2 862.3)" x="830.1" y="258.2" width="21.8" height="3.2"/>
  <rect transform="matrix(.8995 -.4369 .4369 .8995 37.86 439.1)" x="967.6" y="125.4" width="11.7" height="23.6"/>
  <ellipse class="st2" transform="matrix(.8318 -.555 .555 .8318 64.55 584.6)" cx="997" cy="185.8" rx="50.4" ry="44.8"/>
  <ellipse class="st3" transform="matrix(.929 -.3702 .3702 .929 2.047 382.2)" cx="997" cy="185.8" rx="41.5" ry="36.9"/>
  <ellipse class="st4" transform="matrix(.5714 -.8207 .8207 .5714 250.2 891.7)" cx="978.8" cy="206.3" rx="5.9" ry="10.2"/>
  <path class="st2" d="m934.3 56.5c6.3-3.1 13.9-0.4 16.9 5.9l24.5 50.4c3.1 6.3 0.4 13.9-5.9 16.9-6.3 3.1-13.9 0.4-16.9-5.9l-24.5-50.4c-3.1-6.2-0.4-13.8 5.9-16.9z"/>
  <rect class="st5" transform="matrix(.8995 -.4369 .4369 .8995 46.36 432.2)" x="950.1" y="113.4" width="25.3" height="3.8"/>
  <rect class="st5" transform="matrix(.8995 -.4369 .4369 .8995 63.58 418.3)" x="928.6" y="69.1" width="25.3" height="3.8"/>
  <rect transform="matrix(.4878 -.8729 .8729 .4878 455.3 1128)" x="1183" y="164" width="12.2" height="24.5"/>
  <ellipse class="st2" transform="matrix(.3647 -.9311 .9311 .3647 597 1282)" cx="1238" cy="203.6" rx="52.3" ry="46.5"/>
  <ellipse class="st3" transform="matrix(.5501 -.8351 .8351 .5501 387 1125)" cx="1238" cy="203.6" rx="43" ry="38.3"/>
  <ellipse class="st4" cx="1235" cy="231.8" rx="10.6" ry="6.1"/>
  <path class="st2" d="m1108 130.9c3.5-6.3 11.5-8.6 17.9-5.1l50.7 28.3c6.3 3.5 8.6 11.5 5.1 17.9-3.5 6.3-11.5 8.6-17.9 5.1l-50.7-28.3c-6.3-3.6-8.6-11.6-5.1-17.9z"/>
  <rect class="st5" transform="matrix(.4878 -.8729 .8729 .4878 454.7 1103)" x="1154" y="162" width="26.2" height="3.9"/>
  <rect class="st5" transform="matrix(.4878 -.8729 .8729 .4878 453.6 1051)" x="1109" y="137" width="26.2" height="3.9"/>
  <rect transform="matrix(.07706 -.997 .997 .07706 1137 1256)" x="1235" y="7.6" width="24.8" height="12.3"/>
  <ellipse class="st2" transform="matrix(.9983 -.05911 .05911 .9983 4.712 73.91)" cx="1252" cy="-42.7" rx="52.8" ry="47"/>
  <ellipse class="st3" transform="matrix(.1495 -.9888 .9888 .1495 1107 1201)" cx="1252" cy="-42.7" rx="38.7" ry="43.5"/>
  <ellipse class="st4" transform="matrix(.9076 -.4199 .4199 .9076 139.9 532.3)" cx="1279" cy="-51.6" rx="6.2" ry="10.7"/>
  <path class="st2" d="m1240 107.5c-7.3-0.6-12.8-6.9-12.2-14.2l4.5-58.6c0.6-7.3 6.9-12.8 14.2-12.2s12.8 6.9 12.2 14.2l-4.5 58.6c-0.5 7.3-6.9 12.7-14.2 12.2z"/>
  <rect class="st5" transform="matrix(.07706 -.997 .997 .07706 1110 1278)" x="1243" y="25.9" width="3.9" height="26.5"/>
  <rect class="st5" transform="matrix(.07706 -.997 .997 .07706 1055 1321)" x="1239" y="77.5" width="3.9" height="26.5"/>
  <rect transform="matrix(.04494 -.999 .999 .04494 1228 1650)" x="1469" y="168.1" width="14.9" height="30"/>
  <ellipse class="st2" transform="matrix(.9958 -.0912 .0912 .9958 -10.55 141.7)" cx="1545" cy="186.3" rx="56.9" ry="64"/>
  <ellipse class="st3" transform="matrix(.1176 -.9931 .9931 .1176 1179 1699)" cx="1545" cy="186.3" rx="52.7" ry="46.9"/>
  <ellipse class="st4" transform="matrix(.8936 -.4489 .4489 .8936 67.4 722.3)" cx="1557" cy="219" rx="12.9" ry="7.5"/>
  <path class="st2" d="m1363 178c0.4-8.9 7.9-15.7 16.8-15.3l71.1 3.2c8.9 0.4 15.7 7.9 15.3 16.8s-7.9 15.7-16.8 15.3l-71.1-3.2c-8.9-0.4-15.7-7.9-15.3-16.8z"/>
  <rect class="st5" transform="matrix(.04494 -.999 .999 .04494 1199 1618)" x="1430" y="179.3" width="32.1" height="4.8"/>
  <rect class="st5" transform="matrix(.04494 -.999 .999 .04494 1142 1553)" x="1367" y="176.5" width="32.1" height="4.8"/>
  <rect transform="matrix(.5333 -.8459 .8459 .5333 261.3 1504)" x="1477" y="506.9" width="34.1" height="16.9"/>
  <ellipse class="st2" transform="matrix(.4135 -.9105 .9105 .4135 491.3 1662)" cx="1536" cy="449.5" rx="64.6" ry="72.7"/>
  <ellipse class="st3" transform="matrix(.5936 -.8048 .8048 .5936 262.3 1418)" cx="1536" cy="449.5" rx="53.2" ry="59.9"/>
  <ellipse class="st4" transform="matrix(.05203 -.9986 .9986 .05203 1037 2005)" cx="1574" cy="456.2" rx="14.7" ry="8.5"/>
  <path class="st2" d="m1425 624.7c-8.5-5.4-11.1-16.6-5.7-25.2l43.1-68.3c5.4-8.5 16.6-11.1 25.2-5.7 8.5 5.4 11.1 16.6 5.7 25.2l-43.1 68.3c-5.4 8.5-16.7 11.1-25.2 5.7z"/>
  <rect class="st5" transform="matrix(.5333 -.8459 .8459 .5333 227.4 1502)" x="1472" y="526.8" width="5.4" height="36.5"/>
  <rect class="st5" transform="matrix(.5333 -.8459 .8459 .5333 158.8 1498)" x="1435" y="587" width="5.4" height="36.5"/>
  <rect transform="matrix(.567 -.8237 .8237 .567 428.5 1518)" x="1650" y="336.2" width="15" height="30.2"/>
  <ellipse class="st2" transform="matrix(.4499 -.8931 .8931 .4499 594.7 1746)" cx="1715" cy="390.4" rx="64.3" ry="57.2"/>
  <ellipse class="st3" transform="matrix(.6255 -.7802 .7802 .6255 337.5 1484)" cx="1715" cy="390.4" rx="53" ry="47.1"/>
  <ellipse class="st4" transform="matrix(.09227 -.9957 .9957 .09227 1127 2086)" cx="1707" cy="424.6" rx="7.5" ry="13"/>
  <path class="st2" d="m1564 286.4c5.1-7.3 15.1-9.2 22.5-4.1l58.9 40.6c7.3 5.1 9.2 15.1 4.1 22.5-5.1 7.3-15.1 9.2-22.5 4.1l-58.9-40.6c-7.3-5.1-9.1-15.2-4.1-22.5z"/>
  <rect class="st5" transform="matrix(.567 -.8237 .8237 .567 432 1489)" x="1616" y="331.2" width="32.3" height="4.8"/>
  <rect class="st5" transform="matrix(.567 -.8237 .8237 .567 438.9 1431)" x="1564" y="295.5" width="32.3" height="4.8"/>
  <rect transform="matrix(.8712 -.4909 .4909 .8712 162.1 703.9)" x="1412" y="37.5" width="21.9" height="10.9"/>
  <ellipse class="st2" transform="matrix(.7964 -.6047 .6047 .7964 239.9 847.6)" cx="1379" cy="67.5" rx="41.6" ry="46.7"/>
  <ellipse class="st3" transform="matrix(.9047 -.4261 .4261 .9047 102.7 594)" cx="1379" cy="67.5" rx="34.2" ry="38.5"/>
  <ellipse class="st4" transform="matrix(.5203 -.854 .854 .5203 607.7 1185)" cx="1359" cy="51.8" rx="9.4" ry="5.5"/>
  <path class="st2" d="m1495 2.1c3.2 5.6 1.2 12.8-4.5 16l-45.2 25.5c-5.6 3.2-12.8 1.2-16-4.5-3.2-5.6-1.2-12.8 4.5-16l45.2-25.4c5.6-3.2 12.8-1.2 16 4.4z"/>
  <rect class="st5" transform="matrix(.8712 -.4909 .4909 .8712 170.1 712.1)" x="1440" y="20.1" width="3.5" height="23.5"/>
  <rect class="st5" transform="matrix(.8712 -.4909 .4909 .8712 186.3 728.8)" x="1480" y="-2.3" width="3.5" height="23.5"/>
  <rect transform="matrix(.493 -.87 .87 .493 827.5 1388)" x="1589" y="-24" width="32.1" height="15.9"/>
  <ellipse class="st2" transform="matrix(.3703 -.9289 .9289 .3703 1108 1474)" cx="1641" cy="-79.8" rx="60.9" ry="68.5"/>
  <ellipse class="st3" transform="matrix(.5551 -.8318 .8318 .5551 796.4 1330)" cx="1641" cy="-79.8" rx="50.2" ry="56.4"/>
  <ellipse class="st4" transform="matrix(.005103 -1 1 .005103 1745 1603)" cx="1678" cy="-75.2" rx="13.8" ry="8"/>
  <path class="st2" d="m1545 90c-8.3-4.7-11.2-15.2-6.5-23.4l37.5-66.2c4.7-8.3 15.2-11.2 23.4-6.5 8.3 4.7 11.2 15.2 6.5 23.4l-37.5 66.2c-4.6 8.3-15.1 11.2-23.4 6.5z"/>
  <rect class="st5" transform="matrix(.493 -.87 .87 .493 794.2 1389)" x="1586" y="-4.4" width="5.1" height="34.4"/>
  <rect class="st5" transform="matrix(.493 -.87 .87 .493 726.7 1389)" x="1553" y="53.9" width="5.1" height="34.4"/>
  <rect transform="matrix(.9232 -.3843 .3843 .9232 -19.41 549.3)" x="1351" y="316.4" width="27.5" height="13.7"/>
  <ellipse class="st2" transform="matrix(.8625 -.5061 .5061 .8625 44.31 761.3)" cx="1423" cy="299.2" rx="52.2" ry="58.7"/>
  <ellipse class="st3" transform="matrix(.9488 -.316 .316 .9488 -21.63 464.9)" cx="1423" cy="299.2" rx="43" ry="48.3"/>
  <ellipse class="st4" transform="matrix(.6178 -.7864 .7864 .6178 299.6 1260)" cx="1446" cy="321.7" rx="11.9" ry="6.9"/>
  <path class="st2" d="m1268 363.4c-3.1-7.5 0.4-16.1 7.9-19.3l60.2-25.1c7.5-3.1 16.1 0.4 19.3 7.9 3.1 7.5-0.4 16.1-7.9 19.3l-60.2 25.1c-7.5 3.1-16.1-0.4-19.3-7.9z"/>
  <rect class="st5" transform="matrix(.9232 -.3843 .3843 .9232 -25.61 540.1)" x="1337" y="319.4" width="4.4" height="29.5"/>
  <rect class="st5" transform="matrix(.9232 -.3843 .3843 .9232 -38.16 521.4)" x="1284" y="341.5" width="4.4" height="29.5"/>
  <rect transform="matrix(.5042 -.8636 .8636 .5042 231.9 1321)" x="1260" y="445.8" width="12.5" height="25.1"/>
  <ellipse class="st2" transform="matrix(.3822 -.9241 .9241 .3822 362.4 1517)" cx="1316" cy="487.4" rx="53.6" ry="47.7"/>
  <ellipse class="st3" transform="matrix(.5658 -.8246 .8246 .5658 169.4 1296)" cx="1316" cy="487.4" rx="44.2" ry="39.3"/>
  <ellipse class="st4" transform="matrix(.01797 -.9998 .9998 .01797 771.9 1818)" cx="1312" cy="516.3" rx="6.3" ry="10.8"/>
  <path class="st2" d="m1184 410.2c3.7-6.4 12-8.6 18.4-4.8l51.5 30.1c6.4 3.7 8.6 12 4.8 18.4-3.7 6.4-12 8.6-18.4 4.8l-51.5-30.1c-6.4-3.7-8.5-11.9-4.8-18.4z"/>
  <rect class="st5" transform="matrix(.5042 -.8636 .8636 .5042 232.1 1295)" x="1230" y="443.3" width="26.9" height="4"/>
  <rect class="st5" transform="matrix(.5042 -.8636 .8636 .5042 232.4 1242)" x="1185" y="416.8" width="26.9" height="4"/>
  <rect transform="matrix(.7119 -.7023 .7023 .7119 290.8 771.6)" x="1075" y="26" width="21.4" height="10.7"/>
  <ellipse class="st2" transform="matrix(.6099 -.7925 .7925 .6099 439.6 887.1)" cx="1121" cy="-3" rx="40.7" ry="45.8"/>
  <ellipse class="st3" transform="matrix(.7612 -.6486 .6486 .7612 269.6 726.2)" cx="1121" cy="-3" rx="33.5" ry="37.7"/>
  <ellipse class="st4" transform="matrix(.278 -.9606 .9606 .278 819.4 1103)" cx="1144" cy="6.7" rx="9.2" ry="5.4"/>
  <path class="st2" d="m1028 88.6c-4.5-4.5-4.4-11.8 0.1-16.2l36.2-35.7c4.5-4.5 11.8-4.4 16.2 0.1 4.5 4.5 4.4 11.8-0.1 16.2l-36.2 35.7c-4.5 4.4-11.8 4.4-16.2-0.1z"/>
  <rect class="st5" transform="matrix(.7119 -.7023 .7023 .7119 275.4 765.1)" x="1068" y="35.4" width="3.4" height="23"/>
  <rect class="st5" transform="matrix(.7119 -.7023 .7023 .7119 244.1 751.7)" x="1036" y="66.9" width="3.4" height="23"/>
  <rect transform="matrix(.8073 -.5901 .5901 .8073 -10.29 705.4)" x="1059" y="360.7" width="31.3" height="15.6"/>
  <ellipse class="st2" transform="matrix(.7197 -.6943 .6943 .7197 91 878)" cx="1133" cy="326.3" rx="59.4" ry="66.8"/>
  <ellipse class="st3" transform="matrix(.8482 -.5297 .5297 .8482 -.869 649.6)" cx="1133" cy="326.3" rx="48.9" ry="55"/>
  <ellipse class="st4" transform="matrix(.4161 -.9093 .9093 .4161 365.7 1260)" cx="1164" cy="345.2" rx="13.5" ry="7.8"/>
  <path class="st2" d="m979.1 438.6c-5.5-7.5-3.8-18 3.6-23.4l59.9-43.8c7.5-5.5 18-3.8 23.4 3.6 5.5 7.5 3.8 18-3.6 23.4l-59.9 43.8c-7.5 5.5-18 3.9-23.4-3.6z"/>
  <rect class="st5" transform="matrix(.8073 -.5901 .5901 .8073 -26.55 693.7)" x="1046" y="370.7" width="5" height="33.5"/>
  <rect class="st5" transform="matrix(.8073 -.5901 .5901 .8073 -59.49 669.9)" x="993.7" y="409.3" width="5" height="33.5"/>
  <rect transform="matrix(.6707 -.7418 .7418 .6707 -55.38 886.2)" x="965.3" y="495.4" width="10.1" height="20.3"/>
  <ellipse class="st2" transform="matrix(.5637 -.826 .826 .5637 -4.84 1064)" cx="1005" cy="536.6" rx="43.2" ry="38.5"/>
  <ellipse class="st3" transform="matrix(.7229 -.6909 .6909 .7229 -92.37 842.8)" cx="1005" cy="536.6" rx="35.6" ry="31.7"/>
  <ellipse class="st4" transform="matrix(.2227 -.9749 .9749 .2227 230.1 1406)" cx="996.8" cy="558.7" rx="5.1" ry="8.7"/>
  <path class="st2" d="m913.3 453.9c4-4.4 10.9-4.8 15.3-0.8l35.7 32.2c4.4 4 4.8 10.9 0.8 15.3s-10.9 4.8-15.3 0.8l-35.7-32.2c-4.5-4-4.8-10.9-0.8-15.3z"/>
  <rect class="st5" transform="matrix(.6707 -.7418 .7418 .6707 -50.09 870.1)" x="944" y="489.9" width="21.7" height="3.2"/>
  <rect class="st5" transform="matrix(.6707 -.7418 .7418 .6707 -39.37 837.5)" x="912.6" y="461.5" width="21.7" height="3.2"/>
  <rect transform="matrix(.9472 -.3207 .3207 .9472 54.34 287.1)" x="886.7" y="-27.3" width="23.7" height="11.8"/>
  <ellipse class="st2" transform="matrix(.8948 -.4465 .4465 .8948 90.94 377.8)" cx="847.2" cy="-4.1" rx="45" ry="50.6"/>
  <ellipse class="st3" transform="matrix(.968 -.2509 .2509 .968 28.12 212.4)" cx="847.2" cy="-4.1" rx="37.1" ry="41.7"/>
  <ellipse class="st4" transform="matrix(.6697 -.7426 .7426 .6697 292.3 607.5)" cx="829.1" cy="-24.8" rx="10.2" ry="5.9"/>
  <path class="st2" d="m983.9-50.3c2.3 6.6-1.3 13.9-8 16.1l-53.3 18.1c-6.6 2.3-13.9-1.3-16.1-8-2.3-6.6 1.3-13.9 8-16.1l53.3-18.1c6.7-2.2 13.9 1.4 16.1 8z"/>
  <rect class="st5" transform="matrix(.9472 -.3207 .3207 .9472 58.08 294.1)" x="919.9" y="-42" width="3.8" height="25.4"/>
  <rect class="st5" transform="matrix(.9472 -.3207 .3207 .9472 65.66 308.3)" x="966.8" y="-57.9" width="3.8" height="25.4"/>
 </g>
 <defs>
  <ellipse id="f" cx="1552" cy="479" rx="18.6" ry="11.5"/>
 </defs>
 <clipPath id="c">
  <use xlink:href="#f"/>
 </clipPath>
 <g clip-path="url(#c)">
  <rect transform="matrix(.8278 -.561 .561 .8278 -241.9 103.1)" x="28.5" y="436.4" width="37.1" height="18.4"/>
  <ellipse class="st2" transform="matrix(.7439 -.6683 .6683 .7439 -236.1 180.3)" cx="117.2" cy="398.2" rx="70.4" ry="79.2"/>
  <ellipse class="st3" transform="matrix(.8665 -.4992 .4992 .8665 -183.1 111.7)" cx="117.2" cy="398.2" rx="58" ry="65.2"/>
  <ellipse class="st4" transform="matrix(.4481 -.894 .894 .4481 -292.6 369.8)" cx="153.2" cy="421.8" rx="16" ry="9.3"/>
  <path class="st2" d="m-69.6 524.7c-6.2-9.1-3.8-21.4 5.3-27.6l72.9-49.4c9.1-6.2 21.4-3.8 27.6 5.3s3.8 21.4-5.3 27.6l-72.9 49.4c-9.1 6.2-21.4 3.8-27.6-5.3z"/>
  <rect class="st5" transform="matrix(.8278 -.561 .561 .8278 -259.4 89.06)" x="12.4" y="447.2" width="5.9" height="39.7"/>
  <rect class="st5" transform="matrix(.8278 -.561 .561 .8278 -294.9 60.56)" x="-51.7" y="490.7" width="5.9" height="39.7"/>
  <rect transform="matrix(.3038 -.9527 .9527 .3038 -299.5 188.8)" x="-34.7" y="292.4" width="28.2" height="14"/>
  <ellipse class="st2" transform="matrix(.1715 -.9852 .9852 .1715 -235.3 196.3)" cx="-.9" cy="238" rx="53.5" ry="60.2"/>
  <ellipse class="st3" transform="matrix(.3724 -.9281 .9281 .3724 -221.5 148.5)" cx="-.9" cy="238" rx="44.1" ry="49.6"/>
  <ellipse class="st4" transform="matrix(.9797 -.2005 .2005 .9797 -46.52 11.13)" cx="31.7" cy="235.2" rx="7.1" ry="12.2"/>
  <path class="st2" d="m-53.1 401.4c-7.9-2.5-12.3-11-9.8-19l20.3-63.7c2.5-7.9 11-12.3 19-9.8 7.9 2.5 12.3 11 9.8 19l-20.3 63.7c-2.6 7.9-11.1 12.3-19 9.8z"/>
  <rect class="st5" transform="matrix(.3038 -.9527 .9527 .3038 -332.1 199.7)" x="-31.7" y="312" width="4.5" height="30.2"/>
  <rect class="st5" transform="matrix(.3038 -.9527 .9527 .3038 -398 221.7)" x="-49.5" y="368.1" width="4.5" height="30.2"/>
  <rect transform="matrix(.6786 -.7345 .7345 .6786 -16.47 40.91)" x="21.5" y="30.8" width="34" height="16.9"/>
  <ellipse class="st2" transform="matrix(.5725 -.8199 .8199 .5725 53.56 67.27)" cx="91.3" cy="-17.7" rx="64.5" ry="72.6"/>
  <ellipse class="st3" transform="matrix(.7303 -.6831 .6831 .7303 36.73 57.58)" cx="91.3" cy="-17.7" rx="53.2" ry="59.8"/>
  <ellipse class="st4" transform="matrix(.2332 -.9724 .9724 .2332 102.4 121.7)" cx="128.3" cy="-4.1" rx="14.7" ry="8.5"/>
  <path class="st2" d="m-49.1 134.1c-7.4-6.8-7.8-18.4-1-25.7l54.7-59.3c6.8-7.4 18.4-7.8 25.7-1 7.4 6.8 7.8 18.4 1 25.7l-54.7 59.2c-6.8 7.5-18.3 7.9-25.7 1.1z"/>
  <rect class="st5" transform="matrix(.6786 -.7345 .7345 .6786 -43.04 31.71)" x="12" y="46.8" width="5.4" height="36.4"/>
  <rect class="st5" transform="matrix(.6786 -.7345 .7345 .6786 -96.85 13.08)" x="-36.2" y="99" width="5.4" height="36.4"/>
  <rect transform="matrix(.974 -.2268 .2268 .974 -12.33 55.21)" x="222.4" y="75.4" width="23.5" height="11.7"/>
  <ellipse class="st2" transform="matrix(.9341 -.357 .357 .9341 -5.808 106.8)" cx="286.5" cy="69.2" rx="44.7" ry="50.2"/>
  <ellipse class="st3" transform="matrix(.9879 -.1552 .1552 .9879 -7.26 45.3)" cx="286.5" cy="69.2" rx="36.8" ry="41.4"/>
  <ellipse class="st4" transform="matrix(.739 -.6737 .6737 .739 17.39 227.6)" cx="302.5" cy="91.4" rx="10.1" ry="5.9"/>
  <path class="st2" d="m147.1 101.6c-1.6-6.8 2.6-13.6 9.4-15.1l54.4-12.7c6.8-1.6 13.6 2.6 15.1 9.4 1.6 6.8-2.6 13.6-9.4 15.1l-54.4 12.7c-6.8 1.6-13.5-2.7-15.1-9.4z"/>
  <rect class="st5" transform="matrix(.974 -.2268 .2268 .974 -14.2 49.99)" x="208.6" y="74.2" width="3.8" height="25.2"/>
  <rect class="st5" transform="matrix(.974 -.2268 .2268 .974 -17.97 39.43)" x="160.7" y="85.3" width="3.8" height="25.2"/>
  <rect transform="matrix(.6118 -.791 .791 .6118 -109.7 250.4)" x="192.5" y="221.2" width="15.7" height="31.5"/>
  <ellipse class="st2" transform="matrix(.4987 -.8668 .8668 .4987 -114.7 363.9)" cx="257.2" cy="281.1" rx="67.3" ry="59.8"/>
  <ellipse class="st3" transform="matrix(.6678 -.7443 .7443 .6678 -123.8 284.8)" cx="257.2" cy="281.1" rx="55.4" ry="49.3"/>
  <ellipse class="st4" transform="matrix(.1473 -.9891 .9891 .1473 -101.8 514.7)" cx="247.6" cy="316.4" rx="7.9" ry="13.6"/>
  <path class="st2" d="m105.6 163.7c5.7-7.4 16.3-8.7 23.7-3l59.2 45.8c7.4 5.7 8.7 16.3 3 23.7s-16.3 8.7-23.7 3l-59.2-45.8c-7.3-5.7-8.7-16.3-3-23.7z"/>
  <rect class="st5" transform="matrix(.6118 -.791 .791 .6118 -103.9 222.4)" x="157.7" y="214.6" width="33.8" height="5"/>
  <rect class="st5" transform="matrix(.6118 -.791 .791 .6118 -92.29 165.5)" x="105.6" y="174.3" width="33.8" height="5"/>
  <rect transform="matrix(.321 -.9471 .9471 .321 50.67 562.1)" x="398.5" y="236.4" width="37.6" height="18.7"/>
  <ellipse class="st2" transform="matrix(.1893 -.9819 .9819 .1893 199.4 570.2)" cx="445" cy="164.3" rx="71.4" ry="80.3"/>
  <ellipse class="st3" transform="matrix(.3891 -.9212 .9212 .3891 120.5 510.3)" cx="445" cy="164.3" rx="58.8" ry="66.1"/>
  <ellipse class="st4" transform="matrix(.9832 -.1827 .1827 .9832 -21.27 91.98)" cx="488.6" cy="161.4" rx="9.4" ry="16.2"/>
  <path class="st2" d="m371.5 381c-10.5-3.6-16.2-15-12.6-25.6l28.6-84.5c3.6-10.5 15-16.2 25.6-12.6 10.5 3.6 16.2 15 12.6 25.6l-28.7 84.5c-3.6 10.6-15 16.2-25.5 12.6z"/>
  <rect class="st5" transform="matrix(.321 -.9471 .9471 .321 7.413 575.2)" x="401.9" y="262.3" width="6" height="40.3"/>
  <rect class="st5" transform="matrix(.321 -.9471 .9471 .321 -80.22 601.9)" x="376.6" y="336.7" width="6" height="40.3"/>
  <rect transform="matrix(.8699 -.4931 .4931 .8699 -107.9 298.8)" x="503.5" y="349.6" width="18.2" height="9"/>
  <ellipse class="st2" transform="matrix(.7949 -.6068 .6068 .7949 -89.84 401.4)" cx="548.8" cy="333.6" rx="34.6" ry="38.9"/>
  <ellipse class="st3" transform="matrix(.9036 -.4284 .4284 .9036 -90.01 267.3)" cx="548.8" cy="333.6" rx="28.5" ry="32"/>
  <ellipse class="st4" transform="matrix(.5181 -.8553 .8553 .5181 -23.92 650.7)" cx="565.5" cy="346.6" rx="7.8" ry="4.6"/>
  <path class="st2" d="m452.5 388.2c-2.7-4.7-1-10.6 3.7-13.3l37.6-21.3c4.7-2.7 10.6-1 13.3 3.7s1 10.6-3.7 13.3l-37.6 21.3c-4.7 2.6-10.7 1-13.3-3.7z"/>
  <rect class="st5" transform="matrix(.8699 -.4931 .4931 .8699 -114.6 292)" x="494.8" y="353.6" width="2.9" height="19.5"/>
  <rect class="st5" transform="matrix(.8699 -.4931 .4931 .8699 -128.2 278.1)" x="461.8" y="372.3" width="2.9" height="19.5"/>
  <rect transform="matrix(.9457 -.3251 .3251 .9457 -144.1 202.7)" x="528" y="519.6" width="13" height="26.1"/>
  <ellipse class="st2" transform="matrix(.8928 -.4505 .4505 .8928 -159.3 283.2)" cx="515.1" cy="476.2" rx="55.8" ry="49.6"/>
  <ellipse class="st3" transform="matrix(.9669 -.2553 .2553 .9669 -104.5 147.3)" cx="515.1" cy="476.2" rx="45.9" ry="40.9"/>
  <ellipse class="st4" transform="matrix(.6663 -.7457 .7457 .6663 -160.6 553.3)" cx="537.9" cy="456.1" rx="6.5" ry="11.3"/>
  <path class="st2" d="m566.8 626.6c-7.3 2.5-15.3-1.4-17.8-8.7l-20.2-58.6c-2.5-7.3 1.4-15.3 8.7-17.8s15.3 1.4 17.8 8.7l20.2 58.6c2.5 7.3-1.4 15.2-8.7 17.8z"/>
  <rect class="st5" transform="matrix(.9457 -.3251 .3251 .9457 -151.9 206.9)" x="529.3" y="556.1" width="28" height="4.2"/>
  <rect class="st5" transform="matrix(.9457 -.3251 .3251 .9457 -167.8 215.5)" x="547" y="607.7" width="28" height="4.2"/>
  <rect transform="matrix(.157 -.9876 .9876 .157 204.6 1064)" x="717.2" y="395.5" width="16.3" height="32.9"/>
  <ellipse class="st2" transform="matrix(.02133 -.9998 .9998 .02133 358.8 1214)" cx="799.6" cy="423.9" rx="70.2" ry="62.4"/>
  <ellipse class="st3" transform="matrix(.2285 -.9735 .9735 .2285 204.2 1105)" cx="799.6" cy="423.9" rx="57.8" ry="51.4"/>
  <ellipse class="st4" transform="matrix(.9384 -.3456 .3456 .9384 -109.5 307.8)" cx="808.5" cy="461" rx="14.2" ry="8.2"/>
  <path class="st2" d="m602 392.4c1.5-9.6 10.6-16.2 20.2-14.6l77.1 12.2c9.6 1.5 16.2 10.6 14.6 20.2-1.5 9.6-10.6 16.2-20.2 14.6l-77.1-12.2c-9.6-1.6-16.1-10.6-14.6-20.2z"/>
  <rect class="st5" transform="matrix(.157 -.9876 .9876 .157 181.7 1026)" x="674.3" y="404" width="35.2" height="5.2"/>
  <rect class="st5" transform="matrix(.157 -.9876 .9876 .157 135.1 950)" x="606.4" y="393.2" width="35.2" height="5.2"/>
  <rect transform="matrix(.643 -.7658 .7658 .643 -231.7 408.1)" x="316.8" y="442.2" width="10.2" height="20.6"/>
  <ellipse class="st2" transform="matrix(.533 -.8461 .8461 .533 -241.4 528.3)" cx="357.9" cy="482.8" rx="43.9" ry="39.1"/>
  <ellipse class="st3" transform="matrix(.6971 -.7169 .7169 .6971 -237.8 402.8)" cx="357.9" cy="482.8" rx="36.2" ry="32.2"/>
  <ellipse class="st4" transform="matrix(.1869 -.9824 .9824 .1869 -211.5 755.7)" cx="350.7" cy="505.6" rx="5.2" ry="8.9"/>
  <path class="st2" d="m262 402.2c3.9-4.7 10.9-5.3 15.5-1.4l37.4 31.4c4.7 3.9 5.3 10.9 1.4 15.5-3.9 4.7-10.9 5.3-15.5 1.4l-37.4-31.4c-4.7-3.8-5.3-10.8-1.4-15.5z"/>
  <rect class="st5" transform="matrix(.643 -.7658 .7658 .643 -227 390.7)" x="294.6" y="437.2" width="22.1" height="3.3"/>
  <rect class="st5" transform="matrix(.643 -.7658 .7658 .643 -217.6 355.6)" x="261.7" y="409.6" width="22.1" height="3.3"/>
  <rect transform="matrix(.3938 -.9192 .9192 .3938 283.1 290.1)" x="352.4" y="-88" width="18.3" height="36.9"/>
  <ellipse class="st2" transform="matrix(.2653 -.9642 .9642 .2653 357.5 396.4)" cx="438.9" cy="-36.3" rx="78.6" ry="69.9"/>
  <ellipse class="st3" transform="matrix(.4598 -.888 .888 .4598 269.4 370.1)" cx="438.9" cy="-36.3" rx="64.8" ry="57.6"/>
  <ellipse class="st4" transform="matrix(.9944 -.1055 .1055 .9944 1.767 46.28)" cx="438.4" cy="6.4" rx="15.9" ry="9.2"/>
  <path class="st2" d="m232.9-124.7c4.3-10 15.9-14.7 25.9-10.4l80.3 34.4c10 4.3 14.7 15.9 10.4 25.9s-15.9 14.7-25.9 10.4l-80.3-34.4c-10-4.3-14.7-15.9-10.4-25.9z"/>
  <rect class="st5" transform="matrix(.3938 -.9192 .9192 .3938 275.7 249)" x="306.9" y="-87.5" width="39.5" height="5.9"/>
  <rect class="st5" transform="matrix(.3938 -.9192 .9192 .3938 260.7 165.6)" x="236.1" y="-117.8" width="39.5" height="5.9"/>
  <rect transform="matrix(.9339 -.3576 .3576 .9339 20.29 221.2)" x="601.6" y="42.5" width="13.2" height="26.5"/>
  <ellipse class="st2" transform="matrix(.8766 -.4812 .4812 .8766 23.69 316.9)" cx="629.8" cy="112.2" rx="56.5" ry="50.3"/>
  <ellipse class="st3" transform="matrix(.9575 -.2886 .2886 .9575 -5.596 186.5)" cx="629.8" cy="112.2" rx="46.5" ry="41.4"/>
  <ellipse class="st4" transform="matrix(.6401 -.7683 .7683 .6401 116.1 514.7)" cx="607.5" cy="133.4" rx="6.6" ry="11.4"/>
  <path class="st2" d="m572.2-38.2c7.3-2.8 15.5 0.9 18.3 8.2l22.5 58.6c2.8 7.3-0.9 15.5-8.2 18.3s-15.5-0.9-18.3-8.2l-22.5-58.7c-2.7-7.2 0.9-15.4 8.2-18.2z"/>
  <rect class="st5" transform="matrix(.9339 -.3576 .3576 .9339 28.77 216)" x="584.3" y="28.1" width="28.4" height="4.2"/>
  <rect class="st5" transform="matrix(.9339 -.3576 .3576 .9339 45.94 205.5)" x="564.5" y="-23.6" width="28.4" height="4.2"/>
  <rect transform="matrix(.5615 -.8275 .8275 .5615 164.8 707)" x="734.3" y="190.5" width="30.2" height="15"/>
  <ellipse class="st2" transform="matrix(.4438 -.8961 .8961 .4438 312.1 784.7)" cx="788.3" cy="140.9" rx="57.4" ry="64.5"/>
  <ellipse class="st3" transform="matrix(.6203 -.7844 .7844 .6203 188.8 671.8)" cx="788.3" cy="140.9" rx="47.3" ry="53.1"/>
  <ellipse class="st4" transform="matrix(.08557 -.9963 .9963 .08557 604.8 954.9)" cx="822.6" cy="148" rx="13" ry="7.6"/>
  <path class="st2" d="m684.9 293c-7.4-5-9.3-15.1-4.3-22.5l40.3-59.4c5-7.4 15.1-9.3 22.5-4.3s9.3 15.1 4.3 22.5l-40.3 59.4c-5 7.4-15.1 9.4-22.5 4.3z"/>
  <rect class="st5" transform="matrix(.5615 -.8275 .8275 .5615 135.7 703.8)" x="729.5" y="207.6" width="4.8" height="32.4"/>
  <rect class="st5" transform="matrix(.5615 -.8275 .8275 .5615 76.93 697.4)" x="694" y="259.9" width="4.8" height="32.4"/>
  <rect transform="matrix(.4946 -.8691 .8691 .4946 199.8 926)" x="891" y="281" width="10.1" height="20.3"/>
  <ellipse class="st2" transform="matrix(.3719 -.9283 .9283 .3719 296.5 1067)" cx="936.4" cy="314.2" rx="43.3" ry="38.5"/>
  <ellipse class="st3" transform="matrix(.5566 -.8308 .8308 .5566 154.2 917.2)" cx="936.4" cy="314.2" rx="35.7" ry="31.7"/>
  <ellipse class="st4" transform="matrix(.006859 -1 1 .006859 589.5 1269)" cx="933.5" cy="337.6" rx="5.1" ry="8.8"/>
  <path class="st2" d="m829.1 253.1c3-5.2 9.6-7 14.8-4.1l41.9 23.8c5.2 3 7 9.6 4.1 14.8-3 5.2-9.6 7-14.8 4.1l-41.9-23.8c-5.3-3-7.1-9.6-4.1-14.8z"/>
  <rect class="st5" transform="matrix(.4946 -.8691 .8691 .4946 199.6 904.9)" x="867" y="279.2" width="21.8" height="3.2"/>
  <rect class="st5" transform="matrix(.4946 -.8691 .8691 .4946 199.2 862.3)" x="830.1" y="258.2" width="21.8" height="3.2"/>
  <rect transform="matrix(.8995 -.4369 .4369 .8995 37.86 439.1)" x="967.6" y="125.4" width="11.7" height="23.6"/>
  <ellipse class="st2" transform="matrix(.8318 -.555 .555 .8318 64.55 584.6)" cx="997" cy="185.8" rx="50.4" ry="44.8"/>
  <ellipse class="st3" transform="matrix(.929 -.3702 .3702 .929 2.047 382.2)" cx="997" cy="185.8" rx="41.5" ry="36.9"/>
  <ellipse class="st4" transform="matrix(.5714 -.8207 .8207 .5714 250.2 891.7)" cx="978.8" cy="206.3" rx="5.9" ry="10.2"/>
  <path class="st2" d="m934.3 56.5c6.3-3.1 13.9-0.4 16.9 5.9l24.5 50.4c3.1 6.3 0.4 13.9-5.9 16.9-6.3 3.1-13.9 0.4-16.9-5.9l-24.5-50.4c-3.1-6.2-0.4-13.8 5.9-16.9z"/>
  <rect class="st5" transform="matrix(.8995 -.4369 .4369 .8995 46.36 432.2)" x="950.1" y="113.4" width="25.3" height="3.8"/>
  <rect class="st5" transform="matrix(.8995 -.4369 .4369 .8995 63.58 418.3)" x="928.6" y="69.1" width="25.3" height="3.8"/>
  <rect transform="matrix(.4878 -.8729 .8729 .4878 455.3 1128)" x="1183" y="164" width="12.2" height="24.5"/>
  <ellipse class="st2" transform="matrix(.3647 -.9311 .9311 .3647 597 1282)" cx="1238" cy="203.6" rx="52.3" ry="46.5"/>
  <ellipse class="st3" transform="matrix(.5501 -.8351 .8351 .5501 387 1125)" cx="1238" cy="203.6" rx="43" ry="38.3"/>
  <ellipse class="st4" cx="1235" cy="231.8" rx="10.6" ry="6.1"/>
  <path class="st2" d="m1108 130.9c3.5-6.3 11.5-8.6 17.9-5.1l50.7 28.3c6.3 3.5 8.6 11.5 5.1 17.9-3.5 6.3-11.5 8.6-17.9 5.1l-50.7-28.3c-6.3-3.6-8.6-11.6-5.1-17.9z"/>
  <rect class="st5" transform="matrix(.4878 -.8729 .8729 .4878 454.7 1103)" x="1154" y="162" width="26.2" height="3.9"/>
  <rect class="st5" transform="matrix(.4878 -.8729 .8729 .4878 453.6 1051)" x="1109" y="137" width="26.2" height="3.9"/>
  <rect transform="matrix(.07706 -.997 .997 .07706 1137 1256)" x="1235" y="7.6" width="24.8" height="12.3"/>
  <ellipse class="st2" transform="matrix(.9983 -.05911 .05911 .9983 4.712 73.91)" cx="1252" cy="-42.7" rx="52.8" ry="47"/>
  <ellipse class="st3" transform="matrix(.1495 -.9888 .9888 .1495 1107 1201)" cx="1252" cy="-42.7" rx="38.7" ry="43.5"/>
  <ellipse class="st4" transform="matrix(.9076 -.4199 .4199 .9076 139.9 532.3)" cx="1279" cy="-51.6" rx="6.2" ry="10.7"/>
  <path class="st2" d="m1240 107.5c-7.3-0.6-12.8-6.9-12.2-14.2l4.5-58.6c0.6-7.3 6.9-12.8 14.2-12.2s12.8 6.9 12.2 14.2l-4.5 58.6c-0.5 7.3-6.9 12.7-14.2 12.2z"/>
  <rect class="st5" transform="matrix(.07706 -.997 .997 .07706 1110 1278)" x="1243" y="25.9" width="3.9" height="26.5"/>
  <rect class="st5" transform="matrix(.07706 -.997 .997 .07706 1055 1321)" x="1239" y="77.5" width="3.9" height="26.5"/>
  <rect transform="matrix(.04494 -.999 .999 .04494 1228 1650)" x="1469" y="168.1" width="14.9" height="30"/>
  <ellipse class="st2" transform="matrix(.9958 -.0912 .0912 .9958 -10.55 141.7)" cx="1545" cy="186.3" rx="56.9" ry="64"/>
  <ellipse class="st3" transform="matrix(.1176 -.9931 .9931 .1176 1179 1699)" cx="1545" cy="186.3" rx="52.7" ry="46.9"/>
  <ellipse class="st4" transform="matrix(.8936 -.4489 .4489 .8936 67.4 722.3)" cx="1557" cy="219" rx="12.9" ry="7.5"/>
  <path class="st2" d="m1363 178c0.4-8.9 7.9-15.7 16.8-15.3l71.1 3.2c8.9 0.4 15.7 7.9 15.3 16.8s-7.9 15.7-16.8 15.3l-71.1-3.2c-8.9-0.4-15.7-7.9-15.3-16.8z"/>
  <rect class="st5" transform="matrix(.04494 -.999 .999 .04494 1199 1618)" x="1430" y="179.3" width="32.1" height="4.8"/>
  <rect class="st5" transform="matrix(.04494 -.999 .999 .04494 1142 1553)" x="1367" y="176.5" width="32.1" height="4.8"/>
  <rect transform="matrix(.5333 -.8459 .8459 .5333 261.3 1504)" x="1477" y="506.9" width="34.1" height="16.9"/>
  <ellipse class="st2" transform="matrix(.4135 -.9105 .9105 .4135 491.3 1662)" cx="1536" cy="449.5" rx="64.6" ry="72.7"/>
  <ellipse class="st3" transform="matrix(.5936 -.8048 .8048 .5936 262.3 1418)" cx="1536" cy="449.5" rx="53.2" ry="59.9"/>
  <ellipse class="st4" transform="matrix(.05203 -.9986 .9986 .05203 1037 2005)" cx="1574" cy="456.2" rx="14.7" ry="8.5"/>
  <path class="st2" d="m1425 624.7c-8.5-5.4-11.1-16.6-5.7-25.2l43.1-68.3c5.4-8.5 16.6-11.1 25.2-5.7 8.5 5.4 11.1 16.6 5.7 25.2l-43.1 68.3c-5.4 8.5-16.7 11.1-25.2 5.7z"/>
  <rect class="st5" transform="matrix(.5333 -.8459 .8459 .5333 227.4 1502)" x="1472" y="526.8" width="5.4" height="36.5"/>
  <rect class="st5" transform="matrix(.5333 -.8459 .8459 .5333 158.8 1498)" x="1435" y="587" width="5.4" height="36.5"/>
  <rect transform="matrix(.567 -.8237 .8237 .567 428.5 1518)" x="1650" y="336.2" width="15" height="30.2"/>
  <ellipse class="st2" transform="matrix(.4499 -.8931 .8931 .4499 594.7 1746)" cx="1715" cy="390.4" rx="64.3" ry="57.2"/>
  <ellipse class="st3" transform="matrix(.6255 -.7802 .7802 .6255 337.5 1484)" cx="1715" cy="390.4" rx="53" ry="47.1"/>
  <ellipse class="st4" transform="matrix(.09227 -.9957 .9957 .09227 1127 2086)" cx="1707" cy="424.6" rx="7.5" ry="13"/>
  <path class="st2" d="m1564 286.4c5.1-7.3 15.1-9.2 22.5-4.1l58.9 40.6c7.3 5.1 9.2 15.1 4.1 22.5-5.1 7.3-15.1 9.2-22.5 4.1l-58.9-40.6c-7.3-5.1-9.1-15.2-4.1-22.5z"/>
  <rect class="st5" transform="matrix(.567 -.8237 .8237 .567 432 1489)" x="1616" y="331.2" width="32.3" height="4.8"/>
  <rect class="st5" transform="matrix(.567 -.8237 .8237 .567 438.9 1431)" x="1564" y="295.5" width="32.3" height="4.8"/>
  <rect transform="matrix(.8712 -.4909 .4909 .8712 162.1 703.9)" x="1412" y="37.5" width="21.9" height="10.9"/>
  <ellipse class="st2" transform="matrix(.7964 -.6047 .6047 .7964 239.9 847.6)" cx="1379" cy="67.5" rx="41.6" ry="46.7"/>
  <ellipse class="st3" transform="matrix(.9047 -.4261 .4261 .9047 102.7 594)" cx="1379" cy="67.5" rx="34.2" ry="38.5"/>
  <ellipse class="st4" transform="matrix(.5203 -.854 .854 .5203 607.7 1185)" cx="1359" cy="51.8" rx="9.4" ry="5.5"/>
  <path class="st2" d="m1495 2.1c3.2 5.6 1.2 12.8-4.5 16l-45.2 25.5c-5.6 3.2-12.8 1.2-16-4.5-3.2-5.6-1.2-12.8 4.5-16l45.2-25.4c5.6-3.2 12.8-1.2 16 4.4z"/>
  <rect class="st5" transform="matrix(.8712 -.4909 .4909 .8712 170.1 712.1)" x="1440" y="20.1" width="3.5" height="23.5"/>
  <rect class="st5" transform="matrix(.8712 -.4909 .4909 .8712 186.3 728.8)" x="1480" y="-2.3" width="3.5" height="23.5"/>
  <rect transform="matrix(.493 -.87 .87 .493 827.5 1388)" x="1589" y="-24" width="32.1" height="15.9"/>
  <ellipse class="st2" transform="matrix(.3703 -.9289 .9289 .3703 1108 1474)" cx="1641" cy="-79.8" rx="60.9" ry="68.5"/>
  <ellipse class="st3" transform="matrix(.5551 -.8318 .8318 .5551 796.4 1330)" cx="1641" cy="-79.8" rx="50.2" ry="56.4"/>
  <ellipse class="st4" transform="matrix(.005103 -1 1 .005103 1745 1603)" cx="1678" cy="-75.2" rx="13.8" ry="8"/>
  <path class="st2" d="m1545 90c-8.3-4.7-11.2-15.2-6.5-23.4l37.5-66.2c4.7-8.3 15.2-11.2 23.4-6.5 8.3 4.7 11.2 15.2 6.5 23.4l-37.5 66.2c-4.6 8.3-15.1 11.2-23.4 6.5z"/>
  <rect class="st5" transform="matrix(.493 -.87 .87 .493 794.2 1389)" x="1586" y="-4.4" width="5.1" height="34.4"/>
  <rect class="st5" transform="matrix(.493 -.87 .87 .493 726.7 1389)" x="1553" y="53.9" width="5.1" height="34.4"/>
  <rect transform="matrix(.9232 -.3843 .3843 .9232 -19.41 549.3)" x="1351" y="316.4" width="27.5" height="13.7"/>
  <ellipse class="st2" transform="matrix(.8625 -.5061 .5061 .8625 44.31 761.3)" cx="1423" cy="299.2" rx="52.2" ry="58.7"/>
  <ellipse class="st3" transform="matrix(.9488 -.316 .316 .9488 -21.63 464.9)" cx="1423" cy="299.2" rx="43" ry="48.3"/>
  <ellipse class="st4" transform="matrix(.6178 -.7864 .7864 .6178 299.6 1260)" cx="1446" cy="321.7" rx="11.9" ry="6.9"/>
  <path class="st2" d="m1268 363.4c-3.1-7.5 0.4-16.1 7.9-19.3l60.2-25.1c7.5-3.1 16.1 0.4 19.3 7.9 3.1 7.5-0.4 16.1-7.9 19.3l-60.2 25.1c-7.5 3.1-16.1-0.4-19.3-7.9z"/>
  <rect class="st5" transform="matrix(.9232 -.3843 .3843 .9232 -25.61 540.1)" x="1337" y="319.4" width="4.4" height="29.5"/>
  <rect class="st5" transform="matrix(.9232 -.3843 .3843 .9232 -38.16 521.4)" x="1284" y="341.5" width="4.4" height="29.5"/>
  <rect transform="matrix(.5042 -.8636 .8636 .5042 231.9 1321)" x="1260" y="445.8" width="12.5" height="25.1"/>
  <ellipse class="st2" transform="matrix(.3822 -.9241 .9241 .3822 362.4 1517)" cx="1316" cy="487.4" rx="53.6" ry="47.7"/>
  <ellipse class="st3" transform="matrix(.5658 -.8246 .8246 .5658 169.4 1296)" cx="1316" cy="487.4" rx="44.2" ry="39.3"/>
  <ellipse class="st4" transform="matrix(.01797 -.9998 .9998 .01797 771.9 1818)" cx="1312" cy="516.3" rx="6.3" ry="10.8"/>
  <path class="st2" d="m1184 410.2c3.7-6.4 12-8.6 18.4-4.8l51.5 30.1c6.4 3.7 8.6 12 4.8 18.4-3.7 6.4-12 8.6-18.4 4.8l-51.5-30.1c-6.4-3.7-8.5-11.9-4.8-18.4z"/>
  <rect class="st5" transform="matrix(.5042 -.8636 .8636 .5042 232.1 1295)" x="1230" y="443.3" width="26.9" height="4"/>
  <rect class="st5" transform="matrix(.5042 -.8636 .8636 .5042 232.4 1242)" x="1185" y="416.8" width="26.9" height="4"/>
  <rect transform="matrix(.7119 -.7023 .7023 .7119 290.8 771.6)" x="1075" y="26" width="21.4" height="10.7"/>
  <ellipse class="st2" transform="matrix(.6099 -.7925 .7925 .6099 439.6 887.1)" cx="1121" cy="-3" rx="40.7" ry="45.8"/>
  <ellipse class="st3" transform="matrix(.7612 -.6486 .6486 .7612 269.6 726.2)" cx="1121" cy="-3" rx="33.5" ry="37.7"/>
  <ellipse class="st4" transform="matrix(.278 -.9606 .9606 .278 819.4 1103)" cx="1144" cy="6.7" rx="9.2" ry="5.4"/>
  <path class="st2" d="m1028 88.6c-4.5-4.5-4.4-11.8 0.1-16.2l36.2-35.7c4.5-4.5 11.8-4.4 16.2 0.1 4.5 4.5 4.4 11.8-0.1 16.2l-36.2 35.7c-4.5 4.4-11.8 4.4-16.2-0.1z"/>
  <rect class="st5" transform="matrix(.7119 -.7023 .7023 .7119 275.4 765.1)" x="1068" y="35.4" width="3.4" height="23"/>
  <rect class="st5" transform="matrix(.7119 -.7023 .7023 .7119 244.1 751.7)" x="1036" y="66.9" width="3.4" height="23"/>
  <rect transform="matrix(.8073 -.5901 .5901 .8073 -10.29 705.4)" x="1059" y="360.7" width="31.3" height="15.6"/>
  <ellipse class="st2" transform="matrix(.7197 -.6943 .6943 .7197 91 878)" cx="1133" cy="326.3" rx="59.4" ry="66.8"/>
  <ellipse class="st3" transform="matrix(.8482 -.5297 .5297 .8482 -.869 649.6)" cx="1133" cy="326.3" rx="48.9" ry="55"/>
  <ellipse class="st4" transform="matrix(.4161 -.9093 .9093 .4161 365.7 1260)" cx="1164" cy="345.2" rx="13.5" ry="7.8"/>
  <path class="st2" d="m979.1 438.6c-5.5-7.5-3.8-18 3.6-23.4l59.9-43.8c7.5-5.5 18-3.8 23.4 3.6 5.5 7.5 3.8 18-3.6 23.4l-59.9 43.8c-7.5 5.5-18 3.9-23.4-3.6z"/>
  <rect class="st5" transform="matrix(.8073 -.5901 .5901 .8073 -26.55 693.7)" x="1046" y="370.7" width="5" height="33.5"/>
  <rect class="st5" transform="matrix(.8073 -.5901 .5901 .8073 -59.49 669.9)" x="993.7" y="409.3" width="5" height="33.5"/>
  <rect transform="matrix(.6707 -.7418 .7418 .6707 -55.38 886.2)" x="965.3" y="495.4" width="10.1" height="20.3"/>
  <ellipse class="st2" transform="matrix(.5637 -.826 .826 .5637 -4.84 1064)" cx="1005" cy="536.6" rx="43.2" ry="38.5"/>
  <ellipse class="st3" transform="matrix(.7229 -.6909 .6909 .7229 -92.37 842.8)" cx="1005" cy="536.6" rx="35.6" ry="31.7"/>
  <ellipse class="st4" transform="matrix(.2227 -.9749 .9749 .2227 230.1 1406)" cx="996.8" cy="558.7" rx="5.1" ry="8.7"/>
  <path class="st2" d="m913.3 453.9c4-4.4 10.9-4.8 15.3-0.8l35.7 32.2c4.4 4 4.8 10.9 0.8 15.3s-10.9 4.8-15.3 0.8l-35.7-32.2c-4.5-4-4.8-10.9-0.8-15.3z"/>
  <rect class="st5" transform="matrix(.6707 -.7418 .7418 .6707 -50.09 870.1)" x="944" y="489.9" width="21.7" height="3.2"/>
  <rect class="st5" transform="matrix(.6707 -.7418 .7418 .6707 -39.37 837.5)" x="912.6" y="461.5" width="21.7" height="3.2"/>
  <rect transform="matrix(.9472 -.3207 .3207 .9472 54.34 287.1)" x="886.7" y="-27.3" width="23.7" height="11.8"/>
  <ellipse class="st2" transform="matrix(.8948 -.4465 .4465 .8948 90.94 377.8)" cx="847.2" cy="-4.1" rx="45" ry="50.6"/>
  <ellipse class="st3" transform="matrix(.968 -.2509 .2509 .968 28.12 212.4)" cx="847.2" cy="-4.1" rx="37.1" ry="41.7"/>
  <ellipse class="st4" transform="matrix(.6697 -.7426 .7426 .6697 292.3 607.5)" cx="829.1" cy="-24.8" rx="10.2" ry="5.9"/>
  <path class="st2" d="m983.9-50.3c2.3 6.6-1.3 13.9-8 16.1l-53.3 18.1c-6.6 2.3-13.9-1.3-16.1-8-2.3-6.6 1.3-13.9 8-16.1l53.3-18.1c6.7-2.2 13.9 1.4 16.1 8z"/>
  <rect class="st5" transform="matrix(.9472 -.3207 .3207 .9472 58.08 294.1)" x="919.9" y="-42" width="3.8" height="25.4"/>
  <rect class="st5" transform="matrix(.9472 -.3207 .3207 .9472 65.66 308.3)" x="966.8" y="-57.9" width="3.8" height="25.4"/>
 </g>
</svg>
