<svg enable-background="new 0 0 1600 500" version="1.1" viewBox="0 0 1600 500" xmlns="http://www.w3.org/2000/svg">
 <style type="text/css">.st0{fill-rule:evenodd;clip-rule:evenodd;fill:#E2DCFE;}
	.st1{fill:#B8AEFF;}
	.st2{fill:#BC83FB;}
	.st3{fill:#975CD6;}
	.st4{fill:#F7F7F7;}
	.st5{fill:#E2DCFE;}
	.st6{fill:#5D4DC4;}
	.st7{fill:#413296;}
	.st8{fill:#8D7CF7;}</style>
 <path class="st0" d="m1600 24.8v428.5c0 8.3-4.1 15.7-10.3 20.2-2.4 1.7-5.8 0.9-6.9-1.9-3.9-9.7-16.4-16.8-31.2-16.8-9.5 0-18 2.9-23.9 7.6-1.9 1.5-4.6 1.3-6.2-0.6-7.7-8.7-21.2-14.5-36.7-14.5-13.9 0-26.4 4.7-34.3 12-1.8 1.7-4.7 1.5-6.4-0.3-9.3-10.1-25.8-16.8-44.6-16.8-27.1 0-49.3 13.9-52.4 31.7-0.4 2.4-2.5 4.1-4.9 4.1h-1317c-13.9 0.2-25-10.9-25-24.6v-428.6c0-13.7 11.1-24.8 24.8-24.8h1550c13.8 0 24.9 11.1 24.9 24.8z"/>
 <ellipse class="st0" cx="1484" cy="478.7" rx="27.9" ry="17.2"/>
 <ellipse class="st0" cx="1552" cy="479" rx="18.6" ry="11.5"/>
 <ellipse class="st0" cx="1400" cy="479.2" rx="33.9" ry="20.8"/>
 <path class="st1" d="m537.1 429.2c0.7 8-180.9 12.1-182.4-0.5-1.4-12.6 181.7-7.5 182.4 0.5z"/>
 <path class="st2" d="m375.5 276c2.2 2 4.5 3.9 7 5.8 8.3 6.5 18.2 12.8 29.5 18.5 0.9 0.4 1.9 0 2.3-0.9 14.6-40.7 11.9-90-30.1-106.5-4.5 1.8-8.5 3.8-12.1 6-31.2 19-27.1 49.8 3.4 77.1z"/>
 <path class="st3" d="m375.5 276c2.2 2 4.5 3.9 7 5.8 8.3 6.5 18.2 12.8 29.5 18.5 0.9 0.4 1.9 0 2.3-0.9 14.6-40.7 11.9-90-30.1-106.5-4.5 1.8-8.5 3.8-12.1 6 25.3 38 12 65.4 3.4 77.1z"/>
 <path class="st3" d="m468.6 294.4c0.5 0.9 1.8 1.1 2.5 0.4 10.1-9.2 18.5-18.8 24.9-28.3 21.1-31.2 21.6-61.7-3.2-76.4-3.8-2.3-8.3-4.2-13.4-5.6-38.3 23.5-32.3 72.4-10.8 109.9z"/>
 <path class="st2" d="m496.1 266.5c21.1-31.2 21.6-61.7-3.2-76.4-18.8 44.1-8.3 65.9 3.2 76.4z"/>
 <path class="st4" d="m404.7 409.6c14.7 25.7 60.1 29.9 74.8-2.4 1-2.2 4-2.2 5.1-0.1 10.6 20.7 37.7 26 52.6 8.4 16.4-19.4 2-64.5-56.6-83.9 10.5-4 15.7-25.1-8.6-33.6-0.8-0.3-0.8-1.5 0-1.8 11.5-4.1 17.6-19.3-0.1-24.9-1.5-0.5-3.1-0.9-5-1.2 12.6-26.6-17.4-21.6-48-6.9-13.2 2-32.3 10.5-28 38 1.5 9.5 5.7 21.3 13.9 35.8-26-14.8-52 21-21.5 41.2-42.9 14.9-16.5 65.4 17 30.7 1.2-1.3 3.4-1 4.4 0.7z"/>
 <path class="st5" d="m390.8 301.3c10.1 0.7 22.5-2.9 27.9-22.8 10 26.5 36.9 38.1 53.2-7.2-1.5-0.5-3.1-0.9-5-1.2 16.4-27.5-22.6-36-53.3-21.3-13.2 6.4-27.1 24.9-22.8 52.5z"/>
 <ellipse class="st4" transform="matrix(.9022 -.4312 .4312 .9022 -143.3 215.2)" cx="403" cy="423.6" rx="6.9" ry="8.5"/>
 <ellipse class="st4" transform="matrix(.3622 -.9321 .9321 .3622 -35.46 786.7)" cx="557.1" cy="419.2" rx="7.7" ry="11.6"/>
 <ellipse class="st4" transform="matrix(.8745 -.485 .485 .8745 -158.9 242.1)" cx="388.4" cy="428.2" rx="4.1" ry="3.5"/>
 <path class="st6" d="m391.9 219.5c1.4 5.2 2.8 10.4 3.9 15.5 4.3 19.1 79.2 13.8 79.9-8.4 0.1-4.7 0.5-9.6 1-14.7v-0.3c3.6-38.5 13.9-87.8-11-125-9.5-14.2-24.1-26.6-46.1-36.1-2.2-0.9-4.7-0.7-6.6 0.7-11.6 8.3-20.2 17-26.4 26.2-3.8 5.5-6.7 11.2-8.9 17-0.9 2.3-1.6 4.6-2.3 6.9-1 3.6-1.8 7.1-2.3 10.8-5.2 34.5 9.1 72 18.8 107.4z"/>
 <path class="st7" d="m375.3 101.4c17.2 15.1 90.3 8.6 90.3-14.8l-79.2-9.1c-3.8 5.5-6.7 11.2-8.9 17-0.7 2.3-1.5 4.6-2.2 6.9z"/>
 <path class="st8" d="m377.6 94.5c6.2 16.9 84.1 9.2 88-7.9-9.5-14.2-24.1-26.6-46.1-36.1-2.2-0.9-4.7-0.7-6.6 0.7-18.5 13.3-29.4 27.9-35.3 43.3z"/>
 <ellipse class="st7" transform="matrix(.01721 -.9999 .9999 .01721 264.4 577.9)" cx="426.2" cy="154.5" rx="30" ry="31.3"/>
 <ellipse class="st2" transform="matrix(.9982 -.06039 .06039 .9982 -8.339 26.09)" cx="427.5" cy="151" rx="30.6" ry="27.3"/>
 <path class="st5" d="m420 169.6c1.7 0.6 3.4 1 5.3 1.3 4 0.5 7.8 0.1 11.3-1.2 7.1-2.6 12.4-8.4 13.2-15.9 1.2-11-7.7-21.2-20-22.7-12.3-1.6-23.3 6-24.5 17-1.1 9.4 5.2 18.1 14.7 21.5z"/>
 <path class="st7" d="m391.9 219.5c1.4 5.2 2.8 10.4 3.9 15.5 4.3 19.1 79.2 13.8 79.9-8.4 0.1-4.7 0.5-9.6 1-14.7-2 14.8-81.5 19.3-84.8 7.6z"/>
 <path class="st2" d="m435.5 190.4c19.9 31.2 12.1 90.3 9.3 107.1-0.3 1.5-2.3 1.9-3 0.5-19.1-35.4-11.7-51.3-11.7-51.3l4.7-0.3c1.1-0.1 1.9-1 1.8-2.1-2-23.2-2.6-45.6-2.8-53.4 0-0.9 1.2-1.3 1.7-0.5z"/>
 <ellipse class="st4" transform="matrix(.9997 -.02438 .02438 .9997 -9.054 9.002)" cx="364.6" cy="375.8" rx="5.9" ry="5"/>
 <path class="st8" d="m391.9 219.5s21.9-29.5-12.8-65.1c0 0 9.2-29.3-6.1-42.3-5.1 34.5 9.2 72 18.9 107.4z"/>
 <ellipse class="st1" transform="matrix(.5264 -.8503 .8503 .5264 122 376.9)" cx="399.3" cy="78.9" rx="9.8" ry="4.2"/>
 <ellipse class="st4" transform="matrix(.5362 -.8441 .8441 .5362 71.69 416.7)" cx="415" cy="143.1" rx="5.8" ry="3.7"/>
 <path class="st1" d="m419.9 169.5 0.1 0.1c1.7 0.6 3.4 1 5.3 1.3 4 0.5 7.8 0.1 11.3-1.2 0.7-0.8 1-1.4 1-1.4 2-3.4 1.9-6.3 0.7-9.2-1.8-4.6-6.2-9.3-9.2-16.4-0.3-0.8-0.7-1.6-0.9-2.4-0.3-0.8-1.4-0.7-1.6 0.1-0.1 0.5-0.3 1.1-0.5 1.6-2.5 7.4-7 12.2-8.5 17.1-1 3.2-1.1 6.4 2.3 10.4z"/>
 <path class="st1" d="m427.5 141.5c7.9 9.4 16.4 12.4 10.5 17.5s-10.5-17.5-10.5-17.5z"/>
 <path class="st1" d="m427.1 141.1c-6 8.7-15.5 13.9-9.2 18.7 6.2 4.7 9.2-18.7 9.2-18.7z"/>
 <path class="st3" d="m425.1 172.3c-1.9-0.2-3.8-0.7-5.6-1.3-10.3-3.7-16.8-13.1-15.7-23 0.6-5.3 3.3-10 7.7-13.5 5-3.9 11.7-5.7 18.4-4.8 13 1.7 22.6 12.6 21.3 24.3-0.9 7.7-6.3 14.2-14.2 17-2.7 1-5.6 1.5-8.5 1.5-1.2 0-2.3-0.1-3.4-0.2zm-11.9-35.5c-3.7 2.9-6.1 7-6.6 11.5-1 8.5 4.7 16.7 13.8 20 1.6 0.6 3.3 1 5 1.2 3.6 0.5 7.3 0.1 10.6-1.1 6.9-2.5 11.6-8.1 12.3-14.7 1.1-10.2-7.3-19.7-18.8-21.2-1-0.1-2-0.2-3-0.2-4.9 0-9.6 1.6-13.3 4.5z"/>
 <path class="st1" d="m266.3 429.2c0.7 8-180.9 12.1-182.4-0.5s181.6-7.5 182.4 0.5z"/>
 <path class="st2" d="m104.7 276c2.2 2 4.5 3.9 7 5.8 8.3 6.5 18.2 12.8 29.5 18.5 0.9 0.4 1.9 0 2.3-0.9 14.6-40.7 11.9-90-30.1-106.5-4.5 1.8-8.5 3.8-12.1 6-31.2 19-27.1 49.8 3.4 77.1z"/>
 <path class="st3" d="m104.7 276c2.2 2 4.5 3.9 7 5.8 8.3 6.5 18.2 12.8 29.5 18.5 0.9 0.4 1.9 0 2.3-0.9 14.6-40.7 11.9-90-30.1-106.5-4.5 1.8-8.5 3.8-12.1 6 25.3 38 11.9 65.4 3.4 77.1z"/>
 <path class="st3" d="m197.8 294.4c0.5 0.9 1.8 1.1 2.5 0.4 10.1-9.2 18.5-18.8 24.9-28.3 21.1-31.2 21.6-61.7-3.2-76.4-3.8-2.3-8.3-4.2-13.4-5.6-38.3 23.5-32.3 72.4-10.8 109.9z"/>
 <path class="st2" d="m225.3 266.5c21.1-31.2 21.6-61.7-3.2-76.4-18.8 44.1-8.3 65.9 3.2 76.4z"/>
 <path class="st4" d="m133.9 409.6c14.7 25.7 60.1 29.9 74.8-2.4 1-2.2 4-2.2 5.1-0.1 10.6 20.7 37.7 26 52.6 8.4 16.4-19.4 2-64.5-56.6-83.9 10.5-4 15.7-25.1-8.6-33.6-0.8-0.3-0.8-1.5 0-1.8 11.5-4.1 17.6-19.3-0.1-24.9-1.5-0.5-3.1-0.9-5-1.2 12.6-26.6-17.4-21.6-48-6.9-13.2 2-32.3 10.5-28 38 1.5 9.5 5.7 21.3 13.9 35.8-26-14.8-52 21-21.5 41.2-42.9 14.9-16.5 65.4 17 30.7 1.2-1.3 3.4-1 4.4 0.7z"/>
 <path class="st5" d="m119.9 301.3c10.1 0.7 22.5-2.9 27.9-22.8 10 26.5 36.9 38.1 53.2-7.2-1.5-0.5-3.1-0.9-5-1.2 16.4-27.5-22.6-36-53.3-21.3-13.1 6.4-27 24.9-22.8 52.5z"/>
 <ellipse class="st4" transform="matrix(.9022 -.4312 .4312 .9022 -169.7 98.43)" cx="132.2" cy="423.6" rx="6.9" ry="8.5"/>
 <ellipse class="st4" transform="matrix(.3622 -.9321 .9321 .3622 -208.2 534.2)" cx="286.3" cy="419.2" rx="7.7" ry="11.6"/>
 <ellipse class="st4" transform="matrix(.8745 -.485 .485 .8745 -192.9 110.7)" cx="117.6" cy="428.2" rx="4.1" ry="3.5"/>
 <path class="st6" d="m121 219.5c1.4 5.2 2.8 10.4 3.9 15.5 4.3 19.1 79.2 13.8 79.9-8.4 0.1-4.7 0.5-9.6 1-14.7v-0.3c3.6-38.5 13.9-87.8-11-125-9.5-14.2-24.1-26.6-46.1-36.1-2.2-0.9-4.7-0.7-6.6 0.7-11.6 8.3-20.2 17-26.4 26.2-3.8 5.5-6.7 11.2-8.9 17-0.9 2.3-1.6 4.6-2.3 6.9-1 3.6-1.8 7.1-2.3 10.8-5.1 34.5 9.2 72 18.8 107.4z"/>
 <path class="st7" d="m104.5 101.4c17.2 15.1 90.3 8.6 90.3-14.8l-79.2-9.1c-3.8 5.5-6.7 11.2-8.9 17-0.8 2.3-1.5 4.6-2.2 6.9z"/>
 <path class="st8" d="m106.8 94.5c6.2 16.9 84.1 9.2 88-7.9-9.5-14.2-24.1-26.6-46.1-36.1-2.2-0.9-4.7-0.7-6.6 0.7-18.5 13.3-29.4 27.9-35.3 43.3z"/>
 <ellipse class="st7" transform="matrix(.01721 -.9999 .9999 .01721 -1.783 307.1)" cx="155.3" cy="154.5" rx="30" ry="31.3"/>
 <ellipse class="st2" transform="matrix(.9982 -.06039 .06039 .9982 -8.833 9.738)" cx="156.7" cy="151" rx="30.6" ry="27.3"/>
 <path class="st5" d="m149.2 169.6c1.7 0.6 3.4 1 5.3 1.3 4 0.5 7.8 0.1 11.3-1.2 7.1-2.6 12.4-8.4 13.2-15.9 1.2-11-7.7-21.2-20-22.7-12.3-1.6-23.3 6-24.5 17-1.1 9.4 5.2 18.1 14.7 21.5z"/>
 <path class="st7" d="m121 219.5c1.4 5.2 2.8 10.4 3.9 15.5 4.3 19.1 79.2 13.8 79.9-8.4 0.1-4.7 0.5-9.6 1-14.7-1.9 14.8-81.4 19.3-84.8 7.6z"/>
 <path class="st2" d="m164.6 190.4c19.9 31.2 12.1 90.3 9.3 107.1-0.3 1.5-2.3 1.9-3 0.5-19.1-35.4-11.7-51.3-11.7-51.3l4.7-0.3c1.1-0.1 1.9-1 1.8-2.1-2-23.2-2.6-45.6-2.8-53.4 0.1-0.9 1.3-1.3 1.7-0.5z"/>
 <ellipse class="st4" transform="matrix(.9997 -.02438 .02438 .9997 -9.135 2.398)" cx="93.8" cy="375.8" rx="5.9" ry="5"/>
 <path class="st8" d="m121 219.5s21.9-29.5-12.8-65.1c0 0 9.2-29.3-6.1-42.3-5 34.5 9.3 72 18.9 107.4z"/>
 <ellipse class="st1" transform="matrix(.5264 -.8503 .8503 .5264 -6.254 146.6)" cx="128.4" cy="78.9" rx="9.8" ry="4.2"/>
 <ellipse class="st4" transform="matrix(.5362 -.8441 .8441 .5362 -53.9 188.1)" cx="144.2" cy="143.1" rx="5.8" ry="3.7"/>
 <path class="st1" d="m149 169.5 0.1 0.1c1.7 0.6 3.4 1 5.3 1.3 4 0.5 7.8 0.1 11.3-1.2 0.7-0.8 1-1.4 1-1.4 2-3.4 1.9-6.3 0.7-9.2-1.8-4.6-6.2-9.3-9.2-16.4-0.3-0.8-0.7-1.6-0.9-2.4-0.3-0.8-1.4-0.7-1.6 0.1-0.1 0.5-0.3 1.1-0.5 1.6-2.5 7.4-7 12.2-8.5 17.1-0.9 3.2-1 6.4 2.3 10.4z"/>
 <path class="st1" d="m156.7 141.5c7.9 9.4 16.4 12.4 10.5 17.5-6 5.2-10.5-17.5-10.5-17.5z"/>
 <path class="st1" d="m156.2 141.1c-6 8.7-15.5 13.9-9.2 18.7 6.3 4.7 9.2-18.7 9.2-18.7z"/>
 <path class="st3" d="m154.3 172.3c-1.9-0.2-3.8-0.7-5.6-1.3-10.3-3.7-16.8-13.1-15.7-23 0.6-5.3 3.3-10 7.7-13.5 5-3.9 11.7-5.7 18.4-4.8 13 1.7 22.6 12.6 21.3 24.3-0.9 7.7-6.3 14.2-14.2 17-2.7 1-5.6 1.5-8.5 1.5-1.2 0-2.3-0.1-3.4-0.2zm-11.9-35.5c-3.7 2.9-6.1 7-6.6 11.5-1 8.5 4.7 16.7 13.8 20 1.6 0.6 3.3 1 5 1.2 3.6 0.5 7.3 0.1 10.6-1.1 6.9-2.5 11.6-8.1 12.3-14.7 1.1-10.2-7.3-19.7-18.8-21.2-1-0.1-2-0.2-3-0.2-4.9 0-9.6 1.6-13.3 4.5z"/>
 <path class="st1" d="m1059 429.2c-0.7 8 180.9 12.1 182.4-0.5 1.4-12.6-181.7-7.5-182.4 0.5z"/>
 <path class="st2" d="m1220 276c-2.2 2-4.5 3.9-7 5.8-8.3 6.5-18.2 12.8-29.5 18.5-0.9 0.4-1.9 0-2.3-0.9-14.6-40.7-11.9-90 30.1-106.5 4.5 1.8 8.5 3.8 12.1 6 31.2 19 27.1 49.8-3.4 77.1z"/>
 <path class="st3" d="m1220 276c-2.2 2-4.5 3.9-7 5.8-8.3 6.5-18.2 12.8-29.5 18.5-0.9 0.4-1.9 0-2.3-0.9-14.6-40.7-11.9-90 30.1-106.5 4.5 1.8 8.5 3.8 12.1 6-25.3 38-12 65.4-3.4 77.1z"/>
 <path class="st3" d="m1127 294.4c-0.5 0.9-1.8 1.1-2.5 0.4-10.1-9.2-18.5-18.8-24.9-28.3-21.1-31.2-21.6-61.7 3.2-76.4 3.8-2.3 8.3-4.2 13.4-5.6 38.3 23.5 32.3 72.4 10.8 109.9z"/>
 <path class="st2" d="m1100 266.5c-21.1-31.2-21.6-61.7 3.2-76.4 18.8 44.1 8.3 65.9-3.2 76.4z"/>
 <path class="st4" d="m1191 409.6c-14.7 25.7-60.1 29.9-74.8-2.4-1-2.2-4-2.2-5.1-0.1-10.6 20.7-37.7 26-52.6 8.4-16.4-19.4-2-64.5 56.6-83.9-10.5-4-15.7-25.1 8.6-33.6 0.8-0.3 0.8-1.5 0-1.8-11.5-4.1-17.6-19.3 0.1-24.9 1.5-0.5 3.1-0.9 5-1.2-12.6-26.6 17.4-21.6 48-6.9 13.2 2 32.3 10.5 28 38-1.5 9.5-5.7 21.3-13.9 35.8 26-14.8 52 21 21.5 41.2 42.9 14.9 16.5 65.4-17 30.7-1.2-1.3-3.4-1-4.4 0.7z"/>
 <path class="st5" d="m1205 301.3c-10.1 0.7-22.5-2.9-27.9-22.8-10 26.5-36.9 38.1-53.2-7.2 1.5-0.5 3.1-0.9 5-1.2-16.4-27.5 22.6-36 53.3-21.3 13.2 6.4 27.1 24.9 22.8 52.5z"/>
 <ellipse class="st4" transform="matrix(.4312 -.9022 .9022 .4312 296.2 1317)" cx="1193" cy="423.6" rx="8.5" ry="6.9"/>
 <ellipse class="st4" transform="matrix(.9321 -.3622 .3622 .9321 -81.33 404.7)" cx="1039" cy="419.2" rx="11.6" ry="7.7"/>
 <ellipse class="st4" transform="matrix(.485 -.8745 .8745 .485 247.3 1276)" cx="1207" cy="428.2" rx="3.5" ry="4.1"/>
 <path class="st6" d="m1204 219.5c-1.4 5.2-2.8 10.4-3.9 15.5-4.3 19.1-79.2 13.8-79.9-8.4-0.1-4.7-0.5-9.6-1-14.7v-0.3c-3.6-38.5-13.9-87.8 11-125 9.5-14.2 24.1-26.6 46.1-36.1 2.2-0.9 4.7-0.7 6.6 0.7 11.6 8.3 20.2 17 26.4 26.2 3.8 5.5 6.7 11.2 8.9 17 0.9 2.3 1.6 4.6 2.3 6.9 1 3.6 1.8 7.1 2.3 10.8 5.2 34.5-9.1 72-18.8 107.4z"/>
 <path class="st7" d="m1220 101.4c-17.2 15.1-90.3 8.6-90.3-14.8l79.2-9.1c3.8 5.5 6.7 11.2 8.9 17 0.7 2.3 1.5 4.6 2.2 6.9z"/>
 <path class="st8" d="m1218 94.5c-6.2 16.9-84.1 9.2-88-7.9 9.5-14.2 24.1-26.6 46.1-36.1 2.2-0.9 4.7-0.7 6.6 0.7 18.4 13.3 29.4 27.9 35.3 43.3z"/>
 <ellipse class="st7" transform="matrix(.9999 -.01721 .01721 .9999 -2.485 20.15)" cx="1170" cy="154.5" rx="31.3" ry="30"/>
 <ellipse class="st2" transform="matrix(.06039 -.9982 .9982 .06039 946.9 1308)" cx="1168" cy="151" rx="27.3" ry="30.6"/>
 <path class="st5" d="m1176 169.6c-1.7 0.6-3.4 1-5.3 1.3-4 0.5-7.8 0.1-11.3-1.2-7.1-2.6-12.4-8.4-13.2-15.9-1.2-11 7.7-21.2 20-22.7 12.3-1.6 23.3 6 24.5 17 1.1 9.4-5.2 18.1-14.7 21.5z"/>
 <path class="st7" d="m1204 219.5c-1.4 5.2-2.8 10.4-3.9 15.5-4.3 19.1-79.2 13.8-79.9-8.4-0.1-4.7-0.5-9.6-1-14.7 1.9 14.8 81.5 19.3 84.8 7.6z"/>
 <path class="st2" d="m1160 190.4c-19.9 31.2-12.1 90.3-9.3 107.1 0.3 1.5 2.3 1.9 3 0.5 19.1-35.4 11.7-51.3 11.7-51.3l-4.7-0.3c-1.1-0.1-1.9-1-1.8-2.1 2-23.2 2.6-45.6 2.8-53.4 0-0.9-1.2-1.3-1.7-0.5z"/>
 <ellipse class="st4" transform="matrix(.02438 -.9997 .9997 .02438 825.4 1597)" cx="1231" cy="375.8" rx="5" ry="5.9"/>
 <path class="st8" d="m1204 219.5s-21.9-29.5 12.8-65.1c0 0-9.2-29.3 6.1-42.3 5.1 34.5-9.2 72-18.9 107.4z"/>
 <ellipse class="st1" transform="matrix(.8503 -.5264 .5264 .8503 137.6 641.6)" cx="1196" cy="78.9" rx="4.2" ry="9.8"/>
 <ellipse class="st4" transform="matrix(.8441 -.5362 .5362 .8441 107.4 655.4)" cx="1181" cy="143.1" rx="3.7" ry="5.8"/>
 <path class="st1" d="m1176 169.5-0.1 0.1c-1.7 0.6-3.4 1-5.3 1.3-4 0.5-7.8 0.1-11.3-1.2-0.7-0.8-1-1.4-1-1.4-2-3.4-1.9-6.3-0.7-9.2 1.8-4.6 6.2-9.3 9.2-16.4 0.3-0.8 0.7-1.6 0.9-2.4 0.3-0.8 1.4-0.7 1.6 0.1 0.1 0.5 0.3 1.1 0.5 1.6 2.5 7.4 7 12.2 8.5 17.1 1 3.2 1.1 6.4-2.3 10.4z"/>
 <path class="st1" d="m1168 141.5c-7.9 9.4-16.4 12.4-10.5 17.5 6 5.2 10.5-17.5 10.5-17.5z"/>
 <path class="st1" d="m1169 141.1c6 8.7 15.5 13.9 9.2 18.7-6.2 4.7-9.2-18.7-9.2-18.7z"/>
 <path class="st3" d="m1167 172.5c-2.9 0-5.8-0.5-8.5-1.5-7.9-2.8-13.3-9.3-14.2-17-1.3-11.7 8.2-22.6 21.3-24.3 6.7-0.9 13.4 0.9 18.4 4.8 4.3 3.4 7.1 8.2 7.7 13.5 1.1 9.8-5.3 19.3-15.7 23-1.8 0.6-3.7 1.1-5.6 1.3-1.1 0.1-2.3 0.2-3.4 0.2zm1.9-40.2c-1 0-2 0.1-3 0.2-11.5 1.5-20 11-18.8 21.2 0.7 6.6 5.5 12.2 12.3 14.7 3.3 1.2 7 1.6 10.6 1.1 1.7-0.2 3.4-0.6 5-1.2 9.1-3.2 14.8-11.5 13.8-20-0.5-4.5-2.8-8.6-6.6-11.5-3.6-2.9-8.3-4.5-13.3-4.5z"/>
 <path class="st1" d="m1329 429.2c-0.7 8 180.9 12.1 182.4-0.5s-181.7-7.5-182.4 0.5z"/>
 <path class="st2" d="m1491 276c-2.2 2-4.5 3.9-7 5.8-8.3 6.5-18.2 12.8-29.5 18.5-0.9 0.4-1.9 0-2.3-0.9-14.6-40.7-11.9-90 30.1-106.5 4.5 1.8 8.5 3.8 12.1 6 31.2 19 27.1 49.8-3.4 77.1z"/>
 <path class="st3" d="m1491 276c-2.2 2-4.5 3.9-7 5.8-8.3 6.5-18.2 12.8-29.5 18.5-0.9 0.4-1.9 0-2.3-0.9-14.6-40.7-11.9-90 30.1-106.5 4.5 1.8 8.5 3.8 12.1 6-25.3 38-11.9 65.4-3.4 77.1z"/>
 <path class="st3" d="m1398 294.4c-0.5 0.9-1.8 1.1-2.5 0.4-10.1-9.2-18.5-18.8-24.9-28.3-21.1-31.2-21.6-61.7 3.2-76.4 3.8-2.3 8.3-4.2 13.4-5.6 38.3 23.5 32.3 72.4 10.8 109.9z"/>
 <path class="st2" d="m1370 266.5c-21.1-31.2-21.6-61.7 3.2-76.4 18.8 44.1 8.3 65.9-3.2 76.4z"/>
 <path class="st4" d="m1462 409.6c-14.7 25.7-60.1 29.9-74.8-2.4-1-2.2-4-2.2-5.1-0.1-10.6 20.7-37.7 26-52.6 8.4-16.4-19.4-2-64.5 56.6-83.9-10.5-4-15.7-25.1 8.6-33.6 0.8-0.3 0.8-1.5 0-1.8-11.5-4.1-17.6-19.3 0.1-24.9 1.5-0.5 3.1-0.9 5-1.2-12.6-26.6 17.4-21.6 48-6.9 13.2 2 32.3 10.5 28 38-1.5 9.5-5.7 21.3-13.9 35.8 26-14.8 52 21 21.5 41.2 42.9 14.9 16.5 65.4-17 30.7-1.2-1.3-3.4-1-4.4 0.7z"/>
 <path class="st5" d="m1476 301.3c-10.1 0.7-22.5-2.9-27.9-22.8-10 26.5-36.9 38.1-53.2-7.2 1.5-0.5 3.1-0.9 5-1.2-16.4-27.5 22.6-36 53.3-21.3 13.1 6.4 27 24.9 22.8 52.5z"/>
 <ellipse class="st4" transform="matrix(.4312 -.9022 .9022 .4312 450.2 1561)" cx="1464" cy="423.6" rx="8.5" ry="6.9"/>
 <ellipse class="st4" transform="matrix(.9321 -.3622 .3622 .9321 -62.94 502.8)" cx="1309" cy="419.2" rx="11.6" ry="7.7"/>
 <ellipse class="st4" transform="matrix(.485 -.8745 .8745 .485 386.8 1513)" cx="1478" cy="428.2" rx="3.5" ry="4.1"/>
 <path class="st6" d="m1475 219.5c-1.4 5.2-2.8 10.4-3.9 15.5-4.3 19.1-79.2 13.8-79.9-8.4-0.1-4.7-0.5-9.6-1-14.7v-0.3c-3.6-38.5-13.9-87.8 11-125 9.5-14.2 24.1-26.6 46.1-36.1 2.2-0.9 4.7-0.7 6.6 0.7 11.6 8.3 20.2 17 26.4 26.2 3.8 5.5 6.7 11.2 8.9 17 0.9 2.3 1.6 4.6 2.3 6.9 1 3.6 1.8 7.1 2.3 10.8 5.1 34.5-9.2 72-18.8 107.4z"/>
 <path class="st7" d="m1491 101.4c-17.2 15.1-90.3 8.6-90.3-14.8l79.2-9.1c3.8 5.5 6.7 11.2 8.9 17 0.8 2.3 1.5 4.6 2.2 6.9z"/>
 <path class="st8" d="m1489 94.5c-6.2 16.9-84.1 9.2-88-7.9 9.5-14.2 24.1-26.6 46.1-36.1 2.2-0.9 4.7-0.7 6.6 0.7 18.5 13.3 29.4 27.9 35.3 43.3z"/>
 <ellipse class="st7" transform="matrix(.9999 -.01721 .01721 .9999 -2.445 24.81)" cx="1440" cy="154.5" rx="31.3" ry="30"/>
 <ellipse class="st2" transform="matrix(.06039 -.9982 .9982 .06039 1201 1578)" cx="1439" cy="151" rx="27.3" ry="30.6"/>
 <path class="st5" d="m1446 169.6c-1.7 0.6-3.4 1-5.3 1.3-4 0.5-7.8 0.1-11.3-1.2-7.1-2.6-12.4-8.4-13.2-15.9-1.2-11 7.7-21.2 20-22.7 12.3-1.6 23.3 6 24.5 17 1.1 9.4-5.2 18.1-14.7 21.5z"/>
 <path class="st7" d="m1475 219.5c-1.4 5.2-2.8 10.4-3.9 15.5-4.3 19.1-79.2 13.8-79.9-8.4-0.1-4.7-0.5-9.6-1-14.7 1.9 14.8 81.4 19.3 84.8 7.6z"/>
 <path class="st2" d="m1431 190.4c-19.9 31.2-12.1 90.3-9.3 107.1 0.3 1.5 2.3 1.9 3 0.5 19.1-35.4 11.7-51.3 11.7-51.3l-4.7-0.3c-1.1-0.1-1.9-1-1.8-2.1 2-23.2 2.6-45.6 2.8-53.4 0-0.9-1.2-1.3-1.7-0.5z"/>
 <ellipse class="st4" transform="matrix(.02438 -.9997 .9997 .02438 1090 1868)" cx="1502" cy="375.8" rx="5" ry="5.9"/>
 <path class="st8" d="m1475 219.5s-21.9-29.5 12.8-65.1c0 0-9.2-29.3 6.1-42.3 5 34.5-9.3 72-18.9 107.4z"/>
 <ellipse class="st1" transform="matrix(.8503 -.5264 .5264 .8503 178.2 784.1)" cx="1467" cy="78.9" rx="4.2" ry="9.8"/>
 <ellipse class="st4" transform="matrix(.8441 -.5362 .5362 .8441 149.6 800.7)" cx="1452" cy="143.1" rx="3.7" ry="5.8"/>
 <path class="st1" d="m1447 169.5-0.1 0.1c-1.7 0.6-3.4 1-5.3 1.3-4 0.5-7.8 0.1-11.3-1.2-0.7-0.8-1-1.4-1-1.4-2-3.4-1.9-6.3-0.7-9.2 1.8-4.6 6.2-9.3 9.2-16.4 0.3-0.8 0.7-1.6 0.9-2.4 0.3-0.8 1.4-0.7 1.6 0.1 0.1 0.5 0.3 1.1 0.5 1.6 2.5 7.4 7 12.2 8.5 17.1 0.9 3.2 1 6.4-2.3 10.4z"/>
 <path class="st1" d="m1439 141.5c-7.9 9.4-16.4 12.4-10.5 17.5 6 5.2 10.5-17.5 10.5-17.5z"/>
 <path class="st1" d="m1440 141.1c6 8.7 15.5 13.9 9.2 18.7-6.3 4.7-9.2-18.7-9.2-18.7z"/>
 <path class="st3" d="m1438 172.5c-2.9 0-5.8-0.5-8.5-1.5-7.9-2.8-13.3-9.3-14.2-17-1.3-11.7 8.2-22.6 21.3-24.3 6.7-0.9 13.4 0.9 18.4 4.8 4.3 3.4 7.1 8.2 7.7 13.5 1.1 9.8-5.3 19.3-15.7 23-1.8 0.6-3.7 1.1-5.6 1.3-1.1 0.1-2.2 0.2-3.4 0.2zm2-40.2c-1 0-2 0.1-3 0.2-11.5 1.5-20 11-18.8 21.2 0.7 6.6 5.5 12.2 12.3 14.7 3.3 1.2 7 1.6 10.6 1.1 1.7-0.2 3.4-0.6 5-1.2 9.1-3.2 14.8-11.5 13.8-20-0.5-4.5-2.8-8.6-6.6-11.5-3.7-2.9-8.4-4.5-13.3-4.5z"/>
 <path class="st2" d="m894.4 391.3c-3.3 3.5-6.8 6.9-10.5 10.3-12.7 11.6-27.8 23-45.4 33.8-1.4 0.8-3.1 0.3-3.8-1.2-28.9-64-31-144.1 34.8-176.2 7.5 2.4 14.3 5.1 20.4 8.1 53 26.6 50.3 77 4.5 125.2z"/>
 <path class="st3" d="m894.4 391.3c-3.3 3.5-6.8 6.9-10.5 10.3-12.7 11.6-27.8 23-45.4 33.8-1.4 0.8-3.1 0.3-3.8-1.2-28.9-64-31-144.1 34.8-176.2 7.5 2.4 14.3 5.1 20.4 8.1-35.9 64.7-10.8 107.3 4.5 125.2z"/>
 <path class="st3" d="m746.2 433.2c-0.7 1.5-2.7 2-4 1-17.6-13.6-32.4-28-44-42.6-38.3-47.8-43-97.1-4.8-124.1 5.9-4.2 12.9-7.8 20.9-10.8 65.2 33.2 61.8 113 31.9 176.5z"/>
 <path class="st2" d="m698.1 391.6c-38.3-47.8-43-97.1-4.8-124.1 36.2 68.9 22 105.7 4.8 124.1z"/>
 <path class="st4" d="m873.3 431c0 0.5 0 1-0.1 1.6 0 0.5-0.1 1.1-0.1 1.6-0.9 12.1-4.3 26.6-11.1 44h-145.4c-3.5-12.4 1.6-28.7 24.6-38.8 1.3-0.6 1.2-2.5-0.2-2.8-10.4-2.7-18.6-11-19.5-19.8-0.8-7.5 3.7-15.3 16.5-20.5 2.4-0.9 5-1.8 7.9-2.5-14.2-24.7-2.4-33.2 20.3-31.8 2.2 0.1 4.5 0.4 6.9 0.7 9.8 1.3 21.2 4 33.1 7.9 3.6 1.2 7.3 2.4 11 3.8 1.9 0.7 3.8 1.4 5.6 2.1 17.6 1.2 42.1 8.9 48.8 36 1.3 5.2 1.9 11.4 1.7 18.5z"/>
 <path class="st5" d="m873.1 434.2c-16.2 2.5-36.8-1.8-48.1-33.3-12.7 44.1-54.8 66.4-87-4.6 2.3-0.9 5-1.8 7.9-2.6-30-42.4 32-61.2 83.4-41.3 22.2 8.5 47.1 36.6 43.8 81.8z"/>
 <path class="st6" d="m860.6 302.1c-1.6 8.6-3.1 17.2-4.3 25.6-4.4 31.5-126.4 32.6-130.4-3.3-0.8-7.6-2-15.5-3.5-23.7 0-0.1-0.1-0.3-0.1-0.4-10.8-61.9-33.9-140.3 1.5-203.7 13.5-24.2 35.5-46.3 70-64.4 3.4-1.8 7.5-1.7 10.8 0.3 19.8 11.8 34.9 24.9 46.2 39 6.8 8.4 12.2 17.2 16.6 26.3 1.7 3.6 3.2 7.2 4.6 10.9 2.1 5.6 3.8 11.3 5.1 17.1 12.8 55.2-5.4 117.7-16.5 176.3z"/>
 <path class="st7" d="m872 108.8c-25.8 26.7-145 25.7-148.1-12.1l126.9-25c6.8 8.4 12.2 17.2 16.6 26.3 1.7 3.5 3.2 7.1 4.6 10.8z"/>
 <path class="st8" d="m867.4 97.9c-7.8 28.1-134.8 25.8-143.5-1.2 13.5-24.2 35.5-46.3 70-64.4 3.4-1.8 7.5-1.7 10.8 0.3 31.5 18.9 51.2 41.1 62.7 65.3z"/>
 <ellipse class="st7" transform="matrix(.9952 -.09745 .09745 .9952 -15.82 78.6)" cx="796.7" cy="201.3" rx="50.8" ry="48.7"/>
 <ellipse class="st2" transform="matrix(.9998 -.01997 .01997 .9998 -3.752 15.9)" cx="794" cy="195.8" rx="49.7" ry="44.4"/>
 <path class="st5" d="m808.6 224.9c-2.6 1.2-5.4 2.1-8.4 2.7-6.4 1.3-12.7 1.1-18.4-0.4-11.9-3.2-21.2-12-23.5-23.9-3.4-17.6 9.8-35.2 29.5-39.4 19.7-4.1 38.4 6.8 41.9 24.4 2.9 15-6.2 29.9-21.1 36.6z"/>
 <path class="st7" d="m860.6 302.1c-1.6 8.6-3.1 17.2-4.3 25.6-4.4 31.5-126.4 32.6-130.4-3.3-0.8-7.6-2-15.5-3.5-23.7 5 23.7 134.4 20.6 138.2 1.4z"/>
 <path class="st2" d="m786.3 260.6c-28.1 53.1-7.7 147.8-1.1 174.6 0.6 2.4 4 2.7 5 0.4 26.4-59.8 12.2-84.5 12.2-84.5l-7.7 0.2c-1.8 0-3.3-1.4-3.3-3.2 0.2-37.8-1.7-74.1-2.4-86.8-0.1-1.6-2-2-2.7-0.7z"/>
 <path class="st8" d="m860.6 302.1s-39.3-45 12.2-106.9c0 0-18.7-46.3 4.3-69.2 12.8 55-5.4 117.5-16.5 176.1z"/>
 <ellipse class="st1" transform="matrix(.8052 -.5929 .5929 .8052 117 507)" cx="830.3" cy="75.5" rx="6.8" ry="15.9"/>
 <ellipse class="st4" transform="matrix(.7983 -.6023 .6023 .7983 54.79 526.4)" cx="813.2" cy="181.4" rx="5.9" ry="9.5"/>
 <path class="st1" d="m808.8 224.7c-0.1 0.1-0.1 0.2-0.2 0.2-2.6 1.2-5.4 2.1-8.4 2.7-6.4 1.3-12.7 1.1-18.4-0.4-1.2-1.2-1.8-2.1-1.8-2.1-3.6-5.2-3.8-9.9-2.4-14.7 2.3-7.7 8.8-15.8 12.8-27.8 0.4-1.3 0.8-2.6 1.2-4 0.3-1.3 2.1-1.3 2.5-0.1 0.3 0.9 0.6 1.7 1 2.5 5 11.6 12.9 18.8 16 26.6 2.1 5 2.6 10.2-2.3 17.1z"/>
 <path class="st1" d="m792.8 180.4c-11.5 16.2-24.9 22.2-14.6 29.7s14.6-29.7 14.6-29.7z"/>
 <path class="st1" d="m793.5 179.7c10.9 13.3 26.9 20.5 17.3 29s-17.3-29-17.3-29z"/>
 <path class="st3" d="m832 187.8c-1.6-8.4-6.7-15.8-14.1-20.8-8.6-5.7-19.7-7.7-30.5-5.4-20.9 4.4-34.9 23.3-31.2 42.1 2.4 12.3 12 22.2 25.2 25.7 4.5 1.2 9.2 1.6 14 1.2 1.8-0.2 3.6-0.4 5.4-0.8 3.1-0.7 6.1-1.6 8.9-2.9 16.1-7.2 25.3-23.3 22.3-39.1zm-21.1 33.4c-1 0.6-2.1 1.1-3.2 1.6-2.5 1.1-5.2 2-7.9 2.6-5.8 1.2-11.8 1.1-17.3-0.4-1.1-0.3-2.2-0.6-3.2-1-9.8-3.7-16.8-11.5-18.7-21.1-3.2-16.4 9.2-32.8 27.7-36.7 1.6-0.3 3.2-0.6 4.8-0.7 8-0.6 15.9 1.3 22.2 5.4 6.4 4.3 10.8 10.6 12.2 17.8 2.4 12.6-4.3 25.5-16.6 32.5z"/>
 <path class="st2" d="m-700.6 387c-3.5 3.1-7.1 6.2-11 9.2-13.2 10.3-28.8 20.2-46.6 29.2-1.4 0.7-3.1 0-3.6-1.5-23.1-64.4-18.8-142.2 47.5-168.2 7.1 2.9 13.5 6.1 19.1 9.5 49.3 30 42.8 78.7-5.4 121.8z"/>
 <path class="st3" d="m-700.6 387c-3.5 3.1-7.1 6.2-11 9.2-13.2 10.3-28.8 20.2-46.6 29.2-1.4 0.7-3.1 0-3.6-1.5-23.1-64.4-18.8-142.2 47.5-168.2 7.1 2.9 13.5 6.1 19.1 9.5-39.9 60-18.8 103.2-5.4 121.8z"/>
 <path class="st3" d="m-847.7 416.1c-0.8 1.4-2.8 1.7-4 0.6-16-14.6-29.2-29.7-39.4-44.7-33.4-49.4-34.1-97.6 5.1-120.7 6.1-3.6 13.1-6.6 21.1-8.9 60.7 37.2 51.2 114.4 17.2 173.7z"/>
 <path class="st2" d="m-891 372c-33.4-49.4-34.1-97.6 5.1-120.7 29.6 69.6 12.9 104.1-5.1 120.7z"/>
 <path class="st6" d="m-726.4 297.8c-2.3 8.3-4.4 16.4-6.2 24.5-6.8 30.2-125.2 21.8-126.2-13.3-0.2-7.4-0.8-15.2-1.5-23.3v-0.4c-5.7-60.9-21.9-138.7 17.4-197.5 15-22.4 38.1-42.1 72.9-57 3.4-1.5 7.4-1 10.4 1.1 18.3 13 31.9 26.9 41.8 41.5 5.9 8.7 10.5 17.7 14 26.8 1.4 3.6 2.6 7.2 3.6 10.9 1.6 5.6 2.8 11.3 3.6 17 8.1 54.5-14.5 113.7-29.8 169.7z"/>
 <path class="st7" d="m-700.3 111.1c-27.1 23.9-142.7 13.6-142.7-23.3l125.1-14.4c5.9 8.7 10.5 17.7 14 26.8 1.4 3.6 2.6 7.3 3.6 10.9z"/>
 <path class="st8" d="m-703.9 100.2c-9.8 26.7-132.8 14.5-139.1-12.4 15-22.4 38.1-42.1 72.9-57 3.4-1.5 7.4-1 10.4 1.1 29.2 20.9 46.6 43.9 55.8 68.3z"/>
 <ellipse class="st7" transform="matrix(.9999 -.01721 .01721 .9999 -3.47 -13.4)" cx="-780.6" cy="195" rx="49.4" ry="47.4"/>
 <ellipse class="st2" transform="matrix(.06039 -.9982 .9982 .06039 -924.6 -603.2)" cx="-782.7" cy="189.5" rx="43.2" ry="48.4"/>
 <path class="st5" d="m-770.8 218.9c-2.6 1-5.4 1.6-8.4 2-6.3 0.8-12.4 0.1-17.8-1.8-11.3-4-19.6-13.3-20.9-25.1-1.9-17.3 12.2-33.4 31.7-35.9 19.4-2.5 36.8 9.6 38.7 26.9 1.6 14.7-8.3 28.5-23.3 33.9z"/>
 <path class="st7" d="m-726.4 297.8c-2.3 8.3-4.4 16.4-6.2 24.5-6.8 30.2-125.2 21.8-126.2-13.3-0.2-7.4-0.8-15.2-1.5-23.3 3 23.3 128.7 30.5 133.9 12.1z"/>
 <path class="st2" d="m-795.3 251.7c-31.5 49.3-19 142.8-14.7 169.3 0.4 2.4 3.6 3 4.8 0.8 30.3-56 18.4-81 18.4-81l-7.5-0.4c-1.7-0.1-3.1-1.6-2.9-3.4 3.1-36.6 4.2-72 4.4-84.4 0.1-1.5-1.7-2.1-2.5-0.9z"/>
 <path class="st8" d="m-726.4 297.8s-34.6-46.7 20.2-102.8c0 0-14.5-46.3 9.6-66.8 8.1 54.4-14.5 113.6-29.8 169.6z"/>
 <ellipse class="st1" transform="matrix(.8503 -.5264 .5264 .8503 -150.3 -377.2)" cx="-738.1" cy="75.6" rx="6.6" ry="15.5"/>
 <ellipse class="st4" transform="matrix(.8441 -.5362 .5362 .8441 -213.9 -381.5)" cx="-763" cy="177" rx="5.8" ry="9.2"/>
 <path class="st1" d="m-770.6 218.7-0.2 0.2c-2.6 1-5.4 1.6-8.4 2-6.3 0.8-12.4 0.1-17.8-1.8-1.1-1.3-1.6-2.2-1.6-2.2-3.1-5.4-2.9-9.9-1.2-14.5 2.8-7.3 9.8-14.7 14.6-25.9 0.5-1.2 1-2.5 1.5-3.8 0.4-1.2 2.1-1.1 2.5 0.1 0.2 0.9 0.5 1.7 0.8 2.5 3.9 11.6 11.1 19.2 13.5 27.1 1.5 4.9 1.6 10-3.7 16.3z"/>
 <path class="st1" d="m-782.6 174.5c-12.4 14.8-25.9 19.6-16.5 27.7 9.3 8.1 16.5-27.7 16.5-27.7z"/>
 <path class="st1" d="m-782 173.8c9.5 13.8 24.5 22 14.6 29.5-10 7.5-14.6-29.5-14.6-29.5z"/>
 <path class="st3" d="m-784.2 223.5c-4.6 0-9.2-0.8-13.5-2.3-12.5-4.5-21-14.8-22.4-26.9-2.1-18.5 13-35.7 33.6-38.4 10.6-1.4 21.2 1.4 29.1 7.6 6.9 5.4 11.2 12.9 12.1 21.3 1.7 15.5-8.4 30.4-24.8 36.3-2.8 1-5.8 1.7-8.8 2.1-1.8 0.1-3.6 0.3-5.3 0.3zm3-63.5c-1.6 0-3.2 0.1-4.7 0.3-18.2 2.3-31.5 17.3-29.7 33.5 1.2 10.4 8.6 19.3 19.5 23.2 5.2 1.9 11 2.5 16.7 1.7 2.7-0.3 5.4-1 7.9-1.9 14.4-5.1 23.3-18.1 21.8-31.6-0.8-7.1-4.5-13.6-10.4-18.2-5.8-4.6-13.3-7-21.1-7z"/>
</svg>
