<?xml version="1.0" encoding="utf-8"?>
<!-- Generator: Adobe Illustrator 27.6.1, SVG Export Plug-In . SVG Version: 6.00 Build 0)  -->
<svg version="1.1" id="Layer_1" xmlns="http://www.w3.org/2000/svg" xmlns:xlink="http://www.w3.org/1999/xlink" x="0px" y="0px"
	 viewBox="0 0 1600 500" style="enable-background:new 0 0 1600 500;" xml:space="preserve">
<style type="text/css">
	.st0{fill-rule:evenodd;clip-rule:evenodd;fill:#B8AEFF;}
	.st1{clip-path:url(#SVGID_00000009580913912035800960000002723483226198563714_);}
	.st2{fill:#BC83FB;}
	.st3{fill:#8747CC;}
	.st4{fill-rule:evenodd;clip-rule:evenodd;fill:#FFFFFF;}
	.st5{clip-path:url(#SVGID_00000070806900178574563770000003200845354340321709_);}
</style>
<path class="st0" d="M1600,24.8v428.5c0,8.3-4.1,15.7-10.3,20.2c-2.4,1.7-5.8,0.9-6.9-1.9c-3.9-9.7-16.4-16.8-31.2-16.8
	c-9.5,0-18,2.9-23.9,7.6c-1.9,1.5-4.6,1.3-6.2-0.6c-7.7-8.7-21.2-14.5-36.7-14.5c-13.9,0-26.4,4.7-34.3,12c-1.8,1.7-4.7,1.5-6.4-0.3
	c-9.3-10.1-25.8-16.8-44.6-16.8c-27.1,0-49.3,13.9-52.4,31.7c-0.4,2.4-2.5,4.2-4.9,4.2H24.8C11.1,478.2,0,467.1,0,453.4V24.8
	C0,11.1,11.1,0,24.8,0h1550.3C1588.9,0,1600,11.1,1600,24.8z"/>
<ellipse class="st0" cx="1483.8" cy="478.7" rx="27.9" ry="17.2"/>
<ellipse class="st0" cx="1552.4" cy="479" rx="18.6" ry="11.5"/>
<ellipse class="st0" cx="1399.5" cy="479.2" rx="33.9" ry="20.8"/>
<g>
	<defs>
		<path id="SVGID_1_" d="M1600,24.8v428.5c0,8.3-4.1,15.7-10.3,20.2c-2.4,1.7-5.8,0.9-6.9-1.9c-3.9-9.7-16.4-16.8-31.2-16.8
			c-9.5,0-18,2.9-23.9,7.6c-1.9,1.5-4.6,1.3-6.2-0.6c-7.7-8.7-21.2-14.5-36.7-14.5c-13.9,0-26.4,4.7-34.3,12
			c-1.8,1.7-4.7,1.5-6.4-0.3c-9.3-10.1-25.8-16.8-44.6-16.8c-27.1,0-49.3,13.9-52.4,31.7c-0.4,2.4-2.5,4.2-4.9,4.2H24.8
			C11.1,478.2,0,467.1,0,453.4V24.8C0,11.1,11.1,0,24.8,0h1550.3C1588.9,0,1600,11.1,1600,24.8z"/>
	</defs>
	<clipPath id="SVGID_00000142893054151483768700000012868572483877460113_">
		<use xlink:href="#SVGID_1_"  style="overflow:visible;"/>
	</clipPath>
	<g style="clip-path:url(#SVGID_00000142893054151483768700000012868572483877460113_);">
		<g>
			<path class="st2" d="M351.7,152.7c-44.2,17.9-91.5-9.7-108.6-21.4c-3.7-2.5-8.9-1.3-11.3,2.8c-78.6,129.5-26.3,187.2-5.3,210.2
				c1.8,2,4.1,3.5,6.7,4.5c29.3,10.6,102.7,36.7,192-85.6c2.8-3.8,2-9-1.8-11.5c-17.3-11.3-61-44.3-61.4-92
				C362,154.3,356.6,150.7,351.7,152.7z"/>
			<path class="st3" d="M405.5,288.1c-9.2,10.8-18.2,20-27.1,27.8c-57,13.7-140.4-89.2-188.5-55.8c-0.4-18.8,3-40.9,12.6-67
				C305.5,211.5,324.9,291.6,405.5,288.1z"/>
			<path class="st2" d="M336.7,177.8c-34.1,13.8-70.5-7.5-83.6-16.5c-2.9-2-6.8-1-8.7,2.1c-62.1,102.3-18.1,146.4-2.9,163.2
				c0.6,0.7,1.4,1.2,2.3,1.5c21.3,7.7,79,31.3,149.6-65.3c2.1-2.9,1.5-7-1.4-8.9c-13.4-8.7-47-34.2-47.3-70.9
				C344.6,179,340.5,176.3,336.7,177.8z"/>
			<path class="st3" d="M240.5,330.6c-1.3-0.9-2.5-1.9-3.6-3.1c-25-27.3-51.7-74.2,4.1-166.1c1.5-2.5,3.9-4.2,6.7-4.8
				c2.7-0.6,5.3,0,7.6,1.5c13.3,9.1,47.9,29,79.9,16.1c3-1.2,6.4-0.9,9.1,0.9s4.3,4.8,4.3,8.1c0.3,34.5,32,58.8,45.5,67.6
				c2.2,1.5,3.8,3.8,4.3,6.5c0.5,2.8-0.2,5.7-1.9,8.1c-63.4,86.8-117,80.1-151.8,67.6C243.2,332.2,241.8,331.5,240.5,330.6z
				 M250.8,164.6c-0.5-0.3-1.1-0.3-1.4-0.3c-0.6,0.1-1.2,0.6-1.6,1.2c-59.1,97.4-19.8,140.4-5,156.6c1.3,1.4,2.9,2.5,4.7,3.1
				c20.6,7.4,75.5,27.2,142.7-64.8c0.4-0.6,0.6-1.3,0.5-1.9c-0.1-0.4-0.3-0.9-0.8-1.2l0,0c-14.6-9.5-48.8-35.8-49.1-74.2
				c0-0.9-0.5-1.3-0.8-1.5c-0.3-0.2-0.9-0.5-1.7-0.1C302.6,195.9,265.3,174.5,250.8,164.6L250.8,164.6z"/>
			<g>
				<path class="st4" d="M354,273.2c-0.7,0.1-1.5-0.3-1.6-1.1c-1.5-7.9-11-14.2-22.3-12c-7.8,1.6-13.8,6.9-15.6,13.2
					c-0.3,1.1-1.6,1.4-2.3,0.5c-7.8-8.7-25.5-5.2-29.3,6.1c-0.3,0.9-1.4,1.3-2.2,0.7c-7.6-6.2-21.6,0.3-20.4,9.1
					c0.1,1.1-1.1,1.8-2,1.4c-1.5-0.7-2.6-2.1-2.9-3.9L242,219.7c-0.6-3,1.4-6,4.4-6.6l18.3-3.6c3-0.6,5.9,1.4,6.5,4.4l7.3,36.7
					c0.6,3,3.5,5,6.6,4.4l62.9-12.6c3-0.6,6,1.4,6.6,4.4l3.9,19.8C359,269.7,357,272.6,354,273.2z"/>
				
					<ellipse transform="matrix(0.9806 -0.1959 0.1959 0.9806 -48.3313 70.6396)" class="st4" cx="333" cy="279.7" rx="15" ry="12.5"/>
				
					<ellipse transform="matrix(0.9806 -0.1959 0.1959 0.9806 -49.9859 64.1043)" class="st4" cx="299.1" cy="284.8" rx="11.3" ry="9.4"/>
				
					<ellipse transform="matrix(0.9806 -0.1959 0.1959 0.9806 -51.5389 59.0201)" class="st4" cx="272.6" cy="290.1" rx="7.1" ry="5.9"/>
			</g>
		</g>
		<g>
			<path class="st2" d="M492,286.2c-14,39.7-59.9,55-77.6,59.4c-3.8,1-6,5.1-4.8,9.1C449.4,482.5,518.2,481.5,545.7,481
				c2.4,0,4.8-0.7,6.9-1.8c24.2-13.2,84.3-46.6,55.5-177.2c-0.9-4.1-4.8-6.6-8.7-5.5c-17.6,4.9-65,14.5-96.9-13.1
				C499.1,280.3,493.5,281.8,492,286.2z"/>
			<path class="st3" d="M613.1,329.7c1.8,12.4,2.6,23.8,2.6,34.2c-24.2,45.8-141.2,40.9-147.1,92.3c-12.7-10.7-25.4-25.9-37-47.5
				C503.9,351.2,568.3,385.1,613.1,329.7z"/>
			<path class="st2" d="M499.8,310.8c-10.8,30.6-46.1,42.3-59.8,45.8c-3,0.7-4.6,3.9-3.7,7c31.5,100.9,86.4,97.6,106.4,97.3
				c0.8,0,1.6-0.2,2.3-0.6c17.5-9.7,66.9-34,44.1-137.3c-0.7-3.1-3.7-5.1-6.7-4.3c-13.6,3.8-50.1,11.2-74.6-10.1
				C505.2,306.3,501,307.4,499.8,310.8z"/>
			<path class="st3" d="M544.8,463.9c-1.4,0.4-2.8,0.6-4.2,0.6c-32.7,0.6-79.4-9.1-107.7-99.8c-0.8-2.4-0.5-5.1,0.7-7.3
				c1.2-2.1,3.1-3.5,5.4-4.2c13.8-3.5,47.2-14.8,57.3-43.5c1-2.7,3.2-4.8,5.9-5.5c2.8-0.7,5.7,0,7.9,1.8
				c23.1,19.9,57.6,13.2,71.4,9.3c2.3-0.6,4.7-0.3,6.8,0.9c2.1,1.3,3.7,3.5,4.2,5.9c20.5,92.7-15.3,124.3-44,140.1
				C547.5,463,546.2,463.5,544.8,463.9z M440.9,360c-0.5,0.1-0.8,0.5-1,0.8c-0.3,0.5-0.3,1.1-0.2,1.7c30,96.1,81.4,95.2,100.8,94.8
				c1.7,0,3.4-0.5,4.8-1.3c17-9.3,62.1-34.1,40.5-132.4c-0.1-0.6-0.5-1.1-1-1.4c-0.3-0.2-0.7-0.3-1.3-0.2l0,0
				c-14.8,4.1-52.2,11.4-77.9-10.8c-0.6-0.5-1.2-0.4-1.5-0.4c-0.3,0.1-0.8,0.3-1.1,1C491.9,344,455.9,356.2,440.9,360L440.9,360z"/>
			<g>
				<path class="st4" d="M573.2,355.1c-0.3,0.6-1.1,0.8-1.7,0.4c-6.1-3.6-15.8-1-20.9,7.8c-3.5,6.1-3.5,13.2-0.4,18
					c0.5,0.8,0,1.9-1,1.9c-10.3,0.1-18.4,13.9-13.1,22.9c0.4,0.7,0.1,1.7-0.8,1.8c-8.6,1.4-12.4,14.5-5.9,18.9
					c0.8,0.5,0.6,1.8-0.3,2.1c-1.4,0.5-2.9,0.5-4.3-0.3l-52.6-30.6c-2.4-1.4-3.2-4.4-1.8-6.8l8.3-14.2c1.4-2.3,4.4-3.1,6.7-1.8
					l28.6,16.6c2.4,1.4,5.4,0.6,6.7-1.8l28.4-49c1.4-2.4,4.4-3.2,6.7-1.8l15.4,9C573.7,349.7,574.5,352.7,573.2,355.1z"/>
				
					<ellipse transform="matrix(0.5019 -0.8649 0.8649 0.5019 -40.9279 674.5436)" class="st4" cx="565.2" cy="372.8" rx="13.2" ry="11"/>
				
					<ellipse transform="matrix(0.5019 -0.8649 0.8649 0.5019 -71.0908 673.0045)" class="st4" cx="548.8" cy="398.2" rx="10" ry="8.3"/>
				
					<ellipse transform="matrix(0.5019 -0.8649 0.8649 0.5019 -94.9072 672.9448)" class="st4" cx="536.8" cy="418.9" rx="6.2" ry="5.2"/>
			</g>
		</g>
		<g>
			<path class="st2" d="M362,494.5c-10.3-24.4,4.7-51,11-60.5c1.4-2.1,0.6-4.9-1.6-6.3c-72.6-42.7-104.3-13.2-116.9-1.3
				c-1.1,1-1.9,2.3-2.4,3.8c-5.7,16.4-19.6,57.4,49.1,106.1c2.1,1.5,5,1,6.4-1.1c6.1-9.7,24.2-34.3,50.7-34.9
				C361.2,500.2,363.1,497.2,362,494.5z"/>
			<path class="st3" d="M287.1,525.5c-6.1-5-11.3-10-15.7-14.8c-8.1-31.6,48.5-78.8,29.5-105.2c10.4-0.4,22.8,1.3,37.3,6.5
				C328.9,469.3,284.5,480.7,287.1,525.5z"/>
			<path class="st2" d="M347.9,486.4c-7.9-18.8,3.6-39.2,8.5-46.6c1.1-1.6,0.5-3.8-1.3-4.8c-57.4-33.7-81.6-8.9-90.8-0.3
				c-0.4,0.4-0.7,0.8-0.8,1.3c-4.1,11.9-16.8,44.2,37.5,82.6c1.6,1.2,3.9,0.8,4.9-0.8c4.7-7.5,18.6-26.4,39-26.9
				C347.3,490.8,348.8,488.5,347.9,486.4z"/>
			<path class="st3" d="M262.2,434.1c0.5-0.7,1.1-1.4,1.7-2c15-14.1,40.9-29.3,92.4,0.9c1.4,0.8,2.4,2.2,2.7,3.7
				c0.3,1.5,0.1,3-0.8,4.3c-5,7.5-15.7,26.8-8.3,44.5c0.7,1.7,0.5,3.6-0.4,5.1s-2.6,2.4-4.4,2.5c-19.2,0.5-32.4,18.2-37.2,25.8
				c-0.8,1.2-2.1,2.1-3.6,2.4c-1.5,0.3-3.2,0-4.5-1c-48.8-34.6-45.5-64.4-38.8-83.9C261.3,435.6,261.7,434.8,262.2,434.1z
				 M354.6,438.5c0.2-0.3,0.2-0.6,0.1-0.8c-0.1-0.4-0.3-0.7-0.7-0.9c-54.6-32.1-78.2-9.9-87.1-1.5c-0.8,0.7-1.4,1.6-1.7,2.6
				c-4,11.5-14.5,42.2,37.1,78.8c0.3,0.2,0.7,0.3,1.1,0.2c0.2,0,0.5-0.2,0.7-0.4l0,0c5.2-8.2,19.5-27.4,40.9-27.9
				c0.5,0,0.7-0.3,0.8-0.4s0.3-0.5,0.1-0.9C337.6,467.6,349.2,446.6,354.6,438.5L354.6,438.5z"/>
			<g>
				<path class="st4" d="M295,496.8c-0.1-0.4,0.2-0.8,0.6-0.9c4.4-0.9,7.8-6.2,6.5-12.5c-0.9-4.4-3.9-7.6-7.4-8.6
					c-0.6-0.2-0.8-0.9-0.3-1.3c4.8-4.4,2.7-14.2-3.6-16.2c-0.5-0.2-0.8-0.8-0.4-1.2c3.4-4.3-0.3-12-5.2-11.3c-0.6,0.1-1-0.6-0.8-1.1
					c0.4-0.8,1.2-1.5,2.1-1.7l37.4-8c1.7-0.4,3.3,0.7,3.7,2.4l2.1,10.1c0.3,1.7-0.7,3.3-2.4,3.7l-20.3,4.4c-1.7,0.4-2.7,2-2.4,3.7
					l7.5,34.8c0.4,1.7-0.7,3.3-2.4,3.7l-11,2.3C297,499.5,295.4,498.4,295,496.8z"/>
				
					<ellipse transform="matrix(0.9777 -0.2098 0.2098 0.9777 -95.3052 71.9025)" class="st4" cx="291.2" cy="485.1" rx="6.9" ry="8.3"/>
				
					<ellipse transform="matrix(0.9777 -0.2098 0.2098 0.9777 -91.4318 70.8333)" class="st4" cx="288.1" cy="466.3" rx="5.2" ry="6.3"/>
				
					<ellipse transform="matrix(0.9777 -0.2098 0.2098 0.9777 -88.4219 69.8431)" class="st4" cx="285" cy="451.7" rx="3.3" ry="3.9"/>
			</g>
		</g>
		<g>
			<path class="st2" d="M68.9,352.1c-2.2,33.1-33.8,54.4-46.2,61.5c-2.7,1.6-3.5,5.2-1.7,7.9c57.3,88.4,109.2,73.1,130,66.9
				c1.8-0.5,3.5-1.5,4.8-2.8c15.5-15.1,54.1-53.2,4.5-146.1c-1.5-2.9-5.1-4-7.7-2.4c-12.3,7.4-46.2,24.8-76.2,10.6
				C73,346.1,69.1,348.4,68.9,352.1z"/>
			<path class="st3" d="M169.9,359.3c4,9,7,17.5,9.2,25.4c-8.7,39.8-98.3,60.9-91.9,101.1c-11.9-5.4-24.7-14.2-38.1-28.2
				C91.7,398.8,147.7,410.9,169.9,359.3z"/>
			<path class="st2" d="M80.1,369.1c-1.7,25.5-26,41.9-35.6,47.4c-2.1,1.2-2.7,4-1.3,6.1c45.2,69.8,86.2,55.7,101.3,51.2
				c0.6-0.2,1.2-0.5,1.6-1c11.3-11,43.5-40,4.4-113.4c-1.2-2.2-3.9-3.1-6-1.8c-9.5,5.7-35.6,19.1-58.7,8.2
				C83.2,364.5,80.2,366.2,80.1,369.1z"/>
			<path class="st3" d="M146.6,475.5c-1,0.6-2,1-3,1.3c-24.7,7.4-62.1,9.9-102.8-52.8c-1.1-1.7-1.4-3.7-1-5.7
				c0.5-1.9,1.6-3.3,3.2-4.3c9.8-5.6,32.6-21.2,34.2-45.1c0.1-2.3,1.4-4.3,3.3-5.4c1.9-1.1,4.3-1.2,6.4-0.3
				c21.7,10.2,46.5-2.2,56.1-8c1.6-0.9,3.5-1.2,5.4-0.7c1.9,0.5,3.5,1.8,4.5,3.6c35.2,65.9,14.8,97.5-3.6,115.5
				C148.5,474.3,147.6,475,146.6,475.5z M45.8,418.8c-0.4,0.2-0.5,0.6-0.6,0.8c-0.1,0.4,0,0.9,0.3,1.3
				c43.1,66.5,81.9,54.9,96.5,50.5c1.3-0.4,2.4-1.1,3.4-2c10.9-10.7,39.9-39,2.6-108.9c-0.2-0.4-0.6-0.7-1.1-0.9
				c-0.3-0.1-0.6-0.1-1,0.1l0,0c-10.4,6.3-37.2,19.7-61.3,8.3c-0.5-0.3-1-0.1-1.2,0c-0.2,0.1-0.6,0.4-0.6,1
				C81.1,395.9,56.4,412.8,45.8,418.8L45.8,418.8z"/>
			<g>
				<path class="st4" d="M145,387.1c-0.1,0.5-0.7,0.8-1.2,0.7c-5.4-1.4-12.2,2.6-14.2,10.3c-1.4,5.4,0.1,10.7,3.5,13.7
					c0.6,0.5,0.4,1.4-0.4,1.6c-7.8,2.2-11,14.4-5.1,20.1c0.5,0.5,0.4,1.3-0.2,1.6c-6.2,2.9-6.4,13.6-0.5,15.5
					c0.7,0.2,0.8,1.2,0.2,1.7c-0.9,0.7-2.1,1-3.3,0.7l-46.3-12c-2.1-0.5-3.3-2.7-2.8-4.8l3.3-12.5c0.5-2.1,2.7-3.3,4.7-2.8l25.2,6.5
					c2.1,0.5,4.2-0.7,4.7-2.8l11.1-43.2c0.5-2.1,2.7-3.3,4.7-2.8l13.6,3.5C144.3,382.9,145.6,385,145,387.1z"/>
				
					<ellipse transform="matrix(0.2504 -0.9681 0.9681 0.2504 -282.3836 439.679)" class="st4" cx="142.7" cy="402.2" rx="10.4" ry="8.7"/>
				
					<ellipse transform="matrix(0.2504 -0.9681 0.9681 0.2504 -309.6957 449.8984)" class="st4" cx="135.7" cy="424.9" rx="7.8" ry="6.5"/>
				
					<ellipse transform="matrix(0.2504 -0.9681 0.9681 0.2504 -330.8174 458.9913)" class="st4" cx="131" cy="443.1" rx="4.9" ry="4.1"/>
			</g>
		</g>
		<g>
			<path class="st2" d="M-40,163.8c22.3,32.4,8.5,75.4,2.2,91.3c-1.4,3.4,0.6,7.4,4.2,8.6c118.3,40.2,155.4-12.2,170.2-33.3
				c1.3-1.8,2.1-4,2.4-6.2c3.3-25.5,11.2-89.3-103.2-139.3c-3.6-1.6-7.6,0-8.9,3.5c-6,16-24.8,57-63.1,65.9
				C-40.5,155.2-42.5,160.2-40,163.8z"/>
			<path class="st3" d="M59.4,96.2c10.3,5.5,19.4,11.1,27.3,16.8c21.2,43.5-46.7,129-11.2,161.7c-15,3.7-33.5,4.9-56.2,1.8
				C15.6,190.5,76.6,160.6,59.4,96.2z"/>
			<path class="st2" d="M-17.1,171.4c17.2,25,6.6,58.1,1.7,70.3c-1.1,2.6,0.4,5.7,3.3,6.6c93.5,31.7,121.2-11.6,131.9-26.9
				c0.4-0.6,0.7-1.3,0.8-2.1c2.4-18.6,11.1-69.2-79.3-108.8c-2.7-1.2-5.9,0-6.9,2.7c-4.6,12.3-19.1,43.9-48.6,50.8
				C-17.6,164.8-19,168.6-17.1,171.4z"/>
			<path class="st3" d="M123.1,221.6c-0.5,1.2-1.1,2.4-1.9,3.5c-17.5,25-50.5,54.9-134.5,26.4c-2.3-0.8-4.1-2.4-5.1-4.5
				c-0.9-2.1-1-4.3-0.2-6.4c5-12.4,14.8-43.7-1.3-67.2c-1.5-2.2-1.9-5-0.9-7.5c1-2.5,3.1-4.3,5.7-4.9c27.7-6.4,41.6-36.3,46.3-48.7
				c0.8-2,2.4-3.7,4.5-4.6c2.2-0.9,4.6-0.9,6.8,0.1c81.2,35.5,85.4,79.9,81.5,110.2C124,219,123.6,220.3,123.1,221.6z M-12.4,242.9
				c-0.2,0.5-0.1,0.9,0.1,1.2c0.2,0.5,0.7,0.9,1.2,1.1c89,30.2,116.6-9.1,127-24c0.9-1.3,1.5-2.8,1.7-4.4
				c2.3-18,8.5-65.6-77.7-103.3c-0.5-0.2-1.1-0.2-1.6,0c-0.3,0.1-0.7,0.4-0.9,0.9l0,0c-5.1,13.5-20.1,45.7-51,52.8
				c-0.7,0.2-1,0.6-1.1,0.9c-0.1,0.3-0.2,0.8,0.2,1.4C3.6,195.6-7,229.5-12.4,242.9L-12.4,242.9z"/>
			<g>
				<path class="st4" d="M56.6,140.4c0.3,0.6,0,1.2-0.6,1.5c-6.1,2.6-9.5,11.4-5.7,20.1c2.7,6,8,9.9,13.4,10.2
					c0.9,0.1,1.4,1.1,0.9,1.8c-5.6,7.8,0.4,21.5,10.1,22.5c0.8,0.1,1.3,0.9,1,1.6c-3.7,7.2,4.1,17.4,11,14.8
					c0.8-0.3,1.7,0.5,1.5,1.4c-0.3,1.3-1.3,2.5-2.6,3.1l-52,22.9c-2.3,1-5.1,0-6.1-2.4l-6.2-14.1c-1-2.3,0-5,2.4-6L52,205.2
					c2.3-1,3.4-3.7,2.4-6.1L33,150.8c-1-2.3,0-5,2.4-6.1l15.2-6.7C52.9,137,55.6,138.1,56.6,140.4z"/>
				
					<ellipse transform="matrix(0.9149 -0.4036 0.4036 0.9149 -57.4452 39.7677)" class="st4" cx="65.6" cy="156.2" rx="10.3" ry="12.3"/>
				
					<ellipse transform="matrix(0.9149 -0.4036 0.4036 0.9149 -67.2228 46.1107)" class="st4" cx="75.8" cy="182.5" rx="7.8" ry="9.3"/>
				
					<ellipse transform="matrix(0.9149 -0.4036 0.4036 0.9149 -74.6816 51.4804)" class="st4" cx="84.8" cy="202.9" rx="4.9" ry="5.8"/>
			</g>
		</g>
		<g>
			<path class="st2" d="M325.5-40.4c-34.2-3.7-54.9-37.4-61.8-50.6c-1.5-2.9-5.2-3.8-8.1-2.1C161.4-37.5,175,17,180.5,38.8
				c0.5,1.9,1.4,3.7,2.7,5.1c15,16.7,52.8,58.4,151.3,11c3.1-1.5,4.3-5.1,2.8-7.9c-7.2-13.1-23.7-49-7.7-79.5
				C331.4-35.8,329.2-40,325.5-40.4z"/>
			<path class="st3" d="M313.6,64.1c-9.6,3.7-18.4,6.5-26.7,8.5C245.9,61.9,227.9-32,186-27.1c6.1-12.1,15.8-25,30.9-38.3
				C276-18.7,261,38.8,313.6,64.1z"/>
			<path class="st2" d="M307.3-29.5c-26.4-2.8-42.3-28.8-47.6-39c-1.1-2.2-4-2.9-6.3-1.6C179.1-26.2,192,16.8,196,32.7
				c0.2,0.7,0.5,1.2,0.9,1.7c11,12.1,39.6,46.9,117.4,9.4c2.4-1.1,3.3-3.9,2.1-6.1C311,27.7,298.3,0,310.6-23.4
				C312-26.1,310.3-29.2,307.3-29.5z"/>
			<path class="st3" d="M194,34.9c-0.5-1-1-2.1-1.2-3.2c-6.6-25.9-7.6-64.9,59.2-104.3c1.8-1.1,3.9-1.3,5.9-0.8
				c1.9,0.5,3.4,1.8,4.4,3.5c5.4,10.4,20.6,34.8,45.3,37.4c2.3,0.3,4.4,1.6,5.5,3.7s1.1,4.5,0,6.6C301.6,0,313.4,26.2,319,36.4
				c0.9,1.7,1.1,3.7,0.5,5.6c-0.6,1.9-2.1,3.6-3.9,4.5C245.7,80.1,213.9,57.6,196,37.7C195.3,36.9,194.6,35.9,194,34.9z M257.2-67.2
				c-0.2-0.4-0.6-0.6-0.8-0.7c-0.5-0.1-1-0.1-1.4,0.2c-70.8,41.8-60.5,82.6-56.6,97.9c0.3,1.3,1,2.6,1.9,3.6
				c10.6,11.8,38.7,43.1,112.8,7.4c0.5-0.2,0.8-0.6,1-1.1c0.1-0.3,0.1-0.7-0.1-1.1l0,0c-6-11-18.8-39.4-6-63.9c0.3-0.6,0.1-1,0-1.2
				s-0.4-0.6-1-0.7C279.5-29.6,263-56,257.2-67.2L257.2-67.2z"/>
			<g>
				<path class="st4" d="M285.8,37.1c-0.5-0.2-0.8-0.7-0.7-1.2c1.7-5.5-2.1-12.8-10.1-15.2c-5.5-1.7-11.1-0.3-14.4,3
					c-0.5,0.6-1.5,0.3-1.7-0.5c-2-8.2-14.5-12-20.7-6.1c-0.5,0.5-1.3,0.4-1.6-0.3c-2.7-6.6-13.8-7.2-16.1-1.1
					c-0.3,0.7-1.3,0.8-1.7,0.2c-0.7-1-0.9-2.2-0.5-3.5l14.5-47.5c0.6-2.1,2.9-3.3,5-2.7l12.8,3.9c2.1,0.7,3.3,2.9,2.7,5L245.5-3
					c-0.6,2.1,0.6,4.4,2.7,5l44.3,13.4c2.1,0.6,3.3,2.9,2.7,5l-4.2,13.9C290.2,36.5,288,37.7,285.8,37.1z"/>
				
					<ellipse transform="matrix(0.2905 -0.9569 0.9569 0.2905 159.1783 282.7571)" class="st4" cx="270.3" cy="34" rx="9" ry="10.8"/>
				
					<ellipse transform="matrix(0.2905 -0.9569 0.9569 0.2905 150.6019 254.5849)" class="st4" cx="247" cy="25.7" rx="6.8" ry="8.1"/>
				
					<ellipse transform="matrix(0.2905 -0.9569 0.9569 0.2905 142.7702 232.7229)" class="st4" cx="228.3" cy="20.1" rx="4.2" ry="5.1"/>
			</g>
		</g>
		<g>
			<path class="st2" d="M98.3,23.7C99.1-10.7,131-34.1,143.6-42c2.7-1.7,3.4-5.5,1.4-8.3C81.9-139.5,28.6-121.5,7.4-114.1
				c-1.9,0.6-3.5,1.7-4.9,3.2C-13-94.6-51.3-53.5,4.1,40.8c1.7,2.9,5.4,3.9,8.1,2.1c12.4-8.2,46.9-27.7,78.6-14.3
				C94.3,30.1,98.2,27.5,98.3,23.7z"/>
			<path class="st3" d="M-6.8,20.5c-4.5-9.2-8-17.8-10.7-25.9c7.3-41.7,99.4-67.4,91-108.8c12.6,5.1,26.2,13.7,40.7,27.6
				C72.6-23.8,14-33.9-6.8,20.5z"/>
			<path class="st2" d="M86,6.6c0.6-26.5,25.2-44.5,34.9-50.7c2.1-1.3,2.6-4.2,1.1-6.4c-49.9-70.5-91.8-54-107.3-48.7
				c-0.6,0.2-1.2,0.6-1.7,1.1C1.9-86.2-30.3-54.8,13.4,19.7c1.3,2.3,4.2,3,6.3,1.6C29.3,15,55.8,0,80.2,10.3
				C82.9,11.5,85.9,9.5,86,6.6z"/>
			<path class="st3" d="M12.4-101c1-0.6,2-1.1,3.1-1.5c25.3-8.7,64-12.9,108.8,50.4c1.2,1.7,1.7,3.8,1.3,5.8
				c-0.4,1.9-1.5,3.5-3.2,4.6c-9.9,6.2-32.9,23.4-33.6,48.3c-0.1,2.4-1.3,4.5-3.2,5.8c-2,1.3-4.4,1.5-6.6,0.6
				c-23-9.7-48.1,4.3-57.8,10.8c-1.6,1-3.6,1.4-5.5,1c-2-0.5-3.7-1.8-4.8-3.5C-28.4-45.7-8.6-79.3,9.7-98.8
				C10.5-99.6,11.4-100.4,12.4-101z M119.4-46.5c0.4-0.2,0.5-0.6,0.6-0.9c0.1-0.5,0-1-0.3-1.4c-47.5-67.1-87.3-53.4-102.3-48.2
				c-1.3,0.4-2.5,1.2-3.4,2.2c-10.9,11.5-39.7,42.2,2,113.1c0.3,0.4,0.7,0.8,1.1,0.9c0.3,0.1,0.7,0.1,1-0.2l0,0
				C28.6,12,55.8-3.1,81.3,7.7c0.6,0.2,1,0,1.2-0.1c0.2-0.1,0.6-0.5,0.6-1.1C83.8-21.2,108.7-39.8,119.4-46.5L119.4-46.5z"/>
			<g>
				<path class="st4" d="M17.8-9.3c0.1-0.5,0.6-0.9,1.2-0.8c5.6,1.3,12.6-3.2,14.3-11.3c1.2-5.7-0.6-11.1-4.2-14.1
					c-0.6-0.5-0.4-1.5,0.3-1.7c8-2.6,10.8-15.4,4.4-21.1c-0.5-0.5-0.5-1.3,0.1-1.6c6.3-3.2,6-14.4-0.2-16.1
					c-0.8-0.2-0.9-1.2-0.3-1.7c0.9-0.8,2.2-1.1,3.4-0.8l48.6,10.5c2.2,0.5,3.6,2.6,3.1,4.8l-2.9,13.1c-0.5,2.2-2.6,3.5-4.8,3.1
					l-26.4-5.7c-2.2-0.5-4.3,0.9-4.8,3.1L40-4.6c-0.5,2.2-2.6,3.6-4.8,3.1L20.9-4.5C18.7-5,17.4-7.2,17.8-9.3z"/>
				
					<ellipse transform="matrix(0.2101 -0.9777 0.9777 0.2101 39.9944 -0.6974)" class="st4" cx="19.6" cy="-25.1" rx="10.8" ry="9"/>
				
					<ellipse transform="matrix(0.2101 -0.9777 0.9777 0.2101 68.3648 -13.3723)" class="st4" cx="25.9" cy="-49" rx="8.1" ry="6.8"/>
				
					<ellipse transform="matrix(0.2101 -0.9777 0.9777 0.2101 90.2263 -24.4396)" class="st4" cx="30" cy="-68.1" rx="5.1" ry="4.2"/>
			</g>
		</g>
		<g>
			<path class="st2" d="M398.3,91.5c29.2,13.7,37.3,49.8,39.4,63.6c0.4,3,3.5,5,6.6,4.3c100.4-20.7,104.9-73.2,106.6-94.2
				c0.1-1.8-0.1-3.7-0.9-5.4c-8.2-19.4-29.1-67.8-130.9-55.7c-3.2,0.4-5.4,3.2-4.9,6.2c2.4,13.8,6.1,50.6-17.3,72.8
				C394.4,85.7,395.1,90,398.3,91.5z"/>
			<path class="st3" d="M440.6,2.5c9.6-0.4,18.3-0.2,26.3,0.6c33,21.9,20.5,110.7,59.2,119.1c-9.1,8.9-21.7,17.4-39,24.6
				C448.7,87.3,479.5,40.8,440.6,2.5z"/>
			<path class="st2" d="M417.7,87.4c22.5,10.5,28.8,38.4,30.4,49c0.3,2.3,2.7,3.8,5.1,3.3c79.3-16.3,80.9-58.5,82.2-73.7
				c0.1-0.6,0-1.2-0.3-1.8c-6-14.1-20.9-53.6-101.3-44c-2.4,0.3-4.2,2.5-3.8,4.8c1.8,10.6,4.7,39-13.3,56.1
				C414.6,82.9,415.1,86.2,417.7,87.4z"/>
			<path class="st3" d="M537.7,64.7c0.2,1.1,0.2,2.2,0.1,3.2c-2,25-13,59.8-84.2,74.5c-1.9,0.4-3.9,0-5.5-1.1
				c-1.5-1.1-2.5-2.6-2.8-4.5c-1.6-10.8-7.7-37.1-28.8-47c-2-0.9-3.4-2.8-3.7-4.9c-0.3-2.2,0.4-4.3,2-5.9
				c16.9-16.1,14.4-42.9,12.5-53.7c-0.3-1.8,0.1-3.6,1.2-5.1c1.1-1.5,2.9-2.6,4.9-2.8c72.2-8.6,93.6,21.1,103.4,44.1
				C537.2,62.6,537.5,63.6,537.7,64.7z M450.7,136c0.1,0.4,0.3,0.7,0.5,0.8c0.4,0.3,0.8,0.3,1.3,0.2c75.5-15.5,78.7-54.8,79.9-69.6
				c0.1-1.3-0.1-2.6-0.6-3.8C526,50,510.6,13.7,434,22.8c-0.5,0.1-0.9,0.3-1.2,0.6c-0.2,0.2-0.3,0.5-0.2,1l0,0
				c2,11.6,4.7,40.7-14.1,58.5c-0.4,0.4-0.4,0.8-0.4,1.1c0,0.2,0.2,0.7,0.7,0.9C442.3,95.9,448.9,124.3,450.7,136L450.7,136z"/>
			<g>
				<path class="st4" d="M457,34.8c0.4,0.3,0.5,0.9,0.2,1.3c-3.2,4.4-2,12,4.3,16.5c4.4,3.2,9.8,3.7,13.7,1.7
					c0.7-0.3,1.4,0.2,1.3,0.9c-0.7,7.9,9.2,15,16.5,11.7c0.6-0.3,1.3,0.1,1.3,0.7c0.4,6.6,10.1,10.6,13.9,5.9
					c0.5-0.6,1.4-0.3,1.6,0.4c0.3,1.1,0.1,2.3-0.6,3.2L482.1,115c-1.2,1.7-3.6,2.1-5.3,0.8l-10.2-7.4c-1.7-1.2-2-3.6-0.8-5.3
					l14.8-20.5c1.2-1.7,0.8-4-0.9-5.3L444.5,52c-1.7-1.2-2.1-3.6-0.9-5.3l8-11.1C452.9,34,455.3,33.6,457,34.8z"/>
				
					<ellipse transform="matrix(0.585 -0.8111 0.8111 0.585 160.7196 398.6238)" class="st4" cx="469.8" cy="42.3" rx="8.4" ry="10.1"/>
				<ellipse transform="matrix(0.585 -0.8111 0.8111 0.585 156.5342 419.3164)" class="st4" cx="488" cy="56.7" rx="6.4" ry="7.6"/>
				<ellipse transform="matrix(0.585 -0.8111 0.8111 0.585 154.0283 435.7748)" class="st4" cx="502.8" cy="67.4" rx="4" ry="4.8"/>
			</g>
		</g>
		<g>
			<path class="st2" d="M711.3,85.4c-33.2,16.4-71.5-2.2-85.4-10.2c-3-1.7-6.9-0.5-8.6,2.8c-53.3,104.9-9.4,146.6,8.2,163.1
				c1.5,1.5,3.4,2.5,5.5,3.1c23.3,6.5,81.7,22.4,143.8-77.6c1.9-3.1,1-7.1-2.1-8.8c-14.1-7.7-49.8-30.8-53-67.7
				C719.3,86.1,714.9,83.6,711.3,85.4z"/>
			<path class="st3" d="M760.9,187.2c-6.5,8.9-13,16.6-19.3,23.2c-43.4,14-114-60.9-149.3-32.2c-1.4-14.5-0.1-31.9,5.9-52.7
				C678.9,133.7,698.6,194.6,760.9,187.2z"/>
			<path class="st2" d="M701.1,105.8c-25.6,12.7-55.1-1.7-65.8-7.9c-2.3-1.3-5.3-0.4-6.6,2.2c-42.1,82.9-5.5,114.5,7.3,126.6
				c0.5,0.5,1.1,0.8,1.8,1c17,4.7,63,19.6,112.1-59.4c1.5-2.4,0.8-5.5-1.6-6.8c-10.9-5.9-38.4-23.7-40.8-52.1
				C707.3,106.2,704,104.4,701.1,105.8z"/>
			<path class="st3" d="M635.5,229.8c-1.1-0.6-2.1-1.3-3-2.2c-20.9-19.7-44.4-54.5-6.6-128.9c1-2,2.8-3.5,4.9-4.1
				c2.1-0.6,4.1-0.3,6,0.7c10.9,6.3,38.8,19.7,62.8,7.8c2.3-1.1,4.9-1.1,7.1,0.2s3.6,3.5,3.8,6c2.3,26.7,28.2,43.7,39.2,49.7
				c1.8,1,3.2,2.7,3.7,4.8c0.6,2.1,0.2,4.4-1,6.3c-44,71-86,68.9-113.7,61.2C637.7,230.9,636.6,230.4,635.5,229.8z M633.8,100.6
				c-0.4-0.2-0.9-0.2-1.1-0.1c-0.5,0.1-0.9,0.5-1.2,1c-40.1,78.9-7.1,109.9,5.3,121.6c1.1,1,2.4,1.8,3.8,2.2
				c16.4,4.6,60.1,16.7,106.7-58.5c0.3-0.5,0.4-1,0.3-1.5c-0.1-0.3-0.3-0.7-0.7-0.9l0,0c-11.9-6.5-39.9-24.9-42.4-54.6
				c-0.1-0.7-0.5-1-0.7-1.1c-0.2-0.1-0.7-0.3-1.3,0C675.7,121.8,645.6,107.4,633.8,100.6L633.8,100.6z"/>
			<g>
				<path class="st4" d="M720.1,178.7c-0.6,0.2-1.2-0.2-1.3-0.7c-1.6-6-9.3-10.4-17.9-8c-6,1.7-10.3,6.2-11.3,11.1
					c-0.2,0.8-1.2,1.1-1.8,0.6c-6.5-6.3-20.1-2.5-22.3,6.4c-0.2,0.7-1,1.1-1.6,0.7c-6.3-4.4-16.7,1.5-15.3,8.3
					c0.2,0.8-0.7,1.5-1.5,1.2c-1.2-0.5-2.1-1.5-2.5-2.8l-14.4-51.5c-0.7-2.3,0.7-4.7,3-5.4l13.9-3.8c2.3-0.6,4.7,0.7,5.3,3l7.8,28
					c0.6,2.3,3,3.7,5.3,3l48-13.4c2.3-0.6,4.7,0.7,5.3,3l4.2,15.1C723.8,175.6,722.4,178,720.1,178.7z"/>
				
					<ellipse transform="matrix(0.9631 -0.2692 0.2692 0.9631 -23.7875 196.391)" class="st4" cx="704.2" cy="184.9" rx="11.6" ry="9.7"/>
				
					<ellipse transform="matrix(0.9631 -0.2692 0.2692 0.9631 -26.3423 189.6261)" class="st4" cx="678.3" cy="190.9" rx="8.8" ry="7.3"/>
				
					<ellipse transform="matrix(0.9631 -0.2692 0.2692 0.9631 -28.613 184.3954)" class="st4" cx="658.1" cy="196.5" rx="5.5" ry="4.6"/>
			</g>
		</g>
		<g>
			<path class="st2" d="M870.9,547.1c-7.7-55.5,37.3-101.4,55.5-117.4c3.9-3.5,4-9.7,0.1-13.7c-124.8-126.7-205.5-83.8-237.7-66.4
				c-2.8,1.5-5.2,3.7-7,6.3c-20.5,30.3-71.3,106.3,42.3,243.2c3.5,4.3,9.7,4.8,13.6,1.3c17.8-16.5,68-56.7,122.4-43.5
				C866.1,558.4,871.8,553.2,870.9,547.1z"/>
			<path class="st3" d="M701.3,569.5c-9.6-13.6-17.5-26.5-23.9-38.8c0.8-68.8,141.9-134.2,117.6-198.5c21.5,4.9,45.7,15.2,72.6,33.6
				C817.3,477.6,720.5,476.7,701.3,569.5z"/>
			<path class="st2" d="M846.6,522.8c-5.9-42.7,28.8-78.1,42.8-90.5c3-2.7,3.1-7.5,0.1-10.5c-98.6-100.1-161.5-62.7-185-50.2
				c-1,0.5-1.8,1.2-2.4,2.1c-14.9,22.1-58.4,80.9,31.4,189.1c2.7,3.3,7.5,3.7,10.5,1c13.7-12.7,52.4-43.7,94.3-33.5
				C843,531.5,847.3,527.6,846.6,522.8z"/>
			<path class="st3" d="M700.3,369.4c1.4-1.3,2.9-2.3,4.6-3.2c38.3-20.6,99.4-37.5,187.9,52.4c2.4,2.4,3.7,5.7,3.6,9
				c-0.1,3.2-1.5,6.1-3.9,8.3c-14.2,12.6-46.8,46.2-41.2,86.3c0.5,3.8-0.8,7.6-3.6,10.1c-2.8,2.5-6.7,3.5-10.4,2.6
				c-39.4-9.5-76.1,19.5-90,32.4c-2.4,2-5.4,3.2-8.6,3c-3.3-0.2-6.5-1.8-8.6-4.4c-80.6-97.1-57.6-156.2-33.3-192.2
				C697.7,372.1,699,370.6,700.3,369.4z M886.4,428.8c0.5-0.5,0.7-1.1,0.7-1.6c0-0.8-0.3-1.6-0.9-2.1
				c-93.9-95.3-154.1-62.9-176.8-50.7c-2,1.1-3.7,2.6-4.9,4.5c-14.4,21.4-52.7,78.1,32.7,181c0.5,0.6,1.3,1,2,1.1
				c0.4,0,1.1,0,1.6-0.5l0,0c15-13.9,54.8-45.2,98.6-34.6c1,0.2,1.6-0.2,1.9-0.5s0.8-0.9,0.7-1.9
				C835.9,478.8,870.9,442.5,886.4,428.8L886.4,428.8z"/>
			<g>
				<path class="st4" d="M733.1,515.1c0-0.9,0.8-1.6,1.7-1.5c9.4,0.5,19.3-8.4,20-21.9c0.5-9.4-3.9-17.7-10.5-21.5
					c-1.1-0.6-1.1-2.2,0.1-2.8c12.1-6.3,13.3-27.6,1.5-35c-1-0.6-1.1-2-0.2-2.7c9.3-6.9,5.9-24.7-4.5-25.9c-1.3-0.1-1.8-1.7-1-2.7
					c1.3-1.5,3.2-2.3,5.3-2.2l80.7,4.1c3.6,0.2,6.4,3.3,6.2,6.9l-1.2,21.8c-0.2,3.6-3.3,6.4-6.9,6.2l-43.9-2.2
					c-3.6-0.2-6.7,2.6-6.9,6.2l-3.7,75.2c-0.2,3.6-3.3,6.4-6.9,6.2l-23.7-1.2C735.7,521.8,732.9,518.7,733.1,515.1z"/>
				
					<ellipse transform="matrix(5.013990e-02 -0.9987 0.9987 5.013990e-02 206.2999 1195.6022)" class="st4" cx="731.7" cy="489.3" rx="17.6" ry="14.6"/>
				
					<ellipse transform="matrix(5.013990e-02 -0.9987 0.9987 5.013990e-02 250.0057 1161.5116)" class="st4" cx="735.6" cy="449.3" rx="13.2" ry="11"/>
				
					<ellipse transform="matrix(5.013990e-02 -0.9987 0.9987 5.013990e-02 283.1277 1132.9905)" class="st4" cx="737.2" cy="417.6" rx="8.3" ry="6.9"/>
			</g>
		</g>
		<g>
			<path class="st2" d="M838.5,149.5c21.2,44-3.9,94-14.7,112.2c-2.3,3.9-0.7,9.1,3.6,11.4c137.3,71.8,192.8,14.6,214.9-8.4
				c1.9-2,3.3-4.4,4.1-7.1c8.9-30.6,30.8-107.2-99.9-190.4c-4.1-2.6-9.4-1.4-11.6,2.6c-10.4,18.4-41.3,65.2-89.9,68.7
				C839.5,138.9,836.2,144.6,838.5,149.5z"/>
			<path class="st3" d="M973.2,85.7c11.6,8.7,21.6,17.3,30.2,25.8c17.7,57.3-81.9,149.2-44.6,196c-19.1,1.7-42-0.4-69.2-8.5
				C901.6,192.8,982.1,167.8,973.2,85.7z"/>
			<path class="st2" d="M865.1,163.2c16.3,33.9-3,72.4-11.3,86.4c-1.8,3-0.5,7,2.7,8.7c108.5,56.7,150.7,8.9,166.8-7.8
				c0.7-0.7,1.1-1.5,1.4-2.4c6.4-22.3,26.8-82.7-76.5-148.4c-3.1-2-7.2-1.1-8.9,2c-8,14.2-31.8,50.2-69.3,52.9
				C865.8,155,863.3,159.4,865.1,163.2z"/>
			<path class="st3" d="M1027.4,251.4c-0.8,1.4-1.8,2.7-2.9,3.9c-26.2,27.3-72.4,57.6-169.8,6.7c-2.6-1.4-4.6-3.8-5.4-6.5
				c-0.8-2.7-0.4-5.4,1-7.9c8.5-14.2,26.5-50.8,11.2-82.6c-1.4-3-1.3-6.5,0.3-9.4c1.6-2.9,4.6-4.7,7.9-4.9
				c35.2-2.6,57.9-36.5,66-50.9c1.4-2.3,3.6-4.1,6.3-4.8c2.8-0.7,5.9-0.2,8.3,1.4c92.7,59,89.5,114.2,78.9,150.5
				C1028.9,248.4,1028.2,250,1027.4,251.4z M857.3,251.7c-0.3,0.6-0.3,1.1-0.2,1.5c0.2,0.6,0.7,1.2,1.3,1.5
				c103.3,54,144.6,11,160.2-5.1c1.4-1.4,2.4-3.1,2.9-5c6.3-21.6,22.9-78.8-75.5-141.4c-0.6-0.4-1.3-0.5-2-0.4
				c-0.4,0.1-0.9,0.3-1.2,0.9l0,0c-8.8,15.5-33.4,52.1-72.5,55c-0.9,0.1-1.3,0.6-1.5,0.9c-0.2,0.3-0.4,0.9,0,1.7
				C885.8,196.8,866.4,236.3,857.3,251.7L857.3,251.7z"/>
			<g>
				<path class="st4" d="M961.4,139.2c0.2,0.8-0.2,1.5-1,1.7c-7.9,2.1-13.8,12.1-10.8,23.5c2.1,7.9,8,13.7,14.4,15.1
					c1.1,0.2,1.5,1.6,0.7,2.4c-8.4,8.5-3.6,26.4,8.1,29.5c1,0.3,1.5,1.3,0.9,2.2c-5.9,8.2,1.7,22,10.7,20.2c1.1-0.2,2,1,1.5,2
					c-0.7,1.5-2,2.8-3.8,3.2l-68.1,18.1c-3.1,0.8-6.2-1-7-4.1l-4.9-18.4c-0.8-3,1-6.1,4.1-6.9l37-9.9c3-0.8,4.9-3.9,4-7l-17-63.3
					c-0.8-3,1-6.2,4-7l20-5.3C957.4,134.4,960.6,136.2,961.4,139.2z"/>
				
					<ellipse transform="matrix(0.9661 -0.2582 0.2582 0.9661 -8.5112 255.701)" class="st4" cx="969.4" cy="160.3" rx="12.7" ry="15.3"/>
				
					<ellipse transform="matrix(0.9661 -0.2582 0.2582 0.9661 -17.0997 258.7774)" class="st4" cx="976.8" cy="194.5" rx="9.6" ry="11.5"/>
				
					<ellipse transform="matrix(0.9661 -0.2582 0.2582 0.9661 -23.7468 261.5287)" class="st4" cx="983.9" cy="221.2" rx="6" ry="7.2"/>
			</g>
		</g>
		<g>
			<path class="st2" d="M831.8-36.4c-17.8,14.5-43.5,8.6-53,5.7c-2.1-0.6-4.3,0.7-4.8,2.9c-17.6,70.8,14.7,89.8,27.6,97.4
				c1.1,0.7,2.4,1,3.7,1.1c15,0.7,52.5,2.2,76-66.8c0.7-2.1-0.4-4.4-2.5-5c-9.6-2.7-34.4-11.7-41.4-33.5
				C836.8-37.2,833.8-38,831.8-36.4z"/>
			<path class="st3" d="M875.9,18.1c-2.7,6.3-5.5,11.8-8.5,16.7c-24.3,14.5-77.3-20.9-94.6,1.3c-2.9-8.6-4.5-19.2-3.8-32.6
				C819-2.8,839.3,31.3,875.9,18.1z"/>
			<path class="st2" d="M828.5-22.7c-13.7,11.2-33.5,6.6-40.8,4.4c-1.6-0.5-3.3,0.5-3.7,2.2c-13.9,55.9,12.6,69.9,22,75.4
				c0.4,0.2,0.8,0.4,1.3,0.4c10.9,0.5,40.8,3.1,59.4-51.4c0.6-1.7-0.3-3.4-1.9-3.9c-7.4-2.1-26.5-9-31.9-25.8
				C832.3-23.3,830-24,828.5-22.7z"/>
			<path class="st3" d="M806.1,61.3c-0.7-0.2-1.4-0.5-2.1-0.9c-15.4-9-34.4-26.7-21.9-77c0.3-1.3,1.2-2.5,2.4-3.2
				c1.2-0.7,2.4-0.8,3.7-0.4c7.4,2.3,26.2,6.5,39-4c1.2-1,2.8-1.3,4.3-0.9s2.7,1.6,3.1,3.1c5.1,15.8,23.1,22.5,30.6,24.6
				c1.2,0.4,2.3,1.2,2.9,2.4c0.6,1.2,0.7,2.7,0.3,4c-16.7,49-42.3,53.6-60.1,52.8C807.6,61.6,806.8,61.5,806.1,61.3z M787.1-16.5
				c-0.3-0.1-0.5,0-0.7,0.1c-0.3,0.2-0.5,0.4-0.6,0.8c-13.3,53.2,11,67.4,20.1,72.7c0.8,0.5,1.7,0.7,2.6,0.8
				c10.6,0.5,38.6,1.7,56.3-50.2c0.1-0.3,0.1-0.7-0.1-0.9c-0.1-0.2-0.2-0.4-0.5-0.5l0,0c-8.1-2.3-27.5-9.5-33.2-27.1
				c-0.1-0.4-0.4-0.5-0.6-0.6c-0.2,0-0.5-0.1-0.8,0.2C815.4-9.6,795.2-14.1,787.1-16.5L787.1-16.5z"/>
			<g>
				<path class="st4" d="M850.1,18.6c-0.3,0.2-0.7,0.1-0.9-0.3c-1.8-3.4-7.1-5-11.9-2.3c-3.4,1.9-5.4,5.2-5.3,8.3
					c0,0.5-0.5,0.9-1,0.6c-4.8-2.9-12.5,1.3-12.6,7c0,0.5-0.5,0.8-0.9,0.6c-4.4-1.8-9.9,3.2-8.1,7.1c0.2,0.5-0.2,1-0.7,0.9
					c-0.8-0.1-1.5-0.6-1.9-1.4l-15.8-29.1c-0.7-1.3-0.2-2.9,1.1-3.7l7.9-4.3c1.3-0.7,2.9-0.2,3.6,1.1l8.6,15.8
					c0.7,1.3,2.3,1.8,3.6,1.1l27.1-14.8c1.3-0.7,2.9-0.2,3.6,1.1l4.6,8.5C851.9,16.3,851.4,17.9,850.1,18.6z"/>
				<ellipse transform="matrix(0.8782 -0.4783 0.4783 0.8782 90.7084 405.437)" class="st4" cx="841.4" cy="24.6" rx="7.2" ry="6"/>
				
					<ellipse transform="matrix(0.8782 -0.4783 0.4783 0.8782 85.4617 399.2126)" class="st4" cx="826.5" cy="31.8" rx="5.4" ry="4.5"/>
				
					<ellipse transform="matrix(0.8782 -0.4783 0.4783 0.8782 81.0913 394.5104)" class="st4" cx="815.1" cy="38" rx="3.4" ry="2.8"/>
			</g>
		</g>
		<g>
			<path class="st2" d="M710.4-60.7c-30.3-10.9-41.6-46.1-44.9-59.7c-0.7-2.9-3.9-4.6-6.9-3.7C560.7-94.4,561-41.9,561.2-20.8
				c0,1.8,0.5,3.6,1.4,5.3c10,18.5,35.1,64.7,135.1,43.5c3.1-0.7,5.1-3.7,4.3-6.6c-3.6-13.5-10.7-49.8,10.6-73.9
				C714.9-55.3,713.8-59.5,710.4-60.7z"/>
			<path class="st3" d="M676.5,31.6c-9.5,1.3-18.2,1.8-26.2,1.8C615.5,14.6,620-74.7,580.8-79.6c8.2-9.6,19.9-19.2,36.5-28
				C660.7-52,634.4-3,676.5,31.6z"/>
			<path class="st2" d="M691.6-54.9c-23.3-8.4-32.1-35.5-34.6-46c-0.6-2.3-3-3.6-5.3-2.9c-77.3,23.4-75.1,65.4-75,80.7
				c0,0.6,0.2,1.2,0.5,1.8c7.3,13.5,25.6,51.3,104.6,34.6c2.4-0.5,3.9-2.8,3.3-5.1c-2.8-10.4-8.2-38.3,8.1-56.9
				C695-50.7,694.2-53.9,691.6-54.9z"/>
			<path class="st3" d="M574.4-21.4c-0.3-1-0.4-2.1-0.4-3.2c-0.2-25,7.5-60.6,76.9-81.7c1.9-0.6,3.9-0.3,5.5,0.6
				c1.6,0.9,2.7,2.4,3.2,4.2c2.6,10.6,11,36.1,32.9,44.1c2.1,0.7,3.6,2.5,4.2,4.6c0.5,2.1,0,4.4-1.5,6c-15.4,17.5-10.4,44-7.6,54.5
				c0.4,1.7,0.2,3.6-0.8,5.2c-1,1.6-2.7,2.8-4.6,3.2c-71,15.1-94.9-12.4-106.7-34.4C575-19.3,574.7-20.4,574.4-21.4z M654.3-100.2
				c-0.1-0.4-0.4-0.6-0.6-0.8c-0.4-0.2-0.9-0.3-1.3-0.1c-73.6,22.3-73.2,61.6-73.1,76.5c0,1.3,0.3,2.6,1,3.7
				c7,13,25.7,47.7,100.9,31.7c0.5-0.1,0.9-0.4,1.1-0.8c0.1-0.2,0.3-0.6,0.2-1l0,0c-3-11.4-8.4-40,8.7-59.4c0.4-0.4,0.3-0.9,0.3-1.1
				c-0.1-0.2-0.2-0.6-0.8-0.8C666.3-61.1,657.2-88.7,654.3-100.2L654.3-100.2z"/>
			<g>
				<path class="st4" d="M657.3,0.9c-0.4-0.3-0.6-0.8-0.3-1.3c2.8-4.6,0.9-12.1-5.8-16c-4.7-2.7-10.1-2.8-13.8-0.4
					c-0.6,0.4-1.4,0-1.4-0.8c0-7.9-10.5-14.1-17.4-10.1c-0.6,0.3-1.3,0-1.4-0.6c-1-6.6-11-9.6-14.4-4.6c-0.4,0.6-1.4,0.5-1.6-0.2
					c-0.4-1-0.3-2.2,0.3-3.3l23.7-40c1.1-1.8,3.4-2.4,5.2-1.3l10.8,6.4c1.8,1.1,2.4,3.4,1.3,5.2l-12.9,21.7
					c-1.1,1.8-0.5,4.1,1.3,5.2l37.3,22c1.8,1.1,2.4,3.4,1.3,5.2l-6.9,11.7C661.4,1.4,659.1,2,657.3,0.9z"/>
				
					<ellipse transform="matrix(0.5087 -0.8609 0.8609 0.5087 320.8696 551.6788)" class="st4" cx="643.8" cy="-5.3" rx="8.4" ry="10.1"/>
				
					<ellipse transform="matrix(0.5087 -0.8609 0.8609 0.5087 322.3096 528.8073)" class="st4" cx="624.5" cy="-18" rx="6.3" ry="7.6"/>
				
					<ellipse transform="matrix(0.5087 -0.8609 0.8609 0.5087 322.5699 510.7376)" class="st4" cx="608.8" cy="-27.3" rx="4" ry="4.8"/>
			</g>
		</g>
		<g>
			<path class="st2" d="M1061.8-87.2c-18.1,26.5-54.9,28.8-68.8,28.6c-3,0-5.4,2.6-5.3,5.8C992,49,1042.9,61.8,1063.2,66.8
				c1.8,0.4,3.6,0.4,5.4,0c20.4-5,71.2-17.8,75.6-119.7c0.1-3.2-2.3-5.8-5.3-5.8c-13.9,0.2-50.7-2-68.8-28.6
				C1068.1-90.1,1063.8-90.1,1061.8-87.2z"/>
			<path class="st3" d="M1142.5-31.5c-1.1,9.5-2.7,18-4.8,25.7c-26.8,29-112,2.5-126.4,39.2c-7.2-10.4-13.6-24-18-42.3
				C1057.8-37,1098.6,0.6,1142.5-31.5z"/>
			<path class="st2" d="M1062.7-67.5c-13.9,20.4-42.3,22.1-53,22c-2.3,0-4.2,2-4.1,4.4c3.4,80.5,44.6,88.8,59.4,92.5
				c0.6,0.2,1.2,0.2,1.8,0c14.8-3.7,55.9-12,59.4-92.5c0.1-2.4-1.8-4.5-4.1-4.4c-10.7,0.1-39.1-1.6-53-22
				C1067.6-69.8,1064.3-69.8,1062.7-67.5z"/>
			<path class="st3" d="M1066,54c-1.1,0-2.1-0.1-3.2-0.4c-24.2-6-56.7-22.3-59.8-94.6c-0.1-1.9,0.6-3.8,2-5.2c1.3-1.3,3-2,4.8-2
				c10.9,0.1,37.7-1.6,50.7-20.8c1.2-1.8,3.3-2.9,5.4-2.9s4.2,1.1,5.4,2.9c13.1,19.2,39.9,21,50.7,20.8c1.8,0,3.5,0.7,4.8,2
				c1.3,1.4,2,3.3,2,5.2c-3.1,72.3-35.6,88.6-59.8,94.6C1068.1,53.9,1067,54,1066,54z M1009.7-42.8c-0.4,0-0.7,0.2-0.9,0.4
				c-0.3,0.3-0.5,0.8-0.5,1.2c3.3,76.7,41.4,86,55.7,89.6c1.2,0.3,2.6,0.3,3.8,0c14.3-3.5,52.4-12.9,55.7-89.6
				c0-0.5-0.1-0.9-0.5-1.2c-0.2-0.2-0.5-0.4-0.9-0.4h0c-11.7,0.1-40.7-1.8-55.2-23.2c-0.3-0.5-0.8-0.6-1-0.6s-0.7,0.1-1,0.6
				C1050.4-44.7,1021.5-42.7,1009.7-42.8L1009.7-42.8z"/>
			<g>
				<path class="st4" d="M1108.1-20.6c-0.4,0.4-0.9,0.4-1.3,0c-3.8-3.8-11.4-3.9-16.9,1.6c-3.8,3.8-5.2,9-3.8,13.2
					c0.2,0.7-0.4,1.4-1.1,1.2c-7.6-2-16.2,6.6-14.1,14.3c0.2,0.6-0.3,1.3-0.9,1.2c-6.6-0.7-12,8.2-8,12.7c0.5,0.5,0.1,1.4-0.6,1.5
					c-1.1,0.1-2.2-0.2-3.1-1.1l-32.8-32.8c-1.5-1.5-1.5-3.9,0-5.3l8.9-8.8c1.5-1.4,3.8-1.4,5.3,0L1057.4-5c1.5,1.5,3.8,1.5,5.3,0
					l30.5-30.5c1.5-1.5,3.8-1.5,5.3,0l9.6,9.6C1109.6-24.4,1109.6-22,1108.1-20.6z"/>
				
					<ellipse transform="matrix(0.7071 -0.7071 0.7071 0.7071 328.2433 774.2692)" class="st4" cx="1098.7" cy="-9.1" rx="10.1" ry="8.4"/>
				
					<ellipse transform="matrix(0.7071 -0.7071 0.7071 0.7071 312.2763 766.7438)" class="st4" cx="1081.7" cy="6.4" rx="7.6" ry="6.3"/>
				
					<ellipse transform="matrix(0.7071 -0.7071 0.7071 0.7071 299.4124 761.4266)" class="st4" cx="1068.8" cy="19.3" rx="4.8" ry="4"/>
			</g>
		</g>
		<g>
			<path class="st2" d="M1258.8,98.2c-35.6,11.7-71.2-12.4-84-22.5c-2.8-2.2-6.9-1.5-9,1.6c-68.4,97.4-30.4,145.4-15.1,164.5
				c1.3,1.7,3.1,3,5,3.9c22.4,9.8,78.6,34.2,155-57.1c2.4-2.8,2-7-0.8-9.1c-13-9.7-45.5-38-43.4-75.4
				C1266.8,100,1262.7,96.9,1258.8,98.2z"/>
			<path class="st3" d="M1293.9,207.1c-7.8,8-15.4,14.7-22.7,20.4c-45.4,7.8-105.4-77.3-144.8-53.6c0.7-14.7,4.5-31.9,13.4-51.9
				C1219.5,141.9,1230.5,205.7,1293.9,207.1z"/>
			<path class="st2" d="M1245.7,117.1c-27.4,9-54.9-9.6-64.7-17.3c-2.1-1.7-5.3-1.1-6.9,1.2c-54.1,76.9-21.9,113.9-10.8,127.8
				c0.5,0.6,1,1,1.7,1.3c16.3,7.1,60.3,28.7,120.7-43.4c1.8-2.2,1.6-5.4-0.6-7c-10-7.5-35-29.2-33.4-58.1
				C1251.9,118.4,1248.8,116.1,1245.7,117.1z"/>
			<path class="st3" d="M1162.3,231.8c-1-0.8-1.9-1.6-2.7-2.6c-18.1-22.7-36.7-60.9,11.9-130c1.3-1.9,3.3-3.1,5.5-3.4
				c2.1-0.3,4.2,0.2,5.9,1.6c10,7.9,36,25.2,61.8,16.8c2.4-0.8,5.1-0.4,7.1,1.2c2,1.5,3.1,4,3,6.5c-1.5,27.1,22,47.8,32.1,55.4
				c1.6,1.3,2.8,3.2,3,5.3c0.3,2.2-0.4,4.5-1.9,6.2c-54.2,64.7-95.9,56.7-122.6,45C1164.4,233.3,1163.3,232.6,1162.3,231.8z
				 M1179.1,102.2c-0.4-0.3-0.8-0.3-1.1-0.3c-0.5,0.1-1,0.4-1.3,0.8c-51.5,73.3-22.9,109-12.1,122.5c0.9,1.2,2.2,2.1,3.5,2.7
				c15.8,6.9,57.7,25.3,115.2-43.3c0.4-0.4,0.5-1,0.5-1.5c0-0.3-0.2-0.7-0.6-1l0,0c-10.9-8.2-36.4-30.6-34.6-60.7
				c0-0.7-0.3-1.1-0.5-1.2c-0.2-0.2-0.7-0.4-1.3-0.2C1218,129.5,1189.9,110.7,1179.1,102.2L1179.1,102.2z"/>
			<g>
				<path class="st4" d="M1254.3,192.8c-0.6,0.1-1.1-0.3-1.2-0.9c-0.8-6.2-7.8-11.7-16.8-10.5c-6.2,0.8-11.2,4.7-12.9,9.5
					c-0.3,0.8-1.3,1-1.9,0.3c-5.6-7.2-19.7-5.4-23.3,3.2c-0.3,0.7-1.2,1-1.7,0.4c-5.6-5.3-17-0.9-16.5,6.1c0.1,0.9-0.9,1.4-1.7,1
					c-1.1-0.7-1.9-1.8-2.1-3.2l-7-53.7c-0.3-2.4,1.4-4.6,3.8-4.9l14.5-1.9c2.4-0.3,4.6,1.4,4.9,3.8l3.8,29.2
					c0.3,2.4,2.5,4.1,4.9,3.8l49.9-6.6c2.4-0.3,4.6,1.4,4.9,3.8l2.1,15.7C1258.4,190.3,1256.7,192.5,1254.3,192.8z"/>
				
					<ellipse transform="matrix(0.9915 -0.13 0.13 0.9915 -15.0804 162.5908)" class="st4" cx="1237.5" cy="196.8" rx="11.7" ry="9.8"/>
				<ellipse transform="matrix(0.9915 -0.13 0.13 0.9915 -15.5972 159.1218)" class="st4" cx="1210.7" cy="199" rx="8.9" ry="7.4"/>
				
					<ellipse transform="matrix(0.9915 -0.13 0.13 0.9915 -16.1368 156.4093)" class="st4" cx="1189.6" cy="201.8" rx="5.5" ry="4.6"/>
			</g>
		</g>
		<g>
			<path class="st2" d="M1138.6,484.3c6.1-40.5,47.2-63.4,63.3-70.9c3.5-1.6,4.8-6,2.9-9.6c-61.3-114.8-126.9-101.4-153.1-95.9
				c-2.3,0.5-4.4,1.5-6.2,3c-20.7,17-72.1,59.9-20.7,179.4c1.6,3.7,5.8,5.4,9.3,3.7c15.9-7.9,59.5-25.7,94.9-5.2
				C1132.9,491.2,1137.9,488.8,1138.6,484.3z"/>
			<path class="st3" d="M1014.9,464.8c-3.9-11.5-6.8-22.2-8.7-32.2c14.8-48.1,127.4-64.8,123.7-114.9c14.1,7.9,29,20.1,44,38.7
				C1115.3,424.4,1047.6,403.7,1014.9,464.8z"/>
			<path class="st2" d="M1126.6,462.2c4.7-31.2,36.4-48.8,48.8-54.6c2.7-1.3,3.7-4.6,2.2-7.4c-48.4-90.7-100.3-77.5-119.4-73.5
				c-0.8,0.2-1.5,0.5-2.1,1c-15,12.4-57.7,44.7-17.2,139.2c1.2,2.9,4.5,4.2,7.1,2.9c12.3-6.1,45.8-19.8,73.1-4
				C1122.3,467.5,1126.1,465.7,1126.6,462.2z"/>
			<path class="st3" d="M1055.7,324.2c1.2-0.6,2.5-1,3.9-1.3c31.1-6.5,77.5-5.7,121,75.7c1.2,2.2,1.4,4.8,0.6,7.1
				c-0.7,2.2-2.3,3.9-4.4,5c-12.6,5.9-42.4,22.7-46.8,52c-0.4,2.8-2.2,5.1-4.7,6.3c-2.5,1.2-5.4,1.1-7.9-0.3
				c-25.7-14.9-57.5-2.1-69.9,4.1c-2.1,0.9-4.5,1.2-6.7,0.3c-2.3-0.8-4.2-2.6-5.1-4.9c-36.4-84.9-8-121.6,16.5-141.8
				C1053.3,325.5,1054.5,324.8,1055.7,324.2z M1173.9,404.5c0.5-0.2,0.7-0.6,0.8-1c0.2-0.5,0.1-1.2-0.2-1.7
				c-46.1-86.3-95.1-76.1-113.6-72.2c-1.6,0.3-3.1,1.1-4.4,2.1c-14.5,12-53.2,43.9-14.5,133.8c0.2,0.6,0.7,1,1.2,1.2
				c0.3,0.1,0.8,0.2,1.3,0l0,0c13.4-6.6,47.8-20.4,76.4-3.9c0.6,0.4,1.2,0.2,1.5,0.1s0.7-0.5,0.8-1.2
				C1128.1,429.1,1160.3,410.8,1173.9,404.5L1173.9,404.5z"/>
			<g>
				<path class="st4" d="M1048.5,433.3c0.2-0.6,0.9-0.9,1.5-0.7c6.5,2.3,15.3-1.9,18.6-11.2c2.3-6.5,0.9-13.2-2.9-17.3
					c-0.6-0.7-0.3-1.8,0.6-2c9.8-1.9,15-16.6,8.3-24.3c-0.5-0.6-0.4-1.6,0.4-1.9c7.9-2.9,9.2-16.1,2.2-19.1
					c-0.9-0.4-0.9-1.6-0.1-2.1c1.2-0.8,2.7-1,4.1-0.5l55.8,19.6c2.5,0.9,3.8,3.6,2.9,6.1l-5.3,15.1c-0.9,2.5-3.6,3.8-6.1,2.9
					l-30.3-10.7c-2.5-0.9-5.2,0.4-6.1,2.9l-18.2,52c-0.9,2.5-3.6,3.8-6.1,2.9l-16.4-5.8C1048.9,438.5,1047.6,435.8,1048.5,433.3z"/>
				
					<ellipse transform="matrix(0.3309 -0.9436 0.9436 0.3309 312.9215 1271.1219)" class="st4" cx="1052.9" cy="414.9" rx="12.8" ry="10.7"/>
				
					<ellipse transform="matrix(0.3309 -0.9436 0.9436 0.3309 346.0535 1263.3047)" class="st4" cx="1063.9" cy="387.6" rx="9.7" ry="8.1"/>
				
					<ellipse transform="matrix(0.3309 -0.9436 0.9436 0.3309 371.851 1255.8816)" class="st4" cx="1071.6" cy="365.7" rx="6.1" ry="5.1"/>
			</g>
		</g>
		<g>
			<path class="st2" d="M1388.2,300.9c-38.1,29.5-91.7,15.7-111.5,9c-4.3-1.4-9,1.2-10.2,5.8c-41,147.6,25.8,189.4,52.6,205.9
				c2.3,1.5,5,2.3,7.7,2.5c31.4,2.3,110,7.5,163.3-136c1.7-4.5-0.6-9.3-4.9-10.7c-20-6.2-71.5-26.4-85.1-72.7
				C1398.6,299.6,1392.4,297.6,1388.2,300.9z"/>
			<path class="st3" d="M1477.7,417.8c-6,13-12.3,24.5-18.7,34.5c-51.7,29-161.1-48.2-198.7-2.5c-5.6-18.1-8.3-40.6-6.1-68.7
				C1359.3,370.8,1400.2,443.4,1477.7,417.8z"/>
			<path class="st2" d="M1380.4,329.4c-29.3,22.8-70.6,12.1-85.9,6.9c-3.3-1.1-6.9,0.9-7.9,4.5c-32.4,116.6,22.6,147.5,42,159.6
				c0.8,0.5,1.7,0.8,2.6,0.8c22.9,1.6,85.5,8.8,127.6-104.6c1.3-3.4-0.4-7.2-3.8-8.2c-15.4-4.8-55.1-20.3-65.5-56
				C1388.5,328.4,1383.7,326.9,1380.4,329.4z"/>
			<path class="st3" d="M1328.8,504.5c-1.5-0.5-3-1.2-4.4-2c-31.8-19.7-70.7-58-41.6-162.8c0.8-2.8,2.7-5.2,5.2-6.5
				c2.5-1.3,5.2-1.5,7.8-0.7c15.5,5.2,54.5,15.1,82.1-6.3c2.6-2,6-2.6,9.1-1.6c3.1,1,5.5,3.5,6.4,6.7c9.8,33.5,47.3,48.4,62.8,53.3
				c2.5,0.9,4.7,2.6,6,5.1c1.3,2.6,1.4,5.6,0.4,8.3c-37.9,101.9-91.8,110.1-129.2,107.4C1331.9,505.3,1330.3,505,1328.8,504.5z
				 M1293.2,340.2c-0.6-0.2-1.1,0-1.5,0.2c-0.6,0.3-1,0.9-1.2,1.6c-30.8,111,19.3,142.1,38.1,153.8c1.6,1,3.5,1.6,5.4,1.8
				c22.1,1.6,80.9,5.8,121-102.2c0.2-0.7,0.2-1.4-0.1-2c-0.2-0.3-0.5-0.8-1.1-1l0,0c-16.8-5.3-57.3-21.5-68.2-58.7
				c-0.2-0.8-0.8-1.1-1.2-1.2c-0.3-0.1-1-0.2-1.7,0.3C1352.2,356.4,1310,345.8,1293.2,340.2L1293.2,340.2z"/>
			<g>
				<path class="st4" d="M1423.5,417.5c-0.7,0.3-1.5,0.1-1.9-0.6c-3.6-7.2-14.6-10.8-24.9-5.5c-7.2,3.7-11.6,10.5-11.6,17.1
					c0,1.1-1.2,1.8-2.1,1.2c-9.9-6.3-26.3,2-26.8,13.9c0,1-1,1.7-1.9,1.3c-9.1-4-21,6.2-17.4,14.5c0.4,1-0.5,2.1-1.6,1.9
					c-1.6-0.3-3.1-1.4-3.9-3l-31.6-62c-1.4-2.8-0.3-6.2,2.5-7.6l16.8-8.5c2.8-1.4,6.1-0.3,7.6,2.5l17.2,33.7
					c1.4,2.8,4.8,3.9,7.6,2.5l57.7-29.5c2.8-1.4,6.2-0.3,7.6,2.5l9.3,18.2C1427.4,412.7,1426.3,416.1,1423.5,417.5z"/>
				
					<ellipse transform="matrix(0.8906 -0.4548 0.4548 0.8906 -41.6802 685.8665)" class="st4" cx="1404.8" cy="429.6" rx="15.1" ry="12.6"/>
				
					<ellipse transform="matrix(0.8906 -0.4548 0.4548 0.8906 -51.6169 673.0747)" class="st4" cx="1373.3" cy="443.8" rx="11.4" ry="9.5"/>
				
					<ellipse transform="matrix(0.8906 -0.4548 0.4548 0.8906 -59.9323 663.379)" class="st4" cx="1349" cy="456.3" rx="7.1" ry="6"/>
			</g>
		</g>
		<g>
			<path class="st2" d="M1419.5,141.1c-11.7,25.7-43.2,33.1-55.3,35c-2.6,0.4-4.3,3.1-3.7,5.8c19,87.5,64.9,91,83.3,92.3
				c1.6,0.1,3.2-0.2,4.7-0.8c16.9-7.4,59-26,47.5-114.9c-0.4-2.8-2.8-4.7-5.4-4.2c-12,2.2-44.2,5.8-63.8-14.5
				C1424.5,137.6,1420.7,138.3,1419.5,141.1z"/>
			<path class="st3" d="M1497.6,177.3c0.4,8.4,0.3,16-0.3,23c-18.9,29.1-96.5,18.9-103.5,52.8c-7.8-7.9-15.4-18.8-21.8-33.9
				C1423.6,185.1,1464.5,211.6,1497.6,177.3z"/>
			<path class="st2" d="M1423.2,158c-9,19.8-33.3,25.5-42.6,27c-2,0.3-3.3,2.4-2.9,4.5c15,69.2,51.8,70.2,65.2,71.2
				c0.5,0,1.1-0.1,1.6-0.3c12.3-5.4,46.6-18.7,37.6-88.9c-0.3-2.1-2.2-3.6-4.2-3.2c-9.3,1.7-34,4.5-49.1-11.1
				C1427.1,155.3,1424.2,155.8,1423.2,158z"/>
			<path class="st3" d="M1444.2,262.7c-0.9,0.2-1.9,0.2-2.8,0.1c-21.8-1.6-52.4-10.8-65.9-72.9c-0.4-1.7,0-3.4,0.9-4.8
				c0.9-1.3,2.3-2.2,3.9-2.5c9.4-1.5,32.3-7,40.8-25.6c0.8-1.8,2.4-3,4.3-3.3s3.8,0.3,5.1,1.7c14.2,14.7,37.6,12.2,47,10.5
				c1.6-0.2,3.2,0.1,4.5,1c1.4,1,2.3,2.5,2.5,4.2c8.1,63-17.6,82-37.6,90.8C1446,262.2,1445.1,262.5,1444.2,262.7z M1381,187.3
				c-0.4,0.1-0.6,0.3-0.7,0.5c-0.2,0.3-0.3,0.7-0.2,1.1c14.3,65.8,48.6,68.3,61.6,69.2c1.1,0.1,2.3-0.1,3.3-0.6
				c11.9-5.2,43.5-19,34.8-85.8c-0.1-0.4-0.3-0.8-0.6-1c-0.2-0.1-0.5-0.3-0.8-0.2l0,0c-10.1,1.9-35.5,4.5-51.3-11.8
				c-0.4-0.4-0.7-0.4-0.9-0.3s-0.6,0.2-0.8,0.6C1416,179.6,1391.2,185.6,1381,187.3L1381,187.3z"/>
			<g>
				<path class="st4" d="M1469.5,191.9c-0.3,0.4-0.8,0.5-1.1,0.2c-3.8-2.8-10.5-1.6-14.4,3.9c-2.7,3.9-3.1,8.6-1.3,12
					c0.3,0.6-0.1,1.2-0.8,1.2c-6.9-0.6-13.1,8.2-10.1,14.5c0.2,0.5-0.1,1.1-0.6,1.2c-5.8,0.4-9.2,8.9-5,12.2
					c0.5,0.4,0.3,1.2-0.3,1.4c-0.9,0.3-2,0.1-2.8-0.5l-33.2-23.5c-1.5-1.1-1.8-3.1-0.8-4.6l6.4-9c1.1-1.5,3.1-1.8,4.6-0.8l18.1,12.8
					c1.5,1.1,3.5,0.7,4.6-0.8l21.8-31c1-1.5,3.1-1.8,4.6-0.8l9.7,6.9C1470.2,188.3,1470.5,190.4,1469.5,191.9z"/>
				
					<ellipse transform="matrix(0.5766 -0.817 0.817 0.5766 453.4972 1281.4485)" class="st4" cx="1463.1" cy="203.2" rx="8.8" ry="7.4"/>
				
					<ellipse transform="matrix(0.5766 -0.817 0.817 0.5766 435.1749 1278.0358)" class="st4" cx="1450.7" cy="219.2" rx="6.7" ry="5.6"/>
				
					<ellipse transform="matrix(0.5766 -0.817 0.817 0.5766 420.6131 1276.0479)" class="st4" cx="1441.5" cy="232.2" rx="4.2" ry="3.5"/>
			</g>
		</g>
		<g>
			<path class="st2" d="M1740,166.3c-35.8-21.5-41.4-69.2-42.2-87.3c-0.2-3.9-3.8-6.9-7.9-6.5c-132,13.1-144.9,80.1-149.9,106.9
				c-0.4,2.4-0.3,4.8,0.4,7c8,26.1,28.4,91.2,161,89.3c4.1-0.1,7.4-3.4,7.1-7.3c-1.2-18.1-1.1-66,32.1-91.5
				C1744.2,174.4,1743.9,168.7,1740,166.3z"/>
			<path class="st3" d="M1673.5,275.3c-12.4-0.8-23.6-2.2-33.7-4.3c-39.6-32.7-11.5-145.2-60.2-161.3c12.9-10.2,30.2-19.5,53.6-26.4
				C1674.5,164.9,1628.6,220.7,1673.5,275.3z"/>
			<path class="st2" d="M1714.5,169c-27.6-16.6-31.9-53.3-32.5-67.2c-0.1-3-2.9-5.3-6.1-5c-104.3,10.4-112,64.4-115.7,83.9
				c-0.2,0.8-0.1,1.6,0.1,2.4c5.9,19,19.7,71.8,124.5,70.3c3.2,0,5.7-2.6,5.5-5.6c-1-13.9-0.8-50.9,24.7-70.4
				C1717.8,175.2,1717.6,170.9,1714.5,169z"/>
			<path class="st3" d="M1556.9,182.1c-0.1-1.4,0-2.8,0.3-4.2c6-31.9,24.7-75.3,118.4-84.6c2.5-0.2,5,0.5,6.9,2.2
				c1.8,1.6,2.8,3.7,3,6.1c0.6,14.1,4.9,48.8,30.8,64.4c2.4,1.5,4,4,4.2,6.9s-1.1,5.5-3.4,7.3c-24,18.4-24.3,53.3-23.3,67.4
				c0.1,2.3-0.7,4.7-2.3,6.4c-1.7,1.8-4.1,2.9-6.6,2.9c-94.1,1.3-117.7-39.7-127.2-70.7C1557.2,184.9,1557,183.5,1556.9,182.1z
				 M1678.5,102c0-0.6-0.3-0.9-0.6-1.1c-0.4-0.4-1-0.6-1.7-0.5c-99.3,9.9-108.7,60-112.3,78.9c-0.3,1.6-0.2,3.4,0.3,4.9
				c5.7,18.4,20.7,67.2,120.4,65.8c0.6,0,1.2-0.3,1.6-0.7c0.2-0.2,0.5-0.6,0.4-1.2l0,0c-1-15.2-0.6-53,26.1-73.4
				c0.6-0.5,0.7-1,0.6-1.3c0-0.3-0.1-0.9-0.8-1.3C1683.9,154.7,1679.2,117.3,1678.5,102L1678.5,102z"/>
			<g>
				<path class="st4" d="M1656.8,231.4c-0.5-0.4-0.5-1.2-0.1-1.7c4.7-5.2,4.2-15.2-3.3-21.9c-5.2-4.7-12.1-6-17.4-4
					c-0.9,0.3-1.8-0.4-1.6-1.4c2-10-9.8-20.6-19.6-17.3c-0.8,0.3-1.7-0.3-1.6-1.1c0.4-8.6-11.6-15-17.1-9.5c-0.7,0.7-1.8,0.2-2-0.7
					c-0.2-1.4,0.1-2.9,1.2-4.1l40.2-45c1.8-2,4.9-2.2,6.9-0.4l12.1,10.9c2,1.8,2.2,4.9,0.4,6.9l-21.8,24.4c-1.8,2-1.6,5.1,0.4,6.9
					l41.9,37.4c2,1.8,2.2,4.9,0.4,6.9l-11.8,13.2C1661.9,233,1658.8,233.2,1656.8,231.4z"/>
				
					<ellipse transform="matrix(0.666 -0.7459 0.7459 0.666 383.9451 1297.7363)" class="st4" cx="1641.2" cy="220.1" rx="10.9" ry="13.1"/>
				
					<ellipse transform="matrix(0.666 -0.7459 0.7459 0.666 392.4819 1274.7531)" class="st4" cx="1619.8" cy="199.1" rx="8.2" ry="9.9"/>
				
					<ellipse transform="matrix(0.666 -0.7459 0.7459 0.666 398.3276 1256.3243)" class="st4" cx="1602.2" cy="183.3" rx="5.2" ry="6.2"/>
			</g>
		</g>
		<g>
			<path class="st2" d="M1697,12.4c-5.5-44.7,31.1-81.1,45.9-93.8c3.2-2.8,3.3-7.8,0.2-11c-98.9-103.2-164.3-69.6-190.4-56
				c-2.3,1.2-4.2,2.9-5.7,5c-16.8,24.1-58.5,84.7,31.3,196c2.8,3.5,7.8,4,10.9,1.2c14.5-13.1,55.3-44.8,98.9-33.6
				C1693,21.4,1697.6,17.4,1697,12.4z"/>
			<path class="st3" d="M1560.4,28.5c-7.6-11-13.8-21.5-18.8-31.5c1.4-55.3,115.5-106.3,96.7-158.3c17.2,4.2,36.6,12.7,58,27.8
				C1654.6-44.1,1576.9-45.9,1560.4,28.5z"/>
			<path class="st2" d="M1677.8-7.4c-4.3-34.4,24-62.5,35.4-72.2c2.5-2.1,2.5-6,0.2-8.5c-78.2-81.6-129.1-52.2-148.1-42.4
				c-0.8,0.4-1.4,1-1.9,1.7c-12.2,17.6-47.8,64.4,23.1,152.3c2.1,2.7,6,3.1,8.4,0.9c11.2-10.1,42.6-34.5,76.2-25.9
				C1674.8-0.5,1678.2-3.5,1677.8-7.4z"/>
			<path class="st3" d="M1561.8-132.3c1.1-1,2.4-1.9,3.7-2.6c31-16.1,80.3-29.1,150.5,44.2c1.9,2,2.9,4.6,2.8,7.3
				c-0.1,2.6-1.3,4.9-3.2,6.6c-11.6,9.9-38.1,36.6-34.1,68.9c0.4,3.1-0.8,6.1-3,8.1c-2.3,2-5.4,2.8-8.4,2
				c-31.6-8.1-61.4,14.9-72.7,25c-1.9,1.6-4.4,2.5-7,2.3c-2.7-0.2-5.2-1.6-6.9-3.7c-63.7-78.9-44.6-126.2-24.6-154.9
				C1559.7-130.2,1560.7-131.3,1561.8-132.3z M1710.7-82.5c0.4-0.4,0.6-0.9,0.6-1.3c0-0.6-0.2-1.3-0.7-1.7
				c-74.4-77.7-123.2-52.3-141.6-42.7c-1.6,0.8-3,2-4,3.5c-11.8,17-43.2,62.2,24.3,145.9c0.4,0.5,1,0.8,1.6,0.9c0.4,0,0.9,0,1.3-0.4
				l0,0c12.2-11,44.5-35.7,79.6-26.7c0.8,0.2,1.3-0.1,1.6-0.3c0.2-0.2,0.6-0.7,0.5-1.5C1669.6-42.9,1698.2-71.7,1710.7-82.5
				L1710.7-82.5z"/>
			<g>
				<path class="st4" d="M1586.5-14.8c0-0.7,0.7-1.3,1.4-1.2c7.5,0.5,15.6-6.5,16.3-17.4c0.5-7.5-2.9-14.3-8.2-17.4
					c-0.9-0.5-0.8-1.8,0.1-2.3c9.8-5,11-22,1.6-28.2c-0.8-0.5-0.9-1.6-0.1-2.1c7.5-5.4,5-19.8-3.4-20.8c-1-0.1-1.4-1.4-0.7-2.2
					c1-1.2,2.6-1.8,4.2-1.7l64.9,4.2c2.9,0.2,5.1,2.7,4.9,5.6l-1.2,17.5c-0.2,2.9-2.7,5.1-5.6,4.9l-35.3-2.3c-2.9-0.2-5.4,2-5.6,4.9
					l-3.8,60.4c-0.2,2.9-2.7,5.1-5.6,4.9l-19-1.2C1588.6-9.4,1586.4-11.9,1586.5-14.8z"/>
				
					<ellipse transform="matrix(6.381049e-02 -0.998 0.998 6.381049e-02 1520.0389 1549.2288)" class="st4" cx="1585.7" cy="-35.6" rx="14.1" ry="11.8"/>
				
					<ellipse transform="matrix(6.381049e-02 -0.998 0.998 6.381049e-02 1555.4727 1522.7428)" class="st4" cx="1589.3" cy="-67.7" rx="10.6" ry="8.9"/>
				
					<ellipse transform="matrix(6.381049e-02 -0.998 0.998 6.381049e-02 1582.3698 1500.5273)" class="st4" cx="1591" cy="-93.1" rx="6.7" ry="5.6"/>
			</g>
		</g>
		<g>
			<path class="st2" d="M1356.1,99.7c33.8-39.5,93.4-36.6,115.8-33.9c4.9,0.6,9.2-3.2,9.5-8.4c10.9-164.8-68.6-194.3-100.6-205.9
				c-2.8-1-5.8-1.3-8.7-1c-33.7,4.5-117.8,16.1-142.7,179.3c-0.8,5.1,2.6,9.7,7.5,10.2c22.4,2.2,81.3,12.2,105.7,58.1
				C1345.3,103.3,1352.4,104.1,1356.1,99.7z"/>
			<path class="st3" d="M1236-4.1c3.5-15.1,7.6-28.5,12.2-40.5c48.2-41.9,180.7,15.7,210.3-40.8c9.8,17.9,17.7,41.1,21.5,71.2
				C1371.3,19.6,1312.2-48.1,1236-4.1z"/>
			<path class="st2" d="M1358,67.9c26-30.5,71.9-28.2,89.2-26.1c3.7,0.5,7.1-2.5,7.3-6.4c8.6-130.2-56.1-150.7-79.3-159.3
				c-1-0.4-1.9-0.5-3-0.3c-24.5,3.3-92.2,9.4-111.8,138.4c-0.6,3.9,2,7.5,5.8,7.9c17.3,1.7,62.6,9.4,81.4,44.8
				C1349.8,70.7,1355.1,71.3,1358,67.9z"/>
			<path class="st3" d="M1374.2-128.3c1.7,0.2,3.4,0.6,5.1,1.2c37.9,13.9,87.3,45.8,79.6,162.7c-0.2,3.1-1.7,6.1-4.1,8
				c-2.3,1.9-5.1,2.7-8.1,2.4c-17.5-2.1-60.9-4-85.3,24.6c-2.3,2.7-5.8,4.1-9.3,3.7c-3.5-0.4-6.6-2.5-8.2-5.6
				c-17.7-33.2-60.5-40.8-78-42.5c-2.9-0.4-5.6-1.8-7.4-4.1c-1.9-2.4-2.7-5.6-2.2-8.7c17.7-115.8,72.9-136.3,112.9-141.7
				C1370.7-128.5,1372.5-128.5,1374.2-128.3z M1447.7,37.5c0.7,0.1,1.2-0.2,1.5-0.5c0.6-0.5,0.9-1.2,0.9-1.9
				c8.2-123.9-51.4-145.8-73.9-154c-1.9-0.7-4.1-1-6.1-0.7c-23.7,3.2-86.7,11.6-105.4,134.4c-0.1,0.8,0.1,1.5,0.5,2.1
				c0.3,0.3,0.7,0.7,1.4,0.8l0,0c18.9,1.9,65.2,10.1,84.8,47c0.4,0.8,1.1,1,1.5,1.1s1.1,0,1.7-0.7
				C1381.9,33.3,1428.8,35.2,1447.7,37.5L1447.7,37.5z"/>
			<g>
				<path class="st4" d="M1293.3-15.7c0.6-0.5,1.6-0.4,2.1,0.2c5.4,6.9,17.7,8.2,27.5,0.4c6.8-5.5,9.9-13.6,8.5-20.6
					c-0.2-1.2,0.9-2.1,2-1.7c11.9,4.5,27.3-7.8,25.2-20.6c-0.2-1,0.7-2,1.7-1.8c10.5,2.2,20.8-11.1,15.1-19.1
					c-0.7-1,0.1-2.3,1.3-2.3c1.8,0,3.6,0.8,4.8,2.3l47,58.6c2.1,2.6,1.7,6.5-1,8.6l-15.9,12.7c-2.6,2.1-6.4,1.7-8.5-1l-25.5-31.8
					c-2.1-2.6-5.9-3-8.5-0.9L1314.7,11c-2.6,2.1-6.4,1.7-8.5-0.9l-13.8-17.2C1290.2-9.7,1290.7-13.6,1293.3-15.7z"/>
				
					<ellipse transform="matrix(0.7798 -0.6261 0.6261 0.7798 308.9525 813.2255)" class="st4" cx="1310.3" cy="-32.5" rx="16.3" ry="13.6"/>
				
					<ellipse transform="matrix(0.7798 -0.6261 0.6261 0.7798 329.3533 827.2947)" class="st4" cx="1340.5" cy="-54.5" rx="12.3" ry="10.2"/>
				
					<ellipse transform="matrix(0.7798 -0.6261 0.6261 0.7798 345.9595 837.5968)" class="st4" cx="1363.5" cy="-72.9" rx="7.7" ry="6.4"/>
			</g>
		</g>
		<g>
			<path class="st2" d="M1551.1,328.8c3.9,30-20.6,54.6-30.5,63.2c-2.1,1.9-2.2,5.2-0.1,7.4c66.9,69,110.7,46.2,128.1,36.9
				c1.5-0.8,2.8-2,3.8-3.4c11.2-16.3,39-57.1-21.7-131.6c-1.9-2.3-5.2-2.7-7.3-0.7c-9.7,8.8-37,30.3-66.3,23
				C1553.7,322.8,1550.6,325.5,1551.1,328.8z"/>
			<path class="st3" d="M1642.8,317.5c5.1,7.4,9.4,14.4,12.7,21.1c-0.7,37.2-77.3,71.9-64.4,106.7c-11.6-2.7-24.6-8.4-39.1-18.5
				C1579.8,366.6,1632,367.6,1642.8,317.5z"/>
			<path class="st2" d="M1564.1,342.1c3,23.1-15.9,42.1-23.5,48.7c-1.7,1.4-1.7,4-0.1,5.7c52.8,54.5,87,34.6,99.7,27.9
				c0.5-0.3,1-0.7,1.3-1.1c8.1-11.9,31.9-43.5-16.1-102.3c-1.5-1.8-4-2-5.7-0.6c-7.5,6.8-28.5,23.4-51.1,17.7
				C1566.1,337.4,1563.7,339.5,1564.1,342.1z"/>
			<path class="st3" d="M1642.4,425.6c-0.8,0.7-1.6,1.3-2.5,1.7c-20.8,10.9-53.9,19.8-101.3-29.1c-1.3-1.3-2-3.1-1.9-4.9
				c0.1-1.7,0.8-3.3,2.1-4.5c7.7-6.7,25.5-24.7,22.7-46.4c-0.3-2.1,0.5-4.1,2-5.4c1.5-1.4,3.6-1.9,5.6-1.4
				c21.2,5.3,41.2-10.2,48.8-17.1c1.3-1.1,2.9-1.7,4.7-1.6c1.8,0.1,3.5,1,4.6,2.4c43.1,52.8,30.4,84.7,17.1,104
				C1643.9,424.2,1643.2,425,1642.4,425.6z M1542.2,392.7c-0.3,0.3-0.4,0.6-0.4,0.8c0,0.4,0.2,0.8,0.5,1.2
				c50.3,51.9,83,34.7,95.3,28.2c1.1-0.6,2-1.4,2.7-2.4c7.9-11.5,28.8-41.9-16.9-97.9c-0.3-0.3-0.7-0.6-1.1-0.6
				c-0.2,0-0.6,0-0.9,0.3l0,0c-8.2,7.4-29.8,24.2-53.4,18.3c-0.5-0.1-0.9,0.1-1,0.2s-0.4,0.5-0.4,1
				C1569.7,365.9,1550.6,385.4,1542.2,392.7L1542.2,392.7z"/>
			<g>
				<path class="st4" d="M1625.4,346.7c0,0.5-0.4,0.9-0.9,0.8c-5.1-0.3-10.5,4.4-10.9,11.7c-0.3,5.1,2,9.6,5.6,11.7
					c0.6,0.4,0.6,1.2,0,1.5c-6.6,3.4-7.3,14.8-1,18.9c0.5,0.3,0.6,1.1,0.1,1.4c-5.1,3.7-3.3,13.3,2.3,14c0.7,0.1,1,0.9,0.5,1.5
					c-0.7,0.8-1.7,1.2-2.8,1.2l-43.6-2.6c-2-0.1-3.5-1.8-3.3-3.8l0.7-11.8c0.1-1.9,1.8-3.4,3.7-3.3l23.7,1.4c2,0.1,3.6-1.4,3.7-3.3
					l2.3-40.6c0.1-2,1.8-3.4,3.7-3.3l12.8,0.8C1624,343.1,1625.5,344.8,1625.4,346.7z"/>
				
					<ellipse transform="matrix(5.839788e-02 -0.9983 0.9983 5.839788e-02 1171.0012 1962.8644)" class="st4" cx="1626" cy="360.7" rx="9.5" ry="7.9"/>
				
					<ellipse transform="matrix(5.839788e-02 -0.9983 0.9983 5.839788e-02 1147.2654 1980.9093)" class="st4" cx="1623.7" cy="382.3" rx="7.2" ry="6"/>
				
					<ellipse transform="matrix(5.839788e-02 -0.9983 0.9983 5.839788e-02 1129.2594 1996.0293)" class="st4" cx="1622.7" cy="399.4" rx="4.5" ry="3.7"/>
			</g>
		</g>
	</g>
</g>
<g>
	<defs>
		<ellipse id="SVGID_00000178914189139271958860000012199273652144971448_" cx="1399.5" cy="479.2" rx="33.9" ry="20.8"/>
	</defs>
	<clipPath id="SVGID_00000140726726797823878760000002332390540447664311_">
		<use xlink:href="#SVGID_00000178914189139271958860000012199273652144971448_"  style="overflow:visible;"/>
	</clipPath>
	<g style="clip-path:url(#SVGID_00000140726726797823878760000002332390540447664311_);">
		<path class="st2" d="M1388.2,300.9c-38.1,29.5-91.7,15.7-111.5,9c-4.3-1.4-9,1.2-10.2,5.8c-41,147.6,25.8,189.4,52.6,205.9
			c2.3,1.5,5,2.3,7.7,2.5c31.4,2.3,110,7.5,163.3-136c1.7-4.5-0.6-9.3-4.9-10.7c-20-6.2-71.5-26.4-85.1-72.7
			C1398.6,299.6,1392.4,297.6,1388.2,300.9z"/>
		<path class="st3" d="M1477.7,417.8c-6,13-12.3,24.5-18.7,34.5c-51.7,29-161.1-48.2-198.7-2.5c-5.6-18.1-8.3-40.6-6.1-68.7
			C1359.3,370.8,1400.2,443.4,1477.7,417.8z"/>
		<path class="st2" d="M1380.4,329.4c-29.3,22.8-70.6,12.1-85.9,6.9c-3.3-1.1-6.9,0.9-7.9,4.5c-32.4,116.6,22.6,147.5,42,159.6
			c0.8,0.5,1.7,0.8,2.6,0.8c22.9,1.6,85.5,8.8,127.6-104.6c1.3-3.4-0.4-7.2-3.8-8.2c-15.4-4.8-55.1-20.3-65.5-56
			C1388.5,328.4,1383.7,326.9,1380.4,329.4z"/>
		<path class="st3" d="M1328.8,504.5c-1.5-0.5-3-1.2-4.4-2c-31.8-19.7-70.7-58-41.6-162.8c0.8-2.8,2.7-5.2,5.2-6.5
			c2.5-1.3,5.2-1.5,7.8-0.7c15.5,5.2,54.5,15.1,82.1-6.3c2.6-2,6-2.6,9.1-1.6c3.1,1,5.5,3.5,6.4,6.7c9.8,33.5,47.3,48.4,62.8,53.3
			c2.5,0.9,4.7,2.6,6,5.1c1.3,2.6,1.4,5.6,0.4,8.3c-37.9,101.9-91.8,110.1-129.2,107.4C1331.9,505.3,1330.3,505,1328.8,504.5z
			 M1293.2,340.2c-0.6-0.2-1.1,0-1.5,0.2c-0.6,0.3-1,0.9-1.2,1.6c-30.8,111,19.3,142.1,38.1,153.8c1.6,1,3.5,1.6,5.4,1.8
			c22.1,1.6,80.9,5.8,121-102.2c0.2-0.7,0.2-1.4-0.1-2c-0.2-0.3-0.5-0.8-1.1-1l0,0c-16.8-5.3-57.3-21.5-68.2-58.7
			c-0.2-0.8-0.8-1.1-1.2-1.2c-0.3-0.1-1-0.2-1.7,0.3C1352.2,356.4,1310,345.8,1293.2,340.2L1293.2,340.2z"/>
		<g>
			<path class="st4" d="M1423.5,417.5c-0.7,0.3-1.5,0.1-1.9-0.6c-3.6-7.2-14.6-10.8-24.9-5.5c-7.2,3.7-11.6,10.5-11.6,17.1
				c0,1.1-1.2,1.8-2.1,1.2c-9.9-6.3-26.3,2-26.8,13.9c0,1-1,1.7-1.9,1.3c-9.1-4-21,6.2-17.4,14.5c0.4,1-0.5,2.1-1.6,1.9
				c-1.6-0.3-3.1-1.4-3.9-3l-31.6-62c-1.4-2.8-0.3-6.2,2.5-7.6l16.8-8.5c2.8-1.4,6.1-0.3,7.6,2.5l17.2,33.7c1.4,2.8,4.8,3.9,7.6,2.5
				l57.7-29.5c2.8-1.4,6.2-0.3,7.6,2.5l9.3,18.2C1427.4,412.7,1426.3,416.1,1423.5,417.5z"/>
			
				<ellipse transform="matrix(0.8906 -0.4548 0.4548 0.8906 -41.6802 685.8665)" class="st4" cx="1404.8" cy="429.6" rx="15.1" ry="12.6"/>
			
				<ellipse transform="matrix(0.8906 -0.4548 0.4548 0.8906 -51.6169 673.0747)" class="st4" cx="1373.3" cy="443.8" rx="11.4" ry="9.5"/>
			<ellipse transform="matrix(0.8906 -0.4548 0.4548 0.8906 -59.9323 663.379)" class="st4" cx="1349" cy="456.3" rx="7.1" ry="6"/>
		</g>
	</g>
</g>
</svg>
