<?xml version="1.0" encoding="UTF-8"?>
<svg id="Layer_1" data-name="Layer 1" xmlns="http://www.w3.org/2000/svg" viewBox="0 0 1404.39 245.43">
  <path d="m0,58.82h395.67c-6.04-22.53-41.83-3.12-41.83-3.12-18.61-16.13-50.04-3.31-56.46-4.14-6.41-.83-27.3-46.74-59.56-51.29-32.26-4.55-69.28,48.6-76.1,49.63s-21.71-9.31-30.19-8.89-21.09,14.27-32.88,14.27-33.71-14.06-51.91-14.06S0,58.82,0,58.82Z" style="fill: #dfc6fe; stroke-width: 0px;"/>
  <path d="m1182.74,76.7s-228.78,3.42-340.44,0c10.53-20.15,46.35-26.99,56.88-5.7,57.3-79.44,115.02-65.11,138.62-2.91,32.02-24.46,67.55-6.24,81.2,2.51,9,5.77,19.25-5.02,33.26-6.04,17.04-1.24,30.48,12.14,30.48,12.14Z" style="fill: #dfc6fe; stroke-width: 0px;"/>
  <path d="m699.85,176.11c-171.35.83-304.61,3.22-429.98.98,36.82-23.8,53.79-35.07,103.13-4.92,0,0,12.35-10.64,32.74-10.88,9.25-.11,19.52,6.87,25.94,6.79s21.23-8.51,34.8-10.15,35.95,7.56,42.75,7.48c6.79-.08,36.64-46.39,65.34-45.58,28.7.82,46.71,23.31,60.88,39.9,14.16,16.6,19.79,13.8,32.55,6.88,12.75-6.92,31.86,9.49,31.86,9.49Z" style="fill: #dfc6fe; stroke-width: 0px;"/>
  <path d="m1404.39,244.26c-108.68,3.43-335.46-1.79-335.46-1.79,29.23-20.18,55.4-3.71,55.4-3.71,43.19-30.07,75.47.61,80.7.61s17.17-41.51,49.73-47.56c38.49-7.15,88.12,50.25,88.12,50.25,15.72-23.33,61.51,2.2,61.51,2.2Z" style="fill: #dfc6fe; stroke-width: 0px;"/>
</svg>