<?xml version="1.0" encoding="UTF-8"?>
<svg width="1600px" height="668px" viewBox="0 0 1600 668" version="1.1" xmlns="http://www.w3.org/2000/svg" xmlns:xlink="http://www.w3.org/1999/xlink">
    <!-- Generator: Sketch 52.6 (67491) - http://www.bohemiancoding.com/sketch -->
    <title>Artboard</title>
    <desc>Created with Sketch.</desc>
    <defs>
        <linearGradient x1="50%" y1="83.5714271%" x2="50%" y2="100%" id="linearGradient-1">
            <stop stop-color="#5D4DC4" offset="0%"></stop>
            <stop stop-color="#201A4F" offset="72.9583372%"></stop>
            <stop stop-color="#130F21" offset="100%"></stop>
        </linearGradient>
        <linearGradient x1="50%" y1="55.0881558%" x2="50%" y2="96.6978537%" id="linearGradient-2">
            <stop stop-color="#4030A3" offset="0%"></stop>
            <stop stop-color="#4030A3" stop-opacity="0" offset="100%"></stop>
        </linearGradient>
        <linearGradient x1="50%" y1="35.4316554%" x2="50%" y2="86.104453%" id="linearGradient-3">
            <stop stop-color="#4030A3" offset="0%"></stop>
            <stop stop-color="#4030A3" stop-opacity="0" offset="100%"></stop>
        </linearGradient>
        <linearGradient x1="50%" y1="58.2064673%" x2="50%" y2="94.6077191%" id="linearGradient-4">
            <stop stop-color="#4030A3" offset="0%"></stop>
            <stop stop-color="#4030A3" stop-opacity="0" offset="100%"></stop>
        </linearGradient>
    </defs>
    <g id="Artboard" stroke="none" stroke-width="1" fill="none" fill-rule="evenodd">
        <polygon id="Rectangle" fill="#30247D" points="0 0 1600 0 1600 606 0 606"></polygon>
        <g id="Group" transform="translate(0.000000, 3.000000)">
            <g transform="translate(831.000000, 369.000000)" fill="#8D7CF7">
                <path d="M5.2,2.8 C22.4,11.4 26.8,26.8 23.2,44.8 C22.2,50.1 20.8,55.2 19.4,60.2 C18.4,64.9 14.7,74.3 17.9,78.2 C22.7,82.3 29,83.7 34.5,86.9 C42.7,91.3 43.7,100.7 42.5,109 L40.1,108.7 C42.5,86 29.9,90.6 16.3,80.8 C10.9,76.1 15,65.3 16.2,59.4 C17.5,54.3 18.9,49.3 19.7,44.2 C22.7,27.8 19,14.2 3.2,6.5 L5.2,2.8 Z" id="Path"></path>
                <path d="M73.1,83.5 C70,74.1 61.5,68.2 53.4,63.5 C50.4,61.9 47.5,60.4 44.9,58.3 C49.5,55.4 53.3,51.3 55.7,46.6 C60.7,37.6 58.7,23.1 46.4,22.4 C35,22.1 30.5,36.2 33,45.4 C34,49.9 36.3,53.8 39.3,57.2 C36.9,58.2 34.5,58.7 32,58.8 C12.2,59.5 5.6,36.5 5,20.3 L0.9,20.5 C1.2,25.2 1.8,29.9 2.9,34.5 C6,48.8 15.9,63.3 32.2,62.4 C35.7,62.2 39,61.3 42.1,59.9 C43.3,60.9 44.5,61.8 45.8,62.6 C51.7,66.1 58.1,69.1 63.1,73.7 C75.4,84.3 72.4,97.1 64.9,109.6 L67,110.8 C71.8,102.7 76.1,93 73.1,83.5 Z M37.1,32.2 C40.7,23.5 52,23.4 54.5,32.9 C56.4,42 50.3,51.2 42.1,55.8 C36,49.8 33.5,40 37.1,32.2 Z" id="Shape" fill-rule="nonzero"></path>
                <path d="M56.3,103.4 C47.6,62.4 98,59.3 82.8,15.2 C81.4,10.9 79.5,6.7 77.5,2.6 L81,0.9 C83,5.2 85,9.5 86.3,14.1 C99.3,55.7 63,61.3 58.2,89.5 C57.5,93.9 57.8,98.5 58.6,103 L56.3,103.4 Z" id="Path"></path>
            </g>
            <g transform="translate(648.000000, 427.000000)" fill="#8D7CF7" id="Path">
                <path d="M154.2,53.2 L159.1,53.3 C194.1,30.4 174.8,15.8 154.2,53.2 Z"></path>
                <path d="M108.3,47.5 L136.8,52.5 C154.1,41.6 156.1,15.8 108.3,47.5 Z"></path>
                <path d="M22.9,24.4 C33.3,5.1 20.5,-1.1 11.8,15.6 C8.7,3.3 -0.6,7.4 0.4,19.9 C1.4,32.4 22.9,24.4 22.9,24.4 Z"></path>
                <g transform="translate(55.000000, 0.000000)">
                    <path d="M2.1,35.5 C1.6,35.5 1.1,35.2 0.9,34.7 C0.6,34 1,33.3 1.6,33 C3.7,32.2 9.2,29.4 9.6,26.2 C9.8,24.8 8.8,23.3 6.8,21.7 L5.1,20.4 L7.1,19.5 C9.8,18.2 16.9,13.9 17.3,9.3 C17.5,7 15.9,4.8 12.6,2.6 C12,2.2 11.8,1.4 12.2,0.8 C12.6,0.2 13.4,1.13686838e-13 14,0.4 C18.1,3.1 20,6.2 19.8,9.5 C19.4,14.9 13,19.1 9.9,20.9 C11.7,22.7 12.5,24.5 12.2,26.5 C11.5,31.7 3.4,35 2.5,35.3 C2.4,35.5 2.3,35.5 2.1,35.5 Z"></path>
                    <path d="M13.7,38.6 C13.2,38.6 12.7,38.3 12.5,37.8 C12.2,37.1 12.5,36.4 13.2,36.1 C13.3,36.1 19.6,33.4 24.8,28.1 C31.6,21.3 33.6,13.4 30.5,4.9 C30.3,4.2 30.6,3.5 31.3,3.2 C32,3 32.7,3.3 33,4 C41.3,26.8 14.6,38.4 14.3,38.5 C14,38.6 13.9,38.6 13.7,38.6 Z"></path>
                </g>
            </g>
            <g transform="translate(90.000000, 223.000000)" id="Path">
                <g transform="translate(44.000000, 59.000000)">
                    <path d="M57.2,52.6 C52.1,54.6 46.3,56.5 39.8,58.1 L0.7,3.5 C24.5,-1.3 44.3,-0.8 58.7,3 C61.3,3.7 63.8,4.5 66,5.4 C91.9,15.6 93.2,38.2 57.2,52.6 Z" fill="#B8AEFF"></path>
                    <path d="M57.2,52.6 C52.1,54.6 46.3,56.5 39.8,58.1 L29.1,43.2 C45.8,40.5 66.9,25.1 58.6,3 C61.2,3.7 63.7,4.5 65.9,5.4 C72.3,23.2 70.3,39.8 57.2,52.6 Z" fill="#8D7CF7"></path>
                    <path d="M27.1,18.2 C18.6,18.3 13,14.9 16.9,12.1 C20.8,9.3 31.4,9.1 36,11.9 C40.6,14.7 35.6,18.1 27.1,18.2 Z" fill="#8D7CF7"></path>
                </g>
                <g>
                    <path d="M33.9,47.5 L0.1,0.4 C18.2,1.2 31.6,6.5 39.9,13.4 C54.8,25.7 53.6,42.9 33.9,47.5 Z" fill="#B8AEFF"></path>
                    <path d="M19.4,27.3 L0.1,0.4 C18.2,1.2 31.5,6.5 39.9,13.4 C35.8,22.1 26.7,26.9 19.4,27.3 Z" fill="#E0DBFF"></path>
                </g>
            </g>
            <g transform="translate(994.000000, 408.000000)" fill="#5D4DC4" id="Path">
                <path d="M10.9,30.6 L0.7,1.6 L4.1,0.4 L12.1,22.9 C13.5,17.4 15.7,14 18.6,12.7 C21.4,11.5 24.1,12.6 25.3,13.5 L23.1,16.4 C23.1,16.4 21.6,15.4 20,16.1 C18.5,16.8 15.7,19.5 14.5,30.3 L10.9,30.6 Z"></path>
                <path d="M84.4,31.5 L80.9,30.5 C85.6,13.8 91.2,12.5 94.1,13.2 C97.9,14.2 99.6,19 98.8,22.8 L95.2,22 C95.7,19.6 94.5,17 93.2,16.7 C91.7,16.4 87.9,19 84.4,31.5 Z"></path>
            </g>
            <path d="M1309.8,386.5 C1225,460.5 1161.5,392.8 1096.6,451.8 C1205.1,555.9 1307.3,433.3 1309.8,386.5 Z" id="Path" fill="#4534AD"></path>
            <g transform="translate(1147.000000, 182.000000)" id="Path">
                <path d="M70.1,0.8 C72.9,5.7 77.5,13.6 82.6,22.3 C84.2,25.1 85.9,27.9 87.6,30.8 C88.3,31.9 88.9,33.1 89.6,34.2 C97.7,48.2 105.9,62.3 110,69.5 C114.5,78 112.4,87.5 106.2,94.5 C102.2,100.2 102.4,108 106.3,113.7 C112.4,124.1 120.9,138.5 129.6,153.3 C130.3,154.5 131,155.7 131.7,156.9 C140,171.1 148.4,185.2 154.7,196 L151.7,202.4 C149.7,198.9 147,194.3 144,189 C143.2,187.7 142.4,186.3 141.6,184.9 C133.3,170.4 123.1,152.5 115.7,139.5 C114.8,138 114,136.5 113.2,135.2 C111.7,132.6 110.4,130.2 109.2,128.3 L102.2,116.1 C100.9,113.9 99.8,111.5 99.2,109 C98,103.9 98.8,98.3 101.4,93.8 C102.5,91.8 104.3,89.9 105.5,88 C108.9,82.6 108.8,75.4 105.4,70 C104.6,68.7 103.7,67 102.7,65.2 C102.1,64.2 101.5,63 100.8,61.8 C94.8,51.2 85.9,35.4 78.4,22.2 C73.8,14 69.7,6.8 67.2,2.5 L70.1,0.8 Z" fill="#8D7CF7"></path>
                <polygon fill="#8D7CF7" points="19.9 40.6 32.9 59.8 40.7 71.3 63.9 105.6 65.9 108.6 142.6 221.7 139.9 227.5 135.6 220.9 132.5 216.3 88.8 150.4 86.8 147.3 40.5 77.5 37.9 73.6 37 72.3 31.3 63.6 17.2 42.4"></polygon>
                <path d="M21.7,144.2 C24.3,148.3 27.3,153.1 30.6,158.3 C33.9,163.6 37.5,169.3 41.1,175 C41.7,176 42.4,177 43,178.1 C50.1,189.4 57.1,200.5 62.1,208.4 C63.8,211.2 65.8,214.1 68.6,215.9 C71.9,218.3 75.9,219.5 80,219.5 C82.2,219.5 84.8,219.4 87,219.6 C93.5,220.2 99.7,223.7 103.5,229 C104.2,229.9 116.4,249.9 123.8,261.9 L121.1,267.7 L112.5,253.3 L110.1,249.3 L102.3,236.3 C100.5,233.3 99,230.5 96.3,228.4 C92.4,225.2 87.7,223.9 82.6,224.1 L79.9,224.1 C75,224.1 70,222.4 66,219.5 C63.4,217.7 61.4,215.3 59.7,212.6 C59.3,212 58.9,211.3 58.5,210.7 L57.7,209.3 L52.9,201.4 L41.6,182.9 L27.1,159.2 L19,145.9 L21.7,144.2 Z" fill="#8D7CF7"></path>
                <path d="M73.1,148.3 L90.3,147 L90.5,150.2 L73.3,151.5 C67.4,151.9 61.8,149.1 58.6,144 L52.7,134.5 L38.6,111.8 L41.4,110.1 L54.1,130.5 L61.5,142.4 C63.9,146.4 68.4,148.7 73.1,148.3 Z" fill="#8D7CF7"></path>
                <path d="M41,19.4 L60.9,57 L73.7,81.1 C76,85.5 76.1,90.8 74,95.3 C73.8,95.8 73.5,96.4 73.1,96.9 L65.9,108.6 L65.1,109.9 L62.3,108.2 L63.9,105.7 L70.3,95.3 C72.6,91.5 72.8,86.7 70.7,82.8 L58.6,59.9 L38,21.1 L41,19.4 Z" fill="#8D7CF7"></path>
                <path d="M104,65.3 L95.4,64.7 C90.5,64.4 85.9,61.7 83.2,57.6 L71.5,39.7 L74.2,37.9 L85.9,55.8 C88.1,59.1 91.7,61.2 95.6,61.5 L104.2,62.1 L104,65.3 Z" fill="#8D7CF7"></path>
                <path d="M117.4,140.2 L105.4,135.9 C102.5,134.9 100,133.1 98.2,130.7 L80.3,107.5 L82.9,105.5 L100.8,128.7 C102.3,130.6 104.3,132.1 106.6,132.9 L118.6,137.2 L117.4,140.2 Z" fill="#8D7CF7"></path>
                <path d="M127.3,156.1 C129.4,153.5 139.1,141.3 140.9,139 C145.2,134.4 146,128.2 142.7,122.9 L141.6,121 C138.9,116.1 131.8,103 129,98 L131.8,96.4 L140.3,111.7 L144.6,119.3 C146.1,122 147.8,124.8 148.1,127.9 C148.8,132.8 146.9,137.7 143.7,141.3 L141,144.7 L130.2,158.5 L127.3,156.1 Z" fill="#8D7CF7"></path>
                <path d="M146.2,111.2 C145.9,111.8 145.6,112.4 145.2,113 L142.5,117.3 L139.7,115.6 L142.4,111.3 C144.9,107.3 145,102.2 142.6,98.1 L133.2,82.2 L136,80.5 L145.4,96.4 C148.1,100.9 148.4,106.4 146.2,111.2 Z" fill="#8D7CF7"></path>
                <path d="M108.2,151.8 L123.5,176.1 L125.4,179.1 C127.9,183.8 133.3,186.4 138.5,185.4 L145.6,184.4 L146.1,188.8 C144.5,189 138.5,189.7 137,189.8 C132.2,190 127.4,188 124.2,184.3 C123.3,183.4 122.6,182.2 121.9,181.1 L120.1,178 L105.3,153.4 L108.2,151.8 Z" fill="#8D7CF7"></path>
                <path d="M70.9,166.3 L82.9,186.1 C84.7,189 87.7,191.1 91,191.7 C93.7,192.2 96.7,191.9 99.5,192.1 C104.9,192.5 110.1,196.1 112.5,200.9 C114,203.6 116.4,208.4 117.9,210.8 C119.8,213.5 122.9,215.3 126.2,215.7 L137.7,216.9 L137.2,221.2 L125.7,219.8 C120.2,219.1 115.3,215.3 113.1,210.4 C112.3,208.8 109.9,204.4 109.1,202.7 C107.6,199.6 104.9,197.3 101.7,196.3 C99.2,195.5 96.2,195.7 93.6,195.6 C88.2,195.6 82.8,192.6 80,187.9 L68.2,167.9 L70.9,166.3 Z" fill="#8D7CF7"></path>
                <path d="M61.2,212.5 L52.8,212.3 C46.7,212.1 41.4,208.6 38.8,203.2 L25.9,175.7 L28.8,174.3 L41.7,201.8 C43.8,206.1 48,208.9 52.8,209 L61.2,209.2 L61.2,212.5 Z" fill="#8D7CF7"></path>
                <path d="M26.6,123.5 L41.5,151.9 L45.3,159.2 C47.6,163.6 47.7,168.9 45.6,173.4 C45.4,173.9 45.1,174.4 44.8,174.9 L42.9,178 L42.2,179.1 L39.4,177.4 L40.9,174.9 L41.9,173.2 C44.2,169.4 44.3,164.7 42.3,160.7 L38.8,154 L23.6,125 L26.6,123.5 Z" fill="#8D7CF7"></path>
                <path d="M17.7,184.9 C23,192.7 58.2,245.2 62.6,251.7 C65.2,255.1 69.6,257 73.8,256.5 C75.1,256.3 78.5,255.6 79.9,255.3 L113.2,248.8 L114,253.1 C110.3,253.8 78.1,259.8 75.4,260.3 C74.8,260.4 73.6,260.5 73,260.6 C66.9,260.9 61.1,257.4 58.1,252.3 C55.2,247.9 18.8,192.7 14.9,186.8 L17.7,184.9 Z" fill="#8D7CF7"></path>
                <path d="M59.3,251.7 L37.1,254.7 C31.6,255.4 26,253.2 22.5,248.8 L10.5,233.5 L13.1,231.5 L25.1,246.8 C27.9,250.3 32.3,252.1 36.7,251.5 L58.9,248.5 L59.3,251.7 Z" fill="#8D7CF7"></path>
                <path d="M37.7,219.6 L27.4,218.9 C22.2,218.5 17.4,215.6 14.8,211.1 L0.7,186.9 L3.5,185.3 L17.6,209.5 C19.7,213.1 23.5,215.4 27.6,215.7 L37.9,216.4 L37.7,219.6 Z" fill="#8D7CF7"></path>
                <g transform="translate(17.000000, 19.000000)" fill="#C2BAFF">
                    <path d="M2.9,21.6 L23.7,52.3 C22.5,52.7 21.3,53 20,53.3 L0.2,23.4 L2.9,21.6 Z"></path>
                    <path d="M24,0.4 L43.9,38 C43.2,38.9 42.5,39.8 41.7,40.7 L21.1,1.9 L24,0.4 Z"></path>
                </g>
                <path d="M70.1,0.8 C72.9,5.7 77.5,13.6 82.6,22.3 C81.3,22.3 79.9,22.3 78.5,22.1 C73.8,13.9 69.8,6.7 67.3,2.4 L70.1,0.8 Z" fill="#C2BAFF"></path>
                <g transform="translate(19.000000, 110.000000)" fill="#C2BAFF">
                    <path d="M2.7,34.2 C5.3,38.3 8.3,43.1 11.6,48.3 C10.5,48.7 9.3,49 8.1,49.2 L2.27373675e-13,35.9 L2.7,34.2 Z"></path>
                    <path d="M4.7,15.1 L7.6,13.6 L22.5,42 C21.7,42.7 20.8,43.4 19.9,44.1 L4.7,15.1 Z"></path>
                    <path d="M22.3,0.2 L35,20.6 C34.6,21.9 34.2,23.3 33.7,24.6 L19.6,1.9 L22.3,0.2 Z"></path>
                </g>
            </g>
            <g transform="translate(181.000000, 365.000000)" id="Path">
                <polygon fill="#E0DBFF" points="30.7 3.9 33 21.9 4.3 18.3"></polygon>
                <polygon fill="#E0DBFF" points="50.1 24.2 52.5 50.4 24.5 50.4"></polygon>
                <path d="M73.6,55.4 C67.8,75.5 80.1,92.4 80.1,92.4 L42.7,75.5 L73.6,55.4 Z" fill="#E0DBFF"></path>
                <path d="M0.7,3.6 C38.3,-6.7 36.1,9 18.4,12.4 C77.5,12.1 35.8,46.5 35.8,46.5 C97.8,42.8 71.3,71 42.8,75.4 C-7.5,52.9 0.7,3.6 0.7,3.6 Z" fill="#8D7CF7"></path>
                <path d="M49.3,64.1 C41.1,66.1 35,63.6 38.4,59.6 C41.8,55.6 52,53 56.9,55.1 C61.8,57.2 57.6,62.1 49.3,64.1 Z" fill="#201861"></path>
                <path d="M34.3,37.4 C28,43.7 19.4,43 18.8,36.1 C18.2,29.2 26.1,21.3 33,21.9 C39.9,22.5 40.7,31.1 34.3,37.4 Z" fill="#201861"></path>
            </g>
            <path d="M1205.1,490.2 C1063.3,588.8 954.5,639.1 569.7,460.4 C598.1,449.8 621,445.5 640.9,444.9 C705.3,443.1 737.3,481.1 817.3,477.2 C860.2,475.1 897.9,461.9 936.7,450.5 C1009.2,429.3 1085.1,414.3 1205.1,490.2 Z" id="Path" fill="#8D7CF7"></path>
            <g transform="translate(854.000000, 433.000000)" fill="#5D4DC4" id="Path">
                <path d="M163,127.2 L161.5,130.5 C159.9,129.8 121.9,112.3 110.7,75.4 C104.3,54.4 108.1,31.5 122,7.2 C123.6,6.8 125.2,6.5 126.8,6.2 C112.1,30.6 107.9,53.5 114.2,74.4 C124.9,109.7 162.7,127 163,127.2 Z"></path>
                <path d="M93.5,14.5 C84.3,57.9 60,81.8 41.2,94.2 C20.4,107.9 2.1,110.9 1.3,111 L0.7,107.4 C0.9,107.4 19.2,104.3 39.3,91 C57.2,79.1 80.2,56.5 89.5,15.5 C90.9,15.2 92.2,14.8 93.5,14.5 Z"></path>
                <path d="M271.1,89 L267.5,88.3 C267.5,88.2 269.9,74.3 262.1,56.4 C249.9,28.5 222.1,11.1 199,0.9 C202.5,1.1 206,1.5 209.6,1.9 C231.2,12.8 254.6,29.8 265.6,55.2 C273.7,74.1 271.2,88.4 271.1,89 Z"></path>
            </g>
            <path d="M1205.1,490.2 C1063.3,588.8 954.5,639.1 569.7,460.4 C598.1,449.8 621,445.5 640.9,444.9 C705.3,443.1 737.3,481.1 817.3,477.2 C860.2,475.1 897.9,461.9 936.7,450.5 C939,449.8 941.3,449.2 943.6,448.5 C944.9,448.1 946.2,447.7 947.6,447.4 C957,444.8 966.4,442.3 976.1,440.2 C977.7,439.8 979.3,439.5 980.9,439.2 C1003.5,434.6 1027.2,432 1053,433.9 C1056.5,434.1 1060,434.5 1063.6,434.9 C1104.1,439.6 1149.9,455.3 1205.1,490.2 Z" id="Path"></path>
            <g transform="translate(256.000000, 431.000000)" id="Path">
                <path d="M25.5,3.3 C29.4,17.7 50.7,29.5 50.7,29.5 L49.4,37.3 L25.2,31.4 L25.5,3.3 Z" fill="#E0DBFF"></path>
                <path d="M0.6,28.1 L25.2,31.4 C34.4,-14.3 11.4,-4.6 0.6,28.1 Z" fill="#8D7CF7"></path>
                <path d="M23.1,18.6 C20.3,22.4 15.3,22.4 14.2,18.6 C13.1,14.8 16.6,10.1 20.6,10.1 C24.6,10.1 25.9,14.8 23.1,18.6 Z" fill="#201861"></path>
            </g>
            <path d="M936.7,450.6 C893,536.8 818.5,487.3 818.5,487.3 C718.9,537.8 686.8,455 686.8,455 C662.3,467.2 647.7,454.3 640.9,445 C705.3,443.2 737.3,481.2 817.3,477.3 C860.2,475.2 898,462 936.7,450.6 Z" id="Path" fill="#C2BAFF"></path>
            <g transform="translate(296.000000, 372.000000)" id="Path">
                <path d="M224.7,44 C225.2,66.4 239.7,83.7 239.7,83.7 L188.2,90.2 L224.7,44 Z" fill="#E0DBFF"></path>
                <path d="M194.1,8.1 C198.7,23.6 207.6,42.2 207.6,42.2 L164.9,66.5 L194.1,8.1 Z" fill="#E0DBFF"></path>
                <polygon fill="#E0DBFF" points="123.4 3.3 143.3 21.4 107.6 44"></polygon>
                <path d="M63.7,18 C74.2,23.7 91.4,30.4 91.4,30.4 L67.8,56.2 L63.7,18 Z" fill="#E0DBFF"></path>
                <polygon fill="#E0DBFF" points="15.5 52 36.8 51.3 26.4 90.3"></polygon>
                <path d="M0.5,95.1 C-3.4,44.4 24.1,40.9 26.4,71.2 C39.7,9.3 73.9,0.7 72.8,44.4 C100.8,-1.2 144,-16.7 118.5,33.5 C161.3,-20.5 236,-6.9 169.7,59.2 C229,12.3 243.6,49.9 199.5,83.7 C155.4,117.6 0.5,95.1 0.5,95.1 Z" fill="#8D7CF7"></path>
                <path d="M49.8,90.3 C60.2,65.3 43.6,62.3 23.9,97.9 L106,96.3 C136.6,41.5 104.6,29.5 49.8,90.3 Z" fill="#5D4DC4"></path>
                <path d="M138.6,79.3 C126.7,85.4 116.5,83.8 120.3,76.5 C124.1,69.2 138.9,61.6 147.1,62.9 C155.3,64.2 150.5,73.3 138.6,79.3 Z" fill="#201861"></path>
                <path d="M197.9,65.1 C187.6,70.4 178.8,69.1 182.1,62.7 C185.4,56.3 198.1,49.7 205.2,50.8 C212.3,51.9 208.1,59.8 197.9,65.1 Z" fill="#201861"></path>
                <path d="M161.6,39.7 C147.3,51.8 132,51.8 133.9,39.7 C135.9,27.6 153.7,12.4 166,12.5 C178.4,12.4 175.9,27.6 161.6,39.7 Z" fill="#201861"></path>
                <path d="M161.3,56 C156.3,58.2 152.1,56.9 153.6,53.7 C155.1,50.5 161.4,47.8 164.8,48.8 C168.2,49.8 166.2,53.8 161.3,56 Z" fill="#5D4DC4"></path>
                <path d="M88.6,80.5 C80.4,84.6 73.1,82.8 75.4,77.3 C77.7,71.8 88,66.6 93.9,68.1 C99.8,69.6 96.9,76.4 88.6,80.5 Z" fill="#201861"></path>
                <path d="M112.2,34 C106.8,42.5 98.8,45 97.9,38.4 C97,31.8 103.8,21.2 110.1,19.2 C116.4,17.2 117.6,25.4 112.2,34 Z" fill="#201861"></path>
                <path d="M47.8,56.4 C44.1,58.6 40,56.8 40.4,53.3 C40.8,49.8 45.4,47.1 48.7,48.4 C52,49.7 51.5,54.2 47.8,56.4 Z" fill="#201861"></path>
                <path d="M64.8,34.3 C64.8,41 61,45.2 57.9,41.8 C54.8,38.4 54.8,30.1 57.9,26.7 C61,23.3 64.8,27.6 64.8,34.3 Z" fill="#5D4DC4"></path>
                <path d="M66.2,62.1 C64,64.3 60.9,63.8 60.5,61.3 C60.1,58.8 62.8,56.1 65.4,56.4 C68,56.7 68.4,59.9 66.2,62.1 Z" fill="#5D4DC4"></path>
                <path d="M21.7,77.4 C23.2,83 19.5,87.8 14.9,86 C10.3,84.2 8.5,77.2 11.5,73.3 C14.5,69.4 20.2,71.8 21.7,77.4 Z" fill="#201861"></path>
                <path d="M168.1,83.8 C162.8,86.3 157.3,83.5 158.3,78.7 C159.3,73.9 165.9,70.7 170.3,73 C174.7,75.3 173.5,81.2 168.1,83.8 Z" fill="#5D4DC4"></path>
            </g>
            <g transform="translate(930.000000, 473.000000)" id="Path">
                <polygon fill="#5D4DC4" points="84.4 32.2 126.7 33.4 105.6 72.5"></polygon>
                <polygon fill="#5D4DC4" points="26.5 60.4 64.6 55.1 52.1 79.3"></polygon>
                <path d="M226.4,23.7 C206.3,3.6 193.7,27.7 193.7,27.7 C166.7,-21.3 113.9,0.4 108.1,56 C93.3,16.7 49.2,26.5 52.1,73.1 C23.6,45.2 -3.4,68.8 0.8,88.6 C144.7,102.2 221.7,37.2 226.4,23.7 Z" fill="#C2BAFF"></path>
                <path d="M87.7,68.8 C83.9,80.6 71.5,84.8 65.4,76.3 C59.3,67.8 64,53 74,49.7 C84,46.4 91.5,56.9 87.7,68.8 Z" fill="#201861"></path>
                <path d="M150.3,50 C137.4,44.9 132.5,33.5 141.6,29.5 C150.7,25.5 166.8,31.9 170.7,41 C174.6,50.1 163.2,55.1 150.3,50 Z" fill="#201861"></path>
                <path d="M148.1,18.2 C143.3,21.4 138.3,20.3 139.1,16.4 C139.9,12.4 145.8,8.4 149.8,9.3 C153.8,10.2 152.9,15 148.1,18.2 Z" fill="#8D7CF7"></path>
                <path d="M129.3,76.4 C121.2,80.3 113.7,77.6 115.8,71.6 C117.9,65.6 128,60.7 134,62.8 C140,65 137.4,72.5 129.3,76.4 Z" fill="#8D7CF7"></path>
                <path d="M22.1,84.3 C17.2,84.3 14.1,79.8 16.6,76.2 C19.1,72.6 25.2,72.6 27.6,76.2 C30,79.8 27,84.3 22.1,84.3 Z" fill="#8D7CF7"></path>
            </g>
            <path d="M1600,665 L0,665 L0,84.1 C0,84.1 6.3,93.3 16.8,108.5 C37.4,138.2 73.9,190.5 109.9,240 C117.9,251 125.6,261.5 132.9,271.7 C175.4,330.8 204.8,376.8 196.6,415.3 C196.6,415.3 208,446.8 301.4,462.6 C303.1,462.9 304.8,463.1 306.5,463.4 C366.6,472.2 440.1,459.7 512.9,453.1 C523.2,452.2 533.4,451.3 543.6,450.7 C543.8,450.7 544,450.7 544.2,450.7 C545,450.7 545.8,450.6 546.6,450.5 C549.1,450.4 551.6,450.2 554.2,450.1 C555.5,450 556.7,450 558,449.9 C566.9,449.5 575.7,449.3 584.4,449.3 C585.6,449.3 586.9,449.3 588.1,449.3 C602,449.5 615.6,450.2 628.9,451.7 C735.3,464.1 855.9,557.1 954,560.6 C1052.1,564.1 1128,520.3 1160.9,489.8 C1178.9,473.1 1193.3,462.5 1209.1,456.3 C1222.2,451.2 1236.3,449.1 1254.2,449.1 C1254.2,449.1 1281.5,401.3 1315.5,345.3 C1334.3,314.4 1355.1,280.9 1374.4,251.5 C1376.6,248.2 1378.7,245 1380.8,241.8 C1406,204.1 1436.8,156.6 1473.1,112.2 C1509.8,67.5 1552.1,25.9 1600,0.7 L1600,665 Z" id="Path" fill="url(#linearGradient-1)"></path>
            <path d="M132.9,271.7 C112,297.5 58.5,280.7 60.3,177.6 C60.3,177.6 15.4,173.3 16.7,108.6 C37.3,138.3 73.8,190.6 109.8,240 C117.9,250.9 125.6,261.5 132.9,271.7 Z" id="Path" fill="#8D7CF7"></path>
            <path d="M791.8,564.7 C765.3,568.2 747.1,558.2 759.1,546.7 C771.1,535.2 804.2,530.8 818.7,538.8 C833.2,546.8 818.2,561.2 791.8,564.7 Z" id="Path" fill="#8D7CF7"></path>
            <path d="M1546.9,141.2 C1517.3,166.1 1489.5,170.7 1496.9,149.5 C1504.3,128.3 1541.4,97.1 1563.6,93.4 C1585.8,89.7 1576.5,116.3 1546.9,141.2 Z" id="Path" fill="#8D7CF7"></path>
            <path d="M97.7,223 C85.1,263.7 59.5,285.9 38,297.9 C24.1,305.6 10.5,309.9 0.1,312.3 L0.1,307.5 C10.2,305.1 23,301 35.9,293.7 C52.5,284.5 66.1,272.2 76.5,257 C84.3,245.6 90.3,232.7 94.3,218.2 C95.4,219.9 96.5,221.5 97.7,223 Z" id="Path" fill="#4030A3"></path>
            <path d="M112.4,243.3 C88.5,267.5 84.2,296.3 79.9,324.4 C76.4,347.9 73,370.1 57.9,386.7 C45.6,400.2 26.9,408.5 7.10542736e-15,412.4 L7.10542736e-15,407.7 C25.4,404 43,396.1 54.4,383.6 C68.6,368 71.9,346.5 75.3,323.8 C79.5,296 84.1,265.2 109.6,239.6 C109.7,239.7 109.8,239.9 109.9,240 C110.7,241.1 111.6,242.2 112.4,243.3 Z" id="Path" fill="#4030A3"></path>
            <path d="M1578.3,186.2 C1578.3,192.4 1582.6,196.4 1587.3,200.6 C1590.5,203.5 1593.8,206.5 1595.3,210.4 C1597.3,215.3 1592.7,221.8 1586.3,230.9 C1576.8,244.3 1563.9,262.6 1568.3,282.2 C1571.3,295.4 1581.9,307.8 1600.1,319.2 L1600.1,324.7 C1579.3,312.2 1567.1,298.3 1563.8,283.3 C1559,261.7 1572.6,242.4 1582.6,228.3 C1587.3,221.7 1592.2,214.8 1591.1,212.3 C1590,209.5 1587.2,206.9 1584.2,204.2 C1579.3,199.7 1573.7,194.6 1573.7,186.3 C1573.7,176.3 1582.1,163.8 1600.1,147.3 L1600.1,153.7 C1585.4,167.5 1578.3,178.2 1578.3,186.2 Z" id="Path" fill="#4030A3"></path>
            <path d="M1600.5,375.4 C1600.3,375.4 1600.2,375.5 1600,375.5 C1590.4,377.6 1581.4,378.5 1573,378.5 C1533.5,378.5 1505.4,358 1478.1,338.1 C1439.3,309.8 1402.6,283.1 1335.6,312.6 C1337,310.3 1338.4,308.1 1339.8,305.8 C1405.5,279.5 1443.7,307.4 1480.8,334.4 C1513.2,358.1 1546.8,382.5 1599.5,370.9 L1600,373.1 L1600.5,375.4 Z" id="Path" fill="#4030A3"></path>
            <path d="M1357.5,602.5 L1355.2,603 L1352.9,603.5 C1352.9,603.5 1352.8,603.3 1352.7,603 C1351.8,599.9 1346.4,584.1 1329.1,569.1 C1311.4,553.6 1277.1,535.8 1214.7,538.7 L1212.6,538.8 L1212.3,536.8 C1212.2,536.3 1203.7,486.2 1170.2,481.5 C1171.7,480.2 1173.3,478.9 1174.8,477.7 C1187.9,480.9 1198.9,490.7 1207,506.5 C1212.9,518.1 1215.7,529.5 1216.6,534.1 C1251.9,532.7 1299.9,537.3 1332.5,566 C1352.6,583.5 1357.3,601.7 1357.5,602.5 Z" id="Path" fill="url(#linearGradient-2)"></path>
            <path d="M803.7,513.7 C770.9,517.5 744,534.1 723.5,563.1 C712.9,578.1 706.5,593.3 703.1,603.1 C700.9,609.5 699.9,613.6 699.9,613.7 L695.4,612.7 C695.5,612.3 696.3,608.8 698.2,603.2 C701.5,593.3 708.1,577.1 719.6,560.7 C733.7,540.6 757.9,517.2 795.9,510.4 C798.5,511.3 801.1,512.5 803.7,513.7 Z" id="Path" fill="url(#linearGradient-3)"></path>
            <path d="M384.5,606.8 L379.9,607.1 C379.9,607.1 379.8,605.5 379.2,602.9 C377.8,596.1 373.4,582.2 360.6,572.2 C346,560.8 324.8,557.4 297.7,562 L295.9,557.9 C323.1,536.4 337.1,513.3 334.5,494.7 C332.7,482 323.3,471.4 306.5,463.3 C310.5,463.9 314.5,464.4 318.5,464.8 C330.5,472.8 337.4,482.6 339,494.1 C341.6,512.8 329.4,535.2 305.1,556.3 C329.8,553.4 349.4,557.5 363.5,568.6 C378.1,580.1 382.6,595.8 383.9,602.9 C384.3,605.2 384.4,606.6 384.5,606.8 Z" id="Path" fill="url(#linearGradient-4)"></path>
            <path d="M451.7,470 C451.7,470 432.7,500.6 406.4,472.8 C419.6,509 346.8,515.6 306.5,463.3 C366.6,472.1 440.1,459.6 512.9,453 C541.8,481.2 495.6,504.5 451.7,470 Z" id="Path" fill="#36288F"></path>
            <g transform="translate(250.000000, 354.000000)" id="Path">
                <path d="M31,51.8 L13.3,37.8 C12.9,37.5 12.7,37 12.8,36.5 C12.9,36 13.3,35.6 13.8,35.4 L68.8,18.1 C69.3,17.9 69.9,18.1 70.3,18.5 C70.7,18.9 70.7,19.5 70.5,20 C70.5,20.1 65.4,30.4 65.7,45 L62.9,45 C62.7,34.2 65.2,25.8 66.8,21.6 L17.2,37.2 L32.9,49.6 L31,51.8 Z" fill="#8D7CF7"></path>
                <path d="M43,51.8 L47.1,34 L31.3,32.8 C30.9,32.8 30.6,32.6 30.3,32.3 C30,32 30,31.6 30,31.2 L33.7,4.4 C32.9,4.6 32,4.7 31.2,4.9 C21.9,6.6 12.3,8.3 7.8,5 C6.4,4 5.6,2.7 5.4,0.9 L8.1,0.5 C8.2,1.5 8.7,2.2 9.4,2.7 C13,5.3 22.8,3.5 30.7,2.1 C32.2,1.8 33.7,1.6 35.1,1.3 C35.5,1.2 36,1.4 36.3,1.7 C36.6,2 36.8,2.5 36.7,2.9 L33,30 L49,31.3 C49.4,31.3 49.8,31.5 50,31.9 C50.2,32.2 50.3,32.6 50.2,33 L45.7,52.4 L43,51.8 Z" fill="#5D4DC4"></path>
                <path d="M1.4,34.3 L0.2,31.8 C11.4,26.4 18.4,12.6 18.5,12.5 C18.7,12.1 19.1,11.8 19.6,11.7 C20.1,11.7 20.6,11.9 20.8,12.3 L32.2,28.6 L55.7,1.4 C56.1,0.9 56.7,0.8 57.3,1 C57.9,1.2 58.2,1.8 58.2,2.4 L57,18.8 L54.2,18.6 L55.1,6.4 L33.2,31.8 C32.9,32.1 32.5,32.3 32.1,32.3 C31.7,32.3 31.3,32.1 31,31.7 L19.8,15.8 C17.5,20 11,29.8 1.4,34.3 Z" fill="#5D4DC4"></path>
                <path d="M33.5,34.6 C28,34.9 24.3,30.2 26.8,26.1 C29.3,22 36.2,21.6 39.1,25.4 C42,29.2 38.9,34.3 33.5,34.6 Z" fill="#F7F7F7"></path>
                <path d="M33.3,30.5 C30.4,29.2 29.7,26.1 32,24.8 C34.3,23.5 37.9,25.2 38.5,27.7 C39.1,30.2 36.2,31.8 33.3,30.5 Z" fill="#000000"></path>
            </g>
            <g transform="translate(13.000000, 354.000000)">
                <path d="M2.5,9.4 C-0.8,6.1 0.2,1.1 4.2,0.4 C8.2,-0.3 12.3,3.7 11.6,7.8 C10.9,11.9 5.8,12.7 2.5,9.4 Z" id="Path" fill="#201861"></path>
                <path d="M851,216.6 C847.5,217 845,214.1 846.4,211.4 C847.8,208.7 852.1,208.2 854.2,210.5 C856.3,212.8 854.4,216.2 851,216.6 Z" id="Path" fill="#36288F"></path>
                <path d="M5.6,37.6 C4.6,34 6.6,31 9.3,32.2 C12,33.4 13.3,37.9 11.6,40.3 C9.9,42.7 6.7,41.2 5.6,37.6 Z" id="Path" fill="#201861"></path>
                <path d="M144.4,84.6 C141.1,83.5 139.8,80.3 142.2,78.8 C144.6,77.3 148.7,78.8 149.7,81.3 C150.7,83.8 147.8,85.7 144.4,84.6 Z" id="Path" fill="#201861"></path>
                <path d="M216,193.7 C212,193.7 209.6,190.7 211.5,188.4 C213.4,186.1 218.4,186 220.4,188.4 C222.4,190.8 219.9,193.7 216,193.7 Z" id="Path" fill="#201861"></path>
                <path d="M148.4,175.5 C145.6,173.6 145.2,170.3 147.8,169.5 C150.4,168.7 153.9,171.2 154.2,173.8 C154.5,176.4 151.2,177.4 148.4,175.5 Z" id="Path" fill="#201861"></path>
                <path d="M366.7,198.8 C361.6,199.8 357.9,198.3 360.1,196 C362.3,193.7 368.7,192.4 371.6,193.6 C374.5,194.8 371.8,197.7 366.7,198.8 Z" id="Path" fill="#201861"></path>
                <circle id="Oval" fill="#201861" cx="1391.9" cy="143" r="4.4"></circle>
                <ellipse id="Oval" fill="#36288F" transform="translate(1405.053310, 163.001260) rotate(-78.632762) translate(-1405.053310, -163.001260) " cx="1405.05331" cy="163.00126" rx="4.9000798" ry="7.30011888"></ellipse>
                <ellipse id="Oval" fill="#201861" transform="translate(1229.607890, 212.043590) rotate(-79.577798) translate(-1229.607890, -212.043590) " cx="1229.60789" cy="212.04359" rx="3.29999515" ry="4.29999368"></ellipse>
            </g>
            <g transform="translate(1335.000000, 176.000000)">
                <path d="M7.1,168.3 C3.1,169.6 -0.2,168.3 1.3,165.8 C2.7,163.4 7.8,161.7 10.4,162.8 C13,163.9 11.2,167 7.1,168.3 Z" id="Path" fill="#201861"></path>
                <path d="M233.5,51.8 C228.6,53.7 224.5,52.2 226.1,49.2 C227.7,46.1 233.9,43.8 237.1,45 C240.3,46.2 238.4,49.9 233.5,51.8 Z" id="Path" fill="#201861"></path>
                <path d="M201.6,6.4 C197.6,7.7 194.4,6.3 195.8,3.9 C197.2,1.5 202.3,-0.1 204.8,1 C207.3,2.1 205.6,5.2 201.6,6.4 Z" id="Path" fill="#36288F"></path>
                <path d="M161.4,28.5 C157.5,32.4 153,32.7 153.2,29.1 C153.4,25.5 158.3,20.6 162,20.3 C165.7,20 165.3,24.6 161.4,28.5 Z" id="Path" fill="#201861"></path>
                <circle id="Oval" fill="#36288F" cx="120.6" cy="97.1" r="3.7"></circle>
            </g>
            <path d="M1374.4,251.6 C1376.6,248.3 1378.7,245.1 1380.8,241.9 C1406,204.2 1436.8,156.7 1473.1,112.3 C1495.6,236.6 1374.4,251.6 1374.4,251.6 Z" id="Path" fill="#4534AD"></path>
            <g transform="translate(1364.000000, 333.000000)" id="Path">
                <path d="M36.5,15.4 L22.8,33.9 C42.4,40.6 42.8,22.6 36.5,15.4 Z" fill="#4030A3"></path>
                <path d="M29.4,28.8 C16.5,42.5 0.6,43.7 0.7,31 C0.8,18.3 17.1,1.1 29.8,0.1 C42.6,-0.9 42.3,15 29.4,28.8 Z" fill="#C2BAFF"></path>
                <g>
                    <path d="M29.4,28.8 C16.5,42.5 0.6,43.7 0.7,31 C0.8,18.3 17.1,1.1 29.8,0.1 C42.6,-0.9 42.3,15 29.4,28.8 Z"></path>
                    <g transform="translate(1.000000, 3.000000)">
                        <path d="M23.6,9.6 C16.8,13 11.3,12.3 13.5,8.4 C15.7,4.5 24.2,0.3 28.7,0.9 C33.2,1.5 30.4,6.2 23.6,9.6 Z" fill="#E0DBFF"></path>
                        <path d="M32.9,19.8 C32.8,13.9 30,9.9 24.4,7.9 C17.4,5.4 9.1,7.3 7.4,9.3 L4.4,6.8 C7.4,3.3 17.6,1.3 25.7,4.3 C32.7,6.8 36.6,12.3 36.7,19.8 L32.9,19.8 Z" fill="#8D7CF7"></path>
                        <path d="M24.4,30.5 C24.3,29.9 20.8,16 0.8,19.4 L0.2,15.6 C23.9,11.6 28.2,29.6 28.3,29.8 L24.4,30.5 Z" fill="#8D7CF7"></path>
                    </g>
                </g>
            </g>
            <g transform="translate(1327.000000, 151.000000)" id="Path">
                <path d="M71.2,71.5 C70.8,71.5 70.4,71.4 70,71.1 L52.4,59.8 C51.3,59.1 51,57.7 51.7,56.6 C52.4,55.5 53.8,55.2 54.9,55.9 L72.5,67.2 C73.6,67.9 73.9,69.3 73.2,70.4 C72.7,71.1 71.9,71.5 71.2,71.5 Z" fill="#4534AD"></path>
                <path d="M106.8,92.9 C105.9,92.9 105,92.3 104.7,91.4 L99.2,77.4 C98.7,76.2 99.3,74.9 100.5,74.4 C101.7,73.9 103,74.5 103.5,75.7 L109,89.7 C109.5,90.9 108.9,92.2 107.7,92.7 C107.3,92.9 107,92.9 106.8,92.9 Z" fill="#4030A3"></path>
                <path d="M36.1,123.6 C35.4,123.6 34.7,123.3 34.3,122.7 L16.5,98.7 C15.7,97.7 16,96.2 17,95.5 C18,94.7 19.4,95 20.2,96 L38,120 C38.8,121 38.5,122.5 37.5,123.2 C37,123.4 36.5,123.6 36.1,123.6 Z" fill="#4030A3"></path>
                <path d="M64.6,132.4 C63.8,132.4 63,132 62.6,131.2 L56.1,119.5 C55.5,118.4 55.9,117 57,116.4 C58.1,115.8 59.5,116.2 60.1,117.3 L66.6,129 C67.2,130.1 66.8,131.5 65.7,132.1 C65.4,132.3 65,132.4 64.6,132.4 Z" fill="#4030A3"></path>
                <path d="M114.7,57 C113.4,57 112.4,55.9 112.4,54.7 L112.6,41.9 C112.6,40.7 113.7,39.7 114.9,39.7 C114.9,39.7 114.9,39.7 115,39.7 C116.3,39.7 117.3,40.8 117.2,42 L117,54.8 C117,56 115.9,57 114.7,57 Z" fill="#2D1F82"></path>
                <path d="M104.6,78.5 C104,79 103.3,79.4 102.6,79.8 C101.9,80.2 101.3,80.6 100.6,80.9 C95.9,83.3 91.5,84.1 88.1,83.7 C86.3,83.5 84.7,82.9 83.7,81.9 C82.2,80.5 81.6,78.4 82.4,75.7 C84.7,67.9 96.5,60.2 105.4,59.9 C106.5,59.9 107.5,59.9 108.5,60.1 C109.3,60.3 110,60.5 110.6,60.8 C116.4,63.7 113.6,72.3 104.6,78.5 Z" fill="#C2BAFF"></path>
                <path d="M112.5,43.1 C104.1,42.9 98.9,38 103.2,34.3 C107.5,30.5 118,30.8 122.1,34.7 C126.2,38.6 120.9,43.3 112.5,43.1 Z" fill="#E2DCFE"></path>
                <path d="M59.8,50.8 C59.7,53.1 59.3,55.7 58.6,58.3 C58.5,58.6 58.5,58.8 58.4,59.1 C58,60.4 57.6,61.7 57.1,62.8 C52.2,75.3 42.4,80.3 38.1,71.7 C37,69.5 36.5,66.8 36.4,63.9 C36.3,62.2 36.4,60.5 36.7,58.7 C37.8,50.2 42,41.3 47.8,37.7 C53.9,33.9 58.6,38.1 59.7,45.8 C59.8,47.4 59.9,49 59.8,50.8 Z" fill="#5D4DC4"></path>
                <path d="M21,97.1 C20.2,97.3 19.3,97.5 18.4,97.7 C17.6,97.8 16.9,97.9 16.1,98 C14.4,98.2 12.8,98.2 11.3,98.2 C9.5,98.1 7.9,97.8 6.5,97.4 C0.9,95.7 -1.6,91.8 1.8,87.3 C5.1,83 12.3,80.3 19.2,79.9 C21,79.8 22.8,79.9 24.5,80.1 C26.7,80.4 28.7,81.1 30.4,82.1 C37.2,86.4 32,94.1 21,97.1 Z" fill="#E2DCFE"></path>
                <path d="M60.2,121.1 C53.4,127.6 45.5,127.8 45.9,121.5 C46.3,115.2 54.7,107 61.1,106.9 C67.4,106.7 66.9,114.6 60.2,121.1 Z" fill="#E2DCFE"></path>
                <path d="M95.3,103 C91.8,105.6 87.5,104.5 87.6,101 C87.7,97.5 92.1,94.2 95.5,95.1 C98.9,96 98.8,100.4 95.3,103 Z" fill="#E2DCFE"></path>
                <path d="M72.1,98.2 C64.9,97 61.3,90.6 65.7,86.7 C70,82.7 79,84.2 81.9,89.3 C84.8,94.4 79.3,99.4 72.1,98.2 Z" fill="#E2DCFE"></path>
                <path d="M79,42.5 C78.9,47.5 74.8,50.6 71.7,48 C68.6,45.4 68.8,39.1 72,36.6 C75.2,34.1 79.1,37.5 79,42.5 Z" fill="#8D7CF7"></path>
                <path d="M50.6,91.9 C43.4,93.6 37.9,90.5 40.8,86.4 C43.7,82.3 52.7,80.2 57.1,82.7 C61.5,85.2 57.8,90.2 50.6,91.9 Z" fill="#E2DCFE"></path>
                <path d="M22.8,72.6 C15.7,75.1 9.7,72.1 12,67.2 C14.2,62.3 23.1,59.2 27.9,61.6 C32.7,64.1 29.9,70.2 22.8,72.6 Z" fill="#8D7CF7"></path>
                <path d="M68.9,27.6 C62.8,31.6 55.4,28.6 55.6,22.2 C55.8,15.8 63.4,10.8 69.4,13.2 C75.4,15.6 75,23.6 68.9,27.6 Z" fill="#8D7CF7"></path>
                <path d="M92.9,33.6 C86.8,35.3 81.4,31 83.2,25.7 C85,20.4 92.6,18.3 96.9,21.8 C101.2,25.3 99,31.8 92.9,33.6 Z" fill="#5D4DC4"></path>
                <path d="M116.9,21.6 C110.5,17.4 109,11.1 114.1,10.2 C119.2,9.3 127.2,14.5 128.4,19.6 C129.6,24.7 123.3,25.7 116.9,21.6 Z" fill="#E2DCFE"></path>
                <path d="M99.1,11.3 C93.2,12.7 88.4,9 90.5,4.7 C92.6,0.3 100,-1.4 103.8,1.5 C107.6,4.4 105,9.9 99.1,11.3 Z" fill="#5D4DC4"></path>
                <g transform="translate(36.000000, 36.000000)">
                    <path d="M23.8,14.8 C23.7,17.1 23.3,19.7 22.6,22.3 C22.5,22.6 22.5,22.8 22.4,23.1 C22,24.4 21.6,25.7 21.1,26.8 C16.2,39.3 6.4,44.3 2.1,35.7 C1,33.5 0.5,30.8 0.4,27.9 C0.3,26.2 0.4,24.5 0.7,22.7 C1.8,14.2 6,5.3 11.8,1.7 C17.9,-2.1 22.6,2.1 23.7,9.8 C23.8,11.4 23.9,13 23.8,14.8 Z"></path>
                    <path d="M23.8,14.8 L0.4,27.9 C0.3,26.2 0.4,24.5 0.7,22.7 L23.6,9.8 C23.8,11.4 23.9,13 23.8,14.8 Z" fill="#8D7CF7"></path>
                </g>
                <g transform="translate(0.000000, 79.000000)">
                    <path d="M21,18.1 C20.2,18.3 19.3,18.5 18.4,18.7 C17.6,18.8 16.9,18.9 16.1,19 C14.4,19.2 12.8,19.2 11.3,19.2 C9.5,19.1 7.9,18.8 6.5,18.4 C0.9,16.7 -1.6,12.8 1.8,8.3 C5.1,4 12.3,1.3 19.2,0.9 C21,0.8 22.8,0.9 24.5,1.1 C26.7,1.4 28.7,2.1 30.4,3.1 C37.2,7.4 32,15.1 21,18.1 Z"></path>
                    <path d="M24.4,1.1 L11.3,19.2 C9.5,19.1 7.9,18.8 6.5,18.4 L19.2,0.9 C21,0.8 22.8,0.9 24.4,1.1 Z" fill="#8D7CF7"></path>
                </g>
                <g transform="translate(82.000000, 59.000000)">
                    <path d="M22.6,19.5 C22,20 21.3,20.4 20.6,20.8 C19.9,21.2 19.3,21.6 18.6,21.9 C13.9,24.3 9.5,25.1 6.1,24.7 C4.3,24.5 2.7,23.9 1.7,22.9 C0.2,21.5 -0.4,19.4 0.4,16.7 C2.7,8.9 14.5,1.2 23.4,0.9 C24.5,0.9 25.5,0.9 26.5,1.1 C27.3,1.3 28,1.5 28.6,1.8 C34.4,4.7 31.6,13.3 22.6,19.5 Z"></path>
                    <path d="M28.6,1.8 L6,24.7 C4.2,24.5 2.6,23.9 1.6,22.9 L23.3,0.8 C24.4,0.8 25.4,0.8 26.4,1 C27.3,1.3 28,1.5 28.6,1.8 Z" fill="#8D7CF7"></path>
                </g>
            </g>
            <g transform="translate(534.000000, 385.000000)" fill="#5D4DC4" id="Path">
                <path d="M63,71.3 C62.1,71.1 61.5,70.3 61.6,69.4 C63.5,45.1 70,32.2 75.7,30.1 C77.4,29.5 78.9,29.9 80.1,31 C82.5,33.5 82.2,39.2 79.4,46.2 C79,47.1 78,47.6 77,47.2 C76.1,46.8 75.6,45.8 76,44.8 C78.7,38.2 78.3,34.3 77.5,33.5 C77.4,33.4 77.3,33.3 77,33.5 C74.6,34.3 67.4,42.8 65.3,69.6 C65.2,70.6 64.3,71.4 63.3,71.3 C63.1,71.3 63,71.3 63,71.3 Z"></path>
                <path d="M52.7,69.5 C51.7,69.3 51.1,68.3 51.3,67.3 C51.3,67.1 56.6,44.5 49.9,31.7 C48.6,29.1 46.5,26.3 44.5,23.7 C42.6,21.2 40.9,18.8 39.7,16.6 C37.4,12.3 37.4,7.7 39.6,4.4 C41.4,1.7 44.6,0.3 48.2,0.6 C58,1.5 63.1,11.9 65,16.9 L73,10.1 C73.8,9.4 74.9,9.5 75.6,10.3 C76.3,11.1 76.2,12.2 75.4,12.9 L65.3,21.4 C64.8,21.8 64.2,21.9 63.6,21.7 C63,21.5 62.6,21 62.4,20.5 C62.4,20.3 58,5.2 47.9,4.3 C45.6,4.1 43.7,4.9 42.6,6.5 C41.2,8.6 41.3,11.9 42.9,15 C43.9,17 45.6,19.2 47.4,21.7 C49.4,24.5 51.6,27.4 53.1,30.2 C60.4,44.2 55,67.4 54.8,68.3 C54.6,69.1 53.7,69.7 52.7,69.5 Z"></path>
                <path d="M48.8,69 C47.9,68.8 47.3,68 47.4,67.1 C49.3,42.3 43.4,41 35.8,39.4 C27.5,37.6 17.1,35.4 14.7,6 L2.5,8.1 C1.5,8.3 0.6,7.6 0.4,6.6 C0.2,5.6 0.9,4.7 1.9,4.5 L16.1,2 C16.6,1.9 17.1,2 17.5,2.4 C17.9,2.8 18.2,3.2 18.2,3.7 C20,32.2 28.4,34 36.6,35.8 C46.6,38 53.1,41.3 51.1,67.4 C51,68.4 50.1,69.2 49.1,69.1 C48.9,69 48.8,69 48.8,69 Z"></path>
                <path d="M43.9,68.5 C43.1,68.3 42.4,67.5 42.5,66.7 C42.8,59.2 41.3,53.6 38.1,50.4 C36,48.4 33.3,47.5 30,47.7 C27.9,47.9 25.4,49.3 22.9,50.8 C19,53.1 14.9,55.4 11.2,53.5 C7.9,51.8 6,47 5.2,38.2 C5.1,37.2 5.9,36.3 6.8,36.2 C7.8,36.1 8.7,36.9 8.8,37.8 C9.6,46.8 11.5,49.5 12.8,50.2 C14.7,51.2 17.9,49.3 21,47.5 C23.8,45.9 26.8,44.2 29.7,44 C34,43.7 37.7,44.9 40.6,47.7 C44.6,51.6 46.5,58.1 46.1,66.7 C46.1,67.7 45.2,68.5 44.2,68.4 C44.1,68.6 44,68.5 43.9,68.5 Z"></path>
            </g>
            <path d="M1315.5,345.3 C1313.2,454.6 1238.3,479 1209.1,456.3 C1222.2,451.2 1236.3,449.1 1254.2,449.1 C1254.2,449.1 1281.6,401.4 1315.5,345.3 Z" id="Path" fill="#8D7CF7"></path>
            <g transform="translate(602.000000, 463.000000)" fill="#36288F" id="Path">
                <path d="M80.3,30.8 C64.4,26.3 55.5,19.1 64.3,17.9 C73.1,16.7 93,22.4 100.1,28.1 C107.2,33.8 96.3,35.3 80.3,30.8 Z"></path>
                <path d="M41.6,55 C24.1,52.4 13.6,46.1 22.9,43.6 C32.2,41.1 54.1,44.3 62.4,49.4 C70.7,54.5 59.1,57.6 41.6,55 Z"></path>
                <path d="M94.9,76.2 C79.6,72.7 70.8,66.3 79.1,64.8 C87.4,63.2 106.6,67.6 113.6,72.7 C120.6,77.8 110.2,79.7 94.9,76.2 Z"></path>
                <path d="M137.1,43.2 C125.6,37.4 119.9,30.7 126.7,31.2 C133.5,31.7 147.8,38.8 152.5,44.2 C157.2,49.6 148.5,48.9 137.1,43.2 Z"></path>
                <path d="M105.6,52.1 C97.6,48.6 93.4,44.2 98.1,44.2 C102.8,44.2 112.8,48.7 116.1,52.2 C119.4,55.7 113.6,55.6 105.6,52.1 Z"></path>
                <path d="M52,32.7 C44.3,29.5 40.3,25.5 44.7,25.4 C49.1,25.3 58.7,29.3 61.9,32.5 C65.2,35.8 59.7,35.9 52,32.7 Z"></path>
                <path d="M46.2,6.4 C40.2,4.7 36.9,1.6 40.4,0.6 C43.9,-0.4 51.3,1.8 53.9,4.3 C56.5,6.8 52.3,8.1 46.2,6.4 Z"></path>
                <path d="M15.2,85.2 C3.2,82.5 -3.7,77.5 2.8,76.3 C9.3,75.1 24.3,78.4 29.8,82.4 C35.3,86.4 27.2,87.9 15.2,85.2 Z"></path>
            </g>
            <g transform="translate(192.000000, 484.000000)" id="Path">
                <path d="M27.4,18.4 C21.5,18.4 17.7,13.7 20.7,9.9 C23.7,6.1 31.1,6.1 34.1,9.9 C37.1,13.7 33.3,18.4 27.4,18.4 Z" fill="#36288F"></path>
                <path d="M5,7 C1.4,7 -0.8,4.1 1,1.8 C2.8,-0.5 7.3,-0.5 9.1,1.8 C10.9,4.1 8.6,7 5,7 Z" fill="#201861"></path>
            </g>
            <path d="M1136.3,556.7 C1143.2,545.2 1151.8,552.9 1154.1,556.4 C1160.5,548.3 1168,556.7 1168,556.7" id="Path" stroke="#4030A3" stroke-width="3.5" stroke-linecap="round" stroke-linejoin="round"></path>
            <g transform="translate(1252.000000, 459.000000)" id="Path">
                <path d="M50.3,1.4 C27.3,4.1 22.6,30.9 0.9,36.6" stroke="#201861" stroke-width="3" stroke-linecap="round" stroke-linejoin="round"></path>
                <path d="M34.7,44.6 C47.5,44.5 60.3,41.4 60.3,41.4 C53.2,5.1 36.8,12.8 35.7,22.5 L34.7,44.6 Z" fill="#201861"></path>
                <path d="M96.7,49.3 C76.2,-10.3 26.3,-21.2 35.9,53.2" stroke="#201861" stroke-width="3" stroke-linecap="round" stroke-linejoin="round"></path>
            </g>
            <g transform="translate(448.000000, 497.000000)" id="Path">
                <path d="M0.9,44.5 C-2.3,62.8 36.7,59.9 53.5,48.3 C55.3,47.1 57.6,47.2 59.4,48.5 C75,60.1 118.1,36.1 118.1,36.1 C58.2,20.9 0.9,44.5 0.9,44.5 Z" fill="#403299"></path>
                <g>
                    <path d="M118,36.1 C83.7,-5.3 73,0.9 62.3,7.7 C51.6,14.5 49.5,8.7 43,8.6 C36.5,8.4 28.1,20.9 23.6,27.6 C19.1,34.3 3.9,33.8 0.9,44.4 C-0.2,48.2 43.4,50.3 57.7,39.6 C82.1,45 118,36.1 118,36.1 Z" fill="#8D7CF7"></path>
                    <path d="M44.9,33.8 C41,38.2 36.2,38.9 36.3,35 C36.4,31.1 41.2,25.7 45.1,25.1 C48.9,24.5 48.8,29.4 44.9,33.8 Z" fill="#C2BAFF"></path>
                    <g>
                        <path d="M118,36.1 C83.7,-5.3 73,0.9 62.3,7.7 C51.6,14.5 49.5,8.7 43,8.6 C36.5,8.4 28.1,20.9 23.6,27.6 C19.1,34.3 3.9,33.8 0.9,44.4 C-0.2,48.2 43.4,50.3 57.7,39.6 C82.1,45 118,36.1 118,36.1 Z"></path>
                        <path d="M56.5,43 C76.1,28.2 86.3,4.4 74.4,0.6" stroke="#C2BAFF" stroke-width="3.5" opacity="0.5"></path>
                    </g>
                </g>
            </g>
        </g>
        <g id="Group" transform="translate(0.000000, 2.000000)">
            <g transform="translate(1372.000000, 270.000000)" id="Path">
                <path d="M228,0.6 L228,111.8 C208.1,133.2 215.7,147.6 228,195.7 L228,266.8 C228,266.8 210.1,218.4 197.6,185.6 C185,152.8 177.4,153.8 153.9,159.4 C146.1,161.3 133.5,164.3 118.5,167.7 C88.4,174.7 48.8,183.4 19.3,188 C16.2,188.5 13.5,188.7 11.1,188.7 C-24,188.2 23.9,130.3 228,0.6 Z" fill="#201861"></path>
                <path d="M228,0.6 L228,98.6 C184,133.6 165.7,151.8 118.4,167.6 C105.8,170.5 91.5,173.7 76.9,176.9 C56.8,181.2 36.3,185.3 19.2,188 C16.1,188.5 13.4,188.7 11,188.7 C-23.2,188.3 21.5,133.2 212.9,10.2 C217.9,7 222.9,3.9 228,0.6 Z" fill="#8D7CF7"></path>
                <g>
                    <path d="M228,0.6 L228,98.6 L226.5,99.8 C219.9,105 213.9,109.9 208.3,114.5 C206.9,115.6 205.5,116.7 204.2,117.8 C197.9,122.9 192,127.5 186.3,131.8 C184.9,132.9 183.4,133.9 182,135 C176.8,138.8 171.7,142.3 166.4,145.5 C164.9,146.5 163.3,147.4 161.7,148.3 C159.4,149.6 157.1,150.9 154.8,152.2 C153.1,153.1 151.3,154 149.5,155 C147.9,155.8 146.2,156.6 144.5,157.4 C142.6,158.3 140.7,159.1 138.7,160 C132.5,162.7 125.8,165.2 118.3,167.7 C118,167.8 117.6,167.9 117.2,167.9 C114.6,168.5 112,169.1 109.4,169.7 C101.6,171.5 93.3,173.4 84.9,175.2 C82.5,175.7 80,176.3 77.6,176.8 C57.3,181.2 36.5,185.3 19.2,188 C16.1,188.5 13.4,188.7 11,188.7 C-24,188.2 23.9,130.3 228,0.6 Z"></path>
                    <g transform="translate(52.000000, 70.000000)" fill="#5D4DC4">
                        <path d="M65.3,97.8 C62.7,98.4 60.1,99 57.5,99.6 L7.4,76.9 L9.4,72.4 L65.3,97.8 Z"></path>
                        <path d="M114.5,75.5 C113,76.5 111.4,77.4 109.8,78.3 L54.8,42.9 L57.4,38.8 L114.5,75.5 Z"></path>
                        <path d="M156.3,44.4 C154.9,45.5 153.5,46.6 152.2,47.7 L96.2,15.2 L98.7,11 L156.3,44.4 Z"></path>
                        <polygon points="176 24.9 176 28.6 174.5 29.8 144 10.7 146.6 6.5"></polygon>
                        <polygon points="176 12.3 176 17.9 152.1 4.7 154.5 0.4"></polygon>
                        <path d="M134.3,61.8 C132.9,62.9 131.4,63.9 130,65 L83.9,38.5 L86.3,34.3 L134.3,61.8 Z"></path>
                        <path d="M102.9,82.2 C101.2,83.1 99.4,84 97.6,85 L47.3,58.5 L49.6,54.2 L102.9,82.2 Z"></path>
                        <path d="M92.6,87.3 C90.7,88.2 88.8,89 86.8,89.9 L41.9,67.1 L44.1,62.7 L92.6,87.3 Z"></path>
                        <path d="M32.9,105.1 C30.5,105.6 28,106.2 25.6,106.7 L0.6,93.1 L2.9,88.8 L32.9,105.1 Z"></path>
                    </g>
                </g>
                <path d="M228,8.4 L228,59.5 C218.1,106.5 165.9,92 165.9,92 C155.7,133.7 130.4,121.1 130.4,121.1 C123.3,155.6 84.6,155.6 84.6,155.6 C85.9,164.1 82.6,171.2 77,176.9 C56.9,181.2 36.4,185.3 19.3,188 C16.2,188.5 13.5,188.7 11.1,188.7 C-23.1,188.3 21.6,133.2 213,10.2 C213.5,10.1 220.3,8.8 228,8.4 Z" fill="#201861"></path>
                <g>
                    <path d="M228,0.6 L228,32 C228,63.4 206.9,98.2 155.6,85.6 C151.5,107.7 132.6,122.8 114.3,113.3 C103.3,135.2 97.7,154.3 66.5,147.1 C55.8,172 58.8,177.3 24.8,179.2 C24.8,179.2 20.8,188.8 11,188.7 C-24,188.2 23.9,130.3 228,0.6 Z" fill="#8D7CF7"></path>
                    <g transform="translate(18.000000, 15.000000)" fill="#4534AD">
                        <path d="M173.5,57.3 C161.5,63.5 151,61.7 154.7,54.1 C158.4,46.4 173.4,38.7 181.7,40.1 C190,41.5 185.5,51.1 173.5,57.3 Z"></path>
                        <path d="M76.9,101.7 C63.4,114.7 50.6,118.3 53.9,108.2 C57.2,98.1 74.1,81.8 84.3,78.9 C94.5,76 90.5,88.6 76.9,101.7 Z"></path>
                        <path d="M118.1,80.5 C113.5,85.1 107.8,85 107.7,80.4 C107.6,75.8 113.4,70.1 118,70.1 C122.6,70.1 122.7,75.9 118.1,80.5 Z"></path>
                        <path d="M14,147.5 C6.6,155 -1,156.7 0.3,150.6 C1.6,144.5 11,135.2 17.1,133.8 C23.2,132.4 21.5,140 14,147.5 Z"></path>
                        <path d="M143.2,46.4 C138.3,51.3 133.2,52.5 134.1,48.5 C135,44.5 141.2,38.3 145.2,37.4 C149.2,36.5 148.1,41.5 143.2,46.4 Z"></path>
                        <path d="M198.9,17.9 C188.2,26.3 178.1,27.3 180.9,19.7 C183.7,12.1 197.1,1.7 205.1,0.8 C213.1,-0.1 209.7,9.5 198.9,17.9 Z"></path>
                    </g>
                </g>
            </g>
            <g transform="translate(1468.000000, 0.000000)" id="Path">
                <g transform="translate(0.000000, 17.000000)">
                    <path d="M108.3,45 C104.6,46.6 101,48 97.5,49.2 C62.5,61.1 33.8,54.3 16.9,41 C15.8,40.1 14.7,39.2 13.7,38.3 L13.6,38.2 C6.7,31.8 2.2,24.2 0.7,16.6 C0,13.2 -0.1,10.4 0.3,8.1 C0.5,7.2 0.7,6.3 1,5.5 C1.2,5.1 1.4,4.7 1.6,4.3 C8.7,-7.1 38.8,8.4 62.3,21.2 C73,27 85.3,33.4 96.6,39.1 C99.1,40.4 101.5,41.6 103.9,42.8 L104,42.8 C105.3,43.4 106.5,44.1 107.7,44.7 C107.9,44.8 108.1,44.9 108.3,45 Z" fill="#4030A3"></path>
                    <path d="M132,32.1 L132,56.6 C132,56.6 111.1,56 97.5,49.2 C105.2,45.8 123.3,38.2 132,32.1 Z" fill="#201861"></path>
                    <path d="M103.9,42.8 C102.4,42.9 100.5,42.9 98.1,42.9 C86.2,42.9 64.2,41.3 39.7,31.4 C38.1,30.8 36.5,30.1 34.9,29.3 C23.5,24.3 11.8,17.4 0.3,8.1 C0.5,7.2 0.7,6.3 1,5.5 C1.2,5.1 1.4,4.7 1.6,4.3 C38.1,34.5 78.1,38.9 96.6,39.1 C99.1,40.4 101.5,41.6 103.9,42.8 Z" fill="#281F70"></path>
                    <path d="M40,31.2 L39.7,31.3 L16.9,40.9 C15.8,40 14.7,39.1 13.7,38.2 L34.9,29.2 L38.7,27.6 L40,31.2 Z" fill="#281F70"></path>
                    <path d="M108.3,45 C104.6,46.6 101,48 97.5,49.2 C62.5,61.1 33.8,54.3 16.9,41 C15.8,40.1 14.7,39.2 13.7,38.3 L13.6,38.2 C6.7,31.8 2.2,24.2 0.7,16.6 C0,13.2 -0.1,10.4 0.3,8.1 C0.5,7.2 0.7,6.3 1,5.5 C1.2,5.1 1.4,4.7 1.6,4.3 C8.7,-7.1 38.8,8.4 62.3,21.2 C73,27 85.3,33.4 96.6,39.1 C99.1,40.4 101.5,41.6 103.9,42.8 L104,42.8 C105.3,43.4 106.5,44.1 107.7,44.7 C107.9,44.8 108.1,44.9 108.3,45 Z"></path>
                </g>
                <path d="M132,28.2 C77.4,-27.5 52.7,12.5 132,36.3 L132,28.2 Z" fill="#4030A3"></path>
                <g transform="translate(14.000000, 88.000000)">
                    <path d="M118,0.4 L118,9.2 C117.1,9.7 116.2,10.2 115.3,10.6 C62,38.3 -8.5,43 1.4,27.5 C3.1,24.8 5.9,22.2 9.7,19.8 C11.9,18.4 14.4,17.1 17.1,15.8 C37.6,6.4 74.4,0.4 118,0.4 Z" fill="#201861"></path>
                    <path d="M118,6.5 L118,9.2 C117.1,9.7 116.2,10.2 115.3,10.6 C106,9.6 95.4,11.6 82.5,14.1 C67.3,17 49.1,20.5 26,20.5 C20.8,20.5 15.3,20.3 9.6,19.9 C11.8,18.5 14.3,17.2 17,15.9 C44,16.9 64.7,13 81.6,9.8 C96,7 107.6,4.9 118,6.5 Z" fill="#4030A3"></path>
                    <path d="M118,0.4 L118,9.2 C117.1,9.7 116.2,10.2 115.3,10.6 C62,38.3 -8.5,43 1.4,27.5 C3.1,24.8 5.9,22.2 9.7,19.8 C11.9,18.4 14.4,17.1 17.1,15.8 C37.6,6.4 74.4,0.4 118,0.4 Z"></path>
                </g>
            </g>
            <g transform="translate(1485.000000, 477.000000)" id="Path">
                <g transform="translate(51.000000, 0.000000)">
                    <path d="M64,48.2 L64,71.3 C58.9,69.5 54,67.8 49.4,66.1 C48.1,65.6 46.8,65.1 45.5,64.7 C40.2,62.7 35.2,60.8 30.7,59 C29.3,58.4 28,57.9 26.7,57.4 C24.9,56.6 23.2,55.9 21.5,55.3 C20.1,54.7 18.7,54.1 17.5,53.6 C9.8,50.3 4.6,47.7 2.1,46.3 C1.9,46.2 1.7,46.1 1.5,46 C-3.5,43 9.4,-9.9 13.2,2.5 C13.5,3.3 14,4.3 14.7,5.4 C16.9,8.8 21.2,13.3 26.5,18.2 C28,19.6 29.5,21 31.2,22.4 C32.3,23.4 33.5,24.4 34.7,25.4 C36.1,26.6 37.5,27.8 38.9,28.9 C43.3,32.6 48,36.2 52.3,39.6 C53.7,40.7 55,41.7 56.3,42.6 C59.1,44.7 61.7,46.5 64,48.2 Z" fill="#C2BAFF"></path>
                    <path d="M13.3,2.5 C13.9,3.2 14.4,4.2 14.8,5.4 C18.4,17.2 11.3,50.8 2.2,46.3 C2,46.2 1.8,46.1 1.6,46 C-3.4,43 9.5,-9.9 13.3,2.5 Z" fill="#DAD6FF"></path>
                    <path d="M12.1,28.1 C11,37.3 7.9,42.7 6.6,37.9 C5.3,33.1 6.7,21.6 9.1,17.2 C11.5,12.9 13.2,18.9 12.1,28.1 Z" fill="#8D7CF7"></path>
                    <g>
                        <path d="M64,48.2 L64,71.3 C58.9,69.5 54,67.8 49.4,66.1 C48.1,65.6 46.8,65.1 45.5,64.7 C40.2,62.7 35.2,60.8 30.7,59 C29.3,58.4 28,57.9 26.7,57.4 C24.9,56.6 23.2,55.9 21.5,55.3 C20.1,54.7 18.7,54.1 17.5,53.6 C9.8,50.3 4.6,47.7 2.1,46.3 C1.9,46.2 1.7,46.1 1.5,46 C-3.5,43 9.4,-9.9 13.2,2.5 C13.5,3.3 14,4.3 14.7,5.4 C16.9,8.8 21.2,13.3 26.5,18.2 C28,19.6 29.5,21 31.2,22.4 C32.3,23.4 33.5,24.4 34.7,25.4 C36.1,26.6 37.5,27.8 38.9,28.9 C43.3,32.6 48,36.2 52.3,39.6 C53.7,40.7 55,41.7 56.3,42.6 C59.1,44.7 61.7,46.5 64,48.2 Z"></path>
                        <g transform="translate(17.000000, 18.000000)" fill="#8D7CF7">
                            <path d="M14.3,5.5 C14.3,11.6 12.9,19.4 11.1,24.9 C9.8,29.2 7.7,34.2 4.6,37.3 C3.2,36.7 1.8,36.1 0.6,35.6 C3,34 5.5,29.8 7.3,23.7 C10.7,12.6 10.7,2.9 9.6,0.2 C11.1,1.6 12.6,3 14.3,4.4 C14.3,4.8 14.3,5.1 14.3,5.5 Z"></path>
                            <path d="M22,12.7 C22,20.8 19.7,31.3 16.2,37.6 C15.4,39 14.6,40.1 13.8,41 C12.4,40.4 11.1,39.9 9.8,39.4 C10.8,38.7 11.9,37.4 12.9,35.7 C17.3,27.9 19.2,13.9 17.7,7.4 C19.1,8.6 20.5,9.8 21.9,10.9 C22,11.5 22,12.1 22,12.7 Z"></path>
                            <path d="M39.4,24.6 C39.4,30.5 38.3,40.8 32.4,48.1 C31.1,47.6 29.8,47.1 28.5,46.7 C35.5,39 35.6,25.9 35.4,21.6 C36.8,22.7 38.1,23.7 39.4,24.6 Z"></path>
                        </g>
                    </g>
                </g>
                <g transform="translate(0.000000, 31.000000)">
                    <path d="M115,50 L115,81.4 C115,81.4 112.9,80.9 109.4,80.2 C108.3,79.9 107,79.6 105.6,79.3 C101.2,78.3 95.5,77.1 89.1,75.6 C87.9,75.3 86.6,75 85.4,74.8 C83.6,74.4 81.8,74 79.9,73.6 C78.7,73.3 77.4,73 76.1,72.8 C74.1,72.3 72.1,71.9 70.1,71.4 C68.8,71.1 67.4,70.8 66.1,70.5 C65.4,70.3 64.7,70.2 64.1,70 C63.2,69.8 62.3,69.6 61.5,69.4 C59.8,69 58.2,68.7 56.5,68.3 C55.4,68.1 54.3,67.8 53.2,67.6 C53.2,67.6 53.2,67.6 53.2,67.6 C48.7,66.6 44.3,65.6 40,64.6 C34.5,63.4 29.3,62.2 24.7,61.2 C23.4,60.9 22.1,60.6 20.8,60.3 C13.2,58.6 7.7,57.4 5.7,56.9 C5.6,56.9 5.5,56.8 5.3,56.8 C5.2,56.8 5.1,56.7 5.1,56.7 C5.1,56.7 5,56.7 5,56.6 C4.9,56.5 4.8,56.5 4.7,56.4 C4.5,56.3 4.3,56.1 4.1,55.9 C4,55.8 4,55.8 3.9,55.7 C3.8,55.6 3.7,55.5 3.7,55.4 C3.6,55.3 3.5,55.2 3.4,55 C3.4,55 3.3,54.9 3.3,54.9 C3.3,54.9 3.3,54.9 3.3,54.9 C3.2,54.8 3.1,54.6 3,54.4 C2.9,54.3 2.9,54.2 2.8,54 C2.8,54 2.8,54 2.8,54 C2.8,54 2.7,53.9 2.7,53.8 C2.6,53.6 2.6,53.5 2.5,53.3 C2.4,53.2 2.4,53.1 2.4,53 C2.4,53 2.4,52.9 2.4,52.9 C2.3,52.8 2.3,52.6 2.2,52.5 C2.1,52.2 2,51.9 1.9,51.6 C1.8,51.4 1.8,51.2 1.7,51 C1.6,50.8 1.6,50.5 1.5,50.3 C1.5,50.2 1.5,50.1 1.4,50 C1.4,50 1.4,49.9 1.4,49.9 C1.4,49.8 1.4,49.7 1.3,49.6 C1.3,49.5 1.3,49.4 1.2,49.3 C1.1,49 1.1,48.7 1,48.4 C0.9,48.1 0.9,47.8 0.8,47.4 C0.8,47.2 0.7,46.9 0.7,46.6 C0.7,46.3 0.6,46.1 0.6,45.8 C0.6,45.5 0.5,45.2 0.5,44.9 C0.5,44.8 0.5,44.8 0.5,44.7 C0.5,44.5 0.5,44.2 0.4,44 C0.4,43.7 0.3,43.4 0.3,43.2 C0.3,42.9 0.3,42.6 0.2,42.3 C-0.9,25.1 3.3,-1 7.8,0.4 C7.9,0.4 8,0.4 8,0.5 C8.1,0.5 8.2,0.6 8.3,0.6 C8.5,0.7 8.7,0.7 8.9,0.8 C9.1,0.9 9.4,1 9.6,1.1 C9.7,1.2 9.9,1.2 10,1.3 C13.1,2.7 18.4,5.6 25.5,9.4 C26.3,9.8 27.1,10.3 27.9,10.7 C28.5,11 29,11.3 29.6,11.6 C29.6,11.6 29.7,11.6 29.7,11.7 C31.4,12.6 33.1,13.5 35,14.5 L36.1,15.1 C36.5,15.3 36.9,15.5 37.3,15.7 C37.7,15.9 38.1,16.1 38.5,16.3 C41.7,18 45,19.7 48.6,21.5 C49.4,21.9 50.1,22.3 50.9,22.7 C56.5,25.5 62.5,28.4 68.8,31.3 C69.1,31.5 69.5,31.6 69.8,31.8 C71.3,32.5 72.8,33.1 74.3,33.8 C87,39.2 100.6,44.9 115,50 Z" fill="#8D7CF7"></path>
                    <path d="M69.1,31.2 C52.1,31.5 44.5,40.9 39.9,64.5 C34.4,63.3 29.2,62.1 24.6,61.1 C23.3,60.8 22,60.5 20.7,60.2 C13.8,58.7 8.6,57.5 6.3,57 C6,56.9 5.8,56.9 5.6,56.8 C3.6,56.4 2.2,53.7 1.4,49.7 C1.4,49.6 1.4,49.5 1.3,49.4 C1.2,49.1 1.2,48.8 1.1,48.5 C1,48.2 1,47.9 0.9,47.5 C0.9,47.3 0.8,47 0.8,46.7 C0.8,46.4 0.7,46.2 0.7,45.9 C0.7,45.6 0.6,45.3 0.6,45 C0.6,44.9 0.6,44.9 0.6,44.8 C0.6,44.6 0.6,44.3 0.5,44.1 C0.5,43.8 0.4,43.5 0.4,43.3 C0.4,43 0.4,42.7 0.3,42.4 C-0.8,25.2 3.4,-0.9 7.9,0.5 C8,0.5 8.1,0.5 8.1,0.6 C8.2,0.6 8.3,0.7 8.4,0.7 C8.6,0.8 8.8,0.8 9,0.9 C9.2,1 9.5,1.1 9.7,1.2 C9.8,1.3 10,1.3 10.1,1.4 C13.2,2.8 18.5,5.7 25.6,9.5 C26.4,9.9 27.2,10.4 28,10.8 C28.6,11.1 29.1,11.4 29.7,11.7 C29.7,11.7 29.8,11.7 29.8,11.8 C31.5,12.7 33.2,13.6 35.1,14.6 C35.5,14.8 35.9,15 36.2,15.2 C36.6,15.4 37,15.6 37.4,15.8 C37.8,16 38.2,16.2 38.6,16.4 C41.8,18.1 45.1,19.8 48.7,21.6 C49.5,22 50.2,22.4 51,22.8 C56.7,25.4 62.7,28.3 69.1,31.2 Z" fill="#C2BAFF"></path>
                    <path d="M8.1,0.4 C18,5.3 15.3,59.1 5.6,56.9 C-4.3,54.7 1.5,-1.5 8.1,0.4 Z" fill="#DAD6FF"></path>
                    <path d="M7.7,12.8 C12.7,15.8 11.4,49.2 6.4,47.9 C1.4,46.5 4.3,11.6 7.7,12.8 Z" fill="#4030A3"></path>
                    <g>
                        <path d="M115,50 L115,81.4 C115,81.4 112.9,80.9 109.4,80.2 C108.3,79.9 107,79.6 105.6,79.3 C101.2,78.3 95.5,77.1 89.1,75.6 C87.9,75.3 86.6,75 85.4,74.8 C83.6,74.4 81.8,74 79.9,73.6 C78.7,73.3 77.4,73 76.1,72.8 C74.1,72.3 72.1,71.9 70.1,71.4 C68.8,71.1 67.4,70.8 66.1,70.5 C65.4,70.3 64.7,70.2 64.1,70 C63.2,69.8 62.3,69.6 61.5,69.4 C59.8,69 58.2,68.7 56.5,68.3 C55.4,68.1 54.3,67.8 53.2,67.6 C53.2,67.6 53.2,67.6 53.2,67.6 C48.7,66.6 44.3,65.6 40,64.6 C34.5,63.4 29.3,62.2 24.7,61.2 C23.4,60.9 22.1,60.6 20.8,60.3 C13.2,58.6 7.7,57.4 5.7,56.9 C5.6,56.9 5.5,56.8 5.3,56.8 C5.2,56.8 5.1,56.7 5.1,56.7 C5.1,56.7 5,56.7 5,56.6 C4.9,56.5 4.8,56.5 4.7,56.4 C4.5,56.3 4.3,56.1 4.1,55.9 C4,55.8 4,55.8 3.9,55.7 C3.8,55.6 3.7,55.5 3.7,55.4 C3.6,55.3 3.5,55.2 3.4,55 C3.4,55 3.3,54.9 3.3,54.9 C3.3,54.9 3.3,54.9 3.3,54.9 C3.2,54.8 3.1,54.6 3,54.4 C2.9,54.3 2.9,54.2 2.8,54 C2.8,54 2.8,54 2.8,54 C2.8,54 2.7,53.9 2.7,53.8 C2.6,53.6 2.6,53.5 2.5,53.3 C2.4,53.2 2.4,53.1 2.4,53 C2.4,53 2.4,52.9 2.4,52.9 C2.3,52.8 2.3,52.6 2.2,52.5 C2.1,52.2 2,51.9 1.9,51.6 C1.8,51.4 1.8,51.2 1.7,51 C1.6,50.8 1.6,50.5 1.5,50.3 C1.5,50.2 1.5,50.1 1.4,50 C1.4,50 1.4,49.9 1.4,49.9 C1.4,49.8 1.4,49.7 1.3,49.6 C1.3,49.5 1.3,49.4 1.2,49.3 C1.1,49 1.1,48.7 1,48.4 C0.9,48.1 0.9,47.8 0.8,47.4 C0.8,47.2 0.7,46.9 0.7,46.6 C0.7,46.3 0.6,46.1 0.6,45.8 C0.6,45.5 0.5,45.2 0.5,44.9 C0.5,44.8 0.5,44.8 0.5,44.7 C0.5,44.5 0.5,44.2 0.4,44 C0.4,43.7 0.3,43.4 0.3,43.2 C0.3,42.9 0.3,42.6 0.2,42.3 C-0.9,25.1 3.3,-1 7.8,0.4 C7.9,0.4 8,0.4 8,0.5 C8.1,0.5 8.2,0.6 8.3,0.6 C8.5,0.7 8.7,0.7 8.9,0.8 C9.1,0.9 9.4,1 9.6,1.1 C9.7,1.2 9.9,1.2 10,1.3 C13.1,2.7 18.4,5.6 25.5,9.4 C26.3,9.8 27.1,10.3 27.9,10.7 C28.5,11 29,11.3 29.6,11.6 C29.6,11.6 29.7,11.6 29.7,11.7 C31.4,12.6 33.1,13.5 35,14.5 L36.1,15.1 C36.5,15.3 36.9,15.5 37.3,15.7 C37.7,15.9 38.1,16.1 38.5,16.3 C41.7,18 45,19.7 48.6,21.5 C49.4,21.9 50.1,22.3 50.9,22.7 C56.5,25.5 62.5,28.4 68.8,31.3 C69.1,31.5 69.5,31.6 69.8,31.8 C71.3,32.5 72.8,33.1 74.3,33.8 C87,39.2 100.6,44.9 115,50 Z"></path>
                        <g transform="translate(20.000000, 9.000000)">
                            <path d="M10.9,16.9 C10.9,29.4 9.1,43.5 4.6,52.1 C4.6,52.1 4.6,52.2 4.6,52.2 C3.3,51.9 2,51.6 0.7,51.3 C0.7,51.3 0.7,51.2 0.8,51.2 C7.4,40 8.2,13.8 5.9,0.4 C6.7,0.8 7.5,1.3 8.3,1.7 C8.9,2 9.4,2.3 10,2.6 C10,2.6 10.1,2.6 10.1,2.7 C10.6,6.8 10.9,11.7 10.9,16.9 Z" fill="#8D7CF7"></path>
                            <path d="M55.8,37.4 C55.8,39.6 55.7,41.9 55.5,44.2 C55.5,44.4 55.5,44.7 55.4,44.9 C55.4,44.9 55.4,45 55.4,45 C54.7,51.2 53.1,57.3 50.1,62.3 C49.3,63.7 48.3,65 47.2,66.2 L44.3,63.6 C44.9,62.9 45.5,62.2 46,61.4 C49.4,56.5 51.1,50 51.7,43.6 C52.5,35.3 51.5,27.1 50.1,22.6 C51.6,23.3 53.1,23.9 54.6,24.6 C55.3,28.2 55.8,32.6 55.8,37.4 Z" fill="#5D4DC4"></path>
                        </g>
                    </g>
                </g>
                <g transform="translate(24.000000, 136.000000)">
                    <path d="M91,0.1 L91,26.3 C91,26.3 85.8,27 77.7,28.6 C75.5,29 73.1,29.5 70.5,30.1 C69.1,30.4 67.6,30.8 66.1,31.1 C59.5,32.7 52,34.7 44.2,37.2 C42.8,37.7 41.3,38.2 39.9,38.6 C38.7,39 37.6,39.4 36.4,39.8 C35.9,40 35.3,40.2 34.8,40.4 C33.4,40.9 31.9,41.5 30.5,42 C26.6,43.5 22.7,45.2 18.9,47 C18.8,47 18.8,47.1 18.7,47.1 C18.5,47.2 18.3,47.3 18.2,47.4 C17.8,47.6 17.4,47.7 17,47.8 C16.8,47.8 16.5,47.8 16.3,47.8 C16.2,47.8 16.1,47.8 15.9,47.8 C15.8,47.8 15.7,47.8 15.6,47.7 C15.4,47.6 15.1,47.6 14.9,47.5 C11.1,45.9 7.3,39.2 4.6,31.6 C4.4,31.1 4.2,30.6 4.1,30.1 C4,29.9 3.9,29.6 3.9,29.4 C3.8,29.2 3.7,28.9 3.7,28.7 C3.5,28.2 3.4,27.7 3.3,27.2 C3.2,26.7 3,26.2 2.9,25.7 C2.8,25.5 2.8,25.2 2.7,25 C2.6,24.5 2.5,24 2.3,23.5 C2.3,23.5 2.3,23.5 2.3,23.5 C2.2,23 2.1,22.5 2,22 C2,22 2,22 2,22 C1.9,21.5 1.8,21 1.7,20.6 C1.7,20.4 1.6,20.1 1.6,19.9 C1.5,19.4 1.5,19 1.4,18.5 C1.4,18.5 1.4,18.4 1.4,18.4 C1.3,18 1.3,17.6 1.2,17.2 C1.2,17.1 1.2,16.9 1.2,16.8 C1.2,16.7 1.2,16.6 1.2,16.4 C1.2,16.2 1.2,16 1.1,15.8 C1.1,15.8 1.1,15.8 1.1,15.8 C1.1,15.6 1.1,15.4 1.1,15.2 C1.1,15.2 1.1,15.1 1.1,15 C1.1,14.7 1.1,14.4 1,14.1 C1,13.8 1,13.6 1,13.3 C1,13.1 1,12.9 1,12.7 C1,12.4 1,12.2 1,11.9 C1,11.6 1,11.4 1,11.1 C1,10.9 1,10.8 1,10.6 C1,10.4 1,10.2 1.1,10 C1.1,9.7 1.2,9.5 1.2,9.2 C1.3,8.7 1.4,8.3 1.5,7.9 C1.6,7.7 1.6,7.5 1.7,7.4 C1.7,7.3 1.8,7.2 1.8,7.2 C1.8,7.1 1.9,6.9 2,6.8 C2.1,6.6 2.2,6.4 2.3,6.3 C2.3,6.3 2.3,6.3 2.3,6.3 C2.4,6.1 2.5,6 2.6,5.8 C2.7,5.7 2.8,5.5 2.9,5.4 C3,5.3 3.1,5.2 3.3,5.1 C3.3,5.1 3.3,5.1 3.3,5.1 C3.3,5.1 3.3,5.1 3.3,5.1 C3.4,5 3.5,5 3.6,4.9 C3.6,4.9 3.7,4.9 3.7,4.9 C3.8,4.9 3.9,4.8 4,4.8 C4,4.8 4.1,4.8 4.2,4.8 C4.2,4.8 4.2,4.8 4.2,4.8 C4.3,4.8 4.4,4.7 4.5,4.7 C4.5,4.7 4.5,4.7 4.5,4.7 C4.5,4.7 4.6,4.7 4.6,4.7 C4.7,4.7 4.9,4.7 5.1,4.7 L5.5,4.7 C9.1,4.7 14.2,4.6 20.9,4.4 C22.4,4.4 24,4.3 25.7,4.2 C27.2,4.1 28.8,4.1 30.5,4 C32.4,3.9 34.3,3.8 36.3,3.7 C43.5,3.4 51.7,2.9 61.2,2.3 C62.7,2.2 64.3,2.1 65.9,2 C68.6,1.8 71.4,1.6 74.3,1.4 C75,1.4 75.8,1.3 76.5,1.3 C78,1.2 79.5,1.1 81,1 C84.2,0.6 87.6,0.4 91,0.1 Z" fill="#8D7CF7"></path>
                    <path d="M5,4.5 L5.4,4.5 C15.6,4.9 24.5,43.2 18.8,47.2 C18.6,47.3 18.4,47.4 18.3,47.5 C7.6,52.6 -6.3,4.5 5,4.5 Z" fill="#C2BAFF"></path>
                    <path d="M8.2,13.3 L8.4,13.3 C13.1,13.2 18.9,38.4 16.4,40.8 C16.3,40.8 16.2,40.9 16.2,41 C11.4,44 3,13.6 8.2,13.3 Z" fill="#4030A3"></path>
                    <g transform="translate(1.000000, 0.000000)">
                        <path d="M90,0.1 L90,26.3 C90,26.3 84.8,27 76.7,28.6 C74.5,29 72.1,29.5 69.5,30.1 C68.1,30.4 66.6,30.8 65.1,31.1 C58.5,32.7 51,34.7 43.2,37.2 C41.8,37.7 40.3,38.2 38.9,38.6 C37.7,39 36.6,39.4 35.4,39.8 C34.9,40 34.3,40.2 33.8,40.4 C32.4,40.9 30.9,41.5 29.5,42 C25.6,43.5 21.7,45.2 17.9,47 C17.8,47 17.8,47.1 17.7,47.1 C17.5,47.2 17.3,47.3 17.2,47.4 C16.8,47.6 16.4,47.7 16,47.8 C15.8,47.8 15.5,47.8 15.3,47.8 C15.2,47.8 15.1,47.8 14.9,47.8 C14.8,47.8 14.7,47.8 14.6,47.7 C14.4,47.6 14.1,47.6 13.9,47.5 C10.1,45.9 6.3,39.2 3.6,31.6 C3.4,31.1 3.2,30.6 3.1,30.1 C3,29.9 2.9,29.6 2.9,29.4 C2.8,29.2 2.7,28.9 2.7,28.7 C2.5,28.2 2.4,27.7 2.3,27.2 C2.2,26.7 2,26.2 1.9,25.7 C1.8,25.5 1.8,25.2 1.7,25 C1.6,24.5 1.5,24 1.3,23.5 C1.3,23.5 1.3,23.5 1.3,23.5 C1.2,23 1.1,22.5 1,22 C1,22 1,22 1,22 C0.9,21.5 0.8,21 0.7,20.6 C0.7,20.4 0.6,20.1 0.6,19.9 C0.5,19.4 0.5,19 0.4,18.5 C0.4,18.5 0.4,18.4 0.4,18.4 C0.3,18 0.3,17.6 0.2,17.2 C0.2,17.1 0.2,16.9 0.2,16.8 C0.2,16.7 0.2,16.6 0.2,16.4 C0.2,16.2 0.2,16 0.1,15.8 C0.1,15.8 0.1,15.8 0.1,15.8 C0.1,15.6 0.1,15.4 0.1,15.2 C0.1,15.2 0.1,15.1 0.1,15 C0.1,14.7 0.1,14.4 -2.27373675e-13,14.1 C-2.27373675e-13,13.8 -2.27373675e-13,13.6 -2.27373675e-13,13.3 C-2.27373675e-13,13.1 -2.27373675e-13,12.9 -2.27373675e-13,12.7 C-2.27373675e-13,12.4 -2.27373675e-13,12.2 -2.27373675e-13,11.9 C-2.27373675e-13,11.6 -2.27373675e-13,11.4 -2.27373675e-13,11.1 C-2.27373675e-13,10.9 -2.27373675e-13,10.8 -2.27373675e-13,10.6 C-2.27373675e-13,10.4 -2.27373675e-13,10.2 0.1,10 C0.1,9.7 0.2,9.5 0.2,9.2 C0.3,8.7 0.4,8.3 0.5,7.9 C0.6,7.7 0.6,7.5 0.7,7.4 C0.7,7.3 0.8,7.2 0.8,7.2 C0.8,7.1 0.9,6.9 1,6.8 C1.1,6.6 1.2,6.4 1.3,6.3 C1.3,6.3 1.3,6.3 1.3,6.3 C1.4,6.1 1.5,6 1.6,5.8 C1.7,5.7 1.8,5.5 1.9,5.4 C2,5.3 2.1,5.2 2.3,5.1 C2.3,5.1 2.3,5.1 2.3,5.1 C2.3,5.1 2.3,5.1 2.3,5.1 C2.4,5 2.5,5 2.6,4.9 C2.6,4.9 2.7,4.9 2.7,4.9 C2.8,4.9 2.9,4.8 3,4.8 C3,4.8 3.1,4.8 3.2,4.8 C3.2,4.8 3.2,4.8 3.2,4.8 C3.3,4.8 3.4,4.7 3.5,4.7 C3.5,4.7 3.5,4.7 3.5,4.7 C3.5,4.7 3.6,4.7 3.6,4.7 C3.7,4.7 3.9,4.7 4.1,4.7 L4.5,4.7 C8.1,4.7 13.2,4.6 19.9,4.4 C21.4,4.4 23,4.3 24.7,4.2 C26.2,4.1 27.8,4.1 29.5,4 C31.4,3.9 33.3,3.8 35.3,3.7 C42.5,3.4 50.7,2.9 60.2,2.3 C61.7,2.2 63.3,2.1 64.9,2 C67.6,1.8 70.4,1.6 73.3,1.4 C74,1.4 74.8,1.3 75.5,1.3 C77,1.2 78.5,1.1 80,1 C83.2,0.6 86.6,0.4 90,0.1 Z"></path>
                        <g transform="translate(19.000000, 1.000000)">
                            <path d="M57.7,27.6 C55.5,28 53.1,28.5 50.5,29.1 C49.1,29.4 47.6,29.8 46.1,30.1 C39.5,31.7 32,33.7 24.2,36.2 C22.8,36.7 21.3,37.2 19.9,37.6 C18.7,38 17.6,38.4 16.4,38.8 C17.6,34.9 19.2,31.7 21,29.1 C22.1,27.5 23.4,26.1 24.7,25 C31.5,19.1 40.3,18.9 47.6,21.4 C48.9,21.9 50.2,22.4 51.4,23 C53.9,24.3 56.1,25.9 57.7,27.6 Z" fill="#C2BAFF"></path>
                            <g fill="#5D4DC4">
                                <path d="M15.1,35.2 C15.1,36.6 15,38.1 14.8,39.4 C13.4,39.9 11.9,40.5 10.5,41 C13.1,33 8.8,16.9 4.3,8.2 C2.8,5.2 1.5,3.7 0.8,3.1 C2.3,3.1 3.9,3 5.6,2.9 C5.7,3 5.7,3.1 5.8,3.2 C8.8,7.7 11.8,15.4 13.5,22.9 C14.2,26.1 15.1,30.7 15.1,35.2 Z"></path>
                                <path d="M24.9,29 C24.9,31.5 24.7,34 24.2,36.2 C22.8,36.7 21.3,37.2 19.9,37.6 C20.7,35.1 21,32.2 21,29.1 C21,18.6 17,6.1 10.4,2.7 C12.3,2.6 14.2,2.5 16.2,2.4 C21,7.5 24,16.3 24.7,24.9 C24.8,26.4 24.9,27.7 24.9,29 Z"></path>
                                <path d="M51.5,20.9 C51.5,21.6 51.5,22.3 51.4,23 C51.3,25.1 51,27.1 50.5,29 C49.1,29.3 47.6,29.7 46.1,30 C47.1,27.2 47.6,24.2 47.6,21.3 C47.7,13.1 44.7,5 41.1,1 C42.6,0.9 44.2,0.8 45.8,0.7 C49.2,5.9 51.5,13.4 51.5,20.9 Z"></path>
                            </g>
                        </g>
                    </g>
                </g>
                <g transform="translate(52.000000, 79.000000)">
                    <path d="M63,21.5 L63,63.7 C63,63.7 58.4,62.2 51.8,60.1 C50.6,59.7 49.3,59.3 48,58.9 C42,56.9 34.8,54.6 28.1,52.4 C26.7,51.9 25.2,51.5 23.9,51 C22.6,50.6 21.3,50.2 20,49.7 C18.6,49.2 17.2,48.8 15.9,48.4 C10.2,46.6 5.8,45.2 4.2,44.6 C4,44.6 3.9,44.5 3.8,44.4 C3.7,44.3 3.5,44.2 3.4,44 C-0.4,40 0.1,19.2 3.2,7.7 C3.2,7.5 3.3,7.4 3.3,7.2 C3.4,7 3.4,6.8 3.5,6.7 C3.6,6.6 3.6,6.3 3.7,6.2 C3.8,6 3.8,5.9 3.9,5.7 C4,5.5 4,5.4 4.1,5.2 C4.2,5 4.2,4.8 4.3,4.7 C4.5,4.1 4.7,3.6 5,3.1 C5.1,2.9 5.2,2.7 5.3,2.6 C5.3,2.6 5.3,2.6 5.3,2.6 C5.4,2.4 5.5,2.3 5.5,2.2 C5.6,2.1 5.7,1.9 5.8,1.8 C5.9,1.6 6.1,1.4 6.2,1.2 C6.2,1.2 6.3,1.1 6.3,1.1 C6.6,0.8 6.8,0.6 7.1,0.4 C7.2,0.4 7.3,0.3 7.3,0.3 C7.4,0.3 7.4,0.3 7.5,0.3 C7.5,0.3 7.5,0.3 7.5,0.3 C7.5,0.3 7.6,0.3 7.6,0.3 C7.7,0.3 7.7,0.3 7.8,0.3 C7.9,0.3 8.1,0.3 8.2,0.3 C8.4,0.3 8.6,0.3 8.7,0.4 C11,1.3 16.7,3.5 23.5,6.2 C25,6.8 26.5,7.3 28,8 C29,8.4 29.9,8.8 30.9,9.1 C32.5,9.7 34.1,10.3 35.6,10.9 C40.9,13 46.3,15.1 50.8,16.8 C52.6,17.5 54.2,18.1 55.7,18.7 C60.1,20.4 63,21.5 63,21.5 Z" fill="#C2BAFF"></path>
                    <path d="M8.6,0.3 C16,3.2 11.1,46.9 4.2,44.7 C-2.5,42.5 0.9,-2.7 8.6,0.3 Z" fill="#DAD6FF"></path>
                    <path d="M8.2,9.5 C11.2,11.4 8.4,38.4 5.9,37.4 C2.4,36.1 4.2,7.6 8.2,9.5 Z" fill="#8D7CF7"></path>
                    <g>
                        <path d="M63,21.5 L63,63.7 C63,63.7 58.4,62.2 51.8,60.1 C50.6,59.7 49.3,59.3 48,58.9 C42,56.9 34.8,54.6 28.1,52.4 C26.7,51.9 25.2,51.5 23.9,51 C22.6,50.6 21.3,50.2 20,49.7 C18.6,49.2 17.2,48.8 15.9,48.4 C10.2,46.6 5.8,45.2 4.2,44.6 C4,44.6 3.9,44.5 3.8,44.4 C3.7,44.3 3.5,44.2 3.4,44 C-0.4,40 0.1,19.2 3.2,7.7 C3.2,7.5 3.3,7.4 3.3,7.2 C3.4,7 3.4,6.8 3.5,6.7 C3.6,6.6 3.6,6.3 3.7,6.2 C3.8,6 3.8,5.9 3.9,5.7 C4,5.5 4,5.4 4.1,5.2 C4.2,5 4.2,4.8 4.3,4.7 C4.5,4.1 4.7,3.6 5,3.1 C5.1,2.9 5.2,2.7 5.3,2.6 C5.3,2.6 5.3,2.6 5.3,2.6 C5.4,2.4 5.5,2.3 5.5,2.2 C5.6,2.1 5.7,1.9 5.8,1.8 C5.9,1.6 6.1,1.4 6.2,1.2 C6.2,1.2 6.3,1.1 6.3,1.1 C6.6,0.8 6.8,0.6 7.1,0.4 C7.2,0.4 7.3,0.3 7.3,0.3 C7.4,0.3 7.4,0.3 7.5,0.3 C7.5,0.3 7.5,0.3 7.5,0.3 C7.5,0.3 7.6,0.3 7.6,0.3 C7.7,0.3 7.7,0.3 7.8,0.3 C7.9,0.3 8.1,0.3 8.2,0.3 C8.4,0.3 8.6,0.3 8.7,0.4 C11,1.3 16.7,3.5 23.5,6.2 C25,6.8 26.5,7.3 28,8 C29,8.4 29.9,8.8 30.9,9.1 C32.5,9.7 34.1,10.3 35.6,10.9 C40.9,13 46.3,15.1 50.8,16.8 C52.6,17.5 54.2,18.1 55.7,18.7 C60.1,20.4 63,21.5 63,21.5 Z"></path>
                        <g transform="translate(15.000000, 6.000000)" fill="#8D7CF7">
                            <path d="M13.6,9.4 C13.6,15.8 12.6,23.3 10.9,29.9 C9.7,34.7 7.8,40.3 5,43.8 C3.6,43.3 2.2,42.9 0.9,42.5 C2.7,40.9 5.2,36.7 7.2,28.9 C10.1,17.6 10.6,4.4 8.4,0.1 C9.9,0.7 11.4,1.2 12.9,1.9 C13.4,4 13.6,6.6 13.6,9.4 Z"></path>
                            <path d="M22.3,17 C22.3,24.6 20.6,32.2 18.2,38 C17.2,40.4 15.5,43.9 13.1,46.4 C11.7,45.9 10.2,45.5 8.9,45 C10.9,43.6 13,40.5 14.7,36.5 C18.5,27.4 20.4,13.3 15.9,3 C17.5,3.6 19.1,4.2 20.6,4.8 C21.8,8.7 22.3,12.9 22.3,17 Z"></path>
                            <path d="M42.4,27.6 C42.4,36.8 40.8,47.2 36.8,54.1 C35.6,53.7 34.3,53.3 33,52.9 C40.6,41.3 39.2,15.7 35.8,10.8 C37.6,11.5 39.2,12.1 40.7,12.7 C41.8,16.4 42.4,21.8 42.4,27.6 Z"></path>
                        </g>
                    </g>
                </g>
            </g>
            <g transform="translate(0.000000, 328.000000)" id="Path">
                <g transform="translate(0.000000, 183.000000)">
                    <path d="M63.6,64.2 C55.6,53.4 54.4,43.8 61.5,47 C68.6,50.2 78.5,63.7 79.4,71.4 C80.3,79.1 71.6,75.1 63.6,64.2 Z" fill="#201861"></path>
                    <path d="M111.5,35.8 L111.4,40 C107.6,39.9 104.2,39.9 101.2,40 C89,40.5 81.9,43.5 68.5,52.5 C65.9,54.2 63,56.2 59.9,58.4 C57.8,59.8 55.6,61.4 53.3,63.1 C44.2,69.5 32.9,77.1 21.7,84.7 C18.2,87.1 14.6,89.4 11.2,91.7 C7.4,94.2 3.7,96.7 0.1,99 L0.1,94 C2.6,92.3 5.2,90.7 7.8,88.9 C12,86.1 16.4,83.2 20.7,80.3 C31.5,73.1 42.3,65.8 51,59.7 C53.6,57.9 56,56.2 58.2,54.6 C60.8,52.8 63.2,51.1 65.5,49.6 C79.7,40 87.3,36.6 100.4,35.9 C103.6,35.6 107.3,35.6 111.5,35.8 Z" fill="#201861"></path>
                    <path d="M18.2,75.3 C24.3,85.2 22.2,95.1 14.4,93.1 C6.6,91.1 -1.1,78.7 0.6,70.8 C2.3,62.9 12.1,65.3 18.2,75.3 Z" fill="#CEC7FF"></path>
                    <g transform="translate(99.000000, 0.000000)">
                        <path d="M4.6,45.8 C1.3,40.1 5.55111512e-17,30.5 0.6,21.6 C1.1,14 2.9,6.9 6,3 C12.6,-5.3 20.1,7.2 19.8,25.7 C19.8,26 19.8,26.4 19.8,26.7 C19.1,45.7 10.7,56.3 4.6,45.8 Z" fill="#CEC7FF"></path>
                        <path d="M19.8,25.7 L0.6,21.6 C1.1,14 2.9,6.9 6,3 C12.6,-5.4 20.1,7.2 19.8,25.7 Z" fill="#8D7CF7"></path>
                    </g>
                </g>
                <g transform="translate(0.000000, 230.000000)">
                    <path d="M151.5,25.1 C151.2,25.4 150.9,25.8 150.6,26.1 C141.6,36.8 133.8,45.8 126.9,53.1 C124.3,55.9 121.9,58.4 119.5,60.7 C115.1,65 111.1,68.6 107.3,71.6 C102.2,75.5 97.4,78.3 92.4,80.1 C88.6,81.4 84.8,82.3 80.6,82.6 C78.4,82.8 76.2,82.8 73.8,82.7 C68.2,82.5 62.1,81.5 55.7,80.5 C51.2,79.8 46.4,79 41.3,78.5 C37.1,78 32.6,77.7 28,77.6 C19.5,77.5 10.2,78.3 0,80.8 L0,76.5 C9.9,74.1 18.9,73.4 27.2,73.4 C32.4,73.4 37.4,73.8 42.1,74.4 C47.1,75 51.8,75.7 56.3,76.4 C62.6,77.4 68.5,78.3 73.9,78.5 C75.9,78.6 77.8,78.6 79.7,78.5 C83,78.3 86,77.8 89.1,76.8 C97.3,74.3 105.2,69 115.1,59.3 C117.8,56.7 120.6,53.8 123.6,50.6 C130.4,43.3 138.2,34.3 147.5,23.3 C147.8,23 148,22.7 148.3,22.4 L151.5,25.1 Z" fill="#151131"></path>
                    <g transform="translate(132.000000, 0.000000)">
                        <path d="M24.578758,28.3143869 C23.592445,27.5502158 22.5302619,26.7860448 21.4680788,26.0218738 C2.4246524,11.3497898 -6.5280341,-2.86379148 5.38359115,0.498561091 C11.3014687,2.17973737 20.1782849,7.60535175 28.5240096,14.0243885 C36.8697343,20.4434252 44.6084972,27.9323014 48.1743978,33.587167 C54.9268478,44.2091445 42.0289096,41.0760432 24.578758,28.3143869 Z" fill="#CEC7FF"></path>
                        <path d="M24,28.3462767 L28.0350721,14 C36.5708014,20.4100385 44.4857505,27.8884168 48.1328348,33.5353555 C55.0390159,44.218753 41.8474341,41.0900437 24,28.3462767 Z" fill="#F7F7F7"></path>
                    </g>
                    <path d="M84.3,89.8 C78,80.5 78.3,71.8 84.8,74.2 C91.3,76.6 99.2,88.2 99,95.2 C98.8,102.2 90.6,99.1 84.3,89.8 Z" fill="#151131"></path>
                    <path d="M109.3,56.8 C94.4,49.6 87.3,40.3 96.6,40.2 C105.9,40.1 124.5,49.1 130.2,56.5 C135.8,63.8 124.2,64 109.3,56.8 Z" fill="#CEC7FF"></path>
                    <path d="M42.7,67.6 C42.7,82.6 36,92 30.8,84.4 C25.6,76.8 25.6,58.1 30.9,50.6 C36.2,43.1 42.8,52.6 42.7,67.6 Z" fill="#8D7CF7"></path>
                </g>
                <g>
                    <path d="M31.6,155.8 C23.2,144.5 21.7,134.6 28.9,138.1 C36.1,141.6 46.6,155.7 47.8,163.6 C49,171.5 40,167.2 31.6,155.8 Z" fill="#201861"></path>
                    <path d="M151.2,27 C147.5,30.1 143.9,33.1 140.5,36 C130.3,44.6 121.7,52 114.4,58.5 C112.5,60.2 110.6,61.8 108.9,63.4 C100,71.4 93.4,77.9 88.6,83.3 C85.7,86.6 83.4,89.5 81.6,92.3 C75.1,102.4 75.3,109.7 75.7,121.7 C76.3,140.1 59.1,159.8 26.4,187.2 C25.9,187.6 25.4,188 25,188.4 C23.2,189.9 21.3,191.5 19.4,193 C19,193.3 18.6,193.6 18.2,194 C12.5,198.6 6.4,203.5 7.10542736e-15,208.6 L7.10542736e-15,203.3 C5.7,198.8 11.1,194.5 16.2,190.4 C16.7,190 17.1,189.6 17.6,189.3 C19.2,188 20.7,186.8 22.2,185.5 C22.8,185 23.4,184.5 23.9,184.1 C31.1,178.1 37.5,172.5 43.1,167.2 C44.6,165.7 46.1,164.3 47.5,162.9 C63.6,146.9 71.9,134 71.5,122 C71.1,109.2 70.8,101.3 78,90.3 C80.2,87 83.1,83.4 86.8,79.2 C91.9,73.6 98.6,67.1 107.5,59.2 C108.5,58.3 109.6,57.3 110.7,56.4 C118.5,49.4 127.9,41.4 139,32 C142,29.5 145.2,26.8 148.4,24.1 L151.2,27 Z" fill="#201861"></path>
                    <path d="M115.4,74.2 L115.3,74 C106.7,62.5 104.8,52.7 111.7,56.5 C115.5,58.5 120.4,63.7 124.3,69.3 C127.6,74 130.2,78.9 131,82.5 C132.5,90.3 123.9,85.6 115.4,74.2 Z" fill="#CEC7FF"></path>
                    <path d="M115.4,74.2 L124.3,69.3 C127.6,74 130.2,78.9 131,82.5 C132.5,90.3 123.9,85.6 115.4,74.2 Z" fill="#8D7CF7"></path>
                    <g transform="translate(133.000000, 0.000000)">
                        <path d="M10.2,43 C9.8,42.1 9.4,41.1 9.1,40.2 C-2.2,11.1 -1.8,-8.7 9.9,4.6 C15.8,11.3 22.3,23.9 27.3,36.8 C32.2,49.4 35.5,62.3 35.4,70.2 C35,85.4 21.4,70.4 10.2,43 Z" fill="#F7F7F7"></path>
                        <path d="M27.3,36.8 L10.3,43 C9.9,42.1 9.5,41.1 9.2,40.2 C-2.1,11.1 -1.7,-8.7 10,4.6 C15.8,11.3 22.3,23.9 27.3,36.8 Z" fill="#CEC7FF"></path>
                    </g>
                    <path d="M70,81.8 C61.3,70 61.1,58.7 69.8,61.4 C78.5,64.1 89.4,78.9 89.5,88 C89.6,97.1 78.7,93.6 70,81.8 Z" fill="#201861"></path>
                </g>
                <g transform="translate(0.000000, 111.000000)">
                    <polygon fill="#201861" points="126.5 38 123.4 40.2 123.4 40.2 89 65 83.9 68.7 41 99.7 33.9 104.8 33.9 104.8 0 129.3 0 124.2 31.4 101.5 31.4 101.5 39.1 95.9 80.8 65.8 88.7 60.1 121.2 36.6 124 34.6"></polygon>
                    <path d="M75.2,56.1 C70.3,44.2 71.8,34.9 77.9,39.3 C84,43.8 90.1,58.7 88.9,66.1 C87.7,73.5 80.1,68 75.2,56.1 Z" fill="#CEC7FF"></path>
                    <g transform="translate(108.000000, 0.000000)">
                        <path d="M11.3,33.2 C8.6,28.5 6.5,24 4.7,20 C-2.1,4.3 -1.6,-4.6 7.4,3.5 C11.6,7.2 16.4,13.5 21,20.7 C28.8,32.9 35.7,47.6 36.8,56 C38.5,69.2 24.3,56.5 11.3,33.2 Z" fill="#CEC7FF"></path>
                        <path d="M21,20.7 L4.7,20 C-2.1,4.3 -1.6,-4.6 7.4,3.5 C11.6,7.2 16.5,13.5 21,20.7 Z" fill="#F7F7F7"></path>
                    </g>
                    <g transform="translate(14.000000, 65.000000)">
                        <path d="M12.3,28.9 C12,28.5 11.8,28.1 11.5,27.7 C-0.1,9 -3.7,-4.9 5,2.7 C9.4,6.5 15.1,14.3 20.2,22.5 C25.2,30.7 29.6,39.3 31,44.8 C33.8,55.6 23.5,46.8 12.3,28.9 Z" fill="#CEC7FF"></path>
                        <path d="M12.3,28.9 L20.2,22.4 C25.2,30.6 29.6,39.2 31,44.7 C33.8,55.6 23.5,46.8 12.3,28.9 Z" fill="#8D7CF7"></path>
                    </g>
                </g>
            </g>
            <g transform="translate(0.000000, 48.000000)" id="Path">
                <path d="M43.121349,79.2821452 C55.2605524,92.3096465 52.0596679,146.451464 0,189 L0,184.458302 C16.8499389,168.681879 23.493284,134.559387 28.9891422,109.161735 C33.5790897,88.3655406 37.6254908,73.4257455 43.121349,79.2821452 Z" fill="#4030A3"></path>
                <path d="M77.9012181,33.9155616 C69.6972691,52.486438 68.7857193,67.4745085 72.6142288,83 C58.8194405,67.8327891 47.030062,55.8901034 48.0631519,39.0509165 C49.6431717,14.5086973 61.7364001,-1.07650756 73.1003887,0.0580475804 C84.4643773,1.25231615 88.3536568,10.2093305 77.9012181,33.9155616 Z" fill="#4030A3"></path>
                <path d="M0,213 L0,207.603321 C0,207.603321 22.4243417,196.150369 53.5058019,174.50369 C82.3628637,154.416052 84.4670244,116.999077 76.4110947,96.251845 C74.6676472,91.7546125 73.284913,87.3773063 72.2027732,83 C78.3950177,89.8957565 85.0080943,97.451107 91.0199822,106.445572 C110.258023,135.287823 100.097933,155.915129 0,213 Z" fill="#1C173C"></path>
            </g>
        </g>
    </g>
</svg>