<svg xmlns="http://www.w3.org/2000/svg" xmlns:xlink="http://www.w3.org/1999/xlink" width="1600" height="985"><defs><linearGradient id="c" x1="50%" x2="50%" y1="50.461%" y2="97.603%"><stop offset="0%" stop-color="#5D4DC4"/><stop offset="30%" stop-color="#413494"/><stop offset="66.558%" stop-color="#201A4F"/><stop offset="86.013%" stop-color="#181434"/><stop offset="100%" stop-color="#130F21"/></linearGradient><linearGradient id="d" x1="50%" x2="50%" y1="50.46%" y2="96.646%"><stop offset="0%" stop-color="#5D4DC4"/><stop offset="50.242%" stop-color="#413494" stop-opacity=".803"/><stop offset="69.205%" stop-color="#2D246A" stop-opacity=".751"/><stop offset="81.293%" stop-color="#201A4F"/><stop offset="100%" stop-color="#130F21"/></linearGradient><linearGradient id="e" x1="50.005%" x2="50.005%" y1="44.531%" y2="94.809%"><stop offset="0%" stop-color="#4030A3"/><stop offset="38%" stop-color="#4030A3" stop-opacity=".99"/><stop offset="53%" stop-color="#4030A3" stop-opacity=".94"/><stop offset="64%" stop-color="#4030A3" stop-opacity=".87"/><stop offset="73%" stop-color="#4030A3" stop-opacity=".76"/><stop offset="81%" stop-color="#4030A3" stop-opacity=".63"/><stop offset="88%" stop-color="#4030A3" stop-opacity=".45"/><stop offset="94%" stop-color="#4030A3" stop-opacity=".25"/><stop offset="99%" stop-color="#4030A3" stop-opacity=".03"/><stop offset="100%" stop-color="#4030A3" stop-opacity="0"/></linearGradient><linearGradient id="f" x1="49.995%" x2="49.995%" y1="22.575%" y2="83.804%"><stop offset="0%" stop-color="#4030A3"/><stop offset="38%" stop-color="#4030A3" stop-opacity=".99"/><stop offset="53%" stop-color="#4030A3" stop-opacity=".94"/><stop offset="64%" stop-color="#4030A3" stop-opacity=".87"/><stop offset="73%" stop-color="#4030A3" stop-opacity=".76"/><stop offset="81%" stop-color="#4030A3" stop-opacity=".63"/><stop offset="88%" stop-color="#4030A3" stop-opacity=".45"/><stop offset="94%" stop-color="#4030A3" stop-opacity=".25"/><stop offset="99%" stop-color="#4030A3" stop-opacity=".03"/><stop offset="100%" stop-color="#4030A3" stop-opacity="0"/></linearGradient><linearGradient id="g" x1="49.921%" x2="49.921%" y1="48.971%" y2="92.955%"><stop offset="0%" stop-color="#4030A3"/><stop offset="38%" stop-color="#4030A3" stop-opacity=".99"/><stop offset="53%" stop-color="#4030A3" stop-opacity=".94"/><stop offset="64%" stop-color="#4030A3" stop-opacity=".87"/><stop offset="73%" stop-color="#4030A3" stop-opacity=".76"/><stop offset="81%" stop-color="#4030A3" stop-opacity=".63"/><stop offset="88%" stop-color="#4030A3" stop-opacity=".45"/><stop offset="94%" stop-color="#4030A3" stop-opacity=".25"/><stop offset="99%" stop-color="#4030A3" stop-opacity=".03"/><stop offset="100%" stop-color="#4030A3" stop-opacity="0"/></linearGradient><path id="a" d="M0 0h1600v985H0z"/></defs><g fill="none" fill-rule="evenodd"><g><path fill="#30247D" d="M0 0h1600v800H0z"/><g fill="#8D7CF7"><path d="M836.2 568.8c17.2 8.6 21.6 24 18 42-1 5.3-2.4 10.4-3.8 15.4-1 4.7-4.7 14.1-1.5 18 4.8 4.1 11.1 5.5 16.6 8.7 8.2 4.4 9.2 13.8 8 22.1l-2.4-.3c2.4-22.7-10.2-18.1-23.8-27.9-5.4-4.7-1.3-15.5-.1-21.4 1.3-5.1 2.7-10.1 3.5-15.2 3-16.4-.7-30-16.5-37.7l2-3.7Z"/><path d="M836 586.3c.6 16.2 7.2 39.2 27 38.5 12.3-.4 25.2-13.3 22.5-25.9-2.5-9.5-13.8-9.4-17.4-.7-3.6 7.9-1 17.8 5.2 23.8 3.1 3.3 7.1 5.4 11.1 7.5 8.1 4.7 16.6 10.6 19.7 20 3 9.5-1.3 19.2-6.1 27.3l-2.1-1.2c7.5-12.5 10.5-25.3-1.8-35.9-5-4.6-11.4-7.6-17.3-11.1-6.2-3.9-11.1-9.9-12.8-17.2-2.5-9.2 2-23.3 13.4-23 12.3.7 14.3 15.2 9.3 24.2-4.5 8.7-13.4 15.3-23.5 15.8-16.3.9-26.2-13.6-29.3-27.9-1.1-4.6-1.7-9.3-2-14l4.1-.2Z"/><path d="M887.3 669.4c-8.7-41 41.7-44.1 26.5-88.2-1.4-4.3-3.3-8.5-5.3-12.6l3.5-1.7c2 4.3 4 8.6 5.3 13.2 13 41.6-23.3 47.2-28.1 75.4-.7 4.4-.4 9 .4 13.5l-2.3.4Z"/></g><path fill="#8D7CF7" d="m802.2 677.2 4.9.1c35-22.9 15.7-37.5-4.9-.1Zm-45.9-5.7 28.5 5c17.3-10.9 19.3-36.7-28.5-5Zm-85.4-23.1c10.4-19.3-2.4-25.5-11.1-8.8-3.1-12.3-12.4-8.2-11.4 4.3s22.5 4.5 22.5 4.5Zm34.2 11.1c-.5 0-1-.3-1.2-.8-.3-.7.1-1.4.7-1.7 2.1-.8 7.6-3.6 8-6.8.2-1.4-.8-2.9-2.8-4.5l-1.7-1.3 2-.9c2.7-1.3 9.8-5.6 10.2-10.2.2-2.3-1.4-4.5-4.7-6.7-.6-.4-.8-1.2-.4-1.8.4-.6 1.2-.8 1.8-.4 4.1 2.7 6 5.8 5.8 9.1-.4 5.4-6.8 9.6-9.9 11.4 1.8 1.8 2.6 3.6 2.3 5.6-.7 5.2-8.8 8.5-9.7 8.8-.1.2-.2.2-.4.2Zm11.6 3.1c-.5 0-1-.3-1.2-.8-.3-.7 0-1.4.7-1.7.1 0 6.4-2.7 11.6-8 6.8-6.8 8.8-14.7 5.7-23.2-.2-.7.1-1.4.8-1.7.7-.2 1.4.1 1.7.8 8.3 22.8-18.4 34.4-18.7 34.5-.3.1-.4.1-.6.1Z"/><path fill="#B8AEFF" d="M191.2 531.6c-5.1 2-10.9 3.9-17.4 5.5l-39.1-54.6c23.8-4.8 43.6-4.3 58-.5 2.6.7 5.1 1.5 7.3 2.4 25.9 10.2 27.2 32.8-8.8 47.2Z"/><path fill="#8D7CF7" d="M191.2 531.6c-5.1 2-10.9 3.9-17.4 5.5l-10.7-14.9c16.7-2.7 37.8-18.1 29.5-40.2 2.6.7 5.1 1.5 7.3 2.4 6.4 17.8 4.4 34.4-8.7 47.2Zm-30.1-34.4c-8.5.1-14.1-3.3-10.2-6.1 3.9-2.8 14.5-3 19.1-.2 4.6 2.8-.4 6.2-8.9 6.3Z"/><path fill="#B8AEFF" d="m123.9 467.5-33.8-47.1c18.1.8 31.5 6.1 39.8 13 14.9 12.3 13.7 29.5-6 34.1Z"/><path fill="#E0DBFF" d="m109.4 447.3-19.3-26.9c18.1.8 31.4 6.1 39.8 13-4.1 8.7-13.2 13.5-20.5 13.9Z"/><path fill="#5D4DC4" d="m1004.9 635.6-10.2-29 3.4-1.2 8 22.5c1.4-5.5 3.6-8.9 6.5-10.2 2.8-1.2 5.5-.1 6.7.8l-2.2 2.9s-1.5-1-3.1-.3c-1.5.7-4.3 3.4-5.5 14.2l-3.6.3Zm73.5.9-3.5-1c4.7-16.7 10.3-18 13.2-17.3 3.8 1 5.5 5.8 4.7 9.6l-3.6-.8c.5-2.4-.7-5-2-5.3-1.5-.3-5.3 2.3-8.8 14.8Z"/><path fill="#4534AD" d="M1309.8 583.5c-84.8 74-148.3 6.3-213.2 65.3 108.5 104.1 210.7-18.5 213.2-65.3Z"/><path fill="#8D7CF7" d="M1217.1 379.8c2.8 4.9 7.4 12.8 12.5 21.5 1.6 2.8 3.3 5.6 5 8.5.7 1.1 1.3 2.3 2 3.4 8.1 14 16.3 28.1 20.4 35.3 4.5 8.5 2.4 18-3.8 25-4 5.7-3.8 13.5.1 19.2 6.1 10.4 14.6 24.8 23.3 39.6l2.1 3.6c8.3 14.2 16.7 28.3 23 39.1l-3 6.4c-2-3.5-4.7-8.1-7.7-13.4-.8-1.3-1.6-2.7-2.4-4.1-8.3-14.5-18.5-32.4-25.9-45.4-.9-1.5-1.7-3-2.5-4.3-1.5-2.6-2.8-5-4-6.9l-7-12.2c-1.3-2.2-2.4-4.6-3-7.1-1.2-5.1-.4-10.7 2.2-15.2 1.1-2 2.9-3.9 4.1-5.8 3.4-5.4 3.3-12.6-.1-18-.8-1.3-1.7-3-2.7-4.8-.6-1-1.2-2.2-1.9-3.4-6-10.6-14.9-26.4-22.4-39.6-4.6-8.2-8.7-15.4-11.2-19.7l2.9-1.7Zm-50.2 39.8 13 19.2 7.8 11.5 23.2 34.3 2 3 76.7 113.1-2.7 5.8-4.3-6.6-3.1-4.6-43.7-65.9-2-3.1-46.3-69.8-2.6-3.9-.9-1.3-5.7-8.7-14.1-21.2zm1.8 103.6c2.6 4.1 5.6 8.9 8.9 14.1 3.3 5.3 6.9 11 10.5 16.7.6 1 1.3 2 1.9 3.1 7.1 11.3 14.1 22.4 19.1 30.3 1.7 2.8 3.7 5.7 6.5 7.5 3.3 2.4 7.3 3.6 11.4 3.6 2.2 0 4.8-.1 7 .1 6.5.6 12.7 4.1 16.5 9.4.7.9 12.9 20.9 20.3 32.9l-2.7 5.8-8.6-14.4-2.4-4-7.8-13c-1.8-3-3.3-5.8-6-7.9-3.9-3.2-8.6-4.5-13.7-4.3h-2.7c-4.9 0-9.9-1.7-13.9-4.6-2.6-1.8-4.6-4.2-6.3-6.9-.4-.6-.8-1.3-1.2-1.9l-.8-1.4-4.8-7.9-11.3-18.5-14.5-23.7-8.1-13.3 2.7-1.7Z"/><path fill="#8D7CF7" d="m1220.1 527.3 17.2-1.3.2 3.2-17.2 1.3c-5.9.4-11.5-2.4-14.7-7.5l-5.9-9.5-14.1-22.7 2.8-1.7 12.7 20.4 7.4 11.9c2.4 4 6.9 6.3 11.6 5.9ZM1188 398.4l19.9 37.6 12.8 24.1c2.3 4.4 2.4 9.7.3 14.2-.2.5-.5 1.1-.9 1.6l-7.2 11.7-.8 1.3-2.8-1.7 1.6-2.5 6.4-10.4c2.3-3.8 2.5-8.6.4-12.5l-12.1-22.9-20.6-38.8 3-1.7Zm63 45.9-8.6-.6c-4.9-.3-9.5-3-12.2-7.1l-11.7-17.9 2.7-1.8 11.7 17.9c2.2 3.3 5.8 5.4 9.7 5.7l8.6.6-.2 3.2Zm13.4 74.9-12-4.3c-2.9-1-5.4-2.8-7.2-5.2l-17.9-23.2 2.6-2 17.9 23.2c1.5 1.9 3.5 3.4 5.8 4.2l12 4.3-1.2 3Zm9.9 15.9c2.1-2.6 11.8-14.8 13.6-17.1 4.3-4.6 5.1-10.8 1.8-16.1l-1.1-1.9c-2.7-4.9-9.8-18-12.6-23l2.8-1.6 8.5 15.3 4.3 7.6c1.5 2.7 3.2 5.5 3.5 8.6.7 4.9-1.2 9.8-4.4 13.4l-2.7 3.4-10.8 13.8-2.9-2.4Z"/><path fill="#8D7CF7" d="M1293.2 490.2c-.3.6-.6 1.2-1 1.8l-2.7 4.3-2.8-1.7 2.7-4.3c2.5-4 2.6-9.1.2-13.2l-9.4-15.9 2.8-1.7 9.4 15.9c2.7 4.5 3 10 .8 14.8Zm-38 40.6 15.3 24.3 1.9 3c2.5 4.7 7.9 7.3 13.1 6.3l7.1-1 .5 4.4c-1.6.2-7.6.9-9.1 1-4.8.2-9.6-1.8-12.8-5.5-.9-.9-1.6-2.1-2.3-3.2l-1.8-3.1-14.8-24.6 2.9-1.6Zm-37.3 14.5 12 19.8c1.8 2.9 4.8 5 8.1 5.6 2.7.5 5.7.2 8.5.4 5.4.4 10.6 4 13 8.8 1.5 2.7 3.9 7.5 5.4 9.9 1.9 2.7 5 4.5 8.3 4.9l11.5 1.2-.5 4.3-11.5-1.4c-5.5-.7-10.4-4.5-12.6-9.4-.8-1.6-3.2-6-4-7.7-1.5-3.1-4.2-5.4-7.4-6.4-2.5-.8-5.5-.6-8.1-.7-5.4 0-10.8-3-13.6-7.7l-11.8-20 2.7-1.6Zm-9.7 46.2-8.4-.2c-6.1-.2-11.4-3.7-14-9.1l-12.9-27.5 2.9-1.4 12.9 27.5c2.1 4.3 6.3 7.1 11.1 7.2l8.4.2v3.3Zm-34.6-89 14.9 28.4 3.8 7.3c2.3 4.4 2.4 9.7.3 14.2-.2.5-.5 1-.8 1.5l-1.9 3.1-.7 1.1-2.8-1.7 1.5-2.5 1-1.7c2.3-3.8 2.4-8.5.4-12.5l-3.5-6.7-15.2-29 3-1.5Z"/><path fill="#8D7CF7" d="M1164.7 563.9c5.3 7.8 40.5 60.3 44.9 66.8 2.6 3.4 7 5.3 11.2 4.8 1.3-.2 4.7-.9 6.1-1.2l33.3-6.5.8 4.3c-3.7.7-35.9 6.7-38.6 7.2-.6.1-1.8.2-2.4.3-6.1.3-11.9-3.2-14.9-8.3-2.9-4.4-39.3-59.6-43.2-65.5l2.8-1.9Z"/><path fill="#8D7CF7" d="m1206.3 630.7-22.2 3c-5.5.7-11.1-1.5-14.6-5.9l-12-15.3 2.6-2 12 15.3c2.8 3.5 7.2 5.3 11.6 4.7l22.2-3 .4 3.2Zm-21.6-32.1-10.3-.7c-5.2-.4-10-3.3-12.6-7.8l-14.1-24.2 2.8-1.6 14.1 24.2c2.1 3.6 5.9 5.9 10 6.2l10.3.7-.2 3.2Z"/><path fill="#C2BAFF" d="m1166.9 419.6 20.8 30.7c-1.2.4-2.4.7-3.7 1l-19.8-29.9 2.7-1.8Zm21.1-21.2 19.9 37.6c-.7.9-1.4 1.8-2.2 2.7l-20.6-38.8 2.9-1.5Zm29.1-18.6c2.8 4.9 7.4 12.8 12.5 21.5-1.3 0-2.7 0-4.1-.2-4.7-8.2-8.7-15.4-11.2-19.7l2.8-1.6Zm-48.4 143.4c2.6 4.1 5.6 8.9 8.9 14.1-1.1.4-2.3.7-3.5.9l-8.1-13.3 2.7-1.7Zm2-19.1 2.9-1.5 14.9 28.4c-.8.7-1.7 1.4-2.6 2.1l-15.2-29Zm17.6-14.9 12.7 20.4c-.4 1.3-.8 2.7-1.3 4l-14.1-22.7 2.7-1.7Z"/><path fill="#E0DBFF" d="m211.7 565.9 2.3 18-28.7-3.6zm19.4 20.3 2.4 26.2h-28zm23.5 31.2c-5.8 20.1 6.5 37 6.5 37l-37.4-16.9 30.9-20.1Z"/><path fill="#8D7CF7" d="M181.7 565.6c37.6-10.3 35.4 5.4 17.7 8.8 59.1-.3 17.4 34.1 17.4 34.1 62-3.7 35.5 24.5 7 28.9-50.3-22.5-42.1-71.8-42.1-71.8Z"/><path fill="#201861" d="M230.3 626.1c-8.2 2-14.3-.5-10.9-4.5 3.4-4 13.6-6.6 18.5-4.5 4.9 2.1.7 7-7.6 9Zm-15-26.7c-6.3 6.3-14.9 5.6-15.5-1.3-.6-6.9 7.3-14.8 14.2-14.2 6.9.6 7.7 9.2 1.3 15.5Z"/><path fill="#8D7CF7" d="M1205.1 687.2c-141.8 98.6-250.6 148.9-635.4-29.8 28.4-10.6 51.3-14.9 71.2-15.5 64.4-1.8 96.4 36.2 176.4 32.3 42.9-2.1 80.6-15.3 119.4-26.7 72.5-21.2 148.4-36.2 268.4 39.7Z"/><path fill="#5D4DC4" d="m1017 757.2-1.5 3.3c-1.6-.7-39.6-18.2-50.8-55.1-6.4-21-2.6-43.9 11.3-68.2 1.6-.4 3.2-.7 4.8-1-14.7 24.4-18.9 47.3-12.6 68.2 10.7 35.3 48.5 52.6 48.8 52.8Zm-69.5-112.7c-9.2 43.4-33.5 67.3-52.3 79.7-20.8 13.7-39.1 16.7-39.9 16.8l-.6-3.6c.2 0 18.5-3.1 38.6-16.4 17.9-11.9 40.9-34.5 50.2-75.5 1.4-.3 2.7-.7 4-1Zm177.6 74.5-3.6-.7c0-.1 2.4-14-5.4-31.9-12.2-27.9-40-45.3-63.1-55.5 3.5.2 7 .6 10.6 1 21.6 10.9 45 27.9 56 53.3 8.1 18.9 5.6 33.2 5.5 33.8Z"/><path d="M1205.1 687.2c-141.8 98.6-250.6 148.9-635.4-29.8 28.4-10.6 51.3-14.9 71.2-15.5 64.4-1.8 96.4 36.2 176.4 32.3 42.9-2.1 80.6-15.3 119.4-26.7 2.3-.7 4.6-1.3 6.9-2 1.3-.4 2.6-.8 4-1.1 9.4-2.6 18.8-5.1 28.5-7.2 1.6-.4 3.2-.7 4.8-1 22.6-4.6 46.3-7.2 72.1-5.3 3.5.2 7 .6 10.6 1 40.5 4.7 86.3 20.4 141.5 55.3Z"/><path fill="#E0DBFF" d="M281.5 631.3c3.9 14.4 25.2 26.2 25.2 26.2l-1.3 7.8-24.2-5.9.3-28.1Z"/><path fill="#8D7CF7" d="m256.6 656.1 24.6 3.3c9.2-45.7-13.8-36-24.6-3.3Z"/><path fill="#201861" d="M279.1 646.6c-2.8 3.8-7.8 3.8-8.9 0-1.1-3.8 2.4-8.5 6.4-8.5s5.3 4.7 2.5 8.5Z"/><path fill="#C2BAFF" d="M936.7 647.6c-43.7 86.2-118.2 36.7-118.2 36.7-99.6 50.5-131.7-32.3-131.7-32.3-24.5 12.2-39.1-.7-45.9-10 64.4-1.8 96.4 36.2 176.4 32.3 42.9-2.1 80.7-15.3 119.4-26.7Z"/><path fill="#E0DBFF" d="M520.7 613c.5 22.4 15 39.7 15 39.7l-51.5 6.5 36.5-46.2Zm-30.6-35.9c4.6 15.5 13.5 34.1 13.5 34.1l-42.7 24.3 29.2-58.4Zm-70.7-4.8 19.9 18.1-35.7 22.6zM359.7 587c10.5 5.7 27.7 12.4 27.7 12.4l-23.6 25.8-4.1-38.2Zm-48.2 34 21.3-.7-10.4 39z"/><path fill="#8D7CF7" d="M296.5 664.1c-3.9-50.7 23.6-54.2 25.9-23.9 13.3-61.9 47.5-70.5 46.4-26.8 28-45.6 71.2-61.1 45.7-10.9 42.8-54 117.5-40.4 51.2 25.7 59.3-46.9 73.9-9.3 29.8 24.5-44.1 33.9-199 11.4-199 11.4Z"/><path fill="#5D4DC4" d="M345.8 659.3c10.4-25-6.2-28-25.9 7.6l82.1-1.6c30.6-54.8-1.4-66.8-56.2-6Z"/><path fill="#201861" d="M434.6 648.3c-11.9 6.1-22.1 4.5-18.3-2.8 3.8-7.3 18.6-14.9 26.8-13.6 8.2 1.3 3.4 10.4-8.5 16.4Zm59.3-14.2c-10.3 5.3-19.1 4-15.8-2.4 3.3-6.4 16-13 23.1-11.9 7.1 1.1 2.9 9-7.3 14.3Zm-36.3-25.4c-14.3 12.1-29.6 12.1-27.7 0 2-12.1 19.8-27.3 32.1-27.2 12.4-.1 9.9 15.1-4.4 27.2Z"/><path fill="#5D4DC4" d="M457.3 625c-5 2.2-9.2.9-7.7-2.3 1.5-3.2 7.8-5.9 11.2-4.9 3.4 1 1.4 5-3.5 7.2Z"/><path fill="#201861" d="M384.6 649.5c-8.2 4.1-15.5 2.3-13.2-3.2 2.3-5.5 12.6-10.7 18.5-9.2s3 8.3-5.3 12.4Zm23.6-46.5c-5.4 8.5-13.4 11-14.3 4.4-.9-6.6 5.9-17.2 12.2-19.2 6.3-2 7.5 6.2 2.1 14.8Zm-64.4 22.4c-3.7 2.2-7.8.4-7.4-3.1.4-3.5 5-6.2 8.3-4.9 3.3 1.3 2.8 5.8-.9 8Z"/><path fill="#5D4DC4" d="M360.8 603.3c0 6.7-3.8 10.9-6.9 7.5-3.1-3.4-3.1-11.7 0-15.1 3.1-3.4 6.9.9 6.9 7.6Zm1.4 27.8c-2.2 2.2-5.3 1.7-5.7-.8-.4-2.5 2.3-5.2 4.9-4.9 2.6.3 3 3.5.8 5.7Z"/><path fill="#201861" d="M317.7 646.4c1.5 5.6-2.2 10.4-6.8 8.6-4.6-1.8-6.4-8.8-3.4-12.7 3-3.9 8.7-1.5 10.2 4.1Z"/><path fill="#5D4DC4" d="M464.1 652.8c-5.3 2.5-10.8-.3-9.8-5.1s7.6-8 12-5.7 3.2 8.2-2.2 10.8Zm550.3 49.4 42.3 1.2-21.1 39.1zm-57.9 28.2 38.1-5.3-12.5 24.2z"/><path fill="#C2BAFF" d="M1156.4 693.7c-20.1-20.1-32.7 4-32.7 4-27-49-79.8-27.3-85.6 28.3-14.8-39.3-58.9-29.5-56 17.1-28.5-27.9-55.5-4.3-51.3 15.5 143.9 13.6 220.9-51.4 225.6-64.9Z"/><path fill="#201861" d="M1017.7 738.8c-3.8 11.8-16.2 16-22.3 7.5-6.1-8.5-1.4-23.3 8.6-26.6 10-3.3 17.5 7.2 13.7 19.1Zm62.6-18.8c-12.9-5.1-17.8-16.5-8.7-20.5 9.1-4 25.2 2.4 29.1 11.5 3.9 9.1-7.5 14.1-20.4 9Z"/><path fill="#8D7CF7" d="M1078.1 688.2c-4.8 3.2-9.8 2.1-9-1.8.8-4 6.7-8 10.7-7.1 4 .9 3.1 5.7-1.7 8.9Zm-18.8 58.2c-8.1 3.9-15.6 1.2-13.5-4.8 2.1-6 12.2-10.9 18.2-8.8 6 2.2 3.4 9.7-4.7 13.6Zm-107.2 7.9c-4.9 0-8-4.5-5.5-8.1 2.5-3.6 8.6-3.6 11 0 2.4 3.6-.6 8.1-5.5 8.1Z"/><path fill="url(#c)" d="M1600 985H0V281.1s6.3 9.2 16.8 24.4c20.6 29.7 57.1 82 93.1 131.5 8 11 15.7 21.5 23 31.7 42.5 59.1 71.9 105.1 63.7 143.6 0 0 11.4 31.5 104.8 47.3 1.7.3 3.4.5 5.1.8 60.1 8.8 133.6-3.7 206.4-10.3 10.3-.9 20.5-1.8 30.7-2.4h.6c.8 0 1.6-.1 2.4-.2 2.5-.1 5-.3 7.6-.4 1.3-.1 2.5-.1 3.8-.2 8.9-.4 17.7-.6 26.4-.6h3.7c13.9.2 27.5.9 40.8 2.4 106.4 12.4 227 105.4 325.1 108.9 98.1 3.5 174-40.3 206.9-70.8 18-16.7 32.4-27.3 48.2-33.5 13.1-5.1 27.2-7.2 45.1-7.2 0 0 27.3-47.8 61.3-103.8 18.8-30.9 39.6-64.4 58.9-93.8 2.2-3.3 4.3-6.5 6.4-9.7 25.2-37.7 56-85.2 92.3-129.6 36.7-44.7 79-86.3 126.9-111.5V985Z"/><path fill="url(#d)" d="M1600 984.9H0V281.1s6.3 9.2 16.8 24.4c20.6 29.7 57.1 82 93.1 131.5 8 11 15.7 21.5 23 31.7 42.5 59.1 71.9 105.1 63.7 143.6 0 0 11.4 31.5 104.8 47.3 1.7.3 3.4.5 5.1.8 60.1 8.8 133.6-3.7 206.4-10.3 10.3-.9 20.5-1.8 30.7-2.4h.6c.8 0 1.6-.1 2.4-.2 2.5-.1 5-.3 7.6-.4 1.3-.1 2.5-.1 3.8-.2 8.9-.4 17.7-.6 26.4-.6h3.7c13.9.2 27.5.9 40.8 2.4 106.4 12.4 227 105.4 325.1 108.9 98.1 3.5 174-40.3 206.9-70.8 18-16.7 32.4-27.3 48.2-33.5 13.1-5.1 27.2-7.2 45.1-7.2 0 0 27.3-47.8 61.3-103.8 18.8-30.9 39.6-64.4 58.9-93.8 2.2-3.3 4.3-6.5 6.4-9.7 25.2-37.7 56-85.2 92.3-129.6 36.7-44.7 79-86.3 126.9-111.5v787.2Z"/><path fill="#8D7CF7" d="M132.9 468.7c-20.9 25.8-74.4 9-72.6-94.1 0 0-44.9-4.3-43.6-69 20.6 29.7 57.1 82 93.1 131.4a2188 2188 0 0 1 23.1 31.7Zm658.9 293c-26.5 3.5-44.7-6.5-32.7-18s45.1-15.9 59.6-7.9-.5 22.4-26.9 25.9Zm755.1-423.5c-29.6 24.9-57.4 29.5-50 8.3 7.4-21.2 44.5-52.4 66.7-56.1 22.2-3.7 12.9 22.9-16.7 47.8Z"/><path fill="#4030A3" d="M97.7 420c-12.6 40.7-38.2 62.9-59.7 74.9-13.9 7.7-27.5 12-37.9 14.4v-4.8c10.1-2.4 22.9-6.5 35.8-13.8 16.6-9.2 30.2-21.5 40.6-36.7 7.8-11.4 13.8-24.3 17.8-38.8 1.1 1.7 2.2 3.3 3.4 4.8Zm14.7 20.3c-23.9 24.2-28.2 53-32.5 81.1-3.5 23.5-6.9 45.7-22 62.3-12.3 13.5-31 21.8-57.9 25.7v-4.7c25.4-3.7 43-11.6 54.4-24.1 14.2-15.6 17.5-37.1 20.9-59.8 4.2-27.8 8.8-58.6 34.3-84.2.1.1.2.3.3.4.8 1.1 1.7 2.2 2.5 3.3Zm1465.9-57.1c0 6.2 4.3 10.2 9 14.4 3.2 2.9 6.5 5.9 8 9.8 2 4.9-2.6 11.4-9 20.5-9.5 13.4-22.4 31.7-18 51.3 3 13.2 13.6 25.6 31.8 37v5.5c-20.8-12.5-33-26.4-36.3-41.4-4.8-21.6 8.8-40.9 18.8-55 4.7-6.6 9.6-13.5 8.5-16-1.1-2.8-3.9-5.4-6.9-8.1-4.9-4.5-10.5-9.6-10.5-17.9 0-10 8.4-22.5 26.4-39v6.4c-14.7 13.8-21.8 24.5-21.8 32.5Zm21.2 189.2c-.2 0-.299.1-.498.1-9.564 2.1-18.53 3-26.898 3-39.351 0-67.345-20.5-94.542-40.4-38.653-28.3-75.215-55-141.962-25.5 1.395-2.3 2.79-4.5 4.184-6.8 65.452-26.3 103.508 1.6 140.468 28.6 32.278 23.7 65.75 48.1 118.252 36.5l.498 2.2.498 2.3Z"/><path fill="url(#e)" d="m1357.5 799.5-2.3.5-2.3.5s-.1-.2-.2-.5c-.9-3.1-6.3-18.9-23.6-33.9-17.7-15.5-52-33.3-114.4-30.4l-2.1.1-.3-2c-.1-.5-8.6-50.6-42.1-55.3 1.5-1.3 3.1-2.6 4.6-3.8 13.1 3.2 24.1 13 32.2 28.8 5.9 11.6 8.7 23 9.6 27.6 35.3-1.4 83.3 3.2 115.9 31.9 20.1 17.5 24.8 35.7 25 36.5Z"/><path fill="url(#f)" d="M803.7 710.7c-32.8 3.8-59.7 20.4-80.2 49.4-10.6 15-17 30.2-20.4 40-2.2 6.4-3.2 10.5-3.2 10.6l-4.5-1c.1-.4.9-3.9 2.8-9.5 3.3-9.9 9.9-26.1 21.4-42.5 14.1-20.1 38.3-43.5 76.3-50.3 2.6.9 5.2 2.1 7.8 3.3Z"/><path fill="url(#g)" d="m384.5 803.8-4.6.3s-.1-1.6-.7-4.2c-1.4-6.8-5.8-20.7-18.6-30.7-14.6-11.4-35.8-14.8-62.9-10.2l-1.8-4.1c27.2-21.5 41.2-44.6 38.6-63.2-1.8-12.7-11.2-23.3-28-31.4 4 .6 8 1.1 12 1.5 12 8 18.9 17.8 20.5 29.3 2.6 18.7-9.6 41.1-33.9 62.2 24.7-2.9 44.3 1.2 58.4 12.3 14.6 11.5 19.1 27.2 20.4 34.3.4 2.3.5 3.7.6 3.9Z"/><path fill="#36288F" d="M451.7 667s-19 30.6-45.3 2.8c13.2 36.2-59.6 42.8-99.9-9.5 60.1 8.8 133.6-3.7 206.4-10.3 28.9 28.2-17.3 51.5-61.2 17Z"/><path fill="#8D7CF7" d="m281 602.8-17.7-14c-.4-.3-.6-.8-.5-1.3.1-.5.5-.9 1-1.1l55-17.3c.5-.2 1.1 0 1.5.4.4.4.4 1 .2 1.5 0 .1-5.1 10.4-4.8 25h-2.8c-.2-10.8 2.3-19.2 3.9-23.4l-49.6 15.6 15.7 12.4-1.9 2.2Z"/><path fill="#5D4DC4" d="m293 602.8 4.1-17.8-15.8-1.2c-.4 0-.7-.2-1-.5-.3-.3-.3-.7-.3-1.1l3.7-26.8c-.8.2-1.7.3-2.5.5-9.3 1.7-18.9 3.4-23.4.1-1.4-1-2.2-2.3-2.4-4.1l2.7-.4c.1 1 .6 1.7 1.3 2.2 3.6 2.6 13.4.8 21.3-.6 1.5-.3 3-.5 4.4-.8.4-.1.9.1 1.2.4.3.3.5.8.4 1.2L283 581l16 1.3c.4 0 .8.2 1 .6.2.3.3.7.2 1.1l-4.5 19.4-2.7-.6Z"/><path fill="#5D4DC4" d="m251.4 585.3-1.2-2.5c11.2-5.4 18.2-19.2 18.3-19.3.2-.4.6-.7 1.1-.8.5 0 1 .2 1.2.6l11.4 16.3 23.5-27.2c.4-.5 1-.6 1.6-.4.6.2.9.8.9 1.4l-1.2 16.4-2.8-.2.9-12.2-21.9 25.4c-.3.3-.7.5-1.1.5-.4 0-.8-.2-1.1-.6l-11.2-15.9c-2.3 4.2-8.8 14-18.4 18.5Z"/><path fill="#F7F7F7" d="M283.5 585.6c-5.5.3-9.2-4.4-6.7-8.5 2.5-4.1 9.4-4.5 12.3-.7 2.9 3.8-.2 8.9-5.6 9.2Z"/><path fill="#000" d="M283.3 581.5c-2.9-1.3-3.6-4.4-1.3-5.7 2.3-1.3 5.9.4 6.5 2.9.6 2.5-2.3 4.1-5.2 2.8Z"/><g transform="translate(13 551)"><path fill="#201861" d="M2.5 9.4C-.8 6.1.2 1.1 4.2.4c4-.7 8.1 3.3 7.4 7.4-.7 4.1-5.8 4.9-9.1 1.6Z"/><path fill="#36288F" d="M851 216.6c-3.5.4-6-2.5-4.6-5.2 1.4-2.7 5.7-3.2 7.8-.9 2.1 2.3.2 5.7-3.2 6.1Z"/><path fill="#201861" d="M5.6 37.6c-1-3.6 1-6.6 3.7-5.4 2.7 1.2 4 5.7 2.3 8.1-1.7 2.4-4.9.9-6-2.7Zm138.8 47c-3.3-1.1-4.6-4.3-2.2-5.8 2.4-1.5 6.5 0 7.5 2.5s-1.9 4.4-5.3 3.3ZM216 193.7c-4 0-6.4-3-4.5-5.3 1.9-2.3 6.9-2.4 8.9 0s-.5 5.3-4.4 5.3Zm-67.6-18.2c-2.8-1.9-3.2-5.2-.6-6 2.6-.8 6.1 1.7 6.4 4.3.3 2.6-3 3.6-5.8 1.7Zm218.3 23.3c-5.1 1-8.8-.5-6.6-2.8 2.2-2.3 8.6-3.6 11.5-2.4 2.9 1.2.2 4.1-4.9 5.2Z"/><circle cx="1391.9" cy="143" r="4.4" fill="#201861"/><ellipse cx="1405.082" cy="163.049" fill="#36288F" rx="4.9" ry="7.3" transform="rotate(-78.633 1405.082 163.05)"/><ellipse cx="1229.57" cy="212.065" fill="#201861" rx="3.3" ry="4.3" transform="rotate(-79.578 1229.57 212.065)"/></g><g transform="translate(1335 373)"><path fill="#201861" d="M7.1 168.3c-4 1.3-7.3 0-5.8-2.5 1.4-2.4 6.5-4.1 9.1-3 2.6 1.1.8 4.2-3.3 5.5ZM233.5 51.8c-4.9 1.9-9 .4-7.4-2.6 1.6-3.1 7.8-5.4 11-4.2 3.2 1.2 1.3 4.9-3.6 6.8Z"/><path fill="#36288F" d="M201.6 6.4c-4 1.3-7.2-.1-5.8-2.5 1.4-2.4 6.5-4 9-2.9s.8 4.2-3.2 5.4Z"/><path fill="#201861" d="M161.4 28.5c-3.9 3.9-8.4 4.2-8.2.6.2-3.6 5.1-8.5 8.8-8.8 3.7-.3 3.3 4.3-.6 8.2Z"/><circle cx="120.6" cy="97.1" r="3.7" fill="#36288F"/></g><path fill="#4534AD" d="M1374.4 448.6c2.2-3.3 4.3-6.5 6.4-9.7 25.2-37.7 56-85.2 92.3-129.6 22.5 124.3-98.7 139.3-98.7 139.3Z"/><path fill="#201861" d="M1600 466.6v111.2c-19.9 21.4-12.3 35.8 0 83.9v71.1s-17.9-48.4-30.4-81.2c-12.6-32.8-20.2-31.8-43.7-26.2-7.8 1.9-20.4 4.9-35.4 8.3-30.1 7-69.7 15.7-99.2 20.3-3.1.5-5.8.7-8.2.7-35.1-.5 12.8-58.4 216.9-188.1Z"/><path fill="#8D7CF7" d="M1600 466.6v98c-44 35-62.3 53.2-109.6 69-12.6 2.9-26.9 6.1-41.5 9.3-20.1 4.3-40.6 8.4-57.7 11.1-3.1.5-5.8.7-8.2.7-34.2-.4 10.5-55.5 201.9-178.5 5-3.2 10-6.3 15.1-9.6Z"/><path fill="#5D4DC4" d="m1430.011 608.194 1.914-4.186 58.69 26.37-1.913 4.187zm44.843-31.872 2.507-3.867 59.46 37.889-2.508 3.866zm39.179-26.057 2.328-3.975 61.052 35.13-2.327 3.975zm45.202-4.243 2.456-3.898 35.948 22.269-2.457 3.898zm7.713-5.659 2.255-4.016 29.267 16.155-2.256 4.016zm-64.512 31.735 2.31-3.986 51.854 29.536-2.31 3.986zm-34.686 18.715 2.163-4.065 56.577 29.582-2.162 4.065zm-5.077 8.154 2.099-4.099 51.885 26.117-2.099 4.098zm-39.083 24.435 2.21-4.04 33.6 18.077-2.212 4.04z" opacity=".257"/><path fill="#201861" d="M1600 474.4v51.1c-9.9 47-62.1 32.5-62.1 32.5-10.2 41.7-35.5 29.1-35.5 29.1-7.1 34.5-45.8 34.5-45.8 34.5 1.3 8.5-2 15.6-7.6 21.3-20.1 4.3-40.6 8.4-57.7 11.1-3.1.5-5.8.7-8.2.7-34.2-.4 10.5-55.5 201.9-178.5.5-.1 7.3-1.4 15-1.8Z"/><path fill="#8D7CF7" d="M1600 466.6V498c0 31.4-21.1 66.2-72.4 53.6-4.1 22.1-23 37.2-41.3 27.7-11 21.9-16.6 41-47.8 33.8-10.7 24.9-7.7 30.2-41.7 32.1 0 0-4 9.6-13.8 9.5-35-.5 12.9-58.4 217-188.1Z"/><path fill="#4534AD" d="M1563.5 538.3c-12 6.2-22.5 4.4-18.8-3.2 3.7-7.7 18.7-15.4 27-14 8.3 1.4 3.8 11-8.2 17.2Zm-96.6 44.4c-13.5 13-26.3 16.6-23 6.5 3.3-10.1 20.2-26.4 30.4-29.3 10.2-2.9 6.2 9.7-7.4 22.8Zm41.2-21.2c-4.6 4.6-10.3 4.5-10.4-.1-.1-4.6 5.7-10.3 10.3-10.3 4.6 0 4.7 5.8.1 10.4Zm-104.1 67c-7.4 7.5-15 9.2-13.7 3.1 1.3-6.1 10.7-15.4 16.8-16.8 6.1-1.4 4.4 6.2-3.1 13.7Zm129.2-101.1c-4.9 4.9-10 6.1-9.1 2.1.9-4 7.1-10.2 11.1-11.1 4-.9 2.9 4.1-2 9Zm55.7-28.5c-10.7 8.4-20.8 9.4-18 1.8 2.8-7.6 16.2-18 24.2-18.9 8-.9 4.6 8.7-6.2 17.1Z"/><path fill="#4030A3" d="M1576.3 258c-3.7 1.6-7.3 3-10.8 4.2-35 11.9-63.7 5.1-80.6-8.2-1.1-.9-2.2-1.8-3.2-2.7l-.1-.1c-6.9-6.4-11.4-14-12.9-21.6-.7-3.4-.8-6.2-.4-8.5.2-.9.4-1.8.7-2.6l.6-1.2c7.1-11.4 37.2 4.1 60.7 16.9 10.7 5.8 23 12.2 34.3 17.9 2.5 1.3 4.9 2.5 7.3 3.7h.1c1.3.6 2.5 1.3 3.7 1.9l.6.3Z"/><path fill="#201861" d="M1600 245.1v24.5s-20.9-.6-34.5-7.4c7.7-3.4 25.8-11 34.5-17.1Z"/><path fill="#281F70" d="M1571.9 255.8c-1.5.1-3.4.1-5.8.1-11.9 0-33.9-1.6-58.4-11.5-1.6-.6-3.2-1.3-4.8-2.1-11.4-5-23.1-11.9-34.6-21.2.2-.9.4-1.8.7-2.6l.6-1.2c36.5 30.2 76.5 34.6 95 34.8 2.5 1.3 4.9 2.5 7.3 3.7Z"/><path fill="#281F70" d="m1508 244.2-.3.1-22.8 9.6c-1.1-.9-2.2-1.8-3.2-2.7l21.2-9 3.8-1.6 1.3 3.6Z"/><path d="M1576.3 258c-3.7 1.6-7.3 3-10.8 4.2-35 11.9-63.7 5.1-80.6-8.2-1.1-.9-2.2-1.8-3.2-2.7l-.1-.1c-6.9-6.4-11.4-14-12.9-21.6-.7-3.4-.8-6.2-.4-8.5.2-.9.4-1.8.7-2.6l.6-1.2c7.1-11.4 37.2 4.1 60.7 16.9 10.7 5.8 23 12.2 34.3 17.9 2.5 1.3 4.9 2.5 7.3 3.7h.1c1.3.6 2.5 1.3 3.7 1.9l.6.3Z"/><path fill="#4030A3" d="M1600 224.2c-54.6-55.7-79.3-15.7 0 8.1v-8.1Z"/><path fill="#201861" d="M1600 284.4v8.8c-.9.5-1.8 1-2.7 1.4-53.3 27.7-123.8 32.4-113.9 16.9 1.7-2.7 4.5-5.3 8.3-7.7 2.2-1.4 4.7-2.7 7.4-4 20.5-9.4 57.3-15.4 100.9-15.4Z"/><path fill="#4030A3" d="M1600 290.5v2.7c-.9.5-1.8 1-2.7 1.4-9.3-1-19.9 1-32.8 3.5-15.2 2.9-33.4 6.4-56.5 6.4-5.2 0-10.7-.2-16.4-.6 2.2-1.4 4.7-2.7 7.4-4 27 1 47.7-2.9 64.6-6.1 14.4-2.8 26-4.9 36.4-3.3Z"/><path d="M1600 284.4v8.8c-.9.5-1.8 1-2.7 1.4-53.3 27.7-123.8 32.4-113.9 16.9 1.7-2.7 4.5-5.3 8.3-7.7 2.2-1.4 4.7-2.7 7.4-4 20.5-9.4 57.3-15.4 100.9-15.4Z"/><path fill="#C2BAFF" d="M1549.3 675.5c.3.8.8 1.8 1.5 2.9 7 10.6 33.6 31.7 49.2 42.8v23.1c-33.3-11.4-55.8-21.6-61.8-25l-.6-.3c-5-3 7.9-55.9 11.7-43.5Z"/><path fill="#DAD6FF" d="M1549.3 675.5c.6.7 1.1 1.7 1.5 2.9 3.6 11.8-3.5 45.4-12.6 40.9l-.6-.3c-5-3 7.9-55.9 11.7-43.5Z"/><path fill="#8D7CF7" d="M1548.1 701.1c-1.1 9.2-4.2 14.6-5.5 9.8-1.3-4.8.1-16.3 2.5-20.7 2.4-4.3 4.1 1.7 3 10.9Zm19.2-4.6c0 6.1-1.4 13.9-3.2 19.4-1.9 6.2-5.4 13.8-11 15.1l-.9-3.8c2.8-.7 5.9-5.3 8.1-12.5 3.8-12.2 3.3-22.7 2-24.1l2.9-2.6c1.5 1.6 2.1 4.7 2.1 8.5Zm7.7 7.2c0 8.1-2.3 18.6-5.8 24.9-2.1 3.7-4.5 5.8-7.2 6.3l-.7-3.8c1.5-.3 3.1-1.8 4.6-4.4 4.8-8.4 6.6-24.2 4.4-29.8l3.6-1.3c.8 2 1.1 4.9 1.1 8.1Zm17.4 11.4c0 6.6-1.2 19.3-9.6 26.8l-2.6-2.9c9.9-8.9 8.1-27.6 8.1-27.8l3.8-.4c.2.3.3 1.9.3 4.3Zm-99.3-10.7c4.7 1.3 27.8 15.5 61 30.8 13.8 6.3 29.3 12.9 45.9 18.8v31.4s-42.9-9.6-75.1-16.8c-16.9-3.8-30.9-6.9-34.3-7.7-9.9-2.2-4.1-58.4 2.5-56.5Z"/><path fill="#C2BAFF" d="M1493.1 704.4c4.7 1.3 27.8 15.5 61 30.8-17 .3-24.6 9.7-29.2 33.3-16.9-3.8-30.9-6.9-34.3-7.7-9.9-2.1-4.1-58.3 2.5-56.4Z"/><path fill="#DAD6FF" d="M1493.1 704.4c9.9 4.9 7.2 58.7-2.5 56.5-9.9-2.2-4.1-58.4 2.5-56.5Z"/><path fill="#4030A3" d="M1492.7 716.8c5 3 3.7 36.4-1.3 35.1-5-1.4-2.1-36.3 1.3-35.1Z"/><path fill="#8D7CF7" d="M1515.9 729.9c0 15.3-2.7 33-9.7 40l-2.7-2.7c9.3-9.3 10.1-44 6.6-57l3.7-1c1.3 4.7 2.1 12.4 2.1 20.7Z"/><path fill="#5D4DC4" d="M1560.8 750.4c0 10.1-2.1 21.6-8.6 28.8l-2.9-2.6c10.6-11.7 8.2-37.3 4.9-43.2l3.4-1.8c1.7 3 3.2 10.4 3.2 18.8Z"/><path fill="#8D7CF7" d="M1600 809.1v26.2s-39.1 5.1-72.3 20.9c-.2.1-.4.2-.5.3-10.6 5.1-24.5-43-13.2-43h.4c11.5 0 38.6-.9 85.6-4.4Z"/><path fill="#C2BAFF" d="M1514 813.5h.4c10.2.4 19.1 38.7 13.4 42.7-.2.1-.4.2-.5.3-10.7 5.1-24.6-43-13.3-43Z"/><path fill="#4030A3" d="M1517.2 822.3h.2c4.7-.1 10.5 25.1 8 27.5-.1 0-.2.1-.2.2-4.8 3-13.2-27.4-8-27.7Z"/><path fill="#C2BAFF" d="M1543.4 858.5c5-41 40.6-29.4 46-17l-46 17Z"/><path fill="#5D4DC4" d="M1544.1 845.2c0 3.1-.4 6.2-1.5 8.6l-3.5-1.6c3.4-7.5-1.1-24.8-5.8-33.9-2.2-4.3-3.8-5.5-4.2-5.5l-.1-3.9c1.9-.1 3.8 1.4 5.8 4.4 3 4.5 6 12.2 7.7 19.7.7 3.1 1.6 7.7 1.6 12.2Zm9.8-6.2c0 4.1-.6 8-1.8 11.2l-3.6-1.4c4.1-10.8-.5-32.5-9.8-36.3l1.4-3.6c8.6 3.4 13.8 17.7 13.8 30.1Zm26.6-8.1c0 4.2-.7 8.3-2.3 12l-3.6-1.5c4.9-11.6-.1-26.5-5.5-31.3l2.6-2.9c5.1 4.5 8.8 14.1 8.8 23.7Z"/><path fill="#C2BAFF" d="m1545.6 752.3 54.4 21.2v42.2s-52.2-16.9-58.8-19c-6.6-2.2-3.3-47.4 4.4-44.4Z"/><path fill="#DAD6FF" d="M1545.6 752.3c7.4 2.9 2.5 46.6-4.4 44.4-6.7-2.2-3.3-47.4 4.4-44.4Z"/><path fill="#8D7CF7" d="M1545.2 761.5c3 1.9.2 28.9-2.3 27.9-3.5-1.3-1.7-29.8 2.3-27.9Z"/><g fill="#8D7CF7"><path d="M1565.6 767.4c0 6.4-1 13.9-2.7 20.5-1.6 6.4-4.5 14.4-9.1 16.6l-1.7-3.5c1.9-.9 4.8-5.1 7.1-14.1 3-11.9 3.4-25.9.9-29.4l3.1-2.3c1.7 2.3 2.4 6.8 2.4 12.2Z"/><path d="M1574.3 775c0 7.6-1.7 15.2-4.1 21-1.5 3.7-4.8 10-9.5 11.4l-1.1-3.7c2.3-.7 5-4.2 7.1-9.2 4-9.6 5.9-24.8.4-35.2l3.4-1.8c2.7 5.2 3.8 11.4 3.8 17.5Zm20.1 10.6c0 10.2-2 21.8-6.9 28.5l-3.1-2.3c8.4-11.2 6.9-38.2 3.4-43.1l3.2-2.2c2 3 3.4 10.6 3.4 19.1Z"/></g><path fill="#201861" d="M63.6 730.2c-8-10.8-9.2-20.4-2.1-17.2 7.1 3.2 17 16.7 17.9 24.4.9 7.7-7.8 3.7-15.8-7.2Z"/><path fill="#201861" d="m111.5 701.8-.1 4.2c-3.8-.1-7.2-.1-10.2 0-12.2.5-19.3 3.5-32.7 12.5-2.6 1.7-5.5 3.7-8.6 5.9-2.1 1.4-4.3 3-6.6 4.7-9.1 6.4-20.4 14-31.6 21.6-3.5 2.4-7.1 4.7-10.5 7-3.8 2.5-7.5 5-11.1 7.3v-5c2.5-1.7 5.1-3.3 7.7-5.1 4.2-2.8 8.6-5.7 12.9-8.6 10.8-7.2 21.6-14.5 30.3-20.6 2.6-1.8 5-3.5 7.2-5.1 2.6-1.8 5-3.5 7.3-5 14.2-9.6 21.8-13 34.9-13.7 3.2-.3 6.9-.3 11.1-.1Z"/><path fill="#CEC7FF" d="M18.2 741.3c6.1 9.9 4 19.8-3.8 17.8S-1.1 744.7.6 736.8c1.7-7.9 11.5-5.5 17.6 4.5Zm85.4-29.5c-3.3-5.7-4.6-15.3-4-24.2.5-7.6 2.3-14.7 5.4-18.6 6.6-8.3 14.1 4.2 13.8 22.7v1c-.7 19-9.1 29.6-15.2 19.1Z"/><path fill="#8D7CF7" d="m118.8 691.7-19.2-4.1c.5-7.6 2.3-14.7 5.4-18.6 6.6-8.4 14.1 4.2 13.8 22.7Z"/><path fill="#201861" d="M151.5 738.1c-.3.3-.6.7-.9 1-9 10.7-16.8 19.7-23.7 27-2.6 2.8-5 5.3-7.4 7.6-4.4 4.3-8.4 7.9-12.2 10.9-5.1 3.9-9.9 6.7-14.9 8.5-3.8 1.3-7.6 2.2-11.8 2.5-2.2.2-4.4.2-6.8.1-5.6-.2-11.7-1.2-18.1-2.2-4.5-.7-9.3-1.5-14.4-2-4.2-.5-8.7-.8-13.3-.9-8.5-.1-17.8.7-28 3.2v-4.3c9.9-2.4 18.9-3.1 27.2-3.1 5.2 0 10.2.4 14.9 1 5 .6 9.7 1.3 14.2 2 6.3 1 12.2 1.9 17.6 2.1 2 .1 3.9.1 5.8 0 3.3-.2 6.3-.7 9.4-1.7 8.2-2.5 16.1-7.8 26-17.5 2.7-2.6 5.5-5.5 8.5-8.7 6.8-7.3 14.6-16.3 23.9-27.3.3-.3.5-.6.8-.9l3.2 2.7Z"/><path fill="#CEC7FF" d="M164.2 750c-1.3-1-2.7-2-4.1-3-25.1-19.2-36.9-37.8-21.2-33.4 7.8 2.2 19.5 9.3 30.5 17.7 11 8.4 21.2 18.2 25.9 25.6 8.9 13.9-8.1 9.8-31.1-6.9Z"/><path fill="#F7F7F7" d="m164.2 750 5.2-18.8c11 8.4 21.2 18.2 25.9 25.6 8.9 14-8.1 9.9-31.1-6.8Z"/><path fill="#201861" d="M84.3 802.8c-6.3-9.3-6-18 .5-15.6 6.5 2.4 14.4 14 14.2 21-.2 7-8.4 3.9-14.7-5.4Z"/><path fill="#CEC7FF" d="M109.3 769.8c-14.9-7.2-22-16.5-12.7-16.6 9.3-.1 27.9 8.9 33.6 16.3 5.6 7.3-6 7.5-20.9.3Z"/><path fill="#8D7CF7" d="M42.7 780.6c0 15-6.7 24.4-11.9 16.8-5.2-7.6-5.2-26.3.1-33.8 5.3-7.5 11.9 2 11.8 17Z"/><path fill="#201861" d="M31.6 638.8c-8.4-11.3-9.9-21.2-2.7-17.7s17.7 17.6 18.9 25.5c1.2 7.9-7.8 3.6-16.2-7.8Z"/><path fill="#201861" d="M151.2 510c-3.7 3.1-7.3 6.1-10.7 9-10.2 8.6-18.8 16-26.1 22.5-1.9 1.7-3.8 3.3-5.5 4.9-8.9 8-15.5 14.5-20.3 19.9-2.9 3.3-5.2 6.2-7 9-6.5 10.1-6.3 17.4-5.9 29.4.6 18.4-16.6 38.1-49.3 65.5-.5.4-1 .8-1.4 1.2-1.8 1.5-3.7 3.1-5.6 4.6-.4.3-.8.6-1.2 1-5.7 4.6-11.8 9.5-18.2 14.6v-5.3c5.7-4.5 11.1-8.8 16.2-12.9.5-.4.9-.8 1.4-1.1 1.6-1.3 3.1-2.5 4.6-3.8.6-.5 1.2-1 1.7-1.4 7.2-6 13.6-11.6 19.2-16.9 1.5-1.5 3-2.9 4.4-4.3 16.1-16 24.4-28.9 24-40.9-.4-12.8-.7-20.7 6.5-31.7 2.2-3.3 5.1-6.9 8.8-11.1 5.1-5.6 11.8-12.1 20.7-20 1-.9 2.1-1.9 3.2-2.8 7.8-7 17.2-15 28.3-24.4 3-2.5 6.2-5.2 9.4-7.9l2.8 2.9Z"/><path fill="#CEC7FF" d="m115.4 557.2-.1-.2c-8.6-11.5-10.5-21.3-3.6-17.5 3.8 2 8.7 7.2 12.6 12.8 3.3 4.7 5.9 9.6 6.7 13.2 1.5 7.8-7.1 3.1-15.6-8.3Z"/><path fill="#8D7CF7" d="m115.4 557.2 8.9-4.9c3.3 4.7 5.9 9.6 6.7 13.2 1.5 7.8-7.1 3.1-15.6-8.3Z"/><path fill="#F7F7F7" d="M143.2 526c-.4-.9-.8-1.9-1.1-2.8-11.3-29.1-10.9-48.9.8-35.6 5.9 6.7 12.4 19.3 17.4 32.2 4.9 12.6 8.2 25.5 8.1 33.4-.4 15.2-14 .2-25.2-27.2Z"/><path fill="#CEC7FF" d="m160.3 519.8-17 6.2c-.4-.9-.8-1.9-1.1-2.8-11.3-29.1-10.9-48.9.8-35.6 5.8 6.7 12.3 19.3 17.3 32.2Z"/><path fill="#201861" d="M70 564.8c-8.7-11.8-8.9-23.1-.2-20.4 8.7 2.7 19.6 17.5 19.7 26.6.1 9.1-10.8 5.6-19.5-6.2Zm56.5 67.2-3.1 2.2L89 659l-5.1 3.7-42.9 31-7.1 5.1L0 723.3v-5.1l31.4-22.7 7.7-5.6 41.7-30.1 7.9-5.7 32.5-23.5 2.8-2z"/><path fill="#CEC7FF" d="M75.2 650.1c-4.9-11.9-3.4-21.2 2.7-16.8 6.1 4.5 12.2 19.4 11 26.8-1.2 7.4-8.8 1.9-13.7-10Zm44.1-22.9c-2.7-4.7-4.8-9.2-6.6-13.2-6.8-15.7-6.3-24.6 2.7-16.5 4.2 3.7 9 10 13.6 17.2 7.8 12.2 14.7 26.9 15.8 35.3 1.7 13.2-12.5.5-25.5-22.8Z"/><path fill="#F7F7F7" d="m129 614.7-16.3-.7c-6.8-15.7-6.3-24.6 2.7-16.5 4.2 3.7 9.1 10 13.6 17.2Z"/><path fill="#CEC7FF" d="M26.3 687.9c-.3-.4-.5-.8-.8-1.2-11.6-18.7-15.2-32.6-6.5-25 4.4 3.8 10.1 11.6 15.2 19.8 5 8.2 9.4 16.8 10.8 22.3 2.8 10.8-7.5 2-18.7-15.9Z"/><path fill="#8D7CF7" d="m26.3 687.9 7.9-6.5c5 8.2 9.4 16.8 10.8 22.3 2.8 10.9-7.5 2.1-18.7-15.8Z"/><path fill="#4030A3" d="M71.4 233C91.5 254.8 86.2 345.4 0 416.6V409c27.9-26.4 38.9-83.5 48-126 7.6-34.8 14.3-59.8 23.4-50Zm57.4-74.9c-13.5 31.1-15 56.2-8.7 82.2-22.7-25.4-42.1-45.4-40.4-73.6 2.6-41.1 22.5-67.2 41.2-65.3 18.7 2 25.1 17 7.9 56.7Z"/><path fill="#1C173C" d="M0 457.1v-9s37.3-19.1 89-55.2c48-33.5 51.5-95.9 38.1-130.5-2.9-7.5-5.2-14.8-7-22.1 10.3 11.5 21.3 24.1 31.3 39.1 32 48.1 15.1 82.5-151.4 177.7Z"/><path fill="#4030A3" d="m1400.5 545.4-13.7 18.5c19.6 6.7 20-11.3 13.7-18.5Z"/><path fill="#C2BAFF" d="M1393.4 558.8c-12.9 13.7-28.8 14.9-28.7 2.2.1-12.7 16.4-29.9 29.1-30.9 12.8-1 12.5 14.9-.4 28.7Z"/><path fill="#E0DBFF" d="M1388.6 542.6c-6.8 3.4-12.3 2.7-10.1-1.2 2.2-3.9 10.7-8.1 15.2-7.5 4.5.6 1.7 5.3-5.1 8.7Z"/><path fill="#8D7CF7" d="M1397.9 552.8c-.1-5.9-2.9-9.9-8.5-11.9-7-2.5-15.3-.6-17 1.4l-3-2.5c3-3.5 13.2-5.5 21.3-2.5 7 2.5 10.9 8 11 15.5h-3.8Zm-8.5 10.7c-.1-.6-3.6-14.5-23.6-11.1l-.6-3.8c23.7-4 28 14 28.1 14.2l-3.9.7Z"/><path fill="#4534AD" d="M1398.2 419.5c-.4 0-.8-.1-1.2-.4l-17.6-11.3c-1.1-.7-1.4-2.1-.7-3.2s2.1-1.4 3.2-.7l17.6 11.3c1.1.7 1.4 2.1.7 3.2-.5.7-1.3 1.1-2 1.1Z"/><path fill="#4030A3" d="M1433.8 440.9c-.9 0-1.8-.6-2.1-1.5l-5.5-14c-.5-1.2.1-2.5 1.3-3s2.5.1 3 1.3l5.5 14c.5 1.2-.1 2.5-1.3 3-.4.2-.7.2-.9.2Zm-70.7 30.7c-.7 0-1.4-.3-1.8-.9l-17.8-24c-.8-1-.5-2.5.5-3.2 1-.8 2.4-.5 3.2.5l17.8 24c.8 1 .5 2.5-.5 3.2-.5.2-1 .4-1.4.4Zm28.5 8.8c-.8 0-1.6-.4-2-1.2l-6.5-11.7c-.6-1.1-.2-2.5.9-3.1 1.1-.6 2.5-.2 3.1.9l6.5 11.7c.6 1.1.2 2.5-.9 3.1-.3.2-.7.3-1.1.3Z"/><path fill="#2D1F82" d="M1441.7 405c-1.3 0-2.3-1.1-2.3-2.3l.2-12.8c0-1.2 1.1-2.2 2.3-2.2h.1c1.3 0 2.3 1.1 2.2 2.3l-.2 12.8c0 1.2-1.1 2.2-2.3 2.2Z"/><path fill="#C2BAFF" d="M1429.6 427.8c-11.6 6.9-22.8 4.6-20.2-4.1 2.6-8.8 17.1-17.4 26.1-15.6 9 1.8 5.7 12.8-5.9 19.7Z"/><path fill="#E2DCFE" d="M1439.5 391.1c-8.4-.2-13.6-5.1-9.3-8.8 4.3-3.8 14.8-3.5 18.9.4 4.1 3.9-1.2 8.6-9.6 8.4Z"/><path fill="#5D4DC4" d="M1385.4 407.1c-4.3 15.1-15.6 22.1-20.3 12.6-4.7-9.5.6-28.4 9.6-34 9-5.6 15 6.3 10.7 21.4Z"/><path fill="#E2DCFE" d="M1345.4 445.7c-12.7 2.3-21.9-3.4-16.6-10.4 5.3-7 21.1-9.8 28.5-5.2 7.4 4.6.8 13.2-11.9 15.6Zm41.8 23.4c-6.8 6.5-14.7 6.7-14.3.4.4-6.3 8.8-14.5 15.2-14.6 6.3-.2 5.8 7.7-.9 14.2Zm35.1-18.1c-3.5 2.6-7.8 1.5-7.7-2 .1-3.5 4.5-6.8 7.9-5.9 3.4.9 3.3 5.3-.2 7.9Zm-23.2-4.8c-7.2-1.2-10.8-7.6-6.4-11.5 4.3-4 13.3-2.5 16.2 2.6 2.9 5.1-2.6 10.1-9.8 8.9Z"/><path fill="#8D7CF7" d="M1406 390.5c-.1 5-4.2 8.1-7.3 5.5-3.1-2.6-2.9-8.9.3-11.4 3.2-2.5 7.1.9 7 5.9Z"/><path fill="#E2DCFE" d="M1377.6 439.9c-7.2 1.7-12.7-1.4-9.8-5.5 2.9-4.1 11.9-6.2 16.3-3.7s.7 7.5-6.5 9.2Z"/><path fill="#8D7CF7" d="M1349.8 420.6c-7.1 2.5-13.1-.5-10.8-5.4 2.2-4.9 11.1-8 15.9-5.6 4.8 2.5 2 8.6-5.1 11Zm46.1-45c-6.1 4-13.5 1-13.3-5.4.2-6.4 7.8-11.4 13.8-9 6 2.4 5.6 10.4-.5 14.4Z"/><path fill="#5D4DC4" d="M1419.9 381.6c-6.1 1.7-11.5-2.6-9.7-7.9 1.8-5.3 9.4-7.4 13.7-3.9 4.3 3.5 2.1 10-4 11.8Z"/><path fill="#E2DCFE" d="M1443.9 369.6c-6.4-4.2-7.9-10.5-2.8-11.4 5.1-.9 13.1 4.3 14.3 9.4 1.2 5.1-5.1 6.1-11.5 2Z"/><path fill="#5D4DC4" d="M1426.1 359.3c-5.9 1.4-10.7-2.3-8.6-6.6 2.1-4.4 9.5-6.1 13.3-3.2 3.8 2.9 1.2 8.4-4.7 9.8Z"/><path fill="#8D7CF7" d="m1360.266 408.592 27.3-15.308 2.151 3.837-27.3 15.31zm-27.85 38.236 16.324-22.502 3.562 2.584-16.324 22.501zm74.931-13.519 30.094-30.57 3.136 3.086-30.094 30.57z"/><g fill="#5D4DC4"><path d="M597 653.3c-.9-.2-1.5-1-1.4-1.9 1.9-24.3 8.4-37.2 14.1-39.3 1.7-.6 3.2-.2 4.4.9 2.4 2.5 2.1 8.2-.7 15.2-.4.9-1.4 1.4-2.4 1-.9-.4-1.4-1.4-1-2.4 2.7-6.6 2.3-10.5 1.5-11.3-.1-.1-.2-.2-.5 0-2.4.8-9.6 9.3-11.7 36.1-.1 1-1 1.8-2 1.7h-.3Zm-10.3-1.8c-1-.2-1.6-1.2-1.4-2.2 0-.2 5.3-22.8-1.4-35.6-1.3-2.6-3.4-5.4-5.4-8-1.9-2.5-3.6-4.9-4.8-7.1-2.3-4.3-2.3-8.9-.1-12.2 1.8-2.7 5-4.1 8.6-3.8 9.8.9 14.9 11.3 16.8 16.3l8-6.8c.8-.7 1.9-.6 2.6.2.7.8.6 1.9-.2 2.6l-10.1 8.5c-.5.4-1.1.5-1.7.3-.6-.2-1-.7-1.2-1.2 0-.2-4.4-15.3-14.5-16.2-2.3-.2-4.2.6-5.3 2.2-1.4 2.1-1.3 5.4.3 8.5 1 2 2.7 4.2 4.5 6.7 2 2.8 4.2 5.7 5.7 8.5 7.3 14 1.9 37.2 1.7 38.1-.2.8-1.1 1.4-2.1 1.2Z"/><path d="M582.8 651c-.9-.2-1.5-1-1.4-1.9 1.9-24.8-4-26.1-11.6-27.7-8.3-1.8-18.7-4-21.1-33.4l-12.2 2.1c-1 .2-1.9-.5-2.1-1.5-.2-1 .5-1.9 1.5-2.1l14.2-2.5c.5-.1 1 0 1.4.4.4.4.7.8.7 1.3 1.8 28.5 10.2 30.3 18.4 32.1 10 2.2 16.5 5.5 14.5 31.6-.1 1-1 1.8-2 1.7-.2-.1-.3-.1-.3-.1Z"/><path d="M577.9 650.5c-.8-.2-1.5-1-1.4-1.8.3-7.5-1.2-13.1-4.4-16.3-2.1-2-4.8-2.9-8.1-2.7-2.1.2-4.6 1.6-7.1 3.1-3.9 2.3-8 4.6-11.7 2.7-3.3-1.7-5.2-6.5-6-15.3-.1-1 .7-1.9 1.6-2 1-.1 1.9.7 2 1.6.8 9 2.7 11.7 4 12.4 1.9 1 5.1-.9 8.2-2.7 2.8-1.6 5.8-3.3 8.7-3.5 4.3-.3 8 .9 10.9 3.7 4 3.9 5.9 10.4 5.5 19 0 1-.9 1.8-1.9 1.7-.1.2-.2.1-.3.1Z"/></g><path fill="#8D7CF7" d="M1315.5 542.3c-2.3 109.3-77.2 133.7-106.4 111 13.1-5.1 27.2-7.2 45.1-7.2 0 0 27.4-47.7 61.3-103.8Z"/><path fill="#36288F" d="M682.3 690.8c-15.9-4.5-24.8-11.7-16-12.9 8.8-1.2 28.7 4.5 35.8 10.2 7.1 5.7-3.8 7.2-19.8 2.7ZM643.6 715c-17.5-2.6-28-8.9-18.7-11.4s31.2.7 39.5 5.8-3.3 8.2-20.8 5.6Zm53.3 21.2c-15.3-3.5-24.1-9.9-15.8-11.4 8.3-1.6 27.5 2.8 34.5 7.9 7 5.1-3.4 7-18.7 3.5Zm42.2-33c-11.5-5.8-17.2-12.5-10.4-12 6.8.5 21.1 7.6 25.8 13 4.7 5.4-4 4.7-15.4-1Zm-31.5 8.9c-8-3.5-12.2-7.9-7.5-7.9 4.7 0 14.7 4.5 18 8 3.3 3.5-2.5 3.4-10.5-.1ZM654 692.7c-7.7-3.2-11.7-7.2-7.3-7.3 4.4-.1 14 3.9 17.2 7.1 3.3 3.3-2.2 3.4-9.9.2Zm-5.8-26.3c-6-1.7-9.3-4.8-5.8-5.8 3.5-1 10.9 1.2 13.5 3.7 2.6 2.5-1.6 3.8-7.7 2.1Zm-31 78.8c-12-2.7-18.9-7.7-12.4-8.9 6.5-1.2 21.5 2.1 27 6.1 5.5 4-2.6 5.5-14.6 2.8Zm-397.8-45.8c-5.9 0-9.7-4.7-6.7-8.5 3-3.8 10.4-3.8 13.4 0s-.8 8.5-6.7 8.5Z"/><path fill="#201861" d="M197 688c-3.6 0-5.8-2.9-4-5.2 1.8-2.3 6.3-2.3 8.1 0 1.8 2.3-.5 5.2-4.1 5.2Z"/><path stroke="#4030A3" stroke-linecap="round" stroke-linejoin="round" stroke-width="3.5" d="M1136.3 753.7c6.9-11.5 15.5-3.8 17.8-.3 6.4-8.1 13.9.3 13.9.3"/><path stroke="#201861" stroke-linecap="round" stroke-linejoin="round" stroke-width="3" d="M1302.3 657.4c-23 2.7-27.7 29.5-49.4 35.2"/><path fill="#201861" d="M1286.7 700.6c12.8-.1 25.6-3.2 25.6-3.2-7.1-36.3-23.5-28.6-24.6-18.9l-1 22.1Z"/><path stroke="#201861" stroke-linecap="round" stroke-linejoin="round" stroke-width="3" d="M1348.7 705.3c-20.5-59.6-70.4-70.5-60.8 3.9"/><path fill="#403299" d="M448.9 738.5c-3.2 18.3 35.8 15.4 52.6 3.8 1.8-1.2 4.1-1.1 5.9.2 15.6 11.6 58.7-12.4 58.7-12.4-59.9-15.2-117.2 8.4-117.2 8.4Z"/><path fill="#8D7CF7" d="M566 730.1c-34.3-41.4-45-35.2-55.7-28.4-10.7 6.8-12.8 1-19.3.9-6.5-.2-14.9 12.3-19.4 19-4.5 6.7-19.7 6.2-22.7 16.8-1.1 3.8 42.5 5.9 56.8-4.8 24.4 5.4 60.3-3.5 60.3-3.5Z"/><path fill="#C2BAFF" d="M492.9 727.8c-3.9 4.4-8.7 5.1-8.6 1.2.1-3.9 4.9-9.3 8.8-9.9 3.8-.6 3.7 4.3-.2 8.7Z"/><path stroke="#C2BAFF" stroke-width="3.5" d="M504.5 737c19.6-14.8 29.8-38.6 17.9-42.4" opacity=".5"/><path fill="#7B68F2" d="M1063.3 469.2c-3.9 2.5-9.1-.2-9.3-4.9-.2-4.7 4.7-7.8 8.8-5.6 4.1 2.2 4.5 8 .5 10.5Zm223.1-92.6c-3.5 1-6.7-2.1-5.8-5.6.9-3.5 5.2-4.8 7.8-2.3 2.6 2.5 1.4 6.9-2 7.9Zm40.2-65.6c-4.3.3-7.2-4.1-5.3-8 1.9-3.9 7.2-4.2 9.6-.6 2.4 3.6-.1 8.4-4.3 8.6Zm10.9-233.7c-2.7 2.7-7.3 1.5-8.3-2.2-1-3.7 2.4-7.1 6.1-6.1 3.7 1 4.9 5.6 2.2 8.3Zm176.2 94c-4.3 0-6.9-4.6-4.8-8.3 2.1-3.7 7.5-3.7 9.6 0 2.1 3.7-.5 8.3-4.8 8.3Zm-241-48.3c-3.7 1.5-7.6-1.6-7.1-5.5s5.2-5.8 8.3-3.4c3.1 2.4 2.5 7.4-1.2 8.9ZM988.6 336.4c-3.5 1-6.8-2.3-5.8-5.8s5.4-4.8 8-2.2c2.6 2.6 1.3 7-2.2 8Zm-98.4-91.3c-3.3.1-5.4-3.3-3.9-6.2 1.5-2.9 5.6-3.1 7.3-.3 1.7 2.8-.1 6.3-3.4 6.5Zm-95.1 109.6c-5.1 0-8.3-5.5-5.8-10 2.5-4.5 9-4.4 11.5 0s-.6 10-5.7 10ZM942.8 55.5c-3.8 1-7.3-2.5-6.3-6.3s5.8-5.1 8.6-2.3 1.5 7.6-2.3 8.6ZM748.1 30.2c-3.8 1-7.3-2.5-6.3-6.3s5.8-5.1 8.6-2.3 1.6 7.6-2.3 8.6Zm214.5 544.1c-4 .6-7.1-3.3-5.7-7 1.5-3.7 6.4-4.5 8.9-1.4s.7 7.7-3.2 8.4Zm122.8-26.2c-3.1 1.6-6.7-.8-6.5-4.3.2-3.5 4.1-5.4 7-3.5 2.8 1.9 2.6 6.2-.5 7.8Zm-180.8-63.2c-2.9 2.4-7.3.8-8-3-.7-3.8 3-6.8 6.5-5.4 3.5 1.4 4.4 6 1.5 8.4Zm-142.4 57.6c-5.3.9-9.5-4.3-7.7-9.3 1.8-5 8.5-6.1 11.9-2 3.5 4.1 1.1 10.4-4.2 11.3Zm411.6-215.7c-5.2.5-9-4.9-6.8-9.7 2.2-4.8 8.8-5.4 11.8-1.1 3 4.3.2 10.3-5 10.8ZM487 357.5c-5.1 0-8.3-5.5-5.8-10 2.5-4.5 9-4.4 11.5 0s-.6 10-5.7 10Zm580.9-214.8c-4.2 1.5-8.5-2.1-7.7-6.5.8-4.4 6.1-6.3 9.5-3.4 3.4 2.9 2.4 8.4-1.8 9.9Zm-452.6 1.8c-5.6-2-6.9-9.4-2.4-13.3 4.5-3.9 11.6-1.3 12.7 4.6 1.1 5.9-4.7 10.8-10.3 8.7ZM63.4 83.8c-3.9 0-6.3-4.2-4.4-7.5 1.9-3.3 6.8-3.3 8.7 0 1.9 3.3-.5 7.5-4.3 7.5Zm344.9 195.9c-5.8-2.5-6.6-10.4-1.5-14.1 5.1-3.7 12.3-.5 13 5.7.7 6.3-5.7 11-11.5 8.4Zm151.8 238.9c-4.4.2-7.4-4.3-5.4-8.2 2-3.9 7.4-4.2 9.8-.6 2.4 3.6 0 8.5-4.4 8.8Zm-303 8.6c-3.2.4-5.7-2.9-4.4-5.9 1.3-3 5.3-3.5 7.3-.9s.4 6.4-2.9 6.8Zm65.3-69c-3.4.2-5.8-3.3-4.3-6.4 1.5-3.1 5.7-3.4 7.6-.5 1.9 2.9.1 6.7-3.3 6.9ZM91.9 354.8c-5.5 0-8.9-5.9-6.2-10.6 2.7-4.7 9.6-4.7 12.3 0 2.7 4.7-.6 10.6-6.1 10.6Zm70.4-166.7c-3.9 0-6.4-4.3-4.4-7.7 2-3.4 6.9-3.4 8.9 0s-.6 7.7-4.5 7.7Zm43.2 111.4c-3.4 0-5.6-3.7-3.9-6.7 1.7-3 6-3 7.7 0 1.7 3-.4 6.7-3.8 6.7ZM326.6 89.7c-4.6 0-7.4-5-5.1-8.9 2.3-3.9 8-4 10.3 0 2.3 4-.7 8.9-5.2 8.9Z" opacity=".75"/></g></g></svg>