<?xml version="1.0" encoding="utf-8"?>
<!-- Generator: Adobe Illustrator 28.0.0, SVG Export Plug-In . SVG Version: 6.00 Build 0)  -->
<svg version="1.1" id="Layer_1" xmlns="http://www.w3.org/2000/svg" xmlns:xlink="http://www.w3.org/1999/xlink" x="0px" y="0px"
	 viewBox="0 0 1600.5 1444.9" style="enable-background:new 0 0 1600.5 1444.9;" xml:space="preserve">
<style type="text/css">
	.st0{fill:#30247D;}
	.st1{fill:#8D7CF7;}
	.st2{fill:#B8AEFF;}
	.st3{fill:#E0DBFF;}
	.st4{fill:#5D4DC4;}
	.st5{fill:#4534AD;}
	.st6{fill:#C2BAFF;}
	.st7{fill:#201861;}
	.st8{fill:none;}
	.st9{fill:url(#SVGID_1_);}
	.st10{fill:url(#SVGID_00000170250078831032232180000008463638382139177886_);}
	.st11{fill:#4030A3;}
	.st12{fill:url(#SVGID_00000047740087702479381360000007207444852642689949_);}
	.st13{fill:url(#SVGID_00000182508706487907559430000009691630754060959145_);}
	.st14{fill:url(#SVGID_00000143603721530728285540000006263986635595506827_);}
	.st15{fill:#36288F;}
	.st16{fill:#F7F7F7;}
	.st17{fill:#2D1F82;}
	.st18{fill:#E2DCFE;}
	.st19{fill:none;stroke:#4030A3;stroke-width:3.5;stroke-linecap:round;stroke-linejoin:round;}
	.st20{fill:none;stroke:#201861;stroke-width:3;stroke-linecap:round;stroke-linejoin:round;}
	.st21{fill:#403299;}
	.st22{opacity:0.5;fill:none;stroke:#C2BAFF;stroke-width:3.5;stroke-miterlimit:10;enable-background:new    ;}
	.st23{fill:#281F70;}
	.st24{fill:#DAD6FF;}
	.st25{fill:#CEC7FF;}
	.st26{fill:#1C173C;}
	.st27{opacity:0.75;}
	.st28{fill:#7B68F2;}
</style>
<rect class="st0" width="1600" height="800"/>
<g>
	<g>
		<path class="st1" d="M836.2,568.8c17.2,8.6,21.6,24,18,42c-1,5.3-2.4,10.4-3.8,15.4c-1,4.7-4.7,14.1-1.5,18
			c4.8,4.1,11.1,5.5,16.6,8.7c8.2,4.4,9.2,13.8,8,22.1l-2.4-0.3c2.4-22.7-10.2-18.1-23.8-27.9c-5.4-4.7-1.3-15.5-0.1-21.4
			c1.3-5.1,2.7-10.1,3.5-15.2c3-16.4-0.7-30-16.5-37.7L836.2,568.8L836.2,568.8L836.2,568.8z"/>
		<path class="st1" d="M904.1,649.5c-3.1-9.4-11.6-15.3-19.7-20c-3-1.6-5.9-3.1-8.5-5.2c4.6-2.9,8.4-7,10.8-11.7
			c5-9,3-23.5-9.3-24.2c-11.4-0.3-15.9,13.8-13.4,23c1,4.5,3.3,8.4,6.3,11.8c-2.4,1-4.8,1.5-7.3,1.6c-19.8,0.7-26.4-22.3-27-38.5
			l-4.1,0.2c0.3,4.7,0.9,9.4,2,14c3.1,14.3,13,28.8,29.3,27.9c3.5-0.2,6.8-1.1,9.9-2.5c1.2,1,2.4,1.9,3.7,2.7
			c5.9,3.5,12.3,6.5,17.3,11.1c12.3,10.6,9.3,23.4,1.8,35.9l2.1,1.2C902.8,668.7,907.1,659,904.1,649.5z M868.1,598.2
			c3.6-8.7,14.9-8.8,17.4,0.7c1.9,9.1-4.2,18.3-12.4,22.9C867,615.8,864.5,606,868.1,598.2z"/>
		<path class="st1" d="M887.3,669.4c-8.7-41,41.7-44.1,26.5-88.2c-1.4-4.3-3.3-8.5-5.3-12.6l3.5-1.7c2,4.3,4,8.6,5.3,13.2
			c13,41.6-23.3,47.2-28.1,75.4c-0.7,4.4-0.4,9,0.4,13.5L887.3,669.4L887.3,669.4L887.3,669.4z"/>
	</g>
	<g>
		<path class="st1" d="M802.2,677.2l4.9,0.1C842.1,654.4,822.8,639.8,802.2,677.2z"/>
		<path class="st1" d="M756.3,671.5l28.5,5C802.1,665.6,804.1,639.8,756.3,671.5z"/>
		<path class="st1" d="M670.9,648.4c10.4-19.3-2.4-25.5-11.1-8.8c-3.1-12.3-12.4-8.2-11.4,4.3S670.9,648.4,670.9,648.4z"/>
		<g>
			<path class="st1" d="M705.1,659.5c-0.5,0-1-0.3-1.2-0.8c-0.3-0.7,0.1-1.4,0.7-1.7c2.1-0.8,7.6-3.6,8-6.8c0.2-1.4-0.8-2.9-2.8-4.5
				l-1.7-1.3l2-0.9c2.7-1.3,9.8-5.6,10.2-10.2c0.2-2.3-1.4-4.5-4.7-6.7c-0.6-0.4-0.8-1.2-0.4-1.8c0.4-0.6,1.2-0.8,1.8-0.4
				c4.1,2.7,6,5.8,5.8,9.1c-0.4,5.4-6.8,9.6-9.9,11.4c1.8,1.8,2.6,3.6,2.3,5.6c-0.7,5.2-8.8,8.5-9.7,8.8
				C705.4,659.5,705.3,659.5,705.1,659.5L705.1,659.5z"/>
			<path class="st1" d="M716.7,662.6c-0.5,0-1-0.3-1.2-0.8c-0.3-0.7,0-1.4,0.7-1.7c0.1,0,6.4-2.7,11.6-8c6.8-6.8,8.8-14.7,5.7-23.2
				c-0.2-0.7,0.1-1.4,0.8-1.7c0.7-0.2,1.4,0.1,1.7,0.8c8.3,22.8-18.4,34.4-18.7,34.5C717,662.6,716.9,662.6,716.7,662.6z"/>
		</g>
	</g>
	<g>
		<g>
			<path class="st2" d="M191.2,531.6c-5.1,2-10.9,3.9-17.4,5.5l-39.1-54.6c23.8-4.8,43.6-4.3,58-0.5c2.6,0.7,5.1,1.5,7.3,2.4
				C225.9,494.6,227.2,517.2,191.2,531.6L191.2,531.6z"/>
			<path class="st1" d="M191.2,531.6c-5.1,2-10.9,3.9-17.4,5.5l-10.7-14.9c16.7-2.7,37.8-18.1,29.5-40.2c2.6,0.7,5.1,1.5,7.3,2.4
				C206.3,502.2,204.3,518.8,191.2,531.6L191.2,531.6z"/>
			<path class="st1" d="M161.1,497.2c-8.5,0.1-14.1-3.3-10.2-6.1s14.5-3,19.1-0.2S169.6,497.1,161.1,497.2z"/>
		</g>
		<g>
			<path class="st2" d="M123.9,467.5l-33.8-47.1c18.1,0.8,31.5,6.1,39.8,13C144.8,445.7,143.6,462.9,123.9,467.5L123.9,467.5z"/>
			<path class="st3" d="M109.4,447.3l-19.3-26.9c18.1,0.8,31.4,6.1,39.8,13C125.8,442.1,116.7,446.9,109.4,447.3z"/>
		</g>
	</g>
	<g>
		<path class="st4" d="M1004.9,635.6l-10.2-29l3.4-1.2l8,22.5c1.4-5.5,3.6-8.9,6.5-10.2c2.8-1.2,5.5-0.1,6.7,0.8l-2.2,2.9
			c0,0-1.5-1-3.1-0.3c-1.5,0.7-4.3,3.4-5.5,14.2L1004.9,635.6L1004.9,635.6z"/>
		<path class="st4" d="M1078.4,636.5l-3.5-1c4.7-16.7,10.3-18,13.2-17.3c3.8,1,5.5,5.8,4.7,9.6l-3.6-0.8c0.5-2.4-0.7-5-2-5.3
			C1085.7,621.4,1081.9,624,1078.4,636.5L1078.4,636.5z"/>
	</g>
	<path class="st5" d="M1309.8,583.5c-84.8,74-148.3,6.3-213.2,65.3C1205.1,752.9,1307.3,630.3,1309.8,583.5z"/>
	<g>
		<path class="st1" d="M1217.1,379.8c2.8,4.9,7.4,12.8,12.5,21.5c1.6,2.8,3.3,5.6,5,8.5c0.7,1.1,1.3,2.3,2,3.4
			c8.1,14,16.3,28.1,20.4,35.3c4.5,8.5,2.4,18-3.8,25c-4,5.7-3.8,13.5,0.1,19.2c6.1,10.4,14.6,24.8,23.3,39.6
			c0.7,1.2,1.4,2.4,2.1,3.6c8.3,14.2,16.7,28.3,23,39.1l-3,6.4c-2-3.5-4.7-8.1-7.7-13.4l0,0c-0.8-1.3-1.6-2.7-2.4-4.1
			c-8.3-14.5-18.5-32.4-25.9-45.4c-0.9-1.5-1.7-3-2.5-4.3c-1.5-2.6-2.8-5-4-6.9l-7-12.2c-1.3-2.2-2.4-4.6-3-7.1
			c-1.2-5.1-0.4-10.7,2.2-15.2c1.1-2,2.9-3.9,4.1-5.8c3.4-5.4,3.3-12.6-0.1-18c-0.8-1.3-1.7-3-2.7-4.8c-0.6-1-1.2-2.2-1.9-3.4
			c-6-10.6-14.9-26.4-22.4-39.6c-4.6-8.2-8.7-15.4-11.2-19.7L1217.1,379.8L1217.1,379.8z"/>
		<polygon class="st1" points="1166.9,419.6 1179.9,438.8 1187.7,450.3 1210.9,484.6 1212.9,487.6 1289.6,600.7 1286.9,606.5 
			1282.6,599.9 1279.5,595.3 1235.8,529.4 1233.8,526.3 1187.5,456.5 1184.9,452.6 1184,451.3 1178.3,442.6 1164.2,421.4 		"/>
		<path class="st1" d="M1168.7,523.2c2.6,4.1,5.6,8.9,8.9,14.1c3.3,5.3,6.9,11,10.5,16.7c0.6,1,1.3,2,1.9,3.1
			c7.1,11.3,14.1,22.4,19.1,30.3c1.7,2.8,3.7,5.7,6.5,7.5c3.3,2.4,7.3,3.6,11.4,3.6c2.2,0,4.8-0.1,7,0.1c6.5,0.6,12.7,4.1,16.5,9.4
			c0.7,0.9,12.9,20.9,20.3,32.9l-2.7,5.8l-8.6-14.4l-2.4-4l-7.8-13c-1.8-3-3.3-5.8-6-7.9c-3.9-3.2-8.6-4.5-13.7-4.3h-2.7
			c-4.9,0-9.9-1.7-13.9-4.6c-2.6-1.8-4.6-4.2-6.3-6.9c-0.4-0.6-0.8-1.3-1.2-1.9l-0.8-1.4l-4.8-7.9l-11.3-18.5l-14.5-23.7l-8.1-13.3
			L1168.7,523.2L1168.7,523.2z"/>
		<path class="st1" d="M1220.1,527.3l17.2-1.3l0.2,3.2l-17.2,1.3c-5.9,0.4-11.5-2.4-14.7-7.5l-5.9-9.5l-14.1-22.7l2.8-1.7l12.7,20.4
			l7.4,11.9C1210.9,525.4,1215.4,527.7,1220.1,527.3L1220.1,527.3z"/>
		<path class="st1" d="M1188,398.4l19.9,37.6l12.8,24.1c2.3,4.4,2.4,9.7,0.3,14.2c-0.2,0.5-0.5,1.1-0.9,1.6l-7.2,11.7l-0.8,1.3
			l-2.8-1.7l1.6-2.5l6.4-10.4c2.3-3.8,2.5-8.6,0.4-12.5l-12.1-22.9l-20.6-38.8L1188,398.4L1188,398.4z"/>
		<path class="st1" d="M1251,444.3l-8.6-0.6c-4.9-0.3-9.5-3-12.2-7.1l-11.7-17.9l2.7-1.8l11.7,17.9c2.2,3.3,5.8,5.4,9.7,5.7l8.6,0.6
			L1251,444.3L1251,444.3z"/>
		<path class="st1" d="M1264.4,519.2l-12-4.3c-2.9-1-5.4-2.8-7.2-5.2l-17.9-23.2l2.6-2l17.9,23.2c1.5,1.9,3.5,3.4,5.8,4.2l12,4.3
			L1264.4,519.2L1264.4,519.2z"/>
		<path class="st1" d="M1274.3,535.1c2.1-2.6,11.8-14.8,13.6-17.1c4.3-4.6,5.1-10.8,1.8-16.1l-1.1-1.9c-2.7-4.9-9.8-18-12.6-23
			l2.8-1.6l8.5,15.3l4.3,7.6c1.5,2.7,3.2,5.5,3.5,8.6c0.7,4.9-1.2,9.8-4.4,13.4l-2.7,3.4l-10.8,13.8L1274.3,535.1L1274.3,535.1
			L1274.3,535.1z"/>
		<path class="st1" d="M1293.2,490.2c-0.3,0.6-0.6,1.2-1,1.8l-2.7,4.3l-2.8-1.7l2.7-4.3c2.5-4,2.6-9.1,0.2-13.2l-9.4-15.9l2.8-1.7
			l9.4,15.9C1295.1,479.9,1295.4,485.4,1293.2,490.2L1293.2,490.2z"/>
		<path class="st1" d="M1255.2,530.8l15.3,24.3l1.9,3c2.5,4.7,7.9,7.3,13.1,6.3l7.1-1l0.5,4.4c-1.6,0.2-7.6,0.9-9.1,1
			c-4.8,0.2-9.6-1.8-12.8-5.5c-0.9-0.9-1.6-2.1-2.3-3.2l-1.8-3.1l-14.8-24.6L1255.2,530.8L1255.2,530.8L1255.2,530.8z"/>
		<path class="st1" d="M1217.9,545.3l12,19.8c1.8,2.9,4.8,5,8.1,5.6c2.7,0.5,5.7,0.2,8.5,0.4c5.4,0.4,10.6,4,13,8.8
			c1.5,2.7,3.9,7.5,5.4,9.9c1.9,2.7,5,4.5,8.3,4.9l11.5,1.2l-0.5,4.3l-11.5-1.4c-5.5-0.7-10.4-4.5-12.6-9.4c-0.8-1.6-3.2-6-4-7.7
			c-1.5-3.1-4.2-5.4-7.4-6.4c-2.5-0.8-5.5-0.6-8.1-0.7c-5.4,0-10.8-3-13.6-7.7l-11.8-20L1217.9,545.3L1217.9,545.3L1217.9,545.3z"/>
		<path class="st1" d="M1208.2,591.5l-8.4-0.2c-6.1-0.2-11.4-3.7-14-9.1l-12.9-27.5l2.9-1.4l12.9,27.5c2.1,4.3,6.3,7.1,11.1,7.2
			l8.4,0.2V591.5z"/>
		<path class="st1" d="M1173.6,502.5l14.9,28.4l3.8,7.3c2.3,4.4,2.4,9.7,0.3,14.2c-0.2,0.5-0.5,1-0.8,1.5l-1.9,3.1l-0.7,1.1
			l-2.8-1.7l1.5-2.5l1-1.7c2.3-3.8,2.4-8.5,0.4-12.5l-3.5-6.7l-15.2-29L1173.6,502.5L1173.6,502.5z"/>
		<path class="st1" d="M1164.7,563.9c5.3,7.8,40.5,60.3,44.9,66.8c2.6,3.4,7,5.3,11.2,4.8c1.3-0.2,4.7-0.9,6.1-1.2l33.3-6.5l0.8,4.3
			c-3.7,0.7-35.9,6.7-38.6,7.2c-0.6,0.1-1.8,0.2-2.4,0.3c-6.1,0.3-11.9-3.2-14.9-8.3c-2.9-4.4-39.3-59.6-43.2-65.5L1164.7,563.9
			L1164.7,563.9L1164.7,563.9z"/>
		<path class="st1" d="M1206.3,630.7l-22.2,3c-5.5,0.7-11.1-1.5-14.6-5.9l-12-15.3l2.6-2l12,15.3c2.8,3.5,7.2,5.3,11.6,4.7l22.2-3
			L1206.3,630.7L1206.3,630.7z"/>
		<path class="st1" d="M1184.7,598.6l-10.3-0.7c-5.2-0.4-10-3.3-12.6-7.8l-14.1-24.2l2.8-1.6l14.1,24.2c2.1,3.6,5.9,5.9,10,6.2
			l10.3,0.7L1184.7,598.6L1184.7,598.6z"/>
		<g>
			<path class="st6" d="M1166.9,419.6l20.8,30.7c-1.2,0.4-2.4,0.7-3.7,1l-19.8-29.9L1166.9,419.6L1166.9,419.6z"/>
			<path class="st6" d="M1188,398.4l19.9,37.6c-0.7,0.9-1.4,1.8-2.2,2.7l-20.6-38.8L1188,398.4z"/>
		</g>
		<path class="st6" d="M1217.1,379.8c2.8,4.9,7.4,12.8,12.5,21.5c-1.3,0-2.7,0-4.1-0.2c-4.7-8.2-8.7-15.4-11.2-19.7L1217.1,379.8
			L1217.1,379.8z"/>
		<g>
			<path class="st6" d="M1168.7,523.2c2.6,4.1,5.6,8.9,8.9,14.1c-1.1,0.4-2.3,0.7-3.5,0.9l-8.1-13.3L1168.7,523.2L1168.7,523.2z"/>
			<path class="st6" d="M1170.7,504.1l2.9-1.5l14.9,28.4c-0.8,0.7-1.7,1.4-2.6,2.1L1170.7,504.1L1170.7,504.1z"/>
			<path class="st6" d="M1188.3,489.2l12.7,20.4c-0.4,1.3-0.8,2.7-1.3,4l-14.1-22.7L1188.3,489.2L1188.3,489.2z"/>
		</g>
	</g>
	<g>
		<polygon class="st3" points="211.7,565.9 214,583.9 185.3,580.3 		"/>
		<polygon class="st3" points="231.1,586.2 233.5,612.4 205.5,612.4 		"/>
		<path class="st3" d="M254.6,617.4c-5.8,20.1,6.5,37,6.5,37l-37.4-16.9L254.6,617.4L254.6,617.4z"/>
		<path class="st1" d="M181.7,565.6c37.6-10.3,35.4,5.4,17.7,8.8c59.1-0.3,17.4,34.1,17.4,34.1c62-3.7,35.5,24.5,7,28.9
			C173.5,614.9,181.7,565.6,181.7,565.6z"/>
		<path class="st7" d="M230.3,626.1c-8.2,2-14.3-0.5-10.9-4.5s13.6-6.6,18.5-4.5S238.6,624.1,230.3,626.1L230.3,626.1z"/>
		<path class="st7" d="M215.3,599.4c-6.3,6.3-14.9,5.6-15.5-1.3s7.3-14.8,14.2-14.2S221.7,593.1,215.3,599.4L215.3,599.4z"/>
	</g>
	<path class="st1" d="M1205.1,687.2c-141.8,98.6-250.6,148.9-635.4-29.8c28.4-10.6,51.3-14.9,71.2-15.5
		c64.4-1.8,96.4,36.2,176.4,32.3c42.9-2.1,80.6-15.3,119.4-26.7C1009.2,626.3,1085.1,611.3,1205.1,687.2z"/>
	<g>
		<path class="st4" d="M1017,757.2l-1.5,3.3c-1.6-0.7-39.6-18.2-50.8-55.1c-6.4-21-2.6-43.9,11.3-68.2c1.6-0.4,3.2-0.7,4.8-1
			c-14.7,24.4-18.9,47.3-12.6,68.2C978.9,739.7,1016.7,757,1017,757.2L1017,757.2z"/>
		<path class="st4" d="M947.5,644.5c-9.2,43.4-33.5,67.3-52.3,79.7c-20.8,13.7-39.1,16.7-39.9,16.8l-0.6-3.6
			c0.2,0,18.5-3.1,38.6-16.4c17.9-11.9,40.9-34.5,50.2-75.5C944.9,645.2,946.2,644.8,947.5,644.5L947.5,644.5z"/>
		<path class="st4" d="M1125.1,719l-3.6-0.7c0-0.1,2.4-14-5.4-31.9c-12.2-27.9-40-45.3-63.1-55.5c3.5,0.2,7,0.6,10.6,1
			c21.6,10.9,45,27.9,56,53.3C1127.7,704.1,1125.2,718.4,1125.1,719z"/>
	</g>
	<path class="st8" d="M1205.1,687.2c-141.8,98.6-250.6,148.9-635.4-29.8c28.4-10.6,51.3-14.9,71.2-15.5
		c64.4-1.8,96.4,36.2,176.4,32.3c42.9-2.1,80.6-15.3,119.4-26.7c2.3-0.7,4.6-1.3,6.9-2c1.3-0.4,2.6-0.8,4-1.1
		c9.4-2.6,18.8-5.1,28.5-7.2c1.6-0.4,3.2-0.7,4.8-1c22.6-4.6,46.3-7.2,72.1-5.3c3.5,0.2,7,0.6,10.6,1
		C1104.1,636.6,1149.9,652.3,1205.1,687.2L1205.1,687.2z"/>
	<g>
		<path class="st3" d="M281.5,631.3c3.9,14.4,25.2,26.2,25.2,26.2l-1.3,7.8l-24.2-5.9L281.5,631.3L281.5,631.3z"/>
		<path class="st1" d="M256.6,656.1l24.6,3.3C290.4,613.7,267.4,623.4,256.6,656.1L256.6,656.1z"/>
		<path class="st7" d="M279.1,646.6c-2.8,3.8-7.8,3.8-8.9,0s2.4-8.5,6.4-8.5S281.9,642.8,279.1,646.6L279.1,646.6z"/>
	</g>
	<path class="st6" d="M936.7,647.6c-43.7,86.2-118.2,36.7-118.2,36.7C718.9,734.8,686.8,652,686.8,652c-24.5,12.2-39.1-0.7-45.9-10
		c64.4-1.8,96.4,36.2,176.4,32.3C860.2,672.2,898,659,936.7,647.6z"/>
	<g>
		<path class="st3" d="M520.7,613c0.5,22.4,15,39.7,15,39.7l-51.5,6.5L520.7,613L520.7,613z"/>
		<path class="st3" d="M490.1,577.1c4.6,15.5,13.5,34.1,13.5,34.1l-42.7,24.3L490.1,577.1L490.1,577.1z"/>
		<polygon class="st3" points="419.4,572.3 439.3,590.4 403.6,613 		"/>
		<path class="st3" d="M359.7,587c10.5,5.7,27.7,12.4,27.7,12.4l-23.6,25.8L359.7,587z"/>
		<polygon class="st3" points="311.5,621 332.8,620.3 322.4,659.3 		"/>
		<path class="st1" d="M296.5,664.1c-3.9-50.7,23.6-54.2,25.9-23.9c13.3-61.9,47.5-70.5,46.4-26.8c28-45.6,71.2-61.1,45.7-10.9
			c42.8-54,117.5-40.4,51.2,25.7c59.3-46.9,73.9-9.3,29.8,24.5C451.4,686.6,296.5,664.1,296.5,664.1L296.5,664.1z"/>
		<path class="st4" d="M345.8,659.3c10.4-25-6.2-28-25.9,7.6l82.1-1.6C432.6,610.5,400.6,598.5,345.8,659.3L345.8,659.3z"/>
		<path class="st7" d="M434.6,648.3c-11.9,6.1-22.1,4.5-18.3-2.8s18.6-14.9,26.8-13.6S446.5,642.3,434.6,648.3L434.6,648.3z"/>
		<path class="st7" d="M493.9,634.1c-10.3,5.3-19.1,4-15.8-2.4s16-13,23.1-11.9S504.1,628.8,493.9,634.1L493.9,634.1z"/>
		<path class="st7" d="M457.6,608.7c-14.3,12.1-29.6,12.1-27.7,0c2-12.1,19.8-27.3,32.1-27.2C474.4,581.4,471.9,596.6,457.6,608.7
			L457.6,608.7z"/>
		<path class="st4" d="M457.3,625c-5,2.2-9.2,0.9-7.7-2.3s7.8-5.9,11.2-4.9S462.2,622.8,457.3,625z"/>
		<path class="st7" d="M384.6,649.5c-8.2,4.1-15.5,2.3-13.2-3.2s12.6-10.7,18.5-9.2S392.9,645.4,384.6,649.5L384.6,649.5z"/>
		<path class="st7" d="M408.2,603c-5.4,8.5-13.4,11-14.3,4.4s5.9-17.2,12.2-19.2S413.6,594.4,408.2,603z"/>
		<path class="st7" d="M343.8,625.4c-3.7,2.2-7.8,0.4-7.4-3.1s5-6.2,8.3-4.9S347.5,623.2,343.8,625.4L343.8,625.4z"/>
		<path class="st4" d="M360.8,603.3c0,6.7-3.8,10.9-6.9,7.5s-3.1-11.7,0-15.1S360.8,596.6,360.8,603.3L360.8,603.3z"/>
		<path class="st4" d="M362.2,631.1c-2.2,2.2-5.3,1.7-5.7-0.8s2.3-5.2,4.9-4.9S364.4,628.9,362.2,631.1z"/>
		<path class="st7" d="M317.7,646.4c1.5,5.6-2.2,10.4-6.8,8.6s-6.4-8.8-3.4-12.7S316.2,640.8,317.7,646.4L317.7,646.4z"/>
		<path class="st4" d="M464.1,652.8c-5.3,2.5-10.8-0.3-9.8-5.1s7.6-8,12-5.7S469.5,650.2,464.1,652.8L464.1,652.8z"/>
	</g>
	<g>
		<polygon class="st4" points="1014.4,702.2 1056.7,703.4 1035.6,742.5 		"/>
		<polygon class="st4" points="956.5,730.4 994.6,725.1 982.1,749.3 		"/>
		<path class="st6" d="M1156.4,693.7c-20.1-20.1-32.7,4-32.7,4c-27-49-79.8-27.3-85.6,28.3c-14.8-39.3-58.9-29.5-56,17.1
			c-28.5-27.9-55.5-4.3-51.3,15.5C1074.7,772.2,1151.7,707.2,1156.4,693.7L1156.4,693.7z"/>
		<path class="st7" d="M1017.7,738.8c-3.8,11.8-16.2,16-22.3,7.5s-1.4-23.3,8.6-26.6S1021.5,726.9,1017.7,738.8z"/>
		<path class="st7" d="M1080.3,720c-12.9-5.1-17.8-16.5-8.7-20.5s25.2,2.4,29.1,11.5S1093.2,725.1,1080.3,720L1080.3,720z"/>
		<path class="st1" d="M1078.1,688.2c-4.8,3.2-9.8,2.1-9-1.8c0.8-4,6.7-8,10.7-7.1S1082.9,685,1078.1,688.2z"/>
		<path class="st1" d="M1059.3,746.4c-8.1,3.9-15.6,1.2-13.5-4.8s12.2-10.9,18.2-8.8C1070,735,1067.4,742.5,1059.3,746.4
			L1059.3,746.4z"/>
		<path class="st1" d="M952.1,754.3c-4.9,0-8-4.5-5.5-8.1s8.6-3.6,11,0S957,754.3,952.1,754.3z"/>
	</g>
	
		<linearGradient id="SVGID_1_" gradientUnits="userSpaceOnUse" x1="800" y1="383.05" x2="800" y2="971" gradientTransform="matrix(1 0 0 1 0 444)">
		<stop  offset="0" style="stop-color:#5D4DC4"/>
		<stop  offset="0.3" style="stop-color:#413494"/>
		<stop  offset="0.64" style="stop-color:#201A4F"/>
		<stop  offset="0.81" style="stop-color:#110E2D"/>
		<stop  offset="1" style="stop-color:#05040F"/>
	</linearGradient>
	<path class="st9" d="M1600,197.7v1247.2H0V281.1c0,0,6.3,9.2,16.8,24.4c20.6,29.7,57.1,82,93.1,131.5c8,11,15.7,21.5,23,31.7
		c42.5,59.1,71.9,105.1,63.7,143.6c0,0,11.4,31.5,104.8,47.3c1.7,0.3,3.4,0.5,5.1,0.8c60.1,8.8,133.6-3.7,206.4-10.3
		c10.3-0.9,20.5-1.8,30.7-2.4c0.2,0,0.4,0,0.6,0c0.8,0,1.6-0.1,2.4-0.2c2.5-0.1,5-0.3,7.6-0.4c1.3-0.1,2.5-0.1,3.8-0.2
		c8.9-0.4,17.7-0.6,26.4-0.6c1.2,0,2.5,0,3.7,0c13.9,0.2,27.5,0.9,40.8,2.4c106.4,12.4,227,105.4,325.1,108.9s174-40.3,206.9-70.8
		c18-16.7,32.4-27.3,48.2-33.5c13.1-5.1,27.2-7.2,45.1-7.2c0,0,27.3-47.8,61.3-103.8c18.8-30.9,39.6-64.4,58.9-93.8
		c2.2-3.3,4.3-6.5,6.4-9.7c25.2-37.7,56-85.2,92.3-129.6C1509.8,264.5,1552.1,222.9,1600,197.7L1600,197.7z"/>
	
		<linearGradient id="SVGID_00000027604211934509232130000015044330861702793110_" gradientUnits="userSpaceOnUse" x1="800" y1="383.04" x2="800" y2="971" gradientTransform="matrix(1 0 0 1 0 444)">
		<stop  offset="0" style="stop-color:#5D4DC4"/>
		<stop  offset="0.3" style="stop-color:#413494"/>
		<stop  offset="0.64" style="stop-color:#201A4F"/>
		<stop  offset="0.81" style="stop-color:#110E2D"/>
		<stop  offset="1" style="stop-color:#05040F"/>
	</linearGradient>
	<path style="fill:url(#SVGID_00000027604211934509232130000015044330861702793110_);" d="M1600,197.7v1247.2H0V281.1
		c0,0,6.3,9.2,16.8,24.4c20.6,29.7,57.1,82,93.1,131.5c8,11,15.7,21.5,23,31.7c42.5,59.1,71.9,105.1,63.7,143.6
		c0,0,11.4,31.5,104.8,47.3c1.7,0.3,3.4,0.5,5.1,0.8c60.1,8.8,133.6-3.7,206.4-10.3c10.3-0.9,20.5-1.8,30.7-2.4c0.2,0,0.4,0,0.6,0
		c0.8,0,1.6-0.1,2.4-0.2c2.5-0.1,5-0.3,7.6-0.4c1.3-0.1,2.5-0.1,3.8-0.2c8.9-0.4,17.7-0.6,26.4-0.6c1.2,0,2.5,0,3.7,0
		c13.9,0.2,27.5,0.9,40.8,2.4c106.4,12.4,227,105.4,325.1,108.9s174-40.3,206.9-70.8c18-16.7,32.4-27.3,48.2-33.5
		c13.1-5.1,27.2-7.2,45.1-7.2c0,0,27.3-47.8,61.3-103.8c18.8-30.9,39.6-64.4,58.9-93.8c2.2-3.3,4.3-6.5,6.4-9.7
		c25.2-37.7,56-85.2,92.3-129.6C1509.8,264.5,1552.1,222.9,1600,197.7L1600,197.7z"/>
	<path class="st1" d="M132.9,468.7c-20.9,25.8-74.4,9-72.6-94.1c0,0-44.9-4.3-43.6-69c20.6,29.7,57.1,82,93.1,131.4
		C117.9,447.9,125.6,458.5,132.9,468.7z"/>
	<path class="st1" d="M791.8,761.7c-26.5,3.5-44.7-6.5-32.7-18s45.1-15.9,59.6-7.9C833.2,743.8,818.2,758.2,791.8,761.7L791.8,761.7
		z"/>
	<path class="st1" d="M1546.9,338.2c-29.6,24.9-57.4,29.5-50,8.3s44.5-52.4,66.7-56.1C1585.8,286.7,1576.5,313.3,1546.9,338.2
		L1546.9,338.2z"/>
	<path class="st11" d="M97.7,420c-12.6,40.7-38.2,62.9-59.7,74.9c-13.9,7.7-27.5,12-37.9,14.4v-4.8c10.1-2.4,22.9-6.5,35.8-13.8
		c16.6-9.2,30.2-21.5,40.6-36.7c7.8-11.4,13.8-24.3,17.8-38.8C95.4,416.9,96.5,418.5,97.7,420L97.7,420z"/>
	<path class="st11" d="M112.4,440.3c-23.9,24.2-28.2,53-32.5,81.1c-3.5,23.5-6.9,45.7-22,62.3c-12.3,13.5-31,21.8-57.9,25.7v-4.7
		c25.4-3.7,43-11.6,54.4-24.1c14.2-15.6,17.5-37.1,20.9-59.8c4.2-27.8,8.8-58.6,34.3-84.2c0.1,0.1,0.2,0.3,0.3,0.4
		C110.7,438.1,111.6,439.2,112.4,440.3L112.4,440.3z"/>
	<path class="st11" d="M1578.3,383.2c0,6.2,4.3,10.2,9,14.4c3.2,2.9,6.5,5.9,8,9.8c2,4.9-2.6,11.4-9,20.5
		c-9.5,13.4-22.4,31.7-18,51.3c3,13.2,13.6,25.6,31.8,37v5.5c-20.8-12.5-33-26.4-36.3-41.4c-4.8-21.6,8.8-40.9,18.8-55
		c4.7-6.6,9.6-13.5,8.5-16c-1.1-2.8-3.9-5.4-6.9-8.1c-4.9-4.5-10.5-9.6-10.5-17.9c0-10,8.4-22.5,26.4-39v6.4
		C1585.4,364.5,1578.3,375.2,1578.3,383.2L1578.3,383.2z"/>
	<path class="st11" d="M1600.5,572.4c-0.2,0-0.3,0.1-0.5,0.1c-9.6,2.1-18.6,3-27,3c-39.5,0-67.6-20.5-94.9-40.4
		c-38.8-28.3-75.5-55-142.5-25.5c1.4-2.3,2.8-4.5,4.2-6.8c65.7-26.3,103.9,1.6,141,28.6c32.4,23.7,66,48.1,118.7,36.5l0.5,2.2
		L1600.5,572.4z"/>
	
		<linearGradient id="SVGID_00000142173999352988278850000002117354291000930180_" gradientUnits="userSpaceOnUse" x1="1263.85" y1="744.0009" x2="1263.85" y2="796.3459">
		<stop  offset="0" style="stop-color:#4030A3"/>
		<stop  offset="1" style="stop-color:#4030A3;stop-opacity:0"/>
	</linearGradient>
	<path style="fill:url(#SVGID_00000142173999352988278850000002117354291000930180_);" d="M1357.5,799.5l-2.3,0.5l-2.3,0.5
		c0,0-0.1-0.2-0.2-0.5c-0.9-3.1-6.3-18.9-23.6-33.9c-17.7-15.5-52-33.3-114.4-30.4l-2.1,0.1l-0.3-2c-0.1-0.5-8.6-50.6-42.1-55.3
		c1.5-1.3,3.1-2.6,4.6-3.8c13.1,3.2,24.1,13,32.2,28.8c5.9,11.6,8.7,23,9.6,27.6c35.3-1.4,83.3,3.2,115.9,31.9
		C1352.6,780.5,1357.3,798.7,1357.5,799.5z"/>
	
		<linearGradient id="SVGID_00000178922125474567889540000018389235468867407757_" gradientUnits="userSpaceOnUse" x1="749.55" y1="744.0009" x2="749.55" y2="796.3459">
		<stop  offset="0" style="stop-color:#4030A3"/>
		<stop  offset="1" style="stop-color:#4030A3;stop-opacity:0"/>
	</linearGradient>
	<path style="fill:url(#SVGID_00000178922125474567889540000018389235468867407757_);" d="M803.7,710.7
		c-32.8,3.8-59.7,20.4-80.2,49.4c-10.6,15-17,30.2-20.4,40c-2.2,6.4-3.2,10.5-3.2,10.6l-4.5-1c0.1-0.4,0.9-3.9,2.8-9.5
		c3.3-9.9,9.9-26.1,21.4-42.5c14.1-20.1,38.3-43.5,76.3-50.3C798.5,708.3,801.1,709.5,803.7,710.7L803.7,710.7z"/>
	
		<linearGradient id="SVGID_00000093882333142643631340000002046492348735033766_" gradientUnits="userSpaceOnUse" x1="340.2" y1="744.0009" x2="340.2" y2="796.3459">
		<stop  offset="0" style="stop-color:#4030A3"/>
		<stop  offset="1" style="stop-color:#4030A3;stop-opacity:0"/>
	</linearGradient>
	<path style="fill:url(#SVGID_00000093882333142643631340000002046492348735033766_);" d="M384.5,803.8l-4.6,0.3
		c0,0-0.1-1.6-0.7-4.2c-1.4-6.8-5.8-20.7-18.6-30.7c-14.6-11.4-35.8-14.8-62.9-10.2l-1.8-4.1c27.2-21.5,41.2-44.6,38.6-63.2
		c-1.8-12.7-11.2-23.3-28-31.4l0,0c4,0.6,8,1.1,12,1.5c12,8,18.9,17.8,20.5,29.3c2.6,18.7-9.6,41.1-33.9,62.2
		c24.7-2.9,44.3,1.2,58.4,12.3c14.6,11.5,19.1,27.2,20.4,34.3C384.3,802.2,384.4,803.6,384.5,803.8L384.5,803.8z"/>
	<path class="st15" d="M451.7,667c0,0-19,30.6-45.3,2.8c13.2,36.2-59.6,42.8-99.9-9.5c60.1,8.8,133.6-3.7,206.4-10.3
		C541.8,678.2,495.6,701.5,451.7,667L451.7,667z"/>
	<g>
		<path class="st1" d="M281,602.8l-17.7-14c-0.4-0.3-0.6-0.8-0.5-1.3s0.5-0.9,1-1.1l55-17.3c0.5-0.2,1.1,0,1.5,0.4s0.4,1,0.2,1.5
			c0,0.1-5.1,10.4-4.8,25h-2.8c-0.2-10.8,2.3-19.2,3.9-23.4l-49.6,15.6l15.7,12.4L281,602.8L281,602.8z"/>
		<path class="st4" d="M293,602.8l4.1-17.8l-15.8-1.2c-0.4,0-0.7-0.2-1-0.5s-0.3-0.7-0.3-1.1l3.7-26.8c-0.8,0.2-1.7,0.3-2.5,0.5
			c-9.3,1.7-18.9,3.4-23.4,0.1c-1.4-1-2.2-2.3-2.4-4.1l2.7-0.4c0.1,1,0.6,1.7,1.3,2.2c3.6,2.6,13.4,0.8,21.3-0.6
			c1.5-0.3,3-0.5,4.4-0.8c0.4-0.1,0.9,0.1,1.2,0.4c0.3,0.3,0.5,0.8,0.4,1.2L283,581l16,1.3c0.4,0,0.8,0.2,1,0.6
			c0.2,0.3,0.3,0.7,0.2,1.1l-4.5,19.4L293,602.8L293,602.8z"/>
		<path class="st4" d="M251.4,585.3l-1.2-2.5c11.2-5.4,18.2-19.2,18.3-19.3c0.2-0.4,0.6-0.7,1.1-0.8c0.5,0,1,0.2,1.2,0.6l11.4,16.3
			l23.5-27.2c0.4-0.5,1-0.6,1.6-0.4c0.6,0.2,0.9,0.8,0.9,1.4l-1.2,16.4l-2.8-0.2l0.9-12.2l-21.9,25.4c-0.3,0.3-0.7,0.5-1.1,0.5
			s-0.8-0.2-1.1-0.6l-11.2-15.9C267.5,571,261,580.8,251.4,585.3L251.4,585.3z"/>
		<path class="st16" d="M283.5,585.6c-5.5,0.3-9.2-4.4-6.7-8.5s9.4-4.5,12.3-0.7S288.9,585.3,283.5,585.6z"/>
		<path d="M283.3,581.5c-2.9-1.3-3.6-4.4-1.3-5.7s5.9,0.4,6.5,2.9S286.2,582.8,283.3,581.5L283.3,581.5z"/>
	</g>
	<g>
		<path class="st7" d="M15.5,560.4c-3.3-3.3-2.3-8.3,1.7-9s8.1,3.3,7.4,7.4S18.8,563.7,15.5,560.4L15.5,560.4z"/>
		<path class="st15" d="M864,767.6c-3.5,0.4-6-2.5-4.6-5.2s5.7-3.2,7.8-0.9S867.4,767.2,864,767.6L864,767.6z"/>
		<path class="st7" d="M18.6,588.6c-1-3.6,1-6.6,3.7-5.4s4,5.7,2.3,8.1S19.7,592.2,18.6,588.6z"/>
		<path class="st7" d="M157.4,635.6c-3.3-1.1-4.6-4.3-2.2-5.8s6.5,0,7.5,2.5S160.8,636.7,157.4,635.6z"/>
		<path class="st7" d="M229,744.7c-4,0-6.4-3-4.5-5.3s6.9-2.4,8.9,0S232.9,744.7,229,744.7L229,744.7z"/>
		<path class="st7" d="M161.4,726.5c-2.8-1.9-3.2-5.2-0.6-6s6.1,1.7,6.4,4.3S164.2,728.4,161.4,726.5L161.4,726.5z"/>
		<path class="st7" d="M379.7,749.8c-5.1,1-8.8-0.5-6.6-2.8s8.6-3.6,11.5-2.4S384.8,748.7,379.7,749.8L379.7,749.8z"/>
		<circle class="st7" cx="1404.9" cy="694" r="4.4"/>
		
			<ellipse transform="matrix(0.1971 -0.9804 0.9804 0.1971 438.5402 1963.5771)" class="st15" cx="1418.1" cy="714" rx="4.9" ry="7.3"/>
		
			<ellipse transform="matrix(0.1809 -0.9835 0.9835 0.1809 267.3127 1847.0959)" class="st7" cx="1242.6" cy="763.1" rx="3.3" ry="4.3"/>
	</g>
	<g>
		<path class="st7" d="M1342.1,541.3c-4,1.3-7.3,0-5.8-2.5c1.4-2.4,6.5-4.1,9.1-3S1346.2,540,1342.1,541.3z"/>
		<path class="st7" d="M1568.5,424.8c-4.9,1.9-9,0.4-7.4-2.6c1.6-3.1,7.8-5.4,11-4.2S1573.4,422.9,1568.5,424.8z"/>
		<path class="st15" d="M1536.6,379.4c-4,1.3-7.2-0.1-5.8-2.5s6.5-4,9-2.9S1540.6,378.2,1536.6,379.4L1536.6,379.4z"/>
		<path class="st7" d="M1496.4,401.5c-3.9,3.9-8.4,4.2-8.2,0.6s5.1-8.5,8.8-8.8S1500.3,397.6,1496.4,401.5z"/>
		<circle class="st15" cx="1455.6" cy="470.1" r="3.7"/>
	</g>
	<path class="st5" d="M1374.4,448.6c2.2-3.3,4.3-6.5,6.4-9.7c25.2-37.7,56-85.2,92.3-129.6l0,0
		C1495.6,433.6,1374.4,448.6,1374.4,448.6L1374.4,448.6z"/>
	<g>
		<path class="st11" d="M1400.5,545.4l-13.7,18.5C1406.4,570.6,1406.8,552.6,1400.5,545.4z"/>
		<path class="st6" d="M1393.4,558.8c-12.9,13.7-28.8,14.9-28.7,2.2s16.4-29.9,29.1-30.9C1406.6,529.1,1406.3,545,1393.4,558.8
			L1393.4,558.8z"/>
		<g>
			<path class="st8" d="M1393.4,558.8c-12.9,13.7-28.8,14.9-28.7,2.2s16.4-29.9,29.1-30.9C1406.6,529.1,1406.3,545,1393.4,558.8
				L1393.4,558.8z"/>
			<g>
				<path class="st3" d="M1388.6,542.6c-6.8,3.4-12.3,2.7-10.1-1.2s10.7-8.1,15.2-7.5S1395.4,539.2,1388.6,542.6L1388.6,542.6z"/>
				<path class="st1" d="M1397.9,552.8c-0.1-5.9-2.9-9.9-8.5-11.9c-7-2.5-15.3-0.6-17,1.4l-3-2.5c3-3.5,13.2-5.5,21.3-2.5
					c7,2.5,10.9,8,11,15.5H1397.9L1397.9,552.8z"/>
				<path class="st1" d="M1389.4,563.5c-0.1-0.6-3.6-14.5-23.6-11.1l-0.6-3.8c23.7-4,28,14,28.1,14.2L1389.4,563.5L1389.4,563.5z"/>
			</g>
		</g>
	</g>
	<g>
		<path class="st5" d="M1398.2,419.5c-0.4,0-0.8-0.1-1.2-0.4l-17.6-11.3c-1.1-0.7-1.4-2.1-0.7-3.2s2.1-1.4,3.2-0.7l17.6,11.3
			c1.1,0.7,1.4,2.1,0.7,3.2C1399.7,419.1,1398.9,419.5,1398.2,419.5L1398.2,419.5z"/>
		<path class="st11" d="M1433.8,440.9c-0.9,0-1.8-0.6-2.1-1.5l-5.5-14c-0.5-1.2,0.1-2.5,1.3-3s2.5,0.1,3,1.3l5.5,14
			c0.5,1.2-0.1,2.5-1.3,3C1434.3,440.9,1434,440.9,1433.8,440.9L1433.8,440.9z"/>
		<path class="st11" d="M1363.1,471.6c-0.7,0-1.4-0.3-1.8-0.9l-17.8-24c-0.8-1-0.5-2.5,0.5-3.2c1-0.8,2.4-0.5,3.2,0.5l17.8,24
			c0.8,1,0.5,2.5-0.5,3.2C1364,471.4,1363.5,471.6,1363.1,471.6L1363.1,471.6z"/>
		<path class="st11" d="M1391.6,480.4c-0.8,0-1.6-0.4-2-1.2l-6.5-11.7c-0.6-1.1-0.2-2.5,0.9-3.1s2.5-0.2,3.1,0.9l6.5,11.7
			c0.6,1.1,0.2,2.5-0.9,3.1C1392.4,480.3,1392,480.4,1391.6,480.4z"/>
		<path class="st17" d="M1441.7,405L1441.7,405c-1.3,0-2.3-1.1-2.3-2.3l0.2-12.8c0-1.2,1.1-2.2,2.3-2.2c0,0,0,0,0.1,0
			c1.3,0,2.3,1.1,2.2,2.3l-0.2,12.8C1444,404,1442.9,405,1441.7,405z"/>
		<path class="st6" d="M1431.6,426.5c-0.6,0.5-1.3,0.9-2,1.3c-0.7,0.4-1.3,0.8-2,1.1c-4.7,2.4-9.1,3.2-12.5,2.8
			c-1.8-0.2-3.4-0.8-4.4-1.8c-1.5-1.4-2.1-3.5-1.3-6.2c2.3-7.8,14.1-15.5,23-15.8c1.1,0,2.1,0,3.1,0.2c0.8,0.2,1.5,0.4,2.1,0.7
			C1443.4,411.7,1440.6,420.3,1431.6,426.5z"/>
		<path class="st18" d="M1439.5,391.1c-8.4-0.2-13.6-5.1-9.3-8.8c4.3-3.8,14.8-3.5,18.9,0.4S1447.9,391.3,1439.5,391.1L1439.5,391.1
			z"/>
		<path class="st4" d="M1386.8,398.8c-0.1,2.3-0.5,4.9-1.2,7.5c-0.1,0.3-0.1,0.5-0.2,0.8c-0.4,1.3-0.8,2.6-1.3,3.7
			c-4.9,12.5-14.7,17.5-19,8.9c-1.1-2.2-1.6-4.9-1.7-7.8c-0.1-1.7,0-3.4,0.3-5.2c1.1-8.5,5.3-17.4,11.1-21
			c6.1-3.8,10.8,0.4,11.9,8.1C1386.8,395.4,1386.9,397,1386.8,398.8z"/>
		<path class="st18" d="M1348,445.1c-0.8,0.2-1.7,0.4-2.6,0.6c-0.8,0.1-1.5,0.2-2.3,0.3c-1.7,0.2-3.3,0.2-4.8,0.2
			c-1.8-0.1-3.4-0.4-4.8-0.8c-5.6-1.7-8.1-5.6-4.7-10.1c3.3-4.3,10.5-7,17.4-7.4c1.8-0.1,3.6,0,5.3,0.2c2.2,0.3,4.2,1,5.9,2
			C1364.2,434.4,1359,442.1,1348,445.1z"/>
		<path class="st18" d="M1387.2,469.1c-6.8,6.5-14.7,6.7-14.3,0.4c0.4-6.3,8.8-14.5,15.2-14.6
			C1394.4,454.7,1393.9,462.6,1387.2,469.1L1387.2,469.1z"/>
		<path class="st18" d="M1422.3,451c-3.5,2.6-7.8,1.5-7.7-2c0.1-3.5,4.5-6.8,7.9-5.9S1425.8,448.4,1422.3,451L1422.3,451z"/>
		<path class="st18" d="M1399.1,446.2c-7.2-1.2-10.8-7.6-6.4-11.5c4.3-4,13.3-2.5,16.2,2.6S1406.3,447.4,1399.1,446.2L1399.1,446.2z
			"/>
		<path class="st1" d="M1406,390.5c-0.1,5-4.2,8.1-7.3,5.5c-3.1-2.6-2.9-8.9,0.3-11.4S1406.1,385.5,1406,390.5z"/>
		<path class="st18" d="M1377.6,439.9c-7.2,1.7-12.7-1.4-9.8-5.5c2.9-4.1,11.9-6.2,16.3-3.7S1384.8,438.2,1377.6,439.9L1377.6,439.9
			z"/>
		<path class="st1" d="M1349.8,420.6c-7.1,2.5-13.1-0.5-10.8-5.4c2.2-4.9,11.1-8,15.9-5.6C1359.7,412.1,1356.9,418.2,1349.8,420.6
			L1349.8,420.6z"/>
		<path class="st1" d="M1395.9,375.6c-6.1,4-13.5,1-13.3-5.4s7.8-11.4,13.8-9S1402,371.6,1395.9,375.6z"/>
		<path class="st4" d="M1419.9,381.6c-6.1,1.7-11.5-2.6-9.7-7.9s9.4-7.4,13.7-3.9S1426,379.8,1419.9,381.6L1419.9,381.6z"/>
		<path class="st18" d="M1443.9,369.6c-6.4-4.2-7.9-10.5-2.8-11.4s13.1,4.3,14.3,9.4S1450.3,373.7,1443.9,369.6L1443.9,369.6z"/>
		<path class="st4" d="M1426.1,359.3c-5.9,1.4-10.7-2.3-8.6-6.6c2.1-4.4,9.5-6.1,13.3-3.2S1432,357.9,1426.1,359.3L1426.1,359.3z"/>
		<g>
			<path class="st8" d="M1386.8,398.8c-0.1,2.3-0.5,4.9-1.2,7.5c-0.1,0.3-0.1,0.5-0.2,0.8c-0.4,1.3-0.8,2.6-1.3,3.7
				c-4.9,12.5-14.7,17.5-19,8.9c-1.1-2.2-1.6-4.9-1.7-7.8c-0.1-1.7,0-3.4,0.3-5.2c1.1-8.5,5.3-17.4,11.1-21
				c6.1-3.8,10.8,0.4,11.9,8.1C1386.8,395.4,1386.9,397,1386.8,398.8z"/>
			<g>
				<path class="st1" d="M1386.8,398.8l-23.4,13.1c-0.1-1.7,0-3.4,0.3-5.2l22.9-12.9C1386.8,395.4,1386.9,397,1386.8,398.8z"/>
			</g>
		</g>
		<g>
			<path class="st8" d="M1348,445.1c-0.8,0.2-1.7,0.4-2.6,0.6c-0.8,0.1-1.5,0.2-2.3,0.3c-1.7,0.2-3.3,0.2-4.8,0.2
				c-1.8-0.1-3.4-0.4-4.8-0.8c-5.6-1.7-8.1-5.6-4.7-10.1c3.3-4.3,10.5-7,17.4-7.4c1.8-0.1,3.6,0,5.3,0.2c2.2,0.3,4.2,1,5.9,2
				C1364.2,434.4,1359,442.1,1348,445.1z"/>
			<g>
				<path class="st1" d="M1351.4,428.1l-13.1,18.1c-1.8-0.1-3.4-0.4-4.8-0.8l12.7-17.5C1348,427.8,1349.8,427.9,1351.4,428.1z"/>
			</g>
		</g>
		<g>
			<path class="st8" d="M1431.6,426.5c-0.6,0.5-1.3,0.9-2,1.3c-0.7,0.4-1.3,0.8-2,1.1c-4.7,2.4-9.1,3.2-12.5,2.8
				c-1.8-0.2-3.4-0.8-4.4-1.8c-1.5-1.4-2.1-3.5-1.3-6.2c2.3-7.8,14.1-15.5,23-15.8c1.1,0,2.1,0,3.1,0.2c0.8,0.2,1.5,0.4,2.1,0.7
				C1443.4,411.7,1440.6,420.3,1431.6,426.5z"/>
			<g>
				<path class="st1" d="M1437.6,408.8l-22.6,22.9c-1.8-0.2-3.4-0.8-4.4-1.8l21.7-22.1c1.1,0,2.1,0,3.1,0.2
					C1436.3,408.3,1437,408.5,1437.6,408.8z"/>
			</g>
		</g>
	</g>
	<g>
		<path class="st4" d="M597,653.3c-0.9-0.2-1.5-1-1.4-1.9c1.9-24.3,8.4-37.2,14.1-39.3c1.7-0.6,3.2-0.2,4.4,0.9
			c2.4,2.5,2.1,8.2-0.7,15.2c-0.4,0.9-1.4,1.4-2.4,1c-0.9-0.4-1.4-1.4-1-2.4c2.7-6.6,2.3-10.5,1.5-11.3c-0.1-0.1-0.2-0.2-0.5,0
			c-2.4,0.8-9.6,9.3-11.7,36.1c-0.1,1-1,1.8-2,1.7C597.1,653.3,597,653.3,597,653.3L597,653.3z"/>
		<path class="st4" d="M586.7,651.5L586.7,651.5c-1-0.2-1.6-1.2-1.4-2.2c0-0.2,5.3-22.8-1.4-35.6c-1.3-2.6-3.4-5.4-5.4-8
			c-1.9-2.5-3.6-4.9-4.8-7.1c-2.3-4.3-2.3-8.9-0.1-12.2c1.8-2.7,5-4.1,8.6-3.8c9.8,0.9,14.9,11.3,16.8,16.3l8-6.8
			c0.8-0.7,1.9-0.6,2.6,0.2c0.7,0.8,0.6,1.9-0.2,2.6l-10.1,8.5c-0.5,0.4-1.1,0.5-1.7,0.3c-0.6-0.2-1-0.7-1.2-1.2
			c0-0.2-4.4-15.3-14.5-16.2c-2.3-0.2-4.2,0.6-5.3,2.2c-1.4,2.1-1.3,5.4,0.3,8.5c1,2,2.7,4.2,4.5,6.7c2,2.8,4.2,5.7,5.7,8.5
			c7.3,14,1.9,37.2,1.7,38.1C588.6,651.1,587.7,651.7,586.7,651.5L586.7,651.5z"/>
		<path class="st4" d="M582.8,651c-0.9-0.2-1.5-1-1.4-1.9c1.9-24.8-4-26.1-11.6-27.7c-8.3-1.8-18.7-4-21.1-33.4l-12.2,2.1
			c-1,0.2-1.9-0.5-2.1-1.5c-0.2-1,0.5-1.9,1.5-2.1l14.2-2.5c0.5-0.1,1,0,1.4,0.4s0.7,0.8,0.7,1.3c1.8,28.5,10.2,30.3,18.4,32.1
			c10,2.2,16.5,5.5,14.5,31.6c-0.1,1-1,1.8-2,1.7C582.9,651,582.8,651,582.8,651L582.8,651z"/>
		<path class="st4" d="M577.9,650.5c-0.8-0.2-1.5-1-1.4-1.8c0.3-7.5-1.2-13.1-4.4-16.3c-2.1-2-4.8-2.9-8.1-2.7
			c-2.1,0.2-4.6,1.6-7.1,3.1c-3.9,2.3-8,4.6-11.7,2.7c-3.3-1.7-5.2-6.5-6-15.3c-0.1-1,0.7-1.9,1.6-2c1-0.1,1.9,0.7,2,1.6
			c0.8,9,2.7,11.7,4,12.4c1.9,1,5.1-0.9,8.2-2.7c2.8-1.6,5.8-3.3,8.7-3.5c4.3-0.3,8,0.9,10.9,3.7c4,3.9,5.9,10.4,5.5,19
			c0,1-0.9,1.8-1.9,1.7C578.1,650.6,578,650.5,577.9,650.5L577.9,650.5z"/>
	</g>
	<path class="st1" d="M1315.5,542.3c-2.3,109.3-77.2,133.7-106.4,111l0,0c13.1-5.1,27.2-7.2,45.1-7.2
		C1254.2,646.1,1281.6,598.4,1315.5,542.3z"/>
	<g>
		<path class="st15" d="M682.3,690.8c-15.9-4.5-24.8-11.7-16-12.9s28.7,4.5,35.8,10.2S698.3,695.3,682.3,690.8z"/>
		<path class="st15" d="M643.6,715c-17.5-2.6-28-8.9-18.7-11.4s31.2,0.7,39.5,5.8C672.7,714.5,661.1,717.6,643.6,715z"/>
		<path class="st15" d="M696.9,736.2c-15.3-3.5-24.1-9.9-15.8-11.4c8.3-1.6,27.5,2.8,34.5,7.9S712.2,739.7,696.9,736.2L696.9,736.2z
			"/>
		<path class="st15" d="M739.1,703.2c-11.5-5.8-17.2-12.5-10.4-12s21.1,7.6,25.8,13S750.5,708.9,739.1,703.2L739.1,703.2z"/>
		<path class="st15" d="M707.6,712.1c-8-3.5-12.2-7.9-7.5-7.9s14.7,4.5,18,8S715.6,715.6,707.6,712.1z"/>
		<path class="st15" d="M654,692.7c-7.7-3.2-11.7-7.2-7.3-7.3s14,3.9,17.2,7.1C667.2,695.8,661.7,695.9,654,692.7L654,692.7z"/>
		<path class="st15" d="M648.2,666.4c-6-1.7-9.3-4.8-5.8-5.8s10.9,1.2,13.5,3.7S654.3,668.1,648.2,666.4L648.2,666.4z"/>
		<path class="st15" d="M617.2,745.2c-12-2.7-18.9-7.7-12.4-8.9s21.5,2.1,27,6.1S629.2,747.9,617.2,745.2L617.2,745.2z"/>
	</g>
	<g>
		<path class="st15" d="M219.4,699.4c-5.9,0-9.7-4.7-6.7-8.5s10.4-3.8,13.4,0S225.3,699.4,219.4,699.4z"/>
		<path class="st7" d="M197,688c-3.6,0-5.8-2.9-4-5.2s6.3-2.3,8.1,0S200.6,688,197,688z"/>
	</g>
	<path class="st19" d="M1136.3,753.7c6.9-11.5,15.5-3.8,17.8-0.3c6.4-8.1,13.9,0.3,13.9,0.3"/>
	<g>
		<path class="st20" d="M1302.3,657.4c-23,2.7-27.7,29.5-49.4,35.2"/>
		<path class="st7" d="M1286.7,700.6c12.8-0.1,25.6-3.2,25.6-3.2c-7.1-36.3-23.5-28.6-24.6-18.9L1286.7,700.6L1286.7,700.6z"/>
		<path class="st20" d="M1348.7,705.3c-20.5-59.6-70.4-70.5-60.8,3.9"/>
	</g>
	<g>
		<path class="st21" d="M448.9,738.5c-3.2,18.3,35.8,15.4,52.6,3.8c1.8-1.2,4.1-1.1,5.9,0.2c15.6,11.6,58.7-12.4,58.7-12.4
			C506.2,714.9,448.9,738.5,448.9,738.5L448.9,738.5z"/>
		<g>
			<path class="st1" d="M566,730.1c-34.3-41.4-45-35.2-55.7-28.4s-12.8,1-19.3,0.9c-6.5-0.2-14.9,12.3-19.4,19s-19.7,6.2-22.7,16.8
				c-1.1,3.8,42.5,5.9,56.8-4.8C530.1,739,566,730.1,566,730.1L566,730.1z"/>
			<path class="st6" d="M492.9,727.8c-3.9,4.4-8.7,5.1-8.6,1.2s4.9-9.3,8.8-9.9C496.9,718.5,496.8,723.4,492.9,727.8z"/>
			<g>
				<path class="st8" d="M566,730.1c-34.3-41.4-45-35.2-55.7-28.4s-12.8,1-19.3,0.9c-6.5-0.2-14.9,12.3-19.4,19s-19.7,6.2-22.7,16.8
					c-1.1,3.8,42.5,5.9,56.8-4.8C530.1,739,566,730.1,566,730.1L566,730.1z"/>
				<g>
					<path class="st22" d="M504.5,737c19.6-14.8,29.8-38.6,17.9-42.4"/>
				</g>
			</g>
		</g>
	</g>
</g>
<g>
	<g>
		<path class="st7" d="M1600,466.6v111.2c-19.9,21.4-12.3,35.8,0,83.9v71.1c0,0-17.9-48.4-30.4-81.2c-12.6-32.8-20.2-31.8-43.7-26.2
			c-7.8,1.9-20.4,4.9-35.4,8.3c-30.1,7-69.7,15.7-99.2,20.3c-3.1,0.5-5.8,0.7-8.2,0.7C1348,654.2,1395.9,596.3,1600,466.6
			L1600,466.6z"/>
		<path class="st1" d="M1600,466.6v98c-44,35-62.3,53.2-109.6,69c-12.6,2.9-26.9,6.1-41.5,9.3c-20.1,4.3-40.6,8.4-57.7,11.1
			c-3.1,0.5-5.8,0.7-8.2,0.7c-34.2-0.4,10.5-55.5,201.9-178.5l0,0C1589.9,473,1594.9,469.9,1600,466.6L1600,466.6z"/>
		<g>
			<path class="st8" d="M1600,466.6v98l-1.5,1.2c-6.6,5.2-12.6,10.1-18.2,14.7c-1.4,1.1-2.8,2.2-4.1,3.3c-6.3,5.1-12.2,9.7-17.9,14
				c-1.4,1.1-2.9,2.1-4.3,3.2c-5.2,3.8-10.3,7.3-15.6,10.5c-1.5,1-3.1,1.9-4.7,2.8c-2.3,1.3-4.6,2.6-6.9,3.9
				c-1.7,0.9-3.5,1.8-5.3,2.8c-1.6,0.8-3.3,1.6-5,2.4c-1.9,0.9-3.8,1.7-5.8,2.6h0c-6.2,2.7-12.9,5.2-20.4,7.7
				c-0.3,0.1-0.7,0.2-1.1,0.2c-2.6,0.6-5.2,1.2-7.8,1.8h0c-7.8,1.8-16.1,3.7-24.5,5.5h0c-2.4,0.5-4.9,1.1-7.3,1.6h0
				c-20.3,4.4-41.1,8.5-58.4,11.2c-3.1,0.5-5.8,0.7-8.2,0.7C1348,654.2,1395.9,596.3,1600,466.6z"/>
			<g>
				<g>
					<path class="st4" d="M1489.3,633.8c-2.6,0.6-5.2,1.2-7.8,1.8h0l-50.1-22.7l2-4.5L1489.3,633.8z"/>
					<path class="st4" d="M1538.5,611.5c-1.5,1-3.1,1.9-4.7,2.8l-55-35.4l2.6-4.1L1538.5,611.5z"/>
					<path class="st4" d="M1580.3,580.4c-1.4,1.1-2.8,2.2-4.1,3.3l-56-32.5l2.5-4.2L1580.3,580.4z"/>
					<polygon class="st4" points="1600,560.9 1600,564.6 1598.5,565.8 1568,546.7 1570.6,542.5 					"/>
					<polygon class="st4" points="1600,548.3 1600,553.9 1576.1,540.7 1578.5,536.4 					"/>
					<path class="st4" d="M1558.3,597.8c-1.4,1.1-2.9,2.1-4.3,3.2l-46.1-26.5l2.4-4.2L1558.3,597.8z"/>
					<path class="st4" d="M1526.9,618.2c-1.7,0.9-3.5,1.8-5.3,2.8l-50.3-26.5l2.3-4.3L1526.9,618.2z"/>
					<path class="st4" d="M1516.6,623.3c-1.9,0.9-3.8,1.7-5.8,2.6h0l-44.9-22.8l2.2-4.4L1516.6,623.3z"/>
					<path class="st4" d="M1456.9,641.1c-2.4,0.5-4.9,1.1-7.3,1.6h0l-25-13.6l2.3-4.3L1456.9,641.1z"/>
				</g>
			</g>
		</g>
		<path class="st7" d="M1600,474.4v51.1c-9.9,47-62.1,32.5-62.1,32.5c-10.2,41.7-35.5,29.1-35.5,29.1c-7.1,34.5-45.8,34.5-45.8,34.5
			c1.3,8.5-2,15.6-7.6,21.3c-20.1,4.3-40.6,8.4-57.7,11.1c-3.1,0.5-5.8,0.7-8.2,0.7c-34.2-0.4,10.5-55.5,201.9-178.5l0,0
			C1585.5,476.1,1592.3,474.8,1600,474.4L1600,474.4z"/>
		<g>
			<path class="st1" d="M1600,466.6V498c0,31.4-21.1,66.2-72.4,53.6c-4.1,22.1-23,37.2-41.3,27.7c-11,21.9-16.6,41-47.8,33.8
				c-10.7,24.9-7.7,30.2-41.7,32.1c0,0-4,9.6-13.8,9.5C1348,654.2,1395.9,596.3,1600,466.6L1600,466.6z"/>
			<g>
				<path class="st5" d="M1563.5,538.3c-12,6.2-22.5,4.4-18.8-3.2c3.7-7.7,18.7-15.4,27-14S1575.5,532.1,1563.5,538.3L1563.5,538.3z
					"/>
				<path class="st5" d="M1466.9,582.7c-13.5,13-26.3,16.6-23,6.5s20.2-26.4,30.4-29.3S1480.5,569.6,1466.9,582.7z"/>
				<path class="st5" d="M1508.1,561.5c-4.6,4.6-10.3,4.5-10.4-0.1s5.7-10.3,10.3-10.3C1512.6,551.1,1512.7,556.9,1508.1,561.5
					L1508.1,561.5z"/>
				<path class="st5" d="M1404,628.5c-7.4,7.5-15,9.2-13.7,3.1s10.7-15.4,16.8-16.8C1413.2,613.4,1411.5,621,1404,628.5L1404,628.5z
					"/>
				<path class="st5" d="M1533.2,527.4c-4.9,4.9-10,6.1-9.1,2.1s7.1-10.2,11.1-11.1S1538.1,522.5,1533.2,527.4L1533.2,527.4z"/>
				<path class="st5" d="M1588.9,498.9c-10.7,8.4-20.8,9.4-18,1.8s16.2-18,24.2-18.9S1599.7,490.5,1588.9,498.9z"/>
			</g>
		</g>
	</g>
	<g>
		<g>
			<path class="st11" d="M1576.3,258c-3.7,1.6-7.3,3-10.8,4.2c-35,11.9-63.7,5.1-80.6-8.2c-1.1-0.9-2.2-1.8-3.2-2.7l-0.1-0.1
				c-6.9-6.4-11.4-14-12.9-21.6c-0.7-3.4-0.8-6.2-0.4-8.5c0.2-0.9,0.4-1.8,0.7-2.6c0.2-0.4,0.4-0.8,0.6-1.2
				c7.1-11.4,37.2,4.1,60.7,16.9c10.7,5.8,23,12.2,34.3,17.9c2.5,1.3,4.9,2.5,7.3,3.7l0,0h0.1l0,0c1.3,0.6,2.5,1.3,3.7,1.9
				C1575.9,257.8,1576.1,257.9,1576.3,258L1576.3,258z"/>
			<path class="st7" d="M1600,245.1v24.5c0,0-20.9-0.6-34.5-7.4C1573.2,258.8,1591.3,251.2,1600,245.1L1600,245.1z"/>
			<path class="st23" d="M1571.9,255.8c-1.5,0.1-3.4,0.1-5.8,0.1c-11.9,0-33.9-1.6-58.4-11.5c-1.6-0.6-3.2-1.3-4.8-2.1
				c-11.4-5-23.1-11.9-34.6-21.2c0.2-0.9,0.4-1.8,0.7-2.6c0.2-0.4,0.4-0.8,0.6-1.2c36.5,30.2,76.5,34.6,95,34.8
				C1567.1,253.4,1569.5,254.6,1571.9,255.8L1571.9,255.8z"/>
			<path class="st23" d="M1508,244.2l-0.3,0.1l-22.8,9.6c-1.1-0.9-2.2-1.8-3.2-2.7l21.2-9l3.8-1.6L1508,244.2L1508,244.2z"/>
			<path class="st8" d="M1576.3,258c-3.7,1.6-7.3,3-10.8,4.2c-35,11.9-63.7,5.1-80.6-8.2c-1.1-0.9-2.2-1.8-3.2-2.7l-0.1-0.1
				c-6.9-6.4-11.4-14-12.9-21.6c-0.7-3.4-0.8-6.2-0.4-8.5c0.2-0.9,0.4-1.8,0.7-2.6c0.2-0.4,0.4-0.8,0.6-1.2
				c7.1-11.4,37.2,4.1,60.7,16.9c10.7,5.8,23,12.2,34.3,17.9c2.5,1.3,4.9,2.5,7.3,3.7l0,0h0.1l0,0c1.3,0.6,2.5,1.3,3.7,1.9
				C1575.9,257.8,1576.1,257.9,1576.3,258L1576.3,258z"/>
		</g>
		<path class="st11" d="M1600,224.2c-54.6-55.7-79.3-15.7,0,8.1V224.2L1600,224.2z"/>
		<g>
			<path class="st7" d="M1600,284.4v8.8c-0.9,0.5-1.8,1-2.7,1.4c-53.3,27.7-123.8,32.4-113.9,16.9c1.7-2.7,4.5-5.3,8.3-7.7
				c2.2-1.4,4.7-2.7,7.4-4C1519.6,290.4,1556.4,284.4,1600,284.4L1600,284.4z"/>
			<path class="st11" d="M1600,290.5v2.7c-0.9,0.5-1.8,1-2.7,1.4c-9.3-1-19.9,1-32.8,3.5c-15.2,2.9-33.4,6.4-56.5,6.4
				c-5.2,0-10.7-0.2-16.4-0.6c2.2-1.4,4.7-2.7,7.4-4c27,1,47.7-2.9,64.6-6.1C1578,291,1589.6,288.9,1600,290.5z"/>
			<path class="st8" d="M1600,284.4v8.8c-0.9,0.5-1.8,1-2.7,1.4c-53.3,27.7-123.8,32.4-113.9,16.9c1.7-2.7,4.5-5.3,8.3-7.7
				c2.2-1.4,4.7-2.7,7.4-4C1519.6,290.4,1556.4,284.4,1600,284.4L1600,284.4z"/>
		</g>
	</g>
	<g>
		<g>
			<path class="st6" d="M1600,721.2v23.1c-5.1-1.8-10-3.5-14.6-5.2c-1.3-0.5-2.6-1-3.9-1.4c-5.3-2-10.3-3.9-14.8-5.7
				c-1.4-0.6-2.7-1.1-4-1.6c-1.8-0.8-3.5-1.5-5.2-2.1c-1.4-0.6-2.8-1.2-4-1.7c-7.7-3.3-12.9-5.9-15.4-7.3c-0.2-0.1-0.4-0.2-0.6-0.3
				c-5-3,7.9-55.9,11.7-43.5c0.3,0.8,0.8,1.8,1.5,2.9c2.2,3.4,6.5,7.9,11.8,12.8c1.5,1.4,3,2.8,4.7,4.2c1.1,1,2.3,2,3.5,3
				c1.4,1.2,2.8,2.4,4.2,3.5c4.4,3.7,9.1,7.3,13.4,10.7c1.4,1.1,2.7,2.1,4,3C1595.1,717.7,1597.7,719.5,1600,721.2z"/>
			<path class="st24" d="M1549.3,675.5c0.6,0.7,1.1,1.7,1.5,2.9c3.6,11.8-3.5,45.4-12.6,40.9c-0.2-0.1-0.4-0.2-0.6-0.3
				C1532.6,716,1545.5,663.1,1549.3,675.5L1549.3,675.5z"/>
			<path class="st1" d="M1548.1,701.1c-1.1,9.2-4.2,14.6-5.5,9.8s0.1-16.3,2.5-20.7C1547.5,685.9,1549.2,691.9,1548.1,701.1
				L1548.1,701.1z"/>
			<g>
				<path class="st8" d="M1600,721.2v23.1c-5.1-1.8-10-3.5-14.6-5.2c-1.3-0.5-2.6-1-3.9-1.4c-5.3-2-10.3-3.9-14.8-5.7
					c-1.4-0.6-2.7-1.1-4-1.6c-1.8-0.8-3.5-1.5-5.2-2.1c-1.4-0.6-2.8-1.2-4-1.7c-7.7-3.3-12.9-5.9-15.4-7.3c-0.2-0.1-0.4-0.2-0.6-0.3
					c-5-3,7.9-55.9,11.7-43.5c0.3,0.8,0.8,1.8,1.5,2.9c2.2,3.4,6.5,7.9,11.8,12.8c1.5,1.4,3,2.8,4.7,4.2c1.1,1,2.3,2,3.5,3
					c1.4,1.2,2.8,2.4,4.2,3.5c4.4,3.7,9.1,7.3,13.4,10.7c1.4,1.1,2.7,2.1,4,3C1595.1,717.7,1597.7,719.5,1600,721.2z"/>
				<g>
					<g>
						<path class="st1" d="M1567.3,696.5c0,6.1-1.4,13.9-3.2,19.4c-1.3,4.3-3.4,9.3-6.5,12.4c-1.4-0.6-2.8-1.2-4-1.7
							c2.4-1.6,4.9-5.8,6.7-11.9c3.4-11.1,3.4-20.8,2.3-23.5c1.5,1.4,3,2.8,4.7,4.2C1567.3,695.8,1567.3,696.1,1567.3,696.5z"/>
						<path class="st1" d="M1575,703.7c0,8.1-2.3,18.6-5.8,24.9c-0.8,1.4-1.6,2.5-2.4,3.4c-1.4-0.6-2.7-1.1-4-1.6
							c1-0.7,2.1-2,3.1-3.7c4.4-7.8,6.3-21.8,4.8-28.3c1.4,1.2,2.8,2.4,4.2,3.5C1575,702.5,1575,703.1,1575,703.7z"/>
						<path class="st1" d="M1592.4,715.6c0,5.9-1.1,16.2-7,23.5c-1.3-0.5-2.6-1-3.9-1.4c7-7.7,7.1-20.8,6.9-25.1
							C1589.8,713.7,1591.1,714.7,1592.4,715.6z"/>
					</g>
				</g>
			</g>
		</g>
		<g>
			<path class="st1" d="M1600,754v31.4c0,0-2.1-0.5-5.6-1.2c-1.1-0.3-2.4-0.6-3.8-0.9c-4.4-1-10.1-2.2-16.5-3.7
				c-1.2-0.3-2.5-0.6-3.7-0.8c-1.8-0.4-3.6-0.8-5.5-1.2c-1.2-0.3-2.5-0.6-3.8-0.8c-2-0.5-4-0.9-6-1.4c-1.3-0.3-2.7-0.6-4-0.9
				c-0.7-0.2-1.4-0.3-2-0.5c-0.9-0.2-1.8-0.4-2.6-0.6c-1.7-0.4-3.3-0.7-5-1.1c-1.1-0.2-2.2-0.5-3.3-0.7c0,0,0,0,0,0
				c-4.5-1-8.9-2-13.2-3c-5.5-1.2-10.7-2.4-15.3-3.4c-1.3-0.3-2.6-0.6-3.9-0.9c-7.6-1.7-13.1-2.9-15.1-3.4c-0.1,0-0.2-0.1-0.4-0.1
				c-0.1,0-0.2-0.1-0.2-0.1c0,0-0.1,0-0.1-0.1c-0.1-0.1-0.2-0.1-0.3-0.2c-0.2-0.1-0.4-0.3-0.6-0.5c-0.1-0.1-0.1-0.1-0.2-0.2
				c-0.1-0.1-0.2-0.2-0.2-0.3c-0.1-0.1-0.2-0.2-0.3-0.4c0,0-0.1-0.1-0.1-0.1c0,0,0,0,0,0c-0.1-0.1-0.2-0.3-0.3-0.5
				c-0.1-0.1-0.1-0.2-0.2-0.4c0,0,0,0,0,0c0,0-0.1-0.1-0.1-0.2c-0.1-0.2-0.1-0.3-0.2-0.5c-0.1-0.1-0.1-0.2-0.1-0.3c0,0,0-0.1,0-0.1
				c-0.1-0.1-0.1-0.3-0.2-0.4c-0.1-0.3-0.2-0.6-0.3-0.9c-0.1-0.2-0.1-0.4-0.2-0.6c-0.1-0.2-0.1-0.5-0.2-0.7v0c0-0.1,0-0.2-0.1-0.3
				c0,0,0-0.1,0-0.1c0-0.1,0-0.2-0.1-0.3c0-0.1,0-0.2-0.1-0.3c-0.1-0.3-0.1-0.6-0.2-0.9s-0.1-0.6-0.2-1c0-0.2-0.1-0.5-0.1-0.8
				c0-0.3-0.1-0.5-0.1-0.8c0-0.3-0.1-0.6-0.1-0.9c0-0.1,0-0.1,0-0.2c0-0.2,0-0.5-0.1-0.7c0-0.3-0.1-0.6-0.1-0.8v0
				c0-0.3,0-0.6-0.1-0.9c-1.1-17.2,3.1-43.3,7.6-41.9c0.1,0,0.2,0,0.2,0.1c0.1,0,0.2,0.1,0.3,0.1c0.2,0.1,0.4,0.1,0.6,0.2
				c0.2,0.1,0.5,0.2,0.7,0.3c0.1,0.1,0.3,0.1,0.4,0.2c3.1,1.4,8.4,4.3,15.5,8.1c0.8,0.4,1.6,0.9,2.4,1.3c0.6,0.3,1.1,0.6,1.7,0.9
				c0,0,0.1,0,0.1,0.1c1.7,0.9,3.4,1.8,5.3,2.8l1.1,0.6c0.4,0.2,0.8,0.4,1.2,0.6c0.4,0.2,0.8,0.4,1.2,0.6c3.2,1.7,6.5,3.4,10.1,5.2
				c0.8,0.4,1.5,0.8,2.3,1.2c5.6,2.8,11.6,5.7,17.9,8.6c0.3,0.2,0.7,0.3,1,0.5c1.5,0.7,3,1.3,4.5,2
				C1572,743.2,1585.6,748.9,1600,754z"/>
			<path class="st6" d="M1554.1,735.2c-17,0.3-24.6,9.7-29.2,33.3c-5.5-1.2-10.7-2.4-15.3-3.4c-1.3-0.3-2.6-0.6-3.9-0.9
				c-6.9-1.5-12.1-2.7-14.4-3.2c-0.3-0.1-0.5-0.1-0.7-0.2c-2-0.4-3.4-3.1-4.2-7.1c0-0.1,0-0.2-0.1-0.3c-0.1-0.3-0.1-0.6-0.2-0.9
				s-0.1-0.6-0.2-1c0-0.2-0.1-0.5-0.1-0.8c0-0.3-0.1-0.5-0.1-0.8c0-0.3-0.1-0.6-0.1-0.9c0-0.1,0-0.1,0-0.2c0-0.2,0-0.5-0.1-0.7
				c0-0.3-0.1-0.6-0.1-0.8v0c0-0.3,0-0.6-0.1-0.9c-1.1-17.2,3.1-43.3,7.6-41.9c0.1,0,0.2,0,0.2,0.1c0.1,0,0.2,0.1,0.3,0.1
				c0.2,0.1,0.4,0.1,0.6,0.2c0.2,0.1,0.5,0.2,0.7,0.3c0.1,0.1,0.3,0.1,0.4,0.2c3.1,1.4,8.4,4.3,15.5,8.1c0.8,0.4,1.6,0.9,2.4,1.3
				c0.6,0.3,1.1,0.6,1.7,0.9c0,0,0.1,0,0.1,0.1c1.7,0.9,3.4,1.8,5.3,2.8c0.4,0.2,0.8,0.4,1.1,0.6c0.4,0.2,0.8,0.4,1.2,0.6
				s0.8,0.4,1.2,0.6c3.2,1.7,6.5,3.4,10.1,5.2c0.8,0.4,1.5,0.8,2.3,1.2C1541.7,729.4,1547.7,732.3,1554.1,735.2z"/>
			<path class="st24" d="M1493.1,704.4c9.9,4.9,7.2,58.7-2.5,56.5C1480.7,758.7,1486.5,702.5,1493.1,704.4z"/>
			<path class="st11" d="M1492.7,716.8c5,3,3.7,36.4-1.3,35.1C1486.4,750.5,1489.3,715.6,1492.7,716.8z"/>
			<g>
				<path class="st8" d="M1600,754v31.4c0,0-2.1-0.5-5.6-1.2c-1.1-0.3-2.4-0.6-3.8-0.9c-4.4-1-10.1-2.2-16.5-3.7
					c-1.2-0.3-2.5-0.6-3.7-0.8c-1.8-0.4-3.6-0.8-5.5-1.2c-1.2-0.3-2.5-0.6-3.8-0.8c-2-0.5-4-0.9-6-1.4c-1.3-0.3-2.7-0.6-4-0.9
					c-0.7-0.2-1.4-0.3-2-0.5c-0.9-0.2-1.8-0.4-2.6-0.6c-1.7-0.4-3.3-0.7-5-1.1c-1.1-0.2-2.2-0.5-3.3-0.7c0,0,0,0,0,0
					c-4.5-1-8.9-2-13.2-3c-5.5-1.2-10.7-2.4-15.3-3.4c-1.3-0.3-2.6-0.6-3.9-0.9c-7.6-1.7-13.1-2.9-15.1-3.4c-0.1,0-0.2-0.1-0.4-0.1
					c-0.1,0-0.2-0.1-0.2-0.1c0,0-0.1,0-0.1-0.1c-0.1-0.1-0.2-0.1-0.3-0.2c-0.2-0.1-0.4-0.3-0.6-0.5c-0.1-0.1-0.1-0.1-0.2-0.2
					c-0.1-0.1-0.2-0.2-0.2-0.3c-0.1-0.1-0.2-0.2-0.3-0.4c0,0-0.1-0.1-0.1-0.1c0,0,0,0,0,0c-0.1-0.1-0.2-0.3-0.3-0.5
					c-0.1-0.1-0.1-0.2-0.2-0.4c0,0,0,0,0,0c0,0-0.1-0.1-0.1-0.2c-0.1-0.2-0.1-0.3-0.2-0.5c-0.1-0.1-0.1-0.2-0.1-0.3c0,0,0-0.1,0-0.1
					c-0.1-0.1-0.1-0.3-0.2-0.4c-0.1-0.3-0.2-0.6-0.3-0.9c-0.1-0.2-0.1-0.4-0.2-0.6c-0.1-0.2-0.1-0.5-0.2-0.7v0c0-0.1,0-0.2-0.1-0.3
					c0,0,0-0.1,0-0.1c0-0.1,0-0.2-0.1-0.3c0-0.1,0-0.2-0.1-0.3c-0.1-0.3-0.1-0.6-0.2-0.9s-0.1-0.6-0.2-1c0-0.2-0.1-0.5-0.1-0.8
					c0-0.3-0.1-0.5-0.1-0.8c0-0.3-0.1-0.6-0.1-0.9c0-0.1,0-0.1,0-0.2c0-0.2,0-0.5-0.1-0.7c0-0.3-0.1-0.6-0.1-0.8v0
					c0-0.3,0-0.6-0.1-0.9c-1.1-17.2,3.1-43.3,7.6-41.9c0.1,0,0.2,0,0.2,0.1c0.1,0,0.2,0.1,0.3,0.1c0.2,0.1,0.4,0.1,0.6,0.2
					c0.2,0.1,0.5,0.2,0.7,0.3c0.1,0.1,0.3,0.1,0.4,0.2c3.1,1.4,8.4,4.3,15.5,8.1c0.8,0.4,1.6,0.9,2.4,1.3c0.6,0.3,1.1,0.6,1.7,0.9
					c0,0,0.1,0,0.1,0.1c1.7,0.9,3.4,1.8,5.3,2.8l1.1,0.6c0.4,0.2,0.8,0.4,1.2,0.6c0.4,0.2,0.8,0.4,1.2,0.6c3.2,1.7,6.5,3.4,10.1,5.2
					c0.8,0.4,1.5,0.8,2.3,1.2c5.6,2.8,11.6,5.7,17.9,8.6c0.3,0.2,0.7,0.3,1,0.5c1.5,0.7,3,1.3,4.5,2
					C1572,743.2,1585.6,748.9,1600,754z"/>
				<g>
					<g>
						<path class="st1" d="M1515.9,729.9c0,12.5-1.8,26.6-6.3,35.2c0,0,0,0.1,0,0.1c-1.3-0.3-2.6-0.6-3.9-0.9c0,0,0-0.1,0.1-0.1
							c6.6-11.2,7.4-37.4,5.1-50.8c0.8,0.4,1.6,0.9,2.4,1.3c0.6,0.3,1.1,0.6,1.7,0.9c0,0,0.1,0,0.1,0.1
							C1515.6,719.8,1515.9,724.7,1515.9,729.9z"/>
						<path class="st4" d="M1560.8,750.4c0,2.2-0.1,4.5-0.3,6.8c0,0.2,0,0.5-0.1,0.7c0,0,0,0.1,0,0.1c-0.7,6.2-2.3,12.3-5.3,17.3
							c-0.8,1.4-1.8,2.7-2.9,3.9l-2.9-2.6c0.6-0.7,1.2-1.4,1.7-2.2c3.4-4.9,5.1-11.4,5.7-17.8c0.8-8.3-0.2-16.5-1.6-21
							c1.5,0.7,3,1.3,4.5,2C1560.3,741.2,1560.8,745.6,1560.8,750.4z"/>
					</g>
				</g>
			</g>
		</g>
		<g>
			<path class="st1" d="M1600,809.1v26.2c0,0-5.2,0.7-13.3,2.3c-2.2,0.4-4.6,0.9-7.2,1.5c-1.4,0.3-2.9,0.7-4.4,1
				c-6.6,1.6-14.1,3.6-21.9,6.1c-1.4,0.5-2.9,1-4.3,1.4c-1.2,0.4-2.3,0.8-3.5,1.2c-0.5,0.2-1.1,0.4-1.6,0.6
				c-1.4,0.5-2.9,1.1-4.3,1.6c-3.9,1.5-7.8,3.2-11.6,5h0c-0.1,0-0.1,0.1-0.2,0.1c-0.2,0.1-0.4,0.2-0.5,0.3c-0.4,0.2-0.8,0.3-1.2,0.4
				c-0.2,0-0.5,0-0.7,0c-0.1,0-0.2,0-0.4,0c-0.1,0-0.2,0-0.3-0.1c-0.2-0.1-0.5-0.1-0.7-0.2c-3.8-1.6-7.6-8.3-10.3-15.9
				c-0.2-0.5-0.4-1-0.5-1.5c-0.1-0.2-0.2-0.5-0.2-0.7c-0.1-0.2-0.2-0.5-0.2-0.7c-0.2-0.5-0.3-1-0.4-1.5c-0.1-0.5-0.3-1-0.4-1.5
				c-0.1-0.2-0.1-0.5-0.2-0.7c-0.1-0.5-0.2-1-0.4-1.5c0,0,0,0,0,0c-0.1-0.5-0.2-1-0.3-1.5c0,0,0,0,0,0c-0.1-0.5-0.2-1-0.3-1.4
				c0-0.2-0.1-0.5-0.1-0.7c-0.1-0.5-0.1-0.9-0.2-1.4c0,0,0-0.1,0-0.1c-0.1-0.4-0.1-0.8-0.2-1.2c0-0.1,0-0.3,0-0.4c0-0.1,0-0.2,0-0.4
				c0-0.2,0-0.4-0.1-0.6c0,0,0,0,0,0c0-0.2,0-0.4,0-0.6c0,0,0-0.1,0-0.2c0-0.3,0-0.6-0.1-0.9c0-0.3,0-0.5,0-0.8c0-0.2,0-0.4,0-0.6
				c0-0.3,0-0.5,0-0.8s0-0.5,0-0.8c0-0.2,0-0.3,0-0.5c0-0.2,0-0.4,0.1-0.6c0-0.3,0.1-0.5,0.1-0.8c0.1-0.5,0.2-0.9,0.3-1.3
				c0.1-0.2,0.1-0.4,0.2-0.5c0-0.1,0.1-0.2,0.1-0.2c0-0.1,0.1-0.3,0.2-0.4c0.1-0.2,0.2-0.4,0.3-0.5c0,0,0,0,0,0
				c0.1-0.2,0.2-0.3,0.3-0.5c0.1-0.1,0.2-0.3,0.3-0.4c0.1-0.1,0.2-0.2,0.4-0.3c0,0,0,0,0,0c0,0,0,0,0,0l0,0c0.1-0.1,0.2-0.1,0.3-0.2
				c0,0,0.1,0,0.1,0c0.1,0,0.2-0.1,0.3-0.1c0,0,0.1,0,0.2,0c0,0,0,0,0,0c0.1,0,0.2-0.1,0.3-0.1c0,0,0,0,0,0c0,0,0.1,0,0.1,0
				c0.1,0,0.3,0,0.5,0h0.4c3.6,0,8.7-0.1,15.4-0.3c1.5,0,3.1-0.1,4.8-0.2c1.5-0.1,3.1-0.1,4.8-0.2c1.9-0.1,3.8-0.2,5.8-0.3
				c7.2-0.3,15.4-0.8,24.9-1.4c1.5-0.1,3.1-0.2,4.7-0.3c2.7-0.2,5.5-0.4,8.4-0.6c0.7,0,1.5-0.1,2.2-0.1c1.5-0.1,3-0.2,4.5-0.3
				C1593.2,809.6,1596.6,809.4,1600,809.1z"/>
			<path class="st6" d="M1514,813.5h0.4c10.2,0.4,19.1,38.7,13.4,42.7l0,0c-0.2,0.1-0.4,0.2-0.5,0.3
				C1516.6,861.6,1502.7,813.5,1514,813.5L1514,813.5z"/>
			<path class="st11" d="M1517.2,822.3h0.2c4.7-0.1,10.5,25.1,8,27.5l0,0c-0.1,0-0.2,0.1-0.2,0.2
				C1520.4,853,1512,822.6,1517.2,822.3L1517.2,822.3z"/>
			<g>
				<path class="st8" d="M1600,809.1v26.2c0,0-5.2,0.7-13.3,2.3c-2.2,0.4-4.6,0.9-7.2,1.5c-1.4,0.3-2.9,0.7-4.4,1
					c-6.6,1.6-14.1,3.6-21.9,6.1c-1.4,0.5-2.9,1-4.3,1.4c-1.2,0.4-2.3,0.8-3.5,1.2c-0.5,0.2-1.1,0.4-1.6,0.6
					c-1.4,0.5-2.9,1.1-4.3,1.6c-3.9,1.5-7.8,3.2-11.6,5h0c-0.1,0-0.1,0.1-0.2,0.1c-0.2,0.1-0.4,0.2-0.5,0.3
					c-0.4,0.2-0.8,0.3-1.2,0.4c-0.2,0-0.5,0-0.7,0c-0.1,0-0.2,0-0.4,0c-0.1,0-0.2,0-0.3-0.1c-0.2-0.1-0.5-0.1-0.7-0.2
					c-3.8-1.6-7.6-8.3-10.3-15.9c-0.2-0.5-0.4-1-0.5-1.5c-0.1-0.2-0.2-0.5-0.2-0.7c-0.1-0.2-0.2-0.5-0.2-0.7c-0.2-0.5-0.3-1-0.4-1.5
					c-0.1-0.5-0.3-1-0.4-1.5c-0.1-0.2-0.1-0.5-0.2-0.7c-0.1-0.5-0.2-1-0.4-1.5c0,0,0,0,0,0c-0.1-0.5-0.2-1-0.3-1.5c0,0,0,0,0,0
					c-0.1-0.5-0.2-1-0.3-1.4c0-0.2-0.1-0.5-0.1-0.7c-0.1-0.5-0.1-0.9-0.2-1.4c0,0,0-0.1,0-0.1c-0.1-0.4-0.1-0.8-0.2-1.2
					c0-0.1,0-0.3,0-0.4c0-0.1,0-0.2,0-0.4c0-0.2,0-0.4-0.1-0.6c0,0,0,0,0,0c0-0.2,0-0.4,0-0.6c0,0,0-0.1,0-0.2c0-0.3,0-0.6-0.1-0.9
					c0-0.3,0-0.5,0-0.8c0-0.2,0-0.4,0-0.6c0-0.3,0-0.5,0-0.8s0-0.5,0-0.8c0-0.2,0-0.3,0-0.5c0-0.2,0-0.4,0.1-0.6
					c0-0.3,0.1-0.5,0.1-0.8c0.1-0.5,0.2-0.9,0.3-1.3c0.1-0.2,0.1-0.4,0.2-0.5c0-0.1,0.1-0.2,0.1-0.2c0-0.1,0.1-0.3,0.2-0.4
					c0.1-0.2,0.2-0.4,0.3-0.5c0,0,0,0,0,0c0.1-0.2,0.2-0.3,0.3-0.5c0.1-0.1,0.2-0.3,0.3-0.4c0.1-0.1,0.2-0.2,0.4-0.3c0,0,0,0,0,0
					c0,0,0,0,0,0l0,0c0.1-0.1,0.2-0.1,0.3-0.2c0,0,0.1,0,0.1,0c0.1,0,0.2-0.1,0.3-0.1c0,0,0.1,0,0.2,0c0,0,0,0,0,0
					c0.1,0,0.2-0.1,0.3-0.1c0,0,0,0,0,0c0,0,0.1,0,0.1,0c0.1,0,0.3,0,0.5,0h0.4c3.6,0,8.7-0.1,15.4-0.3c1.5,0,3.1-0.1,4.8-0.2
					c1.5-0.1,3.1-0.1,4.8-0.2c1.9-0.1,3.8-0.2,5.8-0.3c7.2-0.3,15.4-0.8,24.9-1.4c1.5-0.1,3.1-0.2,4.7-0.3c2.7-0.2,5.5-0.4,8.4-0.6
					c0.7,0,1.5-0.1,2.2-0.1c1.5-0.1,3-0.2,4.5-0.3C1593.2,809.6,1596.6,809.4,1600,809.1z"/>
				<g>
					<path class="st6" d="M1586.7,837.6c-2.2,0.4-4.6,0.9-7.2,1.5c-1.4,0.3-2.9,0.7-4.4,1c-6.6,1.6-14.1,3.6-21.9,6.1
						c-1.4,0.5-2.9,1-4.3,1.4c-1.2,0.4-2.3,0.8-3.5,1.2c1.2-3.9,2.8-7.1,4.6-9.7c1.1-1.6,2.4-3,3.7-4.1c6.8-5.9,15.6-6.1,22.9-3.6
						c1.3,0.5,2.6,1,3.8,1.6C1582.9,834.3,1585.1,835.9,1586.7,837.6z"/>
					<g>
						<path class="st4" d="M1544.1,845.2c0,1.4-0.1,2.9-0.3,4.2c-1.4,0.5-2.9,1.1-4.3,1.6c2.6-8-1.7-24.1-6.2-32.8
							c-1.5-3-2.8-4.5-3.5-5.1c1.5,0,3.1-0.1,4.8-0.2c0.1,0.1,0.1,0.2,0.2,0.3c3,4.5,6,12.2,7.7,19.7
							C1543.2,836.1,1544.1,840.7,1544.1,845.2z"/>
						<path class="st4" d="M1553.9,839c0,2.5-0.2,5-0.7,7.2c-1.4,0.5-2.9,1-4.3,1.4c0.8-2.5,1.1-5.4,1.1-8.5c0-10.5-4-23-10.6-26.4
							c1.9-0.1,3.8-0.2,5.8-0.3c4.8,5.1,7.8,13.9,8.5,22.5C1553.8,836.4,1553.9,837.7,1553.9,839z"/>
						<path class="st4" d="M1580.5,830.9c0,0.7,0,1.4-0.1,2.1c-0.1,2.1-0.4,4.1-0.9,6c-1.4,0.3-2.9,0.7-4.4,1c1-2.8,1.5-5.8,1.5-8.7
							c0.1-8.2-2.9-16.3-6.5-20.3c1.5-0.1,3.1-0.2,4.7-0.3C1578.2,815.9,1580.5,823.4,1580.5,830.9z"/>
					</g>
				</g>
			</g>
		</g>
		<g>
			<path class="st6" d="M1600,773.5v42.2c0,0-4.6-1.5-11.2-3.6c-1.2-0.4-2.5-0.8-3.8-1.2c-6-2-13.2-4.3-19.9-6.5
				c-1.4-0.5-2.9-0.9-4.2-1.4c-1.3-0.4-2.6-0.8-3.9-1.3c-1.4-0.5-2.8-0.9-4.1-1.3c-5.7-1.8-10.1-3.2-11.7-3.8
				c-0.2,0-0.3-0.1-0.4-0.2c-0.1-0.1-0.3-0.2-0.4-0.4c-3.8-4-3.3-24.8-0.2-36.3c0-0.2,0.1-0.3,0.1-0.5c0.1-0.2,0.1-0.4,0.2-0.5
				s0.1-0.4,0.2-0.5c0.1-0.2,0.1-0.3,0.2-0.5c0.1-0.2,0.1-0.3,0.2-0.5c0.1-0.2,0.1-0.4,0.2-0.5c0.2-0.6,0.4-1.1,0.7-1.6
				c0.1-0.2,0.2-0.4,0.3-0.5c0,0,0,0,0,0c0.1-0.2,0.2-0.3,0.2-0.4c0.1-0.1,0.2-0.3,0.3-0.4c0.1-0.2,0.3-0.4,0.4-0.6
				c0,0,0.1-0.1,0.1-0.1c0.3-0.3,0.5-0.5,0.8-0.7c0.1,0,0.2-0.1,0.2-0.1c0.1,0,0.1,0,0.2,0c0,0,0,0,0,0c0,0,0.1,0,0.1,0
				c0.1,0,0.1,0,0.2,0c0.1,0,0.3,0,0.4,0c0.2,0,0.4,0,0.5,0.1c2.3,0.9,8,3.1,14.8,5.8c1.5,0.6,3,1.1,4.5,1.8c1,0.4,1.9,0.8,2.9,1.1
				c1.6,0.6,3.2,1.2,4.7,1.8c5.3,2.1,10.7,4.2,15.2,5.9c1.8,0.7,3.4,1.3,4.9,1.9C1597.1,772.4,1600,773.5,1600,773.5z"/>
			<path class="st24" d="M1545.6,752.3c7.4,2.9,2.5,46.6-4.4,44.4C1534.5,794.5,1537.9,749.3,1545.6,752.3z"/>
			<path class="st1" d="M1545.2,761.5c3,1.9,0.2,28.9-2.3,27.9C1539.4,788.1,1541.2,759.6,1545.2,761.5z"/>
			<g>
				<path class="st8" d="M1600,773.5v42.2c0,0-4.6-1.5-11.2-3.6c-1.2-0.4-2.5-0.8-3.8-1.2c-6-2-13.2-4.3-19.9-6.5
					c-1.4-0.5-2.9-0.9-4.2-1.4c-1.3-0.4-2.6-0.8-3.9-1.3c-1.4-0.5-2.8-0.9-4.1-1.3c-5.7-1.8-10.1-3.2-11.7-3.8
					c-0.2,0-0.3-0.1-0.4-0.2c-0.1-0.1-0.3-0.2-0.4-0.4c-3.8-4-3.3-24.8-0.2-36.3c0-0.2,0.1-0.3,0.1-0.5c0.1-0.2,0.1-0.4,0.2-0.5
					s0.1-0.4,0.2-0.5c0.1-0.2,0.1-0.3,0.2-0.5c0.1-0.2,0.1-0.3,0.2-0.5c0.1-0.2,0.1-0.4,0.2-0.5c0.2-0.6,0.4-1.1,0.7-1.6
					c0.1-0.2,0.2-0.4,0.3-0.5c0,0,0,0,0,0c0.1-0.2,0.2-0.3,0.2-0.4c0.1-0.1,0.2-0.3,0.3-0.4c0.1-0.2,0.3-0.4,0.4-0.6
					c0,0,0.1-0.1,0.1-0.1c0.3-0.3,0.5-0.5,0.8-0.7c0.1,0,0.2-0.1,0.2-0.1c0.1,0,0.1,0,0.2,0c0,0,0,0,0,0c0,0,0.1,0,0.1,0
					c0.1,0,0.1,0,0.2,0c0.1,0,0.3,0,0.4,0c0.2,0,0.4,0,0.5,0.1c2.3,0.9,8,3.1,14.8,5.8c1.5,0.6,3,1.1,4.5,1.8c1,0.4,1.9,0.8,2.9,1.1
					c1.6,0.6,3.2,1.2,4.7,1.8c5.3,2.1,10.7,4.2,15.2,5.9c1.8,0.7,3.4,1.3,4.9,1.9C1597.1,772.4,1600,773.5,1600,773.5z"/>
				<g>
					<g>
						<path class="st1" d="M1565.6,767.4c0,6.4-1,13.9-2.7,20.5c-1.2,4.8-3.1,10.4-5.9,13.9c-1.4-0.5-2.8-0.9-4.1-1.3
							c1.8-1.6,4.3-5.8,6.3-13.6c2.9-11.3,3.4-24.5,1.2-28.8c1.5,0.6,3,1.1,4.5,1.8C1565.4,762,1565.6,764.6,1565.6,767.4z"/>
						<path class="st1" d="M1574.3,775c0,7.6-1.7,15.2-4.1,21c-1,2.4-2.7,5.9-5.1,8.4c-1.4-0.5-2.9-0.9-4.2-1.4
							c2-1.4,4.1-4.5,5.8-8.5c3.8-9.1,5.7-23.2,1.2-33.5c1.6,0.6,3.2,1.2,4.7,1.8C1573.8,766.7,1574.3,770.9,1574.3,775z"/>
						<path class="st1" d="M1594.4,785.6c0,9.2-1.6,19.6-5.6,26.5c-1.2-0.4-2.5-0.8-3.8-1.2c7.6-11.6,6.2-37.2,2.8-42.1
							c1.8,0.7,3.4,1.3,4.9,1.9C1593.8,774.4,1594.4,779.8,1594.4,785.6z"/>
					</g>
				</g>
			</g>
		</g>
	</g>
	<g>
		<g>
			<path class="st7" d="M63.6,771.2c-8-10.8-9.2-20.4-2.1-17.2s17,16.7,17.9,24.4S71.6,782.1,63.6,771.2L63.6,771.2z"/>
			<path class="st7" d="M111.5,742.8l-0.1,4.2c-3.8-0.1-7.2-0.1-10.2,0c-12.2,0.5-19.3,3.5-32.7,12.5l0,0c-2.6,1.7-5.5,3.7-8.6,5.9
				c-2.1,1.4-4.3,3-6.6,4.7c-9.1,6.4-20.4,14-31.6,21.6l0,0c-3.5,2.4-7.1,4.7-10.5,7l0,0c-3.8,2.5-7.5,5-11.1,7.3v-5
				c2.5-1.7,5.1-3.3,7.7-5.1c4.2-2.8,8.6-5.7,12.9-8.6c10.8-7.2,21.6-14.5,30.3-20.6c2.6-1.8,5-3.5,7.2-5.1l0,0c2.6-1.8,5-3.5,7.3-5
				c14.2-9.6,21.8-13,34.9-13.7l0,0C103.6,742.6,107.3,742.6,111.5,742.8L111.5,742.8z"/>
			<path class="st25" d="M18.2,782.3c6.1,9.9,4,19.8-3.8,17.8s-15.5-14.4-13.8-22.3S12.1,772.3,18.2,782.3z"/>
			<g>
				<path class="st25" d="M103.6,752.8c-3.3-5.7-4.6-15.3-4-24.2c0.5-7.6,2.3-14.7,5.4-18.6c6.6-8.3,14.1,4.2,13.8,22.7
					c0,0.3,0,0.7,0,1C118.1,752.7,109.7,763.3,103.6,752.8L103.6,752.8z"/>
				<path class="st1" d="M118.8,732.7l-19.2-4.1c0.5-7.6,2.3-14.7,5.4-18.6C111.6,701.6,119.1,714.2,118.8,732.7L118.8,732.7z"/>
			</g>
		</g>
		<g>
			<path class="st7" d="M151.5,779.1c-0.3,0.3-0.6,0.7-0.9,1c-9,10.7-16.8,19.7-23.7,27c-2.6,2.8-5,5.3-7.4,7.6
				c-4.4,4.3-8.4,7.9-12.2,10.9c-5.1,3.9-9.9,6.7-14.9,8.5c-3.8,1.3-7.6,2.2-11.8,2.5l0,0c-2.2,0.2-4.4,0.2-6.8,0.1
				c-5.6-0.2-11.7-1.2-18.1-2.2c-4.5-0.7-9.3-1.5-14.4-2c-4.2-0.5-8.7-0.8-13.3-0.9c-8.5-0.1-17.8,0.7-28,3.2v-4.3
				c9.9-2.4,18.9-3.1,27.2-3.1l0,0c5.2,0,10.2,0.4,14.9,1c5,0.6,9.7,1.3,14.2,2c6.3,1,12.2,1.9,17.6,2.1c2,0.1,3.9,0.1,5.8,0
				c3.3-0.2,6.3-0.7,9.4-1.7c8.2-2.5,16.1-7.8,26-17.5l0,0c2.7-2.6,5.5-5.5,8.5-8.7c6.8-7.3,14.6-16.3,23.9-27.3
				c0.3-0.3,0.5-0.6,0.8-0.9L151.5,779.1L151.5,779.1z"/>
			<g>
				<path class="st25" d="M164.2,791c-1.3-1-2.7-2-4.1-3c-25.1-19.2-36.9-37.8-21.2-33.4c7.8,2.2,19.5,9.3,30.5,17.7
					s21.2,18.2,25.9,25.6C204.2,811.8,187.2,807.7,164.2,791L164.2,791z"/>
				<path class="st16" d="M164.2,791l5.2-18.8c11,8.4,21.2,18.2,25.9,25.6C204.2,811.8,187.2,807.7,164.2,791L164.2,791z"/>
			</g>
			<path class="st7" d="M84.3,843.8c-6.3-9.3-6-18,0.5-15.6s14.4,14,14.2,21S90.6,853.1,84.3,843.8L84.3,843.8z"/>
			<path class="st25" d="M109.3,810.8c-14.9-7.2-22-16.5-12.7-16.6s27.9,8.9,33.6,16.3C135.8,817.8,124.2,818,109.3,810.8
				L109.3,810.8z"/>
			<path class="st1" d="M42.7,821.6c0,15-6.7,24.4-11.9,16.8s-5.2-26.3,0.1-33.8S42.8,806.6,42.7,821.6L42.7,821.6z"/>
		</g>
		<g>
			<path class="st7" d="M31.6,679.8c-8.4-11.3-9.9-21.2-2.7-17.7s17.7,17.6,18.9,25.5S40,691.2,31.6,679.8L31.6,679.8z"/>
			<path class="st7" d="M151.2,551c-3.7,3.1-7.3,6.1-10.7,9c-10.2,8.6-18.8,16-26.1,22.5c-1.9,1.7-3.8,3.3-5.5,4.9l0,0
				c-8.9,8-15.5,14.5-20.3,19.9c-2.9,3.3-5.2,6.2-7,9c-6.5,10.1-6.3,17.4-5.9,29.4c0.6,18.4-16.6,38.1-49.3,65.5
				c-0.5,0.4-1,0.8-1.4,1.2c-1.8,1.5-3.7,3.1-5.6,4.6c-0.4,0.3-0.8,0.6-1.2,1c-5.7,4.6-11.8,9.5-18.2,14.6v-5.3
				c5.7-4.5,11.1-8.8,16.2-12.9c0.5-0.4,0.9-0.8,1.4-1.1c1.6-1.3,3.1-2.5,4.6-3.8c0.6-0.5,1.2-1,1.7-1.4c7.2-6,13.6-11.6,19.2-16.9
				c1.5-1.5,3-2.9,4.4-4.3l0,0c16.1-16,24.4-28.9,24-40.9c-0.4-12.8-0.7-20.7,6.5-31.7c2.2-3.3,5.1-6.9,8.8-11.1l0,0
				c5.1-5.6,11.8-12.1,20.7-20l0,0c1-0.9,2.1-1.9,3.2-2.8l0,0c7.8-7,17.2-15,28.3-24.4c3-2.5,6.2-5.2,9.4-7.9L151.2,551L151.2,551z"
				/>
			<path class="st25" d="M115.4,598.2l-0.1-0.2c-8.6-11.5-10.5-21.3-3.6-17.5c3.8,2,8.7,7.2,12.6,12.8c3.3,4.7,5.9,9.6,6.7,13.2
				C132.5,614.3,123.9,609.6,115.4,598.2L115.4,598.2z"/>
			<path class="st1" d="M115.4,598.2l8.9-4.9c3.3,4.7,5.9,9.6,6.7,13.2C132.5,614.3,123.9,609.6,115.4,598.2z"/>
			<g>
				<path class="st16" d="M143.2,567c-0.4-0.9-0.8-1.9-1.1-2.8c-11.3-29.1-10.9-48.9,0.8-35.6c5.9,6.7,12.4,19.3,17.4,32.2
					c4.9,12.6,8.2,25.5,8.1,33.4C168,609.4,154.4,594.4,143.2,567L143.2,567z"/>
				<path class="st25" d="M160.3,560.8l-17,6.2c-0.4-0.9-0.8-1.9-1.1-2.8c-11.3-29.1-10.9-48.9,0.8-35.6
					C148.8,535.3,155.3,547.9,160.3,560.8L160.3,560.8z"/>
			</g>
			<path class="st7" d="M70,605.8c-8.7-11.8-8.9-23.1-0.2-20.4s19.6,17.5,19.7,26.6S78.7,617.6,70,605.8z"/>
		</g>
		<g>
			<polygon class="st7" points="126.5,673 123.4,675.2 123.4,675.2 89,700 83.9,703.7 41,734.7 33.9,739.8 33.9,739.8 0,764.3 
				0,759.2 31.4,736.5 31.4,736.5 39.1,730.9 80.8,700.8 88.7,695.1 121.2,671.6 124,669.6 			"/>
			<path class="st25" d="M75.2,691.1c-4.9-11.9-3.4-21.2,2.7-16.8c6.1,4.5,12.2,19.4,11,26.8S80.1,703,75.2,691.1L75.2,691.1z"/>
			<g>
				<path class="st25" d="M119.3,668.2c-2.7-4.7-4.8-9.2-6.6-13.2c-6.8-15.7-6.3-24.6,2.7-16.5c4.2,3.7,9,10,13.6,17.2
					c7.8,12.2,14.7,26.9,15.8,35.3C146.5,704.2,132.3,691.5,119.3,668.2L119.3,668.2z"/>
				<path class="st16" d="M129,655.7l-16.3-0.7c-6.8-15.7-6.3-24.6,2.7-16.5C119.6,642.2,124.5,648.5,129,655.7L129,655.7z"/>
			</g>
			<g>
				<path class="st25" d="M26.3,728.9c-0.3-0.4-0.5-0.8-0.8-1.2c-11.6-18.7-15.2-32.6-6.5-25c4.4,3.8,10.1,11.6,15.2,19.8
					c5,8.2,9.4,16.8,10.8,22.3C47.8,755.6,37.5,746.8,26.3,728.9L26.3,728.9z"/>
				<path class="st1" d="M26.3,728.9l7.9-6.5c5,8.2,9.4,16.8,10.8,22.3C47.8,755.6,37.5,746.8,26.3,728.9L26.3,728.9z"/>
			</g>
		</g>
	</g>
	<g>
		<path class="st11" d="M71.4,233C91.5,254.8,86.2,345.4,0,416.6V409c27.9-26.4,38.9-83.5,48-126C55.6,248.2,62.3,223.2,71.4,233
			L71.4,233z"/>
		<path class="st11" d="M128.8,158.1c-13.5,31.1-15,56.2-8.7,82.2c-22.7-25.4-42.1-45.4-40.4-73.6c2.6-41.1,22.5-67.2,41.2-65.3
			C139.6,103.4,146,118.4,128.8,158.1L128.8,158.1z"/>
		<path class="st26" d="M0,457.1v-9c0,0,37.3-19.1,89-55.2c48-33.5,51.5-95.9,38.1-130.5c-2.9-7.5-5.2-14.8-7-22.1
			c10.3,11.5,21.3,24.1,31.3,39.1C183.4,327.5,166.5,361.9,0,457.1L0,457.1z"/>
	</g>
</g>
<g id="bubbles">
	<g class="st27">
		<path class="st28" d="M1063.3,469.2c-3.9,2.5-9.1-0.2-9.3-4.9s4.7-7.8,8.8-5.6S1067.3,466.7,1063.3,469.2z"/>
		<path class="st28" d="M1286.4,376.6c-3.5,1-6.7-2.1-5.8-5.6s5.2-4.8,7.8-2.3S1289.8,375.6,1286.4,376.6z"/>
		<path class="st28" d="M1326.6,311c-4.3,0.3-7.2-4.1-5.3-8s7.2-4.2,9.6-0.6S1330.8,310.8,1326.6,311L1326.6,311z"/>
		<path class="st28" d="M1337.5,77.3c-2.7,2.7-7.3,1.5-8.3-2.2s2.4-7.1,6.1-6.1S1340.2,74.6,1337.5,77.3z"/>
		<path class="st28" d="M1513.7,171.3c-4.3,0-6.9-4.6-4.8-8.3s7.5-3.7,9.6,0S1518,171.3,1513.7,171.3L1513.7,171.3z"/>
		<path class="st28" d="M1272.7,123c-3.7,1.5-7.6-1.6-7.1-5.5s5.2-5.8,8.3-3.4S1276.4,121.5,1272.7,123L1272.7,123z"/>
		<path class="st28" d="M988.6,336.4c-3.5,1-6.8-2.3-5.8-5.8s5.4-4.8,8-2.2S992.1,335.4,988.6,336.4L988.6,336.4z"/>
		<path class="st28" d="M890.2,245.1c-3.3,0.1-5.4-3.3-3.9-6.2s5.6-3.1,7.3-0.3S893.5,244.9,890.2,245.1L890.2,245.1z"/>
		<path class="st28" d="M795.1,354.7c-5.1,0-8.3-5.5-5.8-10s9-4.4,11.5,0S800.2,354.7,795.1,354.7L795.1,354.7z"/>
		<path class="st28" d="M942.8,55.5c-3.8,1-7.3-2.5-6.3-6.3s5.8-5.1,8.6-2.3S946.6,54.5,942.8,55.5z"/>
		<path class="st28" d="M748.1,30.2c-3.8,1-7.3-2.5-6.3-6.3s5.8-5.1,8.6-2.3S752,29.2,748.1,30.2z"/>
		<path class="st28" d="M962.6,574.3c-4,0.6-7.1-3.3-5.7-7c1.5-3.7,6.4-4.5,8.9-1.4S966.5,573.6,962.6,574.3z"/>
		<path class="st28" d="M1085.4,548.1c-3.1,1.6-6.7-0.8-6.5-4.3s4.1-5.4,7-3.5C1088.7,542.2,1088.5,546.5,1085.4,548.1L1085.4,548.1
			z"/>
		<path class="st28" d="M904.6,484.9c-2.9,2.4-7.3,0.8-8-3s3-6.8,6.5-5.4S907.5,482.5,904.6,484.9z"/>
		<path class="st28" d="M762.2,542.5c-5.3,0.9-9.5-4.3-7.7-9.3s8.5-6.1,11.9-2C769.9,535.3,767.5,541.6,762.2,542.5L762.2,542.5z"/>
		<path class="st28" d="M1173.8,326.8c-5.2,0.5-9-4.9-6.8-9.7s8.8-5.4,11.8-1.1S1179,326.3,1173.8,326.8L1173.8,326.8z"/>
		<path class="st28" d="M487,357.5c-5.1,0-8.3-5.5-5.8-10s9-4.4,11.5,0S492.1,357.5,487,357.5L487,357.5z"/>
		<path class="st28" d="M1067.9,142.7c-4.2,1.5-8.5-2.1-7.7-6.5s6.1-6.3,9.5-3.4C1073.1,135.7,1072.1,141.2,1067.9,142.7
			L1067.9,142.7z"/>
		<path class="st28" d="M615.3,144.5c-5.6-2-6.9-9.4-2.4-13.3s11.6-1.3,12.7,4.6S620.9,146.6,615.3,144.5L615.3,144.5z"/>
		<path class="st28" d="M63.4,83.8c-3.9,0-6.3-4.2-4.4-7.5c1.9-3.3,6.8-3.3,8.7,0S67.2,83.8,63.4,83.8L63.4,83.8z"/>
		<path class="st28" d="M408.3,279.7c-5.8-2.5-6.6-10.4-1.5-14.1s12.3-0.5,13,5.7C420.5,277.6,414.1,282.3,408.3,279.7L408.3,279.7z
			"/>
		<path class="st28" d="M560.1,518.6c-4.4,0.2-7.4-4.3-5.4-8.2s7.4-4.2,9.8-0.6S564.5,518.3,560.1,518.6L560.1,518.6z"/>
		<path class="st28" d="M257.1,527.2c-3.2,0.4-5.7-2.9-4.4-5.9s5.3-3.5,7.3-0.9S260.4,526.8,257.1,527.2L257.1,527.2z"/>
		<path class="st28" d="M322.4,458.2c-3.4,0.2-5.8-3.3-4.3-6.4s5.7-3.4,7.6-0.5S325.8,458,322.4,458.2z"/>
		<path class="st28" d="M91.9,354.8c-5.5,0-8.9-5.9-6.2-10.6s9.6-4.7,12.3,0S97.4,354.8,91.9,354.8L91.9,354.8z"/>
		<path class="st28" d="M162.3,188.1c-3.9,0-6.4-4.3-4.4-7.7s6.9-3.4,8.9,0S166.2,188.1,162.3,188.1L162.3,188.1z"/>
		<path class="st28" d="M205.5,299.5c-3.4,0-5.6-3.7-3.9-6.7s6-3,7.7,0S208.9,299.5,205.5,299.5L205.5,299.5z"/>
		<path class="st28" d="M326.6,89.7c-4.6,0-7.4-5-5.1-8.9s8-4,10.3,0S331.1,89.7,326.6,89.7L326.6,89.7z"/>
	</g>
</g>
</svg>
