<?xml version="1.0" encoding="UTF-8"?>
<svg id="Layer_1" data-name="Layer 1" xmlns="http://www.w3.org/2000/svg" viewBox="0 0 1056.81 1298.24">
  <g>
    <g>
      <circle cx="517.4" cy="236.7" r="84.17" style="fill: #bc83fb; stroke-width: 0px;"/>
      <g>
        <path d="m507.98,277.64c.09,10.73,13.57,11.38,14.6.65.5-3.14,5.16-2.72,5.11.44.14,7.09-5.66,13.73-13.18,13.2-3.55-.21-7.03-2.02-9.17-4.91-2.19-2.57-4.79-12.11.3-11.98,1.36.12,2.35,1.28,2.33,2.6h0Z" style="stroke-width: 0px;"/>
        <path d="m559.29,266.89c-.24-4.4-1.48-8.5-3.98-11.44-4.9-6.03-14.75-6.63-20.27-1.14-2.77,2.65-4.43,6.6-5.19,10.95-.2,1.33-1.46,2.24-2.79,2.01-1.14-.2-1.95-1.17-1.99-2.28-.1-2.61.24-5.29,1-7.94,4.44-15.37,25.32-18.55,34.51-5.63,3.31,4.53,4.25,10.38,3.49,15.73-.19,1.31-1.41,2.22-2.72,2.03-1.17-.17-2.02-1.16-2.06-2.3h0Z" style="stroke-width: 0px;"/>
        <path d="m501.23,263.68c-.27-4.41-1.53-8.52-4.04-11.45-4.93-6.02-14.75-6.62-20.3-1.15-2.78,2.65-4.46,6.6-5.25,10.96-.2,1.29-1.43,2.16-2.71,1.93-1.09-.2-1.87-1.12-1.92-2.19-.12-2.61.22-5.28.96-7.93,4.39-15.38,25.29-18.57,34.46-5.64,3.3,4.53,4.22,10.38,3.43,15.72-.19,1.27-1.38,2.15-2.65,1.95-1.12-.17-1.93-1.12-1.98-2.21h0Z" style="stroke-width: 0px;"/>
      </g>
      <path d="m443.67,196.09l76.1.78,77.72,13.82c3.12,9.61,4.56,19.96,3.96,30.66-.16,2.92-.48,5.81-.91,8.63-15.65-3.59-49.54-17.66-80.53-45.28,0,0-32.05,30.37-86.76,30.48,0-1.05.05-2.09.1-3.13.72-13.05,4.38-25.23,10.31-35.96Z" style="fill: #8747cc; stroke-width: 0px;"/>
      <g>
        <path d="m529.72.03c3.62,1.42,29.39,47.21,58.88,88.65,29.49,41.44,17.41,64.17-9.86,79.37-93.83-5.19-114.44-6.33-114.44-6.33-30.35-25.99-31.66-41.26,3.25-80.96C502.46,41.07,526.1-1.38,529.72.03Z" style="fill: #8747cc; stroke-width: 0px;"/>
        <path d="m598.3,190.91c-37.54-70.5-61.64-161.27-69.25-162.05s-42.52,83.5-87.97,155.86l157.22,6.19Z" style="fill: #bc83fb; stroke-width: 0px;"/>
        <path d="m530.44,46.02c-.52,16.89-2.1,33.75-3.83,50.54-1.61,16.58-4.25,33.43-2.46,50,.26,2.58-3.96,3.06-4.38.43-1.27-8.55-1.09-17.13-.51-25.66,1.15-16.88,3.41-33.56,4.89-50.37.72-8.38,1.35-16.75,1.87-25.14.18-2.59,4.45-2.46,4.41.21h0Z" style="fill: #8747cc; stroke-width: 0px;"/>
        <path d="m608.18,229.73c-5.76,9.04-51.23,1.45-88.5-31.15-40.64,28.29-86.69,30.81-91.42,21.2-4.76-9.64,5.63-40.58,15.31-45.11,9.68-4.55,45.41-1.56,78.17-25.16h0c29.96,27.07,67.08,28.11,76.2,33.7,9.12,5.57,16.02,37.47,10.24,46.53Z" style="fill: #bc83fb; stroke-width: 0px;"/>
        <path d="m452.14,170.76c18.08-1.72,36.54-4.91,53.13-12.45,3.93-1.84,8.17-4.09,11.71-6.55,2.26-1.22,4.1-4.69,6.74-2.85,14.65,10.62,31.05,18.77,48.32,24.2,5.79,1.79,11.75,3.41,17.57,4.5,3.2.64,2.46,5.52-.87,5.06-24.7-4.21-48.53-14.09-68.17-29.71,0,0,3.43-.25,3.43-.25-1.35,1.38-2.54,2.29-3.86,3.34-8.98,6.74-19.62,11.02-30.32,14.08-12.01,3.45-24.88,5.11-37.35,5.74-3.33.17-3.74-4.84-.33-5.13h0Z" style="fill: #8747cc; stroke-width: 0px;"/>
      </g>
    </g>
    <path d="m567.86,304.07c-25.2,25.22-70.67,26.76-97.19,2.76,31.58,15.04,67.06,16.41,97.19-2.76h0Z" style="fill: #8747cc; stroke-width: 0px;"/>
    <path d="m600.51,250.08c-6.73,42.06-44.31,73.07-87.76,70.67-20.38-1.13-38.67-9.42-52.55-22.3,79.52,9.84,117.99,7.28,140.32-48.37Z" style="fill: #8747cc; stroke-width: 0px;"/>
  </g>
  <g>
    <path d="m948.2,1194.34c-6.29-45.06-36.76-103.39-37-93.86,4.33,38.25,7.49,60.56,3,91.83-1.14,7.95-2.38,14.93-4.35,20.81-.02.07-.05.12-.06.17-1.55,4.55-3.42,8.42-5.64,11.65-21.14,30.71-79.16-.73-126.96-54.8l-74.16-7.34-17.79-1.76-15.79-1.58c7.01,10.52,14.04,20.36,21.11,29.52,106.2,138.03,215.35,126.12,248.09,68.77,10.46-18.33,12.68-41.05,9.56-63.41Z" style="fill: #ba81f9; stroke-width: 0px;"/>
    <path d="m909.79,1213.3c-1.55,4.54-3.43,8.42-5.64,11.66-21.14,30.7-79.17-.74-126.96-54.8l-91.96-9.11c96.57,137.7,203.31,124.71,224.56,52.25Z" style="fill: #8547ca; stroke-width: 0px;"/>
    <path d="m841.71,1235.51c-11.33-4.28-22.23-5.22-24.37-.17-2.14,5.05,5.31,12.61,16.64,16.89,11.33,4.28,22.26,3.66,24.4-1.38,2.14-5.05-5.33-11.05-16.66-15.34Z" style="fill: #d6b5f9; stroke-width: 0px;"/>
    <ellipse cx="768.88" cy="1200.97" rx="14.28" ry="27.27" transform="translate(-648.42 1043.55) rotate(-51.03)" style="fill: #d6b5f9; stroke-width: 0px;"/>
    <path d="m721.82,1185.36l-6.96-18.98-11.84-3.58-17.79-1.76-15.79-1.58c7.01,10.52,14.04,20.36,21.11,29.52,13.83-8.96,31.27-3.63,31.27-3.63Z" style="fill: #8547ca; stroke-width: 0px;"/>
  </g>
  <g>
    <path d="m1055.6,162.07c-2.77,9.86-5.93,23.5-8.22,40.26l.02.03c-3.19,23.39-4.64,52.91-.79,86.79,9.78,86.17-3.22,206.41-136.42,258.35-17.51,6.83-37.1,12.47-58.99,16.71l-47.28-68.41s64.41-6.85,115.66-49.04c9.93-8.16,19.36-17.66,27.73-28.69,4.81-6.27,9.23-13.05,13.22-20.36,5.05-9.28,9.23-18.28,12.69-27.1,27.51-69.36,14.04-126.8,76.99-211.95,2.03-2.76,6.34,0,5.38,3.41Z" style="fill: #ba81f9; stroke-width: 0px;"/>
    <path d="m851.21,564.2l-28.04-40.56c56.24,1.25,127.77-40.15,159.06-89.42,42.93-67.6,33.94-130.2,44.05-165.22,10.09-35.04,21.09-66.68,21.09-66.68l.02.02c-3.18,23.39-4.63,52.91-.79,86.79,11.06,97.5-7.02,238.62-195.4,275.07Z" style="fill: #8547ca; stroke-width: 0px;"/>
    <path d="m939,520.42l-28.8,27.08c-17.51,6.83-37.1,12.47-58.99,16.71l-47.28-68.41s64.41-6.85,115.66-49.04c-3.22,51.86,19.41,73.66,19.41,73.66Z" style="fill: #8547ca; stroke-width: 0px;"/>
    <path d="m898,529.74c24.97-10.2,44.64-6.93,35.41,5.89-9.23,12.82-40.44,25.57-56.18,22.96-15.74-2.62-4.2-18.64,20.77-28.84Z" style="fill: #d6b5f9; stroke-width: 0px;"/>
    <path d="m975.27,480.97c20.67-21.19,40.98-26.02,36.55-8.68-4.43,17.33-30.27,43.82-46.51,47.68-16.24,3.86-10.71-17.81,9.96-39Z" style="fill: #d6b5f9; stroke-width: 0px;"/>
    <path d="m1026.73,395.22c4.43-23.89,15.66-36.12,20.22-22,4.56,14.12-.98,43.99-9.96,53.76s-14.68-7.87-10.26-31.76Z" style="fill: #d6b5f9; stroke-width: 0px;"/>
    <path d="m1036.98,318.5c-1.58-18.12,3.66-29.42,9.44-20.33,5.78,9.08,7.76,31.74,3.56,40.77-4.2,9.04-11.42-2.32-13-20.44Z" style="fill: #d6b5f9; stroke-width: 0px;"/>
    <path d="m1037.95,250.89c-.23-13.81,4.42-22.02,8.36-14.77,3.94,7.24,4.23,24.51.51,31.07-3.72,6.57-8.65-2.49-8.88-16.3Z" style="fill: #d6b5f9; stroke-width: 0px;"/>
  </g>
  <path d="m936.95,672.05c5.31-2.75,10.88,10.24,4.78,13.29-16.49,8.26-32.19,18.25-47.26,28.53-16.45,11.2-32.14,23.55-47.32,36.51-6.9,5.6-15.55-4.19-8.89-10.32,30.17-26.15,63.13-49.58,98.69-68.02Z" style="fill: #622f9c; stroke-width: 0px;"/>
  <g>
    <path d="m391.63,1175.73c-33.73,45.9-86.86,25.17-71.32,26.24,11.03.77,20.86-6.96,24-29.74,1.26-9.17,13.13-25.98,47.33,3.5Z" style="fill: #8547ca; stroke-width: 0px;"/>
    <path d="m327.38,1154.61l16.04,4.48s5.29,30.19,6.58,29.91c6.02-1.4,9.36.05,19.39-.77,2.39-.2,4.88-.35,7.45-.44,1.26-.05,2.55-.09,3.85-.1.07,0,.15,0,.22,0,1.24,0,2.5,0,3.77,0,2.42.03,4.88.13,7.38.28,17.49,1.09,36.82,5.46,54.57,16.45,11.72-22.68,19.58-49.24,23.67-78.77l-83.3,16.9-19.23,3.89-25.76,5.22-12.62,2.56-2,.4Z" style="fill: #8547ca; stroke-width: 0px;"/>
    <path d="m347.01,1150.77c-.1.19-.2.37-.28.56-4.96,9.45-6.42,18.98-5.1,26.63.88,5.1,3,9.35,6.14,12.19.62.56,1.29,1.07,1.98,1.52,3.33,2.12,7.51,2.9,12.4,1.87,4.02-.85,7.89-2.79,11.42-5.51,5.76-4.44,10.63-10.94,13.88-18.12,4.05-9,5.51-19.06,2.89-27.37-.08-.29-.18-.58-.28-.87-2.9-8.18-8.97-11.9-15.96-11.65-9.23.33-20.03,7.61-27.09,20.75Z" style="fill: #ba81f9; stroke-width: 0px;"/>
  </g>
  <g>
    <path d="m226.51,653.12l-44.78-30.57-55.95-38.18C25.11,493-32.52,367.19,28.97,207.39l-.02-.02c5.23-13.61,11.34-27.45,18.32-41.53,1.29-2.6,8.12-1.83,5.77,7.53-16.6,65.94-14.25,141.77,16.05,206.84,2.88,6.22,6.05,12.34,9.47,18.34,6.9,12.15,14.87,23.81,23.98,34.84,6.18,7.47,12.29,14.38,18.36,20.82,3.82,4.08,7.6,8,11.33,11.77,20.27,20.49,39.12,36.93,54.57,54.96,26.11,30.44,42.53,65.44,39.71,132.18Z" style="fill: #bb82fa; stroke-width: 0px;"/>
    <path d="m27.14,406.05s12.35-24.74,41.96-25.84c2.88,6.22,6.05,12.34,9.47,18.34-13.15,4.43-32.93,15.24-40.15,40.99l-11.28-33.48Z" style="fill: #d1a5ff; stroke-width: 0px;"/>
    <path d="m28.97,207.39s-25.2,120.64,14.67,215.8c15.15,36.18,35.66,59.69,56.44,80.25,33.85,33.53,68.41,59.2,81.65,119.11l-55.94-38.18c-23.75-21.55-45.1-45.01-63.06-70.38C4.55,431.77-18.02,329.5,28.97,207.39Z" style="fill: #8647cb; stroke-width: 0px;"/>
    <path d="m26.94,467.32c-9.42-19.7-6.8-35.94,4.72-29.23,11.51,6.71,23.29,31.33,21.19,44.32-2.1,12.99-16.49,4.6-25.91-15.1Z" style="fill: #d7b6fa; stroke-width: 0px;"/>
    <path d="m2.31,384.95c-3.03-17.39,2.68-29.59,10.29-21.96,7.61,7.63,11.4,29.37,6.83,39.13-4.57,9.76-14.08.22-17.12-17.17Z" style="fill: #d7b6fa; stroke-width: 0px;"/>
    <path d="m.03,309.91c.55-15.26,7.41-24.64,12.35-16.88,4.94,7.76,4.26,26.84-1.23,34.34-5.49,7.5-11.67-2.2-11.12-17.46Z" style="fill: #d7b6fa; stroke-width: 0px;"/>
    <path d="m20.02,249.86c-2.33,11.88-6.39,18.78-8.67,12.22-2.28-6.55.64-21.41,5.24-26.74,4.61-5.33,5.76,2.63,3.43,14.52Z" style="fill: #d7b6fa; stroke-width: 0px;"/>
    <path d="m226.51,653.12l-44.78-30.57c-13.25-59.91-47.81-85.59-81.66-119.11,21.13-3.22,28.26-16.1,32.16-37.46,20.27,20.49,39.12,36.93,54.57,54.96,22.75,40.2,41.55,88.71,39.71,132.18Z" style="fill: #8647cb; stroke-width: 0px;"/>
    <path d="m84.9,547.84c-16.64-17.13-18.58-35.65-3.49-33.33,15.08,2.32,35.88,23.73,37.43,38.54,1.55,14.81-17.3,11.92-33.94-5.21Z" style="fill: #d7b6fa; stroke-width: 0px;"/>
  </g>
  <path d="m159.98,317.34h721.51c10.18,0,18.44,8.26,18.44,18.44v805.06c0,14.76-11.98,26.74-26.74,26.74H168.27c-14.75,0-26.73-11.98-26.73-26.73V335.78c0-10.18,8.26-18.44,18.44-18.44Z" style="fill: #bb82fa; stroke-width: 0px;"/>
  <path d="m899.93,359.36v779.56c0,15.82-10.97,28.66-24.49,28.66H166.02c-13.52,0-24.49-12.84-24.49-28.66V359.36h758.4Z" style="fill: #0e0c12; stroke-width: 0px;"/>
  <circle cx="169.8" cy="340.11" r="7.79" style="fill: #fff; stroke-width: 0px;"/>
  <circle cx="194.42" cy="340.11" r="7.79" style="fill: #fff; stroke-width: 0px;"/>
  <circle cx="219.05" cy="340.11" r="7.79" style="fill: #fff; stroke-width: 0px;"/>
  <g>
    <path d="m224.79,413.14h10.6v1.7h-10.6v-1.7Zm.5-5.17h10.6v1.7h-10.6v-1.7Zm2.88-4.5h1.54l-1.99,16.4h-1.57l2.02-16.4Zm4.71,0h1.54l-1.99,16.4h-1.57l2.02-16.4Z" style="fill: #19a3ff; stroke-width: 0px;"/>
    <path d="m243.35,402.02h7.11v1.39h-5.15v18.92h5.15v1.39h-7.11v-21.69Z" style="fill: #19a3ff; stroke-width: 0px;"/>
    <path d="m260.68,409.56h-5.51v-2h8.02v12.32h-2.51v-10.32Zm-.82-6.2c0-1.06.79-1.79,1.87-1.79s1.87.73,1.87,1.79-.79,1.78-1.87,1.78-1.87-.7-1.87-1.78Z" style="fill: #19a3ff; stroke-width: 0px;"/>
    <path d="m270.32,407.55h2.05l.2,1.96h.1c1.23-1.27,2.64-2.27,4.54-2.27,2.88,0,4.2,1.77,4.2,4.98v7.65h-2.51v-7.32c0-2.15-.72-3.15-2.55-3.15-1.34,0-2.24.66-3.52,1.96v8.5h-2.51v-12.32Z" style="fill: #19a3ff; stroke-width: 0px;"/>
    <path d="m285.7,401.99h2.51v11.63h.1l6.07-6.07h2.82l-9,9.04v3.28h-2.51v-17.88Zm4.84,11.59l1.49-1.61,5.77,7.9h-2.76l-4.49-6.29Z" style="fill: #19a3ff; stroke-width: 0px;"/>
    <path d="m303.68,409.02c0-1.36.98-2.36,2.27-2.36s2.27,1,2.27,2.36-.98,2.36-2.27,2.36-2.27-.97-2.27-2.36Zm0,8.8c0-1.36.98-2.36,2.27-2.36s2.27,1,2.27,2.36-.98,2.36-2.27,2.36-2.27-.97-2.27-2.36Z" style="fill: #19a3ff; stroke-width: 0px;"/>
    <path d="m318.82,409.02c0-1.36.98-2.36,2.27-2.36s2.27,1,2.27,2.36-.98,2.36-2.27,2.36-2.27-.97-2.27-2.36Zm0,8.8c0-1.36.98-2.36,2.27-2.36s2.27,1,2.27,2.36-.98,2.36-2.27,2.36-2.27-.97-2.27-2.36Z" style="fill: #19a3ff; stroke-width: 0px;"/>
    <path d="m330.59,413.73c0-4.13,3.19-6.49,6.94-6.49,1.99,0,3.5.78,4.52,1.77l-1.21,1.59c-1-.82-2.01-1.29-3.2-1.29-2.65,0-4.47,1.76-4.47,4.42s1.8,4.38,4.41,4.38c1.46,0,2.68-.65,3.66-1.45l1.08,1.62c-1.4,1.22-3.15,1.9-4.94,1.9-3.86,0-6.78-2.36-6.78-6.44Z" style="fill: #19a3ff; stroke-width: 0px;"/>
    <path d="m345.23,413.73c0-4.13,2.89-6.49,6.14-6.49s6.14,2.36,6.14,6.49-2.89,6.44-6.14,6.44-6.14-2.36-6.14-6.44Zm9.7,0c0-2.66-1.38-4.42-3.57-4.42s-3.57,1.76-3.57,4.42,1.38,4.38,3.57,4.38,3.57-1.74,3.57-4.38Z" style="fill: #19a3ff; stroke-width: 0px;"/>
    <path d="m361.14,407.55h2.05l.2,1.96h.1c1.23-1.27,2.64-2.27,4.54-2.27,2.88,0,4.2,1.77,4.2,4.98v7.65h-2.51v-7.32c0-2.15-.72-3.15-2.55-3.15-1.34,0-2.24.66-3.52,1.96v8.5h-2.51v-12.32Z" style="fill: #19a3ff; stroke-width: 0px;"/>
    <path d="m379.06,415v-5.44h-3.4v-1.87l3.5-.13.33-3.91h2.08v3.91h5.82v2h-5.82v5.45c0,2.12.75,3.15,2.98,3.15,1.08,0,1.96-.22,2.81-.53l.51,1.83c-1.11.38-2.33.72-3.9.72-3.69,0-4.91-2.09-4.91-5.18Z" style="fill: #19a3ff; stroke-width: 0px;"/>
    <path d="m392.67,407.55h2.08l.22,2.86h.06c1.27-2.01,3.17-3.16,5.37-3.16.96,0,1.67.14,2.42.5l-.55,2.13c-.84-.27-1.31-.39-2.26-.39-1.77,0-3.47.9-4.83,3.39v6.99h-2.51v-12.32Z" style="fill: #19a3ff; stroke-width: 0px;"/>
    <path d="m406.24,416.62c0-2.76,2.51-4.12,8.73-4.59-.09-1.52-.91-2.75-3.1-2.75-1.49,0-2.96.68-4.17,1.39l-.96-1.68c1.38-.85,3.43-1.75,5.57-1.75,3.4,0,5.16,1.95,5.16,5.2v7.42h-2.08l-.2-1.6h-.08c-1.32,1.03-3.03,1.9-4.72,1.9-2.36,0-4.17-1.39-4.17-3.56Zm8.73-.1v-2.89c-4.84.35-6.28,1.32-6.28,2.79,0,1.24,1.11,1.75,2.43,1.75s2.57-.62,3.85-1.66Z" style="fill: #19a3ff; stroke-width: 0px;"/>
    <path d="m421.42,413.73c0-4.13,3.19-6.49,6.94-6.49,1.99,0,3.5.78,4.52,1.77l-1.21,1.59c-1-.82-2.01-1.29-3.2-1.29-2.65,0-4.47,1.76-4.47,4.42s1.8,4.38,4.41,4.38c1.46,0,2.68-.65,3.66-1.45l1.08,1.62c-1.4,1.22-3.15,1.9-4.94,1.9-3.86,0-6.78-2.36-6.78-6.44Z" style="fill: #19a3ff; stroke-width: 0px;"/>
    <path d="m439.61,415v-5.44h-3.4v-1.87l3.5-.13.33-3.91h2.08v3.91h5.82v2h-5.82v5.45c0,2.12.75,3.15,2.98,3.15,1.08,0,1.96-.22,2.81-.53l.51,1.83c-1.11.38-2.33.72-3.9.72-3.69,0-4.91-2.09-4.91-5.18Z" style="fill: #19a3ff; stroke-width: 0px;"/>
    <path d="m452.27,422.32h5.15v-18.92h-5.15v-1.39h7.11v21.69h-7.11v-1.39Z" style="fill: #19a3ff; stroke-width: 0px;"/>
    <path d="m224.91,437.83h2.05l.2,1.49h.08c1.1-1.04,2.66-1.79,4.11-1.79,3.26,0,5.06,2.46,5.06,6.28,0,4.19-2.62,6.65-5.54,6.65-1.13,0-2.45-.56-3.51-1.53h-.06l.12,2.25v4.01h-2.51v-17.36Zm8.92,5.99c0-2.58-.94-4.2-3.16-4.2-1.01,0-2.13.5-3.25,1.65v5.83c1.02.93,2.18,1.26,2.97,1.26,1.96,0,3.44-1.63,3.44-4.54Z" style="fill: #ffc259; stroke-width: 0px;"/>
    <path d="m239.68,445.47v-7.65h2.51v7.32c0,2.13.71,3.15,2.57,3.15,1.29,0,2.22-.57,3.45-2.03v-8.43h2.51v12.32h-2.07l-.2-2.05h-.1c-1.2,1.4-2.61,2.36-4.48,2.36-2.89,0-4.19-1.77-4.19-4.98Z" style="fill: #ffc259; stroke-width: 0px;"/>
    <path d="m257.48,448.79h-.08l-.23,1.36h-1.99v-17.88h2.51v4.74l-.11,2.27h.08c1.06-1.07,2.55-1.75,3.93-1.75,3.26,0,5.08,2.46,5.08,6.26,0,4.22-2.62,6.67-5.5,6.67-1.2,0-2.6-.62-3.71-1.66Zm6.63-4.97c0-2.58-.94-4.2-3.16-4.2-1.01,0-2.13.5-3.25,1.65v5.83c1.02.93,2.18,1.26,3.01,1.26,1.92,0,3.4-1.63,3.4-4.54Z" style="fill: #ffc259; stroke-width: 0px;"/>
    <path d="m284.56,437.83h1.96l.2,1.6h.06c.59-1.1,1.35-1.9,2.78-1.9,1.18,0,1.94.71,2.28,2.1.64-1.26,1.43-2.1,2.85-2.1,1.73,0,2.74,1.39,2.74,3.85v8.78h-2.44v-8.6c0-1.25-.35-1.88-1.15-1.88s-1.18.57-1.75,1.72v8.77h-2.17v-8.6c0-1.25-.32-1.88-1.12-1.88-.75,0-1.25.57-1.78,1.72v8.77h-2.44v-12.32Z" style="fill: #ffc259; stroke-width: 0px;"/>
    <path d="m299.81,444.01c0-4.12,2.89-6.49,6.14-6.49s6.14,2.36,6.14,6.49-2.89,6.44-6.14,6.44-6.14-2.36-6.14-6.44Zm9.7,0c0-2.66-1.38-4.42-3.57-4.42s-3.57,1.76-3.57,4.42,1.38,4.38,3.57,4.38,3.57-1.74,3.57-4.38Z" style="fill: #ffc259; stroke-width: 0px;"/>
    <path d="m314.95,444.01c0-4.01,2.64-6.49,5.5-6.49,1.44,0,2.52.56,3.55,1.51h.06l-.12-2.17v-4.6h2.51v17.88h-2.05l-.2-1.53h-.08c-.99,1-2.41,1.83-3.87,1.83-3.18,0-5.29-2.36-5.29-6.44Zm8.98,2.7v-5.83c-1-.93-1.94-1.26-2.92-1.26-1.92,0-3.5,1.67-3.5,4.36s1.24,4.38,3.3,4.38c1.12,0,2.14-.53,3.11-1.65Z" style="fill: #ffc259; stroke-width: 0px;"/>
    <path d="m346.26,437.96l3.52-.13h7.33v2.01h-10.86v-1.88Zm3.46-.98c0-2.95,1.59-5.01,5.11-5.01,1.27,0,2.47.25,3.6.7l-.54,1.87c-.95-.4-1.76-.56-2.79-.56-2.04,0-2.89,1.09-2.89,2.94v13.24h-2.49v-13.17Z" style="fill: #19a3ff; stroke-width: 0px;"/>
    <path d="m364.88,445.84v-11.56h-4.24v-2h6.75v13.72c0,1.71.97,2.4,2.32,2.4.67,0,1.39-.16,2.21-.52l.6,1.87c-1.18.46-2,.72-3.4.72-2.76,0-4.25-1.65-4.25-4.62Z" style="fill: #19a3ff; stroke-width: 0px;"/>
    <path d="m381.78,439.83h-5.51v-2.01h8.02v12.32h-2.51v-10.32Zm-.82-6.2c0-1.06.79-1.79,1.87-1.79s1.87.73,1.87,1.79-.79,1.78-1.87,1.78-1.87-.7-1.87-1.78Z" style="fill: #19a3ff; stroke-width: 0px;"/>
    <path d="m391.42,437.83h2.05l.2,1.49h.08c1.1-1.04,2.66-1.79,4.11-1.79,3.26,0,5.06,2.46,5.06,6.28,0,4.19-2.62,6.65-5.54,6.65-1.13,0-2.45-.56-3.51-1.53h-.06l.12,2.25v4.01h-2.51v-17.36Zm8.92,5.99c0-2.58-.94-4.2-3.16-4.2-1.01,0-2.13.5-3.25,1.65v5.83c1.02.93,2.18,1.26,2.97,1.26,1.96,0,3.44-1.63,3.44-4.54Z" style="fill: #19a3ff; stroke-width: 0px;"/>
    <path d="m406.55,437.83h2.05l.2,1.49h.08c1.1-1.04,2.66-1.79,4.11-1.79,3.26,0,5.06,2.46,5.06,6.28,0,4.19-2.62,6.65-5.54,6.65-1.13,0-2.45-.56-3.51-1.53h-.06l.12,2.25v4.01h-2.51v-17.36Zm8.92,5.99c0-2.58-.94-4.2-3.16-4.2-1.01,0-2.13.5-3.25,1.65v5.83c1.02.93,2.18,1.26,2.97,1.26,1.96,0,3.44-1.63,3.44-4.54Z" style="fill: #19a3ff; stroke-width: 0px;"/>
    <path d="m421.11,443.97c0-4.01,3.02-6.44,6.32-6.44,3.62,0,5.67,2.38,5.67,5.82,0,.53-.06,1.04-.11,1.36h-10.14v-1.84h8.58l-.54.61c0-2.67-1.29-4.01-3.38-4.01s-3.93,1.59-3.93,4.5,1.9,4.52,4.55,4.52c1.38,0,2.49-.42,3.6-1.08l.88,1.59c-1.27.84-2.91,1.46-4.8,1.46-3.74,0-6.69-2.38-6.69-6.49Z" style="fill: #19a3ff; stroke-width: 0px;"/>
    <path d="m438.08,437.83h2.08l.22,2.86h.06c1.27-2.01,3.17-3.16,5.37-3.16.96,0,1.67.14,2.42.5l-.55,2.13c-.84-.27-1.31-.39-2.26-.39-1.77,0-3.47.9-4.83,3.39v6.99h-2.51v-12.32Z" style="fill: #19a3ff; stroke-width: 0px;"/>
    <path d="m471.18,450.57c0-1.83.25-3.06.25-4.72,0-.96-.7-1.91-3.61-1.94v-1.54c2.91-.03,3.61-.98,3.61-1.94,0-1.58-.25-2.98-.25-4.72,0-2.63,1.5-3.42,4.68-3.42h1.66v1.39h-1.24c-2.45,0-2.98.58-2.98,2.16,0,1.41.14,2.9.14,4.45,0,1.71-.6,2.5-2.36,2.8v.1c1.76.3,2.36,1.09,2.36,2.8s-.14,2.96-.14,4.45c0,1.58.53,2.16,2.98,2.16h1.24v1.39h-1.66c-3.18,0-4.68-.79-4.68-3.42Z" style="fill: #fff; stroke-width: 0px;"/>
    <path d="m270.2,473.69h10.6v1.7h-10.6v-1.7Zm.5-5.17h10.6v1.7h-10.6v-1.7Zm2.88-4.5h1.54l-1.99,16.4h-1.57l2.02-16.4Zm4.71,0h1.54l-1.99,16.4h-1.57l2.02-16.4Z" style="fill: #19a3ff; stroke-width: 0px;"/>
    <path d="m288.76,462.57h7.11v1.39h-5.15v18.92h5.15v1.39h-7.11v-21.69Z" style="fill: #19a3ff; stroke-width: 0px;"/>
    <path d="m306.09,470.11h-5.51v-2h8.02v12.32h-2.51v-10.32Zm-.82-6.2c0-1.06.79-1.79,1.87-1.79s1.87.73,1.87,1.79-.79,1.78-1.87,1.78-1.87-.7-1.87-1.78Z" style="fill: #19a3ff; stroke-width: 0px;"/>
    <path d="m315.73,468.1h2.05l.2,1.96h.1c1.23-1.27,2.64-2.27,4.54-2.27,2.88,0,4.2,1.77,4.2,4.98v7.65h-2.51v-7.32c0-2.15-.72-3.15-2.55-3.15-1.34,0-2.24.66-3.52,1.96v8.5h-2.51v-12.32Z" style="fill: #19a3ff; stroke-width: 0px;"/>
    <path d="m331.12,462.54h2.51v11.63h.1l6.07-6.07h2.82l-9,9.04v3.28h-2.51v-17.88Zm4.84,11.59l1.49-1.61,5.77,7.9h-2.76l-4.49-6.29Z" style="fill: #19a3ff; stroke-width: 0px;"/>
    <path d="m348.86,473.41c0-4.84,2.12-8.7,5.57-11.47l1.39,1.21c-3.28,2.87-4.77,6.09-4.77,10.26s1.49,7.39,4.77,10.26l-1.39,1.21c-3.45-2.77-5.57-6.63-5.57-11.47Z" style="fill: #19a3ff; stroke-width: 0px;"/>
    <path d="m360.61,478.81l1.12-1.63c1.45,1,3.12,1.62,5.25,1.62,1.89,0,2.79-.75,2.79-1.68,0-.87-.51-1.42-3.62-2.06-3.25-.67-4.78-1.8-4.78-3.67,0-2.06,1.85-3.59,5.26-3.59,1.96,0,3.83.77,5.07,1.6l-1.18,1.57c-1.17-.78-2.59-1.26-4.11-1.26-1.83,0-2.54.72-2.54,1.57,0,.97.98,1.34,3.4,1.86,4.01.88,5.02,1.91,5.02,3.84,0,2.06-2,3.76-5.64,3.76-2.35,0-4.54-.88-6.05-1.92Z" style="fill: #19a3ff; stroke-width: 0px;"/>
    <path d="m379.06,475.55v-5.44h-3.4v-1.87l3.5-.13.33-3.91h2.08v3.91h5.82v2h-5.82v5.45c0,2.12.75,3.15,2.98,3.15,1.08,0,1.96-.22,2.81-.53l.51,1.83c-1.11.38-2.33.72-3.9.72-3.69,0-4.91-2.09-4.91-5.18Z" style="fill: #19a3ff; stroke-width: 0px;"/>
    <path d="m390.64,474.28c0-4.13,2.89-6.49,6.14-6.49s6.14,2.36,6.14,6.49-2.89,6.44-6.14,6.44-6.14-2.36-6.14-6.44Zm9.7,0c0-2.66-1.38-4.42-3.57-4.42s-3.57,1.76-3.57,4.42,1.38,4.38,3.57,4.38,3.57-1.74,3.57-4.38Z" style="fill: #19a3ff; stroke-width: 0px;"/>
    <path d="m407.81,468.1h2.08l.22,2.86h.06c1.27-2.01,3.17-3.16,5.37-3.16.96,0,1.67.14,2.42.5l-.55,2.13c-.84-.27-1.31-.39-2.26-.39-1.77,0-3.47.9-4.83,3.39v6.99h-2.51v-12.32Z" style="fill: #19a3ff; stroke-width: 0px;"/>
    <path d="m421.38,477.17c0-2.76,2.51-4.12,8.73-4.59-.09-1.52-.91-2.75-3.1-2.75-1.49,0-2.96.68-4.17,1.39l-.96-1.68c1.38-.85,3.43-1.75,5.57-1.75,3.4,0,5.16,1.95,5.16,5.2v7.42h-2.08l-.2-1.6h-.08c-1.32,1.03-3.03,1.9-4.72,1.9-2.36,0-4.17-1.39-4.17-3.56Zm8.73-.1v-2.89c-4.84.35-6.28,1.32-6.28,2.79,0,1.24,1.11,1.75,2.43,1.75s2.57-.62,3.85-1.66Z" style="fill: #19a3ff; stroke-width: 0px;"/>
    <path d="m436.3,482.64c0-.99.7-1.94,2-2.67v-.1c-.67-.37-1.26-1.01-1.26-2.05,0-.8.55-1.68,1.47-2.31v-.1c-.86-.63-1.55-1.72-1.55-3.19,0-2.76,2.3-4.43,4.96-4.43.72,0,1.33.1,1.88.3h5.07v1.96h-3.01c.48.53.91,1.36.91,2.25,0,2.69-2.14,4.21-4.85,4.21-.6,0-1.31-.13-1.98-.4-.55.35-.85.75-.85,1.29,0,.88.86,1.29,2.44,1.29h2.64c3.19,0,4.77.84,4.77,2.95,0,2.38-2.71,4.34-6.98,4.34-3.5,0-5.65-1.17-5.65-3.35Zm10.21-.58c0-1.07-.89-1.35-2.64-1.35h-2.18c-.76,0-1.37-.05-1.88-.19-1.02.57-1.39,1.19-1.39,1.83,0,1.2,1.34,1.92,3.79,1.92,2.63,0,4.3-1.05,4.3-2.21Zm-2-9.83c0-1.61-1.16-2.66-2.58-2.66s-2.58,1.05-2.58,2.66,1.17,2.69,2.58,2.69,2.58-1.03,2.58-2.69Z" style="fill: #19a3ff; stroke-width: 0px;"/>
    <path d="m451.39,474.24c0-4.01,3.02-6.44,6.32-6.44,3.62,0,5.67,2.38,5.67,5.82,0,.53-.06,1.04-.11,1.37h-10.14v-1.84h8.57l-.54.61c0-2.67-1.29-4.01-3.38-4.01s-3.93,1.59-3.93,4.5,1.9,4.52,4.55,4.52c1.38,0,2.49-.42,3.6-1.08l.88,1.59c-1.27.83-2.91,1.46-4.8,1.46-3.74,0-6.69-2.38-6.69-6.49Z" style="fill: #19a3ff; stroke-width: 0px;"/>
    <path d="m468,483.67c3.28-2.87,4.77-6.09,4.77-10.26s-1.49-7.39-4.77-10.26l1.39-1.21c3.45,2.77,5.57,6.63,5.57,11.47s-2.12,8.7-5.57,11.47l-1.39-1.21Z" style="fill: #19a3ff; stroke-width: 0px;"/>
    <path d="m482.54,482.87h5.15v-18.92h-5.15v-1.39h7.11v21.69h-7.11v-1.39Z" style="fill: #19a3ff; stroke-width: 0px;"/>
    <path d="m270.32,498.38h2.05l.2,1.49h.08c1.1-1.04,2.66-1.79,4.11-1.79,3.26,0,5.06,2.46,5.06,6.28,0,4.19-2.62,6.65-5.54,6.65-1.13,0-2.45-.56-3.51-1.53h-.06l.12,2.25v4.01h-2.51v-17.36Zm8.92,5.99c0-2.58-.94-4.2-3.16-4.2-1.01,0-2.13.5-3.25,1.65v5.83c1.02.93,2.18,1.26,2.97,1.26,1.96,0,3.44-1.63,3.44-4.54Z" style="fill: #ffc259; stroke-width: 0px;"/>
    <path d="m285.09,506.02v-7.65h2.51v7.32c0,2.13.71,3.15,2.57,3.15,1.29,0,2.22-.57,3.45-2.03v-8.43h2.51v12.32h-2.07l-.2-2.05h-.1c-1.2,1.4-2.61,2.36-4.48,2.36-2.89,0-4.19-1.77-4.19-4.98Z" style="fill: #ffc259; stroke-width: 0px;"/>
    <path d="m302.89,509.34h-.08l-.23,1.36h-1.99v-17.88h2.51v4.74l-.11,2.27h.08c1.06-1.07,2.55-1.75,3.93-1.75,3.26,0,5.08,2.46,5.08,6.26,0,4.22-2.62,6.67-5.5,6.67-1.2,0-2.6-.62-3.71-1.66Zm6.63-4.97c0-2.58-.94-4.2-3.16-4.2-1.01,0-2.13.5-3.25,1.65v5.83c1.02.93,2.18,1.26,3.01,1.26,1.92,0,3.4-1.63,3.4-4.54Z" style="fill: #ffc259; stroke-width: 0px;"/>
    <path d="m330.33,509.09l1.12-1.63c1.45.99,3.12,1.62,5.25,1.62,1.89,0,2.79-.75,2.79-1.68,0-.87-.51-1.42-3.62-2.06-3.25-.67-4.78-1.8-4.78-3.67,0-2.06,1.85-3.59,5.26-3.59,1.96,0,3.83.77,5.07,1.6l-1.18,1.57c-1.17-.78-2.59-1.26-4.11-1.26-1.83,0-2.54.72-2.54,1.57,0,.96.98,1.34,3.4,1.86,4.01.88,5.02,1.91,5.02,3.84,0,2.06-2,3.76-5.64,3.76-2.35,0-4.54-.88-6.05-1.92Z" style="fill: #ffc259; stroke-width: 0px;"/>
    <path d="m348.79,505.83v-5.44h-3.4v-1.88l3.5-.13.33-3.91h2.08v3.91h5.82v2.01h-5.82v5.45c0,2.12.75,3.15,2.98,3.15,1.08,0,1.96-.22,2.81-.53l.51,1.84c-1.11.38-2.33.72-3.9.72-3.69,0-4.91-2.08-4.91-5.18Z" style="fill: #ffc259; stroke-width: 0px;"/>
    <path d="m362.4,498.38h2.08l.22,2.86h.06c1.27-2.01,3.17-3.16,5.37-3.16.96,0,1.67.14,2.42.5l-.55,2.13c-.84-.27-1.31-.39-2.26-.39-1.77,0-3.47.9-4.83,3.39v6.99h-2.51v-12.32Z" style="fill: #ffc259; stroke-width: 0px;"/>
    <path d="m375.91,506.02v-7.65h2.51v7.32c0,2.13.71,3.15,2.57,3.15,1.29,0,2.22-.57,3.45-2.03v-8.43h2.51v12.32h-2.07l-.2-2.05h-.1c-1.2,1.4-2.61,2.36-4.48,2.36-2.89,0-4.19-1.77-4.19-4.98Z" style="fill: #ffc259; stroke-width: 0px;"/>
    <path d="m391.14,504.56c0-4.12,3.19-6.49,6.94-6.49,1.99,0,3.5.78,4.52,1.77l-1.21,1.59c-1-.81-2.01-1.29-3.2-1.29-2.65,0-4.47,1.76-4.47,4.42s1.8,4.38,4.41,4.38c1.46,0,2.68-.65,3.66-1.45l1.08,1.62c-1.4,1.22-3.15,1.9-4.94,1.9-3.86,0-6.78-2.36-6.78-6.44Z" style="fill: #ffc259; stroke-width: 0px;"/>
    <path d="m409.33,505.83v-5.44h-3.4v-1.88l3.5-.13.33-3.91h2.08v3.91h5.82v2.01h-5.82v5.45c0,2.12.75,3.15,2.98,3.15,1.08,0,1.96-.22,2.81-.53l.51,1.84c-1.11.38-2.33.72-3.9.72-3.69,0-4.91-2.08-4.91-5.18Z" style="fill: #ffc259; stroke-width: 0px;"/>
    <path d="m437.79,494.18h10.36v2.13h-7.83v5.12h6.64v2.13h-6.64v7.13h-2.53v-16.52Z" style="fill: #19a3ff; stroke-width: 0px;"/>
    <path d="m455.7,506.39v-11.56h-4.24v-2h6.75v13.72c0,1.71.97,2.4,2.32,2.4.67,0,1.39-.16,2.21-.52l.6,1.87c-1.18.46-2,.72-3.4.72-2.76,0-4.25-1.65-4.25-4.62Z" style="fill: #19a3ff; stroke-width: 0px;"/>
    <path d="m472.6,500.38h-5.51v-2.01h8.02v12.32h-2.51v-10.32Zm-.82-6.2c0-1.06.79-1.79,1.87-1.79s1.87.73,1.87,1.79-.79,1.78-1.87,1.78-1.87-.7-1.87-1.78Z" style="fill: #19a3ff; stroke-width: 0px;"/>
    <path d="m482.24,498.38h2.05l.2,1.49h.08c1.1-1.04,2.66-1.79,4.11-1.79,3.26,0,5.06,2.46,5.06,6.28,0,4.19-2.62,6.65-5.54,6.65-1.13,0-2.45-.56-3.51-1.53h-.06l.12,2.25v4.01h-2.51v-17.36Zm8.92,5.99c0-2.58-.94-4.2-3.16-4.2-1.01,0-2.13.5-3.25,1.65v5.83c1.02.93,2.18,1.26,2.97,1.26,1.96,0,3.44-1.63,3.44-4.54Z" style="fill: #19a3ff; stroke-width: 0px;"/>
    <path d="m497.38,498.38h2.05l.2,1.49h.08c1.1-1.04,2.66-1.79,4.11-1.79,3.26,0,5.06,2.46,5.06,6.28,0,4.19-2.62,6.65-5.54,6.65-1.13,0-2.45-.56-3.51-1.53h-.06l.12,2.25v4.01h-2.51v-17.36Zm8.92,5.99c0-2.58-.94-4.2-3.16-4.2-1.01,0-2.13.5-3.25,1.65v5.83c1.02.93,2.18,1.26,2.97,1.26,1.96,0,3.44-1.63,3.44-4.54Z" style="fill: #19a3ff; stroke-width: 0px;"/>
    <path d="m511.94,504.52c0-4.01,3.02-6.44,6.32-6.44,3.62,0,5.67,2.38,5.67,5.82,0,.53-.06,1.04-.11,1.36h-10.14v-1.84h8.58l-.54.61c0-2.67-1.29-4.01-3.38-4.01s-3.93,1.59-3.93,4.5,1.9,4.52,4.55,4.52c1.38,0,2.49-.42,3.6-1.08l.88,1.59c-1.27.84-2.91,1.46-4.8,1.46-3.74,0-6.69-2.38-6.69-6.49Z" style="fill: #19a3ff; stroke-width: 0px;"/>
    <path d="m528.91,498.38h2.08l.22,2.86h.06c1.27-2.01,3.17-3.16,5.37-3.16.96,0,1.67.14,2.42.5l-.55,2.13c-.84-.27-1.31-.39-2.26-.39-1.77,0-3.47.9-4.83,3.39v6.99h-2.51v-12.32Z" style="fill: #19a3ff; stroke-width: 0px;"/>
    <path d="m562,511.12c0-1.83.25-3.06.25-4.72,0-.96-.7-1.91-3.61-1.94v-1.54c2.91-.03,3.61-.98,3.61-1.94,0-1.58-.25-2.98-.25-4.72,0-2.63,1.5-3.42,4.68-3.42h1.66v1.39h-1.24c-2.45,0-2.98.58-2.98,2.16,0,1.41.14,2.9.14,4.45,0,1.71-.6,2.5-2.36,2.8v.1c1.76.3,2.36,1.09,2.36,2.8s-.14,2.96-.14,4.45c0,1.58.53,2.16,2.98,2.16h1.24v1.39h-1.66c-3.18,0-4.68-.79-4.68-3.42Z" style="fill: #fff; stroke-width: 0px;"/>
    <path d="m314.66,528.65h2.55l2.6,6.67c.46,1.24.89,2.47,1.3,3.69h.1c.42-1.22.8-2.45,1.28-3.69l2.6-6.67h2.41l-4.96,12.32h-2.84l-5.05-12.32Z" style="fill: #19a3ff; stroke-width: 0px;"/>
    <path d="m330.56,537.72c0-2.76,2.51-4.12,8.73-4.59-.09-1.52-.91-2.75-3.1-2.75-1.49,0-2.96.68-4.17,1.39l-.96-1.68c1.38-.85,3.43-1.75,5.57-1.75,3.4,0,5.16,1.95,5.16,5.21v7.42h-2.08l-.2-1.6h-.08c-1.32,1.03-3.03,1.9-4.72,1.9-2.36,0-4.17-1.38-4.17-3.56Zm8.73-.1v-2.89c-4.84.35-6.28,1.32-6.28,2.79,0,1.24,1.11,1.75,2.43,1.75s2.57-.62,3.85-1.66Z" style="fill: #19a3ff; stroke-width: 0px;"/>
    <path d="m349.74,536.66v-11.56h-4.24v-2h6.75v13.72c0,1.71.97,2.4,2.32,2.4.67,0,1.39-.16,2.21-.52l.6,1.87c-1.18.46-2,.72-3.4.72-2.76,0-4.25-1.65-4.25-4.62Z" style="fill: #19a3ff; stroke-width: 0px;"/>
    <path d="m360.78,536.3v-7.65h2.51v7.32c0,2.13.71,3.15,2.57,3.15,1.29,0,2.22-.57,3.45-2.03v-8.43h2.51v12.32h-2.07l-.2-2.05h-.1c-1.2,1.4-2.61,2.36-4.48,2.36-2.89,0-4.19-1.77-4.19-4.98Z" style="fill: #19a3ff; stroke-width: 0px;"/>
    <path d="m375.7,534.79c0-4.01,3.02-6.44,6.32-6.44,3.62,0,5.67,2.38,5.67,5.82,0,.53-.06,1.04-.11,1.36h-10.14v-1.84h8.58l-.54.61c0-2.67-1.29-4.01-3.38-4.01s-3.93,1.59-3.93,4.5,1.9,4.52,4.55,4.52c1.38,0,2.49-.42,3.6-1.08l.88,1.59c-1.27.84-2.91,1.46-4.8,1.46-3.74,0-6.69-2.38-6.69-6.49Z" style="fill: #19a3ff; stroke-width: 0px;"/>
    <path d="m394.5,530.12c0-1.36.98-2.36,2.27-2.36s2.27,1,2.27,2.36-.98,2.36-2.27,2.36-2.27-.97-2.27-2.36Zm0,8.8c0-1.36.98-2.36,2.27-2.36s2.27,1,2.27,2.36-.98,2.36-2.27,2.36-2.27-.97-2.27-2.36Z" style="fill: #fff; stroke-width: 0px;"/>
    <path d="m423.99,539.61h-.08l-.23,1.36h-1.99v-17.88h2.51v4.74l-.11,2.27h.08c1.06-1.07,2.55-1.75,3.93-1.75,3.26,0,5.08,2.46,5.08,6.26,0,4.22-2.62,6.67-5.5,6.67-1.2,0-2.6-.62-3.71-1.66Zm6.63-4.97c0-2.58-.94-4.2-3.16-4.2-1.01,0-2.13.5-3.25,1.65v5.83c1.02.93,2.18,1.26,3.01,1.26,1.92,0,3.4-1.63,3.4-4.54Z" style="fill: #f55; stroke-width: 0px;"/>
    <path d="m436.05,534.83c0-4.12,2.89-6.49,6.14-6.49s6.14,2.36,6.14,6.49-2.89,6.44-6.14,6.44-6.14-2.36-6.14-6.44Zm9.7,0c0-2.66-1.38-4.42-3.57-4.42s-3.57,1.76-3.57,4.42,1.38,4.38,3.57,4.38,3.57-1.74,3.57-4.38Z" style="fill: #f55; stroke-width: 0px;"/>
    <path d="m451.19,534.83c0-4.12,2.89-6.49,6.14-6.49s6.14,2.36,6.14,6.49-2.89,6.44-6.14,6.44-6.14-2.36-6.14-6.44Zm9.7,0c0-2.66-1.38-4.42-3.57-4.42s-3.57,1.76-3.57,4.42,1.38,4.38,3.57,4.38,3.57-1.74,3.57-4.38Z" style="fill: #f55; stroke-width: 0px;"/>
    <path d="m470.84,536.66v-11.56h-4.24v-2h6.75v13.72c0,1.71.97,2.4,2.32,2.4.67,0,1.39-.16,2.21-.52l.6,1.87c-1.18.46-2,.72-3.4.72-2.76,0-4.25-1.65-4.25-4.62Z" style="fill: #f55; stroke-width: 0px;"/>
    <path d="m484.89,544.84c2.17-.92,3.23-2.25,3.2-4.22l-.37-2.5,1.44,2.13c-.42.44-.95.58-1.48.58-1.17,0-2.17-.71-2.17-2.07s1.02-2.09,2.23-2.09c1.63,0,2.49,1.33,2.49,3.51,0,3.02-1.71,5.15-4.67,6.19l-.69-1.53Z" style="fill: #fff; stroke-width: 0px;"/>
    <path d="m270.65,573.7h1.22c2.45,0,3-.58,3-2.16,0-1.49-.14-2.78-.14-4.45s.58-2.5,2.34-2.8v-.1c-1.76-.3-2.34-1.09-2.34-2.8,0-1.54.14-3.04.14-4.45,0-1.58-.55-2.16-3-2.16h-1.22v-1.39h1.64c3.2,0,4.66.79,4.66,3.42,0,1.75-.24,3.14-.24,4.72,0,.96.7,1.91,3.61,1.94v1.54c-2.92.03-3.61.98-3.61,1.94,0,1.67.24,2.9.24,4.72,0,2.63-1.46,3.42-4.66,3.42h-1.64v-1.39Z" style="fill: #fff; stroke-width: 0px;"/>
    <path d="m275.82,621.48h-5.51v-2h8.02v12.32h-2.51v-10.32Zm-.82-6.2c0-1.06.79-1.79,1.87-1.79s1.87.73,1.87,1.79-.79,1.78-1.87,1.78-1.87-.7-1.87-1.78Z" style="fill: #ffc259; stroke-width: 0px;"/>
    <path d="m284.56,619.48h1.96l.2,1.59h.06c.59-1.1,1.35-1.9,2.78-1.9,1.18,0,1.94.71,2.28,2.1.64-1.26,1.43-2.1,2.85-2.1,1.73,0,2.74,1.39,2.74,3.85v8.78h-2.44v-8.6c0-1.25-.35-1.88-1.15-1.88s-1.18.57-1.75,1.72v8.77h-2.17v-8.6c0-1.25-.32-1.88-1.12-1.88-.75,0-1.25.57-1.78,1.72v8.77h-2.44v-12.32Z" style="fill: #ffc259; stroke-width: 0px;"/>
    <path d="m300.59,619.48h2.05l.2,1.49h.08c1.1-1.04,2.66-1.79,4.11-1.79,3.26,0,5.06,2.46,5.06,6.28,0,4.2-2.62,6.65-5.54,6.65-1.13,0-2.45-.56-3.51-1.53h-.06l.12,2.25v4.01h-2.51v-17.36Zm8.92,5.99c0-2.58-.94-4.2-3.16-4.2-1.01,0-2.13.5-3.25,1.65v5.83c1.02.93,2.18,1.26,2.97,1.26,1.96,0,3.44-1.63,3.44-4.54Z" style="fill: #ffc259; stroke-width: 0px;"/>
    <path d="m319.46,627.49v-11.56h-4.24v-2.01h6.75v13.72c0,1.71.97,2.4,2.32,2.4.67,0,1.39-.16,2.21-.52l.6,1.87c-1.18.46-2,.72-3.4.72-2.76,0-4.25-1.65-4.25-4.62Z" style="fill: #ffc259; stroke-width: 0px;"/>
    <path d="m346.97,615.28h10.36v2.13h-7.83v5.12h6.64v2.13h-6.64v7.13h-2.53v-16.52Z" style="fill: #19a3ff; stroke-width: 0px;"/>
    <path d="m364.88,627.49v-11.56h-4.24v-2.01h6.75v13.72c0,1.71.97,2.4,2.32,2.4.67,0,1.39-.16,2.21-.52l.6,1.87c-1.18.46-2,.72-3.4.72-2.76,0-4.25-1.65-4.25-4.62Z" style="fill: #19a3ff; stroke-width: 0px;"/>
    <path d="m381.78,621.48h-5.51v-2h8.02v12.32h-2.51v-10.32Zm-.82-6.2c0-1.06.79-1.79,1.87-1.79s1.87.73,1.87,1.79-.79,1.78-1.87,1.78-1.87-.7-1.87-1.78Z" style="fill: #19a3ff; stroke-width: 0px;"/>
    <path d="m391.42,619.48h2.05l.2,1.49h.08c1.1-1.04,2.66-1.79,4.11-1.79,3.26,0,5.06,2.46,5.06,6.28,0,4.2-2.62,6.65-5.54,6.65-1.13,0-2.45-.56-3.51-1.53h-.06l.12,2.25v4.01h-2.51v-17.36Zm8.92,5.99c0-2.58-.94-4.2-3.16-4.2-1.01,0-2.13.5-3.25,1.65v5.83c1.02.93,2.18,1.26,2.97,1.26,1.96,0,3.44-1.63,3.44-4.54Z" style="fill: #19a3ff; stroke-width: 0px;"/>
    <path d="m406.55,619.48h2.05l.2,1.49h.08c1.1-1.04,2.66-1.79,4.11-1.79,3.26,0,5.06,2.46,5.06,6.28,0,4.2-2.62,6.65-5.54,6.65-1.13,0-2.45-.56-3.51-1.53h-.06l.12,2.25v4.01h-2.51v-17.36Zm8.92,5.99c0-2.58-.94-4.2-3.16-4.2-1.01,0-2.13.5-3.25,1.65v5.83c1.02.93,2.18,1.26,2.97,1.26,1.96,0,3.44-1.63,3.44-4.54Z" style="fill: #19a3ff; stroke-width: 0px;"/>
    <path d="m421.11,625.62c0-4.01,3.02-6.44,6.32-6.44,3.62,0,5.67,2.38,5.67,5.82,0,.53-.06,1.04-.11,1.37h-10.14v-1.84h8.58l-.54.61c0-2.67-1.29-4.01-3.38-4.01s-3.93,1.59-3.93,4.5,1.9,4.52,4.55,4.52c1.38,0,2.49-.42,3.6-1.08l.88,1.59c-1.27.83-2.91,1.46-4.8,1.46-3.74,0-6.69-2.38-6.69-6.49Z" style="fill: #19a3ff; stroke-width: 0px;"/>
    <path d="m438.08,619.48h2.08l.22,2.86h.06c1.27-2.01,3.17-3.16,5.37-3.16.96,0,1.67.14,2.42.5l-.55,2.13c-.84-.27-1.31-.39-2.26-.39-1.77,0-3.47.9-4.83,3.39v6.99h-2.51v-12.32Z" style="fill: #19a3ff; stroke-width: 0px;"/>
    <path d="m471.18,632.22c0-1.83.25-3.06.25-4.72,0-.96-.7-1.91-3.61-1.94v-1.54c2.91-.03,3.61-.98,3.61-1.94,0-1.58-.25-2.98-.25-4.72,0-2.63,1.5-3.42,4.68-3.42h1.66v1.39h-1.24c-2.45,0-2.98.58-2.98,2.16,0,1.41.14,2.9.14,4.45,0,1.71-.6,2.5-2.36,2.8v.1c1.76.3,2.36,1.09,2.36,2.8s-.14,2.96-.14,4.45c0,1.58.53,2.16,2.98,2.16h1.24v1.39h-1.66c-3.18,0-4.68-.79-4.68-3.42Z" style="fill: #fff; stroke-width: 0px;"/>
    <path d="m315.61,655.34h10.6v1.7h-10.6v-1.7Zm.5-5.17h10.6v1.7h-10.6v-1.7Zm2.88-4.5h1.54l-1.99,16.39h-1.57l2.02-16.39Zm4.71,0h1.54l-1.99,16.39h-1.57l2.02-16.39Z" style="fill: #19a3ff; stroke-width: 0px;"/>
    <path d="m334.17,644.22h7.11v1.39h-5.15v18.92h5.15v1.39h-7.11v-21.69Z" style="fill: #19a3ff; stroke-width: 0px;"/>
    <path d="m351.5,651.76h-5.51v-2.01h8.02v12.32h-2.51v-10.32Zm-.82-6.2c0-1.06.79-1.79,1.87-1.79s1.87.73,1.87,1.79-.79,1.78-1.87,1.78-1.87-.7-1.87-1.78Z" style="fill: #19a3ff; stroke-width: 0px;"/>
    <path d="m361.14,649.75h2.05l.2,1.96h.1c1.23-1.27,2.64-2.27,4.54-2.27,2.88,0,4.2,1.77,4.2,4.98v7.65h-2.51v-7.32c0-2.15-.72-3.15-2.55-3.15-1.34,0-2.24.66-3.52,1.96v8.5h-2.51v-12.32Z" style="fill: #19a3ff; stroke-width: 0px;"/>
    <path d="m376.53,644.19h2.51v11.63h.1l6.07-6.07h2.82l-9,9.04v3.28h-2.51v-17.88Zm4.84,11.59l1.49-1.61,5.77,7.9h-2.76l-4.49-6.29Z" style="fill: #19a3ff; stroke-width: 0px;"/>
    <path d="m394.28,655.06c0-4.83,2.12-8.7,5.57-11.47l1.39,1.21c-3.28,2.87-4.77,6.09-4.77,10.26s1.49,7.39,4.77,10.26l-1.39,1.21c-3.45-2.77-5.57-6.63-5.57-11.47Z" style="fill: #19a3ff; stroke-width: 0px;"/>
    <path d="m406.28,655.93c0-4.12,3.19-6.49,6.94-6.49,1.99,0,3.5.78,4.52,1.77l-1.21,1.59c-1-.81-2.01-1.29-3.2-1.29-2.65,0-4.47,1.76-4.47,4.42s1.8,4.38,4.41,4.38c1.46,0,2.68-.65,3.66-1.45l1.08,1.62c-1.4,1.22-3.15,1.9-4.94,1.9-3.86,0-6.78-2.36-6.78-6.44Z" style="fill: #19a3ff; stroke-width: 0px;"/>
    <path d="m420.91,655.93c0-4.12,2.89-6.49,6.14-6.49s6.14,2.36,6.14,6.49-2.89,6.44-6.14,6.44-6.14-2.36-6.14-6.44Zm9.7,0c0-2.66-1.38-4.42-3.57-4.42s-3.57,1.76-3.57,4.42,1.38,4.38,3.57,4.38,3.57-1.74,3.57-4.38Z" style="fill: #19a3ff; stroke-width: 0px;"/>
    <path d="m436.83,649.75h2.05l.2,1.96h.1c1.23-1.27,2.64-2.27,4.54-2.27,2.88,0,4.2,1.77,4.2,4.98v7.65h-2.51v-7.32c0-2.15-.72-3.15-2.55-3.15-1.34,0-2.24.66-3.52,1.96v8.5h-2.51v-12.32Z" style="fill: #19a3ff; stroke-width: 0px;"/>
    <path d="m451.43,660.46l1.12-1.63c1.45.99,3.12,1.62,5.25,1.62,1.89,0,2.79-.75,2.79-1.68,0-.87-.51-1.42-3.62-2.06-3.25-.67-4.78-1.8-4.78-3.67,0-2.06,1.85-3.59,5.26-3.59,1.96,0,3.83.77,5.07,1.6l-1.18,1.57c-1.17-.78-2.59-1.26-4.11-1.26-1.83,0-2.54.72-2.54,1.57,0,.96.98,1.34,3.4,1.86,4.01.88,5.02,1.91,5.02,3.84,0,2.06-2,3.76-5.64,3.76-2.35,0-4.54-.88-6.05-1.92Z" style="fill: #19a3ff; stroke-width: 0px;"/>
    <path d="m469.88,657.2v-5.44h-3.4v-1.88l3.5-.13.33-3.91h2.08v3.91h5.82v2.01h-5.82v5.45c0,2.12.75,3.15,2.98,3.15,1.08,0,1.96-.22,2.81-.53l.51,1.84c-1.11.38-2.33.72-3.9.72-3.69,0-4.91-2.08-4.91-5.18Z" style="fill: #19a3ff; stroke-width: 0px;"/>
    <path d="m483.5,649.75h2.08l.22,2.86h.06c1.27-2.01,3.17-3.16,5.37-3.16.96,0,1.67.14,2.42.5l-.55,2.13c-.84-.27-1.31-.39-2.26-.39-1.77,0-3.47.9-4.83,3.39v6.99h-2.51v-12.32Z" style="fill: #19a3ff; stroke-width: 0px;"/>
    <path d="m497.01,657.4v-7.65h2.51v7.32c0,2.13.71,3.15,2.57,3.15,1.29,0,2.22-.57,3.45-2.03v-8.43h2.51v12.32h-2.07l-.2-2.05h-.1c-1.2,1.4-2.61,2.36-4.48,2.36-2.89,0-4.19-1.77-4.19-4.98Z" style="fill: #19a3ff; stroke-width: 0px;"/>
    <path d="m512.24,655.93c0-4.12,3.19-6.49,6.94-6.49,1.99,0,3.5.78,4.52,1.77l-1.21,1.59c-1-.81-2.01-1.29-3.2-1.29-2.65,0-4.47,1.76-4.47,4.42s1.8,4.38,4.41,4.38c1.46,0,2.68-.65,3.66-1.45l1.08,1.62c-1.4,1.22-3.15,1.9-4.94,1.9-3.86,0-6.78-2.36-6.78-6.44Z" style="fill: #19a3ff; stroke-width: 0px;"/>
    <path d="m530.43,657.2v-5.44h-3.4v-1.88l3.5-.13.33-3.91h2.08v3.91h5.82v2.01h-5.82v5.45c0,2.12.75,3.15,2.98,3.15,1.08,0,1.96-.22,2.81-.53l.51,1.84c-1.11.38-2.33.72-3.9.72-3.69,0-4.91-2.08-4.91-5.18Z" style="fill: #19a3ff; stroke-width: 0px;"/>
    <path d="m542.01,655.93c0-4.12,2.89-6.49,6.14-6.49s6.14,2.36,6.14,6.49-2.89,6.44-6.14,6.44-6.14-2.36-6.14-6.44Zm9.7,0c0-2.66-1.38-4.42-3.57-4.42s-3.57,1.76-3.57,4.42,1.38,4.38,3.57,4.38,3.57-1.74,3.57-4.38Z" style="fill: #19a3ff; stroke-width: 0px;"/>
    <path d="m559.18,649.75h2.08l.22,2.86h.06c1.27-2.01,3.17-3.16,5.37-3.16.96,0,1.67.14,2.42.5l-.55,2.13c-.84-.27-1.31-.39-2.26-.39-1.77,0-3.47.9-4.83,3.39v6.99h-2.51v-12.32Z" style="fill: #19a3ff; stroke-width: 0px;"/>
    <path d="m573.96,665.32c3.28-2.87,4.77-6.09,4.77-10.26s-1.49-7.39-4.77-10.26l1.39-1.21c3.45,2.77,5.57,6.63,5.57,11.47s-2.12,8.7-5.57,11.47l-1.39-1.21Z" style="fill: #19a3ff; stroke-width: 0px;"/>
    <path d="m588.5,664.52h5.15v-18.92h-5.15v-1.39h7.11v21.69h-7.11v-1.39Z" style="fill: #19a3ff; stroke-width: 0px;"/>
    <path d="m315.73,680.03h2.05l.2,1.49h.08c1.1-1.04,2.66-1.79,4.11-1.79,3.26,0,5.06,2.46,5.06,6.28,0,4.2-2.62,6.65-5.54,6.65-1.13,0-2.45-.56-3.51-1.53h-.06l.12,2.25v4.01h-2.51v-17.36Zm8.92,5.99c0-2.58-.94-4.2-3.16-4.2-1.01,0-2.13.5-3.25,1.65v5.83c1.02.93,2.18,1.26,2.97,1.26,1.96,0,3.44-1.63,3.44-4.54Z" style="fill: #ffc259; stroke-width: 0px;"/>
    <path d="m330.5,687.67v-7.65h2.51v7.32c0,2.13.71,3.15,2.57,3.15,1.29,0,2.22-.57,3.45-2.03v-8.43h2.51v12.32h-2.07l-.2-2.05h-.1c-1.2,1.4-2.61,2.36-4.48,2.36-2.89,0-4.19-1.77-4.19-4.98Z" style="fill: #ffc259; stroke-width: 0px;"/>
    <path d="m348.3,690.99h-.08l-.23,1.36h-1.99v-17.88h2.51v4.74l-.11,2.27h.08c1.06-1.07,2.55-1.75,3.93-1.75,3.26,0,5.08,2.46,5.08,6.26,0,4.22-2.62,6.67-5.5,6.67-1.2,0-2.6-.62-3.71-1.67Zm6.63-4.97c0-2.58-.94-4.2-3.16-4.2-1.01,0-2.13.5-3.25,1.65v5.83c1.02.93,2.18,1.26,3.01,1.26,1.92,0,3.4-1.63,3.4-4.54Z" style="fill: #ffc259; stroke-width: 0px;"/>
    <path d="m376.53,680.16l3.52-.13h7.33v2h-10.86v-1.87Zm3.46-.98c0-2.95,1.59-5.01,5.11-5.01,1.27,0,2.47.25,3.6.7l-.54,1.87c-.95-.4-1.76-.56-2.79-.56-2.04,0-2.89,1.09-2.89,2.94v13.24h-2.49v-13.17Z" style="fill: #ffc259; stroke-width: 0px;"/>
    <path d="m391.42,680.03h2.05l.2,1.96h.1c1.23-1.27,2.64-2.27,4.54-2.27,2.88,0,4.2,1.77,4.2,4.98v7.65h-2.51v-7.32c0-2.15-.72-3.15-2.55-3.15-1.34,0-2.24.66-3.52,1.96v8.5h-2.51v-12.32Z" style="fill: #ffc259; stroke-width: 0px;"/>
    <path d="m421.69,680.03h2.05l.2,1.96h.1c1.23-1.27,2.64-2.27,4.54-2.27,2.88,0,4.2,1.77,4.2,4.98v7.65h-2.51v-7.32c0-2.15-.72-3.15-2.55-3.15-1.34,0-2.24.66-3.52,1.96v8.5h-2.51v-12.32Z" style="fill: #19a3ff; stroke-width: 0px;"/>
    <path d="m436.25,686.17c0-4.01,3.02-6.44,6.32-6.44,3.62,0,5.67,2.38,5.67,5.82,0,.53-.06,1.04-.11,1.37h-10.14v-1.84h8.58l-.54.61c0-2.67-1.29-4.01-3.38-4.01s-3.93,1.59-3.93,4.5,1.9,4.52,4.55,4.52c1.38,0,2.49-.42,3.6-1.08l.88,1.59c-1.27.83-2.91,1.46-4.8,1.46-3.74,0-6.69-2.38-6.69-6.49Z" style="fill: #19a3ff; stroke-width: 0px;"/>
    <path d="m449.93,680.03h2.46l1.28,6.77c.21,1.18.37,2.28.52,3.46h.1c.15-1.19.4-2.32.67-3.46l1.33-5.78h2.23l1.29,5.78c.27,1.18.57,2.28.72,3.46h.1c.19-1.19.3-2.29.5-3.46l1.26-6.77h2.31l-2.44,12.32h-3.11l-1.22-5.39c-.19-.91-.38-2.12-.57-3.65h-.1c-.18,1.43-.36,2.61-.56,3.65l-1.18,5.39h-3.09l-2.51-12.32Z" style="fill: #19a3ff; stroke-width: 0px;"/>
    <path d="m469.96,685.34c0-4.84,2.12-8.7,5.57-11.47l1.39,1.21c-3.28,2.87-4.77,6.09-4.77,10.26s1.49,7.39,4.77,10.26l-1.39,1.21c-3.45-2.77-5.57-6.63-5.57-11.47Z" style="fill: #19a3ff; stroke-width: 0px;"/>
    <path d="m481.17,680.03h2.55l2.6,6.67c.46,1.24.89,2.47,1.3,3.69h.1c.42-1.22.8-2.45,1.28-3.69l2.6-6.67h2.41l-4.96,12.32h-2.84l-5.05-12.32Z" style="fill: #19a3ff; stroke-width: 0px;"/>
    <path d="m497.06,689.1c0-2.76,2.51-4.12,8.73-4.59-.09-1.52-.91-2.75-3.1-2.75-1.49,0-2.96.68-4.17,1.39l-.96-1.68c1.38-.85,3.43-1.75,5.57-1.75,3.4,0,5.16,1.95,5.16,5.2v7.42h-2.08l-.2-1.6h-.08c-1.32,1.03-3.03,1.9-4.72,1.9-2.36,0-4.17-1.39-4.17-3.56Zm8.73-.1v-2.89c-4.84.35-6.28,1.32-6.28,2.79,0,1.24,1.11,1.75,2.43,1.75s2.57-.62,3.85-1.66Z" style="fill: #19a3ff; stroke-width: 0px;"/>
    <path d="m516.25,688.04v-11.56h-4.24v-2.01h6.75v13.72c0,1.71.97,2.4,2.32,2.4.67,0,1.39-.16,2.21-.52l.6,1.87c-1.18.46-2,.72-3.4.72-2.76,0-4.25-1.65-4.25-4.62Z" style="fill: #19a3ff; stroke-width: 0px;"/>
    <path d="m527.29,687.67v-7.65h2.51v7.32c0,2.13.71,3.15,2.57,3.15,1.29,0,2.22-.57,3.45-2.03v-8.43h2.51v12.32h-2.07l-.2-2.05h-.1c-1.2,1.4-2.61,2.36-4.48,2.36-2.89,0-4.19-1.77-4.19-4.98Z" style="fill: #19a3ff; stroke-width: 0px;"/>
    <path d="m542.21,686.17c0-4.01,3.02-6.44,6.32-6.44,3.62,0,5.67,2.38,5.67,5.82,0,.53-.06,1.04-.11,1.37h-10.14v-1.84h8.57l-.54.61c0-2.67-1.29-4.01-3.38-4.01s-3.93,1.59-3.93,4.5,1.9,4.52,4.55,4.52c1.38,0,2.49-.42,3.6-1.08l.88,1.59c-1.27.83-2.91,1.46-4.8,1.46-3.74,0-6.69-2.38-6.69-6.49Z" style="fill: #19a3ff; stroke-width: 0px;"/>
    <path d="m561.01,681.49c0-1.36.98-2.36,2.27-2.36s2.27,1,2.27,2.36-.98,2.36-2.27,2.36-2.27-.97-2.27-2.36Zm0,8.8c0-1.36.98-2.36,2.27-2.36s2.27,1,2.27,2.36-.98,2.36-2.27,2.36-2.27-.97-2.27-2.36Z" style="fill: #fff; stroke-width: 0px;"/>
    <path d="m590.5,690.99h-.08l-.23,1.36h-1.99v-17.88h2.51v4.74l-.11,2.27h.08c1.06-1.07,2.55-1.75,3.93-1.75,3.26,0,5.08,2.46,5.08,6.26,0,4.22-2.62,6.67-5.49,6.67-1.2,0-2.6-.62-3.71-1.67Zm6.63-4.97c0-2.58-.94-4.2-3.16-4.2-1.01,0-2.13.5-3.25,1.65v5.83c1.02.93,2.18,1.26,3.01,1.26,1.92,0,3.4-1.63,3.4-4.54Z" style="fill: #f55; stroke-width: 0px;"/>
    <path d="m602.56,686.21c0-4.13,2.89-6.49,6.14-6.49s6.14,2.36,6.14,6.49-2.89,6.44-6.14,6.44-6.14-2.36-6.14-6.44Zm9.7,0c0-2.66-1.38-4.42-3.57-4.42s-3.56,1.76-3.56,4.42,1.38,4.38,3.56,4.38,3.57-1.74,3.57-4.38Z" style="fill: #f55; stroke-width: 0px;"/>
    <path d="m617.7,686.21c0-4.13,2.89-6.49,6.14-6.49s6.14,2.36,6.14,6.49-2.89,6.44-6.14,6.44-6.14-2.36-6.14-6.44Zm9.71,0c0-2.66-1.38-4.42-3.57-4.42s-3.57,1.76-3.57,4.42,1.38,4.38,3.57,4.38,3.57-1.74,3.57-4.38Z" style="fill: #f55; stroke-width: 0px;"/>
    <path d="m637.35,688.04v-11.56h-4.24v-2.01h6.75v13.72c0,1.71.97,2.4,2.32,2.4.67,0,1.39-.16,2.21-.52l.6,1.87c-1.18.46-2,.72-3.4.72-2.76,0-4.25-1.65-4.25-4.62Z" style="fill: #f55; stroke-width: 0px;"/>
    <path d="m649.65,695.6c3.28-2.87,4.78-6.09,4.78-10.26s-1.49-7.39-4.78-10.26l1.39-1.21c3.45,2.77,5.57,6.63,5.57,11.47s-2.12,8.7-5.57,11.47l-1.39-1.21Z" style="fill: #fff; stroke-width: 0px;"/>
    <path d="m678.86,683.11h11.04v1.84h-11.04v-1.84Z" style="fill: #bb82fa; stroke-width: 0px;"/>
    <path d="m694.59,688.89l7.34-4.86v-.1l-7.34-4.86v-2.37l9.5,6.35v1.86l-9.5,6.35v-2.37Z" style="fill: #bb82fa; stroke-width: 0px;"/>
    <path d="m723.81,690.22l1.49-1.75c1.26,1.18,2.93,1.96,4.72,1.96,2.09,0,3.25-.96,3.25-2.29,0-1.62-1.21-2.06-2.84-2.75l-2.33-1.02c-1.69-.67-3.54-1.89-3.54-4.32,0-2.57,2.32-4.52,5.58-4.52,2.04,0,3.91.81,5.19,2.07l-1.31,1.62c-1.1-.93-2.3-1.47-3.99-1.47s-2.91.8-2.91,2.16c0,1.43,1.43,1.96,2.88,2.52l2.24.99c2.07.81,3.62,2.01,3.62,4.43,0,2.65-2.24,4.82-5.98,4.82-2.37,0-4.51-.92-6.07-2.43Z" style="fill: #f55; stroke-width: 0px;"/>
    <path d="m738.99,686.17c0-4.01,3.02-6.44,6.32-6.44,3.62,0,5.68,2.38,5.68,5.82,0,.53-.06,1.04-.12,1.37h-10.14v-1.84h8.57l-.54.61c0-2.67-1.29-4.01-3.38-4.01s-3.93,1.59-3.93,4.5,1.9,4.52,4.55,4.52c1.38,0,2.49-.42,3.6-1.08l.88,1.59c-1.27.83-2.91,1.46-4.8,1.46-3.74,0-6.69-2.38-6.69-6.49Z" style="fill: #f55; stroke-width: 0px;"/>
    <path d="m758.44,688.04v-11.56h-4.24v-2.01h6.75v13.72c0,1.71.97,2.4,2.32,2.4.67,0,1.39-.16,2.21-.52l.6,1.87c-1.18.46-2,.72-3.4.72-2.76,0-4.25-1.65-4.25-4.62Z" style="fill: #f55; stroke-width: 0px;"/>
    <path d="m770.1,680.16l3.52-.13h7.33v2h-10.86v-1.87Zm3.46-.98c0-2.95,1.59-5.01,5.11-5.01,1.27,0,2.47.25,3.6.7l-.54,1.87c-.95-.4-1.76-.56-2.79-.56-2.04,0-2.89,1.09-2.89,2.94v13.24h-2.49v-13.17Z" style="fill: #f55; stroke-width: 0px;"/>
    <path d="m804.2,692.77c0-1.83.25-3.06.25-4.72,0-.96-.7-1.91-3.61-1.94v-1.54c2.91-.03,3.61-.98,3.61-1.94,0-1.58-.25-2.98-.25-4.72,0-2.63,1.5-3.42,4.68-3.42h1.66v1.39h-1.24c-2.45,0-2.98.58-2.98,2.16,0,1.41.14,2.9.14,4.45,0,1.71-.6,2.5-2.36,2.8v.1c1.76.3,2.36,1.09,2.36,2.8s-.14,2.96-.14,4.45c0,1.58.53,2.16,2.98,2.16h1.24v1.39h-1.66c-3.18,0-4.68-.79-4.68-3.42Z" style="fill: #fff; stroke-width: 0px;"/>
    <path d="m375.65,720.5l1.49-1.75c1.26,1.18,2.92,1.96,4.72,1.96,2.09,0,3.25-.96,3.25-2.29,0-1.62-1.21-2.06-2.84-2.75l-2.33-1.02c-1.69-.67-3.54-1.89-3.54-4.32,0-2.57,2.32-4.52,5.58-4.52,2.04,0,3.91.81,5.19,2.07l-1.31,1.62c-1.1-.93-2.3-1.47-3.99-1.47s-2.91.8-2.91,2.16c0,1.43,1.43,1.96,2.88,2.52l2.24.99c2.07.81,3.62,2.01,3.62,4.43,0,2.65-2.24,4.82-5.98,4.82-2.37,0-4.51-.92-6.07-2.43Z" style="fill: #f55; stroke-width: 0px;"/>
    <path d="m390.84,716.44c0-4.01,3.02-6.44,6.32-6.44,3.62,0,5.67,2.38,5.67,5.82,0,.53-.06,1.04-.11,1.37h-10.14v-1.84h8.57l-.54.61c0-2.67-1.29-4.01-3.38-4.01s-3.93,1.59-3.93,4.5,1.9,4.52,4.55,4.52c1.38,0,2.49-.42,3.6-1.08l.88,1.59c-1.27.83-2.91,1.46-4.8,1.46-3.74,0-6.69-2.38-6.69-6.49Z" style="fill: #f55; stroke-width: 0px;"/>
    <path d="m410.29,718.31v-11.56h-4.24v-2.01h6.75v13.72c0,1.71.97,2.4,2.32,2.4.67,0,1.39-.16,2.21-.52l.6,1.87c-1.18.46-2,.72-3.4.72-2.76,0-4.25-1.65-4.25-4.62Z" style="fill: #f55; stroke-width: 0px;"/>
    <path d="m421.94,710.43l3.52-.13h7.33v2h-10.86v-1.87Zm3.46-.98c0-2.95,1.59-5.01,5.11-5.01,1.27,0,2.47.25,3.6.7l-.54,1.87c-.95-.4-1.76-.56-2.79-.56-2.04,0-2.89,1.09-2.89,2.94v13.24h-2.49v-13.17Z" style="fill: #f55; stroke-width: 0px;"/>
    <path d="m456.04,723.04c0-1.83.25-3.06.25-4.72,0-.96-.7-1.91-3.61-1.94v-1.54c2.91-.03,3.61-.98,3.61-1.94,0-1.58-.25-2.98-.25-4.72,0-2.63,1.5-3.42,4.68-3.42h1.66v1.39h-1.24c-2.45,0-2.98.58-2.98,2.16,0,1.41.14,2.9.14,4.45,0,1.71-.6,2.5-2.36,2.8v.1c1.76.3,2.36,1.09,2.36,2.8s-.14,2.96-.14,4.45c0,1.58.53,2.16,2.98,2.16h1.24v1.39h-1.66c-3.18,0-4.68-.79-4.68-3.42Z" style="fill: #fff; stroke-width: 0px;"/>
    <path d="m481.17,710.3h2.55l2.6,6.67c.46,1.24.89,2.47,1.3,3.69h.1c.42-1.22.8-2.45,1.28-3.69l2.6-6.67h2.41l-4.96,12.32h-2.84l-5.05-12.32Z" style="fill: #19a3ff; stroke-width: 0px;"/>
    <path d="m497.06,719.37c0-2.76,2.51-4.12,8.73-4.59-.09-1.52-.91-2.75-3.1-2.75-1.49,0-2.96.68-4.17,1.39l-.96-1.68c1.38-.85,3.43-1.75,5.57-1.75,3.4,0,5.16,1.95,5.16,5.2v7.42h-2.08l-.2-1.6h-.08c-1.32,1.03-3.03,1.9-4.72,1.9-2.36,0-4.17-1.39-4.17-3.56Zm8.73-.1v-2.89c-4.84.35-6.28,1.32-6.28,2.79,0,1.24,1.11,1.75,2.43,1.75s2.57-.62,3.85-1.66Z" style="fill: #19a3ff; stroke-width: 0px;"/>
    <path d="m516.25,718.31v-11.56h-4.24v-2.01h6.75v13.72c0,1.71.97,2.4,2.32,2.4.67,0,1.39-.16,2.21-.52l.6,1.87c-1.18.46-2,.72-3.4.72-2.76,0-4.25-1.65-4.25-4.62Z" style="fill: #19a3ff; stroke-width: 0px;"/>
    <path d="m527.29,717.95v-7.65h2.51v7.32c0,2.13.71,3.15,2.57,3.15,1.29,0,2.22-.57,3.45-2.03v-8.43h2.51v12.32h-2.07l-.2-2.05h-.1c-1.2,1.4-2.61,2.36-4.48,2.36-2.89,0-4.19-1.77-4.19-4.98Z" style="fill: #19a3ff; stroke-width: 0px;"/>
    <path d="m542.21,716.44c0-4.01,3.02-6.44,6.32-6.44,3.62,0,5.67,2.38,5.67,5.82,0,.53-.06,1.04-.11,1.37h-10.14v-1.84h8.57l-.54.61c0-2.67-1.29-4.01-3.38-4.01s-3.93,1.59-3.93,4.5,1.9,4.52,4.55,4.52c1.38,0,2.49-.42,3.6-1.08l.88,1.59c-1.27.83-2.91,1.46-4.8,1.46-3.74,0-6.69-2.38-6.69-6.49Z" style="fill: #19a3ff; stroke-width: 0px;"/>
    <path d="m573.39,725.07h1.22c2.45,0,3-.58,3-2.16,0-1.49-.14-2.78-.14-4.45s.58-2.5,2.34-2.8v-.1c-1.76-.3-2.34-1.09-2.34-2.8,0-1.54.14-3.04.14-4.45,0-1.58-.55-2.16-3-2.16h-1.22v-1.39h1.64c3.2,0,4.66.79,4.66,3.42,0,1.75-.24,3.14-.24,4.72,0,.96.7,1.91,3.61,1.94v1.54c-2.92.03-3.61.98-3.61,1.94,0,1.67.24,2.9.24,4.72,0,2.63-1.46,3.42-4.66,3.42h-1.64v-1.39Z" style="fill: #fff; stroke-width: 0px;"/>
    <path d="m316.06,755.34h1.22c2.45,0,3-.58,3-2.16,0-1.49-.14-2.78-.14-4.45s.58-2.5,2.34-2.8v-.1c-1.76-.3-2.34-1.09-2.34-2.8,0-1.54.14-3.04.14-4.45,0-1.58-.55-2.16-3-2.16h-1.22v-1.39h1.64c3.2,0,4.66.79,4.66,3.42,0,1.75-.24,3.14-.24,4.72,0,.96.7,1.91,3.61,1.94v1.54c-2.92.03-3.61.98-3.61,1.94,0,1.67.24,2.89.24,4.72,0,2.63-1.46,3.42-4.66,3.42h-1.64v-1.39Z" style="fill: #fff; stroke-width: 0px;"/>
    <path d="m315.61,806.72h10.6v1.7h-10.6v-1.7Zm.5-5.17h10.6v1.7h-10.6v-1.7Zm2.88-4.5h1.54l-1.99,16.39h-1.57l2.02-16.39Zm4.71,0h1.54l-1.99,16.39h-1.57l2.02-16.39Z" style="fill: #19a3ff; stroke-width: 0px;"/>
    <path d="m334.17,795.59h7.11v1.39h-5.15v18.92h5.15v1.39h-7.11v-21.69Z" style="fill: #19a3ff; stroke-width: 0px;"/>
    <path d="m351.5,803.13h-5.51v-2.01h8.02v12.32h-2.51v-10.32Zm-.82-6.2c0-1.06.79-1.79,1.87-1.79s1.87.73,1.87,1.79-.79,1.78-1.87,1.78-1.87-.7-1.87-1.78Z" style="fill: #19a3ff; stroke-width: 0px;"/>
    <path d="m361.14,801.12h2.05l.2,1.96h.1c1.23-1.27,2.64-2.27,4.54-2.27,2.88,0,4.2,1.77,4.2,4.98v7.65h-2.51v-7.32c0-2.15-.72-3.15-2.55-3.15-1.34,0-2.24.66-3.52,1.96v8.5h-2.51v-12.32Z" style="fill: #19a3ff; stroke-width: 0px;"/>
    <path d="m376.53,795.57h2.51v11.63h.1l6.07-6.07h2.82l-9,9.04v3.28h-2.51v-17.88Zm4.84,11.59l1.49-1.61,5.77,7.9h-2.76l-4.49-6.29Z" style="fill: #19a3ff; stroke-width: 0px;"/>
    <path d="m394.28,806.44c0-4.83,2.12-8.7,5.57-11.47l1.39,1.21c-3.28,2.87-4.77,6.09-4.77,10.26s1.49,7.39,4.77,10.26l-1.39,1.21c-3.45-2.77-5.57-6.63-5.57-11.47Z" style="fill: #19a3ff; stroke-width: 0px;"/>
    <path d="m405.66,801.12h1.96l.2,1.6h.06c.59-1.1,1.35-1.9,2.78-1.9,1.18,0,1.94.71,2.28,2.1.64-1.26,1.43-2.1,2.85-2.1,1.73,0,2.74,1.39,2.74,3.85v8.78h-2.44v-8.6c0-1.25-.35-1.88-1.15-1.88s-1.18.57-1.75,1.72v8.77h-2.17v-8.6c0-1.25-.32-1.88-1.12-1.88-.75,0-1.25.57-1.78,1.72v8.77h-2.44v-12.32Z" style="fill: #19a3ff; stroke-width: 0px;"/>
    <path d="m421.11,807.27c0-4.01,3.02-6.44,6.32-6.44,3.62,0,5.67,2.38,5.67,5.82,0,.53-.06,1.04-.11,1.36h-10.14v-1.84h8.58l-.54.61c0-2.67-1.29-4.01-3.38-4.01s-3.93,1.59-3.93,4.5,1.9,4.52,4.55,4.52c1.38,0,2.49-.42,3.6-1.08l.88,1.59c-1.27.84-2.91,1.46-4.8,1.46-3.74,0-6.69-2.38-6.69-6.49Z" style="fill: #19a3ff; stroke-width: 0px;"/>
    <path d="m436.29,811.83l1.12-1.63c1.45.99,3.12,1.62,5.25,1.62,1.89,0,2.79-.75,2.79-1.68,0-.87-.51-1.42-3.62-2.06-3.25-.67-4.78-1.8-4.78-3.67,0-2.06,1.85-3.59,5.26-3.59,1.96,0,3.83.77,5.07,1.6l-1.18,1.57c-1.17-.78-2.59-1.26-4.11-1.26-1.83,0-2.54.72-2.54,1.57,0,.96.98,1.34,3.4,1.86,4.01.88,5.02,1.91,5.02,3.84,0,2.06-2,3.76-5.64,3.76-2.35,0-4.54-.88-6.05-1.92Z" style="fill: #19a3ff; stroke-width: 0px;"/>
    <path d="m451.43,811.83l1.12-1.63c1.45.99,3.12,1.62,5.25,1.62,1.89,0,2.79-.75,2.79-1.68,0-.87-.51-1.42-3.62-2.06-3.25-.67-4.78-1.8-4.78-3.67,0-2.06,1.85-3.59,5.26-3.59,1.96,0,3.83.77,5.07,1.6l-1.18,1.57c-1.17-.78-2.59-1.26-4.11-1.26-1.83,0-2.54.72-2.54,1.57,0,.96.98,1.34,3.4,1.86,4.01.88,5.02,1.91,5.02,3.84,0,2.06-2,3.76-5.64,3.76-2.35,0-4.54-.88-6.05-1.92Z" style="fill: #19a3ff; stroke-width: 0px;"/>
    <path d="m466.79,810.2c0-2.76,2.51-4.12,8.73-4.59-.09-1.52-.91-2.75-3.1-2.75-1.49,0-2.96.68-4.17,1.39l-.96-1.68c1.38-.85,3.43-1.75,5.57-1.75,3.4,0,5.16,1.95,5.16,5.21v7.42h-2.08l-.2-1.6h-.08c-1.32,1.03-3.03,1.9-4.72,1.9-2.36,0-4.17-1.38-4.17-3.56Zm8.73-.1v-2.89c-4.84.35-6.28,1.32-6.28,2.79,0,1.24,1.11,1.75,2.43,1.75s2.57-.62,3.85-1.66Z" style="fill: #19a3ff; stroke-width: 0px;"/>
    <path d="m481.72,815.66c0-.99.7-1.94,2-2.67v-.1c-.67-.37-1.26-1.01-1.26-2.05,0-.8.55-1.68,1.47-2.31v-.1c-.86-.63-1.55-1.72-1.55-3.19,0-2.76,2.3-4.43,4.96-4.43.72,0,1.33.1,1.88.3h5.07v1.96h-3.01c.48.53.91,1.36.91,2.25,0,2.69-2.14,4.21-4.85,4.21-.6,0-1.31-.13-1.98-.4-.55.35-.85.75-.85,1.29,0,.88.86,1.29,2.44,1.29h2.64c3.19,0,4.77.83,4.77,2.95,0,2.38-2.71,4.34-6.98,4.34-3.5,0-5.65-1.17-5.65-3.35Zm10.21-.58c0-1.07-.89-1.35-2.64-1.35h-2.18c-.76,0-1.37-.05-1.88-.19-1.02.57-1.39,1.19-1.39,1.83,0,1.2,1.34,1.92,3.79,1.92,2.63,0,4.3-1.05,4.3-2.21Zm-2-9.83c0-1.61-1.16-2.66-2.58-2.66s-2.58,1.05-2.58,2.66,1.17,2.69,2.58,2.69,2.58-1.03,2.58-2.69Z" style="fill: #19a3ff; stroke-width: 0px;"/>
    <path d="m496.8,807.27c0-4.01,3.02-6.44,6.32-6.44,3.62,0,5.67,2.38,5.67,5.82,0,.53-.06,1.04-.11,1.36h-10.14v-1.84h8.58l-.54.61c0-2.67-1.29-4.01-3.38-4.01s-3.93,1.59-3.93,4.5,1.9,4.52,4.55,4.52c1.38,0,2.49-.42,3.6-1.08l.88,1.59c-1.27.84-2.91,1.46-4.8,1.46-3.74,0-6.69-2.38-6.69-6.49Z" style="fill: #19a3ff; stroke-width: 0px;"/>
    <path d="m513.41,816.7c3.28-2.87,4.77-6.09,4.77-10.26s-1.49-7.39-4.77-10.26l1.39-1.21c3.45,2.77,5.57,6.63,5.57,11.47s-2.12,8.7-5.57,11.47l-1.39-1.21Z" style="fill: #19a3ff; stroke-width: 0px;"/>
    <path d="m527.95,815.89h5.15v-18.92h-5.15v-1.39h7.11v21.69h-7.11v-1.39Z" style="fill: #19a3ff; stroke-width: 0px;"/>
    <path d="m315.73,831.4h2.05l.2,1.49h.08c1.1-1.04,2.66-1.79,4.11-1.79,3.26,0,5.06,2.46,5.06,6.28,0,4.2-2.62,6.65-5.54,6.65-1.13,0-2.45-.56-3.51-1.53h-.06l.12,2.25v4.01h-2.51v-17.36Zm8.92,5.99c0-2.58-.94-4.2-3.16-4.2-1.01,0-2.13.5-3.25,1.65v5.83c1.02.93,2.18,1.26,2.97,1.26,1.96,0,3.44-1.63,3.44-4.54Z" style="fill: #ffc259; stroke-width: 0px;"/>
    <path d="m330.5,839.05v-7.65h2.51v7.32c0,2.13.71,3.15,2.57,3.15,1.29,0,2.22-.57,3.45-2.03v-8.43h2.51v12.32h-2.07l-.2-2.05h-.1c-1.2,1.4-2.61,2.36-4.48,2.36-2.89,0-4.19-1.77-4.19-4.98Z" style="fill: #ffc259; stroke-width: 0px;"/>
    <path d="m348.3,842.36h-.08l-.23,1.36h-1.99v-17.88h2.51v4.74l-.11,2.27h.08c1.06-1.07,2.55-1.75,3.93-1.75,3.26,0,5.08,2.46,5.08,6.26,0,4.22-2.62,6.67-5.5,6.67-1.2,0-2.6-.62-3.71-1.67Zm6.63-4.97c0-2.58-.94-4.2-3.16-4.2-1.01,0-2.13.5-3.25,1.65v5.83c1.02.93,2.18,1.26,3.01,1.26,1.92,0,3.4-1.63,3.4-4.54Z" style="fill: #ffc259; stroke-width: 0px;"/>
    <path d="m376.53,831.53l3.52-.13h7.33v2h-10.86v-1.87Zm3.46-.98c0-2.95,1.59-5.01,5.11-5.01,1.27,0,2.47.25,3.6.7l-.54,1.87c-.95-.4-1.76-.56-2.79-.56-2.04,0-2.89,1.09-2.89,2.94v13.24h-2.49v-13.17Z" style="fill: #ffc259; stroke-width: 0px;"/>
    <path d="m391.42,831.4h2.05l.2,1.96h.1c1.23-1.27,2.64-2.27,4.54-2.27,2.88,0,4.2,1.77,4.2,4.98v7.65h-2.51v-7.32c0-2.15-.72-3.15-2.55-3.15-1.34,0-2.24.66-3.52,1.96v8.5h-2.51v-12.32Z" style="fill: #ffc259; stroke-width: 0px;"/>
    <path d="m421.94,831.53l3.52-.13h7.33v2h-10.86v-1.87Zm3.46-.98c0-2.95,1.59-5.01,5.11-5.01,1.27,0,2.47.25,3.6.7l-.54,1.87c-.95-.4-1.76-.56-2.79-.56-2.04,0-2.89,1.09-2.89,2.94v13.24h-2.49v-13.17Z" style="fill: #19a3ff; stroke-width: 0px;"/>
    <path d="m440.56,839.41v-11.56h-4.24v-2.01h6.75v13.72c0,1.71.97,2.4,2.32,2.4.67,0,1.39-.16,2.21-.52l.6,1.87c-1.18.46-2,.72-3.4.72-2.76,0-4.25-1.65-4.25-4.62Z" style="fill: #19a3ff; stroke-width: 0px;"/>
    <path d="m457.46,833.4h-5.51v-2h8.02v12.32h-2.51v-10.32Zm-.82-6.2c0-1.06.79-1.79,1.87-1.79s1.87.73,1.87,1.79-.79,1.78-1.87,1.78-1.87-.7-1.87-1.78Z" style="fill: #19a3ff; stroke-width: 0px;"/>
    <path d="m467.1,831.4h2.05l.2,1.49h.08c1.1-1.04,2.66-1.79,4.11-1.79,3.26,0,5.06,2.46,5.06,6.28,0,4.2-2.62,6.65-5.54,6.65-1.13,0-2.45-.56-3.51-1.53h-.06l.12,2.25v4.01h-2.51v-17.36Zm8.92,5.99c0-2.58-.94-4.2-3.16-4.2-1.01,0-2.13.5-3.25,1.65v5.83c1.02.93,2.18,1.26,2.97,1.26,1.96,0,3.44-1.63,3.44-4.54Z" style="fill: #19a3ff; stroke-width: 0px;"/>
    <path d="m485.1,836.71c0-4.84,2.12-8.7,5.57-11.47l1.39,1.21c-3.28,2.87-4.77,6.09-4.77,10.26s1.49,7.39,4.77,10.26l-1.39,1.21c-3.45-2.77-5.57-6.63-5.57-11.47Z" style="fill: #fff; stroke-width: 0px;"/>
    <path d="m496.11,839.41c0-4.85,7.04-5.62,7.04-9.09,0-.91-.37-1.67-1.39-1.67s-1.64.94-1.64,2.25c0,2.98,3.31,6.94,6.41,9.2,1.17.94,2.28,1.57,3.26,1.87l-.66,2.07c-1.29-.37-2.66-1.13-4.11-2.28-3.63-2.8-7.04-7.52-7.04-10.82,0-2.25,1.49-4.03,3.75-4.03s3.42,1.37,3.42,3.39c0,4.11-6.62,5.38-6.62,8.96,0,1.69,1.28,2.8,2.93,2.8,1.2,0,2.35-.77,3.3-1.87,1.2-1.42,2.06-3.26,2.59-5.49h2.31c-.65,2.47-1.67,4.74-3.16,6.67-1.36,1.58-3.06,2.66-5.36,2.66-3.06,0-5.03-1.98-5.03-4.62Z" style="fill: #fff; stroke-width: 0px;"/>
    <path d="m511.62,831.4h1.96l.2,1.59h.06c.59-1.1,1.35-1.9,2.78-1.9,1.18,0,1.94.71,2.28,2.1.64-1.26,1.43-2.1,2.85-2.1,1.73,0,2.74,1.39,2.74,3.85v8.78h-2.44v-8.6c0-1.25-.35-1.88-1.15-1.88s-1.18.57-1.75,1.72v8.77h-2.17v-8.6c0-1.25-.32-1.88-1.12-1.88-.75,0-1.25.57-1.78,1.72v8.77h-2.44v-12.32Z" style="fill: #19a3ff; stroke-width: 0px;"/>
    <path d="m527.29,839.05v-7.65h2.51v7.32c0,2.13.71,3.15,2.57,3.15,1.29,0,2.22-.57,3.45-2.03v-8.43h2.51v12.32h-2.07l-.2-2.05h-.1c-1.2,1.4-2.61,2.36-4.48,2.36-2.89,0-4.19-1.77-4.19-4.98Z" style="fill: #19a3ff; stroke-width: 0px;"/>
    <path d="m545.57,838.85v-5.44h-3.4v-1.87l3.5-.13.33-3.91h2.08v3.91h5.82v2h-5.82v5.45c0,2.12.75,3.15,2.98,3.15,1.08,0,1.96-.22,2.81-.53l.51,1.83c-1.11.38-2.33.72-3.9.72-3.69,0-4.91-2.09-4.91-5.18Z" style="fill: #19a3ff; stroke-width: 0px;"/>
    <path d="m572.53,842.11l1.12-1.63c1.45,1,3.12,1.62,5.25,1.62,1.89,0,2.79-.75,2.79-1.68,0-.87-.51-1.42-3.62-2.06-3.25-.67-4.78-1.8-4.78-3.67,0-2.06,1.85-3.59,5.26-3.59,1.96,0,3.83.77,5.07,1.6l-1.18,1.57c-1.17-.78-2.59-1.26-4.11-1.26-1.83,0-2.54.72-2.54,1.57,0,.97.98,1.34,3.4,1.86,4.01.88,5.02,1.91,5.02,3.84,0,2.06-2,3.76-5.64,3.76-2.35,0-4.54-.88-6.05-1.92Z" style="fill: #ffc259; stroke-width: 0px;"/>
    <path d="m587.62,837.54c0-4.01,3.02-6.44,6.32-6.44,3.62,0,5.68,2.38,5.68,5.82,0,.53-.06,1.04-.12,1.37h-10.14v-1.84h8.57l-.54.61c0-2.67-1.29-4.01-3.38-4.01s-3.93,1.59-3.93,4.5,1.9,4.52,4.55,4.52c1.38,0,2.49-.42,3.6-1.08l.88,1.59c-1.27.83-2.91,1.46-4.8,1.46-3.74,0-6.69-2.38-6.69-6.49Z" style="fill: #ffc259; stroke-width: 0px;"/>
    <path d="m607.07,839.41v-11.56h-4.23v-2.01h6.75v13.72c0,1.71.97,2.4,2.32,2.4.67,0,1.39-.16,2.21-.52l.61,1.87c-1.18.46-2,.72-3.4.72-2.76,0-4.25-1.65-4.25-4.62Z" style="fill: #ffc259; stroke-width: 0px;"/>
    <path d="m618.73,831.53l3.52-.13h7.33v2h-10.86v-1.87Zm3.46-.98c0-2.95,1.59-5.01,5.11-5.01,1.27,0,2.47.25,3.6.7l-.54,1.87c-.95-.4-1.76-.56-2.79-.56-2.04,0-2.89,1.09-2.89,2.94v13.24h-2.49v-13.17Z" style="fill: #ffc259; stroke-width: 0px;"/>
    <path d="m634.51,846.97c3.28-2.87,4.77-6.09,4.77-10.26s-1.49-7.39-4.77-10.26l1.39-1.21c3.45,2.77,5.57,6.63,5.57,11.47s-2.12,8.7-5.57,11.47l-1.39-1.21Z" style="fill: #fff; stroke-width: 0px;"/>
    <path d="m667.96,844.14c0-1.83.25-3.06.25-4.72,0-.96-.7-1.91-3.61-1.94v-1.54c2.91-.03,3.61-.98,3.61-1.94,0-1.58-.25-2.98-.25-4.72,0-2.63,1.5-3.42,4.68-3.42h1.66v1.39h-1.24c-2.45,0-2.98.58-2.98,2.16,0,1.41.14,2.9.14,4.45,0,1.71-.6,2.5-2.36,2.8v.1c1.76.3,2.36,1.09,2.36,2.8s-.14,2.96-.14,4.45c0,1.58.53,2.16,2.98,2.16h1.24v1.39h-1.66c-3.18,0-4.68-.79-4.68-3.42Z" style="fill: #fff; stroke-width: 0px;"/>
    <path d="m375.74,872.38l1.12-1.63c1.45,1,3.12,1.62,5.25,1.62,1.89,0,2.79-.75,2.79-1.68,0-.87-.51-1.42-3.62-2.06-3.25-.67-4.78-1.8-4.78-3.67,0-2.06,1.85-3.59,5.26-3.59,1.96,0,3.83.77,5.07,1.6l-1.18,1.57c-1.17-.78-2.59-1.26-4.11-1.26-1.83,0-2.54.72-2.54,1.57,0,.97.98,1.34,3.4,1.86,4.01.88,5.02,1.91,5.02,3.84,0,2.06-2,3.76-5.64,3.76-2.35,0-4.54-.88-6.05-1.92Z" style="fill: #ffc259; stroke-width: 0px;"/>
    <path d="m390.84,867.82c0-4.01,3.02-6.44,6.32-6.44,3.62,0,5.67,2.38,5.67,5.82,0,.53-.06,1.04-.11,1.37h-10.14v-1.84h8.57l-.54.61c0-2.67-1.29-4.01-3.38-4.01s-3.93,1.59-3.93,4.5,1.9,4.52,4.55,4.52c1.38,0,2.49-.42,3.6-1.08l.88,1.59c-1.27.83-2.91,1.46-4.8,1.46-3.74,0-6.69-2.38-6.69-6.49Z" style="fill: #ffc259; stroke-width: 0px;"/>
    <path d="m410.29,869.68v-11.56h-4.24v-2.01h6.75v13.72c0,1.71.97,2.4,2.32,2.4.67,0,1.39-.16,2.21-.52l.6,1.87c-1.18.46-2,.72-3.4.72-2.76,0-4.25-1.65-4.25-4.62Z" style="fill: #ffc259; stroke-width: 0px;"/>
    <path d="m421.94,861.8l3.52-.13h7.33v2h-10.86v-1.87Zm3.46-.98c0-2.95,1.59-5.01,5.11-5.01,1.27,0,2.47.25,3.6.7l-.54,1.87c-.95-.4-1.76-.56-2.79-.56-2.04,0-2.89,1.09-2.89,2.94v13.24h-2.49v-13.17Z" style="fill: #ffc259; stroke-width: 0px;"/>
    <path d="m439.91,871.94c0-1.36.98-2.36,2.27-2.36s2.27,1,2.27,2.36-.98,2.36-2.27,2.36-2.27-.97-2.27-2.36Z" style="fill: #fff; stroke-width: 0px;"/>
    <path d="m450.9,861.67h2.55l2.6,6.67c.46,1.24.89,2.47,1.3,3.69h.1c.42-1.22.8-2.45,1.28-3.69l2.6-6.67h2.41l-4.96,12.32h-2.84l-5.05-12.32Z" style="fill: #19a3ff; stroke-width: 0px;"/>
    <path d="m466.79,870.74c0-2.76,2.51-4.12,8.73-4.59-.09-1.52-.91-2.75-3.1-2.75-1.49,0-2.96.68-4.17,1.39l-.96-1.68c1.38-.85,3.43-1.75,5.57-1.75,3.4,0,5.16,1.95,5.16,5.2v7.42h-2.08l-.2-1.6h-.08c-1.32,1.03-3.03,1.9-4.72,1.9-2.36,0-4.17-1.39-4.17-3.56Zm8.73-.1v-2.89c-4.84.35-6.28,1.32-6.28,2.79,0,1.24,1.11,1.75,2.43,1.75s2.57-.62,3.85-1.66Z" style="fill: #19a3ff; stroke-width: 0px;"/>
    <path d="m485.97,869.68v-11.56h-4.24v-2.01h6.75v13.72c0,1.71.97,2.4,2.32,2.4.67,0,1.39-.16,2.21-.52l.6,1.87c-1.18.46-2,.72-3.4.72-2.76,0-4.25-1.65-4.25-4.62Z" style="fill: #19a3ff; stroke-width: 0px;"/>
    <path d="m497.01,869.32v-7.65h2.51v7.32c0,2.13.71,3.15,2.57,3.15,1.29,0,2.22-.57,3.45-2.03v-8.43h2.51v12.32h-2.07l-.2-2.05h-.1c-1.2,1.4-2.61,2.36-4.48,2.36-2.89,0-4.19-1.77-4.19-4.98Z" style="fill: #19a3ff; stroke-width: 0px;"/>
    <path d="m511.94,867.82c0-4.01,3.02-6.44,6.32-6.44,3.62,0,5.67,2.38,5.67,5.82,0,.53-.06,1.04-.11,1.37h-10.14v-1.84h8.58l-.54.61c0-2.67-1.29-4.01-3.38-4.01s-3.93,1.59-3.93,4.5,1.9,4.52,4.55,4.52c1.38,0,2.49-.42,3.6-1.08l.88,1.59c-1.27.83-2.91,1.46-4.8,1.46-3.74,0-6.69-2.38-6.69-6.49Z" style="fill: #19a3ff; stroke-width: 0px;"/>
    <path d="m542.63,862h11.04v1.84h-11.04v-1.84Zm0,5.52h11.04v1.84h-11.04v-1.84Z" style="fill: #bb82fa; stroke-width: 0px;"/>
    <path d="m576.39,872.18c0-1.29.91-2.09,2.04-2.09s2.04.81,2.04,2.09-.91,2.12-2.04,2.12-2.04-.84-2.04-2.12Zm.86-12.45l-.07-2.62h2.49l-.07,2.62-.34,8.25h-1.68l-.34-8.25Z" style="fill: #bb82fa; stroke-width: 0px;"/>
    <path d="m587.67,872.38l1.12-1.63c1.45,1,3.12,1.62,5.25,1.62,1.89,0,2.79-.75,2.79-1.68,0-.87-.51-1.42-3.62-2.06-3.26-.67-4.78-1.8-4.78-3.67,0-2.06,1.85-3.59,5.27-3.59,1.96,0,3.83.77,5.06,1.6l-1.18,1.57c-1.17-.78-2.59-1.26-4.11-1.26-1.83,0-2.54.72-2.54,1.57,0,.97.98,1.34,3.4,1.86,4.01.88,5.02,1.91,5.02,3.84,0,2.06-2,3.76-5.64,3.76-2.35,0-4.54-.88-6.05-1.92Z" style="fill: #ffc259; stroke-width: 0px;"/>
    <path d="m602.76,867.82c0-4.01,3.02-6.44,6.32-6.44,3.62,0,5.68,2.38,5.68,5.82,0,.53-.06,1.04-.12,1.37h-10.14v-1.84h8.57l-.54.61c0-2.67-1.29-4.01-3.38-4.01s-3.93,1.59-3.93,4.5,1.9,4.52,4.55,4.52c1.38,0,2.49-.42,3.6-1.08l.88,1.59c-1.27.83-2.91,1.46-4.8,1.46-3.74,0-6.69-2.38-6.69-6.49Z" style="fill: #ffc259; stroke-width: 0px;"/>
    <path d="m622.21,869.68v-11.56h-4.24v-2.01h6.75v13.72c0,1.71.97,2.4,2.32,2.4.67,0,1.39-.16,2.21-.52l.6,1.87c-1.18.46-2,.72-3.4.72-2.76,0-4.25-1.65-4.25-4.62Z" style="fill: #ffc259; stroke-width: 0px;"/>
    <path d="m633.86,861.8l3.52-.13h7.33v2h-10.86v-1.87Zm3.46-.98c0-2.95,1.59-5.01,5.11-5.01,1.27,0,2.47.25,3.6.7l-.54,1.87c-.95-.4-1.76-.56-2.79-.56-2.04,0-2.89,1.09-2.89,2.94v13.24h-2.49v-13.17Z" style="fill: #ffc259; stroke-width: 0px;"/>
    <path d="m651.83,871.94c0-1.36.98-2.36,2.27-2.36s2.28,1,2.28,2.36-.98,2.36-2.28,2.36-2.27-.97-2.27-2.36Z" style="fill: #fff; stroke-width: 0px;"/>
    <path d="m662.82,861.67h2.55l2.6,6.67c.46,1.24.88,2.47,1.3,3.69h.1c.42-1.22.8-2.45,1.28-3.69l2.6-6.67h2.41l-4.96,12.32h-2.84l-5.05-12.32Z" style="fill: #19a3ff; stroke-width: 0px;"/>
    <path d="m678.71,870.74c0-2.76,2.51-4.12,8.73-4.59-.09-1.52-.91-2.75-3.1-2.75-1.49,0-2.96.68-4.16,1.39l-.96-1.68c1.38-.85,3.43-1.75,5.57-1.75,3.4,0,5.16,1.95,5.16,5.2v7.42h-2.07l-.2-1.6h-.08c-1.32,1.03-3.03,1.9-4.72,1.9-2.36,0-4.17-1.39-4.17-3.56Zm8.73-.1v-2.89c-4.84.35-6.28,1.32-6.28,2.79,0,1.24,1.11,1.75,2.43,1.75s2.57-.62,3.85-1.66Z" style="fill: #19a3ff; stroke-width: 0px;"/>
    <path d="m697.89,869.68v-11.56h-4.24v-2.01h6.75v13.72c0,1.71.97,2.4,2.32,2.4.67,0,1.39-.16,2.21-.52l.6,1.87c-1.18.46-2,.72-3.4.72-2.76,0-4.25-1.65-4.25-4.62Z" style="fill: #19a3ff; stroke-width: 0px;"/>
    <path d="m708.93,869.32v-7.65h2.51v7.32c0,2.13.71,3.15,2.57,3.15,1.29,0,2.22-.57,3.45-2.03v-8.43h2.51v12.32h-2.07l-.2-2.05h-.1c-1.2,1.4-2.61,2.36-4.48,2.36-2.89,0-4.19-1.77-4.19-4.98Z" style="fill: #19a3ff; stroke-width: 0px;"/>
    <path d="m723.86,867.82c0-4.01,3.02-6.44,6.32-6.44,3.62,0,5.68,2.38,5.68,5.82,0,.53-.06,1.04-.12,1.37h-10.14v-1.84h8.57l-.54.61c0-2.67-1.29-4.01-3.38-4.01s-3.93,1.59-3.93,4.5,1.9,4.52,4.55,4.52c1.38,0,2.49-.42,3.6-1.08l.88,1.59c-1.27.83-2.91,1.46-4.8,1.46-3.74,0-6.69-2.38-6.69-6.49Z" style="fill: #19a3ff; stroke-width: 0px;"/>
    <path d="m742.22,877.87c2.17-.92,3.23-2.25,3.2-4.22l-.37-2.5,1.44,2.13c-.42.44-.95.58-1.48.58-1.17,0-2.16-.71-2.16-2.07s1.02-2.09,2.23-2.09c1.63,0,2.49,1.33,2.49,3.51,0,3.02-1.71,5.15-4.66,6.19l-.69-1.53Zm.44-14.72c0-1.36.98-2.36,2.27-2.36s2.28,1,2.28,2.36-.98,2.36-2.28,2.36-2.27-.97-2.27-2.36Z" style="fill: #fff; stroke-width: 0px;"/>
    <path d="m316.06,906.72h1.22c2.45,0,3-.58,3-2.16,0-1.49-.14-2.78-.14-4.45s.58-2.5,2.34-2.8v-.1c-1.76-.3-2.34-1.09-2.34-2.8,0-1.54.14-3.04.14-4.45,0-1.58-.55-2.16-3-2.16h-1.22v-1.39h1.64c3.2,0,4.66.79,4.66,3.42,0,1.75-.24,3.14-.24,4.72,0,.96.7,1.91,3.61,1.94v1.54c-2.92.03-3.61.98-3.61,1.94,0,1.67.24,2.89.24,4.72,0,2.63-1.46,3.42-4.66,3.42h-1.64v-1.39Z" style="fill: #fff; stroke-width: 0px;"/>
    <path d="m315.61,958.09h10.6v1.7h-10.6v-1.7Zm.5-5.17h10.6v1.7h-10.6v-1.7Zm2.88-4.5h1.54l-1.99,16.39h-1.57l2.02-16.39Zm4.71,0h1.54l-1.99,16.39h-1.57l2.02-16.39Z" style="fill: #19a3ff; stroke-width: 0px;"/>
    <path d="m334.17,946.97h7.11v1.39h-5.15v18.92h5.15v1.39h-7.11v-21.69Z" style="fill: #19a3ff; stroke-width: 0px;"/>
    <path d="m351.5,954.5h-5.51v-2.01h8.02v12.32h-2.51v-10.32Zm-.82-6.2c0-1.06.79-1.79,1.87-1.79s1.87.73,1.87,1.79-.79,1.78-1.87,1.78-1.87-.7-1.87-1.78Z" style="fill: #19a3ff; stroke-width: 0px;"/>
    <path d="m361.14,952.5h2.05l.2,1.96h.1c1.23-1.27,2.64-2.27,4.54-2.27,2.88,0,4.2,1.77,4.2,4.98v7.65h-2.51v-7.32c0-2.15-.72-3.15-2.55-3.15-1.34,0-2.24.66-3.52,1.96v8.5h-2.51v-12.32Z" style="fill: #19a3ff; stroke-width: 0px;"/>
    <path d="m376.53,946.94h2.51v11.63h.1l6.07-6.07h2.82l-9,9.04v3.28h-2.51v-17.88Zm4.84,11.59l1.49-1.61,5.77,7.9h-2.76l-4.49-6.29Z" style="fill: #19a3ff; stroke-width: 0px;"/>
    <path d="m394.28,957.81c0-4.83,2.12-8.7,5.57-11.47l1.39,1.21c-3.28,2.87-4.77,6.09-4.77,10.26s1.49,7.39,4.77,10.26l-1.39,1.21c-3.45-2.77-5.57-6.63-5.57-11.47Z" style="fill: #19a3ff; stroke-width: 0px;"/>
    <path d="m405.66,952.5h1.96l.2,1.6h.06c.59-1.1,1.35-1.9,2.78-1.9,1.18,0,1.94.71,2.28,2.1.64-1.26,1.43-2.1,2.85-2.1,1.73,0,2.74,1.39,2.74,3.85v8.78h-2.44v-8.6c0-1.25-.35-1.88-1.15-1.88s-1.18.57-1.75,1.72v8.77h-2.17v-8.6c0-1.25-.32-1.88-1.12-1.88-.75,0-1.25.57-1.78,1.72v8.77h-2.44v-12.32Z" style="fill: #19a3ff; stroke-width: 0px;"/>
    <path d="m421.11,958.64c0-4.01,3.02-6.44,6.32-6.44,3.62,0,5.67,2.38,5.67,5.82,0,.53-.06,1.04-.11,1.36h-10.14v-1.84h8.58l-.54.61c0-2.67-1.29-4.01-3.38-4.01s-3.93,1.59-3.93,4.5,1.9,4.52,4.55,4.52c1.38,0,2.49-.42,3.6-1.08l.88,1.59c-1.27.84-2.91,1.46-4.8,1.46-3.74,0-6.69-2.38-6.69-6.49Z" style="fill: #19a3ff; stroke-width: 0px;"/>
    <path d="m436.29,963.21l1.12-1.63c1.45.99,3.12,1.62,5.25,1.62,1.89,0,2.79-.75,2.79-1.68,0-.87-.51-1.42-3.62-2.06-3.25-.67-4.78-1.8-4.78-3.67,0-2.06,1.85-3.59,5.26-3.59,1.96,0,3.83.77,5.07,1.6l-1.18,1.57c-1.17-.78-2.59-1.26-4.11-1.26-1.83,0-2.54.72-2.54,1.57,0,.96.98,1.34,3.4,1.86,4.01.88,5.02,1.91,5.02,3.84,0,2.06-2,3.76-5.64,3.76-2.35,0-4.54-.88-6.05-1.92Z" style="fill: #19a3ff; stroke-width: 0px;"/>
    <path d="m451.43,963.21l1.12-1.63c1.45.99,3.12,1.62,5.25,1.62,1.89,0,2.79-.75,2.79-1.68,0-.87-.51-1.42-3.62-2.06-3.25-.67-4.78-1.8-4.78-3.67,0-2.06,1.85-3.59,5.26-3.59,1.96,0,3.83.77,5.07,1.6l-1.18,1.57c-1.17-.78-2.59-1.26-4.11-1.26-1.83,0-2.54.72-2.54,1.57,0,.96.98,1.34,3.4,1.86,4.01.88,5.02,1.91,5.02,3.84,0,2.06-2,3.76-5.64,3.76-2.35,0-4.54-.88-6.05-1.92Z" style="fill: #19a3ff; stroke-width: 0px;"/>
    <path d="m466.79,961.57c0-2.76,2.51-4.12,8.73-4.59-.09-1.52-.91-2.75-3.1-2.75-1.49,0-2.96.68-4.17,1.39l-.96-1.68c1.38-.85,3.43-1.75,5.57-1.75,3.4,0,5.16,1.95,5.16,5.21v7.42h-2.08l-.2-1.6h-.08c-1.32,1.03-3.03,1.9-4.72,1.9-2.36,0-4.17-1.38-4.17-3.56Zm8.73-.1v-2.89c-4.84.35-6.28,1.32-6.28,2.79,0,1.24,1.11,1.75,2.43,1.75s2.57-.62,3.85-1.66Z" style="fill: #19a3ff; stroke-width: 0px;"/>
    <path d="m481.72,967.03c0-.99.7-1.94,2-2.67v-.1c-.67-.37-1.26-1.01-1.26-2.05,0-.8.55-1.68,1.47-2.31v-.1c-.86-.63-1.55-1.72-1.55-3.19,0-2.76,2.3-4.43,4.96-4.43.72,0,1.33.1,1.88.3h5.07v1.96h-3.01c.48.53.91,1.36.91,2.25,0,2.69-2.14,4.21-4.85,4.21-.6,0-1.31-.13-1.98-.4-.55.35-.85.75-.85,1.29,0,.88.86,1.29,2.44,1.29h2.64c3.19,0,4.77.83,4.77,2.95,0,2.38-2.71,4.34-6.98,4.34-3.5,0-5.65-1.17-5.65-3.35Zm10.21-.58c0-1.07-.89-1.35-2.64-1.35h-2.18c-.76,0-1.37-.05-1.88-.19-1.02.57-1.39,1.19-1.39,1.83,0,1.2,1.34,1.92,3.79,1.92,2.63,0,4.3-1.05,4.3-2.21Zm-2-9.83c0-1.61-1.16-2.66-2.58-2.66s-2.58,1.05-2.58,2.66,1.17,2.69,2.58,2.69,2.58-1.03,2.58-2.69Z" style="fill: #19a3ff; stroke-width: 0px;"/>
    <path d="m496.8,958.64c0-4.01,3.02-6.44,6.32-6.44,3.62,0,5.67,2.38,5.67,5.82,0,.53-.06,1.04-.11,1.36h-10.14v-1.84h8.58l-.54.61c0-2.67-1.29-4.01-3.38-4.01s-3.93,1.59-3.93,4.5,1.9,4.52,4.55,4.52c1.38,0,2.49-.42,3.6-1.08l.88,1.59c-1.27.84-2.91,1.46-4.8,1.46-3.74,0-6.69-2.38-6.69-6.49Z" style="fill: #19a3ff; stroke-width: 0px;"/>
    <path d="m513.41,968.07c3.28-2.87,4.77-6.09,4.77-10.26s-1.49-7.39-4.77-10.26l1.39-1.21c3.45,2.77,5.57,6.63,5.57,11.47s-2.12,8.7-5.57,11.47l-1.39-1.21Z" style="fill: #19a3ff; stroke-width: 0px;"/>
    <path d="m527.95,967.27h5.15v-18.92h-5.15v-1.39h7.11v21.69h-7.11v-1.39Z" style="fill: #19a3ff; stroke-width: 0px;"/>
    <path d="m315.73,982.77h2.05l.2,1.49h.08c1.1-1.04,2.66-1.79,4.11-1.79,3.26,0,5.06,2.46,5.06,6.28,0,4.2-2.62,6.65-5.54,6.65-1.13,0-2.45-.56-3.51-1.53h-.06l.12,2.25v4.01h-2.51v-17.36Zm8.92,5.99c0-2.58-.94-4.2-3.16-4.2-1.01,0-2.13.5-3.25,1.65v5.83c1.02.93,2.18,1.26,2.97,1.26,1.96,0,3.44-1.63,3.44-4.54Z" style="fill: #ffc259; stroke-width: 0px;"/>
    <path d="m330.5,990.42v-7.65h2.51v7.32c0,2.13.71,3.15,2.57,3.15,1.29,0,2.22-.57,3.45-2.03v-8.43h2.51v12.32h-2.07l-.2-2.05h-.1c-1.2,1.4-2.61,2.36-4.48,2.36-2.89,0-4.19-1.77-4.19-4.98Z" style="fill: #ffc259; stroke-width: 0px;"/>
    <path d="m348.3,993.74h-.08l-.23,1.36h-1.99v-17.88h2.51v4.74l-.11,2.27h.08c1.06-1.07,2.55-1.75,3.93-1.75,3.26,0,5.08,2.46,5.08,6.26,0,4.22-2.62,6.67-5.5,6.67-1.2,0-2.6-.62-3.71-1.67Zm6.63-4.97c0-2.58-.94-4.2-3.16-4.2-1.01,0-2.13.5-3.25,1.65v5.83c1.02.93,2.18,1.26,3.01,1.26,1.92,0,3.4-1.63,3.4-4.54Z" style="fill: #ffc259; stroke-width: 0px;"/>
    <path d="m376.53,982.9l3.52-.13h7.33v2h-10.86v-1.87Zm3.46-.98c0-2.95,1.59-5.01,5.11-5.01,1.27,0,2.47.25,3.6.7l-.54,1.87c-.95-.4-1.76-.56-2.79-.56-2.04,0-2.89,1.09-2.89,2.94v13.24h-2.49v-13.17Z" style="fill: #ffc259; stroke-width: 0px;"/>
    <path d="m391.42,982.77h2.05l.2,1.96h.1c1.23-1.27,2.64-2.27,4.54-2.27,2.88,0,4.2,1.77,4.2,4.98v7.65h-2.51v-7.32c0-2.15-.72-3.15-2.55-3.15-1.34,0-2.24.66-3.52,1.96v8.5h-2.51v-12.32Z" style="fill: #ffc259; stroke-width: 0px;"/>
    <path d="m421.17,997.31c0-.99.7-1.94,2-2.67v-.1c-.67-.37-1.26-1.01-1.26-2.05,0-.8.55-1.68,1.47-2.31v-.1c-.86-.63-1.55-1.72-1.55-3.19,0-2.76,2.3-4.43,4.96-4.43.72,0,1.33.1,1.88.3h5.07v1.96h-3.01c.48.53.91,1.36.91,2.25,0,2.69-2.14,4.21-4.85,4.21-.6,0-1.31-.13-1.98-.4-.55.35-.85.75-.85,1.29,0,.88.86,1.29,2.44,1.29h2.64c3.19,0,4.77.84,4.77,2.95,0,2.38-2.71,4.34-6.98,4.34-3.5,0-5.65-1.17-5.65-3.35Zm10.21-.58c0-1.07-.89-1.35-2.64-1.35h-2.18c-.76,0-1.37-.05-1.88-.19-1.02.57-1.39,1.19-1.39,1.83,0,1.2,1.34,1.92,3.79,1.92,2.63,0,4.3-1.05,4.3-2.21Zm-2-9.83c0-1.61-1.16-2.66-2.58-2.66s-2.58,1.05-2.58,2.66,1.17,2.69,2.58,2.69,2.58-1.03,2.58-2.69Z" style="fill: #19a3ff; stroke-width: 0px;"/>
    <path d="m436.25,988.92c0-4.01,3.02-6.44,6.32-6.44,3.62,0,5.67,2.38,5.67,5.82,0,.53-.06,1.04-.11,1.37h-10.14v-1.84h8.58l-.54.61c0-2.67-1.29-4.01-3.38-4.01s-3.93,1.59-3.93,4.5,1.9,4.52,4.55,4.52c1.38,0,2.49-.42,3.6-1.08l.88,1.59c-1.27.83-2.91,1.46-4.8,1.46-3.74,0-6.69-2.38-6.69-6.49Z" style="fill: #19a3ff; stroke-width: 0px;"/>
    <path d="m454.75,990.22v-5.44h-3.4v-1.87l3.5-.13.33-3.91h2.08v3.91h5.82v2h-5.82v5.45c0,2.12.75,3.15,2.98,3.15,1.08,0,1.96-.22,2.81-.53l.51,1.83c-1.11.38-2.33.72-3.9.72-3.69,0-4.91-2.09-4.91-5.18Z" style="fill: #19a3ff; stroke-width: 0px;"/>
    <path d="m469.96,988.09c0-4.84,2.12-8.7,5.57-11.47l1.39,1.21c-3.28,2.87-4.77,6.09-4.77,10.26s1.49,7.39,4.77,10.26l-1.39,1.21c-3.45-2.77-5.57-6.63-5.57-11.47Z" style="fill: #fff; stroke-width: 0px;"/>
    <path d="m480.97,990.78c0-4.85,7.04-5.62,7.04-9.09,0-.91-.37-1.67-1.39-1.67s-1.64.94-1.64,2.25c0,2.98,3.31,6.94,6.41,9.2,1.17.94,2.28,1.57,3.26,1.87l-.66,2.07c-1.29-.37-2.66-1.13-4.11-2.28-3.63-2.8-7.04-7.52-7.04-10.82,0-2.25,1.49-4.03,3.75-4.03s3.42,1.37,3.42,3.39c0,4.11-6.62,5.38-6.62,8.96,0,1.69,1.28,2.8,2.93,2.8,1.2,0,2.35-.77,3.3-1.87,1.2-1.42,2.06-3.26,2.59-5.49h2.31c-.65,2.47-1.67,4.74-3.16,6.67-1.36,1.58-3.06,2.66-5.36,2.66-3.06,0-5.03-1.98-5.03-4.62Z" style="fill: #fff; stroke-width: 0px;"/>
    <path d="m496.84,993.48l1.12-1.63c1.45,1,3.12,1.62,5.25,1.62,1.89,0,2.79-.75,2.79-1.68,0-.87-.51-1.42-3.62-2.06-3.25-.67-4.78-1.8-4.78-3.67,0-2.06,1.85-3.59,5.26-3.59,1.96,0,3.83.77,5.07,1.6l-1.18,1.57c-1.17-.78-2.59-1.26-4.11-1.26-1.83,0-2.54.72-2.54,1.57,0,.97.98,1.34,3.4,1.86,4.01.88,5.02,1.91,5.02,3.84,0,2.06-2,3.76-5.64,3.76-2.35,0-4.54-.88-6.05-1.92Z" style="fill: #ffc259; stroke-width: 0px;"/>
    <path d="m511.94,988.92c0-4.01,3.02-6.44,6.32-6.44,3.62,0,5.67,2.38,5.67,5.82,0,.53-.06,1.04-.11,1.37h-10.14v-1.84h8.58l-.54.61c0-2.67-1.29-4.01-3.38-4.01s-3.93,1.59-3.93,4.5,1.9,4.52,4.55,4.52c1.38,0,2.49-.42,3.6-1.08l.88,1.59c-1.27.83-2.91,1.46-4.8,1.46-3.74,0-6.69-2.38-6.69-6.49Z" style="fill: #ffc259; stroke-width: 0px;"/>
    <path d="m531.38,990.78v-11.56h-4.24v-2.01h6.75v13.72c0,1.71.97,2.4,2.32,2.4.67,0,1.39-.16,2.21-.52l.6,1.87c-1.18.46-2,.72-3.4.72-2.76,0-4.25-1.65-4.25-4.62Z" style="fill: #ffc259; stroke-width: 0px;"/>
    <path d="m543.04,982.9l3.52-.13h7.33v2h-10.86v-1.87Zm3.46-.98c0-2.95,1.59-5.01,5.11-5.01,1.27,0,2.47.25,3.6.7l-.54,1.87c-.95-.4-1.76-.56-2.79-.56-2.04,0-2.89,1.09-2.89,2.94v13.24h-2.49v-13.17Z" style="fill: #ffc259; stroke-width: 0px;"/>
    <path d="m558.82,998.35c3.28-2.87,4.77-6.09,4.77-10.26s-1.49-7.39-4.77-10.26l1.39-1.21c3.45,2.77,5.57,6.63,5.57,11.47s-2.12,8.7-5.57,11.47l-1.39-1.21Z" style="fill: #19a3ff; stroke-width: 0px;"/>
    <path d="m588.04,985.86h11.04v1.84h-11.04v-1.84Z" style="fill: #bb82fa; stroke-width: 0px;"/>
    <path d="m603.77,991.63l7.34-4.86v-.1l-7.34-4.86v-2.37l9.5,6.35v1.86l-9.5,6.35v-2.37Z" style="fill: #bb82fa; stroke-width: 0px;"/>
    <path d="m635.91,993.74h-.08l-.23,1.36h-1.98v-17.88h2.51v4.74l-.11,2.27h.08c1.06-1.07,2.55-1.75,3.93-1.75,3.26,0,5.08,2.46,5.08,6.26,0,4.22-2.62,6.67-5.5,6.67-1.2,0-2.6-.62-3.71-1.67Zm6.63-4.97c0-2.58-.94-4.2-3.16-4.2-1.01,0-2.13.5-3.25,1.65v5.83c1.02.93,2.18,1.26,3.01,1.26,1.92,0,3.4-1.63,3.4-4.54Z" style="fill: #f55; stroke-width: 0px;"/>
    <path d="m647.97,988.96c0-4.13,2.89-6.49,6.14-6.49s6.14,2.36,6.14,6.49-2.89,6.44-6.14,6.44-6.14-2.36-6.14-6.44Zm9.7,0c0-2.66-1.38-4.42-3.57-4.42s-3.56,1.76-3.56,4.42,1.38,4.38,3.56,4.38,3.57-1.74,3.57-4.38Z" style="fill: #f55; stroke-width: 0px;"/>
    <path d="m663.11,988.96c0-4.13,2.89-6.49,6.14-6.49s6.14,2.36,6.14,6.49-2.89,6.44-6.14,6.44-6.14-2.36-6.14-6.44Zm9.7,0c0-2.66-1.38-4.42-3.57-4.42s-3.56,1.76-3.56,4.42,1.38,4.38,3.56,4.38,3.57-1.74,3.57-4.38Z" style="fill: #f55; stroke-width: 0px;"/>
    <path d="m682.76,990.78v-11.56h-4.24v-2.01h6.75v13.72c0,1.71.97,2.4,2.32,2.4.67,0,1.39-.16,2.21-.52l.6,1.87c-1.18.46-2,.72-3.4.72-2.76,0-4.25-1.65-4.25-4.62Z" style="fill: #f55; stroke-width: 0px;"/>
    <path d="m713.37,995.52c0-1.83.25-3.06.25-4.72,0-.96-.7-1.91-3.61-1.94v-1.54c2.91-.03,3.61-.98,3.61-1.94,0-1.58-.25-2.98-.25-4.72,0-2.63,1.5-3.42,4.68-3.42h1.66v1.39h-1.24c-2.45,0-2.98.58-2.98,2.16,0,1.41.14,2.9.14,4.45,0,1.71-.6,2.5-2.36,2.8v.1c1.76.3,2.36,1.09,2.36,2.8s-.14,2.96-.14,4.45c0,1.58.53,2.16,2.98,2.16h1.24v1.39h-1.66c-3.18,0-4.68-.79-4.68-3.42Z" style="fill: #fff; stroke-width: 0px;"/>
    <path d="m375.74,1023.76l1.12-1.63c1.45.99,3.12,1.62,5.25,1.62,1.89,0,2.79-.75,2.79-1.68,0-.87-.51-1.42-3.62-2.06-3.25-.67-4.78-1.8-4.78-3.67,0-2.06,1.85-3.59,5.26-3.59,1.96,0,3.83.77,5.07,1.6l-1.18,1.57c-1.17-.78-2.59-1.26-4.11-1.26-1.83,0-2.54.72-2.54,1.57,0,.96.98,1.34,3.4,1.86,4.01.88,5.02,1.91,5.02,3.84,0,2.06-2,3.76-5.64,3.76-2.35,0-4.54-.88-6.05-1.92Z" style="fill: #ffc259; stroke-width: 0px;"/>
    <path d="m390.84,1019.19c0-4.01,3.02-6.44,6.32-6.44,3.62,0,5.67,2.38,5.67,5.82,0,.53-.06,1.04-.11,1.36h-10.14v-1.84h8.57l-.54.61c0-2.67-1.29-4.01-3.38-4.01s-3.93,1.59-3.93,4.5,1.9,4.52,4.55,4.52c1.38,0,2.49-.42,3.6-1.08l.88,1.59c-1.27.84-2.91,1.46-4.8,1.46-3.74,0-6.69-2.38-6.69-6.49Z" style="fill: #ffc259; stroke-width: 0px;"/>
    <path d="m410.29,1021.06v-11.56h-4.24v-2h6.75v13.72c0,1.71.97,2.4,2.32,2.4.67,0,1.39-.16,2.21-.52l.6,1.87c-1.18.46-2,.72-3.4.72-2.76,0-4.25-1.65-4.25-4.62Z" style="fill: #ffc259; stroke-width: 0px;"/>
    <path d="m421.94,1013.18l3.52-.13h7.33v2.01h-10.86v-1.88Zm3.46-.98c0-2.95,1.59-5.01,5.11-5.01,1.27,0,2.47.25,3.6.7l-.54,1.87c-.95-.4-1.76-.56-2.79-.56-2.04,0-2.89,1.09-2.89,2.94v13.24h-2.49v-13.17Z" style="fill: #ffc259; stroke-width: 0px;"/>
    <path d="m439.91,1023.32c0-1.36.98-2.36,2.27-2.36s2.27,1,2.27,2.36-.98,2.36-2.27,2.36-2.27-.97-2.27-2.36Z" style="fill: #fff; stroke-width: 0px;"/>
    <path d="m450.9,1013.05h2.55l2.6,6.67c.46,1.24.89,2.47,1.3,3.69h.1c.42-1.22.8-2.45,1.28-3.69l2.6-6.67h2.41l-4.96,12.32h-2.84l-5.05-12.32Z" style="fill: #19a3ff; stroke-width: 0px;"/>
    <path d="m466.79,1022.12c0-2.76,2.51-4.12,8.73-4.59-.09-1.52-.91-2.75-3.1-2.75-1.49,0-2.96.68-4.17,1.39l-.96-1.68c1.38-.85,3.43-1.75,5.57-1.75,3.4,0,5.16,1.95,5.16,5.21v7.42h-2.08l-.2-1.6h-.08c-1.32,1.03-3.03,1.9-4.72,1.9-2.36,0-4.17-1.38-4.17-3.56Zm8.73-.1v-2.89c-4.84.35-6.28,1.32-6.28,2.79,0,1.24,1.11,1.75,2.43,1.75s2.57-.62,3.85-1.66Z" style="fill: #19a3ff; stroke-width: 0px;"/>
    <path d="m485.97,1021.06v-11.56h-4.24v-2h6.75v13.72c0,1.71.97,2.4,2.32,2.4.67,0,1.39-.16,2.21-.52l.6,1.87c-1.18.46-2,.72-3.4.72-2.76,0-4.25-1.65-4.25-4.62Z" style="fill: #19a3ff; stroke-width: 0px;"/>
    <path d="m497.01,1020.69v-7.65h2.51v7.32c0,2.13.71,3.15,2.57,3.15,1.29,0,2.22-.57,3.45-2.03v-8.43h2.51v12.32h-2.07l-.2-2.05h-.1c-1.2,1.4-2.61,2.36-4.48,2.36-2.89,0-4.19-1.77-4.19-4.98Z" style="fill: #19a3ff; stroke-width: 0px;"/>
    <path d="m511.94,1019.19c0-4.01,3.02-6.44,6.32-6.44,3.62,0,5.67,2.38,5.67,5.82,0,.53-.06,1.04-.11,1.36h-10.14v-1.84h8.58l-.54.61c0-2.67-1.29-4.01-3.38-4.01s-3.93,1.59-3.93,4.5,1.9,4.52,4.55,4.52c1.38,0,2.49-.42,3.6-1.08l.88,1.59c-1.27.84-2.91,1.46-4.8,1.46-3.74,0-6.69-2.38-6.69-6.49Z" style="fill: #19a3ff; stroke-width: 0px;"/>
    <path d="m316.06,1058.09h1.22c2.45,0,3-.58,3-2.16,0-1.49-.14-2.78-.14-4.45s.58-2.5,2.34-2.8v-.1c-1.76-.3-2.34-1.09-2.34-2.8,0-1.54.14-3.04.14-4.45,0-1.58-.55-2.16-3-2.16h-1.22v-1.39h1.64c3.2,0,4.66.79,4.66,3.42,0,1.75-.24,3.14-.24,4.72,0,.96.7,1.91,3.61,1.94v1.54c-2.92.03-3.61.98-3.61,1.94,0,1.67.24,2.9.24,4.72,0,2.63-1.46,3.42-4.66,3.42h-1.64v-1.39Z" style="fill: #fff; stroke-width: 0px;"/>
    <path d="m270.65,1088.37h1.22c2.45,0,3-.58,3-2.16,0-1.49-.14-2.78-.14-4.45s.58-2.5,2.34-2.8v-.1c-1.76-.3-2.34-1.09-2.34-2.8,0-1.54.14-3.04.14-4.45,0-1.58-.55-2.16-3-2.16h-1.22v-1.39h1.64c3.2,0,4.66.79,4.66,3.42,0,1.75-.24,3.14-.24,4.72,0,.96.7,1.91,3.61,1.94v1.54c-2.92.03-3.61.98-3.61,1.94,0,1.67.24,2.9.24,4.72,0,2.63-1.46,3.42-4.66,3.42h-1.64v-1.39Z" style="fill: #fff; stroke-width: 0px;"/>
    <path d="m225.23,1118.64h1.22c2.45,0,3-.58,3-2.16,0-1.49-.14-2.78-.14-4.45s.58-2.5,2.34-2.8v-.1c-1.76-.3-2.34-1.09-2.34-2.8,0-1.54.14-3.04.14-4.45,0-1.58-.55-2.16-3-2.16h-1.22v-1.39h1.64c3.2,0,4.66.79,4.66,3.42,0,1.75-.24,3.14-.24,4.72,0,.96.7,1.91,3.61,1.94v1.54c-2.92.03-3.61.98-3.61,1.94,0,1.67.24,2.89.24,4.72,0,2.63-1.46,3.42-4.66,3.42h-1.64v-1.39Z" style="fill: #fff; stroke-width: 0px;"/>
  </g>
  <path d="m873.19,1169.58H168.27c-15.84,0-28.73-12.89-28.73-28.73V335.78c0-11.27,9.17-20.44,20.44-20.44h721.51c11.27,0,20.44,9.17,20.44,20.44v805.06c0,15.85-12.89,28.74-28.74,28.74ZM159.98,319.34c-9.06,0-16.44,7.37-16.44,16.44v805.08c0,13.64,11.09,24.73,24.73,24.73h704.92c13.64,0,24.74-11.1,24.74-24.74V335.78c0-9.06-7.37-16.44-16.44-16.44H159.98Z" style="fill: #bb82fa; stroke-width: 0px;"/>
  <g>
    <path d="m990.74,737.04c-119.83-.79-117.84,4.94-153.1,97.45-1.64,4.31,1.64,8.92,6.24,8.76,131.95-4.44,132.08-50.47,152.74-97.19,1.87-4.23-1.26-8.98-5.88-9.02Z" style="fill: #ba81f9; stroke-width: 0px;"/>
    <path d="m1043.64,703.26c-19.61,24.29-45.57,42-71.23,58.78-34.3,21.9-70.46,40.33-107.05,57.54-4.24,1.86-7.4-4.28-3.1-6.52,36.2-17.53,71.63-36.78,104.95-58.99,24.28-16.55,48.7-34.85,66.51-58.29,5.61-8.27,15.93-23.19,5.8-30.97-11.21-6.45-26.04-4.03-38.95-1.61-20.39,4.64-40.03,12.48-58.83,22.14-5.46,2.81-10.68-10.34-4.78-13.29,10.02-5.02,20.26-9.54,30.77-13.5,22.39-7.91,57.51-18.66,79.52-4.66,17.8,12.7,7.31,36.19-3.6,49.38Z" style="fill: #8547ca; stroke-width: 0px;"/>
  </g>
  <g>
    <path d="m223.72,930.78c-26.02,1.23-50.22-.46-71-5.88-74.97-19.54-105.73-82.99-13.11-118.3v-85.36C17.01,749.34-11.24,824.05,7.53,884.73c17.98,58.12,83.25,86.52,185.88,75.84,58.6-6.1,79.99-26.83,79.99-32.49s-22.42,1.42-49.68,2.7Z" style="fill: #bb82fa; stroke-width: 0px;"/>
    <path d="m273.4,928.08c0,5.65-21.39,26.39-79.99,32.48-54.55,5.68-98.52.33-130.46-14.66-9.7-4.55-18.29-9.98-25.72-16.28-14.18-11.96-22.95-27.45-29.7-44.89-23-59.4,9.48-135.39,132.07-163.48v85.36c-51.59,19.68-64.89,48.07-53.6,72.75,2.57,5.65,6.45,11.1,11.45,16.21,12.37,12.64,31.62,23.17,55.27,29.33,20.78,5.41,44.99,7.1,71,5.88,27.25-1.29,49.68-8.37,49.68-2.7Z" style="fill: #bb82fa; stroke-width: 0px;"/>
    <path d="m62.95,945.91c-9.7-4.55-18.29-9.98-25.72-16.28,0-39.85,34.34-50.26,48.78-50.26,2.57,5.65,6.45,11.1,11.45,16.21-32.53,3.88-44.95,32.23-34.5,50.33Z" style="fill: #d1a5ff; stroke-width: 0px;"/>
    <path d="m147.92,923.57c-115.6-17.29-145.68-138.28-8.31-171.96v55c-90.62,34.54-63.12,96.02,8.31,116.96Z" style="fill: #8647cb; stroke-width: 0px;"/>
    <path d="m129.19,780.47c-5.92-8.9-22.56-4.63-36.07,3.92-13.07,8.27-23.22,20.55-17.62,29.06,6.24,9.48,23.28,7.62,36.84-1,13.02-8.28,22.85-22.95,16.85-31.97Z" style="fill: #d7b6fa; stroke-width: 0px;"/>
    <path d="m88.17,860.21c4.64,11.24,7.18,26.86,1.4,29.24-5.78,2.38-14.17-9.24-19.67-22.58-5.5-13.34-7.12-23.26-1.34-25.64,5.78-2.38,14.98,7.74,19.61,18.98Z" style="fill: #d7b6fa; stroke-width: 0px;"/>
    <path d="m110.48,905.71c1.24-7.37,42.24,11.62,42.24,19.2-1.14,1.14-43.61-11.06-42.24-19.2Z" style="fill: #d7b6fa; stroke-width: 0px;"/>
    <path d="m139.61,721.25v44.16l-18.9,5.13s1.37-20.69-17.4-38.69c11.04-4.03,23.12-7.59,36.3-10.6Z" style="fill: #8647cb; stroke-width: 0px;"/>
  </g>
  <g>
    <path d="m117.68,1179.26c-84.73,30.38-134.29,123.11-99.37,96.81,11.42-8.59,32.13-19.21,57.36-27.6,51.9-17.25,118.96-33.2,168.28,5.31,73.29,57.23,168.53,20.81,202.68-49.37,4.85-10.1-37.28-27.81-50.56-22.03-19.99,8.69-12.37,2.22-12.37,2.22,0,0-21.1,26.2-65.54,17.33-44.47-8.87-122.74-50.54-200.48-22.66Z" style="fill: #ba81f9; stroke-width: 0px;"/>
    <path d="m117.68,1179.26c-84.73,30.38-134.29,123.11-99.37,96.81,11.42-8.59,32.13-19.21,57.36-27.6,0,0,29.33-37.79,94.39-39.72,92.42-2.72,160.26,69.02,226.01-26.37,2.96-4.29-14.99.54-14.99.54,0,0-19.1,27.25-63.55,18.37-44.47-8.87-122.11-49.91-199.85-22.03Z" style="fill: #8547ca; stroke-width: 0px;"/>
    <path d="m189.11,1163.5c-22.56-.15-36.73,12.38-25.52,22.56,11.21,10.17,39.41,10.36,50.75.33s-2.67-22.74-25.23-22.89Z" style="fill: #d6b5f9; stroke-width: 0px;"/>
    <path d="m95,1185.51c-15.66,9.17-20.1,24.03-8,26.75,12.11,2.72,31.68-8.74,35.24-20.63,3.55-11.89-11.58-15.29-27.24-6.12Z" style="fill: #d6b5f9; stroke-width: 0px;"/>
    <path d="m32.85,1232.57c-10.57,9.36-11.72,21.38-2.07,21.63,9.65.25,22.87-11.45,23.79-21.06.92-9.61-11.15-9.92-21.72-.56Z" style="fill: #d6b5f9; stroke-width: 0px;"/>
    <path d="m288.43,1185.93c-24.1-5.51-41.92,3.07-32.06,15.45,9.85,12.38,39.98,19.26,54.23,12.4,14.25-6.87,1.94-22.34-22.17-27.85Z" style="fill: #d6b5f9; stroke-width: 0px;"/>
  </g>
  <g>
    <path d="m1038.81,1130.61c.3,2.66.19,5.27-.29,7.77l6.44-.19-13.08,13.15v-.02c-4.03,4.28-9.54,7.21-15.84,7.92l-343.28,39.1c-14.2,1.62-27.02-8.58-28.64-22.78l-7.66-67.26c-.91-8,1.93-15.57,7.12-20.93l.28-.28,13.25-13.3-.05,6.23c.71-.14,1.43-.26,2.17-.34l343.29-39.11c14.19-1.62,27.01,8.58,28.63,22.77l7.67,67.27Z" style="fill: #d0acf9; stroke-width: 0px;"/>
    <g>
      <rect x="652.81" y="1045.86" width="397.24" height="119.44" rx="27.37" ry="27.37" transform="translate(-119.66 103.47) rotate(-6.5)" style="fill: #fff; stroke-width: 0px;"/>
      <path d="m689.38,1175.21c-11.03,0-20.58-8.3-21.85-19.52l-6.56-57.58c-1.37-12.06,7.32-22.99,19.38-24.36l330.62-37.66c5.84-.66,11.59.98,16.19,4.64s7.5,8.89,8.17,14.74l6.56,57.58c1.37,12.06-7.32,22.99-19.38,24.36l-330.62,37.66c-.84.1-1.68.14-2.51.14Zm324.09-135.27c-.68,0-1.36.04-2.05.12l-330.62,37.66c-9.87,1.12-16.98,10.07-15.86,19.93l6.56,57.58c1.12,9.87,10.06,16.99,19.93,15.86l330.62-37.66.23,1.99-.23-1.99c9.87-1.12,16.98-10.07,15.86-19.93l-6.56-57.58c-1.05-9.18-8.86-15.97-17.88-15.97Z" style="fill: #ba81f9; stroke-width: 0px;"/>
      <g>
        <path d="m777.78,1139.08l1.43-14.8c1.71,0,3.93-.06,6.99-.41,7.15-.81,12.77-3.43,16.43-7.36,3.67-3.93,5.35-9.14,4.67-15.08-.46-4.03-1.92-7.29-4.25-9.7-2.33-2.41-5.49-3.93-9.33-4.52-2.23-.34-4.69-.37-7.34-.07-2.81.32-8.22,1.7-11.47,2.64l-.21.06-4.86,50.14,7.93-.9h0Zm7.25-22.46c-1.08.12-2.04.22-2.92.27-.78.05-1.51.08-2.2.08l2.08-21.48c1.4-.37,3.38-.84,5.45-1.08,1.27-.14,2.45-.17,3.52-.09,2.06.15,3.76.71,5.08,1.61,2,1.36,3.19,3.55,3.52,6.45.42,3.72-.56,6.96-2.95,9.43-2.39,2.47-6.23,4.2-11.57,4.8Z" style="fill-rule: evenodd; stroke-width: 0px;"/>
        <path d="m847.58,1131.13l4.91-50.62-7.93.9-4.9,50.62,7.93-.9h0Z" style="stroke-width: 0px;"/>
        <path d="m944.12,1088.15l1.8-18.28,7.94-.9-3.27,33.19c-.3,2.91-.47,6.19-.25,8.09.09.78.26,1.36.51,1.73.12.18.26.3.4.37.15.07.32.1.55.08.29-.03.63-.21,1.02-.54.39-.33.79-.78,1.2-1.33.8-1.08,1.6-2.47,2.3-3.85-.02-.16-.04-.32-.06-.49-.6-5.3.67-10.95,3.49-15.45,2.82-4.49,7.19-7.84,12.8-8.48,3.88-.44,7.14.57,9.54,2.66,2.4,2.09,3.9,5.23,4.33,8.99,1.03,9-3.31,19-11.44,22.67-1.49.67-3.12,1.13-4.84,1.33s-3.31.11-4.77-.24c-2.51-.59-4.6-1.93-6.14-3.85-1.39,2.24-3.02,4.01-4.95,5.11-1.11.64-2.34,1.05-3.62,1.2s-2.46.01-3.49-.4c-2.18-.88-3.63-2.97-4.15-6.08-1.47,3.18-3.64,5.82-6.64,7.33-1.29.65-2.72,1.08-4.31,1.27-1.49.17-2.88.05-4.16-.31-2.68-.75-4.82-2.57-6.23-5.04-1.38,3.01-3.02,5.1-5,6.31-1.06.65-2.24,1.04-3.46,1.18s-2.34,0-3.32-.42c-2.09-.88-3.46-2.91-3.98-5.66-1.38,2.92-3.38,5.39-6.2,6.84-1.26.65-2.67,1.08-4.26,1.26-1.48.17-2.88.06-4.18-.3-1.61-.45-2.94-1.34-4.01-2.51-1.46,1.83-3.25,3.24-5.24,4.12-2.22.98-4.74,1.29-7.21.58-2.5-.72-4.62-2.39-6.12-4.79-.77-1.23-1.57-2.7-2.34-4.12-.22-.4-.43-.79-.64-1.18-.47-.85-.93-1.68-1.4-2.48-.83.27-1.64.49-2.41.65l-1.29,13.27-8.19.93,4.93-50.88,8.19-.93-2.74,28.22c3.99-1.67,9.3-5.73,12.26-14.58l8.17,2.82c-2.73,8.18-7.2,13.51-11.79,16.82.45.76.86,1.52,1.26,2.24.26.48.51.93.75,1.37.74,1.37,1.38,2.53,2,3.53.55.88,1.11,1.19,1.51,1.31.44.13,1.06.12,1.84-.22,1.57-.69,3.5-2.71,4.17-6.24l.38-3.53c.05-2.3.38-4.42.93-6.02,2.64-7.65,9.01-13.34,16.68-14.22,2.5-.28,5.17.02,7.55.68,2.38.65,4.5,1.66,5.87,2.8l.13.11-.02.17c-.12,1.1-.28,2.45-.45,3.93-.28,2.39-.59,5.13-.86,7.75-.22,2.11-.4,4.14-.52,5.83-.11,1.7-.14,3.02-.06,3.75.06.55.22.93.42,1.16.19.21.43.31.74.28.44-.05.93-.35,1.46-.98.53-.62,1.08-1.53,1.63-2.72,1.1-2.37,2.22-5.78,3.32-10.06,1.89-9.12,8.67-15.74,16.11-16.59,3.42-.39,5.91.36,7.79,1.74h0Zm-38.63,16.26l.75-6.31c-1.44-.65-3.04-1.03-5-.8-3.41.39-6.19,2.63-8.03,5.72-1.84,3.08-2.71,6.97-2.3,10.57.21,1.82.81,3.25,1.72,4.18.9.92,2.12,1.37,3.64,1.2,2.28-.26,4.33-1.67,5.94-4.15,1.61-2.47,2.78-5.99,3.27-10.4h0Zm37.78-8.01l.17-1.85c-1.5-.92-3.46-1.51-5.9-1.24-3.27.37-5.94,2.55-7.69,5.58-1.76,3.03-2.58,6.88-2.17,10.51.22,1.89.82,3.32,1.7,4.24.87.9,2.04,1.33,3.46,1.16,2.6-.3,4.95-2.26,6.79-5.51,1.84-3.24,3.14-7.71,3.65-12.89h0Zm22.61,12.82c.97,1,2.35,1.54,4.25,1.33,2.74-.31,5.03-2.41,6.56-5.32,1.53-2.91,2.25-6.57,1.87-9.9-.2-1.79-.79-3.31-1.76-4.33-.97-1-2.35-1.54-4.25-1.33-2.73.31-5.03,2.42-6.56,5.35-1.52,2.92-2.25,6.59-1.87,9.88.2,1.79.79,3.31,1.76,4.32Z" style="fill-rule: evenodd; stroke-width: 0px;"/>
        <path d="m1014.7,1102.67l-.15.29c-1.21,2.32-2.91,4.94-4.13,6.3-.99,1.11-2.15,2.17-3.46,3.04-1.58,1.05-3.4,1.82-5.41,2.05-1.71.19-3.22.06-4.52-.37-3.55-1.16-5.51-4.41-5.99-8.58-.19-1.65-.18-3.28-.12-4.57h0s0-.04,0-.04c.02-.45.05-.86.09-1.21l1.14-11.8-5.43.62.69-7.11,5.39-.61,1.36-13.67,7.93-.9-1.37,13.67,9.61-1.09-.69,7.11-9.64,1.1-1.14,12.07s0,.05,0,.08h0s0,.01,0,.01c0,.03,0,.05,0,.08h0v.03c-.14,1.69-.22,3.21-.08,4.45.13,1.14.46,1.99.94,2.53.47.52,1.09.77,1.88.68.91-.1,1.7-.53,2.55-1.3.86-.78,1.75-1.89,2.87-3.35.09-.12.62-.96,1.2-1.86l.46-.73,6.02,3.09Z" style="stroke-width: 0px;"/>
        <path d="m823.67,1099.24c-5.6.64-9.98,3.98-12.8,8.48-2.82,4.49-4.09,10.14-3.49,15.45.68,5.93,3.97,10.28,9.12,11.49,1.45.34,3.05.43,4.76.23,1.71-.2,3.34-.65,4.83-1.32,8.14-3.66,12.47-13.67,11.45-22.67-.43-3.77-1.94-6.91-4.33-8.99-2.4-2.09-5.66-3.1-9.54-2.66Zm-2.41,28.26c-1.9.22-3.29-.33-4.25-1.33-.98-1.01-1.56-2.53-1.76-4.32-.37-3.29.35-6.96,1.87-9.88,1.53-2.92,3.82-5.04,6.56-5.35,1.9-.22,3.29.33,4.25,1.33.98,1.01,1.56,2.53,1.76,4.33.38,3.32-.35,6.99-1.87,9.9-1.53,2.91-3.83,5.01-6.56,5.32Z" style="fill-rule: evenodd; stroke-width: 0px;"/>
        <path d="m719.82,1100.2c6.82-.78,11.97-4.66,11.52-8.68-.46-4.02-6.36-6.64-13.17-5.87-6.82.78-11.97,4.66-11.52,8.68.46,4.02,6.36,6.64,13.17,5.87Z" style="fill: #ff2670; stroke-width: 0px;"/>
        <path d="m726.06,1154.96c6.82-.78,11.97-4.66,11.52-8.68-.46-4.02-6.36-6.64-13.17-5.87-6.82.78-11.97,4.66-11.52,8.68.46,4.02,6.36,6.64,13.17,5.87Z" style="fill: #ff2670; stroke-width: 0px;"/>
        <path d="m703.76,1112.22c2.73-6.36,1.97-12.83-1.69-14.45-3.66-1.62-8.85,2.23-11.57,8.6-2.73,6.36-1.97,12.83,1.69,14.45,3.66,1.62,8.85-2.23,11.57-8.6Z" style="fill: #ff2670; stroke-width: 0px;"/>
        <path d="m753.74,1134.26c2.73-6.36,1.97-12.83-1.7-14.45-3.66-1.62-8.85,2.23-11.58,8.6-2.73,6.36-1.97,12.83,1.7,14.45,3.66,1.62,8.85-2.23,11.58-8.6Z" style="fill: #ff2670; stroke-width: 0px;"/>
        <path d="m707.65,1146.79c3.21-2.4,2.49-8.87-1.6-14.46-4.09-5.59-10.01-8.17-13.21-5.77-3.21,2.4-2.49,8.87,1.6,14.46,4.09,5.59,10.01,8.17,13.21,5.77Z" style="fill: #ff2670; stroke-width: 0px;"/>
        <path d="m751.39,1114.07c3.21-2.4,2.49-8.87-1.6-14.46-4.09-5.59-10.01-8.17-13.21-5.77-3.21,2.4-2.49,8.87,1.6,14.46,4.09,5.59,10.01,8.17,13.21,5.77Z" style="fill: #ff2670; stroke-width: 0px;"/>
      </g>
    </g>
  </g>
  <path d="m948.2,1194.34c-3.06-18.16-5.55-29.11-13.58-44.5-11.85-22.73-21.33-19.1-19.77-3.53,1.75,17.51,1.45,27-1.24,50.39l34.59-2.36Z" style="fill: #ba81f9; stroke-width: 0px;"/>
</svg>