<?xml version="1.0" encoding="utf-8"?>
<!-- Generator: Adobe Illustrator 28.0.0, SVG Export Plug-In . SVG Version: 6.00 Build 0)  -->
<svg version="1.1" id="Layer_1" xmlns="http://www.w3.org/2000/svg" xmlns:xlink="http://www.w3.org/1999/xlink" x="0px" y="0px"
	 viewBox="0 0 986.3 766.2" style="enable-background:new 0 0 986.3 766.2;" xml:space="preserve">
<style type="text/css">
	.st0{fill:#BB82FA;}
	.st1{fill:#8647CB;}
	.st2{fill:#D7B6FA;}
	.st3{fill:#965CD5;}
	.st4{fill:#FFFFFF;}
</style>
<g>
	<g>
		<path class="st0" d="M588.5,219.5c-5.8-0.7-11.6-1.5-17.5-2.4c-23.9-3.7-47.3-8.1-69.8-13.7c-56-13.7-106.6-34.2-146.6-67.2
			c-40.2-33.2-51.8-81.4-21.7-113.1c0,0,0,0,0,0c2.6-2.7,5.5-5.3,8.7-7.8c32.8-25.1,91-18.7,117.2,13.4
			c26.1,32.1,9.9,60.8-20.4,63.8c-29.1,3-54.2-6-64.9-20.6c-8.9-12.2,8.2-18.5,20.5-18.3c12.2,0.2,25.1,5.1-1.9,10.1
			c41.3,11.9,49.1-6.5,33.3-19.8c-15-12.6-57.9-18.8-63.4,3.6c-0.9,3.6-1.1,7-0.8,10.3c1.1,11.4,9,21.4,22,31.3
			c1.5,1.1,3,2.2,4.6,3.3c8.2,5.7,18.1,11.4,29.4,17.3c6.4,3.3,13.2,6.7,20.3,10.2c13.8,6.7,28.8,12.6,46.5,17.7
			c25.2,7.3,56,12.9,97,16.9c6.6,0.6,13.5,1.2,20.6,1.8c30.8,2.4,66.9,4,109.8,4.8l-4.1,62.5c0,0-20.9,1.2-51.2,0.5
			C636.6,223.8,612.9,222.5,588.5,219.5L588.5,219.5z"/>
		<path class="st1" d="M392.2,63.9c41.3,11.9,49.1-6.5,33.3-19.8c-15-12.6-57.9-18.8-63.4,3.6c2.6-40.6,81-30.8,88.4,1
			C455.1,68.7,431.2,80.3,392.2,63.9L392.2,63.9z"/>
		<path class="st1" d="M588.5,219.5c-2.4-0.3-4.8-0.6-7.2-0.9c-0.5-0.1-1-0.1-1.6-0.2c-1-0.1-2-0.3-2.9-0.4
			c-0.8-0.1-1.6-0.2-2.3-0.3c-1.1-0.2-2.3-0.3-3.4-0.5c-2.6-0.4-5.2-0.8-7.8-1.2c-0.5-0.1-1-0.2-1.5-0.2c-2.7-0.4-5.4-0.9-8.1-1.4
			c-0.7-0.1-1.3-0.2-2-0.4c-1.9-0.3-3.7-0.7-5.6-1c-0.7-0.1-1.4-0.2-2.1-0.4c-4.3-0.8-8.5-1.6-12.7-2.4c-1.4-0.3-2.7-0.6-4.1-0.8
			c-1.5-0.3-3-0.6-4.6-1c-1.1-0.2-2.1-0.4-3.2-0.7c-1.1-0.2-2.1-0.5-3.2-0.7c-2.1-0.5-4.2-0.9-6.2-1.4c-2.9-0.7-5.8-1.4-8.7-2.1
			c-56-13.7-106.6-34.2-146.6-67.2c-40.2-33.2-51.8-81.4-21.7-113.1c-11.7,17.2-19.1,73.1,54,114.3c27.9,15.7,63.2,27.3,100.5,35.7
			c32.2,7.3,65.8,12.2,97.4,15.5c15.8,1.6,31.2,2.8,45.5,3.6c33.3,1.9,61.5,1.9,79,0.9l-2,30.7c0,0-1.3,0.1-3.8,0.2
			c-0.3,0-0.6,0-1,0c-0.8,0-1.8,0.1-2.9,0.1c-0.4,0-0.9,0-1.3,0c-0.3,0-0.6,0-1,0c-0.4,0-0.8,0-1.2,0c-0.6,0-1.2,0-1.8,0.1
			c-0.7,0-1.4,0-2.1,0.1c-0.4,0-0.9,0-1.3,0c-2,0-4.1,0.1-6.4,0.1c-2.7,0-5.7,0-8.8,0.1c-1.2,0-2.5,0-3.8,0c-0.5,0-1,0-1.4,0
			c-1.5,0-3,0-4.6,0c-3.2,0-6.5-0.1-9.9-0.2C636.5,223.8,612.9,222.5,588.5,219.5L588.5,219.5z"/>
		<path class="st2" d="M431.4,184.9c-15.2-5.3-22-14.9-12.3-17.3c9.7-2.4,28.7,4.2,34.1,11.9C458.7,187.2,446.6,190.2,431.4,184.9
			L431.4,184.9z"/>
		<path class="st2" d="M496.3,207.4c-1.3-0.3-2.5-0.6-3.6-0.9c-17.6-5-26.1-14.5-15.1-18.2c3.9-1.3,9.3-1.5,15.1-0.9
			c11.5,1.2,24.5,5.6,30.1,11.3C530.9,207.1,516.3,211.9,496.3,207.4L496.3,207.4z"/>
		<path class="st2" d="M370.6,155.5c-13.5-9-18-19.5-8-18.9c10,0.6,26.9,11.8,30.4,20.2C396.6,165.2,384.1,164.5,370.6,155.5
			L370.6,155.5z"/>
		<path class="st2" d="M326.8,112.8c-7.7-11.1-7.6-20.6,0.1-17.2c7.7,3.4,17.3,17.3,17.3,24.9S334.5,123.9,326.8,112.8L326.8,112.8z
			"/>
		<path class="st2" d="M312.4,65.3c-0.6-10.9,3.5-17.8,7.3-12.5s4.6,19,1.3,24.5C317.8,82.9,313,76.2,312.4,65.3z"/>
		<path class="st2" d="M394.9,34.8c-9.2-0.6-14.7-4.9-9.9-7.7c4.8-2.8,16.3-2.1,20.7,1.3S404.2,35.4,394.9,34.8L394.9,34.8z"/>
		<path class="st2" d="M425.5,42.7c-6.4-4.2-7.8-10-2.6-10.5c5.3-0.5,13.3,4.7,14.4,9.4S431.9,46.8,425.5,42.7L425.5,42.7z"/>
		<path class="st2" d="M431.3,60c2.8-4.5,7.3-6,8.2-2.6c0.9,3.4-2.6,9.1-6.2,10.2C429.6,68.8,428.5,64.5,431.3,60L431.3,60z"/>
	</g>
	<path class="st3" d="M383.3,89.3c-34-9.5-37.6-23-22-31.3C362.4,69.3,370.3,79.4,383.3,89.3z"/>
	<path class="st3" d="M387.8,92.6c8.2,5.7,18.1,11.4,29.4,17.3C409.5,114.6,390,110.9,387.8,92.6z"/>
</g>
<g>
	<path class="st0" d="M675.4,520.4c-70.5,163.8-154.8,198.1-210.7,188.8c-13.9-2.3-26-7.3-35.7-13.6c-30.4-19.8-44.2-47.3-59.7-76.5
		l0,0c-14.9-27.9-31.4-57.3-65.6-83.3c-40-30.4-107.8-51-158-42.3l-14.7-1.4c0,0,55.2-16.8,111.8-6c0.7,0.1,1.4,0.3,2,0.4
		c14.7,2.9,30,7.3,45.4,13.7c19.2,7.9,36.5,18.8,52.6,31l0,0c46.3,35.2,81.5,80.6,116.8,92.4c27.9,9.3,58.5-6.6,85.6-36
		c19-20.6,36.3-47.9,49.9-77.7L675.4,520.4L675.4,520.4z"/>
	<path class="st1" d="M675.4,520.4c-70.5,163.8-154.8,198.1-210.7,188.8h0c67.2-5.2,133.4-102,174.3-193.5L675.4,520.4L675.4,520.4z
		"/>
	<path class="st1" d="M369.2,619.1c-14.9-27.8-31.4-57.3-65.6-83.3c-40-30.4-99.7-44.9-158-38.6c-41.1,4.4-30.7-5.1-5.4-10.3
		c18.7-3.8,45.9-11.6,102.6-0.7c0.7,0.1,1.4,0.3,2,0.4C303.2,498.7,351.4,547.3,369.2,619.1L369.2,619.1z"/>
	<path class="st2" d="M627.9,624.2c-13.1,21.8-29.1,30.8-28.8,16.3c0.3-14.5,16.7-41.7,29.6-49C641.5,584.2,641.1,602.4,627.9,624.2
		z"/>
	<path class="st2" d="M560.2,691.5c-19.2,14.4-36.4,16.8-30.9,4.3s29.4-30.5,43.2-32.5C586.2,661.5,579.4,677.1,560.2,691.5
		L560.2,691.5z"/>
	<path class="st2" d="M672.9,539.4c-9.6,21.3-24.4,30.7-26.7,17c-2.3-13.7,9.6-40.3,21.5-47.9C679.5,501,682.4,518.1,672.9,539.4
		L672.9,539.4z"/>
	<path class="st2" d="M327,560.3c-8.1-10.3-9.3-19.7-2.2-16.9c7.1,2.8,17.3,15.7,18.3,23.2S335.1,570.6,327,560.3L327,560.3z"/>
	<path class="st2" d="M279.8,521.8c-12.5-8.3-16.7-18.7-7.6-18.7c9.1,0,24.7,10.3,28.1,18.6S292.3,530.1,279.8,521.8z"/>
	<path class="st2" d="M233.3,500.8c-8.9-2.4-13.2-8.7-7.7-11.3c5.5-2.7,16.6,0.3,20.1,5.3C249.1,499.8,242.2,503.2,233.3,500.8
		L233.3,500.8z"/>
	<path class="st2" d="M189.3,492.6c-7.5-0.2-12.1-4.2-8.3-7.1s13.2-2.7,16.9,0.5C201.5,489.2,196.8,492.8,189.3,492.6L189.3,492.6z"
		/>
	<path class="st2" d="M154.8,494.8c-5.7,0.8-9.7-2.2-7.3-5.3c2.4-3.2,9.5-4.2,12.8-1.8S160.4,494,154.8,494.8z"/>
	<path class="st2" d="M545.3,587.9c-49.1,71.4-97.9,52.9-147.3-1.7c-19.8-21.9-39.2-38.1-55.2-55.1c46.3,35.2,81.5,80.6,116.8,92.4
		c27.9,9.3,58.5-6.6,85.6-36C545.2,587.7,545.2,587.9,545.3,587.9L545.3,587.9z"/>
	<path class="st3" d="M487.1,625.2c-4.9,20.8-20.8,28.1-35,34.5c-15,6.8-28.2,12.8-26.8,33.3c-1.3-0.9-2.5-1.8-3.7-2.7
		c-0.1-20.7,14.7-27.4,29-33.9c13.7-6.2,27.8-12.6,32.6-30.6C484.4,625.6,485.7,625.4,487.1,625.2L487.1,625.2z"/>
</g>
<g>
	<path class="st0" d="M113.4,197.6c29-4.9,62.5-6.4,95.8-3.6c92.9,7.9,285.5,59,443.2,187.8c142.4,116.2,159,211.4,333.9,275.4
		l-41.8,109C710.3,644.4,652.4,466.9,480.4,351.7c-120.6-80.8-227.6-109.9-295.2-116.6c-28.8-2.9-50.4-1.6-62.8,1.4
		c-0.9,0.2-1.8,0.5-2.7,0.7c-13.6,3.6-22.2,8.5-26.2,13.9c0,0,0,0,0,0c-7.5,10,1,21.8,23.3,30.4c34.9,13.4,76.6,20.9,63.6-7.6
		c-5.2-11.4-13.8-21.6-12.9-24c1.2-3.2,12.1,4,22.8,15.3c12.4,13,22.1,32.6,8.8,45.7c0,0,0,0,0,0c-4.1,4.1-10.5,7.5-19.7,9.9
		c-42,11-111.6-15-144-56.7C13.1,232.7,53.5,207.8,113.4,197.6L113.4,197.6z"/>
	<path class="st0" d="M986.3,657.2l-41.8,109c-173.2-90-250-210.5-347.7-313.8c-1.3-1.4-2.6-2.8-3.9-4.1
		c-14.8-15.5-30.2-30.6-46.4-45.1c-1.9-1.7-3.8-3.4-5.7-5c-15.2-13.3-31.2-26-48.3-38.2c-2-1.4-4-2.8-6-4.2c-2-1.4-4-2.7-6-4.1
		c-120.6-80.8-227.6-109.9-295.2-116.6c-28.8-2.8-50.4-1.6-62.8,1.4c-0.9,0.2-1.8,0.5-2.7,0.7c-13.6,3.6-22.2,8.5-26.2,13.9
		c0,0,0,0,0,0c-7.5,10,1,21.8,23.3,30.4c34.9,13.4,76.6,20.9,63.6-7.7c-5.2-11.4-13.8-21.6-12.9-24c1.2-3.2,12.1,4,22.8,15.3
		c12.4,13,22.1,32.6,8.8,45.7c0,0,0,0,0,0c-4.1,4.1-10.5,7.5-19.7,9.9c-42,11-111.6-15-144-56.7c-22.2-31.5,18.1-56.3,78.1-66.5
		c28.9-4.9,62.5-6.4,95.8-3.6c92.9,7.9,285.5,59,443.2,187.8C794.8,498.1,811.4,593.3,986.3,657.2L986.3,657.2z"/>
	<path class="st3" d="M492.4,360c-2-1.4-4-2.8-6-4.2c-4-9.1-10-17.6-9.1-30.3c0.8-7.4,4.3-14,8.9-19.6c0.6-0.8,1.3-1.5,1.9-2.3
		l1.9,1.5c-2.1,3.3-4.1,6.6-5.6,10.1C476.1,333.2,488.3,344.9,492.4,360L492.4,360z"/>
	<path class="st3" d="M596.8,452.4c-1.3-1.4-2.6-2.8-3.9-4.1c1.8-23.8-13.5-39.5-45.4-45c-0.4-0.1-0.7-0.1-1.1-0.2
		c-1.9-1.7-3.8-3.4-5.7-5c7.6,0.7,15,2.1,22.2,4.4c15.6,4.9,30.1,15.4,33.5,32.3C597.7,440.7,597.7,446.5,596.8,452.4L596.8,452.4z"
		/>
	<path class="st1" d="M93.5,251.2c-7.5,10,1,21.8,23.3,30.4c34.9,13.4,76.6,20.9,63.6-7.6c-5.2-11.4-13.8-21.6-12.9-24
		c1.2-3.2,12.1,4,22.8,15.3c12.4,13,22.1,32.6,8.8,45.7c0,0,0,0,0,0c-27.9,18.6-74.7,2.6-98.4-14.1C79.3,281.7,77.4,265,93.5,251.2
		L93.5,251.2z"/>
	<path class="st2" d="M116,282.8c12,6.2,16.7,15.6,8.4,16.9c-8.3,1.3-23.3-6.5-27.1-14C93.6,278.2,103.9,276.6,116,282.8L116,282.8z
		"/>
	<path class="st2" d="M167.7,296.2c9.8-0.6,16.4,4.8,11.8,9.7s-16.9,5.7-22.2,1.4C152.1,303,157.9,296.8,167.7,296.2L167.7,296.2z"
		/>
	<path class="st2" d="M180.3,276.5c-1.8-7.7,0-13.2,3.3-9.9s5.6,12.9,4.1,17.3C186.3,288.3,182.1,284.2,180.3,276.5L180.3,276.5z"/>
	<path class="st1" d="M113.4,197.6c29-4.9,62.5-6.4,95.8-3.6c92.9,7.9,285.5,59,443.2,187.8c142.4,116.2,159,211.4,333.9,275.4
		l-22.1,57.5c-114.1-26.4-180.8-135.4-326.7-285.6C492.9,280.1,261.2,191.8,113.4,197.6L113.4,197.6z"/>
	<path class="st2" d="M202.3,187.9c13.8,1.2,22.1,6.3,14.9,9.1s-24.5,1.3-31.1-2.7C179.5,190.3,188.5,186.7,202.3,187.9z"/>
	<path class="st2" d="M279.2,199.7c19.6,4.4,30.6,12.6,19.8,14.7c-10.8,2.1-35.2-3.5-44-10C246.1,197.9,259.6,195.3,279.2,199.7
		L279.2,199.7z"/>
	<path class="st2" d="M372.9,225.7c22.3,7.8,34.1,18.6,21.3,19.5c-12.8,0.9-40.6-8.8-50.1-17.5C334.7,219,350.7,217.9,372.9,225.7
		L372.9,225.7z"/>
	<path class="st2" d="M469.7,264.5c23.5,11.6,34.6,26.2,20,26.2s-44.1-14.5-53-26.2S446.2,252.8,469.7,264.5L469.7,264.5z"/>
	<path class="st2" d="M577.3,325.1c23.4,16.5,32,35.4,15.5,34s-45.8-22.1-52.7-37.2S553.9,308.5,577.3,325.1L577.3,325.1z"/>
	<path class="st2" d="M689,418.9c24,21.5,30.4,44.7,11.4,41.7s-49-29.9-54.1-48.4C641.3,393.6,665,397.4,689,418.9L689,418.9z"/>
	<path class="st2" d="M773.3,510.4c0.3,0.2,0.5,0.5,0.8,0.8c21.4,22.4,25.7,45.1,7.7,40.8c-11-2.7-25.3-14.2-35.5-26.9
		c-6.4-8-11.3-16.5-12.6-23.5C730.3,483.6,752.2,488.6,773.3,510.4L773.3,510.4z"/>
	<path class="st0" d="M936.8,650.2c30,11.9,43.2,33.1,23.9,38.2c-19.4,5.1-56.8-9.7-67.4-26.7C882.6,644.8,906.8,638.3,936.8,650.2
		L936.8,650.2z"/>
	<path class="st0" d="M746.3,525c9-11.3,19-14.4,27-14.6c0.3,0.2,0.5,0.5,0.8,0.8c21.4,22.4,25.7,45.1,7.7,40.8
		C770.8,549.3,756.6,537.7,746.3,525L746.3,525z"/>
</g>
<g>
	<path d="M154.4,189.5c-3.7-1.4-18.4-6.7-18.4-6.7c-0.5-0.2-0.9-0.6-1.2-1.1l-8.8-19.2c-0.9-2-3.2-3.1-5.2-2.3
		c-2.2,0.9-3.2,3.3-2.2,5.4l8.1,17.7c0.4,0.8,0.2,1.8-0.5,2.4c0,0-3.3,3.2-6.5,5.9c-3.9,3.3,2.9,8.2,5.3,6.1
		c2.3-2.1,7.2-6.6,7.2-6.6c0.6-0.5,1.4-0.7,2.1-0.4c0,0,14.1,5.2,17.6,6.4C155.3,198.4,158.1,190.9,154.4,189.5L154.4,189.5z"/>
	<path d="M206.1,78.4c-5.9,1.7-10.3,3.6-13.7,5.7c-12.7,8-10.3,18.9-16.2,34.6c-9.5,25.3-44.4,37.4-44.4,37.4
		c-6.1,24.7-29.3,5.2-29.3,5.2c-56.6,20.3-86.4,32.5-78.1,17.4C-9,191.3-7,182.5,23.4,167.6C53.7,152.7,69,145.1,69,145.1
		c-18.6-3.2-10.7-7.7,8.6-19.4c20-12.2,47.8-27.2,60.2-35c12.3-7.8,18.7-26.7,33-31.1c6.7-2,15.3,1.8,22.7,6.5
		c5.7,3.7,10.7,7.8,13.2,10.1C207.4,76.8,207.1,78.1,206.1,78.4L206.1,78.4z"/>
	<path class="st4" d="M169.4,74.7c-0.1,0-0.2,0-0.3,0c-1.1-0.1-1.9-1.1-1.8-2.2c0.4-4,3.5-6.9,7.7-7.1h0c4.2-0.2,7.6,2.4,8.3,6.3
		c0.2,1.1-0.5,2.1-1.6,2.3s-2.1-0.5-2.3-1.6c-0.4-2.4-2.5-3.2-4.2-3.1l0,0c-1.7,0.1-3.7,1-3.9,3.4C171.2,73.9,170.4,74.7,169.4,74.7
		L169.4,74.7z"/>
</g>
</svg>
