<?xml version="1.0" encoding="UTF-8"?>
<svg width="490px" height="777px" viewBox="0 0 490 777" version="1.1" xmlns="http://www.w3.org/2000/svg" xmlns:xlink="http://www.w3.org/1999/xlink">
    <!-- Generator: Sketch 52.6 (67491) - http://www.bohemiancoding.com/sketch -->
    <title>Artboard</title>
    <desc>Created with Sketch.</desc>
    <g id="Artboard" stroke="none" stroke-width="1" fill="none" fill-rule="evenodd">
        <g id="Tentacles_l" transform="translate(-267.000000, -208.000000)">
            <g id="Group" transform="translate(389.130798, 413.897751) scale(1, -1) rotate(-300.000000) translate(-389.130798, -413.897751) translate(61.630798, 153.897751)">
                <path d="M567.3,63.6 C544.7,66.2 534.3,64.1 523.7,62.1 C523.7,62.1 524,28.6 548.5,12.4 C593.9,-17.6 646.4,20.3 654.2,26.4 C658.7,29.9 635.4,36.6 611.4,45.7 C594.1,52.4 576.8,62.5 567.3,63.6 Z" id="Path" fill="#8647CB"></path>
                <path d="M631,25.5 C626.2,25.3 621.3,24.6 616.5,24.5 C614.3,24.4 611.4,24.2 609.3,24.2 C586.7,23.9 563.3,29.2 545.2,43 C538.6,47.9 532.7,54 527.9,60.7 C525.6,63.9 520.9,60.6 523.1,57.3 C546.7,23.3 593,13.2 631.5,22.8 C633,23.2 632.6,25.6 631,25.5 Z" id="Path" fill="#BB82FA"></path>
                <path d="M77.7,495 C53,487.4 27.1,477.8 0,466.1 L21.7,445.6 C39,452.4 56,458.6 72.5,464 C238.9,518.5 365.4,497.9 451.5,411.1 C471.2,391.3 483.2,365.9 490.5,339.3 C490.6,338.8 490.8,338.3 490.9,337.9 C495.8,319.5 498.5,300.7 499.9,282.8 C500,281.6 500.1,280.5 500.2,279.3 C502.1,252.4 501.2,228 500.8,211.1 C499.8,166 479.2,90.8 538,42.5 C538.3,42.3 540.9,42.9 540.6,43.2 C499.1,93.1 509.4,129.3 511.7,194 C514,260.9 526.3,346.4 474.9,413.9 C427.2,476.4 298.9,563.3 77.7,495 Z" id="Path" fill="#BB82FA"></path>
            </g>
            <g id="Group" transform="translate(233.000000, 865.000000)">
                <g id="Path">
                    <path d="M511.2,33.1 C491.3,48.4 447.4,76.3 375.1,81.6 C361.6,82.6 347.2,82.8 331.7,82 C323.6,81.6 315.4,81.1 307.1,80.6 C214.6,74.8 111.3,65.2 20.1,119.8 L0.3,36.3 C163.2,-26.8 259.5,9.6 326.7,30.3 C393.9,51 442.9,50.2 483.4,33.5 C490.2,30.7 496.2,28.3 501.3,26.3 C501.3,26.3 501.4,26.3 501.4,26.3 C526.6,16.7 530.8,18 511.2,33.1 Z" fill="#BB82FA"></path>
                    <path d="M501.4,26.3 C501.4,26.3 501.3,26.3 501.3,26.3 C496.2,28.3 490.2,30.6 483.4,33.5 C443,50.2 393.9,51 326.7,30.3 C259.5,9.6 163.2,-26.7 0.3,36.3 L6.4,62.1 C6.4,62.1 123.2,22.7 224.3,40.1 C325.4,57.5 385.8,62.7 438.6,54.5 C491.2,46.4 512.1,22.6 501.4,26.3 Z" fill="#8647CB"></path>
                    <g transform="translate(25.000000, 4.000000)" fill="#D7B6FA">
                        <path d="M416.8,37.5 C407.3,39.1 401.4,43.7 406.3,45.8 C411.2,47.9 423.1,45.9 427.8,42.2 C432.4,38.6 426.3,35.9 416.8,37.5 Z"></path>
                        <path d="M362.3,36.9 C350.1,35.5 341.5,39.1 346.9,43.3 C352.3,47.6 367.6,49.3 374.4,46.5 C381.3,43.6 374.6,38.3 362.3,36.9 Z"></path>
                        <path d="M302.2,25.9 C287,23.1 276.1,26.9 282.5,32.8 C288.9,38.6 307.9,42.1 316.6,39.1 C325.4,35.9 317.3,28.6 302.2,25.9 Z"></path>
                        <path d="M229.9,8.8 C210.9,5.7 197.1,11.9 205,19.9 C212.9,27.9 236.6,31.7 247.7,26.8 C258.7,21.9 248.8,11.9 229.9,8.8 Z"></path>
                        <path d="M140.6,0.7 C118.1,1.6 103.4,11.6 114.1,18.6 C124.8,25.6 152.8,24.4 164.6,16.5 C176.4,8.5 163.1,-0.3 140.6,0.7 Z"></path>
                        <path d="M33.5,14.9 C7.5,20.3 -8.1,33.3 5.5,38.3 C19.1,43.3 51.6,36.6 64,26.2 C76.4,15.8 59.6,9.5 33.5,14.9 Z"></path>
                    </g>
                </g>
                <path d="M375.1,81.7 C361.6,82.7 347.2,82.9 331.7,82.1 C323.6,81.7 315.4,81.2 307.1,80.7 C214.6,74.9 111.3,65.3 20.1,119.9 C111.8,33.3 331.7,82.1 375.1,81.7 Z" id="Path" fill="#D7B6FA"></path>
            </g>
            <g id="Group" transform="translate(232.000000, 414.000000)">
                <g id="Path">
                    <path d="M294.5,398.1 C246.8,419 191.1,429 128.6,422.1 C88.5,417.7 45.5,406.4 0.1,386.8 L34.3,252.9 C178.7,369 374.4,251.8 399.6,159.5 C420.2,84.1 370.9,33.5 316.5,21.9 C278.5,13.9 228.1,17.9 260.1,9.3 C273.7,5.6 286.7,3.1 299.1,1.7 C446.8,-15.6 510.9,117.9 458.6,233.8 C428.3,301.2 372,364.1 294.5,398.1 Z" fill="#BB82FA"></path>
                    <path d="M454.3,243.1 C452.8,246.2 451.2,249.2 449.6,252.3 C438.3,259.6 426.9,262.2 417,262.6 C414.5,262.7 412,262.7 409.7,262.5 C391.3,261.4 377.8,253.9 377.2,253.5 L379.5,249.5 C379.6,249.6 392.8,256.9 410.2,257.9 C426.9,258.9 441.7,253.9 454.3,243.1 Z" fill="#965CD5"></path>
                    <path d="M34.4,326.4 L34.4,252.9 C178.8,369 374.5,251.8 399.7,159.5 C420.3,84.1 371,33.5 316.6,21.9 C278.6,13.9 228.2,17.9 260.2,9.3 C273.8,5.6 286.8,3.1 299.2,1.7 L299.3,1.7 C329.8,1.6 374.4,11.7 401.5,39 C436.4,74.1 446.5,129.3 424.5,189.7 C376.4,321.1 224.9,428 34.4,326.4 Z" fill="#8647CB"></path>
                    <g transform="translate(72.000000, 7.000000)" fill="#D7B6FA">
                        <path d="M37.8,333.1 C5.6,324.2 -10.1,303.7 9.5,296.2 C29.1,288.7 69.4,299.8 82,316.2 C94.6,332.6 70,341.9 37.8,333.1 Z"></path>
                        <path d="M176.4,334.9 C149.5,341.2 130,331.5 141.3,317.4 C152.6,303.3 186.3,295.3 201.9,303.1 C217.5,310.9 203.3,328.6 176.4,334.9 Z"></path>
                        <path d="M273.3,282.9 C254.3,298.1 235.1,297.9 238.6,282.4 C242.1,266.9 265.8,247.9 281.3,248.1 C296.7,248.4 292.2,267.7 273.3,282.9 Z"></path>
                        <path d="M331.1,200.8 C321.2,218.3 306.1,224.2 304,211.4 C301.8,198.6 314.2,176.8 326.3,172 C338.3,167.4 341,183.3 331.1,200.8 Z"></path>
                        <path d="M350.1,120.6 C349.4,137.3 340.8,147.6 334.7,139.2 C328.6,130.8 329.5,110 336.4,101.7 C343.2,93.4 350.8,103.9 350.1,120.6 Z"></path>
                        <path d="M320.1,64.4 C312.7,51.2 314.8,38.9 323.9,42.2 C333,45.5 342.2,62.1 340.6,71.9 C338.9,81.8 327.5,77.6 320.1,64.4 Z"></path>
                        <path d="M283.6,29.1 C271.7,22.4 267.5,12.4 276.1,11.1 C284.7,9.8 299.5,18.3 302.9,26.2 C306.3,34.1 295.5,35.8 283.6,29.1 Z"></path>
                        <path d="M241.6,12.9 C232.4,11.9 227.4,6.1 232.5,2.4 C237.6,-1.3 249.1,-0.2 253.2,4.5 C257.2,9.2 250.8,13.9 241.6,12.9 Z"></path>
                        <path d="M209.2,10.1 C203.5,11.8 198.9,9 201,5 C203.1,1 210.2,-1.1 213.9,1.2 C217.6,3.5 214.9,8.4 209.2,10.1 Z"></path>
                    </g>
                </g>
                <g transform="translate(222.000000, 19.000000)">
                    <path d="M188,105.8 C182.6,151.9 144.6,186.3 99.7,188.6 L99.5,189.9 L83.7,188 C32.2,181.9 -4.7,135.3 1.4,83.8 C7.5,32.3 54.1,-4.6 105.6,1.5 L120.6,3.3 L120.5,4.5 C164.1,16.9 193.5,59.4 188,105.8 Z" id="Path" fill="#5A4EBD"></path>
                    <circle id="Oval" fill="#897DEF" cx="109.7" cy="96.6" r="93.9"></circle>
                    <circle id="Oval" fill="#FFFFFF" cx="109.7" cy="96.6" r="77.1"></circle>
                    <circle id="Oval" stroke="#5A4EBD" stroke-width="4.5" cx="109.7" cy="96.6" r="77.1"></circle>
                    <g transform="translate(41.000000, 29.000000)" fill="#FF2670" id="Oval">
                        <ellipse transform="translate(74.690680, 16.984340) rotate(-83.292841) translate(-74.690680, -16.984340) " cx="74.69068" cy="16.98434" rx="13.5005972" ry="23.2010263"></ellipse>
                        <ellipse transform="translate(62.777580, 118.109300) rotate(-83.292841) translate(-62.777580, -118.109300) " cx="62.77758" cy="118.1093" rx="13.5005972" ry="23.2010263"></ellipse>
                        <ellipse transform="translate(115.495250, 47.479250) rotate(-23.291128) translate(-115.495250, -47.479250) " cx="115.49525" cy="47.47925" rx="13.499888" ry="23.1998076"></ellipse>
                        <ellipse transform="translate(22.010720, 87.764700) rotate(-23.291128) translate(-22.010720, -87.764700) " cx="22.01072" cy="87.7647" rx="13.499888" ry="23.1998076"></ellipse>
                        <ellipse transform="translate(109.592770, 98.112430) rotate(-53.289378) translate(-109.592770, -98.112430) " cx="109.59277" cy="98.11243" rx="23.2010176" ry="13.5005922"></ellipse>
                        <ellipse transform="translate(27.947260, 37.199830) rotate(-53.289378) translate(-27.947260, -37.199830) " cx="27.94726" cy="37.19983" rx="23.2010176" ry="13.5005922"></ellipse>
                    </g>
                </g>
            </g>
        </g>
    </g>
</svg>