<?xml version="1.0" encoding="utf-8"?>
<!-- Generator: Adobe Illustrator 28.0.0, SVG Export Plug-In . SVG Version: 6.00 Build 0)  -->
<svg version="1.1" id="Layer_1" xmlns="http://www.w3.org/2000/svg" xmlns:xlink="http://www.w3.org/1999/xlink" x="0px" y="0px"
	 viewBox="0 0 793.5 971.8" style="enable-background:new 0 0 793.5 971.8;" xml:space="preserve">
<style type="text/css">
	.st0{fill:#8647CB;}
	.st1{fill:#BB82FA;}
	.st2{fill:#965CD5;}
	.st3{fill:#D7B6FA;}
	.st4{fill:#5A4EBD;}
	.st5{fill:#897DEF;}
	.st6{fill:#FFFFFF;}
	.st7{fill:none;stroke:#5A4EBD;stroke-width:4.5;stroke-miterlimit:10;}
	.st8{fill:#FF2670;}
</style>
<g>
	<path class="st0" d="M567.3,62.6c-22.6,2.6-33,0.5-43.6-1.5c0,0,0.3-33.5,24.8-49.7c45.4-30,97.9,7.9,105.7,14
		c4.5,3.5-18.8,10.2-42.8,19.3C594.1,51.4,576.8,61.5,567.3,62.6L567.3,62.6z"/>
	<path class="st1" d="M631,24.5c-4.8-0.2-9.7-0.9-14.5-1c-2.2-0.1-5.1-0.3-7.2-0.3c-22.6-0.3-46,5-64.1,18.8
		c-6.6,4.9-12.5,11-17.3,17.7c-2.3,3.2-7-0.1-4.8-3.4c23.6-34,69.9-44.1,108.4-34.5C633,22.2,632.6,24.6,631,24.5L631,24.5L631,24.5
		z"/>
	<path class="st1" d="M77.7,494c-24.7-7.6-50.6-17.2-77.7-28.9l21.7-20.5C39,451.4,56,457.6,72.5,463
		c166.4,54.5,292.9,33.9,379-52.9c19.7-19.8,31.7-45.2,39-71.8c0.1-0.5,0.3-1,0.4-1.4c4.9-18.4,7.6-37.2,9-55.1
		c0.1-1.2,0.2-2.3,0.3-3.5c1.9-26.9,1-51.3,0.6-68.2c-1-45.1-21.6-120.3,37.2-168.6c0.3-0.2,2.9,0.4,2.6,0.7
		c-41.5,49.9-31.2,86.1-28.9,150.8c2.3,66.9,14.6,152.4-36.8,219.9C427.2,475.4,298.9,562.3,77.7,494L77.7,494z"/>
	<path class="st0" d="M77.7,494c-24.7-7.6-50.6-17.2-77.7-28.9l21.7-20.5C39,451.4,56,457.6,72.5,463C69.7,473.2,73,484.5,77.7,494z
		"/>
	<path class="st2" d="M348.5,499.4c0,0.2,0,0.5,0,0.7c-1.1,0.4-2.2,0.8-3.2,1.1c-0.3-7.5,1.4-16.9,8-27.1c1.9-0.7,3.8-1.5,5.7-2.2
		C352.1,480.8,348.5,490.2,348.5,499.4L348.5,499.4z"/>
</g>
<g>
	<g>
		<path class="st1" d="M781.2,885.1c-19.9,15.3-63.8,43.2-136.1,48.5c-13.5,1-27.9,1.2-43.4,0.4c-8.1-0.4-16.3-0.9-24.6-1.4
			c-92.5-5.8-195.8-15.4-287,39.2l-19.8-83.5c162.9-63.1,259.2-26.7,326.4-6c67.2,20.7,116.2,19.9,156.7,3.2
			c6.8-2.8,12.8-5.2,17.9-7.2c0,0,0.1,0,0.1,0C796.6,868.7,800.8,870,781.2,885.1L781.2,885.1z"/>
		<path class="st0" d="M771.4,878.3c0,0-0.1,0-0.1,0c-5.1,2-11.1,4.3-17.9,7.2c-40.4,16.7-89.5,17.5-156.7-3.2
			c-67.2-20.7-163.5-57-326.4,6l6.1,25.8c0,0,116.8-39.4,217.9-22c101.1,17.4,161.5,22.6,214.3,14.4
			C761.2,898.4,782.1,874.6,771.4,878.3L771.4,878.3z"/>
		<g>
			<path class="st3" d="M711.8,893.5c-9.5,1.6-15.4,6.2-10.5,8.3c4.9,2.1,16.8,0.1,21.5-3.6C727.4,894.6,721.3,891.9,711.8,893.5z"
				/>
			<path class="st3" d="M657.3,892.9c-12.2-1.4-20.8,2.2-15.4,6.4c5.4,4.3,20.7,6,27.5,3.2C676.3,899.6,669.6,894.3,657.3,892.9
				L657.3,892.9z"/>
			<path class="st3" d="M597.2,881.9c-15.2-2.8-26.1,1-19.7,6.9c6.4,5.8,25.4,9.3,34.1,6.3C620.4,891.9,612.3,884.6,597.2,881.9
				L597.2,881.9z"/>
			<path class="st3" d="M524.9,864.8c-19-3.1-32.8,3.1-24.9,11.1s31.6,11.8,42.7,6.9C553.7,877.9,543.8,867.9,524.9,864.8z"/>
			<path class="st3" d="M435.6,856.7c-22.5,0.9-37.2,10.9-26.5,17.9s38.7,5.8,50.5-2.1C471.4,864.5,458.1,855.7,435.6,856.7
				L435.6,856.7z"/>
			<path class="st3" d="M328.5,870.9c-26,5.4-41.6,18.4-28,23.4c13.6,5,46.1-1.7,58.5-12.1S354.6,865.5,328.5,870.9L328.5,870.9z"/>
		</g>
	</g>
	<path class="st3" d="M645.1,933.7c-13.5,1-27.9,1.2-43.4,0.4c-8.1-0.4-16.3-0.9-24.6-1.4c-92.5-5.8-195.8-15.4-287,39.2
		C381.8,885.3,601.7,934.1,645.1,933.7L645.1,933.7z"/>
</g>
<g>
	<g>
		<path class="st1" d="M603.5,769.1c-47.7,20.9-103.4,30.9-165.9,24c-40.1-4.4-83.1-15.7-128.5-35.3l34.2-133.9
			c144.4,116.1,340.1-1.1,365.3-93.4c20.6-75.4-28.7-126-83.1-137.6c-38-8-88.4-4-56.4-12.6c13.6-3.7,26.6-6.2,39-7.6
			c147.7-17.3,211.8,116.2,159.5,232.1C737.3,672.2,681,735.1,603.5,769.1L603.5,769.1z"/>
		<path class="st2" d="M763.3,614.1c-1.5,3.1-3.1,6.1-4.7,9.2c-11.3,7.3-22.7,9.9-32.6,10.3c-2.5,0.1-5,0.1-7.3-0.1
			c-18.4-1.1-31.9-8.6-32.5-9l2.3-4c0.1,0.1,13.3,7.4,30.7,8.4C735.9,629.9,750.7,624.9,763.3,614.1L763.3,614.1z"/>
		<path class="st0" d="M343.4,697.4v-73.5c144.4,116.1,340.1-1.1,365.3-93.4c20.6-75.4-28.7-126-83.1-137.6c-38-8-88.4-4-56.4-12.6
			c13.6-3.7,26.6-6.2,39-7.6l0.1,0c30.5-0.1,75.1,10,102.2,37.3c34.9,35.1,45,90.3,23,150.7C685.4,692.1,533.9,799,343.4,697.4
			L343.4,697.4z"/>
		<g>
			<path class="st3" d="M418.8,711.1c-32.2-8.9-47.9-29.4-28.3-36.9s59.9,3.6,72.5,20S451,719.9,418.8,711.1L418.8,711.1z"/>
			<path class="st3" d="M557.4,712.9c-26.9,6.3-46.4-3.4-35.1-17.5c11.3-14.1,45-22.1,60.6-14.3S584.3,706.6,557.4,712.9z"/>
			<path class="st3" d="M654.3,660.9c-19,15.2-38.2,15-34.7-0.5c3.5-15.5,27.2-34.5,42.7-34.3C677.7,626.4,673.2,645.7,654.3,660.9
				L654.3,660.9z"/>
			<path class="st3" d="M712.1,578.8c-9.9,17.5-25,23.4-27.1,10.6c-2.2-12.8,10.2-34.6,22.3-39.4C719.3,545.4,722,561.3,712.1,578.8
				z"/>
			<path class="st3" d="M731.1,498.6c-0.7,16.7-9.3,27-15.4,18.6s-5.2-29.2,1.7-37.5C724.2,471.4,731.8,481.9,731.1,498.6
				L731.1,498.6z"/>
			<path class="st3" d="M701.1,442.4c-7.4-13.2-5.3-25.5,3.8-22.2s18.3,19.9,16.7,29.7C719.9,459.8,708.5,455.6,701.1,442.4
				L701.1,442.4z"/>
			<path class="st3" d="M664.6,407.1c-11.9-6.7-16.1-16.7-7.5-18s23.4,7.2,26.8,15.1S676.5,413.8,664.6,407.1z"/>
			<path class="st3" d="M622.6,390.9c-9.2-1-14.2-6.8-9.1-10.5s16.6-2.6,20.7,2.1C638.2,387.2,631.8,391.9,622.6,390.9L622.6,390.9z
				"/>
			<path class="st3" d="M590.2,388.1c-5.7,1.7-10.3-1.1-8.2-5.1s9.2-6.1,12.9-3.8S595.9,386.4,590.2,388.1L590.2,388.1z"/>
		</g>
	</g>
	<g>
		<path class="st4" d="M719,495.8c-5.4,46.1-43.4,80.5-88.3,82.8l-0.2,1.3l-15.8-1.9c-51.5-6.1-88.4-52.7-82.3-104.2
			c6.1-51.5,52.7-88.4,104.2-82.3l15,1.8l-0.1,1.2C695.1,406.9,724.5,449.4,719,495.8L719,495.8z"/>
		<circle class="st5" cx="640.7" cy="486.6" r="93.9"/>
		<circle class="st6" cx="640.7" cy="486.6" r="77.1"/>
		<circle class="st7" cx="640.7" cy="486.6" r="77.1"/>
		<g>
			
				<ellipse transform="matrix(0.1168 -0.9932 0.9932 0.1168 138.0216 1027.3503)" class="st8" cx="646.7" cy="436.1" rx="13.5" ry="23.2"/>
			
				<ellipse transform="matrix(0.1168 -0.9932 0.9932 0.1168 27.0859 1104.8477)" class="st8" cx="634.8" cy="537.2" rx="13.5" ry="23.2"/>
			
				<ellipse transform="matrix(0.9185 -0.3954 0.3954 0.9185 -128.4276 309.8365)" class="st8" cx="687.5" cy="466.5" rx="13.5" ry="23.2"/>
			
				<ellipse transform="matrix(0.9185 -0.3954 0.3954 0.9185 -151.967 276.1365)" class="st8" cx="594" cy="506.8" rx="13.5" ry="23.2"/>
			
				<ellipse transform="matrix(0.5978 -0.8017 0.8017 0.5978 -140.367 754.3486)" class="st8" cx="681.5" cy="517.1" rx="23.2" ry="13.5"/>
			
				<ellipse transform="matrix(0.5978 -0.8017 0.8017 0.5978 -124.4085 664.4233)" class="st8" cx="599.9" cy="456.2" rx="23.2" ry="13.5"/>
		</g>
	</g>
</g>
</svg>
