<?xml version="1.0" encoding="UTF-8"?>
<svg id="Layer_1" data-name="Layer 1" xmlns="http://www.w3.org/2000/svg" viewBox="0 0 2609.56 960.81">
  <g>
    <g>
      <path d="m2191.37,370.26c-5.36-.65-10.78-1.39-16.18-2.23-22.11-3.44-43.77-7.53-64.62-12.65-51.82-12.71-98.75-31.64-135.77-62.2-37.19-30.71-48-75.42-20.06-104.79.01,0,.01-.01.01-.01,2.38-2.51,5.06-4.92,8.03-7.19,30.36-23.23,84.31-17.34,108.5,12.38,24.19,29.72,9.18,56.27-18.88,59.13-26.94,2.74-50.18-5.54-60.08-19.12-8.27-11.33,7.64-17.13,18.98-16.91,11.34.23,23.26,4.69-1.75,9.4,38.26,11.01,45.47-6.06,30.86-18.31-13.93-11.69-53.61-17.37-58.67,3.32-.81,3.3-1.04,6.46-.75,9.52,1.01,10.53,8.3,19.86,20.33,29,1.35,1.03,2.75,2.04,4.22,3.07,7.62,5.31,16.79,10.58,27.22,16.02,5.9,3.09,12.2,6.22,18.84,9.44,12.8,6.21,26.66,11.68,43.09,16.41,23.33,6.72,51.83,11.94,89.82,15.65,6.11.6,12.47,1.15,19.09,1.67,28.53,2.23,61.96,3.73,101.71,4.49l-3.76,57.85s-19.4,1.12-47.42.45c-18.26-.44-40.17-1.63-62.76-4.39Z" style="fill: #bb82fa; stroke-width: 0px;"/>
      <path d="m2009.55,226.08c38.26,11.01,45.47-6.06,30.86-18.31-13.93-11.69-53.61-17.37-58.67,3.32,2.37-37.58,75.01-28.49,81.83.95,4.29,18.5-17.88,29.27-54.01,14.05Z" style="fill: #8647cb; stroke-width: 0px;"/>
      <path d="m2191.37,370.26c-2.2-.27-4.42-.55-6.64-.85-.48-.07-.97-.13-1.45-.2-.92-.13-1.83-.25-2.73-.38-.73-.1-1.45-.21-2.17-.32-1.05-.15-2.11-.32-3.18-.48-2.4-.37-4.81-.76-7.21-1.15-.46-.08-.92-.15-1.38-.23-2.51-.41-5.02-.83-7.52-1.26-.62-.11-1.23-.22-1.86-.33-1.72-.3-3.45-.61-5.17-.93-.64-.11-1.29-.23-1.94-.35-3.94-.72-7.86-1.48-11.75-2.25-1.28-.25-2.54-.52-3.8-.77-1.41-.28-2.82-.58-4.22-.89-.99-.2-1.99-.41-2.97-.64-.98-.2-1.96-.42-2.95-.65-1.92-.42-3.85-.85-5.76-1.29-2.72-.62-5.41-1.26-8.1-1.92-51.82-12.71-98.75-31.64-135.77-62.2-37.19-30.71-48-75.42-20.06-104.79-10.83,15.92-17.72,67.74,50.05,105.84,25.8,14.5,58.51,25.25,93.06,33.07,29.8,6.75,60.96,11.34,90.24,14.33,14.66,1.5,28.85,2.59,42.16,3.34,30.85,1.77,56.93,1.74,73.14.8l-1.85,28.42s-1.21.07-3.48.17c-.28,0-.57.02-.89.03-.78.03-1.66.06-2.65.1-.39,0-.79.02-1.22.03-.29.01-.59.02-.9.03-.35.01-.71.02-1.09.03-.55,0-1.11.03-1.71.05-.61,0-1.26.03-1.92.05-.39,0-.79.02-1.21.02-1.82.04-3.8.07-5.9.09-2.53.03-5.25.04-8.13.05-1.15,0-2.33,0-3.54,0-.44,0-.89,0-1.34,0-1.39-.01-2.82-.02-4.27-.04-2.94-.03-6-.08-9.18-.16-18.26-.44-40.17-1.63-62.76-4.39Z" style="fill: #8647cb; stroke-width: 0px;"/>
      <path d="m2045.87,338.19c-14.04-4.89-20.36-13.79-11.37-16.01,8.99-2.22,26.54,3.9,31.59,11.01,5.05,7.12-6.18,9.89-20.22,5Z" style="fill: #d7b6fa; stroke-width: 0px;"/>
      <path d="m2105.95,358.97c-1.17-.27-2.29-.56-3.38-.87-16.32-4.6-24.17-13.44-14.01-16.83,3.62-1.21,8.62-1.42,13.95-.86,10.65,1.09,22.67,5.2,27.83,10.44,7.72,7.86-5.83,12.37-24.39,8.12Z" style="fill: #d7b6fa; stroke-width: 0px;"/>
      <path d="m1989.57,310.95c-12.52-8.3-16.64-18.03-7.41-17.52,9.23.52,24.88,10.89,28.17,18.68,3.29,7.79-8.25,7.14-20.77-1.16Z" style="fill: #d7b6fa; stroke-width: 0px;"/>
      <path d="m1949.01,271.44c-7.12-10.26-7.07-19.11.1-15.95,7.16,3.17,16.06,15.99,16.02,23.08-.04,7.09-9,3.13-16.11-7.13Z" style="fill: #d7b6fa; stroke-width: 0px;"/>
      <path d="m1935.66,227.44c-.54-10.1,3.23-16.52,6.79-11.55s4.24,17.6,1.22,22.73c-3.02,5.13-7.47-1.08-8.01-11.18Z" style="fill: #d7b6fa; stroke-width: 0px;"/>
      <path d="m2012.1,199.19c-8.54-.55-13.64-4.52-9.18-7.14s15.13-1.92,19.21,1.25c4.08,3.17-1.49,6.44-10.03,5.89Z" style="fill: #d7b6fa; stroke-width: 0px;"/>
      <path d="m2040.4,206.44c-5.93-3.85-7.24-9.23-2.37-9.68,4.88-.45,12.29,4.36,13.34,8.66s-5.04,4.87-10.97,1.02Z" style="fill: #d7b6fa; stroke-width: 0px;"/>
      <path d="m2045.74,222.46c2.56-4.21,6.8-5.54,7.63-2.39.83,3.15-2.37,8.42-5.76,9.48-3.39,1.06-4.43-2.88-1.87-7.09Z" style="fill: #d7b6fa; stroke-width: 0px;"/>
    </g>
    <path d="m2001.31,249.6c-31.52-8.8-34.81-21.29-20.33-29,1.01,10.53,8.3,19.86,20.33,29Z" style="fill: #965cd5; stroke-width: 0px;"/>
    <path d="m2005.53,252.67c7.62,5.31,16.79,10.58,27.22,16.02-7.15,4.34-25.24.94-27.22-16.02Z" style="fill: #965cd5; stroke-width: 0px;"/>
  </g>
  <g>
    <path d="m2278.99,663.06c-65.51,152.19-143.84,184.04-195.78,175.39-12.87-2.13-24.13-6.77-33.16-12.66-28.26-18.44-41.03-43.93-55.51-71.05h0c-13.8-25.88-29.16-53.24-60.97-77.41-37.16-28.23-100.14-47.39-146.82-39.26l-13.64-1.29s51.26-15.65,103.9-5.58c.63.12,1.27.25,1.9.37,13.7,2.73,27.86,6.82,42.18,12.71,17.8,7.32,33.95,17.5,48.85,28.82h0c43,32.67,75.74,74.9,108.48,85.86,25.92,8.67,54.34-6.1,79.57-33.43,17.67-19.14,33.76-44.46,46.34-72.19l74.66,9.72Z" style="fill: #bb82fa; stroke-width: 0px;"/>
    <path d="m2278.99,663.06c-65.51,152.19-143.84,184.04-195.78,175.39h.02c62.45-4.79,123.93-94.8,161.95-179.79l33.81,4.4Z" style="fill: #8647cb; stroke-width: 0px;"/>
    <path d="m1994.54,754.73c-13.8-25.87-29.16-53.22-60.97-77.39-37.16-28.23-92.63-41.72-146.82-35.87-38.15,4.12-28.56-4.77-5.05-9.59,17.36-3.55,42.67-10.75,95.31-.68.63.12,1.27.25,1.9.37,54.3,11.3,99.06,56.46,115.64,123.15Z" style="fill: #8647cb; stroke-width: 0px;"/>
    <path d="m2234.92,759.47c-12.2,20.22-27.08,28.63-26.78,15.14.3-13.49,15.56-38.77,27.46-45.5,11.9-6.73,11.52,10.14-.68,30.36Z" style="fill: #d7b6fa; stroke-width: 0px;"/>
    <path d="m2172.03,822.08c-17.84,13.41-33.81,15.64-28.75,4.02,5.06-11.62,27.35-28.38,40.13-30.17s6.46,12.74-11.38,26.15Z" style="fill: #d7b6fa; stroke-width: 0px;"/>
    <path d="m2276.68,680.75c-8.88,19.78-22.65,28.56-24.8,15.81-2.14-12.76,8.95-37.48,19.97-44.51,11.02-7.02,13.7,8.92,4.82,28.7Z" style="fill: #d7b6fa; stroke-width: 0px;"/>
    <path d="m1955.32,700.16c-7.54-9.59-8.67-18.29-2.02-15.66,6.64,2.63,16.07,14.62,16.97,21.58.9,6.96-7.41,3.67-14.95-5.92Z" style="fill: #d7b6fa; stroke-width: 0px;"/>
    <path d="m1911.48,664.38c-11.61-7.69-15.55-17.33-7.09-17.35,8.46-.02,22.98,9.59,26.13,17.3,3.15,7.71-7.42,7.74-19.04.05Z" style="fill: #d7b6fa; stroke-width: 0px;"/>
    <path d="m1868.24,644.85c-8.28-2.2-12.24-8.06-7.12-10.54s15.46.28,18.63,4.96c3.17,4.68-3.23,7.78-11.51,5.58Z" style="fill: #d7b6fa; stroke-width: 0px;"/>
    <path d="m1827.34,637.27c-6.96-.2-11.24-3.87-7.7-6.61s12.24-2.49,15.67.45c3.42,2.94-1,6.36-7.97,6.16Z" style="fill: #d7b6fa; stroke-width: 0px;"/>
    <path d="m1795.29,639.28c-5.27.74-9.04-2.02-6.79-4.96,2.26-2.94,8.84-3.86,11.86-1.66,3.02,2.2.2,5.88-5.07,6.62Z" style="fill: #d7b6fa; stroke-width: 0px;"/>
    <path d="m2158.11,725.83c-45.66,66.33-90.95,49.16-136.87-1.57-18.44-20.39-36.42-35.39-51.3-51.15,43,32.66,75.74,74.89,108.48,85.85,25.92,8.67,54.34-6.1,79.57-33.43.05.1.09.21.12.31Z" style="fill: #d7b6fa; stroke-width: 0px;"/>
    <path d="m2104.03,760.41c-4.54,19.37-19.34,26.07-32.56,32.06-13.93,6.31-26.23,11.86-24.9,30.95-1.19-.84-2.34-1.69-3.47-2.54-.07-19.26,13.64-25.47,26.97-31.5,12.71-5.76,25.8-11.68,30.3-28.39,1.22-.15,2.44-.35,3.66-.59Z" style="fill: #965cd5; stroke-width: 0px;"/>
  </g>
  <g>
    <path d="m567.32,62.61c-22.6,2.62-33.05.49-43.58-1.47,0,0,.26-33.49,24.82-49.72,45.4-30.01,97.88,7.93,105.67,14.05,4.51,3.55-18.79,10.17-42.77,19.33-17.38,6.64-34.65,16.71-44.14,17.81Z" style="fill: #8647cb; stroke-width: 0px;"/>
    <path d="m630.98,24.46c-4.79-.24-9.74-.9-14.54-.99-2.19-.08-5.09-.33-7.24-.28-22.57-.32-45.95,4.95-64.09,18.79-6.6,4.92-12.46,11.02-17.26,17.69-2.28,3.15-7.03-.1-4.83-3.38,23.63-33.96,69.87-44.13,108.42-34.46,1.57.4,1.21,2.79-.46,2.63h0Z" style="fill: #bb82fa; stroke-width: 0px;"/>
    <path d="m77.65,494c-24.72-7.62-50.59-17.18-77.65-28.93l21.69-20.53c17.34,6.91,34.29,13.08,50.83,18.5,166.45,54.53,292.93,33.87,378.99-52.89,19.66-19.82,31.69-45.23,38.97-71.78.14-.48.27-.95.4-1.44,4.94-18.37,7.63-37.24,9.04-55.15.08-1.17.18-2.34.26-3.49,1.89-26.85.99-51.29.61-68.24-1.02-45.06-21.57-120.3,37.2-168.62.29-.24,2.86.4,2.62.67-41.49,49.93-31.16,86.1-28.91,150.84,2.32,66.9,14.58,152.42-36.82,219.88-47.67,62.55-175.97,149.49-397.21,81.18Z" style="fill: #bb82fa; stroke-width: 0px;"/>
    <path d="m77.65,494c-24.72-7.62-50.59-17.18-77.65-28.93l21.69-20.53c17.34,6.91,34.29,13.08,50.83,18.5-2.79,10.21.48,21.44,5.13,30.96Z" style="fill: #8647cb; stroke-width: 0px;"/>
    <path d="m348.48,499.41c0,.24,0,.47.01.7-1.08.37-2.17.75-3.25,1.11-.33-7.53,1.38-16.88,7.97-27.12,1.91-.71,3.81-1.45,5.71-2.22-6.85,8.97-10.41,18.28-10.43,27.53Z" style="fill: #965cd5; stroke-width: 0px;"/>
  </g>
  <g>
    <path d="m1736.67,364.58c28.96-4.93,62.51-6.43,95.76-3.59,92.93,7.91,285.46,59.02,443.22,187.79,142.37,116.19,159,211.41,333.9,275.35l-41.79,109.01c-234.2-121.76-292.11-299.3-464.05-414.49-120.58-80.78-227.6-109.91-295.16-116.59-28.78-2.85-50.38-1.63-62.83,1.42-.92.22-1.83.46-2.71.69-13.57,3.62-22.19,8.52-26.21,13.92,0,.01-.02,0-.02.02-7.49,10.05,1.04,21.83,23.26,30.35,34.93,13.39,76.64,20.93,63.61-7.65-5.22-11.42-13.8-21.56-12.88-23.97,1.23-3.21,12.09,4,22.8,15.29,12.36,13.05,22.1,32.63,8.79,45.73-.02,0-.03,0-.04.02-4.13,4.07-10.49,7.51-19.7,9.92-41.97,11.01-111.62-15.04-144-56.69-22.22-31.49,18.13-56.33,78.04-66.53Z" style="fill: #bb82fa; stroke-width: 0px;"/>
    <path d="m2609.56,824.13l-41.79,109c-173.18-90.03-249.97-210.55-347.74-313.82-1.3-1.38-2.61-2.76-3.92-4.14-14.84-15.51-30.19-30.59-46.45-45.11-1.88-1.69-3.77-3.36-5.68-5.01-15.17-13.27-31.16-26.02-48.28-38.15-1.98-1.39-3.97-2.78-5.97-4.16-1.99-1.38-3.99-2.74-6.02-4.09-120.58-80.79-227.6-109.91-295.16-116.59-28.77-2.84-50.39-1.62-62.83,1.43-.93.21-1.83.45-2.71.69-13.57,3.62-22.19,8.52-26.22,13.92,0,.01-.02.01-.02.02-7.49,10.05,1.04,21.83,23.26,30.36,34.94,13.39,76.64,20.92,63.61-7.66-5.21-11.42-13.8-21.56-12.87-23.97,1.23-3.21,12.08,3.99,22.8,15.28,12.36,13.05,22.09,32.63,8.79,45.74-.01,0-.03,0-.03.01-4.13,4.07-10.5,7.51-19.7,9.92-41.96,11.02-111.62-15.04-144-56.68-22.22-31.49,18.13-56.33,78.05-66.52,28.95-4.93,62.51-6.44,95.76-3.59,92.93,7.91,285.46,59.01,443.22,187.79,142.38,116.19,159,211.4,333.91,275.35Z" style="fill: #bb82fa; stroke-width: 0px;"/>
    <path d="m2115.7,526.9c-1.98-1.39-3.97-2.78-5.97-4.16-4.02-9.08-9.99-17.62-9.13-30.26.76-7.4,4.32-14,8.89-19.65.63-.79,1.3-1.55,1.95-2.33l1.91,1.49c-2.1,3.29-4.13,6.6-5.64,10.1-8.35,18.05,3.86,29.76,8,44.81Z" style="fill: #965cd5; stroke-width: 0px;"/>
    <path d="m2220.03,619.31c-1.3-1.38-2.61-2.76-3.92-4.14,1.75-23.82-13.53-39.55-45.39-44.95-.35-.06-.7-.12-1.06-.17-1.88-1.69-3.77-3.36-5.68-5.01,7.55.66,14.97,2.11,22.25,4.43,15.56,4.86,30.14,15.43,33.51,32.28,1.22,5.84,1.18,11.73.29,17.55Z" style="fill: #965cd5; stroke-width: 0px;"/>
    <path d="m1716.77,418.11c-7.49,10.05,1.04,21.83,23.26,30.35,34.93,13.39,76.64,20.93,63.61-7.65-5.22-11.42-13.8-21.56-12.88-23.97,1.23-3.21,12.09,4,22.8,15.29,12.36,13.05,22.1,32.63,8.79,45.73-.02,0-.03,0-.04.02-27.86,18.65-74.69,2.63-98.37-14.11-21.39-15.13-23.25-31.87-7.18-45.65Z" style="fill: #8647cb; stroke-width: 0px;"/>
    <path d="m1739.25,449.76c12.03,6.22,16.73,15.58,8.44,16.86-8.28,1.28-23.33-6.49-27.08-13.99-3.75-7.49,6.6-9.09,18.63-2.87Z" style="fill: #d7b6fa; stroke-width: 0px;"/>
    <path d="m1791,463.15c9.85-.63,16.38,4.77,11.75,9.72-4.63,4.95-16.95,5.74-22.17,1.41-5.22-4.32.57-10.51,10.42-11.14Z" style="fill: #d7b6fa; stroke-width: 0px;"/>
    <path d="m1803.55,443.47c-1.83-7.68.03-13.2,3.35-9.93s5.61,12.87,4.12,17.29c-1.49,4.41-5.63.33-7.46-7.35Z" style="fill: #d7b6fa; stroke-width: 0px;"/>
    <path d="m1736.67,364.58c28.96-4.93,62.51-6.43,95.76-3.59,92.93,7.91,285.46,59.02,443.22,187.79,142.37,116.19,159,211.41,333.9,275.35l-22.06,57.55c-114.09-26.36-180.83-135.37-326.66-285.6-144.67-149.06-376.35-237.33-524.17-231.49Z" style="fill: #8647cb; stroke-width: 0px;"/>
    <path d="m1825.54,354.87c13.81,1.21,22.07,6.27,14.86,9.12-7.21,2.85-24.47,1.34-31.08-2.71-6.6-4.05,2.4-7.61,16.22-6.41Z" style="fill: #d7b6fa; stroke-width: 0px;"/>
    <path d="m1902.43,366.66c19.57,4.44,30.59,12.6,19.82,14.69-10.76,2.09-35.23-3.46-44.04-9.98-8.81-6.53,4.64-9.14,24.22-4.7Z" style="fill: #d7b6fa; stroke-width: 0px;"/>
    <path d="m1996.21,392.62c22.26,7.78,34.08,18.63,21.28,19.53-12.8.9-40.63-8.82-50.08-17.5-9.46-8.68,6.55-9.81,28.81-2.03Z" style="fill: #d7b6fa; stroke-width: 0px;"/>
    <path d="m2092.99,431.39c23.54,11.63,34.64,26.21,19.98,26.24-14.66.03-44.08-14.51-52.96-26.17-8.88-11.66,9.44-11.7,32.98-.07Z" style="fill: #d7b6fa; stroke-width: 0px;"/>
    <path d="m2200.54,492c23.41,16.54,32.01,35.41,15.48,33.98-16.53-1.43-45.8-22.1-52.68-37.2-6.88-15.1,13.79-13.31,37.2,3.23Z" style="fill: #d7b6fa; stroke-width: 0px;"/>
    <path d="m2312.29,585.81c24.04,21.51,30.38,44.67,11.41,41.68-18.97-2.99-49.03-29.88-54.1-48.41-5.07-18.53,18.65-14.79,42.69,6.73Z" style="fill: #d7b6fa; stroke-width: 0px;"/>
    <path d="m2396.59,677.32c.26.25.5.5.76.77,21.36,22.43,25.66,45.08,7.74,40.77-10.98-2.65-25.26-14.19-35.48-26.91-6.45-8.03-11.27-16.53-12.61-23.54-3.41-17.91,18.44-12.86,39.59,8.91Z" style="fill: #d7b6fa; stroke-width: 0px;"/>
    <path d="m2560.05,817.13c29.96,11.86,43.21,33.09,23.85,38.23-19.36,5.13-56.8-9.69-67.4-26.68-10.6-16.99,13.6-23.4,43.55-11.54Z" style="fill: #bb82fa; stroke-width: 0px;"/>
    <path d="m2369.61,691.95c9-11.3,19.02-14.42,26.98-14.63.26.25.5.5.76.77,21.36,22.43,25.66,45.08,7.74,40.77-10.98-2.65-25.26-14.19-35.48-26.91Z" style="fill: #bb82fa; stroke-width: 0px;"/>
  </g>
  <g>
    <g>
      <path d="m782.33,881.83c-18.13,13.97-58.17,39.34-124.02,44.22-12.27.91-25.42,1.11-39.51.39-7.38-.37-14.84-.82-22.4-1.3-84.25-5.31-178.4-14.04-261.5,35.68l-18.06-76.07c148.43-57.48,236.15-24.36,297.37-5.51,61.25,18.85,105.89,18.13,142.75,2.91,6.22-2.57,11.67-4.74,16.33-6.52.03,0,.07-.02.1-.03,22.92-8.71,26.8-7.52,8.93,6.24Z" style="fill: #bb82fa; stroke-width: 0px;"/>
      <path d="m773.39,875.59s-.06.03-.1.03c-4.66,1.78-10.12,3.95-16.33,6.52-36.85,15.22-81.51,15.93-142.75-2.92-61.23-18.84-148.94-51.96-297.37,5.51l5.59,23.54s106.41-35.88,198.54-20.04c92.13,15.86,147.18,20.56,195.24,13.11,47.9-7.43,66.89-29.12,57.19-25.76Z" style="fill: #8647cb; stroke-width: 0px;"/>
      <g>
        <path d="m719.06,889.48c-8.69,1.44-14.01,5.65-9.57,7.58,4.44,1.93,15.31.13,19.56-3.24s-1.29-5.78-9.99-4.34Z" style="fill: #d7b6fa; stroke-width: 0px;"/>
        <path d="m669.42,888.9c-11.15-1.29-18.97,1.96-14.06,5.85s18.85,5.5,25.1,2.9c6.25-2.6.12-7.46-11.03-8.75Z" style="fill: #d7b6fa; stroke-width: 0px;"/>
        <path d="m614.63,878.86c-13.82-2.53-23.8.95-17.95,6.26,5.84,5.32,23.12,8.49,31.1,5.7,7.98-2.78.68-9.43-13.14-11.97Z" style="fill: #d7b6fa; stroke-width: 0px;"/>
        <path d="m548.76,863.35c-17.27-2.78-29.87,2.86-22.68,10.14,7.19,7.28,28.78,10.75,38.86,6.25,10.08-4.51,1.09-13.61-16.18-16.39Z" style="fill: #d7b6fa; stroke-width: 0px;"/>
        <path d="m467.44,855.93c-20.46.86-33.87,9.94-24.14,16.34,9.73,6.4,35.3,5.32,46.03-1.95,10.73-7.26-1.43-15.26-21.89-14.4Z" style="fill: #d7b6fa; stroke-width: 0px;"/>
        <path d="m369.88,868.85c-23.7,4.89-37.89,16.75-25.53,21.34,12.36,4.59,41.99-1.52,53.34-11.01,11.35-9.49-4.1-15.23-27.8-10.33Z" style="fill: #d7b6fa; stroke-width: 0px;"/>
      </g>
    </g>
    <path d="m658.3,926.05c-12.27.91-25.42,1.11-39.51.39-7.38-.37-14.84-.82-22.4-1.3-84.25-5.31-178.4-14.04-261.5,35.68,83.56-78.85,283.9-34.38,323.41-34.77Z" style="fill: #d7b6fa; stroke-width: 0px;"/>
  </g>
  <g>
    <g>
      <path d="m603.55,769.1c-47.68,20.93-103.36,30.86-165.89,24.04-40.13-4.37-83.07-15.65-128.51-35.34l34.21-133.9c144.37,116.12,340.15-1.07,365.31-93.37,20.56-75.41-28.68-126.03-83.07-137.56-38-8.03-88.36-3.95-56.43-12.6,13.56-3.67,26.56-6.19,38.97-7.63,147.69-17.26,211.75,116.16,159.48,232.15-30.32,67.28-86.65,130.23-164.05,164.21Z" style="fill: #bb82fa; stroke-width: 0px;"/>
      <path d="m763.26,614.12c-1.5,3.07-3.07,6.14-4.68,9.19-11.32,7.26-22.74,9.87-32.59,10.3-2.55.11-5.01.08-7.32-.06-18.42-1.08-31.92-8.63-32.5-8.95l2.29-4.04c.13.08,13.27,7.38,30.66,8.37,16.76.95,31.54-4.02,44.14-14.8Z" style="fill: #965cd5; stroke-width: 0px;"/>
      <path d="m343.35,697.37v-73.47c144.37,116.12,340.15-1.07,365.31-93.37,20.56-75.41-28.68-126.03-83.07-137.56-38-8.03-88.36-3.95-56.43-12.6,13.56-3.67,26.56-6.19,38.97-7.63l.06.03c30.49-.12,75.07,10.01,102.18,37.33,34.86,35.11,45,90.26,22.95,150.7-47.88,131.31-199.44,238.22-389.96,136.56Z" style="fill: #8647cb; stroke-width: 0px;"/>
      <g>
        <path d="m418.76,711.06c-32.21-8.88-47.94-29.36-28.31-36.86,19.63-7.5,59.9,3.6,72.48,19.98s-11.96,25.76-44.18,16.88Z" style="fill: #d7b6fa; stroke-width: 0px;"/>
        <path d="m557.41,712.91c-26.94,6.34-46.44-3.4-35.1-17.54,11.34-14.14,45.01-22.07,60.61-14.27,15.6,7.8,1.42,25.47-25.51,31.81Z" style="fill: #d7b6fa; stroke-width: 0px;"/>
        <path d="m654.29,660.95c-18.96,15.23-38.23,14.95-34.69-.49,3.54-15.45,27.24-34.48,42.65-34.26,15.42.22,10.99,19.53-7.97,34.76Z" style="fill: #d7b6fa; stroke-width: 0px;"/>
        <path d="m712.09,578.84c-9.9,17.49-24.98,23.4-27.14,10.62-2.16-12.77,10.22-34.64,22.28-39.36,12.06-4.72,14.76,11.24,4.86,28.74Z" style="fill: #d7b6fa; stroke-width: 0px;"/>
        <path d="m731.1,498.59c-.74,16.66-9.29,26.99-15.4,18.58s-5.19-29.24,1.65-37.49c6.84-8.26,14.48,2.25,13.74,18.91Z" style="fill: #d7b6fa; stroke-width: 0px;"/>
        <path d="m701.13,442.39c-7.4-13.21-5.31-25.55,3.77-22.21,9.08,3.34,18.34,19.86,16.66,29.73-1.68,9.87-13.03,5.69-20.43-7.52Z" style="fill: #d7b6fa; stroke-width: 0px;"/>
        <path d="m664.56,407.06c-11.9-6.73-16.06-16.72-7.5-17.97,8.56-1.25,23.44,7.16,26.77,15.15,3.33,7.99-7.37,9.56-19.27,2.82Z" style="fill: #d7b6fa; stroke-width: 0px;"/>
        <path d="m622.6,390.94c-9.18-.95-14.23-6.8-9.08-10.54s16.62-2.56,20.66,2.13c4.04,4.68-2.4,9.36-11.58,8.41Z" style="fill: #d7b6fa; stroke-width: 0px;"/>
        <path d="m590.16,388.13c-5.72,1.71-10.29-1.12-8.23-5.09s9.22-6.11,12.87-3.84,1.08,7.23-4.64,8.94Z" style="fill: #d7b6fa; stroke-width: 0px;"/>
      </g>
    </g>
    <g>
      <path d="m718.99,495.84c-5.43,46.13-43.42,80.49-88.29,82.81l-.15,1.34-15.79-1.86c-51.51-6.06-88.36-52.73-82.3-104.24,6.07-51.5,52.73-88.35,104.24-82.29l14.99,1.77-.14,1.2c43.54,12.38,72.9,54.86,67.44,101.27Z" style="fill: #5a4ebd; stroke-width: 0px;"/>
      <circle cx="640.72" cy="486.64" r="93.91" style="fill: #897def; stroke-width: 0px;"/>
      <circle cx="640.72" cy="486.64" r="77.1" style="fill: #fff; stroke-width: 0px;"/>
      <circle cx="640.72" cy="486.64" r="77.1" style="fill: none; stroke: #5a4ebd; stroke-miterlimit: 10; stroke-width: 4.5px;"/>
      <g>
        <ellipse cx="646.67" cy="436.07" rx="13.52" ry="23.23" transform="translate(138.02 1027.36) rotate(-83.29)" style="fill: #ff2670; stroke-width: 0px;"/>
        <ellipse cx="634.77" cy="537.2" rx="13.52" ry="23.23" transform="translate(27.08 1104.85) rotate(-83.29)" style="fill: #ff2670; stroke-width: 0px;"/>
        <ellipse cx="687.49" cy="466.51" rx="13.52" ry="23.23" transform="translate(-128.43 309.83) rotate(-23.29)" style="fill: #ff2670; stroke-width: 0px;"/>
        <ellipse cx="593.96" cy="506.77" rx="13.52" ry="23.23" transform="translate(-151.97 276.13) rotate(-23.29)" style="fill: #ff2670; stroke-width: 0px;"/>
        <ellipse cx="681.54" cy="517.07" rx="23.23" ry="13.52" transform="translate(-140.38 754.34) rotate(-53.29)" style="fill: #ff2670; stroke-width: 0px;"/>
        <ellipse cx="599.91" cy="456.2" rx="23.23" ry="13.52" transform="translate(-124.42 664.42) rotate(-53.29)" style="fill: #ff2670; stroke-width: 0px;"/>
      </g>
    </g>
  </g>
</svg>