<?xml version="1.0" encoding="utf-8"?>
<!-- Generator: Adobe Illustrator 27.1.1, SVG Export Plug-In . SVG Version: 6.00 Build 0)  -->
<svg version="1.1" id="Layer_1" xmlns="http://www.w3.org/2000/svg" xmlns:xlink="http://www.w3.org/1999/xlink" x="0px" y="0px"
	 viewBox="0 0 1600 500" style="enable-background:new 0 0 1600 500;" xml:space="preserve">
<style type="text/css">
	.st0{fill-rule:evenodd;clip-rule:evenodd;fill:#D7B6FA;}
	.st1{fill-rule:evenodd;clip-rule:evenodd;fill:#BA81F9;}
	.st2{fill:#BA81F9;}
	.st3{fill:#EAD9FC;}
	.st4{fill-rule:evenodd;clip-rule:evenodd;fill:#FFFFFF;}
</style>
<g>
	<g>
		<g>
			<g>
				<path class="st0" d="M1600,24.8v428.5c0,8.3-4.1,15.7-10.3,20.2c-2.4,1.7-5.8,0.9-6.9-1.9c-3.9-9.7-16.4-16.8-31.2-16.8
					c-9.5,0-18,2.9-23.9,7.6c-1.9,1.5-4.6,1.3-6.2-0.6c-7.7-8.7-21.2-14.5-36.7-14.5c-13.9,0-26.4,4.7-34.3,12
					c-1.8,1.7-4.7,1.5-6.4-0.3c-9.3-10.1-25.8-16.8-44.6-16.8c-27.1,0-49.3,13.9-52.4,31.7c-0.4,2.4-2.5,4.1-4.9,4.1l-1317.2,0
					C11.1,478.2,0,467.1,0,453.4V24.8C0,11.1,11.1,0,24.8,0h1550.3C1588.9,0,1600,11.1,1600,24.8z"/>
			</g>
			<g>
				<ellipse class="st1" cx="1399.5" cy="479.2" rx="33.9" ry="20.8"/>
				<ellipse class="st1" cx="1483.8" cy="478.7" rx="27.9" ry="17.2"/>
				<ellipse class="st1" cx="1552.4" cy="479" rx="18.6" ry="11.5"/>
			</g>
		</g>
	</g>
	<path class="st2" d="M1600,395.5v57.8c0,8.3-4.1,15.7-10.4,20.2c-2.4,1.7-5.8,0.9-6.9-1.9c-3.9-9.7-16.4-16.8-31.2-16.8
		c-9.5,0-18,2.9-23.9,7.5c-1.9,1.5-4.6,1.2-6.2-0.6c-7.7-8.7-21.2-14.5-36.7-14.5c-13.9,0-26.4,4.7-34.3,12
		c-1.8,1.7-4.7,1.6-6.4-0.3c-9.3-10.1-25.8-16.8-44.6-16.8c-27.1,0-49.3,13.9-52.4,31.7c-0.4,2.4-2.5,4.1-4.9,4.1l-1317.2,0
		C11.1,478.2,0,467.1,0,453.4V306.4c0,0,282.7,89,465.5,88.9C755,395.2,1180.6,268.7,1600,395.5z"/>
	<path class="st3" d="M0,21.3l0,58.6C526.8,31,864.3,217.9,1600,76V21.3c0-11.8-11.1-21.3-24.8-21.3L24.8,0C11.1,0,0,9.5,0,21.3z"/>
	<g>
		<g>
			<path class="st4" d="M1198.7,321.9H401.3c-18.3,0-33.1-14.8-33.1-33.1V186.2c0-18.3,14.8-33.1,33.1-33.1h797.4
				c18.3,0,33.1,14.8,33.1,33.1v102.6C1231.8,307.1,1217,321.9,1198.7,321.9z"/>
		</g>
		<g>
			<path d="M433.1,265.4l1.9-15.1H429v-4.2h6.4l1.3-11h-6.3v-4.3h6.8l1.7-13.5h3.9l-1.6,13.5h9.8l1.7-13.5h3.9l-1.6,13.5h5.9v4.3
				h-6.4l-1.3,11h6.3v4.2h-6.8l-1.9,15.1h-4l1.8-15.1H439l-1.8,15.1H433.1z M439.5,246.1h9.8l1.3-11h-9.8L439.5,246.1z"/>
			<path d="M483.7,276.6V213h20.5v3.5h-15.6v56.7h15.6v3.5H483.7z"/>
			<path d="M534.8,265.4v-31h-16.7v-5h22.8v36H534.8z M537.2,221.9c-1.4,0-2.5-0.4-3.5-1.3c-0.9-0.9-1.4-2-1.4-3.4
				c0-1.4,0.5-2.6,1.4-3.4c0.9-0.9,2.1-1.3,3.5-1.3c1.4,0,2.5,0.4,3.5,1.3c0.9,0.9,1.4,2,1.4,3.4c0,1.4-0.5,2.6-1.4,3.4
				C539.7,221.5,538.5,221.9,537.2,221.9z"/>
			<path d="M562.7,265.4v-36h5l0.5,6.1h0.3c1.9-2,3.9-3.7,6.1-5c2.2-1.3,4.7-2,7.5-2c4.2,0,7.4,1.2,9.4,3.7c2,2.5,3,6.1,3,10.8v22.3
				h-6.1v-21.5c0-3.4-0.6-5.9-1.9-7.6c-1.3-1.7-3.4-2.5-6.4-2.5c-2.1,0-4,0.5-5.7,1.6c-1.7,1.1-3.6,2.7-5.7,4.9v25.1H562.7z"/>
			<path d="M608,265.4v-52.7h6.1v35.7h0.3l19.4-18.9h7l-14.4,14.1l16.3,21.8h-6.8l-13.2-18.1l-8.5,8.4v9.8H608z"/>
			<path d="M676.6,278.4c-5.1-4-9.2-8.8-12.2-14.4c-3-5.6-4.5-12-4.5-19.2c0-7.2,1.5-13.5,4.5-19.2c3-5.6,7-10.4,12.2-14.4l3.3,3.1
				c-4.9,4.2-8.6,8.8-11,13.7s-3.6,10.5-3.6,16.8c0,6.2,1.2,11.8,3.6,16.8s6,9.5,11,13.7L676.6,278.4z"/>
			<path d="M707.2,266.3c-2.2,0-4.3-0.4-6.1-1.2c-1.8-0.8-3.3-2-4.4-3.5c-1.1-1.5-1.7-3.4-1.7-5.5c0-2.7,0.9-5,2.6-6.8
				c1.8-1.8,4.6-3.2,8.4-4.3c3.8-1.1,8.9-1.9,15-2.4c0-1.6-0.4-3.1-1-4.5c-0.6-1.4-1.6-2.5-3-3.3c-1.4-0.8-3.2-1.3-5.5-1.3
				c-2.3,0-4.6,0.5-6.8,1.4c-2.2,0.9-4.1,1.9-5.8,2.9l-2.4-4.1c1.8-1.2,4.2-2.3,7-3.5c2.8-1.1,5.8-1.7,9-1.7c4.9,0,8.6,1.3,11,4
				c2.4,2.7,3.6,6.3,3.6,10.8v22.1h-5l-0.5-4.9h-0.2c-2,1.5-4.2,2.9-6.7,4C712.3,265.7,709.8,266.3,707.2,266.3z M708.8,261.4
				c2,0,4.1-0.5,6.1-1.4c2-0.9,4.1-2.2,6.1-3.9v-9.5c-5.1,0.4-9.2,1-12.1,1.8c-2.9,0.8-5,1.8-6.2,3c-1.2,1.2-1.8,2.6-1.8,4.2
				c0,2,0.8,3.5,2.4,4.4C704.9,260.9,706.8,261.4,708.8,261.4z"/>
			<path d="M740.3,265.4v-36h5l0.5,6.1h0.3c1.9-2,3.9-3.7,6.1-5c2.2-1.3,4.7-2,7.5-2c4.2,0,7.4,1.2,9.4,3.7c2,2.5,3,6.1,3,10.8v22.3
				H766v-21.5c0-3.4-0.6-5.9-1.9-7.6c-1.3-1.7-3.4-2.5-6.4-2.5c-2.1,0-4,0.5-5.7,1.6c-1.7,1.1-3.6,2.7-5.7,4.9v25.1H740.3z"/>
			<path d="M800,266.3c-3.2,0-6.1-0.7-8.8-2.2c-2.7-1.5-4.9-3.6-6.5-6.4c-1.7-2.8-2.5-6.2-2.5-10.1c0-4,0.8-7.5,2.5-10.3
				c1.7-2.8,3.8-5,6.5-6.4c2.7-1.5,5.6-2.2,8.8-2.2c3.2,0,6.1,0.7,8.8,2.2c2.7,1.5,4.9,3.6,6.5,6.4c1.7,2.8,2.5,6.2,2.5,10.3
				c0,3.9-0.8,7.3-2.5,10.1c-1.7,2.8-3.8,5-6.5,6.4C806.1,265.5,803.2,266.3,800,266.3z M800,261.3c3.5,0,6.2-1.3,8.3-3.8
				c2.1-2.5,3.1-5.9,3.1-10c0-4.1-1-7.5-3.1-10.1c-2.1-2.6-4.9-3.8-8.3-3.8c-3.5,0-6.2,1.3-8.3,3.8c-2.1,2.6-3.1,5.9-3.1,10.1
				c0,4.1,1,7.4,3.1,10C793.8,260,796.5,261.3,800,261.3z"/>
			<path d="M829.1,265.4v-36h5l0.5,6.1h0.3c1.9-2,3.9-3.7,6.1-5c2.2-1.3,4.7-2,7.5-2c4.2,0,7.4,1.2,9.4,3.7c2,2.5,3,6.1,3,10.8v22.3
				h-6.1v-21.5c0-3.4-0.6-5.9-1.9-7.6c-1.3-1.7-3.4-2.5-6.4-2.5c-2.1,0-4,0.5-5.7,1.6c-1.7,1.1-3.6,2.7-5.7,4.9v25.1H829.1z"/>
			<path d="M876.3,280.9c-1.8,0-3.4-0.2-4.7-0.7l1.3-4.8c0.5,0.1,1,0.3,1.6,0.4c0.6,0.1,1.1,0.1,1.7,0.1c2.5,0,4.6-0.7,6.1-2.2
				c1.6-1.5,2.8-3.3,3.7-5.5l1.1-2.7l-16.8-36h6.1l8.8,19.9c0.7,1.6,1.4,3.3,2.2,5.1c0.8,1.8,1.5,3.6,2.3,5.3h0.3
				c0.6-1.7,1.3-3.5,2-5.3c0.7-1.8,1.3-3.5,1.9-5.1l7.8-19.9h5.8l-15.8,38.9c-0.9,2.4-2,4.5-3.3,6.4c-1.3,1.9-3,3.4-4.9,4.5
				C881.3,280.3,879,280.9,876.3,280.9z"/>
			<path d="M915.3,265.4v-36h4.9l0.5,4.7h0.1c0.9-1.7,2-3,3.3-4.1c1.2-1,2.9-1.6,5-1.6c3.5,0,5.8,2.1,6.8,6.2c1-1.9,2.2-3.4,3.4-4.6
				c1.3-1.1,2.9-1.7,5-1.7c2.5,0,4.5,1,5.9,2.8c1.4,1.9,2.1,4.7,2.1,8.3v25.8h-6.1v-25.3c0-4.2-1.3-6.3-3.8-6.3
				c-1.2,0-2.3,0.5-3.1,1.4c-0.8,0.9-1.7,2.3-2.7,4.2v26H931v-25.3c0-2.1-0.3-3.6-0.9-4.7c-0.6-1.1-1.5-1.6-2.8-1.6
				c-1.2,0-2.3,0.5-3.2,1.4c-0.9,0.9-1.8,2.3-2.7,4.2v26H915.3z"/>
			<path d="M977.6,266.3c-3.2,0-6.1-0.7-8.8-2.2c-2.7-1.5-4.9-3.6-6.5-6.4c-1.7-2.8-2.5-6.2-2.5-10.1c0-4,0.8-7.5,2.5-10.3
				c1.7-2.8,3.8-5,6.5-6.4c2.7-1.5,5.6-2.2,8.8-2.2c3.2,0,6.1,0.7,8.8,2.2c2.7,1.5,4.9,3.6,6.5,6.4c1.7,2.8,2.5,6.2,2.5,10.3
				c0,3.9-0.8,7.3-2.5,10.1c-1.7,2.8-3.8,5-6.5,6.4C983.7,265.5,980.8,266.3,977.6,266.3z M977.6,261.3c3.5,0,6.2-1.3,8.3-3.8
				c2.1-2.5,3.1-5.9,3.1-10c0-4.1-1-7.5-3.1-10.1c-2.1-2.6-4.9-3.8-8.3-3.8c-3.5,0-6.2,1.3-8.3,3.8c-2.1,2.6-3.1,5.9-3.1,10.1
				c0,4.1,1,7.4,3.1,10C971.4,260,974.1,261.3,977.6,261.3z"/>
			<path d="M1018,266.3c-4.3,0-7.5-1.2-9.5-3.7c-2-2.5-3-6.1-3-10.8v-22.3h6.1V251c0,3.4,0.6,5.9,1.9,7.6c1.3,1.7,3.4,2.5,6.4,2.5
				c2.1,0,4-0.5,5.7-1.6c1.7-1.1,3.5-2.7,5.5-5.1v-24.9h6.1v36h-5l-0.5-6.3h-0.3c-1.8,2.1-3.8,3.8-6,5.2S1020.8,266.3,1018,266.3z"
				/>
			<path d="M1067.1,266.3c-3.5,0-6.8-0.6-9.8-1.7c-3.1-1.1-5.7-2.4-7.8-4l2.8-4c2.1,1.5,4.4,2.7,6.9,3.6c2.5,0.9,5.4,1.3,8.7,1.3
				c3.1,0,5.3-0.6,6.8-1.7c1.5-1.1,2.3-2.4,2.3-4c0-0.9-0.3-1.8-0.8-2.5c-0.5-0.7-1.6-1.5-3.2-2.1c-1.6-0.7-4-1.4-7.3-2
				c-4.6-1-8.1-2.3-10.5-4c-2.4-1.7-3.6-3.8-3.6-6.5c0-2.9,1.3-5.3,3.8-7.3c2.5-1.9,6.2-2.9,11.2-2.9c2.8,0,5.4,0.5,8,1.4
				c2.6,0.9,4.7,2,6.5,3.2l-3,3.9c-1.7-1.1-3.5-2-5.5-2.7c-2-0.7-4.2-1-6.5-1c-3.1,0-5.2,0.5-6.4,1.6c-1.2,1-1.8,2.2-1.8,3.6
				c0,1.5,0.8,2.7,2.5,3.6c1.7,0.8,4.3,1.7,8,2.4c4,0.8,7.1,1.8,9.2,2.8c2.1,1,3.6,2.2,4.4,3.6c0.8,1.3,1.2,2.9,1.2,4.7
				c0,1.9-0.6,3.7-1.8,5.3c-1.2,1.6-3,2.9-5.4,3.9S1070.6,266.3,1067.1,266.3z"/>
			<path d="M1101,278.4l-3.3-3.1c5-4.2,8.6-8.8,11-13.7c2.3-5,3.5-10.5,3.5-16.8c0-6.2-1.2-11.8-3.5-16.8c-2.3-5-6-9.5-11-13.7
				l3.3-3.1c5.1,4,9.2,8.8,12.2,14.4c3,5.6,4.5,12,4.5,19.2c0,7.2-1.5,13.5-4.5,19.2C1110.1,269.6,1106.1,274.4,1101,278.4z"/>
			<path d="M1140.2,276.6v-3.5h15.6v-56.7h-15.6V213h20.5v63.6H1140.2z"/>
		</g>
	</g>
	<g>
		<ellipse class="st1" cx="1399.5" cy="479.2" rx="33.9" ry="20.8"/>
		<ellipse class="st1" cx="1483.8" cy="478.7" rx="27.9" ry="17.2"/>
		<ellipse class="st1" cx="1552.4" cy="479" rx="18.6" ry="11.5"/>
	</g>
</g>
</svg>
