<?xml version="1.0" encoding="utf-8"?>
<!-- Generator: Adobe Illustrator 27.1.1, SVG Export Plug-In . SVG Version: 6.00 Build 0)  -->
<svg version="1.1" id="Layer_1" xmlns="http://www.w3.org/2000/svg" xmlns:xlink="http://www.w3.org/1999/xlink" x="0px" y="0px"
	 viewBox="0 0 1600 500" style="enable-background:new 0 0 1600 500;" xml:space="preserve">
<style type="text/css">
	.st0{fill-rule:evenodd;clip-rule:evenodd;fill:#D7B6FA;}
	.st1{fill-rule:evenodd;clip-rule:evenodd;fill:#BA81F9;}
	.st2{fill:#BA81F9;}
	.st3{fill:#EAD9FC;}
	.st4{fill-rule:evenodd;clip-rule:evenodd;fill:#FFFFFF;}
</style>
<g>
	<g>
		<g>
			<g>
				<path class="st0" d="M1600,24.8v428.5c0,8.3-4.1,15.7-10.3,20.2c-2.4,1.7-5.8,0.9-6.9-1.9c-3.9-9.7-16.4-16.8-31.2-16.8
					c-9.5,0-18,2.9-23.9,7.6c-1.9,1.5-4.6,1.3-6.2-0.6c-7.7-8.7-21.2-14.5-36.7-14.5c-13.9,0-26.4,4.7-34.3,12
					c-1.8,1.7-4.7,1.5-6.4-0.3c-9.3-10.1-25.8-16.8-44.6-16.8c-27.1,0-49.3,13.9-52.4,31.7c-0.4,2.4-2.5,4.1-4.9,4.1l-1317.2,0
					C11.1,478.2,0,467.1,0,453.4V24.8C0,11.1,11.1,0,24.8,0h1550.3C1588.9,0,1600,11.1,1600,24.8z"/>
			</g>
			<g>
				<ellipse class="st1" cx="1399.5" cy="479.2" rx="33.9" ry="20.8"/>
				<ellipse class="st1" cx="1483.8" cy="478.7" rx="27.9" ry="17.2"/>
				<ellipse class="st1" cx="1552.4" cy="479" rx="18.6" ry="11.5"/>
			</g>
		</g>
	</g>
	<path class="st2" d="M1600,395.5v57.8c0,8.3-4.1,15.7-10.4,20.2c-2.4,1.7-5.8,0.9-6.9-1.9c-3.9-9.7-16.4-16.8-31.2-16.8
		c-9.5,0-18,2.9-23.9,7.5c-1.9,1.5-4.6,1.2-6.2-0.6c-7.7-8.7-21.2-14.5-36.7-14.5c-13.9,0-26.4,4.7-34.3,12
		c-1.8,1.7-4.7,1.6-6.4-0.3c-9.3-10.1-25.8-16.8-44.6-16.8c-27.1,0-49.3,13.9-52.4,31.7c-0.4,2.4-2.5,4.1-4.9,4.1l-1317.2,0
		C11.1,478.2,0,467.1,0,453.4V306.4c0,0,282.7,89,465.5,88.9C755,395.2,1180.6,268.7,1600,395.5z"/>
	<path class="st3" d="M0,21.3l0,58.6C526.8,31,864.3,217.9,1600,76V21.3c0-11.8-11.1-21.3-24.8-21.3L24.8,0C11.1,0,0,9.5,0,21.3z"/>
	<g>
		<g>
			<path class="st4" d="M1349.1,321.9H250.9c-21.3,0-38.6-17.3-38.6-38.6v-91.6c0-21.3,17.3-38.6,38.6-38.6h1098.1
				c21.3,0,38.6,17.3,38.6,38.6v91.6C1387.6,304.6,1370.4,321.9,1349.1,321.9z"/>
		</g>
		<g>
			<path d="M277.7,265.4l1.9-15.1h-5.9v-4.2h6.4l1.3-11h-6.3v-4.3h6.8l1.7-13.5h3.9l-1.6,13.5h9.8l1.7-13.5h3.9l-1.6,13.5h5.9v4.3
				h-6.4l-1.3,11h6.3v4.2h-6.8l-1.9,15.1h-4l1.8-15.1h-9.8l-1.8,15.1H277.7z M284.1,246.1h9.8l1.3-11h-9.8L284.1,246.1z"/>
			<path d="M328.3,276.6V213h20.5v3.5h-15.6v56.7h15.6v3.5H328.3z"/>
			<path d="M379.4,265.4v-31h-16.7v-5h22.8v36H379.4z M381.8,221.9c-1.4,0-2.5-0.4-3.5-1.3c-0.9-0.9-1.4-2-1.4-3.4
				c0-1.4,0.5-2.6,1.4-3.4c0.9-0.9,2.1-1.3,3.5-1.3c1.4,0,2.5,0.4,3.5,1.3c0.9,0.9,1.4,2,1.4,3.4c0,1.4-0.5,2.6-1.4,3.4
				C384.3,221.5,383.1,221.9,381.8,221.9z"/>
			<path d="M407.3,265.4v-36h5l0.5,6.1h0.3c1.9-2,3.9-3.7,6.1-5c2.2-1.3,4.7-2,7.5-2c4.2,0,7.4,1.2,9.4,3.7c2,2.5,3,6.1,3,10.8v22.3
				H433v-21.5c0-3.4-0.6-5.9-1.9-7.6c-1.3-1.7-3.4-2.5-6.4-2.5c-2.1,0-4,0.5-5.7,1.6c-1.7,1.1-3.6,2.7-5.7,4.9v25.1H407.3z"/>
			<path d="M452.7,265.4v-52.7h6.1v35.7h0.3l19.4-18.9h7L471,243.6l16.3,21.8h-6.8l-13.2-18.1l-8.5,8.4v9.8H452.7z"/>
			<path d="M521.2,278.4c-5.1-4-9.2-8.8-12.2-14.4c-3-5.6-4.5-12-4.5-19.2c0-7.2,1.5-13.5,4.5-19.2c3-5.6,7-10.4,12.2-14.4l3.3,3.1
				c-4.9,4.2-8.6,8.8-11,13.7s-3.6,10.5-3.6,16.8c0,6.2,1.2,11.8,3.6,16.8s6,9.5,11,13.7L521.2,278.4z"/>
			<path d="M562.8,266.3c-3.5,0-6.3-0.6-8.3-1.9c-2-1.3-3.5-3-4.3-5.2c-0.9-2.2-1.3-4.8-1.3-7.8v-17h-10.1v-4.6l10.4-0.4l0.8-11.5h5
				v11.5h17.7v5h-17.7v17.1c0,3.2,0.7,5.7,2,7.3c1.3,1.7,3.7,2.5,7.1,2.5c1.7,0,3.3-0.1,4.7-0.4c1.4-0.3,2.7-0.7,4-1.2l1.3,4.4
				c-1.6,0.6-3.3,1.1-5.1,1.5C567.1,266.1,565,266.3,562.8,266.3z"/>
			<path d="M588.8,265.4v-36h5l0.5,8.5h0.2c1.9-2.9,4.2-5.2,7-6.9c2.8-1.7,5.8-2.5,9.1-2.5c1.3,0,2.6,0.1,3.7,0.3
				c1.2,0.2,2.3,0.6,3.4,1.1l-1.4,5.3c-1.2-0.4-2.3-0.8-3.2-1c-0.9-0.2-2-0.3-3.5-0.3c-2.7,0-5.3,0.8-7.8,2.3c-2.5,1.6-4.8,4.2-7,8
				v21.1H588.8z"/>
			<path d="M640.6,266.3c-2.2,0-4.3-0.4-6.1-1.2c-1.8-0.8-3.3-2-4.4-3.5c-1.1-1.5-1.7-3.4-1.7-5.5c0-2.7,0.9-5,2.6-6.8
				c1.8-1.8,4.6-3.2,8.4-4.3c3.8-1.1,8.9-1.9,15-2.4c0-1.6-0.4-3.1-1-4.5c-0.6-1.4-1.6-2.5-3-3.3c-1.4-0.8-3.2-1.3-5.5-1.3
				c-2.3,0-4.6,0.5-6.8,1.4c-2.2,0.9-4.1,1.9-5.8,2.9l-2.4-4.1c1.8-1.2,4.2-2.3,7-3.5c2.8-1.1,5.8-1.7,9-1.7c4.9,0,8.6,1.3,11,4
				c2.4,2.7,3.6,6.3,3.6,10.8v22.1h-5l-0.5-4.9h-0.2c-2,1.5-4.2,2.9-6.7,4C645.7,265.7,643.2,266.3,640.6,266.3z M642.2,261.4
				c2,0,4.1-0.5,6.1-1.4c2-0.9,4.1-2.2,6.1-3.9v-9.5c-5.1,0.4-9.2,1-12.1,1.8c-2.9,0.8-5,1.8-6.2,3c-1.2,1.2-1.8,2.6-1.8,4.2
				c0,2,0.8,3.5,2.4,4.4C638.3,260.9,640.2,261.4,642.2,261.4z"/>
			<path d="M690.2,265.4v-31h-16.7v-5h22.8v36H690.2z M692.6,221.9c-1.4,0-2.5-0.4-3.5-1.3c-0.9-0.9-1.4-2-1.4-3.4
				c0-1.4,0.5-2.6,1.4-3.4c0.9-0.9,2.1-1.3,3.5-1.3c1.4,0,2.5,0.4,3.5,1.3c0.9,0.9,1.4,2,1.4,3.4c0,1.4-0.5,2.6-1.4,3.4
				C695.1,221.5,693.9,221.9,692.6,221.9z"/>
			<path d="M740.4,266.3c-3.5,0-6.3-0.6-8.3-1.9c-2-1.3-3.5-3-4.3-5.2c-0.9-2.2-1.3-4.8-1.3-7.8v-17h-10.1v-4.6l10.4-0.4l0.8-11.5h5
				v11.5h17.7v5h-17.7v17.1c0,3.2,0.7,5.7,2,7.3c1.3,1.7,3.7,2.5,7.1,2.5c1.7,0,3.3-0.1,4.7-0.4c1.4-0.3,2.7-0.7,4-1.2l1.3,4.4
				c-1.6,0.6-3.3,1.1-5.1,1.5C744.7,266.1,742.6,266.3,740.4,266.3z"/>
			<path d="M760,275.8v-5.3h35.5v5.3H760z"/>
			<path d="M820.1,266.3c-4.7,0-8.5-1.6-11.3-4.9c-2.9-3.3-4.3-7.9-4.3-13.9c0-3.9,0.8-7.3,2.3-10.1c1.6-2.8,3.6-5,6.1-6.5
				c2.5-1.5,5.1-2.3,8-2.3c2.2,0,4.1,0.4,5.8,1.2c1.7,0.8,3.4,2,4.9,3.4h0.2l-0.3-6.7v-13.8h6.1v52.7h-5l-0.5-4.7h-0.2
				c-1.5,1.5-3.2,2.8-5.3,4C824.4,265.7,822.3,266.3,820.1,266.3z M821.3,261.2c3.6,0,6.9-1.8,10.1-5.4v-17.9
				c-1.6-1.5-3.2-2.6-4.8-3.3c-1.6-0.6-3.1-1-4.7-1c-2.1,0-4,0.6-5.7,1.7c-1.7,1.2-3.1,2.8-4.1,4.8c-1,2-1.5,4.5-1.5,7.2
				c0,4.3,0.9,7.7,2.8,10.1C815.4,260,818,261.2,821.3,261.2z"/>
			<path d="M868.8,266.3c-3.6,0-6.9-0.7-9.8-2.2c-2.9-1.5-5.3-3.6-7-6.5c-1.7-2.8-2.6-6.3-2.6-10.2c0-3.9,0.9-7.3,2.6-10.1
				c1.7-2.8,4-5,6.8-6.5c2.8-1.5,5.8-2.3,9-2.3c5.2,0,9.2,1.5,12.1,4.6c2.9,3.1,4.3,7.2,4.3,12.2c0,0.7,0,1.4-0.1,2
				c0,0.6-0.1,1.2-0.2,1.7h-28.3c0.4,4,1.9,7.1,4.5,9.2c2.6,2.1,5.8,3.1,9.5,3.1c2.2,0,4.1-0.3,5.9-0.9c1.8-0.6,3.4-1.4,5.1-2.5
				l2.2,4c-1.8,1.2-3.8,2.2-6.1,3C874.3,265.9,871.7,266.3,868.8,266.3z M867.9,233.4c-3,0-5.6,1-7.9,2.8c-2.3,1.9-3.8,4.6-4.3,8.2
				h22.9c-0.2-3.7-1.3-6.5-3.3-8.3C873.5,234.3,871,233.4,867.9,233.4z"/>
			<path d="M906.7,265.4v-31h-10.3v-4.6l10.3-0.4v-3c0-4.4,1.2-7.9,3.6-10.6s6-4,11-4c3.6,0,7,0.7,10.4,2.1l-1.4,4.6
				c-1.5-0.7-2.8-1.1-4.1-1.4c-1.3-0.2-2.7-0.3-4.3-0.3c-3.2,0-5.5,0.8-7,2.5c-1.4,1.7-2.1,4-2.1,6.9v3.3h15.1v5h-15.1v31H906.7z"/>
			<path d="M956.6,265.4v-31h-16.7v-5h22.8v36H956.6z M959,221.9c-1.4,0-2.5-0.4-3.5-1.3c-0.9-0.9-1.4-2-1.4-3.4
				c0-1.4,0.5-2.6,1.4-3.4c0.9-0.9,2.1-1.3,3.5-1.3c1.4,0,2.5,0.4,3.5,1.3c0.9,0.9,1.4,2,1.4,3.4c0,1.4-0.5,2.6-1.4,3.4
				C961.5,221.5,960.3,221.9,959,221.9z"/>
			<path d="M984.5,265.4v-36h5l0.5,6.1h0.3c1.9-2,3.9-3.7,6.1-5c2.2-1.3,4.7-2,7.5-2c4.2,0,7.4,1.2,9.4,3.7c2,2.5,3,6.1,3,10.8v22.3
				h-6.1v-21.5c0-3.4-0.6-5.9-1.9-7.6c-1.3-1.7-3.4-2.5-6.4-2.5c-2.1,0-4,0.5-5.7,1.6c-1.7,1.1-3.6,2.7-5.7,4.9v25.1H984.5z"/>
			<path d="M1045.4,265.4v-31h-16.7v-5h22.8v36H1045.4z M1047.7,221.9c-1.4,0-2.5-0.4-3.5-1.3c-0.9-0.9-1.4-2-1.4-3.4
				c0-1.4,0.5-2.6,1.4-3.4c0.9-0.9,2.1-1.3,3.5-1.3c1.4,0,2.5,0.4,3.5,1.3c0.9,0.9,1.4,2,1.4,3.4c0,1.4-0.5,2.6-1.4,3.4
				C1050.3,221.5,1049.1,221.9,1047.7,221.9z"/>
			<path d="M1095.6,266.3c-3.5,0-6.3-0.6-8.3-1.9c-2-1.3-3.5-3-4.3-5.2c-0.9-2.2-1.3-4.8-1.3-7.8v-17h-10.1v-4.6l10.4-0.4l0.8-11.5
				h5v11.5h17.7v5h-17.7v17.1c0,3.2,0.7,5.7,2,7.3c1.3,1.7,3.7,2.5,7.1,2.5c1.7,0,3.3-0.1,4.7-0.4c1.4-0.3,2.7-0.7,4-1.2l1.3,4.4
				c-1.6,0.6-3.3,1.1-5.1,1.5C1099.9,266.1,1097.8,266.3,1095.6,266.3z"/>
			<path d="M1134.2,265.4v-31h-16.7v-5h22.8v36H1134.2z M1136.5,221.9c-1.4,0-2.5-0.4-3.5-1.3c-0.9-0.9-1.4-2-1.4-3.4
				c0-1.4,0.5-2.6,1.4-3.4c0.9-0.9,2.1-1.3,3.5-1.3c1.4,0,2.5,0.4,3.5,1.3c0.9,0.9,1.4,2,1.4,3.4c0,1.4-0.5,2.6-1.4,3.4
				C1139.1,221.5,1137.9,221.9,1136.5,221.9z"/>
			<path d="M1177.4,266.3c-3.2,0-6.1-0.7-8.8-2.2c-2.7-1.5-4.9-3.6-6.5-6.4c-1.7-2.8-2.5-6.2-2.5-10.1c0-4,0.8-7.5,2.5-10.3
				c1.7-2.8,3.8-5,6.5-6.4c2.7-1.5,5.6-2.2,8.8-2.2c3.2,0,6.1,0.7,8.8,2.2c2.7,1.5,4.9,3.6,6.5,6.4c1.7,2.8,2.5,6.2,2.5,10.3
				c0,3.9-0.8,7.3-2.5,10.1c-1.7,2.8-3.8,5-6.5,6.4C1183.5,265.5,1180.6,266.3,1177.4,266.3z M1177.4,261.3c3.5,0,6.2-1.3,8.3-3.8
				c2.1-2.5,3.1-5.9,3.1-10c0-4.1-1-7.5-3.1-10.1c-2.1-2.6-4.9-3.8-8.3-3.8c-3.5,0-6.2,1.3-8.3,3.8c-2.1,2.6-3.1,5.9-3.1,10.1
				c0,4.1,1,7.4,3.1,10C1171.2,260,1173.9,261.3,1177.4,261.3z"/>
			<path d="M1206.5,265.4v-36h5l0.5,6.1h0.3c1.9-2,3.9-3.7,6.1-5c2.2-1.3,4.7-2,7.5-2c4.2,0,7.4,1.2,9.4,3.7c2,2.5,3,6.1,3,10.8
				v22.3h-6.1v-21.5c0-3.4-0.6-5.9-1.9-7.6c-1.3-1.7-3.4-2.5-6.4-2.5c-2.1,0-4,0.5-5.7,1.6c-1.7,1.1-3.6,2.7-5.7,4.9v25.1H1206.5z"
				/>
			<path d="M1256.4,278.4l-3.3-3.1c5-4.2,8.6-8.8,11-13.7c2.3-5,3.5-10.5,3.5-16.8c0-6.2-1.2-11.8-3.5-16.8c-2.3-5-6-9.5-11-13.7
				l3.3-3.1c5.1,4,9.2,8.8,12.2,14.4c3,5.6,4.5,12,4.5,19.2c0,7.2-1.5,13.5-4.5,19.2C1265.5,269.6,1261.5,274.4,1256.4,278.4z"/>
			<path d="M1295.6,276.6v-3.5h15.6v-56.7h-15.6V213h20.5v63.6H1295.6z"/>
		</g>
	</g>
	<g>
		<ellipse class="st1" cx="1399.5" cy="479.2" rx="33.9" ry="20.8"/>
		<ellipse class="st1" cx="1483.8" cy="478.7" rx="27.9" ry="17.2"/>
		<ellipse class="st1" cx="1552.4" cy="479" rx="18.6" ry="11.5"/>
	</g>
</g>
</svg>
