<?xml version="1.0" encoding="utf-8"?>
<!-- Generator: Adobe Illustrator 27.1.1, SVG Export Plug-In . SVG Version: 6.00 Build 0)  -->
<svg version="1.1" id="Layer_1" xmlns="http://www.w3.org/2000/svg" xmlns:xlink="http://www.w3.org/1999/xlink" x="0px" y="0px"
	 viewBox="0 0 1600 500" style="enable-background:new 0 0 1600 500;" xml:space="preserve">
<style type="text/css">
	.st0{fill-rule:evenodd;clip-rule:evenodd;fill:#D7B6FA;}
	.st1{fill-rule:evenodd;clip-rule:evenodd;fill:#BA81F9;}
	.st2{fill:#BA81F9;}
	.st3{fill:#EAD9FC;}
	.st4{fill-rule:evenodd;clip-rule:evenodd;fill:#FFFFFF;}
</style>
<g>
	<g>
		<g>
			<g>
				<g>
					<path class="st0" d="M1600,24.8v428.5c0,8.3-4.1,15.7-10.3,20.2c-2.4,1.7-5.8,0.9-6.9-1.9c-3.9-9.7-16.4-16.8-31.2-16.8
						c-9.5,0-18,2.9-23.9,7.6c-1.9,1.5-4.6,1.3-6.2-0.6c-7.7-8.7-21.2-14.5-36.7-14.5c-13.9,0-26.4,4.7-34.3,12
						c-1.8,1.7-4.7,1.5-6.4-0.3c-9.3-10.1-25.8-16.8-44.6-16.8c-27.1,0-49.3,13.9-52.4,31.7c-0.4,2.4-2.5,4.1-4.9,4.1l-1317.2,0
						C11.1,478.2,0,467.1,0,453.4V24.8C0,11.1,11.1,0,24.8,0h1550.3C1588.9,0,1600,11.1,1600,24.8z"/>
				</g>
			</g>
			<g>
				<g>
					<ellipse class="st1" cx="1399.5" cy="479.2" rx="33.9" ry="20.8"/>
				</g>
				<g>
					<ellipse class="st1" cx="1483.8" cy="478.7" rx="27.9" ry="17.2"/>
				</g>
				<g>
					<ellipse class="st1" cx="1552.4" cy="479" rx="18.6" ry="11.5"/>
				</g>
			</g>
		</g>
	</g>
	<g>
		<path class="st2" d="M1600,395.5v57.8c0,8.3-4.1,15.7-10.4,20.2c-2.4,1.7-5.8,0.9-6.9-1.9c-3.9-9.7-16.4-16.8-31.2-16.8
			c-9.5,0-18,2.9-23.9,7.5c-1.9,1.5-4.6,1.2-6.2-0.6c-7.7-8.7-21.2-14.5-36.7-14.5c-13.9,0-26.4,4.7-34.3,12
			c-1.8,1.7-4.7,1.6-6.4-0.3c-9.3-10.1-25.8-16.8-44.6-16.8c-27.1,0-49.3,13.9-52.4,31.7c-0.4,2.4-2.5,4.1-4.9,4.1l-1317.2,0
			C11.1,478.2,0,467.1,0,453.4V306.4c0,0,282.7,89,465.5,88.9C755,395.2,1180.6,268.7,1600,395.5z"/>
	</g>
	<g>
		<path class="st3" d="M0,21.3l0,58.6C526.8,31,864.3,217.9,1600,76V21.3c0-11.8-11.1-21.3-24.8-21.3L24.8,0C11.1,0,0,9.5,0,21.3z"
			/>
	</g>
	<g>
		<g>
			<path class="st4" d="M1171.3,321.9H428.7c-17.6,0-31.9-14.3-31.9-31.9V185.1c0-17.6,14.3-31.9,31.9-31.9h742.6
				c17.6,0,31.9,14.3,31.9,31.9v104.9C1203.2,307.6,1188.9,321.9,1171.3,321.9z"/>
		</g>
		<g>
			<path d="M455.3,265.4l1.9-15.1h-5.9v-4.2h6.4l1.3-11h-6.3v-4.3h6.8l1.7-13.5h3.9l-1.6,13.5h9.8l1.7-13.5h3.9l-1.6,13.5h5.9v4.3
				h-6.4l-1.3,11h6.3v4.2h-6.8l-1.9,15.1h-4l1.8-15.1h-9.8l-1.8,15.1H455.3z M461.7,246.1h9.8l1.3-11H463L461.7,246.1z"/>
			<path d="M505.9,276.6V213h20.5v3.5h-15.6v56.7h15.6v3.5H505.9z"/>
			<path d="M557,265.4v-31h-16.7v-5h22.8v36H557z M559.4,221.9c-1.4,0-2.5-0.4-3.5-1.3c-0.9-0.9-1.4-2-1.4-3.4
				c0-1.4,0.5-2.6,1.4-3.4c0.9-0.9,2.1-1.3,3.5-1.3c1.4,0,2.5,0.4,3.5,1.3c0.9,0.9,1.4,2,1.4,3.4c0,1.4-0.5,2.6-1.4,3.4
				C561.9,221.5,560.7,221.9,559.4,221.9z"/>
			<path d="M584.9,265.4v-36h5l0.5,6.1h0.3c1.9-2,3.9-3.7,6.1-5c2.2-1.3,4.7-2,7.5-2c4.2,0,7.4,1.2,9.4,3.7c2,2.5,3,6.1,3,10.8v22.3
				h-6.1v-21.5c0-3.4-0.6-5.9-1.9-7.6c-1.3-1.7-3.4-2.5-6.4-2.5c-2.1,0-4,0.5-5.7,1.6c-1.7,1.1-3.6,2.7-5.7,4.9v25.1H584.9z"/>
			<path d="M630.2,265.4v-52.7h6.1v35.7h0.3l19.4-18.9h7l-14.4,14.1l16.3,21.8h-6.8l-13.2-18.1l-8.5,8.4v9.8H630.2z"/>
			<path d="M689,239.8c-1.7,0-3.1-0.6-4.3-1.7c-1.2-1.2-1.7-2.7-1.7-4.5c0-1.9,0.6-3.4,1.7-4.6c1.2-1.2,2.6-1.7,4.3-1.7
				c1.7,0,3.1,0.6,4.3,1.7c1.2,1.2,1.7,2.7,1.7,4.6c0,1.8-0.6,3.3-1.7,4.5C692.1,239.2,690.7,239.8,689,239.8z M689,266.3
				c-1.7,0-3.1-0.6-4.3-1.7c-1.2-1.2-1.7-2.7-1.7-4.5c0-1.9,0.6-3.4,1.7-4.6c1.2-1.2,2.6-1.7,4.3-1.7c1.7,0,3.1,0.6,4.3,1.7
				c1.2,1.2,1.7,2.7,1.7,4.6c0,1.8-0.6,3.3-1.7,4.5C692.1,265.7,690.7,266.3,689,266.3z"/>
			<path d="M733.4,239.8c-1.7,0-3.1-0.6-4.3-1.7c-1.2-1.2-1.7-2.7-1.7-4.5c0-1.9,0.6-3.4,1.7-4.6c1.2-1.2,2.6-1.7,4.3-1.7
				c1.7,0,3.1,0.6,4.3,1.7c1.2,1.2,1.7,2.7,1.7,4.6c0,1.8-0.6,3.3-1.7,4.5C736.5,239.2,735.1,239.8,733.4,239.8z M733.4,266.3
				c-1.7,0-3.1-0.6-4.3-1.7c-1.2-1.2-1.7-2.7-1.7-4.5c0-1.9,0.6-3.4,1.7-4.6c1.2-1.2,2.6-1.7,4.3-1.7c1.7,0,3.1,0.6,4.3,1.7
				c1.2,1.2,1.7,2.7,1.7,4.6c0,1.8-0.6,3.3-1.7,4.5C736.5,265.7,735.1,266.3,733.4,266.3z"/>
			<path d="M781.2,266.3c-3.7,0-7.1-0.7-10.1-2.2c-3-1.5-5.3-3.6-7-6.4c-1.7-2.8-2.6-6.2-2.6-10.1c0-4,0.9-7.5,2.7-10.3
				c1.8-2.8,4.3-5,7.3-6.4c3.1-1.5,6.4-2.2,10-2.2c2.9,0,5.5,0.5,7.6,1.6c2.2,1,4,2.3,5.5,3.7l-3,3.9c-1.5-1.3-3-2.3-4.6-3
				c-1.6-0.7-3.3-1.1-5.2-1.1c-2.8,0-5.2,0.6-7.3,1.7c-2.1,1.2-3.7,2.8-4.9,4.9c-1.2,2.1-1.8,4.5-1.8,7.3c0,2.7,0.6,5.1,1.7,7.2
				c1.2,2.1,2.8,3.7,4.8,4.8s4.5,1.7,7.3,1.7c2.2,0,4.3-0.4,6.1-1.3c1.8-0.9,3.5-1.9,5-3.2l2.7,3.9c-2,1.8-4.2,3.2-6.6,4.1
				C786.4,265.8,783.9,266.3,781.2,266.3z"/>
			<path d="M822.2,266.3c-3.2,0-6.1-0.7-8.8-2.2c-2.7-1.5-4.9-3.6-6.5-6.4c-1.7-2.8-2.5-6.2-2.5-10.1c0-4,0.8-7.5,2.5-10.3
				c1.7-2.8,3.8-5,6.5-6.4c2.7-1.5,5.6-2.2,8.8-2.2c3.2,0,6.1,0.7,8.8,2.2c2.7,1.5,4.9,3.6,6.5,6.4c1.7,2.8,2.5,6.2,2.5,10.3
				c0,3.9-0.8,7.3-2.5,10.1c-1.7,2.8-3.8,5-6.5,6.4C828.3,265.5,825.4,266.3,822.2,266.3z M822.2,261.3c3.5,0,6.2-1.3,8.3-3.8
				c2.1-2.5,3.1-5.9,3.1-10c0-4.1-1-7.5-3.1-10.1c-2.1-2.6-4.9-3.8-8.3-3.8c-3.5,0-6.2,1.3-8.3,3.8c-2.1,2.6-3.1,5.9-3.1,10.1
				c0,4.1,1,7.4,3.1,10C816,260,818.7,261.3,822.2,261.3z"/>
			<path d="M851.3,265.4v-36h5l0.5,6.1h0.3c1.9-2,3.9-3.7,6.1-5c2.2-1.3,4.7-2,7.5-2c4.2,0,7.4,1.2,9.4,3.7c2,2.5,3,6.1,3,10.8v22.3
				H877v-21.5c0-3.4-0.6-5.9-1.9-7.6c-1.3-1.7-3.4-2.5-6.4-2.5c-2.1,0-4,0.5-5.7,1.6c-1.7,1.1-3.6,2.7-5.7,4.9v25.1H851.3z"/>
			<path d="M918,266.3c-3.5,0-6.3-0.6-8.3-1.9c-2-1.3-3.5-3-4.3-5.2c-0.9-2.2-1.3-4.8-1.3-7.8v-17h-10.1v-4.6l10.4-0.4l0.8-11.5h5
				v11.5h17.7v5h-17.7v17.1c0,3.2,0.7,5.6,2,7.3c1.3,1.7,3.7,2.5,7.1,2.5c1.7,0,3.3-0.1,4.7-0.4c1.4-0.3,2.7-0.7,4-1.2l1.3,4.4
				c-1.6,0.6-3.3,1.1-5.1,1.5S920.2,266.3,918,266.3z"/>
			<path d="M944,265.4v-36h5l0.5,8.5h0.2c1.9-2.9,4.2-5.2,7-6.9c2.8-1.7,5.8-2.5,9.1-2.5c1.3,0,2.6,0.1,3.7,0.3
				c1.2,0.2,2.3,0.6,3.4,1.1l-1.4,5.3c-1.2-0.4-2.3-0.8-3.2-1c-0.9-0.2-2-0.3-3.5-0.3c-2.7,0-5.3,0.8-7.8,2.3c-2.5,1.6-4.8,4.2-7,8
				v21.1H944z"/>
			<path d="M995.8,266.3c-2.2,0-4.3-0.4-6.1-1.2c-1.8-0.8-3.3-2-4.4-3.5c-1.1-1.5-1.7-3.4-1.7-5.5c0-2.7,0.9-5,2.6-6.8
				c1.8-1.8,4.6-3.2,8.4-4.3c3.8-1.1,8.9-1.9,15-2.4c0-1.6-0.4-3.1-1-4.5c-0.6-1.4-1.6-2.5-3-3.3c-1.4-0.8-3.2-1.3-5.5-1.3
				c-2.3,0-4.6,0.5-6.8,1.4c-2.2,0.9-4.1,1.9-5.8,2.9l-2.4-4.1c1.8-1.2,4.2-2.3,7-3.5c2.8-1.1,5.8-1.7,9-1.7c4.9,0,8.6,1.3,11,4
				c2.4,2.7,3.6,6.3,3.6,10.8v22.1h-5l-0.5-4.9h-0.2c-2,1.5-4.2,2.9-6.7,4C1000.9,265.7,998.4,266.3,995.8,266.3z M997.4,261.4
				c2,0,4.1-0.5,6.1-1.4c2-0.9,4.1-2.2,6.1-3.9v-9.5c-5.1,0.4-9.2,1-12.1,1.8c-2.9,0.8-5,1.8-6.2,3c-1.2,1.2-1.8,2.6-1.8,4.2
				c0,2,0.8,3.5,2.4,4.4C993.5,260.9,995.4,261.4,997.4,261.4z"/>
			<path d="M1047.6,266.3c-3.7,0-7.1-0.7-10.1-2.2c-3-1.5-5.3-3.6-7-6.4c-1.7-2.8-2.6-6.2-2.6-10.1c0-4,0.9-7.5,2.7-10.3
				c1.8-2.8,4.3-5,7.3-6.4c3.1-1.5,6.4-2.2,10-2.2c2.9,0,5.5,0.5,7.6,1.6c2.2,1,4,2.3,5.5,3.7l-3,3.9c-1.5-1.3-3-2.3-4.6-3
				c-1.6-0.7-3.3-1.1-5.2-1.1c-2.8,0-5.2,0.6-7.3,1.7c-2.1,1.2-3.7,2.8-4.9,4.9c-1.2,2.1-1.8,4.5-1.8,7.3c0,2.7,0.6,5.1,1.7,7.2
				c1.2,2.1,2.8,3.7,4.8,4.8s4.5,1.7,7.3,1.7c2.2,0,4.3-0.4,6.1-1.3c1.8-0.9,3.5-1.9,5-3.2l2.7,3.9c-2,1.8-4.2,3.2-6.6,4.1
				C1052.8,265.8,1050.3,266.3,1047.6,266.3z"/>
			<path d="M1095.6,266.3c-3.5,0-6.3-0.6-8.3-1.9c-2-1.3-3.5-3-4.3-5.2c-0.9-2.2-1.3-4.8-1.3-7.8v-17h-10.1v-4.6l10.4-0.4l0.8-11.5
				h5v11.5h17.7v5h-17.7v17.1c0,3.2,0.7,5.6,2,7.3c1.3,1.7,3.7,2.5,7.1,2.5c1.7,0,3.3-0.1,4.7-0.4c1.4-0.3,2.7-0.7,4-1.2l1.3,4.4
				c-1.6,0.6-3.3,1.1-5.1,1.5S1097.8,266.3,1095.6,266.3z"/>
			<path d="M1118,276.6v-3.5h15.6v-56.7H1118V213h20.5v63.6H1118z"/>
		</g>
	</g>
	<g>
		<g>
			<ellipse class="st1" cx="1399.5" cy="479.2" rx="33.9" ry="20.8"/>
		</g>
		<g>
			<ellipse class="st1" cx="1483.8" cy="478.7" rx="27.9" ry="17.2"/>
		</g>
		<g>
			<ellipse class="st1" cx="1552.4" cy="479" rx="18.6" ry="11.5"/>
		</g>
	</g>
</g>
</svg>
