<?xml version="1.0" encoding="UTF-8"?>
<svg id="Layer_1" data-name="Layer 1" xmlns="http://www.w3.org/2000/svg" viewBox="0 0 1600 500">
  <defs>
    <style>
      .cls-1 {
        fill: #fff;
      }

      .cls-2 {
        fill: #ead9fc;
      }

      .cls-3 {
        fill: #ba81f9;
      }

      .cls-4 {
        fill: #d7b6fa;
        fill-rule: evenodd;
      }
    </style>
  </defs>
  <g>
    <path class="cls-4" d="m1600,24.84v428.52c0,8.31-4.08,15.66-10.34,20.17-2.4,1.73-5.84.86-6.95-1.88-3.92-9.72-16.41-16.83-31.21-16.83-9.47,0-17.99,2.91-23.93,7.55-1.91,1.49-4.64,1.25-6.24-.56-7.66-8.68-21.22-14.45-36.68-14.45-13.95,0-26.37,4.71-34.28,12.01-1.84,1.7-4.72,1.55-6.42-.29-9.32-10.07-25.83-16.76-44.62-16.76-27.05,0-49.35,13.85-52.36,31.7-.4,2.39-2.49,4.14-4.91,4.14l-1317.22.05c-13.71,0-24.83-11.12-24.83-24.84V24.84C0,11.12,11.12,0,24.83,0h1550.34C1588.88,0,1600,11.12,1600,24.84Z"/>
    <g>
      <ellipse class="cls-3" cx="1399.46" cy="479.16" rx="33.87" ry="20.84"/>
      <ellipse class="cls-3" cx="1483.78" cy="478.69" rx="27.94" ry="17.19"/>
      <ellipse class="cls-3" cx="1552.37" cy="479.04" rx="18.65" ry="11.48"/>
    </g>
  </g>
  <path class="cls-3" d="m1600,395.54v57.82c0,8.31-4.08,15.66-10.35,20.17-2.4,1.72-5.84.86-6.94-1.88-3.93-9.72-16.41-16.83-31.21-16.83-9.47,0-17.99,2.91-23.93,7.55-1.91,1.49-4.64,1.25-6.24-.56-7.66-8.68-21.22-14.45-36.68-14.45-13.95,0-26.37,4.7-34.29,12-1.84,1.7-4.71,1.55-6.42-.29-9.32-10.07-25.83-16.76-44.62-16.76-27.06,0-49.35,13.85-52.37,31.7-.4,2.39-2.48,4.14-4.91,4.14l-1317.21.05C11.12,478.2,0,467.08,0,453.36v-146.93s282.67,88.97,465.45,88.88c289.52-.15,715.14-126.59,1134.55.24Z"/>
  <path class="cls-2" d="m0,21.33v58.55c526.76-48.85,864.32,138.05,1600-3.86V21.33C1600,9.55,1588.88,0,1575.17,0H24.83C11.12,0,0,9.55,0,21.33Z"/>
  <g>
    <rect class="cls-1" x="405.77" y="153.12" width="788.46" height="168.76" rx="31.95" ry="31.95"/>
    <g>
      <path d="m477.51,265.4l1.85-15.1h-5.92v-4.22h6.44l1.33-10.95h-6.29v-4.29h6.81l1.7-13.54h3.92l-1.63,13.54h9.77l1.7-13.54h3.92l-1.63,13.54h5.92v4.29h-6.44l-1.33,10.95h6.29v4.22h-6.81l-1.85,15.1h-4l1.85-15.1h-9.77l-1.85,15.1h-4Zm6.36-19.31h9.77l1.33-10.95h-9.77l-1.33,10.95Z"/>
      <path d="m528.06,276.65v-63.64h20.5v3.48h-15.61v56.68h15.61v3.48h-20.5Z"/>
      <path d="m579.19,265.4v-31.01h-16.72v-4.96h22.79v35.96h-6.07Zm2.37-43.51c-1.38,0-2.54-.43-3.48-1.29-.94-.86-1.41-2.01-1.41-3.44s.47-2.58,1.41-3.44c.94-.86,2.1-1.29,3.48-1.29s2.54.43,3.48,1.29c.94.86,1.41,2.01,1.41,3.44s-.47,2.58-1.41,3.44c-.94.86-2.1,1.29-3.48,1.29Z"/>
      <path d="m607.09,265.4v-35.96h5.03l.52,6.14h.3c1.88-2.02,3.9-3.7,6.07-5.03,2.17-1.33,4.66-2,7.47-2,4.24,0,7.38,1.23,9.4,3.7,2.02,2.47,3.03,6.07,3.03,10.8v22.35h-6.07v-21.53c0-3.4-.64-5.93-1.92-7.58-1.28-1.65-3.4-2.48-6.36-2.48-2.12,0-4.02.54-5.7,1.63-1.68,1.09-3.58,2.71-5.7,4.88v25.09h-6.07Z"/>
      <path d="m652.45,265.4v-52.69h6.07v35.67h.3l19.39-18.94h6.96l-14.36,14.13,16.28,21.83h-6.81l-13.25-18.13-8.51,8.36v9.77h-6.07Z"/>
      <path d="m721.05,278.42c-5.13-4-9.19-8.81-12.17-14.43-2.99-5.62-4.48-12.01-4.48-19.17s1.49-13.54,4.48-19.17c2.98-5.62,7.04-10.43,12.17-14.43l3.33,3.11c-4.93,4.19-8.58,8.77-10.95,13.73s-3.55,10.54-3.55,16.76,1.18,11.8,3.55,16.76,6.02,9.53,10.95,13.73l-3.33,3.11Z"/>
      <path d="m753.46,266.29c-4.69,0-8.46-1.64-11.32-4.92-2.86-3.28-4.29-7.91-4.29-13.88,0-3.9.78-7.26,2.33-10.1,1.55-2.84,3.58-5.02,6.07-6.55,2.49-1.53,5.14-2.29,7.96-2.29,2.17,0,4.12.41,5.85,1.22,1.73.81,3.35,1.96,4.88,3.44h.22l-.3-6.66v-13.84h6.07v52.69h-5.03l-.52-4.74h-.22c-1.48,1.53-3.24,2.85-5.29,3.96-2.05,1.11-4.18,1.67-6.4,1.67Zm1.26-5.11c3.55,0,6.93-1.8,10.14-5.4v-17.91c-1.63-1.53-3.22-2.61-4.77-3.26-1.55-.64-3.12-.96-4.7-.96-2.07,0-3.96.58-5.66,1.74-1.7,1.16-3.06,2.76-4.07,4.81-1.01,2.05-1.52,4.45-1.52,7.21,0,4.29.94,7.66,2.81,10.1,1.87,2.44,4.46,3.66,7.77,3.66Z"/>
      <path d="m802.22,266.29c-3.6,0-6.87-.74-9.8-2.22-2.94-1.48-5.27-3.64-6.99-6.48-1.73-2.84-2.59-6.25-2.59-10.25s.86-7.25,2.59-10.06c1.73-2.81,3.98-4.97,6.77-6.48,2.79-1.5,5.78-2.26,8.99-2.26,5.18,0,9.21,1.54,12.1,4.62,2.89,3.08,4.33,7.17,4.33,12.25,0,.69-.03,1.36-.07,2-.05.64-.12,1.21-.22,1.7h-28.34c.39,4.05,1.89,7.1,4.48,9.18,2.59,2.07,5.76,3.11,9.51,3.11,2.17,0,4.13-.31,5.88-.92,1.75-.62,3.44-1.44,5.07-2.48l2.22,4c-1.78,1.18-3.81,2.2-6.11,3.03-2.29.84-4.9,1.26-7.81,1.26Zm-.89-32.93c-2.96,0-5.6.95-7.92,2.85-2.32,1.9-3.75,4.62-4.29,8.18h22.94c-.25-3.7-1.33-6.46-3.26-8.29-1.92-1.82-4.42-2.74-7.47-2.74Z"/>
      <path d="m840.11,265.4v-31.01h-10.29v-4.59l10.29-.37v-3.03c0-4.39,1.18-7.92,3.55-10.58s6.02-4,10.95-4c3.55,0,7,.69,10.36,2.07l-1.41,4.59c-1.48-.69-2.85-1.15-4.11-1.37-1.26-.22-2.68-.33-4.25-.33-3.21,0-5.53.84-6.96,2.52-1.43,1.68-2.15,3.97-2.15,6.88v3.26h15.1v4.96h-15.1v31.01h-5.99Z"/>
      <path d="m884.8,266.29c-2.22,0-4.25-.41-6.11-1.22-1.85-.81-3.33-1.99-4.44-3.52-1.11-1.53-1.67-3.35-1.67-5.48,0-2.71.88-4.97,2.63-6.77,1.75-1.8,4.55-3.24,8.4-4.33,3.85-1.08,8.86-1.87,15.02-2.37-.05-1.63-.38-3.12-1-4.48-.62-1.36-1.62-2.45-3-3.29-1.38-.84-3.23-1.26-5.55-1.26s-4.58.46-6.77,1.37c-2.2.91-4.13,1.89-5.81,2.92l-2.37-4.14c1.83-1.18,4.16-2.34,6.99-3.48,2.84-1.13,5.83-1.7,8.99-1.7,4.93,0,8.6,1.34,10.99,4.03,2.39,2.69,3.59,6.28,3.59,10.77v22.05h-4.96l-.52-4.88h-.22c-1.97,1.53-4.19,2.87-6.66,4.03-2.47,1.16-4.98,1.74-7.55,1.74Zm1.63-4.88c2.02,0,4.06-.47,6.1-1.41,2.05-.94,4.08-2.24,6.11-3.92v-9.47c-5.13.4-9.16,1-12.1,1.81-2.94.81-5.01,1.83-6.22,3.03-1.21,1.21-1.81,2.6-1.81,4.18,0,2.02.8,3.49,2.41,4.4,1.6.91,3.44,1.37,5.51,1.37Z"/>
      <path d="m929.2,266.29c-4.29,0-7.45-1.23-9.47-3.7-2.02-2.47-3.03-6.07-3.03-10.8v-22.35h6.14v21.53c0,3.4.63,5.93,1.89,7.58,1.26,1.65,3.39,2.48,6.4,2.48,2.07,0,3.96-.53,5.66-1.59,1.7-1.06,3.54-2.75,5.51-5.07v-24.94h6.07v35.96h-4.96l-.52-6.29h-.3c-1.83,2.12-3.82,3.85-5.99,5.18s-4.64,2-7.4,2Z"/>
      <path d="m985.52,266.29c-3.8,0-6.72-1.1-8.77-3.29-2.05-2.19-3.07-5.41-3.07-9.66v-35.67h-12.8v-4.96h18.87v41.07c0,2.62.65,4.51,1.96,5.7,1.31,1.18,3.02,1.78,5.14,1.78s4.37-.54,6.73-1.63l1.55,4.51c-1.68.69-3.21,1.22-4.59,1.59-1.38.37-3.06.55-5.03.55Z"/>
      <path d="m1028.95,266.29c-3.5,0-6.27-.63-8.29-1.89-2.02-1.26-3.47-3-4.33-5.22-.86-2.22-1.29-4.81-1.29-7.77v-17.02h-10.14v-4.59l10.36-.37.81-11.54h5.03v11.54h17.69v4.96h-17.69v17.09c0,3.21.65,5.65,1.96,7.33,1.31,1.68,3.69,2.52,7.14,2.52,1.73,0,3.28-.15,4.66-.44,1.38-.3,2.71-.69,4-1.18l1.33,4.44c-1.63.59-3.34,1.1-5.14,1.52s-3.84.63-6.1.63Z"/>
      <path d="m1056.56,278.42l-3.33-3.11c4.98-4.19,8.64-8.77,10.99-13.73,2.34-4.96,3.52-10.54,3.52-16.76s-1.17-11.8-3.52-16.76c-2.34-4.96-6.01-9.53-10.99-13.73l3.33-3.11c5.13,4,9.19,8.81,12.17,14.43,2.98,5.62,4.48,12.01,4.48,19.17s-1.49,13.54-4.48,19.17c-2.99,5.62-7.04,10.43-12.17,14.43Z"/>
      <path d="m1095.85,276.65v-3.48h15.61v-56.68h-15.61v-3.48h20.5v63.64h-20.5Z"/>
    </g>
  </g>
  <g>
    <ellipse class="cls-3" cx="1399.46" cy="479.16" rx="33.87" ry="20.84"/>
    <ellipse class="cls-3" cx="1483.78" cy="478.69" rx="27.94" ry="17.19"/>
    <ellipse class="cls-3" cx="1552.37" cy="479.04" rx="18.65" ry="11.48"/>
  </g>
</svg>