<?xml version="1.0" encoding="utf-8"?>
<!-- Generator: Adobe Illustrator 27.1.1, SVG Export Plug-In . SVG Version: 6.00 Build 0)  -->
<svg version="1.1" id="Layer_1" xmlns="http://www.w3.org/2000/svg" xmlns:xlink="http://www.w3.org/1999/xlink" x="0px" y="0px"
	 viewBox="0 0 1600 500" style="enable-background:new 0 0 1600 500;" xml:space="preserve">
<style type="text/css">
	.st0{fill-rule:evenodd;clip-rule:evenodd;fill:#D7B6FA;}
	.st1{fill-rule:evenodd;clip-rule:evenodd;fill:#BA81F9;}
	.st2{fill:#BA81F9;}
	.st3{fill:#EAD9FC;}
	.st4{fill-rule:evenodd;clip-rule:evenodd;fill:#FFFFFF;}
</style>
<g>
	<g>
		<g>
			<g>
				<path class="st0" d="M1600,24.8v428.5c0,8.3-4.1,15.7-10.3,20.2c-2.4,1.7-5.8,0.9-6.9-1.9c-3.9-9.7-16.4-16.8-31.2-16.8
					c-9.5,0-18,2.9-23.9,7.6c-1.9,1.5-4.6,1.3-6.2-0.6c-7.7-8.7-21.2-14.5-36.7-14.5c-13.9,0-26.4,4.7-34.3,12
					c-1.8,1.7-4.7,1.5-6.4-0.3c-9.3-10.1-25.8-16.8-44.6-16.8c-27.1,0-49.3,13.9-52.4,31.7c-0.4,2.4-2.5,4.1-4.9,4.1l-1317.2,0
					C11.1,478.2,0,467.1,0,453.4V24.8C0,11.1,11.1,0,24.8,0h1550.3C1588.9,0,1600,11.1,1600,24.8z"/>
			</g>
			<g>
				<ellipse class="st1" cx="1399.5" cy="479.2" rx="33.9" ry="20.8"/>
				<ellipse class="st1" cx="1483.8" cy="478.7" rx="27.9" ry="17.2"/>
				<ellipse class="st1" cx="1552.4" cy="479" rx="18.6" ry="11.5"/>
			</g>
		</g>
	</g>
	<path class="st2" d="M1600,395.5v57.8c0,8.3-4.1,15.7-10.4,20.2c-2.4,1.7-5.8,0.9-6.9-1.9c-3.9-9.7-16.4-16.8-31.2-16.8
		c-9.5,0-18,2.9-23.9,7.5c-1.9,1.5-4.6,1.2-6.2-0.6c-7.7-8.7-21.2-14.5-36.7-14.5c-13.9,0-26.4,4.7-34.3,12
		c-1.8,1.7-4.7,1.6-6.4-0.3c-9.3-10.1-25.8-16.8-44.6-16.8c-27.1,0-49.3,13.9-52.4,31.7c-0.4,2.4-2.5,4.1-4.9,4.1l-1317.2,0
		C11.1,478.2,0,467.1,0,453.4V306.4c0,0,282.7,89,465.5,88.9C755,395.2,1180.6,268.7,1600,395.5z"/>
	<path class="st3" d="M0,21.3l0,58.6C526.8,31,864.3,217.9,1600,76V21.3c0-11.8-11.1-21.3-24.8-21.3L24.8,0C11.1,0,0,9.5,0,21.3z"/>
	<g>
		<g>
			<path class="st4" d="M1098.7,321.9H501.3c-15.9,0-28.8-12.9-28.8-28.8V181.9c0-15.9,12.9-28.8,28.8-28.8h597.5
				c15.9,0,28.8,12.9,28.8,28.8v111.2C1127.5,309,1114.6,321.9,1098.7,321.9z"/>
		</g>
		<g>
			<path d="M614.8,265.4v-37.2h-20.1v-6h27.4v43.2H614.8z M617.7,213.2c-1.7,0-3.1-0.5-4.2-1.6c-1.1-1-1.7-2.4-1.7-4.1
				c0-1.7,0.6-3.1,1.7-4.1c1.1-1,2.5-1.6,4.2-1.6c1.7,0,3,0.5,4.2,1.6c1.1,1,1.7,2.4,1.7,4.1c0,1.7-0.6,3.1-1.7,4.1
				C620.7,212.6,619.3,213.2,617.7,213.2z"/>
			<path d="M648.3,265.4v-43.2h6l0.6,7.4h0.4c2.2-2.4,4.7-4.4,7.3-6c2.6-1.6,5.6-2.4,9-2.4c5.1,0,8.9,1.5,11.3,4.4
				c2.4,3,3.6,7.3,3.6,13v26.8h-7.3v-25.9c0-4.1-0.8-7.1-2.3-9.1c-1.5-2-4.1-3-7.6-3c-2.5,0-4.8,0.7-6.8,2c-2,1.3-4.3,3.3-6.8,5.9
				v30.1H648.3z"/>
			<path d="M702.8,265.4v-63.3h7.3V245h0.4l23.3-22.7h8.4l-17.2,17l19.5,26.2h-8.2l-15.9-21.8l-10.2,10v11.7H702.8z"/>
			<path d="M773.3,234.7c-2,0-3.7-0.7-5.1-2.1c-1.4-1.4-2.1-3.2-2.1-5.4c0-2.3,0.7-4.1,2.1-5.5c1.4-1.4,3.1-2.1,5.1-2.1
				c2,0,3.7,0.7,5.1,2.1c1.4,1.4,2.1,3.2,2.1,5.5c0,2.2-0.7,4-2.1,5.4C777.1,234,775.4,234.7,773.3,234.7z M773.3,266.5
				c-2,0-3.7-0.7-5.1-2.1c-1.4-1.4-2.1-3.2-2.1-5.4c0-2.2,0.7-4.1,2.1-5.5c1.4-1.4,3.1-2.1,5.1-2.1c2,0,3.7,0.7,5.1,2.1
				c1.4,1.4,2.1,3.2,2.1,5.5c0,2.2-0.7,4-2.1,5.4S775.4,266.5,773.3,266.5z"/>
			<path d="M826.7,234.7c-2,0-3.7-0.7-5.1-2.1c-1.4-1.4-2.1-3.2-2.1-5.4c0-2.3,0.7-4.1,2.1-5.5c1.4-1.4,3.1-2.1,5.1-2.1
				c2,0,3.7,0.7,5.1,2.1c1.4,1.4,2.1,3.2,2.1,5.5c0,2.2-0.7,4-2.1,5.4C830.4,234,828.7,234.7,826.7,234.7z M826.7,266.5
				c-2,0-3.7-0.7-5.1-2.1c-1.4-1.4-2.1-3.2-2.1-5.4c0-2.2,0.7-4.1,2.1-5.5c1.4-1.4,3.1-2.1,5.1-2.1c2,0,3.7,0.7,5.1,2.1
				c1.4,1.4,2.1,3.2,2.1,5.5c0,2.2-0.7,4-2.1,5.4S828.7,266.5,826.7,266.5z"/>
			<path d="M882.6,266.5c-4.3,0-8.2-0.9-11.8-2.7c-3.5-1.8-6.3-4.4-8.4-7.8c-2.1-3.4-3.1-7.5-3.1-12.3c0-4.7,1-8.7,3.1-12.1
				c2.1-3.4,4.8-6,8.1-7.8c3.3-1.8,6.9-2.7,10.8-2.7c6.2,0,11.1,1.9,14.5,5.6c3.5,3.7,5.2,8.6,5.2,14.7c0,0.8,0,1.6-0.1,2.4
				c-0.1,0.8-0.1,1.5-0.3,2h-34c0.5,4.9,2.3,8.5,5.4,11c3.1,2.5,6.9,3.7,11.4,3.7c2.6,0,5-0.4,7.1-1.1c2.1-0.7,4.1-1.7,6.1-3
				l2.7,4.8c-2.1,1.4-4.6,2.6-7.3,3.6C889.3,266,886.1,266.5,882.6,266.5z M881.6,226.9c-3.6,0-6.7,1.1-9.5,3.4
				c-2.8,2.3-4.5,5.6-5.2,9.8h27.5c-0.3-4.4-1.6-7.8-3.9-10C888.2,228,885.2,226.9,881.6,226.9z"/>
			<path d="M914.9,265.4v-43.2h6l0.6,7.4h0.4c2.2-2.4,4.7-4.4,7.3-6c2.6-1.6,5.6-2.4,9-2.4c5.1,0,8.9,1.5,11.3,4.4
				c2.4,3,3.6,7.3,3.6,13v26.8h-7.3v-25.9c0-4.1-0.8-7.1-2.3-9.1c-1.5-2-4.1-3-7.6-3c-2.5,0-4.8,0.7-6.8,2c-2,1.3-4.3,3.3-6.8,5.9
				v30.1H914.9z"/>
			<path d="M982.7,265.4l-18.2-43.2h7.4l10,24.5c0.9,2.2,1.7,4.3,2.5,6.4s1.6,4.2,2.4,6.3h0.4c0.8-2.1,1.5-4.2,2.3-6.3
				c0.7-2.1,1.6-4.2,2.4-6.4l10-24.5h7l-17.9,43.2H982.7z"/>
		</g>
	</g>
	<g>
		<ellipse class="st1" cx="1399.5" cy="479.2" rx="33.9" ry="20.8"/>
		<ellipse class="st1" cx="1483.8" cy="478.7" rx="27.9" ry="17.2"/>
		<ellipse class="st1" cx="1552.4" cy="479" rx="18.6" ry="11.5"/>
	</g>
</g>
</svg>
