<?xml version="1.0" encoding="utf-8"?>
<!-- Generator: Adobe Illustrator 27.6.1, SVG Export Plug-In . SVG Version: 6.00 Build 0)  -->
<svg version="1.1" id="Layer_1" xmlns="http://www.w3.org/2000/svg" xmlns:xlink="http://www.w3.org/1999/xlink" x="0px" y="0px"
	 viewBox="0 0 1600 500" style="enable-background:new 0 0 1600 500;" xml:space="preserve">
<style type="text/css">
	.st0{fill-rule:evenodd;clip-rule:evenodd;fill:#D7B6FA;}
	.st1{fill-rule:evenodd;clip-rule:evenodd;fill:#BA81F9;}
	.st2{fill:#BA81F9;}
	.st3{fill:#EAD9FC;}
	.st4{fill-rule:evenodd;clip-rule:evenodd;fill:#FFFFFF;}
</style>
<g>
	<g>
		<g>
			<g>
				<g>
					<path class="st0" d="M1600,24.8v428.5c0,8.3-4.1,15.7-10.3,20.2c-2.4,1.7-5.8,0.9-6.9-1.9c-3.9-9.7-16.4-16.8-31.2-16.8
						c-9.5,0-18,2.9-23.9,7.6c-1.9,1.5-4.6,1.3-6.2-0.6c-7.7-8.7-21.2-14.5-36.7-14.5c-13.9,0-26.4,4.7-34.3,12
						c-1.8,1.7-4.7,1.5-6.4-0.3c-9.3-10.1-25.8-16.8-44.6-16.8c-27.1,0-49.3,13.9-52.4,31.7c-0.4,2.4-2.5,4.1-4.9,4.1l-1317.2,0
						C11.1,478.2,0,467.1,0,453.4V24.8C0,11.1,11.1,0,24.8,0h1550.3C1588.9,0,1600,11.1,1600,24.8z"/>
				</g>
			</g>
			<g>
				<g>
					<ellipse class="st1" cx="1399.5" cy="479.2" rx="33.9" ry="20.8"/>
				</g>
				<g>
					<ellipse class="st1" cx="1483.8" cy="478.7" rx="27.9" ry="17.2"/>
				</g>
				<g>
					<ellipse class="st1" cx="1552.4" cy="479" rx="18.6" ry="11.5"/>
				</g>
			</g>
		</g>
	</g>
	<g>
		<path class="st2" d="M1600,395.5v57.8c0,8.3-4.1,15.7-10.4,20.2c-2.4,1.7-5.8,0.9-6.9-1.9c-3.9-9.7-16.4-16.8-31.2-16.8
			c-9.5,0-18,2.9-23.9,7.5c-1.9,1.5-4.6,1.2-6.2-0.6c-7.7-8.7-21.2-14.5-36.7-14.5c-13.9,0-26.4,4.7-34.3,12
			c-1.8,1.7-4.7,1.6-6.4-0.3c-9.3-10.1-25.8-16.8-44.6-16.8c-27.1,0-49.3,13.9-52.4,31.7c-0.4,2.4-2.5,4.1-4.9,4.1l-1317.2,0
			C11.1,478.2,0,467.1,0,453.4V306.4c0,0,282.7,89,465.5,88.9C755,395.2,1180.6,268.7,1600,395.5z"/>
	</g>
	<g>
		<path class="st3" d="M0,21.3l0,58.6C526.8,31,864.3,217.9,1600,76V21.3c0-11.8-11.1-21.3-24.8-21.3L24.8,0C11.1,0,0,9.5,0,21.3z"
			/>
	</g>
	<g>
		<g>
			<path class="st4" d="M1118.5,321.9h-637c-16.4,0-29.7-13.3-29.7-29.7V182.8c0-16.4,13.3-29.7,29.7-29.7h637
				c16.4,0,29.7,13.3,29.7,29.7v109.4C1148.2,308.6,1134.9,321.9,1118.5,321.9z"/>
		</g>
		<g>
			<path d="M550.3,213h20.5v3.5h-15.6v56.7h15.6v3.5h-20.5V213z"/>
			<path d="M601.3,234.4h-16.7v-5h22.8v36h-6.1V234.4z M598.9,217.1c0-2.8,2.1-4.7,4.9-4.7s4.9,1.9,4.9,4.7c0,2.9-2.1,4.7-4.9,4.7
				S598.9,220,598.9,217.1z"/>
			<path d="M629.3,229.4h5l0.5,6.1h0.3c3.8-3.9,7.9-7,13.5-7c8.5,0,12.4,5,12.4,14.5v22.4H655v-21.5c0-6.8-2.4-10-8.2-10
				c-4.3,0-7.2,2.1-11.3,6.4v25.1h-6.1V229.4z"/>
			<path d="M674.6,212.7h6.1v35.6h0.3l19.3-18.9h7l-26.6,26.2v9.8h-6.1V212.7z M688.4,246.3l3.7-4l17.2,23.1h-6.8L688.4,246.3z"/>
			<path d="M727.4,233.5c0-3.7,2.7-6.3,6-6.3c3.3,0,6,2.6,6,6.3c0,3.8-2.7,6.3-6,6.3C730.1,239.8,727.4,237.3,727.4,233.5z
				 M727.4,260c0-3.7,2.7-6.3,6-6.3c3.3,0,6,2.6,6,6.3c0,3.8-2.7,6.3-6,6.3C730.1,266.3,727.4,263.8,727.4,260z"/>
			<path d="M771.8,233.5c0-3.7,2.7-6.3,6-6.3c3.3,0,6,2.6,6,6.3c0,3.8-2.7,6.3-6,6.3C774.5,239.8,771.8,237.3,771.8,233.5z
				 M771.8,260c0-3.7,2.7-6.3,6-6.3c3.3,0,6,2.6,6,6.3c0,3.8-2.7,6.3-6,6.3C774.5,266.3,771.8,263.8,771.8,260z"/>
			<path d="M805,247.3c0-11.7,8.7-18.8,18.4-18.8c10.4,0,16.4,6.7,16.4,16.9c0,1.4-0.1,2.7-0.3,3.7h-30.4v-4.7h26.8l-1.6,1.7
				c0-8.5-4.2-12.7-10.8-12.7c-6.7,0-12.4,5-12.4,14c0,9.3,6.1,14.1,14.1,14.1c4.3,0,7.7-1.3,11-3.4l2.2,4
				c-3.6,2.4-8.1,4.3-13.9,4.3C813.6,266.3,805,259.3,805,247.3z"/>
			<path d="M848.1,229.4h6.3l8.3,20.4c1.4,3.6,2.7,7.2,4,10.7h0.3c1.3-3.5,2.4-7,3.9-10.7l8.3-20.4h5.9l-14.9,36h-6.9L848.1,229.4z"
				/>
			<path d="M893.8,247.3c0-11.7,8.7-18.8,18.4-18.8c10.4,0,16.4,6.7,16.4,16.9c0,1.4-0.1,2.7-0.3,3.7h-30.4v-4.7h26.8l-1.6,1.7
				c0-8.5-4.2-12.7-10.8-12.7c-6.7,0-12.4,5-12.4,14c0,9.3,6.1,14.1,14.1,14.1c4.3,0,7.7-1.3,11-3.4l2.2,4
				c-3.6,2.4-8.1,4.3-13.9,4.3C902.4,266.3,893.8,259.3,893.8,247.3z"/>
			<path d="M940.1,229.4h5l0.5,6.1h0.3c3.8-3.9,7.9-7,13.5-7c8.5,0,12.4,5,12.4,14.5v22.4h-6.1v-21.5c0-6.8-2.4-10-8.2-10
				c-4.3,0-7.2,2.1-11.3,6.4v25.1h-6.1V229.4z"/>
			<path d="M992.8,251.4v-17h-10.2v-4.6l10.4-0.4l0.8-11.5h5.1v11.5h17.6v5H999v17.1c0,6.4,2.1,9.8,9.1,9.8c3.3,0,6-0.7,8.6-1.6
				l1.3,4.5c-3.3,1.2-6.7,2.1-11.2,2.1C996.2,266.3,992.8,260.3,992.8,251.4z"/>
			<path d="M1029.3,273.2h15.6v-56.7h-15.6V213h20.5v63.6h-20.5V273.2z"/>
		</g>
	</g>
	<g>
		<g>
			<ellipse class="st1" cx="1399.5" cy="479.2" rx="33.9" ry="20.8"/>
		</g>
		<g>
			<ellipse class="st1" cx="1483.8" cy="478.7" rx="27.9" ry="17.2"/>
		</g>
		<g>
			<ellipse class="st1" cx="1552.4" cy="479" rx="18.6" ry="11.5"/>
		</g>
	</g>
</g>
</svg>
