<?xml version="1.0" encoding="utf-8"?>
<!-- Generator: Adobe Illustrator 27.1.1, SVG Export Plug-In . SVG Version: 6.00 Build 0)  -->
<svg version="1.1" id="Layer_1" xmlns="http://www.w3.org/2000/svg" xmlns:xlink="http://www.w3.org/1999/xlink" x="0px" y="0px"
	 viewBox="0 0 1600 500" style="enable-background:new 0 0 1600 500;" xml:space="preserve">
<style type="text/css">
	.st0{fill-rule:evenodd;clip-rule:evenodd;fill:#D7B6FA;}
	.st1{fill-rule:evenodd;clip-rule:evenodd;fill:#BA81F9;}
	.st2{fill:#BA81F9;}
	.st3{fill:#EAD9FC;}
	.st4{fill-rule:evenodd;clip-rule:evenodd;fill:#FFFFFF;}
</style>
<g>
	<g>
		<g>
			<g>
				<path class="st0" d="M1600,24.8v428.5c0,8.3-4.1,15.7-10.3,20.2c-2.4,1.7-5.8,0.9-6.9-1.9c-3.9-9.7-16.4-16.8-31.2-16.8
					c-9.5,0-18,2.9-23.9,7.6c-1.9,1.5-4.6,1.3-6.2-0.6c-7.7-8.7-21.2-14.5-36.7-14.5c-13.9,0-26.4,4.7-34.3,12
					c-1.8,1.7-4.7,1.5-6.4-0.3c-9.3-10.1-25.8-16.8-44.6-16.8c-27.1,0-49.3,13.9-52.4,31.7c-0.4,2.4-2.5,4.1-4.9,4.1l-1317.2,0
					C11.1,478.2,0,467.1,0,453.4V24.8C0,11.1,11.1,0,24.8,0h1550.3C1588.9,0,1600,11.1,1600,24.8z"/>
			</g>
			<g>
				<ellipse class="st1" cx="1399.5" cy="479.2" rx="33.9" ry="20.8"/>
				<ellipse class="st1" cx="1483.8" cy="478.7" rx="27.9" ry="17.2"/>
				<ellipse class="st1" cx="1552.4" cy="479" rx="18.6" ry="11.5"/>
			</g>
		</g>
	</g>
	<path class="st2" d="M1600,395.5v57.8c0,8.3-4.1,15.7-10.4,20.2c-2.4,1.7-5.8,0.9-6.9-1.9c-3.9-9.7-16.4-16.8-31.2-16.8
		c-9.5,0-18,2.9-23.9,7.5c-1.9,1.5-4.6,1.2-6.2-0.6c-7.7-8.7-21.2-14.5-36.7-14.5c-13.9,0-26.4,4.7-34.3,12
		c-1.8,1.7-4.7,1.6-6.4-0.3c-9.3-10.1-25.8-16.8-44.6-16.8c-27.1,0-49.3,13.9-52.4,31.7c-0.4,2.4-2.5,4.1-4.9,4.1l-1317.2,0
		C11.1,478.2,0,467.1,0,453.4V306.4c0,0,282.7,89,465.5,88.9C755,395.2,1180.6,268.7,1600,395.5z"/>
	<path class="st3" d="M0,21.3l0,58.6C526.8,31,864.3,217.9,1600,76V21.3c0-11.8-11.1-21.3-24.8-21.3L24.8,0C11.1,0,0,9.5,0,21.3z"/>
	<g>
		<g>
			<path class="st4" d="M1327.8,321.9H272.2c-20.9,0-37.8-16.9-37.8-37.8V191c0-20.9,16.9-37.8,37.8-37.8h1055.5
				c20.9,0,37.8,16.9,37.8,37.8V284C1365.6,304.9,1348.7,321.9,1327.8,321.9z"/>
		</g>
		<g>
			<path d="M299.9,265.4l1.9-15.1h-5.9v-4.2h6.4l1.3-11h-6.3v-4.3h6.8l1.7-13.5h3.9l-1.6,13.5h9.8l1.7-13.5h3.9l-1.6,13.5h5.9v4.3
				h-6.4l-1.3,11h6.3v4.2h-6.8l-1.9,15.1h-4l1.8-15.1h-9.8l-1.8,15.1H299.9z M306.3,246.1h9.8l1.3-11h-9.8L306.3,246.1z"/>
			<path d="M350.5,276.6V213H371v3.5h-15.6v56.7H371v3.5H350.5z"/>
			<path d="M401.6,265.4v-31h-16.7v-5h22.8v36H401.6z M404,221.9c-1.4,0-2.5-0.4-3.5-1.3c-0.9-0.9-1.4-2-1.4-3.4
				c0-1.4,0.5-2.6,1.4-3.4c0.9-0.9,2.1-1.3,3.5-1.3c1.4,0,2.5,0.4,3.5,1.3c0.9,0.9,1.4,2,1.4,3.4c0,1.4-0.5,2.6-1.4,3.4
				C406.5,221.5,405.3,221.9,404,221.9z"/>
			<path d="M429.5,265.4v-36h5l0.5,6.1h0.3c1.9-2,3.9-3.7,6.1-5c2.2-1.3,4.7-2,7.5-2c4.2,0,7.4,1.2,9.4,3.7c2,2.5,3,6.1,3,10.8v22.3
				h-6.1v-21.5c0-3.4-0.6-5.9-1.9-7.6c-1.3-1.7-3.4-2.5-6.4-2.5c-2.1,0-4,0.5-5.7,1.6c-1.7,1.1-3.6,2.7-5.7,4.9v25.1H429.5z"/>
			<path d="M474.9,265.4v-52.7h6.1v35.7h0.3l19.4-18.9h7l-14.4,14.1l16.3,21.8h-6.8l-13.2-18.1l-8.5,8.4v9.8H474.9z"/>
			<path d="M543.4,278.4c-5.1-4-9.2-8.8-12.2-14.4c-3-5.6-4.5-12-4.5-19.2c0-7.2,1.5-13.5,4.5-19.2c3-5.6,7-10.4,12.2-14.4l3.3,3.1
				c-4.9,4.2-8.6,8.8-11,13.7s-3.6,10.5-3.6,16.8c0,6.2,1.2,11.8,3.6,16.8s6,9.5,11,13.7L543.4,278.4z"/>
			<path d="M562.7,265.4v-36h5l0.5,6.1h0.3c1.9-2,3.9-3.7,6.1-5c2.2-1.3,4.7-2,7.5-2c4.2,0,7.4,1.2,9.4,3.7c2,2.5,3,6.1,3,10.8v22.3
				h-6.1v-21.5c0-3.4-0.6-5.9-1.9-7.6c-1.3-1.7-3.4-2.5-6.4-2.5c-2.1,0-4,0.5-5.7,1.6c-1.7,1.1-3.6,2.7-5.7,4.9v25.1H562.7z"/>
			<path d="M618.4,266.3c-2.2,0-4.3-0.4-6.1-1.2c-1.8-0.8-3.3-2-4.4-3.5c-1.1-1.5-1.7-3.4-1.7-5.5c0-2.7,0.9-5,2.6-6.8
				c1.8-1.8,4.6-3.2,8.4-4.3c3.8-1.1,8.9-1.9,15-2.4c0-1.6-0.4-3.1-1-4.5c-0.6-1.4-1.6-2.5-3-3.3c-1.4-0.8-3.2-1.3-5.5-1.3
				c-2.3,0-4.6,0.5-6.8,1.4c-2.2,0.9-4.1,1.9-5.8,2.9l-2.4-4.1c1.8-1.2,4.2-2.3,7-3.5c2.8-1.1,5.8-1.7,9-1.7c4.9,0,8.6,1.3,11,4
				c2.4,2.7,3.6,6.3,3.6,10.8v22.1h-5l-0.5-4.9h-0.2c-2,1.5-4.2,2.9-6.7,4C623.5,265.7,621,266.3,618.4,266.3z M620,261.4
				c2,0,4.1-0.5,6.1-1.4c2-0.9,4.1-2.2,6.1-3.9v-9.5c-5.1,0.4-9.2,1-12.1,1.8c-2.9,0.8-5,1.8-6.2,3c-1.2,1.2-1.8,2.6-1.8,4.2
				c0,2,0.8,3.5,2.4,4.4C616.1,260.9,618,261.4,620,261.4z"/>
			<path d="M648.9,265.4v-36h4.9l0.5,4.7h0.1c0.9-1.7,2-3,3.3-4.1c1.2-1,2.9-1.6,5-1.6c3.5,0,5.8,2.1,6.8,6.2c1-1.9,2.2-3.4,3.4-4.6
				c1.3-1.1,2.9-1.7,5-1.7c2.5,0,4.5,1,5.9,2.8c1.4,1.9,2.1,4.7,2.1,8.3v25.8h-6.1v-25.3c0-4.2-1.3-6.3-3.8-6.3
				c-1.2,0-2.3,0.5-3.1,1.4c-0.8,0.9-1.7,2.3-2.7,4.2v26h-5.6v-25.3c0-2.1-0.3-3.6-0.9-4.7c-0.6-1.1-1.5-1.6-2.8-1.6
				c-1.2,0-2.3,0.5-3.2,1.4c-0.9,0.9-1.8,2.3-2.7,4.2v26H648.9z"/>
			<path d="M713.4,266.3c-3.6,0-6.9-0.7-9.8-2.2c-2.9-1.5-5.3-3.6-7-6.5c-1.7-2.8-2.6-6.3-2.6-10.2c0-3.9,0.9-7.3,2.6-10.1
				c1.7-2.8,4-5,6.8-6.5c2.8-1.5,5.8-2.3,9-2.3c5.2,0,9.2,1.5,12.1,4.6c2.9,3.1,4.3,7.2,4.3,12.2c0,0.7,0,1.4-0.1,2
				c0,0.6-0.1,1.2-0.2,1.7h-28.3c0.4,4,1.9,7.1,4.5,9.2c2.6,2.1,5.8,3.1,9.5,3.1c2.2,0,4.1-0.3,5.9-0.9c1.8-0.6,3.4-1.4,5.1-2.5
				l2.2,4c-1.8,1.2-3.8,2.2-6.1,3C718.9,265.9,716.3,266.3,713.4,266.3z M712.5,233.4c-3,0-5.6,1-7.9,2.8c-2.3,1.9-3.8,4.6-4.3,8.2
				h22.9c-0.2-3.7-1.3-6.5-3.3-8.3C718.1,234.3,715.6,233.4,712.5,233.4z"/>
			<path d="M756.3,266.3c-3.5,0-6.8-0.6-9.8-1.7c-3.1-1.1-5.7-2.4-7.8-4l2.8-4c2.1,1.5,4.4,2.7,6.9,3.6c2.5,0.9,5.4,1.3,8.7,1.3
				c3.1,0,5.3-0.6,6.8-1.7c1.5-1.1,2.3-2.4,2.3-4c0-0.9-0.3-1.8-0.8-2.5c-0.5-0.7-1.6-1.5-3.2-2.1c-1.6-0.7-4-1.4-7.3-2
				c-4.6-1-8.1-2.3-10.5-4c-2.4-1.7-3.6-3.8-3.6-6.5c0-2.9,1.3-5.3,3.8-7.3c2.5-1.9,6.2-2.9,11.2-2.9c2.8,0,5.4,0.5,8,1.4
				c2.6,0.9,4.7,2,6.5,3.2l-3,3.9c-1.7-1.1-3.5-2-5.5-2.7c-2-0.7-4.2-1-6.5-1c-3.1,0-5.2,0.5-6.4,1.6c-1.2,1-1.8,2.2-1.8,3.6
				c0,1.5,0.8,2.7,2.5,3.6c1.7,0.8,4.3,1.7,8,2.4c4,0.8,7.1,1.8,9.2,2.8c2.1,1,3.6,2.2,4.4,3.6c0.8,1.3,1.2,2.9,1.2,4.7
				c0,1.9-0.6,3.7-1.8,5.3c-1.2,1.6-3,2.9-5.4,3.9C762.7,265.8,759.8,266.3,756.3,266.3z"/>
			<path d="M784.7,280.6v-51.1h5l0.5,4.6h0.2c1.7-1.6,3.6-2.9,5.8-3.9c2.2-1,4.4-1.6,6.6-1.6c4.8,0,8.5,1.7,11.1,5
				c2.5,3.3,3.8,7.8,3.8,13.4c0,4-0.8,7.5-2.3,10.4c-1.5,2.9-3.5,5.1-6,6.7c-2.5,1.5-5.2,2.3-8.1,2.3c-1.7,0-3.5-0.4-5.4-1.2
				c-1.9-0.8-3.7-2-5.3-3.4h-0.2l0.3,6.8v12.1H784.7z M800.4,261.2c3.2,0,5.9-1.3,8-3.8c2.1-2.5,3.1-6,3.1-10.5
				c0-3.9-0.8-7.1-2.4-9.6c-1.6-2.4-4.2-3.7-7.8-3.7c-1.6,0-3.3,0.4-5.1,1.3c-1.8,0.9-3.6,2.2-5.5,4.1V257c1.7,1.5,3.5,2.6,5.2,3.3
				C797.7,260.9,799.1,261.2,800.4,261.2z"/>
			<path d="M840.4,266.3c-2.2,0-4.3-0.4-6.1-1.2c-1.8-0.8-3.3-2-4.4-3.5c-1.1-1.5-1.7-3.4-1.7-5.5c0-2.7,0.9-5,2.6-6.8
				c1.8-1.8,4.6-3.2,8.4-4.3c3.8-1.1,8.9-1.9,15-2.4c0-1.6-0.4-3.1-1-4.5c-0.6-1.4-1.6-2.5-3-3.3c-1.4-0.8-3.2-1.3-5.5-1.3
				c-2.3,0-4.6,0.5-6.8,1.4c-2.2,0.9-4.1,1.9-5.8,2.9l-2.4-4.1c1.8-1.2,4.2-2.3,7-3.5c2.8-1.1,5.8-1.7,9-1.7c4.9,0,8.6,1.3,11,4
				c2.4,2.7,3.6,6.3,3.6,10.8v22.1h-5l-0.5-4.9h-0.2c-2,1.5-4.2,2.9-6.7,4C845.5,265.7,843,266.3,840.4,266.3z M842,261.4
				c2,0,4.1-0.5,6.1-1.4c2-0.9,4.1-2.2,6.1-3.9v-9.5c-5.1,0.4-9.2,1-12.1,1.8c-2.9,0.8-5,1.8-6.2,3c-1.2,1.2-1.8,2.6-1.8,4.2
				c0,2,0.8,3.5,2.4,4.4C838.1,260.9,840,261.4,842,261.4z"/>
			<path d="M892.2,266.3c-3.7,0-7.1-0.7-10.1-2.2c-3-1.5-5.3-3.6-7-6.4c-1.7-2.8-2.6-6.2-2.6-10.1c0-4,0.9-7.5,2.7-10.3
				c1.8-2.8,4.3-5,7.3-6.4c3.1-1.5,6.4-2.2,10-2.2c2.9,0,5.5,0.5,7.6,1.6c2.2,1,4,2.3,5.5,3.7l-3,3.9c-1.5-1.3-3-2.3-4.6-3
				c-1.6-0.7-3.3-1.1-5.2-1.1c-2.8,0-5.2,0.6-7.3,1.7c-2.1,1.2-3.7,2.8-4.9,4.9c-1.2,2.1-1.8,4.5-1.8,7.3c0,2.7,0.6,5.1,1.7,7.2
				c1.2,2.1,2.8,3.7,4.8,4.8s4.5,1.7,7.3,1.7c2.2,0,4.3-0.4,6.1-1.3c1.8-0.9,3.5-1.9,5-3.2l2.7,3.9c-2,1.8-4.2,3.2-6.6,4.1
				C897.4,265.8,894.9,266.3,892.2,266.3z"/>
			<path d="M935.4,266.3c-3.6,0-6.9-0.7-9.8-2.2c-2.9-1.5-5.3-3.6-7-6.5c-1.7-2.8-2.6-6.3-2.6-10.2c0-3.9,0.9-7.3,2.6-10.1
				c1.7-2.8,4-5,6.8-6.5c2.8-1.5,5.8-2.3,9-2.3c5.2,0,9.2,1.5,12.1,4.6c2.9,3.1,4.3,7.2,4.3,12.2c0,0.7,0,1.4-0.1,2
				c0,0.6-0.1,1.2-0.2,1.7h-28.3c0.4,4,1.9,7.1,4.5,9.2c2.6,2.1,5.8,3.1,9.5,3.1c2.2,0,4.1-0.3,5.9-0.9c1.8-0.6,3.4-1.4,5.1-2.5
				l2.2,4c-1.8,1.2-3.8,2.2-6.1,3C940.9,265.9,938.3,266.3,935.4,266.3z M934.5,233.4c-3,0-5.6,1-7.9,2.8c-2.3,1.9-3.8,4.6-4.3,8.2
				h22.9c-0.2-3.7-1.3-6.5-3.3-8.3C940.1,234.3,937.6,233.4,934.5,233.4z"/>
			<path d="M1006.1,235.4v-4.6h31.8v4.6H1006.1z M1006.1,251.2v-4.6h31.8v4.6H1006.1z"/>
			<path d="M1100.2,239.4l-1.9-16.7l-0.1-8.1h8.1l-0.1,8.1l-1.9,16.7H1100.2z M1117.2,239.4l-1.8-16.7l-0.1-8.1h8.1l-0.1,8.1
				l-1.8,16.7H1117.2z"/>
			<path d="M1140.5,266.3c-1.4,0-2.7-0.5-3.7-1.6c-1-1-1.5-2.4-1.5-4c0-1.7,0.5-3,1.5-4c1-1,2.2-1.5,3.7-1.5c1.4,0,2.6,0.5,3.6,1.5
				c1,1,1.5,2.4,1.5,4c0,1.6-0.5,3-1.5,4C1143.2,265.8,1142,266.3,1140.5,266.3z M1155.2,266.3c-1.4,0-2.7-0.5-3.7-1.6
				c-1-1-1.5-2.4-1.5-4c0-1.7,0.5-3,1.5-4c1-1,2.2-1.5,3.7-1.5c1.4,0,2.7,0.5,3.7,1.5c1,1,1.5,2.4,1.5,4c0,1.6-0.5,3-1.5,4
				C1157.8,265.8,1156.6,266.3,1155.2,266.3z M1169.8,266.3c-1.4,0-2.6-0.5-3.6-1.6c-1-1-1.5-2.4-1.5-4c0-1.7,0.5-3,1.5-4
				c1-1,2.2-1.5,3.6-1.5c1.4,0,2.7,0.5,3.7,1.5c1,1,1.5,2.4,1.5,4c0,1.6-0.5,3-1.5,4C1172.5,265.8,1171.3,266.3,1169.8,266.3z"/>
			<path d="M1189,239.4l-1.9-16.7l-0.1-8.1h8.1l-0.1,8.1l-1.9,16.7H1189z M1206,239.4l-1.8-16.7l-0.1-8.1h8.1l-0.1,8.1l-1.8,16.7
				H1206z"/>
			<path d="M1234.2,278.4l-3.3-3.1c5-4.2,8.6-8.8,11-13.7c2.3-5,3.5-10.5,3.5-16.8c0-6.2-1.2-11.8-3.5-16.8c-2.3-5-6-9.5-11-13.7
				l3.3-3.1c5.1,4,9.2,8.8,12.2,14.4c3,5.6,4.5,12,4.5,19.2c0,7.2-1.5,13.5-4.5,19.2C1243.3,269.6,1239.3,274.4,1234.2,278.4z"/>
			<path d="M1273.4,276.6v-3.5h15.6v-56.7h-15.6V213h20.5v63.6H1273.4z"/>
		</g>
	</g>
</g>
<g>
	<ellipse class="st1" cx="1399.5" cy="479.2" rx="33.9" ry="20.8"/>
	<ellipse class="st1" cx="1483.8" cy="478.7" rx="27.9" ry="17.2"/>
	<ellipse class="st1" cx="1552.4" cy="479" rx="18.6" ry="11.5"/>
</g>
</svg>
