<?xml version="1.0" encoding="utf-8"?>
<!-- Generator: Adobe Illustrator 27.1.1, SVG Export Plug-In . SVG Version: 6.00 Build 0)  -->
<svg version="1.1" id="Layer_1" xmlns="http://www.w3.org/2000/svg" xmlns:xlink="http://www.w3.org/1999/xlink" x="0px" y="0px"
	 viewBox="0 0 1600 500" style="enable-background:new 0 0 1600 500;" xml:space="preserve">
<style type="text/css">
	.st0{fill-rule:evenodd;clip-rule:evenodd;fill:#D7B6FA;}
	.st1{fill-rule:evenodd;clip-rule:evenodd;fill:#BA81F9;}
	.st2{fill:#BA81F9;}
	.st3{fill:#EAD9FC;}
	.st4{fill-rule:evenodd;clip-rule:evenodd;fill:#FFFFFF;}
</style>
<g>
	<g>
		<g>
			<g>
				<path class="st0" d="M1600,24.8v428.5c0,8.3-4.1,15.7-10.3,20.2c-2.4,1.7-5.8,0.9-6.9-1.9c-3.9-9.7-16.4-16.8-31.2-16.8
					c-9.5,0-18,2.9-23.9,7.6c-1.9,1.5-4.6,1.3-6.2-0.6c-7.7-8.7-21.2-14.5-36.7-14.5c-13.9,0-26.4,4.7-34.3,12
					c-1.8,1.7-4.7,1.5-6.4-0.3c-9.3-10.1-25.8-16.8-44.6-16.8c-27.1,0-49.3,13.9-52.4,31.7c-0.4,2.4-2.5,4.1-4.9,4.1l-1317.2,0
					C11.1,478.2,0,467.1,0,453.4V24.8C0,11.1,11.1,0,24.8,0h1550.3C1588.9,0,1600,11.1,1600,24.8z"/>
			</g>
			<g>
				<ellipse class="st1" cx="1399.5" cy="479.2" rx="33.9" ry="20.8"/>
				<ellipse class="st1" cx="1483.8" cy="478.7" rx="27.9" ry="17.2"/>
				<ellipse class="st1" cx="1552.4" cy="479" rx="18.6" ry="11.5"/>
			</g>
		</g>
	</g>
	<path class="st2" d="M1600,395.5v57.8c0,8.3-4.1,15.7-10.4,20.2c-2.4,1.7-5.8,0.9-6.9-1.9c-3.9-9.7-16.4-16.8-31.2-16.8
		c-9.5,0-18,2.9-23.9,7.5c-1.9,1.5-4.6,1.2-6.2-0.6c-7.7-8.7-21.2-14.5-36.7-14.5c-13.9,0-26.4,4.7-34.3,12
		c-1.8,1.7-4.7,1.6-6.4-0.3c-9.3-10.1-25.8-16.8-44.6-16.8c-27.1,0-49.3,13.9-52.4,31.7c-0.4,2.4-2.5,4.1-4.9,4.1l-1317.2,0
		C11.1,478.2,0,467.1,0,453.4V306.4c0,0,282.7,89,465.5,88.9C755,395.2,1180.6,268.7,1600,395.5z"/>
	<path class="st3" d="M0,21.3l0,58.6C526.8,31,864.3,217.9,1600,76V21.3c0-11.8-11.1-21.3-24.8-21.3L24.8,0C11.1,0,0,9.5,0,21.3z"/>
	<g>
		<g>
			<path class="st4" d="M1150.8,321.9H449.2c-17.2,0-31.1-13.9-31.1-31.1V184.2c0-17.2,13.9-31.1,31.1-31.1h701.6
				c17.2,0,31.1,13.9,31.1,31.1v106.6C1181.9,308,1168,321.9,1150.8,321.9z"/>
		</g>
		<g>
			<path d="M477.5,265.4l1.9-15.1h-5.9v-4.2h6.4l1.3-11h-6.3v-4.3h6.8l1.7-13.5h3.9l-1.6,13.5h9.8l1.7-13.5h3.9l-1.6,13.5h5.9v4.3
				H499l-1.3,11h6.3v4.2h-6.8l-1.9,15.1h-4l1.8-15.1h-9.8l-1.8,15.1H477.5z M483.9,246.1h9.8l1.3-11h-9.8L483.9,246.1z"/>
			<path d="M528.1,276.6V213h20.5v3.5h-15.6v56.7h15.6v3.5H528.1z"/>
			<path d="M579.2,265.4v-31h-16.7v-5h22.8v36H579.2z M581.6,221.9c-1.4,0-2.5-0.4-3.5-1.3c-0.9-0.9-1.4-2-1.4-3.4
				c0-1.4,0.5-2.6,1.4-3.4c0.9-0.9,2.1-1.3,3.5-1.3c1.4,0,2.5,0.4,3.5,1.3c0.9,0.9,1.4,2,1.4,3.4c0,1.4-0.5,2.6-1.4,3.4
				C584.1,221.5,582.9,221.9,581.6,221.9z"/>
			<path d="M607.1,265.4v-36h5l0.5,6.1h0.3c1.9-2,3.9-3.7,6.1-5c2.2-1.3,4.7-2,7.5-2c4.2,0,7.4,1.2,9.4,3.7c2,2.5,3,6.1,3,10.8v22.3
				h-6.1v-21.5c0-3.4-0.6-5.9-1.9-7.6c-1.3-1.7-3.4-2.5-6.4-2.5c-2.1,0-4,0.5-5.7,1.6c-1.7,1.1-3.6,2.7-5.7,4.9v25.1H607.1z"/>
			<path d="M652.4,265.4v-52.7h6.1v35.7h0.3l19.4-18.9h7l-14.4,14.1l16.3,21.8h-6.8L667,247.3l-8.5,8.4v9.8H652.4z"/>
			<path d="M721,278.4c-5.1-4-9.2-8.8-12.2-14.4c-3-5.6-4.5-12-4.5-19.2c0-7.2,1.5-13.5,4.5-19.2c3-5.6,7-10.4,12.2-14.4l3.3,3.1
				c-4.9,4.2-8.6,8.8-11,13.7s-3.6,10.5-3.6,16.8c0,6.2,1.2,11.8,3.6,16.8s6,9.5,11,13.7L721,278.4z"/>
			<path d="M740.3,280.6v-51.1h5l0.5,4.6h0.2c1.7-1.6,3.6-2.9,5.8-3.9c2.2-1,4.4-1.6,6.6-1.6c4.8,0,8.5,1.7,11.1,5
				c2.5,3.3,3.8,7.8,3.8,13.4c0,4-0.8,7.5-2.3,10.4c-1.5,2.9-3.5,5.1-6,6.7c-2.5,1.5-5.2,2.3-8.1,2.3c-1.7,0-3.5-0.4-5.4-1.2
				c-1.9-0.8-3.7-2-5.3-3.4h-0.2l0.3,6.8v12.1H740.3z M756,261.2c3.2,0,5.9-1.3,8-3.8c2.1-2.5,3.1-6,3.1-10.5c0-3.9-0.8-7.1-2.4-9.6
				c-1.6-2.4-4.2-3.7-7.8-3.7c-1.6,0-3.3,0.4-5.1,1.3c-1.8,0.9-3.6,2.2-5.5,4.1V257c1.7,1.5,3.5,2.6,5.2,3.3
				C753.3,260.9,754.7,261.2,756,261.2z"/>
			<path d="M796,266.3c-2.2,0-4.3-0.4-6.1-1.2c-1.8-0.8-3.3-2-4.4-3.5c-1.1-1.5-1.7-3.4-1.7-5.5c0-2.7,0.9-5,2.6-6.8
				c1.8-1.8,4.6-3.2,8.4-4.3c3.8-1.1,8.9-1.9,15-2.4c0-1.6-0.4-3.1-1-4.5c-0.6-1.4-1.6-2.5-3-3.3c-1.4-0.8-3.2-1.3-5.5-1.3
				c-2.3,0-4.6,0.5-6.8,1.4c-2.2,0.9-4.1,1.9-5.8,2.9l-2.4-4.1c1.8-1.2,4.2-2.3,7-3.5c2.8-1.1,5.8-1.7,9-1.7c4.9,0,8.6,1.3,11,4
				c2.4,2.7,3.6,6.3,3.6,10.8v22.1h-5l-0.5-4.9h-0.2c-2,1.5-4.2,2.9-6.7,4C801.1,265.7,798.6,266.3,796,266.3z M797.6,261.4
				c2,0,4.1-0.5,6.1-1.4c2-0.9,4.1-2.2,6.1-3.9v-9.5c-5.1,0.4-9.2,1-12.1,1.8c-2.9,0.8-5,1.8-6.2,3c-1.2,1.2-1.8,2.6-1.8,4.2
				c0,2,0.8,3.5,2.4,4.4C793.7,260.9,795.6,261.4,797.6,261.4z"/>
			<path d="M831.9,280.9c-1.8,0-3.4-0.2-4.7-0.7l1.3-4.8c0.5,0.1,1,0.3,1.6,0.4c0.6,0.1,1.1,0.1,1.7,0.1c2.5,0,4.6-0.7,6.1-2.2
				c1.6-1.5,2.8-3.3,3.7-5.5l1.1-2.7l-16.8-36h6.1l8.8,19.9c0.7,1.6,1.4,3.3,2.2,5.1c0.8,1.8,1.5,3.6,2.3,5.3h0.3
				c0.6-1.7,1.3-3.5,2-5.3c0.7-1.8,1.3-3.5,1.9-5.1l7.8-19.9h5.8l-15.8,38.9c-0.9,2.4-2,4.5-3.3,6.4c-1.3,1.9-3,3.4-4.9,4.5
				C836.9,280.3,834.6,280.9,831.9,280.9z"/>
			<path d="M884.8,266.3c-2.2,0-4.3-0.4-6.1-1.2c-1.8-0.8-3.3-2-4.4-3.5c-1.1-1.5-1.7-3.4-1.7-5.5c0-2.7,0.9-5,2.6-6.8
				c1.8-1.8,4.6-3.2,8.4-4.3c3.8-1.1,8.9-1.9,15-2.4c0-1.6-0.4-3.1-1-4.5c-0.6-1.4-1.6-2.5-3-3.3c-1.4-0.8-3.2-1.3-5.5-1.3
				c-2.3,0-4.6,0.5-6.8,1.4c-2.2,0.9-4.1,1.9-5.8,2.9l-2.4-4.1c1.8-1.2,4.2-2.3,7-3.5c2.8-1.1,5.8-1.7,9-1.7c4.9,0,8.6,1.3,11,4
				c2.4,2.7,3.6,6.3,3.6,10.8v22.1h-5l-0.5-4.9H899c-2,1.5-4.2,2.9-6.7,4C889.9,265.7,887.4,266.3,884.8,266.3z M886.4,261.4
				c2,0,4.1-0.5,6.1-1.4c2-0.9,4.1-2.2,6.1-3.9v-9.5c-5.1,0.4-9.2,1-12.1,1.8c-2.9,0.8-5,1.8-6.2,3c-1.2,1.2-1.8,2.6-1.8,4.2
				c0,2,0.8,3.5,2.4,4.4C882.5,260.9,884.4,261.4,886.4,261.4z"/>
			<path d="M934.7,266.3c-1.7,0-3.6-0.4-5.6-1.3c-2-0.9-3.9-2.1-5.6-3.6h-0.2l-0.5,4h-4.9v-52.7h6.1v14.4l-0.2,7h0.2
				c1.6-1.7,3.5-3,5.7-4c2.1-1,4.3-1.5,6.4-1.5c4.8,0,8.5,1.7,11.1,5c2.6,3.3,3.8,7.7,3.8,13.3c0,4.1-0.8,7.6-2.3,10.5
				c-1.5,2.9-3.5,5.1-6,6.7C940.2,265.5,937.5,266.3,934.7,266.3z M933.7,261.2c3.2,0,5.8-1.3,7.8-3.8c2.1-2.5,3.1-6,3.1-10.5
				c0-3.9-0.8-7.1-2.4-9.6c-1.6-2.4-4.2-3.7-7.8-3.7c-1.6,0-3.3,0.4-5.1,1.3c-1.8,0.9-3.6,2.2-5.5,4.1V257c1.7,1.5,3.5,2.6,5.2,3.3
				C930.9,260.9,932.4,261.2,933.7,261.2z"/>
			<path d="M985.5,266.3c-3.8,0-6.7-1.1-8.8-3.3s-3.1-5.4-3.1-9.7v-35.7h-12.8v-5h18.9v41.1c0,2.6,0.7,4.5,2,5.7
				c1.3,1.2,3,1.8,5.1,1.8c2.1,0,4.4-0.5,6.7-1.6l1.6,4.5c-1.7,0.7-3.2,1.2-4.6,1.6C989.2,266.1,987.5,266.3,985.5,266.3z"/>
			<path d="M1024.2,266.3c-3.6,0-6.9-0.7-9.8-2.2c-2.9-1.5-5.3-3.6-7-6.5c-1.7-2.8-2.6-6.3-2.6-10.2c0-3.9,0.9-7.3,2.6-10.1
				c1.7-2.8,4-5,6.8-6.5c2.8-1.5,5.8-2.3,9-2.3c5.2,0,9.2,1.5,12.1,4.6c2.9,3.1,4.3,7.2,4.3,12.2c0,0.7,0,1.4-0.1,2
				c0,0.6-0.1,1.2-0.2,1.7H1011c0.4,4,1.9,7.1,4.5,9.2c2.6,2.1,5.8,3.1,9.5,3.1c2.2,0,4.1-0.3,5.9-0.9c1.8-0.6,3.4-1.4,5.1-2.5
				l2.2,4c-1.8,1.2-3.8,2.2-6.1,3C1029.7,265.9,1027.1,266.3,1024.2,266.3z M1023.3,233.4c-3,0-5.6,1-7.9,2.8
				c-2.3,1.9-3.8,4.6-4.3,8.2h22.9c-0.2-3.7-1.3-6.5-3.3-8.3C1028.9,234.3,1026.4,233.4,1023.3,233.4z"/>
			<path d="M1056.6,278.4l-3.3-3.1c5-4.2,8.6-8.8,11-13.7c2.3-5,3.5-10.5,3.5-16.8c0-6.2-1.2-11.8-3.5-16.8c-2.3-5-6-9.5-11-13.7
				l3.3-3.1c5.1,4,9.2,8.8,12.2,14.4c3,5.6,4.5,12,4.5,19.2c0,7.2-1.5,13.5-4.5,19.2C1065.7,269.6,1061.7,274.4,1056.6,278.4z"/>
			<path d="M1095.8,276.6v-3.5h15.6v-56.7h-15.6V213h20.5v63.6H1095.8z"/>
		</g>
	</g>
	<g>
		<ellipse class="st1" cx="1399.5" cy="479.2" rx="33.9" ry="20.8"/>
		<ellipse class="st1" cx="1483.8" cy="478.7" rx="27.9" ry="17.2"/>
		<ellipse class="st1" cx="1552.4" cy="479" rx="18.6" ry="11.5"/>
	</g>
</g>
</svg>
