<?xml version="1.0" encoding="UTF-8"?>
<svg id="Layer_1" data-name="Layer 1" xmlns="http://www.w3.org/2000/svg" viewBox="0 0 495.81 560.09">
  <g>
    <path d="m247.53,377.72l-45.63,11.76c-19.43,117.02,15.1,178.94,18.02,169.7s-.68-91.81,27.61-181.47Z" style="fill: #6b36a8; fill-rule: evenodd; stroke-width: 0px;"/>
    <ellipse cx="208.66" cy="501.32" rx="5.42" ry="10.47" transform="translate(-19.26 8.46) rotate(-2.22)" style="fill: #bc83fb; stroke-width: 0px;"/>
    <ellipse cx="208.01" cy="465.01" rx="13.72" ry="7.12" transform="translate(-272.08 635.36) rotate(-85.44)" style="fill: #bc83fb; stroke-width: 0px;"/>
    <ellipse cx="215.38" cy="420.06" rx="17.38" ry="9.06" transform="translate(-240.57 542.31) rotate(-77.86)" style="fill: #bc83fb; stroke-width: 0px;"/>
    <ellipse cx="211.55" cy="530.7" rx="3.84" ry="5.84" transform="translate(-49.18 22.35) rotate(-5.42)" style="fill: #bc83fb; stroke-width: 0px;"/>
  </g>
  <g>
    <path d="m100.24,516.08c-.09.6-.16.97-.16.97-12.38,9.67-22.21,2.23-19.69-11.7v-.03c.47-2.62,1.39-5.46,2.8-8.47,7.45-15.82,9.26-11.13,6.52-.94-1.7,6.3-2.15,11.04-.44,12.74.7.69,1.76.88,3.23.45.76-.21,1.62-.59,2.61-1.14,6.36-3.55,5.57,5.13,5.13,8.12Z" style="fill: #9e5de3; fill-rule: evenodd; stroke-width: 0px;"/>
    <path d="m232.12,354.95l-58.06-6.11c-44.28,95.48-62,129.85-86.87,163.19-5.39,7.23,2.4,12.9,12.9,5.01,18.92-14.21,49.34-41.33,80.32-86.3,48.07-69.78,51.71-75.78,51.71-75.78Z" style="fill: #6b36a8; fill-rule: evenodd; stroke-width: 0px;"/>
    <ellipse cx="140.03" cy="460.26" rx="13.63" ry="8.14" transform="translate(-323.19 330.36) rotate(-57.41)" style="fill: #bc83fb; stroke-width: 0px;"/>
    <ellipse cx="163.63" cy="421.22" rx="16.26" ry="9.69" transform="translate(-282.99 352.44) rotate(-60.02)" style="fill: #bc83fb; stroke-width: 0px;"/>
    <ellipse cx="190.08" cy="374.98" rx="19.11" ry="11.39" transform="translate(-229.71 352.22) rotate(-60.02)" style="fill: #bc83fb; stroke-width: 0px;"/>
    <ellipse cx="116.21" cy="491.47" rx="8.9" ry="6.03" transform="translate(-313.48 226.12) rotate(-45)" style="fill: #bc83fb; stroke-width: 0px;"/>
    <path d="m100.24,516.08c-.09.6-.16.97-.16.97-12.38,9.67-22.21,2.23-19.69-11.7.01,7.22,3.3,8.28,8.88,3.3.43-.39.87-.8,1.33-1.26l1.9,1.71,7.74,6.98Z" style="fill: #6b36a8; fill-rule: evenodd; stroke-width: 0px;"/>
    <ellipse cx="97.23" cy="511.37" rx="6.57" ry="4.06" transform="translate(-267.69 140.17) rotate(-33.75)" style="fill: #bc83fb; stroke-width: 0px;"/>
  </g>
  <g>
    <g>
      <path d="m424.83,230.4c-40.56,17.78-39.99,53.29-46.33,82.48-6.34,29.19-40.37,34.9-51.88-6.29l-40.82,20.03c26.51,79.71,95.45,57.75,114.21,24.01,18.77-33.75,1.43-80.83,22.12-101.53,20.7-20.7,76.42-10.44,73.56-16.64-2.86-6.21-48.51-11.85-70.87-2.05Z" style="fill: #bc83fb; fill-rule: evenodd; stroke-width: 0px;"/>
      <path d="m422.14,249.09c-13.36,13.36-10.87,37.72-12.48,62.39-12.95-9-25.99-9-31.03.81,6.21-29.07,5.93-64.24,46.21-81.89,22.35-9.81,68.01-4.16,70.86,2.05,2.86,6.21-52.87-4.05-73.56,16.65Z" style="fill: #9e5de3; fill-rule: evenodd; stroke-width: 0px;"/>
      <path d="m339.68,329.96c-.71,21.02-17.45,31.5-30.14,36.44-9.39-8.66-17.66-21.58-23.72-39.8l40.81-20.03c3.07,10.98,7.74,18.63,13.06,23.39Z" style="fill: #9e5de3; fill-rule: evenodd; stroke-width: 0px;"/>
      <path d="m425.96,245.79c-1.34,1-2.62,2.1-3.82,3.3-20.7,20.7-3.35,67.77-22.12,101.53-18.76,33.74-87.69,55.71-114.21-24.01l28.48-13.98h.01c20.21,55.91,55.91,54.81,72.19,35.14,22.32-26.96,9.62-86.31,39.47-101.99Z" style="fill: #8747cc; fill-rule: evenodd; stroke-width: 0px;"/>
    </g>
    <g>
      <path d="m393.45,364.97c-5.04,5.32-11.72,7.27-13.88,5.27s1.03-7.18,6.06-12.5c5.04-5.32,10.02-8.76,12.18-6.76,2.16,2,.68,8.67-4.36,13.99Z" style="fill: #d8b7fb; stroke-width: 0px;"/>
      <path d="m344.16,378.47c-9.34-1.29-16.39-6.82-15.92-10.58.47-3.76,8.28-4.31,17.62-3.02,9.34,1.29,16.68,3.92,16.21,7.68-.47,3.76-8.57,7.21-17.91,5.92Z" style="fill: #d8b7fb; stroke-width: 0px;"/>
      <path d="m411.16,323.2c-1.07,6.52-4.1,11.32-6.74,10.92s-2.88-5.89-1.81-12.41,3.06-11.62,5.7-11.22,3.92,6.18,2.85,12.71Z" style="fill: #d8b7fb; stroke-width: 0px;"/>
      <path d="m414.83,283.12c-.33,5.71-2.36,10.12-4.5,10.03-2.14-.1-2.78-4.79-2.46-10.5s1.5-10.28,3.64-10.18c2.14.1,3.64,4.95,3.31,10.66Z" style="fill: #d8b7fb; stroke-width: 0px;"/>
      <ellipse cx="305.96" cy="340.65" rx="11.39" ry="16.87" transform="translate(-120.8 174.73) rotate(-26.83)" style="fill: #bc83fb; stroke-width: 0px;"/>
    </g>
  </g>
  <g>
    <path d="m179.46,328.98c-12.9,75.51-49.19,109.2-79.94,108.81-24.91-.32-49.75-20.13-54.53-83.56-3-39.81.52-70.19,5.78-44.85s16.73,85.14,44.06,85.14,27.16-64.99,35.76-83.71c8.6-18.72,48.87,18.18,48.87,18.18Z" style="fill: #bc83fb; fill-rule: evenodd; stroke-width: 0px;"/>
    <path d="m76.32,383.74c-9.16-4.53-21.23-1.58-24.52,9.51-3.28-10.64-5.64-23.53-6.81-39.02-3-39.81.52-70.19,5.78-44.86,3.87,18.64,11.11,55.96,25.55,74.37Z" style="fill: #9e5de3; fill-rule: evenodd; stroke-width: 0px;"/>
    <path d="m179.46,328.98c-1.64,9.62-3.67,18.56-6.02,26.84-10.21-11.84-36.37-20.68-49.37-17.07,2.03-11.59,3.81-22.06,6.52-27.94,8.61-18.72,48.87,18.17,48.87,18.17Z" style="fill: #9e5de3; fill-rule: evenodd; stroke-width: 0px;"/>
    <path d="m179.46,328.98c-12.9,75.51-49.19,109.21-79.94,108.81-18.32-.24-36.6-11.01-46.89-41.92,19.86,45.96,95.03,32.34,106.48-82.45,10.8,6.8,20.35,15.56,20.35,15.56Z" style="fill: #8747cc; fill-rule: evenodd; stroke-width: 0px;"/>
    <g>
      <path d="m100.15,440.6c-7.62.42-14.07-2.96-14.28-6.08-.21-3.12,6.07-5.54,13.68-5.96s13.69,1.33,13.9,4.45c.21,3.12-5.69,7.17-13.3,7.59Z" style="fill: #d8b7fb; stroke-width: 0px;"/>
      <path d="m148.14,414.36c-5.4,6.42-12.78,9.11-16.48,6s-1.55-10.19,3.84-16.62c5.4-6.42,12-9.76,15.7-6.65s2.33,10.84-3.07,17.27Z" style="fill: #d8b7fb; stroke-width: 0px;"/>
      <path d="m61.6,420.82c-3.77-4.87-4.73-11.2-3.44-12.14.97-.57,3.33,3.44,7.69,8.46,4.05,4.65,7.21,8.77,5.97,9.76-1.24.99-6.46-1.2-10.23-6.07Z" style="fill: #d8b7fb; stroke-width: 0px;"/>
      <path d="m172.88,365.91c-2.89,8.72-8.97,14.55-13.57,13.02s-5.02-9.51-2.13-18.23c2.89-8.72,8-14.87,12.6-13.34,4.6,1.53,5.98,9.83,3.09,18.55Z" style="fill: #bc83fb; stroke-width: 0px;"/>
    </g>
  </g>
  <g>
    <path d="m333.6,315.79c-30.95,20.82-49.88,28.38-103.98,28.38-51.14,0-86.23-13.99-103.95-26.45-1.75-1.23-2.57-3.43-1.99-5.5,15.85-57.21,39.2-97.72,77.62-111,5.93,22.56,48.41,23.58,57.61.32,36.54,14.25,57.39,57.42,74.7,114.25Z" style="fill: #bab1fa; stroke-width: 0px;"/>
    <path d="m333.6,315.8c-4.23,2.85-8.23,5.44-12.13,7.8-.87.53-1.74,1.05-2.61,1.55-.79.47-1.59.93-2.38,1.37-1.64.93-3.26,1.82-4.89,2.66-.42.22-.84.44-1.26.64-.5.26-1.01.51-1.52.76-.26.13-.52.25-.78.37-.66.33-1.32.64-1.99.94-.02.02-.05.03-.07.03-.84.39-1.69.77-2.54,1.13-.86.38-1.73.74-2.61,1.09-17.72,7.15-37.73,10.04-71.2,10.04-19.59,0-36.83-2.05-51.63-5.29-.9-.2-1.79-.4-2.66-.6-.01,0-.02,0-.02-.01-5.31-1.23-10.3-2.61-14.96-4.11-.78-.25-1.54-.5-2.3-.76-.61-.2-1.21-.41-1.8-.62-.29-.1-.58-.2-.87-.3-.57-.21-1.14-.41-1.71-.62-.27-.1-.55-.2-.81-.3-.96-.36-1.89-.72-2.81-1.08-.92-.37-1.83-.74-2.72-1.1-.65-.28-1.29-.56-1.93-.83-.66-.29-1.32-.58-1.96-.87-.61-.28-1.22-.56-1.81-.84-6.33-2.98-11.66-6.09-15.96-9.12-1.76-1.24-2.57-3.43-1.99-5.5.86-3.11,1.75-6.18,2.65-9.18,4.89,3.71,11.84,7.64,20.36,11.37,8.79,3.85,19.26,7.49,30.84,10.45,34.38,8.77,78.63,11.53,118.39-4.01,6.37-2.49,12.62-5.45,18.7-8.93,5.02-2.87,9.93-6.1,14.68-9.71,1.46,4.43,2.89,8.96,4.3,13.58Z" style="fill: #d7d1ff; fill-rule: evenodd; stroke-width: 0px;"/>
    <path d="m314.62,311.93c-6.08,3.48-12.33,6.44-18.7,8.93-5.83-16.17-12.59-36.27-9.75-35.39,11.29,3.52,21.3,15.47,28.45,26.46Z" style="fill: #8b7bed; stroke-width: 0px;"/>
    <path d="m321.47,323.6c-.87.53-1.74,1.05-2.61,1.55-.79.47-1.59.93-2.38,1.37-1.64.93-3.26,1.82-4.89,2.66-.42.22-.84.44-1.26.64-.5.26-1.01.51-1.52.76-.26.13-.52.25-.78.37-.66.33-1.32.64-1.99.94-.02.02-.05.03-.07.03-.84.39-1.69.77-2.54,1.13-.86.38-1.73.74-2.61,1.09-1.32-3.53-3.06-8.21-4.9-13.28,6.37-2.49,12.62-5.45,18.7-8.93,2.73,4.2,5.04,8.27,6.85,11.67Z" style="fill: #a79bfa; stroke-width: 0px;"/>
    <path d="m177.53,324.87c-11.58-2.96-22.05-6.6-30.84-10.45,5.16-11.8,14.86-22.16,22.13-27.26,7.34-5.15,7.77,18.19,8.71,37.71Z" style="fill: #8b7bed; stroke-width: 0px;"/>
    <path d="m177.99,338.89c-.9-.2-1.79-.4-2.66-.6-.01,0-.02,0-.02-.01-5.32-1.23-10.3-2.62-14.96-4.11-.78-.25-1.54-.5-2.3-.76-.61-.2-1.21-.41-1.8-.62-.29-.1-.58-.2-.87-.3-.57-.21-1.14-.41-1.71-.62-.27-.1-.55-.2-.81-.3-.96-.36-1.89-.72-2.81-1.08-.92-.37-1.83-.74-2.72-1.1-.65-.28-1.29-.56-1.93-.83-.66-.29-1.32-.58-1.96-.87-.61-.28-1.22-.56-1.81-.84,1.14-3.02,2.89-7.47,5.06-12.43,8.79,3.85,19.26,7.49,30.84,10.45.27,5.71.4,10.73.46,14.02Z" style="fill: #a79bfa; stroke-width: 0px;"/>
  </g>
  <g>
    <path d="m93.57,241.01c7.67-.82,7.21,5.74,5.24,11l-18.84,1.22c1.26-6.58,5.94-11.4,13.6-12.22Z" style="fill: #a198ed; fill-rule: evenodd; stroke-width: 0px;"/>
    <path d="m93.57,241.01s-50.07,4.17-81.25,4.14c-13.71-.02-13.03,8.39-11.58,31.55s4.9,66.7,4.78,78.83c-.11,12.13-5.5,16.27-5.5,16.27l90.72-3.58c6.22-6.1,6.5-15.15,5.37-25.12s-7.3-78.71-7.83-88.31c-.66-12.07,5.29-13.77,5.29-13.77Z" style="fill: #e8e6f7; fill-rule: evenodd; stroke-width: 0px;"/>
    <path d="m16.71,267.28h-.01c-.69,0-1.24-.57-1.24-1.26.05-5.23,3.34-9.6,7.65-10.16,2.67-.35,5.92.9,8.16,4.98,1.14-2.73,3.28-4.8,5.9-5.43,1.66-.4,5.52-.64,9.23,4.24.89-2.42,2.88-4.47,5.34-5.19,1.82-.52,6.11-.88,9.96,5.51,1.05-2,2.91-3.56,5.02-3.98,1.47-.29,5.14-.37,7.44,5.1.27.64-.03,1.37-.67,1.64-.64.27-1.37-.03-1.64-.67-1.13-2.7-2.78-3.98-4.65-3.62-2.09.41-3.87,2.69-3.89,4.97,0,.59-.42,1.09-1,1.21-.57.12-1.16-.18-1.4-.72-2.37-5.35-5.47-7.92-8.48-7.04-2.47.71-4.37,3.68-3.99,6.21.09.6-.27,1.18-.85,1.37-.58.19-1.21-.07-1.49-.6-2.39-4.52-5.44-6.72-8.34-6.01-2.74.67-4.84,3.83-4.87,7.37,0,.62-.47,1.15-1.09,1.23-.61.08-1.2-.31-1.37-.91-1.33-4.89-3.94-7.57-7-7.18-2.62.34-5.43,3.15-5.47,7.7,0,.69-.56,1.24-1.25,1.24Z" style="fill: #a198ed; stroke-width: 0px;"/>
    <path d="m13.29,286.81c-.65,0-1.2-.5-1.25-1.16-.05-.69.47-1.29,1.15-1.34l56.66-4.19c.68-.06,1.29.47,1.34,1.15s-.47,1.29-1.15,1.34l-56.66,4.19s-.06,0-.09,0Z" style="fill: #a198ed; stroke-width: 0px;"/>
    <path d="m14.15,297.88c-.66,0-1.21-.51-1.25-1.17-.04-.69.48-1.28,1.17-1.32l39.5-2.37c.71-.03,1.28.48,1.32,1.17.04.69-.48,1.28-1.17,1.32l-39.5,2.37s-.05,0-.08,0Z" style="fill: #a198ed; stroke-width: 0px;"/>
    <path d="m62.95,294.96c-.66,0-1.21-.51-1.25-1.17-.04-.69.48-1.28,1.17-1.32l11.79-.71c.7-.02,1.28.48,1.32,1.17.04.69-.48,1.28-1.17,1.32l-11.79.71s-.05,0-.08,0Z" style="fill: #a198ed; stroke-width: 0px;"/>
    <path d="m15.19,315.77c-.67,0-1.22-.52-1.25-1.2-.03-.69.51-1.27,1.19-1.3l59.79-2.58c.71-.03,1.27.5,1.3,1.2.03.69-.51,1.27-1.19,1.3l-59.79,2.58s-.04,0-.06,0Z" style="fill: #a198ed; stroke-width: 0px;"/>
    <g>
      <path d="m63.74,351.75c-.74,0-1.48-.1-2.2-.29-3.1-.85-5.19-3.44-5.6-6.93-.08-.69.41-1.31,1.1-1.39.69-.08,1.31.41,1.39,1.1.29,2.52,1.64,4.22,3.78,4.81,2.25.62,4.79-.18,6.62-2-2.08-.62-3.78-1.83-4.9-3.23-1.75-2.21-2.07-4.82-.82-6.82.89-1.43,2.25-2.23,3.81-2.24h.04c1.92,0,3.96,1.23,5.21,3.14,1.1,1.69,1.5,4.48.75,7.06.7-.08,1.43-.23,2.17-.49,3.09-1.06,4.89-2.95,4.94-5.19.04-1.89-1.24-3.63-3.27-4.43-.64-.25-.96-.98-.7-1.62s.98-.95,1.62-.7c3.01,1.19,4.92,3.86,4.85,6.81-.07,3.29-2.55,6.1-6.62,7.5-1.46.5-2.88.72-4.2.67-.05.08-.11.15-.17.23-1.94,2.55-4.89,4.02-7.8,4.02Zm3.22-14.5h-.02c-.7,0-1.28.37-1.72,1.07-.8,1.29-.19,2.88.66,3.94.96,1.2,2.51,2.21,4.43,2.58.78-1.96.59-4.31-.24-5.59-.78-1.2-2.03-2-3.11-2Z" style="fill: #a198ed; stroke-width: 0px;"/>
      <path d="m63.33,358.49c-.65,0-1.19-.5-1.24-1.15-.05-.69.46-1.29,1.15-1.34.03,0,3.23-.31,5.16-2.74,1.32-1.67,1.78-3.99,1.36-6.91-.09-.61.28-1.19.87-1.37.59-.18,1.22.09,1.49.64,1.61,3.26,3.97,5.17,6.34,5.05,1.83-.08,3.36-1.36,4.2-3.51.25-.64.97-.96,1.62-.71.64.25.96.98.71,1.62-1.2,3.08-3.6,4.98-6.42,5.1-2.25.1-4.47-.95-6.29-2.9-.27,1.76-.91,3.29-1.94,4.57-2.62,3.27-6.72,3.63-6.9,3.65-.03,0-.07,0-.1,0Z" style="fill: #a198ed; stroke-width: 0px;"/>
    </g>
    <g>
      <path d="m29.11,355.62c-2.55,0-5.04-.66-7.29-1.95-3.41-1.96-5.82-5.17-6.78-9.02-2-8,2.91-16.38,10.95-18.69,3.33-.96,6.73-.78,9.85.52.64.27.94,1,.67,1.63-.27.64-1,.94-1.63.67-2.59-1.08-5.42-1.23-8.2-.43-6.75,1.94-10.89,8.98-9.21,15.68.8,3.19,2.79,5.84,5.6,7.46,2.88,1.66,6.29,2.06,9.58,1.11,6.75-1.94,10.89-8.98,9.21-15.68-.17-.67.24-1.35.91-1.52.67-.17,1.35.24,1.52.91,2,7.99-2.91,16.38-10.95,18.69-1.4.4-2.82.6-4.23.6Z" style="fill: #a198ed; stroke-width: 0px;"/>
      <path d="m29.92,349.18c-.37,0-.75-.02-1.13-.07-4.79-.61-8.26-4.99-7.72-9.76.08-.69.7-1.18,1.38-1.1.69.08,1.18.7,1.1,1.38-.38,3.42,2.11,6.56,5.55,7,1.67.21,3.31-.24,4.62-1.27,1.29-1.02,2.1-2.48,2.28-4.12.38-3.42-2.11-6.56-5.55-7-1.35-.17-2.67.09-3.84.74-.6.34-1.36.13-1.7-.47-.34-.6-.13-1.36.47-1.7,1.64-.92,3.5-1.29,5.38-1.05,4.79.61,8.26,4.99,7.72,9.76-.26,2.31-1.4,4.37-3.22,5.8-1.54,1.21-3.41,1.85-5.35,1.85Z" style="fill: #a198ed; stroke-width: 0px;"/>
    </g>
  </g>
  <path d="m257.14,201.91c-8.64,21.84-48.52,20.88-54.09-.3,2.13-.74,4.32-1.39,6.55-1.94,6.59-1.65,13.62-2.5,21.14-2.5,7.03,0,13.57.86,19.66,2.53,2.31.63,4.55,1.37,6.73,2.22Z" style="fill: #8747cc; fill-rule: evenodd; stroke-width: 0px;"/>
  <g>
    <path d="m208.85,200.29c7.43,13.33,33.68,13.67,42.45-.37.94-1.5,2.98-1.85,4.39-.79l3.21,2.41c-9.2,23.26-51.69,22.24-57.61-.32l2.61-1.92c1.62-1.2,3.97-.76,4.95,1Z" style="fill: #9b8fff; fill-rule: evenodd; stroke-width: 0px;"/>
    <g>
      <path d="m251.53,211.41c-.64.53-1.32,1.02-2.02,1.48l-4.79-6.55c.71-.44,1.4-.92,2.05-1.43l4.76,6.5Z" style="fill: #7967eb; stroke-width: 0px;"/>
      <path d="m236.53,217.93c-.82.15-1.64.27-2.48.37l-1.93-8.03c.84-.07,1.68-.17,2.51-.3l1.9,7.96Z" style="fill: #7967eb; stroke-width: 0px;"/>
      <path d="m221.35,209.27l-3.97,7.41c-.8-.26-1.59-.55-2.36-.88l3.92-7.31c.78.3,1.59.56,2.41.78Z" style="fill: #7967eb; stroke-width: 0px;"/>
      <path d="m211.21,203.48l-6.14,5.15c-.53-.65-1.02-1.33-1.46-2.05l6.02-5.03c.48.68,1,1.33,1.58,1.93Z" style="fill: #7967eb; stroke-width: 0px;"/>
    </g>
  </g>
  <g>
    <g>
      <circle cx="229.68" cy="152.77" r="51.23" style="fill: #bc83fb; stroke-width: 0px;"/>
      <g>
        <path d="m225.33,175.97c.41,6.52,8.63,6.46,8.9-.1.2-1.93,3.04-1.83,3.12.1.32,4.3-2.98,8.54-7.57,8.46-2.16-.01-4.34-.99-5.74-2.67-1.42-1.49-3.32-7.2-.22-7.29.83.03,1.47.7,1.51,1.5h0Z" style="stroke-width: 0px;"/>
        <path d="m257.2,165.06c-.28-2.56-1.14-4.91-2.69-6.54-3.05-3.36-8.82-3.39-11.86-.01-1.53,1.63-2.37,3.99-2.67,6.56-.07.78-.78,1.36-1.56,1.26-.67-.08-1.17-.62-1.24-1.26-.14-1.52-.03-3.09.33-4.66,2.09-9.1,14.17-11.64,19.94-4.4,2.08,2.53,2.81,5.92,2.55,9.06-.07.77-.75,1.34-1.52,1.27-.69-.06-1.22-.61-1.27-1.27h0Z" style="stroke-width: 0px;"/>
        <path d="m219.58,165.06c-.3-2.57-1.17-4.92-2.73-6.55-3.07-3.35-8.82-3.39-11.88-.01-1.54,1.63-2.39,3.99-2.71,6.56-.08.76-.76,1.31-1.52,1.21-.64-.08-1.13-.6-1.19-1.21-.15-1.52-.04-3.09.31-4.66,2.06-9.11,14.15-11.65,19.91-4.4,2.07,2.54,2.8,5.92,2.51,9.06-.07.75-.74,1.3-1.48,1.22-.66-.06-1.16-.59-1.22-1.22h0Z" style="stroke-width: 0px;"/>
      </g>
      <path d="m183.51,130.57l46.27-2.08,47.7,5.78c2.22,5.73,3.44,11.98,3.44,18.5,0,1.78,0,2.3-.16,4.03-11.02-.88-31.63-6.84-50.56-23.56,0,0-18.45,19.53-51.7,21.44-.03-.64-.04-1.27-.04-1.91,0-7.95,1.81-15.48,5.06-22.2Z" style="fill: #8747cc; stroke-width: 0px;"/>
      <g>
        <path d="m263.62,106.41h-67.69c-9.48-5.83-11.97-11.8-9.55-22.29,1.63-7.09,5.27-15,12.82-28.94S226.58,0,230.23,0s15.85,28.32,25.26,47.07c8.8,17.53,13.68,28.55,15.51,32.14,5.78,11.34,1.9,21.08-7.38,27.2Z" style="fill: #8747cc; stroke-width: 0px;"/>
        <path d="m275.9,120.43l-92.91,1.61c8.05-15.88,15.39-32.56,21.77-47.77,12.98-30.95,21.99-55.84,25.01-55.69,3.07.16,12,26.84,25.08,57.75.01,0,.01,0,.01,0,6.15,14.54,13.22,30.01,21.04,44.09Z" style="fill: #bc83fb; stroke-width: 0px;"/>
        <path d="m231.16,29.58c.24,10.89-.14,21.8-.61,32.67-.41,10.73-1.41,21.67.18,32.27.24,1.65-2.24,2.11-2.57.43-1.03-5.46-1.2-10.99-1.14-16.5.13-10.91.92-21.72,1.24-32.6.15-5.42.25-10.83.28-16.25.02-1.67,2.54-1.74,2.61-.02h0Z" style="fill: #8747cc; stroke-width: 0px;"/>
        <path d="m284.61,145.48c-3.2,5.68-31.09,2.6-54.83-15.96-23.74,18.56-51.65,21.64-54.84,15.96-1.68-2.98-1.05-9.63.76-15.74,1.66-5.58,4.29-10.72,7.03-12.19,4.72-2.55,20.34-2.58,36.38-11.14,3.44-1.83,6.9-4.05,10.27-6.78,3.37,2.72,6.85,4.95,10.33,6.78,6.38,3.36,12.75,5.41,18.41,6.81,8.76,2.16,15.84,2.78,18.7,4.33,2.66,1.43,5.22,6.32,6.87,11.72,1.92,6.24,2.63,13.16.92,16.21Z" style="fill: #bc83fb; stroke-width: 0px;"/>
        <path d="m187.81,114.9c10.93-1.65,22.04-4.21,31.87-9.35,2.33-1.25,4.83-2.76,6.9-4.38,1.33-.81,2.33-2.99,4-1.96,9.26,5.96,19.5,10.36,30.18,13.08,3.58.89,7.25,1.68,10.83,2.15,1.97.28,1.68,3.27-.36,3.1-15.15-1.73-29.97-6.93-42.42-15.76,0,0,2.08-.27,2.08-.27-.77.88-1.47,1.48-2.23,2.16-5.23,4.4-11.55,7.36-17.95,9.58-7.18,2.5-14.95,3.94-22.5,4.74-2.02.22-2.43-2.82-.37-3.1h0Z" style="fill: #8747cc; stroke-width: 0px;"/>
      </g>
    </g>
    <path d="m262.61,192.02c-14.47,16.18-41.93,18.64-58.86,4.95,19.69,8.08,41.19,7.72,58.86-4.95h0Z" style="fill: #8747cc; stroke-width: 0px;"/>
  </g>
  <path d="m283.69,129.27c-14.4,5.04-32.8-9.46-54.05-9.46s-37.3,13.61-53.94,9.93c1.66-5.58,4.29-10.72,7.03-12.19,4.72-2.55,20.34-2.58,36.38-11.14h20.6c6.38,3.36,12.75,5.41,18.41,6.81,8.76,2.16,15.84,2.78,18.7,4.33,2.66,1.43,5.22,6.32,6.87,11.72Z" style="fill: #8747cc; stroke-width: 0px;"/>
  <g>
    <path d="m475.09,176.26l-6.86,82.57c-.19,2.25-1.97,4.04-4.22,4.23l-1.12.1.73,1.67c.89,2.04.49,4.4-1.01,6.04l-23.18,25.18c-1.88,2.05-4.59,3.14-7.37,2.96l-129.26-8.34c-2.65-.17-4.72-2.36-4.72-5.03v-2.56l36.46-26.32,5.74-81.83c.32-4.55,4.1-8.08,8.67-8.08l113.28-.84c8.74.47,13.27,5.19,12.86,10.25Z" style="fill: #403199; stroke-width: 0px;"/>
    <path d="m462.89,263.17l7.26-87.78c.42-5.06-3.58-9.41-8.66-9.41h-117.47c-4.56,0-8.35,3.53-8.67,8.08l-5.75,81.83,133.29,7.28Z" style="fill: #d7d1ff; stroke-width: 0px;"/>
    <path d="m461.5,168.48c1.75,0,3.37.71,4.55,2,1.19,1.29,1.76,2.96,1.61,4.7l-7.06,85.36-128.32-7.01,5.57-79.3c.23-3.23,2.94-5.76,6.17-5.76h117.47m0-2.5h-117.47c-4.56,0-8.35,3.53-8.67,8.08l-5.75,81.83,133.29,7.28,7.26-87.78c.42-5.06-3.58-9.41-8.66-9.41h0Z" style="fill: #7967eb; stroke-width: 0px;"/>
    <circle cx="400.46" cy="174.11" r="2.87" style="fill: #7967eb; stroke-width: 0px;"/>
    <path d="m462.89,263.17l-26.81,27.86c-1.61,1.67-3.87,2.55-6.18,2.4l-129.84-8.25c-1.91-.12-2.68-2.51-1.21-3.73l30.75-25.55,133.29,7.28Z" style="fill: #7967eb; stroke-width: 0px;"/>
    <g>
      <path d="m449.54,267.81l-8.89,8.65c-1.76,1.71-4.16,2.6-6.61,2.44l-111.1-7.33c-1.12-.07-1.57-1.47-.71-2.19l9.46-7.87c1.68-1.4,3.84-2.11,6.02-1.99l111.03,6.17c1.08.06,1.57,1.37.8,2.13Z" style="fill: #503ebd; stroke-width: 0px;"/>
      <path d="m445.28,271.96l-2.1,2.03-20.38-1.44s-.02.03-.03.04l-5.01,5.23-2.86-.19,5.07-5.28-16.23-1.15s-.01.03-.02.04l-5.12,5.3-2.85-.19,5.16-5.36-44.9-3.17s-.03.04-.05.07l-5.77,5.46-2.96-.2,5.85-5.53-12.03-.85s-.04.07-.08.09l-6.1,5.49-3.05-.2,6.22-5.6-11.45-.81,2.42-2.01,11.6.81,4.97-4.6,3.03.16-5.02,4.66,17.53,1.24,4.64-4.93,2.85.15-4.68,4.97,19.84,1.41,5.04-5.26,2.88.16-5.07,5.29,21.69,1.53,5.31-5.61,2.86.16-5.36,5.64,20.66,1.47,5.24-5.97,2.78.15-5.28,6.01,10.76.77Z" style="fill: #7967eb; stroke-width: 0px;"/>
    </g>
    <path d="m349.58,279.26l-3.16,2.86c-1.09.99-.45,2.81,1.02,2.9l39.2,2.28c2.29.13,4.53-.68,6.2-2.26l2.79-2.64c1.06-1,.41-2.78-1.04-2.87l-38.92-2.41c-2.24-.14-4.44.63-6.1,2.14Z" style="fill: #503ebd; stroke-width: 0px;"/>
    <g>
      <circle cx="398.33" cy="215.59" r="34.02" style="fill: #fff; stroke-width: 0px;"/>
      <g>
        <ellipse cx="397.61" cy="195.14" rx="9.73" ry="5.66" style="fill: #ff2670; stroke-width: 0px;"/>
        <ellipse cx="397.61" cy="237.78" rx="9.73" ry="5.66" style="fill: #ff2670; stroke-width: 0px;"/>
        <ellipse cx="416.07" cy="205.8" rx="5.66" ry="9.73" transform="translate(-47.16 235.61) rotate(-30)" style="fill: #ff2670; stroke-width: 0px;"/>
        <ellipse cx="379.14" cy="227.12" rx="5.66" ry="9.73" transform="translate(-62.76 220) rotate(-30)" style="fill: #ff2670; stroke-width: 0px;"/>
        <ellipse cx="416.07" cy="227.12" rx="9.73" ry="5.66" transform="translate(11.34 473.89) rotate(-60)" style="fill: #ff2670; stroke-width: 0px;"/>
        <ellipse cx="379.14" cy="205.8" rx="9.73" ry="5.66" transform="translate(11.34 431.25) rotate(-60)" style="fill: #ff2670; stroke-width: 0px;"/>
      </g>
    </g>
  </g>
  <g>
    <g>
      <path d="m420.61,402.9c-25.68,38.49-99.44,56.09-140.36,9.35-13.12-14.98-22.86-36.57-26.56-66.2l46.39-4.21c2.38,16.61,7.59,29.51,14.67,39.24,26.86,36.92,80.58,28.13,108.18,2.55,12.32-11.41,11.76-1.86-2.33,19.27Z" style="fill: #bc83fb; fill-rule: evenodd; stroke-width: 0px;"/>
      <path d="m420.61,402.9c-3.57,5.36-8.09,10.32-13.3,14.75-3.44-4.55-7.68-12.25-5.01-20.26,7.73-3.64,14.78-8.32,20.64-13.76,12.32-11.41,11.76-1.86-2.33,19.27Z" style="fill: #9e5de3; fill-rule: evenodd; stroke-width: 0px;"/>
      <path d="m314.76,381.08c-7.95,22.15-24.19,29.04-34.5,31.17-13.12-14.98-22.86-36.57-26.56-66.2l46.39-4.21c2.38,16.61,7.59,29.51,14.67,39.24Z" style="fill: #9e5de3; stroke-width: 0px;"/>
      <path d="m428.59,389.48c-1.84,3.67-4.5,8.19-7.98,13.42-33.91,50.82-151.66,65.23-166.92-56.85l18.7-1.69c2.4,12.11,10.89,43.83,36.59,66.73,40.3,35.91,98.11,14.38,119.61-21.6Z" style="fill: #8747cc; fill-rule: evenodd; stroke-width: 0px;"/>
      <g>
        <path d="m310.1,431.27c-6.87-3.69-11.06-9.07-9.37-12.01,1.69-2.94,8.01-1.18,14.87,2.51s11.69,7.92,10,10.86c-1.69,2.94-8.63,2.33-15.5-1.36Z" style="fill: #d8b7fb; stroke-width: 0px;"/>
        <path d="m270.15,397.81c-5.14-7.19-6.07-15.17-2.07-17.83s9.87,2.07,15.01,9.25c5.14,7.19,7.59,14.11,3.6,16.77-3.99,2.66-11.39-1.01-16.53-8.2Z" style="fill: #bc83fb; stroke-width: 0px;"/>
        <path d="m357.77,440.64c-6.94.28-12.62-1.67-12.74-3.77-.12-2.11,5.43-2.77,12.38-3.04s12.73-.69,12.85,1.42c.12,2.11-5.54,5.12-12.48,5.39Z" style="fill: #d8b7fb; stroke-width: 0px;"/>
        <path d="m400.74,426.02c-4.65,2.58-9.27,3.21-10.15,1.82s2.67-3.77,7.31-6.35c4.65-2.58,8.45-4.86,9.33-3.46.88,1.4-1.85,5.41-6.49,8Z" style="fill: #d8b7fb; stroke-width: 0px;"/>
      </g>
    </g>
    <g>
      <path d="m302.07,343.62c-5.66,3.72-11.67,6.34-17.51,8.17-13.44,4.25-25.93,4.33-30.94,4.14-1.36-.05-2.49-1.03-2.75-2.36l-9.97-52.87,14.7-6.43,33.43-14.63,14.23,60.93c.28,1.16-.19,2.39-1.19,3.05Z" style="fill: #bab1fa; stroke-width: 0px;"/>
      <path d="m302.07,343.62c-5.66,3.72-11.67,6.34-17.51,8.17-.35.11-.7.22-1.05.33-.7.21-1.4.41-2.1.6-.34.09-.69.18-1.03.27-.69.19-1.38.35-2.06.51-2.04.48-4.03.87-5.95,1.18-.31.05-.63.1-.95.15-.63.1-1.25.19-1.86.27-2,.27-3.9.47-5.66.6-1.14.08-2.23.15-3.24.19-2.99.14-5.41.1-7.04.04-.77-.03-1.46-.35-1.96-.86-.23-.23-.42-.5-.56-.8-.07-.14-.13-.3-.17-.46-.02-.08-.04-.16-.06-.24l-1.52-8.08c5.9.03,18.84-.46,32.83-4.59,6.39-1.88,12.99-4.52,19.24-8.22l1.84,7.89c.28,1.16-.19,2.39-1.19,3.05Z" style="fill: #d7d1ff; stroke-width: 0px;"/>
      <path d="m282.18,340.9c-13.99,4.13-26.93,4.62-32.83,4.59l-8.45-44.79,3.4-1.49c7.42-3.25,16.13-1.16,21.19,5.16.66.82,1.32,1.68,2.01,2.58,7.39,9.78,11.99,23.32,14.68,33.95Z" style="fill: #8b7bed; stroke-width: 0px;"/>
      <path d="m284.56,351.79c-.35.11-.7.22-1.05.33-.7.21-1.4.41-2.1.6-.34.09-.69.18-1.03.27-.69.18-1.38.35-2.06.51-2.04.48-4.03.87-5.95,1.18-.31.05-.63.1-.95.15-.63.1-1.25.19-1.86.27-2,.27-3.9.47-5.66.6-1.14.08-2.22.15-3.24.19-2.99.14-5.41.1-7.04.04-.77-.03-1.46-.35-1.96-.86-.23-.23-.41-.5-.56-.8-.07-.14-.13-.3-.17-.46-.02-.08-.04-.16-.06-.24l-1.52-8.08c5.9.03,18.84-.46,32.83-4.59,1.08,4.23,1.85,8,2.38,10.89Z" style="fill: #a79bfa; stroke-width: 0px;"/>
    </g>
  </g>
  <g>
    <g>
      <path d="m282.99,115.5c.21,5.07-5.72,8.1-18.58,5.24-29.52-6.56-45.54-6.66-70.68-1.5-15.94,3.27-19.56.39-18.27-5.01h0c1.02-4.24,5.04-10,8.51-15.56h89.37c3.51,5.25,9.46,11.98,9.65,16.83Z" style="fill: #bab1fa; stroke-width: 0px;"/>
      <path d="m282.99,115.5c.21,5.07-5.72,8.1-18.58,5.24-29.52-6.56-45.54-6.66-70.68-1.5-15.94,3.27-19.56.39-18.27-5.01,2.37,7.23,24.11-3.95,52.67-3.03,28.17.91,51.78,10.57,54.86,4.3Z" style="fill: #e4e0ff; stroke-width: 0px;"/>
      <path d="m276.38,98.68s1.72-33.72-12.93-43.44c-13.87-9.21-55.36-9.48-67.99,0-11.89,8.92-14.46,43.44-14.46,43.44,0,4.68,95.38,4.68,95.38,0Z" style="fill: #bab1fa; stroke-width: 0px;"/>
      <path d="m271.23,100.37v.02c-.02.6-.51,1.06-1.09,1.06h-.05c-.48-.02-.88-.35-1-.79-.04-.11-.06-.23-.05-.36.01-.38,1.35-35.99-9.2-47.01,1.35.59,2.56,1.24,3.61,1.94.32.21.64.44.94.67,7.95,14.24,6.91,42.82,6.84,44.47Z" style="fill: #7967eb; stroke-width: 0px;"/>
      <path d="m189.18,100.46c0,.1,0,.2-.03.29-.1.47-.52.83-1.02.85h-.05c-.59,0-1.07-.46-1.09-1.06v-.05c-.08-1.9-.9-28.66,6.28-43.22.69-.78,1.42-1.46,2.19-2.04.86-.65,1.86-1.25,2.98-1.8-10.47,11.15-9.27,46.65-9.26,47.03Z" style="fill: #7967eb; stroke-width: 0px;"/>
      <g>
        <circle cx="229.84" cy="72.91" r="7.03" style="fill: #fff; stroke-width: 0px;"/>
        <path d="m229.84,80.47c-.67,0-1.2-.53-1.2-1.2v-2.25c0-.67.53-1.2,1.2-1.2s1.2.53,1.2,1.2v2.25c0,.67-.53,1.2-1.2,1.2Z" style="fill: #fff; stroke-width: 0px;"/>
        <path d="m228.84,57.26l-3.59,4.55c-.67.86-.05,2.11,1,2.11h7.18c1.1,0,1.72-1.24,1-2.11l-3.54-4.55c-.53-.62-1.53-.62-2.06,0Z" style="fill: #fff; stroke-width: 0px;"/>
        <path d="m220.42,88.8c-.33,0-.67-.14-.91-.38-.43-.48-.38-1.24.1-1.67l10.24-9.04,10.24,9.04c.48.43.53,1.2.1,1.67-.43.48-1.2.53-1.67.1l-8.66-7.66-8.66,7.66c-.19.19-.48.29-.77.29Z" style="fill: #fff; stroke-width: 0px;"/>
        <path d="m234.01,93.15c-.53,0-.96-.33-1.15-.81l-2.97-9.19-3.01,9.19c-.19.62-.86.96-1.53.77-.62-.19-.96-.86-.77-1.53l5.26-16.18,5.26,16.18c.19.62-.14,1.29-.77,1.53-.1.05-.24.05-.33.05Z" style="fill: #fff; stroke-width: 0px;"/>
      </g>
    </g>
    <path d="m228.43,103.45c-18.76,0-37.06-.91-44.65-2.51-.59-.12-.97-.71-.85-1.3.13-.59.71-.97,1.3-.85,14.12,2.98,68.75,3.47,88.92,0,.6-.1,1.17.3,1.27.9.1.6-.3,1.17-.9,1.27-10.01,1.72-27.75,2.5-45.1,2.5Z" style="fill: #7967eb; stroke-width: 0px;"/>
  </g>
  <g>
    <path d="m266.65,279.34h-72.45c-5.79,0-10.17-5.06-9.74-11.15l1.93-27.2c.39-5.51,5.11-9.94,10.49-9.94h67.31c5.38,0,10.08,4.43,10.45,9.94l1.81,27.2c.4,6.09-4,11.15-9.79,11.15Z" style="fill: #fff; fill-rule: evenodd; stroke-width: 0px;"/>
    <g>
      <g id="inc">
        <path d="m260.12,265.16c-1.83.71-2.79,2.8-2.13,4.67.66,1.88,2.71,2.82,4.56,2.1,1.84-.72,2.79-2.83,2.11-4.69-.68-1.85-2.7-2.78-4.53-2.07h0Zm-59.84-18.26c.47,0,.7.24.67.73l-1.13,23.65c-.02.52-.28.78-.77.78h-4.86c-.49,0-.72-.26-.69-.78l1.35-23.65c.03-.49.28-.73.75-.73h4.68,0Zm19.24-.19c5.15,0,6.91,3.6,6.87,8.63l-.13,15.94c0,.52-.25.78-.74.78h-4.86c-.49,0-.73-.26-.72-.78l.3-16.68c.03-1.68-1.15-2.27-2.53-2.27h-.57c-2.05,0-3.55.89-4.1,1.78l-.5,17.18c-.02.52-.27.78-.76.78h-4.86c-.49,0-.73-.26-.71-.78l.9-23.65c.02-.49.26-.73.74-.73h4.68c.47,0,.7.24.69.73l-.06,2.14c.75-1.22,2.59-3.06,6.09-3.06h.28,0Zm17.92-9.35c.47,0,.7.24.71.71l.16,16.78,6.64-7.36c.28-.34.7-.58,1.08-.58h4.87c.61,0,1.2.73.38,1.65l-6.91,7.88,8.79,14.22c.31.57.29,1.41-.54,1.41h-4.61c-.64,0-1.23-.21-1.64-.94l-6.11-10.37-1.86,1.98.08,8.55c0,.52-.24.78-.73.78h-4.86c-.49,0-.74-.26-.74-.78v-33.21c-.01-.47.22-.71.69-.71h4.61,0Zm-39.95,1.12c-1.78.54-2.94,2.33-2.58,4.01.36,1.69,2.11,2.63,3.91,2.08,1.79-.55,2.94-2.36,2.57-4.04-.37-1.67-2.12-2.59-3.9-2.05Z" style="fill-rule: evenodd; stroke-width: 0px;"/>
      </g>
      <path d="m259.29,259.25h-1.05c-.48,0-.73-.26-.75-.76l-.79-20.43c-.02-.47.21-.71.67-.71h4.75c.47,0,.71.24.73.71l.03.67c-1.79.45-3.12,2.32-3.13,4.67,0,1.9.84,3.64,2.12,4.62-.89.64-1.52,1.73-1.63,3.04-.12,1.43.4,2.79,1.3,3.69-.85.39-1.6,1.2-2.01,2.27-.29.76-.35,1.53-.23,2.22h0Z" style="fill-rule: evenodd; stroke-width: 0px;"/>
      <path d="m260.73,257.55c-.32.85,0,1.75.7,2.01.71.26,1.54-.23,1.86-1.08.32-.85,0-1.75-.7-2-.7-.25-1.53.23-1.85,1.07Zm1.01-6.16c-.18,1.29.54,2.51,1.6,2.71s2.06-.69,2.23-1.98c.17-1.29-.55-2.5-1.61-2.7-1.05-.2-2.05.68-2.23,1.97Zm-.6-7.52c0,1.73,1.15,3.23,2.59,3.33,1.43.1,2.59-1.23,2.58-2.96,0-1.72-1.17-3.2-2.59-3.3-1.42-.1-2.57,1.21-2.58,2.93h0Z" style="fill-rule: evenodd; stroke-width: 0px;"/>
    </g>
  </g>
  <g>
    <path d="m268.94,348.57c15.97,142.44,58.62,160.09,99.05,161.46,14.89.51,37.54-1.51,34.32,2.47-3.72,4.6-28.34,12.03-48.75,13.06-73.33,3.7-117-51.78-135.13-169.35,31.37-25.33,50.5-7.64,50.5-7.64Z" style="fill: #bc83fb; fill-rule: evenodd; stroke-width: 0px;"/>
    <path d="m402.31,512.5c-3.71,4.6-28.34,12.03-48.74,13.06-53.05,2.68-90.57-25.61-114.13-85.96-9.01-23.08-15.98-50.86-20.99-83.38,31.36-25.33,50.5-7.64,50.5-7.64,3.09,27.62,7.19,50.55,12.09,69.57,10.97,42.71,25.95,65.75,42.54,78.09,14.13,10.53,29.43,13.28,44.42,13.79,10.1.35,23.77-.47,30.51.21h.01c3.2.33,4.83.98,3.8,2.26Z" style="fill: #bc83fb; fill-rule: evenodd; stroke-width: 0px;"/>
    <path d="m281.04,418.15c-11.57,22.93-29.16,24.22-41.6,21.45-9.01-23.08-15.98-50.86-20.99-83.38,31.36-25.33,50.5-7.64,50.5-7.64,3.09,27.62,7.19,50.55,12.09,69.57Z" style="fill: #9e5de3; fill-rule: evenodd; stroke-width: 0px;"/>
    <g>
      <path d="m263.78,293.86c3.77,32.31,7.51,52.55,8.65,58.72.32,1.75-.6,3.5-2.25,4.18-17.36,7.18-43.2,7.54-51.9,7.44-1.75-.02-3.25-1.23-3.65-2.94l-14.66-63.45c30.21-9.94,63.81-3.96,63.81-3.96Z" style="fill: #bab1fa; fill-rule: evenodd; stroke-width: 0px;"/>
      <path d="m272.43,352.58c.33,1.75-.6,3.5-2.25,4.18-10.44,4.32-23.93,6.17-34.92,6.94-.46.04-.91.06-1.35.1-.43.03-.85.05-1.27.07-2.73.16-5.27.25-7.51.3-.56.01-1.11.02-1.63.03-.52.02-1.03.02-1.5.02-.37,0-.75,0-1.09,0-.09,0-.19,0-.28,0-.22,0-.43,0-.64,0-.63,0-1.19,0-1.7-.01-1.32-.02-2.49-.71-3.16-1.76-.22-.35-.4-.75-.5-1.18l-2.07-8.96h0c5.34.31,12.03.3,20.01-.48,10.56-1.04,23.39-3.4,38.33-8.12.37,2.25.69,4.14.96,5.71.21,1.26.41,2.32.56,3.16Z" style="fill: #d7d1ff; fill-rule: evenodd; stroke-width: 0px;"/>
      <path d="m232.58,351.83c-7.98.78-14.67.79-20.01.48l-10.79-46.66c4.43-1.46,11.58-5.07,16-6.07,8.8,6.56,11.26,37.56,14.8,52.25Z" style="fill: #8b7bed; stroke-width: 0px;"/>
      <path d="m235.26,363.69h0c-.46.04-.91.07-1.35.1-.43.03-.85.05-1.27.07-2.74.16-5.27.25-7.51.3-.56.01-1.11.02-1.63.03-.52.02-1.03.02-1.5.02-.38,0-.74,0-1.09,0-.09,0-.19,0-.28,0-.22,0-.43,0-.64,0-.63,0-1.19,0-1.7-.01-1.32-.02-2.49-.71-3.16-1.76-.22-.35-.38-.75-.49-1.18l-2.07-8.96c5.34.31,12.03.3,20.01-.48,1.35,5.66,2.28,10.01,2.68,11.87Z" style="fill: #a79bfa; stroke-width: 0px;"/>
    </g>
    <path d="m398.5,510.24c-8.48.33-12.93,3.55-21.25,4.52-20.73,2.43-43.24-3.11-53.66-18.49-.01,0-.01-.02-.02-.03,14.13,10.53,29.43,13.28,44.42,13.79,10.1.35,23.77-.47,30.51.21Z" style="fill: #8747cc; fill-rule: evenodd; stroke-width: 0px;"/>
    <path d="m382.54,510.85c0,2.63-15.64,2.82-15.97.33s15.97-3,15.97-.33Z" style="fill: #d8b7fb; fill-rule: evenodd; stroke-width: 0px;"/>
    <path d="m355.28,509.8c-2.33,2.51-19.48-2.3-20.03-6.27-.46-3.3,22.44,3.66,20.03,6.27Z" style="fill: #d8b7fb; fill-rule: evenodd; stroke-width: 0px;"/>
  </g>
  <g>
    <g>
      <path d="m379.13,281.76h-.01c-.78-.1-2.01-.63-3.51-1.41l-.03-.02c-4.34-2.25-10.92-6.52-15.7-8.38-8.98-3.48-28.13,57.14-55.78,102.83-36.78,60.75-114.58,65.71-135.39,10.78-4.87-12.86-7.66-28.99-5.02-48.48l52.01-1.37c-2.48,70.77,48.99,44.59,71.91,6.78,63.7-105.06,72.87-95.84,91.41-63.9,1.44,2.48,1.27,3.31.1,3.17Z" style="fill: #bc83fb; fill-rule: evenodd; stroke-width: 0px;"/>
      <path d="m231.17,378.87c14.38,4.1,29.81-7.81,39.67-17.32,11.15-10.62,18.33-24.34,26.56-37.24,8.17-13.08,16.49-26.09,25.64-38.54,7.53-9.65,21.62-29.34,34.76-28.75-11.75.83-25.76,21.08-32.74,30.28-9.03,12.4-17.46,25.28-25.66,38.31-6.26,9.71-11.55,20.22-18.91,29.21-10.5,12.94-31.74,31.32-49.33,24.07h0Z" style="fill: #e6cfff; stroke-width: 0px;"/>
      <path d="m375.58,280.33c-4.34-2.25-10.92-6.52-15.7-8.38-8.98-3.48-28.13,57.14-55.78,102.83-36.78,60.75-114.58,65.71-135.39,10.78,17.02,31.45,47.01,39.07,76.37,25.63,19.81-9.05,40.71-26.54,55.56-50.15,34.94-55.57,46.75-124.28,74.93-80.72Z" style="fill: #8747cc; fill-rule: evenodd; stroke-width: 0px;"/>
      <path d="m295.16,387.53c-20.77,28.76-63.26,47.89-97.75,30.71-4.68-2.42-9.03-5.42-12.74-9.03,8.04,6.58,17.84,10.83,28.06,12.6,31.54,5.24,62.55-11.47,82.42-34.28h0Z" style="fill: #5e2c96; stroke-width: 0px;"/>
      <path d="m274.78,410.7c-7.29,5.17-14.81,7.26-16.8,4.72-2-2.53,3.09-7.83,10.38-13,7.29-5.17,14.02-8.27,16.01-5.73,2,2.53-2.3,8.84-9.59,14.01Z" style="fill: #d8b7fb; stroke-width: 0px;"/>
      <path d="m219.75,426.45c-9.83-.42-17.67-3.88-17.57-6.81.1-2.93,7.72-1.21,17.55-.8s18.15.09,18.05,3.02c-.1,2.93-8.19,5-18.03,4.59Z" style="fill: #d8b7fb; stroke-width: 0px;"/>
      <path d="m308.2,374.88c-4.07,6.16-9.46,9.86-12.04,8.33-2.58-1.53-.36-7.19,3.71-13.35,4.07-6.16,8.44-10.47,11.02-8.95,2.58,1.53,1.38,7.81-2.68,13.96Z" style="fill: #d8b7fb; stroke-width: 0px;"/>
      <path d="m326.48,339.74c-2.59,5.15-6.46,8.51-8.63,7.53-2.17-.97-.98-5.58,1.6-10.74,2.59-5.15,5.6-8.9,7.77-7.93s1.85,5.97-.74,11.13Z" style="fill: #d8b7fb; stroke-width: 0px;"/>
      <path d="m340.9,306.58c-1.99,4.43-5.21,7.36-7.17,6.58-1.96-.78-1.17-4.73.82-9.16,1.99-4.43,4.43-7.68,6.39-6.9,1.96.78,1.95,5.04-.04,9.48Z" style="fill: #d8b7fb; stroke-width: 0px;"/>
      <path d="m352.34,281.54c-1.94,2.94-4.57,4.68-5.85,3.92-1.29-.76-.25-3.48,1.69-6.42,1.94-2.94,4.06-4.98,5.34-4.22s.76,3.79-1.18,6.73Z" style="fill: #d8b7fb; stroke-width: 0px;"/>
      <path d="m364.22,275.18c-2.29-1.42-3.64-3.32-3.03-4.25s2.73-.17,5.02,1.25c2.29,1.42,3.88,2.95,3.27,3.88s-2.97.54-5.26-.88Z" style="fill: #d8b7fb; stroke-width: 0px;"/>
      <path d="m219.38,365.68c-28.98-10.96-48.79,4.09-49.64,22.44-.35-.84-.69-1.69-1.03-2.56-4.87-12.86-7.66-28.99-5.02-48.48l52.01-1.37c-.46,13.15.94,22.96,3.68,29.96Z" style="fill: #9e5de3; stroke-width: 0px;"/>
      <path d="m387.31,277.35c-.34,0-.68-.14-.93-.41-.46-.51-.42-1.3.09-1.77l5.86-5.28c.51-.46,1.3-.42,1.77.09.46.51.42,1.3-.09,1.77l-5.86,5.28c-.24.22-.54.32-.84.32Z" style="fill: #fff; stroke-width: 0px;"/>
      <path d="m380.58,276.32c-.64,0-1.19-.49-1.25-1.15l-1.18-14.14c-.06-.69.45-1.29,1.14-1.35.72-.06,1.29.45,1.35,1.14l1.18,14.14c.06.69-.45,1.29-1.14,1.35-.04,0-.07,0-.11,0Z" style="fill: #fff; stroke-width: 0px;"/>
      <ellipse cx="387.36" cy="265.89" rx="3.1" ry="3.14" transform="translate(-5.94 8.87) rotate(-1.3)" style="fill: #fff; stroke-width: 0px;"/>
    </g>
    <g>
      <path d="m167.98,282.88c-13.39,24.58-8.65,65.36-8.65,65.36-.09,1.86,1.21,3.49,3.03,3.8,19.93,3.39,43.7,1.64,52.15.83,1.81-.17,3.21-1.69,3.27-3.54,0,0-1.51-37.11,8.47-53.44,0,0-55.84-17.48-58.27-13.02Z" style="fill: #bab1fa; stroke-width: 0px;"/>
      <path d="m217.78,349.34c-.06,1.84-1.45,3.36-3.27,3.54-8.46.8-32.23,2.55-52.16-.84-1.8-.31-3.11-1.94-3.02-3.79,0,0-.42-3.64-.66-9.4,20.75,2.77,43.61,1.87,59.07.64-.12,5.89.04,9.85.04,9.85Z" style="fill: #d7d1ff; stroke-width: 0px;"/>
    </g>
  </g>
  <g>
    <g>
      <path d="m434.93,419.94c-.3.07-.65.14-1.02.19-6.11.82-12.08-2.11-15.52-7.22-8.69-12.9-12.96-37.06-9.92-43.55,1.81-3.86,7.23-6.4,12.04-7.6,13.77-3.41,28.16,6.85,32.14,22.92,3.98,16.07-3.96,31.86-17.73,35.27Z" style="fill: #7967eb; fill-rule: evenodd; stroke-width: 0px;"/>
      <path d="m447.51,386.3c3.31,12.8-1.73,25.18-11.25,27.63-9.52,2.46-19.91-5.93-23.22-18.74-3.31-12.8.11-25.35,10.27-27.68,9.58-2.2,20.89,5.98,24.19,18.78Z" style="fill: #fff; fill-rule: evenodd; stroke-width: 0px;"/>
      <path d="m425.71,418.98h-.01c-2.91-1.24-5.47-3.35-7.31-6.07-7.87-11.71-12.13-32.68-10.57-41.31-.62,9.67,7.81,13.24,10.43,20.52,3.71,10.31-3.71,18.59,7.46,26.86Z" style="fill: #403199; fill-rule: evenodd; stroke-width: 0px;"/>
    </g>
    <g>
      <path d="m432.54,389.25c4.83-7.57-2.04-12.55-8.87-16.13-.83-.43-1.85,0-2.1.91-3.16,11.44-1.24,15.72,5.3,17.33-3.74,10.59-.98,12.64,7.37,18.14,1.72,1.14,1.48-2.59,1.48-2.59,5.23-5.95,6.28-12.17-3.18-17.66Z" style="fill: #bc83fb; fill-rule: evenodd; stroke-width: 0px;"/>
      <path d="m435.46,406.8c-.5-.02-.91-.43-.93-.94-.23-6.53-3.27-10.84-3.3-10.88-.31-.44-.22-1.05.22-1.36.44-.31,1.05-.22,1.36.22.14.19,3.41,4.8,3.67,11.95.02.54-.4.99-.94,1.01-.03,0-.06,0-.08,0Z" style="fill: #8747cc; stroke-width: 0px;"/>
      <g>
        <ellipse cx="430.06" cy="383.9" rx="1.57" ry="1.76" transform="translate(-127.81 238.59) rotate(-27.15)" style="stroke-width: 0px;"/>
        <ellipse cx="425.95" cy="385.52" rx="1.57" ry="1.76" transform="translate(-129 236.9) rotate(-27.15)" style="stroke-width: 0px;"/>
      </g>
    </g>
  </g>
  <g>
    <path d="m144.32,87.48c-7.53,0-16.9-8.07-26.68-23.11-.38-.58-.21-1.35.37-1.73.58-.38,1.35-.21,1.73.37,10.04,15.44,19.63,23.38,26.31,21.78,5.62-1.34,9.38-9.39,10.88-23.27.07-.69.69-1.18,1.38-1.11.69.07,1.18.69,1.11,1.38-1.65,15.24-5.95,23.8-12.79,25.44-.75.18-1.52.27-2.31.27Z" style="fill: #0c0c12; stroke-width: 0px;"/>
    <path d="m180.97,93.41c-.19,0-.39-.04-.57-.14-2.33-1.2-4.65-2.36-6.93-3.51-14.57-7.32-27.16-13.64-27.77-21.36-.28-3.55,1.91-6.95,6.71-10.4.56-.4,1.34-.28,1.74.28.4.56.28,1.34-.28,1.74-4.03,2.9-5.88,5.57-5.67,8.18.5,6.32,13.08,12.64,26.4,19.32,2.29,1.15,4.62,2.32,6.95,3.52.61.32.86,1.07.54,1.68-.22.43-.66.68-1.11.68Z" style="fill: #0c0c12; stroke-width: 0px;"/>
    <path d="m175.41,68.72c-2.52,0-4.76-.5-6.65-1.9-2.85-2.11-4.47-5.91-5.09-11.98-.07-.69.43-1.3,1.12-1.37.68-.07,1.3.43,1.37,1.12.54,5.24,1.88,8.58,4.09,10.22,3.13,2.32,8.21,1.32,14.08.16l1.66-.32c.68-.13,1.33.31,1.46.99.13.68-.31,1.33-.99,1.46l-1.65.32c-3.41.67-6.58,1.29-9.4,1.29Z" style="fill: #0c0c12; stroke-width: 0px;"/>
    <path d="m195.85,53.27c-.05,0-.11,0-.17-.01-.68-.09-1.17-.72-1.08-1.4,1.34-10.13.37-16.39-2.9-18.6-3.01-2.04-8.4-.89-16.04,3.4-.6.34-1.36.12-1.7-.48-.34-.6-.12-1.36.48-1.7,8.65-4.86,14.76-5.94,18.66-3.29,4.17,2.83,5.48,9.7,3.98,21-.08.63-.62,1.09-1.24,1.09Z" style="fill: #0c0c12; stroke-width: 0px;"/>
    <path d="m174.06,26.57c-.41,0-.82-.2-1.06-.58-4.93-7.74-6.28-12.26-4.38-14.68,1.68-2.13,5.36-2.08,11.94.17,2.98,1.02,6.45,2.57,10.13,4.21,6.2,2.77,13.22,5.9,20.46,7.72.67.17,1.08.85.91,1.52-.17.67-.85,1.07-1.52.91-7.45-1.87-14.58-5.06-20.87-7.87-3.62-1.62-7.05-3.15-9.92-4.13-7.07-2.42-8.77-1.5-9.17-.99-.5.63-1.05,3.04,4.53,11.79.37.58.2,1.35-.38,1.73-.21.13-.44.2-.67.2Z" style="fill: #0c0c12; stroke-width: 0px;"/>
    <path d="m175.57,29.57s-.09,0-.13,0c-.69-.07-1.19-.68-1.12-1.37.31-2.99,2.03-18.07,5.94-20.9,3.85-2.79,8.58-2.53,18.92-1.96,5.46.3,12.26.67,21.37.76.69,0,1.24.57,1.24,1.26,0,.69-.56,1.24-1.25,1.24h-.01c-9.17-.09-16-.46-21.48-.76-9.74-.54-14.19-.78-17.32,1.49-2.21,1.6-4.21,12.15-4.92,19.13-.07.64-.61,1.12-1.24,1.12Z" style="fill: #0c0c12; stroke-width: 0px;"/>
    <path d="m130.47,62.41c4.37,5.76,5.32,12.51,2.22,14.86-3.09,2.35-7.15-2.08-11.52-7.84-4.37-5.76-7.52-10.59-4.31-13.02s9.24.24,13.61,6Z" style="stroke-width: 0px;"/>
    <path d="m212.87,5.05c7.04.13,13.27.63,13.32,3.73s-7.06,7.04-14.09,6.9c-7.04-.13-11.27-2.53-12.62-6.54s6.36-4.23,13.4-4.1Z" style="stroke-width: 0px;"/>
    <path d="m178.01,81.67c4.68,2.55,8.48,8.22,6.99,10.95s-6.81.38-11.49-2.17c-4.68-2.55-9.66-6.37-8.12-9.2s7.93-2.13,12.61.42Z" style="stroke-width: 0px;"/>
    <path d="m182.07,59.73c4.17-.44,7.6,1.8,8.02,4.4.42,2.59-3.56,3.66-7.29,4.27s-8.18.5-8.62-2.19,3.52-6.01,7.88-6.47Z" style="stroke-width: 0px;"/>
    <path d="m188.43,48.06c.03-3.86,1.63-10.26,4.75-10.23s4.48,2.72,4.75,9.11c.16,3.86-.97,9.8-4.21,9.77-3.24-.02-5.33-4.79-5.3-8.65Z" style="stroke-width: 0px;"/>
    <path d="m204.66,20.93c6.14,2.09,12.23,3.22,11.35,6.73s-7.55,4.55-12.8,3.24c-5.25-1.31-11.61-7.28-10.7-10.92s6.76-.62,12.14.94Z" style="stroke-width: 0px;"/>
    <g>
      <path d="m175.13,22.49c10.32,5.74-11.55,46.69-22.8,41.47-12.27-5.69,12.33-47.29,22.8-41.47Z" style="fill: #7967eb; stroke-width: 0px;"/>
      <path d="m153.14,55.26c-.49,0-.95-.29-1.15-.77-.27-.64.03-1.37.67-1.64.57-.24,13.95-6.14,14.31-24.17.01-.69.57-1.26,1.27-1.22.69.01,1.24.58,1.22,1.27-.2,10.27-4.47,16.9-8.02,20.65-3.86,4.08-7.66,5.71-7.82,5.77-.16.07-.32.1-.48.1Z" style="stroke-width: 0px;"/>
      <g>
        <ellipse cx="154.47" cy="29.36" rx="3.43" ry="8.45" transform="translate(31.2 126.97) rotate(-49.13)" style="stroke-width: 0px;"/>
        <ellipse cx="148.2" cy="38.94" rx="3.43" ry="8.65" transform="translate(41.91 149.31) rotate(-60.8)" style="stroke-width: 0px;"/>
      </g>
    </g>
  </g>
</svg>