<svg enable-background="new 0 0 1628 800.8" version="1.1" viewBox="0 0 1628 800.8" xmlns="http://www.w3.org/2000/svg" xmlns:xlink="http://www.w3.org/1999/xlink">
 <style type="text/css">.st0{fill:#242526;}
	.st1{fill:#BC83FB;}
	.st2{fill:#D8B7FB;}
	.st3{clip-path:url(#SVGID_00000157286136360104819020000017044625547939170738_);}
	.st4{fill:none;stroke:#8747CC;stroke-width:4;stroke-linecap:round;stroke-miterlimit:10;}
	.st5{fill:#FFFFFF;}
	.st6{fill:none;stroke:#BC83FB;stroke-width:4;stroke-linecap:round;stroke-miterlimit:10;}</style>
 <rect class="st0" width="1628" height="800.8"/>
 <path d="m324.3 484.5-110.8 41.5c130.6 6.2 203.2-29.2 110.8-41.5z"/>
 <path class="st1" d="m324.3 296.8v197.3c0 42.6-221.7 42.6-221.7 0v-197.3c0-36.8 221.7-36.8 221.7 0z"/>
 <path class="st2" d="m324.3 296.8c0 33.2-221.7 33.2-221.7 0 0-36.8 221.7-36.8 221.7 0z"/>
 <defs>
  <path id="a" d="m324.3 296.8v197.3c0 42.6-221.7 42.6-221.7 0v-197.3c0-36.8 221.7-36.8 221.7 0z"/>
 </defs>
 <clipPath id="b">
  <use xlink:href="#a"/>
 </clipPath>
 <g clip-path="url(#b)">
  <path class="st4" d="m326.3 364.7c0 33.2-225.7 33.2-225.7 0"/>
  <path class="st4" d="m326.3 432.6c0 33.2-225.7 33.2-225.7 0"/>
  <path class="st5" d="m114.7 422.7c-0.4-8.4 0-12.6-0.4-21 3.7 0.6 5.5 0.9 9.2 1.4 2.4 0.3 4.2 1.1 5.4 2.3s1.8 2.6 1.8 4.2c0 1.1-0.2 2-0.7 2.8-0.5 0.7-1.1 1.3-2 1.6-0.8 0.3-1.8 0.4-2.9 0.2 0.2-0.5 0.3-0.7 0.5-1.2 1.2 0.2 2.2 0.5 3.1 1.1s1.6 1.3 2.1 2.2 0.8 2 0.8 3.2c0 1.8-0.6 3.1-1.8 4-1.2 0.8-3.1 1.1-5.5 0.7-3.8-0.6-5.8-0.9-9.6-1.5zm4.1-3c2 0.3 3 0.5 5.1 0.8 1.1 0.2 2 0.1 2.5-0.2 0.6-0.3 0.9-0.9 0.8-1.8 0-0.9-0.3-1.6-0.9-2.1s-1.4-0.9-2.6-1c-2.2-0.3-3.2-0.5-5.4-0.8v-3.5c1.9 0.3 2.8 0.4 4.6 0.7 1.1 0.2 1.9 0.1 2.4-0.3 0.6-0.3 0.8-0.9 0.8-1.8 0-0.8-0.3-1.5-0.9-2s-1.4-0.8-2.4-1c-1.7-0.3-2.6-0.4-4.3-0.7 0.3 5.5 0.2 8.2 0.3 13.7z"/>
  <path class="st5" d="m139.3 426.4c-1.1-0.1-2.1-0.5-2.9-1s-1.5-1.2-1.9-2-0.7-1.7-0.7-2.6c0-1 0.2-1.8 0.6-2.4 0.4-0.7 1.1-1.1 2-1.4s2.1-0.4 3.6-0.2 2.3 0.3 3.8 0.4v2.7c-1.4-0.2-2-0.2-3.4-0.4-1-0.1-1.7 0-2 0.3-0.4 0.3-0.5 0.7-0.5 1.3s0.2 1.1 0.7 1.5c0.4 0.4 1 0.6 1.7 0.7s1.3 0 1.9-0.3c0.5-0.3 0.9-0.8 1.2-1.5 0.3 0.9 0.4 1.3 0.7 2.2-0.3 1-0.8 1.7-1.6 2.2-0.9 0.5-1.9 0.6-3.2 0.5zm4.4 0.3c0-1.3-0.1-1.9-0.1-3.1-0.1-0.3-0.2-0.4-0.3-0.7 0-2.3-0.1-3.4-0.1-5.6 0-1-0.3-1.8-0.8-2.4s-1.4-1-2.5-1.1c-0.8-0.1-1.5-0.1-2.3 0.1-0.7 0.2-1.4 0.5-1.9 0.9l-1.5-3.5c0.8-0.5 1.7-0.9 2.8-1.1s2.2-0.2 3.4-0.1c2.2 0.3 3.9 1 5.1 2.3s1.9 3.2 1.9 5.6c0 3.7 0.1 5.5 0.2 9.2-1.6-0.3-2.3-0.4-3.9-0.5z"/>
  <path class="st5" d="m156.3 428.2c-1.2-0.1-2.4-0.4-3.6-0.8-1.1-0.4-2.1-0.9-2.7-1.5 0.5-1.3 0.8-1.9 1.3-3.2 0.7 0.5 1.5 1 2.4 1.4s1.8 0.6 2.7 0.7c1 0.1 1.6 0 2-0.2s0.6-0.6 0.6-1-0.2-0.7-0.5-0.9-0.7-0.4-1.3-0.5c-0.5-0.1-1.1-0.3-1.7-0.5s-1.2-0.4-1.9-0.6c-0.6-0.2-1.2-0.5-1.7-0.9s-0.9-0.9-1.3-1.5c-0.3-0.6-0.5-1.4-0.5-2.3 0-1 0.2-1.9 0.8-2.6s1.3-1.3 2.3-1.6 2.2-0.5 3.6-0.3c1 0.1 2 0.3 3 0.6s1.9 0.8 2.6 1.3c-0.5 1.3-0.8 1.9-1.3 3.2-0.7-0.5-1.4-0.9-2.1-1.1s-1.4-0.4-2.1-0.4c-0.9-0.1-1.6 0-2 0.2s-0.6 0.6-0.6 1 0.2 0.7 0.5 0.9 0.7 0.4 1.3 0.6c0.5 0.2 1.1 0.3 1.7 0.5 0.6 0.1 1.2 0.3 1.9 0.6s1.2 0.5 1.7 0.9 0.9 0.9 1.3 1.5c0.3 0.6 0.5 1.4 0.5 2.3 0 1-0.2 1.9-0.7 2.6s-1.3 1.3-2.3 1.6c-1.3 0-2.5 0.1-3.9 0z"/>
  <path class="st5" d="m172.8 429.5c-1.6-0.1-3.1-0.6-4.4-1.4s-2.3-1.9-3-3.2-1.1-2.7-1.1-4.3 0.3-3 0.9-4.2 1.5-2.1 2.7-2.7 2.5-0.9 3.9-0.8 2.7 0.5 3.9 1.2 2.1 1.7 2.8 3 1 2.8 1.1 4.5v0.6 0.6c-4.7-0.3-7.1-0.4-11.8-0.8 0-1.1 0-1.6-0.1-2.7 3.8 0.3 5.7 0.4 9.6 0.6-0.6 0.3-1 0.4-1.6 0.7 0-0.8-0.2-1.6-0.5-2.2s-0.7-1.1-1.3-1.5c-0.5-0.4-1.2-0.6-1.9-0.6s-1.3 0.1-1.9 0.4c-0.5 0.3-1 0.8-1.3 1.4s-0.4 1.3-0.4 2.2v0.7c0 0.9 0.2 1.7 0.6 2.4s0.9 1.2 1.5 1.6 1.4 0.6 2.3 0.7c0.8 0.1 1.4 0 2-0.3 0.6-0.2 1.1-0.6 1.6-1.1 0.9 1.1 1.4 1.7 2.3 2.8-0.6 0.8-1.5 1.4-2.5 1.8s-2.1 0.7-3.4 0.6z"/>
  <path class="st5" d="m196.5 430.6c-1.4 0-2.6-0.4-3.7-1.1s-2-1.7-2.6-3c-0.7-1.3-1-2.7-1-4.4s0.3-3.1 0.9-4.4c0.6-1.2 1.5-2.1 2.6-2.8 1.1-0.6 2.3-0.9 3.7-0.9 1.2 0 2.3 0.4 3.2 1s1.6 1.5 2.2 2.8c0.5 1.2 0.8 2.8 0.8 4.7s-0.2 3.4-0.7 4.6-1.2 2.1-2.1 2.7c-1 0.6-2.1 0.9-3.3 0.8zm0.7-3.8c0.7 0 1.3-0.1 1.9-0.5 0.6-0.3 1-0.8 1.3-1.5s0.5-1.4 0.5-2.4c0-0.9-0.2-1.7-0.5-2.4s-0.8-1.2-1.4-1.6-1.2-0.6-1.9-0.6-1.3 0.1-1.9 0.5c-0.6 0.3-1 0.8-1.3 1.5-0.3 0.6-0.5 1.4-0.5 2.4 0 0.9 0.2 1.7 0.5 2.4s0.8 1.2 1.4 1.6c0.5 0.4 1.2 0.6 1.9 0.6zm3.8 3.7v-3.3-4.8c-0.1-1.9-0.2-2.9-0.3-4.8 0-3.7 0-5.6-0.1-9.4 1.7 0 2.5 0.1 4.2 0.1 0 8.9 0.1 13.3 0.1 22.2-1.5 0.1-2.3 0-3.9 0z"/>
  <path class="st5" d="m216.1 430.9c-1.7 0-3.1-0.4-4.3-1.1s-2.2-1.7-2.9-3-1-2.7-1-4.3 0.3-3 1-4.3c0.7-1.2 1.6-2.2 2.8-2.9s2.5-1.1 4-1.1c1.4 0 2.7 0.3 3.9 1 1.1 0.7 2.1 1.6 2.7 2.8 0.7 1.2 1 2.7 1 4.5v0.6c0 0.2 0 0.4-0.1 0.6-4.7 0.1-7.1 0.1-11.8 0.1v-2.7h9.6c-0.7 0.3-1 0.5-1.6 0.8 0-0.8-0.1-1.6-0.5-2.2-0.3-0.6-0.7-1.1-1.3-1.4-0.5-0.3-1.2-0.5-1.9-0.5s-1.4 0.2-1.9 0.5c-0.6 0.3-1 0.8-1.3 1.5-0.3 0.6-0.5 1.4-0.5 2.2v0.7c0 0.9 0.2 1.6 0.5 2.3 0.4 0.7 0.8 1.2 1.5 1.5 0.6 0.3 1.4 0.5 2.3 0.5 0.8 0 1.5-0.1 2-0.4 0.6-0.3 1.1-0.7 1.6-1.2 0.9 1.1 1.3 1.6 2.2 2.7-0.7 0.8-1.5 1.5-2.5 2-1.1 0.5-2.2 0.8-3.5 0.8z"/>
  <path class="st5" d="m233.8 430.3c0.1-8.4 0.1-12.6 0.2-20.9 3.5-0.1 5.2-0.2 8.7-0.3 2.1-0.1 3.9 0.2 5.4 1 1.6 0.8 2.8 1.9 3.6 3.4 0.9 1.5 1.3 3.3 1.2 5.5 0 2.1-0.5 4-1.4 5.6s-2.2 2.9-3.7 3.9c-1.6 1-3.4 1.5-5.4 1.6-3.5 0-5.2 0.1-8.6 0.2zm4.4-4.1c1.6-0.1 2.4-0.1 4-0.2 1.3-0.1 2.4-0.4 3.3-1s1.7-1.4 2.2-2.4 0.8-2.2 0.8-3.5-0.2-2.5-0.7-3.4-1.2-1.6-2.1-2.1-2-0.7-3.3-0.6c-1.6 0.1-2.4 0.1-4 0.2-0.1 5.2-0.1 7.8-0.2 13z"/>
  <path class="st5" d="m260.2 429.1c-1.1 0.1-2.1-0.1-2.9-0.4s-1.4-0.9-1.8-1.6-0.6-1.5-0.6-2.4c0-1 0.2-1.8 0.7-2.6 0.4-0.7 1.1-1.4 2-1.8 0.9-0.5 2.1-0.8 3.6-0.9s2.3-0.2 3.8-0.3v2.7c-1.3 0.1-2 0.2-3.4 0.3-1 0.1-1.7 0.3-2 0.7-0.4 0.4-0.6 0.8-0.6 1.4s0.2 1.1 0.6 1.4 1 0.4 1.7 0.4c0.7-0.1 1.3-0.3 1.9-0.7s1-1 1.2-1.7c0.2 0.8 0.4 1.3 0.6 2.1-0.3 1.1-0.9 1.9-1.7 2.5-0.8 0.5-1.9 0.8-3.1 0.9zm4.4-0.6v-3.1c-0.1-0.3-0.2-0.4-0.3-0.7 0-2.2 0.1-3.4 0.1-5.6 0-1-0.2-1.8-0.8-2.3-0.5-0.5-1.4-0.7-2.5-0.6-0.8 0.1-1.5 0.2-2.3 0.6-0.7 0.3-1.4 0.7-1.9 1.2-0.6-1.3-0.9-1.9-1.4-3.2 0.8-0.7 1.8-1.2 2.9-1.6s2.2-0.7 3.4-0.8c2.2-0.2 3.9 0.3 5.1 1.3 1.2 1.1 1.8 2.8 1.7 5.3-0.1 3.7-0.1 5.5-0.1 9.2-1.6 0.1-2.4 0.2-3.9 0.3z"/>
  <path class="st5" d="m270.7 415.9v-3.6c4-0.4 5.9-0.6 9.9-1v3.6c-3.9 0.4-5.9 0.6-9.9 1zm7.5 11.6c-1.7 0.2-3-0.2-4-1-0.9-0.9-1.4-2.3-1.4-4.2 0.1-5.6 0.1-8.5 0.1-14.2 1.6-0.2 2.5-0.2 4.1-0.4 0 5.6 0 8.5-0.1 14.1 0 0.7 0.2 1.2 0.5 1.5s0.8 0.5 1.3 0.4c0.7-0.1 1.2-0.3 1.7-0.8 0.4 1.3 0.7 1.9 1.1 3.1-0.4 0.4-0.9 0.7-1.5 0.9-0.6 0.4-1.2 0.5-1.8 0.6z"/>
  <path class="st5" d="m290.4 426.1c-1.5 0.2-2.9 0-4.1-0.6s-2.1-1.4-2.8-2.6-1-2.5-1-4.1 0.4-3.1 1-4.4c0.7-1.3 1.6-2.4 2.8-3.3s2.5-1.4 4-1.6 2.8 0 4 0.5c1.2 0.6 2.1 1.4 2.8 2.6s1 2.6 1 4.2-0.3 3.1-1 4.4-1.6 2.4-2.8 3.3c-1.1 0.9-2.4 1.4-3.9 1.6zm-0.1-3.8c0.7-0.1 1.3-0.3 1.9-0.8 0.5-0.4 1-1 1.3-1.7s0.5-1.5 0.5-2.4-0.2-1.7-0.5-2.3-0.8-1.1-1.3-1.4c-0.6-0.3-1.2-0.4-1.9-0.3s-1.3 0.3-1.9 0.8c-0.5 0.4-1 1-1.3 1.7s-0.5 1.5-0.5 2.5c0 0.9 0.2 1.7 0.5 2.3s0.8 1.1 1.3 1.4c0.6 0.2 1.2 0.3 1.9 0.2z"/>
  <path class="st5" d="m305.9 424c-1.2 0.2-2.4 0.2-3.6 0-1.1-0.2-2-0.4-2.7-0.8 0.5-1.4 0.8-2.1 1.4-3.5 0.7 0.4 1.4 0.6 2.4 0.8 0.9 0.2 1.8 0.2 2.7 0 1-0.1 1.6-0.4 2-0.7s0.6-0.7 0.6-1.2c0-0.4-0.2-0.6-0.5-0.8-0.3-0.1-0.7-0.2-1.2-0.2h-1.7c-0.6 0-1.2-0.1-1.9-0.1-0.6-0.1-1.2-0.3-1.7-0.5-0.5-0.3-0.9-0.7-1.3-1.2-0.3-0.5-0.5-1.3-0.5-2.2 0-1 0.2-2 0.8-2.8 0.5-0.9 1.3-1.6 2.3-2.2s2.2-1 3.6-1.2c1-0.1 2-0.2 3-0.1s1.9 0.3 2.6 0.7c-0.5 1.4-0.8 2.2-1.4 3.6-0.7-0.4-1.4-0.6-2.1-0.6-0.7-0.1-1.4 0-2.1 0.1-0.9 0.1-1.6 0.4-2 0.7s-0.6 0.7-0.6 1.2c0 0.4 0.2 0.7 0.5 0.8 0.3 0.2 0.7 0.3 1.2 0.3s1.1 0.1 1.7 0.1 1.2 0 1.9 0.1 1.2 0.3 1.7 0.5 0.9 0.6 1.3 1.2c0.3 0.5 0.5 1.2 0.5 2.1 0 1-0.3 1.9-0.8 2.7s-1.3 1.6-2.3 2.1c-1.1 0.4-2.4 0.9-3.8 1.1z"/>
 </g>
 <path class="st6" d="M926.6,75.3H523c-8.9,0-16.1,7.2-16.1,16.1v618.1c0,8.9,7.2,16.1,16.1,16.1h403.7"/>
 <line class="st6" x1="523" x2="926.6" y1="156.6" y2="156.6"/>
 <line class="st6" x1="523" x2="926.6" y1="237.9" y2="237.9"/>
 <line class="st6" x1="523" x2="926.6" y1="319.1" y2="319.1"/>
 <line class="st6" x1="523" x2="926.6" y1="400.4" y2="400.4"/>
 <line class="st6" x1="523" x2="926.6" y1="481.7" y2="481.7"/>
 <line class="st6" x1="523" x2="926.6" y1="563" y2="563"/>
 <line class="st6" x1="523" x2="926.6" y1="644.3" y2="644.3"/>
 <path class="st1" d="m413.5 400.4c0 5.8 3.7 10.9 9.2 12.7 9.1 3 9.1 7.7 9.1 10v290.3c0 7.2 5.7 13.5 12.9 13.5 1.2 0 2.3-0.1 3.4-0.4 0.4-0.1 0.8-0.4 0.9-0.8s0.1-0.9-0.1-1.2c-0.1-0.1-0.1-0.3-0.2-0.4-6.4-12-2.1-25.4 7.7-30.7 0.8-0.4 1.3-1.3 1.3-2.2v-268.1c0-8.1-2.4-15.3-6.9-21.1-0.3-0.4-0.5-1-0.5-1.5s0.2-1 0.5-1.5c4.5-5.9 6.9-13 6.9-21.1v-268c0-0.9-0.5-1.8-1.3-2.2-9.8-5.3-14.2-18.7-7.7-30.7 0.1-0.1 0.1-0.3 0.2-0.4 0.2-0.4 0.2-0.8 0.1-1.2-0.2-0.4-0.5-0.7-0.9-0.8-1.1-0.3-2.2-0.4-3.4-0.4-7.2 0-12.9 6.2-12.9 13.5v290.3c0 2.3 0 7-9.1 10-5.5 1.6-9.2 6.7-9.2 12.4z"/>
 <path class="st1" d="m476.9 719.6c5.2-8.5-0.7-20.4-10.6-21.4s-16.3 9.6-11.6 19.1 17.1 10.8 22.2 2.3z"/>
 <path class="st1" d="m454.7 83.6c4.7-9.5 17.1-10.8 22.2-2.3s-0.7 20.4-10.6 21.4-16.3-9.6-11.6-19.1z"/>
 <path class="st5" d="m550 127.4c-2.3 0-4.2-1-5.6-2.9s-2-4.7-2-8.2 0.7-6.3 2-8.2 3.2-2.8 5.6-2.8 4.2 0.9 5.6 2.8c1.3 1.9 2 4.6 2 8.2s-0.7 6.3-2 8.2c-1.4 1.9-3.3 2.9-5.6 2.9zm0-2.2c1.5 0 2.7-0.7 3.6-2.2s1.4-3.7 1.4-6.7-0.5-5.3-1.4-6.7-2.2-2.1-3.6-2.1c-1.5 0-2.7 0.7-3.6 2.1s-1.4 3.6-1.4 6.7 0.5 5.3 1.4 6.7 2.1 2.2 3.6 2.2zm0-6.9c-0.6 0-1-0.2-1.5-0.6-0.4-0.4-0.6-0.9-0.6-1.6s0.2-1.2 0.6-1.6 0.9-0.6 1.5-0.6 1 0.2 1.5 0.6c0.4 0.4 0.6 0.9 0.6 1.6s-0.2 1.2-0.6 1.6c-0.5 0.4-1 0.6-1.5 0.6z"/>
 <path class="st5" d="m562.1 127 6.2-8.4-5.7-7.8h3l2.6 3.6c0.3 0.4 0.6 0.9 0.9 1.3 0.3 0.5 0.7 0.9 1 1.4h0.1c0.3-0.4 0.6-0.9 0.9-1.4s0.6-0.9 0.9-1.4l2.4-3.5h2.9l-5.8 8 6.2 8.2h-3l-2.8-3.7c-0.3-0.5-0.7-0.9-1-1.5s-0.7-1-1.1-1.5h-0.1c-0.3 0.5-0.7 1-1 1.4-0.3 0.5-0.7 1-1 1.5l-2.7 3.8h-2.9z"/>
 <path class="st5" d="m589.9 127.4c-2.3 0-4.2-1-5.6-2.9s-2-4.7-2-8.2 0.7-6.3 2-8.2 3.2-2.8 5.6-2.8 4.2 0.9 5.6 2.8c1.3 1.9 2 4.6 2 8.2s-0.7 6.3-2 8.2c-1.4 1.9-3.2 2.9-5.6 2.9zm0-2.2c1.5 0 2.7-0.7 3.6-2.2s1.4-3.7 1.4-6.7-0.5-5.3-1.4-6.7-2.2-2.1-3.6-2.1c-1.5 0-2.7 0.7-3.6 2.1s-1.4 3.6-1.4 6.7 0.5 5.3 1.4 6.7 2.1 2.2 3.6 2.2zm0-6.9c-0.6 0-1-0.2-1.5-0.6-0.4-0.4-0.6-0.9-0.6-1.6s0.2-1.2 0.6-1.6 0.9-0.6 1.5-0.6 1 0.2 1.5 0.6c0.4 0.4 0.6 0.9 0.6 1.6s-0.2 1.2-0.6 1.6c-0.5 0.4-0.9 0.6-1.5 0.6z"/>
 <path class="st5" d="m603.1 127v-2.3h6.1v-15.6h-4.8v-1.8c1.2-0.2 2.3-0.4 3.1-0.7 0.8-0.2 1.6-0.6 2.3-0.9h2v19h5.6v2.3h-14.3z"/>
 <path class="st5" d="m629.8 127.4c-2.3 0-4.2-1-5.6-2.9s-2-4.7-2-8.2 0.7-6.3 2-8.2 3.2-2.8 5.6-2.8 4.2 0.9 5.6 2.8c1.3 1.9 2 4.6 2 8.2s-0.7 6.3-2 8.2-3.2 2.9-5.6 2.9zm0-2.2c1.5 0 2.7-0.7 3.6-2.2s1.4-3.7 1.4-6.7-0.5-5.3-1.4-6.7-2.2-2.1-3.6-2.1c-1.5 0-2.7 0.7-3.6 2.1s-1.4 3.6-1.4 6.7 0.5 5.3 1.4 6.7 2.2 2.2 3.6 2.2zm0-6.9c-0.6 0-1-0.2-1.5-0.6-0.4-0.4-0.6-0.9-0.6-1.6s0.2-1.2 0.6-1.6 0.9-0.6 1.5-0.6 1 0.2 1.5 0.6c0.4 0.4 0.6 0.9 0.6 1.6s-0.2 1.2-0.6 1.6-0.9 0.6-1.5 0.6z"/>
 <path class="st5" d="m643 127v-2.3h6.1v-15.6h-4.8v-1.8c1.2-0.2 2.3-0.4 3.1-0.7 0.8-0.2 1.6-0.6 2.3-0.9h2v19h5.6v2.3h-14.3z"/>
 <path class="st5" d="m669.8 127.4c-0.8 0-1.4-0.3-1.9-0.8s-0.8-1.2-0.8-2 0.3-1.5 0.8-2.1c0.5-0.5 1.2-0.8 1.9-0.8s1.4 0.3 1.9 0.8 0.8 1.2 0.8 2.1c0 0.8-0.3 1.5-0.8 2s-1.2 0.8-1.9 0.8z"/>
 <path class="st5" d="m689.7 127.4c-0.8 0-1.4-0.3-1.9-0.8s-0.8-1.2-0.8-2 0.3-1.5 0.8-2.1c0.5-0.5 1.2-0.8 1.9-0.8s1.4 0.3 1.9 0.8 0.8 1.2 0.8 2.1c0 0.8-0.3 1.5-0.8 2s-1.1 0.8-1.9 0.8z"/>
 <path class="st5" d="m709.7 127.4c-0.8 0-1.4-0.3-1.9-0.8s-0.8-1.2-0.8-2 0.3-1.5 0.8-2.1c0.5-0.5 1.2-0.8 1.9-0.8s1.4 0.3 1.9 0.8 0.8 1.2 0.8 2.1c0 0.8-0.3 1.5-0.8 2s-1.1 0.8-1.9 0.8z"/>
 <path class="st5" d="m550 208.1c-2.3 0-4.2-1-5.6-2.9s-2-4.7-2-8.2 0.7-6.3 2-8.1 3.2-2.8 5.6-2.8 4.2 0.9 5.6 2.8c1.3 1.9 2 4.6 2 8.1 0 3.6-0.7 6.3-2 8.2-1.4 1.9-3.3 2.9-5.6 2.9zm0-2.2c1.5 0 2.7-0.7 3.6-2.2s1.4-3.7 1.4-6.7-0.5-5.3-1.4-6.7-2.2-2.1-3.6-2.1c-1.5 0-2.7 0.7-3.6 2.1s-1.4 3.6-1.4 6.7 0.5 5.3 1.4 6.7 2.1 2.2 3.6 2.2zm0-6.9c-0.6 0-1-0.2-1.5-0.6-0.4-0.4-0.6-0.9-0.6-1.6s0.2-1.2 0.6-1.6 0.9-0.6 1.5-0.6 1 0.2 1.5 0.6c0.4 0.4 0.6 0.9 0.6 1.6s-0.2 1.2-0.6 1.6c-0.5 0.4-1 0.6-1.5 0.6z"/>
 <path class="st5" d="m562.1 207.7 6.2-8.4-5.7-7.8h3l2.6 3.6c0.3 0.4 0.6 0.9 0.9 1.4s0.7 0.9 1 1.4h0.1c0.3-0.4 0.6-0.9 0.9-1.4s0.6-0.9 0.9-1.4l2.4-3.5h2.9l-5.8 8 6.2 8.1h-3l-2.8-3.7c-0.3-0.5-0.7-0.9-1-1.5-0.4-0.5-0.7-1-1.1-1.5h-0.1c-0.3 0.5-0.7 1-1 1.4s-0.7 1-1 1.5l-2.7 3.7-2.9 0.1z"/>
 <path class="st5" d="m591.6 208.1c-1.8 0-3.4-0.4-4.8-1.4-1.4-0.9-2.6-2.2-3.4-3.9s-1.3-3.7-1.3-6.1 0.4-4.4 1.3-6.1 2-3 3.5-3.9 3.2-1.4 5-1.4c1.3 0 2.5 0.3 3.5 0.8s1.8 1.1 2.5 1.9l-1.6 1.8c-0.6-0.6-1.2-1.1-1.9-1.4s-1.5-0.6-2.5-0.6c-1.4 0-2.6 0.4-3.6 1.1s-1.8 1.7-2.4 3-0.9 2.9-0.9 4.7 0.3 3.4 0.9 4.7 1.4 2.4 2.4 3.1 2.2 1.1 3.6 1.1c1 0 1.9-0.2 2.7-0.6s1.5-1 2.2-1.8l1.6 1.7c-0.9 1-1.8 1.8-3 2.3-1.1 0.7-2.4 1-3.8 1z"/>
 <path class="st5" d="m609.9 208.1c-1.6 0-3.1-0.4-4.4-1.4s-2.2-2.2-3-3.9-1.1-3.7-1.1-6.1 0.3-4.4 1.1-6 1.7-3 3-3.8c1.3-0.9 2.7-1.3 4.4-1.3s3.1 0.4 4.4 1.3 2.2 2.2 3 3.8c0.7 1.7 1.1 3.7 1.1 6 0 2.4-0.3 4.4-1.1 6.1s-1.7 3-3 3.9-2.8 1.4-4.4 1.4zm0-2.4c1.7 0 3-0.8 4-2.4s1.5-3.8 1.5-6.6-0.5-4.9-1.5-6.5-2.3-2.3-4-2.3-3 0.8-4 2.3-1.5 3.7-1.5 6.5 0.5 5 1.5 6.6 2.3 2.4 4 2.4z"/>
 <path class="st5" d="m624.3 207.7v-21.8h13.4v2.3h-10.6v7.4h9v2.3h-9v9.8h-2.8z"/>
 <path class="st5" d="m643.6 207.7v-21.8h13.5v2.3h-10.7v6.9h9v2.4h-9v7.9h11v2.4l-13.8-0.1z"/>
 <path class="st5" d="m669.8 208.1c-0.8 0-1.4-0.3-1.9-0.8s-0.8-1.2-0.8-2 0.3-1.5 0.8-2.1 1.2-0.8 1.9-0.8 1.4 0.3 1.9 0.8 0.8 1.2 0.8 2.1-0.3 1.5-0.8 2-1.2 0.8-1.9 0.8z"/>
 <path class="st5" d="m689.7 208.1c-0.8 0-1.4-0.3-1.9-0.8s-0.8-1.2-0.8-2 0.3-1.5 0.8-2.1 1.2-0.8 1.9-0.8 1.4 0.3 1.9 0.8 0.8 1.2 0.8 2.1-0.3 1.5-0.8 2-1.1 0.8-1.9 0.8z"/>
 <path class="st5" d="m709.7 208.1c-0.8 0-1.4-0.3-1.9-0.8s-0.8-1.2-0.8-2 0.3-1.5 0.8-2.1 1.2-0.8 1.9-0.8 1.4 0.3 1.9 0.8 0.8 1.2 0.8 2.1-0.3 1.5-0.8 2-1.1 0.8-1.9 0.8z"/>
 <path class="st5" d="m550 289.6c-2.3 0-4.2-1-5.6-2.9s-2-4.7-2-8.2 0.7-6.3 2-8.1 3.2-2.8 5.6-2.8 4.2 0.9 5.6 2.8c1.3 1.9 2 4.6 2 8.1s-0.7 6.3-2 8.2c-1.4 2-3.3 2.9-5.6 2.9zm0-2.2c1.5 0 2.7-0.7 3.6-2.2s1.4-3.7 1.4-6.7-0.5-5.3-1.4-6.7-2.2-2.1-3.6-2.1c-1.5 0-2.7 0.7-3.6 2.1s-1.4 3.6-1.4 6.7 0.5 5.3 1.4 6.7 2.1 2.2 3.6 2.2zm0-6.9c-0.6 0-1-0.2-1.5-0.6-0.4-0.4-0.6-0.9-0.6-1.6s0.2-1.2 0.6-1.6 0.9-0.6 1.5-0.6 1 0.2 1.5 0.6c0.4 0.4 0.6 0.9 0.6 1.6s-0.2 1.2-0.6 1.6-1 0.6-1.5 0.6z"/>
 <path class="st5" d="m562.1 289.2 6.2-8.4-5.7-7.8h3l2.6 3.6c0.3 0.4 0.6 0.9 0.9 1.4s0.7 0.9 1 1.4h0.1c0.3-0.4 0.6-0.9 0.9-1.4s0.6-1 0.9-1.4l2.4-3.5h2.9l-5.8 8 6.2 8.1h-3l-2.8-3.7c-0.3-0.5-0.7-1-1-1.5-0.4-0.5-0.7-1-1.1-1.5h-0.1c-0.3 0.5-0.7 1-1 1.5s-0.7 1-1 1.5l-2.7 3.7h-2.9z"/>
 <path class="st5" d="m583.1 289.2v-2.2h6.1v-15.6h-4.8v-1.8c1.2-0.2 2.3-0.4 3.1-0.6s1.6-0.6 2.3-0.9h2v19h5.6v2.3l-14.3-0.2z"/>
 <path class="st5" d="m600.9 289.2 7.3-21.8h3.1l7.4 21.8h-2.9l-2.1-6.7h-7.9l-2.1 6.7h-2.8zm6.7-12.2-1 3.3h6.5l-1-3.3c-0.4-1.2-0.8-2.4-1.1-3.6-0.4-1.2-0.7-2.5-1-3.7h-0.1c-0.3 1.3-0.7 2.5-1.1 3.7-0.5 1.2-0.8 2.4-1.2 3.6z"/>
 <path class="st5" d="m629.8 289.6c-2.3 0-4.2-1-5.6-2.9s-2-4.7-2-8.2 0.7-6.3 2-8.1 3.2-2.8 5.6-2.8 4.2 0.9 5.6 2.8c1.3 1.9 2 4.6 2 8.1s-0.7 6.3-2 8.2c-1.3 2-3.2 2.9-5.6 2.9zm0-2.2c1.5 0 2.7-0.7 3.6-2.2s1.4-3.7 1.4-6.7-0.5-5.3-1.4-6.7-2.2-2.1-3.6-2.1c-1.5 0-2.7 0.7-3.6 2.1s-1.4 3.6-1.4 6.7 0.5 5.3 1.4 6.7 2.2 2.2 3.6 2.2zm0-6.9c-0.6 0-1-0.2-1.5-0.6-0.4-0.4-0.6-0.9-0.6-1.6s0.2-1.2 0.6-1.6 0.9-0.6 1.5-0.6 1 0.2 1.5 0.6c0.4 0.4 0.6 0.9 0.6 1.6s-0.2 1.2-0.6 1.6-0.9 0.6-1.5 0.6z"/>
 <path class="st5" d="m644.2 289.2v-21.8h13.4v2.3h-10.6v7.4h9v2.3h-9v9.8h-2.8z"/>
 <path class="st5" d="m669.8 289.6c-0.8 0-1.4-0.3-1.9-0.8s-0.8-1.2-0.8-2 0.3-1.5 0.8-2 1.2-0.8 1.9-0.8 1.4 0.3 1.9 0.8 0.8 1.2 0.8 2c0 0.9-0.3 1.5-0.8 2-0.5 0.6-1.2 0.8-1.9 0.8z"/>
 <path class="st5" d="m689.7 289.6c-0.8 0-1.4-0.3-1.9-0.8s-0.8-1.2-0.8-2 0.3-1.5 0.8-2 1.2-0.8 1.9-0.8 1.4 0.3 1.9 0.8 0.8 1.2 0.8 2c0 0.9-0.3 1.5-0.8 2-0.5 0.6-1.1 0.8-1.9 0.8z"/>
 <path class="st5" d="m709.7 289.6c-0.8 0-1.4-0.3-1.9-0.8s-0.8-1.2-0.8-2 0.3-1.5 0.8-2 1.2-0.8 1.9-0.8 1.4 0.3 1.9 0.8 0.8 1.2 0.8 2c0 0.9-0.3 1.5-0.8 2-0.5 0.6-1.1 0.8-1.9 0.8z"/>
 <path class="st5" d="m550 694.8c-2.3 0-4.2-1-5.6-2.9s-2-4.7-2-8.2 0.7-6.3 2-8.2c1.4-1.9 3.2-2.8 5.6-2.8s4.2 0.9 5.6 2.8c1.3 1.9 2 4.6 2 8.2s-0.7 6.3-2 8.2c-1.4 2-3.3 2.9-5.6 2.9zm0-2.2c1.5 0 2.7-0.7 3.6-2.2s1.4-3.7 1.4-6.7-0.5-5.3-1.4-6.7-2.2-2.1-3.6-2.1c-1.5 0-2.7 0.7-3.6 2.1s-1.4 3.6-1.4 6.7 0.5 5.3 1.4 6.7c0.9 1.5 2.1 2.2 3.6 2.2zm0-6.9c-0.6 0-1-0.2-1.5-0.6-0.4-0.4-0.6-0.9-0.6-1.6s0.2-1.2 0.6-1.6 0.9-0.6 1.5-0.6 1 0.2 1.5 0.6c0.4 0.4 0.6 0.9 0.6 1.6s-0.2 1.2-0.6 1.6-1 0.6-1.5 0.6z"/>
 <path class="st5" d="m562.1 694.4 6.2-8.4-5.7-7.8h3l2.6 3.6c0.3 0.4 0.6 0.9 0.9 1.3 0.3 0.5 0.7 0.9 1 1.4h0.1c0.3-0.4 0.6-0.9 0.9-1.4s0.6-1 0.9-1.4l2.4-3.5h2.9l-5.8 8 6.2 8.2h-3l-2.8-3.7c-0.3-0.5-0.7-1-1-1.5s-0.7-1-1.1-1.5h-0.1c-0.3 0.5-0.7 1-1 1.5s-0.7 1-1 1.5l-2.7 3.7h-2.9z"/>
 <path class="st5" d="m589.4 694.8c-1.9 0-3.4-0.3-4.6-0.9s-2.2-1.3-3-2l1.4-1.8c0.7 0.6 1.5 1.2 2.5 1.7s2.1 0.8 3.5 0.8c1 0 1.9-0.2 2.7-0.6s1.5-1 2-1.7 0.7-1.6 0.7-2.6c0-1.5-0.5-2.6-1.4-3.4s-2.2-1.2-3.8-1.2c-0.9 0-1.6 0.1-2.3 0.3-0.6 0.2-1.3 0.5-2.1 1l-1.5-0.9 0.7-10.2h12v2.4h-9.6l-0.6 6.3c0.6-0.3 1.2-0.5 1.8-0.6s1.3-0.2 2.1-0.2c1.3 0 2.6 0.2 3.7 0.7s2 1.2 2.6 2.2c0.7 1 1 2.2 1 3.8s-0.4 2.8-1.1 3.9-1.7 1.9-2.9 2.5c-1.1 0.2-2.4 0.5-3.8 0.5z"/>
 <path class="st5" d="m612.1 694.4v-5.9h-11v-1.8l10.6-13.5h2.9v13.2h3.3v2.2h-3.3v5.9l-2.5-0.1zm-7.9-8h7.9v-6.6c0-0.6 0-1.2 0.1-1.9s0.1-1.3 0.1-1.9h-0.2c-0.3 0.5-0.7 1-1.1 1.5s-0.7 1-1.1 1.5l-5.7 7.4z"/>
 <path class="st5" d="m628.4 694.8c-1.3 0-2.4-0.2-3.4-0.7-1-0.4-1.8-1-2.5-1.6l1.5-1.7c0.5 0.5 1.2 0.9 1.9 1.2s1.5 0.5 2.3 0.5c1.1 0 2.2-0.3 3.1-0.9s1.7-1.5 2.3-2.9c0.6-1.3 0.9-3.1 1-5.4-0.9 0.8-1.8 1.5-2.8 2s-2.1 0.7-3.2 0.7c-2 0-3.5-0.5-4.8-1.7-1.2-1.1-1.8-2.7-1.8-4.9 0-1.3 0.3-2.5 1-3.6 0.7-1 1.5-1.8 2.6-2.4s2.2-0.9 3.5-0.9c1.5 0 2.9 0.4 4.2 1.1s2.2 1.9 2.9 3.4 1.1 3.4 1.1 5.7c0 2.1-0.2 3.9-0.7 5.4s-1.2 2.7-2 3.7c-0.8 0.9-1.8 1.6-2.8 2.1-1.1 0.7-2.2 0.9-3.4 0.9zm-3.7-15.2c0 1.4 0.4 2.5 1.2 3.3s1.9 1.2 3.4 1.2c0.8 0 1.7-0.2 2.7-0.7 1-0.4 1.9-1.2 2.7-2.2-0.2-2.1-0.8-3.6-1.7-4.7s-2.2-1.6-3.7-1.6c-1.3 0-2.3 0.4-3.2 1.3-1 0.9-1.4 2-1.4 3.4z"/>
 <path class="st5" d="m642.7 694.4v-21.8h5.4c3.3 0 5.8 0.9 7.5 2.8s2.6 4.5 2.6 8-0.9 6.2-2.6 8.1-4.2 2.9-7.4 2.9h-5.5zm2.8-2.2h2.4c2.5 0 4.4-0.8 5.6-2.3s1.8-3.7 1.8-6.4-0.6-4.9-1.8-6.3c-1.2-1.5-3.1-2.2-5.6-2.2h-2.4v17.2z"/>
 <path class="st5" d="m669.8 694.8c-0.8 0-1.4-0.3-1.9-0.8s-0.8-1.2-0.8-2 0.3-1.5 0.8-2 1.2-0.8 1.9-0.8 1.4 0.3 1.9 0.8 0.8 1.2 0.8 2-0.3 1.5-0.8 2-1.2 0.8-1.9 0.8z"/>
 <path class="st5" d="m689.7 694.8c-0.8 0-1.4-0.3-1.9-0.8s-0.8-1.2-0.8-2 0.3-1.5 0.8-2 1.2-0.8 1.9-0.8 1.4 0.3 1.9 0.8 0.8 1.2 0.8 2-0.3 1.5-0.8 2-1.1 0.8-1.9 0.8z"/>
 <path class="st5" d="m709.7 694.8c-0.8 0-1.4-0.3-1.9-0.8s-0.8-1.2-0.8-2 0.3-1.5 0.8-2 1.2-0.8 1.9-0.8 1.4 0.3 1.9 0.8 0.8 1.2 0.8 2-0.3 1.5-0.8 2-1.1 0.8-1.9 0.8z"/>
 <path class="st5" d="m550 534.6c-2.3 0-4.2-1-5.6-2.9s-2-4.7-2-8.2 0.7-6.3 2-8.2c1.4-1.9 3.2-2.8 5.6-2.8s4.2 0.9 5.6 2.8c1.3 1.9 2 4.6 2 8.2s-0.7 6.3-2 8.2c-1.4 1.9-3.3 2.9-5.6 2.9zm0-2.2c1.5 0 2.7-0.7 3.6-2.2s1.4-3.7 1.4-6.7-0.5-5.3-1.4-6.7-2.2-2.1-3.6-2.1c-1.5 0-2.7 0.7-3.6 2.1s-1.4 3.6-1.4 6.7 0.5 5.3 1.4 6.7c0.9 1.5 2.1 2.2 3.6 2.2zm0-6.9c-0.6 0-1-0.2-1.5-0.6-0.4-0.4-0.6-0.9-0.6-1.6s0.2-1.2 0.6-1.6 0.9-0.6 1.5-0.6 1 0.2 1.5 0.6c0.4 0.4 0.6 0.9 0.6 1.6s-0.2 1.2-0.6 1.6-1 0.6-1.5 0.6z"/>
 <path class="st5" d="m562.1 534.2 6.2-8.4-5.7-7.8h3l2.6 3.6c0.3 0.4 0.6 0.9 0.9 1.3 0.3 0.5 0.7 0.9 1 1.4h0.1c0.3-0.4 0.6-0.9 0.9-1.4s0.6-1 0.9-1.4l2.4-3.5h2.9l-5.8 8 6.2 8.2h-3l-2.8-3.7c-0.3-0.5-0.7-1-1-1.5s-0.7-1-1.1-1.5h-0.1c-0.3 0.5-0.7 1-1 1.5s-0.7 1-1 1.5l-2.7 3.7h-2.9z"/>
 <path class="st5" d="m589.9 534.6c-2.3 0-4.2-1-5.6-2.9s-2-4.7-2-8.2 0.7-6.3 2-8.2c1.4-1.9 3.2-2.8 5.6-2.8s4.2 0.9 5.6 2.8c1.3 1.9 2 4.6 2 8.2s-0.7 6.3-2 8.2c-1.4 1.9-3.2 2.9-5.6 2.9zm0-2.2c1.5 0 2.7-0.7 3.6-2.2s1.4-3.7 1.4-6.7-0.5-5.3-1.4-6.7-2.2-2.1-3.6-2.1c-1.5 0-2.7 0.7-3.6 2.1s-1.4 3.6-1.4 6.7 0.5 5.3 1.4 6.7c0.9 1.5 2.1 2.2 3.6 2.2zm0-6.9c-0.6 0-1-0.2-1.5-0.6-0.4-0.4-0.6-0.9-0.6-1.6s0.2-1.2 0.6-1.6 0.9-0.6 1.5-0.6 1 0.2 1.5 0.6c0.4 0.4 0.6 0.9 0.6 1.6s-0.2 1.2-0.6 1.6-0.9 0.6-1.5 0.6z"/>
 <path class="st5" d="m603.1 534.2v-2.3h6.1v-15.6h-4.8v-1.8c1.2-0.2 2.3-0.4 3.1-0.7s1.6-0.6 2.3-0.9h2v19h5.6v2.3h-14.3z"/>
 <path class="st5" d="m1022 278.6c0 5.8-4.5 9.1-13.2 9.1h-16.7v-33.6h15.7c8.1 0 12.4 3.4 12.4 8.7 0 3.5-1.7 6-4.3 7.4 3.7 1.2 6.1 4 6.1 8.4zm-23.6-19.6v9.3h8.8c4.3 0 6.8-1.5 6.8-4.6s-2.4-4.7-6.8-4.7h-8.8zm17.3 18.9c0-3.4-2.5-4.8-7.2-4.8h-10.1v9.7h10.1c4.7 0 7.2-1.5 7.2-4.9z"/>
 <path class="st5" d="m1049 272.7v15h-5.7v-3.1c-1.4 2.2-4.2 3.5-8.1 3.5-5.9 0-9.6-3.2-9.6-7.7 0-4.3 2.9-7.6 10.7-7.6h6.6v-0.4c0-3.5-2.1-5.6-6.4-5.6-2.9 0-5.9 1-7.8 2.5l-2.4-4.4c2.7-2.1 6.7-3.2 10.8-3.2 7.6 0.1 11.9 3.6 11.9 11zm-6 7v-3h-6.2c-4.1 0-5.2 1.5-5.2 3.4 0 2.2 1.8 3.6 4.9 3.6 2.9 0 5.4-1.4 6.5-4z"/>
 <path class="st5" d="m1054 285.1 2.3-4.6c2.3 1.5 5.7 2.5 8.9 2.5 3.8 0 5.4-1.1 5.4-2.8 0-4.9-15.8-0.3-15.8-10.5 0-4.8 4.4-8 11.3-8 3.4 0 7.3 0.8 9.6 2.2l-2.3 4.6c-2.4-1.4-4.9-1.9-7.3-1.9-3.6 0-5.4 1.2-5.4 2.9 0 5.2 15.8 0.6 15.8 10.6 0 4.8-4.4 7.9-11.6 7.9-4.3 0-8.6-1.2-10.9-2.9z"/>
 <path class="st5" d="m1106 276.8h-20.1c0.7 3.7 3.8 6.1 8.3 6.1 2.9 0 5.1-0.9 7-2.8l3.2 3.7c-2.3 2.7-5.9 4.2-10.3 4.2-8.6 0-14.2-5.5-14.2-13.2 0-7.6 5.6-13.1 13.2-13.1 7.5 0 13 5.2 13 13.2-0.1 0.6-0.1 1.3-0.1 1.9zm-20.2-4h14.5c-0.5-3.7-3.3-6.2-7.2-6.2s-6.7 2.5-7.3 6.2z"/>
 <path class="st5" d="m1150 252.1v35.6h-5.8v-3.3c-2 2.4-5 3.6-8.5 3.6-7.4 0-13-5.2-13-13.2s5.5-13.1 13-13.1c3.3 0 6.2 1.1 8.3 3.5v-13.2l6 0.1zm-5.9 22.8c0-4.9-3.3-8-7.6-8s-7.6 3.1-7.6 8 3.3 8 7.6 8c4.2 0 7.6-3.1 7.6-8z"/>
 <path class="st5" d="m1182 276.8h-20.1c0.7 3.7 3.8 6.1 8.3 6.1 2.9 0 5.1-0.9 7-2.8l3.2 3.7c-2.3 2.7-5.9 4.2-10.3 4.2-8.6 0-14.2-5.5-14.2-13.2 0-7.6 5.6-13.1 13.2-13.1 7.5 0 13 5.2 13 13.2 0 0.6 0 1.3-0.1 1.9zm-20.1-4h14.5c-0.5-3.7-3.3-6.2-7.2-6.2s-6.8 2.5-7.3 6.2z"/>
 <path class="st5" d="m1226 252.1v35.6h-5.8v-3.3c-2 2.4-5 3.6-8.5 3.6-7.4 0-13-5.2-13-13.2s5.5-13.1 13-13.1c3.3 0 6.2 1.1 8.3 3.5v-13.2l6 0.1zm-5.9 22.8c0-4.9-3.3-8-7.6-8s-7.6 3.1-7.6 8 3.3 8 7.6 8 7.6-3.1 7.6-8z"/>
 <path class="st5" d="m1255 272.7v15h-5.7v-3.1c-1.4 2.2-4.2 3.5-8.1 3.5-5.9 0-9.6-3.2-9.6-7.7 0-4.3 2.9-7.6 10.7-7.6h6.6v-0.4c0-3.5-2.1-5.6-6.4-5.6-2.9 0-5.9 1-7.8 2.5l-2.4-4.4c2.7-2.1 6.7-3.2 10.8-3.2 7.6 0.1 11.9 3.6 11.9 11zm-6 7v-3h-6.2c-4.1 0-5.2 1.5-5.2 3.4 0 2.2 1.8 3.6 4.9 3.6 2.9 0 5.5-1.4 6.5-4z"/>
 <path class="st5" d="m1278 286.3c-1.4 1.2-3.6 1.7-5.8 1.7-5.6 0-8.8-3-8.8-8.6v-12.3h-4.2v-4.8h4.2v-5.9h6v5.9h6.9v4.8h-6.9v12.2c0 2.5 1.2 3.8 3.6 3.8 1.2 0 2.4-0.3 3.4-1.1l1.6 4.3z"/>
 <path class="st5" d="m1280 274.9c0-7.7 5.8-13.1 13.6-13.1 8 0 13.7 5.4 13.7 13.1s-5.7 13.2-13.7 13.2c-7.8-0.1-13.6-5.5-13.6-13.2zm21.3 0c0-4.9-3.3-8-7.6-8s-7.6 3.1-7.6 8 3.3 8 7.6 8 7.6-3.1 7.6-8z"/>
 <path class="st5" d="m1310 285.1 2.3-4.6c2.3 1.5 5.7 2.5 8.9 2.5 3.8 0 5.4-1.1 5.4-2.8 0-4.9-15.8-0.3-15.8-10.5 0-4.8 4.4-8 11.3-8 3.4 0 7.3 0.8 9.6 2.2l-2.3 4.6c-2.4-1.4-4.9-1.9-7.3-1.9-3.6 0-5.4 1.2-5.4 2.9 0 5.2 15.8 0.6 15.8 10.6 0 4.8-4.4 7.9-11.6 7.9-4.4 0-8.6-1.2-10.9-2.9z"/>
 <path class="st5" d="m1349 270.9c0-10 7.7-17.3 18-17.3 5.5 0 10.2 2 13.3 5.6l-4 3.8c-2.4-2.6-5.5-3.9-9-3.9-7 0-12 4.9-12 11.8s5 11.8 12 11.8c3.5 0 6.5-1.3 9-4l4 3.8c-3.1 3.6-7.8 5.6-13.3 5.6-10.3 0.1-18-7.2-18-17.2z"/>
 <path class="st5" d="m1386 252.1h6v35.6h-6v-35.6z"/>
 <path class="st5" d="m1422 272.7v15h-5.7v-3.1c-1.4 2.2-4.2 3.5-8.1 3.5-5.9 0-9.6-3.2-9.6-7.7 0-4.3 2.9-7.6 10.7-7.6h6.6v-0.4c0-3.5-2.1-5.6-6.4-5.6-2.9 0-5.9 1-7.8 2.5l-2.4-4.4c2.7-2.1 6.7-3.2 10.8-3.2 7.6 0.1 11.9 3.6 11.9 11zm-6 7v-3h-6.2c-4.1 0-5.2 1.5-5.2 3.4 0 2.2 1.8 3.6 4.9 3.6 2.9 0 5.5-1.4 6.5-4z"/>
 <path class="st5" d="m1453 262.1-11 25.6h-6.2l-11-25.6h6.2l8 19 8.2-19h5.8z"/>
 <path class="st5" d="m1480 276.8h-20.1c0.7 3.7 3.8 6.1 8.3 6.1 2.9 0 5.1-0.9 7-2.8l3.2 3.7c-2.3 2.7-5.9 4.2-10.3 4.2-8.6 0-14.2-5.5-14.2-13.2 0-7.6 5.6-13.1 13.2-13.1 7.5 0 13 5.2 13 13.2 0 0.6 0 1.3-0.1 1.9zm-20.2-4h14.5c-0.5-3.7-3.3-6.2-7.2-6.2-3.8 0-6.7 2.5-7.3 6.2z"/>
 <path class="st5" d="m1496 247.3h5.4l-15.8 45.2h-5.4l15.8-45.2z"/>
 <path class="st5" d="m1536 254.1-14.6 33.6h-6.1l-14.7-33.6h6.8l11.2 25.9 11.3-25.9h6.1z"/>
 <path class="st5" d="m1559 272.7v15h-5.7v-3.1c-1.4 2.2-4.2 3.5-8.1 3.5-5.9 0-9.6-3.2-9.6-7.7 0-4.3 2.9-7.6 10.7-7.6h6.6v-0.4c0-3.5-2.1-5.6-6.4-5.6-2.9 0-5.9 1-7.8 2.5l-2.4-4.4c2.7-2.1 6.7-3.2 10.8-3.2 7.6 0.1 11.9 3.6 11.9 11zm-6 7v-3h-6.2c-4.1 0-5.2 1.5-5.2 3.4 0 2.2 1.8 3.6 4.9 3.6 3 0 5.5-1.4 6.5-4z"/>
 <path class="st5" d="m1566 252.1h6v35.6h-6v-35.6z"/>
 <path class="st5" d="m1578 274.9c0-7.7 5.8-13.1 13.6-13.1 8 0 13.7 5.4 13.7 13.1s-5.7 13.2-13.7 13.2c-7.9-0.1-13.6-5.5-13.6-13.2zm21.2 0c0-4.9-3.3-8-7.6-8s-7.6 3.1-7.6 8 3.3 8 7.6 8c4.4 0 7.6-3.1 7.6-8z"/>
 <path class="st5" d="m1626 261.8v5.7c-0.5-0.1-1-0.1-1.4-0.1-4.6 0-7.4 2.7-7.4 7.9v12.4h-6v-25.6h5.7v3.7c1.7-2.7 4.8-4 9.1-4z"/>
 <path class="st5" d="m987.2 387.6h24v3.9h-24v-3.9z"/>
 <path class="st5" d="M1029,369.3h6.2v28.3h17.6v5.3H1029V369.3z"/>
 <path class="st5" d="m1055 390.1c0-7.7 5.8-13.1 13.6-13.1 8 0 13.7 5.4 13.7 13.1s-5.7 13.2-13.7 13.2c-7.8-0.1-13.6-5.5-13.6-13.2zm21.3 0c0-4.9-3.3-8-7.6-8s-7.6 3.1-7.6 8 3.3 8 7.6 8 7.6-3.1 7.6-8z"/>
 <path class="st5" d="m1113 388.2v14.7h-6v-13.9c0-4.6-2.3-6.8-6.1-6.8-4.3 0-7.2 2.6-7.2 7.7v13h-6v-25.6h5.7v3.3c2-2.4 5.1-3.6 8.8-3.6 6.3 0 10.8 3.5 10.8 11.2z"/>
 <path class="st5" d="m1146 377.3v21.7c0 9.3-4.8 13.5-13.8 13.5-4.8 0-9.6-1.2-12.5-3.6l2.7-4.5c2.3 1.9 5.9 3.1 9.5 3.1 5.7 0 8.2-2.6 8.2-7.8v-1.3c-2.1 2.3-5.1 3.4-8.6 3.4-7.3 0-13-5-13-12.4s5.6-12.3 13-12.3c3.6 0 6.8 1.2 8.9 3.7v-3.4h5.6v-0.1zm-5.9 12c0-4.3-3.3-7.2-7.8-7.2-4.6 0-7.8 2.9-7.8 7.2 0 4.4 3.3 7.3 7.8 7.3 4.6 0.1 7.8-2.9 7.8-7.3z"/>
 <path class="st5" d="m1154 369.4c0-2 1.6-3.6 3.8-3.6s3.8 1.5 3.8 3.5c0 2.1-1.6 3.7-3.8 3.7s-3.8-1.5-3.8-3.6zm0.8 7.9h6v25.6h-6v-25.6z"/>
 <path class="st5" d="m1184 401.5c-1.4 1.2-3.6 1.7-5.8 1.7-5.6 0-8.8-3-8.8-8.6v-12.3h-4.2v-4.8h4.2v-5.9h6v5.9h6.9v4.8h-6.9v12.2c0 2.5 1.2 3.8 3.6 3.8 1.2 0 2.4-0.3 3.4-1.1l1.6 4.3z"/>
 <path class="st5" d="m1213 377.3v25.6h-5.7v-3.3c-1.9 2.4-4.9 3.6-8.3 3.6-6.6 0-11-3.6-11-11.3v-14.6h6v13.8c0 4.7 2.2 6.9 6 6.9 4.2 0 7-2.6 7-7.7v-13h6z"/>
 <path class="st5" d="m1246 367.3v35.6h-5.8v-3.3c-2 2.4-5 3.6-8.5 3.6-7.4 0-13-5.2-13-13.2s5.5-13.1 13-13.1c3.3 0 6.2 1.1 8.3 3.5v-13.2h6v0.1zm-5.9 22.8c0-4.9-3.3-8-7.6-8s-7.6 3.1-7.6 8 3.3 8 7.6 8 7.6-3.1 7.6-8z"/>
 <path class="st5" d="m1293 367.3v35.6h-5.8v-3.3c-2 2.4-5 3.6-8.5 3.6-7.4 0-13-5.2-13-13.2s5.5-13.1 13-13.1c3.3 0 6.2 1.1 8.3 3.5v-13.2h6v0.1zm-5.9 22.8c0-4.9-3.3-8-7.6-8s-7.6 3.1-7.6 8 3.3 8 7.6 8c4.2 0 7.6-3.1 7.6-8z"/>
 <path class="st5" d="m1324 392h-20.1c0.7 3.7 3.8 6.1 8.3 6.1 2.9 0 5.1-0.9 7-2.8l3.2 3.7c-2.3 2.7-5.9 4.2-10.3 4.2-8.6 0-14.2-5.5-14.2-13.2 0-7.6 5.6-13.1 13.2-13.1 7.5 0 13 5.2 13 13.2 0 0.6 0 1.3-0.1 1.9zm-20.1-4h14.5c-0.5-3.7-3.3-6.2-7.2-6.2s-6.8 2.5-7.3 6.2z"/>
 <path class="st5" d="m1341 390.1c0-7.7 5.8-13.1 13.9-13.1 5 0 9 2.1 10.9 6l-4.6 2.7c-1.5-2.4-3.8-3.6-6.4-3.6-4.4 0-7.8 3.1-7.8 8 0 5 3.4 8 7.8 8 2.5 0 4.8-1.1 6.4-3.6l4.6 2.7c-2 3.8-6 6-10.9 6-8.1 0-13.9-5.4-13.9-13.1z"/>
 <path class="st5" d="m1371 367.3h6v35.6h-6v-35.6z"/>
 <path class="st5" d="m1406 387.9v15h-5.7v-3.1c-1.4 2.2-4.2 3.5-8.1 3.5-5.9 0-9.6-3.2-9.6-7.7 0-4.3 2.9-7.6 10.7-7.6h6.6v-0.4c0-3.5-2.1-5.6-6.4-5.6-2.9 0-5.9 1-7.8 2.5l-2.4-4.4c2.7-2.1 6.7-3.2 10.8-3.2 7.6 0.1 11.9 3.6 11.9 11zm-6 7v-3h-6.2c-4.1 0-5.2 1.5-5.2 3.4 0 2.2 1.8 3.6 4.9 3.6 3 0 5.5-1.4 6.5-4z"/>
 <path class="st5" d="m1438 377.3-11 25.6h-6.2l-11-25.6h6.2l8 19 8.2-19h5.8z"/>
 <path class="st5" d="m1465 392h-20.1c0.7 3.7 3.8 6.1 8.3 6.1 2.9 0 5.1-0.9 7-2.8l3.2 3.7c-2.3 2.7-5.9 4.2-10.3 4.2-8.6 0-14.2-5.5-14.2-13.2 0-7.6 5.6-13.1 13.2-13.1 7.5 0 13 5.2 13 13.2 0 0.6 0 1.3-0.1 1.9zm-20.1-4h14.5c-0.5-3.7-3.3-6.2-7.2-6.2s-6.8 2.5-7.3 6.2z"/>
 <path class="st5" d="m1052 445.5v15h-5.7v-3.1c-1.4 2.2-4.2 3.5-8.1 3.5-5.9 0-9.6-3.2-9.6-7.7 0-4.3 2.9-7.6 10.7-7.6h6.6v-0.4c0-3.5-2.1-5.6-6.4-5.6-2.9 0-5.9 1-7.8 2.5l-2.4-4.4c2.7-2.1 6.7-3.2 10.8-3.2 7.6 0.1 11.9 3.6 11.9 11zm-6 7v-3h-6.2c-4.1 0-5.2 1.5-5.2 3.4 0 2.2 1.8 3.6 4.9 3.6 2.9 0 5.5-1.4 6.5-4z"/>
 <path class="st5" d="m1075 434.6v5.7c-0.5-0.1-1-0.1-1.4-0.1-4.6 0-7.4 2.7-7.4 7.9v12.4h-6v-25.6h5.7v3.7c1.7-2.7 4.8-4 9.1-4z"/>
 <path class="st5" d="m1107 447.7c0 8-5.5 13.2-13 13.2-3.5 0-6.5-1.2-8.5-3.6v3.3h-5.7v-35.6h6v13c2.1-2.3 4.9-3.4 8.2-3.4 7.5 0 13 5.1 13 13.1zm-6.1 0c0-4.9-3.3-8-7.6-8s-7.6 3.1-7.6 8 3.3 8 7.6 8 7.6-3.1 7.6-8z"/>
 <path class="st5" d="m1112 427c0-2 1.6-3.6 3.8-3.6s3.8 1.5 3.8 3.5c0 2.1-1.6 3.7-3.8 3.7s-3.8-1.5-3.8-3.6zm0.8 7.9h6v25.6h-6v-25.6z"/>
 <path class="st5" d="m1142 459.1c-1.4 1.2-3.6 1.7-5.8 1.7-5.6 0-8.8-3-8.8-8.6v-12.3h-4.2v-4.8h4.2v-5.9h6v5.9h6.9v4.8h-6.9v12.1c0 2.5 1.2 3.8 3.6 3.8 1.2 0 2.4-0.3 3.4-1.1l1.6 4.4z"/>
 <path class="st5" d="m1162 434.6v5.7c-0.5-0.1-1-0.1-1.4-0.1-4.6 0-7.4 2.7-7.4 7.9v12.4h-6v-25.6h5.7v3.7c1.7-2.7 4.8-4 9.1-4z"/>
 <path class="st5" d="m1188 445.5v15h-5.7v-3.1c-1.4 2.2-4.2 3.5-8.1 3.5-5.9 0-9.6-3.2-9.6-7.7 0-4.3 2.9-7.6 10.7-7.6h6.6v-0.4c0-3.5-2.1-5.6-6.4-5.6-2.9 0-5.9 1-7.8 2.5l-2.4-4.4c2.7-2.1 6.7-3.2 10.8-3.2 7.6 0.1 11.9 3.6 11.9 11zm-6.1 7v-3h-6.2c-4.1 0-5.2 1.5-5.2 3.4 0 2.2 1.8 3.6 4.9 3.6 3 0 5.5-1.4 6.5-4z"/>
 <path class="st5" d="m1211 434.6v5.7c-0.5-0.1-1-0.1-1.4-0.1-4.6 0-7.4 2.7-7.4 7.9v12.4h-6v-25.6h5.7v3.7c1.7-2.7 4.8-4 9.1-4z"/>
 <path class="st5" d="m1215 427c0-2 1.6-3.6 3.8-3.6s3.8 1.5 3.8 3.5c0 2.1-1.6 3.7-3.8 3.7-2.1 0-3.8-1.5-3.8-3.6zm0.8 7.9h6v25.6h-6v-25.6z"/>
 <path class="st5" d="m1251 445.5v15h-5.7v-3.1c-1.4 2.2-4.2 3.5-8.1 3.5-5.9 0-9.6-3.2-9.6-7.7 0-4.3 2.9-7.6 10.7-7.6h6.6v-0.4c0-3.5-2.1-5.6-6.4-5.6-2.9 0-5.9 1-7.8 2.5l-2.4-4.4c2.7-2.1 6.7-3.2 10.8-3.2 7.6 0.1 11.9 3.6 11.9 11zm-6 7v-3h-6.2c-4.1 0-5.2 1.5-5.2 3.4 0 2.2 1.8 3.6 4.9 3.6 2.9 0 5.5-1.4 6.5-4z"/>
 <path class="st5" d="m987.2 502.8h24v3.9h-24v-3.9z"/>
 <path class="st5" d="m1060 484.5-14.6 33.6h-6.1l-14.7-33.6h6.8l11.2 25.9 11.3-25.9h6.1z"/>
 <path class="st5" d="m1082 503.1v15h-5.7v-3.1c-1.4 2.2-4.2 3.5-8.1 3.5-5.9 0-9.6-3.2-9.6-7.7 0-4.3 2.9-7.6 10.7-7.6h6.6v-0.4c0-3.5-2.1-5.6-6.4-5.6-2.9 0-5.9 1-7.8 2.5l-2.4-4.4c2.7-2.1 6.7-3.2 10.8-3.2 7.7 0.1 11.9 3.6 11.9 11zm-6 7v-3h-6.2c-4.1 0-5.2 1.5-5.2 3.4 0 2.2 1.8 3.6 4.9 3.6 3 0 5.5-1.4 6.5-4z"/>
 <path class="st5" d="m1090 482.5h6v35.6h-6v-35.6z"/>
 <path class="st5" d="m1102 505.3c0-7.7 5.8-13.1 13.6-13.1 8 0 13.7 5.4 13.7 13.1s-5.7 13.2-13.7 13.2c-7.9-0.1-13.6-5.5-13.6-13.2zm21.2 0c0-4.9-3.3-8-7.6-8s-7.6 3.1-7.6 8 3.3 8 7.6 8c4.4 0 7.6-3.1 7.6-8z"/>
 <path class="st5" d="m1150 492.2v5.7c-0.5-0.1-1-0.1-1.4-0.1-4.6 0-7.4 2.7-7.4 7.9v12.4h-6v-25.6h5.7v3.7c1.7-2.7 4.8-4 9.1-4z"/>
 <path class="st5" d="m1178 507.2h-20.1c0.7 3.7 3.8 6.1 8.3 6.1 2.9 0 5.1-0.9 7-2.8l3.2 3.7c-2.3 2.7-5.9 4.2-10.3 4.2-8.6 0-14.2-5.5-14.2-13.2 0-7.6 5.6-13.1 13.2-13.1 7.5 0 13 5.2 13 13.2 0 0.6 0 1.3-0.1 1.9zm-20.1-4h14.5c-0.5-3.7-3.3-6.2-7.2-6.2s-6.8 2.5-7.3 6.2z"/>
 <path class="st5" d="m1181 515.5 2.3-4.6c2.3 1.5 5.7 2.5 8.9 2.5 3.8 0 5.4-1.1 5.4-2.8 0-4.9-15.8-0.3-15.8-10.5 0-4.8 4.4-8 11.3-8 3.4 0 7.3 0.8 9.6 2.2l-2.3 4.6c-2.4-1.4-4.9-1.9-7.3-1.9-3.6 0-5.4 1.2-5.4 2.9 0 5.2 15.8 0.6 15.8 10.6 0 4.8-4.4 7.9-11.6 7.9-4.3 0-8.6-1.2-10.9-2.9z"/>
 <path class="st5" d="m1220 505.3c0-7.7 5.8-13.1 13.9-13.1 5 0 9 2.1 10.9 6l-4.6 2.7c-1.5-2.4-3.8-3.6-6.4-3.6-4.4 0-7.8 3.1-7.8 8 0 5 3.4 8 7.8 8 2.5 0 4.8-1.1 6.4-3.6l4.6 2.7c-2 3.8-6 6-10.9 6-8.1 0-13.9-5.4-13.9-13.1z"/>
 <path class="st5" d="m1248 505.3c0-7.7 5.8-13.1 13.6-13.1 8 0 13.7 5.4 13.7 13.1s-5.7 13.2-13.7 13.2c-7.8-0.1-13.6-5.5-13.6-13.2zm21.3 0c0-4.9-3.3-8-7.6-8s-7.6 3.1-7.6 8 3.3 8 7.6 8 7.6-3.1 7.6-8z"/>
 <path class="st5" d="m1306 482.5v35.6h-5.8v-3.3c-2 2.4-5 3.6-8.5 3.6-7.4 0-13-5.2-13-13.2s5.5-13.1 13-13.1c3.3 0 6.2 1.1 8.3 3.5v-13.2h6v0.1zm-5.9 22.8c0-4.9-3.3-8-7.6-8s-7.6 3.1-7.6 8 3.3 8 7.6 8 7.6-3.1 7.6-8z"/>
 <path class="st5" d="m1313 484.6c0-2 1.6-3.6 3.8-3.6s3.8 1.5 3.8 3.5c0 2.1-1.6 3.7-3.8 3.7s-3.8-1.5-3.8-3.6zm0.8 7.9h6v25.6h-6v-25.6z"/>
 <path class="st5" d="m1338 482.1c2.1 0 4.1 0.4 5.4 1.4l-1.7 4.5c-0.9-0.6-2.1-1.1-3.3-1.1-2.5 0-3.8 1.4-3.8 4.1v1.5h7.1v4.8h-6.9v20.6h-6v-20.6h-4.2v-4.8h4.2v-1.5c0.1-5.4 3.3-8.9 9.2-8.9zm10.8 2.5c0-2 1.6-3.6 3.8-3.6s3.8 1.5 3.8 3.5c0 2.1-1.6 3.7-3.8 3.7s-3.8-1.5-3.8-3.6zm0.8 7.9h6v25.6h-6v-25.6z"/>
 <path class="st5" d="m1361 505.3c0-7.7 5.8-13.1 13.9-13.1 5 0 9 2.1 10.9 6l-4.6 2.7c-1.5-2.4-3.8-3.6-6.4-3.6-4.4 0-7.8 3.1-7.8 8 0 5 3.4 8 7.8 8 2.5 0 4.8-1.1 6.4-3.6l4.6 2.7c-2 3.8-6 6-10.9 6-8.2 0-13.9-5.4-13.9-13.1z"/>
 <path class="st5" d="m1412 503.1v15h-5.7v-3.1c-1.4 2.2-4.2 3.5-8.1 3.5-5.9 0-9.6-3.2-9.6-7.7 0-4.3 2.9-7.6 10.7-7.6h6.6v-0.4c0-3.5-2.1-5.6-6.4-5.6-2.9 0-5.9 1-7.8 2.5l-2.4-4.4c2.7-2.1 6.7-3.2 10.8-3.2 7.6 0.1 11.9 3.6 11.9 11zm-6 7v-3h-6.2c-4.1 0-5.2 1.5-5.2 3.4 0 2.2 1.8 3.6 4.9 3.6 3 0 5.5-1.4 6.5-4z"/>
 <path class="st5" d="m1445 482.5v35.6h-5.8v-3.3c-2 2.4-5 3.6-8.5 3.6-7.4 0-13-5.2-13-13.2s5.5-13.1 13-13.1c3.3 0 6.2 1.1 8.3 3.5v-13.2h6v0.1zm-5.9 22.8c0-4.9-3.3-8-7.6-8s-7.6 3.1-7.6 8 3.3 8 7.6 8 7.6-3.1 7.6-8z"/>
 <path class="st5" d="m1451 505.3c0-7.7 5.8-13.1 13.6-13.1 8 0 13.7 5.4 13.7 13.1s-5.7 13.2-13.7 13.2c-7.8-0.1-13.6-5.5-13.6-13.2zm21.3 0c0-4.9-3.3-8-7.6-8s-7.6 3.1-7.6 8 3.3 8 7.6 8 7.6-3.1 7.6-8z"/>
 <path class="st5" d="m1481 515.5 2.3-4.6c2.3 1.5 5.7 2.5 8.9 2.5 3.8 0 5.4-1.1 5.4-2.8 0-4.9-15.8-0.3-15.8-10.5 0-4.8 4.4-8 11.3-8 3.4 0 7.3 0.8 9.6 2.2l-2.3 4.6c-2.4-1.4-4.9-1.9-7.3-1.9-3.6 0-5.4 1.2-5.4 2.9 0 5.2 15.8 0.6 15.8 10.6 0 4.8-4.4 7.9-11.6 7.9-4.3 0-8.6-1.2-10.9-2.9z"/>
 <path class="st5" d="m1029 562.9c0-7.7 5.8-13.1 13.9-13.1 5 0 9 2.1 10.9 6l-4.6 2.7c-1.5-2.4-3.8-3.6-6.4-3.6-4.4 0-7.8 3.1-7.8 8 0 5 3.4 8 7.8 8 2.5 0 4.8-1.1 6.4-3.6l4.6 2.7c-2 3.8-6 6-10.9 6-8.1 0-13.9-5.4-13.9-13.1z"/>
 <path class="st5" d="m1056 562.9c0-7.7 5.8-13.1 13.6-13.1 8 0 13.7 5.4 13.7 13.1s-5.7 13.2-13.7 13.2c-7.8-0.1-13.6-5.5-13.6-13.2zm21.3 0c0-4.9-3.3-8-7.6-8s-7.6 3.1-7.6 8 3.3 8 7.6 8 7.6-3.1 7.6-8z"/>
 <path class="st5" d="m1115 561v14.7h-6v-13.9c0-4.6-2.3-6.8-6.1-6.8-4.3 0-7.2 2.6-7.2 7.7v13h-6v-25.6h5.7v3.3c2-2.4 5.1-3.6 8.8-3.6 6.3 0 10.8 3.5 10.8 11.2z"/>
 <path class="st5" d="m1133 572.1 2.2-4.8c2.7 2.2 7 3.7 11.1 3.7 5.2 0 7.4-1.9 7.4-4.4 0-7.2-20-2.5-20-15 0-5.4 4.3-10 13.5-10 4 0 8.3 1.1 11.2 3l-2 4.8c-3-1.8-6.3-2.6-9.3-2.6-5.2 0-7.3 2-7.3 4.6 0 7.2 19.9 2.5 19.9 14.8 0 5.4-4.4 10-13.6 10-5 0-10.3-1.7-13.1-4.1z"/>
 <path class="st5" d="m1164 558.9c0-10 7.7-17.3 18-17.3 5.5 0 10.2 2 13.3 5.6l-4 3.8c-2.4-2.6-5.5-3.9-9-3.9-7 0-12 4.9-12 11.8s5 11.8 12 11.8c3.5 0 6.5-1.3 9-4l4 3.8c-3.1 3.6-7.8 5.6-13.3 5.6-10.4 0.1-18-7.2-18-17.2z"/>
 <path class="st5" d="m1222 567.9h-16.8l-3.3 7.8h-6.4l15.1-33.6h6.1l15.2 33.6h-6.5l-3.4-7.8zm-2-4.9-6.3-14.7-6.3 14.7h12.6z"/>
 <path class="st5" d="m1236 542.1h6.2v28.3h17.6v5.3h-23.8v-33.6z"/>
 <path class="st5" d="m1290 570.5v5.2h-25.2v-33.6h24.5v5.2h-18.3v8.7h16.2v5.1h-16.2v9.3l19 0.1z"/>
</svg>
