<?xml version="1.0" encoding="utf-8"?>
<!-- Generator: Adobe Illustrator 27.1.1, SVG Export Plug-In . SVG Version: 6.00 Build 0)  -->
<svg version="1.1" id="Layer_1" xmlns="http://www.w3.org/2000/svg" xmlns:xlink="http://www.w3.org/1999/xlink" x="0px" y="0px"
	 viewBox="0 0 1780 1000" style="enable-background:new 0 0 1780 1000;" xml:space="preserve">
<style type="text/css">
	.st0{fill:#8747CC;}
	.st1{fill:#BC83FB;}
	.st2{fill:#B8A3C9;}
	.st3{fill:#D8B7FB;}
	.st4{fill:#50D985;}
	.st5{fill:#FF705E;}
	.st6{fill:#E34135;}
	.st7{fill:#FFFFFF;}
</style>
<g>
	<g>
		<g>
			<path class="st0" d="M1505,640.3c42.4-2.6,49.5-12.6,49.7-35.1c0.1-15.1,1.2-28.9,1.9-36.3c0.2-2.4-2.3-3.9-4.4-2.7
				C1501.6,596.4,1494,599,1505,640.3z"/>
		</g>
		<g>
			<path class="st1" d="M1551.4,575.3c0.6-0.8,0.5-1.8-0.3-2.4c-0.8-0.6-1.9-0.6-2.5,0.2c-14.8,17.3-28.7,35.4-41.6,54.3
				c-20.7,31.3-43.7,69.5-55.6,108.4c-8.8-2.2-17.8-3.3-26.4-3.3c-23.4-0.2-45.5,8.8-63.7,22.9c-10.5,8.1-19.6,17.9-27.1,28.7
				c-5.9,8.7,6.9,17.2,12.7,8.7c6.7-10.4,14.8-19.8,24.2-27.5c7-5.8,14.8-10.6,23.2-14.1c16.6-7.3,36.2-9.3,54.3-5.4
				c-3.5,13.8-5.5,27.6-5.4,41.2c0.3,6.2,0.8,12.7,2.6,18.7c6.1,23.1,30.9,36.2,51.5,21c14.4-11,15.7-31.2,9.7-46.7
				c-6.1-15.6-18.2-27.3-32.7-35.2c-3.6-2-7.4-3.7-11.3-5.2l0,0l0,0C1477,680,1518.4,618.8,1551.4,575.3z M1469.6,753.3
				c5.4,2.9,10.4,6.5,14.8,10.8c7.5,7.1,12.4,16.4,13.2,26.7c1.8,13-5.9,27.5-20.1,26.3c-11.1-1.1-16.8-12.8-18.2-23.2
				c-1.8-14.4-1-29.4,1.8-44.5C1464.1,750.5,1466.9,751.8,1469.6,753.3z"/>
		</g>
		<g>
			<path class="st0" d="M1474.5,744.7l-4.9,8.6c-2.7-1.5-5.6-2.8-8.5-3.9l2-9.9l0,0C1467.1,741,1470.9,742.7,1474.5,744.7z"/>
		</g>
		<g>
			<path class="st0" d="M1371.3,765.1c-9.4,7.7-17.6,17.1-24.2,27.5c-5.9,8.6-18.6,0.1-12.7-8.7c7.4-10.8,16.6-20.6,27.1-28.7
				C1363.8,760.3,1367.8,763.4,1371.3,765.1z"/>
		</g>
	</g>
	<g>
		<g>
			<path class="st0" d="M311.1,793.6c-64.4,3.5-62.5-3.2-77.4,21c-9.9,16-21,30.7-27.5,38.9c-1.9,2.4,0,6,3.1,5.7
				C304.6,848.8,293.1,858.1,311.1,793.6z"/>
		</g>
		<g>
			<path class="st1" d="M439.3,744c-12.1-1.5-24.1-3.3-36.1-5.4c-13.1-2.3-26.2-5-39-8.3c11.4-28.4,12.7-59.5-5.5-86.5
				c-12.4-18-31.5-32.1-53.7-34.8c-23.1-3.4-49.4,9-54.9,33.3c-7.2,31.3,11.2,55.9,36.7,71.4c18.7,11.1,38.6,19.2,59.2,25.6l0,0
				c-1.9,4-3.9,8-6.3,11.8c-0.8,1.3-1.5,2.5-2.3,3.8c-10,16-23,29.9-37.5,42c-14.6,12.3-30.4,23.6-46.9,33.3
				c-11.1,6.5-22.5,12.5-34.3,17.4c-2.5,1.2-0.9,4.5,1.5,3.8c12.4-4.4,24.2-9.9,35.8-15.9c23.2-12.3,45.1-26.6,65-44
				c9.7-8.7,19-19.2,26.9-30.7c3.9-5.7,7.5-11.6,10.7-17.8l0,0c12.8,3.5,25.8,6.5,38.8,9.2c13.2,2.8,26.5,5.3,39.7,7.8
				C447.9,761.5,450.1,745.7,439.3,744z M351,726.8c-7.9-2.3-15.8-4.9-23.5-7.7c-25.6-10-60.7-26.3-64.3-56.4
				c-3.4-33.5,28.7-43.3,54.8-30C356.1,653.5,363,691,351,726.8z"/>
		</g>
		<g>
			<path class="st0" d="M358.4,743c-3.2,6.1-6.8,12.1-10.7,17.8l-8-9.6c2.3-3.9,4.4-7.8,6.3-11.8l0.8,0.2l11.1,3.2L358.4,743z"/>
		</g>
		<g>
			<path class="st0" d="M436.9,760c-13.2-2.5-26.4-5-39.7-7.8c2.4-3.3,4.7-7.8,6-13.6c12,2.1,24,3.9,36.1,5.4
				C450.1,745.7,447.9,761.5,436.9,760z"/>
		</g>
	</g>
	<g>
		<path class="st2" d="M449.9,539.7c-4.7,1.8-9.2-1.4-8.2-5.8c1.1-4.3,6.9-6.5,10.6-3.9S454.6,538,449.9,539.7z"/>
	</g>
	<g>
		<g>
			<path class="st1" d="M580.3,549.2c-2.3,3.9-5,8.1-8.1,12.4h-88.1c72-58.6,53.2-87.2,30-113.6c-21.8-24.7-18.5-65.9,42.3-75.1
				c1.5-0.2,2.1,1.9,0.7,2.4c-10.3,4.2-23.4,12.3-25.6,27c-3.6,24.6,0,34.4,25.5,61.7C580.4,489.2,606.1,504.8,580.3,549.2z"/>
		</g>
		<g>
			<path class="st0" d="M555.7,561.6L555.7,561.6h-71.5c72-58.6,53.2-87.2,30-113.6c9.2,10.4,21.9,19.7,32.9,29.9
				c3.2,3,6.3,6,9.1,9.2C571.6,504.8,578.8,526.6,555.7,561.6z"/>
		</g>
		<g>
			<path class="st3" d="M540.2,555.4c-13,13-28.6,13.9-27.9,1.4c0.6-12.4,17-28.7,29.4-29.4S553.2,542.3,540.2,555.4z"/>
		</g>
		<g>
			<path class="st3" d="M547.2,505.6c-6.7-4.4-9.4-18.1-5-24.7c1.4-2,3.1-2.9,4.9-2.9c3.2,3,6.3,6,9.1,9.2c0.4,1.1,0.7,2.2,1,3.5
				C559.4,501.7,553.8,509.9,547.2,505.6z"/>
		</g>
		<g>
			<path class="st0" d="M580.3,549.2c-2.3,3.9-5,8.1-8.1,12.4H547l4-12.4H580.3z"/>
		</g>
	</g>
	<g>
		<g>
			<path class="st4" d="M887.5,451.8l-33.4-35.5c-2.1-2.2-0.5-5.8,2.5-5.8h66.8c3,0,4.6,3.6,2.5,5.8l-33.4,35.5
				C891.1,453.2,888.9,453.2,887.5,451.8z"/>
		</g>
		<g>
			<path class="st4" d="M887.5,294.4l-33.4,35.5c-2.1,2.2-0.5,5.8,2.5,5.8h66.8c3,0,4.6-3.6,2.5-5.8l-33.4-35.5
				C891.1,292.9,888.9,292.9,887.5,294.4z"/>
		</g>
		<g>
			<path class="st4" d="M910.5,334.3h-41c0,0-5.7,18.4-5.7,38.7c0,22.2,5.7,38.7,5.7,38.7h41c0,0,5.7-16.5,5.7-38.7
				C916.2,352.7,910.5,334.3,910.5,334.3z"/>
		</g>
	</g>
	<g>
		<g>
			<g>
				<path class="st1" d="M1387.4,89.7v49.4c0,12.1-9.8,21.9-21.9,21.9H396.1c-12.1,0-21.9-9.8-21.9-21.9V89.7
					c0-12.1,9.8-21.9,21.9-21.9h14.1c1.6,0,3,0.9,3.6,2.4c2.1,5.3,9.8,9.9,20.2,10.4c8.3,0.3,15.1-2,18.9-5.6
					c1.6-1.5,4.1-1.4,5.6,0.2c4.5,4.9,13.3,8.4,24.3,8.4c12.1,0,21.1-4.3,25.4-10c1.4-1.8,4.1-1.9,5.6-0.1c5.8,7,16.6,12,29.3,12.1
					c16,0.1,27-6.9,31.7-14.5c1.3-2.1,3.6-3.3,6.1-3.3h784.6C1377.6,67.8,1387.4,77.6,1387.4,89.7z"/>
			</g>
			<g>
				<path class="st1" d="M435.2,74.3c-12.1,0.4-19.8-7.1-13.9-13.5s21-6.8,27.2-0.8S447.2,73.9,435.2,74.3z"/>
			</g>
			<g>
				<path class="st1" d="M482.9,76.6c-16.2,0.6-26.7-9.1-18.9-17.4s28.1-9.1,36.5-1.4S499.1,75.9,482.9,76.6z"/>
			</g>
			<g>
				<path class="st1" d="M544.2,78.2c-18.2,0.6-30-10.4-21.2-19.8s31.5-10.2,40.9-1.4S562.3,77.6,544.2,78.2z"/>
			</g>
		</g>
	</g>
	<g>
		<path class="st1" d="M838.6,263.6v-27.9h11.8c3,0,5.6,0.6,7.9,1.8c2.3,1.2,4,2.8,5.3,4.9c1.3,2.1,1.9,4.5,1.9,7.3
			s-0.6,5.2-1.9,7.3c-1.3,2.1-3,3.7-5.3,4.9c-2.3,1.2-4.9,1.8-7.9,1.8L838.6,263.6L838.6,263.6z M842.6,260.1h7.5
			c2.3,0,4.3-0.4,6-1.3s3-2.1,3.9-3.7s1.4-3.4,1.4-5.5s-0.5-3.9-1.4-5.5s-2.2-2.8-3.9-3.7s-3.7-1.3-6-1.3h-7.5V260.1z"/>
		<path class="st1" d="M877.2,263.8c-1.6,0-2.9-0.3-4.1-0.8c-1.2-0.5-2.1-1.3-2.7-2.2c-0.6-0.9-1-2-1-3.2c0-1.1,0.3-2.2,0.8-3.1
			c0.5-0.9,1.4-1.7,2.7-2.2c1.2-0.6,2.9-0.8,5-0.8h6.7v2.8H878c-1.9,0-3.2,0.3-3.9,1c-0.7,0.6-1,1.4-1,2.3c0,1,0.4,1.9,1.2,2.5
			s2,0.9,3.4,0.9s2.7-0.3,3.8-1c1.1-0.6,1.9-1.6,2.3-2.8l0.8,2.6c-0.5,1.2-1.4,2.2-2.7,3C880.7,263.5,879.1,263.8,877.2,263.8z
			 M884.1,263.6v-4.5l-0.2-0.8v-7.6c0-1.6-0.5-2.9-1.4-3.8c-0.9-0.9-2.4-1.3-4.2-1.3c-1.2,0-2.5,0.2-3.7,0.6c-1.2,0.4-2.2,1-3,1.7
			L870,245c1.1-0.9,2.4-1.5,3.9-2s3.1-0.7,4.8-0.7c2.9,0,5.1,0.7,6.7,2.1c1.6,1.4,2.4,3.6,2.4,6.5v12.8h-3.7V263.6z"/>
		<path class="st1" d="M894.8,271.3v-28.9h3.7v5.7l-0.2,4.9l0.4,4.9v13.4H894.8z M906,263.8c-1.8,0-3.4-0.4-4.8-1.2
			c-1.4-0.8-2.6-2-3.5-3.6s-1.3-3.6-1.3-6s0.4-4.4,1.3-6c0.8-1.6,2-2.8,3.4-3.6s3.1-1.2,4.9-1.2c2.1,0,3.9,0.5,5.5,1.4
			s2.9,2.2,3.8,3.8c0.9,1.6,1.4,3.5,1.4,5.6s-0.5,4-1.4,5.7c-0.9,1.6-2.2,2.9-3.8,3.8C909.9,263.4,908.1,263.8,906,263.8z
			 M905.7,260.5c1.4,0,2.6-0.3,3.6-0.9c1.1-0.6,1.9-1.5,2.6-2.6c0.6-1.1,0.9-2.4,0.9-3.9s-0.3-2.8-0.9-3.9c-0.6-1.1-1.5-2-2.6-2.6
			s-2.3-0.9-3.6-0.9s-2.5,0.3-3.6,0.9c-1.1,0.6-1.9,1.5-2.6,2.6c-0.6,1.1-0.9,2.4-0.9,3.9s0.3,2.8,0.9,3.9c0.6,1.1,1.5,2,2.6,2.6
			S904.4,260.5,905.7,260.5z"/>
		<path class="st1" d="M922,271.3v-28.9h3.7v5.7l-0.2,4.9l0.4,4.9v13.4H922z M933.2,263.8c-1.8,0-3.4-0.4-4.8-1.2
			c-1.4-0.8-2.6-2-3.5-3.6s-1.3-3.6-1.3-6s0.4-4.4,1.3-6c0.8-1.6,2-2.8,3.4-3.6s3.1-1.2,4.9-1.2c2.1,0,3.9,0.5,5.5,1.4
			s2.9,2.2,3.8,3.8c0.9,1.6,1.4,3.5,1.4,5.6s-0.5,4-1.4,5.7c-0.9,1.6-2.2,2.9-3.8,3.8C937.1,263.4,935.3,263.8,933.2,263.8z
			 M932.9,260.5c1.4,0,2.6-0.3,3.6-0.9c1.1-0.6,1.9-1.5,2.6-2.6c0.6-1.1,0.9-2.4,0.9-3.9s-0.3-2.8-0.9-3.9c-0.6-1.1-1.5-2-2.6-2.6
			s-2.3-0.9-3.6-0.9s-2.5,0.3-3.6,0.9c-1.1,0.6-1.9,1.5-2.6,2.6c-0.6,1.1-0.9,2.4-0.9,3.9s0.3,2.8,0.9,3.9c0.6,1.1,1.5,2,2.6,2.6
			S931.6,260.5,932.9,260.5z"/>
	</g>
	<g>
		<path class="st4" d="M998.5,381.4v-27.9h11.8c3,0,5.6,0.6,7.9,1.8c2.3,1.2,4,2.8,5.3,4.9c1.3,2.1,1.9,4.5,1.9,7.3
			s-0.6,5.2-1.9,7.3c-1.3,2.1-3,3.7-5.3,4.9c-2.3,1.2-4.9,1.8-7.9,1.8L998.5,381.4L998.5,381.4z M1002.5,377.9h7.5
			c2.3,0,4.3-0.4,6-1.3s3-2.1,3.9-3.7s1.4-3.4,1.4-5.5s-0.5-3.9-1.4-5.5s-2.2-2.8-3.9-3.7c-1.7-0.9-3.7-1.3-6-1.3h-7.5V377.9z"/>
		<path class="st4" d="M1030.8,381.4v-21.1h3.7v5.7l-0.4-1.4c0.6-1.5,1.6-2.6,3-3.3s3.1-1.2,5.1-1.2v3.7c-0.2,0-0.3,0-0.5,0
			s-0.3,0-0.4,0c-2,0-3.7,0.6-4.9,1.8c-1.2,1.2-1.8,3-1.8,5.3v10.5H1030.8z"/>
		<path class="st4" d="M1048.7,389.4c-1,0-2-0.2-3-0.5s-1.8-0.8-2.5-1.5l1.6-2.9c0.5,0.5,1.1,0.9,1.8,1.2c0.6,0.3,1.3,0.4,2,0.4
			c0.9,0,1.7-0.2,2.3-0.7s1.2-1.3,1.7-2.6l1.3-2.9l0.4-0.5l8.3-19.2h3.7l-10.2,23.2c-0.6,1.5-1.3,2.7-2.1,3.5
			c-0.8,0.9-1.6,1.5-2.5,1.8S1049.8,389.4,1048.7,389.4z M1053.7,382.1l-9.7-21.8h4l8.2,18.8L1053.7,382.1z"/>
		<path class="st4" d="M1068.2,372.1v-3.3h10.7v3.3H1068.2z"/>
		<path class="st4" d="M1085.4,381.4v-27.9h10.9c2.4,0,4.5,0.4,6.3,1.2c1.7,0.8,3.1,1.9,4,3.3c0.9,1.5,1.4,3.2,1.4,5.2
			s-0.5,3.8-1.4,5.2c-0.9,1.4-2.3,2.6-4,3.3c-1.7,0.8-3.8,1.2-6.3,1.2h-8.7l1.8-1.8v10.3L1085.4,381.4L1085.4,381.4z M1089.4,371.5
			l-1.8-2h8.6c2.6,0,4.5-0.6,5.8-1.7s2-2.7,2-4.6s-0.7-3.5-2-4.6s-3.2-1.6-5.8-1.6h-8.6l1.8-2V371.5z M1104.1,381.4l-7.1-10.1h4.3
			l7.2,10.1H1104.1z"/>
		<path class="st4" d="M1122.7,381.6c-1.8,0-3.4-0.3-4.8-1s-2.4-1.7-3.2-3.1c-0.8-1.4-1.1-3.1-1.1-5.2v-12.2h3.8V372
			c0,2.1,0.5,3.6,1.5,4.7c1,1,2.4,1.6,4.2,1.6c1.3,0,2.5-0.3,3.5-0.8s1.7-1.3,2.3-2.4c0.5-1,0.8-2.3,0.8-3.8v-10.9h3.8v21.1h-3.6
			v-5.7l0.6,1.5c-0.7,1.4-1.7,2.5-3.1,3.3C1126,381.3,1124.4,381.6,1122.7,381.6z"/>
		<path class="st4" d="M1152.1,360.1c1.7,0,3.2,0.3,4.6,1c1.3,0.7,2.3,1.7,3.1,3c0.7,1.4,1.1,3.1,1.1,5.1v12.2h-3.8v-11.7
			c0-2-0.5-3.6-1.5-4.6s-2.4-1.6-4.2-1.6c-1.4,0-2.5,0.3-3.5,0.8s-1.8,1.3-2.3,2.4c-0.5,1-0.8,2.3-0.8,3.9v10.9h-3.8v-21.1h3.7v5.7
			l-0.6-1.5c0.7-1.4,1.8-2.5,3.2-3.2S1150.2,360.1,1152.1,360.1z"/>
	</g>
	<g>
		<path class="st5" d="M1330.6,906.7H449.4c-10.7,0-19.4-8.7-19.4-19.4V580c0-10.7,8.7-19.4,19.4-19.4h881.1
			c10.7,0,19.4,8.7,19.4,19.4v307.4C1349.9,898,1341.2,906.7,1330.6,906.7z"/>
	</g>
	<g>
		<path class="st6" d="M1132.5,560.6v46.3c0,27.3-22.2,49.5-49.5,49.5H677c-27.3,0-49.5-22.2-49.5-49.5v-46.3H1132.5z"/>
	</g>
	<g>
		<path class="st4" d="M1093,642H687c-27.3,0-49.5-22.2-49.5-49.5v-63.8c0-27.3,22.2-49.5,49.5-49.5h406c27.3,0,49.5,22.2,49.5,49.5
			v63.8C1142.5,619.9,1120.3,642,1093,642z"/>
	</g>
	<g>
		<path d="M621.6,812.1v-15.5h-5.1v-2.3l5.1-0.2v-1.5c0-2.2,0.6-4,1.8-5.3s3-2,5.5-2c1.8,0,3.5,0.3,5.2,1l-0.7,2.3
			c-0.7-0.3-1.4-0.6-2.1-0.7c-0.6-0.1-1.3-0.2-2.1-0.2c-1.6,0-2.8,0.4-3.5,1.3c-0.7,0.8-1.1,2-1.1,3.4v1.6h7.6v2.5h-7.6V812h-3
			V812.1z"/>
		<path d="M638.3,812.1v-18h2.5l0.3,3.1h0.1c0.9-1,2-1.9,3-2.5c1.1-0.7,2.3-1,3.7-1c2.1,0,3.7,0.6,4.7,1.9c1,1.2,1.5,3,1.5,5.4v11.2
			h-3v-10.8c0-1.7-0.3-3-1-3.8c-0.6-0.8-1.7-1.2-3.2-1.2c-1.1,0-2,0.3-2.9,0.8c-0.8,0.5-1.8,1.4-2.9,2.4v12.6h-2.8V812.1z"/>
		<path d="M688.3,812.1v-15.5h-5.1v-2.3l5.1-0.2v-1.5c0-2.2,0.6-4,1.8-5.3s3-2,5.5-2c1.8,0,3.5,0.3,5.2,1l-0.7,2.3
			c-0.7-0.3-1.4-0.6-2.1-0.7c-0.6-0.1-1.3-0.2-2.1-0.2c-1.6,0-2.8,0.4-3.5,1.3c-0.7,0.8-1.1,2-1.1,3.4v1.6h7.6v2.5h-7.6V812h-3
			V812.1z"/>
		<path d="M716.6,812.5c-1.9,0-3.4-0.5-4.4-1.6s-1.5-2.7-1.5-4.8v-17.8h-6.4v-2.5h9.4v20.5c0,1.3,0.3,2.3,1,2.9
			c0.7,0.6,1.5,0.9,2.6,0.9s2.2-0.3,3.4-0.8l0.8,2.3c-0.8,0.3-1.6,0.6-2.3,0.8C718.4,812.4,717.6,812.5,716.6,812.5z"/>
		<path d="M735.4,812.1v-15.5H727v-2.5h11.4v18H735.4z M736.6,790.3c-0.7,0-1.3-0.2-1.7-0.6c-0.5-0.4-0.7-1-0.7-1.7s0.2-1.3,0.7-1.7
			s1-0.6,1.7-0.6s1.3,0.2,1.7,0.6c0.5,0.4,0.7,1,0.7,1.7s-0.2,1.3-0.7,1.7C737.9,790.1,737.3,790.3,736.6,790.3z"/>
		<path d="M749.4,819.7v-25.6h2.5l0.3,2.3h0.1c0.8-0.8,1.8-1.4,2.9-2c1.1-0.5,2.2-0.8,3.3-0.8c2.4,0,4.3,0.8,5.5,2.5
			c1.3,1.7,1.9,3.9,1.9,6.7c0,2-0.4,3.8-1.1,5.2c-0.8,1.5-1.8,2.6-3,3.3c-1.2,0.8-2.6,1.1-4,1.1c-0.8,0-1.7-0.2-2.7-0.6
			s-1.9-1-2.6-1.7h-0.1l0.1,3.4v6.1L749.4,819.7L749.4,819.7z M757.2,809.9c1.6,0,2.9-0.6,4-1.9c1-1.3,1.6-3,1.6-5.2
			c0-2-0.4-3.6-1.2-4.8s-2.1-1.8-3.9-1.8c-0.8,0-1.6,0.2-2.5,0.6c-0.9,0.4-1.8,1.1-2.8,2.1v9c0.9,0.8,1.7,1.3,2.6,1.6
			S756.6,809.9,757.2,809.9z"/>
		<path d="M784.2,818.6c-2.6-2-4.6-4.4-6.1-7.2s-2.2-6-2.2-9.6s0.7-6.8,2.2-9.6s3.5-5.2,6.1-7.2l1.7,1.6c-2.5,2.1-4.3,4.4-5.5,6.9
			s-1.8,5.3-1.8,8.4s0.6,5.9,1.8,8.4s3,4.8,5.5,6.9L784.2,818.6z"/>
		<path d="M799.2,812.5c-1.4,0-2.7-0.3-3.8-0.9c-1.1-0.6-1.9-1.4-2.6-2.4s-0.9-2.2-0.9-3.5c0-1.1,0.2-2,0.6-2.8
			c0.4-0.8,1-1.6,1.7-2.3s1.4-1.3,2.2-1.9c-0.5-1-0.9-2-1.2-3s-0.4-1.9-0.4-2.8c0-1.1,0.2-2.1,0.7-2.9c0.4-0.9,1.1-1.5,1.9-2.1
			c0.8-0.5,1.7-0.8,2.8-0.8c1.5,0,2.7,0.4,3.5,1.3s1.2,2,1.2,3.5c0,1-0.3,2-0.8,2.8s-1.2,1.6-2,2.3s-1.6,1.4-2.5,2
			c0.8,1.2,1.7,2.4,2.7,3.6c1,1.2,2.1,2.2,3.2,3.2c0.7-1,1.3-2.1,1.8-3.3s0.9-2.5,1.3-3.9h2.8c-0.4,1.6-1,3.1-1.6,4.6
			s-1.4,2.8-2.3,4.1c1.5,1.1,2.9,1.9,4.2,2.3l-0.9,2.5c-1.6-0.5-3.3-1.4-5.1-2.8c-0.9,0.8-1.9,1.5-2.9,2
			C801.8,812.3,800.6,812.5,799.2,812.5z M794.9,805.6c0,1.4,0.5,2.4,1.4,3.3c0.9,0.8,2,1.2,3.3,1.2c0.8,0,1.5-0.2,2.2-0.5
			s1.4-0.8,2-1.4c-1.2-1-2.3-2.2-3.3-3.4c-1.1-1.2-2-2.5-2.9-3.8c-0.8,0.7-1.4,1.4-1.9,2.2C795.2,803.8,794.9,804.6,794.9,805.6z
			 M797.5,793c0,0.7,0.1,1.4,0.3,2.1c0.2,0.7,0.5,1.4,0.8,2.2c1-0.7,1.9-1.5,2.7-2.3s1.1-1.7,1.1-2.8c0-0.7-0.2-1.3-0.5-1.9
			c-0.3-0.5-0.9-0.8-1.7-0.8s-1.5,0.3-2,1S797.5,792,797.5,793z"/>
		<path d="M814.7,812.1v-18h2.4l0.3,2.4h0.1c0.5-0.8,1-1.5,1.6-2s1.4-0.8,2.5-0.8c1.8,0,2.9,1,3.4,3.1c0.5-1,1.1-1.7,1.7-2.3
			c0.6-0.6,1.5-0.8,2.5-0.8c1.3,0,2.2,0.5,2.9,1.4c0.7,1,1.1,2.3,1.1,4.1v12.9h-3v-12.7c0-2.1-0.6-3.1-1.9-3.1
			c-0.6,0-1.1,0.2-1.5,0.7s-0.9,1.2-1.4,2.1v13h-2.8v-12.7c0-1-0.1-1.8-0.4-2.4c-0.3-0.5-0.8-0.8-1.4-0.8c-0.6,0-1.2,0.2-1.6,0.7
			c-0.5,0.5-0.9,1.2-1.4,2.1v13L814.7,812.1L814.7,812.1z"/>
		<path d="M843.9,812.5c-2.1,0-3.7-0.6-4.7-1.9c-1-1.2-1.5-3-1.5-5.4V794h3.1v10.8c0,1.7,0.3,3,0.9,3.8c0.6,0.8,1.7,1.2,3.2,1.2
			c1,0,2-0.3,2.8-0.8s1.8-1.4,2.8-2.5V794h3v18H851l-0.3-3.1h-0.1c-0.9,1.1-1.9,1.9-3,2.6C846.5,812.2,845.3,812.5,843.9,812.5z"/>
		<path d="M871.6,812.5c-1.8,0-3.1-0.3-4.1-0.9c-1-0.6-1.7-1.5-2.2-2.6s-0.6-2.4-0.6-3.9v-8.5h-5.1v-2.3l5.2-0.2l0.4-5.8h2.5v5.8
			h8.8v2.5h-8.8v8.6c0,1.6,0.3,2.8,1,3.7c0.7,0.8,1.8,1.3,3.6,1.3c0.9,0,1.6-0.1,2.3-0.2c0.7-0.1,1.4-0.3,2-0.6l0.7,2.2
			c-0.8,0.3-1.7,0.5-2.6,0.8C873.8,812.4,872.8,812.5,871.6,812.5z"/>
		<path d="M912.9,812.5c-1.8,0-3.4-0.3-4.9-0.8c-1.5-0.6-2.8-1.2-3.9-2l1.4-2c1,0.7,2.2,1.3,3.4,1.8s2.7,0.7,4.4,0.7
			c1.5,0,2.7-0.3,3.4-0.8c0.8-0.6,1.1-1.2,1.1-2c0-0.5-0.1-0.9-0.4-1.3c-0.3-0.4-0.8-0.7-1.6-1.1c-0.8-0.3-2-0.7-3.6-1
			c-2.3-0.5-4.1-1.2-5.3-2s-1.8-1.9-1.8-3.3c0-1.5,0.6-2.7,1.9-3.6c1.3-1,3.1-1.5,5.6-1.5c1.4,0,2.7,0.2,4,0.7s2.4,1,3.3,1.6l-1.5,2
			c-0.8-0.6-1.8-1-2.8-1.4c-1-0.3-2.1-0.5-3.3-0.5c-1.5,0-2.6,0.3-3.2,0.8c-0.6,0.5-0.9,1.1-0.9,1.8c0,0.8,0.4,1.4,1.2,1.8
			c0.8,0.4,2.2,0.8,4,1.2c2,0.4,3.5,0.9,4.6,1.4s1.8,1.1,2.2,1.8s0.6,1.5,0.6,2.4c0,1-0.3,1.9-0.9,2.7c-0.6,0.8-1.5,1.5-2.7,2
			C916.1,812.3,914.7,812.5,912.9,812.5z"/>
		<path d="M935.9,812.5c-1.8,0-3.4-0.4-4.9-1.1s-2.6-1.8-3.5-3.2s-1.3-3.1-1.3-5.1c0-1.9,0.4-3.6,1.3-5c0.9-1.4,2-2.5,3.4-3.2
			c1.4-0.8,2.9-1.1,4.5-1.1c2.6,0,4.6,0.8,6.1,2.3c1.4,1.5,2.2,3.6,2.2,6.1c0,0.3,0,0.7,0,1s-0.1,0.6-0.1,0.9h-14.2
			c0.2,2,0.9,3.6,2.2,4.6s2.9,1.6,4.8,1.6c1.1,0,2.1-0.2,2.9-0.5c0.9-0.3,1.7-0.7,2.5-1.2l1.1,2c-0.9,0.6-1.9,1.1-3.1,1.5
			C938.7,812.3,937.4,812.5,935.9,812.5z M935.5,796c-1.5,0-2.8,0.5-4,1.4s-1.9,2.3-2.1,4.1h11.5c-0.1-1.9-0.7-3.2-1.6-4.1
			C938.2,796.5,937,796,935.5,796z"/>
		<path d="M961,812.5c-1.9,0-3.4-0.5-4.4-1.6s-1.5-2.7-1.5-4.8v-17.8h-6.4v-2.5h9.4v20.5c0,1.3,0.3,2.3,1,2.9
			c0.7,0.6,1.5,0.9,2.6,0.9s2.2-0.3,3.4-0.8l0.8,2.3c-0.8,0.3-1.6,0.6-2.3,0.8C962.8,812.4,962,812.5,961,812.5z"/>
		<path d="M977.1,812.1v-15.5H972v-2.3l5.1-0.2v-1.5c0-2.2,0.6-4,1.8-5.3s3-2,5.5-2c1.8,0,3.5,0.3,5.2,1l-0.7,2.3
			c-0.7-0.3-1.4-0.6-2.1-0.7c-0.6-0.1-1.3-0.2-2.1-0.2c-1.6,0-2.8,0.4-3.5,1.3c-0.7,0.8-1.1,2-1.1,3.4v1.6h7.6v2.5h-7.6V812h-3
			V812.1z"/>
		<path d="M996.5,818.6l-1.7-1.6c2.5-2.1,4.3-4.4,5.5-6.9s1.8-5.3,1.8-8.4s-0.6-5.9-1.8-8.4s-3-4.8-5.5-6.9l1.7-1.6
			c2.6,2,4.6,4.4,6.1,7.2s2.2,6,2.2,9.6s-0.7,6.8-2.2,9.6C1001.1,814.2,999.1,816.6,996.5,818.6z"/>
		<path d="M1046.2,812.6l-1.6-1.7l7.4-6.9h-16.3v-2.5h16.3l-7.4-6.9l1.6-1.7l10.1,9.8v0.1L1046.2,812.6z"/>
		<path d="M1091,812.5c-0.9,0-1.8-0.2-2.8-0.6c-1-0.4-1.9-1-2.8-1.8h-0.1l-0.3,2h-2.4v-26.4h3v7.2l-0.1,3.5h0.1
			c0.8-0.8,1.8-1.5,2.8-2c1.1-0.5,2.1-0.7,3.2-0.7c2.4,0,4.3,0.8,5.6,2.5c1.3,1.7,1.9,3.9,1.9,6.7c0,2-0.4,3.8-1.1,5.3
			c-0.8,1.5-1.8,2.6-3,3.3C1093.8,812.1,1092.5,812.5,1091,812.5z M1090.6,809.9c1.6,0,2.9-0.6,3.9-1.9c1-1.3,1.6-3,1.6-5.2
			c0-2-0.4-3.6-1.2-4.8s-2.1-1.8-3.9-1.8c-0.8,0-1.6,0.2-2.5,0.6c-0.9,0.4-1.8,1.1-2.8,2.1v9c0.9,0.8,1.7,1.3,2.6,1.6
			S1089.9,809.9,1090.6,809.9z"/>
		<path d="M1112.5,812.5c-1.6,0-3-0.4-4.4-1.1c-1.3-0.7-2.4-1.8-3.3-3.2c-0.8-1.4-1.2-3.1-1.2-5.1s0.4-3.7,1.2-5.1
			c0.8-1.4,1.9-2.5,3.3-3.2c1.3-0.7,2.8-1.1,4.4-1.1s3,0.4,4.4,1.1c1.3,0.7,2.4,1.8,3.3,3.2c0.8,1.4,1.2,3.1,1.2,5.1
			s-0.4,3.7-1.2,5.1c-0.8,1.4-1.9,2.5-3.3,3.2C1115.6,812.1,1114.1,812.5,1112.5,812.5z M1112.5,810c1.7,0,3.1-0.6,4.2-1.9
			c1-1.3,1.6-2.9,1.6-5s-0.5-3.8-1.6-5c-1-1.3-2.4-1.9-4.2-1.9c-1.7,0-3.1,0.6-4.2,1.9c-1,1.3-1.6,3-1.6,5s0.5,3.7,1.6,5
			C1109.4,809.4,1110.8,810,1112.5,810z"/>
		<path d="M1134.7,812.5c-1.6,0-3-0.4-4.4-1.1c-1.3-0.7-2.4-1.8-3.3-3.2c-0.8-1.4-1.2-3.1-1.2-5.1s0.4-3.7,1.2-5.1
			c0.8-1.4,1.9-2.5,3.3-3.2c1.3-0.7,2.8-1.1,4.4-1.1s3,0.4,4.4,1.1c1.3,0.7,2.4,1.8,3.3,3.2c0.8,1.4,1.2,3.1,1.2,5.1
			s-0.4,3.7-1.2,5.1c-0.8,1.4-1.9,2.5-3.3,3.2C1137.8,812.1,1136.3,812.5,1134.7,812.5z M1134.7,810c1.7,0,3.1-0.6,4.2-1.9
			c1-1.3,1.6-2.9,1.6-5s-0.5-3.8-1.6-5c-1-1.3-2.4-1.9-4.2-1.9c-1.7,0-3.1,0.6-4.2,1.9c-1,1.3-1.6,3-1.6,5s0.5,3.7,1.6,5
			C1131.6,809.4,1133,810,1134.7,810z"/>
		<path d="M1160.9,812.5c-1.9,0-3.4-0.5-4.4-1.6s-1.5-2.7-1.5-4.8v-17.8h-6.4v-2.5h9.4v20.5c0,1.3,0.3,2.3,1,2.9
			c0.7,0.6,1.5,0.9,2.6,0.9s2.2-0.3,3.4-0.8l0.8,2.3c-0.8,0.3-1.6,0.6-2.3,0.8C1162.7,812.4,1161.9,812.5,1160.9,812.5z"/>
		<path d="M621.6,856.5V841h-5.1v-2.3l5.1-0.2V837c0-2.2,0.6-4,1.8-5.3s3-2,5.5-2c1.8,0,3.5,0.3,5.2,1l-0.7,2.3
			c-0.7-0.3-1.4-0.6-2.1-0.7c-0.6-0.1-1.3-0.2-2.1-0.2c-1.6,0-2.8,0.4-3.5,1.3c-0.7,0.8-1.1,2-1.1,3.4v1.6h7.6v2.5h-7.6v15.5h-3
			V856.5z"/>
		<path d="M638.3,856.5v-18h2.5l0.3,3.1h0.1c0.9-1,2-1.9,3-2.5c1.1-0.7,2.3-1,3.7-1c2.1,0,3.7,0.6,4.7,1.9c1,1.2,1.5,3,1.5,5.4v11.2
			h-3v-10.8c0-1.7-0.3-3-1-3.8c-0.6-0.8-1.7-1.2-3.2-1.2c-1.1,0-2,0.3-2.9,0.8c-0.8,0.5-1.8,1.4-2.9,2.4v12.6h-2.8V856.5z"/>
		<path d="M690.3,864.8c-2.6,0-4.7-0.4-6.1-1.3c-1.5-0.9-2.2-2.1-2.2-3.7c0-1.5,1-2.9,3-4v-0.1c-0.5-0.3-0.9-0.6-1.3-1.1
			c-0.4-0.5-0.6-1.1-0.6-1.9c0-0.6,0.2-1.2,0.6-1.8c0.4-0.6,0.9-1.1,1.6-1.6v-0.1c-0.6-0.5-1.1-1.1-1.6-1.9
			c-0.4-0.8-0.6-1.7-0.6-2.8c0-1.3,0.3-2.4,1-3.4s1.5-1.7,2.6-2.2s2.2-0.8,3.5-0.8c1,0,1.9,0.1,2.7,0.4h7.4v2.5h-4.7
			c0.4,0.4,0.8,1,1.1,1.6s0.4,1.3,0.4,2c0,1.3-0.3,2.4-0.9,3.3c-0.6,0.9-1.5,1.6-2.5,2.1s-2.2,0.7-3.5,0.7c-0.5,0-1-0.1-1.5-0.2
			c-0.5-0.1-1-0.3-1.5-0.5c-0.4,0.3-0.8,0.6-1,0.9c-0.2,0.3-0.4,0.7-0.4,1.1c0,0.7,0.3,1.2,1,1.6c0.7,0.3,1.6,0.5,2.8,0.5h4
			c2.3,0,4,0.3,5.2,1c1.1,0.6,1.7,1.7,1.7,3.3c0,1.1-0.4,2.1-1.2,3.1s-2,1.7-3.5,2.3C694.1,864.5,692.3,864.8,690.3,864.8z
			 M690.5,862.6c2.1,0,3.8-0.4,5-1.1c1.2-0.7,1.8-1.6,1.8-2.5s-0.3-1.4-1-1.7s-1.7-0.4-3.1-0.4h-3.5c-0.5,0-1,0-1.5-0.1
			c-0.5,0-0.9-0.1-1.3-0.2c-0.8,0.5-1.4,1-1.8,1.5c-0.3,0.5-0.5,1-0.5,1.5c0,0.9,0.5,1.7,1.5,2.2
			C687.1,862.3,688.6,862.6,690.5,862.6z M690.1,848.8c1.2,0,2.1-0.4,2.9-1.2c0.8-0.8,1.2-1.8,1.2-3.1s-0.4-2.3-1.2-3.1
			s-1.8-1.2-2.9-1.2c-1.1,0-2.1,0.4-2.9,1.2c-0.8,0.8-1.2,1.8-1.2,3.1s0.4,2.3,1.2,3.1C688,848.4,688.9,848.8,690.1,848.8z"/>
		<path d="M713.7,856.9c-1.8,0-3.4-0.4-4.9-1.1s-2.6-1.8-3.5-3.2s-1.3-3.1-1.3-5.1c0-1.9,0.4-3.6,1.3-5c0.9-1.4,2-2.5,3.4-3.2
			c1.4-0.8,2.9-1.1,4.5-1.1c2.6,0,4.6,0.8,6.1,2.3c1.4,1.5,2.2,3.6,2.2,6.1c0,0.3,0,0.7,0,1s-0.1,0.6-0.1,0.9h-14.2
			c0.2,2,0.9,3.6,2.2,4.6s2.9,1.6,4.8,1.6c1.1,0,2.1-0.2,2.9-0.5c0.9-0.3,1.7-0.7,2.5-1.2l1.1,2c-0.9,0.6-1.9,1.1-3.1,1.5
			C716.5,856.7,715.2,856.9,713.7,856.9z M713.3,840.5c-1.5,0-2.8,0.5-4,1.4s-1.9,2.3-2.1,4.1h11.5c-0.1-1.9-0.7-3.2-1.6-4.1
			C716.1,840.9,714.8,840.5,713.3,840.5z"/>
		<path d="M738.3,856.9c-1.8,0-3.1-0.3-4.1-0.9c-1-0.6-1.7-1.5-2.2-2.6s-0.6-2.4-0.6-3.9V841h-5.1v-2.3l5.2-0.2l0.4-5.8h2.5v5.8h8.8
			v2.5h-8.8v8.6c0,1.6,0.3,2.8,1,3.7c0.7,0.8,1.8,1.3,3.6,1.3c0.9,0,1.6-0.1,2.3-0.2c0.7-0.1,1.4-0.3,2-0.6l0.7,2.2
			c-0.8,0.3-1.7,0.5-2.6,0.8C740.5,856.8,739.5,856.9,738.3,856.9z"/>
		<path d="M762,863c-2.6-2-4.6-4.4-6.1-7.2s-2.2-6-2.2-9.6s0.7-6.8,2.2-9.6s3.5-5.2,6.1-7.2l1.7,1.6c-2.5,2.1-4.3,4.4-5.5,6.9
			s-1.8,5.3-1.8,8.4s0.6,5.9,1.8,8.4s3,4.8,5.5,6.9L762,863z"/>
		<path d="M777,856.9c-1.4,0-2.7-0.3-3.8-0.9c-1.1-0.6-1.9-1.4-2.6-2.4s-0.9-2.2-0.9-3.5c0-1.1,0.2-2,0.6-2.8c0.4-0.8,1-1.6,1.7-2.3
			s1.4-1.3,2.2-1.9c-0.5-1-0.9-2-1.2-3s-0.4-1.9-0.4-2.8c0-1.1,0.2-2.1,0.7-2.9c0.4-0.9,1.1-1.5,1.9-2.1c0.8-0.5,1.7-0.8,2.8-0.8
			c1.5,0,2.7,0.4,3.5,1.3s1.2,2,1.2,3.5c0,1-0.3,2-0.8,2.8s-1.2,1.6-2,2.3s-1.6,1.4-2.5,2c0.8,1.2,1.7,2.4,2.7,3.6
			c1,1.2,2.1,2.2,3.2,3.2c0.7-1,1.3-2.1,1.8-3.3s0.9-2.5,1.3-3.9h2.8c-0.4,1.6-1,3.1-1.6,4.6s-1.4,2.8-2.3,4.1
			c1.5,1.1,2.9,1.9,4.2,2.3l-0.9,2.5c-1.6-0.5-3.3-1.4-5.1-2.8c-0.9,0.8-1.9,1.5-2.9,2C779.6,856.7,778.4,856.9,777,856.9z
			 M772.7,850c0,1.4,0.5,2.4,1.4,3.3c0.9,0.8,2,1.2,3.3,1.2c0.8,0,1.5-0.2,2.2-0.5s1.4-0.8,2-1.4c-1.2-1-2.3-2.2-3.3-3.4
			c-1.1-1.2-2-2.5-2.9-3.8c-0.8,0.7-1.4,1.4-1.9,2.2C772.9,848.2,772.7,849.1,772.7,850z M775.3,837.5c0,0.7,0.1,1.4,0.3,2.1
			c0.2,0.7,0.5,1.4,0.8,2.2c1-0.7,1.9-1.5,2.7-2.3s1.1-1.7,1.1-2.8c0-0.7-0.2-1.3-0.5-1.9c-0.3-0.5-0.9-0.8-1.7-0.8s-1.5,0.3-2,1
			S775.3,836.4,775.3,837.5z"/>
		<path d="M801.9,856.9c-1.8,0-3.4-0.3-4.9-0.8c-1.5-0.6-2.8-1.2-3.9-2l1.4-2c1,0.7,2.2,1.3,3.4,1.8s2.7,0.7,4.4,0.7
			c1.5,0,2.7-0.3,3.4-0.8c0.8-0.6,1.1-1.2,1.1-2c0-0.5-0.1-0.9-0.4-1.3c-0.3-0.4-0.8-0.7-1.6-1.1c-0.8-0.3-2-0.7-3.6-1
			c-2.3-0.5-4.1-1.2-5.3-2s-1.8-1.9-1.8-3.3c0-1.5,0.6-2.7,1.9-3.6c1.3-1,3.1-1.5,5.6-1.5c1.4,0,2.7,0.2,4,0.7s2.4,1,3.3,1.6l-1.5,2
			c-0.8-0.6-1.8-1-2.8-1.4c-1-0.3-2.1-0.5-3.3-0.5c-1.5,0-2.6,0.3-3.2,0.8c-0.6,0.5-0.9,1.1-0.9,1.8c0,0.8,0.4,1.4,1.2,1.8
			c0.8,0.4,2.2,0.8,4,1.2c2,0.4,3.5,0.9,4.6,1.4s1.8,1.1,2.2,1.8s0.6,1.5,0.6,2.4c0,1-0.3,1.9-0.9,2.7c-0.6,0.8-1.5,1.5-2.7,2
			C805,856.7,803.6,856.9,801.9,856.9z"/>
		<path d="M824.8,856.9c-1.8,0-3.4-0.4-4.9-1.1s-2.6-1.8-3.5-3.2s-1.3-3.1-1.3-5.1c0-1.9,0.4-3.6,1.3-5c0.9-1.4,2-2.5,3.4-3.2
			c1.4-0.8,2.9-1.1,4.5-1.1c2.6,0,4.6,0.8,6.1,2.3c1.4,1.5,2.2,3.6,2.2,6.1c0,0.3,0,0.7,0,1s-0.1,0.6-0.1,0.9h-14.2
			c0.2,2,0.9,3.6,2.2,4.6s2.9,1.6,4.8,1.6c1.1,0,2.1-0.2,2.9-0.5c0.9-0.3,1.7-0.7,2.5-1.2l1.1,2c-0.9,0.6-1.9,1.1-3.1,1.5
			C827.6,856.7,826.3,856.9,824.8,856.9z M824.4,840.5c-1.5,0-2.8,0.5-4,1.4s-1.9,2.3-2.1,4.1h11.5c-0.1-1.9-0.7-3.2-1.6-4.1
			C827.2,840.9,825.9,840.5,824.4,840.5z"/>
		<path d="M849.9,856.9c-1.9,0-3.4-0.5-4.4-1.6s-1.5-2.7-1.5-4.8v-17.8h-6.4v-2.5h9.4v20.5c0,1.3,0.3,2.3,1,2.9
			c0.7,0.6,1.5,0.9,2.6,0.9s2.2-0.3,3.4-0.8l0.8,2.3c-0.8,0.3-1.6,0.6-2.3,0.8C851.7,856.8,850.9,856.9,849.9,856.9z"/>
		<path d="M866,856.5V841h-5.1v-2.3l5.1-0.2V837c0-2.2,0.6-4,1.8-5.3s3-2,5.5-2c1.8,0,3.5,0.3,5.2,1l-0.7,2.3
			c-0.7-0.3-1.4-0.6-2.1-0.7c-0.6-0.1-1.3-0.2-2.1-0.2c-1.6,0-2.8,0.4-3.5,1.3c-0.7,0.8-1.1,2-1.1,3.4v1.6h7.6v2.5H869v15.5h-3
			V856.5z"/>
		<path d="M885.4,863l-1.7-1.6c2.5-2.1,4.3-4.4,5.5-6.9s1.8-5.3,1.8-8.4s-0.6-5.9-1.8-8.4s-3-4.8-5.5-6.9l1.7-1.6
			c2.6,2,4.6,4.4,6.1,7.2s2.2,6,2.2,9.6s-0.7,6.8-2.2,9.6C890,858.6,888,861,885.4,863z"/>
		<path d="M935.1,857l-1.6-1.7l7.4-6.9h-16.3v-2.5H941l-7.4-6.9l1.6-1.7l10.1,9.8v0.1L935.1,857z"/>
		<path d="M980,856.9c-0.9,0-1.8-0.2-2.8-0.6c-1-0.4-1.9-1-2.8-1.8h-0.1l-0.3,2h-2.4v-26.4h3v7.2l-0.1,3.5h0.1
			c0.8-0.8,1.8-1.5,2.8-2c1.1-0.5,2.1-0.7,3.2-0.7c2.4,0,4.3,0.8,5.6,2.5s1.9,3.9,1.9,6.7c0,2-0.4,3.8-1.1,5.3
			c-0.8,1.5-1.8,2.6-3,3.3C982.7,856.6,981.4,856.9,980,856.9z M979.5,854.4c1.6,0,2.9-0.6,3.9-1.9c1-1.3,1.6-3,1.6-5.2
			c0-2-0.4-3.6-1.2-4.8s-2.1-1.8-3.9-1.8c-0.8,0-1.6,0.2-2.5,0.6c-0.9,0.4-1.8,1.1-2.8,2.1v9c0.9,0.8,1.7,1.3,2.6,1.6
			S978.8,854.4,979.5,854.4z"/>
		<path d="M1001.4,856.9c-1.6,0-3-0.4-4.4-1.1c-1.3-0.7-2.4-1.8-3.3-3.2c-0.8-1.4-1.2-3.1-1.2-5.1s0.4-3.7,1.2-5.1
			c0.8-1.4,1.9-2.5,3.3-3.2c1.3-0.7,2.8-1.1,4.4-1.1c1.6,0,3,0.4,4.4,1.1c1.3,0.7,2.4,1.8,3.3,3.2c0.8,1.4,1.2,3.1,1.2,5.1
			s-0.4,3.7-1.2,5.1c-0.8,1.4-1.9,2.5-3.3,3.2C1004.5,856.6,1003,856.9,1001.4,856.9z M1001.4,854.4c1.7,0,3.1-0.6,4.2-1.9
			c1-1.3,1.6-2.9,1.6-5s-0.5-3.8-1.6-5c-1-1.3-2.4-1.9-4.2-1.9c-1.7,0-3.1,0.6-4.2,1.9c-1,1.3-1.6,3-1.6,5s0.5,3.7,1.6,5
			S999.7,854.4,1001.4,854.4z"/>
		<path d="M1023.7,856.9c-1.6,0-3-0.4-4.4-1.1c-1.3-0.7-2.4-1.8-3.3-3.2c-0.8-1.4-1.2-3.1-1.2-5.1s0.4-3.7,1.2-5.1
			c0.8-1.4,1.9-2.5,3.3-3.2c1.3-0.7,2.8-1.1,4.4-1.1s3,0.4,4.4,1.1c1.3,0.7,2.4,1.8,3.3,3.2c0.8,1.4,1.2,3.1,1.2,5.1
			s-0.4,3.7-1.2,5.1c-0.8,1.4-1.9,2.5-3.3,3.2C1026.7,856.6,1025.2,856.9,1023.7,856.9z M1023.7,854.4c1.7,0,3.1-0.6,4.2-1.9
			c1-1.3,1.6-2.9,1.6-5s-0.5-3.8-1.6-5c-1-1.3-2.4-1.9-4.2-1.9c-1.7,0-3.1,0.6-4.2,1.9c-1,1.3-1.6,3-1.6,5s0.5,3.7,1.6,5
			C1020.5,853.8,1021.9,854.4,1023.7,854.4z"/>
		<path d="M1049.8,856.9c-1.9,0-3.4-0.5-4.4-1.6s-1.5-2.7-1.5-4.8v-17.8h-6.4v-2.5h9.4v20.5c0,1.3,0.3,2.3,1,2.9
			c0.7,0.6,1.5,0.9,2.6,0.9s2.2-0.3,3.4-0.8l0.8,2.3c-0.8,0.3-1.6,0.6-2.3,0.8C1051.7,856.8,1050.8,856.9,1049.8,856.9z"/>
	</g>
	<g>
		<path d="M751.3,572.4v-27.9h10.9c2.4,0,4.5,0.4,6.3,1.2c1.7,0.8,3.1,1.9,4,3.3c0.9,1.5,1.4,3.2,1.4,5.2s-0.5,3.8-1.4,5.2
			s-2.3,2.6-4,3.3c-1.7,0.8-3.8,1.2-6.3,1.2h-8.7l1.8-1.8v10.3H751.3z M755.3,562.5l-1.8-2h8.6c2.6,0,4.5-0.6,5.8-1.7
			c1.3-1.1,2-2.7,2-4.6s-0.7-3.5-2-4.6s-3.2-1.6-5.8-1.6h-8.6l1.8-2V562.5z M770,572.4l-7.1-10.1h4.3l7.2,10.1H770z"/>
		<path d="M780.3,572.4v-27.9h10.9c2.4,0,4.5,0.4,6.3,1.2c1.7,0.8,3.1,1.9,4,3.3c0.9,1.5,1.4,3.2,1.4,5.2s-0.5,3.8-1.4,5.2
			s-2.3,2.6-4,3.3c-1.7,0.8-3.8,1.2-6.3,1.2h-8.7l1.8-1.9v10.3h-4V572.4z M784.3,562.5l-1.8-2h8.6c2.6,0,4.5-0.5,5.8-1.6
			s2-2.6,2-4.6s-0.7-3.5-2-4.6s-3.2-1.6-5.8-1.6h-8.6l1.8-2V562.5z"/>
		<path d="M821.6,572.7c-2.1,0-4.1-0.4-5.9-1.1c-1.8-0.7-3.3-1.7-4.7-3c-1.3-1.3-2.3-2.8-3.1-4.5c-0.7-1.7-1.1-3.6-1.1-5.7
			c0-2.1,0.4-4,1.1-5.7c0.7-1.7,1.8-3.2,3.1-4.5s2.9-2.3,4.7-3s3.8-1.1,5.9-1.1c2.2,0,4.1,0.4,6,1.1c1.8,0.7,3.4,1.8,4.6,3.2
			l-2.6,2.5c-1.1-1.1-2.3-1.9-3.6-2.5c-1.3-0.5-2.8-0.8-4.3-0.8c-1.6,0-3,0.3-4.4,0.8c-1.3,0.5-2.5,1.3-3.5,2.2s-1.7,2.1-2.3,3.4
			c-0.5,1.3-0.8,2.7-0.8,4.3c0,1.5,0.3,3,0.8,4.3s1.3,2.5,2.3,3.4s2.1,1.7,3.5,2.2c1.3,0.5,2.8,0.8,4.4,0.8c1.5,0,2.9-0.3,4.3-0.8
			c1.3-0.5,2.5-1.4,3.6-2.5l2.6,2.5c-1.3,1.4-2.8,2.5-4.6,3.3C825.8,572.3,823.8,572.7,821.6,572.7z"/>
		<path d="M852.7,568.9H869v3.5h-20.3v-27.9h19.7v3.5h-15.7V568.9z M852.3,556.5h14.4v3.4h-14.4V556.5z"/>
		<path d="M886.1,551.1c1.7,0,3.2,0.3,4.6,1c1.3,0.7,2.3,1.7,3.1,3c0.7,1.4,1.1,3.1,1.1,5.1v12.2h-3.8v-11.7c0-2-0.5-3.6-1.5-4.6
			s-2.4-1.6-4.2-1.6c-1.4,0-2.5,0.3-3.5,0.8s-1.8,1.3-2.3,2.4c-0.5,1-0.8,2.3-0.8,3.9v10.9H875v-21.1h3.7v5.7l-0.6-1.5
			c0.7-1.4,1.8-2.5,3.2-3.2S884.2,551.1,886.1,551.1z"/>
		<path d="M910.7,572.6c-2,0-3.9-0.5-5.5-1.4s-2.9-2.2-3.8-3.8c-0.9-1.6-1.4-3.5-1.4-5.7s0.5-4,1.4-5.6s2.2-2.9,3.8-3.8
			c1.6-0.9,3.4-1.4,5.5-1.4c1.8,0,3.4,0.4,4.8,1.2c1.4,0.8,2.6,2,3.4,3.6c0.9,1.6,1.3,3.6,1.3,6s-0.4,4.4-1.3,6
			c-0.8,1.6-2,2.8-3.4,3.6C914.2,572.2,912.5,572.6,910.7,572.6z M911,569.3c1.3,0,2.5-0.3,3.6-0.9c1.1-0.6,1.9-1.5,2.6-2.6
			c0.6-1.1,0.9-2.4,0.9-3.9s-0.3-2.8-0.9-3.9c-0.6-1.1-1.5-2-2.6-2.6s-2.3-0.9-3.6-0.9c-1.4,0-2.6,0.3-3.6,0.9
			c-1.1,0.6-1.9,1.5-2.6,2.6c-0.6,1.1-1,2.4-1,3.9s0.3,2.8,1,3.9c0.6,1.1,1.5,2,2.6,2.6C908.5,569,909.7,569.3,911,569.3z
			 M918.3,572.4v-5.7l0.2-4.9l-0.4-4.9v-14.1h3.8v29.6L918.3,572.4L918.3,572.4z"/>
		<path d="M929.2,580.1v-28.9h3.7v5.7l-0.2,4.9l0.4,4.9v13.4L929.2,580.1L929.2,580.1z M940.4,572.6c-1.8,0-3.4-0.4-4.8-1.2
			c-1.4-0.8-2.6-2-3.5-3.6s-1.3-3.6-1.3-6s0.4-4.4,1.3-6c0.8-1.6,2-2.8,3.4-3.6s3.1-1.2,4.9-1.2c2.1,0,3.9,0.5,5.5,1.4
			s2.9,2.2,3.8,3.8c0.9,1.6,1.4,3.5,1.4,5.6s-0.5,4-1.4,5.7c-0.9,1.6-2.2,2.9-3.8,3.8C944.3,572.2,942.5,572.6,940.4,572.6z
			 M940.1,569.3c1.4,0,2.6-0.3,3.6-0.9c1.1-0.6,1.9-1.5,2.6-2.6c0.6-1.1,0.9-2.4,0.9-3.9s-0.3-2.8-0.9-3.9c-0.6-1.1-1.5-2-2.6-2.6
			s-2.3-0.9-3.6-0.9s-2.5,0.3-3.6,0.9c-1.1,0.6-1.9,1.5-2.6,2.6c-0.6,1.1-0.9,2.4-0.9,3.9s0.3,2.8,0.9,3.9c0.6,1.1,1.5,2,2.6,2.6
			C937.5,569,938.7,569.3,940.1,569.3z"/>
		<path d="M965.4,572.6c-2.1,0-4-0.5-5.7-1.4c-1.6-0.9-3-2.2-3.9-3.8s-1.4-3.5-1.4-5.6s0.5-4,1.4-5.6c1-1.6,2.3-2.9,3.9-3.8
			s3.5-1.4,5.7-1.4c2.1,0,4,0.5,5.6,1.4s3,2.2,3.9,3.8s1.4,3.5,1.4,5.6s-0.5,4-1.4,5.6s-2.2,2.9-3.9,3.8
			C969.4,572.2,967.5,572.6,965.4,572.6z M965.4,569.3c1.4,0,2.6-0.3,3.6-0.9c1.1-0.6,1.9-1.5,2.5-2.6s0.9-2.4,0.9-3.9
			s-0.3-2.8-0.9-3.9c-0.6-1.1-1.5-2-2.5-2.6c-1.1-0.6-2.3-0.9-3.6-0.9c-1.4,0-2.6,0.3-3.6,0.9c-1.1,0.6-1.9,1.5-2.6,2.6
			c-0.6,1.1-1,2.4-1,3.9s0.3,2.8,1,3.9c0.6,1.1,1.5,2,2.6,2.6C962.9,569,964.1,569.3,965.4,569.3z"/>
		<path d="M983.6,547.2c-0.7,0-1.4-0.2-1.9-0.7s-0.7-1.1-0.7-1.8s0.2-1.3,0.7-1.8s1.1-0.7,1.9-0.7c0.7,0,1.4,0.2,1.9,0.7
			s0.7,1,0.7,1.7s-0.2,1.3-0.7,1.8S984.4,547.2,983.6,547.2z M981.7,572.4v-21.1h3.8v21.1H981.7z"/>
		<path d="M1004.1,551.1c1.7,0,3.2,0.3,4.6,1c1.3,0.7,2.3,1.7,3.1,3c0.7,1.4,1.1,3.1,1.1,5.1v12.2h-3.8v-11.7c0-2-0.5-3.6-1.5-4.6
			s-2.4-1.6-4.2-1.6c-1.4,0-2.5,0.3-3.5,0.8s-1.8,1.3-2.3,2.4c-0.5,1-0.8,2.3-0.8,3.9v10.9H993v-21.1h3.7v5.7l-0.6-1.5
			c0.7-1.4,1.8-2.5,3.2-3.2S1002.2,551.1,1004.1,551.1z"/>
		<path d="M1016.9,554.4v-3.1h13.5v3.1H1016.9z M1027.2,572.6c-2.1,0-3.8-0.6-4.9-1.7c-1.2-1.1-1.8-2.8-1.8-4.9v-19.4h3.8v19.2
			c0,1.1,0.3,2,0.9,2.6s1.4,0.9,2.5,0.9c1.2,0,2.2-0.3,3-1l1.2,2.8c-0.6,0.5-1.3,0.9-2.1,1.1C1029,572.5,1028.1,572.6,1027.2,572.6z
			"/>
	</g>
	<g>
		<path d="M563.7,728.9c-2.1,0-4.2-0.3-6.1-1c-1.9-0.7-3.5-1.5-4.6-2.5l1.5-3.1c1.1,0.9,2.4,1.7,4.1,2.3c1.6,0.6,3.4,0.9,5.1,0.9
			c1.6,0,2.9-0.2,3.9-0.6c1-0.4,1.8-0.9,2.2-1.5c0.5-0.7,0.7-1.4,0.7-2.2c0-1-0.3-1.7-0.9-2.3c-0.6-0.6-1.4-1.1-2.4-1.4
			s-2.1-0.7-3.3-0.9c-1.2-0.3-2.4-0.6-3.6-0.9c-1.2-0.4-2.3-0.8-3.3-1.4c-1-0.6-1.8-1.3-2.4-2.3c-0.6-0.9-0.9-2.2-0.9-3.6
			c0-1.4,0.4-2.8,1.1-4c0.8-1.2,1.9-2.2,3.5-2.9s3.6-1.1,6-1.1c1.6,0,3.2,0.2,4.8,0.6c1.6,0.4,3,1,4.1,1.8L572,706
			c-1.2-0.8-2.5-1.4-3.8-1.7c-1.3-0.4-2.6-0.5-3.9-0.5c-1.6,0-2.9,0.2-3.9,0.6c-1,0.4-1.7,0.9-2.2,1.6s-0.7,1.4-0.7,2.2
			c0,1,0.3,1.8,0.9,2.4c0.6,0.6,1.4,1.1,2.4,1.4c1,0.3,2.1,0.7,3.3,0.9c1.2,0.3,2.4,0.6,3.6,0.9c1.2,0.3,2.3,0.8,3.3,1.4
			s1.8,1.3,2.4,2.2c0.6,0.9,0.9,2.1,0.9,3.6c0,1.4-0.4,2.7-1.2,3.9s-2,2.2-3.6,2.9C568.2,728.5,566.1,728.9,563.7,728.9z"/>
		<path d="M588.6,728.8c-1.8,0-3.4-0.3-4.8-1c-1.4-0.7-2.4-1.7-3.2-3.1c-0.8-1.4-1.1-3.1-1.1-5.2v-12.2h3.8V719
			c0,2.1,0.5,3.6,1.5,4.7c1,1,2.4,1.6,4.2,1.6c1.3,0,2.5-0.3,3.5-0.8s1.7-1.3,2.3-2.4c0.5-1,0.8-2.3,0.8-3.8v-10.9h3.8v21.1h-3.6
			v-5.7l0.6,1.5c-0.7,1.4-1.7,2.5-3.1,3.3C591.9,728.4,590.4,728.8,588.6,728.8z"/>
		<path d="M606.8,728.5v-29.6h3.8V713l-0.4,4.9l0.2,4.9v5.7L606.8,728.5L606.8,728.5z M618,728.8c-1.8,0-3.4-0.4-4.9-1.2
			c-1.4-0.8-2.6-2-3.4-3.6c-0.8-1.6-1.3-3.6-1.3-6s0.4-4.4,1.3-6c0.9-1.6,2-2.8,3.5-3.6c1.4-0.8,3.1-1.2,4.8-1.2
			c2.1,0,3.9,0.5,5.5,1.4s2.9,2.2,3.8,3.8c0.9,1.6,1.4,3.5,1.4,5.6s-0.5,4-1.4,5.7c-0.9,1.6-2.2,2.9-3.8,3.8
			C621.9,728.3,620,728.8,618,728.8z M617.6,725.4c1.4,0,2.6-0.3,3.6-0.9c1.1-0.6,1.9-1.5,2.6-2.6c0.6-1.1,0.9-2.4,0.9-3.9
			s-0.3-2.8-0.9-3.9c-0.6-1.1-1.5-2-2.6-2.6s-2.3-0.9-3.6-0.9s-2.5,0.3-3.6,0.9c-1.1,0.6-1.9,1.5-2.6,2.6c-0.6,1.1-0.9,2.4-0.9,3.9
			s0.3,2.8,0.9,3.9c0.6,1.1,1.5,2,2.6,2.6S616.3,725.4,617.6,725.4z"/>
		<path d="M640,728.8c-1.8,0-3.4-0.2-5-0.7s-2.8-1.1-3.7-1.8l1.6-3c0.9,0.6,2,1.1,3.3,1.6c1.3,0.4,2.7,0.6,4.1,0.6
			c1.8,0,3.1-0.3,3.8-0.8c0.8-0.5,1.2-1.2,1.2-2.1c0-0.7-0.2-1.2-0.7-1.6c-0.5-0.4-1.1-0.7-1.9-0.8c-0.8-0.2-1.7-0.4-2.6-0.5
			c-1-0.1-1.9-0.3-2.9-0.6c-1-0.2-1.8-0.5-2.6-1c-0.8-0.4-1.4-1-1.9-1.7s-0.7-1.7-0.7-2.9c0-1.3,0.4-2.4,1.1-3.3s1.7-1.7,3-2.2
			s2.9-0.8,4.7-0.8c1.4,0,2.8,0.2,4.2,0.5s2.6,0.8,3.5,1.4l-1.6,3c-1-0.6-2-1.1-3-1.3s-2.1-0.4-3.1-0.4c-1.7,0-2.9,0.3-3.7,0.8
			s-1.2,1.2-1.2,2.1c0,0.7,0.2,1.3,0.7,1.7s1.1,0.7,1.9,0.9c0.8,0.2,1.7,0.4,2.6,0.5s1.9,0.3,2.9,0.6c1,0.2,1.8,0.5,2.6,0.9
			s1.4,1,1.9,1.7s0.7,1.7,0.7,2.9c0,1.3-0.4,2.4-1.1,3.3c-0.7,0.9-1.8,1.7-3.2,2.2C643.5,728.5,641.9,728.8,640,728.8z"/>
		<path d="M650.9,710.5v-3.1h13.5v3.1H650.9z M661.2,728.8c-2.1,0-3.8-0.6-4.9-1.7c-1.2-1.1-1.8-2.8-1.8-4.9v-19.4h3.8V722
			c0,1.1,0.3,2,0.9,2.6c0.6,0.6,1.4,0.9,2.5,0.9c1.2,0,2.2-0.3,3-1l1.2,2.8c-0.6,0.5-1.3,0.9-2.1,1.1
			C662.9,728.7,662.1,728.8,661.2,728.8z"/>
		<path d="M670.4,728.5v-21.1h3.7v5.7l-0.4-1.4c0.6-1.5,1.6-2.6,3-3.3s3.1-1.2,5.1-1.2v3.7c-0.2,0-0.3,0-0.5,0s-0.3,0-0.4,0
			c-2,0-3.7,0.6-4.9,1.8s-1.8,3-1.8,5.3v10.5H670.4z"/>
		<path d="M691.1,728.8c-1.6,0-2.9-0.3-4.1-0.8c-1.2-0.5-2.1-1.3-2.7-2.2c-0.6-0.9-1-2-1-3.2c0-1.1,0.3-2.2,0.8-3.1
			c0.5-0.9,1.4-1.7,2.7-2.2c1.2-0.6,2.9-0.8,5-0.8h6.7v2.8H692c-1.9,0-3.2,0.3-3.9,1c-0.7,0.6-1,1.4-1,2.3c0,1,0.4,1.9,1.2,2.5
			s2,0.9,3.4,0.9s2.7-0.3,3.8-1c1.1-0.6,1.9-1.6,2.3-2.8l0.8,2.6c-0.5,1.2-1.4,2.2-2.7,3C694.7,728.4,693.1,728.8,691.1,728.8z
			 M698.1,728.5V724l-0.2-0.8v-7.6c0-1.6-0.5-2.9-1.4-3.8c-0.9-0.9-2.4-1.3-4.2-1.3c-1.2,0-2.5,0.2-3.7,0.6c-1.2,0.4-2.2,1-3,1.7
			l-1.6-2.9c1.1-0.9,2.4-1.5,3.9-2s3.1-0.7,4.8-0.7c2.9,0,5.1,0.7,6.7,2.1c1.6,1.4,2.4,3.6,2.4,6.5v12.8L698.1,728.5L698.1,728.5z"
			/>
		<path d="M705.8,710.5v-3.1h13.5v3.1H705.8z M716,728.8c-2.1,0-3.8-0.6-4.9-1.7c-1.2-1.1-1.8-2.8-1.8-4.9v-19.4h3.8V722
			c0,1.1,0.3,2,0.9,2.6c0.6,0.6,1.4,0.9,2.5,0.9c1.2,0,2.2-0.3,3-1l1.2,2.8c-0.6,0.5-1.3,0.9-2.1,1.1
			C717.8,728.7,716.9,728.8,716,728.8z"/>
		<path d="M734,728.8c-2.3,0-4.2-0.5-6-1.4c-1.7-0.9-3-2.2-4-3.8c-0.9-1.6-1.4-3.5-1.4-5.6s0.5-4,1.4-5.6s2.2-2.9,3.8-3.8
			c1.6-0.9,3.4-1.4,5.4-1.4s3.9,0.5,5.4,1.4c1.6,0.9,2.8,2.2,3.7,3.8s1.3,3.5,1.3,5.7c0,0.2,0,0.3,0,0.6c0,0.2,0,0.4-0.1,0.6h-18
			v-2.8h16l-1.6,1c0-1.4-0.3-2.6-0.8-3.6c-0.6-1.1-1.4-1.9-2.4-2.5s-2.2-0.9-3.6-0.9c-1.3,0-2.5,0.3-3.5,0.9c-1,0.6-1.8,1.4-2.4,2.5
			s-0.9,2.3-0.9,3.7v0.6c0,1.4,0.3,2.7,1,3.8s1.6,2,2.7,2.6c1.2,0.6,2.5,0.9,4,0.9c1.2,0,2.4-0.2,3.4-0.6c1-0.4,1.9-1.1,2.7-1.9
			l2.1,2.5c-1,1.1-2.1,2-3.6,2.6C737.3,728.5,735.7,728.8,734,728.8z"/>
		<path d="M760.3,728.5v-27.9h3.3l18.5,22.9h-1.7v-22.9h4v27.9H781l-18.5-22.9h1.7v22.9H760.3z"/>
		<path d="M801.1,728.8c-2.1,0-4-0.5-5.7-1.4c-1.6-0.9-3-2.2-3.9-3.8s-1.4-3.5-1.4-5.6s0.5-4,1.4-5.6c1-1.6,2.3-2.9,3.9-3.8
			s3.5-1.4,5.7-1.4c2.1,0,4,0.5,5.6,1.4s3,2.2,3.9,3.8s1.4,3.5,1.4,5.6s-0.5,4-1.4,5.6s-2.2,2.9-3.9,3.8
			C805.1,728.3,803.2,728.8,801.1,728.8z M801.1,725.4c1.4,0,2.6-0.3,3.6-0.9c1.1-0.6,1.9-1.5,2.5-2.6s0.9-2.4,0.9-3.9
			s-0.3-2.8-0.9-3.9c-0.6-1.1-1.5-2-2.5-2.6c-1.1-0.6-2.3-0.9-3.6-0.9c-1.4,0-2.6,0.3-3.6,0.9c-1.1,0.6-1.9,1.5-2.6,2.6
			c-0.6,1.1-1,2.4-1,3.9s0.3,2.8,1,3.9c0.6,1.1,1.5,2,2.6,2.6S799.8,725.4,801.1,725.4z"/>
		<path d="M826.1,728.8c-2,0-3.9-0.5-5.5-1.4s-2.9-2.2-3.8-3.8c-0.9-1.6-1.4-3.5-1.4-5.7s0.5-4,1.4-5.6s2.2-2.9,3.8-3.8
			c1.6-0.9,3.4-1.4,5.5-1.4c1.8,0,3.4,0.4,4.8,1.2c1.4,0.8,2.6,2,3.4,3.6c0.9,1.6,1.3,3.6,1.3,6s-0.4,4.4-1.3,6
			c-0.8,1.6-2,2.8-3.4,3.6C829.6,728.4,828,728.8,826.1,728.8z M826.5,725.4c1.3,0,2.5-0.3,3.6-0.9c1.1-0.6,1.9-1.5,2.6-2.6
			c0.6-1.1,0.9-2.4,0.9-3.9s-0.3-2.8-0.9-3.9c-0.6-1.1-1.5-2-2.6-2.6s-2.3-0.9-3.6-0.9c-1.4,0-2.6,0.3-3.6,0.9
			c-1.1,0.6-1.9,1.5-2.6,2.6c-0.6,1.1-1,2.4-1,3.9s0.3,2.8,1,3.9c0.6,1.1,1.5,2,2.6,2.6C823.9,725.1,825.1,725.4,826.5,725.4z
			 M833.7,728.5v-5.7l0.2-4.9l-0.4-4.9v-14.1h3.8v29.6L833.7,728.5L833.7,728.5z"/>
		<path d="M854,728.8c-2.3,0-4.2-0.5-6-1.4c-1.7-0.9-3-2.2-4-3.8c-0.9-1.6-1.4-3.5-1.4-5.6s0.5-4,1.4-5.6s2.2-2.9,3.8-3.8
			c1.6-0.9,3.4-1.4,5.4-1.4s3.9,0.5,5.4,1.4c1.6,0.9,2.8,2.2,3.7,3.8s1.3,3.5,1.3,5.7c0,0.2,0,0.3,0,0.6c0,0.2,0,0.4-0.1,0.6h-18
			v-2.8h16l-1.6,1c0-1.4-0.3-2.6-0.8-3.6c-0.6-1.1-1.4-1.9-2.4-2.5s-2.2-0.9-3.6-0.9c-1.3,0-2.5,0.3-3.5,0.9c-1,0.6-1.8,1.4-2.4,2.5
			s-0.9,2.3-0.9,3.7v0.6c0,1.4,0.3,2.7,1,3.8s1.6,2,2.7,2.6c1.2,0.6,2.5,0.9,4,0.9c1.2,0,2.4-0.2,3.4-0.6c1-0.4,1.9-1.1,2.7-1.9
			l2.1,2.5c-1,1.1-2.1,2-3.6,2.6C857.4,728.5,855.8,728.8,854,728.8z"/>
		<path d="M878.8,716.2V713h17.9v3.1h-17.9V716.2z M886,723.3v-17.5h3.3v17.5H886z"/>
		<path d="M913.7,736.3v-28.9h3.7v5.7l-0.2,4.9l0.4,4.9v13.4L913.7,736.3L913.7,736.3z M924.9,728.8c-1.8,0-3.4-0.4-4.8-1.2
			c-1.4-0.8-2.6-2-3.5-3.6s-1.3-3.6-1.3-6s0.4-4.4,1.3-6c0.8-1.6,2-2.8,3.4-3.6s3.1-1.2,4.9-1.2c2.1,0,3.9,0.5,5.5,1.4
			s2.9,2.2,3.8,3.8c0.9,1.6,1.4,3.5,1.4,5.6s-0.5,4-1.4,5.7c-0.9,1.6-2.2,2.9-3.8,3.8C928.8,728.3,926.9,728.8,924.9,728.8z
			 M924.6,725.4c1.4,0,2.6-0.3,3.6-0.9c1.1-0.6,1.9-1.5,2.6-2.6c0.6-1.1,0.9-2.4,0.9-3.9s-0.3-2.8-0.9-3.9c-0.6-1.1-1.5-2-2.6-2.6
			s-2.3-0.9-3.6-0.9s-2.5,0.3-3.6,0.9c-1.1,0.6-1.9,1.5-2.6,2.6c-0.6,1.1-0.9,2.4-0.9,3.9s0.3,2.8,0.9,3.9c0.6,1.1,1.5,2,2.6,2.6
			C922,725.1,923.2,725.4,924.6,725.4z"/>
		<path d="M946.8,728.8c-1.6,0-2.9-0.3-4.1-0.8c-1.2-0.5-2.1-1.3-2.7-2.2c-0.6-0.9-1-2-1-3.2c0-1.1,0.3-2.2,0.8-3.1
			c0.5-0.9,1.4-1.7,2.7-2.2c1.2-0.6,2.9-0.8,5-0.8h6.7v2.8h-6.5c-1.9,0-3.2,0.3-3.9,1c-0.7,0.6-1,1.4-1,2.3c0,1,0.4,1.9,1.2,2.5
			s2,0.9,3.4,0.9s2.7-0.3,3.8-1c1.1-0.6,1.9-1.6,2.3-2.8l0.8,2.6c-0.5,1.2-1.4,2.2-2.7,3C950.4,728.4,948.8,728.8,946.8,728.8z
			 M953.8,728.5V724l-0.2-0.8v-7.6c0-1.6-0.5-2.9-1.4-3.8c-0.9-0.9-2.4-1.3-4.2-1.3c-1.2,0-2.5,0.2-3.7,0.6c-1.2,0.4-2.2,1-3,1.7
			l-1.6-2.9c1.1-0.9,2.4-1.5,3.9-2s3.1-0.7,4.8-0.7c2.9,0,5.1,0.7,6.7,2.1c1.6,1.4,2.4,3.6,2.4,6.5v12.8L953.8,728.5L953.8,728.5z"
			/>
		<path d="M964.5,728.5v-29.6h3.8v29.6H964.5z"/>
		<path d="M975.6,728.5v-29.6h3.8v29.6H975.6z"/>
		<path d="M996.2,728.8c-2.3,0-4.2-0.5-6-1.4c-1.7-0.9-3-2.2-4-3.8c-0.9-1.6-1.4-3.5-1.4-5.6s0.5-4,1.4-5.6s2.2-2.9,3.8-3.8
			c1.6-0.9,3.4-1.4,5.4-1.4s3.9,0.5,5.4,1.4c1.6,0.9,2.8,2.2,3.7,3.8s1.3,3.5,1.3,5.7c0,0.2,0,0.3,0,0.6c0,0.2,0,0.4-0.1,0.6h-18
			v-2.8h16l-1.6,1c0-1.4-0.3-2.6-0.8-3.6c-0.6-1.1-1.4-1.9-2.4-2.5s-2.2-0.9-3.6-0.9c-1.3,0-2.5,0.3-3.5,0.9c-1,0.6-1.8,1.4-2.4,2.5
			s-0.9,2.3-0.9,3.7v0.6c0,1.4,0.3,2.7,1,3.8s1.6,2,2.7,2.6c1.2,0.6,2.5,0.9,4,0.9c1.2,0,2.4-0.2,3.4-0.6c1-0.4,1.9-1.1,2.7-1.9
			l2.1,2.5c-1,1.1-2.1,2-3.6,2.6C999.5,728.5,997.9,728.8,996.2,728.8z"/>
		<path d="M1008.1,710.5v-3.1h13.5v3.1H1008.1z M1018.4,728.8c-2.1,0-3.8-0.6-4.9-1.7c-1.2-1.1-1.8-2.8-1.8-4.9v-19.4h3.8V722
			c0,1.1,0.3,2,0.9,2.6c0.6,0.6,1.4,0.9,2.5,0.9c1.2,0,2.2-0.3,3-1l1.2,2.8c-0.6,0.5-1.3,0.9-2.1,1.1
			C1020.1,728.7,1019.3,728.8,1018.4,728.8z"/>
		<path d="M1025.9,719.2v-3.3h10.7v3.3H1025.9z"/>
		<path d="M1052.2,728.8c-2.2,0-4.1-0.5-5.8-1.4c-1.7-0.9-3-2.2-4-3.8s-1.4-3.5-1.4-5.6s0.5-4,1.4-5.6c1-1.6,2.3-2.9,4-3.8
			c1.7-0.9,3.6-1.4,5.8-1.4c1.9,0,3.6,0.4,5.1,1.1s2.7,1.9,3.5,3.4l-2.9,1.9c-0.7-1-1.5-1.8-2.5-2.3s-2.1-0.7-3.2-0.7
			c-1.4,0-2.6,0.3-3.7,0.9c-1.1,0.6-2,1.5-2.6,2.6s-1,2.4-1,3.9s0.3,2.8,1,3.9c0.6,1.1,1.5,2,2.6,2.6s2.3,0.9,3.7,0.9
			c1.1,0,2.2-0.2,3.2-0.7s1.8-1.3,2.5-2.3l2.9,1.8c-0.8,1.5-2,2.6-3.5,3.4C1055.8,728.4,1054.1,728.8,1052.2,728.8z"/>
		<path d="M1074.4,728.8c-2.1,0-4-0.5-5.7-1.4c-1.6-0.9-3-2.2-3.9-3.8s-1.4-3.5-1.4-5.6s0.5-4,1.4-5.6c1-1.6,2.3-2.9,3.9-3.8
			s3.5-1.4,5.7-1.4c2.1,0,4,0.5,5.6,1.4s3,2.2,3.9,3.8s1.4,3.5,1.4,5.6s-0.5,4-1.4,5.6s-2.2,2.9-3.9,3.8
			C1078.4,728.3,1076.5,728.8,1074.4,728.8z M1074.4,725.4c1.4,0,2.6-0.3,3.6-0.9c1.1-0.6,1.9-1.5,2.5-2.6s0.9-2.4,0.9-3.9
			s-0.3-2.8-0.9-3.9c-0.6-1.1-1.5-2-2.5-2.6c-1.1-0.6-2.3-0.9-3.6-0.9c-1.4,0-2.6,0.3-3.6,0.9c-1.1,0.6-1.9,1.5-2.6,2.6
			c-0.6,1.1-1,2.4-1,3.9s0.3,2.8,1,3.9c0.6,1.1,1.5,2,2.6,2.6S1073.1,725.4,1074.4,725.4z"/>
		<path d="M1102,707.2c1.7,0,3.2,0.3,4.6,1c1.3,0.7,2.3,1.7,3.1,3c0.7,1.4,1.1,3.1,1.1,5.1v12.2h-3.8v-11.7c0-2-0.5-3.6-1.5-4.6
			s-2.4-1.6-4.2-1.6c-1.4,0-2.5,0.3-3.5,0.8s-1.8,1.3-2.3,2.4c-0.5,1-0.8,2.3-0.8,3.9v10.9h-3.8v-21.1h3.7v5.7l-0.6-1.5
			c0.7-1.4,1.8-2.5,3.2-3.2S1100.1,707.2,1102,707.2z"/>
		<path d="M1114.8,710.5v-3.1h13.5v3.1H1114.8z M1125.1,728.8c-2.1,0-3.8-0.6-4.9-1.7c-1.2-1.1-1.8-2.8-1.8-4.9v-19.4h3.8V722
			c0,1.1,0.3,2,0.9,2.6s1.4,0.9,2.5,0.9c1.2,0,2.2-0.3,3-1l1.2,2.8c-0.6,0.5-1.3,0.9-2.1,1.1C1126.8,728.7,1126,728.8,1125.1,728.8z
			"/>
		<path d="M1134.4,728.5v-21.1h3.7v5.7l-0.4-1.4c0.6-1.5,1.6-2.6,3-3.3s3.1-1.2,5.1-1.2v3.7c-0.2,0-0.3,0-0.5,0s-0.3,0-0.4,0
			c-2,0-3.7,0.6-4.9,1.8c-1.2,1.2-1.8,3-1.8,5.3v10.5H1134.4z"/>
		<path d="M1155.1,728.8c-1.6,0-2.9-0.3-4.1-0.8s-2.1-1.3-2.7-2.2s-1-2-1-3.2c0-1.1,0.3-2.2,0.8-3.1c0.5-0.9,1.4-1.7,2.7-2.2
			c1.2-0.6,2.9-0.8,5-0.8h6.7v2.8h-6.5c-1.9,0-3.2,0.3-3.9,1c-0.7,0.6-1,1.4-1,2.3c0,1,0.4,1.9,1.2,2.5c0.8,0.6,2,0.9,3.4,0.9
			s2.7-0.3,3.8-1c1.1-0.6,1.9-1.6,2.3-2.8l0.8,2.6c-0.5,1.2-1.4,2.2-2.7,3C1158.6,728.4,1157,728.8,1155.1,728.8z M1162,728.5V724
			l-0.2-0.8v-7.6c0-1.6-0.5-2.9-1.4-3.8c-0.9-0.9-2.4-1.3-4.2-1.3c-1.2,0-2.5,0.2-3.7,0.6c-1.2,0.4-2.2,1-3,1.7l-1.6-2.9
			c1.1-0.9,2.4-1.5,3.9-2s3.1-0.7,4.8-0.7c2.9,0,5.1,0.7,6.7,2.1c1.6,1.4,2.4,3.6,2.4,6.5v12.8L1162,728.5L1162,728.5z"/>
		<path d="M1181.9,728.8c-2.2,0-4.1-0.5-5.8-1.4c-1.7-0.9-3-2.2-4-3.8s-1.4-3.5-1.4-5.6s0.5-4,1.4-5.6c1-1.6,2.3-2.9,4-3.8
			c1.7-0.9,3.6-1.4,5.8-1.4c1.9,0,3.6,0.4,5.1,1.1s2.7,1.9,3.5,3.4l-2.9,1.9c-0.7-1-1.5-1.8-2.5-2.3s-2.1-0.7-3.2-0.7
			c-1.4,0-2.6,0.3-3.7,0.9c-1.1,0.6-2,1.5-2.6,2.6s-1,2.4-1,3.9s0.3,2.8,1,3.9c0.6,1.1,1.5,2,2.6,2.6s2.3,0.9,3.7,0.9
			c1.1,0,2.2-0.2,3.2-0.7s1.8-1.3,2.5-2.3l2.9,1.8c-0.8,1.5-2,2.6-3.5,3.4C1185.6,728.4,1183.9,728.8,1181.9,728.8z"/>
		<path d="M1192.7,710.5v-3.1h13.5v3.1H1192.7z M1203,728.8c-2.1,0-3.8-0.6-4.9-1.7c-1.2-1.1-1.8-2.8-1.8-4.9v-19.4h3.8V722
			c0,1.1,0.3,2,0.9,2.6s1.4,0.9,2.5,0.9c1.2,0,2.2-0.3,3-1l1.2,2.8c-0.6,0.5-1.3,0.9-2.1,1.1C1204.8,728.7,1203.9,728.8,1203,728.8z
			"/>
		<path d="M1218.3,728.8c-1.8,0-3.4-0.2-5-0.7s-2.8-1.1-3.7-1.8l1.6-3c0.9,0.6,2,1.1,3.3,1.6c1.3,0.4,2.7,0.6,4.1,0.6
			c1.8,0,3.1-0.3,3.8-0.8c0.8-0.5,1.2-1.2,1.2-2.1c0-0.7-0.2-1.2-0.7-1.6c-0.5-0.4-1.1-0.7-1.9-0.8c-0.8-0.2-1.7-0.4-2.6-0.5
			c-1-0.1-1.9-0.3-2.9-0.6c-1-0.2-1.8-0.5-2.6-1c-0.8-0.4-1.4-1-1.9-1.7s-0.7-1.7-0.7-2.9c0-1.3,0.4-2.4,1.1-3.3s1.7-1.7,3-2.2
			s2.9-0.8,4.7-0.8c1.4,0,2.8,0.2,4.2,0.5c1.4,0.3,2.6,0.8,3.5,1.4l-1.6,3c-1-0.6-2-1.1-3-1.3s-2.1-0.4-3.1-0.4
			c-1.7,0-2.9,0.3-3.7,0.8c-0.8,0.5-1.2,1.2-1.2,2.1c0,0.7,0.2,1.3,0.7,1.7s1.1,0.7,1.9,0.9s1.7,0.4,2.6,0.5s1.9,0.3,2.9,0.6
			c1,0.2,1.8,0.5,2.6,0.9s1.4,1,1.9,1.7s0.7,1.7,0.7,2.9c0,1.3-0.4,2.4-1.1,3.3c-0.7,0.9-1.8,1.7-3.2,2.2
			C1221.9,728.5,1220.2,728.8,1218.3,728.8z"/>
	</g>
	<g>
		<path class="st2" d="M388.8,819.3c-4.1,4.1-11.1,2.2-12.5-3.4c-1.5-5.6,3.6-10.7,9.2-9.2C391,808.2,392.9,815.2,388.8,819.3z"/>
	</g>
	<g>
		<path class="st2" d="M391.1,495.5c-7.4-4.2-7.6-14.5-0.4-18.6s16.4,1.2,16.6,9.4C407.5,494.6,398.5,499.7,391.1,495.5z"/>
	</g>
	<g>
		<g>
			<path class="st2" d="M1351.2,528.8c-6.1-2.9-6.8-11.3-1.3-15.2c5.6-3.9,13.2-0.3,13.8,6.5S1357.4,531.7,1351.2,528.8z"/>
		</g>
		<g>
			<g>
				<path class="st2" d="M1149.9,487.5c2.4-5.6,9-6.8,11.9-2.3s-0.2,11.5-5.4,12.5S1147.4,493.1,1149.9,487.5z"/>
			</g>
			<g>
				<path class="st2" d="M1161.6,547.1c-3.2,0-5.2-3.5-3.6-6.3s5.6-2.8,7.2,0C1166.8,543.7,1164.8,547.1,1161.6,547.1z"/>
			</g>
		</g>
	</g>
	<g>
		<path class="st2" d="M605.5,545.8c-3.3,0-5.3-3.6-3.7-6.4s5.8-2.8,7.4,0C610.9,542.2,608.8,545.8,605.5,545.8z"/>
	</g>
	<g>
		<path class="st2" d="M1374.5,689.8c-2,4.2-7.3,4.9-9.6,1.2c-2.2-3.6,0.3-8.9,4.5-9.4S1376.5,685.6,1374.5,689.8z"/>
	</g>
	<g>
		<path class="st2" d="M1414.9,847.2c0,7.2-7.8,11.6-14,8.1c-6.2-3.6-6.2-12.5,0-16.1C1407.2,835.6,1414.9,840,1414.9,847.2z"/>
	</g>
	<g>
		<path class="st6" d="M1304.3,560.7h9.2C1316.9,587.5,1310.6,593.5,1304.3,560.7z"/>
	</g>
	<g>
		<g>
			<path class="st1" d="M1316.1,572.4c-3,0-8.6-41.3-22.2-70.3c-14.5-31-42.7-34.6-46.8-6.7c-4.1,27.9,11.5,65.2,11.5,65.2h-23
				h-25.4c-1.4-6.8-2.6-13.2-3.4-19.3c-15.8-109.4,51-117.7,82.5-89.3C1328.2,487.1,1319.1,572.4,1316.1,572.4z"/>
		</g>
		<g>
			<path class="st0" d="M1293.9,502.1c-14.5-31-42.7-34.6-46.8-6.7c-4.1,27.9,11.5,65.2,11.5,65.2h-36.1c0,0-9.9-52.7,0.8-81.1
				C1237.9,441.1,1278.7,454.4,1293.9,502.1z"/>
		</g>
		<g>
			<path class="st3" d="M1246.6,535.6c1.1,12.8-6,21.5-12.8,15.7c-6.8-5.9-8.3-21.9-2.6-28.8C1237,515.5,1245.5,522.8,1246.6,535.6z
				"/>
		</g>
		<g>
			<path class="st3" d="M1245.1,487.7c-4.6,9.5-13.7,12.5-16.2,5.4c-2.6-7.1,3.2-19.1,10.4-21.5
				C1246.6,469.2,1249.8,478.2,1245.1,487.7z"/>
		</g>
		<g>
			<path class="st3" d="M1266.6,476.9c-7.7-4.6-10.3-11.1-4.7-11.8c5.6-0.7,15.2,5,17.3,10.3S1274.3,481.5,1266.6,476.9z"/>
		</g>
		<g>
			<path class="st0" d="M1237.3,555l-1.7,5.6h-25.4c-1.4-6.8-2.6-13.2-3.4-19.3C1218.5,554.3,1237.3,555,1237.3,555z"/>
		</g>
	</g>
</g>
<g>
	<path class="st7" d="M434.9,100.9h6.8v30.7h19v5.7h-25.8V100.9z"/>
	<path class="st7" d="M491.2,125.5h-21.8c0.8,4.1,4.2,6.7,9,6.7c3.1,0,5.6-1,7.5-3l3.5,4c-2.5,3-6.4,4.5-11.2,4.5
		c-9.3,0-15.3-6-15.3-14.2c0-8.3,6.1-14.2,14.4-14.2c8.1,0,14,5.7,14,14.4C491.3,124.1,491.2,124.9,491.2,125.5z M469.3,121.2h15.8
		c-0.5-4-3.6-6.8-7.9-6.8C473,114.4,469.9,117.1,469.3,121.2z"/>
	<path class="st7" d="M523,109.5l-13,30c-2.5,6.3-6.1,8.2-10.7,8.2c-2.8,0-5.7-0.9-7.4-2.5l2.6-4.8c1.2,1.2,3,1.9,4.8,1.9
		c2.3,0,3.6-1.1,4.9-3.8l0.5-1.1l-12.1-27.9h6.8l8.7,20.5l8.8-20.5H523z"/>
	<path class="st7" d="M552.3,125.5h-21.8c0.8,4.1,4.2,6.7,9,6.7c3.1,0,5.6-1,7.5-3l3.5,4c-2.5,3-6.4,4.5-11.2,4.5
		c-9.3,0-15.3-6-15.3-14.2c0-8.3,6.1-14.2,14.4-14.2c8.1,0,14,5.7,14,14.4C552.4,124.1,552.3,124.9,552.3,125.5z M530.4,121.2h15.8
		c-0.5-4-3.6-6.8-7.9-6.8C534.1,114.4,531,117.1,530.4,121.2z"/>
	<path class="st7" d="M585.9,121.4v15.9h-6.5v-15.1c0-4.9-2.4-7.3-6.6-7.3c-4.6,0-7.7,2.8-7.7,8.4v14h-6.5v-27.8h6.2v3.6
		c2.1-2.5,5.5-3.9,9.6-3.9C581,109.2,585.9,113,585.9,121.4z"/>
	<path class="st7" d="M621.7,98.7v38.6h-6.2v-3.6c-2.2,2.7-5.4,4-9.2,4c-8.1,0-14-5.6-14-14.2c0-8.6,6-14.2,14-14.2
		c3.6,0,6.8,1.2,8.9,3.7V98.7H621.7z M615.3,123.4c0-5.3-3.6-8.7-8.3-8.7c-4.7,0-8.3,3.4-8.3,8.7c0,5.3,3.6,8.7,8.3,8.7
		C611.7,132.1,615.3,128.7,615.3,123.4z"/>
	<path class="st7" d="M627.9,123.4c0-8.3,6.2-14.2,14.8-14.2c8.6,0,14.8,5.9,14.8,14.2s-6.2,14.2-14.8,14.2
		C634.2,137.7,627.9,131.7,627.9,123.4z M650.9,123.4c0-5.3-3.5-8.7-8.3-8.7c-4.7,0-8.2,3.4-8.2,8.7c0,5.3,3.5,8.7,8.2,8.7
		C647.4,132.1,650.9,128.7,650.9,123.4z"/>
	<path class="st7" d="M704.1,109.5l-11.9,27.8h-6.7l-11.9-27.8h6.8l8.6,20.6l8.9-20.6H704.1z"/>
	<path class="st7" d="M730.5,121v16.3h-6.1v-3.4c-1.6,2.4-4.6,3.7-8.7,3.7c-6.3,0-10.3-3.5-10.3-8.3c0-4.6,3.1-8.3,11.5-8.3h7.2
		v-0.4c0-3.8-2.3-6-6.9-6c-3.1,0-6.3,1-8.4,2.8l-2.5-4.7c3-2.3,7.3-3.4,11.8-3.4C725.9,109.2,730.5,113,730.5,121z M724,128.6v-3.2
		h-6.7c-4.4,0-5.6,1.7-5.6,3.7c0,2.3,2,3.8,5.3,3.8C720.2,132.9,722.9,131.5,724,128.6z"/>
	<path class="st7" d="M738.8,98.7h6.5v38.6h-6.5V98.7z"/>
	<path class="st7" d="M751.6,123.4c0-8.3,6.2-14.2,14.8-14.2c8.6,0,14.8,5.9,14.8,14.2s-6.2,14.2-14.8,14.2
		C757.8,137.7,751.6,131.7,751.6,123.4z M774.6,123.4c0-5.3-3.5-8.7-8.3-8.7c-4.7,0-8.2,3.4-8.2,8.7c0,5.3,3.5,8.7,8.2,8.7
		C771.1,132.1,774.6,128.7,774.6,123.4z"/>
	<path class="st7" d="M803.5,109.2v6.2c-0.6-0.1-1-0.2-1.5-0.2c-4.9,0-8.1,2.9-8.1,8.6v13.5h-6.5v-27.8h6.2v4.1
		C795.5,110.7,798.8,109.2,803.5,109.2z"/>
	<path class="st7" d="M834.7,125.5h-21.8c0.8,4.1,4.2,6.7,9,6.7c3.1,0,5.6-1,7.5-3l3.5,4c-2.5,3-6.4,4.5-11.2,4.5
		c-9.3,0-15.3-6-15.3-14.2c0-8.3,6.1-14.2,14.4-14.2c8.1,0,14,5.7,14,14.4C834.8,124.1,834.8,124.9,834.7,125.5z M812.9,121.2h15.8
		c-0.5-4-3.6-6.8-7.9-6.8C816.6,114.4,813.5,117.1,812.9,121.2z"/>
	<path class="st7" d="M837.9,134.5l2.5-4.9c2.4,1.6,6.2,2.8,9.7,2.8c4.1,0,5.8-1.1,5.8-3.1c0-5.3-17.2-0.3-17.2-11.4
		c0-5.3,4.7-8.7,12.2-8.7c3.7,0,7.9,0.9,10.4,2.4l-2.5,4.9c-2.7-1.6-5.3-2.1-8-2.1c-4,0-5.8,1.3-5.8,3.1c0,5.6,17.2,0.6,17.2,11.5
		c0,5.2-4.8,8.6-12.6,8.6C845,137.7,840.4,136.3,837.9,134.5z"/>
	<path class="st7" d="M909.4,98.7v38.6h-6.2v-3.6c-2.2,2.7-5.4,4-9.2,4c-8.1,0-14-5.6-14-14.2c0-8.6,6-14.2,14-14.2
		c3.6,0,6.8,1.2,8.9,3.7V98.7H909.4z M903,123.4c0-5.3-3.6-8.7-8.3-8.7c-4.7,0-8.3,3.4-8.3,8.7c0,5.3,3.6,8.7,8.3,8.7
		C899.4,132.1,903,128.7,903,123.4z"/>
	<path class="st7" d="M943.9,125.5h-21.8c0.8,4.1,4.2,6.7,9,6.7c3.1,0,5.6-1,7.5-3l3.5,4c-2.5,3-6.4,4.5-11.2,4.5
		c-9.3,0-15.3-6-15.3-14.2c0-8.3,6.1-14.2,14.4-14.2c8.1,0,14,5.7,14,14.4C944,124.1,944,124.9,943.9,125.5z M922.1,121.2h15.8
		c-0.5-4-3.6-6.8-7.9-6.8C925.8,114.4,922.7,117.1,922.1,121.2z"/>
	<path class="st7" d="M950.3,98.7h6.5v38.6h-6.5V98.7z"/>
	<path class="st7" d="M977.3,123.4c0-8.3,6.2-14.2,15-14.2c5.4,0,9.7,2.2,11.9,6.4l-5,2.9c-1.7-2.7-4.2-3.8-6.9-3.8
		c-4.8,0-8.4,3.3-8.4,8.7c0,5.4,3.6,8.7,8.4,8.7c2.8,0,5.3-1.2,6.9-3.8l5,2.9c-2.1,4.2-6.4,6.5-11.9,6.5
		C983.6,137.7,977.3,131.7,977.3,123.4z"/>
	<path class="st7" d="M1007.1,123.4c0-8.3,6.2-14.2,14.8-14.2c8.6,0,14.8,5.9,14.8,14.2s-6.2,14.2-14.8,14.2
		C1013.4,137.7,1007.1,131.7,1007.1,123.4z M1030.2,123.4c0-5.3-3.5-8.7-8.3-8.7c-4.7,0-8.2,3.4-8.2,8.7c0,5.3,3.5,8.7,8.2,8.7
		C1026.6,132.1,1030.2,128.7,1030.2,123.4z"/>
	<path class="st7" d="M1070.3,121.4v15.9h-6.5v-15.1c0-4.9-2.4-7.3-6.6-7.3c-4.6,0-7.7,2.8-7.7,8.4v14h-6.5v-27.8h6.2v3.6
		c2.1-2.5,5.5-3.9,9.6-3.9C1065.4,109.2,1070.3,113,1070.3,121.4z"/>
	<path class="st7" d="M1095.3,135.8c-1.6,1.2-3.9,1.9-6.2,1.9c-6.1,0-9.6-3.2-9.6-9.4v-13.4h-4.6v-5.2h4.6v-6.3h6.5v6.3h7.4v5.2
		h-7.4v13.2c0,2.7,1.4,4.2,3.8,4.2c1.4,0,2.7-0.4,3.6-1.1L1095.3,135.8z"/>
	<path class="st7" d="M1116.7,109.2v6.2c-0.6-0.1-1-0.2-1.5-0.2c-4.9,0-8.1,2.9-8.1,8.6v13.5h-6.5v-27.8h6.2v4.1
		C1108.7,110.7,1112.1,109.2,1116.7,109.2z"/>
	<path class="st7" d="M1145.3,121v16.3h-6.1v-3.4c-1.6,2.4-4.6,3.7-8.7,3.7c-6.3,0-10.3-3.5-10.3-8.3c0-4.6,3.1-8.3,11.5-8.3h7.2
		v-0.4c0-3.8-2.3-6-6.9-6c-3.1,0-6.3,1-8.4,2.8l-2.5-4.7c3-2.3,7.3-3.4,11.8-3.4C1140.7,109.2,1145.3,113,1145.3,121z M1138.8,128.6
		v-3.2h-6.7c-4.4,0-5.6,1.7-5.6,3.7c0,2.3,2,3.8,5.3,3.8C1135,132.9,1137.7,131.5,1138.8,128.6z"/>
	<path class="st7" d="M1170.3,135.8c-1.6,1.2-3.9,1.9-6.2,1.9c-6.1,0-9.6-3.2-9.6-9.4v-13.4h-4.6v-5.2h4.6v-6.3h6.5v6.3h7.4v5.2
		h-7.4v13.2c0,2.7,1.4,4.2,3.8,4.2c1.4,0,2.7-0.4,3.6-1.1L1170.3,135.8z"/>
	<path class="st7" d="M1172.4,123.4c0-8.3,6.2-14.2,14.8-14.2c8.6,0,14.8,5.9,14.8,14.2s-6.2,14.2-14.8,14.2
		C1178.7,137.7,1172.4,131.7,1172.4,123.4z M1195.5,123.4c0-5.3-3.5-8.7-8.3-8.7c-4.7,0-8.2,3.4-8.2,8.7c0,5.3,3.5,8.7,8.2,8.7
		C1191.9,132.1,1195.5,128.7,1195.5,123.4z"/>
	<path class="st7" d="M1206.1,113.5c0-2.6,1.9-4.3,4.3-4.3c2.3,0,4.3,1.7,4.3,4.3c0,2.5-1.9,4.3-4.3,4.3
		C1208,117.9,1206.1,116,1206.1,113.5z M1206.1,133.3c0-2.6,1.9-4.3,4.3-4.3c2.3,0,4.3,1.7,4.3,4.3c0,2.5-1.9,4.3-4.3,4.3
		C1208,137.7,1206.1,135.8,1206.1,133.3z"/>
	<path class="st7" d="M1259.8,137.3l-7.4-10.7c-0.5,0.1-0.9,0.1-1.4,0.1h-8.2v10.6h-6.8v-36.4h15c9.6,0,15.5,4.9,15.5,12.9
		c0,5.5-2.8,9.6-7.7,11.5l8.4,12H1259.8z M1250.6,106.6h-7.9v14.5h7.9c5.9,0,9-2.7,9-7.3S1256.5,106.6,1250.6,106.6z"/>
	<path class="st7" d="M1304.4,113.8c0,8-5.9,12.9-15.5,12.9h-8.2v10.5h-6.8v-36.4h15C1298.5,100.9,1304.4,105.8,1304.4,113.8z
		 M1297.6,113.8c0-4.6-3.1-7.2-9-7.2h-7.9v14.5h7.9C1294.5,121.1,1297.6,118.4,1297.6,113.8z"/>
	<path class="st7" d="M1309.1,119.1c0-10.9,8.3-18.7,19.5-18.7c5.9,0,11,2.1,14.4,6.1l-4.4,4.1c-2.7-2.9-5.9-4.3-9.7-4.3
		c-7.5,0-13,5.3-13,12.8s5.5,12.8,13,12.8c3.8,0,7.1-1.4,9.7-4.3l4.4,4.2c-3.4,4-8.5,6.1-14.5,6.1
		C1317.4,137.8,1309.1,130,1309.1,119.1z"/>
</g>
</svg>
