<?xml version="1.0" encoding="utf-8"?>
<!-- Generator: Adobe Illustrator 27.1.1, SVG Export Plug-In . SVG Version: 6.00 Build 0)  -->
<svg version="1.1" id="Layer_1" xmlns="http://www.w3.org/2000/svg" xmlns:xlink="http://www.w3.org/1999/xlink" x="0px" y="0px"
	 viewBox="0 0 1628.3 800.9" style="enable-background:new 0 0 1628.3 800.9;" xml:space="preserve">
<style type="text/css">
	.st0{fill:#242526;}
	.st1{fill:#FFFFFF;}
	.st2{fill:#BC83FB;}
</style>
<g>
	<rect y="2" class="st0" width="1628.3" height="800.9"/>
</g>
<g>
	<path class="st1" d="M386,280.4c-2.4,0-4.2-1-5.6-2.9s-2-4.7-2-8.2c0-3.6,0.7-6.3,2-8.2c1.4-1.9,3.2-2.8,5.6-2.8s4.2,0.9,5.6,2.8
		c1.4,1.9,2,4.6,2,8.2c0,3.5-0.7,6.3-2,8.2C390.3,279.4,388.4,280.4,386,280.4z M386,278.2c1.5,0,2.7-0.7,3.6-2.2
		c0.9-1.4,1.4-3.7,1.4-6.7c0-3.1-0.5-5.3-1.4-6.7s-2.2-2.1-3.6-2.1c-1.5,0-2.7,0.7-3.6,2.1c-0.9,1.4-1.4,3.6-1.4,6.7
		c0,3,0.5,5.3,1.4,6.7S384.5,278.2,386,278.2z M386,271.3c-0.6,0-1-0.2-1.4-0.6c-0.4-0.4-0.6-0.9-0.6-1.6c0-0.7,0.2-1.2,0.6-1.6
		c0.4-0.4,0.9-0.6,1.4-0.6c0.6,0,1,0.2,1.4,0.6s0.6,0.9,0.6,1.6s-0.2,1.2-0.6,1.6C387.1,271.1,386.6,271.3,386,271.3z"/>
	<path class="st1" d="M398.1,280l6.2-8.4l-5.7-7.8h3l2.6,3.6c0.3,0.4,0.6,0.9,0.9,1.3c0.3,0.5,0.6,0.9,1,1.4h0.1
		c0.3-0.4,0.6-0.9,0.9-1.4s0.6-1,0.9-1.4l2.4-3.5h2.9l-5.8,8l6.2,8.2h-3l-2.8-3.7c-0.3-0.5-0.7-1-1-1.5c-0.4-0.5-0.7-1-1.1-1.5h-0.1
		c-0.3,0.5-0.7,1-1,1.4c-0.3,0.5-0.7,1-1,1.5l-2.6,3.8H398.1L398.1,280z"/>
	<path class="st1" d="M425.9,280.4c-2.4,0-4.2-1-5.6-2.9s-2-4.7-2-8.2c0-3.6,0.7-6.3,2-8.2c1.4-1.9,3.2-2.8,5.6-2.8s4.2,0.9,5.6,2.8
		c1.4,1.9,2,4.6,2,8.2c0,3.5-0.7,6.3-2,8.2S428.3,280.4,425.9,280.4z M425.9,278.2c1.5,0,2.7-0.7,3.6-2.2c0.9-1.4,1.4-3.7,1.4-6.7
		c0-3.1-0.5-5.3-1.4-6.7s-2.2-2.1-3.6-2.1c-1.5,0-2.7,0.7-3.6,2.1c-0.9,1.4-1.4,3.6-1.4,6.7c0,3,0.5,5.3,1.4,6.7
		C423.2,277.4,424.5,278.2,425.9,278.2z M425.9,271.3c-0.6,0-1-0.2-1.4-0.6c-0.4-0.4-0.6-0.9-0.6-1.6c0-0.7,0.2-1.2,0.6-1.6
		c0.4-0.4,0.9-0.6,1.4-0.6c0.6,0,1,0.2,1.4,0.6s0.6,0.9,0.6,1.6s-0.2,1.2-0.6,1.6C427,271.1,426.5,271.3,425.9,271.3z"/>
	<path class="st1" d="M445.9,280.4c-2.4,0-4.2-1-5.6-2.9s-2-4.7-2-8.2c0-3.6,0.7-6.3,2-8.2c1.4-1.9,3.2-2.8,5.6-2.8s4.2,0.9,5.6,2.8
		c1.4,1.9,2,4.6,2,8.2c0,3.5-0.7,6.3-2,8.2S448.3,280.4,445.9,280.4z M445.9,278.2c1.5,0,2.7-0.7,3.6-2.2c0.9-1.4,1.4-3.7,1.4-6.7
		c0-3.1-0.5-5.3-1.4-6.7s-2.2-2.1-3.6-2.1c-1.5,0-2.7,0.7-3.6,2.1c-0.9,1.4-1.4,3.6-1.4,6.7c0,3,0.5,5.3,1.4,6.7
		C443.2,277.4,444.4,278.2,445.9,278.2z M445.9,271.3c-0.6,0-1-0.2-1.4-0.6c-0.4-0.4-0.6-0.9-0.6-1.6c0-0.7,0.2-1.2,0.6-1.6
		c0.4-0.4,0.9-0.6,1.4-0.6c0.6,0,1,0.2,1.4,0.6s0.6,0.9,0.6,1.6s-0.2,1.2-0.6,1.6C447,271.1,446.5,271.3,445.9,271.3z"/>
	<path class="st1" d="M465.9,280.4c-2.4,0-4.2-1-5.6-2.9s-2-4.7-2-8.2c0-3.6,0.7-6.3,2-8.2c1.4-1.9,3.2-2.8,5.6-2.8s4.2,0.9,5.6,2.8
		c1.4,1.9,2,4.6,2,8.2c0,3.5-0.7,6.3-2,8.2C470.1,279.4,468.3,280.4,465.9,280.4z M465.9,278.2c1.5,0,2.7-0.7,3.6-2.2
		c0.9-1.4,1.4-3.7,1.4-6.7c0-3.1-0.5-5.3-1.4-6.7s-2.2-2.1-3.6-2.1c-1.5,0-2.7,0.7-3.6,2.1c-0.9,1.4-1.4,3.6-1.4,6.7
		c0,3,0.5,5.3,1.4,6.7C463.2,277.4,464.4,278.2,465.9,278.2z M465.9,271.3c-0.6,0-1-0.2-1.4-0.6c-0.4-0.4-0.6-0.9-0.6-1.6
		c0-0.7,0.2-1.2,0.6-1.6c0.4-0.4,0.9-0.6,1.4-0.6c0.6,0,1,0.2,1.4,0.6s0.6,0.9,0.6,1.6s-0.2,1.2-0.6,1.6
		C466.9,271.1,466.4,271.3,465.9,271.3z"/>
	<path class="st1" d="M485.9,280.4c-2.4,0-4.2-1-5.6-2.9s-2-4.7-2-8.2c0-3.6,0.7-6.3,2-8.2c1.4-1.9,3.2-2.8,5.6-2.8s4.2,0.9,5.6,2.8
		c1.4,1.9,2,4.6,2,8.2c0,3.5-0.7,6.3-2,8.2C490.1,279.4,488.2,280.4,485.9,280.4z M485.9,278.2c1.5,0,2.7-0.7,3.6-2.2
		c0.9-1.4,1.4-3.7,1.4-6.7c0-3.1-0.5-5.3-1.4-6.7s-2.2-2.1-3.6-2.1c-1.5,0-2.7,0.7-3.6,2.1c-0.9,1.4-1.4,3.6-1.4,6.7
		c0,3,0.5,5.3,1.4,6.7C483.2,277.4,484.4,278.2,485.9,278.2z M485.9,271.3c-0.6,0-1-0.2-1.4-0.6c-0.4-0.4-0.6-0.9-0.6-1.6
		c0-0.7,0.2-1.2,0.6-1.6c0.4-0.4,0.9-0.6,1.4-0.6c0.6,0,1,0.2,1.4,0.6s0.6,0.9,0.6,1.6s-0.2,1.2-0.6,1.6
		C486.9,271.1,486.4,271.3,485.9,271.3z"/>
	<path class="st1" d="M505.8,280.4c-2.4,0-4.2-1-5.6-2.9s-2-4.7-2-8.2c0-3.6,0.7-6.3,2-8.2c1.4-1.9,3.2-2.8,5.6-2.8s4.2,0.9,5.6,2.8
		c1.4,1.9,2,4.6,2,8.2c0,3.5-0.7,6.3-2,8.2S508.2,280.4,505.8,280.4z M505.8,278.2c1.5,0,2.7-0.7,3.6-2.2c0.9-1.4,1.4-3.7,1.4-6.7
		c0-3.1-0.5-5.3-1.4-6.7s-2.2-2.1-3.6-2.1c-1.5,0-2.7,0.7-3.6,2.1c-0.9,1.4-1.4,3.6-1.4,6.7c0,3,0.5,5.3,1.4,6.7
		C503.1,277.4,504.3,278.2,505.8,278.2z M505.8,271.3c-0.6,0-1-0.2-1.4-0.6c-0.4-0.4-0.6-0.9-0.6-1.6c0-0.7,0.2-1.2,0.6-1.6
		c0.4-0.4,0.9-0.6,1.4-0.6c0.6,0,1,0.2,1.4,0.6s0.6,0.9,0.6,1.6s-0.2,1.2-0.6,1.6C506.9,271.1,506.4,271.3,505.8,271.3z"/>
	<path class="st1" d="M525.8,280.4c-2.4,0-4.2-1-5.6-2.9c-1.4-1.9-2-4.7-2-8.2c0-3.6,0.7-6.3,2-8.2c1.4-1.9,3.2-2.8,5.6-2.8
		c2.4,0,4.2,0.9,5.6,2.8c1.4,1.9,2,4.6,2,8.2c0,3.5-0.7,6.3-2,8.2C530,279.4,528.2,280.4,525.8,280.4z M525.8,278.2
		c1.5,0,2.7-0.7,3.6-2.2c0.9-1.4,1.4-3.7,1.4-6.7c0-3.1-0.5-5.3-1.4-6.7s-2.2-2.1-3.6-2.1c-1.5,0-2.7,0.7-3.6,2.1
		c-0.9,1.4-1.4,3.6-1.4,6.7c0,3,0.5,5.3,1.4,6.7C523.1,277.4,524.3,278.2,525.8,278.2z M525.8,271.3c-0.6,0-1-0.2-1.4-0.6
		c-0.4-0.4-0.6-0.9-0.6-1.6c0-0.7,0.2-1.2,0.6-1.6c0.4-0.4,0.9-0.6,1.4-0.6c0.6,0,1,0.2,1.4,0.6s0.6,0.9,0.6,1.6s-0.2,1.2-0.6,1.6
		C526.8,271.1,526.3,271.3,525.8,271.3z"/>
	<path class="st1" d="M545.8,280.4c-2.4,0-4.2-1-5.6-2.9c-1.4-1.9-2-4.7-2-8.2c0-3.6,0.7-6.3,2-8.2c1.4-1.9,3.2-2.8,5.6-2.8
		c2.4,0,4.2,0.9,5.6,2.8c1.4,1.9,2,4.6,2,8.2c0,3.5-0.7,6.3-2,8.2C550,279.4,548.1,280.4,545.8,280.4z M545.8,278.2
		c1.5,0,2.7-0.7,3.6-2.2c0.9-1.4,1.4-3.7,1.4-6.7c0-3.1-0.5-5.3-1.4-6.7s-2.2-2.1-3.6-2.1c-1.5,0-2.7,0.7-3.6,2.1
		c-0.9,1.4-1.4,3.6-1.4,6.7c0,3,0.5,5.3,1.4,6.7C543.1,277.4,544.3,278.2,545.8,278.2z M545.8,271.3c-0.6,0-1-0.2-1.4-0.6
		c-0.4-0.4-0.6-0.9-0.6-1.6c0-0.7,0.2-1.2,0.6-1.6c0.4-0.4,0.9-0.6,1.4-0.6c0.6,0,1,0.2,1.4,0.6s0.6,0.9,0.6,1.6s-0.2,1.2-0.6,1.6
		C546.8,271.1,546.3,271.3,545.8,271.3z"/>
	<path class="st1" d="M565.7,280.4c-2.4,0-4.2-1-5.6-2.9c-1.4-1.9-2-4.7-2-8.2c0-3.6,0.7-6.3,2-8.2c1.4-1.9,3.2-2.8,5.6-2.8
		c2.4,0,4.2,0.9,5.6,2.8c1.4,1.9,2,4.6,2,8.2c0,3.5-0.7,6.3-2,8.2S568.1,280.4,565.7,280.4z M565.7,278.2c1.5,0,2.7-0.7,3.6-2.2
		c0.9-1.4,1.4-3.7,1.4-6.7c0-3.1-0.5-5.3-1.4-6.7s-2.2-2.1-3.6-2.1c-1.5,0-2.7,0.7-3.6,2.1c-0.9,1.4-1.4,3.6-1.4,6.7
		c0,3,0.5,5.3,1.4,6.7C563,277.4,564.2,278.2,565.7,278.2z M565.7,271.3c-0.6,0-1-0.2-1.4-0.6c-0.4-0.4-0.6-0.9-0.6-1.6
		c0-0.7,0.2-1.2,0.6-1.6c0.4-0.4,0.9-0.6,1.4-0.6c0.6,0,1,0.2,1.4,0.6s0.6,0.9,0.6,1.6s-0.2,1.2-0.6,1.6
		C566.8,271.1,566.3,271.3,565.7,271.3z"/>
</g>
<g>
	<path class="st1" d="M386,626.4c-2.4,0-4.2-1-5.6-2.9s-2-4.7-2-8.2c0-3.6,0.7-6.3,2-8.2c1.4-1.9,3.2-2.8,5.6-2.8s4.2,0.9,5.6,2.8
		c1.4,1.9,2,4.6,2,8.2c0,3.5-0.7,6.3-2,8.2C390.3,625.4,388.4,626.4,386,626.4z M386,624.2c1.5,0,2.7-0.7,3.6-2.2s1.4-3.7,1.4-6.7
		c0-3.1-0.5-5.3-1.4-6.7s-2.2-2.1-3.6-2.1c-1.5,0-2.7,0.7-3.6,2.1c-0.9,1.4-1.4,3.6-1.4,6.7c0,3,0.5,5.3,1.4,6.7
		S384.5,624.2,386,624.2z M386,617.3c-0.6,0-1-0.2-1.4-0.6c-0.4-0.4-0.6-0.9-0.6-1.6c0-0.7,0.2-1.2,0.6-1.6c0.4-0.4,0.9-0.6,1.4-0.6
		c0.6,0,1,0.2,1.4,0.6c0.4,0.4,0.6,0.9,0.6,1.6c0,0.7-0.2,1.2-0.6,1.6C387.1,617.1,386.6,617.3,386,617.3z"/>
	<path class="st1" d="M398.1,626l6.2-8.4l-5.7-7.8h3l2.6,3.6c0.3,0.4,0.6,0.9,0.9,1.3c0.3,0.5,0.6,0.9,1,1.4h0.1
		c0.3-0.4,0.6-0.9,0.9-1.4s0.6-1,0.9-1.4l2.4-3.5h2.9l-5.8,8l6.2,8.2h-3l-2.8-3.7c-0.3-0.5-0.7-1-1-1.5c-0.4-0.5-0.7-1-1.1-1.5h-0.1
		c-0.3,0.5-0.7,1-1,1.4c-0.3,0.5-0.7,1-1,1.5l-2.6,3.8L398.1,626L398.1,626z"/>
	<path class="st1" d="M419.2,626v-2.3h6.1v-15.6h-4.8v-1.8c1.2-0.2,2.3-0.4,3.1-0.6c0.9-0.3,1.6-0.6,2.3-0.9h2v19h5.6v2.3h-14.3
		L419.2,626L419.2,626z"/>
	<path class="st1" d="M438.4,626v-1.6c2.4-2.1,4.4-4,6.1-5.6s2.9-3,3.8-4.3s1.3-2.5,1.3-3.7s-0.4-2.2-1.1-3
		c-0.8-0.8-1.9-1.2-3.5-1.2c-1,0-1.9,0.2-2.8,0.7s-1.6,1.1-2.3,1.8l-1.6-1.6c1-1,2-1.8,3.1-2.3c1.1-0.6,2.4-0.9,3.9-0.9
		c2.1,0,3.8,0.6,5.1,1.7c1.2,1.1,1.9,2.7,1.9,4.5c0,1.3-0.4,2.7-1.2,4c-0.8,1.4-2,2.8-3.4,4.3c-1.5,1.5-3.2,3.1-5.1,4.9
		c0.7,0,1.3-0.1,2-0.1s1.3-0.1,1.9-0.1h7v2.4L438.4,626L438.4,626z"/>
	<path class="st1" d="M465.5,626.4c-1.8,0-3.4-0.3-4.6-0.9c-1.3-0.6-2.3-1.3-3-2.1l1.4-1.8c0.7,0.7,1.6,1.3,2.6,1.8s2.2,0.8,3.5,0.8
		c1.4,0,2.7-0.4,3.6-1.1c1-0.7,1.5-1.7,1.5-2.8c0-1.3-0.6-2.3-1.8-3.1c-1.2-0.8-3.2-1.2-6-1.2v-2.1c2.5,0,4.3-0.4,5.4-1.1
		c1.1-0.8,1.6-1.7,1.6-2.8c0-1-0.4-1.9-1.2-2.5c-0.8-0.6-1.8-0.9-3.1-0.9c-1,0-1.9,0.2-2.8,0.6c-0.9,0.4-1.7,0.9-2.4,1.6l-1.5-1.7
		c0.9-0.8,1.9-1.4,3-1.9s2.4-0.7,3.7-0.7c1.3,0,2.5,0.2,3.6,0.6c1.1,0.4,1.9,1,2.5,1.8s0.9,1.8,0.9,2.9c0,1.3-0.4,2.3-1.3,3.2
		c-0.9,0.8-1.9,1.5-3.2,1.9v0.1c1,0.2,1.8,0.5,2.6,1c0.8,0.5,1.4,1.1,1.9,1.8s0.7,1.6,0.7,2.6c0,1.2-0.3,2.3-1,3.2s-1.6,1.6-2.8,2.1
		C468.2,626.1,466.9,626.4,465.5,626.4z"/>
	<path class="st1" d="M488.1,626v-5.9h-10.9v-1.8l10.6-13.5h2.9V618h3.3v2.2h-3.3v5.9h-2.6V626z M480.2,617.9h7.9v-6.6
		c0-0.6,0-1.2,0.1-1.9c0-0.7,0.1-1.3,0.1-1.9h-0.2c-0.3,0.5-0.7,1-1.1,1.5s-0.7,1-1.1,1.5L480.2,617.9z"/>
	<path class="st1" d="M505.4,626.4c-1.9,0-3.4-0.3-4.6-0.9c-1.2-0.6-2.2-1.3-3-2l1.4-1.8c0.7,0.6,1.5,1.2,2.5,1.7
		c0.9,0.5,2.1,0.7,3.5,0.7c1,0,1.9-0.2,2.7-0.6c0.8-0.4,1.5-1,1.9-1.7c0.5-0.7,0.7-1.6,0.7-2.6c0-1.5-0.5-2.6-1.4-3.4
		c-1-0.8-2.2-1.2-3.8-1.2c-0.9,0-1.6,0.1-2.3,0.3c-0.6,0.2-1.3,0.5-2.1,1l-1.5-0.9l0.7-10.2h12v2.4h-9.6l-0.6,6.3
		c0.6-0.3,1.2-0.5,1.8-0.6s1.3-0.2,2.1-0.2c1.4,0,2.6,0.2,3.7,0.7s2,1.2,2.6,2.2c0.7,1,1,2.2,1,3.8c0,1.5-0.4,2.8-1.1,3.9
		c-0.7,1.1-1.7,1.9-2.9,2.4C508,626.1,506.7,626.4,505.4,626.4z"/>
	<path class="st1" d="M526.5,626.4c-1.5,0-2.9-0.4-4.1-1.1c-1.2-0.8-2.2-1.9-2.9-3.4s-1.1-3.4-1.1-5.7c0-2.1,0.2-3.9,0.7-5.4
		s1.1-2.7,2-3.7s1.8-1.6,2.8-2.1c1.1-0.4,2.2-0.6,3.3-0.6c1.3,0,2.5,0.2,3.4,0.6c0.9,0.4,1.8,1,2.5,1.6l-1.5,1.7
		c-0.6-0.5-1.2-0.9-1.9-1.2s-1.5-0.4-2.3-0.4c-1.1,0-2.2,0.3-3.1,0.9c-0.9,0.6-1.8,1.5-2.4,2.8c-0.6,1.3-0.9,3.1-1,5.4
		c0.9-0.8,1.8-1.5,2.9-2c1-0.5,2.1-0.7,3.2-0.7c2,0,3.6,0.5,4.8,1.6s1.8,2.7,1.8,4.9c0,1.4-0.3,2.5-1,3.6c-0.7,1-1.5,1.8-2.6,2.4
		C528.9,626.1,527.8,626.4,526.5,626.4z M526.5,615c-0.8,0-1.7,0.2-2.7,0.7c-1,0.4-1.9,1.2-2.7,2.2c0.2,2,0.8,3.6,1.7,4.7
		c0.9,1.1,2.2,1.6,3.7,1.6c1.3,0,2.3-0.4,3.2-1.3c0.9-0.9,1.3-2,1.3-3.4s-0.4-2.6-1.2-3.3C529,615.4,527.9,615,526.5,615z"/>
	<path class="st1" d="M543.3,626c0.1-2,0.3-3.9,0.6-5.5s0.7-3.2,1.3-4.7c0.5-1.5,1.2-2.9,2.1-4.3c0.9-1.4,1.9-2.9,3.1-4.3h-12.3
		v-2.4h15.4v1.7c-1.4,1.6-2.6,3.1-3.5,4.6s-1.6,3-2.2,4.5c-0.5,1.5-0.9,3.1-1.2,4.8s-0.4,3.6-0.5,5.7L543.3,626L543.3,626z"/>
	<path class="st1" d="M565.8,626.4c-1.6,0-3-0.2-4.1-0.7c-1.2-0.5-2.1-1.2-2.7-2.1c-0.6-0.9-0.9-1.9-0.9-3c0-1,0.2-1.8,0.7-2.5
		c0.4-0.7,1-1.3,1.7-1.8s1.4-0.9,2.2-1.3v-0.1c-0.9-0.6-1.6-1.2-2.3-2.1c-0.6-0.8-0.9-1.8-0.9-2.9c0-1.1,0.3-2,0.8-2.9
		c0.6-0.8,1.3-1.5,2.3-1.9s2.1-0.7,3.4-0.7c2.1,0,3.7,0.5,4.9,1.6s1.7,2.4,1.7,4.1c0,1-0.3,1.9-0.9,2.8c-0.6,0.9-1.4,1.6-2.3,2.2
		v0.1c0.8,0.4,1.5,0.8,2.1,1.3s1.1,1,1.5,1.7s0.5,1.5,0.5,2.5s-0.3,2-0.9,2.9c-0.6,0.9-1.5,1.5-2.6,2
		C568.8,626.1,567.4,626.4,565.8,626.4z M565.9,624.3c1.6,0,2.8-0.3,3.6-1c0.9-0.7,1.3-1.6,1.3-2.7c0-1-0.3-1.8-0.9-2.3
		c-0.6-0.5-1.4-1-2.4-1.4s-2.1-0.8-3.4-1.2c-1,0.6-1.9,1.2-2.6,1.9s-1,1.6-1,2.7c0,1.2,0.5,2.1,1.5,2.9
		C562.9,624,564.2,624.3,565.9,624.3z M567.5,614.4c1.8-1.3,2.7-2.7,2.7-4.3c0-1-0.4-1.9-1.1-2.7c-0.7-0.7-1.8-1.1-3.2-1.1
		c-1.2,0-2.1,0.3-2.9,0.9s-1.1,1.5-1.1,2.5c0,0.8,0.2,1.5,0.7,2.1s1.2,1,2,1.4C565.5,613.7,566.4,614.1,567.5,614.4z"/>
</g>
<g>
	<path class="st1" d="M802.7,285c-2.1,0-3.6-0.3-4.6-0.9c-1-0.6-1.5-1.8-1.5-3.5c0-1.2,0-2.3,0.1-3.3s0.2-2,0.2-3.1
		c0-0.4-0.1-0.9-0.4-1.2c-0.3-0.4-0.7-0.7-1.4-1c-0.7-0.3-1.7-0.4-3-0.4v-1.7c1.3,0,2.3-0.2,3-0.4c0.7-0.2,1.2-0.6,1.4-1
		c0.3-0.4,0.4-0.8,0.4-1.2c0-1,0-2.1-0.2-3.1c-0.1-1-0.1-2.1-0.1-3.3c0-1.7,0.5-2.9,1.5-3.5s2.6-0.9,4.6-0.9h2v1.6H803
		c-1.1,0-2,0.1-2.6,0.3c-0.6,0.2-1,0.5-1.2,1c-0.2,0.4-0.3,1-0.3,1.8c0,1,0,1.9,0.1,2.9s0.1,2,0.1,3.1s-0.2,1.9-0.6,2.5
		c-0.4,0.6-1.2,0.9-2.4,1.1v0.1c1.2,0.2,1.9,0.6,2.4,1.1s0.6,1.4,0.6,2.5s0,2.2-0.1,3.1s-0.1,1.9-0.1,2.9c0,0.7,0.1,1.3,0.3,1.7
		s0.6,0.8,1.2,1c0.6,0.2,1.5,0.3,2.6,0.3h1.7v1.6h-2V285z"/>
	<path class="st1" d="M876.1,320.3c-1,0-1.9-0.2-2.7-0.5c-0.8-0.4-1.5-0.9-2-1.6s-0.7-1.5-0.7-2.5c0-1.2,0.4-2.2,1.2-3
		s2-1.5,3.8-1.9c1.7-0.5,4-0.8,6.8-1.1c0-0.7-0.2-1.4-0.4-2c-0.3-0.6-0.7-1.1-1.3-1.5s-1.5-0.6-2.5-0.6s-2.1,0.2-3,0.6
		c-1,0.4-1.9,0.8-2.6,1.3l-1.1-1.9c0.8-0.5,1.9-1.1,3.1-1.6c1.3-0.5,2.6-0.8,4-0.8c2.2,0,3.9,0.6,4.9,1.8c1.1,1.2,1.6,2.8,1.6,4.8
		v9.9H883l-0.2-2.2h-0.1c-0.9,0.7-1.9,1.3-3,1.8S877.2,320.3,876.1,320.3z M876.8,318.1c0.9,0,1.8-0.2,2.7-0.6s1.8-1,2.7-1.8v-4.3
		c-2.3,0.2-4.1,0.4-5.4,0.8s-2.3,0.8-2.8,1.4c-0.5,0.5-0.8,1.2-0.8,1.9c0,0.9,0.4,1.6,1.1,2S875.9,318.1,876.8,318.1z"/>
	<path class="st1" d="M897.9,308.4c-0.8,0-1.4-0.3-1.9-0.8s-0.8-1.2-0.8-2s0.3-1.5,0.8-2s1.2-0.8,1.9-0.8c0.8,0,1.4,0.3,1.9,0.8
		s0.8,1.2,0.8,2s-0.3,1.5-0.8,2C899.2,308.1,898.6,308.4,897.9,308.4z M897.9,320.3c-0.8,0-1.4-0.3-1.9-0.8s-0.8-1.2-0.8-2
		s0.3-1.5,0.8-2s1.2-0.8,1.9-0.8c0.8,0,1.4,0.3,1.9,0.8s0.8,1.2,0.8,2s-0.3,1.5-0.8,2S898.6,320.3,897.9,320.3z"/>
	<path class="st1" d="M938.5,320.3c-0.8,0-1.6-0.2-2.5-0.6s-1.7-0.9-2.5-1.6h-0.1l-0.2,1.8H931v-23.7h2.7v6.5l-0.1,3.1h0.1
		c0.7-0.8,1.6-1.4,2.5-1.8c1-0.4,1.9-0.7,2.9-0.7c2.2,0,3.8,0.7,5,2.2s1.7,3.5,1.7,6c0,1.8-0.3,3.4-1,4.7s-1.6,2.3-2.7,3
		C940.9,320,939.7,320.3,938.5,320.3z M938,318c1.4,0,2.6-0.6,3.5-1.7s1.4-2.7,1.4-4.7c0-1.8-0.4-3.2-1.1-4.3
		c-0.7-1.1-1.9-1.6-3.5-1.6c-0.7,0-1.5,0.2-2.3,0.6s-1.6,1-2.5,1.8v8.1c0.8,0.7,1.6,1.2,2.3,1.5C936.8,317.9,937.4,318,938,318z"/>
	<path class="st1" d="M957.8,320.3c-1.4,0-2.7-0.3-3.9-1s-2.2-1.6-2.9-2.9s-1.1-2.8-1.1-4.6c0-1.8,0.4-3.4,1.1-4.6s1.7-2.2,2.9-2.9
		c1.2-0.7,2.5-1,3.9-1s2.7,0.3,3.9,1s2.2,1.6,2.9,2.9s1.1,2.8,1.1,4.6c0,1.8-0.4,3.3-1.1,4.6c-0.7,1.3-1.7,2.2-2.9,2.9
		C960.5,320,959.2,320.3,957.8,320.3z M957.8,318c1.6,0,2.8-0.6,3.7-1.7s1.4-2.6,1.4-4.5s-0.5-3.4-1.4-4.5c-0.9-1.2-2.2-1.7-3.7-1.7
		c-1.6,0-2.8,0.6-3.7,1.7c-0.9,1.2-1.4,2.7-1.4,4.5s0.5,3.3,1.4,4.5S956.2,318,957.8,318z"/>
	<path class="st1" d="M977.7,320.3c-1.4,0-2.7-0.3-3.9-1s-2.2-1.6-2.9-2.9s-1.1-2.8-1.1-4.6c0-1.8,0.4-3.4,1.1-4.6s1.7-2.2,2.9-2.9
		c1.2-0.7,2.5-1,3.9-1s2.7,0.3,3.9,1s2.2,1.6,2.9,2.9s1.1,2.8,1.1,4.6c0,1.8-0.4,3.3-1.1,4.6c-0.7,1.3-1.7,2.2-2.9,2.9
		C980.5,320,979.1,320.3,977.7,320.3z M977.7,318c1.6,0,2.8-0.6,3.7-1.7s1.4-2.6,1.4-4.5s-0.5-3.4-1.4-4.5c-0.9-1.2-2.2-1.7-3.7-1.7
		c-1.6,0-2.8,0.6-3.7,1.7c-0.9,1.2-1.4,2.7-1.4,4.5s0.5,3.3,1.4,4.5S976.2,318,977.7,318z"/>
	<path class="st1" d="M1001.3,320.3c-1.7,0-3-0.5-3.9-1.5s-1.4-2.4-1.4-4.3v-16h-5.8v-2.2h8.5v18.5c0,1.2,0.3,2,0.9,2.6
		c0.6,0.5,1.4,0.8,2.3,0.8s2-0.2,3-0.7l0.7,2c-0.8,0.3-1.4,0.5-2.1,0.7C1002.9,320.2,1002.1,320.3,1001.3,320.3z"/>
	<path class="st1" d="M1015,327l-0.8-1.7c1.4-0.6,2.4-1.4,3.1-2.3c0.7-0.9,1.1-2,1.1-3.3c-0.1,0-0.2,0-0.3,0s-0.2,0-0.3,0
		c-0.7,0-1.3-0.2-1.8-0.6s-0.8-1-0.8-1.9s0.3-1.4,0.8-1.9c0.5-0.4,1.2-0.6,1.9-0.6c1,0,1.7,0.4,2.2,1.1s0.8,1.8,0.8,3.1
		c0,2-0.5,3.6-1.5,4.9C1018.3,325.3,1016.8,326.3,1015,327z"/>
	<path class="st1" d="M878.6,360.2c-0.8,0-1.6-0.2-2.5-0.6s-1.7-0.9-2.5-1.6h-0.1l-0.2,1.8h-2.2v-23.7h2.7v6.5l-0.1,3.1h0.1
		c0.7-0.8,1.6-1.4,2.5-1.8c1-0.4,1.9-0.7,2.9-0.7c2.2,0,3.8,0.7,5,2.2s1.7,3.5,1.7,6c0,1.8-0.3,3.4-1,4.7s-1.6,2.3-2.7,3
		C881,359.9,879.8,360.2,878.6,360.2z M878.1,357.9c1.4,0,2.6-0.6,3.5-1.7s1.4-2.7,1.4-4.7c0-1.8-0.4-3.2-1.1-4.3
		c-0.7-1.1-1.9-1.6-3.5-1.6c-0.7,0-1.5,0.2-2.3,0.6s-1.6,1-2.5,1.8v8.1c0.8,0.7,1.6,1.2,2.3,1.5
		C876.9,357.8,877.5,357.9,878.1,357.9z"/>
	<path class="st1" d="M897.9,348.3c-0.8,0-1.4-0.3-1.9-0.8s-0.8-1.2-0.8-2s0.3-1.5,0.8-2s1.2-0.8,1.9-0.8c0.8,0,1.4,0.3,1.9,0.8
		s0.8,1.2,0.8,2s-0.3,1.5-0.8,2C899.2,348.1,898.6,348.3,897.9,348.3z M897.9,360.2c-0.8,0-1.4-0.3-1.9-0.8s-0.8-1.2-0.8-2
		s0.3-1.5,0.8-2s1.2-0.8,1.9-0.8c0.8,0,1.4,0.3,1.9,0.8s0.8,1.2,0.8,2s-0.3,1.5-0.8,2S898.6,360.2,897.9,360.2z"/>
	<path class="st1" d="M936,360.2c-1.9,0-3.3-0.6-4.3-1.7c-0.9-1.1-1.4-2.7-1.4-4.9v-10.1h2.8v9.7c0,1.5,0.3,2.7,0.8,3.4
		c0.6,0.7,1.5,1.1,2.9,1.1c0.9,0,1.8-0.2,2.5-0.7c0.8-0.5,1.6-1.2,2.5-2.3v-11.2h2.7v16.2h-2.2l-0.2-2.7H942c-0.8,1-1.7,1.7-2.7,2.3
		C938.3,359.9,937.2,360.2,936,360.2z"/>
	<path class="st1" d="M957.3,360.2c-1.8,0-3.4-0.3-4.6-0.9c-1.3-0.6-2.3-1.3-3-2.1l1.4-1.8c0.7,0.7,1.6,1.3,2.6,1.8s2.2,0.8,3.5,0.8
		c1.4,0,2.7-0.4,3.6-1.1c1-0.7,1.5-1.7,1.5-2.8c0-1.3-0.6-2.3-1.8-3.1c-1.2-0.8-3.2-1.2-6-1.2v-2.1c2.5,0,4.3-0.4,5.4-1.1
		c1.1-0.8,1.6-1.7,1.6-2.8c0-1-0.4-1.9-1.2-2.5s-1.8-0.9-3.1-0.9c-1,0-1.9,0.2-2.8,0.6c-0.9,0.4-1.7,0.9-2.4,1.6l-1.5-1.7
		c0.9-0.8,1.9-1.4,3-1.9s2.4-0.7,3.7-0.7s2.5,0.2,3.6,0.6s1.9,1,2.5,1.8s0.9,1.8,0.9,2.9c0,1.3-0.4,2.3-1.3,3.2
		c-0.9,0.8-1.9,1.5-3.2,1.9v0.1c1,0.2,1.8,0.5,2.6,1s1.4,1.1,1.9,1.8c0.5,0.7,0.7,1.6,0.7,2.6c0,1.2-0.3,2.3-1,3.2
		c-0.7,0.9-1.6,1.6-2.8,2.1C960,360,958.7,360.2,957.3,360.2z"/>
	<path class="st1" d="M970.2,359.8v-1.6c2.4-2.1,4.4-4,6.1-5.6c1.7-1.6,2.9-3,3.8-4.3c0.9-1.3,1.3-2.5,1.3-3.7s-0.4-2.2-1.1-3
		c-0.8-0.8-1.9-1.2-3.5-1.2c-1,0-1.9,0.2-2.8,0.7c-0.9,0.5-1.6,1.1-2.3,1.8l-1.6-1.6c1-1,2-1.8,3.1-2.3c1.1-0.6,2.4-0.9,3.9-0.9
		c2.1,0,3.8,0.6,5.1,1.7c1.2,1.1,1.9,2.7,1.9,4.5c0,1.3-0.4,2.7-1.2,4c-0.8,1.4-2,2.8-3.4,4.3s-3.2,3.1-5.1,4.9c0.7,0,1.3-0.1,2-0.1
		s1.3-0.1,1.9-0.1h7v2.4h-15.1L970.2,359.8L970.2,359.8z"/>
	<path class="st1" d="M995,366.9l-0.8-1.7c1.4-0.6,2.4-1.4,3.1-2.3c0.7-0.9,1.1-2,1.1-3.3c-0.1,0-0.2,0-0.3,0s-0.2,0-0.3,0
		c-0.7,0-1.3-0.2-1.8-0.6s-0.8-1-0.8-1.9s0.3-1.4,0.8-1.9c0.5-0.4,1.2-0.6,1.9-0.6c1,0,1.7,0.4,2.2,1.1s0.8,1.8,0.8,3.1
		c0,2-0.5,3.6-1.5,4.9C998.3,365.2,996.9,366.2,995,366.9z"/>
	<path class="st1" d="M879.4,400.2c-1.7,0-3.2-0.3-4.5-1s-2.4-1.6-3.2-2.9s-1.2-2.8-1.2-4.6c0-1.8,0.4-3.4,1.2-4.6
		c0.8-1.3,1.9-2.2,3.3-2.9c1.4-0.7,2.9-1,4.5-1c1.3,0,2.5,0.2,3.4,0.7c1,0.5,1.8,1,2.5,1.7l-1.4,1.8c-0.7-0.6-1.4-1-2.1-1.4
		c-0.7-0.3-1.5-0.5-2.3-0.5c-1.2,0-2.3,0.3-3.3,0.8c-0.9,0.5-1.7,1.3-2.2,2.2s-0.8,2-0.8,3.3c0,1.2,0.3,2.3,0.8,3.2
		c0.5,0.9,1.2,1.7,2.2,2.2s2,0.8,3.3,0.8c1,0,1.9-0.2,2.7-0.6s1.6-0.9,2.2-1.4l1.2,1.8c-0.9,0.8-1.9,1.4-3,1.9
		C881.8,399.9,880.6,400.2,879.4,400.2z"/>
	<path class="st1" d="M897.9,388.3c-0.8,0-1.4-0.3-1.9-0.8s-0.8-1.2-0.8-2s0.3-1.5,0.8-2s1.2-0.8,1.9-0.8c0.8,0,1.4,0.3,1.9,0.8
		s0.8,1.2,0.8,2s-0.3,1.5-0.8,2C899.2,388,898.6,388.3,897.9,388.3z M897.9,400.2c-0.8,0-1.4-0.3-1.9-0.8s-0.8-1.2-0.8-2
		s0.3-1.5,0.8-2s1.2-0.8,1.9-0.8c0.8,0,1.4,0.3,1.9,0.8s0.8,1.2,0.8,2s-0.3,1.5-0.8,2S898.6,400.2,897.9,400.2z"/>
	<path class="st1" d="M936.2,399.8l-7-21.8h2.9l3.5,11.8c0.4,1.3,0.7,2.5,1,3.6s0.7,2.3,1.1,3.6h0.1c0.4-1.3,0.8-2.5,1.1-3.6
		s0.7-2.3,1-3.6l3.5-11.8h2.8l-6.9,21.8H936.2z"/>
	<path class="st1" d="M958.8,400.2c-1.6,0-3.1-0.3-4.4-1c-1.3-0.7-2.4-1.6-3.1-2.9c-0.8-1.3-1.2-2.8-1.2-4.6c0-1.8,0.4-3.3,1.2-4.5
		s1.8-2.2,3-2.9s2.6-1,4-1c2.3,0,4.1,0.7,5.4,2.1s1.9,3.2,1.9,5.5c0,0.3,0,0.6,0,0.9s-0.1,0.5-0.1,0.8h-12.7c0.2,1.8,0.8,3.2,2,4.1
		s2.6,1.4,4.3,1.4c1,0,1.9-0.1,2.6-0.4c0.8-0.3,1.5-0.6,2.3-1.1l1,1.8c-0.8,0.5-1.7,1-2.7,1.4C961.2,400,960.1,400.2,958.8,400.2z
		 M958.4,385.4c-1.3,0-2.5,0.4-3.6,1.3c-1,0.9-1.7,2.1-1.9,3.7h10.3c-0.1-1.7-0.6-2.9-1.5-3.7S959.7,385.4,958.4,385.4z"/>
	<path class="st1" d="M979.3,400.2c-1.7,0-3.2-0.3-4.5-1s-2.4-1.6-3.2-2.9s-1.2-2.8-1.2-4.6c0-1.8,0.4-3.4,1.2-4.6
		c0.8-1.3,1.9-2.2,3.3-2.9c1.4-0.7,2.9-1,4.5-1c1.3,0,2.5,0.2,3.4,0.7c1,0.5,1.8,1,2.5,1.7l-1.4,1.8c-0.7-0.6-1.4-1-2.1-1.4
		c-0.7-0.3-1.5-0.5-2.3-0.5c-1.2,0-2.3,0.3-3.3,0.8c-0.9,0.5-1.7,1.3-2.2,2.2s-0.8,2-0.8,3.3c0,1.2,0.3,2.3,0.8,3.2
		c0.5,0.9,1.2,1.7,2.2,2.2s2,0.8,3.3,0.8c1,0,1.9-0.2,2.7-0.6s1.6-0.9,2.2-1.4l1.2,1.8c-0.9,0.8-1.9,1.4-3,1.9
		C981.6,399.9,980.5,400.2,979.3,400.2z"/>
	<path class="st1" d="M1004.1,398.2l-12.4-8.4v-2.1l12.4-8.4v2.6l-10,6.8v0.1l10,6.8V398.2z"/>
	<path class="st1" d="M1015.9,400.2c-1.9,0-3.3-0.6-4.3-1.7c-0.9-1.1-1.4-2.7-1.4-4.9v-10.1h2.8v9.7c0,1.5,0.3,2.7,0.8,3.4
		c0.6,0.7,1.5,1.1,2.9,1.1c0.9,0,1.8-0.2,2.5-0.7c0.8-0.5,1.6-1.2,2.5-2.3v-11.2h2.7v16.2h-2.2l-0.2-2.8h-0.1
		c-0.8,1-1.7,1.7-2.7,2.3C1018.2,399.9,1017.1,400.2,1015.9,400.2z"/>
	<path class="st1" d="M1037.2,400.2c-1.8,0-3.4-0.3-4.6-0.9c-1.3-0.6-2.3-1.3-3-2.1l1.4-1.8c0.7,0.7,1.6,1.3,2.6,1.8
		s2.2,0.8,3.5,0.8c1.4,0,2.7-0.4,3.6-1.1c1-0.7,1.5-1.7,1.5-2.8c0-1.3-0.6-2.3-1.8-3.1c-1.2-0.8-3.2-1.2-6-1.2v-2.1
		c2.5,0,4.3-0.4,5.4-1.1c1.1-0.8,1.6-1.7,1.6-2.8c0-1-0.4-1.9-1.2-2.5c-0.8-0.6-1.8-0.9-3.1-0.9c-1,0-1.9,0.2-2.8,0.6
		s-1.7,0.9-2.4,1.6l-1.5-1.7c0.9-0.8,1.9-1.4,3-1.9s2.4-0.7,3.7-0.7c1.3,0,2.5,0.2,3.6,0.6s1.9,1,2.5,1.8s0.9,1.8,0.9,2.9
		c0,1.3-0.4,2.3-1.3,3.2c-0.9,0.8-1.9,1.5-3.2,1.9v0.1c1,0.2,1.8,0.5,2.6,1c0.8,0.5,1.4,1.1,1.9,1.8c0.5,0.7,0.7,1.6,0.7,2.6
		c0,1.2-0.3,2.3-1,3.2c-0.7,0.9-1.6,1.6-2.8,2.1C1039.9,399.9,1038.6,400.2,1037.2,400.2z"/>
	<path class="st1" d="M1050,399.8v-1.6c2.4-2.1,4.4-4,6.1-5.6s2.9-3,3.8-4.3s1.3-2.5,1.3-3.7s-0.4-2.2-1.1-3
		c-0.8-0.8-1.9-1.2-3.5-1.2c-1,0-1.9,0.2-2.8,0.7s-1.6,1.1-2.3,1.8l-1.6-1.6c1-1,2-1.8,3.1-2.3c1.1-0.6,2.4-0.9,3.9-0.9
		c2.1,0,3.8,0.6,5.1,1.7c1.2,1.1,1.9,2.7,1.9,4.5c0,1.3-0.4,2.7-1.2,4c-0.8,1.4-2,2.8-3.4,4.3s-3.2,3.1-5.1,4.9c0.7,0,1.3-0.1,2-0.1
		s1.3-0.1,1.9-0.1h7v2.4H1050V399.8z"/>
	<path class="st1" d="M1071.1,398.2v-2.6l10-6.8v-0.1l-10-6.8v-2.6l12.4,8.4v2.1L1071.1,398.2z"/>
	<path class="st1" d="M1094.9,406.9l-0.8-1.7c1.4-0.6,2.4-1.4,3.1-2.3s1.1-2,1.1-3.3c-0.1,0-0.2,0-0.3,0s-0.2,0-0.3,0
		c-0.7,0-1.3-0.2-1.8-0.6s-0.8-1-0.8-1.9s0.3-1.4,0.8-1.9c0.5-0.4,1.2-0.6,1.9-0.6c1,0,1.7,0.4,2.2,1.1s0.8,1.8,0.8,3.1
		c0,2-0.5,3.6-1.5,4.9C1098.1,405.2,1096.7,406.2,1094.9,406.9z"/>
	<path class="st1" d="M876.9,440.1c-2.1,0-3.8-0.7-5.1-2.2s-1.9-3.6-1.9-6.2c0-1.8,0.3-3.3,1-4.5c0.7-1.3,1.6-2.3,2.7-2.9
		c1.1-0.7,2.3-1,3.6-1c1,0,1.9,0.2,2.6,0.5c0.8,0.4,1.5,0.9,2.2,1.5h0.1l-0.1-3V416h2.7v23.7h-2.3l-0.2-2.1h-0.1
		c-0.7,0.7-1.5,1.3-2.4,1.8C878.9,439.9,877.9,440.1,876.9,440.1z M877.5,437.8c1.6,0,3.1-0.8,4.6-2.4v-8.1
		c-0.7-0.7-1.4-1.2-2.1-1.5c-0.7-0.3-1.4-0.4-2.1-0.4c-0.9,0-1.8,0.3-2.5,0.8c-0.8,0.5-1.4,1.2-1.8,2.2c-0.5,0.9-0.7,2-0.7,3.2
		c0,1.9,0.4,3.4,1.3,4.5C874.8,437.3,876,437.8,877.5,437.8z"/>
	<path class="st1" d="M897.9,428.2c-0.8,0-1.4-0.3-1.9-0.8s-0.8-1.2-0.8-2s0.3-1.5,0.8-2s1.2-0.8,1.9-0.8c0.8,0,1.4,0.3,1.9,0.8
		s0.8,1.2,0.8,2s-0.3,1.5-0.8,2C899.2,427.9,898.6,428.2,897.9,428.2z M897.9,440.1c-0.8,0-1.4-0.3-1.9-0.8s-0.8-1.2-0.8-2
		s0.3-1.5,0.8-2s1.2-0.8,1.9-0.8c0.8,0,1.4,0.3,1.9,0.8s0.8,1.2,0.8,2s-0.3,1.5-0.8,2S898.6,440.1,897.9,440.1z"/>
	<path class="st1" d="M932.3,439.7v-21.8h2.7v19.5h10.8v2.4h-13.5V439.7z"/>
	<path class="st1" d="M956,440.1c-1,0-1.9-0.2-2.7-0.5c-0.8-0.4-1.5-0.9-2-1.6s-0.7-1.5-0.7-2.5c0-1.2,0.4-2.2,1.2-3s2-1.5,3.8-1.9
		c1.7-0.5,4-0.8,6.8-1.1c0-0.7-0.2-1.4-0.4-2c-0.3-0.6-0.7-1.1-1.3-1.5s-1.5-0.6-2.5-0.6s-2.1,0.2-3,0.6c-1,0.4-1.9,0.8-2.6,1.3
		l-1.1-1.9c0.8-0.5,1.9-1.1,3.1-1.6c1.3-0.5,2.6-0.8,4-0.8c2.2,0,3.9,0.6,4.9,1.8c1.1,1.2,1.6,2.8,1.6,4.8v9.9h-2.2l-0.2-2.2h-0.1
		c-0.9,0.7-1.9,1.3-3,1.8S957.1,440.1,956,440.1z M956.7,437.9c0.9,0,1.8-0.2,2.7-0.6s1.8-1,2.7-1.8v-4.3c-2.3,0.2-4.1,0.4-5.4,0.8
		s-2.3,0.8-2.8,1.4c-0.5,0.5-0.8,1.2-0.8,1.9c0,0.9,0.4,1.6,1.1,2S955.8,437.9,956.7,437.9z"/>
	<path class="st1" d="M970.1,439.7v-1.5l11.1-12.5h-9.9v-2.2h13.8v1.5L974,437.5h11.4v2.2H970.1z"/>
	<path class="st1" d="M992.1,446.7c-0.8,0-1.5-0.1-2.1-0.3l0.6-2.2c0.2,0.1,0.5,0.1,0.7,0.2c0.3,0,0.5,0.1,0.7,0.1
		c1.1,0,2.1-0.3,2.8-1s1.3-1.5,1.7-2.5l0.5-1.2l-7.6-16.2h2.8l4,9c0.3,0.7,0.6,1.5,1,2.3s0.7,1.6,1,2.4h0.1c0.3-0.8,0.6-1.6,0.9-2.4
		c0.3-0.8,0.6-1.6,0.8-2.3l3.5-9h2.6l-7.1,17.5c-0.4,1.1-0.9,2-1.5,2.9c-0.6,0.8-1.3,1.5-2.2,2C994.3,446.4,993.3,446.7,992.1,446.7
		z"/>
	<path class="st1" d="M1024.1,438.1l-12.4-8.4v-2.1l12.4-8.4v2.6l-10,6.8v0.1l10,6.8V438.1z"/>
	<path class="st1" d="M1030,439.7v-21.8h3.4l3.1,9.3l1.1,3.5h0.1l1-3.5l3.1-9.3h3.4v21.8h-2.7v-10.9c0-0.7,0-1.5,0.1-2.5
		s0.1-1.9,0.2-2.9c0.1-0.9,0.1-1.7,0.2-2.3h-0.1l-1.2,4.3l-3.1,8.6h-2l-3.1-8.6l-1.3-4.3h-0.1c0.1,0.6,0.1,1.4,0.2,2.3
		s0.1,1.9,0.2,2.9s0.1,1.8,0.1,2.5v10.9H1030z"/>
	<path class="st1" d="M1052,446.7c-0.8,0-1.5-0.1-2.1-0.3l0.6-2.2c0.2,0.1,0.5,0.1,0.7,0.2c0.3,0,0.5,0.1,0.7,0.1
		c1.1,0,2.1-0.3,2.8-1c0.7-0.7,1.3-1.5,1.7-2.5l0.5-1.2l-7.6-16.2h2.8l4,9c0.3,0.7,0.6,1.5,1,2.3s0.7,1.6,1,2.4h0.1
		c0.3-0.8,0.6-1.6,0.9-2.4s0.6-1.6,0.8-2.3l3.5-9h2.6l-7.1,17.5c-0.4,1.1-0.9,2-1.5,2.9c-0.6,0.8-1.3,1.5-2.2,2
		C1054.2,446.4,1053.2,446.7,1052,446.7z"/>
	<path class="st1" d="M1076.2,439.7v-19.5h-7.2v-2.3h17.1v2.3h-7.2v19.5H1076.2z"/>
	<path class="st1" d="M1091.9,446.7c-0.8,0-1.5-0.1-2.1-0.3l0.6-2.2c0.2,0.1,0.5,0.1,0.7,0.2c0.3,0,0.5,0.1,0.7,0.1
		c1.1,0,2.1-0.3,2.8-1c0.7-0.7,1.3-1.5,1.7-2.5l0.5-1.2l-7.6-16.2h2.8l4,9c0.3,0.7,0.6,1.5,1,2.3s0.7,1.6,1,2.4h0.1
		c0.3-0.8,0.6-1.6,0.9-2.4s0.6-1.6,0.8-2.3l3.5-9h2.6l-7.1,17.5c-0.4,1.1-0.9,2-1.5,2.9c-0.6,0.8-1.3,1.5-2.2,2
		C1094.2,446.4,1093.1,446.7,1091.9,446.7z"/>
	<path class="st1" d="M1110.6,446.5v-23h2.3l0.2,2.1h0.1c0.8-0.7,1.6-1.3,2.6-1.8s2-0.7,3-0.7c2.2,0,3.8,0.7,5,2.2s1.7,3.5,1.7,6
		c0,1.8-0.3,3.4-1,4.7c-0.7,1.3-1.6,2.3-2.7,3s-2.3,1-3.6,1c-0.8,0-1.6-0.2-2.4-0.5c-0.9-0.4-1.7-0.9-2.4-1.5h-0.1l0.1,3.1v5.5h-2.8
		L1110.6,446.5L1110.6,446.5z M1117.7,437.8c1.4,0,2.6-0.6,3.6-1.7c0.9-1.1,1.4-2.7,1.4-4.7c0-1.8-0.4-3.2-1.1-4.3
		c-0.7-1.1-1.9-1.6-3.5-1.6c-0.7,0-1.5,0.2-2.3,0.6s-1.6,1-2.5,1.8v8.1c0.8,0.7,1.6,1.2,2.3,1.5
		C1116.4,437.7,1117.1,437.8,1117.7,437.8z"/>
	<path class="st1" d="M1138.5,440.1c-1.6,0-3.1-0.3-4.4-1s-2.4-1.6-3.1-2.9c-0.8-1.3-1.2-2.8-1.2-4.6c0-1.8,0.4-3.3,1.2-4.5
		c0.8-1.2,1.8-2.2,3-2.9c1.2-0.7,2.6-1,4-1c2.3,0,4.1,0.7,5.4,2.1s1.9,3.2,1.9,5.5c0,0.3,0,0.6,0,0.9s-0.1,0.5-0.1,0.8h-12.7
		c0.2,1.8,0.8,3.2,2,4.1s2.6,1.4,4.3,1.4c1,0,1.9-0.1,2.6-0.4c0.8-0.3,1.5-0.6,2.3-1.1l1,1.8c-0.8,0.5-1.7,1-2.7,1.4
		C1140.9,439.9,1139.8,440.1,1138.5,440.1z M1138.1,425.3c-1.3,0-2.5,0.4-3.6,1.3c-1,0.9-1.7,2.1-1.9,3.7h10.3
		c-0.1-1.7-0.6-2.9-1.5-3.7S1139.4,425.3,1138.1,425.3z"/>
	<path class="st1" d="M1151,438.1v-2.6l10-6.8v-0.1l-10-6.8v-2.6l12.4,8.4v2.1L1151,438.1z"/>
	<path class="st1" d="M791.3,484.7v-1.6h1.7c1.1,0,2-0.1,2.6-0.3c0.6-0.2,1-0.5,1.2-1s0.3-1,0.3-1.7c0-1,0-2-0.1-2.9s-0.1-2-0.1-3.1
		s0.2-1.9,0.6-2.5c0.4-0.6,1.2-0.9,2.4-1.1v-0.1c-1.2-0.2-1.9-0.6-2.4-1.1c-0.4-0.6-0.6-1.4-0.6-2.5c0-1,0-2.1,0.1-3.1
		s0.1-2,0.1-2.9c0-0.7-0.1-1.3-0.3-1.8c-0.2-0.4-0.6-0.8-1.2-1s-1.5-0.3-2.6-0.3h-1.7v-1.6h2c2.1,0,3.6,0.3,4.6,0.9s1.5,1.8,1.5,3.5
		c0,1.2,0,2.3-0.1,3.3s-0.2,2.1-0.2,3.1c0,0.4,0.1,0.8,0.4,1.2s0.7,0.7,1.4,1c0.7,0.2,1.7,0.4,3,0.4v1.7c-1.3,0-2.3,0.1-3,0.4
		s-1.2,0.6-1.4,1c-0.3,0.4-0.4,0.8-0.4,1.2c0,1.1,0,2.2,0.2,3.1c0.1,1,0.1,2.1,0.1,3.3c0,1.7-0.5,2.9-1.5,3.5s-2.5,0.9-4.6,0.9h-2
		V484.7z"/>
</g>
<g>
	<path class="st1" d="M790.4,626v-21.8h3.4l3.1,9.3l1.1,3.5h0.1l1-3.5l3.1-9.3h3.4V626h-2.7v-11c0-0.7,0-1.5,0.1-2.5
		s0.1-1.9,0.2-2.9c0.1-0.9,0.1-1.7,0.2-2.3h-0.1l-1.2,4.3l-3.1,8.6h-2l-3.1-8.6l-1.3-4.3h-0.1c0.1,0.6,0.1,1.4,0.2,2.3
		c0.1,0.9,0.1,1.9,0.2,2.9c0.1,1,0.1,1.8,0.1,2.5v11H790.4z"/>
	<path class="st1" d="M812.4,632.9c-0.8,0-1.5-0.1-2.1-0.3l0.6-2.2c0.2,0.1,0.5,0.1,0.7,0.2c0.3,0,0.5,0.1,0.7,0.1
		c1.1,0,2.1-0.3,2.8-1s1.3-1.5,1.7-2.5l0.5-1.2l-7.6-16.2h2.8l4,9c0.3,0.7,0.6,1.5,1,2.3c0.3,0.8,0.7,1.6,1,2.4h0.1
		c0.3-0.8,0.6-1.6,0.9-2.4s0.6-1.6,0.8-2.3l3.5-9h2.6l-7.1,17.5c-0.4,1.1-0.9,2-1.5,2.9c-0.6,0.8-1.3,1.5-2.2,2
		C814.6,632.7,813.6,632.9,812.4,632.9z"/>
	<path class="st1" d="M836.6,626v-19.5h-7.2v-2.3h17.2v2.3h-7.2V626H836.6z"/>
	<path class="st1" d="M852.3,632.9c-0.8,0-1.5-0.1-2.1-0.3l0.6-2.2c0.2,0.1,0.5,0.1,0.7,0.2c0.3,0,0.5,0.1,0.7,0.1
		c1.1,0,2.1-0.3,2.8-1s1.3-1.5,1.7-2.5l0.5-1.2l-7.6-16.2h2.8l4,9c0.3,0.7,0.6,1.5,1,2.3c0.3,0.8,0.7,1.6,1,2.4h0.1
		c0.3-0.8,0.6-1.6,0.9-2.4s0.6-1.6,0.8-2.3l3.5-9h2.6l-7.1,17.5c-0.4,1.1-0.9,2-1.5,2.9c-0.6,0.8-1.3,1.5-2.2,2
		S853.5,632.9,852.3,632.9z"/>
	<path class="st1" d="M871,632.8v-23h2.3l0.2,2.1h0.1c0.8-0.7,1.6-1.3,2.6-1.8s2-0.7,3-0.7c2.2,0,3.8,0.7,5,2.2
		c1.1,1.5,1.7,3.5,1.7,6c0,1.8-0.3,3.4-1,4.7s-1.6,2.3-2.7,3c-1.1,0.7-2.3,1-3.6,1c-0.8,0-1.6-0.2-2.4-0.5c-0.9-0.4-1.7-0.9-2.4-1.5
		h-0.1l0.1,3.1v5.5L871,632.8L871,632.8z M878.1,624.1c1.4,0,2.6-0.6,3.6-1.7s1.4-2.7,1.4-4.7c0-1.8-0.4-3.2-1.1-4.3
		c-0.7-1.1-1.9-1.6-3.5-1.6c-0.7,0-1.5,0.2-2.3,0.6c-0.8,0.4-1.6,1-2.5,1.8v8.1c0.8,0.7,1.6,1.2,2.3,1.5S877.5,624.1,878.1,624.1z"
		/>
	<path class="st1" d="M898.9,626.4c-1.6,0-3.1-0.3-4.4-1c-1.3-0.7-2.4-1.6-3.1-2.9c-0.8-1.3-1.2-2.8-1.2-4.6s0.4-3.3,1.2-4.5
		s1.8-2.2,3-2.9s2.6-1,4-1c2.3,0,4.1,0.7,5.4,2.1s1.9,3.2,1.9,5.5c0,0.3,0,0.6,0,0.9c0,0.3-0.1,0.5-0.1,0.8h-12.7
		c0.2,1.8,0.8,3.2,2,4.1c1.2,0.9,2.6,1.4,4.3,1.4c1,0,1.9-0.1,2.6-0.4c0.8-0.3,1.5-0.6,2.3-1.1l1,1.8c-0.8,0.5-1.7,1-2.7,1.4
		C901.3,626.2,900.2,626.4,898.9,626.4z M898.5,611.6c-1.3,0-2.5,0.4-3.6,1.3c-1,0.9-1.7,2.1-1.9,3.7h10.3c-0.1-1.7-0.6-2.9-1.5-3.7
		C900.9,612,899.8,611.6,898.5,611.6z"/>
</g>
<g>
	<path class="st2" d="M743.2,745.7c-1.1,0-2-1-2-2.2V73.1c0-1.2,0.9-2.2,2-2.2s2,1,2,2.2v670.4C745.2,744.7,744.3,745.7,743.2,745.7
		z"/>
</g>
<g>
	<path class="st2" d="M1217.7,216.7h-858c-1.1,0-2-0.9-2-2s0.9-2,2-2h858c1.1,0,2,0.9,2,2S1218.8,216.7,1217.7,216.7z"/>
</g>
<g>
	<path class="st2" d="M991.7,562.7h-632c-1.1,0-2-0.9-2-2s0.9-2,2-2h632c1.1,0,2,0.9,2,2S992.8,562.7,991.7,562.7z"/>
</g>
<g>
	<g>
		<path class="st2" d="M1098.7,497.7c-7.1,2.8-12,15-8.7,21.9c3.3,6.9,12.1,3.4,16-6.3C1109.8,503.5,1105.8,494.8,1098.7,497.7z"/>
	</g>
	<g>
		<path class="st2" d="M1082.3,531.2c-9.6,1.4-18.9,14.8-16.7,24.3c2.2,9.5,14.1,7.7,21.6-3C1094.5,541.6,1091.9,529.8,1082.3,531.2
			z"/>
	</g>
	<g>
		<path class="st2" d="M1054.6,568.7c-10.7,0.1-23.2,13.7-22.5,24.4s14.1,10.5,24.1-0.3C1066.2,581.9,1065.3,568.5,1054.6,568.7z"/>
	</g>
	<g>
		<path class="st2" d="M1001.4,606.1l-13.9-18.7c-0.9-1.2-0.7-2.9,0.5-3.8c10.2-7.6,53.5-42.5,72-99.8c1.4-4.5,6.3-6.8,10.7-5.1
			l24.9,9.8c2.3,0.9,2.3,4.1,0,5.1c-11.2,4.7-14.3,19.1-11.2,28.2c0.6,1.7-0.6,3.5-2.4,3.6c-11.9,1-26.5,17.3-20.9,34
			c0.6,2-1.1,3.9-3.1,3.5c-17.2-3.6-32.7,16.6-32.2,29.1c0.1,2-0.9,3.8-2.6,4.8c-6.5,4.1-12.9,7.7-18.5,10.2
			C1003.5,607.5,1002.2,607.1,1001.4,606.1z"/>
	</g>
	<g>
		<path class="st2" d="M969.3,613.8l5.1-35.4c0.5-3.3,4.7-4.5,6.8-1.8l30.5,38.4c2.1,2.6,0,6.5-3.3,6.2l-35.6-3
			C970.6,618,969,616,969.3,613.8z"/>
	</g>
</g>
<g>
	<path class="st1" d="M384.3,112.1c0-7.7,5.9-13.3,13.9-13.3c4.2,0,7.8,1.5,10.2,4.3l-3.1,2.9c-1.9-2-4.2-3-6.9-3
		c-5.4,0-9.3,3.8-9.3,9.1c0,5.3,3.9,9.1,9.3,9.1c2.7,0,5-1,6.9-3.1l3.1,3c-2.4,2.8-6,4.3-10.3,4.3
		C390.2,125.5,384.3,119.9,384.3,112.1z"/>
	<path class="st1" d="M412.6,97.6h4.6v27.5h-4.6V97.6z"/>
	<path class="st1" d="M439.9,113.5v11.6h-4.4v-2.4c-1.1,1.7-3.3,2.7-6.2,2.7c-4.5,0-7.4-2.5-7.4-5.9c0-3.3,2.2-5.9,8.2-5.9h5.1v-0.3
		c0-2.7-1.6-4.3-4.9-4.3c-2.2,0-4.5,0.7-6,2l-1.8-3.4c2.1-1.6,5.2-2.4,8.4-2.4C436.6,105.1,439.9,107.8,439.9,113.5z M435.2,118.9
		v-2.3h-4.8c-3.1,0-4,1.2-4,2.6c0,1.7,1.4,2.7,3.8,2.7C432.5,122,434.5,121,435.2,118.9z"/>
	<path class="st1" d="M463.9,105.3l-8.5,19.8h-4.8l-8.5-19.8h4.8l6.1,14.7l6.3-14.7H463.9z"/>
	<path class="st1" d="M484.7,116.7h-15.5c0.6,2.9,3,4.7,6.4,4.7c2.2,0,4-0.7,5.4-2.1l2.5,2.8c-1.8,2.1-4.6,3.2-8,3.2
		c-6.6,0-10.9-4.3-10.9-10.1c0-5.9,4.3-10.1,10.2-10.1c5.8,0,10,4,10,10.2C484.8,115.7,484.8,116.3,484.7,116.7z M469.2,113.6h11.2
		c-0.4-2.8-2.6-4.8-5.6-4.8C471.8,108.8,469.6,110.7,469.2,113.6z"/>
	<path class="st1" d="M518.8,97.6v27.5h-4.4v-2.6c-1.6,1.9-3.8,2.8-6.5,2.8c-5.7,0-10-4-10-10.1c0-6.1,4.3-10.1,10-10.1
		c2.6,0,4.8,0.9,6.4,2.7V97.6H518.8z M514.3,115.2c0-3.8-2.6-6.2-5.9-6.2s-5.9,2.4-5.9,6.2c0,3.8,2.6,6.2,5.9,6.2
		S514.3,119,514.3,115.2z"/>
	<path class="st1" d="M543.4,116.7h-15.5c0.6,2.9,3,4.7,6.4,4.7c2.2,0,4-0.7,5.4-2.1l2.5,2.8c-1.8,2.1-4.6,3.2-8,3.2
		c-6.6,0-10.9-4.3-10.9-10.1c0-5.9,4.3-10.1,10.2-10.1c5.8,0,10,4,10,10.2C543.5,115.7,543.4,116.3,543.4,116.7z M527.8,113.6h11.2
		c-0.4-2.8-2.6-4.8-5.6-4.8C530.5,108.8,528.3,110.7,527.8,113.6z"/>
	<path class="st1" d="M402.3,157.9v11.6h-4.4v-2.4c-1.1,1.7-3.3,2.7-6.2,2.7c-4.5,0-7.4-2.5-7.4-5.9c0-3.3,2.2-5.9,8.2-5.9h5.1v-0.3
		c0-2.7-1.6-4.3-4.9-4.3c-2.2,0-4.5,0.7-6,2l-1.8-3.4c2.1-1.6,5.2-2.4,8.4-2.4C399,149.5,402.3,152.2,402.3,157.9z M397.6,163.3V161
		h-4.8c-3.1,0-4,1.2-4,2.6c0,1.7,1.4,2.7,3.8,2.7C394.9,166.4,396.9,165.4,397.6,163.3z"/>
	<path class="st1" d="M408.2,142h4.6v27.5h-4.6V142z"/>
	<path class="st1" d="M451.9,158.2v11.3h-4.6v-10.7c0-3.5-1.6-5.2-4.4-5.2c-3,0-5.1,2-5.1,5.9v10h-4.6v-10.7c0-3.5-1.6-5.2-4.4-5.2
		c-3.1,0-5.1,2-5.1,5.9v10h-4.6v-19.8h4.4v2.5c1.5-1.8,3.8-2.7,6.5-2.7c2.9,0,5.3,1.1,6.7,3.3c1.6-2,4.3-3.3,7.4-3.3
		C448.6,149.5,451.9,152.2,451.9,158.2z"/>
	<path class="st1" d="M474.4,157.9v11.6H470v-2.4c-1.1,1.7-3.3,2.7-6.2,2.7c-4.5,0-7.4-2.5-7.4-5.9c0-3.3,2.2-5.9,8.2-5.9h5.1v-0.3
		c0-2.7-1.6-4.3-4.9-4.3c-2.2,0-4.5,0.7-6,2L457,152c2.1-1.6,5.2-2.4,8.4-2.4C471.1,149.5,474.4,152.2,474.4,157.9z M469.8,163.3
		V161H465c-3.1,0-4,1.2-4,2.6c0,1.7,1.4,2.7,3.8,2.7C467,166.4,469,165.4,469.8,163.3z"/>
	<path class="st1" d="M478.9,159.6c0-5.9,4.4-10.1,10.7-10.1c3.8,0,6.9,1.6,8.4,4.6l-3.6,2.1c-1.2-1.9-3-2.7-4.9-2.7
		c-3.4,0-6,2.4-6,6.2c0,3.8,2.6,6.2,6,6.2c2,0,3.7-0.9,4.9-2.7l3.6,2.1c-1.5,3-4.6,4.6-8.4,4.6C483.3,169.8,478.9,165.5,478.9,159.6
		z"/>
	<path class="st1" d="M520.2,161.1h-15.5c0.6,2.9,3,4.7,6.4,4.7c2.2,0,4-0.7,5.4-2.1l2.5,2.8c-1.8,2.1-4.6,3.2-8,3.2
		c-6.6,0-10.9-4.3-10.9-10.1c0-5.9,4.3-10.1,10.2-10.1c5.8,0,10,4,10,10.2C520.3,160.1,520.2,160.7,520.2,161.1z M504.7,158h11.2
		c-0.4-2.8-2.6-4.8-5.6-4.8C507.3,153.2,505.1,155.1,504.7,158z"/>
	<path class="st1" d="M544.2,158.2v11.3h-4.6v-10.7c0-3.5-1.7-5.2-4.7-5.2c-3.3,0-5.5,2-5.5,6v10h-4.6v-19.8h4.4v2.6
		c1.5-1.8,3.9-2.8,6.8-2.8C540.7,149.5,544.2,152.2,544.2,158.2z"/>
	<path class="st1" d="M566.6,157.9v11.6h-4.4v-2.4c-1.1,1.7-3.3,2.7-6.2,2.7c-4.5,0-7.4-2.5-7.4-5.9c0-3.3,2.2-5.9,8.2-5.9h5.1v-0.3
		c0-2.7-1.6-4.3-4.9-4.3c-2.2,0-4.5,0.7-6,2l-1.8-3.4c2.1-1.6,5.2-2.4,8.4-2.4C563.3,149.5,566.6,152.2,566.6,157.9z M562,163.3V161
		h-4.8c-3.1,0-4,1.2-4,2.6c0,1.7,1.4,2.7,3.8,2.7C559.2,166.4,561.2,165.4,562,163.3z"/>
	<path class="st1" d="M605.6,158.2v11.3h-4.6v-10.7c0-3.5-1.6-5.2-4.4-5.2c-3,0-5.1,2-5.1,5.9v10h-4.6v-10.7c0-3.5-1.6-5.2-4.4-5.2
		c-3.1,0-5.1,2-5.1,5.9v10h-4.6v-19.8h4.4v2.5c1.5-1.8,3.8-2.7,6.5-2.7c2.9,0,5.3,1.1,6.7,3.3c1.6-2,4.3-3.3,7.4-3.3
		C602.2,149.5,605.6,152.2,605.6,158.2z"/>
	<path class="st1" d="M610.8,143.7c0-1.6,1.3-2.8,3-2.8s3,1.1,3,2.7c0,1.6-1.2,2.9-3,2.9C612.1,146.5,610.8,145.3,610.8,143.7z
		 M611.5,149.7h4.6v19.8h-4.6V149.7z"/>
	<path class="st1" d="M640.7,161.1h-15.5c0.6,2.9,3,4.7,6.4,4.7c2.2,0,4-0.7,5.4-2.1l2.5,2.8c-1.8,2.1-4.6,3.2-8,3.2
		c-6.6,0-10.9-4.3-10.9-10.1c0-5.9,4.3-10.1,10.2-10.1c5.8,0,10,4,10,10.2C640.7,160.1,640.7,160.7,640.7,161.1z M625.1,158h11.2
		c-0.4-2.8-2.6-4.8-5.6-4.8C627.7,153.2,625.6,155.1,625.1,158z"/>
	<path class="st1" d="M664.6,158.2v11.3H660v-10.7c0-3.5-1.7-5.2-4.7-5.2c-3.3,0-5.5,2-5.5,6v10h-4.6v-19.8h4.4v2.6
		c1.5-1.8,3.9-2.8,6.8-2.8C661.1,149.5,664.6,152.2,664.6,158.2z"/>
	<path class="st1" d="M682.4,168.4c-1.1,0.9-2.8,1.3-4.4,1.3c-4.3,0-6.8-2.3-6.8-6.7v-9.5h-3.3v-3.7h3.3v-4.5h4.6v4.5h5.3v3.7h-5.3
		v9.4c0,1.9,1,3,2.7,3c1,0,1.9-0.3,2.6-0.8L682.4,168.4z"/>
	<path class="st1" d="M683.9,159.6c0-5.9,4.4-10.1,10.5-10.1c6.1,0,10.5,4.2,10.5,10.1s-4.4,10.1-10.5,10.1
		C688.4,169.8,683.9,165.5,683.9,159.6z M700.3,159.6c0-3.8-2.5-6.2-5.9-6.2c-3.3,0-5.8,2.4-5.8,6.2c0,3.8,2.5,6.2,5.8,6.2
		C697.8,165.8,700.3,163.4,700.3,159.6z"/>
</g>
<g>
	<path class="st1" d="M804.9,105l-11.3,25.9h-4.7L777.5,105h5.2l8.6,20l8.7-20H804.9z"/>
	<path class="st1" d="M822.2,119.3v11.6h-4.4v-2.4c-1.1,1.7-3.3,2.7-6.2,2.7c-4.5,0-7.4-2.5-7.4-5.9c0-3.3,2.2-5.9,8.2-5.9h5.1V119
		c0-2.7-1.6-4.3-4.9-4.3c-2.2,0-4.5,0.7-6,2l-1.8-3.4c2.1-1.6,5.2-2.4,8.4-2.4C818.9,110.9,822.2,113.6,822.2,119.3z M817.6,124.7
		v-2.3h-4.8c-3.1,0-4,1.2-4,2.6c0,1.7,1.4,2.7,3.8,2.7C814.8,127.8,816.8,126.7,817.6,124.7z"/>
	<path class="st1" d="M828.1,103.4h4.6v27.5h-4.6V103.4z"/>
	<path class="st1" d="M837.2,121c0-5.9,4.4-10.1,10.5-10.1c6.1,0,10.5,4.2,10.5,10.1s-4.4,10.1-10.5,10.1
		C841.6,131.1,837.2,126.9,837.2,121z M853.6,121c0-3.8-2.5-6.2-5.9-6.2c-3.3,0-5.8,2.4-5.8,6.2c0,3.8,2.5,6.2,5.8,6.2
		C851.1,127.2,853.6,124.8,853.6,121z"/>
	<path class="st1" d="M874.1,110.9v4.4c-0.4-0.1-0.7-0.1-1.1-0.1c-3.5,0-5.7,2.1-5.7,6.1v9.6h-4.6v-19.8h4.4v2.9
		C868.4,111.9,870.8,110.9,874.1,110.9z"/>
	<path class="st1" d="M905,119.3v11.6h-4.4v-2.4c-1.1,1.7-3.3,2.7-6.2,2.7c-4.5,0-7.4-2.5-7.4-5.9c0-3.3,2.2-5.9,8.2-5.9h5.1V119
		c0-2.7-1.6-4.3-4.9-4.3c-2.2,0-4.5,0.7-6,2l-1.8-3.4c2.1-1.6,5.2-2.4,8.4-2.4C901.7,110.9,905,113.6,905,119.3z M900.4,124.7v-2.3
		h-4.8c-3.1,0-4,1.2-4,2.6c0,1.7,1.4,2.7,3.8,2.7C897.6,127.8,899.6,126.7,900.4,124.7z"/>
	<path class="st1" d="M910.9,103.4h4.6v27.5h-4.6V103.4z"/>
	<path class="st1" d="M954.6,119.6v11.3H950v-10.7c0-3.5-1.6-5.2-4.4-5.2c-3,0-5.1,2-5.1,5.9v10h-4.6v-10.7c0-3.5-1.6-5.2-4.4-5.2
		c-3.1,0-5.1,2-5.1,5.9v10h-4.6v-19.8h4.4v2.5c1.5-1.8,3.8-2.7,6.5-2.7c2.9,0,5.3,1.1,6.7,3.3c1.6-2,4.3-3.3,7.4-3.3
		C951.3,110.9,954.6,113.6,954.6,119.6z"/>
	<path class="st1" d="M977.1,119.3v11.6h-4.4v-2.4c-1.1,1.7-3.3,2.7-6.2,2.7c-4.5,0-7.4-2.5-7.4-5.9c0-3.3,2.2-5.9,8.2-5.9h5.1V119
		c0-2.7-1.6-4.3-4.9-4.3c-2.2,0-4.5,0.7-6,2l-1.8-3.4c2.1-1.6,5.2-2.4,8.4-2.4C973.8,110.9,977.1,113.6,977.1,119.3z M972.5,124.7
		v-2.3h-4.8c-3.1,0-4,1.2-4,2.6c0,1.7,1.4,2.7,3.8,2.7C969.7,127.8,971.7,126.7,972.5,124.7z"/>
	<path class="st1" d="M981.6,121c0-5.9,4.4-10.1,10.7-10.1c3.8,0,6.9,1.6,8.4,4.6l-3.6,2.1c-1.2-1.9-3-2.7-4.9-2.7
		c-3.4,0-6,2.4-6,6.2c0,3.8,2.6,6.2,6,6.2c2,0,3.7-0.9,4.9-2.7l3.6,2.1c-1.5,3-4.6,4.6-8.4,4.6C986,131.1,981.6,126.9,981.6,121z"/>
	<path class="st1" d="M1022.9,122.5h-15.5c0.6,2.9,3,4.7,6.4,4.7c2.2,0,4-0.7,5.4-2.1l2.5,2.8c-1.8,2.1-4.6,3.2-8,3.2
		c-6.6,0-10.9-4.3-10.9-10.1c0-5.9,4.3-10.1,10.2-10.1c5.8,0,10,4,10,10.2C1023,121.5,1022.9,122,1022.9,122.5z M1007.4,119.4h11.2
		c-0.4-2.8-2.6-4.8-5.6-4.8C1010,114.6,1007.8,116.5,1007.4,119.4z"/>
	<path class="st1" d="M1046.9,119.6v11.3h-4.6v-10.7c0-3.5-1.7-5.2-4.7-5.2c-3.3,0-5.5,2-5.5,6v10h-4.6v-19.8h4.4v2.6
		c1.5-1.8,3.9-2.8,6.8-2.8C1043.4,110.9,1046.9,113.6,1046.9,119.6z"/>
	<path class="st1" d="M1069.3,119.3v11.6h-4.4v-2.4c-1.1,1.7-3.3,2.7-6.2,2.7c-4.5,0-7.4-2.5-7.4-5.9c0-3.3,2.2-5.9,8.2-5.9h5.1V119
		c0-2.7-1.6-4.3-4.9-4.3c-2.2,0-4.5,0.7-6,2l-1.8-3.4c2.1-1.6,5.2-2.4,8.4-2.4C1066,110.9,1069.3,113.6,1069.3,119.3z M1064.7,124.7
		v-2.3h-4.8c-3.1,0-4,1.2-4,2.6c0,1.7,1.4,2.7,3.8,2.7C1061.9,127.8,1063.9,126.7,1064.7,124.7z"/>
	<path class="st1" d="M1094.8,103.4v27.5h-4.4v-2.6c-1.6,1.9-3.8,2.8-6.5,2.8c-5.7,0-10-4-10-10.1c0-6.1,4.3-10.1,10-10.1
		c2.6,0,4.8,0.9,6.4,2.7v-10.1H1094.8z M1090.2,121c0-3.8-2.6-6.2-5.9-6.2s-5.9,2.4-5.9,6.2c0,3.8,2.6,6.2,5.9,6.2
		S1090.2,124.8,1090.2,121z"/>
	<path class="st1" d="M1099.2,121c0-5.9,4.4-10.1,10.5-10.1c6.1,0,10.5,4.2,10.5,10.1s-4.4,10.1-10.5,10.1
		C1103.6,131.1,1099.2,126.9,1099.2,121z M1115.6,121c0-3.8-2.5-6.2-5.9-6.2c-3.3,0-5.8,2.4-5.8,6.2c0,3.8,2.5,6.2,5.8,6.2
		C1113.1,127.2,1115.6,124.8,1115.6,121z"/>
</g>
<g>
	<path class="st2" d="M1134.7,553.4c0,5.8-4,9.6-9.5,9.6c-2.4,0-4.5-0.8-6-2.5v9.1h-4.4V544h4.2v2.5c1.5-1.8,3.6-2.7,6.2-2.7
		C1130.7,543.8,1134.7,547.6,1134.7,553.4z M1130.3,553.4c0-3.6-2.4-5.8-5.5-5.8s-5.6,2.3-5.6,5.8c0,3.6,2.4,5.8,5.6,5.8
		S1130.3,556.9,1130.3,553.4z"/>
	<path class="st2" d="M1157,544v18.7h-4.2v-2.4c-1.4,1.7-3.6,2.6-6,2.6c-4.8,0-8.1-2.6-8.1-8.3V544h4.4v10.1c0,3.4,1.6,5,4.4,5
		c3,0,5.1-1.9,5.1-5.6V544H1157z"/>
	<path class="st2" d="M1181.1,552v10.7h-4.4v-10.2c0-3.3-1.6-4.9-4.4-4.9c-3.1,0-5.2,1.9-5.2,5.6v9.5h-4.4V544h4.2v2.4
		c1.4-1.7,3.7-2.6,6.4-2.6C1177.8,543.8,1181.1,546.4,1181.1,552z"/>
	<path class="st2" d="M1197.9,561.7c-1,0.8-2.6,1.3-4.2,1.3c-4.1,0-6.4-2.2-6.4-6.3v-9h-3.1v-3.5h3.1v-4.3h4.4v4.3h5v3.5h-5v8.9
		c0,1.8,0.9,2.8,2.6,2.8c0.9,0,1.8-0.2,2.5-0.8L1197.9,561.7z"/>
	<path class="st2" d="M1218.4,554.8h-14.7c0.5,2.7,2.8,4.5,6.1,4.5c2.1,0,3.7-0.7,5.1-2l2.3,2.7c-1.7,2-4.3,3-7.5,3
		c-6.3,0-10.3-4-10.3-9.6c0-5.6,4.1-9.6,9.7-9.6c5.5,0,9.5,3.8,9.5,9.7C1218.5,553.8,1218.5,554.3,1218.4,554.8z M1203.7,551.8h10.6
		c-0.3-2.7-2.4-4.5-5.3-4.5C1206.2,547.3,1204.1,549.1,1203.7,551.8z"/>
	<path class="st2" d="M1233.5,543.8v4.2c-0.4-0.1-0.7-0.1-1-0.1c-3.3,0-5.4,2-5.4,5.8v9.1h-4.4V544h4.2v2.7
		C1228.1,544.8,1230.4,543.8,1233.5,543.8z"/>
	<path class="st2" d="M1235.5,553.4c0-5.6,4.2-9.6,9.9-9.6c5.8,0,10,4,10,9.6s-4.2,9.6-10,9.6C1239.7,562.9,1235.5,559,1235.5,553.4
		z M1251,553.4c0-3.6-2.4-5.8-5.6-5.8c-3.2,0-5.5,2.3-5.5,5.8c0,3.6,2.4,5.8,5.5,5.8C1248.6,559.2,1251,556.9,1251,553.4z"/>
	<path class="st2" d="M1152.6,593.7v11h-4.1v-2.3c-1.1,1.6-3.1,2.5-5.9,2.5c-4.3,0-7-2.3-7-5.6c0-3.1,2.1-5.6,7.8-5.6h4.8v-0.3
		c0-2.6-1.5-4.1-4.7-4.1c-2.1,0-4.3,0.7-5.7,1.9l-1.7-3.2c2-1.5,4.9-2.3,7.9-2.3C1149.5,585.8,1152.6,588.4,1152.6,593.7z
		 M1148.2,598.9v-2.2h-4.5c-3,0-3.8,1.1-3.8,2.5c0,1.6,1.3,2.6,3.6,2.6C1145.6,601.8,1147.5,600.8,1148.2,598.9z"/>
	<path class="st2" d="M1183.5,593.7v11h-4.1v-2.3c-1.1,1.6-3.1,2.5-5.9,2.5c-4.3,0-7-2.3-7-5.6c0-3.1,2.1-5.6,7.8-5.6h4.8v-0.3
		c0-2.6-1.5-4.1-4.7-4.1c-2.1,0-4.3,0.7-5.7,1.9l-1.7-3.2c2-1.5,4.9-2.3,7.9-2.3C1180.4,585.8,1183.5,588.4,1183.5,593.7z
		 M1179.1,598.9v-2.2h-4.5c-3,0-3.8,1.1-3.8,2.5c0,1.6,1.3,2.6,3.6,2.6C1176.5,601.8,1178.4,600.8,1179.1,598.9z"/>
	<path class="st2" d="M1207.5,586v25.5h-4.4v-9.1c-1.5,1.7-3.6,2.5-6,2.5c-5.5,0-9.5-3.8-9.5-9.6c0-5.8,4-9.6,9.5-9.6
		c2.6,0,4.7,0.9,6.2,2.7V586H1207.5z M1203.2,595.4c0-3.6-2.4-5.8-5.6-5.8c-3.2,0-5.5,2.3-5.5,5.8c0,3.6,2.4,5.8,5.5,5.8
		C1200.9,601.2,1203.2,598.9,1203.2,595.4z"/>
	<path class="st2" d="M1231.4,586v18.7h-4.2v-2.4c-1.4,1.7-3.6,2.6-6,2.6c-4.8,0-8.1-2.6-8.1-8.3V586h4.4v10.1c0,3.4,1.6,5,4.4,5
		c3,0,5.1-1.9,5.1-5.6V586H1231.4z"/>
	<path class="st2" d="M1241.1,578.7h5.1l-6.1,4.8h-3.8L1241.1,578.7z M1237.1,586h4.4v18.7h-4.4V586z"/>
</g>
</svg>
