<?xml version="1.0" encoding="UTF-8"?>
<svg id="Layer_1" data-name="Layer 1" xmlns="http://www.w3.org/2000/svg" xmlns:xlink="http://www.w3.org/1999/xlink" viewBox="0 0 1600 800">
  <defs>
    <style>
      .cls-1 {
        fill: url(#linear-gradient);
      }

      .cls-1, .cls-2, .cls-3 {
        fill-rule: evenodd;
      }

      .cls-4 {
        fill: #f3f1fe;
      }

      .cls-5 {
        fill: #6957de;
      }

      .cls-6, .cls-3 {
        fill: #fff;
      }

      .cls-7 {
        fill: #8747cc;
      }

      .cls-8 {
        fill: #8573f7;
      }

      .cls-9 {
        fill: #b7aeff;
      }

      .cls-10 {
        fill: #b7adff;
      }

      .cls-11 {
        fill: #8c7cf8;
      }

      .cls-12 {
        fill: #aca1ff;
      }

      .cls-13 {
        fill: #bc83fb;
      }

      .cls-14 {
        fill: #d8b7fb;
      }

      .cls-15 {
        fill: #d0c9ff;
      }

      .cls-16 {
        fill: #d4cbfe;
      }

      .cls-17, .cls-2 {
        fill: #e2dcfe;
      }

      .cls-18 {
        fill: #c7bfff;
      }

      .cls-19 {
        fill: #0c0c12;
      }

      .cls-20 {
        fill: #9b56e3;
      }

      .cls-21 {
        fill: #9b8dfc;
      }

      .cls-22 {
        fill: #5c4dc4;
      }

      .cls-23 {
        fill: #7c6ce6;
      }

      .cls-24 {
        fill: #4f3fbf;
      }

      .cls-25 {
        fill: url(#linear-gradient-3);
      }

      .cls-26 {
        fill: url(#linear-gradient-2);
      }
    </style>
    <linearGradient id="linear-gradient" x1="835.12" y1="349.28" x2="826.66" y2="441.12" gradientTransform="translate(114.83)" gradientUnits="userSpaceOnUse">
      <stop offset="0" stop-color="#4e5ee4"/>
      <stop offset=".52" stop-color="#63b0f9"/>
      <stop offset="1" stop-color="#63d2f9"/>
    </linearGradient>
    <linearGradient id="linear-gradient-2" x1="877.74" y1="353.21" x2="869.27" y2="445.05" xlink:href="#linear-gradient"/>
    <linearGradient id="linear-gradient-3" x1="789.77" y1="345.1" x2="781.3" y2="436.94" xlink:href="#linear-gradient"/>
  </defs>
  <path class="cls-2" d="m1600,24.84v728.52c0,8.31-4.08,15.66-10.34,20.17-2.4,1.73-5.84.86-6.95-1.88-3.92-9.72-16.41-16.83-31.21-16.83-9.47,0-17.99,2.91-23.93,7.55-1.91,1.49-4.64,1.25-6.24-.56-7.66-8.68-21.22-14.45-36.68-14.45-13.95,0-26.37,4.71-34.28,12.01-1.84,1.7-4.72,1.55-6.42-.29-9.32-10.07-25.83-16.76-44.62-16.76-27.05,0-49.35,13.85-52.36,31.7-.4,2.39-2.49,4.16-4.91,4.16H24.83c-13.71,0-24.83-11.1-24.83-24.82V24.84C0,11.12,11.12,0,24.83,0h1550.34c13.71,0,24.83,11.12,24.83,24.84Z"/>
  <g>
    <ellipse class="cls-17" cx="1399.46" cy="779.16" rx="33.87" ry="20.84"/>
    <ellipse class="cls-17" cx="1483.78" cy="778.69" rx="27.94" ry="17.19"/>
    <ellipse class="cls-17" cx="1552.37" cy="779.04" rx="18.65" ry="11.48"/>
  </g>
  <g>
    <path class="cls-4" d="m332.52,425c-128.03-27.03-206.45,38.4-331.49,23.61v-64.52c133.54-4.16,215.7,26.07,319.97,16.34l11.51,24.56Z"/>
    <g>
      <path class="cls-4" d="m814.54,100.55c0,3.68-126.89,5.15-236.44,5.15s-223.01-1.47-223.01-6.62c0,0,.21-.2.61-.55,10.22-4.38,146.96-1.66,213.08-1.66s245.76,0,245.76,3.68Z"/>
      <path class="cls-6" d="m814.54,100.55c0-3.68-177.05-3.68-245.76-3.68s-202.86-2.72-213.08,1.66c4.67-4.08,36-29.22,77.89-7.54,0-14.71,19.94-22.85,24.3-2.94,0,0,24.54-38.24,82.51-40.81,57.98-2.58,85.93,44.31,100.08,44.31s83.5-40.64,115.09,4.49c5.2-15.91,53.78-21.59,58.97,4.52Z"/>
      <ellipse class="cls-6" cx="644.59" cy="74.49" rx="8.94" ry="5.12" transform="translate(6 189.61) rotate(-16.81)"/>
    </g>
    <g>
      <path class="cls-6" d="m729.8,714.59c0-4.26-113.77-3.31-211.41-2.57-71.6.55-135.02-.08-136.01,2.5.13-6.67,23.19-22.13,36.59-5.01,6.95-23.03,27.33-10.93,30.58.78,25.48-83.13,115.81-67.91,118.13-8.59,15.29-30.05,44,3.13,50.5,3.51,6.48.39,20.38-15.22,29.65-15.61,9.26-.39,18.67,15.22,18.67,15.22,41.09-22.64,63.32,5.07,63.32,9.75Z"/>
      <path class="cls-4" d="m729.8,714.59c0,4.68-347.43,6.63-347.43,0,0-.02,0-.04,0-.06.99-2.59,64.41-1.96,136.01-2.5,97.64-.74,211.41-1.7,211.41,2.57Z"/>
      <ellipse class="cls-6" cx="618.43" cy="687.79" rx="6.61" ry="4.44" transform="translate(-172.22 207.8) rotate(-16.78)"/>
    </g>
    <g>
      <path class="cls-6" d="m1600,379.72v27.73h-167.07s.03-.06.05-.09c11.63-22.41,42.83-19.42,50.89-5.04,35.82-37.4,55.23-1.02,68.1-3.63,10.35-2.1,27.4-27.12,48.03-18.97Z"/>
      <path class="cls-4" d="m1600,406.05v5.08c-1.26.07-2.56.12-3.9.15-22.63.61-164.21.55-163.17-3.83,0-.03.03-.06.05-.09,2.78-3.22,114.82-2.63,167.02-1.31Z"/>
    </g>
    <path class="cls-9" d="m1107.82,731.72c8.45,0,24.87-16.68,21.35-21.06s-23.93,10.53-23.93,10.53c-36.36-22-5.16,10.53,2.58,10.53Z"/>
    <path class="cls-9" d="m1101.49,668.74c16.87,15.56,25.55,10,17.82,2.62-7.9-7.54-17.82-11.38-17.82-11.38-23.5,20.41-16.89,26.07,0,8.76Z"/>
    <path class="cls-9" d="m1043.96,661.52c22.39-21.44,21.65-3.88,6.42,7.1-6.42,4.63-20.3-8.37-24.29-12.8s9.2-2.27,17.87,5.71Z"/>
    <path class="cls-9" d="m1049,706.56c25.15-21.61,38.38-16.56,10.08,8.44-1.84,1.63-4.68,1.99-6.96.9-27.14-13.03-31-22.89-22.04-19.1,10.25,4.34,18.92,9.76,18.92,9.76Z"/>
    <path class="cls-9" d="m1005.96,723.69c19.4-12.19,24.64-8.64,17.01-.93s-9.37,10.8-13.19,11.41c-3.82.62-15.79-10.95-18.57-15.58-2.78-4.63,3.3-6.48,14.75,5.09Z"/>
    <g>
      <path class="cls-22" d="m138.29,561.26c-52.38-.76-59.31.79-50.63,37.73l50.63-37.73Z"/>
      <path class="cls-22" d="m89.48,687.95c.48,36.27,5.32,34.88,56.59,35.53l-56.59-35.53Z"/>
      <path class="cls-11" d="m64.43,641.32c.14,10.47,4.9,22.02,13.37,33.37,17.7,23.76,51.63,46.61,93.27,56.67,14.41,3.48,29.75,5.43,45.66,5.34,24.97-.14,48.54-4.45,69.31-11.73,17.36-6.09,32.78-14.25,45.42-23.8,23-17.36,36.81-39.27,36.51-61.48-.29-22.39-14.6-44.31-38.03-61.49-1.83-1.34-3.71-2.65-5.65-3.93-27.61-18.24-66.04-30.2-108.6-29.96-26.96.14-52.27,6.09-74.2,15.44-28.58,12.17-51.4,30.09-64.57,48.41-8.15,11.32-12.62,22.8-12.48,33.16Z"/>
      <path class="cls-5" d="m171.06,731.36c14.41,3.49,29.75,5.43,45.66,5.34,24.97-.14,48.54-4.45,69.31-11.73-.78-.23-53.28-14.92-114.97,6.39Z"/>
      <path class="cls-5" d="m76.13,614.38c43.26-28.85,91.69-45.33,140.05-47.68,43.9-2.13,86.49,7.11,123.17,26.72l1.37-2.57c-37.15-19.86-80.26-29.22-124.68-27.06-48.89,2.37-97.83,19.03-141.53,48.17l1.62,2.43Z"/>
      <path class="cls-5" d="m316.77,583.91c-1.43,3.72-5.3,7.5-11.01,11.05-16,9.96-46.38,18.16-77.37,18.57-33.53.45-67.17-10.33-81.71-22.33-3.68-3.04-6.14-6.14-7.06-9.17-2.27-7.4-.65-15.31,3.71-23.04,21.49-8.91,46.15-14.54,72.36-14.67,37.98-.21,72.68,9.3,99.34,24.32,2.62,5.74,3.39,11.03,1.76,15.28Z"/>
      <path class="cls-5" d="m229.36,707.83c5.27,0,10.5-.14,15.7-.43,34.51-1.88,67.16-10.08,97.03-24.36l-1.26-2.63c-29.52,14.12-61.8,22.22-95.93,24.08-27.33,1.49-55.89-.99-84.91-7.38-49.42-10.87-83.4-29.54-83.74-29.72l-1.41,2.55c.34.19,34.69,19.06,84.53,30.02,23.77,5.23,47.25,7.86,70,7.86Z"/>
      <path class="cls-5" d="m74.23,627.11c.34-.07,34.58-7.11,84.72-11.32,46.26-3.88,115.9-6.07,184.99,5.53l.48-2.88c-69.41-11.65-139.33-9.45-185.77-5.56-50.31,4.22-84.68,11.29-85.03,11.36l.59,2.85Z"/>
      <path class="cls-5" d="m208,661.85c40.76,0,88.03-2.3,137.98-9.24l-.4-2.89c-147.17,20.45-271.15.51-272.38.31l-.47,2.88c.82.14,55.57,8.94,135.28,8.94Z"/>
      <path class="cls-9" d="m331.45,701.17c23-17.36,36.81-39.27,36.51-61.48-.29-22.39-14.6-44.31-38.03-61.49,19.27,29.83,20.96,94.24,1.52,122.97Z"/>
      <path class="cls-9" d="m77.79,674.69s-7.67-36.32-.88-66.53c-8.15,11.32-12.62,22.8-12.48,33.16.14,10.47,4.9,22.02,13.37,33.37Z"/>
      <path class="cls-22" d="m153.19,642.62c-11.56-6.84-83.91-9-64.2-.83,19.71,8.17,75.76,7.67,64.2.83Z"/>
      <path class="cls-5" d="m262.59,659.55c38.16,12.51,49.92-5.04,49.92-5.04l-49.92,5.04Z"/>
    </g>
    <g>
      <path class="cls-13" d="m.24,205.79v68.59c211.49,7.43,256.63-125.86,262.51-185.53,1.61-16.36.26-27.19-1.42-28.06C253.51,56.76,217.8,255.08.24,205.79Z"/>
      <path class="cls-7" d="m.24,240.39v33.99c211.49,7.43,256.65-125.86,262.51-185.53-21.11,87.99-92.11,151.06-185.97,157.66-34.13,2.4-58.87-.92-76.55-6.13Z"/>
      <path class="cls-14" d="m55.27,276.45c15.61-1.32,27.87-6.92,27.4-12.5-.47-5.58-13.51-7.98-29.11-6.66-15.61,1.32-27.87,5.86-27.4,11.44.47,5.58,13.51,9.04,29.11,7.72Z"/>
      <path class="cls-14" d="m148.11,252.88c10.7-4.73,17.88-11.92,16.05-16.06-1.83-4.14-10.96-2.62-21.66,2.11-10.7,4.73-18.91,10.89-17.07,15.03,1.83,4.14,11.99,3.66,22.68-1.08Z"/>
      <path class="cls-14" d="m209.12,210.5c6.92-6.94,10.51-14.57,8.02-17.04s-9.05,1.58-15.97,8.51c-6.92,6.94-11.56,14.13-9.08,16.61s10.1-1.14,17.02-8.08Z"/>
      <path class="cls-14" d="m243.15,166.07c3.99-7.28,5.27-14.25,2.85-15.58-2.42-1.33-6.72,3.57-10.71,10.84-3.99,7.28-6.17,14.17-3.75,15.5,2.42,1.33,7.62-3.49,11.62-10.77Z"/>
    </g>
    <g>
      <path class="cls-4" d="m139.62,582.02c.93,3.03,3.38,6.14,7.06,9.17,14.54,11.99,48.18,22.78,81.71,22.33,30.99-.41,61.37-8.61,77.37-18.57,5.7-3.55,9.58-7.32,11.01-11.05,8.42-21.96-47.19-71.28-89.5-70.72-42.31.56-96.84,38.85-87.66,68.83Z"/>
      <path class="cls-16" d="m146.68,591.19c14.54,11.99,48.18,22.78,81.71,22.33,30.99-.41,61.37-8.61,77.37-18.57-2.17-21.73-151.62-22.4-159.08-3.76Z"/>
      <g>
        <circle class="cls-16" cx="175.47" cy="564.16" r="4.33"/>
        <circle class="cls-16" cx="298.6" cy="570.19" r="4.33"/>
        <circle class="cls-16" cx="254.6" cy="532.48" r="3.13"/>
        <circle class="cls-16" cx="257.73" cy="557.34" r="4.77"/>
        <circle class="cls-16" cx="159.86" cy="575.61" r="3.17"/>
      </g>
      <path class="cls-6" d="m169.79,538.57c-9.66,7.58-14.93,16.99-11.77,21.02,3.16,4.03,12.8-.36,22.47-7.94s15.69-15.48,12.53-19.51c-3.16-4.03-13.56-1.15-23.22,6.43Z"/>
    </g>
    <g>
      <path class="cls-13" d="m239.34,614.9l29.58-1.48c11.1-7.22,29.05-39.64-.28-68.54-.88-.86-2.29.14-1.76,1.26,11.59,24.72.71,51.23-27.54,68.77Z"/>
      <path class="cls-7" d="m254.56,614.14l14.36-.72c11.1-7.22,29.05-39.64-.28-68.54,19.63,24.15.45,57.6-14.08,69.26Z"/>
      <path class="cls-14" d="m279.11,570.04c.61,3.33,1.63,5.82,3.11,5.55s2.19-3.19,1.58-6.52c-.61-3.33-2.3-5.81-3.78-5.54s-1.52,3.18-.91,6.51Z"/>
      <path class="cls-14" d="m274.06,594.97c-1.9,4.52-2.37,8.23-.1,9.18,2.27.95,5.65-1.93,7.55-6.45,1.9-4.52,1.59-8.95-.68-9.91-2.27-.95-4.87,2.66-6.77,7.18Z"/>
    </g>
    <g>
      <path class="cls-7" d="m214.25,521.22c-1.79.09-11.51,18.88-19.03,27.9-7.85,9.41-4.11,13.08,2.36,18.94,4.83,4.37,38.43-1.93,38.43-1.93,4.65-5.12,7.76-9.42.06-18.5-8.53-10.05-20.03-26.5-21.83-26.41Z"/>
      <path class="cls-13" d="m242.01,573.27c-16.95-24.84-25.83-48.39-27.72-45.83-1.8,2.44-15.89,36.78-22.59,48.35l50.31-2.52Z"/>
      <path class="cls-13" d="m215.51,615.98c14.6,1,27.24-10.02,28.25-24.61,1-14.6-10.02-27.24-24.61-28.25-14.6-1-25.66,11.8-26.66,26.4-1,14.6,8.43,25.45,23.03,26.46Z"/>
      <path class="cls-13" d="m215.01,563.92c-9.61,7-19.39,9.15-22.27,9.65-.55.1-1.04.4-1.35.87-3.26,4.93-2.99,9.01-2.38,11.31.31,1.17,1.57,1.8,2.71,1.41,11.15-3.83,21.17-9.67,24.52-11.71.71-.43,1.6-.4,2.28.07,3.12,2.19,12.61,8.1,24.53,8.3,1.06.02,1.96-.75,2.12-1.79.37-2.5.43-7.14-3.19-10.75-.32-.32-.75-.5-1.2-.55-12.35-1.42-20.62-5.39-23.51-6.97-.72-.39-1.59-.32-2.25.16Z"/>
      <path class="cls-7" d="m216.83,558.88c-.06-9.04-.67-18.06-1.26-27.07-.06-.79-1.25-.76-1.26.05.07,9.04.22,18.07.74,27.09.08,1.14,1.79,1.09,1.79-.07Z"/>
      <g>
        <path d="m221.18,602.01c-.74,3.02-6.06,3.31-6.92.2-.28-.94-1.65-.61-1.51.36.36,4.07,5.6,5.08,8.34,2.87.96-.55,2.75-3.75.92-4.08-.4-.02-.73.27-.83.65Z"/>
        <path d="m214.95,596.94c-.8-5.38-7.82-7.56-11.55-3.94-1.15.82-3.31,5.23-1.13,5.55.46.03.86-.27.99-.7.35-1.17.98-2.11,1.8-2.75,2.64-2.02,6.8-.87,8.02,2.41.46,1.1,2.04.6,1.87-.58Z"/>
        <path d="m221.68,597.16c1.39-4.69,8.18-5.1,9.81-.34.44,1.1,2.04.65,1.88-.52-.65-5.61-7.66-7.53-11.46-3.92-1.12.8-3.43,5.09-1.26,5.51.47.05.89-.27,1.03-.72Z"/>
      </g>
      <path class="cls-7" d="m193.51,587.79c8.77-2.19,16.97-6.98,24.25-11.97-.24.15-.57.12-.79-.06-.02-.02.11.09.11.09,7.12,5.73,16.36,8.76,25.46,8.7.86-.02.96-1.31.07-1.41-7.72-.91-15.23-3.21-21.81-7.34-.8-.52-1.59-1.06-2.33-1.65-.58-.55-1.47-.56-2.07-.05-3.55,2.49-7.23,4.84-11.03,6.92-3.91,2.17-8,4.13-12.18,5.57-.75.22-.48,1.39.31,1.19Z"/>
      <path class="cls-7" d="m239.61,570.14c-6.05-.8-12.2-2.19-17.72-4.81-2.02-1-4.1-2.14-5.67-3.75-3.53,2.65-7.3,5.02-11.3,6.92-3.69,1.79-7.58,3.33-11.53,4.42-.34.08-.56.43-.46.78.09.33.42.52.74.45,2.09-.47,4.09-1.07,6.09-1.75,4-1.36,7.89-3.03,11.6-5.06,1.87-.99,3.66-2.14,5.43-3.32l-1.47-.09c5.18,3.91,11.65,5.5,17.91,6.65,1.83.31,4.38.6,6.24.78.78.07.94-1.11.13-1.22Z"/>
    </g>
    <path class="cls-22" d="m223.4,623.87c-91.21,0-109.51-41.41-81.91-64.12.61-.26,1.23-.52,1.84-.77-4.36,7.72-5.97,15.63-3.71,23.04.93,3.03,3.39,6.14,7.06,9.17,14.55,12,48.19,22.78,81.71,22.33,30.99-.41,61.37-8.6,77.37-18.57,5.7-3.55,9.58-7.32,11.01-11.05,1.63-4.25.86-9.54-1.76-15.28,3.21,1.8,6.3,3.68,9.27,5.65,8.48,17.2-12.37,49.6-100.89,49.6Z"/>
    <g>
      <path class="cls-13" d="m1499.63,568.12c3.77,2.19-.01-3.64-23.1-27.54-21.89-22.67-31.4-41.83-28.37-53.55,1.25-4.84,4.6-8.39,10.03-10.34,5.91-2.12,14.28-2.36,25.09-.31,8.06,1.52,17.46,4.32,28.2,8.54,9.07,3.57,19.09,8.16,30.07,13.87,8.88,4.62,18.39,9.97,28.51,16.12,9.36,5.69,19.26,12.05,29.68,19.12v-61.62c-161.99-78.71-268.27-1.92-100.12,95.71Z"/>
      <path class="cls-7" d="m1476.54,540.58c-22.05-22.52-31.4-41.83-28.37-53.55,1.25-4.84,4.6-8.39,10.03-10.34,5.91-2.12,14.28-2.36,25.09-.31,8.06,1.52,17.46,4.32,28.2,8.54,9.07,3.57,19.09,8.16,30.07,13.87,8.88,4.62,18.39,9.97,28.51,16.12,9.36,5.69,19.26,12.05,29.68,19.12v-31.57c-38.85-11.6-84.64-41.63-126.69-41.63-40.41,0-51.98,32.16,3.47,79.74Z"/>
      <path class="cls-14" d="m1556.24,510.58c10.03,4.86,19.57,5.9,21.31,2.31,1.74-3.59-5.78-9.63-15.81-14.5-10.03-4.86-18.77-6.7-20.51-3.11-1.74,3.59,4.98,10.44,15.01,15.3Z"/>
      <path class="cls-14" d="m1496.65,484.37c8.28,2.32,15.67,1.8,16.5-1.16.83-2.96-5.99-6.42-14.27-8.74-8.28-2.32-14.89-2.63-15.72.33-.83,2.96,5.21,7.25,13.49,9.57Z"/>
      <path class="cls-14" d="m1454.38,482.26c3.64-3.97,5.44-8.25,4.02-9.55s-6.31.07-9.96,4.04c-3.64,3.97-4.65,9.04-3.23,10.34,1.42,1.3,5.53-.86,9.17-4.83Z"/>
    </g>
    <g>
      <g>
        <path class="cls-13" d="m1263.62,232.5c117.01,62.25,265.86,53.51,336.13,129.3v-87.39c-75.46-47.1-193.36-15.66-321.39-67.18-92.46-37.2-95.46-130.42-90.77-152.69,2.26-10.75,7.82-13.75,17.49-9.58,1.16.49,2.37,1.09,3.64,1.79,5.37,2.96,15.56-1.27,12.33-3.69-19.56-14.66-37.23-17.41-45.76-2.51-14.04,24.51-13.73,137.66,88.33,191.95Z"/>
        <path class="cls-20" d="m1467.94,265.38c-.38.61-8.56,14.21,1.58,31.89,1.66.44,3.32.89,4.97,1.33-11.93-17.33-3.93-30.81-3.58-31.39l-2.97-1.84Z"/>
        <path class="cls-7" d="m1222.18,187.31c43.92,40.24,122.96,61.7,205.6,75.11,82.64,13.41,117.61,9.37,171.98,27.21v-15.23c-75.46-47.1-193.36-15.66-321.39-67.18-92.46-37.2-95.46-130.42-90.77-152.69,2.26-10.75,7.82-13.75,17.49-9.58h0c-12.97-6.65-26.25,1.55-27.52,19.69-1.27,18.13.71,82.44,44.62,122.67Z"/>
      </g>
      <path class="cls-14" d="m1556.12,268.14c14.63,4.03,27.45,5.88,28.63,1.61,1.18-4.27-9.73-11-24.37-15.03-14.63-4.03-27.45-3.83-28.63.44-1.18,4.27,9.73,8.96,24.37,12.99Z"/>
      <ellipse class="cls-14" cx="1471.1" cy="252.4" rx="6.69" ry="20.53" transform="translate(1094.89 1696.81) rotate(-85.14)"/>
      <ellipse class="cls-14" cx="1401.93" cy="244.51" rx="5.58" ry="15.6" transform="translate(986.55 1605.63) rotate(-82.92)"/>
      <ellipse class="cls-14" cx="1344.91" cy="234.47" rx="4.38" ry="12.23" transform="translate(842.82 1503.98) rotate(-78.31)"/>
      <ellipse class="cls-14" cx="1299.22" cy="221.24" rx="3.5" ry="9.79" transform="translate(675.52 1382.24) rotate(-71.42)"/>
      <ellipse class="cls-14" cx="1261.59" cy="205.59" rx="3.21" ry="8.97" transform="translate(524.81 1250.11) rotate(-64.06)"/>
    </g>
    <g>
      <g>
        <path class="cls-5" d="m1376.8,140.6c-1.47,27.86,2.09,29.91-28.55,39.71-33,10.56-52.39,13.06-68.95,2.87l97.5-42.58Z"/>
        <path class="cls-5" d="m1379.62,100.95c7.35-25.74,8.56-26.06-12.37-35.09-36.34-15.68-48.7-23.71-81.37-7.42l93.74,42.5Z"/>
        <path class="cls-21" d="m999.76,122.19c0,10.35,15.59,26.73,44.65,41.28,33.42,16.74,84.68,31.07,150.54,31.07,100.64,0,174.69-45.19,199.63-62.87,5.57-3.95,8.69-6.53,9.11-6.91,2.46-2.32,2.75-6.33,0-9.12-.57-.58-3.66-3.29-9.11-7.32-22.41-16.6-84.64-55.69-175.46-61.41-7.3-.46-14.8-.71-22.47-.71-1.13,0-3.38.01-3.38.01-65.65.5-116,15.57-148.85,32.91-29.26,15.44-44.66,32.69-44.66,43.08Z"/>
        <path class="cls-10" d="m1070.46,83.07c-1.68-16.92,95.04-36.25,100.76-22.7,5.72,13.55-99.08,39.62-100.76,22.7Z"/>
        <path class="cls-8" d="m1398.38,112.4c-8.24-5.01-17.16-9.27-26.03-13.08-77.09-31.86-162.72-43-245.51-33.5-30.82,3.84-61.34,11.04-90.2,22.73l1.08,2.67c28.61-11.5,58.9-18.54,89.5-22.28,83.39-9.71,172.1,1.97,249.26,35.41,5.29,2.34,10.55,4.73,15.77,7.22,1.75.8,3.49,1.64,5.26,2.42l.86-1.6Z"/>
        <path class="cls-8" d="m1037.11,154.93c21.91,7.05,44.6,12.79,67.35,16.5,3.16.61,8.19,1.26,11.44,1.71,3.42.46,8.11,1.19,11.47,1.49,76.67,8.48,155.07-2.03,227.63-27.84,10.78-3.87,21.78-8.18,32.2-12.92,3.51-1.61,6.95-3.36,10.25-5.45l-.87-1.65c-10.62,4.31-21.01,9.28-31.79,13.27-2.69,1.06-8.06,3.02-10.78,3.99-72.15,25.59-150.1,35.98-226.3,27.48-6.34-.66-13.62-1.78-19.93-2.62l-16.98-2.98c-2.31-.49-6.2-1.35-8.42-1.82-15.02-3.07-29.74-7.37-44.37-11.91l-.9,2.74Z"/>
        <path class="cls-8" d="m1032.59,109.12c113.5-14.94,229.62-13.43,342.5,5.91,7.44,1.24,15.21,2.46,22.71,3.35l.33-1.93c-7.47-1.69-15-3.06-22.55-4.33-101.8-17.4-206.43-20.81-309.14-9.97-8.34.92-25.83,3.13-34.23,4.11l.38,2.86Z"/>
        <path class="cls-8" d="m1031.53,134.6c113.98,15.34,230.7,13.26,343.99-6.63,7.55-1.36,15.15-2.41,22.58-4.41l-.28-1.6c-6.46.5-16.21,2.41-22.73,3.49-97.92,16.93-198.59,20.79-297.52,11.36-13.24-1.02-32.36-3.52-45.66-5.06l-.38,2.86Z"/>
        <path class="cls-5" d="m1283.01,117.73c.86,3.58,11.78,8.74,22.33,9.4,10.55.66,74.16-3.67,74.16-6.79,0-3.12-96.97-4.64-96.48-2.61Z"/>
        <path class="cls-18" d="m999.76,122.19c0,10.35,15.59,26.73,44.65,41.28-15.29-18.52-13.97-62.81,0-84.36-29.26,15.44-44.66,32.69-44.66,43.08Z"/>
        <path class="cls-18" d="m1394.58,131.68c5.57-3.95,8.69-6.53,9.11-6.91,2.46-2.32,2.75-6.33,0-9.12-.57-.58-3.66-3.29-9.11-7.32,3.38,6.46,3.38,16.89,0,23.36Z"/>
        <path class="cls-23" d="m1193.27,46.21c33.23,13.32,70.81,51.33,70.81,48.62,0-4.06-24.14-34.27-44.96-47.92-7.3-.46-14.8-.71-22.47-.71-1.13,0-2.26,0-3.38.01Z"/>
      </g>
      <path class="cls-8" d="m1088.42,101.55c29.19,6.77,42.08-2.81,42.08-2.81l-42.08,2.81Z"/>
      <path class="cls-23" d="m1044.42,79.12c-4.04,3.97-6.1,9.43-8.03,14.64-6.13,18.73-5.35,42.11,1.77,60.47.68,1.68,1.57,3.5,2.54,5.03,1,1.59,2.18,3.14,3.72,4.23-2.01-3.09-3.07-6.55-4.2-10-6.16-21.04-7.11-44.69.58-65.45,1.2-2.97,2.61-5.86,3.63-8.9Z"/>
      <path class="cls-8" d="m1270.58,139.93c-21.31,11.88-41.9,2.75-41.9,2.75l41.9-2.75Z"/>
    </g>
    <g>
      <g>
        <path class="cls-6" d="m1599.99,24.41v135.03c-27.38-15.28-38.15-63.97-5.45-88.62-35.29,4.95-71.03-31.85-46.31-70.81h27.37c13.37.22,24.17,11.02,24.39,24.4Z"/>
        <path class="cls-6" d="m225.92,0c-26.67,66.66-110.37,62.85-152.1,33.62-.55,60.79-63.68,51-63.68,51C30.82,118.91,0,143.95,0,143.95V24.84C0,11.26,10.89.23,24.4,0h201.52Z"/>
        <path class="cls-6" d="m87.5,778.18H24.83C11.12,778.18,0,767.08,0,753.36v-12.64c18.73-9.04,33.66,11.39,22.66,25.54,35.56-22.37,61.9-7.53,64.84,11.92Z"/>
      </g>
      <path class="cls-6" d="m1600,546.87c-56.18,60.85,0,112.3,0,112.3v-112.3Z"/>
    </g>
    <path class="cls-13" d="m1207.32,46c3.88,2.12,9.72,5.93,14.78,9.92,20.56,16.23,46.43,45.19,43.57,38.42-4.38-10.36-29.79-40.2-44.62-51.29-5.25-3.93-17.51.89-13.73,2.95Z"/>
    <g>
      <path class="cls-7" d="m858.01,777.38c-.01.26-.03.53-.04.8h-59.32c4.31-188.6-25.33-278.18-36.53-379.18-11.62-104.83-16.23-171.23,5.46-194.07,21.08-22.19,54.26,22.44,44.63,14.88-.02-.02-.04-.03-.06-.04-.27-.22-.57-.47-.9-.76-.13-.11-.26-.23-.39-.34-.32-.26-.64-.52-.97-.77-11.41-8.69-23.47-1.2-24.9,18.15-4.29,58.12,4.98,177.42,29.22,261.02,19.24,66.34,41.52,127.34,44.42,221.78.57,18.18.42,37.59-.62,58.53Z"/>
      <path class="cls-13" d="m833.95,778.18h-76.11c14.24-48.05,18.75-103.63,16.15-165.33-.84-20.14-2.44-40.92-4.71-62.31-1.78-16.89-3.98-34.17-6.55-51.79-17.34-118.94-36.37-272.76-1.21-310.33,21.71-23.19,50.23-8.4,71.34,21.05,5.42,7.56-11.12,19.52-16.72,13.98-1.31-1.29-2.62-2.5-3.93-3.64-.02-.02-.04-.03-.06-.04-.43-.38-.86-.74-1.29-1.1-.32-.26-.64-.52-.97-.77-17.68-13.98-35.03-12.9-40.89,12.1-10.55,45.09,10.01,212.11,25.51,322.72,3.41,24.39,11.98,81.97,12.96,88.43,9.41,61.66,24.56,88.19,26.48,137.03Z"/>
      <path class="cls-7" d="m769.29,550.54c2.27,21.39,3.87,42.17,4.71,62.3,8.81,2.06,18.74,3.26,29.65,2.9-2.54-16.99-5.71-38.64-9.12-63.03l-24.29-3.07-.94.89Z"/>
      <ellipse class="cls-14" cx="780.63" cy="226.19" rx="10.39" ry="4.49" transform="translate(264.93 854.36) rotate(-66.77)"/>
      <g>
        <path class="cls-14" d="m858.01,777.38c-.25.31-.51.58-.77.8h-4.16c-4.11-3.46-6.98-17.12-7.94-33.63-1.13-19.36.78-35.31,6.08-35.62,2.66-.16,5.3,3.64,7.41,9.92,2.1,6.24,3.68,14.91,4.24,24.56.92,15.83-1.17,29.38-4.86,33.97Z"/>
        <path class="cls-14" d="m824.91,637.96c3.53,15.83,9.31,27.51,15.58,26.09s8.5-15.41,4.96-31.24c-3.53-15.83-11.48-27.51-17.75-26.09-6.27,1.42-6.32,15.41-2.79,31.24Z"/>
      </g>
      <path class="cls-20" d="m832.74,761.66c-9.05-.37-42.5-3.24-65.18-25.5-.24,1.38-.49,2.76-.74,4.13,24.13,22.31,57.66,24.67,66.28,24.9-.11-1.19-.23-2.37-.36-3.54Z"/>
    </g>
    <g>
      <path class="cls-24" d="m591.37,192.93c4.83,0,8.77-2.33,12.39-4.48,4.83-2.87,9.4-5.57,15.87-3.39.76.26,1.58-.15,1.84-.91.26-.76-.15-1.58-.91-1.84-7.73-2.62-13.33.71-18.28,3.64-5.52,3.27-10.28,6.1-17.76,2.23-.71-.37-1.58-.09-1.95.62s-.09,1.58.62,1.95c3.01,1.56,5.72,2.17,8.18,2.17Z"/>
      <path d="m594.71,190.39c1.53.02,2.33,1.82,1.33,2.99-3.29,3.84-10.6,3.4-14.39.92-2.22-1.45-3.99-3.74-3.98-6.51,0-1.91,2.32-2.95,3.75-1.7,4.11,3.59,9.89,4.25,13.29,4.3Z"/>
    </g>
    <g>
      <path class="cls-24" d="m611.89,202.49c5.92,0,13.44-2.13,18.02-11.47.35-.72.06-1.59-.66-1.94-.72-.35-1.59-.06-1.94.66-3.02,6.14-7.78,9.45-14.15,9.85-4.9.31-8.97-1.29-9.01-1.3-.74-.29-1.59.07-1.88.81-.3.74.06,1.58.81,1.88.08.03,3.89,1.51,8.81,1.51Z"/>
      <path d="m613.99,200.17c1.44.11,2.04,1.88.99,2.88-2.24,2.12-6.64,2.94-9.94,2.22-2.44-.53-5.52-3.13-6.25-5.93-.49-1.88,1.61-3.4,3.26-2.39,3.7,2.26,8.92,2.98,11.93,3.22Z"/>
    </g>
    <g>
      <path class="cls-24" d="m627.38,218.94c.2,0,.41-.04.6-.13.35-.16,8.63-4.02,11.47-11.98,1.6-4.47,1.15-9.3-1.33-14.35-.35-.72-1.22-1.02-1.94-.66-.72.35-1.01,1.22-.66,1.94,2.12,4.31,2.52,8.38,1.21,12.08-2.42,6.8-9.88,10.3-9.95,10.34-.73.33-1.04,1.19-.71,1.92.24.53.77.84,1.32.84Z"/>
      <path d="m634.96,213.15c.82-.9.63-2.35-.41-2.98-6.07-3.65-15.35,2.27-13.86,7.9.47,1.79,2.29,2.81,4.04,2.26,4.44-1.37,8.29-5.06,10.22-7.18Z"/>
    </g>
    <g>
      <path class="cls-24" d="m684.16,217.95c.18,0,.37-.04.55-.11.74-.31,1.09-1.15.78-1.89-2.62-6.32-8.66-12.1-17.94-17.17-6.82-3.72-12.8-5.61-13.05-5.69-.76-.24-1.58.19-1.81.95-.24.76.19,1.58.95,1.81.23.07,23.5,7.51,29.18,21.21.23.56.77.89,1.34.89Z"/>
      <path d="m679.21,208.01c-4.44-2.68-10.04,1.39-4.27,7.33s14.66,7.85,10.56.24c-2.29-4.26-6.3-7.57-6.3-7.57Z"/>
    </g>
    <g>
      <path class="cls-24" d="m619.62,181.92c.31,0,.61-.1.87-.3.64-.48.76-1.39.28-2.03-5.34-7.02-11.07-7.16-17.7-7.33-4.3-.11-9.18-.23-15.01-2.19-.76-.26-1.58.15-1.83.91s.15,1.58.91,1.83c6.25,2.1,11.35,2.23,15.86,2.34,6.37.16,10.97.28,15.47,6.19.28.37.72.57,1.15.57Z"/>
      <path d="m595.74,172.07c1.29.28,1.7,1.92.69,2.77-5.74,4.8-15.2,1.68-17.84-3.28-1.26-2.37.82-5.03,3.24-3.9,4.94,2.3,10.64,3.72,13.91,4.42Z"/>
    </g>
    <g>
      <path class="cls-24" d="m626.96,182.04c.43,0,.86-.19,1.15-.56.49-.63.37-1.54-.26-2.03-11-8.47-14.61-32.08-14.64-32.32-.12-.79-.86-1.33-1.64-1.22-.79.12-1.34.85-1.22,1.64.15,1.02,3.81,25.01,15.74,34.19.26.2.57.3.88.3Z"/>
      <g>
        <path d="m616.09,161.32c-9.27.99-13.26-13.04-7.38-18.51,1.56-1.45,3.63-.27,4.24,1.78,2.3,7.71,3.14,16.73,3.14,16.73Z"/>
        <path d="m616.09,161.32c8.1-7.58,6.93-17,4.26-17.99-1.95-.72-3.11,5.26-5.1,13.34l.84,4.65Z"/>
      </g>
    </g>
    <g>
      <path class="cls-11" d="m942.48,586.64c1.16,4.46,3.05,7.7,5.78,10.06,7.28,6.3,20.51,6.3,41.58,6.3l-19.78-26.49-27.58,10.14Z"/>
      <path class="cls-9" d="m975.55,580.54c-3.12.91-4.75,4.35-3.46,7.33l.04.1c2.71,6.16,8.25,15.03,17.69,15.03h90.61c13.73,0,21.84-5.15,27.81-15.03,2.1-3.46,3.93-7.5,5.65-12.1.17-.46.35-.93.52-1.41,1.69-4.68,3.28-9.93,4.92-15.72,1.9-6.66,3.87-14.05,6.12-22.12l-149.91,43.92Z"/>
      <path class="cls-5" d="m942.48,586.64c1.16,4.46,3.05,7.7,5.78,10.06l22.85-11.35.69-6.51-1.74-2.33-27.58,10.14Z"/>
      <path class="cls-24" d="m360.1,459.94c.64,12.85.88,23.51,1.3,32.48,1.77,38.09,6.78,46.12,59.92,64.4,2.13.73,7.48,2.54,7.91,2.68,21.07,7.05,39.78,12.63,56.66,16.52,45.36,10.45,77.41,8.66,105.94-9.79l-231.72-106.3Z"/>
      <path class="cls-24" d="m345.02,332.96c2.02,8.41,4.91,18.66,8.37,31.41l222.79-106.1c-33.37-17.48-57.83-23.75-81.73-22.1-31.7,2.18-62.41,18.29-111.66,40.61-39.88,18.07-45.94,22.17-37.77,56.19Z"/>
      <path class="cls-11" d="m309.14,422.11c.98.97,8.4,7.41,21.65,17.27,53.89,40.14,204.27,137.04,410.9,154.3,20.63,1.73,41.82,2.66,63.53,2.66,17.61,0,35.24-.46,52.78-1.32,138.28-6.81,270.54-39.16,341.03-76.25,69.06-36.34,106.11-77.22,106.11-103.06,0-25.94-36.59-69.01-106.11-107.55-75.11-41.65-220.9-78.02-371.81-81.84-8.67-.22-28.45-.33-29.65-.32-242.87,1.07-409.57,110.48-466.79,155.04-12.97,10.09-20.31,16.88-21.65,18.3-6.53,6.97-5.84,17,0,22.77Z"/>
      <g>
        <path class="cls-12" d="m705.31,264.37c9.88,22.29-201.06,75.39-200.11,47.88.95-27.51,190.24-70.16,200.11-47.88Z"/>
        <ellipse class="cls-12" cx="465.02" cy="326.74" rx="21.84" ry="9.04" transform="translate(-87.13 192.07) rotate(-21.39)"/>
      </g>
      <path class="cls-12" d="m929.91,233.81c27.23,45.83,104.51,43.79,78.01,15.4,113.9,69.65,121.54,28.73,121.54,28.73-109.51-36.07-199.55-44.13-199.55-44.13Z"/>
      <path class="cls-12" d="m726.03,230.12c108.12,78.04,55.81,315.99,189.17,360.63,27.28-2.54,81.21-9.58,81.21-9.58-144.75-108.13-189.6-236.33-232.78-354.98l-37.6,3.93Z"/>
      <path class="cls-5" d="m324.51,392.54c61.08-34.3,127.65-61.9,197.86-82.04,69.72-20,143.45-32.77,219.15-37.94,75.98-5.2,154.38-2.78,233.03,7.18,79.77,10.1,160.35,28.04,239.51,53.32l.88-2.76c-79.32-25.33-160.08-43.31-240.03-53.44-78.84-9.99-157.43-12.41-233.6-7.2-75.9,5.19-149.84,18-219.75,38.05-70.43,20.2-137.21,47.89-198.48,82.3l1.42,2.52Z"/>
      <path class="cls-5" d="m828.02,562.79c125.38,0,256.42-21.08,391.58-63.13l-.86-2.77c-203.28,63.24-397.23,78.97-576.45,46.75-65.36-11.75-129.87-30.18-191.74-54.76-52.61-20.91-94.51-42.54-128.56-60.94l-1.38,2.55c34.12,18.44,76.12,40.12,128.86,61.08,62.05,24.66,126.75,43.14,192.3,54.92,60.47,10.87,122.64,16.3,186.25,16.3Z"/>
      <path class="cls-5" d="m1224.47,381.22c-261.18-49.3-531.49-48.43-793.02-2.05-37.34,6.92-74.54,14.52-111.29,24.42l.79,2.79c73.34-19.11,148.38-31.4,223.52-40.99,183.3-22.57,369.7-23.52,553.04-.84l35.24,4.6,35.14,5.34c8.3,1.16,19.78,3.23,28.04,4.68l28.01,4.91.54-2.85Z"/>
      <path class="cls-5" d="m1227.55,446.06c-10.21,2.09-32.32,6.77-41.96,8.75-8.32,1.48-33.39,5.98-42.19,7.53-35.84,5.66-77.18,11.28-113.34,14.48-37.14,3.57-76.74,5.95-114.06,6.99-8.24.22-20.45.68-28.56.68-10.15.07-33.1.38-42.86.15-133.2-.85-266.77-14.46-397.59-39.43-32.52-6.2-65.6-13.28-97.72-21.27-9.24-2.29-18.47-4.7-27.61-7.27l-.81,2.78c6.57,1.87,14.08,3.89,20.75,5.62,25.23,6.51,51.16,12.39,76.69,17.77,130.74,27.07,264.16,42.16,397.64,45.25,11.79.14,27.62.32,39.36.42,1.97,0,29.64-.31,32.21-.32,32.49-.55,67.63-1.96,100.1-4.34,22.06-1.45,49.2-4.12,71.29-6.4,8.14-1.04,34.43-4.3,42.61-5.36,13.42-2.07,29.03-4.39,42.45-6.52,7.42-1.4,34.6-6.29,42.25-7.73,10.53-2.21,31.64-6.77,42-8.95l-.64-2.82Z"/>
      <g>
        <path class="cls-17" d="m546.71,476.38c-4.77-23.26-.25-37.4,8-35.04,8.25,2.36,4.52,25.18-2.71,35.04h-5.29Z"/>
        <path class="cls-17" d="m540.8,480.34c-7.27-11.36-13.18-3.56-12.96,6.85.23,10.41,8.99,14.05,12.96,4.83v-11.68Z"/>
        <path class="cls-17" d="m556.37,482.16c5.91-13.29,14.66-11.15,16.59-1.3,2.02,10.29-1.31,20.63-8,20.59-7.45-.05-9.04-10.93-9.04-10.93l.45-8.36Z"/>
        <path class="cls-17" d="m546.03,497.71c-7.27,18.11-5.34,33.71,2.27,34.04s6.88-24.29,2.81-34.14l-5.09.11Z"/>
        <g>
          <path class="cls-24" d="m548.44,499.81c5.87,0,10.61-5.65,10.61-12.62s-4.75-12.62-10.61-12.62c4.65,1.27,4.85,23.85,0,25.25Z"/>
          <path class="cls-5" d="m537.81,487.19c0,6.98,4.76,12.62,10.62,12.62,4.85-1.39,4.65-23.97,0-25.25-5.87,0-10.62,5.65-10.62,12.62Z"/>
        </g>
      </g>
      <g>
        <path class="cls-17" d="m468.78,489.97c-8.09-17.81-7.16-29.12-.21-27.82,6.95,1.3,8.25,19.32,4.38,27.48l-4.17.34Z"/>
        <path class="cls-17" d="m465.46,495.38c-6.69-7.14-10.47.44-9.27,8.56,1.19,8.12,8.27,8.84,10.42.62l-1.14-9.18Z"/>
        <path class="cls-17" d="m477.99,492.96c2.99-11.96,9.91-12.56,12.5-5.35,2.71,7.54,1.35,16.51-3.76,18.22-5.69,1.91-8.14-6.21-8.14-6.21l-.6-6.67Z"/>
        <path class="cls-17" d="m472.22,506.63c-2.37,14.59,2.06,26.62,8.13,26.37,6.07-.24.91-19.38-4.13-26.79l-3.99.41Z"/>
        <g>
          <path class="cls-24" d="m472.01,508.21c4.64,0,8.4-4.47,8.4-10,0-5.52-3.76-10-8.4-10,3.68,1.01,3.84,18.89,0,19.99Z"/>
          <path class="cls-5" d="m463.6,498.21c0,5.52,3.77,10,8.41,10,3.84-1.1,3.68-18.98,0-19.99-4.64,0-8.41,4.47-8.41,10Z"/>
        </g>
      </g>
      <path class="cls-9" d="m1199.05,518.77c56.17-29.55,91.16-62.12,102.27-87.14,2.14-4.84,3.4-9.38,3.74-13.57.07-.79.1-1.57.1-2.34,0-6.36-2.2-13.76-6.54-21.86-9.8-18.27-30.52-40.15-61.53-61.99-11.32-7.97-24.01-15.93-38.04-23.71,33.2,53.8,36.31,164.34,0,210.61Z"/>
      <path class="cls-9" d="m309.14,422.11c.99.97,8.4,7.41,21.65,17.27-11.55-13.02-11.76-42.05,0-58.34-12.97,10.09-20.31,16.87-21.65,18.3-6.53,6.97-5.84,17,0,22.77Z"/>
      <path class="cls-5" d="m538.42,365.54c-21.89,15.5-52.99,6.68-52.99,6.68l52.99-6.68Z"/>
      <path class="cls-5" d="m950.38,275.2c31.05,16.43,62.1,8.29,62.1,8.29l-62.1-8.29Z"/>
      <path class="cls-5" d="m1007.92,282.89c15.22,14.85,28,4.54,28,4.54l-28-4.54Z"/>
      <path class="cls-5" d="m1164.6,460.33c-29.25,20.38-52.99,8.6-52.99,8.6l52.99-8.6Z"/>
      <path class="cls-5" d="m597.31,535.97c25.57,25.43,62.32,12.1,62.32,12.1l-62.32-12.1Z"/>
      <path class="cls-5" d="m741.7,593.68c20.63,1.73,41.82,2.66,63.53,2.66,17.61,0,35.24-.46,52.78-1.32,3.53-12.11-25.84-13.77-46.66-1.54,0,0-33.37-21.48-69.65.2Z"/>
      <path class="cls-9" d="m972.85,582.22l.47,1.64c21.16,0,43.07-4.07,66.27-9.41,43.71-10.06,82.22-24.59,82.22-24.59-60.84-2.32-110.66,14.31-135.23,24.59-10.37,4.34-13.73,7.77-13.73,7.77Z"/>
      <path class="cls-6" d="m972.14,587.96h136.12c2.1-3.46,3.93-7.5,5.65-12.1.17-.46.35-.93.52-1.41h-127.84c-6.23,2.61-10.84,4.8-13.58,6.17-1.74.87-2.56,2.89-1.9,4.72.3.83.65,1.73,1.03,2.61Z"/>
      <path class="cls-5" d="m361.4,492.42c1.84,39.61,7.18,46.71,66.55,66.65.43.14.85.29,1.28.43-3.41-16.48-17.02-44.7-67.83-67.08Z"/>
      <path class="cls-5" d="m345.02,332.96c40.47-2.74,126.22-18.61,149.43-96.79-31.7,2.18-62.41,18.29-111.66,40.61-39.88,18.07-45.94,22.17-37.77,56.19Z"/>
      <g>
        <path class="cls-24" d="m346.82,416.27c6.45,6.69,151.05,19.74,176.12,18.18,25.08-1.55,51.07-14.87,53.15-24.19.22-.98-7.45-1.62-20.1-1.97-25.72-.71-72.04-.26-114.57.91-50.01,1.38-99.44,2.05-94.6,7.07Z"/>
        <path class="cls-5" d="m441.42,409.19c9.34,9.18,73.92,28.19,114.57-.91-25.72-.71-72.04-.26-114.57.91Z"/>
      </g>
      <path class="cls-15" d="m1237.08,331.87c10.38,51.53,39.98,37.57,39.98,37.57,2.57,29.2,14.08,28.33,21.54,24.42-9.8-18.27-30.52-40.15-61.53-61.99Z"/>
      <path class="cls-5" d="m797.58,226c49.9,39.62,59.73,98.81,65,98.5,4.92-.28-7.02-61.85-35.35-98.18-8.67-.22-28.45-.33-29.65-.32Z"/>
      <path class="cls-6" d="m1237.08,331.87c-68.57-51.45-167.38-76.6-250.93-91.83-108.12-18.23-219.57-23.23-327.86-3.67-98.2,17.81-193.63,53.64-277.76,107.55-16.74,10.88-33.05,22.51-48,35.78,16.5-11.23,33.05-22.23,49.95-32.69,120.32-74.86,260.9-116.05,402.54-118.68,135.71-2.59,339.26,25.82,452.06,103.55Z"/>
      <path class="cls-5" d="m421.32,556.82c2.13.73,7.48,2.54,7.91,2.68,21.07,7.05,39.78,12.63,56.66,16.52-6.48-12.31-25-36.65-64.56-19.2Z"/>
      <path class="cls-5" d="m330.79,381.04c-12.99,12.01-13.03,37.36-4.98,52.16,1.29,2.31,2.92,4.48,4.98,6.17-1.98-4.8-3.8-9.39-5.05-14.36-4.32-16.76-1.67-28.49,5.05-43.97Z"/>
      <path class="cls-5" d="m697.61,240.35c.11,0,.22-.01.33-.04.78-.18,1.26-.96,1.08-1.74-2.62-11.31-7.16-18.87-12.14-20.23-1.96-.53-3.85-.02-5.2,1.4-2.37,2.49-2.74,7.16-.99,12.47.25.76,1.07,1.17,1.83.92.76-.25,1.17-1.07.92-1.83-1.66-5.05-.86-8.32.34-9.58.62-.65,1.4-.85,2.34-.6,2.9.79,7.27,6,10.08,18.09.15.67.75,1.12,1.41,1.12Z"/>
      <path class="cls-15" d="m1219.17,475.56c36.31,6.1,60.89-46.8,82.15-43.94,2.14-4.84,3.4-9.38,3.74-13.57-1.46-.49-3.03-.96-4.71-1.4-28.97-7.59-30.23,33.58-74.73,12.56,0,27.18-6.44,46.35-6.44,46.35Z"/>
      <path class="cls-6" d="m1199.04,308.16c8.19,16.34,14.45,33.59,18.24,51.48,7.52,35.62,8.46,72.85,1.49,108.64-3.56,17.88-9.37,35.27-19.72,50.49.82-.81,1.64-1.62,2.45-2.46,1.38-1.3,3.24-3.85,4.46-5.36l1.93-2.91c.64-.91,1.32-2.03,1.83-2.98,1.74-2.94,3.31-6.28,4.7-9.37,15.31-37.24,15.92-83.94,9.44-123.31-4.13-22.29-10.77-46.06-24.81-64.23Z"/>
      <g>
        <path class="cls-5" d="m1021.65,478.69c-128.46,10.06-228.53,9.69-376.57-.79-18.19-1.29-33.02-10.31-33.02-28.54v-64.25c0-18.23,14.78-33.02,33.02-33.02h376.57c18.23,0,33.02,14.78,33.02,33.02v64.25c0,18.23-14.84,27.91-33.02,29.33Z"/>
        <rect class="cls-17" x="612.07" y="341.91" width="442.6" height="130.28" rx="33.02" ry="33.02"/>
        <rect class="cls-24" x="622.66" y="351.64" width="421.42" height="110.84" rx="21.86" ry="21.86"/>
        <g>
          <g>
            <path class="cls-1" d="m944.63,445.86c-4.93,1.78-10.18-.54-11.72-5.17-1.55-4.64,1.19-9.85,6.12-11.63,4.91-1.78,10.17.53,11.73,5.17,1.54,4.64-1.2,9.85-6.12,11.63Z"/>
            <path class="cls-26" d="m958.98,422.24v-33.81c0-14.16,6.51-23.64,23.3-23.64h10.97c16.79,0,23.3,9.48,23.3,23.64v33.81c0,14.16-6.51,23.64-23.3,23.64h-10.97c-16.79,0-23.3-9.48-23.3-23.64Zm24.33,8.68h8.8c4.57,0,7.65-1.71,7.65-8.8v-33.7c0-6.85-3.08-8.8-7.65-8.8h-8.8c-4.45,0-7.65,1.94-7.65,8.8v33.7c0,7.08,3.2,8.8,7.65,8.8Z"/>
            <path class="cls-25" d="m868.91,424.87v-2.4c0-1.26.69-1.94,1.94-1.94h12.91c1.26,0,1.94.69,1.94,1.94,0,6.97,3.08,9.14,8.11,9.14h8c4.57,0,7.54-1.71,7.54-8.8v-6.62c0-7.08-3.54-8.91-8.11-8.91h-7.08c-5.03,0-6.85,2.63-8,5.03h-14.62c-1.37,0-1.94-.69-1.83-2.06l4.11-42.61c.11-1.14.57-1.71,1.71-1.71h43.52c1.48,0,2.06.69,2.06,2.06v10.62c0,1.37-.57,2.06-2.06,2.06h-30.73l-1.94,16.68h.91c1.71-2.63,7.2-4.91,13.14-4.91h3.66c18.5,0,22.05,11.99,22.05,24.1v6.28c0,14.16-5.83,23.64-23.42,23.64h-8.91c-17.82,0-24.9-7.31-24.9-21.59Z"/>
          </g>
          <g>
            <path id="inc" class="cls-3" d="m807.07,431c-4.4,1.59-6.85,6.25-5.47,10.39s6.08,6.21,10.48,4.62c4.4-1.59,6.85-6.25,5.47-10.39s-6.08-6.21-10.48-4.62Zm-143.57-42.1c1.15,0,1.72.57,1.72,1.72v53.98c0,1.15-.57,1.72-1.72,1.72h-11.37c-1.15,0-1.72-.57-1.72-1.72v-53.98c0-1.15.57-1.72,1.72-1.72h11.37Zm46.75-.46c12.52,0,16.88,8.5,16.88,20.21v35.95c0,1.15-.57,1.72-1.72,1.72h-11.37c-1.15,0-1.72-.57-1.72-1.72v-37.67c0-3.9-2.87-5.28-6.2-5.28h-1.38c-4.94,0-8.5,2.07-9.76,4.13v38.82c0,1.15-.57,1.72-1.72,1.72h-11.37c-1.15,0-1.72-.57-1.72-1.72v-53.98c0-1.15.57-1.72,1.72-1.72h11.37c1.15,0,1.72.57,1.72,1.72v5.05c1.72-2.87,6.09-7.24,14.59-7.24h.69Zm43.76-22.51c1.15,0,1.72.57,1.72,1.72v39.85l16.31-17.23c.69-.8,1.72-1.38,2.64-1.38h11.83c1.49,0,2.87,1.72.8,3.91l-17.11,18.38,19.98,32.04c.69,1.26.57,3.1-1.38,3.1h-10.8c-1.49,0-2.87-.46-3.79-2.07l-14.01-23.2-4.48,4.48v19.07c0,1.15-.57,1.72-1.72,1.72h-11.37c-1.15,0-1.72-.57-1.72-1.72v-76.95c0-1.15.57-1.72,1.72-1.72h11.37Zm-98.42,2.73c-4.31,1.3-6.91,5.65-5.79,9.71,1.12,4.05,5.52,6.29,9.83,4.98,4.31-1.3,6.91-5.65,5.79-9.71-1.12-4.05-5.52-6.29-9.83-4.98Z"/>
            <path class="cls-3" d="m805.66,417.62h-2.5c-1.15,0-1.72-.58-1.72-1.73v-48.24c0-1.15.57-1.72,1.72-1.72h11.72c1.15,0,1.72.57,1.72,1.72v1.63c-4.46,1.09-7.93,5.63-8.21,11.29-.22,4.55,1.67,8.67,4.66,11-2.23,1.52-3.87,4.08-4.28,7.14-.45,3.34.66,6.5,2.73,8.59-2.08.91-3.98,2.78-5.06,5.24-.76,1.74-1,3.5-.78,5.08Z"/>
            <path class="cls-3" d="m809.28,413.73c-.85,1.95-.2,4.01,1.46,4.59s3.7-.52,4.55-2.47.2-4.01-1.46-4.59-3.7.52-4.55,2.47Zm3.09-14.27c-.57,3.02,1.02,5.85,3.55,6.32s5.05-1.6,5.62-4.61c.57-3.02-1.02-5.85-3.55-6.32s-5.05,1.6-5.62,4.61Zm-.64-17.79c-.2,4.13,2.45,7.68,5.92,7.93s6.45-2.91,6.65-7.04-2.45-7.68-5.92-7.93-6.45,2.91-6.65,7.04Z"/>
          </g>
        </g>
      </g>
    </g>
    <g>
      <ellipse class="cls-11" cx="635.66" cy="187.26" rx="7.84" ry="20.58" transform="translate(220.19 703.5) rotate(-67.59)"/>
      <path class="cls-19" d="m647.87,192.28c.39,0,.62,0,.69-.01.8-.04,1.42-.72,1.38-1.51-.04-.8-.74-1.41-1.51-1.38-.14,0-14.41.52-24-9.87-.54-.59-1.46-.62-2.05-.08-.59.54-.62,1.46-.08,2.05,9.39,10.17,22.41,10.82,25.57,10.82Z"/>
      <path d="m634.23,179.68c-4.04-.7-.75-17.4,3.44-16.47,4.19.94.6,17.17-3.44,16.47Z"/>
      <path d="m641.25,182.46c-3.43-2,6.02-15.21,9.5-12.96,3.48,2.25-6.07,14.96-9.5,12.96Z"/>
    </g>
    <path class="cls-13" d="m816.14,223.44c7.55,7.46,14.92,17.5,21.23,29.41,20.84,39.34,23.55,73.56,27.75,75.68,4.2,2.12,4.3-32.36-11.25-77.79-5.18-15.12-12.49-29.38-21.02-41.27-5.56-7.75-23.9,6.89-16.72,13.97Z"/>
  </g>
</svg>