<?xml version="1.0" encoding="utf-8"?>
<!-- Generator: Adobe Illustrator 27.1.1, SVG Export Plug-In . SVG Version: 6.00 Build 0)  -->
<svg version="1.1" id="Layer_1" xmlns="http://www.w3.org/2000/svg" xmlns:xlink="http://www.w3.org/1999/xlink" x="0px" y="0px"
	 viewBox="0 0 1600 500" style="enable-background:new 0 0 1600 500;" xml:space="preserve">
<style type="text/css">
	.st0{fill-rule:evenodd;clip-rule:evenodd;fill:#B8AEFF;}
	.st1{clip-path:url(#SVGID_00000016054164635802035250000001200050118798510261_);}
	.st2{fill:#383838;}
	.st3{fill:#1C1C1C;}
	.st4{fill:#666666;}
	.st5{clip-path:url(#SVGID_00000032634641444651344260000002664053189731801251_);}
	.st6{clip-path:url(#SVGID_00000062874434524593302630000006372448048365605797_);}
</style>
<g>
	<path class="st0" d="M1600,24.84v428.52c0,8.31-4.08,15.66-10.34,20.17c-2.4,1.73-5.84,0.86-6.95-1.88
		c-3.92-9.72-16.41-16.83-31.21-16.83c-9.47,0-17.99,2.91-23.93,7.55c-1.91,1.49-4.64,1.25-6.24-0.56
		c-7.66-8.68-21.22-14.45-36.68-14.45c-13.95,0-26.37,4.71-34.28,12.01c-1.84,1.7-4.72,1.55-6.42-0.29
		c-9.32-10.07-25.83-16.76-44.62-16.76c-27.05,0-49.35,13.85-52.36,31.7c-0.4,2.39-2.49,4.14-4.91,4.14L24.83,478.2
		C11.12,478.2,0,467.08,0,453.36V24.84C0,11.12,11.12,0,24.83,0h1550.34C1588.88,0,1600,11.12,1600,24.84z"/>
</g>
<ellipse class="st0" cx="1399.46" cy="479.16" rx="33.87" ry="20.84"/>
<ellipse class="st0" cx="1483.78" cy="478.69" rx="27.94" ry="17.19"/>
<ellipse class="st0" cx="1552.37" cy="479.04" rx="18.65" ry="11.48"/>
<g>
	<defs>
		<ellipse id="SVGID_1_" cx="1483.78" cy="478.69" rx="27.94" ry="17.19"/>
	</defs>
	<clipPath id="SVGID_00000109006207390643995070000003171989650975014028_">
		<use xlink:href="#SVGID_1_"  style="overflow:visible;"/>
	</clipPath>
	<g style="clip-path:url(#SVGID_00000109006207390643995070000003171989650975014028_);">
		<g>
			<g>
				<polygon class="st2" points="81.72,33.72 41.78,-22.71 12.88,40.1 				"/>
				<path class="st2" d="M116.88,83.41L81.72,33.72l-28.9,62.8l60.6-5.61C117.08,90.58,119,86.41,116.88,83.41z"/>
				<polygon class="st3" points="12.88,40.1 52.82,96.53 81.72,33.72 				"/>
				<path class="st4" d="M41.78-22.71l39.94,56.43l25.45-55.29c1.54-3.34-1.12-7.09-4.78-6.75L41.78-22.71z"/>
			</g>
			<g>
				<polygon class="st2" points="172.04,75.29 211.98,131.72 240.88,68.92 				"/>
				<path class="st2" d="M136.88,25.61l35.16,49.68l28.9-62.8l-60.6,5.61C136.68,18.44,134.76,22.61,136.88,25.61z"/>
				<polygon class="st3" points="240.88,68.92 200.95,12.49 172.04,75.29 				"/>
				<path class="st4" d="M211.98,131.72l-39.94-56.43l-25.45,55.29c-1.54,3.34,1.12,7.09,4.78,6.75L211.98,131.72z"/>
			</g>
		</g>
		<g>
			<g>
				<polygon class="st2" points="78.23,189.43 70.4,153.85 43.5,178.43 				"/>
				<path class="st2" d="M85.13,220.76l-6.9-31.33l-26.9,24.58l30.58,9.69C83.76,224.29,85.55,222.65,85.13,220.76z"/>
				<polygon class="st3" points="43.5,178.43 51.33,214.01 78.23,189.43 				"/>
				<path class="st4" d="M70.4,153.85l7.84,35.59l23.68-21.64c1.43-1.31,0.91-3.67-0.94-4.26L70.4,153.85z"/>
			</g>
			<g>
				<polygon class="st2" points="113.58,228.12 121.42,263.71 148.32,239.13 				"/>
				<path class="st2" d="M106.68,196.79l6.9,31.33l26.9-24.58l-30.58-9.69C108.06,193.27,106.27,194.9,106.68,196.79z"/>
				<polygon class="st3" points="148.32,239.13 140.48,203.54 113.58,228.12 				"/>
				<path class="st4" d="M121.42,263.71l-7.84-35.59L89.9,249.76c-1.43,1.31-0.91,3.67,0.94,4.26L121.42,263.71z"/>
			</g>
		</g>
		<g>
			<g>
				<polygon class="st2" points="193.78,-70.76 168.09,-107.15 149.42,-66.71 				"/>
				<path class="st2" d="M216.39-38.72l-22.61-32.03l-18.67,40.44l39.05-3.57C216.52-34.1,217.76-36.79,216.39-38.72z"/>
				<polygon class="st3" points="149.42,-66.71 175.11,-30.32 193.78,-70.76 				"/>
				<path class="st4" d="M168.09-107.15l25.69,36.39l16.44-35.6c0.99-2.15-0.71-4.57-3.07-4.35L168.09-107.15z"/>
			</g>
			<g>
				<polygon class="st2" points="251.94,-43.91 277.63,-7.52 296.29,-47.96 				"/>
				<path class="st2" d="M229.32-75.94l22.61,32.03l18.67-40.44l-39.05,3.57C229.2-80.57,227.96-77.88,229.32-75.94z"/>
				<polygon class="st3" points="296.29,-47.96 270.61,-84.35 251.94,-43.91 				"/>
				<path class="st4" d="M277.63-7.52l-25.69-36.39L235.5-8.31c-0.99,2.15,0.71,4.57,3.07,4.35L277.63-7.52z"/>
			</g>
		</g>
		<g>
			<g>
				<polygon class="st2" points="32.71,425.32 -22.17,438.82 16.96,479.6 				"/>
				<path class="st2" d="M81.02,413.44l-48.32,11.88l39.13,40.78l13.87-47.78C86.54,415.43,83.94,412.72,81.02,413.44z"/>
				<polygon class="st3" points="16.96,479.6 71.84,466.1 32.71,425.32 				"/>
				<path class="st4" d="M-22.17,438.82l54.88-13.5l-34.45-35.9c-2.08-2.17-5.73-1.27-6.56,1.61L-22.17,438.82z"/>
			</g>
			<g>
				<polygon class="st2" points="91.36,369.04 146.24,355.55 107.11,314.77 				"/>
				<path class="st2" d="M43.04,380.93l48.32-11.88l-39.13-40.78l-13.87,47.78C37.52,378.94,40.12,381.65,43.04,380.93z"/>
				<polygon class="st3" points="107.11,314.77 52.23,328.26 91.36,369.04 				"/>
				<path class="st4" d="M146.24,355.55l-54.88,13.5l34.45,35.9c2.08,2.17,5.73,1.27,6.56-1.61L146.24,355.55z"/>
			</g>
		</g>
		<g>
			<g>
				<polygon class="st2" points="504.58,174.42 508.72,113.1 453.54,140.18 				"/>
				<path class="st2" d="M500.93,228.41l3.65-53.99L449.4,201.5l44.93,30.15C497.04,233.47,500.71,231.67,500.93,228.41z"/>
				<polygon class="st3" points="453.54,140.18 449.4,201.5 504.58,174.42 				"/>
				<path class="st4" d="M508.72,113.1l-4.14,61.32l48.58-23.84c2.93-1.44,3.21-5.51,0.5-7.34L508.72,113.1z"/>
			</g>
			<g>
				<polygon class="st2" points="543.52,253.78 539.37,315.11 594.55,288.03 				"/>
				<path class="st2" d="M547.16,199.8l-3.65,53.99l55.18-27.08l-44.93-30.15C551.05,194.74,547.38,196.53,547.16,199.8z"/>
				<polygon class="st3" points="594.55,288.03 598.69,226.71 543.52,253.78 				"/>
				<path class="st4" d="M539.37,315.11l4.14-61.32l-48.58,23.84c-2.93,1.44-3.21,5.51-0.5,7.34L539.37,315.11z"/>
			</g>
		</g>
		<g>
			<g>
				<polygon class="st2" points="360.28,68.59 360.25,36.29 332.29,52.47 				"/>
				<path class="st2" d="M360.31,97.03l-0.03-28.44l-27.96,16.18l24.64,14.19C358.45,99.82,360.31,98.74,360.31,97.03z"/>
				<polygon class="st3" points="332.29,52.47 332.32,84.77 360.28,68.59 				"/>
				<path class="st4" d="M360.25,36.29l0.03,32.3l24.61-14.24c1.49-0.86,1.48-3.01,0-3.86L360.25,36.29z"/>
			</g>
			<g>
				<polygon class="st2" points="383.55,108.8 383.58,141.1 411.54,124.92 				"/>
				<path class="st2" d="M383.52,80.36l0.03,28.44l27.96-16.18l-24.64-14.19C385.38,77.57,383.52,78.64,383.52,80.36z"/>
				<polygon class="st3" points="411.54,124.92 411.51,92.62 383.55,108.8 				"/>
				<path class="st4" d="M383.58,141.1l-0.03-32.3l-24.61,14.24c-1.49,0.86-1.48,3.01,0,3.86L383.58,141.1z"/>
			</g>
		</g>
		<g>
			<g>
				<polygon class="st2" points="285.58,218.23 321.75,205.6 292.73,180.59 				"/>
				<path class="st2" d="M253.74,229.35l31.84-11.12l-29.02-25.01l-6.29,33.14C249.89,228.36,251.82,230.02,253.74,229.35z"/>
				<polygon class="st3" points="292.73,180.59 256.56,193.22 285.58,218.23 				"/>
				<path class="st4" d="M321.75,205.6l-36.17,12.63l25.55,22.02c1.54,1.33,3.95,0.49,4.33-1.51L321.75,205.6z"/>
			</g>
			<g>
				<polygon class="st2" points="249.61,259.97 213.45,272.6 242.47,297.61 				"/>
				<path class="st2" d="M281.46,248.85l-31.84,11.12l29.02,25.01l6.29-33.14C285.31,249.84,283.38,248.18,281.46,248.85z"/>
				<polygon class="st3" points="242.47,297.61 278.64,284.98 249.61,259.97 				"/>
				<path class="st4" d="M213.45,272.6l36.17-12.63l-25.55-22.02c-1.54-1.33-3.95-0.49-4.33,1.51L213.45,272.6z"/>
			</g>
		</g>
		<g>
			<g>
				<polygon class="st2" points="807.37,50.56 834.43,35.99 808.29,19.84 				"/>
				<path class="st2" d="M783.54,63.38l23.83-12.82L781.22,34.4l-0.81,27.05C780.37,63.08,782.1,64.16,783.54,63.38z"/>
				<polygon class="st3" points="808.29,19.84 781.22,34.4 807.37,50.56 				"/>
				<path class="st4" d="M834.43,35.99l-27.06,14.57l23.02,14.22c1.39,0.86,3.19-0.11,3.24-1.74L834.43,35.99z"/>
			</g>
			<g>
				<polygon class="st2" points="784.13,88.16 757.07,102.73 783.21,118.89 				"/>
				<path class="st2" d="M807.96,75.34l-23.83,12.82l26.15,16.16l0.81-27.05C811.14,75.64,809.4,74.57,807.96,75.34z"/>
				<polygon class="st3" points="783.21,118.89 810.28,104.32 784.13,88.16 				"/>
				<path class="st4" d="M757.07,102.73l27.06-14.57l-23.02-14.22c-1.39-0.86-3.19,0.11-3.24,1.74L757.07,102.73z"/>
			</g>
		</g>
		<g>
			<g>
				<polygon class="st2" points="486.97,-18.63 494.81,-48.34 465.15,-40.28 				"/>
				<path class="st2" d="M480.06,7.54l6.91-26.16l-29.66,8.06l19.2,19.06C477.67,9.65,479.64,9.12,480.06,7.54z"/>
				<polygon class="st3" points="465.15,-40.28 457.31,-10.56 486.97,-18.63 				"/>
				<path class="st4" d="M494.81-48.34l-7.85,29.72l26.11-7.1c1.58-0.43,2.1-2.4,0.94-3.55L494.81-48.34z"/>
			</g>
			<g>
				<polygon class="st2" points="498.56,24.03 490.72,53.75 520.38,45.68 				"/>
				<path class="st2" d="M505.47-2.13l-6.91,26.16l29.66-8.06L509.02-3.1C507.86-4.25,505.89-3.71,505.47-2.13z"/>
				<polygon class="st3" points="520.38,45.68 528.22,15.97 498.56,24.03 				"/>
				<path class="st4" d="M490.72,53.75l7.85-29.72l-26.11,7.1c-1.58,0.43-2.1,2.4-0.94,3.55L490.72,53.75z"/>
			</g>
		</g>
		<g>
			<g>
				<polygon class="st2" points="518.8,492.1 561.87,470.81 521.89,444.16 				"/>
				<path class="st2" d="M480.88,510.85l37.92-18.75l-39.98-26.65l-2.72,42.21C475.94,510.21,478.59,511.98,480.88,510.85z"/>
				<polygon class="st3" points="521.89,444.16 478.82,465.45 518.8,492.1 				"/>
				<path class="st4" d="M561.87,470.81l-43.07,21.3l35.19,23.46c2.13,1.42,4.99,0,5.15-2.55L561.87,470.81z"/>
			</g>
			<g>
				<polygon class="st2" points="480.47,549.6 437.4,570.89 477.38,597.54 				"/>
				<path class="st2" d="M518.39,530.85l-37.92,18.75l39.98,26.65l2.72-42.21C523.33,531.49,520.68,529.72,518.39,530.85z"/>
				<polygon class="st3" points="477.38,597.54 520.45,576.25 480.47,549.6 				"/>
				<path class="st4" d="M437.4,570.89l43.07-21.3l-35.19-23.46c-2.13-1.42-4.99,0-5.15,2.55L437.4,570.89z"/>
			</g>
		</g>
		<g>
			<g>
				<polygon class="st2" points="845.16,363.75 901.03,322.73 837.57,294.85 				"/>
				<path class="st2" d="M795.96,399.87l49.19-36.12l-63.47-27.88l6.68,60.66C788.77,400.19,792.99,402.05,795.96,399.87z"/>
				<polygon class="st3" points="837.57,294.85 781.69,335.87 845.16,363.75 				"/>
				<path class="st4" d="M901.03,322.73l-55.88,41.02l55.87,24.55c3.37,1.48,7.09-1.24,6.68-4.91L901.03,322.73z"/>
			</g>
			<g>
				<polygon class="st2" points="805.06,455.03 749.18,496.05 812.65,523.93 				"/>
				<path class="st2" d="M854.25,418.91l-49.19,36.12l63.47,27.88l-6.68-60.66C861.44,418.58,857.22,416.73,854.25,418.91z"/>
				<polygon class="st3" points="812.65,523.93 868.52,482.91 805.06,455.03 				"/>
				<path class="st4" d="M749.18,496.05l55.88-41.02l-55.87-24.55c-3.37-1.48-7.09,1.24-6.68,4.91L749.18,496.05z"/>
			</g>
		</g>
		<g>
			<g>
				<polygon class="st2" points="934.95,-26.41 963.93,-63.98 916.91,-70.29 				"/>
				<path class="st2" d="M909.44,6.66l25.51-33.08l-47.03-6.31l15.89,38.63C904.77,8.24,907.9,8.66,909.44,6.66z"/>
				<polygon class="st3" points="916.91,-70.29 887.93,-32.72 934.95,-26.41 				"/>
				<path class="st4" d="M963.93-63.98l-28.98,37.57l41.4,5.56c2.5,0.34,4.43-2.16,3.47-4.49L963.93-63.98z"/>
			</g>
			<g>
				<polygon class="st2" points="925.87,41.22 896.89,78.79 943.92,85.1 				"/>
				<path class="st2" d="M951.39,8.15l-25.51,33.08l47.03,6.31L957.01,8.9C956.05,6.57,952.93,6.15,951.39,8.15z"/>
				<polygon class="st3" points="943.92,85.1 972.9,47.54 925.87,41.22 				"/>
				<path class="st4" d="M896.89,78.79l28.98-37.57l-41.4-5.56c-2.5-0.34-4.43,2.16-3.47,4.49L896.89,78.79z"/>
			</g>
		</g>
		<g>
			<g>
				<polygon class="st2" points="1083.2,5.66 1074.5,-47.78 1032.57,-13.53 				"/>
				<path class="st2" d="M1090.85,52.7l-7.65-47.05l-41.93,34.25l44.57,16.89C1088.53,57.82,1091.32,55.55,1090.85,52.7z"/>
				<polygon class="st3" points="1032.57,-13.53 1041.27,39.91 1083.2,5.66 				"/>
				<path class="st4" d="M1074.5-47.78l8.69,53.44l36.92-30.15c2.23-1.82,1.65-5.37-1.04-6.39L1074.5-47.78z"/>
			</g>
			<g>
				<polygon class="st2" points="1132.46,65.97 1141.15,119.4 1183.08,85.15 				"/>
				<path class="st2" d="M1124.8,18.92l7.65,47.05l41.93-34.25l-44.57-16.89C1127.13,13.8,1124.34,16.08,1124.8,18.92z"/>
				<polygon class="st3" points="1183.08,85.15 1174.39,31.72 1132.46,65.97 				"/>
				<path class="st4" d="M1141.15,119.4l-8.69-53.44l-36.92,30.15c-2.23,1.82-1.65,5.37,1.04,6.39L1141.15,119.4z"/>
			</g>
		</g>
		<g>
			<g>
				<polygon class="st2" points="1294.54,233.76 1247.25,284.23 1314.61,299.94 				"/>
				<path class="st2" d="M1336.16,189.32l-41.63,44.44l67.36,15.71l-17.67-58.27C1343.15,187.68,1338.68,186.63,1336.16,189.32z"/>
				<polygon class="st3" points="1314.61,299.94 1361.89,249.47 1294.54,233.76 				"/>
				<path class="st4" d="M1247.25,284.23l47.28-50.48l-59.3-13.83c-3.58-0.84-6.72,2.52-5.66,6.04L1247.25,284.23z"/>
			</g>
			<g>
				<polygon class="st2" points="1317.13,136.88 1364.42,86.4 1297.06,70.69 				"/>
				<path class="st2" d="M1275.5,181.32l41.63-44.44l-67.36-15.71l17.67,58.27C1268.51,182.96,1272.99,184,1275.5,181.32z"/>
				<polygon class="st3" points="1297.06,70.69 1249.77,121.17 1317.13,136.88 				"/>
				<path class="st4" d="M1364.42,86.4l-47.28,50.48l59.3,13.83c3.58,0.84,6.72-2.52,5.66-6.04L1364.42,86.4z"/>
			</g>
		</g>
		<g>
			<g>
				<polygon class="st2" points="1505.64,185.42 1541.6,179.23 1518.26,151.18 				"/>
				<path class="st2" d="M1473.99,190.87l31.66-5.45l-23.34-28.04l-11.11,30.14C1470.52,189.33,1472.07,191.2,1473.99,190.87z"/>
				<polygon class="st3" points="1518.26,151.18 1482.3,157.37 1505.64,185.42 				"/>
				<path class="st4" d="M1541.6,179.23l-35.96,6.19l20.55,24.69c1.24,1.49,3.63,1.08,4.3-0.74L1541.6,179.23z"/>
			</g>
			<g>
				<polygon class="st2" points="1465.31,218.99 1429.35,225.18 1452.69,253.22 				"/>
				<path class="st2" d="M1496.96,213.54l-31.66,5.45l23.34,28.04l11.11-30.14C1500.43,215.07,1498.88,213.21,1496.96,213.54z"/>
				<polygon class="st3" points="1452.69,253.22 1488.65,247.03 1465.31,218.99 				"/>
				<path class="st4" d="M1429.35,225.18l35.96-6.19l-20.55-24.69c-1.24-1.49-3.63-1.08-4.3,0.74L1429.35,225.18z"/>
			</g>
		</g>
		<g>
			<g>
				<polygon class="st2" points="1426.61,366.4 1448.42,309.95 1388.64,319.29 				"/>
				<path class="st2" d="M1407.41,416.09l19.2-49.69l-59.79,9.33l33.43,41.47C1402.28,419.71,1406.25,419.09,1407.41,416.09z"/>
				<polygon class="st3" points="1388.64,319.29 1366.83,375.73 1426.61,366.4 				"/>
				<path class="st4" d="M1448.42,309.95l-21.81,56.44l52.63-8.22c3.18-0.5,4.63-4.25,2.61-6.75L1448.42,309.95z"/>
			</g>
			<g>
				<polygon class="st2" points="1440.04,452.38 1418.23,508.82 1478.02,499.49 				"/>
				<path class="st2" d="M1459.24,402.69l-19.2,49.69l59.79-9.33l-33.43-41.47C1464.37,399.07,1460.4,399.69,1459.24,402.69z"/>
				<polygon class="st3" points="1478.02,499.49 1499.82,443.05 1440.04,452.38 				"/>
				<path class="st4" d="M1418.23,508.82l21.81-56.44l-52.63,8.22c-3.18,0.5-4.63,4.25-2.61,6.75L1418.23,508.82z"/>
			</g>
		</g>
		<g>
			<g>
				<polygon class="st2" points="1471.28,42.76 1412.79,27.26 1428.61,85.66 				"/>
				<path class="st2" d="M1522.77,56.4l-51.49-13.65l15.82,58.4l37.56-37.77C1526.94,61.11,1525.88,57.23,1522.77,56.4z"/>
				<polygon class="st3" points="1428.61,85.66 1487.1,101.16 1471.28,42.76 				"/>
				<path class="st4" d="M1412.79,27.26l58.49,15.5l-13.93-51.42c-0.84-3.11-4.73-4.14-7-1.85L1412.79,27.26z"/>
			</g>
			<g>
				<polygon class="st2" points="1555.28,20 1613.77,35.5 1597.95,-22.9 				"/>
				<path class="st2" d="M1503.78,6.36L1555.28,20l-15.82-58.4l-37.56,37.77C1499.62,1.65,1500.67,5.53,1503.78,6.36z"/>
				<polygon class="st3" points="1597.95,-22.9 1539.46,-38.4 1555.28,20 				"/>
				<path class="st4" d="M1613.77,35.5L1555.28,20l13.93,51.42c0.84,3.11,4.73,4.14,7,1.85L1613.77,35.5z"/>
			</g>
		</g>
		<g>
			<g>
				<polygon class="st2" points="1550.15,329.78 1518.63,344.77 1547.38,364.56 				"/>
				<path class="st2" d="M1577.89,316.57l-27.74,13.2l28.74,19.79l2.44-30.63C1581.47,317.09,1579.56,315.78,1577.89,316.57z"/>
				<polygon class="st3" points="1547.38,364.56 1578.89,349.57 1550.15,329.78 				"/>
				<path class="st4" d="M1518.63,344.77l31.51-15l-25.3-17.42c-1.53-1.05-3.62-0.06-3.77,1.79L1518.63,344.77z"/>
			</g>
			<g>
				<polygon class="st2" points="1578.61,288.44 1610.12,273.44 1581.38,253.65 				"/>
				<path class="st2" d="M1550.87,301.64l27.74-13.2l-28.74-19.79l-2.44,30.63C1547.28,301.12,1549.19,302.44,1550.87,301.64z"/>
				<polygon class="st3" points="1581.38,253.65 1549.87,268.64 1578.61,288.44 				"/>
				<path class="st4" d="M1610.12,273.44l-31.51,15l25.3,17.42c1.53,1.05,3.62,0.06,3.77-1.79L1610.12,273.44z"/>
			</g>
		</g>
		<g>
			<g>
				<polygon class="st2" points="1241.64,397.47 1259.31,362.4 1220.11,364.64 				"/>
				<path class="st2" d="M1226.09,428.34l15.55-30.87l-39.2,2.23l18.96,28.9C1222.55,430.35,1225.15,430.2,1226.09,428.34z"/>
				<polygon class="st3" points="1220.11,364.64 1202.44,399.7 1241.64,397.47 				"/>
				<path class="st4" d="M1259.31,362.4l-17.67,35.06l34.51-1.97c2.08-0.12,3.26-2.45,2.11-4.19L1259.31,362.4z"/>
			</g>
			<g>
				<polygon class="st2" points="1244.85,453.85 1227.19,488.91 1266.39,486.68 				"/>
				<path class="st2" d="M1260.41,422.98l-15.55,30.87l39.2-2.23l-18.96-28.9C1263.95,420.96,1261.35,421.11,1260.41,422.98z"/>
				<polygon class="st3" points="1266.39,486.68 1284.05,451.61 1244.85,453.85 				"/>
				<path class="st4" d="M1227.19,488.91l17.67-35.06l-34.51,1.97c-2.08,0.12-3.26,2.45-2.11,4.19L1227.19,488.91z"/>
			</g>
		</g>
		<g>
			<g>
				<polygon class="st2" points="803.79,219.48 844.25,235.08 837.52,192.25 				"/>
				<path class="st2" d="M768.18,205.75l35.61,13.73l-6.72-42.83l-29.7,23.98C765.58,202.08,766.03,204.93,768.18,205.75z"/>
				<polygon class="st3" points="837.52,192.25 797.07,176.65 803.79,219.48 				"/>
				<path class="st4" d="M844.25,235.08l-40.45-15.59l5.92,37.71c0.36,2.28,3.05,3.31,4.84,1.87L844.25,235.08z"/>
			</g>
			<g>
				<polygon class="st2" points="742.19,229.15 701.74,213.56 708.46,256.39 				"/>
				<path class="st2" d="M777.81,242.88l-35.61-13.73l6.72,42.83l29.7-23.98C780.4,246.56,779.96,243.71,777.81,242.88z"/>
				<polygon class="st3" points="708.46,256.39 748.91,271.98 742.19,229.15 				"/>
				<path class="st4" d="M701.74,213.56l40.45,15.59l-5.92-37.71c-0.36-2.28-3.05-3.31-4.84-1.87L701.74,213.56z"/>
			</g>
		</g>
		<g>
			<g>
				<polygon class="st2" points="658.88,364.02 696.16,356.41 670.94,327.93 				"/>
				<path class="st2" d="M626.06,370.71l32.82-6.69l-25.22-28.48l-10.61,31.77C622.41,369.22,624.08,371.11,626.06,370.71z"/>
				<polygon class="st3" points="670.94,327.93 633.66,335.53 658.88,364.02 				"/>
				<path class="st4" d="M696.16,356.41l-37.28,7.6l22.21,25.08c1.34,1.51,3.82,1.01,4.46-0.91L696.16,356.41z"/>
			</g>
			<g>
				<polygon class="st2" points="617.92,400.29 580.64,407.9 605.86,436.38 				"/>
				<path class="st2" d="M650.74,393.6l-32.82,6.69l25.22,28.48l10.61-31.77C654.4,395.09,652.72,393.2,650.74,393.6z"/>
				<polygon class="st3" points="605.86,436.38 643.14,428.78 617.92,400.29 				"/>
				<path class="st4" d="M580.64,407.9l37.28-7.6l-22.21-25.08c-1.34-1.51-3.82-1.01-4.46,0.91L580.64,407.9z"/>
			</g>
		</g>
		<g>
			<g>
				<polygon class="st2" points="964.5,172.1 994.04,157.91 966.98,139.43 				"/>
				<path class="st2" d="M938.5,184.6l26-12.49l-27.06-18.48l-2.18,28.77C935.13,184.12,936.93,185.35,938.5,184.6z"/>
				<polygon class="st3" points="966.98,139.43 937.44,153.62 964.5,172.1 				"/>
				<path class="st4" d="M994.04,157.91L964.5,172.1l23.82,16.27c1.44,0.98,3.4,0.04,3.53-1.7L994.04,157.91z"/>
			</g>
			<g>
				<polygon class="st2" points="937.92,211.02 908.38,225.21 935.44,243.7 				"/>
				<path class="st2" d="M963.92,198.53l-26,12.49l27.06,18.48l2.18-28.77C967.29,199,965.49,197.77,963.92,198.53z"/>
				<polygon class="st3" points="935.44,243.7 964.98,229.5 937.92,211.02 				"/>
				<path class="st4" d="M908.38,225.21l29.54-14.19l-23.82-16.27c-1.44-0.98-3.4-0.04-3.53,1.7L908.38,225.21z"/>
			</g>
		</g>
		<g>
			<g>
				<polygon class="st2" points="1301.92,10.28 1328.41,29.56 1331.87,-3.03 				"/>
				<path class="st2" d="M1278.59-6.7l23.33,16.98l3.45-32.59l-26.37,11.71C1277.42-9.89,1277.19-7.72,1278.59-6.7z"/>
				<polygon class="st3" points="1331.87,-3.03 1305.37,-22.31 1301.92,10.28 				"/>
				<path class="st4" d="M1328.41,29.56l-26.49-19.28l-3.04,28.69c-0.18,1.73,1.58,3.01,3.17,2.31L1328.41,29.56z"/>
			</g>
			<g>
				<polygon class="st2" points="1255.05,5.31 1228.56,-13.97 1225.1,18.62 				"/>
				<path class="st2" d="M1278.38,22.29l-23.33-16.98l-3.45,32.59l26.37-11.71C1279.56,25.48,1279.79,23.31,1278.38,22.29z"/>
				<polygon class="st3" points="1225.1,18.62 1251.6,37.9 1255.05,5.31 				"/>
				<path class="st4" d="M1228.56-13.97l26.49,19.28l3.04-28.69c0.18-1.73-1.58-3.01-3.17-2.31L1228.56-13.97z"/>
			</g>
		</g>
		<g>
			<g>
				<polygon class="st2" points="649.94,26.87 683.65,-10.49 634.45,-21 				"/>
				<path class="st2" d="M620.27,59.75l29.68-32.88l-49.2-10.51l13.64,42.14C615.21,61.04,618.48,61.74,620.27,59.75z"/>
				<polygon class="st3" points="634.45,-21 600.74,16.35 649.94,26.87 				"/>
				<path class="st4" d="M683.65-10.49l-33.71,37.35l43.32,9.26c2.62,0.56,4.86-1.92,4.03-4.47L683.65-10.49z"/>
			</g>
			<g>
				<polygon class="st2" points="634.82,97.63 601.11,134.98 650.32,145.5 				"/>
				<path class="st2" d="M664.5,64.74l-29.68,32.88l49.2,10.51L670.38,66C669.56,63.46,666.29,62.76,664.5,64.74z"/>
				<polygon class="st3" points="650.32,145.5 684.02,108.14 634.82,97.63 				"/>
				<path class="st4" d="M601.11,134.98l33.71-37.35l-43.32-9.26c-2.62-0.56-4.86,1.92-4.03,4.47L601.11,134.98z"/>
			</g>
		</g>
		<g>
			<g>
				<polygon class="st2" points="1080.72,384.52 1137.71,361.2 1089.02,323.51 				"/>
				<path class="st2" d="M1030.55,405.05l50.17-20.53l-48.69-37.69l-7.31,53.71C1024.29,403.79,1027.52,406.29,1030.55,405.05z"/>
				<polygon class="st3" points="1089.02,323.51 1032.03,346.83 1080.72,384.52 				"/>
				<path class="st4" d="M1137.71,361.2l-56.99,23.32l42.86,33.18c2.59,2,6.38,0.45,6.82-2.79L1137.71,361.2z"/>
			</g>
			<g>
				<polygon class="st2" points="1026.51,454.55 969.53,477.87 1018.22,515.56 				"/>
				<path class="st2" d="M1076.68,434.02l-50.17,20.53l48.69,37.69l7.31-53.71C1082.95,435.28,1079.71,432.78,1076.68,434.02z"/>
				<polygon class="st3" points="1018.22,515.56 1075.2,492.24 1026.51,454.55 				"/>
				<path class="st4" d="M969.53,477.87l56.99-23.32l-42.86-33.18c-2.59-2-6.38-0.45-6.82,2.79L969.53,477.87z"/>
			</g>
		</g>
		<g>
			<g>
				<polygon class="st2" points="1089.69,216.67 1055.85,185.02 1045.37,230.15 				"/>
				<path class="st2" d="M1119.49,244.53l-29.79-27.86l-10.48,45.13l39.02-11.87C1120.59,249.21,1121.29,246.21,1119.49,244.53z"/>
				<polygon class="st3" points="1045.37,230.15 1079.21,261.8 1089.69,216.67 				"/>
				<path class="st4" d="M1055.85,185.02l33.84,31.64l9.23-39.73c0.56-2.4-1.69-4.5-4.05-3.79L1055.85,185.02z"/>
			</g>
			<g>
				<polygon class="st2" points="1154.6,231.75 1188.44,263.39 1198.93,218.26 				"/>
				<path class="st2" d="M1124.81,203.89l29.79,27.86l10.48-45.13l-39.02,11.87C1123.7,199.21,1123.01,202.2,1124.81,203.89z"/>
				<polygon class="st3" points="1198.93,218.26 1165.08,186.62 1154.6,231.75 				"/>
				<path class="st4" d="M1188.44,263.39l-33.84-31.64l-9.23,39.73c-0.56,2.4,1.69,4.5,4.05,3.79L1188.44,263.39z"/>
			</g>
		</g>
		<g>
			<g>
				<polygon class="st2" points="392.15,331.19 385.71,291.79 354.81,317.07 				"/>
				<path class="st2" d="M397.83,365.87l-5.68-34.69l-30.9,25.28l32.88,12.43C396.12,369.65,398.18,367.97,397.83,365.87z"/>
				<polygon class="st3" points="354.81,317.07 361.26,356.47 392.15,331.19 				"/>
				<path class="st4" d="M385.71,291.79l6.45,39.4l27.2-22.26c1.64-1.34,1.21-3.96-0.77-4.71L385.71,291.79z"/>
			</g>
			<g>
				<polygon class="st2" points="428.52,375.62 434.97,415.02 465.86,389.74 				"/>
				<path class="st2" d="M422.84,340.94l5.68,34.69l30.9-25.28l-32.88-12.43C424.55,337.16,422.5,338.84,422.84,340.94z"/>
				<polygon class="st3" points="465.86,389.74 459.41,350.34 428.52,375.62 				"/>
				<path class="st4" d="M434.97,415.02l-6.45-39.4l-27.2,22.26c-1.64,1.34-1.21,3.96,0.77,4.71L434.97,415.02z"/>
			</g>
		</g>
		<g>
			<g>
				<polygon class="st2" points="225.73,399.95 205.64,360.13 181.2,397.44 				"/>
				<path class="st2" d="M243.42,435l-17.69-35.06l-24.44,37.31l39.2,2.21C242.86,439.6,244.49,437.12,243.42,435z"/>
				<polygon class="st3" points="181.2,397.44 201.29,437.26 225.73,399.95 				"/>
				<path class="st4" d="M205.64,360.13l20.09,39.82l21.52-32.85c1.3-1.98-0.04-4.63-2.4-4.76L205.64,360.13z"/>
			</g>
			<g>
				<polygon class="st2" points="279.39,435.1 299.48,474.92 323.92,437.61 				"/>
				<path class="st2" d="M261.7,400.04l17.69,35.06l24.44-37.31l-39.2-2.21C262.26,395.45,260.63,397.92,261.7,400.04z"/>
				<polygon class="st3" points="323.92,437.61 303.83,397.79 279.39,435.1 				"/>
				<path class="st4" d="M299.48,474.92l-20.09-39.82l-21.52,32.85c-1.3,1.98,0.04,4.63,2.4,4.76L299.48,474.92z"/>
			</g>
		</g>
	</g>
</g>
<g>
	<defs>
		<ellipse id="SVGID_00000030462670179605744750000001459323658627446167_" cx="1399.46" cy="479.16" rx="33.87" ry="20.84"/>
	</defs>
	<clipPath id="SVGID_00000045608651333674483240000011612265228223759752_">
		<use xlink:href="#SVGID_00000030462670179605744750000001459323658627446167_"  style="overflow:visible;"/>
	</clipPath>
	<g style="clip-path:url(#SVGID_00000045608651333674483240000011612265228223759752_);">
		<g>
			<g>
				<polygon class="st2" points="81.72,33.72 41.78,-22.71 12.88,40.1 				"/>
				<path class="st2" d="M116.88,83.41L81.72,33.72l-28.9,62.8l60.6-5.61C117.08,90.58,119,86.41,116.88,83.41z"/>
				<polygon class="st3" points="12.88,40.1 52.82,96.53 81.72,33.72 				"/>
				<path class="st4" d="M41.78-22.71l39.94,56.43l25.45-55.29c1.54-3.34-1.12-7.09-4.78-6.75L41.78-22.71z"/>
			</g>
			<g>
				<polygon class="st2" points="172.04,75.29 211.98,131.72 240.88,68.92 				"/>
				<path class="st2" d="M136.88,25.61l35.16,49.68l28.9-62.8l-60.6,5.61C136.68,18.44,134.76,22.61,136.88,25.61z"/>
				<polygon class="st3" points="240.88,68.92 200.95,12.49 172.04,75.29 				"/>
				<path class="st4" d="M211.98,131.72l-39.94-56.43l-25.45,55.29c-1.54,3.34,1.12,7.09,4.78,6.75L211.98,131.72z"/>
			</g>
		</g>
		<g>
			<g>
				<polygon class="st2" points="78.23,189.43 70.4,153.85 43.5,178.43 				"/>
				<path class="st2" d="M85.13,220.76l-6.9-31.33l-26.9,24.58l30.58,9.69C83.76,224.29,85.55,222.65,85.13,220.76z"/>
				<polygon class="st3" points="43.5,178.43 51.33,214.01 78.23,189.43 				"/>
				<path class="st4" d="M70.4,153.85l7.84,35.59l23.68-21.64c1.43-1.31,0.91-3.67-0.94-4.26L70.4,153.85z"/>
			</g>
			<g>
				<polygon class="st2" points="113.58,228.12 121.42,263.71 148.32,239.13 				"/>
				<path class="st2" d="M106.68,196.79l6.9,31.33l26.9-24.58l-30.58-9.69C108.06,193.27,106.27,194.9,106.68,196.79z"/>
				<polygon class="st3" points="148.32,239.13 140.48,203.54 113.58,228.12 				"/>
				<path class="st4" d="M121.42,263.71l-7.84-35.59L89.9,249.76c-1.43,1.31-0.91,3.67,0.94,4.26L121.42,263.71z"/>
			</g>
		</g>
		<g>
			<g>
				<polygon class="st2" points="193.78,-70.76 168.09,-107.15 149.42,-66.71 				"/>
				<path class="st2" d="M216.39-38.72l-22.61-32.03l-18.67,40.44l39.05-3.57C216.52-34.1,217.76-36.79,216.39-38.72z"/>
				<polygon class="st3" points="149.42,-66.71 175.11,-30.32 193.78,-70.76 				"/>
				<path class="st4" d="M168.09-107.15l25.69,36.39l16.44-35.6c0.99-2.15-0.71-4.57-3.07-4.35L168.09-107.15z"/>
			</g>
			<g>
				<polygon class="st2" points="251.94,-43.91 277.63,-7.52 296.29,-47.96 				"/>
				<path class="st2" d="M229.32-75.94l22.61,32.03l18.67-40.44l-39.05,3.57C229.2-80.57,227.96-77.88,229.32-75.94z"/>
				<polygon class="st3" points="296.29,-47.96 270.61,-84.35 251.94,-43.91 				"/>
				<path class="st4" d="M277.63-7.52l-25.69-36.39L235.5-8.31c-0.99,2.15,0.71,4.57,3.07,4.35L277.63-7.52z"/>
			</g>
		</g>
		<g>
			<g>
				<polygon class="st2" points="32.71,425.32 -22.17,438.82 16.96,479.6 				"/>
				<path class="st2" d="M81.02,413.44l-48.32,11.88l39.13,40.78l13.87-47.78C86.54,415.43,83.94,412.72,81.02,413.44z"/>
				<polygon class="st3" points="16.96,479.6 71.84,466.1 32.71,425.32 				"/>
				<path class="st4" d="M-22.17,438.82l54.88-13.5l-34.45-35.9c-2.08-2.17-5.73-1.27-6.56,1.61L-22.17,438.82z"/>
			</g>
			<g>
				<polygon class="st2" points="91.36,369.04 146.24,355.55 107.11,314.77 				"/>
				<path class="st2" d="M43.04,380.93l48.32-11.88l-39.13-40.78l-13.87,47.78C37.52,378.94,40.12,381.65,43.04,380.93z"/>
				<polygon class="st3" points="107.11,314.77 52.23,328.26 91.36,369.04 				"/>
				<path class="st4" d="M146.24,355.55l-54.88,13.5l34.45,35.9c2.08,2.17,5.73,1.27,6.56-1.61L146.24,355.55z"/>
			</g>
		</g>
		<g>
			<g>
				<polygon class="st2" points="504.58,174.42 508.72,113.1 453.54,140.18 				"/>
				<path class="st2" d="M500.93,228.41l3.65-53.99L449.4,201.5l44.93,30.15C497.04,233.47,500.71,231.67,500.93,228.41z"/>
				<polygon class="st3" points="453.54,140.18 449.4,201.5 504.58,174.42 				"/>
				<path class="st4" d="M508.72,113.1l-4.14,61.32l48.58-23.84c2.93-1.44,3.21-5.51,0.5-7.34L508.72,113.1z"/>
			</g>
			<g>
				<polygon class="st2" points="543.52,253.78 539.37,315.11 594.55,288.03 				"/>
				<path class="st2" d="M547.16,199.8l-3.65,53.99l55.18-27.08l-44.93-30.15C551.05,194.74,547.38,196.53,547.16,199.8z"/>
				<polygon class="st3" points="594.55,288.03 598.69,226.71 543.52,253.78 				"/>
				<path class="st4" d="M539.37,315.11l4.14-61.32l-48.58,23.84c-2.93,1.44-3.21,5.51-0.5,7.34L539.37,315.11z"/>
			</g>
		</g>
		<g>
			<g>
				<polygon class="st2" points="360.28,68.59 360.25,36.29 332.29,52.47 				"/>
				<path class="st2" d="M360.31,97.03l-0.03-28.44l-27.96,16.18l24.64,14.19C358.45,99.82,360.31,98.74,360.31,97.03z"/>
				<polygon class="st3" points="332.29,52.47 332.32,84.77 360.28,68.59 				"/>
				<path class="st4" d="M360.25,36.29l0.03,32.3l24.61-14.24c1.49-0.86,1.48-3.01,0-3.86L360.25,36.29z"/>
			</g>
			<g>
				<polygon class="st2" points="383.55,108.8 383.58,141.1 411.54,124.92 				"/>
				<path class="st2" d="M383.52,80.36l0.03,28.44l27.96-16.18l-24.64-14.19C385.38,77.57,383.52,78.64,383.52,80.36z"/>
				<polygon class="st3" points="411.54,124.92 411.51,92.62 383.55,108.8 				"/>
				<path class="st4" d="M383.58,141.1l-0.03-32.3l-24.61,14.24c-1.49,0.86-1.48,3.01,0,3.86L383.58,141.1z"/>
			</g>
		</g>
		<g>
			<g>
				<polygon class="st2" points="285.58,218.23 321.75,205.6 292.73,180.59 				"/>
				<path class="st2" d="M253.74,229.35l31.84-11.12l-29.02-25.01l-6.29,33.14C249.89,228.36,251.82,230.02,253.74,229.35z"/>
				<polygon class="st3" points="292.73,180.59 256.56,193.22 285.58,218.23 				"/>
				<path class="st4" d="M321.75,205.6l-36.17,12.63l25.55,22.02c1.54,1.33,3.95,0.49,4.33-1.51L321.75,205.6z"/>
			</g>
			<g>
				<polygon class="st2" points="249.61,259.97 213.45,272.6 242.47,297.61 				"/>
				<path class="st2" d="M281.46,248.85l-31.84,11.12l29.02,25.01l6.29-33.14C285.31,249.84,283.38,248.18,281.46,248.85z"/>
				<polygon class="st3" points="242.47,297.61 278.64,284.98 249.61,259.97 				"/>
				<path class="st4" d="M213.45,272.6l36.17-12.63l-25.55-22.02c-1.54-1.33-3.95-0.49-4.33,1.51L213.45,272.6z"/>
			</g>
		</g>
		<g>
			<g>
				<polygon class="st2" points="807.37,50.56 834.43,35.99 808.29,19.84 				"/>
				<path class="st2" d="M783.54,63.38l23.83-12.82L781.22,34.4l-0.81,27.05C780.37,63.08,782.1,64.16,783.54,63.38z"/>
				<polygon class="st3" points="808.29,19.84 781.22,34.4 807.37,50.56 				"/>
				<path class="st4" d="M834.43,35.99l-27.06,14.57l23.02,14.22c1.39,0.86,3.19-0.11,3.24-1.74L834.43,35.99z"/>
			</g>
			<g>
				<polygon class="st2" points="784.13,88.16 757.07,102.73 783.21,118.89 				"/>
				<path class="st2" d="M807.96,75.34l-23.83,12.82l26.15,16.16l0.81-27.05C811.14,75.64,809.4,74.57,807.96,75.34z"/>
				<polygon class="st3" points="783.21,118.89 810.28,104.32 784.13,88.16 				"/>
				<path class="st4" d="M757.07,102.73l27.06-14.57l-23.02-14.22c-1.39-0.86-3.19,0.11-3.24,1.74L757.07,102.73z"/>
			</g>
		</g>
		<g>
			<g>
				<polygon class="st2" points="486.97,-18.63 494.81,-48.34 465.15,-40.28 				"/>
				<path class="st2" d="M480.06,7.54l6.91-26.16l-29.66,8.06l19.2,19.06C477.67,9.65,479.64,9.12,480.06,7.54z"/>
				<polygon class="st3" points="465.15,-40.28 457.31,-10.56 486.97,-18.63 				"/>
				<path class="st4" d="M494.81-48.34l-7.85,29.72l26.11-7.1c1.58-0.43,2.1-2.4,0.94-3.55L494.81-48.34z"/>
			</g>
			<g>
				<polygon class="st2" points="498.56,24.03 490.72,53.75 520.38,45.68 				"/>
				<path class="st2" d="M505.47-2.13l-6.91,26.16l29.66-8.06L509.02-3.1C507.86-4.25,505.89-3.71,505.47-2.13z"/>
				<polygon class="st3" points="520.38,45.68 528.22,15.97 498.56,24.03 				"/>
				<path class="st4" d="M490.72,53.75l7.85-29.72l-26.11,7.1c-1.58,0.43-2.1,2.4-0.94,3.55L490.72,53.75z"/>
			</g>
		</g>
		<g>
			<g>
				<polygon class="st2" points="518.8,492.1 561.87,470.81 521.89,444.16 				"/>
				<path class="st2" d="M480.88,510.85l37.92-18.75l-39.98-26.65l-2.72,42.21C475.94,510.21,478.59,511.98,480.88,510.85z"/>
				<polygon class="st3" points="521.89,444.16 478.82,465.45 518.8,492.1 				"/>
				<path class="st4" d="M561.87,470.81l-43.07,21.3l35.19,23.46c2.13,1.42,4.99,0,5.15-2.55L561.87,470.81z"/>
			</g>
			<g>
				<polygon class="st2" points="480.47,549.6 437.4,570.89 477.38,597.54 				"/>
				<path class="st2" d="M518.39,530.85l-37.92,18.75l39.98,26.65l2.72-42.21C523.33,531.49,520.68,529.72,518.39,530.85z"/>
				<polygon class="st3" points="477.38,597.54 520.45,576.25 480.47,549.6 				"/>
				<path class="st4" d="M437.4,570.89l43.07-21.3l-35.19-23.46c-2.13-1.42-4.99,0-5.15,2.55L437.4,570.89z"/>
			</g>
		</g>
		<g>
			<g>
				<polygon class="st2" points="845.16,363.75 901.03,322.73 837.57,294.85 				"/>
				<path class="st2" d="M795.96,399.87l49.19-36.12l-63.47-27.88l6.68,60.66C788.77,400.19,792.99,402.05,795.96,399.87z"/>
				<polygon class="st3" points="837.57,294.85 781.69,335.87 845.16,363.75 				"/>
				<path class="st4" d="M901.03,322.73l-55.88,41.02l55.87,24.55c3.37,1.48,7.09-1.24,6.68-4.91L901.03,322.73z"/>
			</g>
			<g>
				<polygon class="st2" points="805.06,455.03 749.18,496.05 812.65,523.93 				"/>
				<path class="st2" d="M854.25,418.91l-49.19,36.12l63.47,27.88l-6.68-60.66C861.44,418.58,857.22,416.73,854.25,418.91z"/>
				<polygon class="st3" points="812.65,523.93 868.52,482.91 805.06,455.03 				"/>
				<path class="st4" d="M749.18,496.05l55.88-41.02l-55.87-24.55c-3.37-1.48-7.09,1.24-6.68,4.91L749.18,496.05z"/>
			</g>
		</g>
		<g>
			<g>
				<polygon class="st2" points="934.95,-26.41 963.93,-63.98 916.91,-70.29 				"/>
				<path class="st2" d="M909.44,6.66l25.51-33.08l-47.03-6.31l15.89,38.63C904.77,8.24,907.9,8.66,909.44,6.66z"/>
				<polygon class="st3" points="916.91,-70.29 887.93,-32.72 934.95,-26.41 				"/>
				<path class="st4" d="M963.93-63.98l-28.98,37.57l41.4,5.56c2.5,0.34,4.43-2.16,3.47-4.49L963.93-63.98z"/>
			</g>
			<g>
				<polygon class="st2" points="925.87,41.22 896.89,78.79 943.92,85.1 				"/>
				<path class="st2" d="M951.39,8.15l-25.51,33.08l47.03,6.31L957.01,8.9C956.05,6.57,952.93,6.15,951.39,8.15z"/>
				<polygon class="st3" points="943.92,85.1 972.9,47.54 925.87,41.22 				"/>
				<path class="st4" d="M896.89,78.79l28.98-37.57l-41.4-5.56c-2.5-0.34-4.43,2.16-3.47,4.49L896.89,78.79z"/>
			</g>
		</g>
		<g>
			<g>
				<polygon class="st2" points="1083.2,5.66 1074.5,-47.78 1032.57,-13.53 				"/>
				<path class="st2" d="M1090.85,52.7l-7.65-47.05l-41.93,34.25l44.57,16.89C1088.53,57.82,1091.32,55.55,1090.85,52.7z"/>
				<polygon class="st3" points="1032.57,-13.53 1041.27,39.91 1083.2,5.66 				"/>
				<path class="st4" d="M1074.5-47.78l8.69,53.44l36.92-30.15c2.23-1.82,1.65-5.37-1.04-6.39L1074.5-47.78z"/>
			</g>
			<g>
				<polygon class="st2" points="1132.46,65.97 1141.15,119.4 1183.08,85.15 				"/>
				<path class="st2" d="M1124.8,18.92l7.65,47.05l41.93-34.25l-44.57-16.89C1127.13,13.8,1124.34,16.08,1124.8,18.92z"/>
				<polygon class="st3" points="1183.08,85.15 1174.39,31.72 1132.46,65.97 				"/>
				<path class="st4" d="M1141.15,119.4l-8.69-53.44l-36.92,30.15c-2.23,1.82-1.65,5.37,1.04,6.39L1141.15,119.4z"/>
			</g>
		</g>
		<g>
			<g>
				<polygon class="st2" points="1294.54,233.76 1247.25,284.23 1314.61,299.94 				"/>
				<path class="st2" d="M1336.16,189.32l-41.63,44.44l67.36,15.71l-17.67-58.27C1343.15,187.68,1338.68,186.63,1336.16,189.32z"/>
				<polygon class="st3" points="1314.61,299.94 1361.89,249.47 1294.54,233.76 				"/>
				<path class="st4" d="M1247.25,284.23l47.28-50.48l-59.3-13.83c-3.58-0.84-6.72,2.52-5.66,6.04L1247.25,284.23z"/>
			</g>
			<g>
				<polygon class="st2" points="1317.13,136.88 1364.42,86.4 1297.06,70.69 				"/>
				<path class="st2" d="M1275.5,181.32l41.63-44.44l-67.36-15.71l17.67,58.27C1268.51,182.96,1272.99,184,1275.5,181.32z"/>
				<polygon class="st3" points="1297.06,70.69 1249.77,121.17 1317.13,136.88 				"/>
				<path class="st4" d="M1364.42,86.4l-47.28,50.48l59.3,13.83c3.58,0.84,6.72-2.52,5.66-6.04L1364.42,86.4z"/>
			</g>
		</g>
		<g>
			<g>
				<polygon class="st2" points="1505.64,185.42 1541.6,179.23 1518.26,151.18 				"/>
				<path class="st2" d="M1473.99,190.87l31.66-5.45l-23.34-28.04l-11.11,30.14C1470.52,189.33,1472.07,191.2,1473.99,190.87z"/>
				<polygon class="st3" points="1518.26,151.18 1482.3,157.37 1505.64,185.42 				"/>
				<path class="st4" d="M1541.6,179.23l-35.96,6.19l20.55,24.69c1.24,1.49,3.63,1.08,4.3-0.74L1541.6,179.23z"/>
			</g>
			<g>
				<polygon class="st2" points="1465.31,218.99 1429.35,225.18 1452.69,253.22 				"/>
				<path class="st2" d="M1496.96,213.54l-31.66,5.45l23.34,28.04l11.11-30.14C1500.43,215.07,1498.88,213.21,1496.96,213.54z"/>
				<polygon class="st3" points="1452.69,253.22 1488.65,247.03 1465.31,218.99 				"/>
				<path class="st4" d="M1429.35,225.18l35.96-6.19l-20.55-24.69c-1.24-1.49-3.63-1.08-4.3,0.74L1429.35,225.18z"/>
			</g>
		</g>
		<g>
			<g>
				<polygon class="st2" points="1426.61,366.4 1448.42,309.95 1388.64,319.29 				"/>
				<path class="st2" d="M1407.41,416.09l19.2-49.69l-59.79,9.33l33.43,41.47C1402.28,419.71,1406.25,419.09,1407.41,416.09z"/>
				<polygon class="st3" points="1388.64,319.29 1366.83,375.73 1426.61,366.4 				"/>
				<path class="st4" d="M1448.42,309.95l-21.81,56.44l52.63-8.22c3.18-0.5,4.63-4.25,2.61-6.75L1448.42,309.95z"/>
			</g>
			<g>
				<polygon class="st2" points="1440.04,452.38 1418.23,508.82 1478.02,499.49 				"/>
				<path class="st2" d="M1459.24,402.69l-19.2,49.69l59.79-9.33l-33.43-41.47C1464.37,399.07,1460.4,399.69,1459.24,402.69z"/>
				<polygon class="st3" points="1478.02,499.49 1499.82,443.05 1440.04,452.38 				"/>
				<path class="st4" d="M1418.23,508.82l21.81-56.44l-52.63,8.22c-3.18,0.5-4.63,4.25-2.61,6.75L1418.23,508.82z"/>
			</g>
		</g>
		<g>
			<g>
				<polygon class="st2" points="1471.28,42.76 1412.79,27.26 1428.61,85.66 				"/>
				<path class="st2" d="M1522.77,56.4l-51.49-13.65l15.82,58.4l37.56-37.77C1526.94,61.11,1525.88,57.23,1522.77,56.4z"/>
				<polygon class="st3" points="1428.61,85.66 1487.1,101.16 1471.28,42.76 				"/>
				<path class="st4" d="M1412.79,27.26l58.49,15.5l-13.93-51.42c-0.84-3.11-4.73-4.14-7-1.85L1412.79,27.26z"/>
			</g>
			<g>
				<polygon class="st2" points="1555.28,20 1613.77,35.5 1597.95,-22.9 				"/>
				<path class="st2" d="M1503.78,6.36L1555.28,20l-15.82-58.4l-37.56,37.77C1499.62,1.65,1500.67,5.53,1503.78,6.36z"/>
				<polygon class="st3" points="1597.95,-22.9 1539.46,-38.4 1555.28,20 				"/>
				<path class="st4" d="M1613.77,35.5L1555.28,20l13.93,51.42c0.84,3.11,4.73,4.14,7,1.85L1613.77,35.5z"/>
			</g>
		</g>
		<g>
			<g>
				<polygon class="st2" points="1550.15,329.78 1518.63,344.77 1547.38,364.56 				"/>
				<path class="st2" d="M1577.89,316.57l-27.74,13.2l28.74,19.79l2.44-30.63C1581.47,317.09,1579.56,315.78,1577.89,316.57z"/>
				<polygon class="st3" points="1547.38,364.56 1578.89,349.57 1550.15,329.78 				"/>
				<path class="st4" d="M1518.63,344.77l31.51-15l-25.3-17.42c-1.53-1.05-3.62-0.06-3.77,1.79L1518.63,344.77z"/>
			</g>
			<g>
				<polygon class="st2" points="1578.61,288.44 1610.12,273.44 1581.38,253.65 				"/>
				<path class="st2" d="M1550.87,301.64l27.74-13.2l-28.74-19.79l-2.44,30.63C1547.28,301.12,1549.19,302.44,1550.87,301.64z"/>
				<polygon class="st3" points="1581.38,253.65 1549.87,268.64 1578.61,288.44 				"/>
				<path class="st4" d="M1610.12,273.44l-31.51,15l25.3,17.42c1.53,1.05,3.62,0.06,3.77-1.79L1610.12,273.44z"/>
			</g>
		</g>
		<g>
			<g>
				<polygon class="st2" points="1241.64,397.47 1259.31,362.4 1220.11,364.64 				"/>
				<path class="st2" d="M1226.09,428.34l15.55-30.87l-39.2,2.23l18.96,28.9C1222.55,430.35,1225.15,430.2,1226.09,428.34z"/>
				<polygon class="st3" points="1220.11,364.64 1202.44,399.7 1241.64,397.47 				"/>
				<path class="st4" d="M1259.31,362.4l-17.67,35.06l34.51-1.97c2.08-0.12,3.26-2.45,2.11-4.19L1259.31,362.4z"/>
			</g>
			<g>
				<polygon class="st2" points="1244.85,453.85 1227.19,488.91 1266.39,486.68 				"/>
				<path class="st2" d="M1260.41,422.98l-15.55,30.87l39.2-2.23l-18.96-28.9C1263.95,420.96,1261.35,421.11,1260.41,422.98z"/>
				<polygon class="st3" points="1266.39,486.68 1284.05,451.61 1244.85,453.85 				"/>
				<path class="st4" d="M1227.19,488.91l17.67-35.06l-34.51,1.97c-2.08,0.12-3.26,2.45-2.11,4.19L1227.19,488.91z"/>
			</g>
		</g>
		<g>
			<g>
				<polygon class="st2" points="803.79,219.48 844.25,235.08 837.52,192.25 				"/>
				<path class="st2" d="M768.18,205.75l35.61,13.73l-6.72-42.83l-29.7,23.98C765.58,202.08,766.03,204.93,768.18,205.75z"/>
				<polygon class="st3" points="837.52,192.25 797.07,176.65 803.79,219.48 				"/>
				<path class="st4" d="M844.25,235.08l-40.45-15.59l5.92,37.71c0.36,2.28,3.05,3.31,4.84,1.87L844.25,235.08z"/>
			</g>
			<g>
				<polygon class="st2" points="742.19,229.15 701.74,213.56 708.46,256.39 				"/>
				<path class="st2" d="M777.81,242.88l-35.61-13.73l6.72,42.83l29.7-23.98C780.4,246.56,779.96,243.71,777.81,242.88z"/>
				<polygon class="st3" points="708.46,256.39 748.91,271.98 742.19,229.15 				"/>
				<path class="st4" d="M701.74,213.56l40.45,15.59l-5.92-37.71c-0.36-2.28-3.05-3.31-4.84-1.87L701.74,213.56z"/>
			</g>
		</g>
		<g>
			<g>
				<polygon class="st2" points="658.88,364.02 696.16,356.41 670.94,327.93 				"/>
				<path class="st2" d="M626.06,370.71l32.82-6.69l-25.22-28.48l-10.61,31.77C622.41,369.22,624.08,371.11,626.06,370.71z"/>
				<polygon class="st3" points="670.94,327.93 633.66,335.53 658.88,364.02 				"/>
				<path class="st4" d="M696.16,356.41l-37.28,7.6l22.21,25.08c1.34,1.51,3.82,1.01,4.46-0.91L696.16,356.41z"/>
			</g>
			<g>
				<polygon class="st2" points="617.92,400.29 580.64,407.9 605.86,436.38 				"/>
				<path class="st2" d="M650.74,393.6l-32.82,6.69l25.22,28.48l10.61-31.77C654.4,395.09,652.72,393.2,650.74,393.6z"/>
				<polygon class="st3" points="605.86,436.38 643.14,428.78 617.92,400.29 				"/>
				<path class="st4" d="M580.64,407.9l37.28-7.6l-22.21-25.08c-1.34-1.51-3.82-1.01-4.46,0.91L580.64,407.9z"/>
			</g>
		</g>
		<g>
			<g>
				<polygon class="st2" points="964.5,172.1 994.04,157.91 966.98,139.43 				"/>
				<path class="st2" d="M938.5,184.6l26-12.49l-27.06-18.48l-2.18,28.77C935.13,184.12,936.93,185.35,938.5,184.6z"/>
				<polygon class="st3" points="966.98,139.43 937.44,153.62 964.5,172.1 				"/>
				<path class="st4" d="M994.04,157.91L964.5,172.1l23.82,16.27c1.44,0.98,3.4,0.04,3.53-1.7L994.04,157.91z"/>
			</g>
			<g>
				<polygon class="st2" points="937.92,211.02 908.38,225.21 935.44,243.7 				"/>
				<path class="st2" d="M963.92,198.53l-26,12.49l27.06,18.48l2.18-28.77C967.29,199,965.49,197.77,963.92,198.53z"/>
				<polygon class="st3" points="935.44,243.7 964.98,229.5 937.92,211.02 				"/>
				<path class="st4" d="M908.38,225.21l29.54-14.19l-23.82-16.27c-1.44-0.98-3.4-0.04-3.53,1.7L908.38,225.21z"/>
			</g>
		</g>
		<g>
			<g>
				<polygon class="st2" points="1301.92,10.28 1328.41,29.56 1331.87,-3.03 				"/>
				<path class="st2" d="M1278.59-6.7l23.33,16.98l3.45-32.59l-26.37,11.71C1277.42-9.89,1277.19-7.72,1278.59-6.7z"/>
				<polygon class="st3" points="1331.87,-3.03 1305.37,-22.31 1301.92,10.28 				"/>
				<path class="st4" d="M1328.41,29.56l-26.49-19.28l-3.04,28.69c-0.18,1.73,1.58,3.01,3.17,2.31L1328.41,29.56z"/>
			</g>
			<g>
				<polygon class="st2" points="1255.05,5.31 1228.56,-13.97 1225.1,18.62 				"/>
				<path class="st2" d="M1278.38,22.29l-23.33-16.98l-3.45,32.59l26.37-11.71C1279.56,25.48,1279.79,23.31,1278.38,22.29z"/>
				<polygon class="st3" points="1225.1,18.62 1251.6,37.9 1255.05,5.31 				"/>
				<path class="st4" d="M1228.56-13.97l26.49,19.28l3.04-28.69c0.18-1.73-1.58-3.01-3.17-2.31L1228.56-13.97z"/>
			</g>
		</g>
		<g>
			<g>
				<polygon class="st2" points="649.94,26.87 683.65,-10.49 634.45,-21 				"/>
				<path class="st2" d="M620.27,59.75l29.68-32.88l-49.2-10.51l13.64,42.14C615.21,61.04,618.48,61.74,620.27,59.75z"/>
				<polygon class="st3" points="634.45,-21 600.74,16.35 649.94,26.87 				"/>
				<path class="st4" d="M683.65-10.49l-33.71,37.35l43.32,9.26c2.62,0.56,4.86-1.92,4.03-4.47L683.65-10.49z"/>
			</g>
			<g>
				<polygon class="st2" points="634.82,97.63 601.11,134.98 650.32,145.5 				"/>
				<path class="st2" d="M664.5,64.74l-29.68,32.88l49.2,10.51L670.38,66C669.56,63.46,666.29,62.76,664.5,64.74z"/>
				<polygon class="st3" points="650.32,145.5 684.02,108.14 634.82,97.63 				"/>
				<path class="st4" d="M601.11,134.98l33.71-37.35l-43.32-9.26c-2.62-0.56-4.86,1.92-4.03,4.47L601.11,134.98z"/>
			</g>
		</g>
		<g>
			<g>
				<polygon class="st2" points="1080.72,384.52 1137.71,361.2 1089.02,323.51 				"/>
				<path class="st2" d="M1030.55,405.05l50.17-20.53l-48.69-37.69l-7.31,53.71C1024.29,403.79,1027.52,406.29,1030.55,405.05z"/>
				<polygon class="st3" points="1089.02,323.51 1032.03,346.83 1080.72,384.52 				"/>
				<path class="st4" d="M1137.71,361.2l-56.99,23.32l42.86,33.18c2.59,2,6.38,0.45,6.82-2.79L1137.71,361.2z"/>
			</g>
			<g>
				<polygon class="st2" points="1026.51,454.55 969.53,477.87 1018.22,515.56 				"/>
				<path class="st2" d="M1076.68,434.02l-50.17,20.53l48.69,37.69l7.31-53.71C1082.95,435.28,1079.71,432.78,1076.68,434.02z"/>
				<polygon class="st3" points="1018.22,515.56 1075.2,492.24 1026.51,454.55 				"/>
				<path class="st4" d="M969.53,477.87l56.99-23.32l-42.86-33.18c-2.59-2-6.38-0.45-6.82,2.79L969.53,477.87z"/>
			</g>
		</g>
		<g>
			<g>
				<polygon class="st2" points="1089.69,216.67 1055.85,185.02 1045.37,230.15 				"/>
				<path class="st2" d="M1119.49,244.53l-29.79-27.86l-10.48,45.13l39.02-11.87C1120.59,249.21,1121.29,246.21,1119.49,244.53z"/>
				<polygon class="st3" points="1045.37,230.15 1079.21,261.8 1089.69,216.67 				"/>
				<path class="st4" d="M1055.85,185.02l33.84,31.64l9.23-39.73c0.56-2.4-1.69-4.5-4.05-3.79L1055.85,185.02z"/>
			</g>
			<g>
				<polygon class="st2" points="1154.6,231.75 1188.44,263.39 1198.93,218.26 				"/>
				<path class="st2" d="M1124.81,203.89l29.79,27.86l10.48-45.13l-39.02,11.87C1123.7,199.21,1123.01,202.2,1124.81,203.89z"/>
				<polygon class="st3" points="1198.93,218.26 1165.08,186.62 1154.6,231.75 				"/>
				<path class="st4" d="M1188.44,263.39l-33.84-31.64l-9.23,39.73c-0.56,2.4,1.69,4.5,4.05,3.79L1188.44,263.39z"/>
			</g>
		</g>
		<g>
			<g>
				<polygon class="st2" points="392.15,331.19 385.71,291.79 354.81,317.07 				"/>
				<path class="st2" d="M397.83,365.87l-5.68-34.69l-30.9,25.28l32.88,12.43C396.12,369.65,398.18,367.97,397.83,365.87z"/>
				<polygon class="st3" points="354.81,317.07 361.26,356.47 392.15,331.19 				"/>
				<path class="st4" d="M385.71,291.79l6.45,39.4l27.2-22.26c1.64-1.34,1.21-3.96-0.77-4.71L385.71,291.79z"/>
			</g>
			<g>
				<polygon class="st2" points="428.52,375.62 434.97,415.02 465.86,389.74 				"/>
				<path class="st2" d="M422.84,340.94l5.68,34.69l30.9-25.28l-32.88-12.43C424.55,337.16,422.5,338.84,422.84,340.94z"/>
				<polygon class="st3" points="465.86,389.74 459.41,350.34 428.52,375.62 				"/>
				<path class="st4" d="M434.97,415.02l-6.45-39.4l-27.2,22.26c-1.64,1.34-1.21,3.96,0.77,4.71L434.97,415.02z"/>
			</g>
		</g>
		<g>
			<g>
				<polygon class="st2" points="225.73,399.95 205.64,360.13 181.2,397.44 				"/>
				<path class="st2" d="M243.42,435l-17.69-35.06l-24.44,37.31l39.2,2.21C242.86,439.6,244.49,437.12,243.42,435z"/>
				<polygon class="st3" points="181.2,397.44 201.29,437.26 225.73,399.95 				"/>
				<path class="st4" d="M205.64,360.13l20.09,39.82l21.52-32.85c1.3-1.98-0.04-4.63-2.4-4.76L205.64,360.13z"/>
			</g>
			<g>
				<polygon class="st2" points="279.39,435.1 299.48,474.92 323.92,437.61 				"/>
				<path class="st2" d="M261.7,400.04l17.69,35.06l24.44-37.31l-39.2-2.21C262.26,395.45,260.63,397.92,261.7,400.04z"/>
				<polygon class="st3" points="323.92,437.61 303.83,397.79 279.39,435.1 				"/>
				<path class="st4" d="M299.48,474.92l-20.09-39.82l-21.52,32.85c-1.3,1.98,0.04,4.63,2.4,4.76L299.48,474.92z"/>
			</g>
		</g>
	</g>
</g>
<g>
	<defs>
		<path id="SVGID_00000090274458795081373680000006959819448448798082_" d="M1600,24.84v428.52c0,8.31-4.08,15.66-10.34,20.17
			c-2.4,1.73-5.84,0.86-6.95-1.88c-3.92-9.72-16.41-16.83-31.21-16.83c-9.47,0-17.99,2.91-23.93,7.55
			c-1.91,1.49-4.64,1.25-6.24-0.56c-7.66-8.68-21.22-14.45-36.68-14.45c-13.95,0-26.37,4.71-34.28,12.01
			c-1.84,1.7-4.72,1.55-6.42-0.29c-9.32-10.07-25.83-16.76-44.62-16.76c-27.05,0-49.35,13.85-52.36,31.7
			c-0.4,2.39-2.49,4.14-4.91,4.14L24.83,478.2C11.12,478.2,0,467.08,0,453.36V24.84C0,11.12,11.12,0,24.83,0h1550.34
			C1588.88,0,1600,11.12,1600,24.84z"/>
	</defs>
	<clipPath id="SVGID_00000018955256369713775520000013847642989212690065_">
		<use xlink:href="#SVGID_00000090274458795081373680000006959819448448798082_"  style="overflow:visible;"/>
	</clipPath>
	<g style="clip-path:url(#SVGID_00000018955256369713775520000013847642989212690065_);">
		<g>
			<g>
				<polygon class="st2" points="81.72,33.72 41.78,-22.71 12.88,40.1 				"/>
				<path class="st2" d="M116.88,83.41L81.72,33.72l-28.9,62.8l60.6-5.61C117.08,90.58,119,86.41,116.88,83.41z"/>
				<polygon class="st3" points="12.88,40.1 52.82,96.53 81.72,33.72 				"/>
				<path class="st4" d="M41.78-22.71l39.94,56.43l25.45-55.29c1.54-3.34-1.12-7.09-4.78-6.75L41.78-22.71z"/>
			</g>
			<g>
				<polygon class="st2" points="172.04,75.29 211.98,131.72 240.88,68.92 				"/>
				<path class="st2" d="M136.88,25.61l35.16,49.68l28.9-62.8l-60.6,5.61C136.68,18.44,134.76,22.61,136.88,25.61z"/>
				<polygon class="st3" points="240.88,68.92 200.95,12.49 172.04,75.29 				"/>
				<path class="st4" d="M211.98,131.72l-39.94-56.43l-25.45,55.29c-1.54,3.34,1.12,7.09,4.78,6.75L211.98,131.72z"/>
			</g>
		</g>
		<g>
			<g>
				<polygon class="st2" points="78.23,189.43 70.4,153.85 43.5,178.43 				"/>
				<path class="st2" d="M85.13,220.76l-6.9-31.33l-26.9,24.58l30.58,9.69C83.76,224.29,85.55,222.65,85.13,220.76z"/>
				<polygon class="st3" points="43.5,178.43 51.33,214.01 78.23,189.43 				"/>
				<path class="st4" d="M70.4,153.85l7.84,35.59l23.68-21.64c1.43-1.31,0.91-3.67-0.94-4.26L70.4,153.85z"/>
			</g>
			<g>
				<polygon class="st2" points="113.58,228.12 121.42,263.71 148.32,239.13 				"/>
				<path class="st2" d="M106.68,196.79l6.9,31.33l26.9-24.58l-30.58-9.69C108.06,193.27,106.27,194.9,106.68,196.79z"/>
				<polygon class="st3" points="148.32,239.13 140.48,203.54 113.58,228.12 				"/>
				<path class="st4" d="M121.42,263.71l-7.84-35.59L89.9,249.76c-1.43,1.31-0.91,3.67,0.94,4.26L121.42,263.71z"/>
			</g>
		</g>
		<g>
			<g>
				<polygon class="st2" points="193.78,-70.76 168.09,-107.15 149.42,-66.71 				"/>
				<path class="st2" d="M216.39-38.72l-22.61-32.03l-18.67,40.44l39.05-3.57C216.52-34.1,217.76-36.79,216.39-38.72z"/>
				<polygon class="st3" points="149.42,-66.71 175.11,-30.32 193.78,-70.76 				"/>
				<path class="st4" d="M168.09-107.15l25.69,36.39l16.44-35.6c0.99-2.15-0.71-4.57-3.07-4.35L168.09-107.15z"/>
			</g>
			<g>
				<polygon class="st2" points="251.94,-43.91 277.63,-7.52 296.29,-47.96 				"/>
				<path class="st2" d="M229.32-75.94l22.61,32.03l18.67-40.44l-39.05,3.57C229.2-80.57,227.96-77.88,229.32-75.94z"/>
				<polygon class="st3" points="296.29,-47.96 270.61,-84.35 251.94,-43.91 				"/>
				<path class="st4" d="M277.63-7.52l-25.69-36.39L235.5-8.31c-0.99,2.15,0.71,4.57,3.07,4.35L277.63-7.52z"/>
			</g>
		</g>
		<g>
			<g>
				<polygon class="st2" points="32.71,425.32 -22.17,438.82 16.96,479.6 				"/>
				<path class="st2" d="M81.02,413.44l-48.32,11.88l39.13,40.78l13.87-47.78C86.54,415.43,83.94,412.72,81.02,413.44z"/>
				<polygon class="st3" points="16.96,479.6 71.84,466.1 32.71,425.32 				"/>
				<path class="st4" d="M-22.17,438.82l54.88-13.5l-34.45-35.9c-2.08-2.17-5.73-1.27-6.56,1.61L-22.17,438.82z"/>
			</g>
			<g>
				<polygon class="st2" points="91.36,369.04 146.24,355.55 107.11,314.77 				"/>
				<path class="st2" d="M43.04,380.93l48.32-11.88l-39.13-40.78l-13.87,47.78C37.52,378.94,40.12,381.65,43.04,380.93z"/>
				<polygon class="st3" points="107.11,314.77 52.23,328.26 91.36,369.04 				"/>
				<path class="st4" d="M146.24,355.55l-54.88,13.5l34.45,35.9c2.08,2.17,5.73,1.27,6.56-1.61L146.24,355.55z"/>
			</g>
		</g>
		<g>
			<g>
				<polygon class="st2" points="504.58,174.42 508.72,113.1 453.54,140.18 				"/>
				<path class="st2" d="M500.93,228.41l3.65-53.99L449.4,201.5l44.93,30.15C497.04,233.47,500.71,231.67,500.93,228.41z"/>
				<polygon class="st3" points="453.54,140.18 449.4,201.5 504.58,174.42 				"/>
				<path class="st4" d="M508.72,113.1l-4.14,61.32l48.58-23.84c2.93-1.44,3.21-5.51,0.5-7.34L508.72,113.1z"/>
			</g>
			<g>
				<polygon class="st2" points="543.52,253.78 539.37,315.11 594.55,288.03 				"/>
				<path class="st2" d="M547.16,199.8l-3.65,53.99l55.18-27.08l-44.93-30.15C551.05,194.74,547.38,196.53,547.16,199.8z"/>
				<polygon class="st3" points="594.55,288.03 598.69,226.71 543.52,253.78 				"/>
				<path class="st4" d="M539.37,315.11l4.14-61.32l-48.58,23.84c-2.93,1.44-3.21,5.51-0.5,7.34L539.37,315.11z"/>
			</g>
		</g>
		<g>
			<g>
				<polygon class="st2" points="360.28,68.59 360.25,36.29 332.29,52.47 				"/>
				<path class="st2" d="M360.31,97.03l-0.03-28.44l-27.96,16.18l24.64,14.19C358.45,99.82,360.31,98.74,360.31,97.03z"/>
				<polygon class="st3" points="332.29,52.47 332.32,84.77 360.28,68.59 				"/>
				<path class="st4" d="M360.25,36.29l0.03,32.3l24.61-14.24c1.49-0.86,1.48-3.01,0-3.86L360.25,36.29z"/>
			</g>
			<g>
				<polygon class="st2" points="383.55,108.8 383.58,141.1 411.54,124.92 				"/>
				<path class="st2" d="M383.52,80.36l0.03,28.44l27.96-16.18l-24.64-14.19C385.38,77.57,383.52,78.64,383.52,80.36z"/>
				<polygon class="st3" points="411.54,124.92 411.51,92.62 383.55,108.8 				"/>
				<path class="st4" d="M383.58,141.1l-0.03-32.3l-24.61,14.24c-1.49,0.86-1.48,3.01,0,3.86L383.58,141.1z"/>
			</g>
		</g>
		<g>
			<g>
				<polygon class="st2" points="285.58,218.23 321.75,205.6 292.73,180.59 				"/>
				<path class="st2" d="M253.74,229.35l31.84-11.12l-29.02-25.01l-6.29,33.14C249.89,228.36,251.82,230.02,253.74,229.35z"/>
				<polygon class="st3" points="292.73,180.59 256.56,193.22 285.58,218.23 				"/>
				<path class="st4" d="M321.75,205.6l-36.17,12.63l25.55,22.02c1.54,1.33,3.95,0.49,4.33-1.51L321.75,205.6z"/>
			</g>
			<g>
				<polygon class="st2" points="249.61,259.97 213.45,272.6 242.47,297.61 				"/>
				<path class="st2" d="M281.46,248.85l-31.84,11.12l29.02,25.01l6.29-33.14C285.31,249.84,283.38,248.18,281.46,248.85z"/>
				<polygon class="st3" points="242.47,297.61 278.64,284.98 249.61,259.97 				"/>
				<path class="st4" d="M213.45,272.6l36.17-12.63l-25.55-22.02c-1.54-1.33-3.95-0.49-4.33,1.51L213.45,272.6z"/>
			</g>
		</g>
		<g>
			<g>
				<polygon class="st2" points="807.37,50.56 834.43,35.99 808.29,19.84 				"/>
				<path class="st2" d="M783.54,63.38l23.83-12.82L781.22,34.4l-0.81,27.05C780.37,63.08,782.1,64.16,783.54,63.38z"/>
				<polygon class="st3" points="808.29,19.84 781.22,34.4 807.37,50.56 				"/>
				<path class="st4" d="M834.43,35.99l-27.06,14.57l23.02,14.22c1.39,0.86,3.19-0.11,3.24-1.74L834.43,35.99z"/>
			</g>
			<g>
				<polygon class="st2" points="784.13,88.16 757.07,102.73 783.21,118.89 				"/>
				<path class="st2" d="M807.96,75.34l-23.83,12.82l26.15,16.16l0.81-27.05C811.14,75.64,809.4,74.57,807.96,75.34z"/>
				<polygon class="st3" points="783.21,118.89 810.28,104.32 784.13,88.16 				"/>
				<path class="st4" d="M757.07,102.73l27.06-14.57l-23.02-14.22c-1.39-0.86-3.19,0.11-3.24,1.74L757.07,102.73z"/>
			</g>
		</g>
		<g>
			<g>
				<polygon class="st2" points="486.97,-18.63 494.81,-48.34 465.15,-40.28 				"/>
				<path class="st2" d="M480.06,7.54l6.91-26.16l-29.66,8.06l19.2,19.06C477.67,9.65,479.64,9.12,480.06,7.54z"/>
				<polygon class="st3" points="465.15,-40.28 457.31,-10.56 486.97,-18.63 				"/>
				<path class="st4" d="M494.81-48.34l-7.85,29.72l26.11-7.1c1.58-0.43,2.1-2.4,0.94-3.55L494.81-48.34z"/>
			</g>
			<g>
				<polygon class="st2" points="498.56,24.03 490.72,53.75 520.38,45.68 				"/>
				<path class="st2" d="M505.47-2.13l-6.91,26.16l29.66-8.06L509.02-3.1C507.86-4.25,505.89-3.71,505.47-2.13z"/>
				<polygon class="st3" points="520.38,45.68 528.22,15.97 498.56,24.03 				"/>
				<path class="st4" d="M490.72,53.75l7.85-29.72l-26.11,7.1c-1.58,0.43-2.1,2.4-0.94,3.55L490.72,53.75z"/>
			</g>
		</g>
		<g>
			<g>
				<polygon class="st2" points="518.8,492.1 561.87,470.81 521.89,444.16 				"/>
				<path class="st2" d="M480.88,510.85l37.92-18.75l-39.98-26.65l-2.72,42.21C475.94,510.21,478.59,511.98,480.88,510.85z"/>
				<polygon class="st3" points="521.89,444.16 478.82,465.45 518.8,492.1 				"/>
				<path class="st4" d="M561.87,470.81l-43.07,21.3l35.19,23.46c2.13,1.42,4.99,0,5.15-2.55L561.87,470.81z"/>
			</g>
			<g>
				<polygon class="st2" points="480.47,549.6 437.4,570.89 477.38,597.54 				"/>
				<path class="st2" d="M518.39,530.85l-37.92,18.75l39.98,26.65l2.72-42.21C523.33,531.49,520.68,529.72,518.39,530.85z"/>
				<polygon class="st3" points="477.38,597.54 520.45,576.25 480.47,549.6 				"/>
				<path class="st4" d="M437.4,570.89l43.07-21.3l-35.19-23.46c-2.13-1.42-4.99,0-5.15,2.55L437.4,570.89z"/>
			</g>
		</g>
		<g>
			<g>
				<polygon class="st2" points="845.16,363.75 901.03,322.73 837.57,294.85 				"/>
				<path class="st2" d="M795.96,399.87l49.19-36.12l-63.47-27.88l6.68,60.66C788.77,400.19,792.99,402.05,795.96,399.87z"/>
				<polygon class="st3" points="837.57,294.85 781.69,335.87 845.16,363.75 				"/>
				<path class="st4" d="M901.03,322.73l-55.88,41.02l55.87,24.55c3.37,1.48,7.09-1.24,6.68-4.91L901.03,322.73z"/>
			</g>
			<g>
				<polygon class="st2" points="805.06,455.03 749.18,496.05 812.65,523.93 				"/>
				<path class="st2" d="M854.25,418.91l-49.19,36.12l63.47,27.88l-6.68-60.66C861.44,418.58,857.22,416.73,854.25,418.91z"/>
				<polygon class="st3" points="812.65,523.93 868.52,482.91 805.06,455.03 				"/>
				<path class="st4" d="M749.18,496.05l55.88-41.02l-55.87-24.55c-3.37-1.48-7.09,1.24-6.68,4.91L749.18,496.05z"/>
			</g>
		</g>
		<g>
			<g>
				<polygon class="st2" points="934.95,-26.41 963.93,-63.98 916.91,-70.29 				"/>
				<path class="st2" d="M909.44,6.66l25.51-33.08l-47.03-6.31l15.89,38.63C904.77,8.24,907.9,8.66,909.44,6.66z"/>
				<polygon class="st3" points="916.91,-70.29 887.93,-32.72 934.95,-26.41 				"/>
				<path class="st4" d="M963.93-63.98l-28.98,37.57l41.4,5.56c2.5,0.34,4.43-2.16,3.47-4.49L963.93-63.98z"/>
			</g>
			<g>
				<polygon class="st2" points="925.87,41.22 896.89,78.79 943.92,85.1 				"/>
				<path class="st2" d="M951.39,8.15l-25.51,33.08l47.03,6.31L957.01,8.9C956.05,6.57,952.93,6.15,951.39,8.15z"/>
				<polygon class="st3" points="943.92,85.1 972.9,47.54 925.87,41.22 				"/>
				<path class="st4" d="M896.89,78.79l28.98-37.57l-41.4-5.56c-2.5-0.34-4.43,2.16-3.47,4.49L896.89,78.79z"/>
			</g>
		</g>
		<g>
			<g>
				<polygon class="st2" points="1083.2,5.66 1074.5,-47.78 1032.57,-13.53 				"/>
				<path class="st2" d="M1090.85,52.7l-7.65-47.05l-41.93,34.25l44.57,16.89C1088.53,57.82,1091.32,55.55,1090.85,52.7z"/>
				<polygon class="st3" points="1032.57,-13.53 1041.27,39.91 1083.2,5.66 				"/>
				<path class="st4" d="M1074.5-47.78l8.69,53.44l36.92-30.15c2.23-1.82,1.65-5.37-1.04-6.39L1074.5-47.78z"/>
			</g>
			<g>
				<polygon class="st2" points="1132.46,65.97 1141.15,119.4 1183.08,85.15 				"/>
				<path class="st2" d="M1124.8,18.92l7.65,47.05l41.93-34.25l-44.57-16.89C1127.13,13.8,1124.34,16.08,1124.8,18.92z"/>
				<polygon class="st3" points="1183.08,85.15 1174.39,31.72 1132.46,65.97 				"/>
				<path class="st4" d="M1141.15,119.4l-8.69-53.44l-36.92,30.15c-2.23,1.82-1.65,5.37,1.04,6.39L1141.15,119.4z"/>
			</g>
		</g>
		<g>
			<g>
				<polygon class="st2" points="1294.54,233.76 1247.25,284.23 1314.61,299.94 				"/>
				<path class="st2" d="M1336.16,189.32l-41.63,44.44l67.36,15.71l-17.67-58.27C1343.15,187.68,1338.68,186.63,1336.16,189.32z"/>
				<polygon class="st3" points="1314.61,299.94 1361.89,249.47 1294.54,233.76 				"/>
				<path class="st4" d="M1247.25,284.23l47.28-50.48l-59.3-13.83c-3.58-0.84-6.72,2.52-5.66,6.04L1247.25,284.23z"/>
			</g>
			<g>
				<polygon class="st2" points="1317.13,136.88 1364.42,86.4 1297.06,70.69 				"/>
				<path class="st2" d="M1275.5,181.32l41.63-44.44l-67.36-15.71l17.67,58.27C1268.51,182.96,1272.99,184,1275.5,181.32z"/>
				<polygon class="st3" points="1297.06,70.69 1249.77,121.17 1317.13,136.88 				"/>
				<path class="st4" d="M1364.42,86.4l-47.28,50.48l59.3,13.83c3.58,0.84,6.72-2.52,5.66-6.04L1364.42,86.4z"/>
			</g>
		</g>
		<g>
			<g>
				<polygon class="st2" points="1505.64,185.42 1541.6,179.23 1518.26,151.18 				"/>
				<path class="st2" d="M1473.99,190.87l31.66-5.45l-23.34-28.04l-11.11,30.14C1470.52,189.33,1472.07,191.2,1473.99,190.87z"/>
				<polygon class="st3" points="1518.26,151.18 1482.3,157.37 1505.64,185.42 				"/>
				<path class="st4" d="M1541.6,179.23l-35.96,6.19l20.55,24.69c1.24,1.49,3.63,1.08,4.3-0.74L1541.6,179.23z"/>
			</g>
			<g>
				<polygon class="st2" points="1465.31,218.99 1429.35,225.18 1452.69,253.22 				"/>
				<path class="st2" d="M1496.96,213.54l-31.66,5.45l23.34,28.04l11.11-30.14C1500.43,215.07,1498.88,213.21,1496.96,213.54z"/>
				<polygon class="st3" points="1452.69,253.22 1488.65,247.03 1465.31,218.99 				"/>
				<path class="st4" d="M1429.35,225.18l35.96-6.19l-20.55-24.69c-1.24-1.49-3.63-1.08-4.3,0.74L1429.35,225.18z"/>
			</g>
		</g>
		<g>
			<g>
				<polygon class="st2" points="1426.61,366.4 1448.42,309.95 1388.64,319.29 				"/>
				<path class="st2" d="M1407.41,416.09l19.2-49.69l-59.79,9.33l33.43,41.47C1402.28,419.71,1406.25,419.09,1407.41,416.09z"/>
				<polygon class="st3" points="1388.64,319.29 1366.83,375.73 1426.61,366.4 				"/>
				<path class="st4" d="M1448.42,309.95l-21.81,56.44l52.63-8.22c3.18-0.5,4.63-4.25,2.61-6.75L1448.42,309.95z"/>
			</g>
			<g>
				<polygon class="st2" points="1440.04,452.38 1418.23,508.82 1478.02,499.49 				"/>
				<path class="st2" d="M1459.24,402.69l-19.2,49.69l59.79-9.33l-33.43-41.47C1464.37,399.07,1460.4,399.69,1459.24,402.69z"/>
				<polygon class="st3" points="1478.02,499.49 1499.82,443.05 1440.04,452.38 				"/>
				<path class="st4" d="M1418.23,508.82l21.81-56.44l-52.63,8.22c-3.18,0.5-4.63,4.25-2.61,6.75L1418.23,508.82z"/>
			</g>
		</g>
		<g>
			<g>
				<polygon class="st2" points="1471.28,42.76 1412.79,27.26 1428.61,85.66 				"/>
				<path class="st2" d="M1522.77,56.4l-51.49-13.65l15.82,58.4l37.56-37.77C1526.94,61.11,1525.88,57.23,1522.77,56.4z"/>
				<polygon class="st3" points="1428.61,85.66 1487.1,101.16 1471.28,42.76 				"/>
				<path class="st4" d="M1412.79,27.26l58.49,15.5l-13.93-51.42c-0.84-3.11-4.73-4.14-7-1.85L1412.79,27.26z"/>
			</g>
			<g>
				<polygon class="st2" points="1555.28,20 1613.77,35.5 1597.95,-22.9 				"/>
				<path class="st2" d="M1503.78,6.36L1555.28,20l-15.82-58.4l-37.56,37.77C1499.62,1.65,1500.67,5.53,1503.78,6.36z"/>
				<polygon class="st3" points="1597.95,-22.9 1539.46,-38.4 1555.28,20 				"/>
				<path class="st4" d="M1613.77,35.5L1555.28,20l13.93,51.42c0.84,3.11,4.73,4.14,7,1.85L1613.77,35.5z"/>
			</g>
		</g>
		<g>
			<g>
				<polygon class="st2" points="1550.15,329.78 1518.63,344.77 1547.38,364.56 				"/>
				<path class="st2" d="M1577.89,316.57l-27.74,13.2l28.74,19.79l2.44-30.63C1581.47,317.09,1579.56,315.78,1577.89,316.57z"/>
				<polygon class="st3" points="1547.38,364.56 1578.89,349.57 1550.15,329.78 				"/>
				<path class="st4" d="M1518.63,344.77l31.51-15l-25.3-17.42c-1.53-1.05-3.62-0.06-3.77,1.79L1518.63,344.77z"/>
			</g>
			<g>
				<polygon class="st2" points="1578.61,288.44 1610.12,273.44 1581.38,253.65 				"/>
				<path class="st2" d="M1550.87,301.64l27.74-13.2l-28.74-19.79l-2.44,30.63C1547.28,301.12,1549.19,302.44,1550.87,301.64z"/>
				<polygon class="st3" points="1581.38,253.65 1549.87,268.64 1578.61,288.44 				"/>
				<path class="st4" d="M1610.12,273.44l-31.51,15l25.3,17.42c1.53,1.05,3.62,0.06,3.77-1.79L1610.12,273.44z"/>
			</g>
		</g>
		<g>
			<g>
				<polygon class="st2" points="1241.64,397.47 1259.31,362.4 1220.11,364.64 				"/>
				<path class="st2" d="M1226.09,428.34l15.55-30.87l-39.2,2.23l18.96,28.9C1222.55,430.35,1225.15,430.2,1226.09,428.34z"/>
				<polygon class="st3" points="1220.11,364.64 1202.44,399.7 1241.64,397.47 				"/>
				<path class="st4" d="M1259.31,362.4l-17.67,35.06l34.51-1.97c2.08-0.12,3.26-2.45,2.11-4.19L1259.31,362.4z"/>
			</g>
			<g>
				<polygon class="st2" points="1244.85,453.85 1227.19,488.91 1266.39,486.68 				"/>
				<path class="st2" d="M1260.41,422.98l-15.55,30.87l39.2-2.23l-18.96-28.9C1263.95,420.96,1261.35,421.11,1260.41,422.98z"/>
				<polygon class="st3" points="1266.39,486.68 1284.05,451.61 1244.85,453.85 				"/>
				<path class="st4" d="M1227.19,488.91l17.67-35.06l-34.51,1.97c-2.08,0.12-3.26,2.45-2.11,4.19L1227.19,488.91z"/>
			</g>
		</g>
		<g>
			<g>
				<polygon class="st2" points="803.79,219.48 844.25,235.08 837.52,192.25 				"/>
				<path class="st2" d="M768.18,205.75l35.61,13.73l-6.72-42.83l-29.7,23.98C765.58,202.08,766.03,204.93,768.18,205.75z"/>
				<polygon class="st3" points="837.52,192.25 797.07,176.65 803.79,219.48 				"/>
				<path class="st4" d="M844.25,235.08l-40.45-15.59l5.92,37.71c0.36,2.28,3.05,3.31,4.84,1.87L844.25,235.08z"/>
			</g>
			<g>
				<polygon class="st2" points="742.19,229.15 701.74,213.56 708.46,256.39 				"/>
				<path class="st2" d="M777.81,242.88l-35.61-13.73l6.72,42.83l29.7-23.98C780.4,246.56,779.96,243.71,777.81,242.88z"/>
				<polygon class="st3" points="708.46,256.39 748.91,271.98 742.19,229.15 				"/>
				<path class="st4" d="M701.74,213.56l40.45,15.59l-5.92-37.71c-0.36-2.28-3.05-3.31-4.84-1.87L701.74,213.56z"/>
			</g>
		</g>
		<g>
			<g>
				<polygon class="st2" points="658.88,364.02 696.16,356.41 670.94,327.93 				"/>
				<path class="st2" d="M626.06,370.71l32.82-6.69l-25.22-28.48l-10.61,31.77C622.41,369.22,624.08,371.11,626.06,370.71z"/>
				<polygon class="st3" points="670.94,327.93 633.66,335.53 658.88,364.02 				"/>
				<path class="st4" d="M696.16,356.41l-37.28,7.6l22.21,25.08c1.34,1.51,3.82,1.01,4.46-0.91L696.16,356.41z"/>
			</g>
			<g>
				<polygon class="st2" points="617.92,400.29 580.64,407.9 605.86,436.38 				"/>
				<path class="st2" d="M650.74,393.6l-32.82,6.69l25.22,28.48l10.61-31.77C654.4,395.09,652.72,393.2,650.74,393.6z"/>
				<polygon class="st3" points="605.86,436.38 643.14,428.78 617.92,400.29 				"/>
				<path class="st4" d="M580.64,407.9l37.28-7.6l-22.21-25.08c-1.34-1.51-3.82-1.01-4.46,0.91L580.64,407.9z"/>
			</g>
		</g>
		<g>
			<g>
				<polygon class="st2" points="964.5,172.1 994.04,157.91 966.98,139.43 				"/>
				<path class="st2" d="M938.5,184.6l26-12.49l-27.06-18.48l-2.18,28.77C935.13,184.12,936.93,185.35,938.5,184.6z"/>
				<polygon class="st3" points="966.98,139.43 937.44,153.62 964.5,172.1 				"/>
				<path class="st4" d="M994.04,157.91L964.5,172.1l23.82,16.27c1.44,0.98,3.4,0.04,3.53-1.7L994.04,157.91z"/>
			</g>
			<g>
				<polygon class="st2" points="937.92,211.02 908.38,225.21 935.44,243.7 				"/>
				<path class="st2" d="M963.92,198.53l-26,12.49l27.06,18.48l2.18-28.77C967.29,199,965.49,197.77,963.92,198.53z"/>
				<polygon class="st3" points="935.44,243.7 964.98,229.5 937.92,211.02 				"/>
				<path class="st4" d="M908.38,225.21l29.54-14.19l-23.82-16.27c-1.44-0.98-3.4-0.04-3.53,1.7L908.38,225.21z"/>
			</g>
		</g>
		<g>
			<g>
				<polygon class="st2" points="1301.92,10.28 1328.41,29.56 1331.87,-3.03 				"/>
				<path class="st2" d="M1278.59-6.7l23.33,16.98l3.45-32.59l-26.37,11.71C1277.42-9.89,1277.19-7.72,1278.59-6.7z"/>
				<polygon class="st3" points="1331.87,-3.03 1305.37,-22.31 1301.92,10.28 				"/>
				<path class="st4" d="M1328.41,29.56l-26.49-19.28l-3.04,28.69c-0.18,1.73,1.58,3.01,3.17,2.31L1328.41,29.56z"/>
			</g>
			<g>
				<polygon class="st2" points="1255.05,5.31 1228.56,-13.97 1225.1,18.62 				"/>
				<path class="st2" d="M1278.38,22.29l-23.33-16.98l-3.45,32.59l26.37-11.71C1279.56,25.48,1279.79,23.31,1278.38,22.29z"/>
				<polygon class="st3" points="1225.1,18.62 1251.6,37.9 1255.05,5.31 				"/>
				<path class="st4" d="M1228.56-13.97l26.49,19.28l3.04-28.69c0.18-1.73-1.58-3.01-3.17-2.31L1228.56-13.97z"/>
			</g>
		</g>
		<g>
			<g>
				<polygon class="st2" points="649.94,26.87 683.65,-10.49 634.45,-21 				"/>
				<path class="st2" d="M620.27,59.75l29.68-32.88l-49.2-10.51l13.64,42.14C615.21,61.04,618.48,61.74,620.27,59.75z"/>
				<polygon class="st3" points="634.45,-21 600.74,16.35 649.94,26.87 				"/>
				<path class="st4" d="M683.65-10.49l-33.71,37.35l43.32,9.26c2.62,0.56,4.86-1.92,4.03-4.47L683.65-10.49z"/>
			</g>
			<g>
				<polygon class="st2" points="634.82,97.63 601.11,134.98 650.32,145.5 				"/>
				<path class="st2" d="M664.5,64.74l-29.68,32.88l49.2,10.51L670.38,66C669.56,63.46,666.29,62.76,664.5,64.74z"/>
				<polygon class="st3" points="650.32,145.5 684.02,108.14 634.82,97.63 				"/>
				<path class="st4" d="M601.11,134.98l33.71-37.35l-43.32-9.26c-2.62-0.56-4.86,1.92-4.03,4.47L601.11,134.98z"/>
			</g>
		</g>
		<g>
			<g>
				<polygon class="st2" points="1080.72,384.52 1137.71,361.2 1089.02,323.51 				"/>
				<path class="st2" d="M1030.55,405.05l50.17-20.53l-48.69-37.69l-7.31,53.71C1024.29,403.79,1027.52,406.29,1030.55,405.05z"/>
				<polygon class="st3" points="1089.02,323.51 1032.03,346.83 1080.72,384.52 				"/>
				<path class="st4" d="M1137.71,361.2l-56.99,23.32l42.86,33.18c2.59,2,6.38,0.45,6.82-2.79L1137.71,361.2z"/>
			</g>
			<g>
				<polygon class="st2" points="1026.51,454.55 969.53,477.87 1018.22,515.56 				"/>
				<path class="st2" d="M1076.68,434.02l-50.17,20.53l48.69,37.69l7.31-53.71C1082.95,435.28,1079.71,432.78,1076.68,434.02z"/>
				<polygon class="st3" points="1018.22,515.56 1075.2,492.24 1026.51,454.55 				"/>
				<path class="st4" d="M969.53,477.87l56.99-23.32l-42.86-33.18c-2.59-2-6.38-0.45-6.82,2.79L969.53,477.87z"/>
			</g>
		</g>
		<g>
			<g>
				<polygon class="st2" points="1089.69,216.67 1055.85,185.02 1045.37,230.15 				"/>
				<path class="st2" d="M1119.49,244.53l-29.79-27.86l-10.48,45.13l39.02-11.87C1120.59,249.21,1121.29,246.21,1119.49,244.53z"/>
				<polygon class="st3" points="1045.37,230.15 1079.21,261.8 1089.69,216.67 				"/>
				<path class="st4" d="M1055.85,185.02l33.84,31.64l9.23-39.73c0.56-2.4-1.69-4.5-4.05-3.79L1055.85,185.02z"/>
			</g>
			<g>
				<polygon class="st2" points="1154.6,231.75 1188.44,263.39 1198.93,218.26 				"/>
				<path class="st2" d="M1124.81,203.89l29.79,27.86l10.48-45.13l-39.02,11.87C1123.7,199.21,1123.01,202.2,1124.81,203.89z"/>
				<polygon class="st3" points="1198.93,218.26 1165.08,186.62 1154.6,231.75 				"/>
				<path class="st4" d="M1188.44,263.39l-33.84-31.64l-9.23,39.73c-0.56,2.4,1.69,4.5,4.05,3.79L1188.44,263.39z"/>
			</g>
		</g>
		<g>
			<g>
				<polygon class="st2" points="392.15,331.19 385.71,291.79 354.81,317.07 				"/>
				<path class="st2" d="M397.83,365.87l-5.68-34.69l-30.9,25.28l32.88,12.43C396.12,369.65,398.18,367.97,397.83,365.87z"/>
				<polygon class="st3" points="354.81,317.07 361.26,356.47 392.15,331.19 				"/>
				<path class="st4" d="M385.71,291.79l6.45,39.4l27.2-22.26c1.64-1.34,1.21-3.96-0.77-4.71L385.71,291.79z"/>
			</g>
			<g>
				<polygon class="st2" points="428.52,375.62 434.97,415.02 465.86,389.74 				"/>
				<path class="st2" d="M422.84,340.94l5.68,34.69l30.9-25.28l-32.88-12.43C424.55,337.16,422.5,338.84,422.84,340.94z"/>
				<polygon class="st3" points="465.86,389.74 459.41,350.34 428.52,375.62 				"/>
				<path class="st4" d="M434.97,415.02l-6.45-39.4l-27.2,22.26c-1.64,1.34-1.21,3.96,0.77,4.71L434.97,415.02z"/>
			</g>
		</g>
		<g>
			<g>
				<polygon class="st2" points="225.73,399.95 205.64,360.13 181.2,397.44 				"/>
				<path class="st2" d="M243.42,435l-17.69-35.06l-24.44,37.31l39.2,2.21C242.86,439.6,244.49,437.12,243.42,435z"/>
				<polygon class="st3" points="181.2,397.44 201.29,437.26 225.73,399.95 				"/>
				<path class="st4" d="M205.64,360.13l20.09,39.82l21.52-32.85c1.3-1.98-0.04-4.63-2.4-4.76L205.64,360.13z"/>
			</g>
			<g>
				<polygon class="st2" points="279.39,435.1 299.48,474.92 323.92,437.61 				"/>
				<path class="st2" d="M261.7,400.04l17.69,35.06l24.44-37.31l-39.2-2.21C262.26,395.45,260.63,397.92,261.7,400.04z"/>
				<polygon class="st3" points="323.92,437.61 303.83,397.79 279.39,435.1 				"/>
				<path class="st4" d="M299.48,474.92l-20.09-39.82l-21.52,32.85c-1.3,1.98,0.04,4.63,2.4,4.76L299.48,474.92z"/>
			</g>
		</g>
	</g>
</g>
</svg>
