<svg enable-background="new 0 0 1600 500" version="1.1" viewBox="0 0 1600 500" xmlns="http://www.w3.org/2000/svg" xmlns:xlink="http://www.w3.org/1999/xlink">
 <style type="text/css">.st0{fill-rule:evenodd;clip-rule:evenodd;fill:#BB82FA;}
	.st1{clip-path:url(#SVGID_00000038392244826099421520000007868451027541335215_);}
	.st2{fill:#FAAA49;}
	.st3{fill:#FFDF94;}
	.st4{fill:#CC7D12;}
	.st5{fill:#FFFFFF;}
	.st6{fill:#F9E3FF;}
	.st7{clip-path:url(#SVGID_00000129900447839578417660000008709407450199206791_);}
	.st8{clip-path:url(#SVGID_00000023972978041822433350000013060617387369215137_);}</style>
 <path class="st0" d="m1600 24.84v428.5c0 8.31-4.08 15.66-10.34 20.17-2.4 1.73-5.84 0.86-6.95-1.88-3.92-9.72-16.41-16.83-31.21-16.83-9.47 0-17.99 2.91-23.93 7.55-1.91 1.49-4.64 1.25-6.24-0.56-7.66-8.68-21.22-14.45-36.68-14.45-13.95 0-26.37 4.71-34.28 12.01-1.84 1.7-4.72 1.55-6.42-0.29-9.32-10.07-25.83-16.76-44.62-16.76-27.05 0-49.35 13.85-52.36 31.7-0.4 2.39-2.49 4.14-4.91 4.14l-1317 0.04c-13.71 0-24.83-11.12-24.83-24.84v-428.5c0-13.72 11.12-24.84 24.83-24.84h1550c13.71 0 24.83 11.12 24.83 24.84z"/>
 <ellipse class="st0" cx="1399" cy="479.2" rx="33.87" ry="20.84"/>
 <ellipse class="st0" cx="1484" cy="478.7" rx="27.94" ry="17.19"/>
 <ellipse class="st0" cx="1552" cy="479" rx="18.65" ry="11.48"/>
 <defs>
  <ellipse id="a" cx="1484" cy="478.7" rx="27.94" ry="17.19"/>
 </defs>
 <clipPath id="e">
  <use xlink:href="#a"/>
 </clipPath>
 <g clip-path="url(#e)">
  <path class="st2" d="m181.7 292.7-56.95-19.1c-21.7 34.54-66.81 96.09-66.81 96.09l80.35 70.69 57.72 3.36 64.51-90.81-78.82-60.23z"/>
  <polygon class="st3" points="260.6 352.9 234.2 347 207.3 340.9 124.8 273.6 181.7 292.7 227.9 328"/>
  <path class="st4" d="m260.6 352.9-28.67 40.36-35.84 50.45-21.27-1.24-36.45-2.13c21.31-37.23 47.77-63.63 69-99.47l26.89 6.07 26.34 5.96z"/>
  <path class="st4" d="m70.7 367 12.13-3.1c0.6-0.15 1.13 0.43 0.91 1.01l-3.94 10.4c-0.19 0.5-0.83 0.66-1.23 0.3l-8.19-7.3c-0.46-0.4-0.28-1.15 0.32-1.31z"/>
  <ellipse class="st4" transform="matrix(.9985 -.0551 .0551 .9985 -20.78 5.725)" cx="93.49" cy="379.9" rx="7.47" ry="6.93"/>
  <polygon class="st5" points="214 317.3 161.9 303.8 178 317 224.3 325.2"/>
  <path class="st6" d="m161.9 303.8-12.25 16.45c10.58 0.76 4.5 10.62 16.35 12.15l12.05-15.43-16.15-13.17z"/>
  <path class="st2" d="m-7.73 588 41.47 43.46c35.31-20.43 103.9-53.83 103.9-53.83l-38.1-100-49.49-29.9-99.42 50.23 41.62 90.04z"/>
  <polygon class="st3" points="-49.36 498 -28.83 515.5 -7.88 533.4 33.74 631.5 -7.73 588 -32.11 535.3"/>
  <path class="st4" d="m-49.36 498 26.73-13.51 72.7-36.73 18.24 11.02 31.25 18.89c-36.22 22.99-71.93 34.01-107.4 55.8l-41.49-35.47z"/>
  <path class="st4" d="m125.2 574-12.17-2.92c-0.6-0.14-0.79-0.91-0.33-1.32l8.33-7.36c0.4-0.36 1.04-0.2 1.23 0.31l3.84 10.28c0.21 0.58-0.31 1.16-0.9 1.01z"/>
  <ellipse class="st4" transform="matrix(.417 -.9089 .9089 .417 -437 422.7)" cx="111" cy="552" rx="6.93" ry="7.47"/>
  <polygon class="st5" points="-24.76 551.2 15.03 587.4 6.89 568.2 -30.22 539.4"/>
  <path class="st6" d="m15.03 587.4 18.51-8.84c-9.01-5.6 0.97-11.49-8.79-18.37l-17.86 8.03 8.14 19.18z"/>
  <path class="st2" d="m191.3 71.75-66.17 13.44c-1.7 45.82-10.99 131.1-10.99 131.1l118 23.61 58.07-29.19 11.72-124.7-110.6-14.29z"/>
  <polygon class="st3" points="301.8 86.03 272.9 95.06 243.3 104.3 125.1 85.18 191.3 71.75 256 80.11"/>
  <path class="st4" d="m301.8 86.03-3.15 33.51-2.06 21.89-6.51 69.26-21.4 10.76-36.67 18.43c-0.19-48.22 10.71-88.79 11.22-135.6l58.57-18.24z"/>
  <path class="st4" d="m125 206.6 10.06-9.83c0.5-0.49 1.34-0.21 1.45 0.48l2.01 12.33c0.1 0.6-0.43 1.1-1.02 0.98l-12.08-2.5c-0.67-0.14-0.92-0.97-0.42-1.46z"/>
  <ellipse class="st4" transform="matrix(.837 -.5472 .5472 .837 -87.71 118.1)" cx="154.4" cy="206.3" rx="8.39" ry="7.79"/>
  <polygon class="st5" points="236.5 77.59 178.2 93.77 201.3 97.5 251 79.47"/>
  <path class="st6" d="m178.2 93.77-2.67 22.9c10.72-5.21 10.35 7.8 22.74 2.63l3.05-21.8-23.12-3.73z"/>
  <path class="st2" d="m28.2-25.38-41.64 6.32c-2.48 28.5-10.92 81.34-10.92 81.34l72.76 18.36 37.09-16.38 11.18-77.31-68.47-12.33z"/>
  <polygon class="st3" points="96.66 -13.05 78.32 -8.32 59.6 -3.51 -13.44 -19.07 28.2 -25.39 68.29 -18.16"/>
  <path class="st4" d="m96.66-13.05-3 20.78-1.96 13.58-6.21 42.95-13.67 6.04-23.42 10.34c1.38-30.05 9.43-54.99 11.2-84.15l18.72-4.82 18.34-4.72z"/>
  <path class="st4" d="m-17.26 56.55 6.58-5.82c0.33-0.29 0.84-0.09 0.89 0.34l0.87 7.75c0.04 0.37-0.3 0.67-0.67 0.58l-7.45-1.93c-0.42-0.11-0.54-0.64-0.22-0.92z"/>
  <ellipse class="st4" transform="matrix(.8632 -.5049 .5049 .8632 -28.78 8.383)" cx="1.08" cy="57.29" rx="5.23" ry="4.86"/>
  <polygon class="st5" points="56.21 -20.34 19.39 -12.07 33.68 -9.03 65.19 -18.72"/>
  <path class="st6" d="m19.39-12.07-2.37 14.18c6.84-2.91 6.2 5.19 14.08 2.35l2.58-13.49-14.29-3.04z"/>
  <path class="st2" d="m419.4-3.06-40.65 16.76c4.57 29.51 9.16 85.18 9.16 85.18l78.34 0.53 33.52-25.84-7.9-81.16-72.47 4.53z"/>
  <polygon class="st3" points="491.8 -7.58 474.4 1.77 456.6 11.31 378.7 13.7 419.4 -3.06 461.8 -5.71"/>
  <path class="st4" d="m491.8-7.58 2.12 21.82 1.39 14.25 4.39 45.09-12.35 9.52-21.18 16.31c-6.08-30.81-4.12-58.1-9.57-88.1l35.2-18.89z"/>
  <path class="st4" d="m393.6 91.32 5.22-7.53c0.26-0.37 0.83-0.3 0.99 0.13l2.81 7.64c0.14 0.37-0.14 0.76-0.53 0.75l-8.03-0.11c-0.46-0.01-0.72-0.51-0.46-0.88z"/>
  <ellipse class="st4" transform="matrix(.718 -.696 .696 .718 55.38 311.7)" cx="412.4" cy="87.51" rx="5.46" ry="5.07"/>
  <polygon class="st5" points="449 -4.91 413.7 12.63 429 12.16 458.5 -5.5"/>
  <path class="st6" d="m413.7 12.63 1.12 14.97c6.21-4.66 7.58 3.71 14.86-1.13l-0.74-14.31-15.24 0.47z"/>
  <path class="st2" d="m276.7 13.77 33.35-24.73c-11-25.95-28.04-75.86-28.04-75.86l-71.84 17.59-24.73 31.39 25.96 72.47 65.3-20.86z"/>
  <polygon class="st3" points="211.4 34.64 225.2 22.05 239.2 9.22 310 -10.95 276.7 13.77 238.5 25.99"/>
  <path class="st4" d="m211.4 34.64-6.98-19.48-4.56-12.73-14.42-40.27 9.11-11.57 15.62-19.82c12.67 26.8 17.18 52.24 29.09 78.44l-27.86 25.43z"/>
  <path class="st4" d="m278.5-78.56-3.04 8.1c-0.15 0.4-0.69 0.47-0.93 0.11l-4.33-6.34c-0.21-0.31-0.05-0.73 0.31-0.81l7.38-1.76c0.4-0.1 0.75 0.3 0.61 0.7z"/>
  <ellipse class="st4" transform="matrix(.5261 -.8504 .8504 .5261 184.4 189.4)" cx="262.1" cy="-70.74" rx="5.16" ry="4.79"/>
  <polygon class="st5" points="250 22.31 278.2 -1.89 264.4 2.06 241.4 25.05"/>
  <path class="st6" d="m278.2-1.89-4.48-13.45c-4.61 5.7-7.8-1.65-13.35 4.46l3.98 12.93 13.85-3.94z"/>
  <path class="st2" d="m-72.43 304.1-7.91 45.74c28.93 12.53 81.23 39.76 81.23 39.76l44.57-69.66-4.2-44.49-76.93-38.63-36.76 67.28z"/>
  <polygon class="st3" points="-35.68 236.9 -37.13 257.7 -38.62 278.9 -80.34 349.9 -72.43 304.1 -50.91 264.7"/>
  <path class="st4" d="m-35.68 236.9 20.68 10.38 56.25 28.25 1.55 16.39 2.65 28.09c-30.94-11.91-54.21-29.02-84.07-41.04l1.49-21.25 1.45-20.82z"/>
  <path class="st4" d="m-2.62 380.2-3.79-8.9c-0.19-0.44 0.2-0.91 0.67-0.81l8.4 1.79c0.41 0.09 0.6 0.55 0.37 0.9l-4.61 7.11c-0.25 0.4-0.85 0.34-1.04-0.09z"/>
  <ellipse class="st4" transform="matrix(.9786 -.206 .206 .9786 -74.33 8.685)" cx="4.55" cy="361.3" rx="5.35" ry="5.77"/>
  <polygon class="st5" points="-57.4 276.6 -61.59 318 -53.42 304.1 -52.57 267.8"/>
  <path class="st6" d="m-61.59 318 14 7.43c-0.66-8.17 7.58-4.68 7.36-13.91l-13.2-7.4-8.16 13.88z"/>
  <path class="st2" d="m4.34 126.8-34.13 1.32c-4.58 22.74-16.15 64.55-16.15 64.55l56.97 21.39 31.37-9.85 16-61.28-54.06-16.13z"/>
  <polygon class="st3" points="58.39 142.9 43.18 145.1 27.66 147.3 -29.79 128.1 4.34 126.8 35.99 136.2"/>
  <path class="st4" d="m58.39 142.9-4.3 16.48-2.81 10.76-8.89 34.05-11.56 3.63-19.81 6.21c3.83-24.09 12.57-43.46 16.64-66.79l30.73-4.34z"/>
  <path class="st4" d="m-39.71 188.7 5.82-4.09c0.29-0.2 0.69 0 0.69 0.36v6.32c0 0.31-0.31 0.52-0.59 0.41l-5.83-2.23c-0.32-0.13-0.37-0.57-0.09-0.77z"/>
  <ellipse class="st4" transform="matrix(.9141 -.4055 .4055 .9141 -79.57 6.266)" cx="-25" cy="191" rx="4.24" ry="3.94"/>
  <polygon class="st5" points="26.45 133.4 -3.97 136.7 7.27 140.5 33.54 135.5"/>
  <path class="st6" d="m-3.97 136.7-3.2 11.22c5.78-1.73 4.53 4.74 11.14 3.16l3.3-10.63-11.24-3.75z"/>
  <path class="st2" d="m369.9 200.9-58.06 62.89c32.24 48.37 85.93 142.9 85.93 142.9l138.8-63.21 38.05-73.08-80.41-136.9-124.3 67.33z"/>
  <polygon class="st3" points="494.2 133.6 471.1 164.4 447.5 195.8 311.8 263.8 369.9 200.9 442.7 161.5"/>
  <path class="st4" d="m494.2 133.6 21.62 36.79 14.12 24.04 44.68 76.04-14.02 26.93-24.04 46.14c-35.96-49.43-54.85-99.23-89.04-147.8l23.59-31.41 23.09-30.78z"/>
  <path class="st4" d="m401.8 388.6 3.05-17.57c0.15-0.87 1.22-1.21 1.85-0.59l11.22 11.19c0.54 0.54 0.37 1.46-0.32 1.77l-14.27 6.39c-0.8 0.35-1.68-0.33-1.53-1.19z"/>
  <ellipse class="st4" transform="matrix(.3586 -.9335 .9335 .3586 -65.19 638.2)" cx="431.8" cy="366.5" rx="10.64" ry="9.87"/>
  <polygon class="st5" points="420.8 173.4 372.8 233.2 399.4 219.9 437.1 164.5"/>
  <path class="st6" d="m372.8 233.2 14.24 25.53c7.16-13.31 16.43 0.34 25.33-14.16l-13.03-24.67-26.54 13.3z"/>
  <path class="st2" d="m735.5 54.45 7.79 55.3c37.75 3.7 107.7 15.62 107.7 15.62l25.38-96.21-21.2-49.4-102.3-15.9-17.32 90.59z"/>
  <polygon class="st3" points="752.8 -36.14 758.8 -11.76 765 13.13 743.3 109.8 735.5 54.45 745.7 1.41"/>
  <path class="st4" d="m752.8-36.14 45.48 7.06 56.86 8.83 7.82 18.21 13.38 31.2c-39.82-2.25-72.78-13.27-111.4-16.04l-6.13-24.89-6-24.37z"/>
  <path class="st4" d="m843.5 115.9-7.62-8.8c-0.38-0.44-0.11-1.12 0.47-1.18l10.28-1.05c0.5-0.05 0.89 0.41 0.76 0.9l-2.67 9.85c-0.14 0.55-0.85 0.71-1.22 0.28z"/>
  <ellipse class="st4" transform="matrix(.8685 -.4957 .4957 .8685 65.7 430.8)" cx="844.8" cy="91.58" rx="6.44" ry="6.94"/>
  <polygon class="st5" points="742.6 17.39 753 66.32 757.3 47.42 744.9 5.5"/>
  <path class="st6" d="m753 66.32 18.78 3.35c-3.77-9.11 6.96-8.16 3.3-18.64l-17.84-3.61-4.24 18.9z"/>
  <path class="st2" d="m1138 148-37.13 11.67c1.77 26.37 1.56 75.81 1.56 75.81l69.04 6.47 31.54-20.22-0.75-72.17-64.26-1.56z"/>
  <polygon class="st3" points="1203 149.5 1186 156.5 1170 163.5 1101 159.6 1138 148 1176 148.9"/>
  <path class="st4" d="m1203 149.5 0.2 19.4 0.13 12.67 0.42 40.1-11.62 7.45-19.92 12.76c-3-27.63 0.82-51.55-1.7-78.42l32.49-13.96z"/>
  <path class="st4" d="m1108 229.2 5.18-6.24c0.26-0.31 0.76-0.2 0.86 0.19l1.89 6.95c0.09 0.34-0.18 0.66-0.53 0.62l-7.07-0.71c-0.4-0.04-0.59-0.51-0.33-0.81z"/>
  <ellipse class="st4" transform="matrix(.7755 -.6313 .6313 .7755 109.1 761.4)" cx="1125" cy="227.3" rx="4.84" ry="4.49"/>
  <polygon class="st5" points="1165 148.6 1132 161.4 1146 162.1 1173 148.8"/>
  <path class="st6" d="m1132 161.4-0.16 13.29c5.83-3.63 6.4 3.85 13.19 0.14l0.44-12.68-13.47-0.75z"/>
  <path class="st2" d="m1285 275.9-60.61-5.14c-13.07 39.19-42.69 110.6-42.69 110.6l96 50.28 57.6-10.54 41.7-104.8-92-40.35z"/>
  <polygon class="st3" points="1377 316.2 1349 316.7 1322 317.2 1224 270.7 1285 275.9 1339 299.5"/>
  <path class="st4" d="m1377 316.2-11.21 28.18-7.32 18.41-23.16 58.23-21.22 3.88-36.37 6.64c12.04-41.74 31.74-74.06 44.04-114.4l55.24-0.93z"/>
  <path class="st4" d="m1193 375.6 11.19-5.95c0.55-0.3 1.21 0.16 1.13 0.78l-1.38 11.17c-0.07 0.54-0.65 0.85-1.13 0.59l-9.81-5.22c-0.55-0.29-0.55-1.07 0-1.37z"/>
  <ellipse class="st4" transform="matrix(.957 -.2899 .2899 .957 -58.65 369.9)" cx="1219" cy="382.9" rx="7.56" ry="7.02"/>
  <polygon class="st5" points="1322 292.4 1268 291.6 1287 300.7 1335 297.7"/>
  <path class="st6" d="m1268 291.6-8.11 19.12c10.59-1.79 6.98 9.37 19 8.03l8.16-18.07-19.05-9.08z"/>
  <path class="st2" d="m1403 194.2-24.64 53.32c31.26 24.78 86.28 75.18 86.28 75.18l77.27-70.57 9.42-55.75-81.39-72.39-66.94 70.21z"/>
  <polygon class="st3" points="1470 124 1461 149 1453 174.5 1378 247.6 1403 194.2 1442 153.1"/>
  <path class="st4" d="m1470 124 81.39 72.39-3.47 20.54-5.96 35.2c-33.91-24.68-56.76-53.21-89.33-77.68l8.77-25.49 8.6-24.96z"/>
  <path class="st4" d="m1464 310.1-1.72-12.12c-0.09-0.6 0.54-1.05 1.08-0.77l9.68 4.94c0.47 0.24 0.55 0.87 0.16 1.22l-7.97 7.18c-0.44 0.4-1.15 0.14-1.23-0.45z"/>
  <ellipse class="st4" transform="matrix(.0541 -.9985 .9985 .0541 1110 1750)" cx="1478" cy="289.3" rx="7.3" ry="6.78"/>
  <polygon class="st5" points="1430 165.5 1412 214.7 1426 200.4 1439 156.3"/>
  <path class="st6" d="m1412 214.7 14.69 13.66c1.86-10.2 10.8-3.24 13.55-14.59l-13.71-13.36-14.53 14.29z"/>
  <path class="st2" d="m1481 365.6-45.88 31.05c13.17 35.24 33.03 102.8 33.03 102.8l96.79-19.32 34.78-40.43-30.44-98.12-88.28 24.06z"/>
  <polygon class="st3" points="1570 341.6 1550 357.6 1531 373.9 1435 396.7 1481 365.6 1533 351.5"/>
  <path class="st4" d="m1570 341.6 8.19 26.38 5.34 17.23 16.92 54.52-12.82 14.9-21.97 25.52c-15.36-36.46-19.9-70.64-34.28-106.3l19.5-16.31 19.12-15.98z"/>
  <path class="st4" d="m1474 488.6 4.52-10.62c0.22-0.53 0.95-0.58 1.25-0.1l5.41 8.71c0.26 0.42 0.02 0.97-0.47 1.07l-9.93 1.92c-0.55 0.1-1-0.46-0.78-0.98z"/>
  <ellipse class="st4" transform="matrix(.5623 -.8269 .8269 .5623 258.5 1447)" cx="1496" cy="479.2" rx="6.89" ry="6.39"/>
  <polygon class="st5" points="1517 355.8 1478 386.4 1497 382 1529 352.6"/>
  <path class="st6" d="m1478 386.4 5.2 18.19c6.48-7.33 10.3 2.64 18.05-5.18l-4.56-17.47-18.69 4.46z"/>
  <path class="st2" d="m1596 243.7-16.17 62.55c38.7 20.66 108.2 64.39 108.2 64.39l69.74-91.57-0.78-62.19-102.3-62.32-58.63 89.14z"/>
  <polygon class="st3" points="1655 154.6 1651 183.3 1646 212.6 1580 306.3 1596 243.7 1631 191.5"/>
  <path class="st4" d="m1655 154.6 27.51 16.75 74.82 45.57 0.29 22.92 0.48 39.27c-41.56-20.04-71.9-46.42-112-66.48l4.48-29.31 4.38-28.72z"/>
  <path class="st4" d="m1684 357.2-4.24-12.78c-0.21-0.63 0.38-1.24 1.02-1.05l11.45 3.44c0.55 0.17 0.77 0.84 0.42 1.29l-7.21 9.34c-0.41 0.52-1.23 0.38-1.44-0.24z"/>
  <ellipse class="st4" transform="matrix(.9921 -.1254 .1254 .9921 -28.22 215.4)" cx="1697" cy="331.8" rx="7.45" ry="8.03"/>
  <polygon class="st5" points="1620 207.3 1610 264.2 1623 245.9 1628 195.6"/>
  <path class="st6" d="m1610 264.2 18.58 11.9c0.01-11.41 11.05-5.64 11.79-18.46l-17.47-11.76-12.9 18.32z"/>
  <path class="st2" d="m1541 23.83-32.83 33.77c17.05 27.06 45.24 79.83 45.24 79.83l77.23-32.8 21.96-39.66-42.29-76.41-69.31 35.27z"/>
  <polygon class="st3" points="1610 -11.45 1597 5.15 1583 22.1 1508 57.6 1541 23.83 1581 3.17"/>
  <path class="st4" d="m1610-11.45 42.3 76.41-8.09 14.61-13.87 25.04c-19.08-27.7-28.77-55.36-46.89-82.53l13.42-16.94 13.13-16.59z"/>
  <path class="st4" d="m1556 127.5 1.93-9.62c0.1-0.48 0.69-0.65 1.02-0.3l6.01 6.31c0.29 0.31 0.19 0.81-0.2 0.97l-7.94 3.31c-0.45 0.19-0.92-0.2-0.82-0.67z"/>
  <ellipse class="st4" transform="matrix(.3825 -.924 .924 .3825 864 1524)" cx="1572" cy="115.8" rx="5.85" ry="5.43"/>
  <polygon class="st5" points="1569 9.4 1542 41.64 1557 34.7 1578 4.77"/>
  <path class="st6" d="m1542 41.64 7.47 14.24c4.13-7.22 9.03 0.42 14.13-7.43l-6.82-13.75-14.78 6.94z"/>
  <path class="st2" d="m1442-123.2-57.77-11.7c-16.95 36.26-53.42 101.6-53.42 101.6l86.8 59.1 56.61-3.72 51.82-96.23-84.04-49.1z"/>
  <polygon class="st3" points="1526 -74.08 1499 -76.68 1472 -79.33 1384 -134.9 1442 -123.2 1491 -94.43"/>
  <path class="st4" d="m1526-74.08-51.82 96.24-20.86 1.37-35.75 2.34c16.24-38.83 38.8-67.74 55.14-105.2l53.29 5.26z"/>
  <path class="st4" d="m1343-37.32 11.43-4.48c0.57-0.22 1.15 0.29 1.01 0.88l-2.58 10.6c-0.12 0.51-0.72 0.74-1.16 0.44l-8.86-6.11c-0.48-0.36-0.4-1.12 0.16-1.33z"/>
  <ellipse class="st4" transform="matrix(.984 -.1779 .1779 .984 26.7 242.6)" cx="1366" cy="-27.54" rx="7.33" ry="6.8"/>
  <polygon class="st5" points="1476 -103.1 1424 -109.9 1441 -99.04 1487 -96.64"/>
  <path class="st6" d="m1424-109.9-9.94 17.5c10.39-0.54 5.67 9.79 17.39 9.85l9.87-16.48-17.32-10.87z"/>
  <path class="st2" d="m1114-14.96 6.71 46.66c31.87 3.02 90.93 12.92 90.93 12.92l21.19-81.26-18.02-41.65-86.41-13.18-14.4 76.51z"/>
  <polygon class="st3" points="1128 -91.46 1133 -70.9 1138 -49.91 1120 31.7 1114 -14.96 1122 -59.76"/>
  <path class="st4" d="m1128-91.47 38.41 5.85 48.01 7.32 6.64 15.35 11.37 26.3c-33.62-1.8-61.46-11.03-94.07-13.27l-5.23-20.99-5.13-20.56z"/>
  <path class="st4" d="m1205 36.62-6.45-7.41c-0.32-0.37-0.09-0.94 0.39-0.99l8.68-0.91c0.42-0.04 0.75 0.35 0.64 0.75l-2.23 8.32c-0.12 0.47-0.71 0.61-1.03 0.24z"/>
  <ellipse class="st4" transform="matrix(.8671 -.4982 .4982 .8671 152.3 602.9)" cx="1206" cy="16.11" rx="5.44" ry="5.86"/>
  <polygon class="st5" points="1119 -46.26 1128 -4.99 1132 -20.95 1121 -56.3"/>
  <path class="st6" d="m1128-4.99 15.85 2.78c-3.2-7.68 5.85-6.9 2.74-15.74l-15.07-3-3.52 15.96z"/>
  <path class="st2" d="m1045 457.3-41.32 55.35c29.94 36.11 80.97 107.5 80.97 107.5l106.1-62.39 24.4-61.85-76.03-103.1-94.1 64.48z"/>
  <polygon class="st3" points="1139 392.8 1123 419.4 1107 446.6 1004 512.6 1045 457.3 1100 419.5"/>
  <path class="st4" d="m1139 392.8 20.44 27.71 13.35 18.11 42.25 57.27-8.99 22.79-15.42 39.05c-33.01-36.65-52.36-75.04-83.88-111.1l16.29-27.19 15.96-26.63z"/>
  <path class="st4" d="m1086 605.3 0.97-14.36c0.05-0.71 0.88-1.07 1.43-0.63l9.94 8.04c0.48 0.39 0.42 1.14-0.11 1.45l-10.91 6.33c-0.61 0.34-1.36-0.13-1.32-0.83z"/>
  <ellipse class="st4" transform="matrix(.2595 -.9657 .9657 .2595 256 1504)" cx="1109" cy="585" rx="8.58" ry="7.97"/>
  <polygon class="st5" points="1084 430.9 1050 483 1070 470 1096 422.4"/>
  <path class="st6" d="m1050 483 13.57 19.29c4.63-11.29 13.22-1.1 19.14-13.5l-12.53-18.71-20.18 12.92z"/>
  <path class="st2" d="m1376 102.3-14.06-53.72c-37.7 0.7-108.1-3.04-108.1-3.04l-14 97.93 26.62 46.35 102.9 3.93 6.68-91.45z"/>
  <polygon class="st3" points="1369 193.8 1360 170.4 1351 146.5 1362 48.58 1376 102.3 1372 155.8"/>
  <path class="st4" d="m1369 193.8-102.9-3.93-9.81-17.08-16.8-29.27c39.58-2.36 73.4 4.74 111.9 3.02l8.91 23.87 8.73 23.39z"/>
  <path class="st4" d="m1262 54.05 8.53 7.81c0.42 0.39 0.23 1.09-0.33 1.21l-10.03 2.22c-0.49 0.11-0.93-0.31-0.85-0.8l1.5-10.03c0.09-0.55 0.76-0.79 1.18-0.41z"/>
  <ellipse class="st4" transform="matrix(.8053 -.5929 .5929 .8053 199.6 764.3)" cx="1264" cy="78.2" rx="6.4" ry="6.9"/>
  <polygon class="st5" points="1373 139.7 1357 92.59 1355 111.8 1372 151.7"/>
  <path class="st6" d="m1357 92.59-18.93-1.15c4.77 8.57-5.93 8.86-1.12 18.79l18.04 1.51 2.01-19.15z"/>
  <path class="st2" d="m255.6 436.7-33.07 28.52c13.54 26.38 35.28 77.41 35.28 77.41l74-24.01 23.51-34.84-32.84-74.02-66.88 26.94z"/>
  <polygon class="st3" points="322.5 409.7 309 424 295.2 438.5 222.6 465.2 255.6 436.7 294.8 420.9"/>
  <path class="st4" d="m322.5 409.7 8.83 19.9 5.77 13 18.25 41.12-8.66 12.84-14.85 22c-15.37-27.13-22.06-53.47-36.58-80.04l13.77-14.56 13.47-14.26z"/>
  <path class="st4" d="m260.9 533.7 2.56-8.73c0.13-0.43 0.69-0.54 0.97-0.19l5.04 6.32c0.24 0.31 0.11 0.76-0.27 0.88l-7.6 2.41c-0.42 0.13-0.83-0.26-0.7-0.69z"/>
  <ellipse class="st4" transform="matrix(.4622 -.8868 .8868 .4622 -315.6 527.9)" cx="277.4" cy="524.2" rx="5.43" ry="5.04"/>
  <polygon class="st5" points="283 425.6 255.2 453.2 269.4 448 291.8 422.1"/>
  <path class="st6" d="m255.2 453.2 5.74 13.76c4.4-6.33 8.31 1.12 13.66-5.71l-5.18-13.26-14.22 5.21z"/>
  <path class="st2" d="m585.8 136.2 34.63 25.97c22.67-18.71 67.48-50.6 67.48-50.6l-38.95-66.57-38.73-15.38-64.71 47.52 40.28 59.06z"/>
  <polygon class="st3" points="545.5 77.1 562.2 87.14 579.2 97.39 620.4 162.1 585.8 136.2 562.2 101.6"/>
  <path class="st4" d="m545.5 77.1 17.4-12.77 11.37-8.34 35.95-26.4 14.27 5.67 24.45 9.72c-23.02 20.64-47.1 32.71-69.75 52.41l-33.69-20.29z"/>
  <path class="st4" d="m678.6 110.5-9-0.63c-0.45-0.03-0.67-0.55-0.39-0.9l5.05-6.22c0.24-0.3 0.71-0.26 0.91 0.07l3.95 6.85c0.22 0.38-0.08 0.86-0.52 0.83z"/>
  <ellipse class="st4" transform="matrix(.2617 -.9652 .9652 .2617 398.5 714)" cx="665.9" cy="96.48" rx="4.99" ry="5.38"/>
  <polygon class="st5" points="569.3 112 601.9 133 593.8 120.4 564 104.2"/>
  <path class="st6" d="m601.9 133 12.11-8.48c-7.07-2.92-0.67-8.28-8.43-12.01l-11.74 7.83 8.06 12.66z"/>
  <path class="st2" d="m696.1 187.3-26.19 32.88c17.52 22.54 47.2 66.94 47.2 66.94l65.72-35.92 16.03-37.16-44.28-64.16-58.48 37.42z"/>
  <polygon class="st3" points="754.5 149.8 744.3 165.8 733.9 182 669.9 220.2 696.1 187.3 730.3 165.4"/>
  <path class="st4" d="m754.5 149.8 11.91 17.25 7.78 11.27 24.6 35.65-5.9 13.69-10.13 23.46c-19.38-22.93-30.42-46.65-48.9-69.19l10.43-16.23 10.21-15.9z"/>
  <path class="st4" d="m718.4 278.1 0.87-8.72c0.04-0.43 0.55-0.64 0.88-0.35l5.89 5.08c0.28 0.25 0.24 0.7-0.1 0.88l-6.76 3.64c-0.37 0.2-0.82-0.1-0.78-0.53z"/>
  <ellipse class="st4" transform="matrix(.2897 -.9571 .9571 .2897 265.4 890)" cx="732.3" cy="266.2" rx="5.22" ry="4.85"/>
  <polygon class="st5" points="720 172 698.6 203 711.2 195.5 727.7 167"/>
  <path class="st6" d="m698.6 203 7.89 12c3.03-6.78 8.06-0.42 11.9-7.84l-7.26-11.62-12.53 7.46z"/>
  <path class="st2" d="m611.4 338.6-40.48 31.32c14.21 31.72 36.48 92.8 36.48 92.8l88.1-23.49 29.69-39.31-33.82-88.68-79.97 27.36z"/>
  <polygon class="st3" points="691.4 311.2 674.7 327.1 657.7 343.2 570.9 369.9 611.4 338.6 658.2 322.5"/>
  <path class="st4" d="m691.4 311.2 9.09 23.84 24.74 64.84-10.94 14.49-18.75 24.82c-16.3-32.72-22.49-63.95-37.84-95.96l17.02-16.18 16.68-15.85z"/>
  <path class="st4" d="m611.6 452.4 3.54-10.06c0.18-0.5 0.84-0.59 1.15-0.16l5.5 7.71c0.27 0.37 0.08 0.9-0.37 1.01l-9.05 2.35c-0.5 0.13-0.95-0.36-0.77-0.85z"/>
  <ellipse class="st4" transform="matrix(.5086 -.861 .861 .5086 -70.59 761)" cx="631.5" cy="442.4" rx="6.36" ry="5.9"/>
  <polygon class="st5" points="644.1 327.4 609.9 357.9 626.9 352.7 654.6 323.8"/>
  <path class="st6" d="m609.9 357.9 5.86 16.46c5.54-7.14 9.65 1.83 16.34-5.84l-5.23-15.84-16.97 5.22z"/>
  <path class="st2" d="m553.7 475.1-51.83-33.35c-30.29 28.89-90.66 78.73-90.66 78.73l62.1 90.55 56.56 17.88 87.04-74.06-63.21-79.75z"/>
  <polygon class="st3" points="616.9 554.8 592.2 542.3 567 529.5 501.9 441.7 553.7 475.1 590.7 521.8"/>
  <path class="st4" d="m616.9 554.8-87.05 74.07-20.84-6.59-35.72-11.3c30.58-31.66 63.54-51.25 93.69-81.54l25.21 12.82 24.71 12.54z"/>
  <path class="st4" d="m424.6 521 12.84-0.02c0.64 0 1.01 0.72 0.65 1.24l-6.54 9.35c-0.32 0.45-0.99 0.45-1.3-0.01l-6.31-9.32c-0.35-0.53 0.03-1.24 0.66-1.24z"/>
  <ellipse class="st4" transform="matrix(.1918 -.9814 .9814 .1918 -170.8 871.8)" cx="444" cy="539.6" rx="7.11" ry="7.66"/>
  <polygon class="st5" points="579.6 507.7 531.2 481.2 543.9 498.3 587.9 518.2"/>
  <path class="st6" d="m531.2 481.2-16.33 13.28c10.33 3.42 1.8 11.69 13.2 16.2l15.87-12.31-12.74-17.17z"/>
  <path class="st2" d="m772.6 491.7 20.09 49.58c35.93-5.34 103.7-10.51 103.7-10.51l1.23-95.29-31.18-40.98-98.79 9 4.96 88.2z"/>
  <polygon class="st3" points="767.6 403.5 778.8 424.8 790.3 446.5 792.6 541.3 772.6 491.7 769.6 440.1"/>
  <path class="st4" d="m767.6 403.5 98.79-9 11.49 15.1 19.68 25.88c-37.52 7.16-70.71 4.58-107.2 10.98l-11.47-21.7-11.25-21.26z"/>
  <path class="st4" d="m887.2 523.7-9.12-6.41c-0.45-0.32-0.36-1.01 0.16-1.2l9.31-3.36c0.45-0.16 0.92 0.18 0.91 0.66l-0.19 9.77c0 0.54-0.62 0.85-1.07 0.54z"/>
  <ellipse class="st4" transform="matrix(.7223 -.6916 .6916 .7223 -101.3 749.5)" cx="882.7" cy="500.8" rx="6.17" ry="6.65"/>
  <polygon class="st5" points="770.5 455.6 791.6 498.7 791.2 480.1 769.9 444.1"/>
  <path class="st6" d="m791.6 498.7 18.22-1.25c-5.62-7.59 4.57-9.2-1.26-18.09l-17.42 0.79 0.46 18.55z"/>
  <path class="st2" d="m995.4 209.8-75.12-19.72c-25.01 46.43-77.89 129.7-77.89 129.7l109.8 84.25 74.76-0.65 75.38-122.7-106.9-70.89z"/>
  <polygon class="st3" points="1102 280.7 1068 275.3 1033 269.8 920.2 190.1 995.4 209.8 1058 251.3"/>
  <path class="st4" d="m1102 280.7-20.26 32.99-13.24 21.55-41.88 68.19-27.55 0.24-47.21 0.4c24.28-49.87 56.13-86.22 80.43-134.3l69.71 10.91z"/>
  <path class="st4" d="m858.5 315.3 15.38-5.04c0.76-0.25 1.49 0.46 1.26 1.23l-4.18 13.75c-0.2 0.66-1.01 0.92-1.56 0.49l-11.2-8.71c-0.62-0.48-0.45-1.47 0.3-1.72z"/>
  <ellipse class="st4" transform="matrix(.9926 -.1217 .1217 .9926 -33.54 110.6)" cx="889" cy="330" rx="9.65" ry="8.96"/>
  <polygon class="st5" points="1039 238.8 970.7 225.9 992.7 241.5 1053 248.1"/>
  <path class="st6" d="m970.7 225.9-14.38 22.28c13.71 0.06 6.72 13.31 22.14 14.26l14.21-20.95-21.97-15.59z"/>
  <path class="st2" d="m1027 24.53-49.62-19.91c-21.06 29.57-64.32 81.94-64.32 81.94l67.76 66.95 51.12 5.96 62.01-77.37-66.95-57.57z"/>
  <polygon class="st3" points="1094 82.1 1071 75.46 1048 68.68 977.8 4.62 1027 24.53 1067 58.24"/>
  <path class="st4" d="m1094 82.11-62.01 77.38-51.12-5.97c20.86-31.98 45.73-54.08 66.44-84.83l46.69 13.42z"/>
  <path class="st4" d="m925 84.88 10.94-2.13c0.54-0.11 0.98 0.44 0.75 0.95l-4.04 9.03c-0.2 0.44-0.77 0.54-1.11 0.2l-6.9-6.91c-0.38-0.38-0.18-1.04 0.36-1.14z"/>
  <ellipse class="st4" transform="matrix(.002812 -1 1 .002812 844.4 1042)" cx="944.6" cy="97.5" rx="6.17" ry="6.65"/>
  <polygon class="st5" points="1055 48.08 1009 33.42 1023 45.95 1064 55.64"/>
  <path class="st6" d="m1009 33.42-11.73 13.99c9.36 1.22 3.45 9.67 13.9 11.63l11.5-13.09-13.67-12.53z"/>
 </g>
 <defs>
  <ellipse id="b" cx="1552" cy="479" rx="18.65" ry="11.48"/>
 </defs>
 <clipPath id="f">
  <use xlink:href="#b"/>
 </clipPath>
 <g clip-path="url(#f)">
  <path class="st2" d="m181.7 292.7-56.95-19.1c-21.7 34.54-66.81 96.09-66.81 96.09l80.35 70.69 57.72 3.36 64.51-90.81-78.82-60.23z"/>
  <polygon class="st3" points="260.6 352.9 234.2 347 207.3 340.9 124.8 273.6 181.7 292.7 227.9 328"/>
  <path class="st4" d="m260.6 352.9-28.67 40.36-35.84 50.45-21.27-1.24-36.45-2.13c21.31-37.23 47.77-63.63 69-99.47l26.89 6.07 26.34 5.96z"/>
  <path class="st4" d="m70.7 367 12.13-3.1c0.6-0.15 1.13 0.43 0.91 1.01l-3.94 10.4c-0.19 0.5-0.83 0.66-1.23 0.3l-8.19-7.3c-0.46-0.4-0.28-1.15 0.32-1.31z"/>
  <ellipse class="st4" transform="matrix(.9985 -.0551 .0551 .9985 -20.78 5.725)" cx="93.49" cy="379.9" rx="7.47" ry="6.93"/>
  <polygon class="st5" points="214 317.3 161.9 303.8 178 317 224.3 325.2"/>
  <path class="st6" d="m161.9 303.8-12.25 16.45c10.58 0.76 4.5 10.62 16.35 12.15l12.05-15.43-16.15-13.17z"/>
  <path class="st2" d="m-7.73 588 41.47 43.46c35.31-20.43 103.9-53.83 103.9-53.83l-38.1-100-49.49-29.9-99.42 50.23 41.62 90.04z"/>
  <polygon class="st3" points="-49.36 498 -28.83 515.5 -7.88 533.4 33.74 631.5 -7.73 588 -32.11 535.3"/>
  <path class="st4" d="m-49.36 498 26.73-13.51 72.7-36.73 18.24 11.02 31.25 18.89c-36.22 22.99-71.93 34.01-107.4 55.8l-41.49-35.47z"/>
  <path class="st4" d="m125.2 574-12.17-2.92c-0.6-0.14-0.79-0.91-0.33-1.32l8.33-7.36c0.4-0.36 1.04-0.2 1.23 0.31l3.84 10.28c0.21 0.58-0.31 1.16-0.9 1.01z"/>
  <ellipse class="st4" transform="matrix(.417 -.9089 .9089 .417 -437 422.7)" cx="111" cy="552" rx="6.93" ry="7.47"/>
  <polygon class="st5" points="-24.76 551.2 15.03 587.4 6.89 568.2 -30.22 539.4"/>
  <path class="st6" d="m15.03 587.4 18.51-8.84c-9.01-5.6 0.97-11.49-8.79-18.37l-17.86 8.03 8.14 19.18z"/>
  <path class="st2" d="m191.3 71.75-66.17 13.44c-1.7 45.82-10.99 131.1-10.99 131.1l118 23.61 58.07-29.19 11.72-124.7-110.6-14.29z"/>
  <polygon class="st3" points="301.8 86.03 272.9 95.06 243.3 104.3 125.1 85.18 191.3 71.75 256 80.11"/>
  <path class="st4" d="m301.8 86.03-3.15 33.51-2.06 21.89-6.51 69.26-21.4 10.76-36.67 18.43c-0.19-48.22 10.71-88.79 11.22-135.6l58.57-18.24z"/>
  <path class="st4" d="m125 206.6 10.06-9.83c0.5-0.49 1.34-0.21 1.45 0.48l2.01 12.33c0.1 0.6-0.43 1.1-1.02 0.98l-12.08-2.5c-0.67-0.14-0.92-0.97-0.42-1.46z"/>
  <ellipse class="st4" transform="matrix(.837 -.5472 .5472 .837 -87.71 118.1)" cx="154.4" cy="206.3" rx="8.39" ry="7.79"/>
  <polygon class="st5" points="236.5 77.59 178.2 93.77 201.3 97.5 251 79.47"/>
  <path class="st6" d="m178.2 93.77-2.67 22.9c10.72-5.21 10.35 7.8 22.74 2.63l3.05-21.8-23.12-3.73z"/>
  <path class="st2" d="m28.2-25.38-41.64 6.32c-2.48 28.5-10.92 81.34-10.92 81.34l72.76 18.36 37.09-16.38 11.18-77.31-68.47-12.33z"/>
  <polygon class="st3" points="96.66 -13.05 78.32 -8.32 59.6 -3.51 -13.44 -19.07 28.2 -25.39 68.29 -18.16"/>
  <path class="st4" d="m96.66-13.05-3 20.78-1.96 13.58-6.21 42.95-13.67 6.04-23.42 10.34c1.38-30.05 9.43-54.99 11.2-84.15l18.72-4.82 18.34-4.72z"/>
  <path class="st4" d="m-17.26 56.55 6.58-5.82c0.33-0.29 0.84-0.09 0.89 0.34l0.87 7.75c0.04 0.37-0.3 0.67-0.67 0.58l-7.45-1.93c-0.42-0.11-0.54-0.64-0.22-0.92z"/>
  <ellipse class="st4" transform="matrix(.8632 -.5049 .5049 .8632 -28.78 8.383)" cx="1.08" cy="57.29" rx="5.23" ry="4.86"/>
  <polygon class="st5" points="56.21 -20.34 19.39 -12.07 33.68 -9.03 65.19 -18.72"/>
  <path class="st6" d="m19.39-12.07-2.37 14.18c6.84-2.91 6.2 5.19 14.08 2.35l2.58-13.49-14.29-3.04z"/>
  <path class="st2" d="m419.4-3.06-40.65 16.76c4.57 29.51 9.16 85.18 9.16 85.18l78.34 0.53 33.52-25.84-7.9-81.16-72.47 4.53z"/>
  <polygon class="st3" points="491.8 -7.58 474.4 1.77 456.6 11.31 378.7 13.7 419.4 -3.06 461.8 -5.71"/>
  <path class="st4" d="m491.8-7.58 2.12 21.82 1.39 14.25 4.39 45.09-12.35 9.52-21.18 16.31c-6.08-30.81-4.12-58.1-9.57-88.1l35.2-18.89z"/>
  <path class="st4" d="m393.6 91.32 5.22-7.53c0.26-0.37 0.83-0.3 0.99 0.13l2.81 7.64c0.14 0.37-0.14 0.76-0.53 0.75l-8.03-0.11c-0.46-0.01-0.72-0.51-0.46-0.88z"/>
  <ellipse class="st4" transform="matrix(.718 -.696 .696 .718 55.38 311.7)" cx="412.4" cy="87.51" rx="5.46" ry="5.07"/>
  <polygon class="st5" points="449 -4.91 413.7 12.63 429 12.16 458.5 -5.5"/>
  <path class="st6" d="m413.7 12.63 1.12 14.97c6.21-4.66 7.58 3.71 14.86-1.13l-0.74-14.31-15.24 0.47z"/>
  <path class="st2" d="m276.7 13.77 33.35-24.73c-11-25.95-28.04-75.86-28.04-75.86l-71.84 17.59-24.73 31.39 25.96 72.47 65.3-20.86z"/>
  <polygon class="st3" points="211.4 34.64 225.2 22.05 239.2 9.22 310 -10.95 276.7 13.77 238.5 25.99"/>
  <path class="st4" d="m211.4 34.64-6.98-19.48-4.56-12.73-14.42-40.27 9.11-11.57 15.62-19.82c12.67 26.8 17.18 52.24 29.09 78.44l-27.86 25.43z"/>
  <path class="st4" d="m278.5-78.56-3.04 8.1c-0.15 0.4-0.69 0.47-0.93 0.11l-4.33-6.34c-0.21-0.31-0.05-0.73 0.31-0.81l7.38-1.76c0.4-0.1 0.75 0.3 0.61 0.7z"/>
  <ellipse class="st4" transform="matrix(.5261 -.8504 .8504 .5261 184.4 189.4)" cx="262.1" cy="-70.74" rx="5.16" ry="4.79"/>
  <polygon class="st5" points="250 22.31 278.2 -1.89 264.4 2.06 241.4 25.05"/>
  <path class="st6" d="m278.2-1.89-4.48-13.45c-4.61 5.7-7.8-1.65-13.35 4.46l3.98 12.93 13.85-3.94z"/>
  <path class="st2" d="m-72.43 304.1-7.91 45.74c28.93 12.53 81.23 39.76 81.23 39.76l44.57-69.66-4.2-44.49-76.93-38.63-36.76 67.28z"/>
  <polygon class="st3" points="-35.68 236.9 -37.13 257.7 -38.62 278.9 -80.34 349.9 -72.43 304.1 -50.91 264.7"/>
  <path class="st4" d="m-35.68 236.9 20.68 10.38 56.25 28.25 1.55 16.39 2.65 28.09c-30.94-11.91-54.21-29.02-84.07-41.04l1.49-21.25 1.45-20.82z"/>
  <path class="st4" d="m-2.62 380.2-3.79-8.9c-0.19-0.44 0.2-0.91 0.67-0.81l8.4 1.79c0.41 0.09 0.6 0.55 0.37 0.9l-4.61 7.11c-0.25 0.4-0.85 0.34-1.04-0.09z"/>
  <ellipse class="st4" transform="matrix(.9786 -.206 .206 .9786 -74.33 8.685)" cx="4.55" cy="361.3" rx="5.35" ry="5.77"/>
  <polygon class="st5" points="-57.4 276.6 -61.59 318 -53.42 304.1 -52.57 267.8"/>
  <path class="st6" d="m-61.59 318 14 7.43c-0.66-8.17 7.58-4.68 7.36-13.91l-13.2-7.4-8.16 13.88z"/>
  <path class="st2" d="m4.34 126.8-34.13 1.32c-4.58 22.74-16.15 64.55-16.15 64.55l56.97 21.39 31.37-9.85 16-61.28-54.06-16.13z"/>
  <polygon class="st3" points="58.39 142.9 43.18 145.1 27.66 147.3 -29.79 128.1 4.34 126.8 35.99 136.2"/>
  <path class="st4" d="m58.39 142.9-4.3 16.48-2.81 10.76-8.89 34.05-11.56 3.63-19.81 6.21c3.83-24.09 12.57-43.46 16.64-66.79l30.73-4.34z"/>
  <path class="st4" d="m-39.71 188.7 5.82-4.09c0.29-0.2 0.69 0 0.69 0.36v6.32c0 0.31-0.31 0.52-0.59 0.41l-5.83-2.23c-0.32-0.13-0.37-0.57-0.09-0.77z"/>
  <ellipse class="st4" transform="matrix(.9141 -.4055 .4055 .9141 -79.57 6.266)" cx="-25" cy="191" rx="4.24" ry="3.94"/>
  <polygon class="st5" points="26.45 133.4 -3.97 136.7 7.27 140.5 33.54 135.5"/>
  <path class="st6" d="m-3.97 136.7-3.2 11.22c5.78-1.73 4.53 4.74 11.14 3.16l3.3-10.63-11.24-3.75z"/>
  <path class="st2" d="m369.9 200.9-58.06 62.89c32.24 48.37 85.93 142.9 85.93 142.9l138.8-63.21 38.05-73.08-80.41-136.9-124.3 67.33z"/>
  <polygon class="st3" points="494.2 133.6 471.1 164.4 447.5 195.8 311.8 263.8 369.9 200.9 442.7 161.5"/>
  <path class="st4" d="m494.2 133.6 21.62 36.79 14.12 24.04 44.68 76.04-14.02 26.93-24.04 46.14c-35.96-49.43-54.85-99.23-89.04-147.8l23.59-31.41 23.09-30.78z"/>
  <path class="st4" d="m401.8 388.6 3.05-17.57c0.15-0.87 1.22-1.21 1.85-0.59l11.22 11.19c0.54 0.54 0.37 1.46-0.32 1.77l-14.27 6.39c-0.8 0.35-1.68-0.33-1.53-1.19z"/>
  <ellipse class="st4" transform="matrix(.3586 -.9335 .9335 .3586 -65.19 638.2)" cx="431.8" cy="366.5" rx="10.64" ry="9.87"/>
  <polygon class="st5" points="420.8 173.4 372.8 233.2 399.4 219.9 437.1 164.5"/>
  <path class="st6" d="m372.8 233.2 14.24 25.53c7.16-13.31 16.43 0.34 25.33-14.16l-13.03-24.67-26.54 13.3z"/>
  <path class="st2" d="m735.5 54.45 7.79 55.3c37.75 3.7 107.7 15.62 107.7 15.62l25.38-96.21-21.2-49.4-102.3-15.9-17.32 90.59z"/>
  <polygon class="st3" points="752.8 -36.14 758.8 -11.76 765 13.13 743.3 109.8 735.5 54.45 745.7 1.41"/>
  <path class="st4" d="m752.8-36.14 45.48 7.06 56.86 8.83 7.82 18.21 13.38 31.2c-39.82-2.25-72.78-13.27-111.4-16.04l-6.13-24.89-6-24.37z"/>
  <path class="st4" d="m843.5 115.9-7.62-8.8c-0.38-0.44-0.11-1.12 0.47-1.18l10.28-1.05c0.5-0.05 0.89 0.41 0.76 0.9l-2.67 9.85c-0.14 0.55-0.85 0.71-1.22 0.28z"/>
  <ellipse class="st4" transform="matrix(.8685 -.4957 .4957 .8685 65.7 430.8)" cx="844.8" cy="91.58" rx="6.44" ry="6.94"/>
  <polygon class="st5" points="742.6 17.39 753 66.32 757.3 47.42 744.9 5.5"/>
  <path class="st6" d="m753 66.32 18.78 3.35c-3.77-9.11 6.96-8.16 3.3-18.64l-17.84-3.61-4.24 18.9z"/>
  <path class="st2" d="m1138 148-37.13 11.67c1.77 26.37 1.56 75.81 1.56 75.81l69.04 6.47 31.54-20.22-0.75-72.17-64.26-1.56z"/>
  <polygon class="st3" points="1203 149.5 1186 156.5 1170 163.5 1101 159.6 1138 148 1176 148.9"/>
  <path class="st4" d="m1203 149.5 0.2 19.4 0.13 12.67 0.42 40.1-11.62 7.45-19.92 12.76c-3-27.63 0.82-51.55-1.7-78.42l32.49-13.96z"/>
  <path class="st4" d="m1108 229.2 5.18-6.24c0.26-0.31 0.76-0.2 0.86 0.19l1.89 6.95c0.09 0.34-0.18 0.66-0.53 0.62l-7.07-0.71c-0.4-0.04-0.59-0.51-0.33-0.81z"/>
  <ellipse class="st4" transform="matrix(.7755 -.6313 .6313 .7755 109.1 761.4)" cx="1125" cy="227.3" rx="4.84" ry="4.49"/>
  <polygon class="st5" points="1165 148.6 1132 161.4 1146 162.1 1173 148.8"/>
  <path class="st6" d="m1132 161.4-0.16 13.29c5.83-3.63 6.4 3.85 13.19 0.14l0.44-12.68-13.47-0.75z"/>
  <path class="st2" d="m1285 275.9-60.61-5.14c-13.07 39.19-42.69 110.6-42.69 110.6l96 50.28 57.6-10.54 41.7-104.8-92-40.35z"/>
  <polygon class="st3" points="1377 316.2 1349 316.7 1322 317.2 1224 270.7 1285 275.9 1339 299.5"/>
  <path class="st4" d="m1377 316.2-11.21 28.18-7.32 18.41-23.16 58.23-21.22 3.88-36.37 6.64c12.04-41.74 31.74-74.06 44.04-114.4l55.24-0.93z"/>
  <path class="st4" d="m1193 375.6 11.19-5.95c0.55-0.3 1.21 0.16 1.13 0.78l-1.38 11.17c-0.07 0.54-0.65 0.85-1.13 0.59l-9.81-5.22c-0.55-0.29-0.55-1.07 0-1.37z"/>
  <ellipse class="st4" transform="matrix(.957 -.2899 .2899 .957 -58.65 369.9)" cx="1219" cy="382.9" rx="7.56" ry="7.02"/>
  <polygon class="st5" points="1322 292.4 1268 291.6 1287 300.7 1335 297.7"/>
  <path class="st6" d="m1268 291.6-8.11 19.12c10.59-1.79 6.98 9.37 19 8.03l8.16-18.07-19.05-9.08z"/>
  <path class="st2" d="m1403 194.2-24.64 53.32c31.26 24.78 86.28 75.18 86.28 75.18l77.27-70.57 9.42-55.75-81.39-72.39-66.94 70.21z"/>
  <polygon class="st3" points="1470 124 1461 149 1453 174.5 1378 247.6 1403 194.2 1442 153.1"/>
  <path class="st4" d="m1470 124 81.39 72.39-3.47 20.54-5.96 35.2c-33.91-24.68-56.76-53.21-89.33-77.68l8.77-25.49 8.6-24.96z"/>
  <path class="st4" d="m1464 310.1-1.72-12.12c-0.09-0.6 0.54-1.05 1.08-0.77l9.68 4.94c0.47 0.24 0.55 0.87 0.16 1.22l-7.97 7.18c-0.44 0.4-1.15 0.14-1.23-0.45z"/>
  <ellipse class="st4" transform="matrix(.0541 -.9985 .9985 .0541 1110 1750)" cx="1478" cy="289.3" rx="7.3" ry="6.78"/>
  <polygon class="st5" points="1430 165.5 1412 214.7 1426 200.4 1439 156.3"/>
  <path class="st6" d="m1412 214.7 14.69 13.66c1.86-10.2 10.8-3.24 13.55-14.59l-13.71-13.36-14.53 14.29z"/>
  <path class="st2" d="m1481 365.6-45.88 31.05c13.17 35.24 33.03 102.8 33.03 102.8l96.79-19.32 34.78-40.43-30.44-98.12-88.28 24.06z"/>
  <polygon class="st3" points="1570 341.6 1550 357.6 1531 373.9 1435 396.7 1481 365.6 1533 351.5"/>
  <path class="st4" d="m1570 341.6 8.19 26.38 5.34 17.23 16.92 54.52-12.82 14.9-21.97 25.52c-15.36-36.46-19.9-70.64-34.28-106.3l19.5-16.31 19.12-15.98z"/>
  <path class="st4" d="m1474 488.6 4.52-10.62c0.22-0.53 0.95-0.58 1.25-0.1l5.41 8.71c0.26 0.42 0.02 0.97-0.47 1.07l-9.93 1.92c-0.55 0.1-1-0.46-0.78-0.98z"/>
  <ellipse class="st4" transform="matrix(.5623 -.8269 .8269 .5623 258.5 1447)" cx="1496" cy="479.2" rx="6.89" ry="6.39"/>
  <polygon class="st5" points="1517 355.8 1478 386.4 1497 382 1529 352.6"/>
  <path class="st6" d="m1478 386.4 5.2 18.19c6.48-7.33 10.3 2.64 18.05-5.18l-4.56-17.47-18.69 4.46z"/>
  <path class="st2" d="m1596 243.7-16.17 62.55c38.7 20.66 108.2 64.39 108.2 64.39l69.74-91.57-0.78-62.19-102.3-62.32-58.63 89.14z"/>
  <polygon class="st3" points="1655 154.6 1651 183.3 1646 212.6 1580 306.3 1596 243.7 1631 191.5"/>
  <path class="st4" d="m1655 154.6 27.51 16.75 74.82 45.57 0.29 22.92 0.48 39.27c-41.56-20.04-71.9-46.42-112-66.48l4.48-29.31 4.38-28.72z"/>
  <path class="st4" d="m1684 357.2-4.24-12.78c-0.21-0.63 0.38-1.24 1.02-1.05l11.45 3.44c0.55 0.17 0.77 0.84 0.42 1.29l-7.21 9.34c-0.41 0.52-1.23 0.38-1.44-0.24z"/>
  <ellipse class="st4" transform="matrix(.9921 -.1254 .1254 .9921 -28.22 215.4)" cx="1697" cy="331.8" rx="7.45" ry="8.03"/>
  <polygon class="st5" points="1620 207.3 1610 264.2 1623 245.9 1628 195.6"/>
  <path class="st6" d="m1610 264.2 18.58 11.9c0.01-11.41 11.05-5.64 11.79-18.46l-17.47-11.76-12.9 18.32z"/>
  <path class="st2" d="m1541 23.83-32.83 33.77c17.05 27.06 45.24 79.83 45.24 79.83l77.23-32.8 21.96-39.66-42.29-76.41-69.31 35.27z"/>
  <polygon class="st3" points="1610 -11.45 1597 5.15 1583 22.1 1508 57.6 1541 23.83 1581 3.17"/>
  <path class="st4" d="m1610-11.45 42.3 76.41-8.09 14.61-13.87 25.04c-19.08-27.7-28.77-55.36-46.89-82.53l13.42-16.94 13.13-16.59z"/>
  <path class="st4" d="m1556 127.5 1.93-9.62c0.1-0.48 0.69-0.65 1.02-0.3l6.01 6.31c0.29 0.31 0.19 0.81-0.2 0.97l-7.94 3.31c-0.45 0.19-0.92-0.2-0.82-0.67z"/>
  <ellipse class="st4" transform="matrix(.3825 -.924 .924 .3825 864 1524)" cx="1572" cy="115.8" rx="5.85" ry="5.43"/>
  <polygon class="st5" points="1569 9.4 1542 41.64 1557 34.7 1578 4.77"/>
  <path class="st6" d="m1542 41.64 7.47 14.24c4.13-7.22 9.03 0.42 14.13-7.43l-6.82-13.75-14.78 6.94z"/>
  <path class="st2" d="m1442-123.2-57.77-11.7c-16.95 36.26-53.42 101.6-53.42 101.6l86.8 59.1 56.61-3.72 51.82-96.23-84.04-49.1z"/>
  <polygon class="st3" points="1526 -74.08 1499 -76.68 1472 -79.33 1384 -134.9 1442 -123.2 1491 -94.43"/>
  <path class="st4" d="m1526-74.08-51.82 96.24-20.86 1.37-35.75 2.34c16.24-38.83 38.8-67.74 55.14-105.2l53.29 5.26z"/>
  <path class="st4" d="m1343-37.32 11.43-4.48c0.57-0.22 1.15 0.29 1.01 0.88l-2.58 10.6c-0.12 0.51-0.72 0.74-1.16 0.44l-8.86-6.11c-0.48-0.36-0.4-1.12 0.16-1.33z"/>
  <ellipse class="st4" transform="matrix(.984 -.1779 .1779 .984 26.7 242.6)" cx="1366" cy="-27.54" rx="7.33" ry="6.8"/>
  <polygon class="st5" points="1476 -103.1 1424 -109.9 1441 -99.04 1487 -96.64"/>
  <path class="st6" d="m1424-109.9-9.94 17.5c10.39-0.54 5.67 9.79 17.39 9.85l9.87-16.48-17.32-10.87z"/>
  <path class="st2" d="m1114-14.96 6.71 46.66c31.87 3.02 90.93 12.92 90.93 12.92l21.19-81.26-18.02-41.65-86.41-13.18-14.4 76.51z"/>
  <polygon class="st3" points="1128 -91.46 1133 -70.9 1138 -49.91 1120 31.7 1114 -14.96 1122 -59.76"/>
  <path class="st4" d="m1128-91.47 38.41 5.85 48.01 7.32 6.64 15.35 11.37 26.3c-33.62-1.8-61.46-11.03-94.07-13.27l-5.23-20.99-5.13-20.56z"/>
  <path class="st4" d="m1205 36.62-6.45-7.41c-0.32-0.37-0.09-0.94 0.39-0.99l8.68-0.91c0.42-0.04 0.75 0.35 0.64 0.75l-2.23 8.32c-0.12 0.47-0.71 0.61-1.03 0.24z"/>
  <ellipse class="st4" transform="matrix(.8671 -.4982 .4982 .8671 152.3 602.9)" cx="1206" cy="16.11" rx="5.44" ry="5.86"/>
  <polygon class="st5" points="1119 -46.26 1128 -4.99 1132 -20.95 1121 -56.3"/>
  <path class="st6" d="m1128-4.99 15.85 2.78c-3.2-7.68 5.85-6.9 2.74-15.74l-15.07-3-3.52 15.96z"/>
  <path class="st2" d="m1045 457.3-41.32 55.35c29.94 36.11 80.97 107.5 80.97 107.5l106.1-62.39 24.4-61.85-76.03-103.1-94.1 64.48z"/>
  <polygon class="st3" points="1139 392.8 1123 419.4 1107 446.6 1004 512.6 1045 457.3 1100 419.5"/>
  <path class="st4" d="m1139 392.8 20.44 27.71 13.35 18.11 42.25 57.27-8.99 22.79-15.42 39.05c-33.01-36.65-52.36-75.04-83.88-111.1l16.29-27.19 15.96-26.63z"/>
  <path class="st4" d="m1086 605.3 0.97-14.36c0.05-0.71 0.88-1.07 1.43-0.63l9.94 8.04c0.48 0.39 0.42 1.14-0.11 1.45l-10.91 6.33c-0.61 0.34-1.36-0.13-1.32-0.83z"/>
  <ellipse class="st4" transform="matrix(.2595 -.9657 .9657 .2595 256 1504)" cx="1109" cy="585" rx="8.58" ry="7.97"/>
  <polygon class="st5" points="1084 430.9 1050 483 1070 470 1096 422.4"/>
  <path class="st6" d="m1050 483 13.57 19.29c4.63-11.29 13.22-1.1 19.14-13.5l-12.53-18.71-20.18 12.92z"/>
  <path class="st2" d="m1376 102.3-14.06-53.72c-37.7 0.7-108.1-3.04-108.1-3.04l-14 97.93 26.62 46.35 102.9 3.93 6.68-91.45z"/>
  <polygon class="st3" points="1369 193.8 1360 170.4 1351 146.5 1362 48.58 1376 102.3 1372 155.8"/>
  <path class="st4" d="m1369 193.8-102.9-3.93-9.81-17.08-16.8-29.27c39.58-2.36 73.4 4.74 111.9 3.02l8.91 23.87 8.73 23.39z"/>
  <path class="st4" d="m1262 54.05 8.53 7.81c0.42 0.39 0.23 1.09-0.33 1.21l-10.03 2.22c-0.49 0.11-0.93-0.31-0.85-0.8l1.5-10.03c0.09-0.55 0.76-0.79 1.18-0.41z"/>
  <ellipse class="st4" transform="matrix(.8053 -.5929 .5929 .8053 199.6 764.3)" cx="1264" cy="78.2" rx="6.4" ry="6.9"/>
  <polygon class="st5" points="1373 139.7 1357 92.59 1355 111.8 1372 151.7"/>
  <path class="st6" d="m1357 92.59-18.93-1.15c4.77 8.57-5.93 8.86-1.12 18.79l18.04 1.51 2.01-19.15z"/>
  <path class="st2" d="m255.6 436.7-33.07 28.52c13.54 26.38 35.28 77.41 35.28 77.41l74-24.01 23.51-34.84-32.84-74.02-66.88 26.94z"/>
  <polygon class="st3" points="322.5 409.7 309 424 295.2 438.5 222.6 465.2 255.6 436.7 294.8 420.9"/>
  <path class="st4" d="m322.5 409.7 8.83 19.9 5.77 13 18.25 41.12-8.66 12.84-14.85 22c-15.37-27.13-22.06-53.47-36.58-80.04l13.77-14.56 13.47-14.26z"/>
  <path class="st4" d="m260.9 533.7 2.56-8.73c0.13-0.43 0.69-0.54 0.97-0.19l5.04 6.32c0.24 0.31 0.11 0.76-0.27 0.88l-7.6 2.41c-0.42 0.13-0.83-0.26-0.7-0.69z"/>
  <ellipse class="st4" transform="matrix(.4622 -.8868 .8868 .4622 -315.6 527.9)" cx="277.4" cy="524.2" rx="5.43" ry="5.04"/>
  <polygon class="st5" points="283 425.6 255.2 453.2 269.4 448 291.8 422.1"/>
  <path class="st6" d="m255.2 453.2 5.74 13.76c4.4-6.33 8.31 1.12 13.66-5.71l-5.18-13.26-14.22 5.21z"/>
  <path class="st2" d="m585.8 136.2 34.63 25.97c22.67-18.71 67.48-50.6 67.48-50.6l-38.95-66.57-38.73-15.38-64.71 47.52 40.28 59.06z"/>
  <polygon class="st3" points="545.5 77.1 562.2 87.14 579.2 97.39 620.4 162.1 585.8 136.2 562.2 101.6"/>
  <path class="st4" d="m545.5 77.1 17.4-12.77 11.37-8.34 35.95-26.4 14.27 5.67 24.45 9.72c-23.02 20.64-47.1 32.71-69.75 52.41l-33.69-20.29z"/>
  <path class="st4" d="m678.6 110.5-9-0.63c-0.45-0.03-0.67-0.55-0.39-0.9l5.05-6.22c0.24-0.3 0.71-0.26 0.91 0.07l3.95 6.85c0.22 0.38-0.08 0.86-0.52 0.83z"/>
  <ellipse class="st4" transform="matrix(.2617 -.9652 .9652 .2617 398.5 714)" cx="665.9" cy="96.48" rx="4.99" ry="5.38"/>
  <polygon class="st5" points="569.3 112 601.9 133 593.8 120.4 564 104.2"/>
  <path class="st6" d="m601.9 133 12.11-8.48c-7.07-2.92-0.67-8.28-8.43-12.01l-11.74 7.83 8.06 12.66z"/>
  <path class="st2" d="m696.1 187.3-26.19 32.88c17.52 22.54 47.2 66.94 47.2 66.94l65.72-35.92 16.03-37.16-44.28-64.16-58.48 37.42z"/>
  <polygon class="st3" points="754.5 149.8 744.3 165.8 733.9 182 669.9 220.2 696.1 187.3 730.3 165.4"/>
  <path class="st4" d="m754.5 149.8 11.91 17.25 7.78 11.27 24.6 35.65-5.9 13.69-10.13 23.46c-19.38-22.93-30.42-46.65-48.9-69.19l10.43-16.23 10.21-15.9z"/>
  <path class="st4" d="m718.4 278.1 0.87-8.72c0.04-0.43 0.55-0.64 0.88-0.35l5.89 5.08c0.28 0.25 0.24 0.7-0.1 0.88l-6.76 3.64c-0.37 0.2-0.82-0.1-0.78-0.53z"/>
  <ellipse class="st4" transform="matrix(.2897 -.9571 .9571 .2897 265.4 890)" cx="732.3" cy="266.2" rx="5.22" ry="4.85"/>
  <polygon class="st5" points="720 172 698.6 203 711.2 195.5 727.7 167"/>
  <path class="st6" d="m698.6 203 7.89 12c3.03-6.78 8.06-0.42 11.9-7.84l-7.26-11.62-12.53 7.46z"/>
  <path class="st2" d="m611.4 338.6-40.48 31.32c14.21 31.72 36.48 92.8 36.48 92.8l88.1-23.49 29.69-39.31-33.82-88.68-79.97 27.36z"/>
  <polygon class="st3" points="691.4 311.2 674.7 327.1 657.7 343.2 570.9 369.9 611.4 338.6 658.2 322.5"/>
  <path class="st4" d="m691.4 311.2 9.09 23.84 24.74 64.84-10.94 14.49-18.75 24.82c-16.3-32.72-22.49-63.95-37.84-95.96l17.02-16.18 16.68-15.85z"/>
  <path class="st4" d="m611.6 452.4 3.54-10.06c0.18-0.5 0.84-0.59 1.15-0.16l5.5 7.71c0.27 0.37 0.08 0.9-0.37 1.01l-9.05 2.35c-0.5 0.13-0.95-0.36-0.77-0.85z"/>
  <ellipse class="st4" transform="matrix(.5086 -.861 .861 .5086 -70.59 761)" cx="631.5" cy="442.4" rx="6.36" ry="5.9"/>
  <polygon class="st5" points="644.1 327.4 609.9 357.9 626.9 352.7 654.6 323.8"/>
  <path class="st6" d="m609.9 357.9 5.86 16.46c5.54-7.14 9.65 1.83 16.34-5.84l-5.23-15.84-16.97 5.22z"/>
  <path class="st2" d="m553.7 475.1-51.83-33.35c-30.29 28.89-90.66 78.73-90.66 78.73l62.1 90.55 56.56 17.88 87.04-74.06-63.21-79.75z"/>
  <polygon class="st3" points="616.9 554.8 592.2 542.3 567 529.5 501.9 441.7 553.7 475.1 590.7 521.8"/>
  <path class="st4" d="m616.9 554.8-87.05 74.07-20.84-6.59-35.72-11.3c30.58-31.66 63.54-51.25 93.69-81.54l25.21 12.82 24.71 12.54z"/>
  <path class="st4" d="m424.6 521 12.84-0.02c0.64 0 1.01 0.72 0.65 1.24l-6.54 9.35c-0.32 0.45-0.99 0.45-1.3-0.01l-6.31-9.32c-0.35-0.53 0.03-1.24 0.66-1.24z"/>
  <ellipse class="st4" transform="matrix(.1918 -.9814 .9814 .1918 -170.8 871.8)" cx="444" cy="539.6" rx="7.11" ry="7.66"/>
  <polygon class="st5" points="579.6 507.7 531.2 481.2 543.9 498.3 587.9 518.2"/>
  <path class="st6" d="m531.2 481.2-16.33 13.28c10.33 3.42 1.8 11.69 13.2 16.2l15.87-12.31-12.74-17.17z"/>
  <path class="st2" d="m772.6 491.7 20.09 49.58c35.93-5.34 103.7-10.51 103.7-10.51l1.23-95.29-31.18-40.98-98.79 9 4.96 88.2z"/>
  <polygon class="st3" points="767.6 403.5 778.8 424.8 790.3 446.5 792.6 541.3 772.6 491.7 769.6 440.1"/>
  <path class="st4" d="m767.6 403.5 98.79-9 11.49 15.1 19.68 25.88c-37.52 7.16-70.71 4.58-107.2 10.98l-11.47-21.7-11.25-21.26z"/>
  <path class="st4" d="m887.2 523.7-9.12-6.41c-0.45-0.32-0.36-1.01 0.16-1.2l9.31-3.36c0.45-0.16 0.92 0.18 0.91 0.66l-0.19 9.77c0 0.54-0.62 0.85-1.07 0.54z"/>
  <ellipse class="st4" transform="matrix(.7223 -.6916 .6916 .7223 -101.3 749.5)" cx="882.7" cy="500.8" rx="6.17" ry="6.65"/>
  <polygon class="st5" points="770.5 455.6 791.6 498.7 791.2 480.1 769.9 444.1"/>
  <path class="st6" d="m791.6 498.7 18.22-1.25c-5.62-7.59 4.57-9.2-1.26-18.09l-17.42 0.79 0.46 18.55z"/>
  <path class="st2" d="m995.4 209.8-75.12-19.72c-25.01 46.43-77.89 129.7-77.89 129.7l109.8 84.25 74.76-0.65 75.38-122.7-106.9-70.89z"/>
  <polygon class="st3" points="1102 280.7 1068 275.3 1033 269.8 920.2 190.1 995.4 209.8 1058 251.3"/>
  <path class="st4" d="m1102 280.7-20.26 32.99-13.24 21.55-41.88 68.19-27.55 0.24-47.21 0.4c24.28-49.87 56.13-86.22 80.43-134.3l69.71 10.91z"/>
  <path class="st4" d="m858.5 315.3 15.38-5.04c0.76-0.25 1.49 0.46 1.26 1.23l-4.18 13.75c-0.2 0.66-1.01 0.92-1.56 0.49l-11.2-8.71c-0.62-0.48-0.45-1.47 0.3-1.72z"/>
  <ellipse class="st4" transform="matrix(.9926 -.1217 .1217 .9926 -33.54 110.6)" cx="889" cy="330" rx="9.65" ry="8.96"/>
  <polygon class="st5" points="1039 238.8 970.7 225.9 992.7 241.5 1053 248.1"/>
  <path class="st6" d="m970.7 225.9-14.38 22.28c13.71 0.06 6.72 13.31 22.14 14.26l14.21-20.95-21.97-15.59z"/>
  <path class="st2" d="m1027 24.53-49.62-19.91c-21.06 29.57-64.32 81.94-64.32 81.94l67.76 66.95 51.12 5.96 62.01-77.37-66.95-57.57z"/>
  <polygon class="st3" points="1094 82.1 1071 75.46 1048 68.68 977.8 4.62 1027 24.53 1067 58.24"/>
  <path class="st4" d="m1094 82.11-62.01 77.38-51.12-5.97c20.86-31.98 45.73-54.08 66.44-84.83l46.69 13.42z"/>
  <path class="st4" d="m925 84.88 10.94-2.13c0.54-0.11 0.98 0.44 0.75 0.95l-4.04 9.03c-0.2 0.44-0.77 0.54-1.11 0.2l-6.9-6.91c-0.38-0.38-0.18-1.04 0.36-1.14z"/>
  <ellipse class="st4" transform="matrix(.002812 -1 1 .002812 844.4 1042)" cx="944.6" cy="97.5" rx="6.17" ry="6.65"/>
  <polygon class="st5" points="1055 48.08 1009 33.42 1023 45.95 1064 55.64"/>
  <path class="st6" d="m1009 33.42-11.73 13.99c9.36 1.22 3.45 9.67 13.9 11.63l11.5-13.09-13.67-12.53z"/>
 </g>
 <defs>
  <path id="d" d="m1600 24.84v428.5c0 8.31-4.08 15.66-10.34 20.17-2.4 1.73-5.84 0.86-6.95-1.88-3.92-9.72-16.41-16.83-31.21-16.83-9.47 0-17.99 2.91-23.93 7.55-1.91 1.49-4.64 1.25-6.24-0.56-7.66-8.68-21.22-14.45-36.68-14.45-13.95 0-26.37 4.71-34.28 12.01-1.84 1.7-4.72 1.55-6.42-0.29-9.32-10.07-25.83-16.76-44.62-16.76-27.05 0-49.35 13.85-52.36 31.7-0.4 2.39-2.49 4.14-4.91 4.14l-1317 0.04c-13.71 0-24.83-11.12-24.83-24.84v-428.5c0-13.72 11.12-24.84 24.83-24.84h1550c13.71 0 24.83 11.12 24.83 24.84z"/>
 </defs>
 <clipPath id="c">
  <use xlink:href="#d"/>
 </clipPath>
 <g clip-path="url(#c)">
  <path class="st2" d="m181.7 292.7-56.95-19.1c-21.7 34.54-66.81 96.09-66.81 96.09l80.35 70.69 57.72 3.36 64.51-90.81-78.82-60.23z"/>
  <polygon class="st3" points="260.6 352.9 234.2 347 207.3 340.9 124.8 273.6 181.7 292.7 227.9 328"/>
  <path class="st4" d="m260.6 352.9-28.67 40.36-35.84 50.45-21.27-1.24-36.45-2.13c21.31-37.23 47.77-63.63 69-99.47l26.89 6.07 26.34 5.96z"/>
  <path class="st4" d="m70.7 367 12.13-3.1c0.6-0.15 1.13 0.43 0.91 1.01l-3.94 10.4c-0.19 0.5-0.83 0.66-1.23 0.3l-8.19-7.3c-0.46-0.4-0.28-1.15 0.32-1.31z"/>
  <ellipse class="st4" transform="matrix(.9985 -.0551 .0551 .9985 -20.78 5.725)" cx="93.49" cy="379.9" rx="7.47" ry="6.93"/>
  <polygon class="st5" points="214 317.3 161.9 303.8 178 317 224.3 325.2"/>
  <path class="st6" d="m161.9 303.8-12.25 16.45c10.58 0.76 4.5 10.62 16.35 12.15l12.05-15.43-16.15-13.17z"/>
  <path class="st2" d="m-7.73 588 41.47 43.46c35.31-20.43 103.9-53.83 103.9-53.83l-38.1-100-49.49-29.9-99.42 50.23 41.62 90.04z"/>
  <polygon class="st3" points="-49.36 498 -28.83 515.5 -7.88 533.4 33.74 631.5 -7.73 588 -32.11 535.3"/>
  <path class="st4" d="m-49.36 498 26.73-13.51 72.7-36.73 18.24 11.02 31.25 18.89c-36.22 22.99-71.93 34.01-107.4 55.8l-41.49-35.47z"/>
  <path class="st4" d="m125.2 574-12.17-2.92c-0.6-0.14-0.79-0.91-0.33-1.32l8.33-7.36c0.4-0.36 1.04-0.2 1.23 0.31l3.84 10.28c0.21 0.58-0.31 1.16-0.9 1.01z"/>
  <ellipse class="st4" transform="matrix(.417 -.9089 .9089 .417 -437 422.7)" cx="111" cy="552" rx="6.93" ry="7.47"/>
  <polygon class="st5" points="-24.76 551.2 15.03 587.4 6.89 568.2 -30.22 539.4"/>
  <path class="st6" d="m15.03 587.4 18.51-8.84c-9.01-5.6 0.97-11.49-8.79-18.37l-17.86 8.03 8.14 19.18z"/>
  <path class="st2" d="m191.3 71.75-66.17 13.44c-1.7 45.82-10.99 131.1-10.99 131.1l118 23.61 58.07-29.19 11.72-124.7-110.6-14.29z"/>
  <polygon class="st3" points="301.8 86.03 272.9 95.06 243.3 104.3 125.1 85.18 191.3 71.75 256 80.11"/>
  <path class="st4" d="m301.8 86.03-3.15 33.51-2.06 21.89-6.51 69.26-21.4 10.76-36.67 18.43c-0.19-48.22 10.71-88.79 11.22-135.6l58.57-18.24z"/>
  <path class="st4" d="m125 206.6 10.06-9.83c0.5-0.49 1.34-0.21 1.45 0.48l2.01 12.33c0.1 0.6-0.43 1.1-1.02 0.98l-12.08-2.5c-0.67-0.14-0.92-0.97-0.42-1.46z"/>
  <ellipse class="st4" transform="matrix(.837 -.5472 .5472 .837 -87.71 118.1)" cx="154.4" cy="206.3" rx="8.39" ry="7.79"/>
  <polygon class="st5" points="236.5 77.59 178.2 93.77 201.3 97.5 251 79.47"/>
  <path class="st6" d="m178.2 93.77-2.67 22.9c10.72-5.21 10.35 7.8 22.74 2.63l3.05-21.8-23.12-3.73z"/>
  <path class="st2" d="m28.2-25.38-41.64 6.32c-2.48 28.5-10.92 81.34-10.92 81.34l72.76 18.36 37.09-16.38 11.18-77.31-68.47-12.33z"/>
  <polygon class="st3" points="96.66 -13.05 78.32 -8.32 59.6 -3.51 -13.44 -19.07 28.2 -25.39 68.29 -18.16"/>
  <path class="st4" d="m96.66-13.05-3 20.78-1.96 13.58-6.21 42.95-13.67 6.04-23.42 10.34c1.38-30.05 9.43-54.99 11.2-84.15l18.72-4.82 18.34-4.72z"/>
  <path class="st4" d="m-17.26 56.55 6.58-5.82c0.33-0.29 0.84-0.09 0.89 0.34l0.87 7.75c0.04 0.37-0.3 0.67-0.67 0.58l-7.45-1.93c-0.42-0.11-0.54-0.64-0.22-0.92z"/>
  <ellipse class="st4" transform="matrix(.8632 -.5049 .5049 .8632 -28.78 8.383)" cx="1.08" cy="57.29" rx="5.23" ry="4.86"/>
  <polygon class="st5" points="56.21 -20.34 19.39 -12.07 33.68 -9.03 65.19 -18.72"/>
  <path class="st6" d="m19.39-12.07-2.37 14.18c6.84-2.91 6.2 5.19 14.08 2.35l2.58-13.49-14.29-3.04z"/>
  <path class="st2" d="m419.4-3.06-40.65 16.76c4.57 29.51 9.16 85.18 9.16 85.18l78.34 0.53 33.52-25.84-7.9-81.16-72.47 4.53z"/>
  <polygon class="st3" points="491.8 -7.58 474.4 1.77 456.6 11.31 378.7 13.7 419.4 -3.06 461.8 -5.71"/>
  <path class="st4" d="m491.8-7.58 2.12 21.82 1.39 14.25 4.39 45.09-12.35 9.52-21.18 16.31c-6.08-30.81-4.12-58.1-9.57-88.1l35.2-18.89z"/>
  <path class="st4" d="m393.6 91.32 5.22-7.53c0.26-0.37 0.83-0.3 0.99 0.13l2.81 7.64c0.14 0.37-0.14 0.76-0.53 0.75l-8.03-0.11c-0.46-0.01-0.72-0.51-0.46-0.88z"/>
  <ellipse class="st4" transform="matrix(.718 -.696 .696 .718 55.38 311.7)" cx="412.4" cy="87.51" rx="5.46" ry="5.07"/>
  <polygon class="st5" points="449 -4.91 413.7 12.63 429 12.16 458.5 -5.5"/>
  <path class="st6" d="m413.7 12.63 1.12 14.97c6.21-4.66 7.58 3.71 14.86-1.13l-0.74-14.31-15.24 0.47z"/>
  <path class="st2" d="m276.7 13.77 33.35-24.73c-11-25.95-28.04-75.86-28.04-75.86l-71.84 17.59-24.73 31.39 25.96 72.47 65.3-20.86z"/>
  <polygon class="st3" points="211.4 34.64 225.2 22.05 239.2 9.22 310 -10.95 276.7 13.77 238.5 25.99"/>
  <path class="st4" d="m211.4 34.64-6.98-19.48-4.56-12.73-14.42-40.27 9.11-11.57 15.62-19.82c12.67 26.8 17.18 52.24 29.09 78.44l-27.86 25.43z"/>
  <path class="st4" d="m278.5-78.56-3.04 8.1c-0.15 0.4-0.69 0.47-0.93 0.11l-4.33-6.34c-0.21-0.31-0.05-0.73 0.31-0.81l7.38-1.76c0.4-0.1 0.75 0.3 0.61 0.7z"/>
  <ellipse class="st4" transform="matrix(.5261 -.8504 .8504 .5261 184.4 189.4)" cx="262.1" cy="-70.74" rx="5.16" ry="4.79"/>
  <polygon class="st5" points="250 22.31 278.2 -1.89 264.4 2.06 241.4 25.05"/>
  <path class="st6" d="m278.2-1.89-4.48-13.45c-4.61 5.7-7.8-1.65-13.35 4.46l3.98 12.93 13.85-3.94z"/>
  <path class="st2" d="m-72.43 304.1-7.91 45.74c28.93 12.53 81.23 39.76 81.23 39.76l44.57-69.66-4.2-44.49-76.93-38.63-36.76 67.28z"/>
  <polygon class="st3" points="-35.68 236.9 -37.13 257.7 -38.62 278.9 -80.34 349.9 -72.43 304.1 -50.91 264.7"/>
  <path class="st4" d="m-35.68 236.9 20.68 10.38 56.25 28.25 1.55 16.39 2.65 28.09c-30.94-11.91-54.21-29.02-84.07-41.04l1.49-21.25 1.45-20.82z"/>
  <path class="st4" d="m-2.62 380.2-3.79-8.9c-0.19-0.44 0.2-0.91 0.67-0.81l8.4 1.79c0.41 0.09 0.6 0.55 0.37 0.9l-4.61 7.11c-0.25 0.4-0.85 0.34-1.04-0.09z"/>
  <ellipse class="st4" transform="matrix(.9786 -.206 .206 .9786 -74.33 8.685)" cx="4.55" cy="361.3" rx="5.35" ry="5.77"/>
  <polygon class="st5" points="-57.4 276.6 -61.59 318 -53.42 304.1 -52.57 267.8"/>
  <path class="st6" d="m-61.59 318 14 7.43c-0.66-8.17 7.58-4.68 7.36-13.91l-13.2-7.4-8.16 13.88z"/>
  <path class="st2" d="m4.34 126.8-34.13 1.32c-4.58 22.74-16.15 64.55-16.15 64.55l56.97 21.39 31.37-9.85 16-61.28-54.06-16.13z"/>
  <polygon class="st3" points="58.39 142.9 43.18 145.1 27.66 147.3 -29.79 128.1 4.34 126.8 35.99 136.2"/>
  <path class="st4" d="m58.39 142.9-4.3 16.48-2.81 10.76-8.89 34.05-11.56 3.63-19.81 6.21c3.83-24.09 12.57-43.46 16.64-66.79l30.73-4.34z"/>
  <path class="st4" d="m-39.71 188.7 5.82-4.09c0.29-0.2 0.69 0 0.69 0.36v6.32c0 0.31-0.31 0.52-0.59 0.41l-5.83-2.23c-0.32-0.13-0.37-0.57-0.09-0.77z"/>
  <ellipse class="st4" transform="matrix(.9141 -.4055 .4055 .9141 -79.57 6.266)" cx="-25" cy="191" rx="4.24" ry="3.94"/>
  <polygon class="st5" points="26.45 133.4 -3.97 136.7 7.27 140.5 33.54 135.5"/>
  <path class="st6" d="m-3.97 136.7-3.2 11.22c5.78-1.73 4.53 4.74 11.14 3.16l3.3-10.63-11.24-3.75z"/>
  <path class="st2" d="m369.9 200.9-58.06 62.89c32.24 48.37 85.93 142.9 85.93 142.9l138.8-63.21 38.05-73.08-80.41-136.9-124.3 67.33z"/>
  <polygon class="st3" points="494.2 133.6 471.1 164.4 447.5 195.8 311.8 263.8 369.9 200.9 442.7 161.5"/>
  <path class="st4" d="m494.2 133.6 21.62 36.79 14.12 24.04 44.68 76.04-14.02 26.93-24.04 46.14c-35.96-49.43-54.85-99.23-89.04-147.8l23.59-31.41 23.09-30.78z"/>
  <path class="st4" d="m401.8 388.6 3.05-17.57c0.15-0.87 1.22-1.21 1.85-0.59l11.22 11.19c0.54 0.54 0.37 1.46-0.32 1.77l-14.27 6.39c-0.8 0.35-1.68-0.33-1.53-1.19z"/>
  <ellipse class="st4" transform="matrix(.3586 -.9335 .9335 .3586 -65.19 638.2)" cx="431.8" cy="366.5" rx="10.64" ry="9.87"/>
  <polygon class="st5" points="420.8 173.4 372.8 233.2 399.4 219.9 437.1 164.5"/>
  <path class="st6" d="m372.8 233.2 14.24 25.53c7.16-13.31 16.43 0.34 25.33-14.16l-13.03-24.67-26.54 13.3z"/>
  <path class="st2" d="m735.5 54.45 7.79 55.3c37.75 3.7 107.7 15.62 107.7 15.62l25.38-96.21-21.2-49.4-102.3-15.9-17.32 90.59z"/>
  <polygon class="st3" points="752.8 -36.14 758.8 -11.76 765 13.13 743.3 109.8 735.5 54.45 745.7 1.41"/>
  <path class="st4" d="m752.8-36.14 45.48 7.06 56.86 8.83 7.82 18.21 13.38 31.2c-39.82-2.25-72.78-13.27-111.4-16.04l-6.13-24.89-6-24.37z"/>
  <path class="st4" d="m843.5 115.9-7.62-8.8c-0.38-0.44-0.11-1.12 0.47-1.18l10.28-1.05c0.5-0.05 0.89 0.41 0.76 0.9l-2.67 9.85c-0.14 0.55-0.85 0.71-1.22 0.28z"/>
  <ellipse class="st4" transform="matrix(.8685 -.4957 .4957 .8685 65.7 430.8)" cx="844.8" cy="91.58" rx="6.44" ry="6.94"/>
  <polygon class="st5" points="742.6 17.39 753 66.32 757.3 47.42 744.9 5.5"/>
  <path class="st6" d="m753 66.32 18.78 3.35c-3.77-9.11 6.96-8.16 3.3-18.64l-17.84-3.61-4.24 18.9z"/>
  <path class="st2" d="m1138 148-37.13 11.67c1.77 26.37 1.56 75.81 1.56 75.81l69.04 6.47 31.54-20.22-0.75-72.17-64.26-1.56z"/>
  <polygon class="st3" points="1203 149.5 1186 156.5 1170 163.5 1101 159.6 1138 148 1176 148.9"/>
  <path class="st4" d="m1203 149.5 0.2 19.4 0.13 12.67 0.42 40.1-11.62 7.45-19.92 12.76c-3-27.63 0.82-51.55-1.7-78.42l32.49-13.96z"/>
  <path class="st4" d="m1108 229.2 5.18-6.24c0.26-0.31 0.76-0.2 0.86 0.19l1.89 6.95c0.09 0.34-0.18 0.66-0.53 0.62l-7.07-0.71c-0.4-0.04-0.59-0.51-0.33-0.81z"/>
  <ellipse class="st4" transform="matrix(.7755 -.6313 .6313 .7755 109.1 761.4)" cx="1125" cy="227.3" rx="4.84" ry="4.49"/>
  <polygon class="st5" points="1165 148.6 1132 161.4 1146 162.1 1173 148.8"/>
  <path class="st6" d="m1132 161.4-0.16 13.29c5.83-3.63 6.4 3.85 13.19 0.14l0.44-12.68-13.47-0.75z"/>
  <path class="st2" d="m1285 275.9-60.61-5.14c-13.07 39.19-42.69 110.6-42.69 110.6l96 50.28 57.6-10.54 41.7-104.8-92-40.35z"/>
  <polygon class="st3" points="1377 316.2 1349 316.7 1322 317.2 1224 270.7 1285 275.9 1339 299.5"/>
  <path class="st4" d="m1377 316.2-11.21 28.18-7.32 18.41-23.16 58.23-21.22 3.88-36.37 6.64c12.04-41.74 31.74-74.06 44.04-114.4l55.24-0.93z"/>
  <path class="st4" d="m1193 375.6 11.19-5.95c0.55-0.3 1.21 0.16 1.13 0.78l-1.38 11.17c-0.07 0.54-0.65 0.85-1.13 0.59l-9.81-5.22c-0.55-0.29-0.55-1.07 0-1.37z"/>
  <ellipse class="st4" transform="matrix(.957 -.2899 .2899 .957 -58.65 369.9)" cx="1219" cy="382.9" rx="7.56" ry="7.02"/>
  <polygon class="st5" points="1322 292.4 1268 291.6 1287 300.7 1335 297.7"/>
  <path class="st6" d="m1268 291.6-8.11 19.12c10.59-1.79 6.98 9.37 19 8.03l8.16-18.07-19.05-9.08z"/>
  <path class="st2" d="m1403 194.2-24.64 53.32c31.26 24.78 86.28 75.18 86.28 75.18l77.27-70.57 9.42-55.75-81.39-72.39-66.94 70.21z"/>
  <polygon class="st3" points="1470 124 1461 149 1453 174.5 1378 247.6 1403 194.2 1442 153.1"/>
  <path class="st4" d="m1470 124 81.39 72.39-3.47 20.54-5.96 35.2c-33.91-24.68-56.76-53.21-89.33-77.68l8.77-25.49 8.6-24.96z"/>
  <path class="st4" d="m1464 310.1-1.72-12.12c-0.09-0.6 0.54-1.05 1.08-0.77l9.68 4.94c0.47 0.24 0.55 0.87 0.16 1.22l-7.97 7.18c-0.44 0.4-1.15 0.14-1.23-0.45z"/>
  <ellipse class="st4" transform="matrix(.0541 -.9985 .9985 .0541 1110 1750)" cx="1478" cy="289.3" rx="7.3" ry="6.78"/>
  <polygon class="st5" points="1430 165.5 1412 214.7 1426 200.4 1439 156.3"/>
  <path class="st6" d="m1412 214.7 14.69 13.66c1.86-10.2 10.8-3.24 13.55-14.59l-13.71-13.36-14.53 14.29z"/>
  <path class="st2" d="m1481 365.6-45.88 31.05c13.17 35.24 33.03 102.8 33.03 102.8l96.79-19.32 34.78-40.43-30.44-98.12-88.28 24.06z"/>
  <polygon class="st3" points="1570 341.6 1550 357.6 1531 373.9 1435 396.7 1481 365.6 1533 351.5"/>
  <path class="st4" d="m1570 341.6 8.19 26.38 5.34 17.23 16.92 54.52-12.82 14.9-21.97 25.52c-15.36-36.46-19.9-70.64-34.28-106.3l19.5-16.31 19.12-15.98z"/>
  <path class="st4" d="m1474 488.6 4.52-10.62c0.22-0.53 0.95-0.58 1.25-0.1l5.41 8.71c0.26 0.42 0.02 0.97-0.47 1.07l-9.93 1.92c-0.55 0.1-1-0.46-0.78-0.98z"/>
  <ellipse class="st4" transform="matrix(.5623 -.8269 .8269 .5623 258.5 1447)" cx="1496" cy="479.2" rx="6.89" ry="6.39"/>
  <polygon class="st5" points="1517 355.8 1478 386.4 1497 382 1529 352.6"/>
  <path class="st6" d="m1478 386.4 5.2 18.19c6.48-7.33 10.3 2.64 18.05-5.18l-4.56-17.47-18.69 4.46z"/>
  <path class="st2" d="m1596 243.7-16.17 62.55c38.7 20.66 108.2 64.39 108.2 64.39l69.74-91.57-0.78-62.19-102.3-62.32-58.63 89.14z"/>
  <polygon class="st3" points="1655 154.6 1651 183.3 1646 212.6 1580 306.3 1596 243.7 1631 191.5"/>
  <path class="st4" d="m1655 154.6 27.51 16.75 74.82 45.57 0.29 22.92 0.48 39.27c-41.56-20.04-71.9-46.42-112-66.48l4.48-29.31 4.38-28.72z"/>
  <path class="st4" d="m1684 357.2-4.24-12.78c-0.21-0.63 0.38-1.24 1.02-1.05l11.45 3.44c0.55 0.17 0.77 0.84 0.42 1.29l-7.21 9.34c-0.41 0.52-1.23 0.38-1.44-0.24z"/>
  <ellipse class="st4" transform="matrix(.9921 -.1254 .1254 .9921 -28.22 215.4)" cx="1697" cy="331.8" rx="7.45" ry="8.03"/>
  <polygon class="st5" points="1620 207.3 1610 264.2 1623 245.9 1628 195.6"/>
  <path class="st6" d="m1610 264.2 18.58 11.9c0.01-11.41 11.05-5.64 11.79-18.46l-17.47-11.76-12.9 18.32z"/>
  <path class="st2" d="m1541 23.83-32.83 33.77c17.05 27.06 45.24 79.83 45.24 79.83l77.23-32.8 21.96-39.66-42.29-76.41-69.31 35.27z"/>
  <polygon class="st3" points="1610 -11.45 1597 5.15 1583 22.1 1508 57.6 1541 23.83 1581 3.17"/>
  <path class="st4" d="m1610-11.45 42.3 76.41-8.09 14.61-13.87 25.04c-19.08-27.7-28.77-55.36-46.89-82.53l13.42-16.94 13.13-16.59z"/>
  <path class="st4" d="m1556 127.5 1.93-9.62c0.1-0.48 0.69-0.65 1.02-0.3l6.01 6.31c0.29 0.31 0.19 0.81-0.2 0.97l-7.94 3.31c-0.45 0.19-0.92-0.2-0.82-0.67z"/>
  <ellipse class="st4" transform="matrix(.3825 -.924 .924 .3825 864 1524)" cx="1572" cy="115.8" rx="5.85" ry="5.43"/>
  <polygon class="st5" points="1569 9.4 1542 41.64 1557 34.7 1578 4.77"/>
  <path class="st6" d="m1542 41.64 7.47 14.24c4.13-7.22 9.03 0.42 14.13-7.43l-6.82-13.75-14.78 6.94z"/>
  <path class="st2" d="m1442-123.2-57.77-11.7c-16.95 36.26-53.42 101.6-53.42 101.6l86.8 59.1 56.61-3.72 51.82-96.23-84.04-49.1z"/>
  <polygon class="st3" points="1526 -74.08 1499 -76.68 1472 -79.33 1384 -134.9 1442 -123.2 1491 -94.43"/>
  <path class="st4" d="m1526-74.08-51.82 96.24-20.86 1.37-35.75 2.34c16.24-38.83 38.8-67.74 55.14-105.2l53.29 5.26z"/>
  <path class="st4" d="m1343-37.32 11.43-4.48c0.57-0.22 1.15 0.29 1.01 0.88l-2.58 10.6c-0.12 0.51-0.72 0.74-1.16 0.44l-8.86-6.11c-0.48-0.36-0.4-1.12 0.16-1.33z"/>
  <ellipse class="st4" transform="matrix(.984 -.1779 .1779 .984 26.7 242.6)" cx="1366" cy="-27.54" rx="7.33" ry="6.8"/>
  <polygon class="st5" points="1476 -103.1 1424 -109.9 1441 -99.04 1487 -96.64"/>
  <path class="st6" d="m1424-109.9-9.94 17.5c10.39-0.54 5.67 9.79 17.39 9.85l9.87-16.48-17.32-10.87z"/>
  <path class="st2" d="m1114-14.96 6.71 46.66c31.87 3.02 90.93 12.92 90.93 12.92l21.19-81.26-18.02-41.65-86.41-13.18-14.4 76.51z"/>
  <polygon class="st3" points="1128 -91.46 1133 -70.9 1138 -49.91 1120 31.7 1114 -14.96 1122 -59.76"/>
  <path class="st4" d="m1128-91.47 38.41 5.85 48.01 7.32 6.64 15.35 11.37 26.3c-33.62-1.8-61.46-11.03-94.07-13.27l-5.23-20.99-5.13-20.56z"/>
  <path class="st4" d="m1205 36.62-6.45-7.41c-0.32-0.37-0.09-0.94 0.39-0.99l8.68-0.91c0.42-0.04 0.75 0.35 0.64 0.75l-2.23 8.32c-0.12 0.47-0.71 0.61-1.03 0.24z"/>
  <ellipse class="st4" transform="matrix(.8671 -.4982 .4982 .8671 152.3 602.9)" cx="1206" cy="16.11" rx="5.44" ry="5.86"/>
  <polygon class="st5" points="1119 -46.26 1128 -4.99 1132 -20.95 1121 -56.3"/>
  <path class="st6" d="m1128-4.99 15.85 2.78c-3.2-7.68 5.85-6.9 2.74-15.74l-15.07-3-3.52 15.96z"/>
  <path class="st2" d="m1045 457.3-41.32 55.35c29.94 36.11 80.97 107.5 80.97 107.5l106.1-62.39 24.4-61.85-76.03-103.1-94.1 64.48z"/>
  <polygon class="st3" points="1139 392.8 1123 419.4 1107 446.6 1004 512.6 1045 457.3 1100 419.5"/>
  <path class="st4" d="m1139 392.8 20.44 27.71 13.35 18.11 42.25 57.27-8.99 22.79-15.42 39.05c-33.01-36.65-52.36-75.04-83.88-111.1l16.29-27.19 15.96-26.63z"/>
  <path class="st4" d="m1086 605.3 0.97-14.36c0.05-0.71 0.88-1.07 1.43-0.63l9.94 8.04c0.48 0.39 0.42 1.14-0.11 1.45l-10.91 6.33c-0.61 0.34-1.36-0.13-1.32-0.83z"/>
  <ellipse class="st4" transform="matrix(.2595 -.9657 .9657 .2595 256 1504)" cx="1109" cy="585" rx="8.58" ry="7.97"/>
  <polygon class="st5" points="1084 430.9 1050 483 1070 470 1096 422.4"/>
  <path class="st6" d="m1050 483 13.57 19.29c4.63-11.29 13.22-1.1 19.14-13.5l-12.53-18.71-20.18 12.92z"/>
  <path class="st2" d="m1376 102.3-14.06-53.72c-37.7 0.7-108.1-3.04-108.1-3.04l-14 97.93 26.62 46.35 102.9 3.93 6.68-91.45z"/>
  <polygon class="st3" points="1369 193.8 1360 170.4 1351 146.5 1362 48.58 1376 102.3 1372 155.8"/>
  <path class="st4" d="m1369 193.8-102.9-3.93-9.81-17.08-16.8-29.27c39.58-2.36 73.4 4.74 111.9 3.02l8.91 23.87 8.73 23.39z"/>
  <path class="st4" d="m1262 54.05 8.53 7.81c0.42 0.39 0.23 1.09-0.33 1.21l-10.03 2.22c-0.49 0.11-0.93-0.31-0.85-0.8l1.5-10.03c0.09-0.55 0.76-0.79 1.18-0.41z"/>
  <ellipse class="st4" transform="matrix(.8053 -.5929 .5929 .8053 199.6 764.3)" cx="1264" cy="78.2" rx="6.4" ry="6.9"/>
  <polygon class="st5" points="1373 139.7 1357 92.59 1355 111.8 1372 151.7"/>
  <path class="st6" d="m1357 92.59-18.93-1.15c4.77 8.57-5.93 8.86-1.12 18.79l18.04 1.51 2.01-19.15z"/>
  <path class="st2" d="m255.6 436.7-33.07 28.52c13.54 26.38 35.28 77.41 35.28 77.41l74-24.01 23.51-34.84-32.84-74.02-66.88 26.94z"/>
  <polygon class="st3" points="322.5 409.7 309 424 295.2 438.5 222.6 465.2 255.6 436.7 294.8 420.9"/>
  <path class="st4" d="m322.5 409.7 8.83 19.9 5.77 13 18.25 41.12-8.66 12.84-14.85 22c-15.37-27.13-22.06-53.47-36.58-80.04l13.77-14.56 13.47-14.26z"/>
  <path class="st4" d="m260.9 533.7 2.56-8.73c0.13-0.43 0.69-0.54 0.97-0.19l5.04 6.32c0.24 0.31 0.11 0.76-0.27 0.88l-7.6 2.41c-0.42 0.13-0.83-0.26-0.7-0.69z"/>
  <ellipse class="st4" transform="matrix(.4622 -.8868 .8868 .4622 -315.6 527.9)" cx="277.4" cy="524.2" rx="5.43" ry="5.04"/>
  <polygon class="st5" points="283 425.6 255.2 453.2 269.4 448 291.8 422.1"/>
  <path class="st6" d="m255.2 453.2 5.74 13.76c4.4-6.33 8.31 1.12 13.66-5.71l-5.18-13.26-14.22 5.21z"/>
  <path class="st2" d="m585.8 136.2 34.63 25.97c22.67-18.71 67.48-50.6 67.48-50.6l-38.95-66.57-38.73-15.38-64.71 47.52 40.28 59.06z"/>
  <polygon class="st3" points="545.5 77.1 562.2 87.14 579.2 97.39 620.4 162.1 585.8 136.2 562.2 101.6"/>
  <path class="st4" d="m545.5 77.1 17.4-12.77 11.37-8.34 35.95-26.4 14.27 5.67 24.45 9.72c-23.02 20.64-47.1 32.71-69.75 52.41l-33.69-20.29z"/>
  <path class="st4" d="m678.6 110.5-9-0.63c-0.45-0.03-0.67-0.55-0.39-0.9l5.05-6.22c0.24-0.3 0.71-0.26 0.91 0.07l3.95 6.85c0.22 0.38-0.08 0.86-0.52 0.83z"/>
  <ellipse class="st4" transform="matrix(.2617 -.9652 .9652 .2617 398.5 714)" cx="665.9" cy="96.48" rx="4.99" ry="5.38"/>
  <polygon class="st5" points="569.3 112 601.9 133 593.8 120.4 564 104.2"/>
  <path class="st6" d="m601.9 133 12.11-8.48c-7.07-2.92-0.67-8.28-8.43-12.01l-11.74 7.83 8.06 12.66z"/>
  <path class="st2" d="m696.1 187.3-26.19 32.88c17.52 22.54 47.2 66.94 47.2 66.94l65.72-35.92 16.03-37.16-44.28-64.16-58.48 37.42z"/>
  <polygon class="st3" points="754.5 149.8 744.3 165.8 733.9 182 669.9 220.2 696.1 187.3 730.3 165.4"/>
  <path class="st4" d="m754.5 149.8 11.91 17.25 7.78 11.27 24.6 35.65-5.9 13.69-10.13 23.46c-19.38-22.93-30.42-46.65-48.9-69.19l10.43-16.23 10.21-15.9z"/>
  <path class="st4" d="m718.4 278.1 0.87-8.72c0.04-0.43 0.55-0.64 0.88-0.35l5.89 5.08c0.28 0.25 0.24 0.7-0.1 0.88l-6.76 3.64c-0.37 0.2-0.82-0.1-0.78-0.53z"/>
  <ellipse class="st4" transform="matrix(.2897 -.9571 .9571 .2897 265.4 890)" cx="732.3" cy="266.2" rx="5.22" ry="4.85"/>
  <polygon class="st5" points="720 172 698.6 203 711.2 195.5 727.7 167"/>
  <path class="st6" d="m698.6 203 7.89 12c3.03-6.78 8.06-0.42 11.9-7.84l-7.26-11.62-12.53 7.46z"/>
  <path class="st2" d="m611.4 338.6-40.48 31.32c14.21 31.72 36.48 92.8 36.48 92.8l88.1-23.49 29.69-39.31-33.82-88.68-79.97 27.36z"/>
  <polygon class="st3" points="691.4 311.2 674.7 327.1 657.7 343.2 570.9 369.9 611.4 338.6 658.2 322.5"/>
  <path class="st4" d="m691.4 311.2 9.09 23.84 24.74 64.84-10.94 14.49-18.75 24.82c-16.3-32.72-22.49-63.95-37.84-95.96l17.02-16.18 16.68-15.85z"/>
  <path class="st4" d="m611.6 452.4 3.54-10.06c0.18-0.5 0.84-0.59 1.15-0.16l5.5 7.71c0.27 0.37 0.08 0.9-0.37 1.01l-9.05 2.35c-0.5 0.13-0.95-0.36-0.77-0.85z"/>
  <ellipse class="st4" transform="matrix(.5086 -.861 .861 .5086 -70.59 761)" cx="631.5" cy="442.4" rx="6.36" ry="5.9"/>
  <polygon class="st5" points="644.1 327.4 609.9 357.9 626.9 352.7 654.6 323.8"/>
  <path class="st6" d="m609.9 357.9 5.86 16.46c5.54-7.14 9.65 1.83 16.34-5.84l-5.23-15.84-16.97 5.22z"/>
  <path class="st2" d="m553.7 475.1-51.83-33.35c-30.29 28.89-90.66 78.73-90.66 78.73l62.1 90.55 56.56 17.88 87.04-74.06-63.21-79.75z"/>
  <polygon class="st3" points="616.9 554.8 592.2 542.3 567 529.5 501.9 441.7 553.7 475.1 590.7 521.8"/>
  <path class="st4" d="m616.9 554.8-87.05 74.07-20.84-6.59-35.72-11.3c30.58-31.66 63.54-51.25 93.69-81.54l25.21 12.82 24.71 12.54z"/>
  <path class="st4" d="m424.6 521 12.84-0.02c0.64 0 1.01 0.72 0.65 1.24l-6.54 9.35c-0.32 0.45-0.99 0.45-1.3-0.01l-6.31-9.32c-0.35-0.53 0.03-1.24 0.66-1.24z"/>
  <ellipse class="st4" transform="matrix(.1918 -.9814 .9814 .1918 -170.8 871.8)" cx="444" cy="539.6" rx="7.11" ry="7.66"/>
  <polygon class="st5" points="579.6 507.7 531.2 481.2 543.9 498.3 587.9 518.2"/>
  <path class="st6" d="m531.2 481.2-16.33 13.28c10.33 3.42 1.8 11.69 13.2 16.2l15.87-12.31-12.74-17.17z"/>
  <path class="st2" d="m772.6 491.7 20.09 49.58c35.93-5.34 103.7-10.51 103.7-10.51l1.23-95.29-31.18-40.98-98.79 9 4.96 88.2z"/>
  <polygon class="st3" points="767.6 403.5 778.8 424.8 790.3 446.5 792.6 541.3 772.6 491.7 769.6 440.1"/>
  <path class="st4" d="m767.6 403.5 98.79-9 11.49 15.1 19.68 25.88c-37.52 7.16-70.71 4.58-107.2 10.98l-11.47-21.7-11.25-21.26z"/>
  <path class="st4" d="m887.2 523.7-9.12-6.41c-0.45-0.32-0.36-1.01 0.16-1.2l9.31-3.36c0.45-0.16 0.92 0.18 0.91 0.66l-0.19 9.77c0 0.54-0.62 0.85-1.07 0.54z"/>
  <ellipse class="st4" transform="matrix(.7223 -.6916 .6916 .7223 -101.3 749.5)" cx="882.7" cy="500.8" rx="6.17" ry="6.65"/>
  <polygon class="st5" points="770.5 455.6 791.6 498.7 791.2 480.1 769.9 444.1"/>
  <path class="st6" d="m791.6 498.7 18.22-1.25c-5.62-7.59 4.57-9.2-1.26-18.09l-17.42 0.79 0.46 18.55z"/>
  <path class="st2" d="m995.4 209.8-75.12-19.72c-25.01 46.43-77.89 129.7-77.89 129.7l109.8 84.25 74.76-0.65 75.38-122.7-106.9-70.89z"/>
  <polygon class="st3" points="1102 280.7 1068 275.3 1033 269.8 920.2 190.1 995.4 209.8 1058 251.3"/>
  <path class="st4" d="m1102 280.7-20.26 32.99-13.24 21.55-41.88 68.19-27.55 0.24-47.21 0.4c24.28-49.87 56.13-86.22 80.43-134.3l69.71 10.91z"/>
  <path class="st4" d="m858.5 315.3 15.38-5.04c0.76-0.25 1.49 0.46 1.26 1.23l-4.18 13.75c-0.2 0.66-1.01 0.92-1.56 0.49l-11.2-8.71c-0.62-0.48-0.45-1.47 0.3-1.72z"/>
  <ellipse class="st4" transform="matrix(.9926 -.1217 .1217 .9926 -33.54 110.6)" cx="889" cy="330" rx="9.65" ry="8.96"/>
  <polygon class="st5" points="1039 238.8 970.7 225.9 992.7 241.5 1053 248.1"/>
  <path class="st6" d="m970.7 225.9-14.38 22.28c13.71 0.06 6.72 13.31 22.14 14.26l14.21-20.95-21.97-15.59z"/>
  <path class="st2" d="m1027 24.53-49.62-19.91c-21.06 29.57-64.32 81.94-64.32 81.94l67.76 66.95 51.12 5.96 62.01-77.37-66.95-57.57z"/>
  <polygon class="st3" points="1094 82.1 1071 75.46 1048 68.68 977.8 4.62 1027 24.53 1067 58.24"/>
  <path class="st4" d="m1094 82.11-62.01 77.38-51.12-5.97c20.86-31.98 45.73-54.08 66.44-84.83l46.69 13.42z"/>
  <path class="st4" d="m925 84.88 10.94-2.13c0.54-0.11 0.98 0.44 0.75 0.95l-4.04 9.03c-0.2 0.44-0.77 0.54-1.11 0.2l-6.9-6.91c-0.38-0.38-0.18-1.04 0.36-1.14z"/>
  <ellipse class="st4" transform="matrix(.002812 -1 1 .002812 844.4 1042)" cx="944.6" cy="97.5" rx="6.17" ry="6.65"/>
  <polygon class="st5" points="1055 48.08 1009 33.42 1023 45.95 1064 55.64"/>
  <path class="st6" d="m1009 33.42-11.73 13.99c9.36 1.22 3.45 9.67 13.9 11.63l11.5-13.09-13.67-12.53z"/>
 </g>
</svg>
