<?xml version="1.0" encoding="UTF-8"?>
<svg width="485px" height="456px" viewBox="0 0 485 456" version="1.1" xmlns="http://www.w3.org/2000/svg" xmlns:xlink="http://www.w3.org/1999/xlink">
    <title>inkathon-logo</title>
    <g id="inkathon-logo" stroke="none" stroke-width="1" fill="none" fill-rule="evenodd">
        <g id="Group" transform="translate(24, 0)">
            <path d="M424.965831,245.855011 L424.965831,245.855011 C424.965831,223.329818 406.747739,205.069366 384.263999,205.069366 L307.093585,205.069366 C301.337661,205.069366 296.661648,200.38248 296.661648,194.613173 L296.661648,140.427149 C296.305278,140.394676 295.959706,140.318907 295.592537,140.318907 C287.881975,140.318907 281.640091,146.575303 281.640091,154.303793 L281.640091,196.399169 C281.640091,208.890314 291.769653,219.054253 304.231822,219.054253 L384.544776,219.054253 C399.285556,219.054253 411.283364,231.079956 411.283364,245.855011 C411.283364,260.64089 399.285556,272.666594 384.544776,272.666594 L343.076208,272.666594 C335.365646,272.666594 329.112963,278.922991 329.112963,286.651481 L384.263999,286.651481 C406.747739,286.651481 424.965831,268.380204 424.965831,245.855011" id="Fill-186" fill="#684993"></path>
            <path d="M384.432127,191.699921 L309.539231,191.699921 L309.539231,155.124463 C309.539231,147.802911 303.866997,141.881068 296.67426,141.321185 L296.67426,195.220726 C296.67426,200.95953 301.343608,205.621636 307.091328,205.621636 L384.151751,205.621636 C406.603444,205.621636 424.79557,223.785544 424.79557,246.191646 C424.79557,268.597748 406.603444,286.772423 384.151751,286.772423 L329.079321,286.772423 C329.079321,294.449285 335.323092,300.683371 343.022664,300.683371 L384.432127,300.683371 C414.51869,300.683371 438.997722,276.231542 438.997722,246.191646 C438.997722,216.15175 414.51869,191.699921 384.432127,191.699921" id="Fill-187" fill="#B78CD0"></path>
            <path d="M382.959438,233.653863 L304.134613,233.653863 C287.852057,233.653863 274.599567,220.423297 274.599567,204.156915 L274.599567,183.293746 C274.599567,175.607315 268.356123,169.384966 260.667737,169.384966 L260.592255,169.395731 L260.592255,204.156915 C260.592255,228.131259 280.05584,247.562642 304.069915,247.562642 L396.90205,247.562642 C396.90205,239.876211 390.658606,233.653863 382.959438,233.653863" id="Fill-188" fill="#684993"></path>
            <path d="M260.43291,204.196692 L260.43291,169.384966 C252.767924,169.42809 246.560364,175.637924 246.560364,183.303188 L246.560364,204.196692 C246.560364,235.849596 272.340628,261.594533 304.026169,261.594533 L382.943139,261.594533 C390.651308,261.594533 396.90205,255.352356 396.90205,247.66553 L303.961394,247.66553 C279.919248,247.66553 260.43291,228.205894 260.43291,204.196692" id="Fill-189" fill="#4F3C79"></path>
            <path d="M295.575663,168.382688 L425.06215,168.382688 C432.763387,168.382688 438.997722,162.105263 438.997722,154.350797 L281.640091,154.350797 C281.640091,162.105263 287.874426,168.382688 295.575663,168.382688" id="Fill-190" fill="#4F3C79"></path>
            <path d="M425.06215,140.318907 L295.575663,140.318907 C287.874426,140.318907 281.640091,146.596331 281.640091,154.350797 L438.997722,154.350797 C438.997722,146.596331 432.763387,140.318907 425.06215,140.318907" id="Fill-191" fill="#684993"></path>
            <path d="M416.52882,176.400911 L405.339062,176.400911 C401.228977,176.400911 397.904328,172.948798 397.904328,168.681137 C397.904328,165.195508 400.626452,162.369021 403.983379,162.369021 L417.884502,162.369021 C421.24143,162.369021 423.963554,165.195508 423.963554,168.681137 C423.963554,172.948798 420.638904,176.400911 416.52882,176.400911" id="Fill-192" fill="#684993"></path>
            <path d="M381.449093,176.400911 L370.259335,176.400911 C366.149251,176.400911 362.824601,172.948798 362.824601,168.681137 C362.824601,165.195508 365.546725,162.369021 368.903653,162.369021 L382.804776,162.369021 C386.161703,162.369021 388.883827,165.195508 388.883827,168.681137 C388.883827,172.948798 385.559178,176.400911 381.449093,176.400911" id="Fill-193" fill="#684993"></path>
            <path d="M388.712491,32.0728929 C357.153355,32.0728929 331.573618,57.5812216 331.573618,89.0282248 L331.573618,117.990022 C331.573618,138.140633 315.178841,154.482747 294.963293,154.482747 C274.747746,154.482747 255.255338,138.140633 255.255338,117.990022 L241.925812,74.7087033 C234.8671,77.1508757 230.938398,84.714079 233.140198,91.8899774 L241.893433,120.270817 C243.253368,146.155692 267.71062,168.382688 295.481364,168.382688 C323.36004,168.382688 346.036423,145.779146 346.036423,117.990022 L346.036423,89.0282248 C346.036423,65.2950434 365.410106,45.9835926 389.230562,45.9835926 L425.052988,45.9835926 C432.759288,45.9835926 438.997722,39.7544394 438.997722,32.0728929 L388.712491,32.0728929" id="Fill-194" fill="#684993"></path>
            <path d="M295.690151,154.350797 L295.690151,154.350797 C315.944355,154.350797 332.370481,138.008684 332.370481,117.858072 L332.370481,88.8962753 C332.370481,57.4492721 357.999132,31.9409435 389.618615,31.9409435 L440,31.9409435 C440,24.2701555 433.749637,18.0410023 426.028601,18.0410023 L390.137676,18.0410023 C350.862039,18.0410023 318.90733,49.8322765 318.90733,88.8962753 L318.90733,117.858072 C318.90733,130.316379 308.731566,140.450856 296.209212,140.450856 C282.940708,140.450856 270.396728,129.477218 270.396728,117.858072 L270.396728,115.770929 L260.469681,83.5923504 C258.198788,76.2550749 250.380427,72.1345815 243.016245,74.3938599 C242.854039,74.4368938 242.713459,74.5229615 242.551253,74.5767539 L255.906267,117.858072 C255.906267,138.008684 275.435948,154.350797 295.690151,154.350797" id="Fill-195" fill="#7E5DA8"></path>
            <path d="M22.5854653,186.156467 L13.2802542,179.995161 C9.86400541,177.735667 8.99638666,173.2376 11.3389573,169.942504 C13.2477185,167.254125 17.065241,166.574184 19.8633115,168.415254 L31.413486,176.061967 C34.2115565,177.913497 34.9164967,181.595636 32.9968902,184.284015 C30.6543196,187.579111 25.9908689,188.415961 22.5854653,186.156467" id="Fill-196" fill="#7E5DA8"></path>
            <path d="M60.614137,202.07309 L50.1331106,198.445958 C46.2967795,197.121944 44.2090523,192.771611 45.4701667,188.743938 C46.5087315,185.439465 49.8893658,183.648152 53.036853,184.738516 L66.0401081,189.233489 C69.1875953,190.323854 70.8938089,193.884228 69.8552441,197.177575 C68.5941297,201.216375 64.4504681,203.397104 60.614137,202.07309" id="Fill-197" fill="#7E5DA8"></path>
            <path d="M90.9078345,182.414579 L254.578588,182.414579 C254.578588,174.825948 248.352334,168.68277 240.66108,168.68277 L91.0478714,168.68277 C65.7442911,168.68277 41.9595719,158.957844 24.0671722,141.30418 C18.8319487,136.138809 10.4728264,136.000641 5.01138952,140.804648 C24.8750771,166.110713 55.9524841,182.414579 90.9078345,182.414579" id="Fill-198" fill="#684993"></path>
            <path d="M165.612648,182.519676 L90.710423,182.519676 C55.7129111,182.519676 24.5980201,165.984304 4.71037389,140.318907 C4.5054578,140.502154 4.27897159,140.631505 4.08484056,140.825531 C-1.36161352,146.269053 -1.36161352,155.086481 4.08484056,160.530003 C27.2619293,183.694615 58.0748388,196.446469 90.8506287,196.446469 L240.644293,196.446469 C248.344824,196.446469 254.578588,190.216062 254.578588,182.519676 L165.612648,182.519676" id="Fill-199" fill="#4F3C79"></path>
            <path d="M274.624146,138.254343 L274.624146,182.414579 L225.003157,182.414579 L225.003157,174.29911 C225.003157,169.6802 224.139056,165.277127 222.551271,161.219392 C217.31266,147.805127 204.253936,138.254343 188.970153,138.254343 L88.3564152,138.254343 C71.7008722,138.254343 56.6331143,131.531023 45.7454441,120.620466 C37.1260386,112.008573 31.0773329,100.763469 28.9386834,88.2449275 C28.3770179,84.9318307 28.0637813,81.5216072 28.0637813,78.0466327 C28.0637813,34.9439984 63.0490628,0 106.189296,0 L136.238401,0 C174.45326,0 209.028093,15.453924 234.087017,40.4910074 C259.14594,65.5280909 274.624146,100.083583 274.624146,138.254343" id="Fill-200" fill="#7E5DA8"></path>
            <path d="M222.505695,161.366743 C217.271763,148.101457 204.224705,138.656744 188.954575,138.656744 L88.4307139,138.656744 C71.790049,138.656744 56.735751,132.008093 45.8578067,121.218709 C37.2461007,112.70246 31.2027983,101.582244 29.0660592,89.2027335 L130.787789,89.2027335 C175.52981,89.2027335 212.96591,120.034118 222.505695,161.366743" id="Fill-201" fill="#4F3C79"></path>
            <path d="M211.676088,97.2209567 C206.350843,97.2209567 200.766357,94.6938124 196.359258,90.2875096 C192.870304,86.7991865 190.515531,82.5008812 189.727006,78.1593769 C188.787257,73.0618893 190.105066,68.2775948 193.34558,65.048466 C195.862379,62.5321215 199.394539,61.1389522 203.261553,61.1389522 C208.597599,61.1389522 214.182085,63.6660965 218.578383,68.0615996 C222.067336,71.5499226 224.42211,75.8590277 225.221436,80.1897322 C226.150384,85.2872198 224.832575,90.0715143 221.602862,93.3006431 C219.075261,95.8277874 215.553903,97.2209567 211.676088,97.2209567" id="Fill-202" fill="#4F3C79"></path>
            <path d="M209.669465,92.2095672 C204.343424,92.2095672 198.758104,89.6824229 194.350347,85.27612 C190.871675,81.787797 188.51655,77.4894917 187.717104,73.1479874 C186.788017,68.0504998 188.106023,63.2662053 191.336218,60.0370765 C193.864197,57.5099322 197.386082,56.1275626 201.264476,56.1275626 C206.590516,56.1275626 212.175837,58.6547069 216.583594,63.05021 C220.073069,66.5385331 222.428194,70.8476381 223.216837,75.1783427 C224.145923,80.2758303 222.827917,85.0601248 219.597722,88.2892536 C217.069744,90.8163979 213.547859,92.2095672 209.669465,92.2095672" id="Fill-203" fill="#FDF0F6"></path>
            <path d="M215.451831,84.1534255 C211.834979,87.7702773 204.653846,86.4560143 199.417823,81.2199906 C194.181799,75.9839669 192.867536,68.8028339 196.484388,65.1859822 C200.101239,61.5691305 207.282372,62.8833935 212.518396,68.1194172 C217.75442,73.3554409 219.068683,80.5365738 215.451831,84.1534255" id="Fill-204" fill="#7E5DA8"></path>
            <path d="M127.289294,39.1751353 C126.143323,39.1319868 124.997353,39.0888383 123.851382,39.0888383 L100.792743,39.0888383 C75.613523,39.0888383 55.1252847,59.7246061 55.1252847,85.0851342 C55.1252847,94.7072487 59.3664464,103.347735 66.0387791,109.248292 C97.6975519,99.6908999 121.816482,72.6152191 127.289294,39.1751353" id="Fill-205" fill="#B78CD0"></path>
            <path d="M163.371298,88.1951019 C163.371298,95.9471728 157.086125,102.232346 149.334054,102.232346 C141.592691,102.232346 135.307517,95.9471728 135.307517,88.1951019 C135.307517,80.4537384 141.592691,74.1685649 149.334054,74.1685649 C157.086125,74.1685649 163.371298,80.4537384 163.371298,88.1951019" id="Fill-206" fill="#B78CD0"></path>
            <path d="M116.264237,107.238384 C116.264237,111.112941 113.125806,114.259681 109.248292,114.259681 C105.370777,114.259681 102.232346,111.112941 102.232346,107.238384 C102.232346,103.37453 105.370777,100.22779 109.248292,100.22779 C113.125806,100.22779 116.264237,103.37453 116.264237,107.238384" id="Fill-207" fill="#B78CD0"></path>
            <path d="M136.2276,0 L106.178494,0 C63.0382615,0 28.0637813,35.0525598 28.0637813,78.289102 C28.0637813,81.2011275 28.3446141,84.0373754 28.7334594,86.8303218 C33.6912378,48.3677693 66.462261,18.6521188 106.178494,18.6521188 L136.2276,18.6521188 C212.657317,18.6521188 274.624146,80.7572872 274.624146,157.357631 L274.624146,138.705512 C274.624146,62.1051685 212.657317,0 136.2276,0" id="Fill-208" fill="#B78CD0"></path>
            <path d="M416.52882,53.1207289 L405.339062,53.1207289 C401.228977,53.1207289 397.904328,49.6686157 397.904328,45.4009547 C397.904328,41.9153258 400.626452,39.0888383 403.983379,39.0888383 L417.884502,39.0888383 C421.24143,39.0888383 423.963554,41.9153258 423.963554,45.4009547 C423.963554,49.6686157 420.638904,53.1207289 416.52882,53.1207289" id="Fill-209" fill="#7E5DA8"></path>
            <path d="M368.422549,306.697039 L357.226654,306.697039 C353.129021,306.697039 349.794989,303.244925 349.794989,298.977264 C349.794989,295.491636 352.515989,292.665148 355.882286,292.665148 L369.777672,292.665148 C373.133214,292.665148 375.854214,295.491636 375.854214,298.977264 C375.854214,303.244925 372.530937,306.697039 368.422549,306.697039" id="Fill-210" fill="#4F3C79"></path>
            <path d="M409.230176,302.676215 L398.209977,305.466812 C394.161963,306.485601 390.070306,303.993997 389.066485,299.896692 C388.248154,296.541331 390.255794,293.141675 393.561854,292.31114 L407.244358,288.845041 C410.539506,288.003433 413.88921,290.052085 414.718453,293.407446 C415.722273,297.504751 413.267278,301.657425 409.230176,302.676215" id="Fill-211" fill="#4F3C79"></path>
            <path d="M383.010293,54.8548506 L372.582868,58.6925844 C368.763026,60.0920999 364.549495,58.058429 363.176905,54.1222918 C362.059681,50.9187134 363.687636,47.3761899 366.815864,46.2281499 L379.754383,41.4610504 C382.88261,40.3020766 386.330044,41.9749349 387.447268,45.189447 C388.819858,49.1146505 386.830135,53.4444015 383.010293,54.8548506" id="Fill-212" fill="#7E5DA8"></path>
            <path d="M109.83485,254.578588 L98.6389545,254.578588 C94.5413214,254.578588 91.2072893,251.126474 91.2072893,246.858813 C91.2072893,243.373185 93.9390447,240.546697 97.2945867,240.546697 L111.189972,240.546697 C114.545514,240.546697 117.266515,243.373185 117.266515,246.858813 C117.266515,251.126474 113.943238,254.578588 109.83485,254.578588" id="Fill-213" fill="#7E5DA8"></path>
            <path d="M145.916854,254.578588 L134.720959,254.578588 C130.612571,254.578588 127.289294,251.126474 127.289294,246.858813 C127.289294,243.373185 130.010294,240.546697 133.365836,240.546697 L147.261222,240.546697 C150.616764,240.546697 153.348519,243.373185 153.348519,246.858813 C153.348519,251.126474 150.014487,254.578588 145.916854,254.578588" id="Fill-214" fill="#7E5DA8"></path>
            <path d="M183.001137,254.578588 L171.805242,254.578588 C167.707608,254.578588 164.373576,251.126474 164.373576,246.858813 C164.373576,243.373185 167.094577,240.546697 170.460874,240.546697 L184.356259,240.546697 C187.711801,240.546697 190.432802,243.373185 190.432802,246.858813 C190.432802,251.126474 187.109525,254.578588 183.001137,254.578588" id="Fill-215" fill="#7E5DA8"></path>
            <path d="M240.546697,182.411238 L240.546697,168.502126 C240.158496,168.469552 239.791862,168.382688 239.392878,168.382688 C231.693561,168.382688 225.460781,174.658618 225.460781,182.411238 C225.460781,202.856872 208.940679,219.491344 188.624835,219.491344 L85.1046113,219.491344 C77.4052947,219.491344 71.1617312,225.778132 71.1617312,233.530752 L189.778654,233.530752 C217.815381,233.530752 240.546697,210.642065 240.546697,182.411238" id="Fill-216" fill="#7E5DA8"></path>
            <path d="M240.780402,168.382688 L240.780402,182.313401 C240.780402,210.588072 218.017723,233.512306 189.942313,233.512306 L71.1617312,233.512306 C71.1725294,241.266091 77.4139091,247.562642 85.1238487,247.562642 L188.786902,247.562642 C224.51826,247.562642 253.57631,218.287483 253.57631,182.313401 C253.57631,174.951112 247.939631,168.980806 240.780402,168.382688" id="Fill-217" fill="#4F3C79"></path>
        </g>
        <g id="ink!athon-copy" transform="translate(5, 367)" fill="#FFFFFF" fill-rule="nonzero" stroke="#1B1B1D" stroke-width="5">
            <g id="Group-3">
                <path d="M9.5,19.5 C12.623989,19.5 15.1154184,20.6368546 16.8526873,22.5757402 C18.4973538,24.4112764 19.5,27.0434108 19.5,30.3704036 L19.5,74.6843049 C19.5,78.0132809 18.4964233,80.6292109 16.8536021,82.4507043 C15.1178335,84.3752539 12.6271029,85.5 9.5,85.5 C6.3463812,85.5 3.86386063,84.3762717 2.13787641,82.4625706 C0.495312481,80.6413625 -0.5,78.0221161 -0.5,74.6843049 L-0.5,30.3704036 C-0.5,27.0346034 0.494339482,24.399057 2.13877586,22.5637776 C3.86627294,20.6357979 6.34951899,19.5 9.5,19.5 Z M9,-2.5 C12.2040541,-2.5 15.02791,-1.36779552 17.0621996,0.440461925 C19.2099823,2.34960208 20.5,5.01164425 20.5,8 C20.5,10.9611623 19.2076363,13.6326556 17.04784,15.5524745 C15.0139227,17.360401 12.1952064,18.5 9,18.5 C5.80479361,18.5 2.98607731,17.360401 0.952159983,15.5524745 C-1.20763632,13.6326556 -2.5,10.9611623 -2.5,8 C-2.5,5.01164425 -1.2099823,2.34960208 0.93780038,0.440461925 C2.97209001,-1.36779552 5.79594587,-2.5 9,-2.5 Z" id="Shape"></path>
                <path d="M35.6177387,19.76 C38.8147882,19.76 41.4209952,20.8546424 43.2483642,22.7111334 C44.2105182,23.6886208 44.9718354,24.8925934 45.4696339,26.3072475 L45.506,26.417 L45.6898521,26.2221604 C46.7573002,25.1091362 47.930548,24.1364925 49.2119157,23.3071642 L49.599572,23.0626681 C52.9699751,20.9917281 57.0885121,19.869991 62.0671859,19.869991 C69.3849863,19.869991 75.0562991,22.2545595 78.9489136,26.4598939 C82.8229018,30.6451058 84.9804523,36.7271426 84.9804523,44.4231928 L84.9804523,75.2206816 C84.9804523,78.6703523 83.878507,81.2659879 82.1566732,83.0625395 C80.2928139,85.0072796 77.6338203,86.08 74.468794,86.08 C71.2750445,86.08 68.6258709,85.0083869 66.7729432,83.0750528 C65.0514988,81.2789076 63.9571357,78.6801729 63.9571357,75.2206816 L63.9571357,47.7779193 C63.9571357,44.6432963 63.3263609,42.1210541 61.8236509,40.4391959 C60.4381266,38.8884941 58.3370967,38.1789058 55.6468844,38.1789058 C52.8736673,38.1789058 50.5753194,39.1441458 48.9825347,40.8970932 C47.2830883,42.7674277 46.4037689,45.4586273 46.4037689,48.602852 L46.4037689,75.2206816 C46.4037689,78.6801729 45.3094058,81.2789076 43.5879614,83.0750528 C41.7350337,85.0083869 39.08586,86.08 35.8921106,86.08 C32.7270843,86.08 30.0680907,85.0072796 28.2042314,83.0625395 C26.4823975,81.2659879 25.3804523,78.6703523 25.3804523,75.2206816 L25.3804523,30.3443408 C25.3804523,27.077978 26.4148204,24.4911997 28.1402733,22.6883519 C29.8944158,20.8555277 32.4139829,19.76 35.6177387,19.76 Z" id="Path"></path>
                <path d="M100.987204,-0.4 C104.17577,-0.4 106.823241,0.681940933 108.676335,2.62356302 C110.400253,4.4298376 111.493955,7.03871447 111.493955,10.4892598 L111.493955,40.9501778 L128.705818,23.8728424 C131.442654,21.0048466 133.796173,19.9425841 136.853064,19.9425841 C139.611904,19.9425841 141.98837,20.9767927 143.690327,22.6392005 C145.427739,24.3362397 146.482363,26.7055187 146.482363,29.406218 C146.482363,32.5160061 145.671547,34.4782373 142.675325,37.2621949 L129.369433,49.8349296 L144.377919,68.9563167 C146.595634,71.9295145 147.140452,73.7367678 147.140452,76.3422073 C147.140452,79.2344579 146.047192,81.6589164 144.238429,83.376309 C142.474152,85.0514625 139.987151,86.08 137.017586,86.08 C132.804075,86.08 130.308934,84.7755434 127.137055,80.0396474 L113.764055,62.341563 L111.493955,64.4404502 L111.493955,75.245572 C111.493955,78.6980337 110.399389,81.291379 108.677398,83.0838422 C106.825832,85.0111833 104.178678,86.08 100.987204,86.08 C97.824427,86.08 95.1674656,85.0100776 93.3049765,83.0713661 C91.5825936,81.2784947 90.4804523,78.6882305 90.4804523,75.245572 L90.4804523,10.4892598 C90.4804523,7.04849701 91.5817675,4.44280362 93.3060433,2.63615366 C95.17005,0.683097449 97.827302,-0.4 100.987204,-0.4 Z" id="Path"></path>
                <path d="M166.5,63.5 C169.836391,63.5 172.814353,64.7623419 174.963353,66.7982365 C177.158,68.8773758 178.5,71.7649183 178.5,75 C178.5,78.2350817 177.158,81.1226242 174.963353,83.2017635 C172.814353,85.2376581 169.836391,86.5 166.5,86.5 C163.163609,86.5 160.185647,85.2376581 158.036647,83.2017635 C155.842,81.1226242 154.5,78.2350817 154.5,75 C154.5,71.7649183 155.842,68.8773758 158.036647,66.7982365 C160.185647,64.7623419 163.163609,63.5 166.5,63.5 Z M166.054795,-0.5 C169.280361,-0.5 171.857287,0.577952049 173.65582,2.4008386 C175.426162,4.19515222 176.5,6.77112683 176.5,10.0527888 C176.5,10.5297311 176.496323,11.2317806 176.442679,11.8398529 L175.622347,49.6750794 C175.51602,52.7820268 174.551165,55.1791985 172.96,56.83115 C171.354202,58.4982944 169.061423,59.5 166,59.5 C162.930633,59.5 160.634503,58.4925387 159.035708,56.8197973 C157.454915,55.1658912 156.505288,52.7689223 156.432175,49.6623841 L155.55474,11.7227694 C155.555809,11.4645595 155.540928,11.1763531 155.527956,10.9047271 C155.512962,10.5907672 155.5,10.2933634 155.5,10.0527888 C155.5,6.76815005 156.58988,4.18855675 158.387562,2.39132237 C160.20456,0.574776302 162.806525,-0.5 166.054795,-0.5 Z" id="Shape"></path>
                <path d="M214.321026,19.5 C222.455628,19.5 229.133757,21.682312 233.806853,25.387637 C238.709451,29.2749352 241.5,34.8394142 241.5,41.5681004 L241.5,74.9650538 C241.5,78.3228693 240.42898,80.8390533 238.75747,82.5789851 C236.949895,84.460552 234.369175,85.5 231.281026,85.5 C228.365707,85.5 225.94537,84.5922775 224.191203,82.9544029 C223.203995,82.0326423 222.40723,80.8651246 221.875866,79.4378677 L221.772,79.144 L221.640592,79.2641672 C220.457679,80.3172774 219.157664,81.2453568 217.770771,82.0376583 L217.352127,82.2712646 C213.768513,84.2240193 209.641799,85.281362 205.514872,85.281362 C199.223687,85.281362 193.721088,83.1685503 189.801206,79.6002917 C185.880319,76.0311186 183.5,70.9973003 183.5,65.0170251 C183.5,58.8587417 185.879915,54.0138576 190.312279,50.5592517 C194.491227,47.3021597 200.630385,45.2886023 208.573348,44.8117741 L220.898974,44.0773286 L220.898974,42.5519713 C220.898974,40.669709 220.31511,39.135402 219.139098,38.0974176 C217.830558,36.9424606 215.908159,36.4157706 213.614359,36.4157706 C209.589367,36.4157706 207.203135,37.83012 204.288942,41.6169744 C201.92456,44.3003343 199.306081,45.5439068 196.002051,45.5439068 C193.363907,45.5439068 191.126026,44.6340021 189.532112,43.1626466 C187.875697,41.633597 186.870256,39.4791817 186.870256,36.922043 C186.870256,35.3267701 187.200814,33.8656794 187.882685,32.3392994 C189.45814,28.3462478 192.844751,25.0395115 197.65018,22.7867565 C202.125979,20.6885303 207.853755,19.5 214.321026,19.5 Z M221.5,59.6635633 L212.218548,60.2521605 C209.962516,60.4233016 208.149711,60.953162 206.929532,61.9247049 C205.987954,62.6744166 205.5,63.7099349 205.5,64.9602888 C205.5,66.2851015 206.00438,67.3809436 206.935465,68.136508 C208.078053,69.0637051 209.73673,69.5 211.675063,69.5 C214.459074,69.5 217.006637,68.5941487 218.82975,67.0001294 C220.47173,65.5644826 221.5,63.5612415 221.5,61.2238267 L221.5,59.6635633 Z" id="Shape"></path>
                <path d="M262.336188,6.32 C265.623734,6.32 268.214235,7.43932086 270.018091,9.31364763 C271.79759,11.1626668 272.861893,13.8153521 272.861893,17.1592472 L272.861893,21.188 L276.023864,21.188 C278.675972,21.188 280.785947,22.0824643 282.265497,23.5327623 C283.770295,25.0078085 284.68057,27.109641 284.68057,29.7229815 C284.68057,32.3363221 283.770295,34.4381546 282.265497,35.9132008 C280.785947,37.3634988 278.675972,38.2579631 276.023864,38.2579631 L272.861893,38.2579631 L272.861893,63.9029225 C272.861893,65.2285651 272.946383,66.2488092 273.463998,66.904725 C273.884699,67.437833 274.612007,67.5450346 275.482732,67.612737 L276.566834,67.7266307 C279.281808,68.0265884 281.28556,68.8604331 282.644203,70.1553476 C284.05316,71.4982157 284.900452,73.368039 284.900452,76.0277491 C284.900452,79.237971 283.403793,81.7103693 280.732911,83.3844665 C278.408765,84.8412308 275.061,85.66 271.021541,85.66 L270.471835,85.66 C264.301109,85.66 259.726675,84.0032339 256.637389,81.0038661 C253.518733,77.9759835 251.810482,73.497131 251.810482,67.469048 L251.810482,38.2579631 L251.232129,38.2579631 C248.574814,38.2579631 246.445364,37.3739211 244.951901,35.9229407 C243.442922,34.4568855 242.520452,32.3632897 242.520452,29.7229815 C242.520452,27.0826734 243.442922,24.9890776 244.951901,23.5230224 C246.445364,22.072042 248.574814,21.188 251.232129,21.188 L251.810482,21.188 L251.810482,17.1592472 C251.810482,13.8153521 252.874785,11.1626668 254.654284,9.31364763 C256.45814,7.43932086 259.048642,6.32 262.336188,6.32 Z" id="Path"></path>
                <path d="M298.271767,-0.4 C301.538454,-0.4 304.081081,0.698971534 305.845184,2.55047473 C307.574092,4.36503935 308.608281,6.97913629 308.608281,10.3247645 L308.608281,26.2127519 C309.712781,25.1292143 310.924365,24.1806312 312.238177,23.3719695 C315.732319,21.2212975 319.967989,20.0522476 324.904954,20.0522476 C332.191272,20.0522476 337.876837,22.471699 341.792917,26.6833401 C345.711482,30.8976531 347.900452,36.9937509 347.900452,44.5946164 L347.900452,75.245572 C347.900452,78.697747 346.806662,81.2908724 345.08607,83.0831854 C343.235386,85.0110142 340.589488,86.08 337.399536,86.08 C334.23827,86.08 331.582566,85.0099119 329.720963,83.0707094 C327.99998,81.2779884 326.89862,78.6879458 326.89862,75.245572 L326.89862,47.9941857 C326.89862,44.9004478 326.230657,42.3598056 324.683707,40.6502682 C323.260547,39.0775324 321.119319,38.3215343 318.383659,38.3215343 C315.465884,38.3215343 313.102861,39.272571 311.482841,41.0341358 C309.742414,42.9266278 308.882285,45.6666381 308.882285,48.8714939 L308.882285,75.245572 C308.882285,78.697747 307.788494,81.2908724 306.067903,83.0831854 C304.217218,85.0110142 301.57132,86.08 298.381369,86.08 C295.220102,86.08 292.564399,85.0099119 290.702795,83.0707094 C288.981812,81.2779884 287.880452,78.6879458 287.880452,75.245572 L287.880452,10.3247645 C287.880452,6.98209548 288.927302,4.36781374 290.669918,2.55156298 C292.44835,0.697982815 295.007573,-0.4 298.271767,-0.4 Z" id="Path"></path>
                <path d="M383,19.5 C392.611133,19.5 400.506072,22.7309254 406.002175,28.5009689 C411.374333,34.1408896 414.5,42.2692982 414.5,52.4454383 C414.5,62.7598486 411.414496,70.9087073 406.071405,76.5382183 C400.598459,82.3045441 392.705719,85.5 383,85.5 C373.301084,85.5 365.411982,82.2949261 359.939233,76.5288077 C354.588805,70.8915668 351.5,62.7379603 351.5,52.4454383 C351.5,42.2912159 354.629075,34.157924 360.008665,28.5102004 C365.504521,22.7404165 373.395693,19.5 383,19.5 Z M383.027719,37.5 C379.896422,37.5 377.313527,38.8653457 375.524624,41.4056757 C373.538624,44.2258929 372.5,48.3444803 372.5,53.5 C372.5,58.7112111 373.512567,62.8372264 375.49132,65.6471526 C377.270432,68.1735786 379.858127,69.5 383.027719,69.5 C386.173455,69.5 388.746095,68.1703669 390.517019,65.6448202 C392.487799,62.8342566 393.5,58.7094055 393.5,53.5 C393.5,48.3367788 392.471168,44.2130898 390.492572,41.391379 C388.717376,38.8597405 386.151067,37.5 383.027719,37.5 Z" id="Shape"></path>
                <path d="M427.897739,19.76 C431.094788,19.76 433.700995,20.8546424 435.528364,22.7111334 C436.490518,23.6886208 437.251835,24.8925934 437.749634,26.3072475 L437.786,26.417 L437.969852,26.2221604 C439.0373,25.1091362 440.210548,24.1364925 441.491916,23.3071642 L441.879572,23.0626681 C445.249975,20.9917281 449.368512,19.869991 454.347186,19.869991 C461.664986,19.869991 467.336299,22.2545595 471.228914,26.4598939 C475.102902,30.6451058 477.260452,36.7271426 477.260452,44.4231928 L477.260452,75.2206816 C477.260452,78.6703523 476.158507,81.2659879 474.436673,83.0625395 C472.572814,85.0072796 469.91382,86.08 466.748794,86.08 C463.555045,86.08 460.905871,85.0083869 459.052943,83.0750528 C457.331499,81.2789076 456.237136,78.6801729 456.237136,75.2206816 L456.237136,47.7779193 C456.237136,44.6432963 455.606361,42.1210541 454.103651,40.4391959 C452.718127,38.8884941 450.617097,38.1789058 447.926884,38.1789058 C445.153667,38.1789058 442.855319,39.1441458 441.262535,40.8970932 C439.563088,42.7674277 438.683769,45.4586273 438.683769,48.602852 L438.683769,75.2206816 C438.683769,78.6801729 437.589406,81.2789076 435.867961,83.0750528 C434.015034,85.0083869 431.36586,86.08 428.172111,86.08 C425.007084,86.08 422.348091,85.0072796 420.484231,83.0625395 C418.762398,81.2659879 417.660452,78.6703523 417.660452,75.2206816 L417.660452,30.3443408 C417.660452,27.077978 418.69482,24.4911997 420.420273,22.6883519 C422.174416,20.8555277 424.693983,19.76 427.897739,19.76 Z" id="Path"></path>
            </g>
        </g>
    </g>
</svg>