<?xml version="1.0" encoding="UTF-8" standalone="no"?>
<svg
   id="Layer_1"
   data-name="Layer 1"
   viewBox="0 0 1601.68 800.85"
   version="1.1"
   sodipodi:docname="kv.svg"
   inkscape:version="1.2.1 (9c6d41e410, 2022-07-14)"
   xmlns:inkscape="http://www.inkscape.org/namespaces/inkscape"
   xmlns:sodipodi="http://sodipodi.sourceforge.net/DTD/sodipodi-0.dtd"
   xmlns="http://www.w3.org/2000/svg"
   xmlns:svg="http://www.w3.org/2000/svg">
  <sodipodi:namedview
     id="namedview276"
     pagecolor="#ffffff"
     bordercolor="#666666"
     borderopacity="1.0"
     inkscape:showpageshadow="2"
     inkscape:pageopacity="0.0"
     inkscape:pagecheckerboard="0"
     inkscape:deskcolor="#d1d1d1"
     showgrid="false"
     inkscape:zoom="0.40863342"
     inkscape:cx="586.09988"
     inkscape:cy="409.90284"
     inkscape:window-width="1499"
     inkscape:window-height="1080"
     inkscape:window-x="0"
     inkscape:window-y="23"
     inkscape:window-maximized="1"
     inkscape:current-layer="Layer_1" />
  <defs
     id="defs7">
    <rect
       x="1332.4901"
       y="598.33579"
       width="267.96634"
       height="36.707717"
       id="rect364" />
    <rect
       x="1348.3968"
       y="365.85358"
       width="291.21456"
       height="123.58265"
       id="rect617" />
    <rect
       x="1029.6658"
       y="250.83607"
       width="507.16395"
       height="312.01559"
       id="rect487" />
    <style
       id="style2">
      .cls-1, .cls-2, .cls-3 {
        fill: none;
      }

      .cls-4 {
        clip-path: url(#clippath);
      }

      .cls-5 {
        fill: #fff;
      }

      .cls-6 {
        fill: #bc83fb;
      }

      .cls-7 {
        fill: #d8b7fb;
      }

      .cls-8 {
        fill: #242526;
      }

      .cls-2 {
        stroke: #bc83fb;
      }

      .cls-2, .cls-3 {
        stroke-linecap: round;
        stroke-miterlimit: 10;
        stroke-width: 4px;
      }

      .cls-3 {
        stroke: #8747cc;
      }
    </style>
    <clipPath
       id="clippath">
      <path
         class="cls-1"
         d="m324.31,296.75v197.33c0,42.56-221.68,42.56-221.68,0v-197.33c0-36.79,221.68-36.79,221.68,0Z"
         id="path4" />
    </clipPath>
  </defs>
  <rect
     class="cls-8"
     width="1601.68"
     height="800.85"
     id="rect9" />
  <g
     id="g43">
    <path
       d="m324.31,484.48l-110.84,41.52c130.63,6.23,203.27-29.21,110.84-41.52Z"
       id="path11" />
    <g
       id="g23">
      <path
         class="cls-6"
         d="m324.31,296.75v197.33c0,42.56-221.68,42.56-221.68,0v-197.33c0-36.79,221.68-36.79,221.68,0Z"
         id="path13" />
      <path
         class="cls-7"
         d="m324.31,296.75c0,33.22-221.68,33.22-221.68,0,0-36.79,221.68-36.79,221.68,0Z"
         id="path15" />
      <g
         class="cls-4"
         clip-path="url(#clippath)"
         id="g21">
        <path
           class="cls-3"
           d="m326.34,364.69c0,33.23-225.73,33.23-225.73,0"
           id="path17" />
        <path
           class="cls-3"
           d="m326.34,432.63c0,33.23-225.73,33.23-225.73,0"
           id="path19" />
      </g>
    </g>
    <g
       id="g41">
      <path
         class="cls-5"
         d="m120.34,424.54c0-10.78,0-16.18,0-26.96,4.85,1,7.28,1.47,12.14,2.34,2.91.52,5.47,1.51,7.7,2.99,2.22,1.48,3.96,3.3,5.22,5.49,1.25,2.19,1.88,4.66,1.88,7.4s-.63,5-1.88,6.83c-1.25,1.83-2.99,3.13-5.22,3.89-2.22.76-4.79.88-7.7.36-4.87-.87-7.3-1.34-12.14-2.34Zm6.18-3.89c2.26.44,3.39.65,5.66,1.05,1.79.32,3.34.25,4.65-.21,1.32-.46,2.34-1.26,3.07-2.4.73-1.14,1.09-2.56,1.09-4.25s-.36-3.26-1.09-4.62c-.73-1.36-1.75-2.49-3.07-3.4-1.32-.9-2.87-1.51-4.65-1.83-2.26-.41-3.4-.62-5.66-1.05,0,6.69,0,10.03,0,16.71Z"
         id="path25" />
      <path
         class="cls-5"
         d="m157.93,431.02c-1.62-.2-3-.65-4.16-1.35-1.15-.7-2.04-1.57-2.65-2.61-.62-1.03-.92-2.14-.92-3.32s.3-2.27.9-3.11c.6-.84,1.56-1.44,2.87-1.79,1.31-.36,3.01-.4,5.12-.15,2.2.26,3.31.39,5.51.62v3.5c-1.94-.21-2.91-.32-4.86-.55-1.41-.17-2.38-.06-2.91.34-.53.4-.79.94-.79,1.63,0,.77.3,1.42.9,1.94.6.52,1.43.85,2.48.98,1,.12,1.9-.01,2.7-.4.8-.39,1.37-1.02,1.73-1.91.37,1.15.56,1.72.93,2.87-.44,1.29-1.23,2.22-2.39,2.78-1.16.56-2.65.74-4.47.52Zm6.32.42c0-1.62,0-2.43,0-4.04-.15-.37-.23-.56-.39-.93v-7.24c0-1.28-.39-2.33-1.18-3.13-.78-.81-1.98-1.3-3.6-1.49-1.1-.13-2.19-.09-3.25.12-1.06.21-1.97.56-2.71,1.05-.86-1.79-1.29-2.69-2.15-4.49,1.13-.64,2.49-1.07,4.08-1.31,1.59-.23,3.21-.25,4.85-.06,3.16.37,5.61,1.37,7.36,3.04,1.75,1.67,2.62,4.07,2.62,7.23,0,4.73,0,7.09,0,11.82-2.25-.22-3.38-.33-5.63-.57Z"
         id="path27" />
      <path
         class="cls-5"
         d="m172.85,416.65v-4.62c5.76.51,8.64.72,14.41,1.05,0,1.85,0,2.77,0,4.62-5.77-.33-8.65-.54-14.41-1.05Zm10.97,16.79c-2.45-.16-4.35-.92-5.72-2.27-1.36-1.35-2.05-3.26-2.05-5.73,0-7.27,0-10.91,0-18.18,2.41.2,3.62.29,6.03.45,0,7.24,0,10.86,0,18.1,0,.87.23,1.56.7,2.07.46.51,1.09.79,1.89.84.95.06,1.77-.15,2.44-.62.65,1.73.97,2.6,1.62,4.33-.62.4-1.36.69-2.22.86-.86.17-1.76.22-2.69.16Z"
         id="path29" />
      <path
         class="cls-5"
         d="m198.56,434.15c-1.63-.05-3.02-.38-4.18-.98-1.16-.6-2.05-1.39-2.67-2.37-.62-.98-.93-2.06-.93-3.24s.3-2.3.91-3.19c.61-.9,1.57-1.58,2.88-2.05,1.32-.47,3.03-.67,5.15-.61,2.21.07,3.32.09,5.54.13,0,1.4,0,2.1,0,3.5-1.95-.04-2.93-.06-4.88-.11-1.42-.04-2.39.16-2.92.6-.53.44-.79,1.01-.79,1.7,0,.77.3,1.39.91,1.86.61.47,1.44.72,2.5.75,1.01.03,1.91-.18,2.71-.64.8-.46,1.38-1.14,1.74-2.06.37,1.12.56,1.67.93,2.79-.44,1.33-1.24,2.33-2.4,2.99-1.16.67-2.66.98-4.49.92Zm6.35-.15c0-1.62,0-2.43,0-4.04-.15-.36-.23-.54-.39-.89v-7.24c0-1.28-.39-2.29-1.18-3.03-.79-.74-1.99-1.12-3.62-1.17-1.11-.03-2.2.1-3.27.41-1.07.31-1.98.74-2.73,1.3-.87-1.72-1.3-2.58-2.17-4.3,1.13-.74,2.5-1.3,4.1-1.67,1.6-.37,3.22-.54,4.88-.49,3.17.09,5.64.87,7.39,2.38,1.75,1.51,2.63,3.84,2.63,7,0,4.73,0,7.09,0,11.82-2.26-.01-3.39-.03-5.65-.07Z"
         id="path31" />
      <path
         class="cls-5"
         d="m216.02,434.08c0-11.43,0-17.15,0-28.58,2.42-.01,3.62-.03,6.04-.07,0,4.82,0,7.23,0,12.06-.15,2.45-.23,3.68-.39,6.13.05,2.46.07,3.7.12,6.16,0,1.69,0,2.54,0,4.24-2.31.04-3.46.05-5.77.07Zm12.31.08c-1.83.06-3.41-.29-4.72-1.03-1.32-.74-2.32-1.9-3.02-3.47-.7-1.57-1.05-3.56-1.05-5.97s.37-4.45,1.1-6.02c.74-1.58,1.76-2.76,3.08-3.56,1.32-.8,2.85-1.22,4.61-1.28,1.96-.06,3.72.3,5.28,1.11,1.56.81,2.8,1.98,3.71,3.52.92,1.54,1.37,3.41,1.37,5.59,0,2.16-.46,4.06-1.37,5.7-.92,1.64-2.15,2.94-3.71,3.89-1.56.95-3.32,1.47-5.28,1.53Zm-1.05-4.9c1.01-.03,1.9-.29,2.69-.78.79-.49,1.42-1.18,1.9-2.06.48-.88.72-1.91.72-3.09s-.24-2.22-.72-3.05c-.48-.83-1.11-1.46-1.9-1.89-.79-.43-1.68-.63-2.69-.6-1.01.03-1.91.28-2.71.77s-1.43,1.15-1.9,2.01c-.46.86-.7,1.89-.7,3.09s.23,2.2.7,3.05c.46.85,1.1,1.5,1.9,1.94s1.7.65,2.71.62Z"
         id="path33" />
      <path
         class="cls-5"
         d="m248.79,433.04c-1.62.12-3.01-.05-4.17-.53-1.16-.47-2.05-1.17-2.67-2.08-.62-.91-.93-1.96-.93-3.14,0-1.23.3-2.33.91-3.29.61-.96,1.57-1.75,2.88-2.36,1.31-.62,3.03-1,5.14-1.17,2.21-.18,3.31-.27,5.52-.47v3.5c-1.95.18-2.92.26-4.86.42-1.42.11-2.39.42-2.92.92-.53.5-.79,1.1-.79,1.79,0,.77.3,1.36.91,1.76.6.4,1.44.57,2.49.48,1-.08,1.91-.39,2.7-.94.8-.54,1.38-1.3,1.74-2.25.37,1.08.56,1.61.93,2.69-.44,1.38-1.23,2.46-2.39,3.26-1.16.79-2.65,1.27-4.48,1.41Zm6.33-.84v-4.04c-.15-.34-.23-.51-.39-.85v-7.24c0-1.28-.39-2.25-1.18-2.9-.79-.65-1.99-.91-3.61-.78-1.11.09-2.2.34-3.26.77-1.07.42-1.98.95-2.72,1.59-.87-1.62-1.3-2.43-2.16-4.06,1.13-.87,2.5-1.57,4.1-2.12,1.6-.55,3.22-.89,4.87-1.02,3.17-.26,5.62.26,7.37,1.58,1.75,1.32,2.62,3.55,2.62,6.71,0,4.73,0,7.09,0,11.82-2.25.23-3.38.34-5.63.55Z"
         id="path35" />
      <path
         class="cls-5"
         d="m273.16,430.51c-1.77.23-3.47.23-5.1,0-1.63-.23-2.92-.62-3.87-1.15.8-1.81,1.2-2.72,2-4.54.95.48,2.07.83,3.37,1.04,1.3.21,2.57.24,3.83.07,1.38-.18,2.36-.48,2.94-.9.58-.41.87-.92.87-1.51,0-.49-.23-.82-.67-1-.45-.18-1.04-.29-1.79-.31-.74-.03-1.56-.05-2.44-.06-.89-.01-1.78-.08-2.67-.18-.9-.11-1.72-.34-2.46-.69-.75-.35-1.34-.87-1.79-1.56-.45-.69-.67-1.63-.67-2.81,0-1.31.38-2.51,1.14-3.59.76-1.09,1.86-2.01,3.29-2.76,1.44-.75,3.16-1.26,5.16-1.52,1.41-.19,2.85-.23,4.31-.13,1.46.1,2.68.37,3.65.81-.8,1.83-1.2,2.75-2,4.57-1-.44-2-.7-3.02-.78-1.01-.08-1.99-.05-2.94.07-1.33.18-2.31.48-2.92.92-.62.44-.92.94-.92,1.5,0,.51.22.87.67,1.07.45.2,1.05.33,1.79.39.74.06,1.56.08,2.44.08.88,0,1.77.05,2.67.15.9.1,1.71.31,2.44.63.73.32,1.33.8,1.79,1.47.46.66.69,1.58.69,2.76,0,1.28-.38,2.48-1.15,3.58-.77,1.1-1.88,2.05-3.32,2.82-1.45.77-3.21,1.3-5.29,1.57Z"
         id="path37" />
      <path
         class="cls-5"
         d="m296.82,426.79c-2.35.43-4.41.33-6.18-.29-1.78-.62-3.15-1.66-4.12-3.11-.97-1.45-1.46-3.2-1.46-5.26s.48-4,1.44-5.76c.96-1.76,2.27-3.23,3.93-4.42,1.66-1.19,3.54-1.98,5.63-2.36,2.01-.37,3.83-.28,5.44.26,1.62.55,2.89,1.52,3.83,2.93.94,1.41,1.41,3.23,1.41,5.47,0,.23-.01.5-.04.8-.03.3-.05.58-.08.84-6.66,1.38-10,2-16.7,3.13v-3.51c5.44-.92,8.16-1.42,13.57-2.5-.92.6-1.37.9-2.29,1.49,0-1.08-.22-1.97-.65-2.69-.43-.71-1.03-1.22-1.8-1.53-.76-.3-1.66-.36-2.68-.18-1.02.19-1.92.57-2.7,1.16-.78.59-1.38,1.32-1.82,2.2-.43.88-.65,1.88-.65,2.98v.92c0,1.13.25,2.08.75,2.86.5.77,1.2,1.31,2.11,1.6.9.29,1.97.32,3.19.1,1.1-.2,2.06-.55,2.88-1.04.83-.49,1.58-1.14,2.27-1.94,1.27,1.14,1.9,1.7,3.17,2.83-.94,1.27-2.12,2.34-3.55,3.19-1.43.86-3.07,1.46-4.93,1.8Z"
         id="path39" />
    </g>
  </g>
  <g
     id="g163">
    <g
       id="g63">
      <path
         class="cls-2"
         d="m926.64,75.31h-403.67c-8.87,0-16.06,7.19-16.06,16.06v618.1c0,8.87,7.19,16.06,16.06,16.06h403.67"
         id="path45" />
      <g
         id="g61">
        <line
           class="cls-2"
           x1="522.97"
           y1="156.57"
           x2="926.64"
           y2="156.57"
           id="line47" />
        <line
           class="cls-2"
           x1="522.97"
           y1="237.86"
           x2="926.64"
           y2="237.86"
           id="line49" />
        <line
           class="cls-2"
           x1="522.97"
           y1="319.14"
           x2="926.64"
           y2="319.14"
           id="line51" />
        <line
           class="cls-2"
           x1="522.97"
           y1="400.43"
           x2="926.64"
           y2="400.43"
           id="line53" />
        <line
           class="cls-2"
           x1="522.97"
           y1="481.71"
           x2="926.64"
           y2="481.71"
           id="line55" />
        <line
           class="cls-2"
           x1="522.97"
           y1="562.99"
           x2="926.64"
           y2="562.99"
           id="line57" />
        <line
           class="cls-2"
           x1="522.97"
           y1="644.28"
           x2="926.64"
           y2="644.28"
           id="line59" />
      </g>
    </g>
    <g
       id="g71">
      <path
         class="cls-6"
         d="m413.46,400.43c.01,5.77,3.73,10.88,9.22,12.67,9.09,2.96,9.09,7.69,9.09,9.96v290.26c0,7.24,5.7,13.46,12.94,13.49,1.16,0,2.28-.14,3.35-.42.42-.11.77-.41.94-.81s.15-.86-.07-1.24c-.08-.14-.15-.27-.22-.41-6.44-12-2.07-25.39,7.72-30.69.82-.44,1.31-1.31,1.31-2.24v-267.92c0-8.09-2.4-15.26-6.87-21.13-.34-.44-.51-.97-.52-1.5,0-.53.18-1.05.52-1.5,4.47-5.86,6.87-13.03,6.87-21.13V109.88c0-.93-.49-1.8-1.31-2.24-9.79-5.3-14.16-18.7-7.72-30.69.07-.14.15-.27.22-.41.21-.38.24-.84.07-1.24s-.52-.7-.94-.81c-1.07-.28-2.19-.43-3.35-.42-7.24.02-12.94,6.25-12.94,13.49v290.26c0,2.27,0,7-9.09,9.96-5.49,1.79-9.21,6.9-9.22,12.67Z"
         id="path65" />
      <path
         class="cls-6"
         d="m476.92,719.59c5.16-8.48-.73-20.36-10.6-21.39-9.88-1.02-16.33,9.58-11.62,19.08s17.06,10.78,22.22,2.3Z"
         id="path67" />
      <path
         class="cls-6"
         d="m454.7,83.57c4.71-9.5,17.06-10.78,22.22-2.3,5.16,8.48-.73,20.36-10.6,21.39s-16.33-9.58-11.62-19.08Z"
         id="path69" />
    </g>
    <g
       id="g91">
      <path
         class="cls-5"
         d="m549.96,127.36c-2.35,0-4.21-.97-5.58-2.9-1.36-1.93-2.05-4.66-2.05-8.19s.68-6.29,2.05-8.15c1.37-1.86,3.22-2.8,5.58-2.8s4.24.93,5.59,2.8c1.35,1.86,2.03,4.58,2.03,8.15s-.68,6.26-2.03,8.19c-1.35,1.93-3.22,2.9-5.59,2.9Zm0-2.2c1.49,0,2.7-.72,3.64-2.16.94-1.44,1.41-3.68,1.41-6.72s-.47-5.29-1.41-6.67c-.94-1.39-2.16-2.08-3.64-2.08s-2.7.69-3.64,2.08c-.94,1.39-1.41,3.61-1.41,6.67s.47,5.28,1.41,6.72c.94,1.44,2.16,2.16,3.64,2.16Zm0-6.89c-.56,0-1.04-.2-1.45-.6-.41-.4-.62-.94-.62-1.63s.2-1.23.62-1.61c.41-.39.89-.58,1.45-.58s1.04.19,1.45.58c.41.39.62.93.62,1.61s-.21,1.23-.62,1.63c-.41.4-.89.6-1.45.6Z"
         id="path73" />
      <path
         class="cls-5"
         d="m562.07,126.97l6.16-8.39-5.69-7.79h3.03l2.56,3.56c.29.42.59.87.92,1.35.32.48.65.94.98,1.38h.13c.31-.44.62-.91.93-1.4.31-.49.61-.95.9-1.4l2.43-3.49h2.9l-5.76,8.02,6.19,8.15h-3l-2.83-3.73c-.33-.47-.68-.95-1.05-1.46-.37-.51-.73-1-1.08-1.46h-.13c-.33.49-.67.97-1,1.45-.33.48-.67.97-1,1.48l-2.66,3.73h-2.93Z"
         id="path75" />
      <path
         class="cls-5"
         d="m589.89,127.36c-2.35,0-4.21-.97-5.58-2.9-1.36-1.93-2.05-4.66-2.05-8.19s.68-6.29,2.05-8.15c1.37-1.86,3.22-2.8,5.58-2.8s4.24.93,5.59,2.8c1.35,1.86,2.03,4.58,2.03,8.15s-.68,6.26-2.03,8.19c-1.35,1.93-3.22,2.9-5.59,2.9Zm0-2.2c1.49,0,2.7-.72,3.64-2.16.94-1.44,1.41-3.68,1.41-6.72s-.47-5.29-1.41-6.67c-.94-1.39-2.16-2.08-3.64-2.08s-2.7.69-3.64,2.08c-.94,1.39-1.41,3.61-1.41,6.67s.47,5.28,1.41,6.72c.94,1.44,2.16,2.16,3.64,2.16Zm0-6.89c-.56,0-1.04-.2-1.45-.6-.41-.4-.62-.94-.62-1.63s.2-1.23.62-1.61c.41-.39.89-.58,1.45-.58s1.04.19,1.45.58c.41.39.62.93.62,1.61s-.21,1.23-.62,1.63c-.41.4-.89.6-1.45.6Z"
         id="path77" />
      <path
         class="cls-5"
         d="m603.1,126.97v-2.26h6.12v-15.64h-4.76v-1.76c1.24-.18,2.29-.39,3.14-.65.85-.25,1.62-.56,2.31-.92h2.03v18.97h5.56v2.26h-14.41Z"
         id="path79" />
      <path
         class="cls-5"
         d="m629.83,127.36c-2.35,0-4.21-.97-5.58-2.9-1.36-1.93-2.05-4.66-2.05-8.19s.68-6.29,2.05-8.15c1.37-1.86,3.22-2.8,5.58-2.8s4.24.93,5.59,2.8c1.35,1.86,2.03,4.58,2.03,8.15s-.68,6.26-2.03,8.19c-1.35,1.93-3.22,2.9-5.59,2.9Zm0-2.2c1.49,0,2.7-.72,3.64-2.16.94-1.44,1.41-3.68,1.41-6.72s-.47-5.29-1.41-6.67c-.94-1.39-2.16-2.08-3.64-2.08s-2.7.69-3.64,2.08c-.94,1.39-1.41,3.61-1.41,6.67s.47,5.28,1.41,6.72c.94,1.44,2.16,2.16,3.64,2.16Zm0-6.89c-.56,0-1.04-.2-1.45-.6-.41-.4-.62-.94-.62-1.63s.2-1.23.62-1.61c.41-.39.89-.58,1.45-.58s1.04.19,1.45.58c.41.39.62.93.62,1.61s-.21,1.23-.62,1.63c-.41.4-.89.6-1.45.6Z"
         id="path81" />
      <path
         class="cls-5"
         d="m643.04,126.97v-2.26h6.12v-15.64h-4.76v-1.76c1.24-.18,2.29-.39,3.14-.65.85-.25,1.62-.56,2.31-.92h2.03v18.97h5.56v2.26h-14.41Z"
         id="path83" />
      <path
         class="cls-5"
         d="m669.76,127.36c-.75,0-1.39-.26-1.91-.78s-.78-1.19-.78-2.01.26-1.53.78-2.05c.52-.52,1.16-.78,1.91-.78s1.39.26,1.91.78c.52.52.78,1.2.78,2.05s-.26,1.49-.78,2.01-1.16.78-1.91.78Z"
         id="path85" />
      <path
         class="cls-5"
         d="m689.73,127.36c-.75,0-1.39-.26-1.91-.78s-.78-1.19-.78-2.01.26-1.53.78-2.05c.52-.52,1.16-.78,1.91-.78s1.39.26,1.91.78c.52.52.78,1.2.78,2.05s-.26,1.49-.78,2.01-1.16.78-1.91.78Z"
         id="path87" />
      <path
         class="cls-5"
         d="m709.7,127.36c-.75,0-1.39-.26-1.91-.78s-.78-1.19-.78-2.01.26-1.53.78-2.05c.52-.52,1.16-.78,1.91-.78s1.39.26,1.91.78c.52.52.78,1.2.78,2.05s-.26,1.49-.78,2.01-1.16.78-1.91.78Z"
         id="path89" />
    </g>
    <g
       id="g111">
      <path
         class="cls-5"
         d="m549.96,208.1c-2.35,0-4.21-.97-5.58-2.9-1.36-1.93-2.05-4.66-2.05-8.19s.68-6.29,2.05-8.15c1.37-1.86,3.22-2.8,5.58-2.8s4.24.93,5.59,2.8c1.35,1.86,2.03,4.58,2.03,8.15s-.68,6.26-2.03,8.19c-1.35,1.93-3.22,2.9-5.59,2.9Zm0-2.2c1.49,0,2.7-.72,3.64-2.16.94-1.44,1.41-3.68,1.41-6.72s-.47-5.29-1.41-6.67c-.94-1.39-2.16-2.08-3.64-2.08s-2.7.69-3.64,2.08c-.94,1.39-1.41,3.61-1.41,6.67s.47,5.28,1.41,6.72c.94,1.44,2.16,2.16,3.64,2.16Zm0-6.89c-.56,0-1.04-.2-1.45-.6-.41-.4-.62-.94-.62-1.63s.2-1.23.62-1.61c.41-.39.89-.58,1.45-.58s1.04.19,1.45.58c.41.39.62.93.62,1.61s-.21,1.23-.62,1.63c-.41.4-.89.6-1.45.6Z"
         id="path93" />
      <path
         class="cls-5"
         d="m562.07,207.7l6.16-8.39-5.69-7.79h3.03l2.56,3.56c.29.42.59.87.92,1.35.32.48.65.94.98,1.38h.13c.31-.44.62-.91.93-1.4.31-.49.61-.95.9-1.4l2.43-3.49h2.9l-5.76,8.02,6.19,8.15h-3l-2.83-3.73c-.33-.47-.68-.95-1.05-1.46-.37-.51-.73-1-1.08-1.46h-.13c-.33.49-.67.97-1,1.45-.33.48-.67.97-1,1.48l-2.66,3.73h-2.93Z"
         id="path95" />
      <path
         class="cls-5"
         d="m591.59,208.1c-1.8,0-3.41-.45-4.84-1.35-1.43-.9-2.57-2.19-3.41-3.88-.84-1.69-1.26-3.72-1.26-6.09s.42-4.37,1.26-6.06c.84-1.69,2-2.98,3.48-3.89s3.16-1.36,5.04-1.36c1.31,0,2.47.27,3.49.8,1.02.53,1.84,1.15,2.46,1.86l-1.56,1.76c-.56-.6-1.2-1.08-1.93-1.45s-1.55-.55-2.46-.55c-1.4,0-2.61.36-3.64,1.08-1.03.72-1.84,1.74-2.41,3.04-.58,1.31-.87,2.87-.87,4.69s.29,3.4.87,4.74c.58,1.34,1.38,2.38,2.41,3.11,1.03.73,2.25,1.1,3.64,1.1,1,0,1.9-.21,2.7-.63.8-.42,1.54-1.02,2.23-1.8l1.56,1.7c-.87,1-1.85,1.78-2.95,2.33-1.1.55-2.37.83-3.81.83Z"
         id="path97" />
      <path
         class="cls-5"
         d="m609.86,208.1c-1.64,0-3.1-.45-4.36-1.36-1.26-.91-2.25-2.21-2.96-3.91s-1.06-3.74-1.06-6.14.35-4.36,1.06-6.04,1.7-2.96,2.96-3.84c1.26-.89,2.72-1.33,4.36-1.33s3.09.44,4.36,1.33c1.26.89,2.25,2.17,2.96,3.84.71,1.68,1.06,3.69,1.06,6.04s-.35,4.44-1.06,6.14c-.71,1.7-1.7,3-2.96,3.91-1.26.91-2.72,1.36-4.36,1.36Zm0-2.43c1.66,0,3-.8,4.01-2.4,1.01-1.6,1.51-3.79,1.51-6.59s-.5-4.9-1.51-6.46c-1.01-1.55-2.35-2.33-4.01-2.33s-3,.78-4.01,2.33c-1.01,1.55-1.51,3.71-1.51,6.46s.5,4.99,1.51,6.59c1.01,1.6,2.35,2.4,4.01,2.4Z"
         id="path99" />
      <path
         class="cls-5"
         d="m624.27,207.7v-21.83h13.41v2.33h-10.62v7.39h8.99v2.33h-8.99v9.78h-2.8Z"
         id="path101" />
      <path
         class="cls-5"
         d="m643.6,207.7v-21.83h13.51v2.33h-10.72v6.86h9.05v2.36h-9.05v7.92h11.05v2.36h-13.84Z"
         id="path103" />
      <path
         class="cls-5"
         d="m669.76,208.1c-.75,0-1.39-.26-1.91-.78s-.78-1.19-.78-2.01.26-1.53.78-2.05c.52-.52,1.16-.78,1.91-.78s1.39.26,1.91.78c.52.52.78,1.2.78,2.05s-.26,1.49-.78,2.01-1.16.78-1.91.78Z"
         id="path105" />
      <path
         class="cls-5"
         d="m689.73,208.1c-.75,0-1.39-.26-1.91-.78s-.78-1.19-.78-2.01.26-1.53.78-2.05c.52-.52,1.16-.78,1.91-.78s1.39.26,1.91.78c.52.52.78,1.2.78,2.05s-.26,1.49-.78,2.01-1.16.78-1.91.78Z"
         id="path107" />
      <path
         class="cls-5"
         d="m709.7,208.1c-.75,0-1.39-.26-1.91-.78s-.78-1.19-.78-2.01.26-1.53.78-2.05c.52-.52,1.16-.78,1.91-.78s1.39.26,1.91.78c.52.52.78,1.2.78,2.05s-.26,1.49-.78,2.01-1.16.78-1.91.78Z"
         id="path109" />
    </g>
    <g
       id="g131">
      <path
         class="cls-5"
         d="m549.96,289.63c-2.35,0-4.21-.97-5.58-2.9-1.36-1.93-2.05-4.66-2.05-8.19s.68-6.29,2.05-8.15c1.37-1.86,3.22-2.8,5.58-2.8s4.24.93,5.59,2.8c1.35,1.86,2.03,4.58,2.03,8.15s-.68,6.26-2.03,8.19c-1.35,1.93-3.22,2.9-5.59,2.9Zm0-2.2c1.49,0,2.7-.72,3.64-2.16.94-1.44,1.41-3.68,1.41-6.72s-.47-5.29-1.41-6.67c-.94-1.39-2.16-2.08-3.64-2.08s-2.7.69-3.64,2.08c-.94,1.39-1.41,3.61-1.41,6.67s.47,5.28,1.41,6.72c.94,1.44,2.16,2.16,3.64,2.16Zm0-6.89c-.56,0-1.04-.2-1.45-.6-.41-.4-.62-.94-.62-1.63s.2-1.23.62-1.61c.41-.39.89-.58,1.45-.58s1.04.19,1.45.58c.41.39.62.93.62,1.61s-.21,1.23-.62,1.63c-.41.4-.89.6-1.45.6Z"
         id="path113" />
      <path
         class="cls-5"
         d="m562.07,289.23l6.16-8.39-5.69-7.79h3.03l2.56,3.56c.29.42.59.87.92,1.35.32.48.65.94.98,1.38h.13c.31-.44.62-.91.93-1.4.31-.49.61-.95.9-1.4l2.43-3.49h2.9l-5.76,8.02,6.19,8.15h-3l-2.83-3.73c-.33-.47-.68-.95-1.05-1.46-.37-.51-.73-1-1.08-1.46h-.13c-.33.49-.67.97-1,1.45-.33.48-.67.97-1,1.48l-2.66,3.73h-2.93Z"
         id="path115" />
      <path
         class="cls-5"
         d="m583.14,289.23v-2.26h6.12v-15.64h-4.76v-1.76c1.24-.18,2.29-.39,3.14-.65.85-.25,1.62-.56,2.31-.92h2.03v18.97h5.56v2.26h-14.41Z"
         id="path117" />
      <path
         class="cls-5"
         d="m600.94,289.23l7.35-21.83h3.13l7.36,21.83h-2.93l-2.06-6.66h-7.92l-2.1,6.66h-2.83Zm6.66-12.21l-1.03,3.33h6.52l-1.03-3.33c-.38-1.22-.75-2.43-1.12-3.64-.37-1.21-.72-2.45-1.05-3.71h-.13c-.35,1.26-.71,2.5-1.06,3.71-.36,1.21-.72,2.42-1.1,3.64Z"
         id="path119" />
      <path
         class="cls-5"
         d="m629.83,289.63c-2.35,0-4.21-.97-5.58-2.9-1.36-1.93-2.05-4.66-2.05-8.19s.68-6.29,2.05-8.15c1.37-1.86,3.22-2.8,5.58-2.8s4.24.93,5.59,2.8c1.35,1.86,2.03,4.58,2.03,8.15s-.68,6.26-2.03,8.19c-1.35,1.93-3.22,2.9-5.59,2.9Zm0-2.2c1.49,0,2.7-.72,3.64-2.16.94-1.44,1.41-3.68,1.41-6.72s-.47-5.29-1.41-6.67c-.94-1.39-2.16-2.08-3.64-2.08s-2.7.69-3.64,2.08c-.94,1.39-1.41,3.61-1.41,6.67s.47,5.28,1.41,6.72c.94,1.44,2.16,2.16,3.64,2.16Zm0-6.89c-.56,0-1.04-.2-1.45-.6-.41-.4-.62-.94-.62-1.63s.2-1.23.62-1.61c.41-.39.89-.58,1.45-.58s1.04.19,1.45.58c.41.39.62.93.62,1.61s-.21,1.23-.62,1.63c-.41.4-.89.6-1.45.6Z"
         id="path121" />
      <path
         class="cls-5"
         d="m644.24,289.23v-21.83h13.41v2.33h-10.62v7.39h8.99v2.33h-8.99v9.78h-2.8Z"
         id="path123" />
      <path
         class="cls-5"
         d="m669.76,289.63c-.75,0-1.39-.26-1.91-.78s-.78-1.19-.78-2.01.26-1.53.78-2.05c.52-.52,1.16-.78,1.91-.78s1.39.26,1.91.78c.52.52.78,1.2.78,2.05s-.26,1.49-.78,2.01-1.16.78-1.91.78Z"
         id="path125" />
      <path
         class="cls-5"
         d="m689.73,289.63c-.75,0-1.39-.26-1.91-.78s-.78-1.19-.78-2.01.26-1.53.78-2.05c.52-.52,1.16-.78,1.91-.78s1.39.26,1.91.78c.52.52.78,1.2.78,2.05s-.26,1.49-.78,2.01-1.16.78-1.91.78Z"
         id="path127" />
      <path
         class="cls-5"
         d="m709.7,289.63c-.75,0-1.39-.26-1.91-.78s-.78-1.19-.78-2.01.26-1.53.78-2.05c.52-.52,1.16-.78,1.91-.78s1.39.26,1.91.78c.52.52.78,1.2.78,2.05s-.26,1.49-.78,2.01-1.16.78-1.91.78Z"
         id="path129" />
    </g>
    <g
       id="g151">
      <path
         class="cls-5"
         d="m549.96,694.83c-2.35,0-4.21-.96-5.58-2.9-1.36-1.93-2.05-4.66-2.05-8.19s.68-6.29,2.05-8.15c1.37-1.86,3.22-2.8,5.58-2.8s4.24.93,5.59,2.8c1.35,1.86,2.03,4.58,2.03,8.15s-.68,6.26-2.03,8.19c-1.35,1.93-3.22,2.9-5.59,2.9Zm0-2.2c1.49,0,2.7-.72,3.64-2.16s1.41-3.68,1.41-6.72-.47-5.29-1.41-6.67-2.16-2.08-3.64-2.08-2.7.69-3.64,2.08c-.94,1.39-1.41,3.61-1.41,6.67s.47,5.28,1.41,6.72c.94,1.44,2.16,2.16,3.64,2.16Zm0-6.89c-.56,0-1.04-.2-1.45-.6-.41-.4-.62-.94-.62-1.63s.2-1.23.62-1.61c.41-.39.89-.58,1.45-.58s1.04.19,1.45.58c.41.39.62.93.62,1.61s-.21,1.23-.62,1.63c-.41.4-.89.6-1.45.6Z"
         id="path133" />
      <path
         class="cls-5"
         d="m562.07,694.43l6.16-8.39-5.69-7.79h3.03l2.56,3.56c.29.42.59.87.92,1.35.32.48.65.94.98,1.38h.13c.31-.44.62-.91.93-1.4.31-.49.61-.95.9-1.4l2.43-3.49h2.9l-5.76,8.02,6.19,8.15h-3l-2.83-3.73c-.33-.47-.68-.95-1.05-1.46s-.73-1-1.08-1.46h-.13c-.33.49-.67.97-1,1.45-.33.48-.67.97-1,1.48l-2.66,3.73h-2.93Z"
         id="path135" />
      <path
         class="cls-5"
         d="m589.43,694.83c-1.89,0-3.43-.3-4.62-.9-1.2-.6-2.21-1.26-3.03-2l1.37-1.8c.71.62,1.53,1.18,2.46,1.68.93.5,2.11.75,3.53.75,1,0,1.91-.2,2.73-.6.82-.4,1.47-.96,1.95-1.7.48-.73.71-1.59.71-2.56,0-1.46-.48-2.61-1.43-3.43-.95-.82-2.22-1.23-3.79-1.23-.89,0-1.64.11-2.26.33-.62.22-1.31.54-2.06.96l-1.46-.93.7-10.22h12.01v2.36h-9.58l-.57,6.29c.62-.27,1.23-.48,1.81-.63s1.29-.23,2.11-.23c1.35,0,2.58.24,3.68.72,1.1.48,1.97,1.2,2.63,2.18.65.98.98,2.23.98,3.76s-.37,2.83-1.12,3.91c-.74,1.08-1.71,1.89-2.91,2.45-1.2.55-2.47.83-3.83.83Z"
         id="path137" />
      <path
         class="cls-5"
         d="m612.12,694.43v-5.86h-10.95v-1.83l10.62-13.54h2.93v13.18h3.29v2.2h-3.29v5.86h-2.6Zm-7.92-8.05h7.92v-6.59c.02-.58.05-1.2.08-1.88s.06-1.3.08-1.88h-.17c-.33.51-.69,1.03-1.07,1.55-.38.52-.74,1.04-1.1,1.55l-5.76,7.25Z"
         id="path139" />
      <path
         class="cls-5"
         d="m628.4,694.83c-1.29,0-2.42-.22-3.39-.65s-1.82-.96-2.53-1.58l1.53-1.73c.53.51,1.17.92,1.9,1.23.73.31,1.51.47,2.33.47,1.13,0,2.17-.29,3.13-.87s1.74-1.53,2.35-2.86c.61-1.33.94-3.13.98-5.39-.87.84-1.81,1.51-2.85,2-1.03.49-2.09.73-3.18.73-1.95,0-3.54-.55-4.76-1.65-1.22-1.1-1.83-2.73-1.83-4.91,0-1.35.33-2.54.98-3.56.65-1.02,1.52-1.82,2.6-2.4,1.08-.58,2.23-.87,3.48-.87,1.55,0,2.94.38,4.16,1.13,1.22.75,2.19,1.89,2.91,3.39.72,1.51,1.08,3.41,1.08,5.69,0,2.13-.24,3.94-.73,5.44-.49,1.5-1.15,2.72-1.98,3.66-.83.94-1.78,1.63-2.85,2.06-1.06.43-2.17.65-3.33.65Zm-3.73-15.21c0,1.44.38,2.55,1.15,3.33s1.89,1.17,3.38,1.17c.84,0,1.74-.22,2.7-.67.95-.44,1.86-1.17,2.73-2.16-.22-2.06-.79-3.63-1.71-4.71-.92-1.08-2.17-1.61-3.74-1.61-1.26,0-2.33.43-3.2,1.28-.87.85-1.3,1.98-1.3,3.38Z"
         id="path141" />
      <path
         class="cls-5"
         d="m642.71,694.43v-21.83h5.39c3.28,0,5.79.94,7.52,2.81,1.73,1.88,2.6,4.54,2.6,8s-.86,6.19-2.58,8.12c-1.72,1.93-4.19,2.9-7.4,2.9h-5.52Zm2.76-2.26h2.43c2.51,0,4.38-.77,5.61-2.31,1.23-1.54,1.85-3.69,1.85-6.44s-.62-4.86-1.85-6.34-3.1-2.21-5.61-2.21h-2.43v17.31Z"
         id="path143" />
      <path
         class="cls-5"
         d="m669.76,694.83c-.75,0-1.39-.26-1.91-.78-.52-.52-.78-1.19-.78-2.01s.26-1.52.78-2.05,1.16-.78,1.91-.78,1.39.26,1.91.78.78,1.2.78,2.05-.26,1.49-.78,2.01c-.52.52-1.16.78-1.91.78Z"
         id="path145" />
      <path
         class="cls-5"
         d="m689.73,694.83c-.75,0-1.39-.26-1.91-.78-.52-.52-.78-1.19-.78-2.01s.26-1.52.78-2.05,1.16-.78,1.91-.78,1.39.26,1.91.78.78,1.2.78,2.05-.26,1.49-.78,2.01c-.52.52-1.16.78-1.91.78Z"
         id="path147" />
      <path
         class="cls-5"
         d="m709.7,694.83c-.75,0-1.39-.26-1.91-.78-.52-.52-.78-1.19-.78-2.01s.26-1.52.78-2.05,1.16-.78,1.91-.78,1.39.26,1.91.78.78,1.2.78,2.05-.26,1.49-.78,2.01c-.52.52-1.16.78-1.91.78Z"
         id="path149" />
    </g>
    <g
       id="g161">
      <path
         class="cls-5"
         d="m549.96,534.6c-2.35,0-4.21-.96-5.58-2.9-1.36-1.93-2.05-4.66-2.05-8.19s.68-6.29,2.05-8.15c1.37-1.86,3.22-2.8,5.58-2.8s4.24.93,5.59,2.8c1.35,1.86,2.03,4.58,2.03,8.15s-.68,6.26-2.03,8.19c-1.35,1.93-3.22,2.9-5.59,2.9Zm0-2.2c1.49,0,2.7-.72,3.64-2.16s1.41-3.68,1.41-6.72-.47-5.29-1.41-6.67-2.16-2.08-3.64-2.08-2.7.69-3.64,2.08c-.94,1.39-1.41,3.61-1.41,6.67s.47,5.28,1.41,6.72c.94,1.44,2.16,2.16,3.64,2.16Zm0-6.89c-.56,0-1.04-.2-1.45-.6-.41-.4-.62-.94-.62-1.63s.2-1.23.62-1.61c.41-.39.89-.58,1.45-.58s1.04.19,1.45.58c.41.39.62.93.62,1.61s-.21,1.23-.62,1.63c-.41.4-.89.6-1.45.6Z"
         id="path153" />
      <path
         class="cls-5"
         d="m562.07,534.2l6.16-8.39-5.69-7.79h3.03l2.56,3.56c.29.42.59.87.92,1.35.32.48.65.94.98,1.38h.13c.31-.44.62-.91.93-1.4.31-.49.61-.95.9-1.4l2.43-3.49h2.9l-5.76,8.02,6.19,8.15h-3l-2.83-3.73c-.33-.47-.68-.95-1.05-1.46s-.73-1-1.08-1.46h-.13c-.33.49-.67.97-1,1.45-.33.48-.67.97-1,1.48l-2.66,3.73h-2.93Z"
         id="path155" />
      <path
         class="cls-5"
         d="m589.89,534.6c-2.35,0-4.21-.96-5.58-2.9-1.36-1.93-2.05-4.66-2.05-8.19s.68-6.29,2.05-8.15c1.37-1.86,3.22-2.8,5.58-2.8s4.24.93,5.59,2.8c1.35,1.86,2.03,4.58,2.03,8.15s-.68,6.26-2.03,8.19c-1.35,1.93-3.22,2.9-5.59,2.9Zm0-2.2c1.49,0,2.7-.72,3.64-2.16s1.41-3.68,1.41-6.72-.47-5.29-1.41-6.67-2.16-2.08-3.64-2.08-2.7.69-3.64,2.08c-.94,1.39-1.41,3.61-1.41,6.67s.47,5.28,1.41,6.72c.94,1.44,2.16,2.16,3.64,2.16Zm0-6.89c-.56,0-1.04-.2-1.45-.6-.41-.4-.62-.94-.62-1.63s.2-1.23.62-1.61c.41-.39.89-.58,1.45-.58s1.04.19,1.45.58c.41.39.62.93.62,1.61s-.21,1.23-.62,1.63c-.41.4-.89.6-1.45.6Z"
         id="path157" />
      <path
         class="cls-5"
         d="m603.1,534.2v-2.26h6.12v-15.64h-4.76v-1.76c1.24-.18,2.29-.39,3.14-.65s1.62-.56,2.31-.92h2.03v18.97h5.56v2.26h-14.41Z"
         id="path159" />
    </g>
  </g>
  <text
     xml:space="preserve"
     id="text485"
     style="font-size:40px;line-height:1.25;font-family:'Fira Sans';-inkscape-font-specification:'Fira Sans';white-space:pre;shape-inside:url(#rect487);display:inline" />
  <text
     xml:space="preserve"
     style="font-size:40px;line-height:1.25;font-family:'Fira Sans';-inkscape-font-specification:'Fira Sans'"
     x="1044.3011"
     y="239.82375"
     id="text493"><tspan
       sodipodi:role="line"
       id="tspan491"
       x="1044.3011"
       y="239.82375" /></text>
  <text
     xml:space="preserve"
     style="font-size:85.3333px;line-height:1.25;font-family:'Fira Sans';-inkscape-font-specification:'Fira Sans';fill:#ffffff"
     x="1073.0889"
     y="184.76218"
     id="text547"><tspan
       sodipodi:role="line"
       id="tspan545"
       x="1073.0889"
       y="184.76218" /></text>
  <g
     aria-label="Key / Value Database

- Arbitrary key length
- SCALE encoded values

"
     id="text551"
     style="font-size:48px;line-height:1.25;font-family:'Fira Sans';-inkscape-font-specification:'Fira Sans'">
    <path
       d="m 1037.3416,311.43712 -0.336,-7.392 17.616,-18.288 h 7.008 l -14.64,15.552 -3.456,3.792 z m -5.568,7.92 v -33.6 h 6.24 v 33.6 z m 23.424,0 -12.864,-15.312 4.128,-4.56 16.032,19.872 z"
       style="font-weight:600;font-family:Montserrat;-inkscape-font-specification:'Montserrat Semi-Bold';fill:#ffffff"
       id="path1171" />
    <path
       d="m 1077.1336,319.69312 q -4.272,0 -7.488,-1.68 -3.168,-1.728 -4.944,-4.704 -1.728,-2.976 -1.728,-6.768 0,-3.84 1.68,-6.768 1.728,-2.976 4.704,-4.656 3.024,-1.68 6.864,-1.68 3.744,0 6.672,1.632 2.928,1.632 4.608,4.608 1.68,2.976 1.68,7.008 0,0.384 -0.048,0.864 0,0.48 -0.048,0.912 h -21.36 v -3.984 h 18.192 l -2.352,1.248 q 0.048,-2.208 -0.912,-3.888 -0.96,-1.68 -2.64,-2.64 -1.632,-0.96 -3.792,-0.96 -2.208,0 -3.888,0.96 -1.632,0.96 -2.592,2.688 -0.912,1.68 -0.912,3.984 v 0.96 q 0,2.304 1.056,4.08 1.056,1.776 2.976,2.736 1.92,0.96 4.416,0.96 2.16,0 3.888,-0.672 1.728,-0.672 3.072,-2.112 l 3.216,3.696 q -1.728,2.016 -4.368,3.12 -2.592,1.056 -5.952,1.056 z"
       style="font-weight:600;font-family:Montserrat;-inkscape-font-specification:'Montserrat Semi-Bold';fill:#ffffff"
       id="path1173" />
    <path
       d="m 1096.5735,329.00512 q -1.872,0 -3.744,-0.624 -1.872,-0.624 -3.12,-1.728 l 2.4,-4.416 q 0.912,0.816 2.064,1.296 1.152,0.48 2.352,0.48 1.632,0 2.64,-0.816 1.008,-0.816 1.872,-2.736 l 1.488,-3.36 0.48,-0.72 9.696,-22.656 h 5.76 l -12,27.696 q -1.2,2.88 -2.688,4.56 -1.44,1.68 -3.264,2.352 -1.776,0.672 -3.936,0.672 z m 5.28,-8.736 -11.568,-26.544 h 6.24 l 9.408,22.128 z"
       style="font-weight:600;font-family:Montserrat;-inkscape-font-specification:'Montserrat Semi-Bold';fill:#ffffff"
       id="path1175" />
    <path
       d="m 1130.0775,324.15712 15.84,-45.216 h 5.376 l -15.84,45.216 z"
       style="font-weight:600;font-family:Montserrat;-inkscape-font-specification:'Montserrat Semi-Bold';fill:#ffffff"
       id="path1177" />
    <path
       d="m 1177.0214,319.35712 -14.688,-33.6 h 6.768 l 13.104,30.384 h -3.888 l 13.248,-30.384 h 6.24 l -14.64,33.6 z"
       style="font-weight:600;font-family:Montserrat;-inkscape-font-specification:'Montserrat Semi-Bold';fill:#ffffff"
       id="path1179" />
    <path
       d="m 1214.6534,319.35712 v -5.184 l -0.336,-1.104 v -9.072 q 0,-2.64 -1.584,-4.08 -1.584,-1.488 -4.8,-1.488 -2.16,0 -4.272,0.672 -2.064,0.672 -3.504,1.872 l -2.352,-4.368 q 2.064,-1.584 4.896,-2.352 2.88,-0.816 5.952,-0.816 5.568,0 8.592,2.688 3.072,2.64 3.072,8.208 v 15.024 z m -8.064,0.336 q -2.88,0 -5.04,-0.96 -2.16,-1.008 -3.36,-2.736 -1.152,-1.776 -1.152,-3.984 0,-2.16 1.008,-3.888 1.056,-1.728 3.408,-2.736 2.352,-1.008 6.24,-1.008 h 7.44 v 3.984 h -7.008 q -3.072,0 -4.128,1.008 -1.056,0.96 -1.056,2.4 0,1.632 1.296,2.592 1.296,0.96 3.6,0.96 2.208,0 3.936,-1.008 1.776,-1.008 2.544,-2.976 l 1.008,3.6 q -0.864,2.256 -3.12,3.504 -2.208,1.248 -5.616,1.248 z"
       style="font-weight:600;font-family:Montserrat;-inkscape-font-specification:'Montserrat Semi-Bold';fill:#ffffff"
       id="path1181" />
    <path
       d="m 1227.9974,319.35712 v -35.616 h 6 v 35.616 z"
       style="font-weight:600;font-family:Montserrat;-inkscape-font-specification:'Montserrat Semi-Bold';fill:#ffffff"
       id="path1183" />
    <path
       d="m 1252.7174,319.69312 q -3.264,0 -5.76,-1.2 -2.496,-1.248 -3.888,-3.744 -1.392,-2.544 -1.392,-6.384 v -14.64 h 6 v 13.824 q 0,3.456 1.536,5.184 1.584,1.68 4.464,1.68 2.112,0 3.648,-0.864 1.584,-0.864 2.448,-2.592 0.912,-1.728 0.912,-4.272 v -12.96 h 6 v 25.632 h -5.712 v -6.912 l 1.008,2.112 q -1.296,2.496 -3.792,3.84 -2.496,1.296 -5.472,1.296 z"
       style="font-weight:600;font-family:Montserrat;-inkscape-font-specification:'Montserrat Semi-Bold';fill:#ffffff"
       id="path1185" />
    <path
       d="m 1286.6054,319.69312 q -4.272,0 -7.488,-1.68 -3.168,-1.728 -4.944,-4.704 -1.728,-2.976 -1.728,-6.768 0,-3.84 1.68,-6.768 1.728,-2.976 4.704,-4.656 3.024,-1.68 6.864,-1.68 3.744,0 6.672,1.632 2.928,1.632 4.608,4.608 1.68,2.976 1.68,7.008 0,0.384 -0.048,0.864 0,0.48 -0.048,0.912 h -21.36 v -3.984 h 18.192 l -2.352,1.248 q 0.048,-2.208 -0.912,-3.888 -0.96,-1.68 -2.64,-2.64 -1.632,-0.96 -3.792,-0.96 -2.208,0 -3.888,0.96 -1.632,0.96 -2.592,2.688 -0.912,1.68 -0.912,3.984 v 0.96 q 0,2.304 1.056,4.08 1.056,1.776 2.976,2.736 1.92,0.96 4.416,0.96 2.16,0 3.888,-0.672 1.728,-0.672 3.072,-2.112 l 3.216,3.696 q -1.728,2.016 -4.368,3.12 -2.592,1.056 -5.952,1.056 z"
       style="font-weight:600;font-family:Montserrat;-inkscape-font-specification:'Montserrat Semi-Bold';fill:#ffffff"
       id="path1187" />
    <path
       d="m 1318.2373,319.35712 v -33.6 h 14.688 q 5.472,0 9.6,2.112 4.128,2.112 6.432,5.856 2.304,3.744 2.304,8.832 0,5.04 -2.304,8.832 -2.304,3.744 -6.432,5.856 -4.128,2.112 -9.6,2.112 z m 6.24,-5.28 h 8.16 q 3.792,0 6.528,-1.44 2.784,-1.44 4.272,-4.032 1.536,-2.592 1.536,-6.048 0,-3.504 -1.536,-6.048 -1.488,-2.592 -4.272,-4.032 -2.736,-1.44 -6.528,-1.44 h -8.16 z"
       style="font-weight:600;font-family:Montserrat;-inkscape-font-specification:'Montserrat Semi-Bold';fill:#ffffff"
       id="path1189" />
    <path
       d="m 1373.1014,319.35712 v -5.184 l -0.336,-1.104 v -9.072 q 0,-2.64 -1.584,-4.08 -1.584,-1.488 -4.8,-1.488 -2.16,0 -4.272,0.672 -2.064,0.672 -3.504,1.872 l -2.352,-4.368 q 2.064,-1.584 4.896,-2.352 2.88,-0.816 5.952,-0.816 5.568,0 8.592,2.688 3.072,2.64 3.072,8.208 v 15.024 z m -8.064,0.336 q -2.88,0 -5.04,-0.96 -2.16,-1.008 -3.36,-2.736 -1.152,-1.776 -1.152,-3.984 0,-2.16 1.008,-3.888 1.056,-1.728 3.408,-2.736 2.352,-1.008 6.24,-1.008 h 7.44 v 3.984 h -7.008 q -3.072,0 -4.128,1.008 -1.056,0.96 -1.056,2.4 0,1.632 1.296,2.592 1.296,0.96 3.6,0.96 2.208,0 3.936,-1.008 1.776,-1.008 2.544,-2.976 l 1.008,3.6 q -0.864,2.256 -3.12,3.504 -2.208,1.248 -5.616,1.248 z"
       style="font-weight:600;font-family:Montserrat;-inkscape-font-specification:'Montserrat Semi-Bold';fill:#ffffff"
       id="path1191" />
    <path
       d="m 1396.0934,319.69312 q -4.224,0 -6.528,-2.16 -2.304,-2.208 -2.304,-6.48 v -22.992 h 6 v 22.848 q 0,1.824 0.912,2.832 0.96,1.008 2.64,1.008 2.016,0 3.36,-1.056 l 1.68,4.272 q -1.056,0.864 -2.592,1.296 -1.536,0.432 -3.168,0.432 z m -13.056,-20.976 v -4.8 h 17.088 v 4.8 z"
       style="font-weight:600;font-family:Montserrat;-inkscape-font-specification:'Montserrat Semi-Bold';fill:#ffffff"
       id="path1193" />
    <path
       d="m 1422.5894,319.35712 v -5.184 l -0.336,-1.104 v -9.072 q 0,-2.64 -1.584,-4.08 -1.584,-1.488 -4.8,-1.488 -2.16,0 -4.272,0.672 -2.064,0.672 -3.504,1.872 l -2.352,-4.368 q 2.064,-1.584 4.896,-2.352 2.88,-0.816 5.952,-0.816 5.568,0 8.592,2.688 3.072,2.64 3.072,8.208 v 15.024 z m -8.064,0.336 q -2.88,0 -5.04,-0.96 -2.16,-1.008 -3.36,-2.736 -1.152,-1.776 -1.152,-3.984 0,-2.16 1.008,-3.888 1.056,-1.728 3.408,-2.736 2.352,-1.008 6.24,-1.008 h 7.44 v 3.984 h -7.008 q -3.072,0 -4.128,1.008 -1.056,0.96 -1.056,2.4 0,1.632 1.296,2.592 1.296,0.96 3.6,0.96 2.208,0 3.936,-1.008 1.776,-1.008 2.544,-2.976 l 1.008,3.6 q -0.864,2.256 -3.12,3.504 -2.208,1.248 -5.616,1.248 z"
       style="font-weight:600;font-family:Montserrat;-inkscape-font-specification:'Montserrat Semi-Bold';fill:#ffffff"
       id="path1195" />
    <path
       d="m 1450.1414,319.69312 q -3.264,0 -5.808,-1.44 -2.544,-1.44 -4.032,-4.32 -1.44,-2.928 -1.44,-7.392 0,-4.512 1.488,-7.392 1.536,-2.88 4.08,-4.272 2.592,-1.44 5.712,-1.44 3.792,0 6.672,1.632 2.928,1.632 4.608,4.56 1.728,2.928 1.728,6.912 0,3.984 -1.728,6.912 -1.68,2.928 -4.608,4.608 -2.88,1.632 -6.672,1.632 z m -14.208,-0.336 v -35.616 h 6 v 15.936 l -0.48,6.816 0.192,6.816 v 6.048 z m 13.536,-4.8 q 2.16,0 3.84,-0.96 1.728,-0.96 2.736,-2.784 1.008,-1.824 1.008,-4.272 0,-2.496 -1.008,-4.272 -1.008,-1.824 -2.736,-2.784 -1.68,-0.96 -3.84,-0.96 -2.16,0 -3.888,0.96 -1.728,0.96 -2.736,2.784 -1.008,1.776 -1.008,4.272 0,2.448 1.008,4.272 1.008,1.824 2.736,2.784 1.728,0.96 3.888,0.96 z"
       style="font-weight:600;font-family:Montserrat;-inkscape-font-specification:'Montserrat Semi-Bold';fill:#ffffff"
       id="path1197" />
    <path
       d="m 1484.3174,319.35712 v -5.184 l -0.336,-1.104 v -9.072 q 0,-2.64 -1.584,-4.08 -1.584,-1.488 -4.8,-1.488 -2.16,0 -4.272,0.672 -2.064,0.672 -3.504,1.872 l -2.352,-4.368 q 2.064,-1.584 4.896,-2.352 2.88,-0.816 5.952,-0.816 5.568,0 8.592,2.688 3.072,2.64 3.072,8.208 v 15.024 z m -8.064,0.336 q -2.88,0 -5.04,-0.96 -2.16,-1.008 -3.36,-2.736 -1.152,-1.776 -1.152,-3.984 0,-2.16 1.008,-3.888 1.056,-1.728 3.408,-2.736 2.352,-1.008 6.24,-1.008 h 7.44 v 3.984 h -7.008 q -3.072,0 -4.128,1.008 -1.056,0.96 -1.056,2.4 0,1.632 1.296,2.592 1.296,0.96 3.6,0.96 2.208,0 3.936,-1.008 1.776,-1.008 2.544,-2.976 l 1.008,3.6 q -0.864,2.256 -3.12,3.504 -2.208,1.248 -5.616,1.248 z"
       style="font-weight:600;font-family:Montserrat;-inkscape-font-specification:'Montserrat Semi-Bold';fill:#ffffff"
       id="path1199" />
    <path
       d="m 1505.5814,319.69312 q -3.216,0 -6.192,-0.816 -2.928,-0.864 -4.656,-2.064 l 2.304,-4.56 q 1.728,1.104 4.128,1.824 2.4,0.72 4.8,0.72 2.832,0 4.08,-0.768 1.296,-0.768 1.296,-2.064 0,-1.056 -0.864,-1.584 -0.864,-0.576 -2.256,-0.864 -1.392,-0.288 -3.12,-0.528 -1.68,-0.24 -3.408,-0.624 -1.68,-0.432 -3.072,-1.2 -1.392,-0.816 -2.256,-2.16 -0.864,-1.344 -0.864,-3.552 0,-2.448 1.392,-4.224 1.392,-1.824 3.888,-2.784 2.544,-1.008 6,-1.008 2.592,0 5.232,0.576 2.64,0.576 4.368,1.632 l -2.304,4.56 q -1.824,-1.104 -3.696,-1.488 -1.824,-0.432 -3.648,-0.432 -2.736,0 -4.08,0.816 -1.296,0.816 -1.296,2.064 0,1.152 0.864,1.728 0.864,0.576 2.256,0.912 1.392,0.336 3.072,0.576 1.728,0.192 3.408,0.624 1.68,0.432 3.072,1.2 1.44,0.72 2.304,2.064 0.864,1.344 0.864,3.504 0,2.4 -1.44,4.176 -1.392,1.776 -3.984,2.784 -2.592,0.96 -6.192,0.96 z"
       style="font-weight:600;font-family:Montserrat;-inkscape-font-specification:'Montserrat Semi-Bold';fill:#ffffff"
       id="path1201" />
    <path
       d="m 1534.4294,319.69312 q -4.272,0 -7.488,-1.68 -3.168,-1.728 -4.944,-4.704 -1.728,-2.976 -1.728,-6.768 0,-3.84 1.68,-6.768 1.728,-2.976 4.704,-4.656 3.024,-1.68 6.864,-1.68 3.744,0 6.672,1.632 2.928,1.632 4.608,4.608 1.68,2.976 1.68,7.008 0,0.384 -0.048,0.864 0,0.48 -0.048,0.912 h -21.36 v -3.984 h 18.192 l -2.352,1.248 q 0.048,-2.208 -0.912,-3.888 -0.96,-1.68 -2.64,-2.64 -1.632,-0.96 -3.792,-0.96 -2.208,0 -3.888,0.96 -1.632,0.96 -2.592,2.688 -0.912,1.68 -0.912,3.984 v 0.96 q 0,2.304 1.056,4.08 1.056,1.776 2.976,2.736 1.92,0.96 4.416,0.96 2.16,0 3.888,-0.672 1.728,-0.672 3.072,-2.112 l 3.216,3.696 q -1.728,2.016 -4.368,3.12 -2.592,1.056 -5.952,1.056 z"
       style="font-weight:600;font-family:Montserrat;-inkscape-font-specification:'Montserrat Semi-Bold';fill:#ffffff"
       id="path1203" />
    <path
       d="m 1029.9016,429.94209 v -4.992 h 13.2 v 4.992 z"
       style="font-weight:600;font-family:Montserrat;-inkscape-font-specification:'Montserrat Semi-Bold';fill:#ffffff"
       id="path1205" />
    <path
       d="m 1058.7496,440.79009 15.12,-33.6 h 6.144 l 15.168,33.6 h -6.528 l -13.008,-30.288 h 2.496 l -12.96,30.288 z m 6.96,-7.776 1.68,-4.896 h 18.144 l 1.68,4.896 z"
       style="font-weight:600;font-family:Montserrat;-inkscape-font-specification:'Montserrat Semi-Bold';fill:#ffffff"
       id="path1207" />
    <path
       d="m 1098.8776,440.79009 v -25.632 h 5.712 v 7.056 l -0.672,-2.064 q 1.152,-2.592 3.6,-3.936 2.496,-1.344 6.192,-1.344 v 5.712 q -0.384,-0.096 -0.72,-0.096 -0.336,-0.048 -0.672,-0.048 -3.408,0 -5.424,2.016 -2.016,1.968 -2.016,5.904 v 12.432 z"
       style="font-weight:600;font-family:Montserrat;-inkscape-font-specification:'Montserrat Semi-Bold';fill:#ffffff"
       id="path1209" />
    <path
       d="m 1133.0056,441.12609 q -3.264,0 -5.808,-1.44 -2.544,-1.44 -4.032,-4.32 -1.44,-2.928 -1.44,-7.392 0,-4.512 1.488,-7.392 1.536,-2.88 4.08,-4.272 2.592,-1.44 5.712,-1.44 3.792,0 6.672,1.632 2.928,1.632 4.608,4.56 1.728,2.928 1.728,6.912 0,3.984 -1.728,6.912 -1.68,2.928 -4.608,4.608 -2.88,1.632 -6.672,1.632 z m -14.208,-0.336 v -35.616 h 6 v 15.936 l -0.48,6.816 0.192,6.816 v 6.048 z m 13.536,-4.8 q 2.16,0 3.84,-0.96 1.728,-0.96 2.736,-2.784 1.008,-1.824 1.008,-4.272 0,-2.496 -1.008,-4.272 -1.008,-1.824 -2.736,-2.784 -1.68,-0.96 -3.84,-0.96 -2.16,0 -3.888,0.96 -1.728,0.96 -2.736,2.784 -1.008,1.776 -1.008,4.272 0,2.448 1.008,4.272 1.008,1.824 2.736,2.784 1.728,0.96 3.888,0.96 z"
       style="font-weight:600;font-family:Montserrat;-inkscape-font-specification:'Montserrat Semi-Bold';fill:#ffffff"
       id="path1211" />
    <path
       d="m 1151.7257,440.79009 v -25.632 h 6 v 25.632 z m 3.024,-29.856 q -1.68,0 -2.784,-1.056 -1.056,-1.056 -1.056,-2.544 0,-1.536 1.056,-2.544 1.104,-1.056 2.784,-1.056 1.68,0 2.736,1.008 1.104,0.96 1.104,2.448 0,1.584 -1.056,2.688 -1.056,1.056 -2.784,1.056 z"
       style="font-weight:600;font-family:Montserrat;-inkscape-font-specification:'Montserrat Semi-Bold';fill:#ffffff"
       id="path1213" />
    <path
       d="m 1175.2457,441.12609 q -4.224,0 -6.528,-2.16 -2.304,-2.208 -2.304,-6.48 v -22.992 h 6 v 22.848 q 0,1.824 0.912,2.832 0.96,1.008 2.64,1.008 2.016,0 3.36,-1.056 l 1.68,4.272 q -1.056,0.864 -2.592,1.296 -1.536,0.432 -3.168,0.432 z m -13.056,-20.976 v -4.8 h 17.088 v 4.8 z"
       style="font-weight:600;font-family:Montserrat;-inkscape-font-specification:'Montserrat Semi-Bold';fill:#ffffff"
       id="path1215" />
    <path
       d="m 1185.9496,440.79009 v -25.632 h 5.712 v 7.056 l -0.672,-2.064 q 1.152,-2.592 3.6,-3.936 2.496,-1.344 6.192,-1.344 v 5.712 q -0.384,-0.096 -0.72,-0.096 -0.336,-0.048 -0.672,-0.048 -3.408,0 -5.424,2.016 -2.016,1.968 -2.016,5.904 v 12.432 z"
       style="font-weight:600;font-family:Montserrat;-inkscape-font-specification:'Montserrat Semi-Bold';fill:#ffffff"
       id="path1217" />
    <path
       d="m 1219.8377,440.79009 v -5.184 l -0.336,-1.104 v -9.072 q 0,-2.64 -1.584,-4.08 -1.584,-1.488 -4.8,-1.488 -2.16,0 -4.272,0.672 -2.064,0.672 -3.504,1.872 l -2.352,-4.368 q 2.064,-1.584 4.896,-2.352 2.88,-0.816 5.952,-0.816 5.568,0 8.592,2.688 3.072,2.64 3.072,8.208 v 15.024 z m -8.064,0.336 q -2.88,0 -5.04,-0.96 -2.16,-1.008 -3.36,-2.736 -1.152,-1.776 -1.152,-3.984 0,-2.16 1.008,-3.888 1.056,-1.728 3.408,-2.736 2.352,-1.008 6.24,-1.008 h 7.44 v 3.984 h -7.008 q -3.072,0 -4.128,1.008 -1.056,0.96 -1.056,2.4 0,1.632 1.296,2.592 1.296,0.96 3.6,0.96 2.208,0 3.936,-1.008 1.776,-1.008 2.544,-2.976 l 1.008,3.6 q -0.864,2.256 -3.12,3.504 -2.208,1.248 -5.616,1.248 z"
       style="font-weight:600;font-family:Montserrat;-inkscape-font-specification:'Montserrat Semi-Bold';fill:#ffffff"
       id="path1219" />
    <path
       d="m 1233.1817,440.79009 v -25.632 h 5.712 v 7.056 l -0.672,-2.064 q 1.152,-2.592 3.6,-3.936 2.496,-1.344 6.192,-1.344 v 5.712 q -0.384,-0.096 -0.72,-0.096 -0.336,-0.048 -0.672,-0.048 -3.408,0 -5.424,2.016 -2.016,1.968 -2.016,5.904 v 12.432 z"
       style="font-weight:600;font-family:Montserrat;-inkscape-font-specification:'Montserrat Semi-Bold';fill:#ffffff"
       id="path1221" />
    <path
       d="m 1256.1737,450.43809 q -1.872,0 -3.744,-0.624 -1.872,-0.624 -3.12,-1.728 l 2.4,-4.416 q 0.912,0.816 2.064,1.296 1.152,0.48 2.352,0.48 1.632,0 2.64,-0.816 1.008,-0.816 1.872,-2.736 l 1.488,-3.36 0.48,-0.72 9.696,-22.656 h 5.76 l -12,27.696 q -1.2,2.88 -2.688,4.56 -1.44,1.68 -3.264,2.352 -1.776,0.672 -3.936,0.672 z m 5.28,-8.736 -11.568,-26.544 h 6.24 l 9.408,22.128 z"
       style="font-weight:600;font-family:Montserrat;-inkscape-font-specification:'Montserrat Semi-Bold';fill:#ffffff"
       id="path1223" />
    <path
       d="m 1299.9496,435.07809 0.144,-7.536 13.392,-12.384 h 7.2 l -11.376,11.424 -3.168,2.64 z m -4.896,5.712 v -35.616 h 6 v 35.616 z m 19.344,0 -9.36,-11.568 3.792,-4.8 12.864,16.368 z"
       style="font-weight:600;font-family:Montserrat;-inkscape-font-specification:'Montserrat Semi-Bold';fill:#ffffff"
       id="path1225" />
    <path
       d="m 1336.5736,441.12609 q -4.272,0 -7.488,-1.68 -3.168,-1.728 -4.944,-4.704 -1.728,-2.976 -1.728,-6.768 0,-3.84 1.68,-6.768 1.728,-2.976 4.704,-4.656 3.024,-1.68 6.864,-1.68 3.744,0 6.672,1.632 2.928,1.632 4.608,4.608 1.68,2.976 1.68,7.008 0,0.384 -0.048,0.864 0,0.48 -0.048,0.912 h -21.36 v -3.984 h 18.192 l -2.352,1.248 q 0.048,-2.208 -0.912,-3.888 -0.96,-1.68 -2.64,-2.64 -1.632,-0.96 -3.792,-0.96 -2.208,0 -3.888,0.96 -1.632,0.96 -2.592,2.688 -0.912,1.68 -0.912,3.984 v 0.96 q 0,2.304 1.056,4.08 1.056,1.776 2.976,2.736 1.92,0.96 4.416,0.96 2.16,0 3.888,-0.672 1.728,-0.672 3.072,-2.112 l 3.216,3.696 q -1.728,2.016 -4.368,3.12 -2.592,1.056 -5.952,1.056 z"
       style="font-weight:600;font-family:Montserrat;-inkscape-font-specification:'Montserrat Semi-Bold';fill:#ffffff"
       id="path1227" />
    <path
       d="m 1356.0136,450.43809 q -1.872,0 -3.744,-0.624 -1.872,-0.624 -3.12,-1.728 l 2.4,-4.416 q 0.912,0.816 2.064,1.296 1.152,0.48 2.352,0.48 1.632,0 2.64,-0.816 1.008,-0.816 1.872,-2.736 l 1.488,-3.36 0.48,-0.72 9.696,-22.656 h 5.76 l -12,27.696 q -1.2,2.88 -2.688,4.56 -1.44,1.68 -3.264,2.352 -1.776,0.672 -3.936,0.672 z m 5.28,-8.736 -11.568,-26.544 h 6.24 l 9.408,22.128 z"
       style="font-weight:600;font-family:Montserrat;-inkscape-font-specification:'Montserrat Semi-Bold';fill:#ffffff"
       id="path1229" />
    <path
       d="m 1394.8935,440.79009 v -35.616 h 6 v 35.616 z"
       style="font-weight:600;font-family:Montserrat;-inkscape-font-specification:'Montserrat Semi-Bold';fill:#ffffff"
       id="path1231" />
    <path
       d="m 1420.8135,441.12609 q -4.272,0 -7.488,-1.68 -3.168,-1.728 -4.944,-4.704 -1.728,-2.976 -1.728,-6.768 0,-3.84 1.68,-6.768 1.728,-2.976 4.704,-4.656 3.024,-1.68 6.864,-1.68 3.744,0 6.672,1.632 2.928,1.632 4.608,4.608 1.68,2.976 1.68,7.008 0,0.384 -0.048,0.864 0,0.48 -0.048,0.912 h -21.36 v -3.984 h 18.192 l -2.352,1.248 q 0.048,-2.208 -0.912,-3.888 -0.96,-1.68 -2.64,-2.64 -1.632,-0.96 -3.792,-0.96 -2.208,0 -3.888,0.96 -1.632,0.96 -2.592,2.688 -0.912,1.68 -0.912,3.984 v 0.96 q 0,2.304 1.056,4.08 1.056,1.776 2.976,2.736 1.92,0.96 4.416,0.96 2.16,0 3.888,-0.672 1.728,-0.672 3.072,-2.112 l 3.216,3.696 q -1.728,2.016 -4.368,3.12 -2.592,1.056 -5.952,1.056 z"
       style="font-weight:600;font-family:Montserrat;-inkscape-font-specification:'Montserrat Semi-Bold';fill:#ffffff"
       id="path1233" />
    <path
       d="m 1453.1655,414.87009 q 3.072,0 5.472,1.2 2.448,1.2 3.84,3.696 1.392,2.448 1.392,6.336 v 14.688 h -6 v -13.92 q 0,-3.408 -1.632,-5.088 -1.584,-1.68 -4.464,-1.68 -2.112,0 -3.744,0.864 -1.632,0.864 -2.544,2.592 -0.864,1.68 -0.864,4.272 v 12.96 h -6 v -25.632 h 5.712 v 6.912 l -1.008,-2.112 q 1.344,-2.448 3.888,-3.744 2.592,-1.344 5.952,-1.344 z"
       style="font-weight:600;font-family:Montserrat;-inkscape-font-specification:'Montserrat Semi-Bold';fill:#ffffff"
       id="path1235" />
    <path
       d="m 1483.1654,450.43809 q -3.552,0 -6.96,-0.96 -3.36,-0.912 -5.52,-2.688 l 2.688,-4.512 q 1.68,1.392 4.224,2.208 2.592,0.864 5.232,0.864 4.224,0 6.192,-1.968 1.968,-1.92 1.968,-5.808 v -4.56 l 0.48,-5.808 -0.192,-5.808 v -6.24 h 5.712 v 21.744 q 0,6.96 -3.552,10.224 -3.552,3.312 -10.272,3.312 z m -0.768,-10.8 q -3.648,0 -6.624,-1.536 -2.928,-1.584 -4.656,-4.368 -1.68,-2.784 -1.68,-6.528 0,-3.696 1.68,-6.48 1.728,-2.784 4.656,-4.32 2.976,-1.536 6.624,-1.536 3.264,0 5.856,1.296 2.592,1.296 4.128,4.032 1.584,2.736 1.584,7.008 0,4.272 -1.584,7.056 -1.536,2.736 -4.128,4.08 -2.592,1.296 -5.856,1.296 z m 0.912,-5.088 q 2.256,0 4.032,-0.912 1.776,-0.96 2.736,-2.592 1.008,-1.68 1.008,-3.84 0,-2.16 -1.008,-3.792 -0.96,-1.68 -2.736,-2.544 -1.776,-0.912 -4.032,-0.912 -2.256,0 -4.08,0.912 -1.776,0.864 -2.784,2.544 -0.96,1.632 -0.96,3.792 0,2.16 0.96,3.84 1.008,1.632 2.784,2.592 1.824,0.912 4.08,0.912 z"
       style="font-weight:600;font-family:Montserrat;-inkscape-font-specification:'Montserrat Semi-Bold';fill:#ffffff"
       id="path1237" />
    <path
       d="m 1514.5094,441.12609 q -4.224,0 -6.528,-2.16 -2.304,-2.208 -2.304,-6.48 v -22.992 h 6 v 22.848 q 0,1.824 0.912,2.832 0.96,1.008 2.64,1.008 2.016,0 3.36,-1.056 l 1.68,4.272 q -1.056,0.864 -2.592,1.296 -1.536,0.432 -3.168,0.432 z m -13.056,-20.976 v -4.8 h 17.088 v 4.8 z"
       style="font-weight:600;font-family:Montserrat;-inkscape-font-specification:'Montserrat Semi-Bold';fill:#ffffff"
       id="path1239" />
    <path
       d="m 1539.7574,414.87009 q 3.072,0 5.472,1.2 2.448,1.2 3.84,3.696 1.392,2.448 1.392,6.336 v 14.688 h -6 v -13.92 q 0,-3.408 -1.632,-5.088 -1.584,-1.68 -4.464,-1.68 -2.112,0 -3.744,0.864 -1.632,0.864 -2.544,2.592 -0.864,1.68 -0.864,4.272 v 12.96 h -6 v -35.616 h 6 v 16.896 l -1.296,-2.112 q 1.344,-2.448 3.888,-3.744 2.592,-1.344 5.952,-1.344 z"
       style="font-weight:600;font-family:Montserrat;-inkscape-font-specification:'Montserrat Semi-Bold';fill:#ffffff"
       id="path1241" />
    <path
       d="m 1029.9016,490.65858 v -4.992 h 13.2 v 4.992 z"
       style="font-weight:600;font-family:Montserrat;-inkscape-font-specification:'Montserrat Semi-Bold';fill:#ffffff"
       id="path1243" />
    <path
       d="m 1073.9176,501.98658 q -3.936,0 -7.536,-1.104 -3.6,-1.152 -5.712,-2.928 l 2.16,-4.848 q 2.016,1.584 4.992,2.64 2.976,1.056 6.096,1.056 2.64,0 4.272,-0.576 1.632,-0.576 2.4,-1.536 0.768,-1.008 0.768,-2.256 0,-1.536 -1.104,-2.448 -1.104,-0.96 -2.88,-1.488 -1.728,-0.576 -3.888,-1.056 -2.112,-0.48 -4.272,-1.104 -2.112,-0.672 -3.888,-1.68 -1.728,-1.056 -2.832,-2.784 -1.104,-1.728 -1.104,-4.416 0,-2.736 1.44,-4.992 1.488,-2.304 4.464,-3.648 3.024,-1.392 7.632,-1.392 3.024,0 6,0.768 2.976,0.768 5.184,2.208 l -1.968,4.848 q -2.256,-1.344 -4.656,-1.968 -2.4,-0.672 -4.608,-0.672 -2.592,0 -4.224,0.624 -1.584,0.624 -2.352,1.632 -0.72,1.008 -0.72,2.304 0,1.536 1.056,2.496 1.104,0.912 2.832,1.44 1.776,0.528 3.936,1.056 2.16,0.48 4.272,1.104 2.16,0.624 3.888,1.632 1.776,1.008 2.832,2.736 1.104,1.728 1.104,4.368 0,2.688 -1.488,4.992 -1.44,2.256 -4.464,3.648 -3.024,1.344 -7.632,1.344 z"
       style="font-weight:600;font-family:Montserrat;-inkscape-font-specification:'Montserrat Semi-Bold';fill:#ffffff"
       id="path1245" />
    <path
       d="m 1109.2455,501.98658 q -3.84,0 -7.152,-1.248 -3.264,-1.296 -5.712,-3.6 -2.4,-2.352 -3.744,-5.52 -1.344,-3.168 -1.344,-6.912 0,-3.744 1.344,-6.912 1.344,-3.168 3.792,-5.472 2.448,-2.352 5.712,-3.6 3.264,-1.296 7.152,-1.296 4.128,0 7.536,1.44 3.408,1.392 5.76,4.176 l -4.032,3.792 q -1.824,-1.968 -4.08,-2.928 -2.256,-1.008 -4.896,-1.008 -2.64,0 -4.848,0.864 -2.16,0.864 -3.792,2.448 -1.584,1.584 -2.496,3.744 -0.864,2.16 -0.864,4.752 0,2.592 0.864,4.752 0.912,2.16 2.496,3.744 1.632,1.584 3.792,2.448 2.208,0.864 4.848,0.864 2.64,0 4.896,-0.96 2.256,-1.008 4.08,-3.024 l 4.032,3.84 q -2.352,2.736 -5.76,4.176 -3.408,1.44 -7.584,1.44 z"
       style="font-weight:600;font-family:Montserrat;-inkscape-font-specification:'Montserrat Semi-Bold';fill:#ffffff"
       id="path1247" />
    <path
       d="m 1123.1175,501.50658 15.12,-33.6 h 6.144 l 15.168,33.6 h -6.528 l -13.008,-30.288 h 2.496 l -12.96,30.288 z m 6.96,-7.776 1.68,-4.896 h 18.144 l 1.68,4.896 z"
       style="font-weight:600;font-family:Montserrat;-inkscape-font-specification:'Montserrat Semi-Bold';fill:#ffffff"
       id="path1249" />
    <path
       d="m 1163.8216,501.50658 v -33.6 h 6.24 v 28.32 h 17.568 v 5.28 z"
       style="font-weight:600;font-family:Montserrat;-inkscape-font-specification:'Montserrat Semi-Bold';fill:#ffffff"
       id="path1251" />
    <path
       d="m 1198.3336,481.87458 h 16.704 v 5.136 h -16.704 z m 0.48,14.4 h 18.96 v 5.232 h -25.2 v -33.6 h 24.528 v 5.232 h -18.288 z"
       style="font-weight:600;font-family:Montserrat;-inkscape-font-specification:'Montserrat Semi-Bold';fill:#ffffff"
       id="path1253" />
    <path
       d="m 1249.4536,501.84258 q -4.272,0 -7.488,-1.68 -3.168,-1.728 -4.944,-4.704 -1.728,-2.976 -1.728,-6.768 0,-3.84 1.68,-6.768 1.728,-2.976 4.704,-4.656 3.024,-1.68 6.864,-1.68 3.744,0 6.672,1.632 2.928,1.632 4.608,4.608 1.68,2.976 1.68,7.008 0,0.384 -0.048,0.864 0,0.48 -0.048,0.912 h -21.36 v -3.984 h 18.192 l -2.352,1.248 q 0.048,-2.208 -0.912,-3.888 -0.96,-1.68 -2.64,-2.64 -1.632,-0.96 -3.792,-0.96 -2.208,0 -3.888,0.96 -1.632,0.96 -2.592,2.688 -0.912,1.68 -0.912,3.984 v 0.96 q 0,2.304 1.056,4.08 1.056,1.776 2.976,2.736 1.92,0.96 4.416,0.96 2.16,0 3.888,-0.672 1.728,-0.672 3.072,-2.112 l 3.216,3.696 q -1.728,2.016 -4.368,3.12 -2.592,1.056 -5.952,1.056 z"
       style="font-weight:600;font-family:Montserrat;-inkscape-font-specification:'Montserrat Semi-Bold';fill:#ffffff"
       id="path1255" />
    <path
       d="m 1281.8056,475.58658 q 3.072,0 5.472,1.2 2.448,1.2 3.84,3.696 1.392,2.448 1.392,6.336 v 14.688 h -6 v -13.92 q 0,-3.408 -1.632,-5.088 -1.584,-1.68 -4.464,-1.68 -2.112,0 -3.744,0.864 -1.632,0.864 -2.544,2.592 -0.864,1.68 -0.864,4.272 v 12.96 h -6 v -25.632 h 5.712 v 6.912 l -1.008,-2.112 q 1.344,-2.448 3.888,-3.744 2.592,-1.344 5.952,-1.344 z"
       style="font-weight:600;font-family:Montserrat;-inkscape-font-specification:'Montserrat Semi-Bold';fill:#ffffff"
       id="path1257" />
    <path
       d="m 1311.9495,501.84258 q -4.032,0 -7.2,-1.68 -3.12,-1.728 -4.896,-4.704 -1.776,-2.976 -1.776,-6.768 0,-3.84 1.776,-6.768 1.776,-2.976 4.896,-4.656 3.168,-1.68 7.2,-1.68 3.744,0 6.576,1.536 2.88,1.488 4.368,4.416 l -4.608,2.688 q -1.152,-1.824 -2.832,-2.688 -1.632,-0.864 -3.552,-0.864 -2.208,0 -3.984,0.96 -1.776,0.96 -2.784,2.784 -1.008,1.776 -1.008,4.272 0,2.496 1.008,4.32 1.008,1.776 2.784,2.736 1.776,0.96 3.984,0.96 1.92,0 3.552,-0.864 1.68,-0.864 2.832,-2.688 l 4.608,2.688 q -1.488,2.88 -4.368,4.464 -2.832,1.536 -6.576,1.536 z"
       style="font-weight:600;font-family:Montserrat;-inkscape-font-specification:'Montserrat Semi-Bold';fill:#ffffff"
       id="path1259" />
    <path
       d="m 1339.2135,501.84258 q -3.936,0 -7.008,-1.68 -3.072,-1.728 -4.848,-4.704 -1.776,-2.976 -1.776,-6.768 0,-3.84 1.776,-6.768 1.776,-2.976 4.848,-4.656 3.072,-1.68 7.008,-1.68 3.984,0 7.056,1.68 3.12,1.68 4.848,4.608 1.776,2.928 1.776,6.816 0,3.792 -1.776,6.768 -1.728,2.976 -4.848,4.704 -3.072,1.68 -7.056,1.68 z m 0,-5.136 q 2.208,0 3.936,-0.96 1.728,-0.96 2.688,-2.784 1.008,-1.824 1.008,-4.272 0,-2.496 -1.008,-4.272 -0.96,-1.824 -2.688,-2.784 -1.728,-0.96 -3.888,-0.96 -2.208,0 -3.936,0.96 -1.68,0.96 -2.688,2.784 -1.008,1.776 -1.008,4.272 0,2.448 1.008,4.272 1.008,1.824 2.688,2.784 1.728,0.96 3.888,0.96 z"
       style="font-weight:600;font-family:Montserrat;-inkscape-font-specification:'Montserrat Semi-Bold';fill:#ffffff"
       id="path1261" />
    <path
       d="m 1369.5015,501.84258 q -3.696,0 -6.672,-1.632 -2.928,-1.68 -4.608,-4.608 -1.68,-2.928 -1.68,-6.912 0,-3.984 1.68,-6.912 1.68,-2.928 4.608,-4.56 2.976,-1.632 6.672,-1.632 3.216,0 5.76,1.44 2.544,1.392 4.032,4.272 1.488,2.88 1.488,7.392 0,4.464 -1.44,7.392 -1.44,2.88 -3.984,4.32 -2.544,1.44 -5.856,1.44 z m 0.72,-5.136 q 2.16,0 3.84,-0.96 1.728,-0.96 2.736,-2.784 1.056,-1.824 1.056,-4.272 0,-2.496 -1.056,-4.272 -1.008,-1.824 -2.736,-2.784 -1.68,-0.96 -3.84,-0.96 -2.16,0 -3.888,0.96 -1.68,0.96 -2.736,2.784 -1.008,1.776 -1.008,4.272 0,2.448 1.008,4.272 1.056,1.824 2.736,2.784 1.728,0.96 3.888,0.96 z m 7.776,4.8 v -6.048 l 0.24,-6.816 -0.48,-6.816 v -15.936 h 5.952 v 35.616 z"
       style="font-weight:600;font-family:Montserrat;-inkscape-font-specification:'Montserrat Semi-Bold';fill:#ffffff"
       id="path1263" />
    <path
       d="m 1403.6775,501.84258 q -4.272,0 -7.488,-1.68 -3.168,-1.728 -4.944,-4.704 -1.728,-2.976 -1.728,-6.768 0,-3.84 1.68,-6.768 1.728,-2.976 4.704,-4.656 3.024,-1.68 6.864,-1.68 3.744,0 6.672,1.632 2.928,1.632 4.608,4.608 1.68,2.976 1.68,7.008 0,0.384 -0.048,0.864 0,0.48 -0.048,0.912 h -21.36 v -3.984 h 18.192 l -2.352,1.248 q 0.048,-2.208 -0.912,-3.888 -0.96,-1.68 -2.64,-2.64 -1.632,-0.96 -3.792,-0.96 -2.208,0 -3.888,0.96 -1.632,0.96 -2.592,2.688 -0.912,1.68 -0.912,3.984 v 0.96 q 0,2.304 1.056,4.08 1.056,1.776 2.976,2.736 1.92,0.96 4.416,0.96 2.16,0 3.888,-0.672 1.728,-0.672 3.072,-2.112 l 3.216,3.696 q -1.728,2.016 -4.368,3.12 -2.592,1.056 -5.952,1.056 z"
       style="font-weight:600;font-family:Montserrat;-inkscape-font-specification:'Montserrat Semi-Bold';fill:#ffffff"
       id="path1265" />
    <path
       d="m 1432.3335,501.84258 q -3.696,0 -6.672,-1.632 -2.928,-1.68 -4.608,-4.608 -1.68,-2.928 -1.68,-6.912 0,-3.984 1.68,-6.912 1.68,-2.928 4.608,-4.56 2.976,-1.632 6.672,-1.632 3.216,0 5.76,1.44 2.544,1.392 4.032,4.272 1.488,2.88 1.488,7.392 0,4.464 -1.44,7.392 -1.44,2.88 -3.984,4.32 -2.544,1.44 -5.856,1.44 z m 0.72,-5.136 q 2.16,0 3.84,-0.96 1.728,-0.96 2.736,-2.784 1.056,-1.824 1.056,-4.272 0,-2.496 -1.056,-4.272 -1.008,-1.824 -2.736,-2.784 -1.68,-0.96 -3.84,-0.96 -2.16,0 -3.888,0.96 -1.68,0.96 -2.736,2.784 -1.008,1.776 -1.008,4.272 0,2.448 1.008,4.272 1.056,1.824 2.736,2.784 1.728,0.96 3.888,0.96 z m 7.776,4.8 v -6.048 l 0.24,-6.816 -0.48,-6.816 v -15.936 h 5.952 v 35.616 z"
       style="font-weight:600;font-family:Montserrat;-inkscape-font-specification:'Montserrat Semi-Bold';fill:#ffffff"
       id="path1267" />
    <path
       d="m 1474.5255,501.50658 -10.992,-25.632 h 6.24 l 9.456,22.608 h -3.072 l 9.792,-22.608 h 5.76 l -10.992,25.632 z"
       style="font-weight:600;font-family:Montserrat;-inkscape-font-specification:'Montserrat Semi-Bold';fill:#ffffff"
       id="path1269" />
    <path
       d="m 1510.4294,501.50658 v -5.184 l -0.336,-1.104 v -9.072 q 0,-2.64 -1.584,-4.08 -1.584,-1.488 -4.8,-1.488 -2.16,0 -4.272,0.672 -2.064,0.672 -3.504,1.872 l -2.352,-4.368 q 2.064,-1.584 4.896,-2.352 2.88,-0.816 5.952,-0.816 5.568,0 8.592,2.688 3.072,2.64 3.072,8.208 v 15.024 z m -8.064,0.336 q -2.88,0 -5.04,-0.96 -2.16,-1.008 -3.36,-2.736 -1.152,-1.776 -1.152,-3.984 0,-2.16 1.008,-3.888 1.056,-1.728 3.408,-2.736 2.352,-1.008 6.24,-1.008 h 7.44 v 3.984 h -7.008 q -3.072,0 -4.128,1.008 -1.056,0.96 -1.056,2.4 0,1.632 1.296,2.592 1.296,0.96 3.6,0.96 2.208,0 3.936,-1.008 1.776,-1.008 2.544,-2.976 l 1.008,3.6 q -0.864,2.256 -3.12,3.504 -2.208,1.248 -5.616,1.248 z"
       style="font-weight:600;font-family:Montserrat;-inkscape-font-specification:'Montserrat Semi-Bold';fill:#ffffff"
       id="path1271" />
    <path
       d="m 1523.7735,501.50658 v -35.616 h 6 v 35.616 z"
       style="font-weight:600;font-family:Montserrat;-inkscape-font-specification:'Montserrat Semi-Bold';fill:#ffffff"
       id="path1273" />
    <path
       d="m 1548.4934,501.84258 q -3.264,0 -5.76,-1.2 -2.496,-1.248 -3.888,-3.744 -1.392,-2.544 -1.392,-6.384 v -14.64 h 6 v 13.824 q 0,3.456 1.536,5.184 1.584,1.68 4.464,1.68 2.112,0 3.648,-0.864 1.584,-0.864 2.448,-2.592 0.912,-1.728 0.912,-4.272 v -12.96 h 6 v 25.632 h -5.712 v -6.912 l 1.008,2.112 q -1.296,2.496 -3.792,3.84 -2.496,1.296 -5.472,1.296 z"
       style="font-weight:600;font-family:Montserrat;-inkscape-font-specification:'Montserrat Semi-Bold';fill:#ffffff"
       id="path1275" />
    <path
       d="m 1582.3815,501.84258 q -4.272,0 -7.488,-1.68 -3.168,-1.728 -4.944,-4.704 -1.728,-2.976 -1.728,-6.768 0,-3.84 1.68,-6.768 1.728,-2.976 4.704,-4.656 3.024,-1.68 6.864,-1.68 3.744,0 6.672,1.632 2.928,1.632 4.608,4.608 1.68,2.976 1.68,7.008 0,0.384 -0.048,0.864 0,0.48 -0.048,0.912 h -21.36 v -3.984 h 18.192 l -2.352,1.248 q 0.048,-2.208 -0.912,-3.888 -0.96,-1.68 -2.64,-2.64 -1.632,-0.96 -3.792,-0.96 -2.208,0 -3.888,0.96 -1.632,0.96 -2.592,2.688 -0.912,1.68 -0.912,3.984 v 0.96 q 0,2.304 1.056,4.08 1.056,1.776 2.976,2.736 1.92,0.96 4.416,0.96 2.16,0 3.888,-0.672 1.728,-0.672 3.072,-2.112 l 3.216,3.696 q -1.728,2.016 -4.368,3.12 -2.592,1.056 -5.952,1.056 z"
       style="font-weight:600;font-family:Montserrat;-inkscape-font-specification:'Montserrat Semi-Bold';fill:#ffffff"
       id="path1277" />
    <path
       d="m 1608.1094,501.84258 q -3.216,0 -6.192,-0.816 -2.928,-0.864 -4.656,-2.064 l 2.304,-4.56 q 1.728,1.104 4.128,1.824 2.4,0.72 4.8,0.72 2.832,0 4.08,-0.768 1.296,-0.768 1.296,-2.064 0,-1.056 -0.864,-1.584 -0.864,-0.576 -2.256,-0.864 -1.392,-0.288 -3.12,-0.528 -1.68,-0.24 -3.408,-0.624 -1.68,-0.432 -3.072,-1.2 -1.392,-0.816 -2.256,-2.16 -0.864,-1.344 -0.864,-3.552 0,-2.448 1.392,-4.224 1.392,-1.824 3.888,-2.784 2.544,-1.008 6,-1.008 2.592,0 5.232,0.576 2.64,0.576 4.368,1.632 l -2.304,4.56 q -1.824,-1.104 -3.696,-1.488 -1.824,-0.432 -3.648,-0.432 -2.736,0 -4.08,0.816 -1.296,0.816 -1.296,2.064 0,1.152 0.864,1.728 0.864,0.576 2.256,0.912 1.392,0.336 3.072,0.576 1.728,0.192 3.408,0.624 1.68,0.432 3.072,1.2 1.44,0.72 2.304,2.064 0.864,1.344 0.864,3.504 0,2.4 -1.44,4.176 -1.392,1.776 -3.984,2.784 -2.592,0.96 -6.192,0.96 z"
       style="font-weight:600;font-family:Montserrat;-inkscape-font-specification:'Montserrat Semi-Bold';fill:#ffffff"
       id="path1279" />
  </g>
  <text
     xml:space="preserve"
     id="text615"
     style="font-size:85.3333px;line-height:1.25;font-family:'Fira Sans';-inkscape-font-specification:'Fira Sans';white-space:pre;shape-inside:url(#rect617);display:inline" />
  <text
     xml:space="preserve"
     id="text362"
     style="white-space:pre;shape-inside:url(#rect364);display:inline;fill:#000000" />
</svg>
