<svg data-name="Layer 1" viewBox="0 0 1602 800.8" xmlns="http://www.w3.org/2000/svg">
 <defs>
  <style>.cls-1, .cls-2, .cls-3 {
        fill: none;
      }

      .cls-4 {
        clip-path: url(#a);
      }

      .cls-5 {
        fill: #fff;
      }

      .cls-6 {
        fill: #bc83fb;
      }

      .cls-7 {
        fill: #d8b7fb;
      }

      .cls-8 {
        fill: #242526;
      }

      .cls-2 {
        stroke: #bc83fb;
      }

      .cls-2, .cls-3 {
        stroke-linecap: round;
        stroke-miterlimit: 10;
        stroke-width: 4px;
      }

      .cls-3 {
        stroke: #8747cc;
      }</style>
  <clipPath id="a">
   <path class="cls-1" d="m324.3 291.8v197.3c0 42.56-221.7 42.56-221.7 0v-197.3c0-36.79 221.7-36.79 221.7 0z"/>
  </clipPath>
 </defs>
 <rect class="cls-8" width="1602" height="800.8"/>
 <path d="m324.3 479.5-110.8 41.52c130.6 6.23 203.3-29.21 110.8-41.52z"/>
 <path class="cls-6" d="m324.3 291.8v197.3c0 42.56-221.7 42.56-221.7 0v-197.3c0-36.79 221.7-36.79 221.7 0z"/>
 <path class="cls-7" d="m324.3 291.8c0 33.22-221.7 33.22-221.7 0 0-36.79 221.7-36.79 221.7 0z"/>
 <g class="cls-4">
  <path class="cls-3" d="m326.3 359.8c0 33.23-225.7 33.23-225.7 0"/>
  <path class="cls-3" d="m326.3 427.7c0 33.23-225.7 33.23-225.7 0"/>
 </g>
 <path class="cls-5" d="m120.3 419.6v-26.96c4.85 1 7.28 1.47 12.14 2.34 2.91 0.52 5.47 1.51 7.7 2.99 2.22 1.48 3.96 3.3 5.22 5.49 1.25 2.19 1.88 4.66 1.88 7.4s-0.63 5-1.88 6.83-2.99 3.13-5.22 3.89c-2.22 0.76-4.79 0.88-7.7 0.36-4.87-0.87-7.3-1.34-12.14-2.34zm6.18-3.89c2.26 0.44 3.39 0.65 5.66 1.05 1.79 0.32 3.34 0.25 4.65-0.21 1.32-0.46 2.34-1.26 3.07-2.4s1.09-2.56 1.09-4.25-0.36-3.26-1.09-4.62-1.75-2.49-3.07-3.4c-1.32-0.9-2.87-1.51-4.65-1.83-2.26-0.41-3.4-0.62-5.66-1.05v16.71z"/>
 <path class="cls-5" d="m157.93,426.08c-1.62-.2-3-.65-4.16-1.35-1.15-.7-2.04-1.57-2.65-2.61-.62-1.03-.92-2.14-.92-3.32s.3-2.27.9-3.11c.6-.84,1.56-1.44,2.87-1.79,1.31-.36,3.01-.4,5.12-.15,2.2.26,3.31.39,5.51.62v3.5c-1.94-.21-2.91-.32-4.86-.55-1.41-.17-2.38-.06-2.91.34-.53.4-.79.94-.79,1.63,0,.77.3,1.42.9,1.94.6.52,1.43.85,2.48.98,1,.12,1.9-.01,2.7-.4.8-.39,1.37-1.02,1.73-1.91.37,1.15.56,1.72.93,2.87-.44,1.29-1.23,2.22-2.39,2.78-1.16.56-2.65.74-4.47.52Zm6.32.42c0-1.62,0-2.43,0-4.04-.15-.37-.23-.56-.39-.93v-7.24c0-1.28-.39-2.33-1.18-3.13-.78-.81-1.98-1.3-3.6-1.49-1.1-.13-2.19-.09-3.25.12-1.06.21-1.97.56-2.71,1.05-.86-1.79-1.29-2.69-2.15-4.49,1.13-.64,2.49-1.07,4.08-1.31,1.59-.23,3.21-.25,4.85-.06,3.16.37,5.61,1.37,7.36,3.04,1.75,1.67,2.62,4.07,2.62,7.23,0,4.73,0,7.09,0,11.82-2.25-.22-3.38-.33-5.63-.57Z"/>
 <path class="cls-5" d="m172.8 411.7v-4.62c5.76 0.51 8.64 0.72 14.41 1.05v4.62c-5.77-0.33-8.65-0.54-14.41-1.05zm10.97 16.79c-2.45-0.16-4.35-0.92-5.72-2.27-1.36-1.35-2.05-3.26-2.05-5.73v-18.18c2.41 0.2 3.62 0.29 6.03 0.45v18.1c0 0.87 0.23 1.56 0.7 2.07 0.46 0.51 1.09 0.79 1.89 0.84 0.95 0.06 1.77-0.15 2.44-0.62 0.65 1.73 0.97 2.6 1.62 4.33-0.62 0.4-1.36 0.69-2.22 0.86s-1.76 0.22-2.69 0.16z"/>
 <path class="cls-5" d="m198.6 429.2c-1.63-0.05-3.02-0.38-4.18-0.98s-2.05-1.39-2.67-2.37-0.93-2.06-0.93-3.24 0.3-2.3 0.91-3.19c0.61-0.9 1.57-1.58 2.88-2.05 1.32-0.47 3.03-0.67 5.15-0.61 2.21 0.07 3.32 0.09 5.54 0.13v3.5c-1.95-0.04-2.93-0.06-4.88-0.11-1.42-0.04-2.39 0.16-2.92 0.6s-0.79 1.01-0.79 1.7c0 0.77 0.3 1.39 0.91 1.86s1.44 0.72 2.5 0.75c1.01 0.03 1.91-0.18 2.71-0.64s1.38-1.14 1.74-2.06c0.37 1.12 0.56 1.67 0.93 2.79-0.44 1.33-1.24 2.33-2.4 2.99-1.16 0.67-2.66 0.98-4.49 0.92zm6.35-0.15v-4.04c-0.15-0.36-0.23-0.54-0.39-0.89v-7.24c0-1.28-0.39-2.29-1.18-3.03s-1.99-1.12-3.62-1.17c-1.11-0.03-2.2 0.1-3.27 0.41s-1.98 0.74-2.73 1.3c-0.87-1.72-1.3-2.58-2.17-4.3 1.13-0.74 2.5-1.3 4.1-1.67s3.22-0.54 4.88-0.49c3.17 0.09 5.64 0.87 7.39 2.38s2.63 3.84 2.63 7v11.82c-2.26-0.01-3.39-0.03-5.65-0.07z"/>
 <path class="cls-5" d="m216 429.1v-28.58c2.42-0.01 3.62-0.03 6.04-0.07v12.06c-0.15 2.45-0.23 3.68-0.39 6.13 0.05 2.46 0.07 3.7 0.12 6.16v4.24c-2.31 0.04-3.46 0.05-5.77 0.07zm12.31 0.08c-1.83 0.06-3.41-0.29-4.72-1.03-1.32-0.74-2.32-1.9-3.02-3.47s-1.05-3.56-1.05-5.97 0.37-4.45 1.1-6.02c0.74-1.58 1.76-2.76 3.08-3.56s2.85-1.22 4.61-1.28c1.96-0.06 3.72 0.3 5.28 1.11s2.8 1.98 3.71 3.52c0.92 1.54 1.37 3.41 1.37 5.59 0 2.16-0.46 4.06-1.37 5.7-0.92 1.64-2.15 2.94-3.71 3.89s-3.32 1.47-5.28 1.53zm-1.05-4.9c1.01-0.03 1.9-0.29 2.69-0.78s1.42-1.18 1.9-2.06 0.72-1.91 0.72-3.09-0.24-2.22-0.72-3.05-1.11-1.46-1.9-1.89-1.68-0.63-2.69-0.6-1.91 0.28-2.71 0.77-1.43 1.15-1.9 2.01c-0.46 0.86-0.7 1.89-0.7 3.09s0.23 2.2 0.7 3.05c0.46 0.85 1.1 1.5 1.9 1.94s1.7 0.65 2.71 0.62z"/>
 <path class="cls-5" d="m248.79,428.1c-1.62.12-3.01-.05-4.17-.53-1.16-.47-2.05-1.17-2.67-2.08-.62-.91-.93-1.96-.93-3.14,0-1.23.3-2.33.91-3.29.61-.96,1.57-1.75,2.88-2.36,1.31-.62,3.03-1,5.14-1.17,2.21-.18,3.31-.27,5.52-.47v3.5c-1.95.18-2.92.26-4.86.42-1.42.11-2.39.42-2.92.92-.53.5-.79,1.1-.79,1.79,0,.77.3,1.36.91,1.76.6.4,1.44.57,2.49.48,1-.08,1.91-.39,2.7-.94.8-.54,1.38-1.3,1.74-2.25.37,1.08.56,1.61.93,2.69-.44,1.38-1.23,2.46-2.39,3.26-1.16.79-2.65,1.27-4.48,1.41Zm6.33-.84v-4.04c-.15-.34-.23-.51-.39-.85v-7.24c0-1.28-.39-2.25-1.18-2.9-.79-.65-1.99-.91-3.61-.78-1.11.09-2.2.34-3.26.77-1.07.42-1.98.95-2.72,1.59-.87-1.62-1.3-2.43-2.16-4.06,1.13-.87,2.5-1.57,4.1-2.12,1.6-.55,3.22-.89,4.87-1.02,3.17-.26,5.62.26,7.37,1.58,1.75,1.32,2.62,3.55,2.62,6.71,0,4.73,0,7.09,0,11.82-2.25.23-3.38.34-5.63.55Z"/>
 <path class="cls-5" d="m273.16,425.57c-1.77.23-3.47.23-5.1,0-1.63-.23-2.92-.62-3.87-1.15.8-1.81,1.2-2.72,2-4.54.95.48,2.07.83,3.37,1.04,1.3.21,2.57.24,3.83.07,1.38-.18,2.36-.48,2.94-.9.58-.41.87-.92.87-1.51,0-.49-.23-.82-.67-1-.45-.18-1.04-.29-1.79-.31-.74-.03-1.56-.05-2.44-.06-.89-.01-1.78-.08-2.67-.18-.9-.11-1.72-.34-2.46-.69-.75-.35-1.34-.87-1.79-1.56-.45-.69-.67-1.63-.67-2.81,0-1.31.38-2.51,1.14-3.59.76-1.09,1.86-2.01,3.29-2.76,1.44-.75,3.16-1.26,5.16-1.52,1.41-.19,2.85-.23,4.31-.13,1.46.1,2.68.37,3.65.81-.8,1.83-1.2,2.75-2,4.57-1-.44-2-.7-3.02-.78-1.01-.08-1.99-.05-2.94.07-1.33.18-2.31.48-2.92.92-.62.44-.92.94-.92,1.5,0,.51.22.87.67,1.07.45.2,1.05.33,1.79.39.74.06,1.56.08,2.44.08.88,0,1.77.05,2.67.15.9.1,1.71.31,2.44.63.73.32,1.33.8,1.79,1.47.46.66.69,1.58.69,2.76,0,1.28-.38,2.48-1.15,3.58-.77,1.1-1.88,2.05-3.32,2.82-1.45.77-3.21,1.3-5.29,1.57Z"/>
 <path class="cls-5" d="m296.82,421.85c-2.35.43-4.41.33-6.18-.29-1.78-.62-3.15-1.66-4.12-3.11-.97-1.45-1.46-3.2-1.46-5.26s.48-4,1.44-5.76c.96-1.76,2.27-3.23,3.93-4.42,1.66-1.19,3.54-1.98,5.63-2.36,2.01-.37,3.83-.28,5.44.26,1.62.55,2.89,1.52,3.83,2.93.94,1.41,1.41,3.23,1.41,5.47,0,.23-.01.5-.04.8-.03.3-.05.58-.08.84-6.66,1.38-10,2-16.7,3.13v-3.51c5.44-.92,8.16-1.42,13.57-2.5-.92.6-1.37.9-2.29,1.49,0-1.08-.22-1.97-.65-2.69-.43-.71-1.03-1.22-1.8-1.53-.76-.3-1.66-.36-2.68-.18-1.02.19-1.92.57-2.7,1.16-.78.59-1.38,1.32-1.82,2.2-.43.88-.65,1.88-.65,2.98v.92c0,1.13.25,2.08.75,2.86.5.77,1.2,1.31,2.11,1.6.9.29,1.97.32,3.19.1,1.1-.2,2.06-.55,2.88-1.04.83-.49,1.58-1.14,2.27-1.94,1.27,1.14,1.9,1.7,3.17,2.83-.94,1.27-2.12,2.34-3.55,3.19-1.43.86-3.07,1.46-4.93,1.8Z"/>
 <path class="cls-5" d="m1207 373.5v-28.62h9.22v1.56h-7.02v25.49h7.02v1.56h-9.22z"/>
 <path class="cls-5" d="m1222.41,368.48v-2.26h6.12v-15.64h-4.76v-1.76c1.24-.18,2.29-.39,3.14-.65.85-.25,1.62-.56,2.31-.92h2.03v18.97h5.56v2.26h-14.41Z"/>
 <path class="cls-5" d="m1249 368.9c-2.35 0-4.21-0.97-5.58-2.9-1.36-1.93-2.05-4.66-2.05-8.19s0.68-6.29 2.05-8.15 3.22-2.8 5.58-2.8 4.24 0.93 5.59 2.8c1.35 1.86 2.03 4.58 2.03 8.15s-0.68 6.26-2.03 8.19-3.22 2.9-5.59 2.9zm0-2.2c1.49 0 2.7-0.72 3.64-2.16s1.41-3.68 1.41-6.72-0.47-5.29-1.41-6.67c-0.94-1.39-2.16-2.08-3.64-2.08s-2.7 0.69-3.64 2.08-1.41 3.61-1.41 6.67 0.47 5.28 1.41 6.72 2.16 2.16 3.64 2.16zm0-6.89c-0.56 0-1.04-0.2-1.45-0.6s-0.62-0.94-0.62-1.63 0.2-1.23 0.62-1.61c0.41-0.39 0.89-0.58 1.45-0.58s1.04 0.19 1.45 0.58 0.62 0.93 0.62 1.61-0.21 1.23-0.62 1.63-0.89 0.6-1.45 0.6z"/>
 <path class="cls-5" d="m1266.43,375.57l-.77-1.73c1.38-.62,2.41-1.38,3.1-2.26.69-.89,1.05-1.99,1.1-3.29-.09.02-.19.04-.3.05-.11.01-.22.02-.33.02-.71,0-1.32-.21-1.83-.63-.51-.42-.77-1.04-.77-1.86s.27-1.45.8-1.88c.53-.43,1.15-.65,1.86-.65.98,0,1.72.38,2.23,1.15s.77,1.8.77,3.11c0,1.95-.52,3.6-1.55,4.94-1.03,1.34-2.47,2.36-4.31,3.04Z"/>
 <path class="cls-5" d="m1311 368.5v-5.86h-10.95v-1.83l10.62-13.54h2.93v13.18h3.29v2.2h-3.29v5.86h-2.6zm-7.92-8.05h7.92v-6.59c0.02-0.58 0.05-1.2 0.08-1.88s0.06-1.3 0.08-1.88h-0.17c-0.33 0.51-0.69 1.03-1.07 1.55s-0.74 1.04-1.1 1.55l-5.76 7.25z"/>
 <path class="cls-5" d="m1321 368.5v-1.63c2.4-2.13 4.43-3.99 6.09-5.59s2.92-3.04 3.78-4.33c0.85-1.29 1.28-2.52 1.28-3.69s-0.38-2.22-1.13-3-1.92-1.17-3.49-1.17c-1 0-1.92 0.25-2.78 0.75-0.85 0.5-1.63 1.1-2.31 1.81l-1.56-1.56c0.95-0.98 1.99-1.76 3.1-2.35s2.41-0.88 3.89-0.88c2.13 0 3.82 0.57 5.06 1.71s1.86 2.66 1.86 4.54c0 1.33-0.41 2.68-1.23 4.04s-1.97 2.8-3.44 4.29-3.18 3.12-5.11 4.88c0.67-0.04 1.34-0.09 2.01-0.13 0.68-0.04 1.33-0.07 1.95-0.07h6.99v2.36h-14.94z"/>
 <path class="cls-5" d="m1346.31,375.57l-.77-1.73c1.38-.62,2.41-1.38,3.1-2.26.69-.89,1.05-1.99,1.1-3.29-.09.02-.19.04-.3.05-.11.01-.22.02-.33.02-.71,0-1.32-.21-1.83-.63-.51-.42-.77-1.04-.77-1.86s.27-1.45.8-1.88c.53-.43,1.15-.65,1.86-.65.98,0,1.72.38,2.23,1.15s.77,1.8.77,3.11c0,1.95-.52,3.6-1.55,4.94-1.03,1.34-2.47,2.36-4.31,3.04Z"/>
 <path class="cls-5" d="m1382.15,368.48v-2.26h6.12v-15.64h-4.76v-1.76c1.24-.18,2.29-.39,3.14-.65.85-.25,1.62-.56,2.31-.92h2.03v18.97h5.56v2.26h-14.41Z"/>
 <path class="cls-5" d="m1401 368.5v-1.63c2.4-2.13 4.43-3.99 6.09-5.59s2.92-3.04 3.78-4.33c0.85-1.29 1.28-2.52 1.28-3.69s-0.38-2.22-1.13-3-1.92-1.17-3.49-1.17c-1 0-1.92 0.25-2.78 0.75-0.85 0.5-1.63 1.1-2.31 1.81l-1.56-1.56c0.95-0.98 1.99-1.76 3.1-2.35s2.41-0.88 3.89-0.88c2.13 0 3.82 0.57 5.06 1.71s1.86 2.66 1.86 4.54c0 1.33-0.41 2.68-1.23 4.04s-1.97 2.8-3.44 4.29-3.18 3.12-5.11 4.88c0.67-0.04 1.34-0.09 2.01-0.13 0.68-0.04 1.33-0.07 1.95-0.07h6.99v2.36h-14.94z"/>
 <path class="cls-5" d="m1428.41,368.88c-1.82,0-3.36-.31-4.61-.92-1.25-.61-2.27-1.3-3.05-2.08l1.4-1.8c.71.67,1.56,1.25,2.56,1.76,1,.51,2.17.77,3.53.77,1.44,0,2.65-.35,3.63-1.06.98-.71,1.46-1.65,1.46-2.83,0-1.26-.59-2.29-1.76-3.06-1.18-.78-3.16-1.16-5.96-1.16v-2.1c2.51,0,4.29-.38,5.36-1.15,1.06-.77,1.6-1.7,1.6-2.81,0-1.04-.39-1.86-1.18-2.46-.79-.6-1.84-.9-3.15-.9-1,0-1.94.2-2.83.6-.89.4-1.69.92-2.4,1.56l-1.46-1.73c.89-.78,1.9-1.41,3.05-1.91,1.14-.5,2.39-.75,3.74-.75s2.52.21,3.58.63c1.05.42,1.89,1.03,2.51,1.83.62.8.93,1.77.93,2.93,0,1.29-.43,2.34-1.28,3.16-.85.82-1.94,1.45-3.25,1.9v.13c.95.2,1.83.54,2.61,1.02.79.48,1.43,1.08,1.91,1.81.49.73.73,1.59.73,2.56,0,1.24-.35,2.32-1.05,3.23-.7.91-1.62,1.61-2.78,2.1-1.15.49-2.44.73-3.86.73Z"/>
 <path class="cls-5" d="m1446.14,375.57l-.77-1.73c1.38-.62,2.41-1.38,3.1-2.26.69-.89,1.05-1.99,1.1-3.29-.09.02-.19.04-.3.05-.11.01-.22.02-.33.02-.71,0-1.32-.21-1.83-.63-.51-.42-.77-1.04-.77-1.86s.27-1.45.8-1.88c.53-.43,1.15-.65,1.86-.65.98,0,1.72.38,2.23,1.15s.77,1.8.77,3.11c0,1.95-.52,3.6-1.55,4.94-1.03,1.34-2.47,2.36-4.31,3.04Z"/>
 <path class="cls-5" d="m1482.15,368.88c-.64,0-1.19-.23-1.65-.7-.46-.47-.68-1.06-.68-1.8s.23-1.36.68-1.81,1-.68,1.65-.68,1.19.23,1.63.68c.44.45.67,1.06.67,1.81s-.22,1.33-.67,1.8c-.44.47-.99.7-1.63.7Zm6.59,0c-.64,0-1.19-.23-1.65-.7-.46-.47-.68-1.06-.68-1.8s.23-1.36.68-1.81c.45-.45,1-.68,1.65-.68s1.19.23,1.65.68c.46.45.68,1.06.68,1.81s-.23,1.33-.68,1.8c-.45.47-1,.7-1.65.7Zm6.59,0c-.62,0-1.16-.23-1.61-.7-.46-.47-.68-1.06-.68-1.8s.23-1.36.68-1.81.99-.68,1.61-.68,1.19.23,1.65.68c.45.45.68,1.06.68,1.81s-.23,1.33-.68,1.8c-.46.47-1,.7-1.65.7Z"/>
 <path class="cls-5" d="m1502 373.5v-1.56h7.02v-25.49h-7.02v-1.56h9.22v28.62h-9.22z"/>
 <path class="cls-2" d="m926.6 75.31h-403.7c-8.87 0-16.06 7.19-16.06 16.06v618.1c0 8.87 7.19 16.06 16.06 16.06h403.7"/>
 <line class="cls-2" x1="523" x2="926.6" y1="156.6" y2="156.6"/>
 <line class="cls-2" x1="523" x2="926.6" y1="237.9" y2="237.9"/>
 <line class="cls-2" x1="523" x2="926.6" y1="319.1" y2="319.1"/>
 <line class="cls-2" x1="523" x2="926.6" y1="400.4" y2="400.4"/>
 <line class="cls-2" x1="523" x2="926.6" y1="481.7" y2="481.7"/>
 <line class="cls-2" x1="523" x2="926.6" y1="563" y2="563"/>
 <line class="cls-2" x1="523" x2="926.6" y1="644.3" y2="644.3"/>
 <path class="cls-6" d="m413.46,400.43c.01,5.77,3.73,10.88,9.22,12.67,9.09,2.96,9.09,7.69,9.09,9.96v290.26c0,7.24,5.7,13.46,12.94,13.49,1.16,0,2.28-.14,3.35-.42.42-.11.77-.41.94-.81s.15-.86-.07-1.24c-.08-.14-.15-.27-.22-.41-6.44-12-2.07-25.39,7.72-30.69.82-.44,1.31-1.31,1.31-2.24v-267.92c0-8.09-2.4-15.26-6.87-21.13-.34-.44-.51-.97-.52-1.5,0-.53.18-1.05.52-1.5,4.47-5.86,6.87-13.03,6.87-21.13V109.88c0-.93-.49-1.8-1.31-2.24-9.79-5.3-14.16-18.7-7.72-30.69.07-.14.15-.27.22-.41.21-.38.24-.84.07-1.24s-.52-.7-.94-.81c-1.07-.28-2.19-.43-3.35-.42-7.24.02-12.94,6.25-12.94,13.49v290.26c0,2.27,0,7-9.09,9.96-5.49,1.79-9.21,6.9-9.22,12.67Z"/>
 <path class="cls-6" d="m476.9 719.6c5.16-8.48-0.73-20.36-10.6-21.39s-16.33 9.58-11.62 19.08 17.06 10.78 22.22 2.3z"/>
 <path class="cls-6" d="m454.7,83.57c4.71-9.5,17.06-10.78,22.22-2.3s-.73,20.36-10.6,21.39-16.33-9.58-11.62-19.08Z"/>
 <path class="cls-5" d="m547.5 373.5v-28.62h9.22v1.56h-7.02v25.49h7.02v1.56h-9.22z"/>
 <path class="cls-5" d="m563.17,368.48v-2.26h6.12v-15.64h-4.76v-1.76c1.24-.18,2.29-.39,3.14-.65.85-.25,1.62-.56,2.31-.92h2.03v18.97h5.56v2.26h-14.41Z"/>
 <path class="cls-5" d="m589.9 368.9c-2.35 0-4.21-0.97-5.58-2.9-1.36-1.93-2.05-4.66-2.05-8.19s0.68-6.29 2.05-8.15 3.22-2.8 5.58-2.8 4.24 0.93 5.59 2.8c1.35 1.86 2.03 4.58 2.03 8.15s-0.68 6.26-2.03 8.19-3.22 2.9-5.59 2.9zm0-2.2c1.49 0 2.7-0.72 3.64-2.16s1.41-3.68 1.41-6.72-0.47-5.29-1.41-6.67c-0.94-1.39-2.16-2.08-3.64-2.08s-2.7 0.69-3.64 2.08-1.41 3.61-1.41 6.67 0.47 5.28 1.41 6.72 2.16 2.16 3.64 2.16zm0-6.89c-0.56 0-1.04-0.2-1.45-0.6s-0.62-0.94-0.62-1.63 0.2-1.23 0.62-1.61c0.41-0.39 0.89-0.58 1.45-0.58s1.04 0.19 1.45 0.58 0.62 0.93 0.62 1.61-0.21 1.23-0.62 1.63-0.89 0.6-1.45 0.6z"/>
 <path class="cls-5" d="m607.2,375.57l-.77-1.73c1.38-.62,2.41-1.38,3.1-2.26.69-.89,1.05-1.99,1.1-3.29-.09.02-.19.04-.3.05-.11.01-.22.02-.33.02-.71,0-1.32-.21-1.83-.63-.51-.42-.77-1.04-.77-1.86s.27-1.45.8-1.88c.53-.43,1.15-.65,1.86-.65.98,0,1.72.38,2.23,1.15s.77,1.8.77,3.11c0,1.95-.52,3.6-1.55,4.94-1.03,1.34-2.47,2.36-4.31,3.04Z"/>
 <path class="cls-5" d="m652.06,368.48v-5.86h-10.95v-1.83l10.62-13.54h2.93v13.18h3.29v2.2h-3.29v5.86h-2.6Zm-7.92-8.05h7.92v-6.59c.02-.58.05-1.2.08-1.88.03-.68.06-1.3.08-1.88h-.17c-.33.51-.69,1.03-1.07,1.55-.38.52-.74,1.04-1.1,1.55l-5.76,7.25Z"/>
 <path class="cls-5" d="m662.2 368.5v-1.63c2.4-2.13 4.43-3.99 6.09-5.59s2.92-3.04 3.78-4.33c0.85-1.29 1.28-2.52 1.28-3.69s-0.38-2.22-1.13-3-1.92-1.17-3.49-1.17c-1 0-1.92 0.25-2.78 0.75-0.85 0.5-1.63 1.1-2.31 1.81l-1.56-1.56c0.95-0.98 1.99-1.76 3.1-2.35s2.41-0.88 3.89-0.88c2.13 0 3.82 0.57 5.06 1.71s1.86 2.66 1.86 4.54c0 1.33-0.41 2.68-1.23 4.04s-1.97 2.8-3.44 4.29-3.18 3.12-5.11 4.88c0.67-0.04 1.34-0.09 2.01-0.13 0.68-0.04 1.33-0.07 1.95-0.07h6.99v2.36h-14.94z"/>
 <path class="cls-5" d="m687.07,375.57l-.77-1.73c1.38-.62,2.41-1.38,3.1-2.26.69-.89,1.05-1.99,1.1-3.29-.09.02-.19.04-.3.05-.11.01-.22.02-.33.02-.71,0-1.32-.21-1.83-.63-.51-.42-.77-1.04-.77-1.86s.27-1.45.8-1.88c.53-.43,1.15-.65,1.86-.65.98,0,1.72.38,2.23,1.15s.77,1.8.77,3.11c0,1.95-.52,3.6-1.55,4.94-1.03,1.34-2.47,2.36-4.31,3.04Z"/>
 <path class="cls-5" d="m722.91,368.48v-2.26h6.12v-15.64h-4.76v-1.76c1.24-.18,2.29-.39,3.14-.65.85-.25,1.62-.56,2.31-.92h2.03v18.97h5.56v2.26h-14.41Z"/>
 <path class="cls-5" d="m742.1 368.5v-1.63c2.4-2.13 4.43-3.99 6.09-5.59s2.92-3.04 3.78-4.33c0.85-1.29 1.28-2.52 1.28-3.69s-0.38-2.22-1.13-3-1.92-1.17-3.49-1.17c-1 0-1.92 0.25-2.78 0.75-0.85 0.5-1.63 1.1-2.31 1.81l-1.56-1.56c0.95-0.98 1.99-1.76 3.1-2.35s2.41-0.88 3.89-0.88c2.13 0 3.82 0.57 5.06 1.71s1.86 2.66 1.86 4.54c0 1.33-0.41 2.68-1.23 4.04s-1.97 2.8-3.44 4.29-3.18 3.12-5.11 4.88c0.67-0.04 1.34-0.09 2.01-0.13 0.68-0.04 1.33-0.07 1.95-0.07h6.99v2.36h-14.94z"/>
 <path class="cls-5" d="m769.17,368.88c-1.82,0-3.36-.31-4.61-.92-1.25-.61-2.27-1.3-3.05-2.08l1.4-1.8c.71.67,1.56,1.25,2.56,1.76,1,.51,2.17.77,3.53.77,1.44,0,2.65-.35,3.63-1.06.98-.71,1.46-1.65,1.46-2.83,0-1.26-.59-2.29-1.76-3.06-1.18-.78-3.16-1.16-5.96-1.16v-2.1c2.51,0,4.29-.38,5.36-1.15,1.06-.77,1.6-1.7,1.6-2.81,0-1.04-.39-1.86-1.18-2.46-.79-.6-1.84-.9-3.15-.9-1,0-1.94.2-2.83.6-.89.4-1.69.92-2.4,1.56l-1.46-1.73c.89-.78,1.9-1.41,3.05-1.91,1.14-.5,2.39-.75,3.74-.75s2.52.21,3.58.63c1.05.42,1.89,1.03,2.51,1.83.62.8.93,1.77.93,2.93,0,1.29-.43,2.34-1.28,3.16-.85.82-1.94,1.45-3.25,1.9v.13c.95.2,1.83.54,2.61,1.02.79.48,1.43,1.08,1.91,1.81.49.73.73,1.59.73,2.56,0,1.24-.35,2.32-1.05,3.23-.7.91-1.62,1.61-2.78,2.1-1.15.49-2.44.73-3.86.73Z"/>
 <path class="cls-5" d="m786.91,375.57l-.77-1.73c1.38-.62,2.41-1.38,3.1-2.26.69-.89,1.05-1.99,1.1-3.29-.09.02-.19.04-.3.05-.11.01-.22.02-.33.02-.71,0-1.32-.21-1.83-.63-.51-.42-.77-1.04-.77-1.86s.27-1.45.8-1.88c.53-.43,1.15-.65,1.86-.65.98,0,1.72.38,2.23,1.15s.77,1.8.77,3.11c0,1.95-.52,3.6-1.55,4.94-1.03,1.34-2.47,2.36-4.31,3.04Z"/>
 <path class="cls-5" d="m822.91,368.88c-.64,0-1.19-.23-1.65-.7-.46-.47-.68-1.06-.68-1.8s.23-1.36.68-1.81,1-.68,1.65-.68,1.19.23,1.63.68c.44.45.67,1.06.67,1.81s-.22,1.33-.67,1.8c-.44.47-.99.7-1.63.7Zm6.59,0c-.64,0-1.19-.23-1.65-.7-.46-.47-.68-1.06-.68-1.8s.23-1.36.68-1.81c.45-.45,1-.68,1.65-.68s1.19.23,1.65.68c.46.45.68,1.06.68,1.81s-.23,1.33-.68,1.8c-.45.47-1,.7-1.65.7Zm6.59,0c-.62,0-1.16-.23-1.61-.7-.46-.47-.68-1.06-.68-1.8s.23-1.36.68-1.81.99-.68,1.61-.68,1.19.23,1.65.68c.45.45.68,1.06.68,1.81s-.23,1.33-.68,1.8c-.46.47-1,.7-1.65.7Z"/>
 <path class="cls-5" d="m842.8 373.5v-1.56h7.02v-25.49h-7.02v-1.56h9.22v28.62h-9.22z"/>
 <path class="cls-5" d="m552.22,534.2v-5.86h-10.95v-1.83l10.62-13.54h2.93v13.18h3.29v2.2h-3.29v5.86h-2.6Zm-7.92-8.05h7.92v-6.59c.02-.58.05-1.2.08-1.88s.06-1.3.08-1.88h-.17c-.33.51-.69,1.03-1.07,1.55-.38.52-.74,1.04-1.1,1.55l-5.76,7.25Z"/>
 <path class="cls-5" d="m562.4 534.2v-1.63c2.4-2.13 4.43-3.99 6.09-5.59s2.92-3.04 3.78-4.33c0.85-1.29 1.28-2.52 1.28-3.69s-0.38-2.22-1.13-3-1.92-1.17-3.49-1.17c-1 0-1.92 0.25-2.78 0.75-0.85 0.5-1.63 1.1-2.31 1.81l-1.56-1.56c0.95-0.98 1.99-1.76 3.1-2.35s2.41-0.88 3.89-0.88c2.13 0 3.82 0.57 5.06 1.71s1.86 2.66 1.86 4.54c0 1.33-0.41 2.68-1.23 4.04s-1.97 2.8-3.44 4.29c-1.48 1.5-3.18 3.12-5.11 4.88 0.67-0.04 1.34-0.09 2.01-0.13 0.68-0.04 1.33-0.07 1.95-0.07h6.99v2.36h-14.94z"/>
 <path class="cls-5" d="m543.2,613.81v-2.26h6.12v-15.64h-4.76v-1.76c1.24-.18,2.29-.39,3.14-.65s1.62-.56,2.31-.92h2.03v18.97h5.56v2.26h-14.41Z"/>
 <path class="cls-5" d="m562.4 613.8v-1.63c2.4-2.13 4.43-3.99 6.09-5.59s2.92-3.04 3.78-4.33c0.85-1.29 1.28-2.52 1.28-3.69s-0.38-2.22-1.13-3-1.92-1.17-3.49-1.17c-1 0-1.92 0.25-2.78 0.75-0.85 0.5-1.63 1.1-2.31 1.81l-1.56-1.56c0.95-0.98 1.99-1.76 3.1-2.35s2.41-0.88 3.89-0.88c2.13 0 3.82 0.57 5.06 1.71s1.86 2.66 1.86 4.54c0 1.33-0.41 2.68-1.23 4.04s-1.97 2.8-3.44 4.29c-1.48 1.5-3.18 3.12-5.11 4.88 0.67-0.04 1.34-0.09 2.01-0.13 0.68-0.04 1.33-0.07 1.95-0.07h6.99v2.36h-14.94z"/>
 <path class="cls-5" d="m589.46,614.21c-1.82,0-3.36-.31-4.61-.92-1.25-.61-2.27-1.3-3.05-2.08l1.4-1.8c.71.67,1.56,1.25,2.56,1.76,1,.51,2.17.77,3.53.77,1.44,0,2.65-.36,3.63-1.07.98-.71,1.46-1.65,1.46-2.83,0-1.26-.59-2.28-1.76-3.06-1.18-.78-3.16-1.17-5.96-1.17v-2.1c2.51,0,4.29-.38,5.36-1.15,1.06-.77,1.6-1.7,1.6-2.81,0-1.04-.39-1.86-1.18-2.46-.79-.6-1.84-.9-3.15-.9-1,0-1.94.2-2.83.6-.89.4-1.69.92-2.4,1.56l-1.46-1.73c.89-.78,1.9-1.41,3.05-1.91,1.14-.5,2.39-.75,3.74-.75s2.52.21,3.58.63c1.05.42,1.89,1.03,2.51,1.83.62.8.93,1.78.93,2.93,0,1.29-.43,2.34-1.28,3.16-.85.82-1.94,1.45-3.25,1.9v.13c.95.2,1.83.54,2.61,1.01.79.48,1.43,1.08,1.91,1.81.49.73.73,1.59.73,2.56,0,1.24-.35,2.32-1.05,3.23-.7.91-1.62,1.61-2.78,2.1-1.15.49-2.44.73-3.86.73Z"/>
 <path class="cls-5" d="m543.2,452.71v-2.26h6.12v-15.64h-4.76v-1.76c1.24-.18,2.29-.39,3.14-.65s1.62-.56,2.31-.92h2.03v18.97h5.56v2.26h-14.41Z"/>
 <path class="cls-5" d="m569.9 453.1c-2.35 0-4.21-0.96-5.58-2.9-1.36-1.93-2.05-4.66-2.05-8.19s0.68-6.29 2.05-8.15 3.22-2.8 5.58-2.8 4.24 0.93 5.59 2.8c1.35 1.86 2.03 4.58 2.03 8.15s-0.68 6.26-2.03 8.19-3.22 2.9-5.59 2.9zm0-2.2c1.49 0 2.7-0.72 3.64-2.16s1.41-3.68 1.41-6.72-0.47-5.29-1.41-6.67-2.16-2.08-3.64-2.08-2.7 0.69-3.64 2.08-1.41 3.61-1.41 6.67 0.47 5.28 1.41 6.72 2.16 2.16 3.64 2.16zm0-6.89c-0.56 0-1.04-0.2-1.45-0.6s-0.62-0.94-0.62-1.63 0.2-1.23 0.62-1.61c0.41-0.39 0.89-0.58 1.45-0.58s1.04 0.19 1.45 0.58 0.62 0.93 0.62 1.61-0.21 1.23-0.62 1.63-0.89 0.6-1.45 0.6z"/>
 <line class="cls-2" x1="983" x2="1183" y1="359.8" y2="359.8"/>
 <path class="cls-6" d="m967.29,361.76l22.58,13.04c1.52.88,3.43-.22,3.43-1.98v-26.07c0-1.76-1.91-2.86-3.43-1.98l-22.58,13.04c-1.52.88-1.52,3.08,0,3.96Z"/>
</svg>
