<svg width="2557" height="401" fill="none" id="svg527268166_1294"><path d="M1422.14 290.996V353h-243.41l62.01-62.004h181.4ZM1798.36 52.82v27.364l-33.41 33.307h-147.68l-62.42-60.671h243.51ZM708.221 114.106l-105.047 106.38 105.047 104.228v27.466h-67.128L522.005 232.989h-34.64v-61.901h74.302l57.597-57.597H481.728L420.339 52h287.882v62.106Z" fill="#7AE7FF"></path><path d="M465.228 126.302V352.18h-62.004V64.298l62.004 62.004Zm1675.232-12.196-105.05 106.38 105.05 104.228v27.466h-67.13l-119.09-119.191h-34.64v-61.901h74.3l57.6-57.597-137.54-.102L1852.57 52h287.89v62.106Z" fill="#7AE7FF"></path><path d="M1897.36 126.302V352.18h-61.9V64.298l61.9 62.004Zm-852.58-74.2v27.364l-34.02 34.025-85.064-.102v238.894h-62.004V113.389H744.604V52.103h300.176Zm376.43.718v27.364L1148.5 353h-67.13v-27.466l212.15-212.043-212.15-.102v-60.57h339.84Zm377.15 272.714V353h-339.94v-27.466l122.67-122.675-122.67-122.675V52.82h67.12l119.09 118.986h113.97v62.003h-113.97l-57.08 57.187h176.07l34.74 34.538Zm706.13-273.432-61.5 61.389-204.15-.102v177.505l-61.9 61.389V86.743l34.64-34.64h292.91Zm12.29 12.811v252.729l-34.53 34.641h-278.76l59.54-61.492 191.75.103V128.249l62-63.336ZM366.842 52v300.283h-62.004v-38.637H167.303l60.671-63.132h76.864V141.367L94.128 352.283H27v-27.467L299.816 52h67.026Z" fill="#7AE7FF"></path></svg>