<svg
        xmlns="http://www.w3.org/2000/svg"
        xmlns:xlink="http://www.w3.org/1999/xlink"
        width="700"
        height="700"
        viewBox="1195 113.5 700 700">
  <defs>
    <style>
      .board {
      transform: translate(1415px, -30px) scale(0.68);
      }
    </style>
  </defs>
  <rect x="1195" y="113.5" width="700" height="700" rx="12" ry="12" fill="#e2dcfe"/>
  <g>
    <path d="M1338.15 268.91c24.86 11.03 25.9 48.38 47.15 91.9 10.6 21.7 27.64 36.48 27.35 38.41-.29 1.93-27.39-9.56-46.84-34.32-20.79-26.45-44.15-57.67-44.21-80.69-.05-23.02 16.55-15.3 16.55-15.3Z" style="fill:#8747cc"/>
    <ellipse cx="1391.28" cy="387.03" rx="2.76" ry="7.04" transform="rotate(-53.63 1391.215 387.042)"/>
    <ellipse cx="1370.67" cy="367" rx="3.82" ry="9.74" transform="rotate(-39.23 1370.63 366.996)"/>
    <ellipse cx="1350.44" cy="339.72" rx="4.19" ry="12.7" transform="rotate(-34.1 1350.437 339.726)"/>
    <path d="M1297.37 298.14c24.17 69.08-1.7 116.46-6.75 126.54-5.05 10.09 62.19-37.67 42.28-125.69-9.73-43.02-45.12-28.28-35.53-.85Z" style="fill:#8747cc"/>
    <ellipse cx="1320.24" cy="345.37" rx="9.26" ry="6.19" transform="rotate(-87 1320.224 345.382)"/>
    <ellipse cx="1316.35" cy="376.09" rx="7.73" ry="5.22" transform="rotate(-79.08 1316.35 376.093)"/>
    <ellipse cx="1306.71" cy="400.8" rx="5.35" ry="3.61" transform="rotate(-66.4 1306.764 400.783)"/>
    <path d="m1400.756 334.014 6.052-20.63 10.248 3.006-6.052 20.63z"/>
    <ellipse cx="1422.88" cy="278.15" rx="40.8" ry="45.87" transform="rotate(-81.45 1422.952 278.11)" style="fill:#427ed6"/>
    <ellipse cx="1422.88" cy="278.15" rx="33.61" ry="37.78" transform="rotate(-69.47 1422.816 278.175)" style="fill:#e2dcfe"/>
    <ellipse cx="1447.7" cy="275.46" rx="5.38" ry="9.27" transform="rotate(-12.89 1448.215 275.483)" style="fill:#f7f7f7"/>
    <rect x="1384.92" y="331.06" width="23.03" height="74.03" rx="11.52" ry="11.52" transform="rotate(16.35 1396.784 368.215)" style="fill:#427ed6"/>
    <path transform="rotate(-73.65 1402.68 346.564)" style="fill:#6af" d="M1401.05 335.01h3.43v23.03h-3.43z"/>
    <path transform="rotate(-73.65 1390.032 389.65)" style="fill:#6af" d="M1388.4 378.1h3.43v23.03h-3.43z"/>
    <path d="M1341.84 276.38c15.84 14.24 16.32 56.07 26.36 79.27 6.99 16.14 19.95 23.32 43.35 4.4 1.58-1.28 3.74.68 2.61 2.38-32.11 48.44-56.31 25-70.8 5.32-14.07-19.1-25.75-46.55-29.65-82.06-2.37-21.59 12.32-23.52 28.13-9.3Z" style="fill:#bc83fb"/>
    <path d="M1280.03 290.6c-7.74 60.54-45.34 86.84-53.89 90.82-.59.27-.39 1.15.26 1.17 43.13 1.21 65.63-33.82 82.4-79.92 15.64-43-24.37-46.47-28.76-12.07Z" style="fill:#8747cc"/>
    <path d="M1285.94 332.99c-3.14 7.24-9.71 9.77-11.82 4.55-2.11-5.22 1.82-14.27 7.07-16.3s7.89 4.5 4.75 11.74ZM1270.11 360.07c-4.14 5.01-9.92 5.51-10.39.9-.47-4.61 4.7-10.87 9.32-11.27 4.62-.4 5.21 5.36 1.07 10.37ZM1249.97 376.43c-3.62 1.8-7.02.63-6.13-2.11s5.41-4.99 8.14-4.05 1.61 4.36-2.01 6.16Z"/>
    <path d="M1302.54 261.75c-45.29 23.98-2.51 121.05-62.43 163.21-4.29 3.02 7.85 3.03 25.3-11.9 17.45-14.93 57.84-70.48 53.21-143.3-1.24-19.45-16.09-8.02-16.09-8.02Z" style="fill:#bc83fb"/>
    <path d="M1315.9 155.01c28.66 28.69 47.24 36.97 27.28 68.02-10.18-16.9-27.28-68.02-27.28-68.02ZM1312.57 156.09c-32.74 32.93-46.06 43.22-22.85 66.94 10.18-18.43 22.85-66.94 22.85-66.94Z" style="fill:#8747cc"/>
    <path d="M1345.84 262.68c-13.66 25.18-46.5 21.68-59.48 1.19-19.05-30.07 8.66-67.64 19.14-91.23l.02-.04c2.98-6.73 5.56-13.38 7.17-19.99.46-1.91 3.12-1.91 3.6-.01 8.75 34.49 51.33 69.92 29.54 110.08Z" style="fill:#bc83fb"/>
    <path d="M1341.85 268.69c-6.11 13.74-26.31 17.8-38.15 9.27 3.52.74 6.92.95 10.32.9 10.32.02 19.97-3.28 27.82-10.17Z" style="fill:#8747cc"/>
    <path d="M1311.85 259.33c1.32 4.15 9 4.3 10.08-.08.35-1.33 2.37-.94 2.22.42-.31 5.69-7.88 7.37-11.99 4.43-1.43-.71-4.2-5.08-1.55-5.64.58-.05 1.09.33 1.24.87Z"/>
    <path d="M1282.52 337.74c41.64 15.34 73.24-2.35 73.24-2.35l-22.14-51.87c-12.14 2.34-20.93 2.12-33.83 0l-17.27 54.21Z" style="fill:#f7f7f7"/>
    <ellipse cx="1317.84" cy="296.02" rx="7.2" ry="6.43" transform="rotate(-19.02 1317.893 296.014)" style="fill:#6af"/>
    <path d="M1291.24 269.98c3.34 5.88 11.38 9.28 17.48 11.09 4.3 1.28 6.93 5.59 6.02 9.98-8.2 39.65-15.12 57-15.12 57-31.63 2.97-45.47-22.74-45.47-22.74 24.93-20.14 23.82-48.65 35.46-55.75.56-.34 1.3-.16 1.63.41ZM1341.13 269.71c-3.09 5.76-9.27 9.45-14.02 11.55-3.67 1.63-5.71 5.6-4.93 9.54 8 40.22 12.47 56.99 12.47 56.99 31.63 2.97 43.56-22.74 43.56-22.74-12.49-32.67-23.12-49.47-35.51-55.83-.56-.29-1.27-.08-1.56.48Z" style="fill:#211d45"/>
    <ellipse cx="1333" cy="247.03" rx="14.65" ry="11.24" transform="rotate(-6.9 1333.398 247.113)" style="fill:#e2dcfe;opacity:.5"/>
    <path style="fill:none;stroke:#565191;stroke-linecap:round;stroke-miterlimit:10;stroke-width:3px" d="M1347.85 246.35h6.93"/>
    <path d="M1320.64 251.94c.8-7.55 10.98-10.94 16.6-6.08 1.72 1.08 5.1 7.11 1.95 7.68-.66.06-1.26-.33-1.48-.93-.58-1.61-1.53-2.89-2.77-3.74-3.95-2.68-9.95-.87-11.55 3.77-.62 1.55-2.96.93-2.75-.71Z"/>
    <g style="opacity:.5"><ellipse cx="1299.03" cy="247.03" rx="11.24" ry="14.65" transform="rotate(-83.1 1299.003 247.044)" style="fill:#e2dcfe"/>
      <path style="fill:#e2dcfe" d="M1284.18 246.35h-6.94"/>
    </g>
    <path d="M1310.85 252.59c-2.29-6.45-12.19-6.69-14.3.03-.58 1.56-2.93 1.01-2.77-.63.65-7.84 10.74-10.89 16.47-6.05 1.68 1.06 5.27 6.92 2.13 7.61-.69.09-1.32-.33-1.54-.96Z"/>
    <ellipse cx="1299.03" cy="247.03" rx="11.24" ry="14.65" transform="rotate(-83.1 1299.003 247.044)" style="fill:none;stroke:#565191;stroke-miterlimit:10;stroke-width:3px"/>
    <path style="fill:none;stroke:#565191;stroke-linecap:round;stroke-miterlimit:10;stroke-width:3px" d="M1284.18 246.35h-6.94"/>
    <ellipse cx="1333" cy="247.03" rx="14.65" ry="11.24" transform="rotate(-6.9 1333.398 247.113)" style="fill:none;stroke:#565191;stroke-miterlimit:10;stroke-width:3px"/>
  </g>
  <g class="board">
    <path d="m159.98,317.34h721.51c10.18,0,18.44,8.26,18.44,18.44v805.06c0,14.76-11.98,26.74-26.74,26.74H168.27c-14.75,0-26.73-11.98-26.73-26.73V335.78c0-10.18,8.26-18.44,18.44-18.44Z" style="fill: #bb82fa; stroke-width: 0px;"/>
    <path d="m899.93,359.36v779.56c0,15.82-10.97,28.66-24.49,28.66H166.02c-13.52,0-24.49-12.84-24.49-28.66V359.36h758.4Z" style="fill: #0e0c12; stroke-width: 0px;"/>
    <circle cx="169.8" cy="340.11" r="7.79" style="fill: #fff; stroke-width: 0px;"/>
    <circle cx="194.42" cy="340.11" r="7.79" style="fill: #fff; stroke-width: 0px;"/>
    <circle cx="219.05" cy="340.11" r="7.79" style="fill: #fff; stroke-width: 0px;"/>
    <g>
      <path d="m224.79,413.14h10.6v1.7h-10.6v-1.7Zm.5-5.17h10.6v1.7h-10.6v-1.7Zm2.88-4.5h1.54l-1.99,16.4h-1.57l2.02-16.4Zm4.71,0h1.54l-1.99,16.4h-1.57l2.02-16.4Z" style="fill: #19a3ff; stroke-width: 0px;"/>
      <path d="m243.35,402.02h7.11v1.39h-5.15v18.92h5.15v1.39h-7.11v-21.69Z" style="fill: #19a3ff; stroke-width: 0px;"/>
      <path d="m260.68,409.56h-5.51v-2h8.02v12.32h-2.51v-10.32Zm-.82-6.2c0-1.06.79-1.79,1.87-1.79s1.87.73,1.87,1.79-.79,1.78-1.87,1.78-1.87-.7-1.87-1.78Z" style="fill: #19a3ff; stroke-width: 0px;"/>
      <path d="m270.32,407.55h2.05l.2,1.96h.1c1.23-1.27,2.64-2.27,4.54-2.27,2.88,0,4.2,1.77,4.2,4.98v7.65h-2.51v-7.32c0-2.15-.72-3.15-2.55-3.15-1.34,0-2.24.66-3.52,1.96v8.5h-2.51v-12.32Z" style="fill: #19a3ff; stroke-width: 0px;"/>
      <path d="m285.7,401.99h2.51v11.63h.1l6.07-6.07h2.82l-9,9.04v3.28h-2.51v-17.88Zm4.84,11.59l1.49-1.61,5.77,7.9h-2.76l-4.49-6.29Z" style="fill: #19a3ff; stroke-width: 0px;"/>
      <path d="m303.68,409.02c0-1.36.98-2.36,2.27-2.36s2.27,1,2.27,2.36-.98,2.36-2.27,2.36-2.27-.97-2.27-2.36Zm0,8.8c0-1.36.98-2.36,2.27-2.36s2.27,1,2.27,2.36-.98,2.36-2.27,2.36-2.27-.97-2.27-2.36Z" style="fill: #19a3ff; stroke-width: 0px;"/>
      <path d="m318.82,409.02c0-1.36.98-2.36,2.27-2.36s2.27,1,2.27,2.36-.98,2.36-2.27,2.36-2.27-.97-2.27-2.36Zm0,8.8c0-1.36.98-2.36,2.27-2.36s2.27,1,2.27,2.36-.98,2.36-2.27,2.36-2.27-.97-2.27-2.36Z" style="fill: #19a3ff; stroke-width: 0px;"/>
      <path d="m330.59,413.73c0-4.13,3.19-6.49,6.94-6.49,1.99,0,3.5.78,4.52,1.77l-1.21,1.59c-1-.82-2.01-1.29-3.2-1.29-2.65,0-4.47,1.76-4.47,4.42s1.8,4.38,4.41,4.38c1.46,0,2.68-.65,3.66-1.45l1.08,1.62c-1.4,1.22-3.15,1.9-4.94,1.9-3.86,0-6.78-2.36-6.78-6.44Z" style="fill: #19a3ff; stroke-width: 0px;"/>
      <path d="m345.23,413.73c0-4.13,2.89-6.49,6.14-6.49s6.14,2.36,6.14,6.49-2.89,6.44-6.14,6.44-6.14-2.36-6.14-6.44Zm9.7,0c0-2.66-1.38-4.42-3.57-4.42s-3.57,1.76-3.57,4.42,1.38,4.38,3.57,4.38,3.57-1.74,3.57-4.38Z" style="fill: #19a3ff; stroke-width: 0px;"/>
      <path d="m361.14,407.55h2.05l.2,1.96h.1c1.23-1.27,2.64-2.27,4.54-2.27,2.88,0,4.2,1.77,4.2,4.98v7.65h-2.51v-7.32c0-2.15-.72-3.15-2.55-3.15-1.34,0-2.24.66-3.52,1.96v8.5h-2.51v-12.32Z" style="fill: #19a3ff; stroke-width: 0px;"/>
      <path d="m379.06,415v-5.44h-3.4v-1.87l3.5-.13.33-3.91h2.08v3.91h5.82v2h-5.82v5.45c0,2.12.75,3.15,2.98,3.15,1.08,0,1.96-.22,2.81-.53l.51,1.83c-1.11.38-2.33.72-3.9.72-3.69,0-4.91-2.09-4.91-5.18Z" style="fill: #19a3ff; stroke-width: 0px;"/>
      <path d="m392.67,407.55h2.08l.22,2.86h.06c1.27-2.01,3.17-3.16,5.37-3.16.96,0,1.67.14,2.42.5l-.55,2.13c-.84-.27-1.31-.39-2.26-.39-1.77,0-3.47.9-4.83,3.39v6.99h-2.51v-12.32Z" style="fill: #19a3ff; stroke-width: 0px;"/>
      <path d="m406.24,416.62c0-2.76,2.51-4.12,8.73-4.59-.09-1.52-.91-2.75-3.1-2.75-1.49,0-2.96.68-4.17,1.39l-.96-1.68c1.38-.85,3.43-1.75,5.57-1.75,3.4,0,5.16,1.95,5.16,5.2v7.42h-2.08l-.2-1.6h-.08c-1.32,1.03-3.03,1.9-4.72,1.9-2.36,0-4.17-1.39-4.17-3.56Zm8.73-.1v-2.89c-4.84.35-6.28,1.32-6.28,2.79,0,1.24,1.11,1.75,2.43,1.75s2.57-.62,3.85-1.66Z" style="fill: #19a3ff; stroke-width: 0px;"/>
      <path d="m421.42,413.73c0-4.13,3.19-6.49,6.94-6.49,1.99,0,3.5.78,4.52,1.77l-1.21,1.59c-1-.82-2.01-1.29-3.2-1.29-2.65,0-4.47,1.76-4.47,4.42s1.8,4.38,4.41,4.38c1.46,0,2.68-.65,3.66-1.45l1.08,1.62c-1.4,1.22-3.15,1.9-4.94,1.9-3.86,0-6.78-2.36-6.78-6.44Z" style="fill: #19a3ff; stroke-width: 0px;"/>
      <path d="m439.61,415v-5.44h-3.4v-1.87l3.5-.13.33-3.91h2.08v3.91h5.82v2h-5.82v5.45c0,2.12.75,3.15,2.98,3.15,1.08,0,1.96-.22,2.81-.53l.51,1.83c-1.11.38-2.33.72-3.9.72-3.69,0-4.91-2.09-4.91-5.18Z" style="fill: #19a3ff; stroke-width: 0px;"/>
      <path d="m452.27,422.32h5.15v-18.92h-5.15v-1.39h7.11v21.69h-7.11v-1.39Z" style="fill: #19a3ff; stroke-width: 0px;"/>
      <path d="m224.91,437.83h2.05l.2,1.49h.08c1.1-1.04,2.66-1.79,4.11-1.79,3.26,0,5.06,2.46,5.06,6.28,0,4.19-2.62,6.65-5.54,6.65-1.13,0-2.45-.56-3.51-1.53h-.06l.12,2.25v4.01h-2.51v-17.36Zm8.92,5.99c0-2.58-.94-4.2-3.16-4.2-1.01,0-2.13.5-3.25,1.65v5.83c1.02.93,2.18,1.26,2.97,1.26,1.96,0,3.44-1.63,3.44-4.54Z" style="fill: #ffc259; stroke-width: 0px;"/>
      <path d="m239.68,445.47v-7.65h2.51v7.32c0,2.13.71,3.15,2.57,3.15,1.29,0,2.22-.57,3.45-2.03v-8.43h2.51v12.32h-2.07l-.2-2.05h-.1c-1.2,1.4-2.61,2.36-4.48,2.36-2.89,0-4.19-1.77-4.19-4.98Z" style="fill: #ffc259; stroke-width: 0px;"/>
      <path d="m257.48,448.79h-.08l-.23,1.36h-1.99v-17.88h2.51v4.74l-.11,2.27h.08c1.06-1.07,2.55-1.75,3.93-1.75,3.26,0,5.08,2.46,5.08,6.26,0,4.22-2.62,6.67-5.5,6.67-1.2,0-2.6-.62-3.71-1.66Zm6.63-4.97c0-2.58-.94-4.2-3.16-4.2-1.01,0-2.13.5-3.25,1.65v5.83c1.02.93,2.18,1.26,3.01,1.26,1.92,0,3.4-1.63,3.4-4.54Z" style="fill: #ffc259; stroke-width: 0px;"/>
      <path d="m284.56,437.83h1.96l.2,1.6h.06c.59-1.1,1.35-1.9,2.78-1.9,1.18,0,1.94.71,2.28,2.1.64-1.26,1.43-2.1,2.85-2.1,1.73,0,2.74,1.39,2.74,3.85v8.78h-2.44v-8.6c0-1.25-.35-1.88-1.15-1.88s-1.18.57-1.75,1.72v8.77h-2.17v-8.6c0-1.25-.32-1.88-1.12-1.88-.75,0-1.25.57-1.78,1.72v8.77h-2.44v-12.32Z" style="fill: #ffc259; stroke-width: 0px;"/>
      <path d="m299.81,444.01c0-4.12,2.89-6.49,6.14-6.49s6.14,2.36,6.14,6.49-2.89,6.44-6.14,6.44-6.14-2.36-6.14-6.44Zm9.7,0c0-2.66-1.38-4.42-3.57-4.42s-3.57,1.76-3.57,4.42,1.38,4.38,3.57,4.38,3.57-1.74,3.57-4.38Z" style="fill: #ffc259; stroke-width: 0px;"/>
      <path d="m314.95,444.01c0-4.01,2.64-6.49,5.5-6.49,1.44,0,2.52.56,3.55,1.51h.06l-.12-2.17v-4.6h2.51v17.88h-2.05l-.2-1.53h-.08c-.99,1-2.41,1.83-3.87,1.83-3.18,0-5.29-2.36-5.29-6.44Zm8.98,2.7v-5.83c-1-.93-1.94-1.26-2.92-1.26-1.92,0-3.5,1.67-3.5,4.36s1.24,4.38,3.3,4.38c1.12,0,2.14-.53,3.11-1.65Z" style="fill: #ffc259; stroke-width: 0px;"/>
      <path d="m346.26,437.96l3.52-.13h7.33v2.01h-10.86v-1.88Zm3.46-.98c0-2.95,1.59-5.01,5.11-5.01,1.27,0,2.47.25,3.6.7l-.54,1.87c-.95-.4-1.76-.56-2.79-.56-2.04,0-2.89,1.09-2.89,2.94v13.24h-2.49v-13.17Z" style="fill: #19a3ff; stroke-width: 0px;"/>
      <path d="m364.88,445.84v-11.56h-4.24v-2h6.75v13.72c0,1.71.97,2.4,2.32,2.4.67,0,1.39-.16,2.21-.52l.6,1.87c-1.18.46-2,.72-3.4.72-2.76,0-4.25-1.65-4.25-4.62Z" style="fill: #19a3ff; stroke-width: 0px;"/>
      <path d="m381.78,439.83h-5.51v-2.01h8.02v12.32h-2.51v-10.32Zm-.82-6.2c0-1.06.79-1.79,1.87-1.79s1.87.73,1.87,1.79-.79,1.78-1.87,1.78-1.87-.7-1.87-1.78Z" style="fill: #19a3ff; stroke-width: 0px;"/>
      <path d="m391.42,437.83h2.05l.2,1.49h.08c1.1-1.04,2.66-1.79,4.11-1.79,3.26,0,5.06,2.46,5.06,6.28,0,4.19-2.62,6.65-5.54,6.65-1.13,0-2.45-.56-3.51-1.53h-.06l.12,2.25v4.01h-2.51v-17.36Zm8.92,5.99c0-2.58-.94-4.2-3.16-4.2-1.01,0-2.13.5-3.25,1.65v5.83c1.02.93,2.18,1.26,2.97,1.26,1.96,0,3.44-1.63,3.44-4.54Z" style="fill: #19a3ff; stroke-width: 0px;"/>
      <path d="m406.55,437.83h2.05l.2,1.49h.08c1.1-1.04,2.66-1.79,4.11-1.79,3.26,0,5.06,2.46,5.06,6.28,0,4.19-2.62,6.65-5.54,6.65-1.13,0-2.45-.56-3.51-1.53h-.06l.12,2.25v4.01h-2.51v-17.36Zm8.92,5.99c0-2.58-.94-4.2-3.16-4.2-1.01,0-2.13.5-3.25,1.65v5.83c1.02.93,2.18,1.26,2.97,1.26,1.96,0,3.44-1.63,3.44-4.54Z" style="fill: #19a3ff; stroke-width: 0px;"/>
      <path d="m421.11,443.97c0-4.01,3.02-6.44,6.32-6.44,3.62,0,5.67,2.38,5.67,5.82,0,.53-.06,1.04-.11,1.36h-10.14v-1.84h8.58l-.54.61c0-2.67-1.29-4.01-3.38-4.01s-3.93,1.59-3.93,4.5,1.9,4.52,4.55,4.52c1.38,0,2.49-.42,3.6-1.08l.88,1.59c-1.27.84-2.91,1.46-4.8,1.46-3.74,0-6.69-2.38-6.69-6.49Z" style="fill: #19a3ff; stroke-width: 0px;"/>
      <path d="m438.08,437.83h2.08l.22,2.86h.06c1.27-2.01,3.17-3.16,5.37-3.16.96,0,1.67.14,2.42.5l-.55,2.13c-.84-.27-1.31-.39-2.26-.39-1.77,0-3.47.9-4.83,3.39v6.99h-2.51v-12.32Z" style="fill: #19a3ff; stroke-width: 0px;"/>
      <path d="m471.18,450.57c0-1.83.25-3.06.25-4.72,0-.96-.7-1.91-3.61-1.94v-1.54c2.91-.03,3.61-.98,3.61-1.94,0-1.58-.25-2.98-.25-4.72,0-2.63,1.5-3.42,4.68-3.42h1.66v1.39h-1.24c-2.45,0-2.98.58-2.98,2.16,0,1.41.14,2.9.14,4.45,0,1.71-.6,2.5-2.36,2.8v.1c1.76.3,2.36,1.09,2.36,2.8s-.14,2.96-.14,4.45c0,1.58.53,2.16,2.98,2.16h1.24v1.39h-1.66c-3.18,0-4.68-.79-4.68-3.42Z" style="fill: #fff; stroke-width: 0px;"/>
      <path d="m270.2,473.69h10.6v1.7h-10.6v-1.7Zm.5-5.17h10.6v1.7h-10.6v-1.7Zm2.88-4.5h1.54l-1.99,16.4h-1.57l2.02-16.4Zm4.71,0h1.54l-1.99,16.4h-1.57l2.02-16.4Z" style="fill: #19a3ff; stroke-width: 0px;"/>
      <path d="m288.76,462.57h7.11v1.39h-5.15v18.92h5.15v1.39h-7.11v-21.69Z" style="fill: #19a3ff; stroke-width: 0px;"/>
      <path d="m306.09,470.11h-5.51v-2h8.02v12.32h-2.51v-10.32Zm-.82-6.2c0-1.06.79-1.79,1.87-1.79s1.87.73,1.87,1.79-.79,1.78-1.87,1.78-1.87-.7-1.87-1.78Z" style="fill: #19a3ff; stroke-width: 0px;"/>
      <path d="m315.73,468.1h2.05l.2,1.96h.1c1.23-1.27,2.64-2.27,4.54-2.27,2.88,0,4.2,1.77,4.2,4.98v7.65h-2.51v-7.32c0-2.15-.72-3.15-2.55-3.15-1.34,0-2.24.66-3.52,1.96v8.5h-2.51v-12.32Z" style="fill: #19a3ff; stroke-width: 0px;"/>
      <path d="m331.12,462.54h2.51v11.63h.1l6.07-6.07h2.82l-9,9.04v3.28h-2.51v-17.88Zm4.84,11.59l1.49-1.61,5.77,7.9h-2.76l-4.49-6.29Z" style="fill: #19a3ff; stroke-width: 0px;"/>
      <path d="m348.86,473.41c0-4.84,2.12-8.7,5.57-11.47l1.39,1.21c-3.28,2.87-4.77,6.09-4.77,10.26s1.49,7.39,4.77,10.26l-1.39,1.21c-3.45-2.77-5.57-6.63-5.57-11.47Z" style="fill: #19a3ff; stroke-width: 0px;"/>
      <path d="m360.61,478.81l1.12-1.63c1.45,1,3.12,1.62,5.25,1.62,1.89,0,2.79-.75,2.79-1.68,0-.87-.51-1.42-3.62-2.06-3.25-.67-4.78-1.8-4.78-3.67,0-2.06,1.85-3.59,5.26-3.59,1.96,0,3.83.77,5.07,1.6l-1.18,1.57c-1.17-.78-2.59-1.26-4.11-1.26-1.83,0-2.54.72-2.54,1.57,0,.97.98,1.34,3.4,1.86,4.01.88,5.02,1.91,5.02,3.84,0,2.06-2,3.76-5.64,3.76-2.35,0-4.54-.88-6.05-1.92Z" style="fill: #19a3ff; stroke-width: 0px;"/>
      <path d="m379.06,475.55v-5.44h-3.4v-1.87l3.5-.13.33-3.91h2.08v3.91h5.82v2h-5.82v5.45c0,2.12.75,3.15,2.98,3.15,1.08,0,1.96-.22,2.81-.53l.51,1.83c-1.11.38-2.33.72-3.9.72-3.69,0-4.91-2.09-4.91-5.18Z" style="fill: #19a3ff; stroke-width: 0px;"/>
      <path d="m390.64,474.28c0-4.13,2.89-6.49,6.14-6.49s6.14,2.36,6.14,6.49-2.89,6.44-6.14,6.44-6.14-2.36-6.14-6.44Zm9.7,0c0-2.66-1.38-4.42-3.57-4.42s-3.57,1.76-3.57,4.42,1.38,4.38,3.57,4.38,3.57-1.74,3.57-4.38Z" style="fill: #19a3ff; stroke-width: 0px;"/>
      <path d="m407.81,468.1h2.08l.22,2.86h.06c1.27-2.01,3.17-3.16,5.37-3.16.96,0,1.67.14,2.42.5l-.55,2.13c-.84-.27-1.31-.39-2.26-.39-1.77,0-3.47.9-4.83,3.39v6.99h-2.51v-12.32Z" style="fill: #19a3ff; stroke-width: 0px;"/>
      <path d="m421.38,477.17c0-2.76,2.51-4.12,8.73-4.59-.09-1.52-.91-2.75-3.1-2.75-1.49,0-2.96.68-4.17,1.39l-.96-1.68c1.38-.85,3.43-1.75,5.57-1.75,3.4,0,5.16,1.95,5.16,5.2v7.42h-2.08l-.2-1.6h-.08c-1.32,1.03-3.03,1.9-4.72,1.9-2.36,0-4.17-1.39-4.17-3.56Zm8.73-.1v-2.89c-4.84.35-6.28,1.32-6.28,2.79,0,1.24,1.11,1.75,2.43,1.75s2.57-.62,3.85-1.66Z" style="fill: #19a3ff; stroke-width: 0px;"/>
      <path d="m436.3,482.64c0-.99.7-1.94,2-2.67v-.1c-.67-.37-1.26-1.01-1.26-2.05,0-.8.55-1.68,1.47-2.31v-.1c-.86-.63-1.55-1.72-1.55-3.19,0-2.76,2.3-4.43,4.96-4.43.72,0,1.33.1,1.88.3h5.07v1.96h-3.01c.48.53.91,1.36.91,2.25,0,2.69-2.14,4.21-4.85,4.21-.6,0-1.31-.13-1.98-.4-.55.35-.85.75-.85,1.29,0,.88.86,1.29,2.44,1.29h2.64c3.19,0,4.77.84,4.77,2.95,0,2.38-2.71,4.34-6.98,4.34-3.5,0-5.65-1.17-5.65-3.35Zm10.21-.58c0-1.07-.89-1.35-2.64-1.35h-2.18c-.76,0-1.37-.05-1.88-.19-1.02.57-1.39,1.19-1.39,1.83,0,1.2,1.34,1.92,3.79,1.92,2.63,0,4.3-1.05,4.3-2.21Zm-2-9.83c0-1.61-1.16-2.66-2.58-2.66s-2.58,1.05-2.58,2.66,1.17,2.69,2.58,2.69,2.58-1.03,2.58-2.69Z" style="fill: #19a3ff; stroke-width: 0px;"/>
      <path d="m451.39,474.24c0-4.01,3.02-6.44,6.32-6.44,3.62,0,5.67,2.38,5.67,5.82,0,.53-.06,1.04-.11,1.37h-10.14v-1.84h8.57l-.54.61c0-2.67-1.29-4.01-3.38-4.01s-3.93,1.59-3.93,4.5,1.9,4.52,4.55,4.52c1.38,0,2.49-.42,3.6-1.08l.88,1.59c-1.27.83-2.91,1.46-4.8,1.46-3.74,0-6.69-2.38-6.69-6.49Z" style="fill: #19a3ff; stroke-width: 0px;"/>
      <path d="m468,483.67c3.28-2.87,4.77-6.09,4.77-10.26s-1.49-7.39-4.77-10.26l1.39-1.21c3.45,2.77,5.57,6.63,5.57,11.47s-2.12,8.7-5.57,11.47l-1.39-1.21Z" style="fill: #19a3ff; stroke-width: 0px;"/>
      <path d="m482.54,482.87h5.15v-18.92h-5.15v-1.39h7.11v21.69h-7.11v-1.39Z" style="fill: #19a3ff; stroke-width: 0px;"/>
      <path d="m270.32,498.38h2.05l.2,1.49h.08c1.1-1.04,2.66-1.79,4.11-1.79,3.26,0,5.06,2.46,5.06,6.28,0,4.19-2.62,6.65-5.54,6.65-1.13,0-2.45-.56-3.51-1.53h-.06l.12,2.25v4.01h-2.51v-17.36Zm8.92,5.99c0-2.58-.94-4.2-3.16-4.2-1.01,0-2.13.5-3.25,1.65v5.83c1.02.93,2.18,1.26,2.97,1.26,1.96,0,3.44-1.63,3.44-4.54Z" style="fill: #ffc259; stroke-width: 0px;"/>
      <path d="m285.09,506.02v-7.65h2.51v7.32c0,2.13.71,3.15,2.57,3.15,1.29,0,2.22-.57,3.45-2.03v-8.43h2.51v12.32h-2.07l-.2-2.05h-.1c-1.2,1.4-2.61,2.36-4.48,2.36-2.89,0-4.19-1.77-4.19-4.98Z" style="fill: #ffc259; stroke-width: 0px;"/>
      <path d="m302.89,509.34h-.08l-.23,1.36h-1.99v-17.88h2.51v4.74l-.11,2.27h.08c1.06-1.07,2.55-1.75,3.93-1.75,3.26,0,5.08,2.46,5.08,6.26,0,4.22-2.62,6.67-5.5,6.67-1.2,0-2.6-.62-3.71-1.66Zm6.63-4.97c0-2.58-.94-4.2-3.16-4.2-1.01,0-2.13.5-3.25,1.65v5.83c1.02.93,2.18,1.26,3.01,1.26,1.92,0,3.4-1.63,3.4-4.54Z" style="fill: #ffc259; stroke-width: 0px;"/>
      <path d="m330.33,509.09l1.12-1.63c1.45.99,3.12,1.62,5.25,1.62,1.89,0,2.79-.75,2.79-1.68,0-.87-.51-1.42-3.62-2.06-3.25-.67-4.78-1.8-4.78-3.67,0-2.06,1.85-3.59,5.26-3.59,1.96,0,3.83.77,5.07,1.6l-1.18,1.57c-1.17-.78-2.59-1.26-4.11-1.26-1.83,0-2.54.72-2.54,1.57,0,.96.98,1.34,3.4,1.86,4.01.88,5.02,1.91,5.02,3.84,0,2.06-2,3.76-5.64,3.76-2.35,0-4.54-.88-6.05-1.92Z" style="fill: #ffc259; stroke-width: 0px;"/>
      <path d="m348.79,505.83v-5.44h-3.4v-1.88l3.5-.13.33-3.91h2.08v3.91h5.82v2.01h-5.82v5.45c0,2.12.75,3.15,2.98,3.15,1.08,0,1.96-.22,2.81-.53l.51,1.84c-1.11.38-2.33.72-3.9.72-3.69,0-4.91-2.08-4.91-5.18Z" style="fill: #ffc259; stroke-width: 0px;"/>
      <path d="m362.4,498.38h2.08l.22,2.86h.06c1.27-2.01,3.17-3.16,5.37-3.16.96,0,1.67.14,2.42.5l-.55,2.13c-.84-.27-1.31-.39-2.26-.39-1.77,0-3.47.9-4.83,3.39v6.99h-2.51v-12.32Z" style="fill: #ffc259; stroke-width: 0px;"/>
      <path d="m375.91,506.02v-7.65h2.51v7.32c0,2.13.71,3.15,2.57,3.15,1.29,0,2.22-.57,3.45-2.03v-8.43h2.51v12.32h-2.07l-.2-2.05h-.1c-1.2,1.4-2.61,2.36-4.48,2.36-2.89,0-4.19-1.77-4.19-4.98Z" style="fill: #ffc259; stroke-width: 0px;"/>
      <path d="m391.14,504.56c0-4.12,3.19-6.49,6.94-6.49,1.99,0,3.5.78,4.52,1.77l-1.21,1.59c-1-.81-2.01-1.29-3.2-1.29-2.65,0-4.47,1.76-4.47,4.42s1.8,4.38,4.41,4.38c1.46,0,2.68-.65,3.66-1.45l1.08,1.62c-1.4,1.22-3.15,1.9-4.94,1.9-3.86,0-6.78-2.36-6.78-6.44Z" style="fill: #ffc259; stroke-width: 0px;"/>
      <path d="m409.33,505.83v-5.44h-3.4v-1.88l3.5-.13.33-3.91h2.08v3.91h5.82v2.01h-5.82v5.45c0,2.12.75,3.15,2.98,3.15,1.08,0,1.96-.22,2.81-.53l.51,1.84c-1.11.38-2.33.72-3.9.72-3.69,0-4.91-2.08-4.91-5.18Z" style="fill: #ffc259; stroke-width: 0px;"/>
      <path d="m437.79,494.18h10.36v2.13h-7.83v5.12h6.64v2.13h-6.64v7.13h-2.53v-16.52Z" style="fill: #19a3ff; stroke-width: 0px;"/>
      <path d="m455.7,506.39v-11.56h-4.24v-2h6.75v13.72c0,1.71.97,2.4,2.32,2.4.67,0,1.39-.16,2.21-.52l.6,1.87c-1.18.46-2,.72-3.4.72-2.76,0-4.25-1.65-4.25-4.62Z" style="fill: #19a3ff; stroke-width: 0px;"/>
      <path d="m472.6,500.38h-5.51v-2.01h8.02v12.32h-2.51v-10.32Zm-.82-6.2c0-1.06.79-1.79,1.87-1.79s1.87.73,1.87,1.79-.79,1.78-1.87,1.78-1.87-.7-1.87-1.78Z" style="fill: #19a3ff; stroke-width: 0px;"/>
      <path d="m482.24,498.38h2.05l.2,1.49h.08c1.1-1.04,2.66-1.79,4.11-1.79,3.26,0,5.06,2.46,5.06,6.28,0,4.19-2.62,6.65-5.54,6.65-1.13,0-2.45-.56-3.51-1.53h-.06l.12,2.25v4.01h-2.51v-17.36Zm8.92,5.99c0-2.58-.94-4.2-3.16-4.2-1.01,0-2.13.5-3.25,1.65v5.83c1.02.93,2.18,1.26,2.97,1.26,1.96,0,3.44-1.63,3.44-4.54Z" style="fill: #19a3ff; stroke-width: 0px;"/>
      <path d="m497.38,498.38h2.05l.2,1.49h.08c1.1-1.04,2.66-1.79,4.11-1.79,3.26,0,5.06,2.46,5.06,6.28,0,4.19-2.62,6.65-5.54,6.65-1.13,0-2.45-.56-3.51-1.53h-.06l.12,2.25v4.01h-2.51v-17.36Zm8.92,5.99c0-2.58-.94-4.2-3.16-4.2-1.01,0-2.13.5-3.25,1.65v5.83c1.02.93,2.18,1.26,2.97,1.26,1.96,0,3.44-1.63,3.44-4.54Z" style="fill: #19a3ff; stroke-width: 0px;"/>
      <path d="m511.94,504.52c0-4.01,3.02-6.44,6.32-6.44,3.62,0,5.67,2.38,5.67,5.82,0,.53-.06,1.04-.11,1.36h-10.14v-1.84h8.58l-.54.61c0-2.67-1.29-4.01-3.38-4.01s-3.93,1.59-3.93,4.5,1.9,4.52,4.55,4.52c1.38,0,2.49-.42,3.6-1.08l.88,1.59c-1.27.84-2.91,1.46-4.8,1.46-3.74,0-6.69-2.38-6.69-6.49Z" style="fill: #19a3ff; stroke-width: 0px;"/>
      <path d="m528.91,498.38h2.08l.22,2.86h.06c1.27-2.01,3.17-3.16,5.37-3.16.96,0,1.67.14,2.42.5l-.55,2.13c-.84-.27-1.31-.39-2.26-.39-1.77,0-3.47.9-4.83,3.39v6.99h-2.51v-12.32Z" style="fill: #19a3ff; stroke-width: 0px;"/>
      <path d="m562,511.12c0-1.83.25-3.06.25-4.72,0-.96-.7-1.91-3.61-1.94v-1.54c2.91-.03,3.61-.98,3.61-1.94,0-1.58-.25-2.98-.25-4.72,0-2.63,1.5-3.42,4.68-3.42h1.66v1.39h-1.24c-2.45,0-2.98.58-2.98,2.16,0,1.41.14,2.9.14,4.45,0,1.71-.6,2.5-2.36,2.8v.1c1.76.3,2.36,1.09,2.36,2.8s-.14,2.96-.14,4.45c0,1.58.53,2.16,2.98,2.16h1.24v1.39h-1.66c-3.18,0-4.68-.79-4.68-3.42Z" style="fill: #fff; stroke-width: 0px;"/>
      <path d="m314.66,528.65h2.55l2.6,6.67c.46,1.24.89,2.47,1.3,3.69h.1c.42-1.22.8-2.45,1.28-3.69l2.6-6.67h2.41l-4.96,12.32h-2.84l-5.05-12.32Z" style="fill: #19a3ff; stroke-width: 0px;"/>
      <path d="m330.56,537.72c0-2.76,2.51-4.12,8.73-4.59-.09-1.52-.91-2.75-3.1-2.75-1.49,0-2.96.68-4.17,1.39l-.96-1.68c1.38-.85,3.43-1.75,5.57-1.75,3.4,0,5.16,1.95,5.16,5.21v7.42h-2.08l-.2-1.6h-.08c-1.32,1.03-3.03,1.9-4.72,1.9-2.36,0-4.17-1.38-4.17-3.56Zm8.73-.1v-2.89c-4.84.35-6.28,1.32-6.28,2.79,0,1.24,1.11,1.75,2.43,1.75s2.57-.62,3.85-1.66Z" style="fill: #19a3ff; stroke-width: 0px;"/>
      <path d="m349.74,536.66v-11.56h-4.24v-2h6.75v13.72c0,1.71.97,2.4,2.32,2.4.67,0,1.39-.16,2.21-.52l.6,1.87c-1.18.46-2,.72-3.4.72-2.76,0-4.25-1.65-4.25-4.62Z" style="fill: #19a3ff; stroke-width: 0px;"/>
      <path d="m360.78,536.3v-7.65h2.51v7.32c0,2.13.71,3.15,2.57,3.15,1.29,0,2.22-.57,3.45-2.03v-8.43h2.51v12.32h-2.07l-.2-2.05h-.1c-1.2,1.4-2.61,2.36-4.48,2.36-2.89,0-4.19-1.77-4.19-4.98Z" style="fill: #19a3ff; stroke-width: 0px;"/>
      <path d="m375.7,534.79c0-4.01,3.02-6.44,6.32-6.44,3.62,0,5.67,2.38,5.67,5.82,0,.53-.06,1.04-.11,1.36h-10.14v-1.84h8.58l-.54.61c0-2.67-1.29-4.01-3.38-4.01s-3.93,1.59-3.93,4.5,1.9,4.52,4.55,4.52c1.38,0,2.49-.42,3.6-1.08l.88,1.59c-1.27.84-2.91,1.46-4.8,1.46-3.74,0-6.69-2.38-6.69-6.49Z" style="fill: #19a3ff; stroke-width: 0px;"/>
      <path d="m394.5,530.12c0-1.36.98-2.36,2.27-2.36s2.27,1,2.27,2.36-.98,2.36-2.27,2.36-2.27-.97-2.27-2.36Zm0,8.8c0-1.36.98-2.36,2.27-2.36s2.27,1,2.27,2.36-.98,2.36-2.27,2.36-2.27-.97-2.27-2.36Z" style="fill: #fff; stroke-width: 0px;"/>
      <path d="m423.99,539.61h-.08l-.23,1.36h-1.99v-17.88h2.51v4.74l-.11,2.27h.08c1.06-1.07,2.55-1.75,3.93-1.75,3.26,0,5.08,2.46,5.08,6.26,0,4.22-2.62,6.67-5.5,6.67-1.2,0-2.6-.62-3.71-1.66Zm6.63-4.97c0-2.58-.94-4.2-3.16-4.2-1.01,0-2.13.5-3.25,1.65v5.83c1.02.93,2.18,1.26,3.01,1.26,1.92,0,3.4-1.63,3.4-4.54Z" style="fill: #f55; stroke-width: 0px;"/>
      <path d="m436.05,534.83c0-4.12,2.89-6.49,6.14-6.49s6.14,2.36,6.14,6.49-2.89,6.44-6.14,6.44-6.14-2.36-6.14-6.44Zm9.7,0c0-2.66-1.38-4.42-3.57-4.42s-3.57,1.76-3.57,4.42,1.38,4.38,3.57,4.38,3.57-1.74,3.57-4.38Z" style="fill: #f55; stroke-width: 0px;"/>
      <path d="m451.19,534.83c0-4.12,2.89-6.49,6.14-6.49s6.14,2.36,6.14,6.49-2.89,6.44-6.14,6.44-6.14-2.36-6.14-6.44Zm9.7,0c0-2.66-1.38-4.42-3.57-4.42s-3.57,1.76-3.57,4.42,1.38,4.38,3.57,4.38,3.57-1.74,3.57-4.38Z" style="fill: #f55; stroke-width: 0px;"/>
      <path d="m470.84,536.66v-11.56h-4.24v-2h6.75v13.72c0,1.71.97,2.4,2.32,2.4.67,0,1.39-.16,2.21-.52l.6,1.87c-1.18.46-2,.72-3.4.72-2.76,0-4.25-1.65-4.25-4.62Z" style="fill: #f55; stroke-width: 0px;"/>
      <path d="m484.89,544.84c2.17-.92,3.23-2.25,3.2-4.22l-.37-2.5,1.44,2.13c-.42.44-.95.58-1.48.58-1.17,0-2.17-.71-2.17-2.07s1.02-2.09,2.23-2.09c1.63,0,2.49,1.33,2.49,3.51,0,3.02-1.71,5.15-4.67,6.19l-.69-1.53Z" style="fill: #fff; stroke-width: 0px;"/>
      <path d="m270.65,573.7h1.22c2.45,0,3-.58,3-2.16,0-1.49-.14-2.78-.14-4.45s.58-2.5,2.34-2.8v-.1c-1.76-.3-2.34-1.09-2.34-2.8,0-1.54.14-3.04.14-4.45,0-1.58-.55-2.16-3-2.16h-1.22v-1.39h1.64c3.2,0,4.66.79,4.66,3.42,0,1.75-.24,3.14-.24,4.72,0,.96.7,1.91,3.61,1.94v1.54c-2.92.03-3.61.98-3.61,1.94,0,1.67.24,2.9.24,4.72,0,2.63-1.46,3.42-4.66,3.42h-1.64v-1.39Z" style="fill: #fff; stroke-width: 0px;"/>
      <path d="m275.82,621.48h-5.51v-2h8.02v12.32h-2.51v-10.32Zm-.82-6.2c0-1.06.79-1.79,1.87-1.79s1.87.73,1.87,1.79-.79,1.78-1.87,1.78-1.87-.7-1.87-1.78Z" style="fill: #ffc259; stroke-width: 0px;"/>
      <path d="m284.56,619.48h1.96l.2,1.59h.06c.59-1.1,1.35-1.9,2.78-1.9,1.18,0,1.94.71,2.28,2.1.64-1.26,1.43-2.1,2.85-2.1,1.73,0,2.74,1.39,2.74,3.85v8.78h-2.44v-8.6c0-1.25-.35-1.88-1.15-1.88s-1.18.57-1.75,1.72v8.77h-2.17v-8.6c0-1.25-.32-1.88-1.12-1.88-.75,0-1.25.57-1.78,1.72v8.77h-2.44v-12.32Z" style="fill: #ffc259; stroke-width: 0px;"/>
      <path d="m300.59,619.48h2.05l.2,1.49h.08c1.1-1.04,2.66-1.79,4.11-1.79,3.26,0,5.06,2.46,5.06,6.28,0,4.2-2.62,6.65-5.54,6.65-1.13,0-2.45-.56-3.51-1.53h-.06l.12,2.25v4.01h-2.51v-17.36Zm8.92,5.99c0-2.58-.94-4.2-3.16-4.2-1.01,0-2.13.5-3.25,1.65v5.83c1.02.93,2.18,1.26,2.97,1.26,1.96,0,3.44-1.63,3.44-4.54Z" style="fill: #ffc259; stroke-width: 0px;"/>
      <path d="m319.46,627.49v-11.56h-4.24v-2.01h6.75v13.72c0,1.71.97,2.4,2.32,2.4.67,0,1.39-.16,2.21-.52l.6,1.87c-1.18.46-2,.72-3.4.72-2.76,0-4.25-1.65-4.25-4.62Z" style="fill: #ffc259; stroke-width: 0px;"/>
      <path d="m346.97,615.28h10.36v2.13h-7.83v5.12h6.64v2.13h-6.64v7.13h-2.53v-16.52Z" style="fill: #19a3ff; stroke-width: 0px;"/>
      <path d="m364.88,627.49v-11.56h-4.24v-2.01h6.75v13.72c0,1.71.97,2.4,2.32,2.4.67,0,1.39-.16,2.21-.52l.6,1.87c-1.18.46-2,.72-3.4.72-2.76,0-4.25-1.65-4.25-4.62Z" style="fill: #19a3ff; stroke-width: 0px;"/>
      <path d="m381.78,621.48h-5.51v-2h8.02v12.32h-2.51v-10.32Zm-.82-6.2c0-1.06.79-1.79,1.87-1.79s1.87.73,1.87,1.79-.79,1.78-1.87,1.78-1.87-.7-1.87-1.78Z" style="fill: #19a3ff; stroke-width: 0px;"/>
      <path d="m391.42,619.48h2.05l.2,1.49h.08c1.1-1.04,2.66-1.79,4.11-1.79,3.26,0,5.06,2.46,5.06,6.28,0,4.2-2.62,6.65-5.54,6.65-1.13,0-2.45-.56-3.51-1.53h-.06l.12,2.25v4.01h-2.51v-17.36Zm8.92,5.99c0-2.58-.94-4.2-3.16-4.2-1.01,0-2.13.5-3.25,1.65v5.83c1.02.93,2.18,1.26,2.97,1.26,1.96,0,3.44-1.63,3.44-4.54Z" style="fill: #19a3ff; stroke-width: 0px;"/>
      <path d="m406.55,619.48h2.05l.2,1.49h.08c1.1-1.04,2.66-1.79,4.11-1.79,3.26,0,5.06,2.46,5.06,6.28,0,4.2-2.62,6.65-5.54,6.65-1.13,0-2.45-.56-3.51-1.53h-.06l.12,2.25v4.01h-2.51v-17.36Zm8.92,5.99c0-2.58-.94-4.2-3.16-4.2-1.01,0-2.13.5-3.25,1.65v5.83c1.02.93,2.18,1.26,2.97,1.26,1.96,0,3.44-1.63,3.44-4.54Z" style="fill: #19a3ff; stroke-width: 0px;"/>
      <path d="m421.11,625.62c0-4.01,3.02-6.44,6.32-6.44,3.62,0,5.67,2.38,5.67,5.82,0,.53-.06,1.04-.11,1.37h-10.14v-1.84h8.58l-.54.61c0-2.67-1.29-4.01-3.38-4.01s-3.93,1.59-3.93,4.5,1.9,4.52,4.55,4.52c1.38,0,2.49-.42,3.6-1.08l.88,1.59c-1.27.83-2.91,1.46-4.8,1.46-3.74,0-6.69-2.38-6.69-6.49Z" style="fill: #19a3ff; stroke-width: 0px;"/>
      <path d="m438.08,619.48h2.08l.22,2.86h.06c1.27-2.01,3.17-3.16,5.37-3.16.96,0,1.67.14,2.42.5l-.55,2.13c-.84-.27-1.31-.39-2.26-.39-1.77,0-3.47.9-4.83,3.39v6.99h-2.51v-12.32Z" style="fill: #19a3ff; stroke-width: 0px;"/>
      <path d="m471.18,632.22c0-1.83.25-3.06.25-4.72,0-.96-.7-1.91-3.61-1.94v-1.54c2.91-.03,3.61-.98,3.61-1.94,0-1.58-.25-2.98-.25-4.72,0-2.63,1.5-3.42,4.68-3.42h1.66v1.39h-1.24c-2.45,0-2.98.58-2.98,2.16,0,1.41.14,2.9.14,4.45,0,1.71-.6,2.5-2.36,2.8v.1c1.76.3,2.36,1.09,2.36,2.8s-.14,2.96-.14,4.45c0,1.58.53,2.16,2.98,2.16h1.24v1.39h-1.66c-3.18,0-4.68-.79-4.68-3.42Z" style="fill: #fff; stroke-width: 0px;"/>
      <path d="m315.61,655.34h10.6v1.7h-10.6v-1.7Zm.5-5.17h10.6v1.7h-10.6v-1.7Zm2.88-4.5h1.54l-1.99,16.39h-1.57l2.02-16.39Zm4.71,0h1.54l-1.99,16.39h-1.57l2.02-16.39Z" style="fill: #19a3ff; stroke-width: 0px;"/>
      <path d="m334.17,644.22h7.11v1.39h-5.15v18.92h5.15v1.39h-7.11v-21.69Z" style="fill: #19a3ff; stroke-width: 0px;"/>
      <path d="m351.5,651.76h-5.51v-2.01h8.02v12.32h-2.51v-10.32Zm-.82-6.2c0-1.06.79-1.79,1.87-1.79s1.87.73,1.87,1.79-.79,1.78-1.87,1.78-1.87-.7-1.87-1.78Z" style="fill: #19a3ff; stroke-width: 0px;"/>
      <path d="m361.14,649.75h2.05l.2,1.96h.1c1.23-1.27,2.64-2.27,4.54-2.27,2.88,0,4.2,1.77,4.2,4.98v7.65h-2.51v-7.32c0-2.15-.72-3.15-2.55-3.15-1.34,0-2.24.66-3.52,1.96v8.5h-2.51v-12.32Z" style="fill: #19a3ff; stroke-width: 0px;"/>
      <path d="m376.53,644.19h2.51v11.63h.1l6.07-6.07h2.82l-9,9.04v3.28h-2.51v-17.88Zm4.84,11.59l1.49-1.61,5.77,7.9h-2.76l-4.49-6.29Z" style="fill: #19a3ff; stroke-width: 0px;"/>
      <path d="m394.28,655.06c0-4.83,2.12-8.7,5.57-11.47l1.39,1.21c-3.28,2.87-4.77,6.09-4.77,10.26s1.49,7.39,4.77,10.26l-1.39,1.21c-3.45-2.77-5.57-6.63-5.57-11.47Z" style="fill: #19a3ff; stroke-width: 0px;"/>
      <path d="m406.28,655.93c0-4.12,3.19-6.49,6.94-6.49,1.99,0,3.5.78,4.52,1.77l-1.21,1.59c-1-.81-2.01-1.29-3.2-1.29-2.65,0-4.47,1.76-4.47,4.42s1.8,4.38,4.41,4.38c1.46,0,2.68-.65,3.66-1.45l1.08,1.62c-1.4,1.22-3.15,1.9-4.94,1.9-3.86,0-6.78-2.36-6.78-6.44Z" style="fill: #19a3ff; stroke-width: 0px;"/>
      <path d="m420.91,655.93c0-4.12,2.89-6.49,6.14-6.49s6.14,2.36,6.14,6.49-2.89,6.44-6.14,6.44-6.14-2.36-6.14-6.44Zm9.7,0c0-2.66-1.38-4.42-3.57-4.42s-3.57,1.76-3.57,4.42,1.38,4.38,3.57,4.38,3.57-1.74,3.57-4.38Z" style="fill: #19a3ff; stroke-width: 0px;"/>
      <path d="m436.83,649.75h2.05l.2,1.96h.1c1.23-1.27,2.64-2.27,4.54-2.27,2.88,0,4.2,1.77,4.2,4.98v7.65h-2.51v-7.32c0-2.15-.72-3.15-2.55-3.15-1.34,0-2.24.66-3.52,1.96v8.5h-2.51v-12.32Z" style="fill: #19a3ff; stroke-width: 0px;"/>
      <path d="m451.43,660.46l1.12-1.63c1.45.99,3.12,1.62,5.25,1.62,1.89,0,2.79-.75,2.79-1.68,0-.87-.51-1.42-3.62-2.06-3.25-.67-4.78-1.8-4.78-3.67,0-2.06,1.85-3.59,5.26-3.59,1.96,0,3.83.77,5.07,1.6l-1.18,1.57c-1.17-.78-2.59-1.26-4.11-1.26-1.83,0-2.54.72-2.54,1.57,0,.96.98,1.34,3.4,1.86,4.01.88,5.02,1.91,5.02,3.84,0,2.06-2,3.76-5.64,3.76-2.35,0-4.54-.88-6.05-1.92Z" style="fill: #19a3ff; stroke-width: 0px;"/>
      <path d="m469.88,657.2v-5.44h-3.4v-1.88l3.5-.13.33-3.91h2.08v3.91h5.82v2.01h-5.82v5.45c0,2.12.75,3.15,2.98,3.15,1.08,0,1.96-.22,2.81-.53l.51,1.84c-1.11.38-2.33.72-3.9.72-3.69,0-4.91-2.08-4.91-5.18Z" style="fill: #19a3ff; stroke-width: 0px;"/>
      <path d="m483.5,649.75h2.08l.22,2.86h.06c1.27-2.01,3.17-3.16,5.37-3.16.96,0,1.67.14,2.42.5l-.55,2.13c-.84-.27-1.31-.39-2.26-.39-1.77,0-3.47.9-4.83,3.39v6.99h-2.51v-12.32Z" style="fill: #19a3ff; stroke-width: 0px;"/>
      <path d="m497.01,657.4v-7.65h2.51v7.32c0,2.13.71,3.15,2.57,3.15,1.29,0,2.22-.57,3.45-2.03v-8.43h2.51v12.32h-2.07l-.2-2.05h-.1c-1.2,1.4-2.61,2.36-4.48,2.36-2.89,0-4.19-1.77-4.19-4.98Z" style="fill: #19a3ff; stroke-width: 0px;"/>
      <path d="m512.24,655.93c0-4.12,3.19-6.49,6.94-6.49,1.99,0,3.5.78,4.52,1.77l-1.21,1.59c-1-.81-2.01-1.29-3.2-1.29-2.65,0-4.47,1.76-4.47,4.42s1.8,4.38,4.41,4.38c1.46,0,2.68-.65,3.66-1.45l1.08,1.62c-1.4,1.22-3.15,1.9-4.94,1.9-3.86,0-6.78-2.36-6.78-6.44Z" style="fill: #19a3ff; stroke-width: 0px;"/>
      <path d="m530.43,657.2v-5.44h-3.4v-1.88l3.5-.13.33-3.91h2.08v3.91h5.82v2.01h-5.82v5.45c0,2.12.75,3.15,2.98,3.15,1.08,0,1.96-.22,2.81-.53l.51,1.84c-1.11.38-2.33.72-3.9.72-3.69,0-4.91-2.08-4.91-5.18Z" style="fill: #19a3ff; stroke-width: 0px;"/>
      <path d="m542.01,655.93c0-4.12,2.89-6.49,6.14-6.49s6.14,2.36,6.14,6.49-2.89,6.44-6.14,6.44-6.14-2.36-6.14-6.44Zm9.7,0c0-2.66-1.38-4.42-3.57-4.42s-3.57,1.76-3.57,4.42,1.38,4.38,3.57,4.38,3.57-1.74,3.57-4.38Z" style="fill: #19a3ff; stroke-width: 0px;"/>
      <path d="m559.18,649.75h2.08l.22,2.86h.06c1.27-2.01,3.17-3.16,5.37-3.16.96,0,1.67.14,2.42.5l-.55,2.13c-.84-.27-1.31-.39-2.26-.39-1.77,0-3.47.9-4.83,3.39v6.99h-2.51v-12.32Z" style="fill: #19a3ff; stroke-width: 0px;"/>
      <path d="m573.96,665.32c3.28-2.87,4.77-6.09,4.77-10.26s-1.49-7.39-4.77-10.26l1.39-1.21c3.45,2.77,5.57,6.63,5.57,11.47s-2.12,8.7-5.57,11.47l-1.39-1.21Z" style="fill: #19a3ff; stroke-width: 0px;"/>
      <path d="m588.5,664.52h5.15v-18.92h-5.15v-1.39h7.11v21.69h-7.11v-1.39Z" style="fill: #19a3ff; stroke-width: 0px;"/>
      <path d="m315.73,680.03h2.05l.2,1.49h.08c1.1-1.04,2.66-1.79,4.11-1.79,3.26,0,5.06,2.46,5.06,6.28,0,4.2-2.62,6.65-5.54,6.65-1.13,0-2.45-.56-3.51-1.53h-.06l.12,2.25v4.01h-2.51v-17.36Zm8.92,5.99c0-2.58-.94-4.2-3.16-4.2-1.01,0-2.13.5-3.25,1.65v5.83c1.02.93,2.18,1.26,2.97,1.26,1.96,0,3.44-1.63,3.44-4.54Z" style="fill: #ffc259; stroke-width: 0px;"/>
      <path d="m330.5,687.67v-7.65h2.51v7.32c0,2.13.71,3.15,2.57,3.15,1.29,0,2.22-.57,3.45-2.03v-8.43h2.51v12.32h-2.07l-.2-2.05h-.1c-1.2,1.4-2.61,2.36-4.48,2.36-2.89,0-4.19-1.77-4.19-4.98Z" style="fill: #ffc259; stroke-width: 0px;"/>
      <path d="m348.3,690.99h-.08l-.23,1.36h-1.99v-17.88h2.51v4.74l-.11,2.27h.08c1.06-1.07,2.55-1.75,3.93-1.75,3.26,0,5.08,2.46,5.08,6.26,0,4.22-2.62,6.67-5.5,6.67-1.2,0-2.6-.62-3.71-1.67Zm6.63-4.97c0-2.58-.94-4.2-3.16-4.2-1.01,0-2.13.5-3.25,1.65v5.83c1.02.93,2.18,1.26,3.01,1.26,1.92,0,3.4-1.63,3.4-4.54Z" style="fill: #ffc259; stroke-width: 0px;"/>
      <path d="m376.53,680.16l3.52-.13h7.33v2h-10.86v-1.87Zm3.46-.98c0-2.95,1.59-5.01,5.11-5.01,1.27,0,2.47.25,3.6.7l-.54,1.87c-.95-.4-1.76-.56-2.79-.56-2.04,0-2.89,1.09-2.89,2.94v13.24h-2.49v-13.17Z" style="fill: #ffc259; stroke-width: 0px;"/>
      <path d="m391.42,680.03h2.05l.2,1.96h.1c1.23-1.27,2.64-2.27,4.54-2.27,2.88,0,4.2,1.77,4.2,4.98v7.65h-2.51v-7.32c0-2.15-.72-3.15-2.55-3.15-1.34,0-2.24.66-3.52,1.96v8.5h-2.51v-12.32Z" style="fill: #ffc259; stroke-width: 0px;"/>
      <path d="m421.69,680.03h2.05l.2,1.96h.1c1.23-1.27,2.64-2.27,4.54-2.27,2.88,0,4.2,1.77,4.2,4.98v7.65h-2.51v-7.32c0-2.15-.72-3.15-2.55-3.15-1.34,0-2.24.66-3.52,1.96v8.5h-2.51v-12.32Z" style="fill: #19a3ff; stroke-width: 0px;"/>
      <path d="m436.25,686.17c0-4.01,3.02-6.44,6.32-6.44,3.62,0,5.67,2.38,5.67,5.82,0,.53-.06,1.04-.11,1.37h-10.14v-1.84h8.58l-.54.61c0-2.67-1.29-4.01-3.38-4.01s-3.93,1.59-3.93,4.5,1.9,4.52,4.55,4.52c1.38,0,2.49-.42,3.6-1.08l.88,1.59c-1.27.83-2.91,1.46-4.8,1.46-3.74,0-6.69-2.38-6.69-6.49Z" style="fill: #19a3ff; stroke-width: 0px;"/>
      <path d="m449.93,680.03h2.46l1.28,6.77c.21,1.18.37,2.28.52,3.46h.1c.15-1.19.4-2.32.67-3.46l1.33-5.78h2.23l1.29,5.78c.27,1.18.57,2.28.72,3.46h.1c.19-1.19.3-2.29.5-3.46l1.26-6.77h2.31l-2.44,12.32h-3.11l-1.22-5.39c-.19-.91-.38-2.12-.57-3.65h-.1c-.18,1.43-.36,2.61-.56,3.65l-1.18,5.39h-3.09l-2.51-12.32Z" style="fill: #19a3ff; stroke-width: 0px;"/>
      <path d="m469.96,685.34c0-4.84,2.12-8.7,5.57-11.47l1.39,1.21c-3.28,2.87-4.77,6.09-4.77,10.26s1.49,7.39,4.77,10.26l-1.39,1.21c-3.45-2.77-5.57-6.63-5.57-11.47Z" style="fill: #19a3ff; stroke-width: 0px;"/>
      <path d="m481.17,680.03h2.55l2.6,6.67c.46,1.24.89,2.47,1.3,3.69h.1c.42-1.22.8-2.45,1.28-3.69l2.6-6.67h2.41l-4.96,12.32h-2.84l-5.05-12.32Z" style="fill: #19a3ff; stroke-width: 0px;"/>
      <path d="m497.06,689.1c0-2.76,2.51-4.12,8.73-4.59-.09-1.52-.91-2.75-3.1-2.75-1.49,0-2.96.68-4.17,1.39l-.96-1.68c1.38-.85,3.43-1.75,5.57-1.75,3.4,0,5.16,1.95,5.16,5.2v7.42h-2.08l-.2-1.6h-.08c-1.32,1.03-3.03,1.9-4.72,1.9-2.36,0-4.17-1.39-4.17-3.56Zm8.73-.1v-2.89c-4.84.35-6.28,1.32-6.28,2.79,0,1.24,1.11,1.75,2.43,1.75s2.57-.62,3.85-1.66Z" style="fill: #19a3ff; stroke-width: 0px;"/>
      <path d="m516.25,688.04v-11.56h-4.24v-2.01h6.75v13.72c0,1.71.97,2.4,2.32,2.4.67,0,1.39-.16,2.21-.52l.6,1.87c-1.18.46-2,.72-3.4.72-2.76,0-4.25-1.65-4.25-4.62Z" style="fill: #19a3ff; stroke-width: 0px;"/>
      <path d="m527.29,687.67v-7.65h2.51v7.32c0,2.13.71,3.15,2.57,3.15,1.29,0,2.22-.57,3.45-2.03v-8.43h2.51v12.32h-2.07l-.2-2.05h-.1c-1.2,1.4-2.61,2.36-4.48,2.36-2.89,0-4.19-1.77-4.19-4.98Z" style="fill: #19a3ff; stroke-width: 0px;"/>
      <path d="m542.21,686.17c0-4.01,3.02-6.44,6.32-6.44,3.62,0,5.67,2.38,5.67,5.82,0,.53-.06,1.04-.11,1.37h-10.14v-1.84h8.57l-.54.61c0-2.67-1.29-4.01-3.38-4.01s-3.93,1.59-3.93,4.5,1.9,4.52,4.55,4.52c1.38,0,2.49-.42,3.6-1.08l.88,1.59c-1.27.83-2.91,1.46-4.8,1.46-3.74,0-6.69-2.38-6.69-6.49Z" style="fill: #19a3ff; stroke-width: 0px;"/>
      <path d="m561.01,681.49c0-1.36.98-2.36,2.27-2.36s2.27,1,2.27,2.36-.98,2.36-2.27,2.36-2.27-.97-2.27-2.36Zm0,8.8c0-1.36.98-2.36,2.27-2.36s2.27,1,2.27,2.36-.98,2.36-2.27,2.36-2.27-.97-2.27-2.36Z" style="fill: #fff; stroke-width: 0px;"/>
      <path d="m590.5,690.99h-.08l-.23,1.36h-1.99v-17.88h2.51v4.74l-.11,2.27h.08c1.06-1.07,2.55-1.75,3.93-1.75,3.26,0,5.08,2.46,5.08,6.26,0,4.22-2.62,6.67-5.49,6.67-1.2,0-2.6-.62-3.71-1.67Zm6.63-4.97c0-2.58-.94-4.2-3.16-4.2-1.01,0-2.13.5-3.25,1.65v5.83c1.02.93,2.18,1.26,3.01,1.26,1.92,0,3.4-1.63,3.4-4.54Z" style="fill: #f55; stroke-width: 0px;"/>
      <path d="m602.56,686.21c0-4.13,2.89-6.49,6.14-6.49s6.14,2.36,6.14,6.49-2.89,6.44-6.14,6.44-6.14-2.36-6.14-6.44Zm9.7,0c0-2.66-1.38-4.42-3.57-4.42s-3.56,1.76-3.56,4.42,1.38,4.38,3.56,4.38,3.57-1.74,3.57-4.38Z" style="fill: #f55; stroke-width: 0px;"/>
      <path d="m617.7,686.21c0-4.13,2.89-6.49,6.14-6.49s6.14,2.36,6.14,6.49-2.89,6.44-6.14,6.44-6.14-2.36-6.14-6.44Zm9.71,0c0-2.66-1.38-4.42-3.57-4.42s-3.57,1.76-3.57,4.42,1.38,4.38,3.57,4.38,3.57-1.74,3.57-4.38Z" style="fill: #f55; stroke-width: 0px;"/>
      <path d="m637.35,688.04v-11.56h-4.24v-2.01h6.75v13.72c0,1.71.97,2.4,2.32,2.4.67,0,1.39-.16,2.21-.52l.6,1.87c-1.18.46-2,.72-3.4.72-2.76,0-4.25-1.65-4.25-4.62Z" style="fill: #f55; stroke-width: 0px;"/>
      <path d="m649.65,695.6c3.28-2.87,4.78-6.09,4.78-10.26s-1.49-7.39-4.78-10.26l1.39-1.21c3.45,2.77,5.57,6.63,5.57,11.47s-2.12,8.7-5.57,11.47l-1.39-1.21Z" style="fill: #fff; stroke-width: 0px;"/>
      <path d="m678.86,683.11h11.04v1.84h-11.04v-1.84Z" style="fill: #bb82fa; stroke-width: 0px;"/>
      <path d="m694.59,688.89l7.34-4.86v-.1l-7.34-4.86v-2.37l9.5,6.35v1.86l-9.5,6.35v-2.37Z" style="fill: #bb82fa; stroke-width: 0px;"/>
      <path d="m723.81,690.22l1.49-1.75c1.26,1.18,2.93,1.96,4.72,1.96,2.09,0,3.25-.96,3.25-2.29,0-1.62-1.21-2.06-2.84-2.75l-2.33-1.02c-1.69-.67-3.54-1.89-3.54-4.32,0-2.57,2.32-4.52,5.58-4.52,2.04,0,3.91.81,5.19,2.07l-1.31,1.62c-1.1-.93-2.3-1.47-3.99-1.47s-2.91.8-2.91,2.16c0,1.43,1.43,1.96,2.88,2.52l2.24.99c2.07.81,3.62,2.01,3.62,4.43,0,2.65-2.24,4.82-5.98,4.82-2.37,0-4.51-.92-6.07-2.43Z" style="fill: #f55; stroke-width: 0px;"/>
      <path d="m738.99,686.17c0-4.01,3.02-6.44,6.32-6.44,3.62,0,5.68,2.38,5.68,5.82,0,.53-.06,1.04-.12,1.37h-10.14v-1.84h8.57l-.54.61c0-2.67-1.29-4.01-3.38-4.01s-3.93,1.59-3.93,4.5,1.9,4.52,4.55,4.52c1.38,0,2.49-.42,3.6-1.08l.88,1.59c-1.27.83-2.91,1.46-4.8,1.46-3.74,0-6.69-2.38-6.69-6.49Z" style="fill: #f55; stroke-width: 0px;"/>
      <path d="m758.44,688.04v-11.56h-4.24v-2.01h6.75v13.72c0,1.71.97,2.4,2.32,2.4.67,0,1.39-.16,2.21-.52l.6,1.87c-1.18.46-2,.72-3.4.72-2.76,0-4.25-1.65-4.25-4.62Z" style="fill: #f55; stroke-width: 0px;"/>
      <path d="m770.1,680.16l3.52-.13h7.33v2h-10.86v-1.87Zm3.46-.98c0-2.95,1.59-5.01,5.11-5.01,1.27,0,2.47.25,3.6.7l-.54,1.87c-.95-.4-1.76-.56-2.79-.56-2.04,0-2.89,1.09-2.89,2.94v13.24h-2.49v-13.17Z" style="fill: #f55; stroke-width: 0px;"/>
      <path d="m804.2,692.77c0-1.83.25-3.06.25-4.72,0-.96-.7-1.91-3.61-1.94v-1.54c2.91-.03,3.61-.98,3.61-1.94,0-1.58-.25-2.98-.25-4.72,0-2.63,1.5-3.42,4.68-3.42h1.66v1.39h-1.24c-2.45,0-2.98.58-2.98,2.16,0,1.41.14,2.9.14,4.45,0,1.71-.6,2.5-2.36,2.8v.1c1.76.3,2.36,1.09,2.36,2.8s-.14,2.96-.14,4.45c0,1.58.53,2.16,2.98,2.16h1.24v1.39h-1.66c-3.18,0-4.68-.79-4.68-3.42Z" style="fill: #fff; stroke-width: 0px;"/>
      <path d="m375.65,720.5l1.49-1.75c1.26,1.18,2.92,1.96,4.72,1.96,2.09,0,3.25-.96,3.25-2.29,0-1.62-1.21-2.06-2.84-2.75l-2.33-1.02c-1.69-.67-3.54-1.89-3.54-4.32,0-2.57,2.32-4.52,5.58-4.52,2.04,0,3.91.81,5.19,2.07l-1.31,1.62c-1.1-.93-2.3-1.47-3.99-1.47s-2.91.8-2.91,2.16c0,1.43,1.43,1.96,2.88,2.52l2.24.99c2.07.81,3.62,2.01,3.62,4.43,0,2.65-2.24,4.82-5.98,4.82-2.37,0-4.51-.92-6.07-2.43Z" style="fill: #f55; stroke-width: 0px;"/>
      <path d="m390.84,716.44c0-4.01,3.02-6.44,6.32-6.44,3.62,0,5.67,2.38,5.67,5.82,0,.53-.06,1.04-.11,1.37h-10.14v-1.84h8.57l-.54.61c0-2.67-1.29-4.01-3.38-4.01s-3.93,1.59-3.93,4.5,1.9,4.52,4.55,4.52c1.38,0,2.49-.42,3.6-1.08l.88,1.59c-1.27.83-2.91,1.46-4.8,1.46-3.74,0-6.69-2.38-6.69-6.49Z" style="fill: #f55; stroke-width: 0px;"/>
      <path d="m410.29,718.31v-11.56h-4.24v-2.01h6.75v13.72c0,1.71.97,2.4,2.32,2.4.67,0,1.39-.16,2.21-.52l.6,1.87c-1.18.46-2,.72-3.4.72-2.76,0-4.25-1.65-4.25-4.62Z" style="fill: #f55; stroke-width: 0px;"/>
      <path d="m421.94,710.43l3.52-.13h7.33v2h-10.86v-1.87Zm3.46-.98c0-2.95,1.59-5.01,5.11-5.01,1.27,0,2.47.25,3.6.7l-.54,1.87c-.95-.4-1.76-.56-2.79-.56-2.04,0-2.89,1.09-2.89,2.94v13.24h-2.49v-13.17Z" style="fill: #f55; stroke-width: 0px;"/>
      <path d="m456.04,723.04c0-1.83.25-3.06.25-4.72,0-.96-.7-1.91-3.61-1.94v-1.54c2.91-.03,3.61-.98,3.61-1.94,0-1.58-.25-2.98-.25-4.72,0-2.63,1.5-3.42,4.68-3.42h1.66v1.39h-1.24c-2.45,0-2.98.58-2.98,2.16,0,1.41.14,2.9.14,4.45,0,1.71-.6,2.5-2.36,2.8v.1c1.76.3,2.36,1.09,2.36,2.8s-.14,2.96-.14,4.45c0,1.58.53,2.16,2.98,2.16h1.24v1.39h-1.66c-3.18,0-4.68-.79-4.68-3.42Z" style="fill: #fff; stroke-width: 0px;"/>
      <path d="m481.17,710.3h2.55l2.6,6.67c.46,1.24.89,2.47,1.3,3.69h.1c.42-1.22.8-2.45,1.28-3.69l2.6-6.67h2.41l-4.96,12.32h-2.84l-5.05-12.32Z" style="fill: #19a3ff; stroke-width: 0px;"/>
      <path d="m497.06,719.37c0-2.76,2.51-4.12,8.73-4.59-.09-1.52-.91-2.75-3.1-2.75-1.49,0-2.96.68-4.17,1.39l-.96-1.68c1.38-.85,3.43-1.75,5.57-1.75,3.4,0,5.16,1.95,5.16,5.2v7.42h-2.08l-.2-1.6h-.08c-1.32,1.03-3.03,1.9-4.72,1.9-2.36,0-4.17-1.39-4.17-3.56Zm8.73-.1v-2.89c-4.84.35-6.28,1.32-6.28,2.79,0,1.24,1.11,1.75,2.43,1.75s2.57-.62,3.85-1.66Z" style="fill: #19a3ff; stroke-width: 0px;"/>
      <path d="m516.25,718.31v-11.56h-4.24v-2.01h6.75v13.72c0,1.71.97,2.4,2.32,2.4.67,0,1.39-.16,2.21-.52l.6,1.87c-1.18.46-2,.72-3.4.72-2.76,0-4.25-1.65-4.25-4.62Z" style="fill: #19a3ff; stroke-width: 0px;"/>
      <path d="m527.29,717.95v-7.65h2.51v7.32c0,2.13.71,3.15,2.57,3.15,1.29,0,2.22-.57,3.45-2.03v-8.43h2.51v12.32h-2.07l-.2-2.05h-.1c-1.2,1.4-2.61,2.36-4.48,2.36-2.89,0-4.19-1.77-4.19-4.98Z" style="fill: #19a3ff; stroke-width: 0px;"/>
      <path d="m542.21,716.44c0-4.01,3.02-6.44,6.32-6.44,3.62,0,5.67,2.38,5.67,5.82,0,.53-.06,1.04-.11,1.37h-10.14v-1.84h8.57l-.54.61c0-2.67-1.29-4.01-3.38-4.01s-3.93,1.59-3.93,4.5,1.9,4.52,4.55,4.52c1.38,0,2.49-.42,3.6-1.08l.88,1.59c-1.27.83-2.91,1.46-4.8,1.46-3.74,0-6.69-2.38-6.69-6.49Z" style="fill: #19a3ff; stroke-width: 0px;"/>
      <path d="m573.39,725.07h1.22c2.45,0,3-.58,3-2.16,0-1.49-.14-2.78-.14-4.45s.58-2.5,2.34-2.8v-.1c-1.76-.3-2.34-1.09-2.34-2.8,0-1.54.14-3.04.14-4.45,0-1.58-.55-2.16-3-2.16h-1.22v-1.39h1.64c3.2,0,4.66.79,4.66,3.42,0,1.75-.24,3.14-.24,4.72,0,.96.7,1.91,3.61,1.94v1.54c-2.92.03-3.61.98-3.61,1.94,0,1.67.24,2.9.24,4.72,0,2.63-1.46,3.42-4.66,3.42h-1.64v-1.39Z" style="fill: #fff; stroke-width: 0px;"/>
      <path d="m316.06,755.34h1.22c2.45,0,3-.58,3-2.16,0-1.49-.14-2.78-.14-4.45s.58-2.5,2.34-2.8v-.1c-1.76-.3-2.34-1.09-2.34-2.8,0-1.54.14-3.04.14-4.45,0-1.58-.55-2.16-3-2.16h-1.22v-1.39h1.64c3.2,0,4.66.79,4.66,3.42,0,1.75-.24,3.14-.24,4.72,0,.96.7,1.91,3.61,1.94v1.54c-2.92.03-3.61.98-3.61,1.94,0,1.67.24,2.89.24,4.72,0,2.63-1.46,3.42-4.66,3.42h-1.64v-1.39Z" style="fill: #fff; stroke-width: 0px;"/>
      <path d="m315.61,806.72h10.6v1.7h-10.6v-1.7Zm.5-5.17h10.6v1.7h-10.6v-1.7Zm2.88-4.5h1.54l-1.99,16.39h-1.57l2.02-16.39Zm4.71,0h1.54l-1.99,16.39h-1.57l2.02-16.39Z" style="fill: #19a3ff; stroke-width: 0px;"/>
      <path d="m334.17,795.59h7.11v1.39h-5.15v18.92h5.15v1.39h-7.11v-21.69Z" style="fill: #19a3ff; stroke-width: 0px;"/>
      <path d="m351.5,803.13h-5.51v-2.01h8.02v12.32h-2.51v-10.32Zm-.82-6.2c0-1.06.79-1.79,1.87-1.79s1.87.73,1.87,1.79-.79,1.78-1.87,1.78-1.87-.7-1.87-1.78Z" style="fill: #19a3ff; stroke-width: 0px;"/>
      <path d="m361.14,801.12h2.05l.2,1.96h.1c1.23-1.27,2.64-2.27,4.54-2.27,2.88,0,4.2,1.77,4.2,4.98v7.65h-2.51v-7.32c0-2.15-.72-3.15-2.55-3.15-1.34,0-2.24.66-3.52,1.96v8.5h-2.51v-12.32Z" style="fill: #19a3ff; stroke-width: 0px;"/>
      <path d="m376.53,795.57h2.51v11.63h.1l6.07-6.07h2.82l-9,9.04v3.28h-2.51v-17.88Zm4.84,11.59l1.49-1.61,5.77,7.9h-2.76l-4.49-6.29Z" style="fill: #19a3ff; stroke-width: 0px;"/>
      <path d="m394.28,806.44c0-4.83,2.12-8.7,5.57-11.47l1.39,1.21c-3.28,2.87-4.77,6.09-4.77,10.26s1.49,7.39,4.77,10.26l-1.39,1.21c-3.45-2.77-5.57-6.63-5.57-11.47Z" style="fill: #19a3ff; stroke-width: 0px;"/>
      <path d="m405.66,801.12h1.96l.2,1.6h.06c.59-1.1,1.35-1.9,2.78-1.9,1.18,0,1.94.71,2.28,2.1.64-1.26,1.43-2.1,2.85-2.1,1.73,0,2.74,1.39,2.74,3.85v8.78h-2.44v-8.6c0-1.25-.35-1.88-1.15-1.88s-1.18.57-1.75,1.72v8.77h-2.17v-8.6c0-1.25-.32-1.88-1.12-1.88-.75,0-1.25.57-1.78,1.72v8.77h-2.44v-12.32Z" style="fill: #19a3ff; stroke-width: 0px;"/>
      <path d="m421.11,807.27c0-4.01,3.02-6.44,6.32-6.44,3.62,0,5.67,2.38,5.67,5.82,0,.53-.06,1.04-.11,1.36h-10.14v-1.84h8.58l-.54.61c0-2.67-1.29-4.01-3.38-4.01s-3.93,1.59-3.93,4.5,1.9,4.52,4.55,4.52c1.38,0,2.49-.42,3.6-1.08l.88,1.59c-1.27.84-2.91,1.46-4.8,1.46-3.74,0-6.69-2.38-6.69-6.49Z" style="fill: #19a3ff; stroke-width: 0px;"/>
      <path d="m436.29,811.83l1.12-1.63c1.45.99,3.12,1.62,5.25,1.62,1.89,0,2.79-.75,2.79-1.68,0-.87-.51-1.42-3.62-2.06-3.25-.67-4.78-1.8-4.78-3.67,0-2.06,1.85-3.59,5.26-3.59,1.96,0,3.83.77,5.07,1.6l-1.18,1.57c-1.17-.78-2.59-1.26-4.11-1.26-1.83,0-2.54.72-2.54,1.57,0,.96.98,1.34,3.4,1.86,4.01.88,5.02,1.91,5.02,3.84,0,2.06-2,3.76-5.64,3.76-2.35,0-4.54-.88-6.05-1.92Z" style="fill: #19a3ff; stroke-width: 0px;"/>
      <path d="m451.43,811.83l1.12-1.63c1.45.99,3.12,1.62,5.25,1.62,1.89,0,2.79-.75,2.79-1.68,0-.87-.51-1.42-3.62-2.06-3.25-.67-4.78-1.8-4.78-3.67,0-2.06,1.85-3.59,5.26-3.59,1.96,0,3.83.77,5.07,1.6l-1.18,1.57c-1.17-.78-2.59-1.26-4.11-1.26-1.83,0-2.54.72-2.54,1.57,0,.96.98,1.34,3.4,1.86,4.01.88,5.02,1.91,5.02,3.84,0,2.06-2,3.76-5.64,3.76-2.35,0-4.54-.88-6.05-1.92Z" style="fill: #19a3ff; stroke-width: 0px;"/>
      <path d="m466.79,810.2c0-2.76,2.51-4.12,8.73-4.59-.09-1.52-.91-2.75-3.1-2.75-1.49,0-2.96.68-4.17,1.39l-.96-1.68c1.38-.85,3.43-1.75,5.57-1.75,3.4,0,5.16,1.95,5.16,5.21v7.42h-2.08l-.2-1.6h-.08c-1.32,1.03-3.03,1.9-4.72,1.9-2.36,0-4.17-1.38-4.17-3.56Zm8.73-.1v-2.89c-4.84.35-6.28,1.32-6.28,2.79,0,1.24,1.11,1.75,2.43,1.75s2.57-.62,3.85-1.66Z" style="fill: #19a3ff; stroke-width: 0px;"/>
      <path d="m481.72,815.66c0-.99.7-1.94,2-2.67v-.1c-.67-.37-1.26-1.01-1.26-2.05,0-.8.55-1.68,1.47-2.31v-.1c-.86-.63-1.55-1.72-1.55-3.19,0-2.76,2.3-4.43,4.96-4.43.72,0,1.33.1,1.88.3h5.07v1.96h-3.01c.48.53.91,1.36.91,2.25,0,2.69-2.14,4.21-4.85,4.21-.6,0-1.31-.13-1.98-.4-.55.35-.85.75-.85,1.29,0,.88.86,1.29,2.44,1.29h2.64c3.19,0,4.77.83,4.77,2.95,0,2.38-2.71,4.34-6.98,4.34-3.5,0-5.65-1.17-5.65-3.35Zm10.21-.58c0-1.07-.89-1.35-2.64-1.35h-2.18c-.76,0-1.37-.05-1.88-.19-1.02.57-1.39,1.19-1.39,1.83,0,1.2,1.34,1.92,3.79,1.92,2.63,0,4.3-1.05,4.3-2.21Zm-2-9.83c0-1.61-1.16-2.66-2.58-2.66s-2.58,1.05-2.58,2.66,1.17,2.69,2.58,2.69,2.58-1.03,2.58-2.69Z" style="fill: #19a3ff; stroke-width: 0px;"/>
      <path d="m496.8,807.27c0-4.01,3.02-6.44,6.32-6.44,3.62,0,5.67,2.38,5.67,5.82,0,.53-.06,1.04-.11,1.36h-10.14v-1.84h8.58l-.54.61c0-2.67-1.29-4.01-3.38-4.01s-3.93,1.59-3.93,4.5,1.9,4.52,4.55,4.52c1.38,0,2.49-.42,3.6-1.08l.88,1.59c-1.27.84-2.91,1.46-4.8,1.46-3.74,0-6.69-2.38-6.69-6.49Z" style="fill: #19a3ff; stroke-width: 0px;"/>
      <path d="m513.41,816.7c3.28-2.87,4.77-6.09,4.77-10.26s-1.49-7.39-4.77-10.26l1.39-1.21c3.45,2.77,5.57,6.63,5.57,11.47s-2.12,8.7-5.57,11.47l-1.39-1.21Z" style="fill: #19a3ff; stroke-width: 0px;"/>
      <path d="m527.95,815.89h5.15v-18.92h-5.15v-1.39h7.11v21.69h-7.11v-1.39Z" style="fill: #19a3ff; stroke-width: 0px;"/>
      <path d="m315.73,831.4h2.05l.2,1.49h.08c1.1-1.04,2.66-1.79,4.11-1.79,3.26,0,5.06,2.46,5.06,6.28,0,4.2-2.62,6.65-5.54,6.65-1.13,0-2.45-.56-3.51-1.53h-.06l.12,2.25v4.01h-2.51v-17.36Zm8.92,5.99c0-2.58-.94-4.2-3.16-4.2-1.01,0-2.13.5-3.25,1.65v5.83c1.02.93,2.18,1.26,2.97,1.26,1.96,0,3.44-1.63,3.44-4.54Z" style="fill: #ffc259; stroke-width: 0px;"/>
      <path d="m330.5,839.05v-7.65h2.51v7.32c0,2.13.71,3.15,2.57,3.15,1.29,0,2.22-.57,3.45-2.03v-8.43h2.51v12.32h-2.07l-.2-2.05h-.1c-1.2,1.4-2.61,2.36-4.48,2.36-2.89,0-4.19-1.77-4.19-4.98Z" style="fill: #ffc259; stroke-width: 0px;"/>
      <path d="m348.3,842.36h-.08l-.23,1.36h-1.99v-17.88h2.51v4.74l-.11,2.27h.08c1.06-1.07,2.55-1.75,3.93-1.75,3.26,0,5.08,2.46,5.08,6.26,0,4.22-2.62,6.67-5.5,6.67-1.2,0-2.6-.62-3.71-1.67Zm6.63-4.97c0-2.58-.94-4.2-3.16-4.2-1.01,0-2.13.5-3.25,1.65v5.83c1.02.93,2.18,1.26,3.01,1.26,1.92,0,3.4-1.63,3.4-4.54Z" style="fill: #ffc259; stroke-width: 0px;"/>
      <path d="m376.53,831.53l3.52-.13h7.33v2h-10.86v-1.87Zm3.46-.98c0-2.95,1.59-5.01,5.11-5.01,1.27,0,2.47.25,3.6.7l-.54,1.87c-.95-.4-1.76-.56-2.79-.56-2.04,0-2.89,1.09-2.89,2.94v13.24h-2.49v-13.17Z" style="fill: #ffc259; stroke-width: 0px;"/>
      <path d="m391.42,831.4h2.05l.2,1.96h.1c1.23-1.27,2.64-2.27,4.54-2.27,2.88,0,4.2,1.77,4.2,4.98v7.65h-2.51v-7.32c0-2.15-.72-3.15-2.55-3.15-1.34,0-2.24.66-3.52,1.96v8.5h-2.51v-12.32Z" style="fill: #ffc259; stroke-width: 0px;"/>
      <path d="m421.94,831.53l3.52-.13h7.33v2h-10.86v-1.87Zm3.46-.98c0-2.95,1.59-5.01,5.11-5.01,1.27,0,2.47.25,3.6.7l-.54,1.87c-.95-.4-1.76-.56-2.79-.56-2.04,0-2.89,1.09-2.89,2.94v13.24h-2.49v-13.17Z" style="fill: #19a3ff; stroke-width: 0px;"/>
      <path d="m440.56,839.41v-11.56h-4.24v-2.01h6.75v13.72c0,1.71.97,2.4,2.32,2.4.67,0,1.39-.16,2.21-.52l.6,1.87c-1.18.46-2,.72-3.4.72-2.76,0-4.25-1.65-4.25-4.62Z" style="fill: #19a3ff; stroke-width: 0px;"/>
      <path d="m457.46,833.4h-5.51v-2h8.02v12.32h-2.51v-10.32Zm-.82-6.2c0-1.06.79-1.79,1.87-1.79s1.87.73,1.87,1.79-.79,1.78-1.87,1.78-1.87-.7-1.87-1.78Z" style="fill: #19a3ff; stroke-width: 0px;"/>
      <path d="m467.1,831.4h2.05l.2,1.49h.08c1.1-1.04,2.66-1.79,4.11-1.79,3.26,0,5.06,2.46,5.06,6.28,0,4.2-2.62,6.65-5.54,6.65-1.13,0-2.45-.56-3.51-1.53h-.06l.12,2.25v4.01h-2.51v-17.36Zm8.92,5.99c0-2.58-.94-4.2-3.16-4.2-1.01,0-2.13.5-3.25,1.65v5.83c1.02.93,2.18,1.26,2.97,1.26,1.96,0,3.44-1.63,3.44-4.54Z" style="fill: #19a3ff; stroke-width: 0px;"/>
      <path d="m485.1,836.71c0-4.84,2.12-8.7,5.57-11.47l1.39,1.21c-3.28,2.87-4.77,6.09-4.77,10.26s1.49,7.39,4.77,10.26l-1.39,1.21c-3.45-2.77-5.57-6.63-5.57-11.47Z" style="fill: #fff; stroke-width: 0px;"/>
      <path d="m496.11,839.41c0-4.85,7.04-5.62,7.04-9.09,0-.91-.37-1.67-1.39-1.67s-1.64.94-1.64,2.25c0,2.98,3.31,6.94,6.41,9.2,1.17.94,2.28,1.57,3.26,1.87l-.66,2.07c-1.29-.37-2.66-1.13-4.11-2.28-3.63-2.8-7.04-7.52-7.04-10.82,0-2.25,1.49-4.03,3.75-4.03s3.42,1.37,3.42,3.39c0,4.11-6.62,5.38-6.62,8.96,0,1.69,1.28,2.8,2.93,2.8,1.2,0,2.35-.77,3.3-1.87,1.2-1.42,2.06-3.26,2.59-5.49h2.31c-.65,2.47-1.67,4.74-3.16,6.67-1.36,1.58-3.06,2.66-5.36,2.66-3.06,0-5.03-1.98-5.03-4.62Z" style="fill: #fff; stroke-width: 0px;"/>
      <path d="m511.62,831.4h1.96l.2,1.59h.06c.59-1.1,1.35-1.9,2.78-1.9,1.18,0,1.94.71,2.28,2.1.64-1.26,1.43-2.1,2.85-2.1,1.73,0,2.74,1.39,2.74,3.85v8.78h-2.44v-8.6c0-1.25-.35-1.88-1.15-1.88s-1.18.57-1.75,1.72v8.77h-2.17v-8.6c0-1.25-.32-1.88-1.12-1.88-.75,0-1.25.57-1.78,1.72v8.77h-2.44v-12.32Z" style="fill: #19a3ff; stroke-width: 0px;"/>
      <path d="m527.29,839.05v-7.65h2.51v7.32c0,2.13.71,3.15,2.57,3.15,1.29,0,2.22-.57,3.45-2.03v-8.43h2.51v12.32h-2.07l-.2-2.05h-.1c-1.2,1.4-2.61,2.36-4.48,2.36-2.89,0-4.19-1.77-4.19-4.98Z" style="fill: #19a3ff; stroke-width: 0px;"/>
      <path d="m545.57,838.85v-5.44h-3.4v-1.87l3.5-.13.33-3.91h2.08v3.91h5.82v2h-5.82v5.45c0,2.12.75,3.15,2.98,3.15,1.08,0,1.96-.22,2.81-.53l.51,1.83c-1.11.38-2.33.72-3.9.72-3.69,0-4.91-2.09-4.91-5.18Z" style="fill: #19a3ff; stroke-width: 0px;"/>
      <path d="m572.53,842.11l1.12-1.63c1.45,1,3.12,1.62,5.25,1.62,1.89,0,2.79-.75,2.79-1.68,0-.87-.51-1.42-3.62-2.06-3.25-.67-4.78-1.8-4.78-3.67,0-2.06,1.85-3.59,5.26-3.59,1.96,0,3.83.77,5.07,1.6l-1.18,1.57c-1.17-.78-2.59-1.26-4.11-1.26-1.83,0-2.54.72-2.54,1.57,0,.97.98,1.34,3.4,1.86,4.01.88,5.02,1.91,5.02,3.84,0,2.06-2,3.76-5.64,3.76-2.35,0-4.54-.88-6.05-1.92Z" style="fill: #ffc259; stroke-width: 0px;"/>
      <path d="m587.62,837.54c0-4.01,3.02-6.44,6.32-6.44,3.62,0,5.68,2.38,5.68,5.82,0,.53-.06,1.04-.12,1.37h-10.14v-1.84h8.57l-.54.61c0-2.67-1.29-4.01-3.38-4.01s-3.93,1.59-3.93,4.5,1.9,4.52,4.55,4.52c1.38,0,2.49-.42,3.6-1.08l.88,1.59c-1.27.83-2.91,1.46-4.8,1.46-3.74,0-6.69-2.38-6.69-6.49Z" style="fill: #ffc259; stroke-width: 0px;"/>
      <path d="m607.07,839.41v-11.56h-4.23v-2.01h6.75v13.72c0,1.71.97,2.4,2.32,2.4.67,0,1.39-.16,2.21-.52l.61,1.87c-1.18.46-2,.72-3.4.72-2.76,0-4.25-1.65-4.25-4.62Z" style="fill: #ffc259; stroke-width: 0px;"/>
      <path d="m618.73,831.53l3.52-.13h7.33v2h-10.86v-1.87Zm3.46-.98c0-2.95,1.59-5.01,5.11-5.01,1.27,0,2.47.25,3.6.7l-.54,1.87c-.95-.4-1.76-.56-2.79-.56-2.04,0-2.89,1.09-2.89,2.94v13.24h-2.49v-13.17Z" style="fill: #ffc259; stroke-width: 0px;"/>
      <path d="m634.51,846.97c3.28-2.87,4.77-6.09,4.77-10.26s-1.49-7.39-4.77-10.26l1.39-1.21c3.45,2.77,5.57,6.63,5.57,11.47s-2.12,8.7-5.57,11.47l-1.39-1.21Z" style="fill: #fff; stroke-width: 0px;"/>
      <path d="m667.96,844.14c0-1.83.25-3.06.25-4.72,0-.96-.7-1.91-3.61-1.94v-1.54c2.91-.03,3.61-.98,3.61-1.94,0-1.58-.25-2.98-.25-4.72,0-2.63,1.5-3.42,4.68-3.42h1.66v1.39h-1.24c-2.45,0-2.98.58-2.98,2.16,0,1.41.14,2.9.14,4.45,0,1.71-.6,2.5-2.36,2.8v.1c1.76.3,2.36,1.09,2.36,2.8s-.14,2.96-.14,4.45c0,1.58.53,2.16,2.98,2.16h1.24v1.39h-1.66c-3.18,0-4.68-.79-4.68-3.42Z" style="fill: #fff; stroke-width: 0px;"/>
      <path d="m375.74,872.38l1.12-1.63c1.45,1,3.12,1.62,5.25,1.62,1.89,0,2.79-.75,2.79-1.68,0-.87-.51-1.42-3.62-2.06-3.25-.67-4.78-1.8-4.78-3.67,0-2.06,1.85-3.59,5.26-3.59,1.96,0,3.83.77,5.07,1.6l-1.18,1.57c-1.17-.78-2.59-1.26-4.11-1.26-1.83,0-2.54.72-2.54,1.57,0,.97.98,1.34,3.4,1.86,4.01.88,5.02,1.91,5.02,3.84,0,2.06-2,3.76-5.64,3.76-2.35,0-4.54-.88-6.05-1.92Z" style="fill: #ffc259; stroke-width: 0px;"/>
      <path d="m390.84,867.82c0-4.01,3.02-6.44,6.32-6.44,3.62,0,5.67,2.38,5.67,5.82,0,.53-.06,1.04-.11,1.37h-10.14v-1.84h8.57l-.54.61c0-2.67-1.29-4.01-3.38-4.01s-3.93,1.59-3.93,4.5,1.9,4.52,4.55,4.52c1.38,0,2.49-.42,3.6-1.08l.88,1.59c-1.27.83-2.91,1.46-4.8,1.46-3.74,0-6.69-2.38-6.69-6.49Z" style="fill: #ffc259; stroke-width: 0px;"/>
      <path d="m410.29,869.68v-11.56h-4.24v-2.01h6.75v13.72c0,1.71.97,2.4,2.32,2.4.67,0,1.39-.16,2.21-.52l.6,1.87c-1.18.46-2,.72-3.4.72-2.76,0-4.25-1.65-4.25-4.62Z" style="fill: #ffc259; stroke-width: 0px;"/>
      <path d="m421.94,861.8l3.52-.13h7.33v2h-10.86v-1.87Zm3.46-.98c0-2.95,1.59-5.01,5.11-5.01,1.27,0,2.47.25,3.6.7l-.54,1.87c-.95-.4-1.76-.56-2.79-.56-2.04,0-2.89,1.09-2.89,2.94v13.24h-2.49v-13.17Z" style="fill: #ffc259; stroke-width: 0px;"/>
      <path d="m439.91,871.94c0-1.36.98-2.36,2.27-2.36s2.27,1,2.27,2.36-.98,2.36-2.27,2.36-2.27-.97-2.27-2.36Z" style="fill: #fff; stroke-width: 0px;"/>
      <path d="m450.9,861.67h2.55l2.6,6.67c.46,1.24.89,2.47,1.3,3.69h.1c.42-1.22.8-2.45,1.28-3.69l2.6-6.67h2.41l-4.96,12.32h-2.84l-5.05-12.32Z" style="fill: #19a3ff; stroke-width: 0px;"/>
      <path d="m466.79,870.74c0-2.76,2.51-4.12,8.73-4.59-.09-1.52-.91-2.75-3.1-2.75-1.49,0-2.96.68-4.17,1.39l-.96-1.68c1.38-.85,3.43-1.75,5.57-1.75,3.4,0,5.16,1.95,5.16,5.2v7.42h-2.08l-.2-1.6h-.08c-1.32,1.03-3.03,1.9-4.72,1.9-2.36,0-4.17-1.39-4.17-3.56Zm8.73-.1v-2.89c-4.84.35-6.28,1.32-6.28,2.79,0,1.24,1.11,1.75,2.43,1.75s2.57-.62,3.85-1.66Z" style="fill: #19a3ff; stroke-width: 0px;"/>
      <path d="m485.97,869.68v-11.56h-4.24v-2.01h6.75v13.72c0,1.71.97,2.4,2.32,2.4.67,0,1.39-.16,2.21-.52l.6,1.87c-1.18.46-2,.72-3.4.72-2.76,0-4.25-1.65-4.25-4.62Z" style="fill: #19a3ff; stroke-width: 0px;"/>
      <path d="m497.01,869.32v-7.65h2.51v7.32c0,2.13.71,3.15,2.57,3.15,1.29,0,2.22-.57,3.45-2.03v-8.43h2.51v12.32h-2.07l-.2-2.05h-.1c-1.2,1.4-2.61,2.36-4.48,2.36-2.89,0-4.19-1.77-4.19-4.98Z" style="fill: #19a3ff; stroke-width: 0px;"/>
      <path d="m511.94,867.82c0-4.01,3.02-6.44,6.32-6.44,3.62,0,5.67,2.38,5.67,5.82,0,.53-.06,1.04-.11,1.37h-10.14v-1.84h8.58l-.54.61c0-2.67-1.29-4.01-3.38-4.01s-3.93,1.59-3.93,4.5,1.9,4.52,4.55,4.52c1.38,0,2.49-.42,3.6-1.08l.88,1.59c-1.27.83-2.91,1.46-4.8,1.46-3.74,0-6.69-2.38-6.69-6.49Z" style="fill: #19a3ff; stroke-width: 0px;"/>
      <path d="m542.63,862h11.04v1.84h-11.04v-1.84Zm0,5.52h11.04v1.84h-11.04v-1.84Z" style="fill: #bb82fa; stroke-width: 0px;"/>
      <path d="m576.39,872.18c0-1.29.91-2.09,2.04-2.09s2.04.81,2.04,2.09-.91,2.12-2.04,2.12-2.04-.84-2.04-2.12Zm.86-12.45l-.07-2.62h2.49l-.07,2.62-.34,8.25h-1.68l-.34-8.25Z" style="fill: #bb82fa; stroke-width: 0px;"/>
      <path d="m587.67,872.38l1.12-1.63c1.45,1,3.12,1.62,5.25,1.62,1.89,0,2.79-.75,2.79-1.68,0-.87-.51-1.42-3.62-2.06-3.26-.67-4.78-1.8-4.78-3.67,0-2.06,1.85-3.59,5.27-3.59,1.96,0,3.83.77,5.06,1.6l-1.18,1.57c-1.17-.78-2.59-1.26-4.11-1.26-1.83,0-2.54.72-2.54,1.57,0,.97.98,1.34,3.4,1.86,4.01.88,5.02,1.91,5.02,3.84,0,2.06-2,3.76-5.64,3.76-2.35,0-4.54-.88-6.05-1.92Z" style="fill: #ffc259; stroke-width: 0px;"/>
      <path d="m602.76,867.82c0-4.01,3.02-6.44,6.32-6.44,3.62,0,5.68,2.38,5.68,5.82,0,.53-.06,1.04-.12,1.37h-10.14v-1.84h8.57l-.54.61c0-2.67-1.29-4.01-3.38-4.01s-3.93,1.59-3.93,4.5,1.9,4.52,4.55,4.52c1.38,0,2.49-.42,3.6-1.08l.88,1.59c-1.27.83-2.91,1.46-4.8,1.46-3.74,0-6.69-2.38-6.69-6.49Z" style="fill: #ffc259; stroke-width: 0px;"/>
      <path d="m622.21,869.68v-11.56h-4.24v-2.01h6.75v13.72c0,1.71.97,2.4,2.32,2.4.67,0,1.39-.16,2.21-.52l.6,1.87c-1.18.46-2,.72-3.4.72-2.76,0-4.25-1.65-4.25-4.62Z" style="fill: #ffc259; stroke-width: 0px;"/>
      <path d="m633.86,861.8l3.52-.13h7.33v2h-10.86v-1.87Zm3.46-.98c0-2.95,1.59-5.01,5.11-5.01,1.27,0,2.47.25,3.6.7l-.54,1.87c-.95-.4-1.76-.56-2.79-.56-2.04,0-2.89,1.09-2.89,2.94v13.24h-2.49v-13.17Z" style="fill: #ffc259; stroke-width: 0px;"/>
      <path d="m651.83,871.94c0-1.36.98-2.36,2.27-2.36s2.28,1,2.28,2.36-.98,2.36-2.28,2.36-2.27-.97-2.27-2.36Z" style="fill: #fff; stroke-width: 0px;"/>
      <path d="m662.82,861.67h2.55l2.6,6.67c.46,1.24.88,2.47,1.3,3.69h.1c.42-1.22.8-2.45,1.28-3.69l2.6-6.67h2.41l-4.96,12.32h-2.84l-5.05-12.32Z" style="fill: #19a3ff; stroke-width: 0px;"/>
      <path d="m678.71,870.74c0-2.76,2.51-4.12,8.73-4.59-.09-1.52-.91-2.75-3.1-2.75-1.49,0-2.96.68-4.16,1.39l-.96-1.68c1.38-.85,3.43-1.75,5.57-1.75,3.4,0,5.16,1.95,5.16,5.2v7.42h-2.07l-.2-1.6h-.08c-1.32,1.03-3.03,1.9-4.72,1.9-2.36,0-4.17-1.39-4.17-3.56Zm8.73-.1v-2.89c-4.84.35-6.28,1.32-6.28,2.79,0,1.24,1.11,1.75,2.43,1.75s2.57-.62,3.85-1.66Z" style="fill: #19a3ff; stroke-width: 0px;"/>
      <path d="m697.89,869.68v-11.56h-4.24v-2.01h6.75v13.72c0,1.71.97,2.4,2.32,2.4.67,0,1.39-.16,2.21-.52l.6,1.87c-1.18.46-2,.72-3.4.72-2.76,0-4.25-1.65-4.25-4.62Z" style="fill: #19a3ff; stroke-width: 0px;"/>
      <path d="m708.93,869.32v-7.65h2.51v7.32c0,2.13.71,3.15,2.57,3.15,1.29,0,2.22-.57,3.45-2.03v-8.43h2.51v12.32h-2.07l-.2-2.05h-.1c-1.2,1.4-2.61,2.36-4.48,2.36-2.89,0-4.19-1.77-4.19-4.98Z" style="fill: #19a3ff; stroke-width: 0px;"/>
      <path d="m723.86,867.82c0-4.01,3.02-6.44,6.32-6.44,3.62,0,5.68,2.38,5.68,5.82,0,.53-.06,1.04-.12,1.37h-10.14v-1.84h8.57l-.54.61c0-2.67-1.29-4.01-3.38-4.01s-3.93,1.59-3.93,4.5,1.9,4.52,4.55,4.52c1.38,0,2.49-.42,3.6-1.08l.88,1.59c-1.27.83-2.91,1.46-4.8,1.46-3.74,0-6.69-2.38-6.69-6.49Z" style="fill: #19a3ff; stroke-width: 0px;"/>
      <path d="m742.22,877.87c2.17-.92,3.23-2.25,3.2-4.22l-.37-2.5,1.44,2.13c-.42.44-.95.58-1.48.58-1.17,0-2.16-.71-2.16-2.07s1.02-2.09,2.23-2.09c1.63,0,2.49,1.33,2.49,3.51,0,3.02-1.71,5.15-4.66,6.19l-.69-1.53Zm.44-14.72c0-1.36.98-2.36,2.27-2.36s2.28,1,2.28,2.36-.98,2.36-2.28,2.36-2.27-.97-2.27-2.36Z" style="fill: #fff; stroke-width: 0px;"/>
      <path d="m316.06,906.72h1.22c2.45,0,3-.58,3-2.16,0-1.49-.14-2.78-.14-4.45s.58-2.5,2.34-2.8v-.1c-1.76-.3-2.34-1.09-2.34-2.8,0-1.54.14-3.04.14-4.45,0-1.58-.55-2.16-3-2.16h-1.22v-1.39h1.64c3.2,0,4.66.79,4.66,3.42,0,1.75-.24,3.14-.24,4.72,0,.96.7,1.91,3.61,1.94v1.54c-2.92.03-3.61.98-3.61,1.94,0,1.67.24,2.89.24,4.72,0,2.63-1.46,3.42-4.66,3.42h-1.64v-1.39Z" style="fill: #fff; stroke-width: 0px;"/>
      <path d="m315.61,958.09h10.6v1.7h-10.6v-1.7Zm.5-5.17h10.6v1.7h-10.6v-1.7Zm2.88-4.5h1.54l-1.99,16.39h-1.57l2.02-16.39Zm4.71,0h1.54l-1.99,16.39h-1.57l2.02-16.39Z" style="fill: #19a3ff; stroke-width: 0px;"/>
      <path d="m334.17,946.97h7.11v1.39h-5.15v18.92h5.15v1.39h-7.11v-21.69Z" style="fill: #19a3ff; stroke-width: 0px;"/>
      <path d="m351.5,954.5h-5.51v-2.01h8.02v12.32h-2.51v-10.32Zm-.82-6.2c0-1.06.79-1.79,1.87-1.79s1.87.73,1.87,1.79-.79,1.78-1.87,1.78-1.87-.7-1.87-1.78Z" style="fill: #19a3ff; stroke-width: 0px;"/>
      <path d="m361.14,952.5h2.05l.2,1.96h.1c1.23-1.27,2.64-2.27,4.54-2.27,2.88,0,4.2,1.77,4.2,4.98v7.65h-2.51v-7.32c0-2.15-.72-3.15-2.55-3.15-1.34,0-2.24.66-3.52,1.96v8.5h-2.51v-12.32Z" style="fill: #19a3ff; stroke-width: 0px;"/>
      <path d="m376.53,946.94h2.51v11.63h.1l6.07-6.07h2.82l-9,9.04v3.28h-2.51v-17.88Zm4.84,11.59l1.49-1.61,5.77,7.9h-2.76l-4.49-6.29Z" style="fill: #19a3ff; stroke-width: 0px;"/>
      <path d="m394.28,957.81c0-4.83,2.12-8.7,5.57-11.47l1.39,1.21c-3.28,2.87-4.77,6.09-4.77,10.26s1.49,7.39,4.77,10.26l-1.39,1.21c-3.45-2.77-5.57-6.63-5.57-11.47Z" style="fill: #19a3ff; stroke-width: 0px;"/>
      <path d="m405.66,952.5h1.96l.2,1.6h.06c.59-1.1,1.35-1.9,2.78-1.9,1.18,0,1.94.71,2.28,2.1.64-1.26,1.43-2.1,2.85-2.1,1.73,0,2.74,1.39,2.74,3.85v8.78h-2.44v-8.6c0-1.25-.35-1.88-1.15-1.88s-1.18.57-1.75,1.72v8.77h-2.17v-8.6c0-1.25-.32-1.88-1.12-1.88-.75,0-1.25.57-1.78,1.72v8.77h-2.44v-12.32Z" style="fill: #19a3ff; stroke-width: 0px;"/>
      <path d="m421.11,958.64c0-4.01,3.02-6.44,6.32-6.44,3.62,0,5.67,2.38,5.67,5.82,0,.53-.06,1.04-.11,1.36h-10.14v-1.84h8.58l-.54.61c0-2.67-1.29-4.01-3.38-4.01s-3.93,1.59-3.93,4.5,1.9,4.52,4.55,4.52c1.38,0,2.49-.42,3.6-1.08l.88,1.59c-1.27.84-2.91,1.46-4.8,1.46-3.74,0-6.69-2.38-6.69-6.49Z" style="fill: #19a3ff; stroke-width: 0px;"/>
      <path d="m436.29,963.21l1.12-1.63c1.45.99,3.12,1.62,5.25,1.62,1.89,0,2.79-.75,2.79-1.68,0-.87-.51-1.42-3.62-2.06-3.25-.67-4.78-1.8-4.78-3.67,0-2.06,1.85-3.59,5.26-3.59,1.96,0,3.83.77,5.07,1.6l-1.18,1.57c-1.17-.78-2.59-1.26-4.11-1.26-1.83,0-2.54.72-2.54,1.57,0,.96.98,1.34,3.4,1.86,4.01.88,5.02,1.91,5.02,3.84,0,2.06-2,3.76-5.64,3.76-2.35,0-4.54-.88-6.05-1.92Z" style="fill: #19a3ff; stroke-width: 0px;"/>
      <path d="m451.43,963.21l1.12-1.63c1.45.99,3.12,1.62,5.25,1.62,1.89,0,2.79-.75,2.79-1.68,0-.87-.51-1.42-3.62-2.06-3.25-.67-4.78-1.8-4.78-3.67,0-2.06,1.85-3.59,5.26-3.59,1.96,0,3.83.77,5.07,1.6l-1.18,1.57c-1.17-.78-2.59-1.26-4.11-1.26-1.83,0-2.54.72-2.54,1.57,0,.96.98,1.34,3.4,1.86,4.01.88,5.02,1.91,5.02,3.84,0,2.06-2,3.76-5.64,3.76-2.35,0-4.54-.88-6.05-1.92Z" style="fill: #19a3ff; stroke-width: 0px;"/>
      <path d="m466.79,961.57c0-2.76,2.51-4.12,8.73-4.59-.09-1.52-.91-2.75-3.1-2.75-1.49,0-2.96.68-4.17,1.39l-.96-1.68c1.38-.85,3.43-1.75,5.57-1.75,3.4,0,5.16,1.95,5.16,5.21v7.42h-2.08l-.2-1.6h-.08c-1.32,1.03-3.03,1.9-4.72,1.9-2.36,0-4.17-1.38-4.17-3.56Zm8.73-.1v-2.89c-4.84.35-6.28,1.32-6.28,2.79,0,1.24,1.11,1.75,2.43,1.75s2.57-.62,3.85-1.66Z" style="fill: #19a3ff; stroke-width: 0px;"/>
      <path d="m481.72,967.03c0-.99.7-1.94,2-2.67v-.1c-.67-.37-1.26-1.01-1.26-2.05,0-.8.55-1.68,1.47-2.31v-.1c-.86-.63-1.55-1.72-1.55-3.19,0-2.76,2.3-4.43,4.96-4.43.72,0,1.33.1,1.88.3h5.07v1.96h-3.01c.48.53.91,1.36.91,2.25,0,2.69-2.14,4.21-4.85,4.21-.6,0-1.31-.13-1.98-.4-.55.35-.85.75-.85,1.29,0,.88.86,1.29,2.44,1.29h2.64c3.19,0,4.77.83,4.77,2.95,0,2.38-2.71,4.34-6.98,4.34-3.5,0-5.65-1.17-5.65-3.35Zm10.21-.58c0-1.07-.89-1.35-2.64-1.35h-2.18c-.76,0-1.37-.05-1.88-.19-1.02.57-1.39,1.19-1.39,1.83,0,1.2,1.34,1.92,3.79,1.92,2.63,0,4.3-1.05,4.3-2.21Zm-2-9.83c0-1.61-1.16-2.66-2.58-2.66s-2.58,1.05-2.58,2.66,1.17,2.69,2.58,2.69,2.58-1.03,2.58-2.69Z" style="fill: #19a3ff; stroke-width: 0px;"/>
      <path d="m496.8,958.64c0-4.01,3.02-6.44,6.32-6.44,3.62,0,5.67,2.38,5.67,5.82,0,.53-.06,1.04-.11,1.36h-10.14v-1.84h8.58l-.54.61c0-2.67-1.29-4.01-3.38-4.01s-3.93,1.59-3.93,4.5,1.9,4.52,4.55,4.52c1.38,0,2.49-.42,3.6-1.08l.88,1.59c-1.27.84-2.91,1.46-4.8,1.46-3.74,0-6.69-2.38-6.69-6.49Z" style="fill: #19a3ff; stroke-width: 0px;"/>
      <path d="m513.41,968.07c3.28-2.87,4.77-6.09,4.77-10.26s-1.49-7.39-4.77-10.26l1.39-1.21c3.45,2.77,5.57,6.63,5.57,11.47s-2.12,8.7-5.57,11.47l-1.39-1.21Z" style="fill: #19a3ff; stroke-width: 0px;"/>
      <path d="m527.95,967.27h5.15v-18.92h-5.15v-1.39h7.11v21.69h-7.11v-1.39Z" style="fill: #19a3ff; stroke-width: 0px;"/>
      <path d="m315.73,982.77h2.05l.2,1.49h.08c1.1-1.04,2.66-1.79,4.11-1.79,3.26,0,5.06,2.46,5.06,6.28,0,4.2-2.62,6.65-5.54,6.65-1.13,0-2.45-.56-3.51-1.53h-.06l.12,2.25v4.01h-2.51v-17.36Zm8.92,5.99c0-2.58-.94-4.2-3.16-4.2-1.01,0-2.13.5-3.25,1.65v5.83c1.02.93,2.18,1.26,2.97,1.26,1.96,0,3.44-1.63,3.44-4.54Z" style="fill: #ffc259; stroke-width: 0px;"/>
      <path d="m330.5,990.42v-7.65h2.51v7.32c0,2.13.71,3.15,2.57,3.15,1.29,0,2.22-.57,3.45-2.03v-8.43h2.51v12.32h-2.07l-.2-2.05h-.1c-1.2,1.4-2.61,2.36-4.48,2.36-2.89,0-4.19-1.77-4.19-4.98Z" style="fill: #ffc259; stroke-width: 0px;"/>
      <path d="m348.3,993.74h-.08l-.23,1.36h-1.99v-17.88h2.51v4.74l-.11,2.27h.08c1.06-1.07,2.55-1.75,3.93-1.75,3.26,0,5.08,2.46,5.08,6.26,0,4.22-2.62,6.67-5.5,6.67-1.2,0-2.6-.62-3.71-1.67Zm6.63-4.97c0-2.58-.94-4.2-3.16-4.2-1.01,0-2.13.5-3.25,1.65v5.83c1.02.93,2.18,1.26,3.01,1.26,1.92,0,3.4-1.63,3.4-4.54Z" style="fill: #ffc259; stroke-width: 0px;"/>
      <path d="m376.53,982.9l3.52-.13h7.33v2h-10.86v-1.87Zm3.46-.98c0-2.95,1.59-5.01,5.11-5.01,1.27,0,2.47.25,3.6.7l-.54,1.87c-.95-.4-1.76-.56-2.79-.56-2.04,0-2.89,1.09-2.89,2.94v13.24h-2.49v-13.17Z" style="fill: #ffc259; stroke-width: 0px;"/>
      <path d="m391.42,982.77h2.05l.2,1.96h.1c1.23-1.27,2.64-2.27,4.54-2.27,2.88,0,4.2,1.77,4.2,4.98v7.65h-2.51v-7.32c0-2.15-.72-3.15-2.55-3.15-1.34,0-2.24.66-3.52,1.96v8.5h-2.51v-12.32Z" style="fill: #ffc259; stroke-width: 0px;"/>
      <path d="m421.17,997.31c0-.99.7-1.94,2-2.67v-.1c-.67-.37-1.26-1.01-1.26-2.05,0-.8.55-1.68,1.47-2.31v-.1c-.86-.63-1.55-1.72-1.55-3.19,0-2.76,2.3-4.43,4.96-4.43.72,0,1.33.1,1.88.3h5.07v1.96h-3.01c.48.53.91,1.36.91,2.25,0,2.69-2.14,4.21-4.85,4.21-.6,0-1.31-.13-1.98-.4-.55.35-.85.75-.85,1.29,0,.88.86,1.29,2.44,1.29h2.64c3.19,0,4.77.84,4.77,2.95,0,2.38-2.71,4.34-6.98,4.34-3.5,0-5.65-1.17-5.65-3.35Zm10.21-.58c0-1.07-.89-1.35-2.64-1.35h-2.18c-.76,0-1.37-.05-1.88-.19-1.02.57-1.39,1.19-1.39,1.83,0,1.2,1.34,1.92,3.79,1.92,2.63,0,4.3-1.05,4.3-2.21Zm-2-9.83c0-1.61-1.16-2.66-2.58-2.66s-2.58,1.05-2.58,2.66,1.17,2.69,2.58,2.69,2.58-1.03,2.58-2.69Z" style="fill: #19a3ff; stroke-width: 0px;"/>
      <path d="m436.25,988.92c0-4.01,3.02-6.44,6.32-6.44,3.62,0,5.67,2.38,5.67,5.82,0,.53-.06,1.04-.11,1.37h-10.14v-1.84h8.58l-.54.61c0-2.67-1.29-4.01-3.38-4.01s-3.93,1.59-3.93,4.5,1.9,4.52,4.55,4.52c1.38,0,2.49-.42,3.6-1.08l.88,1.59c-1.27.83-2.91,1.46-4.8,1.46-3.74,0-6.69-2.38-6.69-6.49Z" style="fill: #19a3ff; stroke-width: 0px;"/>
      <path d="m454.75,990.22v-5.44h-3.4v-1.87l3.5-.13.33-3.91h2.08v3.91h5.82v2h-5.82v5.45c0,2.12.75,3.15,2.98,3.15,1.08,0,1.96-.22,2.81-.53l.51,1.83c-1.11.38-2.33.72-3.9.72-3.69,0-4.91-2.09-4.91-5.18Z" style="fill: #19a3ff; stroke-width: 0px;"/>
      <path d="m469.96,988.09c0-4.84,2.12-8.7,5.57-11.47l1.39,1.21c-3.28,2.87-4.77,6.09-4.77,10.26s1.49,7.39,4.77,10.26l-1.39,1.21c-3.45-2.77-5.57-6.63-5.57-11.47Z" style="fill: #fff; stroke-width: 0px;"/>
      <path d="m480.97,990.78c0-4.85,7.04-5.62,7.04-9.09,0-.91-.37-1.67-1.39-1.67s-1.64.94-1.64,2.25c0,2.98,3.31,6.94,6.41,9.2,1.17.94,2.28,1.57,3.26,1.87l-.66,2.07c-1.29-.37-2.66-1.13-4.11-2.28-3.63-2.8-7.04-7.52-7.04-10.82,0-2.25,1.49-4.03,3.75-4.03s3.42,1.37,3.42,3.39c0,4.11-6.62,5.38-6.62,8.96,0,1.69,1.28,2.8,2.93,2.8,1.2,0,2.35-.77,3.3-1.87,1.2-1.42,2.06-3.26,2.59-5.49h2.31c-.65,2.47-1.67,4.74-3.16,6.67-1.36,1.58-3.06,2.66-5.36,2.66-3.06,0-5.03-1.98-5.03-4.62Z" style="fill: #fff; stroke-width: 0px;"/>
      <path d="m496.84,993.48l1.12-1.63c1.45,1,3.12,1.62,5.25,1.62,1.89,0,2.79-.75,2.79-1.68,0-.87-.51-1.42-3.62-2.06-3.25-.67-4.78-1.8-4.78-3.67,0-2.06,1.85-3.59,5.26-3.59,1.96,0,3.83.77,5.07,1.6l-1.18,1.57c-1.17-.78-2.59-1.26-4.11-1.26-1.83,0-2.54.72-2.54,1.57,0,.97.98,1.34,3.4,1.86,4.01.88,5.02,1.91,5.02,3.84,0,2.06-2,3.76-5.64,3.76-2.35,0-4.54-.88-6.05-1.92Z" style="fill: #ffc259; stroke-width: 0px;"/>
      <path d="m511.94,988.92c0-4.01,3.02-6.44,6.32-6.44,3.62,0,5.67,2.38,5.67,5.82,0,.53-.06,1.04-.11,1.37h-10.14v-1.84h8.58l-.54.61c0-2.67-1.29-4.01-3.38-4.01s-3.93,1.59-3.93,4.5,1.9,4.52,4.55,4.52c1.38,0,2.49-.42,3.6-1.08l.88,1.59c-1.27.83-2.91,1.46-4.8,1.46-3.74,0-6.69-2.38-6.69-6.49Z" style="fill: #ffc259; stroke-width: 0px;"/>
      <path d="m531.38,990.78v-11.56h-4.24v-2.01h6.75v13.72c0,1.71.97,2.4,2.32,2.4.67,0,1.39-.16,2.21-.52l.6,1.87c-1.18.46-2,.72-3.4.72-2.76,0-4.25-1.65-4.25-4.62Z" style="fill: #ffc259; stroke-width: 0px;"/>
      <path d="m543.04,982.9l3.52-.13h7.33v2h-10.86v-1.87Zm3.46-.98c0-2.95,1.59-5.01,5.11-5.01,1.27,0,2.47.25,3.6.7l-.54,1.87c-.95-.4-1.76-.56-2.79-.56-2.04,0-2.89,1.09-2.89,2.94v13.24h-2.49v-13.17Z" style="fill: #ffc259; stroke-width: 0px;"/>
      <path d="m558.82,998.35c3.28-2.87,4.77-6.09,4.77-10.26s-1.49-7.39-4.77-10.26l1.39-1.21c3.45,2.77,5.57,6.63,5.57,11.47s-2.12,8.7-5.57,11.47l-1.39-1.21Z" style="fill: #19a3ff; stroke-width: 0px;"/>
      <path d="m588.04,985.86h11.04v1.84h-11.04v-1.84Z" style="fill: #bb82fa; stroke-width: 0px;"/>
      <path d="m603.77,991.63l7.34-4.86v-.1l-7.34-4.86v-2.37l9.5,6.35v1.86l-9.5,6.35v-2.37Z" style="fill: #bb82fa; stroke-width: 0px;"/>
      <path d="m635.91,993.74h-.08l-.23,1.36h-1.98v-17.88h2.51v4.74l-.11,2.27h.08c1.06-1.07,2.55-1.75,3.93-1.75,3.26,0,5.08,2.46,5.08,6.26,0,4.22-2.62,6.67-5.5,6.67-1.2,0-2.6-.62-3.71-1.67Zm6.63-4.97c0-2.58-.94-4.2-3.16-4.2-1.01,0-2.13.5-3.25,1.65v5.83c1.02.93,2.18,1.26,3.01,1.26,1.92,0,3.4-1.63,3.4-4.54Z" style="fill: #f55; stroke-width: 0px;"/>
      <path d="m647.97,988.96c0-4.13,2.89-6.49,6.14-6.49s6.14,2.36,6.14,6.49-2.89,6.44-6.14,6.44-6.14-2.36-6.14-6.44Zm9.7,0c0-2.66-1.38-4.42-3.57-4.42s-3.56,1.76-3.56,4.42,1.38,4.38,3.56,4.38,3.57-1.74,3.57-4.38Z" style="fill: #f55; stroke-width: 0px;"/>
      <path d="m663.11,988.96c0-4.13,2.89-6.49,6.14-6.49s6.14,2.36,6.14,6.49-2.89,6.44-6.14,6.44-6.14-2.36-6.14-6.44Zm9.7,0c0-2.66-1.38-4.42-3.57-4.42s-3.56,1.76-3.56,4.42,1.38,4.38,3.56,4.38,3.57-1.74,3.57-4.38Z" style="fill: #f55; stroke-width: 0px;"/>
      <path d="m682.76,990.78v-11.56h-4.24v-2.01h6.75v13.72c0,1.71.97,2.4,2.32,2.4.67,0,1.39-.16,2.21-.52l.6,1.87c-1.18.46-2,.72-3.4.72-2.76,0-4.25-1.65-4.25-4.62Z" style="fill: #f55; stroke-width: 0px;"/>
      <path d="m713.37,995.52c0-1.83.25-3.06.25-4.72,0-.96-.7-1.91-3.61-1.94v-1.54c2.91-.03,3.61-.98,3.61-1.94,0-1.58-.25-2.98-.25-4.72,0-2.63,1.5-3.42,4.68-3.42h1.66v1.39h-1.24c-2.45,0-2.98.58-2.98,2.16,0,1.41.14,2.9.14,4.45,0,1.71-.6,2.5-2.36,2.8v.1c1.76.3,2.36,1.09,2.36,2.8s-.14,2.96-.14,4.45c0,1.58.53,2.16,2.98,2.16h1.24v1.39h-1.66c-3.18,0-4.68-.79-4.68-3.42Z" style="fill: #fff; stroke-width: 0px;"/>
      <path d="m375.74,1023.76l1.12-1.63c1.45.99,3.12,1.62,5.25,1.62,1.89,0,2.79-.75,2.79-1.68,0-.87-.51-1.42-3.62-2.06-3.25-.67-4.78-1.8-4.78-3.67,0-2.06,1.85-3.59,5.26-3.59,1.96,0,3.83.77,5.07,1.6l-1.18,1.57c-1.17-.78-2.59-1.26-4.11-1.26-1.83,0-2.54.72-2.54,1.57,0,.96.98,1.34,3.4,1.86,4.01.88,5.02,1.91,5.02,3.84,0,2.06-2,3.76-5.64,3.76-2.35,0-4.54-.88-6.05-1.92Z" style="fill: #ffc259; stroke-width: 0px;"/>
      <path d="m390.84,1019.19c0-4.01,3.02-6.44,6.32-6.44,3.62,0,5.67,2.38,5.67,5.82,0,.53-.06,1.04-.11,1.36h-10.14v-1.84h8.57l-.54.61c0-2.67-1.29-4.01-3.38-4.01s-3.93,1.59-3.93,4.5,1.9,4.52,4.55,4.52c1.38,0,2.49-.42,3.6-1.08l.88,1.59c-1.27.84-2.91,1.46-4.8,1.46-3.74,0-6.69-2.38-6.69-6.49Z" style="fill: #ffc259; stroke-width: 0px;"/>
      <path d="m410.29,1021.06v-11.56h-4.24v-2h6.75v13.72c0,1.71.97,2.4,2.32,2.4.67,0,1.39-.16,2.21-.52l.6,1.87c-1.18.46-2,.72-3.4.72-2.76,0-4.25-1.65-4.25-4.62Z" style="fill: #ffc259; stroke-width: 0px;"/>
      <path d="m421.94,1013.18l3.52-.13h7.33v2.01h-10.86v-1.88Zm3.46-.98c0-2.95,1.59-5.01,5.11-5.01,1.27,0,2.47.25,3.6.7l-.54,1.87c-.95-.4-1.76-.56-2.79-.56-2.04,0-2.89,1.09-2.89,2.94v13.24h-2.49v-13.17Z" style="fill: #ffc259; stroke-width: 0px;"/>
      <path d="m439.91,1023.32c0-1.36.98-2.36,2.27-2.36s2.27,1,2.27,2.36-.98,2.36-2.27,2.36-2.27-.97-2.27-2.36Z" style="fill: #fff; stroke-width: 0px;"/>
      <path d="m450.9,1013.05h2.55l2.6,6.67c.46,1.24.89,2.47,1.3,3.69h.1c.42-1.22.8-2.45,1.28-3.69l2.6-6.67h2.41l-4.96,12.32h-2.84l-5.05-12.32Z" style="fill: #19a3ff; stroke-width: 0px;"/>
      <path d="m466.79,1022.12c0-2.76,2.51-4.12,8.73-4.59-.09-1.52-.91-2.75-3.1-2.75-1.49,0-2.96.68-4.17,1.39l-.96-1.68c1.38-.85,3.43-1.75,5.57-1.75,3.4,0,5.16,1.95,5.16,5.21v7.42h-2.08l-.2-1.6h-.08c-1.32,1.03-3.03,1.9-4.72,1.9-2.36,0-4.17-1.38-4.17-3.56Zm8.73-.1v-2.89c-4.84.35-6.28,1.32-6.28,2.79,0,1.24,1.11,1.75,2.43,1.75s2.57-.62,3.85-1.66Z" style="fill: #19a3ff; stroke-width: 0px;"/>
      <path d="m485.97,1021.06v-11.56h-4.24v-2h6.75v13.72c0,1.71.97,2.4,2.32,2.4.67,0,1.39-.16,2.21-.52l.6,1.87c-1.18.46-2,.72-3.4.72-2.76,0-4.25-1.65-4.25-4.62Z" style="fill: #19a3ff; stroke-width: 0px;"/>
      <path d="m497.01,1020.69v-7.65h2.51v7.32c0,2.13.71,3.15,2.57,3.15,1.29,0,2.22-.57,3.45-2.03v-8.43h2.51v12.32h-2.07l-.2-2.05h-.1c-1.2,1.4-2.61,2.36-4.48,2.36-2.89,0-4.19-1.77-4.19-4.98Z" style="fill: #19a3ff; stroke-width: 0px;"/>
      <path d="m511.94,1019.19c0-4.01,3.02-6.44,6.32-6.44,3.62,0,5.67,2.38,5.67,5.82,0,.53-.06,1.04-.11,1.36h-10.14v-1.84h8.58l-.54.61c0-2.67-1.29-4.01-3.38-4.01s-3.93,1.59-3.93,4.5,1.9,4.52,4.55,4.52c1.38,0,2.49-.42,3.6-1.08l.88,1.59c-1.27.84-2.91,1.46-4.8,1.46-3.74,0-6.69-2.38-6.69-6.49Z" style="fill: #19a3ff; stroke-width: 0px;"/>
      <path d="m316.06,1058.09h1.22c2.45,0,3-.58,3-2.16,0-1.49-.14-2.78-.14-4.45s.58-2.5,2.34-2.8v-.1c-1.76-.3-2.34-1.09-2.34-2.8,0-1.54.14-3.04.14-4.45,0-1.58-.55-2.16-3-2.16h-1.22v-1.39h1.64c3.2,0,4.66.79,4.66,3.42,0,1.75-.24,3.14-.24,4.72,0,.96.7,1.91,3.61,1.94v1.54c-2.92.03-3.61.98-3.61,1.94,0,1.67.24,2.9.24,4.72,0,2.63-1.46,3.42-4.66,3.42h-1.64v-1.39Z" style="fill: #fff; stroke-width: 0px;"/>
      <path d="m270.65,1088.37h1.22c2.45,0,3-.58,3-2.16,0-1.49-.14-2.78-.14-4.45s.58-2.5,2.34-2.8v-.1c-1.76-.3-2.34-1.09-2.34-2.8,0-1.54.14-3.04.14-4.45,0-1.58-.55-2.16-3-2.16h-1.22v-1.39h1.64c3.2,0,4.66.79,4.66,3.42,0,1.75-.24,3.14-.24,4.72,0,.96.7,1.91,3.61,1.94v1.54c-2.92.03-3.61.98-3.61,1.94,0,1.67.24,2.9.24,4.72,0,2.63-1.46,3.42-4.66,3.42h-1.64v-1.39Z" style="fill: #fff; stroke-width: 0px;"/>
      <path d="m225.23,1118.64h1.22c2.45,0,3-.58,3-2.16,0-1.49-.14-2.78-.14-4.45s.58-2.5,2.34-2.8v-.1c-1.76-.3-2.34-1.09-2.34-2.8,0-1.54.14-3.04.14-4.45,0-1.58-.55-2.16-3-2.16h-1.22v-1.39h1.64c3.2,0,4.66.79,4.66,3.42,0,1.75-.24,3.14-.24,4.72,0,.96.7,1.91,3.61,1.94v1.54c-2.92.03-3.61.98-3.61,1.94,0,1.67.24,2.89.24,4.72,0,2.63-1.46,3.42-4.66,3.42h-1.64v-1.39Z" style="fill: #fff; stroke-width: 0px;"/>
    </g>
    <path d="m873.19,1169.58H168.27c-15.84,0-28.73-12.89-28.73-28.73V335.78c0-11.27,9.17-20.44,20.44-20.44h721.51c11.27,0,20.44,9.17,20.44,20.44v805.06c0,15.85-12.89,28.74-28.74,28.74ZM159.98,319.34c-9.06,0-16.44,7.37-16.44,16.44v805.08c0,13.64,11.09,24.73,24.73,24.73h704.92c13.64,0,24.74-11.1,24.74-24.74V335.78c0-9.06-7.37-16.44-16.44-16.44H159.98Z" style="fill: #bb82fa; stroke-width: 0px;"/>
  </g>
</svg>