<?xml version="1.0" encoding="utf-8"?>
<!-- Generator: Adobe Illustrator 26.4.1, SVG Export Plug-In . SVG Version: 6.00 Build 0)  -->
<svg version="1.1" id="Layer_1" xmlns="http://www.w3.org/2000/svg" xmlns:xlink="http://www.w3.org/1999/xlink" x="0px" y="0px"
	 viewBox="0 0 78.63 78.63" style="enable-background:new 0 0 78.63 78.63;" xml:space="preserve">
<style type="text/css">
	.st0{fill:#BC83FB;}
	.st1{fill-rule:evenodd;clip-rule:evenodd;fill:#FFFFFF;}
</style>
<ellipse transform="matrix(0.7071 -0.7071 0.7071 0.7071 -16.2846 39.3144)" class="st0" cx="39.31" cy="39.31" rx="40.8" ry="37.77"/>
<g>
	<g>
		<ellipse class="st1" cx="46.8" cy="29.52" rx="4.93" ry="6.36"/>
		
			<ellipse transform="matrix(0.0791 -0.9969 0.9969 0.0791 -3.0788 88.3859)" class="st1" cx="46.3" cy="45.86" rx="4.62" ry="3.58"/>
		
			<ellipse transform="matrix(0.092 -0.9958 0.9958 0.092 -16.9681 98.7354)" class="st1" cx="45.66" cy="58.67" rx="3.51" ry="2.72"/>
	</g>
	<path class="st1" d="M39.16,29.52c0,3.49,1.51,6.52,3.74,8.06c0.69,0.48,0.76,1.49,0.11,2.03c-1.5,1.26-2.58,3.35-2.77,5.79
		c-0.22,2.77,0.75,5.28,2.38,6.71c0.58,0.51,0.56,1.39-0.01,1.91c-1.06,0.97-1.81,2.48-1.97,4.24c-0.3,3.18,1.47,5.95,3.93,6.17
		c0.06,0.01,0.14,0.01,0.21,0.01c0.52-0.01,0.83,0.63,0.47,1c-0.28,0.28-0.66,0.45-1.08,0.45h-8.37c-0.84,0-1.52-0.68-1.52-1.52
		V31.52c0-0.28-0.17-0.53-0.43-0.63l-4.32-1.67c-2.42-0.94-3.37-3.86-1.97-6.05l6.09-9.45c0.39-0.61,1.06-0.97,1.78-0.97h8.74
		c0.84,0,1.52,0.68,1.52,1.52l0,5.07c0,0.57-0.36,1.09-0.91,1.23C41.57,21.44,39.16,25.12,39.16,29.52z"/>
</g>
</svg>
