<?xml version="1.0" encoding="utf-8"?>
<!-- Generator: Adobe Illustrator 26.4.1, SVG Export Plug-In . SVG Version: 6.00 Build 0)  -->
<svg version="1.1" id="Layer_1" xmlns="http://www.w3.org/2000/svg" xmlns:xlink="http://www.w3.org/1999/xlink" x="0px" y="0px"
	 viewBox="0 0 78.63 78.63" style="enable-background:new 0 0 78.63 78.63;" xml:space="preserve">
<style type="text/css">
	.st0{fill:#BC83FB;}
	.st1{fill-rule:evenodd;clip-rule:evenodd;fill:#FFFFFF;}
</style>
<ellipse transform="matrix(0.7071 -0.7071 0.7071 0.7071 -16.2846 39.3144)" class="st0" cx="39.31" cy="39.31" rx="40.8" ry="37.77"/>
<g>
	<g>
		<g>
			<g>
				
					<ellipse transform="matrix(0.7601 -0.6498 0.6498 0.7601 -9.4926 41.6786)" class="st1" cx="51.7" cy="33.7" rx="4.93" ry="6.36"/>
			</g>
			<g>
				
					<ellipse transform="matrix(0.1634 -0.9866 0.9866 0.1634 -0.3213 97.417)" class="st1" cx="57.28" cy="48.9" rx="4.62" ry="3.58"/>
			</g>
			<g>
				
					<ellipse transform="matrix(0.8367 -0.5477 0.5477 0.8367 -24.7555 37.9516)" class="st1" cx="51.25" cy="60.48" rx="3.28" ry="2.54"/>
			</g>
		</g>
	</g>
	<path class="st1" d="M52.69,53.85c0.4,0.61,0.03,1.42-0.69,1.56c-0.83,0.17-2.19,0.51-2.98,1.03c-2.66,1.74-3.36,3.91-2.44,6.91
		c0.14,0.46,0.17,0.92-0.27,1.11c-1.77,0.77-3.7,1.24-5.75,1.37c-9.55,0.59-17.91-6.47-18.75-16.18c-0.08-0.88,0.64-1.62,1.52-1.62
		l8.48,0c0.73,0,1.35,0.52,1.49,1.23c0.37,1.83,1.65,5.06,6.14,5.06c3.23,0,6-3.18,6-7.5s-2.3-7.43-5.58-7.84
		c-2.07-0.26-4.8,0.23-6.29,2.14c-0.3,0.38-0.74,0.62-1.23,0.62l-9.08,0c-0.84,0-1.52-0.68-1.52-1.52V14.29
		c0-0.84,0.69-1.53,1.53-1.53h29.55c0.84,0,1.53,0.69,1.53,1.53v8.36c0,0.84-0.68,1.52-1.52,1.52H33.84c-0.38,0-0.69,0.31-0.69,0.69
		v5.46c0,0.53,0.56,0.86,1.02,0.6c1.2-0.69,3.46-1.63,6.76-1.58c0.56,0.01,1.11,0.04,1.65,0.1c0.58,0.06,0.99,0.61,0.88,1.18
		c-0.47,2.49,0.36,5.5,2.46,7.95c1.74,2.03,4.5,3.27,6.66,3.59c0.76,0.11,1.11,1.02,0.65,1.64c-0.81,1.08-1.41,2.45-1.66,3.98
		C51.18,50.09,51.65,52.28,52.69,53.85z"/>
</g>
</svg>
