<?xml version="1.0" encoding="utf-8"?>
<!-- Generator: Adobe Illustrator 26.4.1, SVG Export Plug-In . SVG Version: 6.00 Build 0)  -->
<svg version="1.1" id="Layer_1" xmlns="http://www.w3.org/2000/svg" xmlns:xlink="http://www.w3.org/1999/xlink" x="0px" y="0px"
	 viewBox="0 0 78.63 78.63" style="enable-background:new 0 0 78.63 78.63;" xml:space="preserve">
<style type="text/css">
	.st0{fill:#BC83FB;}
	.st1{fill-rule:evenodd;clip-rule:evenodd;fill:#FFFFFF;}
</style>
<ellipse transform="matrix(0.7071 -0.7071 0.7071 0.7071 -16.2846 39.3144)" class="st0" cx="39.31" cy="39.31" rx="40.8" ry="37.77"/>
<g>
	<g>
		<g>
			<g>
				
					<ellipse transform="matrix(0.3118 -0.9501 0.9501 0.3118 6.4939 72.6568)" class="st1" cx="53.4" cy="31.85" rx="6.36" ry="4.93"/>
			</g>
			<g>
				
					<ellipse transform="matrix(0.386 -0.9225 0.9225 0.386 -13.9692 73.5442)" class="st1" cx="48.26" cy="47.27" rx="4.67" ry="3.62"/>
			</g>
			<g>
				
					<ellipse transform="matrix(0.3979 -0.9174 0.9174 0.3979 -27.1634 76.022)" class="st1" cx="44.34" cy="58.71" rx="3.28" ry="2.54"/>
			</g>
		</g>
	</g>
	<path class="st1" d="M57.91,14.7l-2.21,7.43c-0.15,0.5-0.64,0.81-1.16,0.76c-3.36-0.26-6.88,2.5-8.28,6.74
		c-1.15,3.5-0.53,7.05,1.33,9.18c0.48,0.55,0.25,1.43-0.44,1.68c-1.79,0.66-3.44,2.26-4.37,4.46c-1.11,2.65-0.85,5.44,0.45,7.21
		c0.38,0.52,0.26,1.25-0.3,1.56c-1.08,0.6-2.05,1.66-2.65,3.03c-1.2,2.76-0.43,5.75,1.71,6.68c0.1,0.04,0.21,0.08,0.32,0.12
		c0.51,0.16,0.83,0.68,0.67,1.19l-0.01,0.02c-0.19,0.64-0.79,1.08-1.46,1.08h-8.23c-1.02,0-1.75-0.98-1.46-1.96l5.44-18.24
		c0.13-0.43-0.2-0.87-0.64-0.87h-0.76c-0.84,0-1.52-0.68-1.52-1.52v-8.37c0-0.84,0.68-1.52,1.52-1.52h4.56c0.3,0,0.56-0.2,0.64-0.48
		l2.35-7.9c0.13-0.43-0.2-0.87-0.65-0.87H23.65c-0.84,0-1.52-0.68-1.52-1.52v-8.38c0-0.84,0.68-1.52,1.52-1.52h32.8
		C57.47,12.75,58.2,13.73,57.91,14.7z"/>
</g>
</svg>
