<?xml version="1.0" encoding="utf-8"?>
<!-- Generator: Adobe Illustrator 26.4.1, SVG Export Plug-In . SVG Version: 6.00 Build 0)  -->
<svg version="1.1" id="Layer_1" xmlns="http://www.w3.org/2000/svg" xmlns:xlink="http://www.w3.org/1999/xlink" x="0px" y="0px"
	 viewBox="0 0 78.63 78.63" style="enable-background:new 0 0 78.63 78.63;" xml:space="preserve">
<style type="text/css">
	.st0{fill:#BC83FB;}
	.st1{fill-rule:evenodd;clip-rule:evenodd;fill:#FFFFFF;}
</style>
<ellipse transform="matrix(0.7071 -0.7071 0.7071 0.7071 -16.2846 39.3144)" class="st0" cx="39.31" cy="39.31" rx="40.8" ry="37.77"/>
<g>
	<g>
		
			<ellipse transform="matrix(0.8589 -0.5122 0.5122 0.8589 -12.9767 33.1449)" class="st1" cx="53.66" cy="40.12" rx="4.4" ry="5.67"/>
		
			<ellipse transform="matrix(0.2257 -0.9742 0.9742 0.2257 -11.2315 93.9175)" class="st1" cx="53.47" cy="54.02" rx="4.46" ry="3.45"/>
		
			<ellipse transform="matrix(0.8979 -0.4402 0.4402 0.8979 -23.0012 27.1038)" class="st1" cx="46.93" cy="63.14" rx="3.15" ry="2.44"/>
	</g>
	<path class="st1" d="M48.08,43.79c-2.29-3.83-1.73-8.37,1.24-10.15c0.52-0.31,1.07-0.51,1.65-0.61c0.32-0.06,0.6-0.28,0.73-0.58
		c0.77-1.74,1.2-3.66,1.2-5.69c0-8.01-6.74-14.46-14.88-13.97c-6.76,0.4-12.34,5.72-13.06,12.45c-0.41,3.94,0.81,7.6,3.08,10.37
		c0.23,0.29,0.2,0.7-0.08,0.95c-3.76,3.27-6.05,8.19-5.72,13.65c0.5,8.33,7.28,15.12,15.61,15.62c1.19,0.07,2.35,0.02,3.48-0.14
		c0.57-0.08,0.97-0.64,0.84-1.21c-0.41-1.69,0.33-3.85,2.82-5.14c0.7-0.37,1.55-0.55,2.26-0.62c0.67-0.06,1.1-0.76,0.85-1.39
		c-0.52-1.34-0.65-2.96-0.27-4.62c0.44-1.9,1.47-3.47,2.75-4.43c0.55-0.42,0.58-1.24,0.03-1.66C49.65,45.9,48.78,44.94,48.08,43.79z
		 M38.88,23.68c2.58,0,4.68,2.09,4.68,4.67c0,1.88-1.11,3.51-2.71,4.24c-0.6,0.28-1.26,0.44-1.97,0.44c-0.7,0-1.36-0.16-1.96-0.44
		c-1.6-0.74-2.71-2.36-2.71-4.24C34.21,25.77,36.31,23.68,38.88,23.68z M38.88,54.36c-3.53,0-6.4-2.86-6.4-6.4
		c0-3.53,2.86-6.4,6.4-6.4c3.53,0,6.4,2.86,6.4,6.4C45.29,51.5,42.42,54.36,38.88,54.36z"/>
</g>
</svg>
