<?xml version="1.0" encoding="UTF-8"?>
<svg id="Layer_1" data-name="Layer 1" xmlns="http://www.w3.org/2000/svg" viewBox="0 0 416.36 335.81">
  <g>
    <g>
      <g>
        <g>
          <path d="m256.43,302.63l-4.64,19.53c-.18.76-.41,1.52-.7,2.24-2.59,6.8-9.15,11.41-16.6,11.41h-66.97c-9.97,0-19.4-4.2-26.05-11.41-1.21-1.31-2.33-2.73-3.35-4.23l-11.81-17.54h130.1Z" style="fill: #6957de; stroke-width: 0px;"/>
          <path d="m256.43,302.63l-4.64,19.53c-.18.76-.41,1.52-.7,2.24h-109.61c-1.21-1.31-2.33-2.73-3.35-4.23l-11.81-17.54h130.1Z" style="fill: #4538a3; stroke-width: 0px;"/>
        </g>
        <path d="m315.05,75.94c71.84-1.04,81.35,1.08,69.44,51.76l-69.44-51.76Z" style="fill: #4538a3; stroke-width: 0px;"/>
        <path d="m381.99,249.72c-.66,49.75-7.29,47.85-77.63,48.73l77.63-48.73Z" style="fill: #4538a3; stroke-width: 0px;"/>
        <path d="m416.35,185.76c-.2,14.36-6.72,30.21-18.33,45.78-24.28,32.6-70.81,63.95-127.93,77.73h-.01c-19.77,4.78-40.8,7.45-62.62,7.32-34.25-.19-66.58-6.1-95.07-16.09h-.01c-23.82-8.36-44.96-19.55-62.29-32.65C18.55,244.04-.41,213.98,0,183.52c.4-30.72,20.03-60.78,52.17-84.34,2.51-1.84,5.09-3.64,7.75-5.39,37.87-25.02,90.59-41.42,148.97-41.1,36.98.2,71.7,8.36,101.78,21.18,39.21,16.69,70.5,41.27,88.58,66.4,11.19,15.53,17.31,31.27,17.11,45.49Z" style="fill: #8c7cf8; stroke-width: 0px;"/>
        <path d="m416.36,185.76c-.2,14.36-6.73,30.21-18.34,45.78-5.97,8-13.27,15.93-21.74,23.54,0,0-.01,0-.01,0-11.77,10.58-25.79,20.54-41.61,29.24-19.16,10.55-40.96,19.25-64.56,24.94h-.01c-19.77,4.78-40.8,7.44-62.63,7.32-34.24-.19-66.57-6.1-95.07-16.09h-.01c-23.81-8.36-44.96-19.55-62.29-32.65-5.17-3.9-10.01-7.98-14.47-12.19C12.86,234.17-.33,208.99,0,183.52c.4-30.72,20.03-60.78,52.17-84.34,2.51-1.84,5.09-3.64,7.74-5.39,37.88-25.02,90.59-41.42,148.97-41.1,36.98.2,71.7,8.36,101.78,21.18,8.56,3.65,16.74,7.67,24.49,11.99,0,.01.03.02.04.02,27.73,15.46,49.92,34.76,64.04,54.39,11.19,15.54,17.31,31.28,17.12,45.49Z" style="fill: #8c7cf8; stroke-width: 0px;"/>
        <path d="m416.36,185.76c-.2,14.36-6.73,30.21-18.34,45.78-5.97,8.01-13.27,15.94-21.75,23.55t-.02.01c-4.25,3.83-8.8,7.57-13.62,11.2-.62.47-1.25.94-1.89,1.4-.72.54-1.46,1.07-2.2,1.6-.88.64-1.77,1.27-2.67,1.89-.61.42-1.22.84-1.83,1.26-1.53,1.04-3.08,2.07-4.65,3.09-.74.48-1.49.95-2.24,1.43-.92.58-1.86,1.16-2.8,1.74-.72.44-1.45.88-2.18,1.31-.74.45-1.49.89-2.24,1.32-1.73,1.02-3.49,2.01-5.27,2.99.17-.1.33-.19.5-.29,5.54-3.15,10.43-8.05,14.65-14.3,30.64-45.26,26.52-160.73-14.61-183.86,27.73,15.46,49.92,34.76,64.04,54.39,11.19,15.54,17.31,31.28,17.12,45.49Z" style="fill: #b7aeff; stroke-width: 0px;"/>
        <path d="m401.31,151.8c-59.64-39.77-126.25-62.91-192.62-66.9-60.96-3.67-119.54,8.49-169.42,35.15l-1.89-3.53c50.53-27.02,109.86-39.33,171.55-35.62,67.08,4.04,134.38,27.4,194.6,67.57l-2.22,3.33Z" style="fill: #6957de; stroke-width: 0px;"/>
        <path d="m313.22,104.41c-1.27,4.16-4.64,8.42-9.69,12.58-19.95,16.46-66.09,31.25-112.08,30.64-42.51-.57-84.18-11.81-106.13-25.47-7.82-4.87-13.14-10.04-15.1-15.15-2.24-5.84-1.17-13.09,2.42-20.98,36.56-20.59,84.15-33.63,136.25-33.34,35.93.19,69.74,7.91,99.22,20.1,6,10.6,8.22,21.46,5.11,31.62Z" style="fill: #6957de; stroke-width: 0px;"/>
        <path d="m202.15,270.92c-6.81,0-13.63-.15-20.45-.46-48.89-2.22-98.02-12.45-146.03-30.41l1.4-3.75c47.58,17.8,96.26,27.94,144.7,30.15,38.76,1.77,77.44-1.51,114.98-9.75,63.96-14.03,102.93-37.9,103.31-38.14l2.11,3.4c-.39.24-39.82,24.42-104.39,38.61-31.29,6.88-63.38,10.34-95.63,10.34Z" style="fill: #6957de; stroke-width: 0px;"/>
        <path d="m402.88,169.26c-.47-.1-47.42-10.51-116.21-17.02-63.45-6-158.97-9.82-253.72,6.09l-.66-3.94c95.21-15.98,191.13-12.15,254.83-6.12,69.01,6.53,116.17,16.99,116.64,17.09l-.87,3.9Z" style="fill: #6957de; stroke-width: 0px;"/>
        <path d="m313.21,104.41c-1.27,4.15-4.64,8.42-9.69,12.58-19.94,16.45-66.09,31.24-112.08,30.63-42.5-.57-84.18-11.81-106.12-25.47-7.82-4.86-13.14-10.04-15.1-15.15C58.67,76.88,115.99,0,192.98,0s132.82,63.29,120.23,104.41Z" style="fill: #f3f1fe; stroke-width: 0px;"/>
        <path d="m303.53,116.99c-19.94,16.45-66.09,31.24-112.08,30.63-42.5-.57-84.18-11.81-106.12-25.47,2.97-29.81,207.97-30.73,218.21-5.16Z" style="fill: #d4cbfe; stroke-width: 0px;"/>
        <g>
          <circle cx="264.04" cy="79.92" r="5.94" style="fill: #d4cbfe; stroke-width: 0px;"/>
          <circle cx="95.15" cy="88.18" r="5.94" style="fill: #d4cbfe; stroke-width: 0px;"/>
          <circle cx="155.51" cy="36.46" r="4.29" style="fill: #d4cbfe; stroke-width: 0px;"/>
          <circle cx="151.21" cy="70.56" r="6.54" style="fill: #d4cbfe; stroke-width: 0px;"/>
          <circle cx="285.45" cy="95.63" r="4.34" style="fill: #d4cbfe; stroke-width: 0px;"/>
        </g>
        <path d="m219.42,213.92c-55.91,0-120.75-3.16-189.26-12.67l.55-3.96c201.87,28.05,371.92.7,373.62.42l.65,3.95c-1.12.19-76.22,12.27-185.56,12.27Z" style="fill: #6957de; stroke-width: 0px;"/>
        <path d="m47.95,264.47c.69,1.17,1.4,2.29,2.14,3.38-1.29-.97-2.56-1.96-3.81-2.96-.63-.5-1.25-1-1.86-1.5-.02-.01-.03-.02-.04-.03-.61-.5-1.2-.99-1.79-1.49-.6-.51-1.2-1.02-1.79-1.53-.6-.51-1.18-1.03-1.76-1.55-1.16-1.03-2.3-2.07-3.41-3.12h-.01C12.86,234.17-.33,208.99,0,183.52c.4-30.72,20.03-60.78,52.17-84.34-25.7,39.78-28.6,124.42-4.23,165.29Z" style="fill: #b7aeff; stroke-width: 0px;"/>
        <path d="m52.17,99.17c-11.31,20.7-15.83,44.7-17.85,67.98-2.32,32.15.11,71.95,15.76,100.69-19.45-25.63-22.74-64.37-20.62-95.58,2.09-24.84,8.04-52.52,22.7-73.1h0Z" style="fill: #6957de; stroke-width: 0px;"/>
        <path d="m398.02,231.53s10.51-49.82,1.21-91.26h.01c11.19,15.53,17.31,31.27,17.11,45.49-.2,14.36-6.72,30.21-18.33,45.78Z" style="fill: #6957de; stroke-width: 0px;"/>
        <path d="m271.84,44.82c13.25,10.4,20.49,23.31,16.15,28.83-4.33,5.53-17.56-.49-30.82-10.88-13.25-10.4-21.52-21.24-17.18-26.77,4.33-5.53,18.59-1.58,31.85,8.82Z" style="fill: #fff; stroke-width: 0px;"/>
        <path d="m279.4,190.62c13.93,30.7,85.61,18.51,92.44,0h-92.44Z" style="fill: #6957de; stroke-width: 0px;"/>
        <path d="m281.59,187.23c16.5-9.97,115.71-4.64,87.92,6.54-27.79,11.18-104.42,3.43-87.92-6.54Z" style="fill: #4538a3; stroke-width: 0px;"/>
        <path d="m12.46,157.76c3.55,3.31,19.6-27.09,14.69-26.92s-18.24,23.6-14.69,26.92Z" style="fill: #fff; stroke-width: 0px;"/>
        <path d="m399.24,140.27c10.3,27.79,9.4,63.66-1.22,91.26.97-7.67,1.79-15.26,2.38-22.86,1.17-14.19,1.48-28.46.92-42.67-.12-1.83-.39-6.66-.49-8.55-.41-5.57-1.11-11.65-1.59-17.18h0Z" style="fill: #4538a3; stroke-width: 0px;"/>
        <path d="m349.81,269.74c-4.22,6.25-9.11,11.15-14.65,14.3-.17.1-.33.19-.5.29-19.16,10.55-40.96,19.25-64.56,24.94h-.01c-19.77,4.78-40.8,7.44-62.63,7.32-34.24-.19-66.57-6.1-95.07-16.09h-.01c-23.81-8.36-44.96-19.55-62.29-32.65-.74-1.09-1.45-2.21-2.14-3.38,72.02,46.4,204.44,52.27,301.86,5.27Z" style="fill: #6957de; stroke-width: 0px;"/>
        <path d="m50.09,267.85c-1.29-.97-2.56-1.96-3.81-2.96-.63-.5-1.25-1-1.86-1.5-.02-.01-.03-.02-.04-.03-.61-.5-1.2-.99-1.79-1.49-.6-.51-1.2-1.02-1.79-1.53-.6-.51-1.18-1.03-1.76-1.55-1.16-1.03-2.3-2.07-3.41-3.12,3.87,3.08,7.99,6.02,12.32,8.8.69,1.17,1.4,2.29,2.14,3.38Z" style="fill: #8c7cf8; stroke-width: 0px;"/>
        <path d="m376.25,255.1c-4.25,3.83-8.8,7.57-13.62,11.2-.62.47-1.25.94-1.89,1.4-.72.54-1.46,1.07-2.2,1.6-.88.64-1.77,1.27-2.67,1.89-.61.42-1.22.84-1.83,1.26-1.53,1.04-3.08,2.07-4.65,3.09-.74.48-1.49.95-2.24,1.43-.92.58-1.86,1.16-2.8,1.74-.72.44-1.45.88-2.18,1.31-.74.45-1.49.89-2.24,1.32-1.73,1.02-3.49,2.01-5.27,2.99.17-.1.33-.19.5-.29,5.54-3.15,10.43-8.05,14.65-14.3,9.15-4.4,17.99-9.28,26.44-14.64Z" style="fill: #8c7cf8; stroke-width: 0px;"/>
      </g>
      <g>
        <polygon points="306.76 209.34 306.76 255.1 311.53 255.1 311.53 208.91 306.76 209.34" style="fill: #6957de; stroke-width: 0px;"/>
        <g>
          <ellipse cx="327.65" cy="228.64" rx="8.25" ry="7.71" transform="translate(-40.76 74.02) rotate(-12.14)" style="fill: #4538a3; stroke-width: 0px;"/>
          <ellipse cx="344.15" cy="221.1" rx="3.58" ry="3.34" transform="translate(-38.8 77.32) rotate(-12.14)" style="fill: #6957de; stroke-width: 0px;"/>
          <ellipse cx="344.15" cy="231.4" rx="3.58" ry="3.34" transform="translate(-40.97 77.55) rotate(-12.14)" style="fill: #6957de; stroke-width: 0px;"/>
          <ellipse cx="326.34" cy="228.3" rx="3.73" ry="3.63" transform="translate(-40.71 73.73) rotate(-12.14)" style="fill: #bc83fb; stroke-width: 0px;"/>
        </g>
      </g>
      <path d="m331.83,90.18s-.06,0-.09,0c-1.1-.05-1.96-.98-1.91-2.09,1.21-26.98,13.27-41.79,23.17-49.47,10.76-8.34,21.14-10.23,21.58-10.31,1.09-.19,2.12.54,2.31,1.62.19,1.09-.54,2.12-1.62,2.32-.1.02-9.98,1.85-19.97,9.64-13.34,10.42-20.57,26.02-21.48,46.37-.05,1.07-.93,1.91-2,1.91Z" style="fill: #6957de; stroke-width: 0px;"/>
      <circle cx="378.62" cy="29.37" r="6.35" style="fill: #b7aeff; stroke-width: 0px;"/>
    </g>
    <path d="m43.05,166c0,6.72,54.91,4.23,51.2-3.03s-51.2-5.14-51.2,3.03Z" style="fill: #b7aeff; stroke-width: 0px;"/>
  </g>
  <g>
    <g>
      <path d="m171.67,150.31l-23.35-3.19-22.02-3c-16.15-12.59-39.51-64.9,9.47-105.54,1.46-1.22,3.5.52,2.55,2.17-21.11,36.54-7.86,78.81,33.35,109.57Z" style="fill: #bc83fb; stroke-width: 0px;"/>
      <path d="m148.32,147.12l-22.02-3c-16.15-12.59-39.51-64.9,9.47-105.54-33.43,34.6-8.3,88.67,12.55,108.54Z" style="fill: #8747cc; stroke-width: 0px;"/>
      <path d="m116.33,75.95c-1.37,5.05-3.28,8.76-5.52,8.15s-2.95-5.2-1.57-10.25,4.31-8.65,6.55-8.04c2.24.61,1.92,5.09.55,10.14Z" style="fill: #d8b7fb; stroke-width: 0px;"/>
      <path d="m120.81,115.02c2.32,7.21,2.57,12.99-1.06,14.16-3.63,1.17-8.45-3.73-10.77-10.94-2.32-7.21-1.27-14,2.36-15.17,3.63-1.17,7.15,4.74,9.48,11.95Z" style="fill: #d8b7fb; stroke-width: 0px;"/>
    </g>
    <g>
      <path d="m208.47,12.22c2.63.13,16.86,27.65,27.87,40.86,11.49,13.78,6.02,19.15-3.46,27.73-7.08,6.4-56.28-2.82-56.28-2.82-6.81-7.5-11.36-13.8-.09-27.09,12.49-14.72,29.33-38.8,31.96-38.67Z" style="fill: #8747cc; stroke-width: 0px;"/>
      <path d="m167.82,88.44c24.82-36.37,37.83-70.87,40.6-67.11s23.27,53.86,33.08,70.8l-73.68-3.7Z" style="fill: #bc83fb; stroke-width: 0px;"/>
      <path d="m239.7,123.2c-.05.28-.11.55-.17.82,0,.03-.01.06-.02.1-3.4,15.18-15.7,25.69-32.89,26.87-13.48.93-25.83-5.15-33.47-15.13-4.48-5.84-7.35-13.02-7.89-20.91-1.47-21.37,14.67-39.89,36.04-41.36,21.38-1.47,37.58,17.28,39.05,38.66.26,3.85.03,7.52-.65,10.95Z" style="fill: #bc83fb; stroke-width: 0px;"/>
      <path d="m207.35,74.75c14.08,10.25,28.4,13.39,32.61,14.14.81.14,1.53.59,1.98,1.27,4.77,7.22,4.38,13.19,3.48,16.57-.46,1.71-2.3,2.64-3.97,2.06-16.32-5.62-31-14.16-35.9-17.15-1.04-.63-2.34-.59-3.33.1-4.57,3.21-18.46,11.86-35.92,12.15-1.55.03-2.87-1.1-3.1-2.63-.55-3.66-.64-10.45,4.67-15.74.47-.47,1.1-.73,1.76-.81,18.09-2.08,30.2-7.89,34.43-10.21,1.05-.57,2.32-.46,3.29.24Z" style="fill: #bc83fb; stroke-width: 0px;"/>
      <path d="m204.78,67.37c.23-13.23.97-26.44,1.82-39.65.09-1.09,1.72-1.05,1.73.06-.13,13.23-.36,26.46-1.1,39.67-.11,1.56-2.45,1.49-2.45-.09h0Z" style="fill: #8747cc; stroke-width: 0px;"/>
      <g>
        <path d="m198.33,130.53c1.16,4.41,8.87,4.85,10.13.29.41-1.38,2.42-.89,2.21.52-.53,5.97-8.2,7.45-12.21,4.21-1.41-.8-4.02-5.49-1.34-5.98.58-.03,1.08.39,1.21.96h0Z" style="stroke-width: 0px;"/>
        <path d="m207.45,123.11c1.1-7.9,11.46-11.08,16.92-5.76,1.68,1.2,4.85,7.66,1.66,8.13-.67.04-1.25-.4-1.45-1.03-.52-1.71-1.43-3.09-2.64-4.03-3.86-2.96-9.97-1.28-11.75,3.53-.68,1.6-3.01.87-2.74-.84h0Z" style="stroke-width: 0px;"/>
        <path d="m197.59,123.42c-2.05-6.85-11.98-7.47-14.36-.5-.64,1.61-2.98.95-2.76-.77.95-8.21,11.21-11.03,16.78-5.74,1.64,1.18,5.02,7.46,1.84,8.07-.69.07-1.31-.4-1.51-1.06h0Z" style="stroke-width: 0px;"/>
      </g>
      <path d="m238.86,109.65c-12.77-3.49-24.79-10.24-35.47-17.56.31.19.75.16,1.04-.08.03-.02-.03.02-.04.03l-.13.1c-10.42,8.36-23.92,12.8-37.22,12.75-1.18-.02-1.32-1.8-.1-1.94,11.32-1.28,22.35-4.66,31.99-10.73,1.17-.76,2.33-1.55,3.42-2.42.82-.78,2.05-.79,2.91-.07,5.2,3.65,10.6,7.08,16.17,10.13,5.73,3.17,11.72,6.04,17.86,8.14,1.02.29.66,1.89-.43,1.63h0Z" style="fill: #8747cc; stroke-width: 0px;"/>
      <path d="m171.34,83.92c8.87-1.2,17.88-3.18,25.99-7.01,2.95-1.45,5.97-3.1,8.27-5.43,5.16,3.86,10.66,7.29,16.5,10.07,5.41,2.62,11.11,4.86,16.9,6.46.47.11.76.59.64,1.06-.12.45-.57.72-1.02.61-3.05-.69-5.98-1.57-8.91-2.57-5.85-1.99-11.54-4.44-16.96-7.42-2.74-1.46-5.35-3.14-7.94-4.87l2.01-.13c-7.56,5.72-17.02,8.06-26.16,9.75-2.68.45-6.41.89-9.13,1.15-1.07.1-1.3-1.53-.18-1.68h0Z" style="fill: #8747cc; stroke-width: 0px;"/>
      <g style="opacity: .6;">
        <path d="m239.51,124.12c-3.4,15.18-15.7,25.69-32.89,26.87-13.48.93-25.83-5.15-33.47-15.13,24.57,18.02,62.72,2.28,66.36-11.74Z" style="fill: #8747cc; stroke-width: 0px;"/>
      </g>
    </g>
  </g>
  <g>
    <path d="m198.3,161.82c-121.41,0-150.02-44.43-138.38-68.03,4.07-2.69,8.32-5.28,12.72-7.76-3.59,7.89-4.66,15.14-2.42,20.98,1.96,5.11,7.28,10.28,15.1,15.15,21.95,13.66,63.62,24.9,106.13,25.47,45.99.61,92.13-14.18,112.08-30.64,5.05-4.16,8.42-8.42,9.69-12.58,3.11-10.16.89-21.02-5.11-31.62.86.36,1.71.72,2.56,1.08,37.84,31.14,12.75,87.95-112.37,87.95Z" style="fill: #6957de; stroke-width: 0px;"/>
    <path d="m321.83,86.59c8.36,12.79,6.99,28.23-2.31,40.15-25,31.49-81.18,37.06-118.9,37.49-40.24-.16-89.19-3.79-123.12-27.29-8.53-6.32-16.42-14.6-19.19-25.11-.89-3.45-1.14-7.07-.62-10.56-.56,7.04,2.04,13.92,6.05,19.59,30.56,41.25,131.39,41.69,178.71,35.87,25.76-3.55,57.68-10.92,75.19-31.46,9.48-11,11.33-25.89,4.18-38.68h0Z" style="fill: #4538a3; stroke-width: 0px;"/>
  </g>
</svg>