<?xml version="1.0" encoding="utf-8"?>
<!-- Generator: Adobe Illustrator 27.6.1, SVG Export Plug-In . SVG Version: 6.00 Build 0)  -->
<svg version="1.1" id="Layer_1" xmlns="http://www.w3.org/2000/svg" xmlns:xlink="http://www.w3.org/1999/xlink" x="0px" y="0px"
	 viewBox="0 0 1600 500" style="enable-background:new 0 0 1600 500;" xml:space="preserve">
<style type="text/css">
	.st0{fill-rule:evenodd;clip-rule:evenodd;fill:#BFB8FF;}
	.st1{fill-rule:evenodd;clip-rule:evenodd;fill:#C6BFFF;}
	.st2{fill:#27168C;}
	.st3{fill:#6957DE;}
	.st4{fill:#730052;}
	.st5{fill:#4F3FBF;}
	.st6{fill:#8C7CF8;}
	.st7{fill:#FFFFFF;}
	.st8{fill:#8747CC;}
	.st9{fill:#632DA1;}
	.st10{fill:#BC83FB;}
	.st11{fill:#6350D9;}
	.st12{fill:#4D3DBA;}
</style>
<g>
	<g>
		<path class="st0" d="M1600,24.8v428.5c0,8.3-4.1,15.7-10.3,20.2c-2.4,1.7-5.8,0.9-6.9-1.9c-3.9-9.7-16.4-16.8-31.2-16.8
			c-9.5,0-18,2.9-23.9,7.6c-1.9,1.5-4.6,1.3-6.2-0.6c-7.7-8.7-21.2-14.5-36.7-14.5c-13.9,0-26.4,4.7-34.3,12
			c-1.8,1.7-4.7,1.5-6.4-0.3c-9.3-10.1-25.8-16.8-44.6-16.8c-27.1,0-49.3,13.9-52.4,31.7c-0.4,2.4-2.5,4.1-4.9,4.1l-1317.2,0
			C11.1,478.2,0,467.1,0,453.4V24.8C0,11.1,11.1,0,24.8,0h1550.3C1588.9,0,1600,11.1,1600,24.8z"/>
	</g>
</g>
<g>
	<ellipse class="st1" cx="1483.8" cy="478.7" rx="27.9" ry="17.2"/>
</g>
<g>
	<ellipse class="st1" cx="1552.4" cy="479" rx="18.6" ry="11.5"/>
</g>
<g>
	<ellipse class="st1" cx="1399.5" cy="479.2" rx="33.9" ry="20.8"/>
</g>
<g>
	<g>
		<rect x="193" y="138.5" class="st2" width="870.8" height="5"/>
	</g>
	<g>
		<path class="st2" d="M1396.2,335.6H959.2c-1.4,0-2.5-1.1-2.5-2.5s1.1-2.5,2.5-2.5h436.9c1.4,0,2.5,1.1,2.5,2.5
			S1397.5,335.6,1396.2,335.6z"/>
	</g>
	<g>
		<g>
			<g>
				<path class="st3" d="M989.6,383.4l12.3,15.8c3.7,4.8,9.4,7.5,15.4,7.5h99.7c5.7,0,10.2-4.6,10.2-10.2V295.5
					c0-5.2-2.5-10.2-6.8-13.3l-19.3-14c-2.4-1.8-5.4-2.7-8.4-2.7H992.6c-3.6,0-6.5,2.9-6.5,6.5l0,101.3
					C986.1,377,987.3,380.5,989.6,383.4z"/>
			</g>
		</g>
		<g>
			<g>
				<path class="st4" d="M989.2,269.6C989.2,269.6,989.3,269.6,989.2,269.6L989.2,269.6L989.2,269.6z"/>
			</g>
		</g>
		<g>
			<g>
				<path class="st5" d="M986.1,272.1l0,101.2c0,3.7,1.2,7.2,3.5,10.1l12.5,16c1.8,2.4,5.7,1.1,5.7-1.9v-102
					c0-5.3-2.1-10.4-5.9-14.2l-11.1-11.1C989,268.5,986.1,269.7,986.1,272.1z"/>
			</g>
		</g>
		<g>
			<g>
				<path class="st6" d="M1018,406.7h98.8c5.7,0,10.3-4.6,10.3-10.3v-98.8c0-5.7-4.6-10.3-10.3-10.3H1018c-5.7,0-10.3,4.6-10.3,10.3
					v98.8C1007.7,402,1012.3,406.7,1018,406.7z"/>
			</g>
		</g>
		<g>
			<g>
				<circle class="st3" cx="1067.4" cy="346.9" r="23.3"/>
			</g>
		</g>
		<g>
			<g>
				<circle class="st7" cx="1063.8" cy="343" r="13.4"/>
			</g>
		</g>
	</g>
	<g>
		<g>
			<g>
				<path class="st8" d="M989.6,189.3l12.3,15.8c3.7,4.8,9.4,7.5,15.4,7.5h99.7c5.7,0,10.2-4.6,10.2-10.2V101.5
					c0-5.2-2.5-10.2-6.8-13.3l-19.3-14c-2.4-1.8-5.4-2.7-8.4-2.7H992.6c-3.6,0-6.5,2.9-6.5,6.5l0,101.3
					C986.1,182.9,987.3,186.5,989.6,189.3z"/>
			</g>
		</g>
		<g>
			<g>
				<path class="st4" d="M989.2,75.6C989.2,75.6,989.3,75.6,989.2,75.6L989.2,75.6L989.2,75.6z"/>
			</g>
		</g>
		<g>
			<g>
				<path class="st9" d="M986.1,78.1l0,101.2c0,3.7,1.2,7.2,3.5,10.1l12.5,16c1.8,2.4,5.7,1.1,5.7-1.9v-102c0-5.3-2.1-10.4-5.9-14.2
					l-11.1-11.1C989,74.4,986.1,75.7,986.1,78.1z"/>
			</g>
		</g>
		<g>
			<g>
				<path class="st10" d="M1018,212.6h98.8c5.7,0,10.3-4.6,10.3-10.3v-98.8c0-5.7-4.6-10.3-10.3-10.3H1018
					c-5.7,0-10.3,4.6-10.3,10.3v98.8C1007.7,208,1012.3,212.6,1018,212.6z"/>
			</g>
		</g>
		<g>
			<g>
				
					<ellipse transform="matrix(0.9494 -0.3141 0.3141 0.9494 5.9795 343.0412)" class="st8" cx="1067.4" cy="153" rx="25.1" ry="22.6"/>
			</g>
		</g>
		<g>
			<g>
				<path class="st8" d="M1064.4,198.5c-7,0-14-1.4-20.3-4.2c-11.7-5.1-20.2-14.2-23.9-25.7c-7.8-23.6,7.1-49.8,33.1-58.4
					c12.6-4.2,25.9-3.7,37.5,1.4c11.7,5.1,20.2,14.2,23.9,25.7c7.8,23.6-7.1,49.8-33.1,58.4C1075.9,197.6,1070.1,198.5,1064.4,198.5
					z M1070.4,111.4c-5.3,0-10.6,0.9-15.9,2.6c-24,7.9-37.7,31.9-30.6,53.4c3.4,10.4,11.2,18.6,21.8,23.3c10.7,4.7,23,5.1,34.6,1.3
					c24-7.9,37.7-31.9,30.6-53.4c-3.4-10.4-11.2-18.6-21.8-23.3C1083.2,112.7,1076.8,111.4,1070.4,111.4z"/>
			</g>
		</g>
		<g>
			<g>
				
					<ellipse transform="matrix(0.9494 -0.3141 0.3141 0.9494 6.4661 341.3653)" class="st7" cx="1062.4" cy="150.6" rx="14.4" ry="13"/>
			</g>
		</g>
	</g>
	<g>
		<g>
			<g>
				<path class="st11" d="M989.6,383.4l12.3,15.8c3.7,4.8,9.4,7.5,15.4,7.5h99.7c5.7,0,10.2-4.6,10.2-10.2V295.5
					c0-5.2-2.5-10.2-6.8-13.3l-19.3-14c-2.4-1.8-5.4-2.7-8.4-2.7H992.6c-3.6,0-6.5,2.9-6.5,6.5l0,101.3
					C986.1,377,987.3,380.5,989.6,383.4z"/>
			</g>
		</g>
		<g>
			<g>
				<path class="st4" d="M989.2,269.6C989.2,269.6,989.3,269.6,989.2,269.6L989.2,269.6L989.2,269.6z"/>
			</g>
		</g>
		<g>
			<g>
				<path class="st12" d="M986.1,272.1l0,101.2c0,3.7,1.2,7.2,3.5,10.1l12.5,16c1.8,2.4,5.7,1.1,5.7-1.9v-102
					c0-5.3-2.1-10.4-5.9-14.2l-11.1-11.1C989,268.5,986.1,269.7,986.1,272.1z"/>
			</g>
		</g>
		<g>
			<g>
				<path class="st6" d="M1018,406.7h98.8c5.7,0,10.3-4.6,10.3-10.3v-98.8c0-5.7-4.6-10.3-10.3-10.3H1018c-5.7,0-10.3,4.6-10.3,10.3
					v98.8C1007.7,402,1012.3,406.7,1018,406.7z"/>
			</g>
		</g>
		<g>
			<g>
				
					<ellipse transform="matrix(0.9494 -0.3141 0.3141 0.9494 -54.9727 352.8634)" class="st11" cx="1067.4" cy="347" rx="25.1" ry="22.6"/>
			</g>
		</g>
		<g>
			<g>
				<path class="st11" d="M1064.4,392.6c-7,0-14-1.4-20.3-4.2c-11.7-5.1-20.2-14.2-23.9-25.7c-7.8-23.6,7.1-49.8,33.1-58.4
					c12.6-4.2,25.9-3.7,37.5,1.4c11.7,5.1,20.2,14.2,23.9,25.7c7.8,23.6-7.1,49.8-33.1,58.4C1075.9,391.6,1070.1,392.6,1064.4,392.6
					z M1070.4,305.4c-5.3,0-10.6,0.9-15.9,2.6c-24,7.9-37.7,31.9-30.6,53.4c3.4,10.4,11.2,18.6,21.8,23.3c10.7,4.7,23,5.1,34.6,1.3
					c24-7.9,37.7-31.9,30.6-53.4c-3.4-10.4-11.2-18.6-21.8-23.3C1083.2,306.7,1076.8,305.4,1070.4,305.4z"/>
			</g>
		</g>
		<g>
			<g>
				
					<ellipse transform="matrix(0.9494 -0.3141 0.3141 0.9494 -54.4861 351.1874)" class="st7" cx="1062.4" cy="344.7" rx="14.4" ry="13"/>
			</g>
		</g>
	</g>
	<g>
		<g>
			<g>
				<path class="st11" d="M1174.2,383.4l12.3,15.8c3.7,4.8,9.4,7.5,15.4,7.5h99.7c5.7,0,10.2-4.6,10.2-10.2V295.5
					c0-5.2-2.5-10.2-6.8-13.3l-19.3-14c-2.4-1.8-5.4-2.7-8.4-2.7h-100.1c-3.6,0-6.5,2.9-6.5,6.5l0,101.3
					C1170.8,377,1172,380.5,1174.2,383.4z"/>
			</g>
		</g>
		<g>
			<g>
				<path class="st4" d="M1173.9,269.6C1173.9,269.6,1173.9,269.6,1173.9,269.6L1173.9,269.6L1173.9,269.6z"/>
			</g>
		</g>
		<g>
			<g>
				<path class="st12" d="M1170.8,272.1l0,101.2c0,3.7,1.2,7.2,3.5,10.1l12.5,16c1.8,2.4,5.7,1.1,5.7-1.9v-102
					c0-5.3-2.1-10.4-5.9-14.2l-11.1-11.1C1173.7,268.5,1170.8,269.7,1170.8,272.1z"/>
			</g>
		</g>
		<g>
			<g>
				<path class="st6" d="M1202.7,406.7h98.8c5.7,0,10.3-4.6,10.3-10.3v-98.8c0-5.7-4.6-10.3-10.3-10.3h-98.8
					c-5.7,0-10.3,4.6-10.3,10.3v98.8C1192.4,402,1197,406.7,1202.7,406.7z"/>
			</g>
		</g>
		<g>
			<g>
				
					<ellipse transform="matrix(0.9494 -0.3141 0.3141 0.9494 -45.6244 410.8752)" class="st11" cx="1252" cy="347" rx="25.1" ry="22.6"/>
			</g>
		</g>
		<g>
			<g>
				<path class="st11" d="M1249.1,392.5c-20.1,0-38.3-11.5-44.4-29.9l0,0c-7.8-23.6,7.1-49.8,33.1-58.4c12.6-4.2,25.9-3.7,37.5,1.4
					c11.7,5.1,20.2,14.2,23.9,25.7c3.8,11.5,2.4,23.9-3.9,34.9c-6.3,11-16.6,19.3-29.2,23.5C1260.5,391.7,1254.8,392.5,1249.1,392.5
					z M1208.6,361.4c7.1,21.5,32.4,32.5,56.4,24.6c11.7-3.9,21.2-11.6,27-21.7c5.7-10.1,7-21.3,3.6-31.7
					c-3.4-10.4-11.2-18.6-21.8-23.3c-10.7-4.7-23-5.1-34.6-1.3C1215.2,316,1201.5,339.9,1208.6,361.4L1208.6,361.4z"/>
			</g>
		</g>
		<g>
			<g>
				
					<ellipse transform="matrix(0.9494 -0.3141 0.3141 0.9494 -45.1378 409.1993)" class="st7" cx="1247.1" cy="344.7" rx="14.4" ry="13"/>
			</g>
		</g>
	</g>
	<g>
		<g>
			<g>
				<path class="st11" d="M1358.9,383.4l12.3,15.8c3.7,4.8,9.4,7.5,15.4,7.5h99.7c5.7,0,10.2-4.6,10.2-10.2V295.5
					c0-5.2-2.5-10.2-6.8-13.3l-19.3-14c-2.4-1.8-5.4-2.7-8.4-2.7h-100.1c-3.6,0-6.5,2.9-6.5,6.5l0,101.3
					C1355.5,377,1356.7,380.5,1358.9,383.4z"/>
			</g>
		</g>
		<g>
			<g>
				<path class="st4" d="M1358.6,269.6C1358.6,269.6,1358.6,269.6,1358.6,269.6L1358.6,269.6L1358.6,269.6z"/>
			</g>
		</g>
		<g>
			<g>
				<path class="st12" d="M1355.5,272.1l0,101.2c0,3.7,1.2,7.2,3.5,10.1l12.5,16c1.8,2.4,5.7,1.1,5.7-1.9v-102
					c0-5.3-2.1-10.4-5.9-14.2l-11.1-11.1C1358.4,268.5,1355.5,269.7,1355.5,272.1z"/>
			</g>
		</g>
		<g>
			<g>
				<path class="st6" d="M1387.4,406.7h98.8c5.7,0,10.3-4.6,10.3-10.3v-98.8c0-5.7-4.6-10.3-10.3-10.3h-98.8
					c-5.7,0-10.3,4.6-10.3,10.3v98.8C1377,402,1381.7,406.7,1387.4,406.7z"/>
			</g>
		</g>
		<g>
			<g>
				
					<ellipse transform="matrix(0.9494 -0.3141 0.3141 0.9494 -36.2761 468.8871)" class="st11" cx="1436.7" cy="347" rx="25.1" ry="22.6"/>
			</g>
		</g>
		<g>
			<g>
				<path class="st11" d="M1433.8,392.5c-20.1,0-38.3-11.5-44.4-29.9l0,0c-3.8-11.5-2.4-23.9,3.9-34.9c6.3-11,16.6-19.3,29.2-23.5
					c12.6-4.2,25.9-3.7,37.5,1.4c11.7,5.1,20.2,14.2,24,25.7c7.8,23.6-7.1,49.8-33.1,58.4C1445.2,391.7,1439.4,392.5,1433.8,392.5z
					 M1393.2,361.4c7.1,21.5,32.4,32.5,56.4,24.6c24-7.9,37.7-31.9,30.6-53.4c-3.4-10.4-11.2-18.6-21.8-23.3
					c-10.7-4.7-23-5.1-34.6-1.3s-21.2,11.6-27,21.7C1391.1,339.8,1389.8,351,1393.2,361.4L1393.2,361.4z"/>
			</g>
		</g>
		<g>
			<g>
				
					<ellipse transform="matrix(0.9494 -0.3141 0.3141 0.9494 -35.7895 467.2111)" class="st7" cx="1431.8" cy="344.7" rx="14.4" ry="13"/>
			</g>
		</g>
	</g>
	<g>
		<g>
			<g>
				<path class="st8" d="M601.8,189.3l12.3,15.8c3.7,4.8,9.4,7.5,15.4,7.5h99.7c5.7,0,10.2-4.6,10.2-10.2V101.5
					c0-5.2-2.5-10.2-6.8-13.3l-19.3-14c-2.4-1.8-5.4-2.7-8.4-2.7H604.8c-3.6,0-6.5,2.9-6.5,6.5l0,101.3
					C598.3,182.9,599.5,186.5,601.8,189.3z"/>
			</g>
		</g>
		<g>
			<g>
				<path class="st4" d="M601.4,75.6C601.4,75.6,601.5,75.6,601.4,75.6L601.4,75.6L601.4,75.6z"/>
			</g>
		</g>
		<g>
			<g>
				<path class="st9" d="M598.3,78.1l0,101.2c0,3.7,1.2,7.2,3.5,10.1l12.5,16c1.8,2.4,5.7,1.1,5.7-1.9v-102c0-5.3-2.1-10.4-5.9-14.2
					l-11.1-11.1C601.2,74.4,598.3,75.7,598.3,78.1z"/>
			</g>
		</g>
		<g>
			<g>
				<path class="st10" d="M630.2,212.6h98.8c5.7,0,10.3-4.6,10.3-10.3v-98.8c0-5.7-4.6-10.3-10.3-10.3h-98.8
					c-5.7,0-10.3,4.6-10.3,10.3v98.8C619.9,208,624.5,212.6,630.2,212.6z"/>
			</g>
		</g>
		<g>
			<g>
				
					<ellipse transform="matrix(0.9494 -0.3141 0.3141 0.9494 -13.6516 221.2186)" class="st8" cx="679.6" cy="153" rx="25.1" ry="22.6"/>
			</g>
		</g>
		<g>
			<g>
				<path class="st8" d="M676.7,198.5c-20.1,0-38.3-11.5-44.4-29.9c-3.8-11.5-2.4-23.9,3.9-34.9c6.3-11,16.6-19.3,29.2-23.5
					c12.6-4.2,25.9-3.7,37.5,1.4c11.7,5.1,20.2,14.2,24,25.7c7.8,23.6-7.1,49.8-33.1,58.4C688,197.6,682.3,198.5,676.7,198.5z
					 M682.6,111.4c-5.3,0-10.6,0.9-15.9,2.6c-11.7,3.9-21.2,11.6-27,21.7c-5.7,10.1-7,21.3-3.6,31.7c5.5,16.8,22.2,27.2,40.6,27.2
					c5.2,0,10.5-0.8,15.8-2.6c24-7.9,37.7-31.9,30.6-53.4c-3.4-10.4-11.2-18.6-21.8-23.3C695.4,112.7,689,111.4,682.6,111.4z"/>
			</g>
		</g>
		<g>
			<g>
				
					<ellipse transform="matrix(0.9494 -0.3141 0.3141 0.9494 -13.1651 219.5426)" class="st7" cx="674.6" cy="150.6" rx="14.4" ry="13"/>
			</g>
		</g>
	</g>
	<g>
		<g>
			<g>
				<path class="st8" d="M360.3,189.3l12.3,15.8c3.7,4.8,9.4,7.5,15.4,7.5h99.7c5.7,0,10.2-4.6,10.2-10.2V101.5
					c0-5.2-2.5-10.2-6.8-13.3l-19.3-14c-2.4-1.8-5.4-2.7-8.4-2.7H363.3c-3.6,0-6.5,2.9-6.5,6.5l0,101.3
					C356.8,182.9,358,186.5,360.3,189.3z"/>
			</g>
		</g>
		<g>
			<g>
				<path class="st4" d="M360,75.6C360,75.6,360,75.6,360,75.6L360,75.6L360,75.6z"/>
			</g>
		</g>
		<g>
			<g>
				<path class="st9" d="M356.8,78.1l0,101.2c0,3.7,1.2,7.2,3.5,10.1l12.5,16c1.8,2.4,5.7,1.1,5.7-1.9v-102c0-5.3-2.1-10.4-5.9-14.2
					l-11.1-11.1C359.7,74.4,356.8,75.7,356.8,78.1z"/>
			</g>
		</g>
		<g>
			<g>
				<path class="st10" d="M388.8,212.6h98.8c5.7,0,10.3-4.6,10.3-10.3v-98.8c0-5.7-4.6-10.3-10.3-10.3h-98.8
					c-5.7,0-10.3,4.6-10.3,10.3v98.8C378.4,208,383,212.6,388.8,212.6z"/>
			</g>
		</g>
		<g>
			<g>
				
					<ellipse transform="matrix(0.9494 -0.3141 0.3141 0.9494 -25.8752 145.364)" class="st8" cx="438.1" cy="153" rx="25.1" ry="22.6"/>
			</g>
		</g>
		<g>
			<g>
				<path class="st8" d="M435.2,198.5c-20.1,0-38.3-11.5-44.4-29.9l0,0c-7.8-23.6,7.1-49.8,33.1-58.4c12.6-4.2,25.9-3.7,37.5,1.4
					c11.7,5.1,20.2,14.2,24,25.7c7.8,23.6-7.1,49.8-33.1,58.4C446.6,197.6,440.8,198.5,435.2,198.5z M394.6,167.4
					c7.1,21.5,32.4,32.5,56.4,24.6c24-7.9,37.7-31.9,30.6-53.4c-3.4-10.4-11.2-18.6-21.8-23.3c-10.7-4.7-23-5.1-34.6-1.3
					C401.2,121.9,387.5,145.9,394.6,167.4L394.6,167.4z"/>
			</g>
		</g>
		<g>
			<g>
				
					<ellipse transform="matrix(0.9494 -0.3141 0.3141 0.9494 -25.3886 143.688)" class="st7" cx="433.1" cy="150.6" rx="14.4" ry="13"/>
			</g>
		</g>
	</g>
	<g>
		<g>
			<g>
				<path class="st8" d="M118.8,189.3l12.3,15.8c3.7,4.8,9.4,7.5,15.4,7.5h99.7c5.7,0,10.2-4.6,10.2-10.2V101.5
					c0-5.2-2.5-10.2-6.8-13.3l-19.3-14c-2.4-1.8-5.4-2.7-8.4-2.7H121.8c-3.6,0-6.5,2.9-6.5,6.5l0,101.3
					C115.4,182.9,116.6,186.5,118.8,189.3z"/>
			</g>
		</g>
		<g>
			<g>
				<path class="st4" d="M118.5,75.6C118.5,75.6,118.5,75.6,118.5,75.6L118.5,75.6L118.5,75.6z"/>
			</g>
		</g>
		<g>
			<g>
				<path class="st9" d="M115.4,78.1l0,101.2c0,3.7,1.2,7.2,3.5,10.1l12.5,16c1.8,2.4,5.7,1.1,5.7-1.9v-102c0-5.3-2.1-10.4-5.9-14.2
					L120,76.1C118.3,74.4,115.4,75.7,115.4,78.1z"/>
			</g>
		</g>
		<g>
			<g>
				<path class="st10" d="M147.3,212.6h98.8c5.7,0,10.3-4.6,10.3-10.3v-98.8c0-5.7-4.6-10.3-10.3-10.3h-98.8
					c-5.7,0-10.3,4.6-10.3,10.3v98.8C136.9,208,141.6,212.6,147.3,212.6z"/>
			</g>
		</g>
		<g>
			<g>
				
					<ellipse transform="matrix(0.9494 -0.3141 0.3141 0.9494 -38.0988 69.5094)" class="st8" cx="196.6" cy="153" rx="25.1" ry="22.6"/>
			</g>
		</g>
		<g>
			<g>
				<path class="st8" d="M193.7,198.5c-20.1,0-38.3-11.5-44.4-29.9l0,0c-7.8-23.6,7.1-49.8,33.1-58.4c12.6-4.2,25.9-3.7,37.5,1.4
					c11.7,5.1,20.2,14.2,24,25.7c7.8,23.6-7.1,49.8-33.1,58.4C205.1,197.6,199.3,198.5,193.7,198.5z M153.1,167.4
					c7.1,21.5,32.4,32.5,56.4,24.6c24-7.9,37.7-31.9,30.6-53.4c-3.4-10.4-11.2-18.6-21.8-23.3c-10.7-4.7-23-5.1-34.6-1.3
					C159.8,121.9,146,145.9,153.1,167.4L153.1,167.4z"/>
			</g>
		</g>
		<g>
			<g>
				
					<ellipse transform="matrix(0.9494 -0.3141 0.3141 0.9494 -37.6122 67.8335)" class="st7" cx="191.7" cy="150.6" rx="14.4" ry="13"/>
			</g>
		</g>
	</g>
	<g>
		<path class="st2" d="M996.9,143.5h-21c-1.4,0-2.5-1.1-2.5-2.5s1.1-2.5,2.5-2.5h21c1.4,0,2.5,1.1,2.5,2.5S998.3,143.5,996.9,143.5z
			"/>
	</g>
	<g>
		<path class="st2" d="M1182.8,335.6h-21c-1.4,0-2.5-1.1-2.5-2.5s1.1-2.5,2.5-2.5h21c1.4,0,2.5,1.1,2.5,2.5
			S1184.2,335.6,1182.8,335.6z"/>
	</g>
	<g>
		<path class="st2" d="M1365.9,335.6h-21c-1.4,0-2.5-1.1-2.5-2.5s1.1-2.5,2.5-2.5h21c1.4,0,2.5,1.1,2.5,2.5
			S1367.3,335.6,1365.9,335.6z"/>
	</g>
	<g>
		<path class="st2" d="M608.8,143.5h-21c-1.4,0-2.5-1.1-2.5-2.5s1.1-2.5,2.5-2.5h21c1.4,0,2.5,1.1,2.5,2.5S610.2,143.5,608.8,143.5z
			"/>
	</g>
	<g>
		<path class="st2" d="M367.3,143.5h-21c-1.4,0-2.5-1.1-2.5-2.5s1.1-2.5,2.5-2.5h21c1.4,0,2.5,1.1,2.5,2.5S368.7,143.5,367.3,143.5z
			"/>
	</g>
	<g>
		<path class="st2" d="M996.9,335.6h-56.9c-31.8,0-57.7-25.9-57.7-57.7v-81.7c0-29.1-23.6-52.7-52.7-52.7h-72.5
			c-1.4,0-2.5-1.1-2.5-2.5s1.1-2.5,2.5-2.5h72.5c31.8,0,57.7,25.9,57.7,57.7v81.7c0,29.1,23.6,52.7,52.7,52.7h56.9
			c1.4,0,2.5,1.1,2.5,2.5S998.3,335.6,996.9,335.6z"/>
	</g>
</g>
</svg>
