<?xml version="1.0" encoding="utf-8"?>
<!-- Generator: Adobe Illustrator 27.1.1, SVG Export Plug-In . SVG Version: 6.00 Build 0)  -->
<svg version="1.1" id="Layer_1" xmlns="http://www.w3.org/2000/svg" xmlns:xlink="http://www.w3.org/1999/xlink" x="0px" y="0px"
	 viewBox="0 0 1600 500" style="enable-background:new 0 0 1600 500;" xml:space="preserve">
<style type="text/css">
	.st0{fill-rule:evenodd;clip-rule:evenodd;fill:#D7B6FA;}
	.st1{fill-rule:evenodd;clip-rule:evenodd;fill:#BA81F9;}
	.st2{fill:#BA81F9;}
	.st3{fill:#EAD9FC;}
	.st4{fill-rule:evenodd;clip-rule:evenodd;fill:#FFFFFF;}
	.st5{fill-rule:evenodd;clip-rule:evenodd;fill:#D8B6FF;}
	.st6{fill:#5A007E;}
</style>
<g>
	<g>
		<g>
			<g>
				<path class="st0" d="M1600,24.8v428.5c0,8.3-4.1,15.7-10.3,20.2c-2.4,1.7-5.8,0.9-6.9-1.9c-3.9-9.7-16.4-16.8-31.2-16.8
					c-9.5,0-18,2.9-23.9,7.5c-1.9,1.5-4.6,1.2-6.2-0.6c-7.7-8.7-21.2-14.5-36.7-14.5c-13.9,0-26.4,4.7-34.3,12
					c-1.8,1.7-4.7,1.5-6.4-0.3c-9.3-10.1-25.8-16.8-44.6-16.8c-27.1,0-49.3,13.9-52.4,31.7c-0.4,2.4-2.5,4.1-4.9,4.1l-1317.2,0
					C11.1,478.2,0,467.1,0,453.4V24.8C0,11.1,11.1,0,24.8,0h1550.3C1588.9,0,1600,11.1,1600,24.8z"/>
			</g>
		</g>
		<g>
			<g>
				<ellipse class="st1" cx="1399.5" cy="479.2" rx="33.9" ry="20.8"/>
			</g>
			<g>
				<ellipse class="st1" cx="1483.8" cy="478.7" rx="27.9" ry="17.2"/>
			</g>
			<g>
				<ellipse class="st1" cx="1552.4" cy="479" rx="18.7" ry="11.5"/>
			</g>
		</g>
	</g>
</g>
<g>
	<path class="st2" d="M1600,395.5v57.8c0,8.3-4.1,15.7-10.3,20.2c-2.4,1.7-5.8,0.9-6.9-1.9c-3.9-9.7-16.4-16.8-31.2-16.8
		c-9.5,0-18,2.9-23.9,7.5c-1.9,1.5-4.6,1.2-6.2-0.6c-7.7-8.7-21.2-14.5-36.7-14.5c-13.9,0-26.4,4.7-34.3,12
		c-1.8,1.7-4.7,1.5-6.4-0.3c-9.3-10.1-25.8-16.8-44.6-16.8c-27.1,0-49.3,13.9-52.4,31.7c-0.4,2.4-2.5,4.1-4.9,4.1l-1317.2,0
		C11.1,478.2,0,467.1,0,453.4V306.4c0,0,282.7,89,465.5,88.9C755,395.1,1180.6,268.7,1600,395.5z"/>
</g>
<g>
	<path class="st3" d="M0,21.3v58.5C526.8,31,864.3,217.9,1600,76V21.3c0-11.8-11.1-21.3-24.8-21.3H24.8C11.1,0,0,9.6,0,21.3z"/>
</g>
<g>
	<path class="st4" d="M1086.4,357.8H488.9c-15.9,0-28.8-12.9-28.8-28.8V142.3c0-15.9,12.9-28.8,28.8-28.8h597.5
		c15.9,0,28.8,12.9,28.8,28.8V329C1115.2,344.9,1102.3,357.8,1086.4,357.8z"/>
</g>
<g>
	<g>
		<ellipse class="st1" cx="1399.5" cy="479.2" rx="33.9" ry="20.8"/>
	</g>
	<g>
		<ellipse class="st1" cx="1483.8" cy="478.7" rx="27.9" ry="17.2"/>
	</g>
	<g>
		<ellipse class="st1" cx="1552.4" cy="479" rx="18.7" ry="11.5"/>
	</g>
</g>
<g id="g59_00000063632157542718339930000007716488250750399875_" transform="translate(-106,-89.794188)">
	<path id="path2_00000129207723677602924010000015760109935205126291_" class="st5" d="M1032.9,375.8c-8.7,3.2-13.6,12.4-10.9,20.6
		c2.7,8.2,12.1,12.4,20.8,9.2c8.7-3.2,13.6-12.4,10.9-20.6C1050.9,376.8,1041.6,372.7,1032.9,375.8z M747.6,292.1
		c2.3,0,3.4,1.1,3.4,3.4l0,107.3c0,2.3-1.1,3.4-3.4,3.4l-22.6,0c-2.3,0-3.4-1.1-3.4-3.4l0-107.3c0-2.3,1.1-3.4,3.4-3.4L747.6,292.1z
		 M840.5,291.2c24.9,0,33.5,16.9,33.5,40.2l0,71.4c0,2.3-1.1,3.4-3.4,3.4l-22.6,0c-2.3,0-3.4-1.1-3.4-3.4l0-74.9
		c0-7.8-5.7-10.5-12.3-10.5l-2.7,0c-9.8,0-16.9,4.1-19.4,8.2l0,77.1c0,2.3-1.1,3.4-3.4,3.4l-22.6,0c-2.3,0-3.4-1.1-3.4-3.4l0-107.3
		c0-2.3,1.1-3.4,3.4-3.4l22.6,0c2.3,0,3.4,1.1,3.4,3.4l0,10c3.4-5.7,12.1-14.4,29-14.4L840.5,291.2z M927.5,246.5
		c2.3,0,3.4,1.1,3.4,3.4l0,79.2l32.4-34.2c1.4-1.6,3.4-2.7,5.3-2.7l23.5,0c3,0,5.7,3.4,1.6,7.8l-34,36.5l39.7,63.7
		c1.4,2.5,1.1,6.2-2.7,6.2l-21.5,0c-3,0-5.7-0.9-7.5-4.1L939.7,356l-8.9,8.9l0,37.9c0,2.3-1.1,3.4-3.4,3.4l-22.6,0
		c-2.3,0-3.4-1.1-3.4-3.4l0.1-152.9c0-2.3,1.1-3.4,3.4-3.4L927.5,246.5z M731.9,251.8c-8.6,2.6-13.7,11.2-11.5,19.3
		c2.2,8.1,11,12.5,19.5,9.9c8.6-2.6,13.7-11.2,11.5-19.3C749.2,253.7,740.4,249.3,731.9,251.8z"/>
	<path id="path4_00000135672468877774993460000015289350447231935652_" class="st5" d="M1030.1,349.3l-5,0c-2.3,0-3.4-1.1-3.4-3.4
		l0-95.9c0-2.3,1.1-3.4,3.4-3.4l23.3,0c2.3,0,3.4,1.1,3.4,3.4l0,3.2c-8.9,2.2-15.8,11.2-16.3,22.4c-0.4,9,3.3,17.2,9.3,21.9
		c-4.4,3-7.7,8.1-8.5,14.2c-0.9,6.6,1.3,12.9,5.4,17.1c-4.1,1.8-7.9,5.5-10.1,10.4C1030.1,342.6,1029.6,346.1,1030.1,349.3z"/>
	<path id="path6_00000009552577015364361080000010115602475150583945_" class="st5" d="M1037.3,341.5c-1.7,3.9-0.4,8,2.9,9.1
		s7.3-1,9-4.9c1.7-3.9,0.4-8-2.9-9.1C1043,335.4,1039,337.6,1037.3,341.5z M1043.4,313.2c-1.1,6,2,11.6,7.1,12.6
		c5,0.9,10-3.2,11.2-9.2c1.1-6-2-11.6-7.1-12.6C1049.6,303.1,1044.6,307.2,1043.4,313.2L1043.4,313.2z M1042.2,277.8
		c-0.4,8.2,4.9,15.3,11.8,15.8c6.9,0.5,12.8-5.8,13.2-14s-4.9-15.3-11.8-15.8C1048.5,263.3,1042.6,269.6,1042.2,277.8z"/>
	<path id="rect8_00000005959141013436901340000009426275639796343458_" class="st6" d="M1086.7,406.4l75.5,0c2.6,0,4.7-2.1,4.7-4.7
		l0-11.8c0-2.6-2.1-4.7-4.7-4.7l-75.5,0c-2.6,0-4.7,2.1-4.7,4.7l0,11.8C1082,404.3,1084.1,406.4,1086.7,406.4z"/>
	<path id="path10_00000052788080588207701360000009695034590059425213_" class="st6" d="M619.6,293c0-2.6,2.1-4.7,4.7-4.7l14.2,0
		c2.6,0,4.7,2.1,4.7,4.7l0,14.2c0,2.6-2.1,4.7-4.7,4.7l-14.2,0c-2.6,0-4.7-2.1-4.7-4.7L619.6,293z"/>
	<path id="path12_00000174581512937599231300000013494838505806062741_" class="st6" d="M619.5,401.5c0,2.6,2.1,4.7,4.7,4.7l14.2,0
		c2.6,0,4.7-2.1,4.7-4.7l0-14.2c0-2.6-2.1-4.7-4.7-4.7l-14.2,0c-2.6,0-4.7,2.1-4.7,4.7L619.5,401.5z"/>
	<path id="path14_00000121244252590135130050000014928983728910046603_" class="st6" d="M643.1,316.6c0-2.6,2.1-4.7,4.7-4.7l14.2,0
		c2.6,0,4.7,2.1,4.7,4.7l0,14.2c0,2.6-2.1,4.7-4.7,4.7l-14.2,0c-2.6,0-4.7-2.1-4.7-4.7L643.1,316.6z"/>
	<path id="path16_00000136409130889808463500000000365761981034404503_" class="st6" d="M643.1,377.9c0,2.6,2.1,4.7,4.7,4.7l14.2,0
		c2.6,0,4.7-2.1,4.7-4.7l0-14.2c0-2.6-2.1-4.7-4.7-4.7l-14.2,0c-2.6,0-4.7,2.1-4.7,4.7L643.1,377.9z"/>
	<path id="path18_00000124883071019168300240000015129327602997871500_" class="st6" d="M666.7,340.2c0-2.6,2.1-4.7,4.7-4.7l14.2,0
		c2.6,0,4.7,2.1,4.7,4.7l0,14.2c0,2.6-2.1,4.7-4.7,4.7l-14.2,0c-2.6,0-4.7-2.1-4.7-4.7L666.7,340.2z"/>
</g>
</svg>
