<svg enable-background="new 0 0 1600 500" version="1.1" viewBox="0 0 1600 500" xmlns="http://www.w3.org/2000/svg" xmlns:xlink="http://www.w3.org/1999/xlink">
 <style type="text/css">.st0{fill:#D7D1FF;}
	.st1{fill-rule:evenodd;clip-rule:evenodd;fill:#F7F7F7;}
	.st2{fill:#0B080F;}
	.st3{fill:#8D7CF7;}
	.st4{fill:#5D4DC4;}
	.st5{fill:#7967EB;}
	.st6{fill:#F7F7F7;}
	.st7{fill:#ABA1FF;}
	.st8{fill-rule:evenodd;clip-rule:evenodd;fill:#7361E6;}
	.st9{fill-rule:evenodd;clip-rule:evenodd;fill:#8D7CF7;}
	.st10{fill:#7361E6;}
	.st11{fill:#372B8F;}
	.st12{fill:#B8AEFF;}
	.st13{fill:#6855E1;}
	.st14{fill:#9382FD;}
	.st15{fill:#B1A7FF;}
	.st16{fill:#060606;}
	.st17{fill:#0C0C12;}
	.st18{fill:#8271EC;}
	.st19{clip-path:url(#SVGID_00000140730866031622753710000012372613421510728592_);}
	.st20{clip-path:url(#SVGID_00000069362919061442512100000010421686878620559024_);}
	.st21{fill:#8B7EF7;}
	.st22{fill:#5847C7;}
	.st23{fill-rule:evenodd;clip-rule:evenodd;fill:#E2DCFE;}
	.st24{clip-path:url(#SVGID_00000174572858844491284220000012900223605513546649_);fill:#B8AEFF;}
	.st25{fill-rule:evenodd;clip-rule:evenodd;fill:#B8AEFF;}
	.st26{fill-rule:evenodd;clip-rule:evenodd;fill:#5D4DC4;}
	.st27{fill:#4A3CA6;}
	.st28{fill-rule:evenodd;clip-rule:evenodd;fill:#BB82FA;}
	.st29{fill-rule:evenodd;clip-rule:evenodd;fill:#9A5EDB;}
	.st30{fill:#9A5EDB;}
	.st31{fill-rule:evenodd;clip-rule:evenodd;fill:#372B8F;}
	.st32{fill-rule:evenodd;clip-rule:evenodd;fill:#ABA1FF;}
	.st33{fill-rule:evenodd;clip-rule:evenodd;fill:#D7D1FF;}
	.st34{fill-rule:evenodd;clip-rule:evenodd;fill:#8647CB;}
	.st35{fill-rule:evenodd;clip-rule:evenodd;fill:#D7B6FA;}
	.st36{fill-rule:evenodd;clip-rule:evenodd;fill:#672CAB;}
	.st37{fill:#BB82FA;}
	.st38{fill:#151424;}
	.st39{fill:#8647CB;}
	.st40{fill-rule:evenodd;clip-rule:evenodd;fill:none;}</style>
 <path class="st0" d="m1600 24.8v428.5c0 8.3-4.1 15.7-10.3 20.2-2.4 1.7-5.8 0.9-6.9-1.9-3.9-9.7-16.4-16.8-31.2-16.8-9.5 0-18 2.9-23.9 7.6-1.9 1.5-4.6 1.2-6.2-0.6-0.3-0.4-0.7-0.8-1.1-1.2-0.6-0.6-1.2-1.2-1.9-1.8-7.9-7-20.1-11.5-33.7-11.5-13.9 0-26.4 4.7-34.3 12-1.8 1.7-4.7 1.5-6.4-0.3-3.5-3.8-8.1-7.1-13.3-9.8-4.4-2.2-9.3-4-14.6-5.2-5.2-1.2-10.9-1.8-16.7-1.8-27 0-49.3 13.9-52.4 31.7-0.4 2.4-2.5 4.1-4.9 4.1h-81.3-89.8-130.9-323-64.5-312.5-3-269.7-42.7c-9.5 0-17.7-5.3-21.9-13.2-1.9-3.5-2.9-7.5-2.9-11.7v-428.3c0-13.7 11.1-24.8 24.8-24.8h1550c13.8 0 24.9 11.1 24.9 24.8z"/>
 <circle class="st1" cx="152.7" cy="31.5" r="3.8"/>
 <circle class="st1" cx="170" cy="46.2" r="5.5"/>
 <circle class="st1" cx="85.6" cy="35.8" r="4.8"/>
 <circle class="st1" cx="311.1" cy="366.7" r="4.8"/>
 <circle class="st1" cx="351.1" cy="413.4" r="4.7"/>
 <circle class="st1" cx="229.9" cy="386.7" r="4.4"/>
 <circle class="st1" cx="542.1" cy="376.5" r="4.4"/>
 <circle class="st1" cx="198.4" cy="350.5" r="6.9"/>
 <circle class="st1" cx="66.9" cy="270.3" r="4.7"/>
 <circle class="st1" cx="117.2" cy="242" r="6.4"/>
 <circle class="st1" cx="34.5" cy="151.6" r="6.1"/>
 <circle class="st1" cx="274.4" cy="30.8" r="4.8"/>
 <circle class="st1" cx="907.6" cy="29.4" r="5"/>
 <circle class="st1" cx="954.2" cy="35.8" r="5"/>
 <circle class="st1" cx="1139" cy="68.4" r="5.6"/>
 <circle class="st1" cx="517.2" cy="406.3" r="5.6"/>
 <circle class="st1" cx="1125" cy="110.8" r="5.9"/>
 <circle class="st1" cx="1236" cy="134.2" r="3.9"/>
 <circle class="st1" cx="1242" cy="31.8" r="6.1"/>
 <circle class="st1" cx="1269" cy="215.2" r="4"/>
 <circle class="st1" cx="1282" cy="259.7" r="5.4"/>
 <circle class="st1" cx="1074" cy="362.8" r="5.1"/>
 <circle class="st1" cx="1381" cy="365.6" r="2.7"/>
 <circle class="st1" cx="1357" cy="326.2" r="4.7"/>
 <circle class="st1" cx="1418" cy="246.1" r="4.8"/>
 <circle class="st1" cx="1460" cy="202.6" r="3.7"/>
 <circle class="st1" cx="1552" cy="127.2" r="5.9"/>
 <circle class="st1" cx="1443" cy="53.9" r="4.9"/>
 <circle class="st1" cx="1361" cy="27.1" r="4.7"/>
 <circle class="st1" cx="1264" cy="395.6" r="5.6"/>
 <circle class="st1" cx="1046" cy="452.5" r="3.7"/>
 <polygon class="st2" points="1104 437.9 1104 437.9 1105 436.5"/>
 <path class="st3" d="m66.5 215.2c-3.1 22.8-20.8 38.1-43.6 34.4 31.3 37-15.4 54.2-22.9 43.6v-24.2c6.3-10.8 12.9-23.1 19.1-34.9 9.9-18.8 19.1-36.4 25.2-44.9 2-2.8 3.8-4.7 5-5.2 7.5-3.1 20.3 8.5 17.2 31.2z"/>
 <path class="st4" d="m19.1 234.1c9.9-18.8 19.1-36.4 25.2-44.9 6.3 38.3-10.6 53.8-25.2 44.9z"/>
 <path class="st5" d="m0 313v7.1c30 17.3 69.3-4 74.8-18.5 5.8-14.9-33.9-3.8-74.8 11.4zm48.8 3.8c-4.8 1.9-9.4 1.5-10.3-0.8s2.2-5.7 7-7.6 9.4-1.5 10.3 0.8c1 2.3-2.2 5.7-7 7.6z"/>
 <path class="st6" d="m574.1 462.7-224.8 0.9h-3.6l-264.4 1.1h-3.6l-74.8 0.3c-1.9-3.5-2.9-7.5-2.9-11.7v-97.8s32.4-39.5 61 0.5c-1.4-12.9 23.1-24.8 27.5 13.8 6.5-5.8 22.4-9.7 35.7-2.3 1 0.5 2 1.2 2.9 1.8 5 3.5 9.5 8.7 12.8 16.3 0.4 1 0.8 2 1.2 3.1 0.8 2.2 1.5 4.7 2.1 7.3 3.8-5.4 8.9-9.3 14.8-11.7 1-0.4 2.1-0.8 3.2-1.1 23.8-7.1 55.8 9.5 51.5 51.8 0 0 39.7-51.2 73.2 8.9 0 0 15.4-39 58.5-1.2 0 0 18.6-21.8 41.2-3.3 0 0 8.2-11.7 24.2-16.8 4.7-1.5 10-2.4 16-2.4 4 0 8.2 0.5 12.7 1.5 3.6 0.8 7.4 2 11.4 3.6 5.6 2.3 11.7 5.4 18 9.6 21-17 70.7-22.2 100.2 18.4 2.2 3.1 4.2 6.1 6 9.4z"/>
 <path class="st7" d="m113.7 394.4c-0.4 0-0.7-0.1-1-0.4-0.6-0.6-0.7-1.5-0.1-2.1 10-11 13.9-22.4 10.6-30.5-1.6-3.9-4.9-6.4-8.5-6.6-4-0.2-7.7 2.5-10.2 7.3-0.4 0.7-1.3 1-2 0.6s-1-1.3-0.6-2c3.1-5.9 7.8-9.1 13-8.9 4.8 0.2 9.1 3.4 11.2 8.4 3.8 9.2-0.3 21.8-11.1 33.7-0.5 0.4-0.9 0.5-1.3 0.5z"/>
 <path class="st7" d="m119.2 397.8c-0.8 0-1.4-0.6-1.5-1.4s0.6-1.5 1.4-1.6c13.4-1 22.7-7.4 24.9-17 1.8-7.9-1.8-16.1-9-20.2-0.5-0.3-0.8-0.9-0.7-1.5s0.5-1.1 1.1-1.2c8.7-2.1 17.3-7.2 15.4-14.9-1.5-6.2-9.7-11.5-19.1-9.2-0.5 0.1-1 0-1.4-0.4s-0.5-0.9-0.4-1.4l3.4-15.4c0.2-0.8 1-1.3 1.8-1.1s1.3 1 1.1 1.8l-2.9 13.1c10.2-1.4 18.7 4.6 20.4 11.8 1.5 6-1.7 13.6-14.5 17.7 6.5 5.2 9.5 13.5 7.7 21.6-2.5 11-12.8 18.2-27.6 19.3h-0.1z"/>
 <path class="st7" d="m132.9 403.6c-2.7 0-5.6-0.2-8.8-0.6-0.8-0.1-1.4-0.9-1.3-1.7s0.9-1.4 1.7-1.3c19.8 2.7 27.9-4.3 31-8.8 3.8-5.5 3.9-12.9 0.4-19.3-0.3-0.5-0.2-1.2 0.1-1.6s1-0.7 1.6-0.5c8 2.1 13.9 0.5 16.1-4.3s0.4-12.7-6.5-17.6c-0.7-0.5-0.8-1.4-0.4-2.1 0.5-0.7 1.4-0.8 2.1-0.4 7.3 5.2 10.6 14.5 7.5 21.3-2.6 5.5-8.6 7.8-16.6 6.6 2.6 6.7 2 14-1.9 19.6-2.8 4.3-9.8 10.7-25 10.7z"/>
 <path class="st7" d="m149.3 419.1c-0.2 0-0.4 0-0.6-0.1-0.8-0.3-1.1-1.2-0.7-2 9.8-21.2 22-23.4 25.5-23.6 4.2-0.2 7.6 1.4 9.4 4.5 2.2 3.6 1.6 8.6-1.5 13.7-0.4 0.7-1.4 0.9-2.1 0.5s-0.9-1.4-0.5-2.1c2.5-4.1 3.1-8 1.5-10.6-1.2-2.1-3.7-3.2-6.7-3-6.4 0.3-15.7 6.3-22.9 21.9-0.3 0.5-0.9 0.8-1.4 0.8z"/>
 <path class="st4" d="m425.5 444.7c-26.3-27.7-20.9-49.3-10.5-43.2 10.5 6.1 14.1 24.4 10.5 43.2z"/>
 <path class="st3" d="m425.5 444.7c24.2-9.8 30.8-27.7 23-27.7-7.8 0.1-20 13.1-23 27.7z"/>
 <path class="st8" d="m1040 478.2h-323c139.2-45.7 239-3.8 239-3.8 45-23.7 77.9-1 84 3.8z"/>
 <path class="st9" d="m652.7 478.2h-312.5-3-269.7-42.7c-9.5 0-17.7-5.3-21.9-13.2-1.9-3.5-2.9-7.5-2.9-11.7v-92.8c26.4-4.5 50.4-2.1 77.7 8.5 0.9 0.4 1.9 0.7 2.8 1.1 3.7 1.5 7.4 3.1 11.2 4.9 1.1 0.5 2.2 1 3.3 1.6 6.7 3.3 13.7 7 21 11.2 0.9 0.5 1.7 1 2.6 1.5 2.5 1.4 5 2.9 7.5 4.5 1.1 0.7 2.3 1.4 3.5 2.1 2.4 1.5 4.9 3 7.4 4.6 1.3 0.8 2.6 1.7 3.9 2.5 3.5 2.3 7 4.6 10.7 7.1 0.8 0.6 1.7 1.1 2.5 1.7l1.8 1.2c26.8 18.3 46.7 28.5 67.1 33.7 0.5 0.1 0.9 0.2 1.4 0.3s0.9 0.2 1.4 0.3c4 0.9 7.9 1.6 12 2.2 0.4 0.1 0.8 0.1 1.2 0.2 0.2 0 0.4 0.1 0.7 0.1 0.2 0 0.4 0 0.6 0.1 0.5 0.1 1 0.1 1.5 0.2 2.4 0.3 4.9 0.5 7.4 0.7 5.4 0.4 10.9 0.5 16.9 0.5h1.2 1.3c20.2-0.2 44.2-2.5 76-5 9.2-0.7 18.1-1.4 26.7-2 3.1-0.2 6.2-0.4 9.2-0.6 14.9-0.9 28.9-1.6 42.1-2 1.2 0 2.3-0.1 3.4-0.1h0.3c2.2-0.1 4.3-0.1 6.4-0.2 51.3-1.1 91.8 2.4 135.5 12.3 26.1 5.7 53.3 13.8 84.5 24.5z"/>
 <path class="st10" d="m80.5 370.1c-0.3 23.9-7.5 42.8-21.4 56.3-19.7 19.2-47.9 22-59.1 22.3v-2.8c10.8-0.3 38.1-3.1 57.2-21.5 13.6-13.1 20.5-31.8 20.6-55.3 0.9 0.2 1.8 0.6 2.7 1z"/>
 <path class="st10" d="m84 461c-0.9 1.3-1.7 2.5-2.7 3.7-4.1 5.4-8.8 10-13.8 13.5h-5.1c5.5-3.2 10.7-7.8 15.3-13.5 1.4-1.7 2.7-3.4 3.9-5.3 15-22.3 18.6-52.9 10.1-84.5 1.1 0.5 2.2 1 3.3 1.6 8 31.6 4.1 62.1-11 84.5z"/>
 <path class="st10" d="m380.7 443.5c-0.1 0-0.1 0-0.2 0.1-15.6 5.2-25.3 13.2-31.2 20-0.7 0.7-1.2 1.5-1.8 2.2-3.9 4.9-6.1 9.5-7.3 12.4h-3c1.2-3.1 3.7-8.6 8.5-14.6 5.3-6.6 13.4-13.9 25.5-19.4 0 0 0.1 0 0.1-0.1 3.2-0.1 6.3-0.4 9.4-0.6z"/>
 <path class="st3" d="m249.7 419c-20.1 3.4-15.1 34.1-45.1 37.6l63.4 0.4c-5-53.3-31.9-49.6-28.7 3l10.4-41z"/>
 <ellipse class="st11" transform="matrix(.009265 -1 1 .009265 -201.7 684.6)" cx="244.6" cy="444.1" rx="11.6" ry="5.6"/>
 <path class="st4" d="m239.3 461.3c-0.7 0-1.2-0.5-1.2-1.2-1.7-28.6 5.1-42 12.7-42.5 10.2-0.8 16.6 19.2 18.5 39.4 0.1 0.7-0.4 1.3-1.1 1.4s-1.3-0.4-1.4-1.1c-2.3-25-9.7-37.6-15.8-37.1-6.3 0.5-12 14.3-10.4 39.9 0 0.6-0.6 1.2-1.3 1.2z"/>
 <path class="st4" d="m204.6 457.9c-0.6 0-1.2-0.5-1.2-1.1-0.1-0.7 0.4-1.3 1.1-1.4 16-1.9 21.6-11.6 26.9-21 4.4-7.7 8.6-15 18.1-16.6 0.7-0.1 1.3 0.3 1.4 1s-0.3 1.3-1 1.4c-8.4 1.4-12.1 7.9-16.4 15.4-5.4 9.5-11.5 20.2-28.8 22.2 0 0.1-0.1 0.1-0.1 0.1z"/>
 <path class="st4" d="m180.6 218.7c0-11.1-8-20.2-15.7-17-6.7 2.8-4.2 13.2 7.5 16.9-7.8 6.4-5.8 13.1-2 13.1 5.9 0 10.2-5.8 10.2-13z"/>
 <path class="st11" d="m181.3 216.3c-11.9-0.2-18.1-9.7-18.4-10.1l2.2-1.4c0.1 0.1 5.8 8.7 16.2 8.9v2.6z"/>
 <path class="st11" d="m173.2 226.5-2-1.7c0.2-0.2 4.7-5.5 10.3-6.1l0.3 2.6c-4.6 0.5-8.6 5.1-8.6 5.2z"/>
 <path class="st4" d="m219 229.9c-9.9 11-23.8 7.2-23.8 7.2l-2.6-8.4 26.4 1.2z"/>
 <path class="st4" d="m224.8 202.7h-35.2s0-0.3 0.2-0.9c0.4-1.8 1.7-6.4 5.3-10.8 0.5-0.7 1.1-1.4 1.8-2 1.9-2 4.4-3.8 7.4-5.3 0.8-0.4 1.6-0.7 2.4-1 2.2-0.8 4.7-1.5 7.5-1.9 0 0 5.5 7.4 10.6 21.9z"/>
 <path class="st11" d="m214.8 197.5-2.3 1.2-1.3-2.3-6.9-12.7c0.8-0.4 1.6-0.7 2.4-1l8 14.6 0.1 0.2z"/>
 <path class="st11" d="m202.7 198.3-2.2 1.4-1.6-2.6-3.7-6c0.5-0.7 1.1-1.4 1.8-2l4.6 7.4 1.1 1.8z"/>
 <path class="st3" d="m238 219.4c-3.2 3.4-11.8 9.1-22.3 11.3-2.2 0.5-4.5 0.8-6.9 0.9-9.2 0.4-19.2-2.3-28.3-11.4-0.9-0.9-1.3-2.3-0.9-3.6 3.9-12.6 16.4-22.6 30.6-20.4 2.8 0.4 5.8 1.3 8.7 2.8 6.5 3.3 13.2 9.3 19.3 19 0.2 0.5 0.2 1-0.2 1.4z"/>
 <path class="st12" d="m215.7 230.7c-2.2 0.5-4.5 0.8-6.9 0.9-9.3-7.1-8.2-26.4 1.4-35.4 2.8 0.4 5.8 1.3 8.7 2.8-9.3 5.9-10.1 23-3.2 31.7z"/>
 <ellipse transform="matrix(.2654 -.9641 .9641 .2654 -42.51 371.9)" cx="222.8" cy="213.8" rx="3.9" ry="3"/>
 <ellipse class="st6" transform="matrix(.7858 -.6184 .6184 .7858 -74.32 190.2)" cx="237.4" cy="202.4" rx="2.9" ry="3.1"/>
 <ellipse class="st6" transform="matrix(.9447 -.3279 .3279 .9447 -47.63 89.74)" cx="242.3" cy="186.1" rx="5" ry="4.3"/>
 <path class="st4" d="m206.1 213.7c0.2 2.6-10.3 5.9-10.3 5.9-2.2-6-1-11.9-1-11.9 5.1 0.1 11 3.4 11.3 6z"/>
 <path class="st3" d="m1412 151.4h-0.1c-1.8-0.6-3.8-1.1-6-1.6-0.4-0.1-0.8-0.2-1.3-0.3-3.6-0.7-7.5-1.3-11.5-1.8-0.6-0.1-1.1-0.1-1.7-0.2-4.1-0.5-8.3-0.8-12.2-1-0.9-0.1-1.8-0.1-2.7-0.2-2-0.1-4-0.2-5.8-0.3h-1.3c-5.5-0.2-9.2-0.2-9.2-0.2 5.3-11.8 11.2-16.8 15.9-17.9 1-0.2 1.9-0.3 2.8-0.2 4.8 0.5 7.7 5.5 6 10.7 3.9-1.9 7.7-2.8 11.2-2.9 0.9 0 1.9 0 2.7 0.1 4 0.4 7.4 1.8 9.9 3.8 0.7 0.6 1.3 1.2 1.8 1.9 2.3 2.8 2.9 6.4 1.5 10.1z"/>
 <path class="st4" d="m1379 127.7-6 13.3-2.3 5-0.2 0.5-1.1-0.5-1.2-0.5 1.7-3.8 6.2-13.8c1.1-0.2 2.1-0.3 2.9-0.2z"/>
 <path class="st4" d="m1399 135.6-3.6 7.5-2.2 4.6-0.2 0.5-2.2-1.1 2.3-4.8 3.3-6.8c0.8 0 1.7 0 2.6 0.1z"/>
 <path class="st4" d="m1410 141.3-3.9 6.9-0.9 1.5-0.2 0.3-2.2-1.2 1-1.8 4.3-7.6c0.8 0.6 1.4 1.3 1.9 1.9z"/>
 <path class="st4" d="m1407 167.2s-6.2 7-18.2 9.6c-0.9 0.2-1.8 0.4-2.8 0.5-2 0.3-4.2 0.5-6.5 0.5l-9.3-8.1 5.9-0.4 2.7-0.2 2.4-0.2 16.4-1.1 2.6-0.2 6.8-0.4z"/>
 <path class="st11" d="m1389 176.9c-0.9 0.2-1.8 0.4-2.8 0.5l-4.9-6.5-0.9-1.2 2-1.6 0.5 0.6 1.6 2.1 4.5 6.1z"/>
 <path class="st3" d="m1433 163.6c-0.2 0.8-0.4 1.7-0.7 2.4-1.5 4.6-3.8 7.6-3.8 7.6s-5.2-5.4-7.3-11.1c-0.3-1-0.6-1.9-0.7-2.9-0.1-0.5-0.1-0.9-0.1-1.4v-0.9c0.1-1 0.3-1.9 0.6-2.9 1.8-5.7 6.6-10.9 6.6-10.9 2 2.1 3.4 4.3 4.4 6.5 0.4 0.8 0.6 1.6 0.9 2.4 1.2 4.1 0.9 7.9 0.1 11.2z"/>
 <path class="st12" d="m1420 160.4c-4.4 3.8-11.3 7-19.6 8.8-0.8 0.2-1.7 0.4-2.6 0.5-5.9 1.1-12.4 1.5-19.2 1-0.9-0.1-1.7-0.1-2.6-0.2-8.9-1-18.1-3.5-26.9-8.2-1.3-0.7-1.8-2.4-1-3.7 5.9-9.6 14.9-16 25.8-17.7 0.9-0.1 1.8-0.3 2.8-0.3 10.6-0.9 22.8 2.3 35.6 10.7 0.8 0.5 1.5 1 2.3 1.6 1.8 1.2 3.5 2.5 5.3 3.9 1.1 1 1.2 2.7 0.1 3.6z"/>
 <ellipse transform="matrix(.9635 -.2677 .2677 .9635 8.411 370.5)" cx="1363" cy="154.4" rx="3.1" ry="3.7"/>
 <path class="st3" d="m1385 156.1c-0.1 2.4 8.5 5.7 10.9 4.4s3.4-6.6 0.9-8.8c-2.5-2.3-11.6 2-11.8 4.4z"/>
 <path class="st4" d="m1433 152.5-12.4 4.9-0.3 0.1-1.1 0.5-0.9-2.3 14-5.6c0.2 0.9 0.5 1.6 0.7 2.4z"/>
 <path class="st4" d="m1433 163.6c-0.2 0.8-0.4 1.7-0.7 2.4l-11-3.5-3-1v-0.1l0.7-2.3 1.5 0.5 12.5 4z"/>
 <path class="st3" d="m1378 170.7c-0.9-0.1-1.8-0.1-2.6-0.2 2-4 7-16.5-2.1-29.6 0.9-0.1 1.8-0.3 2.8-0.3 8.1 12.8 4.1 25.1 1.9 30.1z"/>
 <path class="st3" d="m1414 152.9c-3.2 1.7-12.9 7.7-14.2 16.3-0.8 0.2-1.7 0.4-2.6 0.5 0.8-9.5 10.1-15.9 14.5-18.4 0.8 0.5 1.5 1.1 2.3 1.6z"/>
 <path class="st6" d="m1354 126.6c2.2 0.9 4.6-1 4.2-3.4s-3.2-3.5-5-2c-1.9 1.5-1.5 4.5 0.8 5.4z"/>
 <path class="st6" d="m1353 141.5c2.3-1.6 2.1-5.2-0.5-6.4s-5.5 0.8-5.3 3.6c0.3 2.9 3.5 4.4 5.8 2.8z"/>
 <path class="st13" d="m1461 54.3 41 10.1c12.4-28-26.7-31.2-41-10.1z"/>
 <path class="st13" d="m1502 67.6s12.6-9.2 12.6-9.1c17.7 15.8 4.1 27.9 4.1 27.9-2.6-2-17-13.7-17-13.7l0.3-5.1z"/>
 <path class="st13" d="m1500 76.9-23.3 11.6c5 10.1 34.8 8.6 23.3-11.6z"/>
 <path class="st14" d="m1504 71.8c-0.6 3.9-3.6 8.3-8.2 11.9-1.4 1-2.9 2-4.5 2.8-4.6 2.4-10.1 3.8-16.3 3.6-1.1 0-2.2-0.2-3.3-0.3-8.3-1.2-17.5-5.6-26.8-15.1-0.8-0.9-1-2.2-0.3-3.2 0.8-1.3 1.6-2.5 2.4-3.7 5.8-8.3 12.1-13.2 18.3-15.7 2.9-1.2 5.8-1.8 8.7-2.1 1-0.1 2.1-0.1 3.1 0 4 0.1 7.9 1.1 11.3 2.7 2.1 0.9 4 2.1 5.8 3.3 6.4 4.8 10.4 11.3 9.8 15.8z"/>
 <path class="st15" d="m1466 76.2c-6.7 3.4-14.7 1-18.1-5.5-0.5-0.9-0.8-1.8-1-2.8 5.8-8.3 12.1-13.2 18.3-15.7 2.9 1.1 5.4 3.2 6.9 6.1 3.3 6.5 0.6 14.5-6.1 17.9z"/>
 <ellipse class="st16" transform="matrix(.7448 -.6673 .6673 .7448 327.9 992.7)" cx="1462" cy="67.7" rx="3.6" ry="3.5"/>
 <path class="st13" d="m1484 71.8c-0.7 7.2-4.1 13.8-9.4 18.4-1.1 0-2.2-0.2-3.3-0.3 5.9-4.2 9.7-10.9 10.4-18.2 0.7-7.9-2.2-15.5-8.2-21.5 1-0.1 2.1-0.1 3.1 0 5.5 6.1 8.1 13.7 7.4 21.6z"/>
 <path class="st13" d="m1496 83.7c-1.4 1-2.9 2-4.5 2.8 2.5-3 6.6-9.7 0.9-16.4l0.1-1.6s1.9-1.7 2-4.8c0.1-3.3-2-7.1-6-11 2.1 0.9 4 2.1 5.8 3.3 1.7 2.6 2.6 5.2 2.5 7.7-0.1 2.8-1.2 4.7-2 5.7 4 5.3 3.1 10.5 1.2 14.3z"/>
 <ellipse class="st16" transform="matrix(.8648 -.502 .502 .8648 164.6 754.7)" cx="1484" cy="71.7" rx="6.4" ry="5"/>
 <path class="st17" d="m288.3 370.6 6.8 1.9c-2-9.3-8-8.6-6.8-1.9z"/>
 <path class="st18" d="m308.6 384.9c-1.2 2.4-12.9-2.6-12.9-2.6 17.1 16.5-4.6 34.6-18.1 32-1.6-0.3-3-0.8-4.3-1.5-8.1-4.2-8.6-14.5-3.3-17.6 6.1-3.6 9.8 5.8 8.8 9.3s-5.9-1.8-5.9-1.7c3.9 7.6 8.1 7.2 11.8-1.3s0.1-25.5 2.8-30.3c2.8-4.8 22.3 11.3 21.1 13.7z"/>
 <path class="st17" d="m293.1 379.1c-1.5 0-2.4-1.6-1.6-2.8 0.7-1.3 2.6-1.3 3.3 0 0.7 1.2-0.2 2.8-1.7 2.8z"/>
 <defs>
  <path id="a" d="m308.6 384.9c-1.2 2.4-12.9-2.6-12.9-2.6 17.1 16.5-4.6 34.6-18.1 32-1.6-0.3-3-0.8-4.3-1.5-8.1-4.2-8.6-14.5-3.3-17.6 6.1-3.6 9.8 5.8 8.8 9.3s-5.9-1.8-5.9-1.7c3.9 7.6 8.1 7.2 11.8-1.3s0.1-25.5 2.8-30.3c2.8-4.8 22.3 11.3 21.1 13.7z"/>
 </defs>
 <clipPath id="d">
  <use xlink:href="#a"/>
 </clipPath>
 <g clip-path="url(#d)">
  <rect class="st4" transform="matrix(.46 -.8879 .8879 .46 -175.5 473.6)" x="297.3" y="380.1" width="8.9" height="2.1"/>
  <rect class="st4" transform="matrix(.3488 -.9372 .9372 .3488 -173.5 526.1)" x="290.8" y="381.2" width="2.1" height="13.4"/>
  <rect class="st4" transform="matrix(.4211 -.907 .907 .4211 -192.9 493.9)" x="289.4" y="392.2" width="2.1" height="11.7"/>
  <rect class="st4" transform="matrix(.8215 -.5702 .5702 .8215 -181.3 235)" x="283.6" y="402.6" width="2.1" height="8.8"/>
  <rect class="st4" transform="matrix(.1822 -.9833 .9833 .1822 -177.5 608.1)" x="272.7" y="409.7" width="8.2" height="2.1"/>
  <rect class="st4" transform="matrix(.998 -.06347 .06347 .998 -25.04 17.84)" x="264.9" y="402" width="6.6" height="2.1"/>
  <rect class="st4" transform="matrix(.6119 -.7909 .7909 .6119 -209.2 374.8)" x="274" y="399.5" width="6.6" height="2.1"/>
 </g>
 <path class="st4" d="m277.6 414.3c-1.6-0.3-3-0.8-4.3-1.5 9.6 2.4 29.3-10.6 22.4-30.5 17.1 16.5-4.6 34.6-18.1 32z"/>
 <path class="st7" d="m137.3 95c3 16.9-7.6 23.7-7.6 23.7 8.9 25.4 0.9 37.3-5.8 30.2-6.2 16.9-19.3 20.4-27.1 0.3-14.5 34.1-33.5 23.9-27.6-10-11.3-5.9-6.6-26.2 6.1-38.7 5.9-5.8 9.5-13.7 11.6-20.7 2.6-8.1 3.2-14.7 3.2-14.7l36.5 5.6c6.4 9.8 9.6 17.8 10.7 24.3z"/>
 <path class="st5" d="m137.3 95c-9.6 0.2-35.1-0.8-50.5-15.2 2.6-8.1 3.2-14.7 3.2-14.7l36.5 5.6c6.5 9.8 9.7 17.8 10.8 24.3z"/>
 <path class="st5" d="m96.9 149.4c-0.7 0.3-1.4 0-1.6-0.7-4.7-11.7-1.7-22.1 1.1-32.1 2.7-9.4 5.5-19.1 2.3-30.4-0.1-0.6 0.2-1.3 0.9-1.5 0.6-0.1 1.3 0.2 1.5 0.9 3.3 12 0.4 22-2.3 31.8-2.9 10.1-5.6 19.6-1.2 30.5 0.2 0.5-0.1 1.2-0.7 1.5z"/>
 <path class="st5" d="m124.1 149.1c-0.3 0.1-0.7 0.2-1 0-0.6-0.3-0.9-1-0.7-1.7 0.1-0.3 12.4-29.3 0.7-64.3-0.2-0.6 0.2-1.4 0.8-1.6s1.4 0.2 1.6 0.8c12 36-0.7 65.8-0.9 66.1-0.1 0.3-0.3 0.5-0.5 0.7z"/>
 <path class="st5" d="m70.6 139.9c-0.2 0.1-0.5 0.1-0.7 0.1-0.7-0.1-1.1-0.8-1-1.4 1.3-7 4.3-14.2 7.8-22.6 3.2-7.8 6.9-16.7 9.9-27.1 0.2-0.6 0.9-1 1.6-0.8 0.6 0.2 1 0.9 0.8 1.6-3.1 10.6-6.7 19.5-10 27.4-3.4 8.2-6.3 15.4-7.6 22.1-0.2 0.2-0.5 0.6-0.8 0.7z"/>
 <path class="st7" d="m141.9 58.4-60.3 1.5c-6.2 6.5-1 19.8 12.4 9.8 0 0 4 11.8 14 1 0 0 13.4 17.1 23.1-2.5 5.5 9.5 19.1 4.9 10.8-9.8z"/>
 <path class="st6" d="m79.6 60.7c2.2 5.9 25.8 12.9 50.3 6.1 28.2-7.8 11.3-21.1-8.9-19.9-20.3 1.1-43.7 7.8-41.4 13.8z"/>
 <defs>
  <path id="c" d="m79.6 60.7c2.2 5.9 25.8 12.9 50.3 6.1 28.2-7.8 11.3-21.1-8.9-19.9-20.3 1.1-43.7 7.8-41.4 13.8z"/>
 </defs>
 <clipPath id="b">
  <use xlink:href="#c"/>
 </clipPath>
 <g clip-path="url(#b)">
  <path class="st0" d="m126.5 70.6-2.4 0.2c0-0.2-1.9-22-16.3-23.5l0.3-2.4c6.8 0.7 12.2 5.4 15.5 13.7 2.4 6 2.9 11.8 2.9 12z"/>
  <path class="st0" d="m95.3 71.4-1.7-1.7c2.8-2.9 9.8-11.5 8.4-16.7-0.6-2-2.4-3.3-5.5-4.2l0.6-2.4c4 1 6.5 2.9 7.3 5.9 2 7.5-8.7 18.6-9.1 19.1z"/>
 </g>
 <ellipse class="st0" transform="matrix(.2259 -.9741 .9741 .2259 52 168.9)" cx="132.3" cy="51.7" rx="2.3" ry="5"/>
 <path class="st6" d="m1434 366.7-17.5 77.5c-5.2-1.2-10.9-1.8-16.7-1.8-27 0-49.3 13.9-52.4 31.7-0.4 2.4-2.5 4.1-4.9 4.1h-81.3-89.8-113.8c6.6-6.1 30.3-24.6 61.4-5.3 4.7-21.8 33.2-25.7 57.3-6.4 1.3-24.2 29.7-36.6 55.7-13.9-6.2-26.5 21-58.5 57.1-30.9-0.6-5.7 1.7-12.2 6.8-17.2 3.6-3.5 8.7-6.2 15.2-7.2 3.3-0.5 7-0.6 11-0.2 2.8 0.3 5.8 0.9 9 1.8 4.8 1.3 10 3.3 15.7 6.1 0 0 5.6-17.9 29.1-2.1 0 0 2.5-25.3 33.6-14.6-8.5-12-2.9-31.6 19.5-23.6 1.6 0.4 3.2 1.1 5 2z"/>
 <path class="st10" d="m1315 408.6c5-21.2 33.5-22.1 1 7.1-28.7-6.2-38.8-39.2-28-40.2s22.5 18.3 27 33.1z"/>
 <path class="st21" d="m1532 302.9-10.9 3.9c-0.7-9.8 0.9-17.9 3.6-24.2 2.7-6.4 6.5-11 10-13.6 5.3-3.9 7.3 2.9 3.1 17.8-1.3 4.7-3.2 10.1-5.8 16.1z"/>
 <path class="st21" d="m1505 316.9c-8-19.9-3.1-40.8 4.2-55.1 0.6-1.1 1.1-2.2 1.7-3.2 8.5-14.8 18.6-15.5 19.9-8.7 1 5.3-3.9 12-9.2 20.7-6.3 10.4-12.9 23.5-10.1 40l-6.5 6.3z"/>
 <path class="st21" d="m1497 318.5-4.9 2.3c-3.8-8.4-6.4-16.6-8-24.6-2.6-12.8-2.8-24.9-1.7-35.4 0.1-1.1 0.2-2.2 0.4-3.2 3-20 13.3-25.4 16.6-16.5 1.6 4.6 0.4 12.4-1.3 22.1-1.7 9.9-3.8 21.8-3.7 34.1 0 7.1 0.7 14.2 2.6 21.2z"/>
 <path class="st21" d="m1486 323.6-7.9 3.7c-6.9-9.8-11.9-20.3-15.5-30.9-5.9-17.3-7.9-34.6-7.2-49.3 0.2-4.7 0.7-9 1.4-13 3.7-20.9 18.1-6.9 18 8.4 0 2-0.3 4.5-0.6 7.5-1.1 9.9-2.9 24.9 0.2 42 1.8 10 5.3 20.7 11.6 31.6z"/>
 <path class="st21" d="m1473 329.3-5 2.4c-10.6-10.7-19.7-20.3-26.5-28.3-9.7-11.4-14.6-19.7-12.5-23.7 2.3-4.3 11.8 0.1 23.4 14.7 6.5 8.3 13.7 19.8 20.6 34.9z"/>
 <path class="st21" d="m1462 335.9-6 2.9c-7.1-1.7-13.8-5.2-19-9.2-8.1-6.2-12.7-13.4-9.6-16.1 3.2-2.8 9.8-2.2 18.4 4.5 4.8 3.8 10.4 9.6 16.2 17.9z"/>
 <path class="st22" d="m1442 303.4c-9.7-11.4-14.6-19.7-12.5-23.7 2.3-4.3 11.8 0.1 23.4 14.7-8.9 0-10.9 9-10.9 9z"/>
 <path class="st22" d="m1462 335.9-6 2.9c-7.1-1.7-13.8-5.2-19-9.2 0 0 2.3-8.2 8.8-11.6 4.8 3.8 10.4 9.6 16.2 17.9z"/>
 <path class="st22" d="m1456 247.1c0.2-4.7 0.7-9 1.4-13 3.7-20.9 18.1-6.9 18 8.4 0 2-0.3 4.5-0.6 7.5-8.4 6.9-18.8-2.9-18.8-2.9z"/>
 <path class="st22" d="m1486 323.6-7.9 3.7c-6.9-9.8-11.9-20.3-15.5-30.9 0.3 0.1 7.9 2.6 11.8-4.5 1.8 10.1 5.3 20.8 11.6 31.7z"/>
 <path class="st22" d="m1484 296.2c-2.6-12.8-2.8-24.9-1.7-35.4 0.1-1.1 0.2-2.2 0.4-3.2 0.2 0.3 6.7 10.2 15.3 5.7-1.7 9.9-3.8 21.8-3.7 34.1-4.1 5.4-10.3-1.2-10.3-1.2z"/>
 <path class="st22" d="m1522 270.6-12.5-8.8c0.6-1.1 1.1-2.2 1.7-3.2 8.5-14.8 18.6-15.5 19.9-8.7 1.1 5.3-3.9 12-9.1 20.7z"/>
 <path class="st22" d="m1532 302.9-10.9 3.9c-0.7-9.8 0.9-17.9 3.6-24.2 0 0 7.2 8.2 13.1 4.2-1.3 4.7-3.2 10.1-5.8 16.1z"/>
 <path class="st3" d="m1600 242.3v17.9s-17.3-13.6-36-33.2l36 15.3z"/>
 <path class="st4" d="m1578 233c-28.8-9.3-65.5-33.4-78.6-72.4-11.6-34.8 3.4-63.2 25.9-34.1 18.9 24.5 22.1 62.3 52.7 106.5z"/>
 <path class="st10" d="m1540 173.8c-5-20.4-10.2-41.4-24.5-57-2.4-1.5-4.7-2.3-6.7-2.4 17.2 15.3 22.9 38.1 28.3 60.1 4.2 17.1 8.5 34.5 18.2 48.6 2 1.1 4 2.1 6 3.1-11.9-14.1-16.5-32.9-21.3-52.4z"/>
 <path class="st3" d="m1600 198.7c-16.1-30.3-25.3-57.6-31.1-46.3s-0.5 54.2 31.1 59.6v-13.3z"/>
 <path class="st9" d="m1600 297.3v156.1c0 8.3-4.1 15.7-10.3 20.2-2.4 1.7-5.8 0.9-6.9-1.9-3.9-9.7-16.4-16.8-31.2-16.8-9.5 0-18 2.9-23.9 7.6-1.9 1.5-4.6 1.2-6.2-0.6-0.3-0.4-0.7-0.8-1.1-1.2-0.6-0.6-1.2-1.2-1.9-1.8-7.9-7-20.1-11.5-33.7-11.5-13.9 0-26.4 4.7-34.3 12-1.8 1.7-4.7 1.5-6.4-0.3-3.5-3.8-8.1-7.1-13.3-9.8-4.4-2.2-9.3-4-14.6-5.2-5.2-1.2-10.9-1.8-16.7-1.8-27 0-49.3 13.9-52.4 31.7-0.4 2.4-2.5 4.1-4.9 4.1h-81.3-89.8c7.6-7.1 38.5-31.7 87.6-14.8 12.9-27.2 33.1-41.2 54.4-48.5 2-0.7 4-1.3 6-1.9 10.6-3.1 21.4-4.6 31.4-5.5h0.3c1.9-0.2 3.7-0.3 5.5-0.4h0.4c0.8 0 1.6-0.1 2.4-0.2h0.1c0.9-0.1 1.9-0.1 2.8-0.2 15.7-0.8 28.6-0.7 35.2-3.4 7.6-3.1 16.1-19.6 31.3-38.8 6.8-8.6 15-17.7 25-26.4 2-1.8 4.1-3.5 6.3-5.2 1.8-1.4 3.6-2.7 5.4-4.1 1.9-1.3 3.8-2.7 5.8-4 1.3-0.9 2.6-1.7 4-2.5 2.6-1.6 5.3-3.1 8-4.6 2.2-1.2 4.4-2.3 6.7-3.4 2-1 4-1.9 6.1-2.8 2.2-1 4.6-1.9 6.9-2.8 2.8-1 5.6-2 8.6-3s6.1-1.8 9.2-2.7c3.9-1 8-2 12.2-2.8 19.4-3.5 41.6-4.9 67.3-2.8z"/>
 <path class="st8" d="m1362 406.7c-28.3 7.4-44.1 22.5-52.5 34.7-10.4 15-12.3 28.8-12.3 29-0.1 0.7-0.6 1.2-1.3 1.2-15.1-0.2-24.6 3.3-30.2 6.7h-4.8c5.2-4.1 15.4-9.3 33.8-9.3h0.2c0.7-3.7 3.4-15.7 12.5-28.9 7.6-10.9 20.8-24.1 43.3-32.5h0.3c1.9-0.2 3.7-0.3 5.5-0.4h0.4c0.8 0 1.6-0.1 2.4-0.2h0.1c0.8-0.2 1.7-0.3 2.6-0.3z"/>
 <path class="st8" d="m1438 453.8h0.2c0.6 0 1.2-0.5 1.3-1.1 0-0.1 2.2-11.7 10.9-22.6 11.6-14.5 28.7-20.7 50.7-18.3 0.4 0 0.7-0.1 1-0.3s0.4-0.6 0.5-1c0-0.9 4.2-86.8 47.2-112.8-2 0.2-3.9 0.4-5.8 0.7-15.3 11.4-27.4 31.6-35.2 59.5-6.6 23.4-8.4 45.4-8.7 51.1-27.8-2.5-43.4 9.1-51.7 19.5-9.1 11.3-11.4 23.2-11.5 23.7-0.1 0.8 0.4 1.5 1.1 1.6z"/>
 <path class="st23" d="m1546 333.6c9.4-20.3 11.2-18.1 19.6-3.8 12.4-3 34.8-1.8 6.2 11.1 11.6 16.2 6.1 17.5-15.3 6.2-15.9 15.8-26 22.5-15.8-0.5-19.6-2.8-17.8-8.8 5.3-13z"/>
 <defs>
  <path id="e" d="m1546 333.6c9.4-20.3 11.2-18.1 19.6-3.8 12.4-3 34.8-1.8 6.2 11.1 11.6 16.2 6.1 17.5-15.3 6.2-15.9 15.8-26 22.5-15.8-0.5-19.6-2.8-17.8-8.8 5.3-13z"/>
 </defs>
 <clipPath id="f">
  <use xlink:href="#e"/>
 </clipPath>
 <path d="m1580 339.5c-10.2-5-21.6-4.5-26.7 6.9-1.4 3.2-2.1 6.8-2.2 10.4l-2.2 0.1c-1-12.6 7.5-24.8 21.1-23.1 3.9 0.5 7.6 1.9 11 3.9 0.1-0.1-1 1.8-1 1.8z" clip-path="url(#f)" fill="#B8AEFF"/>
 <path class="st25" d="m1555 329.3c-1.3 2.3-3.4 3-3.8 1.3s1.3-4.6 3-5.2 2.1 1.6 0.8 3.9z"/>
 <path class="st26" d="m1600 442.2v11.2c0 8.3-4.1 15.7-10.3 20.2-2.4 1.7-5.8 0.9-6.9-1.9-3.9-9.7-16.4-16.8-31.2-16.8-9.5 0-18 2.9-23.9 7.6-1.9 1.5-4.6 1.2-6.2-0.6-0.3-0.4-0.7-0.8-1.1-1.2-0.6-0.6-1.2-1.2-1.9-1.8-7.9-7-20.1-11.5-33.7-11.5-13.9 0-26.4 4.7-34.3 12-1.8 1.7-4.7 1.5-6.4-0.3-3.5-3.8-8.1-7.1-13.3-9.8 2.6-0.8 5.3-1.7 8-2.5 1.1-0.3 2.1-0.6 3.2-0.9 29.7-8.3 66.7-14.1 108.8-11.1 1.4 0.1 2.7 0.2 4.1 0.3 0.5 0 1 0.1 1.4 0.1 1.5 0.1 3 0.3 4.5 0.4 12.6 1.4 25.7 3.5 39.2 6.6z"/>
 <path class="st27" d="m1561 435.7c-16.7 1.7-29.8 9.3-38.9 22.7-0.5 0.8-1 1.5-1.5 2.3-0.6-0.6-1.2-1.2-1.9-1.8 6.1-9.7 16.2-19.7 32.3-24 1.4 0.1 2.7 0.2 4.1 0.3 0.5 0 1 0.1 1.4 0.1 1.5 0.1 3 0.2 4.5 0.4z"/>
 <path class="st28" d="m836.7 360.6h-461.7c-5.8 0-10.6-4.4-11.2-10.1l-31.1-316.5c-0.6-6.6 4.5-12.3 11.2-12.3h461.8c5.8 0 10.6 4.4 11.2 10.1l10.5 108.2 20.5 208.2c0.7 6.6-4.5 12.4-11.2 12.4z"/>
 <path class="st29" d="m823.6 360.6h-235.4l-16.1-163.9-1.7-17.6c-0.5-5.5 3.8-10.3 9.4-10.3h235.7l17.8 181.1c0.6 5.7-3.9 10.7-9.7 10.7z"/>
 <path class="st30" d="m839 338.9-0.1-0.7-0.3-2.9-9.4-93.4-1.5-15.2-0.5-5.1-0.5-5.2-5.3-53.1-1.2-11.6-0.9-8.9-0.6-6.6-1-11.4-0.8-9.4-1.5-16.6-0.8-8.7-0.3-3.6-0.2-2.6-3.9-43c-0.6-6.2-5.9-10.9-12.2-10.9h-443.3c-3.5 0-6.8 1.5-9.1 4s-3.4 5.8-3 9.2l20.4 210.2 0.3 2.9 8.2 84.8c0.6 6.2 5.9 10.9 12.2 10.9h443.3c2.3 0 4.6-0.7 6.5-1.8 1-0.6 1.9-1.3 2.6-2.2 0.1-0.1 0.3-0.3 0.4-0.5 1.9-2.4 2.8-5.5 2.5-8.6zm-12.2 10.3h-443.2c-4.8 0-8.8-3.5-9.3-8.2l-8.2-84.5-0.3-2.9-20.3-210.5c-0.2-2.5 0.6-5 2.3-6.9 1.8-2 4.3-3.1 7-3.1h443.2c4.8 0 8.8 3.5 9.3 8.2l3.8 42.7 0.2 2.6 0.4 4 0.8 8.4 1.5 16.4 0.9 9.4 1 11.4 0.6 6.9 2.1 20.3 17.2 172 0.3 2.9 0.1 1c0.3 2.5-0.6 5-2.3 6.9l-0.8 0.8c-0.3 0.3-0.6 0.5-1 0.7-1.6 0.9-3.4 1.5-5.3 1.5z"/>
 <path class="st6" d="m373.2 49.3c-1.2 0-2 0.8-2 1.9s0.8 1.9 2 1.9 2-0.8 2-1.9c0.1-1.1-0.8-1.9-2-1.9zm-5.6 5.5v2.4h4.2v8h3.1v-10.4h-7.3z"/>
 <path class="st6" d="m386.4 54.5c-1.5 0-2.7 0.8-3.6 1.6h-0.1l-0.2-1.4h-2.5v10.4h3.1v-6.9c0.7-0.7 1.3-1.1 2.1-1.1 1.1 0 1.5 0.6 1.5 2v6h3.1v-6.4c0-2.6-1-4.2-3.4-4.2z"/>
 <path class="st6" d="m399.1 59-0.3-0.5-1.8 1.9 0.3 0.5 2.7 4.2h3.3l-4.2-6.1zm0.5-4.2-3.8 4.2h-0.1v-8.4h-3.1v14.6h3.1v-2.6l1.5-1.6 1.8-1.9 3.9-4.2h-3.3z"/>
 <path class="st6" d="m408.4 51.1 0.1 2.8 0.4 5.9h2l0.4-5.9 0.1-2.8h-3zm1.5 10.1c-1.2 0-2.1 0.8-2.1 2.1 0 1.2 0.9 2.1 2.1 2.1s2.1-0.9 2.1-2.1c0-1.3-0.9-2.1-2.1-2.1z"/>
 <path class="st6" d="m437.3 57.4-1.7-0.7c-1.3-0.5-2.2-0.8-2.2-1.6s0.7-1.2 1.7-1.2c1.3 0 2.2 0.4 3.1 1.1l1.6-1.9c-1.2-1.2-2.9-1.8-4.5-1.8-3 0-5 1.8-5 4.1 0 2 1.4 3.1 2.9 3.7l1.8 0.8c1.3 0.5 2.1 0.8 2.1 1.7 0 0.7-0.6 1.2-1.9 1.2s-2.6-0.6-3.6-1.4l-1.8 2.1c1.5 1.3 3.3 2 5.2 2 3.4 0 5.3-2 5.3-4.2-0.1-2.1-1.2-3.2-3-3.9z"/>
 <path class="st6" d="m451 54.5c-1.2 0-1.9 0.8-2.3 1.7-0.2-1.1-0.9-1.7-1.8-1.7-1.2 0-1.9 0.7-2.3 1.5h-0.1l-0.2-1.3h-2.3v10.4h2.9v-7c0.3-0.7 0.5-1 0.9-1s0.6 0.3 0.6 1v7.1h2.4v-7c0.3-0.7 0.6-1 1-1s0.6 0.3 0.6 1v7.1h2.9v-7.3c0-2.2-0.9-3.5-2.3-3.5z"/>
 <path class="st6" d="m460.3 54.5c-1.8 0-3.4 0.6-4.9 1.4l1.1 2c1.2-0.6 2.2-1 3.2-1 1.4 0 2.1 0.6 2.2 1.5-4.9 0.3-6.8 1.5-6.8 3.8 0 1.7 1.3 3.1 3.4 3.1 1.3 0 2.6-0.6 3.7-1.4h0.1l0.2 1.2h2.5v-5.9c0-3.2-1.8-4.7-4.7-4.7zm1.6 7.5c-0.7 0.6-1.5 1-2.4 1s-1.4-0.3-1.4-1c0-0.9 0.8-1.5 3.9-1.7v1.7z"/>
 <path class="st6" d="m475.8 54.5c-1.7 0-3.2 0.8-4.2 2.5h-0.1l-0.2-2.3h-2.5v10.4h3.1v-5.4c0.9-1.9 2.2-2.5 3.5-2.5 0.8 0 1.2 0.1 1.8 0.3l0.6-2.6c-0.6-0.2-1.1-0.4-2-0.4z"/>
 <path class="st6" d="m489.9 62.6c-0.6 0.2-1.3 0.4-2 0.4-1.5 0-2.2-0.6-2.2-2.2v-3.6h4.4v-2.4h-4.4v-3.2h-2.5l-0.4 3.2-2.8 0.1v2.3h2.6v3.7c0 2.7 1.2 4.6 4.5 4.6 1.4 0 2.5-0.3 3.4-0.6l-0.6-2.3z"/>
 <path class="st6" d="m514.2 61.5c-0.7 0.7-1.5 1.2-2.5 1.2-2.1 0-3.5-1.6-3.5-4.4 0-2.7 1.4-4.4 3.3-4.4 1 0 1.7 0.4 2.4 1l1.7-1.9c-0.9-0.9-2.3-1.7-4.1-1.7-3.7 0-6.5 2.6-6.5 7.1 0 4.6 2.9 7 6.3 7 1.8 0 3.4-0.7 4.5-2l-1.6-1.9z"/>
 <path class="st6" d="m522.8 54.5c-2.7 0-5.3 2-5.3 5.5 0 3.4 2.6 5.4 5.3 5.4s5.3-2 5.3-5.4c0-3.5-2.5-5.5-5.3-5.5zm0 8.4c-1.4 0-2.1-1.2-2.1-2.9 0-1.8 0.7-3 2.1-3s2.1 1.2 2.1 3c0.1 1.7-0.6 2.9-2.1 2.9z"/>
 <path class="st6" d="m537 54.5c-1.5 0-2.7 0.8-3.6 1.6h-0.1l-0.2-1.4h-2.5v10.4h3.1v-6.9c0.7-0.7 1.3-1.1 2.1-1.1 1.1 0 1.5 0.6 1.5 2v6h3.1v-6.4c0-2.6-1.1-4.2-3.4-4.2z"/>
 <path class="st6" d="m552.6 62.6c-0.6 0.2-1.3 0.4-2.1 0.4-1.5 0-2.2-0.6-2.2-2.2v-3.6h4.4v-2.4h-4.4v-3.2h-2.5l-0.4 3.2-2.8 0.1v2.3h2.6v3.7c0 2.7 1.2 4.6 4.5 4.6 1.4 0 2.5-0.3 3.4-0.6l-0.5-2.3z"/>
 <path class="st6" d="m563.7 54.5c-1.7 0-3.2 0.8-4.2 2.5h-0.1l-0.2-2.3h-2.5v10.4h3.1v-5.4c0.9-1.9 2.2-2.5 3.5-2.5 0.8 0 1.2 0.1 1.8 0.3l0.6-2.6c-0.6-0.2-1.1-0.4-2-0.4z"/>
 <path class="st6" d="m573.2 54.5c-1.8 0-3.4 0.6-4.9 1.4l1.1 2c1.2-0.6 2.2-1 3.2-1 1.4 0 2.1 0.6 2.2 1.5-4.9 0.3-6.8 1.5-6.8 3.8 0 1.7 1.3 3.1 3.4 3.1 1.3 0 2.6-0.6 3.7-1.4h0.1l0.2 1.2h2.5v-5.9c0-3.2-1.7-4.7-4.7-4.7zm1.6 7.5c-0.7 0.6-1.5 1-2.4 1s-1.4-0.3-1.4-1c0-0.9 0.8-1.5 3.9-1.7v1.7z"/>
 <path class="st6" d="m589.5 61.9c-0.7 0.5-1.6 1-2.7 1-1.7 0-2.9-1.2-2.9-2.9 0-1.8 1.2-3 3-3 0.8 0 1.5 0.3 2.3 0.8l1.4-1.9c-0.9-0.8-2.3-1.4-3.9-1.4-3.2 0-6 2-6 5.5 0 3.4 2.5 5.4 5.8 5.4 1.4 0 3-0.5 4.3-1.5l-1.3-2z"/>
 <path class="st6" d="m602.8 62.6c-0.6 0.2-1.3 0.4-2 0.4-1.5 0-2.2-0.6-2.2-2.2v-3.6h4.4v-2.4h-4.4v-3.2h-2.6l-0.4 3.2-2.8 0.1v2.3h2.6v3.7c0 2.7 1.2 4.6 4.5 4.6 1.4 0 2.5-0.3 3.4-0.6l-0.5-2.3z"/>
 <path class="st6" d="m375.5 95.5-0.1 2.3v1.3 1.5 1.3l-0.1 2.6h1.2l0.1-2.6v-1.3-1.5-1.3l0.1-2.3h-1.2zm-2.6 0-0.1 2.3v1.3 1.5 1.3l-0.1 2.6h1.2l0.1-2.6v-1.3-1.5-1.3l0.1-2.3h-1.2zm4.8 2.3h-6.2l0.1 1.3h6.2l-0.1-1.3zm0 2.9h-6.2l0.1 1.3h6.2l-0.1-1.3z"/>
 <path class="st6" d="m386.3 105.6h-2.6l-0.9-9.8h2.6l-0.1-1.1h-4.1l1.1 12h4.1l-0.1-1.1z"/>
 <path class="st6" d="m391.4 94.1c-0.8 0-1.3 0.5-1.2 1.3 0.1 0.7 0.7 1.2 1.5 1.2s1.3-0.5 1.2-1.2c-0.1-0.8-0.7-1.3-1.5-1.3zm1.5 3.6h-4.8l0.2 1.6h2.8l0.5 5.3h2l-0.7-6.9z"/>
 <path class="st6" d="m403.1 100.3c-0.2-1.7-1-2.8-2.5-2.8-1 0-1.7 0.5-2.3 1.1h-0.1l-0.2-0.9h-1.7l0.7 6.9h2l-0.4-4.6c0.4-0.5 0.8-0.7 1.3-0.7 0.7 0 1 0.4 1.1 1.3l0.4 4h2l-0.3-4.3z"/>
 <path class="st6" d="m409.2 100.5-0.2-0.3-1.1 1.3 0.2 0.3 2.1 2.8h2.2l-3.2-4.1zm0.1-2.8-2.3 2.8-0.5-5.6h-2l0.9 9.7h2l-0.2-1.7 0.9-1.1 1.1-1.3 2.3-2.8h-2.2z"/>
 <path class="st6" d="m418.3 103.1c-0.1-0.9-0.8-1.6-1.8-1.6s-1.5 0.7-1.5 1.6c0.1 0.9 0.8 1.6 1.8 1.6s1.6-0.7 1.5-1.6zm-0.5-4.5c-0.1-0.9-0.8-1.6-1.8-1.6s-1.5 0.7-1.5 1.6c0.1 0.9 0.8 1.6 1.8 1.6s1.6-0.7 1.5-1.6z"/>
 <path class="st6" d="m424.8 101.5c-1 0-1.5 0.7-1.5 1.6 0.1 0.9 0.8 1.6 1.8 1.6s1.5-0.7 1.5-1.6c-0.1-0.9-0.8-1.6-1.8-1.6zm-0.4-4.5c-1 0-1.5 0.7-1.5 1.6 0.1 0.9 0.8 1.6 1.8 1.6s1.5-0.7 1.5-1.6c-0.1-0.9-0.8-1.6-1.8-1.6z"/>
 <path class="st6" d="m435.9 102.4c-0.5 0.3-1 0.7-1.7 0.7-1.1 0-2-0.8-2.1-2s0.6-2 1.8-2c0.5 0 1 0.2 1.6 0.6l0.8-1.3c-0.6-0.6-1.6-0.9-2.7-0.9-2.1 0-3.9 1.3-3.6 3.6 0.2 2.3 2 3.6 4.2 3.6 0.9 0 2-0.3 2.7-1l-1-1.3z"/>
 <path class="st6" d="m445 101.1c-0.2-2.3-2-3.6-3.9-3.6-1.8 0-3.4 1.3-3.2 3.6s2 3.6 3.9 3.6c1.8 0 3.4-1.3 3.2-3.6zm-3.4 2c-0.9 0-1.5-0.8-1.6-2s0.3-2 1.2-2 1.5 0.8 1.6 2c0.2 1.2-0.2 2-1.2 2z"/>
 <path class="st6" d="m453 100.3c-0.2-1.7-1-2.8-2.5-2.8-1 0-1.7 0.5-2.3 1.1h-0.1l-0.2-0.9h-1.7l0.7 6.9h2l-0.4-4.6c0.4-0.5 0.8-0.7 1.3-0.7 0.7 0 1 0.4 1.1 1.3l0.4 4h2l-0.3-4.3z"/>
 <path class="st6" d="m461.4 102.9c-0.4 0.1-0.8 0.2-1.3 0.2-1 0-1.5-0.4-1.6-1.4l-0.2-2.4h2.9l-0.2-1.6h-2.9l-0.2-2.1h-1.7l-0.1 2.1-1.8 0.1 0.1 1.5h1.7l0.2 2.4c0.2 1.8 1.1 3 3.3 3 0.9 0 1.6-0.2 2.2-0.4l-0.4-1.4z"/>
 <path class="st6" d="m468.2 97.5c-1.1 0-2.1 0.5-2.6 1.7h-0.1l-0.3-1.5h-1.7l0.7 6.9h2l-0.3-3.6c0.5-1.2 1.3-1.7 2.2-1.7 0.5 0 0.8 0.1 1.2 0.2l0.2-1.7c-0.3-0.2-0.7-0.3-1.3-0.3z"/>
 <path class="st6" d="m478 100.6c-0.2-2.1-1.5-3.1-3.4-3.1-1.2 0-2.2 0.4-3.1 0.9l0.8 1.3c0.7-0.4 1.4-0.6 2-0.6 0.9 0 1.4 0.4 1.6 1-3.2 0.2-4.4 1-4.3 2.5 0.1 1.2 1.1 2.1 2.5 2.1 0.9 0 1.7-0.4 2.4-0.9h0.1l0.2 0.8h1.7l-0.5-4zm-3.4 2.6c-0.6 0-1-0.2-1-0.7-0.1-0.6 0.5-1 2.5-1.1l0.1 1.1c-0.5 0.4-1 0.7-1.6 0.7z"/>
 <path class="st6" d="m485.8 102.4c-0.5 0.3-1 0.7-1.7 0.7-1.1 0-2-0.8-2.1-2s0.6-2 1.8-2c0.5 0 1 0.2 1.6 0.6l0.8-1.3c-0.6-0.6-1.6-0.9-2.7-0.9-2.1 0-3.9 1.3-3.6 3.6 0.2 2.3 2 3.6 4.2 3.6 0.9 0 2-0.3 2.7-1l-1-1.3z"/>
 <path class="st6" d="m494.7 102.9c-0.4 0.1-0.8 0.2-1.3 0.2-1 0-1.5-0.4-1.6-1.4l-0.2-2.4h2.9l-0.2-1.6h-2.9l-0.2-2.1h-1.7l-0.1 2.1-1.8 0.1 0.1 1.5h1.7l0.2 2.4c0.2 1.8 1.1 3 3.3 3 0.9 0 1.6-0.2 2.2-0.4l-0.4-1.4z"/>
 <path class="st6" d="m500.6 94.7h-4.1l0.1 1.1h2.6l0.9 9.8h-2.6l0.1 1.1h4.1l-1.1-12z"/>
 <path class="st6" d="m379.9 117.7c-0.2-2.1-1.4-3.5-3.1-3.5-0.7 0-1.5 0.4-2 0.9h-0.1l-0.2-0.7h-1.7l0.9 9.5h2l-0.2-2-0.2-1.1h0.1c0.5 0.5 1.2 0.7 1.8 0.7 1.6-0.1 2.9-1.5 2.7-3.8zm-3.2 2c-0.4 0-0.8-0.1-1.2-0.5l-0.3-2.8c0.4-0.5 0.8-0.6 1.2-0.6 0.9 0 1.3 0.6 1.5 1.9 0.1 1.4-0.5 2-1.2 2z"/>
 <path class="st6" d="m387.5 114.3h-2l0.4 4.5c-0.4 0.6-0.7 0.8-1.3 0.8-0.8 0-1-0.4-1.1-1.3l-0.4-4h-2l0.4 4.3c0.2 1.7 0.9 2.8 2.5 2.8 1 0 1.7-0.5 2.2-1.2h0.1l0.2 1h1.7l-0.7-6.9z"/>
 <path class="st6" d="m396.6 117.7c-0.2-2.1-1.4-3.5-3.1-3.5-0.7 0-1.3 0.3-1.8 0.8h-0.1v-1.1l-0.2-2.4h-2l0.9 9.7h1.6l0.1-0.7h0.1c0.6 0.6 1.3 0.9 2 0.9 1.4 0 2.7-1.4 2.5-3.7zm-3.3 2c-0.4 0-0.8-0.1-1.2-0.5l-0.3-2.8c0.4-0.5 0.8-0.6 1.2-0.6 0.9 0 1.3 0.6 1.5 1.9 0.1 1.4-0.4 2-1.2 2z"/>
 <path class="st6" d="m413.4 116.4c-0.1-1.4-0.8-2.2-1.7-2.2-0.8 0-1.2 0.5-1.4 1.1-0.2-0.7-0.7-1.1-1.3-1.1-0.8 0-1.2 0.5-1.4 1h-0.1l-0.2-0.8h-1.5l0.7 6.9h1.9l-0.5-4.7c0.1-0.5 0.3-0.7 0.6-0.7s0.4 0.2 0.5 0.6l0.5 4.7h1.6l-0.5-4.7c0.2-0.5 0.3-0.7 0.6-0.7s0.4 0.2 0.4 0.6l0.5 4.7h1.9l-0.6-4.7z"/>
 <path class="st6" d="m421.6 117.8c-0.2-2.3-2-3.6-3.9-3.6-1.8 0-3.4 1.3-3.2 3.6s2 3.6 3.9 3.6c1.8 0 3.4-1.3 3.2-3.6zm-3.4 1.9c-0.9 0-1.5-0.8-1.6-2s0.3-2 1.2-2 1.5 0.8 1.6 2c0.2 1.3-0.2 2-1.2 2z"/>
 <path class="st6" d="m429 111.5h-2l0.2 2.3 0.2 1.1h-0.1c-0.5-0.5-1.1-0.7-1.8-0.7-1.5 0-2.8 1.4-2.6 3.6 0.2 2.3 1.5 3.6 3.3 3.6 0.7 0 1.4-0.4 1.8-0.9h0.1l0.2 0.7h1.7l-1-9.7zm-2.5 8.2c-0.8 0-1.4-0.6-1.5-2-0.1-1.3 0.5-1.9 1.2-1.9 0.4 0 0.8 0.1 1.2 0.5l0.3 2.8c-0.4 0.5-0.7 0.6-1.2 0.6z"/>
 <path class="st6" d="m444.3 111.3c-2.2 0-3 1.2-2.8 2.8v0.2l0.2 1.6 0.5 5.3h2l-0.5-5.3-0.2-1.6v-0.2c-0.1-0.8 0.3-1.2 1.2-1.2 0.5 0 1 0.1 1.5 0.3l0.2-1.5c-0.6-0.2-1.3-0.4-2.1-0.4zm1.6 3h-4.4l-1.8 0.1 0.2 1.5h6.2l-0.2-1.6z"/>
 <path class="st6" d="m454.5 119.5c-0.4 0.2-0.7 0.2-1.1 0.2-0.6 0-1.1-0.3-1.2-1.1l-0.7-7.1h-4.2l0.2 1.6h2.2l0.5 5.4c0.2 1.7 1.2 2.9 2.9 2.9 0.9 0 1.3-0.1 2-0.4l-0.6-1.5z"/>
 <path class="st6" d="m459.7 110.7c-0.8 0-1.3 0.5-1.2 1.3 0.1 0.7 0.7 1.2 1.5 1.2s1.3-0.5 1.2-1.2-0.7-1.3-1.5-1.3zm1.4 3.6h-4.8l0.2 1.6h2.8l0.5 5.3h2l-0.7-6.9z"/>
 <path class="st6" d="m471.6 117.7c-0.2-2.1-1.4-3.5-3.1-3.5-0.7 0-1.5 0.4-2 0.9h-0.1l-0.2-0.7h-1.7l0.9 9.5h2l-0.2-2-0.2-1.1h0.1c0.5 0.5 1.2 0.7 1.8 0.7 1.6-0.1 2.9-1.5 2.7-3.8zm-3.3 2c-0.4 0-0.8-0.1-1.2-0.5l-0.3-2.8c0.4-0.5 0.8-0.6 1.2-0.6 0.9 0 1.3 0.6 1.4 1.9 0.2 1.4-0.4 2-1.1 2z"/>
 <path class="st6" d="m479.9 117.7c-0.2-2.1-1.4-3.5-3.1-3.5-0.7 0-1.5 0.4-2 0.9h-0.1l-0.2-0.7h-1.7l0.9 9.5h2l-0.2-2-0.2-1.1h0.1c0.5 0.5 1.2 0.7 1.8 0.7 1.6-0.1 2.9-1.5 2.7-3.8zm-3.3 2c-0.4 0-0.8-0.1-1.2-0.5l-0.3-2.8c0.4-0.5 0.8-0.6 1.2-0.6 0.9 0 1.3 0.6 1.5 1.9 0.1 1.4-0.4 2-1.2 2z"/>
 <path class="st6" d="m487.3 119.4c-0.6 0.3-1.1 0.5-1.7 0.5-1.1 0-1.9-0.4-2.2-1.4h4.7v-0.9c-0.2-1.9-1.4-3.3-3.6-3.3-1.8 0-3.5 1.4-3.2 3.6 0.2 2.3 2 3.6 4.2 3.6 0.9 0 1.9-0.3 2.6-0.8l-0.8-1.3zm-2.5-3.7c0.8 0 1.3 0.5 1.5 1.3h-3c0.1-0.8 0.7-1.3 1.5-1.3z"/>
 <path class="st6" d="m494.8 114.2c-1.1 0-2.1 0.5-2.6 1.7h-0.1l-0.3-1.5h-1.7l0.7 6.9h2l-0.3-3.6c0.5-1.2 1.3-1.7 2.2-1.7 0.5 0 0.8 0.1 1.2 0.2l0.2-1.7c-0.3-0.2-0.7-0.3-1.3-0.3z"/>
 <path class="st6" d="m512.9 122.3h-0.6c-1.2 0-1.4-0.2-1.5-1-0.1-0.7-0.1-1.4-0.2-2.3-0.1-1.1-0.5-1.5-1.6-1.6v-0.1c1-0.2 1.3-0.6 1.2-1.6-0.1-0.8-0.2-1.5-0.3-2.3s0.2-1 1.3-1h0.6l-0.1-1.1h-1.1c-1.8 0-2.5 0.5-2.4 2 0.1 1 0.3 1.5 0.4 2.4 0 0.5-0.3 1-1.8 1l0.1 1.2c1.5 0 2 0.5 2 1 0.1 0.9 0 1.4 0.1 2.4 0.1 1.5 1 2 2.8 2h1.1v-1z"/>
 <path class="st6" d="m412 128.9-0.1 2.3v1.3 1.5 1.3l-0.1 2.6h1.2l0.1-2.6v-1.3-1.5-1.3l0.1-2.3h-1.2zm-2.6 0-0.1 2.3v1.3 1.5 1.3l-0.1 2.6h1.2l0.1-2.6v-1.3-1.5-1.3l0.1-2.3h-1.2zm4.9 2.3h-6.2l0.1 1.3h6.2l-0.1-1.3zm0 2.8h-6.2l0.1 1.3h6.2l-0.1-1.3z"/>
 <path class="st6" d="m422.8 138.9h-2.6l-0.9-9.8h2.6l-0.1-1.1h-4.1l1.1 11.9h4.1l-0.1-1z"/>
 <path class="st6" d="m427.9 127.4c-0.8 0-1.3 0.5-1.2 1.3 0.1 0.7 0.7 1.2 1.5 1.2s1.3-0.5 1.2-1.2c-0.1-0.8-0.7-1.3-1.5-1.3zm1.5 3.6h-4.8l0.2 1.6h2.8l0.5 5.3h2l-0.7-6.9z"/>
 <path class="st6" d="m439.6 133.6c-0.2-1.7-1-2.8-2.5-2.8-1 0-1.7 0.5-2.3 1.1h-0.1l-0.2-0.9h-1.7l0.7 6.9h2l-0.4-4.6c0.4-0.5 0.8-0.7 1.3-0.7 0.7 0 1 0.4 1.1 1.3l0.4 4h2l-0.3-4.3z"/>
 <path class="st6" d="m445.7 133.8-0.2-0.3-1.1 1.3 0.2 0.3 2.1 2.8h2.2l-3.2-4.1zm0.1-2.8-2.3 2.8h-0.1l-0.5-5.6h-2l0.9 9.7h2l-0.2-1.7 0.9-1.1 1.1-1.3 2.3-2.8h-2.1z"/>
 <path class="st6" d="m453 134c-0.2-2.2 0.3-3.8 1.8-5.5l-1.2-0.9c-1.7 1.6-2.6 3.7-2.3 6.4 0.2 2.6 1.6 4.7 3.5 6.3l1-0.9c-1.7-1.5-2.6-3.2-2.8-5.4z"/>
 <path class="st6" d="m461.8 133.6c-1.2-0.3-1.6-0.3-1.7-0.7 0-0.3 0.3-0.6 0.9-0.6 0.8 0 1.6 0.2 2.3 0.7l0.8-1.2c-0.8-0.5-1.9-0.9-3.1-0.9-2 0-3.1 0.9-3 2.2 0.1 1.1 0.9 1.7 2.8 2.1 1.4 0.3 1.7 0.4 1.8 0.8 0 0.3-0.3 0.6-1 0.6-1 0-2-0.3-2.9-0.8l-0.7 1.3c0.9 0.6 2.2 1.1 3.5 1.1 2.2 0 3.3-1 3.2-2.2 0-1.3-0.7-1.9-2.9-2.4z"/>
 <path class="st6" d="m472.9 136.2c-0.4 0.1-0.8 0.2-1.3 0.2-1 0-1.5-0.4-1.6-1.4l-0.2-2.4h2.9l-0.2-1.6h-2.9l-0.2-2.1h-1.7l-0.1 2.1-1.8 0.1 0.1 1.5h1.7l0.2 2.4c0.2 1.8 1.1 3 3.3 3 0.9 0 1.6-0.2 2.2-0.4l-0.4-1.4z"/>
 <path class="st6" d="m477.6 130.8c-1.8 0-3.4 1.3-3.2 3.6s2 3.6 3.9 3.6c1.8 0 3.4-1.3 3.2-3.6-0.2-2.2-2.1-3.6-3.9-3.6zm0.6 5.6c-0.9 0-1.5-0.8-1.6-2s0.3-2 1.2-2 1.5 0.8 1.6 2-0.3 2-1.2 2z"/>
 <path class="st6" d="m488.1 130.8c-1.1 0-2.1 0.5-2.6 1.7h-0.1l-0.3-1.5h-1.7l0.7 6.9h2l-0.3-3.6c0.5-1.2 1.3-1.7 2.2-1.7 0.5 0 0.8 0.1 1.2 0.2l0.3-1.7c-0.5-0.2-0.8-0.3-1.4-0.3z"/>
 <path class="st6" d="m497.8 134c-0.2-2.1-1.5-3.1-3.4-3.1-1.2 0-2.2 0.4-3.1 0.9l0.8 1.3c0.7-0.4 1.4-0.6 2-0.6 0.9 0 1.4 0.4 1.6 1-3.2 0.2-4.4 1-4.3 2.5 0.1 1.2 1.1 2.1 2.5 2.1 0.9 0 1.7-0.4 2.4-0.9h0.1l0.2 0.8h1.7l-0.5-4zm-3.4 2.5c-0.6 0-1-0.2-1-0.7-0.1-0.6 0.5-1 2.5-1.1l0.1 1.1c-0.5 0.4-1 0.7-1.6 0.7z"/>
 <path class="st6" d="m504.2 136.6h-1.3c-0.8 0-1.2-0.2-1.2-0.5 0-0.2 0.1-0.4 0.3-0.5 0.4 0.1 0.7 0.1 1 0.1 1.6 0 2.8-0.7 2.6-2.3 0-0.3-0.2-0.7-0.4-0.9h1.4l-0.1-1.5h-2.8c-0.3-0.1-0.7-0.2-1.1-0.2-1.6 0-2.9 0.8-2.7 2.5 0.1 0.8 0.5 1.4 1.1 1.8v0.1c-0.5 0.3-0.7 0.8-0.7 1.3 0.1 0.6 0.4 0.9 0.8 1.2v0.1c-0.7 0.4-1 0.8-0.9 1.4 0.1 1.2 1.5 1.8 3.3 1.8 2.5 0 4-1.1 3.9-2.5-0.4-1.4-1.4-1.9-3.2-1.9zm-1.7-4.4c0.6 0 1.1 0.4 1.1 1.1 0.1 0.8-0.4 1.1-0.9 1.1s-1.1-0.4-1.1-1.1c-0.1-0.7 0.4-1.1 0.9-1.1zm0.9 7.3c-1.1 0-1.8-0.3-1.8-0.8 0-0.3 0.1-0.5 0.4-0.7 0.3 0.1 0.6 0.1 1.1 0.1h0.9c0.8 0 1.2 0.1 1.3 0.5-0.1 0.6-0.8 0.9-1.9 0.9z"/>
 <path class="st6" d="m513.9 136c-0.6 0.3-1.1 0.5-1.7 0.5-1.1 0-1.9-0.4-2.2-1.4h4.7v-0.9c-0.2-1.9-1.4-3.3-3.6-3.3-1.8 0-3.5 1.4-3.2 3.6 0.2 2.3 2 3.6 4.2 3.6 0.9 0 1.9-0.3 2.6-0.8l-0.8-1.3zm-2.6-3.6c0.8 0 1.3 0.5 1.5 1.3h-3c0.2-0.9 0.7-1.3 1.5-1.3z"/>
 <path class="st6" d="m521.2 134c-0.3-2.6-1.6-4.8-3.5-6.4l-1 0.9c1.8 1.6 2.7 3.3 2.9 5.5s-0.3 3.8-1.8 5.4l1.2 0.9c1.6-1.5 2.5-3.7 2.2-6.3z"/>
 <path class="st6" d="m528.7 128.1h-4.1l0.1 1.1h2.6l0.9 9.8h-2.6l0.1 1.1h4.1l-1.1-12z"/>
 <path class="st6" d="m416.4 151c-0.2-2.1-1.4-3.5-3.1-3.5-0.7 0-1.5 0.4-2 0.9h-0.1l-0.2-0.7h-1.7l0.9 9.5h2l-0.2-2v-1.2h0.1c0.5 0.5 1.2 0.7 1.8 0.7 1.4 0 2.7-1.3 2.5-3.7zm-3.3 2.1c-0.4 0-0.8-0.1-1.2-0.5l-0.3-2.8c0.4-0.5 0.8-0.6 1.2-0.6 0.9 0 1.3 0.6 1.5 1.9s-0.4 2-1.2 2z"/>
 <path class="st6" d="m424 147.7h-2l0.4 4.5c-0.4 0.6-0.7 0.8-1.3 0.8-0.8 0-1-0.4-1.1-1.3l-0.4-4h-2l0.4 4.3c0.2 1.7 0.9 2.8 2.5 2.8 1 0 1.7-0.5 2.2-1.2h0.1l0.2 1h1.7l-0.7-6.9z"/>
 <path class="st6" d="m433.1 151c-0.2-2.1-1.4-3.5-3.1-3.5-0.7 0-1.3 0.3-1.8 0.8h-0.1v-1.1l-0.2-2.4h-2l0.9 9.7h1.6l0.1-0.7h0.1c0.6 0.6 1.3 0.9 2 0.9 1.4 0 2.7-1.3 2.5-3.7zm-3.3 2.1c-0.4 0-0.8-0.1-1.2-0.5l-0.3-2.8c0.4-0.5 0.8-0.6 1.2-0.6 0.9 0 1.3 0.6 1.5 1.9 0.1 1.3-0.4 2-1.2 2z"/>
 <path class="st6" d="m446.8 150.3c-1.2-0.3-1.6-0.3-1.7-0.7 0-0.3 0.3-0.6 0.9-0.6 0.8 0 1.6 0.2 2.3 0.7l0.8-1.2c-0.8-0.5-1.8-0.9-3.1-0.9-2 0-3.1 0.9-3 2.2 0.1 1.1 0.9 1.7 2.8 2.1 1.4 0.3 1.7 0.4 1.8 0.8 0 0.3-0.3 0.6-1 0.6-1 0-2-0.3-2.9-0.8l-0.7 1.3c0.9 0.6 2.2 1.1 3.5 1.1 2.2 0 3.3-1 3.2-2.2-0.1-1.3-0.8-1.9-2.9-2.4z"/>
 <path class="st6" d="m457.8 152.9c-0.4 0.1-0.8 0.2-1.3 0.2-1 0-1.5-0.4-1.6-1.4l-0.2-2.4h2.9l-0.2-1.6h-2.9l-0.2-2.1h-1.7l-0.1 2.1-1.8 0.1 0.1 1.5h1.7l0.2 2.4c0.2 1.8 1.1 3 3.3 3 0.9 0 1.6-0.2 2.2-0.4l-0.4-1.4z"/>
 <path class="st6" d="m464.7 147.5c-1.1 0-2.1 0.5-2.6 1.7h-0.1l-0.3-1.5h-1.7l0.7 6.9h2l-0.3-3.6c0.5-1.2 1.3-1.7 2.2-1.7 0.5 0 0.8 0.1 1.2 0.2l0.3-1.7c-0.5-0.2-0.8-0.3-1.4-0.3z"/>
 <path class="st6" d="m474 147.7h-2l0.4 4.5c-0.4 0.6-0.7 0.8-1.3 0.8-0.8 0-1-0.4-1.1-1.3l-0.4-4h-2l0.4 4.3c0.2 1.7 0.9 2.8 2.5 2.8 1 0 1.7-0.5 2.2-1.2h0.1l0.2 1h1.7l-0.7-6.9z"/>
 <path class="st6" d="m482.3 152.4c-0.5 0.3-1 0.7-1.7 0.7-1.1 0-2-0.8-2.1-2s0.6-2 1.8-2c0.5 0 1 0.2 1.6 0.6l0.8-1.3c-0.6-0.6-1.6-0.9-2.7-0.9-2.1 0-3.9 1.3-3.6 3.6 0.2 2.3 2 3.6 4.2 3.6 0.9 0 2-0.3 2.7-1l-1-1.3z"/>
 <path class="st6" d="m491.2 152.9c-0.4 0.1-0.8 0.2-1.3 0.2-1 0-1.5-0.4-1.6-1.4l-0.2-2.4h2.9l-0.2-1.6h-2.9l-0.2-2.1h-1.7l-0.1 2.1-1.8 0.1 0.1 1.5h1.7l0.2 2.4c0.2 1.8 1.1 3 3.3 3 0.9 0 1.6-0.2 2.2-0.4l-0.4-1.4z"/>
 <path class="st6" d="m507.1 149.3h-3.4l-0.2-2.1h4l-0.2-1.7h-6l0.9 9.1h2l-0.3-3.5h3.4l-0.2-1.8z"/>
 <path class="st6" d="m516 152.8c-0.4 0.2-0.7 0.2-1.1 0.2-0.6 0-1.1-0.3-1.2-1.1l-0.7-7.1h-4.2l0.2 1.6h2.2l0.5 5.4c0.2 1.7 1.2 2.9 2.9 2.9 0.9 0 1.3-0.1 2-0.4l-0.6-1.5z"/>
 <path class="st6" d="m521.2 144.1c-0.8 0-1.3 0.5-1.2 1.3 0.1 0.7 0.7 1.2 1.5 1.2s1.3-0.5 1.2-1.2c-0.1-0.8-0.7-1.3-1.5-1.3zm1.4 3.6h-4.8l0.2 1.6h2.8l0.5 5.3h2l-0.7-6.9z"/>
 <path class="st6" d="m533 151c-0.2-2.1-1.4-3.5-3.1-3.5-0.7 0-1.5 0.4-2 0.9h-0.1l-0.2-0.7h-1.7l0.9 9.5h2l-0.2-2-0.2-1.1h0.1c0.5 0.5 1.2 0.7 1.8 0.7 1.7-0.1 3-1.4 2.7-3.8zm-3.2 2.1c-0.4 0-0.8-0.1-1.2-0.5l-0.3-2.8c0.4-0.5 0.8-0.6 1.2-0.6 0.9 0 1.3 0.6 1.5 1.9 0.1 1.3-0.5 2-1.2 2z"/>
 <path class="st6" d="m541.4 151c-0.2-2.1-1.4-3.5-3.1-3.5-0.7 0-1.5 0.4-2 0.9h-0.1l-0.2-0.7h-1.7l0.9 9.5h2l-0.2-2-0.2-1.1h0.1c0.5 0.5 1.2 0.7 1.8 0.7 1.6-0.1 2.9-1.4 2.7-3.8zm-3.3 2.1c-0.4 0-0.8-0.1-1.2-0.5l-0.3-2.8c0.4-0.5 0.8-0.6 1.2-0.6 0.9 0 1.3 0.6 1.4 1.9 0.2 1.3-0.3 2-1.1 2z"/>
 <path class="st6" d="m547.1 153.2c-1.1 0-1.9-0.4-2.2-1.4h4.7v-0.9c-0.2-1.9-1.4-3.3-3.6-3.3-1.9 0-3.5 1.4-3.2 3.6 0.2 2.3 2 3.6 4.2 3.6 0.9 0 1.9-0.3 2.6-0.8l-0.8-1.2c-0.6 0.2-1.1 0.4-1.7 0.4zm-0.8-4.1c0.8 0 1.3 0.5 1.5 1.3h-2.9c0-0.9 0.6-1.3 1.4-1.3z"/>
 <path class="st6" d="m556.3 147.5c-1.1 0-2.1 0.5-2.6 1.7h-0.1l-0.3-1.5h-1.7l0.7 6.9h2l-0.3-3.6c0.5-1.2 1.3-1.7 2.2-1.7 0.5 0 0.8 0.1 1.2 0.2l0.2-1.7c-0.4-0.2-0.7-0.3-1.3-0.3z"/>
 <path class="st6" d="m574.3 155.6h-0.6c-1.2 0-1.4-0.2-1.5-1-0.1-0.7-0.1-1.4-0.2-2.3-0.1-1.1-0.5-1.5-1.5-1.6v-0.1c1-0.2 1.3-0.6 1.2-1.6-0.1-0.8-0.2-1.5-0.3-2.3s0.2-1 1.3-1h0.6l-0.1-1.1h-1.1c-1.8 0-2.5 0.5-2.4 2 0.1 1 0.3 1.5 0.4 2.4 0.1 0.5-0.3 1-1.8 1l0.1 1.2c1.5 0 2 0.5 2 1 0.1 0.9 0 1.4 0.1 2.4 0.1 1.5 1 2 2.8 2h1.1l-0.1-1z"/>
 <path class="st6" d="m449.3 164.3-0.8 3.3c-0.2 0.7-0.3 1.4-0.4 2.1h-0.1c-0.3-0.7-0.5-1.4-0.8-2.1l-1.4-3.3h-2.1l3.3 6.9h2.3l1.9-6.9h-1.9z"/>
 <path class="st6" d="m459.4 167.3c-0.2-2.1-1.5-3.1-3.4-3.1-1.2 0-2.2 0.4-3.1 0.9l0.9 1.3c0.7-0.4 1.4-0.6 2-0.6 0.9 0 1.4 0.4 1.6 1-3.2 0.2-4.4 1-4.3 2.5 0.1 1.2 1.1 2.1 2.5 2.1 0.9 0 1.7-0.4 2.3-0.9h0.1l0.2 0.8h1.7l-0.5-4zm-3.5 2.5c-0.6 0-1-0.2-1-0.7-0.1-0.6 0.4-1 2.5-1.1l0.1 1.1c-0.4 0.4-0.9 0.7-1.6 0.7z"/>
 <path class="st6" d="m467.6 169.5c-0.4 0.2-0.7 0.2-1.1 0.2-0.6 0-1.2-0.3-1.2-1.1l-0.7-7.1h-4.2l0.2 1.6h2.2l0.5 5.4c0.2 1.7 1.2 2.9 2.9 2.9 0.9 0 1.3-0.1 2-0.4l-0.6-1.5z"/>
 <path class="st6" d="m475.6 164.3h-2l0.4 4.5c-0.4 0.6-0.8 0.8-1.3 0.8-0.8 0-1-0.4-1.1-1.3l-0.4-4h-2l0.4 4.3c0.2 1.7 0.9 2.8 2.5 2.8 1 0 1.7-0.5 2.2-1.2h0.1l0.2 1h1.7l-0.7-6.9z"/>
 <path class="st6" d="m483.8 169.3c-0.6 0.3-1.1 0.5-1.7 0.5-1.1 0-1.9-0.4-2.2-1.4h4.7v-0.9c-0.2-1.9-1.4-3.3-3.6-3.3-1.8 0-3.5 1.4-3.2 3.6 0.2 2.3 2 3.6 4.2 3.6 0.9 0 1.9-0.3 2.7-0.8l-0.9-1.3zm-2.6-3.6c0.8 0 1.3 0.5 1.5 1.3h-3c0.2-0.9 0.7-1.3 1.5-1.3z"/>
 <path class="st6" d="m491.3 169.8c-0.1-0.9-0.8-1.6-1.8-1.6s-1.5 0.7-1.5 1.6c0.1 0.9 0.8 1.6 1.8 1.6s1.6-0.7 1.5-1.6zm-0.4-4.5c-0.1-0.9-0.8-1.6-1.8-1.6s-1.5 0.7-1.5 1.6c0.1 0.9 0.8 1.6 1.8 1.6s1.5-0.7 1.5-1.6z"/>
 <path class="st6" d="m509.6 167.6c-0.2-2.1-1.4-3.5-3.1-3.5-0.7 0-1.3 0.3-1.8 0.8h-0.1v-1.1l-0.2-2.4h-2l0.9 9.7h1.6l0.1-0.7h0.1c0.6 0.6 1.3 0.9 2 0.9 1.4 0.1 2.8-1.3 2.5-3.7zm-3.2 2.1c-0.4 0-0.8-0.1-1.2-0.5l-0.3-2.8c0.4-0.5 0.8-0.6 1.2-0.6 0.9 0 1.3 0.6 1.5 1.9 0.1 1.4-0.5 2-1.2 2z"/>
 <path class="st6" d="m514.1 164.2c-1.8 0-3.4 1.3-3.2 3.6s2 3.6 3.9 3.6c1.8 0 3.4-1.3 3.2-3.6s-2.1-3.6-3.9-3.6zm0.6 5.5c-0.9 0-1.5-0.8-1.6-2s0.3-2 1.2-2 1.5 0.8 1.6 2c0.1 1.3-0.3 2-1.2 2z"/>
 <path class="st6" d="m526.3 167.8c-0.2-2.3-2-3.6-3.9-3.6-1.8 0-3.4 1.3-3.2 3.6s2 3.6 3.9 3.6 3.4-1.3 3.2-3.6zm-3.3 1.9c-0.9 0-1.5-0.8-1.6-2s0.3-2 1.2-2 1.5 0.8 1.6 2c0.1 1.3-0.3 2-1.2 2z"/>
 <path class="st6" d="m534.2 169.5c-0.4 0.2-0.7 0.2-1.1 0.2-0.6 0-1.2-0.3-1.2-1.1l-0.7-7.1h-4.2l0.2 1.6h2.2l0.5 5.4c0.2 1.7 1.2 2.9 2.9 2.9 0.9 0 1.3-0.1 2-0.4l-0.6-1.5z"/>
 <path class="st6" d="m541.5 170.6c-0.1-1.5-0.8-2.4-1.9-2.4-0.9 0-1.5 0.6-1.4 1.4 0.1 0.9 0.8 1.4 1.6 1.4h0.1c0.1 0.9-0.4 1.5-1.6 2l0.6 1.2c1.9-0.5 2.8-1.8 2.6-3.6z"/>
 <path class="st6" d="m417 185.6c-0.1-0.5 0.3-1 1.8-1l-0.1-1.2c-1.5 0-2-0.5-2-1-0.1-0.9 0-1.4-0.1-2.4-0.1-1.5-1-2-2.8-2h-1.1l0.1 1.1h0.6c1.2 0 1.4 0.2 1.5 1 0.1 0.7 0.1 1.4 0.2 2.3 0.1 1.1 0.5 1.5 1.5 1.6v0.1c-1 0.2-1.3 0.6-1.2 1.6 0.1 0.8 0.2 1.5 0.3 2.3s-0.2 1-1.3 1h-0.6l0.1 1.1h1.1c1.8 0 2.5-0.5 2.4-2-0.1-1.1-0.3-1.6-0.4-2.5z"/>
 <path class="st6" d="m419.2 210.7c-0.8 0-1.3 0.5-1.2 1.3s0.7 1.2 1.5 1.2 1.3-0.5 1.2-1.2c-0.1-0.8-0.7-1.3-1.5-1.3zm1.5 3.6h-4.8l0.2 1.6h2.8l0.5 5.3h2l-0.7-6.9z"/>
 <path class="st6" d="m431.3 216.4c-0.1-1.4-0.8-2.2-1.8-2.2-0.8 0-1.2 0.5-1.4 1.1-0.2-0.7-0.7-1.1-1.3-1.1-0.8 0-1.2 0.5-1.4 1l-0.2-0.8h-1.5l0.7 6.9h1.9l-0.4-4.6c0.1-0.5 0.3-0.7 0.5-0.7 0.3 0 0.4 0.2 0.5 0.6l0.5 4.7h1.6l-0.4-4.6c0.1-0.5 0.3-0.7 0.6-0.7s0.4 0.2 0.4 0.6l0.5 4.7h1.9l-0.7-4.9z"/>
 <path class="st6" d="m439.4 217.7c-0.2-2.1-1.4-3.5-3.1-3.5-0.7 0-1.5 0.4-2 0.9h-0.1l-0.2-0.7h-1.7l0.9 9.5h2l-0.2-2-0.2-1.1h0.1c0.5 0.5 1.2 0.7 1.8 0.7 1.6-0.1 3-1.5 2.7-3.8zm-3.2 2c-0.4 0-0.8-0.1-1.2-0.5l-0.3-2.8c0.4-0.5 0.8-0.6 1.2-0.6 0.9 0 1.3 0.6 1.5 1.9 0.1 1.4-0.5 2-1.2 2z"/>
 <path class="st6" d="m447.4 219.5c-0.4 0.2-0.7 0.2-1.1 0.2-0.6 0-1.2-0.3-1.2-1.1l-0.7-7.1h-4.2l0.2 1.6h2.2l0.5 5.4c0.2 1.7 1.2 2.9 2.9 2.9 0.9 0 1.3-0.1 2-0.4l-0.6-1.5z"/>
 <path class="st6" d="m463.5 216h-3.4l-0.2-2.1h4l-0.2-1.7h-6l0.9 9.1h2l-0.3-3.5h3.4l-0.2-1.8z"/>
 <path class="st6" d="m472.4 219.5c-0.4 0.2-0.7 0.2-1.1 0.2-0.6 0-1.1-0.3-1.2-1.1l-0.7-7.1h-4.2l0.2 1.6h2.2l0.5 5.4c0.2 1.7 1.2 2.9 2.9 2.9 0.8 0 1.3-0.1 2-0.4l-0.6-1.5z"/>
 <path class="st6" d="m477.5 210.7c-0.8 0-1.3 0.5-1.2 1.3s0.7 1.2 1.5 1.2 1.3-0.5 1.2-1.2c-0.1-0.8-0.7-1.3-1.5-1.3zm1.5 3.6h-4.8l0.2 1.6h2.8l0.5 5.3h2l-0.7-6.9z"/>
 <path class="st6" d="m489.4 217.7c-0.2-2.1-1.4-3.5-3.1-3.5-0.7 0-1.5 0.4-2 0.9h-0.1l-0.2-0.7h-1.7l0.9 9.5h2l-0.2-2-0.2-1.1h0.1c0.5 0.5 1.2 0.7 1.8 0.7 1.6-0.1 2.9-1.5 2.7-3.8zm-3.2 2c-0.4 0-0.8-0.1-1.2-0.5l-0.3-2.8c0.4-0.5 0.8-0.6 1.2-0.6 0.9 0 1.3 0.6 1.5 1.9 0.1 1.4-0.5 2-1.2 2z"/>
 <path class="st6" d="m497.7 217.7c-0.2-2.1-1.4-3.5-3.1-3.5-0.7 0-1.5 0.4-2 0.9h-0.1l-0.2-0.7h-1.7l0.9 9.5h2l-0.2-2-0.2-1.1c0.5 0.5 1.2 0.7 1.8 0.7 1.8-0.1 3.1-1.5 2.8-3.8zm-3.2 2c-0.4 0-0.8-0.1-1.2-0.5l-0.3-2.8c0.4-0.5 0.8-0.6 1.2-0.6 0.9 0 1.3 0.6 1.5 1.9 0.1 1.4-0.4 2-1.2 2z"/>
 <path class="st6" d="m503.5 219.8c-1.1 0-1.9-0.4-2.2-1.4h4.7v-0.9c-0.2-1.9-1.4-3.3-3.5-3.3-1.9 0-3.5 1.4-3.2 3.6 0.2 2.3 2 3.6 4.2 3.6 0.9 0 1.9-0.3 2.6-0.8l-0.8-1.2c-0.7 0.2-1.2 0.4-1.8 0.4zm-0.9-4.1c0.8 0 1.3 0.5 1.5 1.3h-3c0.2-0.9 0.7-1.3 1.5-1.3z"/>
 <path class="st6" d="m512.7 214.1c-1.1 0-2.1 0.6-2.6 1.7h-0.1l-0.3-1.5h-1.7l0.7 6.9h2l-0.3-3.6c0.5-1.2 1.3-1.7 2.2-1.7 0.5 0 0.8 0.1 1.2 0.2l0.2-1.7c-0.4-0.2-0.7-0.3-1.3-0.3z"/>
 <path class="st6" d="m530.7 222.2h-0.6c-1.2 0-1.4-0.2-1.5-1-0.1-0.7-0.1-1.4-0.2-2.3-0.1-1.1-0.5-1.5-1.5-1.6v-0.1c1-0.2 1.3-0.6 1.2-1.6-0.1-0.8-0.2-1.5-0.3-2.3s0.2-1 1.3-1h0.6l-0.1-1.1h-1.1c-1.8 0-2.5 0.5-2.4 2 0.1 1 0.3 1.5 0.4 2.4 0.1 0.5-0.3 1-1.8 1l0.1 1.2c1.5 0 2 0.5 2 1 0.1 0.9 0 1.4 0.1 2.4 0.1 1.5 1 2 2.8 2h1.1l-0.1-1z"/>
 <path class="st6" d="m537.7 219.7c-0.1-0.9-0.8-1.6-1.8-1.6s-1.5 0.7-1.5 1.6c0.1 0.9 0.8 1.6 1.8 1.6 1 0.1 1.6-0.6 1.5-1.6z"/>
 <path class="st6" d="m546 219.7c-0.1-0.9-0.8-1.6-1.8-1.6s-1.5 0.7-1.5 1.6c0.1 0.9 0.8 1.6 1.8 1.6 1 0.1 1.6-0.6 1.5-1.6z"/>
 <path class="st6" d="m554.4 219.7c-0.1-0.9-0.8-1.6-1.8-1.6s-1.5 0.7-1.5 1.6c0.1 0.9 0.8 1.6 1.8 1.6 1 0.1 1.6-0.6 1.5-1.6z"/>
 <path class="st6" d="m561.8 219c0-0.5 0.3-1 1.8-1l-0.1-1.2c-1.5 0-2-0.5-2-1-0.1-0.9 0-1.4-0.1-2.4-0.1-1.5-1-2-2.8-2h-1.1l0.1 1.1h0.6c1.1 0 1.4 0.2 1.5 1 0.1 0.7 0.1 1.4 0.2 2.3 0.1 1.1 0.5 1.5 1.5 1.6v0.1c-1 0.2-1.3 0.6-1.2 1.6 0.1 0.8 0.2 1.5 0.3 2.3s-0.2 1-1.3 1h-0.6l0.1 1.1h1.1c1.8 0 2.5-0.5 2.4-2-0.1-1.1-0.3-1.6-0.4-2.5z"/>
 <path class="st6" d="m388.4 235.6c-0.1-0.5 0.3-1 1.8-1l-0.1-1.2c-1.5 0-2-0.5-2-1-0.1-0.9 0-1.4-0.1-2.4-0.1-1.5-1-2-2.8-2h-1.1l0.1 1.1h0.6c1.1 0 1.4 0.2 1.5 1 0.1 0.7 0.1 1.4 0.2 2.3 0.1 1.1 0.5 1.5 1.5 1.6v0.1c-1 0.2-1.3 0.6-1.2 1.6 0.1 0.8 0.2 1.5 0.3 2.3s-0.2 1-1.3 1h-0.6l0.1 1.1h1.1c1.8 0 2.5-0.5 2.4-2-0.1-1.1-0.3-1.6-0.4-2.5z"/>
 <path class="st1" d="m1069 436.9h-444.7c-5.3 0-8.8-4-9.3-9.3l-30.1-306.7-1.9-19.4c-0.6-6.1 3.2-11.4 9.3-11.4h434c5.3 0 9.8 4 10.3 9.4l2 20.5 30.4 316.9z"/>
 <path class="st3" d="m1067 419.7-12.5-130.5v-0.4l-2.3-23.9-3.4-35.2-0.4-3.9-10.1-105.8-2-20.5c-0.5-5.3-5-9.4-10.3-9.4h-434-0.8s-0.5 0-0.8 0.1c-0.2 0-0.3 0.1-0.5 0.1h-0.2c-0.1 0-0.2 0-0.2 0.1h-0.1c-0.3 0.1-0.6 0.1-0.8 0.2-0.1 0-0.2 0.1-0.3 0.1-0.1 0.1-0.3 0.1-0.4 0.2l-0.6 0.3c-0.6 0.3-1.2 0.7-1.8 1.2-0.1 0.1-0.2 0.2-0.4 0.3l-0.6 0.6c-0.3 0.3-0.5 0.6-0.8 0.9l-0.2 0.2c-0.1 0.2-0.2 0.3-0.3 0.5-0.1 0.1-0.1 0.2-0.2 0.3s-0.1 0.2-0.2 0.3c-0.1 0.2-0.2 0.3-0.2 0.5-0.1 0.2-0.2 0.5-0.3 0.7 0 0.1 0 0.1-0.1 0.2 0 0.1 0 0.1-0.1 0.2 0 0.1-0.1 0.2-0.1 0.2 0 0.1-0.1 0.2-0.1 0.3 0 0.2-0.1 0.3-0.1 0.5-0.1 0.4-0.2 0.8-0.2 1.2v0.3 0.8 1l1.9 19.4 5.2 52.2 8.1 82.9 0.3 2.8 8.9 90.7 0.3 2.9 0.8 8.3 5.8 59.1v0.4l0.7 7.5c0 0.3 0.1 0.6 0.1 0.9v0.1c0.8 4.2 4.1 7.4 8.2 8.2 0.2 0 0.3 0.1 0.5 0.1s0.5 0.1 0.7 0.1h0.7 444.9l-1.7-17.3zm-443 14.8c-4.1 0-7.4-3-7.8-7.1l-0.8-7.7-5.8-59.1-0.8-8.3-0.3-2.9-8.9-90.7-0.3-2.8-8.1-82.9-5.1-52.1v-0.2l-1.9-19.4c-0.2-2.2 0.5-4.4 2-6 1.5-1.7 3.6-2.6 5.8-2.6h434c4.1 0 7.4 3.1 7.8 7.1l2 20.5 0.1 0.7 10.3 107.6 0.4 3.9 3.1 32.5 2.3 23.7v0.1l12.6 131 1.4 14.8h-442z"/>
 <path class="st9" d="m1039 120-0.4 0.9h-454.3l-1.9-19.4c-0.6-6.1 4.2-11.4 10.3-11.4h434c5.3 0 9.8 4 10.3 9.4l2 20.5z"/>
 <circle class="st31" cx="821.2" cy="100.6" r="3"/>
 <circle class="st26" cx="600.5" cy="106.2" r="4.9"/>
 <circle class="st26" cx="618.3" cy="106.2" r="4.9"/>
 <circle class="st26" cx="636.1" cy="106.2" r="4.9"/>
 <path class="st32" d="m615.9 133.7 0.4 4.5c0.1 1.7 1.6 3 3.3 3h378.6c2 0 3.5-1.7 3.3-3.6l-0.4-4.5c-0.1-1.7-1.6-3-3.3-3h-378.6c-1.9 0-3.5 1.7-3.3 3.6z"/>
 <path class="st32" d="m619.7 165.3 17 175.3c0.4 4.1 3.9 7.3 8 7.3h234.4c4.8 0 8.5-4.1 8-8.8l-17-175.3c-0.4-4.1-3.9-7.3-8-7.3h-234.4c-4.8 0-8.5 4.1-8 8.8z"/>
 <path class="st3" d="m878.1 332.3-15.9-162.1c-0.3-3-2.8-5.2-5.8-5.2h-221.8c-1.6 0-3.2 0.7-4.3 1.9s-1.6 2.8-1.5 4.5l0.2 1.7 15.7 160.4c0.3 3 2.8 5.2 5.8 5.2h221.8c1.6 0 3.2-0.7 4.3-1.9s1.7-2.8 1.5-4.5zm-3.5 2.6c-0.6 0.6-1.4 1-2.2 1h-221.9c-1.5 0-2.8-1.2-3-2.7l-15.7-160.2-0.2-2c-0.1-0.9 0.2-1.7 0.8-2.3s1.4-1 2.2-1h221.8c1.5 0 2.8 1.2 3 2.7l15.9 162.1c0.1 1-0.2 1.8-0.7 2.4z"/>
 <path class="st32" d="m639.7 370.6 2.9 30.7c0.3 3.2 3 5.7 6.2 5.7h238c3.7 0 6.6-3.2 6.2-6.8l-2.9-30.7c-0.3-3.2-3-5.7-6.2-5.7h-237.9c-3.7-0.1-6.6 3.1-6.3 6.8z"/>
 <path class="st26" d="m713.3 287.8 0.6 6.6c0.9 9.9 9.2 17.4 19.1 17.4h47.9c11.3 0 20.2-9.7 19.1-21l-0.6-6.6c-0.9-9.9-9.2-17.4-19.1-17.4h-47.9c-11.3 0-20.1 9.7-19.1 21z"/>
 <path class="st33" d="m720.6 288.1 0.5 4.9c0.7 7.1 6.6 12.4 13.7 12.4h8c8.1 0 14.4-6.9 13.7-15l-0.5-4.9c-0.7-7.1-6.6-12.4-13.7-12.4h-8c-8.2 0.1-14.5 7-13.7 15z"/>
 <path class="st7" d="m1032 369.4h-36.1c-0.8 0-1.4-0.6-1.4-1.4s0.6-1.4 1.4-1.4h36.1c0.8 0 1.4 0.6 1.4 1.4s-0.6 1.4-1.4 1.4z"/>
 <path class="st7" d="m977 369.4h-61.5c-0.8 0-1.4-0.6-1.4-1.4s0.6-1.4 1.4-1.4h61.5c0.8 0 1.4 0.6 1.4 1.4s-0.6 1.4-1.4 1.4z"/>
 <path class="st7" d="m1001 386.6h-44c-0.8 0-1.4-0.6-1.4-1.4s0.6-1.4 1.4-1.4h44c0.8 0 1.4 0.6 1.4 1.4s-0.6 1.4-1.4 1.4z"/>
 <path class="st7" d="m940.3 386.6h-22.9c-0.8 0-1.4-0.6-1.4-1.4s0.6-1.4 1.4-1.4h22.9c0.8 0 1.4 0.6 1.4 1.4s-0.7 1.4-1.4 1.4z"/>
 <path class="st10" d="m854.9 378.1h-50.8c-0.8 0-1.4-0.6-1.4-1.4s0.6-1.4 1.4-1.4h50.8c0.8 0 1.4 0.6 1.4 1.4s-0.6 1.4-1.4 1.4z"/>
 <path class="st10" d="m782.3 378.1h-122.6c-0.8 0-1.4-0.6-1.4-1.4s0.6-1.4 1.4-1.4h122.6c0.8 0 1.4 0.6 1.4 1.4s-0.6 1.4-1.4 1.4z"/>
 <path class="st10" d="m837.1 395.3h-93c-0.8 0-1.4-0.6-1.4-1.4s0.6-1.4 1.4-1.4h93c0.8 0 1.4 0.6 1.4 1.4s-0.6 1.4-1.4 1.4z"/>
 <path class="st10" d="m724.1 395.3h-62.5c-0.8 0-1.4-0.6-1.4-1.4s0.6-1.4 1.4-1.4h62.5c0.8 0 1.4 0.6 1.4 1.4s-0.6 1.4-1.4 1.4z"/>
 <path class="st32" d="m895.8 168.2 3.8 38.6c0.3 3.2 3 5.7 6.3 5.7h106c3.7 0 6.7-3.2 6.3-6.9l-3.8-38.6c-0.3-3.2-3-5.7-6.3-5.7h-106c-3.7 0-6.7 3.2-6.3 6.9z"/>
 <path class="st10" d="m995.7 180.6h-34.6c-0.8 0-1.4-0.6-1.4-1.4s0.6-1.4 1.4-1.4h34.6c0.8 0 1.4 0.6 1.4 1.4s-0.6 1.4-1.4 1.4z"/>
 <path class="st10" d="m940.1 180.6h-25.6c-0.8 0-1.4-0.6-1.4-1.4s0.6-1.4 1.4-1.4h25.6c0.8 0 1.4 0.6 1.4 1.4s-0.6 1.4-1.4 1.4z"/>
 <path class="st10" d="m967.4 197h-51.2c-0.8 0-1.4-0.6-1.4-1.4s0.6-1.4 1.4-1.4h51.2c0.8 0 1.4 0.6 1.4 1.4s-0.6 1.4-1.4 1.4z"/>
 <path class="st6" d="m683.4 215.8c3 0 4.7 0.8 7.7 0.8 3.1 0 5.6-0.5 5.6-4.1 0-3.5-2.7-4.4-5.7-4.4-1.3 0-2.6 0.2-3.9 0.2-2.4 0-5.6-0.1-8-0.1-4.7 0-9.1 0.5-9.1 6.7 0 3.7 1 7.7 1 12.8 0 6.2-0.6 7.6-0.6 11.8 0 3.6 1.1 5.7 5 5.7 3.4 0 4.4-1.8 4.4-4.6 0-1.7-0.6-4.2-0.6-5.9 0-2.2 0.4-3 2.9-3 2.2 0 3.6 0.4 5.8 0.4 3.6 0 6.1-0.9 6.1-5 0-3.4-2.5-4-5.5-4-2.3 0-3.9 0.7-6.4 0.7-1.9 0-3.7-1.3-3.7-3.7 0-4 2-4.3 5-4.3z"/>
 <path class="st6" d="m712.6 236.9c-1.1 0-1.8 0.6-2.9 0.6-1.6 0-2.1-2.4-2.2-3.6-0.3-2.1-0.3-4.2-0.3-6.3 0-7.7 1.9-12.7 1.9-15.8 0-2.7-1.3-4.9-4.3-4.9-2.7 0-4.6 1.9-5 4.6-0.4 3.4-0.5 7.1-0.5 10.9 0 4.5 0 10.2 0.4 13.7 0.6 5.8 2.6 9.6 8.7 9.6 3 0 6.5-1.6 6.5-5.1 0.1-1.7-0.6-3.7-2.3-3.7z"/>
 <path class="st6" d="m726.4 233.6c0-2.6 0.2-5.3 0.2-9 0-2.6-1.8-3.4-4.2-3.4-2.6 0-4.2 0.7-4.2 3.8 0 1.6 0.2 3.5 0.2 5.1 0 3.5-0.4 7-0.4 10.5s1 4.8 4.6 4.8c3.5 0 4.7-2.6 4.7-5.7 0-2.2-0.9-3.8-0.9-6.1zm-2.8-25.8c-4.4 0-6 1.3-6 5.9 0 3.5 3.4 4.3 6.2 4.3 2.6 0 3.8-3.4 3.8-5.6 0-2.5-1.2-4.6-4-4.6z"/>
 <path class="st6" d="m747.9 217c-2.6 0-5.5 1.2-6.9 3.6-0.6-2.1-1.8-3.6-4.2-3.6-3.4 0-4.9 2-4.9 5.3 0 3.1 0.8 4.9 0.8 12.9 0 8.6-0.5 10.9-0.5 14.5 0 3.2 1.3 5.3 4.7 5.3 3.2 0 3.9-2.7 3.9-5.3 0-2.3-0.4-4.6-0.4-6.9 1.5 1.7 4.6 2.3 6.7 2.3 8.3 0 12.3-7.1 12.3-14.7 0-7.2-3.1-13.4-11.5-13.4zm-2.2 20.8c-2.8 0-5.4-2.2-5.4-6.1 0-3.8 1.7-7.3 5.9-7.3 3.7 0 5.2 2.5 5.2 6s-1.5 7.4-5.7 7.4z"/>
 <path class="st6" d="m778.6 217c-5.3 0-6.2 3-7.3 3-0.6 0-0.8-3.2-4.4-3.2-2.7 0-4.6 1.3-4.6 4.3 0 3.4 1.2 6.8 1.2 14.7 0 4.6-0.8 10.3-0.8 13.9 0 3.2 1.1 5.4 4.6 5.4s4.1-2.3 4.1-5.2c0-1.6-0.5-4-0.5-5.6 0-0.5 0.1-0.9 0.1-1.3 2 1.3 4.3 1.9 6.9 1.9 7.6 0 11.9-7.5 11.9-14.9 0.1-6.5-3.7-13-11.2-13zm-2.8 20.5c-3.8 0-4.7-3.2-4.7-6.4 0-3.6 1.2-6.8 5.2-6.8 3.4 0 5.6 2.7 5.6 6 0 3.9-1.9 7.2-6.1 7.2z"/>
 <path class="st6" d="m816.9 236c-0.7-0.5-1.5-0.7-2.3-0.7-3.3 0-2.4 3.7-8.2 3.7-2.6 0-5.8-1.3-5.8-4.3 0-0.9 0.5-1.3 1.3-1.5 3.8-0.9 11.5 0.5 14.3-3.1 0.1-0.1 0.2-0.2 0.3-0.4 0.8-1.3 1.2-2.8 1.2-4.2 0-2.5-1-4.5-2.5-5.9-2.2-2.1-5.5-3.1-8.9-3.1-10 0-13.6 6.4-13.6 15.8 0 8.8 4.9 13.9 13.8 13.9 3.1 0 8.6-1.4 10.9-4.3 0.6-0.8 1-1.8 1-2.9 0.1-1.3-0.6-2.3-1.5-3zm-11.5-13.8c1.6 0 4.8 0.5 4.8 2.8 0 3-3.8 3-6.4 3-1.7 0-3 0-3-1.2 0-2.6 1.9-4.6 4.6-4.6z"/>
 <path class="st6" d="m837 217.2c-3.5 0-4.7 2.4-6 4.9l-0.2 0.2c-0.1 0-0.1-0.3-0.1-0.3-0.2-1.4-0.5-2.6-1.1-3.5-0.7-1-1.8-1.7-3.5-1.7-2.2 0-3.9 1-4.3 2.9-0.1 0.3-0.1 0.7-0.1 1.1 0 1.5 0.3 2.6 0.6 4 0.3 1.2 0.5 2.6 0.5 4.7v0.3c0 3.5-0.5 7-0.5 10.5 0 2.1 0.7 3.5 2 4.3 0.8 0.5 1.8 0.7 3.1 0.7 2.8 0 4.1-1.8 4.1-4.6 0-1.5-0.7-5.1-0.7-8.3 0-0.7 0-1.3 0.2-1.8 0.2-0.8 0.6-1.5 1.4-2.3 2.1-2.2 4.8-0.7 7.1-2.2 1.5-0.9 2.2-2.7 2.2-4.4-0.2-2.7-2-4.5-4.7-4.5z"/>
 <path class="st4" d="m1023 259.5c-0.3 0-0.6-0.1-0.9-0.3-0.6-0.5-0.7-1.4-0.2-2l43.1-51c1.4-1.7 2.1-3.9 1.9-6.2l-12.9-141.8c-0.2-1.9-1.7-3.3-3.6-3.3h-221.1c-0.8 0-1.4-0.6-1.4-1.4s0.6-1.4 1.4-1.4h221.2c3.3 0 6.1 2.5 6.4 5.8l12.9 141.8c0.3 3-0.7 5.9-2.6 8.2l-43.1 51c-0.3 0.4-0.7 0.6-1.1 0.6z"/>
 <path class="st4" d="m608.4 258.7h-276.7c-3.3 0-6-2.5-6.4-5.7l-20.3-193.3c-0.2-1.8 0.4-3.6 1.6-5 1.2-1.3 3-2.1 4.8-2.1h15.7c0.8 0 1.4 0.6 1.4 1.4s-0.6 1.4-1.4 1.4h-15.7c-1 0-2 0.4-2.7 1.2s-1 1.8-0.9 2.8l20.4 193.3c0.2 1.8 1.7 3.2 3.6 3.2h276.6c0.8 0 1.4 0.6 1.4 1.4s-0.7 1.4-1.4 1.4z"/>
 <path class="st26" d="m824.9 51.9 9.5-8c1.4-1.2 3.6-0.2 3.6 1.7v16c0 1.9-2.2 2.9-3.6 1.7l-9.5-8c-1-0.9-1-2.6 0-3.4z"/>
 <path class="st26" d="m619.7 255.6-9.5-8c-1.4-1.2-3.6-0.2-3.6 1.7v16c0 1.9 2.2 2.9 3.6 1.7l9.5-8c1-0.9 1-2.5 0-3.4z"/>
 <path class="st10" d="m921.1 298.3h-37.1c-0.8 0-1.4-0.6-1.4-1.4s0.6-1.4 1.4-1.4h37.1c0.8 0 1.4 0.6 1.4 1.4s-0.7 1.4-1.4 1.4z"/>
 <path class="st8" d="m1040 325.5-7.8 11.1c-2.6 3.5-6.8 5.8-11.6 5.8h-94.5c-7.5 0-13.7-5.7-14.4-13.2l-5.1-58.5c-0.3-3.7 0.8-7.1 2.8-9.9l7.8-11.1 5.5 5.3h92.8c7.5 0 13.7 5.7 14.4 13.2l4.7 53.6 5.4 3.7z"/>
 <path class="st32" d="m1028 331.3h-94.6c-7.5 0-13.7-5.7-14.4-13.2l-5.1-58.5c-0.7-8.4 5.9-15.7 14.4-15.7h94.5c7.5 0 13.7 5.7 14.4 13.2l1.1 13.1 2.4 27.4 1.6 18c0.8 8.4-5.8 15.7-14.3 15.7z"/>
 <path class="st3" d="m1036 311.3-1.8-19.9-0.9-9.6-1.2-13.6-0.5-5.7-0.1-0.8c-0.3-2.9-1.4-5.5-3.1-7.5-0.6-0.7-1.3-1.4-2-1.9-2.4-1.9-5.5-3-8.8-3h-82.8c-4 0-7.8 1.7-10.5 4.6-0.4 0.4-0.8 0.9-1.1 1.3-1.8 2.6-2.7 5.7-2.4 8.9l4.5 49.7c0.6 7.1 6.7 12.5 14 12.5h82.8c4 0 7.8-1.7 10.5-4.6 0.6-0.7 1.2-1.4 1.6-2.2 1.4-2.6 2.1-5.4 1.8-8.2zm-5.5 8.3c-2.1 2.3-5.2 3.7-8.4 3.7h-82.8c-5.9 0-10.7-4.3-11.2-9.9l-4.5-49.7c-0.3-3 0.7-5.9 2.8-8.1 0.2-0.2 0.3-0.4 0.5-0.5 2.1-2 5-3.2 7.9-3.2h82.8c2.7 0 5.1 0.9 7 2.4 0.7 0.6 1.4 1.2 2 2 1.2 1.5 2 3.4 2.2 5.5v0.1l0.3 3.2 0.2 2.1 1.2 13 0.8 9.3 2 22.1c0.2 2.9-0.8 5.8-2.8 8z"/>
 <path class="st1" d="m1e3 264.6-54.9 21.2c-1.2 0.5-1.2 2.1 0 2.6l51.6 19.2c0.9 0.3 1.8-0.3 1.9-1.2l3.3-40.4c0-1-1-1.7-1.9-1.4z"/>
 <path class="st33" d="m999.1 265.9-38.9 28.1 10.9 4.1 28.5-31.5c0.3-0.5-0.1-0.9-0.5-0.7z"/>
 <path class="st8" d="m960.2 294 6.1 18.5c0.3 1 1.6 1.2 2.2 0.3l8.6-12.6-16.9-6.2z"/>
 <circle class="st1" cx="809" cy="100.6" r="4.4"/>
 <path class="st8" d="m1041 294.8c-10.9-4.8-25.2-15.7-31.7-34.2l29.5 9.6 2.2 24.6z"/>
 <path class="st34" d="m1200 250.5c37.5 53.2 13.8 118.2 19.7 117 5.3-1.1 27.8-37.7 23.5-109-0.1 0-26.7-23.3-43.2-8z"/>
 <path class="st34" d="m1218 256.6c-31.8 63.9-16 125.5-6.7 141 9.4 15.5-25.7 1.2-33.8-54.1-4.3-59.6 40.5-86.9 40.5-86.9z"/>
 <path class="st34" d="m1236 216.8c21.5 35.2 35.1 91.5 90.7 100.7 6.2 1 10.4 2.7 9 4.7-2.5 3.9-30.1 8.8-51.8-0.3-48.3-20.4-56.9-67-56.9-67l9-38.1z"/>
 <ellipse class="st35" transform="matrix(.2213 -.9752 .9752 .2213 700 1517)" cx="1300" cy="319.9" rx="4.1" ry="8.8"/>
 <ellipse class="st35" transform="matrix(.5713 -.8207 .8207 .5713 295.1 1174)" cx="1271" cy="304.2" rx="6" ry="12.4"/>
 <path class="st28" d="m1230 417.4c-4.2 1.9-4.8-0.5-3.5-5.9 2.3-9.3 10.4-27.6 16-47.9 7.7-27.8-8.1-75.5-31.3-104-3.6-4.4-7.3-8.3-11.2-11.6-28.7-32.8-4.4-56.3-4.4-56.3 34.6 6.6 73.8 48.3 78.3 103 5.2 63.8-32.5 117.5-43.9 122.7z"/>
 <path class="st34" d="m1226 411.5c2.3-9.3 10.4-27.6 16-47.9 7.7-27.8-8.1-75.5-31.3-104 40.9 21.6 49.5 58.9 46.7 86-2.9 29.3-22.6 47.9-31.4 65.9z"/>
 <path class="st35" d="m1246 309.5c2.1 7.7 1.3 14.7-1.7 15.5-3 0.9-6-5.2-8.1-12.9s-2.4-14.1 0.6-15 7.1 4.7 9.2 12.4z"/>
 <path class="st35" d="m1250 353.1c-0.7 6.3-3.3 11.2-5.7 10.9-2.5-0.3-2.9-5.7-2.2-12.1 0.7-6.3 2.3-11.1 4.8-10.8 2.4 0.3 3.8 5.7 3.1 12z"/>
 <path class="st35" d="m1240 384c-1.9 4.7-4.6 7.9-6.2 7.2s-0.7-4.9 1.1-9.6c1.9-4.7 4-8 5.6-7.3 1.5 0.7 1.3 5-0.5 9.7z"/>
 <path class="st36" d="m1158 235.8c-56.5 57-53.7 124.5-46.1 159.9 1.6 7.6 4.9 15.8 7.3 17.2s1.6-19.6 4.5-40.3c5.7-41.4 58.7-85.3 57.3-122.5-1.2-37.2-23-14.3-23-14.3z"/>
 <ellipse class="st28" transform="matrix(.497 -.8677 .8677 .497 336.3 1134)" cx="1147" cy="277" rx="16.3" ry="8.5"/>
 <ellipse class="st28" transform="matrix(.2084 -.978 .978 .2084 580 1353)" cx="1126" cy="318.4" rx="12.9" ry="6.5"/>
 <ellipse class="st28" transform="matrix(.1566 -.9877 .9877 .1566 588.3 1405)" cx="1117" cy="358" rx="9.3" ry="4.7"/>
 <path class="st28" d="m1209 221.1s15.6 33.1 5.2 71.1c-9.1 33.4-43.9 75.7-45.3 96.9s27.5 32.7 15.1 34c-4.6 0.5-12.5-2.6-20.3-8.8-2.6-2.1-5.2-4.5-7.7-7.2-0.3-0.3-0.6-0.7-0.9-1-1.5-1.7-2.9-3.5-4.2-5.4-0.3-0.4-0.5-0.8-0.8-1.2s-0.5-0.8-0.8-1.2c-0.3-0.5-0.6-1-0.9-1.5-0.2-0.3-0.4-0.7-0.6-1-0.2-0.4-0.5-0.8-0.7-1.3-0.2-0.4-0.5-0.9-0.7-1.3-0.5-0.9-0.9-1.8-1.4-2.7-0.2-0.4-0.4-0.9-0.6-1.3-0.2-0.3-0.3-0.7-0.5-1l-0.6-1.5c0-0.1-0.1-0.2-0.1-0.2-0.2-0.5-0.4-1.1-0.6-1.6s-0.3-0.9-0.5-1.4c-0.1-0.4-0.3-0.8-0.4-1.2 0-0.1-0.1-0.2-0.1-0.3-0.1-0.4-0.3-0.8-0.4-1.3-0.5-1.7-0.9-3.3-1.2-5.1-0.1-0.4-0.2-0.8-0.2-1.2v-0.3c-0.1-0.5-0.2-0.9-0.2-1.4-0.2-1.2-0.3-2.3-0.4-3.5 0-0.3-0.1-0.6-0.1-0.9 0-0.4-0.1-0.7-0.1-1.1 0-0.3-0.1-0.6-0.1-0.9 0-0.6-0.1-1.2-0.1-1.8v-2.2c0-1.3 0-2.7 0.1-4 0-0.5 0.1-0.9 0.1-1.4 2.8-31.5 36.9-58.2 29.4-111-0.2-1.6-0.5-3.1-0.8-4.8-0.4-2.4-2.9-3.9-5.2-3.2-25.4 7.5-39.1 44.7-81.8 51.4-45.1 7-74.2-27.9-74.2-33s51.6 24.2 79.2-4.4c22.6-23.4 28.3-49.9 73.7-59.8 0 0 23.5-4.8 37.5 0 15.2 5.6 34 16.7 12.2 29z"/>
 <path class="st34" d="m1164 414.4c-2.6-2.1-5.2-4.5-7.7-7.2-0.3-0.3-0.6-0.7-0.9-1-1.5-1.7-2.9-3.5-4.2-5.4-0.3-0.4-0.5-0.8-0.8-1.2s-0.5-0.8-0.8-1.2c-0.3-0.5-0.6-1-0.9-1.5-0.2-0.3-0.4-0.7-0.6-1-0.2-0.4-0.5-0.8-0.7-1.3-0.2-0.4-0.5-0.9-0.7-1.3-0.5-0.9-0.9-1.8-1.4-2.7-0.2-0.4-0.4-0.9-0.6-1.3-0.2-0.3-0.3-0.7-0.5-1l-0.6-1.5c0-0.1-0.1-0.2-0.1-0.2-0.2-0.5-0.4-1.1-0.6-1.6s-0.3-0.9-0.5-1.4c-0.1-0.4-0.3-0.8-0.4-1.2 0-0.1-0.1-0.2-0.1-0.3-0.1-0.4-0.3-0.8-0.4-1.3-0.5-1.7-0.9-3.3-1.2-5.1-0.1-0.4-0.2-0.8-0.2-1.2v-0.3c-0.1-0.5-0.2-0.9-0.2-1.4-0.2-1.2-0.3-2.3-0.4-3.5 0-0.3-0.1-0.6-0.1-0.9 0-0.4-0.1-0.7-0.1-1.1 0-0.3-0.1-0.6-0.1-0.9 0-0.6-0.1-1.2-0.1-1.8v-2.2c0-1.3 0-2.7 0.1-4 0-0.5 0.1-0.9 0.1-1.4 2.8-31.5 36.9-58.2 29.4-111 20 33.7 15.4 55.1-5.2 85.1-20.1 29-21.2 60.7 0.5 83.3z"/>
 <path class="st34" d="m1161 238.6c-24.6 8.4-38.5 44.4-80.5 50.9-10.6 1.7-20.4 1-29-1.1 41.4 4.5 53.4-23.6 76.8-38.7 19.4-12.4 32.7-11.1 32.7-11.1z"/>
 <path class="st35" d="m1120 260.9c5.9-5.2 12.3-7.7 14.4-5.4 2 2.3-2.1 7.7-8 12.9s-11.4 8.4-13.4 6.1 1.1-8.4 7-13.6z"/>
 <path class="st35" d="m1092 288.8c-5.7 2.1-10.8 2.3-11.4 0.6s3.9-3.8 9.5-5.9 10.4-3.3 11-1.6-3.4 4.8-9.1 6.9z"/>
 <path class="st35" d="m1170 305.3c-3.3 8.3-8.5 14-11.6 12.7s-1.9-9 1.4-17.2c3.3-8.3 7.6-13.9 10.7-12.7 3 1.2 2.8 8.9-0.5 17.2z"/>
 <path class="st35" d="m1141 341.5c2.4-6.8 6.4-11.5 9-10.6 2.5 0.9 1.8 7.2-0.6 14s-5.7 11.5-8.2 10.6c-2.5-1-2.6-7.3-0.2-14z"/>
 <path class="st35" d="m1140 381.9c-1-6-0.4-11.1 1.4-11.4s4.2 4.5 5.3 10.5c1 6 0.9 10.6-0.9 11s-4.8-4.2-5.8-10.1z"/>
 <ellipse class="st37" transform="matrix(.9895 -.1443 .1443 .9895 -10.79 172.7)" cx="1186" cy="160.7" rx="39.2" ry="40.3"/>
 <path class="st38" d="m1168 165.9c-0.9-9.1-9.5-10-12-1.1-0.5 1.6-2.8 1-2.6-0.6 0.4-4.7 4.3-9.8 9.6-9.2 5.3 0.5 8.1 6.2 7.7 10.9 0 0.7-0.7 1.3-1.4 1.3-0.7-0.1-1.2-0.6-1.3-1.3z"/>
 <path class="st38" d="m1175 166.3c0.5-9 10.8-12.8 16.3-5.3 1.2 1.4 3.5 8.2 0.5 8.2-0.7 0-1.3-0.5-1.4-1.2-0.3-1.9-0.9-3.6-1.9-5-4-4.9-9.7-2.1-10.8 3.7-0.3 1.7-2.8 1.3-2.7-0.4z"/>
 <path class="st38" d="m1178 174c-1.1 10.4-13.5 9.7-13-0.8 0-0.8 0.7-1.3 1.5-1.3s1.3 0.7 1.3 1.4c0 2.2 1 5 3.4 5.1 2.5 0.1 3.7-2.7 4.2-4.9 0.4-1.6 2.8-1.2 2.6 0.5z"/>
 <path class="st37" d="m1148 147.8c-4.4-9.1 5.7-15.6 11.2-17.3 7.1-2.3 14.7-7.6 14.7-7.6 18 15 43.7 15.3 43.7 15.3 11.3 3.8 12 21.2 6.9 21.8-6 0.8-33.5-3.9-52.8-25.6-15.6 10.8-23.7 13.4-23.7 13.4z"/>
 <path class="st39" d="m1192 53.5c-3.1 0-13.4 22.2-30.2 44.1-14.1 18.4-0.4 26.9-0.4 26.9l31.7-53.7-1.1-17.3z"/>
 <path class="st37" d="m1155 132.7c14.9-26.2 34.9-74.2 37.5-69.8s14.4 49 28 78.9c-48.2-4.3-65.5-9.1-65.5-9.1z"/>
 <path class="st39" d="m1192 53.5c3.3 0 7.1 26.6 27.8 50.1 9.9 11.2-5.6 24-5.6 24-17.1-17-22.1-64.7-22.1-64.7l-0.1-9.4z"/>
 <path class="st39" d="m1190 70.5c-3 15.9-6.7 31.6-11.6 47-0.3 0.9-1.7 0.6-1.5-0.4 1.3-8 3-15.9 4.9-23.7s3.9-15.7 6.3-23.4c0.3-1.3 2.2-0.8 1.9 0.5z"/>
 <path class="st39" d="m1224 161.2c-19.3 1.5-38.6-11.7-51.5-25l1.8 0.2c-3.9 2.5-7.9 4.8-12.1 6.9-4.1 2.1-8.4 4-12.7 5.6-0.6 0.2-1.3-0.1-1.5-0.7s0.1-1.3 0.7-1.5c2.1-0.9 4.2-1.7 6.2-2.7 6.1-2.9 12.1-6.2 17.8-10h1.7c13.4 12.3 30.4 24.8 49.3 24.9 1.5-0.2 1.9 2 0.3 2.3z"/>
 <path class="st39" d="m1217 139.3c-8.8-0.1-17.3-2.1-25.4-5.4-5.4-2.1-10.4-5.3-14.8-9.1-0.1-0.1-0.5-0.4-0.6-0.5 0.1 0.1 0.3 0.1 0.4 0s-0.1 0-0.1 0l-1.9 1.1c-6.3 3.4-12.8 6.5-19.9 8.1-0.5 0.1-1-0.2-1.1-0.7s0.2-1 0.7-1.1c7.5-1.9 14.5-5.9 21.1-10 0.9-0.4 1.9-0.2 2.7 0.4l0.4 0.3c2.2 1.6 4.7 3 7.1 4.3 7.2 4.2 15 7.2 23.2 8.9 2.7 0.6 5.5 1.1 8.3 1.3 1.4 0.3 1.4 2.4-0.1 2.4z"/>
 <path class="st39" d="m1161 191.3c12.8 9.2 29.5 9.6 43.8 4.2 0.5-0.2 1 0.6 0.5 0.9-9.9 7.4-24.1 7.9-35.1 2.7-3.7-1.8-7.1-4.2-9.7-7.2-0.3-0.4 0.1-0.9 0.5-0.6z"/>
 <path class="st9" d="m1204 421.8-2 8c-1 4.2-4.8 7.1-9.1 7.1h-569.7c-4.8 0-8.8-3.6-9.3-8.3l-0.9-8.9h589.2c1.2 0 2 1.1 1.8 2.1z"/>
 <path class="st26" d="m751.6 419.7-2.7 10.3c-1.1 4.1-4.8 7-9 7h-116.5c-4.8 0-8.8-3.6-9.3-8.3l-0.9-8.9h138.4z"/>
 <path class="st7" d="m1009 239.6c-0.6 0-1.2-0.4-1.4-1l-4-10.9c-0.3-0.8 0.1-1.6 0.9-1.9s1.6 0.1 1.9 0.9l4 10.9c0.3 0.8-0.1 1.6-0.9 1.9-0.1 0-0.3 0.1-0.5 0.1z"/>
 <path class="st7" d="m1016 240h-0.3c-0.8-0.2-1.3-0.9-1.2-1.8l3.1-15.7c0.2-0.8 0.9-1.3 1.8-1.2 0.8 0.2 1.3 0.9 1.2 1.8l-3.1 15.7c-0.1 0.7-0.8 1.2-1.5 1.2z"/>
 <ellipse class="st26" cx="1484" cy="478.7" rx="27.9" ry="17.2"/>
 <ellipse class="st26" cx="1552" cy="479" rx="18.6" ry="11.5"/>
 <ellipse class="st26" cx="1400" cy="479.2" rx="33.9" ry="20.8"/>
 <path class="st40" d="m1600 24.8v428.5c0 8.3-4.1 15.7-10.3 20.2-2.4 1.7-5.8 0.9-6.9-1.9-3.9-9.7-16.4-16.8-31.2-16.8-9.5 0-18 2.9-23.9 7.6-1.9 1.5-4.6 1.2-6.2-0.6-0.3-0.4-0.7-0.8-1.1-1.2-0.6-0.6-1.2-1.2-1.9-1.8-7.9-7-20.1-11.5-33.7-11.5-13.9 0-26.4 4.7-34.3 12-1.8 1.7-4.7 1.5-6.4-0.3-3.5-3.8-8.1-7.1-13.3-9.8-4.4-2.2-9.3-4-14.6-5.2-5.2-1.2-10.9-1.8-16.7-1.8-27 0-49.3 13.9-52.4 31.7-0.4 2.4-2.5 4.1-4.9 4.1h-81.3-89.8-130.9-323-64.5-312.5-3-269.7-42.7c-9.5 0-17.7-5.3-21.9-13.2-1.9-3.5-2.9-7.5-2.9-11.7v-428.3c0-13.7 11.1-24.8 24.8-24.8h1550c13.8 0 24.9 11.1 24.9 24.8z"/>
</svg>
