<?xml version="1.0" encoding="utf-8"?>
<!-- Generator: Adobe Illustrator 27.1.1, SVG Export Plug-In . SVG Version: 6.00 Build 0)  -->
<svg version="1.1" id="Layer_1" xmlns="http://www.w3.org/2000/svg" xmlns:xlink="http://www.w3.org/1999/xlink" x="0px" y="0px"
	 viewBox="0 0 1600 500" style="enable-background:new 0 0 1600 500;" xml:space="preserve">
<style type="text/css">
	.st0{fill-rule:evenodd;clip-rule:evenodd;fill:#BC83FB;}
	.st1{clip-path:url(#SVGID_00000147905588785156734620000002002634711801605052_);}
	.st2{fill:#F7F7F7;}
	.st3{clip-path:url(#SVGID_00000012458695563666614480000001489662843142676111_);}
	.st4{clip-path:url(#SVGID_00000174574696174337761110000011567106561858751883_);}
</style>
<g>
	<path class="st0" d="M1600,24.8v428.5c0,8.3-4.1,15.7-10.3,20.2c-2.4,1.7-5.8,0.9-6.9-1.9c-3.9-9.7-16.4-16.8-31.2-16.8
		c-9.5,0-18,2.9-23.9,7.6c-1.9,1.5-4.6,1.3-6.2-0.6c-7.7-8.7-21.2-14.5-36.7-14.5c-13.9,0-26.4,4.7-34.3,12
		c-1.8,1.7-4.7,1.5-6.4-0.3c-9.3-10.1-25.8-16.8-44.6-16.8c-27.1,0-49.3,13.9-52.4,31.7c-0.4,2.4-2.5,4.1-4.9,4.1l-1317.2,0
		C11.1,478.2,0,467.1,0,453.4V24.8C0,11.1,11.1,0,24.8,0h1550.3C1588.9,0,1600,11.1,1600,24.8z"/>
</g>
<ellipse class="st0" cx="1483.8" cy="478.7" rx="27.9" ry="17.2"/>
<ellipse class="st0" cx="1552.4" cy="479" rx="18.6" ry="11.5"/>
<ellipse class="st0" cx="1399.5" cy="479.2" rx="33.9" ry="20.8"/>
<g>
	<defs>
		<path id="SVGID_1_" d="M1600,24.8v428.5c0,8.3-4.1,15.7-10.3,20.2c-2.4,1.7-5.8,0.9-6.9-1.9c-3.9-9.7-16.4-16.8-31.2-16.8
			c-9.5,0-18,2.9-23.9,7.6c-1.9,1.5-4.6,1.3-6.2-0.6c-7.7-8.7-21.2-14.5-36.7-14.5c-13.9,0-26.4,4.7-34.3,12
			c-1.8,1.7-4.7,1.5-6.4-0.3c-9.3-10.1-25.8-16.8-44.6-16.8c-27.1,0-49.3,13.9-52.4,31.7c-0.4,2.4-2.5,4.1-4.9,4.1l-1317.2,0
			C11.1,478.2,0,467.1,0,453.4V24.8C0,11.1,11.1,0,24.8,0h1550.3C1588.9,0,1600,11.1,1600,24.8z"/>
	</defs>
	<clipPath id="SVGID_00000097494941353673519500000001308853054564282511_">
		<use xlink:href="#SVGID_1_"  style="overflow:visible;"/>
	</clipPath>
	<g style="clip-path:url(#SVGID_00000097494941353673519500000001308853054564282511_);">
		<g>
			<path class="st2" d="M110.3,97.4c-5.9,2.5-10.4,6.7-12.7,11.4c-0.7,1.4-2.4,1.8-3.7,1c-3-2-6.9-3.2-11.2-3.3
				c-6.1-0.1-11.6,2.1-14.9,5.6c-1,1.1-2.8,1.1-3.8,0c-2-2.3-4.9-4.2-8.3-5.2c-7.1-2.1-13.2,0.1-16.8,6.6c-0.8,1.5-2.6,2.2-4.3,1.7
				c0,0,0,0,0,0c-1.2-0.4-2.1-1.4-2.4-2.6C26.6,89,21.4,57.3,37.9,30C55.6,1,101.5,16.9,85,64.3c-0.5,1.5,0.8,3,2.4,2.6
				c33-8.1,48.9,10.9,46.4,28.6c-0.3,1.8-2.2,2.8-3.8,2C124.7,94.7,117.3,94.5,110.3,97.4z"/>
			<g>
				
					<ellipse transform="matrix(0.9217 -0.388 0.388 0.9217 -34.8261 54.0908)" class="st2" cx="116.5" cy="113.3" rx="14.4" ry="10.9"/>
				
					<ellipse transform="matrix(2.428485e-02 -0.9997 0.9997 2.428485e-02 -40.2506 199.6175)" class="st2" cx="82.1" cy="120.4" rx="8.6" ry="11.3"/>
				<ellipse transform="matrix(0.2799 -0.96 0.96 0.2799 -76.2831 135.3867)" class="st2" cx="52.1" cy="118.5" rx="6.5" ry="8.5"/>
			</g>
		</g>
		<g>
			<path class="st2" d="M403.6,178.2c-5,9-6.4,18.7-4.7,26.8c0.5,2.4-1.2,4.7-3.6,4.9c-5.7,0.5-11.9,2.8-17.3,6.9
				c-7.9,5.9-12.6,14.1-13.3,21.7c-0.2,2.4-2.4,4.1-4.8,3.7c-4.8-0.9-10.2-0.4-15.5,1.7c-10.9,4.4-16.5,13.1-14.6,24.8
				c0.4,2.7-1.1,5.4-3.7,6.3c0,0-0.1,0-0.1,0c-1.9,0.7-4,0.3-5.6-0.9c-30.1-24.2-67.9-58.8-73.9-109.3c-6.4-53.9,66.9-79.1,92.9-3.3
				c0.8,2.4,4,3,5.6,0.9c33.5-42.6,72.1-34.5,86.4-9.8c1.4,2.5,0,5.7-2.8,6.2C419.1,160.5,409.6,167.5,403.6,178.2z"/>
			<g>
				
					<ellipse transform="matrix(0.4861 -0.8739 0.8739 0.4861 51.783 471.8899)" class="st2" cx="427.1" cy="191.9" rx="22.9" ry="17.4"/>
				
					<ellipse transform="matrix(0.8018 -0.5976 0.5976 0.8018 -62.7923 280.1354)" class="st2" cx="390.9" cy="234.7" rx="18" ry="13.7"/>
				
					<ellipse transform="matrix(0.9283 -0.3719 0.3719 0.9283 -72.2019 149.4604)" class="st2" cx="351.4" cy="261.9" rx="13.6" ry="10.3"/>
			</g>
		</g>
		<g>
			<path class="st2" d="M229.9,15.6c-8.6-1.2-16.7,0.6-22.6,4.5c-1.7,1.1-4.1,0.5-5-1.4c-2.2-4.4-5.9-8.5-10.7-11.6
				c-7-4.4-15-5.6-21.2-3.9c-2,0.6-4-0.7-4.4-2.7c-0.7-4.1-2.8-8.2-6.1-11.7c-6.8-7.3-15.4-9-24.1-4c-2,1.2-4.6,0.8-6.1-1
				c0,0,0,0,0-0.1c-1.1-1.3-1.5-3.1-1-4.7c9.9-31.2,25.8-71.6,63.8-91.8c40.6-21.6,82.9,28.7,31,72.4c-1.7,1.4-1.1,4.1,1,4.7
				c43.9,13.4,49.3,46.5,34.1,65.3c-1.5,1.9-4.5,1.8-5.8-0.3C248.6,22.4,240.2,17.1,229.9,15.6z"/>
			<g>
				
					<ellipse transform="matrix(0.1381 -0.9904 0.9904 0.1381 156.9826 257.1619)" class="st2" cx="226.2" cy="38.4" rx="14.7" ry="19.4"/>
				
					<ellipse transform="matrix(0.5322 -0.8466 0.8466 0.5322 65.4546 164.2186)" class="st2" cx="181.3" cy="22.9" rx="11.6" ry="15.3"/>
				
					<ellipse transform="matrix(0.7316 -0.6817 0.6817 0.7316 39.709 100.7076)" class="st2" cx="147.8" cy="-0.1" rx="8.7" ry="11.5"/>
			</g>
		</g>
		<g>
			<path class="st2" d="M263.5,336.8c-0.5,6.8,1.3,13.2,4.6,17.6c1,1.3,0.6,3.2-0.9,4c-3.4,1.9-6.4,5-8.6,9
				c-3.2,5.8-3.8,12.1-2.1,16.9c0.5,1.5-0.3,3.2-1.9,3.6c-3.2,0.8-6.3,2.6-9,5.3c-5.4,5.7-6.4,12.6-2,19.2c1,1.5,0.8,3.6-0.5,4.9
				c0,0,0,0,0,0c-1,0.9-2.4,1.3-3.7,1c-25.1-6.4-57.7-17-75.4-46c-18.9-31,18.8-66.7,55.7-27.8c1.2,1.2,3.2,0.7,3.7-1
				c8.5-35.2,34.3-41.1,49.9-29.9c1.6,1.1,1.6,3.5,0,4.6C268,321.7,264.1,328.6,263.5,336.8z"/>
			<g>
				
					<ellipse transform="matrix(7.963365e-02 -0.9968 0.9968 7.963365e-02 -78.3763 592.3499)" class="st2" cx="281.6" cy="338.6" rx="15.3" ry="11.6"/>
				
					<ellipse transform="matrix(0.4816 -0.8764 0.8764 0.4816 -187.7049 432.1857)" class="st2" cx="271.4" cy="374.7" rx="12.1" ry="9.2"/>
				
					<ellipse transform="matrix(0.6903 -0.7236 0.7236 0.6903 -212.1261 309.0393)" class="st2" cx="254.9" cy="402.3" rx="9.1" ry="6.9"/>
			</g>
		</g>
		<g>
			<path class="st2" d="M559.4,277.4c-7-1.1-13.7,0.3-18.5,3.4c-1.4,0.9-3.3,0.3-4.1-1.2c-1.7-3.6-4.7-7-8.6-9.6
				c-5.7-3.7-12.1-4.7-17.3-3.3c-1.6,0.4-3.3-0.6-3.5-2.2c-0.6-3.3-2.2-6.7-4.9-9.6c-5.5-6-12.5-7.5-19.6-3.5
				c-1.7,0.9-3.8,0.6-5-0.9c0,0,0,0,0,0c-0.9-1.1-1.2-2.5-0.7-3.8c8.4-25.4,21.7-58.2,52.9-74.3c33.3-17.2,67.4,24.2,24.6,59.4
				c-1.4,1.1-1,3.3,0.7,3.8c35.7,11.4,39.8,38.4,27.2,53.6c-1.3,1.5-3.7,1.4-4.7-0.3C574.6,283.2,567.8,278.7,559.4,277.4z"/>
			<g>
				
					<ellipse transform="matrix(0.1496 -0.9887 0.9887 0.1496 180.3604 801.6649)" class="st2" cx="556.2" cy="296" rx="12" ry="15.8"/>
				
					<ellipse transform="matrix(0.5421 -0.8403 0.8403 0.5421 0.2826 566.3181)" class="st2" cx="519.8" cy="282.9" rx="9.5" ry="12.5"/>
				
					<ellipse transform="matrix(0.7395 -0.6731 0.6731 0.7395 -49.2999 400.3225)" class="st2" cx="492.6" cy="263.9" rx="7.1" ry="9.4"/>
			</g>
		</g>
		<g>
			<path class="st2" d="M413.1-26.2c5.9,4.8,12.8,7.1,19,6.9c1.8-0.1,3.3,1.5,3.1,3.3c-0.4,4.3,0.5,9,2.8,13.6
				c3.3,6.5,8.6,11,14.2,12.5c1.7,0.5,2.7,2.3,2.1,4c-1.3,3.4-1.6,7.4-0.8,11.6c1.8,8.5,7.5,13.8,16.3,13.9c2.1,0,3.8,1.5,4.1,3.5
				c0,0,0,0,0,0.1c0.2,1.5-0.3,3-1.4,4c-21.6,18.9-51.9,42-89.6,39.8c-40.3-2.3-49.1-59.2,9.7-68.4c1.9-0.3,2.7-2.5,1.4-3.9
				c-26.8-30-15.9-57.3,4.1-64.5c2-0.7,4.2,0.7,4.2,2.9C402.2-39.8,406.1-31.9,413.1-26.2z"/>
			<g>
				
					<ellipse transform="matrix(0.6318 -0.7751 0.7751 0.6318 189.1666 315.0694)" class="st2" cx="426.2" cy="-41.6" rx="12.9" ry="17"/>
				
					<ellipse transform="matrix(0.8942 -0.4477 0.4477 0.8942 52.1868 201.731)" class="st2" cx="452.8" cy="-9.5" rx="10.2" ry="13.4"/>
				
					<ellipse transform="matrix(0.9791 -0.2033 0.2033 0.9791 5.1017 95.5544)" class="st2" cx="467.6" cy="22.9" rx="7.7" ry="10.1"/>
			</g>
		</g>
		<g>
			<path class="st2" d="M749.5,138c1.4,7.6,5.2,14,10.1,17.9c1.4,1.2,1.5,3.3,0.2,4.6c-3.1,3.1-5.6,7.3-6.9,12.3
				c-1.8,7.2-0.6,14.3,2.6,19.1c1,1.5,0.5,3.6-1.1,4.4c-3.2,1.8-6.2,4.7-8.3,8.4c-4.3,7.8-3.3,15.6,3.3,21.6
				c1.6,1.4,1.9,3.7,0.9,5.5c0,0,0,0,0,0.1c-0.8,1.3-2.2,2.1-3.7,2.1c-29.3,0.3-68-1.9-95.7-28.6c-29.6-28.5,1.2-78.4,52.8-46.5
				c1.7,1,3.7-0.2,3.7-2.1c-0.8-41,25.7-54.8,45.9-47.1c2,0.8,2.7,3.3,1.3,5C750.1,120.2,747.9,128.9,749.5,138z"/>
			<g>
				
					<ellipse transform="matrix(0.9841 -0.1776 0.1776 0.9841 -11.6981 138.8873)" class="st2" cx="769.9" cy="134.8" rx="13.2" ry="17.4"/>
				
					<ellipse transform="matrix(0.2417 -0.9703 0.9703 0.2417 411.3239 880.8004)" class="st2" cx="769.2" cy="177.2" rx="13.7" ry="10.4"/>
				
					<ellipse transform="matrix(0.4826 -0.8759 0.8759 0.4826 207.0035 774.624)" class="st2" cx="759.1" cy="212.1" rx="10.3" ry="7.8"/>
			</g>
		</g>
		<g>
			<path class="st2" d="M806.4,327.2c-2.8,8.5-2.5,17,0.2,23.6c0.8,2-0.3,4.2-2.3,4.8c-4.8,1.4-9.7,4.3-13.7,8.6
				c-5.8,6.3-8.5,14-7.9,20.7c0.2,2.1-1.4,3.9-3.5,3.9c-4.2,0-8.8,1.3-13,3.9c-8.6,5.5-12,13.8-8.6,23.5c0.8,2.3-0.1,4.8-2.2,6
				c0,0,0,0-0.1,0c-1.5,0.9-3.4,0.9-4.9,0.1c-29.6-15.9-67.3-39.5-80.5-81.6c-14.1-45,44.5-78.2,78.9-17.6c1.1,1.9,3.9,1.9,4.9-0.1
				c21.8-41.7,56.1-41,72.2-22.1c1.6,1.9,0.9,4.9-1.4,5.7C816.8,309.6,809.8,317.1,806.4,327.2z"/>
			<g>
				
					<ellipse transform="matrix(0.318 -0.9481 0.9481 0.318 247.4084 1014.2088)" class="st2" cx="828.7" cy="335.1" rx="19.9" ry="15.1"/>
				
					<ellipse transform="matrix(0.6789 -0.7342 0.7342 0.6789 -18.8247 711.8826)" class="st2" cx="804.6" cy="377.5" rx="15.7" ry="11.9"/>
				
					<ellipse transform="matrix(0.8446 -0.5354 0.5354 0.8446 -97.441 478.2752)" class="st2" cx="775.1" cy="407" rx="11.8" ry="9"/>
			</g>
		</g>
		<g>
			<path class="st2" d="M927.3,467.9c-3.5,7.2-4.2,14.8-2.5,21c0.5,1.8-0.7,3.7-2.6,4c-4.4,0.6-9.1,2.7-13.2,6.1
				c-5.9,4.9-9.2,11.5-9.4,17.4c-0.1,1.9-1.7,3.3-3.6,3.1c-3.8-0.5-8,0.1-12,2c-8.3,3.9-12.2,10.9-10.3,19.9
				c0.4,2.1-0.6,4.2-2.6,5.1c0,0,0,0-0.1,0c-1.4,0.6-3.1,0.4-4.4-0.5c-24.5-17.5-55.3-42.8-62.1-81.7c-7.3-41.6,48.5-64.3,72.1-6.6
				c0.8,1.8,3.2,2.1,4.4,0.5c24.2-34.5,54.6-29.9,66.7-11.3c1.2,1.9,0.3,4.4-1.9,4.9C938.6,453.5,931.5,459.3,927.3,467.9z"/>
			<g>
				
					<ellipse transform="matrix(0.437 -0.8995 0.8995 0.437 103.2155 1119.9332)" class="st2" cx="946.2" cy="477.5" rx="17.8" ry="13.5"/>
				
					<ellipse transform="matrix(0.7675 -0.6411 0.6411 0.7675 -114.562 708.8356)" class="st2" cx="919.9" cy="512.4" rx="14" ry="10.6"/>
				
					<ellipse transform="matrix(0.9063 -0.4227 0.4227 0.9063 -142.7692 426.5278)" class="st2" cx="890.3" cy="535.2" rx="10.6" ry="8"/>
			</g>
		</g>
		<g>
			<path class="st2" d="M908.1,239c-5.2-0.5-10.1,0.9-13.5,3.4c-1,0.7-2.4,0.4-3-0.7c-1.4-2.6-3.8-5-6.8-6.7
				c-4.4-2.5-9.2-3-12.9-1.7c-1.2,0.4-2.4-0.3-2.7-1.5c-0.6-2.4-1.9-4.9-4-6.9c-4.3-4.2-9.5-5-14.6-1.7c-1.2,0.8-2.7,0.6-3.7-0.4
				c0,0,0,0,0,0c-0.7-0.7-1-1.8-0.7-2.8c5-19.1,13.4-43.9,35.7-57.2c23.9-14.2,50.8,14.8,20.8,42.7c-1,0.9-0.6,2.5,0.7,2.8
				c26.8,6.8,31.1,26.5,22.5,38.3c-0.9,1.2-2.7,1.2-3.5,0C919.5,242.6,914.3,239.6,908.1,239z"/>
			<g>
				
					<ellipse transform="matrix(8.983301e-02 -0.996 0.996 8.983301e-02 573.2832 1132.9877)" class="st2" cx="906.5" cy="252.8" rx="8.9" ry="11.7"/>
				
					<ellipse transform="matrix(0.4905 -0.8714 0.8714 0.4905 234.5287 890.7426)" class="st2" cx="879" cy="244.8" rx="7" ry="9.2"/>
				
					<ellipse transform="matrix(0.6976 -0.7164 0.7164 0.6976 93.2745 684.9315)" class="st2" cx="858.1" cy="232" rx="5.3" ry="6.9"/>
			</g>
		</g>
		<g>
			<path class="st2" d="M592.4,64.5c-1.1-9.2-5.2-17.1-10.7-22.1c-1.6-1.5-1.6-4.1,0.1-5.5c3.9-3.4,7.2-8.3,9.1-14.2
				c2.7-8.5,1.8-17-1.7-23c-1.1-1.9-0.4-4.3,1.6-5.2c4-1.9,7.7-5.1,10.5-9.5c5.7-9,5.1-18.3-2.4-26c-1.8-1.8-2-4.5-0.6-6.6
				c0,0,0,0,0-0.1c1-1.5,2.8-2.4,4.6-2.3c34.9,1.8,80.9,7.3,112.1,41.1c33.2,36.2-7.2,93.4-66.5,51.6c-1.9-1.3-4.5-0.1-4.6,2.3
				c-2,48.9-34.7,63.5-58.2,52.9c-2.4-1.1-3-4.2-1.2-6C590.4,85.7,593.7,75.5,592.4,64.5z"/>
			<g>
				
					<ellipse transform="matrix(0.9932 -0.1166 0.1166 0.9932 -3.9268 66.7051)" class="st2" cx="567.9" cy="66.9" rx="15.7" ry="20.7"/>
				
					<ellipse transform="matrix(0.3011 -0.9536 0.9536 0.3011 384.1176 556.7332)" class="st2" cx="571.8" cy="16.3" rx="16.3" ry="12.4"/>
				
					<ellipse transform="matrix(0.5356 -0.8445 0.8445 0.5356 293.0925 483.8795)" class="st2" cx="586.5" cy="-24.5" rx="12.3" ry="9.3"/>
			</g>
		</g>
		<g>
			<path class="st2" d="M904.5,56.2c-7,2.7-12.3,7.5-15.1,12.8c-0.8,1.6-2.9,2.1-4.3,1c-3.5-2.4-7.9-4-12.9-4.2
				c-7.1-0.4-13.6,2-17.5,6c-1.2,1.2-3.3,1.2-4.4-0.2c-2.3-2.7-5.5-5-9.5-6.3c-8.1-2.6-15.3-0.3-19.8,7.1c-1,1.7-3.1,2.5-5,1.8
				c0,0,0,0-0.1,0c-1.4-0.5-2.4-1.7-2.7-3.1c-5.6-27.6-10.6-64.5,9.6-95.6c21.5-33.2,74.2-13.1,53.5,41.5c-0.7,1.7,0.9,3.5,2.7,3.1
				c38.6-8.2,56.4,14.3,52.9,34.8c-0.4,2.1-2.6,3.2-4.5,2.1C921.4,53.5,912.8,53,904.5,56.2z"/>
			<g>
				
					<ellipse transform="matrix(0.9328 -0.3604 0.3604 0.9328 34.269 333.4705)" class="st2" cx="911.2" cy="74.9" rx="16.7" ry="12.7"/>
				
					<ellipse transform="matrix(5.394837e-02 -0.9985 0.9985 5.394837e-02 742.2112 947.2902)" class="st2" cx="871" cy="81.9" rx="10" ry="13.1"/>
				
					<ellipse transform="matrix(0.3083 -0.9513 0.9513 0.3083 503.5288 849.9531)" class="st2" cx="836.2" cy="78.7" rx="7.5" ry="9.9"/>
			</g>
		</g>
		<g>
			<path class="st2" d="M1063.1,86.8c0.9,6.4,3.9,11.8,7.9,15.1c1.2,1,1.2,2.8,0.1,3.8c-2.7,2.4-4.8,5.9-6,10
				c-1.7,5.9-0.9,11.8,1.7,15.9c0.8,1.3,0.4,3-1,3.7c-2.7,1.4-5.2,3.7-7.1,6.8c-3.7,6.3-3.2,12.8,2.2,17.9c1.3,1.2,1.5,3.1,0.6,4.6
				c0,0,0,0,0,0c-0.7,1.1-1.9,1.7-3.1,1.7c-24.2-0.5-56.2-3.4-78.5-26.2c-23.8-24.4,3.1-64.8,45-37.1c1.3,0.9,3.1,0,3.1-1.7
				c0.4-33.9,22.7-44.7,39.2-37.8c1.7,0.7,2.2,2.8,1,4.2C1064.1,72.1,1062,79.2,1063.1,86.8z"/>
			<g>
				
					<ellipse transform="matrix(0.9893 -0.1461 0.1461 0.9893 -0.7833 158.6965)" class="st2" cx="1080" cy="84.7" rx="10.9" ry="14.4"/>
				
					<ellipse transform="matrix(0.2726 -0.9621 0.9621 0.2726 669.1576 1124.6654)" class="st2" cx="1078.4" cy="119.8" rx="11.3" ry="8.6"/>
				
					<ellipse transform="matrix(0.5103 -0.86 0.86 0.5103 395.8995 992.0702)" class="st2" cx="1069.1" cy="148.4" rx="8.5" ry="6.5"/>
			</g>
		</g>
		<g>
			<path class="st2" d="M1216.3,445c-5.7,2.6-9.8,6.9-11.9,11.5c-0.6,1.4-2.3,1.9-3.5,1.1c-3-1.8-6.9-2.8-11-2.8
				c-6,0.1-11.2,2.4-14.3,6c-1,1.1-2.7,1.2-3.7,0.1c-2-2.2-4.9-3.9-8.2-4.7c-6.9-1.7-12.8,0.6-16.1,7c-0.8,1.5-2.5,2.3-4.1,1.8
				c0,0,0,0,0,0c-1.2-0.3-2.1-1.3-2.4-2.5c-6.2-22.7-12.5-53.2,2.6-80.2c16.1-28.9,61.1-15.1,47,31.5c-0.5,1.5,0.9,2.9,2.4,2.4
				c31.7-9.1,47.9,8.7,46,26c-0.2,1.7-2,2.8-3.6,2C1230.3,441.7,1223.1,441.8,1216.3,445z"/>
			<g>
				
					<ellipse transform="matrix(0.9061 -0.423 0.423 0.9061 -79.8164 560.488)" class="st2" cx="1223" cy="460.1" rx="13.9" ry="10.6"/>
				
					<ellipse transform="matrix(0.9999 -1.401173e-02 1.401173e-02 0.9999 -6.4447 16.7189)" class="st2" cx="1189.9" cy="468.3" rx="11" ry="8.3"/>
				
					<ellipse transform="matrix(0.243 -0.97 0.97 0.243 425.1493 1479.9242)" class="st2" cx="1160.7" cy="467.6" rx="6.3" ry="8.3"/>
			</g>
		</g>
		<g>
			<path class="st2" d="M1057.3,386.2c-10.4-0.9-20.1,1.7-26.9,6.7c-2,1.5-4.9,0.8-6.1-1.4c-2.9-5.1-7.5-9.9-13.6-13.3
				c-8.7-4.9-18.3-5.9-25.7-3.4c-2.3,0.8-4.8-0.6-5.4-3c-1.1-4.8-3.8-9.7-8-13.7c-8.6-8.3-19-9.9-29.2-3.4c-2.4,1.5-5.5,1.2-7.4-0.8
				c0,0,0,0-0.1-0.1c-1.4-1.5-2-3.6-1.4-5.6c10.1-38.1,26.7-87.5,71.2-114c47.5-28.3,101.3,29.6,41.5,85.2c-1.9,1.8-1.1,4.9,1.4,5.6
				c53.5,13.5,62,52.9,44.8,76.4c-1.7,2.4-5.3,2.4-6.9-0.1C1080.2,393.3,1069.8,387.3,1057.3,386.2z"/>
			<g>
				
					<ellipse transform="matrix(8.970018e-02 -0.996 0.996 8.970018e-02 547.6415 1426.6494)" class="st2" cx="1054.3" cy="413.7" rx="17.7" ry="23.4"/>
				
					<ellipse transform="matrix(0.4904 -0.8715 0.8715 0.4904 162.7025 1073.7172)" class="st2" cx="999.4" cy="397.7" rx="13.9" ry="18.4"/>
				
					<ellipse transform="matrix(0.6975 -0.7165 0.7165 0.6975 23.0317 798.8459)" class="st2" cx="957.8" cy="372.1" rx="10.5" ry="13.8"/>
			</g>
		</g>
		<g>
			<path class="st2" d="M1150.7,177.9c8.6,1.3,16.7-0.5,22.6-4.3c1.7-1.1,4.1-0.4,5,1.4c2.1,4.4,5.8,8.6,10.6,11.7
				c7,4.5,14.9,5.8,21.1,4c2-0.5,4,0.7,4.3,2.7c0.7,4.1,2.7,8.2,6,11.8c6.7,7.3,15.3,9.1,24,4.2c2-1.2,4.6-0.7,6.1,1c0,0,0,0,0,0.1
				c1.1,1.3,1.5,3.1,0.9,4.7c-10.1,31.1-26.3,71.3-64.5,91.1c-40.7,21.2-82.5-29.3-30.3-72.6c1.7-1.4,1.2-4-0.9-4.7
				c-43.7-13.8-48.9-46.8-33.5-65.4c1.6-1.9,4.5-1.7,5.7,0.4C1132,170.9,1140.4,176.4,1150.7,177.9z"/>
			<g>
				
					<ellipse transform="matrix(0.1465 -0.9892 0.9892 0.1465 831.9214 1274.5188)" class="st2" cx="1154.5" cy="155.2" rx="14.7" ry="19.4"/>
				
					<ellipse transform="matrix(0.5394 -0.8421 0.8421 0.5394 408.3549 1088.5956)" class="st2" cx="1199.2" cy="171" rx="11.6" ry="15.3"/>
				
					<ellipse transform="matrix(0.7374 -0.6755 0.6755 0.7374 192.5196 883.6105)" class="st2" cx="1232.5" cy="194.2" rx="8.7" ry="11.5"/>
			</g>
		</g>
		<g>
			<path class="st2" d="M1430.5,29.7c7.5-6.3,12.2-14.5,13.4-22.3c0.4-2.3,2.7-3.8,4.9-3.1c5.3,1.5,11.6,1.6,17.9-0.2
				c9-2.5,16.1-8.3,19.3-14.9c1-2.1,3.6-2.8,5.5-1.6c4,2.5,9,3.9,14.5,3.8c11.2-0.2,19.2-6.1,21.6-17.2c0.6-2.6,2.8-4.4,5.5-4.4
				c0,0,0.1,0,0.1,0c1.9,0,3.7,1.1,4.7,2.7c18.7,32,40.5,75.9,28.6,123.1c-12.7,50.4-86.9,47.8-84.2-28.9c0.1-2.5-2.5-4-4.7-2.8
				c-44.5,26.6-76.4,6.1-80.6-20.9c-0.4-2.7,1.9-5.1,4.7-4.6C1410.6,40.2,1421.5,37.2,1430.5,29.7z"/>
			<g>
				
					<ellipse transform="matrix(0.7669 -0.6417 0.6417 0.7669 323.5899 909.6902)" class="st2" cx="1414.2" cy="9.4" rx="22" ry="16.6"/>
				
					<ellipse transform="matrix(0.9627 -0.2706 0.2706 0.9627 58.9929 394.8195)" class="st2" cx="1461.2" cy="-16.5" rx="17.3" ry="13.1"/>
				
					<ellipse transform="matrix(0.9999 -1.460074e-02 1.460074e-02 0.9999 0.5584 21.9848)" class="st2" cx="1505.9" cy="-27.3" rx="13" ry="9.9"/>
			</g>
		</g>
		<g>
			<path class="st2" d="M1339.3,386.3c-6.2-6.9-14.1-11.1-21.5-12c-2.2-0.3-3.7-2.4-3.1-4.6c1.3-5.1,1.1-11-0.8-16.9
				c-2.7-8.5-8.3-14.9-14.7-17.8c-2-0.9-2.8-3.3-1.7-5.2c2.2-3.8,3.4-8.6,3.1-13.8c-0.5-10.6-6.4-18-16.9-19.9
				c-2.5-0.4-4.3-2.5-4.3-5c0,0,0-0.1,0-0.1c0-1.8,0.9-3.5,2.5-4.5c29.7-18.6,70.5-40.7,115.5-30.9c48.1,10.5,47.9,80.7-24.7,80.6
				c-2.3,0-3.7,2.5-2.5,4.5c26.5,41.3,8.2,72-17.3,76.9c-2.6,0.5-4.9-1.7-4.5-4.3C1349.9,404.8,1346.7,394.6,1339.3,386.3z"/>
			<g>
				
					<ellipse transform="matrix(0.7454 -0.6666 0.6666 0.7454 68.0216 982.7989)" class="st2" cx="1320.6" cy="402.4" rx="15.8" ry="20.8"/>
				
					<ellipse transform="matrix(0.9533 -0.3022 0.3022 0.9533 -47.8557 407.984)" class="st2" cx="1294.7" cy="358.7" rx="12.4" ry="16.4"/>
				
					<ellipse transform="matrix(0.9989 -4.752376e-02 4.752376e-02 0.9989 -13.602 61.3364)" class="st2" cx="1283.1" cy="316.7" rx="9.3" ry="12.3"/>
			</g>
		</g>
		<g>
			<path class="st2" d="M1273.7,36.7c-4.9,7.7-6.6,16.2-5.5,23.4c0.3,2.1-1.3,4.1-3.5,4.2c-5.1,0.2-10.6,1.9-15.7,5.2
				c-7.3,4.8-11.8,11.8-12.8,18.5c-0.3,2.1-2.4,3.5-4.4,3c-4.2-1-9-0.9-13.8,0.7c-9.8,3.3-15.2,10.8-14.2,21.2
				c0.2,2.4-1.2,4.7-3.6,5.4c0,0,0,0-0.1,0c-1.7,0.5-3.6,0.1-4.9-1.1c-25.4-22.9-57-55.5-59.8-100.4c-3-48,63.1-66.5,82.3,1.8
				c0.6,2.2,3.4,2.8,4.9,1.1c31.7-36,65.5-26.9,76.9-4.3c1.1,2.3-0.3,5-2.8,5.3C1288.3,21.8,1279.5,27.5,1273.7,36.7z"/>
			<g>
				
					<ellipse transform="matrix(0.5352 -0.8447 0.8447 0.5352 559.109 1116.1094)" class="st2" cx="1293.8" cy="50" rx="20.3" ry="15.4"/>
				
					<ellipse transform="matrix(0.8346 -0.5508 0.5508 0.8346 160.9147 708.011)" class="st2" cx="1259.6" cy="86" rx="16" ry="12.1"/>
				<ellipse transform="matrix(0.948 -0.3182 0.3182 0.948 29.2142 394.9118)" class="st2" cx="1223.3" cy="108" rx="12" ry="9.1"/>
			</g>
		</g>
		<g>
			<path class="st2" d="M1379.5,170.4c-6,1-11,4-14.1,7.8c-0.9,1.1-2.6,1.2-3.6,0.1c-2.4-2.5-5.7-4.4-9.6-5.4
				c-5.6-1.5-11.2-0.6-15,1.9c-1.2,0.8-2.8,0.4-3.5-0.9c-1.4-2.5-3.6-4.9-6.5-6.5c-6.1-3.4-12.2-2.7-16.9,2.5
				c-1.1,1.2-2.9,1.5-4.3,0.6c0,0,0,0,0,0c-1-0.6-1.6-1.7-1.6-2.9c0-22.9,1.9-53.2,23-74.7c22.5-23,61.3,1.5,36,41.7
				c-0.8,1.3,0.1,2.9,1.6,2.9c32.1-0.4,42.7,20.5,36.6,36.2c-0.6,1.6-2.6,2.1-3.9,1C1393.4,170.9,1386.6,169.2,1379.5,170.4z"/>
			<g>
				
					<ellipse transform="matrix(0.9855 -0.1694 0.1694 0.9855 -11.5905 236.8209)" class="st2" cx="1381.9" cy="186.3" rx="13.6" ry="10.3"/>
				
					<ellipse transform="matrix(0.2498 -0.9683 0.9683 0.2498 832.1332 1445.1049)" class="st2" cx="1348.7" cy="185.5" rx="8.1" ry="10.7"/>
				
					<ellipse transform="matrix(0.4898 -0.8718 0.8718 0.4898 519.5081 1242.5387)" class="st2" cx="1321.4" cy="177.4" rx="6.1" ry="8.1"/>
			</g>
		</g>
		<g>
			<path class="st2" d="M1464.7,433.5c2.5,5.9,6.7,10.3,11.3,12.5c1.4,0.7,1.8,2.4,1,3.7c-1.9,3-3.2,6.9-3.3,11.1
				c-0.1,6.1,2,11.5,5.5,14.8c1.1,1,1.1,2.8,0,3.7c-2.3,2-4.1,4.8-5.1,8.2c-2,7,0.1,13.1,6.5,16.6c1.5,0.8,2.2,2.6,1.7,4.2
				c0,0,0,0,0,0c-0.4,1.2-1.4,2.1-2.6,2.4c-23.3,5.5-54.7,10.6-81.6-5.7c-28.8-17.5-13-62.9,33.9-46.6c1.5,0.5,3-0.8,2.6-2.4
				c-8-32.6,10.7-48.4,28.3-45.9c1.8,0.3,2.8,2.2,1.9,3.7C1462,419.2,1461.8,426.5,1464.7,433.5z"/>
			<g>
				
					<ellipse transform="matrix(0.9217 -0.388 0.388 0.9217 -49.8236 607.8052)" class="st2" cx="1480.4" cy="427.3" rx="10.8" ry="14.2"/>
				
					<ellipse transform="matrix(2.428486e-02 -0.9997 0.9997 2.428486e-02 990.1243 1937.1292)" class="st2" cx="1487.4" cy="461.3" rx="11.2" ry="8.5"/>
				
					<ellipse transform="matrix(0.2799 -0.96 0.96 0.2799 598.3219 1779.7596)" class="st2" cx="1485.6" cy="491" rx="8.4" ry="6.4"/>
			</g>
		</g>
		<g>
			<path class="st2" d="M1633.1,371.7c-5.5,7.1-8,15.3-7.5,22.5c0.1,2.1-1.7,3.9-3.8,3.8c-5-0.3-10.6,0.9-15.9,3.7
				c-7.6,4-12.7,10.5-14.3,17c-0.5,2-2.6,3.2-4.6,2.5c-4-1.4-8.8-1.7-13.6-0.5c-10,2.4-15.9,9.2-15.9,19.6c0,2.4-1.6,4.5-4,5
				c0,0,0,0-0.1,0c-1.7,0.3-3.5-0.2-4.7-1.5c-22.9-24.8-51-59.6-49.7-104c1.4-47.4,68-59.7,80.7,9.2c0.4,2.2,3.1,3.1,4.7,1.5
				c34.4-32.5,66.8-20.5,75.9,2.7c0.9,2.3-0.7,4.9-3.2,5C1648.7,358.4,1639.6,363.2,1633.1,371.7z"/>
			<g>
				
					<ellipse transform="matrix(0.6101 -0.7923 0.7923 0.6101 337.6787 1459.3284)" class="st2" cx="1651.6" cy="386.6" rx="20" ry="15.2"/>
				
					<ellipse transform="matrix(0.8814 -0.4723 0.4723 0.8814 -6.3799 812.3466)" class="st2" cx="1614.8" cy="418.9" rx="15.8" ry="12"/>
				
					<ellipse transform="matrix(0.9731 -0.2304 0.2304 0.9731 -58.3117 375.1061)" class="st2" cx="1577.1" cy="437.3" rx="11.9" ry="9"/>
			</g>
		</g>
		<g>
			<path class="st2" d="M1561.8,197.7c-4,6-5.6,12.7-4.9,18.4c0.2,1.7-1.1,3.2-2.8,3.2c-4,0-8.4,1.3-12.5,3.8
				c-5.8,3.6-9.6,9.1-10.6,14.4c-0.3,1.7-1.9,2.7-3.6,2.3c-3.3-0.9-7.1-0.9-10.9,0.3c-7.9,2.4-12.3,8.2-11.7,16.4
				c0.1,1.9-1.1,3.7-3,4.2c0,0,0,0-0.1,0c-1.4,0.4-2.8,0-3.8-1c-19.6-18.7-43.8-45.1-45-80.7c-1.3-38,51.4-51.2,65,3.3
				c0.4,1.7,2.6,2.3,3.8,1c25.9-27.7,52.4-19.8,60.9-1.6c0.9,1.8-0.3,4-2.3,4.2C1573.7,186.3,1566.6,190.6,1561.8,197.7z"/>
			<g>
				
					<ellipse transform="matrix(0.5591 -0.8291 0.8291 0.5591 522.3932 1399.777)" class="st2" cx="1577.4" cy="208.7" rx="16.1" ry="12.2"/>
				
					<ellipse transform="matrix(0.85 -0.5267 0.5267 0.85 107.8617 851.6449)" class="st2" cx="1549.6" cy="236.4" rx="12.6" ry="9.6"/>
				
					<ellipse transform="matrix(0.9567 -0.291 0.291 0.9567 -7.8195 453.4189)" class="st2" cx="1520.3" cy="253" rx="9.5" ry="7.2"/>
			</g>
		</g>
		<g>
			<path class="st2" d="M422.4,441.9c-6.5-3.4-13.4-4.3-19.2-3c-1.7,0.4-3.4-0.8-3.6-2.5c-0.5-4.1-2.2-8.4-5.2-12.3
				c-4.3-5.5-10.2-8.8-15.7-9.1c-1.7-0.1-3-1.7-2.7-3.4c0.6-3.4,0.1-7.3-1.4-11c-3.3-7.7-9.6-11.5-17.9-10.1
				c-1.9,0.3-3.9-0.7-4.6-2.5c0,0,0,0,0-0.1c-0.5-1.3-0.3-2.9,0.6-4c16.8-21.9,41-49.3,76.9-54.4c38.4-5.4,57.4,46.5,3.7,66.3
				c-1.7,0.6-2,2.9-0.6,4c30.9,23.2,25.7,50.9,8.3,61.5c-1.8,1.1-4.1,0.1-4.5-1.9C435.2,452.7,430.1,446,422.4,441.9z"/>
			<g>
				
					<ellipse transform="matrix(0.4676 -0.8839 0.8839 0.4676 -185.7914 609.3289)" class="st2" cx="412.9" cy="458.9" rx="12.4" ry="16.4"/>
				
					<ellipse transform="matrix(0.7891 -0.6143 0.6143 0.7891 -185.8957 326.0572)" class="st2" cx="381.8" cy="433.7" rx="9.8" ry="12.9"/>
				
					<ellipse transform="matrix(0.9202 -0.3913 0.3913 0.9202 -129.986 173.9751)" class="st2" cx="361.9" cy="405.9" rx="7.4" ry="9.7"/>
			</g>
		</g>
		<g>
			<path class="st2" d="M686.5,501.4c-8.9,8-14.1,18.1-15.3,27.6c-0.3,2.8-3.1,4.7-5.9,4c-6.5-1.6-14.1-1.4-21.6,1
				c-10.9,3.5-19.1,10.7-22.8,18.8c-1.1,2.5-4.2,3.6-6.7,2.2c-4.9-2.8-11.1-4.3-17.7-4c-13.6,0.7-23,8.2-25.5,21.7
				c-0.6,3.2-3.2,5.5-6.4,5.5c0,0-0.1,0-0.1,0c-2.3,0-4.5-1.2-5.8-3.1c-23.9-38-52.2-90.3-39.7-147.9
				c13.4-61.6,103.3-61.4,103.2,31.6c0,3,3.2,4.8,5.7,3.1c52.8-34,92.2-10.6,98.5,22c0.6,3.3-2.1,6.3-5.4,5.7
				C710.1,487.8,697,491.9,686.5,501.4z"/>
			<g>
				
					<ellipse transform="matrix(0.7447 -0.6674 0.6674 0.7447 -170.0847 606.0146)" class="st2" cx="707" cy="525.3" rx="26.6" ry="20.2"/>
				
					<ellipse transform="matrix(0.9529 -0.3032 0.3032 0.9529 -138.7049 223.6941)" class="st2" cx="651.1" cy="558.6" rx="21" ry="15.9"/>
				
					<ellipse transform="matrix(0.9988 -4.856942e-02 4.856942e-02 0.9988 -27.1461 29.6933)" class="st2" cx="597.4" cy="573.4" rx="15.8" ry="12"/>
			</g>
		</g>
		<g>
			<path class="st2" d="M-12.8,262.1c5.4,2.6,11.1,3.1,15.8,1.9c1.4-0.4,2.8,0.6,3,2c0.5,3.3,2,6.8,4.6,9.9c3.7,4.4,8.6,6.9,13.1,7
				c1.4,0,2.5,1.3,2.3,2.7c-0.4,2.8,0.1,6,1.5,9c2.9,6.2,8.2,9.2,15,7.7c1.6-0.3,3.2,0.5,3.8,2c0,0,0,0,0,0c0.5,1.1,0.3,2.3-0.4,3.3
				C33,326,13.9,349.2-15.4,354.5c-31.3,5.6-48.5-36.5-5.1-54.2c1.4-0.6,1.6-2.4,0.4-3.3c-26-18.1-22.6-41-8.6-50.2
				c1.4-0.9,3.3-0.2,3.7,1.4C-23.7,253.6-19.3,258.9-12.8,262.1z"/>
			<g>
				
					<ellipse transform="matrix(0.4352 -0.9004 0.9004 0.4352 -226.3081 134.9804)" class="st2" cx="-5.6" cy="247.9" rx="10.2" ry="13.4"/>
				
					<ellipse transform="matrix(0.7662 -0.6426 0.6426 0.7662 -167.1116 75.8545)" class="st2" cx="20.7" cy="267.6" rx="8" ry="10.6"/>
				<ellipse transform="matrix(0.9054 -0.4245 0.4245 0.9054 -119.447 43.5113)" class="st2" cx="37.9" cy="289.8" rx="6" ry="8"/>
			</g>
		</g>
		<g>
			<path class="st2" d="M150.3,275.9c-6.7-2.4-13.4-2.3-18.7-0.2c-1.6,0.6-3.3-0.3-3.7-1.9c-1-3.9-3.2-7.8-6.6-11
				c-4.9-4.7-10.9-7-16.2-6.6c-1.7,0.1-3.1-1.2-3-2.9c0.1-3.4-0.9-7-2.9-10.4c-4.2-6.9-10.8-9.7-18.5-7.2c-1.8,0.6-3.8-0.1-4.7-1.8
				c0,0,0,0,0-0.1c-0.7-1.2-0.7-2.7,0-3.9c13.1-23.2,32.5-52.7,66.1-62.4c35.9-10.3,61.2,36.7,12.5,62.8c-1.6,0.8-1.6,3,0,3.9
				c32.7,18,31.5,45.2,16.2,57.6c-1.5,1.3-3.9,0.6-4.5-1.2C164,284.5,158.2,278.8,150.3,275.9z"/>
			<g>
				
					<ellipse transform="matrix(0.3392 -0.9407 0.9407 0.3392 -181.131 328.9469)" class="st2" cx="143.6" cy="293.4" rx="12" ry="15.8"/>
				
					<ellipse transform="matrix(0.6952 -0.7188 0.7188 0.6952 -162.9555 162.7515)" class="st2" cx="110.4" cy="273.5" rx="9.4" ry="12.4"/>
				
					<ellipse transform="matrix(0.8564 -0.5164 0.5164 0.8564 -116.3376 81.083)" class="st2" cx="87.6" cy="249.7" rx="7.1" ry="9.4"/>
			</g>
		</g>
		<g>
			<path class="st2" d="M87.5,431.6c-4.7,0.7-8.7,2.8-11.2,5.7c-0.7,0.9-2.1,0.9-2.8,0c-1.8-2-4.3-3.6-7.4-4.5
				c-4.4-1.3-8.7-0.7-11.7,1.2c-0.9,0.6-2.2,0.2-2.7-0.7c-1-2-2.7-3.9-5-5.2c-4.6-2.8-9.4-2.4-13.2,1.5c-0.9,0.9-2.3,1.1-3.4,0.4
				c0,0,0,0,0,0c-0.8-0.5-1.2-1.4-1.2-2.3c0.5-17.9,2.8-41.4,19.7-57.7c18.1-17.4,47.8,2.6,27.1,33.3c-0.7,1,0,2.3,1.2,2.3
				c25,0.5,32.9,17,27.7,29.1c-0.5,1.2-2.1,1.6-3.1,0.7C98.3,432.4,93.1,430.8,87.5,431.6z"/>
			<g>
				<ellipse transform="matrix(0.9902 -0.1396 0.1396 0.9902 -61.1388 16.7729)" class="st2" cx="89" cy="444.1" rx="10.6" ry="8"/>
				
					<ellipse transform="matrix(0.2789 -0.9603 0.9603 0.2789 -379.6589 379.8292)" class="st2" cx="63.1" cy="442.7" rx="6.3" ry="8.3"/>
				
					<ellipse transform="matrix(0.5159 -0.8566 0.8566 0.5159 -352.908 246.924)" class="st2" cx="42" cy="435.7" rx="4.8" ry="6.3"/>
			</g>
		</g>
	</g>
</g>
<g>
	<defs>
		<ellipse id="SVGID_00000152945199693276223690000010675348956255270830_" cx="1483.8" cy="478.7" rx="27.9" ry="17.2"/>
	</defs>
	<clipPath id="SVGID_00000027565125293444009330000001583737679129427887_">
		<use xlink:href="#SVGID_00000152945199693276223690000010675348956255270830_"  style="overflow:visible;"/>
	</clipPath>
	<g style="clip-path:url(#SVGID_00000027565125293444009330000001583737679129427887_);">
		<g>
			<path class="st2" d="M110.3,97.4c-5.9,2.5-10.4,6.7-12.7,11.4c-0.7,1.4-2.4,1.8-3.7,1c-3-2-6.9-3.2-11.2-3.3
				c-6.1-0.1-11.6,2.1-14.9,5.6c-1,1.1-2.8,1.1-3.8,0c-2-2.3-4.9-4.2-8.3-5.2c-7.1-2.1-13.2,0.1-16.8,6.6c-0.8,1.5-2.6,2.2-4.3,1.7
				c0,0,0,0,0,0c-1.2-0.4-2.1-1.4-2.4-2.6C26.6,89,21.4,57.3,37.9,30C55.6,1,101.5,16.9,85,64.3c-0.5,1.5,0.8,3,2.4,2.6
				c33-8.1,48.9,10.9,46.4,28.6c-0.3,1.8-2.2,2.8-3.8,2C124.7,94.7,117.3,94.5,110.3,97.4z"/>
			<g>
				
					<ellipse transform="matrix(0.9217 -0.388 0.388 0.9217 -34.8261 54.0908)" class="st2" cx="116.5" cy="113.3" rx="14.4" ry="10.9"/>
				
					<ellipse transform="matrix(2.428485e-02 -0.9997 0.9997 2.428485e-02 -40.2506 199.6175)" class="st2" cx="82.1" cy="120.4" rx="8.6" ry="11.3"/>
				<ellipse transform="matrix(0.2799 -0.96 0.96 0.2799 -76.2831 135.3867)" class="st2" cx="52.1" cy="118.5" rx="6.5" ry="8.5"/>
			</g>
		</g>
		<g>
			<path class="st2" d="M403.6,178.2c-5,9-6.4,18.7-4.7,26.8c0.5,2.4-1.2,4.7-3.6,4.9c-5.7,0.5-11.9,2.8-17.3,6.9
				c-7.9,5.9-12.6,14.1-13.3,21.7c-0.2,2.4-2.4,4.1-4.8,3.7c-4.8-0.9-10.2-0.4-15.5,1.7c-10.9,4.4-16.5,13.1-14.6,24.8
				c0.4,2.7-1.1,5.4-3.7,6.3c0,0-0.1,0-0.1,0c-1.9,0.7-4,0.3-5.6-0.9c-30.1-24.2-67.9-58.8-73.9-109.3c-6.4-53.9,66.9-79.1,92.9-3.3
				c0.8,2.4,4,3,5.6,0.9c33.5-42.6,72.1-34.5,86.4-9.8c1.4,2.5,0,5.7-2.8,6.2C419.1,160.5,409.6,167.5,403.6,178.2z"/>
			<g>
				
					<ellipse transform="matrix(0.4861 -0.8739 0.8739 0.4861 51.783 471.8899)" class="st2" cx="427.1" cy="191.9" rx="22.9" ry="17.4"/>
				
					<ellipse transform="matrix(0.8018 -0.5976 0.5976 0.8018 -62.7923 280.1354)" class="st2" cx="390.9" cy="234.7" rx="18" ry="13.7"/>
				
					<ellipse transform="matrix(0.9283 -0.3719 0.3719 0.9283 -72.2019 149.4604)" class="st2" cx="351.4" cy="261.9" rx="13.6" ry="10.3"/>
			</g>
		</g>
		<g>
			<path class="st2" d="M229.9,15.6c-8.6-1.2-16.7,0.6-22.6,4.5c-1.7,1.1-4.1,0.5-5-1.4c-2.2-4.4-5.9-8.5-10.7-11.6
				c-7-4.4-15-5.6-21.2-3.9c-2,0.6-4-0.7-4.4-2.7c-0.7-4.1-2.8-8.2-6.1-11.7c-6.8-7.3-15.4-9-24.1-4c-2,1.2-4.6,0.8-6.1-1
				c0,0,0,0,0-0.1c-1.1-1.3-1.5-3.1-1-4.7c9.9-31.2,25.8-71.6,63.8-91.8c40.6-21.6,82.9,28.7,31,72.4c-1.7,1.4-1.1,4.1,1,4.7
				c43.9,13.4,49.3,46.5,34.1,65.3c-1.5,1.9-4.5,1.8-5.8-0.3C248.6,22.4,240.2,17.1,229.9,15.6z"/>
			<g>
				
					<ellipse transform="matrix(0.1381 -0.9904 0.9904 0.1381 156.9826 257.1619)" class="st2" cx="226.2" cy="38.4" rx="14.7" ry="19.4"/>
				
					<ellipse transform="matrix(0.5322 -0.8466 0.8466 0.5322 65.4546 164.2186)" class="st2" cx="181.3" cy="22.9" rx="11.6" ry="15.3"/>
				
					<ellipse transform="matrix(0.7316 -0.6817 0.6817 0.7316 39.709 100.7076)" class="st2" cx="147.8" cy="-0.1" rx="8.7" ry="11.5"/>
			</g>
		</g>
		<g>
			<path class="st2" d="M263.5,336.8c-0.5,6.8,1.3,13.2,4.6,17.6c1,1.3,0.6,3.2-0.9,4c-3.4,1.9-6.4,5-8.6,9
				c-3.2,5.8-3.8,12.1-2.1,16.9c0.5,1.5-0.3,3.2-1.9,3.6c-3.2,0.8-6.3,2.6-9,5.3c-5.4,5.7-6.4,12.6-2,19.2c1,1.5,0.8,3.6-0.5,4.9
				c0,0,0,0,0,0c-1,0.9-2.4,1.3-3.7,1c-25.1-6.4-57.7-17-75.4-46c-18.9-31,18.8-66.7,55.7-27.8c1.2,1.2,3.2,0.7,3.7-1
				c8.5-35.2,34.3-41.1,49.9-29.9c1.6,1.1,1.6,3.5,0,4.6C268,321.7,264.1,328.6,263.5,336.8z"/>
			<g>
				
					<ellipse transform="matrix(7.963365e-02 -0.9968 0.9968 7.963365e-02 -78.3763 592.3499)" class="st2" cx="281.6" cy="338.6" rx="15.3" ry="11.6"/>
				
					<ellipse transform="matrix(0.4816 -0.8764 0.8764 0.4816 -187.7049 432.1857)" class="st2" cx="271.4" cy="374.7" rx="12.1" ry="9.2"/>
				
					<ellipse transform="matrix(0.6903 -0.7236 0.7236 0.6903 -212.1261 309.0393)" class="st2" cx="254.9" cy="402.3" rx="9.1" ry="6.9"/>
			</g>
		</g>
		<g>
			<path class="st2" d="M559.4,277.4c-7-1.1-13.7,0.3-18.5,3.4c-1.4,0.9-3.3,0.3-4.1-1.2c-1.7-3.6-4.7-7-8.6-9.6
				c-5.7-3.7-12.1-4.7-17.3-3.3c-1.6,0.4-3.3-0.6-3.5-2.2c-0.6-3.3-2.2-6.7-4.9-9.6c-5.5-6-12.5-7.5-19.6-3.5
				c-1.7,0.9-3.8,0.6-5-0.9c0,0,0,0,0,0c-0.9-1.1-1.2-2.5-0.7-3.8c8.4-25.4,21.7-58.2,52.9-74.3c33.3-17.2,67.4,24.2,24.6,59.4
				c-1.4,1.1-1,3.3,0.7,3.8c35.7,11.4,39.8,38.4,27.2,53.6c-1.3,1.5-3.7,1.4-4.7-0.3C574.6,283.2,567.8,278.7,559.4,277.4z"/>
			<g>
				
					<ellipse transform="matrix(0.1496 -0.9887 0.9887 0.1496 180.3604 801.6649)" class="st2" cx="556.2" cy="296" rx="12" ry="15.8"/>
				
					<ellipse transform="matrix(0.5421 -0.8403 0.8403 0.5421 0.2826 566.3181)" class="st2" cx="519.8" cy="282.9" rx="9.5" ry="12.5"/>
				
					<ellipse transform="matrix(0.7395 -0.6731 0.6731 0.7395 -49.2999 400.3225)" class="st2" cx="492.6" cy="263.9" rx="7.1" ry="9.4"/>
			</g>
		</g>
		<g>
			<path class="st2" d="M413.1-26.2c5.9,4.8,12.8,7.1,19,6.9c1.8-0.1,3.3,1.5,3.1,3.3c-0.4,4.3,0.5,9,2.8,13.6
				c3.3,6.5,8.6,11,14.2,12.5c1.7,0.5,2.7,2.3,2.1,4c-1.3,3.4-1.6,7.4-0.8,11.6c1.8,8.5,7.5,13.8,16.3,13.9c2.1,0,3.8,1.5,4.1,3.5
				c0,0,0,0,0,0.1c0.2,1.5-0.3,3-1.4,4c-21.6,18.9-51.9,42-89.6,39.8c-40.3-2.3-49.1-59.2,9.7-68.4c1.9-0.3,2.7-2.5,1.4-3.9
				c-26.8-30-15.9-57.3,4.1-64.5c2-0.7,4.2,0.7,4.2,2.9C402.2-39.8,406.1-31.9,413.1-26.2z"/>
			<g>
				
					<ellipse transform="matrix(0.6318 -0.7751 0.7751 0.6318 189.1666 315.0694)" class="st2" cx="426.2" cy="-41.6" rx="12.9" ry="17"/>
				
					<ellipse transform="matrix(0.8942 -0.4477 0.4477 0.8942 52.1868 201.731)" class="st2" cx="452.8" cy="-9.5" rx="10.2" ry="13.4"/>
				
					<ellipse transform="matrix(0.9791 -0.2033 0.2033 0.9791 5.1017 95.5544)" class="st2" cx="467.6" cy="22.9" rx="7.7" ry="10.1"/>
			</g>
		</g>
		<g>
			<path class="st2" d="M749.5,138c1.4,7.6,5.2,14,10.1,17.9c1.4,1.2,1.5,3.3,0.2,4.6c-3.1,3.1-5.6,7.3-6.9,12.3
				c-1.8,7.2-0.6,14.3,2.6,19.1c1,1.5,0.5,3.6-1.1,4.4c-3.2,1.8-6.2,4.7-8.3,8.4c-4.3,7.8-3.3,15.6,3.3,21.6
				c1.6,1.4,1.9,3.7,0.9,5.5c0,0,0,0,0,0.1c-0.8,1.3-2.2,2.1-3.7,2.1c-29.3,0.3-68-1.9-95.7-28.6c-29.6-28.5,1.2-78.4,52.8-46.5
				c1.7,1,3.7-0.2,3.7-2.1c-0.8-41,25.7-54.8,45.9-47.1c2,0.8,2.7,3.3,1.3,5C750.1,120.2,747.9,128.9,749.5,138z"/>
			<g>
				
					<ellipse transform="matrix(0.9841 -0.1776 0.1776 0.9841 -11.6981 138.8873)" class="st2" cx="769.9" cy="134.8" rx="13.2" ry="17.4"/>
				
					<ellipse transform="matrix(0.2417 -0.9703 0.9703 0.2417 411.3239 880.8004)" class="st2" cx="769.2" cy="177.2" rx="13.7" ry="10.4"/>
				
					<ellipse transform="matrix(0.4826 -0.8759 0.8759 0.4826 207.0035 774.624)" class="st2" cx="759.1" cy="212.1" rx="10.3" ry="7.8"/>
			</g>
		</g>
		<g>
			<path class="st2" d="M806.4,327.2c-2.8,8.5-2.5,17,0.2,23.6c0.8,2-0.3,4.2-2.3,4.8c-4.8,1.4-9.7,4.3-13.7,8.6
				c-5.8,6.3-8.5,14-7.9,20.7c0.2,2.1-1.4,3.9-3.5,3.9c-4.2,0-8.8,1.3-13,3.9c-8.6,5.5-12,13.8-8.6,23.5c0.8,2.3-0.1,4.8-2.2,6
				c0,0,0,0-0.1,0c-1.5,0.9-3.4,0.9-4.9,0.1c-29.6-15.9-67.3-39.5-80.5-81.6c-14.1-45,44.5-78.2,78.9-17.6c1.1,1.9,3.9,1.9,4.9-0.1
				c21.8-41.7,56.1-41,72.2-22.1c1.6,1.9,0.9,4.9-1.4,5.7C816.8,309.6,809.8,317.1,806.4,327.2z"/>
			<g>
				
					<ellipse transform="matrix(0.318 -0.9481 0.9481 0.318 247.4084 1014.2088)" class="st2" cx="828.7" cy="335.1" rx="19.9" ry="15.1"/>
				
					<ellipse transform="matrix(0.6789 -0.7342 0.7342 0.6789 -18.8247 711.8826)" class="st2" cx="804.6" cy="377.5" rx="15.7" ry="11.9"/>
				
					<ellipse transform="matrix(0.8446 -0.5354 0.5354 0.8446 -97.441 478.2752)" class="st2" cx="775.1" cy="407" rx="11.8" ry="9"/>
			</g>
		</g>
		<g>
			<path class="st2" d="M927.3,467.9c-3.5,7.2-4.2,14.8-2.5,21c0.5,1.8-0.7,3.7-2.6,4c-4.4,0.6-9.1,2.7-13.2,6.1
				c-5.9,4.9-9.2,11.5-9.4,17.4c-0.1,1.9-1.7,3.3-3.6,3.1c-3.8-0.5-8,0.1-12,2c-8.3,3.9-12.2,10.9-10.3,19.9
				c0.4,2.1-0.6,4.2-2.6,5.1c0,0,0,0-0.1,0c-1.4,0.6-3.1,0.4-4.4-0.5c-24.5-17.5-55.3-42.8-62.1-81.7c-7.3-41.6,48.5-64.3,72.1-6.6
				c0.8,1.8,3.2,2.1,4.4,0.5c24.2-34.5,54.6-29.9,66.7-11.3c1.2,1.9,0.3,4.4-1.9,4.9C938.6,453.5,931.5,459.3,927.3,467.9z"/>
			<g>
				
					<ellipse transform="matrix(0.437 -0.8995 0.8995 0.437 103.2155 1119.9332)" class="st2" cx="946.2" cy="477.5" rx="17.8" ry="13.5"/>
				
					<ellipse transform="matrix(0.7675 -0.6411 0.6411 0.7675 -114.562 708.8356)" class="st2" cx="919.9" cy="512.4" rx="14" ry="10.6"/>
				
					<ellipse transform="matrix(0.9063 -0.4227 0.4227 0.9063 -142.7692 426.5278)" class="st2" cx="890.3" cy="535.2" rx="10.6" ry="8"/>
			</g>
		</g>
		<g>
			<path class="st2" d="M908.1,239c-5.2-0.5-10.1,0.9-13.5,3.4c-1,0.7-2.4,0.4-3-0.7c-1.4-2.6-3.8-5-6.8-6.7
				c-4.4-2.5-9.2-3-12.9-1.7c-1.2,0.4-2.4-0.3-2.7-1.5c-0.6-2.4-1.9-4.9-4-6.9c-4.3-4.2-9.5-5-14.6-1.7c-1.2,0.8-2.7,0.6-3.7-0.4
				c0,0,0,0,0,0c-0.7-0.7-1-1.8-0.7-2.8c5-19.1,13.4-43.9,35.7-57.2c23.9-14.2,50.8,14.8,20.8,42.7c-1,0.9-0.6,2.5,0.7,2.8
				c26.8,6.8,31.1,26.5,22.5,38.3c-0.9,1.2-2.7,1.2-3.5,0C919.5,242.6,914.3,239.6,908.1,239z"/>
			<g>
				
					<ellipse transform="matrix(8.983301e-02 -0.996 0.996 8.983301e-02 573.2832 1132.9877)" class="st2" cx="906.5" cy="252.8" rx="8.9" ry="11.7"/>
				
					<ellipse transform="matrix(0.4905 -0.8714 0.8714 0.4905 234.5287 890.7426)" class="st2" cx="879" cy="244.8" rx="7" ry="9.2"/>
				
					<ellipse transform="matrix(0.6976 -0.7164 0.7164 0.6976 93.2745 684.9315)" class="st2" cx="858.1" cy="232" rx="5.3" ry="6.9"/>
			</g>
		</g>
		<g>
			<path class="st2" d="M592.4,64.5c-1.1-9.2-5.2-17.1-10.7-22.1c-1.6-1.5-1.6-4.1,0.1-5.5c3.9-3.4,7.2-8.3,9.1-14.2
				c2.7-8.5,1.8-17-1.7-23c-1.1-1.9-0.4-4.3,1.6-5.2c4-1.9,7.7-5.1,10.5-9.5c5.7-9,5.1-18.3-2.4-26c-1.8-1.8-2-4.5-0.6-6.6
				c0,0,0,0,0-0.1c1-1.5,2.8-2.4,4.6-2.3c34.9,1.8,80.9,7.3,112.1,41.1c33.2,36.2-7.2,93.4-66.5,51.6c-1.9-1.3-4.5-0.1-4.6,2.3
				c-2,48.9-34.7,63.5-58.2,52.9c-2.4-1.1-3-4.2-1.2-6C590.4,85.7,593.7,75.5,592.4,64.5z"/>
			<g>
				
					<ellipse transform="matrix(0.9932 -0.1166 0.1166 0.9932 -3.9268 66.7051)" class="st2" cx="567.9" cy="66.9" rx="15.7" ry="20.7"/>
				
					<ellipse transform="matrix(0.3011 -0.9536 0.9536 0.3011 384.1176 556.7332)" class="st2" cx="571.8" cy="16.3" rx="16.3" ry="12.4"/>
				
					<ellipse transform="matrix(0.5356 -0.8445 0.8445 0.5356 293.0925 483.8795)" class="st2" cx="586.5" cy="-24.5" rx="12.3" ry="9.3"/>
			</g>
		</g>
		<g>
			<path class="st2" d="M904.5,56.2c-7,2.7-12.3,7.5-15.1,12.8c-0.8,1.6-2.9,2.1-4.3,1c-3.5-2.4-7.9-4-12.9-4.2
				c-7.1-0.4-13.6,2-17.5,6c-1.2,1.2-3.3,1.2-4.4-0.2c-2.3-2.7-5.5-5-9.5-6.3c-8.1-2.6-15.3-0.3-19.8,7.1c-1,1.7-3.1,2.5-5,1.8
				c0,0,0,0-0.1,0c-1.4-0.5-2.4-1.7-2.7-3.1c-5.6-27.6-10.6-64.5,9.6-95.6c21.5-33.2,74.2-13.1,53.5,41.5c-0.7,1.7,0.9,3.5,2.7,3.1
				c38.6-8.2,56.4,14.3,52.9,34.8c-0.4,2.1-2.6,3.2-4.5,2.1C921.4,53.5,912.8,53,904.5,56.2z"/>
			<g>
				
					<ellipse transform="matrix(0.9328 -0.3604 0.3604 0.9328 34.269 333.4705)" class="st2" cx="911.2" cy="74.9" rx="16.7" ry="12.7"/>
				
					<ellipse transform="matrix(5.394837e-02 -0.9985 0.9985 5.394837e-02 742.2112 947.2902)" class="st2" cx="871" cy="81.9" rx="10" ry="13.1"/>
				
					<ellipse transform="matrix(0.3083 -0.9513 0.9513 0.3083 503.5288 849.9531)" class="st2" cx="836.2" cy="78.7" rx="7.5" ry="9.9"/>
			</g>
		</g>
		<g>
			<path class="st2" d="M1063.1,86.8c0.9,6.4,3.9,11.8,7.9,15.1c1.2,1,1.2,2.8,0.1,3.8c-2.7,2.4-4.8,5.9-6,10
				c-1.7,5.9-0.9,11.8,1.7,15.9c0.8,1.3,0.4,3-1,3.7c-2.7,1.4-5.2,3.7-7.1,6.8c-3.7,6.3-3.2,12.8,2.2,17.9c1.3,1.2,1.5,3.1,0.6,4.6
				c0,0,0,0,0,0c-0.7,1.1-1.9,1.7-3.1,1.7c-24.2-0.5-56.2-3.4-78.5-26.2c-23.8-24.4,3.1-64.8,45-37.1c1.3,0.9,3.1,0,3.1-1.7
				c0.4-33.9,22.7-44.7,39.2-37.8c1.7,0.7,2.2,2.8,1,4.2C1064.1,72.1,1062,79.2,1063.1,86.8z"/>
			<g>
				
					<ellipse transform="matrix(0.9893 -0.1461 0.1461 0.9893 -0.7833 158.6965)" class="st2" cx="1080" cy="84.7" rx="10.9" ry="14.4"/>
				
					<ellipse transform="matrix(0.2726 -0.9621 0.9621 0.2726 669.1576 1124.6654)" class="st2" cx="1078.4" cy="119.8" rx="11.3" ry="8.6"/>
				
					<ellipse transform="matrix(0.5103 -0.86 0.86 0.5103 395.8995 992.0702)" class="st2" cx="1069.1" cy="148.4" rx="8.5" ry="6.5"/>
			</g>
		</g>
		<g>
			<path class="st2" d="M1216.3,445c-5.7,2.6-9.8,6.9-11.9,11.5c-0.6,1.4-2.3,1.9-3.5,1.1c-3-1.8-6.9-2.8-11-2.8
				c-6,0.1-11.2,2.4-14.3,6c-1,1.1-2.7,1.2-3.7,0.1c-2-2.2-4.9-3.9-8.2-4.7c-6.9-1.7-12.8,0.6-16.1,7c-0.8,1.5-2.5,2.3-4.1,1.8
				c0,0,0,0,0,0c-1.2-0.3-2.1-1.3-2.4-2.5c-6.2-22.7-12.5-53.2,2.6-80.2c16.1-28.9,61.1-15.1,47,31.5c-0.5,1.5,0.9,2.9,2.4,2.4
				c31.7-9.1,47.9,8.7,46,26c-0.2,1.7-2,2.8-3.6,2C1230.3,441.7,1223.1,441.8,1216.3,445z"/>
			<g>
				
					<ellipse transform="matrix(0.9061 -0.423 0.423 0.9061 -79.8164 560.488)" class="st2" cx="1223" cy="460.1" rx="13.9" ry="10.6"/>
				
					<ellipse transform="matrix(0.9999 -1.401173e-02 1.401173e-02 0.9999 -6.4447 16.7189)" class="st2" cx="1189.9" cy="468.3" rx="11" ry="8.3"/>
				
					<ellipse transform="matrix(0.243 -0.97 0.97 0.243 425.1493 1479.9242)" class="st2" cx="1160.7" cy="467.6" rx="6.3" ry="8.3"/>
			</g>
		</g>
		<g>
			<path class="st2" d="M1057.3,386.2c-10.4-0.9-20.1,1.7-26.9,6.7c-2,1.5-4.9,0.8-6.1-1.4c-2.9-5.1-7.5-9.9-13.6-13.3
				c-8.7-4.9-18.3-5.9-25.7-3.4c-2.3,0.8-4.8-0.6-5.4-3c-1.1-4.8-3.8-9.7-8-13.7c-8.6-8.3-19-9.9-29.2-3.4c-2.4,1.5-5.5,1.2-7.4-0.8
				c0,0,0,0-0.1-0.1c-1.4-1.5-2-3.6-1.4-5.6c10.1-38.1,26.7-87.5,71.2-114c47.5-28.3,101.3,29.6,41.5,85.2c-1.9,1.8-1.1,4.9,1.4,5.6
				c53.5,13.5,62,52.9,44.8,76.4c-1.7,2.4-5.3,2.4-6.9-0.1C1080.2,393.3,1069.8,387.3,1057.3,386.2z"/>
			<g>
				
					<ellipse transform="matrix(8.970018e-02 -0.996 0.996 8.970018e-02 547.6415 1426.6494)" class="st2" cx="1054.3" cy="413.7" rx="17.7" ry="23.4"/>
				
					<ellipse transform="matrix(0.4904 -0.8715 0.8715 0.4904 162.7025 1073.7172)" class="st2" cx="999.4" cy="397.7" rx="13.9" ry="18.4"/>
				
					<ellipse transform="matrix(0.6975 -0.7165 0.7165 0.6975 23.0317 798.8459)" class="st2" cx="957.8" cy="372.1" rx="10.5" ry="13.8"/>
			</g>
		</g>
		<g>
			<path class="st2" d="M1150.7,177.9c8.6,1.3,16.7-0.5,22.6-4.3c1.7-1.1,4.1-0.4,5,1.4c2.1,4.4,5.8,8.6,10.6,11.7
				c7,4.5,14.9,5.8,21.1,4c2-0.5,4,0.7,4.3,2.7c0.7,4.1,2.7,8.2,6,11.8c6.7,7.3,15.3,9.1,24,4.2c2-1.2,4.6-0.7,6.1,1c0,0,0,0,0,0.1
				c1.1,1.3,1.5,3.1,0.9,4.7c-10.1,31.1-26.3,71.3-64.5,91.1c-40.7,21.2-82.5-29.3-30.3-72.6c1.7-1.4,1.2-4-0.9-4.7
				c-43.7-13.8-48.9-46.8-33.5-65.4c1.6-1.9,4.5-1.7,5.7,0.4C1132,170.9,1140.4,176.4,1150.7,177.9z"/>
			<g>
				
					<ellipse transform="matrix(0.1465 -0.9892 0.9892 0.1465 831.9214 1274.5188)" class="st2" cx="1154.5" cy="155.2" rx="14.7" ry="19.4"/>
				
					<ellipse transform="matrix(0.5394 -0.8421 0.8421 0.5394 408.3549 1088.5956)" class="st2" cx="1199.2" cy="171" rx="11.6" ry="15.3"/>
				
					<ellipse transform="matrix(0.7374 -0.6755 0.6755 0.7374 192.5196 883.6105)" class="st2" cx="1232.5" cy="194.2" rx="8.7" ry="11.5"/>
			</g>
		</g>
		<g>
			<path class="st2" d="M1430.5,29.7c7.5-6.3,12.2-14.5,13.4-22.3c0.4-2.3,2.7-3.8,4.9-3.1c5.3,1.5,11.6,1.6,17.9-0.2
				c9-2.5,16.1-8.3,19.3-14.9c1-2.1,3.6-2.8,5.5-1.6c4,2.5,9,3.9,14.5,3.8c11.2-0.2,19.2-6.1,21.6-17.2c0.6-2.6,2.8-4.4,5.5-4.4
				c0,0,0.1,0,0.1,0c1.9,0,3.7,1.1,4.7,2.7c18.7,32,40.5,75.9,28.6,123.1c-12.7,50.4-86.9,47.8-84.2-28.9c0.1-2.5-2.5-4-4.7-2.8
				c-44.5,26.6-76.4,6.1-80.6-20.9c-0.4-2.7,1.9-5.1,4.7-4.6C1410.6,40.2,1421.5,37.2,1430.5,29.7z"/>
			<g>
				
					<ellipse transform="matrix(0.7669 -0.6417 0.6417 0.7669 323.5899 909.6902)" class="st2" cx="1414.2" cy="9.4" rx="22" ry="16.6"/>
				
					<ellipse transform="matrix(0.9627 -0.2706 0.2706 0.9627 58.9929 394.8195)" class="st2" cx="1461.2" cy="-16.5" rx="17.3" ry="13.1"/>
				
					<ellipse transform="matrix(0.9999 -1.460074e-02 1.460074e-02 0.9999 0.5584 21.9848)" class="st2" cx="1505.9" cy="-27.3" rx="13" ry="9.9"/>
			</g>
		</g>
		<g>
			<path class="st2" d="M1339.3,386.3c-6.2-6.9-14.1-11.1-21.5-12c-2.2-0.3-3.7-2.4-3.1-4.6c1.3-5.1,1.1-11-0.8-16.9
				c-2.7-8.5-8.3-14.9-14.7-17.8c-2-0.9-2.8-3.3-1.7-5.2c2.2-3.8,3.4-8.6,3.1-13.8c-0.5-10.6-6.4-18-16.9-19.9
				c-2.5-0.4-4.3-2.5-4.3-5c0,0,0-0.1,0-0.1c0-1.8,0.9-3.5,2.5-4.5c29.7-18.6,70.5-40.7,115.5-30.9c48.1,10.5,47.9,80.7-24.7,80.6
				c-2.3,0-3.7,2.5-2.5,4.5c26.5,41.3,8.2,72-17.3,76.9c-2.6,0.5-4.9-1.7-4.5-4.3C1349.9,404.8,1346.7,394.6,1339.3,386.3z"/>
			<g>
				
					<ellipse transform="matrix(0.7454 -0.6666 0.6666 0.7454 68.0216 982.7989)" class="st2" cx="1320.6" cy="402.4" rx="15.8" ry="20.8"/>
				
					<ellipse transform="matrix(0.9533 -0.3022 0.3022 0.9533 -47.8557 407.984)" class="st2" cx="1294.7" cy="358.7" rx="12.4" ry="16.4"/>
				
					<ellipse transform="matrix(0.9989 -4.752376e-02 4.752376e-02 0.9989 -13.602 61.3364)" class="st2" cx="1283.1" cy="316.7" rx="9.3" ry="12.3"/>
			</g>
		</g>
		<g>
			<path class="st2" d="M1273.7,36.7c-4.9,7.7-6.6,16.2-5.5,23.4c0.3,2.1-1.3,4.1-3.5,4.2c-5.1,0.2-10.6,1.9-15.7,5.2
				c-7.3,4.8-11.8,11.8-12.8,18.5c-0.3,2.1-2.4,3.5-4.4,3c-4.2-1-9-0.9-13.8,0.7c-9.8,3.3-15.2,10.8-14.2,21.2
				c0.2,2.4-1.2,4.7-3.6,5.4c0,0,0,0-0.1,0c-1.7,0.5-3.6,0.1-4.9-1.1c-25.4-22.9-57-55.5-59.8-100.4c-3-48,63.1-66.5,82.3,1.8
				c0.6,2.2,3.4,2.8,4.9,1.1c31.7-36,65.5-26.9,76.9-4.3c1.1,2.3-0.3,5-2.8,5.3C1288.3,21.8,1279.5,27.5,1273.7,36.7z"/>
			<g>
				
					<ellipse transform="matrix(0.5352 -0.8447 0.8447 0.5352 559.109 1116.1094)" class="st2" cx="1293.8" cy="50" rx="20.3" ry="15.4"/>
				
					<ellipse transform="matrix(0.8346 -0.5508 0.5508 0.8346 160.9147 708.011)" class="st2" cx="1259.6" cy="86" rx="16" ry="12.1"/>
				<ellipse transform="matrix(0.948 -0.3182 0.3182 0.948 29.2142 394.9118)" class="st2" cx="1223.3" cy="108" rx="12" ry="9.1"/>
			</g>
		</g>
		<g>
			<path class="st2" d="M1379.5,170.4c-6,1-11,4-14.1,7.8c-0.9,1.1-2.6,1.2-3.6,0.1c-2.4-2.5-5.7-4.4-9.6-5.4
				c-5.6-1.5-11.2-0.6-15,1.9c-1.2,0.8-2.8,0.4-3.5-0.9c-1.4-2.5-3.6-4.9-6.5-6.5c-6.1-3.4-12.2-2.7-16.9,2.5
				c-1.1,1.2-2.9,1.5-4.3,0.6c0,0,0,0,0,0c-1-0.6-1.6-1.7-1.6-2.9c0-22.9,1.9-53.2,23-74.7c22.5-23,61.3,1.5,36,41.7
				c-0.8,1.3,0.1,2.9,1.6,2.9c32.1-0.4,42.7,20.5,36.6,36.2c-0.6,1.6-2.6,2.1-3.9,1C1393.4,170.9,1386.6,169.2,1379.5,170.4z"/>
			<g>
				
					<ellipse transform="matrix(0.9855 -0.1694 0.1694 0.9855 -11.5905 236.8209)" class="st2" cx="1381.9" cy="186.3" rx="13.6" ry="10.3"/>
				
					<ellipse transform="matrix(0.2498 -0.9683 0.9683 0.2498 832.1332 1445.1049)" class="st2" cx="1348.7" cy="185.5" rx="8.1" ry="10.7"/>
				
					<ellipse transform="matrix(0.4898 -0.8718 0.8718 0.4898 519.5081 1242.5387)" class="st2" cx="1321.4" cy="177.4" rx="6.1" ry="8.1"/>
			</g>
		</g>
		<g>
			<path class="st2" d="M1464.7,433.5c2.5,5.9,6.7,10.3,11.3,12.5c1.4,0.7,1.8,2.4,1,3.7c-1.9,3-3.2,6.9-3.3,11.1
				c-0.1,6.1,2,11.5,5.5,14.8c1.1,1,1.1,2.8,0,3.7c-2.3,2-4.1,4.8-5.1,8.2c-2,7,0.1,13.1,6.5,16.6c1.5,0.8,2.2,2.6,1.7,4.2
				c0,0,0,0,0,0c-0.4,1.2-1.4,2.1-2.6,2.4c-23.3,5.5-54.7,10.6-81.6-5.7c-28.8-17.5-13-62.9,33.9-46.6c1.5,0.5,3-0.8,2.6-2.4
				c-8-32.6,10.7-48.4,28.3-45.9c1.8,0.3,2.8,2.2,1.9,3.7C1462,419.2,1461.8,426.5,1464.7,433.5z"/>
			<g>
				
					<ellipse transform="matrix(0.9217 -0.388 0.388 0.9217 -49.8236 607.8052)" class="st2" cx="1480.4" cy="427.3" rx="10.8" ry="14.2"/>
				
					<ellipse transform="matrix(2.428486e-02 -0.9997 0.9997 2.428486e-02 990.1243 1937.1292)" class="st2" cx="1487.4" cy="461.3" rx="11.2" ry="8.5"/>
				
					<ellipse transform="matrix(0.2799 -0.96 0.96 0.2799 598.3219 1779.7596)" class="st2" cx="1485.6" cy="491" rx="8.4" ry="6.4"/>
			</g>
		</g>
		<g>
			<path class="st2" d="M1633.1,371.7c-5.5,7.1-8,15.3-7.5,22.5c0.1,2.1-1.7,3.9-3.8,3.8c-5-0.3-10.6,0.9-15.9,3.7
				c-7.6,4-12.7,10.5-14.3,17c-0.5,2-2.6,3.2-4.6,2.5c-4-1.4-8.8-1.7-13.6-0.5c-10,2.4-15.9,9.2-15.9,19.6c0,2.4-1.6,4.5-4,5
				c0,0,0,0-0.1,0c-1.7,0.3-3.5-0.2-4.7-1.5c-22.9-24.8-51-59.6-49.7-104c1.4-47.4,68-59.7,80.7,9.2c0.4,2.2,3.1,3.1,4.7,1.5
				c34.4-32.5,66.8-20.5,75.9,2.7c0.9,2.3-0.7,4.9-3.2,5C1648.7,358.4,1639.6,363.2,1633.1,371.7z"/>
			<g>
				
					<ellipse transform="matrix(0.6101 -0.7923 0.7923 0.6101 337.6787 1459.3284)" class="st2" cx="1651.6" cy="386.6" rx="20" ry="15.2"/>
				
					<ellipse transform="matrix(0.8814 -0.4723 0.4723 0.8814 -6.3799 812.3466)" class="st2" cx="1614.8" cy="418.9" rx="15.8" ry="12"/>
				
					<ellipse transform="matrix(0.9731 -0.2304 0.2304 0.9731 -58.3117 375.1061)" class="st2" cx="1577.1" cy="437.3" rx="11.9" ry="9"/>
			</g>
		</g>
		<g>
			<path class="st2" d="M1561.8,197.7c-4,6-5.6,12.7-4.9,18.4c0.2,1.7-1.1,3.2-2.8,3.2c-4,0-8.4,1.3-12.5,3.8
				c-5.8,3.6-9.6,9.1-10.6,14.4c-0.3,1.7-1.9,2.7-3.6,2.3c-3.3-0.9-7.1-0.9-10.9,0.3c-7.9,2.4-12.3,8.2-11.7,16.4
				c0.1,1.9-1.1,3.7-3,4.2c0,0,0,0-0.1,0c-1.4,0.4-2.8,0-3.8-1c-19.6-18.7-43.8-45.1-45-80.7c-1.3-38,51.4-51.2,65,3.3
				c0.4,1.7,2.6,2.3,3.8,1c25.9-27.7,52.4-19.8,60.9-1.6c0.9,1.8-0.3,4-2.3,4.2C1573.7,186.3,1566.6,190.6,1561.8,197.7z"/>
			<g>
				
					<ellipse transform="matrix(0.5591 -0.8291 0.8291 0.5591 522.3932 1399.777)" class="st2" cx="1577.4" cy="208.7" rx="16.1" ry="12.2"/>
				
					<ellipse transform="matrix(0.85 -0.5267 0.5267 0.85 107.8617 851.6449)" class="st2" cx="1549.6" cy="236.4" rx="12.6" ry="9.6"/>
				
					<ellipse transform="matrix(0.9567 -0.291 0.291 0.9567 -7.8195 453.4189)" class="st2" cx="1520.3" cy="253" rx="9.5" ry="7.2"/>
			</g>
		</g>
		<g>
			<path class="st2" d="M422.4,441.9c-6.5-3.4-13.4-4.3-19.2-3c-1.7,0.4-3.4-0.8-3.6-2.5c-0.5-4.1-2.2-8.4-5.2-12.3
				c-4.3-5.5-10.2-8.8-15.7-9.1c-1.7-0.1-3-1.7-2.7-3.4c0.6-3.4,0.1-7.3-1.4-11c-3.3-7.7-9.6-11.5-17.9-10.1
				c-1.9,0.3-3.9-0.7-4.6-2.5c0,0,0,0,0-0.1c-0.5-1.3-0.3-2.9,0.6-4c16.8-21.9,41-49.3,76.9-54.4c38.4-5.4,57.4,46.5,3.7,66.3
				c-1.7,0.6-2,2.9-0.6,4c30.9,23.2,25.7,50.9,8.3,61.5c-1.8,1.1-4.1,0.1-4.5-1.9C435.2,452.7,430.1,446,422.4,441.9z"/>
			<g>
				
					<ellipse transform="matrix(0.4676 -0.8839 0.8839 0.4676 -185.7914 609.3289)" class="st2" cx="412.9" cy="458.9" rx="12.4" ry="16.4"/>
				
					<ellipse transform="matrix(0.7891 -0.6143 0.6143 0.7891 -185.8957 326.0572)" class="st2" cx="381.8" cy="433.7" rx="9.8" ry="12.9"/>
				
					<ellipse transform="matrix(0.9202 -0.3913 0.3913 0.9202 -129.986 173.9751)" class="st2" cx="361.9" cy="405.9" rx="7.4" ry="9.7"/>
			</g>
		</g>
		<g>
			<path class="st2" d="M686.5,501.4c-8.9,8-14.1,18.1-15.3,27.6c-0.3,2.8-3.1,4.7-5.9,4c-6.5-1.6-14.1-1.4-21.6,1
				c-10.9,3.5-19.1,10.7-22.8,18.8c-1.1,2.5-4.2,3.6-6.7,2.2c-4.9-2.8-11.1-4.3-17.7-4c-13.6,0.7-23,8.2-25.5,21.7
				c-0.6,3.2-3.2,5.5-6.4,5.5c0,0-0.1,0-0.1,0c-2.3,0-4.5-1.2-5.8-3.1c-23.9-38-52.2-90.3-39.7-147.9
				c13.4-61.6,103.3-61.4,103.2,31.6c0,3,3.2,4.8,5.7,3.1c52.8-34,92.2-10.6,98.5,22c0.6,3.3-2.1,6.3-5.4,5.7
				C710.1,487.8,697,491.9,686.5,501.4z"/>
			<g>
				
					<ellipse transform="matrix(0.7447 -0.6674 0.6674 0.7447 -170.0847 606.0146)" class="st2" cx="707" cy="525.3" rx="26.6" ry="20.2"/>
				
					<ellipse transform="matrix(0.9529 -0.3032 0.3032 0.9529 -138.7049 223.6941)" class="st2" cx="651.1" cy="558.6" rx="21" ry="15.9"/>
				
					<ellipse transform="matrix(0.9988 -4.856942e-02 4.856942e-02 0.9988 -27.1461 29.6933)" class="st2" cx="597.4" cy="573.4" rx="15.8" ry="12"/>
			</g>
		</g>
		<g>
			<path class="st2" d="M-12.8,262.1c5.4,2.6,11.1,3.1,15.8,1.9c1.4-0.4,2.8,0.6,3,2c0.5,3.3,2,6.8,4.6,9.9c3.7,4.4,8.6,6.9,13.1,7
				c1.4,0,2.5,1.3,2.3,2.7c-0.4,2.8,0.1,6,1.5,9c2.9,6.2,8.2,9.2,15,7.7c1.6-0.3,3.2,0.5,3.8,2c0,0,0,0,0,0c0.5,1.1,0.3,2.3-0.4,3.3
				C33,326,13.9,349.2-15.4,354.5c-31.3,5.6-48.5-36.5-5.1-54.2c1.4-0.6,1.6-2.4,0.4-3.3c-26-18.1-22.6-41-8.6-50.2
				c1.4-0.9,3.3-0.2,3.7,1.4C-23.7,253.6-19.3,258.9-12.8,262.1z"/>
			<g>
				
					<ellipse transform="matrix(0.4352 -0.9004 0.9004 0.4352 -226.3081 134.9804)" class="st2" cx="-5.6" cy="247.9" rx="10.2" ry="13.4"/>
				
					<ellipse transform="matrix(0.7662 -0.6426 0.6426 0.7662 -167.1116 75.8545)" class="st2" cx="20.7" cy="267.6" rx="8" ry="10.6"/>
				<ellipse transform="matrix(0.9054 -0.4245 0.4245 0.9054 -119.447 43.5113)" class="st2" cx="37.9" cy="289.8" rx="6" ry="8"/>
			</g>
		</g>
		<g>
			<path class="st2" d="M150.3,275.9c-6.7-2.4-13.4-2.3-18.7-0.2c-1.6,0.6-3.3-0.3-3.7-1.9c-1-3.9-3.2-7.8-6.6-11
				c-4.9-4.7-10.9-7-16.2-6.6c-1.7,0.1-3.1-1.2-3-2.9c0.1-3.4-0.9-7-2.9-10.4c-4.2-6.9-10.8-9.7-18.5-7.2c-1.8,0.6-3.8-0.1-4.7-1.8
				c0,0,0,0,0-0.1c-0.7-1.2-0.7-2.7,0-3.9c13.1-23.2,32.5-52.7,66.1-62.4c35.9-10.3,61.2,36.7,12.5,62.8c-1.6,0.8-1.6,3,0,3.9
				c32.7,18,31.5,45.2,16.2,57.6c-1.5,1.3-3.9,0.6-4.5-1.2C164,284.5,158.2,278.8,150.3,275.9z"/>
			<g>
				
					<ellipse transform="matrix(0.3392 -0.9407 0.9407 0.3392 -181.131 328.9469)" class="st2" cx="143.6" cy="293.4" rx="12" ry="15.8"/>
				
					<ellipse transform="matrix(0.6952 -0.7188 0.7188 0.6952 -162.9555 162.7515)" class="st2" cx="110.4" cy="273.5" rx="9.4" ry="12.4"/>
				
					<ellipse transform="matrix(0.8564 -0.5164 0.5164 0.8564 -116.3376 81.083)" class="st2" cx="87.6" cy="249.7" rx="7.1" ry="9.4"/>
			</g>
		</g>
		<g>
			<path class="st2" d="M87.5,431.6c-4.7,0.7-8.7,2.8-11.2,5.7c-0.7,0.9-2.1,0.9-2.8,0c-1.8-2-4.3-3.6-7.4-4.5
				c-4.4-1.3-8.7-0.7-11.7,1.2c-0.9,0.6-2.2,0.2-2.7-0.7c-1-2-2.7-3.9-5-5.2c-4.6-2.8-9.4-2.4-13.2,1.5c-0.9,0.9-2.3,1.1-3.4,0.4
				c0,0,0,0,0,0c-0.8-0.5-1.2-1.4-1.2-2.3c0.5-17.9,2.8-41.4,19.7-57.7c18.1-17.4,47.8,2.6,27.1,33.3c-0.7,1,0,2.3,1.2,2.3
				c25,0.5,32.9,17,27.7,29.1c-0.5,1.2-2.1,1.6-3.1,0.7C98.3,432.4,93.1,430.8,87.5,431.6z"/>
			<g>
				<ellipse transform="matrix(0.9902 -0.1396 0.1396 0.9902 -61.1388 16.7729)" class="st2" cx="89" cy="444.1" rx="10.6" ry="8"/>
				
					<ellipse transform="matrix(0.2789 -0.9603 0.9603 0.2789 -379.6589 379.8292)" class="st2" cx="63.1" cy="442.7" rx="6.3" ry="8.3"/>
				
					<ellipse transform="matrix(0.5159 -0.8566 0.8566 0.5159 -352.908 246.924)" class="st2" cx="42" cy="435.7" rx="4.8" ry="6.3"/>
			</g>
		</g>
	</g>
</g>
<g>
	<defs>
		<ellipse id="SVGID_00000054985776269677848540000006788936666291701162_" cx="1399.5" cy="479.2" rx="33.9" ry="20.8"/>
	</defs>
	<clipPath id="SVGID_00000103959258111029627620000011214678341164922546_">
		<use xlink:href="#SVGID_00000054985776269677848540000006788936666291701162_"  style="overflow:visible;"/>
	</clipPath>
	<g style="clip-path:url(#SVGID_00000103959258111029627620000011214678341164922546_);">
		<g>
			<path class="st2" d="M110.3,97.4c-5.9,2.5-10.4,6.7-12.7,11.4c-0.7,1.4-2.4,1.8-3.7,1c-3-2-6.9-3.2-11.2-3.3
				c-6.1-0.1-11.6,2.1-14.9,5.6c-1,1.1-2.8,1.1-3.8,0c-2-2.3-4.9-4.2-8.3-5.2c-7.1-2.1-13.2,0.1-16.8,6.6c-0.8,1.5-2.6,2.2-4.3,1.7
				c0,0,0,0,0,0c-1.2-0.4-2.1-1.4-2.4-2.6C26.6,89,21.4,57.3,37.9,30C55.6,1,101.5,16.9,85,64.3c-0.5,1.5,0.8,3,2.4,2.6
				c33-8.1,48.9,10.9,46.4,28.6c-0.3,1.8-2.2,2.8-3.8,2C124.7,94.7,117.3,94.5,110.3,97.4z"/>
			<g>
				
					<ellipse transform="matrix(0.9217 -0.388 0.388 0.9217 -34.8261 54.0908)" class="st2" cx="116.5" cy="113.3" rx="14.4" ry="10.9"/>
				
					<ellipse transform="matrix(2.428485e-02 -0.9997 0.9997 2.428485e-02 -40.2506 199.6175)" class="st2" cx="82.1" cy="120.4" rx="8.6" ry="11.3"/>
				<ellipse transform="matrix(0.2799 -0.96 0.96 0.2799 -76.2831 135.3867)" class="st2" cx="52.1" cy="118.5" rx="6.5" ry="8.5"/>
			</g>
		</g>
		<g>
			<path class="st2" d="M403.6,178.2c-5,9-6.4,18.7-4.7,26.8c0.5,2.4-1.2,4.7-3.6,4.9c-5.7,0.5-11.9,2.8-17.3,6.9
				c-7.9,5.9-12.6,14.1-13.3,21.7c-0.2,2.4-2.4,4.1-4.8,3.7c-4.8-0.9-10.2-0.4-15.5,1.7c-10.9,4.4-16.5,13.1-14.6,24.8
				c0.4,2.7-1.1,5.4-3.7,6.3c0,0-0.1,0-0.1,0c-1.9,0.7-4,0.3-5.6-0.9c-30.1-24.2-67.9-58.8-73.9-109.3c-6.4-53.9,66.9-79.1,92.9-3.3
				c0.8,2.4,4,3,5.6,0.9c33.5-42.6,72.1-34.5,86.4-9.8c1.4,2.5,0,5.7-2.8,6.2C419.1,160.5,409.6,167.5,403.6,178.2z"/>
			<g>
				
					<ellipse transform="matrix(0.4861 -0.8739 0.8739 0.4861 51.783 471.8899)" class="st2" cx="427.1" cy="191.9" rx="22.9" ry="17.4"/>
				
					<ellipse transform="matrix(0.8018 -0.5976 0.5976 0.8018 -62.7923 280.1354)" class="st2" cx="390.9" cy="234.7" rx="18" ry="13.7"/>
				
					<ellipse transform="matrix(0.9283 -0.3719 0.3719 0.9283 -72.2019 149.4604)" class="st2" cx="351.4" cy="261.9" rx="13.6" ry="10.3"/>
			</g>
		</g>
		<g>
			<path class="st2" d="M229.9,15.6c-8.6-1.2-16.7,0.6-22.6,4.5c-1.7,1.1-4.1,0.5-5-1.4c-2.2-4.4-5.9-8.5-10.7-11.6
				c-7-4.4-15-5.6-21.2-3.9c-2,0.6-4-0.7-4.4-2.7c-0.7-4.1-2.8-8.2-6.1-11.7c-6.8-7.3-15.4-9-24.1-4c-2,1.2-4.6,0.8-6.1-1
				c0,0,0,0,0-0.1c-1.1-1.3-1.5-3.1-1-4.7c9.9-31.2,25.8-71.6,63.8-91.8c40.6-21.6,82.9,28.7,31,72.4c-1.7,1.4-1.1,4.1,1,4.7
				c43.9,13.4,49.3,46.5,34.1,65.3c-1.5,1.9-4.5,1.8-5.8-0.3C248.6,22.4,240.2,17.1,229.9,15.6z"/>
			<g>
				
					<ellipse transform="matrix(0.1381 -0.9904 0.9904 0.1381 156.9826 257.1619)" class="st2" cx="226.2" cy="38.4" rx="14.7" ry="19.4"/>
				
					<ellipse transform="matrix(0.5322 -0.8466 0.8466 0.5322 65.4546 164.2186)" class="st2" cx="181.3" cy="22.9" rx="11.6" ry="15.3"/>
				
					<ellipse transform="matrix(0.7316 -0.6817 0.6817 0.7316 39.709 100.7076)" class="st2" cx="147.8" cy="-0.1" rx="8.7" ry="11.5"/>
			</g>
		</g>
		<g>
			<path class="st2" d="M263.5,336.8c-0.5,6.8,1.3,13.2,4.6,17.6c1,1.3,0.6,3.2-0.9,4c-3.4,1.9-6.4,5-8.6,9
				c-3.2,5.8-3.8,12.1-2.1,16.9c0.5,1.5-0.3,3.2-1.9,3.6c-3.2,0.8-6.3,2.6-9,5.3c-5.4,5.7-6.4,12.6-2,19.2c1,1.5,0.8,3.6-0.5,4.9
				c0,0,0,0,0,0c-1,0.9-2.4,1.3-3.7,1c-25.1-6.4-57.7-17-75.4-46c-18.9-31,18.8-66.7,55.7-27.8c1.2,1.2,3.2,0.7,3.7-1
				c8.5-35.2,34.3-41.1,49.9-29.9c1.6,1.1,1.6,3.5,0,4.6C268,321.7,264.1,328.6,263.5,336.8z"/>
			<g>
				
					<ellipse transform="matrix(7.963365e-02 -0.9968 0.9968 7.963365e-02 -78.3763 592.3499)" class="st2" cx="281.6" cy="338.6" rx="15.3" ry="11.6"/>
				
					<ellipse transform="matrix(0.4816 -0.8764 0.8764 0.4816 -187.7049 432.1857)" class="st2" cx="271.4" cy="374.7" rx="12.1" ry="9.2"/>
				
					<ellipse transform="matrix(0.6903 -0.7236 0.7236 0.6903 -212.1261 309.0393)" class="st2" cx="254.9" cy="402.3" rx="9.1" ry="6.9"/>
			</g>
		</g>
		<g>
			<path class="st2" d="M559.4,277.4c-7-1.1-13.7,0.3-18.5,3.4c-1.4,0.9-3.3,0.3-4.1-1.2c-1.7-3.6-4.7-7-8.6-9.6
				c-5.7-3.7-12.1-4.7-17.3-3.3c-1.6,0.4-3.3-0.6-3.5-2.2c-0.6-3.3-2.2-6.7-4.9-9.6c-5.5-6-12.5-7.5-19.6-3.5
				c-1.7,0.9-3.8,0.6-5-0.9c0,0,0,0,0,0c-0.9-1.1-1.2-2.5-0.7-3.8c8.4-25.4,21.7-58.2,52.9-74.3c33.3-17.2,67.4,24.2,24.6,59.4
				c-1.4,1.1-1,3.3,0.7,3.8c35.7,11.4,39.8,38.4,27.2,53.6c-1.3,1.5-3.7,1.4-4.7-0.3C574.6,283.2,567.8,278.7,559.4,277.4z"/>
			<g>
				
					<ellipse transform="matrix(0.1496 -0.9887 0.9887 0.1496 180.3604 801.6649)" class="st2" cx="556.2" cy="296" rx="12" ry="15.8"/>
				
					<ellipse transform="matrix(0.5421 -0.8403 0.8403 0.5421 0.2826 566.3181)" class="st2" cx="519.8" cy="282.9" rx="9.5" ry="12.5"/>
				
					<ellipse transform="matrix(0.7395 -0.6731 0.6731 0.7395 -49.2999 400.3225)" class="st2" cx="492.6" cy="263.9" rx="7.1" ry="9.4"/>
			</g>
		</g>
		<g>
			<path class="st2" d="M413.1-26.2c5.9,4.8,12.8,7.1,19,6.9c1.8-0.1,3.3,1.5,3.1,3.3c-0.4,4.3,0.5,9,2.8,13.6
				c3.3,6.5,8.6,11,14.2,12.5c1.7,0.5,2.7,2.3,2.1,4c-1.3,3.4-1.6,7.4-0.8,11.6c1.8,8.5,7.5,13.8,16.3,13.9c2.1,0,3.8,1.5,4.1,3.5
				c0,0,0,0,0,0.1c0.2,1.5-0.3,3-1.4,4c-21.6,18.9-51.9,42-89.6,39.8c-40.3-2.3-49.1-59.2,9.7-68.4c1.9-0.3,2.7-2.5,1.4-3.9
				c-26.8-30-15.9-57.3,4.1-64.5c2-0.7,4.2,0.7,4.2,2.9C402.2-39.8,406.1-31.9,413.1-26.2z"/>
			<g>
				
					<ellipse transform="matrix(0.6318 -0.7751 0.7751 0.6318 189.1666 315.0694)" class="st2" cx="426.2" cy="-41.6" rx="12.9" ry="17"/>
				
					<ellipse transform="matrix(0.8942 -0.4477 0.4477 0.8942 52.1868 201.731)" class="st2" cx="452.8" cy="-9.5" rx="10.2" ry="13.4"/>
				
					<ellipse transform="matrix(0.9791 -0.2033 0.2033 0.9791 5.1017 95.5544)" class="st2" cx="467.6" cy="22.9" rx="7.7" ry="10.1"/>
			</g>
		</g>
		<g>
			<path class="st2" d="M749.5,138c1.4,7.6,5.2,14,10.1,17.9c1.4,1.2,1.5,3.3,0.2,4.6c-3.1,3.1-5.6,7.3-6.9,12.3
				c-1.8,7.2-0.6,14.3,2.6,19.1c1,1.5,0.5,3.6-1.1,4.4c-3.2,1.8-6.2,4.7-8.3,8.4c-4.3,7.8-3.3,15.6,3.3,21.6
				c1.6,1.4,1.9,3.7,0.9,5.5c0,0,0,0,0,0.1c-0.8,1.3-2.2,2.1-3.7,2.1c-29.3,0.3-68-1.9-95.7-28.6c-29.6-28.5,1.2-78.4,52.8-46.5
				c1.7,1,3.7-0.2,3.7-2.1c-0.8-41,25.7-54.8,45.9-47.1c2,0.8,2.7,3.3,1.3,5C750.1,120.2,747.9,128.9,749.5,138z"/>
			<g>
				
					<ellipse transform="matrix(0.9841 -0.1776 0.1776 0.9841 -11.6981 138.8873)" class="st2" cx="769.9" cy="134.8" rx="13.2" ry="17.4"/>
				
					<ellipse transform="matrix(0.2417 -0.9703 0.9703 0.2417 411.3239 880.8004)" class="st2" cx="769.2" cy="177.2" rx="13.7" ry="10.4"/>
				
					<ellipse transform="matrix(0.4826 -0.8759 0.8759 0.4826 207.0035 774.624)" class="st2" cx="759.1" cy="212.1" rx="10.3" ry="7.8"/>
			</g>
		</g>
		<g>
			<path class="st2" d="M806.4,327.2c-2.8,8.5-2.5,17,0.2,23.6c0.8,2-0.3,4.2-2.3,4.8c-4.8,1.4-9.7,4.3-13.7,8.6
				c-5.8,6.3-8.5,14-7.9,20.7c0.2,2.1-1.4,3.9-3.5,3.9c-4.2,0-8.8,1.3-13,3.9c-8.6,5.5-12,13.8-8.6,23.5c0.8,2.3-0.1,4.8-2.2,6
				c0,0,0,0-0.1,0c-1.5,0.9-3.4,0.9-4.9,0.1c-29.6-15.9-67.3-39.5-80.5-81.6c-14.1-45,44.5-78.2,78.9-17.6c1.1,1.9,3.9,1.9,4.9-0.1
				c21.8-41.7,56.1-41,72.2-22.1c1.6,1.9,0.9,4.9-1.4,5.7C816.8,309.6,809.8,317.1,806.4,327.2z"/>
			<g>
				
					<ellipse transform="matrix(0.318 -0.9481 0.9481 0.318 247.4084 1014.2088)" class="st2" cx="828.7" cy="335.1" rx="19.9" ry="15.1"/>
				
					<ellipse transform="matrix(0.6789 -0.7342 0.7342 0.6789 -18.8247 711.8826)" class="st2" cx="804.6" cy="377.5" rx="15.7" ry="11.9"/>
				
					<ellipse transform="matrix(0.8446 -0.5354 0.5354 0.8446 -97.441 478.2752)" class="st2" cx="775.1" cy="407" rx="11.8" ry="9"/>
			</g>
		</g>
		<g>
			<path class="st2" d="M927.3,467.9c-3.5,7.2-4.2,14.8-2.5,21c0.5,1.8-0.7,3.7-2.6,4c-4.4,0.6-9.1,2.7-13.2,6.1
				c-5.9,4.9-9.2,11.5-9.4,17.4c-0.1,1.9-1.7,3.3-3.6,3.1c-3.8-0.5-8,0.1-12,2c-8.3,3.9-12.2,10.9-10.3,19.9
				c0.4,2.1-0.6,4.2-2.6,5.1c0,0,0,0-0.1,0c-1.4,0.6-3.1,0.4-4.4-0.5c-24.5-17.5-55.3-42.8-62.1-81.7c-7.3-41.6,48.5-64.3,72.1-6.6
				c0.8,1.8,3.2,2.1,4.4,0.5c24.2-34.5,54.6-29.9,66.7-11.3c1.2,1.9,0.3,4.4-1.9,4.9C938.6,453.5,931.5,459.3,927.3,467.9z"/>
			<g>
				
					<ellipse transform="matrix(0.437 -0.8995 0.8995 0.437 103.2155 1119.9332)" class="st2" cx="946.2" cy="477.5" rx="17.8" ry="13.5"/>
				
					<ellipse transform="matrix(0.7675 -0.6411 0.6411 0.7675 -114.562 708.8356)" class="st2" cx="919.9" cy="512.4" rx="14" ry="10.6"/>
				
					<ellipse transform="matrix(0.9063 -0.4227 0.4227 0.9063 -142.7692 426.5278)" class="st2" cx="890.3" cy="535.2" rx="10.6" ry="8"/>
			</g>
		</g>
		<g>
			<path class="st2" d="M908.1,239c-5.2-0.5-10.1,0.9-13.5,3.4c-1,0.7-2.4,0.4-3-0.7c-1.4-2.6-3.8-5-6.8-6.7
				c-4.4-2.5-9.2-3-12.9-1.7c-1.2,0.4-2.4-0.3-2.7-1.5c-0.6-2.4-1.9-4.9-4-6.9c-4.3-4.2-9.5-5-14.6-1.7c-1.2,0.8-2.7,0.6-3.7-0.4
				c0,0,0,0,0,0c-0.7-0.7-1-1.8-0.7-2.8c5-19.1,13.4-43.9,35.7-57.2c23.9-14.2,50.8,14.8,20.8,42.7c-1,0.9-0.6,2.5,0.7,2.8
				c26.8,6.8,31.1,26.5,22.5,38.3c-0.9,1.2-2.7,1.2-3.5,0C919.5,242.6,914.3,239.6,908.1,239z"/>
			<g>
				
					<ellipse transform="matrix(8.983301e-02 -0.996 0.996 8.983301e-02 573.2832 1132.9877)" class="st2" cx="906.5" cy="252.8" rx="8.9" ry="11.7"/>
				
					<ellipse transform="matrix(0.4905 -0.8714 0.8714 0.4905 234.5287 890.7426)" class="st2" cx="879" cy="244.8" rx="7" ry="9.2"/>
				
					<ellipse transform="matrix(0.6976 -0.7164 0.7164 0.6976 93.2745 684.9315)" class="st2" cx="858.1" cy="232" rx="5.3" ry="6.9"/>
			</g>
		</g>
		<g>
			<path class="st2" d="M592.4,64.5c-1.1-9.2-5.2-17.1-10.7-22.1c-1.6-1.5-1.6-4.1,0.1-5.5c3.9-3.4,7.2-8.3,9.1-14.2
				c2.7-8.5,1.8-17-1.7-23c-1.1-1.9-0.4-4.3,1.6-5.2c4-1.9,7.7-5.1,10.5-9.5c5.7-9,5.1-18.3-2.4-26c-1.8-1.8-2-4.5-0.6-6.6
				c0,0,0,0,0-0.1c1-1.5,2.8-2.4,4.6-2.3c34.9,1.8,80.9,7.3,112.1,41.1c33.2,36.2-7.2,93.4-66.5,51.6c-1.9-1.3-4.5-0.1-4.6,2.3
				c-2,48.9-34.7,63.5-58.2,52.9c-2.4-1.1-3-4.2-1.2-6C590.4,85.7,593.7,75.5,592.4,64.5z"/>
			<g>
				
					<ellipse transform="matrix(0.9932 -0.1166 0.1166 0.9932 -3.9268 66.7051)" class="st2" cx="567.9" cy="66.9" rx="15.7" ry="20.7"/>
				
					<ellipse transform="matrix(0.3011 -0.9536 0.9536 0.3011 384.1176 556.7332)" class="st2" cx="571.8" cy="16.3" rx="16.3" ry="12.4"/>
				
					<ellipse transform="matrix(0.5356 -0.8445 0.8445 0.5356 293.0925 483.8795)" class="st2" cx="586.5" cy="-24.5" rx="12.3" ry="9.3"/>
			</g>
		</g>
		<g>
			<path class="st2" d="M904.5,56.2c-7,2.7-12.3,7.5-15.1,12.8c-0.8,1.6-2.9,2.1-4.3,1c-3.5-2.4-7.9-4-12.9-4.2
				c-7.1-0.4-13.6,2-17.5,6c-1.2,1.2-3.3,1.2-4.4-0.2c-2.3-2.7-5.5-5-9.5-6.3c-8.1-2.6-15.3-0.3-19.8,7.1c-1,1.7-3.1,2.5-5,1.8
				c0,0,0,0-0.1,0c-1.4-0.5-2.4-1.7-2.7-3.1c-5.6-27.6-10.6-64.5,9.6-95.6c21.5-33.2,74.2-13.1,53.5,41.5c-0.7,1.7,0.9,3.5,2.7,3.1
				c38.6-8.2,56.4,14.3,52.9,34.8c-0.4,2.1-2.6,3.2-4.5,2.1C921.4,53.5,912.8,53,904.5,56.2z"/>
			<g>
				
					<ellipse transform="matrix(0.9328 -0.3604 0.3604 0.9328 34.269 333.4705)" class="st2" cx="911.2" cy="74.9" rx="16.7" ry="12.7"/>
				
					<ellipse transform="matrix(5.394837e-02 -0.9985 0.9985 5.394837e-02 742.2112 947.2902)" class="st2" cx="871" cy="81.9" rx="10" ry="13.1"/>
				
					<ellipse transform="matrix(0.3083 -0.9513 0.9513 0.3083 503.5288 849.9531)" class="st2" cx="836.2" cy="78.7" rx="7.5" ry="9.9"/>
			</g>
		</g>
		<g>
			<path class="st2" d="M1063.1,86.8c0.9,6.4,3.9,11.8,7.9,15.1c1.2,1,1.2,2.8,0.1,3.8c-2.7,2.4-4.8,5.9-6,10
				c-1.7,5.9-0.9,11.8,1.7,15.9c0.8,1.3,0.4,3-1,3.7c-2.7,1.4-5.2,3.7-7.1,6.8c-3.7,6.3-3.2,12.8,2.2,17.9c1.3,1.2,1.5,3.1,0.6,4.6
				c0,0,0,0,0,0c-0.7,1.1-1.9,1.7-3.1,1.7c-24.2-0.5-56.2-3.4-78.5-26.2c-23.8-24.4,3.1-64.8,45-37.1c1.3,0.9,3.1,0,3.1-1.7
				c0.4-33.9,22.7-44.7,39.2-37.8c1.7,0.7,2.2,2.8,1,4.2C1064.1,72.1,1062,79.2,1063.1,86.8z"/>
			<g>
				
					<ellipse transform="matrix(0.9893 -0.1461 0.1461 0.9893 -0.7833 158.6965)" class="st2" cx="1080" cy="84.7" rx="10.9" ry="14.4"/>
				
					<ellipse transform="matrix(0.2726 -0.9621 0.9621 0.2726 669.1576 1124.6654)" class="st2" cx="1078.4" cy="119.8" rx="11.3" ry="8.6"/>
				
					<ellipse transform="matrix(0.5103 -0.86 0.86 0.5103 395.8995 992.0702)" class="st2" cx="1069.1" cy="148.4" rx="8.5" ry="6.5"/>
			</g>
		</g>
		<g>
			<path class="st2" d="M1216.3,445c-5.7,2.6-9.8,6.9-11.9,11.5c-0.6,1.4-2.3,1.9-3.5,1.1c-3-1.8-6.9-2.8-11-2.8
				c-6,0.1-11.2,2.4-14.3,6c-1,1.1-2.7,1.2-3.7,0.1c-2-2.2-4.9-3.9-8.2-4.7c-6.9-1.7-12.8,0.6-16.1,7c-0.8,1.5-2.5,2.3-4.1,1.8
				c0,0,0,0,0,0c-1.2-0.3-2.1-1.3-2.4-2.5c-6.2-22.7-12.5-53.2,2.6-80.2c16.1-28.9,61.1-15.1,47,31.5c-0.5,1.5,0.9,2.9,2.4,2.4
				c31.7-9.1,47.9,8.7,46,26c-0.2,1.7-2,2.8-3.6,2C1230.3,441.7,1223.1,441.8,1216.3,445z"/>
			<g>
				
					<ellipse transform="matrix(0.9061 -0.423 0.423 0.9061 -79.8164 560.488)" class="st2" cx="1223" cy="460.1" rx="13.9" ry="10.6"/>
				
					<ellipse transform="matrix(0.9999 -1.401173e-02 1.401173e-02 0.9999 -6.4447 16.7189)" class="st2" cx="1189.9" cy="468.3" rx="11" ry="8.3"/>
				
					<ellipse transform="matrix(0.243 -0.97 0.97 0.243 425.1493 1479.9242)" class="st2" cx="1160.7" cy="467.6" rx="6.3" ry="8.3"/>
			</g>
		</g>
		<g>
			<path class="st2" d="M1057.3,386.2c-10.4-0.9-20.1,1.7-26.9,6.7c-2,1.5-4.9,0.8-6.1-1.4c-2.9-5.1-7.5-9.9-13.6-13.3
				c-8.7-4.9-18.3-5.9-25.7-3.4c-2.3,0.8-4.8-0.6-5.4-3c-1.1-4.8-3.8-9.7-8-13.7c-8.6-8.3-19-9.9-29.2-3.4c-2.4,1.5-5.5,1.2-7.4-0.8
				c0,0,0,0-0.1-0.1c-1.4-1.5-2-3.6-1.4-5.6c10.1-38.1,26.7-87.5,71.2-114c47.5-28.3,101.3,29.6,41.5,85.2c-1.9,1.8-1.1,4.9,1.4,5.6
				c53.5,13.5,62,52.9,44.8,76.4c-1.7,2.4-5.3,2.4-6.9-0.1C1080.2,393.3,1069.8,387.3,1057.3,386.2z"/>
			<g>
				
					<ellipse transform="matrix(8.970018e-02 -0.996 0.996 8.970018e-02 547.6415 1426.6494)" class="st2" cx="1054.3" cy="413.7" rx="17.7" ry="23.4"/>
				
					<ellipse transform="matrix(0.4904 -0.8715 0.8715 0.4904 162.7025 1073.7172)" class="st2" cx="999.4" cy="397.7" rx="13.9" ry="18.4"/>
				
					<ellipse transform="matrix(0.6975 -0.7165 0.7165 0.6975 23.0317 798.8459)" class="st2" cx="957.8" cy="372.1" rx="10.5" ry="13.8"/>
			</g>
		</g>
		<g>
			<path class="st2" d="M1150.7,177.9c8.6,1.3,16.7-0.5,22.6-4.3c1.7-1.1,4.1-0.4,5,1.4c2.1,4.4,5.8,8.6,10.6,11.7
				c7,4.5,14.9,5.8,21.1,4c2-0.5,4,0.7,4.3,2.7c0.7,4.1,2.7,8.2,6,11.8c6.7,7.3,15.3,9.1,24,4.2c2-1.2,4.6-0.7,6.1,1c0,0,0,0,0,0.1
				c1.1,1.3,1.5,3.1,0.9,4.7c-10.1,31.1-26.3,71.3-64.5,91.1c-40.7,21.2-82.5-29.3-30.3-72.6c1.7-1.4,1.2-4-0.9-4.7
				c-43.7-13.8-48.9-46.8-33.5-65.4c1.6-1.9,4.5-1.7,5.7,0.4C1132,170.9,1140.4,176.4,1150.7,177.9z"/>
			<g>
				
					<ellipse transform="matrix(0.1465 -0.9892 0.9892 0.1465 831.9214 1274.5188)" class="st2" cx="1154.5" cy="155.2" rx="14.7" ry="19.4"/>
				
					<ellipse transform="matrix(0.5394 -0.8421 0.8421 0.5394 408.3549 1088.5956)" class="st2" cx="1199.2" cy="171" rx="11.6" ry="15.3"/>
				
					<ellipse transform="matrix(0.7374 -0.6755 0.6755 0.7374 192.5196 883.6105)" class="st2" cx="1232.5" cy="194.2" rx="8.7" ry="11.5"/>
			</g>
		</g>
		<g>
			<path class="st2" d="M1430.5,29.7c7.5-6.3,12.2-14.5,13.4-22.3c0.4-2.3,2.7-3.8,4.9-3.1c5.3,1.5,11.6,1.6,17.9-0.2
				c9-2.5,16.1-8.3,19.3-14.9c1-2.1,3.6-2.8,5.5-1.6c4,2.5,9,3.9,14.5,3.8c11.2-0.2,19.2-6.1,21.6-17.2c0.6-2.6,2.8-4.4,5.5-4.4
				c0,0,0.1,0,0.1,0c1.9,0,3.7,1.1,4.7,2.7c18.7,32,40.5,75.9,28.6,123.1c-12.7,50.4-86.9,47.8-84.2-28.9c0.1-2.5-2.5-4-4.7-2.8
				c-44.5,26.6-76.4,6.1-80.6-20.9c-0.4-2.7,1.9-5.1,4.7-4.6C1410.6,40.2,1421.5,37.2,1430.5,29.7z"/>
			<g>
				
					<ellipse transform="matrix(0.7669 -0.6417 0.6417 0.7669 323.5899 909.6902)" class="st2" cx="1414.2" cy="9.4" rx="22" ry="16.6"/>
				
					<ellipse transform="matrix(0.9627 -0.2706 0.2706 0.9627 58.9929 394.8195)" class="st2" cx="1461.2" cy="-16.5" rx="17.3" ry="13.1"/>
				
					<ellipse transform="matrix(0.9999 -1.460074e-02 1.460074e-02 0.9999 0.5584 21.9848)" class="st2" cx="1505.9" cy="-27.3" rx="13" ry="9.9"/>
			</g>
		</g>
		<g>
			<path class="st2" d="M1339.3,386.3c-6.2-6.9-14.1-11.1-21.5-12c-2.2-0.3-3.7-2.4-3.1-4.6c1.3-5.1,1.1-11-0.8-16.9
				c-2.7-8.5-8.3-14.9-14.7-17.8c-2-0.9-2.8-3.3-1.7-5.2c2.2-3.8,3.4-8.6,3.1-13.8c-0.5-10.6-6.4-18-16.9-19.9
				c-2.5-0.4-4.3-2.5-4.3-5c0,0,0-0.1,0-0.1c0-1.8,0.9-3.5,2.5-4.5c29.7-18.6,70.5-40.7,115.5-30.9c48.1,10.5,47.9,80.7-24.7,80.6
				c-2.3,0-3.7,2.5-2.5,4.5c26.5,41.3,8.2,72-17.3,76.9c-2.6,0.5-4.9-1.7-4.5-4.3C1349.9,404.8,1346.7,394.6,1339.3,386.3z"/>
			<g>
				
					<ellipse transform="matrix(0.7454 -0.6666 0.6666 0.7454 68.0216 982.7989)" class="st2" cx="1320.6" cy="402.4" rx="15.8" ry="20.8"/>
				
					<ellipse transform="matrix(0.9533 -0.3022 0.3022 0.9533 -47.8557 407.984)" class="st2" cx="1294.7" cy="358.7" rx="12.4" ry="16.4"/>
				
					<ellipse transform="matrix(0.9989 -4.752376e-02 4.752376e-02 0.9989 -13.602 61.3364)" class="st2" cx="1283.1" cy="316.7" rx="9.3" ry="12.3"/>
			</g>
		</g>
		<g>
			<path class="st2" d="M1273.7,36.7c-4.9,7.7-6.6,16.2-5.5,23.4c0.3,2.1-1.3,4.1-3.5,4.2c-5.1,0.2-10.6,1.9-15.7,5.2
				c-7.3,4.8-11.8,11.8-12.8,18.5c-0.3,2.1-2.4,3.5-4.4,3c-4.2-1-9-0.9-13.8,0.7c-9.8,3.3-15.2,10.8-14.2,21.2
				c0.2,2.4-1.2,4.7-3.6,5.4c0,0,0,0-0.1,0c-1.7,0.5-3.6,0.1-4.9-1.1c-25.4-22.9-57-55.5-59.8-100.4c-3-48,63.1-66.5,82.3,1.8
				c0.6,2.2,3.4,2.8,4.9,1.1c31.7-36,65.5-26.9,76.9-4.3c1.1,2.3-0.3,5-2.8,5.3C1288.3,21.8,1279.5,27.5,1273.7,36.7z"/>
			<g>
				
					<ellipse transform="matrix(0.5352 -0.8447 0.8447 0.5352 559.109 1116.1094)" class="st2" cx="1293.8" cy="50" rx="20.3" ry="15.4"/>
				
					<ellipse transform="matrix(0.8346 -0.5508 0.5508 0.8346 160.9147 708.011)" class="st2" cx="1259.6" cy="86" rx="16" ry="12.1"/>
				<ellipse transform="matrix(0.948 -0.3182 0.3182 0.948 29.2142 394.9118)" class="st2" cx="1223.3" cy="108" rx="12" ry="9.1"/>
			</g>
		</g>
		<g>
			<path class="st2" d="M1379.5,170.4c-6,1-11,4-14.1,7.8c-0.9,1.1-2.6,1.2-3.6,0.1c-2.4-2.5-5.7-4.4-9.6-5.4
				c-5.6-1.5-11.2-0.6-15,1.9c-1.2,0.8-2.8,0.4-3.5-0.9c-1.4-2.5-3.6-4.9-6.5-6.5c-6.1-3.4-12.2-2.7-16.9,2.5
				c-1.1,1.2-2.9,1.5-4.3,0.6c0,0,0,0,0,0c-1-0.6-1.6-1.7-1.6-2.9c0-22.9,1.9-53.2,23-74.7c22.5-23,61.3,1.5,36,41.7
				c-0.8,1.3,0.1,2.9,1.6,2.9c32.1-0.4,42.7,20.5,36.6,36.2c-0.6,1.6-2.6,2.1-3.9,1C1393.4,170.9,1386.6,169.2,1379.5,170.4z"/>
			<g>
				
					<ellipse transform="matrix(0.9855 -0.1694 0.1694 0.9855 -11.5905 236.8209)" class="st2" cx="1381.9" cy="186.3" rx="13.6" ry="10.3"/>
				
					<ellipse transform="matrix(0.2498 -0.9683 0.9683 0.2498 832.1332 1445.1049)" class="st2" cx="1348.7" cy="185.5" rx="8.1" ry="10.7"/>
				
					<ellipse transform="matrix(0.4898 -0.8718 0.8718 0.4898 519.5081 1242.5387)" class="st2" cx="1321.4" cy="177.4" rx="6.1" ry="8.1"/>
			</g>
		</g>
		<g>
			<path class="st2" d="M1464.7,433.5c2.5,5.9,6.7,10.3,11.3,12.5c1.4,0.7,1.8,2.4,1,3.7c-1.9,3-3.2,6.9-3.3,11.1
				c-0.1,6.1,2,11.5,5.5,14.8c1.1,1,1.1,2.8,0,3.7c-2.3,2-4.1,4.8-5.1,8.2c-2,7,0.1,13.1,6.5,16.6c1.5,0.8,2.2,2.6,1.7,4.2
				c0,0,0,0,0,0c-0.4,1.2-1.4,2.1-2.6,2.4c-23.3,5.5-54.7,10.6-81.6-5.7c-28.8-17.5-13-62.9,33.9-46.6c1.5,0.5,3-0.8,2.6-2.4
				c-8-32.6,10.7-48.4,28.3-45.9c1.8,0.3,2.8,2.2,1.9,3.7C1462,419.2,1461.8,426.5,1464.7,433.5z"/>
			<g>
				
					<ellipse transform="matrix(0.9217 -0.388 0.388 0.9217 -49.8236 607.8052)" class="st2" cx="1480.4" cy="427.3" rx="10.8" ry="14.2"/>
				
					<ellipse transform="matrix(2.428486e-02 -0.9997 0.9997 2.428486e-02 990.1243 1937.1292)" class="st2" cx="1487.4" cy="461.3" rx="11.2" ry="8.5"/>
				
					<ellipse transform="matrix(0.2799 -0.96 0.96 0.2799 598.3219 1779.7596)" class="st2" cx="1485.6" cy="491" rx="8.4" ry="6.4"/>
			</g>
		</g>
		<g>
			<path class="st2" d="M1633.1,371.7c-5.5,7.1-8,15.3-7.5,22.5c0.1,2.1-1.7,3.9-3.8,3.8c-5-0.3-10.6,0.9-15.9,3.7
				c-7.6,4-12.7,10.5-14.3,17c-0.5,2-2.6,3.2-4.6,2.5c-4-1.4-8.8-1.7-13.6-0.5c-10,2.4-15.9,9.2-15.9,19.6c0,2.4-1.6,4.5-4,5
				c0,0,0,0-0.1,0c-1.7,0.3-3.5-0.2-4.7-1.5c-22.9-24.8-51-59.6-49.7-104c1.4-47.4,68-59.7,80.7,9.2c0.4,2.2,3.1,3.1,4.7,1.5
				c34.4-32.5,66.8-20.5,75.9,2.7c0.9,2.3-0.7,4.9-3.2,5C1648.7,358.4,1639.6,363.2,1633.1,371.7z"/>
			<g>
				
					<ellipse transform="matrix(0.6101 -0.7923 0.7923 0.6101 337.6787 1459.3284)" class="st2" cx="1651.6" cy="386.6" rx="20" ry="15.2"/>
				
					<ellipse transform="matrix(0.8814 -0.4723 0.4723 0.8814 -6.3799 812.3466)" class="st2" cx="1614.8" cy="418.9" rx="15.8" ry="12"/>
				
					<ellipse transform="matrix(0.9731 -0.2304 0.2304 0.9731 -58.3117 375.1061)" class="st2" cx="1577.1" cy="437.3" rx="11.9" ry="9"/>
			</g>
		</g>
		<g>
			<path class="st2" d="M1561.8,197.7c-4,6-5.6,12.7-4.9,18.4c0.2,1.7-1.1,3.2-2.8,3.2c-4,0-8.4,1.3-12.5,3.8
				c-5.8,3.6-9.6,9.1-10.6,14.4c-0.3,1.7-1.9,2.7-3.6,2.3c-3.3-0.9-7.1-0.9-10.9,0.3c-7.9,2.4-12.3,8.2-11.7,16.4
				c0.1,1.9-1.1,3.7-3,4.2c0,0,0,0-0.1,0c-1.4,0.4-2.8,0-3.8-1c-19.6-18.7-43.8-45.1-45-80.7c-1.3-38,51.4-51.2,65,3.3
				c0.4,1.7,2.6,2.3,3.8,1c25.9-27.7,52.4-19.8,60.9-1.6c0.9,1.8-0.3,4-2.3,4.2C1573.7,186.3,1566.6,190.6,1561.8,197.7z"/>
			<g>
				
					<ellipse transform="matrix(0.5591 -0.8291 0.8291 0.5591 522.3932 1399.777)" class="st2" cx="1577.4" cy="208.7" rx="16.1" ry="12.2"/>
				
					<ellipse transform="matrix(0.85 -0.5267 0.5267 0.85 107.8617 851.6449)" class="st2" cx="1549.6" cy="236.4" rx="12.6" ry="9.6"/>
				
					<ellipse transform="matrix(0.9567 -0.291 0.291 0.9567 -7.8195 453.4189)" class="st2" cx="1520.3" cy="253" rx="9.5" ry="7.2"/>
			</g>
		</g>
		<g>
			<path class="st2" d="M422.4,441.9c-6.5-3.4-13.4-4.3-19.2-3c-1.7,0.4-3.4-0.8-3.6-2.5c-0.5-4.1-2.2-8.4-5.2-12.3
				c-4.3-5.5-10.2-8.8-15.7-9.1c-1.7-0.1-3-1.7-2.7-3.4c0.6-3.4,0.1-7.3-1.4-11c-3.3-7.7-9.6-11.5-17.9-10.1
				c-1.9,0.3-3.9-0.7-4.6-2.5c0,0,0,0,0-0.1c-0.5-1.3-0.3-2.9,0.6-4c16.8-21.9,41-49.3,76.9-54.4c38.4-5.4,57.4,46.5,3.7,66.3
				c-1.7,0.6-2,2.9-0.6,4c30.9,23.2,25.7,50.9,8.3,61.5c-1.8,1.1-4.1,0.1-4.5-1.9C435.2,452.7,430.1,446,422.4,441.9z"/>
			<g>
				
					<ellipse transform="matrix(0.4676 -0.8839 0.8839 0.4676 -185.7914 609.3289)" class="st2" cx="412.9" cy="458.9" rx="12.4" ry="16.4"/>
				
					<ellipse transform="matrix(0.7891 -0.6143 0.6143 0.7891 -185.8957 326.0572)" class="st2" cx="381.8" cy="433.7" rx="9.8" ry="12.9"/>
				
					<ellipse transform="matrix(0.9202 -0.3913 0.3913 0.9202 -129.986 173.9751)" class="st2" cx="361.9" cy="405.9" rx="7.4" ry="9.7"/>
			</g>
		</g>
		<g>
			<path class="st2" d="M686.5,501.4c-8.9,8-14.1,18.1-15.3,27.6c-0.3,2.8-3.1,4.7-5.9,4c-6.5-1.6-14.1-1.4-21.6,1
				c-10.9,3.5-19.1,10.7-22.8,18.8c-1.1,2.5-4.2,3.6-6.7,2.2c-4.9-2.8-11.1-4.3-17.7-4c-13.6,0.7-23,8.2-25.5,21.7
				c-0.6,3.2-3.2,5.5-6.4,5.5c0,0-0.1,0-0.1,0c-2.3,0-4.5-1.2-5.8-3.1c-23.9-38-52.2-90.3-39.7-147.9
				c13.4-61.6,103.3-61.4,103.2,31.6c0,3,3.2,4.8,5.7,3.1c52.8-34,92.2-10.6,98.5,22c0.6,3.3-2.1,6.3-5.4,5.7
				C710.1,487.8,697,491.9,686.5,501.4z"/>
			<g>
				
					<ellipse transform="matrix(0.7447 -0.6674 0.6674 0.7447 -170.0847 606.0146)" class="st2" cx="707" cy="525.3" rx="26.6" ry="20.2"/>
				
					<ellipse transform="matrix(0.9529 -0.3032 0.3032 0.9529 -138.7049 223.6941)" class="st2" cx="651.1" cy="558.6" rx="21" ry="15.9"/>
				
					<ellipse transform="matrix(0.9988 -4.856942e-02 4.856942e-02 0.9988 -27.1461 29.6933)" class="st2" cx="597.4" cy="573.4" rx="15.8" ry="12"/>
			</g>
		</g>
		<g>
			<path class="st2" d="M-12.8,262.1c5.4,2.6,11.1,3.1,15.8,1.9c1.4-0.4,2.8,0.6,3,2c0.5,3.3,2,6.8,4.6,9.9c3.7,4.4,8.6,6.9,13.1,7
				c1.4,0,2.5,1.3,2.3,2.7c-0.4,2.8,0.1,6,1.5,9c2.9,6.2,8.2,9.2,15,7.7c1.6-0.3,3.2,0.5,3.8,2c0,0,0,0,0,0c0.5,1.1,0.3,2.3-0.4,3.3
				C33,326,13.9,349.2-15.4,354.5c-31.3,5.6-48.5-36.5-5.1-54.2c1.4-0.6,1.6-2.4,0.4-3.3c-26-18.1-22.6-41-8.6-50.2
				c1.4-0.9,3.3-0.2,3.7,1.4C-23.7,253.6-19.3,258.9-12.8,262.1z"/>
			<g>
				
					<ellipse transform="matrix(0.4352 -0.9004 0.9004 0.4352 -226.3081 134.9804)" class="st2" cx="-5.6" cy="247.9" rx="10.2" ry="13.4"/>
				
					<ellipse transform="matrix(0.7662 -0.6426 0.6426 0.7662 -167.1116 75.8545)" class="st2" cx="20.7" cy="267.6" rx="8" ry="10.6"/>
				<ellipse transform="matrix(0.9054 -0.4245 0.4245 0.9054 -119.447 43.5113)" class="st2" cx="37.9" cy="289.8" rx="6" ry="8"/>
			</g>
		</g>
		<g>
			<path class="st2" d="M150.3,275.9c-6.7-2.4-13.4-2.3-18.7-0.2c-1.6,0.6-3.3-0.3-3.7-1.9c-1-3.9-3.2-7.8-6.6-11
				c-4.9-4.7-10.9-7-16.2-6.6c-1.7,0.1-3.1-1.2-3-2.9c0.1-3.4-0.9-7-2.9-10.4c-4.2-6.9-10.8-9.7-18.5-7.2c-1.8,0.6-3.8-0.1-4.7-1.8
				c0,0,0,0,0-0.1c-0.7-1.2-0.7-2.7,0-3.9c13.1-23.2,32.5-52.7,66.1-62.4c35.9-10.3,61.2,36.7,12.5,62.8c-1.6,0.8-1.6,3,0,3.9
				c32.7,18,31.5,45.2,16.2,57.6c-1.5,1.3-3.9,0.6-4.5-1.2C164,284.5,158.2,278.8,150.3,275.9z"/>
			<g>
				
					<ellipse transform="matrix(0.3392 -0.9407 0.9407 0.3392 -181.131 328.9469)" class="st2" cx="143.6" cy="293.4" rx="12" ry="15.8"/>
				
					<ellipse transform="matrix(0.6952 -0.7188 0.7188 0.6952 -162.9555 162.7515)" class="st2" cx="110.4" cy="273.5" rx="9.4" ry="12.4"/>
				
					<ellipse transform="matrix(0.8564 -0.5164 0.5164 0.8564 -116.3376 81.083)" class="st2" cx="87.6" cy="249.7" rx="7.1" ry="9.4"/>
			</g>
		</g>
		<g>
			<path class="st2" d="M87.5,431.6c-4.7,0.7-8.7,2.8-11.2,5.7c-0.7,0.9-2.1,0.9-2.8,0c-1.8-2-4.3-3.6-7.4-4.5
				c-4.4-1.3-8.7-0.7-11.7,1.2c-0.9,0.6-2.2,0.2-2.7-0.7c-1-2-2.7-3.9-5-5.2c-4.6-2.8-9.4-2.4-13.2,1.5c-0.9,0.9-2.3,1.1-3.4,0.4
				c0,0,0,0,0,0c-0.8-0.5-1.2-1.4-1.2-2.3c0.5-17.9,2.8-41.4,19.7-57.7c18.1-17.4,47.8,2.6,27.1,33.3c-0.7,1,0,2.3,1.2,2.3
				c25,0.5,32.9,17,27.7,29.1c-0.5,1.2-2.1,1.6-3.1,0.7C98.3,432.4,93.1,430.8,87.5,431.6z"/>
			<g>
				<ellipse transform="matrix(0.9902 -0.1396 0.1396 0.9902 -61.1388 16.7729)" class="st2" cx="89" cy="444.1" rx="10.6" ry="8"/>
				
					<ellipse transform="matrix(0.2789 -0.9603 0.9603 0.2789 -379.6589 379.8292)" class="st2" cx="63.1" cy="442.7" rx="6.3" ry="8.3"/>
				
					<ellipse transform="matrix(0.5159 -0.8566 0.8566 0.5159 -352.908 246.924)" class="st2" cx="42" cy="435.7" rx="4.8" ry="6.3"/>
			</g>
		</g>
	</g>
</g>
</svg>
