<?xml version="1.0" encoding="UTF-8"?>
<svg id="Layer_1" data-name="Layer 1" xmlns="http://www.w3.org/2000/svg" xmlns:xlink="http://www.w3.org/1999/xlink" viewBox="0 0 1600 800">
  <defs>
    <style>
      .cls-1 {
        fill: url(#linear-gradient);
      }

      .cls-1, .cls-2, .cls-3 {
        fill-rule: evenodd;
      }

      .cls-4 {
        fill: #f3f1fe;
      }

      .cls-5 {
        fill: #6957de;
      }

      .cls-6 {
        fill: #f4f1fe;
      }

      .cls-7, .cls-3 {
        fill: #fff;
      }

      .cls-8 {
        fill: #998bf8;
      }

      .cls-9 {
        fill: #8747cc;
      }

      .cls-10 {
        fill: #b7aeff;
      }

      .cls-11 {
        fill: #b7adff;
      }

      .cls-12 {
        fill: #8d7cf7;
      }

      .cls-13 {
        fill: #c2baff;
      }

      .cls-14 {
        fill: #8c7cf8;
      }

      .cls-15 {
        fill: #aca1ff;
      }

      .cls-16 {
        fill: #bc83fb;
      }

      .cls-17 {
        fill: #d8b7fb;
      }

      .cls-18 {
        fill: #dea214;
      }

      .cls-19 {
        fill: #d4cbfe;
      }

      .cls-20 {
        fill: #e2dcfe;
      }

      .cls-21 {
        fill: #c7bfff;
      }

      .cls-22 {
        fill: #403394;
      }

      .cls-23 {
        fill: #1a1733;
      }

      .cls-24 {
        fill: #9b56e3;
      }

      .cls-25 {
        fill: #9b8dfc;
      }

      .cls-26 {
        fill: #63b0f9;
      }

      .cls-27 {
        fill: #29193b;
      }

      .cls-28 {
        fill: #484478;
      }

      .cls-29 {
        fill: #5c4dc4;
      }

      .cls-30 {
        fill: #382d87;
      }

      .cls-31 {
        fill: #5d4dc4;
      }

      .cls-32 {
        fill: #7c6ce6;
      }

      .cls-33 {
        fill: #5242bd;
      }

      .cls-34 {
        fill: #4f3fbf;
      }

      .cls-35 {
        clip-rule: evenodd;
      }

      .cls-35, .cls-36 {
        fill: none;
      }

      .cls-37 {
        fill: url(#linear-gradient-3);
      }

      .cls-38 {
        fill: url(#linear-gradient-2);
      }

      .cls-2 {
        fill: #bb82fa;
      }

      .cls-36 {
        clip-path: url(#clippath);
      }
    </style>
    <clipPath id="clippath">
      <path class="cls-35" d="m1600,24.84v728.52c0,8.31-4.08,15.66-10.34,20.17-2.4,1.73-5.84.86-6.95-1.88-3.92-9.72-16.41-16.83-31.21-16.83-9.47,0-17.99,2.91-23.93,7.55-1.91,1.49-4.64,1.25-6.24-.56-7.66-8.68-21.22-14.45-36.68-14.45-13.95,0-26.37,4.71-34.28,12.01-1.84,1.7-4.72,1.55-6.42-.29-9.32-10.07-25.83-16.76-44.62-16.76-27.05,0-49.35,13.85-52.36,31.7-.4,2.39-2.49,4.14-4.91,4.14l-1317.22.05c-13.71,0-24.83-11.12-24.83-24.84V24.84C0,11.12,11.12,0,24.83,0h1550.34c13.71,0,24.83,11.12,24.83,24.84Z"/>
    </clipPath>
    <linearGradient id="linear-gradient" x1="825.87" y1="324.82" x2="816.97" y2="421.39" gradientTransform="translate(114.83)" gradientUnits="userSpaceOnUse">
      <stop offset="0" stop-color="#4e5ee4"/>
      <stop offset=".52" stop-color="#63b0f9"/>
      <stop offset="1" stop-color="#63d2f9"/>
    </linearGradient>
    <linearGradient id="linear-gradient-2" x1="870.68" y1="328.95" x2="861.78" y2="425.51" xlink:href="#linear-gradient"/>
    <linearGradient id="linear-gradient-3" x1="778.18" y1="320.42" x2="769.27" y2="416.99" xlink:href="#linear-gradient"/>
  </defs>
  <path class="cls-2" d="m1600,24.84v728.52c0,8.31-4.08,15.66-10.34,20.17-2.4,1.73-5.84.86-6.95-1.88-3.92-9.72-16.41-16.83-31.21-16.83-9.47,0-17.99,2.91-23.93,7.55-1.91,1.49-4.64,1.25-6.24-.56-7.66-8.68-21.22-14.45-36.68-14.45-13.95,0-26.37,4.71-34.28,12.01-1.84,1.7-4.72,1.55-6.42-.29-9.32-10.07-25.83-16.76-44.62-16.76-27.05,0-49.35,13.85-52.36,31.7-.4,2.39-2.49,4.14-4.91,4.14l-1317.22.05c-13.71,0-24.83-11.12-24.83-24.84V24.84C0,11.12,11.12,0,24.83,0h1550.34c13.71,0,24.83,11.12,24.83,24.84Z"/>
  <g>
    <ellipse class="cls-20" cx="1399.46" cy="779.16" rx="33.87" ry="20.84"/>
    <ellipse class="cls-20" cx="1483.78" cy="778.69" rx="27.94" ry="17.19"/>
    <ellipse class="cls-20" cx="1552.37" cy="779.04" rx="18.65" ry="11.48"/>
  </g>
  <g class="cls-36">
    <g>
      <rect class="cls-20" x="0" width="1600" height="800"/>
      <g>
        <polygon class="cls-8" points="908.88 757.8 832.21 757.8 828.24 800 908.88 800 908.88 757.8"/>
        <g>
          <polygon class="cls-8" points="990 800 990 667.2 938.53 652.57 896.82 698.86 896.82 800 990 800"/>
          <path class="cls-10" d="m938.53,652.57l-20.86,147.43h-20.86v-97.46c0-2.37.88-4.66,2.47-6.42l39.25-43.56Z"/>
          <polygon class="cls-10" points="990 681.94 990 693.1 943.78 680.94 945.25 669.74 990 681.94"/>
          <polygon class="cls-10" points="990 701.9 990 718.18 940.4 706.78 942.58 690.11 990 701.9"/>
          <polygon class="cls-10" points="990 733.91 990 751.39 936.17 739.02 938.31 722.67 990 733.91"/>
          <polygon class="cls-10" points="990 759.25 990 768.08 934.04 755.24 935.08 747.31 990 759.25"/>
          <polygon class="cls-10" points="990 774.53 990 789.98 931.11 777.57 933.13 762.17 990 774.53"/>
          <polygon class="cls-10" points="930.03 785.87 990 797.84 990 800 928.17 800 930.03 785.87"/>
        </g>
        <g>
          <path class="cls-8" d="m1039.53,684.9c-.89,0-1.61-.72-1.61-1.61v-30.72c0-.89.72-1.61,1.61-1.61s1.61.72,1.61,1.61v30.72c0,.89-.72,1.61-1.61,1.61Z"/>
          <path class="cls-10" d="m1093.77,728.16v71.84h-67.2v-113.07c0-4.98,4.04-9.03,9.03-9.03h11.74c2.29,0,4.5.87,6.16,2.44l10.34,9.65,22.44,20.95c4.78,4.45,7.48,10.69,7.48,17.22Z"/>
          <polygon class="cls-8" points="1093.78 728.16 1026.57 771.27 1026.57 800 1093.78 800 1093.78 728.16"/>
          <path class="cls-8" d="m1063.85,689.99h-37.27v-3.06c0-4.98,4.04-9.03,9.03-9.03h11.74c2.29,0,4.5.87,6.16,2.44l10.34,9.65Z"/>
          <path class="cls-10" d="m1026.69,776.22h51.1c3.42,0,6.19,2.77,6.19,6.19v17.59h-57.41l.12-23.78Z"/>
        </g>
      </g>
      <g>
        <path class="cls-10" d="m1355.84,503.49v296.51h-66.76v-242.76c0-3.53,1.7-6.85,4.57-8.92l12.6-9.08,49.59-35.75Z"/>
        <path class="cls-8" d="m1355.85,503.49l21.07,10.21c2.53,1.93,4.01,4.92,4.01,8.1v278.21h-25.08v-296.51Z"/>
        <g>
          <path class="cls-8" d="m1355.84,531.02v23.24l-66.76,8.22v-5.23c0-3.53,1.7-6.85,4.57-8.92l12.6-9.08,49.59-8.22Z"/>
          <polygon class="cls-8" points="1355.84 563.85 1355.84 575.47 1289.09 583.68 1289.09 572.06 1355.84 563.85"/>
          <polygon class="cls-8" points="1355.84 584.53 1355.84 598.33 1289.09 606.55 1289.09 592.74 1355.84 584.53"/>
          <polygon class="cls-8" points="1355.84 612.5 1355.84 623.59 1289.09 631.8 1289.09 620.71 1355.84 612.5"/>
          <polygon class="cls-8" points="1355.84 634.37 1355.84 651.32 1289.09 659.54 1289.09 642.59 1355.84 634.37"/>
          <polygon class="cls-8" points="1355.84 659.84 1355.84 668.31 1289.09 676.53 1289.09 668.06 1355.84 659.84"/>
          <polygon class="cls-8" points="1355.84 680.78 1355.84 696.89 1289.09 705.11 1289.09 688.99 1355.84 680.78"/>
          <polygon class="cls-8" points="1355.84 711.87 1355.84 731.28 1289.09 739.5 1289.09 720.08 1355.84 711.87"/>
          <polygon class="cls-8" points="1355.84 747.83 1355.84 784.47 1289.09 789.16 1289.09 754.87 1355.84 747.83"/>
        </g>
      </g>
      <path class="cls-4" d="m313.08,404.57c-120.52-25.44-194.34,36.15-312.04,22.23v-60.73c125.71-3.91,203.05,24.54,301.2,15.39l10.84,23.12Z"/>
      <g>
        <path class="cls-4" d="m563.77,89.8c0,3.32-114.6,4.65-213.54,4.65s-201.41-1.33-201.41-5.98c0,0,.19-.18.55-.49,9.23-3.96,132.73-1.5,192.44-1.5s221.96,0,221.96,3.32Z"/>
        <path class="cls-7" d="m563.77,89.8c0-3.32-159.9-3.32-221.96-3.32s-183.21-2.46-192.44,1.5c4.21-3.69,32.51-26.39,70.35-6.81,0-13.28,18.01-20.64,21.94-2.66,0,0,22.16-34.54,74.52-36.86,52.36-2.33,77.61,40.02,90.39,40.02s75.41-36.7,103.95,4.05c4.69-14.37,48.57-19.5,53.25,4.08Z"/>
        <ellipse class="cls-7" cx="410.28" cy="66.26" rx="8.08" ry="4.63" transform="translate(-1.63 121.49) rotate(-16.81)"/>
      </g>
      <g>
        <path class="cls-7" d="m1600,407.06v30.05h-181.03s.03-.06.05-.1c12.6-24.28,46.41-21.04,55.14-5.46,38.81-40.52,59.85-1.1,73.79-3.93,11.21-2.28,29.69-29.39,52.05-20.56Z"/>
        <path class="cls-4" d="m1600,435.59v5.51c-1.36.07-2.77.13-4.23.16-24.52.66-177.84.61-176.8-4.15,0-.04.03-.06.05-.1,3.02-3.49,124.41-2.84,180.98-1.42Z"/>
      </g>
      <g>
        <path class="cls-16" d="m1481.88,610.04c3.9,2.43,12.28,3.27-12.06-21.93-23.09-23.9-33.11-44.11-29.91-56.47,1.31-5.11,4.85-8.85,10.58-10.91,6.23-2.24,15.06-2.49,26.45-.32,8.49,1.61,18.41,4.55,29.74,9.01,9.57,3.76,20.13,8.6,31.7,14.62,9.37,4.87,19.39,10.52,30.07,17,9.87,6,20.31,12.7,31.3,20.17v-64.98c-170.82-83-274.88-4.07-117.87,93.82Z"/>
        <path class="cls-9" d="m1469.82,588.11c-23.25-23.74-33.11-44.11-29.91-56.47,1.31-5.11,4.85-8.85,10.58-10.91,6.23-2.24,15.06-2.49,26.45-.32,8.49,1.61,18.41,4.55,29.74,9.01,9.57,3.76,20.13,8.6,31.7,14.62,9.37,4.87,19.39,10.52,30.07,17,9.87,6,20.31,12.7,31.3,20.17v-33.28c-40.96-12.23-89.25-43.9-133.59-43.9-42.61,0-54.81,33.91,3.66,84.09Z"/>
        <path class="cls-17" d="m1553.87,556.47c10.58,5.13,20.64,6.22,22.47,2.43,1.83-3.78-6.1-10.16-16.68-15.29-10.58-5.13-19.79-7.07-21.62-3.28-1.83,3.78,5.25,11.01,15.83,16.13Z"/>
        <path class="cls-17" d="m1491.04,528.84c8.73,2.45,16.53,1.9,17.4-1.22.88-3.12-6.32-6.77-15.05-9.22-8.73-2.45-15.71-2.78-16.58.35-.88,3.12,5.49,7.64,14.23,10.09Z"/>
        <path class="cls-17" d="m1446.46,526.61c3.84-4.19,5.74-8.7,4.24-10.07-1.5-1.37-6.66.08-10.5,4.27-3.84,4.19-4.91,9.53-3.41,10.9s5.83-.91,9.67-5.1Z"/>
      </g>
      <g>
        <g>
          <g>
            <path class="cls-29" d="m121.16,548.59c-51.65-.75-58.48.77-49.92,37.21l49.92-37.21Z"/>
            <path class="cls-29" d="m73.03,673.52c.47,35.77,5.24,34.4,55.8,35.03l-55.8-35.03Z"/>
            <path class="cls-14" d="m48.33,627.54c.14,10.32,4.83,21.72,13.18,32.91,17.46,23.43,50.91,45.96,91.97,55.88,14.21,3.43,29.33,5.35,45.02,5.26,24.62-.13,47.86-4.39,68.35-11.57h0c17.12-6.01,32.33-14.06,44.78-23.47,22.68-17.11,36.3-38.72,36-60.62-.29-22.08-14.4-43.7-37.5-60.63-1.8-1.32-3.66-2.61-5.57-3.87-27.23-17.98-65.12-29.77-107.09-29.54-26.58.14-51.54,6.01-73.17,15.23-28.18,12-50.68,29.67-63.67,47.73-8.04,11.17-12.45,22.48-12.31,32.7Z"/>
            <path class="cls-5" d="m153.48,716.32c14.21,3.44,29.33,5.35,45.02,5.26,24.62-.13,47.86-4.39,68.35-11.57-.77-.22-52.54-14.71-113.37,6.3Z"/>
            <path class="cls-5" d="m59.86,600.97c42.65-28.45,90.41-44.7,138.1-47.02,43.29-2.1,85.28,7.01,121.45,26.35l1.36-2.54c-36.63-19.58-79.14-28.81-122.95-26.68-48.21,2.34-96.47,18.76-139.55,47.5l1.6,2.39Z"/>
            <path class="cls-5" d="m297.16,570.92c-1.41,3.67-5.23,7.39-10.85,10.89-15.78,9.82-45.74,17.91-76.29,18.31-33.06.44-66.23-10.19-80.57-22.02-3.63-2.99-6.05-6.06-6.97-9.04-2.24-7.3-.64-15.1,3.66-22.71,21.19-8.79,45.51-14.33,71.35-14.47,37.45-.21,71.67,9.17,97.95,23.98,2.58,5.66,3.34,10.88,1.73,15.07Z"/>
            <path class="cls-5" d="m210.96,693.12c5.2,0,10.36-.14,15.48-.42,34.03-1.86,66.22-9.94,95.67-24.02l-1.24-2.59c-29.11,13.92-60.94,21.91-94.59,23.74-26.94,1.47-55.11-.98-83.73-7.27-48.74-10.72-82.24-29.12-82.57-29.31l-1.39,2.51c.34.19,34.21,18.79,83.35,29.6,23.44,5.16,46.59,7.75,69.03,7.75Z"/>
            <path class="cls-5" d="m57.99,613.52c.34-.07,34.09-7.01,83.54-11.16,45.61-3.83,114.29-5.98,182.41,5.45l.48-2.84c-68.44-11.49-137.39-9.32-183.18-5.48-49.61,4.16-83.5,11.14-83.84,11.21l.59,2.82Z"/>
            <path class="cls-5" d="m189.9,647.78c40.19,0,86.8-2.27,136.05-9.11l-.4-2.85c-145.12,20.16-267.37.51-268.59.3l-.47,2.84c.81.13,54.8,8.82,133.4,8.82Z"/>
            <path class="cls-10" d="m311.63,686.55c22.68-17.11,36.3-38.72,36-60.62-.29-22.08-14.4-43.7-37.5-60.63,19,29.41,20.66,92.93,1.5,121.26Z"/>
            <path class="cls-10" d="m61.51,660.44s-7.56-35.82-.87-65.61c-8.04,11.17-12.45,22.48-12.31,32.7.14,10.32,4.83,21.72,13.18,32.91Z"/>
            <path class="cls-29" d="m135.85,628.82c-11.4-6.74-82.74-8.87-63.3-.81,19.43,8.06,74.7,7.56,63.3.81Z"/>
            <path class="cls-5" d="m243.73,645.51c37.63,12.34,49.23-4.97,49.23-4.97l-49.23,4.97Z"/>
          </g>
          <g>
            <path class="cls-4" d="m122.47,569.06c.91,2.98,3.34,6.05,6.97,9.04,14.34,11.83,47.51,22.46,80.57,22.02,30.55-.41,60.51-8.49,76.29-18.31,5.62-3.5,9.44-7.22,10.85-10.89,8.3-21.66-46.53-70.28-88.25-69.73-41.72.56-95.49,38.31-86.44,67.87Z"/>
            <path class="cls-19" d="m129.44,578.1c14.34,11.83,47.51,22.46,80.57,22.02,30.55-.41,60.51-8.49,76.29-18.31-2.14-21.43-149.51-22.09-156.87-3.71Z"/>
            <g>
              <circle class="cls-19" cx="157.83" cy="551.45" r="4.27"/>
              <circle class="cls-19" cx="279.24" cy="557.39" r="4.27"/>
              <circle class="cls-19" cx="235.85" cy="520.21" r="3.09"/>
              <circle class="cls-19" cx="238.94" cy="544.72" r="4.7"/>
              <circle class="cls-19" cx="142.43" cy="562.74" r="3.12"/>
            </g>
            <path class="cls-7" d="m152.22,526.22c-9.53,7.47-14.73,16.75-11.61,20.73,3.12,3.97,12.62-.35,22.15-7.82,9.53-7.47,15.47-15.27,12.35-19.24-3.12-3.97-13.37-1.13-22.9,6.34Z"/>
          </g>
          <g>
            <path class="cls-16" d="m220.8,601.49l31.55-1.58c11.84-7.7,30.98-42.28-.29-73.1-.93-.92-2.44.15-1.88,1.34,12.36,26.36.76,54.63-29.37,73.34Z"/>
            <path class="cls-9" d="m237.03,600.67l15.31-.77c11.84-7.7,30.98-42.28-.29-73.1,20.94,25.75.48,61.43-15.02,73.86Z"/>
            <path class="cls-17" d="m263.22,553.64c.65,3.55,1.74,6.21,3.32,5.92s2.33-3.4,1.68-6.95c-.65-3.55-2.45-6.2-4.03-5.91s-1.62,3.39-.97,6.94Z"/>
            <path class="cls-17" d="m257.84,580.22c-2.02,4.82-2.53,8.77-.11,9.79,2.42,1.02,6.03-2.06,8.05-6.88,2.02-4.82,1.7-9.55-.73-10.56-2.42-1.02-5.2,2.84-7.22,7.65Z"/>
          </g>
          <g>
            <path class="cls-9" d="m194.31,505.65c-1.85.09-11.89,19.5-19.66,28.82-8.1,9.72-4.25,13.51,2.44,19.56,4.99,4.52,39.7-1.99,39.7-1.99,4.8-5.29,8.02-9.73.06-19.11-8.81-10.38-20.69-27.37-22.54-27.28Z"/>
            <path class="cls-16" d="m222.98,559.41c-17.51-25.66-26.69-49.99-28.64-47.34s-16.42,37.99-23.34,49.94l51.97-2.61Z"/>
            <path class="cls-16" d="m195.61,603.53c15.08,1.04,28.14-10.35,29.18-25.42,1.04-15.08-10.35-28.14-25.42-29.18-15.08-1.04-26.51,12.19-27.54,27.27-1.04,15.08,8.71,26.29,23.79,27.33Z"/>
            <path class="cls-16" d="m195.1,549.75c-9.93,7.23-20.03,9.45-23,9.97-.57.1-1.08.42-1.4.9-3.36,5.09-3.09,9.31-2.46,11.68.32,1.21,1.62,1.86,2.8,1.45,11.51-3.96,21.87-9.99,25.33-12.09.73-.44,1.65-.42,2.35.07,3.22,2.26,13.02,8.36,25.34,8.57,1.09.02,2.03-.77,2.19-1.85.39-2.58.45-7.37-3.3-11.1-.33-.33-.78-.52-1.24-.57-12.76-1.47-21.3-5.57-24.29-7.2-.74-.41-1.64-.33-2.32.17Z"/>
            <path class="cls-9" d="m196.97,544.55c-.06-9.33-.69-18.65-1.3-27.96-.07-.82-1.3-.79-1.3.05.07,9.33.23,18.67.76,27.98.09,1.18,1.85,1.12,1.85-.07Z"/>
            <g>
              <path class="cls-27" d="m201.46,589.1c-.76,3.12-6.26,3.42-7.15.2-.29-.97-1.71-.63-1.56.37.37,4.21,5.78,5.25,8.61,2.97,1-.57,2.84-3.87.95-4.22-.41-.02-.75.28-.85.67Z"/>
              <path class="cls-27" d="m195.03,583.86c-.83-5.56-8.08-7.81-11.93-4.06-1.19.84-3.42,5.4-1.17,5.74.47.03.88-.28,1.02-.73.37-1.2,1.01-2.18,1.86-2.84,2.72-2.09,7.03-.9,8.29,2.49.48,1.13,2.11.62,1.93-.59Z"/>
              <path class="cls-27" d="m201.98,584.09c1.43-4.84,8.45-5.27,10.13-.35.45,1.14,2.1.67,1.94-.54-.67-5.79-7.91-7.78-11.84-4.05-1.16.83-3.54,5.26-1.3,5.69.49.05.92-.28,1.06-.75Z"/>
            </g>
            <path class="cls-9" d="m172.89,574.41c9.06-2.26,17.53-7.21,25.05-12.36-.24.15-.59.13-.82-.06-.02-.02.12.1.12.1,7.36,5.92,16.9,9.05,26.3,8.98.89-.02.99-1.35.07-1.46-7.98-.94-15.73-3.31-22.53-7.58-.82-.54-1.64-1.09-2.41-1.7-.59-.57-1.52-.57-2.14-.05-3.66,2.57-7.47,5-11.39,7.15-4.04,2.24-8.26,4.27-12.58,5.76-.77.22-.49,1.43.32,1.23Z"/>
            <path class="cls-9" d="m220.5,556.18c-6.25-.83-12.6-2.26-18.31-4.97-2.09-1.03-4.23-2.21-5.85-3.87-3.65,2.74-7.54,5.18-11.67,7.15-3.81,1.85-7.83,3.44-11.91,4.57-.36.08-.58.45-.48.8.09.34.43.54.77.46,2.15-.49,4.22-1.11,6.29-1.8,4.13-1.4,8.15-3.12,11.98-5.22,1.93-1.03,3.78-2.21,5.61-3.43l-1.51-.1c5.35,4.04,12.03,5.69,18.5,6.87,1.89.32,4.52.62,6.45.8.81.07.97-1.15.13-1.26Z"/>
          </g>
          <path class="cls-29" d="m205.08,610.32c-89.94,0-107.98-40.83-80.77-63.22.6-.26,1.21-.51,1.82-.76-4.3,7.61-5.89,15.42-3.66,22.71.92,2.99,3.34,6.05,6.97,9.04,14.34,11.83,47.51,22.46,80.57,22.02,30.56-.4,60.51-8.48,76.29-18.31,5.62-3.5,9.45-7.22,10.85-10.89,1.61-4.19.85-9.41-1.73-15.07,3.17,1.78,6.21,3.63,9.14,5.57,8.36,16.96-12.2,48.91-99.48,48.91Z"/>
          <path class="cls-29" d="m170.08,605.43l3.14,17.73c.44,2.5,2.44,4.44,4.95,4.81,26.8,3.98,53.13,1.28,63.17-.06,2.54-.34,4.56-2.27,5.02-4.79l3.55-19.54-79.82,1.84Z"/>
          <circle class="cls-14" cx="188" cy="617.24" r="6.36"/>
          <circle class="cls-9" cx="188" cy="617.24" r="3.6"/>
          <g>
            <circle class="cls-22" cx="216.4" cy="615.1" r="3.25"/>
            <circle class="cls-22" cx="224.55" cy="621.46" r="3.25"/>
            <circle class="cls-22" cx="232.68" cy="615.1" r="3.25"/>
          </g>
          <path class="cls-22" d="m204.05,628.23c-.83,0-1.5-.67-1.5-1.5v-18.32c0-.83.67-1.5,1.5-1.5s1.5.67,1.5,1.5v18.32c0,.83-.67,1.5-1.5,1.5Z"/>
        </g>
        <g>
          <path class="cls-5" d="m107.23,565.59c-.78,0-1.43-.6-1.49-1.39-1.44-18.95-6.98-30.08-11.37-36.09-4.73-6.46-9.18-8.51-9.22-8.53-.75-.34-1.09-1.22-.76-1.98.33-.75,1.22-1.1,1.97-.76.79.35,19.48,8.99,22.37,47.13.06.83-.56,1.55-1.38,1.61-.04,0-.08,0-.12,0Z"/>
          <circle class="cls-14" cx="83.3" cy="516.3" r="4.59"/>
        </g>
      </g>
      <g>
        <g>
          <path class="cls-12" d="m949.86,210.33l-3.58-.22c.77-12.77,1.49-22.59,2.07-30.48,1.46-19.79,1.9-25.77-.59-30.08-3.67-6.35-12.02-15.2-12.11-15.29l2.61-2.47c.35.37,8.73,9.25,12.61,15.97,3.04,5.26,2.58,11.49,1.06,32.13-.58,7.88-1.3,17.68-2.07,30.43Z"/>
          <ellipse class="cls-31" cx="935.33" cy="131.26" rx="6.25" ry="5.39" transform="translate(-2.47 243.55) rotate(-14.82)"/>
          <path class="cls-12" d="m924.25,200.71l7.3-9.95c1.59-2.17,4.25-3.27,6.91-2.87l10.96,1.66-1.11,13.19-24.05-2.03Z"/>
          <path class="cls-5" d="m961.2,210.8s-.06,0-.09,0c-.99-.05-1.75-.89-1.7-1.88l1.45-28.72c.08-1.65,1.05-3.13,2.53-3.86l7.9-3.91c.89-.44,1.96-.07,2.4.81.44.89.08,1.96-.81,2.4l-7.9,3.91c-.32.16-.52.47-.54.82l-1.45,28.72c-.05.96-.84,1.7-1.79,1.7Z"/>
        </g>
        <path class="cls-14" d="m1093.08,231.03l-.06,6.5-32.61-7.57-90.37-20.97,2.02-4.18c3.54-7.34,11.63-11.32,19.6-9.63l71.35,14.99,15.99,3.36c8.27,1.74,14.16,9.06,14.08,17.5Z"/>
        <path class="cls-5" d="m1093.08,231.03l-.06,6.5-32.61-7.57,2.6-19.79,15.99,3.36c8.27,1.74,14.16,9.06,14.08,17.5Z"/>
        <g>
          <path class="cls-9" d="m856.04,779.46c-.33,6.7-.75,13.54-1.25,20.54h-62.48c.47-13.85.76-27.21.91-40.12.01-1.36.03-2.72.03-4.07.51-57.4-2.01-105.83-6.06-148.42-.67-7.04-1.38-13.92-2.13-20.66-.42-3.86-.86-7.68-1.31-11.45-1.02-8.52-2.09-16.82-3.2-24.91-.14-1.04-.28-2.07-.42-3.1-.38-2.69-.75-5.36-1.13-8.01-3.52-24.45-7.34-47.13-11.02-68.95-.15-.88-.3-1.76-.44-2.63-.08-.46-.16-.91-.23-1.36-.7-4.12-1.39-8.2-2.06-12.26-.58-3.42-1.14-6.83-1.7-10.22-.94-5.69-1.85-11.34-2.73-16.97-1.52-9.73-2.96-19.41-4.25-29.13-.52-3.82-1.01-7.65-1.47-11.5-.38-3.1-.74-6.22-1.09-9.34-.31-2.83-.62-5.63-.93-8.41-1.56-14.28-2.98-27.85-4.22-40.72-.02-.16-.04-.32-.05-.48-.12-1.18-.23-2.35-.34-3.52-.12-1.31-.25-2.61-.37-3.9-.08-.94-.17-1.87-.25-2.8-2.66-29.07-4.26-54.26-4.23-75.42,0-1.04.01-2.07.02-3.09.04-4.69.17-9.17.39-13.44.56-10.91,1.72-20.47,3.59-28.65.17-.79.36-1.57.56-2.33.02-.11.04-.21.08-.32.16-.67.34-1.33.53-1.98,2.56-9.15,6.18-16.31,11.03-21.42,22.6-23.8,58.29,24.65,47.22,15.62-.23-.18-.48-.4-.76-.64-.14-.12-.28-.24-.42-.35-.46-.4-.91-.76-1.37-1.1-9.05-6.63-18.42-3.75-23.15,6.76-.33.72-.63,1.47-.9,2.26-.27.74-.51,1.52-.73,2.33-.68,2.46-1.15,5.22-1.37,8.24-.72,9.7-1.08,21.01-1.08,33.52,0,1.02,0,2.05.01,3.09.02,3.9.07,7.93.15,12.05.3,13.82.97,28.77,2.05,44.4.46,6.71.99,13.54,1.6,20.47.06.66.11,1.33.18,2,.11,1.3.23,2.6.35,3.91.13,1.43.27,2.87.41,4.31.01.16.03.32.04.48.74,7.59,1.57,15.26,2.48,22.98,1.57,13.32,3.4,26.77,5.49,40.11,1.02,6.48,2.09,12.94,3.24,19.34.96,5.41,1.96,10.79,3.02,16.11,1.16,5.91,2.39,11.76,3.67,17.53.76,3.44,1.54,6.85,2.35,10.22,1.08,4.55,2.19,9.04,3.35,13.45.08.31.16.62.24.93.28,1.06.56,2.11.85,3.15.87,3.27,1.77,6.49,2.69,9.66,6.5,22.41,13.32,44.25,19.71,66.83.29,1.03.58,2.05.87,3.08,2.19,7.82,4.32,15.74,6.37,23.8.94,3.71,1.86,7.44,2.76,11.22,9.1,38.11,16,80,17.57,131.08.59,19.32.42,39.96-.67,62.2Z"/>
          <path class="cls-16" d="m830.51,800h-87.55c6.88-18.8,12.17-38.82,16.04-59.96.2-1.13.41-2.26.61-3.4,7.05-40.25,9.03-84.51,7.02-132.21-.25-6.04-.57-12.13-.95-18.28-.24-4.07-.52-8.17-.83-12.29-.59-8.01-1.28-16.11-2.07-24.29-.09-1.03-.2-2.06-.3-3.1-.27-2.76-.56-5.54-.85-8.32-1.9-17.98-4.24-36.36-6.97-55.12-.65-4.43-1.29-8.9-1.94-13.41-.12-.8-.23-1.6-.34-2.4-.08-.52-.15-1.04-.23-1.56-.55-3.84-1.1-7.71-1.64-11.6-.48-3.39-.95-6.8-1.42-10.22-1.77-12.82-3.49-25.83-5.12-38.9-.99-7.93-1.95-15.87-2.85-23.81-2.07-17.99-3.89-35.9-5.33-53.36-.02-.16-.03-.32-.04-.48-.09-1.04-.17-2.07-.25-3.09-.11-1.3-.21-2.6-.31-3.89-.08-1.08-.16-2.16-.24-3.24-1.98-26.63-2.98-52-2.5-74.71.02-1.03.05-2.07.08-3.09.25-9.09.75-17.73,1.53-25.83.54-5.7,1.23-11.13,2.07-16.26.12-.71.24-1.42.36-2.13.01-.06.02-.13.04-.19.13-.78.27-1.56.42-2.32,3.33-17.64,8.62-31.35,16.42-39.68,23.09-24.67,53.44-8.94,75.9,22.4,3.9,5.45-2.92,13.05-9.57,15.54-2.84,1.07-5.64,1.21-7.58-.14-.23-.15-.44-.33-.64-.53-1.48-1.46-2.96-2.82-4.44-4.09-.25-.22-.51-.43-.76-.64-.14-.12-.28-.24-.42-.35-.46-.38-.91-.74-1.37-1.1-17.19-13.41-34.02-13.4-41.43,7.25-.27.73-.52,1.49-.75,2.27-.24.75-.45,1.53-.66,2.33-.11.43-.22.86-.32,1.3-.54,2.31-1.01,4.93-1.39,7.83-1.18,8.64-1.7,19.79-1.69,32.87,0,1.01.01,2.04.01,3.08.02,2.01.04,4.06.08,6.15.36,20.15,1.78,44.06,3.91,70.04.06.8.13,1.6.19,2.4.11,1.3.22,2.6.34,3.9.11,1.3.22,2.61.33,3.92.02.16.03.32.04.48,1.1,12.56,2.35,25.52,3.71,38.71.22,2.13.44,4.26.67,6.41,2.45,23.36,5.24,47.35,8.16,70.95.42,3.42.84,6.82,1.27,10.22.53,4.25,1.07,8.48,1.61,12.68.05.41.1.82.16,1.22.11.93.23,1.86.35,2.78,3.15,24.48,6.36,48.11,9.39,69.72.11.81.23,1.62.34,2.43.04.29.08.59.13.89.17,1.28.35,2.55.53,3.81.05.35.1.69.15,1.03.1.67.2,1.36.3,2.06,1.15,8.07,2.55,17.65,3.98,27.41.42,2.92.85,5.85,1.28,8.77,3.31,22.47,6.49,43.79,7.08,47.68,8.83,57.84,22.39,86.63,26.87,128.23.02.18.04.36.06.53.05.44.1.89.14,1.34.06.62.12,1.25.18,1.89.95,10.16,1.34,21.12,1,33.47Z"/>
          <path class="cls-9" d="m761.63,538.14c2.41,22.75,4.11,44.87,5.01,66.29,9.37,2.19,19.93,3.47,31.54,3.09-2.7-18.08-6.08-41.11-9.71-67.06l-25.84-3.27-1,.95Z"/>
          <ellipse class="cls-17" cx="773.7" cy="193.05" rx="11.05" ry="4.77" transform="translate(291.19 827.92) rotate(-66.77)"/>
          <g>
            <path class="cls-17" d="m842.34,744.56c1.2,20.6,5.18,37.03,10.82,36.69s9.24-17.3,8.04-37.9c-1.2-20.6-6.75-37.03-12.39-36.69s-7.67,17.3-6.47,37.9Z"/>
            <path class="cls-17" d="m820.81,631.16c3.76,16.84,9.9,29.27,16.58,27.76,6.67-1.51,9.04-16.39,5.28-33.24-3.76-16.84-12.21-29.27-18.89-27.76s-6.73,16.39-2.97,33.24Z"/>
          </g>
          <path class="cls-24" d="m829.14,762.77c-9.63-.39-45.21-3.45-69.35-27.13-.25,1.47-.52,2.93-.79,4.4,25.67,23.74,61.35,26.25,70.52,26.49-.12-1.27-.25-2.52-.38-3.76Z"/>
        </g>
        <g>
          <path class="cls-34" d="m288.18,306.88c2.36,9.83,11.39,34.59,15.44,49.49l265.17-131.58c-39.01-20.43-78.02-32.98-105.95-31.05-37.05,2.55-72.95,21.38-130.51,47.46-46.62,21.12-53.69,25.91-44.14,65.67Z"/>
          <path class="cls-5" d="m288.18,306.88c47.3-3.21,147.53-21.75,174.66-113.13-37.05,2.55-72.95,21.38-130.51,47.46-46.62,21.12-53.69,25.91-44.14,65.67Z"/>
        </g>
        <g>
          <path class="cls-34" d="m311.6,422.26c.73,14.6,1,46.19,1.48,56.39,2.01,43.27,7.7,52.39,68.08,73.17,2.42.83,8.5,2.89,8.98,3.04,23.93,8.01,45.2,14.35,64.37,18.77,31.69,7.3,57.67,9.34,80.51,4.96,14.3-2.75,38.23-18.02,50.71-26.09l-274.12-130.24Z"/>
          <path class="cls-5" d="m454.5,573.63c-19.17-4.41-40.43-10.75-64.36-18.76-.14-.04-.72-.24-1.54-.51-.17-.06-.35-.12-.54-.18-1.33-.45-3.05-1.03-4.56-1.55-.45-.16-.89-.31-1.3-.44-.39-.13-.75-.26-1.05-.36-60.37-20.77-66.07-29.9-68.08-73.17,51.97,22.89,69.68,51.16,75.53,70.24,39.85-13.78,58.96,11.56,65.9,24.74Z"/>
          <path class="cls-5" d="m382.21,552.18c.4.13.84.28,1.3.44-.43-.14-.86-.29-1.3-.44Z"/>
        </g>
        <path class="cls-14" d="m945.9,576.55c1.23,4.74,3.24,8.2,6.15,10.7,7.75,6.7,21.82,6.7,44.24,6.7l-21.04-28.18-29.34,10.78Z"/>
        <path class="cls-10" d="m981.09,570.06c-3.31.97-5.06,4.63-3.68,7.8l.05.1c2.89,6.55,8.78,15.99,18.83,15.99h96.41c14.61,0,23.24-5.48,29.59-15.99,2.23-3.68,4.18-7.98,6.01-12.87.18-.49.37-.99.55-1.5,1.79-4.98,3.49-10.57,5.24-16.72,2.02-7.09,4.11-14.95,6.51-23.53l-80.33,23.53-79.17,23.2Z"/>
        <path class="cls-5" d="m945.9,576.55c1.23,4.74,3.24,8.2,6.15,10.7l24.31-12.07.74-6.93-1.86-2.48-29.34,10.78Z"/>
        <path class="cls-14" d="m272.05,401.5c1.05,1.03,8.93,7.88,23.04,18.37,57.34,42.7,217.33,145.81,437.19,164.17,21.95,1.84,44.5,2.83,67.6,2.83,18.74,0,37.5-.49,56.15-1.4,147.13-7.25,287.85-41.66,362.85-81.12,73.48-38.66,112.9-82.16,112.9-109.65,0-27.6-38.93-73.42-112.9-114.43-79.91-44.31-235.03-83.01-395.59-87.08-9.22-.23-30.27-.35-31.55-.34-258.41,1.14-435.76,117.54-496.64,164.96-13.8,10.74-21.61,17.95-23.04,19.47-6.95,7.42-6.22,18.08,0,24.22Z"/>
        <g>
          <path class="cls-15" d="m693.56,233.67c10.51,23.71-213.92,80.21-212.91,50.94,1.01-29.27,202.41-74.65,212.91-50.94Z"/>
          <ellipse class="cls-15" cx="437.9" cy="300.03" rx="23.23" ry="9.62" transform="translate(-79.26 180.34) rotate(-21.39)"/>
        </g>
        <path class="cls-15" d="m932.52,201.15c28.97,48.76,111.19,46.59,83,16.38,121.18,74.11,129.32,30.56,129.32,30.56-116.51-38.38-212.32-46.95-212.32-46.95Z"/>
        <path class="cls-15" d="m715.61,197.23c115.03,83.03,59.38,336.21,201.27,383.7,29.02-2.71,86.4-10.19,86.4-10.19-154.01-115.04-201.73-251.45-247.67-377.69l-40,4.18Z"/>
        <path class="cls-5" d="m288.4,370.04c64.98-36.49,135.81-65.86,210.52-87.29,74.18-21.28,152.63-34.86,233.17-40.37,80.84-5.53,164.26-2.96,247.94,7.64,84.87,10.75,170.61,29.84,254.83,56.74l.94-2.94c-84.4-26.95-170.32-46.08-255.38-56.86-83.88-10.62-167.5-13.2-248.54-7.66-80.76,5.53-159.42,19.15-233.81,40.48-74.94,21.5-145.99,50.96-211.18,87.57l1.51,2.69Z"/>
        <path class="cls-5" d="m824.12,551.18c133.4,0,272.82-22.43,416.63-67.17l-.92-2.94c-216.28,67.29-422.64,84.02-613.33,49.74-69.54-12.5-138.18-32.11-204.01-58.27-55.97-22.24-100.55-45.26-136.78-64.84l-1.47,2.71c36.31,19.62,80.99,42.69,137.11,64.99,66.02,26.24,134.86,45.9,204.6,58.44,64.34,11.57,130.49,17.35,198.16,17.35Z"/>
        <path class="cls-5" d="m1245.92,357.99c-277.88-52.46-565.48-51.53-843.75-2.19-39.73,7.36-79.31,15.44-118.41,25.98l.84,2.96c78.03-20.33,157.87-33.41,237.81-43.62,195.03-24.01,393.34-25.03,588.41-.9l37.5,4.89,37.39,5.68c8.84,1.24,21.04,3.44,29.84,4.98l29.8,5.23.57-3.03Z"/>
        <path class="cls-5" d="m1249.21,426.98c-10.87,2.23-34.38,7.2-44.64,9.31-8.86,1.58-35.52,6.36-44.89,8.02-38.13,6.03-82.11,12.01-120.59,15.4-39.51,3.8-81.65,6.33-121.35,7.43-8.77.24-21.76.73-30.39.73-10.8.08-35.22.41-45.6.16-141.72-.9-283.83-15.39-423.03-41.96-34.6-6.59-69.8-14.13-103.97-22.63-9.83-2.44-19.65-5-29.37-7.73l-.86,2.96c6.99,1.99,14.98,4.14,22.08,5.98,26.84,6.93,54.44,13.18,81.59,18.91,139.1,28.8,281.06,44.85,423.07,48.14,12.54.14,29.39.34,41.88.44,2.09,0,31.53-.33,34.27-.34,34.57-.59,71.96-2.08,106.5-4.62,23.47-1.54,52.34-4.38,75.85-6.81,8.66-1.1,36.63-4.58,45.34-5.7,14.28-2.2,30.89-4.67,45.17-6.94,7.9-1.49,36.81-6.69,44.95-8.23,11.2-2.35,33.66-7.2,44.69-9.53l-.68-3Z"/>
        <g>
          <path class="cls-20" d="m480.99,474.62c-5.92-24.75-.31-39.79,9.93-37.28,10.24,2.51,5.61,26.79-3.37,37.28h-6.56Z"/>
          <path class="cls-20" d="m473.66,478.84c-9.03-12.09-16.36-3.79-16.08,7.29.28,11.07,11.16,14.95,16.08,5.14v-12.43Z"/>
          <path class="cls-20" d="m492.98,480.78c7.34-14.14,18.2-11.86,20.6-1.38,2.51,10.95-1.63,21.95-9.93,21.91-9.25-.05-11.23-11.63-11.23-11.63l.56-8.9Z"/>
          <path class="cls-20" d="m480.15,497.31c-9.03,19.27-6.63,35.87,2.82,36.21s8.54-25.85,3.49-36.33l-6.31.11Z"/>
          <g>
            <path class="cls-34" d="m483.13,499.55c7.28,0,13.17-6.01,13.17-13.43,0-7.42-5.89-13.43-13.17-13.43,5.78,1.36,6.02,25.38,0,26.86Z"/>
            <path class="cls-5" d="m469.95,486.12c0,7.42,5.9,13.43,13.18,13.43,6.02-1.48,5.78-25.51,0-26.86-7.28,0-13.18,6.01-13.18,13.43Z"/>
          </g>
        </g>
        <g>
          <path class="cls-20" d="m409.09,468.57c-8.61-18.95-7.61-30.99-.22-29.6,7.4,1.38,8.78,20.56,4.66,29.24l-4.44.37Z"/>
          <path class="cls-20" d="m405.56,474.33c-7.12-7.6-11.13.47-9.87,9.11,1.27,8.64,8.8,9.4,11.08.66l-1.22-9.77Z"/>
          <path class="cls-20" d="m418.89,471.75c3.18-12.72,10.54-13.37,13.3-5.69,2.88,8.02,1.43,17.57-4,19.39-6.05,2.03-8.66-6.6-8.66-6.6l-.64-7.1Z"/>
          <path class="cls-20" d="m412.74,486.3c-2.52,15.52,2.19,28.32,8.65,28.06,6.46-.26.96-20.62-4.4-28.5l-4.25.44Z"/>
          <g>
            <path class="cls-34" d="m412.53,487.98c4.94,0,8.94-4.76,8.94-10.64s-4-10.64-8.94-10.64c3.92,1.07,4.09,20.1,0,21.27Z"/>
            <path class="cls-5" d="m403.58,477.34c0,5.88,4.01,10.64,8.95,10.64,4.09-1.17,3.92-20.2,0-21.27-4.94,0-8.95,4.76-8.95,10.64Z"/>
          </g>
        </g>
        <path class="cls-5" d="m1218.88,504.34c59.76-31.44,96.99-66.09,108.81-92.72,2.28-5.15,3.61-9.98,3.97-14.44.07-.84.11-1.67.11-2.49,0-6.77-2.34-14.64-6.96-23.25-10.43-19.43-32.47-42.72-65.46-65.95-12.04-8.48-25.54-16.95-40.47-25.23,35.32,57.24,38.64,174.85,0,224.08Z"/>
        <path class="cls-10" d="m272.05,401.5c1.05,1.03,8.94,7.88,23.04,18.37-12.29-13.85-12.51-44.74,0-62.07-13.8,10.74-21.61,17.95-23.04,19.47-6.95,7.42-6.21,18.08,0,24.22Z"/>
        <path class="cls-5" d="m515.99,341.31c-23.28,16.49-56.38,7.11-56.38,7.11l56.38-7.11Z"/>
        <path class="cls-5" d="m954.3,245.19c33.03,17.48,66.07,8.82,66.07,8.82l-66.07-8.82Z"/>
        <path class="cls-5" d="m1015.53,253.37c16.19,15.8,29.79,4.83,29.79,4.83l-29.79-4.83Z"/>
        <path class="cls-5" d="m1182.23,442.17c-31.12,21.69-56.38,9.15-56.38,9.15l56.38-9.15Z"/>
        <path class="cls-5" d="m578.65,522.64c27.2,27.06,66.31,12.87,66.31,12.87l-66.31-12.87Z"/>
        <path class="cls-5" d="m732.27,584.04c21.95,1.84,44.5,2.83,67.6,2.83,18.74,0,37.5-.49,56.15-1.4,3.75-12.89-27.49-14.65-49.64-1.64,0,0-35.51-22.85-74.11.22Z"/>
        <path class="cls-10" d="m978.22,571.85l.5,1.74c22.51,0,45.83-4.33,70.51-10.01,46.51-10.71,87.48-26.16,87.48-26.16-64.73-2.46-117.74,15.23-143.88,26.16-11.04,4.61-14.61,8.27-14.61,8.27Z"/>
        <path class="cls-7" d="m977.46,577.96h144.83c2.23-3.68,4.18-7.98,6.01-12.87.18-.49.37-.99.55-1.5h-136.01c-6.63,2.77-11.53,5.11-14.45,6.57-1.85.92-2.72,3.08-2.02,5.03.32.88.69,1.84,1.1,2.78Z"/>
        <g>
          <path class="cls-34" d="m308.19,389.07c6.27,9.54,152.28,35.26,177.75,34.46,25.48-.79,52.34-17.7,54.81-30.41.26-1.34-7.49-2.63-20.29-3.79-26.03-2.36-72.99-4.22-116.13-4.9-50.73-.79-100.85-2.53-96.14,4.64Z"/>
          <path class="cls-5" d="m404.33,384.43c9.1,13.13,73.79,42.73,116.13,4.9-26.03-2.36-72.99-4.22-116.13-4.9Z"/>
        </g>
        <path class="cls-14" d="m1259.34,305.49c11.05,54.83,42.54,39.97,42.54,39.97,2.73,31.06,14.98,30.14,22.92,25.98-10.43-19.43-32.47-42.72-65.46-65.95Z"/>
        <path class="cls-5" d="m791.73,192.84c53.09,42.16,63.55,105.13,69.16,104.8,5.23-.3-7.47-65.81-37.61-104.46-9.22-.23-30.27-.35-31.55-.34Z"/>
        <path class="cls-7" d="m1259.34,305.49c-72.96-54.74-178.09-81.5-266.98-97.7-115.03-19.39-233.62-24.72-348.83-3.9-104.48,18.95-206.01,57.07-295.53,114.43-17.82,11.57-35.17,23.96-51.07,38.06,17.56-11.94,35.16-23.66,53.15-34.78,128.01-79.65,277.58-123.47,428.29-126.28,144.39-2.76,360.96,27.47,480.97,110.17Z"/>
        <path class="cls-5" d="m295.09,357.8c-13.82,12.78-13.86,39.75-5.29,55.5,1.38,2.46,3.1,4.77,5.29,6.57-2.11-5.1-4.04-9.99-5.38-15.28-4.6-17.83-1.77-30.31,5.38-46.79Z"/>
        <path class="cls-5" d="m623.84,218.56c.12,0,.23-.01.35-.04.83-.19,1.34-1.02,1.15-1.85-2.79-12.04-7.62-20.08-12.91-21.52-2.08-.57-4.1-.02-5.53,1.49-2.52,2.65-2.91,7.62-1.05,13.27.27.81,1.14,1.25,1.94.98.81-.27,1.25-1.14.98-1.94-1.77-5.38-.91-8.85.36-10.19.66-.69,1.49-.91,2.49-.64,3.08.84,7.74,6.38,10.72,19.25.16.71.8,1.19,1.5,1.19Z"/>
        <path class="cls-14" d="m1240.28,458.37c38.63,6.49,64.79-49.8,87.4-46.75,2.28-5.15,3.61-9.98,3.97-14.44-1.56-.52-3.23-1.02-5.01-1.49-30.82-8.07-32.16,35.72-79.51,13.36,0,28.92-6.86,49.31-6.86,49.31Z"/>
        <path class="cls-5" d="m923.55,326.3c-.85,0-1.54-.69-1.54-1.54,0-.51-.03-51.12-2.57-81.79-.07-.85.56-1.59,1.41-1.66.83-.08,1.59.56,1.66,1.41,2.55,30.8,2.58,81.53,2.58,82.04,0,.85-.69,1.54-1.54,1.54Z"/>
        <path class="cls-7" d="m1218.87,280.26c8.71,17.38,15.37,35.74,19.4,54.78,8,37.9,9,77.51,1.58,115.59-3.78,19.03-9.97,37.52-20.98,53.72.87-.86,1.74-1.73,2.6-2.62,1.47-1.38,3.44-4.1,4.75-5.7l2.06-3.09c.68-.97,1.41-2.16,1.95-3.17,1.85-3.13,3.52-6.68,5-9.97,16.29-39.62,16.94-89.31,10.05-131.19-4.4-23.72-11.46-49.01-26.4-68.34Z"/>
        <g>
          <path class="cls-5" d="m1016.09,460.89c-135.07,10.58-240.31,10.19-395.97-.83-19.13-1.35-34.72-10.84-34.72-30.01v-67.56c0-19.17,15.54-34.72,34.72-34.72h395.97c19.17,0,34.72,15.54,34.72,34.72v67.56c0,19.17-15.6,29.34-34.72,30.84Z"/>
          <rect class="cls-6" x="585.4" y="317.07" width="465.4" height="136.99" rx="33.02" ry="33.02"/>
          <rect class="cls-34" x="596.54" y="327.29" width="443.14" height="116.55" rx="21.86" ry="21.86"/>
          <g>
            <g>
              <path class="cls-1" d="m935.1,426.37c-5.18,1.87-10.7-.56-12.33-5.44-1.63-4.88,1.26-10.36,6.43-12.23,5.17-1.87,10.7.56,12.33,5.44,1.62,4.88-1.26,10.35-6.43,12.23Z"/>
              <path class="cls-38" d="m986.23,341.13h-11.53c-17.66,0-24.51,9.97-24.51,24.86v35.55c0,14.89,6.85,24.86,24.51,24.86h11.53c17.65,0,24.5-9.97,24.5-24.86v-35.55c0-14.89-6.85-24.86-24.5-24.86Zm6.84,60.29c0,7.45-3.24,9.25-8.05,9.25h-9.24c-4.69,0-8.05-1.8-8.05-9.25v-35.43c0-7.21,3.36-9.25,8.05-9.25h9.24c4.81,0,8.05,2.04,8.05,9.25v35.43Z"/>
              <path class="cls-37" d="m855.48,404.3v-2.52c0-1.32.72-2.04,2.04-2.04h13.57c1.32,0,2.04.72,2.04,2.04,0,7.33,3.24,9.61,8.53,9.61h8.41c4.8,0,7.93-1.8,7.93-9.25v-6.97c0-7.45-3.72-9.37-8.53-9.37h-7.45c-5.29,0-7.21,2.76-8.41,5.28h-15.37c-1.44,0-2.04-.72-1.92-2.16l4.32-44.8c.12-1.2.6-1.8,1.8-1.8h45.76c1.56,0,2.16.72,2.16,2.16v11.17c0,1.44-.6,2.16-2.16,2.16h-32.31l-2.04,17.54h.96c1.8-2.76,7.57-5.16,13.81-5.16h3.84c19.46,0,23.18,12.61,23.18,25.34v6.61c0,14.89-6.13,24.86-24.62,24.86h-9.37c-18.74,0-26.18-7.69-26.18-22.7Z"/>
            </g>
            <g>
              <path id="inc" class="cls-3" d="m641.5,350.44c-1.17-4.27-5.81-6.62-10.34-5.24-4.53,1.37-7.26,5.94-6.09,10.2,1.17,4.27,5.81,6.62,10.34,5.25,4.54-1.38,7.26-5.95,6.09-10.21Zm131.19,73.16l-16.12-25.86-4.89-7.83,3.42-3.67,12.43-13.35,2.14-2.3c2.18-2.3.73-4.11-.84-4.11h-12.44c-.97,0-2.06.6-2.78,1.45l-.53.56-11.96,12.64-4.66,4.92v-41.91c0-1.21-.6-1.81-1.81-1.81h-11.96c-1.21,0-1.81.6-1.81,1.81v80.91c0,1.21.6,1.82,1.81,1.82h11.96c1.21,0,1.81-.61,1.81-1.82v-20.04l4.71-4.71,2.8,4.64,11.93,19.75c.97,1.69,2.42,2.18,3.99,2.18h11.35c2.06,0,2.18-1.94,1.45-3.27Zm-84.05-57.6h-.73c-8.94,0-13.53,4.59-15.34,7.61v-5.32c0-1.21-.6-1.81-1.81-1.81h-11.96c-1.2,0-1.81.6-1.81,1.81v56.76c0,1.21.61,1.82,1.81,1.82h11.96c1.21,0,1.81-.61,1.81-1.82v-40.82c1.33-2.17,5.08-4.34,10.27-4.34h1.45c3.5,0,6.52,1.45,6.52,5.55v39.61c0,1.21.6,1.82,1.81,1.82h11.96c1.2,0,1.81-.61,1.81-1.82v-37.8c0-12.32-4.59-21.25-17.75-21.25Zm-49.16.48h-11.95c-1.21,0-1.82.6-1.82,1.81v56.76c0,1.21.61,1.82,1.82,1.82h11.95c1.21,0,1.81-.61,1.81-1.82v-56.76c0-1.21-.6-1.81-1.81-1.81Zm161.99,49.13c-1.17-3.47-4.54-5.56-8.21-5.41-.93.03-1.87.21-2.81.55-4.62,1.68-7.2,6.57-5.74,10.93,1.45,4.36,6.39,6.53,11.01,4.86.19-.07.38-.14.56-.23,4.27-1.84,6.58-6.52,5.19-10.7Z"/>
              <path class="cls-3" d="m788.97,396.68h-2.63c-1.21,0-1.81-.61-1.81-1.82v-50.72c0-1.21.6-1.81,1.81-1.81h12.32c1.21,0,1.81.6,1.81,1.81v1.71c-4.68,1.14-8.34,5.92-8.63,11.87-.23,4.78,1.76,9.11,4.9,11.56-2.34,1.59-4.07,4.29-4.5,7.51-.47,3.51.7,6.84,2.87,9.04-2.19.96-4.18,2.92-5.32,5.51-.8,1.83-1.05,3.68-.82,5.34Z"/>
              <path class="cls-3" d="m802.36,351.48c-2.97-.21-5.6,1.95-6.59,5.1-.23.72-.37,1.49-.41,2.3-.13,2.64.86,5.06,2.47,6.6,1.04,1,2.33,1.64,3.76,1.74,3.65.25,6.78-3.06,6.99-7.4.22-4.35-2.57-8.08-6.22-8.34Zm-.42,21.25c-.82-.15-1.64-.05-2.4.27-1.7.68-3.1,2.39-3.51,4.58-.6,3.18,1.08,6.16,3.74,6.65.77.14,1.53.07,2.25-.2,1.76-.64,3.22-2.39,3.65-4.65.6-3.17-1.07-6.15-3.73-6.65Zm-4.37,17.26c-1.75-.61-3.89.55-4.79,2.6-.9,2.05-.21,4.21,1.53,4.83,1.75.62,3.89-.55,4.79-2.6.9-2.05.21-4.21-1.53-4.83Z"/>
            </g>
          </g>
        </g>
        <g>
          <g>
            <path class="cls-34" d="m510.8,168.1c5.14,0,9.33-2.48,13.18-4.77,5.14-3.05,10-5.93,16.89-3.6.81.27,1.68-.16,1.95-.97.27-.81-.16-1.68-.97-1.95-8.22-2.78-14.19.75-19.45,3.87-5.87,3.48-10.94,6.49-18.9,2.37-.76-.39-1.69-.09-2.08.66-.39.76-.09,1.69.66,2.08,3.21,1.66,6.08,2.3,8.71,2.3Z"/>
            <path class="cls-23" d="m514.36,165.41c1.63.02,2.48,1.94,1.42,3.18-3.5,4.09-11.27,3.62-15.31.97-2.36-1.54-4.24-3.98-4.23-6.92,0-2.03,2.47-3.13,3.99-1.8,4.38,3.82,10.52,4.53,14.14,4.57Z"/>
          </g>
          <g>
            <path class="cls-34" d="m532.64,178.27c6.29,0,14.3-2.27,19.18-12.2.38-.76.06-1.69-.7-2.06-.76-.38-1.69-.06-2.06.7-3.21,6.53-8.27,10.06-15.05,10.48-5.21.32-9.54-1.37-9.59-1.38-.79-.31-1.69.07-2,.86-.31.79.07,1.68.86,2,.09.04,4.14,1.6,9.37,1.6Z"/>
            <path class="cls-23" d="m534.87,175.81c1.53.12,2.17,2,1.05,3.06-2.38,2.25-7.06,3.13-10.57,2.37-2.59-.56-5.87-3.34-6.65-6.31-.52-2,1.71-3.61,3.47-2.54,3.94,2.4,9.49,3.17,12.7,3.42Z"/>
          </g>
          <g>
            <path class="cls-34" d="m549.12,195.78c.21,0,.43-.05.64-.14.37-.17,9.18-4.28,12.2-12.75,1.7-4.76,1.22-9.89-1.41-15.26-.37-.76-1.3-1.08-2.06-.7-.76.37-1.08,1.3-.7,2.06,2.25,4.59,2.68,8.91,1.28,12.85-2.57,7.23-10.51,10.96-10.59,11-.77.36-1.11,1.27-.76,2.04.26.56.82.9,1.4.9Z"/>
            <path class="cls-23" d="m557.18,189.62c.88-.96.67-2.5-.44-3.17-6.46-3.88-16.33,2.42-14.74,8.4.5,1.9,2.44,2.98,4.3,2.41,4.72-1.46,8.82-5.39,10.88-7.64Z"/>
          </g>
          <g>
            <path class="cls-34" d="m609.53,194.72c.2,0,.4-.04.59-.12.79-.33,1.16-1.23.83-2.01-2.79-6.73-9.21-12.87-19.09-18.27-7.25-3.96-13.62-5.97-13.89-6.06-.81-.25-1.68.2-1.93,1.01-.25.81.2,1.68,1.01,1.93.25.08,25.01,7.99,31.05,22.56.25.59.82.95,1.42.95Z"/>
            <path class="cls-23" d="m604.26,184.15c-4.73-2.86-10.69,1.48-4.54,7.8,6.3,6.48,15.6,8.36,11.24.26-2.44-4.54-6.7-8.06-6.7-8.06Z"/>
          </g>
          <g>
            <path class="cls-34" d="m540.86,156.39c.32,0,.65-.1.93-.31.68-.51.81-1.48.29-2.16-5.68-7.47-11.77-7.62-18.83-7.8-4.58-.12-9.76-.25-15.97-2.33-.81-.27-1.68.16-1.95.97-.27.81.16,1.68.97,1.95,6.65,2.23,12.08,2.37,16.87,2.49,6.78.17,11.68.3,16.46,6.59.3.4.76.61,1.23.61Z"/>
            <path class="cls-23" d="m515.46,145.91c1.37.29,1.81,2.05.73,2.95-6.11,5.11-16.18,1.79-18.98-3.49-1.34-2.52.88-5.35,3.45-4.15,5.26,2.44,11.32,3.96,14.8,4.7Z"/>
          </g>
          <g>
            <path class="cls-34" d="m548.68,156.52c.46,0,.92-.21,1.22-.6.52-.67.39-1.64-.28-2.16-11.7-9.01-15.54-34.14-15.58-34.39-.12-.84-.92-1.42-1.75-1.3-.84.12-1.42.91-1.3,1.75.16,1.08,4.05,26.6,16.75,36.38.28.22.61.32.94.32Z"/>
            <g>
              <path class="cls-23" d="m537.11,134.47c-9.86,1.05-14.1-13.88-7.85-19.69,1.66-1.54,3.86-.29,4.51,1.89,2.45,8.2,3.34,17.8,3.34,17.8Z"/>
              <path class="cls-23" d="m537.11,134.47c8.62-8.06,7.37-18.08,4.54-19.14-2.07-.77-3.31,5.6-5.43,14.19l.89,4.94Z"/>
            </g>
          </g>
          <g>
            <ellipse class="cls-14" cx="557.93" cy="162.07" rx="8.35" ry="21.89" transform="translate(195.38 616.06) rotate(-67.59)"/>
            <path class="cls-23" d="m570.92,167.41c.41,0,.66-.01.74-.01.85-.04,1.51-.76,1.47-1.61-.04-.85-.79-1.5-1.61-1.47-.15.01-15.33.55-25.54-10.51-.58-.62-1.55-.66-2.18-.09-.63.58-.66,1.55-.09,2.18,9.99,10.82,23.84,11.51,27.21,11.51Z"/>
            <path class="cls-23" d="m556.41,154.01c-4.3-.75-.8-18.52,3.67-17.52s.64,18.26-3.67,17.52Z"/>
            <path class="cls-23" d="m563.88,156.97c-3.65-2.12,6.41-16.19,10.11-13.79,3.7,2.4-6.46,15.91-10.11,13.79Z"/>
          </g>
        </g>
        <path class="cls-16" d="m811.48,190.12c8.04,7.94,15.88,18.62,22.59,31.29,22.17,41.85,25.06,78.27,29.52,80.52,4.47,2.26,4.57-34.43-11.96-82.77-5.51-16.09-13.28-31.26-22.36-43.91-5.92-8.25-25.43,7.33-17.79,14.87Z"/>
        <g>
          <path class="cls-5" d="m1111.66,323.62c3.01,21.07,20.87,37.51,25.07,38.52,3.82.91,6.66-1.62,10.33-4.91-10.47-17.74-35.4-33.61-35.4-33.61Z"/>
          <path class="cls-7" d="m1180.79,327.79c-.46-3.06-2.13-5.68-4.59-7.19-.1-.06-.21-.12-.31-.18.16-1.26-.1-2.58-.76-3.76-2.52-4.49-6.77-7.71-11.68-8.84-3.62-.83-7.45-.48-11.09,1.02-2.29.94-4.49,2.32-6.58,4.11-1.36-2.58-2.96-4.82-4.79-6.71-2.91-3-6.38-5.03-10.05-5.87-5.29-1.21-10.58.08-14.51,3.55-4.2,3.71-6.19,9.4-5.47,15.62.16,1.37.39,2.73.7,4.08h0c1.05,4.76,2.98,9.43,5.76,13.99.79,1.28,1.64,2.56,2.56,3.82.13.19.28.39.42.58,4.68,6.29,10.37,11.43,14.79,15.21.86.73,1.89,1.24,2.98,1.48,1.09.24,2.21.19,3.25-.14h.03c.86-.27,1.62-.72,2.25-1.3.71.38,1.48.68,2.3.85.02,0,.04.01.06.01,1.69.37,3.45.23,5.11-.36,1.95-.7,3.58-2,4.6-3.67.46-.78.79-1.61.96-2.46.18.05.36.1.54.14,2.73.6,5.67-.04,8.07-1.75.8-.57,1.51-1.24,2.11-1.98.77-.94,1.37-2.01,1.73-3.14.06-.13.1-.27.14-.41.28-.99.38-2,.32-2.99,3.81.16,7.56-2.07,9.68-5.89,1.34-2.41,1.86-5.19,1.47-7.82Zm-40.94,26.22s-.01,0-.02,0c-.27.08-.55.09-.83.04-.1-.02-.2-.04-.3-.08-.21-.07-.4-.18-.57-.33-.47-.4-.94-.81-1.42-1.23-.34-.29-.68-.59-1.03-.91-.35-.31-.7-.62-1.05-.94-.01,0-.01-.01-.02-.01-.34-.32-.69-.63-1.03-.95-.35-.32-.7-.65-1.05-.99-.36-.34-.71-.68-1.06-1.03-1.68-1.65-3.35-3.42-4.95-5.3-.13-.16-.27-.33-.4-.49-.39-.47-.77-.94-1.15-1.42-.51-.65-1-1.31-1.48-1.98-1.34-1.87-2.57-3.84-3.65-5.92-.2-.38-.4-.76-.58-1.15-.55-1.13-1.05-2.29-1.49-3.47h0c-.18-.47-.34-.94-.49-1.41-.08-.22-.15-.43-.21-.65-.11-.36-.22-.71-.32-1.07-.12-.41-.22-.84-.32-1.26-.07-.3-.14-.6-.2-.9-.08-.31-.14-.62-.19-.93-.06-.27-.1-.55-.14-.82-.03-.14-.05-.28-.07-.42-.06-.38-.11-.77-.16-1.16-.11-.93-.14-1.83-.1-2.69.02-.47.06-.92.12-1.37.03-.22.07-.44.11-.66.08-.44.18-.86.3-1.27.06-.2.12-.4.19-.6.06-.2.14-.4.22-.59.07-.19.15-.37.23-.54.05-.12.11-.24.17-.36.06-.14.13-.28.21-.42.09-.17.19-.34.29-.5.14-.24.29-.46.44-.68.14-.19.27-.38.41-.55.14-.18.28-.35.43-.51t0-.01c.13-.15.26-.29.4-.43.13-.14.26-.27.4-.39.14-.14.28-.26.43-.38.3-.25.61-.48.93-.7.16-.1.32-.21.49-.31.52-.31,1.06-.59,1.63-.81.14-.06.28-.11.42-.16.18-.07.36-.13.54-.18.43-.13.87-.24,1.31-.32.13-.02.27-.04.4-.06.2-.03.39-.05.59-.07.02-.01.04-.01.06-.01.11-.02.23-.03.35-.03h.02c.09,0,.19,0,.28,0,.32-.01.65-.01.98,0,.19,0,.38,0,.57.04.55.04,1.1.12,1.66.25,1.74.4,3.5,1.18,5.18,2.4.37.26.74.55,1.1.86.18.16.36.32.54.48.18.15.36.32.53.51.18.16.35.34.52.54.35.37.69.76,1.02,1.18.78.97,1.53,2.07,2.22,3.3.12.2.23.41.34.62.12.21.23.43.34.65.17.33.33.67.49,1.02.48,1.04.92,2.16,1.33,3.35.03.09.07.17.13.25.13.2.33.34.54.41,0,.01.02.01.03.01.02.01.03.01.05.02h.05c.06.01.11.02.17.02.26,0,.52-.1.7-.33.22-.27.45-.54.68-.8.22-.26.44-.51.67-.75.15-.17.31-.33.46-.48.53-.55,1.06-1.05,1.6-1.52.13-.12.26-.23.4-.34.67-.56,1.34-1.06,2.01-1.5.14-.09.27-.18.4-.26.13-.08.26-.16.4-.24.23-.14.46-.27.68-.39.45-.24.89-.45,1.32-.64.14-.05.27-.11.4-.16.26-.11.53-.21.79-.3.27-.09.53-.17.79-.25.26-.07.52-.14.78-.2.26-.05.52-.1.77-.15.04-.01.07-.02.11-.02.22-.03.44-.06.66-.09.25-.02.5-.05.75-.06.44-.03.87-.03,1.29-.01.09-.01.18,0,.27.01.09,0,.18.01.27.02h.03c.23.02.46.04.69.08.24.03.47.07.7.12.14.02.27.05.4.09.12.02.24.05.36.09.15.03.31.08.47.13.21.06.41.12.61.2.27.09.54.2.8.32.2.08.4.18.59.28.33.16.65.34.97.53.15.1.3.2.44.3.03.01.05.02.08.05.19.13.37.26.55.4.15.11.29.22.44.35.33.27.65.56.95.87.09.1.19.2.28.3h.01c.08.08.13.15.19.22.64.71,1.19,1.49,1.66,2.33.04.08.08.17.11.25s.05.16.06.24h0c-3.62.05-7.13,2.22-9.17,5.85-1.36,2.41-1.9,5.2-1.51,7.84.02.16.05.32.08.48-2.06,0-4.15.67-5.94,1.92-1.96,1.38-3.38,3.34-4.01,5.53-.12.42-.21.85-.27,1.27h0c-.02.15-.04.29-.05.43-.66-.14-1.32-.21-1.99-.21-1.07,0-2.13.18-3.16.54-1,.36-1.91.87-2.7,1.5-.77.61-1.42,1.34-1.92,2.16-.24.4-.44.8-.6,1.22-.7,1.76-.71,3.68-.01,5.46.07.19.15.37.24.55-.14.1-.29.18-.47.24Zm12.33-3.79c-.01.17-.05.34-.11.51-.01.07-.04.13-.07.2-.03.08-.06.17-.1.25-.08.16-.18.32-.29.47-.05.09-.11.17-.18.24-.05.07-.11.14-.18.21-.07.07-.14.14-.21.21-.1.09-.21.18-.32.26-.17.13-.34.25-.54.35-.1.06-.21.12-.32.17-.14.07-.3.13-.46.19-.14.05-.28.09-.42.13-.28.08-.57.13-.84.15-.32.03-.63.02-.93-.01-.17-.02-.33-.05-.49-.09-.11-.02-.22-.05-.32-.09-.13-.04-.25-.08-.37-.14-.13-.05-.25-.11-.36-.17.03-.47.01-.95-.06-1.43-.15-.94-.14-1.77,1.51-2.35.69-.25,1.4-.31,2.01-.17h.05s.07.02.11.03c.94.21,1.89.18,2.77-.06.09.27.14.54.14.82,0,.11,0,.21-.02.32Zm10.36-4.11c-.27.19-.56.36-.85.51-.18.09-.36.17-.55.24-.15.06-.29.11-.43.15-.55.18-1.11.26-1.65.26-.18,0-.36,0-.53-.03-.04,0-.08-.01-.11-.01-.12-.02-.23-.03-.34-.06-.6-.12-1.15-.36-1.61-.72-.04-.03-.08-.06-.12-.1-.03-.01-.05-.03-.07-.06-.14-.11-.27-.25-.38-.39-.05-.06-.1-.12-.14-.18.19-.5.31-1.02.36-1.57.03-.32.14-.72.37-1.16.31-.64.87-1.35,1.73-1.96.88-.62,1.88-.98,2.81-1.02,1.03-.04,2-.35,2.83-.9.08.07.17.13.24.21.1.1.19.21.27.32.11.16.21.32.29.48.06.12.12.25.16.38.05.14.09.27.12.41.14.65.11,1.34-.08,2.02-.02.08-.04.17-.08.25-.07.21-.15.42-.25.62-.06.13-.13.25-.2.37-.42.72-1.02,1.4-1.79,1.94Zm12.74-12.98c-.16.29-.34.57-.53.82-.08.13-.18.26-.29.38-.1.12-.2.24-.3.36-.21.23-.43.44-.65.63,0,0-.01-.01-.01,0-.34.3-.69.54-1.06.75-.12.07-.25.13-.38.19-.13.07-.25.12-.38.17-.12.05-.24.09-.36.13-.52.17-1.05.26-1.57.26-.16,0-.32-.01-.48-.03-.16-.01-.33-.04-.49-.08-.2-.05-.38-.1-.57-.17-.25-.09-.49-.21-.72-.35-.13-.08-.26-.17-.38-.26l-.05-.05s-.01-.01-.01-.01c-.06-.04-.12-.09-.17-.14-.01,0-.02-.01-.03-.02-.11-.1-.22-.21-.32-.32-.05-.05-.09-.1-.14-.16-.04-.04-.07-.08-.1-.12v-.02c.07-.63.04-1.29-.1-1.93-.31-1.42.02-3.2.88-4.75,1.22-2.17,2.98-3.1,4.11-3.24.87-.1,1.67-.41,2.37-.88.16.07.3.15.45.24,2.49,1.54,3.07,5.38,1.28,8.6Z"/>
          <g>
            <path class="cls-16" d="m1163.01,325.93c-1.46,2.61-1.88,5.51-1.35,7.97.16.73-.35,1.39-1.08,1.42-1.72.06-3.54.66-5.17,1.8-2.35,1.65-3.75,4.05-3.95,6.36-.06.72-.73,1.21-1.44,1.04-1.44-.35-3.08-.28-4.67.28-3.28,1.16-4.96,3.74-4.39,7.33.13.84-.33,1.63-1.11,1.87,0,0-.02,0-.02,0-.58.18-1.22.04-1.69-.36-9.16-7.83-20.65-18.98-22.46-34.41-1.92-16.4,20.21-22.59,28.1.59.25.74,1.2.96,1.67.38,9.94-12.18,21.44-9.1,25.72-1.47.43.77.02,1.7-.82,1.8-2.77.33-5.59,2.27-7.33,5.38Z"/>
            <g>
              <path class="cls-16" d="m1175.28,333.12c-1.79,3.22-5.28,4.6-7.79,3.06s-3.08-5.4-1.27-8.62c1.8-3.22,5.29-4.57,7.78-3.04,2.49,1.53,3.07,5.38,1.28,8.59Z"/>
              <path class="cls-16" d="m1162.54,346.11c-2.38,1.68-5.42,1.51-6.78-.4s-.54-4.81,1.85-6.48c2.38-1.67,5.41-1.49,6.77.41,1.36,1.9.54,4.79-1.83,6.47Z"/>
              <path class="cls-16" d="m1149.41,353.28c-2.1.75-4.32.03-4.97-1.61s.53-3.57,2.63-4.32,4.31-.02,4.96,1.62c.64,1.64-.53,3.57-2.62,4.31Z"/>
            </g>
          </g>
        </g>
        <g>
          <path class="cls-7" d="m1129.21,404.18c-.32-.85-.69-1.67-1.12-2.5.05-3.51-1.79-6.66-5.16-8.67-.53-.31-1.09-.59-1.67-.84-.22-.24-.44-.49-.67-.74.32-1.36.4-2.77.23-4.17-.48-3.73-2.69-7.25-6.59-10.43-5.07-4.15-9.48-8.62-12.69-11.88-3.2-3.25-4.81-4.85-6.3-5.74-1.8-1.06-3.37-.99-4.36-.74-3.51.88-4.23,4.06-5.22,8.47-1.08,4.79-2.71,12.03-6.86,19.79-2.95,5.53-.75,11.61,5.73,16.25-.03.2-.07.4-.1.6-2.22,2.37-3.41,5.72-3.26,9.32.14,3.14,1.27,5.81,3.08,7.4.14.48.3.94.47,1.38,1.96,5.15,5.61,9.51,10.27,12.29,6.34,3.77,13.88,4.38,20.7,1.67,12.21-4.85,18.28-18.96,13.52-31.46Zm-15.33,26.91c-2.39.95-4.85,1.36-7.26,1.3-.14,0-.26,0-.4,0h-.05c-.32-.02-.64-.04-.96-.08-.04,0-.09,0-.13-.01-.19-.02-.38-.04-.57-.07-.19-.02-.37-.05-.56-.09-.15-.02-.29-.05-.44-.08-.34-.07-.68-.14-1.02-.23-.34-.08-.67-.18-1.01-.28-.34-.11-.68-.23-1.02-.36-.21-.08-.41-.16-.62-.25-.21-.08-.41-.17-.61-.27-.2-.09-.4-.19-.6-.29-.2-.09-.4-.2-.59-.31-.18-.1-.36-.2-.54-.31-.22-.13-.45-.27-.67-.42-.22-.14-.43-.29-.65-.44-.21-.15-.42-.3-.63-.47-.21-.16-.42-.33-.62-.5s-.4-.35-.6-.53c-.09-.08-.18-.17-.27-.25-.24-.22-.46-.46-.69-.7-.23-.24-.45-.48-.66-.73-.31-.37-.62-.75-.91-1.15-.51-.7-.99-1.45-1.4-2.24-.1-.19-.21-.38-.3-.58-.15-.29-.29-.58-.42-.88-.14-.3-.26-.61-.38-.92-.09-.24-.18-.49-.26-.74-.07-.22-.14-.44-.2-.65-.06-.22-.12-.43-.17-.65-.08-.32-.16-.63-.23-.95h-.02c-.14.01-.28,0-.41-.04-.02,0-.05-.01-.07-.02h0c-.05-.03-.1-.04-.15-.07-.08-.03-.16-.08-.24-.15-.07-.05-.13-.1-.19-.16-.06-.06-.11-.12-.16-.18-.07-.08-.14-.17-.2-.27-.13-.19-.24-.4-.34-.64-.06-.11-.1-.23-.15-.36-.04-.12-.08-.25-.12-.38-.03-.09-.06-.18-.07-.27-.03-.11-.06-.22-.08-.34-.02-.09-.04-.18-.05-.27-.02-.11-.04-.23-.05-.34-.03-.2-.05-.4-.06-.6-.01-.19-.02-.38-.02-.57,0-.43.03-.86.09-1.29l.06-.39c.03-.18.07-.36.12-.54.05-.18.1-.37.16-.55.04-.13.09-.25.14-.38.08-.23.18-.45.29-.66.09-.18.19-.35.29-.52.11-.18.23-.35.36-.52.02-.03.04-.05.06-.07.12-.16.27-.32.42-.48.07-.08.14-.15.22-.21.1-.11.21-.21.33-.3.03-.03.07-.06.11-.08,0,0-.01,0,0-.01.05-.04.11-.09.17-.13-.12-.21-.09-.52.18-.63h.01c.04-.23.08-.46.11-.68.04-.21.07-.42.11-.63.2-1.2.39-2.43.57-3.68,0,0-.01,0-.02-.01-.02-.02-.06-.04-.11-.06-.36-.19-1.45-.8-2.67-1.72-.13-.1-.27-.21-.41-.32-.09-.07-.18-.14-.27-.22-.27-.21-.55-.46-.83-.72-.15-.13-.29-.27-.44-.42-.3-.3-.6-.63-.87-.97-.06-.08-.13-.16-.19-.24-.21-.26-.4-.54-.57-.82-.12-.19-.23-.38-.33-.58-.01-.02-.03-.04-.03-.06-.1-.19-.19-.38-.26-.58-.09-.21-.16-.42-.22-.64-.04-.12-.07-.25-.09-.37-.02-.09-.04-.18-.05-.27-.02-.14-.04-.28-.05-.42-.08-.98.11-2.02.68-3.09,7.11-13.32,7.39-25.42,8.94-25.81.03-.01.06-.01.09-.01.05,0,.11.01.17.03.03.01.07.02.11.04.04.01.09.03.14.06.72.36,1.93,1.5,3.57,3.14l.59.59c1.85,1.86,4.18,4.26,6.88,6.85.36.35.72.69,1.09,1.04.98.93,2.02,1.87,3.09,2.82.24.21.47.42.71.62.26.23.51.45.77.67.3.26.6.52.91.77.31.26.62.52.94.78.95.78,1.74,1.54,2.37,2.28.17.18.32.37.45.55.15.18.28.36.4.54.14.2.27.4.39.59.08.14.16.27.23.4.12.21.22.41.31.61.07.15.13.3.19.45.04.08.07.16.09.24.09.24.16.48.22.71.08.31.14.61.18.9.04.29.05.58.05.85,0,.2-.01.4-.03.59,0,.09-.01.18-.03.27,0,.09-.03.18-.04.26-.03.17-.06.34-.11.5-.01.09-.03.17-.06.24-.09.34-.22.66-.35.94-.07.16-.15.32-.23.46-.07.14-.15.28-.23.4.69.81,1.38,1.59,2.05,2.34.49.54.97,1.07,1.44,1.58h.01c.08.03.15.06.23.09h0s.09.03.14.05c.04.01.09.03.13.05.13.05.25.1.38.15.04.01.09.03.13.06.16.07.31.15.47.22.01,0,.02,0,.03.02.16.08.32.18.48.27.29.17.57.36.83.56.09.07.17.14.26.21.09.08.18.16.26.24.03.04.07.07.11.11.2.2.37.42.53.64.56.82.87,1.82.76,3.02-.01.02-.01.03-.01.04-.01.16-.04.32-.07.48h0c.01.06.02.11.01.17,0,.02-.01.03-.01.05h-.01c.17.28.32.56.47.84h0c.13.24.25.47.37.7.13.26.25.53.37.8.12.27.23.55.34.83,3.82,10.03-1,21.3-10.75,25.17Z"/>
          <g>
            <ellipse class="cls-16" cx="1106.97" cy="412.93" rx="18.96" ry="19.47" transform="translate(-31.45 96.88) rotate(-4.94)"/>
            <g>
              <g>
                <path class="cls-27" d="m1115.78,414.62c-.51-3.27,3.26-4.5,5.1-1.91.6.75,1.79.02,1.41-.85-.81-2.1-3.5-3.33-5.65-2.43-2.25.77-3.34,3.55-2.44,5.64.16.43.64.65,1.06.49.39-.14.59-.54.53-.93h0Z"/>
                <path class="cls-27" d="m1112.63,415.67c-1.44-3.76-6.66-3.58-8.3-.09-.56.97-.85,4.27.85,3.89.4-.13.64-.52.58-.92-.13-1.46.58-2.74,1.9-3.28,1.37-.58,2.72-.02,3.52,1.25.59.83,1.87.08,1.45-.84h0Z"/>
              </g>
              <path class="cls-27" d="m1111.98,419.81c1.18,2.85,5.18,3.3,6.32.14.35-1.02.2-3.56-1.3-3.08-.43.18-.63.66-.49,1.09.27.9.09,1.89-.8,2.23-.94.36-1.77-.36-2.28-1.2-.57-.86-1.9-.11-1.45.82h0Z"/>
            </g>
            <path class="cls-16" d="m1123.06,402.7c1.08-4.78-4.41-6.69-7.19-6.91-3.61-.29-7.76-1.93-7.76-1.93-6.82,9.04-18.88,12.06-18.88,12.06-4.9,3.04-3.29,11.28-.82,11.03,2.92-.3,15.35-5.55,22.01-17.89,8.53,3.34,12.63,3.65,12.63,3.65Z"/>
            <path class="cls-9" d="m1092.07,363.22c1.45-.36,8.76,8.97,19.06,17.4,8.66,7.08,3.16,12.62,3.16,12.62l-20.85-21.76-1.37-8.25Z"/>
            <path class="cls-9" d="m1092.07,363.22c-1.55.39-1.83,12.49-8.94,25.81-3.4,6.38,6.73,11.5,6.73,11.5,6.17-9.89,3.21-32.9,3.21-32.9l-1-4.42Z"/>
            <path class="cls-16" d="m1118.43,396.32c-9.93-10.68-24.64-31.06-25.36-28.69-.72,2.37-1.34,24.66-4.43,40.21,22.23-7.35,29.79-11.52,29.79-11.52Z"/>
            <path class="cls-9" d="m1088.73,417.93c-.35-.21-.63-.55-.76-.97-.28-.9.23-1.86,1.13-2.14.12-.04,12.44-3.96,18.54-14.41.38-.65,1.13-.97,1.86-.81.07.02,7.45,1.7,12.44,1.86.95.03,1.69.82,1.66,1.77-.03.95-.82,1.69-1.77,1.66-4.12-.14-9.5-1.18-11.88-1.68-6.95,10.81-19.3,14.72-19.84,14.88-.48.15-.98.07-1.38-.16Z"/>
            <path class="cls-9" d="m1089.4,407.09c-.32-.19-.57-.48-.72-.85-.35-.88.09-1.88.97-2.22.06-.02,6.12-2.5,15.51-11.31.44-.41,1.06-.56,1.64-.4.06.02,5.6,1.58,10.46,2.48.93.17,1.55,1.06,1.38,2-.17.93-1.07,1.55-2,1.38-3.86-.71-8.02-1.8-9.84-2.3-9.54,8.78-15.64,11.24-15.9,11.34-.51.2-1.06.14-1.5-.12Z"/>
            <path class="cls-9" d="m1103.47,391.27c-2.62-4.3-4.85-8.82-6.77-13.47-.63-1.56-1.22-3.12-1.72-4.76-.16-.53.14-1.09.66-1.25.48-.15.99.09,1.2.53l4.35,8.89,4.4,8.89c.66,1.37-1.32,2.46-2.12,1.17h0Z"/>
          </g>
        </g>
        <g>
          <g>
            <ellipse class="cls-15" cx="615.64" cy="499.42" rx="19.15" ry="20.05" transform="translate(28.68 1032.26) rotate(-81.28)"/>
            <ellipse class="cls-26" cx="616.23" cy="495.55" rx="10" ry="10.73" transform="translate(33.01 1029.56) rotate(-81.28)"/>
            <path class="cls-31" d="m618.05,483.71c-6.93-1.07-13.38,3.38-14.38,9.92-1.01,6.53,3.82,12.71,10.74,13.77,6.93,1.06,13.38-3.39,14.38-9.92,1.01-6.53-3.82-12.71-10.74-13.77Zm6.83,13.17c-.67,4.37-5.1,7.34-9.87,6.6-4.77-.73-8.1-4.88-7.43-9.25.67-4.38,5.1-7.34,9.87-6.61,4.77.73,8.1,4.89,7.43,9.26Z"/>
          </g>
          <g>
            <ellipse class="cls-15" cx="660.83" cy="499.42" rx="10.28" ry="11.75" transform="translate(62.72 1072.46) rotate(-80.85)"/>
            <g>
              <path class="cls-31" d="m663.12,498.3c-.46-.56-1.15-.94-1.94-1.06-.01-.01-.02-.01-.02-.01-1.5-.23-2.92.56-3.11,1.74-.19,1.19.92,2.39,2.43,2.63,1.51.21,2.94-.55,3.13-1.73.11-.72-.26-1.3-.49-1.57Z"/>
              <path class="cls-31" d="m667.01,498.93c-.49,2.98-3.52,4.98-6.79,4.48h-.05c-3.29-.54-5.57-3.4-5.08-6.4.48-3,3.54-4.99,6.83-4.47,1.55.25,2.94,1.02,3.89,2.18,1.02,1.23,1.44,2.72,1.2,4.21Z"/>
            </g>
          </g>
          <g>
            <ellipse class="cls-31" cx="666.47" cy="522.78" rx="5.08" ry="5.39" transform="translate(48.73 1102.32) rotate(-81.28)"/>
            <ellipse class="cls-31" cx="648.51" cy="519.61" rx="5.08" ry="5.39" transform="translate(36.62 1081.88) rotate(-81.28)"/>
          </g>
        </g>
        <g>
          <path class="cls-16" d="m1224.2,445.88c-1.89,10.56-4.54,21.37-8.11,32.25-.61,1.82-2.56,2.82-4.38,2.22-.3-.1-.57-.23-.81-.39-1.29-.84-1.91-2.46-1.4-4,3.47-10.53,6.04-21.01,7.86-31.26,5.67-31.47,4.5-60.58,2.02-81.54-3.58-30.19-10.62-50.45-10.69-50.65-.64-1.8.31-3.78,2.11-4.43,1.8-.63,3.78.32,4.43,2.13.3.83,7.33,21.04,11.01,51.94,2.58,21.49,3.77,51.39-2.04,83.73Z"/>
          <path class="cls-34" d="m1211.94,307.88c1.43,0,2.77.9,3.28,2.32.3.83,7.33,21.04,11.01,51.94,2.58,21.49,3.77,51.39-2.04,83.73-1.89,10.56-4.54,21.37-8.11,32.25-.49,1.46-1.85,2.39-3.3,2.39-.36,0-.72-.06-1.08-.17-.3-.1-.57-.23-.81-.39-1.29-.84-1.91-2.46-1.4-4,3.47-10.53,6.04-21.01,7.86-31.26,5.67-31.47,4.5-60.58,2.02-81.54-3.58-30.19-10.62-50.45-10.69-50.65-.64-1.8.31-3.78,2.11-4.43.38-.13.76-.2,1.14-.2m0-3.59h0c-.79,0-1.58.13-2.33.4-1.79.64-3.21,1.92-4.02,3.61-.81,1.7-.92,3.61-.29,5.38h0c.72,2.11,7.13,21.38,10.51,49.9,2.27,19.11,3.76,48.59-1.99,80.48-1.88,10.53-4.48,20.88-7.74,30.78-1.01,3.03.16,6.37,2.85,8.13.46.3.99.56,1.6.77.75.25,1.5.37,2.25.37,3.03,0,5.73-1.94,6.7-4.83,3.47-10.55,6.24-21.56,8.25-32.76,6.06-33.77,4.47-64.75,2.07-84.79-3.8-31.85-11.12-52.52-11.2-52.73-1-2.81-3.68-4.7-6.66-4.7h0Z"/>
          <path class="cls-6" d="m1211.7,480.34c-.3-.09-.56-.23-.81-.39-1.29-.84-1.91-2.46-1.4-3.99,3.48-10.53,6.04-21.02,7.87-31.26h0s6.83,1.18,6.83,1.18h0c-1.89,10.56-4.54,21.38-8.12,32.25-.6,1.82-2.56,2.81-4.38,2.21Z"/>
        </g>
        <g>
          <circle class="cls-34" cx="669.94" cy="300.67" r="3.85"/>
          <circle class="cls-34" cx="683.3" cy="300.67" r="3.85"/>
          <circle class="cls-34" cx="696.66" cy="300.67" r="3.85"/>
          <circle class="cls-34" cx="683.3" cy="277.01" r="3.85"/>
          <circle class="cls-34" cx="696.66" cy="277.01" r="3.85"/>
          <circle class="cls-34" cx="710.02" cy="300.67" r="3.85"/>
          <circle class="cls-34" cx="676.49" cy="288.83" r="3.85"/>
          <circle class="cls-34" cx="689.85" cy="288.83" r="3.85"/>
          <circle class="cls-34" cx="689.85" cy="266.55" r="3.85"/>
          <circle class="cls-34" cx="703.21" cy="288.83" r="3.85"/>
        </g>
        <g>
          <g>
            <ellipse class="cls-14" cx="412.79" cy="356.37" rx="29.34" ry="24.57" transform="translate(-93.79 154.44) rotate(-19.07)"/>
            <path class="cls-5" d="m410.41,374.6c-8.21,0-15.45-4.23-17.87-11.23-3.21-9.28,3.27-19.97,14.43-23.83,11.17-3.86,22.86.55,26.07,9.83,3.21,9.28-3.27,19.97-14.43,23.83-2.75.95-5.52,1.4-8.2,1.4Zm4.8-33.18c-2.33,0-4.76.39-7.17,1.23-9.46,3.27-15.02,12.09-12.41,19.66,2.62,7.57,12.44,11.07,21.9,7.8,9.46-3.27,15.02-12.09,12.41-19.66-1.95-5.64-7.91-9.02-14.73-9.02Z"/>
          </g>
          <rect class="cls-5" x="411.03" y="338.95" width="3.28" height="35.13" transform="translate(-96.61 551.54) rotate(-61.78)"/>
          <path class="cls-5" d="m420.25,359.63l-.27-3.16c-.11-1.29-.86-2.44-2.01-3.05l-7.29-3.88c-1.24-.66-2.75-.59-3.92.2l-2.19,1.47,15.67,8.41Z"/>
        </g>
        <path class="cls-5" d="m1048.38,529.43c-.85,0-1.54-.69-1.54-1.54v-15.44c0-5.53,3.56-10.31,8.86-11.9l6.48-1.94c3.99-1.19,6.67-4.79,6.67-8.95v-31.27c0-.85.69-1.54,1.54-1.54s1.54.69,1.54,1.54v31.27c0,5.53-3.56,10.31-8.86,11.9l-6.48,1.94c-3.99,1.19-6.67,4.79-6.67,8.95v15.44c0,.85-.69,1.54-1.54,1.54Z"/>
        <path class="cls-5" d="m1081.03,524.87c-.06,0-.13,0-.19-.01-.84-.1-1.44-.87-1.34-1.71.04-.35,4.34-35.68,2.17-65.9-.06-.85.58-1.58,1.42-1.64.84-.05,1.58.58,1.64,1.42,2.2,30.53-2.14,66.14-2.18,66.5-.1.78-.76,1.35-1.52,1.35Z"/>
        <path class="cls-5" d="m560.81,451.39c-.81,0-1.49-.63-1.54-1.45-3.04-54.11-.03-113.74,0-114.34.04-.85.76-1.51,1.62-1.46.85.04,1.5.77,1.46,1.62-.03.59-3.03,60.06,0,114.01.05.85-.6,1.57-1.45,1.62-.03,0-.06,0-.09,0Z"/>
        <path class="cls-5" d="m922.36,267.73c-.42,0-.83-.17-1.14-.5-.57-.63-.52-1.6.11-2.17l23.09-20.95c.63-.57,1.6-.52,2.17.11.57.63.52,1.6-.11,2.17l-23.09,20.95c-.29.27-.66.4-1.03.4Z"/>
        <circle class="cls-5" cx="1092.16" cy="512.88" r="2.86"/>
        <circle class="cls-5" cx="1208.49" cy="427.51" r="2.86"/>
        <circle class="cls-5" cx="912.06" cy="250.68" r="2.86"/>
        <circle class="cls-5" cx="569.82" cy="344.23" r="2.86"/>
        <circle class="cls-5" cx="324.41" cy="418.84" r="2.86"/>
        <circle class="cls-5" cx="324.41" cy="361.75" r="2.86"/>
        <circle class="cls-5" cx="1038.41" cy="522.64" r="2.86"/>
        <circle class="cls-5" cx="569.82" cy="440.13" r="2.86"/>
        <circle class="cls-5" cx="1208.49" cy="363.86" r="2.86"/>
        <circle class="cls-5" cx="1076.49" cy="448.54" r="2.86"/>
      </g>
      <g>
        <g>
          <g>
            <path class="cls-16" d="m1600,250.22v75.29c-26.43-17.45-58.98-28.74-94.45-38.36,0,0,0-.01,0-.01-.03,0-.05,0-.08-.02-1.58-.42-3.17-.85-4.76-1.27-64.2-17.05-137.34-29.4-200.86-63.19-16.61-8.84-30.45-19.27-41.93-30.64-5.58-5.51-10.6-11.25-15.1-17.14-.78-1.01-1.53-2.02-2.28-3.03-7.1-9.74-12.85-19.82-17.43-29.91-.42-.9-.82-1.8-1.2-2.7-.04-.08-.07-.16-.1-.23-.76-1.74-1.48-3.48-2.16-5.21-1.36-3.44-2.58-6.86-3.69-10.27-1.04-3.2-1.98-6.39-2.81-9.54-1.02-3.86-1.89-7.67-2.63-11.41-.48-2.49-.91-4.95-1.28-7.37-.01-.08-.02-.16-.03-.23-.15-1-.29-1.98-.42-2.96-1.53-11.44-1.77-21.99-1.12-31,.07-1.09.16-2.16.27-3.2.64-6.47,1.75-12.03,3.17-16.39.77-2.38,1.64-4.4,2.57-6.03,8.19-14.3,25.01-11.93,43.73,1.78.3.22.61.44.91.67.1.07.19.15.26.23h.01c1.08,1.17-.6,2.65-3.18,3.56h-.02c-2.74.94-6.5,1.24-9.1-.19-.18-.1-.35-.2-.53-.29h-.01c-.37-.2-.72-.38-1.08-.56-.05-.03-.1-.05-.15-.08-.61-.3-1.2-.57-1.78-.82-6.21-2.68-10.68-2.32-13.64,1.23-.02.01-.03.03-.04.05-1.52,1.83-2.63,4.52-3.38,8.07-.47,2.21-.85,5.14-1.08,8.66-.06,1.02-.11,2.08-.15,3.19-.27,8.26.32,19.06,2.61,31.09.19,1.01.4,2.03.61,3.06.01.04.02.08.03.12.51,2.43,1.1,4.9,1.76,7.41.98,3.74,2.13,7.55,3.48,11.41,2.08,5.98,4.63,12.07,7.72,18.13,1.12,2.21,2.32,4.43,3.6,6.63.09.17.18.33.28.49.46.79.93,1.58,1.42,2.37,5.98,9.78,13.51,19.32,22.93,28.07,1.01.95,2.05,1.88,3.11,2.8,6.15,5.38,13.07,10.43,20.83,15.01,6.52,3.86,13.64,7.39,21.41,10.51,95.1,38.27,184.48,29.62,254.21,43.6,11.03,2.22,21.57,4.99,31.56,8.62Z"/>
            <path class="cls-24" d="m1499.16,254.74c-.37.6-8.35,13.86,1.54,31.11,1.62.43,3.24.86,4.85,1.3-11.64-16.91-3.84-30.06-3.49-30.62l-2.89-1.79Z"/>
            <path class="cls-9" d="m1600,250.22v20.51c-30.21-6.8-57.73-8-98.57-12.99-1.16-.15-2.33-.29-3.52-.44-11.48-1.44-24.01-3.19-37.93-5.45-72.13-11.7-141.46-29.7-185.94-61.48-5.23-3.73-10.12-7.66-14.63-11.79-1.6-1.47-3.14-2.96-4.62-4.49-.95-.97-1.87-1.95-2.76-2.94-8.26-9.09-14.69-19.09-19.68-29.29-.43-.87-.84-1.75-1.24-2.62-.05-.1-.1-.19-.13-.29-.8-1.71-1.55-3.43-2.27-5.15-1.16-2.78-2.22-5.58-3.19-8.35h0c-1.34-3.87-2.52-7.69-3.53-11.46-1.05-3.88-1.94-7.7-2.69-11.41-.5-2.53-.95-5-1.33-7.42,0-.05-.02-.1-.02-.15-.17-1.02-.32-2.04-.46-3.04-1.89-13.27-2.04-24.4-1.72-31.08.03-.71.07-1.37.11-1.98.03-.41.06-.82.11-1.22.78-7.62,3.8-13.32,8.02-16.69,5.1-4.1,11.96-4.78,18.72-1.31h0c-6.21-2.67-10.68-2.31-13.64,1.24-.02.01-.03.03-.04.05-1.52,1.83-2.63,4.52-3.38,8.07-.47,2.21-.85,5.14-1.08,8.66-.06,1.02-.11,2.08-.15,3.19-.27,8.26.32,19.06,2.61,31.09.19,1.01.4,2.03.61,3.06.01.04.02.08.03.12.51,2.43,1.1,4.9,1.76,7.41.98,3.74,2.13,7.55,3.48,11.41,2.08,5.98,4.63,12.07,7.72,18.13,1.12,2.21,2.32,4.43,3.6,6.63.09.17.18.33.28.49.46.79.93,1.58,1.42,2.37,5.98,9.78,13.51,19.32,22.93,28.07,1.01.95,2.05,1.88,3.11,2.8,6.15,5.38,13.07,10.43,20.83,15.01,6.52,3.86,13.64,7.39,21.41,10.51,95.1,38.27,184.48,29.62,254.21,43.6,11.03,2.22,21.57,4.99,31.56,8.62Z"/>
          </g>
          <path class="cls-17" d="m1600,248.02v12.73c-4.35-.67-9.46-1.84-14.82-3.32-14.27-3.93-24.92-8.5-23.77-12.67.5-1.79,3.09-2.85,7.03-3.16,5.21-.41,12.77.5,20.9,2.74,3.87,1.06,7.48,2.32,10.66,3.68Z"/>
          <ellipse class="cls-17" cx="1502.25" cy="242.08" rx="6.53" ry="20.03" transform="translate(1133.69 1718.4) rotate(-85.14)"/>
          <ellipse class="cls-17" cx="1434.77" cy="234.38" rx="5.44" ry="15.22" transform="translate(1025.4 1629.34) rotate(-82.92)"/>
          <ellipse class="cls-17" cx="1379.14" cy="224.58" rx="4.27" ry="11.93" transform="translate(879.8 1529.62) rotate(-78.31)"/>
          <ellipse class="cls-17" cx="1334.57" cy="211.68" rx="3.42" ry="9.55" transform="translate(708.67 1409.23) rotate(-71.42)"/>
          <ellipse class="cls-17" cx="1297.86" cy="196.41" rx="3.13" ry="8.75" transform="translate(553.47 1277.57) rotate(-64.06)"/>
        </g>
        <g>
          <g>
            <g>
              <path class="cls-5" d="m1417.21,137.75c-1.51,28.58,2.15,30.68-29.29,40.74-33.86,10.83-53.74,13.4-70.73,2.94l100.02-43.68Z"/>
              <path class="cls-5" d="m1420.1,97.08c7.54-26.4,8.78-26.73-12.69-35.99-37.28-16.08-49.95-24.33-83.47-7.61l96.16,43.6Z"/>
              <path class="cls-25" d="m1030.44,118.88c0,10.62,15.99,27.42,45.8,42.35,34.29,17.17,86.87,31.87,154.43,31.87,103.24,0,179.2-46.36,204.78-64.5,5.72-4.05,8.92-6.69,9.34-7.09,2.52-2.38,2.82-6.49,0-9.36-.58-.59-3.75-3.37-9.34-7.51-22.99-17.03-86.82-57.13-179.99-63-7.49-.48-15.18-.73-23.05-.73-1.16,0-3.47.01-3.47.01-67.35.52-118.99,15.97-152.69,33.76-30.02,15.84-45.81,33.53-45.81,44.19Z"/>
              <path class="cls-11" d="m1102.96,78.75c-1.73-17.36,97.5-37.18,103.36-23.28s-101.64,40.64-103.36,23.28Z"/>
              <path class="cls-32" d="m1439.35,108.83c-8.46-5.14-17.61-9.5-26.7-13.42-79.08-32.68-166.92-44.12-251.85-34.36-31.61,3.94-62.92,11.32-92.53,23.32l1.11,2.74c29.35-11.8,60.42-19.02,91.81-22.85,85.54-9.96,176.54,2.02,255.7,36.33,5.42,2.4,10.83,4.85,16.17,7.41,1.8.83,3.58,1.68,5.4,2.48l.89-1.64Z"/>
              <path class="cls-32" d="m1068.75,152.45c22.47,7.23,45.75,13.12,69.09,16.93,3.24.63,8.4,1.29,11.74,1.75,3.51.47,8.32,1.22,11.77,1.53,78.65,8.7,159.07-2.08,233.51-28.56,11.06-3.97,22.34-8.39,33.03-13.25,3.6-1.65,7.13-3.44,10.51-5.59l-.89-1.69c-10.9,4.42-21.56,9.52-32.61,13.61-2.76,1.08-8.27,3.1-11.06,4.09-74.01,26.25-153.97,36.91-232.14,28.19-6.5-.67-13.97-1.83-20.45-2.69l-17.42-3.05c-2.37-.5-6.36-1.38-8.64-1.87-15.41-3.15-30.51-7.56-45.52-12.22l-.92,2.81Z"/>
              <path class="cls-32" d="m1064.12,105.46c116.43-15.32,235.55-13.77,351.34,6.06,7.63,1.27,15.61,2.53,23.29,3.44l.34-1.98c-7.66-1.74-15.39-3.14-23.13-4.45-104.43-17.85-211.76-21.34-317.12-10.23-8.55.95-26.5,3.21-35.11,4.22l.39,2.93Z"/>
              <path class="cls-32" d="m1063.03,131.6c116.92,15.74,236.66,13.6,352.87-6.8,7.75-1.4,15.54-2.48,23.17-4.53l-.29-1.64c-6.62.51-16.63,2.48-23.32,3.58-100.45,17.37-203.72,21.33-305.2,11.65-13.59-1.05-33.2-3.62-46.84-5.19l-.39,2.93Z"/>
              <path class="cls-5" d="m1319.72,115.33c.85,4.19,11.97,10.14,22.77,10.82,10.79.68,75.95-5.02,75.98-8.68s-99.23-4.52-98.75-2.14Z"/>
              <path class="cls-21" d="m1030.44,118.88c0,10.62,15.99,27.42,45.8,42.35-15.68-19-14.33-64.43,0-86.54-30.02,15.84-45.81,33.53-45.81,44.19Z"/>
              <path class="cls-21" d="m1435.45,128.6c5.72-4.05,8.92-6.69,9.34-7.09,2.52-2.38,2.82-6.49,0-9.36-.58-.59-3.75-3.38-9.34-7.51,3.47,6.63,3.47,17.33,0,23.96Z"/>
              <path class="cls-32" d="m1228.94,40.93c34.09,13.66,70.64,49.66,70.64,46.87,0-4.16-22.77-32.16-44.12-46.16-7.49-.48-15.18-.73-23.05-.73-1.16,0-2.32,0-3.47.01Z"/>
            </g>
            <path class="cls-32" d="m1121.38,97.7c29.94,6.95,43.16-2.89,43.16-2.89l-43.16,2.89Z"/>
            <path class="cls-32" d="m1076.25,74.69c-4.14,4.07-6.26,9.67-8.24,15.01-6.29,19.21-5.49,43.19,1.82,62.03.7,1.72,1.61,3.59,2.6,5.16,1.02,1.63,2.24,3.22,3.82,4.34-2.06-3.17-3.15-6.72-4.31-10.26-6.32-21.59-7.29-45.85.59-67.14,1.23-3.04,2.68-6.01,3.72-9.13Z"/>
            <path class="cls-32" d="m1308.24,137.07c-21.86,12.19-42.98,2.82-42.98,2.82l42.98-2.82Z"/>
            <polygon class="cls-32" points="1271.59 95.2 1271.59 139.24 1162.46 139.24 1162.46 94.81 1271.59 95.2"/>
          </g>
          <g>
            <g>
              <path class="cls-33" d="m1255.77,104.14h-77.82c-.86,0-1.56-.7-1.56-1.56s.7-1.56,1.56-1.56h77.82c.86,0,1.56.7,1.56,1.56s-.7,1.56-1.56,1.56Z"/>
              <rect class="cls-6" x="1190.05" y="99.66" width="17.6" height="5.83" rx="1.58" ry="1.58"/>
            </g>
            <g>
              <rect class="cls-33" x="1177.02" y="113.99" width="64.13" height="19.81" rx="3.46" ry="3.46"/>
              <path class="cls-25" d="m1237.69,135.2h-57.2c-2.68,0-4.87-2.18-4.87-4.87v-12.88c0-2.68,2.18-4.87,4.87-4.87h57.2c2.68,0,4.87,2.18,4.87,4.87v12.88c0,2.68-2.18,4.87-4.87,4.87Zm-57.2-19.81c-1.13,0-2.06.92-2.06,2.06v12.88c0,1.13.92,2.06,2.06,2.06h57.2c1.13,0,2.06-.92,2.06-2.06v-12.88c0-1.13-.92-2.06-2.06-2.06h-57.2Z"/>
              <path class="cls-32" d="m1198.19,128.68c-.29,0-.58-.11-.8-.33l-6.02-5.88-5.93,5.88c-.45.44-1.17.44-1.62,0-.44-.45-.44-1.17,0-1.62l6.73-6.67c.44-.44,1.16-.44,1.61,0l6.13,5.99,6.44-4.78c.44-.33,1.06-.3,1.47.09l4.93,4.67,8.14-6.68c.44-.36,1.09-.34,1.51.05l5.81,5.49,7.04-4.33c.54-.33,1.24-.16,1.57.38.33.54.16,1.24-.38,1.57l-7.79,4.79c-.44.27-1.01.21-1.38-.14l-5.71-5.4-8.14,6.68c-.44.37-1.09.34-1.51-.05l-4.96-4.7-6.45,4.79c-.2.15-.44.23-.68.23Z"/>
            </g>
            <g>
              <rect class="cls-33" x="1249.66" y="111.66" width="12.98" height="24.47" rx="3.73" ry="3.73"/>
              <rect class="cls-32" x="1249.66" y="122.73" width="12.98" height="2.5"/>
              <circle class="cls-30" cx="1256.15" cy="117.29" r="2.2"/>
              <path class="cls-30" d="m1257.77,132.68c-.22,0-.44-.07-.62-.21l-3.25-2.43c-.46-.34-.55-1-.21-1.46.34-.46,1-.56,1.46-.21l3.25,2.43c.46.34.55,1,.21,1.46-.2.27-.52.42-.83.42Z"/>
            </g>
          </g>
          <g>
            <path class="cls-32" d="m1095.02,126.03c-.34,0-.67-.11-.96-.33-.68-.53-.8-1.51-.27-2.19l12.35-15.83c.53-.68,1.51-.8,2.19-.27.68.53.8,1.51.27,2.19l-12.35,15.83c-.31.39-.77.6-1.23.6Z"/>
            <path class="cls-32" d="m1103.92,126.03c-.34,0-.67-.11-.96-.33-.68-.53-.8-1.51-.27-2.19l12.35-15.83c.53-.68,1.51-.8,2.19-.27.68.53.8,1.51.27,2.19l-12.35,15.83c-.31.39-.77.6-1.23.6Z"/>
            <path class="cls-32" d="m1112.83,126.03c-.34,0-.67-.11-.96-.33-.68-.53-.8-1.51-.27-2.19l12.35-15.83c.53-.68,1.51-.8,2.19-.27.68.53.8,1.51.27,2.19l-12.35,15.83c-.31.39-.77.6-1.23.6Z"/>
            <path class="cls-32" d="m1121.74,126.03c-.34,0-.67-.11-.96-.33-.68-.53-.8-1.51-.27-2.19l12.35-15.83c.53-.68,1.51-.8,2.19-.27.68.53.8,1.51.27,2.19l-12.35,15.83c-.31.39-.77.6-1.23.6Z"/>
            <path class="cls-32" d="m1130.65,126.03c-.34,0-.67-.11-.96-.33-.68-.53-.8-1.51-.27-2.19l12.35-15.83c.53-.68,1.51-.8,2.19-.27.68.53.8,1.51.27,2.19l-12.35,15.83c-.31.39-.77.6-1.23.6Z"/>
            <path class="cls-32" d="m1139.55,126.03c-.34,0-.67-.11-.96-.33-.68-.53-.8-1.51-.27-2.19l12.35-15.83c.53-.68,1.51-.8,2.19-.27.68.53.8,1.51.27,2.19l-12.35,15.83c-.31.39-.77.6-1.23.6Z"/>
          </g>
        </g>
        <path class="cls-16" d="m1244.51,40.52c3.84,2.1,8.27,5.04,13.27,8.98,20.33,16.06,45.92,44.69,43.09,37.99-4.33-10.24-28.8-39.35-43.46-50.32-5.2-3.89-16.64,1.3-12.9,3.34Z"/>
      </g>
      <g>
        <path class="cls-10" d="m707.06,702.73v97.26h-160.64v-97.26c0-.39,0-.78.02-1.17,0-1.37.06-2.74.16-4.08.35-5.56,1.28-10.96,2.72-16.16.38-1.38.78-2.74,1.24-4.08,1.9-5.7,4.43-11.11,7.5-16.16.84-1.4,1.72-2.76,2.66-4.08,2.75-3.97,5.84-7.66,9.23-11.05,14.54-14.53,34.63-23.52,56.8-23.52,17.18,0,33.1,5.39,46.15,14.58h0c20.66,14.53,34.16,38.55,34.16,65.73Z"/>
        <path class="cls-8" d="m707.06,702.73v97.26h-93.26c-41.83-78.48,87.82-84.94,59.1-162.99,20.66,14.52,34.16,38.54,34.16,65.72Z"/>
        <path class="cls-8" d="m691.08,657v4.08h-133.02c.84-1.4,1.72-2.76,2.66-4.08h130.36Z"/>
        <path class="cls-8" d="m691.08,677.24v4.08h-141.76c.38-1.38.78-2.74,1.24-4.08h140.52Z"/>
        <path class="cls-8" d="m691.08,697.48v4.08h-144.64c0-1.37.06-2.74.16-4.08h144.48Z"/>
        <rect class="cls-8" x="546.42" y="717.73" width="144.66" height="4.08"/>
        <rect class="cls-8" x="546.42" y="737.97" width="144.66" height="4.08"/>
        <rect class="cls-8" x="546.42" y="758.22" width="144.66" height="4.08"/>
        <rect class="cls-8" x="546.42" y="778.46" width="144.66" height="4.08"/>
      </g>
      <g>
        <path class="cls-7" d="m678.16,663.23c0-3.78-100.72-2.93-187.15-2.27-63.38.49-119.53-.07-120.4,2.22.11-5.9,20.53-19.59,32.39-4.43,6.15-20.39,24.2-9.68,27.07.69,22.55-73.59,102.52-60.12,104.57-7.6,13.53-26.6,38.95,2.77,44.7,3.11,5.74.35,18.04-13.47,26.24-13.82,8.2-.35,16.53,13.48,16.53,13.48,36.37-20.04,56.05,4.49,56.05,8.63Z"/>
        <path class="cls-4" d="m678.16,663.23c0,4.15-307.56,5.87-307.56,0,0-.02,0-.04,0-.05.87-2.29,57.02-1.73,120.4-2.22,86.43-.66,187.15-1.5,187.15,2.27Z"/>
        <ellipse class="cls-7" cx="579.57" cy="639.51" rx="5.85" ry="3.93" transform="translate(-159.93 194.53) rotate(-16.78)"/>
      </g>
      <g>
        <polygon class="cls-10" points="1566.93 720.55 1566.93 800 1436.14 800 1436.14 718.42 1510.33 728.13 1566.93 720.55"/>
        <polygon class="cls-8" points="1510.33 728.13 1510.33 800 1566.93 800 1566.93 720.55 1510.33 728.13"/>
        <polygon class="cls-7" points="1436.14 718.42 1493.12 710.65 1566.93 720.55 1510.33 728.13 1436.14 718.42"/>
        <polygon class="cls-8" points="1436.14 735.19 1503.43 744.69 1503.43 757.12 1436.14 746.99 1436.14 735.19"/>
        <polygon class="cls-8" points="1436.14 759.68 1503.43 769.19 1503.43 783.87 1436.14 773.73 1436.14 759.68"/>
        <polygon class="cls-8" points="1503.43 798.24 1503.43 800 1436.14 800 1436.14 788.73 1503.43 798.24"/>
        <path class="cls-10" d="m1566.93,730.76c-41.72,23.4-8.89,69.24-8.89,69.24h8.89s0-69.24,0-69.24Z"/>
      </g>
      <path class="cls-10" d="m253.06,800l-88.68-41.55c-5.01-2.35-10.97-.99-14.46,3.3l-31.19,38.25h134.33Z"/>
      <g>
        <path class="cls-16" d="m1237.51,665.56c-3.54,9.24-7.89,18.87-13.22,28.87-2.8,5.25-5.67,10.52-8.6,15.85-15.56,28.32-32.45,58.02-45.03,89.72h-60.15l.6-1.68c.85-2.34,1.73-4.64,2.62-6.9.44-1.13.89-2.25,1.34-3.36.45-1.12.91-2.22,1.37-3.31,1.06-2.49,2.13-4.94,3.22-7.33.54-1.2,1.09-2.38,1.65-3.55.56-1.18,1.12-2.34,1.68-3.48.56-1.15,1.13-2.29,1.7-3.41.28-.57.57-1.13.86-1.68.58-1.12,1.15-2.22,1.74-3.31,18.96-35.5,41.64-59.05,59.53-78.64h.01c.53-.59,1.04-1.14,1.55-1.71,1.19-1.31,2.36-2.62,3.51-3.92,1.15-1.3,2.27-2.6,3.38-3.89h0c2.85-3.35,5.55-6.65,8.1-9.92,1-1.28,1.98-2.56,2.93-3.82,1.48-1.96,2.9-3.91,4.26-5.85,0,0,.01-.01.01-.02,4.04-5.73,7.62-11.36,10.75-16.9h0c3.88-6.87,7.08-13.58,9.65-20.2,2.06-5.3,3.72-10.54,5-15.74.5-2,.94-4,1.32-5.99.2-1.01.38-2.02.55-3.03.34-2.02.62-4.03.84-6.04.07-.63.14-1.26.2-1.89.12-1.25.22-2.5.3-3.75.04-.63.07-1.26.1-1.88.03-.68.06-1.34.1-1.99.04-.66.07-1.3.1-1.93.04-.63.07-1.25.1-1.86.07-1.22.14-2.39.21-3.52.04-.57.08-1.12.11-1.67.07-1.09.14-2.13.22-3.13,0,0,.01-.03.01-.04,0-.02,0-.03.01-.05,0-.05,0-.1,0-.15,1.49-19.51,3.69-21.86,7.58-4.21,3.97,17.96,8.73,55.75-10.22,105.31Z"/>
        <path class="cls-9" d="m1239.33,615.01c-11,37.51-33.24,75.94-76.26,137.53-10.3,14.75-18.72,31.11-25.57,47.46h-27c.2-.56.4-1.12.61-1.68.85-2.34,1.72-4.64,2.62-6.9.44-1.13.89-2.25,1.34-3.36.45-1.12.91-2.22,1.37-3.31,1.05-2.49,2.12-4.94,3.22-7.33.54-1.2,1.09-2.38,1.65-3.55.56-1.18,1.12-2.34,1.68-3.48.56-1.15,1.13-2.29,1.7-3.41.28-.57.57-1.13.86-1.68.58-1.12,1.15-2.22,1.74-3.31,18.96-35.5,41.64-59.05,59.53-78.64h.01c.53-.59,1.04-1.14,1.55-1.71,1.19-1.31,2.36-2.62,3.51-3.92,1.15-1.3,2.27-2.6,3.38-3.89h0c2.85-3.35,5.55-6.65,8.1-9.92,1-1.28,1.98-2.56,2.93-3.82,1.48-1.96,2.9-3.91,4.26-5.85,0,0,.01-.01.01-.02,4.04-5.73,7.62-11.36,10.75-16.9h0c3.88-6.87,7.08-13.58,9.65-20.2,2.06-5.3,3.72-10.54,5-15.74.5-2,.94-4,1.32-5.99.2-1.01.38-2.02.55-3.03.34-2.02.62-4.03.84-6.04.07-.63.14-1.26.2-1.89.12-1.25.22-2.5.3-3.75.04-.63.08-1.26.11-1.88.03-.68.06-1.34.09-1.99.04-.66.07-1.3.1-1.93.04-.63.07-1.25.1-1.86.07-1.22.14-2.39.21-3.52.04-.57.08-1.12.11-1.67.08-1.09.15-2.13.23-3.13v-.09s.01-.1.02-.15c.98-7.78,10.07,13.4-.82,50.55Z"/>
        <g>
          <path class="cls-17" d="m1231.67,608.88c-1.93,6.81-.68,12.12,2.24,9.55s5.33-11.09,4.33-15.33c-1-4.25-4.65-1.03-6.57,5.78Z"/>
          <path class="cls-17" d="m1214.28,644.78c-4.75,7.67-5.05,14.47-.55,12.23,4.5-2.24,10.44-11.83,10.69-17.26.24-5.44-5.39-2.64-10.14,5.03Z"/>
          <path class="cls-17" d="m1188.25,681.2c-6.57,9.19-7.44,17.63-1.58,15.2,5.86-2.43,14.07-13.92,14.77-20.67.7-6.76-6.63-3.72-13.2,5.47Z"/>
          <path class="cls-17" d="m1154.46,723.81c-7.92,11.61-8.13,22.7-.38,19.96,7.75-2.74,17.66-17.26,17.82-26.13.17-8.87-9.53-5.45-17.45,6.17Z"/>
          <path class="cls-17" d="m1128.9,800h-11.1c-.86-4.47.18-11.71,3.48-19.58,6.36-15.17,16.34-21.29,17.95-11,1.35,8.55-3.93,23.11-10.33,30.58Z"/>
        </g>
      </g>
      <g>
        <path class="cls-16" d="m260.52,56.58h0c-3.05,15.84-9.51,36.84-21.58,58.4-4.53,8.1-9.86,16.29-16.08,24.3h-.01c-4.64,5.98-9.79,11.86-15.49,17.54-7.08,7.07-15.02,13.83-23.89,20.1-9.82,6.94-20.8,13.27-33.05,18.72-10.18,4.55-21.25,8.49-33.27,11.68-15.58,4.13-32.77,7.01-51.71,8.29-13.92.95-28.79,1.03-44.68.13-6.74-.39-13.66-.95-20.76-1.7v-66.31C202.76,210.95,254.49,24.68,261.66,29.27c1.55,1,1.89,11.61-1.14,27.31Z"/>
        <path class="cls-9" d="m260.52,56.59c-3.05,15.83-9.51,36.83-21.58,58.39-4.53,8.1-9.86,16.29-16.08,24.3h-.01c-4.64,5.98-9.79,11.86-15.49,17.54-7.08,7.07-15.02,13.83-23.89,20.1-9.82,6.94-20.8,13.27-33.05,18.72-10.18,4.55-21.25,8.49-33.27,11.68-15.58,4.13-32.77,7.01-51.71,8.29-13.92.95-28.79,1.03-44.68.13-6.74-.39-13.66-.95-20.76-1.7v-31.44c16.05,5.34,37.54,9.44,66.11,10.08,91.57,2.03,166.04-52.71,194.41-136.09Z"/>
        <path class="cls-17" d="m42.57,219.75c15.24.12,27.63-4.2,27.68-9.65.04-5.45-12.37-8.94-27.61-9.07s-27.54,3.17-27.58,8.62c-.04,5.45,12.28,9.97,27.52,10.09Z"/>
        <path class="cls-17" d="m134.66,205.25c10.79-3.63,18.4-9.95,17-14.13s-10.39-3.53-21.18.1c-10.79,3.63-19.3,8.85-17.9,13.03,1.4,4.18,11.29,4.62,22.08,1Z"/>
        <path class="cls-17" d="m197.61,169.66c7.33-6.1,11.49-13.17,9.31-15.8s-8.91.72-16.24,6.82c-7.33,6.1-12.47,12.66-10.29,15.28,2.18,2.62,9.89-.2,17.22-6.3Z"/>
        <path class="cls-17" d="m234.58,129.66c4.52-6.69,6.39-13.34,4.16-14.84-2.23-1.51-6.83,2.86-11.36,9.55-4.52,6.69-7.26,13.18-5.03,14.69,2.23,1.51,7.7-2.7,12.23-9.39Z"/>
      </g>
      <g>
        <path class="cls-7" d="m1548.23,0c-24.72,38.96,11.03,75.76,46.31,70.81-32.7,24.65-21.93,73.35,5.45,88.63V0h-51.76Z"/>
        <path class="cls-7" d="m225.92,0c-26.67,66.66-110.37,62.85-152.1,33.62-.54,60.79-63.67,51-63.67,51C30.82,118.91,0,143.95,0,143.95V0h225.92Z"/>
        <path class="cls-7" d="m0,740.71c18.73-9.04,33.66,11.39,22.66,25.54,48.72-30.65,80.15,8.56,57.76,33.75H0v-59.29Z"/>
      </g>
      <g>
        <path class="cls-16" d="m494.82,782.07c-.89-4.19-2.52-8.98-5.01-13.89-7.34-14.49-26.1-33.19-51.37-38.91-25.69-5.82-47.84,20.06-32.32,70.73h-37.25c-7.72-38.65.3-72.73,18.88-92.65,4.06-4.36,8.64-8.05,13.66-10.95,2.92-1.69,5.84-3.06,8.76-4.14,39.16-14.56,76.68,23.27,86.59,49.87,10.65,28.58,1.59,56.51-1.94,39.94Z"/>
        <path class="cls-9" d="m494.82,782.07c-1.42-4.79-3.11-9.43-5.01-13.89-23.89-55.99-76.44-83.28-106.46-35.64-10.94,17.38-14.98,47.08-13.47,67.46h-1.01c-7.72-38.65.3-72.73,18.88-92.65,4.06-4.36,8.64-8.05,13.66-10.95,2.92-1.69,5.84-3.06,8.76-4.14,39.16-14.56,76.68,23.27,86.59,49.87,10.65,28.58,1.59,56.51-1.94,39.94Z"/>
        <path class="cls-17" d="m497.71,754.98c1.2,5.07-1.75,9.11-5.31,7.28-3.56-1.83-5.06-8.16-2.7-11.4,2.36-3.23,6.81-.94,8.01,4.12Z"/>
        <path class="cls-17" d="m479.78,720.2c4.89,5.49,3.94,12.5-1.71,12.61-5.65.11-11.77-6.75-11.01-12.36s7.83-5.74,12.72-.25Z"/>
        <path class="cls-17" d="m446.07,694.49c8.87,3.25,12.67,10.06,6.83,12.25s-16.93-1.87-19.96-7.31c-3.04-5.45,4.26-8.19,13.13-4.94Z"/>
        <path class="cls-17" d="m397.64,696.57c9.7-6.01,18.28-5.7,15.44.55-2.84,6.25-14.97,13.76-21.83,13.52-6.86-.25-3.31-8.06,6.39-14.07Z"/>
      </g>
      <g>
        <path class="cls-16" d="m145.61,358.93c-31.01,3.98-42.95-17.85-32.86-38.53,9.69-19.85,25.44-32.39,39.1-33.41,11.42-.85,8.59,12.67,3.55,20.43-5.03,7.76-13.26,14.1-5.76-5.25-9.47,8.55-13.87,15.65-14.82,20.81-.03.18-.06.36-.09.54-.11.78-.13,1.52-.09,2.2.02.22.04.42.07.63.03.23.07.46.12.68,0,.04.01.08.03.11.04.2.1.39.16.57,0,.04.01.07.04.11.06.19.14.38.22.56.27.61.64,1.15,1.08,1.63.12.13.24.25.37.36.04.05.07.08.11.11.16.14.33.27.5.39.18.13.37.26.57.37.19.12.4.23.61.33,0,0,0,0,.01,0,.18.09.36.16.55.24.1.04.2.07.3.1.14.05.28.1.42.14.06.02.13.04.19.05.19.05.38.1.58.14.36.07.73.13,1.11.17.17.02.35.03.52.04,2.03.13,4.35-.2,6.85-1.02.22-.07.45-.15.68-.24.13-.04.25-.09.38-.14,1.5-.59,3.08-1.39,4.67-2.37.29-.17.57-.36.86-.54,2.45-1.6,4.93-3.6,7.26-5.86.22-.21.44-.42.65-.64.31-.31.62-.62.92-.94t.02-.02c.34-.36.69-.73,1.03-1.11.01-.01.01-.02.01-.02.34-.37.67-.75.99-1.13.02-.01.03-.03.04-.05.34-.4.68-.8,1-1.21.29-.36.58-.73.86-1.1.16-.2.31-.4.45-.6.19-.26.38-.52.57-.79.24-.35.48-.7.72-1.05.62-.93,1.2-1.86,1.73-2.81,1.18-2.1,2.14-4.24,2.78-6.35.06-.19.11-.37.16-.55.32-1.1.55-2.2.67-3.27.03-.21.06-.43.07-.64.03-.25.04-.49.05-.74s.02-.5.02-.74c0-3.41-1.09-6.57-3.64-9.18-1.93-1.98-4.02-3.5-6.27-4.62-7.74-3.83-17.34-2.79-28.85,1.62-1.29.49-2.59,1.02-3.94,1.6-6.95,3-14.56,7.08-22.81,11.97-4.68,2.76-9.56,5.78-14.65,9-9.81,6.19-19.57,13.46-29.92,22.8-14.69,13.28-30.58,30.78-49.49,55.52-3.05,3.97-6.16,8.14-9.38,12.51-2.19,2.98-4.42,6.05-6.69,9.23v-75.46c.11-.12.22-.23.33-.35.72-.78,1.45-1.54,2.17-2.31.8-.85,1.61-1.7,2.43-2.54.57-.6,1.14-1.2,1.72-1.79.56-.59,1.14-1.18,1.71-1.76.56-.58,1.12-1.16,1.69-1.73.56-.57,1.13-1.14,1.69-1.71,1.6-1.61,3.2-3.2,4.82-4.78.82-.8,1.64-1.6,2.46-2.39,7.43-7.16,14.97-13.96,22.67-20.35h0c7.34-6.09,14.81-11.79,22.45-17.03h.01c6.05-4.16,12.2-8.02,18.47-11.56h.01c7.61-4.32,15.39-8.15,23.33-11.44,4-1.66,8.03-3.18,12.12-4.56,3.43-1.16,6.85-2.11,10.23-2.85,8.28-1.83,16.35-2.45,23.93-1.89,6.17.44,12.01,1.67,17.36,3.64,6.9,2.54,12.99,6.32,17.93,11.29,5.52,5.54,9.61,12.57,11.8,20.99,0,.01.01.02.01.02.71,2.73,1.22,5.62,1.52,8.66,3.04,31.03-24.26,65.89-55.26,69.86Z"/>
        <path class="cls-9" d="m149.64,302.16c-24.1,21.78-15.37,34.12-.59,29.27,14.09-4.62,35.1-29.68,22.95-42.09,25.03,17.81-12.53,64.24-35.87,56.3-14.67-4.99-12.59-24.99,13.51-43.48Z"/>
        <path class="cls-9" d="m199.34,280.39c-6.37-14.35-39.32-41.43-94.89-10.85-21.15,11.64-42.67,29.69-62.96,50.27C26.82,334.69,12.8,350.88,0,366.91v-33.4c.11-.12.22-.23.33-.35.72-.78,1.45-1.54,2.17-2.31.8-.85,1.61-1.7,2.43-2.54.57-.6,1.14-1.2,1.72-1.79.56-.59,1.14-1.18,1.71-1.76.56-.58,1.12-1.16,1.69-1.73.56-.57,1.13-1.14,1.69-1.71,1.6-1.61,3.2-3.2,4.82-4.78.82-.8,1.64-1.6,2.46-2.39,7.43-7.16,14.97-13.96,22.67-20.35h0c7.34-6.09,14.81-11.79,22.45-17.03h.01c6.05-4.16,12.2-8.02,18.47-11.56h.01c7.61-4.32,15.39-8.15,23.33-11.44,4-1.66,8.03-3.18,12.12-4.56,3.43-1.16,6.85-2.11,10.23-2.85,8.28-1.83,16.35-2.45,23.93-1.89,6.17.44,12.01,1.67,17.36,3.64,6.9,2.54,12.99,6.32,17.93,11.29,5.52,5.54,9.61,12.57,11.8,20.99Z"/>
        <path class="cls-17" d="m50.49,282.79c9.43-7.62,18.31-8.17,15.99-.99-2.33,7.18-14.12,16.72-21.22,17.16-7.11.44-4.2-8.54,5.24-16.17Z"/>
        <path class="cls-17" d="m23.45,319.57c-.72,3.02-2.73,6.58-5.4,10.04-4.99,6.46-12.33,12.62-18.05,14.48v-15.96c1.1-1.36,2.33-2.74,3.7-4.12.69-.69,1.38-1.35,2.06-1.97,5.02-4.59,9.87-7.31,13.26-7.89,3.51-.6,5.46,1.1,4.43,5.42Z"/>
        <path class="cls-17" d="m94.02,256.81c10.81-4.96,19.08-3.66,14.88,2.33-4.2,5.99-17.72,12.19-24.33,11.15-6.61-1.04-1.36-8.53,9.45-13.49Z"/>
        <path class="cls-17" d="m140.44,242.5c10.16-.77,16.36,2.93,11.17,6.66-5.19,3.73-17.88,4.68-22.85,1.72-4.97-2.96,1.52-7.62,11.68-8.38Z"/>
        <path class="cls-17" d="m180.5,250.36c7.24,3.97,10.06,9.35,5.09,9.68-4.98.33-14.02-4.63-16.28-8.93-2.26-4.3,3.96-4.71,11.2-.74Z"/>
        <path class="cls-17" d="m167.18,315.5c4.06-5.68,9-7.51,8.9-3.29s-5.18,11.31-9.13,12.78-3.82-3.8.24-9.48Z"/>
        <path class="cls-17" d="m149.98,332c5.22-2.45,9.51-1.05,7.73,2.53s-8.31,6.64-11.74,5.52c-3.43-1.12-1.2-5.59,4.01-8.04Z"/>
        <path class="cls-17" d="m136.58,328.8c1.82,3.59.91,7.1-1.63,6.32s-4.82-5.26-4.09-8.07c.73-2.81,3.9-1.83,5.72,1.75Z"/>
      </g>
      <g>
        <path class="cls-7" d="m702.96,120.46c-6.28.21-12.27.51-22.95-1.46-4.06-.75-8.47-2.44-11.83-3.91-3.25-1.43-5.52-2.65-5.52-2.65-7.47,6.09-15,1.76-18.84-1.38-1.06-.87-.51-2.58.86-2.66,8.69-.5,30.96-1.77,34.42-2l1.16-.08c1.27-.09,2.54-.17,3.79-.25,2.19-.14,4.35-.28,6.42-.4h.11c7.94-.46,14.69-.75,17.39-.65,8.9.33,12.16,14.85-5.02,15.46Z"/>
        <path class="cls-18" d="m713.85,110.14c-4.84-1.59-6.47,6.39-2.4,7.34,4.07.95,21.47,5.65,21.91,2.53.3-2.17-13.45-7.88-19.51-9.87Z"/>
        <circle class="cls-23" cx="704.59" cy="110.64" r="2.61"/>
        <path class="cls-7" d="m725.06,78.18c-5.91,12.77-16.67,25.08-29.29,29.36l-7.6-1.16s4.92-7.08,7.13-28.54c.16-1.53.3-3.14.43-4.82,1.34-17.77,34.03-19.7,34.16-14.82.15,5.99-1.62,13.06-4.83,19.99Z"/>
        <path class="cls-13" d="m686.34,106.37l-14.25,1.74c-16.8-4.78-32.2-12.11-37.45-25.46-3.7-9.39-.5-20.49,15.3-32.75,2.6-2.02,6.41-.93,7.52,2.17,1.53,4.29,3.93,10.56,7.2,17.91,5.16,11.6,12.14,23.02,21.68,36.38Z"/>
        <path class="cls-28" d="m664.65,69.99c-9.88,9.13-20.89,12.14-30.02,12.67-3.7-9.39-.5-20.49,15.3-32.75,2.6-2.02,6.41-.93,7.52,2.17,1.53,4.29,3.93,10.56,7.2,17.91Z"/>
        <path class="cls-28" d="m725.06,78.18c-8.35,1.38-29.46-3.49-29.33-5.17,1.34-17.77,34.03-19.7,34.16-14.82.15,5.99-1.62,13.06-4.83,19.99Z"/>
        <path class="cls-13" d="m686.34,106.37c-10.31,2.05-15.54,5.74-18.15,8.71-3.25-1.43-5.52-2.65-5.52-2.65-7.47,6.09-15,1.76-18.84-1.38-1.06-.87-.51-2.58.86-2.66,8.69-.5,30.96-1.77,34.42-2l1.16-.08c1.27-.09,2.54-.17,3.79-.25l2.28.32Z"/>
      </g>
      <g>
        <path class="cls-13" d="m847.97,38.77c.59,14.13-3.63,24.94-9.32,32.8-7.78,10.75-18.35,15.95-23.19,16.51-3.51.4-1.1-7.17,2.9-16.11,5.56-12.45,14.19-27.56,14.19-27.56l15.43-5.64Z"/>
        <path class="cls-28" d="m838.65,71.57c-7.78,10.75-18.35,15.95-23.19,16.51-3.51.4-1.1-7.17,2.9-16.11l20.29-.4Z"/>
        <path class="cls-7" d="m844.59,39.24c-4.73,16.89-11.78,28.37-19.3,36.01-16.31,16.6-34.84,15.1-36.73,11.52-1.39-2.61,5.39-5.59,12.94-11.92,7.58-6.35,15.94-16.08,17.63-32.19l25.46-3.42Z"/>
        <path class="cls-7" d="m796.38,45.69s51.21-9.77,63.95-9.82c6.68-.03,7.67,11.91-8.88,14.13-16.55,2.22-43.63-2.36-43.63-2.36-15.46,9.41-11.45-1.95-11.45-1.95Z"/>
        <path class="cls-18" d="m864.13,40.18s15.28.74,15.43,2.75c.14,2.01-12.08,2.38-16.41,2.2-4.33-.18.98-4.95.98-4.95Z"/>
        <circle class="cls-23" cx="856.15" cy="40.43" r="2.38"/>
        <path class="cls-28" d="m825.3,75.25c-16.31,16.6-34.84,15.1-36.73,11.52-1.39-2.61,5.39-5.59,12.94-11.92,7.99.93,16.94.78,23.79.4Z"/>
      </g>
      <g>
        <path class="cls-7" d="m313.75,196.07l-20.94,4.61c-2.55-14.36-14.81-21.45-24.64-26.29-10.21-5.04-17.8-7.65-9.11-13.47,3.98-2.67,20.52-4.65,34.4.86,11.77,4.68,21.62,14.73,20.3,34.3Z"/>
        <path class="cls-13" d="m338.65,160.31c-8.21,9.4-18.12,21.47-16.53,32.95l-23.93,5.21c-3.71-16.93,2.08-30.27,11.11-39.59,11.2-11.56,27.4-16.94,36.67-15.33,6.89,1.19.56,7.75-7.33,16.77Z"/>
        <path class="cls-28" d="m338.65,160.31c-8.68,1.82-19.26,2.39-29.34-1.44,11.2-11.56,27.4-16.94,36.67-15.33,6.89,1.19.56,7.75-7.33,16.77Z"/>
        <path class="cls-28" d="m293.45,161.77c-10.82,1.75-19.55,7.59-25.29,12.61-10.21-5.04-17.8-7.65-9.11-13.47,3.98-2.67,20.52-4.65,34.4.86Z"/>
        <path class="cls-7" d="m273.94,204.16c-.69-.62-.41-1.77.5-1.98,9.57-2.22,51.83-11.88,58.9-10.63,6.3,1.11,8.02,10.94-7.66,14.02-15.69,3.08-35.04-3.27-35.04-3.27-8.08,7.63-14.1,4.19-16.7,1.86Z"/>
        <path class="cls-18" d="m335.66,197.83c.43-.32.96-.44,1.48-.33,3.08.66,14.09,3.16,13.95,4.87-.16,1.99-12.23.51-16.46-.33-3.3-.65-.41-3.15,1.02-4.22Z"/>
        <circle class="cls-23" cx="330.01" cy="196.11" r="2.6"/>
      </g>
    </g>
  </g>
</svg>