<?xml version="1.0" encoding="utf-8"?>
<!-- Generator: Adobe Illustrator 27.1.1, SVG Export Plug-In . SVG Version: 6.00 Build 0)  -->
<svg version="1.1" id="Layer_1" xmlns="http://www.w3.org/2000/svg" xmlns:xlink="http://www.w3.org/1999/xlink" x="0px" y="0px"
	 viewBox="0 0 1600 500" style="enable-background:new 0 0 1600 500;" xml:space="preserve">
<style type="text/css">
	.st0{fill-rule:evenodd;clip-rule:evenodd;fill:#D7B6FA;}
	.st1{fill-rule:evenodd;clip-rule:evenodd;fill:#BA81F9;}
	.st2{fill:#BA81F9;}
	.st3{fill:#EAD9FC;}
	.st4{fill-rule:evenodd;clip-rule:evenodd;fill:#FFFFFF;}
</style>
<g>
	<g>
		<g>
			<g>
				<g>
					<path class="st0" d="M1600,24.84v428.52c0,8.31-4.08,15.66-10.34,20.17c-2.4,1.73-5.84,0.86-6.95-1.88
						c-3.92-9.72-16.41-16.83-31.21-16.83c-9.47,0-17.99,2.91-23.93,7.55c-1.91,1.49-4.64,1.25-6.24-0.56
						c-7.66-8.68-21.22-14.45-36.68-14.45c-13.95,0-26.37,4.71-34.28,12.01c-1.84,1.7-4.72,1.55-6.42-0.29
						c-9.32-10.07-25.83-16.76-44.62-16.76c-27.05,0-49.35,13.85-52.36,31.7c-0.4,2.39-2.49,4.14-4.91,4.14L24.83,478.2
						C11.12,478.2,0,467.08,0,453.36V24.84C0,11.12,11.12,0,24.83,0h1550.34C1588.88,0,1600,11.12,1600,24.84z"/>
				</g>
			</g>
			<g>
				<g>
					<ellipse class="st1" cx="1399.46" cy="479.16" rx="33.87" ry="20.84"/>
				</g>
				<g>
					<ellipse class="st1" cx="1483.78" cy="478.69" rx="27.94" ry="17.19"/>
				</g>
				<g>
					<ellipse class="st1" cx="1552.37" cy="479.04" rx="18.65" ry="11.48"/>
				</g>
			</g>
		</g>
	</g>
	<g>
		<path class="st2" d="M1600,395.54v57.82c0,8.31-4.08,15.66-10.35,20.17c-2.4,1.72-5.84,0.86-6.94-1.88
			c-3.93-9.72-16.41-16.83-31.21-16.83c-9.47,0-17.99,2.91-23.93,7.55c-1.91,1.49-4.64,1.25-6.24-0.56
			c-7.66-8.68-21.22-14.45-36.68-14.45c-13.95,0-26.37,4.7-34.29,12c-1.84,1.7-4.71,1.55-6.42-0.29
			c-9.32-10.07-25.83-16.76-44.62-16.76c-27.06,0-49.35,13.85-52.37,31.7c-0.4,2.39-2.48,4.14-4.91,4.14L24.83,478.2
			C11.12,478.2,0,467.08,0,453.36V306.43c0,0,282.67,88.97,465.45,88.88C754.97,395.15,1180.6,268.71,1600,395.54z"/>
	</g>
	<g>
		<path class="st3" d="M0,21.33l0,58.55c526.76-48.85,864.32,138.05,1600-3.86v-54.7C1600,9.55,1588.88,0,1575.17,0L24.83,0
			C11.12,0,0,9.55,0,21.33z"/>
	</g>
	<g>
		<g>
			<path class="st4" d="M1098.75,321.88H501.25c-15.9,0-28.79-12.89-28.79-28.79V181.91c0-15.9,12.89-28.79,28.79-28.79h597.49
				c15.9,0,28.79,12.89,28.79,28.79v111.17C1127.54,308.99,1114.65,321.88,1098.75,321.88z"/>
		</g>
		<g>
			<path d="M561.52,265.4v-37.23h-20.08v-5.95h27.37v43.18H561.52z M564.37,213.15c-1.66,0-3.05-0.52-4.18-1.55
				c-1.13-1.04-1.69-2.41-1.69-4.13c0-1.72,0.56-3.09,1.69-4.13c1.12-1.04,2.52-1.55,4.18-1.55c1.66,0,3.05,0.52,4.18,1.55
				c1.12,1.04,1.69,2.41,1.69,4.13c0,1.72-0.56,3.1-1.69,4.13C567.42,212.64,566.02,213.15,564.37,213.15z"/>
			<path d="M595.02,265.4v-43.18h6.04l0.62,7.37h0.36c2.25-2.43,4.68-4.44,7.29-6.04c2.61-1.6,5.6-2.4,8.97-2.4
				c5.09,0,8.85,1.48,11.28,4.44c2.43,2.96,3.64,7.29,3.64,12.97v26.83h-7.29v-25.86c0-4.09-0.77-7.12-2.31-9.11
				c-1.54-1.98-4.09-2.98-7.64-2.98c-2.55,0-4.83,0.65-6.84,1.95c-2.01,1.3-4.29,3.26-6.84,5.87v30.12H595.02z"/>
			<path d="M649.48,265.4v-63.26h7.29v42.83h0.36l23.28-22.75h8.35l-17.24,16.97l19.55,26.21h-8.18l-15.9-21.77l-10.22,10.04v11.73
				H649.48z"/>
			<path d="M720.03,266.47c-1.78,0-3.3-0.62-4.58-1.87s-1.91-2.93-1.91-5.06c0-2.07,0.64-3.72,1.91-4.93
				c1.27-1.21,2.8-1.82,4.58-1.82s3.3,0.61,4.58,1.82c1.27,1.21,1.91,2.86,1.91,4.93c0,2.13-0.64,3.82-1.91,5.06
				C723.33,265.84,721.81,266.47,720.03,266.47z M717.55,244.79l-0.89-30.57l-0.18-8.35h7.11l-0.18,8.35l-0.89,30.57H717.55z"/>
			<path d="M839.19,278.91c-5.57,0-9.7-0.83-12.4-2.49c-2.7-1.66-4.04-4.77-4.04-9.33c0-3.26,0.13-6.19,0.4-8.8
				c0.27-2.61,0.4-5.39,0.4-8.35c0-1.18-0.34-2.29-1.02-3.33c-0.68-1.04-1.96-1.89-3.82-2.58c-1.87-0.68-4.55-1.02-8.04-1.02v-4.62
				c3.5-0.06,6.18-0.41,8.04-1.07c1.87-0.65,3.14-1.51,3.82-2.58c0.68-1.07,1.02-2.16,1.02-3.29c0-2.78-0.13-5.57-0.4-8.35
				c-0.27-2.78-0.4-5.72-0.4-8.8c0-4.56,1.35-7.67,4.04-9.33c2.7-1.66,6.83-2.49,12.4-2.49h5.42v4.18h-4.62
				c-3.02,0-5.33,0.27-6.93,0.8s-2.68,1.39-3.24,2.58c-0.56,1.19-0.84,2.75-0.84,4.71c0,2.55,0.09,5.17,0.27,7.86
				c0.18,2.7,0.27,5.44,0.27,8.22c0,2.9-0.58,5.11-1.73,6.62c-1.16,1.51-3.27,2.53-6.35,3.07v0.36c3.08,0.53,5.2,1.55,6.35,3.07
				c1.15,1.51,1.73,3.72,1.73,6.62c0,3.02-0.09,5.78-0.27,8.26c-0.18,2.49-0.27,5.09-0.27,7.82c0,1.89,0.28,3.45,0.84,4.66
				c0.56,1.21,1.64,2.09,3.24,2.62s3.91,0.8,6.93,0.8h4.62v4.18H839.19z"/>
			<path d="M915.69,266.47c-1.72,0-3.19-0.62-4.4-1.87c-1.21-1.24-1.82-2.84-1.82-4.8c0-2.01,0.61-3.63,1.82-4.84
				c1.21-1.21,2.68-1.82,4.4-1.82c1.72,0,3.17,0.61,4.35,1.82c1.19,1.21,1.78,2.83,1.78,4.84c0,1.95-0.59,3.55-1.78,4.8
				S917.4,266.47,915.69,266.47z M933.28,266.47c-1.72,0-3.19-0.62-4.4-1.87c-1.21-1.24-1.82-2.84-1.82-4.8
				c0-2.01,0.61-3.63,1.82-4.84c1.21-1.21,2.68-1.82,4.4-1.82c1.72,0,3.18,0.61,4.4,1.82c1.21,1.21,1.82,2.83,1.82,4.84
				c0,1.95-0.61,3.55-1.82,4.8C936.46,265.84,935,266.47,933.28,266.47z M950.87,266.47c-1.66,0-3.1-0.62-4.31-1.87
				c-1.21-1.24-1.82-2.84-1.82-4.8c0-2.01,0.61-3.63,1.82-4.84c1.21-1.21,2.65-1.82,4.31-1.82c1.72,0,3.18,0.61,4.4,1.82
				c1.21,1.21,1.82,2.83,1.82,4.84c0,1.95-0.61,3.55-1.82,4.8C954.06,265.84,952.59,266.47,950.87,266.47z"/>
			<path d="M1022.04,278.91v-4.18h4.53c3.02,0,5.33-0.27,6.93-0.8s2.7-1.41,3.29-2.62c0.59-1.21,0.89-2.77,0.89-4.66
				c0-2.72-0.09-5.33-0.27-7.82c-0.18-2.49-0.27-5.24-0.27-8.26c0-2.9,0.56-5.11,1.69-6.62c1.12-1.51,3.23-2.53,6.31-3.07v-0.36
				c-3.08-0.53-5.18-1.56-6.31-3.07c-1.13-1.51-1.69-3.72-1.69-6.62c0-2.78,0.09-5.52,0.27-8.22c0.18-2.69,0.27-5.32,0.27-7.86
				c0-1.96-0.3-3.52-0.89-4.71c-0.59-1.18-1.69-2.04-3.29-2.58s-3.91-0.8-6.93-0.8h-4.53v-4.18h5.42c5.57,0,9.68,0.83,12.35,2.49
				c2.67,1.66,4,4.77,4,9.33c0,3.08-0.13,6.01-0.4,8.8c-0.27,2.79-0.4,5.57-0.4,8.35c0,1.13,0.34,2.22,1.02,3.29
				c0.68,1.07,1.96,1.92,3.82,2.58c1.87,0.65,4.55,1.01,8.04,1.07v4.62c-3.49,0-6.17,0.34-8.04,1.02c-1.87,0.68-3.14,1.54-3.82,2.58
				c-0.68,1.04-1.02,2.15-1.02,3.33c0,2.96,0.13,5.75,0.4,8.35c0.27,2.61,0.4,5.54,0.4,8.8c0,4.56-1.33,7.67-4,9.33
				c-2.67,1.66-6.78,2.49-12.35,2.49H1022.04z"/>
		</g>
	</g>
	<g>
		<g>
			<ellipse class="st1" cx="1399.46" cy="479.16" rx="33.87" ry="20.84"/>
		</g>
		<g>
			<ellipse class="st1" cx="1483.78" cy="478.69" rx="27.94" ry="17.19"/>
		</g>
		<g>
			<ellipse class="st1" cx="1552.37" cy="479.04" rx="18.65" ry="11.48"/>
		</g>
	</g>
</g>
</svg>
