<svg enable-background="new 0 0 1600 500" version="1.1" viewBox="0 0 1600 500" xmlns="http://www.w3.org/2000/svg">
 <style type="text/css">.st0{fill-rule:evenodd;clip-rule:evenodd;fill:#D7B6FA;}
	.st1{fill-rule:evenodd;clip-rule:evenodd;fill:#BA81F9;}
	.st2{fill:#BA81F9;}
	.st3{fill:#EAD9FC;}
	.st4{fill-rule:evenodd;clip-rule:evenodd;fill:#FFFFFF;}</style>
 <path class="st0" d="m1600 24.84v428.5c0 8.31-4.08 15.66-10.34 20.17-2.4 1.73-5.84 0.86-6.95-1.88-3.92-9.72-16.41-16.83-31.21-16.83-9.47 0-17.99 2.91-23.93 7.55-1.91 1.49-4.64 1.25-6.24-0.56-7.66-8.68-21.22-14.45-36.68-14.45-13.95 0-26.37 4.71-34.28 12.01-1.84 1.7-4.72 1.55-6.42-0.29-9.32-10.07-25.83-16.76-44.62-16.76-27.05 0-49.35 13.85-52.36 31.7-0.4 2.39-2.49 4.14-4.91 4.14l-1317 0.04c-13.71 0-24.83-11.12-24.83-24.84v-428.5c0-13.72 11.12-24.84 24.83-24.84h1550c13.71 0 24.83 11.12 24.83 24.84z"/>
 <ellipse class="st1" cx="1399" cy="479.2" rx="33.87" ry="20.84"/>
 <ellipse class="st1" cx="1484" cy="478.7" rx="27.94" ry="17.19"/>
 <ellipse class="st1" cx="1552" cy="479" rx="18.65" ry="11.48"/>
 <path class="st2" d="m1600 395.5v57.82c0 8.31-4.08 15.66-10.35 20.17-2.4 1.72-5.84 0.86-6.94-1.88-3.93-9.72-16.41-16.83-31.21-16.83-9.47 0-17.99 2.91-23.93 7.55-1.91 1.49-4.64 1.25-6.24-0.56-7.66-8.68-21.22-14.45-36.68-14.45-13.95 0-26.37 4.7-34.29 12-1.84 1.7-4.71 1.55-6.42-0.29-9.32-10.07-25.83-16.76-44.62-16.76-27.06 0-49.35 13.85-52.37 31.7-0.4 2.39-2.48 4.14-4.91 4.14l-1317 0.05c-13.71 0-24.83-11.12-24.83-24.84v-146.9s282.7 88.97 465.4 88.88c289.5-0.16 715.2-126.6 1135 0.23z"/>
 <path class="st3" d="m0 21.33v58.55c526.8-48.85 864.3 138 1600-3.86v-54.7c0-11.77-11.12-21.32-24.83-21.32h-1550c-13.71 0-24.83 9.55-24.83 21.33z"/>
 <path class="st4" d="m1099 321.9h-597.5c-15.9 0-28.79-12.89-28.79-28.79v-111.2c0-15.9 12.89-28.79 28.79-28.79h597.5c15.9 0 28.79 12.89 28.79 28.79v111.2c0.01 15.91-12.88 28.8-28.78 28.8z"/>
 <path d="m561.5 265.4v-37.23h-20.08v-5.95h27.37v43.18h-7.29zm2.85-52.25c-1.66 0-3.05-0.52-4.18-1.55-1.13-1.04-1.69-2.41-1.69-4.13s0.56-3.09 1.69-4.13c1.12-1.04 2.52-1.55 4.18-1.55s3.05 0.52 4.18 1.55c1.12 1.04 1.69 2.41 1.69 4.13s-0.56 3.1-1.69 4.13c-1.13 1.04-2.53 1.55-4.18 1.55z"/>
 <path d="m595 265.4v-43.18h6.04l0.62 7.37h0.36c2.25-2.43 4.68-4.44 7.29-6.04s5.6-2.4 8.97-2.4c5.09 0 8.85 1.48 11.28 4.44s3.64 7.29 3.64 12.97v26.83h-7.29v-25.86c0-4.09-0.77-7.12-2.31-9.11-1.54-1.98-4.09-2.98-7.64-2.98-2.55 0-4.83 0.65-6.84 1.95s-4.29 3.26-6.84 5.87v30.12h-7.28z"/>
 <path d="m649.5 265.4v-63.26h7.29v42.83h0.36l23.28-22.75h8.35l-17.24 16.97 19.55 26.21h-8.18l-15.9-21.77-10.22 10.04v11.73h-7.29z"/>
 <path d="m720 266.5c-1.78 0-3.3-0.62-4.58-1.87s-1.91-2.93-1.91-5.06c0-2.07 0.64-3.72 1.91-4.93s2.8-1.82 4.58-1.82 3.3 0.61 4.58 1.82c1.27 1.21 1.91 2.86 1.91 4.93 0 2.13-0.64 3.82-1.91 5.06-1.28 1.24-2.8 1.87-4.58 1.87zm-2.48-21.68-0.89-30.57-0.18-8.35h7.11l-0.18 8.35-0.89 30.57h-4.97z"/>
 <path d="m839.2 278.9c-5.57 0-9.7-0.83-12.4-2.49s-4.04-4.77-4.04-9.33c0-3.26 0.13-6.19 0.4-8.8s0.4-5.39 0.4-8.35c0-1.18-0.34-2.29-1.02-3.33s-1.96-1.89-3.82-2.58c-1.87-0.68-4.55-1.02-8.04-1.02v-4.62c3.5-0.06 6.18-0.41 8.04-1.07 1.87-0.65 3.14-1.51 3.82-2.58s1.02-2.16 1.02-3.29c0-2.78-0.13-5.57-0.4-8.35s-0.4-5.72-0.4-8.8c0-4.56 1.35-7.67 4.04-9.33 2.7-1.66 6.83-2.49 12.4-2.49h5.42v4.18h-4.62c-3.02 0-5.33 0.27-6.93 0.8s-2.68 1.39-3.24 2.58-0.84 2.75-0.84 4.71c0 2.55 0.09 5.17 0.27 7.86 0.18 2.7 0.27 5.44 0.27 8.22 0 2.9-0.58 5.11-1.73 6.62-1.16 1.51-3.27 2.53-6.35 3.07v0.36c3.08 0.53 5.2 1.55 6.35 3.07 1.15 1.51 1.73 3.72 1.73 6.62 0 3.02-0.09 5.78-0.27 8.26-0.18 2.49-0.27 5.09-0.27 7.82 0 1.89 0.28 3.45 0.84 4.66s1.64 2.09 3.24 2.62 3.91 0.8 6.93 0.8h4.62v4.18h-5.42z"/>
 <path d="m915.7 266.5c-1.72 0-3.19-0.62-4.4-1.87-1.21-1.24-1.82-2.84-1.82-4.8 0-2.01 0.61-3.63 1.82-4.84s2.68-1.82 4.4-1.82 3.17 0.61 4.35 1.82c1.19 1.21 1.78 2.83 1.78 4.84 0 1.95-0.59 3.55-1.78 4.8s-2.64 1.87-4.35 1.87zm17.59 0c-1.72 0-3.19-0.62-4.4-1.87-1.21-1.24-1.82-2.84-1.82-4.8 0-2.01 0.61-3.63 1.82-4.84s2.68-1.82 4.4-1.82 3.18 0.61 4.4 1.82c1.21 1.21 1.82 2.83 1.82 4.84 0 1.95-0.61 3.55-1.82 4.8-1.22 1.24-2.68 1.87-4.4 1.87zm17.59 0c-1.66 0-3.1-0.62-4.31-1.87-1.21-1.24-1.82-2.84-1.82-4.8 0-2.01 0.61-3.63 1.82-4.84s2.65-1.82 4.31-1.82c1.72 0 3.18 0.61 4.4 1.82 1.21 1.21 1.82 2.83 1.82 4.84 0 1.95-0.61 3.55-1.82 4.8-1.21 1.24-2.68 1.87-4.4 1.87z"/>
 <path d="m1022 278.9v-4.18h4.53c3.02 0 5.33-0.27 6.93-0.8s2.7-1.41 3.29-2.62 0.89-2.77 0.89-4.66c0-2.72-0.09-5.33-0.27-7.82s-0.27-5.24-0.27-8.26c0-2.9 0.56-5.11 1.69-6.62 1.12-1.51 3.23-2.53 6.31-3.07v-0.36c-3.08-0.53-5.18-1.56-6.31-3.07s-1.69-3.72-1.69-6.62c0-2.78 0.09-5.52 0.27-8.22 0.18-2.69 0.27-5.32 0.27-7.86 0-1.96-0.3-3.52-0.89-4.71-0.59-1.18-1.69-2.04-3.29-2.58s-3.91-0.8-6.93-0.8h-4.53v-4.18h5.42c5.57 0 9.68 0.83 12.35 2.49s4 4.77 4 9.33c0 3.08-0.13 6.01-0.4 8.8s-0.4 5.57-0.4 8.35c0 1.13 0.34 2.22 1.02 3.29s1.96 1.92 3.82 2.58c1.87 0.65 4.55 1.01 8.04 1.07v4.62c-3.49 0-6.17 0.34-8.04 1.02s-3.14 1.54-3.82 2.58-1.02 2.15-1.02 3.33c0 2.96 0.13 5.75 0.4 8.35 0.27 2.61 0.4 5.54 0.4 8.8 0 4.56-1.33 7.67-4 9.33s-6.78 2.49-12.35 2.49h-5.42z"/>
 <ellipse class="st1" cx="1399" cy="479.2" rx="33.87" ry="20.84"/>
 <ellipse class="st1" cx="1484" cy="478.7" rx="27.94" ry="17.19"/>
 <ellipse class="st1" cx="1552" cy="479" rx="18.65" ry="11.48"/>
</svg>
