<?xml version="1.0" encoding="UTF-8"?>
<svg id="Layer_1" data-name="Layer 1" xmlns="http://www.w3.org/2000/svg" xmlns:xlink="http://www.w3.org/1999/xlink" viewBox="0 0 1600 500">
  <defs>
    <style>
      .cls-1 {
        fill: url(#linear-gradient);
      }

      .cls-1, .cls-2, .cls-3 {
        fill-rule: evenodd;
      }

      .cls-4 {
        fill: #f3f1fe;
      }

      .cls-5 {
        fill: #6957de;
      }

      .cls-6, .cls-3 {
        fill: #fff;
      }

      .cls-7 {
        fill: #8747cc;
      }

      .cls-8 {
        fill: #b7aeff;
      }

      .cls-9 {
        fill: #8c7cf8;
      }

      .cls-10 {
        fill: #bc83fb;
      }

      .cls-11 {
        fill: #d8b7fb;
      }

      .cls-12 {
        fill: #d4cbfe;
      }

      .cls-13, .cls-2 {
        fill: #e2dcfe;
      }

      .cls-14 {
        fill: #5c4dc4;
      }

      .cls-15 {
        fill: #4f3fbf;
      }

      .cls-16 {
        fill: url(#linear-gradient-3);
      }

      .cls-17 {
        fill: url(#linear-gradient-2);
      }
    </style>
    <linearGradient id="linear-gradient" x1="1384.96" y1="229.59" x2="1373.33" y2="355.68" gradientUnits="userSpaceOnUse">
      <stop offset="0" stop-color="#4e5ee4"/>
      <stop offset=".52" stop-color="#63b0f9"/>
      <stop offset="1" stop-color="#63d2f9"/>
    </linearGradient>
    <linearGradient id="linear-gradient-2" x1="1443.47" y1="234.98" x2="1431.84" y2="361.07" xlink:href="#linear-gradient"/>
    <linearGradient id="linear-gradient-3" x1="1322.69" y1="223.85" x2="1311.06" y2="349.94" xlink:href="#linear-gradient"/>
  </defs>
  <path class="cls-2" d="m1600,24.84v428.52c0,8.31-4.08,15.66-10.34,20.17-2.4,1.73-5.84.86-6.95-1.88-3.92-9.72-16.41-16.83-31.21-16.83-9.47,0-17.99,2.91-23.93,7.55-1.91,1.49-4.64,1.25-6.24-.56-7.66-8.68-21.22-14.45-36.68-14.45-13.95,0-26.37,4.71-34.28,12.01-1.84,1.7-4.72,1.55-6.42-.29-9.32-10.07-25.83-16.76-44.62-16.76-27.05,0-49.35,13.85-52.36,31.7-.4,2.39-2.49,4.14-4.91,4.14l-1317.22.05c-13.71,0-24.83-11.12-24.83-24.84V24.84C0,11.12,11.12,0,24.83,0h1550.34c13.71,0,24.83,11.12,24.83,24.84Z"/>
  <g>
    <g>
      <path class="cls-4" d="m454.8,119.46c0,3.33-109.36,4.66-203.77,4.66s-192.2-1.33-192.2-6c0,0,.18-.18.52-.5,8.81-3.97,126.66-1.5,183.64-1.5s211.81,0,211.81,3.33Z"/>
      <path class="cls-6" d="m454.8,119.46c0-3.33-152.59-3.33-211.81-3.33s-174.83-2.47-183.64,1.5c4.02-3.7,31.02-26.49,67.13-6.84,0-13.33,17.19-20.72,20.94-2.67,0,0,21.15-34.67,71.11-37,49.97-2.34,74.06,40.17,86.25,40.17s71.96-36.84,99.19,4.07c4.48-14.42,46.35-19.57,50.82,4.09Z"/>
      <ellipse class="cls-6" cx="308.33" cy="95.83" rx="7.74" ry="4.62" transform="translate(-14.47 102.92) rotate(-18.52)"/>
    </g>
    <g>
      <path class="cls-6" d="m1417.28,157.21c11.59-22.51,42.86-18.79,50.93-4.4,35.81-37.39,55.23-1.01,68.09-3.62,12.86-2.61,36.1-40.68,63.7-6.29v15.79l-182.72-1.48Z"/>
      <path class="cls-4" d="m1600,161.91c-109.09,1.26-183.68-.3-182.72-4.7.96-4.4,182.72,0,182.72,0v4.7Z"/>
    </g>
    <g>
      <path class="cls-8" d="m838.5,431.87c8.24,0,24.26-16.27,20.83-20.55-3.43-4.27-23.34,10.27-23.34,10.27-35.47-21.46-5.04,10.27,2.52,10.27Z"/>
      <path class="cls-8" d="m832.32,370.43c16.46,15.18,24.92,9.76,17.38,2.56-7.71-7.36-17.38-11.11-17.38-11.11-22.93,19.91-16.48,25.43,0,8.54Z"/>
      <path class="cls-8" d="m776.2,363.39c21.84-20.92,21.12-3.79,6.26,6.92-6.26,4.51-19.81-8.17-23.7-12.49-3.89-4.32,8.97-2.21,17.44,5.57Z"/>
      <path class="cls-8" d="m781.1,407.33c24.54-21.08,37.44-16.15,9.84,8.23-1.8,1.59-4.56,1.94-6.79.87-26.48-12.72-30.24-22.33-21.5-18.63,10,4.23,18.45,9.52,18.45,9.52Z"/>
      <path class="cls-8" d="m739.12,424.04c18.92-11.89,24.04-8.43,16.59-.9-7.45,7.52-9.14,10.53-12.87,11.14-3.72.6-15.41-10.68-18.11-15.2-2.71-4.51,3.22-6.32,14.39,4.97Z"/>
    </g>
    <g>
      <path class="cls-6" d="m1030.79,74.9h207.43c-34.7-22.22-58.24-4.69-67.28-5.22-9.04-.53-23.19-22.79-48.68-21.15-25.48,1.63-29.57,22.26-29.57,22.26-38.46-17.71-61.9,4.12-61.9,4.12Z"/>
      <path class="cls-4" d="m1238.22,74.9c3.01,3.08-49.83,4.88-108.2,4.88s-99.23-4.88-99.23-4.88h207.43Z"/>
    </g>
    <g>
      <path class="cls-8" d="m1483.39,408.83l-517.02-1.08c-24.98-1.68-45.33-15.72-45.33-40.76v-88.21c0-25.03,20.29-45.33,45.33-45.33h517.02c25.03,0,45.33,20.29,45.33,45.33v88.21c0,25.03-20.37,39.89-45.33,41.84Z"/>
      <rect class="cls-6" x="921.04" y="219.47" width="607.68" height="178.87" rx="45.33" ry="45.33"/>
      <rect class="cls-15" x="935.58" y="232.82" width="578.6" height="152.18" rx="30.01" ry="30.01"/>
      <g>
        <g>
          <path class="cls-1" d="m1377.65,362.18c-6.76,2.45-13.97-.74-16.1-7.1-2.12-6.37,1.64-13.53,8.4-15.97,6.75-2.45,13.97.73,16.1,7.1,2.12,6.37-1.65,13.52-8.4,15.97Z"/>
          <path class="cls-17" d="m1397.35,329.76v-46.42c0-19.45,8.94-32.46,31.99-32.46h15.06c23.05,0,31.99,13.02,31.99,32.46v46.42c0,19.45-8.94,32.46-31.99,32.46h-15.06c-23.05,0-31.99-13.02-31.99-32.46Zm33.4,11.92h12.08c6.27,0,10.51-2.35,10.51-12.08v-46.26c0-9.41-4.23-12.08-10.51-12.08h-12.08c-6.12,0-10.51,2.67-10.51,12.08v46.26c0,9.72,4.39,12.08,10.51,12.08Z"/>
          <path class="cls-16" d="m1273.68,333.37v-3.29c0-1.72.94-2.67,2.67-2.67h17.72c1.73,0,2.67.94,2.67,2.67,0,9.57,4.23,12.55,11.14,12.55h10.98c6.27,0,10.35-2.35,10.35-12.08v-9.1c0-9.72-4.86-12.23-11.13-12.23h-9.72c-6.9,0-9.41,3.61-10.98,6.9h-20.07c-1.88,0-2.67-.94-2.51-2.82l5.65-58.5c.16-1.57.78-2.35,2.35-2.35h59.75c2.04,0,2.82.94,2.82,2.82v14.59c0,1.88-.78,2.82-2.82,2.82h-42.19l-2.67,22.9h1.25c2.35-3.61,9.88-6.74,18.04-6.74h5.02c25.41,0,30.27,16.47,30.27,33.09v8.62c0,19.45-8,32.46-32.15,32.46h-12.23c-24.47,0-34.19-10.04-34.19-29.64Z"/>
        </g>
        <g>
          <path id="inc" class="cls-3" d="m1188.78,341.79c-6.04,2.19-9.4,8.58-7.5,14.27,1.9,5.69,8.34,8.53,14.38,6.35,6.04-2.19,9.4-8.58,7.5-14.27-1.9-5.69-8.34-8.53-14.38-6.35h0Zm-197.12-57.81c1.58,0,2.37.79,2.37,2.37v74.11c0,1.58-.79,2.37-2.37,2.37h-15.61c-1.58,0-2.37-.79-2.37-2.37v-74.11c0-1.58.79-2.37,2.37-2.37h15.61Zm64.18-.63c17.19,0,23.18,11.67,23.18,27.75v49.36c0,1.58-.79,2.37-2.37,2.37h-15.61c-1.58,0-2.37-.79-2.37-2.37v-51.72c0-5.36-3.94-7.25-8.52-7.25h-1.89c-6.78,0-11.67,2.84-13.4,5.68v53.3c0,1.58-.79,2.37-2.37,2.37h-15.61c-1.58,0-2.37-.79-2.37-2.37v-74.11c0-1.58.79-2.37,2.37-2.37h15.61c1.58,0,2.37.79,2.37,2.37v6.94c2.37-3.94,8.36-9.93,20.03-9.93h.95,0Zm60.08-30.91c1.58,0,2.37.79,2.37,2.37v54.72l22.39-23.65c.95-1.1,2.37-1.89,3.63-1.89h16.24c2.05,0,3.94,2.37,1.1,5.36l-23.5,25.23,27.44,44c.95,1.73.79,4.26-1.89,4.26h-14.82c-2.05,0-3.94-.63-5.2-2.84l-19.24-31.85-6.15,6.15v26.18c0,1.58-.79,2.37-2.37,2.37h-15.61c-1.58,0-2.37-.79-2.37-2.37v-105.65c0-1.58.79-2.37,2.37-2.37h15.61,0Zm-135.13,3.75c-5.92,1.79-9.48,7.76-7.95,13.33,1.53,5.57,7.58,8.63,13.5,6.84,5.92-1.79,9.48-7.76,7.95-13.33-1.53-5.57-7.58-8.63-13.5-6.84Z"/>
          <path class="cls-3" d="m1186.85,323.43l-3.44-.03c-1.58,0-2.37-.79-2.37-2.37v-66.23c0-1.58.79-2.37,2.37-2.37h16.08c1.58,0,2.37.79,2.37,2.37v2.23c-6.13,1.49-10.89,7.72-11.27,15.5-.31,6.24,2.29,11.9,6.4,15.1-3.06,2.08-5.31,5.6-5.87,9.81-.61,4.58.91,8.93,3.74,11.8-2.86,1.25-5.46,3.82-6.94,7.2-1.05,2.39-1.37,4.82-1.07,6.99h0Z"/>
          <path class="cls-3" d="m1191.82,318.08c-1.17,2.68-.28,5.5,2,6.31,2.28.8,5.08-.72,6.25-3.39,1.17-2.68.28-5.5-2-6.31-2.28-.8-5.08.72-6.25,3.39Zm4.25-19.59c-.78,4.14,1.4,8.03,4.88,8.68s6.93-2.19,7.71-6.33c.78-4.14-1.4-8.03-4.88-8.68-3.47-.65-6.93,2.19-7.71,6.33Zm-.87-24.42c-.28,5.67,3.36,10.55,8.13,10.88,4.76.34,8.86-3.99,9.14-9.66.28-5.67-3.36-10.55-8.13-10.88-4.76-.34-8.86,3.99-9.14,9.66h0Z"/>
        </g>
      </g>
    </g>
    <g>
      <path class="cls-8" d="m496.14,454.76l-391.69-.82c-18.92-1.27-34.34-11.91-34.34-30.88v-66.83c0-18.97,15.37-34.34,34.34-34.34h391.69c18.97,0,34.34,15.37,34.34,34.34v66.83c0,18.97-15.43,30.22-34.34,31.7Z"/>
      <rect class="cls-6" x="70.11" y="311.3" width="460.37" height="135.51" rx="34.34" ry="34.34"/>
      <rect class="cls-15" x="81.12" y="321.42" width="438.34" height="115.29" rx="22.74" ry="22.74"/>
      <g>
        <path id="inc-2" data-name="inc" class="cls-3" d="m272.94,403.97c-4.58,1.66-7.12,6.5-5.68,10.81,1.44,4.31,6.32,6.46,10.9,4.81,4.58-1.66,7.12-6.5,5.68-10.81-1.44-4.31-6.32-6.46-10.9-4.81h0Zm-149.34-43.79c1.19,0,1.79.6,1.79,1.79v56.15c0,1.19-.6,1.79-1.79,1.79h-11.83c-1.19,0-1.79-.6-1.79-1.79v-56.15c0-1.19.6-1.79,1.79-1.79h11.83Zm48.62-.48c13.02,0,17.56,8.84,17.56,21.03v37.39c0,1.19-.6,1.79-1.79,1.79h-11.83c-1.19,0-1.79-.6-1.79-1.79v-39.18c0-4.06-2.99-5.5-6.45-5.5h-1.43c-5.14,0-8.84,2.15-10.15,4.3v40.38c0,1.19-.6,1.79-1.79,1.79h-11.83c-1.19,0-1.79-.6-1.79-1.79v-56.15c0-1.19.6-1.79,1.79-1.79h11.83c1.19,0,1.79.6,1.79,1.79v5.26c1.79-2.99,6.33-7.53,15.17-7.53h.72,0Zm45.52-23.42c1.19,0,1.79.6,1.79,1.79v41.45l16.96-17.92c.72-.84,1.79-1.43,2.75-1.43h12.3c1.55,0,2.99,1.79.84,4.06l-17.8,19.11,20.79,33.33c.72,1.31.6,3.23-1.43,3.23h-11.23c-1.55,0-2.99-.48-3.94-2.15l-14.57-24.13-4.66,4.66v19.83c0,1.19-.6,1.79-1.79,1.79h-11.83c-1.19,0-1.79-.6-1.79-1.79v-80.04c0-1.19.6-1.79,1.79-1.79h11.83,0Zm-102.37,2.84c-4.48,1.36-7.18,5.88-6.02,10.1,1.16,4.22,5.74,6.54,10.23,5.18,4.48-1.36,7.18-5.88,6.02-10.1-1.16-4.22-5.74-6.54-10.23-5.18Z"/>
        <path class="cls-3" d="m271.48,390.06l-2.6-.02c-1.19,0-1.79-.6-1.79-1.79v-50.18c0-1.19.6-1.79,1.79-1.79h12.19c1.19,0,1.79.6,1.79,1.79v1.69c-4.64,1.13-8.25,5.85-8.54,11.74-.23,4.73,1.74,9.01,4.85,11.44-2.32,1.58-4.02,4.24-4.45,7.43-.46,3.47.69,6.76,2.84,8.94-2.17.95-4.14,2.89-5.26,5.45-.79,1.81-1.04,3.65-.81,5.29h0Z"/>
        <path class="cls-3" d="m275.24,386.01c-.89,2.03-.21,4.17,1.52,4.78,1.73.61,3.85-.54,4.74-2.57.89-2.03.21-4.17-1.52-4.78-1.73-.61-3.85.54-4.74,2.57Zm3.22-14.84c-.59,3.14,1.06,6.09,3.69,6.58s5.25-1.66,5.84-4.8c.59-3.14-1.06-6.09-3.69-6.58-2.63-.49-5.25,1.66-5.84,4.8Zm-.66-18.5c-.21,4.3,2.55,7.99,6.16,8.24,3.61.26,6.71-3.02,6.92-7.32.21-4.3-2.55-7.99-6.16-8.24-3.61-.26-6.71,3.02-6.92,7.32h0Z"/>
      </g>
      <g>
        <g>
          <ellipse class="cls-6" cx="412.77" cy="410.81" rx="10.1" ry="9.48" transform="translate(-160.6 308.84) rotate(-34.78)"/>
          <ellipse class="cls-6" cx="412.77" cy="410.81" rx="10.1" ry="9.48" transform="translate(-160.6 308.84) rotate(-34.78)"/>
          <g>
            <path class="cls-6" d="m375.76,336.52h14.09c.96,0,1.74.78,1.74,1.74v79.36c0,1.29-1.05,2.35-2.35,2.35h-13.48c-.96,0-1.74-.78-1.74-1.74v-79.97c0-.96.78-1.74,1.74-1.74Z"/>
            <path class="cls-3" d="m389.57,378.87h-31.66c-1.03,0-1.78-1-1.48-1.99l9.73-32.65c.29-.97-.26-1.76-1.24-1.76h-14.04c-.97,0-1.99.79-2.28,1.76l-12.38,43c-1.27,4.41,1.85,8.8,6.33,9.16.27.05-3.01.04,47.02.04.97,0,1.76-.79,1.76-1.76v-14.04c0-.97-.79-1.76-1.76-1.76Z"/>
          </g>
        </g>
        <path class="cls-6" d="m470.07,386.09l17.86-31.51c.82-1.5.14-2.73-1.5-2.73h-13.5c-1.23,0-2.32.41-3.41,2.59l-9.41,17.33h-1.23l-9.41-17.33c-1.09-2.18-2.18-2.59-3.41-2.59h-13.5c-1.64,0-2.32,1.23-1.5,2.73l17.86,31.51-17.6,31.24c-.82,1.5-.27,2.73,1.64,2.73h13.64c1.09,0,2.05-.41,3.14-2.59l9.13-17.05h1.23l9,17.05c1.09,2.18,2.05,2.59,3.14,2.59h13.92c1.77,0,2.32-1.23,1.5-2.73l-17.6-31.24Z"/>
      </g>
    </g>
    <g>
      <g>
        <path class="cls-14" d="m615.84,106.67c-62.84,6.28-70.93,9.08-55.46,52.15l55.46-52.15Z"/>
        <path class="cls-14" d="m574.78,265.11c5.56,43.38,11.16,41.05,72.66,34.78l-72.66-34.78Z"/>
        <path class="cls-9" d="m538.38,212.7c1.61,12.52,8.9,25.71,20.59,38.14,24.47,26.03,68.23,48.76,119.49,55.07h0c17.74,2.2,36.37,2.42,55.41.12,29.89-3.59,57.52-11.99,81.41-23.57h0c19.96-9.68,37.3-21.57,51.12-34.74,25.16-23.95,38.7-52.09,35.29-78.65-3.43-26.78-23.57-51.07-54-68.42-2.38-1.35-4.81-2.66-7.3-3.93-35.58-18.05-83.25-27.1-134.19-20.97-32.27,3.87-61.77,14.47-86.75,28.68-32.56,18.5-57.43,43.1-70.7,66.85-8.21,14.68-11.98,29.04-10.39,41.43Z"/>
        <path class="cls-5" d="m678.46,305.91c17.74,2.2,36.37,2.42,55.41.13,29.89-3.59,57.52-11.99,81.41-23.57-.97-.16-65.86-10.55-136.82,23.44Z"/>
        <path class="cls-5" d="m548.68,178.83c47.85-40.49,103.59-66.89,161.2-76.34,52.29-8.58,104.57-3.36,151.19,15.09l1.29-3.27c-47.22-18.68-100.14-23.97-153.05-15.29-58.23,9.55-114.56,36.22-162.9,77.12l2.27,2.68Z"/>
        <path class="cls-5" d="m832.74,109.29c-1.21,4.66-5.33,9.71-11.67,14.74-17.8,14.13-53.07,28.11-90.12,32.86-40.1,5.14-81.88-3.16-100.94-15.53-4.82-3.13-8.19-6.52-9.72-10.01-3.73-8.56-2.88-18.26,1.29-28.12,24.52-13.61,53.28-23.73,84.63-27.49,45.48-5.46,88.34,1.15,122.32,15.48,3.93,6.53,5.58,12.75,4.21,18.07Z"/>
        <path class="cls-5" d="m745.05,269.72c6.32-.72,12.56-1.61,18.74-2.66,41.08-6.99,79.05-21.29,112.87-42.5l-1.87-2.98c-33.42,20.96-70.97,35.1-111.59,42.01-32.52,5.53-67.08,6.49-102.72,2.83-60.69-6.24-103.95-23.92-104.38-24.1l-1.34,3.25c.43.18,44.17,18.06,105.36,24.35,29.19,3,57.67,2.93,84.92-.19Z"/>
        <path class="cls-5" d="m548.16,194.33c.4-.13,40.44-13.27,99.92-25.19,54.87-11,137.99-23.18,222.33-18.78l.18-3.51c-84.73-4.43-168.18,7.81-223.26,18.85-59.68,11.96-99.88,25.15-100.28,25.29l1.1,3.34Z"/>
        <path class="cls-4" d="m832.74,109.29c-1.21,4.66-5.33,9.71-11.67,14.74-17.8,14.13-53.07,28.11-90.12,32.86-40.1,5.14-81.88-3.16-100.94-15.53-4.82-3.13-8.19-6.52-9.72-10.01-3.73-8.56-2.88-18.26,1.29-28.12,12.7-30.02,56.15-61.47,94.25-66.36,40.8-5.22,96.39,27.2,112.7,54.35,3.93,6.53,5.58,12.75,4.21,18.07Z"/>
        <path class="cls-12" d="m630.01,141.36c19.06,12.37,60.84,20.67,100.94,15.53,37.05-4.75,72.32-18.73,90.12-32.86-5.58-25.73-184.68-6.01-191.05,17.33Z"/>
        <g>
          <circle class="cls-12" cx="660.78" cy="105.04" r="5.22"/>
          <circle class="cls-12" cx="809.08" cy="95.35" r="5.22"/>
          <circle class="cls-12" cx="751.2" cy="56.23" r="3.77"/>
          <circle class="cls-12" cx="758.36" cy="85.57" r="5.75"/>
          <circle class="cls-12" cx="643.65" cy="120.9" r="3.82"/>
        </g>
        <path class="cls-5" d="m713.15,217.58c48.82-5.6,105.12-14.84,163.99-30.01l-.88-3.4c-173.46,44.7-324.69,37.84-326.2,37.77l-.17,3.51c1,.05,67.79,3.08,163.26-7.86Z"/>
        <g>
          <g>
            <path class="cls-10" d="m744.24,157.05l18.13-3.01,17.1-2.83c12.31-10.17,29.35-51.47-9.74-82.06-1.17-.92-2.72.49-1.94,1.75,17.27,28.01,7.89,61.26-23.55,86.15Z"/>
            <path class="cls-7" d="m762.37,154.04l17.1-2.83c12.31-10.17,29.35-51.47-9.74-82.06,26.83,26.23,8.45,68.93-7.36,84.89Z"/>
            <path class="cls-11" d="m785.72,97.85c1.18,3.91,2.75,6.75,4.49,6.23,1.73-.53,2.18-4.12,1-8.02-1.18-3.91-3.55-6.65-5.28-6.12-1.73.53-1.38,4.01-.2,7.92Z"/>
            <path class="cls-11" d="m783.1,128.4c-1.65,5.67-1.71,10.18,1.14,11.01,2.85.83,6.5-3.09,8.15-8.76,1.65-5.67.68-10.94-2.18-11.77-2.85-.83-5.47,3.85-7.12,9.53Z"/>
          </g>
          <g>
            <path class="cls-7" d="m701.33,48.28c-2.14.35-11.2,24.2-18.96,36.03-8.11,12.35-3.13,16.23,5.43,22.36,6.39,4.57,45.77-7.59,45.77-7.59,4.87-6.78,8-12.35-2.47-22.16-11.59-10.87-27.63-28.99-29.77-28.63Z"/>
            <path class="cls-10" d="m741.72,106.81c-23.71-27.42-37.59-54.41-39.49-51.08-1.82,3.17-13.98,46.24-20.42,61.01l59.91-9.93Z"/>
            <path class="cls-10" d="m715.85,161.61c17.62-.8,31.25-15.74,30.45-33.36-.8-17.62-15.74-31.25-33.36-30.45-17.62.8-29.11,17.66-28.31,35.28.8,17.62,13.6,29.33,31.22,28.53Z"/>
            <path class="cls-10" d="m708.11,99.32c-10.55,9.7-21.97,13.62-25.35,14.62-.65.19-1.2.63-1.5,1.23-3.22,6.35-2.35,11.2-1.29,13.87.53,1.36,2.12,1.94,3.44,1.31,12.82-6.12,24.03-14.49,27.76-17.39.79-.61,1.86-.7,2.74-.23,4.04,2.2,16.21,7.97,30.52,6.57,1.27-.12,2.25-1.16,2.29-2.44.11-3.04-.46-8.61-5.3-12.44-.43-.34-.97-.5-1.51-.5-14.99,0-25.44-3.63-29.12-5.12-.91-.37-1.94-.16-2.67.51Z"/>
            <path class="cls-7" d="m709.59,93.03c-1.42-10.8-3.28-21.53-5.23-32.25-.19-.94-1.61-.74-1.51.23,1.33,10.81,2.74,21.61,4.6,32.35.26,1.35,2.29,1.06,2.13-.32h0Z"/>
            <g>
              <path d="m720.72,144.1c-.54,3.71-6.8,4.8-8.26,1.19-.46-1.09-2.06-.5-1.76.63.99,4.83,7.41,5.32,10.38,2.3,1.08-.79,2.78-4.87.54-5.01-.48.03-.85.42-.9.9h0Z"/>
              <path d="m712.57,138.88c-1.64-6.36-10.41-7.98-14.38-3.13-1.26,1.14-3.25,6.72-.6,6.81.55-.03.99-.44,1.09-.98.26-1.45.88-2.66,1.78-3.54,2.88-2.78,8.03-1.98,9.94,1.79.71,1.25,2.54.43,2.16-.95h0Z"/>
              <path d="m720.65,138.21c1.04-5.8,9.1-7.23,11.7-1.76.68,1.26,2.53.5,2.18-.89-1.55-6.63-10.21-7.97-14.26-3.12-1.23,1.12-3.41,6.57-.75,6.77.57-.01,1.04-.45,1.13-1.01h0Z"/>
            </g>
            <path class="cls-7" d="m685.63,130.86c10.13-4.02,19.37-10.7,27.4-17.67-.26.21-.67.22-.95.04-.03-.02.14.09.15.1,9.32,5.88,20.8,8.25,31.69,6.92,1.03-.14.96-1.7-.11-1.7-9.37-.02-18.68-1.75-27.13-5.8-1.03-.51-2.04-1.05-3.02-1.65-.77-.58-1.84-.46-2.48.22-3.91,3.47-8,6.78-12.26,9.8-4.38,3.13-9.01,6.04-13.82,8.35-.86.36-.39,1.71.54,1.38h0Z"/>
            <path class="cls-7" d="m738.42,103.4c-7.36-.16-14.91-.94-21.89-3.33-2.56-.92-5.2-1.99-7.3-3.71-3.87,3.66-8.06,7.01-12.58,9.84-4.17,2.65-8.62,5.03-13.2,6.88-.4.14-.61.6-.45.99.15.38.57.57.95.43,2.43-.85,4.75-1.84,7.06-2.93,4.6-2.17,9.04-4.71,13.2-7.65,2.1-1.45,4.09-3.07,6.05-4.72l-1.77.09c6.74,3.97,14.71,4.99,22.36,5.51,2.23.12,5.33.12,7.58.07.95-.02.98-1.47-.01-1.48h0Z"/>
          </g>
        </g>
        <path class="cls-8" d="m866.41,247.72c25.16-23.95,38.7-52.09,35.29-78.65-3.43-26.78-23.57-51.07-54-68.42,27.17,33.08,38.04,110,18.71,147.07Z"/>
        <path class="cls-8" d="m558.97,250.84s-14.17-42.45-10.19-79.57h0c-8.21,14.68-11.98,29.04-10.39,41.43,1.61,12.52,8.9,25.71,20.59,38.14Z"/>
        <path class="cls-14" d="m644.86,202.07c-14.78-6.61-101.73.75-77,7.83,24.73,7.08,91.79-1.22,77-7.83Z"/>
        <path class="cls-6" d="m650.46,75.17c-10.53,10.41-15.56,22.4-11.22,26.79,4.34,4.39,15.29-2.18,25.82-12.59,10.53-10.41,16.66-20.7,12.33-25.09-4.34-4.39-16.39.48-26.93,10.89Z"/>
        <path class="cls-5" d="m778.22,207.32c47.42,9.75,59.1-12.89,59.1-12.89l-59.1,12.89Z"/>
        <path class="cls-14" d="m726.38,169.97c-109.25,12.52-136.84-34.57-106.92-65.55.7-.4,1.41-.8,2.12-1.19-4.17,9.86-5.02,19.56-1.29,28.12,1.53,3.49,4.9,6.88,9.72,10.01,19.06,12.37,60.84,20.67,100.94,15.53,37.05-4.75,72.32-18.73,90.12-32.86,6.34-5.03,10.46-10.08,11.67-14.74,1.37-5.32-.28-11.54-4.21-18.07,4.09,1.72,8.05,3.55,11.87,5.49,12.53,19.44-8,61.11-114.02,73.26Z"/>
      </g>
      <g>
        <path class="cls-6" d="m531.45,235.6c-9.43-2.49-18.1,11.96-18.1,11.96-14.57-15.52-33.01-15.37-42.45-11.5-19.66,8.05-15.35,32.25-15.35,32.25-21.05-7.57-35.04,6.29-32.61,17.87,1.92,9.16,14.96,13.34,26.33,11.69,38.03-5.5,42.65-35.5,42.65-35.5,33.7,12.76,57.13-22.12,39.53-26.77Z"/>
        <ellipse class="cls-6" cx="513.36" cy="233.28" rx="5.21" ry="3.65" transform="translate(154.81 668.48) rotate(-74.95)"/>
        <circle class="cls-6" cx="440.01" cy="254.24" r="6.34"/>
      </g>
    </g>
  </g>
  <ellipse class="cls-13" cx="1483.78" cy="478.69" rx="27.94" ry="17.19"/>
  <ellipse class="cls-13" cx="1552.37" cy="479.04" rx="18.65" ry="11.48"/>
  <ellipse class="cls-13" cx="1399.46" cy="479.16" rx="33.87" ry="20.84"/>
</svg>