<?xml version="1.0" encoding="UTF-8" standalone="no"?>
<svg
   enable-background="new 0 0 1600 500"
   version="1.1"
   viewBox="0 0 1600 500"
   id="svg1401"
   sodipodi:docname="polkadot-scalability-hackathon.svg"
   inkscape:version="1.3.2 (091e20e, 2023-11-25)"
   xmlns:inkscape="http://www.inkscape.org/namespaces/inkscape"
   xmlns:sodipodi="http://sodipodi.sourceforge.net/DTD/sodipodi-0.dtd"
   xmlns:xlink="http://www.w3.org/1999/xlink"
   xmlns="http://www.w3.org/2000/svg"
   xmlns:svg="http://www.w3.org/2000/svg">
  <sodipodi:namedview
     id="namedview1401"
     pagecolor="#ffffff"
     bordercolor="#000000"
     borderopacity="0.25"
     inkscape:showpageshadow="2"
     inkscape:pageopacity="0.0"
     inkscape:pagecheckerboard="0"
     inkscape:deskcolor="#d1d1d1"
     showguides="true"
     inkscape:zoom="0.52"
     inkscape:cx="656.73077"
     inkscape:cy="156.73077"
     inkscape:window-width="1392"
     inkscape:window-height="1212"
     inkscape:window-x="0"
     inkscape:window-y="25"
     inkscape:window-maximized="0"
     inkscape:current-layer="g309">
    <sodipodi:guide
       position="369.23077,259.61538"
       orientation="0,-1"
       id="guide1401"
       inkscape:locked="false" />
  </sodipodi:namedview>
  <style
     type="text/css"
     id="style1">.st0{fill-rule:evenodd;clip-rule:evenodd;fill:#BC83FB;}
	.st1{fill:#FFFFFF;}
	.st2{clip-path:url(#SVGID_00000127046452219591880870000009124979325561275311_);}
	.st3{fill:#D8B7FB;}
	.st4{fill:#EBDAFB;}
	.st5{fill:#FF9C8F;}
	.st6{fill:#FF705E;}
	.st7{fill:#8747CC;}
	.st8{clip-path:url(#SVGID_00000129913674504111013720000009680643748990105477_);}
	.st9{clip-path:url(#SVGID_00000163034229489235031760000001765846067232564866_);}
	.st10{clip-path:url(#SVGID_00000005982225716216898980000002250285803384009403_);}</style>
  <path
     class="st0"
     d="m1600 24.8v428.5c0 8.3-4.1 15.7-10.3 20.2-2.4 1.7-5.8 0.9-6.9-1.9-3.9-9.7-16.4-16.8-31.2-16.8-9.5 0-18 2.9-23.9 7.6-1.9 1.5-4.6 1.3-6.2-0.6-7.7-8.7-21.2-14.5-36.7-14.5-13.9 0-26.4 4.7-34.3 12-1.8 1.7-4.7 1.5-6.4-0.3-9.3-10.1-25.8-16.8-44.6-16.8-27.1 0-49.3 13.9-52.4 31.7-0.4 2.4-2.5 4.1-4.9 4.1h-1317c-13.9 0.2-25-10.9-25-24.6v-428.6c0-13.7 11.1-24.8 24.8-24.8h1550c13.8 0 24.9 11.1 24.9 24.8z"
     id="path1"
     style="fill:#ffffff" />
  <ellipse
     cx="1400.6393"
     cy="476.60925"
     rx="33.869999"
     ry="20.84"
     style="fill:#ffffff;stroke-width:0px"
     id="ellipse174" />
  <path
     d="m 1512.8892,476.13923 c 0,9.49 -12.51,17.19 -27.93,17.19 -15.42,0 -27.94,-7.7 -27.94,-17.19 0,-9.49 12.51,-17.19 27.94,-17.19 15.43,0 27.93,7.69 27.93,17.19 z"
     style="fill:#ffffff;stroke-width:0px"
     id="path174" />
  <path
     d="m 1572.1992,476.48923 c 0,6.34 -8.35,11.48 -18.65,11.48 -10.3,0 -18.65,-5.14 -18.65,-11.48 0,-6.34 8.35,-11.47 18.65,-11.47 10.3,0 18.65,5.14 18.65,11.47 z"
     style="fill:#ffffff;stroke-width:0px"
     id="path175" />
  <g
     id="g5"
     transform="translate(-49.30769,0.23077155)">
    <g
       clip-path="url(#e-3)"
       id="g309">
      <path
         id="polygon192"
         style="fill:#ffffff"
         class="st1"
         d="m 1553,574.3 -15,-104.4 -97,15.2 13,102.4 z" />
      <path
         id="polygon193"
         style="fill:#d8b7fb"
         class="st3"
         d="m 1553,574.3 -15,-104.4 9,12.3 16,104 -93,12.9 -16,-11.6 z" />
      <path
         id="polygon194"
         style="fill:#ebdafb"
         class="st4"
         d="m 1563,586.2 -64,8.9 -12,-12.1 66,-8.7 z" />
      <path
         id="polygon195"
         style="fill:#ff9c8f"
         class="st5"
         d="m 1487,583 -33,4.5 16,11.6 29,-4 z" />
      <path
         id="polygon196"
         style="fill:#ff705e"
         class="st6"
         d="m 1473,480.1 -32,5 13,102.4 33,-4.5 z" />
      <path
         class="st7"
         d="m 1459,560 v 0.2 c 0,0.8 -0.6,1.4 -1.4,1.4 -7.4,-0.1 -20.6,0.9 -23.1,5.6 -0.4,0.7 -0.3,1.3 0.2,2 1.6,2.2 7.3,3.9 16.1,2.5 0.8,-0.1 1.5,0.4 1.6,1.1 0.1,0.7 -0.4,1.5 -1.1,1.6 -8.8,1.4 -16.2,0 -18.8,-3.6 -1.1,-1.5 -1.2,-3.2 -0.4,-4.9 2.4,-4.6 12,-7.3 25.5,-7 0.8,-0.1 1.3,0.4 1.4,1.1 z"
         id="path196"
         style="fill:#8747cc" />
      <path
         class="st7"
         d="m 1452,512.2 v 0.2 c 0,0.8 -0.6,1.4 -1.4,1.4 -7.3,-0.1 -20.4,0.9 -22.8,5.4 -0.4,0.7 -0.3,1.3 0.2,2 1.6,2.3 7.5,4 16.4,2.5 0.8,-0.1 1.5,0.4 1.6,1.1 0.1,0.7 -0.4,1.5 -1.1,1.6 -8.9,1.5 -16.4,0 -19.1,-3.7 -1.1,-1.5 -1.2,-3.2 -0.4,-4.9 2.4,-4.5 11.8,-7.1 25.3,-6.9 0.6,0.2 1.2,0.7 1.3,1.3 z"
         id="path197"
         style="fill:#8747cc" />
      <path
         class="st3"
         d="m 1498,485.7 11.9,82.8 c 0.1,0.8 -0.4,1.4 -1.2,1.6 -0.8,0.1 -1.4,-0.4 -1.6,-1.2 l -11.9,-82.8 c -0.1,-0.8 0.4,-1.4 1.2,-1.6 0.8,0 1.5,0.5 1.6,1.2 z"
         id="path198"
         style="fill:#d8b7fb" />
      <path
         class="st3"
         d="m 1519,487.2 11.3,79.1 c 0.1,0.8 -0.4,1.4 -1.2,1.6 -0.8,0.2 -1.4,-0.4 -1.6,-1.2 l -11.3,-79.1 c -0.1,-0.8 0.4,-1.4 1.2,-1.6 0.8,-0.1 1.5,0.4 1.6,1.2 z"
         id="path199"
         style="fill:#d8b7fb" />
      <path
         class="st3"
         d="m 1544,556.5 c 0.1,0.8 -0.4,1.4 -1.2,1.6 l -51.2,7.3 c -0.8,0.1 -1.4,-0.4 -1.6,-1.2 -0.1,-0.8 0.4,-1.4 1.2,-1.6 l 51.2,-7.3 c 0.8,-0.1 1.5,0.4 1.6,1.2 z"
         id="path200"
         style="fill:#d8b7fb" />
      <path
         class="st3"
         d="m 1541,533.6 c 0.1,0.8 -0.4,1.4 -1.2,1.6 l -51.2,7.3 c -0.8,0.1 -1.4,-0.4 -1.6,-1.2 -0.1,-0.8 0.4,-1.4 1.2,-1.6 l 51.2,-7.3 c 0.8,-0.1 1.5,0.4 1.6,1.2 z"
         id="path201"
         style="fill:#d8b7fb" />
      <path
         class="st3"
         d="m 1537,510.7 c 0.1,0.8 -0.4,1.4 -1.2,1.6 l -51.2,7.3 c -0.8,0.1 -1.4,-0.4 -1.6,-1.2 -0.1,-0.8 0.4,-1.4 1.2,-1.6 l 51.2,-7.3 c 0.8,-0.1 1.5,0.4 1.6,1.2 z"
         id="path202"
         style="fill:#d8b7fb" />
      <path
         class="st3"
         d="m 1525,489.1 c 0.1,0.8 -0.4,1.4 -1.2,1.6 l -41.9,6 c -0.8,0.1 -1.4,-0.4 -1.6,-1.2 -0.2,-0.8 0.4,-1.4 1.2,-1.6 l 41.9,-6 c 0.8,-0.1 1.5,0.4 1.6,1.2 z"
         id="path203"
         style="fill:#d8b7fb" />
      <path
         class="st4"
         d="m 1503,475.9 c 12.8,2.6 28.9,14.3 38.3,22.6 0.5,0.4 0,1.2 -0.6,0.9 -10.3,-5.3 -20.5,-5.2 -25.6,-4.7 -1.8,0.2 -3.4,-0.9 -3.9,-2.6 -1.9,-6.9 -6.6,-12.9 -8.7,-15.3 -0.4,-0.4 0,-1.1 0.5,-0.9 z"
         id="path204"
         style="fill:#ebdafb" />
      <path
         class="st6"
         d="m 1514,551.5 c 0.7,5.1 -0.9,9.9 -4.7,12.7 -6,4.4 -15.2,2 -20.6,-5.3 -2.6,-3.5 -3.9,-7.6 -3.7,-11.6 0.2,-4.1 1.9,-7.5 4.9,-9.7 6,-4.4 15.2,-2 20.6,5.3 1.9,2.8 3.1,5.7 3.5,8.6 z m -26.1,-1.4 c 0.4,2.5 1.4,5 3,7.3 4.5,6.1 12,8.2 16.8,4.7 4.8,-3.5 5,-11.3 0.6,-17.4 -4.5,-6.1 -12,-8.2 -16.8,-4.7 -2.3,1.7 -3.6,4.4 -3.7,7.6 -0.1,0.8 -0.1,1.6 0.1,2.5 z"
         id="path205"
         style="fill:#ff705e" />
      <g
         id="text1"
         style="font-size:66.6667px;font-family:Montserrat;-inkscape-font-specification:Montserrat;text-align:center;text-anchor:middle;stroke-width:0.64252"
         aria-label="Polkadot Scalability &#10;Hackathon">
        <path
           style="font-family:Unbounded;-inkscape-font-specification:Unbounded;text-align:start;text-anchor:start"
           d="m 144.74594,172.665 q 5.50001,0 9.63334,2 4.13334,2 6.36667,5.6 2.26667,3.56667 2.26667,8.20001 0,4.63333 -2.26667,8.23333 -2.23333,3.56667 -6.36667,5.56667 -4.13333,2 -9.63334,2 h -17.66667 v 18.40001 h -8.80001 V 172.665 Z m -0.33333,24.00001 q 2.96667,0 5.13334,-1 2.2,-1 3.36667,-2.83334 1.16666,-1.86666 1.16666,-4.36666 0,-2.50001 -1.16666,-4.33334 -1.16667,-1.86667 -3.36667,-2.86667 -2.16667,-1 -5.13334,-1 h -17.33334 v 16.40001 z m 44.66669,26.93335 q -6.80001,0 -12.03334,-2.46667 -5.2,-2.5 -8.10001,-7 -2.86666,-4.50001 -2.86666,-10.33334 0,-5.83334 2.86666,-10.33334 2.90001,-4.5 8.10001,-6.96667 5.23333,-2.5 12.03334,-2.5 6.8,0 12,2.5 5.23334,2.46667 8.10001,6.96667 2.9,4.5 2.9,10.33334 0,5.83333 -2.9,10.33334 -2.86667,4.5 -8.10001,7 -5.2,2.46667 -12,2.46667 z m -14.20001,-19.80001 q 0,3.96667 1.73333,6.9 1.73334,2.93334 4.93334,4.53334 3.2,1.56666 7.53334,1.56666 4.33333,0 7.53334,-1.56666 3.2,-1.6 4.93333,-4.53334 1.73334,-2.93333 1.73334,-6.9 0,-3.93334 -1.73334,-6.86667 -1.73333,-2.93334 -4.93333,-4.53334 -3.20001,-1.6 -7.53334,-1.6 -4.33334,0 -7.53334,1.6 -3.2,1.6 -4.93334,4.53334 -1.73333,2.93333 -1.73333,6.86667 z m 52.93336,-32.46669 v 51.33336 h -8.66667 v -51.33336 z m 9.19998,0 h 8.66667 v 39.76669 l 21.46668,-26.16668 h 10.00001 l -13.30001,15.66668 14.43334,22.06667 h -10.20001 l -9.73333,-15.6 -13.26668,15.6 h -8.06667 z m 78.3,41.96669 q -2.93333,4.86667 -7.43333,7.60001 -4.50001,2.7 -9.93334,2.7 -5.46667,0 -9.76668,-2.46667 -4.3,-2.5 -6.7,-7 -2.4,-4.50001 -2.4,-10.33334 0,-5.83334 2.4,-10.33334 2.4,-4.5 6.7,-6.96667 4.30001,-2.5 9.76668,-2.5 5.46667,0 9.93334,2.7 4.5,2.7 7.43333,7.56667 l 0.96667,-9.33334 h 8.93334 l -2,18.86668 2,18.86667 h -8.93334 z m -27.43335,-9.5 q 0,3.73333 1.53334,6.66667 1.56667,2.93333 4.33333,4.56667 2.76667,1.63333 6.26667,1.63333 3.50001,0 6.56667,-1.6 3.10001,-1.63333 5.46667,-4.53334 2.40001,-2.9 3.83334,-6.73333 -1.43333,-3.8 -3.83334,-6.70001 -2.36666,-2.9 -5.46667,-4.53333 -3.06666,-1.63334 -6.56667,-1.63334 -3.5,0 -6.26667,1.66667 -2.76666,1.63334 -4.33333,4.56667 -1.53334,2.9 -1.53334,6.63334 z m 80.03342,9.26667 q -2.93333,5 -7.46667,7.76667 -4.53333,2.76667 -10.03334,2.76667 -5.46667,0 -9.76667,-2.46667 -4.3,-2.5 -6.7,-7 -2.4,-4.50001 -2.4,-10.33334 0,-5.83334 2.4,-10.33334 2.4,-4.5 6.7,-6.96667 4.3,-2.5 9.76667,-2.5 5.53334,0 10.03334,2.76666 4.53334,2.73334 7.46667,7.73334 l 2.36667,-23.16668 h 8.93334 l -3.4,31.93335 1.93333,19.40001 h -8.86667 z m -27.56668,-9.26667 q 0,3.73333 1.53333,6.66667 1.56667,2.93333 4.33334,4.56667 2.76667,1.63333 6.26667,1.63333 3.5,0 6.56667,-1.6 3.1,-1.63333 5.46667,-4.53334 2.4,-2.9 3.83334,-6.73333 -1.43334,-3.8 -3.83334,-6.70001 -2.36667,-2.9 -5.46667,-4.53333 -3.06667,-1.63334 -6.56667,-1.63334 -3.5,0 -6.26667,1.66667 -2.76667,1.63334 -4.33334,4.56667 -1.53333,2.9 -1.53333,6.63334 z m 66.60003,19.80001 q -6.8,0 -12.03334,-2.46667 -5.2,-2.5 -8.1,-7 -2.86667,-4.50001 -2.86667,-10.33334 0,-5.83334 2.86667,-10.33334 2.9,-4.5 8.1,-6.96667 5.23334,-2.5 12.03334,-2.5 6.8,0 12.00001,2.5 5.23333,2.46667 8.1,6.96667 2.9,4.5 2.9,10.33334 0,5.83333 -2.9,10.33334 -2.86667,4.5 -8.1,7 -5.20001,2.46667 -12.00001,2.46667 z m -14.20001,-19.80001 q 0,3.96667 1.73334,6.9 1.73333,2.93334 4.93333,4.53334 3.2,1.56666 7.53334,1.56666 4.33334,0 7.53334,-1.56666 3.2,-1.6 4.93333,-4.53334 1.73334,-2.93333 1.73334,-6.9 0,-3.93334 -1.73334,-6.86667 -1.73333,-2.93334 -4.93333,-4.53334 -3.2,-1.6 -7.53334,-1.6 -4.33334,0 -7.53334,1.6 -3.2,1.6 -4.93333,4.53334 -1.73334,2.93333 -1.73334,6.86667 z m 39.26671,-16.13334 8.06667,-2.06667 3.6,-10.53334 h 5.06667 v 9.86667 h 17.53334 v 6.66667 h -17.53334 v 16.33334 q 0,3.16667 0.86667,5.03334 0.9,1.86667 2.76666,2.7 1.9,0.8 5.03334,0.8 2.86667,0 5.13334,-0.6 2.26666,-0.63333 4.4,-1.86667 v 7.13334 q -1.93334,1 -5.1,1.73333 -3.16667,0.73334 -6.30001,0.73334 -7.96667,0 -11.73334,-3.8 -3.73333,-3.83334 -3.73333,-10.53334 v -17.66668 h -8.06667 z m 65.80002,18.73334 q 0.4,3 2.5,5.26667 2.10001,2.26667 5.56667,3.5 3.50001,1.23333 8.00001,1.23333 4.43333,0 7.73334,-0.93333 3.3,-0.96667 5.06666,-2.73333 1.80001,-1.76667 1.80001,-4.13334 0,-2 -1,-3.26667 -0.96667,-1.26667 -3.23334,-2.03333 -2.23333,-0.8 -6.23334,-1.3 l -10.8,-1.4 q -6.10001,-0.80001 -9.90001,-2.50001 -3.76667,-1.7 -5.56667,-4.46667 -1.8,-2.8 -1.8,-6.9 0,-4.53333 2.76667,-7.9 2.76667,-3.4 7.83334,-5.23334 5.1,-1.86667 11.86667,-1.86667 6.66667,0 11.90001,2 5.26667,2.00001 8.33333,5.63334 3.06667,3.6 3.36667,8.30001 h -8.93334 q -0.33333,-2.63334 -2.23333,-4.60001 -1.9,-1.96667 -5.16667,-3.03333 -3.23333,-1.1 -7.46667,-1.1 -4.06667,0 -7.13334,0.9 -3.03333,0.9 -4.7,2.6 -1.63333,1.7 -1.63333,3.96667 0,1.83333 0.93333,3.03333 0.93333,1.16667 3.03334,1.96667 2.13333,0.76667 5.76667,1.26667 l 10.93333,1.53333 q 6.83334,0.93334 10.66668,2.53334 3.86667,1.56666 5.53333,4.16667 1.66667,2.6 1.66667,6.76667 0,4.76667 -2.93333,8.4 -2.93334,3.6 -8.26668,5.56667 -5.33333,1.96667 -12.33334,1.96667 -7.13333,0 -12.7,-2.13334 -5.53334,-2.16666 -8.73334,-6.06667 -3.16667,-3.9 -3.43334,-9 z m 88.33335,1.4 q -0.66667,4.63334 -3.66667,8.23334 -2.96667,3.6 -7.70001,5.6 -4.7,1.96667 -10.36667,1.96667 -6.46667,0 -11.5,-2.5 -5.00001,-2.50001 -7.80001,-7.00001 -2.76667,-4.5 -2.76667,-10.3 0,-5.80001 2.76667,-10.30001 2.8,-4.5 7.80001,-7 5.03333,-2.5 11.5,-2.5 5.66667,0 10.36667,2 4.73334,2 7.70001,5.6 3,3.6 3.66667,8.26667 h -8.73334 q -0.63334,-2.8 -2.43334,-4.83333 -1.8,-2.06667 -4.53333,-3.13334 -2.7,-1.1 -6.03334,-1.1 -4,0 -7,1.56667 -3,1.56667 -4.63334,4.5 -1.63333,2.93333 -1.63333,6.93334 0,4 1.63333,6.93333 1.63334,2.93334 4.63334,4.50001 3,1.56666 7,1.56666 3.33334,0 6.06667,-1.1 2.73334,-1.1 4.53334,-3.13333 1.8,-2.06667 2.4,-4.76667 z m 40.83341,5.5 q -2.93333,4.86667 -7.43333,7.60001 -4.50001,2.7 -9.93334,2.7 -5.46667,0 -9.76667,-2.46667 -4.30001,-2.5 -6.70001,-7 -2.4,-4.50001 -2.4,-10.33334 0,-5.83334 2.4,-10.33334 2.4,-4.5 6.70001,-6.96667 4.3,-2.5 9.76667,-2.5 5.46667,0 9.93334,2.7 4.5,2.7 7.43333,7.56667 l 0.96667,-9.33334 h 8.93334 l -2,18.86668 2,18.86667 h -8.93334 z m -27.43334,-9.5 q 0,3.73333 1.53333,6.66667 1.56667,2.93333 4.33334,4.56667 2.76666,1.63333 6.26667,1.63333 3.5,0 6.56667,-1.6 3.1,-1.63333 5.46666,-4.53334 2.40001,-2.9 3.83334,-6.73333 -1.43333,-3.8 -3.83334,-6.70001 -2.36666,-2.9 -5.46666,-4.53333 -3.06667,-1.63334 -6.56667,-1.63334 -3.50001,0 -6.26667,1.66667 -2.76667,1.63334 -4.33334,4.56667 -1.53333,2.9 -1.53333,6.63334 z m 54.3334,-32.46669 v 51.33336 h -8.66667 v -51.33336 z m 43.43332,41.96669 q -2.93334,4.86667 -7.43334,7.60001 -4.5,2.7 -9.93334,2.7 -5.46667,0 -9.76667,-2.46667 -4.3,-2.5 -6.7,-7 -2.40001,-4.50001 -2.40001,-10.33334 0,-5.83334 2.40001,-10.33334 2.4,-4.5 6.7,-6.96667 4.3,-2.5 9.76667,-2.5 5.46667,0 9.93334,2.7 4.5,2.7 7.43334,7.56667 l 0.96666,-9.33334 h 8.93334 l -2,18.86668 2,18.86667 h -8.93334 z m -27.43335,-9.5 q 0,3.73333 1.53333,6.66667 1.56667,2.93333 4.33334,4.56667 2.76667,1.63333 6.26667,1.63333 3.5,0 6.56667,-1.6 3.1,-1.63333 5.46667,-4.53334 2.4,-2.9 3.83333,-6.73333 -1.43333,-3.8 -3.83333,-6.70001 -2.36667,-2.9 -5.46667,-4.53333 -3.06667,-1.63334 -6.56667,-1.63334 -3.5,0 -6.26667,1.66667 -2.76667,1.63334 -4.33334,4.56667 -1.53333,2.9 -1.53333,6.63334 z m 54.3334,-32.46669 v 23.20002 q 2.93334,-5.00001 7.46667,-7.76668 4.53334,-2.76666 10.06668,-2.76666 5.46667,0 9.76667,2.5 4.3,2.46667 6.7,6.96667 2.4,4.5 2.4,10.33334 0,5.83333 -2.4,10.33334 -2.4,4.5 -6.7,7 -4.3,2.46667 -9.76667,2.46667 -5.53334,0 -10.06668,-2.8 -4.53333,-2.80001 -7.46667,-7.83334 v 9.7 h -8.66667 v -51.33336 z m -0.4,32.46669 q 1.43334,3.83333 3.8,6.73333 2.40001,2.90001 5.46667,4.53334 3.10001,1.6 6.60001,1.6 3.5,0 6.26667,-1.63333 2.76667,-1.63334 4.3,-4.56667 1.56667,-2.93334 1.56667,-6.66667 0,-3.73334 -1.56667,-6.63334 -1.53333,-2.93333 -4.3,-4.56667 -2.76667,-1.66667 -6.26667,-1.66667 -3.5,0 -6.60001,1.63334 -3.06666,1.63333 -5.46667,4.53333 -2.36666,2.90001 -3.8,6.70001 z m 48.33339,-18.33335 4.33334,-0.8 v 38.00002 h -8.66667 V 184.665 Z m -5.66667,-10.46667 q 0,-2.2 1.56667,-3.56667 1.6,-1.36666 4.1,-1.36666 2.5,0 4.06667,1.36666 1.6,1.36667 1.6,3.56667 0,2.2 -1.6,3.56667 -1.56667,1.36667 -4.06667,1.36667 -2.5,0 -4.1,-1.36667 -1.56667,-1.36667 -1.56667,-3.56667 z m 27.86671,-3.66667 v 51.33336 h -8.66668 v -51.33336 z m 13.5333,14.13334 4.33333,-0.8 v 38.00002 h -8.66667 V 184.665 Z m -5.66667,-10.46667 q 0,-2.2 1.56667,-3.56667 1.6,-1.36666 4.1,-1.36666 2.5,0 4.06667,1.36666 1.6,1.36667 1.6,3.56667 0,2.2 -1.6,3.56667 -1.56667,1.36667 -4.06667,1.36667 -2.5,0 -4.1,-1.36667 -1.56667,-1.36667 -1.56667,-3.56667 z m 14.9333,12.66668 8.06667,-2.06667 3.6,-10.53334 h 5.06667 v 9.86667 h 17.53335 v 6.66667 h -17.53335 v 16.33334 q 0,3.16667 0.86667,5.03334 0.9,1.86667 2.76667,2.7 1.9,0.8 5.03334,0.8 2.86666,0 5.13333,-0.6 2.26667,-0.63333 4.4,-1.86667 v 7.13334 q -1.93333,1 -5.1,1.73333 -3.16667,0.73334 -6.3,0.73334 -7.96667,0 -11.73334,-3.8 -3.73334,-3.83334 -3.73334,-10.53334 v -17.66668 h -8.06667 z m 49.93338,46.93335 q -6.1,0 -11.06667,-3.13333 v -6.60001 q 2.6,1.63334 4.9,2.33334 2.3,0.73333 5.1,0.73333 2.86667,0 4.96667,-1.3 2.1,-1.3 3.43334,-4.23333 l 0.43333,-0.93334 h -3.43334 l -17.33334,-36.53335 h 9.53334 l 13.83334,30.80002 13.96668,-30.80002 h 9.2 l -19.53334,40.40002 q -4.43334,9.26667 -14.00001,9.26667 z"
           id="path50" />
        <path
           style="font-family:Unbounded;-inkscape-font-specification:Unbounded;text-align:start;text-anchor:start"
           d="m 127.07927,257.00431 v 20.93335 h 31.86668 v -20.93335 h 8.80001 v 50.00003 h -8.80001 v -21.33335 h -31.86668 v 21.33335 h -8.80001 v -50.00003 z m 84.63337,40.63336 q -2.93334,4.86667 -7.43334,7.6 -4.5,2.7 -9.93334,2.7 -5.46667,0 -9.76667,-2.46667 -4.3,-2.5 -6.7,-7 -2.4,-4.5 -2.4,-10.33334 0,-5.83334 2.4,-10.33334 2.4,-4.5 6.7,-6.96667 4.3,-2.5 9.76667,-2.5 5.46667,0 9.93334,2.7 4.5,2.7 7.43334,7.56667 l 0.96667,-9.33334 h 8.93333 l -2,18.86668 2,18.86668 h -8.93333 z m -27.43335,-9.50001 q 0,3.73334 1.53333,6.66667 1.56667,2.93334 4.33334,4.56667 2.76667,1.63333 6.26667,1.63333 3.5,0 6.56667,-1.6 3.1,-1.63333 5.46667,-4.53333 2.4,-2.9 3.83333,-6.73334 -1.43333,-3.8 -3.83333,-6.7 -2.36667,-2.9 -5.46667,-4.53334 -3.06667,-1.63333 -6.56667,-1.63333 -3.5,0 -6.26667,1.66667 -2.76667,1.63333 -4.33334,4.56666 -1.53333,2.90001 -1.53333,6.63334 z m 87.33342,4 q -0.66666,4.63334 -3.66666,8.23334 -2.96667,3.6 -7.70001,5.6 -4.7,1.96667 -10.36667,1.96667 -6.46667,0 -11.50001,-2.5 -5,-2.5 -7.8,-7 -2.76667,-4.50001 -2.76667,-10.30001 0,-5.8 2.76667,-10.3 2.8,-4.50001 7.8,-7.00001 5.03334,-2.5 11.50001,-2.5 5.66667,0 10.36667,2 4.73334,2 7.70001,5.6 3,3.60001 3.66666,8.26668 h -8.73333 q -0.63334,-2.80001 -2.43334,-4.83334 -1.8,-2.06667 -4.53333,-3.13334 -2.7,-1.1 -6.03334,-1.1 -4,0 -7,1.56667 -3.00001,1.56667 -4.63334,4.5 -1.63333,2.93334 -1.63333,6.93334 0,4 1.63333,6.93334 1.63333,2.93333 4.63334,4.5 3,1.56667 7,1.56667 3.33334,0 6.06667,-1.1 2.73333,-1.1 4.53334,-3.13334 1.8,-2.06667 2.4,-4.76667 z m 6.60007,-36.46668 h 8.66667 v 39.76669 l 21.46668,-26.16669 h 10 l -13.3,15.66668 14.43334,22.06668 h -10.20001 l -9.73334,-15.60001 -13.26667,15.60001 h -8.06667 z m 78.29999,41.96669 q -2.93334,4.86667 -7.43334,7.6 -4.5,2.7 -9.93334,2.7 -5.46667,0 -9.76667,-2.46667 -4.3,-2.5 -6.7,-7 -2.40001,-4.5 -2.40001,-10.33334 0,-5.83334 2.40001,-10.33334 2.4,-4.5 6.7,-6.96667 4.3,-2.5 9.76667,-2.5 5.46667,0 9.93334,2.7 4.5,2.7 7.43334,7.56667 l 0.96666,-9.33334 h 8.93334 l -2,18.86668 2,18.86668 h -8.93334 z m -27.43335,-9.50001 q 0,3.73334 1.53333,6.66667 1.56667,2.93334 4.33334,4.56667 2.76667,1.63333 6.26667,1.63333 3.5,0 6.56667,-1.6 3.1,-1.63333 5.46667,-4.53333 2.4,-2.9 3.83333,-6.73334 -1.43333,-3.8 -3.83333,-6.7 -2.36667,-2.9 -5.46667,-4.53334 -3.06667,-1.63333 -6.56667,-1.63333 -3.5,0 -6.26667,1.66667 -2.76667,1.63333 -4.33334,4.56666 -1.53333,2.90001 -1.53333,6.63334 z m 41.40006,-16.13334 8.06667,-2.06667 3.60001,-10.53334 h 5.06666 v 9.86667 h 17.53335 v 6.66667 H 387.21282 V 292.271 q 0,3.16667 0.86667,5.03333 0.9,1.86667 2.76667,2.7 1.9,0.8 5.03334,0.8 2.86666,0 5.13333,-0.6 2.26667,-0.63333 4.4,-1.86666 v 7.13333 q -1.93333,1 -5.1,1.73334 -3.16667,0.73333 -6.3,0.73333 -7.96667,0 -11.73334,-3.8 -3.73334,-3.83334 -3.73334,-10.53334 v -17.66668 h -8.06667 z m 49.9334,-16.33334 v 21.23334 q 2.43334,-4.13333 6.30001,-6.33333 3.9,-2.23334 8.7,-2.23334 5.26667,0 9.00001,2.13334 3.76666,2.1 5.73333,6.13333 2,4 2,9.53334 v 20.86668 h -8.66667 v -19.46668 q 0,-5.9 -2.8,-8.93334 -2.76667,-3.06667 -8.06667,-3.06667 -3.66667,0 -6.43334,1.63334 -2.76666,1.6 -4.26667,4.56667 -1.5,2.96667 -1.5,6.86667 v 18.40001 h -8.66667 v -51.33336 z m 61.26669,52.26669 q -6.8,0 -12.03334,-2.46667 -5.2,-2.5 -8.1,-7 -2.86667,-4.5 -2.86667,-10.33334 0,-5.83334 2.86667,-10.33334 2.9,-4.5 8.1,-6.96667 5.23334,-2.5 12.03334,-2.5 6.8,0 12.00001,2.5 5.23333,2.46667 8.1,6.96667 2.9,4.5 2.9,10.33334 0,5.83334 -2.9,10.33334 -2.86667,4.5 -8.1,7 -5.20001,2.46667 -12.00001,2.46667 z m -14.20001,-19.80001 q 0,3.96667 1.73334,6.9 1.73333,2.93334 4.93333,4.53334 3.20001,1.56667 7.53334,1.56667 4.33334,0 7.53334,-1.56667 3.2,-1.6 4.93333,-4.53334 1.73334,-2.93333 1.73334,-6.9 0,-3.93333 -1.73334,-6.86667 -1.73333,-2.93333 -4.93333,-4.53333 -3.2,-1.60001 -7.53334,-1.60001 -4.33333,0 -7.53334,1.60001 -3.2,1.6 -4.93333,4.53333 -1.73334,2.93334 -1.73334,6.86667 z m 51.13335,-18.86668 1.5,9.06668 q 2.33334,-4.80001 6.43334,-7.40001 4.13334,-2.6 9.33334,-2.6 5.3,0 9.03334,2.13334 3.76667,2.1 5.73333,6.1 1.96667,4 1.96667,9.56667 v 20.86668 h -8.66667 v -19.46668 q 0,-5.9 -2.8,-8.93334 -2.76667,-3.06667 -8.06667,-3.06667 -3.66667,0 -6.43334,1.63334 -2.76667,1.6 -4.26667,4.56667 -1.5,2.96667 -1.5,6.86667 v 18.40001 h -8.66667 v -25.40002 l -2.26667,-12.33334 z"
           id="path51" />
      </g>
    </g>
    <g
       clip-path="url(#clip0_506_173-6)"
       id="g8"
       transform="translate(320.48904,-2.1538462)">
      <ellipse
         fill="#ed1166"
         transform="matrix(0.587425,-0.809279,0.807876,0.589353,926.225,157.932)"
         ry="158.688"
         rx="115.227"
         cy="158.688"
         cx="115.227"
         id="ellipse1" />
      <path
         fill="#8f0c4a"
         d="m 1028.36,36.6278 c 38.85,4.4225 82.41,24.5413 120.21,58.7105 64.17,58.0147 89.86,136.7727 63.81,185.9897 -43.68,18.392 -105.46,8.421 -157.95,-29.872 -70.808,-51.652 -97.9,-135.273 -60.518,-186.7745 8.918,-12.2911 20.708,-21.6419 34.448,-28.0537 z"
         clip-rule="evenodd"
         fill-rule="evenodd"
         id="path1-8" />
      <ellipse
         fill="#ff2670"
         transform="matrix(0.968345,-0.249615,0.248444,0.968646,905.415,79.1191)"
         ry="158.923"
         rx="108.117"
         cy="158.923"
         cx="108.117"
         id="ellipse2" />
      <path
         fill="#8f0c4a"
         d="m 1012.39,341.233 c 35.47,-23.441 62.48,-75.724 66.98,-138.097 4.91,-67.928 -18.32,-127.8666 -55.21,-153.2306 -4.71,0.2936 -9.4,1.0281 -14.05,2.2263 -57.822,14.9048 -87.018,95.9093 -65.211,180.9283 12.121,47.259 37.449,85.81 67.491,108.173 z"
         clip-rule="evenodd"
         fill-rule="evenodd"
         id="path2" />
      <ellipse
         fill="#ff2670"
         transform="matrix(0.970131,0.242583,-0.241441,0.970416,918.423,33.0428)"
         ry="158.793"
         rx="73.983597"
         cy="158.793"
         cx="73.983597"
         id="ellipse3" />
      <path
         fill="#a80950"
         d="m 870.823,248.094 c 23.223,-23.259 46.498,-55.27 66.127,-92.926 19.057,-36.557 31.794,-72.9033 37.816,-104.6319 -36.231,6.3508 -76.186,62.2639 -94.682,136.6019 -5.253,21.116 -8.282,41.736 -9.261,60.956 z"
         clip-rule="evenodd"
         fill-rule="evenodd"
         id="path3" />
      <ellipse
         fill="#ed1166"
         transform="matrix(0.812799,0.582544,-0.580614,0.814179,918.737,10.8337)"
         ry="158.942"
         rx="23.6096"
         cy="158.942"
         cx="23.6096"
         id="ellipse4" />
      <ellipse
         fill="#ed1166"
         transform="matrix(0.882693,-0.46995,0.468116,0.883667,592.397,-278.281)"
         ry="160.037"
         rx="115.671"
         cy="160.037"
         cx="115.671"
         id="ellipse5" />
      <ellipse
         fill="#ed1166"
         transform="matrix(0.344061,-0.938947,0.938388,0.345584,529,-80.2063)"
         ry="159.323"
         rx="111.49"
         cy="159.323"
         cx="111.49"
         id="ellipse6" />
      <path
         fill="#8f0c4a"
         d="m 870.39,-114.843 c 1.901,13.634 0.702,27.1932 -4.017,40.0724 -21.185,57.815 -105.296,80.0323 -187.866,49.6238 -1.076,-0.3962 -2.147,-0.7995 -3.212,-1.2096 -1.447,-13.7979 0.066,-27.655 4.931,-40.9325 21.185,-57.8151 97.921,-82.7481 171.394,-55.6901 6.508,2.397 12.772,5.121 18.77,8.136 z"
         clip-rule="evenodd"
         fill-rule="evenodd"
         id="path6" />
      <ellipse
         fill="#ff2670"
         transform="matrix(-0.229911,-0.973212,0.972953,-0.231005,577.664,82.9937)"
         ry="157.963"
         rx="84.361198"
         cy="157.963"
         cx="84.361198"
         id="ellipse7" />
      <ellipse
         fill="#c80858"
         transform="matrix(-0.579454,-0.815005,0.81363,-0.581383,651.648,190.31)"
         ry="159.177"
         rx="37.114601"
         cy="159.177"
         cx="37.114601"
         id="ellipse8" />
    </g>
  </g>
  <defs
     id="defs10">
    <path
       id="a"
       d="m1600 24.8v428.5c0 8.3-4.1 15.7-10.3 20.2-2.4 1.7-5.8 0.9-6.9-1.9-3.9-9.7-16.4-16.8-31.2-16.8-9.5 0-18 2.9-23.9 7.6-1.9 1.5-4.6 1.3-6.2-0.6-7.7-8.7-21.2-14.5-36.7-14.5-13.9 0-26.4 4.7-34.3 12-1.8 1.7-4.7 1.5-6.4-0.3-9.3-10.1-25.8-16.8-44.6-16.8-27.1 0-49.3 13.9-52.4 31.7-0.4 2.4-2.5 4.1-4.9 4.1h-1317c-13.9 0.2-25-10.9-25-24.6v-428.6c0-13.7 11.1-24.8 24.8-24.8h1550c13.8 0 24.9 11.1 24.9 24.8z" />
    <clipPath
       id="clip0_506_173">
      <rect
         fill="#ffffff"
         height="400"
         width="1600"
         id="rect8"
         x="0"
         y="0" />
    </clipPath>
    <clipPath
       id="e-3">
      <use
         xlink:href="#a"
         id="use10-0" />
    </clipPath>
    <clipPath
       id="clip0_506_173-6">
      <rect
         fill="#ffffff"
         height="400"
         width="1600"
         id="rect8-2"
         x="0"
         y="0" />
    </clipPath>
  </defs>
  <clipPath
     id="e">
    <use
       xlink:href="#a"
       id="use10" />
  </clipPath>
  <defs
     id="defs309">
    <ellipse
       id="c"
       cx="1552"
       cy="479"
       rx="18.6"
       ry="11.5" />
  </defs>
  <clipPath
     id="h">
    <use
       xlink:href="#c"
       id="use309" />
  </clipPath>
  <defs
     id="defs673">
    <ellipse
       id="d"
       cx="1484"
       cy="478.7"
       rx="27.9"
       ry="17.2" />
  </defs>
  <clipPath
     id="f">
    <use
       xlink:href="#d"
       id="use673" />
  </clipPath>
  <defs
     id="defs1037">
    <ellipse
       id="b"
       cx="1400"
       cy="479.2"
       rx="33.9"
       ry="20.8" />
  </defs>
  <clipPath
     id="g">
    <use
       xlink:href="#b"
       id="use1037" />
  </clipPath>
</svg>
