<svg enable-background="new 0 0 1600 500" version="1.1" viewBox="0 0 1600 500" xmlns="http://www.w3.org/2000/svg" xmlns:xlink="http://www.w3.org/1999/xlink">
 <style type="text/css">.st0{fill-rule:evenodd;clip-rule:evenodd;fill:#B8AEFF;}
	.st1{clip-path:url(#SVGID_00000016054164635802035250000001200050118798510261_);}
	.st2{fill:#383838;}
	.st3{fill:#1C1C1C;}
	.st4{fill:#666666;}
	.st5{clip-path:url(#SVGID_00000032634641444651344260000002664053189731801251_);}
	.st6{clip-path:url(#SVGID_00000062874434524593302630000006372448048365605797_);}</style>
 <path class="st0" d="m1600 24.84v428.5c0 8.31-4.08 15.66-10.34 20.17-2.4 1.73-5.84 0.86-6.95-1.88-3.92-9.72-16.41-16.83-31.21-16.83-9.47 0-17.99 2.91-23.93 7.55-1.91 1.49-4.64 1.25-6.24-0.56-7.66-8.68-21.22-14.45-36.68-14.45-13.95 0-26.37 4.71-34.28 12.01-1.84 1.7-4.72 1.55-6.42-0.29-9.32-10.07-25.83-16.76-44.62-16.76-27.05 0-49.35 13.85-52.36 31.7-0.4 2.39-2.49 4.14-4.91 4.14l-1317 0.04c-13.71 0-24.83-11.12-24.83-24.84v-428.5c0-13.72 11.12-24.84 24.83-24.84h1550c13.71 0 24.83 11.12 24.83 24.84z"/>
 <ellipse class="st0" cx="1399" cy="479.2" rx="33.87" ry="20.84"/>
 <ellipse class="st0" cx="1484" cy="478.7" rx="27.94" ry="17.19"/>
 <ellipse class="st0" cx="1552" cy="479" rx="18.65" ry="11.48"/>
 <defs>
  <ellipse id="a" cx="1484" cy="478.7" rx="27.94" ry="17.19"/>
 </defs>
 <clipPath id="b">
  <use xlink:href="#a"/>
 </clipPath>
 <g clip-path="url(#b)">
  <polygon class="st2" points="81.72 33.72 41.78 -22.71 12.88 40.1"/>
  <path class="st2" d="m116.9 83.41-35.16-49.69-28.9 62.8 60.6-5.61c3.66-0.33 5.58-4.5 3.46-7.5z"/>
  <polygon class="st3" points="12.88 40.1 52.82 96.53 81.72 33.72"/>
  <path class="st4" d="m41.78-22.71 39.94 56.43 25.45-55.29c1.54-3.34-1.12-7.09-4.78-6.75l-60.61 5.61z"/>
  <polygon class="st2" points="172 75.29 212 131.7 240.9 68.92"/>
  <path class="st2" d="m136.9 25.61 35.16 49.68 28.9-62.8-60.6 5.61c-3.66 0.34-5.58 4.51-3.46 7.51z"/>
  <polygon class="st3" points="240.9 68.92 201 12.49 172 75.29"/>
  <path class="st4" d="m212 131.7-39.94-56.43-25.45 55.29c-1.54 3.34 1.12 7.09 4.78 6.75l60.61-5.61z"/>
  <polygon class="st2" points="78.23 189.4 70.4 153.8 43.5 178.4"/>
  <path class="st2" d="m85.13 220.8-6.9-31.33-26.9 24.58 30.58 9.69c1.85 0.59 3.64-1.05 3.22-2.94z"/>
  <polygon class="st3" points="43.5 178.4 51.33 214 78.23 189.4"/>
  <path class="st4" d="m70.4 153.8 7.84 35.59 23.68-21.64c1.43-1.31 0.91-3.67-0.94-4.26l-30.58-9.69z"/>
  <polygon class="st2" points="113.6 228.1 121.4 263.7 148.3 239.1"/>
  <path class="st2" d="m106.7 196.8 6.9 31.33 26.9-24.58-30.58-9.69c-1.84-0.58-3.63 1.05-3.22 2.94z"/>
  <polygon class="st3" points="148.3 239.1 140.5 203.5 113.6 228.1"/>
  <path class="st4" d="m121.4 263.7-7.84-35.59-23.68 21.64c-1.43 1.31-0.91 3.67 0.94 4.26l30.58 9.69z"/>
  <polygon class="st2" points="193.8 -70.76 168.1 -107.2 149.4 -66.71"/>
  <path class="st2" d="m216.4-38.72-22.61-32.03-18.67 40.44 39.05-3.57c2.36-0.22 3.6-2.91 2.23-4.84z"/>
  <polygon class="st3" points="149.4 -66.71 175.1 -30.32 193.8 -70.76"/>
  <path class="st4" d="m168.1-107.2 25.69 36.39 16.44-35.6c0.99-2.15-0.71-4.57-3.07-4.35l-39.06 3.56z"/>
  <polygon class="st2" points="251.9 -43.91 277.6 -7.52 296.3 -47.96"/>
  <path class="st2" d="m229.3-75.94 22.61 32.03 18.67-40.44-39.05 3.57c-2.35 0.21-3.59 2.9-2.23 4.84z"/>
  <polygon class="st3" points="296.3 -47.96 270.6 -84.35 251.9 -43.91"/>
  <path class="st4" d="m277.6-7.52-25.69-36.39-16.44 35.6c-0.99 2.15 0.71 4.57 3.07 4.35l39.06-3.56z"/>
  <polygon class="st2" points="32.71 425.3 -22.17 438.8 16.96 479.6"/>
  <path class="st2" d="m81.02 413.4-48.32 11.88 39.13 40.78 13.87-47.78c0.84-2.89-1.76-5.6-4.68-4.88z"/>
  <polygon class="st3" points="16.96 479.6 71.84 466.1 32.71 425.3"/>
  <path class="st4" d="m-22.17 438.8 54.88-13.5-34.45-35.9c-2.08-2.17-5.73-1.27-6.56 1.61l-13.87 47.79z"/>
  <polygon class="st2" points="91.36 369 146.2 355.6 107.1 314.8"/>
  <path class="st2" d="m43.04 380.9 48.32-11.88-39.13-40.78-13.87 47.78c-0.84 2.89 1.76 5.6 4.68 4.88z"/>
  <polygon class="st3" points="107.1 314.8 52.23 328.3 91.36 369"/>
  <path class="st4" d="m146.2 355.6-54.88 13.5 34.45 35.9c2.08 2.17 5.73 1.27 6.56-1.61l13.87-47.79z"/>
  <polygon class="st2" points="504.6 174.4 508.7 113.1 453.5 140.2"/>
  <path class="st2" d="m500.9 228.4 3.65-53.99-55.18 27.08 44.93 30.15c2.71 1.82 6.38 0.02 6.6-3.24z"/>
  <polygon class="st3" points="453.5 140.2 449.4 201.5 504.6 174.4"/>
  <path class="st4" d="m508.7 113.1-4.14 61.32 48.58-23.84c2.93-1.44 3.21-5.51 0.5-7.34l-44.94-30.14z"/>
  <polygon class="st2" points="543.5 253.8 539.4 315.1 594.6 288"/>
  <path class="st2" d="m547.2 199.8-3.65 53.99 55.18-27.08-44.93-30.15c-2.71-1.82-6.38-0.03-6.6 3.24z"/>
  <polygon class="st3" points="594.6 288 598.7 226.7 543.5 253.8"/>
  <path class="st4" d="m539.4 315.1 4.14-61.32-48.58 23.84c-2.93 1.44-3.21 5.51-0.5 7.34l44.94 30.14z"/>
  <polygon class="st2" points="360.3 68.59 360.2 36.29 332.3 52.47"/>
  <path class="st2" d="m360.3 97.03-0.03-28.44-27.96 16.18 24.64 14.19c1.49 0.86 3.35-0.22 3.35-1.93z"/>
  <polygon class="st3" points="332.3 52.47 332.3 84.77 360.3 68.59"/>
  <path class="st4" d="m360.2 36.29 0.03 32.3 24.61-14.24c1.49-0.86 1.48-3.01 0-3.86l-24.64-14.2z"/>
  <polygon class="st2" points="383.6 108.8 383.6 141.1 411.5 124.9"/>
  <path class="st2" d="m383.5 80.36 0.03 28.44 27.96-16.18-24.64-14.19c-1.49-0.86-3.35 0.21-3.35 1.93z"/>
  <polygon class="st3" points="411.5 124.9 411.5 92.62 383.6 108.8"/>
  <path class="st4" d="m383.6 141.1-0.03-32.3-24.61 14.24c-1.49 0.86-1.48 3.01 0 3.86l24.64 14.2z"/>
  <polygon class="st2" points="285.6 218.2 321.8 205.6 292.7 180.6"/>
  <path class="st2" d="m253.7 229.4 31.84-11.12-29.02-25.01-6.29 33.14c-0.38 2 1.55 3.66 3.47 2.99z"/>
  <polygon class="st3" points="292.7 180.6 256.6 193.2 285.6 218.2"/>
  <path class="st4" d="m321.8 205.6-36.17 12.63 25.55 22.02c1.54 1.33 3.95 0.49 4.33-1.51l6.29-33.14z"/>
  <polygon class="st2" points="249.6 260 213.4 272.6 242.5 297.6"/>
  <path class="st2" d="m281.5 248.8-31.84 11.12 29.02 25.01 6.29-33.14c0.38-2-1.55-3.66-3.47-2.99z"/>
  <polygon class="st3" points="242.5 297.6 278.6 285 249.6 260"/>
  <path class="st4" d="m213.4 272.6 36.17-12.63-25.55-22.02c-1.54-1.33-3.95-0.49-4.33 1.51l-6.29 33.14z"/>
  <polygon class="st2" points="807.4 50.56 834.4 35.99 808.3 19.84"/>
  <path class="st2" d="m783.5 63.38 23.83-12.82-26.15-16.16-0.81 27.05c-0.04 1.63 1.69 2.71 3.13 1.93z"/>
  <polygon class="st3" points="808.3 19.84 781.2 34.4 807.4 50.56"/>
  <path class="st4" d="m834.4 35.99-27.06 14.57 23.02 14.22c1.39 0.86 3.19-0.11 3.24-1.74l0.8-27.05z"/>
  <polygon class="st2" points="784.1 88.16 757.1 102.7 783.2 118.9"/>
  <path class="st2" d="m808 75.34-23.83 12.82 26.15 16.16 0.81-27.05c0.05-1.63-1.69-2.7-3.13-1.93z"/>
  <polygon class="st3" points="783.2 118.9 810.3 104.3 784.1 88.16"/>
  <path class="st4" d="m757.1 102.7 27.06-14.57-23.02-14.22c-1.39-0.86-3.19 0.11-3.24 1.74l-0.8 27.05z"/>
  <polygon class="st2" points="487 -18.63 494.8 -48.34 465.2 -40.28"/>
  <path class="st2" d="m480.1 7.54 6.91-26.16-29.66 8.06 19.2 19.06c1.16 1.15 3.13 0.62 3.55-0.96z"/>
  <polygon class="st3" points="465.2 -40.28 457.3 -10.56 487 -18.63"/>
  <path class="st4" d="m494.8-48.34-7.85 29.72 26.11-7.1c1.58-0.43 2.1-2.4 0.94-3.55l-19.2-19.07z"/>
  <polygon class="st2" points="498.6 24.03 490.7 53.75 520.4 45.68"/>
  <path class="st2" d="m505.5-2.13-6.91 26.16 29.66-8.06-19.2-19.07c-1.16-1.15-3.13-0.61-3.55 0.97z"/>
  <polygon class="st3" points="520.4 45.68 528.2 15.97 498.6 24.03"/>
  <path class="st4" d="m490.7 53.75 7.85-29.72-26.11 7.1c-1.58 0.43-2.1 2.4-0.94 3.55l19.2 19.07z"/>
  <polygon class="st2" points="518.8 492.1 561.9 470.8 521.9 444.2"/>
  <path class="st2" d="m480.9 510.8 37.92-18.75-39.98-26.65-2.72 42.21c-0.16 2.55 2.49 4.32 4.78 3.19z"/>
  <polygon class="st3" points="521.9 444.2 478.8 465.4 518.8 492.1"/>
  <path class="st4" d="m561.9 470.8-43.07 21.3 35.19 23.46c2.13 1.42 4.99 0 5.15-2.55l2.73-42.21z"/>
  <polygon class="st2" points="480.5 549.6 437.4 570.9 477.4 597.5"/>
  <path class="st2" d="m518.4 530.8-37.92 18.75 39.98 26.65 2.72-42.21c0.16-2.55-2.49-4.32-4.78-3.19z"/>
  <polygon class="st3" points="477.4 597.5 520.4 576.2 480.5 549.6"/>
  <path class="st4" d="m437.4 570.9 43.07-21.3-35.19-23.46c-2.13-1.42-4.99 0-5.15 2.55l-2.73 42.21z"/>
  <polygon class="st2" points="845.2 363.8 901 322.7 837.6 294.8"/>
  <path class="st2" d="m796 399.9 49.19-36.12-63.47-27.88 6.68 60.66c0.41 3.66 4.63 5.52 7.6 3.34z"/>
  <polygon class="st3" points="837.6 294.8 781.7 335.9 845.2 363.8"/>
  <path class="st4" d="m901 322.7-55.88 41.02 55.87 24.55c3.37 1.48 7.09-1.24 6.68-4.91l-6.67-60.66z"/>
  <polygon class="st2" points="805.1 455 749.2 496 812.6 523.9"/>
  <path class="st2" d="m854.2 418.9-49.19 36.12 63.47 27.88-6.68-60.66c-0.41-3.67-4.63-5.52-7.6-3.34z"/>
  <polygon class="st3" points="812.6 523.9 868.5 482.9 805.1 455"/>
  <path class="st4" d="m749.2 496 55.88-41.02-55.87-24.55c-3.37-1.48-7.09 1.24-6.68 4.91l6.67 60.66z"/>
  <polygon class="st2" points="935 -26.41 963.9 -63.98 916.9 -70.29"/>
  <path class="st2" d="m909.4 6.66 25.51-33.08-47.03-6.31 15.89 38.63c0.96 2.34 4.09 2.76 5.63 0.76z"/>
  <polygon class="st3" points="916.9 -70.29 887.9 -32.72 935 -26.41"/>
  <path class="st4" d="m963.9-63.98-28.98 37.57 41.4 5.56c2.5 0.34 4.43-2.16 3.47-4.49l-15.89-38.64z"/>
  <polygon class="st2" points="925.9 41.22 896.9 78.79 943.9 85.1"/>
  <path class="st2" d="m951.4 8.15-25.51 33.08 47.03 6.31-15.9-38.64c-0.96-2.33-4.08-2.75-5.62-0.75z"/>
  <polygon class="st3" points="943.9 85.1 972.9 47.54 925.9 41.22"/>
  <path class="st4" d="m896.9 78.79 28.98-37.57-41.4-5.56c-2.5-0.34-4.43 2.16-3.47 4.49l15.89 38.64z"/>
  <polygon class="st2" points="1083 5.66 1074 -47.78 1033 -13.53"/>
  <path class="st2" d="m1091 52.7-7.65-47.05-41.93 34.25 44.57 16.89c2.69 1.03 5.48-1.24 5.01-4.09z"/>
  <polygon class="st3" points="1033 -13.53 1041 39.91 1083 5.66"/>
  <path class="st4" d="m1074-47.78 8.69 53.44 36.92-30.15c2.23-1.82 1.65-5.37-1.04-6.39l-44.57-16.9z"/>
  <polygon class="st2" points="1132 65.97 1141 119.4 1183 85.15"/>
  <path class="st2" d="m1125 18.92 7.65 47.05 41.93-34.25-44.57-16.89c-2.68-1.03-5.47 1.25-5.01 4.09z"/>
  <polygon class="st3" points="1183 85.15 1174 31.72 1132 65.97"/>
  <path class="st4" d="m1141 119.4-8.69-53.44-36.92 30.15c-2.23 1.82-1.65 5.37 1.04 6.39l44.57 16.9z"/>
  <polygon class="st2" points="1295 233.8 1247 284.2 1315 299.9"/>
  <path class="st2" d="m1336 189.3-41.63 44.44 67.36 15.71-17.67-58.27c-1.07-3.52-5.54-4.57-8.06-1.88z"/>
  <polygon class="st3" points="1315 299.9 1362 249.5 1295 233.8"/>
  <path class="st4" d="m1247 284.2 47.28-50.48-59.3-13.83c-3.58-0.84-6.72 2.52-5.66 6.04l17.68 58.27z"/>
  <polygon class="st2" points="1317 136.9 1364 86.4 1297 70.69"/>
  <path class="st2" d="m1276 181.3 41.63-44.44-67.36-15.71 17.67 58.27c1.07 3.52 5.55 4.56 8.06 1.88z"/>
  <polygon class="st3" points="1297 70.69 1250 121.2 1317 136.9"/>
  <path class="st4" d="m1364 86.4-47.28 50.48 59.3 13.83c3.58 0.84 6.72-2.52 5.66-6.04l-17.68-58.27z"/>
  <polygon class="st2" points="1506 185.4 1542 179.2 1518 151.2"/>
  <path class="st2" d="m1474 190.9 31.66-5.45-23.34-28.04-11.11 30.14c-0.68 1.81 0.87 3.68 2.79 3.35z"/>
  <polygon class="st3" points="1518 151.2 1482 157.4 1506 185.4"/>
  <path class="st4" d="m1542 179.2-35.96 6.19 20.55 24.69c1.24 1.49 3.63 1.08 4.3-0.74l11.11-30.14z"/>
  <polygon class="st2" points="1465 219 1429 225.2 1453 253.2"/>
  <path class="st2" d="m1497 213.5-31.66 5.45 23.34 28.04 11.11-30.14c0.68-1.82-0.87-3.68-2.79-3.35z"/>
  <polygon class="st3" points="1453 253.2 1489 247 1465 219"/>
  <path class="st4" d="m1429 225.2 35.96-6.19-20.55-24.69c-1.24-1.49-3.63-1.08-4.3 0.74l-11.11 30.14z"/>
  <polygon class="st2" points="1427 366.4 1448 310 1389 319.3"/>
  <path class="st2" d="m1407 416.1 19.2-49.69-59.79 9.33 33.43 41.47c2.03 2.51 6 1.89 7.16-1.11z"/>
  <polygon class="st3" points="1389 319.3 1367 375.7 1427 366.4"/>
  <path class="st4" d="m1448 310-21.81 56.44 52.63-8.22c3.18-0.5 4.63-4.25 2.61-6.75l-33.43-41.47z"/>
  <polygon class="st2" points="1440 452.4 1418 508.8 1478 499.5"/>
  <path class="st2" d="m1459 402.7-19.2 49.69 59.79-9.33-33.43-41.47c-2.03-2.51-6-1.89-7.16 1.11z"/>
  <polygon class="st3" points="1478 499.5 1500 443 1440 452.4"/>
  <path class="st4" d="m1418 508.8 21.81-56.44-52.63 8.22c-3.18 0.5-4.63 4.25-2.61 6.75l33.43 41.47z"/>
  <polygon class="st2" points="1471 42.76 1413 27.26 1429 85.66"/>
  <path class="st2" d="m1523 56.4-51.49-13.65 15.82 58.4 37.56-37.77c2.28-2.27 1.22-6.15-1.89-6.98z"/>
  <polygon class="st3" points="1429 85.66 1487 101.2 1471 42.76"/>
  <path class="st4" d="m1413 27.26 58.49 15.5-13.93-51.42c-0.84-3.11-4.73-4.14-7-1.85l-37.56 37.77z"/>
  <polygon class="st2" points="1555 20 1614 35.5 1598 -22.9"/>
  <path class="st2" d="m1504 6.36 51.5 13.64-15.82-58.4-37.56 37.77c-2.28 2.28-1.23 6.16 1.88 6.99z"/>
  <polygon class="st3" points="1598 -22.9 1539 -38.4 1555 20"/>
  <path class="st4" d="m1614 35.5-58.49-15.5 13.93 51.42c0.84 3.11 4.73 4.14 7 1.85l37.56-37.77z"/>
  <polygon class="st2" points="1550 329.8 1519 344.8 1547 364.6"/>
  <path class="st2" d="m1578 316.6-27.74 13.2 28.74 19.79 2.44-30.63c0.14-1.84-1.77-3.15-3.44-2.36z"/>
  <polygon class="st3" points="1547 364.6 1579 349.6 1550 329.8"/>
  <path class="st4" d="m1519 344.8 31.51-15-25.3-17.42c-1.53-1.05-3.62-0.06-3.77 1.79l-2.44 30.63z"/>
  <polygon class="st2" points="1579 288.4 1610 273.4 1581 253.6"/>
  <path class="st2" d="m1551 301.6 27.74-13.2-28.74-19.79-2.44 30.63c-0.15 1.84 1.76 3.16 3.44 2.36z"/>
  <polygon class="st3" points="1581 253.6 1550 268.6 1579 288.4"/>
  <path class="st4" d="m1610 273.4-31.51 15 25.3 17.42c1.53 1.05 3.62 0.06 3.77-1.79l2.44-30.63z"/>
  <polygon class="st2" points="1242 397.5 1259 362.4 1220 364.6"/>
  <path class="st2" d="m1226 428.3 15.55-30.87-39.2 2.23 18.96 28.9c1.15 1.75 3.75 1.6 4.69-0.26z"/>
  <polygon class="st3" points="1220 364.6 1202 399.7 1242 397.5"/>
  <path class="st4" d="m1259 362.4-17.67 35.06 34.51-1.97c2.08-0.12 3.26-2.45 2.11-4.19l-18.95-28.9z"/>
  <polygon class="st2" points="1245 453.8 1227 488.9 1266 486.7"/>
  <path class="st2" d="m1260 423-15.55 30.87 39.2-2.23-18.96-28.9c-1.15-1.76-3.75-1.61-4.69 0.26z"/>
  <polygon class="st3" points="1266 486.7 1284 451.6 1245 453.8"/>
  <path class="st4" d="m1227 488.9 17.67-35.06-34.51 1.97c-2.08 0.12-3.26 2.45-2.11 4.19l18.95 28.9z"/>
  <polygon class="st2" points="803.8 219.5 844.2 235.1 837.5 192.2"/>
  <path class="st2" d="m768.2 205.8 35.61 13.73-6.72-42.83-29.7 23.98c-1.79 1.45-1.34 4.3 0.81 5.12z"/>
  <polygon class="st3" points="837.5 192.2 797.1 176.6 803.8 219.5"/>
  <path class="st4" d="m844.2 235.1-40.45-15.59 5.92 37.71c0.36 2.28 3.05 3.31 4.84 1.87l29.69-23.99z"/>
  <polygon class="st2" points="742.2 229.2 701.7 213.6 708.5 256.4"/>
  <path class="st2" d="m777.8 242.9-35.61-13.73 6.72 42.83 29.7-23.98c1.78-1.44 1.34-4.29-0.81-5.12z"/>
  <polygon class="st3" points="708.5 256.4 748.9 272 742.2 229.2"/>
  <path class="st4" d="m701.7 213.6 40.45 15.59-5.92-37.71c-0.36-2.28-3.05-3.31-4.84-1.87l-29.69 23.99z"/>
  <polygon class="st2" points="658.9 364 696.2 356.4 670.9 327.9"/>
  <path class="st2" d="m626.1 370.7 32.82-6.69-25.22-28.48-10.61 31.77c-0.64 1.91 1.03 3.8 3.01 3.4z"/>
  <polygon class="st3" points="670.9 327.9 633.7 335.5 658.9 364"/>
  <path class="st4" d="m696.2 356.4-37.28 7.6 22.21 25.08c1.34 1.51 3.82 1.01 4.46-0.91l10.61-31.77z"/>
  <polygon class="st2" points="617.9 400.3 580.6 407.9 605.9 436.4"/>
  <path class="st2" d="m650.7 393.6-32.82 6.69 25.22 28.48 10.61-31.77c0.65-1.91-1.03-3.8-3.01-3.4z"/>
  <polygon class="st3" points="605.9 436.4 643.1 428.8 617.9 400.3"/>
  <path class="st4" d="m580.6 407.9 37.28-7.6-22.21-25.08c-1.34-1.51-3.82-1.01-4.46 0.91l-10.61 31.77z"/>
  <polygon class="st2" points="964.5 172.1 994 157.9 967 139.4"/>
  <path class="st2" d="m938.5 184.6 26-12.49-27.06-18.48-2.18 28.77c-0.13 1.72 1.67 2.95 3.24 2.2z"/>
  <polygon class="st3" points="967 139.4 937.4 153.6 964.5 172.1"/>
  <path class="st4" d="m994 157.9-29.54 14.19 23.82 16.27c1.44 0.98 3.4 0.04 3.53-1.7l2.19-28.76z"/>
  <polygon class="st2" points="937.9 211 908.4 225.2 935.4 243.7"/>
  <path class="st2" d="m963.9 198.5-26 12.49 27.06 18.48 2.18-28.77c0.13-1.73-1.67-2.96-3.24-2.2z"/>
  <polygon class="st3" points="935.4 243.7 965 229.5 937.9 211"/>
  <path class="st4" d="m908.4 225.2 29.54-14.19-23.82-16.27c-1.44-0.98-3.4-0.04-3.53 1.7l-2.19 28.76z"/>
  <polygon class="st2" points="1302 10.28 1328 29.56 1332 -3.03"/>
  <path class="st2" d="m1279-6.7 23.33 16.98 3.45-32.59-26.37 11.71c-1.58 0.71-1.81 2.88-0.41 3.9z"/>
  <polygon class="st3" points="1332 -3.03 1305 -22.31 1302 10.28"/>
  <path class="st4" d="m1328 29.56-26.49-19.28-3.04 28.69c-0.18 1.73 1.58 3.01 3.17 2.31l26.36-11.72z"/>
  <polygon class="st2" points="1255 5.31 1229 -13.97 1225 18.62"/>
  <path class="st2" d="m1278 22.29-23.33-16.98-3.45 32.59 26.37-11.71c1.59-0.71 1.82-2.88 0.41-3.9z"/>
  <polygon class="st3" points="1225 18.62 1252 37.9 1255 5.31"/>
  <path class="st4" d="m1229-13.97 26.49 19.28 3.04-28.69c0.18-1.73-1.58-3.01-3.17-2.31l-26.36 11.72z"/>
  <polygon class="st2" points="649.9 26.87 683.6 -10.49 634.4 -21"/>
  <path class="st2" d="m620.3 59.75 29.68-32.88-49.2-10.51 13.64 42.14c0.82 2.54 4.09 3.24 5.88 1.25z"/>
  <polygon class="st3" points="634.4 -21 600.7 16.35 649.9 26.87"/>
  <path class="st4" d="m683.6-10.49-33.71 37.35 43.32 9.26c2.62 0.56 4.86-1.92 4.03-4.47l-13.64-42.14z"/>
  <polygon class="st2" points="634.8 97.63 601.1 135 650.3 145.5"/>
  <path class="st2" d="m664.5 64.74-29.68 32.88 49.2 10.51-13.64-42.13c-0.82-2.54-4.09-3.24-5.88-1.26z"/>
  <polygon class="st3" points="650.3 145.5 684 108.1 634.8 97.63"/>
  <path class="st4" d="m601.1 135 33.71-37.35-43.32-9.26c-2.62-0.56-4.86 1.92-4.03 4.47l13.64 42.14z"/>
  <polygon class="st2" points="1081 384.5 1138 361.2 1089 323.5"/>
  <path class="st2" d="m1031 405 50.17-20.53-48.69-37.69-7.31 53.71c-0.43 3.25 2.8 5.75 5.83 4.51z"/>
  <polygon class="st3" points="1089 323.5 1032 346.8 1081 384.5"/>
  <path class="st4" d="m1138 361.2-56.99 23.32 42.86 33.18c2.59 2 6.38 0.45 6.82-2.79l7.31-53.71z"/>
  <polygon class="st2" points="1027 454.6 969.5 477.9 1018 515.6"/>
  <path class="st2" d="m1077 434-50.17 20.53 48.69 37.69 7.31-53.71c0.44-3.25-2.8-5.75-5.83-4.51z"/>
  <polygon class="st3" points="1018 515.6 1075 492.2 1027 454.6"/>
  <path class="st4" d="m969.5 477.9 56.99-23.32-42.86-33.18c-2.59-2-6.38-0.45-6.82 2.79l-7.31 53.71z"/>
  <polygon class="st2" points="1090 216.7 1056 185 1045 230.2"/>
  <path class="st2" d="m1119 244.5-29.79-27.86-10.48 45.13 39.02-11.87c2.35-0.72 3.05-3.72 1.25-5.4z"/>
  <polygon class="st3" points="1045 230.2 1079 261.8 1090 216.7"/>
  <path class="st4" d="m1056 185 33.84 31.64 9.23-39.73c0.56-2.4-1.69-4.5-4.05-3.79l-39.02 11.88z"/>
  <polygon class="st2" points="1155 231.8 1188 263.4 1199 218.3"/>
  <path class="st2" d="m1125 203.9 29.79 27.86 10.48-45.13-39.02 11.87c-2.36 0.72-3.05 3.71-1.25 5.4z"/>
  <polygon class="st3" points="1199 218.3 1165 186.6 1155 231.8"/>
  <path class="st4" d="m1188 263.4-33.84-31.64-9.23 39.73c-0.56 2.4 1.69 4.5 4.05 3.79l39.02-11.88z"/>
  <polygon class="st2" points="392.2 331.2 385.7 291.8 354.8 317.1"/>
  <path class="st2" d="m397.8 365.9-5.68-34.69-30.9 25.28 32.88 12.43c1.99 0.76 4.05-0.92 3.7-3.02z"/>
  <polygon class="st3" points="354.8 317.1 361.3 356.5 392.2 331.2"/>
  <path class="st4" d="m385.7 291.8 6.45 39.4 27.2-22.26c1.64-1.34 1.21-3.96-0.77-4.71l-32.88-12.43z"/>
  <polygon class="st2" points="428.5 375.6 435 415 465.9 389.7"/>
  <path class="st2" d="m422.8 340.9 5.68 34.69 30.9-25.28-32.88-12.43c-1.99-0.76-4.04 0.92-3.7 3.02z"/>
  <polygon class="st3" points="465.9 389.7 459.4 350.3 428.5 375.6"/>
  <path class="st4" d="m435 415-6.45-39.4-27.2 22.26c-1.64 1.34-1.21 3.96 0.77 4.71l32.88 12.43z"/>
  <polygon class="st2" points="225.7 400 205.6 360.1 181.2 397.4"/>
  <path class="st2" d="m243.4 435-17.69-35.06-24.44 37.31 39.2 2.21c2.37 0.14 4-2.34 2.93-4.46z"/>
  <polygon class="st3" points="181.2 397.4 201.3 437.3 225.7 400"/>
  <path class="st4" d="m205.6 360.1 20.09 39.82 21.52-32.85c1.3-1.98-0.04-4.63-2.4-4.76l-39.21-2.21z"/>
  <polygon class="st2" points="279.4 435.1 299.5 474.9 323.9 437.6"/>
  <path class="st2" d="m261.7 400 17.69 35.06 24.44-37.31-39.2-2.21c-2.37-0.13-4 2.34-2.93 4.46z"/>
  <polygon class="st3" points="323.9 437.6 303.8 397.8 279.4 435.1"/>
  <path class="st4" d="m299.5 474.9-20.09-39.82-21.52 32.85c-1.3 1.98 0.04 4.63 2.4 4.76l39.21 2.21z"/>
 </g>
 <defs>
  <ellipse id="e" cx="1399" cy="479.2" rx="33.87" ry="20.84"/>
 </defs>
 <clipPath id="d">
  <use xlink:href="#e"/>
 </clipPath>
 <g clip-path="url(#d)">
  <polygon class="st2" points="81.72 33.72 41.78 -22.71 12.88 40.1"/>
  <path class="st2" d="m116.9 83.41-35.16-49.69-28.9 62.8 60.6-5.61c3.66-0.33 5.58-4.5 3.46-7.5z"/>
  <polygon class="st3" points="12.88 40.1 52.82 96.53 81.72 33.72"/>
  <path class="st4" d="m41.78-22.71 39.94 56.43 25.45-55.29c1.54-3.34-1.12-7.09-4.78-6.75l-60.61 5.61z"/>
  <polygon class="st2" points="172 75.29 212 131.7 240.9 68.92"/>
  <path class="st2" d="m136.9 25.61 35.16 49.68 28.9-62.8-60.6 5.61c-3.66 0.34-5.58 4.51-3.46 7.51z"/>
  <polygon class="st3" points="240.9 68.92 201 12.49 172 75.29"/>
  <path class="st4" d="m212 131.7-39.94-56.43-25.45 55.29c-1.54 3.34 1.12 7.09 4.78 6.75l60.61-5.61z"/>
  <polygon class="st2" points="78.23 189.4 70.4 153.8 43.5 178.4"/>
  <path class="st2" d="m85.13 220.8-6.9-31.33-26.9 24.58 30.58 9.69c1.85 0.59 3.64-1.05 3.22-2.94z"/>
  <polygon class="st3" points="43.5 178.4 51.33 214 78.23 189.4"/>
  <path class="st4" d="m70.4 153.8 7.84 35.59 23.68-21.64c1.43-1.31 0.91-3.67-0.94-4.26l-30.58-9.69z"/>
  <polygon class="st2" points="113.6 228.1 121.4 263.7 148.3 239.1"/>
  <path class="st2" d="m106.7 196.8 6.9 31.33 26.9-24.58-30.58-9.69c-1.84-0.58-3.63 1.05-3.22 2.94z"/>
  <polygon class="st3" points="148.3 239.1 140.5 203.5 113.6 228.1"/>
  <path class="st4" d="m121.4 263.7-7.84-35.59-23.68 21.64c-1.43 1.31-0.91 3.67 0.94 4.26l30.58 9.69z"/>
  <polygon class="st2" points="193.8 -70.76 168.1 -107.2 149.4 -66.71"/>
  <path class="st2" d="m216.4-38.72-22.61-32.03-18.67 40.44 39.05-3.57c2.36-0.22 3.6-2.91 2.23-4.84z"/>
  <polygon class="st3" points="149.4 -66.71 175.1 -30.32 193.8 -70.76"/>
  <path class="st4" d="m168.1-107.2 25.69 36.39 16.44-35.6c0.99-2.15-0.71-4.57-3.07-4.35l-39.06 3.56z"/>
  <polygon class="st2" points="251.9 -43.91 277.6 -7.52 296.3 -47.96"/>
  <path class="st2" d="m229.3-75.94 22.61 32.03 18.67-40.44-39.05 3.57c-2.35 0.21-3.59 2.9-2.23 4.84z"/>
  <polygon class="st3" points="296.3 -47.96 270.6 -84.35 251.9 -43.91"/>
  <path class="st4" d="m277.6-7.52-25.69-36.39-16.44 35.6c-0.99 2.15 0.71 4.57 3.07 4.35l39.06-3.56z"/>
  <polygon class="st2" points="32.71 425.3 -22.17 438.8 16.96 479.6"/>
  <path class="st2" d="m81.02 413.4-48.32 11.88 39.13 40.78 13.87-47.78c0.84-2.89-1.76-5.6-4.68-4.88z"/>
  <polygon class="st3" points="16.96 479.6 71.84 466.1 32.71 425.3"/>
  <path class="st4" d="m-22.17 438.8 54.88-13.5-34.45-35.9c-2.08-2.17-5.73-1.27-6.56 1.61l-13.87 47.79z"/>
  <polygon class="st2" points="91.36 369 146.2 355.6 107.1 314.8"/>
  <path class="st2" d="m43.04 380.9 48.32-11.88-39.13-40.78-13.87 47.78c-0.84 2.89 1.76 5.6 4.68 4.88z"/>
  <polygon class="st3" points="107.1 314.8 52.23 328.3 91.36 369"/>
  <path class="st4" d="m146.2 355.6-54.88 13.5 34.45 35.9c2.08 2.17 5.73 1.27 6.56-1.61l13.87-47.79z"/>
  <polygon class="st2" points="504.6 174.4 508.7 113.1 453.5 140.2"/>
  <path class="st2" d="m500.9 228.4 3.65-53.99-55.18 27.08 44.93 30.15c2.71 1.82 6.38 0.02 6.6-3.24z"/>
  <polygon class="st3" points="453.5 140.2 449.4 201.5 504.6 174.4"/>
  <path class="st4" d="m508.7 113.1-4.14 61.32 48.58-23.84c2.93-1.44 3.21-5.51 0.5-7.34l-44.94-30.14z"/>
  <polygon class="st2" points="543.5 253.8 539.4 315.1 594.6 288"/>
  <path class="st2" d="m547.2 199.8-3.65 53.99 55.18-27.08-44.93-30.15c-2.71-1.82-6.38-0.03-6.6 3.24z"/>
  <polygon class="st3" points="594.6 288 598.7 226.7 543.5 253.8"/>
  <path class="st4" d="m539.4 315.1 4.14-61.32-48.58 23.84c-2.93 1.44-3.21 5.51-0.5 7.34l44.94 30.14z"/>
  <polygon class="st2" points="360.3 68.59 360.2 36.29 332.3 52.47"/>
  <path class="st2" d="m360.3 97.03-0.03-28.44-27.96 16.18 24.64 14.19c1.49 0.86 3.35-0.22 3.35-1.93z"/>
  <polygon class="st3" points="332.3 52.47 332.3 84.77 360.3 68.59"/>
  <path class="st4" d="m360.2 36.29 0.03 32.3 24.61-14.24c1.49-0.86 1.48-3.01 0-3.86l-24.64-14.2z"/>
  <polygon class="st2" points="383.6 108.8 383.6 141.1 411.5 124.9"/>
  <path class="st2" d="m383.5 80.36 0.03 28.44 27.96-16.18-24.64-14.19c-1.49-0.86-3.35 0.21-3.35 1.93z"/>
  <polygon class="st3" points="411.5 124.9 411.5 92.62 383.6 108.8"/>
  <path class="st4" d="m383.6 141.1-0.03-32.3-24.61 14.24c-1.49 0.86-1.48 3.01 0 3.86l24.64 14.2z"/>
  <polygon class="st2" points="285.6 218.2 321.8 205.6 292.7 180.6"/>
  <path class="st2" d="m253.7 229.4 31.84-11.12-29.02-25.01-6.29 33.14c-0.38 2 1.55 3.66 3.47 2.99z"/>
  <polygon class="st3" points="292.7 180.6 256.6 193.2 285.6 218.2"/>
  <path class="st4" d="m321.8 205.6-36.17 12.63 25.55 22.02c1.54 1.33 3.95 0.49 4.33-1.51l6.29-33.14z"/>
  <polygon class="st2" points="249.6 260 213.4 272.6 242.5 297.6"/>
  <path class="st2" d="m281.5 248.8-31.84 11.12 29.02 25.01 6.29-33.14c0.38-2-1.55-3.66-3.47-2.99z"/>
  <polygon class="st3" points="242.5 297.6 278.6 285 249.6 260"/>
  <path class="st4" d="m213.4 272.6 36.17-12.63-25.55-22.02c-1.54-1.33-3.95-0.49-4.33 1.51l-6.29 33.14z"/>
  <polygon class="st2" points="807.4 50.56 834.4 35.99 808.3 19.84"/>
  <path class="st2" d="m783.5 63.38 23.83-12.82-26.15-16.16-0.81 27.05c-0.04 1.63 1.69 2.71 3.13 1.93z"/>
  <polygon class="st3" points="808.3 19.84 781.2 34.4 807.4 50.56"/>
  <path class="st4" d="m834.4 35.99-27.06 14.57 23.02 14.22c1.39 0.86 3.19-0.11 3.24-1.74l0.8-27.05z"/>
  <polygon class="st2" points="784.1 88.16 757.1 102.7 783.2 118.9"/>
  <path class="st2" d="m808 75.34-23.83 12.82 26.15 16.16 0.81-27.05c0.05-1.63-1.69-2.7-3.13-1.93z"/>
  <polygon class="st3" points="783.2 118.9 810.3 104.3 784.1 88.16"/>
  <path class="st4" d="m757.1 102.7 27.06-14.57-23.02-14.22c-1.39-0.86-3.19 0.11-3.24 1.74l-0.8 27.05z"/>
  <polygon class="st2" points="487 -18.63 494.8 -48.34 465.2 -40.28"/>
  <path class="st2" d="m480.1 7.54 6.91-26.16-29.66 8.06 19.2 19.06c1.16 1.15 3.13 0.62 3.55-0.96z"/>
  <polygon class="st3" points="465.2 -40.28 457.3 -10.56 487 -18.63"/>
  <path class="st4" d="m494.8-48.34-7.85 29.72 26.11-7.1c1.58-0.43 2.1-2.4 0.94-3.55l-19.2-19.07z"/>
  <polygon class="st2" points="498.6 24.03 490.7 53.75 520.4 45.68"/>
  <path class="st2" d="m505.5-2.13-6.91 26.16 29.66-8.06-19.2-19.07c-1.16-1.15-3.13-0.61-3.55 0.97z"/>
  <polygon class="st3" points="520.4 45.68 528.2 15.97 498.6 24.03"/>
  <path class="st4" d="m490.7 53.75 7.85-29.72-26.11 7.1c-1.58 0.43-2.1 2.4-0.94 3.55l19.2 19.07z"/>
  <polygon class="st2" points="518.8 492.1 561.9 470.8 521.9 444.2"/>
  <path class="st2" d="m480.9 510.8 37.92-18.75-39.98-26.65-2.72 42.21c-0.16 2.55 2.49 4.32 4.78 3.19z"/>
  <polygon class="st3" points="521.9 444.2 478.8 465.4 518.8 492.1"/>
  <path class="st4" d="m561.9 470.8-43.07 21.3 35.19 23.46c2.13 1.42 4.99 0 5.15-2.55l2.73-42.21z"/>
  <polygon class="st2" points="480.5 549.6 437.4 570.9 477.4 597.5"/>
  <path class="st2" d="m518.4 530.8-37.92 18.75 39.98 26.65 2.72-42.21c0.16-2.55-2.49-4.32-4.78-3.19z"/>
  <polygon class="st3" points="477.4 597.5 520.4 576.2 480.5 549.6"/>
  <path class="st4" d="m437.4 570.9 43.07-21.3-35.19-23.46c-2.13-1.42-4.99 0-5.15 2.55l-2.73 42.21z"/>
  <polygon class="st2" points="845.2 363.8 901 322.7 837.6 294.8"/>
  <path class="st2" d="m796 399.9 49.19-36.12-63.47-27.88 6.68 60.66c0.41 3.66 4.63 5.52 7.6 3.34z"/>
  <polygon class="st3" points="837.6 294.8 781.7 335.9 845.2 363.8"/>
  <path class="st4" d="m901 322.7-55.88 41.02 55.87 24.55c3.37 1.48 7.09-1.24 6.68-4.91l-6.67-60.66z"/>
  <polygon class="st2" points="805.1 455 749.2 496 812.6 523.9"/>
  <path class="st2" d="m854.2 418.9-49.19 36.12 63.47 27.88-6.68-60.66c-0.41-3.67-4.63-5.52-7.6-3.34z"/>
  <polygon class="st3" points="812.6 523.9 868.5 482.9 805.1 455"/>
  <path class="st4" d="m749.2 496 55.88-41.02-55.87-24.55c-3.37-1.48-7.09 1.24-6.68 4.91l6.67 60.66z"/>
  <polygon class="st2" points="935 -26.41 963.9 -63.98 916.9 -70.29"/>
  <path class="st2" d="m909.4 6.66 25.51-33.08-47.03-6.31 15.89 38.63c0.96 2.34 4.09 2.76 5.63 0.76z"/>
  <polygon class="st3" points="916.9 -70.29 887.9 -32.72 935 -26.41"/>
  <path class="st4" d="m963.9-63.98-28.98 37.57 41.4 5.56c2.5 0.34 4.43-2.16 3.47-4.49l-15.89-38.64z"/>
  <polygon class="st2" points="925.9 41.22 896.9 78.79 943.9 85.1"/>
  <path class="st2" d="m951.4 8.15-25.51 33.08 47.03 6.31-15.9-38.64c-0.96-2.33-4.08-2.75-5.62-0.75z"/>
  <polygon class="st3" points="943.9 85.1 972.9 47.54 925.9 41.22"/>
  <path class="st4" d="m896.9 78.79 28.98-37.57-41.4-5.56c-2.5-0.34-4.43 2.16-3.47 4.49l15.89 38.64z"/>
  <polygon class="st2" points="1083 5.66 1074 -47.78 1033 -13.53"/>
  <path class="st2" d="m1091 52.7-7.65-47.05-41.93 34.25 44.57 16.89c2.69 1.03 5.48-1.24 5.01-4.09z"/>
  <polygon class="st3" points="1033 -13.53 1041 39.91 1083 5.66"/>
  <path class="st4" d="m1074-47.78 8.69 53.44 36.92-30.15c2.23-1.82 1.65-5.37-1.04-6.39l-44.57-16.9z"/>
  <polygon class="st2" points="1132 65.97 1141 119.4 1183 85.15"/>
  <path class="st2" d="m1125 18.92 7.65 47.05 41.93-34.25-44.57-16.89c-2.68-1.03-5.47 1.25-5.01 4.09z"/>
  <polygon class="st3" points="1183 85.15 1174 31.72 1132 65.97"/>
  <path class="st4" d="m1141 119.4-8.69-53.44-36.92 30.15c-2.23 1.82-1.65 5.37 1.04 6.39l44.57 16.9z"/>
  <polygon class="st2" points="1295 233.8 1247 284.2 1315 299.9"/>
  <path class="st2" d="m1336 189.3-41.63 44.44 67.36 15.71-17.67-58.27c-1.07-3.52-5.54-4.57-8.06-1.88z"/>
  <polygon class="st3" points="1315 299.9 1362 249.5 1295 233.8"/>
  <path class="st4" d="m1247 284.2 47.28-50.48-59.3-13.83c-3.58-0.84-6.72 2.52-5.66 6.04l17.68 58.27z"/>
  <polygon class="st2" points="1317 136.9 1364 86.4 1297 70.69"/>
  <path class="st2" d="m1276 181.3 41.63-44.44-67.36-15.71 17.67 58.27c1.07 3.52 5.55 4.56 8.06 1.88z"/>
  <polygon class="st3" points="1297 70.69 1250 121.2 1317 136.9"/>
  <path class="st4" d="m1364 86.4-47.28 50.48 59.3 13.83c3.58 0.84 6.72-2.52 5.66-6.04l-17.68-58.27z"/>
  <polygon class="st2" points="1506 185.4 1542 179.2 1518 151.2"/>
  <path class="st2" d="m1474 190.9 31.66-5.45-23.34-28.04-11.11 30.14c-0.68 1.81 0.87 3.68 2.79 3.35z"/>
  <polygon class="st3" points="1518 151.2 1482 157.4 1506 185.4"/>
  <path class="st4" d="m1542 179.2-35.96 6.19 20.55 24.69c1.24 1.49 3.63 1.08 4.3-0.74l11.11-30.14z"/>
  <polygon class="st2" points="1465 219 1429 225.2 1453 253.2"/>
  <path class="st2" d="m1497 213.5-31.66 5.45 23.34 28.04 11.11-30.14c0.68-1.82-0.87-3.68-2.79-3.35z"/>
  <polygon class="st3" points="1453 253.2 1489 247 1465 219"/>
  <path class="st4" d="m1429 225.2 35.96-6.19-20.55-24.69c-1.24-1.49-3.63-1.08-4.3 0.74l-11.11 30.14z"/>
  <polygon class="st2" points="1427 366.4 1448 310 1389 319.3"/>
  <path class="st2" d="m1407 416.1 19.2-49.69-59.79 9.33 33.43 41.47c2.03 2.51 6 1.89 7.16-1.11z"/>
  <polygon class="st3" points="1389 319.3 1367 375.7 1427 366.4"/>
  <path class="st4" d="m1448 310-21.81 56.44 52.63-8.22c3.18-0.5 4.63-4.25 2.61-6.75l-33.43-41.47z"/>
  <polygon class="st2" points="1440 452.4 1418 508.8 1478 499.5"/>
  <path class="st2" d="m1459 402.7-19.2 49.69 59.79-9.33-33.43-41.47c-2.03-2.51-6-1.89-7.16 1.11z"/>
  <polygon class="st3" points="1478 499.5 1500 443 1440 452.4"/>
  <path class="st4" d="m1418 508.8 21.81-56.44-52.63 8.22c-3.18 0.5-4.63 4.25-2.61 6.75l33.43 41.47z"/>
  <polygon class="st2" points="1471 42.76 1413 27.26 1429 85.66"/>
  <path class="st2" d="m1523 56.4-51.49-13.65 15.82 58.4 37.56-37.77c2.28-2.27 1.22-6.15-1.89-6.98z"/>
  <polygon class="st3" points="1429 85.66 1487 101.2 1471 42.76"/>
  <path class="st4" d="m1413 27.26 58.49 15.5-13.93-51.42c-0.84-3.11-4.73-4.14-7-1.85l-37.56 37.77z"/>
  <polygon class="st2" points="1555 20 1614 35.5 1598 -22.9"/>
  <path class="st2" d="m1504 6.36 51.5 13.64-15.82-58.4-37.56 37.77c-2.28 2.28-1.23 6.16 1.88 6.99z"/>
  <polygon class="st3" points="1598 -22.9 1539 -38.4 1555 20"/>
  <path class="st4" d="m1614 35.5-58.49-15.5 13.93 51.42c0.84 3.11 4.73 4.14 7 1.85l37.56-37.77z"/>
  <polygon class="st2" points="1550 329.8 1519 344.8 1547 364.6"/>
  <path class="st2" d="m1578 316.6-27.74 13.2 28.74 19.79 2.44-30.63c0.14-1.84-1.77-3.15-3.44-2.36z"/>
  <polygon class="st3" points="1547 364.6 1579 349.6 1550 329.8"/>
  <path class="st4" d="m1519 344.8 31.51-15-25.3-17.42c-1.53-1.05-3.62-0.06-3.77 1.79l-2.44 30.63z"/>
  <polygon class="st2" points="1579 288.4 1610 273.4 1581 253.6"/>
  <path class="st2" d="m1551 301.6 27.74-13.2-28.74-19.79-2.44 30.63c-0.15 1.84 1.76 3.16 3.44 2.36z"/>
  <polygon class="st3" points="1581 253.6 1550 268.6 1579 288.4"/>
  <path class="st4" d="m1610 273.4-31.51 15 25.3 17.42c1.53 1.05 3.62 0.06 3.77-1.79l2.44-30.63z"/>
  <polygon class="st2" points="1242 397.5 1259 362.4 1220 364.6"/>
  <path class="st2" d="m1226 428.3 15.55-30.87-39.2 2.23 18.96 28.9c1.15 1.75 3.75 1.6 4.69-0.26z"/>
  <polygon class="st3" points="1220 364.6 1202 399.7 1242 397.5"/>
  <path class="st4" d="m1259 362.4-17.67 35.06 34.51-1.97c2.08-0.12 3.26-2.45 2.11-4.19l-18.95-28.9z"/>
  <polygon class="st2" points="1245 453.8 1227 488.9 1266 486.7"/>
  <path class="st2" d="m1260 423-15.55 30.87 39.2-2.23-18.96-28.9c-1.15-1.76-3.75-1.61-4.69 0.26z"/>
  <polygon class="st3" points="1266 486.7 1284 451.6 1245 453.8"/>
  <path class="st4" d="m1227 488.9 17.67-35.06-34.51 1.97c-2.08 0.12-3.26 2.45-2.11 4.19l18.95 28.9z"/>
  <polygon class="st2" points="803.8 219.5 844.2 235.1 837.5 192.2"/>
  <path class="st2" d="m768.2 205.8 35.61 13.73-6.72-42.83-29.7 23.98c-1.79 1.45-1.34 4.3 0.81 5.12z"/>
  <polygon class="st3" points="837.5 192.2 797.1 176.6 803.8 219.5"/>
  <path class="st4" d="m844.2 235.1-40.45-15.59 5.92 37.71c0.36 2.28 3.05 3.31 4.84 1.87l29.69-23.99z"/>
  <polygon class="st2" points="742.2 229.2 701.7 213.6 708.5 256.4"/>
  <path class="st2" d="m777.8 242.9-35.61-13.73 6.72 42.83 29.7-23.98c1.78-1.44 1.34-4.29-0.81-5.12z"/>
  <polygon class="st3" points="708.5 256.4 748.9 272 742.2 229.2"/>
  <path class="st4" d="m701.7 213.6 40.45 15.59-5.92-37.71c-0.36-2.28-3.05-3.31-4.84-1.87l-29.69 23.99z"/>
  <polygon class="st2" points="658.9 364 696.2 356.4 670.9 327.9"/>
  <path class="st2" d="m626.1 370.7 32.82-6.69-25.22-28.48-10.61 31.77c-0.64 1.91 1.03 3.8 3.01 3.4z"/>
  <polygon class="st3" points="670.9 327.9 633.7 335.5 658.9 364"/>
  <path class="st4" d="m696.2 356.4-37.28 7.6 22.21 25.08c1.34 1.51 3.82 1.01 4.46-0.91l10.61-31.77z"/>
  <polygon class="st2" points="617.9 400.3 580.6 407.9 605.9 436.4"/>
  <path class="st2" d="m650.7 393.6-32.82 6.69 25.22 28.48 10.61-31.77c0.65-1.91-1.03-3.8-3.01-3.4z"/>
  <polygon class="st3" points="605.9 436.4 643.1 428.8 617.9 400.3"/>
  <path class="st4" d="m580.6 407.9 37.28-7.6-22.21-25.08c-1.34-1.51-3.82-1.01-4.46 0.91l-10.61 31.77z"/>
  <polygon class="st2" points="964.5 172.1 994 157.9 967 139.4"/>
  <path class="st2" d="m938.5 184.6 26-12.49-27.06-18.48-2.18 28.77c-0.13 1.72 1.67 2.95 3.24 2.2z"/>
  <polygon class="st3" points="967 139.4 937.4 153.6 964.5 172.1"/>
  <path class="st4" d="m994 157.9-29.54 14.19 23.82 16.27c1.44 0.98 3.4 0.04 3.53-1.7l2.19-28.76z"/>
  <polygon class="st2" points="937.9 211 908.4 225.2 935.4 243.7"/>
  <path class="st2" d="m963.9 198.5-26 12.49 27.06 18.48 2.18-28.77c0.13-1.73-1.67-2.96-3.24-2.2z"/>
  <polygon class="st3" points="935.4 243.7 965 229.5 937.9 211"/>
  <path class="st4" d="m908.4 225.2 29.54-14.19-23.82-16.27c-1.44-0.98-3.4-0.04-3.53 1.7l-2.19 28.76z"/>
  <polygon class="st2" points="1302 10.28 1328 29.56 1332 -3.03"/>
  <path class="st2" d="m1279-6.7 23.33 16.98 3.45-32.59-26.37 11.71c-1.58 0.71-1.81 2.88-0.41 3.9z"/>
  <polygon class="st3" points="1332 -3.03 1305 -22.31 1302 10.28"/>
  <path class="st4" d="m1328 29.56-26.49-19.28-3.04 28.69c-0.18 1.73 1.58 3.01 3.17 2.31l26.36-11.72z"/>
  <polygon class="st2" points="1255 5.31 1229 -13.97 1225 18.62"/>
  <path class="st2" d="m1278 22.29-23.33-16.98-3.45 32.59 26.37-11.71c1.59-0.71 1.82-2.88 0.41-3.9z"/>
  <polygon class="st3" points="1225 18.62 1252 37.9 1255 5.31"/>
  <path class="st4" d="m1229-13.97 26.49 19.28 3.04-28.69c0.18-1.73-1.58-3.01-3.17-2.31l-26.36 11.72z"/>
  <polygon class="st2" points="649.9 26.87 683.6 -10.49 634.4 -21"/>
  <path class="st2" d="m620.3 59.75 29.68-32.88-49.2-10.51 13.64 42.14c0.82 2.54 4.09 3.24 5.88 1.25z"/>
  <polygon class="st3" points="634.4 -21 600.7 16.35 649.9 26.87"/>
  <path class="st4" d="m683.6-10.49-33.71 37.35 43.32 9.26c2.62 0.56 4.86-1.92 4.03-4.47l-13.64-42.14z"/>
  <polygon class="st2" points="634.8 97.63 601.1 135 650.3 145.5"/>
  <path class="st2" d="m664.5 64.74-29.68 32.88 49.2 10.51-13.64-42.13c-0.82-2.54-4.09-3.24-5.88-1.26z"/>
  <polygon class="st3" points="650.3 145.5 684 108.1 634.8 97.63"/>
  <path class="st4" d="m601.1 135 33.71-37.35-43.32-9.26c-2.62-0.56-4.86 1.92-4.03 4.47l13.64 42.14z"/>
  <polygon class="st2" points="1081 384.5 1138 361.2 1089 323.5"/>
  <path class="st2" d="m1031 405 50.17-20.53-48.69-37.69-7.31 53.71c-0.43 3.25 2.8 5.75 5.83 4.51z"/>
  <polygon class="st3" points="1089 323.5 1032 346.8 1081 384.5"/>
  <path class="st4" d="m1138 361.2-56.99 23.32 42.86 33.18c2.59 2 6.38 0.45 6.82-2.79l7.31-53.71z"/>
  <polygon class="st2" points="1027 454.6 969.5 477.9 1018 515.6"/>
  <path class="st2" d="m1077 434-50.17 20.53 48.69 37.69 7.31-53.71c0.44-3.25-2.8-5.75-5.83-4.51z"/>
  <polygon class="st3" points="1018 515.6 1075 492.2 1027 454.6"/>
  <path class="st4" d="m969.5 477.9 56.99-23.32-42.86-33.18c-2.59-2-6.38-0.45-6.82 2.79l-7.31 53.71z"/>
  <polygon class="st2" points="1090 216.7 1056 185 1045 230.2"/>
  <path class="st2" d="m1119 244.5-29.79-27.86-10.48 45.13 39.02-11.87c2.35-0.72 3.05-3.72 1.25-5.4z"/>
  <polygon class="st3" points="1045 230.2 1079 261.8 1090 216.7"/>
  <path class="st4" d="m1056 185 33.84 31.64 9.23-39.73c0.56-2.4-1.69-4.5-4.05-3.79l-39.02 11.88z"/>
  <polygon class="st2" points="1155 231.8 1188 263.4 1199 218.3"/>
  <path class="st2" d="m1125 203.9 29.79 27.86 10.48-45.13-39.02 11.87c-2.36 0.72-3.05 3.71-1.25 5.4z"/>
  <polygon class="st3" points="1199 218.3 1165 186.6 1155 231.8"/>
  <path class="st4" d="m1188 263.4-33.84-31.64-9.23 39.73c-0.56 2.4 1.69 4.5 4.05 3.79l39.02-11.88z"/>
  <polygon class="st2" points="392.2 331.2 385.7 291.8 354.8 317.1"/>
  <path class="st2" d="m397.8 365.9-5.68-34.69-30.9 25.28 32.88 12.43c1.99 0.76 4.05-0.92 3.7-3.02z"/>
  <polygon class="st3" points="354.8 317.1 361.3 356.5 392.2 331.2"/>
  <path class="st4" d="m385.7 291.8 6.45 39.4 27.2-22.26c1.64-1.34 1.21-3.96-0.77-4.71l-32.88-12.43z"/>
  <polygon class="st2" points="428.5 375.6 435 415 465.9 389.7"/>
  <path class="st2" d="m422.8 340.9 5.68 34.69 30.9-25.28-32.88-12.43c-1.99-0.76-4.04 0.92-3.7 3.02z"/>
  <polygon class="st3" points="465.9 389.7 459.4 350.3 428.5 375.6"/>
  <path class="st4" d="m435 415-6.45-39.4-27.2 22.26c-1.64 1.34-1.21 3.96 0.77 4.71l32.88 12.43z"/>
  <polygon class="st2" points="225.7 400 205.6 360.1 181.2 397.4"/>
  <path class="st2" d="m243.4 435-17.69-35.06-24.44 37.31 39.2 2.21c2.37 0.14 4-2.34 2.93-4.46z"/>
  <polygon class="st3" points="181.2 397.4 201.3 437.3 225.7 400"/>
  <path class="st4" d="m205.6 360.1 20.09 39.82 21.52-32.85c1.3-1.98-0.04-4.63-2.4-4.76l-39.21-2.21z"/>
  <polygon class="st2" points="279.4 435.1 299.5 474.9 323.9 437.6"/>
  <path class="st2" d="m261.7 400 17.69 35.06 24.44-37.31-39.2-2.21c-2.37-0.13-4 2.34-2.93 4.46z"/>
  <polygon class="st3" points="323.9 437.6 303.8 397.8 279.4 435.1"/>
  <path class="st4" d="m299.5 474.9-20.09-39.82-21.52 32.85c-1.3 1.98 0.04 4.63 2.4 4.76l39.21 2.21z"/>
 </g>
 <defs>
  <path id="c" d="m1600 24.84v428.5c0 8.31-4.08 15.66-10.34 20.17-2.4 1.73-5.84 0.86-6.95-1.88-3.92-9.72-16.41-16.83-31.21-16.83-9.47 0-17.99 2.91-23.93 7.55-1.91 1.49-4.64 1.25-6.24-0.56-7.66-8.68-21.22-14.45-36.68-14.45-13.95 0-26.37 4.71-34.28 12.01-1.84 1.7-4.72 1.55-6.42-0.29-9.32-10.07-25.83-16.76-44.62-16.76-27.05 0-49.35 13.85-52.36 31.7-0.4 2.39-2.49 4.14-4.91 4.14l-1317 0.04c-13.71 0-24.83-11.12-24.83-24.84v-428.5c0-13.72 11.12-24.84 24.83-24.84h1550c13.71 0 24.83 11.12 24.83 24.84z"/>
 </defs>
 <clipPath id="f">
  <use xlink:href="#c"/>
 </clipPath>
 <g clip-path="url(#f)">
  <polygon class="st2" points="81.72 33.72 41.78 -22.71 12.88 40.1"/>
  <path class="st2" d="m116.9 83.41-35.16-49.69-28.9 62.8 60.6-5.61c3.66-0.33 5.58-4.5 3.46-7.5z"/>
  <polygon class="st3" points="12.88 40.1 52.82 96.53 81.72 33.72"/>
  <path class="st4" d="m41.78-22.71 39.94 56.43 25.45-55.29c1.54-3.34-1.12-7.09-4.78-6.75l-60.61 5.61z"/>
  <polygon class="st2" points="172 75.29 212 131.7 240.9 68.92"/>
  <path class="st2" d="m136.9 25.61 35.16 49.68 28.9-62.8-60.6 5.61c-3.66 0.34-5.58 4.51-3.46 7.51z"/>
  <polygon class="st3" points="240.9 68.92 201 12.49 172 75.29"/>
  <path class="st4" d="m212 131.7-39.94-56.43-25.45 55.29c-1.54 3.34 1.12 7.09 4.78 6.75l60.61-5.61z"/>
  <polygon class="st2" points="78.23 189.4 70.4 153.8 43.5 178.4"/>
  <path class="st2" d="m85.13 220.8-6.9-31.33-26.9 24.58 30.58 9.69c1.85 0.59 3.64-1.05 3.22-2.94z"/>
  <polygon class="st3" points="43.5 178.4 51.33 214 78.23 189.4"/>
  <path class="st4" d="m70.4 153.8 7.84 35.59 23.68-21.64c1.43-1.31 0.91-3.67-0.94-4.26l-30.58-9.69z"/>
  <polygon class="st2" points="113.6 228.1 121.4 263.7 148.3 239.1"/>
  <path class="st2" d="m106.7 196.8 6.9 31.33 26.9-24.58-30.58-9.69c-1.84-0.58-3.63 1.05-3.22 2.94z"/>
  <polygon class="st3" points="148.3 239.1 140.5 203.5 113.6 228.1"/>
  <path class="st4" d="m121.4 263.7-7.84-35.59-23.68 21.64c-1.43 1.31-0.91 3.67 0.94 4.26l30.58 9.69z"/>
  <polygon class="st2" points="193.8 -70.76 168.1 -107.2 149.4 -66.71"/>
  <path class="st2" d="m216.4-38.72-22.61-32.03-18.67 40.44 39.05-3.57c2.36-0.22 3.6-2.91 2.23-4.84z"/>
  <polygon class="st3" points="149.4 -66.71 175.1 -30.32 193.8 -70.76"/>
  <path class="st4" d="m168.1-107.2 25.69 36.39 16.44-35.6c0.99-2.15-0.71-4.57-3.07-4.35l-39.06 3.56z"/>
  <polygon class="st2" points="251.9 -43.91 277.6 -7.52 296.3 -47.96"/>
  <path class="st2" d="m229.3-75.94 22.61 32.03 18.67-40.44-39.05 3.57c-2.35 0.21-3.59 2.9-2.23 4.84z"/>
  <polygon class="st3" points="296.3 -47.96 270.6 -84.35 251.9 -43.91"/>
  <path class="st4" d="m277.6-7.52-25.69-36.39-16.44 35.6c-0.99 2.15 0.71 4.57 3.07 4.35l39.06-3.56z"/>
  <polygon class="st2" points="32.71 425.3 -22.17 438.8 16.96 479.6"/>
  <path class="st2" d="m81.02 413.4-48.32 11.88 39.13 40.78 13.87-47.78c0.84-2.89-1.76-5.6-4.68-4.88z"/>
  <polygon class="st3" points="16.96 479.6 71.84 466.1 32.71 425.3"/>
  <path class="st4" d="m-22.17 438.8 54.88-13.5-34.45-35.9c-2.08-2.17-5.73-1.27-6.56 1.61l-13.87 47.79z"/>
  <polygon class="st2" points="91.36 369 146.2 355.6 107.1 314.8"/>
  <path class="st2" d="m43.04 380.9 48.32-11.88-39.13-40.78-13.87 47.78c-0.84 2.89 1.76 5.6 4.68 4.88z"/>
  <polygon class="st3" points="107.1 314.8 52.23 328.3 91.36 369"/>
  <path class="st4" d="m146.2 355.6-54.88 13.5 34.45 35.9c2.08 2.17 5.73 1.27 6.56-1.61l13.87-47.79z"/>
  <polygon class="st2" points="504.6 174.4 508.7 113.1 453.5 140.2"/>
  <path class="st2" d="m500.9 228.4 3.65-53.99-55.18 27.08 44.93 30.15c2.71 1.82 6.38 0.02 6.6-3.24z"/>
  <polygon class="st3" points="453.5 140.2 449.4 201.5 504.6 174.4"/>
  <path class="st4" d="m508.7 113.1-4.14 61.32 48.58-23.84c2.93-1.44 3.21-5.51 0.5-7.34l-44.94-30.14z"/>
  <polygon class="st2" points="543.5 253.8 539.4 315.1 594.6 288"/>
  <path class="st2" d="m547.2 199.8-3.65 53.99 55.18-27.08-44.93-30.15c-2.71-1.82-6.38-0.03-6.6 3.24z"/>
  <polygon class="st3" points="594.6 288 598.7 226.7 543.5 253.8"/>
  <path class="st4" d="m539.4 315.1 4.14-61.32-48.58 23.84c-2.93 1.44-3.21 5.51-0.5 7.34l44.94 30.14z"/>
  <polygon class="st2" points="360.3 68.59 360.2 36.29 332.3 52.47"/>
  <path class="st2" d="m360.3 97.03-0.03-28.44-27.96 16.18 24.64 14.19c1.49 0.86 3.35-0.22 3.35-1.93z"/>
  <polygon class="st3" points="332.3 52.47 332.3 84.77 360.3 68.59"/>
  <path class="st4" d="m360.2 36.29 0.03 32.3 24.61-14.24c1.49-0.86 1.48-3.01 0-3.86l-24.64-14.2z"/>
  <polygon class="st2" points="383.6 108.8 383.6 141.1 411.5 124.9"/>
  <path class="st2" d="m383.5 80.36 0.03 28.44 27.96-16.18-24.64-14.19c-1.49-0.86-3.35 0.21-3.35 1.93z"/>
  <polygon class="st3" points="411.5 124.9 411.5 92.62 383.6 108.8"/>
  <path class="st4" d="m383.6 141.1-0.03-32.3-24.61 14.24c-1.49 0.86-1.48 3.01 0 3.86l24.64 14.2z"/>
  <polygon class="st2" points="285.6 218.2 321.8 205.6 292.7 180.6"/>
  <path class="st2" d="m253.7 229.4 31.84-11.12-29.02-25.01-6.29 33.14c-0.38 2 1.55 3.66 3.47 2.99z"/>
  <polygon class="st3" points="292.7 180.6 256.6 193.2 285.6 218.2"/>
  <path class="st4" d="m321.8 205.6-36.17 12.63 25.55 22.02c1.54 1.33 3.95 0.49 4.33-1.51l6.29-33.14z"/>
  <polygon class="st2" points="249.6 260 213.4 272.6 242.5 297.6"/>
  <path class="st2" d="m281.5 248.8-31.84 11.12 29.02 25.01 6.29-33.14c0.38-2-1.55-3.66-3.47-2.99z"/>
  <polygon class="st3" points="242.5 297.6 278.6 285 249.6 260"/>
  <path class="st4" d="m213.4 272.6 36.17-12.63-25.55-22.02c-1.54-1.33-3.95-0.49-4.33 1.51l-6.29 33.14z"/>
  <polygon class="st2" points="807.4 50.56 834.4 35.99 808.3 19.84"/>
  <path class="st2" d="m783.5 63.38 23.83-12.82-26.15-16.16-0.81 27.05c-0.04 1.63 1.69 2.71 3.13 1.93z"/>
  <polygon class="st3" points="808.3 19.84 781.2 34.4 807.4 50.56"/>
  <path class="st4" d="m834.4 35.99-27.06 14.57 23.02 14.22c1.39 0.86 3.19-0.11 3.24-1.74l0.8-27.05z"/>
  <polygon class="st2" points="784.1 88.16 757.1 102.7 783.2 118.9"/>
  <path class="st2" d="m808 75.34-23.83 12.82 26.15 16.16 0.81-27.05c0.05-1.63-1.69-2.7-3.13-1.93z"/>
  <polygon class="st3" points="783.2 118.9 810.3 104.3 784.1 88.16"/>
  <path class="st4" d="m757.1 102.7 27.06-14.57-23.02-14.22c-1.39-0.86-3.19 0.11-3.24 1.74l-0.8 27.05z"/>
  <polygon class="st2" points="487 -18.63 494.8 -48.34 465.2 -40.28"/>
  <path class="st2" d="m480.1 7.54 6.91-26.16-29.66 8.06 19.2 19.06c1.16 1.15 3.13 0.62 3.55-0.96z"/>
  <polygon class="st3" points="465.2 -40.28 457.3 -10.56 487 -18.63"/>
  <path class="st4" d="m494.8-48.34-7.85 29.72 26.11-7.1c1.58-0.43 2.1-2.4 0.94-3.55l-19.2-19.07z"/>
  <polygon class="st2" points="498.6 24.03 490.7 53.75 520.4 45.68"/>
  <path class="st2" d="m505.5-2.13-6.91 26.16 29.66-8.06-19.2-19.07c-1.16-1.15-3.13-0.61-3.55 0.97z"/>
  <polygon class="st3" points="520.4 45.68 528.2 15.97 498.6 24.03"/>
  <path class="st4" d="m490.7 53.75 7.85-29.72-26.11 7.1c-1.58 0.43-2.1 2.4-0.94 3.55l19.2 19.07z"/>
  <polygon class="st2" points="518.8 492.1 561.9 470.8 521.9 444.2"/>
  <path class="st2" d="m480.9 510.8 37.92-18.75-39.98-26.65-2.72 42.21c-0.16 2.55 2.49 4.32 4.78 3.19z"/>
  <polygon class="st3" points="521.9 444.2 478.8 465.4 518.8 492.1"/>
  <path class="st4" d="m561.9 470.8-43.07 21.3 35.19 23.46c2.13 1.42 4.99 0 5.15-2.55l2.73-42.21z"/>
  <polygon class="st2" points="480.5 549.6 437.4 570.9 477.4 597.5"/>
  <path class="st2" d="m518.4 530.8-37.92 18.75 39.98 26.65 2.72-42.21c0.16-2.55-2.49-4.32-4.78-3.19z"/>
  <polygon class="st3" points="477.4 597.5 520.4 576.2 480.5 549.6"/>
  <path class="st4" d="m437.4 570.9 43.07-21.3-35.19-23.46c-2.13-1.42-4.99 0-5.15 2.55l-2.73 42.21z"/>
  <polygon class="st2" points="845.2 363.8 901 322.7 837.6 294.8"/>
  <path class="st2" d="m796 399.9 49.19-36.12-63.47-27.88 6.68 60.66c0.41 3.66 4.63 5.52 7.6 3.34z"/>
  <polygon class="st3" points="837.6 294.8 781.7 335.9 845.2 363.8"/>
  <path class="st4" d="m901 322.7-55.88 41.02 55.87 24.55c3.37 1.48 7.09-1.24 6.68-4.91l-6.67-60.66z"/>
  <polygon class="st2" points="805.1 455 749.2 496 812.6 523.9"/>
  <path class="st2" d="m854.2 418.9-49.19 36.12 63.47 27.88-6.68-60.66c-0.41-3.67-4.63-5.52-7.6-3.34z"/>
  <polygon class="st3" points="812.6 523.9 868.5 482.9 805.1 455"/>
  <path class="st4" d="m749.2 496 55.88-41.02-55.87-24.55c-3.37-1.48-7.09 1.24-6.68 4.91l6.67 60.66z"/>
  <polygon class="st2" points="935 -26.41 963.9 -63.98 916.9 -70.29"/>
  <path class="st2" d="m909.4 6.66 25.51-33.08-47.03-6.31 15.89 38.63c0.96 2.34 4.09 2.76 5.63 0.76z"/>
  <polygon class="st3" points="916.9 -70.29 887.9 -32.72 935 -26.41"/>
  <path class="st4" d="m963.9-63.98-28.98 37.57 41.4 5.56c2.5 0.34 4.43-2.16 3.47-4.49l-15.89-38.64z"/>
  <polygon class="st2" points="925.9 41.22 896.9 78.79 943.9 85.1"/>
  <path class="st2" d="m951.4 8.15-25.51 33.08 47.03 6.31-15.9-38.64c-0.96-2.33-4.08-2.75-5.62-0.75z"/>
  <polygon class="st3" points="943.9 85.1 972.9 47.54 925.9 41.22"/>
  <path class="st4" d="m896.9 78.79 28.98-37.57-41.4-5.56c-2.5-0.34-4.43 2.16-3.47 4.49l15.89 38.64z"/>
  <polygon class="st2" points="1083 5.66 1074 -47.78 1033 -13.53"/>
  <path class="st2" d="m1091 52.7-7.65-47.05-41.93 34.25 44.57 16.89c2.69 1.03 5.48-1.24 5.01-4.09z"/>
  <polygon class="st3" points="1033 -13.53 1041 39.91 1083 5.66"/>
  <path class="st4" d="m1074-47.78 8.69 53.44 36.92-30.15c2.23-1.82 1.65-5.37-1.04-6.39l-44.57-16.9z"/>
  <polygon class="st2" points="1132 65.97 1141 119.4 1183 85.15"/>
  <path class="st2" d="m1125 18.92 7.65 47.05 41.93-34.25-44.57-16.89c-2.68-1.03-5.47 1.25-5.01 4.09z"/>
  <polygon class="st3" points="1183 85.15 1174 31.72 1132 65.97"/>
  <path class="st4" d="m1141 119.4-8.69-53.44-36.92 30.15c-2.23 1.82-1.65 5.37 1.04 6.39l44.57 16.9z"/>
  <polygon class="st2" points="1295 233.8 1247 284.2 1315 299.9"/>
  <path class="st2" d="m1336 189.3-41.63 44.44 67.36 15.71-17.67-58.27c-1.07-3.52-5.54-4.57-8.06-1.88z"/>
  <polygon class="st3" points="1315 299.9 1362 249.5 1295 233.8"/>
  <path class="st4" d="m1247 284.2 47.28-50.48-59.3-13.83c-3.58-0.84-6.72 2.52-5.66 6.04l17.68 58.27z"/>
  <polygon class="st2" points="1317 136.9 1364 86.4 1297 70.69"/>
  <path class="st2" d="m1276 181.3 41.63-44.44-67.36-15.71 17.67 58.27c1.07 3.52 5.55 4.56 8.06 1.88z"/>
  <polygon class="st3" points="1297 70.69 1250 121.2 1317 136.9"/>
  <path class="st4" d="m1364 86.4-47.28 50.48 59.3 13.83c3.58 0.84 6.72-2.52 5.66-6.04l-17.68-58.27z"/>
  <polygon class="st2" points="1506 185.4 1542 179.2 1518 151.2"/>
  <path class="st2" d="m1474 190.9 31.66-5.45-23.34-28.04-11.11 30.14c-0.68 1.81 0.87 3.68 2.79 3.35z"/>
  <polygon class="st3" points="1518 151.2 1482 157.4 1506 185.4"/>
  <path class="st4" d="m1542 179.2-35.96 6.19 20.55 24.69c1.24 1.49 3.63 1.08 4.3-0.74l11.11-30.14z"/>
  <polygon class="st2" points="1465 219 1429 225.2 1453 253.2"/>
  <path class="st2" d="m1497 213.5-31.66 5.45 23.34 28.04 11.11-30.14c0.68-1.82-0.87-3.68-2.79-3.35z"/>
  <polygon class="st3" points="1453 253.2 1489 247 1465 219"/>
  <path class="st4" d="m1429 225.2 35.96-6.19-20.55-24.69c-1.24-1.49-3.63-1.08-4.3 0.74l-11.11 30.14z"/>
  <polygon class="st2" points="1427 366.4 1448 310 1389 319.3"/>
  <path class="st2" d="m1407 416.1 19.2-49.69-59.79 9.33 33.43 41.47c2.03 2.51 6 1.89 7.16-1.11z"/>
  <polygon class="st3" points="1389 319.3 1367 375.7 1427 366.4"/>
  <path class="st4" d="m1448 310-21.81 56.44 52.63-8.22c3.18-0.5 4.63-4.25 2.61-6.75l-33.43-41.47z"/>
  <polygon class="st2" points="1440 452.4 1418 508.8 1478 499.5"/>
  <path class="st2" d="m1459 402.7-19.2 49.69 59.79-9.33-33.43-41.47c-2.03-2.51-6-1.89-7.16 1.11z"/>
  <polygon class="st3" points="1478 499.5 1500 443 1440 452.4"/>
  <path class="st4" d="m1418 508.8 21.81-56.44-52.63 8.22c-3.18 0.5-4.63 4.25-2.61 6.75l33.43 41.47z"/>
  <polygon class="st2" points="1471 42.76 1413 27.26 1429 85.66"/>
  <path class="st2" d="m1523 56.4-51.49-13.65 15.82 58.4 37.56-37.77c2.28-2.27 1.22-6.15-1.89-6.98z"/>
  <polygon class="st3" points="1429 85.66 1487 101.2 1471 42.76"/>
  <path class="st4" d="m1413 27.26 58.49 15.5-13.93-51.42c-0.84-3.11-4.73-4.14-7-1.85l-37.56 37.77z"/>
  <polygon class="st2" points="1555 20 1614 35.5 1598 -22.9"/>
  <path class="st2" d="m1504 6.36 51.5 13.64-15.82-58.4-37.56 37.77c-2.28 2.28-1.23 6.16 1.88 6.99z"/>
  <polygon class="st3" points="1598 -22.9 1539 -38.4 1555 20"/>
  <path class="st4" d="m1614 35.5-58.49-15.5 13.93 51.42c0.84 3.11 4.73 4.14 7 1.85l37.56-37.77z"/>
  <polygon class="st2" points="1550 329.8 1519 344.8 1547 364.6"/>
  <path class="st2" d="m1578 316.6-27.74 13.2 28.74 19.79 2.44-30.63c0.14-1.84-1.77-3.15-3.44-2.36z"/>
  <polygon class="st3" points="1547 364.6 1579 349.6 1550 329.8"/>
  <path class="st4" d="m1519 344.8 31.51-15-25.3-17.42c-1.53-1.05-3.62-0.06-3.77 1.79l-2.44 30.63z"/>
  <polygon class="st2" points="1579 288.4 1610 273.4 1581 253.6"/>
  <path class="st2" d="m1551 301.6 27.74-13.2-28.74-19.79-2.44 30.63c-0.15 1.84 1.76 3.16 3.44 2.36z"/>
  <polygon class="st3" points="1581 253.6 1550 268.6 1579 288.4"/>
  <path class="st4" d="m1610 273.4-31.51 15 25.3 17.42c1.53 1.05 3.62 0.06 3.77-1.79l2.44-30.63z"/>
  <polygon class="st2" points="1242 397.5 1259 362.4 1220 364.6"/>
  <path class="st2" d="m1226 428.3 15.55-30.87-39.2 2.23 18.96 28.9c1.15 1.75 3.75 1.6 4.69-0.26z"/>
  <polygon class="st3" points="1220 364.6 1202 399.7 1242 397.5"/>
  <path class="st4" d="m1259 362.4-17.67 35.06 34.51-1.97c2.08-0.12 3.26-2.45 2.11-4.19l-18.95-28.9z"/>
  <polygon class="st2" points="1245 453.8 1227 488.9 1266 486.7"/>
  <path class="st2" d="m1260 423-15.55 30.87 39.2-2.23-18.96-28.9c-1.15-1.76-3.75-1.61-4.69 0.26z"/>
  <polygon class="st3" points="1266 486.7 1284 451.6 1245 453.8"/>
  <path class="st4" d="m1227 488.9 17.67-35.06-34.51 1.97c-2.08 0.12-3.26 2.45-2.11 4.19l18.95 28.9z"/>
  <polygon class="st2" points="803.8 219.5 844.2 235.1 837.5 192.2"/>
  <path class="st2" d="m768.2 205.8 35.61 13.73-6.72-42.83-29.7 23.98c-1.79 1.45-1.34 4.3 0.81 5.12z"/>
  <polygon class="st3" points="837.5 192.2 797.1 176.6 803.8 219.5"/>
  <path class="st4" d="m844.2 235.1-40.45-15.59 5.92 37.71c0.36 2.28 3.05 3.31 4.84 1.87l29.69-23.99z"/>
  <polygon class="st2" points="742.2 229.2 701.7 213.6 708.5 256.4"/>
  <path class="st2" d="m777.8 242.9-35.61-13.73 6.72 42.83 29.7-23.98c1.78-1.44 1.34-4.29-0.81-5.12z"/>
  <polygon class="st3" points="708.5 256.4 748.9 272 742.2 229.2"/>
  <path class="st4" d="m701.7 213.6 40.45 15.59-5.92-37.71c-0.36-2.28-3.05-3.31-4.84-1.87l-29.69 23.99z"/>
  <polygon class="st2" points="658.9 364 696.2 356.4 670.9 327.9"/>
  <path class="st2" d="m626.1 370.7 32.82-6.69-25.22-28.48-10.61 31.77c-0.64 1.91 1.03 3.8 3.01 3.4z"/>
  <polygon class="st3" points="670.9 327.9 633.7 335.5 658.9 364"/>
  <path class="st4" d="m696.2 356.4-37.28 7.6 22.21 25.08c1.34 1.51 3.82 1.01 4.46-0.91l10.61-31.77z"/>
  <polygon class="st2" points="617.9 400.3 580.6 407.9 605.9 436.4"/>
  <path class="st2" d="m650.7 393.6-32.82 6.69 25.22 28.48 10.61-31.77c0.65-1.91-1.03-3.8-3.01-3.4z"/>
  <polygon class="st3" points="605.9 436.4 643.1 428.8 617.9 400.3"/>
  <path class="st4" d="m580.6 407.9 37.28-7.6-22.21-25.08c-1.34-1.51-3.82-1.01-4.46 0.91l-10.61 31.77z"/>
  <polygon class="st2" points="964.5 172.1 994 157.9 967 139.4"/>
  <path class="st2" d="m938.5 184.6 26-12.49-27.06-18.48-2.18 28.77c-0.13 1.72 1.67 2.95 3.24 2.2z"/>
  <polygon class="st3" points="967 139.4 937.4 153.6 964.5 172.1"/>
  <path class="st4" d="m994 157.9-29.54 14.19 23.82 16.27c1.44 0.98 3.4 0.04 3.53-1.7l2.19-28.76z"/>
  <polygon class="st2" points="937.9 211 908.4 225.2 935.4 243.7"/>
  <path class="st2" d="m963.9 198.5-26 12.49 27.06 18.48 2.18-28.77c0.13-1.73-1.67-2.96-3.24-2.2z"/>
  <polygon class="st3" points="935.4 243.7 965 229.5 937.9 211"/>
  <path class="st4" d="m908.4 225.2 29.54-14.19-23.82-16.27c-1.44-0.98-3.4-0.04-3.53 1.7l-2.19 28.76z"/>
  <polygon class="st2" points="1302 10.28 1328 29.56 1332 -3.03"/>
  <path class="st2" d="m1279-6.7 23.33 16.98 3.45-32.59-26.37 11.71c-1.58 0.71-1.81 2.88-0.41 3.9z"/>
  <polygon class="st3" points="1332 -3.03 1305 -22.31 1302 10.28"/>
  <path class="st4" d="m1328 29.56-26.49-19.28-3.04 28.69c-0.18 1.73 1.58 3.01 3.17 2.31l26.36-11.72z"/>
  <polygon class="st2" points="1255 5.31 1229 -13.97 1225 18.62"/>
  <path class="st2" d="m1278 22.29-23.33-16.98-3.45 32.59 26.37-11.71c1.59-0.71 1.82-2.88 0.41-3.9z"/>
  <polygon class="st3" points="1225 18.62 1252 37.9 1255 5.31"/>
  <path class="st4" d="m1229-13.97 26.49 19.28 3.04-28.69c0.18-1.73-1.58-3.01-3.17-2.31l-26.36 11.72z"/>
  <polygon class="st2" points="649.9 26.87 683.6 -10.49 634.4 -21"/>
  <path class="st2" d="m620.3 59.75 29.68-32.88-49.2-10.51 13.64 42.14c0.82 2.54 4.09 3.24 5.88 1.25z"/>
  <polygon class="st3" points="634.4 -21 600.7 16.35 649.9 26.87"/>
  <path class="st4" d="m683.6-10.49-33.71 37.35 43.32 9.26c2.62 0.56 4.86-1.92 4.03-4.47l-13.64-42.14z"/>
  <polygon class="st2" points="634.8 97.63 601.1 135 650.3 145.5"/>
  <path class="st2" d="m664.5 64.74-29.68 32.88 49.2 10.51-13.64-42.13c-0.82-2.54-4.09-3.24-5.88-1.26z"/>
  <polygon class="st3" points="650.3 145.5 684 108.1 634.8 97.63"/>
  <path class="st4" d="m601.1 135 33.71-37.35-43.32-9.26c-2.62-0.56-4.86 1.92-4.03 4.47l13.64 42.14z"/>
  <polygon class="st2" points="1081 384.5 1138 361.2 1089 323.5"/>
  <path class="st2" d="m1031 405 50.17-20.53-48.69-37.69-7.31 53.71c-0.43 3.25 2.8 5.75 5.83 4.51z"/>
  <polygon class="st3" points="1089 323.5 1032 346.8 1081 384.5"/>
  <path class="st4" d="m1138 361.2-56.99 23.32 42.86 33.18c2.59 2 6.38 0.45 6.82-2.79l7.31-53.71z"/>
  <polygon class="st2" points="1027 454.6 969.5 477.9 1018 515.6"/>
  <path class="st2" d="m1077 434-50.17 20.53 48.69 37.69 7.31-53.71c0.44-3.25-2.8-5.75-5.83-4.51z"/>
  <polygon class="st3" points="1018 515.6 1075 492.2 1027 454.6"/>
  <path class="st4" d="m969.5 477.9 56.99-23.32-42.86-33.18c-2.59-2-6.38-0.45-6.82 2.79l-7.31 53.71z"/>
  <polygon class="st2" points="1090 216.7 1056 185 1045 230.2"/>
  <path class="st2" d="m1119 244.5-29.79-27.86-10.48 45.13 39.02-11.87c2.35-0.72 3.05-3.72 1.25-5.4z"/>
  <polygon class="st3" points="1045 230.2 1079 261.8 1090 216.7"/>
  <path class="st4" d="m1056 185 33.84 31.64 9.23-39.73c0.56-2.4-1.69-4.5-4.05-3.79l-39.02 11.88z"/>
  <polygon class="st2" points="1155 231.8 1188 263.4 1199 218.3"/>
  <path class="st2" d="m1125 203.9 29.79 27.86 10.48-45.13-39.02 11.87c-2.36 0.72-3.05 3.71-1.25 5.4z"/>
  <polygon class="st3" points="1199 218.3 1165 186.6 1155 231.8"/>
  <path class="st4" d="m1188 263.4-33.84-31.64-9.23 39.73c-0.56 2.4 1.69 4.5 4.05 3.79l39.02-11.88z"/>
  <polygon class="st2" points="392.2 331.2 385.7 291.8 354.8 317.1"/>
  <path class="st2" d="m397.8 365.9-5.68-34.69-30.9 25.28 32.88 12.43c1.99 0.76 4.05-0.92 3.7-3.02z"/>
  <polygon class="st3" points="354.8 317.1 361.3 356.5 392.2 331.2"/>
  <path class="st4" d="m385.7 291.8 6.45 39.4 27.2-22.26c1.64-1.34 1.21-3.96-0.77-4.71l-32.88-12.43z"/>
  <polygon class="st2" points="428.5 375.6 435 415 465.9 389.7"/>
  <path class="st2" d="m422.8 340.9 5.68 34.69 30.9-25.28-32.88-12.43c-1.99-0.76-4.04 0.92-3.7 3.02z"/>
  <polygon class="st3" points="465.9 389.7 459.4 350.3 428.5 375.6"/>
  <path class="st4" d="m435 415-6.45-39.4-27.2 22.26c-1.64 1.34-1.21 3.96 0.77 4.71l32.88 12.43z"/>
  <polygon class="st2" points="225.7 400 205.6 360.1 181.2 397.4"/>
  <path class="st2" d="m243.4 435-17.69-35.06-24.44 37.31 39.2 2.21c2.37 0.14 4-2.34 2.93-4.46z"/>
  <polygon class="st3" points="181.2 397.4 201.3 437.3 225.7 400"/>
  <path class="st4" d="m205.6 360.1 20.09 39.82 21.52-32.85c1.3-1.98-0.04-4.63-2.4-4.76l-39.21-2.21z"/>
  <polygon class="st2" points="279.4 435.1 299.5 474.9 323.9 437.6"/>
  <path class="st2" d="m261.7 400 17.69 35.06 24.44-37.31-39.2-2.21c-2.37-0.13-4 2.34-2.93 4.46z"/>
  <polygon class="st3" points="323.9 437.6 303.8 397.8 279.4 435.1"/>
  <path class="st4" d="m299.5 474.9-20.09-39.82-21.52 32.85c-1.3 1.98 0.04 4.63 2.4 4.76l39.21 2.21z"/>
 </g>
</svg>
