<?xml version="1.0" encoding="utf-8"?>
<!-- Generator: Adobe Illustrator 27.1.1, SVG Export Plug-In . SVG Version: 6.00 Build 0)  -->
<svg version="1.1" id="Layer_1" xmlns="http://www.w3.org/2000/svg" xmlns:xlink="http://www.w3.org/1999/xlink" x="0px" y="0px"
	 viewBox="0 0 1600 500" style="enable-background:new 0 0 1600 500;" xml:space="preserve">
<style type="text/css">
	.st0{fill-rule:evenodd;clip-rule:evenodd;fill:#282828;}
	.st1{fill:#BC83FB;}
	.st2{fill:#FFFFFF;}
	.st3{fill-rule:evenodd;clip-rule:evenodd;fill:#BC83FB;}
	.st4{fill-rule:evenodd;clip-rule:evenodd;fill:#5A007E;}
	.st5{fill-rule:evenodd;clip-rule:evenodd;fill:#D8B6FF;}
	.st6{fill:#FF705E;}
	.st7{fill:#282828;}
</style>
<g>
	<g>
		<path class="st0" d="M1600,24.84v428.52c0,8.31-4.08,15.66-10.34,20.17c-2.4,1.73-5.84,0.86-6.95-1.88
			c-3.92-9.72-16.41-16.83-31.21-16.83c-9.47,0-17.99,2.91-23.93,7.55c-1.91,1.49-4.64,1.25-6.24-0.56
			c-7.66-8.68-21.22-14.45-36.68-14.45c-13.95,0-26.37,4.71-34.28,12.01c-1.84,1.7-4.72,1.55-6.42-0.29
			c-9.32-10.07-25.83-16.76-44.62-16.76c-27.05,0-49.35,13.85-52.36,31.7c-0.4,2.39-2.49,4.14-4.91,4.14L24.83,478.2
			C11.12,478.2,0,467.08,0,453.36V24.84C0,11.12,11.12,0,24.83,0h1550.34C1588.88,0,1600,11.12,1600,24.84z"/>
	</g>
	<g>
		<ellipse class="st0" cx="1399.46" cy="479.16" rx="33.87" ry="20.84"/>
		<ellipse class="st0" cx="1483.78" cy="478.69" rx="27.94" ry="17.19"/>
		<ellipse class="st0" cx="1552.37" cy="479.04" rx="18.65" ry="11.48"/>
	</g>
</g>
<g>
	<ellipse transform="matrix(0.7391 -0.6736 0.6736 0.7391 154.1076 874.4427)" cx="1205.98" cy="238.26" rx="89.4" ry="82.64"/>
	<ellipse transform="matrix(0.7391 -0.6736 0.6736 0.7391 207.0553 1011.1565)" cx="1408.96" cy="238.26" rx="52.52" ry="48.55"/>
	<ellipse transform="matrix(0.7391 -0.6736 0.6736 0.7391 239.6012 1095.1918)" cx="1533.72" cy="238.26" rx="27.21" ry="25.15"/>
</g>
<g>
	<ellipse transform="matrix(0.6736 -0.7391 0.7391 0.6736 -46.1487 372.0398)" cx="398.11" cy="238.26" rx="82.64" ry="89.4"/>
	<ellipse transform="matrix(0.6736 -0.7391 0.7391 0.6736 -112.4098 222.0126)" cx="195.13" cy="238.26" rx="48.55" ry="52.52"/>
	<ellipse transform="matrix(0.6736 -0.7391 0.7391 0.6736 -153.1393 129.7939)" cx="70.37" cy="238.26" rx="25.15" ry="27.21"/>
</g>
<g>
	<g>
		<g>
			<g>
				<path class="st1" d="M937.36,254.85c-0.96,0-1.74-0.77-1.75-1.73l-0.47-33.92c-0.01-0.97,0.76-1.76,1.73-1.77
					c1.01-0.01,1.76,0.76,1.77,1.73l0.47,33.92c0.01,0.97-0.76,1.76-1.73,1.77C937.38,254.85,937.37,254.85,937.36,254.85z"/>
			</g>
			<g>
				<g>
					<path class="st1" d="M910.18,221.52c-0.96,0-1.74-0.77-1.75-1.73c-0.01-0.97,0.77-1.76,1.73-1.77l37.94-0.38
						c1.7-0.35,18.73-4.02,34.47-12.28c3.18-1.67,6-3.77,8.99-6c6.48-4.83,13.82-10.3,27.94-14.22c0.93-0.26,1.9,0.29,2.15,1.22
						c0.26,0.93-0.29,1.9-1.22,2.15c-13.49,3.74-20.55,9.01-26.78,13.65c-3.1,2.31-6.03,4.49-9.45,6.29
						c-16.99,8.92-35.54,12.65-35.7,12.67l-0.2,0.01l-38.1,0.39C910.19,221.52,910.18,221.52,910.18,221.52z"/>
				</g>
				<g>
					<path class="st1" d="M1021.46,284.58c-0.29,0-0.59-0.07-0.86-0.23c-14.87-8.39-25.51-10.31-34.9-12.01
						c-5.97-1.08-11.13-2.01-16.36-4.41c-4.94-2.27-8.79-5.08-12.19-7.56c-4.37-3.19-7.84-5.73-11.56-5.57
						c-5,0.19-8.74,0.63-12.04,1.03c-6.38,0.77-11.9,1.43-23.03-0.22c-0.19-0.03-0.42-0.04-0.66-0.05
						c-0.97-0.06-2.06-0.13-2.92-0.71c-0.8-0.55-1-1.63-0.46-2.43c0.53-0.78,1.59-0.99,2.38-0.49c0.23,0.08,0.86,0.12,1.21,0.14
						c0.36,0.02,0.69,0.05,0.96,0.09c10.67,1.58,15.71,0.97,22.1,0.2c3.37-0.4,7.19-0.86,12.33-1.05c4.97-0.19,9.04,2.79,13.76,6.25
						c3.26,2.39,6.96,5.09,11.58,7.21c4.83,2.22,9.79,3.11,15.52,4.15c9.18,1.66,20.61,3.72,35.99,12.41
						c0.84,0.48,1.14,1.54,0.66,2.38C1022.66,284.26,1022.07,284.58,1021.46,284.58z M908.92,251.96
						C908.92,251.96,908.92,251.96,908.92,251.96C908.92,251.96,908.92,251.96,908.92,251.96z"/>
				</g>
				<g>
					<path class="st1" d="M919.6,239.03c-3.56,0-6.74-0.2-9.58-0.74c-0.95-0.18-1.57-1.1-1.39-2.05c0.18-0.95,1.1-1.57,2.05-1.39
						c5.94,1.13,13.86,0.64,23.88,0.02c9.78-0.6,21.95-1.36,35.68-0.65c0.96,0.05,1.71,0.87,1.66,1.84
						c-0.05,0.97-0.86,1.72-1.84,1.66c-13.52-0.69-25.08,0.02-35.28,0.65C929.07,238.72,924.04,239.03,919.6,239.03z"/>
				</g>
				<g>
					<path class="st1" d="M1000.82,217.7c-0.26,0-0.52-0.06-0.76-0.18c-0.87-0.42-1.23-1.47-0.81-2.34
						c8.04-16.54,22.59-30.23,22.73-30.35c0.73-0.63,1.84-0.55,2.47,0.18c0.63,0.73,0.55,1.82-0.17,2.46
						c-0.25,0.23-14.21,13.46-21.88,29.24C1002.09,217.34,1001.46,217.7,1000.82,217.7z"/>
				</g>
				<g>
					<path class="st1" d="M1005.07,227.98c-0.87,0-1.63-0.65-1.74-1.54c-0.17-1.39,0.95-1.85,2.03-2.3c2.1-0.87,7.03-2.91,11.6-7.42
						c4.81-4.75,8.79-5.53,12.63-6.29c2.48-0.49,4.82-0.95,7.59-2.44c0.86-0.46,1.91-0.13,2.37,0.72c0.46,0.85,0.14,1.91-0.71,2.37
						c-3.23,1.73-6.06,2.29-8.56,2.79c-3.64,0.72-6.79,1.34-10.85,5.35c-5.06,4.99-10.62,7.29-12.71,8.16
						c-0.23,0.1-0.42,0.17-0.56,0.23c-0.24,0.19-0.54,0.32-0.86,0.36C1005.22,227.98,1005.14,227.98,1005.07,227.98z
						 M1006.81,226.03c0.02,0.15,0.02,0.3,0,0.44C1006.83,226.33,1006.83,226.18,1006.81,226.03z M1006.81,226.03
						C1006.81,226.03,1006.81,226.03,1006.81,226.03C1006.81,226.03,1006.81,226.03,1006.81,226.03z M1006.81,226.02
						C1006.81,226.02,1006.81,226.02,1006.81,226.02C1006.81,226.02,1006.81,226.02,1006.81,226.02z M1006.81,226.02
						C1006.81,226.02,1006.81,226.02,1006.81,226.02C1006.81,226.02,1006.81,226.02,1006.81,226.02z"/>
				</g>
				<g>
					<path class="st1" d="M1022.64,238.21c-2.13,0-3.96-0.05-5.27-0.16c-0.79-0.07-7.79-0.67-10.72-1.28
						c-0.95-0.2-1.55-1.12-1.36-2.07c0.2-0.95,1.12-1.55,2.07-1.36c2.23,0.46,7.71,1,10.31,1.22c6.58,0.56,27.21-0.59,29.57-1.04
						c0.95-0.17,1.86,0.45,2.04,1.4c0.18,0.95-0.45,1.86-1.4,2.04C1045.71,237.38,1031.59,238.21,1022.64,238.21z"/>
				</g>
				<g>
					<path class="st1" d="M1035.69,263.15c-0.51,0-1.02-0.22-1.37-0.66c-0.22-0.27-0.71-0.6-1.15-0.9
						c-0.28-0.19-0.55-0.37-0.79-0.55c-16.28-12.35-19.76-12.95-26.7-14.15l-0.67-0.12c-0.95-0.17-1.59-1.07-1.42-2.02
						c0.17-0.95,1.07-1.59,2.02-1.42l0.67,0.12c7.26,1.25,11.25,1.94,28.22,14.81c0.19,0.14,0.4,0.29,0.62,0.43
						c0.65,0.43,1.38,0.93,1.93,1.61c0.6,0.75,0.48,1.86-0.27,2.46C1036.46,263.02,1036.08,263.15,1035.69,263.15z"/>
				</g>
				<g>
					<path class="st1" d="M1024.4,285.27c-0.44,0-0.88-0.17-1.23-0.5c-3.63-3.56-15.18-16.81-25.4-31.28
						c-0.56-0.79-0.37-1.88,0.42-2.44c0.79-0.56,1.88-0.37,2.44,0.42c10.3,14.58,21.9,27.76,25,30.8c0.69,0.68,0.7,1.79,0.02,2.47
						C1025.31,285.1,1024.86,285.27,1024.4,285.27z"/>
				</g>
				<g>
					
						<ellipse transform="matrix(5.109599e-03 -1 1 5.109599e-03 712.6584 1155.2977)" class="st2" cx="936.94" cy="219.49" rx="5.67" ry="12.76"/>
				</g>
				<g>
					
						<ellipse transform="matrix(5.109599e-03 -1 1 5.109599e-03 696.0412 1172.3512)" class="st2" cx="937.2" cy="236.37" rx="5.67" ry="12.76"/>
				</g>
				<g>
					
						<ellipse transform="matrix(5.109599e-03 -1 1 5.109599e-03 679.424 1189.4047)" class="st2" cx="937.46" cy="253.25" rx="5.67" ry="12.76"/>
				</g>
				<g>
					
						<ellipse transform="matrix(0.6993 -0.7148 0.7148 0.6993 162.3684 805.0292)" class="st2" cx="1038.04" cy="209.52" rx="6.61" ry="5.48"/>
				</g>
				<g>
					
						<ellipse transform="matrix(0.6993 -0.7148 0.7148 0.6993 146.8602 819.4752)" class="st2" cx="1047.45" cy="235.18" rx="6.61" ry="5.48"/>
				</g>
				<g>
					
						<ellipse transform="matrix(0.6993 -0.7148 0.7148 0.6993 124.6386 818.943)" class="st2" cx="1035.71" cy="261.33" rx="6.61" ry="5.48"/>
				</g>
				<g>
					
						<ellipse transform="matrix(0.6993 -0.7148 0.7148 0.6993 105.2172 817.1815)" class="st2" cx="1023.91" cy="283.53" rx="6.61" ry="5.48"/>
				</g>
				<g>
					
						<ellipse transform="matrix(0.6993 -0.7148 0.7148 0.6993 174.5835 787.3375)" class="st2" cx="1023.12" cy="186.16" rx="6.61" ry="5.48"/>
				</g>
			</g>
		</g>
		<g id="ink-_just-squid_00000016033141442261668570000003908256290421084831_">
			<g id="head_00000111912729246175964570000010146543684054829186_">
				<g>
					<g>
						<path class="st3" d="M960.89,192.83c0,0-0.7-3.2-1.54-7c-1.39-6.32,1.49-12.81,7.11-16.01c3.65-2.09,7.6-5.36,10.46-10.44"/>
					</g>
					<g>
						<path d="M959.18,193.2l-1.54-7c-0.76-3.47-0.41-7.02,1.04-10.26c1.44-3.25,3.84-5.89,6.92-7.65c4.2-2.4,7.49-5.69,9.8-9.78
							c0.48-0.85,1.55-1.14,2.39-0.67c0.85,0.48,1.14,1.55,0.67,2.39c-2.62,4.65-6.36,8.39-11.12,11.11
							c-4.98,2.84-7.5,8.5-6.27,14.1l1.54,7L959.18,193.2z"/>
					</g>
				</g>
				<g>
					<g>
						<path class="st3" d="M1004.57,192.83c0,0,0.44-1.97,1-4.47c1.18-5.27-1.33-10.67-6.12-13.17c-4.8-2.52-9.93-7.22-10.39-15.81
							l-0.08,28.92L1004.57,192.83z"/>
					</g>
					<g>
						<path d="M1004.57,194.58c-0.16,0-0.33-0.02-0.49-0.07l-15.58-4.53c-0.75-0.22-1.27-0.91-1.27-1.69l0.08-28.92
							c0-0.95,0.76-1.73,1.71-1.75c0.94-0.02,1.75,0.71,1.8,1.66c0.34,6.41,3.52,11.23,9.45,14.35c5.48,2.86,8.36,9.08,7.02,15.11
							l-1,4.47c-0.11,0.47-0.4,0.88-0.82,1.13C1005.19,194.5,1004.88,194.58,1004.57,194.58z M990.75,186.98l12.52,3.63l0.59-2.64
							c1-4.48-1.14-9.1-5.22-11.23c-2.65-1.39-5.61-3.52-7.84-6.72L990.75,186.98z"/>
					</g>
				</g>
				<g>
					<g>
						<path class="st3" d="M979.89,153.77c0,0,0.73-3.34,4.47-3.37c2.07-0.01,3.9,1.37,4.47,3.37c0,0,1.67,12.34,2.56,18.87
							c0.33,2.42,1.4,4.67,3.08,6.44c5.88,6.21,18.96,23.02,6.13,38.73c0,0-1.01-13.29-17.05-13.29c-2.82,0,2.27,0-0.55,0
							c-16.04,0-18.14,13.29-18.14,13.29C948.75,198.06,974.97,165.06,979.89,153.77L979.89,153.77z"/>
					</g>
					<g>
						<path d="M964.87,219.97c-0.64,0-1.26-0.29-1.68-0.8c-13.87-16.99,0.99-42.33,9.87-57.47c2.05-3.49,3.83-6.52,4.77-8.64
							c0.5-1.79,2.38-4.8,6.51-4.82c0.01,0,0.03,0,0.04,0c3.01,0,5.69,2.02,6.52,4.93l0,0c0.06,0.21,0.08,0.41,0.11,0.63l2.51,18.55
							c0.27,1.98,1.14,3.79,2.51,5.24c2.84,3,7.98,9.13,10.56,16.58c1.44,4.15,1.92,8.22,1.43,12.1c-0.57,4.59-2.51,8.94-5.75,12.9
							c-0.56,0.69-1.48,0.96-2.32,0.7c-0.84-0.27-1.44-1.02-1.51-1.9c0-0.02-0.27-2.93-2.24-5.74c-2.58-3.68-6.84-5.55-12.65-5.55
							h-0.55c-13.91,0-15.92,11-16,11.47c-0.13,0.84-0.75,1.52-1.57,1.75C965.25,219.95,965.06,219.97,964.87,219.97z
							 M981.99,154.26c-0.03,0.13-0.07,0.25-0.12,0.37c-1.03,2.36-2.9,5.56-5.07,9.26c-4.21,7.18-9.97,17.01-12.94,26.68
							c-2.81,9.16-2.68,16.54,0.41,22.42c0.49-0.99,1.12-2.07,1.94-3.15c2.56-3.36,7.47-7.36,16.35-7.49c0.04,0,0.08,0,0.12,0h1.22
							c0.04,0,0.08,0,0.13,0c5.05,0.08,11.73,1.5,15.87,7.59c0.65,0.95,1.15,1.91,1.54,2.81c2.86-5.23,3.22-10.98,1.08-17.17
							c-2.31-6.68-7.01-12.28-9.61-15.02c-2-2.11-3.26-4.75-3.65-7.63l-0.73-5.4c-0.77-5.71-1.64-12.14-1.8-13.29
							c-0.34-0.99-1.28-1.67-2.33-1.67c-0.01,0-0.01,0-0.01,0C982.57,152.57,982.1,153.86,981.99,154.26z M979.89,153.77
							L979.89,153.77L979.89,153.77z"/>
					</g>
				</g>
			</g>
			<g id="body_bg_00000056394653594835098980000007410764842498007464_">
				<g>
					<path class="st3" d="M999.24,223.03c5.42,2.34,7.28,9.02,5.81,14.57c0,0,0,0,0,0.01c-6.89,35.48-24.72,66.76-31.96,69.2
						c0,0,1.32-8.74,1.97-13.09c0.29-1.91,0.19-3.86-0.3-5.73c-1.92-7.31-6.44-13.48-8.26-20.52c-2.73-10.59-3.47-22.08-7.03-34.99
						c-1.05-3.8,0.68-7.82,4.16-9.66c0-0.01,0-0.01,0-0.01c4.95-0.95,0.74-6.49,0.5-10.57c3.84-11.54,6.94-15.5,17.12-15.63
						c11.04-1,17.25,7.57,20.1,15.43C1000.41,221.97,998.68,221.11,999.24,223.03L999.24,223.03z"/>
				</g>
			</g>
			<g id="flippers_00000110434658704762414990000016672627769083042461_">
				<g>
					<g>
						<path class="st4" d="M1001.08,253.89c-10.12,40.39-4.66,44.29-4.66,44.29l-7.29-6.85"/>
					</g>
					<g>
						<path d="M996.41,300.34c-0.44,0-0.88-0.13-1.26-0.4c-0.11-0.08-0.23-0.18-0.36-0.31l-7.15-6.72c-0.87-0.82-0.91-2.19-0.1-3.06
							c0.82-0.87,2.19-0.91,3.06-0.1l2.18,2.05c-0.21-6.52,1.08-18.06,6.19-38.44c0.29-1.16,1.46-1.86,2.62-1.57
							c1.16,0.29,1.86,1.47,1.57,2.62c-3.73,14.89-5.76,26.45-6.04,34.36c-0.2,5.8,0.66,7.6,0.81,7.88c0.78,0.78,0.84,2.04,0.14,2.9
							C997.66,300.07,997.04,300.34,996.41,300.34z M997.97,296.7L997.97,296.7L997.97,296.7z"/>
					</g>
				</g>
				<g>
					<g>
						<path class="st4" d="M965.7,264.11c0.64,17.47,4.04,27.5-2.07,30.58c0,0,6.43-0.19,9.71-5.5"/>
					</g>
					<g>
						<path d="M963.62,296.85c-0.99,0-1.85-0.67-2.1-1.63c-0.25-0.98,0.22-2.01,1.12-2.46c2.96-1.49,2.67-6.1,1.81-15.55
							c-0.35-3.79-0.74-8.08-0.92-13.02c-0.04-1.19,0.89-2.2,2.08-2.24c1.19-0.04,2.2,0.89,2.24,2.08
							c0.18,4.82,0.56,9.05,0.91,12.78c0.45,4.97,0.81,8.89,0.49,12.04c-0.06,0.56-0.14,1.18-0.28,1.82
							c0.93-0.63,1.82-1.48,2.52-2.61c0.63-1.02,1.96-1.33,2.98-0.7c1.02,0.63,1.33,1.96,0.7,2.98c-3.85,6.23-11.18,6.51-11.49,6.52
							C963.66,296.85,963.64,296.85,963.62,296.85z"/>
					</g>
				</g>
			</g>
			<g id="light_00000124884200163809302660000011909204401818624696_">
				<g>
					<g>
						<path class="st5" d="M996.54,224.77l4.82,2.94c1.41,0.86,2.11,2.52,1.73,4.13c-2.12,9.06-9.19,38.38-13.83,46.77l-0.14,0.5
							l-0.46,1.74c-0.39,1.85-0.82,4.09-0.79,2.96l0.79-2.96c0.2-0.99,0.4-1.88,0.51-2.07l0.09-0.17
							c6.11-22.64,11.17-39.54-0.67-48.79C992.7,229.1,995.35,227.48,996.54,224.77L996.54,224.77z"/>
					</g>
				</g>
				<g>
					<g>
						<path class="st4" d="M982.33,155.56c0.08-1.78-3.03,6.42-3.22,7.04c-5.46,17.34-20.17,27.65-14.09,47.96
							c0.05,0.18,0.64-1.01,1.8-3.08c3.3-5.86,12.24-7.5,12.24-7.5C962.04,186.73,981.74,169.01,982.33,155.56z"/>
					</g>
				</g>
				<g>
					<g>
						<path class="st5" d="M985.6,156.65c0.43-1.73,1.18,3.7,1.06,4.34c-3.17,16.8,22.38,31.31,13.55,50.66
							c-0.04,0.08-0.67-2.95-2.41-5.23c-1.8-2.37-4.71-4-4.71-4C1002.55,191.81,980,179.13,985.6,156.65L985.6,156.65z"/>
					</g>
				</g>
				<g>
					<g>
						<path class="st4" d="M974.67,229.26c-11.4,9.42,1.61,49.26,2.93,65.55c0.01,0.18-0.05,0.35-0.07,0.52
							c-0.29,1.76-0.27-3.04-0.35-3.68c-0.65-5.52-3.56-13.68-6.78-20.47c-3.34-7.05-3.86-18.01-4.63-25.54
							c-1.25-12.24-5.47-15.36,2.52-21.51c0.02-0.02,0.25,0.08,0.61,0.26C969.78,226.75,971.7,228.34,974.67,229.26L974.67,229.26z"
							/>
					</g>
				</g>
				<g>
					<g>
						<path class="st5" d="M975.34,229.46l0.27,0.07c-2.46,3.56-5.63,16.11,0.17,50.51c-1.42-8.4-9.15-40.18-0.62-50.62
							L975.34,229.46z"/>
					</g>
				</g>
				<g>
					<g>
						<path class="st4" d="M976.1,229.64c1.8,0.39,3.91,0.59,6.34,0.61c-6.63,3.2-10.08,7.83-3.89,39.56
							c1.81,9.26-1.01,18.31-0.95,25c0,0.18-0.05,0.35-0.07,0.52c-0.29,1.76-0.27-3.04-0.35-3.68
							C975.05,266.47,971.62,244.32,976.1,229.64L976.1,229.64z"/>
					</g>
				</g>
			</g>
			<g id="body_line_00000149375240722015522100000012856818309280580765_">
				<g>
					<path d="M973.08,308.97c-0.5,0-1-0.17-1.39-0.51c-0.58-0.48-0.86-1.23-0.75-1.98l1.97-13.09c0.25-1.63,0.16-3.26-0.25-4.86
						c-0.91-3.47-2.5-6.8-4.05-10.02c-1.6-3.34-3.26-6.8-4.21-10.51c-1.26-4.89-2.09-9.89-2.97-15.18
						c-0.96-5.79-1.96-11.79-3.61-18.13c-1.49-5.74,1.32-11.64,6.7-14.11c0.05-0.03,0.1-0.05,0.15-0.07
						c1.09-0.48,2.37,0.02,2.85,1.11c0.48,1.09-0.01,2.37-1.1,2.85c-3.52,1.56-5.37,5.4-4.4,9.12c1.7,6.53,2.71,12.62,3.69,18.51
						c0.86,5.2,1.68,10.11,2.89,14.81c0.85,3.3,2.35,6.42,3.93,9.72c1.63,3.4,3.32,6.92,4.33,10.79c0.56,2.17,0.68,4.39,0.34,6.6
						l-1.15,7.6c2.82-3.22,6.75-9.01,11.21-18.01c4.08-8.23,11.54-25.22,15.66-46.44c0.01-0.05,0.02-0.1,0.03-0.15h0
						c1.55-5.86-1.2-10.58-4.57-12.03c-1.1-0.47-1.6-1.75-1.13-2.84c0.47-1.1,1.75-1.6,2.84-1.13c3.07,1.33,5.44,3.93,6.66,7.33
						c1.09,3.03,1.23,6.48,0.4,9.71c-3.13,16.08-8.82,32.94-16.02,47.47c-3.07,6.2-6.26,11.62-9.22,15.67
						c-3.19,4.36-5.85,6.86-8.14,7.63C973.55,308.93,973.31,308.97,973.08,308.97z M1005.04,237.6L1005.04,237.6L1005.04,237.6z"/>
				</g>
			</g>
			<g id="tenticles_00000085228229983806445950000009956507339093828790_">
				<g>
					<g>
						<path class="st5" d="M985.28,282.9c-0.66,2.62,0.43,5.2,2.41,5.75c1.99,0.55,4.14-1.13,4.79-3.75
							c0.66-2.62-0.43-5.2-2.41-5.75C988.08,278.6,985.93,280.28,985.28,282.9L985.28,282.9z"/>
					</g>
					<g>
						<path d="M988.46,290.91c-0.45,0-0.9-0.06-1.34-0.18c-3.16-0.88-4.89-4.55-3.94-8.36c0,0,0,0,0,0
							c0.51-2.05,1.74-3.78,3.37-4.73c1.29-0.75,2.74-0.96,4.09-0.58c3.16,0.88,4.89,4.55,3.94,8.36c-0.51,2.05-1.74,3.78-3.37,4.73
							C990.34,290.65,989.39,290.91,988.46,290.91z M987.37,283.42L987.37,283.42c-0.38,1.52,0.17,2.93,0.89,3.14
							c0.22,0.06,0.48,0.01,0.76-0.15c0.61-0.36,1.13-1.14,1.35-2.04c0.38-1.52-0.17-2.93-0.89-3.14c-0.23-0.06-0.48-0.01-0.76,0.15
							C988.12,281.74,987.6,282.52,987.37,283.42z"/>
					</g>
				</g>
				<g>
					<g>
						<path class="st5" d="M989.28,270.35c-0.9,3.31,0.4,6.6,2.9,7.35c2.51,0.75,5.28-1.32,6.18-4.62c0.9-3.31-0.4-6.6-2.9-7.35
							C992.95,264.97,990.18,267.04,989.28,270.35z"/>
					</g>
					<g>
						<path d="M993.23,280.02c-0.57,0-1.13-0.08-1.67-0.24c-1.83-0.55-3.33-2.01-4.12-4c-0.72-1.82-0.81-3.95-0.25-6
							c0.67-2.44,2.17-4.46,4.13-5.55c1.52-0.84,3.21-1.05,4.76-0.58c1.83,0.55,3.33,2.01,4.12,4c0.72,1.82,0.81,3.95,0.25,6
							c-0.67,2.44-2.17,4.46-4.13,5.55C995.33,279.74,994.28,280.02,993.23,280.02z M994.4,267.73c-0.31,0-0.64,0.09-0.98,0.28
							c-0.93,0.51-1.7,1.6-2.05,2.9c-0.64,2.33,0.25,4.35,1.44,4.71c0.44,0.13,0.92,0.06,1.42-0.22c0.93-0.51,1.7-1.6,2.05-2.9
							c0.64-2.33-0.25-4.35-1.44-4.71C994.69,267.75,994.55,267.73,994.4,267.73z"/>
					</g>
				</g>
				<g>
					<g>
						<path class="st5" d="M982.01,291.91c-1.22,2.03-0.95,4.42,0.62,5.34c1.57,0.92,3.84,0.01,5.06-2.02
							c1.22-2.03,0.95-4.42-0.62-5.34C985.5,288.98,983.23,289.88,982.01,291.91z"/>
					</g>
					<g>
						<path d="M984.01,299.78c-0.86,0-1.7-0.21-2.47-0.66c-1.12-0.66-1.93-1.76-2.27-3.1c-0.43-1.68-0.1-3.58,0.89-5.23l0,0
							c1.86-3.09,5.38-4.3,8-2.77c1.12,0.66,1.93,1.76,2.27,3.1c0.43,1.68,0.1,3.58-0.89,5.23
							C988.23,298.54,986.08,299.78,984.01,299.78z M983.86,293.03L983.86,293.03c-0.46,0.77-0.51,1.5-0.4,1.92
							c0.04,0.15,0.11,0.34,0.26,0.43c0.4,0.23,1.44-0.15,2.12-1.27c0.46-0.77,0.51-1.5,0.4-1.92c-0.04-0.15-0.11-0.34-0.26-0.43
							C985.58,291.53,984.53,291.92,983.86,293.03z"/>
					</g>
				</g>
				<g>
					<g>
						<path class="st5" d="M976.77,299.35c-1.56,1.43-1.91,3.47-0.78,4.57c1.13,1.09,3.32,0.83,4.88-0.6
							c1.56-1.43,1.91-3.47,0.78-4.57S978.33,297.92,976.77,299.35z"/>
					</g>
					<g>
						<path d="M977.82,306.75c-1.26,0-2.45-0.42-3.34-1.28c-0.87-0.84-1.34-2.01-1.32-3.28c0.02-1.6,0.81-3.22,2.15-4.44l0,0
							c2.43-2.22,5.88-2.46,7.84-0.56c0.87,0.84,1.34,2.01,1.32,3.28c-0.02,1.6-0.81,3.22-2.15,4.44
							C981,306.13,979.36,306.75,977.82,306.75z M979.86,300.23c-0.37,0-1.02,0.16-1.63,0.72h0c-0.73,0.67-0.78,1.32-0.73,1.43
							c0.13,0.12,1.06,0.11,1.91-0.66c0.73-0.67,0.78-1.32,0.73-1.43C980.1,300.25,980,300.23,979.86,300.23z M976.77,299.35
							L976.77,299.35L976.77,299.35z"/>
					</g>
				</g>
			</g>
			<g id="face_00000060026962379518469660000008095194482811184046_">
				<g>
					<g>
						<path d="M983.41,221.43C983.41,221.43,983.41,221.43,983.41,221.43c-1.16,0-2.21-0.73-2.61-1.82
							c-0.03-0.09-0.05-0.18-0.05-0.27c0-0.44,0.35-0.79,0.79-0.79c0.34,0,0.64,0.22,0.74,0.53c0.18,0.46,0.63,0.77,1.12,0.77
							c0,0,0,0,0,0c0.5,0,0.96-0.32,1.13-0.78l0.01-0.02c0.15-0.41,0.6-0.62,1.01-0.47c0.41,0.15,0.62,0.6,0.47,1.01l-0.01,0.03
							C985.61,220.7,984.57,221.43,983.41,221.43z M982.33,219.34L982.33,219.34L982.33,219.34z"/>
					</g>
				</g>
				<g>
					<g>
						<path d="M995.26,216.45c-0.4,0-0.79-0.17-1.06-0.51l-0.19-0.24c-0.97-1.21-2.73-1.47-4.01-0.58l-0.46,0.32
							c-0.61,0.43-1.46,0.27-1.88-0.34c-0.43-0.61-0.27-1.46,0.34-1.88l0.46-0.32c2.44-1.69,5.8-1.2,7.66,1.11l0.19,0.24
							c0.47,0.58,0.37,1.43-0.21,1.9C995.86,216.36,995.56,216.45,995.26,216.45z"/>
					</g>
				</g>
				<g>
					<g>
						<path d="M971.21,216.65c-0.35,0-0.69-0.13-0.95-0.39c-0.53-0.53-0.53-1.38,0-1.91l0.71-0.71c1.76-1.76,4.42-2.18,6.63-1.03
							l1.28,0.66c0.66,0.34,0.92,1.16,0.58,1.82c-0.34,0.66-1.16,0.92-1.82,0.58l-1.28-0.66c-1.16-0.6-2.55-0.38-3.47,0.54
							l-0.71,0.71C971.91,216.52,971.56,216.65,971.21,216.65z"/>
					</g>
				</g>
			</g>
		</g>
	</g>
	<g>
		
			<rect x="720.85" y="122.88" transform="matrix(0.8594 -0.5113 0.5113 0.8594 39.7874 394.4622)" class="st6" width="32.72" height="4"/>
	</g>
	<g>
		<rect x="667.68" y="223.09" class="st6" width="4" height="32.48"/>
	</g>
	<g>
		
			<rect x="727.88" y="338.2" transform="matrix(0.5191 -0.8547 0.8547 0.5191 48.0928 794.2607)" class="st6" width="4" height="32.39"/>
	</g>
	<g>
		
			<rect x="853.37" y="348.37" transform="matrix(0.8524 -0.5229 0.5229 0.8524 -54.9141 506.1932)" class="st6" width="31.67" height="4"/>
	</g>
	<g>
		
			<ellipse transform="matrix(0.7391 -0.6736 0.6736 0.7391 48.7435 602.3887)" class="st6" cx="802.07" cy="238.27" rx="113.31" ry="104.75"/>
	</g>
	<g>
		
			<rect x="874.4" y="107.81" transform="matrix(0.5341 -0.8454 0.8454 0.5341 303.4439 798.698)" class="st6" width="4" height="32.44"/>
	</g>
	<g>
		
			<ellipse transform="matrix(0.7391 -0.6736 0.6736 0.7391 48.7435 602.3887)" class="st7" cx="802.07" cy="238.27" rx="66.11" ry="61.12"/>
	</g>
	<g>
		<g>
			<path class="st2" d="M848.05,174.15c-2.57,0-5.02-0.89-6.82-2.72c-1.72-1.74-2.66-4.14-2.64-6.75c0.03-3.22,1.49-6.48,4.01-8.95
				c4.73-4.63,11.81-5.12,15.78-1.1c1.72,1.74,2.66,4.14,2.64,6.75c-0.03,3.22-1.49,6.48-4.01,8.95h0
				C854.44,172.86,851.15,174.15,848.05,174.15z M851.57,155.89c-2.07,0-4.34,0.93-6.16,2.7c-1.77,1.73-2.79,3.96-2.81,6.12
				c-0.01,1.09,0.24,2.65,1.48,3.91c2.43,2.46,6.98,1.94,10.15-1.15c1.77-1.73,2.79-3.96,2.81-6.12c0.01-1.09-0.24-2.65-1.48-3.91
				C854.52,156.4,853.1,155.89,851.57,155.89z"/>
		</g>
		<g>
			<path class="st2" d="M761.72,176.78c-4.76,0-9.31-3.78-10.75-9.31c-0.88-3.4-0.46-6.93,1.18-9.71c1.33-2.26,3.38-3.85,5.76-4.46
				c5.49-1.41,11.3,2.64,12.97,9.03l0,0c0.88,3.4,0.45,6.93-1.18,9.71c-1.33,2.26-3.38,3.85-5.76,4.46
				C763.21,176.69,762.46,176.78,761.72,176.78z M760.16,157.02c-0.42,0-0.84,0.05-1.25,0.16c-1.73,0.44-2.75,1.67-3.31,2.62
				c-1.1,1.86-1.37,4.29-0.75,6.67c1.11,4.26,4.75,7.03,8.1,6.16c1.73-0.44,2.75-1.67,3.31-2.61c1.1-1.86,1.37-4.29,0.75-6.67
				C766.04,159.6,763.12,157.02,760.16,157.02z"/>
		</g>
		<g>
			<path class="st2" d="M716.28,249.28c-1.21,0-2.46-0.16-3.7-0.51c-3.42-0.94-6.29-3.09-7.88-5.91c-1.28-2.27-1.63-4.81-0.98-7.16
				c1.51-5.43,7.95-8.42,14.34-6.66c3.42,0.94,6.29,3.09,7.88,5.91c1.28,2.27,1.63,4.81,0.98,7.16
				C725.7,246.49,721.29,249.28,716.28,249.28z M714.31,232.54c-3.24,0-6.02,1.63-6.75,4.25c-0.47,1.69,0.07,3.17,0.6,4.11
				c1.07,1.9,3.06,3.36,5.46,4.02c4.27,1.18,8.5-0.56,9.43-3.88c0.47-1.69-0.07-3.17-0.6-4.11c-1.07-1.9-3.06-3.36-5.46-4.02
				C716.09,232.65,715.19,232.54,714.31,232.54z"/>
		</g>
		<g>
			<path class="st2" d="M751.18,325.41c-2.57,0-5.02-0.89-6.82-2.72c-1.72-1.74-2.66-4.14-2.64-6.75c0.03-3.22,1.49-6.48,4.01-8.95
				l1.4,1.43l-1.4-1.43c4.73-4.62,11.81-5.12,15.79-1.1c1.72,1.74,2.66,4.14,2.64,6.75c-0.03,3.22-1.49,6.48-4.01,8.95
				C757.57,324.12,754.28,325.41,751.18,325.41z M754.7,307.15c-2.07,0-4.34,0.93-6.16,2.7c-1.77,1.73-2.79,3.96-2.81,6.12
				c-0.01,1.09,0.24,2.65,1.48,3.91c2.43,2.46,6.98,1.94,10.15-1.15c1.77-1.73,2.79-3.96,2.81-6.12c0.01-1.09-0.24-2.65-1.48-3.91
				C757.65,307.65,756.23,307.15,754.7,307.15z"/>
		</g>
		<g>
			<path class="st2" d="M845.98,323.51c-4.76,0-9.31-3.78-10.75-9.31l0,0c-0.88-3.4-0.45-6.93,1.18-9.71
				c1.33-2.26,3.38-3.85,5.76-4.46c5.49-1.41,11.3,2.64,12.97,9.03c0.88,3.4,0.45,6.93-1.18,9.71c-1.33,2.26-3.38,3.85-5.76,4.46
				C847.46,323.42,846.72,323.51,845.98,323.51z M839.1,313.19c1.11,4.26,4.74,7.03,8.1,6.16c1.73-0.44,2.75-1.67,3.31-2.61
				c1.1-1.86,1.37-4.29,0.75-6.67c-1.11-4.26-4.74-7.03-8.1-6.16c-1.73,0.44-2.75,1.67-3.31,2.61
				C838.76,308.38,838.48,310.82,839.1,313.19L839.1,313.19z"/>
		</g>
		<g>
			<path class="st2" d="M889.79,247.99c-1.21,0-2.46-0.16-3.7-0.51c-3.42-0.94-6.29-3.09-7.88-5.91c-1.28-2.27-1.63-4.81-0.98-7.16
				c1.51-5.43,7.95-8.42,14.34-6.66c3.42,0.94,6.29,3.09,7.88,5.91c1.28,2.27,1.63,4.81,0.98,7.16
				C899.21,245.2,894.8,247.99,889.79,247.99z M887.82,231.25c-3.24,0-6.02,1.63-6.74,4.25c-0.47,1.69,0.07,3.17,0.6,4.11
				c1.07,1.9,3.06,3.36,5.46,4.02l0,0c4.28,1.18,8.5-0.56,9.43-3.88c0.47-1.69-0.07-3.17-0.6-4.11c-1.07-1.89-3.06-3.36-5.46-4.02
				C889.6,231.36,888.7,231.25,887.82,231.25z"/>
		</g>
	</g>
	<g>
		<g>
			<g>
				<polygon class="st6" points="695.25,225.43 658.26,225.43 588.57,196.16 590.12,192.47 659.07,221.43 695.25,221.43 				"/>
			</g>
			<g>
				<polygon class="st6" points="590.12,286.39 588.57,282.7 658.26,253.43 697.91,253.43 697.91,257.43 659.07,257.43 				"/>
			</g>
			<g>
				<rect x="637.89" y="237.43" class="st6" width="57.45" height="4"/>
			</g>
			<g>
				
					<rect x="595.25" y="188.78" transform="matrix(0.7899 -0.6132 0.6132 0.7899 -1.2221 409.653)" class="st6" width="4" height="35.66"/>
			</g>
			<g>
				
					<rect x="584.2" y="206.65" transform="matrix(0.4749 -0.8801 0.8801 0.4749 112.1124 632.6655)" class="st6" width="4" height="31.48"/>
			</g>
			<g>
				
					<rect x="563.59" y="237.23" transform="matrix(0.9999 -0.0154 0.0154 0.9999 -3.6103 8.9714)" class="st6" width="35.85" height="4"/>
			</g>
			<g>
				
					<rect x="573.33" y="254.44" transform="matrix(0.8732 -0.4873 0.4873 0.8732 -50.2489 319.7099)" class="st6" width="32.15" height="4"/>
			</g>
			<g>
				
					<rect x="579.35" y="268.33" transform="matrix(0.623 -0.7822 0.7822 0.623 14.1296 569.9792)" class="st6" width="38.1" height="4"/>
			</g>
			<g>
				
					<ellipse transform="matrix(0.6899 -0.7239 0.7239 0.6899 18.86 522.8835)" class="st6" cx="619.7" cy="239.43" rx="18.41" ry="22.32"/>
			</g>
			<g>
				
					<ellipse transform="matrix(0.6899 -0.7239 0.7239 0.6899 21.9215 480.999)" class="st2" cx="572.34" cy="214.91" rx="5.22" ry="6.33"/>
			</g>
			<g>
				
					<ellipse transform="matrix(0.6899 -0.7239 0.7239 0.6899 1.4885 482.3342)" class="st2" cx="563.69" cy="239.43" rx="5.22" ry="6.33"/>
			</g>
			<g>
				
					<ellipse transform="matrix(0.6899 -0.7239 0.7239 0.6899 -12.8321 498.4628)" class="st2" cx="575.35" cy="264.21" rx="5.22" ry="6.33"/>
			</g>
			<g>
				
					<ellipse transform="matrix(0.6899 -0.7239 0.7239 0.6899 -24.4349 513.4269)" class="st2" cx="587.01" cy="285.23" rx="5.22" ry="6.33"/>
			</g>
			<g>
				
					<ellipse transform="matrix(0.6899 -0.7239 0.7239 0.6899 42.4634 484.1742)" class="st2" cx="586.32" cy="192.53" rx="5.22" ry="6.33"/>
			</g>
			<g>
				
					<ellipse transform="matrix(0.9999 -0.0137 0.0137 0.9999 -3.0082 9.2254)" class="st2" cx="669.55" cy="223.43" rx="12.25" ry="5.4"/>
			</g>
			<g>
				
					<ellipse transform="matrix(0.9999 -0.0137 0.0137 0.9999 -3.2291 9.2269)" class="st2" cx="669.55" cy="239.5" rx="12.25" ry="5.4"/>
			</g>
			<g>
				
					<ellipse transform="matrix(0.9999 -0.0137 0.0137 0.9999 -3.45 9.2284)" class="st2" cx="669.55" cy="255.57" rx="12.25" ry="5.4"/>
			</g>
		</g>
	</g>
	<g>
		<g>
			<g>
				
					<ellipse transform="matrix(0.9761 -0.2174 0.2174 0.9761 3.7363 198.3249)" class="st6" cx="903.23" cy="82.18" rx="18.46" ry="22.26"/>
			</g>
			<g>
				<polygon class="st6" points="850.9,138.15 847.53,136.01 866.88,105.62 879.15,32.23 883.09,32.89 870.69,107.08 				"/>
			</g>
			<g>
				<polygon class="st6" points="876.68,157.5 873.3,155.35 894.51,122.05 894.85,121.82 956.67,79.17 958.94,82.47 897.45,124.88 
									"/>
			</g>
			<g>
				
					<rect x="849.53" y="119.59" transform="matrix(0.5372 -0.8434 0.8434 0.5372 303.8256 796.9181)" class="st6" width="57.2" height="4"/>
			</g>
			<g>
				
					<rect x="885.34" y="27.97" transform="matrix(0.939 -0.3439 0.3439 0.939 38.3771 307.9381)" class="st6" width="4" height="35.6"/>
			</g>
			<g>
				
					<rect x="891" y="42.93" transform="matrix(0.0674 -0.9977 0.9977 0.0674 800.7344 946.5023)" class="st6" width="31.34" height="4"/>
			</g>
			<g>
				
					<rect x="905.63" y="48" transform="matrix(0.5501 -0.8351 0.8351 0.5501 373.6928 793.6753)" class="st6" width="35.7" height="4"/>
			</g>
			<g>
				
					<rect x="917.81" y="63.84" transform="matrix(0.8812 -0.4727 0.4727 0.8812 79.8092 449.2851)" class="st6" width="32.15" height="4"/>
			</g>
			<g>
				
					<rect x="921.76" y="78.83" transform="matrix(0.9945 -0.1045 0.1045 0.9945 -3.2952 98.7471)" class="st6" width="38.24" height="4"/>
			</g>
			<g>
				
					<ellipse transform="matrix(0.55 -0.8352 0.8352 0.55 291.8827 772.696)" class="st2" cx="862.96" cy="115.5" rx="12.2" ry="5.42"/>
			</g>
			<g>
				
					<ellipse transform="matrix(0.55 -0.8352 0.8352 0.55 290.8499 787.972)" class="st2" cx="876.62" cy="124.09" rx="12.2" ry="5.42"/>
			</g>
			<g>
				
					<ellipse transform="matrix(0.55 -0.8352 0.8352 0.55 289.8171 803.248)" class="st2" cx="890.28" cy="132.69" rx="12.2" ry="5.42"/>
			</g>
			<g>
				
					<ellipse transform="matrix(0.9761 -0.2174 0.2174 0.9761 15.341 198.0369)" class="st2" cx="907.72" cy="29.3" rx="5.24" ry="6.32"/>
			</g>
			<g>
				
					<ellipse transform="matrix(0.9761 -0.2174 0.2174 0.9761 14.6801 203.7133)" class="st2" cx="933.19" cy="35.14" rx="5.24" ry="6.32"/>
			</g>
			<g>
				
					<ellipse transform="matrix(0.9761 -0.2174 0.2174 0.9761 10.0234 207.4867)" class="st2" cx="948.01" cy="58.19" rx="5.24" ry="6.32"/>
			</g>
			<g>
				
					<ellipse transform="matrix(0.9761 -0.2174 0.2174 0.9761 5.727 210.5183)" class="st2" cx="959.64" cy="79.23" rx="5.24" ry="6.32"/>
			</g>
			<g>
				
					<ellipse transform="matrix(0.9761 -0.2174 0.2174 0.9761 14.7585 192.2693)" class="st2" cx="881.22" cy="29.06" rx="5.24" ry="6.32"/>
			</g>
		</g>
		<g>
			<g>
				<polygon class="st6" points="649.79,399.47 647.52,396.18 709.01,353.77 728.36,323.38 731.74,325.53 711.95,356.6 
					711.61,356.83 				"/>
			</g>
			<g>
				<polygon class="st6" points="727.31,446.42 723.37,445.76 735.77,371.57 756.98,338.26 760.35,340.41 739.58,373.03 				"/>
			</g>
			<g>
				
					<rect x="699.73" y="355.06" transform="matrix(0.5371 -0.8435 0.8435 0.5371 35.9517 779.6343)" class="st6" width="57.2" height="4"/>
			</g>
			<g>
				
					<rect x="645.44" y="395.76" transform="matrix(0.9958 -0.092 0.092 0.9958 -33.7918 62.7362)" class="st6" width="35.79" height="4"/>
			</g>
			<g>
				
					<rect x="655.09" y="413.49" transform="matrix(0.8745 -0.4851 0.4851 0.8745 -117.3365 377.565)" class="st6" width="31.48" height="4"/>
			</g>
			<g>
				
					<rect x="664.79" y="426.43" transform="matrix(0.5242 -0.8516 0.8516 0.5242 -40.0476 785.1823)" class="st6" width="35.7" height="4"/>
			</g>
			<g>
				
					<rect x="685.49" y="429.01" transform="matrix(0.0532 -0.9986 0.9986 0.0532 233.7536 1108.5618)" class="st6" width="32.01" height="4"/>
			</g>
			<g>
				
					<rect x="716.11" y="411.86" transform="matrix(0.9432 -0.3321 0.3321 0.9432 -102.347 262.9783)" class="st6" width="4" height="38.04"/>
			</g>
			<g>
				
					<ellipse transform="matrix(0.9753 -0.2209 0.2209 0.9753 -70.202 165.1212)" class="st6" cx="703.23" cy="396.47" rx="22.38" ry="18.37"/>
			</g>
			<g>
				
					<ellipse transform="matrix(0.9753 -0.2209 0.2209 0.9753 -77.2305 155.5823)" class="st2" cx="657.07" cy="423.13" rx="6.35" ry="5.21"/>
			</g>
			<g>
				
					<ellipse transform="matrix(0.9753 -0.2209 0.2209 0.9753 -81.333 159.6652)" class="st2" cx="673.27" cy="443.51" rx="6.35" ry="5.21"/>
			</g>
			<g>
				
					<ellipse transform="matrix(0.9753 -0.2209 0.2209 0.9753 -81.4226 165.7804)" class="st2" cx="700.57" cy="446.97" rx="6.35" ry="5.21"/>
			</g>
			<g>
				
					<ellipse transform="matrix(0.9753 -0.2209 0.2209 0.9753 -81.1474 171.1412)" class="st2" cx="724.68" cy="448.42" rx="6.35" ry="5.21"/>
			</g>
			<g>
				
					<ellipse transform="matrix(0.9753 -0.2209 0.2209 0.9753 -72.2778 152.4452)" class="st2" cx="645.52" cy="399.41" rx="6.35" ry="5.21"/>
			</g>
			<g>
				
					<ellipse transform="matrix(0.5265 -0.8502 0.8502 0.5265 44.9691 772.8134)" class="st2" cx="716.3" cy="346.03" rx="12.2" ry="5.42"/>
			</g>
			<g>
				
					<ellipse transform="matrix(0.5265 -0.8502 0.8502 0.5265 44.128 788.4958)" class="st2" cx="729.96" cy="354.63" rx="12.2" ry="5.42"/>
			</g>
			<g>
				
					<ellipse transform="matrix(0.5265 -0.8502 0.8502 0.5265 43.2868 804.1782)" class="st2" cx="743.62" cy="363.23" rx="12.2" ry="5.42"/>
			</g>
		</g>
	</g>
	<g>
		<g>
			<g>
				<polygon class="st6" points="735.96,157.44 717.31,126.62 656.81,82.82 659.16,79.58 720.31,123.86 739.38,155.37 				"/>
			</g>
			<g>
				<polygon class="st6" points="764.91,143.21 744.47,109.43 733.78,34.98 737.74,34.41 748.32,108.06 768.33,141.14 				"/>
			</g>
			<g>
				
					<rect x="734.7" y="95.17" transform="matrix(0.8556 -0.5177 0.5177 0.8556 42.3306 399.264)" class="st6" width="4" height="57.2"/>
			</g>
			<g>
				
					<rect x="670.66" y="63.71" transform="matrix(0.1148 -0.9934 0.9934 0.1148 514.3853 740.4451)" class="st6" width="4" height="35.79"/>
			</g>
			<g>
				
					<rect x="678.56" y="48.31" transform="matrix(0.505 -0.8631 0.8631 0.505 281.6072 619.1152)" class="st6" width="4" height="31.47"/>
			</g>
			<g>
				
					<rect x="690.66" y="33.53" transform="matrix(0.8634 -0.5045 0.5045 0.8634 68.6726 356.4322)" class="st6" width="4" height="35.69"/>
			</g>
			<g>
				
					<rect x="709.57" y="33.23" transform="matrix(0.9995 -0.0302 0.0302 0.9995 -1.1615 21.495)" class="st6" width="4" height="32.01"/>
			</g>
			<g>
				
					<rect x="709.16" y="47.73" transform="matrix(0.3538 -0.9353 0.9353 0.3538 424.0531 713.2311)" class="st6" width="38.04" height="4"/>
			</g>
			<g>
				
					<ellipse transform="matrix(0.2425 -0.9701 0.9701 0.2425 458.4057 754.7208)" class="st6" cx="712.52" cy="83.8" rx="18.37" ry="22.38"/>
			</g>
			<g>
				
					<ellipse transform="matrix(0.2425 -0.9701 0.9701 0.2425 450.7845 689.5566)" class="st2" cx="666.98" cy="56.1" rx="5.21" ry="6.35"/>
			</g>
			<g>
				
					<ellipse transform="matrix(0.2425 -0.9701 0.9701 0.2425 482.8257 690.5712)" class="st2" cx="683.65" cy="36.09" rx="5.21" ry="6.35"/>
			</g>
			<g>
				
					<ellipse transform="matrix(0.2425 -0.9701 0.9701 0.2425 506.3101 714.9772)" class="st2" cx="711.02" cy="33.25" rx="5.21" ry="6.35"/>
			</g>
			<g>
				
					<ellipse transform="matrix(0.2425 -0.9701 0.9701 0.2425 525.4657 737.7094)" class="st2" cx="735.15" cy="32.35" rx="5.21" ry="6.35"/>
			</g>
			<g>
				
					<ellipse transform="matrix(0.2425 -0.9701 0.9701 0.2425 418.8782 695.5823)" class="st2" cx="654.88" cy="79.55" rx="5.21" ry="6.35"/>
			</g>
			<g>
				
					<ellipse transform="matrix(0.862 -0.5068 0.5068 0.862 31.7635 385.7298)" class="st2" cx="724.43" cy="134.52" rx="5.43" ry="12.2"/>
			</g>
			<g>
				
					<ellipse transform="matrix(0.862 -0.5068 0.5068 0.862 37.8731 391.6084)" class="st2" cx="738.28" cy="126.24" rx="5.43" ry="12.2"/>
			</g>
			<g>
				
					<ellipse transform="matrix(0.862 -0.5068 0.5068 0.862 43.9827 397.4871)" class="st2" cx="752.13" cy="117.95" rx="5.43" ry="12.2"/>
			</g>
		</g>
		<g>
			<g>
				<polygon class="st6" points="869.34,441.63 858.76,367.98 840.11,337.16 843.54,335.09 862.61,366.6 873.3,441.06 				"/>
			</g>
			<g>
				<polygon class="st6" points="947.92,396.46 886.77,352.18 866.33,318.4 869.75,316.33 889.77,349.41 950.27,393.22 				"/>
			</g>
			<g>
				
					<rect x="868.38" y="323.67" transform="matrix(0.8556 -0.5177 0.5177 0.8556 -56.6539 501.4763)" class="st6" width="4" height="57.2"/>
			</g>
			<g>
				
					<rect x="860.04" y="426.27" transform="matrix(0.3655 -0.9308 0.9308 0.3655 158.326 1088.8156)" class="st6" width="35.61" height="4"/>
			</g>
			<g>
				
					<rect x="895.14" y="413.89" transform="matrix(0.999 -0.0444 0.0444 0.999 -18.2041 40.2952)" class="st6" width="4" height="31.33"/>
			</g>
			<g>
				
					<rect x="912.07" y="407.02" transform="matrix(0.8475 -0.5308 0.5308 0.8475 -86.1198 549.9976)" class="st6" width="4" height="35.7"/>
			</g>
			<g>
				
					<rect x="922.84" y="393.2" transform="matrix(0.4927 -0.8702 0.8702 0.4927 113.0186 1012.4128)" class="st6" width="4" height="32.15"/>
			</g>
			<g>
				
					<rect x="930.17" y="375.33" transform="matrix(0.1271 -0.9919 0.9919 0.1271 422.4891 1268.9525)" class="st6" width="4" height="38.24"/>
			</g>
			<g>
				
					<ellipse transform="matrix(0.2403 -0.9707 0.9707 0.2403 298.8384 1166.3182)" class="st6" cx="894.56" cy="392.24" rx="22.26" ry="18.46"/>
			</g>
			<g>
				
					<ellipse transform="matrix(0.2403 -0.9707 0.9707 0.2403 249.9046 1209.7404)" class="st2" cx="897.84" cy="445.21" rx="6.32" ry="5.24"/>
			</g>
			<g>
				
					<ellipse transform="matrix(0.2403 -0.9707 0.9707 0.2403 274.456 1230.5895)" class="st2" cx="923.43" cy="439.95" rx="6.32" ry="5.24"/>
			</g>
			<g>
				
					<ellipse transform="matrix(0.2403 -0.9707 0.9707 0.2403 308.1571 1228.2372)" class="st2" cx="938.78" cy="417.24" rx="6.32" ry="5.24"/>
			</g>
			<g>
				
					<ellipse transform="matrix(0.2403 -0.9707 0.9707 0.2403 337.5213 1224.2135)" class="st2" cx="950.89" cy="396.47" rx="6.32" ry="5.24"/>
			</g>
			<g>
				
					<ellipse transform="matrix(0.2403 -0.9707 0.9707 0.2403 230.127 1183.7357)" class="st2" cx="871.33" cy="444.84" rx="6.32" ry="5.24"/>
			</g>
			<g>
				
					<ellipse transform="matrix(0.8476 -0.5307 0.5307 0.8476 -59.658 508.3134)" class="st2" cx="855.07" cy="358.01" rx="5.42" ry="12.2"/>
			</g>
			<g>
				
					<ellipse transform="matrix(0.8476 -0.5307 0.5307 0.8476 -53.151 514.4022)" class="st2" cx="868.92" cy="349.73" rx="5.42" ry="12.2"/>
			</g>
			<g>
				
					<ellipse transform="matrix(0.8476 -0.5307 0.5307 0.8476 -46.644 520.491)" class="st2" cx="882.78" cy="341.45" rx="5.42" ry="12.2"/>
			</g>
		</g>
	</g>
	<g>
		<path class="st2" d="M892.97,90.12l8.22-18.34h4.22l8.25,18.34h-4.48l-6.75-16.19h1.69l-6.77,16.19H892.97z M897.08,86.19
			l1.13-3.22h9.49l1.16,3.22H897.08z"/>
	</g>
	<g>
		<path class="st2" d="M895.57,400.41c-1.42,0-2.75-0.23-3.97-0.69c-1.22-0.46-2.28-1.12-3.18-1.98c-0.9-0.86-1.59-1.86-2.09-3.01
			s-0.75-2.42-0.75-3.8s0.25-2.65,0.75-3.8s1.2-2.16,2.11-3.01c0.9-0.86,1.96-1.52,3.18-1.98c1.21-0.46,2.54-0.69,3.98-0.69
			c1.6,0,3.04,0.28,4.34,0.83c1.29,0.55,2.38,1.36,3.25,2.42l-2.74,2.52c-0.63-0.72-1.33-1.25-2.11-1.61
			c-0.77-0.36-1.62-0.54-2.53-0.54c-0.86,0-1.65,0.14-2.37,0.42s-1.34,0.68-1.87,1.21s-0.94,1.14-1.23,1.86s-0.43,1.51-0.43,2.38
			s0.14,1.67,0.43,2.38c0.29,0.72,0.7,1.34,1.23,1.86s1.15,0.93,1.87,1.21s1.51,0.42,2.37,0.42c0.91,0,1.76-0.18,2.53-0.54
			c0.77-0.36,1.48-0.9,2.11-1.64l2.74,2.52c-0.88,1.07-1.96,1.88-3.25,2.44C898.65,400.13,897.19,400.41,895.57,400.41z"/>
	</g>
	<g>
		<path class="st2" d="M695.44,403.54V385.2h8.38c2,0,3.77,0.38,5.3,1.14s2.72,1.82,3.58,3.18c0.86,1.36,1.29,2.98,1.29,4.85
			c0,1.85-0.43,3.46-1.29,4.83c-0.86,1.37-2.06,2.44-3.58,3.2s-3.29,1.14-5.3,1.14H695.44z M699.71,400.06h3.9
			c1.23,0,2.3-0.23,3.2-0.69c0.9-0.46,1.61-1.12,2.11-1.98c0.5-0.86,0.75-1.86,0.75-3.01c0-1.17-0.25-2.18-0.75-3.03
			c-0.5-0.85-1.2-1.5-2.11-1.96c-0.91-0.46-1.97-0.69-3.2-0.69h-3.9V400.06z"/>
	</g>
	<g>
		<path class="st2" d="M616.7,243.18h10.04v3.41h-14.29v-18.34h13.94v3.41h-9.7V243.18z M616.39,235.63h8.88v3.3h-8.88V235.63z"/>
	</g>
	<g>
		<path class="st2" d="M708.23,90.12h-4.27V71.78h13.94v3.41h-9.67V90.12z M707.91,80.03h8.86v3.41h-8.86V80.03z"/>
	</g>
</g>
</svg>
