<svg enable-background="new 0 0 1600 500" version="1.1" viewBox="0 0 1600 500" xmlns="http://www.w3.org/2000/svg">
 <style type="text/css">.st0{fill-rule:evenodd;clip-rule:evenodd;fill:#7F4AC4;}
	.st1{fill:#5D3297;}
	.st2{fill:none;stroke:#BC83FB;stroke-width:3.5;stroke-linecap:round;stroke-miterlimit:10;}
	.st3{fill:#FFFFFF;}
	.st4{fill-rule:evenodd;clip-rule:evenodd;fill:#BC83FB;}
	.st5{fill-rule:evenodd;clip-rule:evenodd;fill:#5A007E;}
	.st6{fill-rule:evenodd;clip-rule:evenodd;fill:#D8B6FF;}
	.st7{fill:none;stroke:#FF705E;stroke-width:4;stroke-miterlimit:10;}
	.st8{fill:#FF705E;}
	.st9{fill:#7F4AC4;}
	.st10{fill:none;stroke:#FFFFFF;stroke-width:4;stroke-miterlimit:10;}
	.st11{font-family:'Montserrat-Bold';}
	.st12{font-size:26.2004px;}</style>
 <path class="st0" d="m1600 24.8v428.5c0 8.3-4.1 15.7-10.3 20.2-2.4 1.7-5.8 0.9-6.9-1.9-3.9-9.7-16.4-16.8-31.2-16.8-9.5 0-18 2.9-23.9 7.6-1.9 1.5-4.6 1.3-6.2-0.6-7.7-8.7-21.2-14.5-36.7-14.5-13.9 0-26.4 4.7-34.3 12-1.8 1.7-4.7 1.5-6.4-0.3-9.3-10.1-25.8-16.8-44.6-16.8-27.1 0-49.3 13.9-52.4 31.7-0.4 2.4-2.5 4.1-4.9 4.1h-1317c-13.9 0.2-25-10.9-25-24.6v-428.6c0-13.7 11.1-24.8 24.8-24.8h1550c13.8 0 24.9 11.1 24.9 24.8z"/>
 <ellipse class="st0" cx="1400" cy="479.2" rx="33.9" ry="20.8"/>
 <ellipse class="st0" cx="1484" cy="478.7" rx="27.9" ry="17.2"/>
 <ellipse class="st0" cx="1552" cy="479" rx="18.6" ry="11.5"/>
 <ellipse class="st1" transform="matrix(.7391 -.6736 .6736 .7391 154.1 874.4)" cx="1206" cy="238.3" rx="89.4" ry="82.6"/>
 <ellipse class="st1" transform="matrix(.7391 -.6736 .6736 .7391 207.1 1011)" cx="1409" cy="238.3" rx="52.5" ry="48.5"/>
 <ellipse class="st1" transform="matrix(.7391 -.6736 .6736 .7391 239.6 1095)" cx="1534" cy="238.3" rx="27.2" ry="25.2"/>
 <ellipse class="st1" transform="matrix(.6736 -.7391 .7391 .6736 -46.15 372)" cx="398.1" cy="238.3" rx="82.6" ry="89.4"/>
 <ellipse class="st1" transform="matrix(.6736 -.7391 .7391 .6736 -112.4 222)" cx="195.1" cy="238.3" rx="48.5" ry="52.5"/>
 <ellipse class="st1" transform="matrix(.6736 -.7391 .7391 .6736 -153.1 129.8)" cx="70.4" cy="238.3" rx="25.2" ry="27.2"/>
 <line class="st2" x1="936.9" x2="937.4" y1="219.2" y2="253.1"/>
 <path class="st2" d="m910.2 219.8 38.1-0.4c0.1 0 18.4-3.7 35.1-12.5 10.1-5.3 16.1-14.4 36.6-20.1"/>
 <path class="st2" d="m907.9 253.4c0.6 0.4 2.1 0.4 2.8 0.5 16.6 2.5 20-0.3 34.8-0.8 7.5-0.3 13.2 8.1 24.5 13.3 13.1 6 26.8 2.6 51.4 16.5"/>
 <path class="st2" d="m910.3 236.6c12.3 2.3 32.5-2 59.8-0.6"/>
 <path class="st2" d="m1023 186.2c-0.3 0.3-14.5 13.8-22.3 29.8"/>
 <path class="st2" d="m1005 226.2c0-0.3 6.9-2.1 13.1-8.3 7.4-7.3 12.3-4.4 19.8-8.4"/>
 <path class="st2" d="m1048 235.3c-2.5 0.5-23.4 1.6-30 1.1-2.5-0.2-8.1-0.7-10.5-1.2"/>
 <path class="st2" d="m1036 261.4c-0.6-0.7-1.5-1.2-2.2-1.7-17.1-13-20.6-13.3-28.1-14.6"/>
 <path class="st2" d="m1024 283.5c-3.2-3.1-14.7-16.2-25.2-31"/>
 <ellipse class="st3" transform="matrix(.00511 -1 1 .00511 712.7 1155)" cx="936.9" cy="219.5" rx="5.7" ry="12.8"/>
 <ellipse class="st3" transform="matrix(.00511 -1 1 .00511 696 1172)" cx="937.2" cy="236.4" rx="5.7" ry="12.8"/>
 <ellipse class="st3" transform="matrix(.00511 -1 1 .00511 679.4 1189)" cx="937.5" cy="253.3" rx="5.7" ry="12.8"/>
 <ellipse class="st3" transform="matrix(.6993 -.7148 .7148 .6993 162.4 805)" cx="1038" cy="209.5" rx="6.6" ry="5.5"/>
 <ellipse class="st3" transform="matrix(.6993 -.7148 .7148 .6993 146.9 819.5)" cx="1048" cy="235.2" rx="6.6" ry="5.5"/>
 <ellipse class="st3" transform="matrix(.6993 -.7148 .7148 .6993 124.6 818.9)" cx="1036" cy="261.3" rx="6.6" ry="5.5"/>
 <ellipse class="st3" transform="matrix(.6993 -.7148 .7148 .6993 105.2 817.2)" cx="1024" cy="283.5" rx="6.6" ry="5.5"/>
 <ellipse class="st3" transform="matrix(.6993 -.7148 .7148 .6993 174.6 787.3)" cx="1023" cy="186.2" rx="6.6" ry="5.5"/>
 <path class="st4" d="m960.9 192.8s-0.7-3.2-1.5-7c-1.4-6.3 1.5-12.8 7.1-16 3.7-2.1 7.6-5.4 10.5-10.4"/>
 <path d="m959.2 193.2-1.5-7c-0.8-3.5-0.4-7 1-10.3 1.4-3.2 3.8-5.9 6.9-7.6 4.2-2.4 7.5-5.7 9.8-9.8 0.5-0.8 1.5-1.1 2.4-0.7 0.8 0.5 1.1 1.5 0.7 2.4-2.6 4.7-6.4 8.4-11.1 11.1-5 2.8-7.5 8.5-6.3 14.1l1.5 7-3.4 0.8z"/>
 <path class="st4" d="m1005 192.8s0.4-2 1-4.5c1.2-5.3-1.3-10.7-6.1-13.2s-9.9-7.2-10.4-15.8l-0.1 28.9 15.6 4.6z"/>
 <path d="m1005 194.6c-0.2 0-0.3 0-0.5-0.1l-15.6-4.5c-0.8-0.2-1.3-0.9-1.3-1.7l0.1-28.9c0-1 0.8-1.7 1.7-1.8 0.9 0 1.7 0.7 1.8 1.7 0.3 6.4 3.5 11.2 9.4 14.3 5.5 2.9 8.4 9.1 7 15.1l-1 4.5c-0.1 0.5-0.4 0.9-0.8 1.1-0.2 0.2-0.5 0.3-0.8 0.3zm-13.8-7.6 12.5 3.6 0.6-2.6c1-4.5-1.1-9.1-5.2-11.2-2.7-1.4-5.6-3.5-7.8-6.7l-0.1 16.9z"/>
 <path class="st4" d="m979.9 153.8s0.7-3.3 4.5-3.4c2.1 0 3.9 1.4 4.5 3.4 0 0 1.7 12.3 2.6 18.9 0.3 2.4 1.4 4.7 3.1 6.4 5.9 6.2 19 23 6.1 38.7 0 0-1-13.3-17-13.3h-0.5c-16 0-18.1 13.3-18.1 13.3-16.4-19.7 9.9-52.7 14.8-64z"/>
 <path d="m964.9 220c-0.6 0-1.3-0.3-1.7-0.8-13.9-17 1-42.3 9.9-57.5 2-3.5 3.8-6.5 4.8-8.6 0.5-1.8 2.4-4.8 6.5-4.8 3 0 5.7 2 6.5 4.9 0.1 0.2 0.1 0.4 0.1 0.6l2.5 18.5c0.3 2 1.1 3.8 2.5 5.2 2.8 3 8 9.1 10.6 16.6 1.4 4.2 1.9 8.2 1.4 12.1-0.6 4.6-2.5 8.9-5.8 12.9-0.6 0.7-1.5 1-2.3 0.7s-1.4-1-1.5-1.9c0 0-0.3-2.9-2.2-5.7-2.6-3.7-6.8-5.6-12.6-5.6h-0.6c-13.9 0-15.9 11-16 11.5-0.1 0.8-0.7 1.5-1.6 1.7-0.2 0.1-0.3 0.2-0.5 0.2zm17.1-65.7c0 0.1-0.1 0.3-0.1 0.4-1 2.4-2.9 5.6-5.1 9.3-4.2 7.2-10 17-12.9 26.7-2.8 9.2-2.7 16.5 0.4 22.4 0.5-1 1.1-2.1 1.9-3.1 2.6-3.4 7.5-7.4 16.3-7.5h0.1 1.2 0.1c5 0.1 11.7 1.5 15.9 7.6 0.6 1 1.2 1.9 1.5 2.8 2.9-5.2 3.2-11 1.1-17.2-2.3-6.7-7-12.3-9.6-15-2-2.1-3.3-4.8-3.7-7.6l-0.7-5.4c-0.8-5.7-1.6-12.1-1.8-13.3-0.3-1-1.3-1.7-2.3-1.7-1.7-0.1-2.2 1.2-2.3 1.6zm-2.1-0.5z"/>
 <path class="st4" d="m999.2 223c5.4 2.3 7.3 9 5.8 14.6-6.9 35.5-24.7 66.8-32 69.2 0 0 1.3-8.7 2-13.1 0.3-1.9 0.2-3.9-0.3-5.7-1.9-7.3-6.4-13.5-8.3-20.5-2.7-10.6-3.5-22.1-7-35-1.1-3.8 0.7-7.8 4.2-9.7 5-1 0.7-6.5 0.5-10.6 3.8-11.5 6.9-15.5 17.1-15.6 11-1 17.2 7.6 20.1 15.4-0.9 10-2.6 9.1-2.1 11z"/>
 <path class="st5" d="m1001 253.9c-10.1 40.4-4.7 44.3-4.7 44.3l-7.3-6.8"/>
 <path d="m996.4 300.3c-0.4 0-0.9-0.1-1.3-0.4-0.1-0.1-0.2-0.2-0.4-0.3l-7.2-6.7c-0.9-0.8-0.9-2.2-0.1-3.1s2.2-0.9 3.1-0.1l2.2 2.1c-0.2-6.5 1.1-18.1 6.2-38.4 0.3-1.2 1.5-1.9 2.6-1.6 1.2 0.3 1.9 1.5 1.6 2.6-3.7 14.9-5.8 26.5-6 34.4-0.2 5.8 0.7 7.6 0.8 7.9 0.8 0.8 0.8 2 0.1 2.9-0.3 0.5-1 0.7-1.6 0.7zm1.6-3.6z"/>
 <path class="st5" d="m965.7 264.1c0.6 17.5 4 27.5-2.1 30.6 0 0 6.4-0.2 9.7-5.5"/>
 <path d="m963.6 296.9c-1 0-1.9-0.7-2.1-1.6-0.2-1 0.2-2 1.1-2.5 3-1.5 2.7-6.1 1.8-15.6-0.3-3.8-0.7-8.1-0.9-13 0-1.2 0.9-2.2 2.1-2.2s2.2 0.9 2.2 2.1c0.2 4.8 0.6 9 0.9 12.8 0.5 5 0.8 8.9 0.5 12-0.1 0.6-0.1 1.2-0.3 1.8 0.9-0.6 1.8-1.5 2.5-2.6 0.6-1 2-1.3 3-0.7s1.3 2 0.7 3c-3.8 6.2-11.1 6.4-11.5 6.5 0.1 0 0 0 0 0z"/>
 <path class="st6" d="m996.5 224.8 4.8 2.9c1.4 0.9 2.1 2.5 1.7 4.1-2.1 9.1-9.2 38.4-13.8 46.8l-0.1 0.5-0.5 1.7c-0.4 1.9-0.8 4.1-0.8 3l0.8-3c0.2-1 0.4-1.9 0.5-2.1l0.1-0.2c6.1-22.6 11.2-39.5-0.7-48.8 4.2-0.6 6.9-2.2 8-4.9z"/>
 <path class="st5" d="m982.3 155.6c0.1-1.8-3 6.4-3.2 7-5.5 17.3-20.2 27.6-14.1 48 0.1 0.2 0.6-1 1.8-3.1 3.3-5.9 12.2-7.5 12.2-7.5-17-13.3 2.7-31 3.3-44.4z"/>
 <path class="st6" d="m985.6 156.6c0.4-1.7 1.2 3.7 1.1 4.3-3.2 16.8 22.4 31.3 13.6 50.7 0 0.1-0.7-2.9-2.4-5.2-1.8-2.4-4.7-4-4.7-4 9.3-10.6-13.2-23.3-7.6-45.8z"/>
 <path class="st5" d="m974.7 229.3c-11.4 9.4 1.6 49.3 2.9 65.5 0 0.2 0 0.4-0.1 0.5-0.3 1.8-0.3-3-0.3-3.7-0.7-5.5-3.6-13.7-6.8-20.5-3.3-7-3.9-18-4.6-25.5-1.3-12.2-5.5-15.4 2.5-21.5l0.6 0.3c0.9 2.3 2.8 3.9 5.8 4.9z"/>
 <path class="st6" d="m975.3 229.5 0.3 0.1c-2.5 3.6-5.6 16.1 0.2 50.5-1.4-8.4-9.1-40.2-0.6-50.6h0.1z"/>
 <path class="st5" d="m976.1 229.6c1.8 0.4 3.9 0.6 6.3 0.6-6.6 3.2-10.1 7.8-3.9 39.6 1.8 9.3-1 18.3-1 25 0 0.2 0 0.4-0.1 0.5-0.3 1.8-0.3-3-0.3-3.7-2-25.1-5.5-47.3-1-62z"/>
 <path d="m973.1 309c-0.5 0-1-0.2-1.4-0.5-0.6-0.5-0.9-1.2-0.7-2l2-13.1c0.2-1.6 0.2-3.3-0.3-4.9-0.9-3.5-2.5-6.8-4-10-1.6-3.3-3.3-6.8-4.2-10.5-1.3-4.9-2.1-9.9-3-15.2-1-5.8-2-11.8-3.6-18.1-1.5-5.7 1.3-11.6 6.7-14.1 0 0 0.1 0 0.1-0.1 1.1-0.5 2.4 0 2.8 1.1 0.5 1.1 0 2.4-1.1 2.9-3.5 1.6-5.4 5.4-4.4 9.1 1.7 6.5 2.7 12.6 3.7 18.5 0.9 5.2 1.7 10.1 2.9 14.8 0.9 3.3 2.3 6.4 3.9 9.7 1.6 3.4 3.3 6.9 4.3 10.8 0.6 2.2 0.7 4.4 0.3 6.6l-1.1 7.6c2.8-3.2 6.7-9 11.2-18 4.1-8.2 11.5-25.2 15.7-46.4v-0.1c1.5-5.9-1.2-10.6-4.6-12-1.1-0.5-1.6-1.7-1.1-2.8s1.7-1.6 2.8-1.1c3.1 1.3 5.4 3.9 6.7 7.3 1.1 3 1.2 6.5 0.4 9.7-3.1 16.1-8.8 32.9-16 47.5-3.1 6.2-6.3 11.6-9.2 15.7-3.2 4.4-5.8 6.9-8.1 7.6-0.3-0.1-0.5 0-0.7 0zm31.9-71.4z"/>
 <path class="st6" d="m985.3 282.9c-0.7 2.6 0.4 5.2 2.4 5.7 2 0.6 4.1-1.1 4.8-3.8 0.7-2.6-0.4-5.2-2.4-5.7s-4.2 1.2-4.8 3.8z"/>
 <path d="m988.5 290.9c-0.5 0-0.9-0.1-1.3-0.2-3.2-0.9-4.9-4.5-3.9-8.4 0.5-2.1 1.7-3.8 3.4-4.7 1.3-0.8 2.7-1 4.1-0.6 3.2 0.9 4.9 4.5 3.9 8.4-0.5 2.1-1.7 3.8-3.4 4.7-1 0.6-1.9 0.8-2.8 0.8zm-1.1-7.5c-0.4 1.5 0.2 2.9 0.9 3.1 0.2 0.1 0.5 0 0.8-0.2 0.6-0.4 1.1-1.1 1.4-2 0.4-1.5-0.2-2.9-0.9-3.1-0.2-0.1-0.5 0-0.8 0.2-0.7 0.3-1.2 1.1-1.4 2z"/>
 <path class="st6" d="m989.3 270.3c-0.9 3.3 0.4 6.6 2.9 7.4s5.3-1.3 6.2-4.6-0.4-6.6-2.9-7.4c-2.6-0.7-5.3 1.3-6.2 4.6z"/>
 <path d="m993.2 280c-0.6 0-1.1-0.1-1.7-0.2-1.8-0.6-3.3-2-4.1-4-0.7-1.8-0.8-4-0.2-6 0.7-2.4 2.2-4.5 4.1-5.5 1.5-0.8 3.2-1 4.8-0.6 1.8 0.6 3.3 2 4.1 4 0.7 1.8 0.8 4 0.2 6-0.7 2.4-2.2 4.5-4.1 5.5-1 0.5-2 0.8-3.1 0.8zm1.2-12.3c-0.3 0-0.6 0.1-1 0.3-0.9 0.5-1.7 1.6-2.1 2.9-0.6 2.3 0.2 4.4 1.4 4.7 0.4 0.1 0.9 0.1 1.4-0.2 0.9-0.5 1.7-1.6 2.1-2.9 0.6-2.3-0.2-4.4-1.4-4.7-0.1 0-0.3-0.1-0.4-0.1z"/>
 <path class="st6" d="m982 291.9c-1.2 2-0.9 4.4 0.6 5.3 1.6 0.9 3.8 0 5.1-2 1.2-2 0.9-4.4-0.6-5.3-1.6-0.9-3.9 0-5.1 2z"/>
 <path d="m984 299.8c-0.9 0-1.7-0.2-2.5-0.7-1.1-0.7-1.9-1.8-2.3-3.1-0.4-1.7-0.1-3.6 0.9-5.2 1.9-3.1 5.4-4.3 8-2.8 1.1 0.7 1.9 1.8 2.3 3.1 0.4 1.7 0.1 3.6-0.9 5.2-1.3 2.2-3.4 3.5-5.5 3.5zm-0.1-6.8c-0.5 0.8-0.5 1.5-0.4 1.9 0 0.1 0.1 0.3 0.3 0.4 0.4 0.2 1.4-0.2 2.1-1.3 0.5-0.8 0.5-1.5 0.4-1.9 0-0.1-0.1-0.3-0.3-0.4-0.4-0.2-1.5 0.2-2.1 1.3z"/>
 <path class="st6" d="m976.8 299.3c-1.6 1.4-1.9 3.5-0.8 4.6s3.3 0.8 4.9-0.6 1.9-3.5 0.8-4.6-3.4-0.8-4.9 0.6z"/>
 <path d="m977.8 306.8c-1.3 0-2.5-0.4-3.3-1.3-0.9-0.8-1.3-2-1.3-3.3 0-1.6 0.8-3.2 2.1-4.4 2.4-2.2 5.9-2.5 7.8-0.6 0.9 0.8 1.3 2 1.3 3.3 0 1.6-0.8 3.2-2.1 4.4s-2.9 1.9-4.5 1.9zm2.1-6.6c-0.4 0-1 0.2-1.6 0.7-0.7 0.7-0.8 1.3-0.7 1.4s1.1 0.1 1.9-0.7c0.7-0.7 0.8-1.3 0.7-1.4-0.1 0.1-0.2 0-0.3 0zm-3.1-0.9z"/>
 <path d="m983.4 221.4c-1.2 0-2.2-0.7-2.6-1.8v-0.3c0-0.4 0.4-0.8 0.8-0.8 0.3 0 0.6 0.2 0.7 0.5 0.2 0.5 0.6 0.8 1.1 0.8s1-0.3 1.1-0.8c0.2-0.4 0.6-0.6 1-0.5s0.6 0.6 0.5 1c-0.4 1.2-1.4 1.9-2.6 1.9zm-1.1-2.1z"/>
 <path d="m995.3 216.5c-0.4 0-0.8-0.2-1.1-0.5l-0.2-0.2c-1-1.2-2.7-1.5-4-0.6l-0.5 0.3c-0.6 0.4-1.5 0.3-1.9-0.3s-0.3-1.5 0.3-1.9l0.5-0.3c2.4-1.7 5.8-1.2 7.7 1.1l0.2 0.2c0.5 0.6 0.4 1.4-0.2 1.9-0.2 0.2-0.5 0.3-0.8 0.3z"/>
 <path d="m971.2 216.6c-0.3 0-0.7-0.1-1-0.4-0.5-0.5-0.5-1.4 0-1.9l0.7-0.7c1.8-1.8 4.4-2.2 6.6-1l1.3 0.7c0.7 0.3 0.9 1.2 0.6 1.8-0.3 0.7-1.2 0.9-1.8 0.6l-1.3-0.7c-1.2-0.6-2.6-0.4-3.5 0.5l-0.7 0.7c-0.2 0.3-0.5 0.4-0.9 0.4z"/>
 <line class="st7" x1="751.3" x2="723.2" y1="116.5" y2="133.2"/>
 <line class="st7" x1="669.7" x2="669.7" y1="223.1" y2="255.6"/>
 <line class="st7" x1="716" x2="743.7" y1="346" y2="362.8"/>
 <line class="st7" x1="882.7" x2="855.7" y1="342.1" y2="358.6"/>
 <ellipse class="st8" transform="matrix(.7391 -.6736 .6736 .7391 48.74 602.4)" cx="802.1" cy="238.3" rx="113.3" ry="104.7"/>
 <line class="st7" x1="862.7" x2="890.1" y1="115.4" y2="132.7"/>
 <ellipse class="st9" transform="matrix(.7391 -.6736 .6736 .7391 48.74 602.4)" cx="802.1" cy="238.3" rx="66.1" ry="61.1"/>
 <ellipse class="st10" transform="matrix(.7239 -.6899 .6899 .7239 122.1 631.3)" cx="849.8" cy="163" rx="10" ry="8.3"/>
 <ellipse class="st10" transform="matrix(.9661 -.2582 .2582 .9661 -16.78 202)" cx="760.9" cy="164.9" rx="8.3" ry="10"/>
 <ellipse class="st10" transform="matrix(.2594 -.9658 .9658 .2594 299 867.8)" cx="715.3" cy="238.9" rx="8.2" ry="10"/>
 <ellipse class="st10" transform="matrix(.7239 -.6899 .6899 .7239 -8.96 606.2)" cx="752.9" cy="314.3" rx="10" ry="8.3"/>
 <ellipse class="st10" transform="matrix(.9661 -.2582 .2582 .9661 -51.8 228.8)" cx="845.2" cy="311.6" rx="8.3" ry="10"/>
 <ellipse class="st10" transform="matrix(.2594 -.9658 .9658 .2594 428.8 1034)" cx="888.8" cy="237.6" rx="8.2" ry="10"/>
 <polyline class="st7" points="695.3 223.4 658.7 223.4 589.3 194.3"/>
 <polyline class="st7" points="697.9 255.4 658.7 255.4 589.3 284.5"/>
 <line class="st7" x1="695.3" x2="637.9" y1="239.4" y2="239.4"/>
 <line class="st7" x1="586.3" x2="608.2" y1="192.5" y2="220.7"/>
 <line class="st7" x1="600" x2="572.3" y1="229.9" y2="214.9"/>
 <line class="st7" x1="563.6" x2="599.4" y1="239.5" y2="239"/>
 <line class="st7" x1="575.4" x2="603.4" y1="264.3" y2="248.6"/>
 <line class="st7" x1="586.5" x2="610.3" y1="285.2" y2="255.4"/>
 <ellipse class="st8" transform="matrix(.6899 -.7239 .7239 .6899 18.86 522.9)" cx="619.7" cy="239.4" rx="18.4" ry="22.3"/>
 <ellipse class="st3" transform="matrix(.6899 -.7239 .7239 .6899 21.92 481)" cx="572.3" cy="214.9" rx="5.2" ry="6.3"/>
 <ellipse class="st3" transform="matrix(.6899 -.7239 .7239 .6899 1.488 482.3)" cx="563.7" cy="239.4" rx="5.2" ry="6.3"/>
 <ellipse class="st3" transform="matrix(.6899 -.7239 .7239 .6899 -12.83 498.5)" cx="575.3" cy="264.2" rx="5.2" ry="6.3"/>
 <ellipse class="st3" transform="matrix(.6899 -.7239 .7239 .6899 -24.43 513.4)" cx="587" cy="285.2" rx="5.2" ry="6.3"/>
 <ellipse class="st3" transform="matrix(.6899 -.7239 .7239 .6899 42.46 484.2)" cx="586.3" cy="192.5" rx="5.2" ry="6.3"/>
 <ellipse class="st3" transform="matrix(.9999 -.01375 .01375 .9999 -3.008 9.225)" cx="669.6" cy="223.4" rx="12.3" ry="5.4"/>
 <ellipse class="st3" transform="matrix(.9999 -.01375 .01375 .9999 -3.229 9.227)" cx="669.6" cy="239.5" rx="12.3" ry="5.4"/>
 <ellipse class="st3" transform="matrix(.9999 -.01375 .01375 .9999 -3.45 9.228)" cx="669.6" cy="255.6" rx="12.3" ry="5.4"/>
 <ellipse class="st8" transform="matrix(.9761 -.2174 .2174 .9761 3.736 198.3)" cx="903.2" cy="82.2" rx="18.5" ry="22.3"/>
 <polyline class="st7" points="849.2 137.1 868.8 106.4 881.1 32.6"/>
 <polyline class="st7" points="875 156.4 896 123.5 957.8 80.8"/>
 <line class="st7" x1="862.8" x2="893.5" y1="145.7" y2="97.5"/>
 <line class="st7" x1="881.2" x2="893.5" y1="29.1" y2="62.5"/>
 <line class="st7" x1="905.6" x2="907.7" y1="60.6" y2="29.3"/>
 <line class="st7" x1="933.3" x2="913.7" y1="35.1" y2="64.9"/>
 <line class="st7" x1="948.1" x2="919.7" y1="58.2" y2="73.4"/>
 <line class="st7" x1="959.9" x2="921.9" y1="78.8" y2="82.8"/>
 <ellipse class="st3" transform="matrix(.55 -.8352 .8352 .55 291.9 772.7)" cx="863" cy="115.5" rx="12.2" ry="5.4"/>
 <ellipse class="st3" transform="matrix(.55 -.8352 .8352 .55 290.8 788)" cx="876.6" cy="124.1" rx="12.2" ry="5.4"/>
 <ellipse class="st3" transform="matrix(.55 -.8352 .8352 .55 289.8 803.2)" cx="890.3" cy="132.7" rx="12.2" ry="5.4"/>
 <ellipse class="st3" transform="matrix(.9761 -.2174 .2174 .9761 15.34 198)" cx="907.7" cy="29.3" rx="5.2" ry="6.3"/>
 <ellipse class="st3" transform="matrix(.9761 -.2174 .2174 .9761 14.68 203.7)" cx="933.2" cy="35.1" rx="5.2" ry="6.3"/>
 <ellipse class="st3" transform="matrix(.9761 -.2174 .2174 .9761 10.02 207.5)" cx="948" cy="58.2" rx="5.2" ry="6.3"/>
 <ellipse class="st3" transform="matrix(.9761 -.2174 .2174 .9761 5.727 210.5)" cx="959.6" cy="79.2" rx="5.2" ry="6.3"/>
 <ellipse class="st3" transform="matrix(.9761 -.2174 .2174 .9761 14.76 192.3)" cx="881.2" cy="29.1" rx="5.2" ry="6.3"/>
 <polyline class="st7" points="730.1 324.5 710.5 355.2 648.7 397.8"/>
 <polyline class="st7" points="758.7 339.3 737.7 372.3 725.3 446.1"/>
 <line class="st7" x1="743.7" x2="713" y1="332.9" y2="381.2"/>
 <line class="st7" x1="645.5" x2="681.2" y1="399.4" y2="396.1"/>
 <line class="st7" x1="684.6" x2="657.1" y1="407.9" y2="423.1"/>
 <line class="st7" x1="673.3" x2="692" y1="443.6" y2="413.2"/>
 <line class="st7" x1="700.6" x2="702.3" y1="447" y2="415"/>
 <line class="st7" x1="724.4" x2="711.8" y1="448.8" y2="412.9"/>
 <ellipse class="st8" transform="matrix(.9753 -.2209 .2209 .9753 -70.2 165.1)" cx="703.2" cy="396.5" rx="22.4" ry="18.4"/>
 <ellipse class="st3" transform="matrix(.9753 -.2209 .2209 .9753 -77.23 155.6)" cx="657.1" cy="423.1" rx="6.3" ry="5.2"/>
 <ellipse class="st3" transform="matrix(.9753 -.2209 .2209 .9753 -81.33 159.7)" cx="673.3" cy="443.5" rx="6.3" ry="5.2"/>
 <ellipse class="st3" transform="matrix(.9753 -.2209 .2209 .9753 -81.42 165.8)" cx="700.6" cy="447" rx="6.3" ry="5.2"/>
 <ellipse class="st3" transform="matrix(.9753 -.2209 .2209 .9753 -81.15 171.1)" cx="724.7" cy="448.4" rx="6.3" ry="5.2"/>
 <ellipse class="st3" transform="matrix(.9753 -.2209 .2209 .9753 -72.28 152.4)" cx="645.5" cy="399.4" rx="6.3" ry="5.2"/>
 <ellipse class="st3" transform="matrix(.5265 -.8502 .8502 .5265 44.97 772.8)" cx="716.3" cy="346" rx="12.2" ry="5.4"/>
 <ellipse class="st3" transform="matrix(.5265 -.8502 .8502 .5265 44.13 788.5)" cx="730" cy="354.6" rx="12.2" ry="5.4"/>
 <ellipse class="st3" transform="matrix(.5265 -.8502 .8502 .5265 43.29 804.2)" cx="743.6" cy="363.2" rx="12.2" ry="5.4"/>
 <polyline class="st7" points="737.7 156.4 718.8 125.2 658 81.2"/>
 <polyline class="st7" points="766.6 142.2 746.4 108.7 735.8 34.7"/>
 <line class="st7" x1="751.5" x2="721.9" y1="148.2" y2="99.3"/>
 <line class="st7" x1="654.9" x2="690.4" y1="79.5" y2="83.7"/>
 <line class="st7" x1="694.1" x2="667" y1="72" y2="56.1"/>
 <line class="st7" x1="683.7" x2="701.7" y1="36" y2="66.8"/>
 <line class="st7" x1="711.1" x2="712.1" y1="33.2" y2="65.2"/>
 <line class="st7" x1="734.9" x2="721.5" y1="31.9" y2="67.5"/>
 <ellipse class="st8" transform="matrix(.2425 -.9701 .9701 .2425 458.4 754.7)" cx="712.5" cy="83.8" rx="18.4" ry="22.4"/>
 <ellipse class="st3" transform="matrix(.2425 -.9701 .9701 .2425 450.8 689.6)" cx="667" cy="56.1" rx="5.2" ry="6.3"/>
 <ellipse class="st3" transform="matrix(.2425 -.9701 .9701 .2425 482.8 690.6)" cx="683.6" cy="36.1" rx="5.2" ry="6.3"/>
 <ellipse class="st3" transform="matrix(.2425 -.9701 .9701 .2425 506.3 715)" cx="711" cy="33.3" rx="5.2" ry="6.3"/>
 <ellipse class="st3" transform="matrix(.2425 -.9701 .9701 .2425 525.5 737.7)" cx="735.2" cy="32.4" rx="5.2" ry="6.3"/>
 <ellipse class="st3" transform="matrix(.2425 -.9701 .9701 .2425 418.9 695.6)" cx="654.9" cy="79.5" rx="5.2" ry="6.3"/>
 <ellipse class="st3" transform="matrix(.862 -.5068 .5068 .862 31.76 385.7)" cx="724.4" cy="134.5" rx="5.4" ry="12.2"/>
 <ellipse class="st3" transform="matrix(.862 -.5068 .5068 .862 37.87 391.6)" cx="738.3" cy="126.2" rx="5.4" ry="12.2"/>
 <ellipse class="st3" transform="matrix(.862 -.5068 .5068 .862 43.98 397.5)" cx="752.1" cy="118" rx="5.4" ry="12.2"/>
 <polyline class="st7" points="841.8 336.1 860.7 367.3 871.3 441.3"/>
 <polyline class="st7" points="868 317.4 888.3 350.8 949.1 394.8"/>
 <line class="st7" x1="855.6" x2="885.2" y1="327.8" y2="376.7"/>
 <line class="st7" x1="871.3" x2="884.3" y1="444.8" y2="411.7"/>
 <line class="st7" x1="896.4" x2="897.8" y1="413.9" y2="445.2"/>
 <line class="st7" x1="923.5" x2="904.6" y1="440" y2="409.7"/>
 <line class="st7" x1="938.8" x2="910.9" y1="417.2" y2="401.4"/>
 <line class="st7" x1="951.1" x2="913.2" y1="396.9" y2="392"/>
 <ellipse class="st8" transform="matrix(.2403 -.9707 .9707 .2403 298.8 1166)" cx="894.6" cy="392.2" rx="22.3" ry="18.5"/>
 <ellipse class="st3" transform="matrix(.2403 -.9707 .9707 .2403 249.9 1210)" cx="897.8" cy="445.2" rx="6.3" ry="5.2"/>
 <ellipse class="st3" transform="matrix(.2403 -.9707 .9707 .2403 274.5 1231)" cx="923.4" cy="439.9" rx="6.3" ry="5.2"/>
 <ellipse class="st3" transform="matrix(.2403 -.9707 .9707 .2403 308.2 1228)" cx="938.8" cy="417.2" rx="6.3" ry="5.2"/>
 <ellipse class="st3" transform="matrix(.2403 -.9707 .9707 .2403 337.5 1224)" cx="950.9" cy="396.5" rx="6.3" ry="5.2"/>
 <ellipse class="st3" transform="matrix(.2403 -.9707 .9707 .2403 230.1 1184)" cx="871.3" cy="444.8" rx="6.3" ry="5.2"/>
 <ellipse class="st3" transform="matrix(.8476 -.5307 .5307 .8476 -59.66 508.3)" cx="855.1" cy="358" rx="5.4" ry="12.2"/>
 <ellipse class="st3" transform="matrix(.8476 -.5307 .5307 .8476 -53.15 514.4)" cx="868.9" cy="349.7" rx="5.4" ry="12.2"/>
 <ellipse class="st3" transform="matrix(.8476 -.5307 .5307 .8476 -46.64 520.5)" cx="882.8" cy="341.4" rx="5.4" ry="12.2"/>
 <text class="st3 st11 st12" transform="matrix(1.006 0 0 1 893.2 90.12)">A</text>
 <text class="st3 st11 st12" transform="matrix(1.006 0 0 1 884.6 400.1)">C</text>
 <text class="st3 st11 st12" transform="matrix(1.006 0 0 1 693.3 403.5)">D</text>
 <text class="st3 st11 st12" transform="matrix(1.006 0 0 1 610.3 246.6)">E</text>
 <text class="st3 st11 st12" transform="matrix(1.006 0 0 1 701.8 90.12)">F</text>
</svg>
