<?xml version="1.0" encoding="utf-8"?>
<!-- Generator: Adobe Illustrator 26.4.1, SVG Export Plug-In . SVG Version: 6.00 Build 0)  -->
<svg version="1.1" id="Layer_1" xmlns="http://www.w3.org/2000/svg" xmlns:xlink="http://www.w3.org/1999/xlink" x="0px" y="0px"
	 viewBox="0 0 78.63 78.63" style="enable-background:new 0 0 78.63 78.63;" xml:space="preserve">
<style type="text/css">
	.st0{fill:#BC83FB;}
	.st1{fill-rule:evenodd;clip-rule:evenodd;fill:#FFFFFF;}
</style>
<ellipse transform="matrix(0.7071 -0.7071 0.7071 0.7071 -16.2846 39.3144)" class="st0" cx="39.31" cy="39.31" rx="40.8" ry="37.77"/>
<g>
	<g>
		<ellipse class="st1" cx="54.84" cy="29.68" rx="5.05" ry="6.52"/>
		
			<ellipse transform="matrix(0.1681 -0.9858 0.9858 0.1681 0.4159 92.2073)" class="st1" cx="54.84" cy="45.86" rx="4.73" ry="3.67"/>
		
			<ellipse transform="matrix(0.5612 -0.8277 0.8277 0.5612 -25.8758 69.174)" class="st1" cx="52.3" cy="58.99" rx="3.32" ry="2.57"/>
	</g>
	<path class="st1" d="M51.7,20.77c0.61-0.31,0.81-1.09,0.37-1.62c-3.25-3.9-8.14-6.4-13.58-6.4h-0.1c-9.71,0-17.65,7.94-17.65,17.65
		v17.82c0,9.71,7.95,17.66,17.66,17.66h0.1c3.14,0,6.11-0.83,8.67-2.29c0.46-0.26,0.67-0.83,0.46-1.31
		c-0.76-1.73-0.49-4.09,0.88-6.12c0.69-1.01,1.55-1.8,2.48-2.32c0.64-0.37,0.75-1.24,0.18-1.72c-1.82-1.53-2.79-4.33-2.28-7.32
		c0.34-2,1.28-3.7,2.52-4.85c0.52-0.48,0.42-1.3-0.19-1.67c-2.54-1.55-4.3-4.83-4.3-8.62C46.91,25.63,48.89,22.18,51.7,20.77z
		 M44.73,47.51c0,3.32-2.71,6.03-6.03,6.03h-0.51c-3.32,0-6.03-2.71-6.03-6.03V31.03c0-3.32,2.72-6.03,6.03-6.03h0.51
		c3.32,0,6.03,2.71,6.03,6.03V47.51z"/>
</g>
</svg>
