<?xml version="1.0" encoding="utf-8"?>
<!-- Generator: Adobe Illustrator 26.4.1, SVG Export Plug-In . SVG Version: 6.00 Build 0)  -->
<svg version="1.1" id="Layer_1" xmlns="http://www.w3.org/2000/svg" xmlns:xlink="http://www.w3.org/1999/xlink" x="0px" y="0px"
	 viewBox="0 0 78.63 78.63" style="enable-background:new 0 0 78.63 78.63;" xml:space="preserve">
<style type="text/css">
	.st0{fill:#BC83FB;}
	.st1{fill-rule:evenodd;clip-rule:evenodd;fill:#FFFFFF;}
</style>
<ellipse transform="matrix(0.7071 -0.7071 0.7071 0.7071 -16.2846 39.3144)" class="st0" cx="39.31" cy="39.31" rx="40.8" ry="37.77"/>
<g>
	<g>
		<g>
			<g>
				
					<ellipse transform="matrix(0.9095 -0.4157 0.4157 0.9095 -5.0613 24.9092)" class="st1" cx="54.69" cy="24.08" rx="4.93" ry="6.36"/>
			</g>
			<g>
				
					<ellipse transform="matrix(0.6165 -0.7874 0.7874 0.6165 -10.1714 57.6821)" class="st1" cx="54.13" cy="39.28" rx="4.62" ry="3.58"/>
			</g>
			<g>
				
					<ellipse transform="matrix(0.7203 -0.6937 0.6937 0.7203 -21.324 46.0274)" class="st1" cx="46.41" cy="49.45" rx="3.24" ry="2.51"/>
			</g>
		</g>
	</g>
	<path class="st1" d="M56.14,56.02v8.37c0,0.84-0.68,1.52-1.52,1.52H22.26c-0.84,0-1.52-0.68-1.52-1.52V53.65
		c0-0.59,0.34-1.12,0.87-1.38c23.23-10.99,23.12-18.44,23.12-21.71c0-3.31-2.9-6.36-6.28-6.36c-2.98,0-5.47,2.07-6.11,4.85
		c-0.16,0.68-0.77,1.16-1.48,1.16h-8.53c-0.91,0-1.6-0.79-1.51-1.7c0.9-8.75,8.63-15.8,17.62-15.8c3.72,0,7.23,1.11,10.12,3.12
		c0.5,0.35,0.55,1.07,0.12,1.5c-2.2,2.22-2.7,6.29-0.97,10.06c0.87,1.92,2.18,3.45,3.67,4.47c0.57,0.39,0.56,1.23-0.01,1.62
		c-0.77,0.52-1.5,1.18-2.13,1.99c-1.84,2.35-2.34,5.22-1.49,7.35c0.24,0.6-0.19,1.25-0.83,1.31c-1.29,0.12-2.66,0.75-3.79,1.84
		c-1.56,1.5-2.25,3.49-1.95,5.14c0.07,0.39-0.09,0.78-0.41,1c-0.58,0.39-1.16,0.77-1.75,1.14c-0.57,0.37-0.31,1.25,0.37,1.25h15.24
		C55.46,54.5,56.14,55.18,56.14,56.02z"/>
</g>
</svg>
