<?xml version="1.0" encoding="utf-8"?>
<!-- Generator: Adobe Illustrator 26.4.1, SVG Export Plug-In . SVG Version: 6.00 Build 0)  -->
<svg version="1.1" id="Layer_1" xmlns="http://www.w3.org/2000/svg" xmlns:xlink="http://www.w3.org/1999/xlink" x="0px" y="0px"
	 viewBox="0 0 78.63 78.63" style="enable-background:new 0 0 78.63 78.63;" xml:space="preserve">
<style type="text/css">
	.st0{fill:#BC83FB;}
	.st1{fill-rule:evenodd;clip-rule:evenodd;fill:#FFFFFF;}
</style>
<ellipse transform="matrix(0.7071 -0.7071 0.7071 0.7071 -16.2846 39.3144)" class="st0" cx="39.31" cy="39.31" rx="40.8" ry="37.77"/>
<g>
	<g>
		
			<ellipse transform="matrix(0.8589 -0.5122 0.5122 0.8589 -12.9516 33.361)" class="st1" cx="54.07" cy="40.18" rx="4.57" ry="5.91"/>
		<ellipse transform="matrix(0.28 -0.96 0.96 0.28 -14.0879 90.8806)" class="st1" cx="53.54" cy="54.83" rx="4.62" ry="3.58"/>
		
			<ellipse transform="matrix(0.8979 -0.4402 0.4402 0.8979 -22.8947 27.0005)" class="st1" cx="46.76" cy="62.86" rx="3.24" ry="2.51"/>
	</g>
	<path class="st1" d="M51.09,46.99c0.59,0.42,0.56,1.29-0.03,1.71c-1.37,0.98-2.51,2.57-3.08,4.54c-0.4,1.36-0.47,2.71-0.27,3.93
		c0.09,0.57-0.29,1.09-0.86,1.19c-0.62,0.11-1.26,0.32-1.9,0.58c-2.43,0.98-3.9,3.3-3.28,5.5c0.17,0.62-0.25,1.25-0.89,1.32
		c-0.63,0.08-1.25,0.1-1.97,0.1c-8.36,0-16.21-6.82-17.19-15.01c-0.11-0.91,0.59-1.72,1.51-1.72l7.21,0c0.64,0,1.2,0.4,1.43,1
		c1,2.69,3.99,4.62,6.97,4.62c3.75,0,6.8-3.04,6.8-6.8c0-3.3-2.35-6.05-5.48-6.66c-0.73-0.14-1.25-0.76-1.25-1.49l0-5.55
		c0-0.7,0.49-1.29,1.16-1.48c1.9-0.54,3.3-2.28,3.3-4.36c0-2.5-2.02-4.52-4.53-4.52c-1.71,0-3.61,0.94-4.49,2.33
		c-0.27,0.42-0.75,0.65-1.25,0.65h-6.69c-0.92,0-1.64-0.81-1.51-1.73c0.92-6.75,7.1-12.39,14.01-12.39
		c7.49,0,14.13,6.07,14.13,13.56c0,2-0.58,3.91-1.5,5.62c-0.16,0.29-0.43,0.52-0.74,0.61c-0.42,0.12-0.83,0.3-1.22,0.53
		c-3.14,1.87-3.72,6.67-1.31,10.72C48.96,45.12,49.97,46.21,51.09,46.99z"/>
</g>
</svg>
