<?xml version="1.0" encoding="utf-8"?>
<!-- Generator: Adobe Illustrator 26.4.1, SVG Export Plug-In . SVG Version: 6.00 Build 0)  -->
<svg version="1.1" id="Layer_1" xmlns="http://www.w3.org/2000/svg" xmlns:xlink="http://www.w3.org/1999/xlink" x="0px" y="0px"
	 viewBox="0 0 78.63 78.63" style="enable-background:new 0 0 78.63 78.63;" xml:space="preserve">
<style type="text/css">
	.st0{fill:#BC83FB;}
	.st1{fill-rule:evenodd;clip-rule:evenodd;fill:#FFFFFF;}
</style>
<ellipse transform="matrix(0.7071 -0.7071 0.7071 0.7071 -16.2846 39.3144)" class="st0" cx="39.31" cy="39.31" rx="40.8" ry="37.77"/>
<g>
	<g>
		<ellipse class="st1" cx="53.96" cy="30.08" rx="4.93" ry="6.36"/>
		
			<ellipse transform="matrix(0.0791 -0.9969 0.9969 0.0791 4.0868 96.4437)" class="st1" cx="54.24" cy="46.01" rx="4.62" ry="3.58"/>
		
			<ellipse transform="matrix(0.092 -0.9958 0.9958 0.092 -8.9993 106.3558)" class="st1" cx="53.82" cy="58.11" rx="3.24" ry="2.51"/>
	</g>
	<path class="st1" d="M46.42,30.08c0,3.7,1.7,6.89,4.15,8.32c0.58,0.34,0.68,1.17,0.18,1.63c-1.34,1.22-2.29,3.15-2.47,5.39
		c-0.24,2.99,0.97,5.67,2.9,6.91c0.54,0.35,0.67,1.09,0.23,1.56c-0.89,0.93-1.57,2.54-1.68,4.1c-0.25,3.62,2.03,5.6,4.05,5.62
		c0.47,0.01,0.89,0.28,0.89,0.75l0,0c0,0.84-0.68,1.52-1.52,1.52h-8.37c-0.84,0-1.52-0.68-1.52-1.52V45.49
		c0-0.37-0.3-0.68-0.67-0.68H21.26c-1,0-1.73-0.95-1.47-1.92l7.19-26.24c0.18-0.66,0.78-1.12,1.47-1.12h8.26
		c1,0,1.73,0.95,1.47,1.92l-4.13,15.09c-0.12,0.43,0.21,0.85,0.65,0.85h7.9c0.37,0,0.67-0.3,0.67-0.67V14.26
		c0-0.84,0.68-1.52,1.52-1.52h8.38c0.84,0,1.52,0.68,1.52,1.52l0,5.68c0,0.62-0.54,1.09-1.16,1.03c-0.19-0.02,0.17-0.03-0.02-0.03
		C49.58,20.94,46.42,25.03,46.42,30.08z"/>
</g>
</svg>
