<?xml version="1.0" encoding="utf-8"?>
<!-- Generator: Adobe Illustrator 26.4.1, SVG Export Plug-In . SVG Version: 6.00 Build 0)  -->
<svg version="1.1" id="Layer_1" xmlns="http://www.w3.org/2000/svg" xmlns:xlink="http://www.w3.org/1999/xlink" x="0px" y="0px"
	 viewBox="0 0 78.63 78.63" style="enable-background:new 0 0 78.63 78.63;" xml:space="preserve">
<style type="text/css">
	.st0{fill:#BC83FB;}
	.st1{fill-rule:evenodd;clip-rule:evenodd;fill:#FFFFFF;}
</style>
<ellipse transform="matrix(0.7071 -0.7071 0.7071 0.7071 -16.2846 39.3144)" class="st0" cx="39.31" cy="39.31" rx="40.8" ry="37.77"/>
<g>
	<g>
		<g>
			<g>
				
					<ellipse transform="matrix(0.7354 -0.6776 0.6776 0.7354 -11.2549 45.4484)" class="st1" cx="52.57" cy="37.14" rx="4.65" ry="6"/>
			</g>
			<g>
				
					<ellipse transform="matrix(0.0664 -0.9978 0.9978 0.0664 2.0132 104.4947)" class="st1" cx="56.84" cy="51.17" rx="3.93" ry="3.04"/>
			</g>
			<g>
				
					<ellipse transform="matrix(0.7379 -0.6749 0.6749 0.7379 -28.1123 49.5811)" class="st1" cx="49.78" cy="60.99" rx="3.05" ry="2.36"/>
			</g>
		</g>
	</g>
	<path class="st1" d="M53.03,46.82c0.41-0.55,0.16-1.36-0.5-1.56c-1.59-0.5-3.73-1.49-5.04-2.91c-2.64-2.87-3.43-6.64-2.18-9.32
		c0.25-0.54,0.01-1.19-0.55-1.4c-1.96-0.75-4.1-1.16-6.32-1.16c-1.69,0-3.32,0.23-4.87,0.68c-0.53,0.16-1.02-0.36-0.82-0.88
		c1.33-3.56,4.75-6.09,8.78-6.09h10.31c0.84,0,1.52-0.68,1.52-1.52v-8.38c0-0.84-0.68-1.52-1.52-1.52H39.14
		c-10.16,0-18.4,8.24-18.4,18.4v17.01c0,9.77,7.92,17.7,17.7,17.7c2.14,0,4.2-0.38,6.1-1.08c0.52-0.19,0.78-0.76,0.62-1.29
		c-0.54-1.76,0.18-4.03,1.97-5.66c1.14-1.04,3.06-1.63,4.34-1.74c0.7-0.06,1.1-0.83,0.81-1.47c-0.5-1.09-0.75-2.39-0.66-3.77
		C51.72,49.3,52.24,47.89,53.03,46.82z M38.44,54.32c-3.47,0-6.29-2.82-6.29-6.29c0-3.47,2.81-6.29,6.29-6.29
		c3.48,0,6.29,2.81,6.29,6.29C44.73,51.5,41.92,54.32,38.44,54.32z"/>
</g>
</svg>
