<?xml version="1.0" encoding="utf-8"?>
<!-- Generator: Adobe Illustrator 26.4.1, SVG Export Plug-In . SVG Version: 6.00 Build 0)  -->
<svg version="1.1" id="Layer_1" xmlns="http://www.w3.org/2000/svg" xmlns:xlink="http://www.w3.org/1999/xlink" x="0px" y="0px"
	 viewBox="0 0 78.63 78.63" style="enable-background:new 0 0 78.63 78.63;" xml:space="preserve">
<style type="text/css">
	.st0{fill:#BC83FB;}
	.st1{fill-rule:evenodd;clip-rule:evenodd;fill:#FFFFFF;}
</style>
<ellipse transform="matrix(0.7071 -0.7071 0.7071 0.7071 -16.2846 39.3144)" class="st0" cx="39.31" cy="39.31" rx="40.8" ry="37.77"/>
<g>
	<g>
		<ellipse transform="matrix(0.9998 -0.019 0.019 0.9998 -0.6032 1.0481)" class="st1" cx="54.96" cy="32.33" rx="4.93" ry="6.36"/>
		
			<ellipse transform="matrix(0.1703 -0.9854 0.9854 0.1703 -1.5081 94.4297)" class="st1" cx="55.32" cy="48.11" rx="4.62" ry="3.58"/>
		
			<ellipse transform="matrix(0.6685 -0.7437 0.7437 0.6685 -27.1268 58.3103)" class="st1" cx="51.85" cy="59.59" rx="3.24" ry="2.51"/>
	</g>
	<path class="st1" d="M53.55,23.71c0.59-0.2,0.88-0.88,0.59-1.44c-2.96-5.65-8.87-9.51-15.69-9.51c-9.78,0-17.71,7.92-17.71,17.7
		c0,9.78,7.92,17.71,17.71,17.71c1.69,0,3.32-0.23,4.87-0.68c0.53-0.16,1.02,0.36,0.82,0.88c-1.33,3.56-4.75,6.09-8.78,6.09h-10.3
		c-0.84,0-1.52,0.68-1.52,1.52v8.37c0,0.84,0.68,1.52,1.52,1.52h12.68c3.37,0,6.52-0.9,9.24-2.48c0.46-0.27,0.62-0.85,0.4-1.33
		c-0.73-1.57-0.28-3.77,1.24-5.47c0.62-0.69,1.33-1.2,2.08-1.54c0.6-0.27,0.78-1.06,0.35-1.56c-1.29-1.49-1.91-3.84-1.48-6.3
		c0.36-2.07,1.38-3.81,2.71-4.89c0.56-0.46,0.51-1.35-0.14-1.69c-2.51-1.3-4.32-4.44-4.39-8.14C47.66,28.03,50.25,24.81,53.55,23.71
		z M38.44,36.88c-3.47,0-6.29-2.81-6.29-6.29c0-3.47,2.82-6.29,6.29-6.29c3.47,0,6.29,2.82,6.29,6.29
		C44.73,34.07,41.91,36.88,38.44,36.88z"/>
</g>
</svg>
