<?xml version="1.0" encoding="utf-8"?>
<!-- Generator: Adobe Illustrator 26.4.1, SVG Export Plug-In . SVG Version: 6.00 Build 0)  -->
<svg version="1.1" id="Layer_1" xmlns="http://www.w3.org/2000/svg" xmlns:xlink="http://www.w3.org/1999/xlink" x="0px" y="0px"
	 viewBox="0 0 83.22 78.62" style="enable-background:new 0 0 83.22 78.62;" xml:space="preserve">
<style type="text/css">
	.st0{fill:#BC83FB;}
</style>
<g>
	<path class="st0" d="M69.6,31.57c0.85,0.25,1.14,1.25,0.57,1.92c-1.57,1.83-2.7,4.36-3.04,7.25c-0.44,3.67,0.48,7.08,2.27,9.37
		c0.46,0.59,0.27,1.47-0.41,1.77c-1.64,0.72-3.2,2.18-4.22,4.17c-1.71,3.29-1.45,7.05,0.43,9.2c0.41,0.47,0.42,1.17-0.03,1.6
		c-15.97,15.13-40.21,15.8-54.7,1.31C-4.29,53.41-3.33,28.54,12.61,12.6C26.86-1.65,48.27-3.92,63.19,6.32
		c0.64,0.44,0.73,1.37,0.14,1.87c-3.93,3.35-5.46,10.26-2.24,16.11C63.13,28.03,66.32,30.61,69.6,31.57z"/>
	<g>
		
			<ellipse transform="matrix(0.8758 -0.4827 0.4827 0.8758 -0.4808 36.8623)" class="st0" cx="71.39" cy="19.37" rx="7.38" ry="10.04"/>
		
			<ellipse transform="matrix(0.1185 -0.993 0.993 0.1185 26.1024 113.2764)" class="st0" cx="76.85" cy="41.94" rx="8.61" ry="6.33"/>
		
			<ellipse transform="matrix(0.4594 -0.8882 0.8882 0.4594 -14.3324 95.7972)" class="st0" cx="71.53" cy="59.67" rx="5.7" ry="4.19"/>
	</g>
</g>
</svg>
