<?xml version="1.0" encoding="UTF-8" standalone="no"?>
<!-- Generator: Adobe Illustrator 25.4.1, SVG Export Plug-In . SVG Version: 6.00 Build 0)  -->

<svg
   version="1.1"
   id="Layer_1"
   x="0px"
   y="0px"
   viewBox="0 0 114 30.000001"
   xml:space="preserve"
   sodipodi:docname="metamask.svg"
   width="114"
   height="30"
   inkscape:version="1.3.2 (091e20e, 2023-11-25)"
   xmlns:inkscape="http://www.inkscape.org/namespaces/inkscape"
   xmlns:sodipodi="http://sodipodi.sourceforge.net/DTD/sodipodi-0.dtd"
   xmlns="http://www.w3.org/2000/svg"
   xmlns:svg="http://www.w3.org/2000/svg"><defs
   id="defs37"><clipPath
     id="clip0_1540_24"><rect
       width="562.59998"
       height="145.733"
       fill="#ffffff"
       id="rect21"
       x="0"
       y="0" /></clipPath></defs><sodipodi:namedview
   id="namedview37"
   pagecolor="#ffffff"
   bordercolor="#000000"
   borderopacity="0.25"
   inkscape:showpageshadow="2"
   inkscape:pageopacity="0.0"
   inkscape:pagecheckerboard="0"
   inkscape:deskcolor="#d1d1d1"
   inkscape:zoom="3.0084746"
   inkscape:cx="93.569012"
   inkscape:cy="29.416901"
   inkscape:window-width="1392"
   inkscape:window-height="1212"
   inkscape:window-x="691"
   inkscape:window-y="158"
   inkscape:window-maximized="0"
   inkscape:current-layer="Layer_1" />





































<g
   clip-path="url(#clip0_1540_24)"
   id="g21"
   transform="scale(0.20170247)"><path
     d="m 562.6,30.4 v 75.4 c 0,11.9 -7.3,22.1 -17.7,26.5 -1,0.4 -2.2,-0.4 -2.2,-1.5 0,-0.2 0,-0.3 0,-0.4 -2.1,-12.3 -17.1,-17.6 -30.6,-17 -9.1,0.4 -19.1,4 -24.6,10 -0.6,0.7 -1.6,0.7 -2.3,0.1 -4.7,-4.5 -12.4,-7.1 -19.6,-7.3 -8.3,-0.2 -17.6,2.6 -22.4,8.2 -0.6,0.7 -1.6,0.8 -2.3,0.2 -3.5,-2.9 -8.6,-4.7 -13.4,-4.9 -12.5,-0.6 -19.7,7.3 -19.5,12.9 0,0.1 0,0.2 0,0.3 0,0.9 -0.7,1.6 -1.6,1.6 H 30.4 C 13.7,134.5 0,120.9 0,104.2 V 30.4 C 0,13.7 13.7,0 30.4,0 h 501.8 c 16.7,0 30.4,13.7 30.4,30.4 z"
     fill="#1b1b1d"
     id="path1-7" /><path
     fill-rule="evenodd"
     clip-rule="evenodd"
     d="m 533.5,132.3 c 0.3,7 -8.5,13 -19.5,13.4 -11.1,0.5 -20.3,-4.8 -20.6,-11.8 -0.3,-8 10.3,-13 19.5,-13.4 9.2,-0.3 20.3,3.8 20.6,11.8 z"
     fill="#1b1b1d"
     id="path2-9" /><path
     fill-rule="evenodd"
     clip-rule="evenodd"
     d="m 481.1,133.5 c -0.3,5.7 -7.9,10.2 -17,10 -9.1,-0.2 -16.2,-5 -15.9,-10.7 0.4,-6.6 9.4,-10.1 17,-10 7.8,0.2 16.3,4.2 15.9,10.7 z"
     fill="#1b1b1d"
     id="path3-3" /><path
     fill-rule="evenodd"
     clip-rule="evenodd"
     d="m 439.2,133.7 c -0.3,4.3 -6.2,7.7 -13,7.4 -6.8,-0.2 -12.1,-3.9 -11.9,-8.2 -0.1,-3.2 4.7,-7.8 13,-7.6 5.8,0.3 12.3,3.4 11.9,8.4 z"
     fill="#1b1b1d"
     id="path4-8" /></g><g
   id="g37"
   transform="matrix(0.48228451,0,0,0.48228451,47.676774,-46.072913)"><path
     fill="#161616"
     d="m 81.580283,126.15493 c -0.9,-0.6 -1.9,-1 -2.8,-1.5 -0.6,-0.3 -1.2,-0.6 -1.8,-1.1 -0.9,-0.7 -0.7,-2.2 0.2,-2.8 1.3,-0.9 3.5,-0.4 3.8,1.4 0,0 0,0.1 0.1,0.1 h 2 c 0.1,0 0.1,0 0.1,-0.1 -0.1,-1.2 -0.6,-2.3 -1.5,-2.9 -0.8,-0.6 -1.8,-1 -2.8,-1 -5.3,0 -5.8,5.6 -2.9,7.3 0.3,0.2 3.1,1.6 4.1,2.2 1,0.6 1.3,1.7 0.9,2.6 -0.4,0.8 -1.4,1.4 -2.4,1.3 -1.1,-0.1 -2,-0.7 -2.3,-1.6 -0.1,-0.2 -0.1,-0.5 -0.1,-0.6 0,0 0,-0.1 -0.1,-0.1 h -2.2 c 0,0 -0.1,0 -0.1,0.1 0,1.6 0.4,2.4 1.5,3.2 1,0.8 2.1,1.1 3.2,1.1 3,0 4.5,-1.7 4.8,-3.4 0.3,-1.7 -0.2,-3.2 -1.7,-4.2 z"
     id="path1"
     style="fill:#ffffff" /><path
     fill="#161616"
     d="m -12.619717,118.55493 h -1 -1.1 c 0,0 -0.1,0 -0.1,0.1 l -1.8,5.9 c 0,0.1 -0.1,0.1 -0.2,0 l -1.8,-5.9 c 0,0 0,-0.1 -0.1,-0.1 h -1.1 -1 -1 c 0,0 -0.1,0 -0.1,0.1 v 15 c 0,0 0,0.1 0.1,0.1 h 2.2 c 0,0 0.1,0 0.1,-0.1 v -11.5 c 0,-0.1 0.1,-0.1 0.2,0 l 1.8,5.9 0.1,0.4 c 0,0 0,0.1 0.1,0.1 h 1.7 c 0,0 0.1,0 0.1,-0.1 l 0.1,-0.4 1.8,-5.9 c 0,-0.1 0.2,-0.1 0.2,0 v 11.4 c 0,0 0,0.1 0.1,0.1 h 2.2 c 0,0 0.1,0 0.1,-0.1 v -15 c 0,0 0,-0.1 -0.1,-0.1 h -1.5 z"
     id="path2"
     style="fill:#ffffff" /><path
     fill="#161616"
     d="m 48.380283,118.55493 c -0.1,0 -0.1,0 0,0 l -1.9,5.9 c 0,0.1 -0.1,0.1 -0.2,0 l -1.8,-5.9 c 0,0 0,-0.1 -0.1,-0.1 h -3.2 c 0,0 -0.1,0 -0.1,0.1 v 15 c 0,0 0,0.1 0.1,0.1 h 2.2 c 0,0 0.1,0 0.1,-0.1 v -11.4 c 0,-0.1 0.1,-0.1 0.2,0 l 1.8,5.9 0.1,0.4 c 0,0 0,0.1 0.1,0.1 h 1.7 c 0,0 0.1,0 0.1,-0.1 l 0.1,-0.4 1.8,-5.9 c 0,-0.1 0.2,-0.1 0.2,0 v 11.4 c 0,0 0,0.1 0.1,0.1 h 2.2 c 0,0 0.1,0 0.1,-0.1 v -15 c 0,0 0,-0.1 -0.1,-0.1 h -3.5 z"
     id="path3"
     style="fill:#ffffff" /><path
     fill="#161616"
     d="m 20.380283,118.55493 h -4 -2.2 -4 c 0,0 -0.1,0 -0.1,0.1 v 1.9 c 0,0 0,0.1 0.1,0.1 h 4 v 13 c 0,0 0,0.1 0.1,0.1 h 2.2 c 0,0 0.1,0 0.1,-0.1 v -13 h 4 c 0,0 0.1,0 0.1,-0.1 l -0.3,-2 c 0.1,0 0,0 0,0 z"
     id="path4"
     style="fill:#ffffff" /><path
     fill="#161616"
     d="m 33.180283,133.65493 h 2 c 0.1,0 0.1,-0.1 0.1,-0.1 l -4.1,-15 c 0,0 0,-0.1 -0.1,-0.1 h -0.8 -1.3 -0.8 c 0,0 -0.1,0 -0.1,0.1 l -4.1,15 c 0,0.1 0,0.1 0.1,0.1 h 2 c 0,0 0.1,0 0.1,-0.1 l 1.2,-4.4 c 0,0 0,-0.1 0.1,-0.1 h 4.4 c 0,0 0.1,0 0.1,0.1 l 1.2,4.5 c -0.1,0 -0.1,0 0,0 z m -5.2,-6.6 1.6,-5.8 c 0,-0.1 0.1,-0.1 0.2,0 l 1.6,5.8 c 0,0.1 0,0.1 -0.1,0.1 h -3.2 c -0.1,0 -0.1,-0.1 -0.1,-0.1 z"
     id="path5"
     style="fill:#ffffff" /><path
     fill="#161616"
     d="m 66.780283,133.65493 h 2 c 0.1,0 0.1,-0.1 0.1,-0.1 l -4.1,-15 c 0,0 0,-0.1 -0.1,-0.1 h -0.8 -1.3 -0.8 c 0,0 -0.1,0 -0.1,0.1 l -4.1,15 c 0,0.1 0,0.1 0.1,0.1 h 2 c 0,0 0.1,0 0.1,-0.1 l 1.2,-4.4 c 0,0 0,-0.1 0.1,-0.1 h 4.4 c 0,0 0.1,0 0.1,0.1 z m -5.1,-6.6 1.6,-5.8 c 0,-0.1 0.1,-0.1 0.2,0 l 1.6,5.8 c 0,0.1 0,0.1 -0.1,0.1 h -3.2 c -0.1,0 -0.1,-0.1 -0.1,-0.1 z"
     id="path6"
     style="fill:#ffffff" /><path
     fill="#161616"
     d="m -2.5197171,131.45493 v -4.6 c 0,0 0,-0.1 0.1,-0.1 h 5.8 c 0,0 0.1,0 0.1,-0.1 v -1.9 c 0,0 0,-0.1 -0.1,-0.1 h -5.8 c 0,0 -0.1,0 -0.1,-0.1 v -4 c 0,0 0,-0.1 0.1,-0.1 h 6.6 c 0,0 0.1,0 0.1,-0.1 v -1.7 c 0,0 0,-0.1 -0.1,-0.1 h -6.7 -2.2 c 0,0 -0.1,0 -0.1,0.1 v 1.9 4.1 2 4.8 2 c 0,0 0,0.1 0.1,0.1 h 2.2 6.9 c 0,0 0.1,0 0.1,-0.1 v -2 c 0,0 0,-0.1 -0.1,-0.1 l -6.9,0.1 c 0.1,0 0,0 0,0 z"
     id="path7"
     style="fill:#ffffff" /><path
     fill="#161616"
     d="m 101.38028,133.55493 -7.499997,-7.7 c 0,0 0,-0.1 0,-0.1 l 6.799997,-7 c 0.1,-0.1 0,-0.1 -0.1,-0.1 h -2.799997 c 0,0 0,0 -0.1,0 l -5.7,5.9 c -0.1,0.1 -0.1,0 -0.1,-0.1 v -5.8 c 0,0 0,-0.1 -0.1,-0.1 h -2.2 c 0,0 -0.1,0 -0.1,0.1 v 15 c 0,0 0,0.1 0.1,0.1 h 2.2 c 0,0 0.1,0 0.1,-0.1 v -6.6 c 0,-0.1 0.1,-0.1 0.1,-0.1 l 6.5,6.7 c 0,0 0,0 0.1,0 h 2.799997 c 0,0 0.1,-0.1 0,-0.1 z"
     id="path8"
     style="fill:#ffffff" /><path
     fill="#e17726"
     stroke="#e17726"
     stroke-width="0.25"
     stroke-linecap="round"
     stroke-linejoin="round"
     d="m -31.719717,110.45493 -13.2,9.7 2.4,-5.7 z"
     id="path9" /><path
     fill="#e27625"
     stroke="#e27625"
     stroke-width="0.25"
     stroke-linecap="round"
     stroke-linejoin="round"
     d="m -62.019717,110.45493 13,9.8 -2.3,-5.8 z"
     id="path10" /><path
     fill="#e27625"
     stroke="#e27625"
     stroke-width="0.25"
     stroke-linecap="round"
     stroke-linejoin="round"
     d="m -36.419717,133.05493 -3.5,5.3 7.5,2.1 2.1,-7.3 z"
     id="path11" /><path
     fill="#e27625"
     stroke="#e27625"
     stroke-width="0.25"
     stroke-linecap="round"
     stroke-linejoin="round"
     d="m -63.419717,133.15493 2.1,7.3 7.5,-2.1 -3.5,-5.3 z"
     id="path12" /><path
     fill="#e27625"
     stroke="#e27625"
     stroke-width="0.25"
     stroke-linecap="round"
     stroke-linejoin="round"
     d="m -54.219717,123.95493 -2.1,3.1 7.4,0.3 -0.2,-8 z"
     id="path13" /><path
     fill="#e27625"
     stroke="#e27625"
     stroke-width="0.25"
     stroke-linecap="round"
     stroke-linejoin="round"
     d="m -39.519717,123.95493 -5.2,-4.6 -0.2,8.1 7.4,-0.3 z"
     id="path14" /><path
     fill="#e27625"
     stroke="#e27625"
     stroke-width="0.25"
     stroke-linecap="round"
     stroke-linejoin="round"
     d="m -53.819717,138.35493 4.5,-2.2 -3.9,-3 z"
     id="path15" /><path
     fill="#e27625"
     stroke="#e27625"
     stroke-width="0.25"
     stroke-linecap="round"
     stroke-linejoin="round"
     d="m -44.419717,136.15493 4.5,2.2 -0.6,-5.2 z"
     id="path16" /><path
     fill="#d5bfb2"
     stroke="#d5bfb2"
     stroke-width="0.25"
     stroke-linecap="round"
     stroke-linejoin="round"
     d="m -39.919717,138.35493 -4.5,-2.2 0.4,2.9 v 1.2 z"
     id="path17" /><path
     fill="#d5bfb2"
     stroke="#d5bfb2"
     stroke-width="0.25"
     stroke-linecap="round"
     stroke-linejoin="round"
     d="m -53.819717,138.35493 4.2,2 v -1.2 l 0.4,-2.9 z"
     id="path18" /><path
     fill="#233447"
     stroke="#233447"
     stroke-width="0.25"
     stroke-linecap="round"
     stroke-linejoin="round"
     d="m -49.619717,131.25493 -3.7,-1.1 2.6,-1.2 z"
     id="path19" /><path
     fill="#233447"
     stroke="#233447"
     stroke-width="0.25"
     stroke-linecap="round"
     stroke-linejoin="round"
     d="m -44.219717,131.25493 1.1,-2.3 2.6,1.2 z"
     id="path20" /><path
     fill="#cc6228"
     stroke="#cc6228"
     stroke-width="0.25"
     stroke-linecap="round"
     stroke-linejoin="round"
     d="m -53.819717,138.35493 0.6,-5.3 -4.1,0.1 z"
     id="path21" /><path
     fill="#cc6228"
     stroke="#cc6228"
     stroke-width="0.25"
     stroke-linecap="round"
     stroke-linejoin="round"
     d="m -40.619717,133.05493 0.6,5.3 3.5,-5.2 z"
     id="path22" /><path
     fill="#cc6228"
     stroke="#cc6228"
     stroke-width="0.25"
     stroke-linecap="round"
     stroke-linejoin="round"
     d="m -37.419717,127.15493 -7.4,0.3 0.7,3.8 1.1,-2.3 2.6,1.2 z"
     id="path23" /><path
     fill="#cc6228"
     stroke="#cc6228"
     stroke-width="0.25"
     stroke-linecap="round"
     stroke-linejoin="round"
     d="m -53.319717,130.15493 2.6,-1.2 1.1,2.3 0.7,-3.8 -7.4,-0.3 z"
     id="path24" /><path
     fill="#e27525"
     stroke="#e27525"
     stroke-width="0.25"
     stroke-linecap="round"
     stroke-linejoin="round"
     d="m -56.319717,127.15493 3.1,6.1 -0.1,-3 z"
     id="path25" /><path
     fill="#e27525"
     stroke="#e27525"
     stroke-width="0.25"
     stroke-linecap="round"
     stroke-linejoin="round"
     d="m -40.419717,130.15493 -0.1,3 3.1,-6.1 z"
     id="path26" /><path
     fill="#e27525"
     stroke="#e27525"
     stroke-width="0.25"
     stroke-linecap="round"
     stroke-linejoin="round"
     d="m -48.919717,127.45493 -0.7,3.8 0.9,4.5 0.2,-5.9 z"
     id="path27" /><path
     fill="#e27525"
     stroke="#e27525"
     stroke-width="0.25"
     stroke-linecap="round"
     stroke-linejoin="round"
     d="m -44.919717,127.45493 -0.4,2.4 0.2,5.9 0.9,-4.5 z"
     id="path28" /><path
     fill="#f5841f"
     stroke="#f5841f"
     stroke-width="0.25"
     stroke-linecap="round"
     stroke-linejoin="round"
     d="m -44.219717,131.25493 -0.9,4.5 0.6,0.4 3.9,-3 0.1,-3 z"
     id="path29" /><path
     fill="#f5841f"
     stroke="#f5841f"
     stroke-width="0.25"
     stroke-linecap="round"
     stroke-linejoin="round"
     d="m -53.319717,130.15493 0.1,3 3.9,3 0.6,-0.4 -0.9,-4.5 z"
     id="path30" /><path
     fill="#c0ac9d"
     stroke="#c0ac9d"
     stroke-width="0.25"
     stroke-linecap="round"
     stroke-linejoin="round"
     d="m -44.119717,140.35493 v -1.2 l -0.3,-0.3 h -5 l -0.3,0.3 v 1.2 l -4.1,-2 1.5,1.2 2.9,2 h 5.1 l 3,-2 1.4,-1.2 z"
     id="path31" /><path
     fill="#161616"
     stroke="#161616"
     stroke-width="0.25"
     stroke-linecap="round"
     stroke-linejoin="round"
     d="m -44.419717,136.15493 -0.6,-0.4 h -3.7 l -0.6,0.4 -0.4,2.9 0.3,-0.3 h 5 l 0.3,0.3 z"
     id="path32" /><path
     fill="#763e1a"
     stroke="#763e1a"
     stroke-width="0.25"
     stroke-linecap="round"
     stroke-linejoin="round"
     d="m -31.219717,120.85493 1.1,-5.4 -1.7,-5 -12.6,9.4 4.9,4.1 6.9,2 1.5,-1.8 -0.7,-0.4 1.1,-1 -0.8,-0.6 1.1,-0.8 z"
     id="path33" /><path
     fill="#763e1a"
     stroke="#763e1a"
     stroke-width="0.25"
     stroke-linecap="round"
     stroke-linejoin="round"
     d="m -63.719717,115.45493 1.1,5.4 -0.7,0.5 1.1,0.8 -0.8,0.6 1.1,1 -0.7,0.5 1.5,1.8 6.9,-2 4.9,-4.1 -12.7,-9.5 z"
     id="path34" /><path
     fill="#f5841f"
     stroke="#f5841f"
     stroke-width="0.25"
     stroke-linecap="round"
     stroke-linejoin="round"
     d="m -32.619717,125.95493 -6.9,-2 2.1,3.1 -3.1,6.1 4.1,-0.1 h 6.1 z"
     id="path35" /><path
     fill="#f5841f"
     stroke="#f5841f"
     stroke-width="0.25"
     stroke-linecap="round"
     stroke-linejoin="round"
     d="m -54.219717,123.95493 -6.9,2 -2.3,7.1 h 6.1 l 4.1,0.1 -3.1,-6.1 z"
     id="path36" /><path
     fill="#f5841f"
     stroke="#f5841f"
     stroke-width="0.25"
     stroke-linecap="round"
     stroke-linejoin="round"
     d="m -44.919717,127.45493 0.4,-7.6 2,-5.4 h -8.9 l 2,5.4 0.4,7.6 0.2,2.4 v 5.9 h 3.7 v -5.9 z"
     id="path37" /></g></svg>
