<?xml version="1.0" encoding="utf-8"?>
<!-- Generator: Adobe Illustrator 27.0.0, SVG Export Plug-In . SVG Version: 6.00 Build 0)  -->
<!DOCTYPE svg PUBLIC "-//W3C//DTD SVG 1.1//EN" "http://www.w3.org/Graphics/SVG/1.1/DTD/svg11.dtd" [
	<!ENTITY ns_extend "http://ns.adobe.com/Extensibility/1.0/">
	<!ENTITY ns_ai "http://ns.adobe.com/AdobeIllustrator/10.0/">
	<!ENTITY ns_graphs "http://ns.adobe.com/Graphs/1.0/">
	<!ENTITY ns_vars "http://ns.adobe.com/Variables/1.0/">
	<!ENTITY ns_imrep "http://ns.adobe.com/ImageReplacement/1.0/">
	<!ENTITY ns_sfw "http://ns.adobe.com/SaveForWeb/1.0/">
	<!ENTITY ns_custom "http://ns.adobe.com/GenericCustomNamespace/1.0/">
	<!ENTITY ns_adobe_xpath "http://ns.adobe.com/XPath/1.0/">
]>
<svg version="1.1" id="Layer_1" xmlns:x="&ns_extend;" xmlns:i="&ns_ai;" xmlns:graph="&ns_graphs;"
	 xmlns="http://www.w3.org/2000/svg" xmlns:xlink="http://www.w3.org/1999/xlink" x="0px" y="0px" viewBox="0 0 562.6 145.8"
	 style="enable-background:new 0 0 562.6 145.8;" xml:space="preserve">
<style type="text/css">
	.st0{fill:#1B1B1D;}
	.st1{fill-rule:evenodd;clip-rule:evenodd;fill:#1B1B1D;}
	.st2{fill-rule:evenodd;clip-rule:evenodd;fill:#FFFFFF;}
	.st3{clip-path:url(#SVGID_00000127017517298157253600000016975258449190494604_);}
</style>
<switch>
	<g i:extraneous="self">
		<g id="Layer_1_00000070800024096672311410000017047824110764326309_">
			<g id="Layer_1_00000101092725010512443420000000677803661855089537_">
				<path class="st0" d="M562.6,30.4v75.4c0,11.9-7.3,22.1-17.7,26.5c-1,0.4-2.2-0.4-2.2-1.5c0-0.2,0-0.3,0-0.4
					c-2.1-12.3-17.1-17.6-30.6-17c-9.1,0.4-19.1,4-24.6,10c-0.6,0.7-1.6,0.7-2.3,0.1c-4.7-4.5-12.4-7.1-19.6-7.3
					c-8.3-0.2-17.6,2.6-22.4,8.2c-0.6,0.7-1.6,0.8-2.3,0.2c-3.5-2.9-8.6-4.7-13.4-4.9c-12.5-0.6-19.7,7.3-19.5,12.9
					c0,0.1,0,0.2,0,0.3c0,0.9-0.7,1.6-1.6,1.6h-376C13.7,134.5,0,120.9,0,104.2V30.4C0,13.7,13.7,0,30.4,0h501.8
					C548.9,0,562.6,13.7,562.6,30.4z"/>
			</g>
			<g>
				<path class="st1" d="M533.5,132.3c0.3,7-8.5,13-19.5,13.4c-11.1,0.5-20.3-4.8-20.6-11.8c-0.3-8,10.3-13,19.5-13.4
					C522.1,120.2,533.2,124.3,533.5,132.3z"/>
				<path class="st1" d="M481.1,133.5c-0.3,5.7-7.9,10.2-17,10s-16.2-5-15.9-10.7c0.4-6.6,9.4-10.1,17-10
					C473,123,481.5,127,481.1,133.5z"/>
				<path class="st1" d="M439.2,133.7c-0.3,4.3-6.2,7.7-13,7.4c-6.8-0.2-12.1-3.9-11.9-8.2c-0.1-3.2,4.7-7.8,13-7.6
					C433.1,125.6,439.6,128.7,439.2,133.7z"/>
			</g>
		</g>
		<g id="Logo">
			<path class="st2" d="M179.9,57h7.1c0,0,0-15.5-17-15.8c0,0-14.8-1.6-17.8,10.9c0,0-1.6,8,2.7,11.8c3.9,3.3,8.7,5.5,13.7,6.2
				c4.2,0.7,14.1,3.6,13.1,12.2c-1,8.7-24.3,11.9-25-5.7h-7.2c0,0-1.1,15.8,14.8,19.2c15.9,3.3,25-6.1,24.3-16.9
				c-0.7-10.8-11.8-13.8-19.8-15.5c-8-1.7-10.5-5.6-9.8-9.7c0.7-4,5.9-5.7,10.1-5.7c2.6-0.2,5.2,0.7,7.1,2.4
				C178.3,52.1,179.6,54.5,179.9,57z M197.4,57.6h7.1v31.3h16.9V57.6h7.3v38.9h-31.4V57.6z M260.8,58c1.3,0,2.5,0.1,3.7,0.4
				c2.2,0.6,4.2,1.6,5.8,3.2c1.7,1.5,2.9,3.4,3.7,5.5c0.9,2.3,1.4,4.8,1.3,7.2V79c0,1.3-0.1,2.5-0.3,3.8
				c-2.8,13.8-13.2,13.2-13.2,13.2h-6.6c-3.5-0.3-6.9-1.9-9.3-4.5l-0.9,5.1h-6v-55h7v20.2c2.8-2.5,6.4-3.8,10.2-3.7H260.8z
				 M265.4,86.5c1.5-1.5,2.4-3.6,2.4-5.7v-8.1c0-2.1-0.8-4.2-2.4-5.7c-1.5-1.5-3.6-2.4-5.7-2.4h-5.3c-2.1,0-4.2,0.8-5.7,2.4
				c-1.5,1.5-2.4,3.6-2.4,5.7v8.1c0,2.1,0.8,4.2,2.4,5.7c1.5,1.5,3.6,2.4,5.7,2.4h5.3C261.8,88.9,263.9,88,265.4,86.5z M276.5,41.5
				h7.4l11.2,47.3h1.3l9-47.3h13l9.4,47.5h1.3l11.5-47h7.3l-13,54.5h-13l-9.2-47.4h-1.3l-8.8,47.4h-12.9L276.5,41.5z M381,57.8v31.1
				h5v7.3h-11.2l-0.8-4.3c0,0-3.9,6.1-13.9,4.3c-10.1-1.8-12.4-10.3-10.1-17.5c2.3-7.2,13-7,13-7h10.9v-7h-20.9v-7H381z M361.3,89.6
				c9.9,2,12.4-6.1,12.4-6.1v-5.1h-11c-4.9,0.9-5.6,3.5-5.6,3.5c-0.3,0.8-0.4,1.6-0.4,2.5c0.1,0.8,0.3,1.7,0.7,2.4
				c0.4,0.7,1,1.4,1.7,1.9C359.7,89.1,360.5,89.4,361.3,89.6z M401.9,42.2h-7v54.4h7V42.2z M409.9,42.2h7v54.4h-7V42.2z M444.4,58.3
				c0,0-15.5-2.7-20,11.6c0,0-2.5,11.2,1.5,18.8c1.7,2.7,4.1,4.9,7,6.2c2.9,1.4,6.1,1.9,9.3,1.6c11.7-0.9,15.8-7,15.8-11.6h-7.4
				c0,0,0,4.4-6.2,4.5c-0.3,0-0.6,0-0.9,0c-6,0.1-13,0.2-12.8-8.7h28.4C459.1,80.7,461.8,60.2,444.4,58.3z M430.8,74
				c-0.3-3.5,3.2-9.8,12-9.3c2.5,0,4.8,1,6.6,2.7c1.7,1.7,2.7,4.1,2.7,6.6H430.8z M477.4,41.7h-7l0.1,16.2h-6.6v7.2h6.5v31.4h23V89
				h-15.9V65h13.2v-7.1h-13.2V41.7z"/>
			<g>
				<defs>
					<linearGradient id="backgroundGradient" x1="0%" y1="0%" x2="90%" y2="100%">
						<stop offset="18%" stop-color="#61fec0" />
						<stop offset="81%" stop-color="#0425fe" />
					</linearGradient>
					<clipPath id="clipPolygon">
						<polygon points="135.7,55.1 135.7,41.2 80.3,19 69.2,24.6 69.3,67.7 110.8,84.4 88.6,93.9 88.6,86.6 78.4,82.4 69.3,86.8 69.3,113.2 80.3,118.8 135.7,93.8 135.7,76 85.8,56.1 85.8,43.9 125.4,59.8"/>
					</clipPath>
				</defs>
				<g clip-path="url(#clipPolygon)">
					<polygon points="135.7,55.1 135.7,41.2 80.3,19 69.2,24.6 69.3,67.7 110.8,84.4 88.6,93.9 88.6,86.6 78.4,82.4 69.3,86.8 69.3,113.2 80.3,118.8 135.7,93.8 135.7,76 85.8,56.1 85.8,43.9 125.4,59.8" fill="url(#backgroundGradient)"/>
				</g>
			</g>
		</g>
	</g>
</switch>
</svg>
