<svg width="563" height="146" viewBox="0 0 563 146" fill="none" xmlns="http://www.w3.org/2000/svg">
<g clip-path="url(#clip0_1540_24)">
<path d="M562.6 30.4V105.8C562.6 117.7 555.3 127.9 544.9 132.3C543.9 132.7 542.7 131.9 542.7 130.8C542.7 130.6 542.7 130.5 542.7 130.4C540.6 118.1 525.6 112.8 512.1 113.4C503 113.8 493 117.4 487.5 123.4C486.9 124.1 485.9 124.1 485.2 123.5C480.5 119 472.8 116.4 465.6 116.2C457.3 116 448 118.8 443.2 124.4C442.6 125.1 441.6 125.2 440.9 124.6C437.4 121.7 432.3 119.9 427.5 119.7C415 119.1 407.8 127 408 132.6C408 132.7 408 132.8 408 132.9C408 133.8 407.3 134.5 406.4 134.5H30.4C13.7 134.5 0 120.9 0 104.2V30.4C0 13.7 13.7 0 30.4 0H532.2C548.9 0 562.6 13.7 562.6 30.4Z" fill="#1B1B1D"/>
<path fill-rule="evenodd" clip-rule="evenodd" d="M533.5 132.3C533.8 139.3 525 145.3 514 145.7C502.9 146.2 493.7 140.9 493.4 133.9C493.1 125.9 503.7 120.9 512.9 120.5C522.1 120.2 533.2 124.3 533.5 132.3Z" fill="#1B1B1D"/>
<path fill-rule="evenodd" clip-rule="evenodd" d="M481.1 133.5C480.8 139.2 473.2 143.7 464.1 143.5C455 143.3 447.9 138.5 448.2 132.8C448.6 126.2 457.6 122.7 465.2 122.8C473 123 481.5 127 481.1 133.5Z" fill="#1B1B1D"/>
<path fill-rule="evenodd" clip-rule="evenodd" d="M439.2 133.7C438.9 138 433 141.4 426.2 141.1C419.4 140.9 414.1 137.2 414.3 132.9C414.2 129.7 419 125.1 427.3 125.3C433.1 125.6 439.6 128.7 439.2 133.7Z" fill="#1B1B1D"/>
<path fill-rule="evenodd" clip-rule="evenodd" d="M137.19 72.5247C138.018 74.3266 140.454 74.963 141.856 73.561L144.427 70.9899C147.084 68.3331 151.392 68.3331 154.048 70.9899C156.705 73.6467 156.705 77.9542 154.048 80.6111L133.269 101.391C128.277 107.316 120.802 111.081 112.447 111.081C103.735 111.081 95.979 106.987 90.9982 100.618L70.9926 80.6124C68.3358 77.9556 68.3358 73.648 70.9926 70.9911C73.6494 68.3343 77.957 68.3343 80.6138 70.9911L83.1459 73.5233C84.5173 74.8947 86.8982 74.2777 87.7083 72.5156C87.8683 72.1674 87.9553 71.7937 87.9553 71.4106V40.3276C87.9553 36.5703 91.0012 33.5244 94.7585 33.5244C98.5158 33.5244 101.562 36.5703 101.562 40.3276V56.0519C101.562 57.4049 102.948 58.3234 104.238 57.9156C105.054 57.6576 105.644 56.9141 105.644 56.0579V30.8032C105.644 27.0459 108.69 24 112.447 24C116.205 24 119.251 27.0459 119.251 30.8032V56.0584C119.251 56.9146 119.84 57.6577 120.657 57.9157C121.946 58.3232 123.332 57.4052 123.332 56.0526V40.3276C123.332 36.5703 126.378 33.5244 130.135 33.5244C133.893 33.5244 136.938 36.5703 136.938 40.3276V71.3978C136.938 71.7887 137.027 72.1696 137.19 72.5247Z" fill="#FD4848"/>
<path d="M134.217 86.5898C134.217 86.5898 124.47 100.196 112.446 100.196C100.423 100.196 90.6761 86.5898 90.6761 86.5898C90.6761 86.5898 100.423 72.9833 112.446 72.9833C124.47 72.9833 134.217 86.5898 134.217 86.5898Z" fill="#D5FF5C"/>
<path d="M122.646 86.5899C122.646 92.2249 118.078 96.793 112.443 96.793C106.808 96.793 102.24 92.2249 102.24 86.5899C102.24 80.9549 106.808 76.3868 112.443 76.3868C118.078 76.3868 122.646 80.9549 122.646 86.5899Z" stroke="#FD4848" stroke-width="3.14913"/>
<path d="M118.564 86.5898C118.564 89.9705 115.823 92.7109 112.443 92.7109C109.062 92.7109 106.322 89.9705 106.322 86.5898C106.322 83.2091 109.062 80.4687 112.443 80.4687C115.823 80.4687 118.564 83.2091 118.564 86.5898Z" stroke="#FD4848" stroke-width="3.14913"/>
<path d="M126.729 86.59C126.729 94.4794 120.333 100.875 112.444 100.875C104.554 100.875 98.1588 94.4794 98.1588 86.59C98.1588 78.7006 104.554 72.305 112.444 72.305C120.333 72.305 126.729 78.7006 126.729 86.59Z" stroke="#FD4848" stroke-width="3.14913"/>
<path d="M130.811 86.59C130.811 96.7338 122.588 104.957 112.444 104.957C102.3 104.957 94.0774 96.7338 94.0774 86.59C94.0774 76.4462 102.3 68.2231 112.444 68.223C122.588 68.223 130.811 76.4462 130.811 86.59Z" stroke="#FD4848" stroke-width="3.14913"/>
<path d="M114.481 86.5893C114.481 87.7155 113.568 88.6285 112.442 88.6285C111.316 88.6285 110.403 87.7155 110.403 86.5893C110.403 85.4631 111.316 84.5501 112.442 84.5501C113.568 84.5501 114.481 85.4631 114.481 86.5893Z" fill="#162BEB" stroke="#FD4848" stroke-width="3.14913"/>
<path d="M112.444 89.311C113.947 89.311 115.165 88.0926 115.165 86.5897C115.165 85.0867 113.947 83.8684 112.444 83.8684C110.941 83.8684 109.723 85.0867 109.723 86.5897C109.723 88.0926 110.941 89.311 112.444 89.311Z" fill="#FD4848"/>
<path d="M91.6535 86.7545C91.6073 86.6952 91.5645 86.6399 91.5256 86.5892C91.5645 86.5386 91.6073 86.4833 91.6535 86.4239C91.9374 86.0598 92.3578 85.5373 92.9003 84.9091C93.9862 83.6517 95.5568 81.9761 97.4955 80.3023C101.394 76.9364 106.679 73.6648 112.444 73.6648C118.208 73.6648 123.493 76.9364 127.392 80.3023C129.33 81.9761 130.901 83.6517 131.987 84.9091C132.529 85.5373 132.95 86.0598 133.234 86.4239C133.28 86.4833 133.323 86.5384 133.362 86.5892C133.323 86.6399 133.28 86.6952 133.234 86.7545C132.95 87.1186 132.529 87.6412 131.987 88.2695C130.901 89.5268 129.33 91.2023 127.392 92.8762C123.493 96.2422 118.208 99.5136 112.444 99.5136C106.679 99.5136 101.394 96.2422 97.4955 92.8762C95.5568 91.2023 93.9862 89.5268 92.9003 88.2695C92.3578 87.6412 91.9374 87.1186 91.6535 86.7545Z" stroke="#D5FF5C" stroke-width="3.14913"/>
<path d="M185.198 97.5711H195.594V50.5496H215.347V41.5931H165.766V50.5496H185.198V97.5711Z" fill="white"/>
<path d="M209.24 87.3352C209.24 94.3724 214.358 98.7707 222.034 98.7707C228.512 98.7707 232.59 94.9322 234.269 89.2545H237.709C237.868 95.492 239.388 97.5712 245.945 97.5712H250.103V89.8941H246.345C244.266 89.8941 243.946 89.4944 243.946 87.4952V71.4215C243.946 61.7453 237.948 56.5473 226.992 56.5473C216.197 56.5473 209.48 62.305 208.68 68.3026L217.556 70.6217C218.596 66.5433 221.554 63.9843 226.992 63.9843C232.031 63.9843 234.269 66.1435 234.269 70.2219V71.5814C226.673 72.3011 220.595 73.8206 216.037 76.2195C211.478 78.5386 209.24 82.2971 209.24 87.3352ZM234.269 81.1776C234.269 87.9749 230.111 91.4136 225.153 91.4136C221.315 91.4136 219.155 89.5744 219.155 86.3756C219.155 81.2576 224.753 79.0185 234.269 77.9788V81.1776Z" fill="white"/>
<path d="M256.462 97.5709H266.217V41.5929H256.462V97.5709Z" fill="white"/>
<path d="M277.775 51.4292H288.171V41.5131H277.775V51.4292ZM278.175 97.5711H287.852V57.7468H278.175V97.5711Z" fill="white"/>
<path d="M296.133 87.3352C297.892 94.3724 305.41 98.6907 314.365 98.6907C325.321 98.6907 331.959 93.6528 331.959 85.8957C331.959 82.2172 330.599 79.4183 327.961 77.4991C325.321 75.5797 322.122 74.2203 318.364 73.5007L313.167 72.541C308.368 71.5814 307.089 70.3818 307.089 68.0627C307.089 65.4238 309.407 63.5846 313.646 63.5846C318.204 63.5846 321.083 66.2235 322.362 69.6622L330.599 66.1435C328.76 61.2655 323.482 56.5473 313.965 56.5473C304.449 56.5473 297.812 61.5852 297.812 68.9424C297.812 76.4594 302.611 79.2584 310.688 80.9377L315.966 81.8973C320.443 82.777 321.883 84.3763 321.883 86.8554C321.883 89.6543 319.324 91.4136 314.765 91.4136C308.448 91.4136 305.889 87.8949 305.169 84.3763L296.133 87.3352Z" fill="white"/>
<path d="M340.651 97.5712H350.408V77.899C350.408 73.4207 350.728 69.742 353.207 66.8632C354.406 65.4237 356.246 64.7041 358.725 64.7041C363.522 64.7041 365.922 67.583 365.922 73.2606V97.5712H375.518V77.899C375.518 73.3407 375.759 69.742 378.238 66.8632C379.436 65.4237 381.356 64.7041 383.835 64.7041C388.394 64.7041 391.032 67.4229 391.032 73.2606V97.5712H400.709V71.5813C400.709 61.9051 395.111 56.5473 387.433 56.5473C381.996 56.5473 377.597 60.3858 375.918 65.9036H372.479C371.12 59.9059 366.882 56.5473 361.524 56.5473C355.686 56.5473 352.247 60.4657 350.728 65.9036H346.17C347.849 63.5846 349.289 60.0659 349.289 57.7468H340.651V97.5712Z" fill="white"/>
<path d="M409.712 87.3352C409.712 94.3724 414.829 98.7707 422.506 98.7707C428.984 98.7707 433.062 94.9322 434.742 89.2545H438.181C438.34 95.492 439.86 97.5712 446.417 97.5712H450.576V89.8941H446.817C444.738 89.8941 444.418 89.4944 444.418 87.4952V71.4215C444.418 61.7453 438.42 56.5473 427.464 56.5473C416.669 56.5473 409.951 62.305 409.151 68.3026L418.028 70.6217C419.068 66.5433 422.027 63.9843 427.464 63.9843C432.503 63.9843 434.742 66.1435 434.742 70.2219V71.5814C427.145 72.3011 421.068 73.8206 416.51 76.2195C411.95 78.5386 409.712 82.2971 409.712 87.3352ZM434.742 81.1776C434.742 87.9749 430.583 91.4136 425.626 91.4136C421.786 91.4136 419.628 89.5744 419.628 86.3756C419.628 81.2576 425.226 79.0185 434.742 77.9788V81.1776Z" fill="white"/>
<path d="M456.933 97.5712H466.689V79.3384C466.689 74.5402 467.009 70.3818 469.649 67.1831C471.008 65.5038 473.087 64.7041 475.805 64.7041C480.364 64.7041 483.003 67.503 483.003 73.2607V97.5712H492.759V71.3415C492.759 62.1451 488.04 56.5473 479.085 56.5473C472.526 56.5473 468.368 61.5852 466.609 66.9432H462.051C464.29 63.6644 465.889 60.0659 465.969 57.7469H456.933V97.5712Z" fill="white"/>
</g>
<defs>
<clipPath id="clip0_1540_24">
<rect width="562.6" height="145.733" fill="white"/>
</clipPath>
</defs>
</svg>
