<svg width="188" height="60" fill="none" xmlns="http://www.w3.org/2000/svg"><path d="M59.923 27.965C58.8 11.433 44.49-1.053 27.963.07 19.73.631 12.5 4.466 7.454 10.211l-.015-.01c-.036.046-.067.092-.098.138C2.33 16.12-.49 23.801.07 32.036c.052.786.144 1.556.257 2.32 0 .037.01.067.015.103.077.503.165 1.007.262 1.5a29.526 29.526 0 0 0 .308 1.36c3.466 13.816 16.409 23.601 31.123 22.6 16.527-1.124 29.018-15.433 27.894-31.964l-.006.01Zm-6.53.446c.139 2.034.01 4.026-.354 5.946 0-.01-.01-.02-.01-.031-2.178-5.314-6.48-9.154-10.259-11.275.765-9.005-2.29-12.804-5.75-13.42a5.005 5.005 0 0 0-5.889 4.287 5.005 5.005 0 0 0 4.334 5.606c.241.031.477.041.708.036a19 19 0 0 1 .026.965c-3.199-.79-6.187-.95-8.913-.703a25.738 25.738 0 0 0-3.055.385c.34-3.04 1.484-6.459 3.697-8.954 2.14-2.418 5.324-3.799 8.794-3.445.658.067 1.361.231 1.992.442.031.01.062.02.088.025 8.04 3.276 13.96 10.91 14.586 20.136h.005Zm-20.911 4.58s0 .005-.005.01a21.148 21.148 0 0 1-2.567 3.035 22.32 22.32 0 0 1-3.615-5.088c-.046-.098-.097-.185-.144-.283v-.01a21.503 21.503 0 0 1-1.345-3.743c2.13-.503 4.22-.688 6.218-.59l.318.015h.01c1.253.103 2.557.334 3.907.704a22.359 22.359 0 0 1-2.772 5.945l-.005.005ZM22.234 7.87l-.015.02c-3.517 4.539-4.688 10.181-4.636 14.514-8.184 3.84-9.94 8.384-8.749 11.69.03.093.067.18.103.268a5.013 5.013 0 0 0 6.556 2.69 5.013 5.013 0 0 0 2.69-6.556 5.22 5.22 0 0 0-.323-.632c.257-.17.534-.338.832-.513.913 3.168 2.264 5.843 3.84 8.081.57.847 1.186 1.663 1.858 2.449-2.803 1.227-6.335 1.946-9.606 1.278-3.162-.646-5.95-2.71-7.382-5.894a9.532 9.532 0 0 1-.616-1.945 23.767 23.767 0 0 1-.19-1.73c-.73-10.746 5.935-20.311 15.638-23.72Zm9.354 45.524c-6.381.436-12.347-1.74-16.855-5.612 5.689.776 11.162-1.032 14.89-3.244 7.418 5.17 12.234 4.42 14.503 1.735a5.01 5.01 0 0 0-.77-7.25 5.01 5.01 0 0 0-7.024.95c-.143.19-.272.396-.385.601-.272-.139-.56-.293-.852-.462a26.8 26.8 0 0 0 5.067-7.373 26.09 26.09 0 0 0 1.191-2.839c2.465 1.818 4.857 4.513 5.915 7.68 1.022 3.06.631 6.51-1.412 9.34a9.534 9.534 0 0 1-1.376 1.504l-.02.02a23.303 23.303 0 0 1-12.866 4.945l-.006.005Z" fill="url(#a)"/><path style="mix-blend-mode:overlay" opacity=".9" d="M37.02 9.626a4.871 4.871 0 0 0-1.705-.02c2.871 1.56 4.96 5.909 3.862 14.493a25.672 25.672 0 0 1-2.428 8.03 26.734 26.734 0 0 1-4.144 6.355 23.653 23.653 0 0 0 2.49 1.638 26.8 26.8 0 0 0 5.068-7.372 25.498 25.498 0 0 0 2.428-8.03c1.31-10.217-1.904-14.437-5.57-15.09v-.004Z" fill="url(#b)"/><path d="M39.176 24.094c1.099-8.58-.991-12.933-3.861-14.494-.113.015-.22.041-.334.067 2.809 1.617 4.831 5.96 3.748 14.427a25.673 25.673 0 0 1-2.428 8.03 26.61 26.61 0 0 1-3.969 6.15c.092.072.18.139.272.205a26.84 26.84 0 0 0 4.143-6.356 25.499 25.499 0 0 0 2.429-8.03Z" fill="#fff" style="mix-blend-mode:overlay" opacity=".8"/><path style="mix-blend-mode:overlay" opacity=".5" d="M28.266 43.557c-.272-.205-.529-.421-.79-.637-4.236 1.767-10.105 2.875-15.937 1.52a23.383 23.383 0 0 0 3.188 3.342c5.689.776 11.162-1.032 14.89-3.244a44.311 44.311 0 0 1-1.356-.986l.005.005Z" fill="url(#c)"/><path style="mix-blend-mode:overlay" opacity=".6" d="M27.48 42.92c-.128-.108-.261-.215-.384-.323-4.267 1.704-10.166 2.726-15.983 1.273.144.19.288.385.431.57 5.828 1.355 11.701.247 15.937-1.52Z" fill="url(#d)"/><path style="mix-blend-mode:overlay" opacity=".9" d="M8.839 34.1c.03.092.067.18.103.267.19.452.436.857.734 1.222-.082-3.265 2.639-7.255 10.617-10.592a25.619 25.619 0 0 1 8.168-1.91 26.604 26.604 0 0 1 7.578.411c.129-1.078.18-2.084.17-2.973a26.757 26.757 0 0 0-8.918-.703 25.649 25.649 0 0 0-8.169 1.91C9.62 25.706 7.571 30.599 8.84 34.105V34.1Z" fill="url(#e)"/><path d="M20.293 25.002c-7.978 3.338-10.7 7.327-10.617 10.592.072.087.149.17.226.252-.006-3.24 2.746-7.162 10.617-10.459a25.622 25.622 0 0 1 8.168-1.91 26.717 26.717 0 0 1 7.311.36 7.67 7.67 0 0 0 .041-.339 26.794 26.794 0 0 0-7.578-.41 25.651 25.651 0 0 0-8.168 1.91v.004Z" fill="#fff" style="mix-blend-mode:overlay" opacity=".8"/><path style="mix-blend-mode:overlay" opacity=".4" d="M42.601 24.715c-.04.339-.097.667-.154 1.001 3.645 2.783 7.542 7.316 9.288 13.04a23.595 23.595 0 0 0 1.299-4.435c-2.172-5.314-6.474-9.15-10.253-11.27-.046.54-.103 1.089-.175 1.664h-.005Z" fill="url(#f)"/><path style="mix-blend-mode:overlay" opacity=".5" d="M42.447 25.716c-.031.164-.057.334-.088.498 3.61 2.844 7.445 7.44 9.093 13.205.097-.22.19-.442.277-.662-1.745-5.725-5.637-10.253-9.288-13.041h.006Z" fill="url(#g)"/><path style="mix-blend-mode:overlay" opacity=".9" d="M44.126 46.268a5.13 5.13 0 0 0 .873-1.468c-2.788 1.704-7.6 1.34-14.484-3.903a25.524 25.524 0 0 1-5.74-6.12 26.634 26.634 0 0 1-3.435-6.766c-.996.426-1.894.888-2.664 1.34a26.87 26.87 0 0 0 3.85 8.076c1.54 2.3 3.46 4.38 5.74 6.12 8.194 6.243 13.457 5.57 15.854 2.72h.006Z" fill="url(#h)"/><path d="M30.52 40.898c6.879 5.241 11.695 5.606 14.482 3.901.041-.107.077-.215.108-.318-2.803 1.628-7.578 1.201-14.365-3.968a25.526 25.526 0 0 1-5.74-6.12 26.648 26.648 0 0 1-3.342-6.51c-.108.046-.21.087-.313.133a26.633 26.633 0 0 0 3.434 6.767c1.54 2.3 3.46 4.38 5.74 6.12l-.005-.005Z" fill="#fff" style="mix-blend-mode:overlay" opacity=".8"/><path style="mix-blend-mode:overlay" opacity=".3" d="M19.117 21.722c.313-.129.626-.247.944-.365.586-4.549 2.562-10.191 6.65-14.56-1.53.22-3.035.58-4.493 1.088C18.7 12.424 17.53 18.066 17.582 22.4c.487-.23.996-.457 1.53-.677h.005Z" fill="url(#i)"/><path style="mix-blend-mode:overlay" opacity=".4" d="M20.06 21.357c.16-.056.314-.118.473-.174.657-4.55 2.721-10.166 6.885-14.479-.236.026-.473.057-.709.088-4.087 4.374-6.063 10.011-6.648 14.56v.005Z" fill="url(#j)"/><path style="mix-blend-mode:multiply" opacity=".4" d="M27.963.071c-8.235.56-15.463 4.395-20.51 10.14l-.113.128c.98.976 4.194 2.896 5.493 3.697A23.43 23.43 0 0 1 22.24 7.87c.252-.329.518-.652.796-.965 3.388-3.825 8.014-5.843 13.384-5.843.596 0 1.813.098 1.838.098A29.793 29.793 0 0 0 27.964.07Z" fill="url(#k)"/><path style="mix-blend-mode:multiply" opacity=".4" d="M31.588 53.399c-6.381.436-12.347-1.74-16.855-5.611a17.994 17.994 0 0 1-1.263-.211c-5.006-1.022-9.072-4.02-11.752-8.666a17.608 17.608 0 0 1-.806-1.582c3.466 13.816 16.409 23.602 31.118 22.6.067-1.514-.38-5.03-.447-6.53h.005Z" fill="url(#l)"/><path style="mix-blend-mode:multiply" opacity=".4" d="M59.924 27.965c-.924-.093-5.422.262-6.53.446.138 2.034.01 4.026-.355 5.946.154.38.303.77.436 1.165 1.618 4.847 1.053 9.863-1.627 14.514a17.779 17.779 0 0 1-.965 1.49s.015-.011.02-.021c6.095-5.93 9.642-14.391 9.021-23.535v-.005Z" fill="url(#m)"/><path style="mix-blend-mode:multiply" opacity=".5" d="M36.728 7.803c.657.067 1.36.231 1.992.442.03.01.062.02.087.025a23.587 23.587 0 0 1 6.998 4.426s.01.005.015.01c.986-1.124 2.88-2.361 2.88-2.361s-2.9-2.968-7.341-3.892c-3.106-.647-10.114-1.268-14.535 6.253l.041-.04c.329-.494.673-.976 1.068-1.418 2.141-2.418 5.324-3.8 8.795-3.445Z" fill="url(#n)"/><path style="mix-blend-mode:multiply" opacity=".5" d="M45.856 46.925a9.537 9.537 0 0 1-1.376 1.504c-.02.02-.046.041-.067.062a23.606 23.606 0 0 1-7.331 3.845c-.005 0-.01 0-.016.005.483 1.417.606 3.676.606 3.676s4.02-1.026 7.04-4.41c2.11-2.367 6.155-8.127 1.852-15.715 0 0 .006.025.016.056.267.53.508 1.073.693 1.633 1.022 3.06.631 6.51-1.412 9.339l-.005.005Z" fill="url(#o)"/><path style="mix-blend-mode:multiply" opacity=".5" d="M7.413 35.276a9.531 9.531 0 0 1-.617-1.946c-.005-.03-.015-.062-.02-.093-.38-2.767-.257-5.57.334-8.27v-.016c-1.469-.288-3.486-1.314-3.486-1.314s-1.12 4 .303 8.302c.996 3.013 3.958 9.395 12.68 9.462 0 0-.025-.006-.056-.016-.59-.036-1.18-.097-1.76-.215-3.163-.647-5.951-2.711-7.384-5.894h.006Z" fill="url(#p)"/><path style="mix-blend-mode:multiply" opacity=".6" d="M35.465 19.52c.241.03.477.04.708.035 0 0-.159-3.116-.539-4.718-.385-1.597-.95-2.66-1.566-3.26-.446-.431-1.848-.966-2.936 2.33a5.005 5.005 0 0 0 4.333 5.607v.005Z" fill="url(#q)"/><path style="mix-blend-mode:multiply" opacity=".5" d="M18.19 30.506a5.221 5.221 0 0 0-.324-.631s-2.624 1.694-3.815 2.823c-1.191 1.13-1.828 2.152-2.038 2.988-.149.601.087 2.08 3.486 1.376a5.013 5.013 0 0 0 2.69-6.556Z" fill="url(#r)"/><path style="mix-blend-mode:multiply" opacity=".6" d="M36.338 39.968c-.144.19-.272.396-.385.6 0 0 2.778 1.423 4.354 1.89 1.576.468 2.777.509 3.604.272.596-.169 1.756-1.119-.55-3.706a5.01 5.01 0 0 0-7.023.95v-.006Z" fill="url(#s)"/><path style="mix-blend-mode:multiply" opacity=".3" d="M35.26 27.046c-.63 2.095-1.514 4-2.597 5.678-.057.087-.113.175-.175.267 0 0 0 .005-.005.01a21.149 21.149 0 0 1-2.567 3.035c.688.729 1.427 1.437 2.244 2.11a23.507 23.507 0 0 0 2.936 1.971 26.798 26.798 0 0 0 5.068-7.372 26.08 26.08 0 0 0 1.19-2.84c-1.057-.775-2.125-1.396-3.11-1.817a22.816 22.816 0 0 0-2.989-1.042h.006Z" fill="url(#t)"/><path style="mix-blend-mode:multiply" opacity=".3" d="M14.734 47.788c5.688.775 11.161-1.032 14.889-3.245a44.311 44.311 0 0 1-1.356-.986 25.583 25.583 0 0 1-3.88-3.67c-2.804 1.226-6.336 1.945-9.607 1.277-3.162-.646-5.95-2.71-7.383-5.893a9.533 9.533 0 0 1-.616-1.946c.827 5.801 3.753 10.863 7.948 14.462h.005Z" fill="url(#u)"/><path style="mix-blend-mode:multiply" opacity=".3" d="M29.915 36.035a22.32 22.32 0 0 1-3.614-5.087c-.046-.098-.098-.185-.144-.283v-.01a21.503 21.503 0 0 1-1.345-3.743c-.976.231-1.956.519-2.942.889a23.8 23.8 0 0 0-3.173 1.55c.914 3.168 2.264 5.843 3.84 8.081.57.847 1.187 1.663 1.86 2.449 1.2-.524 2.274-1.145 3.13-1.787a23.401 23.401 0 0 0 2.393-2.064l-.005.005Z" fill="url(#v)"/><path style="mix-blend-mode:multiply" opacity=".3" d="M22.22 7.89c-3.517 4.539-4.688 10.181-4.636 14.514a40.21 40.21 0 0 1 1.535-.682 25.254 25.254 0 0 1 5.113-1.525c.34-3.04 1.484-6.459 3.697-8.954 2.14-2.418 5.324-3.8 8.795-3.445.657.067 1.36.231 1.992.442.03.01.061.02.087.025A23.262 23.262 0 0 0 28.4 6.597c-2.156.149-4.22.585-6.171 1.273-.005.005-.01.015-.015.02h.005Z" fill="url(#w)"/><path style="mix-blend-mode:multiply" opacity=".3" d="M53.034 34.316c-2.176-5.314-6.479-9.155-10.258-11.275-.046.54-.102 1.094-.18 1.674a25.417 25.417 0 0 1-1.237 5.19c2.465 1.818 4.857 4.513 5.915 7.681 1.021 3.06.631 6.51-1.412 9.339a9.537 9.537 0 0 1-1.376 1.504l-.02.02c4.405-3.46 7.52-8.45 8.589-14.097 0-.01-.01-.021-.01-.031l-.01-.005Z" fill="url(#x)"/><path style="mix-blend-mode:multiply" opacity=".3" d="M24.216 23.811a23.07 23.07 0 0 0 .59 3.101c2.131-.503 4.22-.688 6.218-.59l.318.015h.01c1.253.103 2.557.334 3.908.704.287-.96.529-1.957.703-2.994.19-1.293.246-2.49.241-3.532-3.198-.79-6.186-.95-8.912-.703a25.72 25.72 0 0 0-3.055.385c-.144 1.304-.15 2.541-.016 3.61l-.005.004Z" fill="url(#y)"/><path d="m150.427 22.281-3.861 10.746h.031l3.851-10.684-.021-.062ZM81.892 22.281l-3.86 10.746h.015l3.86-10.71-.015-.036ZM82.857 24.966l2.895 8.061h-5.806l-1.464 4.066h8.749l2.48 6.895h5.55L85.147 18.616l-2.29 6.35Z" fill="#fff"/><path d="m78.031 33.027 3.861-10.746.016.036 1.627-4.518h-4.261L68.867 43.99h5.227l3.953-10.962h-.016ZM112.077 30.496c-1.263-.745-2.942-1.443-5.032-2.085-1.196-.39-2.131-.75-2.808-1.083-.678-.334-1.15-.713-1.412-1.134-.262-.427-.395-.925-.395-1.5 0-1.011.39-1.791 1.17-2.34.781-.55 1.874-.827 3.276-.827 1.15 0 2.346.174 3.599.518 1.252.344 2.361.816 3.327 1.412l.724-4.236c-.986-.595-2.188-1.073-3.599-1.432a17.292 17.292 0 0 0-4.221-.534c-1.904 0-3.563.308-4.959.93-1.402.62-2.485 1.504-3.255 2.654s-1.155 2.505-1.155 4.066c0 1.335.256 2.485.775 3.46.518.976 1.36 1.823 2.531 2.531 1.17.714 2.711 1.356 4.615 1.93 1.376.417 2.444.807 3.204 1.171.76.365 1.289.776 1.587 1.222.297.447.446.98.446 1.602 0 1.078-.441 1.925-1.324 2.531-.883.606-2.11.914-3.671.914-1.356 0-2.773-.21-4.256-.637-1.484-.426-2.773-.97-3.877-1.637l-.482 4.374c.641.436 1.448.816 2.413 1.135.965.323 2.002.575 3.116.76 1.114.184 2.223.277 3.327.277 3.101 0 5.535-.709 7.306-2.12 1.766-1.413 2.654-3.369 2.654-5.874 0-1.33-.287-2.485-.862-3.46-.575-.976-1.494-1.839-2.757-2.583l-.005-.005ZM139.57 17.8h-22.154v4.27h22.154V17.8ZM131.128 23.858h-5.273v20.125h5.273V23.858ZM146.567 33.027l3.861-10.746.02.062 1.638-4.544h-4.282l-10.402 26.19h5.237l2.48-6.896h.01l1.469-4.066h-.031ZM151.397 24.987l2.886 8.04h-5.787l-1.463 4.066h8.733l2.48 6.895h5.55l-10.109-25.352-2.29 6.351ZM180.846 33.376a8.995 8.995 0 0 0 3.101-2.875c.806-1.207 1.207-2.613 1.207-4.22 0-1.746-.39-3.25-1.171-4.513-.78-1.263-1.894-2.239-3.342-2.927-1.448-.688-3.168-1.032-5.17-1.032h-1.833v3.964h1.14c3.491 0 5.236 1.494 5.236 4.477 0 2.983-1.802 4.477-5.411 4.477h-.97v3.963h2.69l5.514 9.303h5.894l-6.89-10.612.005-.005ZM171.857 17.8h-4.996v26.183h4.996V17.8Z" fill="#fff"/><defs><linearGradient id="a" x1="9.527" y1="50.473" x2="47.776" y2="12.219" gradientUnits="userSpaceOnUse"><stop stop-color="#E6007A"/><stop offset=".21" stop-color="#703AC2"/><stop offset=".46" stop-color="#0070EB"/><stop offset=".77" stop-color="#0297FB"/><stop offset="1" stop-color="#0AE2FF"/></linearGradient><linearGradient id="d" x1="11.729" y1="43.963" x2="18.127" y2="43.875" gradientUnits="userSpaceOnUse"><stop stop-color="#fff" stop-opacity="0"/><stop offset="1" stop-color="#fff"/></linearGradient><linearGradient id="g" x1="51.227" y1="38.832" x2="47.952" y2="33.336" gradientUnits="userSpaceOnUse"><stop stop-color="#fff" stop-opacity="0"/><stop offset="1" stop-color="#fff"/></linearGradient><linearGradient id="j" x1="27.032" y1="7.193" x2="23.913" y2="12.78" gradientUnits="userSpaceOnUse"><stop stop-color="#fff" stop-opacity="0"/><stop offset="1" stop-color="#fff"/></linearGradient><linearGradient id="k" x1="28.426" y1="4.353" x2="18.65" y2="7.197" gradientUnits="userSpaceOnUse"><stop stop-color="#231F20"/><stop offset="1" stop-color="#fff"/></linearGradient><linearGradient id="l" x1="9.958" y1="41.627" x2="18.132" y2="50.159" gradientUnits="userSpaceOnUse"><stop stop-color="#231F20"/><stop offset="1" stop-color="#fff"/></linearGradient><linearGradient id="m" x1="53.825" y1="40.343" x2="56.669" y2="31.697" gradientUnits="userSpaceOnUse"><stop stop-color="#231F20"/><stop offset="1" stop-color="#fff"/></linearGradient><linearGradient id="n" x1="32.877" y1="9.302" x2="45.98" y2="12.301" gradientUnits="userSpaceOnUse"><stop stop-color="#231F20"/><stop offset="1" stop-color="#fff"/></linearGradient><linearGradient id="o" x1="46.486" y1="42.84" x2="37.331" y2="52.69" gradientUnits="userSpaceOnUse"><stop stop-color="#231F20"/><stop offset="1" stop-color="#fff"/></linearGradient><linearGradient id="p" x1="10.633" y1="37.861" x2="6.683" y2="25.012" gradientUnits="userSpaceOnUse"><stop stop-color="#231F20"/><stop offset="1" stop-color="#fff"/></linearGradient><linearGradient id="q" x1="35.742" y1="14.133" x2="31.599" y2="18.282" gradientUnits="userSpaceOnUse"><stop stop-color="#231F20"/><stop offset="1" stop-color="#fff"/></linearGradient><linearGradient id="r" x1="13.389" y1="32.951" x2="19.051" y2="34.472" gradientUnits="userSpaceOnUse"><stop stop-color="#231F20"/><stop offset="1" stop-color="#fff"/></linearGradient><linearGradient id="s" x1="40.861" y1="42.903" x2="39.344" y2="37.243" gradientUnits="userSpaceOnUse"><stop stop-color="#231F20"/><stop offset="1" stop-color="#fff"/></linearGradient><linearGradient id="t" x1="32.242" y1="37.868" x2="34.732" y2="34.434" gradientUnits="userSpaceOnUse"><stop stop-color="#231F20"/><stop offset="1" stop-color="#fff"/></linearGradient><linearGradient id="u" x1="23.678" y1="36.38" x2="18.703" y2="38.752" gradientUnits="userSpaceOnUse"><stop stop-color="#231F20"/><stop offset="1" stop-color="#fff"/></linearGradient><linearGradient id="v" x1="21.87" y1="28.098" x2="23.41" y2="31.297" gradientUnits="userSpaceOnUse"><stop stop-color="#231F20"/><stop offset="1" stop-color="#fff"/></linearGradient><linearGradient id="w" x1="29.033" y1="18.22" x2="27.97" y2="14.549" gradientUnits="userSpaceOnUse"><stop stop-color="#231F20"/><stop offset="1" stop-color="#fff"/></linearGradient><linearGradient id="x" x1="40.523" y1="35.034" x2="43.603" y2="35.743" gradientUnits="userSpaceOnUse"><stop stop-color="#231F20"/><stop offset="1" stop-color="#fff"/></linearGradient><linearGradient id="y" x1="35.691" y1="24.628" x2="31.784" y2="23.919" gradientUnits="userSpaceOnUse"><stop stop-color="#231F20"/><stop offset="1" stop-color="#fff"/></linearGradient><radialGradient id="b" cx="0" cy="0" r="1" gradientUnits="userSpaceOnUse" gradientTransform="translate(38.55 23.924) scale(11.408)"><stop stop-color="#fff"/><stop offset="1" stop-color="#fff" stop-opacity="0"/></radialGradient><radialGradient id="c" cx="0" cy="0" r="1" gradientUnits="userSpaceOnUse" gradientTransform="matrix(6.63838 0 0 6.63839 21.69 45.087)"><stop stop-color="#fff"/><stop offset="1" stop-color="#fff" stop-opacity="0"/></radialGradient><radialGradient id="e" cx="0" cy="0" r="1" gradientUnits="userSpaceOnUse" gradientTransform="rotate(-120 17.63 6.906) scale(11.408)"><stop stop-color="#fff"/><stop offset="1" stop-color="#fff" stop-opacity="0"/></radialGradient><radialGradient id="f" cx="0" cy="0" r="1" gradientUnits="userSpaceOnUse" gradientTransform="rotate(-120 32.17 1.192) scale(6.63838)"><stop stop-color="#fff"/><stop offset="1" stop-color="#fff" stop-opacity="0"/></radialGradient><radialGradient id="h" cx="0" cy="0" r="1" gradientUnits="userSpaceOnUse" gradientTransform="rotate(120 3.699 28.743) scale(11.408)"><stop stop-color="#fff"/><stop offset="1" stop-color="#fff" stop-opacity="0"/></radialGradient><radialGradient id="i" cx="0" cy="0" r="1" gradientUnits="userSpaceOnUse" gradientTransform="rotate(120 6.136 13.716) scale(6.63838)"><stop stop-color="#fff"/><stop offset="1" stop-color="#fff" stop-opacity="0"/></radialGradient></defs></svg>