<?xml version="1.0" encoding="utf-8"?>
<!-- Generator: Adobe Illustrator 27.6.1, SVG Export Plug-In . SVG Version: 6.00 Build 0)  -->
<svg version="1.1" id="Layer_1" xmlns="http://www.w3.org/2000/svg" xmlns:xlink="http://www.w3.org/1999/xlink" x="0px" y="0px"
	 viewBox="0 0 562.6 145.8" style="enable-background:new 0 0 562.6 145.8;" xml:space="preserve">
<style type="text/css">
	.st0{fill:#1B1B1D;}
	.st1{fill-rule:evenodd;clip-rule:evenodd;fill:#1B1B1D;}
	.st2{fill:#FFFFFF;}
</style>
<g>
	<path class="st0" d="M562.6,29.9v75.4c0,11.9-7.3,22.1-17.7,26.5c-1,0.4-2.2-0.4-2.2-1.5c0-0.2,0-0.3,0-0.4
		c-2.1-12.3-17.1-17.6-30.6-17c-9.1,0.4-19.1,4-24.6,10c-0.6,0.7-1.6,0.7-2.3,0.1c-4.7-4.5-12.4-7.1-19.6-7.3
		c-8.3-0.2-17.6,2.6-22.4,8.2c-0.6,0.7-1.6,0.8-2.3,0.2c-3.5-2.9-8.6-4.7-13.4-4.9c-12.5-0.6-19.7,7.3-19.5,12.9c0,0.1,0,0.2,0,0.3
		c0,0.9-0.7,1.6-1.6,1.6h-376C13.7,134,0,120.4,0,103.7V29.9C0,13.2,13.7-0.5,30.4-0.5h501.8C548.9-0.5,562.6,13.2,562.6,29.9z"/>
	<g>
		<path class="st1" d="M533.5,132.3c0.3,7-8.5,13-19.5,13.4c-11.1,0.5-20.3-4.8-20.6-11.8c-0.3-8,10.3-13,19.5-13.4
			C522.1,120.2,533.2,124.3,533.5,132.3z"/>
		<path class="st1" d="M481.1,133.5c-0.3,5.7-7.9,10.2-17,10s-16.2-5-15.9-10.7c0.4-6.6,9.4-10.1,17-10
			C473,123,481.5,127,481.1,133.5z"/>
		<path class="st1" d="M439.2,133.7c-0.3,4.3-6.2,7.7-13,7.4c-6.8-0.2-12.1-3.9-11.9-8.2c-0.1-3.2,4.7-7.8,13-7.6
			C433.1,125.6,439.6,128.7,439.2,133.7z"/>
	</g>
</g>
<g>
	<g>
		<path class="st2" d="M165.7,79.5L165.7,79.5l-11.9,0.1l0,0v24.6l0,0h-12.9l0,0V25l0,0h12.9l0,0v41.7l0,0l12.2-0.1l0,0l14.4-18.5
			l0,0h15.5l0,0L176.6,73l0,0v0.1l0,0l20.6,31.1l0,0h-15.2l0,0L165.7,79.5z"/>
	</g>
	<g>
		<path class="st2" d="M206.2,57.7c0-6.2,3.4-9.6,9.6-9.6h31.3l0,0v11.3l0,0h-28l0,0v44.8l0,0h-12.9l0,0V57.7z"/>
	</g>
	<g>
		<path class="st2" d="M312.3,79.4h-46c0.4,9.8,9.3,16.4,21.3,16.4c7.7,0,16.4-2.5,22.6-6.8h0.1v10.6c-5.5,4.4-14,6.9-22.9,6.9
			c-20.9,0-34.3-11.9-34.3-30.3c0-17.7,12.4-30.3,29.7-30.3c17.4,0,29.5,12.4,29.5,30.6V79.4z M298.9,70.4
			c-1.5-8.3-7.5-13.8-16.3-13.8c-8.4,0-14.3,5.3-16,13.8H298.9z"/>
	</g>
	<g>
		<path class="st2" d="M350.5,57.1c-7.3-0.1-11.2,1.8-11.3,4.7c-0.1,2,1.5,4.1,10.8,8.7c7.8,3.5,20.1,8.1,20.1,20
			c0,10.6-9.7,16-21.9,16c-8.3,0-18.5-2.4-23.8-5.2V90.1l0,0l0.1-0.1c5,2.8,15.5,5.4,21.8,5.5c5.4,0.1,9.7-1.4,9.8-5.2
			c0.1-5.1-7.6-7.7-12.2-9.8c-10-4.7-18.7-9.8-18.6-19.3c0-9.7,9.4-15.3,22.8-15.3c6.6,0,16.2,1.8,20.6,3.9v11.1l0,0l-0.1,0.1
			C363.8,58.8,355,57.2,350.5,57.1L350.5,57.1z"/>
	</g>
	<g>
		<path class="st2" d="M391.2,48.1L391.2,48.1V25l0,0h12.9l0,0v6.1l0,0v17l0,0h17.6l0,0v11.3l0,0h-17.6l0,0v33.4l0,0h17.6l0,0v11.3
			l0,0h-18.3c-7.9,0-12.2-4.4-12.2-12.2V59.5l0,0h-12.1l0,0V48.1l0,0L391.2,48.1z"/>
	</g>
</g>
</svg>
