<?xml version="1.0" encoding="utf-8"?>
<!-- Generator: Adobe Illustrator 27.1.1, SVG Export Plug-In . SVG Version: 6.00 Build 0)  -->
<svg version="1.1" id="Ebene_1" xmlns="http://www.w3.org/2000/svg" xmlns:xlink="http://www.w3.org/1999/xlink" x="0px" y="0px"
	 viewBox="0 0 595.3 162.4" style="enable-background:new 0 0 595.3 162.4;" xml:space="preserve">
<style type="text/css">
	.st0{fill:#DAE9EB;}
</style>
<path class="st0" d="M225.9,72.8c0.5,3.4,2.2,6.3,5,8.8s6.1,3.7,9.9,3.7c2.8,0,5.4-0.6,7.8-1.9c2.4-1.3,4.1-2.5,5.1-3.7l1.5-1.9
	l6.4,6.5c-0.2,0.3-0.5,0.6-0.9,1.1c-0.4,0.5-1.3,1.3-2.6,2.4c-1.3,1.1-2.7,2.1-4.2,3c-1.5,0.9-3.4,1.7-5.8,2.4
	c-2.4,0.7-4.8,1.1-7.3,1.1c-6.7,0-12.5-2.5-17.4-7.5c-4.9-5-7.3-11-7.3-18.1c0-7,2.4-12.6,7.1-17.4c4.8-4.8,10.5-7.2,17.1-7.2
	c6.7,0,12.2,2.2,16.6,6.7c4.4,4.5,6.7,10.1,6.7,16.9l-0.5,5L225.9,72.8L225.9,72.8z M231.2,55.9c-2.4,2.1-4.1,4.9-4.9,8.3h27.5
	c-0.6-3.4-2.1-6.2-4.5-8.3c-2.4-2.1-5.4-3.2-9.1-3.2C236.6,52.7,233.7,53.8,231.2,55.9L231.2,55.9z"/>
<path class="st0" d="M282.8,50.1l0.6-0.6c0.3-0.3,0.9-0.8,1.8-1.4c0.9-0.7,1.9-1.3,3-1.8c1.1-0.5,2.4-1,4-1.5
	c1.6-0.4,3.3-0.7,4.9-0.7c5.7,0,10.4,1.9,14,5.7c3.6,3.8,5.3,9,5.3,15.4v28.1h-9.9V65.3c0-3.5-1.1-6.3-3.3-8.6
	c-2.2-2.3-4.9-3.4-8.1-3.4c-3.8,0-6.8,1.2-9,3.7c-2.2,2.5-3.4,5.9-3.4,10.4v26.1h-9.9V45.1h9.9V50.1z"/>
<path class="st0" d="M354,44.8c1.7,0.4,3.1,1,4.3,1.6c1.2,0.6,2.2,1.3,3.2,2c0.9,0.7,1.6,1.2,2,1.6l0.7,0.7V28.1h9.9v65.3h-9.9v-5.5
	c-0.4,0.5-1.1,1.1-1.9,1.8c-0.8,0.7-2.6,1.7-5.2,2.9c-2.7,1.2-5.4,1.8-8.2,1.8c-6.3,0-11.7-2.4-16.4-7.3c-4.6-4.9-6.9-10.8-6.9-17.8
	c0-7,2.3-12.9,6.9-17.8c4.6-4.9,10.1-7.3,16.4-7.3C350.6,44.1,352.3,44.3,354,44.8L354,44.8z M359.8,80.6c2.9-3.1,4.3-6.9,4.3-11.4
	c0-4.4-1.5-8.2-4.3-11.4c-2.9-3.1-6.2-4.7-10-4.7s-7.1,1.6-10,4.7c-2.9,3.1-4.4,6.9-4.4,11.4c0,4.4,1.5,8.2,4.4,11.4
	c2.9,3.1,6.3,4.7,10,4.7C353.5,85.3,356.9,83.7,359.8,80.6z"/>
<path class="st0" d="M452.8,93.4h-9.9V28.1h9.9V93.4z"/>
<path class="st0" d="M582.8,65.3c0-4-0.9-7-2.7-9c-1.8-2-4.2-3.1-7.2-3.1s-5.7,1.2-7.8,3.8c-2.1,2.5-3.1,5.9-3.1,10.3v26.1h-9.9
	V65.3c0-4-0.9-7-2.7-9c-1.8-2-4.2-3.1-7.2-3.1c-3,0-5.7,1.2-7.8,3.8c-2.1,2.5-3.1,5.9-3.1,10.3v26.1h-9.9V45.1h9.9v5
	c0.4-0.5,0.9-1,1.6-1.7c0.7-0.7,2.1-1.6,4.4-2.7c2.2-1.1,4.5-1.7,6.9-1.7c1.9,0,3.7,0.3,5.4,0.8c1.7,0.5,3.1,1.2,4.1,2
	c1,0.8,1.9,1.6,2.7,2.4c0.8,0.8,1.3,1.5,1.6,2l0.5,0.8c0.1-0.2,0.3-0.5,0.7-0.8c0.3-0.4,1-1,2-2c1-0.9,2.1-1.8,3.3-2.5
	c1.2-0.7,2.7-1.3,4.6-1.9c1.9-0.6,3.8-0.9,5.9-0.9c5.5,0,9.9,1.8,13.1,5.4c3.2,3.6,4.8,8.8,4.8,15.7v28.1h-9.9L582.8,65.3
	L582.8,65.3z"/>
<path class="st0" d="M408.5,94.6c-12.1,0-21.9-10-21.9-22.2V45.2h10v27.3c0,6.6,5.3,12.7,11.9,12.7c6.6,0,11.9-6,11.9-12.7V45.2h10
	v27.3C430.4,84.7,420.5,94.6,408.5,94.6z"/>
<path class="st0" d="M487.2,94.6c-12.1,0-21.9-10-21.9-22.2V45.2h10v27.3c0,6.6,5.3,12.7,11.9,12.7c6.6,0,11.9-6,11.9-12.7V45.2h10
	v27.3C509.1,84.7,499.3,94.6,487.2,94.6z"/>
<path class="st0" d="M170.8,73.3v20h-10.9V28.1h27.7c6.6,0,12.1,2.2,16.6,6.6c4.4,4.3,6.6,9.5,6.7,15.7c0.1,6.1-2.3,12.1-6.7,16.4
	c-4.4,4.3-10,6.6-16.6,6.6h-11.2V68c0-2.6,2.1-4.7,4.7-4.7h6.5c3.4,0,6.3-1.2,8.8-3.6c2.4-2.4,3.6-5.4,3.6-8.9c0-3.6-1.2-6.5-3.6-9
	c-2.4-2.4-5.3-3.6-8.8-3.6h-16.8V73.3L170.8,73.3z"/>
<path class="st0" d="M61.1,0C28.6-0.6,0.8,26.4,0,59.3c-0.5,22.4,10.8,42.1,28.1,53.1c0.8,0.5,1.9,0.2,2.4-0.7L44,84.5
	c2-4,1.7-8.8-0.7-12.6c-2.1-3.2-3.2-7.1-3.2-11.2c0.1-10.6,8.4-19.5,18.9-20.1C71,40,80.9,50.2,80,62.5c-0.7,9.9-8.6,17.8-18.3,18.6
	c-0.1,0-0.1,0-0.2,0c-4.4,0.3-8.4,2.9-10.4,6.9l-13.5,27.3c-0.4,0.9,0,2,0.9,2.3c6.8,2.7,14.2,4.1,21.9,4
	c32.9-0.2,59.6-27.5,59.7-60.8C120.1,27.7,93.8,0.6,61.1,0z"/>
<path class="st0" d="M20,162.4c11.1,0,20-9.1,20-20.3c0-11.2-9-20.3-20-20.3s-20,9.1-20,20.3C0,153.3,9,162.4,20,162.4z"/>
</svg>
