<svg viewBox="0 0 214 58" xmlns="http://www.w3.org/2000/svg"><path d="m36.0759 12.5612c-4.8093 1.3701-11.9058 4.2358-18.4062 10.1099-6.5326 6.1482-2.0977 11.6314-2.0518 11.6858 0 0-2.3941-4.4153 3.3962-9.8554.0735-.0643 7.465-6.4478 18.2147-9.5099 1.3707-.3905 2.7562-.7155 4.1184-.9659l.0946-.0173 1.7306-2.8049-.4248.03c-.0269.0023-2.7277.2041-6.6717 1.3277z" fill="#5928b1"/><path d="m43.4743 4.70028c-1.1073-.932-2.2134-1.66954-2.2244-1.67689l-.0668-.0435-.0785.00927c-.0298.00384-3.0139.37101-7.1237 1.54192-7.3532 2.09428-17.2423 6.38962-22.597 14.95322-2.54354 3.8901-.4964 8.5447-.4964 8.5447l-.0617-1.1847c-.0067-.1257-.358-12.6747 25.3649-20.00305 2.2517-.64159 4.6698-1.23265 7.1886-1.75845l.441-.09179z" fill="#764bc4"/><path d="m45.0292 6.33881c-.0332.00351-3.4172.36365-8.1316 1.70631-4.9894 1.42166-12.2546 4.17828-18.528 9.23548-3.6992 2.8738-6.0405 6.3408-6.4238 9.5126-.188 1.5479 1.6261 4.8336 1.6261 4.8336l-.3814-1.1671c-.0174-.0531-1.6385-5.369 6.5763-11.537 4.603-3.4568 9.4-5.8226 15.0951-7.4448 2.936-.8364 5.7492-1.3858 8.859-1.96698l.1095-.02047.0475-.10139c.2349-.50373 1.3552-2.70963 1.3669-2.7317l.1817-.35917z" fill="#764bc4"/><path d="m9.07686 22.4783c.3099-4.9808 4.08194-9.5829 11.21984-13.68286 3.7616-2.34854 7.9663-4.19367 12.4971-5.48452 3.8427-1.09479 7.0908-1.42166 7.0908-1.42166l-2.6122-1.88926c-.024.00287851-2.4317.298725-5.8723 1.27902-22.06209 6.28506-24.79614 17.11398-24.55208 21.46698.42734 7.5893 9.36418 12.9865 9.36418 12.9865s-7.59656-5.8328-7.13534-13.2542z" fill="#bba5e1"/><path d="m9.35057 45.4388c4.80933-1.3701 11.90583-4.2358 18.40623-10.1099 6.5326-6.1482 2.0978-11.6314 2.0519-11.6858 0 0 2.394 4.4153-3.3963 9.8554-.0735.0643-7.4649 6.4478-18.21471 9.5099-1.37067.3905-2.75622.7155-4.11834.9659l-.09465.0173-1.73058 2.8049.42481-.03c.0269-.0023 2.72772-.2041 6.67164-1.3277z" fill="#5928b1"/><path d="m1.95225 53.2997c1.1073.932 2.21333 1.6696 2.22441 1.6769l.06679.0435.07851-.0093c.02975-.0038 3.01388-.371 7.12364-1.5419 7.3532-2.0943 17.2423-6.3896 22.5971-14.9532 2.5435-3.8901.4963-8.5447.4963-8.5447l.0617 1.1847c.0067.1257.3581 12.6747-25.36491 20.0031-2.25163.6415-4.66977 1.2326-7.18857 1.7584l-.44096.0918z" fill="#764bc4"/><path d="m.397293 51.6612c.033238-.0035 3.417177-.3636 8.131577-1.7063 4.98953-1.4217 12.25463-4.1783 18.52803-9.2355 3.6993-2.8737 6.0405-6.3407 6.4238-9.5125.188-1.548-1.6261-4.8337-1.6261-4.8337l.3814 1.1671c.0174.0531 1.6385 5.3691-6.5763 11.5371-4.603 3.4567-9.4 5.8225-15.0951 7.4447-2.936.8364-5.7492 1.3859-8.859 1.967l-.10953.0205-.04748.1014c-.23488.5037-1.355156 2.7096-1.366868 2.7317l-.18169987.3591z" fill="#764bc4"/><path d="m36.3497 35.5217c-.3099 4.9808-4.082 9.5829-11.2199 13.6829-3.7616 2.3485-7.9663 4.1936-12.4971 5.4845-3.84264 1.0948-7.09078 1.4216-7.09078 1.4216l2.61219 1.8893c.02405-.0029 2.43179-.2987 5.87229-1.279 22.0621-6.2851 24.7962-17.114 24.5521-21.467-.4273-7.5893-9.3642-12.9865-9.3642-12.9865s7.5966 5.8328 7.1354 13.2542z" fill="#bba5e1"/><path d="m83.3874 34.8038c0 .9189-.118 1.7485-.354 2.4887-.2359.7351-.5463 1.3834-.9311 1.9449-.3847.5616-.8361 1.0389-1.3543 1.432-.5129.3981-1.0465.7223-1.6005.9724-.554.2502-1.1157.4365-1.6852.559-.5745.1174-1.1132.1761-1.6159.1761h-18.0907v-4.6633h18.0907c.9029 0 1.6031-.2654 2.1007-.7963.4976-.5258.7464-1.2303.7464-2.1135 0-.4288-.0667-.8244-.2001-1.1869-.1282-.3573-.3154-.6687-.5617-.9342-.2462-.2603-.5489-.462-.908-.6049-.3539-.1429-.7464-.2144-1.1773-.2144h-10.7882c-.7541 0-1.5698-.1353-2.447-.4058-.8772-.2706-1.6929-.7045-2.447-1.3018-.7489-.5973-1.3748-1.3809-1.8775-2.3508-.4976-.9699-.7464-2.1543-.7464-3.553s.2488-2.5805.7464-3.5454c.5027-.9648 1.1286-1.7484 1.8775-2.3508.7541-.6023 1.5698-1.0388 2.447-1.3094.8772-.2705 1.6929-.4058 2.447-.4058h15.9669v4.6633h-15.9669c-.8875 0-1.58.2706-2.0776.8117-.5028.536-.7541 1.2481-.7541 2.1364 0 .8985.2513 1.608.7541 2.1287.4976.5156 1.1901.7734 2.0776.7734h10.7882.0385c.5027.0154 1.0362.0843 1.6005.2068.5643.1276 1.126.3241 1.6852.5896.5592.2604 1.0927.5922 1.6005.9955.5028.3981.9491.878 1.3389 1.4395.395.5667.7054 1.2125.9311 1.9373.2309.73.3463 1.557.3463 2.481zm8.6183-18.1632v10.5135h16.4673v-10.5135h4.686v25.7363h-4.686v-10.5135h-16.4673v10.5135h-4.6862v-25.7363zm31.3643 0v25.7363h-4.694v-25.7363zm31.287 10.7662v4.2039c0 1.5672-.274 3.0094-.823 4.3264-.544 1.312-1.298 2.4453-2.262 3.3999-.96.9495-2.101 1.6948-3.424 2.2359-1.324.536-2.76.804-4.31.804h-12.658c-.338 0-.651-.0587-.938-.1761-.293-.1225-.544-.2884-.755-.4977-.21-.2093-.374-.4569-.492-.7428-.118-.2858-.177-.5972-.177-.9342v-21.0347c0-.3216.059-.6253.177-.9112.118-.291.282-.5437.492-.7581.211-.2144.462-.3829.755-.5054.287-.1174.6-.1761.938-.1761h12.658c1.55 0 2.986.2706 4.31.8117 1.323.536 2.464 1.2788 3.424 2.2283.964.9546 1.718 2.093 2.262 3.4151.549 1.3222.823 2.7592.823 4.3111zm-4.686 4.2039v-4.2039c0-.9086-.149-1.7382-.446-2.4886-.292-.7555-.711-1.3988-1.254-1.9297-.539-.536-1.185-.9495-1.939-1.2405-.749-.296-1.58-.4441-2.494-.4441h-10.334v16.4097h10.334c.914 0 1.745-.148 2.494-.4441.754-.291 1.4-.7045 1.939-1.2405.543-.5309.962-1.169 1.254-1.9143.297-.7505.446-1.5851.446-2.504zm30.549-4.4566v4.7093h-14.805v-4.7093zm2.108 10.5595v4.6633h-16.913c-.652 0-1.362-.1148-2.132-.3445-.769-.2246-1.48-.5973-2.131-1.118-.657-.5207-1.206-1.1971-1.647-2.0292-.436-.8321-.654-1.8505-.654-3.0553v-16.8385c0-.3216.059-.6253.177-.9112.123-.291.29-.5437.5-.7581.211-.2144.459-.3829.747-.5054.287-.1174.6-.1761.939-.1761h21.114v4.6633h-18.791v14.526c0 .6075.162 1.072.485 1.3937.328.3267.806.49 1.431.49zm30.372-21.073v23.7454c0 .3319-.062.6433-.185.9342-.128.2859-.297.5335-.508.7428-.21.2093-.459.3727-.746.4901-.292.1225-.6.1837-.923.1837-.288 0-.58-.0536-.878-.1608-.292-.1072-.554-.2807-.784-.5207l-17.129-17.8033v18.1249h-4.686v-23.7454c0-.4799.133-.9138.4-1.3017.272-.388.618-.6764 1.039-.8653.446-.1838.902-.2297 1.369-.1379.472.0919.875.3114 1.208.6586l17.137 17.7803v-18.1249z" fill="#5928b1"/></svg>