<?xml version="1.0" encoding="UTF-8"?>
<svg id="Layer_1" data-name="Layer 1" xmlns="http://www.w3.org/2000/svg" viewBox="0 0 562.55 145.79">
  <defs>
    <style>
      .cls-1 {
        fill: #677780;
      }

      .cls-2 {
        fill: #fff;
      }

      .cls-3 {
        fill: #99aab5;
      }

      .cls-4 {
        fill: #66767f;
      }

      .cls-5 {
        fill: #a5503c;
      }

      .cls-6 {
        fill: #ccd6dd;
      }

      .cls-7 {
        fill: #e1e8ed;
      }

      .cls-8, .cls-9 {
        fill: #1b1b1d;
      }

      .cls-10 {
        fill: #a4503c;
      }

      .cls-11 {
        fill: #95b78e;
      }

      .cls-12 {
        fill: #8a4b38;
      }

      .cls-13 {
        fill: #78b158;
      }

      .cls-14 {
        fill: #77b255;
      }

      .cls-15 {
        fill: #4f6f4b;
      }

      .cls-9 {
        fill-rule: evenodd;
      }
    </style>
  </defs>
  <g>
    <path class="cls-8" d="m562.55,30.36v75.44c0,11.89-7.31,22.14-17.66,26.5-1.04.44-2.15-.35-2.21-1.49,0-.15-.02-.3-.05-.44-2.11-12.29-17.08-17.58-30.62-17.02-9.11.38-19.08,3.97-24.58,10-.61.67-1.64.71-2.31.08-4.73-4.46-12.39-7.07-19.56-7.27-8.26-.21-17.55,2.63-22.43,8.21-.59.67-1.58.75-2.27.18-3.54-2.93-8.63-4.67-13.39-4.87-12.52-.56-19.71,7.32-19.48,12.91,0,.11,0,.23,0,.34,0,.89-.72,1.6-1.61,1.6H30.36c-16.7,0-30.36-13.66-30.36-30.36V30.36C0,13.66,13.66,0,30.36,0h501.84c16.7,0,30.36,13.66,30.36,30.36Z"/>
    <g>
      <path class="cls-9" d="m533.52,132.32c.29,6.97-8.45,12.98-19.52,13.44-11.08.46-20.29-4.81-20.58-11.78-.33-8,10.26-13.05,19.54-13.43,9.16-.38,20.23,3.74,20.57,11.77Z"/>
      <path class="cls-9" d="m481.15,133.54c-.32,5.72-7.93,10.17-17,9.96-9.08-.2-16.17-5-15.85-10.71.43-6.62,9.39-10.14,17.01-9.97,7.66.18,16.17,4.23,15.84,10.72Z"/>
      <path class="cls-9" d="m439.18,133.66c-.32,4.34-6.15,7.68-13.04,7.44-6.84-.23-12.14-3.88-11.91-8.16-.13-3.24,4.69-7.84,13.03-7.56,5.81.19,12.33,3.36,11.92,8.29Z"/>
    </g>
  </g>
  <g>
    <path class="cls-5" d="m131.65,56.08l51.83-.21s19.8,33.4-6.03,48.46c-13.57,7.91-39.69,2.16-45.07-2.33-5.39-4.49-17-16.1-.73-45.91Z"/>
    <path class="cls-12" d="m120.22,90.21c-2.09-26.4,17.81-45.71,12.29-33.05-12.66,23.82-4.18,37.88,4.26,43.81,9.35,6.58,68.31,10.31,45.13-43.77l1.96-2.35c9.98,11.8,19.69,45.95-5.53,56.02-21.56,8.61-56.28,3.27-58.11-20.66Z"/>
    <path class="cls-6" d="m183.86,54.85c-1.57,3.3-8.33,6.6-20.92,7.4-9.58.61-26.89-.95-30.42-5.1-5.58-6.55-1.93-12.61,5.42-15.02,5.96-1.93,15.99-2.31,22.27-2.2,7.08.16,10.57.8,10.57.8,0,0,1.99-3.27,9.5-13.2.97.54,1.34,1.66,2.25,2.25.48.32.05.43-13.47,20.87-.32.48.05.8-4.67.91-.8-.43-.16-.48,2.95-5.47,1.45-2.36,3.7-3-10.03-3.06-3.22,0,.05-1.93-3-2.04-4.4-.11-8.8.32-13.09,1.34-3.81.86-3.65,1.5-3.27,2.79.05,1.07-2.25.97-2.2,2.41.11,5.42,42.92,5.47,43.19,0,.05-1.34-2.68-1.77-3.49-2.58.16-1.18.8-2.04,1.82-2.63,7.3,2.95,8.75,7.99,6.6,12.5Z"/>
    <path class="cls-3" d="m168.46,51.23l13.75-21.16s-1.65-1.09-2-2.48c-.16-2.68.86-4.13.86-4.13l2.78-2.1c2.09-.36,3.85-.6,5.3,1.33,0,0,.35.77,9.96-4.43.38-.21,2.09-1.4,2.58-1.02-1.93,2.41-12.04,8.83-12.13,9.55l-4.88,4.24c-11.91,17.65-11.59,18.35-13.25,19.91l-2.95.3Z"/>
    <path class="cls-6" d="m189.56,23.64s-.85-2.33-3.45-2.53l8.96-7.3c2.04-1.77,5.96,1.13,6.6,3.43-.7.7-12.11,6.4-12.11,6.4Z"/>
    <path class="cls-3" d="m181.07,23.46c-.05.11-.16.21-.21.32.05-.11.16-.21.21-.32Z"/>
    <path class="cls-10" d="m184.88,62.25c-.48-.97-.97-1.88-1.4-2.84.48.97.91,1.93,1.4,2.84Z"/>
    <path class="cls-2" d="m136.91,52.92c.04-2.36,3.64.38,13.84.74,21.68.77,25.39-3.69,26.51-1.38,2.74,5.61-40.46,6.71-40.35.64Z"/>
    <path class="cls-14" d="m137.28,49.38c-.21-4.19,29.83-4.83,30.1-3-2.35,3.65-3.28,5.26-3.28,5.26,0,0-2.17.15-4.39.21-.05,0-11.37.97-22.43-2.47Z"/>
    <path class="cls-7" d="m155.85,42.62c-3.76.32-5.07.05-17.73,2.57-1.21-.96-.99-2.09.83-2.52,7.27-1.71,12.29-1.93,15.4-1.99,1.72,0,1.72.82,1.5,1.93Z"/>
    <path class="cls-1" d="m173.77,47.55s1.24-1.83,1.78-2.69c.91.38,1.71.81,2.56,1.29,1.56.91,1.72,2.09-.75,3.17-1.4-.32-2.58-.97-3.59-1.77Z"/>
    <path class="cls-13" d="m173.77,47.55c1.18.59,2.41,1.18,3.59,1.77-3.37,1.15-5.96,1.61-5.96,1.61,0,0,.69-.97,2.36-3.38Z"/>
    <path class="cls-11" d="m149.57,51.63c.75.05,1.5.11,2.25.16-.75-.05-1.5-.11-2.25-.16Z"/>
    <path class="cls-4" d="m167.39,46.37c-6.12-1.02-17.49-1.07-25.33.86-2.58.64-4.78,2.15-4.78,2.15-1.66-1.07-3.17-2.31.43-4.13,2.09-1.07,10.2-2.71,16.25-2.71,9.12,0,15.09.94,15.09.94,0,0-.64,1.45-1.66,2.9Z"/>
    <ellipse class="cls-3" cx="185.02" cy="25.92" rx="5.2" ry="4.77" transform="translate(45.06 149.68) rotate(-49.46)"/>
    <ellipse class="cls-6" cx="184.04" cy="24.78" rx="3.7" ry="3.29" transform="translate(30.03 128.53) rotate(-41.63)"/>
  </g>
  <g>
    <path class="cls-15" d="m236.59,38.21c3.96,0,6.66,2.95,8.35,6.41l4.97,10.2c.84,1.77,2.7,5.82,4.21,5.82.93,0,1.77-2.11,2.19-2.95,2.28-4.64,3.96-9.44,6.49-14.25,2.02-3.88,4.05-5.31,7.59-5.31,4.22,0,7,2.44,7,6.66,0,5.82-4.47,10.62-7.5,15.09-3.88,5.48-9.53,9.27-9.53,15.85,0,3.71.34,7,.34,10.71,0,4.64-2.95,7.08-7.5,7.08-4.3,0-6.58-3.04-6.58-7.5,0-3.29.51-6.07.51-9.44,0-4.64-1.69-6.41-4.22-9.95-2.7-3.63-5.06-6.32-7.92-10.03-2.7-3.54-5.99-6.83-5.99-10.96,0-4.55,3.12-7.42,7.59-7.42Z"/>
    <path class="cls-15" d="m313.14,69.82c-3.88,6.24-16.36,3.96-22.26,5.31-1.26.34-2.02.93-2.02,2.36,0,4.55,4.81,6.58,8.77,6.58,8.85,0,7.59-5.56,12.56-5.56,2.87,0,5.82,2.28,5.82,5.31,0,7.5-11.97,10.96-18.13,10.96-13.57,0-20.99-7.76-20.99-21.25,0-14.25,5.48-24.03,20.74-24.03,8.77,0,17.37,4.72,17.37,13.83,0,2.28-.67,4.55-1.85,6.49Zm-9.78-7.08c0-3.46-4.81-4.21-7.25-4.21-4.21,0-7.08,2.95-7.08,7.08,0,1.77,2.11,1.77,4.64,1.77,3.88,0,9.7-.08,9.7-4.64Z"/>
    <path class="cls-15" d="m320.72,56.34c0-4.05,2.95-6.07,6.83-6.07,5.14,0,6.58,3.46,7.08,7.92,0,.08,0,.51.17.51.08,0,.17-.17.34-.34,1.94-3.88,3.71-7.5,9.1-7.5,4.13,0,6.83,2.7,6.83,6.83,0,2.61-1.01,5.4-3.29,6.74-3.54,2.28-7.67,0-10.88,3.37-1.94,2.02-2.36,3.46-2.36,6.32,0,4.89,1.1,10.29,1.1,12.65,0,4.21-2.02,7-6.24,7-5.06,0-7.67-2.53-7.67-7.67,0-5.48.76-11.04.76-16.52,0-7.08-1.77-8.85-1.77-13.24Z"/>
    <path class="cls-15" d="m369.7,41.92c0,4.64-.93,8.6-1.1,13.32,1.85-3.37,6.83-4.72,10.29-4.72,12.73,0,17.45,9.36,17.45,22.26,0,11.3-5.73,21.08-18.12,21.08-6.58,0-9.02-3.29-10.2-3.29-1.35,0-1.85,3.46-6.49,3.46-5.48,0-6.83-4.72-6.83-8.94,0-6.91.76-10.45.76-21.58,0-8.18-.93-11.38-.93-16.52,0-7.42,1.6-12.56,8.35-12.56,4.38,0,6.83,3.46,6.83,7.5Zm6.66,40.8c5.23,0,7.59-6.32,7.59-10.62,0-7-2.7-11.04-8.85-11.04-5.48,0-7.84,4.89-7.84,9.78,0,5.56,2.78,11.89,9.1,11.89Z"/>
    <path class="cls-15" d="m439.25,61.82c0,2.7-.42,6.07-.42,8.77,0,11.47.93,15.09.93,17.87,0,3.62-3.12,5.31-6.32,5.31-5.48,0-5.56-4.81-7.5-4.81-1.18,0-3.62,4.81-10.2,4.81-10.45,0-15.26-9.44-15.26-18.8,0-16.19,7.92-25.21,22.93-25.21,8.77,0,15.85,3.04,15.85,12.06Zm-20.06,20.74c6.58,0,8.51-8.43,8.51-13.49s-.08-8.6-6.07-8.6c-7.25,0-9.19,7.59-9.19,13.57,0,4.22,1.77,8.51,6.74,8.51Z"/>
  </g>
</svg>