<svg xmlns="http://www.w3.org/2000/svg" width="100%" height="100%" viewBox="0 0 1311.523 235.74">
  <g id="Amplitude-Logo-Green" transform="translate(0 -33.127)">
    <path id="Path_59" data-name="Path 59" d="M3382.475,3817.776s5.891,17.782,9.192,26.526,5.2,14.093,13.441,14.076c3.485-.008,7.124-4.54,11.192-14.076,4.761-12.409,10.175-26.526,10.175-26.526Z" transform="translate(-3335.313 -3668.541)" fill="#4ee59a"></path>
    <path id="Path_60" data-name="Path 60" d="M0,0S5.891,17.782,9.192,26.526,14.4,40.619,22.634,40.6c3.485-.008,7.124-4.541,11.192-14.076C38.587,14.117,44,0,44,0Z" transform="translate(91.162 149.235) rotate(180)" fill="#4ee59a"></path>
    <path id="Path_61" data-name="Path 61" d="M0,0S23.5,43.887,27.016,50.927s9.145,17.147,20.6,17.147S63.766,57.041,66.672,50.927,94.63,0,94.63,0Z" transform="translate(185.794 149.235) rotate(180)" fill="#4ee59a"></path>
    <path id="Path_58" data-name="Path 58" d="M0,0S23.5,43.887,27.016,50.927s9.145,17.147,20.6,17.147S63.766,57.041,66.672,50.927,94.63,0,94.63,0Z" transform="translate(91.164 149.235)" fill="#4ee59a"></path>
    <path id="Path_68" data-name="Path 68" d="M11.875-208.242,67.4-351.677h22.54l55.12,143.435H121.5L88.715-294.712q-.615-1.434-2.356-6.967t-4-12.294q-2.254-6.762-4.1-12.4t-2.459-7.274l4.713-.2q-1.229,3.483-2.971,8.811t-3.688,11.27q-1.947,5.942-3.791,11.167l-3.074,8.709-32.58,85.651ZM36.464-243.9l8.2-21.31h65.16l9.426,21.31Zm128.067,35.654V-315.818h21.31v22.95l-3.893,2.459a34.662,34.662,0,0,1,5.225-10.245,39.508,39.508,0,0,1,8.811-8.708,47.169,47.169,0,0,1,11.27-6.045,35.213,35.213,0,0,1,12.4-2.254,39.794,39.794,0,0,1,16.188,3.074,28.019,28.019,0,0,1,11.475,9.221A40.563,40.563,0,0,1,253.87-290l-3.279-.82,1.434-3.483a34.638,34.638,0,0,1,6.249-8.913,48.881,48.881,0,0,1,9.119-7.479,46.423,46.423,0,0,1,10.86-5.123,36.7,36.7,0,0,1,11.27-1.844q12.09,0,19.979,4.918t11.885,14.958q4,10.04,4,25v64.546h-21.31v-63.316q0-9.221-2.357-15.061a17.433,17.433,0,0,0-7.069-8.708q-4.713-2.869-12.09-2.869A29.5,29.5,0,0,0,271.8-296.25a26.461,26.461,0,0,0-8.708,5.43,24.991,24.991,0,0,0-5.737,8.094,24.694,24.694,0,0,0-2.049,10.143v64.341h-21.31v-63.726a36.693,36.693,0,0,0-2.459-14.241,19.168,19.168,0,0,0-7.173-8.914,20.554,20.554,0,0,0-11.475-3.074,28.691,28.691,0,0,0-10.655,1.946,27.669,27.669,0,0,0-8.606,5.328,23.877,23.877,0,0,0-5.737,7.991,24.19,24.19,0,0,0-2.049,9.938v64.751Zm189.129,45.08V-315.818h21.31v24.589l-3.279-1.844q1.229-6.147,6.967-11.782a45.563,45.563,0,0,1,14.036-9.221,42.722,42.722,0,0,1,17.109-3.586,47.05,47.05,0,0,1,25.818,7.172,50.715,50.715,0,0,1,17.827,19.671q6.557,12.5,6.557,28.687a61.8,61.8,0,0,1-6.455,28.585,50.548,50.548,0,0,1-17.724,19.876,45.84,45.84,0,0,1-25.408,7.274,45.7,45.7,0,0,1-18.237-3.791,49.269,49.269,0,0,1-14.958-9.733q-6.147-5.942-7.582-12.294l5.328-2.869v71.922Zm53.276-62.7a30.533,30.533,0,0,0,16.8-4.713,33.4,33.4,0,0,0,11.68-12.909,39.509,39.509,0,0,0,4.3-18.647,39.68,39.68,0,0,0-4.2-18.544,32.807,32.807,0,0,0-11.577-12.806,30.9,30.9,0,0,0-17.007-4.713,31.413,31.413,0,0,0-17.007,4.611,32.624,32.624,0,0,0-11.68,12.807,39.51,39.51,0,0,0-4.3,18.647,39.507,39.507,0,0,0,4.3,18.646,33.4,33.4,0,0,0,11.68,12.909A30.9,30.9,0,0,0,406.935-225.864Zm76.43,17.622V-359.873h21.105v151.631Zm54.505,0V-315.818h21.105v107.576Zm10.245-131.345q-6.762,0-10.45-3.483t-3.688-9.836a12.836,12.836,0,0,1,3.791-9.631q3.791-3.688,10.348-3.688,6.762,0,10.45,3.483t3.688,9.836a12.835,12.835,0,0,1-3.791,9.631Q554.673-339.587,548.116-339.587Zm56.554,131.345V-343.275h21.105v135.034Zm-22.335-87.085v-20.491h68.439v20.491Zm125.4,89.135a36.842,36.842,0,0,1-19.978-5.328,35.04,35.04,0,0,1-13.114-14.958q-4.61-9.631-4.61-22.95v-66.39h21.1v60.652a40.815,40.815,0,0,0,2.971,16.29,23.257,23.257,0,0,0,8.606,10.552,24.335,24.335,0,0,0,13.627,3.688,29.263,29.263,0,0,0,10.86-1.947,25.543,25.543,0,0,0,8.5-5.43,24.907,24.907,0,0,0,5.635-8.4,27.428,27.428,0,0,0,2.049-10.655v-64.751H764.5v107.576H743.393v-22.54l3.688-2.459a35.84,35.84,0,0,1-8.3,13.729,43.325,43.325,0,0,1-13.831,9.733,41.556,41.556,0,0,1-17.213,3.586Zm131.14,0a48.446,48.446,0,0,1-26.33-7.274,52.022,52.022,0,0,1-18.339-19.876q-6.762-12.6-6.762-28.789t6.66-28.789A51.519,51.519,0,0,1,812.241-310.8a47.572,47.572,0,0,1,26.023-7.274,47.423,47.423,0,0,1,15.47,2.562,49.041,49.041,0,0,1,13.422,6.967,37.5,37.5,0,0,1,9.323,9.631,19.262,19.262,0,0,1,3.381,10.552l-6.147.41v-71.922h21.105v151.631H873.713v-25.613h4.1a17.157,17.157,0,0,1-3.279,9.733,38.253,38.253,0,0,1-8.708,8.913,45.26,45.26,0,0,1-12.5,6.557,43.679,43.679,0,0,1-14.446,2.459Zm2.869-18.237a29.946,29.946,0,0,0,17.007-4.918,33.671,33.671,0,0,0,11.577-13.422,43.149,43.149,0,0,0,4.2-19.363,43.149,43.149,0,0,0-4.2-19.363,33.673,33.673,0,0,0-11.577-13.422,29.945,29.945,0,0,0-17.007-4.918,29.945,29.945,0,0,0-17.007,4.918A33.673,33.673,0,0,0,813.164-281.5a43.15,43.15,0,0,0-4.2,19.363,43.149,43.149,0,0,0,4.2,19.363,33.672,33.672,0,0,0,11.577,13.422A29.946,29.946,0,0,0,841.748-224.429Zm132.37,18.237q-16.6,0-29.4-7.069a52.135,52.135,0,0,1-20.081-19.364q-7.274-12.294-7.274-28.277a62.923,62.923,0,0,1,4.1-23.154,55.572,55.572,0,0,1,11.373-18.134,50.02,50.02,0,0,1,17.417-11.885,57,57,0,0,1,22.028-4.2,47.5,47.5,0,0,1,19.466,4,48.8,48.8,0,0,1,15.675,10.962,48.061,48.061,0,0,1,10.245,16.495,55.669,55.669,0,0,1,3.381,20.8l-.2,9.016H932.932l-4.713-16.8H1002.6l-3.074,3.483v-4.918a23.74,23.74,0,0,0-4.508-12.09,27.857,27.857,0,0,0-9.836-8.4,27.683,27.683,0,0,0-12.909-3.074q-11.065,0-18.647,4.2a27.085,27.085,0,0,0-11.475,12.294q-3.893,8.094-3.893,19.978,0,11.27,4.713,19.568a32.11,32.11,0,0,0,13.319,12.807,42.219,42.219,0,0,0,19.876,4.508,40.71,40.71,0,0,0,14.856-2.664q6.864-2.664,14.856-9.631l10.655,14.958a48.536,48.536,0,0,1-11.987,8.606,74.751,74.751,0,0,1-14.959,5.84A58.643,58.643,0,0,1,974.118-206.193Z" transform="translate(290.471 432.03)" fill="#4ee59a"></path>
    <path id="Combined-Shape" d="M116.056,0A116.056,116.056,0,1,1,0,116.056,116.056,116.056,0,0,1,116.056,0Zm0,22.78a93.277,93.277,0,1,0,93.277,93.277A93.277,93.277,0,0,0,116.056,22.78Z" transform="translate(0 33.127)" fill="#4ee59a" fill-rule="evenodd"></path>
    <line id="Line_11" data-name="Line 11" x2="92.747" transform="translate(91.669 149.375)" fill="none" stroke="#4ee59a" stroke-width="1"></line>
    <line id="Line_12" data-name="Line 12" x2="43.138" transform="translate(47.668 149.375)" fill="none" stroke="#4ee59a" stroke-width="1"></line>
  </g>
</svg>
