<?xml version="1.0" encoding="UTF-8"?>
<svg width="180px" height="50px" viewBox="0 0 180 50" version="1.1" xmlns="http://www.w3.org/2000/svg" xmlns:xlink="http://www.w3.org/1999/xlink">
    <!-- Generator: Sketch 52.6 (67491) - http://www.bohemiancoding.com/sketch -->
    <title>enjin</title>
    <desc>Created with Sketch.</desc>
    <g id="enjin" stroke="none" stroke-width="1" fill="none" fill-rule="evenodd">
        <g id="enjin-coin-enj-logo-full-horizontal" transform="translate(10.500000, 0.000000)">
            <circle id="Oval" fill="#7866D5" cx="25.5" cy="25" r="25"></circle>
            <g id="Group" transform="translate(8.500000, 12.000000)" fill="#FFFFFF">
                <path d="M27.5354839,0.841973684 C28.3941935,0.945 29.2635484,1.00184211 30.1116129,1.16526316 C31.7935484,1.49210526 32.3506452,2.33052632 32.0632258,4.03223684 C31.9851613,4.67171053 31.4848387,5.17973684 30.846129,5.26144737 C30.4451613,5.32539474 30.0406452,5.35381579 29.636129,5.34671053 C24.1148387,5.36447368 18.5970968,5.37868421 13.0722581,5.38934211 C12.2419355,5.39644737 11.4151613,5.47105263 10.5990323,5.60960526 C7.86677419,6.05723684 6.82709677,7.19052632 6.61064516,9.95092105 C6.50774194,11.2440789 6.50774194,11.2440789 7.80290323,11.2440789 L29.8064516,11.2440789 C30.0193548,11.2440789 30.2322581,11.2440789 30.4451613,11.2440789 C30.7964516,11.2440789 31.1370968,11.34 31.4387097,11.5176316 C32.4393548,12.1571053 32.1909677,13.1731579 32.1341935,14.0932895 C32.0880645,14.8393421 31.6374194,15.2478947 30.8709677,15.3971053 C30.5480645,15.4503947 30.2216129,15.4717105 29.8951613,15.4646053 C22.3690323,15.4646053 14.8429032,15.4646053 7.32032258,15.4646053 C6.48645161,15.4646053 6.50064516,15.4646053 6.56096774,16.2923684 C6.58935484,17.0455263 6.68516129,17.7951316 6.84483871,18.5340789 C7.18548387,19.8947368 8.02645161,20.7473684 9.38193548,21.1239474 C10.8829032,21.5467105 12.4264516,21.6390789 13.9664516,21.6497368 C19.3493548,21.6852632 24.7322581,21.6710526 30.1187097,21.6710526 C30.8,21.6710526 31.4422581,21.7563158 31.8467742,22.3922368 C32.5067742,23.4580263 32.1803226,24.8577632 31.1158065,25.5221053 C30.9703226,25.6109211 30.8141935,25.6855263 30.6545161,25.7423684 C29.4835484,26.1189474 28.2664516,26.2077632 27.0529032,26.2290789 C21.9964516,26.3214474 16.9435484,26.3214474 11.8870968,26.2290789 C10.3258065,26.19 8.76806452,26.0088158 7.24225806,25.6855263 C3.64419355,24.9394737 1.84516129,23.1098684 1.23129032,19.4826316 C1.08935484,18.6477632 1.0183871,17.8022368 0.915483871,16.9602632 L0.915483871,10.3488158 C0.982903226,9.69868421 1.04677419,9.04855263 1.12129032,8.40552632 C1.58967742,4.30934211 3.42774194,2.28078947 7.4516129,1.38552632 C8.88516129,1.06578947 10.3435484,0.994736842 11.7912903,0.841973684 L27.5354839,0.841973684 Z" id="Path"></path>
                <path d="M19.4629032,26.9289474 C16.9258065,26.9289474 14.3887097,26.9076316 11.8693548,26.8614474 C10.2690323,26.8223684 8.66516129,26.6376316 7.10387097,26.3072368 C3.25387097,25.5078947 1.24548387,23.4367105 0.596129032,19.5856579 C0.496774194,18.9923684 0.429354839,18.3884211 0.365483871,17.8093421 C0.337096774,17.55 0.308709677,17.2942105 0.276774194,17.0348684 L0.273225806,16.9567105 L0.276774194,10.2848684 L0.340645161,9.65960526 C0.386774194,9.21552632 0.432903226,8.775 0.482580645,8.33802632 C0.99,3.98605263 3.03387097,1.71947368 7.31322581,0.767368421 C8.43451613,0.518684211 9.56645161,0.415657895 10.6629032,0.316184211 C11.0177419,0.284210526 11.3725806,0.252236842 11.7274194,0.213157895 L11.7948387,0.209605263 L27.5780645,0.209605263 L27.6170968,0.213157895 C27.8796774,0.245131579 28.1458065,0.273552632 28.4119355,0.298421053 C29.0080645,0.358815789 29.6254839,0.422763158 30.2393548,0.543552632 C32.2654839,0.937894737 33.046129,2.08184211 32.6983871,4.14236842 C32.5919355,5.04473684 31.8645161,5.78013158 30.9348387,5.90092105 C30.5196774,5.96842105 30.0725806,6.00039474 29.6325806,5.98973684 C24.1254839,6.0075 18.6041935,6.02171053 13.0829032,6.03236842 C12.2951613,6.03947368 11.4967742,6.11052632 10.716129,6.24552632 C8.26064516,6.65052632 7.4516129,7.52802632 7.25645161,10.0077632 C7.23870968,10.2280263 7.22096774,10.4482895 7.21741935,10.6010526 C7.37,10.6117105 7.59354839,10.6117105 7.81354839,10.6117105 L30.4522581,10.6117105 C30.4522581,10.6117105 30.4522581,10.6117105 30.4522581,10.6117105 C30.9170968,10.6117105 31.3712903,10.7360526 31.7722581,10.9740789 C32.9858065,11.7521053 32.8829032,12.9280263 32.8083871,13.7877632 C32.7977419,13.905 32.7870968,14.0186842 32.78,14.1359211 C32.7196774,15.1448684 32.0880645,15.8198684 31.0022581,16.0294737 C30.6225806,16.0898684 30.2535484,16.1147368 29.8880645,16.1076316 L7.33096774,16.1076316 C7.2883871,16.1076316 7.24225806,16.1076316 7.19967742,16.1076316 C7.20322581,16.1396053 7.20322581,16.1751316 7.20677419,16.2071053 L7.21032258,16.2497368 C7.23870968,16.9886842 7.33096774,17.7063158 7.48,18.4026316 C7.76032258,19.5181579 8.42387097,20.1931579 9.56290323,20.5128947 C11.0851613,20.9392105 12.65,21.0067105 13.9806452,21.0138158 C18.1748387,21.0422368 22.4435484,21.0386842 26.5703226,21.0351316 L30.1293548,21.0351316 C30.6545161,21.0351316 31.7474194,21.0351316 32.3932258,22.0511842 C32.8083871,22.7190789 32.936129,23.5006579 32.7587097,24.2573684 C32.5812903,25.0140789 32.12,25.6571053 31.46,26.0656579 C31.2754839,26.1793421 31.0767742,26.2752632 30.8674194,26.3463158 C29.5545161,26.7690789 28.2132258,26.8472368 27.0706452,26.8685526 C24.5370968,26.9076316 22,26.9289474 19.4629032,26.9289474 Z M1.54709677,16.9176316 C1.57903226,17.1663158 1.60387097,17.4185526 1.63225806,17.6672368 C1.69612903,18.2321053 1.76,18.8147368 1.85225806,19.3725 C2.41645161,22.7155263 4.01322581,24.3603947 7.36290323,25.0567105 C8.85322581,25.3728947 10.3754839,25.5505263 11.8941935,25.5860526 C16.9151613,25.6748684 22.0106452,25.6748684 27.0316129,25.5860526 C28.0783871,25.5682895 29.306129,25.4972368 30.4487097,25.1313158 C30.5551613,25.0957895 30.6651613,25.0425 30.7680645,24.9785526 C31.1370968,24.7476316 31.396129,24.3888158 31.4954839,23.9625 C31.5948387,23.5361842 31.523871,23.0992105 31.2932258,22.7297368 C31.0945161,22.4171053 30.7929032,22.3105263 30.1080645,22.3105263 L26.5525806,22.3105263 C22.4258065,22.3140789 18.1535484,22.3140789 13.9558065,22.2892105 C12.54,22.2785526 10.8687097,22.2075 9.20451613,21.7385526 C7.62193548,21.2980263 6.61774194,20.2713158 6.22032258,18.6903947 C6.05,17.8981579 5.95064516,17.1059211 5.91870968,16.3207895 L5.91516129,16.2994737 C5.87612903,15.7985526 5.85129032,15.4361842 6.1316129,15.1306579 C6.41548387,14.8251316 6.7916129,14.8251316 7.31322581,14.8251316 L29.8880645,14.8251316 C30.1896774,14.8322368 30.4806452,14.8144737 30.7645161,14.7682895 C31.3393548,14.6581579 31.4706452,14.4130263 31.4919355,14.0577632 C31.4990323,13.9298684 31.5096774,13.8055263 31.5203226,13.6776316 C31.5983871,12.7752632 31.5806452,12.3773684 31.0874194,12.0611842 C30.9029032,11.9510526 30.6722581,11.8871053 30.4380645,11.8871053 C30.4380645,11.8871053 30.4380645,11.8871053 30.4380645,11.8871053 L7.79935484,11.8871053 C7.01870968,11.8871053 6.54677419,11.8871053 6.20612903,11.5211842 C5.86903226,11.1552632 5.90451613,10.6827632 5.9683871,9.90473684 C6.20967742,6.86013158 7.48,5.48171053 10.4925806,4.98789474 C11.3370968,4.84223684 12.2029032,4.76407895 13.0651613,4.75697368 C18.59,4.74631579 24.1112903,4.73210526 29.6325806,4.71434211 C30.0122581,4.72144737 30.3812903,4.69657895 30.7432258,4.63618421 C31.1122581,4.58644737 31.3854839,4.30934211 31.4280645,3.96118421 C31.6658065,2.55789474 31.3287097,2.06052632 29.9909677,1.79763158 C29.433871,1.69105263 28.8732258,1.63065789 28.2770968,1.57026316 C28.0180645,1.54184211 27.7590323,1.51697368 27.5,1.485 L11.8303226,1.485 C11.4825806,1.52052632 11.1312903,1.5525 10.7835484,1.58447368 C9.68,1.68394737 8.63677419,1.77986842 7.59709677,2.01078947 C3.83935484,2.84921053 2.2,4.66460526 1.75645161,8.48368421 C1.70677419,8.91710526 1.66064516,9.35052632 1.61806452,9.7875 L1.55774194,10.3843421 L1.55774194,16.9176316 L1.54709677,16.9176316 Z" id="Shape" fill-rule="nonzero"></path>
            </g>
            <g id="Group" transform="translate(59.500000, 16.000000)" fill="#7866D5">
                <g>
                    <path d="M18.7070968,0.427058824 C19.2890323,0.497647059 19.8816129,0.536470588 20.4564516,0.645882353 C21.5990323,0.868235294 21.9751613,1.42941176 21.78,2.57647059 C21.7267742,3.00705882 21.386129,3.34941176 20.9532258,3.40588235 C20.6835484,3.44823529 20.4067742,3.46941176 20.1335484,3.46235294 C16.3864516,3.47294118 12.6393548,3.48352941 8.88870968,3.49058824 C8.32451613,3.49411765 7.76387097,3.54352941 7.21032258,3.63882353 C5.35806452,3.94235294 4.65193548,4.70470588 4.50290323,6.56470588 C4.43193548,7.43647059 4.43193548,7.43647059 5.31193548,7.43647059 L20.2470968,7.43647059 C20.3925806,7.43647059 20.5345161,7.43647059 20.68,7.43647059 C20.9177419,7.43647059 21.1519355,7.5 21.3541935,7.62 C22.0354839,8.05058824 21.8651613,8.73529412 21.826129,9.35647059 C21.7941935,9.86117647 21.4890323,10.1364706 20.9709677,10.2352941 C20.7509677,10.2705882 20.5309677,10.2847059 20.3074194,10.2811765 C15.1977419,10.2811765 10.0916129,10.2811765 4.98193548,10.2811765 C4.41419355,10.2811765 4.42483871,10.2811765 4.46741935,10.8388235 C4.48870968,11.3470588 4.55258065,11.8517647 4.65903226,12.3494118 C4.88967742,13.2670588 5.46096774,13.8423529 6.38,14.0964706 C7.3983871,14.3788235 8.44870968,14.4423529 9.49193548,14.4494118 C13.1467742,14.4741176 16.8016129,14.4635294 20.4564516,14.4635294 C20.9177419,14.4635294 21.3541935,14.5235294 21.6274194,14.9505882 C22.0745161,15.6705882 21.8545161,16.6129412 21.1306452,17.0611765 C21.0312903,17.1211765 20.9283871,17.1705882 20.8183871,17.2094118 C20.0235484,17.4635294 19.1967742,17.5235294 18.3735484,17.5376471 C14.9422581,17.5976471 11.5109677,17.5976471 8.07967742,17.5376471 C7.01870968,17.5129412 5.96483871,17.3894118 4.92516129,17.1705882 C2.48032258,16.6658824 1.26322581,15.4341176 0.844516129,12.9882353 C0.748709677,12.4235294 0.699032258,11.8552941 0.628064516,11.2870588 L0.628064516,6.84 C0.674193548,6.40235294 0.716774194,5.96470588 0.766451613,5.53058824 C1.08935484,2.76705882 2.3383871,1.40117647 5.06709677,0.794117647 C6.03935484,0.578823529 7.02935484,0.529411765 8.01225806,0.427058824 L18.7070968,0.427058824 Z" id="Path"></path>
                    <path d="M13.2283871,17.88 C11.5074194,17.88 9.78645161,17.8658824 8.07612903,17.8341176 C7.00096774,17.8094118 5.92225806,17.6823529 4.86483871,17.4635294 C2.2816129,16.9305882 0.993548387,15.6105882 0.557096774,13.0447059 C0.489677419,12.6494118 0.443548387,12.2541176 0.400967742,11.8552941 C0.383225806,11.6788235 0.361935484,11.5058824 0.340645161,11.3294118 L0.337096774,6.84 L0.383225806,6.38117647 C0.41516129,6.08470588 0.443548387,5.78823529 0.479032258,5.49529412 C0.816129032,2.62941176 2.16806452,1.13647059 5.00677419,0.508235294 C5.75903226,0.342352941 6.52193548,0.271764706 7.26354839,0.204705882 C7.50483871,0.183529412 7.74612903,0.162352941 7.98741935,0.137647059 L18.7212903,0.134117647 L18.7390323,0.137647059 C18.92,0.158823529 19.1009677,0.176470588 19.2819355,0.197647059 C19.6829032,0.24 20.0980645,0.282352941 20.5096774,0.36 C21.8119355,0.610588235 22.2909677,1.30941176 22.0674194,2.62941176 C22,3.18 21.5564516,3.62823529 20.9887097,3.69882353 C20.7083871,3.74470588 20.413871,3.76588235 20.1264516,3.75882353 C16.3864516,3.76941176 12.6393548,3.78 8.88870968,3.78705882 C8.34580645,3.79058824 7.79580645,3.84 7.26,3.93176471 C5.53193548,4.21411765 4.93225806,4.86 4.79387097,6.59294118 C4.77258065,6.83647059 4.75483871,7.09058824 4.77612903,7.15411765 C4.80451613,7.15058824 5.06354839,7.15058824 5.3083871,7.15058824 L20.6764516,7.15058824 C20.6764516,7.15058824 20.6764516,7.15058824 20.68,7.15058824 C20.9674194,7.15058824 21.2548387,7.22823529 21.5032258,7.37647059 C22.2519355,7.85294118 22.1880645,8.56941176 22.1383871,9.14470588 C22.1312903,9.22588235 22.1241935,9.30352941 22.1206452,9.38117647 C22.0958065,9.81529412 21.8829032,10.3658824 21.0277419,10.5282353 C20.7829032,10.5670588 20.5416129,10.5847059 20.3003226,10.5776471 L4.98193548,10.5776471 C4.89677419,10.5776471 4.80806452,10.5776471 4.74419355,10.5811765 C4.74774194,10.6411765 4.75129032,10.7223529 4.7583871,10.7964706 C4.77967742,11.3258824 4.84354839,11.8164706 4.94645161,12.2964706 C5.14870968,13.0941176 5.64548387,13.5988235 6.4616129,13.8247059 C7.5083871,14.1176471 8.58354839,14.1635294 9.49548387,14.1670588 C12.3554839,14.1847059 15.2190323,14.1811765 18.0790323,14.1811765 L20.4564516,14.1811765 C20.9603226,14.1811765 21.5245161,14.2552941 21.8758065,14.8023529 C22.4116129,15.66 22.1454839,16.7858824 21.2867742,17.3188235 C21.1696774,17.3929412 21.0454839,17.4494118 20.9141935,17.4952941 C20.0448387,17.7741176 19.1435484,17.8235294 18.3806452,17.8376471 C16.673871,17.8658824 14.9493548,17.88 13.2283871,17.88 Z M18.6893548,0.72 L8.01935484,0.72 C7.80645161,0.744705882 7.5616129,0.765882353 7.32032258,0.787058824 C6.6,0.854117647 5.85129032,0.921176471 5.13806452,1.07647059 C2.51580645,1.65529412 1.37322581,2.91529412 1.06451613,5.55882353 C1.02903226,5.84823529 1.00064516,6.14117647 0.968709677,6.43411765 L0.922580645,6.86470588 L0.922580645,11.2905882 C0.943870968,11.4317647 0.961612903,11.6082353 0.982903226,11.7882353 C1.02548387,12.1729412 1.06806452,12.5611765 1.13548387,12.9423529 C1.52935484,15.2611765 2.64709677,16.4047059 4.98548387,16.8882353 C6.00387097,17.1035294 7.04709677,17.2235294 8.08677419,17.2482353 C11.4967742,17.3082353 14.9564516,17.3082353 18.37,17.2482353 C19.0903226,17.2341176 19.9383871,17.1882353 20.7296774,16.9341176 C20.8112903,16.9058824 20.9,16.8670588 20.9780645,16.8176471 C21.5635484,16.4576471 21.7409677,15.6917647 21.3790323,15.1094118 C21.1909677,14.82 20.9,14.76 20.4564516,14.76 L18.0790323,14.76 C15.2154839,14.76 12.3519355,14.7635294 9.49193548,14.7458824 C8.54096774,14.7388235 7.41612903,14.6894118 6.30193548,14.3788235 C5.28,14.0964706 4.63064516,13.4364706 4.37516129,12.4235294 C4.2616129,11.9011765 4.19419355,11.3752941 4.17290323,10.8529412 C4.14451613,10.5105882 4.13032258,10.3129412 4.27935484,10.1505882 C4.43193548,9.98823529 4.63774194,9.98823529 4.9783871,9.98823529 L20.303871,9.98823529 C20.5132258,9.99176471 20.7190323,9.98117647 20.9212903,9.94941176 C21.4322581,9.85058824 21.5174194,9.58588235 21.5316129,9.34235294 C21.5351613,9.25764706 21.5458065,9.17294118 21.5529032,9.08823529 C21.6025806,8.50588235 21.6132258,8.13529412 21.1945161,7.87058824 C21.0454839,7.78235294 20.8645161,7.73294118 20.68,7.73294118 C20.68,7.73294118 20.68,7.73294118 20.68,7.73294118 L5.31193548,7.73294118 C4.80096774,7.73294118 4.52064516,7.73294118 4.33258065,7.52823529 C4.14451613,7.32352941 4.16580645,7.04823529 4.2083871,6.54352941 C4.36806452,4.54235294 5.17,3.67764706 7.16064516,3.35294118 C7.7283871,3.25764706 8.30677419,3.20470588 8.88516129,3.20117647 C12.6358065,3.19411765 16.3829032,3.18352941 20.13,3.17294118 C20.3925806,3.17647059 20.6516129,3.15882353 20.9035484,3.12 C21.2122581,3.08117647 21.45,2.84470588 21.4854839,2.54470588 C21.6558065,1.53882353 21.3719355,1.12235294 20.396129,0.935294118 C20.0129032,0.861176471 19.6119355,0.818823529 19.2216129,0.78 C19.0477419,0.758823529 18.8703226,0.741176471 18.6893548,0.72 Z" id="Shape" fill-rule="nonzero"></path>
                </g>
                <g transform="translate(24.129032, 0.000000)">
                    <path d="M22.3264516,8.83058824 C22.3264516,11.0823529 22.3264516,13.3376471 22.3264516,15.5894118 C22.3264516,16.7647059 21.8332258,17.3541176 20.6480645,17.4917647 C19.533871,17.6223529 18.3983871,17.5658824 17.2735484,17.52 C16.6348387,17.4952941 16.1451613,17.1458824 15.7335484,16.6764706 C12.366129,12.8047059 8.99870968,8.93294118 5.63129032,5.06470588 C5.45032258,4.85647059 5.26935484,4.65176471 5.08129032,4.45058824 C4.95354839,4.32 4.8116129,4.17882353 4.60580645,4.25294118 C4.39645161,4.32705882 4.39290323,4.52823529 4.38935484,4.71176471 C4.38935484,5.20588235 4.38935484,5.70352941 4.38935484,6.19764706 C4.38935484,9.46941176 4.38935484,12.7376471 4.38935484,16.0058824 C4.38935484,17.1811765 4.02032258,17.5482353 2.84225806,17.5482353 C2.5016129,17.5482353 2.16096774,17.5588235 1.82032258,17.5411765 C1.10354839,17.5094118 0.713225806,17.1388235 0.645806452,16.4329412 C0.624516129,16.2141176 0.613870968,15.9917647 0.613870968,15.7694118 C0.613870968,11.4317647 0.613870968,7.09411765 0.613870968,2.75647059 C0.613870968,2.61176471 0.613870968,2.47058824 0.620967742,2.32588235 C0.688387097,1.35882353 1.15677419,0.794117647 2.12193548,0.652941176 C3.33193548,0.472941176 4.55258065,0.543529412 5.76967742,0.607058824 C6.40483871,0.638823529 6.87322581,1.03058824 7.28129032,1.5 C10.7658065,5.50941176 14.253871,9.51882353 17.7454839,13.5247059 C17.82,13.6164706 17.9016129,13.7011765 17.9903226,13.7788235 C18.1003226,13.8741176 18.2245161,13.9623529 18.3806452,13.8847059 C18.5154839,13.8176471 18.5935484,13.6764706 18.5829032,13.5282353 C18.5829032,13.3976471 18.5829032,13.2670588 18.5829032,13.1364706 C18.5829032,9.43764706 18.5829032,5.73882353 18.5829032,2.03647059 C18.5829032,0.938823529 18.9625806,0.564705882 20.0767742,0.564705882 C20.3925806,0.564705882 20.7048387,0.564705882 21.0206452,0.564705882 C21.8970968,0.575294118 22.3264516,0.995294118 22.33,1.86705882 C22.33,4.19294118 22.3264516,6.51176471 22.3264516,8.83058824 Z" id="Path"></path>
                    <path d="M19.0796774,17.8658824 C18.5119355,17.8658824 17.9477419,17.8411765 17.3906452,17.82 L17.2629032,17.8129412 C16.6170968,17.7847059 16.0458065,17.4776471 15.5135484,16.8670588 C12.146129,12.9952941 8.77870968,9.12352941 5.41129032,5.25529412 C5.23387097,5.05058824 5.05645161,4.84588235 4.87193548,4.65176471 C4.75129032,4.52823529 4.72645161,4.52117647 4.70870968,4.52823529 C4.68741935,4.55294118 4.68741935,4.66235294 4.68741935,4.71176471 L4.68741935,16.0058824 C4.68741935,17.3435294 4.18709677,17.8376471 2.84580645,17.8376471 L2.5583871,17.8376471 C2.31,17.8411765 2.05806452,17.8411765 1.80967742,17.8305882 C0.958064516,17.7917647 0.44,17.3047059 0.35483871,16.4576471 C0.333548387,16.2282353 0.322903226,15.9952941 0.322903226,15.7658824 L0.322903226,2.76 C0.322903226,2.61176471 0.322903226,2.46 0.333548387,2.31529412 C0.411612903,1.18235294 1.00064516,0.529411765 2.08290323,0.370588235 C3.30709677,0.190588235 4.54903226,0.254117647 5.7483871,0.317647059 C6.58225806,0.36 7.12516129,0.875294118 7.5083871,1.31647059 C10.9929032,5.32588235 14.4809677,9.33529412 17.9725806,13.3411765 C18.0435484,13.4258824 18.1109677,13.5 18.1890323,13.5670588 C18.2422581,13.6129412 18.2670968,13.6270588 18.2777419,13.6305882 C18.2812903,13.62 18.2954839,13.5882353 18.2954839,13.5564706 L18.2954839,2.04705882 C18.2954839,0.794117647 18.8135484,0.282352941 20.083871,0.282352941 L21.0277419,0.282352941 C22.0745161,0.296470588 22.6245161,0.847058824 22.6280645,1.87764706 L22.6280645,4.36235294 C22.6280645,5.85176471 22.6245161,7.34117647 22.6245161,8.83411765 L22.6245161,15.5929412 C22.6245161,16.9341176 22.0106452,17.6294118 20.6870968,17.7847059 C20.1512903,17.8447059 19.6154839,17.8658824 19.0796774,17.8658824 Z M4.72290323,3.93882353 C4.99967742,3.93882353 5.19483871,4.14 5.29774194,4.24941176 C5.48935484,4.45058824 5.67387097,4.66235294 5.85483871,4.87411765 C9.22225806,8.74235294 12.5896774,12.6141176 15.9570968,16.4858824 C16.3793548,16.9729412 16.8051613,17.2094118 17.2841935,17.2305882 L17.4119355,17.2376471 C18.4693548,17.28 19.5622581,17.3258824 20.6090323,17.2058824 C21.6309677,17.0858824 22.0283871,16.6341176 22.0283871,15.5929412 L22.0283871,8.83058824 C22.0283871,7.34117647 22.0283871,5.84823529 22.0319355,4.35882353 L22.0319355,1.87411765 C22.0283871,1.16823529 21.733871,0.875294118 21.0135484,0.864705882 L20.0732258,0.864705882 C19.1187097,0.864705882 18.873871,1.10823529 18.873871,2.04705882 L18.873871,13.5352941 C18.8916129,13.7823529 18.7496774,14.0294118 18.5083871,14.1529412 C18.1641935,14.3188235 17.8945161,14.0929412 17.7951613,14.0082353 C17.6922581,13.9164706 17.6,13.8211765 17.5148387,13.7188235 C14.0267742,9.72 10.5387097,5.71058824 7.05419355,1.70117647 C6.59290323,1.16823529 6.20258065,0.931764706 5.7483871,0.907058824 C4.5383871,0.843529412 3.3283871,0.78 2.16096774,0.949411765 C1.35548387,1.06941176 0.972258065,1.5 0.911935484,2.35411765 C0.90483871,2.48823529 0.90483871,2.62588235 0.90483871,2.76352941 L0.90483871,15.7764706 C0.90483871,15.9882353 0.911935484,16.2 0.933225806,16.4117647 C0.99,16.9694118 1.26677419,17.2305882 1.83096774,17.2552941 C2.06870968,17.2658824 2.31,17.2658824 2.54774194,17.2623529 L2.83870968,17.2623529 C3.85709677,17.2623529 4.09129032,17.0294118 4.09129032,16.0129412 L4.09129032,4.71882353 C4.09129032,4.52823529 4.09483871,4.12941176 4.49935484,3.98470588 C4.58451613,3.95294118 4.65903226,3.93882353 4.72290323,3.93882353 Z" id="Shape" fill-rule="nonzero"></path>
                </g>
                <g transform="translate(76.290323, 0.000000)">
                    <path d="M0.44,9.28235294 L0.44,2.67529412 C0.44,1.27764706 0.950967742,0.677647059 2.34903226,0.592941176 C3.36741935,0.532941176 4.39290323,0.557647059 5.41129032,0.585882353 C6.06064516,0.603529412 6.57870968,0.931764706 7.00096774,1.41882353 C10.4109677,5.34 13.8209677,9.25764706 17.2309677,13.1788235 C17.3941935,13.3658824 17.5574194,13.5529412 17.7312903,13.7294118 C17.8483871,13.8494118 17.9832258,13.98 18.1783871,13.8882353 C18.3451613,13.8105882 18.3664516,13.6517647 18.3664516,13.4858824 C18.3664516,13.3552941 18.3664516,13.2247059 18.3664516,13.0941176 C18.3664516,9.42 18.3664516,5.74588235 18.3664516,2.07176471 C18.3664516,0.942352941 18.7425806,0.568235294 19.8674194,0.561176471 C20.1796774,0.561176471 20.4954839,0.561176471 20.8112903,0.561176471 C21.6841935,0.571764706 22.11,0.991764706 22.1135484,1.87058824 C22.1135484,3.99529412 22.1135484,6.11647059 22.1135484,8.24117647 C22.1135484,10.7047059 22.1135484,13.1647059 22.1135484,15.6282353 C22.1135484,16.7364706 21.6167742,17.34 20.5132258,17.4776471 C19.3670968,17.6223529 18.2103226,17.5623529 17.0606452,17.5129412 C16.4112903,17.4847059 15.9180645,17.1211765 15.4993548,16.6376471 C12.0254839,12.6352941 8.54806452,8.63647059 5.06709677,4.64117647 C5.01387097,4.58117647 4.96419355,4.52117647 4.91096774,4.46470588 C4.77258065,4.32705882 4.62354839,4.17176471 4.40354839,4.24941176 C4.18354839,4.33058824 4.18709677,4.55294118 4.18709677,4.74705882 C4.18709677,7.86 4.18709677,10.9764706 4.18709677,14.0858824 C4.18709677,14.7917647 4.18709677,15.4976471 4.18709677,16.2 C4.17645161,17.1247059 3.76129032,17.5376471 2.83870968,17.5447059 C2.45903226,17.5447059 2.07935484,17.5517647 1.69967742,17.5447059 C0.865806452,17.5235294 0.447096774,17.1035294 0.447096774,16.2741176 C0.443548387,13.9482353 0.44,11.6152941 0.44,9.28235294 Z" id="Path"></path>
                    <path d="M18.8809677,17.8588235 C18.3132258,17.8588235 17.7490323,17.8341176 17.1919355,17.8094118 L17.0464516,17.8023529 C16.39,17.7741176 15.8258065,17.4635294 15.2722581,16.8247059 C11.7983871,12.8223529 8.32096774,8.82352941 4.84,4.82823529 L4.78677419,4.76823529 C4.75483871,4.73294118 4.72645161,4.69764706 4.69451613,4.66588235 C4.55612903,4.52823529 4.52419355,4.51411765 4.49935484,4.52117647 C4.47806452,4.54941176 4.47806452,4.66941176 4.47806452,4.72941176 L4.47806452,16.2 C4.46741935,17.2764706 3.91387097,17.8270588 2.83870968,17.8376471 L2.45903226,17.8376471 C2.20354839,17.8376471 1.94806452,17.8411765 1.69258065,17.8376471 C0.699032258,17.8129412 0.152580645,17.2588235 0.152580645,16.2776471 C0.149032258,13.9482353 0.145483871,11.6152941 0.145483871,9.27882353 L0.145483871,2.67529412 C0.145483871,1.10470588 0.798387097,0.391764706 2.33129032,0.3 C3.39580645,0.236470588 4.47096774,0.264705882 5.42193548,0.292941176 C6.09612903,0.310588235 6.70290323,0.624705882 7.22451613,1.22470588 L17.4545161,12.9847059 C17.6141935,13.1682353 17.7703226,13.3517647 17.9406452,13.5211765 C17.9690323,13.5494118 18.0329032,13.6129412 18.0612903,13.6235294 C18.0612903,13.6129412 18.0719355,13.5882353 18.0754839,13.4788235 L18.0754839,2.07176471 C18.0754839,0.78 18.5793548,0.275294118 19.8709677,0.268235294 L20.8148387,0.268235294 C21.8545161,0.278823529 22.4045161,0.832941176 22.4080645,1.87058824 L22.4080645,15.6282353 C22.4080645,16.8952941 21.7835484,17.6152941 20.5487097,17.7670588 C19.9916129,17.8376471 19.4345161,17.8588235 18.8809677,17.8588235 Z M4.52064516,3.93529412 C4.79387097,3.93529412 4.98903226,4.12941176 5.10612903,4.24588235 C5.16290323,4.30235294 5.20193548,4.34823529 5.24096774,4.39411765 L5.28709677,4.44705882 C8.76806452,8.44588235 12.2454839,12.4447059 15.7193548,16.4470588 C16.1593548,16.9552941 16.5887097,17.2023529 17.0748387,17.2235294 L17.2203226,17.2305882 C18.2954839,17.2764706 19.406129,17.3258824 20.4777419,17.1917647 C21.4216129,17.0752941 21.8225806,16.6094118 21.8225806,15.6317647 L21.8225806,1.87058824 C21.8225806,1.15411765 21.5280645,0.861176471 20.8112903,0.854117647 L19.8709677,0.854117647 C18.9093548,0.857647059 18.6609677,1.10823529 18.6609677,2.07176471 L18.6609677,13.4823529 C18.6609677,13.62 18.6574194,13.98 18.306129,14.1494118 C17.9158065,14.3329412 17.6425806,14.0505882 17.5254839,13.9341176 C17.3480645,13.7541176 17.1777419,13.56 17.0145161,13.3694118 L6.78451613,1.60941176 C6.36935484,1.13294118 5.91870968,0.892941176 5.41129032,0.878823529 C4.47451613,0.854117647 3.41354839,0.822352941 2.37387097,0.885882353 C1.15322581,0.96 0.741612903,1.41176471 0.741612903,2.67882353 L0.741612903,9.28235294 C0.741612903,11.6152941 0.74516129,13.9482353 0.748709677,16.2776471 C0.748709677,16.9482353 1.03967742,17.2376471 1.71387097,17.2552941 C1.96225806,17.2588235 2.21419355,17.2588235 2.46612903,17.2552941 L2.84580645,17.2552941 C3.60516129,17.2482353 3.89258065,16.9623529 3.89967742,16.2 L3.89967742,4.74705882 C3.89967742,4.53529412 3.89967742,4.12235294 4.30774194,3.97411765 C4.37870968,3.94588235 4.44967742,3.93529412 4.52064516,3.93529412 Z" id="Shape" fill-rule="nonzero"></path>
                </g>
                <g transform="translate(48.258065, 0.000000)">
                    <path d="M13.5441935,6.56117647 C13.5441935,4.99764706 13.5441935,3.43764706 13.5441935,1.87411765 C13.5441935,0.981176471 13.9416129,0.582352941 14.8322581,0.571764706 C15.2651613,0.571764706 15.6980645,0.561176471 16.1274194,0.571764706 C16.8087097,0.592941176 17.1954839,0.928235294 17.3019355,1.59529412 C17.3303226,1.78941176 17.3445161,1.98352941 17.3409677,2.17764706 C17.3409677,4.76823529 17.3516129,7.35882353 17.3409677,9.95294118 C17.3445161,10.9941176 17.27,12.0352941 17.1174194,13.0623529 C16.7235484,15.5576471 15.4674194,16.8070588 12.8451613,17.3258824 C11.8445161,17.52 10.826129,17.6223529 9.80774194,17.6294118 C7.57935484,17.6505882 5.35806452,17.7247059 3.13322581,17.5694118 C2.51935484,17.5270588 1.90548387,17.4670588 1.32709677,17.2341176 C0.631612903,16.9588235 0.372580645,16.3764706 0.52516129,15.4835294 C0.628064516,14.8941176 1.06096774,14.5764706 1.79903226,14.5694118 C4.09129032,14.5588235 6.38,14.5694118 8.67225806,14.5517647 C9.4316129,14.5588235 10.1909677,14.4882353 10.936129,14.3435294 C12.7493548,13.9623529 13.4093548,13.1788235 13.4767742,11.3223529 C13.5051613,10.5282353 13.5335484,9.73411765 13.5441935,8.94 C13.5548387,8.14588235 13.5441935,7.35529412 13.5441935,6.56117647 Z" id="Path"></path>
                    <path d="M6.35516129,17.9576471 C5.27645161,17.9576471 4.19064516,17.9364706 3.11548387,17.8623529 C2.46967742,17.8164706 1.83806452,17.7564706 1.22064516,17.5058824 C0.649354839,17.2764706 0.0141935484,16.7329412 0.241290323,15.4341176 C0.315806452,15.0070588 0.613870968,14.2905882 1.79903226,14.2764706 C2.73225806,14.2729412 3.66548387,14.2729412 4.59870968,14.2694118 C5.95774194,14.2694118 7.31322581,14.2658824 8.67225806,14.2552941 C9.41741935,14.2623529 10.1590323,14.1917647 10.8829032,14.0505882 C12.5612903,13.6976471 13.1219355,13.0305882 13.1858065,11.3047059 C13.2141935,10.5141176 13.2425806,9.72 13.2532258,8.92941176 C13.2603226,8.41411765 13.2567742,7.90235294 13.2532258,7.38705882 L13.2496774,1.86352941 C13.2496774,0.818823529 13.7819355,0.282352941 14.8287097,0.271764706 L15.2616129,0.268235294 C15.5525806,0.264705882 15.8435484,0.264705882 16.1345161,0.271764706 C16.9577419,0.296470588 17.4616129,0.734117647 17.5929032,1.54235294 C17.6248387,1.75411765 17.6390323,1.96588235 17.6390323,2.17411765 L17.6425806,4.76117647 C17.6425806,6.49058824 17.646129,8.21647059 17.6390323,9.94588235 C17.6425806,10.9976471 17.5680645,12.0564706 17.4119355,13.0976471 C17.0003226,15.7129412 15.6519355,17.0611765 12.9054839,17.6047059 C11.8870968,17.8023529 10.8474194,17.9047059 9.81129032,17.9117647 L8.56935484,17.9258824 C7.8383871,17.9470588 7.09677419,17.9576471 6.35516129,17.9576471 Z M8.67225806,14.8447059 C7.31677419,14.8552941 5.95774194,14.8588235 4.59870968,14.8588235 C3.66548387,14.8588235 2.73580645,14.8588235 1.80258065,14.8658824 C0.933225806,14.8764706 0.848064516,15.3741176 0.819677419,15.5364706 C0.649354839,16.5141176 1.06096774,16.8141176 1.44064516,16.9658824 C1.98,17.1847059 2.5583871,17.2376471 3.15806452,17.28 C4.95354839,17.4035294 6.78806452,17.3788235 8.56225806,17.3541176 L9.80774194,17.34 C10.8083871,17.3329412 11.8125806,17.2341176 12.7919355,17.0435294 C15.2864516,16.5494118 16.4574194,15.3847059 16.83,13.02 C16.9825806,12.0105882 17.0570968,10.98 17.05,9.95647059 C17.0570968,8.22705882 17.0535484,6.50117647 17.0535484,4.77176471 L17.05,2.18117647 C17.0535484,2.00117647 17.0393548,1.81764706 17.0109677,1.64117647 C16.9258065,1.11529412 16.656129,0.882352941 16.1167742,0.864705882 C15.8329032,0.857647059 15.5490323,0.861176471 15.2651613,0.861176471 L14.8287097,0.864705882 C14.1048387,0.871764706 13.8351613,1.14705882 13.8351613,1.87411765 L13.8387097,7.39058824 C13.8422581,7.90941176 13.8458065,8.42823529 13.8387097,8.94352941 C13.8280645,9.73764706 13.7996774,10.5352941 13.7712903,11.3294118 C13.6967742,13.3235294 12.9480645,14.22 11,14.6258824 C10.23,14.7811765 9.44580645,14.8517647 8.67225806,14.8447059 Z" id="Shape" fill-rule="nonzero"></path>
                </g>
                <g transform="translate(68.838710, 0.000000)">
                    <path d="M4.17645161,9.06705882 C4.17645161,11.4105882 4.17645161,13.7541176 4.17645161,16.0976471 C4.17645161,17.1811765 3.80387097,17.5447059 2.70741935,17.5482353 C2.34193548,17.5482353 1.97290323,17.5588235 1.60741935,17.5482353 C0.826774194,17.5164706 0.408064516,17.0964706 0.369032258,16.32 C0.358387097,16.1117647 0.369032258,15.9035294 0.369032258,15.6952941 L0.369032258,2.09647059 C0.369032258,0.938823529 0.738064516,0.571764706 1.88774194,0.568235294 C2.21419355,0.568235294 2.54419355,0.568235294 2.87064516,0.568235294 C3.73645161,0.578823529 4.17290323,1.00588235 4.17645161,1.87764706 C4.18,4.27411765 4.17645161,6.67058824 4.17645161,9.06705882 Z" id="Path"></path>
                    <path d="M1.97645161,17.8447059 C1.85225806,17.8447059 1.72806452,17.8447059 1.60387097,17.8411765 C0.667096774,17.8023529 0.127741935,17.2694118 0.0780645161,16.3376471 C0.0709677419,16.1929412 0.074516129,16.0482353 0.074516129,15.9035294 L0.0780645161,15.6988235 L0.0780645161,2.09647059 C0.0780645161,0.772941176 0.567741935,0.278823529 1.89129032,0.278823529 L2.87419355,0.278823529 C3.90322581,0.292941176 4.47096774,0.861176471 4.47451613,1.88117647 C4.47451613,3.39529412 4.47451613,4.90588235 4.47451613,6.42 L4.47451613,16.1011765 C4.47451613,17.3364706 3.96354839,17.8411765 2.71451613,17.8447059 L2.34903226,17.8482353 C2.22129032,17.8447059 2.09709677,17.8447059 1.97645161,17.8447059 Z M2.86709677,0.861176471 L1.88774194,0.861176471 C0.901290323,0.861176471 0.663548387,1.10470588 0.663548387,2.09647059 L0.66,15.9105882 C0.656451613,16.0447059 0.656451613,16.1752941 0.66,16.3058824 C0.691935484,16.9376471 0.986451613,17.2305882 1.61806452,17.2552941 C1.85225806,17.2623529 2.09354839,17.2588235 2.33483871,17.2588235 L2.70387097,17.2552941 C3.63709677,17.2552941 3.8783871,17.0152941 3.8783871,16.0976471 L3.8783871,6.41647059 C3.8783871,4.90235294 3.8783871,3.39176471 3.8783871,1.87764706 C3.88193548,1.17529412 3.58032258,0.871764706 2.86709677,0.861176471 Z" id="Shape" fill-rule="nonzero"></path>
                </g>
            </g>
        </g>
    </g>
</svg>