<svg width="93" height="29" viewBox="0 0 93 29" fill="none" xmlns="http://www.w3.org/2000/svg">
<path d="M0 14.5C0 6.76801 6.26801 0.5 14 0.5C21.732 0.5 28 6.76801 28 14.5C28 22.232 21.732 28.5 14 28.5C6.26801 28.5 0 22.232 0 14.5Z" fill="#7567CE"/>
<path d="M12.6875 6.84375C7.4375 6.84375 5.25 9.08687 5.25 12.0938V16.9062C5.25 19.9131 7.4375 22.1562 12.6875 22.1562H17.7734C22.5312 22.1562 22.75 21.5821 22.75 20.625C22.75 19.5313 22.3125 19.0938 21.2188 19.0938H12.6875C10.0625 19.0938 8.75 17.7843 8.75 16.4688V16.0312H21.2188C22.0938 16.0312 22.75 15.457 22.75 14.5C22.75 13.543 22.0938 12.9688 21.2188 12.9688H8.75V12.5312C8.75 11.2157 10.0625 9.90625 12.6875 9.90625H21.2188C22.3125 9.90625 22.75 9.4687 22.75 8.375C22.75 7.41791 22.5312 6.84375 17.7734 6.84375H12.6875Z" fill="white"/>
<path d="M76.0884 8.75781C75.512 8.75781 75.25 9.0569 75.25 9.71484V19.2852C75.25 19.9431 75.512 20.2422 76.0884 20.2422H77.0366C77.613 20.2422 77.875 19.9431 77.875 19.2852V9.71484C77.875 9.0569 77.613 8.75781 77.0366 8.75781H76.0884Z" fill="#7567CE"/>
<path d="M56.4627 19.2253C57.1709 20.1319 57.9879 20.2422 58.8733 20.2422H59.5552C60.5511 20.2422 60.8125 19.4646 60.8125 18.9861V9.71484C60.8125 9.0569 60.5505 8.75781 59.9741 8.75781H59.0259C58.4495 8.75781 58.1875 9.0569 58.1875 9.71484V17.2514L52.475 9.77467C51.7664 8.86806 50.9498 8.75781 50.0641 8.75781H49.3823C48.3866 8.75781 48.125 9.53541 48.125 10.0139V19.2852C48.125 19.9431 48.3871 20.2422 48.9635 20.2422H49.9115C50.4879 20.2422 50.75 19.9431 50.75 19.2852V11.7486L56.4627 19.2253Z" fill="#7567CE"/>
<path d="M88.4002 19.2253C89.1084 20.1319 89.9254 20.2422 90.8108 20.2422H91.4927C92.4886 20.2422 92.75 19.4646 92.75 18.9861V9.71484C92.75 9.0569 92.488 8.75781 91.9116 8.75781H90.9634C90.387 8.75781 90.125 9.0569 90.125 9.71484V17.2514L84.4123 9.77467C83.7041 8.86806 82.8871 8.75781 82.0017 8.75781H81.3198C80.3239 8.75781 80.0625 9.53541 80.0625 10.0139V19.2852C80.0625 19.9431 80.3245 20.2422 80.9009 20.2422H81.8491C82.4255 20.2422 82.6875 19.9431 82.6875 19.2852V11.7486L88.4002 19.2253Z" fill="#7567CE"/>
<path d="M38.8281 8.75781C34.8906 8.75781 33.25 10.4402 33.25 12.6953V16.3047C33.25 18.5598 34.8906 20.2422 38.8281 20.2422H42.6426C46.2109 20.2422 46.375 19.8116 46.375 19.0938C46.375 18.2735 46.0469 17.9453 45.2266 17.9453H38.8281C36.8594 17.9453 35.875 16.9632 35.875 15.9766V15.6484H45.2266C45.8828 15.6484 46.375 15.2178 46.375 14.5C46.375 13.7822 45.8828 13.3516 45.2266 13.3516H35.875V13.0234C35.875 12.0368 36.8594 11.0547 38.8281 11.0547H45.2266C46.0469 11.0547 46.375 10.7265 46.375 9.90625C46.375 9.18842 46.2109 8.75781 42.6426 8.75781H38.8281Z" fill="#7567CE"/>
<path d="M70.4375 15.8817V9.71484C70.4375 9.0569 70.6995 8.75781 71.2759 8.75781H72.2241C72.8005 8.75781 73.0625 9.0569 73.0625 9.71484V16.1588C73.0625 18.414 71.4487 20.2422 69.4466 20.2422H66.2949C62.7266 20.2422 62.5625 19.8116 62.5625 19.0938C62.5625 18.2735 62.8906 17.9453 63.7109 17.9453H68.7969C69.673 17.9453 70.4375 16.8684 70.4375 15.8817Z" fill="#7567CE"/>
</svg>
