<?xml version="1.0" encoding="utf-8"?>
<!-- Generator: Adobe Illustrator 27.1.1, SVG Export Plug-In . SVG Version: 6.00 Build 0)  -->
<svg version="1.1" id="Layer_1" xmlns="http://www.w3.org/2000/svg" xmlns:xlink="http://www.w3.org/1999/xlink" x="0px" y="0px"
	 viewBox="0 0 562.6 146.8" style="enable-background:new 0 0 562.6 146.8;" xml:space="preserve">
<style type="text/css">
	.st0{fill:#BB82FA;}
	.st1{fill-rule:evenodd;clip-rule:evenodd;fill:#BB82FA;}
	.st2{fill:#FFFFFF;}
</style>
<g>
	<g>
		<g>
			<path class="st0" d="M562.6,30.4v75.4c0,11.9-7.3,22.1-17.7,26.5c-1,0.4-2.2-0.4-2.2-1.5c0-0.2,0-0.3,0-0.4
				c-2.1-12.3-17.1-17.6-30.6-17c-9.1,0.4-19.1,4-24.6,10c-0.6,0.7-1.6,0.7-2.3,0.1c-4.7-4.5-12.4-7.1-19.6-7.3
				c-8.3-0.2-17.6,2.6-22.4,8.2c-0.6,0.7-1.6,0.8-2.3,0.2c-3.5-2.9-8.6-4.7-13.4-4.9c-12.5-0.6-19.7,7.3-19.5,12.9
				c0,0.1,0,0.2,0,0.3c0,0.9-0.7,1.6-1.6,1.6h-376C13.7,134.5,0,120.9,0,104.2V30.4C0,13.7,13.7,0,30.4,0h501.8
				C548.9,0,562.6,13.7,562.6,30.4z"/>
		</g>
		<g>
			<g>
				<path class="st1" d="M533.5,133.3c0.3,7-8.5,13-19.5,13.4c-11.1,0.5-20.3-4.8-20.6-11.8c-0.3-8,10.3-13,19.5-13.4
					C522.1,121.2,533.2,125.3,533.5,133.3z"/>
			</g>
			<g>
				<path class="st1" d="M481.1,134.5c-0.3,5.7-7.9,10.2-17,10c-9.1-0.2-16.2-5-15.9-10.7c0.4-6.6,9.4-10.1,17-10
					C473,124,481.5,128,481.1,134.5z"/>
			</g>
			<g>
				<path class="st1" d="M439.2,134.7c-0.3,4.3-6.2,7.7-13,7.4c-6.8-0.2-12.1-3.9-11.9-8.2c-0.1-3.2,4.7-7.8,13-7.6
					C433.1,126.6,439.6,129.7,439.2,134.7z"/>
			</g>
		</g>
	</g>
	<g>
		<path class="st2" d="M108,48.8c-1.7,0-3.1-0.5-4.2-1.5c-1.1-1-1.6-2.2-1.6-3.6c0-1.4,0.5-2.6,1.6-3.6c1.1-1,2.5-1.5,4.2-1.5
			c1.7,0,3.1,0.5,4.1,1.4c1.1,0.9,1.6,2.1,1.6,3.5c0,1.5-0.5,2.8-1.6,3.7C111.1,48.3,109.8,48.8,108,48.8z M103.4,84.4V53.2h9.2
			v31.2H103.4z"/>
		<path class="st2" d="M140.6,52.7c2.5,0,4.8,0.5,6.8,1.5c2,1,3.6,2.5,4.7,4.5c1.1,2,1.7,4.6,1.7,7.8v17.9h-9.2V67.9
			c0-2.5-0.6-4.4-1.7-5.6c-1.1-1.2-2.7-1.8-4.8-1.8c-1.5,0-2.8,0.3-3.9,0.9c-1.2,0.6-2.1,1.5-2.7,2.8c-0.7,1.2-1,2.8-1,4.8v15.4
			h-9.2V53.2h8.8v8.7l-1.7-2.6c1.1-2.1,2.8-3.7,4.9-4.8C135.5,53.3,137.9,52.7,140.6,52.7z"/>
		<path class="st2" d="M162.2,84.4V41.3h9.2v43.1H162.2z M169.8,78l0.2-11L185,53.2h11l-14.3,14.2l-4.8,3.8L169.8,78z M186,84.4
			l-10.8-13.1l5.8-7l16.2,20.2H186z"/>
		<path class="st2" d="M205.7,84.9c-1.7,0-3-0.5-4.1-1.6c-1.1-1-1.6-2.3-1.6-3.7c0-1.5,0.5-2.7,1.6-3.7c1.1-1,2.4-1.5,4.1-1.5
			c1.7,0,3.1,0.5,4.1,1.5c1,1,1.6,2.2,1.6,3.7c0,1.4-0.5,2.7-1.6,3.7C208.7,84.4,207.4,84.9,205.7,84.9z M202,70.3l-1.8-26.5h11
			l-1.8,26.5H202z"/>
		<path class="st2" d="M244.5,84.4v-33h-13.3v-7.7h36.2v7.7h-13.3v33H244.5z"/>
		<path class="st2" d="M284.4,84.9c-3.6,0-6.8-0.7-9.6-2.1c-2.7-1.4-4.9-3.3-6.4-5.7c-1.5-2.4-2.3-5.2-2.3-8.3
			c0-3.1,0.7-5.9,2.2-8.3c1.5-2.4,3.5-4.3,6.1-5.7c2.6-1.4,5.5-2.1,8.7-2.1c3.1,0,5.9,0.6,8.4,1.9c2.5,1.3,4.5,3.2,6,5.6
			c1.5,2.4,2.2,5.3,2.2,8.7c0,0.3,0,0.7-0.1,1.2c0,0.4-0.1,0.9-0.1,1.2h-25.9v-5.3h21l-3.6,1.6c0-1.6-0.3-3-1-4.2
			c-0.7-1.2-1.6-2.1-2.8-2.8c-1.2-0.7-2.6-1-4.2-1s-3,0.3-4.2,1c-1.2,0.7-2.1,1.6-2.8,2.8c-0.7,1.2-1,2.7-1,4.3v1.4
			c0,1.7,0.4,3.2,1.2,4.5c0.8,1.3,1.9,2.3,3.3,3c1.4,0.7,3.1,1,5,1c1.7,0,3.2-0.3,4.5-0.8c1.3-0.5,2.5-1.3,3.5-2.3l4.9,5.2
			c-1.5,1.6-3.3,2.9-5.5,3.7C289.9,84.5,287.3,84.9,284.4,84.9z"/>
		<path class="st2" d="M316.8,84.9c-2.7,0-5.3-0.3-7.9-1c-2.5-0.6-4.5-1.4-6-2.4L306,75c1.5,0.9,3.2,1.6,5.2,2.2
			c2,0.6,4,0.8,5.9,0.8c2.1,0,3.6-0.3,4.5-0.8c0.9-0.5,1.3-1.2,1.3-2.1c0-0.7-0.3-1.3-1-1.7c-0.7-0.4-1.6-0.6-2.8-0.8
			c-1.1-0.2-2.4-0.4-3.8-0.6c-1.4-0.2-2.7-0.5-4.1-0.8c-1.4-0.3-2.6-0.8-3.8-1.5c-1.1-0.7-2.1-1.5-2.8-2.7c-0.7-1.1-1-2.6-1-4.4
			c0-2,0.6-3.7,1.7-5.2c1.2-1.5,2.9-2.7,5.1-3.6c2.2-0.9,4.9-1.3,7.9-1.3c2.2,0,4.4,0.2,6.6,0.7c2.3,0.5,4.1,1.1,5.6,2l-3.1,6.4
			c-1.5-0.9-3.1-1.5-4.7-1.8c-1.6-0.3-3.1-0.5-4.5-0.5c-2.1,0-3.6,0.3-4.5,0.8c-0.9,0.5-1.4,1.2-1.4,2.1c0,0.8,0.3,1.4,1,1.7
			c0.7,0.4,1.6,0.7,2.8,0.9c1.1,0.2,2.4,0.4,3.8,0.6s2.7,0.4,4.1,0.8c1.4,0.3,2.6,0.8,3.8,1.5c1.1,0.6,2,1.5,2.8,2.6
			c0.7,1.1,1.1,2.5,1.1,4.3c0,1.9-0.6,3.6-1.8,5.1c-1.2,1.5-2.9,2.7-5.1,3.5C322.7,84.5,320,84.9,316.8,84.9z"/>
		<path class="st2" d="M333.7,60.9v-7h22.1v7H333.7z M350.5,84.9c-3.8,0-6.7-0.9-8.8-2.8c-2.1-1.9-3.1-4.7-3.1-8.4V46.3h9.2v27.3
			c0,1.3,0.4,2.3,1.1,3c0.7,0.7,1.7,1.1,2.9,1.1c1.5,0,2.7-0.4,3.7-1.2l2.5,6.4c-0.9,0.7-2.1,1.2-3.4,1.5S352,84.9,350.5,84.9z"/>
		<path class="st2" d="M382.7,52.7c2.5,0,4.8,0.5,6.8,1.5c2,1,3.6,2.5,4.7,4.5c1.1,2,1.7,4.6,1.7,7.8v17.9h-9.2V67.9
			c0-2.5-0.6-4.4-1.7-5.6c-1.1-1.2-2.7-1.8-4.8-1.8c-1.5,0-2.8,0.3-3.9,0.9c-1.2,0.6-2.1,1.5-2.7,2.8c-0.7,1.2-1,2.8-1,4.8v15.4
			h-9.2V53.2h8.8v8.7l-1.7-2.6c1.1-2.1,2.8-3.7,4.9-4.8C377.5,53.3,380,52.7,382.7,52.7z"/>
		<path class="st2" d="M420.3,84.9c-3.6,0-6.8-0.7-9.6-2.1c-2.7-1.4-4.9-3.3-6.4-5.7c-1.5-2.4-2.3-5.2-2.3-8.3
			c0-3.1,0.7-5.9,2.2-8.3c1.5-2.4,3.5-4.3,6.1-5.7c2.6-1.4,5.5-2.1,8.7-2.1c3.1,0,5.9,0.6,8.4,1.9c2.5,1.3,4.5,3.2,6,5.6
			c1.5,2.4,2.2,5.3,2.2,8.7c0,0.3,0,0.7-0.1,1.2c0,0.4-0.1,0.9-0.1,1.2h-25.9v-5.3h21l-3.6,1.6c0-1.6-0.3-3-1-4.2
			c-0.7-1.2-1.6-2.1-2.8-2.8c-1.2-0.7-2.6-1-4.1-1c-1.6,0-3,0.3-4.2,1c-1.2,0.7-2.1,1.6-2.8,2.8c-0.7,1.2-1,2.7-1,4.3v1.4
			c0,1.7,0.4,3.2,1.2,4.5c0.8,1.3,1.9,2.3,3.3,3c1.4,0.7,3.1,1,5,1c1.7,0,3.2-0.3,4.5-0.8c1.3-0.5,2.5-1.3,3.5-2.3l4.9,5.2
			c-1.5,1.6-3.3,2.9-5.5,3.7C425.8,84.5,423.2,84.9,420.3,84.9z"/>
		<path class="st2" d="M438.1,60.9v-7h22.1v7H438.1z M454.9,84.9c-3.8,0-6.7-0.9-8.8-2.8c-2.1-1.9-3.1-4.7-3.1-8.4V46.3h9.2v27.3
			c0,1.3,0.4,2.3,1.1,3c0.7,0.7,1.7,1.1,2.9,1.1c1.5,0,2.7-0.4,3.7-1.2l2.5,6.4c-0.9,0.7-2.1,1.2-3.4,1.5S456.4,84.9,454.9,84.9z"/>
	</g>
</g>
</svg>
