<?xml version="1.0" encoding="UTF-8"?>
<svg width="180px" height="50px" viewBox="0 0 180 50" version="1.1" xmlns="http://www.w3.org/2000/svg" xmlns:xlink="http://www.w3.org/1999/xlink">
    <!-- Generator: Sketch 52.6 (67491) - http://www.bohemiancoding.com/sketch -->
    <title>shiden</title>
    <desc>Created with Sketch.</desc>
    <g id="shiden" stroke="none" stroke-width="1" fill="none" fill-rule="evenodd">
        <g id="shiden-1671664457-logotic-brand" transform="translate(0.500000, 1.000000)" fill="#FFFFFF" fill-rule="nonzero">
            <path d="M30.6547947,10.4042053 C24.9765851,11.996759 19.7331837,14.8500751 15.3172567,18.7504753 C9.86327188,23.8255229 13.5680346,28.3565597 13.6110923,28.4782463 C13.6541501,28.5999329 11.6053177,24.8187004 16.4026714,20.3145062 C20.9154526,16.7219491 26.0874638,14.0419237 31.6289769,12.424561 C32.7753901,12.1042389 33.9289797,11.823286 35.0628344,11.619282 L35.1399796,11.619282 L36.5357691,9.29292026 L36.1769543,9.29292026 C34.3062235,9.49533015 32.4578666,9.86729541 30.6547947,10.4042053 Z M36.8425558,3.90470865 C36.2488882,3.40877199 35.6296895,2.9440613 34.9874833,2.51247064 L34.9157204,2.51247064 C32.9034574,2.79785505 30.9141643,3.22603761 28.962983,3.79375909 C22.7931628,5.48842411 14.4471308,9.05133654 10.0229445,16.1306342 C8.80112341,18.2966515 8.6469446,20.9031018 9.60492524,23.1974052 L9.60492524,22.2453864 C9.60492524,22.1344369 9.30172674,11.7588637 30.7911444,5.69242814 C32.5744539,5.16452298 34.6519915,4.67956604 36.7564402,4.20355665 L37.1367839,4.20355665 L36.8425558,3.90470865 Z M38.1522297,5.25220893 C35.8559413,5.54085099 33.5855927,6.006928 31.3616599,6.64623644 C25.7341072,8.15825369 20.4606361,10.7621319 15.8429203,14.308914 C12.7696717,16.7014875 10.8195133,19.5575439 10.4911978,22.1827536 C10.3225548,23.460463 11.8833991,26.1858852 11.8833991,26.1858852 L11.5622599,25.2302874 C11.5622599,25.2302874 10.1700585,20.7815681 17.0593024,15.6850464 C20.8191677,12.857556 25.0797438,10.7624365 29.61782,9.50945084 C32.0703191,8.81512135 34.4151737,8.35700705 37.0237572,7.88099765 L37.1134609,7.88099765 L37.1134609,7.78257466 L38.2598742,5.53316184 L38.4123705,5.23968236 L38.1522297,5.25220893 Z M8.10149128,18.6073146 C8.35086755,14.4359691 11.5102318,10.6780002 17.4647632,7.28509115 C20.7194952,5.30577163 24.2375604,3.79369002 27.9152438,2.79342355 C29.8584294,2.24573434 31.8415275,1.85024358 33.8464523,1.6105581 L31.6522999,0 C29.9946335,0.239159749 28.3556715,0.593145372 26.7473017,1.05938933 C8.31139793,6.27043955 6.0759818,15.2358797 6.23744845,18.8310032 C6.59626324,25.1050218 14.0542286,29.5680573 14.0542286,29.5680573 C14.0542286,29.5680573 7.71038316,24.754278 8.10149128,18.6073146 Z M8.32575052,37.5671625 C14.0113834,35.9761388 19.2622516,33.122153 23.6848175,29.219103 C29.1513608,24.1440555 25.4412159,19.6076502 25.4017463,19.484174 C25.3622766,19.3606979 27.3752276,23.1347724 22.5886383,27.6497036 C18.078459,31.2573766 12.9066201,33.9537242 7.36233281,35.5879656 C6.21591957,35.9082877 5.06053595,36.1838721 3.91591678,36.3914551 L3.84774197,36.3914551 L2.45374652,38.7178168 L2.80000279,38.7178168 C4.67355583,38.5050797 6.5233563,38.1198864 8.32575052,37.5671625 Z M2.1451658,44.1042389 C2.73446791,44.6056337 3.35398358,45.0705823 4.00023825,45.4964769 L4.12582343,45.4964769 C6.13945425,45.2121463 8.13001544,44.7839489 10.0821489,44.2151885 C16.2160877,42.4901018 24.4867686,38.9307684 28.962983,31.8514708 C30.1850252,29.6848573 30.3353312,27.0767162 29.3702378,24.7846997 L29.3702378,25.7581926 C29.3702378,25.8709317 29.6734363,36.2447154 8.16966608,42.3111509 C6.29665289,42.835477 4.26755527,43.3258025 2.17207691,43.7696007 L1.89578952,43.8680237 L2.1451658,44.1042389 Z M0.848050344,42.7567386 C3.14214323,42.4655306 5.41050622,41.9994918 7.63323798,41.3627111 C13.2466266,39.8537535 18.5083198,37.2600013 23.1196842,33.7286657 C26.2413729,31.3486187 28.1717964,28.4854043 28.4714068,25.8548261 C28.2893068,24.4403284 27.8146141,23.0789834 27.0774113,21.857063 L27.385992,22.8180293 C27.385992,22.8180293 28.7943401,27.2774857 21.901508,32.3704284 C18.1482086,35.1981866 13.8908599,37.2895639 9.35554896,38.5334974 C6.90304988,39.2278269 4.54384266,39.6859412 1.94961174,40.1619506 L1.89578952,40.1619506 L1.89578952,40.2603736 C1.70023546,40.6594341 0.749376277,42.4829437 0.749376277,42.5097864 L0.5,42.7907393 L0.848050344,42.7567386 Z M30.8862303,29.4016329 C30.6225014,33.5729784 27.4774898,37.3309473 21.5229584,40.7238564 C18.2674458,42.7100417 14.7517161,44.2366943 11.0760659,45.2602617 C9.13605182,45.8059699 7.15668639,46.201434 5.15562187,46.4431272 L7.32645133,48 C8.98465045,47.7637941 10.6238197,47.4097637 12.2314495,46.9406107 C30.6547947,41.738508 32.9494153,32.7730679 32.7574494,29.219103 C32.3986346,22.9558215 24.9191404,18.482049 24.9191404,18.482049 C24.9191404,18.482049 31.2647799,23.2546695 30.8862303,29.4016329 Z M178.499046,13.8042725 L178.499046,33.4172911 C178.507794,33.6847452 178.456296,33.9507515 178.348344,34.1957275 C178.245793,34.4218261 178.103628,34.6278645 177.92853,34.8041606 C177.74721,34.9779519 177.534015,35.1152647 177.300604,35.2085896 C177.057304,35.3100205 176.796434,35.3629128 176.532741,35.3642769 C176.280965,35.3617519 176.031293,35.3182309 175.793582,35.2354323 C175.546884,35.1342591 175.323908,34.983143 175.138745,34.791634 L160.870475,20.0890281 L160.870475,35.0851135 L156.9576,35.0851135 L156.9576,15.4237781 C156.950321,15.039415 157.067329,14.6629315 157.291298,14.3500727 C157.508758,14.0351362 157.807552,13.7847143 158.156041,13.6253216 C158.897485,13.3239574 159.747994,13.4992822 160.30893,14.0691198 L174.61667,28.7860418 L174.61667,13.8042725 L178.499046,13.8042725 Z M153.12187,31.2197741 L153.12187,35.0851135 L138.991744,35.0851135 C138.37092,35.0808208 137.754406,34.9818503 137.163582,34.791634 C136.513759,34.6080999 135.907388,34.296559 135.380273,33.8754054 C134.803769,33.4170998 134.329063,32.8442715 133.986277,32.193267 C133.604885,31.404184 133.420241,30.5348808 133.448055,29.6593222 L133.448055,15.7441002 C133.444256,15.4818083 133.493054,15.2214045 133.591581,14.9781904 C133.68552,14.743441 133.826547,14.5303076 134.006012,14.3518622 C134.192511,14.1809331 134.404305,14.0396937 134.633938,13.9331171 C134.882558,13.83678 135.147693,13.7899674 135.41436,13.7953249 L153.057283,13.7953249 L153.057283,17.6463483 L137.418341,17.6463483 L137.418341,29.6539537 C137.389906,30.0782062 137.534876,30.4958692 137.820213,30.811766 C138.149128,31.1002465 138.579885,31.2458287 139.016861,31.2161951 L153.12187,31.2197741 Z M151.360089,22.4816016 L151.360089,26.4489431 L138.991744,26.4489431 L138.991744,22.5442344 L151.360089,22.4816016 Z M125.826829,26.1518846 L125.826829,22.6909742 C125.835606,21.9882017 125.713954,21.2898744 125.468014,20.6312493 C125.233872,20.0335559 124.879081,19.4902364 124.425657,19.0350073 C123.956067,18.5889923 123.400671,18.242601 122.79305,18.0167766 C122.130962,17.7626918 121.426672,17.6357929 120.717306,17.6427693 L112.062694,17.6427693 L112.062694,31.2108265 L120.717306,31.2108265 C121.426322,31.2242116 122.131403,31.1027458 122.794844,30.8529247 C124.023985,30.4089118 124.999775,29.4551889 125.469808,28.2384521 C125.718637,27.5713329 125.839739,26.8635608 125.826829,26.1518846 Z M129.745086,22.6838161 L129.745086,26.1518846 C129.763235,27.3821159 129.531321,28.6032627 129.063338,29.7416396 C128.625187,30.786833 127.983707,31.735048 127.175973,32.5314842 C126.372646,33.3244854 125.421984,33.9536086 124.377217,34.383626 C123.232564,34.8376278 122.010062,35.0643642 120.778305,35.0511129 L110.13227,35.0511129 C109.608149,35.0552129 109.10302,34.855601 108.723922,34.4945756 C108.548073,34.3121082 108.405948,34.1000694 108.304109,33.8682474 C108.205588,33.6251818 108.158555,33.3644123 108.165965,33.1023375 L108.165965,15.7262051 C108.162225,15.464418 108.20913,15.2043674 108.304109,14.9602953 C108.405985,14.7295607 108.548129,14.5187042 108.723922,14.3375461 C108.909186,14.1672185 109.119798,14.0265636 109.34826,13.9205905 C109.59736,13.8215255 109.864226,13.7746231 110.13227,13.7827983 L120.717306,13.7827983 C121.945448,13.7709446 123.16416,13.997656 124.305454,14.4502852 C125.348852,14.8742816 126.296302,15.5028873 127.091651,16.298848 C127.907658,17.0864276 128.552534,18.0330067 128.986193,19.079745 C129.486939,20.2181455 129.745353,21.447822 129.745086,22.6909742 L129.745086,22.6838161 Z M103.600047,13.8042725 L103.600047,35.076166 L99.6817895,35.076166 L99.6817895,13.8042725 L103.600047,13.8042725 Z M77.3975971,13.8042725 L77.3975971,22.4816016 L91.1473798,22.4816016 L91.1473798,13.8042725 L95.0620491,13.8042725 L95.0620491,35.076166 L91.1473798,35.076166 L91.1473798,26.4399955 L77.3975971,26.4399955 L77.3975971,35.1423778 L73.4775456,35.1423778 L73.4775456,13.8042725 L77.3975971,13.8042725 Z M70.2213014,28.814674 C70.2320447,29.5117025 70.1277934,30.2057488 69.9127207,30.8690303 C69.7421297,31.4404785 69.4869498,31.9833164 69.1556215,32.4795884 C68.8421083,32.9335728 68.456038,33.3331696 68.0127964,33.6624539 C67.5854735,33.9915416 67.1168337,34.2634672 66.6188009,34.4713119 C65.7328925,34.866664 64.7744065,35.0744474 63.8038989,35.0815345 L48.7749415,35.0815345 L48.7749415,31.2161951 L63.8953967,31.2161951 C64.5397442,31.2750314 65.1786632,31.0569586 65.6517951,30.6167095 C66.0785365,30.1353683 66.2994183,29.5065254 66.2671624,28.8647802 C66.258319,28.5109148 66.1828531,28.1618624 66.0446973,27.8358125 C65.8716012,27.2388155 65.4197843,26.7621481 64.8319033,26.5563136 C64.5200294,26.4363312 64.1883958,26.3756358 63.854133,26.3773627 L54.8945277,26.3773627 C54.203866,26.3693607 53.5184509,26.2565218 52.861842,26.0427245 C52.117469,25.8147414 51.4221015,25.4506479 50.8112154,24.9690191 C50.156406,24.4353525 49.6199889,23.7717172 49.2360185,23.0202438 C48.8045635,22.1031847 48.594428,21.0980812 48.6224452,20.0854491 C48.5897988,19.0724102 48.8001572,18.0662408 49.2360185,17.1506543 C49.6206116,16.4011129 50.15699,15.7393535 50.8112154,15.2072475 C51.4172713,14.7153549 52.1138724,14.3463601 52.861842,14.1210155 C53.5195782,13.9140701 54.2048517,13.8072874 54.8945277,13.8042725 L68.2442319,13.8042725 L68.2442319,17.6552958 L54.8945277,17.6552958 C54.2494839,17.6181116 53.6199402,17.8615859 53.1686286,18.3227827 C52.7350451,18.8115015 52.509759,19.4496861 52.5407027,20.1015546 C52.506481,20.7474373 52.7325681,21.3801592 53.1686286,21.8588525 C53.630963,22.2985941 54.2571418,22.5245357 54.8945277,22.4816016 L63.9456307,22.4816016 C64.4157895,22.4936847 64.8834807,22.5536463 65.3414203,22.6605525 C65.8244764,22.7675537 66.2930388,22.9315537 66.7372098,23.1490885 C67.2339522,23.3643169 67.7026474,23.6389296 68.1329993,23.9668941 C68.5619316,24.3030151 68.9375367,24.7017965 69.2471192,25.1497595 C69.5859423,25.64501 69.8489655,26.1878114 70.0275414,26.7603176 C70.2000957,27.4276651 70.2678794,28.1176627 70.2284777,28.8057264 L70.2213014,28.814674 Z" id="Shape"></path>
        </g>
    </g>
</svg>