<?xml version="1.0" encoding="utf-8"?>
<!-- Generator: Adobe Illustrator 27.6.1, SVG Export Plug-In . SVG Version: 6.00 Build 0)  -->
<svg version="1.1" id="Layer_1" xmlns="http://www.w3.org/2000/svg" xmlns:xlink="http://www.w3.org/1999/xlink" x="0px" y="0px"
	 viewBox="0 0 562.6 145.8" style="enable-background:new 0 0 562.6 145.8;" xml:space="preserve">
<style type="text/css">
	.st0{fill:#1B1B1D;}
	.st1{fill-rule:evenodd;clip-rule:evenodd;fill:#1B1B1D;}
	.st2{fill:#FFFFFF;}
</style>
<g>
	<path class="st0" d="M562.6,30.4v75.4c0,11.9-7.3,22.1-17.7,26.5c-1,0.4-2.2-0.4-2.2-1.5c0-0.2,0-0.3,0-0.4
		c-2.1-12.3-17.1-17.6-30.6-17c-9.1,0.4-19.1,4-24.6,10c-0.6,0.7-1.6,0.7-2.3,0.1c-4.7-4.5-12.4-7.1-19.6-7.3
		c-8.3-0.2-17.6,2.6-22.4,8.2c-0.6,0.7-1.6,0.8-2.3,0.2c-3.5-2.9-8.6-4.7-13.4-4.9c-12.5-0.6-19.7,7.3-19.5,12.9c0,0.1,0,0.2,0,0.3
		c0,0.9-0.7,1.6-1.6,1.6h-376C13.7,134.5,0,120.9,0,104.2V30.4C0,13.7,13.7,0,30.4,0h501.8C548.9,0,562.6,13.7,562.6,30.4z"/>
	<g>
		<path class="st1" d="M533.5,132.3c0.3,7-8.5,13-19.5,13.4c-11.1,0.5-20.3-4.8-20.6-11.8c-0.3-8,10.3-13,19.5-13.4
			C522.1,120.2,533.2,124.3,533.5,132.3z"/>
		<path class="st1" d="M481.1,133.5c-0.3,5.7-7.9,10.2-17,10c-9.1-0.2-16.2-5-15.9-10.7c0.4-6.6,9.4-10.1,17-10
			C473,123,481.5,127,481.1,133.5z"/>
		<path class="st1" d="M439.2,133.7c-0.3,4.3-6.2,7.7-13,7.4c-6.8-0.2-12.1-3.9-11.9-8.2c-0.1-3.2,4.7-7.8,13-7.6
			C433.1,125.6,439.6,128.7,439.2,133.7z"/>
	</g>
</g>
<g>
	<path class="st2" d="M248.5,94.1c-2.8,0-5.3-0.6-7.3-1.7c-2-1.1-3.6-2.7-4.7-4.8c-1.1-2.1-1.7-4.7-1.7-7.7V60.9h-7v-8.7h7V41.5
		h10.8v10.7h11.2v8.7h-11.2v17.7c0,1.9,0.4,3.5,1.2,4.5c0.8,1,2.1,1.6,3.8,1.6c0.9,0,1.8-0.1,2.8-0.4c1-0.3,2-0.6,2.9-1l1.9,8.1
		c-1.3,0.8-2.8,1.4-4.5,1.9C252.1,93.8,250.4,94.1,248.5,94.1z"/>
	<path class="st2" d="M283.2,94.1c-3,0-5.9-0.6-8.4-1.6c-2.5-1-4.8-2.5-6.6-4.5c-1.9-1.9-3.3-4.2-4.3-6.9c-1.1-2.7-1.5-5.6-1.5-8.7
		c0-3,0.5-5.9,1.5-8.5c1.1-2.7,2.5-4.9,4.3-6.9c1.8-1.9,4-3.4,6.5-4.5c2.5-1.1,5.1-1.6,8.1-1.6c3,0,5.7,0.5,8.2,1.5
		c2.4,1,4.5,2.5,6.3,4.4c1.8,1.9,3.1,4.2,4,6.8c0.9,2.7,1.4,5.6,1.4,8.8v2.7h-29.3c0.4,3,1.5,5.4,3.3,7.1c1.8,1.7,4,2.6,6.6,2.6
		c1.9,0,3.5-0.4,5.1-1.3s2.8-2.2,3.8-3.8l9.7,3.1c-0.9,2.3-2.3,4.3-4.2,6c-1.9,1.7-4,2.9-6.5,3.8C288.6,93.7,286,94.1,283.2,94.1z
		 M282.7,59.3c-2.4,0-4.4,0.8-6,2.3c-1.6,1.5-2.7,3.6-3.2,6.4h18c-0.4-2.7-1.4-4.8-3-6.4C287,60.1,285,59.3,282.7,59.3z"/>
	<path class="st2" d="M309.4,93V52.1h10l0.4,6.2c1.1-2.2,2.4-3.8,4.2-5c1.8-1.2,3.8-1.7,6.2-1.7c0.7,0,1.4,0.1,2.2,0.2
		c0.7,0.1,1.4,0.3,1.9,0.5L333.1,63c-0.6-0.2-1.2-0.3-1.7-0.4c-0.6-0.1-1.2-0.1-1.8-0.1c-3,0-5.3,0.9-6.9,2.8
		c-1.6,1.8-2.4,4.4-2.4,7.8v20H309.4z"/>
	<path class="st2" d="M340.1,93V52.1h10l0.3,5.2c1.2-1.9,2.8-3.5,4.9-4.7c2.1-1.2,4.5-1.7,7.1-1.7c3,0,5.6,0.7,7.9,2.1
		c2.3,1.4,4,3.4,5.2,6.1c1.2,2.7,1.9,5.7,1.9,9.3V93h-10.8V69.8c0-2.8-0.7-5.1-1.9-6.7c-1.3-1.6-3.1-2.4-5.4-2.4
		c-1.7,0-3.1,0.4-4.3,1.1c-1.2,0.8-2.2,1.8-2.9,3.1c-0.7,1.3-1.1,2.9-1.1,4.6V93H340.1z"/>
	<path class="st2" d="M405.8,94.1c-3,0-5.9-0.6-8.5-1.6c-2.6-1.1-4.8-2.6-6.7-4.5c-1.9-1.9-3.4-4.2-4.4-6.9
		c-1.1-2.7-1.6-5.5-1.6-8.6c0-3.1,0.6-6,1.6-8.6c1.1-2.6,2.6-4.9,4.5-6.9c1.9-1.9,4.2-3.5,6.8-4.6c2.6-1.1,5.5-1.6,8.6-1.6
		c3,0,5.9,0.6,8.5,1.6c2.6,1.1,4.8,2.6,6.7,4.5c1.9,1.9,3.4,4.2,4.4,6.8c1.1,2.6,1.6,5.5,1.6,8.6c0,3.1-0.6,6-1.6,8.6
		c-1.1,2.7-2.6,4.9-4.5,6.9c-1.9,1.9-4.2,3.5-6.8,4.6C411.7,93.6,408.9,94.1,405.8,94.1z M405.9,84.4c1.9,0,3.7-0.5,5.3-1.5
		c1.5-1,2.8-2.4,3.6-4.2c0.9-1.8,1.3-3.8,1.3-6.1c0-2.3-0.4-4.3-1.3-6.1c-0.9-1.8-2.1-3.2-3.6-4.2c-1.5-1-3.3-1.5-5.3-1.5
		c-1.9,0-3.7,0.5-5.3,1.5c-1.5,1-2.8,2.4-3.6,4.2c-0.9,1.8-1.3,3.8-1.3,6.1c0,2.3,0.4,4.3,1.3,6.1c0.9,1.8,2.1,3.2,3.6,4.2
		C402.2,83.8,404,84.4,405.9,84.4z"/>
	<path class="st2" d="M447,94.1c-2.1,0-4-0.3-5.8-0.9c-1.8-0.6-3.3-1.5-4.6-2.7c-1.3-1.2-2.3-2.5-3-4c-0.7-1.5-1.1-3.3-1.1-5.1
		c0-2.6,0.7-4.9,2.1-6.8c1.4-1.9,3.4-3.5,5.9-4.6c2.5-1.1,5.5-1.7,8.8-1.7c1.7,0,3.3,0.2,4.8,0.4c1.5,0.3,3,0.8,4.4,1.3v-2.4
		c0-2.3-0.7-4.2-2-5.6c-1.3-1.4-3.1-2.2-5.4-2.2c-1.7,0-3.3,0.4-4.6,1.3c-1.4,0.8-2.4,2-2.9,3.6l-9.7-1.9c0.6-2.4,1.7-4.4,3.4-6.2
		c1.7-1.8,3.7-3.1,6.1-4.1c2.4-1,5-1.5,7.9-1.5c2.7,0,5,0.4,7.2,1.2c2.2,0.8,4,2,5.6,3.5c1.5,1.5,2.8,3.4,3.7,5.5
		c0.8,2.1,1.3,4.4,1.3,7V93h-9.7l-0.3-4.8c-1.1,1.8-2.7,3.2-4.7,4.3C452.3,93.6,449.9,94.1,447,94.1z M443.2,80.8
		c0,1.4,0.6,2.7,1.8,3.5c1.2,0.9,2.8,1.4,4.7,1.4c1.7,0,3.2-0.4,4.6-1.1c1.3-0.7,2.4-1.7,3.2-3c0.8-1.3,1.2-2.7,1.2-4.2V77
		c-1.2-0.4-2.3-0.8-3.7-1.1c-1.3-0.3-2.6-0.4-3.9-0.4c-2.4,0-4.4,0.5-5.8,1.4C443.8,77.9,443.2,79.2,443.2,80.8z"/>
	<path class="st2" d="M146.2,17.2c-11.5,0-22.7,3.8-31.9,10.8c-9.2,7-15.8,16.8-18.9,27.9s-2.5,23,1.8,33.7
		c4.2,10.7,11.9,19.8,21.7,25.8c2,1.2,4.3,1.9,6.6,1.9h0.2c1.7,0,3.4-0.3,5-1c1.6-0.7,3-1.6,4.2-2.8c1.2-1.2,2.2-2.7,2.8-4.3
		c0.7-1.6,1-3.3,1-5V80.1c0-0.1-0.1-0.3-0.2-0.4c-0.1-0.1-0.2-0.1-0.4-0.2h-7.9c-1,0-2-0.1-2.9-0.5s-1.8-0.9-2.5-1.6
		c-0.7-0.7-1.3-1.5-1.7-2.4c-0.4-0.9-0.6-1.9-0.6-2.9c0-1,0.2-2,0.6-2.9c0.4-0.9,1-1.8,1.7-2.4c0.7-0.7,1.6-1.2,2.5-1.6
		c0.9-0.4,1.9-0.5,2.9-0.5H162c1,0,2,0.1,2.9,0.5c0.9,0.4,1.8,0.9,2.5,1.6c0.7,0.7,1.3,1.5,1.7,2.4c0.4,0.9,0.6,1.9,0.6,2.9
		c0,1-0.2,2-0.6,2.9c-0.4,0.9-1,1.8-1.7,2.4c-0.7,0.7-1.6,1.2-2.5,1.6c-0.9,0.4-1.9,0.5-2.9,0.5h-7.9c-0.1,0-0.3,0.1-0.4,0.2
		c-0.1,0.1-0.1,0.2-0.2,0.4v24.1c0,3.5,1.4,6.8,3.9,9.2c2.4,2.5,5.8,3.8,9.2,3.9h0.2c2.3,0,4.6-0.7,6.6-1.9c9.8-6,17.4-15,21.7-25.8
		c4.2-10.7,4.8-22.6,1.8-33.7C193.8,44.8,187.2,35,178,28C168.9,21,157.7,17.3,146.2,17.2L146.2,17.2z M108.8,80.6
		c-1.7,0-3.3-0.5-4.7-1.4c-1.4-0.9-2.5-2.3-3.1-3.8c-0.6-1.5-0.8-3.2-0.5-4.9c0.3-1.6,1.1-3.2,2.3-4.3c1.2-1.2,2.7-2,4.3-2.3
		c1.6-0.3,3.3-0.2,4.9,0.5c1.5,0.6,2.9,1.7,3.8,3.1c0.9,1.4,1.4,3,1.4,4.7c0,2.2-0.9,4.4-2.5,6C113.2,79.7,111.1,80.6,108.8,80.6
		L108.8,80.6z M146.2,55.4c-2.6,0-5.1-0.8-7.3-2.2c-2.2-1.4-3.8-3.5-4.8-5.9c-1-2.4-1.3-5-0.7-7.6c0.5-2.5,1.7-4.9,3.6-6.7
		c1.8-1.8,4.2-3.1,6.7-3.6c2.5-0.5,5.2-0.2,7.6,0.7c2.4,1,4.4,2.7,5.9,4.8c1.4,2.2,2.2,4.7,2.2,7.3c0,3.5-1.4,6.8-3.8,9.3
		C153,54,149.7,55.4,146.2,55.4L146.2,55.4z M183.4,80.6c-1.7,0-3.3-0.5-4.7-1.4c-1.4-0.9-2.5-2.3-3.1-3.8c-0.6-1.5-0.8-3.2-0.5-4.9
		c0.3-1.6,1.1-3.2,2.3-4.3c1.2-1.2,2.7-2,4.3-2.3c1.6-0.3,3.3-0.2,4.9,0.5c1.5,0.6,2.9,1.7,3.8,3.1c0.9,1.4,1.4,3,1.4,4.7
		c0,2.2-0.9,4.4-2.5,6C187.8,79.7,185.7,80.6,183.4,80.6z"/>
</g>
</svg>
