<?xml version="1.0" encoding="UTF-8"?>
<svg id="Layer_1" data-name="Layer 1" xmlns="http://www.w3.org/2000/svg" xmlns:xlink="http://www.w3.org/1999/xlink" viewBox="0 0 562.55 145.79">
  <defs>
    <style>
      .cls-1, .cls-2 {
        fill: none;
      }

      .cls-3 {
        fill: #0001fe;
      }

      .cls-4 {
        fill: #fff;
      }

      .cls-5, .cls-6 {
        fill: #1b1b1d;
      }

      .cls-6 {
        fill-rule: evenodd;
      }

      .cls-2 {
        clip-path: url(#clippath);
      }
    </style>
    <clipPath id="clippath">
      <rect class="cls-1" x="69.14" y="25.07" width="84.65" height="85.65"/>
    </clipPath>
  </defs>
  <g>
    <path class="cls-5" d="m562.55,30.36v75.44c0,11.89-7.31,22.14-17.66,26.5-1.04.44-2.15-.35-2.21-1.49,0-.15-.02-.3-.05-.44-2.11-12.29-17.08-17.58-30.62-17.02-9.11.38-19.08,3.97-24.58,10-.61.67-1.64.71-2.31.08-4.73-4.46-12.39-7.07-19.56-7.27-8.26-.21-17.55,2.63-22.43,8.21-.59.67-1.58.75-2.27.18-3.54-2.93-8.63-4.67-13.39-4.87-12.52-.56-19.71,7.32-19.48,12.91,0,.11,0,.23,0,.34,0,.89-.72,1.6-1.61,1.6H30.36c-16.7,0-30.36-13.66-30.36-30.36V30.36C0,13.66,13.66,0,30.36,0h501.84c16.7,0,30.36,13.66,30.36,30.36Z"/>
    <g>
      <path class="cls-6" d="m533.52,132.32c.29,6.97-8.45,12.98-19.52,13.44-11.08.46-20.29-4.81-20.58-11.78-.33-8,10.26-13.05,19.54-13.43,9.16-.38,20.23,3.74,20.57,11.77Z"/>
      <path class="cls-6" d="m481.15,133.54c-.32,5.72-7.93,10.17-17,9.96-9.08-.2-16.17-5-15.85-10.71.43-6.62,9.39-10.14,17.01-9.97,7.66.18,16.17,4.23,15.84,10.72Z"/>
      <path class="cls-6" d="m439.18,133.66c-.32,4.34-6.15,7.68-13.04,7.44-6.84-.23-12.14-3.88-11.91-8.16-.13-3.24,4.69-7.84,13.03-7.56,5.81.19,12.33,3.36,11.92,8.29Z"/>
    </g>
  </g>
  <g>
    <path class="cls-4" d="m191.28,85.54v-4.55l13.54-19.64h-12.82v-6.97h24.77v4.74l-13.4,19.45h13.69v6.97h-25.78Zm41.56.48c-2.68,0-5.05-.44-7.11-1.31-2.03-.9-3.63-2.24-4.79-4.01-1.13-1.77-1.69-3.97-1.69-6.58,0-3.64,1.03-6.55,3.1-8.71,2.06-2.19,5.14-3.29,9.24-3.29,3.74,0,6.66.95,8.76,2.85,2.13,1.9,3.19,4.5,3.19,7.79v4.01h-15.91c.42,1.23,1.24,2.1,2.47,2.61,1.23.52,2.89.77,4.98.77,1.32,0,2.64-.11,3.97-.34,1.35-.26,2.43-.55,3.24-.87v5.47c-2.26,1.06-5.4,1.6-9.43,1.6Zm-5.22-14.17h8.08v-.82c0-.9-.29-1.64-.87-2.23-.55-.58-1.53-.87-2.95-.87-1.58,0-2.69.34-3.34,1.02-.61.65-.92,1.61-.92,2.9Zm19.94-12.29v-6.58h9.82v6.58h-9.82Zm.73,25.98v-16.3h-3.34l.77-6.63h11.66v22.93h-9.09Zm23.28.48c-3.06,0-5.29-.77-6.68-2.32-1.39-1.55-2.08-3.64-2.08-6.29v-8.08h-3v-6.72h3v-4.69l9.09-2.18v6.87h5.27l-.34,6.72h-4.93v7.4c0,.97.24,1.66.73,2.08.48.39,1.23.58,2.23.58.94,0,1.89-.16,2.85-.48v6.05c-1.71.71-3.76,1.06-6.14,1.06Zm18.62,8.03c-1.13,0-2.35-.05-3.68-.15-1.32-.06-2.58-.19-3.77-.39-1.16-.19-2.13-.42-2.9-.68v-5.8c.87.29,1.87.53,3,.73,1.16.19,2.34.34,3.53.44,1.19.1,2.29.15,3.29.15,1.71,0,3.05-.1,4.02-.29,1-.16,1.5-.47,1.5-.92,0-.39-.16-.65-.48-.77-.32-.1-.94-.15-1.84-.15h-6.05c-2.35,0-4.18-.37-5.47-1.11-1.26-.77-1.89-1.92-1.89-3.43,0-2.13,1.18-3.61,3.53-4.45-1.32-.68-2.29-1.53-2.9-2.56-.61-1.03-.92-2.34-.92-3.92,0-2.97,1-5.14,3-6.53,2.03-1.39,4.95-2.08,8.76-2.08.81,0,1.71.06,2.71.19,1,.1,1.73.19,2.18.29h9l-.19,5.51h-3.05c.58.74.87,1.64.87,2.71,0,2.35-.69,4.22-2.08,5.61-1.35,1.35-3.5,2.03-6.43,2.03-.42,0-.87-.02-1.35-.05-.48-.06-.94-.11-1.35-.15-.71.06-1.32.19-1.84.39-.52.19-.77.52-.77.97,0,.32.15.55.44.68.29.1.69.15,1.21.15h5.27c2.35,0,4.21.55,5.56,1.64s2.03,2.71,2.03,4.84c0,2.26-1.05,4-3.14,5.22-2.1,1.26-5.35,1.89-9.77,1.89Zm.77-20.56c1.42,0,2.4-.24,2.95-.73.55-.48.82-1.29.82-2.42s-.27-1.95-.82-2.47c-.55-.52-1.53-.77-2.95-.77-1.32,0-2.29.26-2.9.77-.58.48-.87,1.31-.87,2.47,0,1.1.27,1.9.82,2.42.58.48,1.56.73,2.95.73Zm28.86,12.53c-2.68,0-5.05-.44-7.11-1.31-2.03-.9-3.63-2.24-4.79-4.01-1.13-1.77-1.69-3.97-1.69-6.58,0-3.64,1.03-6.55,3.1-8.71,2.06-2.19,5.14-3.29,9.24-3.29,3.74,0,6.66.95,8.76,2.85,2.13,1.9,3.19,4.5,3.19,7.79v4.01h-15.91c.42,1.23,1.24,2.1,2.47,2.61,1.22.52,2.89.77,4.98.77,1.32,0,2.64-.11,3.97-.34,1.35-.26,2.43-.55,3.24-.87v5.47c-2.26,1.06-5.4,1.6-9.43,1.6Zm-5.22-14.17h8.08v-.82c0-.9-.29-1.64-.87-2.23-.55-.58-1.53-.87-2.95-.87-1.58,0-2.69.34-3.34,1.02-.61.65-.92,1.61-.92,2.9Zm19.94-12.29v-6.58h9.82v6.58h-9.82Zm.73,25.98v-16.3h-3.34l.77-6.63h11.66v22.93h-9.09Zm22.41.48c-1.97,0-3.82-.15-5.56-.44-1.71-.26-3.06-.6-4.06-1.02v-6.53c1.13.52,2.47.92,4.02,1.21,1.58.29,2.92.44,4.01.44,1.16,0,2.03-.03,2.61-.1.61-.06.92-.34.92-.82,0-.55-.53-.97-1.6-1.26-1.06-.29-2.4-.71-4.02-1.26-2.1-.74-3.66-1.61-4.69-2.61-1.03-1-1.55-2.45-1.55-4.35,0-2.29.9-4.05,2.71-5.27,1.8-1.26,4.64-1.89,8.51-1.89,1.49,0,3.02.11,4.6.34,1.58.23,2.82.48,3.72.77v6.39c-.97-.42-2.03-.73-3.19-.92-1.13-.19-2.16-.29-3.1-.29-1.03,0-1.95.05-2.76.15-.81.1-1.21.37-1.21.82,0,.52.45.89,1.35,1.11.93.23,2.18.58,3.72,1.06,1.74.52,3.1,1.08,4.06,1.69,1,.61,1.69,1.35,2.08,2.23.42.87.63,1.95.63,3.24,0,2.32-.95,4.13-2.85,5.42-1.87,1.26-4.66,1.89-8.37,1.89Zm23.73,0c-3.06,0-5.29-.77-6.68-2.32-1.39-1.55-2.08-3.64-2.08-6.29v-8.08h-3v-6.72h3v-4.69l9.09-2.18v6.87h5.27l-.34,6.72h-4.93v7.4c0,.97.24,1.66.73,2.08.48.39,1.22.58,2.23.58.93,0,1.89-.16,2.85-.48v6.05c-1.71.71-3.76,1.06-6.14,1.06Z"/>
    <path class="cls-3" d="m405.33,86.5v-8.22h8.9v8.22h-8.9Z"/>
    <g class="cls-2">
      <path class="cls-4" d="m111.47,25.07c-9.95-.02-19.59,3.52-27.21,9.98h54.42c-7.62-6.47-17.26-10-27.21-9.98h0Zm0,85.65c9.86.02,19.41-3.45,27-9.81h-54c7.6,6.36,17.15,9.83,27.01,9.81h0Zm20.2-63.91h16.7c-1.38-2.45-2.98-4.76-4.81-6.9h-64.16c-2.68,3.12-4.89,6.62-6.57,10.39h56.39l2.46-3.49Zm-20.61,23.6h-41.92c.2,3.53.84,7.02,1.89,10.39h36.11l2.49-3.54h43.21c.5-2.25.82-4.54.95-6.85h-42.73Zm9.43-8.38h32.97c-.31-2.34-.82-4.64-1.51-6.9h-80.98c-1.04,3.37-1.65,6.86-1.84,10.39h48.91l2.45-3.49Zm-40.97,34.02h16.79l2.45-3.49h47.36c1.52-2.17,2.84-4.48,3.93-6.9h-77.17c1.7,3.77,3.94,7.27,6.64,10.39h0Z"/>
    </g>
    <path class="cls-4" d="m434.36,85.25v-31.15h13.88c2.39,0,4.35.45,5.9,1.35,1.55.9,2.69,2.14,3.43,3.72.74,1.55,1.11,3.32,1.11,5.32,0,3.1-.97,5.58-2.9,7.45-1.9,1.87-4.48,2.81-7.74,2.81h-8.42v10.5h-5.27Zm5.27-14.66h7.45c2.1,0,3.68-.55,4.74-1.64,1.06-1.1,1.6-2.58,1.6-4.45,0-2-.52-3.55-1.55-4.64-1-1.1-2.52-1.64-4.55-1.64h-7.69v12.38Z"/>
    <path class="cls-4" d="m462.89,85.25v-31.15h5.42l9.87,20.17,9.82-20.17h5.42v31.15h-5.22v-22.59l-8.42,17.22h-3.19l-8.47-17.22v22.59h-5.22Z"/>
  </g>
</svg>