<?xml version="1.0" encoding="UTF-8"?>
<svg width="180px" height="50px" viewBox="0 0 180 50" version="1.1" xmlns="http://www.w3.org/2000/svg" xmlns:xlink="http://www.w3.org/1999/xlink">
    <!-- Generator: Sketch 52.6 (67491) - http://www.bohemiancoding.com/sketch -->
    <title>zeitgeist</title>
    <desc>Created with Sketch.</desc>
    <g id="zeitgeist" stroke="none" stroke-width="1" fill="none" fill-rule="evenodd">
        <g id="Group" transform="translate(1.000000, 7.000000)">
            <path d="M52,25.4741967 L52,23.5912853 L57.6569012,15.4637293 L52.3008101,15.4637293 L52.3008101,12.5793574 L62.6495134,12.5793574 L62.6495134,14.5408958 L57.0511031,22.5898247 L62.7706731,22.5898247 L62.7706731,25.4741967 L52,25.4741967 Z M69.3634279,25.6728335 C68.2437459,25.6728335 67.2535793,25.4907498 66.3929281,25.1307205 C65.5448107,24.7582765 64.8763438,24.2037488 64.3917053,23.4712756 C63.9196006,22.7388023 63.6856371,21.8283836 63.6856371,20.748296 C63.6856371,19.2419669 64.1159627,18.0377313 64.9807918,17.1438656 C65.8414429,16.2375852 67.1282417,15.7823759 68.8411882,15.7823759 C70.4037296,15.7823759 71.6236817,16.1755112 72.5010445,16.9617819 C73.3909411,17.7480526 73.8338004,18.8240019 73.8338004,20.1854917 L73.8338004,21.8449367 L67.1867326,21.8449367 C67.3622051,22.3539435 67.7047944,22.7139727 68.2186784,22.9250243 C68.7325623,23.1402142 69.4260967,23.2436709 70.2992816,23.2436709 C70.8507668,23.2436709 71.402252,23.19815 71.9579151,23.1029698 C72.5219341,22.9953749 72.9731492,22.8753651 73.3115606,22.7429406 L73.3115606,25.0065725 C72.3673511,25.4452288 71.0554848,25.6686952 69.3717838,25.6686952 L69.3634279,25.6728335 Z M67.1825546,19.8089094 L70.5583125,19.8089094 L70.5583125,19.4695716 C70.5583125,19.0971276 70.4371529,18.7908958 70.1948336,18.5467381 C69.9650481,18.3067186 69.5556122,18.1867089 68.9623478,18.1867089 C68.3022367,18.1867089 67.8384878,18.3274099 67.5669231,18.6088121 C67.3120701,18.8777994 67.1825546,19.275073 67.1825546,19.8089094 Z M75.5133235,14.7229796 L75.5133235,12 L79.6160391,12 L79.6160391,14.7229796 L75.5133235,14.7229796 Z M75.8183115,25.4741967 L75.8183115,18.7288218 L74.4228868,18.7288218 L74.7445865,15.9851509 L79.6160391,15.9851509 L79.6160391,25.4741967 L75.8183115,25.4741967 Z M85.544505,25.6728335 C84.2660621,25.6728335 83.3343863,25.354187 82.7536557,24.7127556 C82.1729251,24.0713242 81.8846487,23.2064265 81.8846487,22.1097858 L81.8846487,18.7660662 L80.6312732,18.7660662 L80.6312732,15.9851509 L81.8846487,15.9851509 L81.8846487,14.0443038 L85.6823763,13.1421616 L85.6823763,15.9851509 L87.8841392,15.9851509 L87.74209,18.7660662 L85.6823763,18.7660662 L85.6823763,21.8283836 C85.6823763,22.2297955 85.7826464,22.5153359 85.9873643,22.6891431 C86.1879044,22.8505355 86.5012483,22.9291626 86.9190401,22.9291626 C87.3117644,22.9291626 87.7086666,22.8629503 88.1097468,22.7305258 L88.1097468,25.2341772 C87.3953228,25.5279942 86.5388495,25.6728335 85.544505,25.6728335 Z M93.3237887,28.9958617 C92.8516839,28.9958617 92.3419779,28.9751704 91.7863148,28.9337877 C91.2348296,28.9089581 90.7084119,28.8551607 90.2112396,28.7723953 C89.7266011,28.6937683 89.321343,28.5985881 88.9996433,28.4909932 L88.9996433,26.0907984 C89.3631222,26.2108082 89.780914,26.3101266 90.2530188,26.3928919 C90.7376573,26.471519 91.2306517,26.533593 91.7278239,26.5749757 C92.2249962,26.6163583 92.6845672,26.6370497 93.102359,26.6370497 C93.816783,26.6370497 94.376624,26.595667 94.7818821,26.5170399 C95.1996739,26.4508277 95.4085698,26.3225414 95.4085698,26.1363194 C95.4085698,25.974927 95.3417231,25.867332 95.2080298,25.8176728 C95.0743364,25.7762902 94.8153054,25.7555988 94.4392928,25.7555988 L91.9116523,25.7555988 C90.9298415,25.7555988 90.1652825,25.602483 89.6263311,25.2962512 C89.0999134,24.9776047 88.8367045,24.501704 88.8367045,23.8768257 C88.8367045,22.9953749 89.3296989,22.3829114 90.3115097,22.035297 C89.7600245,21.7538948 89.3547664,21.4021422 89.0999134,20.9759007 C88.8450604,20.5496592 88.7155449,20.0075463 88.7155449,19.3537001 C88.7155449,18.1246349 89.1333367,17.226631 89.9689204,16.6514119 C90.8170378,16.0761928 92.0369899,15.7906524 93.6287767,15.7906524 C93.9671881,15.7906524 94.3432007,15.815482 94.7609925,15.8692795 C95.1787843,15.9106621 95.4837724,15.9479065 95.6717787,15.9892892 L99.431905,15.9892892 L99.3525246,18.2694742 L98.0782595,18.2694742 C98.3205788,18.5757059 98.4417384,18.94815 98.4417384,19.3909445 C98.4417384,20.3634372 98.1534621,21.1372931 97.5727314,21.7125122 C97.0087125,22.2711782 96.1104601,22.5525803 94.8863301,22.5525803 C94.7108575,22.5525803 94.5228512,22.5443038 94.3223111,22.531889 C94.121771,22.5070594 93.9295868,22.4863681 93.7582921,22.469815 C93.46166,22.4946446 93.2068069,22.5484421 92.9895552,22.6312074 C92.7723035,22.7098345 92.6678555,22.8463973 92.6678555,23.0326193 C92.6678555,23.1650438 92.7305243,23.260224 92.8516839,23.3140214 C92.9728435,23.3554041 93.1399603,23.3760954 93.357212,23.3760954 L95.5589749,23.3760954 C96.5407857,23.3760954 97.3178784,23.6037001 97.8818974,24.0547712 C98.4459163,24.5058423 98.7300148,25.1762415 98.7300148,26.0576923 C98.7300148,26.9929406 98.2913334,27.712999 97.4181485,28.2178676 C96.5407857,28.7392892 95.1829622,29 93.3363224,29 L93.3237887,28.9958617 Z M93.6454884,20.4875852 C94.2387527,20.4875852 94.6481887,20.3882668 94.8779742,20.1854917 C95.1077597,19.9868549 95.2205635,19.6516553 95.2205635,19.1840312 C95.2205635,18.716407 95.1077597,18.3770691 94.8779742,18.1618793 C94.6481887,17.9466894 94.2387527,17.8432327 93.6454884,17.8432327 C93.0940032,17.8432327 92.6887451,17.9508277 92.4338921,18.1618793 C92.1915728,18.3605161 92.0704132,18.7039922 92.0704132,19.1840312 C92.0704132,19.6392405 92.183217,19.9703019 92.4130025,20.1854917 C92.6553218,20.3841285 93.0647577,20.4875852 93.6454884,20.4875852 Z M105.70296,25.6728335 C104.583278,25.6728335 103.593112,25.4907498 102.73246,25.1307205 C101.884343,24.7582765 101.215876,24.2037488 100.731238,23.4712756 C100.259133,22.7388023 100.025169,21.8283836 100.025169,20.748296 C100.025169,19.2419669 100.455495,18.0377313 101.320324,17.1438656 C102.180975,16.2375852 103.467774,15.7823759 105.18072,15.7823759 C106.743262,15.7823759 107.963214,16.1755112 108.840577,16.9617819 C109.730473,17.7480526 110.173333,18.8240019 110.173333,20.1854917 L110.173333,21.8449367 L103.526265,21.8449367 C103.701737,22.3539435 104.044327,22.7139727 104.558211,22.9250243 C105.067917,23.1402142 105.765629,23.2436709 106.638814,23.2436709 C107.190299,23.2436709 107.741784,23.19815 108.297447,23.1029698 C108.861466,22.9953749 109.312682,22.8753651 109.651093,22.7429406 L109.651093,25.0065725 C108.706883,25.4452288 107.395017,25.6686952 105.711316,25.6686952 L105.70296,25.6728335 Z M103.522087,19.8089094 L106.897845,19.8089094 L106.897845,19.4695716 C106.897845,19.0971276 106.776685,18.7908958 106.534366,18.5467381 C106.30458,18.3067186 105.895144,18.1867089 105.30188,18.1867089 C104.641769,18.1867089 104.17802,18.3274099 103.906455,18.6088121 C103.651602,18.8777994 103.522087,19.275073 103.522087,19.8089094 Z M111.852856,14.7229796 L111.852856,12 L115.955571,12 L115.955571,14.7229796 L111.852856,14.7229796 Z M112.157844,25.4741967 L112.157844,18.7288218 L110.762419,18.7288218 L111.084119,15.9851509 L115.955571,15.9851509 L115.955571,25.4741967 L112.157844,25.4741967 Z M121.520558,25.6728335 C120.697509,25.6728335 119.924594,25.6107595 119.197636,25.4907498 C118.483212,25.3831548 117.919193,25.2424537 117.501401,25.0686465 L117.501401,22.3663583 C117.973506,22.5815482 118.533347,22.7470789 119.180924,22.8670886 C119.841035,22.9870983 120.400876,23.0491723 120.856269,23.0491723 C121.340908,23.0491723 121.704387,23.0367575 121.946706,23.0077897 C122.201559,22.9829601 122.331075,22.8670886 122.331075,22.6684518 C122.331075,22.4408471 122.109645,22.2670399 121.662608,22.1470302 C121.219748,22.0270204 120.659907,21.8532132 119.983085,21.6256086 C119.105722,21.3193768 118.453966,20.9593476 118.023641,20.5455209 C117.593315,20.1316943 117.376064,19.5316456 117.376064,18.7453749 C117.376064,17.7977118 117.752076,17.0693768 118.508279,16.5645083 C119.260305,16.0430867 120.446833,15.7823759 122.063688,15.7823759 C122.686198,15.7823759 123.325419,15.8278968 123.98553,15.9230769 C124.645641,16.0182571 125.163703,16.1217137 125.539716,16.2417235 L125.539716,18.8860759 C125.134458,18.7122687 124.691598,18.5839825 124.20696,18.5053554 C123.734855,18.4267283 123.304529,18.3853457 122.911805,18.3853457 C122.48148,18.3853457 122.097111,18.406037 121.7587,18.4474197 C121.420288,18.4888023 121.253172,18.6005355 121.253172,18.7867575 C121.253172,19.0019474 121.441178,19.1550633 121.817191,19.2461052 C122.205737,19.3412853 122.727977,19.4861246 123.371376,19.6847614 C124.098334,19.8999513 124.666531,20.1316943 125.067611,20.3841285 C125.485403,20.6365628 125.773679,20.9427945 125.936618,21.306962 C126.11209,21.6669912 126.199827,22.1139241 126.199827,22.6477605 C126.199827,23.6078384 125.802925,24.3568647 125.00912,24.8907011 C124.227849,25.4121227 123.06221,25.6728335 121.512203,25.6728335 L121.520558,25.6728335 Z M131.434758,25.6728335 C130.156315,25.6728335 129.22464,25.354187 128.643909,24.7127556 C128.063178,24.0713242 127.774902,23.2064265 127.774902,22.1097858 L127.774902,18.7660662 L126.521526,18.7660662 L126.521526,15.9851509 L127.774902,15.9851509 L127.774902,14.0443038 L131.57263,13.1421616 L131.57263,15.9851509 L133.774392,15.9851509 L133.632343,18.7660662 L131.57263,18.7660662 L131.57263,21.8283836 C131.57263,22.2297955 131.6729,22.5153359 131.877618,22.6891431 C132.078158,22.8505355 132.387324,22.9291626 132.809293,22.9291626 C133.19784,22.9291626 133.59892,22.8629503 134,22.7305258 L134,25.2341772 C133.285576,25.5279942 132.429103,25.6728335 131.434758,25.6728335 Z" id="Shape" fill="#FFFFFF" fill-rule="nonzero"></path>
            <polygon id="Path" fill="#0001FE" points="142 25 142 22 145 22 145 25"></polygon>
            <g fill="#FFFFFF" fill-rule="nonzero" id="Shape">
                <path d="M17.9872941,0.0293023256 C13.7731765,0.0209302326 9.69035294,1.5027907 6.46305882,4.20697674 L29.5115294,4.20697674 C26.2842353,1.49860465 22.2014118,0.0209302326 17.9872941,0.0293023256 Z M17.9872941,35.8827907 C22.1632941,35.8911628 26.208,34.4386047 29.4225882,31.7762791 L6.552,31.7762791 C9.77082353,34.4386047 13.8155294,35.8911628 17.9915294,35.8827907 L17.9872941,35.8827907 Z M26.5425882,9.12976744 L33.6155294,9.12976744 C33.0310588,8.10418605 32.3534118,7.1372093 31.5783529,6.24139535 L4.40470588,6.24139535 C3.26964706,7.54744186 2.33364706,9.01255814 1.62211765,10.5906977 L25.5049412,10.5906977 L26.5468235,9.12976744 L26.5425882,9.12976744 Z M17.8136471,19.0088372 L0.0592941176,19.0088372 C0.144,20.4865116 0.415058824,21.9474419 0.859764706,23.3581395 L16.1534118,23.3581395 L17.208,21.8762791 L35.5087059,21.8762791 C35.7204706,20.9344186 35.856,19.975814 35.9110588,19.0088372 L17.8136471,19.0088372 Z M21.8075294,15.5009302 L35.7712941,15.5009302 C35.64,14.5213953 35.424,13.5586047 35.1317647,12.6125581 L0.834352941,12.6125581 C0.393882353,14.0232558 0.135529412,15.484186 0.0550588235,16.9618605 L20.7698824,16.9618605 L21.8075294,15.5009302 Z M4.45552941,29.7418605 L11.5665882,29.7418605 L12.6042353,28.2809302 L32.6625882,28.2809302 C33.3063529,27.3725581 33.8654118,26.4055814 34.3270588,25.3925581 L1.64329412,25.3925581 C2.36329412,26.9706977 3.312,28.435814 4.45552941,29.7418605 Z"></path>
            </g>
            <path d="M154.00411,25 L154.00411,12 L159.709001,12 C160.691328,12 161.496917,12.187801 162.133991,12.5634029 C162.771065,12.9390048 163.239622,13.4565008 163.543773,14.1158909 C163.847924,14.7627608 164,15.5014446 164,16.3361156 C164,17.6298555 163.601315,18.6648475 162.808056,19.4452648 C162.027127,20.2256822 160.966708,20.6179775 159.626798,20.6179775 L156.16605,20.6179775 L156.16605,25 L154,25 L154.00411,25 Z M156.17016,18.881862 L159.232224,18.881862 C160.095356,18.881862 160.74476,18.6523274 161.180436,18.1974318 C161.616112,17.7383628 161.83806,17.1207063 161.83806,16.3402889 C161.83806,15.505618 161.624332,14.858748 161.200986,14.4038523 C160.789971,13.9447833 160.165228,13.7194222 159.330867,13.7194222 L156.17016,13.7194222 L156.17016,18.8860353 L156.17016,18.881862 Z" id="Shape" fill="#FFFFFF" fill-rule="nonzero"></path>
            <polygon id="Path" fill="#FFFFFF" points="166 25 166 12 168.307894 12 172.510645 20.4176565 176.692106 12 179 12 179 25 176.777268 25 176.777268 15.5723917 173.191942 22.7589085 171.833606 22.7589085 168.22699 15.5723917 168.22699 25 166.004258 25"></polygon>
        </g>
    </g>
</svg>