<svg enable-background="new 0 0 1600 500" version="1.1" viewBox="0 0 1600 500" xmlns="http://www.w3.org/2000/svg">
 <style type="text/css">.st0{fill-rule:evenodd;clip-rule:evenodd;fill:#D7B6FA;}
	.st1{fill-rule:evenodd;clip-rule:evenodd;fill:#BA81F9;}
	.st2{fill:#BA81F9;}
	.st3{fill:#EAD9FC;}
	.st4{fill-rule:evenodd;clip-rule:evenodd;fill:#FFFFFF;}
	.st5{fill-rule:evenodd;clip-rule:evenodd;fill:#D8B6FF;}
	.st6{fill:#5A007E;}</style>
 <path class="st0" d="m1600 24.8v428.5c0 8.3-4.1 15.7-10.3 20.2-2.4 1.7-5.8 0.9-6.9-1.9-3.9-9.7-16.4-16.8-31.2-16.8-9.5 0-18 2.9-23.9 7.5-1.9 1.5-4.6 1.2-6.2-0.6-7.7-8.7-21.2-14.5-36.7-14.5-13.9 0-26.4 4.7-34.3 12-1.8 1.7-4.7 1.5-6.4-0.3-9.3-10.1-25.8-16.8-44.6-16.8-27.1 0-49.3 13.9-52.4 31.7-0.4 2.4-2.5 4.1-4.9 4.1h-1317c-13.9 0.3-25-10.8-25-24.5v-428.6c0-13.7 11.1-24.8 24.8-24.8h1550c13.8 0 24.9 11.1 24.9 24.8z"/>
 <ellipse class="st1" cx="1400" cy="479.2" rx="33.9" ry="20.8"/>
 <ellipse class="st1" cx="1484" cy="478.7" rx="27.9" ry="17.2"/>
 <ellipse class="st1" cx="1552" cy="479" rx="18.7" ry="11.5"/>
 <path class="st2" d="m1600 395.5v57.8c0 8.3-4.1 15.7-10.3 20.2-2.4 1.7-5.8 0.9-6.9-1.9-3.9-9.7-16.4-16.8-31.2-16.8-9.5 0-18 2.9-23.9 7.5-1.9 1.5-4.6 1.2-6.2-0.6-7.7-8.7-21.2-14.5-36.7-14.5-13.9 0-26.4 4.7-34.3 12-1.8 1.7-4.7 1.5-6.4-0.3-9.3-10.1-25.8-16.8-44.6-16.8-27.1 0-49.3 13.9-52.4 31.7-0.4 2.4-2.5 4.1-4.9 4.1h-1317c-13.9 0.3-25-10.8-25-24.5v-147s282.7 89 465.5 88.9c289.5-0.2 715.1-126.6 1134 0.2z"/>
 <path class="st3" d="M0,21.3v58.5C526.8,31,864.3,217.9,1600,76V21.3c0-11.8-11.1-21.3-24.8-21.3H24.8C11.1,0,0,9.6,0,21.3z"/>
 <path class="st4" d="m1086 357.8h-597.5c-15.9 0-28.8-12.9-28.8-28.8v-186.7c0-15.9 12.9-28.8 28.8-28.8h597.5c15.9 0 28.8 12.9 28.8 28.8v186.7c0 15.9-12.9 28.8-28.8 28.8z"/>
 <ellipse class="st1" cx="1400" cy="479.2" rx="33.9" ry="20.8"/>
 <ellipse class="st1" cx="1484" cy="478.7" rx="27.9" ry="17.2"/>
 <ellipse class="st1" cx="1552" cy="479" rx="18.7" ry="11.5"/>
 <g transform="translate(-106 -89.79)">
  <path class="st5" d="m1033 375.8c-8.7 3.2-13.6 12.4-10.9 20.6s12.1 12.4 20.8 9.2 13.6-12.4 10.9-20.6c-2.8-8.2-12.1-12.3-20.8-9.2zm-285.3-83.7c2.3 0 3.4 1.1 3.4 3.4v107.3c0 2.3-1.1 3.4-3.4 3.4h-22.6c-2.3 0-3.4-1.1-3.4-3.4v-107.3c0-2.3 1.1-3.4 3.4-3.4h22.6zm92.9-0.9c24.9 0 33.5 16.9 33.5 40.2v71.4c0 2.3-1.1 3.4-3.4 3.4h-22.6c-2.3 0-3.4-1.1-3.4-3.4v-74.9c0-7.8-5.7-10.5-12.3-10.5h-2.7c-9.8 0-16.9 4.1-19.4 8.2v77.1c0 2.3-1.1 3.4-3.4 3.4h-22.6c-2.3 0-3.4-1.1-3.4-3.4v-107.3c0-2.3 1.1-3.4 3.4-3.4h22.6c2.3 0 3.4 1.1 3.4 3.4v10c3.4-5.7 12.1-14.4 29-14.4l1.3 0.2zm87-44.7c2.3 0 3.4 1.1 3.4 3.4v79.2l32.4-34.2c1.4-1.6 3.4-2.7 5.3-2.7h23.5c3 0 5.7 3.4 1.6 7.8l-34 36.5 39.7 63.7c1.4 2.5 1.1 6.2-2.7 6.2h-21.5c-3 0-5.7-0.9-7.5-4.1l-28-46.3-8.9 8.9v37.9c0 2.3-1.1 3.4-3.4 3.4h-22.6c-2.3 0-3.4-1.1-3.4-3.4l0.1-152.9c0-2.3 1.1-3.4 3.4-3.4h22.6zm-195.6 5.3c-8.6 2.6-13.7 11.2-11.5 19.3s11 12.5 19.5 9.9c8.6-2.6 13.7-11.2 11.5-19.3-2.2-8-11-12.4-19.5-9.9z"/>
  <path class="st5" d="m1030 349.3h-5c-2.3 0-3.4-1.1-3.4-3.4v-95.9c0-2.3 1.1-3.4 3.4-3.4h23.3c2.3 0 3.4 1.1 3.4 3.4v3.2c-8.9 2.2-15.8 11.2-16.3 22.4-0.4 9 3.3 17.2 9.3 21.9-4.4 3-7.7 8.1-8.5 14.2-0.9 6.6 1.3 12.9 5.4 17.1-4.1 1.8-7.9 5.5-10.1 10.4-1.5 3.4-2 6.9-1.5 10.1z"/>
  <path class="st5" d="m1037 341.5c-1.7 3.9-0.4 8 2.9 9.1s7.3-1 9-4.9 0.4-8-2.9-9.1c-3.3-1.2-7.3 1-9 4.9zm6.1-28.3c-1.1 6 2 11.6 7.1 12.6 5 0.9 10-3.2 11.2-9.2 1.1-6-2-11.6-7.1-12.6-5-0.9-10 3.2-11.2 9.2zm-1.2-35.4c-0.4 8.2 4.9 15.3 11.8 15.8s12.8-5.8 13.2-14-4.9-15.3-11.8-15.8-12.8 5.8-13.2 14z"/>
  <path class="st6" d="m1087 406.4h75.5c2.6 0 4.7-2.1 4.7-4.7v-11.8c0-2.6-2.1-4.7-4.7-4.7h-75.5c-2.6 0-4.7 2.1-4.7 4.7v11.8c0 2.6 2.1 4.7 4.7 4.7z"/>
  <path class="st6" d="m619.6 293c0-2.6 2.1-4.7 4.7-4.7h14.2c2.6 0 4.7 2.1 4.7 4.7v14.2c0 2.6-2.1 4.7-4.7 4.7h-14.2c-2.6 0-4.7-2.1-4.7-4.7v-14.2z"/>
  <path class="st6" d="m619.5 401.5c0 2.6 2.1 4.7 4.7 4.7h14.2c2.6 0 4.7-2.1 4.7-4.7v-14.2c0-2.6-2.1-4.7-4.7-4.7h-14.2c-2.6 0-4.7 2.1-4.7 4.7v14.2z"/>
  <path class="st6" d="m643.1 316.6c0-2.6 2.1-4.7 4.7-4.7h14.2c2.6 0 4.7 2.1 4.7 4.7v14.2c0 2.6-2.1 4.7-4.7 4.7h-14.2c-2.6 0-4.7-2.1-4.7-4.7v-14.2z"/>
  <path class="st6" d="m643.1 377.9c0 2.6 2.1 4.7 4.7 4.7h14.2c2.6 0 4.7-2.1 4.7-4.7v-14.2c0-2.6-2.1-4.7-4.7-4.7h-14.2c-2.6 0-4.7 2.1-4.7 4.7v14.2z"/>
  <path class="st6" d="m666.7 340.2c0-2.6 2.1-4.7 4.7-4.7h14.2c2.6 0 4.7 2.1 4.7 4.7v14.2c0 2.6-2.1 4.7-4.7 4.7h-14.2c-2.6 0-4.7-2.1-4.7-4.7v-14.2z"/>
 </g>
</svg>
