<svg enable-background="new 0 0 1600 500" version="1.1" viewBox="0 0 1600 500" xmlns="http://www.w3.org/2000/svg" xmlns:xlink="http://www.w3.org/1999/xlink">
 <style type="text/css">.st0{fill-rule:evenodd;clip-rule:evenodd;fill:#BC83FB;}
	.st1{clip-path:url(#SVGID_00000083801399747797785070000006612854265817628296_);}
	.st2{fill:url(#SVGID_00000018950562130360509020000005059287766890292655_);}
	.st3{fill:#1F1F1F;}
	.st4{fill:url(#SVGID_00000065762487810430546980000018179207389474378921_);}
	.st5{fill:url(#SVGID_00000102540915507555512800000004864376533817209510_);}
	.st6{fill:url(#SVGID_00000053539860830555918450000008950779096237289383_);}
	.st7{fill:url(#SVGID_00000026122056908662893240000009662688077873999255_);}
	.st8{fill:url(#SVGID_00000145030682445367816110000015118847457095340990_);}
	.st9{fill:url(#SVGID_00000183248656258290454990000004782771588683902895_);}
	.st10{fill:url(#SVGID_00000068656040962504314960000005627458784182721452_);}
	.st11{fill:url(#SVGID_00000001621818155418575530000006445857098249848511_);}
	.st12{fill:url(#SVGID_00000129167285745758270770000013538627576235818401_);}
	.st13{fill:url(#SVGID_00000179647334431510355500000000399491281522302636_);}
	.st14{fill:url(#SVGID_00000010310290506183218620000008938761069685776828_);}
	.st15{fill:url(#SVGID_00000120523144510981461620000013276424022429069448_);}
	.st16{fill:url(#SVGID_00000130639331886472009300000016010208854259422376_);}
	.st17{fill:url(#SVGID_00000103980918032742477850000012288158151301759656_);}
	.st18{fill:url(#SVGID_00000042715642146035806330000015715918809961199763_);}
	.st19{fill:url(#SVGID_00000080887689357173489750000004031288770413881993_);}
	.st20{fill:url(#SVGID_00000081618292133078818120000004009418726811332025_);}
	.st21{fill:url(#SVGID_00000023263468041985754100000013106988983874232749_);}
	.st22{fill:url(#SVGID_00000026862285830605596580000007638720333238101134_);}
	.st23{fill:url(#SVGID_00000158029631987319076540000013968066004068677013_);}
	.st24{fill:url(#SVGID_00000114041195764546894240000005484584524966812828_);}
	.st25{fill:url(#SVGID_00000008150316020754166040000018251476522822709159_);}
	.st26{fill:url(#SVGID_00000021121208380146726850000000477294493817535921_);}
	.st27{fill:url(#SVGID_00000125593612220784026720000009315847207275914920_);}
	.st28{fill:url(#SVGID_00000176745564786177789920000002199407210322985892_);}
	.st29{fill:url(#SVGID_00000141434792351356711990000013185471523812769446_);}
	.st30{fill:url(#SVGID_00000057835288909467419820000015981759241678772618_);}
	.st31{fill:url(#SVGID_00000145021204181703412970000012075115363623775129_);}
	.st32{fill:url(#SVGID_00000074406156944094869370000017495815078671567771_);}
	.st33{fill:url(#SVGID_00000088821628027870741040000015594670629480180882_);}
	.st34{fill:url(#SVGID_00000018928982310498017270000012082563733924988317_);}
	.st35{fill:url(#SVGID_00000072266644229435080100000016327037175580418995_);}
	.st36{clip-path:url(#SVGID_00000029751640807704783350000002654901318370988942_);}
	.st37{fill:url(#SVGID_00000012439654479324870690000018050496143342434708_);}
	.st38{fill:url(#SVGID_00000033352470800550515580000010127559031321931955_);}
	.st39{fill:url(#SVGID_00000135667748383016071280000013298212144039661723_);}
	.st40{fill:url(#SVGID_00000043429296459831616880000007653891874136324030_);}
	.st41{fill:url(#SVGID_00000000939545990128748260000004377528843939777170_);}
	.st42{fill:url(#SVGID_00000173139866250544626530000012366304011282174129_);}
	.st43{fill:url(#SVGID_00000143589732198537128900000016254055778609714101_);}
	.st44{fill:url(#SVGID_00000152238472214351505980000012166232198982000017_);}
	.st45{fill:url(#SVGID_00000008132406481702235320000014867224465837266347_);}
	.st46{fill:url(#SVGID_00000123427642461996922570000002828198317039796397_);}
	.st47{fill:url(#SVGID_00000035497770675770439410000018416392099809296546_);}
	.st48{fill:url(#SVGID_00000182496829143818938190000009036089584838679224_);}
	.st49{fill:url(#SVGID_00000135673779944686622540000003391904318332682928_);}
	.st50{fill:url(#SVGID_00000029046415776844420950000017397844946601512577_);}
	.st51{fill:url(#SVGID_00000094584368630107278690000003842665360675344799_);}
	.st52{fill:url(#SVGID_00000157306487722333868030000004135281104940718216_);}
	.st53{fill:url(#SVGID_00000181076999960923894410000009256884709787055779_);}
	.st54{fill:url(#SVGID_00000160880696487825914420000017975772157419776669_);}
	.st55{fill:url(#SVGID_00000156548587945941531410000007243324903594250169_);}
	.st56{fill:url(#SVGID_00000039113040842114523890000008727403838311865248_);}
	.st57{fill:url(#SVGID_00000006693340304796843940000003759533076011216310_);}
	.st58{fill:url(#SVGID_00000142880678374190606400000017763310585588749188_);}
	.st59{fill:url(#SVGID_00000155125312736832291580000010063067391841619074_);}
	.st60{fill:url(#SVGID_00000055677042942869656580000007231560931036012418_);}
	.st61{fill:url(#SVGID_00000099620834134493891140000008538688044072035456_);}
	.st62{fill:url(#SVGID_00000080920948602430059080000004515689467521179796_);}
	.st63{fill:url(#SVGID_00000156566729138769545650000011710703086954173837_);}
	.st64{fill:url(#SVGID_00000089561547797116644640000002813576650107403946_);}
	.st65{fill:url(#SVGID_00000040570348930389202620000010235402538995970457_);}
	.st66{fill:url(#SVGID_00000089545801369661959840000014576211792157536655_);}
	.st67{fill:url(#SVGID_00000139267599444871637770000011352451195491061659_);}
	.st68{fill:url(#SVGID_00000131347601155123058180000013802386185378473663_);}
	.st69{fill:url(#SVGID_00000165927404774200423410000009202050738078854299_);}</style>
 <path class="st0" d="m1600 24.8v428.5c0 8.3-4.1 15.7-10.3 20.2-2.4 1.7-5.8 0.9-6.9-1.9-3.9-9.7-16.4-16.8-31.2-16.8-9.5 0-18 2.9-23.9 7.6-1.9 1.5-4.6 1.3-6.2-0.6-7.7-8.7-21.2-14.5-36.7-14.5-13.9 0-26.4 4.7-34.3 12-1.8 1.7-4.7 1.5-6.4-0.3-9.3-10.1-25.8-16.8-44.6-16.8-27.1 0-49.3 13.9-52.4 31.7-0.4 2.4-2.5 4.1-4.9 4.1h-1317c-13.9 0.2-25-10.9-25-24.6v-428.6c0-13.7 11.1-24.8 24.8-24.8h1550c13.8 0 24.9 11.1 24.9 24.8z"/>
 <ellipse class="st0" cx="1400" cy="479.2" rx="33.9" ry="20.8"/>
 <defs>
  <path id="ah" d="m1600 24.8v428.5c0 8.3-4.1 15.7-10.3 20.2-2.4 1.7-5.8 0.9-6.9-1.9-3.9-9.7-16.4-16.8-31.2-16.8-9.5 0-18 2.9-23.9 7.6-1.9 1.5-4.6 1.3-6.2-0.6-7.7-8.7-21.2-14.5-36.7-14.5-13.9 0-26.4 4.7-34.3 12-1.8 1.7-4.7 1.5-6.4-0.3-9.3-10.1-25.8-16.8-44.6-16.8-27.1 0-49.3 13.9-52.4 31.7-0.4 2.4-2.5 4.1-4.9 4.1h-1317c-13.9 0.2-25-10.9-25-24.6v-428.6c0-13.7 11.1-24.8 24.8-24.8h1550c13.8 0 24.9 11.1 24.9 24.8z"/>
 </defs>
 <clipPath id="ak">
  <use xlink:href="#ah"/>
 </clipPath>
 <g clip-path="url(#ak)">
  <linearGradient id="q" x1="120.6" x2="192.2" y1="933" y2="831" gradientTransform="matrix(.9944 -.1061 -.1061 -.9944 96.29 1008)" gradientUnits="userSpaceOnUse">
   <stop stop-color="#FCECB2" offset="0"/>
   <stop stop-color="#FF8B89" offset=".2604"/>
   <stop stop-color="#FC8ADC" offset=".5208"/>
   <stop stop-color="#7954FF" offset=".7552"/>
   <stop stop-color="#70BCFF" offset="1"/>
  </linearGradient>
  <circle cx="158" cy="114.7" r="55.9" fill="url(#q)"/>
  <path class="st3" d="m151.1 152.6c7.5-5.4 10-14.6 9.6-23.3-0.5-8.2-9.1-12.2-16.7-15.3-9.7-4-16.9-13-18.1-24.1-0.5-4.2 0-8.3 1.3-12.1 0.4-1.1-1-2.2-1.8-1.4-12.1 10.4-19.1 26.4-17.3 43.6 1.6 14.7 4.2-7.3 19.2 27 2.8 6.4 8.6 11.6 15.3 9.7 2.9-0.8 5.9-2.2 8.5-4.1z"/>
  <path class="st3" d="m128.7 89.7c1 9.2 7.7 16 15.4 19.9 7.4 3.7 15.1-1.8 21.6-6.8 8.3-6.4 19.7-8.2 29.9-3.6 3.9 1.7 7.2 4.2 9.9 7.2 0.8 0.9 2.3 0.2 2.1-0.9-3-15.7-13.3-29.8-29.1-36.8-13.5-6 4.2 7.2-33 3.1-6.9-0.8-14.4 1.7-16.1 8.4-0.8 3-1.1 6.3-0.7 9.5z"/>
  <path class="st3" d="m194.4 101.7c-8.5-3.7-17.7-1.4-25 3.4-6.9 4.5-6 13.9-4.9 22.1 1.4 10.3-2.8 21.1-11.8 27.7-3.4 2.5-7.2 4.1-11.1 5-1.1 0.2-1.4 1.9-0.3 2.3 15.1 5.3 32.5 3.3 46.4-6.8 12-8.7-8.4 0 13.8-30.1 4.1-5.6 5.7-13.3 0.7-18.1-2.2-2.3-4.9-4.2-7.8-5.5z"/>
  <linearGradient id="r" x1="87.17" x2="143.3" y1="1063" y2="982.6" gradientTransform="matrix(-.402 -.9157 -.9157 .402 1060 -303.1)" gradientUnits="userSpaceOnUse">
   <stop stop-color="#FCECB2" offset="0"/>
   <stop stop-color="#FF8B89" offset=".2604"/>
   <stop stop-color="#FC8ADC" offset=".5208"/>
   <stop stop-color="#7954FF" offset=".7552"/>
   <stop stop-color="#70BCFF" offset="1"/>
  </linearGradient>
  <circle cx="77.3" cy="2.6" r="43.9" fill="url(#r)"/>
  <path class="st3" d="m107.3-1.2c-5.8-4.3-13.3-4-19.7-1.6-6.1 2.3-6.9 9.7-7.5 16.1-0.7 8.2-5.7 15.7-13.7 19.2-3.1 1.3-6.2 2-9.4 1.9-0.9 0-1.4 1.2-0.6 1.7 10.7 6.6 24.3 8 36.7 2.6 10.6-4.7-6.4-1.4 15.6-20.8 4.1-3.6 6.6-9.2 3.6-13.8-1.3-1.9-3-3.8-5-5.3z"/>
  <path class="st3" d="m65.5 30.5c6.6-2.9 10.2-9.5 11.2-16.2 1-6.4-4.9-10.8-10.2-14.5-6.7-4.8-10.7-12.9-9.8-21.6 0.4-3.3 1.4-6.4 3-9.1 0.5-0.8-0.4-1.8-1.2-1.4-11 6-19 17.1-20.5 30.5-1.3 11.6 4.4-4.9 10.2 23.9 1.1 5.4 4.7 10.3 10.1 10 2.4-0.1 4.9-0.6 7.2-1.6z"/>
  <path class="st3" d="m59-21.5c-0.8 7.2 3.1 13.5 8.4 17.8 5 4.1 11.8 1.2 17.7-1.6 7.4-3.5 16.5-2.9 23.5 2.2 2.7 2 4.8 4.4 6.4 7.1 0.5 0.8 1.8 0.6 1.8-0.3 0.4-12.6-5.2-25.1-16.1-33.1-9.4-6.9 2 6.3-25.8-3.1-5.2-1.7-11.3-1.1-13.7 3.7-1.2 2.3-2 4.8-2.2 7.3z"/>
  <linearGradient id="b" x1="-17.53" x2="62.12" y1="558.8" y2="445.3" gradientTransform="matrix(.07023 -.9975 -.9975 -.07023 532.6 527.8)" gradientUnits="userSpaceOnUse">
   <stop stop-color="#FCECB2" offset="0"/>
   <stop stop-color="#FF8B89" offset=".2604"/>
   <stop stop-color="#FC8ADC" offset=".5208"/>
   <stop stop-color="#7954FF" offset=".7552"/>
   <stop stop-color="#70BCFF" offset="1"/>
  </linearGradient>
  <circle cx="33.2" cy="470.4" r="62.2" fill="url(#b)"/>
  <path class="st3" d="m73.4 485.4c-4.5-9.2-14.1-13.9-23.6-15-9.1-1.1-15.1 7.5-20 15.3-6.2 9.8-17.5 16-29.9 15.1-4.7-0.3-9.1-1.7-13-3.8-1.1-0.6-2.5 0.6-1.9 1.7 9 15.3 25.2 26.1 44.3 27.5 16.4 1.2-7.1-6 33.3-15.8 7.5-1.8 14.4-7.2 13.6-14.9-0.3-3.4-1.3-6.9-2.8-10.1z"/>
  <path class="st3" d="m0.1 497.7c10.3 0.7 19-5.3 24.8-13 5.5-7.3 1-16.8-3.2-25-5.4-10.3-5.1-23.1 1.9-33.4 2.6-3.9 6-7.1 9.8-9.4 1.1-0.7 0.7-2.5-0.6-2.5-17.8 0.2-35.2 8.8-45.9 24.7-9.2 13.7 8.7-3.2-3 36.7-2.2 7.4-1 16 6.1 19.3 3 1.3 6.5 2.3 10.1 2.6z"/>
  <path class="st3" d="m26.1 428.1c-5.8 8.5-5 19.1-1.2 28 3.6 8.5 14.1 9.3 23.3 9.7 11.6 0.5 22.6 7.2 28 18.3 2.1 4.2 3.1 8.7 3.3 13.2 0 1.3 1.8 1.9 2.5 0.8 8.8-15.5 10-34.9 1.6-52.1-7.2-14.8-1.6 9.2-30.3-21-5.3-5.6-13.4-8.9-19.7-4.4-2.9 2-5.5 4.5-7.5 7.5z"/>
  <linearGradient id="ae" x1="22.35" x2="108.1" y1="779.7" y2="657.6" gradientTransform="matrix(-.2229 -.9748 -.9748 .2229 843.1 216.9)" gradientUnits="userSpaceOnUse">
   <stop stop-color="#FCECB2" offset="0"/>
   <stop stop-color="#FF8B89" offset=".2604"/>
   <stop stop-color="#FC8ADC" offset=".5208"/>
   <stop stop-color="#7954FF" offset=".7552"/>
   <stop stop-color="#70BCFF" offset="1"/>
  </linearGradient>
  <circle cx="127.8" cy="313.7" r="67" fill="url(#ae)"/>
  <path class="st3" d="m173.9 316.6c-7.5-8.1-18.8-9.9-29-8.1-9.7 1.7-13.2 12.5-15.8 22-3.3 12-13 21.9-26 24.9-5 1.1-9.9 1.1-14.6 0.2-1.4-0.3-2.4 1.4-1.4 2.4 14.1 13 34.1 19 54.2 14.4 17.3-4-9.2-3.9 29.4-26.6 7.2-4.2 12.6-11.9 9.4-19.6-1.5-3.4-3.6-6.8-6.2-9.6z"/>
  <path class="st3" d="m102.3 352.2c10.8-2.5 18-11.4 21.5-21.1 3.4-9.3-4.2-17.6-11.2-24.7-8.7-8.9-12.5-22.2-8.5-35 1.5-4.9 4-9.2 7.1-12.8 0.9-1.1 0-2.8-1.4-2.4-18.3 5.7-33.5 20.1-39.6 39.8-5.2 16.9 8-6 8.4 38.8 0.1 8.3 4 16.8 12.3 17.9 3.7 0.4 7.6 0.3 11.4-0.5z"/>
  <path class="st3" d="m107.3 272.3c-3.3 10.6 0.9 21.2 7.5 29.2 6.3 7.6 17.4 5.2 27 2.7 12.1-3.1 25.5 0.3 34.6 10.1 3.5 3.7 5.9 8 7.5 12.5 0.5 1.3 2.5 1.4 2.8 0 4.2-18.7-0.6-39.1-14.6-54.2-12.1-13 1.2 9.9-37.8-12.1-7.2-4.1-16.6-4.9-21.7 1.7-2.3 3-4.1 6.5-5.3 10.1z"/>
  <linearGradient id="g" x1="444.4" x2="551.8" y1="862.5" y2="709.4" gradientTransform="matrix(.7031 -.7111 -.7111 -.7031 717.7 1105)" gradientUnits="userSpaceOnUse">
   <stop stop-color="#FCECB2" offset="0"/>
   <stop stop-color="#FF8B89" offset=".2604"/>
   <stop stop-color="#FC8ADC" offset=".5208"/>
   <stop stop-color="#7954FF" offset=".7552"/>
   <stop stop-color="#70BCFF" offset="1"/>
  </linearGradient>
  <circle cx="508.7" cy="197.8" r="83.9" fill="url(#g)"/>
  <path class="st3" d="m536.7 248.4c3.5-13.4-2.2-26.5-11-36.1-8.4-9.1-22-5.5-33.9-1.9-15 4.6-31.9 1-43.8-10.8-4.5-4.5-7.9-9.7-10-15.3-0.6-1.6-3.2-1.6-3.5 0.1-4.2 23.6 2.9 48.9 21.2 67 15.8 15.6-2-12.4 47.9 13.1 9.3 4.7 21 5.3 27-3.3 2.7-3.7 4.8-8.1 6.1-12.8z"/>
  <path class="st3" d="m450.9 196.6c9.9 9.8 24.1 11.3 36.8 8.5 12.1-2.7 15.8-16.3 18.6-28.4 3.5-15.2 15.1-28.1 31.3-32.6 6.1-1.7 12.3-2 18.3-1.1 1.7 0.3 3-1.9 1.6-3.1-18.4-15.5-43.8-22-68.7-15.1-21.4 5.9 11.7 4.4-35.3 34.9-8.8 5.7-15.1 15.6-10.7 25 2 4.4 4.7 8.5 8.1 11.9z"/>
  <path class="st3" d="m538.7 148.3c-13.4 3.7-21.9 15.2-25.8 27.6-3.7 11.8 6.2 21.9 15.3 30.3 11.4 10.7 16.8 27.2 12.6 43.3-1.6 6.2-4.5 11.7-8.2 16.3-1.1 1.4 0.2 3.5 1.8 2.9 22.6-8.2 40.9-26.9 47.4-51.9 5.6-21.5-9.7 8-12.6-48.1-0.5-10.4-5.9-20.8-16.3-21.8-4.7-0.2-9.6 0.1-14.2 1.4z"/>
  <linearGradient id="y" x1="549.8" x2="611.4" y1="1025" y2="936.9" gradientTransform="matrix(-.5903 -.8072 -.8072 .5903 1737 -78.24)" gradientUnits="userSpaceOnUse">
   <stop stop-color="#FCECB2" offset="0"/>
   <stop stop-color="#FF8B89" offset=".2604"/>
   <stop stop-color="#FC8ADC" offset=".5208"/>
   <stop stop-color="#7954FF" offset=".7552"/>
   <stop stop-color="#70BCFF" offset="1"/>
  </linearGradient>
  <circle cx="602.3" cy="32.2" r="48.1" fill="url(#y)"/>
  <path class="st3" d="m633.5 21c-7.3-3.2-15.2-1.2-21.4 2.9-5.9 3.9-5.1 12-4.2 19 1.2 8.9-2.4 18.1-10.1 23.8-2.9 2.2-6.2 3.6-9.6 4.3-1 0.2-1.2 1.6-0.2 2 13 4.5 27.9 2.8 39.8-5.9 10.3-7.5-7.2 0 11.8-25.9 3.5-4.8 4.9-11.4 0.6-15.6-1.9-1.9-4.2-3.5-6.7-4.6z"/>
  <path class="st3" d="m596.3 64.8c6.4-4.7 8.6-12.6 8.2-20-0.4-7.1-7.8-10.4-14.4-13.1-8.3-3.4-14.5-11.1-15.6-20.6-0.4-3.6 0-7.2 1.1-10.4 0.3-1-0.8-1.9-1.6-1.2-10.4 9-16.4 22.7-14.8 37.5 1.4 12.7 3.6-6.2 16.5 23.2 2.4 5.5 7.4 9.9 13.2 8.3 2.7-0.9 5.2-2.1 7.4-3.7z"/>
  <path class="st3" d="m577 10.7c0.9 7.9 6.6 13.8 13.3 17.1 6.3 3.2 12.9-1.5 18.5-5.9 7.1-5.5 16.9-7 25.7-3.2 3.3 1.5 6.2 3.6 8.5 6.1 0.7 0.7 2 0.2 1.8-0.8-2.6-13.5-11.5-25.6-25-31.6-11.6-5.1 3.6 6.2-28.3 2.7-5.9-0.6-12.3 1.5-13.8 7.3-0.7 2.8-1 5.6-0.7 8.3z"/>
  <linearGradient id="ad" x1="636.7" x2="693.8" y1="711.4" y2="630.1" gradientTransform="matrix(.314 -.9494 -.9494 -.314 1158 1119)" gradientUnits="userSpaceOnUse">
   <stop stop-color="#FCECB2" offset="0"/>
   <stop stop-color="#FF8B89" offset=".2604"/>
   <stop stop-color="#FC8ADC" offset=".5208"/>
   <stop stop-color="#7954FF" offset=".7552"/>
   <stop stop-color="#70BCFF" offset="1"/>
  </linearGradient>
  <circle cx="729.5" cy="276.9" r="44.6" fill="url(#ad)"/>
  <path class="st3" d="m754.8 294.4c-1.5-7.2-7.3-12.1-13.8-14.6-6.1-2.4-11.8 2.6-16.6 7.1-6.1 5.7-15 8-23.4 5.2-3.2-1.1-6-2.8-8.4-4.9-0.7-0.6-1.9 0-1.6 0.9 3.6 12.3 12.9 22.6 25.9 26.9 11.2 3.7-3.9-5.4 25.9-5.1 5.5 0.1 11.3-2.5 12.1-7.9 0.4-2.5 0.4-5.1-0.1-7.6z"/>
  <path class="st3" d="m701.7 290c7 2.3 14.2-0.3 19.5-4.6 5.1-4.1 3.7-11.5 2.2-17.9-1.9-8.1 0.6-17 7.2-22.9 2.5-2.3 5.4-3.9 8.5-4.8 0.9-0.3 1-1.6 0-1.8-12.4-3-26-0.1-36.3 9-8.8 7.9 6.6-0.7-8.6 25-2.8 4.8-3.5 11 0.8 14.5 2 1.4 4.2 2.7 6.7 3.5z"/>
  <path class="st3" d="m732.1 246.2c-5.5 4.9-6.8 12.4-5.8 19.2 1 6.5 8.1 8.9 14.4 10.8 8 2.4 14.4 9 16.2 17.7 0.7 3.3 0.6 6.6-0.1 9.7-0.2 0.9 0.9 1.6 1.6 1 8.8-9.2 13.1-22.5 10.3-35.9-2.4-11.6-2.7 6.1-17.3-19.9-2.7-4.8-7.8-8.5-12.9-6.5-2.3 0.9-4.5 2.2-6.4 3.9z"/>
  <linearGradient id="m" x1="534.7" x2="578.3" y1="799.9" y2="737.8" gradientTransform="matrix(.9391 .3436 .3436 -.9391 -184.5 880.2)" gradientUnits="userSpaceOnUse">
   <stop stop-color="#FCECB2" offset="0"/>
   <stop stop-color="#FF8B89" offset=".2604"/>
   <stop stop-color="#FC8ADC" offset=".5208"/>
   <stop stop-color="#7954FF" offset=".7552"/>
   <stop stop-color="#70BCFF" offset="1"/>
  </linearGradient>
  <circle cx="602.3" cy="349.3" r="34.1" fill="url(#m)"/>
  <path class="st3" d="m588.3 368.2c5.5-1 9.4-5.3 11.5-10.2 2-4.6-1.7-9.1-5-12.8-4.2-4.8-5.8-11.6-3.4-18 0.9-2.4 2.3-4.5 3.9-6.3 0.5-0.5 0.1-1.4-0.6-1.3-9.4 2.4-17.6 9.3-21.2 19.2-3.1 8.5 4.2-2.8 3.2 19.9-0.2 4.2 1.6 8.7 5.8 9.4 1.9 0.4 3.9 0.4 5.8 0.1z"/>
  <path class="st3" d="m593 327.8c-1.9 5.3-0.1 10.8 3.1 15 3 4 8.7 3.1 13.6 2.1 6.2-1.3 12.9 0.8 17.3 6 1.7 2 2.8 4.2 3.5 6.6 0.2 0.7 1.2 0.8 1.4 0.1 2.6-9.4 0.7-19.9-6-27.9-5.8-6.9 0.4 5.1-18.9-7.2-3.6-2.3-8.3-2.9-11 0.3-1.3 1.5-2.4 3.2-3 5z"/>
  <path class="st3" d="m625.6 352.1c-3.6-4.3-9.3-5.5-14.5-4.9-5 0.6-7 6-8.6 10.8-2 6-7.2 10.8-13.9 12-2.5 0.4-5.1 0.3-7.4-0.3-0.7-0.2-1.3 0.7-0.8 1.2 6.8 7 16.8 10.6 27.2 8.8 8.9-1.6-4.6-2.2 15.6-12.8 3.8-2 6.7-5.7 5.3-9.7-0.7-1.9-1.6-3.7-2.9-5.1z"/>
  <linearGradient id="af" x1="439.9" x2="509.1" y1="602.8" y2="504.3" gradientTransform="matrix(.4177 .9086 .9086 -.4177 -219.6 231.3)" gradientUnits="userSpaceOnUse">
   <stop stop-color="#FCECB2" offset="0"/>
   <stop stop-color="#FF8B89" offset=".2604"/>
   <stop stop-color="#FC8ADC" offset=".5208"/>
   <stop stop-color="#7954FF" offset=".7552"/>
   <stop stop-color="#70BCFF" offset="1"/>
  </linearGradient>
  <circle cx="481.6" cy="431.1" r="54" fill="url(#af)"/>
  <path class="st3" d="m444.8 436.4c7.3 5.2 16.5 4.7 24.3 1.6 7.4-3 8.3-12 8.9-20 0.7-10.1 6.7-19.5 16.4-24 3.7-1.7 7.6-2.5 11.5-2.6 1.1 0 1.7-1.5 0.7-2.1-13.3-7.9-30.1-9.4-45.2-2.4-13 6 7.9 1.6-18.8 25.9-5 4.5-7.9 11.5-4.2 17 1.7 2.5 3.8 4.8 6.4 6.6z"/>
  <path class="st3" d="m495.5 396.5c-8.1 3.7-12.3 11.9-13.5 20.2-1.1 7.9 6.3 13.2 12.9 17.7 8.4 5.6 13.5 15.5 12.5 26.2-0.4 4.1-1.6 7.9-3.5 11.2-0.6 1 0.5 2.2 1.5 1.7 13.5-7.5 23.2-21.4 24.7-37.9 1.3-14.2-5.3 6.1-13-29.2-1.4-6.6-6-12.6-12.7-12.1-3 0.2-6.1 0.9-8.9 2.2z"/>
  <path class="st3" d="m504.7 460.4c0.8-8.9-4.2-16.6-10.8-21.8-6.3-4.9-14.6-1.2-21.7 2.3-9 4.5-20.2 4-29-2.3-3.3-2.4-6-5.3-8-8.7-0.6-1-2.2-0.7-2.2 0.4-0.2 15.5 6.9 30.7 20.5 40.3 11.7 8.3-2.6-7.7 31.8 3.3 6.4 2 13.9 1.1 16.8-4.9 1.4-2.5 2.3-5.6 2.6-8.6z"/>
  <linearGradient id="t" x1="675.3" x2="755.4" y1="600.9" y2="486.6" gradientTransform="matrix(.9911 -.1329 -.1329 -.9911 77.21 1090)" gradientUnits="userSpaceOnUse">
   <stop stop-color="#FCECB2" offset="0"/>
   <stop stop-color="#FF8B89" offset=".2604"/>
   <stop stop-color="#FC8ADC" offset=".5208"/>
   <stop stop-color="#7954FF" offset=".7552"/>
   <stop stop-color="#70BCFF" offset="1"/>
  </linearGradient>
  <circle cx="713.8" cy="455.4" r="62.6" fill="url(#t)"/>
  <path class="st3" d="m707.1 498c8.2-6.3 10.8-16.7 10-26.4-0.8-9.2-10.5-13.3-19.2-16.6-10.9-4.1-19.3-14-21-26.4-0.6-4.7-0.2-9.3 1-13.6 0.4-1.3-1.1-2.4-2.1-1.5-13.3 12-20.6 30.2-18.1 49.3 2.2 16.4 4.4-8.3 22.3 29.6 3.3 7 10 12.7 17.5 10.4 3.5-1 6.8-2.6 9.6-4.8z"/>
  <path class="st3" d="m680.1 428.3c1.4 10.3 9.1 17.7 17.8 21.8 8.4 3.9 16.8-2.4 24-8.3 9.1-7.4 21.8-9.7 33.3-5 4.4 1.8 8.2 4.5 11.3 7.7 0.9 0.9 2.6 0.2 2.4-1.1-3.8-17.5-15.8-32.9-33.7-40.3-15.3-6.3 4.9 8-36.8 4.5-7.8-0.6-16 2.3-17.7 9.9-0.8 3.6-1 7.2-0.6 10.8z"/>
  <path class="st3" d="m754.1 439.8c-9.6-3.9-19.9-1-27.8 4.5-7.6 5.3-6.3 15.8-4.8 24.9 1.9 11.5-2.5 23.7-12.4 31.3-3.8 2.9-8 4.9-12.3 5.9-1.3 0.3-1.5 2.2-0.3 2.6 17.1 5.5 36.4 2.8 51.7-9 13.1-10.1-9.4 0.3 14.5-34.1 4.4-6.4 6-15 0.3-20.3-2.6-2.4-5.6-4.4-8.9-5.8z"/>
  <linearGradient id="n" x1="749.5" x2="863.3" y1="912.9" y2="750.7" gradientTransform="matrix(-.978 .2088 .2088 .978 1422 -873.2)" gradientUnits="userSpaceOnUse">
   <stop stop-color="#FCECB2" offset="0"/>
   <stop stop-color="#FF8B89" offset=".2604"/>
   <stop stop-color="#FC8ADC" offset=".5208"/>
   <stop stop-color="#7954FF" offset=".7552"/>
   <stop stop-color="#70BCFF" offset="1"/>
  </linearGradient>
  <circle cx="807.5" cy="108.8" r="88.9" fill="url(#n)"/>
  <path class="st3" d="m812.2 47.7c-10.9 9.9-13.5 24.8-11.3 38.4 2.1 13 16.3 17.7 28.9 21.4 15.9 4.7 28.9 17.7 32.6 35 1.4 6.6 1.3 13.2 0 19.4-0.4 1.8 1.9 3.3 3.1 1.9 17.5-18.5 25.9-45 20.2-71.7-4.9-23-5.4 12.2-34.8-39.5-5.5-9.6-15.6-16.9-25.8-12.8-4.6 1.8-9.1 4.5-12.9 7.9z"/>
  <path class="st3" d="m858.1 143.5c-3.1-14.4-14.8-24.1-27.6-29-12.3-4.7-23.5 5.3-33 14.3-12 11.5-29.8 16.1-46.6 10.7-6.4-2.1-12.1-5.4-16.8-9.7-1.4-1.2-3.8 0-3.2 1.8 7.3 24.4 26 44.9 52 53.3 22.4 7.3-7.8-10.8 51.6-10.4 11.1 0.1 22.4-5 24-16 0.7-4.8 0.6-10-0.4-15z"/>
  <path class="st3" d="m752.1 135.3c14 4.5 28.2-0.8 38.9-9.5 10.2-8.3 7.2-23 4.1-35.8-3.9-16.1 0.9-33.9 14.1-45.7 5-4.5 10.7-7.7 16.8-9.7 1.8-0.6 1.9-3.2 0.1-3.7-24.8-5.9-51.9 0.1-72.2 18.4-17.5 15.8 13.2-1.4-16.8 49.9-5.6 9.5-6.9 21.9 1.8 28.8 3.9 3.2 8.4 5.7 13.2 7.3z"/>
  <linearGradient id="p" x1="951.9" x2="1038" y1="1065" y2="943" gradientTransform="matrix(-.008698 -1 -1 .008698 2e3 994.7)" gradientUnits="userSpaceOnUse">
   <stop stop-color="#FCECB2" offset="0"/>
   <stop stop-color="#FF8B89" offset=".2604"/>
   <stop stop-color="#FC8ADC" offset=".5208"/>
   <stop stop-color="#7954FF" offset=".7552"/>
   <stop stop-color="#70BCFF" offset="1"/>
  </linearGradient>
  <circle cx="986.6" cy="8.7" r="67.1" fill="url(#p)"/>
  <path class="st3" d="m1031 21.5c-5.6-9.6-16.3-13.7-26.7-14.1-9.9-0.4-15.6 9.4-20.2 18.1-5.9 11.1-17.5 18.7-30.8 18.8-5.1 0-9.9-1-14.3-2.9-1.3-0.6-2.7 0.9-1.9 2 11 15.7 29.3 25.9 50 25.8 17.8-0.2-8.2-5.8 34.5-19.8 7.9-2.6 14.8-8.9 13.4-17.2-0.8-3.7-2.1-7.4-4-10.7z"/>
  <path class="st3" d="m953.3 40.8c11.1-0.1 20-7.3 25.6-16.1 5.3-8.4-0.4-18.2-5.6-26.6-6.6-10.6-7.4-24.4-0.8-36.1 2.5-4.4 5.8-8.1 9.7-11 1.1-0.8 0.6-2.8-0.8-2.6-19.2 1.8-37.2 12.6-47.4 30.6-8.7 15.5 9.1-4.2-0.1 39.7-1.7 8.2 0.3 17.3 8.2 20.2 3.5 1.2 7.4 2 11.2 1.9z"/>
  <path class="st3" d="m975.4-36.2c-5.5 9.7-3.7 21 1.1 30.2 4.6 8.8 15.9 8.8 25.8 8.4 12.5-0.5 24.9 5.8 31.7 17.3 2.6 4.4 4.1 9.1 4.6 13.9 0.2 1.4 2.1 1.9 2.7 0.6 8.1-17.4 7.8-38.4-2.7-56.2-9-15.3-1 10-34.3-20-6.2-5.6-15.2-8.4-21.6-3-2.8 2.5-5.4 5.5-7.3 8.8z"/>
  <linearGradient id="o" x1="848.9" x2="935.3" y1="704" y2="580.8" gradientTransform="matrix(.9988 -.04871 -.04871 -.9988 34.89 1043)" gradientUnits="userSpaceOnUse">
   <stop stop-color="#FCECB2" offset="0"/>
   <stop stop-color="#FF8B89" offset=".2604"/>
   <stop stop-color="#FC8ADC" offset=".5208"/>
   <stop stop-color="#7954FF" offset=".7552"/>
   <stop stop-color="#70BCFF" offset="1"/>
  </linearGradient>
  <circle cx="894.5" cy="358.1" r="67.6" fill="url(#o)"/>
  <path class="st3" d="m883.5 403.3c9.4-6.1 13.1-17 13.1-27.4 0-10-10.1-15.3-19.1-19.6-11.4-5.5-19.5-16.8-20.1-30.3-0.2-5.1 0.6-10 2.4-14.5 0.5-1.3-1-2.7-2.1-1.8-15.4 11.7-24.9 30.6-23.9 51.3 0.9 17.9 5.5-8.5 21.3 33.9 2.9 7.9 9.6 14.6 17.8 12.8 3.6-0.8 7.3-2.3 10.6-4.4z"/>
  <path class="st3" d="m860.8 325.9c0.5 11.2 8.1 19.8 17.2 25.1 8.6 5 18.3-1.1 26.5-6.7 10.4-7.1 24.3-8.5 36.3-2.3 4.6 2.3 8.4 5.6 11.4 9.3 0.9 1.1 2.8 0.5 2.6-0.9-2.5-19.2-14-36.9-32.5-46.4-15.9-8.2 4.6 9-40 1.5-8.3-1.4-17.4 1-20 9-1.1 3.6-1.7 7.5-1.5 11.4z"/>
  <path class="st3" d="m939.2 345c-9.9-5.1-21.3-2.9-30.3 2.3-8.7 5-8.2 16.4-7.4 26.3 1 12.6-4.8 25.3-16.1 32.6-4.3 2.8-9 4.5-13.8 5.2-1.4 0.2-1.8 2.2-0.5 2.7 17.8 7.4 38.9 6.3 56.4-5 15-9.7-10.1-0.6 18.7-35.4 5.4-6.5 7.8-15.6 2.2-21.8-2.6-2.7-5.7-5.1-9.2-6.9z"/>
  <linearGradient id="v" x1="968.7" x2="1036" y1="623.3" y2="526.7" gradientTransform="matrix(.5507 -.8347 -.8347 -.5507 935.7 1627)" gradientUnits="userSpaceOnUse">
   <stop stop-color="#FCECB2" offset="0"/>
   <stop stop-color="#FF8B89" offset=".2604"/>
   <stop stop-color="#FC8ADC" offset=".5208"/>
   <stop stop-color="#7954FF" offset=".7552"/>
   <stop stop-color="#70BCFF" offset="1"/>
  </linearGradient>
  <circle cx="1008" cy="473.9" r="53" fill="url(#v)"/>
  <path class="st3" d="m1031 501.9c0.5-8.7-4.7-16.2-11.3-21-6.3-4.6-14.3-0.7-21.2 3-8.7 4.7-19.6 4.5-28.5-1.3-3.4-2.2-6.1-5-8.1-8.2-0.6-0.9-2.2-0.6-2.1 0.5 0.3 15.2 7.8 29.9 21.4 38.9 11.7 7.7-2.8-7.4 31.3 2.2 6.3 1.8 13.7 0.7 16.3-5.4 1.2-2.7 2-5.7 2.2-8.7z"/>
  <path class="st3" d="m971.7 480.3c7.3 4.8 16.3 4 23.8 0.8 7.2-3.1 7.8-12.1 8-19.9 0.3-9.9 5.9-19.3 15.3-24 3.6-1.8 7.4-2.7 11.2-2.9 1.1 0 1.6-1.6 0.6-2.1-13.3-7.3-29.8-8.2-44.4-0.9-12.5 6.3 7.8 1.3-17.6 26-4.7 4.6-7.4 11.5-3.5 16.8 1.9 2.4 4.1 4.6 6.6 6.2z"/>
  <path class="st3" d="m1020 439.6c-7.8 3.9-11.7 12.1-12.6 20.3-0.9 7.8 6.6 12.8 13.2 16.9 8.4 5.2 13.8 14.7 13.1 25.3-0.2 4-1.3 7.8-3.1 11.1-0.5 1 0.6 2.2 1.5 1.6 13-7.8 22-21.7 23-38 0.8-14-5 6.1-13.7-28.2-1.6-6.4-6.2-12.2-12.8-11.5-2.9 0.3-5.9 1.1-8.6 2.5z"/>
  <linearGradient id="l" x1="1027" x2="1068" y1="496.7" y2="438.1" gradientTransform="matrix(-.8026 -.5966 -.5966 .8026 2279 708)" gradientUnits="userSpaceOnUse">
   <stop stop-color="#FCECB2" offset="0"/>
   <stop stop-color="#FF8B89" offset=".2604"/>
   <stop stop-color="#FC8ADC" offset=".5208"/>
   <stop stop-color="#7954FF" offset=".7552"/>
   <stop stop-color="#70BCFF" offset="1"/>
  </linearGradient>
  <circle cx="1160" cy="458.3" r="32.1" fill="url(#l)"/>
  <path class="st3" d="m1177 445c-5.3-0.6-9.9 2.3-13.1 6.1-3 3.7-0.9 8.7 1.1 13 2.5 5.4 2.1 12.1-1.7 17.2-1.5 2-3.3 3.5-5.3 4.6-0.6 0.3-0.4 1.3 0.2 1.3 9.2 0.3 18.4-3.7 24.3-11.6 5.1-6.8-4.6 1.4 2.4-18.9 1.3-3.8 0.9-8.3-2.7-10.1-1.6-0.8-3.4-1.4-5.2-1.6z"/>
  <path class="st3" d="m1162 480.3c3.2-4.3 3-9.7 1.3-14.4-1.7-4.4-7-5.1-11.8-5.5-6-0.5-11.5-4.2-14-10.1-1-2.2-1.4-4.6-1.4-6.9 0-0.7-0.9-1-1.2-0.5-4.9 7.8-6 17.8-2.1 26.8 3.4 7.8 1-4.7 15.1 11.5 2.6 3 6.7 4.9 10.1 2.7 1.5-0.9 2.9-2.1 4-3.6z"/>
  <path class="st3" d="m1139 449.6c2.1 4.9 6.9 7.5 11.8 8.3 4.7 0.8 8-3.5 10.7-7.4 3.4-4.9 9.4-7.8 15.8-7.1 2.4 0.3 4.7 1.1 6.6 2.2 0.6 0.3 1.3-0.3 1-0.9-4.3-8.1-12.4-14.1-22.2-15.2-8.5-1 3.5 3.3-17.6 7.3-3.9 0.8-7.6 3.4-7.4 7.4 0.1 1.9 0.5 3.7 1.3 5.4z"/>
  <linearGradient id="z" x1="1091" x2="1160" y1="871.2" y2="773.7" gradientTransform="matrix(.7041 -.7101 -.7101 -.7041 894.2 1509)" gradientUnits="userSpaceOnUse">
   <stop stop-color="#FCECB2" offset="0"/>
   <stop stop-color="#FF8B89" offset=".2604"/>
   <stop stop-color="#FC8ADC" offset=".5208"/>
   <stop stop-color="#7954FF" offset=".7552"/>
   <stop stop-color="#70BCFF" offset="1"/>
  </linearGradient>
  <circle cx="1103" cy="130.2" r="53.5" fill="url(#z)"/>
  <path class="st3" d="m1120 162.5c2.3-8.6-1.4-16.9-7-23.1-5.3-5.8-14.1-3.5-21.6-1.3-9.6 2.9-20.4 0.6-27.9-6.9-2.9-2.9-5-6.2-6.4-9.8-0.4-1-2-1-2.2 0.1-2.7 15.1 1.8 31.2 13.5 42.8 10.1 10-1.3-7.9 30.5 8.4 5.9 3 13.4 3.4 17.2-2.1 1.8-2.3 3.1-5.1 3.9-8.1z"/>
  <path class="st3" d="m1066 129.4c6.3 6.2 15.4 7.2 23.5 5.5 7.7-1.7 10.1-10.4 11.9-18.1 2.3-9.7 9.7-17.9 20-20.7 3.9-1.1 7.9-1.2 11.6-0.7 1.1 0.2 1.9-1.2 1-2-11.7-9.9-27.9-14-43.8-9.7-13.7 3.7 7.5 2.8-22.6 22.2-5.6 3.6-9.6 9.9-6.8 16 1.3 2.7 3 5.3 5.2 7.5z"/>
  <path class="st3" d="m1122 98.7c-8.5 2.3-14 9.7-16.5 17.6-2.4 7.5 4 13.9 9.7 19.3 7.3 6.8 10.7 17.3 8 27.6-1 3.9-2.9 7.4-5.3 10.4-0.7 0.9 0.1 2.3 1.2 1.9 14.4-5.2 26.1-17.1 30.3-33 3.6-13.7-6.2 5.1-8-30.7-0.3-6.6-3.8-13.3-10.4-13.9-2.9-0.2-6 0-9 0.8z"/>
  <linearGradient id="i" x1="1229" x2="1323" y1="950.9" y2="816.7" gradientTransform="matrix(-.3546 -.935 -.935 .3546 2526 899.1)" gradientUnits="userSpaceOnUse">
   <stop stop-color="#FCECB2" offset="0"/>
   <stop stop-color="#FF8B89" offset=".2604"/>
   <stop stop-color="#FC8ADC" offset=".5208"/>
   <stop stop-color="#7954FF" offset=".7552"/>
   <stop stop-color="#70BCFF" offset="1"/>
  </linearGradient>
  <circle cx="1247" cy="19.6" r="73.6" fill="url(#i)"/>
  <path class="st3" d="m1298 15.8c-9.4-7.7-22-7.9-32.8-4.4-10.3 3.3-12.4 15.6-13.9 26.3-1.8 13.6-10.9 25.8-24.6 31-5.2 2-10.6 2.7-15.9 2.4-1.5-0.1-2.4 1.9-1.2 2.8 17.3 12 40 15.5 61.2 7.5 18.2-6.9-10.6-2.9 27.9-33.4 7.2-5.7 11.9-14.8 7.2-22.7-1.9-3.5-4.7-6.8-7.9-9.5z"/>
  <path class="st3" d="m1225 65.3c11.4-4.3 17.8-15.1 20.2-26.2 2.3-10.6-7.3-18.6-15.9-25.2-10.9-8.4-16.9-22.3-14.6-36.8 0.9-5.5 2.9-10.6 5.8-15 0.8-1.3-0.5-3.1-1.9-2.4-19 9-33.5 26.9-37.1 49.2-3.1 19.2 7.8-7.8 15 40.9 1.3 9.1 6.9 17.7 16.1 17.6 4.3 0.1 8.5-0.6 12.4-2.1z"/>
  <path class="st3" d="m1219-22.3c-2 12 4.2 23 12.6 30.6 8.1 7.3 19.7 3 29.8-1.1 12.7-5.2 27.8-3.5 39.2 5.8 4.3 3.5 7.7 7.8 10 12.5 0.7 1.4 2.9 1.1 3-0.4 1.7-21-6.6-42.4-24.1-56.7-15.1-12.3 2.8 10.6-42.9-7.5-8.5-3.4-18.8-2.9-23.3 5.1-2.1 3.5-3.6 7.5-4.3 11.7z"/>
  <linearGradient id="ab" x1="1153" x2="1245" y1="733.1" y2="602.8" gradientTransform="matrix(.5892 -.808 -.808 -.5892 1049 1673)" gradientUnits="userSpaceOnUse">
   <stop stop-color="#FCECB2" offset="0"/>
   <stop stop-color="#FF8B89" offset=".2604"/>
   <stop stop-color="#FC8ADC" offset=".5208"/>
   <stop stop-color="#7954FF" offset=".7552"/>
   <stop stop-color="#70BCFF" offset="1"/>
  </linearGradient>
  <circle cx="1215" cy="310.2" r="71.4" fill="url(#ab)"/>
  <path class="st3" d="m1245 349.3c1.3-11.7-5.2-22-13.8-29-8.2-6.6-19.3-1.9-28.8 2.7-12 5.7-26.7 4.9-38.2-3.5-4.4-3.2-7.9-7.2-10.4-11.6-0.7-1.3-2.9-0.9-2.9 0.5-0.6 20.4 8.6 40.8 26.4 53.7 15.3 11.1-3.3-10.2 42 5 8.4 2.8 18.4 1.8 22.3-6.2 1.7-3.5 3-7.5 3.4-11.6z"/>
  <path class="st3" d="m1166 316.5c9.5 7 21.7 6.5 32 2.5 9.8-3.8 11.2-15.7 12.1-26.3 1.1-13.3 9.2-25.6 22.2-31.4 5-2.2 10.1-3.2 15.2-3.2 1.5 0 2.2-2 1-2.8-17.4-10.7-39.6-12.9-59.7-4-17.3 7.7 10.4 2.2-25.3 33.9-6.7 5.9-10.7 15-5.8 22.4 2.2 3.5 5 6.5 8.3 8.9z"/>
  <path class="st3" d="m1234 264.8c-10.8 4.8-16.5 15.6-18.2 26.5-1.7 10.4 8 17.6 16.7 23.6 11 7.6 17.6 20.7 16.1 34.9-0.6 5.4-2.3 10.4-4.8 14.8-0.8 1.3 0.6 2.9 1.9 2.2 18-9.7 31-27.8 33.3-49.7 2-18.8-7.2 7.9-16.7-38.8-1.8-8.7-7.6-16.8-16.5-16.2-4 0.1-8.1 1-11.8 2.7z"/>
  <linearGradient id="e" x1="933.4" x2="982.7" y1="827.2" y2="756.8" gradientTransform="matrix(.3501 .9367 .9367 -.3501 -115.9 -418.9)" gradientUnits="userSpaceOnUse">
   <stop stop-color="#FCECB2" offset="0"/>
   <stop stop-color="#FF8B89" offset=".2604"/>
   <stop stop-color="#FC8ADC" offset=".5208"/>
   <stop stop-color="#7954FF" offset=".7552"/>
   <stop stop-color="#70BCFF" offset="1"/>
  </linearGradient>
  <circle cx="961.5" cy="201.1" r="38.6" fill="url(#e)"/>
  <path class="st3" d="m935 203c4.9 4.1 11.5 4.2 17.2 2.4 5.4-1.7 6.6-8.1 7.4-13.8 1-7.1 5.8-13.5 13-16.2 2.7-1 5.6-1.4 8.3-1.2 0.8 0.1 1.3-1 0.6-1.5-9-6.3-21-8.2-32.1-4.1-9.6 3.6 5.6 1.5-14.7 17.5-3.8 3-6.3 7.8-3.9 11.9 1 1.8 2.5 3.6 4.2 5z"/>
  <path class="st3" d="m973.2 177.2c-6 2.2-9.4 7.9-10.7 13.7-1.2 5.6 3.8 9.8 8.3 13.3 5.7 4.4 8.8 11.7 7.6 19.3-0.5 2.9-1.6 5.5-3.1 7.8-0.4 0.7 0.2 1.6 1 1.3 10-4.7 17.6-14 19.6-25.7 1.7-10.1-4.1 4-7.8-21.5-0.7-4.8-3.6-9.3-8.4-9.3-2.2 0-4.5 0.3-6.5 1.1z"/>
  <path class="st3" d="m976.4 223.2c1.1-6.3-2.1-12.1-6.5-16.1-4.2-3.8-10.3-1.6-15.6 0.5-6.7 2.7-14.6 1.8-20.5-3.1-2.3-1.9-4-4.1-5.2-6.6-0.4-0.7-1.5-0.6-1.6 0.2-1 11 3.3 22.3 12.5 29.8 7.9 6.5-1.4-5.6 22.5 4 4.5 1.8 9.8 1.5 12.2-2.6 1-1.8 1.8-3.9 2.2-6.1z"/>
  <linearGradient id="ac" x1="1061" x2="1106" y1="876.6" y2="812.5" gradientTransform="matrix(-.7981 .6025 .6025 .7981 1410 -1027)" gradientUnits="userSpaceOnUse">
   <stop stop-color="#FCECB2" offset="0"/>
   <stop stop-color="#FF8B89" offset=".2604"/>
   <stop stop-color="#FC8ADC" offset=".5208"/>
   <stop stop-color="#7954FF" offset=".7552"/>
   <stop stop-color="#70BCFF" offset="1"/>
  </linearGradient>
  <circle cx="1054" cy="299.8" r="35.1" fill="url(#ac)"/>
  <path class="st3" d="m1046 277.1c-2.3 5.4-0.7 11.1 2.4 15.6 2.9 4.3 8.8 3.6 13.9 2.8 6.5-1 13.3 1.5 17.5 7.1 1.6 2.1 2.7 4.5 3.2 6.9 0.2 0.7 1.2 0.9 1.4 0.2 3.2-9.5 1.8-20.4-4.8-29.1-5.6-7.4 0.1 5.3-19.1-8.3-3.6-2.5-8.4-3.5-11.4-0.3-1.1 1.5-2.3 3.2-3.1 5.1z"/>
  <path class="st3" d="m1078 303.7c-3.5-4.6-9.3-6.2-14.7-5.8-5.2 0.4-7.5 5.8-9.4 10.6-2.4 6.1-8 10.8-14.9 11.6-2.6 0.3-5.2 0.1-7.6-0.7-0.7-0.2-1.3 0.6-0.9 1.2 6.7 7.5 16.8 11.7 27.5 10.4 9.2-1.1-4.6-2.5 16.8-12.3 4-1.8 7.2-5.5 5.9-9.7-0.6-1.8-1.5-3.7-2.7-5.3z"/>
  <path class="st3" d="m1039 318.5c5.8-0.7 10-5 12.4-9.9 2.3-4.7-1.3-9.4-4.5-13.5-4.1-5.1-5.3-12.3-2.6-18.7 1-2.5 2.6-4.6 4.4-6.3 0.5-0.5 0.1-1.5-0.6-1.3-9.8 2-18.6 8.7-22.8 18.6-3.6 8.6 4.5-2.7 2.3 20.7-0.4 4.4 1.2 9 5.5 10 1.9 0.5 3.9 0.6 5.9 0.4z"/>
  <linearGradient id="s" x1="1396" x2="1471" y1="841.6" y2="734.8" gradientTransform="matrix(-.5395 -.842 -.842 .5395 2768 953.5)" gradientUnits="userSpaceOnUse">
   <stop stop-color="#FCECB2" offset="0"/>
   <stop stop-color="#FF8B89" offset=".2604"/>
   <stop stop-color="#FC8ADC" offset=".5208"/>
   <stop stop-color="#7954FF" offset=".7552"/>
   <stop stop-color="#70BCFF" offset="1"/>
  </linearGradient>
  <circle cx="1331" cy="172.2" r="58.6" fill="url(#s)"/>
  <path class="st3" d="m1370 160.9c-8.6-4.4-18.4-2.5-26.3 2-7.5 4.3-7.1 14.2-6.5 22.8 0.8 10.9-4.2 21.9-14.1 28.2-3.7 2.4-7.8 3.9-12 4.5-1.2 0.2-1.6 1.9-0.4 2.4 15.5 6.5 33.7 5.5 48.9-4.2 13.1-8.4-8.8-0.5 16.3-30.6 4.7-5.6 6.8-13.5 1.9-18.9-2.2-2.5-4.8-4.6-7.8-6.2z"/>
  <path class="st3" d="m1321 211.4c8.2-5.2 11.4-14.7 11.5-23.8 0-8.6-8.7-13.3-16.5-17-9.8-4.8-16.8-14.6-17.4-26.3-0.2-4.4 0.6-8.7 2.1-12.6 0.4-1.1-0.9-2.3-1.8-1.6-13.4 10.1-21.7 26.4-20.8 44.4 0.7 15.5 4.8-7.3 18.4 29.4 2.5 6.8 8.3 12.7 15.4 11.1 3.1-0.6 6.3-1.8 9.1-3.6z"/>
  <path class="st3" d="m1302 144.2c0.4 9.7 7 17.2 14.8 21.8 7.5 4.4 15.8-0.9 23-5.8 9-6.1 21.1-7.3 31.5-1.9 3.9 2 7.3 4.8 9.9 8.1 0.8 1 2.4 0.4 2.3-0.8-2.1-16.6-12.1-32-28.1-40.3-13.8-7.1 3.9 7.8-34.7 1.2-7.2-1.2-15.1 0.9-17.3 7.8-1.1 3.2-1.6 6.5-1.4 9.9z"/>
  <linearGradient id="u" x1="1437" x2="1492" y1="1054" y2="975.8" gradientTransform="matrix(-.8041 -.5946 -.5946 .8041 3214 107.1)" gradientUnits="userSpaceOnUse">
   <stop stop-color="#FCECB2" offset="0"/>
   <stop stop-color="#FF8B89" offset=".2604"/>
   <stop stop-color="#FC8ADC" offset=".5208"/>
   <stop stop-color="#7954FF" offset=".7552"/>
   <stop stop-color="#70BCFF" offset="1"/>
  </linearGradient>
  <circle cx="1433" cy="52.5" r="42.7" fill="url(#u)"/>
  <path class="st3" d="m1457 34.8c-7-0.8-13.2 3-17.4 8.2-4 4.9-1.2 11.5 1.5 17.2 3.4 7.2 2.8 16-2.3 22.8-1.9 2.6-4.3 4.7-7 6.2-0.8 0.4-0.6 1.7 0.3 1.7 12.2 0.4 24.4-5 32.2-15.5 6.7-9.1-6.1 1.9 3.1-25.1 1.7-5 1.1-11-3.6-13.4-2-1.1-4.4-1.9-6.8-2.1z"/>
  <path class="st3" d="m1437 81.7c4.2-5.7 4-13 1.6-19.1-2.2-5.9-9.4-6.8-15.6-7.3-7.9-0.7-15.3-5.6-18.7-13.4-1.3-3-1.9-6.1-1.9-9.1 0-0.9-1.2-1.4-1.7-0.6-6.5 10.4-7.9 23.6-2.6 35.7 4.5 10.4 1.4-6.2 20.1 15.3 3.5 4 8.9 6.5 13.4 3.6 2.1-1.5 4-3.2 5.4-5.1z"/>
  <path class="st3" d="m1406 41c2.8 6.5 9.2 9.9 15.8 11 6.2 1 10.5-4.7 14.2-9.9 4.6-6.5 12.5-10.4 20.9-9.5 3.2 0.4 6.2 1.4 8.8 3 0.8 0.5 1.8-0.4 1.3-1.1-5.7-10.8-16.5-18.6-29.6-20.1-11.2-1.3 4.7 4.3-23.3 9.8-5.2 1-10.1 4.5-9.8 9.8 0.2 2.3 0.8 4.8 1.7 7z"/>
  <linearGradient id="a" x1="1333" x2="1405" y1="969.3" y2="866.1" gradientTransform="matrix(-.7636 .6457 .6457 .7636 2034 -1570)" gradientUnits="userSpaceOnUse">
   <stop stop-color="#FCECB2" offset="0"/>
   <stop stop-color="#FF8B89" offset=".2604"/>
   <stop stop-color="#FC8ADC" offset=".5208"/>
   <stop stop-color="#7954FF" offset=".7552"/>
   <stop stop-color="#70BCFF" offset="1"/>
  </linearGradient>
  <circle cx="1582" cy="14.1" r="56.6" fill="url(#a)"/>
  <path class="st3" d="m1566-21.6c-3.2 8.8-0.1 18 5.2 24.9 5.1 6.6 14.5 5 22.7 3.3 10.3-2.2 21.5 1.3 28.8 9.9 2.8 3.3 4.7 7 5.8 10.9 0.3 1.1 2 1.3 2.3 0.1 4.3-15.6 1-33-10.2-46.3-9.7-11.4 0.6 8.4-31.4-11.7-6-3.7-13.8-4.8-18.3 0.6-2.1 2.4-3.8 5.3-4.9 8.3z"/>
  <path class="st3" d="m1620 18.4c-6-7.1-15.5-9.1-24.2-7.9-8.3 1.1-11.6 10-14.2 18-3.3 10-11.8 18-23 20-4.2 0.8-8.4 0.6-12.3-0.4-1.1-0.3-2.1 1.1-1.3 2 11.4 11.5 28.1 17.4 45.2 14.3 14.7-2.7-7.6-3.7 25.8-21.3 6.2-3.3 11.1-9.6 8.7-16.2-1-3.1-2.6-6-4.7-8.5z"/>
  <path class="st3" d="m1558 45.6c9.2-1.7 15.6-8.9 19-17 3.2-7.7-2.9-15.1-8.4-21.3-7-7.9-9.7-19.3-5.8-29.9 1.5-4 3.7-7.6 6.5-10.5 0.8-0.9 0.1-2.4-1.1-2.1-15.7 4.1-29.1 15.6-35 32-5.1 14.1 7-4.8 5.6 33-0.3 7 2.7 14.4 9.7 15.6 3 0.7 6.3 0.8 9.5 0.2z"/>
  <linearGradient id="w" x1="1519" x2="1600" y1="886" y2="771.3" gradientTransform="matrix(.3308 -.9437 -.9437 -.3308 1786 1937)" gradientUnits="userSpaceOnUse">
   <stop stop-color="#FCECB2" offset="0"/>
   <stop stop-color="#FF8B89" offset=".2604"/>
   <stop stop-color="#FC8ADC" offset=".5208"/>
   <stop stop-color="#7954FF" offset=".7552"/>
   <stop stop-color="#70BCFF" offset="1"/>
  </linearGradient>
  <circle cx="1519" cy="191.7" r="62.9" fill="url(#w)"/>
  <path class="st3" d="m1554 217c-1.9-10.2-10-17.3-19-20.9-8.6-3.5-16.7 3.3-23.6 9.6-8.7 7.9-21.3 10.9-33.1 6.8-4.5-1.6-8.4-4-11.7-7.1-1-0.9-2.7-0.1-2.3 1.2 4.7 17.4 17.6 32.2 35.9 38.6 15.7 5.5-5.4-7.7 36.7-6.5 7.8 0.2 15.9-3.2 17.3-10.9 0.5-3.6 0.5-7.3-0.2-10.8z"/>
  <path class="st3" d="m1480 209.4c9.8 3.4 20-0.1 27.7-6 7.3-5.7 5.5-16.1 3.5-25.2-2.5-11.5 1.2-23.9 10.7-32.1 3.6-3.1 7.7-5.3 12-6.6 1.3-0.4 1.4-2.3 0.1-2.6-17.4-4.6-36.7-0.8-51.4 11.8-12.6 10.9 9.4-0.8-12.7 35-4.1 6.7-5.2 15.4 0.8 20.4 2.8 2.2 5.9 4.1 9.3 5.3z"/>
  <path class="st3" d="m1524 148.5c-7.9 6.8-9.9 17.3-8.6 27 1.3 9.2 11.2 12.8 20.1 15.6 11.2 3.6 20.1 13 22.4 25.3 0.9 4.7 0.7 9.3-0.3 13.7-0.3 1.3 1.3 2.3 2.2 1.4 12.7-12.8 19.1-31.3 15.5-50.4-3.1-16.4-4 8.5-23.9-28.5-3.7-6.9-10.7-12.2-18.1-9.5-3.4 1.3-6.6 3.1-9.3 5.4z"/>
  <linearGradient id="d" x1="1578" x2="1640" y1="634.7" y2="547.1" gradientTransform="matrix(.8297 .5583 .5583 -.8297 -162.6 3.418)" gradientUnits="userSpaceOnUse">
   <stop stop-color="#FCECB2" offset="0"/>
   <stop stop-color="#FF8B89" offset=".2604"/>
   <stop stop-color="#FC8ADC" offset=".5208"/>
   <stop stop-color="#7954FF" offset=".7552"/>
   <stop stop-color="#70BCFF" offset="1"/>
  </linearGradient>
  <circle cx="1502" cy="411.2" r="48" fill="url(#d)"/>
  <path class="st3" d="m1476 432.3c7.9 0.5 14.7-4.1 19.2-10 4.3-5.7 0.8-13-2.5-19.3-4.2-7.9-4-17.9 1.4-25.8 2-3 4.6-5.5 7.5-7.3 0.9-0.5 0.6-1.9-0.4-1.9-13.7 0.1-27.2 6.8-35.5 19.1-7.1 10.6 6.8-2.5-2.3 28.4-1.7 5.7-0.7 12.4 4.7 14.9 2.5 1 5.2 1.7 7.9 1.9z"/>
  <path class="st3" d="m1497 378.5c-4.4 6.6-3.8 14.8-0.9 21.6 2.8 6.5 10.9 7.2 18 7.4 9 0.4 17.4 5.5 21.7 14.1 1.6 3.3 2.4 6.7 2.5 10.2 0 1 1.4 1.5 1.9 0.6 6.7-12 7.7-27 1.2-40.2-5.6-11.4-1.2 7.1-23.4-16.2-4.1-4.3-10.4-6.8-15.2-3.3-2.3 1.6-4.3 3.5-5.8 5.8z"/>
  <path class="st3" d="m1533 422.8c-3.5-7.1-10.9-10.7-18.3-11.6-7-0.8-11.6 5.8-15.4 11.8-4.8 7.6-13.5 12.4-23 11.7-3.6-0.3-7-1.3-10.1-2.9-0.9-0.5-2 0.5-1.5 1.4 7 11.8 19.5 20.1 34.3 21.2 12.7 0.9-5.5-4.6 25.7-12.2 5.8-1.4 11.1-5.6 10.5-11.5-0.3-2.8-1-5.5-2.2-7.9z"/>
  <linearGradient id="x" x1="1571" x2="1660" y1="801.3" y2="673.5" gradientTransform="matrix(-.9461 -.3239 -.3239 .9461 3404 144)" gradientUnits="userSpaceOnUse">
   <stop stop-color="#FCECB2" offset="0"/>
   <stop stop-color="#FF8B89" offset=".2604"/>
   <stop stop-color="#FC8ADC" offset=".5208"/>
   <stop stop-color="#7954FF" offset=".7552"/>
   <stop stop-color="#70BCFF" offset="1"/>
  </linearGradient>
  <circle cx="1637" cy="318.6" r="70" fill="url(#x)"/>
  <path class="st3" d="m1665 279.2c-11.4 2.2-19.1 11.3-23.2 21.4-3.8 9.6 3.9 18.6 10.9 26.2 8.9 9.6 12.3 23.7 7.8 36.9-1.7 5-4.4 9.4-7.8 13.1-1 1.1-0.1 3 1.4 2.6 19.3-5.4 35.7-19.9 42.7-40.3 6-17.6-8.6 6-7.5-40.8 0.2-8.7-3.7-17.7-12.3-19.1-4-0.8-8.1-0.8-12 0z"/>
  <path class="st3" d="m1657 362.5c3.8-11-0.2-22.2-6.9-30.8-6.4-8.1-18-6-28.1-3.7-12.8 2.9-26.6-1.2-35.8-11.7-3.5-4-6-8.6-7.4-13.3-0.4-1.4-2.5-1.5-2.9-0.1-5 19.4-0.6 40.9 13.5 57.1 12.2 14-0.9-10.4 39.1 13.9 7.4 4.5 17.2 5.7 22.7-1.1 2.4-3 4.5-6.5 5.8-10.3z"/>
  <path class="st3" d="m1588 314c7.6 8.7 19.4 10.9 30.1 9.4 10.2-1.5 14.2-12.6 17.2-22.5 3.9-12.5 14.3-22.5 28-25.2 5.2-1 10.4-0.9 15.3 0.2 1.4 0.3 2.6-1.4 1.5-2.5-14.3-14-35.1-21-56.2-16.8-18.2 3.6 9.5 4.4-31.6 26.9-7.6 4.2-13.5 12-10.4 20.2 1.5 3.7 3.5 7.3 6.1 10.3z"/>
  <linearGradient id="aa" x1="1440" x2="1489" y1="541.7" y2="471.4" gradientTransform="matrix(-.02756 -.9996 -.9996 .02756 1942 1769)" gradientUnits="userSpaceOnUse">
   <stop stop-color="#FCECB2" offset="0"/>
   <stop stop-color="#FF8B89" offset=".2604"/>
   <stop stop-color="#FC8ADC" offset=".5208"/>
   <stop stop-color="#7954FF" offset=".7552"/>
   <stop stop-color="#70BCFF" offset="1"/>
  </linearGradient>
  <circle cx="1395" cy="318.6" r="38.5" fill="url(#aa)"/>
  <path class="st3" d="m1421 325.4c-3.3-5.4-9.5-7.7-15.5-7.8-5.7-0.1-8.8 5.6-11.4 10.6-3.2 6.4-9.8 10.9-17.5 11.1-2.9 0.1-5.7-0.5-8.3-1.5-0.7-0.3-1.5 0.5-1.1 1.2 6.5 8.9 17.1 14.6 29 14.2 10.2-0.3-4.8-3.3 19.6-11.7 4.5-1.6 8.4-5.3 7.5-10-0.4-2.1-1.2-4.2-2.3-6.1z"/>
  <path class="st3" d="m1376 337.4c6.4-0.2 11.4-4.4 14.5-9.5 3-4.9-0.4-10.4-3.5-15.2-3.9-6-4.5-13.9-0.9-20.7 1.4-2.6 3.3-4.7 5.4-6.4 0.6-0.5 0.3-1.6-0.5-1.5-11 1.2-21.2 7.5-26.8 18-4.9 9 5.2-2.5 0.4 22.8-0.9 4.7 0.4 9.9 4.9 11.5 2 0.6 4.3 1 6.5 1z"/>
  <path class="st3" d="m1388 292.9c-3 5.6-1.9 12.1 1 17.3 2.7 5 9.2 4.9 14.9 4.6 7.2-0.4 14.3 3 18.4 9.6 1.5 2.5 2.5 5.2 2.8 7.9 0.1 0.8 1.2 1.1 1.6 0.3 4.5-10.1 4.1-22.1-2.2-32.2-5.3-8.7-0.4 5.7-19.9-11.1-3.6-3.1-8.8-4.6-12.4-1.5-1.7 1.5-3.2 3.2-4.2 5.1z"/>
  <linearGradient id="j" x1="1271" x2="1354" y1="640.3" y2="522.1" gradientTransform="matrix(.1211 -.9926 -.9926 -.1211 1742 1848)" gradientUnits="userSpaceOnUse">
   <stop stop-color="#FCECB2" offset="0"/>
   <stop stop-color="#FF8B89" offset=".2604"/>
   <stop stop-color="#FC8ADC" offset=".5208"/>
   <stop stop-color="#7954FF" offset=".7552"/>
   <stop stop-color="#70BCFF" offset="1"/>
  </linearGradient>
  <circle cx="1324" cy="474.9" r="64.8" fill="url(#j)"/>
  <path class="st3" d="m1364 492.6c-4.2-9.9-13.9-15.2-23.8-16.9-9.4-1.6-16.1 7-21.6 14.8-7 9.9-19.1 15.7-31.9 14.1-4.9-0.6-9.4-2.2-13.4-4.6-1.2-0.7-2.7 0.5-2.1 1.7 8.6 16.4 24.8 28.5 44.7 30.9 17 2.1-7.1-6.6 35.5-14.6 7.9-1.5 15.3-6.7 15-14.8-0.2-3.4-1-7.1-2.4-10.6z"/>
  <path class="st3" d="m1288 501.5c10.6 1.3 20.1-4.5 26.5-12.2 6.1-7.3 1.9-17.5-2-26.2-5-11-4.1-24.3 3.7-34.7 3-3.9 6.6-7 10.7-9.3 1.2-0.7 0.9-2.6-0.5-2.6-18.5-0.8-37.1 7.3-49.1 23.2-10.3 13.7 9.3-2.8-5.1 38-2.7 7.6-1.9 16.6 5.3 20.4 3.2 1.7 6.8 2.9 10.5 3.4z"/>
  <path class="st3" d="m1318 430.4c-6.4 8.6-6.2 19.6-2.7 29.1 3.3 9 14.1 10.4 23.7 11.3 12 1.1 23.1 8.7 28.2 20.6 1.9 4.5 2.8 9.2 2.7 13.9 0 1.4 1.8 2.1 2.5 0.9 9.9-15.7 12.3-35.8 4.5-54.1-6.7-15.8-2.2 9.5-30.4-23.4-5.3-6.1-13.5-9.9-20.3-5.6-3.1 1.9-6 4.4-8.2 7.3z"/>
  <linearGradient id="h" x1="211" x2="257.9" y1="581.6" y2="514.8" gradientTransform="matrix(-.928 -.3725 -.3725 .928 745.2 -48.84)" gradientUnits="userSpaceOnUse">
   <stop stop-color="#FCECB2" offset="0"/>
   <stop stop-color="#FF8B89" offset=".2604"/>
   <stop stop-color="#FC8ADC" offset=".5208"/>
   <stop stop-color="#7954FF" offset=".7552"/>
   <stop stop-color="#70BCFF" offset="1"/>
  </linearGradient>
  <circle cx="323.4" cy="372.7" r="36.7" fill="url(#h)"/>
  <path class="st3" d="m339.1 352.9c-6 0.9-10.3 5.4-12.7 10.6-2.3 4.9 1.5 9.8 5 14 4.4 5.3 5.8 12.7 3.1 19.5-1 2.6-2.6 4.8-4.5 6.6-0.6 0.5-0.1 1.5 0.6 1.4 10.2-2.3 19.2-9.4 23.4-19.9 3.6-9-4.6 2.9-2.8-21.5 0.3-4.5-1.4-9.4-5.9-10.3-2-0.6-4.1-0.7-6.2-0.4z"/>
  <path class="st3" d="m332.7 396.2c2.3-5.6 0.5-11.6-2.8-16.3-3.1-4.4-9.3-3.6-14.6-2.7-6.7 1.2-13.9-1.3-18.4-7.1-1.7-2.2-2.9-4.6-3.5-7.2-0.2-0.7-1.3-0.9-1.5-0.1-3.1 10-1.4 21.3 5.5 30.2 6 7.6-0.2-5.5 20.1 8.3 3.8 2.6 8.8 3.4 11.9 0.1 1.4-1.4 2.6-3.2 3.3-5.2z"/>
  <path class="st3" d="m298.4 369c3.7 4.8 9.8 6.2 15.5 5.7 5.4-0.5 7.7-6.2 9.6-11.3 2.4-6.4 8.1-11.4 15.3-12.4 2.8-0.4 5.5-0.2 8 0.5 0.7 0.2 1.4-0.7 0.9-1.2-7.1-7.7-17.8-11.9-28.9-10.3-9.6 1.4 4.9 2.6-17.2 13.2-4.1 2-7.4 5.9-6 10.3 0.5 2 1.5 3.9 2.8 5.5z"/>
  <linearGradient id="k" x1="257.2" x2="318.8" y1="721.2" y2="633.4" gradientTransform="matrix(-.928 -.3725 -.3725 .928 745.2 -48.84)" gradientUnits="userSpaceOnUse">
   <stop stop-color="#FCECB2" offset="0"/>
   <stop stop-color="#FF8B89" offset=".2604"/>
   <stop stop-color="#FC8ADC" offset=".5208"/>
   <stop stop-color="#7954FF" offset=".7552"/>
   <stop stop-color="#70BCFF" offset="1"/>
  </linearGradient>
  <circle cx="225.6" cy="472.6" r="48.1" fill="url(#k)"/>
  <path class="st3" d="m246.2 446.6c-7.9 1.1-13.5 7.1-16.7 13.8-3 6.4 2 12.9 6.5 18.3 5.7 6.9 7.6 16.7 4 25.6-1.4 3.4-3.4 6.3-5.9 8.7-0.7 0.7-0.1 2 0.8 1.8 13.4-3 25.2-12.4 30.7-26.1 4.7-11.8-6.1 3.8-3.7-28.2 0.4-6-1.9-12.3-7.7-13.6-2.5-0.6-5.3-0.7-8-0.3z"/>
  <path class="st3" d="m237.8 503.4c3-7.4 0.6-15.3-3.7-21.3-4.1-5.8-12.1-4.7-19.1-3.5-8.8 1.5-18.2-1.7-24.2-9.3-2.3-2.9-3.8-6.1-4.6-9.4-0.2-1-1.7-1.1-2-0.2-4.1 13.1-1.9 28 7.3 39.7 7.9 10-0.3-7.2 26.3 10.9 4.9 3.4 11.6 4.5 15.6 0.1 1.9-2.1 3.4-4.4 4.4-7z"/>
  <path class="st3" d="m192.8 467.7c4.9 6.3 12.9 8.2 20.3 7.5 7.1-0.6 10.2-8.2 12.6-14.8 3.1-8.4 10.6-14.9 20.1-16.3 3.6-0.5 7.2-0.2 10.5 0.7 1 0.3 1.8-0.9 1.1-1.6-9.3-10.1-23.3-15.6-38-13.5-12.6 1.8 6.4 3.4-22.6 17.3-5.4 2.6-9.7 7.8-7.9 13.5 0.9 2.6 2.2 5.1 3.9 7.2z"/>
  <linearGradient id="ag" x1="247" x2="310.4" y1="817.1" y2="726.7" gradientTransform="matrix(.5358 -.8444 -.8444 -.5358 802.9 873.9)" gradientUnits="userSpaceOnUse">
   <stop stop-color="#FCECB2" offset="0"/>
   <stop stop-color="#FF8B89" offset=".2604"/>
   <stop stop-color="#FC8ADC" offset=".5208"/>
   <stop stop-color="#7954FF" offset=".7552"/>
   <stop stop-color="#70BCFF" offset="1"/>
  </linearGradient>
  <circle cx="300.2" cy="225" r="49.6" fill="url(#ag)"/>
  <path class="st3" d="m322.7 250.8c0.3-8.2-4.6-15-10.9-19.5-6-4.2-13.4-0.4-19.8 3.1-8.1 4.5-18.3 4.6-26.7-0.7-3.2-2-5.8-4.6-7.7-7.6-0.6-0.9-2-0.5-2 0.5 0.5 14.2 7.8 27.9 20.7 36 11.1 7-2.7-6.9 29.3 1.6 6 1.6 12.8 0.4 15.2-5.3 1.1-2.5 1.8-5.3 1.9-8.1z"/>
  <path class="st3" d="m266.7 231.6c6.9 4.4 15.3 3.5 22.3 0.3 6.7-3.1 7.1-11.4 7.2-18.7 0.1-9.2 5.2-18.1 14-22.7 3.3-1.7 6.9-2.7 10.4-2.9 1-0.1 1.5-1.5 0.6-2-12.5-6.6-28-7.2-41.5-0.1-11.6 6.1 7.3 1.1-16 24.6-4.3 4.4-6.7 10.9-3 15.8 1.5 2.2 3.6 4.2 6 5.7z"/>
  <path class="st3" d="m311.3 192.7c-7.3 3.8-10.7 11.5-11.4 19.2-0.7 7.3 6.3 11.8 12.6 15.6 7.9 4.7 13.1 13.6 12.7 23.4-0.2 3.8-1.1 7.3-2.7 10.5-0.5 0.9 0.6 2 1.4 1.5 12-7.5 20.2-20.7 20.9-35.9 0.5-13.1-4.6 5.8-13.3-26.2-1.6-5.9-6-11.3-12.2-10.5-2.7 0.3-5.5 1.1-8 2.4z"/>
  <linearGradient id="c" x1="-47.43" x2="36.22" y1="869.7" y2="750.5" gradientTransform="matrix(.7168 .6972 .6972 -.7168 -565.4 764.8)" gradientUnits="userSpaceOnUse">
   <stop stop-color="#FCECB2" offset="0"/>
   <stop stop-color="#FF8B89" offset=".2604"/>
   <stop stop-color="#FC8ADC" offset=".5208"/>
   <stop stop-color="#7954FF" offset=".7552"/>
   <stop stop-color="#70BCFF" offset="1"/>
  </linearGradient>
  <circle cx="-4.5" cy="179.9" r="65.4" fill="url(#c)"/>
  <path class="st3" d="m-43.8 202c10.5 2.7 20.7-1.9 28.1-8.8 7.1-6.6 4.2-17.2 1.3-26.4-3.6-11.6-1-24.9 8.1-34.2 3.5-3.6 7.5-6.2 11.8-7.9 1.3-0.5 1.2-2.5-0.1-2.7-18.4-3.1-38.1 2.5-52.1 17-12.1 12.4 9.6-1.7-9.9 37.4-3.6 7.3-4 16.4 2.7 21 3 2 6.4 3.7 10.1 4.6z"/>
  <path class="st3" d="m-4 134.9c-7.5 7.7-8.7 18.8-6.4 28.7 2.1 9.4 12.8 12.2 22.2 14.3 11.9 2.7 22 11.6 25.6 24.1 1.4 4.8 1.6 9.6 0.9 14.2-0.2 1.4 1.5 2.3 2.4 1.2 11.9-14.4 16.8-34.2 11.4-53.6-4.7-16.7-3.4 9.2-27.4-27.3-4.5-6.8-12.2-11.6-19.6-8.2-3.3 1.8-6.5 3.9-9.1 6.6z"/>
  <path class="st3" d="m34.2 203c-2.9-10.4-12-16.9-21.7-19.9-9.2-2.8-17 5-23.5 12.1-8.3 9-21.1 13.3-33.7 10.1-4.8-1.2-9.1-3.4-12.8-6.3-1.1-0.8-2.8 0.2-2.3 1.5 6.5 17.5 21.2 31.7 40.7 36.6 16.8 4.2-6.3-7.5 37.4-10.1 8.1-0.5 16.2-4.8 16.9-12.9 0.3-3.7 0-7.5-1-11.1z"/>
  <linearGradient id="f" x1="304.8" x2="399.5" y1="1054" y2="919.4" gradientTransform="matrix(-.655 -.7557 -.7557 .655 1321 -356.4)" gradientUnits="userSpaceOnUse">
   <stop stop-color="#FCECB2" offset="0"/>
   <stop stop-color="#FF8B89" offset=".2604"/>
   <stop stop-color="#FC8ADC" offset=".5208"/>
   <stop stop-color="#7954FF" offset=".7552"/>
   <stop stop-color="#70BCFF" offset="1"/>
  </linearGradient>
  <circle cx="344.8" cy="24.2" r="74" fill="url(#f)"/>
  <path class="st3" d="m391.3 3c-11.6-4-23.5 0.2-32.5 7.2-8.6 6.7-6.4 19-4 29.7 3 13.5-1.3 28.1-12.5 37.8-4.2 3.7-9.1 6.3-14.1 7.8-1.5 0.4-1.6 2.7-0.1 3.1 20.5 5.3 43.2 0.8 60.4-14.1 14.8-12.8-11 1 14.8-41.2 4.8-7.8 6.1-18.1-1-24-3.3-2.7-7-4.9-11-6.3z"/>
  <path class="st3" d="m339.9 74.9c9.2-8 11.6-20.4 10-31.8-1.5-10.8-13.3-15-23.7-18.3-13.2-4.1-23.8-15.2-26.5-29.6-1.1-5.5-0.9-11 0.3-16.1 0.4-1.5-1.5-2.7-2.6-1.6-14.8 15.1-22.3 37-18 59.3 3.7 19.2 4.7-10 28.3 33.4 4.4 8.1 12.7 14.3 21.3 11.1 3.9-1.5 7.7-3.6 10.9-6.4z"/>
  <path class="st3" d="m303.3-5.6c2.3 12 11.9 20.3 22.5 24.6 10.1 4.1 19.6-4 27.7-11.4 10.2-9.3 25-12.9 39-8.1 5.3 1.8 10 4.7 13.8 8.3 1.1 1.1 3.1 0.1 2.7-1.4-5.6-20.4-20.9-37.8-42.4-45.2-18.5-6.4 6.3 9.1-43.1 7.8-9.2-0.2-18.7 3.8-20.3 12.9-0.6 4.1-0.7 8.4 0.1 12.5z"/>
 </g>
 <ellipse class="st0" cx="1484" cy="478.7" rx="27.9" ry="17.2"/>
 <ellipse class="st0" cx="1552" cy="479" rx="18.6" ry="11.5"/>
 <defs>
  <ellipse id="ai" cx="1400" cy="479.2" rx="33.9" ry="20.8"/>
 </defs>
 <clipPath id="aj">
  <use xlink:href="#ai"/>
 </clipPath>
 <g clip-path="url(#aj)">
  <circle cx="158" cy="114.7" r="55.9" fill="url(#q)"/>
  <path class="st3" d="m151.1 152.6c7.5-5.4 10-14.6 9.6-23.3-0.5-8.2-9.1-12.2-16.7-15.3-9.7-4-16.9-13-18.1-24.1-0.5-4.2 0-8.3 1.3-12.1 0.4-1.1-1-2.2-1.8-1.4-12.1 10.4-19.1 26.4-17.3 43.6 1.6 14.7 4.2-7.3 19.2 27 2.8 6.4 8.6 11.6 15.3 9.7 2.9-0.8 5.9-2.2 8.5-4.1z"/>
  <path class="st3" d="m128.7 89.7c1 9.2 7.7 16 15.4 19.9 7.4 3.7 15.1-1.8 21.6-6.8 8.3-6.4 19.7-8.2 29.9-3.6 3.9 1.7 7.2 4.2 9.9 7.2 0.8 0.9 2.3 0.2 2.1-0.9-3-15.7-13.3-29.8-29.1-36.8-13.5-6 4.2 7.2-33 3.1-6.9-0.8-14.4 1.7-16.1 8.4-0.8 3-1.1 6.3-0.7 9.5z"/>
  <path class="st3" d="m194.4 101.7c-8.5-3.7-17.7-1.4-25 3.4-6.9 4.5-6 13.9-4.9 22.1 1.4 10.3-2.8 21.1-11.8 27.7-3.4 2.5-7.2 4.1-11.1 5-1.1 0.2-1.4 1.9-0.3 2.3 15.1 5.3 32.5 3.3 46.4-6.8 12-8.7-8.4 0 13.8-30.1 4.1-5.6 5.7-13.3 0.7-18.1-2.2-2.3-4.9-4.2-7.8-5.5z"/>
  <circle cx="77.3" cy="2.6" r="43.9" fill="url(#r)"/>
  <path class="st3" d="m107.3-1.2c-5.8-4.3-13.3-4-19.7-1.6-6.1 2.3-6.9 9.7-7.5 16.1-0.7 8.2-5.7 15.7-13.7 19.2-3.1 1.3-6.2 2-9.4 1.9-0.9 0-1.4 1.2-0.6 1.7 10.7 6.6 24.3 8 36.7 2.6 10.6-4.7-6.4-1.4 15.6-20.8 4.1-3.6 6.6-9.2 3.6-13.8-1.3-1.9-3-3.8-5-5.3z"/>
  <path class="st3" d="m65.5 30.5c6.6-2.9 10.2-9.5 11.2-16.2 1-6.4-4.9-10.8-10.2-14.5-6.7-4.8-10.7-12.9-9.8-21.6 0.4-3.3 1.4-6.4 3-9.1 0.5-0.8-0.4-1.8-1.2-1.4-11 6-19 17.1-20.5 30.5-1.3 11.6 4.4-4.9 10.2 23.9 1.1 5.4 4.7 10.3 10.1 10 2.4-0.1 4.9-0.6 7.2-1.6z"/>
  <path class="st3" d="m59-21.5c-0.8 7.2 3.1 13.5 8.4 17.8 5 4.1 11.8 1.2 17.7-1.6 7.4-3.5 16.5-2.9 23.5 2.2 2.7 2 4.8 4.4 6.4 7.1 0.5 0.8 1.8 0.6 1.8-0.3 0.4-12.6-5.2-25.1-16.1-33.1-9.4-6.9 2 6.3-25.8-3.1-5.2-1.7-11.3-1.1-13.7 3.7-1.2 2.3-2 4.8-2.2 7.3z"/>
  <circle cx="33.2" cy="470.4" r="62.2" fill="url(#b)"/>
  <path class="st3" d="m73.4 485.4c-4.5-9.2-14.1-13.9-23.6-15-9.1-1.1-15.1 7.5-20 15.3-6.2 9.8-17.5 16-29.9 15.1-4.7-0.3-9.1-1.7-13-3.8-1.1-0.6-2.5 0.6-1.9 1.7 9 15.3 25.2 26.1 44.3 27.5 16.4 1.2-7.1-6 33.3-15.8 7.5-1.8 14.4-7.2 13.6-14.9-0.3-3.4-1.3-6.9-2.8-10.1z"/>
  <path class="st3" d="m0.1 497.7c10.3 0.7 19-5.3 24.8-13 5.5-7.3 1-16.8-3.2-25-5.4-10.3-5.1-23.1 1.9-33.4 2.6-3.9 6-7.1 9.8-9.4 1.1-0.7 0.7-2.5-0.6-2.5-17.8 0.2-35.2 8.8-45.9 24.7-9.2 13.7 8.7-3.2-3 36.7-2.2 7.4-1 16 6.1 19.3 3 1.3 6.5 2.3 10.1 2.6z"/>
  <path class="st3" d="m26.1 428.1c-5.8 8.5-5 19.1-1.2 28 3.6 8.5 14.1 9.3 23.3 9.7 11.6 0.5 22.6 7.2 28 18.3 2.1 4.2 3.1 8.7 3.3 13.2 0 1.3 1.8 1.9 2.5 0.8 8.8-15.5 10-34.9 1.6-52.1-7.2-14.8-1.6 9.2-30.3-21-5.3-5.6-13.4-8.9-19.7-4.4-2.9 2-5.5 4.5-7.5 7.5z"/>
  <circle cx="127.8" cy="313.7" r="67" fill="url(#ae)"/>
  <path class="st3" d="m173.9 316.6c-7.5-8.1-18.8-9.9-29-8.1-9.7 1.7-13.2 12.5-15.8 22-3.3 12-13 21.9-26 24.9-5 1.1-9.9 1.1-14.6 0.2-1.4-0.3-2.4 1.4-1.4 2.4 14.1 13 34.1 19 54.2 14.4 17.3-4-9.2-3.9 29.4-26.6 7.2-4.2 12.6-11.9 9.4-19.6-1.5-3.4-3.6-6.8-6.2-9.6z"/>
  <path class="st3" d="m102.3 352.2c10.8-2.5 18-11.4 21.5-21.1 3.4-9.3-4.2-17.6-11.2-24.7-8.7-8.9-12.5-22.2-8.5-35 1.5-4.9 4-9.2 7.1-12.8 0.9-1.1 0-2.8-1.4-2.4-18.3 5.7-33.5 20.1-39.6 39.8-5.2 16.9 8-6 8.4 38.8 0.1 8.3 4 16.8 12.3 17.9 3.7 0.4 7.6 0.3 11.4-0.5z"/>
  <path class="st3" d="m107.3 272.3c-3.3 10.6 0.9 21.2 7.5 29.2 6.3 7.6 17.4 5.2 27 2.7 12.1-3.1 25.5 0.3 34.6 10.1 3.5 3.7 5.9 8 7.5 12.5 0.5 1.3 2.5 1.4 2.8 0 4.2-18.7-0.6-39.1-14.6-54.2-12.1-13 1.2 9.9-37.8-12.1-7.2-4.1-16.6-4.9-21.7 1.7-2.3 3-4.1 6.5-5.3 10.1z"/>
  <circle cx="508.7" cy="197.8" r="83.9" fill="url(#g)"/>
  <path class="st3" d="m536.7 248.4c3.5-13.4-2.2-26.5-11-36.1-8.4-9.1-22-5.5-33.9-1.9-15 4.6-31.9 1-43.8-10.8-4.5-4.5-7.9-9.7-10-15.3-0.6-1.6-3.2-1.6-3.5 0.1-4.2 23.6 2.9 48.9 21.2 67 15.8 15.6-2-12.4 47.9 13.1 9.3 4.7 21 5.3 27-3.3 2.7-3.7 4.8-8.1 6.1-12.8z"/>
  <path class="st3" d="m450.9 196.6c9.9 9.8 24.1 11.3 36.8 8.5 12.1-2.7 15.8-16.3 18.6-28.4 3.5-15.2 15.1-28.1 31.3-32.6 6.1-1.7 12.3-2 18.3-1.1 1.7 0.3 3-1.9 1.6-3.1-18.4-15.5-43.8-22-68.7-15.1-21.4 5.9 11.7 4.4-35.3 34.9-8.8 5.7-15.1 15.6-10.7 25 2 4.4 4.7 8.5 8.1 11.9z"/>
  <path class="st3" d="m538.7 148.3c-13.4 3.7-21.9 15.2-25.8 27.6-3.7 11.8 6.2 21.9 15.3 30.3 11.4 10.7 16.8 27.2 12.6 43.3-1.6 6.2-4.5 11.7-8.2 16.3-1.1 1.4 0.2 3.5 1.8 2.9 22.6-8.2 40.9-26.9 47.4-51.9 5.6-21.5-9.7 8-12.6-48.1-0.5-10.4-5.9-20.8-16.3-21.8-4.7-0.2-9.6 0.1-14.2 1.4z"/>
  <circle cx="602.3" cy="32.2" r="48.1" fill="url(#y)"/>
  <path class="st3" d="m633.5 21c-7.3-3.2-15.2-1.2-21.4 2.9-5.9 3.9-5.1 12-4.2 19 1.2 8.9-2.4 18.1-10.1 23.8-2.9 2.2-6.2 3.6-9.6 4.3-1 0.2-1.2 1.6-0.2 2 13 4.5 27.9 2.8 39.8-5.9 10.3-7.5-7.2 0 11.8-25.9 3.5-4.8 4.9-11.4 0.6-15.6-1.9-1.9-4.2-3.5-6.7-4.6z"/>
  <path class="st3" d="m596.3 64.8c6.4-4.7 8.6-12.6 8.2-20-0.4-7.1-7.8-10.4-14.4-13.1-8.3-3.4-14.5-11.1-15.6-20.6-0.4-3.6 0-7.2 1.1-10.4 0.3-1-0.8-1.9-1.6-1.2-10.4 9-16.4 22.7-14.8 37.5 1.4 12.7 3.6-6.2 16.5 23.2 2.4 5.5 7.4 9.9 13.2 8.3 2.7-0.9 5.2-2.1 7.4-3.7z"/>
  <path class="st3" d="m577 10.7c0.9 7.9 6.6 13.8 13.3 17.1 6.3 3.2 12.9-1.5 18.5-5.9 7.1-5.5 16.9-7 25.7-3.2 3.3 1.5 6.2 3.6 8.5 6.1 0.7 0.7 2 0.2 1.8-0.8-2.6-13.5-11.5-25.6-25-31.6-11.6-5.1 3.6 6.2-28.3 2.7-5.9-0.6-12.3 1.5-13.8 7.3-0.7 2.8-1 5.6-0.7 8.3z"/>
  <circle cx="729.5" cy="276.9" r="44.6" fill="url(#ad)"/>
  <path class="st3" d="m754.8 294.4c-1.5-7.2-7.3-12.1-13.8-14.6-6.1-2.4-11.8 2.6-16.6 7.1-6.1 5.7-15 8-23.4 5.2-3.2-1.1-6-2.8-8.4-4.9-0.7-0.6-1.9 0-1.6 0.9 3.6 12.3 12.9 22.6 25.9 26.9 11.2 3.7-3.9-5.4 25.9-5.1 5.5 0.1 11.3-2.5 12.1-7.9 0.4-2.5 0.4-5.1-0.1-7.6z"/>
  <path class="st3" d="m701.7 290c7 2.3 14.2-0.3 19.5-4.6 5.1-4.1 3.7-11.5 2.2-17.9-1.9-8.1 0.6-17 7.2-22.9 2.5-2.3 5.4-3.9 8.5-4.8 0.9-0.3 1-1.6 0-1.8-12.4-3-26-0.1-36.3 9-8.8 7.9 6.6-0.7-8.6 25-2.8 4.8-3.5 11 0.8 14.5 2 1.4 4.2 2.7 6.7 3.5z"/>
  <path class="st3" d="m732.1 246.2c-5.5 4.9-6.8 12.4-5.8 19.2 1 6.5 8.1 8.9 14.4 10.8 8 2.4 14.4 9 16.2 17.7 0.7 3.3 0.6 6.6-0.1 9.7-0.2 0.9 0.9 1.6 1.6 1 8.8-9.2 13.1-22.5 10.3-35.9-2.4-11.6-2.7 6.1-17.3-19.9-2.7-4.8-7.8-8.5-12.9-6.5-2.3 0.9-4.5 2.2-6.4 3.9z"/>
  <circle cx="602.3" cy="349.3" r="34.1" fill="url(#m)"/>
  <path class="st3" d="m588.3 368.2c5.5-1 9.4-5.3 11.5-10.2 2-4.6-1.7-9.1-5-12.8-4.2-4.8-5.8-11.6-3.4-18 0.9-2.4 2.3-4.5 3.9-6.3 0.5-0.5 0.1-1.4-0.6-1.3-9.4 2.4-17.6 9.3-21.2 19.2-3.1 8.5 4.2-2.8 3.2 19.9-0.2 4.2 1.6 8.7 5.8 9.4 1.9 0.4 3.9 0.4 5.8 0.1z"/>
  <path class="st3" d="m593 327.8c-1.9 5.3-0.1 10.8 3.1 15 3 4 8.7 3.1 13.6 2.1 6.2-1.3 12.9 0.8 17.3 6 1.7 2 2.8 4.2 3.5 6.6 0.2 0.7 1.2 0.8 1.4 0.1 2.6-9.4 0.7-19.9-6-27.9-5.8-6.9 0.4 5.1-18.9-7.2-3.6-2.3-8.3-2.9-11 0.3-1.3 1.5-2.4 3.2-3 5z"/>
  <path class="st3" d="m625.6 352.1c-3.6-4.3-9.3-5.5-14.5-4.9-5 0.6-7 6-8.6 10.8-2 6-7.2 10.8-13.9 12-2.5 0.4-5.1 0.3-7.4-0.3-0.7-0.2-1.3 0.7-0.8 1.2 6.8 7 16.8 10.6 27.2 8.8 8.9-1.6-4.6-2.2 15.6-12.8 3.8-2 6.7-5.7 5.3-9.7-0.7-1.9-1.6-3.7-2.9-5.1z"/>
  <circle cx="481.6" cy="431.1" r="54" fill="url(#af)"/>
  <path class="st3" d="m444.8 436.4c7.3 5.2 16.5 4.7 24.3 1.6 7.4-3 8.3-12 8.9-20 0.7-10.1 6.7-19.5 16.4-24 3.7-1.7 7.6-2.5 11.5-2.6 1.1 0 1.7-1.5 0.7-2.1-13.3-7.9-30.1-9.4-45.2-2.4-13 6 7.9 1.6-18.8 25.9-5 4.5-7.9 11.5-4.2 17 1.7 2.5 3.8 4.8 6.4 6.6z"/>
  <path class="st3" d="m495.5 396.5c-8.1 3.7-12.3 11.9-13.5 20.2-1.1 7.9 6.3 13.2 12.9 17.7 8.4 5.6 13.5 15.5 12.5 26.2-0.4 4.1-1.6 7.9-3.5 11.2-0.6 1 0.5 2.2 1.5 1.7 13.5-7.5 23.2-21.4 24.7-37.9 1.3-14.2-5.3 6.1-13-29.2-1.4-6.6-6-12.6-12.7-12.1-3 0.2-6.1 0.9-8.9 2.2z"/>
  <path class="st3" d="m504.7 460.4c0.8-8.9-4.2-16.6-10.8-21.8-6.3-4.9-14.6-1.2-21.7 2.3-9 4.5-20.2 4-29-2.3-3.3-2.4-6-5.3-8-8.7-0.6-1-2.2-0.7-2.2 0.4-0.2 15.5 6.9 30.7 20.5 40.3 11.7 8.3-2.6-7.7 31.8 3.3 6.4 2 13.9 1.1 16.8-4.9 1.4-2.5 2.3-5.6 2.6-8.6z"/>
  <circle cx="713.8" cy="455.4" r="62.6" fill="url(#t)"/>
  <path class="st3" d="m707.1 498c8.2-6.3 10.8-16.7 10-26.4-0.8-9.2-10.5-13.3-19.2-16.6-10.9-4.1-19.3-14-21-26.4-0.6-4.7-0.2-9.3 1-13.6 0.4-1.3-1.1-2.4-2.1-1.5-13.3 12-20.6 30.2-18.1 49.3 2.2 16.4 4.4-8.3 22.3 29.6 3.3 7 10 12.7 17.5 10.4 3.5-1 6.8-2.6 9.6-4.8z"/>
  <path class="st3" d="m680.1 428.3c1.4 10.3 9.1 17.7 17.8 21.8 8.4 3.9 16.8-2.4 24-8.3 9.1-7.4 21.8-9.7 33.3-5 4.4 1.8 8.2 4.5 11.3 7.7 0.9 0.9 2.6 0.2 2.4-1.1-3.8-17.5-15.8-32.9-33.7-40.3-15.3-6.3 4.9 8-36.8 4.5-7.8-0.6-16 2.3-17.7 9.9-0.8 3.6-1 7.2-0.6 10.8z"/>
  <path class="st3" d="m754.1 439.8c-9.6-3.9-19.9-1-27.8 4.5-7.6 5.3-6.3 15.8-4.8 24.9 1.9 11.5-2.5 23.7-12.4 31.3-3.8 2.9-8 4.9-12.3 5.9-1.3 0.3-1.5 2.2-0.3 2.6 17.1 5.5 36.4 2.8 51.7-9 13.1-10.1-9.4 0.3 14.5-34.1 4.4-6.4 6-15 0.3-20.3-2.6-2.4-5.6-4.4-8.9-5.8z"/>
  <circle cx="807.5" cy="108.8" r="88.9" fill="url(#n)"/>
  <path class="st3" d="m812.2 47.7c-10.9 9.9-13.5 24.8-11.3 38.4 2.1 13 16.3 17.7 28.9 21.4 15.9 4.7 28.9 17.7 32.6 35 1.4 6.6 1.3 13.2 0 19.4-0.4 1.8 1.9 3.3 3.1 1.9 17.5-18.5 25.9-45 20.2-71.7-4.9-23-5.4 12.2-34.8-39.5-5.5-9.6-15.6-16.9-25.8-12.8-4.6 1.8-9.1 4.5-12.9 7.9z"/>
  <path class="st3" d="m858.1 143.5c-3.1-14.4-14.8-24.1-27.6-29-12.3-4.7-23.5 5.3-33 14.3-12 11.5-29.8 16.1-46.6 10.7-6.4-2.1-12.1-5.4-16.8-9.7-1.4-1.2-3.8 0-3.2 1.8 7.3 24.4 26 44.9 52 53.3 22.4 7.3-7.8-10.8 51.6-10.4 11.1 0.1 22.4-5 24-16 0.7-4.8 0.6-10-0.4-15z"/>
  <path class="st3" d="m752.1 135.3c14 4.5 28.2-0.8 38.9-9.5 10.2-8.3 7.2-23 4.1-35.8-3.9-16.1 0.9-33.9 14.1-45.7 5-4.5 10.7-7.7 16.8-9.7 1.8-0.6 1.9-3.2 0.1-3.7-24.8-5.9-51.9 0.1-72.2 18.4-17.5 15.8 13.2-1.4-16.8 49.9-5.6 9.5-6.9 21.9 1.8 28.8 3.9 3.2 8.4 5.7 13.2 7.3z"/>
  <circle cx="986.6" cy="8.7" r="67.1" fill="url(#p)"/>
  <path class="st3" d="m1031 21.5c-5.6-9.6-16.3-13.7-26.7-14.1-9.9-0.4-15.6 9.4-20.2 18.1-5.9 11.1-17.5 18.7-30.8 18.8-5.1 0-9.9-1-14.3-2.9-1.3-0.6-2.7 0.9-1.9 2 11 15.7 29.3 25.9 50 25.8 17.8-0.2-8.2-5.8 34.5-19.8 7.9-2.6 14.8-8.9 13.4-17.2-0.8-3.7-2.1-7.4-4-10.7z"/>
  <path class="st3" d="m953.3 40.8c11.1-0.1 20-7.3 25.6-16.1 5.3-8.4-0.4-18.2-5.6-26.6-6.6-10.6-7.4-24.4-0.8-36.1 2.5-4.4 5.8-8.1 9.7-11 1.1-0.8 0.6-2.8-0.8-2.6-19.2 1.8-37.2 12.6-47.4 30.6-8.7 15.5 9.1-4.2-0.1 39.7-1.7 8.2 0.3 17.3 8.2 20.2 3.5 1.2 7.4 2 11.2 1.9z"/>
  <path class="st3" d="m975.4-36.2c-5.5 9.7-3.7 21 1.1 30.2 4.6 8.8 15.9 8.8 25.8 8.4 12.5-0.5 24.9 5.8 31.7 17.3 2.6 4.4 4.1 9.1 4.6 13.9 0.2 1.4 2.1 1.9 2.7 0.6 8.1-17.4 7.8-38.4-2.7-56.2-9-15.3-1 10-34.3-20-6.2-5.6-15.2-8.4-21.6-3-2.8 2.5-5.4 5.5-7.3 8.8z"/>
  <circle cx="894.5" cy="358.1" r="67.6" fill="url(#o)"/>
  <path class="st3" d="m883.5 403.3c9.4-6.1 13.1-17 13.1-27.4 0-10-10.1-15.3-19.1-19.6-11.4-5.5-19.5-16.8-20.1-30.3-0.2-5.1 0.6-10 2.4-14.5 0.5-1.3-1-2.7-2.1-1.8-15.4 11.7-24.9 30.6-23.9 51.3 0.9 17.9 5.5-8.5 21.3 33.9 2.9 7.9 9.6 14.6 17.8 12.8 3.6-0.8 7.3-2.3 10.6-4.4z"/>
  <path class="st3" d="m860.8 325.9c0.5 11.2 8.1 19.8 17.2 25.1 8.6 5 18.3-1.1 26.5-6.7 10.4-7.1 24.3-8.5 36.3-2.3 4.6 2.3 8.4 5.6 11.4 9.3 0.9 1.1 2.8 0.5 2.6-0.9-2.5-19.2-14-36.9-32.5-46.4-15.9-8.2 4.6 9-40 1.5-8.3-1.4-17.4 1-20 9-1.1 3.6-1.7 7.5-1.5 11.4z"/>
  <path class="st3" d="m939.2 345c-9.9-5.1-21.3-2.9-30.3 2.3-8.7 5-8.2 16.4-7.4 26.3 1 12.6-4.8 25.3-16.1 32.6-4.3 2.8-9 4.5-13.8 5.2-1.4 0.2-1.8 2.2-0.5 2.7 17.8 7.4 38.9 6.3 56.4-5 15-9.7-10.1-0.6 18.7-35.4 5.4-6.5 7.8-15.6 2.2-21.8-2.6-2.7-5.7-5.1-9.2-6.9z"/>
  <circle cx="1008" cy="473.9" r="53" fill="url(#v)"/>
  <path class="st3" d="m1031 501.9c0.5-8.7-4.7-16.2-11.3-21-6.3-4.6-14.3-0.7-21.2 3-8.7 4.7-19.6 4.5-28.5-1.3-3.4-2.2-6.1-5-8.1-8.2-0.6-0.9-2.2-0.6-2.1 0.5 0.3 15.2 7.8 29.9 21.4 38.9 11.7 7.7-2.8-7.4 31.3 2.2 6.3 1.8 13.7 0.7 16.3-5.4 1.2-2.7 2-5.7 2.2-8.7z"/>
  <path class="st3" d="m971.7 480.3c7.3 4.8 16.3 4 23.8 0.8 7.2-3.1 7.8-12.1 8-19.9 0.3-9.9 5.9-19.3 15.3-24 3.6-1.8 7.4-2.7 11.2-2.9 1.1 0 1.6-1.6 0.6-2.1-13.3-7.3-29.8-8.2-44.4-0.9-12.5 6.3 7.8 1.3-17.6 26-4.7 4.6-7.4 11.5-3.5 16.8 1.9 2.4 4.1 4.6 6.6 6.2z"/>
  <path class="st3" d="m1020 439.6c-7.8 3.9-11.7 12.1-12.6 20.3-0.9 7.8 6.6 12.8 13.2 16.9 8.4 5.2 13.8 14.7 13.1 25.3-0.2 4-1.3 7.8-3.1 11.1-0.5 1 0.6 2.2 1.5 1.6 13-7.8 22-21.7 23-38 0.8-14-5 6.1-13.7-28.2-1.6-6.4-6.2-12.2-12.8-11.5-2.9 0.3-5.9 1.1-8.6 2.5z"/>
  <circle cx="1160" cy="458.3" r="32.1" fill="url(#l)"/>
  <path class="st3" d="m1177 445c-5.3-0.6-9.9 2.3-13.1 6.1-3 3.7-0.9 8.7 1.1 13 2.5 5.4 2.1 12.1-1.7 17.2-1.5 2-3.3 3.5-5.3 4.6-0.6 0.3-0.4 1.3 0.2 1.3 9.2 0.3 18.4-3.7 24.3-11.6 5.1-6.8-4.6 1.4 2.4-18.9 1.3-3.8 0.9-8.3-2.7-10.1-1.6-0.8-3.4-1.4-5.2-1.6z"/>
  <path class="st3" d="m1162 480.3c3.2-4.3 3-9.7 1.3-14.4-1.7-4.4-7-5.1-11.8-5.5-6-0.5-11.5-4.2-14-10.1-1-2.2-1.4-4.6-1.4-6.9 0-0.7-0.9-1-1.2-0.5-4.9 7.8-6 17.8-2.1 26.8 3.4 7.8 1-4.7 15.1 11.5 2.6 3 6.7 4.9 10.1 2.7 1.5-0.9 2.9-2.1 4-3.6z"/>
  <path class="st3" d="m1139 449.6c2.1 4.9 6.9 7.5 11.8 8.3 4.7 0.8 8-3.5 10.7-7.4 3.4-4.9 9.4-7.8 15.8-7.1 2.4 0.3 4.7 1.1 6.6 2.2 0.6 0.3 1.3-0.3 1-0.9-4.3-8.1-12.4-14.1-22.2-15.2-8.5-1 3.5 3.3-17.6 7.3-3.9 0.8-7.6 3.4-7.4 7.4 0.1 1.9 0.5 3.7 1.3 5.4z"/>
  <circle cx="1103" cy="130.2" r="53.5" fill="url(#z)"/>
  <path class="st3" d="m1120 162.5c2.3-8.6-1.4-16.9-7-23.1-5.3-5.8-14.1-3.5-21.6-1.3-9.6 2.9-20.4 0.6-27.9-6.9-2.9-2.9-5-6.2-6.4-9.8-0.4-1-2-1-2.2 0.1-2.7 15.1 1.8 31.2 13.5 42.8 10.1 10-1.3-7.9 30.5 8.4 5.9 3 13.4 3.4 17.2-2.1 1.8-2.3 3.1-5.1 3.9-8.1z"/>
  <path class="st3" d="m1066 129.4c6.3 6.2 15.4 7.2 23.5 5.5 7.7-1.7 10.1-10.4 11.9-18.1 2.3-9.7 9.7-17.9 20-20.7 3.9-1.1 7.9-1.2 11.6-0.7 1.1 0.2 1.9-1.2 1-2-11.7-9.9-27.9-14-43.8-9.7-13.7 3.7 7.5 2.8-22.6 22.2-5.6 3.6-9.6 9.9-6.8 16 1.3 2.7 3 5.3 5.2 7.5z"/>
  <path class="st3" d="m1122 98.7c-8.5 2.3-14 9.7-16.5 17.6-2.4 7.5 4 13.9 9.7 19.3 7.3 6.8 10.7 17.3 8 27.6-1 3.9-2.9 7.4-5.3 10.4-0.7 0.9 0.1 2.3 1.2 1.9 14.4-5.2 26.1-17.1 30.3-33 3.6-13.7-6.2 5.1-8-30.7-0.3-6.6-3.8-13.3-10.4-13.9-2.9-0.2-6 0-9 0.8z"/>
  <circle cx="1247" cy="19.6" r="73.6" fill="url(#i)"/>
  <path class="st3" d="m1298 15.8c-9.4-7.7-22-7.9-32.8-4.4-10.3 3.3-12.4 15.6-13.9 26.3-1.8 13.6-10.9 25.8-24.6 31-5.2 2-10.6 2.7-15.9 2.4-1.5-0.1-2.4 1.9-1.2 2.8 17.3 12 40 15.5 61.2 7.5 18.2-6.9-10.6-2.9 27.9-33.4 7.2-5.7 11.9-14.8 7.2-22.7-1.9-3.5-4.7-6.8-7.9-9.5z"/>
  <path class="st3" d="m1225 65.3c11.4-4.3 17.8-15.1 20.2-26.2 2.3-10.6-7.3-18.6-15.9-25.2-10.9-8.4-16.9-22.3-14.6-36.8 0.9-5.5 2.9-10.6 5.8-15 0.8-1.3-0.5-3.1-1.9-2.4-19 9-33.5 26.9-37.1 49.2-3.1 19.2 7.8-7.8 15 40.9 1.3 9.1 6.9 17.7 16.1 17.6 4.3 0.1 8.5-0.6 12.4-2.1z"/>
  <path class="st3" d="m1219-22.3c-2 12 4.2 23 12.6 30.6 8.1 7.3 19.7 3 29.8-1.1 12.7-5.2 27.8-3.5 39.2 5.8 4.3 3.5 7.7 7.8 10 12.5 0.7 1.4 2.9 1.1 3-0.4 1.7-21-6.6-42.4-24.1-56.7-15.1-12.3 2.8 10.6-42.9-7.5-8.5-3.4-18.8-2.9-23.3 5.1-2.1 3.5-3.6 7.5-4.3 11.7z"/>
  <circle cx="1215" cy="310.2" r="71.4" fill="url(#ab)"/>
  <path class="st3" d="m1245 349.3c1.3-11.7-5.2-22-13.8-29-8.2-6.6-19.3-1.9-28.8 2.7-12 5.7-26.7 4.9-38.2-3.5-4.4-3.2-7.9-7.2-10.4-11.6-0.7-1.3-2.9-0.9-2.9 0.5-0.6 20.4 8.6 40.8 26.4 53.7 15.3 11.1-3.3-10.2 42 5 8.4 2.8 18.4 1.8 22.3-6.2 1.7-3.5 3-7.5 3.4-11.6z"/>
  <path class="st3" d="m1166 316.5c9.5 7 21.7 6.5 32 2.5 9.8-3.8 11.2-15.7 12.1-26.3 1.1-13.3 9.2-25.6 22.2-31.4 5-2.2 10.1-3.2 15.2-3.2 1.5 0 2.2-2 1-2.8-17.4-10.7-39.6-12.9-59.7-4-17.3 7.7 10.4 2.2-25.3 33.9-6.7 5.9-10.7 15-5.8 22.4 2.2 3.5 5 6.5 8.3 8.9z"/>
  <path class="st3" d="m1234 264.8c-10.8 4.8-16.5 15.6-18.2 26.5-1.7 10.4 8 17.6 16.7 23.6 11 7.6 17.6 20.7 16.1 34.9-0.6 5.4-2.3 10.4-4.8 14.8-0.8 1.3 0.6 2.9 1.9 2.2 18-9.7 31-27.8 33.3-49.7 2-18.8-7.2 7.9-16.7-38.8-1.8-8.7-7.6-16.8-16.5-16.2-4 0.1-8.1 1-11.8 2.7z"/>
  <circle cx="961.5" cy="201.1" r="38.6" fill="url(#e)"/>
  <path class="st3" d="m935 203c4.9 4.1 11.5 4.2 17.2 2.4 5.4-1.7 6.6-8.1 7.4-13.8 1-7.1 5.8-13.5 13-16.2 2.7-1 5.6-1.4 8.3-1.2 0.8 0.1 1.3-1 0.6-1.5-9-6.3-21-8.2-32.1-4.1-9.6 3.6 5.6 1.5-14.7 17.5-3.8 3-6.3 7.8-3.9 11.9 1 1.8 2.5 3.6 4.2 5z"/>
  <path class="st3" d="m973.2 177.2c-6 2.2-9.4 7.9-10.7 13.7-1.2 5.6 3.8 9.8 8.3 13.3 5.7 4.4 8.8 11.7 7.6 19.3-0.5 2.9-1.6 5.5-3.1 7.8-0.4 0.7 0.2 1.6 1 1.3 10-4.7 17.6-14 19.6-25.7 1.7-10.1-4.1 4-7.8-21.5-0.7-4.8-3.6-9.3-8.4-9.3-2.2 0-4.5 0.3-6.5 1.1z"/>
  <path class="st3" d="m976.4 223.2c1.1-6.3-2.1-12.1-6.5-16.1-4.2-3.8-10.3-1.6-15.6 0.5-6.7 2.7-14.6 1.8-20.5-3.1-2.3-1.9-4-4.1-5.2-6.6-0.4-0.7-1.5-0.6-1.6 0.2-1 11 3.3 22.3 12.5 29.8 7.9 6.5-1.4-5.6 22.5 4 4.5 1.8 9.8 1.5 12.2-2.6 1-1.8 1.8-3.9 2.2-6.1z"/>
  <circle cx="1054" cy="299.8" r="35.1" fill="url(#ac)"/>
  <path class="st3" d="m1046 277.1c-2.3 5.4-0.7 11.1 2.4 15.6 2.9 4.3 8.8 3.6 13.9 2.8 6.5-1 13.3 1.5 17.5 7.1 1.6 2.1 2.7 4.5 3.2 6.9 0.2 0.7 1.2 0.9 1.4 0.2 3.2-9.5 1.8-20.4-4.8-29.1-5.6-7.4 0.1 5.3-19.1-8.3-3.6-2.5-8.4-3.5-11.4-0.3-1.1 1.5-2.3 3.2-3.1 5.1z"/>
  <path class="st3" d="m1078 303.7c-3.5-4.6-9.3-6.2-14.7-5.8-5.2 0.4-7.5 5.8-9.4 10.6-2.4 6.1-8 10.8-14.9 11.6-2.6 0.3-5.2 0.1-7.6-0.7-0.7-0.2-1.3 0.6-0.9 1.2 6.7 7.5 16.8 11.7 27.5 10.4 9.2-1.1-4.6-2.5 16.8-12.3 4-1.8 7.2-5.5 5.9-9.7-0.6-1.8-1.5-3.7-2.7-5.3z"/>
  <path class="st3" d="m1039 318.5c5.8-0.7 10-5 12.4-9.9 2.3-4.7-1.3-9.4-4.5-13.5-4.1-5.1-5.3-12.3-2.6-18.7 1-2.5 2.6-4.6 4.4-6.3 0.5-0.5 0.1-1.5-0.6-1.3-9.8 2-18.6 8.7-22.8 18.6-3.6 8.6 4.5-2.7 2.3 20.7-0.4 4.4 1.2 9 5.5 10 1.9 0.5 3.9 0.6 5.9 0.4z"/>
  <circle cx="1331" cy="172.2" r="58.6" fill="url(#s)"/>
  <path class="st3" d="m1370 160.9c-8.6-4.4-18.4-2.5-26.3 2-7.5 4.3-7.1 14.2-6.5 22.8 0.8 10.9-4.2 21.9-14.1 28.2-3.7 2.4-7.8 3.9-12 4.5-1.2 0.2-1.6 1.9-0.4 2.4 15.5 6.5 33.7 5.5 48.9-4.2 13.1-8.4-8.8-0.5 16.3-30.6 4.7-5.6 6.8-13.5 1.9-18.9-2.2-2.5-4.8-4.6-7.8-6.2z"/>
  <path class="st3" d="m1321 211.4c8.2-5.2 11.4-14.7 11.5-23.8 0-8.6-8.7-13.3-16.5-17-9.8-4.8-16.8-14.6-17.4-26.3-0.2-4.4 0.6-8.7 2.1-12.6 0.4-1.1-0.9-2.3-1.8-1.6-13.4 10.1-21.7 26.4-20.8 44.4 0.7 15.5 4.8-7.3 18.4 29.4 2.5 6.8 8.3 12.7 15.4 11.1 3.1-0.6 6.3-1.8 9.1-3.6z"/>
  <path class="st3" d="m1302 144.2c0.4 9.7 7 17.2 14.8 21.8 7.5 4.4 15.8-0.9 23-5.8 9-6.1 21.1-7.3 31.5-1.9 3.9 2 7.3 4.8 9.9 8.1 0.8 1 2.4 0.4 2.3-0.8-2.1-16.6-12.1-32-28.1-40.3-13.8-7.1 3.9 7.8-34.7 1.2-7.2-1.2-15.1 0.9-17.3 7.8-1.1 3.2-1.6 6.5-1.4 9.9z"/>
  <circle cx="1433" cy="52.5" r="42.7" fill="url(#u)"/>
  <path class="st3" d="m1457 34.8c-7-0.8-13.2 3-17.4 8.2-4 4.9-1.2 11.5 1.5 17.2 3.4 7.2 2.8 16-2.3 22.8-1.9 2.6-4.3 4.7-7 6.2-0.8 0.4-0.6 1.7 0.3 1.7 12.2 0.4 24.4-5 32.2-15.5 6.7-9.1-6.1 1.9 3.1-25.1 1.7-5 1.1-11-3.6-13.4-2-1.1-4.4-1.9-6.8-2.1z"/>
  <path class="st3" d="m1437 81.7c4.2-5.7 4-13 1.6-19.1-2.2-5.9-9.4-6.8-15.6-7.3-7.9-0.7-15.3-5.6-18.7-13.4-1.3-3-1.9-6.1-1.9-9.1 0-0.9-1.2-1.4-1.7-0.6-6.5 10.4-7.9 23.6-2.6 35.7 4.5 10.4 1.4-6.2 20.1 15.3 3.5 4 8.9 6.5 13.4 3.6 2.1-1.5 4-3.2 5.4-5.1z"/>
  <path class="st3" d="m1406 41c2.8 6.5 9.2 9.9 15.8 11 6.2 1 10.5-4.7 14.2-9.9 4.6-6.5 12.5-10.4 20.9-9.5 3.2 0.4 6.2 1.4 8.8 3 0.8 0.5 1.8-0.4 1.3-1.1-5.7-10.8-16.5-18.6-29.6-20.1-11.2-1.3 4.7 4.3-23.3 9.8-5.2 1-10.1 4.5-9.8 9.8 0.2 2.3 0.8 4.8 1.7 7z"/>
  <circle cx="1582" cy="14.1" r="56.6" fill="url(#a)"/>
  <path class="st3" d="m1566-21.6c-3.2 8.8-0.1 18 5.2 24.9 5.1 6.6 14.5 5 22.7 3.3 10.3-2.2 21.5 1.3 28.8 9.9 2.8 3.3 4.7 7 5.8 10.9 0.3 1.1 2 1.3 2.3 0.1 4.3-15.6 1-33-10.2-46.3-9.7-11.4 0.6 8.4-31.4-11.7-6-3.7-13.8-4.8-18.3 0.6-2.1 2.4-3.8 5.3-4.9 8.3z"/>
  <path class="st3" d="m1620 18.4c-6-7.1-15.5-9.1-24.2-7.9-8.3 1.1-11.6 10-14.2 18-3.3 10-11.8 18-23 20-4.2 0.8-8.4 0.6-12.3-0.4-1.1-0.3-2.1 1.1-1.3 2 11.4 11.5 28.1 17.4 45.2 14.3 14.7-2.7-7.6-3.7 25.8-21.3 6.2-3.3 11.1-9.6 8.7-16.2-1-3.1-2.6-6-4.7-8.5z"/>
  <path class="st3" d="m1558 45.6c9.2-1.7 15.6-8.9 19-17 3.2-7.7-2.9-15.1-8.4-21.3-7-7.9-9.7-19.3-5.8-29.9 1.5-4 3.7-7.6 6.5-10.5 0.8-0.9 0.1-2.4-1.1-2.1-15.7 4.1-29.1 15.6-35 32-5.1 14.1 7-4.8 5.6 33-0.3 7 2.7 14.4 9.7 15.6 3 0.7 6.3 0.8 9.5 0.2z"/>
  <circle cx="1519" cy="191.7" r="62.9" fill="url(#w)"/>
  <path class="st3" d="m1554 217c-1.9-10.2-10-17.3-19-20.9-8.6-3.5-16.7 3.3-23.6 9.6-8.7 7.9-21.3 10.9-33.1 6.8-4.5-1.6-8.4-4-11.7-7.1-1-0.9-2.7-0.1-2.3 1.2 4.7 17.4 17.6 32.2 35.9 38.6 15.7 5.5-5.4-7.7 36.7-6.5 7.8 0.2 15.9-3.2 17.3-10.9 0.5-3.6 0.5-7.3-0.2-10.8z"/>
  <path class="st3" d="m1480 209.4c9.8 3.4 20-0.1 27.7-6 7.3-5.7 5.5-16.1 3.5-25.2-2.5-11.5 1.2-23.9 10.7-32.1 3.6-3.1 7.7-5.3 12-6.6 1.3-0.4 1.4-2.3 0.1-2.6-17.4-4.6-36.7-0.8-51.4 11.8-12.6 10.9 9.4-0.8-12.7 35-4.1 6.7-5.2 15.4 0.8 20.4 2.8 2.2 5.9 4.1 9.3 5.3z"/>
  <path class="st3" d="m1524 148.5c-7.9 6.8-9.9 17.3-8.6 27 1.3 9.2 11.2 12.8 20.1 15.6 11.2 3.6 20.1 13 22.4 25.3 0.9 4.7 0.7 9.3-0.3 13.7-0.3 1.3 1.3 2.3 2.2 1.4 12.7-12.8 19.1-31.3 15.5-50.4-3.1-16.4-4 8.5-23.9-28.5-3.7-6.9-10.7-12.2-18.1-9.5-3.4 1.3-6.6 3.1-9.3 5.4z"/>
  <circle cx="1502" cy="411.2" r="48" fill="url(#d)"/>
  <path class="st3" d="m1476 432.3c7.9 0.5 14.7-4.1 19.2-10 4.3-5.7 0.8-13-2.5-19.3-4.2-7.9-4-17.9 1.4-25.8 2-3 4.6-5.5 7.5-7.3 0.9-0.5 0.6-1.9-0.4-1.9-13.7 0.1-27.2 6.8-35.5 19.1-7.1 10.6 6.8-2.5-2.3 28.4-1.7 5.7-0.7 12.4 4.7 14.9 2.5 1 5.2 1.7 7.9 1.9z"/>
  <path class="st3" d="m1497 378.5c-4.4 6.6-3.8 14.8-0.9 21.6 2.8 6.5 10.9 7.2 18 7.4 9 0.4 17.4 5.5 21.7 14.1 1.6 3.3 2.4 6.7 2.5 10.2 0 1 1.4 1.5 1.9 0.6 6.7-12 7.7-27 1.2-40.2-5.6-11.4-1.2 7.1-23.4-16.2-4.1-4.3-10.4-6.8-15.2-3.3-2.3 1.6-4.3 3.5-5.8 5.8z"/>
  <path class="st3" d="m1533 422.8c-3.5-7.1-10.9-10.7-18.3-11.6-7-0.8-11.6 5.8-15.4 11.8-4.8 7.6-13.5 12.4-23 11.7-3.6-0.3-7-1.3-10.1-2.9-0.9-0.5-2 0.5-1.5 1.4 7 11.8 19.5 20.1 34.3 21.2 12.7 0.9-5.5-4.6 25.7-12.2 5.8-1.4 11.1-5.6 10.5-11.5-0.3-2.8-1-5.5-2.2-7.9z"/>
  <circle cx="1637" cy="318.6" r="70" fill="url(#x)"/>
  <path class="st3" d="m1665 279.2c-11.4 2.2-19.1 11.3-23.2 21.4-3.8 9.6 3.9 18.6 10.9 26.2 8.9 9.6 12.3 23.7 7.8 36.9-1.7 5-4.4 9.4-7.8 13.1-1 1.1-0.1 3 1.4 2.6 19.3-5.4 35.7-19.9 42.7-40.3 6-17.6-8.6 6-7.5-40.8 0.2-8.7-3.7-17.7-12.3-19.1-4-0.8-8.1-0.8-12 0z"/>
  <path class="st3" d="m1657 362.5c3.8-11-0.2-22.2-6.9-30.8-6.4-8.1-18-6-28.1-3.7-12.8 2.9-26.6-1.2-35.8-11.7-3.5-4-6-8.6-7.4-13.3-0.4-1.4-2.5-1.5-2.9-0.1-5 19.4-0.6 40.9 13.5 57.1 12.2 14-0.9-10.4 39.1 13.9 7.4 4.5 17.2 5.7 22.7-1.1 2.4-3 4.5-6.5 5.8-10.3z"/>
  <path class="st3" d="m1588 314c7.6 8.7 19.4 10.9 30.1 9.4 10.2-1.5 14.2-12.6 17.2-22.5 3.9-12.5 14.3-22.5 28-25.2 5.2-1 10.4-0.9 15.3 0.2 1.4 0.3 2.6-1.4 1.5-2.5-14.3-14-35.1-21-56.2-16.8-18.2 3.6 9.5 4.4-31.6 26.9-7.6 4.2-13.5 12-10.4 20.2 1.5 3.7 3.5 7.3 6.1 10.3z"/>
  <circle cx="1395" cy="318.6" r="38.5" fill="url(#aa)"/>
  <path class="st3" d="m1421 325.4c-3.3-5.4-9.5-7.7-15.5-7.8-5.7-0.1-8.8 5.6-11.4 10.6-3.2 6.4-9.8 10.9-17.5 11.1-2.9 0.1-5.7-0.5-8.3-1.5-0.7-0.3-1.5 0.5-1.1 1.2 6.5 8.9 17.1 14.6 29 14.2 10.2-0.3-4.8-3.3 19.6-11.7 4.5-1.6 8.4-5.3 7.5-10-0.4-2.1-1.2-4.2-2.3-6.1z"/>
  <path class="st3" d="m1376 337.4c6.4-0.2 11.4-4.4 14.5-9.5 3-4.9-0.4-10.4-3.5-15.2-3.9-6-4.5-13.9-0.9-20.7 1.4-2.6 3.3-4.7 5.4-6.4 0.6-0.5 0.3-1.6-0.5-1.5-11 1.2-21.2 7.5-26.8 18-4.9 9 5.2-2.5 0.4 22.8-0.9 4.7 0.4 9.9 4.9 11.5 2 0.6 4.3 1 6.5 1z"/>
  <path class="st3" d="m1388 292.9c-3 5.6-1.9 12.1 1 17.3 2.7 5 9.2 4.9 14.9 4.6 7.2-0.4 14.3 3 18.4 9.6 1.5 2.5 2.5 5.2 2.8 7.9 0.1 0.8 1.2 1.1 1.6 0.3 4.5-10.1 4.1-22.1-2.2-32.2-5.3-8.7-0.4 5.7-19.9-11.1-3.6-3.1-8.8-4.6-12.4-1.5-1.7 1.5-3.2 3.2-4.2 5.1z"/>
  <circle cx="1324" cy="474.9" r="64.8" fill="url(#j)"/>
  <path class="st3" d="m1364 492.6c-4.2-9.9-13.9-15.2-23.8-16.9-9.4-1.6-16.1 7-21.6 14.8-7 9.9-19.1 15.7-31.9 14.1-4.9-0.6-9.4-2.2-13.4-4.6-1.2-0.7-2.7 0.5-2.1 1.7 8.6 16.4 24.8 28.5 44.7 30.9 17 2.1-7.1-6.6 35.5-14.6 7.9-1.5 15.3-6.7 15-14.8-0.2-3.4-1-7.1-2.4-10.6z"/>
  <path class="st3" d="m1288 501.5c10.6 1.3 20.1-4.5 26.5-12.2 6.1-7.3 1.9-17.5-2-26.2-5-11-4.1-24.3 3.7-34.7 3-3.9 6.6-7 10.7-9.3 1.2-0.7 0.9-2.6-0.5-2.6-18.5-0.8-37.1 7.3-49.1 23.2-10.3 13.7 9.3-2.8-5.1 38-2.7 7.6-1.9 16.6 5.3 20.4 3.2 1.7 6.8 2.9 10.5 3.4z"/>
  <path class="st3" d="m1318 430.4c-6.4 8.6-6.2 19.6-2.7 29.1 3.3 9 14.1 10.4 23.7 11.3 12 1.1 23.1 8.7 28.2 20.6 1.9 4.5 2.8 9.2 2.7 13.9 0 1.4 1.8 2.1 2.5 0.9 9.9-15.7 12.3-35.8 4.5-54.1-6.7-15.8-2.2 9.5-30.4-23.4-5.3-6.1-13.5-9.9-20.3-5.6-3.1 1.9-6 4.4-8.2 7.3z"/>
  <circle cx="323.4" cy="372.7" r="36.7" fill="url(#h)"/>
  <path class="st3" d="m339.1 352.9c-6 0.9-10.3 5.4-12.7 10.6-2.3 4.9 1.5 9.8 5 14 4.4 5.3 5.8 12.7 3.1 19.5-1 2.6-2.6 4.8-4.5 6.6-0.6 0.5-0.1 1.5 0.6 1.4 10.2-2.3 19.2-9.4 23.4-19.9 3.6-9-4.6 2.9-2.8-21.5 0.3-4.5-1.4-9.4-5.9-10.3-2-0.6-4.1-0.7-6.2-0.4z"/>
  <path class="st3" d="m332.7 396.2c2.3-5.6 0.5-11.6-2.8-16.3-3.1-4.4-9.3-3.6-14.6-2.7-6.7 1.2-13.9-1.3-18.4-7.1-1.7-2.2-2.9-4.6-3.5-7.2-0.2-0.7-1.3-0.9-1.5-0.1-3.1 10-1.4 21.3 5.5 30.2 6 7.6-0.2-5.5 20.1 8.3 3.8 2.6 8.8 3.4 11.9 0.1 1.4-1.4 2.6-3.2 3.3-5.2z"/>
  <path class="st3" d="m298.4 369c3.7 4.8 9.8 6.2 15.5 5.7 5.4-0.5 7.7-6.2 9.6-11.3 2.4-6.4 8.1-11.4 15.3-12.4 2.8-0.4 5.5-0.2 8 0.5 0.7 0.2 1.4-0.7 0.9-1.2-7.1-7.7-17.8-11.9-28.9-10.3-9.6 1.4 4.9 2.6-17.2 13.2-4.1 2-7.4 5.9-6 10.3 0.5 2 1.5 3.9 2.8 5.5z"/>
  <circle cx="225.6" cy="472.6" r="48.1" fill="url(#k)"/>
  <path class="st3" d="m246.2 446.6c-7.9 1.1-13.5 7.1-16.7 13.8-3 6.4 2 12.9 6.5 18.3 5.7 6.9 7.6 16.7 4 25.6-1.4 3.4-3.4 6.3-5.9 8.7-0.7 0.7-0.1 2 0.8 1.8 13.4-3 25.2-12.4 30.7-26.1 4.7-11.8-6.1 3.8-3.7-28.2 0.4-6-1.9-12.3-7.7-13.6-2.5-0.6-5.3-0.7-8-0.3z"/>
  <path class="st3" d="m237.8 503.4c3-7.4 0.6-15.3-3.7-21.3-4.1-5.8-12.1-4.7-19.1-3.5-8.8 1.5-18.2-1.7-24.2-9.3-2.3-2.9-3.8-6.1-4.6-9.4-0.2-1-1.7-1.1-2-0.2-4.1 13.1-1.9 28 7.3 39.7 7.9 10-0.3-7.2 26.3 10.9 4.9 3.4 11.6 4.5 15.6 0.1 1.9-2.1 3.4-4.4 4.4-7z"/>
  <path class="st3" d="m192.8 467.7c4.9 6.3 12.9 8.2 20.3 7.5 7.1-0.6 10.2-8.2 12.6-14.8 3.1-8.4 10.6-14.9 20.1-16.3 3.6-0.5 7.2-0.2 10.5 0.7 1 0.3 1.8-0.9 1.1-1.6-9.3-10.1-23.3-15.6-38-13.5-12.6 1.8 6.4 3.4-22.6 17.3-5.4 2.6-9.7 7.8-7.9 13.5 0.9 2.6 2.2 5.1 3.9 7.2z"/>
  <circle cx="300.2" cy="225" r="49.6" fill="url(#ag)"/>
  <path class="st3" d="m322.7 250.8c0.3-8.2-4.6-15-10.9-19.5-6-4.2-13.4-0.4-19.8 3.1-8.1 4.5-18.3 4.6-26.7-0.7-3.2-2-5.8-4.6-7.7-7.6-0.6-0.9-2-0.5-2 0.5 0.5 14.2 7.8 27.9 20.7 36 11.1 7-2.7-6.9 29.3 1.6 6 1.6 12.8 0.4 15.2-5.3 1.1-2.5 1.8-5.3 1.9-8.1z"/>
  <path class="st3" d="m266.7 231.6c6.9 4.4 15.3 3.5 22.3 0.3 6.7-3.1 7.1-11.4 7.2-18.7 0.1-9.2 5.2-18.1 14-22.7 3.3-1.7 6.9-2.7 10.4-2.9 1-0.1 1.5-1.5 0.6-2-12.5-6.6-28-7.2-41.5-0.1-11.6 6.1 7.3 1.1-16 24.6-4.3 4.4-6.7 10.9-3 15.8 1.5 2.2 3.6 4.2 6 5.7z"/>
  <path class="st3" d="m311.3 192.7c-7.3 3.8-10.7 11.5-11.4 19.2-0.7 7.3 6.3 11.8 12.6 15.6 7.9 4.7 13.1 13.6 12.7 23.4-0.2 3.8-1.1 7.3-2.7 10.5-0.5 0.9 0.6 2 1.4 1.5 12-7.5 20.2-20.7 20.9-35.9 0.5-13.1-4.6 5.8-13.3-26.2-1.6-5.9-6-11.3-12.2-10.5-2.7 0.3-5.5 1.1-8 2.4z"/>
  <circle cx="-4.5" cy="179.9" r="65.4" fill="url(#c)"/>
  <path class="st3" d="m-43.8 202c10.5 2.7 20.7-1.9 28.1-8.8 7.1-6.6 4.2-17.2 1.3-26.4-3.6-11.6-1-24.9 8.1-34.2 3.5-3.6 7.5-6.2 11.8-7.9 1.3-0.5 1.2-2.5-0.1-2.7-18.4-3.1-38.1 2.5-52.1 17-12.1 12.4 9.6-1.7-9.9 37.4-3.6 7.3-4 16.4 2.7 21 3 2 6.4 3.7 10.1 4.6z"/>
  <path class="st3" d="m-4 134.9c-7.5 7.7-8.7 18.8-6.4 28.7 2.1 9.4 12.8 12.2 22.2 14.3 11.9 2.7 22 11.6 25.6 24.1 1.4 4.8 1.6 9.6 0.9 14.2-0.2 1.4 1.5 2.3 2.4 1.2 11.9-14.4 16.8-34.2 11.4-53.6-4.7-16.7-3.4 9.2-27.4-27.3-4.5-6.8-12.2-11.6-19.6-8.2-3.3 1.8-6.5 3.9-9.1 6.6z"/>
  <path class="st3" d="m34.2 203c-2.9-10.4-12-16.9-21.7-19.9-9.2-2.8-17 5-23.5 12.1-8.3 9-21.1 13.3-33.7 10.1-4.8-1.2-9.1-3.4-12.8-6.3-1.1-0.8-2.8 0.2-2.3 1.5 6.5 17.5 21.2 31.7 40.7 36.6 16.8 4.2-6.3-7.5 37.4-10.1 8.1-0.5 16.2-4.8 16.9-12.9 0.3-3.7 0-7.5-1-11.1z"/>
  <circle cx="344.8" cy="24.2" r="74" fill="url(#f)"/>
  <path class="st3" d="m391.3 3c-11.6-4-23.5 0.2-32.5 7.2-8.6 6.7-6.4 19-4 29.7 3 13.5-1.3 28.1-12.5 37.8-4.2 3.7-9.1 6.3-14.1 7.8-1.5 0.4-1.6 2.7-0.1 3.1 20.5 5.3 43.2 0.8 60.4-14.1 14.8-12.8-11 1 14.8-41.2 4.8-7.8 6.1-18.1-1-24-3.3-2.7-7-4.9-11-6.3z"/>
  <path class="st3" d="m339.9 74.9c9.2-8 11.6-20.4 10-31.8-1.5-10.8-13.3-15-23.7-18.3-13.2-4.1-23.8-15.2-26.5-29.6-1.1-5.5-0.9-11 0.3-16.1 0.4-1.5-1.5-2.7-2.6-1.6-14.8 15.1-22.3 37-18 59.3 3.7 19.2 4.7-10 28.3 33.4 4.4 8.1 12.7 14.3 21.3 11.1 3.9-1.5 7.7-3.6 10.9-6.4z"/>
  <path class="st3" d="m303.3-5.6c2.3 12 11.9 20.3 22.5 24.6 10.1 4.1 19.6-4 27.7-11.4 10.2-9.3 25-12.9 39-8.1 5.3 1.8 10 4.7 13.8 8.3 1.1 1.1 3.1 0.1 2.7-1.4-5.6-20.4-20.9-37.8-42.4-45.2-18.5-6.4 6.3 9.1-43.1 7.8-9.2-0.2-18.7 3.8-20.3 12.9-0.6 4.1-0.7 8.4 0.1 12.5z"/>
 </g>
</svg>
