<?xml version="1.0" encoding="UTF-8"?>
<svg id="Layer_1" data-name="Layer 1" xmlns="http://www.w3.org/2000/svg" viewBox="0 0 1600 500">
  <defs>
    <style>
      .cls-1 {
        fill: #d7b6fa;
        fill-rule: evenodd;
      }

      .cls-1, .cls-2, .cls-3, .cls-4, .cls-5 {
        stroke-width: 0px;
      }

      .cls-3 {
        fill: #ba81f9;
      }

      .cls-4 {
        fill: #fff;
      }

      .cls-5 {
        fill: #ead9fc;
      }
    </style>
  </defs>
  <g>
    <path class="cls-1" d="M1600,24.84v428.52c0,8.31-4.08,15.66-10.34,20.17-2.4,1.73-5.84.86-6.95-1.88-3.92-9.72-16.41-16.83-31.21-16.83-9.47,0-17.99,2.91-23.93,7.55-1.91,1.49-4.64,1.25-6.24-.56-7.66-8.68-21.22-14.45-36.68-14.45-13.95,0-26.37,4.71-34.28,12.01-1.84,1.7-4.72,1.55-6.42-.29-9.32-10.07-25.83-16.76-44.62-16.76-27.05,0-49.35,13.85-52.36,31.7-.4,2.39-2.49,4.14-4.91,4.14l-1317.22.05c-13.71,0-24.83-11.12-24.83-24.84V24.84C0,11.12,11.12,0,24.83,0h1550.34C1588.88,0,1600,11.12,1600,24.84Z"/>
    <g>
      <ellipse class="cls-3" cx="1399.46" cy="479.16" rx="33.87" ry="20.84"/>
      <ellipse class="cls-3" cx="1483.78" cy="478.69" rx="27.94" ry="17.19"/>
      <ellipse class="cls-3" cx="1552.37" cy="479.04" rx="18.65" ry="11.48"/>
    </g>
  </g>
  <path class="cls-3" d="M1600,395.54v57.82c0,8.31-4.08,15.66-10.35,20.17-2.4,1.72-5.84.86-6.94-1.88-3.93-9.72-16.41-16.83-31.21-16.83-9.47,0-17.99,2.91-23.93,7.55-1.91,1.49-4.64,1.25-6.24-.56-7.66-8.68-21.22-14.45-36.68-14.45-13.95,0-26.37,4.7-34.29,12-1.84,1.7-4.71,1.55-6.42-.29-9.32-10.07-25.83-16.76-44.62-16.76-27.06,0-49.35,13.85-52.37,31.7-.4,2.39-2.48,4.14-4.91,4.14l-1317.21.05C11.12,478.2,0,467.08,0,453.36v-146.93s282.67,88.97,465.45,88.88c289.52-.15,715.14-126.59,1134.55.24Z"/>
  <path class="cls-5" d="M0,21.33v58.55c526.76-48.85,864.32,138.05,1600-3.86V21.33C1600,9.55,1588.88,0,1575.17,0H24.83C11.12,0,0,9.55,0,21.33Z"/>
  <g>
    <rect class="cls-4" x="243.98" y="153.12" width="1092.33" height="168.76" rx="35.65" ry="35.65"/>
    <g>
      <path class="cls-2" d="M329.4,266.29c-3.55,0-6.83-.65-9.84-1.96s-5.6-3.05-7.77-5.22l3.7-4.29c1.82,1.83,3.96,3.29,6.4,4.4,2.44,1.11,5.04,1.67,7.81,1.67,3.35,0,5.96-.71,7.81-2.15,1.85-1.43,2.78-3.28,2.78-5.55,0-1.73-.38-3.11-1.15-4.14-.77-1.04-1.8-1.9-3.11-2.59-1.31-.69-2.8-1.38-4.48-2.07l-6.96-3.03c-1.63-.64-3.24-1.48-4.85-2.52-1.6-1.04-2.95-2.37-4.03-4-1.09-1.63-1.63-3.63-1.63-5.99s.68-4.67,2.04-6.62c1.36-1.95,3.23-3.48,5.62-4.59,2.39-1.11,5.14-1.67,8.25-1.67s5.87.56,8.44,1.67c2.56,1.11,4.74,2.55,6.51,4.33l-3.26,4c-1.58-1.43-3.33-2.55-5.25-3.37-1.92-.81-4.14-1.22-6.66-1.22-2.81,0-5.08.64-6.81,1.92-1.73,1.28-2.59,3.01-2.59,5.18,0,1.53.43,2.79,1.29,3.77.86.99,1.96,1.8,3.29,2.44,1.33.64,2.69,1.26,4.07,1.85l6.81,2.96c2.02.79,3.84,1.74,5.44,2.85,1.6,1.11,2.89,2.47,3.85,4.07.96,1.6,1.44,3.61,1.44,6.03,0,2.57-.69,4.9-2.07,6.99-1.38,2.1-3.36,3.76-5.92,5-2.57,1.23-5.62,1.85-9.18,1.85Z"/>
      <path class="cls-2" d="M375.65,266.29c-3.6,0-6.87-.74-9.8-2.22-2.94-1.48-5.27-3.64-6.99-6.48-1.73-2.84-2.59-6.25-2.59-10.25s.86-7.25,2.59-10.06c1.73-2.81,3.98-4.97,6.77-6.48,2.79-1.5,5.78-2.26,8.99-2.26,5.18,0,9.21,1.54,12.1,4.62,2.89,3.08,4.33,7.17,4.33,12.25,0,.69-.03,1.36-.07,2-.05.64-.12,1.21-.22,1.7h-28.34c.39,4.05,1.89,7.1,4.48,9.18,2.59,2.07,5.76,3.11,9.51,3.11,2.17,0,4.13-.31,5.88-.92,1.75-.62,3.44-1.44,5.07-2.48l2.22,4c-1.78,1.18-3.81,2.2-6.11,3.03-2.29.84-4.9,1.26-7.81,1.26ZM374.76,233.36c-2.96,0-5.6.95-7.92,2.85-2.32,1.9-3.75,4.62-4.29,8.18h22.94c-.25-3.7-1.33-6.46-3.26-8.29-1.92-1.82-4.42-2.74-7.47-2.74Z"/>
      <path class="cls-2" d="M425.75,266.29c-3.8,0-6.72-1.1-8.77-3.29-2.05-2.19-3.07-5.41-3.07-9.66v-35.67h-12.8v-4.96h18.87v41.07c0,2.62.65,4.51,1.96,5.7,1.31,1.18,3.02,1.78,5.14,1.78s4.37-.54,6.73-1.63l1.55,4.51c-1.68.69-3.21,1.22-4.59,1.59-1.38.37-3.06.55-5.03.55Z"/>
      <path class="cls-2" d="M457.93,265.4v-31.01h-10.29v-4.59l10.29-.37v-3.03c0-4.39,1.18-7.92,3.55-10.58s6.02-4,10.95-4c3.55,0,7,.69,10.36,2.07l-1.41,4.59c-1.48-.69-2.85-1.15-4.11-1.37-1.26-.22-2.68-.33-4.25-.33-3.21,0-5.53.84-6.96,2.52-1.43,1.68-2.15,3.97-2.15,6.88v3.26h15.1v4.96h-15.1v31.01h-5.99Z"/>
      <path class="cls-2" d="M506.63,239.8c-1.68,0-3.1-.58-4.25-1.74-1.16-1.16-1.74-2.65-1.74-4.48s.58-3.39,1.74-4.55c1.16-1.16,2.58-1.74,4.25-1.74s3.09.58,4.25,1.74c1.16,1.16,1.74,2.68,1.74,4.55s-.58,3.32-1.74,4.48c-1.16,1.16-2.58,1.74-4.25,1.74ZM506.63,266.29c-1.68,0-3.1-.58-4.25-1.74-1.16-1.16-1.74-2.65-1.74-4.48s.58-3.39,1.74-4.55c1.16-1.16,2.58-1.74,4.25-1.74s3.09.58,4.25,1.74c1.16,1.16,1.74,2.68,1.74,4.55s-.58,3.32-1.74,4.48c-1.16,1.16-2.58,1.74-4.25,1.74Z"/>
      <path class="cls-2" d="M551.03,239.8c-1.68,0-3.1-.58-4.25-1.74-1.16-1.16-1.74-2.65-1.74-4.48s.58-3.39,1.74-4.55c1.16-1.16,2.58-1.74,4.25-1.74s3.09.58,4.25,1.74c1.16,1.16,1.74,2.68,1.74,4.55s-.58,3.32-1.74,4.48c-1.16,1.16-2.58,1.74-4.25,1.74ZM551.03,266.29c-1.68,0-3.1-.58-4.25-1.74-1.16-1.16-1.74-2.65-1.74-4.48s.58-3.39,1.74-4.55c1.16-1.16,2.58-1.74,4.25-1.74s3.09.58,4.25,1.74c1.16,1.16,1.74,2.68,1.74,4.55s-.58,3.32-1.74,4.48c-1.16,1.16-2.58,1.74-4.25,1.74Z"/>
      <path class="cls-2" d="M597.64,266.29c-3.6,0-6.87-.74-9.8-2.22-2.94-1.48-5.27-3.64-6.99-6.48-1.73-2.84-2.59-6.25-2.59-10.25s.86-7.25,2.59-10.06c1.73-2.81,3.98-4.97,6.77-6.48,2.79-1.5,5.78-2.26,8.99-2.26,5.18,0,9.21,1.54,12.1,4.62,2.89,3.08,4.33,7.17,4.33,12.25,0,.69-.03,1.36-.07,2-.05.64-.12,1.21-.22,1.7h-28.34c.39,4.05,1.89,7.1,4.48,9.18,2.59,2.07,5.76,3.11,9.51,3.11,2.17,0,4.13-.31,5.88-.92,1.75-.62,3.44-1.44,5.07-2.48l2.22,4c-1.78,1.18-3.81,2.2-6.11,3.03-2.29.84-4.9,1.26-7.81,1.26ZM596.76,233.36c-2.96,0-5.6.95-7.92,2.85-2.32,1.9-3.75,4.62-4.29,8.18h22.94c-.25-3.7-1.33-6.46-3.26-8.29-1.92-1.82-4.42-2.74-7.47-2.74Z"/>
      <path class="cls-2" d="M624.5,265.4v-35.96h5.03l.52,6.14h.3c1.88-2.02,3.9-3.7,6.07-5.03,2.17-1.33,4.66-2,7.47-2,4.24,0,7.38,1.23,9.4,3.7,2.02,2.47,3.03,6.07,3.03,10.8v22.35h-6.07v-21.53c0-3.4-.64-5.93-1.92-7.58-1.28-1.65-3.4-2.48-6.36-2.48-2.12,0-4.02.54-5.7,1.63-1.68,1.09-3.58,2.71-5.7,4.88v25.09h-6.07Z"/>
      <path class="cls-2" d="M680.97,265.4l-15.17-35.96h6.14l8.29,20.42c.74,1.83,1.44,3.61,2.11,5.37.67,1.75,1.32,3.49,1.96,5.22h.3c.64-1.73,1.27-3.47,1.89-5.22.62-1.75,1.29-3.54,2.04-5.37l8.29-20.42h5.85l-14.87,35.96h-6.81Z"/>
      <path class="cls-2" d="M738.46,278.42c-5.13-4-9.19-8.81-12.17-14.43-2.99-5.62-4.48-12.01-4.48-19.17s1.49-13.54,4.48-19.17c2.98-5.62,7.04-10.43,12.17-14.43l3.33,3.11c-4.93,4.19-8.58,8.77-10.95,13.73s-3.55,10.54-3.55,16.76,1.18,11.8,3.55,16.76,6.02,9.53,10.95,13.73l-3.33,3.11Z"/>
      <path class="cls-2" d="M763.18,278.42l-3.33-3.11c4.98-4.19,8.64-8.77,10.99-13.73,2.34-4.96,3.52-10.54,3.52-16.76s-1.17-11.8-3.52-16.76c-2.34-4.96-6.01-9.53-10.99-13.73l3.33-3.11c5.13,4,9.19,8.81,12.17,14.43,2.98,5.62,4.48,12.01,4.48,19.17s-1.49,13.54-4.48,19.17c-2.99,5.62-7.04,10.43-12.17,14.43Z"/>
      <path class="cls-2" d="M862.56,266.29c-3.5,0-6.78-.55-9.84-1.67-3.06-1.11-5.67-2.43-7.84-3.96l2.81-4c2.07,1.48,4.37,2.66,6.88,3.55,2.52.89,5.43,1.33,8.73,1.33,3.06,0,5.34-.55,6.85-1.67,1.5-1.11,2.26-2.43,2.26-3.96,0-.94-.26-1.78-.78-2.52-.52-.74-1.58-1.45-3.18-2.15-1.6-.69-4.03-1.36-7.29-2-4.64-.99-8.14-2.31-10.51-3.96-2.37-1.65-3.55-3.84-3.55-6.55,0-2.91,1.26-5.34,3.77-7.29,2.52-1.95,6.24-2.92,11.17-2.92,2.76,0,5.43.46,7.99,1.37,2.56.91,4.74,1.99,6.51,3.22l-2.96,3.92c-1.68-1.13-3.53-2.05-5.55-2.74-2.02-.69-4.19-1.04-6.51-1.04-3.06,0-5.21.52-6.44,1.55-1.23,1.04-1.85,2.25-1.85,3.63,0,1.53.83,2.71,2.48,3.55,1.65.84,4.3,1.65,7.96,2.44,4,.84,7.07,1.78,9.21,2.81,2.15,1.04,3.63,2.22,4.44,3.55.81,1.33,1.22,2.91,1.22,4.74,0,1.92-.62,3.7-1.85,5.33-1.23,1.63-3.03,2.94-5.4,3.92-2.37.99-5.28,1.48-8.73,1.48Z"/>
      <path class="cls-2" d="M908.44,266.29c-3.6,0-6.87-.74-9.8-2.22-2.94-1.48-5.27-3.64-6.99-6.48-1.73-2.84-2.59-6.25-2.59-10.25s.86-7.25,2.59-10.06c1.73-2.81,3.98-4.97,6.77-6.48,2.79-1.5,5.78-2.26,8.99-2.26,5.18,0,9.21,1.54,12.1,4.62,2.89,3.08,4.33,7.17,4.33,12.25,0,.69-.03,1.36-.07,2-.05.64-.12,1.21-.22,1.7h-28.34c.39,4.05,1.89,7.1,4.48,9.18,2.59,2.07,5.76,3.11,9.51,3.11,2.17,0,4.13-.31,5.88-.92,1.75-.62,3.44-1.44,5.07-2.48l2.22,4c-1.78,1.18-3.81,2.2-6.11,3.03-2.29.84-4.9,1.26-7.81,1.26ZM907.55,233.36c-2.96,0-5.6.95-7.92,2.85-2.32,1.9-3.75,4.62-4.29,8.18h22.94c-.25-3.7-1.33-6.46-3.26-8.29-1.92-1.82-4.42-2.74-7.47-2.74Z"/>
      <path class="cls-2" d="M958.54,266.29c-3.8,0-6.72-1.1-8.77-3.29-2.05-2.19-3.07-5.41-3.07-9.66v-35.67h-12.8v-4.96h18.87v41.07c0,2.62.65,4.51,1.96,5.7,1.31,1.18,3.02,1.78,5.14,1.78s4.37-.54,6.73-1.63l1.55,4.51c-1.68.69-3.21,1.22-4.59,1.59-1.38.37-3.06.55-5.03.55Z"/>
      <path class="cls-2" d="M990.73,265.4v-31.01h-10.29v-4.59l10.29-.37v-3.03c0-4.39,1.18-7.92,3.55-10.58s6.02-4,10.95-4c3.55,0,7,.69,10.36,2.07l-1.41,4.59c-1.48-.69-2.85-1.15-4.11-1.37-1.26-.22-2.68-.33-4.25-.33-3.21,0-5.53.84-6.96,2.52-1.43,1.68-2.15,3.97-2.15,6.88v3.26h15.1v4.96h-15.1v31.01h-5.99Z"/>
      <path class="cls-2" d="M1039.42,266.29c-1.68,0-3.1-.58-4.25-1.74-1.16-1.16-1.74-2.65-1.74-4.48s.58-3.39,1.74-4.55c1.16-1.16,2.58-1.74,4.25-1.74s3.09.58,4.25,1.74c1.16,1.16,1.74,2.68,1.74,4.55s-.58,3.32-1.74,4.48c-1.16,1.16-2.58,1.74-4.25,1.74Z"/>
      <path class="cls-2" d="M1086.04,266.29c-3.6,0-6.87-.74-9.8-2.22-2.94-1.48-5.27-3.64-6.99-6.48-1.73-2.84-2.59-6.25-2.59-10.25s.86-7.25,2.59-10.06c1.73-2.81,3.98-4.97,6.77-6.48,2.79-1.5,5.78-2.26,8.99-2.26,5.18,0,9.21,1.54,12.1,4.62,2.89,3.08,4.33,7.17,4.33,12.25,0,.69-.03,1.36-.07,2-.05.64-.12,1.21-.22,1.7h-28.34c.39,4.05,1.89,7.1,4.48,9.18,2.59,2.07,5.76,3.11,9.51,3.11,2.17,0,4.13-.31,5.88-.92,1.75-.62,3.44-1.44,5.07-2.48l2.22,4c-1.78,1.18-3.81,2.2-6.11,3.03-2.29.84-4.9,1.26-7.81,1.26ZM1085.15,233.36c-2.96,0-5.6.95-7.92,2.85-2.32,1.9-3.75,4.62-4.29,8.18h22.94c-.25-3.7-1.33-6.46-3.26-8.29-1.92-1.82-4.42-2.74-7.47-2.74Z"/>
      <path class="cls-2" d="M1112.9,265.4v-35.96h5.03l.52,6.14h.3c1.88-2.02,3.9-3.7,6.07-5.03,2.17-1.33,4.66-2,7.47-2,4.24,0,7.38,1.23,9.4,3.7,2.02,2.47,3.03,6.07,3.03,10.8v22.35h-6.07v-21.53c0-3.4-.64-5.93-1.92-7.58-1.28-1.65-3.4-2.48-6.36-2.48-2.12,0-4.02.54-5.7,1.63-1.68,1.09-3.58,2.71-5.7,4.88v25.09h-6.07Z"/>
      <path class="cls-2" d="M1169.36,265.4l-15.17-35.96h6.14l8.29,20.42c.74,1.83,1.44,3.61,2.11,5.37.67,1.75,1.32,3.49,1.96,5.22h.3c.64-1.73,1.27-3.47,1.89-5.22.62-1.75,1.29-3.54,2.04-5.37l8.29-20.42h5.85l-14.87,35.96h-6.81Z"/>
      <path class="cls-2" d="M1226.86,278.42c-5.13-4-9.19-8.81-12.17-14.43-2.99-5.62-4.48-12.01-4.48-19.17s1.49-13.54,4.48-19.17c2.98-5.62,7.04-10.43,12.17-14.43l3.33,3.11c-4.93,4.19-8.58,8.77-10.95,13.73s-3.55,10.54-3.55,16.76,1.18,11.8,3.55,16.76,6.02,9.53,10.95,13.73l-3.33,3.11Z"/>
      <path class="cls-2" d="M1251.57,278.42l-3.33-3.11c4.98-4.19,8.64-8.77,10.99-13.73,2.34-4.96,3.52-10.54,3.52-16.76s-1.17-11.8-3.52-16.76c-2.34-4.96-6.01-9.53-10.99-13.73l3.33-3.11c5.13,4,9.19,8.81,12.17,14.43,2.98,5.62,4.48,12.01,4.48,19.17s-1.49,13.54-4.48,19.17c-2.99,5.62-7.04,10.43-12.17,14.43Z"/>
    </g>
  </g>
  <g>
    <ellipse class="cls-3" cx="1399.46" cy="479.16" rx="33.87" ry="20.84"/>
    <ellipse class="cls-3" cx="1483.78" cy="478.69" rx="27.94" ry="17.19"/>
    <ellipse class="cls-3" cx="1552.37" cy="479.04" rx="18.65" ry="11.48"/>
  </g>
</svg>