<svg enable-background="new 0 0 1600 500" version="1.1" viewBox="0 0 1600 500" xmlns="http://www.w3.org/2000/svg" xmlns:xlink="http://www.w3.org/1999/xlink">
 <style type="text/css">.st0{fill-rule:evenodd;clip-rule:evenodd;fill:#F7F7F7;}
	.st1{fill:#9397BA;}
	.st2{fill:#67638A;}
	.st3{fill:#45425E;}
	.st4{fill:#E2DCFE;}
	.st5{fill:#8D7CF7;}
	.st6{fill:#3F328F;}
	.st7{fill:#5D4DC4;}
	.st8{fill:#B8AEFF;}
	.st9{fill:#281F70;}
	.st10{fill:#C5BDFF;}
	.st11{fill:#F7F7F7;}
	.st12{fill:#181345;}
	.st13{fill:#6E7191;}
	.st14{clip-path:url(#SVGID_00000061467382326070774190000013161787023353824172_);}
	.st15{fill:#4F516E;}
	.st16{clip-path:url(#SVGID_00000061467382326070774190000013161787023353824172_);fill:#4F516E;}
	.st17{fill:#F3FF73;}
	.st18{fill:#3A3C54;}
	.st19{fill:#121226;}
	.st20{clip-path:url(#SVGID_00000140001214678651022980000017901038498450995603_);}
	.st21{fill:url(#SVGID_00000157286950336486667880000008438379786724142753_);}
	.st22{fill:#7160E0;}
	.st23{fill:#DE4040;}
	.st24{fill:#FF705E;}
	.st25{fill:#FFBFB3;}
	.st26{opacity:0.5;fill:#FFBFB3;}
	.st27{fill:#A4A6BD;}
	.st28{clip-path:url(#SVGID_00000106149643588694855970000015473870422956592278_);}
	.st29{clip-path:url(#SVGID_00000106149643588694855970000015473870422956592278_);fill:#DE4040;}
	.st30{clip-path:url(#SVGID_00000089569329328671879160000015268966448507969960_);}
	.st31{fill:#C9F2E7;}
	.st32{fill:#CFE4FF;}
	.st33{clip-path:url(#SVGID_00000008871424666780985210000011932318868151592589_);}
	.st34{clip-path:url(#SVGID_00000075161104542401407190000015369526258401826725_);}
	.st35{clip-path:url(#SVGID_00000049210559368733902040000010112841840876345479_);}</style>
 <path class="st0" d="m1600 24.84v428.5c0 8.31-4.08 15.66-10.34 20.17-2.4 1.73-5.84 0.86-6.95-1.88-3.92-9.72-16.41-16.83-31.21-16.83-9.47 0-17.99 2.91-23.93 7.55-1.91 1.49-4.64 1.25-6.24-0.56-7.66-8.68-21.22-14.45-36.68-14.45-13.95 0-26.37 4.71-34.28 12.01-1.84 1.7-4.72 1.55-6.42-0.29-9.32-10.07-25.83-16.76-44.62-16.76-27.05 0-49.35 13.85-52.36 31.7-0.4 2.39-2.49 4.14-4.91 4.14l-1317 0.04c-13.71 0-24.83-11.12-24.83-24.84v-428.5c0-13.72 11.12-24.84 24.83-24.84h1550c13.71 0 24.83 11.12 24.83 24.84z"/>
 <ellipse class="st0" cx="1399" cy="479.2" rx="33.87" ry="20.84"/>
 <ellipse class="st0" cx="1484" cy="478.7" rx="27.94" ry="17.19"/>
 <ellipse class="st0" cx="1552" cy="479" rx="18.65" ry="11.48"/>
 <path class="st1" d="m1102 418.7c0 5.37 240.6 5.98 240.6 0 0-5.97-240.6-5.37-240.6 0z"/>
 <path class="st2" d="m1331 364.2h-20.85c-0.96 0-1.74-0.78-1.74-1.74s0.78-1.74 1.74-1.74h20.85c4.47 0 8.1-3.64 8.1-8.1v-8.74c0-3.84-2.73-7.18-6.5-7.94l-20.63-4.17c-0.94-0.19-1.55-1.11-1.36-2.05s1.11-1.55 2.05-1.36l20.63 4.17c5.38 1.09 9.29 5.86 9.29 11.35v8.74c0 6.39-5.2 11.58-11.58 11.58z"/>
 <path class="st3" d="m1314 393.5c-0.85 0-1.59-0.62-1.72-1.49-0.14-0.95 0.52-1.83 1.47-1.97l23.69-3.41c7.51-1.08 12.86-7.61 12.46-15.18l-0.67-12.68c-0.41-7.73-6.8-13.79-14.54-13.79h-16.98c-0.96 0-1.74-0.78-1.74-1.74s0.78-1.74 1.74-1.74h16.98c9.59 0 17.5 7.5 18.01 17.08l0.67 12.68c0.5 9.38-6.14 17.46-15.44 18.8l-23.69 3.41c-0.08 0.02-0.16 0.03-0.24 0.03z"/>
 <circle class="st3" cx="1325" cy="388.9" r="10.23"/>
 <path class="st4" d="m1164 167.7c-43.58 42.99-45.32 104.6-45.32 213.2l200.7 0.11c0-82.57 0.65-167.4-8.98-210.4-10.84-48.42-107.6-41.1-146.4-2.82z"/>
 <path class="st5" d="m1308 388.3h-179v-54.16c0-59.71 8.85-94.45 8.85-94.45 82.53-2.39 169.5 0 169.5 0l0.67 148.6z"/>
 <path class="st6" d="m1233 348.9c14.34 2.3 56.74 39.44 56.74 39.44h-42.52l-14.22-39.44z"/>
 <polygon class="st6" points="1147 364.7 1164 370.4 1154 382.3"/>
 <polygon class="st6" points="1178 358.5 1197 368.6 1183 378.6"/>
 <path class="st7" d="m1247 388.3c2.52-59.28-36.97-43.69-60.12-14.68-6.3-27.07-23.5-15.92-32.84 0.94-6.89-25.58-20.36 6.35-20.36 6.35l113.3 7.39z"/>
 <path class="st8" d="m1307 239.7c-4.64 4.84-132.2 6.11-169.5 0 82.53-2.39 169.5 0 169.5 0z"/>
 <path class="st9" d="m1196 385 30.92 2.02c5.29-33.87-24.75-24.01-30.92-2.02z"/>
 <path class="st7" d="m1307 269.8c-39.57 22.98-36.11 118.6-36.11 118.6h36.64l-0.53-118.6z"/>
 <path class="st7" d="m1283 306.7c-2.87-6.34-6.98-10.42-12.22-12.13-9.65-3.16-20.07 2.61-20.17 2.67l-2.35-2.4c7.5-12.63 5.8-23.57 2.82-25.65-1.47-1.03-3.28 0.76-4.22 1.92l-2.69-2.19c4.23-5.2 7.89-3.28 8.9-2.57 2.65 1.85 4.14 6.24 3.99 11.73-0.13 4.5-1.35 9.38-3.48 14.09 4.44-1.58 11.42-3.14 18.29-0.9 6.2 2.03 11.02 6.74 14.3 14l-3.17 1.43z"/>
 <path class="st7" d="m1288 294.7c-6.81-10.63-19.45-8.18-19.99-8.07l-2.06-2 1.84-10.56 3.42 0.6-1.44 8.28c4.7-0.3 15 0.27 21.16 9.88l-2.93 1.87z"/>
 <path class="st7" d="m1278 324.3c-4.98-9.1-10.46-14.17-16.3-15.09-6.26-0.98-10.91 3.35-10.95 3.39l-2.4-2.51c0.24-0.23 5.88-5.54 13.84-4.32 6.98 1.07 13.32 6.74 18.86 16.86l-3.05 1.67z"/>
 <path class="st6" d="m1275 365.1c-17.82-44.39-45.83-48.95-45.83-39.46-0.02 15.62 45.83 39.46 45.83 39.46z"/>
 <path class="st7" d="m1139 361.1c27.68-1.13 43.88-30.65 43.88-30.65-34.74 2.18-43.88 30.65-43.88 30.65z"/>
 <circle class="st10" cx="1205" cy="279.7" r="4.66"/>
 <circle class="st10" cx="1152" cy="254" r="4.73"/>
 <circle class="st10" cx="1201" cy="323.6" r="3.21"/>
 <circle class="st10" cx="1282" cy="260.6" r="4.9"/>
 <circle class="st10" cx="1219" cy="335.2" r="5.3"/>
 <path class="st11" d="m1297 187.9c6.74 0.09 9.44 35.12 2.86 35.35-6.58 0.22-9.6-35.44-2.86-35.35z"/>
 <ellipse class="st11" transform="matrix(.9667 -.2559 .2559 .9667 -.5762 336.8)" cx="1294" cy="170.6" rx="3.83" ry="5.56"/>
 <path class="st12" d="m1131 407v5.81c0 3.1 2.51 5.61 5.61 5.61h11.98c3.1 0 5.61-2.51 5.61-5.61v-5.81h-23.2z"/>
 <path class="st12" d="m1283 407v5.81c0 3.1 2.51 5.61 5.61 5.61h11.98c3.1 0 5.61-2.51 5.61-5.61v-5.81h-23.2z"/>
 <path class="st13" d="m1325 316.7c-0.05-2.46-2.36-4.27-4.76-3.69-19.82 4.79-36.61 32.72-46.83 47.07-7.65 10.73-20.03 17.07-33.21 17.07h-123.1c-3.02 0-5.47 2.45-5.47 5.47v21.52c0 3.04 2.47 5.51 5.51 5.51h204c3.09 0 5.58-2.54 5.51-5.63l-1.65-87.32z"/>
 <defs>
  <path id="c" d="m1325 316.7c-0.05-2.46-2.36-4.27-4.76-3.69-19.82 4.79-36.61 32.72-46.83 47.07-7.65 10.73-20.03 17.07-33.21 17.07h-123.1c-3.02 0-5.47 2.45-5.47 5.47v21.52c0 3.04 2.47 5.51 5.51 5.51h204c3.09 0 5.58-2.54 5.51-5.63l-1.65-87.32z"/>
 </defs>
 <clipPath id="a">
  <use xlink:href="#c"/>
 </clipPath>
 <g clip-path="url(#a)">
  <path class="st15" d="m1231 414-2.63-1.8c15.54-22.69 18.72-22.67 72.06-22.34 7.58 0.05 16.18 0.1 25.99 0.1v3.19c-9.82 0-18.42-0.05-26.01-0.1-53.81-0.34-54.83-0.35-69.41 20.95z"/>
  <rect class="st15" x="1135" y="368.1" width="3.19" height="57.07"/>
 </g>
 <path d="m1136 388.3c-3.19 0.07-5.75 2.67-5.75 5.88s2.57 5.81 5.75 5.88v-11.76z" clip-path="url(#a)" fill="#4F516E"/>
 <path class="st1" d="m1320 313c-9.43 3.28-16.68 10.28-23.24 17.51-6.47 7.39-12.24 15.41-17.85 23.59-2.9 4.11-5.53 8.46-9.13 12.03-7.21 7.31-17.21 11.69-27.45 12.24-4.39 0.16-10.54 0-14.96 0.03-30.11-0.1-80.12-0.23-109.8-0.51-2.99-0.3-5.61 1.73-6.18 4.72-0.68-3.57 2.7-6.56 6.18-6.22 12.41-0.1 37.55-0.25 50.24-0.32 4.84-0.02 63.72-0.19 66.99-0.2 2.47-0.02 5 0.03 7.37-0.09 4.8-0.3 9.53-1.45 13.92-3.41 4.37-1.99 8.39-4.74 11.78-8.13 3.5-3.4 6.06-7.64 8.87-11.62 5.62-8.17 11.32-16.43 18.2-23.75 6.77-7.18 15.03-14.21 25.04-15.87z"/>
 <path class="st3" d="m1306 361.3c-5.07 0-9.19-4.12-9.19-9.19s4.12-9.19 9.19-9.19 9.19 4.12 9.19 9.19-4.12 9.19-9.19 9.19zm0-15.21c-3.33 0-6.03 2.71-6.03 6.03s2.71 6.03 6.03 6.03c3.33 0 6.03-2.71 6.03-6.03s-2.7-6.03-6.03-6.03z"/>
 <circle class="st17" cx="1299" cy="374.2" r="4.11"/>
 <circle class="st18" cx="1286" cy="374.2" r="4.11"/>
 <path class="st18" d="m1151 402.6c-0.34 0-0.69-0.1-0.99-0.31-0.8-0.55-1-1.64-0.45-2.44l10.08-14.62c0.55-0.8 1.64-1 2.44-0.45s1 1.64 0.45 2.44l-10.08 14.62c-0.35 0.49-0.89 0.76-1.45 0.76z"/>
 <path class="st18" d="m1161 402.6c-0.34 0-0.69-0.1-0.99-0.31-0.8-0.55-1-1.64-0.45-2.44l10.08-14.62c0.55-0.8 1.64-1 2.44-0.45s1 1.64 0.45 2.44l-10.08 14.62c-0.35 0.49-0.9 0.76-1.45 0.76z"/>
 <path class="st18" d="m1171 402.6c-0.34 0-0.69-0.1-0.99-0.31-0.8-0.55-1-1.64-0.45-2.44l10.08-14.62c0.55-0.8 1.64-1 2.44-0.45s1 1.64 0.45 2.44l-10.08 14.62c-0.34 0.49-0.89 0.76-1.45 0.76z"/>
 <path class="st18" d="m1181 402.6c-0.34 0-0.69-0.1-0.99-0.31-0.8-0.55-1-1.64-0.45-2.44l10.08-14.62c0.55-0.8 1.64-1 2.44-0.45s1 1.64 0.45 2.44l-10.08 14.62c-0.34 0.49-0.89 0.76-1.45 0.76z"/>
 <path class="st7" d="m1189 270.3c-2.81 33.72-25.88 43.04-41.12 55.95 18.68-45.29 41.12-55.95 41.12-55.95z"/>
 <path class="st6" d="m1152 315.9c-4.33 10.49-13.07 33.18-16.66 47.67-4.41-19.06 6.78-39.29 16.66-47.67z"/>
 <path class="st1" d="m291 417.2c0 5.31 237.6 5.9 237.6 0s-237.6-5.3-237.6 0z"/>
 <path class="st4" d="m308.9 381.4h198.8c0-80.4-11.31-147.2-36.31-190.1-58.45-100.3-168-77.12-162.5 190.1z"/>
 <path class="st5" d="m497.8 381.4h-181.6c0-99.33 16.11-154 16.11-154s74.68-3.27 144.1 0c21.37 47.32 21.37 154 21.37 154z"/>
 <path class="st8" d="m476.5 227.4c-48 10.18-144.1 0-144.1 0s74.68-3.27 144.1 0z"/>
 <path class="st18" d="m309.3 336.6-25.78-10.08c-4.67-1.83-7.69-6.25-7.69-11.26v-23.78c0-5.78 4.12-10.78 9.8-11.87l27.7-5.35 0.74 3.82-27.7 5.35c-3.85 0.74-6.65 4.13-6.65 8.05v23.78c0 3.4 2.05 6.4 5.21 7.64l25.78 10.08-1.41 3.62z"/>
 <path class="st15" d="m301.8 366-9.54-4.48c-4.55-2.14-7.5-6.77-7.5-11.8v-46.74c0-6.42 4.79-11.96 11.13-12.89l13.42-1.98 0.57 3.85-13.42 1.98c-4.45 0.66-7.81 4.54-7.81 9.04v46.74c0 3.53 2.06 6.78 5.26 8.28l9.54 4.48-1.65 3.52z"/>
 <circle class="st19" cx="485.6" cy="407.7" r="9.09"/>
 <path class="st6" d="m427 339.7c15.34 2.48 34.15 29.3 34.15 29.3l-14.9 9.62-19.25-38.92z"/>
 <path class="st6" d="m467.8 359.4c12.47 3.9 26.86 20.55 26.86 20.55l-18.18 1.41-8.68-21.96z"/>
 <polygon class="st6" points="380.2 354.7 403.8 363.3 387.9 378.3"/>
 <path class="st18" d="m305.6 341.2c-24.62 20.01-2.52 40.02-2.52 40.02l2.52-40.02z"/>
 <circle class="st19" cx="328" cy="407.7" r="9.09"/>
 <path class="st11" d="m462.1 209.1c5.99-1.27-12.59-33.62-18.85-32.77-6.25 0.84 12.87 34.04 18.85 32.77z"/>
 <ellipse class="st11" transform="matrix(.7699 -.6381 .6381 .7699 -6.708 316.8)" cx="436" cy="167.7" rx="3.21" ry="4.65"/>
 <path class="st7" d="m480.3 381.4c-3.78-31.41-29.28-26.97-32.1-7.49-5.91-45.32-39.92-45.88-56.59-3.93-2.82-20.83-29.33-24.78-44.49 8.31s133.2 3.11 133.2 3.11z"/>
 <path class="st6" d="m497 349.7c-28.34 7.22-38.99-8.87-46.47-27.94 12.18 10.57 27.57 20.77 46.47 27.94z"/>
 <path class="st7" d="m453.5 328.8c-25.92-22.48-40.35-53.55-40.35-53.55 24.08-2.73 31.5 30.99 40.35 53.55z"/>
 <path class="st7" d="m492.3 343.5c-4.18-31.95-30.73-60.61-30.73-60.61-9.06 35.64 30.73 60.61 30.73 60.61z"/>
 <path class="st7" d="m351.9 313.4c-3.76 0-9.05-1.85-14.7-9.64l2.58-1.87c5.15 7.1 10.97 9.91 15.57 7.52 4.61-2.39 6.47-8.97 4.31-15.31l2.53-1.74c6.83 5.69 12.99 6.93 16.89 3.4 4.06-3.67 4.66-11.27 1.28-16.27l0.77-2.39 15.08-5.49 1.09 2.99-13.3 4.84c3.08 6.2 1.98 14.35-2.8 18.68-2.21 1.99-8.04 5.52-17.58-0.72 0.66 6.35-1.92 12.3-6.82 14.83-0.86 0.46-2.59 1.17-4.9 1.17z"/>
 <path class="st7" d="m337.7 299.4-1.43-2.84c23-11.59 31.15-24.86 30.88-30.5-0.09-1.87-1.07-2.25-1.4-2.38-0.57-0.22-5.9-1.81-18.14 10.33l-2.24-2.26c8.94-8.86 16.79-12.89 21.54-11.04 2.06 0.8 3.3 2.69 3.42 5.19 0.2 4.14-2.57 9.73-7.59 15.34-5.91 6.61-14.57 12.89-25.04 18.16z"/>
 <path class="st7" d="m375.6 331.9-2.41-2.08c4.45-5.16 6.14-9.8 4.32-11.81-2.45-2.7-13.01-2.28-30.94 10.35l-1.83-2.6c16.09-11.33 30.21-15.3 35.13-9.88 1.47 1.62 4 6.43-4.27 16.02z"/>
 <path class="st6" d="m420.4 391.6c-9.49 0-20.71-8.61-21.25-9.03l-1.04-0.81 0.64-1.16c13.2-23.94 23.23-23.06 26.94-21.57 6.45 2.6 9.22 12.37 6.44 22.71-1.3 4.85-3.88 7.96-7.65 9.23-1.31 0.44-2.68 0.63-4.08 0.63zm-18.29-10.69c3.43 2.42 14.32 9.51 21.37 7.14 2.77-0.93 4.62-3.25 5.65-7.1 2.34-8.7 0.31-17.06-4.61-19.05-6.96-2.8-16 7.77-22.41 19.01z"/>
 <path class="st6" d="m382.7 381.4c-0.73-18.06-15.73-16.36-21.5 0-5.76 16.37 21.5 0 21.5 0z"/>
 <circle class="st10" cx="396.1" cy="334.4" r="4.59"/>
 <circle class="st10" cx="430.3" cy="264.4" r="4.2"/>
 <circle class="st10" cx="459.9" cy="245.1" r="3.3"/>
 <circle class="st10" cx="384.7" cy="248.8" r="4.65"/>
 <circle class="st10" cx="429.9" cy="319" r="3.99"/>
 <path class="st13" d="m301.5 382.1v22.55c0 2.11 1.71 3.82 3.82 3.82h203.7c2.11 0 3.82-1.71 3.82-3.82v-22.55c0-2.11-1.71-3.82-3.82-3.82h-203.7c-2.12 0-3.83 1.71-3.83 3.82z"/>
 <path class="st13" d="m316.6 253.2c43.55 34.57 38.77 128.2 38.77 128.2h-53.8c0-57.12 2.42-97.07 10.11-126.6 0.56-2.15 3.17-3.02 4.92-1.63z"/>
 <circle class="st18" cx="318.7" cy="363.3" r="5.62"/>
 <circle class="st17" cx="335.7" cy="363.3" r="3.79"/>
 <rect class="st15" x="301.5" y="388.6" width="211.4" height="3.15"/>
 <path class="st15" d="m409.7 389.9c0 0.1-0.02 0.2-0.02 0.3 0 3.39 2.75 6.14 6.14 6.14s6.14-2.75 6.14-6.14c0-0.1-0.01-0.2-0.02-0.3h-12.24z"/>
 <path class="st15" d="m428.2 389.9c0 0.1-0.02 0.2-0.02 0.3 0 3.39 2.75 6.14 6.14 6.14s6.14-2.75 6.14-6.14c0-0.1-0.01-0.2-0.02-0.3h-12.24z"/>
 <path class="st15" d="m446.6 389.9c0 0.1-0.02 0.2-0.02 0.3 0 3.39 2.75 6.14 6.14 6.14s6.14-2.75 6.14-6.14c0-0.1-0.01-0.2-0.02-0.3h-12.24z"/>
 <path class="st15" d="m465.1 389.9c0 0.1-0.02 0.2-0.02 0.3 0 3.39 2.75 6.14 6.14 6.14s6.14-2.75 6.14-6.14c0-0.1-0.01-0.2-0.02-0.3h-12.24z"/>
 <defs>
  <path id="k" d="m316.6 253.2c43.55 34.57 38.77 128.2 38.77 128.2h-53.8c0-57.12 2.42-97.07 10.11-126.6 0.56-2.15 3.17-3.02 4.92-1.63z"/>
 </defs>
 <clipPath id="m">
  <use xlink:href="#k"/>
 </clipPath>
 <g clip-path="url(#m)">
  <path class="st15" d="m337.5 339.5c-3.67 0-6.85-0.68-9.6-2.05-8.07-4.02-10.89-13.29-13.39-21.48-2.63-8.64-4.9-16.09-12.05-17.27l0.51-3.11c9.08 1.49 11.86 10.62 14.56 19.46 2.42 7.95 4.92 16.16 11.78 19.57 5.6 2.79 13.62 2.21 24.51-1.77l1.08 2.96c-6.72 2.46-12.49 3.69-17.4 3.69z"/>
 </g>
 <path class="st1" d="m316.6 253.2c29.86 19.8 39.15 74.54 40.37 108.2 0.22 5.66 0.24 11.32 0.01 16.99l-1.45-1.51c35.55-0.02 84.17 0.23 119.7 0.52 7.78 0.05 24.74 0.19 32.41 0.25l1.25 0.01c2.29-0.04 4.78 2.12 4.05 4.5-0.22-0.84-0.59-1.55-1.13-2.03-1.08-1.05-2.78-1.19-4.22-1.11-7.61 0.05-24.6 0.19-32.42 0.25-36.15 0.29-85.02 0.53-121.2 0.52l0.04-1.51c0.42-22.31-1.7-44.84-6.86-66.57-5.09-21.69-14.32-42.83-30.61-58.46z"/>
 <path class="st1" d="m599.7 442.2c0 7.35 418.6 7.76 418.6 0 0-7.77-418.6-7.36-418.6 0z"/>
 <path class="st4" d="m928.1 38.18h-251.2c-37.36 0-53.28 10.38-53.28 56.05s0 296.8 0 296.8h366.7v-294.8s-22.13-58.12-62.27-58.12z"/>
 <linearGradient id="d" x1="636" x2="978.6" y1="245.1" y2="245.1" gradientUnits="userSpaceOnUse">
  <stop stop-color="#A494FF" offset="0"/>
  <stop stop-color="#8D7CF7" offset=".1733"/>
  <stop stop-color="#8D7CF7" offset="1"/>
 </linearGradient>
 <path d="m978.6 101.7v289.4h-342.6v-285.8c0-1.97 1.64-3.55 3.6-3.47 7.71 0.29 27.21 0.97 52.94 1.52 4.33 0.09 8.83 0.18 13.48 0.26 7.05 0.12 14.43 0.24 22.07 0.33h0.01c43.55 0.51 95.25 0.29 138.1-2.25 93.82-5.57 112.4-0.01 112.4-0.01z" fill="url(#d)"/>
 <path class="st7" d="m969.7 313.5s-7.47 32.24-35.34 54.07c-10.92 8.55-24.97 15.5-42.92 18.3-0.19 0.03-0.39 0.06-0.59 0.09-20.19 3.06-52.79 4.25-88.03 4.44-17.53 0.09-35.72-0.06-53.35-0.36-59.92-1.01-113.5-3.63-113.5-3.63v-18.53s6.12-16.59 29.91-5.25c0 0 25.29-11.51 54.42 11.46 0 0 14.47-17.27 33.34 0.52 12.49-0.82 23.33-2.66 33.03-5.24 15.29-4.06 27.72-9.91 39.3-16.34 11.46-6.37 22.07-13.29 33.73-19.59 25.24-13.61 55.44-24.29 110-19.94z"/>
 <path class="st8" d="m978.6 101.7c-101 12.04-249.1 2.35-250.5 2.25 43.55 0.51 95.25 0.29 138.1-2.25 93.81-5.56 112.4 0 112.4 0z"/>
 <path class="st22" d="m934.4 367.6c-10.92 8.55-24.97 15.5-42.92 18.3-0.19 0.03-0.39 0.06-0.59 0.09-30.24 0-33.85-32.32-64.87-32.92 11.46-6.37 22.07-13.29 33.73-19.59 22.88 2.56 59.07 10.39 74.65 34.12z"/>
 <path class="st6" d="m802.8 390.4c-17.53 0.09-35.72-0.06-53.35-0.36 4.03-5.03 7.5-11.31 4.18-15.42 12.49-0.82 23.33-2.66 33.03-5.24 5.68 4.44 12.17 11.24 16.14 21.02z"/>
 <path class="st11" d="m893.6 52.58c-0.57 7.51 41.75 8 42.93 1.94s-42.36-9.45-42.93-1.94z"/>
 <ellipse class="st11" transform="matrix(.6268 -.7792 .7792 .6268 308 771.4)" cx="959.3" cy="64.22" rx="7.35" ry="10.14"/>
 <circle class="st10" cx="737.8" cy="337.8" r="3.98"/>
 <circle class="st10" cx="864.7" cy="153.4" r="5.18"/>
 <circle class="st10" cx="790.4" cy="158.3" r="3.87"/>
 <circle class="st10" cx="814.2" cy="126.3" r="2.84"/>
 <circle class="st10" cx="725.7" cy="185.1" r="5.56"/>
 <circle class="st10" cx="891.8" cy="232.7" r="5.16"/>
 <circle class="st10" cx="840.5" cy="189.7" r="3.38"/>
 <circle class="st10" cx="925.1" cy="130.4" r="3.87"/>
 <circle class="st10" cx="668.5" cy="123.4" r="5.16"/>
 <circle class="st10" cx="654.8" cy="264" r="3.45"/>
 <circle class="st10" cx="681.2" cy="281.7" r="4.59"/>
 <circle class="st10" cx="791.2" cy="283.6" r="3.23"/>
 <circle class="st10" cx="783.9" cy="351.1" r="4.13"/>
 <circle class="st10" cx="754.6" cy="132.8" r="3.72"/>
 <circle class="st10" cx="697.4" cy="172.5" r="3.5"/>
 <path class="st8" d="m771.9 316.7s-13.91-13.95-5.32-24.36c0 0-21.64-24.45-9.83-62.32 0 0-15.8-8.69-6.79-38.05 1.36-4.43 3.29-9.33 5.92-14.74 6.37 10.92 12.08 17.21 13.77 26.21 1.08 5.69 0.56 12.46-2.41 22.17-0.41 1.36-0.87 2.77-1.38 4.24 3.64 7.42 6.21 15.6 7.91 23.96 4.88 23.93 2.66 49.37-1.87 62.89z"/>
 <path class="st4" d="m769.6 203.4c-2.81-0.19-5.77-0.89-8.66-2.16-4.92-2.16-8.76-5.54-11.03-9.31 1.36-4.43 3.29-9.33 5.92-14.74 6.37 10.92 12.07 17.21 13.77 26.21z"/>
 <path class="st4" d="m773.7 253.8c-2.7-0.99-5.38-2.67-7.72-5.02-6.6-6.6-8.01-15.86-3.17-20.71 1.22-1.22 2.71-2.04 4.37-2.48-0.41 1.36-0.87 2.77-1.38 4.24 3.63 7.43 6.19 15.61 7.9 23.97z"/>
 <path class="st8" d="m756.4 327.2c-28.98-19.76-23.22-45.89-23.22-45.89-79.19-11.87-65.81-49.83-42.87-47.38-51.51-27.96-39.64-37.56-24.29-30.78 0.58 0.26 1.12-0.43 0.71-0.93-16.16-19.76-8.24-26.16-1.28-20.98 2.99 2.22 5.81 6.58 6.45 12.94 9.19-4.67 16.9-5.81 22.02-3.51 7.15 3.23 9.24 13.21 3.23 29.76 1.54-0.41 3.04-0.7 4.51-0.89 13.75-1.79 24.1 5.53 28.42 15.39 3.48 7.94 3.05 17.51-2.67 25.31 22.27 4.65 23.61 16.6 15.01 21.06 17.66 10.34 17.59 34.11 13.98 45.9z"/>
 <path class="st4" d="m730.1 235c-3.47 1.04-7.51 1.26-11.67 0.46-9.73-1.88-16.75-8.72-16.76-15.84 13.76-1.8 24.11 5.53 28.43 15.38z"/>
 <path class="st4" d="m694 190.7c-1.36 5.52-7.93 9.69-15.82 9.69-8.89 0-16.1-5.29-16.1-11.82 0-2.76 1.29-5.3 3.45-7.3 2.99 2.22 5.81 6.58 6.45 12.94 9.19-4.67 16.9-5.82 22.02-3.51z"/>
 <path class="st7" d="m766.2 390.3c-0.69 0-1.3-0.51-1.4-1.21l-0.59-4.09c-12.26-85.34-12.26-85.34-57.52-141.9-9.14-11.43-20.52-25.65-34.13-43.27-0.48-0.62-0.36-1.51 0.25-1.99 0.62-0.48 1.51-0.36 1.99 0.25 13.6 17.6 24.96 31.81 34.1 43.23 45.74 57.19 45.74 57.19 58.11 143.3l0.59 4.09c0.11 0.77-0.43 1.49-1.2 1.6-0.07 0.01-0.14 0.02-0.2 0.02z"/>
 <path class="st7" d="m777.5 390.6c-0.74 0-1.36-0.57-1.41-1.32-0.06-0.9-6.43-90.91-21.22-203-0.1-0.77 0.44-1.49 1.22-1.59s1.49 0.44 1.59 1.22c14.8 112.2 21.17 202.3 21.24 203.2 0.05 0.78-0.53 1.46-1.31 1.51-0.05 0.01-0.08 0.01-0.11 0.01z"/>
 <ellipse class="st6" transform="matrix(.991 -.1339 .1339 .991 -12.59 128.7)" cx="951.1" cy="158" rx="12.09" ry="10.33"/>
 <path class="st6" d="m928.4 224.5c-15.35 3.17-30-4.74-32.78-17.83-2.77-13.09 7.41-26.34 22.74-29.58s30.7 6.87 33.6 19.93c3.63 16.33-4.64 23.57-23.56 27.48z"/>
 <path class="st7" d="m975.2 175.4c-3.48-26.35-22.24-21.01-24.39-8.63-20.1-7.74-41.22 22.57-6.16 50.49-58.56-11.71-53.25 52.75-18.3 59.49-19.36 7.45-19.71 35.51 16.24 37.95 35.97 2.45 32.61-139.3 32.61-139.3z"/>
 <path class="st6" d="m967.8 188.5c-0.51 0-0.97-0.34-1.11-0.86-0.05-0.17-4.65-17.28-18.21-21.8-0.6-0.2-0.92-0.85-0.72-1.45s0.85-0.92 1.45-0.72c6.13 2.04 11.48 6.74 15.48 13.6 2.99 5.13 4.17 9.61 4.22 9.8 0.16 0.61-0.21 1.23-0.82 1.39-0.1 0.03-0.2 0.04-0.29 0.04z"/>
 <path class="st6" d="m960.8 231c-0.28 0-0.57-0.1-0.79-0.31-0.12-0.12-12.58-11.83-22.93-14.85-0.61-0.18-0.95-0.81-0.78-1.42 0.18-0.61 0.81-0.95 1.42-0.78 10.88 3.18 23.34 14.89 23.86 15.39 0.46 0.43 0.48 1.16 0.04 1.62-0.22 0.23-0.52 0.35-0.82 0.35z"/>
 <path class="st6" d="m952.8 279.5c-0.19 0-0.38-0.05-0.56-0.15-0.13-0.07-12.86-7.05-25.34-1.54-0.58 0.25-1.25-0.01-1.51-0.58-0.26-0.58 0.01-1.25 0.58-1.51 13.55-5.98 26.82 1.32 27.38 1.64 0.55 0.31 0.75 1.01 0.44 1.56-0.2 0.37-0.59 0.58-0.99 0.58z"/>
 <ellipse class="st9" transform="matrix(.9892 -.1464 .1464 .9892 -26.71 136.9)" cx="916.6" cy="249.9" rx="7.91" ry="10.04"/>
 <ellipse class="st9" transform="matrix(.9623 -.2719 .2719 .9623 -26.26 260.3)" cx="926.1" cy="224.9" rx="7.36" ry="3.81"/>
 <ellipse class="st9" transform="matrix(.9339 -.3576 .3576 .9339 -1.683 348.5)" cx="941.4" cy="178.8" rx="9.12" ry="6.31"/>
 <ellipse class="st9" transform="matrix(.7071 -.7071 .7071 .7071 132.5 724.7)" cx="941" cy="202.4" rx="3.63" ry="5.24"/>
 <ellipse class="st9" transform="matrix(.1716 -.9852 .9852 .1716 539.2 1117)" cx="934" cy="238" rx="3.66" ry="4.28"/>
 <ellipse class="st9" transform="matrix(.862 -.507 .507 .862 -18.17 510.5)" cx="928.3" cy="288.6" rx="8.25" ry="7.05"/>
 <ellipse class="st12" transform="matrix(.5062 -.8624 .8624 .5062 278.5 882)" cx="909.4" cy="197.8" rx="12.19" ry="7.78"/>
 <ellipse class="st7" transform="matrix(.9006 -.4347 .4347 .9006 1.098 421.6)" cx="922" cy="208.4" rx="4.44" ry="3.26"/>
 <ellipse class="st5" transform="matrix(.548 -.8365 .8365 .548 269.8 885.7)" cx="954.4" cy="193.3" rx="3.31" ry="4.51"/>
 <ellipse class="st5" transform="matrix(.9125 -.4092 .4092 .9125 -23.72 406.1)" cx="937.3" cy="258.5" rx="9.03" ry="6.63"/>
 <path class="st9" d="m699.1 351.1c11.36 0.17 16.2 6.23 16.2 6.23l-12.31 21.52-11.82-1.98 7.93-25.77z"/>
 <path class="st7" d="m724.4 323.5s-0.27 0.29-0.78 0.86c-0.01 0-0.01 0-0.01 0.01-1.59 1.79-5.46 6.29-10.29 13.16-1.5 2.13-3.1 4.51-4.75 7.1l-0.01 0.02c-4.99 7.83-11.52 21.95-16.38 33.5l-8.01-1.85s4.75-14.51 11.76-37.29c0.62-1.99 1.25-4.07 1.91-6.24 1.62-5.35 3.37-11.23 5.24-17.61-0.01 0.01 19.18-1.97 21.32 8.34z"/>
 <path class="st9" d="m724.4 323.5c-0.24 0.33-0.5 0.62-0.78 0.86-0.01 0-0.01 0-0.01 0.01-4.79 4.04-15.58-4.63-20.54-9.2 0 0 19.19-1.98 21.33 8.33z"/>
 <path class="st6" d="m713.3 337.5c-1.5 2.13-3.1 4.51-4.75 7.1l-0.01 0.02s-5.97 1.11-12.63-5.63c0.62-1.99 1.25-4.07 1.91-6.24 2.73 2.21 7.71 4.94 15.48 4.75z"/>
 <path class="st6" d="m667.7 378.8-7.5-0.18s-1.61-15.61-15.13-29.46h-0.01c-1.61-1.66-3.4-3.29-5.37-4.86 0 0-1.98-4.99 10.95-13.1 0 0 2.75 3.25 6.05 9.18 4.55 8.17 10.14 21.46 11.01 38.42z"/>
 <path class="st7" d="m656.7 340.4c-3.52 5.47-11.62 8.79-11.62 8.79h-0.01c-1.61-1.66-3.4-3.29-5.37-4.86 0 0-1.98-4.99 10.95-13.1 0.01 0 2.75 3.24 6.05 9.17z"/>
 <path class="st6" d="m741.5 360c-5.75 1.36-10.56 2.92-14.59 4.55-3.23 1.3-5.95 2.64-8.24 3.96-9.22 5.29-11.46 10.14-11.46 10.14l-10.24 3.12c4.06-10.04 9.07-17.66 13.87-23.34 2.42-2.87 4.78-5.23 6.95-7.16 5.89-5.26 10.31-7.29 10.31-7.29 14.17 7.93 13.4 16.02 13.4 16.02z"/>
 <path class="st6" d="m717.2 301.6c-0.2 0.24-0.41 0.47-0.61 0.72-4.94 5.74-9.24 11.8-12.95 17.91-2.11 3.46-4.03 6.93-5.79 10.36-13.03 25.48-16.77 48.86-16.77 48.86l-7.74-1.31c4.58-20.44 8.08-39.17 10.57-53.72 0.8-4.66 1.49-8.89 2.09-12.61v-0.01c1.76-11.06 2.61-17.64 2.61-17.64 16.3-3.36 28.59 7.44 28.59 7.44z"/>
 <path class="st7" d="m677.4 331.4c0.93 13.4 0.72 29.28-2.02 46.7l-10.62-1.26s0-21.3-6.84-44.84c-0.86-2.98-1.84-5.99-2.94-9-2.06-5.65-4.56-11.29-7.58-16.66 0 0-4.25-6.48 21.95-18.02 0 0 4.42 11.9 6.91 31.41 0.46 3.62 0.86 7.53 1.14 11.67z"/>
 <path class="st9" d="m716.6 302.4c-3.95 1.02-22.88-0.76-27.99-8.16 16.31-3.36 28.6 7.44 28.6 7.44 0.29 0.31 0.04 0.55-0.61 0.72z"/>
 <path class="st9" d="m741.5 360s-9.43-3.25-13.4-16.02c14.17 7.93 13.4 16.02 13.4 16.02z"/>
 <path class="st6" d="m669.7 288.2c6.34 18.8 9.93 38.68 9.52 58.56 0 0-2.59-0.08-2.59-0.08-0.02-2.4-0.1-4.87-0.22-7.31-0.35-7.35-1.01-14.68-1.93-21.98-1.23-9.77-3.13-19.42-5.44-28.99-0.01-0.01 0.66-0.2 0.66-0.2z"/>
 <path class="st9" d="m669.4 288.3c-0.2 9.99-17.37 22.7-21.95 18.02 0 0.01-4.25-6.48 21.95-18.02z"/>
 <path class="st9" d="m703.6 320.3v0.02c-2.11 3.46-4.03 6.93-5.79 10.36-6.28-1.06-11-3.88-13.94-6.17 0.8-4.66 1.49-8.89 2.09-12.61 7.17 7.35 17.64 8.4 17.64 8.4z"/>
 <path class="st9" d="m727 364.2-0.06 0.43c-3.23 1.3-5.95 2.64-8.24 3.96-3.68-2.37-6.24-6.61-7.83-10.07 2.42-2.87 4.78-5.23 6.95-7.16 2.38 9.38 9.18 12.84 9.18 12.84z"/>
 <path class="st6" d="m677.4 331.4s-11.08 3.92-19.49 0.6c-0.86-2.98-1.84-5.99-2.94-9 6.66 4.16 21.28-3.28 21.28-3.28 0.47 3.63 0.87 7.54 1.15 11.68z"/>
 <path class="st5" d="m696.3 350.8-5.3 12.63-3.79 9.01-1.6 3.82-10.7-1.18c-0.06-1.99-0.18-4.2-0.34-6.51-0.23-3.35-0.55-6.92-0.88-10.3-0.82-8.37-1.75-15.58-1.75-15.58 14.24-0.45 24.36 8.11 24.36 8.11z"/>
 <path class="st6" d="m696.3 350.8s-15.04-1.03-24.36-8.11c14.24-0.45 24.36 8.11 24.36 8.11z"/>
 <path class="st8" d="m691 363.4-3.79 9.01c-4.83 0.03-9.34-1.91-12.64-3.88-0.23-3.35-0.55-6.92-0.88-10.3 6.44 4.5 12.93 5.31 17.31 5.17z"/>
 <path class="st9" d="m724.2 323.7c-11.08 14.51-20.22 30.39-27.94 46.91l-0.72-0.26c4.2-13.19 11.06-25.43 19.22-36.56 2.71-3.73 5.73-7.22 8.86-10.59l0.58 0.5z"/>
 <path class="st6" d="m834.8 224.9c1.38 22.33 2.59 44.96 8.66 66.57 1.01 3.17 2.14 6.5 3.62 9.49 2.11 4.52 5.12 8.65 8.87 11.97 2.49 2.26 5.3 4.34 7.91 6.81 5.29 4.87 8.95 11.3 11.58 17.9 5.06 13.15 7.25 27.05 9.27 40.88l-3.31 0.44-0.74-5.12c-0.73-5.1-1.59-10.24-2.67-15.27-2.85-13.09-6.31-27.03-16.31-36.53-2.42-2.32-5.19-4.38-7.84-6.79-2.65-2.39-5.05-5.17-6.98-8.22l-1.38-2.32c-0.37-0.77-1.43-2.83-1.78-3.61-0.35-0.85-1.15-2.85-1.51-3.71-1.07-2.93-2.27-7.07-3.06-10.12-4.77-20.4-6.04-41.39-7.2-62.21 0.02-0.02 2.87-0.16 2.87-0.16z"/>
 <path class="st6" d="m839.9 282.4-1.13-2.63c12.43-5.33 12.42-11.33 8.54-56.72-0.41-4.8-0.86-10.02-1.32-15.72l2.85-0.23c0.47 5.69 0.91 10.91 1.32 15.71 3.77 44.07 4.55 53.24-10.26 59.59z"/>
 <path class="st6" d="m834.4 247.9c-11.15-0.42-16.46-8.83-19.57-31.05l2.83-0.4c3.64 25.93 10.32 28.34 16.85 28.59l-0.11 2.86z"/>
 <path class="st6" d="m851 254.4-0.2-2.85c11.11-0.79 10.82-7.65 9.86-30.4l-0.11-2.65 2.86-0.12 0.11 2.65c0.97 22.9 1.37 32.38-12.52 33.37z"/>
 <path class="st6" d="m880 286.9c-8.35-3.77-13.43-7.6-12.89-37.47l2.86 0.05c-0.53 29.51 4.65 31.85 11.21 34.82l-1.18 2.6z"/>
 <path class="st6" d="m862 319-2.85-0.2 1.41-20.39 1-0.26c0.71-0.18 1.42-0.36 2.12-0.53 5.31-1.3 10.32-2.52 13.41-7.33 3.6-5.61 4.23-15.65 1.91-30.71l2.83-0.44c2.46 15.99 1.72 26.38-2.33 32.69-3.7 5.76-9.51 7.18-15.13 8.56-0.36 0.09-0.73 0.18-1.09 0.27l-1.28 18.34z"/>
 <path class="st6" d="m842.3 295.1c-15.45-2.34-18.77-12.79-21.69-22.01-3.21-10.14-5.75-18.15-22.31-16.03l-0.36-2.84c18.92-2.43 22.22 7.96 25.4 18 2.8 8.84 5.7 17.97 19.39 20.05l-0.43 2.83z"/>
 <rect class="st6" transform="matrix(.9783 -.2072 .2072 .9783 -33.51 173.1)" x="808.4" y="235.5" width="2.86" height="22.17"/>
 <path class="st6" d="m871.6 335.4c-24.42 0-28.16-6.43-39.09-25.24-1.53-2.62-3.25-5.6-5.19-8.8l2.45-1.48c1.95 3.23 3.68 6.21 5.21 8.84 10.68 18.37 13.9 23.93 37.19 23.81l0.01 2.86c-0.19 0.01-0.39 0.01-0.58 0.01z"/>
 <path class="st6" d="m877.2 349.2c17.71-8.05 18.35-26.49 19.48-43.54l0.98-17.4 2.85 0.17c-0.63 10.4-0.86 24.71-2.46 34.91-1.29 8.87-4.57 18.08-11.77 23.9-2.34 1.98-4.94 3.59-7.64 4.92l-1.44-2.96z"/>
 <path class="st6" d="m895.3 327.3-0.6-0.28c-7.77-3.63-12.09-6.74-10.42-28.34l2.85 0.22c-1.59 20.67 2.31 22.5 8.79 25.53l0.61 0.28-1.23 2.59z"/>
 <path class="st6" d="m870.5 377.8c-1.92-11.08-13.07-16.09-22.49-20.03-10.32-4.28-20.9-8.38-29.66-15.7-5.9-4.8-10.58-11.05-13.81-17.92l2.59-1.21c6.36 13.71 18.25 21.92 31.91 27.59 8.49 3.75 17.67 6.48 25.32 12 2.8 2.03 5.24 4.6 7.01 7.58 0.18 0.36 0.85 1.64 1.03 2.01 0.42 1.07 0.97 2.41 1.21 3.55l0.36 1.45-3.47 0.68z"/>
 <path class="st6" d="m824.9 345.2-2.24-1.78c7.56-9.5 4.89-13.72-18.32-43.89l-0.34-0.44 2.27-1.74 0.34 0.44c22.79 29.62 27.54 35.79 18.29 47.41z"/>
 <path class="st6" d="m857.2 360.3c-9.56 16.06-22.59 10.75-35.23 1.98-3.59-2.44-7.05-5-10.56-7.42l1.61-2.36c3.59 2.42 7.07 4.94 10.62 7.29 11.14 7.36 22.42 13.13 30.59-1.23 0.01 0 2.97 1.74 2.97 1.74z"/>
 <ellipse class="st4" transform="matrix(.9182 -.3961 .3961 .9182 -51.96 345.8)" cx="811.3" cy="298.7" rx="15.73" ry="3.21"/>
 <ellipse class="st4" transform="matrix(.9505 -.3107 .3107 .9505 -59.81 268.9)" cx="814.3" cy="322.2" rx="18.3" ry="3.73"/>
 <ellipse class="st8" transform="matrix(.9554 -.2954 .2954 .9554 -63.68 255)" cx="812.2" cy="338.3" rx="12.86" ry="2.62"/>
 <ellipse class="st4" transform="matrix(.9236 -.3833 .3833 .9236 -74.11 339.1)" cx="813.9" cy="355.5" rx="9.79" ry="3.28"/>
 <ellipse class="st4" transform="matrix(.9988 -.0498 .0498 .9988 -11.84 44.73)" cx="891" cy="259.8" rx="16.67" ry="3.4"/>
 <ellipse class="st8" transform="matrix(.9988 -.0498 .0498 .9988 -11.33 43.86)" cx="873.8" cy="249.2" rx="9.36" ry="3.19"/>
 <ellipse class="st4" transform="matrix(.9988 -.0498 .0498 .9988 -9.789 43.59)" cx="869.2" cy="218.1" rx="12.82" ry="2.61"/>
 <ellipse class="st8" transform="matrix(.9988 -.0498 .0498 .9988 -9.284 42.36)" cx="844.8" cy="207.4" rx="13.15" ry="2.68"/>
 <ellipse class="st4" transform="matrix(.9917 -.1282 .1282 .9917 -21.13 106.5)" cx="816.4" cy="217.4" rx="12.14" ry="2.47"/>
 <ellipse class="st4" transform="matrix(.9988 -.0498 .0498 .9988 -10.25 42.02)" cx="837.5" cy="226.5" rx="10.89" ry="3.68"/>
 <ellipse class="st8" transform="matrix(.9841 -.1778 .1778 .9841 -29.31 146.8)" cx="804" cy="236.9" rx="13.05" ry="2.66"/>
 <ellipse class="st4" transform="matrix(.3061 -.952 .952 .3061 310.8 938.6)" cx="799.2" cy="256.1" rx="9.94" ry="2.73"/>
 <ellipse class="st4" transform="matrix(.9698 -.2438 .2438 .9698 -39.7 208.8)" cx="823.5" cy="264.8" rx="11.98" ry="3.96"/>
 <ellipse class="st8" transform="matrix(.0595 -.9982 .9982 .0595 539.9 1103)" cx="855.5" cy="265.2" rx="3.61" ry="11.13"/>
 <ellipse class="st8" transform="matrix(.9515 -.3077 .3077 .9515 -53.28 275.2)" cx="846" cy="306.6" rx="14.58" ry="2.97"/>
 <ellipse class="st4" transform="matrix(.9509 -.3095 .3095 .9509 -52.48 271.5)" cx="829.4" cy="301.1" rx="9.33" ry="2.97"/>
 <ellipse class="st8" transform="matrix(.8869 -.462 .462 .8869 -65.2 431.8)" cx="849.1" cy="349" rx="14.16" ry="4.56"/>
 <ellipse class="st4" transform="matrix(.9391 -.3438 .3438 .9391 -57.16 318.6)" cx="870" cy="320.5" rx="16" ry="3.26"/>
 <ellipse class="st4" transform="matrix(.9988 -.0498 .0498 .9988 -13.15 45.58)" cx="907.4" cy="286.6" rx="16.42" ry="3.35"/>
 <ellipse class="st8" transform="matrix(.0937 -.9956 .9956 .0937 508 1158)" cx="889.8" cy="299.7" rx="3.12" ry="10.54"/>
 <path class="st10" d="m706 103.6c-4.65-0.08-9.16-0.17-13.48-0.26 0.76-3 3.48-5.21 6.71-5.21 3.32 0 6.11 2.34 6.77 5.47z"/>
 <path class="st13" d="m1019 368h-25.02v-2.92h25.02c3.67 0 6.66-2.99 6.66-6.66v-3c0-3.67-2.99-6.66-6.66-6.66h-25.02v-2.92h25.02c5.28 0 9.58 4.3 9.58 9.58v3c0 5.28-4.3 9.58-9.58 9.58z"/>
 <path class="st15" d="m1003 392h-8.45v-3.57h8.45c3.5 0 6.34-2.84 6.34-6.34v-16.8c0-3.5-2.84-6.34-6.34-6.34h-8.45v-3.57h8.45c5.46 0 9.91 4.44 9.91 9.91v16.8c-0.01 5.47-4.45 9.91-9.91 9.91z"/>
 <path class="st13" d="m1034 261.2h-56.27v-3.6h56.27c7.63 0 13.84-6.21 13.84-13.84v-16.1c0-7.63-6.21-13.84-13.84-13.84h-46.97v-3.6h46.97c9.62 0 17.44 7.83 17.44 17.44v16.1c0.01 9.61-7.82 17.44-17.44 17.44z"/>
 <path class="st15" d="m1001 316.3-1.73-3.57 25.63-12.4c3.46-1.67 5.69-5.23 5.69-9.08v-47.14c0-5.56-4.52-10.08-10.08-10.08h-29.17v-3.96h29.17c7.74 0 14.04 6.3 14.04 14.04v47.14c0 5.35-3.11 10.31-7.93 12.64l-25.62 12.41z"/>
 <path class="st23" d="m997.6 187.2v49.44s21.16-25.2 0-49.44z"/>
 <circle class="st19" cx="659.1" cy="428.1" r="12.98"/>
 <circle class="st19" cx="954.3" cy="428.1" r="12.98"/>
 <path class="st24" d="m998.5 153.7v244.2c0 20.76-8.17 33-34.49 33h-314.4c-31.89 0-31.52-15.58-31.52-37.82 0-11.87 19.1-29.35 114.8-12.19 2.73 0.49 5.45 0.96 8.17 1.39h0.01c4 0.65 8 1.24 11.98 1.76 53.91 7.15 105 3.01 141.7-24.04-2.75-2.29-5.16-5.04-7.08-8.25-9.74-16.29-3.43-37.99 14.09-48.45 11.43-6.83 24.81-7.19 35.43-2.1 17.91-48.05 17.67-106.6 33.49-136.7 8.36-15.88 27.83-17.11 27.83-10.89z"/>
 <circle class="st17" cx="644" cy="414.7" r="4.39"/>
 <ellipse class="st25" transform="matrix(.7987 -.6017 .6017 .7987 72.88 629.8)" cx="977.8" cy="206" rx="8.67" ry="8.07"/>
 <path class="st24" d="m975.3 216.2c-0.14 0-0.27-0.02-0.41-0.06-0.81-0.23-1.28-1.07-1.05-1.88l4.88-17.36c0.23-0.81 1.07-1.28 1.88-1.05s1.28 1.07 1.05 1.88l-4.88 17.36c-0.19 0.67-0.8 1.11-1.47 1.11z"/>
 <ellipse class="st23" transform="matrix(.9797 -.2004 .2004 .9797 -26.43 200.5)" cx="977.4" cy="230.8" rx="5.78" ry="5.37"/>
 <ellipse class="st19" transform="matrix(.9797 -.2004 .2004 .9797 -30.26 200.9)" cx="977.4" cy="249.9" rx="4.3" ry="4"/>
 <ellipse class="st19" transform="matrix(.9797 -.2004 .2004 .9797 -32.54 201.2)" cx="977.4" cy="261.3" rx="4.3" ry="4"/>
 <ellipse class="st19" transform="matrix(.9797 -.2004 .2004 .9797 -37.09 201.6)" cx="977.4" cy="284" rx="5.34" ry="4.97"/>
 <path class="st23" d="m977.1 294.9c-2.18 0-4.29-0.58-6.14-1.71-2.58-1.58-4.33-4.02-4.92-6.89s0.06-5.81 1.82-8.27c1.74-2.43 4.35-4.11 7.37-4.73 6.27-1.28 12.35 2.46 13.55 8.35s-2.92 11.72-9.19 13c-0.83 0.17-1.66 0.25-2.49 0.25zm0.6-18.99c-0.63 0-1.26 0.06-1.9 0.19-2.31 0.47-4.3 1.75-5.62 3.59-1.29 1.81-1.77 3.95-1.34 6.04 0.43 2.08 1.71 3.87 3.6 5.02 1.93 1.18 4.27 1.57 6.57 1.09 4.72-0.97 7.85-5.28 6.96-9.62-0.76-3.75-4.28-6.31-8.27-6.31z"/>
 <path class="st26" d="m946.3 342.8c6.78 30.47 35.42-0.57 52.23 18.53v12.79c-36.18 12.06-60.7-9.39-62.27-19.24l10.04-12.08z"/>
 <path class="st13" d="m998.5 292.9 5.64 3.78c1.74 1.17 2.79 3.13 2.79 5.23v20.3c0 1.73-0.71 3.39-1.97 4.58l-6.45 6.09v-39.98z"/>
 <path class="st26" d="m737.2 430.9h-28.22s-0.16-36.42 35.44-48.62h0.01c4 0.65 8 1.24 11.98 1.76 2.89 23.39-29.02 14.35-19.21 46.86z"/>
 <circle class="st19" cx="947.2" cy="386.2" r="3.34"/>
 <circle class="st19" cx="959" cy="386.2" r="3.34"/>
 <circle class="st19" cx="970.9" cy="386.2" r="3.34"/>
 <circle class="st19" cx="959" cy="367" r="3.34"/>
 <circle class="st19" cx="970.9" cy="367" r="3.34"/>
 <circle class="st19" cx="982.7" cy="386.2" r="3.34"/>
 <circle class="st19" cx="953.1" cy="376.6" r="3.34"/>
 <circle class="st19" cx="964.9" cy="376.6" r="3.34"/>
 <circle class="st19" cx="964.9" cy="357.8" r="3.34"/>
 <circle class="st19" cx="976.8" cy="376.6" r="3.34"/>
 <ellipse class="st11" transform="matrix(.9765 -.2154 .2154 .9765 -50.26 206.5)" cx="921.9" cy="333.8" rx="28.08" ry="26.11"/>
 <path class="st23" d="m921 362.8c-14 0-26.44-9.02-29.38-22.37-3.44-15.59 7.35-31.26 24.04-34.95 16.7-3.68 33.07 6 36.51 21.59 1.67 7.57 0.08 15.38-4.49 21.99-4.54 6.57-11.48 11.18-19.55 12.96-2.39 0.52-4.78 0.78-7.13 0.78zm6.79-2.32zm-5-52.64c-2.12 0-4.29 0.23-6.46 0.71-15 3.31-24.71 17.3-21.64 31.2 3.06 13.89 17.76 22.5 32.76 19.19 7.29-1.61 13.55-5.75 17.64-11.67 4.06-5.88 5.49-12.82 4.01-19.52-2.62-11.89-13.76-19.91-26.31-19.91z"/>
 <path class="st27" d="m921.6 344.1c-2 0-3.95-0.52-5.67-1.53-2.47-1.45-4.16-3.75-4.76-6.46s-0.03-5.5 1.6-7.86c1.61-2.33 4.07-3.96 6.92-4.59s5.77-0.18 8.21 1.25c2.47 1.45 4.16 3.75 4.76 6.46s0.03 5.5-1.6 7.86c-1.61 2.33-4.07 3.96-6.92 4.59-0.85 0.19-1.7 0.28-2.54 0.28zm0.63-18.11c-0.65 0-1.32 0.07-1.98 0.22-2.21 0.49-4.1 1.74-5.34 3.53-1.21 1.76-1.64 3.83-1.2 5.82 0.44 2 1.7 3.69 3.54 4.78 1.87 1.1 4.12 1.44 6.33 0.95s4.1-1.74 5.34-3.53c1.21-1.76 1.64-3.83 1.2-5.82-0.44-2-1.7-3.69-3.54-4.78-1.31-0.77-2.81-1.17-4.35-1.17z"/>
 <ellipse class="st23" transform="matrix(.9765 -.2154 .2154 .9765 -50.26 206.5)" cx="921.9" cy="333.8" rx="4.66" ry="4.33"/>
 <ellipse class="st13" transform="matrix(.9765 -.2154 .2154 .9765 -49.9 210.9)" cx="942.5" cy="334.4" rx="2.62" ry="2.43"/>
 <ellipse class="st13" transform="matrix(.9765 -.2154 .2154 .9765 -47.06 209.6)" cx="938" cy="320.7" rx="2.62" ry="2.43"/>
 <ellipse class="st13" transform="matrix(.9765 -.2154 .2154 .9765 -45.82 206.7)" cx="925.1" cy="313.5" rx="2.62" ry="2.43"/>
 <ellipse class="st13" transform="matrix(.9765 -.2154 .2154 .9765 -47.01 203.5)" cx="910" cy="317.4" rx="2.62" ry="2.43"/>
 <ellipse class="st13" transform="matrix(.9765 -.2154 .2154 .9765 -49.66 202.1)" cx="902.1" cy="328.8" rx="2.62" ry="2.43"/>
 <ellipse class="st13" transform="matrix(.9765 -.2154 .2154 .9765 -52.5 202.7)" cx="903.5" cy="342.2" rx="2.62" ry="2.43"/>
 <ellipse class="st13" transform="matrix(.9765 -.2154 .2154 .9765 -54.24 204.9)" cx="912.7" cy="351.2" rx="2.62" ry="2.43"/>
 <path class="st23" d="m921.9 335.2c-0.66 0-1.25-0.45-1.4-1.12l-4.43-19.91c-0.17-0.77 0.31-1.54 1.09-1.71 0.77-0.17 1.54 0.31 1.71 1.09l4.43 19.91c0.17 0.77-0.31 1.54-1.09 1.71-0.1 0.02-0.2 0.03-0.31 0.03z"/>
 <defs>
  <path id="j" d="m618.1 393.1c0 22.25-0.37 37.82 31.52 37.82h314.4s34.48-12.24 34.48-33 0-238 0-244.2-19.46-4.99-27.83 10.89c-19.86 37.7-14.41 120.4-51.34 170.8-39.5 53.86-111.7 58.98-186.5 45.58-95.69-17.17-114.8 0.32-114.8 12.19z"/>
 </defs>
 <clipPath id="b">
  <use xlink:href="#j"/>
 </clipPath>
 <g clip-path="url(#b)">
  <path class="st23" d="m614.7 408.8c-0.29 0-0.58-0.09-0.83-0.26-0.64-0.46-0.79-1.35-0.34-2l1.03-1.44c2.62-3.68 6.88-5.88 11.4-5.88h376.3c0.79 0 1.43 0.64 1.43 1.43s-0.64 1.43-1.43 1.43h-376.3c-3.59 0-6.98 1.75-9.07 4.68l-1.03 1.44c-0.27 0.39-0.71 0.6-1.16 0.6z"/>
  <path class="st23" d="m857.6 433.6c-0.24 0-0.49-0.06-0.72-0.18-0.77-0.4-1.07-1.35-0.67-2.12l16.26-31.33c0.4-0.77 1.35-1.07 2.12-0.67s1.07 1.35 0.67 2.12l-16.26 31.33c-0.29 0.54-0.83 0.85-1.4 0.85z"/>
  <path class="st23" d="m873.8 433.6c-0.24 0-0.49-0.06-0.72-0.18-0.77-0.4-1.07-1.35-0.67-2.12l16.26-31.33c0.4-0.77 1.35-1.07 2.12-0.67s1.07 1.35 0.67 2.12l-16.26 31.33c-0.29 0.54-0.84 0.85-1.4 0.85z"/>
  <path class="st23" d="m890.1 433.6c-0.24 0-0.49-0.06-0.72-0.18-0.77-0.4-1.07-1.35-0.67-2.12l16.26-31.33c0.4-0.77 1.35-1.07 2.12-0.67s1.07 1.35 0.67 2.12l-16.26 31.33c-0.28 0.54-0.83 0.85-1.4 0.85z"/>
 </g>
 <path d="m628 440.6c109.8-45.07 216.9-3.98 216.9-3.98 92.9-42.54 145 0.48 145 0.48l-361.9 3.5z" clip-path="url(#b)" fill="#DE4040"/>
 <path class="st23" d="m998.5 153.7c1.71 40.45 2.21 81.62 2.34 122.1 0.12 40.53-0.25 81.64-2.34 122.1-2.09-40.49-2.46-81.59-2.34-122.1 0.14-40.5 0.64-81.66 2.34-122.1z"/>
 <path class="st25" d="m998.5 153.7c-0.58-3.84-6.44-3.08-9.16-2.45-3.45 0.84-6.67 2.48-9.46 4.6-2.77 2.12-5.15 4.77-6.9 7.78-1.2 2.1-2.47 4.92-3.42 7.24-3.01 7.57-5.05 15.5-6.81 23.46-6.85 31.95-10.04 65.89-20.43 97-1.15 3.51-2.44 6.98-3.78 10.42-0.29 0.8-1.22 1.17-1.98 0.8-7.57-3.4-16.29-3.99-24.27-1.78-25.71 6.62-37.9 39.65-16.61 58.18 0.71 0.58 0.68 1.73-0.07 2.27-9.86 7.34-20.89 13.04-32.41 17.21-34.71 12.44-72.52 11.99-108.6 7.4-17.96-2.36-35.93-6.34-53.92-8.41-19.4-2.2-39.21-3.87-58.59-0.79-4.34 0.72-8.88 1.88-12.91 3.65-5.35 2.32-10.77 6.59-11.05 12.86-0.17-3.1 1.15-6.1 3.13-8.46 17.34-18.97 73.86-10.91 97.82-7.46 17.85 2.89 35.89 6.16 53.94 7.42 41.42 3.17 86.36-0.66 120.9-25.74l-0.07 2.27c-10.82-8.53-15.02-23.9-10.77-36.93 6.67-22.33 33.71-34.97 54.75-24.28 0 0-1.98 0.8-1.98 0.8 4.77-13.78 8.15-27.99 11.02-42.32 6.07-28.69 8.06-58.61 18.58-86.26 1.41-3.44 2.98-6.95 4.99-10.13 3.13-4.87 7.78-8.69 13.16-10.78 3.54-1.36 7.44-2.09 11.19-1.26 1.77 0.34 3.9 1.66 3.73 3.69z"/>
 <defs>
  <path id="g" d="m1600 24.84v428.5c0 8.31-4.08 15.66-10.34 20.17-2.4 1.73-5.84 0.86-6.95-1.88-3.92-9.72-16.41-16.83-31.21-16.83-9.47 0-17.99 2.91-23.93 7.55-1.91 1.49-4.64 1.25-6.24-0.56-7.66-8.68-21.22-14.45-36.68-14.45-13.95 0-26.37 4.71-34.28 12.01-1.84 1.7-4.72 1.55-6.42-0.29-9.32-10.07-25.83-16.76-44.62-16.76-27.05 0-49.35 13.85-52.36 31.7-0.4 2.39-2.49 4.14-4.91 4.14l-1317 0.04c-13.71 0-24.83-11.12-24.83-24.84v-428.5c0-13.72 11.12-24.84 24.83-24.84h1550c13.71 0 24.83 11.12 24.83 24.84z"/>
 </defs>
 <clipPath id="h">
  <use xlink:href="#g"/>
 </clipPath>
 <g clip-path="url(#h)">
  <path class="st31" d="m-2-4v267.4s98.7-51.53 18.99-158.6c0 0 64.21 7.64 69.42-67.21 28.64 28.43 102 19.67 107.4-41.58h-195.8z"/>
  <path class="st32" d="m1396-2c28.9 63.54 128.4 49.09 150.4 16.79-34 125 56.56 135.6 56.56 135.6v-152.4h-207z"/>
  <path class="st32" d="m67.01 446.5s20.75-83.35-67.93-87.09v137.4h189.7s3.88-78.08-121.7-50.29z"/>
  <path class="st31" d="m1576 446.4c-57.18-17.73-70.75 36.3-70.75 36.3-106-53.19-147.1 18.63-147.1 18.63h245v-171.4c-76.89 26.18-54.14 103.8-27.07 116.5z"/>
 </g>
 <defs>
  <ellipse id="e" cx="1399" cy="479.2" rx="33.87" ry="20.84"/>
 </defs>
 <clipPath id="f">
  <use xlink:href="#e"/>
 </clipPath>
 <g clip-path="url(#f)">
  <path class="st31" d="m-2-4v267.4s98.7-51.53 18.99-158.6c0 0 64.21 7.64 69.42-67.21 28.64 28.43 102 19.67 107.4-41.58h-195.8z"/>
  <path class="st32" d="m1396-2c28.9 63.54 128.4 49.09 150.4 16.79-34 125 56.56 135.6 56.56 135.6v-152.4h-207z"/>
  <path class="st32" d="m67.01 446.5s20.75-83.35-67.93-87.09v137.4h189.7s3.88-78.08-121.7-50.29z"/>
  <path class="st31" d="m1576 446.4c-57.18-17.73-70.75 36.3-70.75 36.3-106-53.19-147.1 18.63-147.1 18.63h245v-171.4c-76.89 26.18-54.14 103.8-27.07 116.5z"/>
 </g>
 <defs>
  <ellipse id="n" cx="1484" cy="478.7" rx="27.94" ry="17.19"/>
 </defs>
 <clipPath id="l">
  <use xlink:href="#n"/>
 </clipPath>
 <g clip-path="url(#l)">
  <path class="st31" d="m-2-4v267.4s98.7-51.53 18.99-158.6c0 0 64.21 7.64 69.42-67.21 28.64 28.43 102 19.67 107.4-41.58h-195.8z"/>
  <path class="st32" d="m1396-2c28.9 63.54 128.4 49.09 150.4 16.79-34 125 56.56 135.6 56.56 135.6v-152.4h-207z"/>
  <path class="st32" d="m67.01 446.5s20.75-83.35-67.93-87.09v137.4h189.7s3.88-78.08-121.7-50.29z"/>
  <path class="st31" d="m1576 446.4c-57.18-17.73-70.75 36.3-70.75 36.3-106-53.19-147.1 18.63-147.1 18.63h245v-171.4c-76.89 26.18-54.14 103.8-27.07 116.5z"/>
 </g>
 <defs>
  <ellipse id="i" cx="1552" cy="479" rx="18.65" ry="11.48"/>
 </defs>
 <clipPath id="o">
  <use xlink:href="#i"/>
 </clipPath>
 <g clip-path="url(#o)">
  <path class="st31" d="m-2-4v267.4s98.7-51.53 18.99-158.6c0 0 64.21 7.64 69.42-67.21 28.64 28.43 102 19.67 107.4-41.58h-195.8z"/>
  <path class="st32" d="m1396-2c28.9 63.54 128.4 49.09 150.4 16.79-34 125 56.56 135.6 56.56 135.6v-152.4h-207z"/>
  <path class="st32" d="m67.01 446.5s20.75-83.35-67.93-87.09v137.4h189.7s3.88-78.08-121.7-50.29z"/>
  <path class="st31" d="m1576 446.4c-57.18-17.73-70.75 36.3-70.75 36.3-106-53.19-147.1 18.63-147.1 18.63h245v-171.4c-76.89 26.18-54.14 103.8-27.07 116.5z"/>
 </g>
</svg>
