<?xml version="1.0" encoding="utf-8"?>
<!-- Generator: Adobe Illustrator 27.1.1, SVG Export Plug-In . SVG Version: 6.00 Build 0)  -->
<svg version="1.1" id="Layer_1" xmlns="http://www.w3.org/2000/svg" xmlns:xlink="http://www.w3.org/1999/xlink" x="0px" y="0px"
	 viewBox="0 0 1600 500" style="enable-background:new 0 0 1600 500;" xml:space="preserve">
<style type="text/css">
	.st0{fill-rule:evenodd;clip-rule:evenodd;fill:#F7F7F7;}
	.st1{fill:#9397BA;}
	.st2{fill:#67638A;}
	.st3{fill:#45425E;}
	.st4{fill:#E2DCFE;}
	.st5{fill:#8D7CF7;}
	.st6{fill:#3F328F;}
	.st7{fill:#5D4DC4;}
	.st8{fill:#B8AEFF;}
	.st9{fill:#281F70;}
	.st10{fill:#C5BDFF;}
	.st11{fill:#F7F7F7;}
	.st12{fill:#181345;}
	.st13{fill:#6E7191;}
	.st14{clip-path:url(#SVGID_00000061467382326070774190000013161787023353824172_);}
	.st15{fill:#4F516E;}
	.st16{clip-path:url(#SVGID_00000061467382326070774190000013161787023353824172_);fill:#4F516E;}
	.st17{fill:#F3FF73;}
	.st18{fill:#3A3C54;}
	.st19{fill:#121226;}
	.st20{clip-path:url(#SVGID_00000140001214678651022980000017901038498450995603_);}
	.st21{fill:url(#SVGID_00000157286950336486667880000008438379786724142753_);}
	.st22{fill:#7160E0;}
	.st23{fill:#DE4040;}
	.st24{fill:#FF705E;}
	.st25{fill:#FFBFB3;}
	.st26{opacity:0.5;fill:#FFBFB3;}
	.st27{fill:#A4A6BD;}
	.st28{clip-path:url(#SVGID_00000106149643588694855970000015473870422956592278_);}
	.st29{clip-path:url(#SVGID_00000106149643588694855970000015473870422956592278_);fill:#DE4040;}
	.st30{clip-path:url(#SVGID_00000089569329328671879160000015268966448507969960_);}
	.st31{fill:#C9F2E7;}
	.st32{fill:#CFE4FF;}
	.st33{clip-path:url(#SVGID_00000008871424666780985210000011932318868151592589_);}
	.st34{clip-path:url(#SVGID_00000075161104542401407190000015369526258401826725_);}
	.st35{clip-path:url(#SVGID_00000049210559368733902040000010112841840876345479_);}
</style>
<g>
	<path class="st0" d="M1600,24.84v428.52c0,8.31-4.08,15.66-10.34,20.17c-2.4,1.73-5.84,0.86-6.95-1.88
		c-3.92-9.72-16.41-16.83-31.21-16.83c-9.47,0-17.99,2.91-23.93,7.55c-1.91,1.49-4.64,1.25-6.24-0.56
		c-7.66-8.68-21.22-14.45-36.68-14.45c-13.95,0-26.37,4.71-34.28,12.01c-1.84,1.7-4.72,1.55-6.42-0.29
		c-9.32-10.07-25.83-16.76-44.62-16.76c-27.05,0-49.35,13.85-52.36,31.7c-0.4,2.39-2.49,4.14-4.91,4.14L24.83,478.2
		C11.12,478.2,0,467.08,0,453.36V24.84C0,11.12,11.12,0,24.83,0h1550.34C1588.88,0,1600,11.12,1600,24.84z"/>
</g>
<ellipse class="st0" cx="1399.46" cy="479.16" rx="33.87" ry="20.84"/>
<ellipse class="st0" cx="1483.78" cy="478.69" rx="27.94" ry="17.19"/>
<ellipse class="st0" cx="1552.37" cy="479.04" rx="18.65" ry="11.48"/>
<g>
	<g>
		<path class="st1" d="M1102.1,418.72c0,5.37,240.55,5.98,240.55,0C1342.65,412.75,1102.1,413.35,1102.1,418.72z"/>
		<g>
			<path class="st2" d="M1331.04,364.22h-20.85c-0.96,0-1.74-0.78-1.74-1.74s0.78-1.74,1.74-1.74h20.85c4.47,0,8.1-3.64,8.1-8.1
				v-8.74c0-3.84-2.73-7.18-6.5-7.94l-20.63-4.17c-0.94-0.19-1.55-1.11-1.36-2.05c0.19-0.94,1.11-1.55,2.05-1.36l20.63,4.17
				c5.38,1.09,9.29,5.86,9.29,11.35v8.74C1342.62,359.03,1337.42,364.22,1331.04,364.22z"/>
		</g>
		<g>
			<path class="st3" d="M1314.12,393.52c-0.85,0-1.59-0.62-1.72-1.49c-0.14-0.95,0.52-1.83,1.47-1.97l23.69-3.41
				c7.51-1.08,12.86-7.61,12.46-15.18l-0.67-12.68c-0.41-7.73-6.8-13.79-14.54-13.79h-16.98c-0.96,0-1.74-0.78-1.74-1.74
				s0.78-1.74,1.74-1.74h16.98c9.59,0,17.5,7.5,18.01,17.08l0.67,12.68c0.5,9.38-6.14,17.46-15.44,18.8l-23.69,3.41
				C1314.28,393.51,1314.2,393.52,1314.12,393.52z"/>
		</g>
		<circle class="st3" cx="1324.99" cy="388.9" r="10.23"/>
		<path class="st4" d="M1163.61,167.67c-43.58,42.99-45.32,104.64-45.32,213.16l200.72,0.11c0-82.57,0.65-167.43-8.98-210.45
			C1299.19,122.07,1202.42,129.39,1163.61,167.67z"/>
		<path class="st5" d="M1307.77,388.33h-179.04c0,0,0-22.07,0-54.16c0-59.71,8.85-94.45,8.85-94.45c82.53-2.39,169.52,0,169.52,0
			L1307.77,388.33z"/>
		<path class="st6" d="M1232.67,348.89c14.34,2.3,56.74,39.44,56.74,39.44h-42.52L1232.67,348.89z"/>
		<polygon class="st6" points="1147.4,364.7 1163.61,370.4 1153.93,382.27 		"/>
		<polygon class="st6" points="1178.26,358.49 1197.44,368.61 1183.43,378.56 		"/>
		<path class="st7" d="M1246.89,388.33c2.52-59.28-36.97-43.69-60.12-14.68c-6.3-27.07-23.5-15.92-32.84,0.94
			c-6.89-25.58-20.36,6.35-20.36,6.35L1246.89,388.33z"/>
		<path class="st8" d="M1307.1,239.73c-4.64,4.84-132.25,6.11-169.52,0C1220.11,237.34,1307.1,239.73,1307.1,239.73z"/>
		<path class="st9" d="M1196.46,385.04l30.92,2.02C1232.67,353.19,1202.63,363.05,1196.46,385.04z"/>
		<path class="st7" d="M1307.23,269.78c-39.57,22.98-36.11,118.56-36.11,118.56h36.64L1307.23,269.78z"/>
		<g>
			<g>
				<path class="st7" d="M1283.01,306.7c-2.87-6.34-6.98-10.42-12.22-12.13c-9.65-3.16-20.07,2.61-20.17,2.67l-2.35-2.4
					c7.5-12.63,5.8-23.57,2.82-25.65c-1.47-1.03-3.28,0.76-4.22,1.92l-2.69-2.19c4.23-5.2,7.89-3.28,8.9-2.57
					c2.65,1.85,4.14,6.24,3.99,11.73c-0.13,4.5-1.35,9.38-3.48,14.09c4.44-1.58,11.42-3.14,18.29-0.9c6.2,2.03,11.02,6.74,14.3,14
					L1283.01,306.7z"/>
			</g>
			<g>
				<path class="st7" d="M1288.14,294.7c-6.81-10.63-19.45-8.18-19.99-8.07l-2.06-2l1.84-10.56l3.42,0.6l-1.44,8.28
					c4.7-0.3,15,0.27,21.16,9.88L1288.14,294.7z"/>
			</g>
			<g>
				<path class="st7" d="M1278.22,324.29c-4.98-9.1-10.46-14.17-16.3-15.09c-6.26-0.98-10.91,3.35-10.95,3.39l-2.4-2.51
					c0.24-0.23,5.88-5.54,13.84-4.32c6.98,1.07,13.32,6.74,18.86,16.86L1278.22,324.29z"/>
			</g>
		</g>
		<path class="st6" d="M1275.25,365.1c-17.82-44.39-45.83-48.95-45.83-39.46C1229.4,341.26,1275.25,365.1,1275.25,365.1z"/>
		<path class="st7" d="M1138.86,361.1c27.68-1.13,43.88-30.65,43.88-30.65C1148,332.63,1138.86,361.1,1138.86,361.1z"/>
		<g>
			<circle class="st10" cx="1204.68" cy="279.73" r="4.66"/>
			<circle class="st10" cx="1151.98" cy="254.01" r="4.73"/>
			<circle class="st10" cx="1200.65" cy="323.61" r="3.21"/>
			<circle class="st10" cx="1281.84" cy="260.57" r="4.9"/>
			<circle class="st10" cx="1219.06" cy="335.21" r="5.3"/>
		</g>
		<g>
			<path class="st11" d="M1296.66,187.94c6.74,0.09,9.44,35.12,2.86,35.35C1292.94,223.51,1289.92,187.85,1296.66,187.94z"/>
			
				<ellipse transform="matrix(0.9667 -0.2559 0.2559 0.9667 -0.5762 336.7753)" class="st11" cx="1293.88" cy="170.6" rx="3.83" ry="5.56"/>
		</g>
		<g>
			<path class="st12" d="M1130.74,407.04v5.81c0,3.1,2.51,5.61,5.61,5.61h11.98c3.1,0,5.61-2.51,5.61-5.61v-5.81H1130.74z"/>
			<path class="st12" d="M1283.37,407.04v5.81c0,3.1,2.51,5.61,5.61,5.61h11.98c3.1,0,5.61-2.51,5.61-5.61v-5.81H1283.37z"/>
		</g>
		<path class="st13" d="M1324.79,316.67c-0.05-2.46-2.36-4.27-4.76-3.69c-19.82,4.79-36.61,32.72-46.83,47.07
			c-7.65,10.73-20.03,17.07-33.21,17.07h-123.08c-3.02,0-5.47,2.45-5.47,5.47v21.52c0,3.04,2.47,5.51,5.51,5.51h203.98
			c3.09,0,5.58-2.54,5.51-5.63L1324.79,316.67z"/>
		<g>
			<defs>
				<path id="SVGID_1_" d="M1324.79,316.67c-0.05-2.46-2.36-4.27-4.76-3.69c-19.82,4.79-36.61,32.72-46.83,47.07
					c-7.65,10.73-20.03,17.07-33.21,17.07h-123.08c-3.02,0-5.47,2.45-5.47,5.47v21.52c0,3.04,2.47,5.51,5.51,5.51h203.98
					c3.09,0,5.58-2.54,5.51-5.63L1324.79,316.67z"/>
			</defs>
			<clipPath id="SVGID_00000126319432904607427280000010068906228837267865_">
				<use xlink:href="#SVGID_1_"  style="overflow:visible;"/>
			</clipPath>
			<g style="clip-path:url(#SVGID_00000126319432904607427280000010068906228837267865_);">
				<path class="st15" d="M1231.38,413.98l-2.63-1.8c15.54-22.69,18.72-22.67,72.06-22.34c7.58,0.05,16.18,0.1,25.99,0.1v3.19
					c-9.82,0-18.42-0.05-26.01-0.1C1246.98,392.69,1245.96,392.68,1231.38,413.98z"/>
			</g>
			<g style="clip-path:url(#SVGID_00000126319432904607427280000010068906228837267865_);">
				<rect x="1135.02" y="368.07" class="st15" width="3.19" height="57.07"/>
			</g>
			<path style="clip-path:url(#SVGID_00000126319432904607427280000010068906228837267865_);fill:#4F516E;" d="M1135.54,388.27
				c-3.19,0.07-5.75,2.67-5.75,5.88s2.57,5.81,5.75,5.88V388.27z"/>
		</g>
		<path class="st1" d="M1320.03,312.98c-9.43,3.28-16.68,10.28-23.24,17.51c-6.47,7.39-12.24,15.41-17.85,23.59
			c-2.9,4.11-5.53,8.46-9.13,12.03c-7.21,7.31-17.21,11.69-27.45,12.24c-4.39,0.16-10.54,0-14.96,0.03
			c-30.11-0.1-80.12-0.23-109.78-0.51c-2.99-0.3-5.61,1.73-6.18,4.72c-0.68-3.57,2.7-6.56,6.18-6.22
			c12.41-0.1,37.55-0.25,50.24-0.32c4.84-0.02,63.72-0.19,66.99-0.2c2.47-0.02,5,0.03,7.37-0.09c4.8-0.3,9.53-1.45,13.92-3.41
			c4.37-1.99,8.39-4.74,11.78-8.13c3.5-3.4,6.06-7.64,8.87-11.62c5.62-8.17,11.32-16.43,18.2-23.75
			C1301.76,321.67,1310.02,314.64,1320.03,312.98L1320.03,312.98z"/>
		<g>
			<path class="st3" d="M1305.74,361.28c-5.07,0-9.19-4.12-9.19-9.19c0-5.07,4.12-9.19,9.19-9.19c5.07,0,9.19,4.12,9.19,9.19
				C1314.93,357.16,1310.81,361.28,1305.74,361.28z M1305.74,346.07c-3.33,0-6.03,2.71-6.03,6.03s2.71,6.03,6.03,6.03
				c3.33,0,6.03-2.71,6.03-6.03S1309.07,346.07,1305.74,346.07z"/>
		</g>
		<g>
			<circle class="st17" cx="1299.06" cy="374.18" r="4.11"/>
			<circle class="st18" cx="1285.66" cy="374.18" r="4.11"/>
		</g>
		<g>
			<g>
				<path class="st18" d="M1150.55,402.65c-0.34,0-0.69-0.1-0.99-0.31c-0.8-0.55-1-1.64-0.45-2.44l10.08-14.62
					c0.55-0.8,1.64-1,2.44-0.45c0.8,0.55,1,1.64,0.45,2.44l-10.08,14.62C1151.65,402.38,1151.11,402.65,1150.55,402.65z"/>
			</g>
			<g>
				<path class="st18" d="M1160.63,402.65c-0.34,0-0.69-0.1-0.99-0.31c-0.8-0.55-1-1.64-0.45-2.44l10.08-14.62
					c0.55-0.8,1.64-1,2.44-0.45c0.8,0.55,1,1.64,0.45,2.44l-10.08,14.62C1161.73,402.38,1161.18,402.65,1160.63,402.65z"/>
			</g>
			<g>
				<path class="st18" d="M1170.7,402.65c-0.34,0-0.69-0.1-0.99-0.31c-0.8-0.55-1-1.64-0.45-2.44l10.08-14.62
					c0.55-0.8,1.64-1,2.44-0.45c0.8,0.55,1,1.64,0.45,2.44l-10.08,14.62C1171.81,402.38,1171.26,402.65,1170.7,402.65z"/>
			</g>
			<g>
				<path class="st18" d="M1180.78,402.65c-0.34,0-0.69-0.1-0.99-0.31c-0.8-0.55-1-1.64-0.45-2.44l10.08-14.62
					c0.55-0.8,1.64-1,2.44-0.45c0.8,0.55,1,1.64,0.45,2.44l-10.08,14.62C1181.89,402.38,1181.34,402.65,1180.78,402.65z"/>
			</g>
		</g>
		<g>
			<path class="st7" d="M1188.62,270.32c-2.81,33.72-25.88,43.04-41.12,55.95C1166.18,280.98,1188.62,270.32,1188.62,270.32z"/>
			<path class="st6" d="M1152.11,315.92c-4.33,10.49-13.07,33.18-16.66,47.67C1131.04,344.53,1142.23,324.3,1152.11,315.92z"/>
		</g>
	</g>
	<g>
		<path class="st1" d="M291.03,417.19c0,5.31,237.62,5.9,237.62,0C528.65,411.29,291.03,411.89,291.03,417.19z"/>
		<g>
			<path class="st4" d="M308.92,381.4h198.84c0-80.4-11.31-147.2-36.31-190.09C413,91.02,303.49,114.19,308.92,381.4z"/>
			<path class="st5" d="M497.84,381.4H316.26c0-99.33,16.11-153.98,16.11-153.98s74.68-3.27,144.1,0
				C497.84,274.74,497.84,381.4,497.84,381.4z"/>
			<path class="st8" d="M476.47,227.42c-48,10.18-144.1,0-144.1,0S407.05,224.15,476.47,227.42z"/>
			<g>
				<path class="st18" d="M309.32,336.59l-25.78-10.08c-4.67-1.83-7.69-6.25-7.69-11.26v-23.78c0-5.78,4.12-10.78,9.8-11.87
					l27.7-5.35l0.74,3.82l-27.7,5.35c-3.85,0.74-6.65,4.13-6.65,8.05v23.78c0,3.4,2.05,6.4,5.21,7.64l25.78,10.08L309.32,336.59z"/>
			</g>
			<g>
				<path class="st15" d="M301.8,366.02l-9.54-4.48c-4.55-2.14-7.5-6.77-7.5-11.8v-46.74c0-6.42,4.79-11.96,11.13-12.89l13.42-1.98
					l0.57,3.85l-13.42,1.98c-4.45,0.66-7.81,4.54-7.81,9.04v46.74c0,3.53,2.06,6.78,5.26,8.28l9.54,4.48L301.8,366.02z"/>
			</g>
			<circle class="st19" cx="485.56" cy="407.67" r="9.09"/>
			<path class="st6" d="M427,339.66c15.34,2.48,34.15,29.3,34.15,29.3l-14.9,9.62L427,339.66z"/>
			<path class="st6" d="M467.79,359.44c12.47,3.9,26.86,20.55,26.86,20.55l-18.18,1.41L467.79,359.44z"/>
			<polygon class="st6" points="380.25,354.73 403.75,363.34 387.87,378.29 			"/>
			<path class="st18" d="M305.65,341.22c-24.62,20.01-2.52,40.02-2.52,40.02L305.65,341.22z"/>
			<circle class="st19" cx="327.96" cy="407.67" r="9.09"/>
			<g>
				<path class="st11" d="M462.12,209.14c5.99-1.27-12.59-33.62-18.85-32.77C437.02,177.21,456.14,210.41,462.12,209.14z"/>
				
					<ellipse transform="matrix(0.7699 -0.6381 0.6381 0.7699 -6.7085 316.8208)" class="st11" cx="436.02" cy="167.71" rx="3.21" ry="4.65"/>
			</g>
			<path class="st7" d="M480.26,381.4c-3.78-31.41-29.28-26.97-32.1-7.49c-5.91-45.32-39.92-45.88-56.59-3.93
				c-2.82-20.83-29.33-24.78-44.49,8.31S480.26,381.4,480.26,381.4z"/>
			<g>
				<g>
					<path class="st6" d="M496.95,349.74c-28.34,7.22-38.99-8.87-46.47-27.94C462.66,332.37,478.05,342.57,496.95,349.74z"/>
					<path class="st7" d="M453.47,328.79c-25.92-22.48-40.35-53.55-40.35-53.55C437.2,272.51,444.62,306.23,453.47,328.79z"/>
				</g>
				<path class="st7" d="M492.33,343.48c-4.18-31.95-30.73-60.61-30.73-60.61C452.54,318.51,492.33,343.48,492.33,343.48z"/>
			</g>
			<g>
				<g>
					<path class="st7" d="M351.91,313.37c-3.76,0-9.05-1.85-14.7-9.64l2.58-1.87c5.15,7.1,10.97,9.91,15.57,7.52
						c4.61-2.39,6.47-8.97,4.31-15.31l2.53-1.74c6.83,5.69,12.99,6.93,16.89,3.4c4.06-3.67,4.66-11.27,1.28-16.27l0.77-2.39
						l15.08-5.49l1.09,2.99l-13.3,4.84c3.08,6.2,1.98,14.35-2.8,18.68c-2.21,1.99-8.04,5.52-17.58-0.72
						c0.66,6.35-1.92,12.3-6.82,14.83C355.95,312.66,354.22,313.37,351.91,313.37z"/>
				</g>
				<g>
					<path class="st7" d="M337.74,299.36l-1.43-2.84c23-11.59,31.15-24.86,30.88-30.5c-0.09-1.87-1.07-2.25-1.4-2.38
						c-0.57-0.22-5.9-1.81-18.14,10.33l-2.24-2.26c8.94-8.86,16.79-12.89,21.54-11.04c2.06,0.8,3.3,2.69,3.42,5.19
						c0.2,4.14-2.57,9.73-7.59,15.34C356.87,287.81,348.21,294.09,337.74,299.36z"/>
				</g>
				<g>
					<path class="st7" d="M375.6,331.92l-2.41-2.08c4.45-5.16,6.14-9.8,4.32-11.81c-2.45-2.7-13.01-2.28-30.94,10.35l-1.83-2.6
						c16.09-11.33,30.21-15.3,35.13-9.88C381.34,317.52,383.87,322.33,375.6,331.92z"/>
				</g>
			</g>
			<g>
				<path class="st6" d="M420.39,391.65c-9.49,0-20.71-8.61-21.25-9.03l-1.04-0.81l0.64-1.16c13.2-23.94,23.23-23.06,26.94-21.57
					c6.45,2.6,9.22,12.37,6.44,22.71c-1.3,4.85-3.88,7.96-7.65,9.23C423.16,391.46,421.79,391.65,420.39,391.65z M402.1,380.96
					c3.43,2.42,14.32,9.51,21.37,7.14c2.77-0.93,4.62-3.25,5.65-7.1c2.34-8.7,0.31-17.06-4.61-19.05
					C417.55,359.15,408.51,369.72,402.1,380.96z"/>
			</g>
			<path class="st6" d="M382.74,381.4c-0.73-18.06-15.73-16.36-21.5,0C355.48,397.77,382.74,381.4,382.74,381.4z"/>
			<g>
				<circle class="st10" cx="396.06" cy="334.42" r="4.59"/>
				<circle class="st10" cx="430.3" cy="264.39" r="4.2"/>
				<circle class="st10" cx="459.92" cy="245.08" r="3.3"/>
				<circle class="st10" cx="384.73" cy="248.76" r="4.65"/>
				<circle class="st10" cx="429.88" cy="318.99" r="3.99"/>
			</g>
			<path class="st13" d="M301.52,382.11v22.55c0,2.11,1.71,3.82,3.82,3.82h203.74c2.11,0,3.82-1.71,3.82-3.82v-22.55
				c0-2.11-1.71-3.82-3.82-3.82H305.35C303.23,378.29,301.52,380,301.52,382.11z"/>
			<path class="st13" d="M316.56,253.2c43.55,34.57,38.77,128.2,38.77,128.2h-53.8c0-57.12,2.42-97.07,10.11-126.57
				C312.2,252.68,314.81,251.81,316.56,253.2z"/>
			<circle class="st18" cx="318.69" cy="363.34" r="5.62"/>
			<circle class="st17" cx="335.71" cy="363.34" r="3.79"/>
			<g>
				<rect x="301.52" y="388.64" class="st15" width="211.39" height="3.15"/>
			</g>
			<path class="st15" d="M409.73,389.91c0,0.1-0.02,0.2-0.02,0.3c0,3.39,2.75,6.14,6.14,6.14c3.39,0,6.14-2.75,6.14-6.14
				c0-0.1-0.01-0.2-0.02-0.3H409.73z"/>
			<path class="st15" d="M428.19,389.91c0,0.1-0.02,0.2-0.02,0.3c0,3.39,2.75,6.14,6.14,6.14c3.39,0,6.14-2.75,6.14-6.14
				c0-0.1-0.01-0.2-0.02-0.3H428.19z"/>
			<path class="st15" d="M446.65,389.91c0,0.1-0.02,0.2-0.02,0.3c0,3.39,2.75,6.14,6.14,6.14c3.39,0,6.14-2.75,6.14-6.14
				c0-0.1-0.01-0.2-0.02-0.3H446.65z"/>
			<path class="st15" d="M465.12,389.91c0,0.1-0.02,0.2-0.02,0.3c0,3.39,2.75,6.14,6.14,6.14c3.39,0,6.14-2.75,6.14-6.14
				c0-0.1-0.01-0.2-0.02-0.3H465.12z"/>
			<g>
				<defs>
					<path id="SVGID_00000034808630969902527530000007857718364176039298_" d="M316.56,253.2c43.55,34.57,38.77,128.2,38.77,128.2
						h-53.8c0-57.12,2.42-97.07,10.11-126.57C312.2,252.68,314.81,251.81,316.56,253.2z"/>
				</defs>
				<clipPath id="SVGID_00000020389966169849176150000011122024605098842752_">
					<use xlink:href="#SVGID_00000034808630969902527530000007857718364176039298_"  style="overflow:visible;"/>
				</clipPath>
				<g style="clip-path:url(#SVGID_00000020389966169849176150000011122024605098842752_);">
					<path class="st15" d="M337.54,339.47c-3.67,0-6.85-0.68-9.6-2.05c-8.07-4.02-10.89-13.29-13.39-21.48
						c-2.63-8.64-4.9-16.09-12.05-17.27l0.51-3.11c9.08,1.49,11.86,10.62,14.56,19.46c2.42,7.95,4.92,16.16,11.78,19.57
						c5.6,2.79,13.62,2.21,24.51-1.77l1.08,2.96C348.22,338.24,342.45,339.47,337.54,339.47z"/>
				</g>
			</g>
			<path class="st1" d="M316.56,253.2c29.86,19.8,39.15,74.54,40.37,108.15c0.22,5.66,0.24,11.32,0.01,16.99l-1.45-1.51
				c35.55-0.02,84.17,0.23,119.72,0.52c7.78,0.05,24.74,0.19,32.41,0.25c0,0,1.25,0.01,1.25,0.01c2.29-0.04,4.78,2.12,4.05,4.5
				c-0.22-0.84-0.59-1.55-1.13-2.03c-1.08-1.05-2.78-1.19-4.22-1.11c-7.61,0.05-24.6,0.19-32.42,0.25
				c-36.15,0.29-85.02,0.53-121.16,0.52c0,0,0.04-1.51,0.04-1.51c0.42-22.31-1.7-44.84-6.86-66.57
				C342.08,289.97,332.85,268.83,316.56,253.2L316.56,253.2z"/>
		</g>
	</g>
	<path class="st1" d="M599.72,442.25c0,7.35,418.57,7.76,418.57,0C1018.29,434.48,599.72,434.89,599.72,442.25z"/>
	<g>
		<path class="st4" d="M928.08,38.18c-40.13,0-213.8,0-251.17,0c-37.36,0-53.28,10.38-53.28,56.05s0,296.83,0,296.83h366.72
			c0,0,0-248.4,0-294.76S968.22,38.18,928.08,38.18z"/>
		
			<linearGradient id="SVGID_00000174600184398828588500000012971800969344313252_" gradientUnits="userSpaceOnUse" x1="635.9951" y1="245.1259" x2="978.6074" y2="245.1259">
			<stop  offset="0" style="stop-color:#A494FF"/>
			<stop  offset="0.1733" style="stop-color:#8D7CF7"/>
			<stop  offset="1" style="stop-color:#8D7CF7"/>
		</linearGradient>
		<path style="fill:url(#SVGID_00000174600184398828588500000012971800969344313252_);" d="M978.61,101.67v289.38H636V105.29
			c0-1.97,1.64-3.55,3.6-3.47c7.71,0.29,27.21,0.97,52.94,1.52c4.33,0.09,8.83,0.18,13.48,0.26c7.05,0.12,14.43,0.24,22.07,0.33
			c0,0,0.01,0,0.01,0c43.55,0.51,95.25,0.29,138.08-2.25C960,96.11,978.61,101.67,978.61,101.67z"/>
		<path class="st7" d="M969.71,313.5c0,0-7.47,32.24-35.34,54.07c-10.92,8.55-24.97,15.5-42.92,18.3c-0.19,0.03-0.39,0.06-0.59,0.09
			c-20.19,3.06-52.79,4.25-88.03,4.44c-17.53,0.09-35.72-0.06-53.35-0.36c-59.92-1.01-113.49-3.63-113.49-3.63v-18.53
			c0,0,6.12-16.59,29.91-5.25c0,0,25.29-11.51,54.42,11.46c0,0,14.47-17.27,33.34,0.52c12.49-0.82,23.33-2.66,33.03-5.24
			c15.29-4.06,27.72-9.91,39.3-16.34c11.46-6.37,22.07-13.29,33.73-19.59C884.96,319.83,915.16,309.15,969.71,313.5z"/>
		<path class="st8" d="M978.61,101.67c-100.98,12.04-249.06,2.35-250.5,2.25c43.55,0.51,95.25,0.29,138.08-2.25
			C960,96.11,978.61,101.67,978.61,101.67z"/>
		<path class="st22" d="M934.37,367.58c-10.92,8.55-24.97,15.5-42.92,18.3c-0.19,0.03-0.39,0.06-0.59,0.09
			c-30.24,0-33.85-32.32-64.87-32.92c11.46-6.37,22.07-13.29,33.73-19.59C882.6,336.02,918.79,343.85,934.37,367.58z"/>
		<path class="st6" d="M802.84,390.4c-17.53,0.09-35.72-0.06-53.35-0.36c4.03-5.03,7.5-11.31,4.18-15.42
			c12.49-0.82,23.33-2.66,33.03-5.24C792.38,373.82,798.87,380.62,802.84,390.4z"/>
		<g>
			<path class="st11" d="M893.58,52.58c-0.57,7.51,41.75,8,42.93,1.94S894.15,45.07,893.58,52.58z"/>
			
				<ellipse transform="matrix(0.6268 -0.7792 0.7792 0.6268 307.9953 771.4414)" class="st11" cx="959.26" cy="64.22" rx="7.35" ry="10.14"/>
		</g>
		<g>
			<circle class="st10" cx="737.81" cy="337.8" r="3.98"/>
			<circle class="st10" cx="864.73" cy="153.36" r="5.18"/>
			<circle class="st10" cx="790.44" cy="158.26" r="3.87"/>
			<circle class="st10" cx="814.17" cy="126.27" r="2.84"/>
			<circle class="st10" cx="725.69" cy="185.1" r="5.56"/>
			<circle class="st10" cx="891.75" cy="232.72" r="5.16"/>
			<circle class="st10" cx="840.48" cy="189.73" r="3.38"/>
			<circle class="st10" cx="925.09" cy="130.4" r="3.87"/>
			<circle class="st10" cx="668.54" cy="123.44" r="5.16"/>
			<circle class="st10" cx="654.82" cy="263.97" r="3.45"/>
			<circle class="st10" cx="681.15" cy="281.69" r="4.59"/>
			<circle class="st10" cx="791.22" cy="283.62" r="3.23"/>
			<circle class="st10" cx="783.86" cy="351.13" r="4.13"/>
			<circle class="st10" cx="754.62" cy="132.83" r="3.72"/>
			<circle class="st10" cx="697.44" cy="172.54" r="3.5"/>
		</g>
		<path class="st8" d="M771.87,316.66c0,0-13.91-13.95-5.32-24.36c0,0-21.64-24.45-9.83-62.32c0,0-15.8-8.69-6.79-38.05
			c1.36-4.43,3.29-9.33,5.92-14.74c6.37,10.92,12.08,17.21,13.77,26.21c1.08,5.69,0.56,12.46-2.41,22.17
			c-0.41,1.36-0.87,2.77-1.38,4.24c3.64,7.42,6.21,15.6,7.91,23.96C778.62,277.7,776.4,303.14,771.87,316.66z"/>
		<path class="st4" d="M769.62,203.39c-2.81-0.19-5.77-0.89-8.66-2.16c-4.92-2.16-8.76-5.54-11.03-9.31
			c1.36-4.43,3.29-9.33,5.92-14.74C762.22,188.1,767.92,194.39,769.62,203.39z"/>
		<path class="st4" d="M773.74,253.76c-2.7-0.99-5.38-2.67-7.72-5.02c-6.6-6.6-8.01-15.86-3.17-20.71c1.22-1.22,2.71-2.04,4.37-2.48
			c-0.41,1.36-0.87,2.77-1.38,4.24C769.47,237.22,772.03,245.4,773.74,253.76z"/>
		<g>
			<path class="st8" d="M756.42,327.21c-28.98-19.76-23.22-45.89-23.22-45.89c-79.19-11.87-65.81-49.83-42.87-47.38
				c-51.51-27.96-39.64-37.56-24.29-30.78c0.58,0.26,1.12-0.43,0.71-0.93c-16.16-19.76-8.24-26.16-1.28-20.98
				c2.99,2.22,5.81,6.58,6.45,12.94c9.19-4.67,16.9-5.81,22.02-3.51c7.15,3.23,9.24,13.21,3.23,29.76c1.54-0.41,3.04-0.7,4.51-0.89
				c13.75-1.79,24.1,5.53,28.42,15.39c3.48,7.94,3.05,17.51-2.67,25.31c22.27,4.65,23.61,16.6,15.01,21.06
				C760.1,291.65,760.03,315.42,756.42,327.21z"/>
			<path class="st4" d="M730.1,234.95c-3.47,1.04-7.51,1.26-11.67,0.46c-9.73-1.88-16.75-8.72-16.76-15.84
				C715.43,217.77,725.78,225.1,730.1,234.95z"/>
			<path class="st4" d="M693.95,190.69c-1.36,5.52-7.93,9.69-15.82,9.69c-8.89,0-16.1-5.29-16.1-11.82c0-2.76,1.29-5.3,3.45-7.3
				c2.99,2.22,5.81,6.58,6.45,12.94C681.12,189.53,688.83,188.38,693.95,190.69z"/>
			<g>
				<path class="st7" d="M766.22,390.33c-0.69,0-1.3-0.51-1.4-1.21l-0.59-4.09c-12.26-85.34-12.26-85.34-57.52-141.93
					c-9.14-11.43-20.52-25.65-34.13-43.27c-0.48-0.62-0.36-1.51,0.25-1.99c0.62-0.48,1.51-0.36,1.99,0.25
					c13.6,17.6,24.96,31.81,34.1,43.23c45.74,57.19,45.74,57.19,58.11,143.3l0.59,4.09c0.11,0.77-0.43,1.49-1.2,1.6
					C766.35,390.32,766.28,390.33,766.22,390.33z"/>
			</g>
		</g>
		<g>
			<path class="st7" d="M777.47,390.61c-0.74,0-1.36-0.57-1.41-1.32c-0.06-0.9-6.43-90.91-21.22-203.05
				c-0.1-0.77,0.44-1.49,1.22-1.59c0.78-0.1,1.49,0.44,1.59,1.22c14.8,112.23,21.17,202.32,21.24,203.22
				c0.05,0.78-0.53,1.46-1.31,1.51C777.53,390.61,777.5,390.61,777.47,390.61z"/>
		</g>
		<g>
			
				<ellipse transform="matrix(0.991 -0.1339 0.1339 0.991 -12.5854 128.7485)" class="st6" cx="951.14" cy="157.96" rx="12.09" ry="10.33"/>
			<path class="st6" d="M928.36,224.53c-15.35,3.17-30-4.74-32.78-17.83c-2.77-13.09,7.41-26.34,22.74-29.58s30.7,6.87,33.6,19.93
				C955.55,213.38,947.28,220.62,928.36,224.53z"/>
			<path class="st7" d="M975.25,175.44c-3.48-26.35-22.24-21.01-24.39-8.63c-20.1-7.74-41.22,22.57-6.16,50.49
				c-58.56-11.71-53.25,52.75-18.3,59.49c-19.36,7.45-19.71,35.51,16.24,37.95C978.61,317.19,975.25,175.44,975.25,175.44z"/>
			<g>
				<path class="st6" d="M967.75,188.47c-0.51,0-0.97-0.34-1.11-0.86c-0.05-0.17-4.65-17.28-18.21-21.8
					c-0.6-0.2-0.92-0.85-0.72-1.45c0.2-0.6,0.85-0.92,1.45-0.72c6.13,2.04,11.48,6.74,15.48,13.6c2.99,5.13,4.17,9.61,4.22,9.8
					c0.16,0.61-0.21,1.23-0.82,1.39C967.94,188.46,967.84,188.47,967.75,188.47z"/>
			</g>
			<g>
				<path class="st6" d="M960.83,230.96c-0.28,0-0.57-0.1-0.79-0.31c-0.12-0.12-12.58-11.83-22.93-14.85
					c-0.61-0.18-0.95-0.81-0.78-1.42c0.18-0.61,0.81-0.95,1.42-0.78c10.88,3.18,23.34,14.89,23.86,15.39
					c0.46,0.43,0.48,1.16,0.04,1.62C961.43,230.84,961.13,230.96,960.83,230.96z"/>
			</g>
			<g>
				<path class="st6" d="M952.76,279.52c-0.19,0-0.38-0.05-0.56-0.15c-0.13-0.07-12.86-7.05-25.34-1.54
					c-0.58,0.25-1.25-0.01-1.51-0.58c-0.26-0.58,0.01-1.25,0.58-1.51c13.55-5.98,26.82,1.32,27.38,1.64
					c0.55,0.31,0.75,1.01,0.44,1.56C953.55,279.31,953.16,279.52,952.76,279.52z"/>
			</g>
			<g>
				<g>
					
						<ellipse transform="matrix(0.9892 -0.1464 0.1464 0.9892 -26.7145 136.8794)" class="st9" cx="916.55" cy="249.93" rx="7.91" ry="10.04"/>
					
						<ellipse transform="matrix(0.9623 -0.2719 0.2719 0.9623 -26.2614 260.3211)" class="st9" cx="926.11" cy="224.91" rx="7.36" ry="3.81"/>
					
						<ellipse transform="matrix(0.9339 -0.3576 0.3576 0.9339 -1.6829 348.5213)" class="st9" cx="941.44" cy="178.81" rx="9.12" ry="6.31"/>
					
						<ellipse transform="matrix(0.7071 -0.7071 0.7071 0.7071 132.5157 724.6577)" class="st9" cx="941" cy="202.37" rx="3.63" ry="5.24"/>
					
						<ellipse transform="matrix(0.1716 -0.9852 0.9852 0.1716 539.2206 1117.3544)" class="st9" cx="934" cy="238.05" rx="3.66" ry="4.28"/>
					
						<ellipse transform="matrix(0.862 -0.507 0.507 0.862 -18.1724 510.4784)" class="st9" cx="928.29" cy="288.61" rx="8.25" ry="7.05"/>
				</g>
				
					<ellipse transform="matrix(0.5062 -0.8624 0.8624 0.5062 278.5373 882.0182)" class="st12" cx="909.45" cy="197.79" rx="12.19" ry="7.78"/>
				
					<ellipse transform="matrix(0.9006 -0.4347 0.4347 0.9006 1.0983 421.5694)" class="st7" cx="922.02" cy="208.38" rx="4.44" ry="3.26"/>
			</g>
			
				<ellipse transform="matrix(0.548 -0.8365 0.8365 0.548 269.7515 885.7297)" class="st5" cx="954.4" cy="193.28" rx="3.31" ry="4.51"/>
			
				<ellipse transform="matrix(0.9125 -0.4092 0.4092 0.9125 -23.7154 406.1449)" class="st5" cx="937.3" cy="258.5" rx="9.03" ry="6.63"/>
		</g>
		<g>
			<path class="st9" d="M699.06,351.07c11.36,0.17,16.2,6.23,16.2,6.23l-12.31,21.52l-11.82-1.98L699.06,351.07z"/>
			<path class="st7" d="M724.36,323.47c0,0-0.27,0.29-0.78,0.86c-0.01,0-0.01,0-0.01,0.01c-1.59,1.79-5.46,6.29-10.29,13.16
				c-1.5,2.13-3.1,4.51-4.75,7.1l-0.01,0.02c-4.99,7.83-11.52,21.95-16.38,33.5l-8.01-1.85c0,0,4.75-14.51,11.76-37.29
				c0.62-1.99,1.25-4.07,1.91-6.24c1.62-5.35,3.37-11.23,5.24-17.61C703.03,315.14,722.22,313.16,724.36,323.47z"/>
			<path class="st9" d="M724.36,323.47c-0.24,0.33-0.5,0.62-0.78,0.86c-0.01,0-0.01,0-0.01,0.01c-4.79,4.04-15.58-4.63-20.54-9.2
				C703.03,315.14,722.22,313.16,724.36,323.47z"/>
			<path class="st6" d="M713.28,337.5c-1.5,2.13-3.1,4.51-4.75,7.1l-0.01,0.02c0,0-5.97,1.11-12.63-5.63
				c0.62-1.99,1.25-4.07,1.91-6.24C700.53,334.96,705.51,337.69,713.28,337.5z"/>
			<path class="st6" d="M667.68,378.79l-7.5-0.18c0,0-1.61-15.61-15.13-29.46l-0.01,0c-1.61-1.66-3.4-3.29-5.37-4.86
				c0,0-1.98-4.99,10.95-13.1c0,0,2.75,3.25,6.05,9.18C661.22,348.54,666.81,361.83,667.68,378.79z"/>
			<path class="st7" d="M656.67,340.36c-3.52,5.47-11.62,8.79-11.62,8.79l-0.01,0c-1.61-1.66-3.4-3.29-5.37-4.86
				c0,0-1.98-4.99,10.95-13.1C650.63,331.19,653.37,334.43,656.67,340.36z"/>
			<path class="st6" d="M741.49,360.04c-5.75,1.36-10.56,2.92-14.59,4.55c-3.23,1.3-5.95,2.64-8.24,3.96
				c-9.22,5.29-11.46,10.14-11.46,10.14l-10.24,3.12c4.06-10.04,9.07-17.66,13.87-23.34c2.42-2.87,4.78-5.23,6.95-7.16
				c5.89-5.26,10.31-7.29,10.31-7.29C742.26,351.95,741.49,360.04,741.49,360.04z"/>
			<path class="st6" d="M717.21,301.64c-0.2,0.24-0.41,0.47-0.61,0.72c-4.94,5.74-9.24,11.8-12.95,17.91
				c-2.11,3.46-4.03,6.93-5.79,10.36c-13.03,25.48-16.77,48.86-16.77,48.86l-7.74-1.31c4.58-20.44,8.08-39.17,10.57-53.72
				c0.8-4.66,1.49-8.89,2.09-12.61l0-0.01c1.76-11.06,2.61-17.64,2.61-17.64C704.92,290.84,717.21,301.64,717.21,301.64z"/>
			<path class="st7" d="M677.43,331.42c0.93,13.4,0.72,29.28-2.02,46.7l-10.62-1.26c0,0,0-21.3-6.84-44.84
				c-0.86-2.98-1.84-5.99-2.94-9c-2.06-5.65-4.56-11.29-7.58-16.66c0,0-4.25-6.48,21.95-18.02c0,0,4.42,11.9,6.91,31.41
				C676.75,323.37,677.15,327.28,677.43,331.42z"/>
			<path class="st9" d="M716.59,302.36c-3.95,1.02-22.88-0.76-27.99-8.16c16.31-3.36,28.6,7.44,28.6,7.44
				C717.49,301.95,717.24,302.19,716.59,302.36z"/>
			<path class="st9" d="M741.49,360.04c0,0-9.43-3.25-13.4-16.02C742.26,351.95,741.49,360.04,741.49,360.04z"/>
			<path class="st6" d="M669.71,288.23c6.34,18.8,9.93,38.68,9.52,58.56c0,0-2.59-0.08-2.59-0.08c-0.02-2.4-0.1-4.87-0.22-7.31
				c-0.35-7.35-1.01-14.68-1.93-21.98c-1.23-9.77-3.13-19.42-5.44-28.99C669.04,288.42,669.71,288.23,669.71,288.23L669.71,288.23z"
				/>
			<path class="st9" d="M669.38,288.32c-0.2,9.99-17.37,22.7-21.95,18.02C647.43,306.35,643.18,299.86,669.38,288.32z"/>
			<path class="st9" d="M703.64,320.26l0,0.02c-2.11,3.46-4.03,6.93-5.79,10.36c-6.28-1.06-11-3.88-13.94-6.17
				c0.8-4.66,1.49-8.89,2.09-12.61C693.17,319.21,703.64,320.26,703.64,320.26z"/>
			<path class="st9" d="M726.97,364.15l-0.06,0.43c-3.23,1.3-5.95,2.64-8.24,3.96c-3.68-2.37-6.24-6.61-7.83-10.07
				c2.42-2.87,4.78-5.23,6.95-7.16C720.17,360.69,726.97,364.15,726.97,364.15z"/>
			<path class="st6" d="M677.43,331.42c0,0-11.08,3.92-19.49,0.6c-0.86-2.98-1.84-5.99-2.94-9c6.66,4.16,21.28-3.28,21.28-3.28
				C676.75,323.37,677.15,327.28,677.43,331.42z"/>
			<g>
				<path class="st5" d="M696.3,350.81l-5.3,12.63l-3.79,9.01l-1.6,3.82l-10.7-1.18c-0.06-1.99-0.18-4.2-0.34-6.51
					c-0.23-3.35-0.55-6.92-0.88-10.3c-0.82-8.37-1.75-15.58-1.75-15.58C686.18,342.25,696.3,350.81,696.3,350.81z"/>
				<path class="st6" d="M696.3,350.81c0,0-15.04-1.03-24.36-8.11C686.18,342.25,696.3,350.81,696.3,350.81z"/>
				<path class="st8" d="M691,363.44l-3.79,9.01c-4.83,0.03-9.34-1.91-12.64-3.88c-0.23-3.35-0.55-6.92-0.88-10.3
					C680.13,362.77,686.62,363.58,691,363.44z"/>
			</g>
			<path class="st9" d="M724.19,323.72c-11.08,14.51-20.22,30.39-27.94,46.91c0,0-0.72-0.26-0.72-0.26
				c4.2-13.19,11.06-25.43,19.22-36.56c2.71-3.73,5.73-7.22,8.86-10.59L724.19,323.72L724.19,323.72z"/>
		</g>
		<g>
			<g>
				<path class="st6" d="M834.8,224.89c1.38,22.33,2.59,44.96,8.66,66.57c1.01,3.17,2.14,6.5,3.62,9.49
					c2.11,4.52,5.12,8.65,8.87,11.97c2.49,2.26,5.3,4.34,7.91,6.81c5.29,4.87,8.95,11.3,11.58,17.9
					c5.06,13.15,7.25,27.05,9.27,40.88c0,0-3.31,0.44-3.31,0.44l-0.74-5.12c-0.73-5.1-1.59-10.24-2.67-15.27
					c-2.85-13.09-6.31-27.03-16.31-36.53c-2.42-2.32-5.19-4.38-7.84-6.79c-2.65-2.39-5.05-5.17-6.98-8.22l-1.38-2.32
					c-0.37-0.77-1.43-2.83-1.78-3.61c-0.35-0.85-1.15-2.85-1.51-3.71c-1.07-2.93-2.27-7.07-3.06-10.12
					c-4.77-20.4-6.04-41.39-7.2-62.21C831.95,225.03,834.8,224.89,834.8,224.89L834.8,224.89z"/>
				<g>
					<path class="st6" d="M839.87,282.36l-1.13-2.63c12.43-5.33,12.42-11.33,8.54-56.72c-0.41-4.8-0.86-10.02-1.32-15.72l2.85-0.23
						c0.47,5.69,0.91,10.91,1.32,15.71C853.9,266.84,854.68,276.01,839.87,282.36z"/>
				</g>
				<g>
					<path class="st6" d="M834.39,247.89c-11.15-0.42-16.46-8.83-19.57-31.05l2.83-0.4c3.64,25.93,10.32,28.34,16.85,28.59
						L834.39,247.89z"/>
				</g>
				<g>
					<path class="st6" d="M851.03,254.42l-0.2-2.85c11.11-0.79,10.82-7.65,9.86-30.4l-0.11-2.65l2.86-0.12l0.11,2.65
						C864.52,243.95,864.92,253.43,851.03,254.42z"/>
				</g>
				<g>
					<path class="st6" d="M880,286.91c-8.35-3.77-13.43-7.6-12.89-37.47l2.86,0.05c-0.53,29.51,4.65,31.85,11.21,34.82L880,286.91z"
						/>
				</g>
				<g>
					<path class="st6" d="M862.05,319.03l-2.85-0.2l1.41-20.39l1-0.26c0.71-0.18,1.42-0.36,2.12-0.53
						c5.31-1.3,10.32-2.52,13.41-7.33c3.6-5.61,4.23-15.65,1.91-30.71l2.83-0.44c2.46,15.99,1.72,26.38-2.33,32.69
						c-3.7,5.76-9.51,7.18-15.13,8.56c-0.36,0.09-0.73,0.18-1.09,0.27L862.05,319.03z"/>
				</g>
				<g>
					<path class="st6" d="M842.33,295.08c-15.45-2.34-18.77-12.79-21.69-22.01c-3.21-10.14-5.75-18.15-22.31-16.03l-0.36-2.84
						c18.92-2.43,22.22,7.96,25.4,18c2.8,8.84,5.7,17.97,19.39,20.05L842.33,295.08z"/>
				</g>
				<g>
					
						<rect x="808.39" y="235.5" transform="matrix(0.9783 -0.2072 0.2072 0.9783 -33.5139 173.1039)" class="st6" width="2.86" height="22.17"/>
				</g>
				<g>
					<path class="st6" d="M871.55,335.44c-24.42,0-28.16-6.43-39.09-25.24c-1.53-2.62-3.25-5.6-5.19-8.8l2.45-1.48
						c1.95,3.23,3.68,6.21,5.21,8.84c10.68,18.37,13.9,23.93,37.19,23.81l0.01,2.86C871.94,335.44,871.74,335.44,871.55,335.44z"/>
				</g>
				<path class="st6" d="M877.15,349.16c17.71-8.05,18.35-26.49,19.48-43.54c0,0,0.98-17.4,0.98-17.4l2.85,0.17
					c-0.63,10.4-0.86,24.71-2.46,34.91c-1.29,8.87-4.57,18.08-11.77,23.9c-2.34,1.98-4.94,3.59-7.64,4.92L877.15,349.16
					L877.15,349.16z"/>
				<g>
					<path class="st6" d="M895.34,327.33l-0.6-0.28c-7.77-3.63-12.09-6.74-10.42-28.34l2.85,0.22c-1.59,20.67,2.31,22.5,8.79,25.53
						l0.61,0.28L895.34,327.33z"/>
				</g>
				<path class="st6" d="M870.52,377.83c-1.92-11.08-13.07-16.09-22.49-20.03c-10.32-4.28-20.9-8.38-29.66-15.7
					c-5.9-4.8-10.58-11.05-13.81-17.92c0,0,2.59-1.21,2.59-1.21c6.36,13.71,18.25,21.92,31.91,27.59c8.49,3.75,17.67,6.48,25.32,12
					c2.8,2.03,5.24,4.6,7.01,7.58c0.18,0.36,0.85,1.64,1.03,2.01c0.42,1.07,0.97,2.41,1.21,3.55c0,0,0.36,1.45,0.36,1.45
					L870.52,377.83L870.52,377.83z"/>
				<g>
					<path class="st6" d="M824.94,345.2l-2.24-1.78c7.56-9.5,4.89-13.72-18.32-43.89l-0.34-0.44l2.27-1.74l0.34,0.44
						C829.44,327.41,834.19,333.58,824.94,345.2z"/>
				</g>
				<path class="st6" d="M857.15,360.26c-9.56,16.06-22.59,10.75-35.23,1.98c-3.59-2.44-7.05-5-10.56-7.42l1.61-2.36
					c3.59,2.42,7.07,4.94,10.62,7.29c11.14,7.36,22.42,13.13,30.59-1.23C854.19,358.52,857.15,360.26,857.15,360.26L857.15,360.26z"
					/>
			</g>
			<g>
				
					<ellipse transform="matrix(0.9182 -0.3961 0.3961 0.9182 -51.9579 345.7722)" class="st4" cx="811.31" cy="298.7" rx="15.73" ry="3.21"/>
				
					<ellipse transform="matrix(0.9505 -0.3107 0.3107 0.9505 -59.8148 268.9127)" class="st4" cx="814.28" cy="322.23" rx="18.3" ry="3.73"/>
				
					<ellipse transform="matrix(0.9554 -0.2954 0.2954 0.9554 -63.6849 255.0276)" class="st8" cx="812.24" cy="338.3" rx="12.86" ry="2.62"/>
				
					<ellipse transform="matrix(0.9236 -0.3833 0.3833 0.9236 -74.1142 339.128)" class="st4" cx="813.9" cy="355.54" rx="9.79" ry="3.28"/>
				
					<ellipse transform="matrix(0.9988 -0.0498 0.0498 0.9988 -11.8415 44.7267)" class="st4" cx="891.02" cy="259.83" rx="16.67" ry="3.4"/>
				
					<ellipse transform="matrix(0.9988 -0.0498 0.0498 0.9988 -11.3332 43.8551)" class="st8" cx="873.79" cy="249.2" rx="9.36" ry="3.19"/>
				
					<ellipse transform="matrix(0.9988 -0.0498 0.0498 0.9988 -9.7889 43.5862)" class="st4" cx="869.17" cy="218.1" rx="12.82" ry="2.61"/>
				
					<ellipse transform="matrix(0.9988 -0.0498 0.0498 0.9988 -9.2841 42.3583)" class="st8" cx="844.8" cy="207.36" rx="13.15" ry="2.68"/>
				
					<ellipse transform="matrix(0.9917 -0.1282 0.1282 0.9917 -21.1331 106.4545)" class="st4" cx="816.39" cy="217.39" rx="12.14" ry="2.47"/>
				
					<ellipse transform="matrix(0.9988 -0.0498 0.0498 0.9988 -10.2462 42.0186)" class="st4" cx="837.51" cy="226.48" rx="10.89" ry="3.68"/>
				
					<ellipse transform="matrix(0.9841 -0.1778 0.1778 0.9841 -29.312 146.7578)" class="st8" cx="803.98" cy="236.88" rx="13.05" ry="2.66"/>
				
					<ellipse transform="matrix(0.3061 -0.952 0.952 0.3061 310.8132 938.5764)" class="st4" cx="799.21" cy="256.09" rx="9.94" ry="2.73"/>
				
					<ellipse transform="matrix(0.9698 -0.2438 0.2438 0.9698 -39.7022 208.752)" class="st4" cx="823.54" cy="264.78" rx="11.98" ry="3.96"/>
				
					<ellipse transform="matrix(0.0595 -0.9982 0.9982 0.0595 539.8521 1103.4724)" class="st8" cx="855.52" cy="265.25" rx="3.61" ry="11.13"/>
				
					<ellipse transform="matrix(0.9515 -0.3077 0.3077 0.9515 -53.2844 275.1911)" class="st8" cx="845.95" cy="306.55" rx="14.58" ry="2.97"/>
				
					<ellipse transform="matrix(0.9509 -0.3095 0.3095 0.9509 -52.4766 271.5266)" class="st4" cx="829.39" cy="301.13" rx="9.33" ry="2.97"/>
				
					<ellipse transform="matrix(0.8869 -0.462 0.462 0.8869 -65.1995 431.7972)" class="st8" cx="849.12" cy="349.03" rx="14.16" ry="4.56"/>
				
					<ellipse transform="matrix(0.9391 -0.3438 0.3438 0.9391 -57.1609 318.6304)" class="st4" cx="870.05" cy="320.52" rx="16" ry="3.26"/>
				
					<ellipse transform="matrix(0.9988 -0.0498 0.0498 0.9988 -13.154 45.5769)" class="st4" cx="907.41" cy="286.58" rx="16.42" ry="3.35"/>
				
					<ellipse transform="matrix(0.0937 -0.9956 0.9956 0.0937 507.9914 1157.5371)" class="st8" cx="889.82" cy="299.74" rx="3.12" ry="10.54"/>
			</g>
		</g>
		<path class="st10" d="M706.02,103.6c-4.65-0.08-9.16-0.17-13.48-0.26c0.76-3,3.48-5.21,6.71-5.21
			C702.57,98.13,705.36,100.47,706.02,103.6z"/>
	</g>
	<g>
		<g>
			<path class="st13" d="M1019.39,368.05h-25.02v-2.92h25.02c3.67,0,6.66-2.99,6.66-6.66v-3c0-3.67-2.99-6.66-6.66-6.66h-25.02
				v-2.92h25.02c5.28,0,9.58,4.3,9.58,9.58v3C1028.97,363.75,1024.67,368.05,1019.39,368.05z"/>
		</g>
		<g>
			<path class="st15" d="M1002.82,391.98h-8.45v-3.57h8.45c3.5,0,6.34-2.84,6.34-6.34v-16.8c0-3.5-2.84-6.34-6.34-6.34h-8.45v-3.57
				h8.45c5.46,0,9.91,4.44,9.91,9.91v16.8C1012.72,387.54,1008.28,391.98,1002.82,391.98z"/>
		</g>
		<g>
			<path class="st13" d="M1034.23,261.21h-56.27v-3.6h56.27c7.63,0,13.84-6.21,13.84-13.84v-16.1c0-7.63-6.21-13.84-13.84-13.84
				h-46.97v-3.6h46.97c9.62,0,17.44,7.83,17.44,17.44v16.1C1051.68,253.38,1043.85,261.21,1034.23,261.21z"/>
		</g>
		<g>
			<path class="st15" d="M1000.82,316.26l-1.73-3.57l25.63-12.4c3.46-1.67,5.69-5.23,5.69-9.08v-47.14
				c0-5.56-4.52-10.08-10.08-10.08h-29.17v-3.96h29.17c7.74,0,14.04,6.3,14.04,14.04v47.14c0,5.35-3.11,10.31-7.93,12.64
				L1000.82,316.26z"/>
		</g>
	</g>
	<path class="st23" d="M997.55,187.21v49.44C997.55,236.65,1018.71,211.45,997.55,187.21z"/>
	<g>
		<circle class="st19" cx="659.14" cy="428.13" r="12.98"/>
		<circle class="st19" cx="954.33" cy="428.13" r="12.98"/>
	</g>
	<path class="st24" d="M998.53,153.67v244.25c0,20.76-8.17,33-34.49,33H649.61c-31.89,0-31.52-15.58-31.52-37.82
		c0-11.87,19.1-29.35,114.79-12.19c2.73,0.49,5.45,0.96,8.17,1.39c0,0,0,0,0.01,0c4,0.65,8,1.24,11.98,1.76
		c53.91,7.15,105.04,3.01,141.73-24.04c-2.75-2.29-5.16-5.04-7.08-8.25c-9.74-16.29-3.43-37.99,14.09-48.45
		c11.43-6.83,24.81-7.19,35.43-2.1c17.91-48.05,17.67-106.63,33.49-136.66C979.06,148.68,998.53,147.45,998.53,153.67z"/>
	<circle class="st17" cx="643.96" cy="414.67" r="4.39"/>
	<g>
		<g>
			
				<ellipse transform="matrix(0.7987 -0.6017 0.6017 0.7987 72.883 629.8295)" class="st25" cx="977.75" cy="205.99" rx="8.67" ry="8.07"/>
			<g>
				<path class="st24" d="M975.31,216.19c-0.14,0-0.27-0.02-0.41-0.06c-0.81-0.23-1.28-1.07-1.05-1.88l4.88-17.36
					c0.23-0.81,1.07-1.28,1.88-1.05c0.81,0.23,1.28,1.07,1.05,1.88l-4.88,17.36C976.59,215.75,975.98,216.19,975.31,216.19z"/>
			</g>
		</g>
		<g>
			
				<ellipse transform="matrix(0.9797 -0.2004 0.2004 0.9797 -26.4309 200.5499)" class="st23" cx="977.4" cy="230.83" rx="5.78" ry="5.37"/>
			
				<ellipse transform="matrix(0.9797 -0.2004 0.2004 0.9797 -30.2585 200.9373)" class="st19" cx="977.4" cy="249.93" rx="4.3" ry="4"/>
			
				<ellipse transform="matrix(0.9797 -0.2004 0.2004 0.9797 -32.5358 201.1679)" class="st19" cx="977.4" cy="261.29" rx="4.3" ry="4"/>
			
				<ellipse transform="matrix(0.9797 -0.2004 0.2004 0.9797 -37.0866 201.6285)" class="st19" cx="977.4" cy="284" rx="5.34" ry="4.97"/>
			<g>
				<path class="st23" d="M977.09,294.93c-2.18,0-4.29-0.58-6.14-1.71c-2.58-1.58-4.33-4.02-4.92-6.89
					c-0.59-2.87,0.06-5.81,1.82-8.27c1.74-2.43,4.35-4.11,7.37-4.73c6.27-1.28,12.35,2.46,13.55,8.35c1.2,5.89-2.92,11.72-9.19,13
					C978.75,294.85,977.92,294.93,977.09,294.93z M977.69,275.94c-0.63,0-1.26,0.06-1.9,0.19c-2.31,0.47-4.3,1.75-5.62,3.59
					c-1.29,1.81-1.77,3.95-1.34,6.04c0.43,2.08,1.71,3.87,3.6,5.02c1.93,1.18,4.27,1.57,6.57,1.09c4.72-0.97,7.85-5.28,6.96-9.62
					C985.2,278.5,981.68,275.94,977.69,275.94z"/>
			</g>
		</g>
	</g>
	<path class="st26" d="M946.3,342.8c6.78,30.47,35.42-0.57,52.23,18.53l0,12.79c-36.18,12.06-60.7-9.39-62.27-19.24L946.3,342.8z"/>
	<path class="st13" d="M998.52,292.93l5.64,3.78c1.74,1.17,2.79,3.13,2.79,5.23v20.3c0,1.73-0.71,3.39-1.97,4.58l-6.45,6.09V292.93z
		"/>
	<path class="st26" d="M737.21,430.92h-28.22c0,0-0.16-36.42,35.44-48.62c0,0,0,0,0.01,0c4,0.65,8,1.24,11.98,1.76
		C759.31,407.45,727.4,398.41,737.21,430.92z"/>
	<g>
		<circle class="st19" cx="947.16" cy="386.18" r="3.34"/>
		<circle class="st19" cx="959.01" cy="386.18" r="3.34"/>
		<circle class="st19" cx="970.87" cy="386.18" r="3.34"/>
		<circle class="st19" cx="959.01" cy="367.03" r="3.34"/>
		<circle class="st19" cx="970.87" cy="367.03" r="3.34"/>
		<circle class="st19" cx="982.72" cy="386.18" r="3.34"/>
		<circle class="st19" cx="953.08" cy="376.61" r="3.34"/>
		<circle class="st19" cx="964.94" cy="376.61" r="3.34"/>
		<circle class="st19" cx="964.94" cy="357.8" r="3.34"/>
		<circle class="st19" cx="976.79" cy="376.61" r="3.34"/>
	</g>
	<g>
		
			<ellipse transform="matrix(0.9765 -0.2154 0.2154 0.9765 -50.2563 206.4516)" class="st11" cx="921.89" cy="333.76" rx="28.08" ry="26.11"/>
		<g>
			<path class="st23" d="M920.99,362.81c-14,0-26.44-9.02-29.38-22.37c-3.44-15.59,7.35-31.26,24.04-34.95
				c16.7-3.68,33.07,6,36.51,21.59c1.67,7.57,0.08,15.38-4.49,21.99c-4.54,6.57-11.48,11.18-19.55,12.96l0,0
				C925.73,362.55,923.34,362.81,920.99,362.81z M927.78,360.49L927.78,360.49L927.78,360.49z M922.78,307.85
				c-2.12,0-4.29,0.23-6.46,0.71c-15,3.31-24.71,17.3-21.64,31.2c3.06,13.89,17.76,22.5,32.76,19.19
				c7.29-1.61,13.55-5.75,17.64-11.67c4.06-5.88,5.49-12.82,4.01-19.52C946.47,315.87,935.33,307.85,922.78,307.85z"/>
		</g>
		<g>
			<path class="st27" d="M921.57,344.11c-2,0-3.95-0.52-5.67-1.53c-2.47-1.45-4.16-3.75-4.76-6.46c-0.6-2.71-0.03-5.5,1.6-7.86
				c1.61-2.33,4.07-3.96,6.92-4.59c2.85-0.63,5.77-0.18,8.21,1.25c2.47,1.45,4.16,3.75,4.76,6.46c0.6,2.71,0.03,5.5-1.6,7.86
				c-1.61,2.33-4.07,3.96-6.92,4.59l0,0C923.26,344.02,922.41,344.11,921.57,344.11z M922.2,326c-0.65,0-1.32,0.07-1.98,0.22
				c-2.21,0.49-4.1,1.74-5.34,3.53c-1.21,1.76-1.64,3.83-1.2,5.82c0.44,2,1.7,3.69,3.54,4.78c1.87,1.1,4.12,1.44,6.33,0.95l0,0
				c2.21-0.49,4.1-1.74,5.34-3.53c1.21-1.76,1.64-3.83,1.2-5.82c-0.44-2-1.7-3.69-3.54-4.78C925.24,326.4,923.74,326,922.2,326z"/>
		</g>
		
			<ellipse transform="matrix(0.9765 -0.2154 0.2154 0.9765 -50.2563 206.4516)" class="st23" cx="921.89" cy="333.76" rx="4.66" ry="4.33"/>
		<g>
			
				<ellipse transform="matrix(0.9765 -0.2154 0.2154 0.9765 -49.9041 210.9123)" class="st13" cx="942.52" cy="334.37" rx="2.62" ry="2.43"/>
			
				<ellipse transform="matrix(0.9765 -0.2154 0.2154 0.9765 -47.0576 209.608)" class="st13" cx="937.96" cy="320.66" rx="2.62" ry="2.43"/>
			
				<ellipse transform="matrix(0.9765 -0.2154 0.2154 0.9765 -45.8228 206.6679)" class="st13" cx="925.09" cy="313.53" rx="2.62" ry="2.43"/>
			
				<ellipse transform="matrix(0.9765 -0.2154 0.2154 0.9765 -47.0081 203.5056)" class="st13" cx="910" cy="317.38" rx="2.62" ry="2.43"/>
			
				<ellipse transform="matrix(0.9765 -0.2154 0.2154 0.9765 -49.6553 202.0709)" class="st13" cx="902.09" cy="328.81" rx="2.62" ry="2.43"/>
			
				<ellipse transform="matrix(0.9765 -0.2154 0.2154 0.9765 -52.503 202.6937)" class="st13" cx="903.52" cy="342.18" rx="2.62" ry="2.43"/>
			
				<ellipse transform="matrix(0.9765 -0.2154 0.2154 0.9765 -54.2405 204.8849)" class="st13" cx="912.71" cy="351.25" rx="2.62" ry="2.43"/>
		</g>
		<g>
			<path class="st23" d="M921.88,335.19c-0.66,0-1.25-0.45-1.4-1.12l-4.43-19.91c-0.17-0.77,0.31-1.54,1.09-1.71
				c0.77-0.17,1.54,0.31,1.71,1.09l4.43,19.91c0.17,0.77-0.31,1.54-1.09,1.71C922.09,335.18,921.99,335.19,921.88,335.19z"/>
		</g>
	</g>
	<g>
		<defs>
			<path id="SVGID_00000070109096988372746070000009336376201781357498_" d="M618.09,393.1c0,22.25-0.37,37.82,31.52,37.82
				c31.89,0,288.11,0,314.43,0s34.48-12.24,34.48-33s0-238.02,0-244.25s-19.46-4.99-27.83,10.89
				c-19.86,37.7-14.41,120.41-51.34,170.77c-39.5,53.86-111.73,58.98-186.47,45.58C637.19,363.74,618.09,381.23,618.09,393.1z"/>
		</defs>
		<clipPath id="SVGID_00000023280564319310520930000011437756630899746199_">
			<use xlink:href="#SVGID_00000070109096988372746070000009336376201781357498_"  style="overflow:visible;"/>
		</clipPath>
		<g style="clip-path:url(#SVGID_00000023280564319310520930000011437756630899746199_);">
			<g>
				<path class="st23" d="M614.72,408.77c-0.29,0-0.58-0.09-0.83-0.26c-0.64-0.46-0.79-1.35-0.34-2l1.03-1.44
					c2.62-3.68,6.88-5.88,11.4-5.88h376.27c0.79,0,1.43,0.64,1.43,1.43c0,0.79-0.64,1.43-1.43,1.43H625.98
					c-3.59,0-6.98,1.75-9.07,4.68l-1.03,1.44C615.61,408.56,615.17,408.77,614.72,408.77z"/>
			</g>
			<g>
				<g>
					<path class="st23" d="M857.59,433.62c-0.24,0-0.49-0.06-0.72-0.18c-0.77-0.4-1.07-1.35-0.67-2.12l16.26-31.33
						c0.4-0.77,1.35-1.07,2.12-0.67c0.77,0.4,1.07,1.35,0.67,2.12l-16.26,31.33C858.7,433.31,858.16,433.62,857.59,433.62z"/>
				</g>
				<g>
					<path class="st23" d="M873.85,433.62c-0.24,0-0.49-0.06-0.72-0.18c-0.77-0.4-1.07-1.35-0.67-2.12l16.26-31.33
						c0.4-0.77,1.35-1.07,2.12-0.67c0.77,0.4,1.07,1.35,0.67,2.12l-16.26,31.33C874.96,433.31,874.41,433.62,873.85,433.62z"/>
				</g>
				<g>
					<path class="st23" d="M890.1,433.62c-0.24,0-0.49-0.06-0.72-0.18c-0.77-0.4-1.07-1.35-0.67-2.12l16.26-31.33
						c0.4-0.77,1.35-1.07,2.12-0.67c0.77,0.4,1.07,1.35,0.67,2.12l-16.26,31.33C891.22,433.31,890.67,433.62,890.1,433.62z"/>
				</g>
			</g>
		</g>
		<path style="clip-path:url(#SVGID_00000023280564319310520930000011437756630899746199_);fill:#DE4040;" d="M628.05,440.56
			c109.76-45.07,216.86-3.98,216.86-3.98c92.9-42.54,145,0.48,145,0.48L628.05,440.56z"/>
	</g>
	<path class="st23" d="M998.52,153.67c1.71,40.45,2.21,81.62,2.34,122.12c0.12,40.53-0.25,81.64-2.34,122.12
		c-2.09-40.49-2.46-81.59-2.34-122.12C996.32,235.29,996.82,194.13,998.52,153.67L998.52,153.67z"/>
	<path class="st25" d="M998.52,153.67c-0.58-3.84-6.44-3.08-9.16-2.45c-3.45,0.84-6.67,2.48-9.46,4.6c-2.77,2.12-5.15,4.77-6.9,7.78
		c-1.2,2.1-2.47,4.92-3.42,7.24c-3.01,7.57-5.05,15.5-6.81,23.46c-6.85,31.95-10.04,65.89-20.43,97c-1.15,3.51-2.44,6.98-3.78,10.42
		c-0.29,0.8-1.22,1.17-1.98,0.8c-7.57-3.4-16.29-3.99-24.27-1.78c-25.71,6.62-37.9,39.65-16.61,58.18c0.71,0.58,0.68,1.73-0.07,2.27
		c-9.86,7.34-20.89,13.04-32.41,17.21c-34.71,12.44-72.52,11.99-108.65,7.4c-17.96-2.36-35.93-6.34-53.92-8.41
		c-19.4-2.2-39.21-3.87-58.59-0.79c-4.34,0.72-8.88,1.88-12.91,3.65c-5.35,2.32-10.77,6.59-11.05,12.86
		c-0.17-3.1,1.15-6.1,3.13-8.46c17.34-18.97,73.86-10.91,97.82-7.46c17.85,2.89,35.89,6.16,53.94,7.42
		c41.42,3.17,86.36-0.66,120.93-25.74c0,0-0.07,2.27-0.07,2.27c-10.82-8.53-15.02-23.9-10.77-36.93
		c6.67-22.33,33.71-34.97,54.75-24.28c0,0-1.98,0.8-1.98,0.8c4.77-13.78,8.15-27.99,11.02-42.32c6.07-28.69,8.06-58.61,18.58-86.26
		c1.41-3.44,2.98-6.95,4.99-10.13c3.13-4.87,7.78-8.69,13.16-10.78c3.54-1.36,7.44-2.09,11.19-1.26
		C996.56,150.32,998.69,151.64,998.52,153.67L998.52,153.67z"/>
</g>
<g>
	<defs>
		<path id="SVGID_00000116917876575364397130000014222017776040520373_" d="M1600,24.84v428.52c0,8.31-4.08,15.66-10.34,20.17
			c-2.4,1.73-5.84,0.86-6.95-1.88c-3.92-9.72-16.41-16.83-31.21-16.83c-9.47,0-17.99,2.91-23.93,7.55
			c-1.91,1.49-4.64,1.25-6.24-0.56c-7.66-8.68-21.22-14.45-36.68-14.45c-13.95,0-26.37,4.71-34.28,12.01
			c-1.84,1.7-4.72,1.55-6.42-0.29c-9.32-10.07-25.83-16.76-44.62-16.76c-27.05,0-49.35,13.85-52.36,31.7
			c-0.4,2.39-2.49,4.14-4.91,4.14L24.83,478.2C11.12,478.2,0,467.08,0,453.36V24.84C0,11.12,11.12,0,24.83,0h1550.34
			C1588.88,0,1600,11.12,1600,24.84z"/>
	</defs>
	<clipPath id="SVGID_00000085224631772934049480000001396203204702654885_">
		<use xlink:href="#SVGID_00000116917876575364397130000014222017776040520373_"  style="overflow:visible;"/>
	</clipPath>
	<g style="clip-path:url(#SVGID_00000085224631772934049480000001396203204702654885_);">
		<path class="st31" d="M-2-4v267.42c0,0,98.7-51.53,18.99-158.63c0,0,64.21,7.64,69.42-67.21C115.05,66.01,188.38,57.25,193.84-4
			H-2z"/>
		<path class="st32" d="M1395.71-2c28.9,63.54,128.35,49.09,150.45,16.79c-34,124.95,56.56,135.65,56.56,135.65V-2H1395.71z"/>
		<path class="st32" d="M67.01,446.53c0,0,20.75-83.35-67.93-87.09v137.38h189.67C188.75,496.82,192.63,418.74,67.01,446.53z"/>
		<path class="st31" d="M1576.19,446.45c-57.18-17.73-70.75,36.3-70.75,36.3c-105.97-53.19-147.14,18.63-147.14,18.63h244.96V329.94
			C1526.37,356.12,1549.12,433.79,1576.19,446.45z"/>
	</g>
</g>
<g>
	<defs>
		<ellipse id="SVGID_00000170280773566824680900000009723299703891663502_" cx="1399.46" cy="479.16" rx="33.87" ry="20.84"/>
	</defs>
	<clipPath id="SVGID_00000162334950097055623130000018402931118628023961_">
		<use xlink:href="#SVGID_00000170280773566824680900000009723299703891663502_"  style="overflow:visible;"/>
	</clipPath>
	<g style="clip-path:url(#SVGID_00000162334950097055623130000018402931118628023961_);">
		<path class="st31" d="M-2-4v267.42c0,0,98.7-51.53,18.99-158.63c0,0,64.21,7.64,69.42-67.21C115.05,66.01,188.38,57.25,193.84-4
			H-2z"/>
		<path class="st32" d="M1395.71-2c28.9,63.54,128.35,49.09,150.45,16.79c-34,124.95,56.56,135.65,56.56,135.65V-2H1395.71z"/>
		<path class="st32" d="M67.01,446.53c0,0,20.75-83.35-67.93-87.09v137.38h189.67C188.75,496.82,192.63,418.74,67.01,446.53z"/>
		<path class="st31" d="M1576.19,446.45c-57.18-17.73-70.75,36.3-70.75,36.3c-105.97-53.19-147.14,18.63-147.14,18.63h244.96V329.94
			C1526.37,356.12,1549.12,433.79,1576.19,446.45z"/>
	</g>
</g>
<g>
	<defs>
		<ellipse id="SVGID_00000018234077915383147340000003128133005727738770_" cx="1483.78" cy="478.69" rx="27.94" ry="17.19"/>
	</defs>
	<clipPath id="SVGID_00000021808387339172276710000012356540843142805163_">
		<use xlink:href="#SVGID_00000018234077915383147340000003128133005727738770_"  style="overflow:visible;"/>
	</clipPath>
	<g style="clip-path:url(#SVGID_00000021808387339172276710000012356540843142805163_);">
		<path class="st31" d="M-2-4v267.42c0,0,98.7-51.53,18.99-158.63c0,0,64.21,7.64,69.42-67.21C115.05,66.01,188.38,57.25,193.84-4
			H-2z"/>
		<path class="st32" d="M1395.71-2c28.9,63.54,128.35,49.09,150.45,16.79c-34,124.95,56.56,135.65,56.56,135.65V-2H1395.71z"/>
		<path class="st32" d="M67.01,446.53c0,0,20.75-83.35-67.93-87.09v137.38h189.67C188.75,496.82,192.63,418.74,67.01,446.53z"/>
		<path class="st31" d="M1576.19,446.45c-57.18-17.73-70.75,36.3-70.75,36.3c-105.97-53.19-147.14,18.63-147.14,18.63h244.96V329.94
			C1526.37,356.12,1549.12,433.79,1576.19,446.45z"/>
	</g>
</g>
<g>
	<defs>
		<ellipse id="SVGID_00000078734050554189043290000014453623224921508999_" cx="1552.37" cy="479.04" rx="18.65" ry="11.48"/>
	</defs>
	<clipPath id="SVGID_00000008116684242650486340000010845915228811708828_">
		<use xlink:href="#SVGID_00000078734050554189043290000014453623224921508999_"  style="overflow:visible;"/>
	</clipPath>
	<g style="clip-path:url(#SVGID_00000008116684242650486340000010845915228811708828_);">
		<path class="st31" d="M-2-4v267.42c0,0,98.7-51.53,18.99-158.63c0,0,64.21,7.64,69.42-67.21C115.05,66.01,188.38,57.25,193.84-4
			H-2z"/>
		<path class="st32" d="M1395.71-2c28.9,63.54,128.35,49.09,150.45,16.79c-34,124.95,56.56,135.65,56.56,135.65V-2H1395.71z"/>
		<path class="st32" d="M67.01,446.53c0,0,20.75-83.35-67.93-87.09v137.38h189.67C188.75,496.82,192.63,418.74,67.01,446.53z"/>
		<path class="st31" d="M1576.19,446.45c-57.18-17.73-70.75,36.3-70.75,36.3c-105.97-53.19-147.14,18.63-147.14,18.63h244.96V329.94
			C1526.37,356.12,1549.12,433.79,1576.19,446.45z"/>
	</g>
</g>
</svg>
