<?xml version="1.0" encoding="utf-8"?>
<!-- Generator: Adobe Illustrator 27.1.1, SVG Export Plug-In . SVG Version: 6.00 Build 0)  -->
<svg version="1.1" id="Layer_1" xmlns="http://www.w3.org/2000/svg" xmlns:xlink="http://www.w3.org/1999/xlink" x="0px" y="0px"
	 viewBox="0 0 1600 500" style="enable-background:new 0 0 1600 500;" xml:space="preserve">
<style type="text/css">
	.st0{fill-rule:evenodd;clip-rule:evenodd;fill:#BC83FB;}
	.st1{clip-path:url(#SVGID_00000081638776007224915650000014924707650719492029_);}
	.st2{fill:#8747CC;}
	.st3{fill:#E2DCFE;}
	.st4{fill:#F7F7F7;}
	.st5{fill:#642F9E;}
	.st6{clip-path:url(#SVGID_00000145054261925467817930000014902111691353217198_);}
	.st7{clip-path:url(#SVGID_00000143606347672888838780000014467488631761868221_);}
</style>
<g>
	<g>
		<path class="st0" d="M1600,24.8v428.5c0,8.3-4.1,15.7-10.3,20.2c-2.4,1.7-5.8,0.9-6.9-1.9c-3.9-9.7-16.4-16.8-31.2-16.8
			c-9.5,0-18,2.9-23.9,7.6c-1.9,1.5-4.6,1.3-6.2-0.6c-7.7-8.7-21.2-14.5-36.7-14.5c-13.9,0-26.4,4.7-34.3,12
			c-1.8,1.7-4.7,1.5-6.4-0.3c-9.3-10.1-25.8-16.8-44.6-16.8c-27.1,0-49.3,13.9-52.4,31.7c-0.4,2.4-2.5,4.1-4.9,4.1l-1317.2,0
			C11.1,478.2,0,467.1,0,453.4V24.8C0,11.1,11.1,0,24.8,0h1550.3C1588.9,0,1600,11.1,1600,24.8z"/>
	</g>
	<ellipse class="st0" cx="1399.5" cy="479.2" rx="33.9" ry="20.8"/>
	<ellipse class="st0" cx="1483.8" cy="478.7" rx="27.9" ry="17.2"/>
	<ellipse class="st0" cx="1552.4" cy="479" rx="18.6" ry="11.5"/>
	<g>
		<defs>
			<path id="SVGID_1_" d="M1600,24.8v428.5c0,8.3-4.1,15.7-10.3,20.2c-2.4,1.7-5.8,0.9-6.9-1.9c-3.9-9.7-16.4-16.8-31.2-16.8
				c-9.5,0-18,2.9-23.9,7.6c-1.9,1.5-4.6,1.3-6.2-0.6c-7.7-8.7-21.2-14.5-36.7-14.5c-13.9,0-26.4,4.7-34.3,12
				c-1.8,1.7-4.7,1.5-6.4-0.3c-9.3-10.1-25.8-16.8-44.6-16.8c-27.1,0-49.3,13.9-52.4,31.7c-0.4,2.4-2.5,4.1-4.9,4.1l-1317.2,0
				C11.1,478.2,0,467.1,0,453.4V24.8C0,11.1,11.1,0,24.8,0h1550.3C1588.9,0,1600,11.1,1600,24.8z"/>
		</defs>
		<clipPath id="SVGID_00000169556964260871582510000009299509278404023462_">
			<use xlink:href="#SVGID_1_"  style="overflow:visible;"/>
		</clipPath>
		<g style="clip-path:url(#SVGID_00000169556964260871582510000009299509278404023462_);">
			<g>
				<rect x="28.5" y="436.4" transform="matrix(0.8278 -0.561 0.561 0.8278 -241.9305 103.1317)" width="37.1" height="18.4"/>
				
					<ellipse transform="matrix(0.7439 -0.6683 0.6683 0.7439 -236.0773 180.3312)" class="st2" cx="117.2" cy="398.2" rx="70.4" ry="79.2"/>
				
					<ellipse transform="matrix(0.8665 -0.4992 0.4992 0.8665 -183.1264 111.6985)" class="st3" cx="117.2" cy="398.2" rx="58" ry="65.2"/>
				
					<ellipse transform="matrix(0.4481 -0.894 0.894 0.4481 -292.5552 369.7923)" class="st4" cx="153.2" cy="421.8" rx="16" ry="9.3"/>
				<path class="st2" d="M-69.6,524.7L-69.6,524.7c-6.2-9.1-3.8-21.4,5.3-27.6l72.9-49.4c9.1-6.2,21.4-3.8,27.6,5.3l0,0
					c6.2,9.1,3.8,21.4-5.3,27.6L-42,530C-51.1,536.2-63.4,533.8-69.6,524.7z"/>
				<g>
					
						<rect x="12.4" y="447.2" transform="matrix(0.8278 -0.561 0.561 0.8278 -259.4248 89.0617)" class="st5" width="5.9" height="39.7"/>
				</g>
				<g>
					
						<rect x="-51.7" y="490.7" transform="matrix(0.8278 -0.561 0.561 0.8278 -294.8664 60.5575)" class="st5" width="5.9" height="39.7"/>
				</g>
			</g>
			<g>
				<rect x="-34.7" y="292.4" transform="matrix(0.3038 -0.9527 0.9527 0.3038 -299.5437 188.8253)" width="28.2" height="14"/>
				
					<ellipse transform="matrix(0.1715 -0.9852 0.9852 0.1715 -235.2618 196.266)" class="st2" cx="-0.9" cy="238" rx="53.5" ry="60.2"/>
				
					<ellipse transform="matrix(0.3724 -0.9281 0.9281 0.3724 -221.4815 148.5078)" class="st3" cx="-0.9" cy="238" rx="44.1" ry="49.6"/>
				
					<ellipse transform="matrix(0.9797 -0.2005 0.2005 0.9797 -46.5155 11.1274)" class="st4" cx="31.7" cy="235.2" rx="7.1" ry="12.2"/>
				<path class="st2" d="M-53.1,401.4L-53.1,401.4c-7.9-2.5-12.3-11-9.8-19l20.3-63.7c2.5-7.9,11-12.3,19-9.8h0
					c7.9,2.5,12.3,11,9.8,19l-20.3,63.7C-36.7,399.5-45.2,403.9-53.1,401.4z"/>
				<g>
					
						<rect x="-31.7" y="312" transform="matrix(0.3038 -0.9527 0.9527 0.3038 -332.0853 199.6968)" class="st5" width="4.5" height="30.2"/>
				</g>
				<g>
					
						<rect x="-49.5" y="368.1" transform="matrix(0.3038 -0.9527 0.9527 0.3038 -398.0107 221.7212)" class="st5" width="4.5" height="30.2"/>
				</g>
			</g>
			<g>
				<rect x="21.5" y="30.8" transform="matrix(0.6786 -0.7345 0.7345 0.6786 -16.4736 40.9115)" width="34" height="16.9"/>
				
					<ellipse transform="matrix(0.5725 -0.8199 0.8199 0.5725 53.5576 67.2702)" class="st2" cx="91.3" cy="-17.7" rx="64.5" ry="72.6"/>
				
					<ellipse transform="matrix(0.7303 -0.6831 0.6831 0.7303 36.7273 57.5804)" class="st3" cx="91.3" cy="-17.7" rx="53.2" ry="59.8"/>
				
					<ellipse transform="matrix(0.2332 -0.9724 0.9724 0.2332 102.3982 121.6643)" class="st4" cx="128.3" cy="-4.1" rx="14.7" ry="8.5"/>
				<path class="st2" d="M-49.1,134.1L-49.1,134.1c-7.4-6.8-7.8-18.4-1-25.7L4.6,49.1c6.8-7.4,18.4-7.8,25.7-1l0,0
					c7.4,6.8,7.8,18.4,1,25.7l-54.7,59.2C-30.2,140.5-41.7,140.9-49.1,134.1z"/>
				<g>
					
						<rect x="12" y="46.8" transform="matrix(0.6786 -0.7345 0.7345 0.6786 -43.0374 31.7131)" class="st5" width="5.4" height="36.4"/>
				</g>
				<g>
					
						<rect x="-36.2" y="99" transform="matrix(0.6786 -0.7345 0.7345 0.6786 -96.8526 13.0783)" class="st5" width="5.4" height="36.4"/>
				</g>
			</g>
			<g>
				<rect x="222.4" y="75.4" transform="matrix(0.974 -0.2268 0.2268 0.974 -12.334 55.2111)" width="23.5" height="11.7"/>
				
					<ellipse transform="matrix(0.9341 -0.357 0.357 0.9341 -5.8076 106.8414)" class="st2" cx="286.5" cy="69.2" rx="44.7" ry="50.2"/>
				
					<ellipse transform="matrix(0.9879 -0.1552 0.1552 0.9879 -7.2604 45.3023)" class="st3" cx="286.5" cy="69.2" rx="36.8" ry="41.4"/>
				
					<ellipse transform="matrix(0.739 -0.6737 0.6737 0.739 17.3928 227.6183)" class="st4" cx="302.5" cy="91.4" rx="10.1" ry="5.9"/>
				<path class="st2" d="M147.1,101.6L147.1,101.6c-1.6-6.8,2.6-13.6,9.4-15.1l54.4-12.7c6.8-1.6,13.6,2.6,15.1,9.4v0
					c1.6,6.8-2.6,13.6-9.4,15.1L162.2,111C155.4,112.6,148.7,108.3,147.1,101.6z"/>
				<g>
					
						<rect x="208.6" y="74.2" transform="matrix(0.974 -0.2268 0.2268 0.974 -14.1977 49.9944)" class="st5" width="3.8" height="25.2"/>
				</g>
				<g>
					
						<rect x="160.7" y="85.3" transform="matrix(0.974 -0.2268 0.2268 0.974 -17.9734 39.4258)" class="st5" width="3.8" height="25.2"/>
				</g>
			</g>
			<g>
				<rect x="192.5" y="221.2" transform="matrix(0.6118 -0.791 0.791 0.6118 -109.6827 250.4354)" width="15.7" height="31.5"/>
				
					<ellipse transform="matrix(0.4987 -0.8668 0.8668 0.4987 -114.6878 363.886)" class="st2" cx="257.2" cy="281.1" rx="67.3" ry="59.8"/>
				
					<ellipse transform="matrix(0.6678 -0.7443 0.7443 0.6678 -123.7744 284.8347)" class="st3" cx="257.2" cy="281.1" rx="55.4" ry="49.3"/>
				
					<ellipse transform="matrix(0.1473 -0.9891 0.9891 0.1473 -101.7986 514.7445)" class="st4" cx="247.6" cy="316.4" rx="7.9" ry="13.6"/>
				<path class="st2" d="M105.6,163.7L105.6,163.7c5.7-7.4,16.3-8.7,23.7-3l59.2,45.8c7.4,5.7,8.7,16.3,3,23.7l0,0
					c-5.7,7.4-16.3,8.7-23.7,3l-59.2-45.8C101.3,181.7,99.9,171.1,105.6,163.7z"/>
				<g>
					
						<rect x="157.7" y="214.6" transform="matrix(0.6118 -0.791 0.791 0.6118 -103.9335 222.3771)" class="st5" width="33.8" height="5"/>
				</g>
				<g>
					
						<rect x="105.6" y="174.3" transform="matrix(0.6118 -0.791 0.791 0.6118 -92.2865 165.5342)" class="st5" width="33.8" height="5"/>
				</g>
			</g>
			<g>
				<rect x="398.5" y="236.4" transform="matrix(0.321 -0.9471 0.9471 0.321 50.6684 562.0864)" width="37.6" height="18.7"/>
				
					<ellipse transform="matrix(0.1893 -0.9819 0.9819 0.1893 199.4016 570.1727)" class="st2" cx="445" cy="164.3" rx="71.4" ry="80.3"/>
				
					<ellipse transform="matrix(0.3891 -0.9212 0.9212 0.3891 120.4643 510.3116)" class="st3" cx="445" cy="164.3" rx="58.8" ry="66.1"/>
				
					<ellipse transform="matrix(0.9832 -0.1827 0.1827 0.9832 -21.2674 91.9845)" class="st4" cx="488.6" cy="161.4" rx="9.4" ry="16.2"/>
				<path class="st2" d="M371.5,381L371.5,381c-10.5-3.6-16.2-15-12.6-25.6l28.6-84.5c3.6-10.5,15-16.2,25.6-12.6h0
					c10.5,3.6,16.2,15,12.6,25.6L397,368.4C393.4,379,382,384.6,371.5,381z"/>
				<g>
					
						<rect x="401.9" y="262.3" transform="matrix(0.321 -0.9471 0.9471 0.321 7.4127 575.243)" class="st5" width="6" height="40.3"/>
				</g>
				<g>
					
						<rect x="376.6" y="336.7" transform="matrix(0.321 -0.9471 0.9471 0.321 -80.2183 601.8968)" class="st5" width="6" height="40.3"/>
				</g>
			</g>
			<g>
				<rect x="503.5" y="349.6" transform="matrix(0.8699 -0.4931 0.4931 0.8699 -107.9446 298.8486)" width="18.2" height="9"/>
				
					<ellipse transform="matrix(0.7949 -0.6068 0.6068 0.7949 -89.8436 401.4476)" class="st2" cx="548.8" cy="333.6" rx="34.6" ry="38.9"/>
				
					<ellipse transform="matrix(0.9036 -0.4284 0.4284 0.9036 -90.0058 267.3142)" class="st3" cx="548.8" cy="333.6" rx="28.5" ry="32"/>
				
					<ellipse transform="matrix(0.5181 -0.8553 0.8553 0.5181 -23.922 650.7411)" class="st4" cx="565.5" cy="346.6" rx="7.8" ry="4.6"/>
				<path class="st2" d="M452.5,388.2L452.5,388.2c-2.7-4.7-1-10.6,3.7-13.3l37.6-21.3c4.7-2.7,10.6-1,13.3,3.7l0,0
					c2.7,4.7,1,10.6-3.7,13.3l-37.6,21.3C461.1,394.5,455.1,392.9,452.5,388.2z"/>
				<g>
					
						<rect x="494.8" y="353.6" transform="matrix(0.8699 -0.4931 0.4931 0.8699 -114.6348 291.9979)" class="st5" width="2.9" height="19.5"/>
				</g>
				<g>
					
						<rect x="461.8" y="372.3" transform="matrix(0.8699 -0.4931 0.4931 0.8699 -128.1883 278.1191)" class="st5" width="2.9" height="19.5"/>
				</g>
			</g>
			<g>
				<rect x="528" y="519.6" transform="matrix(0.9457 -0.3251 0.3251 0.9457 -144.1311 202.6777)" width="13" height="26.1"/>
				
					<ellipse transform="matrix(0.8928 -0.4505 0.4505 0.8928 -159.2976 283.1627)" class="st2" cx="515.1" cy="476.2" rx="55.8" ry="49.6"/>
				
					<ellipse transform="matrix(0.9669 -0.2553 0.2553 0.9669 -104.498 147.2915)" class="st3" cx="515.1" cy="476.2" rx="45.9" ry="40.9"/>
				
					<ellipse transform="matrix(0.6663 -0.7457 0.7457 0.6663 -160.6009 553.2863)" class="st4" cx="537.9" cy="456.1" rx="6.5" ry="11.3"/>
				<path class="st2" d="M566.8,626.6L566.8,626.6c-7.3,2.5-15.3-1.4-17.8-8.7l-20.2-58.6c-2.5-7.3,1.4-15.3,8.7-17.8h0
					c7.3-2.5,15.3,1.4,17.8,8.7l20.2,58.6C578,616.1,574.1,624,566.8,626.6z"/>
				<g>
					
						<rect x="529.3" y="556.1" transform="matrix(0.9457 -0.3251 0.3251 0.9457 -151.9407 206.9099)" class="st5" width="28" height="4.2"/>
				</g>
				<g>
					
						<rect x="547" y="607.7" transform="matrix(0.9457 -0.3251 0.3251 0.9457 -167.7621 215.4839)" class="st5" width="28" height="4.2"/>
				</g>
			</g>
			<g>
				<rect x="717.2" y="395.5" transform="matrix(0.157 -0.9876 0.9876 0.157 204.6372 1063.6901)" width="16.3" height="32.9"/>
				
					<ellipse transform="matrix(2.133299e-02 -0.9998 0.9998 2.133299e-02 358.7501 1214.1975)" class="st2" cx="799.6" cy="423.9" rx="70.2" ry="62.4"/>
				
					<ellipse transform="matrix(0.2285 -0.9735 0.9735 0.2285 204.2109 1105.4064)" class="st3" cx="799.6" cy="423.9" rx="57.8" ry="51.4"/>
				
					<ellipse transform="matrix(0.9384 -0.3456 0.3456 0.9384 -109.4985 307.8089)" class="st4" cx="808.5" cy="461" rx="14.2" ry="8.2"/>
				<path class="st2" d="M602,392.4L602,392.4c1.5-9.6,10.6-16.2,20.2-14.6l77.1,12.2c9.6,1.5,16.2,10.6,14.6,20.2v0
					c-1.5,9.6-10.6,16.2-20.2,14.6l-77.1-12.2C607,411,600.5,402,602,392.4z"/>
				<g>
					
						<rect x="674.3" y="404" transform="matrix(0.157 -0.9876 0.9876 0.157 181.6587 1026.1241)" class="st5" width="35.2" height="5.2"/>
				</g>
				<g>
					
						<rect x="606.4" y="393.2" transform="matrix(0.157 -0.9876 0.9876 0.157 135.1069 950.02)" class="st5" width="35.2" height="5.2"/>
				</g>
			</g>
			<g>
				<rect x="316.8" y="442.2" transform="matrix(0.643 -0.7658 0.7658 0.643 -231.655 408.071)" width="10.2" height="20.6"/>
				
					<ellipse transform="matrix(0.533 -0.8461 0.8461 0.533 -241.3818 528.2928)" class="st2" cx="357.9" cy="482.8" rx="43.9" ry="39.1"/>
				
					<ellipse transform="matrix(0.6971 -0.7169 0.7169 0.6971 -237.7578 402.8314)" class="st3" cx="357.9" cy="482.8" rx="36.2" ry="32.2"/>
				
					<ellipse transform="matrix(0.1869 -0.9824 0.9824 0.1869 -211.5323 755.6924)" class="st4" cx="350.7" cy="505.6" rx="5.2" ry="8.9"/>
				<path class="st2" d="M262,402.2L262,402.2c3.9-4.7,10.9-5.3,15.5-1.4l37.4,31.4c4.7,3.9,5.3,10.9,1.4,15.5l0,0
					c-3.9,4.7-10.9,5.3-15.5,1.4l-37.4-31.4C258.7,413.9,258.1,406.9,262,402.2z"/>
				<g>
					
						<rect x="294.6" y="437.2" transform="matrix(0.643 -0.7658 0.7658 0.643 -227.0035 390.744)" class="st5" width="22.1" height="3.3"/>
				</g>
				<g>
					
						<rect x="261.7" y="409.6" transform="matrix(0.643 -0.7658 0.7658 0.643 -217.5801 355.6417)" class="st5" width="22.1" height="3.3"/>
				</g>
			</g>
			<g>
				<rect x="352.4" y="-88" transform="matrix(0.3938 -0.9192 0.9192 0.3938 283.1096 290.139)" width="18.3" height="36.9"/>
				
					<ellipse transform="matrix(0.2653 -0.9642 0.9642 0.2653 357.4844 396.4449)" class="st2" cx="438.9" cy="-36.3" rx="78.6" ry="69.9"/>
				
					<ellipse transform="matrix(0.4598 -0.888 0.888 0.4598 269.3697 370.1023)" class="st3" cx="438.9" cy="-36.3" rx="64.8" ry="57.6"/>
				<ellipse transform="matrix(0.9944 -0.1055 0.1055 0.9944 1.7673 46.28)" class="st4" cx="438.4" cy="6.4" rx="15.9" ry="9.2"/>
				<path class="st2" d="M232.9-124.7L232.9-124.7c4.3-10,15.9-14.7,25.9-10.4l80.3,34.4c10,4.3,14.7,15.9,10.4,25.9v0
					c-4.3,10-15.9,14.7-25.9,10.4l-80.3-34.4C233.3-103.1,228.6-114.7,232.9-124.7z"/>
				<g>
					
						<rect x="306.9" y="-87.5" transform="matrix(0.3938 -0.9192 0.9192 0.3938 275.6949 248.9695)" class="st5" width="39.5" height="5.9"/>
				</g>
				<g>
					
						<rect x="236.1" y="-117.8" transform="matrix(0.3938 -0.9192 0.9192 0.3938 260.6736 165.5646)" class="st5" width="39.5" height="5.9"/>
				</g>
			</g>
			<g>
				<rect x="601.6" y="42.5" transform="matrix(0.9339 -0.3576 0.3576 0.9339 20.2949 221.1735)" width="13.2" height="26.5"/>
				
					<ellipse transform="matrix(0.8766 -0.4812 0.4812 0.8766 23.689 316.8701)" class="st2" cx="629.8" cy="112.2" rx="56.5" ry="50.3"/>
				
					<ellipse transform="matrix(0.9575 -0.2886 0.2886 0.9575 -5.5955 186.5244)" class="st3" cx="629.8" cy="112.2" rx="46.5" ry="41.4"/>
				
					<ellipse transform="matrix(0.6401 -0.7683 0.7683 0.6401 116.1391 514.7313)" class="st4" cx="607.5" cy="133.4" rx="6.6" ry="11.4"/>
				<path class="st2" d="M572.2-38.2L572.2-38.2c7.3-2.8,15.5,0.9,18.3,8.2L613,28.6c2.8,7.3-0.9,15.5-8.2,18.3v0
					c-7.3,2.8-15.5-0.9-18.3-8.2l-22.5-58.7C561.3-27.2,564.9-35.4,572.2-38.2z"/>
				<g>
					
						<rect x="584.3" y="28.1" transform="matrix(0.9339 -0.3576 0.3576 0.9339 28.7691 215.9951)" class="st5" width="28.4" height="4.2"/>
				</g>
				<g>
					
						<rect x="564.5" y="-23.6" transform="matrix(0.9339 -0.3576 0.3576 0.9339 45.9367 205.5041)" class="st5" width="28.4" height="4.2"/>
				</g>
			</g>
			<g>
				<rect x="734.3" y="190.5" transform="matrix(0.5615 -0.8275 0.8275 0.5615 164.7658 706.9685)" width="30.2" height="15"/>
				
					<ellipse transform="matrix(0.4438 -0.8961 0.8961 0.4438 312.1276 784.7256)" class="st2" cx="788.3" cy="140.9" rx="57.4" ry="64.5"/>
				
					<ellipse transform="matrix(0.6203 -0.7844 0.7844 0.6203 188.7909 671.7955)" class="st3" cx="788.3" cy="140.9" rx="47.3" ry="53.1"/>
				
					<ellipse transform="matrix(8.557425e-02 -0.9963 0.9963 8.557425e-02 604.8143 954.9418)" class="st4" cx="822.6" cy="148" rx="13" ry="7.6"/>
				<path class="st2" d="M684.9,293L684.9,293c-7.4-5-9.3-15.1-4.3-22.5l40.3-59.4c5-7.4,15.1-9.3,22.5-4.3v0
					c7.4,5,9.3,15.1,4.3,22.5l-40.3,59.4C702.4,296.1,692.3,298.1,684.9,293z"/>
				<g>
					
						<rect x="729.5" y="207.6" transform="matrix(0.5615 -0.8275 0.8275 0.5615 135.7392 703.7963)" class="st5" width="4.8" height="32.4"/>
				</g>
				<g>
					
						<rect x="694" y="259.9" transform="matrix(0.5615 -0.8275 0.8275 0.5615 76.9345 697.3698)" class="st5" width="4.8" height="32.4"/>
				</g>
			</g>
			<g>
				<rect x="891" y="281" transform="matrix(0.4946 -0.8691 0.8691 0.4946 199.818 925.9855)" width="10.1" height="20.3"/>
				
					<ellipse transform="matrix(0.3719 -0.9283 0.9283 0.3719 296.4899 1066.5317)" class="st2" cx="936.4" cy="314.2" rx="43.3" ry="38.5"/>
				
					<ellipse transform="matrix(0.5566 -0.8308 0.8308 0.5566 154.1805 917.2242)" class="st3" cx="936.4" cy="314.2" rx="35.7" ry="31.7"/>
				
					<ellipse transform="matrix(6.859461e-03 -1 1 6.859461e-03 589.4927 1268.6812)" class="st4" cx="933.5" cy="337.6" rx="5.1" ry="8.8"/>
				<path class="st2" d="M829.1,253.1L829.1,253.1c3-5.2,9.6-7,14.8-4.1l41.9,23.8c5.2,3,7,9.6,4.1,14.8l0,0c-3,5.2-9.6,7-14.8,4.1
					l-41.9-23.8C827.9,264.9,826.1,258.3,829.1,253.1z"/>
				<g>
					
						<rect x="867" y="279.2" transform="matrix(0.4946 -0.8691 0.8691 0.4946 199.6207 904.9384)" class="st5" width="21.8" height="3.2"/>
				</g>
				<g>
					
						<rect x="830.1" y="258.2" transform="matrix(0.4946 -0.8691 0.8691 0.4946 199.2208 862.2991)" class="st5" width="21.8" height="3.2"/>
				</g>
			</g>
			<g>
				<rect x="967.6" y="125.4" transform="matrix(0.8995 -0.4369 0.4369 0.8995 37.8597 439.0567)" width="11.7" height="23.6"/>
				
					<ellipse transform="matrix(0.8318 -0.555 0.555 0.8318 64.5458 584.5897)" class="st2" cx="997" cy="185.8" rx="50.4" ry="44.8"/>
				
					<ellipse transform="matrix(0.929 -0.3702 0.3702 0.929 2.0474 382.2346)" class="st3" cx="997" cy="185.8" rx="41.5" ry="36.9"/>
				
					<ellipse transform="matrix(0.5714 -0.8207 0.8207 0.5714 250.2068 891.6815)" class="st4" cx="978.8" cy="206.3" rx="5.9" ry="10.2"/>
				<path class="st2" d="M934.3,56.5L934.3,56.5c6.3-3.1,13.9-0.4,16.9,5.9l24.5,50.4c3.1,6.3,0.4,13.9-5.9,16.9v0
					c-6.3,3.1-13.9,0.4-16.9-5.9l-24.5-50.4C925.3,67.2,928,59.6,934.3,56.5z"/>
				<g>
					
						<rect x="950.1" y="113.4" transform="matrix(0.8995 -0.4369 0.4369 0.8995 46.3608 432.2078)" class="st5" width="25.3" height="3.8"/>
				</g>
				<g>
					
						<rect x="928.6" y="69.1" transform="matrix(0.8995 -0.4369 0.4369 0.8995 63.583 418.3325)" class="st5" width="25.3" height="3.8"/>
				</g>
			</g>
			<g>
				<rect x="1183.1" y="164" transform="matrix(0.4878 -0.8729 0.8729 0.4878 455.264 1128.4108)" width="12.2" height="24.5"/>
				
					<ellipse transform="matrix(0.3647 -0.9311 0.9311 0.3647 596.9844 1282.1354)" class="st2" cx="1238.1" cy="203.6" rx="52.3" ry="46.5"/>
				
					<ellipse transform="matrix(0.5501 -0.8351 0.8351 0.5501 386.9534 1125.4674)" class="st3" cx="1238.1" cy="203.6" rx="43" ry="38.3"/>
				<ellipse class="st4" cx="1234.8" cy="231.8" rx="10.6" ry="6.1"/>
				<path class="st2" d="M1108,130.9L1108,130.9c3.5-6.3,11.5-8.6,17.9-5.1l50.7,28.3c6.3,3.5,8.6,11.5,5.1,17.9v0
					c-3.5,6.3-11.5,8.6-17.9,5.1l-50.7-28.3C1106.8,145.2,1104.5,137.2,1108,130.9z"/>
				<g>
					
						<rect x="1154.1" y="162" transform="matrix(0.4878 -0.8729 0.8729 0.4878 454.7265 1102.8541)" class="st5" width="26.2" height="3.9"/>
				</g>
				<g>
					
						<rect x="1109.4" y="137" transform="matrix(0.4878 -0.8729 0.8729 0.4878 453.6376 1051.0792)" class="st5" width="26.2" height="3.9"/>
				</g>
			</g>
			<g>
				
					<rect x="1234.8" y="7.6" transform="matrix(7.706361e-02 -0.997 0.997 7.706361e-02 1137.4301 1256.1624)" width="24.8" height="12.3"/>
				
					<ellipse transform="matrix(0.9983 -5.911126e-02 5.911126e-02 0.9983 4.7117 73.9112)" class="st2" cx="1251.6" cy="-42.7" rx="52.8" ry="47"/>
				
					<ellipse transform="matrix(0.1495 -0.9888 0.9888 0.1495 1106.7056 1201.2672)" class="st3" cx="1251.6" cy="-42.7" rx="38.7" ry="43.5"/>
				
					<ellipse transform="matrix(0.9076 -0.4199 0.4199 0.9076 139.8987 532.2791)" class="st4" cx="1279" cy="-51.6" rx="6.2" ry="10.7"/>
				<path class="st2" d="M1240,107.5L1240,107.5c-7.3-0.6-12.8-6.9-12.2-14.2l4.5-58.6c0.6-7.3,6.9-12.8,14.2-12.2l0,0
					c7.3,0.6,12.8,6.9,12.2,14.2l-4.5,58.6C1253.7,102.6,1247.3,108,1240,107.5z"/>
				<g>
					
						<rect x="1243.3" y="25.9" transform="matrix(7.706361e-02 -0.997 0.997 7.706361e-02 1110.2345 1277.6943)" class="st5" width="3.9" height="26.5"/>
				</g>
				<g>
					
						<rect x="1239.3" y="77.5" transform="matrix(7.706361e-02 -0.997 0.997 7.706361e-02 1055.1395 1321.3157)" class="st5" width="3.9" height="26.5"/>
				</g>
			</g>
			<g>
				
					<rect x="1469.4" y="168.1" transform="matrix(4.494320e-02 -0.999 0.999 4.494320e-02 1227.566 1650.2759)" width="14.9" height="30"/>
				
					<ellipse transform="matrix(0.9958 -9.120058e-02 9.120058e-02 0.9958 -10.5483 141.7129)" class="st2" cx="1545.3" cy="186.3" rx="56.9" ry="64"/>
				
					<ellipse transform="matrix(0.1176 -0.9931 0.9931 0.1176 1178.6008 1698.9874)" class="st3" cx="1545.3" cy="186.3" rx="52.7" ry="46.9"/>
				
					<ellipse transform="matrix(0.8936 -0.4489 0.4489 0.8936 67.399 722.3475)" class="st4" cx="1557.2" cy="219" rx="12.9" ry="7.5"/>
				<path class="st2" d="M1363.1,178L1363.1,178c0.4-8.9,7.9-15.7,16.8-15.3l71.1,3.2c8.9,0.4,15.7,7.9,15.3,16.8v0
					c-0.4,8.9-7.9,15.7-16.8,15.3l-71.1-3.2C1369.5,194.4,1362.7,186.9,1363.1,178z"/>
				<g>
					
						<rect x="1429.9" y="179.3" transform="matrix(4.494320e-02 -0.999 0.999 4.494320e-02 1199.4391 1618.0745)" class="st5" width="32.1" height="4.8"/>
				</g>
				<g>
					
						<rect x="1367.3" y="176.5" transform="matrix(4.494320e-02 -0.999 0.999 4.494320e-02 1142.4573 1552.8379)" class="st5" width="32.1" height="4.8"/>
				</g>
			</g>
			<g>
				<rect x="1477" y="506.9" transform="matrix(0.5333 -0.8459 0.8459 0.5333 261.2741 1504.234)" width="34.1" height="16.9"/>
				
					<ellipse transform="matrix(0.4135 -0.9105 0.9105 0.4135 491.3275 1661.8181)" class="st2" cx="1535.5" cy="449.5" rx="64.6" ry="72.7"/>
				
					<ellipse transform="matrix(0.5936 -0.8048 0.8048 0.5936 262.313 1418.5)" class="st3" cx="1535.5" cy="449.5" rx="53.2" ry="59.9"/>
				
					<ellipse transform="matrix(5.203488e-02 -0.9986 0.9986 5.203488e-02 1037.0128 2004.8589)" class="st4" cx="1574.5" cy="456.2" rx="14.7" ry="8.5"/>
				<path class="st2" d="M1425,624.7L1425,624.7c-8.5-5.4-11.1-16.6-5.7-25.2l43.1-68.3c5.4-8.5,16.6-11.1,25.2-5.7l0,0
					c8.5,5.4,11.1,16.6,5.7,25.2l-43.1,68.3C1444.8,627.5,1433.5,630.1,1425,624.7z"/>
				<g>
					
						<rect x="1472.5" y="526.8" transform="matrix(0.5333 -0.8459 0.8459 0.5333 227.4073 1502.2532)" class="st5" width="5.4" height="36.5"/>
				</g>
				<g>
					
						<rect x="1434.6" y="587" transform="matrix(0.5333 -0.8459 0.8459 0.5333 158.7971 1498.2402)" class="st5" width="5.4" height="36.5"/>
				</g>
			</g>
			<g>
				<rect x="1650.5" y="336.2" transform="matrix(0.567 -0.8237 0.8237 0.567 428.5387 1517.7971)" width="15" height="30.2"/>
				
					<ellipse transform="matrix(0.4499 -0.8931 0.8931 0.4499 594.6819 1746.1691)" class="st2" cx="1714.7" cy="390.4" rx="64.3" ry="57.2"/>
				
					<ellipse transform="matrix(0.6255 -0.7802 0.7802 0.6255 337.5125 1483.9772)" class="st3" cx="1714.7" cy="390.4" rx="53" ry="47.1"/>
				
					<ellipse transform="matrix(9.227346e-02 -0.9957 0.9957 9.227346e-02 1127.0699 2085.5813)" class="st4" cx="1707.4" cy="424.6" rx="7.5" ry="13"/>
				<path class="st2" d="M1563.7,286.4L1563.7,286.4c5.1-7.3,15.1-9.2,22.5-4.1l58.9,40.6c7.3,5.1,9.2,15.1,4.1,22.5v0
					c-5.1,7.3-15.1,9.2-22.5,4.1l-58.9-40.6C1560.5,303.8,1558.7,293.7,1563.7,286.4z"/>
				<g>
					
						<rect x="1616.3" y="331.2" transform="matrix(0.567 -0.8237 0.8237 0.567 431.9711 1489.0752)" class="st5" width="32.3" height="4.8"/>
				</g>
				<g>
					
						<rect x="1564.4" y="295.5" transform="matrix(0.567 -0.8237 0.8237 0.567 438.9248 1430.8881)" class="st5" width="32.3" height="4.8"/>
				</g>
			</g>
			<g>
				<rect x="1411.6" y="37.5" transform="matrix(0.8712 -0.4909 0.4909 0.8712 162.1252 703.8811)" width="21.9" height="10.9"/>
				
					<ellipse transform="matrix(0.7964 -0.6047 0.6047 0.7964 239.9142 847.6212)" class="st2" cx="1378.9" cy="67.5" rx="41.6" ry="46.7"/>
				
					<ellipse transform="matrix(0.9047 -0.4261 0.4261 0.9047 102.7158 594.0349)" class="st3" cx="1378.9" cy="67.5" rx="34.2" ry="38.5"/>
				
					<ellipse transform="matrix(0.5203 -0.854 0.854 0.5203 607.6886 1185.3741)" class="st4" cx="1358.9" cy="51.8" rx="9.4" ry="5.5"/>
				<path class="st2" d="M1495,2.1L1495,2.1c3.2,5.6,1.2,12.8-4.5,16l-45.2,25.5c-5.6,3.2-12.8,1.2-16-4.5v0
					c-3.2-5.6-1.2-12.8,4.5-16L1479-2.3C1484.6-5.5,1491.8-3.5,1495,2.1z"/>
				<g>
					
						<rect x="1440.5" y="20.1" transform="matrix(0.8712 -0.4909 0.4909 0.8712 170.0981 712.1082)" class="st5" width="3.5" height="23.5"/>
				</g>
				<g>
					
						<rect x="1480.3" y="-2.3" transform="matrix(0.8712 -0.4909 0.4909 0.8712 186.2503 728.7753)" class="st5" width="3.5" height="23.5"/>
				</g>
			</g>
			<g>
				<rect x="1588.8" y="-24" transform="matrix(0.493 -0.87 0.87 0.493 827.5474 1388.1385)" width="32.1" height="15.9"/>
				
					<ellipse transform="matrix(0.3703 -0.9289 0.9289 0.3703 1107.5498 1474.2344)" class="st2" cx="1641.1" cy="-79.8" rx="60.9" ry="68.5"/>
				
					<ellipse transform="matrix(0.5551 -0.8318 0.8318 0.5551 796.4227 1329.5265)" class="st3" cx="1641.1" cy="-79.8" rx="50.2" ry="56.4"/>
				
					<ellipse transform="matrix(5.102667e-03 -1 1 5.102667e-03 1744.7604 1603.2308)" class="st4" cx="1678.1" cy="-75.2" rx="13.8" ry="8"/>
				<path class="st2" d="M1544.8,90L1544.8,90c-8.3-4.7-11.2-15.2-6.5-23.4l37.5-66.2c4.7-8.3,15.2-11.2,23.4-6.5l0,0
					c8.3,4.7,11.2,15.2,6.5,23.4l-37.5,66.2C1563.6,91.8,1553.1,94.7,1544.8,90z"/>
				<g>
					
						<rect x="1586" y="-4.4" transform="matrix(0.493 -0.87 0.87 0.493 794.2317 1388.5387)" class="st5" width="5.1" height="34.4"/>
				</g>
				<g>
					
						<rect x="1553" y="53.9" transform="matrix(0.493 -0.87 0.87 0.493 726.7379 1389.3495)" class="st5" width="5.1" height="34.4"/>
				</g>
			</g>
			<g>
				<rect x="1351.2" y="316.4" transform="matrix(0.9232 -0.3843 0.3843 0.9232 -19.4123 549.3041)" width="27.5" height="13.7"/>
				
					<ellipse transform="matrix(0.8625 -0.5061 0.5061 0.8625 44.3051 761.3451)" class="st2" cx="1422.9" cy="299.2" rx="52.2" ry="58.7"/>
				
					<ellipse transform="matrix(0.9488 -0.316 0.316 0.9488 -21.6265 464.9261)" class="st3" cx="1422.9" cy="299.2" rx="43" ry="48.3"/>
				
					<ellipse transform="matrix(0.6178 -0.7864 0.7864 0.6178 299.5921 1259.7001)" class="st4" cx="1445.6" cy="321.7" rx="11.9" ry="6.9"/>
				<path class="st2" d="M1268.5,363.4L1268.5,363.4c-3.1-7.5,0.4-16.1,7.9-19.3l60.2-25.1c7.5-3.1,16.1,0.4,19.3,7.9v0
					c3.1,7.5-0.4,16.1-7.9,19.3l-60.2,25.1C1280.3,374.4,1271.7,370.9,1268.5,363.4z"/>
				<g>
					
						<rect x="1336.6" y="319.4" transform="matrix(0.9232 -0.3843 0.3843 0.9232 -25.6084 540.0822)" class="st5" width="4.4" height="29.5"/>
				</g>
				<g>
					
						<rect x="1283.5" y="341.5" transform="matrix(0.9232 -0.3843 0.3843 0.9232 -38.161 521.3998)" class="st5" width="4.4" height="29.5"/>
				</g>
			</g>
			<g>
				<rect x="1259.8" y="445.8" transform="matrix(0.5042 -0.8636 0.8636 0.5042 231.8654 1320.5953)" width="12.5" height="25.1"/>
				
					<ellipse transform="matrix(0.3822 -0.9241 0.9241 0.3822 362.4143 1516.8326)" class="st2" cx="1315.6" cy="487.4" rx="53.6" ry="47.7"/>
				
					<ellipse transform="matrix(0.5658 -0.8246 0.8246 0.5658 169.385 1296.4078)" class="st3" cx="1315.6" cy="487.4" rx="44.2" ry="39.3"/>
				
					<ellipse transform="matrix(1.796579e-02 -0.9998 0.9998 1.796579e-02 771.8959 1818.4878)" class="st4" cx="1311.7" cy="516.3" rx="6.3" ry="10.8"/>
				<path class="st2" d="M1183.6,410.2L1183.6,410.2c3.7-6.4,12-8.6,18.4-4.8l51.5,30.1c6.4,3.7,8.6,12,4.8,18.4l0,0
					c-3.7,6.4-12,8.6-18.4,4.8l-51.5-30.1C1182,424.9,1179.9,416.7,1183.6,410.2z"/>
				<g>
					
						<rect x="1230.2" y="443.3" transform="matrix(0.5042 -0.8636 0.8636 0.5042 232.0535 1294.7845)" class="st5" width="26.9" height="4"/>
				</g>
				<g>
					
						<rect x="1184.8" y="416.8" transform="matrix(0.5042 -0.8636 0.8636 0.5042 232.4344 1242.4949)" class="st5" width="26.9" height="4"/>
				</g>
			</g>
			<g>
				<rect x="1075.1" y="26" transform="matrix(0.7119 -0.7023 0.7023 0.7119 290.8264 771.6389)" width="21.4" height="10.7"/>
				
					<ellipse transform="matrix(0.6099 -0.7925 0.7925 0.6099 439.6351 887.0508)" class="st2" cx="1120.8" cy="-3" rx="40.7" ry="45.8"/>
				
					<ellipse transform="matrix(0.7612 -0.6486 0.6486 0.7612 269.628 726.1733)" class="st3" cx="1120.8" cy="-3" rx="33.5" ry="37.7"/>
				
					<ellipse transform="matrix(0.278 -0.9606 0.9606 0.278 819.3896 1103.4554)" class="st4" cx="1143.7" cy="6.7" rx="9.2" ry="5.4"/>
				<path class="st2" d="M1027.9,88.6L1027.9,88.6c-4.5-4.5-4.4-11.8,0.1-16.2l36.2-35.7c4.5-4.5,11.8-4.4,16.2,0.1v0
					c4.5,4.5,4.4,11.8-0.1,16.2l-36.2,35.7C1039.6,93.1,1032.3,93.1,1027.9,88.6z"/>
				<g>
					
						<rect x="1068.4" y="35.4" transform="matrix(0.7119 -0.7023 0.7023 0.7119 275.3839 765.058)" class="st5" width="3.4" height="23"/>
				</g>
				<g>
					
						<rect x="1036.5" y="66.9" transform="matrix(0.7119 -0.7023 0.7023 0.7119 244.0993 751.726)" class="st5" width="3.4" height="23"/>
				</g>
			</g>
			<g>
				<rect x="1059.4" y="360.7" transform="matrix(0.8073 -0.5901 0.5901 0.8073 -10.2934 705.3668)" width="31.3" height="15.6"/>
				
					<ellipse transform="matrix(0.7197 -0.6943 0.6943 0.7197 90.997 878.0009)" class="st2" cx="1132.8" cy="326.3" rx="59.4" ry="66.8"/>
				
					<ellipse transform="matrix(0.8482 -0.5297 0.5297 0.8482 -0.869 649.5922)" class="st3" cx="1132.8" cy="326.3" rx="48.9" ry="55"/>
				
					<ellipse transform="matrix(0.4161 -0.9093 0.9093 0.4161 365.7161 1259.8943)" class="st4" cx="1163.8" cy="345.2" rx="13.5" ry="7.8"/>
				<path class="st2" d="M979.1,438.6L979.1,438.6c-5.5-7.5-3.8-18,3.6-23.4l59.9-43.8c7.5-5.5,18-3.8,23.4,3.6v0
					c5.5,7.5,3.8,18-3.6,23.4l-59.9,43.8C995,447.7,984.5,446.1,979.1,438.6z"/>
				<g>
					
						<rect x="1046.5" y="370.7" transform="matrix(0.8073 -0.5901 0.5901 0.8073 -26.5524 693.6608)" class="st5" width="5" height="33.5"/>
				</g>
				<g>
					
						<rect x="993.7" y="409.3" transform="matrix(0.8073 -0.5901 0.5901 0.8073 -59.4913 669.9456)" class="st5" width="5" height="33.5"/>
				</g>
			</g>
			<g>
				<rect x="965.3" y="495.4" transform="matrix(0.6707 -0.7418 0.7418 0.6707 -55.3756 886.2488)" width="10.1" height="20.3"/>
				
					<ellipse transform="matrix(0.5637 -0.826 0.826 0.5637 -4.84 1063.9771)" class="st2" cx="1004.7" cy="536.6" rx="43.2" ry="38.5"/>
				
					<ellipse transform="matrix(0.7229 -0.6909 0.6909 0.7229 -92.3668 842.8029)" class="st3" cx="1004.7" cy="536.6" rx="35.6" ry="31.7"/>
				
					<ellipse transform="matrix(0.2227 -0.9749 0.9749 0.2227 230.0645 1406.0308)" class="st4" cx="996.8" cy="558.7" rx="5.1" ry="8.7"/>
				<path class="st2" d="M913.3,453.9L913.3,453.9c4-4.4,10.9-4.8,15.3-0.8l35.7,32.2c4.4,4,4.8,10.9,0.8,15.3l0,0
					c-4,4.4-10.9,4.8-15.3,0.8l-35.7-32.2C909.6,465.2,909.3,458.3,913.3,453.9z"/>
				<g>
					
						<rect x="944" y="489.9" transform="matrix(0.6707 -0.7418 0.7418 0.6707 -50.0857 870.1388)" class="st5" width="21.7" height="3.2"/>
				</g>
				<g>
					
						<rect x="912.6" y="461.5" transform="matrix(0.6707 -0.7418 0.7418 0.6707 -39.3689 837.5017)" class="st5" width="21.7" height="3.2"/>
				</g>
			</g>
			<g>
				<rect x="886.7" y="-27.3" transform="matrix(0.9472 -0.3207 0.3207 0.9472 54.3408 287.0945)" width="23.7" height="11.8"/>
				
					<ellipse transform="matrix(0.8948 -0.4465 0.4465 0.8948 90.9409 377.83)" class="st2" cx="847.2" cy="-4.1" rx="45" ry="50.6"/>
				
					<ellipse transform="matrix(0.968 -0.2509 0.2509 0.968 28.115 212.4216)" class="st3" cx="847.2" cy="-4.1" rx="37.1" ry="41.7"/>
				
					<ellipse transform="matrix(0.6697 -0.7426 0.7426 0.6697 292.2542 607.5192)" class="st4" cx="829.1" cy="-24.8" rx="10.2" ry="5.9"/>
				<path class="st2" d="M983.9-50.3L983.9-50.3c2.3,6.6-1.3,13.9-8,16.1l-53.3,18.1c-6.6,2.3-13.9-1.3-16.1-8v0
					c-2.3-6.6,1.3-13.9,8-16.1l53.3-18.1C974.5-60.5,981.7-56.9,983.9-50.3z"/>
				<g>
					
						<rect x="919.9" y="-42" transform="matrix(0.9472 -0.3207 0.3207 0.9472 58.0823 294.1129)" class="st5" width="3.8" height="25.4"/>
				</g>
				<g>
					
						<rect x="966.8" y="-57.9" transform="matrix(0.9472 -0.3207 0.3207 0.9472 65.6622 308.3312)" class="st5" width="3.8" height="25.4"/>
				</g>
			</g>
		</g>
	</g>
	<g>
		<defs>
			<ellipse id="SVGID_00000132767796993537262510000007893897137756804741_" cx="1483.8" cy="478.7" rx="27.9" ry="17.2"/>
		</defs>
		<clipPath id="SVGID_00000111170967564962159370000009725081116578077090_">
			<use xlink:href="#SVGID_00000132767796993537262510000007893897137756804741_"  style="overflow:visible;"/>
		</clipPath>
		<g style="clip-path:url(#SVGID_00000111170967564962159370000009725081116578077090_);">
			<g>
				<rect x="28.5" y="436.4" transform="matrix(0.8278 -0.561 0.561 0.8278 -241.9305 103.1317)" width="37.1" height="18.4"/>
				
					<ellipse transform="matrix(0.7439 -0.6683 0.6683 0.7439 -236.0773 180.3312)" class="st2" cx="117.2" cy="398.2" rx="70.4" ry="79.2"/>
				
					<ellipse transform="matrix(0.8665 -0.4992 0.4992 0.8665 -183.1264 111.6985)" class="st3" cx="117.2" cy="398.2" rx="58" ry="65.2"/>
				
					<ellipse transform="matrix(0.4481 -0.894 0.894 0.4481 -292.5552 369.7923)" class="st4" cx="153.2" cy="421.8" rx="16" ry="9.3"/>
				<path class="st2" d="M-69.6,524.7L-69.6,524.7c-6.2-9.1-3.8-21.4,5.3-27.6l72.9-49.4c9.1-6.2,21.4-3.8,27.6,5.3l0,0
					c6.2,9.1,3.8,21.4-5.3,27.6L-42,530C-51.1,536.2-63.4,533.8-69.6,524.7z"/>
				<g>
					
						<rect x="12.4" y="447.2" transform="matrix(0.8278 -0.561 0.561 0.8278 -259.4248 89.0617)" class="st5" width="5.9" height="39.7"/>
				</g>
				<g>
					
						<rect x="-51.7" y="490.7" transform="matrix(0.8278 -0.561 0.561 0.8278 -294.8664 60.5575)" class="st5" width="5.9" height="39.7"/>
				</g>
			</g>
			<g>
				<rect x="-34.7" y="292.4" transform="matrix(0.3038 -0.9527 0.9527 0.3038 -299.5437 188.8253)" width="28.2" height="14"/>
				
					<ellipse transform="matrix(0.1715 -0.9852 0.9852 0.1715 -235.2618 196.266)" class="st2" cx="-0.9" cy="238" rx="53.5" ry="60.2"/>
				
					<ellipse transform="matrix(0.3724 -0.9281 0.9281 0.3724 -221.4815 148.5078)" class="st3" cx="-0.9" cy="238" rx="44.1" ry="49.6"/>
				
					<ellipse transform="matrix(0.9797 -0.2005 0.2005 0.9797 -46.5155 11.1274)" class="st4" cx="31.7" cy="235.2" rx="7.1" ry="12.2"/>
				<path class="st2" d="M-53.1,401.4L-53.1,401.4c-7.9-2.5-12.3-11-9.8-19l20.3-63.7c2.5-7.9,11-12.3,19-9.8h0
					c7.9,2.5,12.3,11,9.8,19l-20.3,63.7C-36.7,399.5-45.2,403.9-53.1,401.4z"/>
				<g>
					
						<rect x="-31.7" y="312" transform="matrix(0.3038 -0.9527 0.9527 0.3038 -332.0853 199.6968)" class="st5" width="4.5" height="30.2"/>
				</g>
				<g>
					
						<rect x="-49.5" y="368.1" transform="matrix(0.3038 -0.9527 0.9527 0.3038 -398.0107 221.7212)" class="st5" width="4.5" height="30.2"/>
				</g>
			</g>
			<g>
				<rect x="21.5" y="30.8" transform="matrix(0.6786 -0.7345 0.7345 0.6786 -16.4736 40.9115)" width="34" height="16.9"/>
				
					<ellipse transform="matrix(0.5725 -0.8199 0.8199 0.5725 53.5576 67.2702)" class="st2" cx="91.3" cy="-17.7" rx="64.5" ry="72.6"/>
				
					<ellipse transform="matrix(0.7303 -0.6831 0.6831 0.7303 36.7273 57.5804)" class="st3" cx="91.3" cy="-17.7" rx="53.2" ry="59.8"/>
				
					<ellipse transform="matrix(0.2332 -0.9724 0.9724 0.2332 102.3982 121.6643)" class="st4" cx="128.3" cy="-4.1" rx="14.7" ry="8.5"/>
				<path class="st2" d="M-49.1,134.1L-49.1,134.1c-7.4-6.8-7.8-18.4-1-25.7L4.6,49.1c6.8-7.4,18.4-7.8,25.7-1l0,0
					c7.4,6.8,7.8,18.4,1,25.7l-54.7,59.2C-30.2,140.5-41.7,140.9-49.1,134.1z"/>
				<g>
					
						<rect x="12" y="46.8" transform="matrix(0.6786 -0.7345 0.7345 0.6786 -43.0374 31.7131)" class="st5" width="5.4" height="36.4"/>
				</g>
				<g>
					
						<rect x="-36.2" y="99" transform="matrix(0.6786 -0.7345 0.7345 0.6786 -96.8526 13.0783)" class="st5" width="5.4" height="36.4"/>
				</g>
			</g>
			<g>
				<rect x="222.4" y="75.4" transform="matrix(0.974 -0.2268 0.2268 0.974 -12.334 55.2111)" width="23.5" height="11.7"/>
				
					<ellipse transform="matrix(0.9341 -0.357 0.357 0.9341 -5.8076 106.8414)" class="st2" cx="286.5" cy="69.2" rx="44.7" ry="50.2"/>
				
					<ellipse transform="matrix(0.9879 -0.1552 0.1552 0.9879 -7.2604 45.3023)" class="st3" cx="286.5" cy="69.2" rx="36.8" ry="41.4"/>
				
					<ellipse transform="matrix(0.739 -0.6737 0.6737 0.739 17.3928 227.6183)" class="st4" cx="302.5" cy="91.4" rx="10.1" ry="5.9"/>
				<path class="st2" d="M147.1,101.6L147.1,101.6c-1.6-6.8,2.6-13.6,9.4-15.1l54.4-12.7c6.8-1.6,13.6,2.6,15.1,9.4v0
					c1.6,6.8-2.6,13.6-9.4,15.1L162.2,111C155.4,112.6,148.7,108.3,147.1,101.6z"/>
				<g>
					
						<rect x="208.6" y="74.2" transform="matrix(0.974 -0.2268 0.2268 0.974 -14.1977 49.9944)" class="st5" width="3.8" height="25.2"/>
				</g>
				<g>
					
						<rect x="160.7" y="85.3" transform="matrix(0.974 -0.2268 0.2268 0.974 -17.9734 39.4258)" class="st5" width="3.8" height="25.2"/>
				</g>
			</g>
			<g>
				<rect x="192.5" y="221.2" transform="matrix(0.6118 -0.791 0.791 0.6118 -109.6827 250.4354)" width="15.7" height="31.5"/>
				
					<ellipse transform="matrix(0.4987 -0.8668 0.8668 0.4987 -114.6878 363.886)" class="st2" cx="257.2" cy="281.1" rx="67.3" ry="59.8"/>
				
					<ellipse transform="matrix(0.6678 -0.7443 0.7443 0.6678 -123.7744 284.8347)" class="st3" cx="257.2" cy="281.1" rx="55.4" ry="49.3"/>
				
					<ellipse transform="matrix(0.1473 -0.9891 0.9891 0.1473 -101.7986 514.7445)" class="st4" cx="247.6" cy="316.4" rx="7.9" ry="13.6"/>
				<path class="st2" d="M105.6,163.7L105.6,163.7c5.7-7.4,16.3-8.7,23.7-3l59.2,45.8c7.4,5.7,8.7,16.3,3,23.7l0,0
					c-5.7,7.4-16.3,8.7-23.7,3l-59.2-45.8C101.3,181.7,99.9,171.1,105.6,163.7z"/>
				<g>
					
						<rect x="157.7" y="214.6" transform="matrix(0.6118 -0.791 0.791 0.6118 -103.9335 222.3771)" class="st5" width="33.8" height="5"/>
				</g>
				<g>
					
						<rect x="105.6" y="174.3" transform="matrix(0.6118 -0.791 0.791 0.6118 -92.2865 165.5342)" class="st5" width="33.8" height="5"/>
				</g>
			</g>
			<g>
				<rect x="398.5" y="236.4" transform="matrix(0.321 -0.9471 0.9471 0.321 50.6684 562.0864)" width="37.6" height="18.7"/>
				
					<ellipse transform="matrix(0.1893 -0.9819 0.9819 0.1893 199.4016 570.1727)" class="st2" cx="445" cy="164.3" rx="71.4" ry="80.3"/>
				
					<ellipse transform="matrix(0.3891 -0.9212 0.9212 0.3891 120.4643 510.3116)" class="st3" cx="445" cy="164.3" rx="58.8" ry="66.1"/>
				
					<ellipse transform="matrix(0.9832 -0.1827 0.1827 0.9832 -21.2674 91.9845)" class="st4" cx="488.6" cy="161.4" rx="9.4" ry="16.2"/>
				<path class="st2" d="M371.5,381L371.5,381c-10.5-3.6-16.2-15-12.6-25.6l28.6-84.5c3.6-10.5,15-16.2,25.6-12.6h0
					c10.5,3.6,16.2,15,12.6,25.6L397,368.4C393.4,379,382,384.6,371.5,381z"/>
				<g>
					
						<rect x="401.9" y="262.3" transform="matrix(0.321 -0.9471 0.9471 0.321 7.4127 575.243)" class="st5" width="6" height="40.3"/>
				</g>
				<g>
					
						<rect x="376.6" y="336.7" transform="matrix(0.321 -0.9471 0.9471 0.321 -80.2183 601.8968)" class="st5" width="6" height="40.3"/>
				</g>
			</g>
			<g>
				<rect x="503.5" y="349.6" transform="matrix(0.8699 -0.4931 0.4931 0.8699 -107.9446 298.8486)" width="18.2" height="9"/>
				
					<ellipse transform="matrix(0.7949 -0.6068 0.6068 0.7949 -89.8436 401.4476)" class="st2" cx="548.8" cy="333.6" rx="34.6" ry="38.9"/>
				
					<ellipse transform="matrix(0.9036 -0.4284 0.4284 0.9036 -90.0058 267.3142)" class="st3" cx="548.8" cy="333.6" rx="28.5" ry="32"/>
				
					<ellipse transform="matrix(0.5181 -0.8553 0.8553 0.5181 -23.922 650.7411)" class="st4" cx="565.5" cy="346.6" rx="7.8" ry="4.6"/>
				<path class="st2" d="M452.5,388.2L452.5,388.2c-2.7-4.7-1-10.6,3.7-13.3l37.6-21.3c4.7-2.7,10.6-1,13.3,3.7l0,0
					c2.7,4.7,1,10.6-3.7,13.3l-37.6,21.3C461.1,394.5,455.1,392.9,452.5,388.2z"/>
				<g>
					
						<rect x="494.8" y="353.6" transform="matrix(0.8699 -0.4931 0.4931 0.8699 -114.6348 291.9979)" class="st5" width="2.9" height="19.5"/>
				</g>
				<g>
					
						<rect x="461.8" y="372.3" transform="matrix(0.8699 -0.4931 0.4931 0.8699 -128.1883 278.1191)" class="st5" width="2.9" height="19.5"/>
				</g>
			</g>
			<g>
				<rect x="528" y="519.6" transform="matrix(0.9457 -0.3251 0.3251 0.9457 -144.1311 202.6777)" width="13" height="26.1"/>
				
					<ellipse transform="matrix(0.8928 -0.4505 0.4505 0.8928 -159.2976 283.1627)" class="st2" cx="515.1" cy="476.2" rx="55.8" ry="49.6"/>
				
					<ellipse transform="matrix(0.9669 -0.2553 0.2553 0.9669 -104.498 147.2915)" class="st3" cx="515.1" cy="476.2" rx="45.9" ry="40.9"/>
				
					<ellipse transform="matrix(0.6663 -0.7457 0.7457 0.6663 -160.6009 553.2863)" class="st4" cx="537.9" cy="456.1" rx="6.5" ry="11.3"/>
				<path class="st2" d="M566.8,626.6L566.8,626.6c-7.3,2.5-15.3-1.4-17.8-8.7l-20.2-58.6c-2.5-7.3,1.4-15.3,8.7-17.8h0
					c7.3-2.5,15.3,1.4,17.8,8.7l20.2,58.6C578,616.1,574.1,624,566.8,626.6z"/>
				<g>
					
						<rect x="529.3" y="556.1" transform="matrix(0.9457 -0.3251 0.3251 0.9457 -151.9407 206.9099)" class="st5" width="28" height="4.2"/>
				</g>
				<g>
					
						<rect x="547" y="607.7" transform="matrix(0.9457 -0.3251 0.3251 0.9457 -167.7621 215.4839)" class="st5" width="28" height="4.2"/>
				</g>
			</g>
			<g>
				<rect x="717.2" y="395.5" transform="matrix(0.157 -0.9876 0.9876 0.157 204.6372 1063.6901)" width="16.3" height="32.9"/>
				
					<ellipse transform="matrix(2.133299e-02 -0.9998 0.9998 2.133299e-02 358.7501 1214.1975)" class="st2" cx="799.6" cy="423.9" rx="70.2" ry="62.4"/>
				
					<ellipse transform="matrix(0.2285 -0.9735 0.9735 0.2285 204.2109 1105.4064)" class="st3" cx="799.6" cy="423.9" rx="57.8" ry="51.4"/>
				
					<ellipse transform="matrix(0.9384 -0.3456 0.3456 0.9384 -109.4985 307.8089)" class="st4" cx="808.5" cy="461" rx="14.2" ry="8.2"/>
				<path class="st2" d="M602,392.4L602,392.4c1.5-9.6,10.6-16.2,20.2-14.6l77.1,12.2c9.6,1.5,16.2,10.6,14.6,20.2v0
					c-1.5,9.6-10.6,16.2-20.2,14.6l-77.1-12.2C607,411,600.5,402,602,392.4z"/>
				<g>
					
						<rect x="674.3" y="404" transform="matrix(0.157 -0.9876 0.9876 0.157 181.6587 1026.1241)" class="st5" width="35.2" height="5.2"/>
				</g>
				<g>
					
						<rect x="606.4" y="393.2" transform="matrix(0.157 -0.9876 0.9876 0.157 135.1069 950.02)" class="st5" width="35.2" height="5.2"/>
				</g>
			</g>
			<g>
				<rect x="316.8" y="442.2" transform="matrix(0.643 -0.7658 0.7658 0.643 -231.655 408.071)" width="10.2" height="20.6"/>
				
					<ellipse transform="matrix(0.533 -0.8461 0.8461 0.533 -241.3818 528.2928)" class="st2" cx="357.9" cy="482.8" rx="43.9" ry="39.1"/>
				
					<ellipse transform="matrix(0.6971 -0.7169 0.7169 0.6971 -237.7578 402.8314)" class="st3" cx="357.9" cy="482.8" rx="36.2" ry="32.2"/>
				
					<ellipse transform="matrix(0.1869 -0.9824 0.9824 0.1869 -211.5323 755.6924)" class="st4" cx="350.7" cy="505.6" rx="5.2" ry="8.9"/>
				<path class="st2" d="M262,402.2L262,402.2c3.9-4.7,10.9-5.3,15.5-1.4l37.4,31.4c4.7,3.9,5.3,10.9,1.4,15.5l0,0
					c-3.9,4.7-10.9,5.3-15.5,1.4l-37.4-31.4C258.7,413.9,258.1,406.9,262,402.2z"/>
				<g>
					
						<rect x="294.6" y="437.2" transform="matrix(0.643 -0.7658 0.7658 0.643 -227.0035 390.744)" class="st5" width="22.1" height="3.3"/>
				</g>
				<g>
					
						<rect x="261.7" y="409.6" transform="matrix(0.643 -0.7658 0.7658 0.643 -217.5801 355.6417)" class="st5" width="22.1" height="3.3"/>
				</g>
			</g>
			<g>
				<rect x="352.4" y="-88" transform="matrix(0.3938 -0.9192 0.9192 0.3938 283.1096 290.139)" width="18.3" height="36.9"/>
				
					<ellipse transform="matrix(0.2653 -0.9642 0.9642 0.2653 357.4844 396.4449)" class="st2" cx="438.9" cy="-36.3" rx="78.6" ry="69.9"/>
				
					<ellipse transform="matrix(0.4598 -0.888 0.888 0.4598 269.3697 370.1023)" class="st3" cx="438.9" cy="-36.3" rx="64.8" ry="57.6"/>
				<ellipse transform="matrix(0.9944 -0.1055 0.1055 0.9944 1.7673 46.28)" class="st4" cx="438.4" cy="6.4" rx="15.9" ry="9.2"/>
				<path class="st2" d="M232.9-124.7L232.9-124.7c4.3-10,15.9-14.7,25.9-10.4l80.3,34.4c10,4.3,14.7,15.9,10.4,25.9v0
					c-4.3,10-15.9,14.7-25.9,10.4l-80.3-34.4C233.3-103.1,228.6-114.7,232.9-124.7z"/>
				<g>
					
						<rect x="306.9" y="-87.5" transform="matrix(0.3938 -0.9192 0.9192 0.3938 275.6949 248.9695)" class="st5" width="39.5" height="5.9"/>
				</g>
				<g>
					
						<rect x="236.1" y="-117.8" transform="matrix(0.3938 -0.9192 0.9192 0.3938 260.6736 165.5646)" class="st5" width="39.5" height="5.9"/>
				</g>
			</g>
			<g>
				<rect x="601.6" y="42.5" transform="matrix(0.9339 -0.3576 0.3576 0.9339 20.2949 221.1735)" width="13.2" height="26.5"/>
				
					<ellipse transform="matrix(0.8766 -0.4812 0.4812 0.8766 23.689 316.8701)" class="st2" cx="629.8" cy="112.2" rx="56.5" ry="50.3"/>
				
					<ellipse transform="matrix(0.9575 -0.2886 0.2886 0.9575 -5.5955 186.5244)" class="st3" cx="629.8" cy="112.2" rx="46.5" ry="41.4"/>
				
					<ellipse transform="matrix(0.6401 -0.7683 0.7683 0.6401 116.1391 514.7313)" class="st4" cx="607.5" cy="133.4" rx="6.6" ry="11.4"/>
				<path class="st2" d="M572.2-38.2L572.2-38.2c7.3-2.8,15.5,0.9,18.3,8.2L613,28.6c2.8,7.3-0.9,15.5-8.2,18.3v0
					c-7.3,2.8-15.5-0.9-18.3-8.2l-22.5-58.7C561.3-27.2,564.9-35.4,572.2-38.2z"/>
				<g>
					
						<rect x="584.3" y="28.1" transform="matrix(0.9339 -0.3576 0.3576 0.9339 28.7691 215.9951)" class="st5" width="28.4" height="4.2"/>
				</g>
				<g>
					
						<rect x="564.5" y="-23.6" transform="matrix(0.9339 -0.3576 0.3576 0.9339 45.9367 205.5041)" class="st5" width="28.4" height="4.2"/>
				</g>
			</g>
			<g>
				<rect x="734.3" y="190.5" transform="matrix(0.5615 -0.8275 0.8275 0.5615 164.7658 706.9685)" width="30.2" height="15"/>
				
					<ellipse transform="matrix(0.4438 -0.8961 0.8961 0.4438 312.1276 784.7256)" class="st2" cx="788.3" cy="140.9" rx="57.4" ry="64.5"/>
				
					<ellipse transform="matrix(0.6203 -0.7844 0.7844 0.6203 188.7909 671.7955)" class="st3" cx="788.3" cy="140.9" rx="47.3" ry="53.1"/>
				
					<ellipse transform="matrix(8.557425e-02 -0.9963 0.9963 8.557425e-02 604.8143 954.9418)" class="st4" cx="822.6" cy="148" rx="13" ry="7.6"/>
				<path class="st2" d="M684.9,293L684.9,293c-7.4-5-9.3-15.1-4.3-22.5l40.3-59.4c5-7.4,15.1-9.3,22.5-4.3v0
					c7.4,5,9.3,15.1,4.3,22.5l-40.3,59.4C702.4,296.1,692.3,298.1,684.9,293z"/>
				<g>
					
						<rect x="729.5" y="207.6" transform="matrix(0.5615 -0.8275 0.8275 0.5615 135.7392 703.7963)" class="st5" width="4.8" height="32.4"/>
				</g>
				<g>
					
						<rect x="694" y="259.9" transform="matrix(0.5615 -0.8275 0.8275 0.5615 76.9345 697.3698)" class="st5" width="4.8" height="32.4"/>
				</g>
			</g>
			<g>
				<rect x="891" y="281" transform="matrix(0.4946 -0.8691 0.8691 0.4946 199.818 925.9855)" width="10.1" height="20.3"/>
				
					<ellipse transform="matrix(0.3719 -0.9283 0.9283 0.3719 296.4899 1066.5317)" class="st2" cx="936.4" cy="314.2" rx="43.3" ry="38.5"/>
				
					<ellipse transform="matrix(0.5566 -0.8308 0.8308 0.5566 154.1805 917.2242)" class="st3" cx="936.4" cy="314.2" rx="35.7" ry="31.7"/>
				
					<ellipse transform="matrix(6.859461e-03 -1 1 6.859461e-03 589.4927 1268.6812)" class="st4" cx="933.5" cy="337.6" rx="5.1" ry="8.8"/>
				<path class="st2" d="M829.1,253.1L829.1,253.1c3-5.2,9.6-7,14.8-4.1l41.9,23.8c5.2,3,7,9.6,4.1,14.8l0,0c-3,5.2-9.6,7-14.8,4.1
					l-41.9-23.8C827.9,264.9,826.1,258.3,829.1,253.1z"/>
				<g>
					
						<rect x="867" y="279.2" transform="matrix(0.4946 -0.8691 0.8691 0.4946 199.6207 904.9384)" class="st5" width="21.8" height="3.2"/>
				</g>
				<g>
					
						<rect x="830.1" y="258.2" transform="matrix(0.4946 -0.8691 0.8691 0.4946 199.2208 862.2991)" class="st5" width="21.8" height="3.2"/>
				</g>
			</g>
			<g>
				<rect x="967.6" y="125.4" transform="matrix(0.8995 -0.4369 0.4369 0.8995 37.8597 439.0567)" width="11.7" height="23.6"/>
				
					<ellipse transform="matrix(0.8318 -0.555 0.555 0.8318 64.5458 584.5897)" class="st2" cx="997" cy="185.8" rx="50.4" ry="44.8"/>
				
					<ellipse transform="matrix(0.929 -0.3702 0.3702 0.929 2.0474 382.2346)" class="st3" cx="997" cy="185.8" rx="41.5" ry="36.9"/>
				
					<ellipse transform="matrix(0.5714 -0.8207 0.8207 0.5714 250.2068 891.6815)" class="st4" cx="978.8" cy="206.3" rx="5.9" ry="10.2"/>
				<path class="st2" d="M934.3,56.5L934.3,56.5c6.3-3.1,13.9-0.4,16.9,5.9l24.5,50.4c3.1,6.3,0.4,13.9-5.9,16.9v0
					c-6.3,3.1-13.9,0.4-16.9-5.9l-24.5-50.4C925.3,67.2,928,59.6,934.3,56.5z"/>
				<g>
					
						<rect x="950.1" y="113.4" transform="matrix(0.8995 -0.4369 0.4369 0.8995 46.3608 432.2078)" class="st5" width="25.3" height="3.8"/>
				</g>
				<g>
					
						<rect x="928.6" y="69.1" transform="matrix(0.8995 -0.4369 0.4369 0.8995 63.583 418.3325)" class="st5" width="25.3" height="3.8"/>
				</g>
			</g>
			<g>
				<rect x="1183.1" y="164" transform="matrix(0.4878 -0.8729 0.8729 0.4878 455.264 1128.4108)" width="12.2" height="24.5"/>
				
					<ellipse transform="matrix(0.3647 -0.9311 0.9311 0.3647 596.9844 1282.1354)" class="st2" cx="1238.1" cy="203.6" rx="52.3" ry="46.5"/>
				
					<ellipse transform="matrix(0.5501 -0.8351 0.8351 0.5501 386.9534 1125.4674)" class="st3" cx="1238.1" cy="203.6" rx="43" ry="38.3"/>
				<ellipse class="st4" cx="1234.8" cy="231.8" rx="10.6" ry="6.1"/>
				<path class="st2" d="M1108,130.9L1108,130.9c3.5-6.3,11.5-8.6,17.9-5.1l50.7,28.3c6.3,3.5,8.6,11.5,5.1,17.9v0
					c-3.5,6.3-11.5,8.6-17.9,5.1l-50.7-28.3C1106.8,145.2,1104.5,137.2,1108,130.9z"/>
				<g>
					
						<rect x="1154.1" y="162" transform="matrix(0.4878 -0.8729 0.8729 0.4878 454.7265 1102.8541)" class="st5" width="26.2" height="3.9"/>
				</g>
				<g>
					
						<rect x="1109.4" y="137" transform="matrix(0.4878 -0.8729 0.8729 0.4878 453.6376 1051.0792)" class="st5" width="26.2" height="3.9"/>
				</g>
			</g>
			<g>
				
					<rect x="1234.8" y="7.6" transform="matrix(7.706361e-02 -0.997 0.997 7.706361e-02 1137.4301 1256.1624)" width="24.8" height="12.3"/>
				
					<ellipse transform="matrix(0.9983 -5.911126e-02 5.911126e-02 0.9983 4.7117 73.9112)" class="st2" cx="1251.6" cy="-42.7" rx="52.8" ry="47"/>
				
					<ellipse transform="matrix(0.1495 -0.9888 0.9888 0.1495 1106.7056 1201.2672)" class="st3" cx="1251.6" cy="-42.7" rx="38.7" ry="43.5"/>
				
					<ellipse transform="matrix(0.9076 -0.4199 0.4199 0.9076 139.8987 532.2791)" class="st4" cx="1279" cy="-51.6" rx="6.2" ry="10.7"/>
				<path class="st2" d="M1240,107.5L1240,107.5c-7.3-0.6-12.8-6.9-12.2-14.2l4.5-58.6c0.6-7.3,6.9-12.8,14.2-12.2l0,0
					c7.3,0.6,12.8,6.9,12.2,14.2l-4.5,58.6C1253.7,102.6,1247.3,108,1240,107.5z"/>
				<g>
					
						<rect x="1243.3" y="25.9" transform="matrix(7.706361e-02 -0.997 0.997 7.706361e-02 1110.2345 1277.6943)" class="st5" width="3.9" height="26.5"/>
				</g>
				<g>
					
						<rect x="1239.3" y="77.5" transform="matrix(7.706361e-02 -0.997 0.997 7.706361e-02 1055.1395 1321.3157)" class="st5" width="3.9" height="26.5"/>
				</g>
			</g>
			<g>
				
					<rect x="1469.4" y="168.1" transform="matrix(4.494320e-02 -0.999 0.999 4.494320e-02 1227.566 1650.2759)" width="14.9" height="30"/>
				
					<ellipse transform="matrix(0.9958 -9.120058e-02 9.120058e-02 0.9958 -10.5483 141.7129)" class="st2" cx="1545.3" cy="186.3" rx="56.9" ry="64"/>
				
					<ellipse transform="matrix(0.1176 -0.9931 0.9931 0.1176 1178.6008 1698.9874)" class="st3" cx="1545.3" cy="186.3" rx="52.7" ry="46.9"/>
				
					<ellipse transform="matrix(0.8936 -0.4489 0.4489 0.8936 67.399 722.3475)" class="st4" cx="1557.2" cy="219" rx="12.9" ry="7.5"/>
				<path class="st2" d="M1363.1,178L1363.1,178c0.4-8.9,7.9-15.7,16.8-15.3l71.1,3.2c8.9,0.4,15.7,7.9,15.3,16.8v0
					c-0.4,8.9-7.9,15.7-16.8,15.3l-71.1-3.2C1369.5,194.4,1362.7,186.9,1363.1,178z"/>
				<g>
					
						<rect x="1429.9" y="179.3" transform="matrix(4.494320e-02 -0.999 0.999 4.494320e-02 1199.4391 1618.0745)" class="st5" width="32.1" height="4.8"/>
				</g>
				<g>
					
						<rect x="1367.3" y="176.5" transform="matrix(4.494320e-02 -0.999 0.999 4.494320e-02 1142.4573 1552.8379)" class="st5" width="32.1" height="4.8"/>
				</g>
			</g>
			<g>
				<rect x="1477" y="506.9" transform="matrix(0.5333 -0.8459 0.8459 0.5333 261.2741 1504.234)" width="34.1" height="16.9"/>
				
					<ellipse transform="matrix(0.4135 -0.9105 0.9105 0.4135 491.3275 1661.8181)" class="st2" cx="1535.5" cy="449.5" rx="64.6" ry="72.7"/>
				
					<ellipse transform="matrix(0.5936 -0.8048 0.8048 0.5936 262.313 1418.5)" class="st3" cx="1535.5" cy="449.5" rx="53.2" ry="59.9"/>
				
					<ellipse transform="matrix(5.203488e-02 -0.9986 0.9986 5.203488e-02 1037.0128 2004.8589)" class="st4" cx="1574.5" cy="456.2" rx="14.7" ry="8.5"/>
				<path class="st2" d="M1425,624.7L1425,624.7c-8.5-5.4-11.1-16.6-5.7-25.2l43.1-68.3c5.4-8.5,16.6-11.1,25.2-5.7l0,0
					c8.5,5.4,11.1,16.6,5.7,25.2l-43.1,68.3C1444.8,627.5,1433.5,630.1,1425,624.7z"/>
				<g>
					
						<rect x="1472.5" y="526.8" transform="matrix(0.5333 -0.8459 0.8459 0.5333 227.4073 1502.2532)" class="st5" width="5.4" height="36.5"/>
				</g>
				<g>
					
						<rect x="1434.6" y="587" transform="matrix(0.5333 -0.8459 0.8459 0.5333 158.7971 1498.2402)" class="st5" width="5.4" height="36.5"/>
				</g>
			</g>
			<g>
				<rect x="1650.5" y="336.2" transform="matrix(0.567 -0.8237 0.8237 0.567 428.5387 1517.7971)" width="15" height="30.2"/>
				
					<ellipse transform="matrix(0.4499 -0.8931 0.8931 0.4499 594.6819 1746.1691)" class="st2" cx="1714.7" cy="390.4" rx="64.3" ry="57.2"/>
				
					<ellipse transform="matrix(0.6255 -0.7802 0.7802 0.6255 337.5125 1483.9772)" class="st3" cx="1714.7" cy="390.4" rx="53" ry="47.1"/>
				
					<ellipse transform="matrix(9.227346e-02 -0.9957 0.9957 9.227346e-02 1127.0699 2085.5813)" class="st4" cx="1707.4" cy="424.6" rx="7.5" ry="13"/>
				<path class="st2" d="M1563.7,286.4L1563.7,286.4c5.1-7.3,15.1-9.2,22.5-4.1l58.9,40.6c7.3,5.1,9.2,15.1,4.1,22.5v0
					c-5.1,7.3-15.1,9.2-22.5,4.1l-58.9-40.6C1560.5,303.8,1558.7,293.7,1563.7,286.4z"/>
				<g>
					
						<rect x="1616.3" y="331.2" transform="matrix(0.567 -0.8237 0.8237 0.567 431.9711 1489.0752)" class="st5" width="32.3" height="4.8"/>
				</g>
				<g>
					
						<rect x="1564.4" y="295.5" transform="matrix(0.567 -0.8237 0.8237 0.567 438.9248 1430.8881)" class="st5" width="32.3" height="4.8"/>
				</g>
			</g>
			<g>
				<rect x="1411.6" y="37.5" transform="matrix(0.8712 -0.4909 0.4909 0.8712 162.1252 703.8811)" width="21.9" height="10.9"/>
				
					<ellipse transform="matrix(0.7964 -0.6047 0.6047 0.7964 239.9142 847.6212)" class="st2" cx="1378.9" cy="67.5" rx="41.6" ry="46.7"/>
				
					<ellipse transform="matrix(0.9047 -0.4261 0.4261 0.9047 102.7158 594.0349)" class="st3" cx="1378.9" cy="67.5" rx="34.2" ry="38.5"/>
				
					<ellipse transform="matrix(0.5203 -0.854 0.854 0.5203 607.6886 1185.3741)" class="st4" cx="1358.9" cy="51.8" rx="9.4" ry="5.5"/>
				<path class="st2" d="M1495,2.1L1495,2.1c3.2,5.6,1.2,12.8-4.5,16l-45.2,25.5c-5.6,3.2-12.8,1.2-16-4.5v0
					c-3.2-5.6-1.2-12.8,4.5-16L1479-2.3C1484.6-5.5,1491.8-3.5,1495,2.1z"/>
				<g>
					
						<rect x="1440.5" y="20.1" transform="matrix(0.8712 -0.4909 0.4909 0.8712 170.0981 712.1082)" class="st5" width="3.5" height="23.5"/>
				</g>
				<g>
					
						<rect x="1480.3" y="-2.3" transform="matrix(0.8712 -0.4909 0.4909 0.8712 186.2503 728.7753)" class="st5" width="3.5" height="23.5"/>
				</g>
			</g>
			<g>
				<rect x="1588.8" y="-24" transform="matrix(0.493 -0.87 0.87 0.493 827.5474 1388.1385)" width="32.1" height="15.9"/>
				
					<ellipse transform="matrix(0.3703 -0.9289 0.9289 0.3703 1107.5498 1474.2344)" class="st2" cx="1641.1" cy="-79.8" rx="60.9" ry="68.5"/>
				
					<ellipse transform="matrix(0.5551 -0.8318 0.8318 0.5551 796.4227 1329.5265)" class="st3" cx="1641.1" cy="-79.8" rx="50.2" ry="56.4"/>
				
					<ellipse transform="matrix(5.102667e-03 -1 1 5.102667e-03 1744.7604 1603.2308)" class="st4" cx="1678.1" cy="-75.2" rx="13.8" ry="8"/>
				<path class="st2" d="M1544.8,90L1544.8,90c-8.3-4.7-11.2-15.2-6.5-23.4l37.5-66.2c4.7-8.3,15.2-11.2,23.4-6.5l0,0
					c8.3,4.7,11.2,15.2,6.5,23.4l-37.5,66.2C1563.6,91.8,1553.1,94.7,1544.8,90z"/>
				<g>
					
						<rect x="1586" y="-4.4" transform="matrix(0.493 -0.87 0.87 0.493 794.2317 1388.5387)" class="st5" width="5.1" height="34.4"/>
				</g>
				<g>
					
						<rect x="1553" y="53.9" transform="matrix(0.493 -0.87 0.87 0.493 726.7379 1389.3495)" class="st5" width="5.1" height="34.4"/>
				</g>
			</g>
			<g>
				<rect x="1351.2" y="316.4" transform="matrix(0.9232 -0.3843 0.3843 0.9232 -19.4123 549.3041)" width="27.5" height="13.7"/>
				
					<ellipse transform="matrix(0.8625 -0.5061 0.5061 0.8625 44.3051 761.3451)" class="st2" cx="1422.9" cy="299.2" rx="52.2" ry="58.7"/>
				
					<ellipse transform="matrix(0.9488 -0.316 0.316 0.9488 -21.6265 464.9261)" class="st3" cx="1422.9" cy="299.2" rx="43" ry="48.3"/>
				
					<ellipse transform="matrix(0.6178 -0.7864 0.7864 0.6178 299.5921 1259.7001)" class="st4" cx="1445.6" cy="321.7" rx="11.9" ry="6.9"/>
				<path class="st2" d="M1268.5,363.4L1268.5,363.4c-3.1-7.5,0.4-16.1,7.9-19.3l60.2-25.1c7.5-3.1,16.1,0.4,19.3,7.9v0
					c3.1,7.5-0.4,16.1-7.9,19.3l-60.2,25.1C1280.3,374.4,1271.7,370.9,1268.5,363.4z"/>
				<g>
					
						<rect x="1336.6" y="319.4" transform="matrix(0.9232 -0.3843 0.3843 0.9232 -25.6084 540.0822)" class="st5" width="4.4" height="29.5"/>
				</g>
				<g>
					
						<rect x="1283.5" y="341.5" transform="matrix(0.9232 -0.3843 0.3843 0.9232 -38.161 521.3998)" class="st5" width="4.4" height="29.5"/>
				</g>
			</g>
			<g>
				<rect x="1259.8" y="445.8" transform="matrix(0.5042 -0.8636 0.8636 0.5042 231.8654 1320.5953)" width="12.5" height="25.1"/>
				
					<ellipse transform="matrix(0.3822 -0.9241 0.9241 0.3822 362.4143 1516.8326)" class="st2" cx="1315.6" cy="487.4" rx="53.6" ry="47.7"/>
				
					<ellipse transform="matrix(0.5658 -0.8246 0.8246 0.5658 169.385 1296.4078)" class="st3" cx="1315.6" cy="487.4" rx="44.2" ry="39.3"/>
				
					<ellipse transform="matrix(1.796579e-02 -0.9998 0.9998 1.796579e-02 771.8959 1818.4878)" class="st4" cx="1311.7" cy="516.3" rx="6.3" ry="10.8"/>
				<path class="st2" d="M1183.6,410.2L1183.6,410.2c3.7-6.4,12-8.6,18.4-4.8l51.5,30.1c6.4,3.7,8.6,12,4.8,18.4l0,0
					c-3.7,6.4-12,8.6-18.4,4.8l-51.5-30.1C1182,424.9,1179.9,416.7,1183.6,410.2z"/>
				<g>
					
						<rect x="1230.2" y="443.3" transform="matrix(0.5042 -0.8636 0.8636 0.5042 232.0535 1294.7845)" class="st5" width="26.9" height="4"/>
				</g>
				<g>
					
						<rect x="1184.8" y="416.8" transform="matrix(0.5042 -0.8636 0.8636 0.5042 232.4344 1242.4949)" class="st5" width="26.9" height="4"/>
				</g>
			</g>
			<g>
				<rect x="1075.1" y="26" transform="matrix(0.7119 -0.7023 0.7023 0.7119 290.8264 771.6389)" width="21.4" height="10.7"/>
				
					<ellipse transform="matrix(0.6099 -0.7925 0.7925 0.6099 439.6351 887.0508)" class="st2" cx="1120.8" cy="-3" rx="40.7" ry="45.8"/>
				
					<ellipse transform="matrix(0.7612 -0.6486 0.6486 0.7612 269.628 726.1733)" class="st3" cx="1120.8" cy="-3" rx="33.5" ry="37.7"/>
				
					<ellipse transform="matrix(0.278 -0.9606 0.9606 0.278 819.3896 1103.4554)" class="st4" cx="1143.7" cy="6.7" rx="9.2" ry="5.4"/>
				<path class="st2" d="M1027.9,88.6L1027.9,88.6c-4.5-4.5-4.4-11.8,0.1-16.2l36.2-35.7c4.5-4.5,11.8-4.4,16.2,0.1v0
					c4.5,4.5,4.4,11.8-0.1,16.2l-36.2,35.7C1039.6,93.1,1032.3,93.1,1027.9,88.6z"/>
				<g>
					
						<rect x="1068.4" y="35.4" transform="matrix(0.7119 -0.7023 0.7023 0.7119 275.3839 765.058)" class="st5" width="3.4" height="23"/>
				</g>
				<g>
					
						<rect x="1036.5" y="66.9" transform="matrix(0.7119 -0.7023 0.7023 0.7119 244.0993 751.726)" class="st5" width="3.4" height="23"/>
				</g>
			</g>
			<g>
				<rect x="1059.4" y="360.7" transform="matrix(0.8073 -0.5901 0.5901 0.8073 -10.2934 705.3668)" width="31.3" height="15.6"/>
				
					<ellipse transform="matrix(0.7197 -0.6943 0.6943 0.7197 90.997 878.0009)" class="st2" cx="1132.8" cy="326.3" rx="59.4" ry="66.8"/>
				
					<ellipse transform="matrix(0.8482 -0.5297 0.5297 0.8482 -0.869 649.5922)" class="st3" cx="1132.8" cy="326.3" rx="48.9" ry="55"/>
				
					<ellipse transform="matrix(0.4161 -0.9093 0.9093 0.4161 365.7161 1259.8943)" class="st4" cx="1163.8" cy="345.2" rx="13.5" ry="7.8"/>
				<path class="st2" d="M979.1,438.6L979.1,438.6c-5.5-7.5-3.8-18,3.6-23.4l59.9-43.8c7.5-5.5,18-3.8,23.4,3.6v0
					c5.5,7.5,3.8,18-3.6,23.4l-59.9,43.8C995,447.7,984.5,446.1,979.1,438.6z"/>
				<g>
					
						<rect x="1046.5" y="370.7" transform="matrix(0.8073 -0.5901 0.5901 0.8073 -26.5524 693.6608)" class="st5" width="5" height="33.5"/>
				</g>
				<g>
					
						<rect x="993.7" y="409.3" transform="matrix(0.8073 -0.5901 0.5901 0.8073 -59.4913 669.9456)" class="st5" width="5" height="33.5"/>
				</g>
			</g>
			<g>
				<rect x="965.3" y="495.4" transform="matrix(0.6707 -0.7418 0.7418 0.6707 -55.3756 886.2488)" width="10.1" height="20.3"/>
				
					<ellipse transform="matrix(0.5637 -0.826 0.826 0.5637 -4.84 1063.9771)" class="st2" cx="1004.7" cy="536.6" rx="43.2" ry="38.5"/>
				
					<ellipse transform="matrix(0.7229 -0.6909 0.6909 0.7229 -92.3668 842.8029)" class="st3" cx="1004.7" cy="536.6" rx="35.6" ry="31.7"/>
				
					<ellipse transform="matrix(0.2227 -0.9749 0.9749 0.2227 230.0645 1406.0308)" class="st4" cx="996.8" cy="558.7" rx="5.1" ry="8.7"/>
				<path class="st2" d="M913.3,453.9L913.3,453.9c4-4.4,10.9-4.8,15.3-0.8l35.7,32.2c4.4,4,4.8,10.9,0.8,15.3l0,0
					c-4,4.4-10.9,4.8-15.3,0.8l-35.7-32.2C909.6,465.2,909.3,458.3,913.3,453.9z"/>
				<g>
					
						<rect x="944" y="489.9" transform="matrix(0.6707 -0.7418 0.7418 0.6707 -50.0857 870.1388)" class="st5" width="21.7" height="3.2"/>
				</g>
				<g>
					
						<rect x="912.6" y="461.5" transform="matrix(0.6707 -0.7418 0.7418 0.6707 -39.3689 837.5017)" class="st5" width="21.7" height="3.2"/>
				</g>
			</g>
			<g>
				<rect x="886.7" y="-27.3" transform="matrix(0.9472 -0.3207 0.3207 0.9472 54.3408 287.0945)" width="23.7" height="11.8"/>
				
					<ellipse transform="matrix(0.8948 -0.4465 0.4465 0.8948 90.9409 377.83)" class="st2" cx="847.2" cy="-4.1" rx="45" ry="50.6"/>
				
					<ellipse transform="matrix(0.968 -0.2509 0.2509 0.968 28.115 212.4216)" class="st3" cx="847.2" cy="-4.1" rx="37.1" ry="41.7"/>
				
					<ellipse transform="matrix(0.6697 -0.7426 0.7426 0.6697 292.2542 607.5192)" class="st4" cx="829.1" cy="-24.8" rx="10.2" ry="5.9"/>
				<path class="st2" d="M983.9-50.3L983.9-50.3c2.3,6.6-1.3,13.9-8,16.1l-53.3,18.1c-6.6,2.3-13.9-1.3-16.1-8v0
					c-2.3-6.6,1.3-13.9,8-16.1l53.3-18.1C974.5-60.5,981.7-56.9,983.9-50.3z"/>
				<g>
					
						<rect x="919.9" y="-42" transform="matrix(0.9472 -0.3207 0.3207 0.9472 58.0823 294.1129)" class="st5" width="3.8" height="25.4"/>
				</g>
				<g>
					
						<rect x="966.8" y="-57.9" transform="matrix(0.9472 -0.3207 0.3207 0.9472 65.6622 308.3312)" class="st5" width="3.8" height="25.4"/>
				</g>
			</g>
		</g>
	</g>
	<g>
		<defs>
			<ellipse id="SVGID_00000007401868606875387860000007235748945990813885_" cx="1552.4" cy="479" rx="18.6" ry="11.5"/>
		</defs>
		<clipPath id="SVGID_00000165944691402641746610000008111704140386225585_">
			<use xlink:href="#SVGID_00000007401868606875387860000007235748945990813885_"  style="overflow:visible;"/>
		</clipPath>
		<g style="clip-path:url(#SVGID_00000165944691402641746610000008111704140386225585_);">
			<g>
				<rect x="28.5" y="436.4" transform="matrix(0.8278 -0.561 0.561 0.8278 -241.9305 103.1317)" width="37.1" height="18.4"/>
				
					<ellipse transform="matrix(0.7439 -0.6683 0.6683 0.7439 -236.0773 180.3312)" class="st2" cx="117.2" cy="398.2" rx="70.4" ry="79.2"/>
				
					<ellipse transform="matrix(0.8665 -0.4992 0.4992 0.8665 -183.1264 111.6985)" class="st3" cx="117.2" cy="398.2" rx="58" ry="65.2"/>
				
					<ellipse transform="matrix(0.4481 -0.894 0.894 0.4481 -292.5552 369.7923)" class="st4" cx="153.2" cy="421.8" rx="16" ry="9.3"/>
				<path class="st2" d="M-69.6,524.7L-69.6,524.7c-6.2-9.1-3.8-21.4,5.3-27.6l72.9-49.4c9.1-6.2,21.4-3.8,27.6,5.3l0,0
					c6.2,9.1,3.8,21.4-5.3,27.6L-42,530C-51.1,536.2-63.4,533.8-69.6,524.7z"/>
				<g>
					
						<rect x="12.4" y="447.2" transform="matrix(0.8278 -0.561 0.561 0.8278 -259.4248 89.0617)" class="st5" width="5.9" height="39.7"/>
				</g>
				<g>
					
						<rect x="-51.7" y="490.7" transform="matrix(0.8278 -0.561 0.561 0.8278 -294.8664 60.5575)" class="st5" width="5.9" height="39.7"/>
				</g>
			</g>
			<g>
				<rect x="-34.7" y="292.4" transform="matrix(0.3038 -0.9527 0.9527 0.3038 -299.5437 188.8253)" width="28.2" height="14"/>
				
					<ellipse transform="matrix(0.1715 -0.9852 0.9852 0.1715 -235.2618 196.266)" class="st2" cx="-0.9" cy="238" rx="53.5" ry="60.2"/>
				
					<ellipse transform="matrix(0.3724 -0.9281 0.9281 0.3724 -221.4815 148.5078)" class="st3" cx="-0.9" cy="238" rx="44.1" ry="49.6"/>
				
					<ellipse transform="matrix(0.9797 -0.2005 0.2005 0.9797 -46.5155 11.1274)" class="st4" cx="31.7" cy="235.2" rx="7.1" ry="12.2"/>
				<path class="st2" d="M-53.1,401.4L-53.1,401.4c-7.9-2.5-12.3-11-9.8-19l20.3-63.7c2.5-7.9,11-12.3,19-9.8h0
					c7.9,2.5,12.3,11,9.8,19l-20.3,63.7C-36.7,399.5-45.2,403.9-53.1,401.4z"/>
				<g>
					
						<rect x="-31.7" y="312" transform="matrix(0.3038 -0.9527 0.9527 0.3038 -332.0853 199.6968)" class="st5" width="4.5" height="30.2"/>
				</g>
				<g>
					
						<rect x="-49.5" y="368.1" transform="matrix(0.3038 -0.9527 0.9527 0.3038 -398.0107 221.7212)" class="st5" width="4.5" height="30.2"/>
				</g>
			</g>
			<g>
				<rect x="21.5" y="30.8" transform="matrix(0.6786 -0.7345 0.7345 0.6786 -16.4736 40.9115)" width="34" height="16.9"/>
				
					<ellipse transform="matrix(0.5725 -0.8199 0.8199 0.5725 53.5576 67.2702)" class="st2" cx="91.3" cy="-17.7" rx="64.5" ry="72.6"/>
				
					<ellipse transform="matrix(0.7303 -0.6831 0.6831 0.7303 36.7273 57.5804)" class="st3" cx="91.3" cy="-17.7" rx="53.2" ry="59.8"/>
				
					<ellipse transform="matrix(0.2332 -0.9724 0.9724 0.2332 102.3982 121.6643)" class="st4" cx="128.3" cy="-4.1" rx="14.7" ry="8.5"/>
				<path class="st2" d="M-49.1,134.1L-49.1,134.1c-7.4-6.8-7.8-18.4-1-25.7L4.6,49.1c6.8-7.4,18.4-7.8,25.7-1l0,0
					c7.4,6.8,7.8,18.4,1,25.7l-54.7,59.2C-30.2,140.5-41.7,140.9-49.1,134.1z"/>
				<g>
					
						<rect x="12" y="46.8" transform="matrix(0.6786 -0.7345 0.7345 0.6786 -43.0374 31.7131)" class="st5" width="5.4" height="36.4"/>
				</g>
				<g>
					
						<rect x="-36.2" y="99" transform="matrix(0.6786 -0.7345 0.7345 0.6786 -96.8526 13.0783)" class="st5" width="5.4" height="36.4"/>
				</g>
			</g>
			<g>
				<rect x="222.4" y="75.4" transform="matrix(0.974 -0.2268 0.2268 0.974 -12.334 55.2111)" width="23.5" height="11.7"/>
				
					<ellipse transform="matrix(0.9341 -0.357 0.357 0.9341 -5.8076 106.8414)" class="st2" cx="286.5" cy="69.2" rx="44.7" ry="50.2"/>
				
					<ellipse transform="matrix(0.9879 -0.1552 0.1552 0.9879 -7.2604 45.3023)" class="st3" cx="286.5" cy="69.2" rx="36.8" ry="41.4"/>
				
					<ellipse transform="matrix(0.739 -0.6737 0.6737 0.739 17.3928 227.6183)" class="st4" cx="302.5" cy="91.4" rx="10.1" ry="5.9"/>
				<path class="st2" d="M147.1,101.6L147.1,101.6c-1.6-6.8,2.6-13.6,9.4-15.1l54.4-12.7c6.8-1.6,13.6,2.6,15.1,9.4v0
					c1.6,6.8-2.6,13.6-9.4,15.1L162.2,111C155.4,112.6,148.7,108.3,147.1,101.6z"/>
				<g>
					
						<rect x="208.6" y="74.2" transform="matrix(0.974 -0.2268 0.2268 0.974 -14.1977 49.9944)" class="st5" width="3.8" height="25.2"/>
				</g>
				<g>
					
						<rect x="160.7" y="85.3" transform="matrix(0.974 -0.2268 0.2268 0.974 -17.9734 39.4258)" class="st5" width="3.8" height="25.2"/>
				</g>
			</g>
			<g>
				<rect x="192.5" y="221.2" transform="matrix(0.6118 -0.791 0.791 0.6118 -109.6827 250.4354)" width="15.7" height="31.5"/>
				
					<ellipse transform="matrix(0.4987 -0.8668 0.8668 0.4987 -114.6878 363.886)" class="st2" cx="257.2" cy="281.1" rx="67.3" ry="59.8"/>
				
					<ellipse transform="matrix(0.6678 -0.7443 0.7443 0.6678 -123.7744 284.8347)" class="st3" cx="257.2" cy="281.1" rx="55.4" ry="49.3"/>
				
					<ellipse transform="matrix(0.1473 -0.9891 0.9891 0.1473 -101.7986 514.7445)" class="st4" cx="247.6" cy="316.4" rx="7.9" ry="13.6"/>
				<path class="st2" d="M105.6,163.7L105.6,163.7c5.7-7.4,16.3-8.7,23.7-3l59.2,45.8c7.4,5.7,8.7,16.3,3,23.7l0,0
					c-5.7,7.4-16.3,8.7-23.7,3l-59.2-45.8C101.3,181.7,99.9,171.1,105.6,163.7z"/>
				<g>
					
						<rect x="157.7" y="214.6" transform="matrix(0.6118 -0.791 0.791 0.6118 -103.9335 222.3771)" class="st5" width="33.8" height="5"/>
				</g>
				<g>
					
						<rect x="105.6" y="174.3" transform="matrix(0.6118 -0.791 0.791 0.6118 -92.2865 165.5342)" class="st5" width="33.8" height="5"/>
				</g>
			</g>
			<g>
				<rect x="398.5" y="236.4" transform="matrix(0.321 -0.9471 0.9471 0.321 50.6684 562.0864)" width="37.6" height="18.7"/>
				
					<ellipse transform="matrix(0.1893 -0.9819 0.9819 0.1893 199.4016 570.1727)" class="st2" cx="445" cy="164.3" rx="71.4" ry="80.3"/>
				
					<ellipse transform="matrix(0.3891 -0.9212 0.9212 0.3891 120.4643 510.3116)" class="st3" cx="445" cy="164.3" rx="58.8" ry="66.1"/>
				
					<ellipse transform="matrix(0.9832 -0.1827 0.1827 0.9832 -21.2674 91.9845)" class="st4" cx="488.6" cy="161.4" rx="9.4" ry="16.2"/>
				<path class="st2" d="M371.5,381L371.5,381c-10.5-3.6-16.2-15-12.6-25.6l28.6-84.5c3.6-10.5,15-16.2,25.6-12.6h0
					c10.5,3.6,16.2,15,12.6,25.6L397,368.4C393.4,379,382,384.6,371.5,381z"/>
				<g>
					
						<rect x="401.9" y="262.3" transform="matrix(0.321 -0.9471 0.9471 0.321 7.4127 575.243)" class="st5" width="6" height="40.3"/>
				</g>
				<g>
					
						<rect x="376.6" y="336.7" transform="matrix(0.321 -0.9471 0.9471 0.321 -80.2183 601.8968)" class="st5" width="6" height="40.3"/>
				</g>
			</g>
			<g>
				<rect x="503.5" y="349.6" transform="matrix(0.8699 -0.4931 0.4931 0.8699 -107.9446 298.8486)" width="18.2" height="9"/>
				
					<ellipse transform="matrix(0.7949 -0.6068 0.6068 0.7949 -89.8436 401.4476)" class="st2" cx="548.8" cy="333.6" rx="34.6" ry="38.9"/>
				
					<ellipse transform="matrix(0.9036 -0.4284 0.4284 0.9036 -90.0058 267.3142)" class="st3" cx="548.8" cy="333.6" rx="28.5" ry="32"/>
				
					<ellipse transform="matrix(0.5181 -0.8553 0.8553 0.5181 -23.922 650.7411)" class="st4" cx="565.5" cy="346.6" rx="7.8" ry="4.6"/>
				<path class="st2" d="M452.5,388.2L452.5,388.2c-2.7-4.7-1-10.6,3.7-13.3l37.6-21.3c4.7-2.7,10.6-1,13.3,3.7l0,0
					c2.7,4.7,1,10.6-3.7,13.3l-37.6,21.3C461.1,394.5,455.1,392.9,452.5,388.2z"/>
				<g>
					
						<rect x="494.8" y="353.6" transform="matrix(0.8699 -0.4931 0.4931 0.8699 -114.6348 291.9979)" class="st5" width="2.9" height="19.5"/>
				</g>
				<g>
					
						<rect x="461.8" y="372.3" transform="matrix(0.8699 -0.4931 0.4931 0.8699 -128.1883 278.1191)" class="st5" width="2.9" height="19.5"/>
				</g>
			</g>
			<g>
				<rect x="528" y="519.6" transform="matrix(0.9457 -0.3251 0.3251 0.9457 -144.1311 202.6777)" width="13" height="26.1"/>
				
					<ellipse transform="matrix(0.8928 -0.4505 0.4505 0.8928 -159.2976 283.1627)" class="st2" cx="515.1" cy="476.2" rx="55.8" ry="49.6"/>
				
					<ellipse transform="matrix(0.9669 -0.2553 0.2553 0.9669 -104.498 147.2915)" class="st3" cx="515.1" cy="476.2" rx="45.9" ry="40.9"/>
				
					<ellipse transform="matrix(0.6663 -0.7457 0.7457 0.6663 -160.6009 553.2863)" class="st4" cx="537.9" cy="456.1" rx="6.5" ry="11.3"/>
				<path class="st2" d="M566.8,626.6L566.8,626.6c-7.3,2.5-15.3-1.4-17.8-8.7l-20.2-58.6c-2.5-7.3,1.4-15.3,8.7-17.8h0
					c7.3-2.5,15.3,1.4,17.8,8.7l20.2,58.6C578,616.1,574.1,624,566.8,626.6z"/>
				<g>
					
						<rect x="529.3" y="556.1" transform="matrix(0.9457 -0.3251 0.3251 0.9457 -151.9407 206.9099)" class="st5" width="28" height="4.2"/>
				</g>
				<g>
					
						<rect x="547" y="607.7" transform="matrix(0.9457 -0.3251 0.3251 0.9457 -167.7621 215.4839)" class="st5" width="28" height="4.2"/>
				</g>
			</g>
			<g>
				<rect x="717.2" y="395.5" transform="matrix(0.157 -0.9876 0.9876 0.157 204.6372 1063.6901)" width="16.3" height="32.9"/>
				
					<ellipse transform="matrix(2.133299e-02 -0.9998 0.9998 2.133299e-02 358.7501 1214.1975)" class="st2" cx="799.6" cy="423.9" rx="70.2" ry="62.4"/>
				
					<ellipse transform="matrix(0.2285 -0.9735 0.9735 0.2285 204.2109 1105.4064)" class="st3" cx="799.6" cy="423.9" rx="57.8" ry="51.4"/>
				
					<ellipse transform="matrix(0.9384 -0.3456 0.3456 0.9384 -109.4985 307.8089)" class="st4" cx="808.5" cy="461" rx="14.2" ry="8.2"/>
				<path class="st2" d="M602,392.4L602,392.4c1.5-9.6,10.6-16.2,20.2-14.6l77.1,12.2c9.6,1.5,16.2,10.6,14.6,20.2v0
					c-1.5,9.6-10.6,16.2-20.2,14.6l-77.1-12.2C607,411,600.5,402,602,392.4z"/>
				<g>
					
						<rect x="674.3" y="404" transform="matrix(0.157 -0.9876 0.9876 0.157 181.6587 1026.1241)" class="st5" width="35.2" height="5.2"/>
				</g>
				<g>
					
						<rect x="606.4" y="393.2" transform="matrix(0.157 -0.9876 0.9876 0.157 135.1069 950.02)" class="st5" width="35.2" height="5.2"/>
				</g>
			</g>
			<g>
				<rect x="316.8" y="442.2" transform="matrix(0.643 -0.7658 0.7658 0.643 -231.655 408.071)" width="10.2" height="20.6"/>
				
					<ellipse transform="matrix(0.533 -0.8461 0.8461 0.533 -241.3818 528.2928)" class="st2" cx="357.9" cy="482.8" rx="43.9" ry="39.1"/>
				
					<ellipse transform="matrix(0.6971 -0.7169 0.7169 0.6971 -237.7578 402.8314)" class="st3" cx="357.9" cy="482.8" rx="36.2" ry="32.2"/>
				
					<ellipse transform="matrix(0.1869 -0.9824 0.9824 0.1869 -211.5323 755.6924)" class="st4" cx="350.7" cy="505.6" rx="5.2" ry="8.9"/>
				<path class="st2" d="M262,402.2L262,402.2c3.9-4.7,10.9-5.3,15.5-1.4l37.4,31.4c4.7,3.9,5.3,10.9,1.4,15.5l0,0
					c-3.9,4.7-10.9,5.3-15.5,1.4l-37.4-31.4C258.7,413.9,258.1,406.9,262,402.2z"/>
				<g>
					
						<rect x="294.6" y="437.2" transform="matrix(0.643 -0.7658 0.7658 0.643 -227.0035 390.744)" class="st5" width="22.1" height="3.3"/>
				</g>
				<g>
					
						<rect x="261.7" y="409.6" transform="matrix(0.643 -0.7658 0.7658 0.643 -217.5801 355.6417)" class="st5" width="22.1" height="3.3"/>
				</g>
			</g>
			<g>
				<rect x="352.4" y="-88" transform="matrix(0.3938 -0.9192 0.9192 0.3938 283.1096 290.139)" width="18.3" height="36.9"/>
				
					<ellipse transform="matrix(0.2653 -0.9642 0.9642 0.2653 357.4844 396.4449)" class="st2" cx="438.9" cy="-36.3" rx="78.6" ry="69.9"/>
				
					<ellipse transform="matrix(0.4598 -0.888 0.888 0.4598 269.3697 370.1023)" class="st3" cx="438.9" cy="-36.3" rx="64.8" ry="57.6"/>
				<ellipse transform="matrix(0.9944 -0.1055 0.1055 0.9944 1.7673 46.28)" class="st4" cx="438.4" cy="6.4" rx="15.9" ry="9.2"/>
				<path class="st2" d="M232.9-124.7L232.9-124.7c4.3-10,15.9-14.7,25.9-10.4l80.3,34.4c10,4.3,14.7,15.9,10.4,25.9v0
					c-4.3,10-15.9,14.7-25.9,10.4l-80.3-34.4C233.3-103.1,228.6-114.7,232.9-124.7z"/>
				<g>
					
						<rect x="306.9" y="-87.5" transform="matrix(0.3938 -0.9192 0.9192 0.3938 275.6949 248.9695)" class="st5" width="39.5" height="5.9"/>
				</g>
				<g>
					
						<rect x="236.1" y="-117.8" transform="matrix(0.3938 -0.9192 0.9192 0.3938 260.6736 165.5646)" class="st5" width="39.5" height="5.9"/>
				</g>
			</g>
			<g>
				<rect x="601.6" y="42.5" transform="matrix(0.9339 -0.3576 0.3576 0.9339 20.2949 221.1735)" width="13.2" height="26.5"/>
				
					<ellipse transform="matrix(0.8766 -0.4812 0.4812 0.8766 23.689 316.8701)" class="st2" cx="629.8" cy="112.2" rx="56.5" ry="50.3"/>
				
					<ellipse transform="matrix(0.9575 -0.2886 0.2886 0.9575 -5.5955 186.5244)" class="st3" cx="629.8" cy="112.2" rx="46.5" ry="41.4"/>
				
					<ellipse transform="matrix(0.6401 -0.7683 0.7683 0.6401 116.1391 514.7313)" class="st4" cx="607.5" cy="133.4" rx="6.6" ry="11.4"/>
				<path class="st2" d="M572.2-38.2L572.2-38.2c7.3-2.8,15.5,0.9,18.3,8.2L613,28.6c2.8,7.3-0.9,15.5-8.2,18.3v0
					c-7.3,2.8-15.5-0.9-18.3-8.2l-22.5-58.7C561.3-27.2,564.9-35.4,572.2-38.2z"/>
				<g>
					
						<rect x="584.3" y="28.1" transform="matrix(0.9339 -0.3576 0.3576 0.9339 28.7691 215.9951)" class="st5" width="28.4" height="4.2"/>
				</g>
				<g>
					
						<rect x="564.5" y="-23.6" transform="matrix(0.9339 -0.3576 0.3576 0.9339 45.9367 205.5041)" class="st5" width="28.4" height="4.2"/>
				</g>
			</g>
			<g>
				<rect x="734.3" y="190.5" transform="matrix(0.5615 -0.8275 0.8275 0.5615 164.7658 706.9685)" width="30.2" height="15"/>
				
					<ellipse transform="matrix(0.4438 -0.8961 0.8961 0.4438 312.1276 784.7256)" class="st2" cx="788.3" cy="140.9" rx="57.4" ry="64.5"/>
				
					<ellipse transform="matrix(0.6203 -0.7844 0.7844 0.6203 188.7909 671.7955)" class="st3" cx="788.3" cy="140.9" rx="47.3" ry="53.1"/>
				
					<ellipse transform="matrix(8.557425e-02 -0.9963 0.9963 8.557425e-02 604.8143 954.9418)" class="st4" cx="822.6" cy="148" rx="13" ry="7.6"/>
				<path class="st2" d="M684.9,293L684.9,293c-7.4-5-9.3-15.1-4.3-22.5l40.3-59.4c5-7.4,15.1-9.3,22.5-4.3v0
					c7.4,5,9.3,15.1,4.3,22.5l-40.3,59.4C702.4,296.1,692.3,298.1,684.9,293z"/>
				<g>
					
						<rect x="729.5" y="207.6" transform="matrix(0.5615 -0.8275 0.8275 0.5615 135.7392 703.7963)" class="st5" width="4.8" height="32.4"/>
				</g>
				<g>
					
						<rect x="694" y="259.9" transform="matrix(0.5615 -0.8275 0.8275 0.5615 76.9345 697.3698)" class="st5" width="4.8" height="32.4"/>
				</g>
			</g>
			<g>
				<rect x="891" y="281" transform="matrix(0.4946 -0.8691 0.8691 0.4946 199.818 925.9855)" width="10.1" height="20.3"/>
				
					<ellipse transform="matrix(0.3719 -0.9283 0.9283 0.3719 296.4899 1066.5317)" class="st2" cx="936.4" cy="314.2" rx="43.3" ry="38.5"/>
				
					<ellipse transform="matrix(0.5566 -0.8308 0.8308 0.5566 154.1805 917.2242)" class="st3" cx="936.4" cy="314.2" rx="35.7" ry="31.7"/>
				
					<ellipse transform="matrix(6.859461e-03 -1 1 6.859461e-03 589.4927 1268.6812)" class="st4" cx="933.5" cy="337.6" rx="5.1" ry="8.8"/>
				<path class="st2" d="M829.1,253.1L829.1,253.1c3-5.2,9.6-7,14.8-4.1l41.9,23.8c5.2,3,7,9.6,4.1,14.8l0,0c-3,5.2-9.6,7-14.8,4.1
					l-41.9-23.8C827.9,264.9,826.1,258.3,829.1,253.1z"/>
				<g>
					
						<rect x="867" y="279.2" transform="matrix(0.4946 -0.8691 0.8691 0.4946 199.6207 904.9384)" class="st5" width="21.8" height="3.2"/>
				</g>
				<g>
					
						<rect x="830.1" y="258.2" transform="matrix(0.4946 -0.8691 0.8691 0.4946 199.2208 862.2991)" class="st5" width="21.8" height="3.2"/>
				</g>
			</g>
			<g>
				<rect x="967.6" y="125.4" transform="matrix(0.8995 -0.4369 0.4369 0.8995 37.8597 439.0567)" width="11.7" height="23.6"/>
				
					<ellipse transform="matrix(0.8318 -0.555 0.555 0.8318 64.5458 584.5897)" class="st2" cx="997" cy="185.8" rx="50.4" ry="44.8"/>
				
					<ellipse transform="matrix(0.929 -0.3702 0.3702 0.929 2.0474 382.2346)" class="st3" cx="997" cy="185.8" rx="41.5" ry="36.9"/>
				
					<ellipse transform="matrix(0.5714 -0.8207 0.8207 0.5714 250.2068 891.6815)" class="st4" cx="978.8" cy="206.3" rx="5.9" ry="10.2"/>
				<path class="st2" d="M934.3,56.5L934.3,56.5c6.3-3.1,13.9-0.4,16.9,5.9l24.5,50.4c3.1,6.3,0.4,13.9-5.9,16.9v0
					c-6.3,3.1-13.9,0.4-16.9-5.9l-24.5-50.4C925.3,67.2,928,59.6,934.3,56.5z"/>
				<g>
					
						<rect x="950.1" y="113.4" transform="matrix(0.8995 -0.4369 0.4369 0.8995 46.3608 432.2078)" class="st5" width="25.3" height="3.8"/>
				</g>
				<g>
					
						<rect x="928.6" y="69.1" transform="matrix(0.8995 -0.4369 0.4369 0.8995 63.583 418.3325)" class="st5" width="25.3" height="3.8"/>
				</g>
			</g>
			<g>
				<rect x="1183.1" y="164" transform="matrix(0.4878 -0.8729 0.8729 0.4878 455.264 1128.4108)" width="12.2" height="24.5"/>
				
					<ellipse transform="matrix(0.3647 -0.9311 0.9311 0.3647 596.9844 1282.1354)" class="st2" cx="1238.1" cy="203.6" rx="52.3" ry="46.5"/>
				
					<ellipse transform="matrix(0.5501 -0.8351 0.8351 0.5501 386.9534 1125.4674)" class="st3" cx="1238.1" cy="203.6" rx="43" ry="38.3"/>
				<ellipse class="st4" cx="1234.8" cy="231.8" rx="10.6" ry="6.1"/>
				<path class="st2" d="M1108,130.9L1108,130.9c3.5-6.3,11.5-8.6,17.9-5.1l50.7,28.3c6.3,3.5,8.6,11.5,5.1,17.9v0
					c-3.5,6.3-11.5,8.6-17.9,5.1l-50.7-28.3C1106.8,145.2,1104.5,137.2,1108,130.9z"/>
				<g>
					
						<rect x="1154.1" y="162" transform="matrix(0.4878 -0.8729 0.8729 0.4878 454.7265 1102.8541)" class="st5" width="26.2" height="3.9"/>
				</g>
				<g>
					
						<rect x="1109.4" y="137" transform="matrix(0.4878 -0.8729 0.8729 0.4878 453.6376 1051.0792)" class="st5" width="26.2" height="3.9"/>
				</g>
			</g>
			<g>
				
					<rect x="1234.8" y="7.6" transform="matrix(7.706361e-02 -0.997 0.997 7.706361e-02 1137.4301 1256.1624)" width="24.8" height="12.3"/>
				
					<ellipse transform="matrix(0.9983 -5.911126e-02 5.911126e-02 0.9983 4.7117 73.9112)" class="st2" cx="1251.6" cy="-42.7" rx="52.8" ry="47"/>
				
					<ellipse transform="matrix(0.1495 -0.9888 0.9888 0.1495 1106.7056 1201.2672)" class="st3" cx="1251.6" cy="-42.7" rx="38.7" ry="43.5"/>
				
					<ellipse transform="matrix(0.9076 -0.4199 0.4199 0.9076 139.8987 532.2791)" class="st4" cx="1279" cy="-51.6" rx="6.2" ry="10.7"/>
				<path class="st2" d="M1240,107.5L1240,107.5c-7.3-0.6-12.8-6.9-12.2-14.2l4.5-58.6c0.6-7.3,6.9-12.8,14.2-12.2l0,0
					c7.3,0.6,12.8,6.9,12.2,14.2l-4.5,58.6C1253.7,102.6,1247.3,108,1240,107.5z"/>
				<g>
					
						<rect x="1243.3" y="25.9" transform="matrix(7.706361e-02 -0.997 0.997 7.706361e-02 1110.2345 1277.6943)" class="st5" width="3.9" height="26.5"/>
				</g>
				<g>
					
						<rect x="1239.3" y="77.5" transform="matrix(7.706361e-02 -0.997 0.997 7.706361e-02 1055.1395 1321.3157)" class="st5" width="3.9" height="26.5"/>
				</g>
			</g>
			<g>
				
					<rect x="1469.4" y="168.1" transform="matrix(4.494320e-02 -0.999 0.999 4.494320e-02 1227.566 1650.2759)" width="14.9" height="30"/>
				
					<ellipse transform="matrix(0.9958 -9.120058e-02 9.120058e-02 0.9958 -10.5483 141.7129)" class="st2" cx="1545.3" cy="186.3" rx="56.9" ry="64"/>
				
					<ellipse transform="matrix(0.1176 -0.9931 0.9931 0.1176 1178.6008 1698.9874)" class="st3" cx="1545.3" cy="186.3" rx="52.7" ry="46.9"/>
				
					<ellipse transform="matrix(0.8936 -0.4489 0.4489 0.8936 67.399 722.3475)" class="st4" cx="1557.2" cy="219" rx="12.9" ry="7.5"/>
				<path class="st2" d="M1363.1,178L1363.1,178c0.4-8.9,7.9-15.7,16.8-15.3l71.1,3.2c8.9,0.4,15.7,7.9,15.3,16.8v0
					c-0.4,8.9-7.9,15.7-16.8,15.3l-71.1-3.2C1369.5,194.4,1362.7,186.9,1363.1,178z"/>
				<g>
					
						<rect x="1429.9" y="179.3" transform="matrix(4.494320e-02 -0.999 0.999 4.494320e-02 1199.4391 1618.0745)" class="st5" width="32.1" height="4.8"/>
				</g>
				<g>
					
						<rect x="1367.3" y="176.5" transform="matrix(4.494320e-02 -0.999 0.999 4.494320e-02 1142.4573 1552.8379)" class="st5" width="32.1" height="4.8"/>
				</g>
			</g>
			<g>
				<rect x="1477" y="506.9" transform="matrix(0.5333 -0.8459 0.8459 0.5333 261.2741 1504.234)" width="34.1" height="16.9"/>
				
					<ellipse transform="matrix(0.4135 -0.9105 0.9105 0.4135 491.3275 1661.8181)" class="st2" cx="1535.5" cy="449.5" rx="64.6" ry="72.7"/>
				
					<ellipse transform="matrix(0.5936 -0.8048 0.8048 0.5936 262.313 1418.5)" class="st3" cx="1535.5" cy="449.5" rx="53.2" ry="59.9"/>
				
					<ellipse transform="matrix(5.203488e-02 -0.9986 0.9986 5.203488e-02 1037.0128 2004.8589)" class="st4" cx="1574.5" cy="456.2" rx="14.7" ry="8.5"/>
				<path class="st2" d="M1425,624.7L1425,624.7c-8.5-5.4-11.1-16.6-5.7-25.2l43.1-68.3c5.4-8.5,16.6-11.1,25.2-5.7l0,0
					c8.5,5.4,11.1,16.6,5.7,25.2l-43.1,68.3C1444.8,627.5,1433.5,630.1,1425,624.7z"/>
				<g>
					
						<rect x="1472.5" y="526.8" transform="matrix(0.5333 -0.8459 0.8459 0.5333 227.4073 1502.2532)" class="st5" width="5.4" height="36.5"/>
				</g>
				<g>
					
						<rect x="1434.6" y="587" transform="matrix(0.5333 -0.8459 0.8459 0.5333 158.7971 1498.2402)" class="st5" width="5.4" height="36.5"/>
				</g>
			</g>
			<g>
				<rect x="1650.5" y="336.2" transform="matrix(0.567 -0.8237 0.8237 0.567 428.5387 1517.7971)" width="15" height="30.2"/>
				
					<ellipse transform="matrix(0.4499 -0.8931 0.8931 0.4499 594.6819 1746.1691)" class="st2" cx="1714.7" cy="390.4" rx="64.3" ry="57.2"/>
				
					<ellipse transform="matrix(0.6255 -0.7802 0.7802 0.6255 337.5125 1483.9772)" class="st3" cx="1714.7" cy="390.4" rx="53" ry="47.1"/>
				
					<ellipse transform="matrix(9.227346e-02 -0.9957 0.9957 9.227346e-02 1127.0699 2085.5813)" class="st4" cx="1707.4" cy="424.6" rx="7.5" ry="13"/>
				<path class="st2" d="M1563.7,286.4L1563.7,286.4c5.1-7.3,15.1-9.2,22.5-4.1l58.9,40.6c7.3,5.1,9.2,15.1,4.1,22.5v0
					c-5.1,7.3-15.1,9.2-22.5,4.1l-58.9-40.6C1560.5,303.8,1558.7,293.7,1563.7,286.4z"/>
				<g>
					
						<rect x="1616.3" y="331.2" transform="matrix(0.567 -0.8237 0.8237 0.567 431.9711 1489.0752)" class="st5" width="32.3" height="4.8"/>
				</g>
				<g>
					
						<rect x="1564.4" y="295.5" transform="matrix(0.567 -0.8237 0.8237 0.567 438.9248 1430.8881)" class="st5" width="32.3" height="4.8"/>
				</g>
			</g>
			<g>
				<rect x="1411.6" y="37.5" transform="matrix(0.8712 -0.4909 0.4909 0.8712 162.1252 703.8811)" width="21.9" height="10.9"/>
				
					<ellipse transform="matrix(0.7964 -0.6047 0.6047 0.7964 239.9142 847.6212)" class="st2" cx="1378.9" cy="67.5" rx="41.6" ry="46.7"/>
				
					<ellipse transform="matrix(0.9047 -0.4261 0.4261 0.9047 102.7158 594.0349)" class="st3" cx="1378.9" cy="67.5" rx="34.2" ry="38.5"/>
				
					<ellipse transform="matrix(0.5203 -0.854 0.854 0.5203 607.6886 1185.3741)" class="st4" cx="1358.9" cy="51.8" rx="9.4" ry="5.5"/>
				<path class="st2" d="M1495,2.1L1495,2.1c3.2,5.6,1.2,12.8-4.5,16l-45.2,25.5c-5.6,3.2-12.8,1.2-16-4.5v0
					c-3.2-5.6-1.2-12.8,4.5-16L1479-2.3C1484.6-5.5,1491.8-3.5,1495,2.1z"/>
				<g>
					
						<rect x="1440.5" y="20.1" transform="matrix(0.8712 -0.4909 0.4909 0.8712 170.0981 712.1082)" class="st5" width="3.5" height="23.5"/>
				</g>
				<g>
					
						<rect x="1480.3" y="-2.3" transform="matrix(0.8712 -0.4909 0.4909 0.8712 186.2503 728.7753)" class="st5" width="3.5" height="23.5"/>
				</g>
			</g>
			<g>
				<rect x="1588.8" y="-24" transform="matrix(0.493 -0.87 0.87 0.493 827.5474 1388.1385)" width="32.1" height="15.9"/>
				
					<ellipse transform="matrix(0.3703 -0.9289 0.9289 0.3703 1107.5498 1474.2344)" class="st2" cx="1641.1" cy="-79.8" rx="60.9" ry="68.5"/>
				
					<ellipse transform="matrix(0.5551 -0.8318 0.8318 0.5551 796.4227 1329.5265)" class="st3" cx="1641.1" cy="-79.8" rx="50.2" ry="56.4"/>
				
					<ellipse transform="matrix(5.102667e-03 -1 1 5.102667e-03 1744.7604 1603.2308)" class="st4" cx="1678.1" cy="-75.2" rx="13.8" ry="8"/>
				<path class="st2" d="M1544.8,90L1544.8,90c-8.3-4.7-11.2-15.2-6.5-23.4l37.5-66.2c4.7-8.3,15.2-11.2,23.4-6.5l0,0
					c8.3,4.7,11.2,15.2,6.5,23.4l-37.5,66.2C1563.6,91.8,1553.1,94.7,1544.8,90z"/>
				<g>
					
						<rect x="1586" y="-4.4" transform="matrix(0.493 -0.87 0.87 0.493 794.2317 1388.5387)" class="st5" width="5.1" height="34.4"/>
				</g>
				<g>
					
						<rect x="1553" y="53.9" transform="matrix(0.493 -0.87 0.87 0.493 726.7379 1389.3495)" class="st5" width="5.1" height="34.4"/>
				</g>
			</g>
			<g>
				<rect x="1351.2" y="316.4" transform="matrix(0.9232 -0.3843 0.3843 0.9232 -19.4123 549.3041)" width="27.5" height="13.7"/>
				
					<ellipse transform="matrix(0.8625 -0.5061 0.5061 0.8625 44.3051 761.3451)" class="st2" cx="1422.9" cy="299.2" rx="52.2" ry="58.7"/>
				
					<ellipse transform="matrix(0.9488 -0.316 0.316 0.9488 -21.6265 464.9261)" class="st3" cx="1422.9" cy="299.2" rx="43" ry="48.3"/>
				
					<ellipse transform="matrix(0.6178 -0.7864 0.7864 0.6178 299.5921 1259.7001)" class="st4" cx="1445.6" cy="321.7" rx="11.9" ry="6.9"/>
				<path class="st2" d="M1268.5,363.4L1268.5,363.4c-3.1-7.5,0.4-16.1,7.9-19.3l60.2-25.1c7.5-3.1,16.1,0.4,19.3,7.9v0
					c3.1,7.5-0.4,16.1-7.9,19.3l-60.2,25.1C1280.3,374.4,1271.7,370.9,1268.5,363.4z"/>
				<g>
					
						<rect x="1336.6" y="319.4" transform="matrix(0.9232 -0.3843 0.3843 0.9232 -25.6084 540.0822)" class="st5" width="4.4" height="29.5"/>
				</g>
				<g>
					
						<rect x="1283.5" y="341.5" transform="matrix(0.9232 -0.3843 0.3843 0.9232 -38.161 521.3998)" class="st5" width="4.4" height="29.5"/>
				</g>
			</g>
			<g>
				<rect x="1259.8" y="445.8" transform="matrix(0.5042 -0.8636 0.8636 0.5042 231.8654 1320.5953)" width="12.5" height="25.1"/>
				
					<ellipse transform="matrix(0.3822 -0.9241 0.9241 0.3822 362.4143 1516.8326)" class="st2" cx="1315.6" cy="487.4" rx="53.6" ry="47.7"/>
				
					<ellipse transform="matrix(0.5658 -0.8246 0.8246 0.5658 169.385 1296.4078)" class="st3" cx="1315.6" cy="487.4" rx="44.2" ry="39.3"/>
				
					<ellipse transform="matrix(1.796579e-02 -0.9998 0.9998 1.796579e-02 771.8959 1818.4878)" class="st4" cx="1311.7" cy="516.3" rx="6.3" ry="10.8"/>
				<path class="st2" d="M1183.6,410.2L1183.6,410.2c3.7-6.4,12-8.6,18.4-4.8l51.5,30.1c6.4,3.7,8.6,12,4.8,18.4l0,0
					c-3.7,6.4-12,8.6-18.4,4.8l-51.5-30.1C1182,424.9,1179.9,416.7,1183.6,410.2z"/>
				<g>
					
						<rect x="1230.2" y="443.3" transform="matrix(0.5042 -0.8636 0.8636 0.5042 232.0535 1294.7845)" class="st5" width="26.9" height="4"/>
				</g>
				<g>
					
						<rect x="1184.8" y="416.8" transform="matrix(0.5042 -0.8636 0.8636 0.5042 232.4344 1242.4949)" class="st5" width="26.9" height="4"/>
				</g>
			</g>
			<g>
				<rect x="1075.1" y="26" transform="matrix(0.7119 -0.7023 0.7023 0.7119 290.8264 771.6389)" width="21.4" height="10.7"/>
				
					<ellipse transform="matrix(0.6099 -0.7925 0.7925 0.6099 439.6351 887.0508)" class="st2" cx="1120.8" cy="-3" rx="40.7" ry="45.8"/>
				
					<ellipse transform="matrix(0.7612 -0.6486 0.6486 0.7612 269.628 726.1733)" class="st3" cx="1120.8" cy="-3" rx="33.5" ry="37.7"/>
				
					<ellipse transform="matrix(0.278 -0.9606 0.9606 0.278 819.3896 1103.4554)" class="st4" cx="1143.7" cy="6.7" rx="9.2" ry="5.4"/>
				<path class="st2" d="M1027.9,88.6L1027.9,88.6c-4.5-4.5-4.4-11.8,0.1-16.2l36.2-35.7c4.5-4.5,11.8-4.4,16.2,0.1v0
					c4.5,4.5,4.4,11.8-0.1,16.2l-36.2,35.7C1039.6,93.1,1032.3,93.1,1027.9,88.6z"/>
				<g>
					
						<rect x="1068.4" y="35.4" transform="matrix(0.7119 -0.7023 0.7023 0.7119 275.3839 765.058)" class="st5" width="3.4" height="23"/>
				</g>
				<g>
					
						<rect x="1036.5" y="66.9" transform="matrix(0.7119 -0.7023 0.7023 0.7119 244.0993 751.726)" class="st5" width="3.4" height="23"/>
				</g>
			</g>
			<g>
				<rect x="1059.4" y="360.7" transform="matrix(0.8073 -0.5901 0.5901 0.8073 -10.2934 705.3668)" width="31.3" height="15.6"/>
				
					<ellipse transform="matrix(0.7197 -0.6943 0.6943 0.7197 90.997 878.0009)" class="st2" cx="1132.8" cy="326.3" rx="59.4" ry="66.8"/>
				
					<ellipse transform="matrix(0.8482 -0.5297 0.5297 0.8482 -0.869 649.5922)" class="st3" cx="1132.8" cy="326.3" rx="48.9" ry="55"/>
				
					<ellipse transform="matrix(0.4161 -0.9093 0.9093 0.4161 365.7161 1259.8943)" class="st4" cx="1163.8" cy="345.2" rx="13.5" ry="7.8"/>
				<path class="st2" d="M979.1,438.6L979.1,438.6c-5.5-7.5-3.8-18,3.6-23.4l59.9-43.8c7.5-5.5,18-3.8,23.4,3.6v0
					c5.5,7.5,3.8,18-3.6,23.4l-59.9,43.8C995,447.7,984.5,446.1,979.1,438.6z"/>
				<g>
					
						<rect x="1046.5" y="370.7" transform="matrix(0.8073 -0.5901 0.5901 0.8073 -26.5524 693.6608)" class="st5" width="5" height="33.5"/>
				</g>
				<g>
					
						<rect x="993.7" y="409.3" transform="matrix(0.8073 -0.5901 0.5901 0.8073 -59.4913 669.9456)" class="st5" width="5" height="33.5"/>
				</g>
			</g>
			<g>
				<rect x="965.3" y="495.4" transform="matrix(0.6707 -0.7418 0.7418 0.6707 -55.3756 886.2488)" width="10.1" height="20.3"/>
				
					<ellipse transform="matrix(0.5637 -0.826 0.826 0.5637 -4.84 1063.9771)" class="st2" cx="1004.7" cy="536.6" rx="43.2" ry="38.5"/>
				
					<ellipse transform="matrix(0.7229 -0.6909 0.6909 0.7229 -92.3668 842.8029)" class="st3" cx="1004.7" cy="536.6" rx="35.6" ry="31.7"/>
				
					<ellipse transform="matrix(0.2227 -0.9749 0.9749 0.2227 230.0645 1406.0308)" class="st4" cx="996.8" cy="558.7" rx="5.1" ry="8.7"/>
				<path class="st2" d="M913.3,453.9L913.3,453.9c4-4.4,10.9-4.8,15.3-0.8l35.7,32.2c4.4,4,4.8,10.9,0.8,15.3l0,0
					c-4,4.4-10.9,4.8-15.3,0.8l-35.7-32.2C909.6,465.2,909.3,458.3,913.3,453.9z"/>
				<g>
					
						<rect x="944" y="489.9" transform="matrix(0.6707 -0.7418 0.7418 0.6707 -50.0857 870.1388)" class="st5" width="21.7" height="3.2"/>
				</g>
				<g>
					
						<rect x="912.6" y="461.5" transform="matrix(0.6707 -0.7418 0.7418 0.6707 -39.3689 837.5017)" class="st5" width="21.7" height="3.2"/>
				</g>
			</g>
			<g>
				<rect x="886.7" y="-27.3" transform="matrix(0.9472 -0.3207 0.3207 0.9472 54.3408 287.0945)" width="23.7" height="11.8"/>
				
					<ellipse transform="matrix(0.8948 -0.4465 0.4465 0.8948 90.9409 377.83)" class="st2" cx="847.2" cy="-4.1" rx="45" ry="50.6"/>
				
					<ellipse transform="matrix(0.968 -0.2509 0.2509 0.968 28.115 212.4216)" class="st3" cx="847.2" cy="-4.1" rx="37.1" ry="41.7"/>
				
					<ellipse transform="matrix(0.6697 -0.7426 0.7426 0.6697 292.2542 607.5192)" class="st4" cx="829.1" cy="-24.8" rx="10.2" ry="5.9"/>
				<path class="st2" d="M983.9-50.3L983.9-50.3c2.3,6.6-1.3,13.9-8,16.1l-53.3,18.1c-6.6,2.3-13.9-1.3-16.1-8v0
					c-2.3-6.6,1.3-13.9,8-16.1l53.3-18.1C974.5-60.5,981.7-56.9,983.9-50.3z"/>
				<g>
					
						<rect x="919.9" y="-42" transform="matrix(0.9472 -0.3207 0.3207 0.9472 58.0823 294.1129)" class="st5" width="3.8" height="25.4"/>
				</g>
				<g>
					
						<rect x="966.8" y="-57.9" transform="matrix(0.9472 -0.3207 0.3207 0.9472 65.6622 308.3312)" class="st5" width="3.8" height="25.4"/>
				</g>
			</g>
		</g>
	</g>
</g>
</svg>
