<?xml version="1.0" encoding="UTF-8"?>
<svg id="Layer_1" data-name="Layer 1" xmlns="http://www.w3.org/2000/svg" viewBox="0 0 1600 500">
  <defs>
    <style>
      .cls-1 {
        fill: #fff;
      }

      .cls-2 {
        fill: #ead9fc;
      }

      .cls-3 {
        fill: #ba81f9;
      }

      .cls-4 {
        fill: #d7b6fa;
        fill-rule: evenodd;
      }
    </style>
  </defs>
  <g>
    <path class="cls-4" d="m1600,24.84v428.52c0,8.31-4.08,15.66-10.34,20.17-2.4,1.73-5.84.86-6.95-1.88-3.92-9.72-16.41-16.83-31.21-16.83-9.47,0-17.99,2.91-23.93,7.55-1.91,1.49-4.64,1.25-6.24-.56-7.66-8.68-21.22-14.45-36.68-14.45-13.95,0-26.37,4.71-34.28,12.01-1.84,1.7-4.72,1.55-6.42-.29-9.32-10.07-25.83-16.76-44.62-16.76-27.05,0-49.35,13.85-52.36,31.7-.4,2.39-2.49,4.14-4.91,4.14l-1317.22.05c-13.71,0-24.83-11.12-24.83-24.84V24.84C0,11.12,11.12,0,24.83,0h1550.34C1588.88,0,1600,11.12,1600,24.84Z"/>
    <g>
      <ellipse class="cls-3" cx="1399.46" cy="479.16" rx="33.87" ry="20.84"/>
      <ellipse class="cls-3" cx="1483.78" cy="478.69" rx="27.94" ry="17.19"/>
      <ellipse class="cls-3" cx="1552.37" cy="479.04" rx="18.65" ry="11.48"/>
    </g>
  </g>
  <path class="cls-3" d="m1600,395.54v57.82c0,8.31-4.08,15.66-10.35,20.17-2.4,1.72-5.84.86-6.94-1.88-3.93-9.72-16.41-16.83-31.21-16.83-9.47,0-17.99,2.91-23.93,7.55-1.91,1.49-4.64,1.25-6.24-.56-7.66-8.68-21.22-14.45-36.68-14.45-13.95,0-26.37,4.7-34.29,12-1.84,1.7-4.71,1.55-6.42-.29-9.32-10.07-25.83-16.76-44.62-16.76-27.06,0-49.35,13.85-52.37,31.7-.4,2.39-2.48,4.14-4.91,4.14l-1317.21.05C11.12,478.2,0,467.08,0,453.36v-146.93s282.67,88.97,465.45,88.88c289.52-.15,715.14-126.59,1134.55.24Z"/>
  <path class="cls-2" d="m0,21.33v58.55c526.76-48.85,864.32,138.05,1600-3.86V21.33C1600,9.55,1588.88,0,1575.17,0H24.83C11.12,0,0,9.55,0,21.33Z"/>
  <g>
    <rect class="cls-1" x="251.73" y="150.23" width="384.98" height="174.53" rx="31.44" ry="31.44"/>
    <g>
      <path d="m383.7,284.01c-6.43,0-12.8-.86-19.14-2.57-6.34-1.72-11.71-4.16-16.1-7.33l8.32-16.37c3.52,2.55,7.61,4.58,12.28,6.07,4.66,1.5,9.37,2.24,14.12,2.24,5.37,0,9.59-1.06,12.67-3.17,3.08-2.11,4.62-5.02,4.62-8.71s-1.37-6.29-4.09-8.32c-2.73-2.02-7.13-3.04-13.2-3.04h-9.77v-14.13l25.74-29.17,2.38,7.66h-48.45v-17.16h64.69v13.86l-25.61,29.17-10.82-6.2h6.2c11.35,0,19.93,2.55,25.74,7.66,5.81,5.1,8.71,11.66,8.71,19.67,0,5.19-1.37,10.06-4.09,14.59-2.73,4.53-6.91,8.21-12.54,11.02-5.63,2.82-12.85,4.22-21.65,4.22Z"/>
      <path d="m444.03,283.48c-3.52,0-6.53-1.21-9.04-3.63-2.51-2.42-3.76-5.52-3.76-9.31s1.25-6.84,3.76-9.17c2.51-2.33,5.52-3.5,9.04-3.5s6.64,1.17,9.11,3.5c2.46,2.33,3.7,5.39,3.7,9.17s-1.23,6.89-3.7,9.31c-2.46,2.42-5.5,3.63-9.11,3.63Z"/>
      <path d="m461.85,282.43l31.81-41.72-.4,11.35-30.49-40.66h23.1l19.27,26.53-8.71.26,19.93-26.8h21.91l-30.63,40.26v-11.09l31.68,41.85h-23.37l-20.2-28.25,8.58,1.19-20.07,27.06h-22.44Z"/>
    </g>
  </g>
  <g>
    <rect class="cls-1" x="963.28" y="150.23" width="384.98" height="174.53" rx="31.44" ry="31.44"/>
    <g>
      <path d="m1051.82,263.02v-14.39l43.56-58.61h22.44l-42.64,58.61-10.43-3.04h72.74v17.43h-85.68Zm49.77,19.41v-19.41l.66-17.43v-17.29h20.2v54.12h-20.86Z"/>
      <path d="m1158.61,283.48c-3.52,0-6.53-1.21-9.04-3.63-2.51-2.42-3.76-5.52-3.76-9.31s1.25-6.84,3.76-9.17c2.51-2.33,5.52-3.5,9.04-3.5s6.64,1.17,9.11,3.5c2.46,2.33,3.7,5.39,3.7,9.17s-1.23,6.89-3.7,9.31c-2.46,2.42-5.5,3.63-9.11,3.63Z"/>
      <path d="m1218.94,284.01c-7.57,0-14.35-1.87-20.33-5.61-5.99-3.74-10.69-9.17-14.12-16.3-3.43-7.13-5.15-15.75-5.15-25.87s1.72-18.75,5.15-25.87c3.43-7.13,8.14-12.56,14.12-16.3,5.98-3.74,12.76-5.61,20.33-5.61s14.46,1.87,20.4,5.61c5.94,3.74,10.63,9.17,14.06,16.3,3.43,7.13,5.15,15.75,5.15,25.87s-1.72,18.75-5.15,25.87c-3.43,7.13-8.12,12.56-14.06,16.3-5.94,3.74-12.74,5.61-20.4,5.61Zm0-18.08c3.61,0,6.75-1.01,9.44-3.04,2.68-2.02,4.8-5.23,6.34-9.64,1.54-4.4,2.31-10.08,2.31-17.03s-.77-12.63-2.31-17.03c-1.54-4.4-3.65-7.61-6.34-9.64-2.69-2.02-5.83-3.04-9.44-3.04s-6.62,1.01-9.31,3.04c-2.69,2.03-4.8,5.24-6.34,9.64-1.54,4.4-2.31,10.08-2.31,17.03s.77,12.63,2.31,17.03c1.54,4.4,3.65,7.61,6.34,9.64,2.68,2.03,5.79,3.04,9.31,3.04Z"/>
    </g>
  </g>
  <g>
    <ellipse class="cls-3" cx="1399.46" cy="479.16" rx="33.87" ry="20.84"/>
    <ellipse class="cls-3" cx="1483.78" cy="478.69" rx="27.94" ry="17.19"/>
    <ellipse class="cls-3" cx="1552.37" cy="479.04" rx="18.65" ry="11.48"/>
  </g>
  <g>
    <path class="cls-1" d="m891.24,234.61l-48.69-45.84c-4.39-4.14-11.6-1.02-11.6,5.01v91.67c0,6.03,7.21,9.15,11.6,5.01l48.69-45.84c2.89-2.72,2.89-7.31,0-10.03Z"/>
    <path class="cls-1" d="m832.99,270.21v-61.17s-27.53-8.58-57.84-8.58c-21.26,0-39.02,3.52-49.04,6.05-5.18,1.31-8.8,5.97-8.8,11.31v43.6c0,5.34,3.62,10,8.8,11.31,10.02,2.53,27.78,6.05,49.04,6.05,30.31,0,57.84-8.58,57.84-8.58Z"/>
  </g>
</svg>