<?xml version="1.0" encoding="UTF-8" standalone="no"?>
<svg
   enable-background="new 0 0 1600 500"
   version="1.1"
   viewBox="0 0 1600 500"
   id="svg14"
   sodipodi:docname="precompiles.svg"
   inkscape:version="1.4.2 (ebf0e940, 2025-05-08)"
   xmlns:inkscape="http://www.inkscape.org/namespaces/inkscape"
   xmlns:sodipodi="http://sodipodi.sourceforge.net/DTD/sodipodi-0.dtd"
   xmlns="http://www.w3.org/2000/svg"
   xmlns:svg="http://www.w3.org/2000/svg">
  <defs
     id="defs14">
    <rect
       x="432.69231"
       y="-233.17308"
       width="1052.8846"
       height="300.48077"
       id="rect14" />
  </defs>
  <sodipodi:namedview
     id="namedview14"
     pagecolor="#ffffff"
     bordercolor="#000000"
     borderopacity="0.25"
     inkscape:showpageshadow="2"
     inkscape:pageopacity="0.0"
     inkscape:pagecheckerboard="0"
     inkscape:deskcolor="#d1d1d1"
     inkscape:zoom="0.416"
     inkscape:cx="691.10577"
     inkscape:cy="304.08654"
     inkscape:window-width="1472"
     inkscape:window-height="890"
     inkscape:window-x="0"
     inkscape:window-y="38"
     inkscape:window-maximized="0"
     inkscape:current-layer="svg14" />
  <style
     type="text/css"
     id="style1">.st0{fill-rule:evenodd;clip-rule:evenodd;fill:#D7B6FA;}
	.st1{fill-rule:evenodd;clip-rule:evenodd;fill:#BA81F9;}
	.st2{fill:#BA81F9;}
	.st3{fill:#EAD9FC;}
	.st4{fill-rule:evenodd;clip-rule:evenodd;fill:#FFFFFF;}</style>
  <path
     class="st0"
     d="m1600 24.84v428.5c0 8.31-4.08 15.66-10.34 20.17-2.4 1.73-5.84 0.86-6.95-1.88-3.92-9.72-16.41-16.83-31.21-16.83-9.47 0-17.99 2.91-23.93 7.55-1.91 1.49-4.64 1.25-6.24-0.56-7.66-8.68-21.22-14.45-36.68-14.45-13.95 0-26.37 4.71-34.28 12.01-1.84 1.7-4.72 1.55-6.42-0.29-9.32-10.07-25.83-16.76-44.62-16.76-27.05 0-49.35 13.85-52.36 31.7-0.4 2.39-2.49 4.14-4.91 4.14l-1317 0.04c-13.71 0-24.83-11.12-24.83-24.84v-428.5c0-13.72 11.12-24.84 24.83-24.84h1550c13.71 0 24.83 11.12 24.83 24.84z"
     id="path1" />
  <ellipse
     class="st1"
     cx="1399"
     cy="479.2"
     rx="33.87"
     ry="20.84"
     id="ellipse1" />
  <ellipse
     class="st1"
     cx="1484"
     cy="478.7"
     rx="27.94"
     ry="17.19"
     id="ellipse2" />
  <ellipse
     class="st1"
     cx="1552"
     cy="479"
     rx="18.65"
     ry="11.48"
     id="ellipse3" />
  <path
     class="st2"
     d="m1600 395.5v57.82c0 8.31-4.08 15.66-10.35 20.17-2.4 1.72-5.84 0.86-6.94-1.88-3.93-9.72-16.41-16.83-31.21-16.83-9.47 0-17.99 2.91-23.93 7.55-1.91 1.49-4.64 1.25-6.24-0.56-7.66-8.68-21.22-14.45-36.68-14.45-13.95 0-26.37 4.7-34.29 12-1.84 1.7-4.71 1.55-6.42-0.29-9.32-10.07-25.83-16.76-44.62-16.76-27.06 0-49.35 13.85-52.37 31.7-0.4 2.39-2.48 4.14-4.91 4.14l-1317 0.05c-13.71 0-24.83-11.12-24.83-24.84v-146.9s282.7 88.97 465.4 88.88c289.5-0.16 715.2-126.6 1135 0.23z"
     id="path3" />
  <path
     class="st3"
     d="m0 21.33v58.55c526.8-48.85 864.3 138 1600-3.86v-54.7c0-11.77-11.12-21.32-24.83-21.32h-1550c-13.71 0-24.83 9.55-24.83 21.33z"
     id="path4" />
  <path
     class="st4"
     d="m1099 321.9h-597.5c-15.9 0-28.79-12.89-28.79-28.79v-111.2c0-15.9 12.89-28.79 28.79-28.79h597.5c15.9 0 28.79 12.89 28.79 28.79v111.2c0.01 15.91-12.88 28.8-28.78 28.8z"
     id="path5" />
  <ellipse
     class="st1"
     cx="1399"
     cy="479.2"
     rx="33.87"
     ry="20.84"
     id="ellipse12" />
  <ellipse
     class="st1"
     cx="1484"
     cy="478.7"
     rx="27.94"
     ry="17.19"
     id="ellipse13" />
  <ellipse
     class="st1"
     cx="1552"
     cy="479"
     rx="18.65"
     ry="11.48"
     id="ellipse14" />
  <path
     style="font-size:96px;line-height:43%;font-family:Freude;-inkscape-font-specification:Freude;text-align:center;text-anchor:middle;white-space:pre"
     d="m 727.24582,-251.46488 c -7.776,0 -23.712,0 -23.712,12.48 0,5.568 0.864,12.384 0.864,21.504 0,7.008 -0.576,14.304 -0.576,21.216 0,5.472 2.4,9.696 8.256,9.696 6.624,0 8.448,-4.128 8.448,-9.792 0,-3.744 -0.672,-5.376 -0.768,-9.024 2.304,1.152 6.912,1.344 9.792,1.344 14.208,0 24.096,-8.448 24.096,-23.424 0,-17.952 -10.176,-24 -26.4,-24 z m -0.768,34.56 c -2.016,0 -4.8,-0.672 -6.336,-2.016 -1.728,-1.536 -2.304,-4.896 -2.304,-9.024 0,-1.728 0,-6.24 2.208,-8.736 1.92,-1.92 5.376,-2.208 7.104,-2.208 7.104,0 11.712,3.552 11.712,10.848 0,7.68 -5.088,11.136 -12.384,11.136 z m 40.03205,-18.72 c -4.416,0 -7.584,1.632 -7.584,6.624 0,4.224 2.4,7.392 2.4,16.128 0,5.472 -0.768,10.368 -0.768,15.744 0,4.896 1.056,10.176 7.776,10.176 4.704,0 7.968,-2.208 7.968,-8.448 0,-4.512 -1.344,-8.64 -1.344,-13.248 0,-4.8 1.056,-10.752 7.008,-10.752 1.824,0 3.36,0.96 5.184,0.96 4.032,0 6.72,-4.512 6.72,-8.064 0,-5.088 -2.592,-8.736 -8.256,-8.736 -4.608,0 -8.64,2.688 -10.08,7.296 -0.096,0.384 -0.48,1.344 -0.864,1.344 -0.384,0 -0.48,-0.576 -0.48,-0.768 -0.864,-4.608 -2.112,-8.256 -7.68,-8.256 z m 72.19186,14.304 c 0,-10.368 -9.792,-15.744 -19.776,-15.744 -17.376,0 -23.616,11.136 -23.616,27.36 0,15.36 8.448,24.192 23.904,24.192 7.008,0 20.64,-3.936 20.64,-12.48 0,-3.456 -3.36,-6.048 -6.624,-6.048 -5.664,0 -4.224,6.336 -14.304,6.336 -4.512,0 -9.984,-2.304 -9.984,-7.488 0,-1.632 0.864,-2.304 2.304,-2.688 6.72,-1.536 20.928,1.056 25.344,-6.048 1.344,-2.208 2.112,-4.8 2.112,-7.392 z m -24.288,4.608 c -2.88,0 -5.28,0 -5.28,-2.016 0,-4.704 3.264,-8.064 8.064,-8.064 2.784,0 8.256,0.864 8.256,4.8 0,5.184 -6.624,5.28 -11.04,5.28 z m 54.14397,-19.488 c -14.112,0 -24.384,9.024 -24.384,24.576 0,14.496 6.432,25.344 24.192,25.344 8.16,0 19.776,-4.224 19.776,-13.056 0,-3.552 -2.784,-6.336 -6.336,-6.336 -6.048,0 -5.76,6.912 -14.304,6.912 -7.296,0 -10.272,-6.144 -10.272,-12.48 0,-7.392 3.264,-12.672 10.848,-12.672 5.76,0 5.568,5.664 11.328,5.664 3.552,0 6.912,-2.304 6.912,-6.144 0,-8.352 -10.368,-11.808 -17.76,-11.808 z m 71.23203,26.4 c 0,-16.128 -6.144,-26.304 -23.904,-26.304 -14.976,0 -24,9.024 -24,24.288 0,17.088 9.216,25.536 25.248,25.536 12.96,0 22.656,-10.656 22.656,-23.52 z m -23.232,10.656 c -6.528,0 -10.752,-5.28 -10.752,-11.808 0,-6.336 2.688,-12.384 11.136,-12.384 6.624,0 9.216,6.816 9.216,11.04 0,7.104 -3.36,13.152 -9.6,13.152 z m 37.15195,-36.96 c -5.376,0 -7.584,3.072 -7.584,8.16 0,4.896 1.632,8.064 1.632,16.896 0,5.184 -1.056,10.368 -1.056,15.552 0,5.088 1.248,8.736 6.912,8.736 7.296,0 8.352,-4.032 8.352,-10.368 0,-4.608 -1.056,-9.504 -1.056,-14.4 0,-5.28 0.96,-10.176 6.816,-10.176 5.184,0 6.528,5.76 6.528,9.984 0,5.088 -1.248,12.288 -1.248,15.648 0,5.856 1.536,9.312 7.968,9.312 4.896,0 7.968,-2.112 7.968,-7.968 0,-5.952 -2.016,-12.192 -2.016,-18.432 0,-4.416 2.688,-8.064 7.296,-8.064 6.04802,0 6.62402,4.896 6.62402,10.272 0,5.568 -0.768,15.744 -0.768,17.952 0,4.416 3.072,6.336 7.296,6.336 4.416,0 7.968,-2.4 7.968,-7.008 0,-2.784 -1.056,-2.88 -1.056,-11.52 0,-2.784 0.096,-7.872 0.096,-10.56 0,-9.888 -3.072,-19.872 -15.07202,-19.872 -6.048,0 -9.888,1.92 -14.496,7.008 -2.208,-4.992 -6.144,-7.392 -11.424,-7.392 -4.896,0 -9.792,2.784 -12.096,7.008 -0.672,-4.608 -2.88,-7.104 -7.584,-7.104 z m 76.12802,-0.096 c -4.704,0 -7.968,2.304 -7.968,7.488 0,5.952 2.016,11.808 2.016,25.536 0,8.064 -1.44,17.952 -1.44,24.192 0,5.568 1.92,9.408 8.064,9.408 6.048,0 7.2,-4.032 7.2,-9.024 0,-2.784 -0.864,-6.912 -0.864,-9.696 0,-0.768 0.096,-1.536 0.192,-2.304 3.456,2.304 7.392,3.36 11.904,3.36 13.248,0 20.64,-12.96 20.64,-25.824 0,-11.424 -6.528,-22.848 -19.488,-22.848 -9.216,0 -10.752,5.184 -12.672,5.184 -1.056,0 -1.344,-5.472 -7.584,-5.472 z m 15.36,36 c -6.528,0 -8.16,-5.568 -8.16,-11.136 0,-6.336 2.112,-11.712 9.024,-11.712 5.856,0 9.696,4.704 9.696,10.368 0,6.624 -3.264,12.48 -10.56,12.48 z m 32.256,-13.056 c 0,6.048 -0.672,12.192 -0.672,18.24 0,6.048 1.728,8.352 7.968,8.352 6.048,0 8.16,-4.512 8.16,-9.888 0,-3.648 -1.44,-6.432 -1.44,-10.56 0,-4.608 0.288,-9.216 0.288,-15.648 0,-4.512 -3.168,-5.856 -7.392,-5.856 -4.512,0 -7.2,1.248 -7.2,6.528 0,2.784 0.288,6.048 0.288,8.832 z m 9.024,-38.496 c -7.584,0 -10.368,2.304 -10.368,10.272 0,6.144 5.856,7.488 10.848,7.488 4.512,0 6.528,-5.952 6.528,-9.696 0,-4.512 -2.112,-8.064 -7.008,-8.064 z m 23.136,-1.536 c -4.992,0 -7.68,2.88 -7.68,7.872 0,11.232 -0.384,21.888 -0.384,39.936 0,9.408 2.208,18.816 13.44,18.816 5.664,0 12.672,-2.208 12.672,-8.832 0,-2.976 -1.632,-5.952 -4.8,-5.952 -2.304,0 -3.648,1.152 -4.896,1.152 -2.976,0 -3.264,-5.856 -3.264,-10.272 0,-16.128 2.304,-28.8 2.304,-32.16 0,-5.856 -0.672,-10.56 -7.392,-10.56 z m 44.448,16.32 c -15.168,0 -24.288,10.56 -24.288,25.728 0,15.456 8.256,25.632 23.808,25.632 7.296,0 20.352,-3.168 20.352,-12.48 0,-3.456 -3.072,-5.568 -6.144,-5.568 -5.664,0 -6.048,6.432 -13.92,6.432 -4.704,0 -7.872,-2.112 -9.504,-6.624 -0.096,-0.384 -0.192,-0.864 -0.192,-1.344 0,-1.056 0.96,-1.248 1.728,-1.248 1.728,0 3.36,0.288 4.992,0.288 9.792,0 22.464,-2.592 22.464,-14.784 0,-9.312 -9.408,-16.032 -19.296,-16.032 z m -4.416,21.696 c -2.592,0 -4.704,-0.384 -4.704,-3.456 0,-5.376 4.512,-7.584 9.12,-7.584 2.784,0 6.144,1.056 6.144,4.416 0,5.088 -6.432,6.624 -10.56,6.624 z m 48.8641,-21.6 c -10.08,0 -19.584,4.128 -19.584,15.264 0,8.928 6.528,13.248 14.4,14.784 3.072,0.672 11.136,0.384 11.136,4.8 0,3.36 -3.456,4.224 -6.336,4.224 -8.352,0 -9.792,-6.528 -14.112,-6.528 -4.224,0 -5.952,2.976 -5.952,6.912 0,8.352 11.136,11.232 18.24,11.328 12,0.192 21.408,-4.224 21.408,-16.896 0,-9.408 -7.104,-12.576 -15.264,-13.536 -2.88,-0.384 -10.944,-1.344 -10.944,-4.992 0,-2.592 2.208,-3.456 4.704,-3.456 5.472,0 8.928,4.224 13.056,4.224 3.648,0 6.048,-2.976 6.048,-6.72 0,-7.488 -10.08,-9.408 -16.8,-9.408 z"
     id="text14"
     transform="translate(-160.37179,448.94793)"
     aria-label="Precompiles" />
</svg>
