<?xml version="1.0" encoding="utf-8"?>
<!-- Generator: Adobe Illustrator 27.1.1, SVG Export Plug-In . SVG Version: 6.00 Build 0)  -->
<svg version="1.1" id="Layer_1" xmlns="http://www.w3.org/2000/svg" xmlns:xlink="http://www.w3.org/1999/xlink" x="0px" y="0px"
	 viewBox="0 0 1600 500" style="enable-background:new 0 0 1600 500;" xml:space="preserve">
<style type="text/css">
	.st0{fill-rule:evenodd;clip-rule:evenodd;fill:#E2DCFE;}
	.st1{fill:#B8AEFF;}
	.st2{fill:#BC83FB;}
	.st3{fill:#975CD6;}
	.st4{fill:#F7F7F7;}
	.st5{fill:#E2DCFE;}
	.st6{fill:#5D4DC4;}
	.st7{fill:#413296;}
	.st8{fill:#8D7CF7;}
</style>
<g>
	<path class="st0" d="M1600,24.8v428.5c0,8.3-4.1,15.7-10.3,20.2c-2.4,1.7-5.8,0.9-6.9-1.9c-3.9-9.7-16.4-16.8-31.2-16.8
		c-9.5,0-18,2.9-23.9,7.6c-1.9,1.5-4.6,1.3-6.2-0.6c-7.7-8.7-21.2-14.5-36.7-14.5c-13.9,0-26.4,4.7-34.3,12
		c-1.8,1.7-4.7,1.5-6.4-0.3c-9.3-10.1-25.8-16.8-44.6-16.8c-27.1,0-49.3,13.9-52.4,31.7c-0.4,2.4-2.5,4.1-4.9,4.1l-1317.2,0
		C11.1,478.2,0,467.1,0,453.4V24.8C0,11.1,11.1,0,24.8,0h1550.3C1588.9,0,1600,11.1,1600,24.8z"/>
</g>
<ellipse class="st0" cx="1483.8" cy="478.7" rx="27.9" ry="17.2"/>
<ellipse class="st0" cx="1552.4" cy="479" rx="18.6" ry="11.5"/>
<ellipse class="st0" cx="1399.5" cy="479.2" rx="33.9" ry="20.8"/>
<g>
	<g>
		<path class="st1" d="M537.1,429.2c0.7,8-180.9,12.1-182.4-0.5C353.3,416.1,536.4,421.2,537.1,429.2z"/>
	</g>
	<g>
		<path class="st2" d="M375.5,276c2.2,2,4.5,3.9,7,5.8c8.3,6.5,18.2,12.8,29.5,18.5c0.9,0.4,1.9,0,2.3-0.9
			c14.6-40.7,11.9-90-30.1-106.5c-4.5,1.8-8.5,3.8-12.1,6C340.9,217.9,345,248.7,375.5,276z"/>
	</g>
	<g>
		<path class="st3" d="M375.5,276c2.2,2,4.5,3.9,7,5.8c8.3,6.5,18.2,12.8,29.5,18.5c0.9,0.4,1.9,0,2.3-0.9
			c14.6-40.7,11.9-90-30.1-106.5c-4.5,1.8-8.5,3.8-12.1,6C397.4,236.9,384.1,264.3,375.5,276z"/>
	</g>
	<g>
		<path class="st3" d="M468.6,294.4c0.5,0.9,1.8,1.1,2.5,0.4c10.1-9.2,18.5-18.8,24.9-28.3c21.1-31.2,21.6-61.7-3.2-76.4
			c-3.8-2.3-8.3-4.2-13.4-5.6C441.1,208,447.1,256.9,468.6,294.4z"/>
	</g>
	<g>
		<path class="st2" d="M496.1,266.5c21.1-31.2,21.6-61.7-3.2-76.4C474.1,234.2,484.6,256,496.1,266.5z"/>
	</g>
	<g>
		<path class="st4" d="M404.7,409.6c14.7,25.7,60.1,29.9,74.8-2.4c1-2.2,4-2.2,5.1-0.1c10.6,20.7,37.7,26,52.6,8.4
			c16.4-19.4,2-64.5-56.6-83.9c10.5-4,15.7-25.1-8.6-33.6c-0.8-0.3-0.8-1.5,0-1.8c11.5-4.1,17.6-19.3-0.1-24.9
			c-1.5-0.5-3.1-0.9-5-1.2c12.6-26.6-17.4-21.6-48-6.9c-13.2,2-32.3,10.5-28,38c1.5,9.5,5.7,21.3,13.9,35.8
			c-26-14.8-52,21-21.5,41.2c-42.9,14.9-16.5,65.4,17,30.7C401.5,407.6,403.7,407.9,404.7,409.6z"/>
	</g>
	<g>
		<path class="st5" d="M390.8,301.3c10.1,0.7,22.5-2.9,27.9-22.8c10,26.5,36.9,38.1,53.2-7.2c-1.5-0.5-3.1-0.9-5-1.2
			c16.4-27.5-22.6-36-53.3-21.3C400.4,255.2,386.5,273.7,390.8,301.3z"/>
	</g>
	<g>
		
			<ellipse transform="matrix(0.9022 -0.4312 0.4312 0.9022 -143.2645 215.2138)" class="st4" cx="403" cy="423.6" rx="6.9" ry="8.5"/>
	</g>
	<g>
		
			<ellipse transform="matrix(0.3622 -0.9321 0.9321 0.3622 -35.4631 786.671)" class="st4" cx="557.1" cy="419.2" rx="7.7" ry="11.6"/>
	</g>
	<g>
		
			<ellipse transform="matrix(0.8745 -0.485 0.485 0.8745 -158.9299 242.0863)" class="st4" cx="388.4" cy="428.2" rx="4.1" ry="3.5"/>
	</g>
	<g>
		<path class="st6" d="M391.9,219.5L391.9,219.5c1.4,5.2,2.8,10.4,3.9,15.5c4.3,19.1,79.2,13.8,79.9-8.4c0.1-4.7,0.5-9.6,1-14.7
			c0-0.1,0-0.2,0-0.3c3.6-38.5,13.9-87.8-11-125c-9.5-14.2-24.1-26.6-46.1-36.1c-2.2-0.9-4.7-0.7-6.6,0.7
			c-11.6,8.3-20.2,17-26.4,26.2c-3.8,5.5-6.7,11.2-8.9,17v0c-0.9,2.3-1.6,4.6-2.3,6.9c-1,3.6-1.8,7.1-2.3,10.8
			C367.9,146.6,382.2,184.1,391.9,219.5z"/>
	</g>
	<g>
		<path class="st7" d="M375.3,101.4c17.2,15.1,90.3,8.6,90.3-14.8l-79.2-9.1c-3.8,5.5-6.7,11.2-8.9,17v0
			C376.8,96.8,376,99.1,375.3,101.4z"/>
	</g>
	<g>
		<path class="st8" d="M377.6,94.5L377.6,94.5c6.2,16.9,84.1,9.2,88-7.9v0c-9.5-14.2-24.1-26.6-46.1-36.1c-2.2-0.9-4.7-0.7-6.6,0.7
			C394.4,64.5,383.5,79.1,377.6,94.5z"/>
	</g>
	<g>
		
			<ellipse transform="matrix(1.720646e-02 -0.9999 0.9999 1.720646e-02 264.3757 577.9037)" class="st7" cx="426.2" cy="154.5" rx="30" ry="31.3"/>
	</g>
	<g>
		
			<ellipse transform="matrix(0.9982 -6.039326e-02 6.039326e-02 0.9982 -8.3389 26.094)" class="st2" cx="427.5" cy="151" rx="30.6" ry="27.3"/>
	</g>
	<g>
		<path class="st5" d="M420,169.6c1.7,0.6,3.4,1,5.3,1.3c4,0.5,7.8,0.1,11.3-1.2c7.1-2.6,12.4-8.4,13.2-15.9
			c1.2-11-7.7-21.2-20-22.7c-12.3-1.6-23.3,6-24.5,17C404.2,157.5,410.5,166.2,420,169.6z"/>
	</g>
	<g>
		<path class="st7" d="M391.9,219.5c1.4,5.2,2.8,10.4,3.9,15.5c4.3,19.1,79.2,13.8,79.9-8.4c0.1-4.7,0.5-9.6,1-14.7
			C474.7,226.7,395.2,231.2,391.9,219.5z"/>
	</g>
	<g>
		<path class="st2" d="M435.5,190.4c19.9,31.2,12.1,90.3,9.3,107.1c-0.3,1.5-2.3,1.9-3,0.5c-19.1-35.4-11.7-51.3-11.7-51.3l4.7-0.3
			c1.1-0.1,1.9-1,1.8-2.1c-2-23.2-2.6-45.6-2.8-53.4C433.8,190,435,189.6,435.5,190.4z"/>
	</g>
	<g>
		
			<ellipse transform="matrix(0.9997 -2.438299e-02 2.438299e-02 0.9997 -9.0545 9.0015)" class="st4" cx="364.6" cy="375.8" rx="5.9" ry="5"/>
	</g>
	<g>
		<path class="st8" d="M391.9,219.5c0,0,21.9-29.5-12.8-65.1c0,0,9.2-29.3-6.1-42.3C367.9,146.6,382.2,184.1,391.9,219.5z"/>
	</g>
	<g>
		
			<ellipse transform="matrix(0.5264 -0.8503 0.8503 0.5264 122.0175 376.8571)" class="st1" cx="399.3" cy="78.9" rx="9.8" ry="4.2"/>
	</g>
	<g>
		<ellipse transform="matrix(0.5362 -0.8441 0.8441 0.5362 71.6941 416.6678)" class="st4" cx="415" cy="143.1" rx="5.8" ry="3.7"/>
	</g>
	<g>
		<g>
			<path class="st1" d="M419.9,169.5c0,0,0.1,0.1,0.1,0.1c1.7,0.6,3.4,1,5.3,1.3c4,0.5,7.8,0.1,11.3-1.2c0.7-0.8,1-1.4,1-1.4
				c2-3.4,1.9-6.3,0.7-9.2c-1.8-4.6-6.2-9.3-9.2-16.4c-0.3-0.8-0.7-1.6-0.9-2.4c-0.3-0.8-1.4-0.7-1.6,0.1c-0.1,0.5-0.3,1.1-0.5,1.6
				c-2.5,7.4-7,12.2-8.5,17.1C416.6,162.3,416.5,165.5,419.9,169.5z"/>
		</g>
		<g>
			<path class="st1" d="M427.5,141.5c7.9,9.4,16.4,12.4,10.5,17.5S427.5,141.5,427.5,141.5z"/>
		</g>
		<g>
			<path class="st1" d="M427.1,141.1c-6,8.7-15.5,13.9-9.2,18.7C424.1,164.5,427.1,141.1,427.1,141.1z"/>
		</g>
	</g>
	<g>
		<path class="st3" d="M425.1,172.3c-1.9-0.2-3.8-0.7-5.6-1.3c-10.3-3.7-16.8-13.1-15.7-23c0.6-5.3,3.3-10,7.7-13.5
			c5-3.9,11.7-5.7,18.4-4.8c13,1.7,22.6,12.6,21.3,24.3c-0.9,7.7-6.3,14.2-14.2,17c-2.7,1-5.6,1.5-8.5,1.5
			C427.3,172.5,426.2,172.4,425.1,172.3z M413.2,136.8c-3.7,2.9-6.1,7-6.6,11.5c-1,8.5,4.7,16.7,13.8,20l0,0c1.6,0.6,3.3,1,5,1.2
			c3.6,0.5,7.3,0.1,10.6-1.1c6.9-2.5,11.6-8.1,12.3-14.7c1.1-10.2-7.3-19.7-18.8-21.2c-1-0.1-2-0.2-3-0.2
			C421.6,132.3,416.9,133.9,413.2,136.8z"/>
	</g>
</g>
<g>
	<g>
		<path class="st1" d="M266.3,429.2c0.7,8-180.9,12.1-182.4-0.5C82.4,416.1,265.5,421.2,266.3,429.2z"/>
	</g>
	<g>
		<path class="st2" d="M104.7,276c2.2,2,4.5,3.9,7,5.8c8.3,6.5,18.2,12.8,29.5,18.5c0.9,0.4,1.9,0,2.3-0.9
			c14.6-40.7,11.9-90-30.1-106.5c-4.5,1.8-8.5,3.8-12.1,6C70.1,217.9,74.2,248.7,104.7,276z"/>
	</g>
	<g>
		<path class="st3" d="M104.7,276c2.2,2,4.5,3.9,7,5.8c8.3,6.5,18.2,12.8,29.5,18.5c0.9,0.4,1.9,0,2.3-0.9
			c14.6-40.7,11.9-90-30.1-106.5c-4.5,1.8-8.5,3.8-12.1,6C126.6,236.9,113.2,264.3,104.7,276z"/>
	</g>
	<g>
		<path class="st3" d="M197.8,294.4c0.5,0.9,1.8,1.1,2.5,0.4c10.1-9.2,18.5-18.8,24.9-28.3c21.1-31.2,21.6-61.7-3.2-76.4
			c-3.8-2.3-8.3-4.2-13.4-5.6C170.3,208,176.3,256.9,197.8,294.4z"/>
	</g>
	<g>
		<path class="st2" d="M225.3,266.5c21.1-31.2,21.6-61.7-3.2-76.4C203.3,234.2,213.8,256,225.3,266.5z"/>
	</g>
	<g>
		<path class="st4" d="M133.9,409.6c14.7,25.7,60.1,29.9,74.8-2.4c1-2.2,4-2.2,5.1-0.1c10.6,20.7,37.7,26,52.6,8.4
			c16.4-19.4,2-64.5-56.6-83.9c10.5-4,15.7-25.1-8.6-33.6c-0.8-0.3-0.8-1.5,0-1.8c11.5-4.1,17.6-19.3-0.1-24.9
			c-1.5-0.5-3.1-0.9-5-1.2c12.6-26.6-17.4-21.6-48-6.9c-13.2,2-32.3,10.5-28,38c1.5,9.5,5.7,21.3,13.9,35.8
			c-26-14.8-52,21-21.5,41.2c-42.9,14.9-16.5,65.4,17,30.7C130.7,407.6,132.9,407.9,133.9,409.6z"/>
	</g>
	<g>
		<path class="st5" d="M119.9,301.3c10.1,0.7,22.5-2.9,27.9-22.8c10,26.5,36.9,38.1,53.2-7.2c-1.5-0.5-3.1-0.9-5-1.2
			c16.4-27.5-22.6-36-53.3-21.3C129.6,255.2,115.7,273.7,119.9,301.3z"/>
	</g>
	<g>
		
			<ellipse transform="matrix(0.9022 -0.4312 0.4312 0.9022 -169.7409 98.4252)" class="st4" cx="132.2" cy="423.6" rx="6.9" ry="8.5"/>
	</g>
	<g>
		
			<ellipse transform="matrix(0.3622 -0.9321 0.9321 0.3622 -208.1848 534.2435)" class="st4" cx="286.3" cy="419.2" rx="7.7" ry="11.6"/>
	</g>
	<g>
		
			<ellipse transform="matrix(0.8745 -0.485 0.485 0.8745 -192.9081 110.7495)" class="st4" cx="117.6" cy="428.2" rx="4.1" ry="3.5"/>
	</g>
	<g>
		<path class="st6" d="M121,219.5L121,219.5c1.4,5.2,2.8,10.4,3.9,15.5c4.3,19.1,79.2,13.8,79.9-8.4c0.1-4.7,0.5-9.6,1-14.7
			c0-0.1,0-0.2,0-0.3c3.6-38.5,13.9-87.8-11-125c-9.5-14.2-24.1-26.6-46.1-36.1c-2.2-0.9-4.7-0.7-6.6,0.7
			c-11.6,8.3-20.2,17-26.4,26.2c-3.8,5.5-6.7,11.2-8.9,17v0c-0.9,2.3-1.6,4.6-2.3,6.9c-1,3.6-1.8,7.1-2.3,10.8
			C97.1,146.6,111.4,184.1,121,219.5z"/>
	</g>
	<g>
		<path class="st7" d="M104.5,101.4c17.2,15.1,90.3,8.6,90.3-14.8l-79.2-9.1c-3.8,5.5-6.7,11.2-8.9,17v0
			C105.9,96.8,105.2,99.1,104.5,101.4z"/>
	</g>
	<g>
		<path class="st8" d="M106.8,94.5L106.8,94.5c6.2,16.9,84.1,9.2,88-7.9v0c-9.5-14.2-24.1-26.6-46.1-36.1c-2.2-0.9-4.7-0.7-6.6,0.7
			C123.6,64.5,112.7,79.1,106.8,94.5z"/>
	</g>
	<g>
		
			<ellipse transform="matrix(1.720646e-02 -0.9999 0.9999 1.720646e-02 -1.7828 307.1255)" class="st7" cx="155.3" cy="154.5" rx="30" ry="31.3"/>
	</g>
	<g>
		
			<ellipse transform="matrix(0.9982 -6.039326e-02 6.039326e-02 0.9982 -8.8333 9.7384)" class="st2" cx="156.7" cy="151" rx="30.6" ry="27.3"/>
	</g>
	<g>
		<path class="st5" d="M149.2,169.6c1.7,0.6,3.4,1,5.3,1.3c4,0.5,7.8,0.1,11.3-1.2c7.1-2.6,12.4-8.4,13.2-15.9
			c1.2-11-7.7-21.2-20-22.7c-12.3-1.6-23.3,6-24.5,17C133.4,157.5,139.7,166.2,149.2,169.6z"/>
	</g>
	<g>
		<path class="st7" d="M121,219.5c1.4,5.2,2.8,10.4,3.9,15.5c4.3,19.1,79.2,13.8,79.9-8.4c0.1-4.7,0.5-9.6,1-14.7
			C203.9,226.7,124.4,231.2,121,219.5z"/>
	</g>
	<g>
		<path class="st2" d="M164.6,190.4c19.9,31.2,12.1,90.3,9.3,107.1c-0.3,1.5-2.3,1.9-3,0.5c-19.1-35.4-11.7-51.3-11.7-51.3l4.7-0.3
			c1.1-0.1,1.9-1,1.8-2.1c-2-23.2-2.6-45.6-2.8-53.4C163,190,164.2,189.6,164.6,190.4z"/>
	</g>
	<g>
		
			<ellipse transform="matrix(0.9997 -2.438299e-02 2.438299e-02 0.9997 -9.135 2.3981)" class="st4" cx="93.8" cy="375.8" rx="5.9" ry="5"/>
	</g>
	<g>
		<path class="st8" d="M121,219.5c0,0,21.9-29.5-12.8-65.1c0,0,9.2-29.3-6.1-42.3C97.1,146.6,111.4,184.1,121,219.5z"/>
	</g>
	<g>
		
			<ellipse transform="matrix(0.5264 -0.8503 0.8503 0.5264 -6.2544 146.5896)" class="st1" cx="128.4" cy="78.9" rx="9.8" ry="4.2"/>
	</g>
	<g>
		
			<ellipse transform="matrix(0.5362 -0.8441 0.8441 0.5362 -53.8992 188.0804)" class="st4" cx="144.2" cy="143.1" rx="5.8" ry="3.7"/>
	</g>
	<g>
		<g>
			<path class="st1" d="M149,169.5c0,0,0.1,0.1,0.1,0.1c1.7,0.6,3.4,1,5.3,1.3c4,0.5,7.8,0.1,11.3-1.2c0.7-0.8,1-1.4,1-1.4
				c2-3.4,1.9-6.3,0.7-9.2c-1.8-4.6-6.2-9.3-9.2-16.4c-0.3-0.8-0.7-1.6-0.9-2.4c-0.3-0.8-1.4-0.7-1.6,0.1c-0.1,0.5-0.3,1.1-0.5,1.6
				c-2.5,7.4-7,12.2-8.5,17.1C145.8,162.3,145.7,165.5,149,169.5z"/>
		</g>
		<g>
			<path class="st1" d="M156.7,141.5c7.9,9.4,16.4,12.4,10.5,17.5C161.2,164.2,156.7,141.5,156.7,141.5z"/>
		</g>
		<g>
			<path class="st1" d="M156.2,141.1c-6,8.7-15.5,13.9-9.2,18.7C153.3,164.5,156.2,141.1,156.2,141.1z"/>
		</g>
	</g>
	<g>
		<path class="st3" d="M154.3,172.3c-1.9-0.2-3.8-0.7-5.6-1.3c-10.3-3.7-16.8-13.1-15.7-23c0.6-5.3,3.3-10,7.7-13.5
			c5-3.9,11.7-5.7,18.4-4.8c13,1.7,22.6,12.6,21.3,24.3c-0.9,7.7-6.3,14.2-14.2,17c-2.7,1-5.6,1.5-8.5,1.5
			C156.5,172.5,155.4,172.4,154.3,172.3z M142.4,136.8c-3.7,2.9-6.1,7-6.6,11.5c-1,8.5,4.7,16.7,13.8,20l0,0c1.6,0.6,3.3,1,5,1.2
			c3.6,0.5,7.3,0.1,10.6-1.1c6.9-2.5,11.6-8.1,12.3-14.7c1.1-10.2-7.3-19.7-18.8-21.2c-1-0.1-2-0.2-3-0.2
			C150.8,132.3,146.1,133.9,142.4,136.8z"/>
	</g>
</g>
<g>
	<g>
		<path class="st1" d="M1058.6,429.2c-0.7,8,180.9,12.1,182.4-0.5C1242.4,416.1,1059.3,421.2,1058.6,429.2z"/>
	</g>
	<g>
		<path class="st2" d="M1220.2,276c-2.2,2-4.5,3.9-7,5.8c-8.3,6.5-18.2,12.8-29.5,18.5c-0.9,0.4-1.9,0-2.3-0.9
			c-14.6-40.7-11.9-90,30.1-106.5c4.5,1.8,8.5,3.8,12.1,6C1254.8,217.9,1250.7,248.7,1220.2,276z"/>
	</g>
	<g>
		<path class="st3" d="M1220.2,276c-2.2,2-4.5,3.9-7,5.8c-8.3,6.5-18.2,12.8-29.5,18.5c-0.9,0.4-1.9,0-2.3-0.9
			c-14.6-40.7-11.9-90,30.1-106.5c4.5,1.8,8.5,3.8,12.1,6C1198.3,236.9,1211.6,264.3,1220.2,276z"/>
	</g>
	<g>
		<path class="st3" d="M1127.1,294.4c-0.5,0.9-1.8,1.1-2.5,0.4c-10.1-9.2-18.5-18.8-24.9-28.3c-21.1-31.2-21.6-61.7,3.2-76.4
			c3.8-2.3,8.3-4.2,13.4-5.6C1154.6,208,1148.6,256.9,1127.1,294.4z"/>
	</g>
	<g>
		<path class="st2" d="M1099.6,266.5c-21.1-31.2-21.6-61.7,3.2-76.4C1121.6,234.2,1111.1,256,1099.6,266.5z"/>
	</g>
	<g>
		<path class="st4" d="M1191,409.6c-14.7,25.7-60.1,29.9-74.8-2.4c-1-2.2-4-2.2-5.1-0.1c-10.6,20.7-37.7,26-52.6,8.4
			c-16.4-19.4-2-64.5,56.6-83.9c-10.5-4-15.7-25.1,8.6-33.6c0.8-0.3,0.8-1.5,0-1.8c-11.5-4.1-17.6-19.3,0.1-24.9
			c1.5-0.5,3.1-0.9,5-1.2c-12.6-26.6,17.4-21.6,48-6.9c13.2,2,32.3,10.5,28,38c-1.5,9.5-5.7,21.3-13.9,35.8c26-14.8,52,21,21.5,41.2
			c42.9,14.9,16.5,65.4-17,30.7C1194.2,407.6,1192,407.9,1191,409.6z"/>
	</g>
	<g>
		<path class="st5" d="M1204.9,301.3c-10.1,0.7-22.5-2.9-27.9-22.8c-10,26.5-36.9,38.1-53.2-7.2c1.5-0.5,3.1-0.9,5-1.2
			c-16.4-27.5,22.6-36,53.3-21.3C1195.3,255.2,1209.2,273.7,1204.9,301.3z"/>
	</g>
	<g>
		
			<ellipse transform="matrix(0.4312 -0.9022 0.9022 0.4312 296.1691 1316.9827)" class="st4" cx="1192.7" cy="423.6" rx="8.5" ry="6.9"/>
	</g>
	<g>
		
			<ellipse transform="matrix(0.9321 -0.3622 0.3622 0.9321 -81.3334 404.6684)" class="st4" cx="1038.6" cy="419.2" rx="11.6" ry="7.7"/>
	</g>
	<g>
		
			<ellipse transform="matrix(0.485 -0.8745 0.8745 0.485 247.3236 1276.3572)" class="st4" cx="1207.3" cy="428.2" rx="3.5" ry="4.1"/>
	</g>
	<g>
		<path class="st6" d="M1203.8,219.5L1203.8,219.5c-1.4,5.2-2.8,10.4-3.9,15.5c-4.3,19.1-79.2,13.8-79.9-8.4
			c-0.1-4.7-0.5-9.6-1-14.7c0-0.1,0-0.2,0-0.3c-3.6-38.5-13.9-87.8,11-125c9.5-14.2,24.1-26.6,46.1-36.1c2.2-0.9,4.7-0.7,6.6,0.7
			c11.6,8.3,20.2,17,26.4,26.2c3.8,5.5,6.7,11.2,8.9,17v0c0.9,2.3,1.6,4.6,2.3,6.9c1,3.6,1.8,7.1,2.3,10.8
			C1227.8,146.6,1213.5,184.1,1203.8,219.5z"/>
	</g>
	<g>
		<path class="st7" d="M1220.4,101.4c-17.2,15.1-90.3,8.6-90.3-14.8l79.2-9.1c3.8,5.5,6.7,11.2,8.9,17v0
			C1218.9,96.8,1219.7,99.1,1220.4,101.4z"/>
	</g>
	<g>
		<path class="st8" d="M1218.1,94.5L1218.1,94.5c-6.2,16.9-84.1,9.2-88-7.9v0c9.5-14.2,24.1-26.6,46.1-36.1c2.2-0.9,4.7-0.7,6.6,0.7
			C1201.2,64.5,1212.2,79.1,1218.1,94.5z"/>
	</g>
	<g>
		
			<ellipse transform="matrix(0.9999 -1.720646e-02 1.720646e-02 0.9999 -2.4847 20.1465)" class="st7" cx="1169.5" cy="154.5" rx="31.3" ry="30"/>
	</g>
	<g>
		
			<ellipse transform="matrix(6.039326e-02 -0.9982 0.9982 6.039326e-02 946.9184 1307.939)" class="st2" cx="1168.2" cy="151" rx="27.3" ry="30.6"/>
	</g>
	<g>
		<path class="st5" d="M1175.7,169.6c-1.7,0.6-3.4,1-5.3,1.3c-4,0.5-7.8,0.1-11.3-1.2c-7.1-2.6-12.4-8.4-13.2-15.9
			c-1.2-11,7.7-21.2,20-22.7c12.3-1.6,23.3,6,24.5,17C1191.5,157.5,1185.2,166.2,1175.7,169.6z"/>
	</g>
	<g>
		<path class="st7" d="M1203.8,219.5c-1.4,5.2-2.8,10.4-3.9,15.5c-4.3,19.1-79.2,13.8-79.9-8.4c-0.1-4.7-0.5-9.6-1-14.7
			C1120.9,226.7,1200.5,231.2,1203.8,219.5z"/>
	</g>
	<g>
		<path class="st2" d="M1160.2,190.4c-19.9,31.2-12.1,90.3-9.3,107.1c0.3,1.5,2.3,1.9,3,0.5c19.1-35.4,11.7-51.3,11.7-51.3l-4.7-0.3
			c-1.1-0.1-1.9-1-1.8-2.1c2-23.2,2.6-45.6,2.8-53.4C1161.9,190,1160.7,189.6,1160.2,190.4z"/>
	</g>
	<g>
		
			<ellipse transform="matrix(2.438299e-02 -0.9997 0.9997 2.438299e-02 825.4109 1597.3708)" class="st4" cx="1231.1" cy="375.8" rx="5" ry="5.9"/>
	</g>
	<g>
		<path class="st8" d="M1203.8,219.5c0,0-21.9-29.5,12.8-65.1c0,0-9.2-29.3,6.1-42.3C1227.8,146.6,1213.5,184.1,1203.8,219.5z"/>
	</g>
	<g>
		
			<ellipse transform="matrix(0.8503 -0.5264 0.5264 0.8503 137.6133 641.5616)" class="st1" cx="1196.4" cy="78.9" rx="4.2" ry="9.8"/>
	</g>
	<g>
		
			<ellipse transform="matrix(0.8441 -0.5362 0.5362 0.8441 107.3795 655.4411)" class="st4" cx="1180.7" cy="143.1" rx="3.7" ry="5.8"/>
	</g>
	<g>
		<g>
			<path class="st1" d="M1175.8,169.5c0,0-0.1,0.1-0.1,0.1c-1.7,0.6-3.4,1-5.3,1.3c-4,0.5-7.8,0.1-11.3-1.2c-0.7-0.8-1-1.4-1-1.4
				c-2-3.4-1.9-6.3-0.7-9.2c1.8-4.6,6.2-9.3,9.2-16.4c0.3-0.8,0.7-1.6,0.9-2.4c0.3-0.8,1.4-0.7,1.6,0.1c0.1,0.5,0.3,1.1,0.5,1.6
				c2.5,7.4,7,12.2,8.5,17.1C1179.1,162.3,1179.2,165.5,1175.8,169.5z"/>
		</g>
		<g>
			<path class="st1" d="M1168.2,141.5c-7.9,9.4-16.4,12.4-10.5,17.5C1163.7,164.2,1168.2,141.5,1168.2,141.5z"/>
		</g>
		<g>
			<path class="st1" d="M1168.6,141.1c6,8.7,15.5,13.9,9.2,18.7C1171.6,164.5,1168.6,141.1,1168.6,141.1z"/>
		</g>
	</g>
	<g>
		<path class="st3" d="M1167.2,172.5c-2.9,0-5.8-0.5-8.5-1.5c-7.9-2.8-13.3-9.3-14.2-17c-1.3-11.7,8.2-22.6,21.3-24.3
			c6.7-0.9,13.4,0.9,18.4,4.8c4.3,3.4,7.1,8.2,7.7,13.5c1.1,9.8-5.3,19.3-15.7,23c-1.8,0.6-3.7,1.1-5.6,1.3
			C1169.5,172.4,1168.3,172.5,1167.2,172.5z M1169.1,132.3c-1,0-2,0.1-3,0.2c-11.5,1.5-20,11-18.8,21.2c0.7,6.6,5.5,12.2,12.3,14.7
			c3.3,1.2,7,1.6,10.6,1.1c1.7-0.2,3.4-0.6,5-1.2l0,0c9.1-3.2,14.8-11.5,13.8-20c-0.5-4.5-2.8-8.6-6.6-11.5
			C1178.8,133.9,1174.1,132.3,1169.1,132.3z"/>
	</g>
</g>
<g>
	<g>
		<path class="st1" d="M1329.4,429.2c-0.7,8,180.9,12.1,182.4-0.5C1513.3,416.1,1330.1,421.2,1329.4,429.2z"/>
	</g>
	<g>
		<path class="st2" d="M1491,276c-2.2,2-4.5,3.9-7,5.8c-8.3,6.5-18.2,12.8-29.5,18.5c-0.9,0.4-1.9,0-2.3-0.9
			c-14.6-40.7-11.9-90,30.1-106.5c4.5,1.8,8.5,3.8,12.1,6C1525.6,217.9,1521.5,248.7,1491,276z"/>
	</g>
	<g>
		<path class="st3" d="M1491,276c-2.2,2-4.5,3.9-7,5.8c-8.3,6.5-18.2,12.8-29.5,18.5c-0.9,0.4-1.9,0-2.3-0.9
			c-14.6-40.7-11.9-90,30.1-106.5c4.5,1.8,8.5,3.8,12.1,6C1469.1,236.9,1482.5,264.3,1491,276z"/>
	</g>
	<g>
		<path class="st3" d="M1397.9,294.4c-0.5,0.9-1.8,1.1-2.5,0.4c-10.1-9.2-18.5-18.8-24.9-28.3c-21.1-31.2-21.6-61.7,3.2-76.4
			c3.8-2.3,8.3-4.2,13.4-5.6C1425.4,208,1419.4,256.9,1397.9,294.4z"/>
	</g>
	<g>
		<path class="st2" d="M1370.4,266.5c-21.1-31.2-21.6-61.7,3.2-76.4C1392.4,234.2,1381.9,256,1370.4,266.5z"/>
	</g>
	<g>
		<path class="st4" d="M1461.8,409.6c-14.7,25.7-60.1,29.9-74.8-2.4c-1-2.2-4-2.2-5.1-0.1c-10.6,20.7-37.7,26-52.6,8.4
			c-16.4-19.4-2-64.5,56.6-83.9c-10.5-4-15.7-25.1,8.6-33.6c0.8-0.3,0.8-1.5,0-1.8c-11.5-4.1-17.6-19.3,0.1-24.9
			c1.5-0.5,3.1-0.9,5-1.2c-12.6-26.6,17.4-21.6,48-6.9c13.2,2,32.3,10.5,28,38c-1.5,9.5-5.7,21.3-13.9,35.8c26-14.8,52,21,21.5,41.2
			c42.9,14.9,16.5,65.4-17,30.7C1465,407.6,1462.8,407.9,1461.8,409.6z"/>
	</g>
	<g>
		<path class="st5" d="M1475.8,301.3c-10.1,0.7-22.5-2.9-27.9-22.8c-10,26.5-36.9,38.1-53.2-7.2c1.5-0.5,3.1-0.9,5-1.2
			c-16.4-27.5,22.6-36,53.3-21.3C1466.1,255.2,1480,273.7,1475.8,301.3z"/>
	</g>
	<g>
		
			<ellipse transform="matrix(0.4312 -0.9022 0.9022 0.4312 450.1988 1561.3246)" class="st4" cx="1463.5" cy="423.6" rx="8.5" ry="6.9"/>
	</g>
	<g>
		
			<ellipse transform="matrix(0.9321 -0.3622 0.3622 0.9321 -62.9425 502.7651)" class="st4" cx="1309.4" cy="419.2" rx="11.6" ry="7.7"/>
	</g>
	<g>
		
			<ellipse transform="matrix(0.485 -0.8745 0.8745 0.485 386.8052 1513.1973)" class="st4" cx="1478.1" cy="428.2" rx="3.5" ry="4.1"/>
	</g>
	<g>
		<path class="st6" d="M1474.7,219.5L1474.7,219.5c-1.4,5.2-2.8,10.4-3.9,15.5c-4.3,19.1-79.2,13.8-79.9-8.4
			c-0.1-4.7-0.5-9.6-1-14.7c0-0.1,0-0.2,0-0.3c-3.6-38.5-13.9-87.8,11-125c9.5-14.2,24.1-26.6,46.1-36.1c2.2-0.9,4.7-0.7,6.6,0.7
			c11.6,8.3,20.2,17,26.4,26.2c3.8,5.5,6.7,11.2,8.9,17v0c0.9,2.3,1.6,4.6,2.3,6.9c1,3.6,1.8,7.1,2.3,10.8
			C1498.6,146.6,1484.3,184.1,1474.7,219.5z"/>
	</g>
	<g>
		<path class="st7" d="M1491.2,101.4c-17.2,15.1-90.3,8.6-90.3-14.8l79.2-9.1c3.8,5.5,6.7,11.2,8.9,17v0
			C1489.8,96.8,1490.5,99.1,1491.2,101.4z"/>
	</g>
	<g>
		<path class="st8" d="M1488.9,94.5L1488.9,94.5c-6.2,16.9-84.1,9.2-88-7.9v0c9.5-14.2,24.1-26.6,46.1-36.1c2.2-0.9,4.7-0.7,6.6,0.7
			C1472.1,64.5,1483,79.1,1488.9,94.5z"/>
	</g>
	<g>
		
			<ellipse transform="matrix(0.9999 -1.720646e-02 1.720646e-02 0.9999 -2.4446 24.8064)" class="st7" cx="1440.4" cy="154.5" rx="31.3" ry="30"/>
	</g>
	<g>
		
			<ellipse transform="matrix(6.039326e-02 -0.9982 0.9982 6.039326e-02 1201.3811 1578.2629)" class="st2" cx="1439" cy="151" rx="27.3" ry="30.6"/>
	</g>
	<g>
		<path class="st5" d="M1446.5,169.6c-1.7,0.6-3.4,1-5.3,1.3c-4,0.5-7.8,0.1-11.3-1.2c-7.1-2.6-12.4-8.4-13.2-15.9
			c-1.2-11,7.7-21.2,20-22.7c12.3-1.6,23.3,6,24.5,17C1462.3,157.5,1456,166.2,1446.5,169.6z"/>
	</g>
	<g>
		<path class="st7" d="M1474.7,219.5c-1.4,5.2-2.8,10.4-3.9,15.5c-4.3,19.1-79.2,13.8-79.9-8.4c-0.1-4.7-0.5-9.6-1-14.7
			C1391.8,226.7,1471.3,231.2,1474.7,219.5z"/>
	</g>
	<g>
		<path class="st2" d="M1431,190.4c-19.9,31.2-12.1,90.3-9.3,107.1c0.3,1.5,2.3,1.9,3,0.5c19.1-35.4,11.7-51.3,11.7-51.3l-4.7-0.3
			c-1.1-0.1-1.9-1-1.8-2.1c2-23.2,2.6-45.6,2.8-53.4C1432.7,190,1431.5,189.6,1431,190.4z"/>
	</g>
	<g>
		
			<ellipse transform="matrix(2.438299e-02 -0.9997 0.9997 2.438299e-02 1089.6259 1868.1088)" class="st4" cx="1501.9" cy="375.8" rx="5" ry="5.9"/>
	</g>
	<g>
		<path class="st8" d="M1474.7,219.5c0,0-21.9-29.5,12.8-65.1c0,0-9.2-29.3,6.1-42.3C1498.6,146.6,1484.3,184.1,1474.7,219.5z"/>
	</g>
	<g>
		
			<ellipse transform="matrix(0.8503 -0.5264 0.5264 0.8503 178.1643 784.1081)" class="st1" cx="1467.2" cy="78.9" rx="4.2" ry="9.8"/>
	</g>
	<g>
		
			<ellipse transform="matrix(0.8441 -0.5362 0.5362 0.8441 149.6103 800.6662)" class="st4" cx="1451.5" cy="143.1" rx="3.7" ry="5.8"/>
	</g>
	<g>
		<g>
			<path class="st1" d="M1446.7,169.5c0,0-0.1,0.1-0.1,0.1c-1.7,0.6-3.4,1-5.3,1.3c-4,0.5-7.8,0.1-11.3-1.2c-0.7-0.8-1-1.4-1-1.4
				c-2-3.4-1.9-6.3-0.7-9.2c1.8-4.6,6.2-9.3,9.2-16.4c0.3-0.8,0.7-1.6,0.9-2.4c0.3-0.8,1.4-0.7,1.6,0.1c0.1,0.5,0.3,1.1,0.5,1.6
				c2.5,7.4,7,12.2,8.5,17.1C1449.9,162.3,1450,165.5,1446.7,169.5z"/>
		</g>
		<g>
			<path class="st1" d="M1439,141.5c-7.9,9.4-16.4,12.4-10.5,17.5C1434.5,164.2,1439,141.5,1439,141.5z"/>
		</g>
		<g>
			<path class="st1" d="M1439.5,141.1c6,8.7,15.5,13.9,9.2,18.7C1442.4,164.5,1439.5,141.1,1439.5,141.1z"/>
		</g>
	</g>
	<g>
		<path class="st3" d="M1438,172.5c-2.9,0-5.8-0.5-8.5-1.5c-7.9-2.8-13.3-9.3-14.2-17c-1.3-11.7,8.2-22.6,21.3-24.3
			c6.7-0.9,13.4,0.9,18.4,4.8c4.3,3.4,7.1,8.2,7.7,13.5c1.1,9.8-5.3,19.3-15.7,23c-1.8,0.6-3.7,1.1-5.6,1.3
			C1440.3,172.4,1439.2,172.5,1438,172.5z M1440,132.3c-1,0-2,0.1-3,0.2c-11.5,1.5-20,11-18.8,21.2c0.7,6.6,5.5,12.2,12.3,14.7
			c3.3,1.2,7,1.6,10.6,1.1c1.7-0.2,3.4-0.6,5-1.2l0,0c9.1-3.2,14.8-11.5,13.8-20c-0.5-4.5-2.8-8.6-6.6-11.5
			C1449.6,133.9,1444.9,132.3,1440,132.3z"/>
	</g>
</g>
<g>
	<g>
		<path class="st2" d="M894.4,391.3c-3.3,3.5-6.8,6.9-10.5,10.3c-12.7,11.6-27.8,23-45.4,33.8c-1.4,0.8-3.1,0.3-3.8-1.2
			c-28.9-64-31-144.1,34.8-176.2c7.5,2.4,14.3,5.1,20.4,8.1C942.9,292.7,940.2,343.1,894.4,391.3z"/>
	</g>
	<g>
		<path class="st3" d="M894.4,391.3c-3.3,3.5-6.8,6.9-10.5,10.3c-12.7,11.6-27.8,23-45.4,33.8c-1.4,0.8-3.1,0.3-3.8-1.2
			c-28.9-64-31-144.1,34.8-176.2c7.5,2.4,14.3,5.1,20.4,8.1C854,330.8,879.1,373.4,894.4,391.3z"/>
	</g>
	<g>
		<path class="st3" d="M746.2,433.2c-0.7,1.5-2.7,2-4,1c-17.6-13.6-32.4-28-44-42.6c-38.3-47.8-43-97.1-4.8-124.1
			c5.9-4.2,12.9-7.8,20.9-10.8C779.5,289.9,776.1,369.7,746.2,433.2z"/>
	</g>
	<g>
		<path class="st2" d="M698.1,391.6c-38.3-47.8-43-97.1-4.8-124.1C729.5,336.4,715.3,373.2,698.1,391.6z"/>
	</g>
	<g>
		<path class="st4" d="M873.3,431c0,0.5,0,1-0.1,1.6c0,0.5-0.1,1.1-0.1,1.6c-0.9,12.1-4.3,26.6-11.1,44H716.6
			c-3.5-12.4,1.6-28.7,24.6-38.8c1.3-0.6,1.2-2.5-0.2-2.8c-10.4-2.7-18.6-11-19.5-19.8c-0.8-7.5,3.7-15.3,16.5-20.5
			c2.4-0.9,5-1.8,7.9-2.5c-14.2-24.7-2.4-33.2,20.3-31.8c2.2,0.1,4.5,0.4,6.9,0.7c9.8,1.3,21.2,4,33.1,7.9c3.6,1.2,7.3,2.4,11,3.8
			c1.9,0.7,3.8,1.4,5.6,2.1c17.6,1.2,42.1,8.9,48.8,36C872.9,417.7,873.5,423.9,873.3,431z"/>
	</g>
	<g>
		<path class="st5" d="M873.1,434.2c-16.2,2.5-36.8-1.8-48.1-33.3c-12.7,44.1-54.8,66.4-87-4.6c2.3-0.9,5-1.8,7.9-2.6
			c-30-42.4,32-61.2,83.4-41.3C851.5,360.9,876.4,389,873.1,434.2z"/>
	</g>
	<g>
		<path class="st6" d="M860.6,302.1L860.6,302.1c-1.6,8.6-3.1,17.2-4.3,25.6c-4.4,31.5-126.4,32.6-130.4-3.3
			c-0.8-7.6-2-15.5-3.5-23.7c0-0.1-0.1-0.3-0.1-0.4c-10.8-61.9-33.9-140.3,1.5-203.7c13.5-24.2,35.5-46.3,70-64.4
			c3.4-1.8,7.5-1.7,10.8,0.3c19.8,11.8,34.9,24.9,46.2,39c6.8,8.4,12.2,17.2,16.6,26.3l0,0c1.7,3.6,3.2,7.2,4.6,10.9
			c2.1,5.6,3.8,11.3,5.1,17.1C889.9,181,871.7,243.5,860.6,302.1z"/>
	</g>
	<g>
		<path class="st7" d="M872,108.8c-25.8,26.7-145,25.7-148.1-12.1l126.9-25c6.8,8.4,12.2,17.2,16.6,26.3l0,0
			C869.1,101.5,870.6,105.1,872,108.8z"/>
	</g>
	<g>
		<path class="st8" d="M867.4,97.9L867.4,97.9c-7.8,28.1-134.8,25.8-143.5-1.2l0,0c13.5-24.2,35.5-46.3,70-64.4
			c3.4-1.8,7.5-1.7,10.8,0.3C836.2,51.5,855.9,73.7,867.4,97.9z"/>
	</g>
	<g>
		
			<ellipse transform="matrix(0.9952 -9.745412e-02 9.745412e-02 0.9952 -15.821 78.5957)" class="st7" cx="796.7" cy="201.3" rx="50.8" ry="48.7"/>
	</g>
	<g>
		
			<ellipse transform="matrix(0.9998 -1.997037e-02 1.997037e-02 0.9998 -3.7521 15.896)" class="st2" cx="794" cy="195.8" rx="49.7" ry="44.4"/>
	</g>
	<g>
		<path class="st5" d="M808.6,224.9c-2.6,1.2-5.4,2.1-8.4,2.7c-6.4,1.3-12.7,1.1-18.4-0.4c-11.9-3.2-21.2-12-23.5-23.9
			c-3.4-17.6,9.8-35.2,29.5-39.4c19.7-4.1,38.4,6.8,41.9,24.4C832.6,203.3,823.5,218.2,808.6,224.9z"/>
	</g>
	<g>
		<path class="st7" d="M860.6,302.1c-1.6,8.6-3.1,17.2-4.3,25.6c-4.4,31.5-126.4,32.6-130.4-3.3c-0.8-7.6-2-15.5-3.5-23.7
			C727.4,324.4,856.8,321.3,860.6,302.1z"/>
	</g>
	<g>
		<path class="st2" d="M786.3,260.6c-28.1,53.1-7.7,147.8-1.1,174.6c0.6,2.4,4,2.7,5,0.4c26.4-59.8,12.2-84.5,12.2-84.5l-7.7,0.2
			c-1.8,0-3.3-1.4-3.3-3.2c0.2-37.8-1.7-74.1-2.4-86.8C788.9,259.7,787,259.3,786.3,260.6z"/>
	</g>
	<g>
		<path class="st8" d="M860.6,302.1c0,0-39.3-45,12.2-106.9c0,0-18.7-46.3,4.3-69.2C889.9,181,871.7,243.5,860.6,302.1z"/>
	</g>
	<g>
		
			<ellipse transform="matrix(0.8052 -0.5929 0.5929 0.8052 116.9551 507.0309)" class="st1" cx="830.3" cy="75.5" rx="6.8" ry="15.9"/>
	</g>
	<g>
		
			<ellipse transform="matrix(0.7983 -0.6023 0.6023 0.7983 54.7941 526.3746)" class="st4" cx="813.2" cy="181.4" rx="5.9" ry="9.5"/>
	</g>
	<g>
		<g>
			<path class="st1" d="M808.8,224.7c-0.1,0.1-0.1,0.2-0.2,0.2c-2.6,1.2-5.4,2.1-8.4,2.7c-6.4,1.3-12.7,1.1-18.4-0.4
				c-1.2-1.2-1.8-2.1-1.8-2.1c-3.6-5.2-3.8-9.9-2.4-14.7c2.3-7.7,8.8-15.8,12.8-27.8c0.4-1.3,0.8-2.6,1.2-4c0.3-1.3,2.1-1.3,2.5-0.1
				c0.3,0.9,0.6,1.7,1,2.5c5,11.6,12.9,18.8,16,26.6C813.2,212.6,813.7,217.8,808.8,224.7z"/>
		</g>
		<g>
			<path class="st1" d="M792.8,180.4c-11.5,16.2-24.9,22.2-14.6,29.7S792.8,180.4,792.8,180.4z"/>
		</g>
		<g>
			<path class="st1" d="M793.5,179.7c10.9,13.3,26.9,20.5,17.3,29C801.2,217.2,793.5,179.7,793.5,179.7z"/>
		</g>
	</g>
	<g>
		<path class="st3" d="M832,187.8c-1.6-8.4-6.7-15.8-14.1-20.8c-8.6-5.7-19.7-7.7-30.5-5.4c-20.9,4.4-34.9,23.3-31.2,42.1
			c2.4,12.3,12,22.2,25.2,25.7c4.5,1.2,9.2,1.6,14,1.2c1.8-0.2,3.6-0.4,5.4-0.8c3.1-0.7,6.1-1.6,8.9-2.9
			C825.8,219.7,835,203.6,832,187.8z M810.9,221.2L810.9,221.2c-1,0.6-2.1,1.1-3.2,1.6h0c-2.5,1.1-5.2,2-7.9,2.6
			c-5.8,1.2-11.8,1.1-17.3-0.4c-1.1-0.3-2.2-0.6-3.2-1c-9.8-3.7-16.8-11.5-18.7-21.1c-3.2-16.4,9.2-32.8,27.7-36.7
			c1.6-0.3,3.2-0.6,4.8-0.7c8-0.6,15.9,1.3,22.2,5.4c6.4,4.3,10.8,10.6,12.2,17.8C829.9,201.3,823.2,214.2,810.9,221.2z"/>
	</g>
</g>
<g>
	<g>
		<path class="st2" d="M-700.6,387c-3.5,3.1-7.1,6.2-11,9.2c-13.2,10.3-28.8,20.2-46.6,29.2c-1.4,0.7-3.1,0-3.6-1.5
			c-23.1-64.4-18.8-142.2,47.5-168.2c7.1,2.9,13.5,6.1,19.1,9.5C-645.9,295.2-652.4,343.9-700.6,387z"/>
	</g>
	<g>
		<path class="st3" d="M-700.6,387c-3.5,3.1-7.1,6.2-11,9.2c-13.2,10.3-28.8,20.2-46.6,29.2c-1.4,0.7-3.1,0-3.6-1.5
			c-23.1-64.4-18.8-142.2,47.5-168.2c7.1,2.9,13.5,6.1,19.1,9.5C-735.1,325.2-714,368.4-700.6,387z"/>
	</g>
	<g>
		<path class="st3" d="M-847.7,416.1c-0.8,1.4-2.8,1.7-4,0.6c-16-14.6-29.2-29.7-39.4-44.7c-33.4-49.4-34.1-97.6,5.1-120.7
			c6.1-3.6,13.1-6.6,21.1-8.9C-804.2,279.6-813.7,356.8-847.7,416.1z"/>
	</g>
	<g>
		<path class="st2" d="M-891,372c-33.4-49.4-34.1-97.6,5.1-120.7C-856.3,320.9-873,355.4-891,372z"/>
	</g>
	<g>
		<path class="st6" d="M-726.4,297.8L-726.4,297.8c-2.3,8.3-4.4,16.4-6.2,24.5c-6.8,30.2-125.2,21.8-126.2-13.3
			c-0.2-7.4-0.8-15.2-1.5-23.3c0-0.1,0-0.3,0-0.4c-5.7-60.9-21.9-138.7,17.4-197.5c15-22.4,38.1-42.1,72.9-57
			c3.4-1.5,7.4-1,10.4,1.1c18.3,13,31.9,26.9,41.8,41.5c5.9,8.7,10.5,17.7,14,26.8v0c1.4,3.6,2.6,7.2,3.6,10.9
			c1.6,5.6,2.8,11.3,3.6,17C-688.5,182.6-711.1,241.8-726.4,297.8z"/>
	</g>
	<g>
		<path class="st7" d="M-700.3,111.1C-727.4,135-843,124.7-843,87.8l125.1-14.4c5.9,8.7,10.5,17.7,14,26.8v0
			C-702.5,103.8-701.3,107.5-700.3,111.1z"/>
	</g>
	<g>
		<path class="st8" d="M-703.9,100.2L-703.9,100.2c-9.8,26.7-132.8,14.5-139.1-12.4v0c15-22.4,38.1-42.1,72.9-57
			c3.4-1.5,7.4-1,10.4,1.1C-730.5,52.8-713.1,75.8-703.9,100.2z"/>
	</g>
	<g>
		
			<ellipse transform="matrix(0.9999 -1.720646e-02 1.720646e-02 0.9999 -3.4703 -13.4019)" class="st7" cx="-780.6" cy="195" rx="49.4" ry="47.4"/>
	</g>
	<g>
		
			<ellipse transform="matrix(6.039326e-02 -0.9982 0.9982 6.039326e-02 -924.5662 -603.2266)" class="st2" cx="-782.7" cy="189.5" rx="43.2" ry="48.4"/>
	</g>
	<g>
		<path class="st5" d="M-770.8,218.9c-2.6,1-5.4,1.6-8.4,2c-6.3,0.8-12.4,0.1-17.8-1.8c-11.3-4-19.6-13.3-20.9-25.1
			c-1.9-17.3,12.2-33.4,31.7-35.9c19.4-2.5,36.8,9.6,38.7,26.9C-745.9,199.7-755.8,213.5-770.8,218.9z"/>
	</g>
	<g>
		<path class="st7" d="M-726.4,297.8c-2.3,8.3-4.4,16.4-6.2,24.5c-6.8,30.2-125.2,21.8-126.2-13.3c-0.2-7.4-0.8-15.2-1.5-23.3
			C-857.3,309-731.6,316.2-726.4,297.8z"/>
	</g>
	<g>
		<path class="st2" d="M-795.3,251.7c-31.5,49.3-19,142.8-14.7,169.3c0.4,2.4,3.6,3,4.8,0.8c30.3-56,18.4-81,18.4-81l-7.5-0.4
			c-1.7-0.1-3.1-1.6-2.9-3.4c3.1-36.6,4.2-72,4.4-84.4C-792.7,251.1-794.5,250.5-795.3,251.7z"/>
	</g>
	<g>
		<path class="st8" d="M-726.4,297.8c0,0-34.6-46.7,20.2-102.8c0,0-14.5-46.3,9.6-66.8C-688.5,182.6-711.1,241.8-726.4,297.8z"/>
	</g>
	<g>
		
			<ellipse transform="matrix(0.8503 -0.5264 0.5264 0.8503 -150.2977 -377.1749)" class="st1" cx="-738.1" cy="75.6" rx="6.6" ry="15.5"/>
	</g>
	<g>
		
			<ellipse transform="matrix(0.8441 -0.5362 0.5362 0.8441 -213.8877 -381.547)" class="st4" cx="-763" cy="177" rx="5.8" ry="9.2"/>
	</g>
	<g>
		<g>
			<path class="st1" d="M-770.6,218.7c-0.1,0.1-0.1,0.1-0.2,0.2c-2.6,1-5.4,1.6-8.4,2c-6.3,0.8-12.4,0.1-17.8-1.8
				c-1.1-1.3-1.6-2.2-1.6-2.2c-3.1-5.4-2.9-9.9-1.2-14.5c2.8-7.3,9.8-14.7,14.6-25.9c0.5-1.2,1-2.5,1.5-3.8c0.4-1.2,2.1-1.1,2.5,0.1
				c0.2,0.9,0.5,1.7,0.8,2.5c3.9,11.6,11.1,19.2,13.5,27.1C-765.4,207.3-765.3,212.4-770.6,218.7z"/>
		</g>
		<g>
			<path class="st1" d="M-782.6,174.5c-12.4,14.8-25.9,19.6-16.5,27.7C-789.8,210.3-782.6,174.5-782.6,174.5z"/>
		</g>
		<g>
			<path class="st1" d="M-782,173.8c9.5,13.8,24.5,22,14.6,29.5C-777.4,210.8-782,173.8-782,173.8z"/>
		</g>
	</g>
	<g>
		<path class="st3" d="M-784.2,223.5c-4.6,0-9.2-0.8-13.5-2.3c-12.5-4.5-21-14.8-22.4-26.9c-2.1-18.5,13-35.7,33.6-38.4
			c10.6-1.4,21.2,1.4,29.1,7.6c6.9,5.4,11.2,12.9,12.1,21.3c1.7,15.5-8.4,30.4-24.8,36.3c-2.8,1-5.8,1.7-8.8,2.1
			C-780.7,223.3-782.5,223.5-784.2,223.5z M-781.2,160c-1.6,0-3.2,0.1-4.7,0.3c-18.2,2.3-31.5,17.3-29.7,33.5
			c1.2,10.4,8.6,19.3,19.5,23.2c5.2,1.9,11,2.5,16.7,1.7c2.7-0.3,5.4-1,7.9-1.9l0,0c14.4-5.1,23.3-18.1,21.8-31.6
			c-0.8-7.1-4.5-13.6-10.4-18.2C-765.9,162.4-773.4,160-781.2,160z"/>
	</g>
</g>
</svg>
