<?xml version="1.0" encoding="UTF-8"?>
<svg id="Layer_1" data-name="Layer 1" xmlns="http://www.w3.org/2000/svg" viewBox="0 0 1600 500">
  <defs>
    <style>
      .cls-1 {
        fill: #d7b6fa;
        fill-rule: evenodd;
      }

      .cls-1, .cls-2, .cls-3, .cls-4, .cls-5 {
        stroke-width: 0px;
      }

      .cls-3 {
        fill: #ba81f9;
      }

      .cls-4 {
        fill: #fff;
      }

      .cls-5 {
        fill: #ead9fc;
      }
    </style>
  </defs>
  <g>
    <path class="cls-1" d="M1600,24.84v428.52c0,8.31-4.08,15.66-10.34,20.17-2.4,1.73-5.84.86-6.95-1.88-3.92-9.72-16.41-16.83-31.21-16.83-9.47,0-17.99,2.91-23.93,7.55-1.91,1.49-4.64,1.25-6.24-.56-7.66-8.68-21.22-14.45-36.68-14.45-13.95,0-26.37,4.71-34.28,12.01-1.84,1.7-4.72,1.55-6.42-.29-9.32-10.07-25.83-16.76-44.62-16.76-27.05,0-49.35,13.85-52.36,31.7-.4,2.39-2.49,4.14-4.91,4.14l-1317.22.05c-13.71,0-24.83-11.12-24.83-24.84V24.84C0,11.12,11.12,0,24.83,0h1550.34C1588.88,0,1600,11.12,1600,24.84Z"/>
    <g>
      <ellipse class="cls-3" cx="1399.46" cy="479.16" rx="33.87" ry="20.84"/>
      <ellipse class="cls-3" cx="1483.78" cy="478.69" rx="27.94" ry="17.19"/>
      <ellipse class="cls-3" cx="1552.37" cy="479.04" rx="18.65" ry="11.48"/>
    </g>
  </g>
  <path class="cls-3" d="M1600,395.54v57.82c0,8.31-4.08,15.66-10.35,20.17-2.4,1.72-5.84.86-6.94-1.88-3.93-9.72-16.41-16.83-31.21-16.83-9.47,0-17.99,2.91-23.93,7.55-1.91,1.49-4.64,1.25-6.24-.56-7.66-8.68-21.22-14.45-36.68-14.45-13.95,0-26.37,4.7-34.29,12-1.84,1.7-4.71,1.55-6.42-.29-9.32-10.07-25.83-16.76-44.62-16.76-27.06,0-49.35,13.85-52.37,31.7-.4,2.39-2.48,4.14-4.91,4.14l-1317.21.05C11.12,478.2,0,467.08,0,453.36v-146.93s282.67,88.97,465.45,88.88c289.52-.15,715.14-126.59,1134.55.24Z"/>
  <path class="cls-5" d="M0,21.33v58.55c526.76-48.85,864.32,138.05,1600-3.86V21.33C1600,9.55,1588.88,0,1575.17,0H24.83C11.12,0,0,9.55,0,21.33Z"/>
  <g>
    <rect class="cls-4" x="451.84" y="153.12" width="696.32" height="168.76" rx="29.69" ry="29.69"/>
    <g>
      <path class="cls-2" d="M583.26,241.64c0-15.84,6.44-24.35,16.95-24.35s16.95,8.51,16.95,24.35-6.44,24.64-16.95,24.64-16.95-8.95-16.95-24.64ZM611.45,241.64c0-13.54-4.66-19.39-11.25-19.39s-11.25,5.85-11.25,19.39,4.66,19.69,11.25,19.69,11.25-6.14,11.25-19.69ZM595.62,241.13c0-3.03,2.15-4.88,4.59-4.88s4.59,1.85,4.59,4.88-2.15,4.96-4.59,4.96-4.59-1.85-4.59-4.96Z"/>
      <path class="cls-2" d="M640.76,246.75l-12.58-17.32h6.73l5.7,7.84c1.26,2,2.74,4.14,4.22,6.07h.3c1.33-1.92,2.81-4.14,4.07-6.14l5.33-7.77h6.51l-12.73,17.83,13.77,18.13h-6.81l-6.22-8.29c-1.55-2-3.18-4.44-4.74-6.51h-.3c-1.48,2.15-2.96,4.29-4.44,6.59l-5.92,8.21h-6.51l13.62-18.65Z"/>
      <path class="cls-2" d="M671.61,241.13c0-15.62,9.1-25.16,21.76-25.16,5.85,0,10.44,2.81,13.32,5.92l-3.55,3.92c-2.52-2.66-5.7-4.37-9.77-4.37-9.25,0-15.32,7.47-15.32,19.54s6.07,19.83,15.32,19.83c4.44,0,7.84-1.92,10.88-5.33l3.55,3.77c-3.77,4.44-8.58,7.03-15.02,7.03-11.99,0-21.17-9.32-21.17-25.16Z"/>
      <path class="cls-2" d="M729.85,216.85h7.1l16.36,48.55h-6.66l-8.36-27.09c-1.7-5.4-3.33-10.73-4.81-16.35h-.3c-1.55,5.62-3.11,10.95-4.81,16.35l-8.51,27.09h-6.36l16.36-48.55ZM722.16,245.64h22.28v5.03h-22.28v-5.03Z"/>
      <path class="cls-2" d="M765.44,216.85h29.82v5.25h-23.61v16.35h19.98v5.25h-19.98v21.68h-6.22v-48.55Z"/>
      <path class="cls-2" d="M808.44,216.85h30.05v5.25h-23.83v15.17h20.13v5.25h-20.13v17.61h24.57v5.25h-30.79v-48.55Z"/>
      <path class="cls-2" d="M851.73,216.85h13.77c9.92,0,16.65,3.33,16.65,11.84,0,4.81-2.74,9.1-8.51,10.58v.3c7.1,1.11,11.25,4.96,11.25,11.62,0,9.55-7.4,14.21-18.28,14.21h-14.88v-48.55ZM864.45,237.28c8.29,0,11.62-2.66,11.62-8.07s-3.85-7.18-11.32-7.18h-6.88v15.25h6.59ZM865.71,260.22c8.29,0,13.1-2.74,13.1-9.32,0-5.99-4.59-8.44-13.1-8.44h-7.84v17.76h7.84Z"/>
      <path class="cls-2" d="M907.45,216.85h7.1l16.36,48.55h-6.66l-8.36-27.09c-1.7-5.4-3.33-10.73-4.81-16.35h-.3c-1.55,5.62-3.11,10.95-4.81,16.35l-8.51,27.09h-6.36l16.36-48.55ZM899.75,245.64h22.28v5.03h-22.28v-5.03Z"/>
      <path class="cls-2" d="M940.52,216.85h13.77c9.92,0,16.65,3.33,16.65,11.84,0,4.81-2.74,9.1-8.51,10.58v.3c7.1,1.11,11.25,4.96,11.25,11.62,0,9.55-7.4,14.21-18.28,14.21h-14.88v-48.55ZM953.25,237.28c8.29,0,11.62-2.66,11.62-8.07s-3.85-7.18-11.32-7.18h-6.88v15.25h6.59ZM954.51,260.22c8.29,0,13.1-2.74,13.1-9.32,0-5.99-4.59-8.44-13.1-8.44h-7.84v17.76h7.84Z"/>
      <path class="cls-2" d="M986.03,216.85h30.05v5.25h-23.83v15.17h20.13v5.25h-20.13v17.61h24.57v5.25h-30.79v-48.55Z"/>
    </g>
  </g>
  <g>
    <ellipse class="cls-3" cx="1399.46" cy="479.16" rx="33.87" ry="20.84"/>
    <ellipse class="cls-3" cx="1483.78" cy="478.69" rx="27.94" ry="17.19"/>
    <ellipse class="cls-3" cx="1552.37" cy="479.04" rx="18.65" ry="11.48"/>
  </g>
</svg>