<?xml version="1.0" encoding="utf-8"?>
<!-- Generator: Adobe Illustrator 28.1.0, SVG Export Plug-In . SVG Version: 6.00 Build 0)  -->
<svg version="1.1" id="Ebene_1" xmlns="http://www.w3.org/2000/svg" xmlns:xlink="http://www.w3.org/1999/xlink" x="0px" y="0px"
	 viewBox="0 0 1600 500" style="enable-background:new 0 0 1600 500;" xml:space="preserve">
<style type="text/css">
	.st0{fill-rule:evenodd;clip-rule:evenodd;fill:#D7B6FA;}
	.st1{fill:#BC83FB;}
	.st2{fill:#8747CC;}
	.st3{fill:none;stroke:#8747CC;stroke-width:2.5704;stroke-miterlimit:10;}
	.st4{fill-rule:evenodd;clip-rule:evenodd;fill:#FFFFFF;}
</style>
<path class="st0" d="M1600.5,24.9v428.5c0,8.3-4.1,15.7-10.3,20.2c-2.4,1.7-5.8,0.9-6.9-1.9c-3.9-9.7-16.4-16.8-31.2-16.8
	c-9.5,0-18,2.9-23.9,7.5c-1.9,1.5-4.6,1.2-6.2-0.6c-7.7-8.7-21.2-14.5-36.7-14.5c-13.9,0-26.4,4.7-34.3,12c-1.8,1.7-4.7,1.5-6.4-0.3
	c-9.3-10.1-25.8-16.8-44.6-16.8c-27.1,0-49.3,13.9-52.4,31.7c-0.4,2.4-2.5,4.1-4.9,4.1l-1317,0c-13.7,0-24.8-11.1-24.8-24.8V24.9
	C0.7,11.2,11.8,0,25.5,0h1550c13.7,0,24.8,11.1,24.8,24.8L1600.5,24.9z"/>
<ellipse class="st0" cx="1399" cy="479.2" rx="33.9" ry="20.8"/>
<ellipse class="st0" cx="1484" cy="478.7" rx="27.9" ry="17.2"/>
<ellipse class="st0" cx="1552" cy="479" rx="18.7" ry="11.5"/>
<g>
	<defs>
		<path id="SVGID_1_" d="M1600,24.8v428.5c0,8.3-4.1,15.7-10.3,20.2c-2.4,1.7-5.8,0.9-6.9-1.9c-3.9-9.7-16.4-16.8-31.2-16.8
			c-9.5,0-18,2.9-23.9,7.5c-1.9,1.5-4.6,1.2-6.2-0.6c-7.7-8.7-21.2-14.5-36.7-14.5c-13.9,0-26.4,4.7-34.3,12
			c-1.8,1.7-4.7,1.5-6.4-0.3c-9.3-10.1-25.8-16.8-44.6-16.8c-27.1,0-49.3,13.9-52.4,31.7c-0.4,2.4-2.5,4.1-4.9,4.1l-1317,0
			c-13.7,0-24.8-11.1-24.8-24.8V24.8C0.2,11.1,11.3,0,25.1,0h1550c13.7,0,24.8,11.1,24.8,24.8L1600,24.8z"/>
	</defs>
	<clipPath id="SVGID_00000082331341035230886490000008876993031537070003_">
		<use xlink:href="#SVGID_1_"  style="overflow:visible;"/>
	</clipPath>
</g>
<g>
	<path class="st1" d="M791.6,76.2c-38.7,56.8-117.5,61.6-147.3,61.2c-6.5-0.1-11.6,5.6-11.3,12.3c9.3,218.1,118.1,245.5,161.8,256.2
		c3.8,0.9,7.8,0.9,11.6,0c43.6-10.7,152.5-38.1,161.8-256.2c0.3-6.8-4.9-12.4-11.3-12.3c-29.8,0.4-108.6-4.4-147.3-61.2
		C805.3,70,795.9,70,791.6,76.2z"/>
	<path class="st2" d="M964.5,195.5c-2.4,20.3-5.9,38.6-10.2,55c-57.4,62-239.7,5.4-270.6,83.9c-15.5-22.2-29.2-51.5-38.4-90.4
		C783.2,183.8,870.6,264.3,964.5,195.5z"/>
	<path class="st1" d="M793.7,118.4c-29.8,43.8-90.5,47.4-113.4,47.1c-5-0.1-9,4.3-8.7,9.5c7.3,172.3,95.4,190.1,127.1,198
		c1.3,0.3,2.6,0.3,3.9,0c31.7-7.9,119.8-25.6,127.1-198c0.2-5.2-3.8-9.6-8.7-9.5c-22.9,0.3-83.6-3.4-113.4-47.1
		C804.1,113.5,797,113.5,793.7,118.4z"/>
	<path class="st3" d="M793.7,118.4c-29.8,43.8-90.5,47.4-113.4,47.1c-5-0.1-9,4.3-8.7,9.5c7.1,166.4,89.4,188.7,123.6,197.1
		c3.6,0.9,7.3,0.9,10.9,0c34.2-8.4,116.5-30.7,123.6-197.1c0.2-5.2-3.8-9.6-8.7-9.5c-22.9,0.3-83.6-3.4-113.4-47.1
		C804.1,113.5,797,113.5,793.7,118.4z"/>
	<g>
		<path class="st4" d="M890.8,218.9L890.8,218.9c-0.8,0.8-2,0.8-2.8,0c-8.1-8.2-24.5-8.3-36.3,3.5c-8.1,8.2-11.1,19.3-8.2,28.3
			c0.5,1.5-0.8,2.9-2.4,2.5c-16.3-4.2-34.8,14.2-30.2,30.7c0.4,1.3-0.6,2.7-2,2.6c-14.1-1.4-25.7,17.6-17.2,27.3
			c1,1.2,0.2,3.1-1.3,3.2c-2.4,0.3-4.8-0.5-6.6-2.3l-70.1-70.2c-3.2-3.1-3.1-8.3,0-11.4l19-18.9c3.1-3.1,8.2-3.1,11.3,0.1l38.1,38.2
			c3.1,3.1,8.2,3.1,11.4,0l65.3-65.4c3.1-3.1,8.2-3.1,11.4,0l20.6,20.6C894,210.7,894,215.8,890.8,218.9z"/>
		<ellipse transform="matrix(0.7042 -0.71 0.71 0.7042 84.7167 690.3146)" class="st4" cx="870.8" cy="243.5" rx="21.5" ry="18"/>
		<ellipse transform="matrix(0.7042 -0.71 0.71 0.7042 50.3311 674.1951)" class="st4" cx="834.3" cy="276.7" rx="16.3" ry="13.5"/>
		<ellipse transform="matrix(0.7042 -0.71 0.71 0.7042 22.6307 662.8121)" class="st4" cx="806.8" cy="304.2" rx="10.2" ry="8.5"/>
	</g>
</g>
</svg>
