<?xml version="1.0" encoding="utf-8"?>
<!-- Generator: Adobe Illustrator 27.1.1, SVG Export Plug-In . SVG Version: 6.00 Build 0)  -->
<svg version="1.1" id="Layer_1" xmlns="http://www.w3.org/2000/svg" xmlns:xlink="http://www.w3.org/1999/xlink" x="0px" y="0px"
	 viewBox="0 0 1600 500" style="enable-background:new 0 0 1600 500;" xml:space="preserve">
<style type="text/css">
	.st0{fill-rule:evenodd;clip-rule:evenodd;fill:#BB82FA;}
	.st1{clip-path:url(#SVGID_00000038392244826099421520000007868451027541335215_);}
	.st2{fill:#FAAA49;}
	.st3{fill:#FFDF94;}
	.st4{fill:#CC7D12;}
	.st5{fill:#FFFFFF;}
	.st6{fill:#F9E3FF;}
	.st7{clip-path:url(#SVGID_00000129900447839578417660000008709407450199206791_);}
	.st8{clip-path:url(#SVGID_00000023972978041822433350000013060617387369215137_);}
</style>
<g>
	<path class="st0" d="M1600,24.84v428.52c0,8.31-4.08,15.66-10.34,20.17c-2.4,1.73-5.84,0.86-6.95-1.88
		c-3.92-9.72-16.41-16.83-31.21-16.83c-9.47,0-17.99,2.91-23.93,7.55c-1.91,1.49-4.64,1.25-6.24-0.56
		c-7.66-8.68-21.22-14.45-36.68-14.45c-13.95,0-26.37,4.71-34.28,12.01c-1.84,1.7-4.72,1.55-6.42-0.29
		c-9.32-10.07-25.83-16.76-44.62-16.76c-27.05,0-49.35,13.85-52.36,31.7c-0.4,2.39-2.49,4.14-4.91,4.14L24.83,478.2
		C11.12,478.2,0,467.08,0,453.36V24.84C0,11.12,11.12,0,24.83,0h1550.34C1588.88,0,1600,11.12,1600,24.84z"/>
</g>
<ellipse class="st0" cx="1399.46" cy="479.16" rx="33.87" ry="20.84"/>
<ellipse class="st0" cx="1483.78" cy="478.69" rx="27.94" ry="17.19"/>
<ellipse class="st0" cx="1552.37" cy="479.04" rx="18.65" ry="11.48"/>
<g>
	<defs>
		<ellipse id="SVGID_1_" cx="1483.78" cy="478.69" rx="27.94" ry="17.19"/>
	</defs>
	<clipPath id="SVGID_00000096032096750104531180000001351698178922463903_">
		<use xlink:href="#SVGID_1_"  style="overflow:visible;"/>
	</clipPath>
	<g style="clip-path:url(#SVGID_00000096032096750104531180000001351698178922463903_);">
		<g>
			<path class="st2" d="M181.73,292.69l-56.95-19.1c-21.7,34.54-66.81,96.09-66.81,96.09l80.35,70.69l57.72,3.36l64.51-90.81
				L181.73,292.69z"/>
			<polygon class="st3" points="260.56,352.91 234.21,346.97 207.32,340.89 124.78,273.59 181.73,292.69 227.89,327.95 			"/>
			<path class="st4" d="M260.56,352.92l-17.34,24.41l-11.33,15.95l-35.84,50.45l-21.27-1.24l-36.45-2.13
				c21.31-37.23,47.77-63.63,69-99.47l26.89,6.07L260.56,352.92z"/>
			<path class="st4" d="M70.7,367.04l12.13-3.1c0.6-0.15,1.13,0.43,0.91,1.01l-3.94,10.4c-0.19,0.5-0.83,0.66-1.23,0.3l-8.19-7.3
				C69.92,367.95,70.1,367.2,70.7,367.04z"/>
			
				<ellipse transform="matrix(0.9985 -0.0551 0.0551 0.9985 -20.7818 5.7252)" class="st4" cx="93.49" cy="379.92" rx="7.47" ry="6.93"/>
			<polygon class="st5" points="213.98,317.33 161.88,303.85 178.03,317.01 224.32,325.23 			"/>
			<path class="st6" d="M161.88,303.85l-12.25,16.45c10.58,0.76,4.5,10.62,16.35,12.15l12.05-15.43L161.88,303.85z"/>
		</g>
		<g>
			<path class="st2" d="M-7.73,588.01l41.47,43.46c35.31-20.43,103.92-53.83,103.92-53.83l-38.1-100l-49.49-29.9l-99.42,50.23
				L-7.73,588.01z"/>
			<polygon class="st3" points="-49.36,497.98 -28.83,515.52 -7.88,533.44 33.74,631.47 -7.73,588.01 -32.11,535.29 			"/>
			<path class="st4" d="M-49.36,497.97l26.73-13.51l17.46-8.82l55.24-27.91l18.24,11.02l31.25,18.89
				c-36.22,22.99-71.93,34.01-107.43,55.8l-20.95-17.91L-49.36,497.97z"/>
			<path class="st4" d="M125.17,574.03l-12.17-2.92c-0.6-0.14-0.79-0.91-0.33-1.32l8.33-7.36c0.4-0.36,1.04-0.2,1.23,0.31
				l3.84,10.28C126.28,573.6,125.76,574.18,125.17,574.03z"/>
			
				<ellipse transform="matrix(0.417 -0.9089 0.9089 0.417 -437.0006 422.7198)" class="st4" cx="111.02" cy="552.01" rx="6.93" ry="7.47"/>
			<polygon class="st5" points="-24.76,551.18 15.03,587.4 6.89,568.23 -30.22,539.36 			"/>
			<path class="st6" d="M15.03,587.4l18.51-8.84c-9.01-5.6,0.97-11.49-8.79-18.37l-17.86,8.03L15.03,587.4z"/>
		</g>
		<g>
			<path class="st2" d="M191.26,71.75l-66.17,13.44c-1.7,45.82-10.99,131.09-10.99,131.09l117.95,23.61l58.07-29.19l11.72-124.66
				L191.26,71.75z"/>
			<polygon class="st3" points="301.84,86.03 272.86,95.06 243.27,104.27 125.09,85.18 191.26,71.75 256.01,80.11 			"/>
			<path class="st4" d="M301.84,86.03l-3.15,33.51l-2.06,21.89l-6.51,69.26l-21.4,10.76l-36.67,18.43
				c-0.19-48.22,10.71-88.79,11.22-135.61l29.58-9.21L301.84,86.03z"/>
			<path class="st4" d="M125.01,206.55l10.06-9.83c0.5-0.49,1.34-0.21,1.45,0.48l2.01,12.33c0.1,0.6-0.43,1.1-1.02,0.98l-12.08-2.5
				C124.76,207.87,124.51,207.04,125.01,206.55z"/>
			
				<ellipse transform="matrix(0.837 -0.5472 0.5472 0.837 -87.706 118.1347)" class="st4" cx="154.43" cy="206.28" rx="8.39" ry="7.79"/>
			<polygon class="st5" points="236.49,77.59 178.21,93.77 201.33,97.5 251.01,79.47 			"/>
			<path class="st6" d="M178.21,93.77l-2.67,22.9c10.72-5.21,10.35,7.8,22.74,2.63l3.05-21.8L178.21,93.77z"/>
		</g>
		<g>
			<path class="st2" d="M28.2-25.38l-41.64,6.32c-2.48,28.5-10.92,81.34-10.92,81.34L48.4,80.64l37.09-16.38l11.18-77.31L28.2-25.38
				z"/>
			<polygon class="st3" points="96.66,-13.05 78.32,-8.32 59.6,-3.51 -13.44,-19.07 28.2,-25.39 68.29,-18.16 			"/>
			<path class="st4" d="M96.66-13.05l-3,20.78l-1.96,13.58l-6.21,42.95L71.82,70.3L48.4,80.64c1.38-30.05,9.43-54.99,11.2-84.15
				l18.72-4.82L96.66-13.05z"/>
			<path class="st4" d="M-17.26,56.55l6.58-5.82c0.33-0.29,0.84-0.09,0.89,0.34l0.87,7.75c0.04,0.37-0.3,0.67-0.67,0.58l-7.45-1.93
				C-17.46,57.36-17.58,56.83-17.26,56.55z"/>
			
				<ellipse transform="matrix(0.8632 -0.5049 0.5049 0.8632 -28.7772 8.3827)" class="st4" cx="1.08" cy="57.29" rx="5.23" ry="4.86"/>
			<polygon class="st5" points="56.21,-20.34 19.39,-12.07 33.68,-9.03 65.19,-18.72 			"/>
			<path class="st6" d="M19.39-12.07L17.02,2.11C23.86-0.8,23.22,7.3,31.1,4.46l2.58-13.49L19.39-12.07z"/>
		</g>
		<g>
			<path class="st2" d="M419.35-3.06L378.7,13.7c4.57,29.51,9.16,85.18,9.16,85.18l78.34,0.53l33.52-25.84l-7.9-81.16L419.35-3.06z"
				/>
			<polygon class="st3" points="491.83,-7.58 474.41,1.77 456.63,11.31 378.7,13.7 419.35,-3.06 461.79,-5.71 			"/>
			<path class="st4" d="M491.83-7.58l2.12,21.82l1.39,14.25l4.39,45.09l-12.35,9.52L466.2,99.41c-6.08-30.81-4.12-58.1-9.57-88.1
				l17.78-9.54L491.83-7.58z"/>
			<path class="st4" d="M393.64,91.32l5.22-7.53c0.26-0.37,0.83-0.3,0.99,0.13l2.81,7.64c0.14,0.37-0.14,0.76-0.53,0.75l-8.03-0.11
				C393.64,92.19,393.38,91.69,393.64,91.32z"/>
			
				<ellipse transform="matrix(0.718 -0.696 0.696 0.718 55.3819 311.7188)" class="st4" cx="412.42" cy="87.51" rx="5.46" ry="5.07"/>
			<polygon class="st5" points="449,-4.91 413.73,12.63 428.98,12.16 458.51,-5.5 			"/>
			<path class="st6" d="M413.73,12.63l1.12,14.97c6.21-4.66,7.58,3.71,14.86-1.13l-0.74-14.31L413.73,12.63z"/>
		</g>
		<g>
			<path class="st2" d="M276.69,13.77l33.35-24.73C299.04-36.91,282-86.82,282-86.82l-71.84,17.59l-24.73,31.39l25.96,72.47
				L276.69,13.77z"/>
			<polygon class="st3" points="211.39,34.64 225.18,22.05 239.25,9.22 310.04,-10.95 276.69,13.77 238.46,25.99 			"/>
			<path class="st4" d="M211.39,34.64l-6.98-19.48l-4.56-12.73l-14.42-40.27l9.11-11.57l15.62-19.82
				c12.67,26.8,17.18,52.24,29.09,78.44l-14.07,12.84L211.39,34.64z"/>
			<path class="st4" d="M278.46-78.56l-3.04,8.1c-0.15,0.4-0.69,0.47-0.93,0.11l-4.33-6.34c-0.21-0.31-0.05-0.73,0.31-0.81
				l7.38-1.76C278.25-79.36,278.6-78.96,278.46-78.56z"/>
			
				<ellipse transform="matrix(0.5261 -0.8504 0.8504 0.5261 184.3769 189.4067)" class="st4" cx="262.14" cy="-70.74" rx="5.16" ry="4.79"/>
			<polygon class="st5" points="249.98,22.31 278.22,-1.89 264.37,2.06 241.41,25.05 			"/>
			<path class="st6" d="M278.22-1.89l-4.48-13.45c-4.61,5.7-7.8-1.65-13.35,4.46l3.98,12.93L278.22-1.89z"/>
		</g>
		<g>
			<path class="st2" d="M-72.43,304.14l-7.91,45.74c28.93,12.53,81.23,39.76,81.23,39.76l44.57-69.66l-4.2-44.49l-76.93-38.63
				L-72.43,304.14z"/>
			<polygon class="st3" points="-35.68,236.86 -37.13,257.68 -38.62,278.93 -80.34,349.88 -72.43,304.13 -50.91,264.74 			"/>
			<path class="st4" d="M-35.68,236.86l20.68,10.38l13.51,6.79l42.74,21.46l1.55,16.39l2.65,28.09
				c-30.94-11.91-54.21-29.02-84.07-41.04l1.49-21.25L-35.68,236.86z"/>
			<path class="st4" d="M-2.62,380.23l-3.79-8.9c-0.19-0.44,0.2-0.91,0.67-0.81l8.4,1.79c0.41,0.09,0.6,0.55,0.37,0.9l-4.61,7.11
				C-1.83,380.72-2.43,380.66-2.62,380.23z"/>
			
				<ellipse transform="matrix(0.9786 -0.206 0.206 0.9786 -74.3251 8.685)" class="st4" cx="4.55" cy="361.31" rx="5.35" ry="5.77"/>
			<polygon class="st5" points="-57.4,276.62 -61.59,317.99 -53.42,304.11 -52.57,267.79 			"/>
			<path class="st6" d="M-61.59,317.99l14,7.43c-0.66-8.17,7.58-4.68,7.36-13.91l-13.2-7.4L-61.59,317.99z"/>
		</g>
		<g>
			<path class="st2" d="M4.34,126.8l-34.13,1.32c-4.58,22.74-16.15,64.55-16.15,64.55l56.97,21.39l31.37-9.85l16-61.28L4.34,126.8z"
				/>
			<polygon class="st3" points="58.39,142.93 43.18,145.08 27.66,147.27 -29.79,128.12 4.34,126.8 35.99,136.24 			"/>
			<path class="st4" d="M58.39,142.93l-4.3,16.48l-2.81,10.76l-8.89,34.05l-11.56,3.63l-19.81,6.21
				c3.83-24.09,12.57-43.46,16.64-66.79l15.52-2.19L58.39,142.93z"/>
			<path class="st4" d="M-39.71,188.71l5.82-4.09c0.29-0.2,0.69,0,0.69,0.36l0,6.32c0,0.31-0.31,0.52-0.59,0.41l-5.83-2.23
				C-39.94,189.35-39.99,188.91-39.71,188.71z"/>
			
				<ellipse transform="matrix(0.9141 -0.4055 0.4055 0.9141 -79.5747 6.2664)" class="st4" cx="-25" cy="190.96" rx="4.24" ry="3.94"/>
			<polygon class="st5" points="26.45,133.4 -3.97,136.73 7.27,140.47 33.54,135.51 			"/>
			<path class="st6" d="M-3.97,136.73l-3.2,11.22c5.78-1.73,4.53,4.74,11.14,3.16l3.3-10.63L-3.97,136.73z"/>
		</g>
		<g>
			<path class="st2" d="M369.9,200.9l-58.06,62.89c32.24,48.37,85.93,142.93,85.93,142.93l138.78-63.21l38.05-73.08l-80.41-136.86
				L369.9,200.9z"/>
			<polygon class="st3" points="494.19,133.57 471.09,164.35 447.5,195.75 311.84,263.79 369.9,200.89 442.67,161.47 			"/>
			<path class="st4" d="M494.19,133.56l21.62,36.79l14.12,24.04l44.68,76.04l-14.02,26.93l-24.04,46.14
				c-35.96-49.43-54.85-99.23-89.04-147.75l23.59-31.41L494.19,133.56z"/>
			<path class="st4" d="M401.77,388.63l3.05-17.57c0.15-0.87,1.22-1.21,1.85-0.59l11.22,11.19c0.54,0.54,0.37,1.46-0.32,1.77
				l-14.27,6.39C402.5,390.17,401.62,389.49,401.77,388.63z"/>
			
				<ellipse transform="matrix(0.3586 -0.9335 0.9335 0.3586 -65.1885 638.1653)" class="st4" cx="431.81" cy="366.52" rx="10.64" ry="9.87"/>
			<polygon class="st5" points="420.75,173.35 372.82,233.21 399.36,219.9 437.06,164.52 			"/>
			<path class="st6" d="M372.82,233.21l14.24,25.53c7.16-13.31,16.43,0.34,25.33-14.16l-13.03-24.67L372.82,233.21z"/>
		</g>
		<g>
			<path class="st2" d="M735.52,54.45l7.79,55.3C781.06,113.45,851,125.37,851,125.37l25.38-96.21l-21.2-49.4l-102.34-15.9
				L735.52,54.45z"/>
			<polygon class="st3" points="752.84,-36.14 758.84,-11.76 764.97,13.13 743.31,109.76 735.52,54.45 745.66,1.41 			"/>
			<path class="st4" d="M752.84-36.14l27.51,4.27l17.97,2.79l56.86,8.83L863-2.04l13.38,31.2c-39.82-2.25-72.78-13.27-111.41-16.04
				l-6.13-24.89L752.84-36.14z"/>
			<path class="st4" d="M843.52,115.88l-7.62-8.8c-0.38-0.44-0.11-1.12,0.47-1.18l10.28-1.05c0.5-0.05,0.89,0.41,0.76,0.9
				l-2.67,9.85C844.6,116.15,843.89,116.31,843.52,115.88z"/>
			
				<ellipse transform="matrix(0.8685 -0.4957 0.4957 0.8685 65.7028 430.8045)" class="st4" cx="844.76" cy="91.58" rx="6.44" ry="6.94"/>
			<polygon class="st5" points="742.61,17.39 753.05,66.32 757.29,47.42 744.88,5.5 			"/>
			<path class="st6" d="M753.05,66.32l18.78,3.35c-3.77-9.11,6.96-8.16,3.3-18.64l-17.84-3.61L753.05,66.32z"/>
		</g>
		<g>
			<path class="st2" d="M1138.3,147.98l-37.13,11.67c1.77,26.37,1.56,75.81,1.56,75.81l69.04,6.47l31.54-20.22l-0.75-72.17
				L1138.3,147.98z"/>
			<polygon class="st3" points="1202.55,149.54 1186.48,156.46 1170.07,163.51 1101.17,159.65 1138.3,147.98 1175.92,148.89 			"/>
			<path class="st4" d="M1202.55,149.54l0.2,19.4l0.13,12.67l0.42,40.1l-11.62,7.45l-19.92,12.76c-3-27.63,0.82-51.55-1.7-78.42
				l16.41-7.05L1202.55,149.54z"/>
			<path class="st4" d="M1108.4,229.24l5.18-6.24c0.26-0.31,0.76-0.2,0.86,0.19l1.89,6.95c0.09,0.34-0.18,0.66-0.53,0.62l-7.07-0.71
				C1108.33,230.01,1108.14,229.54,1108.4,229.24z"/>
			
				<ellipse transform="matrix(0.7755 -0.6313 0.6313 0.7755 109.0708 761.3908)" class="st4" cx="1125.25" cy="227.31" rx="4.84" ry="4.49"/>
			<polygon class="st5" points="1164.58,148.62 1132.14,161.39 1145.62,162.14 1173.02,148.83 			"/>
			<path class="st6" d="M1132.14,161.39l-0.16,13.29c5.83-3.63,6.4,3.85,13.19,0.14l0.44-12.68L1132.14,161.39z"/>
		</g>
		<g>
			<path class="st2" d="M1284.85,275.88l-60.61-5.14c-13.07,39.19-42.69,110.56-42.69,110.56l96,50.28l57.6-10.54l41.7-104.81
				L1284.85,275.88z"/>
			<polygon class="st3" points="1376.84,316.23 1349.49,316.7 1321.58,317.17 1224.24,270.74 1284.85,275.88 1338.71,299.5 			"/>
			<path class="st4" d="M1376.84,316.23l-11.21,28.18l-7.32,18.41l-23.16,58.23l-21.22,3.88l-36.37,6.64
				c12.04-41.74,31.74-74.06,44.04-114.41l27.91-0.47L1376.84,316.23z"/>
			<path class="st4" d="M1193.44,375.65l11.19-5.95c0.55-0.3,1.21,0.16,1.13,0.78l-1.38,11.17c-0.07,0.54-0.65,0.85-1.13,0.59
				l-9.81-5.22C1192.89,376.73,1192.89,375.95,1193.44,375.65z"/>
			
				<ellipse transform="matrix(0.957 -0.2899 0.2899 0.957 -58.6475 369.8747)" class="st4" cx="1218.94" cy="382.86" rx="7.56" ry="7.02"/>
			<polygon class="st5" points="1322.48,292.39 1267.99,291.61 1287.04,300.69 1334.55,297.68 			"/>
			<path class="st6" d="M1267.99,291.61l-8.11,19.12c10.59-1.79,6.98,9.37,19,8.03l8.16-18.07L1267.99,291.61z"/>
		</g>
		<g>
			<path class="st2" d="M1403.09,194.23l-24.64,53.32c31.26,24.78,86.28,75.18,86.28,75.18l77.27-70.57l9.42-55.75l-81.39-72.39
				L1403.09,194.23z"/>
			<polygon class="st3" points="1470.03,124.03 1461.44,149 1452.67,174.49 1378.45,247.55 1403.09,194.22 1442.28,153.12 			"/>
			<path class="st4" d="M1470.03,124.03l21.88,19.46l14.29,12.71l45.22,40.22l-3.47,20.54l-5.96,35.2
				c-33.91-24.68-56.76-53.21-89.33-77.68l8.77-25.49L1470.03,124.03z"/>
			<path class="st4" d="M1463.53,310.08l-1.72-12.12c-0.09-0.6,0.54-1.05,1.08-0.77l9.68,4.94c0.47,0.24,0.55,0.87,0.16,1.22
				l-7.97,7.18C1464.32,310.93,1463.61,310.67,1463.53,310.08z"/>
			
				<ellipse transform="matrix(0.0541 -0.9985 0.9985 0.0541 1109.6201 1749.9619)" class="st4" cx="1478.48" cy="289.3" rx="7.3" ry="6.78"/>
			<polygon class="st5" points="1430.47,165.51 1411.82,214.71 1426.33,200.42 1439.26,156.29 			"/>
			<path class="st6" d="M1411.82,214.71l14.69,13.66c1.86-10.2,10.8-3.24,13.55-14.59l-13.71-13.36L1411.82,214.71z"/>
		</g>
		<g>
			<path class="st2" d="M1481.28,365.63l-45.88,31.05c13.17,35.24,33.03,102.76,33.03,102.76l96.79-19.32l34.78-40.43l-30.44-98.12
				L1481.28,365.63z"/>
			<polygon class="st3" points="1569.55,341.57 1550.44,357.55 1530.94,373.86 1435.39,396.68 1481.28,365.63 1532.96,351.54 			"/>
			<path class="st4" d="M1569.55,341.57l8.19,26.38l5.34,17.23L1600,439.7l-12.82,14.9l-21.97,25.52
				c-15.36-36.46-19.9-70.64-34.28-106.26l19.5-16.31L1569.55,341.57z"/>
			<path class="st4" d="M1473.62,488.64l4.52-10.62c0.22-0.53,0.95-0.58,1.25-0.1l5.41,8.71c0.26,0.42,0.02,0.97-0.47,1.07
				l-9.93,1.92C1473.85,489.72,1473.4,489.16,1473.62,488.64z"/>
			
				<ellipse transform="matrix(0.5623 -0.8269 0.8269 0.5623 258.4987 1446.6667)" class="st4" cx="1495.82" cy="479.15" rx="6.89" ry="6.39"/>
			<polygon class="st5" points="1517.39,355.79 1478.34,386.42 1497.03,381.96 1528.98,352.63 			"/>
			<path class="st6" d="M1478.34,386.42l5.2,18.19c6.48-7.33,10.3,2.64,18.05-5.18l-4.56-17.47L1478.34,386.42z"/>
		</g>
		<g>
			<path class="st2" d="M1596.3,243.73l-16.17,62.55c38.7,20.66,108.16,64.39,108.16,64.39l69.74-91.57l-0.78-62.19l-102.32-62.32
				L1596.3,243.73z"/>
			<polygon class="st3" points="1654.93,154.59 1650.55,183.31 1646.08,212.62 1580.13,306.29 1596.3,243.73 1630.63,191.54 			"/>
			<path class="st4" d="M1654.93,154.59l27.51,16.75l17.97,10.95l56.85,34.62l0.29,22.92l0.48,39.27
				c-41.56-20.04-71.9-46.42-111.96-66.48l4.48-29.31L1654.93,154.59z"/>
			<path class="st4" d="M1684.5,357.22l-4.24-12.78c-0.21-0.63,0.38-1.24,1.02-1.05l11.45,3.44c0.55,0.17,0.77,0.84,0.42,1.29
				l-7.21,9.34C1685.53,357.98,1684.71,357.84,1684.5,357.22z"/>
			
				<ellipse transform="matrix(0.9921 -0.1254 0.1254 0.9921 -28.2151 215.3838)" class="st4" cx="1696.59" cy="331.79" rx="7.45" ry="8.03"/>
			<polygon class="st5" points="1620.29,207.27 1609.78,264.18 1622.68,245.86 1627.98,195.57 			"/>
			<path class="st6" d="M1609.78,264.18l18.58,11.9c0.01-11.41,11.05-5.64,11.79-18.46l-17.47-11.76L1609.78,264.18z"/>
		</g>
		<g>
			<path class="st2" d="M1540.74,23.83l-32.83,33.77c17.05,27.06,45.24,79.83,45.24,79.83l77.23-32.8l21.96-39.66l-42.29-76.41
				L1540.74,23.83z"/>
			<polygon class="st3" points="1610.05,-11.45 1596.91,5.15 1583.49,22.1 1507.91,57.6 1540.74,23.83 1581.33,3.17 			"/>
			<path class="st4" d="M1610.06-11.45l11.37,20.54l7.43,13.42l23.5,42.45l-8.09,14.61l-13.87,25.04
				c-19.08-27.7-28.77-55.36-46.89-82.53l13.42-16.94L1610.06-11.45z"/>
			<path class="st4" d="M1555.62,127.54l1.93-9.62c0.1-0.48,0.69-0.65,1.02-0.3l6.01,6.31c0.29,0.31,0.19,0.81-0.2,0.97l-7.94,3.31
				C1555.99,128.4,1555.52,128.01,1555.62,127.54z"/>
			
				<ellipse transform="matrix(0.3825 -0.924 0.924 0.3825 863.9907 1524.3831)" class="st4" cx="1572.45" cy="115.8" rx="5.85" ry="5.43"/>
			<polygon class="st5" points="1569.1,9.4 1541.89,41.64 1556.67,34.7 1578.2,4.77 			"/>
			<path class="st6" d="M1541.89,41.64l7.47,14.24c4.13-7.22,9.03,0.42,14.13-7.43l-6.82-13.75L1541.89,41.64z"/>
		</g>
		<g>
			<path class="st2" d="M1441.73-123.17l-57.77-11.7c-16.95,36.26-53.42,101.65-53.42,101.65l86.8,59.1l56.61-3.72l51.82-96.23
				L1441.73-123.17z"/>
			<polygon class="st3" points="1525.78,-74.08 1499.4,-76.68 1472.49,-79.33 1383.97,-134.87 1441.73,-123.17 1490.94,-94.43 			
				"/>
			<path class="st4" d="M1525.78-74.08l-13.93,25.87l-9.1,16.9l-28.79,53.47l-20.86,1.37l-35.75,2.34
				c16.24-38.83,38.8-67.74,55.14-105.21l26.92,2.66L1525.78-74.08z"/>
			<path class="st4" d="M1342.62-37.32l11.43-4.48c0.57-0.22,1.15,0.29,1.01,0.88l-2.58,10.6c-0.12,0.51-0.72,0.74-1.16,0.44
				l-8.86-6.11C1341.98-36.35,1342.06-37.11,1342.62-37.32z"/>
			
				<ellipse transform="matrix(0.984 -0.1779 0.1779 0.984 26.6964 242.6434)" class="st4" cx="1366.37" cy="-27.54" rx="7.33" ry="6.8"/>
			<polygon class="st5" points="1476.11,-103.09 1423.76,-109.9 1441.07,-99.04 1487.14,-96.64 			"/>
			<path class="st6" d="M1423.76-109.9l-9.94,17.5c10.39-0.54,5.67,9.79,17.39,9.85l9.87-16.48L1423.76-109.9z"/>
		</g>
		<g>
			<path class="st2" d="M1113.6-14.96l6.71,46.66c31.87,3.02,90.93,12.92,90.93,12.92l21.19-81.26l-18.02-41.65L1128-91.47
				L1113.6-14.96z"/>
			<polygon class="st3" points="1128,-91.46 1133.13,-70.9 1138.36,-49.91 1120.31,31.7 1113.6,-14.96 1122.03,-59.76 			"/>
			<path class="st4" d="M1128-91.47l23.23,3.54l15.18,2.31l48.01,7.32l6.64,15.35l11.37,26.3c-33.62-1.8-61.46-11.03-94.07-13.27
				l-5.23-20.99L1128-91.47z"/>
			<path class="st4" d="M1204.9,36.62l-6.45-7.41c-0.32-0.37-0.09-0.94,0.39-0.99l8.68-0.91c0.42-0.04,0.75,0.35,0.64,0.75
				l-2.23,8.32C1205.81,36.85,1205.22,36.99,1204.9,36.62z"/>
			
				<ellipse transform="matrix(0.8671 -0.4982 0.4982 0.8671 152.2846 602.9168)" class="st4" cx="1205.89" cy="16.11" rx="5.44" ry="5.86"/>
			<polygon class="st5" points="1119.49,-46.26 1128.43,-4.99 1131.96,-20.95 1121.38,-56.3 			"/>
			<path class="st6" d="M1128.43-4.99l15.85,2.78c-3.2-7.68,5.85-6.9,2.74-15.74l-15.07-3L1128.43-4.99z"/>
		</g>
		<g>
			<path class="st2" d="M1045.15,457.26l-41.32,55.35c29.94,36.11,80.97,107.5,80.97,107.5l106.08-62.39l24.4-61.85l-76.03-103.09
				L1045.15,457.26z"/>
			<polygon class="st3" points="1139.25,392.78 1123.29,419.43 1107,446.62 1003.83,512.61 1045.15,457.26 1100.24,419.5 			"/>
			<path class="st4" d="M1139.25,392.78l20.44,27.71l13.35,18.11l42.25,57.27l-8.99,22.79l-15.42,39.05
				c-33.01-36.65-52.36-75.04-83.88-111.11l16.29-27.19L1139.25,392.78z"/>
			<path class="st4" d="M1086.49,605.26l0.97-14.36c0.05-0.71,0.88-1.07,1.43-0.63l9.94,8.04c0.48,0.39,0.42,1.14-0.11,1.45
				l-10.91,6.33C1087.2,606.43,1086.45,605.96,1086.49,605.26z"/>
			
				<ellipse transform="matrix(0.2595 -0.9657 0.9657 0.2595 256.0471 1503.9268)" class="st4" cx="1108.75" cy="584.99" rx="8.58" ry="7.97"/>
			<polygon class="st5" points="1083.64,430.88 1050.2,482.95 1070.39,470.04 1096,422.42 			"/>
			<path class="st6" d="M1050.2,482.95l13.57,19.29c4.63-11.29,13.22-1.1,19.14-13.5l-12.53-18.71L1050.2,482.95z"/>
		</g>
		<g>
			<path class="st2" d="M1375.7,102.3l-14.06-53.72c-37.7,0.7-108.14-3.04-108.14-3.04l-14,97.93l26.62,46.35l102.9,3.93
				L1375.7,102.3z"/>
			<polygon class="st3" points="1369.02,193.75 1360.28,170.37 1351.37,146.5 1361.64,48.58 1375.7,102.3 1371.79,155.85 			"/>
			<path class="st4" d="M1369.02,193.76l-27.66-1.06l-18.07-0.69l-57.17-2.18l-9.81-17.08l-16.8-29.27
				c39.58-2.36,73.4,4.74,111.87,3.02l8.91,23.87L1369.02,193.76z"/>
			<path class="st4" d="M1261.98,54.05l8.53,7.81c0.42,0.39,0.23,1.09-0.33,1.21l-10.03,2.22c-0.49,0.11-0.93-0.31-0.85-0.8
				l1.5-10.03C1260.89,53.91,1261.56,53.67,1261.98,54.05z"/>
			
				<ellipse transform="matrix(0.8053 -0.5929 0.5929 0.8053 199.641 764.3286)" class="st4" cx="1263.55" cy="78.2" rx="6.4" ry="6.9"/>
			<polygon class="st5" points="1372.96,139.71 1357.02,92.59 1355.01,111.75 1372.09,151.72 			"/>
			<path class="st6" d="M1357.02,92.59l-18.93-1.15c4.77,8.57-5.93,8.86-1.12,18.79l18.04,1.51L1357.02,92.59z"/>
		</g>
		<g>
			<path class="st2" d="M255.62,436.66l-33.07,28.52c13.54,26.38,35.28,77.41,35.28,77.41l74-24.01l23.51-34.84l-32.84-74.02
				L255.62,436.66z"/>
			<polygon class="st3" points="322.51,409.73 309.02,423.99 295.25,438.54 222.55,465.18 255.62,436.66 294.78,420.89 			"/>
			<path class="st4" d="M322.51,409.73l8.83,19.9l5.77,13l18.25,41.12l-8.66,12.84l-14.85,22c-15.37-27.13-22.06-53.47-36.58-80.04
				l13.77-14.56L322.51,409.73z"/>
			<path class="st4" d="M260.91,533.66l2.56-8.73c0.13-0.43,0.69-0.54,0.97-0.19l5.04,6.32c0.24,0.31,0.11,0.76-0.27,0.88l-7.6,2.41
				C261.19,534.48,260.78,534.09,260.91,533.66z"/>
			
				<ellipse transform="matrix(0.4622 -0.8868 0.8868 0.4622 -315.645 527.9289)" class="st4" cx="277.42" cy="524.19" rx="5.43" ry="5.04"/>
			<polygon class="st5" points="282.98,425.64 255.23,453.21 269.45,448 291.76,422.11 			"/>
			<path class="st6" d="M255.23,453.21l5.74,13.76c4.4-6.33,8.31,1.12,13.66-5.71L269.45,448L255.23,453.21z"/>
		</g>
		<g>
			<path class="st2" d="M585.78,136.16l34.63,25.97c22.67-18.71,67.48-50.6,67.48-50.6l-38.95-66.57l-38.73-15.38L545.5,77.1
				L585.78,136.16z"/>
			<polygon class="st3" points="545.5,77.1 562.17,87.14 579.19,97.39 620.41,162.14 585.77,136.17 562.19,101.58 			"/>
			<path class="st4" d="M545.49,77.1l17.4-12.77l11.37-8.34l35.95-26.4l14.27,5.67l24.45,9.72c-23.02,20.64-47.1,32.71-69.75,52.41
				l-17.02-10.25L545.49,77.1z"/>
			<path class="st4" d="M678.59,110.46l-9-0.63c-0.45-0.03-0.67-0.55-0.39-0.9l5.05-6.22c0.24-0.3,0.71-0.26,0.91,0.07l3.95,6.85
				C679.33,110.01,679.03,110.49,678.59,110.46z"/>
			
				<ellipse transform="matrix(0.2617 -0.9652 0.9652 0.2617 398.546 713.9509)" class="st4" cx="665.92" cy="96.48" rx="4.99" ry="5.38"/>
			<polygon class="st5" points="569.3,112 601.88,133.03 593.82,120.36 564.01,104.25 			"/>
			<path class="st6" d="M601.88,133.03l12.11-8.48c-7.07-2.92-0.67-8.28-8.43-12.01l-11.74,7.83L601.88,133.03z"/>
		</g>
		<g>
			<path class="st2" d="M696.06,187.27l-26.19,32.88c17.52,22.54,47.2,66.94,47.2,66.94l65.72-35.92l16.03-37.16l-44.28-64.16
				L696.06,187.27z"/>
			<polygon class="st3" points="754.53,149.85 744.32,165.75 733.89,181.98 669.86,220.15 696.06,187.27 730.3,165.36 			"/>
			<path class="st4" d="M754.53,149.85l11.91,17.25l7.78,11.27l24.6,35.65l-5.9,13.69l-10.13,23.46
				c-19.38-22.93-30.42-46.65-48.9-69.19l10.43-16.23L754.53,149.85z"/>
			<path class="st4" d="M718.38,278.09l0.87-8.72c0.04-0.43,0.55-0.64,0.88-0.35l5.89,5.08c0.28,0.25,0.24,0.7-0.1,0.88l-6.76,3.64
				C718.79,278.82,718.34,278.52,718.38,278.09z"/>
			
				<ellipse transform="matrix(0.2897 -0.9571 0.9571 0.2897 265.3626 889.9617)" class="st4" cx="732.31" cy="266.19" rx="5.22" ry="4.85"/>
			<polygon class="st5" points="719.98,171.96 698.64,203 711.17,195.53 727.66,167.05 			"/>
			<path class="st6" d="M698.64,203l7.89,12c3.03-6.78,8.06-0.42,11.9-7.84l-7.26-11.62L698.64,203z"/>
		</g>
		<g>
			<path class="st2" d="M611.4,338.56l-40.48,31.32c14.21,31.72,36.48,92.8,36.48,92.8l88.1-23.49l29.69-39.31l-33.82-88.68
				L611.4,338.56z"/>
			<polygon class="st3" points="691.37,311.2 674.69,327.06 657.67,343.23 570.92,369.88 611.4,338.56 658.22,322.54 			"/>
			<path class="st4" d="M691.37,311.2l9.09,23.84l5.94,15.57l18.8,49.27l-10.94,14.49l-18.75,24.82
				c-16.3-32.72-22.49-63.95-37.84-95.96l17.02-16.18L691.37,311.2z"/>
			<path class="st4" d="M611.56,452.42l3.54-10.06c0.18-0.5,0.84-0.59,1.15-0.16l5.5,7.71c0.27,0.37,0.08,0.9-0.37,1.01l-9.05,2.35
				C611.83,453.4,611.38,452.91,611.56,452.42z"/>
			
				<ellipse transform="matrix(0.5086 -0.861 0.861 0.5086 -70.5873 761.0498)" class="st4" cx="631.46" cy="442.37" rx="6.36" ry="5.9"/>
			<polygon class="st5" points="644.11,327.37 609.91,357.91 626.88,352.69 654.61,323.78 			"/>
			<path class="st6" d="M609.91,357.91l5.86,16.46c5.54-7.14,9.65,1.83,16.34-5.84l-5.23-15.84L609.91,357.91z"/>
		</g>
		<g>
			<path class="st2" d="M553.71,475.08l-51.83-33.35c-30.29,28.89-90.66,78.73-90.66,78.73l62.1,90.55l56.56,17.88l87.04-74.06
				L553.71,475.08z"/>
			<polygon class="st3" points="616.93,554.83 592.23,542.28 567.02,529.47 501.88,441.73 553.71,475.08 590.73,521.78 			"/>
			<path class="st4" d="M616.94,554.84l-23.4,19.91l-15.29,13.01l-48.36,41.15l-20.84-6.59l-35.72-11.3
				c30.58-31.66,63.54-51.25,93.69-81.54l25.21,12.82L616.94,554.84z"/>
			<path class="st4" d="M424.55,521.05l12.84-0.02c0.64,0,1.01,0.72,0.65,1.24l-6.54,9.35c-0.32,0.45-0.99,0.45-1.3-0.01l-6.31-9.32
				C423.54,521.76,423.92,521.05,424.55,521.05z"/>
			
				<ellipse transform="matrix(0.1918 -0.9814 0.9814 0.1918 -170.7764 871.8256)" class="st4" cx="443.96" cy="539.6" rx="7.11" ry="7.66"/>
			<polygon class="st5" points="579.57,507.7 531.16,481.17 543.9,498.33 587.87,518.17 			"/>
			<path class="st6" d="M531.16,481.17l-16.33,13.28c10.33,3.42,1.8,11.69,13.2,16.2l15.87-12.31L531.16,481.17z"/>
		</g>
		<g>
			<path class="st2" d="M772.56,491.73l20.09,49.58c35.93-5.34,103.69-10.51,103.69-10.51l1.23-95.29l-31.18-40.98l-98.79,9
				L772.56,491.73z"/>
			<polygon class="st3" points="767.6,403.53 778.85,424.79 790.32,446.49 792.64,541.31 772.55,491.73 769.65,440.09 			"/>
			<path class="st4" d="M767.6,403.53l26.56-2.42l17.35-1.58l54.88-5l11.49,15.1l19.68,25.88c-37.52,7.16-70.71,4.58-107.24,10.98
				l-11.47-21.7L767.6,403.53z"/>
			<path class="st4" d="M887.17,523.72l-9.12-6.41c-0.45-0.32-0.36-1.01,0.16-1.2l9.31-3.36c0.45-0.16,0.92,0.18,0.91,0.66
				l-0.19,9.77C888.24,523.72,887.62,524.03,887.17,523.72z"/>
			
				<ellipse transform="matrix(0.7223 -0.6916 0.6916 0.7223 -101.2542 749.5276)" class="st4" cx="882.68" cy="500.84" rx="6.17" ry="6.65"/>
			<polygon class="st5" points="770.53,455.65 791.6,498.68 791.15,480.14 769.88,444.07 			"/>
			<path class="st6" d="M791.6,498.68l18.22-1.25c-5.62-7.59,4.57-9.2-1.26-18.09l-17.42,0.79L791.6,498.68z"/>
		</g>
		<g>
			<path class="st2" d="M995.36,209.83l-75.12-19.72c-25.01,46.43-77.89,129.73-77.89,129.73l109.76,84.25l74.76-0.65l75.38-122.72
				L995.36,209.83z"/>
			<polygon class="st3" points="1102.25,280.71 1067.75,275.32 1032.54,269.81 920.24,190.11 995.36,209.83 1057.95,251.33 			"/>
			<path class="st4" d="M1102.25,280.72l-20.26,32.99l-13.24,21.55l-41.88,68.19l-27.55,0.24l-47.21,0.4
				c24.28-49.87,56.13-86.22,80.43-134.28l35.21,5.51L1102.25,280.72z"/>
			<path class="st4" d="M858.54,315.34l15.38-5.04c0.76-0.25,1.49,0.46,1.26,1.23L871,325.28c-0.2,0.66-1.01,0.92-1.56,0.49
				l-11.2-8.71C857.62,316.58,857.79,315.59,858.54,315.34z"/>
			
				<ellipse transform="matrix(0.9926 -0.1217 0.1217 0.9926 -33.5448 110.6212)" class="st4" cx="889.05" cy="329.99" rx="9.65" ry="8.96"/>
			<polygon class="st5" points="1039.09,238.83 970.72,225.94 992.69,241.53 1053.12,248.14 			"/>
			<path class="st6" d="M970.72,225.94l-14.38,22.28c13.71,0.06,6.72,13.31,22.14,14.26l14.21-20.95L970.72,225.94z"/>
		</g>
		<g>
			<path class="st2" d="M1027.47,24.53L977.85,4.62c-21.06,29.57-64.32,81.94-64.32,81.94l67.76,66.95l51.12,5.96l62.01-77.37
				L1027.47,24.53z"/>
			<polygon class="st3" points="1094.42,82.1 1071.31,75.46 1047.73,68.68 977.85,4.62 1027.48,24.53 1066.67,58.24 			"/>
			<path class="st4" d="M1094.42,82.11l-16.67,20.8l-10.89,13.59l-34.45,42.99l-18.84-2.2l-32.28-3.77
				c20.86-31.98,45.73-54.08,66.44-84.83l23.58,6.78L1094.42,82.11z"/>
			<path class="st4" d="M924.98,84.88l10.94-2.13c0.54-0.11,0.98,0.44,0.75,0.95l-4.04,9.03c-0.2,0.44-0.77,0.54-1.11,0.2l-6.9-6.91
				C924.24,85.64,924.44,84.98,924.98,84.88z"/>
			
				<ellipse transform="matrix(2.812325e-03 -1 1 2.812325e-03 844.4069 1041.7817)" class="st4" cx="944.56" cy="97.5" rx="6.17" ry="6.65"/>
			<polygon class="st5" points="1054.86,48.08 1009.26,33.42 1022.93,45.95 1063.64,55.64 			"/>
			<path class="st6" d="M1009.26,33.42l-11.73,13.99c9.36,1.22,3.45,9.67,13.9,11.63l11.5-13.09L1009.26,33.42z"/>
		</g>
	</g>
</g>
<g>
	<defs>
		<ellipse id="SVGID_00000160898847911925872750000010473299490060830891_" cx="1552.37" cy="479.04" rx="18.65" ry="11.48"/>
	</defs>
	<clipPath id="SVGID_00000014595474392533475670000011827793717427935934_">
		<use xlink:href="#SVGID_00000160898847911925872750000010473299490060830891_"  style="overflow:visible;"/>
	</clipPath>
	<g style="clip-path:url(#SVGID_00000014595474392533475670000011827793717427935934_);">
		<g>
			<path class="st2" d="M181.73,292.69l-56.95-19.1c-21.7,34.54-66.81,96.09-66.81,96.09l80.35,70.69l57.72,3.36l64.51-90.81
				L181.73,292.69z"/>
			<polygon class="st3" points="260.56,352.91 234.21,346.97 207.32,340.89 124.78,273.59 181.73,292.69 227.89,327.95 			"/>
			<path class="st4" d="M260.56,352.92l-17.34,24.41l-11.33,15.95l-35.84,50.45l-21.27-1.24l-36.45-2.13
				c21.31-37.23,47.77-63.63,69-99.47l26.89,6.07L260.56,352.92z"/>
			<path class="st4" d="M70.7,367.04l12.13-3.1c0.6-0.15,1.13,0.43,0.91,1.01l-3.94,10.4c-0.19,0.5-0.83,0.66-1.23,0.3l-8.19-7.3
				C69.92,367.95,70.1,367.2,70.7,367.04z"/>
			
				<ellipse transform="matrix(0.9985 -0.0551 0.0551 0.9985 -20.7818 5.7252)" class="st4" cx="93.49" cy="379.92" rx="7.47" ry="6.93"/>
			<polygon class="st5" points="213.98,317.33 161.88,303.85 178.03,317.01 224.32,325.23 			"/>
			<path class="st6" d="M161.88,303.85l-12.25,16.45c10.58,0.76,4.5,10.62,16.35,12.15l12.05-15.43L161.88,303.85z"/>
		</g>
		<g>
			<path class="st2" d="M-7.73,588.01l41.47,43.46c35.31-20.43,103.92-53.83,103.92-53.83l-38.1-100l-49.49-29.9l-99.42,50.23
				L-7.73,588.01z"/>
			<polygon class="st3" points="-49.36,497.98 -28.83,515.52 -7.88,533.44 33.74,631.47 -7.73,588.01 -32.11,535.29 			"/>
			<path class="st4" d="M-49.36,497.97l26.73-13.51l17.46-8.82l55.24-27.91l18.24,11.02l31.25,18.89
				c-36.22,22.99-71.93,34.01-107.43,55.8l-20.95-17.91L-49.36,497.97z"/>
			<path class="st4" d="M125.17,574.03l-12.17-2.92c-0.6-0.14-0.79-0.91-0.33-1.32l8.33-7.36c0.4-0.36,1.04-0.2,1.23,0.31
				l3.84,10.28C126.28,573.6,125.76,574.18,125.17,574.03z"/>
			
				<ellipse transform="matrix(0.417 -0.9089 0.9089 0.417 -437.0006 422.7198)" class="st4" cx="111.02" cy="552.01" rx="6.93" ry="7.47"/>
			<polygon class="st5" points="-24.76,551.18 15.03,587.4 6.89,568.23 -30.22,539.36 			"/>
			<path class="st6" d="M15.03,587.4l18.51-8.84c-9.01-5.6,0.97-11.49-8.79-18.37l-17.86,8.03L15.03,587.4z"/>
		</g>
		<g>
			<path class="st2" d="M191.26,71.75l-66.17,13.44c-1.7,45.82-10.99,131.09-10.99,131.09l117.95,23.61l58.07-29.19l11.72-124.66
				L191.26,71.75z"/>
			<polygon class="st3" points="301.84,86.03 272.86,95.06 243.27,104.27 125.09,85.18 191.26,71.75 256.01,80.11 			"/>
			<path class="st4" d="M301.84,86.03l-3.15,33.51l-2.06,21.89l-6.51,69.26l-21.4,10.76l-36.67,18.43
				c-0.19-48.22,10.71-88.79,11.22-135.61l29.58-9.21L301.84,86.03z"/>
			<path class="st4" d="M125.01,206.55l10.06-9.83c0.5-0.49,1.34-0.21,1.45,0.48l2.01,12.33c0.1,0.6-0.43,1.1-1.02,0.98l-12.08-2.5
				C124.76,207.87,124.51,207.04,125.01,206.55z"/>
			
				<ellipse transform="matrix(0.837 -0.5472 0.5472 0.837 -87.706 118.1347)" class="st4" cx="154.43" cy="206.28" rx="8.39" ry="7.79"/>
			<polygon class="st5" points="236.49,77.59 178.21,93.77 201.33,97.5 251.01,79.47 			"/>
			<path class="st6" d="M178.21,93.77l-2.67,22.9c10.72-5.21,10.35,7.8,22.74,2.63l3.05-21.8L178.21,93.77z"/>
		</g>
		<g>
			<path class="st2" d="M28.2-25.38l-41.64,6.32c-2.48,28.5-10.92,81.34-10.92,81.34L48.4,80.64l37.09-16.38l11.18-77.31L28.2-25.38
				z"/>
			<polygon class="st3" points="96.66,-13.05 78.32,-8.32 59.6,-3.51 -13.44,-19.07 28.2,-25.39 68.29,-18.16 			"/>
			<path class="st4" d="M96.66-13.05l-3,20.78l-1.96,13.58l-6.21,42.95L71.82,70.3L48.4,80.64c1.38-30.05,9.43-54.99,11.2-84.15
				l18.72-4.82L96.66-13.05z"/>
			<path class="st4" d="M-17.26,56.55l6.58-5.82c0.33-0.29,0.84-0.09,0.89,0.34l0.87,7.75c0.04,0.37-0.3,0.67-0.67,0.58l-7.45-1.93
				C-17.46,57.36-17.58,56.83-17.26,56.55z"/>
			
				<ellipse transform="matrix(0.8632 -0.5049 0.5049 0.8632 -28.7772 8.3827)" class="st4" cx="1.08" cy="57.29" rx="5.23" ry="4.86"/>
			<polygon class="st5" points="56.21,-20.34 19.39,-12.07 33.68,-9.03 65.19,-18.72 			"/>
			<path class="st6" d="M19.39-12.07L17.02,2.11C23.86-0.8,23.22,7.3,31.1,4.46l2.58-13.49L19.39-12.07z"/>
		</g>
		<g>
			<path class="st2" d="M419.35-3.06L378.7,13.7c4.57,29.51,9.16,85.18,9.16,85.18l78.34,0.53l33.52-25.84l-7.9-81.16L419.35-3.06z"
				/>
			<polygon class="st3" points="491.83,-7.58 474.41,1.77 456.63,11.31 378.7,13.7 419.35,-3.06 461.79,-5.71 			"/>
			<path class="st4" d="M491.83-7.58l2.12,21.82l1.39,14.25l4.39,45.09l-12.35,9.52L466.2,99.41c-6.08-30.81-4.12-58.1-9.57-88.1
				l17.78-9.54L491.83-7.58z"/>
			<path class="st4" d="M393.64,91.32l5.22-7.53c0.26-0.37,0.83-0.3,0.99,0.13l2.81,7.64c0.14,0.37-0.14,0.76-0.53,0.75l-8.03-0.11
				C393.64,92.19,393.38,91.69,393.64,91.32z"/>
			
				<ellipse transform="matrix(0.718 -0.696 0.696 0.718 55.3819 311.7188)" class="st4" cx="412.42" cy="87.51" rx="5.46" ry="5.07"/>
			<polygon class="st5" points="449,-4.91 413.73,12.63 428.98,12.16 458.51,-5.5 			"/>
			<path class="st6" d="M413.73,12.63l1.12,14.97c6.21-4.66,7.58,3.71,14.86-1.13l-0.74-14.31L413.73,12.63z"/>
		</g>
		<g>
			<path class="st2" d="M276.69,13.77l33.35-24.73C299.04-36.91,282-86.82,282-86.82l-71.84,17.59l-24.73,31.39l25.96,72.47
				L276.69,13.77z"/>
			<polygon class="st3" points="211.39,34.64 225.18,22.05 239.25,9.22 310.04,-10.95 276.69,13.77 238.46,25.99 			"/>
			<path class="st4" d="M211.39,34.64l-6.98-19.48l-4.56-12.73l-14.42-40.27l9.11-11.57l15.62-19.82
				c12.67,26.8,17.18,52.24,29.09,78.44l-14.07,12.84L211.39,34.64z"/>
			<path class="st4" d="M278.46-78.56l-3.04,8.1c-0.15,0.4-0.69,0.47-0.93,0.11l-4.33-6.34c-0.21-0.31-0.05-0.73,0.31-0.81
				l7.38-1.76C278.25-79.36,278.6-78.96,278.46-78.56z"/>
			
				<ellipse transform="matrix(0.5261 -0.8504 0.8504 0.5261 184.3769 189.4067)" class="st4" cx="262.14" cy="-70.74" rx="5.16" ry="4.79"/>
			<polygon class="st5" points="249.98,22.31 278.22,-1.89 264.37,2.06 241.41,25.05 			"/>
			<path class="st6" d="M278.22-1.89l-4.48-13.45c-4.61,5.7-7.8-1.65-13.35,4.46l3.98,12.93L278.22-1.89z"/>
		</g>
		<g>
			<path class="st2" d="M-72.43,304.14l-7.91,45.74c28.93,12.53,81.23,39.76,81.23,39.76l44.57-69.66l-4.2-44.49l-76.93-38.63
				L-72.43,304.14z"/>
			<polygon class="st3" points="-35.68,236.86 -37.13,257.68 -38.62,278.93 -80.34,349.88 -72.43,304.13 -50.91,264.74 			"/>
			<path class="st4" d="M-35.68,236.86l20.68,10.38l13.51,6.79l42.74,21.46l1.55,16.39l2.65,28.09
				c-30.94-11.91-54.21-29.02-84.07-41.04l1.49-21.25L-35.68,236.86z"/>
			<path class="st4" d="M-2.62,380.23l-3.79-8.9c-0.19-0.44,0.2-0.91,0.67-0.81l8.4,1.79c0.41,0.09,0.6,0.55,0.37,0.9l-4.61,7.11
				C-1.83,380.72-2.43,380.66-2.62,380.23z"/>
			
				<ellipse transform="matrix(0.9786 -0.206 0.206 0.9786 -74.3251 8.685)" class="st4" cx="4.55" cy="361.31" rx="5.35" ry="5.77"/>
			<polygon class="st5" points="-57.4,276.62 -61.59,317.99 -53.42,304.11 -52.57,267.79 			"/>
			<path class="st6" d="M-61.59,317.99l14,7.43c-0.66-8.17,7.58-4.68,7.36-13.91l-13.2-7.4L-61.59,317.99z"/>
		</g>
		<g>
			<path class="st2" d="M4.34,126.8l-34.13,1.32c-4.58,22.74-16.15,64.55-16.15,64.55l56.97,21.39l31.37-9.85l16-61.28L4.34,126.8z"
				/>
			<polygon class="st3" points="58.39,142.93 43.18,145.08 27.66,147.27 -29.79,128.12 4.34,126.8 35.99,136.24 			"/>
			<path class="st4" d="M58.39,142.93l-4.3,16.48l-2.81,10.76l-8.89,34.05l-11.56,3.63l-19.81,6.21
				c3.83-24.09,12.57-43.46,16.64-66.79l15.52-2.19L58.39,142.93z"/>
			<path class="st4" d="M-39.71,188.71l5.82-4.09c0.29-0.2,0.69,0,0.69,0.36l0,6.32c0,0.31-0.31,0.52-0.59,0.41l-5.83-2.23
				C-39.94,189.35-39.99,188.91-39.71,188.71z"/>
			
				<ellipse transform="matrix(0.9141 -0.4055 0.4055 0.9141 -79.5747 6.2664)" class="st4" cx="-25" cy="190.96" rx="4.24" ry="3.94"/>
			<polygon class="st5" points="26.45,133.4 -3.97,136.73 7.27,140.47 33.54,135.51 			"/>
			<path class="st6" d="M-3.97,136.73l-3.2,11.22c5.78-1.73,4.53,4.74,11.14,3.16l3.3-10.63L-3.97,136.73z"/>
		</g>
		<g>
			<path class="st2" d="M369.9,200.9l-58.06,62.89c32.24,48.37,85.93,142.93,85.93,142.93l138.78-63.21l38.05-73.08l-80.41-136.86
				L369.9,200.9z"/>
			<polygon class="st3" points="494.19,133.57 471.09,164.35 447.5,195.75 311.84,263.79 369.9,200.89 442.67,161.47 			"/>
			<path class="st4" d="M494.19,133.56l21.62,36.79l14.12,24.04l44.68,76.04l-14.02,26.93l-24.04,46.14
				c-35.96-49.43-54.85-99.23-89.04-147.75l23.59-31.41L494.19,133.56z"/>
			<path class="st4" d="M401.77,388.63l3.05-17.57c0.15-0.87,1.22-1.21,1.85-0.59l11.22,11.19c0.54,0.54,0.37,1.46-0.32,1.77
				l-14.27,6.39C402.5,390.17,401.62,389.49,401.77,388.63z"/>
			
				<ellipse transform="matrix(0.3586 -0.9335 0.9335 0.3586 -65.1885 638.1653)" class="st4" cx="431.81" cy="366.52" rx="10.64" ry="9.87"/>
			<polygon class="st5" points="420.75,173.35 372.82,233.21 399.36,219.9 437.06,164.52 			"/>
			<path class="st6" d="M372.82,233.21l14.24,25.53c7.16-13.31,16.43,0.34,25.33-14.16l-13.03-24.67L372.82,233.21z"/>
		</g>
		<g>
			<path class="st2" d="M735.52,54.45l7.79,55.3C781.06,113.45,851,125.37,851,125.37l25.38-96.21l-21.2-49.4l-102.34-15.9
				L735.52,54.45z"/>
			<polygon class="st3" points="752.84,-36.14 758.84,-11.76 764.97,13.13 743.31,109.76 735.52,54.45 745.66,1.41 			"/>
			<path class="st4" d="M752.84-36.14l27.51,4.27l17.97,2.79l56.86,8.83L863-2.04l13.38,31.2c-39.82-2.25-72.78-13.27-111.41-16.04
				l-6.13-24.89L752.84-36.14z"/>
			<path class="st4" d="M843.52,115.88l-7.62-8.8c-0.38-0.44-0.11-1.12,0.47-1.18l10.28-1.05c0.5-0.05,0.89,0.41,0.76,0.9
				l-2.67,9.85C844.6,116.15,843.89,116.31,843.52,115.88z"/>
			
				<ellipse transform="matrix(0.8685 -0.4957 0.4957 0.8685 65.7028 430.8045)" class="st4" cx="844.76" cy="91.58" rx="6.44" ry="6.94"/>
			<polygon class="st5" points="742.61,17.39 753.05,66.32 757.29,47.42 744.88,5.5 			"/>
			<path class="st6" d="M753.05,66.32l18.78,3.35c-3.77-9.11,6.96-8.16,3.3-18.64l-17.84-3.61L753.05,66.32z"/>
		</g>
		<g>
			<path class="st2" d="M1138.3,147.98l-37.13,11.67c1.77,26.37,1.56,75.81,1.56,75.81l69.04,6.47l31.54-20.22l-0.75-72.17
				L1138.3,147.98z"/>
			<polygon class="st3" points="1202.55,149.54 1186.48,156.46 1170.07,163.51 1101.17,159.65 1138.3,147.98 1175.92,148.89 			"/>
			<path class="st4" d="M1202.55,149.54l0.2,19.4l0.13,12.67l0.42,40.1l-11.62,7.45l-19.92,12.76c-3-27.63,0.82-51.55-1.7-78.42
				l16.41-7.05L1202.55,149.54z"/>
			<path class="st4" d="M1108.4,229.24l5.18-6.24c0.26-0.31,0.76-0.2,0.86,0.19l1.89,6.95c0.09,0.34-0.18,0.66-0.53,0.62l-7.07-0.71
				C1108.33,230.01,1108.14,229.54,1108.4,229.24z"/>
			
				<ellipse transform="matrix(0.7755 -0.6313 0.6313 0.7755 109.0708 761.3908)" class="st4" cx="1125.25" cy="227.31" rx="4.84" ry="4.49"/>
			<polygon class="st5" points="1164.58,148.62 1132.14,161.39 1145.62,162.14 1173.02,148.83 			"/>
			<path class="st6" d="M1132.14,161.39l-0.16,13.29c5.83-3.63,6.4,3.85,13.19,0.14l0.44-12.68L1132.14,161.39z"/>
		</g>
		<g>
			<path class="st2" d="M1284.85,275.88l-60.61-5.14c-13.07,39.19-42.69,110.56-42.69,110.56l96,50.28l57.6-10.54l41.7-104.81
				L1284.85,275.88z"/>
			<polygon class="st3" points="1376.84,316.23 1349.49,316.7 1321.58,317.17 1224.24,270.74 1284.85,275.88 1338.71,299.5 			"/>
			<path class="st4" d="M1376.84,316.23l-11.21,28.18l-7.32,18.41l-23.16,58.23l-21.22,3.88l-36.37,6.64
				c12.04-41.74,31.74-74.06,44.04-114.41l27.91-0.47L1376.84,316.23z"/>
			<path class="st4" d="M1193.44,375.65l11.19-5.95c0.55-0.3,1.21,0.16,1.13,0.78l-1.38,11.17c-0.07,0.54-0.65,0.85-1.13,0.59
				l-9.81-5.22C1192.89,376.73,1192.89,375.95,1193.44,375.65z"/>
			
				<ellipse transform="matrix(0.957 -0.2899 0.2899 0.957 -58.6475 369.8747)" class="st4" cx="1218.94" cy="382.86" rx="7.56" ry="7.02"/>
			<polygon class="st5" points="1322.48,292.39 1267.99,291.61 1287.04,300.69 1334.55,297.68 			"/>
			<path class="st6" d="M1267.99,291.61l-8.11,19.12c10.59-1.79,6.98,9.37,19,8.03l8.16-18.07L1267.99,291.61z"/>
		</g>
		<g>
			<path class="st2" d="M1403.09,194.23l-24.64,53.32c31.26,24.78,86.28,75.18,86.28,75.18l77.27-70.57l9.42-55.75l-81.39-72.39
				L1403.09,194.23z"/>
			<polygon class="st3" points="1470.03,124.03 1461.44,149 1452.67,174.49 1378.45,247.55 1403.09,194.22 1442.28,153.12 			"/>
			<path class="st4" d="M1470.03,124.03l21.88,19.46l14.29,12.71l45.22,40.22l-3.47,20.54l-5.96,35.2
				c-33.91-24.68-56.76-53.21-89.33-77.68l8.77-25.49L1470.03,124.03z"/>
			<path class="st4" d="M1463.53,310.08l-1.72-12.12c-0.09-0.6,0.54-1.05,1.08-0.77l9.68,4.94c0.47,0.24,0.55,0.87,0.16,1.22
				l-7.97,7.18C1464.32,310.93,1463.61,310.67,1463.53,310.08z"/>
			
				<ellipse transform="matrix(0.0541 -0.9985 0.9985 0.0541 1109.6201 1749.9619)" class="st4" cx="1478.48" cy="289.3" rx="7.3" ry="6.78"/>
			<polygon class="st5" points="1430.47,165.51 1411.82,214.71 1426.33,200.42 1439.26,156.29 			"/>
			<path class="st6" d="M1411.82,214.71l14.69,13.66c1.86-10.2,10.8-3.24,13.55-14.59l-13.71-13.36L1411.82,214.71z"/>
		</g>
		<g>
			<path class="st2" d="M1481.28,365.63l-45.88,31.05c13.17,35.24,33.03,102.76,33.03,102.76l96.79-19.32l34.78-40.43l-30.44-98.12
				L1481.28,365.63z"/>
			<polygon class="st3" points="1569.55,341.57 1550.44,357.55 1530.94,373.86 1435.39,396.68 1481.28,365.63 1532.96,351.54 			"/>
			<path class="st4" d="M1569.55,341.57l8.19,26.38l5.34,17.23L1600,439.7l-12.82,14.9l-21.97,25.52
				c-15.36-36.46-19.9-70.64-34.28-106.26l19.5-16.31L1569.55,341.57z"/>
			<path class="st4" d="M1473.62,488.64l4.52-10.62c0.22-0.53,0.95-0.58,1.25-0.1l5.41,8.71c0.26,0.42,0.02,0.97-0.47,1.07
				l-9.93,1.92C1473.85,489.72,1473.4,489.16,1473.62,488.64z"/>
			
				<ellipse transform="matrix(0.5623 -0.8269 0.8269 0.5623 258.4987 1446.6667)" class="st4" cx="1495.82" cy="479.15" rx="6.89" ry="6.39"/>
			<polygon class="st5" points="1517.39,355.79 1478.34,386.42 1497.03,381.96 1528.98,352.63 			"/>
			<path class="st6" d="M1478.34,386.42l5.2,18.19c6.48-7.33,10.3,2.64,18.05-5.18l-4.56-17.47L1478.34,386.42z"/>
		</g>
		<g>
			<path class="st2" d="M1596.3,243.73l-16.17,62.55c38.7,20.66,108.16,64.39,108.16,64.39l69.74-91.57l-0.78-62.19l-102.32-62.32
				L1596.3,243.73z"/>
			<polygon class="st3" points="1654.93,154.59 1650.55,183.31 1646.08,212.62 1580.13,306.29 1596.3,243.73 1630.63,191.54 			"/>
			<path class="st4" d="M1654.93,154.59l27.51,16.75l17.97,10.95l56.85,34.62l0.29,22.92l0.48,39.27
				c-41.56-20.04-71.9-46.42-111.96-66.48l4.48-29.31L1654.93,154.59z"/>
			<path class="st4" d="M1684.5,357.22l-4.24-12.78c-0.21-0.63,0.38-1.24,1.02-1.05l11.45,3.44c0.55,0.17,0.77,0.84,0.42,1.29
				l-7.21,9.34C1685.53,357.98,1684.71,357.84,1684.5,357.22z"/>
			
				<ellipse transform="matrix(0.9921 -0.1254 0.1254 0.9921 -28.2151 215.3838)" class="st4" cx="1696.59" cy="331.79" rx="7.45" ry="8.03"/>
			<polygon class="st5" points="1620.29,207.27 1609.78,264.18 1622.68,245.86 1627.98,195.57 			"/>
			<path class="st6" d="M1609.78,264.18l18.58,11.9c0.01-11.41,11.05-5.64,11.79-18.46l-17.47-11.76L1609.78,264.18z"/>
		</g>
		<g>
			<path class="st2" d="M1540.74,23.83l-32.83,33.77c17.05,27.06,45.24,79.83,45.24,79.83l77.23-32.8l21.96-39.66l-42.29-76.41
				L1540.74,23.83z"/>
			<polygon class="st3" points="1610.05,-11.45 1596.91,5.15 1583.49,22.1 1507.91,57.6 1540.74,23.83 1581.33,3.17 			"/>
			<path class="st4" d="M1610.06-11.45l11.37,20.54l7.43,13.42l23.5,42.45l-8.09,14.61l-13.87,25.04
				c-19.08-27.7-28.77-55.36-46.89-82.53l13.42-16.94L1610.06-11.45z"/>
			<path class="st4" d="M1555.62,127.54l1.93-9.62c0.1-0.48,0.69-0.65,1.02-0.3l6.01,6.31c0.29,0.31,0.19,0.81-0.2,0.97l-7.94,3.31
				C1555.99,128.4,1555.52,128.01,1555.62,127.54z"/>
			
				<ellipse transform="matrix(0.3825 -0.924 0.924 0.3825 863.9907 1524.3831)" class="st4" cx="1572.45" cy="115.8" rx="5.85" ry="5.43"/>
			<polygon class="st5" points="1569.1,9.4 1541.89,41.64 1556.67,34.7 1578.2,4.77 			"/>
			<path class="st6" d="M1541.89,41.64l7.47,14.24c4.13-7.22,9.03,0.42,14.13-7.43l-6.82-13.75L1541.89,41.64z"/>
		</g>
		<g>
			<path class="st2" d="M1441.73-123.17l-57.77-11.7c-16.95,36.26-53.42,101.65-53.42,101.65l86.8,59.1l56.61-3.72l51.82-96.23
				L1441.73-123.17z"/>
			<polygon class="st3" points="1525.78,-74.08 1499.4,-76.68 1472.49,-79.33 1383.97,-134.87 1441.73,-123.17 1490.94,-94.43 			
				"/>
			<path class="st4" d="M1525.78-74.08l-13.93,25.87l-9.1,16.9l-28.79,53.47l-20.86,1.37l-35.75,2.34
				c16.24-38.83,38.8-67.74,55.14-105.21l26.92,2.66L1525.78-74.08z"/>
			<path class="st4" d="M1342.62-37.32l11.43-4.48c0.57-0.22,1.15,0.29,1.01,0.88l-2.58,10.6c-0.12,0.51-0.72,0.74-1.16,0.44
				l-8.86-6.11C1341.98-36.35,1342.06-37.11,1342.62-37.32z"/>
			
				<ellipse transform="matrix(0.984 -0.1779 0.1779 0.984 26.6964 242.6434)" class="st4" cx="1366.37" cy="-27.54" rx="7.33" ry="6.8"/>
			<polygon class="st5" points="1476.11,-103.09 1423.76,-109.9 1441.07,-99.04 1487.14,-96.64 			"/>
			<path class="st6" d="M1423.76-109.9l-9.94,17.5c10.39-0.54,5.67,9.79,17.39,9.85l9.87-16.48L1423.76-109.9z"/>
		</g>
		<g>
			<path class="st2" d="M1113.6-14.96l6.71,46.66c31.87,3.02,90.93,12.92,90.93,12.92l21.19-81.26l-18.02-41.65L1128-91.47
				L1113.6-14.96z"/>
			<polygon class="st3" points="1128,-91.46 1133.13,-70.9 1138.36,-49.91 1120.31,31.7 1113.6,-14.96 1122.03,-59.76 			"/>
			<path class="st4" d="M1128-91.47l23.23,3.54l15.18,2.31l48.01,7.32l6.64,15.35l11.37,26.3c-33.62-1.8-61.46-11.03-94.07-13.27
				l-5.23-20.99L1128-91.47z"/>
			<path class="st4" d="M1204.9,36.62l-6.45-7.41c-0.32-0.37-0.09-0.94,0.39-0.99l8.68-0.91c0.42-0.04,0.75,0.35,0.64,0.75
				l-2.23,8.32C1205.81,36.85,1205.22,36.99,1204.9,36.62z"/>
			
				<ellipse transform="matrix(0.8671 -0.4982 0.4982 0.8671 152.2846 602.9168)" class="st4" cx="1205.89" cy="16.11" rx="5.44" ry="5.86"/>
			<polygon class="st5" points="1119.49,-46.26 1128.43,-4.99 1131.96,-20.95 1121.38,-56.3 			"/>
			<path class="st6" d="M1128.43-4.99l15.85,2.78c-3.2-7.68,5.85-6.9,2.74-15.74l-15.07-3L1128.43-4.99z"/>
		</g>
		<g>
			<path class="st2" d="M1045.15,457.26l-41.32,55.35c29.94,36.11,80.97,107.5,80.97,107.5l106.08-62.39l24.4-61.85l-76.03-103.09
				L1045.15,457.26z"/>
			<polygon class="st3" points="1139.25,392.78 1123.29,419.43 1107,446.62 1003.83,512.61 1045.15,457.26 1100.24,419.5 			"/>
			<path class="st4" d="M1139.25,392.78l20.44,27.71l13.35,18.11l42.25,57.27l-8.99,22.79l-15.42,39.05
				c-33.01-36.65-52.36-75.04-83.88-111.11l16.29-27.19L1139.25,392.78z"/>
			<path class="st4" d="M1086.49,605.26l0.97-14.36c0.05-0.71,0.88-1.07,1.43-0.63l9.94,8.04c0.48,0.39,0.42,1.14-0.11,1.45
				l-10.91,6.33C1087.2,606.43,1086.45,605.96,1086.49,605.26z"/>
			
				<ellipse transform="matrix(0.2595 -0.9657 0.9657 0.2595 256.0471 1503.9268)" class="st4" cx="1108.75" cy="584.99" rx="8.58" ry="7.97"/>
			<polygon class="st5" points="1083.64,430.88 1050.2,482.95 1070.39,470.04 1096,422.42 			"/>
			<path class="st6" d="M1050.2,482.95l13.57,19.29c4.63-11.29,13.22-1.1,19.14-13.5l-12.53-18.71L1050.2,482.95z"/>
		</g>
		<g>
			<path class="st2" d="M1375.7,102.3l-14.06-53.72c-37.7,0.7-108.14-3.04-108.14-3.04l-14,97.93l26.62,46.35l102.9,3.93
				L1375.7,102.3z"/>
			<polygon class="st3" points="1369.02,193.75 1360.28,170.37 1351.37,146.5 1361.64,48.58 1375.7,102.3 1371.79,155.85 			"/>
			<path class="st4" d="M1369.02,193.76l-27.66-1.06l-18.07-0.69l-57.17-2.18l-9.81-17.08l-16.8-29.27
				c39.58-2.36,73.4,4.74,111.87,3.02l8.91,23.87L1369.02,193.76z"/>
			<path class="st4" d="M1261.98,54.05l8.53,7.81c0.42,0.39,0.23,1.09-0.33,1.21l-10.03,2.22c-0.49,0.11-0.93-0.31-0.85-0.8
				l1.5-10.03C1260.89,53.91,1261.56,53.67,1261.98,54.05z"/>
			
				<ellipse transform="matrix(0.8053 -0.5929 0.5929 0.8053 199.641 764.3286)" class="st4" cx="1263.55" cy="78.2" rx="6.4" ry="6.9"/>
			<polygon class="st5" points="1372.96,139.71 1357.02,92.59 1355.01,111.75 1372.09,151.72 			"/>
			<path class="st6" d="M1357.02,92.59l-18.93-1.15c4.77,8.57-5.93,8.86-1.12,18.79l18.04,1.51L1357.02,92.59z"/>
		</g>
		<g>
			<path class="st2" d="M255.62,436.66l-33.07,28.52c13.54,26.38,35.28,77.41,35.28,77.41l74-24.01l23.51-34.84l-32.84-74.02
				L255.62,436.66z"/>
			<polygon class="st3" points="322.51,409.73 309.02,423.99 295.25,438.54 222.55,465.18 255.62,436.66 294.78,420.89 			"/>
			<path class="st4" d="M322.51,409.73l8.83,19.9l5.77,13l18.25,41.12l-8.66,12.84l-14.85,22c-15.37-27.13-22.06-53.47-36.58-80.04
				l13.77-14.56L322.51,409.73z"/>
			<path class="st4" d="M260.91,533.66l2.56-8.73c0.13-0.43,0.69-0.54,0.97-0.19l5.04,6.32c0.24,0.31,0.11,0.76-0.27,0.88l-7.6,2.41
				C261.19,534.48,260.78,534.09,260.91,533.66z"/>
			
				<ellipse transform="matrix(0.4622 -0.8868 0.8868 0.4622 -315.645 527.9289)" class="st4" cx="277.42" cy="524.19" rx="5.43" ry="5.04"/>
			<polygon class="st5" points="282.98,425.64 255.23,453.21 269.45,448 291.76,422.11 			"/>
			<path class="st6" d="M255.23,453.21l5.74,13.76c4.4-6.33,8.31,1.12,13.66-5.71L269.45,448L255.23,453.21z"/>
		</g>
		<g>
			<path class="st2" d="M585.78,136.16l34.63,25.97c22.67-18.71,67.48-50.6,67.48-50.6l-38.95-66.57l-38.73-15.38L545.5,77.1
				L585.78,136.16z"/>
			<polygon class="st3" points="545.5,77.1 562.17,87.14 579.19,97.39 620.41,162.14 585.77,136.17 562.19,101.58 			"/>
			<path class="st4" d="M545.49,77.1l17.4-12.77l11.37-8.34l35.95-26.4l14.27,5.67l24.45,9.72c-23.02,20.64-47.1,32.71-69.75,52.41
				l-17.02-10.25L545.49,77.1z"/>
			<path class="st4" d="M678.59,110.46l-9-0.63c-0.45-0.03-0.67-0.55-0.39-0.9l5.05-6.22c0.24-0.3,0.71-0.26,0.91,0.07l3.95,6.85
				C679.33,110.01,679.03,110.49,678.59,110.46z"/>
			
				<ellipse transform="matrix(0.2617 -0.9652 0.9652 0.2617 398.546 713.9509)" class="st4" cx="665.92" cy="96.48" rx="4.99" ry="5.38"/>
			<polygon class="st5" points="569.3,112 601.88,133.03 593.82,120.36 564.01,104.25 			"/>
			<path class="st6" d="M601.88,133.03l12.11-8.48c-7.07-2.92-0.67-8.28-8.43-12.01l-11.74,7.83L601.88,133.03z"/>
		</g>
		<g>
			<path class="st2" d="M696.06,187.27l-26.19,32.88c17.52,22.54,47.2,66.94,47.2,66.94l65.72-35.92l16.03-37.16l-44.28-64.16
				L696.06,187.27z"/>
			<polygon class="st3" points="754.53,149.85 744.32,165.75 733.89,181.98 669.86,220.15 696.06,187.27 730.3,165.36 			"/>
			<path class="st4" d="M754.53,149.85l11.91,17.25l7.78,11.27l24.6,35.65l-5.9,13.69l-10.13,23.46
				c-19.38-22.93-30.42-46.65-48.9-69.19l10.43-16.23L754.53,149.85z"/>
			<path class="st4" d="M718.38,278.09l0.87-8.72c0.04-0.43,0.55-0.64,0.88-0.35l5.89,5.08c0.28,0.25,0.24,0.7-0.1,0.88l-6.76,3.64
				C718.79,278.82,718.34,278.52,718.38,278.09z"/>
			
				<ellipse transform="matrix(0.2897 -0.9571 0.9571 0.2897 265.3626 889.9617)" class="st4" cx="732.31" cy="266.19" rx="5.22" ry="4.85"/>
			<polygon class="st5" points="719.98,171.96 698.64,203 711.17,195.53 727.66,167.05 			"/>
			<path class="st6" d="M698.64,203l7.89,12c3.03-6.78,8.06-0.42,11.9-7.84l-7.26-11.62L698.64,203z"/>
		</g>
		<g>
			<path class="st2" d="M611.4,338.56l-40.48,31.32c14.21,31.72,36.48,92.8,36.48,92.8l88.1-23.49l29.69-39.31l-33.82-88.68
				L611.4,338.56z"/>
			<polygon class="st3" points="691.37,311.2 674.69,327.06 657.67,343.23 570.92,369.88 611.4,338.56 658.22,322.54 			"/>
			<path class="st4" d="M691.37,311.2l9.09,23.84l5.94,15.57l18.8,49.27l-10.94,14.49l-18.75,24.82
				c-16.3-32.72-22.49-63.95-37.84-95.96l17.02-16.18L691.37,311.2z"/>
			<path class="st4" d="M611.56,452.42l3.54-10.06c0.18-0.5,0.84-0.59,1.15-0.16l5.5,7.71c0.27,0.37,0.08,0.9-0.37,1.01l-9.05,2.35
				C611.83,453.4,611.38,452.91,611.56,452.42z"/>
			
				<ellipse transform="matrix(0.5086 -0.861 0.861 0.5086 -70.5873 761.0498)" class="st4" cx="631.46" cy="442.37" rx="6.36" ry="5.9"/>
			<polygon class="st5" points="644.11,327.37 609.91,357.91 626.88,352.69 654.61,323.78 			"/>
			<path class="st6" d="M609.91,357.91l5.86,16.46c5.54-7.14,9.65,1.83,16.34-5.84l-5.23-15.84L609.91,357.91z"/>
		</g>
		<g>
			<path class="st2" d="M553.71,475.08l-51.83-33.35c-30.29,28.89-90.66,78.73-90.66,78.73l62.1,90.55l56.56,17.88l87.04-74.06
				L553.71,475.08z"/>
			<polygon class="st3" points="616.93,554.83 592.23,542.28 567.02,529.47 501.88,441.73 553.71,475.08 590.73,521.78 			"/>
			<path class="st4" d="M616.94,554.84l-23.4,19.91l-15.29,13.01l-48.36,41.15l-20.84-6.59l-35.72-11.3
				c30.58-31.66,63.54-51.25,93.69-81.54l25.21,12.82L616.94,554.84z"/>
			<path class="st4" d="M424.55,521.05l12.84-0.02c0.64,0,1.01,0.72,0.65,1.24l-6.54,9.35c-0.32,0.45-0.99,0.45-1.3-0.01l-6.31-9.32
				C423.54,521.76,423.92,521.05,424.55,521.05z"/>
			
				<ellipse transform="matrix(0.1918 -0.9814 0.9814 0.1918 -170.7764 871.8256)" class="st4" cx="443.96" cy="539.6" rx="7.11" ry="7.66"/>
			<polygon class="st5" points="579.57,507.7 531.16,481.17 543.9,498.33 587.87,518.17 			"/>
			<path class="st6" d="M531.16,481.17l-16.33,13.28c10.33,3.42,1.8,11.69,13.2,16.2l15.87-12.31L531.16,481.17z"/>
		</g>
		<g>
			<path class="st2" d="M772.56,491.73l20.09,49.58c35.93-5.34,103.69-10.51,103.69-10.51l1.23-95.29l-31.18-40.98l-98.79,9
				L772.56,491.73z"/>
			<polygon class="st3" points="767.6,403.53 778.85,424.79 790.32,446.49 792.64,541.31 772.55,491.73 769.65,440.09 			"/>
			<path class="st4" d="M767.6,403.53l26.56-2.42l17.35-1.58l54.88-5l11.49,15.1l19.68,25.88c-37.52,7.16-70.71,4.58-107.24,10.98
				l-11.47-21.7L767.6,403.53z"/>
			<path class="st4" d="M887.17,523.72l-9.12-6.41c-0.45-0.32-0.36-1.01,0.16-1.2l9.31-3.36c0.45-0.16,0.92,0.18,0.91,0.66
				l-0.19,9.77C888.24,523.72,887.62,524.03,887.17,523.72z"/>
			
				<ellipse transform="matrix(0.7223 -0.6916 0.6916 0.7223 -101.2542 749.5276)" class="st4" cx="882.68" cy="500.84" rx="6.17" ry="6.65"/>
			<polygon class="st5" points="770.53,455.65 791.6,498.68 791.15,480.14 769.88,444.07 			"/>
			<path class="st6" d="M791.6,498.68l18.22-1.25c-5.62-7.59,4.57-9.2-1.26-18.09l-17.42,0.79L791.6,498.68z"/>
		</g>
		<g>
			<path class="st2" d="M995.36,209.83l-75.12-19.72c-25.01,46.43-77.89,129.73-77.89,129.73l109.76,84.25l74.76-0.65l75.38-122.72
				L995.36,209.83z"/>
			<polygon class="st3" points="1102.25,280.71 1067.75,275.32 1032.54,269.81 920.24,190.11 995.36,209.83 1057.95,251.33 			"/>
			<path class="st4" d="M1102.25,280.72l-20.26,32.99l-13.24,21.55l-41.88,68.19l-27.55,0.24l-47.21,0.4
				c24.28-49.87,56.13-86.22,80.43-134.28l35.21,5.51L1102.25,280.72z"/>
			<path class="st4" d="M858.54,315.34l15.38-5.04c0.76-0.25,1.49,0.46,1.26,1.23L871,325.28c-0.2,0.66-1.01,0.92-1.56,0.49
				l-11.2-8.71C857.62,316.58,857.79,315.59,858.54,315.34z"/>
			
				<ellipse transform="matrix(0.9926 -0.1217 0.1217 0.9926 -33.5448 110.6212)" class="st4" cx="889.05" cy="329.99" rx="9.65" ry="8.96"/>
			<polygon class="st5" points="1039.09,238.83 970.72,225.94 992.69,241.53 1053.12,248.14 			"/>
			<path class="st6" d="M970.72,225.94l-14.38,22.28c13.71,0.06,6.72,13.31,22.14,14.26l14.21-20.95L970.72,225.94z"/>
		</g>
		<g>
			<path class="st2" d="M1027.47,24.53L977.85,4.62c-21.06,29.57-64.32,81.94-64.32,81.94l67.76,66.95l51.12,5.96l62.01-77.37
				L1027.47,24.53z"/>
			<polygon class="st3" points="1094.42,82.1 1071.31,75.46 1047.73,68.68 977.85,4.62 1027.48,24.53 1066.67,58.24 			"/>
			<path class="st4" d="M1094.42,82.11l-16.67,20.8l-10.89,13.59l-34.45,42.99l-18.84-2.2l-32.28-3.77
				c20.86-31.98,45.73-54.08,66.44-84.83l23.58,6.78L1094.42,82.11z"/>
			<path class="st4" d="M924.98,84.88l10.94-2.13c0.54-0.11,0.98,0.44,0.75,0.95l-4.04,9.03c-0.2,0.44-0.77,0.54-1.11,0.2l-6.9-6.91
				C924.24,85.64,924.44,84.98,924.98,84.88z"/>
			
				<ellipse transform="matrix(2.812325e-03 -1 1 2.812325e-03 844.4069 1041.7817)" class="st4" cx="944.56" cy="97.5" rx="6.17" ry="6.65"/>
			<polygon class="st5" points="1054.86,48.08 1009.26,33.42 1022.93,45.95 1063.64,55.64 			"/>
			<path class="st6" d="M1009.26,33.42l-11.73,13.99c9.36,1.22,3.45,9.67,13.9,11.63l11.5-13.09L1009.26,33.42z"/>
		</g>
	</g>
</g>
<g>
	<defs>
		<path id="SVGID_00000126290309197238571080000006129038680250814085_" d="M1600,24.84v428.52c0,8.31-4.08,15.66-10.34,20.17
			c-2.4,1.73-5.84,0.86-6.95-1.88c-3.92-9.72-16.41-16.83-31.21-16.83c-9.47,0-17.99,2.91-23.93,7.55
			c-1.91,1.49-4.64,1.25-6.24-0.56c-7.66-8.68-21.22-14.45-36.68-14.45c-13.95,0-26.37,4.71-34.28,12.01
			c-1.84,1.7-4.72,1.55-6.42-0.29c-9.32-10.07-25.83-16.76-44.62-16.76c-27.05,0-49.35,13.85-52.36,31.7
			c-0.4,2.39-2.49,4.14-4.91,4.14L24.83,478.2C11.12,478.2,0,467.08,0,453.36V24.84C0,11.12,11.12,0,24.83,0h1550.34
			C1588.88,0,1600,11.12,1600,24.84z"/>
	</defs>
	<clipPath id="SVGID_00000155848216390060660950000015892146460125957822_">
		<use xlink:href="#SVGID_00000126290309197238571080000006129038680250814085_"  style="overflow:visible;"/>
	</clipPath>
	<g style="clip-path:url(#SVGID_00000155848216390060660950000015892146460125957822_);">
		<g>
			<path class="st2" d="M181.73,292.69l-56.95-19.1c-21.7,34.54-66.81,96.09-66.81,96.09l80.35,70.69l57.72,3.36l64.51-90.81
				L181.73,292.69z"/>
			<polygon class="st3" points="260.56,352.91 234.21,346.97 207.32,340.89 124.78,273.59 181.73,292.69 227.89,327.95 			"/>
			<path class="st4" d="M260.56,352.92l-17.34,24.41l-11.33,15.95l-35.84,50.45l-21.27-1.24l-36.45-2.13
				c21.31-37.23,47.77-63.63,69-99.47l26.89,6.07L260.56,352.92z"/>
			<path class="st4" d="M70.7,367.04l12.13-3.1c0.6-0.15,1.13,0.43,0.91,1.01l-3.94,10.4c-0.19,0.5-0.83,0.66-1.23,0.3l-8.19-7.3
				C69.92,367.95,70.1,367.2,70.7,367.04z"/>
			
				<ellipse transform="matrix(0.9985 -0.0551 0.0551 0.9985 -20.7818 5.7252)" class="st4" cx="93.49" cy="379.92" rx="7.47" ry="6.93"/>
			<polygon class="st5" points="213.98,317.33 161.88,303.85 178.03,317.01 224.32,325.23 			"/>
			<path class="st6" d="M161.88,303.85l-12.25,16.45c10.58,0.76,4.5,10.62,16.35,12.15l12.05-15.43L161.88,303.85z"/>
		</g>
		<g>
			<path class="st2" d="M-7.73,588.01l41.47,43.46c35.31-20.43,103.92-53.83,103.92-53.83l-38.1-100l-49.49-29.9l-99.42,50.23
				L-7.73,588.01z"/>
			<polygon class="st3" points="-49.36,497.98 -28.83,515.52 -7.88,533.44 33.74,631.47 -7.73,588.01 -32.11,535.29 			"/>
			<path class="st4" d="M-49.36,497.97l26.73-13.51l17.46-8.82l55.24-27.91l18.24,11.02l31.25,18.89
				c-36.22,22.99-71.93,34.01-107.43,55.8l-20.95-17.91L-49.36,497.97z"/>
			<path class="st4" d="M125.17,574.03l-12.17-2.92c-0.6-0.14-0.79-0.91-0.33-1.32l8.33-7.36c0.4-0.36,1.04-0.2,1.23,0.31
				l3.84,10.28C126.28,573.6,125.76,574.18,125.17,574.03z"/>
			
				<ellipse transform="matrix(0.417 -0.9089 0.9089 0.417 -437.0006 422.7198)" class="st4" cx="111.02" cy="552.01" rx="6.93" ry="7.47"/>
			<polygon class="st5" points="-24.76,551.18 15.03,587.4 6.89,568.23 -30.22,539.36 			"/>
			<path class="st6" d="M15.03,587.4l18.51-8.84c-9.01-5.6,0.97-11.49-8.79-18.37l-17.86,8.03L15.03,587.4z"/>
		</g>
		<g>
			<path class="st2" d="M191.26,71.75l-66.17,13.44c-1.7,45.82-10.99,131.09-10.99,131.09l117.95,23.61l58.07-29.19l11.72-124.66
				L191.26,71.75z"/>
			<polygon class="st3" points="301.84,86.03 272.86,95.06 243.27,104.27 125.09,85.18 191.26,71.75 256.01,80.11 			"/>
			<path class="st4" d="M301.84,86.03l-3.15,33.51l-2.06,21.89l-6.51,69.26l-21.4,10.76l-36.67,18.43
				c-0.19-48.22,10.71-88.79,11.22-135.61l29.58-9.21L301.84,86.03z"/>
			<path class="st4" d="M125.01,206.55l10.06-9.83c0.5-0.49,1.34-0.21,1.45,0.48l2.01,12.33c0.1,0.6-0.43,1.1-1.02,0.98l-12.08-2.5
				C124.76,207.87,124.51,207.04,125.01,206.55z"/>
			
				<ellipse transform="matrix(0.837 -0.5472 0.5472 0.837 -87.706 118.1347)" class="st4" cx="154.43" cy="206.28" rx="8.39" ry="7.79"/>
			<polygon class="st5" points="236.49,77.59 178.21,93.77 201.33,97.5 251.01,79.47 			"/>
			<path class="st6" d="M178.21,93.77l-2.67,22.9c10.72-5.21,10.35,7.8,22.74,2.63l3.05-21.8L178.21,93.77z"/>
		</g>
		<g>
			<path class="st2" d="M28.2-25.38l-41.64,6.32c-2.48,28.5-10.92,81.34-10.92,81.34L48.4,80.64l37.09-16.38l11.18-77.31L28.2-25.38
				z"/>
			<polygon class="st3" points="96.66,-13.05 78.32,-8.32 59.6,-3.51 -13.44,-19.07 28.2,-25.39 68.29,-18.16 			"/>
			<path class="st4" d="M96.66-13.05l-3,20.78l-1.96,13.58l-6.21,42.95L71.82,70.3L48.4,80.64c1.38-30.05,9.43-54.99,11.2-84.15
				l18.72-4.82L96.66-13.05z"/>
			<path class="st4" d="M-17.26,56.55l6.58-5.82c0.33-0.29,0.84-0.09,0.89,0.34l0.87,7.75c0.04,0.37-0.3,0.67-0.67,0.58l-7.45-1.93
				C-17.46,57.36-17.58,56.83-17.26,56.55z"/>
			
				<ellipse transform="matrix(0.8632 -0.5049 0.5049 0.8632 -28.7772 8.3827)" class="st4" cx="1.08" cy="57.29" rx="5.23" ry="4.86"/>
			<polygon class="st5" points="56.21,-20.34 19.39,-12.07 33.68,-9.03 65.19,-18.72 			"/>
			<path class="st6" d="M19.39-12.07L17.02,2.11C23.86-0.8,23.22,7.3,31.1,4.46l2.58-13.49L19.39-12.07z"/>
		</g>
		<g>
			<path class="st2" d="M419.35-3.06L378.7,13.7c4.57,29.51,9.16,85.18,9.16,85.18l78.34,0.53l33.52-25.84l-7.9-81.16L419.35-3.06z"
				/>
			<polygon class="st3" points="491.83,-7.58 474.41,1.77 456.63,11.31 378.7,13.7 419.35,-3.06 461.79,-5.71 			"/>
			<path class="st4" d="M491.83-7.58l2.12,21.82l1.39,14.25l4.39,45.09l-12.35,9.52L466.2,99.41c-6.08-30.81-4.12-58.1-9.57-88.1
				l17.78-9.54L491.83-7.58z"/>
			<path class="st4" d="M393.64,91.32l5.22-7.53c0.26-0.37,0.83-0.3,0.99,0.13l2.81,7.64c0.14,0.37-0.14,0.76-0.53,0.75l-8.03-0.11
				C393.64,92.19,393.38,91.69,393.64,91.32z"/>
			
				<ellipse transform="matrix(0.718 -0.696 0.696 0.718 55.3819 311.7188)" class="st4" cx="412.42" cy="87.51" rx="5.46" ry="5.07"/>
			<polygon class="st5" points="449,-4.91 413.73,12.63 428.98,12.16 458.51,-5.5 			"/>
			<path class="st6" d="M413.73,12.63l1.12,14.97c6.21-4.66,7.58,3.71,14.86-1.13l-0.74-14.31L413.73,12.63z"/>
		</g>
		<g>
			<path class="st2" d="M276.69,13.77l33.35-24.73C299.04-36.91,282-86.82,282-86.82l-71.84,17.59l-24.73,31.39l25.96,72.47
				L276.69,13.77z"/>
			<polygon class="st3" points="211.39,34.64 225.18,22.05 239.25,9.22 310.04,-10.95 276.69,13.77 238.46,25.99 			"/>
			<path class="st4" d="M211.39,34.64l-6.98-19.48l-4.56-12.73l-14.42-40.27l9.11-11.57l15.62-19.82
				c12.67,26.8,17.18,52.24,29.09,78.44l-14.07,12.84L211.39,34.64z"/>
			<path class="st4" d="M278.46-78.56l-3.04,8.1c-0.15,0.4-0.69,0.47-0.93,0.11l-4.33-6.34c-0.21-0.31-0.05-0.73,0.31-0.81
				l7.38-1.76C278.25-79.36,278.6-78.96,278.46-78.56z"/>
			
				<ellipse transform="matrix(0.5261 -0.8504 0.8504 0.5261 184.3769 189.4067)" class="st4" cx="262.14" cy="-70.74" rx="5.16" ry="4.79"/>
			<polygon class="st5" points="249.98,22.31 278.22,-1.89 264.37,2.06 241.41,25.05 			"/>
			<path class="st6" d="M278.22-1.89l-4.48-13.45c-4.61,5.7-7.8-1.65-13.35,4.46l3.98,12.93L278.22-1.89z"/>
		</g>
		<g>
			<path class="st2" d="M-72.43,304.14l-7.91,45.74c28.93,12.53,81.23,39.76,81.23,39.76l44.57-69.66l-4.2-44.49l-76.93-38.63
				L-72.43,304.14z"/>
			<polygon class="st3" points="-35.68,236.86 -37.13,257.68 -38.62,278.93 -80.34,349.88 -72.43,304.13 -50.91,264.74 			"/>
			<path class="st4" d="M-35.68,236.86l20.68,10.38l13.51,6.79l42.74,21.46l1.55,16.39l2.65,28.09
				c-30.94-11.91-54.21-29.02-84.07-41.04l1.49-21.25L-35.68,236.86z"/>
			<path class="st4" d="M-2.62,380.23l-3.79-8.9c-0.19-0.44,0.2-0.91,0.67-0.81l8.4,1.79c0.41,0.09,0.6,0.55,0.37,0.9l-4.61,7.11
				C-1.83,380.72-2.43,380.66-2.62,380.23z"/>
			
				<ellipse transform="matrix(0.9786 -0.206 0.206 0.9786 -74.3251 8.685)" class="st4" cx="4.55" cy="361.31" rx="5.35" ry="5.77"/>
			<polygon class="st5" points="-57.4,276.62 -61.59,317.99 -53.42,304.11 -52.57,267.79 			"/>
			<path class="st6" d="M-61.59,317.99l14,7.43c-0.66-8.17,7.58-4.68,7.36-13.91l-13.2-7.4L-61.59,317.99z"/>
		</g>
		<g>
			<path class="st2" d="M4.34,126.8l-34.13,1.32c-4.58,22.74-16.15,64.55-16.15,64.55l56.97,21.39l31.37-9.85l16-61.28L4.34,126.8z"
				/>
			<polygon class="st3" points="58.39,142.93 43.18,145.08 27.66,147.27 -29.79,128.12 4.34,126.8 35.99,136.24 			"/>
			<path class="st4" d="M58.39,142.93l-4.3,16.48l-2.81,10.76l-8.89,34.05l-11.56,3.63l-19.81,6.21
				c3.83-24.09,12.57-43.46,16.64-66.79l15.52-2.19L58.39,142.93z"/>
			<path class="st4" d="M-39.71,188.71l5.82-4.09c0.29-0.2,0.69,0,0.69,0.36l0,6.32c0,0.31-0.31,0.52-0.59,0.41l-5.83-2.23
				C-39.94,189.35-39.99,188.91-39.71,188.71z"/>
			
				<ellipse transform="matrix(0.9141 -0.4055 0.4055 0.9141 -79.5747 6.2664)" class="st4" cx="-25" cy="190.96" rx="4.24" ry="3.94"/>
			<polygon class="st5" points="26.45,133.4 -3.97,136.73 7.27,140.47 33.54,135.51 			"/>
			<path class="st6" d="M-3.97,136.73l-3.2,11.22c5.78-1.73,4.53,4.74,11.14,3.16l3.3-10.63L-3.97,136.73z"/>
		</g>
		<g>
			<path class="st2" d="M369.9,200.9l-58.06,62.89c32.24,48.37,85.93,142.93,85.93,142.93l138.78-63.21l38.05-73.08l-80.41-136.86
				L369.9,200.9z"/>
			<polygon class="st3" points="494.19,133.57 471.09,164.35 447.5,195.75 311.84,263.79 369.9,200.89 442.67,161.47 			"/>
			<path class="st4" d="M494.19,133.56l21.62,36.79l14.12,24.04l44.68,76.04l-14.02,26.93l-24.04,46.14
				c-35.96-49.43-54.85-99.23-89.04-147.75l23.59-31.41L494.19,133.56z"/>
			<path class="st4" d="M401.77,388.63l3.05-17.57c0.15-0.87,1.22-1.21,1.85-0.59l11.22,11.19c0.54,0.54,0.37,1.46-0.32,1.77
				l-14.27,6.39C402.5,390.17,401.62,389.49,401.77,388.63z"/>
			
				<ellipse transform="matrix(0.3586 -0.9335 0.9335 0.3586 -65.1885 638.1653)" class="st4" cx="431.81" cy="366.52" rx="10.64" ry="9.87"/>
			<polygon class="st5" points="420.75,173.35 372.82,233.21 399.36,219.9 437.06,164.52 			"/>
			<path class="st6" d="M372.82,233.21l14.24,25.53c7.16-13.31,16.43,0.34,25.33-14.16l-13.03-24.67L372.82,233.21z"/>
		</g>
		<g>
			<path class="st2" d="M735.52,54.45l7.79,55.3C781.06,113.45,851,125.37,851,125.37l25.38-96.21l-21.2-49.4l-102.34-15.9
				L735.52,54.45z"/>
			<polygon class="st3" points="752.84,-36.14 758.84,-11.76 764.97,13.13 743.31,109.76 735.52,54.45 745.66,1.41 			"/>
			<path class="st4" d="M752.84-36.14l27.51,4.27l17.97,2.79l56.86,8.83L863-2.04l13.38,31.2c-39.82-2.25-72.78-13.27-111.41-16.04
				l-6.13-24.89L752.84-36.14z"/>
			<path class="st4" d="M843.52,115.88l-7.62-8.8c-0.38-0.44-0.11-1.12,0.47-1.18l10.28-1.05c0.5-0.05,0.89,0.41,0.76,0.9
				l-2.67,9.85C844.6,116.15,843.89,116.31,843.52,115.88z"/>
			
				<ellipse transform="matrix(0.8685 -0.4957 0.4957 0.8685 65.7028 430.8045)" class="st4" cx="844.76" cy="91.58" rx="6.44" ry="6.94"/>
			<polygon class="st5" points="742.61,17.39 753.05,66.32 757.29,47.42 744.88,5.5 			"/>
			<path class="st6" d="M753.05,66.32l18.78,3.35c-3.77-9.11,6.96-8.16,3.3-18.64l-17.84-3.61L753.05,66.32z"/>
		</g>
		<g>
			<path class="st2" d="M1138.3,147.98l-37.13,11.67c1.77,26.37,1.56,75.81,1.56,75.81l69.04,6.47l31.54-20.22l-0.75-72.17
				L1138.3,147.98z"/>
			<polygon class="st3" points="1202.55,149.54 1186.48,156.46 1170.07,163.51 1101.17,159.65 1138.3,147.98 1175.92,148.89 			"/>
			<path class="st4" d="M1202.55,149.54l0.2,19.4l0.13,12.67l0.42,40.1l-11.62,7.45l-19.92,12.76c-3-27.63,0.82-51.55-1.7-78.42
				l16.41-7.05L1202.55,149.54z"/>
			<path class="st4" d="M1108.4,229.24l5.18-6.24c0.26-0.31,0.76-0.2,0.86,0.19l1.89,6.95c0.09,0.34-0.18,0.66-0.53,0.62l-7.07-0.71
				C1108.33,230.01,1108.14,229.54,1108.4,229.24z"/>
			
				<ellipse transform="matrix(0.7755 -0.6313 0.6313 0.7755 109.0708 761.3908)" class="st4" cx="1125.25" cy="227.31" rx="4.84" ry="4.49"/>
			<polygon class="st5" points="1164.58,148.62 1132.14,161.39 1145.62,162.14 1173.02,148.83 			"/>
			<path class="st6" d="M1132.14,161.39l-0.16,13.29c5.83-3.63,6.4,3.85,13.19,0.14l0.44-12.68L1132.14,161.39z"/>
		</g>
		<g>
			<path class="st2" d="M1284.85,275.88l-60.61-5.14c-13.07,39.19-42.69,110.56-42.69,110.56l96,50.28l57.6-10.54l41.7-104.81
				L1284.85,275.88z"/>
			<polygon class="st3" points="1376.84,316.23 1349.49,316.7 1321.58,317.17 1224.24,270.74 1284.85,275.88 1338.71,299.5 			"/>
			<path class="st4" d="M1376.84,316.23l-11.21,28.18l-7.32,18.41l-23.16,58.23l-21.22,3.88l-36.37,6.64
				c12.04-41.74,31.74-74.06,44.04-114.41l27.91-0.47L1376.84,316.23z"/>
			<path class="st4" d="M1193.44,375.65l11.19-5.95c0.55-0.3,1.21,0.16,1.13,0.78l-1.38,11.17c-0.07,0.54-0.65,0.85-1.13,0.59
				l-9.81-5.22C1192.89,376.73,1192.89,375.95,1193.44,375.65z"/>
			
				<ellipse transform="matrix(0.957 -0.2899 0.2899 0.957 -58.6475 369.8747)" class="st4" cx="1218.94" cy="382.86" rx="7.56" ry="7.02"/>
			<polygon class="st5" points="1322.48,292.39 1267.99,291.61 1287.04,300.69 1334.55,297.68 			"/>
			<path class="st6" d="M1267.99,291.61l-8.11,19.12c10.59-1.79,6.98,9.37,19,8.03l8.16-18.07L1267.99,291.61z"/>
		</g>
		<g>
			<path class="st2" d="M1403.09,194.23l-24.64,53.32c31.26,24.78,86.28,75.18,86.28,75.18l77.27-70.57l9.42-55.75l-81.39-72.39
				L1403.09,194.23z"/>
			<polygon class="st3" points="1470.03,124.03 1461.44,149 1452.67,174.49 1378.45,247.55 1403.09,194.22 1442.28,153.12 			"/>
			<path class="st4" d="M1470.03,124.03l21.88,19.46l14.29,12.71l45.22,40.22l-3.47,20.54l-5.96,35.2
				c-33.91-24.68-56.76-53.21-89.33-77.68l8.77-25.49L1470.03,124.03z"/>
			<path class="st4" d="M1463.53,310.08l-1.72-12.12c-0.09-0.6,0.54-1.05,1.08-0.77l9.68,4.94c0.47,0.24,0.55,0.87,0.16,1.22
				l-7.97,7.18C1464.32,310.93,1463.61,310.67,1463.53,310.08z"/>
			
				<ellipse transform="matrix(0.0541 -0.9985 0.9985 0.0541 1109.6201 1749.9619)" class="st4" cx="1478.48" cy="289.3" rx="7.3" ry="6.78"/>
			<polygon class="st5" points="1430.47,165.51 1411.82,214.71 1426.33,200.42 1439.26,156.29 			"/>
			<path class="st6" d="M1411.82,214.71l14.69,13.66c1.86-10.2,10.8-3.24,13.55-14.59l-13.71-13.36L1411.82,214.71z"/>
		</g>
		<g>
			<path class="st2" d="M1481.28,365.63l-45.88,31.05c13.17,35.24,33.03,102.76,33.03,102.76l96.79-19.32l34.78-40.43l-30.44-98.12
				L1481.28,365.63z"/>
			<polygon class="st3" points="1569.55,341.57 1550.44,357.55 1530.94,373.86 1435.39,396.68 1481.28,365.63 1532.96,351.54 			"/>
			<path class="st4" d="M1569.55,341.57l8.19,26.38l5.34,17.23L1600,439.7l-12.82,14.9l-21.97,25.52
				c-15.36-36.46-19.9-70.64-34.28-106.26l19.5-16.31L1569.55,341.57z"/>
			<path class="st4" d="M1473.62,488.64l4.52-10.62c0.22-0.53,0.95-0.58,1.25-0.1l5.41,8.71c0.26,0.42,0.02,0.97-0.47,1.07
				l-9.93,1.92C1473.85,489.72,1473.4,489.16,1473.62,488.64z"/>
			
				<ellipse transform="matrix(0.5623 -0.8269 0.8269 0.5623 258.4987 1446.6667)" class="st4" cx="1495.82" cy="479.15" rx="6.89" ry="6.39"/>
			<polygon class="st5" points="1517.39,355.79 1478.34,386.42 1497.03,381.96 1528.98,352.63 			"/>
			<path class="st6" d="M1478.34,386.42l5.2,18.19c6.48-7.33,10.3,2.64,18.05-5.18l-4.56-17.47L1478.34,386.42z"/>
		</g>
		<g>
			<path class="st2" d="M1596.3,243.73l-16.17,62.55c38.7,20.66,108.16,64.39,108.16,64.39l69.74-91.57l-0.78-62.19l-102.32-62.32
				L1596.3,243.73z"/>
			<polygon class="st3" points="1654.93,154.59 1650.55,183.31 1646.08,212.62 1580.13,306.29 1596.3,243.73 1630.63,191.54 			"/>
			<path class="st4" d="M1654.93,154.59l27.51,16.75l17.97,10.95l56.85,34.62l0.29,22.92l0.48,39.27
				c-41.56-20.04-71.9-46.42-111.96-66.48l4.48-29.31L1654.93,154.59z"/>
			<path class="st4" d="M1684.5,357.22l-4.24-12.78c-0.21-0.63,0.38-1.24,1.02-1.05l11.45,3.44c0.55,0.17,0.77,0.84,0.42,1.29
				l-7.21,9.34C1685.53,357.98,1684.71,357.84,1684.5,357.22z"/>
			
				<ellipse transform="matrix(0.9921 -0.1254 0.1254 0.9921 -28.2151 215.3838)" class="st4" cx="1696.59" cy="331.79" rx="7.45" ry="8.03"/>
			<polygon class="st5" points="1620.29,207.27 1609.78,264.18 1622.68,245.86 1627.98,195.57 			"/>
			<path class="st6" d="M1609.78,264.18l18.58,11.9c0.01-11.41,11.05-5.64,11.79-18.46l-17.47-11.76L1609.78,264.18z"/>
		</g>
		<g>
			<path class="st2" d="M1540.74,23.83l-32.83,33.77c17.05,27.06,45.24,79.83,45.24,79.83l77.23-32.8l21.96-39.66l-42.29-76.41
				L1540.74,23.83z"/>
			<polygon class="st3" points="1610.05,-11.45 1596.91,5.15 1583.49,22.1 1507.91,57.6 1540.74,23.83 1581.33,3.17 			"/>
			<path class="st4" d="M1610.06-11.45l11.37,20.54l7.43,13.42l23.5,42.45l-8.09,14.61l-13.87,25.04
				c-19.08-27.7-28.77-55.36-46.89-82.53l13.42-16.94L1610.06-11.45z"/>
			<path class="st4" d="M1555.62,127.54l1.93-9.62c0.1-0.48,0.69-0.65,1.02-0.3l6.01,6.31c0.29,0.31,0.19,0.81-0.2,0.97l-7.94,3.31
				C1555.99,128.4,1555.52,128.01,1555.62,127.54z"/>
			
				<ellipse transform="matrix(0.3825 -0.924 0.924 0.3825 863.9907 1524.3831)" class="st4" cx="1572.45" cy="115.8" rx="5.85" ry="5.43"/>
			<polygon class="st5" points="1569.1,9.4 1541.89,41.64 1556.67,34.7 1578.2,4.77 			"/>
			<path class="st6" d="M1541.89,41.64l7.47,14.24c4.13-7.22,9.03,0.42,14.13-7.43l-6.82-13.75L1541.89,41.64z"/>
		</g>
		<g>
			<path class="st2" d="M1441.73-123.17l-57.77-11.7c-16.95,36.26-53.42,101.65-53.42,101.65l86.8,59.1l56.61-3.72l51.82-96.23
				L1441.73-123.17z"/>
			<polygon class="st3" points="1525.78,-74.08 1499.4,-76.68 1472.49,-79.33 1383.97,-134.87 1441.73,-123.17 1490.94,-94.43 			
				"/>
			<path class="st4" d="M1525.78-74.08l-13.93,25.87l-9.1,16.9l-28.79,53.47l-20.86,1.37l-35.75,2.34
				c16.24-38.83,38.8-67.74,55.14-105.21l26.92,2.66L1525.78-74.08z"/>
			<path class="st4" d="M1342.62-37.32l11.43-4.48c0.57-0.22,1.15,0.29,1.01,0.88l-2.58,10.6c-0.12,0.51-0.72,0.74-1.16,0.44
				l-8.86-6.11C1341.98-36.35,1342.06-37.11,1342.62-37.32z"/>
			
				<ellipse transform="matrix(0.984 -0.1779 0.1779 0.984 26.6964 242.6434)" class="st4" cx="1366.37" cy="-27.54" rx="7.33" ry="6.8"/>
			<polygon class="st5" points="1476.11,-103.09 1423.76,-109.9 1441.07,-99.04 1487.14,-96.64 			"/>
			<path class="st6" d="M1423.76-109.9l-9.94,17.5c10.39-0.54,5.67,9.79,17.39,9.85l9.87-16.48L1423.76-109.9z"/>
		</g>
		<g>
			<path class="st2" d="M1113.6-14.96l6.71,46.66c31.87,3.02,90.93,12.92,90.93,12.92l21.19-81.26l-18.02-41.65L1128-91.47
				L1113.6-14.96z"/>
			<polygon class="st3" points="1128,-91.46 1133.13,-70.9 1138.36,-49.91 1120.31,31.7 1113.6,-14.96 1122.03,-59.76 			"/>
			<path class="st4" d="M1128-91.47l23.23,3.54l15.18,2.31l48.01,7.32l6.64,15.35l11.37,26.3c-33.62-1.8-61.46-11.03-94.07-13.27
				l-5.23-20.99L1128-91.47z"/>
			<path class="st4" d="M1204.9,36.62l-6.45-7.41c-0.32-0.37-0.09-0.94,0.39-0.99l8.68-0.91c0.42-0.04,0.75,0.35,0.64,0.75
				l-2.23,8.32C1205.81,36.85,1205.22,36.99,1204.9,36.62z"/>
			
				<ellipse transform="matrix(0.8671 -0.4982 0.4982 0.8671 152.2846 602.9168)" class="st4" cx="1205.89" cy="16.11" rx="5.44" ry="5.86"/>
			<polygon class="st5" points="1119.49,-46.26 1128.43,-4.99 1131.96,-20.95 1121.38,-56.3 			"/>
			<path class="st6" d="M1128.43-4.99l15.85,2.78c-3.2-7.68,5.85-6.9,2.74-15.74l-15.07-3L1128.43-4.99z"/>
		</g>
		<g>
			<path class="st2" d="M1045.15,457.26l-41.32,55.35c29.94,36.11,80.97,107.5,80.97,107.5l106.08-62.39l24.4-61.85l-76.03-103.09
				L1045.15,457.26z"/>
			<polygon class="st3" points="1139.25,392.78 1123.29,419.43 1107,446.62 1003.83,512.61 1045.15,457.26 1100.24,419.5 			"/>
			<path class="st4" d="M1139.25,392.78l20.44,27.71l13.35,18.11l42.25,57.27l-8.99,22.79l-15.42,39.05
				c-33.01-36.65-52.36-75.04-83.88-111.11l16.29-27.19L1139.25,392.78z"/>
			<path class="st4" d="M1086.49,605.26l0.97-14.36c0.05-0.71,0.88-1.07,1.43-0.63l9.94,8.04c0.48,0.39,0.42,1.14-0.11,1.45
				l-10.91,6.33C1087.2,606.43,1086.45,605.96,1086.49,605.26z"/>
			
				<ellipse transform="matrix(0.2595 -0.9657 0.9657 0.2595 256.0471 1503.9268)" class="st4" cx="1108.75" cy="584.99" rx="8.58" ry="7.97"/>
			<polygon class="st5" points="1083.64,430.88 1050.2,482.95 1070.39,470.04 1096,422.42 			"/>
			<path class="st6" d="M1050.2,482.95l13.57,19.29c4.63-11.29,13.22-1.1,19.14-13.5l-12.53-18.71L1050.2,482.95z"/>
		</g>
		<g>
			<path class="st2" d="M1375.7,102.3l-14.06-53.72c-37.7,0.7-108.14-3.04-108.14-3.04l-14,97.93l26.62,46.35l102.9,3.93
				L1375.7,102.3z"/>
			<polygon class="st3" points="1369.02,193.75 1360.28,170.37 1351.37,146.5 1361.64,48.58 1375.7,102.3 1371.79,155.85 			"/>
			<path class="st4" d="M1369.02,193.76l-27.66-1.06l-18.07-0.69l-57.17-2.18l-9.81-17.08l-16.8-29.27
				c39.58-2.36,73.4,4.74,111.87,3.02l8.91,23.87L1369.02,193.76z"/>
			<path class="st4" d="M1261.98,54.05l8.53,7.81c0.42,0.39,0.23,1.09-0.33,1.21l-10.03,2.22c-0.49,0.11-0.93-0.31-0.85-0.8
				l1.5-10.03C1260.89,53.91,1261.56,53.67,1261.98,54.05z"/>
			
				<ellipse transform="matrix(0.8053 -0.5929 0.5929 0.8053 199.641 764.3286)" class="st4" cx="1263.55" cy="78.2" rx="6.4" ry="6.9"/>
			<polygon class="st5" points="1372.96,139.71 1357.02,92.59 1355.01,111.75 1372.09,151.72 			"/>
			<path class="st6" d="M1357.02,92.59l-18.93-1.15c4.77,8.57-5.93,8.86-1.12,18.79l18.04,1.51L1357.02,92.59z"/>
		</g>
		<g>
			<path class="st2" d="M255.62,436.66l-33.07,28.52c13.54,26.38,35.28,77.41,35.28,77.41l74-24.01l23.51-34.84l-32.84-74.02
				L255.62,436.66z"/>
			<polygon class="st3" points="322.51,409.73 309.02,423.99 295.25,438.54 222.55,465.18 255.62,436.66 294.78,420.89 			"/>
			<path class="st4" d="M322.51,409.73l8.83,19.9l5.77,13l18.25,41.12l-8.66,12.84l-14.85,22c-15.37-27.13-22.06-53.47-36.58-80.04
				l13.77-14.56L322.51,409.73z"/>
			<path class="st4" d="M260.91,533.66l2.56-8.73c0.13-0.43,0.69-0.54,0.97-0.19l5.04,6.32c0.24,0.31,0.11,0.76-0.27,0.88l-7.6,2.41
				C261.19,534.48,260.78,534.09,260.91,533.66z"/>
			
				<ellipse transform="matrix(0.4622 -0.8868 0.8868 0.4622 -315.645 527.9289)" class="st4" cx="277.42" cy="524.19" rx="5.43" ry="5.04"/>
			<polygon class="st5" points="282.98,425.64 255.23,453.21 269.45,448 291.76,422.11 			"/>
			<path class="st6" d="M255.23,453.21l5.74,13.76c4.4-6.33,8.31,1.12,13.66-5.71L269.45,448L255.23,453.21z"/>
		</g>
		<g>
			<path class="st2" d="M585.78,136.16l34.63,25.97c22.67-18.71,67.48-50.6,67.48-50.6l-38.95-66.57l-38.73-15.38L545.5,77.1
				L585.78,136.16z"/>
			<polygon class="st3" points="545.5,77.1 562.17,87.14 579.19,97.39 620.41,162.14 585.77,136.17 562.19,101.58 			"/>
			<path class="st4" d="M545.49,77.1l17.4-12.77l11.37-8.34l35.95-26.4l14.27,5.67l24.45,9.72c-23.02,20.64-47.1,32.71-69.75,52.41
				l-17.02-10.25L545.49,77.1z"/>
			<path class="st4" d="M678.59,110.46l-9-0.63c-0.45-0.03-0.67-0.55-0.39-0.9l5.05-6.22c0.24-0.3,0.71-0.26,0.91,0.07l3.95,6.85
				C679.33,110.01,679.03,110.49,678.59,110.46z"/>
			
				<ellipse transform="matrix(0.2617 -0.9652 0.9652 0.2617 398.546 713.9509)" class="st4" cx="665.92" cy="96.48" rx="4.99" ry="5.38"/>
			<polygon class="st5" points="569.3,112 601.88,133.03 593.82,120.36 564.01,104.25 			"/>
			<path class="st6" d="M601.88,133.03l12.11-8.48c-7.07-2.92-0.67-8.28-8.43-12.01l-11.74,7.83L601.88,133.03z"/>
		</g>
		<g>
			<path class="st2" d="M696.06,187.27l-26.19,32.88c17.52,22.54,47.2,66.94,47.2,66.94l65.72-35.92l16.03-37.16l-44.28-64.16
				L696.06,187.27z"/>
			<polygon class="st3" points="754.53,149.85 744.32,165.75 733.89,181.98 669.86,220.15 696.06,187.27 730.3,165.36 			"/>
			<path class="st4" d="M754.53,149.85l11.91,17.25l7.78,11.27l24.6,35.65l-5.9,13.69l-10.13,23.46
				c-19.38-22.93-30.42-46.65-48.9-69.19l10.43-16.23L754.53,149.85z"/>
			<path class="st4" d="M718.38,278.09l0.87-8.72c0.04-0.43,0.55-0.64,0.88-0.35l5.89,5.08c0.28,0.25,0.24,0.7-0.1,0.88l-6.76,3.64
				C718.79,278.82,718.34,278.52,718.38,278.09z"/>
			
				<ellipse transform="matrix(0.2897 -0.9571 0.9571 0.2897 265.3626 889.9617)" class="st4" cx="732.31" cy="266.19" rx="5.22" ry="4.85"/>
			<polygon class="st5" points="719.98,171.96 698.64,203 711.17,195.53 727.66,167.05 			"/>
			<path class="st6" d="M698.64,203l7.89,12c3.03-6.78,8.06-0.42,11.9-7.84l-7.26-11.62L698.64,203z"/>
		</g>
		<g>
			<path class="st2" d="M611.4,338.56l-40.48,31.32c14.21,31.72,36.48,92.8,36.48,92.8l88.1-23.49l29.69-39.31l-33.82-88.68
				L611.4,338.56z"/>
			<polygon class="st3" points="691.37,311.2 674.69,327.06 657.67,343.23 570.92,369.88 611.4,338.56 658.22,322.54 			"/>
			<path class="st4" d="M691.37,311.2l9.09,23.84l5.94,15.57l18.8,49.27l-10.94,14.49l-18.75,24.82
				c-16.3-32.72-22.49-63.95-37.84-95.96l17.02-16.18L691.37,311.2z"/>
			<path class="st4" d="M611.56,452.42l3.54-10.06c0.18-0.5,0.84-0.59,1.15-0.16l5.5,7.71c0.27,0.37,0.08,0.9-0.37,1.01l-9.05,2.35
				C611.83,453.4,611.38,452.91,611.56,452.42z"/>
			
				<ellipse transform="matrix(0.5086 -0.861 0.861 0.5086 -70.5873 761.0498)" class="st4" cx="631.46" cy="442.37" rx="6.36" ry="5.9"/>
			<polygon class="st5" points="644.11,327.37 609.91,357.91 626.88,352.69 654.61,323.78 			"/>
			<path class="st6" d="M609.91,357.91l5.86,16.46c5.54-7.14,9.65,1.83,16.34-5.84l-5.23-15.84L609.91,357.91z"/>
		</g>
		<g>
			<path class="st2" d="M553.71,475.08l-51.83-33.35c-30.29,28.89-90.66,78.73-90.66,78.73l62.1,90.55l56.56,17.88l87.04-74.06
				L553.71,475.08z"/>
			<polygon class="st3" points="616.93,554.83 592.23,542.28 567.02,529.47 501.88,441.73 553.71,475.08 590.73,521.78 			"/>
			<path class="st4" d="M616.94,554.84l-23.4,19.91l-15.29,13.01l-48.36,41.15l-20.84-6.59l-35.72-11.3
				c30.58-31.66,63.54-51.25,93.69-81.54l25.21,12.82L616.94,554.84z"/>
			<path class="st4" d="M424.55,521.05l12.84-0.02c0.64,0,1.01,0.72,0.65,1.24l-6.54,9.35c-0.32,0.45-0.99,0.45-1.3-0.01l-6.31-9.32
				C423.54,521.76,423.92,521.05,424.55,521.05z"/>
			
				<ellipse transform="matrix(0.1918 -0.9814 0.9814 0.1918 -170.7764 871.8256)" class="st4" cx="443.96" cy="539.6" rx="7.11" ry="7.66"/>
			<polygon class="st5" points="579.57,507.7 531.16,481.17 543.9,498.33 587.87,518.17 			"/>
			<path class="st6" d="M531.16,481.17l-16.33,13.28c10.33,3.42,1.8,11.69,13.2,16.2l15.87-12.31L531.16,481.17z"/>
		</g>
		<g>
			<path class="st2" d="M772.56,491.73l20.09,49.58c35.93-5.34,103.69-10.51,103.69-10.51l1.23-95.29l-31.18-40.98l-98.79,9
				L772.56,491.73z"/>
			<polygon class="st3" points="767.6,403.53 778.85,424.79 790.32,446.49 792.64,541.31 772.55,491.73 769.65,440.09 			"/>
			<path class="st4" d="M767.6,403.53l26.56-2.42l17.35-1.58l54.88-5l11.49,15.1l19.68,25.88c-37.52,7.16-70.71,4.58-107.24,10.98
				l-11.47-21.7L767.6,403.53z"/>
			<path class="st4" d="M887.17,523.72l-9.12-6.41c-0.45-0.32-0.36-1.01,0.16-1.2l9.31-3.36c0.45-0.16,0.92,0.18,0.91,0.66
				l-0.19,9.77C888.24,523.72,887.62,524.03,887.17,523.72z"/>
			
				<ellipse transform="matrix(0.7223 -0.6916 0.6916 0.7223 -101.2542 749.5276)" class="st4" cx="882.68" cy="500.84" rx="6.17" ry="6.65"/>
			<polygon class="st5" points="770.53,455.65 791.6,498.68 791.15,480.14 769.88,444.07 			"/>
			<path class="st6" d="M791.6,498.68l18.22-1.25c-5.62-7.59,4.57-9.2-1.26-18.09l-17.42,0.79L791.6,498.68z"/>
		</g>
		<g>
			<path class="st2" d="M995.36,209.83l-75.12-19.72c-25.01,46.43-77.89,129.73-77.89,129.73l109.76,84.25l74.76-0.65l75.38-122.72
				L995.36,209.83z"/>
			<polygon class="st3" points="1102.25,280.71 1067.75,275.32 1032.54,269.81 920.24,190.11 995.36,209.83 1057.95,251.33 			"/>
			<path class="st4" d="M1102.25,280.72l-20.26,32.99l-13.24,21.55l-41.88,68.19l-27.55,0.24l-47.21,0.4
				c24.28-49.87,56.13-86.22,80.43-134.28l35.21,5.51L1102.25,280.72z"/>
			<path class="st4" d="M858.54,315.34l15.38-5.04c0.76-0.25,1.49,0.46,1.26,1.23L871,325.28c-0.2,0.66-1.01,0.92-1.56,0.49
				l-11.2-8.71C857.62,316.58,857.79,315.59,858.54,315.34z"/>
			
				<ellipse transform="matrix(0.9926 -0.1217 0.1217 0.9926 -33.5448 110.6212)" class="st4" cx="889.05" cy="329.99" rx="9.65" ry="8.96"/>
			<polygon class="st5" points="1039.09,238.83 970.72,225.94 992.69,241.53 1053.12,248.14 			"/>
			<path class="st6" d="M970.72,225.94l-14.38,22.28c13.71,0.06,6.72,13.31,22.14,14.26l14.21-20.95L970.72,225.94z"/>
		</g>
		<g>
			<path class="st2" d="M1027.47,24.53L977.85,4.62c-21.06,29.57-64.32,81.94-64.32,81.94l67.76,66.95l51.12,5.96l62.01-77.37
				L1027.47,24.53z"/>
			<polygon class="st3" points="1094.42,82.1 1071.31,75.46 1047.73,68.68 977.85,4.62 1027.48,24.53 1066.67,58.24 			"/>
			<path class="st4" d="M1094.42,82.11l-16.67,20.8l-10.89,13.59l-34.45,42.99l-18.84-2.2l-32.28-3.77
				c20.86-31.98,45.73-54.08,66.44-84.83l23.58,6.78L1094.42,82.11z"/>
			<path class="st4" d="M924.98,84.88l10.94-2.13c0.54-0.11,0.98,0.44,0.75,0.95l-4.04,9.03c-0.2,0.44-0.77,0.54-1.11,0.2l-6.9-6.91
				C924.24,85.64,924.44,84.98,924.98,84.88z"/>
			
				<ellipse transform="matrix(2.812325e-03 -1 1 2.812325e-03 844.4069 1041.7817)" class="st4" cx="944.56" cy="97.5" rx="6.17" ry="6.65"/>
			<polygon class="st5" points="1054.86,48.08 1009.26,33.42 1022.93,45.95 1063.64,55.64 			"/>
			<path class="st6" d="M1009.26,33.42l-11.73,13.99c9.36,1.22,3.45,9.67,13.9,11.63l11.5-13.09L1009.26,33.42z"/>
		</g>
	</g>
</g>
</svg>
