<?xml version="1.0" encoding="utf-8"?>
<!-- Generator: Adobe Illustrator 27.1.1, SVG Export Plug-In . SVG Version: 6.00 Build 0)  -->
<svg version="1.1" id="Layer_1" xmlns="http://www.w3.org/2000/svg" xmlns:xlink="http://www.w3.org/1999/xlink" x="0px" y="0px"
	 viewBox="0 0 1600 500" style="enable-background:new 0 0 1600 500;" xml:space="preserve">
<style type="text/css">
	.st0{fill-rule:evenodd;clip-rule:evenodd;fill:#7F4AC4;}
	.st1{fill:#5D3297;}
	.st2{fill:none;stroke:#BC83FB;stroke-width:3.5;stroke-linecap:round;stroke-miterlimit:10;}
	.st3{fill:#FFFFFF;}
	.st4{fill-rule:evenodd;clip-rule:evenodd;fill:#BC83FB;}
	.st5{fill-rule:evenodd;clip-rule:evenodd;fill:#5A007E;}
	.st6{fill-rule:evenodd;clip-rule:evenodd;fill:#D8B6FF;}
	.st7{fill:none;stroke:#FF705E;stroke-width:4;stroke-miterlimit:10;}
	.st8{fill:#FF705E;}
	.st9{fill:#7F4AC4;}
	.st10{fill:none;stroke:#FFFFFF;stroke-width:4;stroke-miterlimit:10;}
	.st11{font-family:'Montserrat-Bold';}
	.st12{font-size:26.2004px;}
</style>
<g>
	<g>
		<path class="st0" d="M1600,24.8v428.5c0,8.3-4.1,15.7-10.3,20.2c-2.4,1.7-5.8,0.9-6.9-1.9c-3.9-9.7-16.4-16.8-31.2-16.8
			c-9.5,0-18,2.9-23.9,7.6c-1.9,1.5-4.6,1.3-6.2-0.6c-7.7-8.7-21.2-14.5-36.7-14.5c-13.9,0-26.4,4.7-34.3,12
			c-1.8,1.7-4.7,1.5-6.4-0.3c-9.3-10.1-25.8-16.8-44.6-16.8c-27.1,0-49.3,13.9-52.4,31.7c-0.4,2.4-2.5,4.1-4.9,4.1l-1317.2,0
			C11.1,478.2,0,467.1,0,453.4V24.8C0,11.1,11.1,0,24.8,0h1550.3C1588.9,0,1600,11.1,1600,24.8z"/>
	</g>
	<g>
		<ellipse class="st0" cx="1399.5" cy="479.2" rx="33.9" ry="20.8"/>
		<ellipse class="st0" cx="1483.8" cy="478.7" rx="27.9" ry="17.2"/>
		<ellipse class="st0" cx="1552.4" cy="479" rx="18.6" ry="11.5"/>
	</g>
</g>
<g>
	
		<ellipse transform="matrix(0.7391 -0.6736 0.6736 0.7391 154.1076 874.4427)" class="st1" cx="1206" cy="238.3" rx="89.4" ry="82.6"/>
	
		<ellipse transform="matrix(0.7391 -0.6736 0.6736 0.7391 207.0553 1011.1565)" class="st1" cx="1409" cy="238.3" rx="52.5" ry="48.5"/>
	
		<ellipse transform="matrix(0.7391 -0.6736 0.6736 0.7391 239.6012 1095.1918)" class="st1" cx="1533.7" cy="238.3" rx="27.2" ry="25.2"/>
</g>
<g>
	
		<ellipse transform="matrix(0.6736 -0.7391 0.7391 0.6736 -46.1487 372.0398)" class="st1" cx="398.1" cy="238.3" rx="82.6" ry="89.4"/>
	
		<ellipse transform="matrix(0.6736 -0.7391 0.7391 0.6736 -112.4098 222.0126)" class="st1" cx="195.1" cy="238.3" rx="48.5" ry="52.5"/>
	
		<ellipse transform="matrix(0.6736 -0.7391 0.7391 0.6736 -153.1393 129.7939)" class="st1" cx="70.4" cy="238.3" rx="25.2" ry="27.2"/>
</g>
<g>
	<g>
		<g>
			<line class="st2" x1="936.9" y1="219.2" x2="937.4" y2="253.1"/>
			<g>
				<path class="st2" d="M910.2,219.8l38.1-0.4c0.1,0,18.4-3.7,35.1-12.5c10.1-5.3,16.1-14.4,36.6-20.1"/>
				<path class="st2" d="M907.9,253.4c0.6,0.4,2.1,0.4,2.8,0.5c16.6,2.5,20-0.3,34.8-0.8c7.5-0.3,13.2,8.1,24.5,13.3
					c13.1,6,26.8,2.6,51.4,16.5"/>
				<path class="st2" d="M910.3,236.6c12.3,2.3,32.5-2,59.8-0.6"/>
				<path class="st2" d="M1023.1,186.2c-0.3,0.3-14.5,13.8-22.3,29.8"/>
				<path class="st2" d="M1005.1,226.2c0-0.3,6.9-2.1,13.1-8.3c7.4-7.3,12.3-4.4,19.8-8.4"/>
				<path class="st2" d="M1047.6,235.3c-2.5,0.5-23.4,1.6-30,1.1c-2.5-0.2-8.1-0.7-10.5-1.2"/>
				<path class="st2" d="M1035.7,261.4c-0.6-0.7-1.5-1.2-2.2-1.7c-17.1-13-20.6-13.3-28.1-14.6"/>
				<path class="st2" d="M1024.4,283.5c-3.2-3.1-14.7-16.2-25.2-31"/>
				
					<ellipse transform="matrix(5.109599e-03 -1 1 5.109599e-03 712.6584 1155.2977)" class="st3" cx="936.9" cy="219.5" rx="5.7" ry="12.8"/>
				
					<ellipse transform="matrix(5.109599e-03 -1 1 5.109599e-03 696.0412 1172.3512)" class="st3" cx="937.2" cy="236.4" rx="5.7" ry="12.8"/>
				
					<ellipse transform="matrix(5.109599e-03 -1 1 5.109599e-03 679.424 1189.4047)" class="st3" cx="937.5" cy="253.3" rx="5.7" ry="12.8"/>
				
					<ellipse transform="matrix(0.6993 -0.7148 0.7148 0.6993 162.3684 805.0292)" class="st3" cx="1038" cy="209.5" rx="6.6" ry="5.5"/>
				
					<ellipse transform="matrix(0.6993 -0.7148 0.7148 0.6993 146.8602 819.4752)" class="st3" cx="1047.5" cy="235.2" rx="6.6" ry="5.5"/>
				
					<ellipse transform="matrix(0.6993 -0.7148 0.7148 0.6993 124.6386 818.943)" class="st3" cx="1035.7" cy="261.3" rx="6.6" ry="5.5"/>
				
					<ellipse transform="matrix(0.6993 -0.7148 0.7148 0.6993 105.2172 817.1815)" class="st3" cx="1023.9" cy="283.5" rx="6.6" ry="5.5"/>
				
					<ellipse transform="matrix(0.6993 -0.7148 0.7148 0.6993 174.5835 787.3375)" class="st3" cx="1023.1" cy="186.2" rx="6.6" ry="5.5"/>
			</g>
		</g>
		<g id="ink-_just-squid_00000016033141442261668570000003908256290421084831_">
			<g id="head_00000111912729246175964570000010146543684054829186_">
				<g>
					<path class="st4" d="M960.9,192.8c0,0-0.7-3.2-1.5-7c-1.4-6.3,1.5-12.8,7.1-16c3.7-2.1,7.6-5.4,10.5-10.4"/>
					<path d="M959.2,193.2l-1.5-7c-0.8-3.5-0.4-7,1-10.3c1.4-3.2,3.8-5.9,6.9-7.6c4.2-2.4,7.5-5.7,9.8-9.8c0.5-0.8,1.5-1.1,2.4-0.7
						c0.8,0.5,1.1,1.5,0.7,2.4c-2.6,4.7-6.4,8.4-11.1,11.1c-5,2.8-7.5,8.5-6.3,14.1l1.5,7L959.2,193.2z"/>
				</g>
				<g>
					<path class="st4" d="M1004.6,192.8c0,0,0.4-2,1-4.5c1.2-5.3-1.3-10.7-6.1-13.2c-4.8-2.5-9.9-7.2-10.4-15.8l-0.1,28.9
						L1004.6,192.8z"/>
					<path d="M1004.6,194.6c-0.2,0-0.3,0-0.5-0.1l-15.6-4.5c-0.8-0.2-1.3-0.9-1.3-1.7l0.1-28.9c0-1,0.8-1.7,1.7-1.8
						c0.9,0,1.7,0.7,1.8,1.7c0.3,6.4,3.5,11.2,9.4,14.3c5.5,2.9,8.4,9.1,7,15.1l-1,4.5c-0.1,0.5-0.4,0.9-0.8,1.1
						C1005.2,194.5,1004.9,194.6,1004.6,194.6z M990.8,187l12.5,3.6l0.6-2.6c1-4.5-1.1-9.1-5.2-11.2c-2.7-1.4-5.6-3.5-7.8-6.7
						L990.8,187z"/>
				</g>
				<g>
					<path class="st4" d="M979.9,153.8c0,0,0.7-3.3,4.5-3.4c2.1,0,3.9,1.4,4.5,3.4c0,0,1.7,12.3,2.6,18.9c0.3,2.4,1.4,4.7,3.1,6.4
						c5.9,6.2,19,23,6.1,38.7c0,0-1-13.3-17-13.3c-2.8,0,2.3,0-0.5,0c-16,0-18.1,13.3-18.1,13.3C948.7,198.1,975,165.1,979.9,153.8
						L979.9,153.8z"/>
					<path d="M964.9,220c-0.6,0-1.3-0.3-1.7-0.8c-13.9-17,1-42.3,9.9-57.5c2-3.5,3.8-6.5,4.8-8.6c0.5-1.8,2.4-4.8,6.5-4.8
						c0,0,0,0,0,0c3,0,5.7,2,6.5,4.9l0,0c0.1,0.2,0.1,0.4,0.1,0.6l2.5,18.5c0.3,2,1.1,3.8,2.5,5.2c2.8,3,8,9.1,10.6,16.6
						c1.4,4.2,1.9,8.2,1.4,12.1c-0.6,4.6-2.5,8.9-5.8,12.9c-0.6,0.7-1.5,1-2.3,0.7c-0.8-0.3-1.4-1-1.5-1.9c0,0-0.3-2.9-2.2-5.7
						c-2.6-3.7-6.8-5.6-12.6-5.6H983c-13.9,0-15.9,11-16,11.5c-0.1,0.8-0.7,1.5-1.6,1.7C965.2,219.9,965.1,220,964.9,220z
						 M982,154.3c0,0.1-0.1,0.3-0.1,0.4c-1,2.4-2.9,5.6-5.1,9.3c-4.2,7.2-10,17-12.9,26.7c-2.8,9.2-2.7,16.5,0.4,22.4
						c0.5-1,1.1-2.1,1.9-3.1c2.6-3.4,7.5-7.4,16.3-7.5c0,0,0.1,0,0.1,0h1.2c0,0,0.1,0,0.1,0c5,0.1,11.7,1.5,15.9,7.6
						c0.6,1,1.2,1.9,1.5,2.8c2.9-5.2,3.2-11,1.1-17.2c-2.3-6.7-7-12.3-9.6-15c-2-2.1-3.3-4.8-3.7-7.6l-0.7-5.4
						c-0.8-5.7-1.6-12.1-1.8-13.3c-0.3-1-1.3-1.7-2.3-1.7c0,0,0,0,0,0C982.6,152.6,982.1,153.9,982,154.3z M979.9,153.8L979.9,153.8
						L979.9,153.8z"/>
				</g>
			</g>
			<g id="body_bg_00000056394653594835098980000007410764842498007464_">
				<path class="st4" d="M999.2,223c5.4,2.3,7.3,9,5.8,14.6c0,0,0,0,0,0c-6.9,35.5-24.7,66.8-32,69.2c0,0,1.3-8.7,2-13.1
					c0.3-1.9,0.2-3.9-0.3-5.7c-1.9-7.3-6.4-13.5-8.3-20.5c-2.7-10.6-3.5-22.1-7-35c-1.1-3.8,0.7-7.8,4.2-9.7c0,0,0,0,0,0
					c5-1,0.7-6.5,0.5-10.6c3.8-11.5,6.9-15.5,17.1-15.6c11-1,17.2,7.6,20.1,15.4C1000.4,222,998.7,221.1,999.2,223L999.2,223z"/>
			</g>
			<g id="flippers_00000110434658704762414990000016672627769083042461_">
				<g>
					<path class="st5" d="M1001.1,253.9c-10.1,40.4-4.7,44.3-4.7,44.3l-7.3-6.8"/>
					<path d="M996.4,300.3c-0.4,0-0.9-0.1-1.3-0.4c-0.1-0.1-0.2-0.2-0.4-0.3l-7.2-6.7c-0.9-0.8-0.9-2.2-0.1-3.1
						c0.8-0.9,2.2-0.9,3.1-0.1l2.2,2.1c-0.2-6.5,1.1-18.1,6.2-38.4c0.3-1.2,1.5-1.9,2.6-1.6c1.2,0.3,1.9,1.5,1.6,2.6
						c-3.7,14.9-5.8,26.5-6,34.4c-0.2,5.8,0.7,7.6,0.8,7.9c0.8,0.8,0.8,2,0.1,2.9C997.7,300.1,997,300.3,996.4,300.3z M998,296.7
						L998,296.7L998,296.7z"/>
				</g>
				<g>
					<path class="st5" d="M965.7,264.1c0.6,17.5,4,27.5-2.1,30.6c0,0,6.4-0.2,9.7-5.5"/>
					<path d="M963.6,296.9c-1,0-1.9-0.7-2.1-1.6c-0.2-1,0.2-2,1.1-2.5c3-1.5,2.7-6.1,1.8-15.6c-0.3-3.8-0.7-8.1-0.9-13
						c0-1.2,0.9-2.2,2.1-2.2c1.2,0,2.2,0.9,2.2,2.1c0.2,4.8,0.6,9,0.9,12.8c0.5,5,0.8,8.9,0.5,12c-0.1,0.6-0.1,1.2-0.3,1.8
						c0.9-0.6,1.8-1.5,2.5-2.6c0.6-1,2-1.3,3-0.7c1,0.6,1.3,2,0.7,3C971.3,296.6,964,296.8,963.6,296.9
						C963.7,296.9,963.6,296.9,963.6,296.9z"/>
				</g>
			</g>
			<g id="light_00000124884200163809302660000011909204401818624696_">
				<g>
					<path class="st6" d="M996.5,224.8l4.8,2.9c1.4,0.9,2.1,2.5,1.7,4.1c-2.1,9.1-9.2,38.4-13.8,46.8l-0.1,0.5l-0.5,1.7
						c-0.4,1.9-0.8,4.1-0.8,3l0.8-3c0.2-1,0.4-1.9,0.5-2.1l0.1-0.2c6.1-22.6,11.2-39.5-0.7-48.8
						C992.7,229.1,995.4,227.5,996.5,224.8L996.5,224.8z"/>
				</g>
				<g>
					<path class="st5" d="M982.3,155.6c0.1-1.8-3,6.4-3.2,7c-5.5,17.3-20.2,27.6-14.1,48c0.1,0.2,0.6-1,1.8-3.1
						c3.3-5.9,12.2-7.5,12.2-7.5C962,186.7,981.7,169,982.3,155.6z"/>
				</g>
				<g>
					<path class="st6" d="M985.6,156.6c0.4-1.7,1.2,3.7,1.1,4.3c-3.2,16.8,22.4,31.3,13.6,50.7c0,0.1-0.7-2.9-2.4-5.2
						c-1.8-2.4-4.7-4-4.7-4C1002.5,191.8,980,179.1,985.6,156.6L985.6,156.6z"/>
				</g>
				<g>
					<path class="st5" d="M974.7,229.3c-11.4,9.4,1.6,49.3,2.9,65.5c0,0.2,0,0.4-0.1,0.5c-0.3,1.8-0.3-3-0.3-3.7
						c-0.7-5.5-3.6-13.7-6.8-20.5c-3.3-7-3.9-18-4.6-25.5c-1.3-12.2-5.5-15.4,2.5-21.5c0,0,0.2,0.1,0.6,0.3
						C969.8,226.7,971.7,228.3,974.7,229.3L974.7,229.3z"/>
				</g>
				<g>
					<path class="st6" d="M975.3,229.5l0.3,0.1c-2.5,3.6-5.6,16.1,0.2,50.5c-1.4-8.4-9.1-40.2-0.6-50.6L975.3,229.5z"/>
				</g>
				<g>
					<path class="st5" d="M976.1,229.6c1.8,0.4,3.9,0.6,6.3,0.6c-6.6,3.2-10.1,7.8-3.9,39.6c1.8,9.3-1,18.3-1,25
						c0,0.2,0,0.4-0.1,0.5c-0.3,1.8-0.3-3-0.3-3.7C975.1,266.5,971.6,244.3,976.1,229.6L976.1,229.6z"/>
				</g>
			</g>
			<g id="body_line_00000149375240722015522100000012856818309280580765_">
				<path d="M973.1,309c-0.5,0-1-0.2-1.4-0.5c-0.6-0.5-0.9-1.2-0.7-2l2-13.1c0.2-1.6,0.2-3.3-0.3-4.9c-0.9-3.5-2.5-6.8-4-10
					c-1.6-3.3-3.3-6.8-4.2-10.5c-1.3-4.9-2.1-9.9-3-15.2c-1-5.8-2-11.8-3.6-18.1c-1.5-5.7,1.3-11.6,6.7-14.1c0,0,0.1,0,0.1-0.1
					c1.1-0.5,2.4,0,2.8,1.1c0.5,1.1,0,2.4-1.1,2.9c-3.5,1.6-5.4,5.4-4.4,9.1c1.7,6.5,2.7,12.6,3.7,18.5c0.9,5.2,1.7,10.1,2.9,14.8
					c0.9,3.3,2.3,6.4,3.9,9.7c1.6,3.4,3.3,6.9,4.3,10.8c0.6,2.2,0.7,4.4,0.3,6.6l-1.1,7.6c2.8-3.2,6.7-9,11.2-18
					c4.1-8.2,11.5-25.2,15.7-46.4c0,0,0-0.1,0-0.1h0c1.5-5.9-1.2-10.6-4.6-12c-1.1-0.5-1.6-1.7-1.1-2.8c0.5-1.1,1.7-1.6,2.8-1.1
					c3.1,1.3,5.4,3.9,6.7,7.3c1.1,3,1.2,6.5,0.4,9.7c-3.1,16.1-8.8,32.9-16,47.5c-3.1,6.2-6.3,11.6-9.2,15.7
					c-3.2,4.4-5.8,6.9-8.1,7.6C973.5,308.9,973.3,309,973.1,309z M1005,237.6L1005,237.6L1005,237.6z"/>
			</g>
			<g id="tenticles_00000085228229983806445950000009956507339093828790_">
				<g>
					<path class="st6" d="M985.3,282.9c-0.7,2.6,0.4,5.2,2.4,5.7c2,0.6,4.1-1.1,4.8-3.8c0.7-2.6-0.4-5.2-2.4-5.7
						C988.1,278.6,985.9,280.3,985.3,282.9L985.3,282.9z"/>
					<path d="M988.5,290.9c-0.5,0-0.9-0.1-1.3-0.2c-3.2-0.9-4.9-4.5-3.9-8.4c0,0,0,0,0,0c0.5-2.1,1.7-3.8,3.4-4.7
						c1.3-0.8,2.7-1,4.1-0.6c3.2,0.9,4.9,4.5,3.9,8.4c-0.5,2.1-1.7,3.8-3.4,4.7C990.3,290.7,989.4,290.9,988.5,290.9z M987.4,283.4
						L987.4,283.4c-0.4,1.5,0.2,2.9,0.9,3.1c0.2,0.1,0.5,0,0.8-0.2c0.6-0.4,1.1-1.1,1.4-2c0.4-1.5-0.2-2.9-0.9-3.1
						c-0.2-0.1-0.5,0-0.8,0.2C988.1,281.7,987.6,282.5,987.4,283.4z"/>
				</g>
				<g>
					<path class="st6" d="M989.3,270.3c-0.9,3.3,0.4,6.6,2.9,7.4c2.5,0.8,5.3-1.3,6.2-4.6c0.9-3.3-0.4-6.6-2.9-7.4
						C992.9,265,990.2,267,989.3,270.3z"/>
					<path d="M993.2,280c-0.6,0-1.1-0.1-1.7-0.2c-1.8-0.6-3.3-2-4.1-4c-0.7-1.8-0.8-4-0.2-6c0.7-2.4,2.2-4.5,4.1-5.5
						c1.5-0.8,3.2-1,4.8-0.6c1.8,0.6,3.3,2,4.1,4c0.7,1.8,0.8,4,0.2,6c-0.7,2.4-2.2,4.5-4.1,5.5C995.3,279.7,994.3,280,993.2,280z
						 M994.4,267.7c-0.3,0-0.6,0.1-1,0.3c-0.9,0.5-1.7,1.6-2.1,2.9c-0.6,2.3,0.2,4.4,1.4,4.7c0.4,0.1,0.9,0.1,1.4-0.2
						c0.9-0.5,1.7-1.6,2.1-2.9c0.6-2.3-0.2-4.4-1.4-4.7C994.7,267.8,994.5,267.7,994.4,267.7z"/>
				</g>
				<g>
					<path class="st6" d="M982,291.9c-1.2,2-0.9,4.4,0.6,5.3c1.6,0.9,3.8,0,5.1-2c1.2-2,0.9-4.4-0.6-5.3
						C985.5,289,983.2,289.9,982,291.9z"/>
					<path d="M984,299.8c-0.9,0-1.7-0.2-2.5-0.7c-1.1-0.7-1.9-1.8-2.3-3.1c-0.4-1.7-0.1-3.6,0.9-5.2l0,0c1.9-3.1,5.4-4.3,8-2.8
						c1.1,0.7,1.9,1.8,2.3,3.1c0.4,1.7,0.1,3.6-0.9,5.2C988.2,298.5,986.1,299.8,984,299.8z M983.9,293L983.9,293
						c-0.5,0.8-0.5,1.5-0.4,1.9c0,0.1,0.1,0.3,0.3,0.4c0.4,0.2,1.4-0.2,2.1-1.3c0.5-0.8,0.5-1.5,0.4-1.9c0-0.1-0.1-0.3-0.3-0.4
						C985.6,291.5,984.5,291.9,983.9,293z"/>
				</g>
				<g>
					<path class="st6" d="M976.8,299.3c-1.6,1.4-1.9,3.5-0.8,4.6c1.1,1.1,3.3,0.8,4.9-0.6c1.6-1.4,1.9-3.5,0.8-4.6
						S978.3,297.9,976.8,299.3z"/>
					<path d="M977.8,306.8c-1.3,0-2.5-0.4-3.3-1.3c-0.9-0.8-1.3-2-1.3-3.3c0-1.6,0.8-3.2,2.1-4.4l0,0c2.4-2.2,5.9-2.5,7.8-0.6
						c0.9,0.8,1.3,2,1.3,3.3c0,1.6-0.8,3.2-2.1,4.4C981,306.1,979.4,306.8,977.8,306.8z M979.9,300.2c-0.4,0-1,0.2-1.6,0.7h0
						c-0.7,0.7-0.8,1.3-0.7,1.4c0.1,0.1,1.1,0.1,1.9-0.7c0.7-0.7,0.8-1.3,0.7-1.4C980.1,300.3,980,300.2,979.9,300.2z M976.8,299.3
						L976.8,299.3L976.8,299.3z"/>
				</g>
			</g>
			<g id="face_00000060026962379518469660000008095194482811184046_">
				<g>
					<path d="M983.4,221.4C983.4,221.4,983.4,221.4,983.4,221.4c-1.2,0-2.2-0.7-2.6-1.8c0-0.1,0-0.2,0-0.3c0-0.4,0.4-0.8,0.8-0.8
						c0.3,0,0.6,0.2,0.7,0.5c0.2,0.5,0.6,0.8,1.1,0.8c0,0,0,0,0,0c0.5,0,1-0.3,1.1-0.8l0,0c0.2-0.4,0.6-0.6,1-0.5
						c0.4,0.1,0.6,0.6,0.5,1l0,0C985.6,220.7,984.6,221.4,983.4,221.4z M982.3,219.3L982.3,219.3L982.3,219.3z"/>
				</g>
				<g>
					<path d="M995.3,216.5c-0.4,0-0.8-0.2-1.1-0.5l-0.2-0.2c-1-1.2-2.7-1.5-4-0.6l-0.5,0.3c-0.6,0.4-1.5,0.3-1.9-0.3
						c-0.4-0.6-0.3-1.5,0.3-1.9l0.5-0.3c2.4-1.7,5.8-1.2,7.7,1.1l0.2,0.2c0.5,0.6,0.4,1.4-0.2,1.9
						C995.9,216.4,995.6,216.5,995.3,216.5z"/>
				</g>
				<g>
					<path d="M971.2,216.6c-0.3,0-0.7-0.1-1-0.4c-0.5-0.5-0.5-1.4,0-1.9l0.7-0.7c1.8-1.8,4.4-2.2,6.6-1l1.3,0.7
						c0.7,0.3,0.9,1.2,0.6,1.8c-0.3,0.7-1.2,0.9-1.8,0.6l-1.3-0.7c-1.2-0.6-2.6-0.4-3.5,0.5l-0.7,0.7
						C971.9,216.5,971.6,216.6,971.2,216.6z"/>
				</g>
			</g>
		</g>
	</g>
	<line class="st7" x1="751.3" y1="116.5" x2="723.2" y2="133.2"/>
	<line class="st7" x1="669.7" y1="223.1" x2="669.7" y2="255.6"/>
	<line class="st7" x1="716" y1="346" x2="743.7" y2="362.8"/>
	<line class="st7" x1="882.7" y1="342.1" x2="855.7" y2="358.6"/>
	
		<ellipse transform="matrix(0.7391 -0.6736 0.6736 0.7391 48.7435 602.3887)" class="st8" cx="802.1" cy="238.3" rx="113.3" ry="104.7"/>
	<line class="st7" x1="862.7" y1="115.4" x2="890.1" y2="132.7"/>
	
		<ellipse transform="matrix(0.7391 -0.6736 0.6736 0.7391 48.7435 602.3887)" class="st9" cx="802.1" cy="238.3" rx="66.1" ry="61.1"/>
	<g>
		<g>
			
				<ellipse transform="matrix(0.7239 -0.6899 0.6899 0.7239 122.1273 631.2571)" class="st10" cx="849.8" cy="163" rx="10" ry="8.3"/>
			
				<ellipse transform="matrix(0.9661 -0.2582 0.2582 0.9661 -16.7765 202.0378)" class="st10" cx="760.9" cy="164.9" rx="8.3" ry="10"/>
			
				<ellipse transform="matrix(0.2594 -0.9658 0.9658 0.2594 299.0134 867.756)" class="st10" cx="715.3" cy="238.9" rx="8.2" ry="10"/>
			
				<ellipse transform="matrix(0.7239 -0.6899 0.6899 0.7239 -8.9602 606.1861)" class="st10" cx="752.9" cy="314.3" rx="10" ry="8.3"/>
			
				<ellipse transform="matrix(0.9661 -0.2582 0.2582 0.9661 -51.8014 228.764)" class="st10" cx="845.2" cy="311.6" rx="8.3" ry="10"/>
			
				<ellipse transform="matrix(0.2594 -0.9658 0.9658 0.2594 428.7552 1034.3702)" class="st10" cx="888.8" cy="237.6" rx="8.2" ry="10"/>
		</g>
	</g>
	<g>
		<g>
			<polyline class="st7" points="695.3,223.4 658.7,223.4 589.3,194.3 			"/>
			<polyline class="st7" points="697.9,255.4 658.7,255.4 589.3,284.5 			"/>
			<line class="st7" x1="695.3" y1="239.4" x2="637.9" y2="239.4"/>
			<line class="st7" x1="586.3" y1="192.5" x2="608.2" y2="220.7"/>
			<line class="st7" x1="600" y1="229.9" x2="572.3" y2="214.9"/>
			<line class="st7" x1="563.6" y1="239.5" x2="599.4" y2="239"/>
			<line class="st7" x1="575.4" y1="264.3" x2="603.4" y2="248.6"/>
			<line class="st7" x1="586.5" y1="285.2" x2="610.3" y2="255.4"/>
			
				<ellipse transform="matrix(0.6899 -0.7239 0.7239 0.6899 18.86 522.8835)" class="st8" cx="619.7" cy="239.4" rx="18.4" ry="22.3"/>
			
				<ellipse transform="matrix(0.6899 -0.7239 0.7239 0.6899 21.9215 480.999)" class="st3" cx="572.3" cy="214.9" rx="5.2" ry="6.3"/>
			
				<ellipse transform="matrix(0.6899 -0.7239 0.7239 0.6899 1.4885 482.3342)" class="st3" cx="563.7" cy="239.4" rx="5.2" ry="6.3"/>
			
				<ellipse transform="matrix(0.6899 -0.7239 0.7239 0.6899 -12.8321 498.4628)" class="st3" cx="575.3" cy="264.2" rx="5.2" ry="6.3"/>
			
				<ellipse transform="matrix(0.6899 -0.7239 0.7239 0.6899 -24.4349 513.4269)" class="st3" cx="587" cy="285.2" rx="5.2" ry="6.3"/>
			
				<ellipse transform="matrix(0.6899 -0.7239 0.7239 0.6899 42.4634 484.1742)" class="st3" cx="586.3" cy="192.5" rx="5.2" ry="6.3"/>
			
				<ellipse transform="matrix(0.9999 -1.374687e-02 1.374687e-02 0.9999 -3.0082 9.2254)" class="st3" cx="669.6" cy="223.4" rx="12.3" ry="5.4"/>
			
				<ellipse transform="matrix(0.9999 -1.374687e-02 1.374687e-02 0.9999 -3.2291 9.2269)" class="st3" cx="669.6" cy="239.5" rx="12.3" ry="5.4"/>
			
				<ellipse transform="matrix(0.9999 -1.374687e-02 1.374687e-02 0.9999 -3.45 9.2284)" class="st3" cx="669.6" cy="255.6" rx="12.3" ry="5.4"/>
		</g>
	</g>
	<g>
		<g>
			
				<ellipse transform="matrix(0.9761 -0.2174 0.2174 0.9761 3.7363 198.3249)" class="st8" cx="903.2" cy="82.2" rx="18.5" ry="22.3"/>
			<polyline class="st7" points="849.2,137.1 868.8,106.4 881.1,32.6 			"/>
			<polyline class="st7" points="875,156.4 896,123.5 957.8,80.8 			"/>
			<line class="st7" x1="862.8" y1="145.7" x2="893.5" y2="97.5"/>
			<line class="st7" x1="881.2" y1="29.1" x2="893.5" y2="62.5"/>
			<line class="st7" x1="905.6" y1="60.6" x2="907.7" y2="29.3"/>
			<line class="st7" x1="933.3" y1="35.1" x2="913.7" y2="64.9"/>
			<line class="st7" x1="948.1" y1="58.2" x2="919.7" y2="73.4"/>
			<line class="st7" x1="959.9" y1="78.8" x2="921.9" y2="82.8"/>
			<ellipse transform="matrix(0.55 -0.8352 0.8352 0.55 291.8827 772.696)" class="st3" cx="863" cy="115.5" rx="12.2" ry="5.4"/>
			<ellipse transform="matrix(0.55 -0.8352 0.8352 0.55 290.8499 787.972)" class="st3" cx="876.6" cy="124.1" rx="12.2" ry="5.4"/>
			<ellipse transform="matrix(0.55 -0.8352 0.8352 0.55 289.8171 803.248)" class="st3" cx="890.3" cy="132.7" rx="12.2" ry="5.4"/>
			
				<ellipse transform="matrix(0.9761 -0.2174 0.2174 0.9761 15.341 198.0369)" class="st3" cx="907.7" cy="29.3" rx="5.2" ry="6.3"/>
			
				<ellipse transform="matrix(0.9761 -0.2174 0.2174 0.9761 14.6801 203.7133)" class="st3" cx="933.2" cy="35.1" rx="5.2" ry="6.3"/>
			<ellipse transform="matrix(0.9761 -0.2174 0.2174 0.9761 10.0234 207.4867)" class="st3" cx="948" cy="58.2" rx="5.2" ry="6.3"/>
			<ellipse transform="matrix(0.9761 -0.2174 0.2174 0.9761 5.727 210.5183)" class="st3" cx="959.6" cy="79.2" rx="5.2" ry="6.3"/>
			
				<ellipse transform="matrix(0.9761 -0.2174 0.2174 0.9761 14.7585 192.2693)" class="st3" cx="881.2" cy="29.1" rx="5.2" ry="6.3"/>
		</g>
		<g>
			<polyline class="st7" points="730.1,324.5 710.5,355.2 648.7,397.8 			"/>
			<polyline class="st7" points="758.7,339.3 737.7,372.3 725.3,446.1 			"/>
			<line class="st7" x1="743.7" y1="332.9" x2="713" y2="381.2"/>
			<line class="st7" x1="645.5" y1="399.4" x2="681.2" y2="396.1"/>
			<line class="st7" x1="684.6" y1="407.9" x2="657.1" y2="423.1"/>
			<line class="st7" x1="673.3" y1="443.6" x2="692" y2="413.2"/>
			<line class="st7" x1="700.6" y1="447" x2="702.3" y2="415"/>
			<line class="st7" x1="724.4" y1="448.8" x2="711.8" y2="412.9"/>
			
				<ellipse transform="matrix(0.9753 -0.2209 0.2209 0.9753 -70.202 165.1212)" class="st8" cx="703.2" cy="396.5" rx="22.4" ry="18.4"/>
			
				<ellipse transform="matrix(0.9753 -0.2209 0.2209 0.9753 -77.2305 155.5823)" class="st3" cx="657.1" cy="423.1" rx="6.3" ry="5.2"/>
			
				<ellipse transform="matrix(0.9753 -0.2209 0.2209 0.9753 -81.333 159.6652)" class="st3" cx="673.3" cy="443.5" rx="6.3" ry="5.2"/>
			
				<ellipse transform="matrix(0.9753 -0.2209 0.2209 0.9753 -81.4226 165.7804)" class="st3" cx="700.6" cy="447" rx="6.3" ry="5.2"/>
			
				<ellipse transform="matrix(0.9753 -0.2209 0.2209 0.9753 -81.1474 171.1412)" class="st3" cx="724.7" cy="448.4" rx="6.3" ry="5.2"/>
			
				<ellipse transform="matrix(0.9753 -0.2209 0.2209 0.9753 -72.2778 152.4452)" class="st3" cx="645.5" cy="399.4" rx="6.3" ry="5.2"/>
			
				<ellipse transform="matrix(0.5265 -0.8502 0.8502 0.5265 44.9691 772.8134)" class="st3" cx="716.3" cy="346" rx="12.2" ry="5.4"/>
			
				<ellipse transform="matrix(0.5265 -0.8502 0.8502 0.5265 44.128 788.4958)" class="st3" cx="730" cy="354.6" rx="12.2" ry="5.4"/>
			
				<ellipse transform="matrix(0.5265 -0.8502 0.8502 0.5265 43.2868 804.1782)" class="st3" cx="743.6" cy="363.2" rx="12.2" ry="5.4"/>
		</g>
	</g>
	<g>
		<g>
			<polyline class="st7" points="737.7,156.4 718.8,125.2 658,81.2 			"/>
			<polyline class="st7" points="766.6,142.2 746.4,108.7 735.8,34.7 			"/>
			<line class="st7" x1="751.5" y1="148.2" x2="721.9" y2="99.3"/>
			<line class="st7" x1="654.9" y1="79.5" x2="690.4" y2="83.7"/>
			<line class="st7" x1="694.1" y1="72" x2="667" y2="56.1"/>
			<line class="st7" x1="683.7" y1="36" x2="701.7" y2="66.8"/>
			<line class="st7" x1="711.1" y1="33.2" x2="712.1" y2="65.2"/>
			<line class="st7" x1="734.9" y1="31.9" x2="721.5" y2="67.5"/>
			
				<ellipse transform="matrix(0.2425 -0.9701 0.9701 0.2425 458.4057 754.7208)" class="st8" cx="712.5" cy="83.8" rx="18.4" ry="22.4"/>
			
				<ellipse transform="matrix(0.2425 -0.9701 0.9701 0.2425 450.7845 689.5566)" class="st3" cx="667" cy="56.1" rx="5.2" ry="6.3"/>
			
				<ellipse transform="matrix(0.2425 -0.9701 0.9701 0.2425 482.8257 690.5712)" class="st3" cx="683.6" cy="36.1" rx="5.2" ry="6.3"/>
			
				<ellipse transform="matrix(0.2425 -0.9701 0.9701 0.2425 506.3101 714.9772)" class="st3" cx="711" cy="33.3" rx="5.2" ry="6.3"/>
			
				<ellipse transform="matrix(0.2425 -0.9701 0.9701 0.2425 525.4657 737.7094)" class="st3" cx="735.2" cy="32.4" rx="5.2" ry="6.3"/>
			
				<ellipse transform="matrix(0.2425 -0.9701 0.9701 0.2425 418.8782 695.5823)" class="st3" cx="654.9" cy="79.5" rx="5.2" ry="6.3"/>
			
				<ellipse transform="matrix(0.862 -0.5068 0.5068 0.862 31.7635 385.7298)" class="st3" cx="724.4" cy="134.5" rx="5.4" ry="12.2"/>
			
				<ellipse transform="matrix(0.862 -0.5068 0.5068 0.862 37.8731 391.6084)" class="st3" cx="738.3" cy="126.2" rx="5.4" ry="12.2"/>
			<ellipse transform="matrix(0.862 -0.5068 0.5068 0.862 43.9827 397.4871)" class="st3" cx="752.1" cy="118" rx="5.4" ry="12.2"/>
		</g>
		<g>
			<polyline class="st7" points="841.8,336.1 860.7,367.3 871.3,441.3 			"/>
			<polyline class="st7" points="868,317.4 888.3,350.8 949.1,394.8 			"/>
			<line class="st7" x1="855.6" y1="327.8" x2="885.2" y2="376.7"/>
			<line class="st7" x1="871.3" y1="444.8" x2="884.3" y2="411.7"/>
			<line class="st7" x1="896.4" y1="413.9" x2="897.8" y2="445.2"/>
			<line class="st7" x1="923.5" y1="440" x2="904.6" y2="409.7"/>
			<line class="st7" x1="938.8" y1="417.2" x2="910.9" y2="401.4"/>
			<line class="st7" x1="951.1" y1="396.9" x2="913.2" y2="392"/>
			
				<ellipse transform="matrix(0.2403 -0.9707 0.9707 0.2403 298.8384 1166.3182)" class="st8" cx="894.6" cy="392.2" rx="22.3" ry="18.5"/>
			
				<ellipse transform="matrix(0.2403 -0.9707 0.9707 0.2403 249.9046 1209.7404)" class="st3" cx="897.8" cy="445.2" rx="6.3" ry="5.2"/>
			
				<ellipse transform="matrix(0.2403 -0.9707 0.9707 0.2403 274.456 1230.5895)" class="st3" cx="923.4" cy="439.9" rx="6.3" ry="5.2"/>
			
				<ellipse transform="matrix(0.2403 -0.9707 0.9707 0.2403 308.1571 1228.2372)" class="st3" cx="938.8" cy="417.2" rx="6.3" ry="5.2"/>
			
				<ellipse transform="matrix(0.2403 -0.9707 0.9707 0.2403 337.5213 1224.2135)" class="st3" cx="950.9" cy="396.5" rx="6.3" ry="5.2"/>
			
				<ellipse transform="matrix(0.2403 -0.9707 0.9707 0.2403 230.127 1183.7357)" class="st3" cx="871.3" cy="444.8" rx="6.3" ry="5.2"/>
			
				<ellipse transform="matrix(0.8476 -0.5307 0.5307 0.8476 -59.658 508.3134)" class="st3" cx="855.1" cy="358" rx="5.4" ry="12.2"/>
			
				<ellipse transform="matrix(0.8476 -0.5307 0.5307 0.8476 -53.151 514.4022)" class="st3" cx="868.9" cy="349.7" rx="5.4" ry="12.2"/>
			
				<ellipse transform="matrix(0.8476 -0.5307 0.5307 0.8476 -46.644 520.491)" class="st3" cx="882.8" cy="341.4" rx="5.4" ry="12.2"/>
		</g>
	</g>
	<text transform="matrix(1.006 0 0 1 893.2068 90.1172)" class="st3 st11 st12">A</text>
	<text transform="matrix(1.006 0 0 1 884.5583 400.0986)" class="st3 st11 st12">C</text>
	<text transform="matrix(1.006 0 0 1 693.2532 403.54)" class="st3 st11 st12">D</text>
	<text transform="matrix(1.006 0 0 1 610.2708 246.584)" class="st3 st11 st12">E</text>
	<text transform="matrix(1.006 0 0 1 701.7737 90.1167)" class="st3 st11 st12">F</text>
</g>
</svg>
