<?xml version="1.0" encoding="utf-8"?>
<!-- Generator: Adobe Illustrator 26.4.1, SVG Export Plug-In . SVG Version: 6.00 Build 0)  -->
<svg version="1.1" id="Layer_1" xmlns="http://www.w3.org/2000/svg" xmlns:xlink="http://www.w3.org/1999/xlink" x="0px" y="0px"
	 viewBox="0 0 80 80" style="enable-background:new 0 0 80 80;" xml:space="preserve">
<style type="text/css">
	.st0{fill:#BC83FB;}
	.st1{fill-rule:evenodd;clip-rule:evenodd;fill:#BC83FB;}
</style>
<g>
	<g>
		<path class="st0" d="M65.22,80H14.78C6.63,80,0,73.37,0,65.22V14.78C0,6.63,6.63,0,14.78,0h50.44c1.38,0,2.5,1.12,2.5,2.5
			S66.6,5,65.22,5H14.78C9.39,5,5,9.39,5,14.78v50.44C5,70.61,9.39,75,14.78,75h50.44c5.39,0,9.78-4.39,9.78-9.78v-9.64
			c0-1.38,1.12-2.5,2.5-2.5s2.5,1.12,2.5,2.5v9.64C80,73.37,73.37,80,65.22,80z"/>
	</g>
	<g>
		<g>
			<path class="st1" d="M76.64,28.44L76.64,28.44c-0.28,0.28-0.74,0.29-1.02,0c-2.96-3-8.96-3.02-13.25,1.26
				c-2.98,2.98-4.04,7.06-3,10.31c0.18,0.55-0.31,1.07-0.87,0.92c-5.94-1.54-12.71,5.18-11.05,11.2c0.14,0.49-0.23,0.99-0.74,0.94
				c-5.16-0.51-9.39,6.43-6.27,9.96c0.38,0.43,0.08,1.12-0.49,1.18c-0.86,0.1-1.76-0.18-2.42-0.84L11.9,37.75
				c-1.16-1.15-1.15-3.02,0.01-4.17l6.96-6.9c1.15-1.13,3-1.13,4.15,0.02l13.93,13.93c1.15,1.15,3.01,1.15,4.16,0l23.86-23.86
				c1.15-1.15,3.01-1.15,4.16,0l7.52,7.52C77.79,25.43,77.79,27.29,76.64,28.44z"/>
		</g>
		<g>
			
				<ellipse transform="matrix(0.7071 -0.7071 0.7071 0.7071 -6.1436 59.9785)" class="st1" cx="69.33" cy="37.41" rx="7.87" ry="6.56"/>
		</g>
		<g>
			
				<ellipse transform="matrix(0.7071 -0.7071 0.7071 0.7071 -18.6242 54.085)" class="st1" cx="55.97" cy="49.52" rx="5.94" ry="4.95"/>
		</g>
		<g>
			
				<ellipse transform="matrix(0.7071 -0.7071 0.7071 0.7071 -28.6793 49.9201)" class="st1" cx="45.92" cy="59.58" rx="3.72" ry="3.1"/>
		</g>
	</g>
</g>
</svg>
