<?xml version="1.0" encoding="utf-8"?>
<!-- Generator: Adobe Illustrator 26.4.1, SVG Export Plug-In . SVG Version: 6.00 Build 0)  -->
<svg version="1.1" id="Layer_1" xmlns="http://www.w3.org/2000/svg" xmlns:xlink="http://www.w3.org/1999/xlink" x="0px" y="0px"
	 viewBox="0 0 77.71 80" style="enable-background:new 0 0 77.71 80;" xml:space="preserve">
<style type="text/css">
	.st0{fill:#BC83FB;}
	.st1{fill-rule:evenodd;clip-rule:evenodd;fill:#BC83FB;}
</style>
<g>
	<g>
		<path class="st0" d="M40,80C17.94,80,0,62.06,0,40S17.94,0,40,0c6.61,0,13.17,1.65,18.96,4.77c1.22,0.66,1.67,2.17,1.01,3.39
			c-0.66,1.22-2.17,1.67-3.39,1.01C51.52,6.44,45.79,5,40,5C20.7,5,5,20.7,5,40s15.7,35,35,35c14.61,0,27.82-9.21,32.86-22.92
			c0.48-1.3,1.91-1.96,3.21-1.48c1.3,0.48,1.96,1.91,1.48,3.21C71.79,69.47,56.7,80,40,80z"/>
	</g>
	<g>
		<g>
			<path class="st1" d="M74.36,28.5L74.36,28.5c-0.28,0.28-0.73,0.28-1.01,0c-2.93-2.97-8.85-2.99-13.1,1.25
				c-2.94,2.95-3.99,6.97-2.96,10.19c0.17,0.54-0.31,1.05-0.86,0.91c-5.88-1.53-12.56,5.12-10.92,11.06
				c0.13,0.49-0.22,0.98-0.73,0.93c-5.1-0.51-9.28,6.36-6.2,9.84c0.37,0.42,0.08,1.1-0.49,1.17c-0.85,0.1-1.74-0.18-2.39-0.83
				L10.38,37.7c-1.15-1.14-1.14-2.98,0.01-4.12l6.88-6.82c1.14-1.12,2.96-1.12,4.1,0.02l13.77,13.77c1.13,1.13,2.97,1.13,4.11,0
				l23.58-23.58c1.13-1.13,2.97-1.13,4.11,0l7.43,7.43C75.49,25.53,75.49,27.37,74.36,28.5z"/>
		</g>
		<g>
			
				<ellipse transform="matrix(0.7071 -0.7071 0.7071 0.7071 -6.7575 58.4123)" class="st1" cx="67.13" cy="37.36" rx="7.78" ry="6.48"/>
		</g>
		<g>
			
				<ellipse transform="matrix(0.7071 -0.7071 0.7071 0.7071 -19.0922 52.5878)" class="st1" cx="53.93" cy="49.34" rx="5.87" ry="4.89"/>
		</g>
		<g>
			
				<ellipse transform="matrix(0.7071 -0.7071 0.7071 0.7071 -29.0296 48.4716)" class="st1" cx="44" cy="59.28" rx="3.67" ry="3.06"/>
		</g>
	</g>
</g>
</svg>
