<svg enable-background="new 0 0 201.92 107.2" version="1.1" viewBox="0 0 201.9 107.2" xmlns="http://www.w3.org/2000/svg">
 <style type="text/css">.st0{fill:#5A007E;}
	.st1{fill:#BC83FB;}</style>
 <path class="st0" d="m145 74s-8.02 20.54-6.18 22.04 17.15-22.04 17.15-22.04h-10.97z"/>
 <path class="st0" d="m57.83 74s8.02 20.54 6.18 22.04-17.15-22.04-17.15-22.04h10.97z"/>
 <path class="st1" d="m53.93 53.59c-5.01-4.16-15.26-4.78-10.7 9.55l4.2 11.92s51.84 26.83 107.4 0.28l3.6-12.12c1.57-4.85 5.4-18-10.35-10.35 6.97-13.5-1.06-17.58-8.5-12.32 2.12-16.46-6.65-16.13-11.41-9.28-0.45-15.18-7.66-16.95-13.5-6.28-3.59-14.88-12.57-8.35-14.35-0.3-7.43-13.37-15.53-7.04-14.65 3.44-11.87-9.81-15.25-2.9-12.71 6.52-11.8-7.82-15.46 0.08-10.35 8.52-10.12-6.69-14.97 1.43-8.68 10.42z"/>
 <path d="m95.53 65.42c0.25 5 6.41 7.21 9.96 4.05 1.06-0.95 1.68-2.39 1.86-4.05 0.06-0.67 0.66-1.17 1.33-1.09 0.58 0.07 1.01 0.53 1.06 1.09 0.58 4.82-3.54 8.97-8.29 8.81-4.69 0.13-8.9-4.04-8.32-8.81 0.14-1.45 2.27-1.44 2.4 0z"/>
 <path d="m106.9 57.49c0.09-9.94 15.37-12.22 19.4-3.62 0.56 1.41 1.77 4.73-0.55 4.94-0.64 0-1.18-0.46-1.3-1.07-0.43-1.75-1.34-3.13-2.67-4.04-4.08-2.78-11.14-1.29-12.22 4.06-0.34 1.57-2.66 1.32-2.66-0.27z"/>
 <path d="m93.33 57.76c-1.32-7.33-13.62-7.45-14.89-0.02-0.3 1.6-2.68 1.35-2.65-0.27 0.13-8.32 11.09-11.36 16.94-6.5 1.96 1.53 3.21 4.05 3.24 6.51 0.02 0.74-0.57 1.35-1.31 1.36-0.65 0.03-1.21-0.45-1.33-1.08z"/>
 <path class="st1" d="m158.4 63.21c17.21 7.55 21.56 8.65 11.38 20.08-7.07 7.93-14.14 17.48-18.42 23.47-0.69 0.97-2.21 0.18-1.81-0.95 5.6-15.93 11.51-27.92 5.26-30.48-8.17-3.33 3.59-12.12 3.59-12.12z"/>
 <path class="st1" d="m43.24 63.14c-17.21 7.55-21.58 8.73-11.39 20.15 7.07 7.93 14.14 17.48 18.42 23.47 0.69 0.97 2.21 0.18 1.81-0.95-5.6-15.93-11.51-27.92-5.26-30.48 8.17-3.33-3.58-12.19-3.58-12.19z"/>
 <path class="st1" d="m156.2 58.86c17.9-6.82 19.47-22.31 19.55-27.02 0.01-0.71 0.58-1.28 1.29-1.28 0.68 0 1.26 0.54 1.29 1.22 1.48 28.55-19.94 32.43-19.94 32.43l-2.19-5.35z"/>
 <path class="st1" d="m192.1 38.72c-14.16 9.46-33.26 0.04-34.38-16.95-0.65-9.93 5.12-18.1 13.07-21.67 0.59-0.27 1.28 0.07 1.42 0.7l5.48 25.69c0.18 0.83 1.23 1.08 1.77 0.43l16.42-20.02c0.42-0.51 1.2-0.48 1.6 0.05 7.27 9.61 5.75 24.33-5.38 31.77z"/>
 <path class="st1" d="m45.75 58.86c-17.9-6.82-19.47-22.31-19.55-27.02-0.01-0.71-0.58-1.28-1.29-1.28-0.68 0-1.26 0.54-1.29 1.22-1.48 28.55 19.94 32.43 19.94 32.43l2.19-5.35z"/>
 <path class="st1" d="m9.84 38.72c14.16 9.46 33.26 0.04 34.38-16.95 0.65-9.93-5.12-18.1-13.07-21.67-0.59-0.27-1.28 0.07-1.42 0.7l-5.48 25.69c-0.18 0.83-1.23 1.08-1.77 0.43l-16.42-20.02c-0.42-0.51-1.2-0.48-1.6 0.05-7.28 9.61-5.76 24.33 5.38 31.77z"/>
 <path class="st0" d="m153.9 76.89c-31.93 17.62-72.17 14.54-104.7 0.13-0.25-0.12-0.36-0.41-0.24-0.66 0.11-0.24 0.4-0.35 0.64-0.25 8.38 2.91 17.06 5.05 25.77 6.69 20.6 3.79 42.12 4.22 62.43-1.31 0.79-0.2 2.41-0.66 3.19-0.92 4.28-1.17 8.37-2.9 12.5-4.56 0.26-0.12 0.56 0.01 0.67 0.27 0.1 0.22 0 0.49-0.22 0.61z"/>
</svg>
