<?xml version="1.0" encoding="utf-8"?>
<!-- Generator: Adobe Illustrator 26.4.1, SVG Export Plug-In . SVG Version: 6.00 Build 0)  -->
<svg version="1.1" id="Layer_1" xmlns="http://www.w3.org/2000/svg" xmlns:xlink="http://www.w3.org/1999/xlink" x="0px" y="0px"
	 viewBox="0 0 201.92 107.2" style="enable-background:new 0 0 201.92 107.2;" xml:space="preserve">
<style type="text/css">
	.st0{fill:#5A007E;}
	.st1{fill:#BC83FB;}
</style>
<g>
	<path class="st0" d="M144.99,74c0,0-8.02,20.54-6.18,22.04c1.84,1.5,17.15-22.04,17.15-22.04H144.99z"/>
	<path class="st0" d="M57.83,74c0,0,8.02,20.54,6.18,22.04C62.17,97.54,46.86,74,46.86,74H57.83z"/>
	<path class="st1" d="M53.93,53.59c-5.01-4.16-15.26-4.78-10.7,9.55l4.2,11.92c0,0,51.84,26.83,107.4,0.28l3.6-12.12
		c1.57-4.85,5.4-18-10.35-10.35c6.97-13.5-1.06-17.58-8.5-12.32c2.12-16.46-6.65-16.13-11.41-9.28c-0.45-15.18-7.66-16.95-13.5-6.28
		c-3.59-14.88-12.57-8.35-14.35-0.3c-7.43-13.37-15.53-7.04-14.65,3.44c-11.87-9.81-15.25-2.9-12.71,6.52
		c-11.8-7.82-15.46,0.08-10.35,8.52C52.49,36.48,47.64,44.6,53.93,53.59z"/>
	<g>
		<path d="M95.53,65.42c0.25,5,6.41,7.21,9.96,4.05c1.06-0.95,1.68-2.39,1.86-4.05c0.06-0.67,0.66-1.17,1.33-1.09
			c0.58,0.07,1.01,0.53,1.06,1.09c0.58,4.82-3.54,8.97-8.29,8.81c-4.69,0.13-8.9-4.04-8.32-8.81C93.27,63.97,95.4,63.98,95.53,65.42
			L95.53,65.42z"/>
		<path d="M106.9,57.49c0.09-9.94,15.37-12.22,19.4-3.62c0.56,1.41,1.77,4.73-0.55,4.94c-0.64,0-1.18-0.46-1.3-1.07
			c-0.43-1.75-1.34-3.13-2.67-4.04c-4.08-2.78-11.14-1.29-12.22,4.06C109.22,59.33,106.9,59.08,106.9,57.49L106.9,57.49z"/>
		<path d="M93.33,57.76c-1.32-7.33-13.62-7.45-14.89-0.02c-0.3,1.6-2.68,1.35-2.65-0.27c0.13-8.32,11.09-11.36,16.94-6.5
			c1.96,1.53,3.21,4.05,3.24,6.51c0.02,0.74-0.57,1.35-1.31,1.36C94.01,58.87,93.45,58.39,93.33,57.76L93.33,57.76z"/>
	</g>
	<path class="st1" d="M158.44,63.21c17.21,7.55,21.56,8.65,11.38,20.08c-7.07,7.93-14.14,17.48-18.42,23.47
		c-0.69,0.97-2.21,0.18-1.81-0.95c5.6-15.93,11.51-27.92,5.26-30.48C146.68,72,158.44,63.21,158.44,63.21z"/>
	<path class="st1" d="M43.24,63.14c-17.21,7.55-21.58,8.73-11.39,20.15c7.07,7.93,14.14,17.48,18.42,23.47
		c0.69,0.97,2.21,0.18,1.81-0.95c-5.6-15.93-11.51-27.92-5.26-30.48C54.99,72,43.24,63.14,43.24,63.14z"/>
	<g>
		<path class="st1" d="M156.17,58.86c17.9-6.82,19.47-22.31,19.55-27.02c0.01-0.71,0.58-1.28,1.29-1.28l0,0
			c0.68,0,1.26,0.54,1.29,1.22c1.48,28.55-19.94,32.43-19.94,32.43L156.17,58.86z"/>
		<path class="st1" d="M192.08,38.72c-14.16,9.46-33.26,0.04-34.38-16.95c-0.65-9.93,5.12-18.1,13.07-21.67
			c0.59-0.27,1.28,0.07,1.42,0.7l5.48,25.69c0.18,0.83,1.23,1.08,1.77,0.43L195.86,6.9c0.42-0.51,1.2-0.48,1.6,0.05
			C204.73,16.56,203.21,31.28,192.08,38.72z"/>
	</g>
	<g>
		<path class="st1" d="M45.75,58.86c-17.9-6.82-19.47-22.31-19.55-27.02c-0.01-0.71-0.58-1.28-1.29-1.28h0
			c-0.68,0-1.26,0.54-1.29,1.22c-1.48,28.55,19.94,32.43,19.94,32.43L45.75,58.86z"/>
		<path class="st1" d="M9.84,38.72C24,48.18,43.1,38.76,44.22,21.77c0.65-9.93-5.12-18.1-13.07-21.67c-0.59-0.27-1.28,0.07-1.42,0.7
			l-5.48,25.69c-0.18,0.83-1.23,1.08-1.77,0.43L6.06,6.9c-0.42-0.51-1.2-0.48-1.6,0.05C-2.82,16.56-1.3,31.28,9.84,38.72z"/>
	</g>
	<path class="st0" d="M153.93,76.89C122,94.51,81.76,91.43,49.19,77.02c-0.25-0.12-0.36-0.41-0.24-0.66
		c0.11-0.24,0.4-0.35,0.64-0.25c8.38,2.91,17.06,5.05,25.77,6.69c20.6,3.79,42.12,4.22,62.43-1.31c0.79-0.2,2.41-0.66,3.19-0.92
		c4.28-1.17,8.37-2.9,12.5-4.56c0.26-0.12,0.56,0.01,0.67,0.27C154.25,76.5,154.15,76.77,153.93,76.89L153.93,76.89z"/>
</g>
</svg>
