<?xml version="1.0" encoding="utf-8"?>
<!-- Generator: Adobe Illustrator 27.1.1, SVG Export Plug-In . SVG Version: 6.00 Build 0)  -->
<svg version="1.1" id="Layer_1" xmlns="http://www.w3.org/2000/svg" xmlns:xlink="http://www.w3.org/1999/xlink" x="0px" y="0px"
	 viewBox="0 0 75 75" style="enable-background:new 0 0 75 75;" xml:space="preserve">
<style type="text/css">
	.st0{fill:#FFFFFF;}
	.st1{fill:#BC83FB;}
</style>
<g>
	<ellipse transform="matrix(0.7071 -0.7071 0.7071 0.7071 -15.533 37.5)" class="st0" cx="37.5" cy="37.5" rx="38.92" ry="36.03"/>
</g>
<g>
	<g>
		
			<ellipse transform="matrix(0.7662 -0.6426 0.6426 0.7662 -20.3058 19.0093)" class="st1" cx="15.97" cy="37.41" rx="8.16" ry="7.23"/>
	</g>
	<g>
		<circle class="st1" cx="52.27" cy="13.71" r="4.15"/>
	</g>
	<g>
		<circle class="st1" cx="52.27" cy="61.11" r="4.15"/>
	</g>
	<g>
		<circle class="st1" cx="60.57" cy="37.41" r="4.15"/>
	</g>
	<g>
		<g>
			<path d="M46.24,38.57H32.02c-0.69,0-1.25-0.56-1.25-1.25s0.56-1.25,1.25-1.25h14.22c0.69,0,1.25,0.56,1.25,1.25
				S46.93,38.57,46.24,38.57z"/>
		</g>
		<g>
			<path d="M51.95,36.71l-5.85-4.95c-0.59-0.5-1.5-0.08-1.5,0.69v9.9c0,0.77,0.91,1.19,1.5,0.69l5.85-4.95
				C52.38,37.74,52.38,37.08,51.95,36.71z"/>
		</g>
	</g>
	<g>
		<g>
			<path d="M29.02,31.03c-0.38,0-0.76-0.18-1.01-0.51c-0.41-0.56-0.29-1.34,0.27-1.75l11.46-8.41c0.56-0.41,1.34-0.29,1.75,0.27
				c0.41,0.56,0.29,1.34-0.27,1.75l-11.46,8.41C29.54,30.95,29.28,31.03,29.02,31.03z"/>
		</g>
		<g>
			<path d="M44.73,17.51l-7.65-0.53c-0.77-0.05-1.25,0.82-0.8,1.45l5.86,7.98c0.46,0.62,1.44,0.43,1.62-0.33l1.79-7.45
				C45.69,18.08,45.29,17.55,44.73,17.51z"/>
		</g>
	</g>
	<g>
		<g>
			<path d="M40.48,54.7c-0.26,0-0.52-0.08-0.74-0.24l-11.46-8.41c-0.56-0.41-0.68-1.19-0.27-1.75s1.19-0.68,1.75-0.27l11.46,8.41
				c0.56,0.41,0.68,1.19,0.27,1.75C41.25,54.52,40.87,54.7,40.48,54.7z"/>
		</g>
		<g>
			<path d="M44.73,57.31l-7.65,0.53c-0.77,0.05-1.25-0.82-0.8-1.45l5.86-7.98c0.46-0.62,1.44-0.43,1.62,0.33l1.79,7.45
				C45.69,56.74,45.29,57.27,44.73,57.31z"/>
		</g>
	</g>
</g>
</svg>
