<?xml version="1.0" encoding="utf-8"?>
<!-- Generator: Adobe Illustrator 27.1.1, SVG Export Plug-In . SVG Version: 6.00 Build 0)  -->
<svg version="1.1" id="Layer_1" xmlns="http://www.w3.org/2000/svg" xmlns:xlink="http://www.w3.org/1999/xlink" x="0px" y="0px"
	 viewBox="0 0 75 75" style="enable-background:new 0 0 75 75;" xml:space="preserve">
<style type="text/css">
	.st0{fill:#FFFFFF;}
	.st1{fill-rule:evenodd;clip-rule:evenodd;fill:#BC83FB;}
	.st2{fill-rule:evenodd;clip-rule:evenodd;fill:#8747CC;}
	.st3{fill-rule:evenodd;clip-rule:evenodd;}
</style>
<g>
	<ellipse transform="matrix(0.7071 -0.7071 0.7071 0.7071 -15.533 37.5)" class="st0" cx="37.5" cy="37.5" rx="38.92" ry="36.03"/>
	<g>
		<g>
			<g>
				<g>
					<circle class="st1" cx="37.5" cy="37.5" r="25.72"/>
				</g>
				<g>
					<path d="M37.5,13.76c13.09,0,23.74,10.65,23.74,23.74S50.59,61.24,37.5,61.24S13.76,50.59,13.76,37.5S24.41,13.76,37.5,13.76
						 M37.5,11.78c-14.2,0-25.72,11.52-25.72,25.72S23.3,63.22,37.5,63.22c14.2,0,25.72-11.52,25.72-25.72S51.7,11.78,37.5,11.78
						L37.5,11.78z"/>
				</g>
				<g>
					<path d="M21.76,58.82c-0.34,0-0.68-0.18-0.86-0.5c-0.27-0.47-0.11-1.08,0.36-1.36c4.69-2.71,10.32-4.14,16.26-4.14
						c5.94,0,11.56,1.43,16.26,4.14c0.47,0.27,0.64,0.88,0.36,1.36c-0.27,0.48-0.88,0.64-1.35,0.36c-4.39-2.53-9.67-3.87-15.26-3.87
						c-5.59,0-10.87,1.34-15.27,3.87C22.09,58.78,21.92,58.82,21.76,58.82z"/>
				</g>
				<g>
					<path d="M37.52,22.19c-5.95,0-11.58-1.44-16.28-4.15c-0.47-0.27-0.64-0.88-0.36-1.36c0.27-0.48,0.88-0.64,1.36-0.36
						c4.4,2.54,9.68,3.88,15.28,3.88c5.59,0,10.87-1.34,15.26-3.87c0.47-0.27,1.08-0.11,1.36,0.36c0.27,0.47,0.11,1.08-0.36,1.36
						C49.08,20.76,43.46,22.19,37.52,22.19z"/>
				</g>
				<g>
					<path d="M37.5,62.94c-6.23,0-9.95-12.94-9.95-25.44s3.72-25.44,9.95-25.44s9.95,12.94,9.95,25.44S43.72,62.94,37.5,62.94z
						 M37.5,14.04c-4.69,0-7.96,12.36-7.96,23.46c0,11.1,3.27,23.46,7.96,23.46s7.96-12.36,7.96-23.46
						C45.46,26.4,42.19,14.04,37.5,14.04z"/>
				</g>
				<g>
					<path d="M61.63,38.49H13.37c-0.55,0-0.99-0.44-0.99-0.99s0.44-0.99,0.99-0.99h48.26c0.55,0,0.99,0.44,0.99,0.99
						S62.18,38.49,61.63,38.49z"/>
				</g>
			</g>
			<g>
				<path class="st0" d="M54.68,46.61H20.32c-2.27,0-4.11-1.84-4.11-4.11V32.49c0-2.27,1.84-4.11,4.11-4.11h34.37
					c2.27,0,4.11,1.84,4.11,4.11v10.01C58.79,44.77,56.95,46.61,54.68,46.61z"/>
			</g>
			<g>
				<g>
					<path d="M28.56,31.97c-0.99-0.49-2.12-0.74-3.42-0.74h-4.82c-0.32,0-0.58,0.26-0.58,0.58v10.73c0,0.32,0.26,0.58,0.58,0.58
						h4.82c1.29,0,2.43-0.25,3.42-0.74c0.99-0.49,1.76-1.18,2.31-2.07c0.55-0.89,0.83-1.93,0.83-3.13c0-1.21-0.28-2.26-0.83-3.14
						C30.31,33.15,29.54,32.46,28.56,31.97z M28.43,39.13c-0.32,0.56-0.78,0.98-1.36,1.28c-0.58,0.3-1.27,0.45-2.06,0.45h-1.93
						c-0.32,0-0.58-0.26-0.58-0.58v-6.21c0-0.32,0.26-0.58,0.58-0.58h1.93c0.79,0,1.48,0.15,2.06,0.45c0.58,0.3,1.04,0.73,1.36,1.27
						c0.32,0.55,0.48,1.2,0.48,1.96C28.91,37.93,28.75,38.58,28.43,39.13z"/>
				</g>
				<g>
					<path d="M40.86,37.82l-5.22-6.37c-0.11-0.14-0.28-0.21-0.45-0.21h-1.42c-0.32,0-0.58,0.26-0.58,0.58v10.73
						c0,0.32,0.26,0.58,0.58,0.58h1.55c0.32,0,0.58-0.26,0.58-0.58v-5.82c0-0.27,0.34-0.4,0.52-0.19l5.24,6.38
						c0.11,0.14,0.28,0.21,0.45,0.21h1.4c0.32,0,0.58-0.26,0.58-0.58V31.82c0-0.32-0.26-0.58-0.58-0.58h-1.55
						c-0.32,0-0.58,0.26-0.58,0.58v5.81C41.38,37.9,41.04,38.03,40.86,37.82z"/>
				</g>
				<g>
					<path d="M54.91,38.1c-0.25-0.41-0.59-0.74-0.99-0.99c-0.41-0.25-0.86-0.45-1.35-0.59c-0.49-0.15-0.99-0.28-1.48-0.39
						c-0.49-0.11-0.94-0.23-1.35-0.34c-0.41-0.11-0.74-0.26-0.99-0.45c-0.25-0.19-0.37-0.43-0.37-0.74c0-0.26,0.07-0.49,0.22-0.69
						c0.15-0.2,0.39-0.36,0.73-0.48c0.34-0.12,0.78-0.19,1.31-0.19c0.53,0,1.08,0.08,1.63,0.23c0.37,0.1,0.75,0.24,1.12,0.42
						c0.3,0.14,0.66,0,0.79-0.31l0.42-1.02c0.12-0.29-0.02-0.61-0.29-0.75c-0.43-0.22-0.91-0.39-1.43-0.52
						c-0.73-0.18-1.46-0.26-2.21-0.26c-1.12,0-2.05,0.17-2.8,0.5c-0.74,0.33-1.3,0.78-1.67,1.34c-0.37,0.56-0.55,1.18-0.55,1.86
						c0,0.63,0.13,1.16,0.38,1.56c0.25,0.41,0.59,0.74,0.99,0.99c0.41,0.25,0.86,0.45,1.35,0.61c0.49,0.16,0.99,0.29,1.48,0.4
						c0.49,0.11,0.94,0.22,1.35,0.34c0.38,0.11,0.69,0.25,0.94,0.42c0.24,0.17,0.41,0.44,0.42,0.74c0.01,0.27-0.07,0.51-0.24,0.72
						c-0.16,0.19-0.41,0.34-0.74,0.45c-0.33,0.11-0.77,0.16-1.32,0.16c-0.71,0-1.42-0.12-2.12-0.35c-0.47-0.16-0.89-0.34-1.28-0.56
						c-0.3-0.17-0.67-0.04-0.81,0.27L45.6,41.5c-0.12,0.27-0.02,0.6,0.24,0.75c0.46,0.27,1.02,0.51,1.66,0.7
						c0.87,0.25,1.78,0.38,2.74,0.38c1.13,0,2.07-0.17,2.81-0.51c0.74-0.34,1.3-0.79,1.67-1.34c0.37-0.56,0.56-1.17,0.56-1.84
						C55.29,39.02,55.16,38.5,54.91,38.1z"/>
				</g>
			</g>
		</g>
		<g>
			<g>
				<g>
					<g>
						<path class="st2" d="M61.98,21.8L61.98,21.8c-0.13,0.38-0.28,0.76-0.46,1.15c-0.08,0.16-0.14,0.32-0.23,0.47
							c-0.08,0.16-0.16,0.32-0.25,0.48c-0.08,0.16-0.17,0.32-0.27,0.48c-0.19,0.32-0.38,0.65-0.6,0.98
							c-1.97-3.58-4.36-5.91-4.51-6.05c-0.01-0.01-0.01-0.01-0.01-0.01s-3.48,1.45-7.3,4.16c-0.55,0.38-1.28-0.16-1.06-0.8
							C52.75,6.03,65.69,11.27,61.98,21.8z"/>
					</g>
					<g>
						<path class="st3" d="M61.98,21.8L61.98,21.8c-0.13,0.38-0.28,0.76-0.46,1.15c-0.08,0.16-0.14,0.32-0.23,0.47
							c-0.08,0.16-0.16,0.32-0.25,0.48c-0.08,0.16-0.17,0.32-0.27,0.48c-0.19,0.32-0.38,0.65-0.6,0.98
							c-1.97-3.58-4.36-5.91-4.51-6.05c-0.01-0.01-0.01-0.01-0.01-0.01C59.62,17.43,63.14,16.96,61.98,21.8z"/>
					</g>
				</g>
				<g>
					<g>
						<path class="st2" d="M13.01,21.8L13.01,21.8c0.13,0.38,0.28,0.76,0.46,1.15c0.08,0.16,0.14,0.32,0.23,0.47
							c0.08,0.16,0.16,0.32,0.25,0.48c0.08,0.16,0.17,0.32,0.27,0.48c0.19,0.32,0.38,0.65,0.6,0.98c1.97-3.58,4.36-5.91,4.51-6.05
							c0.01-0.01,0.01-0.01,0.01-0.01s3.48,1.45,7.3,4.16c0.55,0.38,1.28-0.16,1.06-0.8C22.24,6.03,9.3,11.27,13.01,21.8z"/>
					</g>
					<g>
						<path class="st3" d="M13.01,21.8L13.01,21.8c0.13,0.38,0.28,0.76,0.46,1.15c0.08,0.16,0.14,0.32,0.23,0.47
							c0.08,0.16,0.16,0.32,0.25,0.48c0.08,0.16,0.17,0.32,0.27,0.48c0.19,0.32,0.38,0.65,0.6,0.98c1.97-3.58,4.36-5.91,4.51-6.05
							c0.01-0.01,0.01-0.01,0.01-0.01C15.37,17.43,11.85,16.96,13.01,21.8z"/>
					</g>
				</g>
			</g>
			<g>
				<g>
					<g>
						<path class="st2" d="M61.98,53.2L61.98,53.2c-0.13-0.38-0.28-0.76-0.46-1.15c-0.08-0.16-0.14-0.32-0.23-0.47
							c-0.08-0.16-0.16-0.32-0.25-0.48c-0.08-0.16-0.17-0.32-0.27-0.48c-0.19-0.32-0.38-0.65-0.6-0.98
							c-1.97,3.58-4.36,5.91-4.51,6.05c-0.01,0.01-0.01,0.01-0.01,0.01s-3.48-1.45-7.3-4.16c-0.55-0.38-1.28,0.16-1.06,0.8
							C52.75,68.97,65.69,63.73,61.98,53.2z"/>
					</g>
					<g>
						<path class="st3" d="M61.98,53.2L61.98,53.2c-0.13-0.38-0.28-0.76-0.46-1.15c-0.08-0.16-0.14-0.32-0.23-0.47
							c-0.08-0.16-0.16-0.32-0.25-0.48c-0.08-0.16-0.17-0.32-0.27-0.48c-0.19-0.32-0.38-0.65-0.6-0.98
							c-1.97,3.58-4.36,5.91-4.51,6.05c-0.01,0.01-0.01,0.01-0.01,0.01C59.62,57.58,63.14,58.04,61.98,53.2z"/>
					</g>
				</g>
				<g>
					<g>
						<path class="st2" d="M13.01,53.2L13.01,53.2c0.13-0.38,0.28-0.76,0.46-1.15c0.08-0.16,0.14-0.32,0.23-0.47
							c0.08-0.16,0.16-0.32,0.25-0.48c0.08-0.16,0.17-0.32,0.27-0.48c0.19-0.32,0.38-0.65,0.6-0.98c1.97,3.58,4.36,5.91,4.51,6.05
							c0.01,0.01,0.01,0.01,0.01,0.01s3.48-1.45,7.3-4.16c0.55-0.38,1.28,0.16,1.06,0.8C22.24,68.97,9.3,63.73,13.01,53.2z"/>
					</g>
					<g>
						<path class="st3" d="M13.01,53.2L13.01,53.2c0.13-0.38,0.28-0.76,0.46-1.15c0.08-0.16,0.14-0.32,0.23-0.47
							c0.08-0.16,0.16-0.32,0.25-0.48c0.08-0.16,0.17-0.32,0.27-0.48c0.19-0.32,0.38-0.65,0.6-0.98c1.97,3.58,4.36,5.91,4.51,6.05
							c0.01,0.01,0.01,0.01,0.01,0.01C15.37,57.58,11.85,58.04,13.01,53.2z"/>
					</g>
				</g>
			</g>
		</g>
	</g>
</g>
</svg>
