<svg enable-background="new 0 0 75 75" version="1.1" viewBox="0 0 75 75" xmlns="http://www.w3.org/2000/svg">
 <style type="text/css">.st0{fill:#FFFFFF;}
	.st1{fill-rule:evenodd;clip-rule:evenodd;fill:#BC83FB;}
	.st2{fill-rule:evenodd;clip-rule:evenodd;fill:#8747CC;}
	.st3{fill-rule:evenodd;clip-rule:evenodd;}</style>
 <ellipse class="st0" transform="matrix(.7071 -.7071 .7071 .7071 -15.53 37.5)" cx="37.5" cy="37.5" rx="38.92" ry="36.03"/>
 <circle class="st1" cx="37.5" cy="37.5" r="25.72"/>
 <path d="m37.5 13.76c13.09 0 23.74 10.65 23.74 23.74s-10.65 23.74-23.74 23.74-23.74-10.65-23.74-23.74 10.65-23.74 23.74-23.74m0-1.98c-14.2 0-25.72 11.52-25.72 25.72s11.52 25.72 25.72 25.72 25.72-11.52 25.72-25.72-11.52-25.72-25.72-25.72z"/>
 <path d="m21.76 58.82c-0.34 0-0.68-0.18-0.86-0.5-0.27-0.47-0.11-1.08 0.36-1.36 4.69-2.71 10.32-4.14 16.26-4.14s11.56 1.43 16.26 4.14c0.47 0.27 0.64 0.88 0.36 1.36-0.27 0.48-0.88 0.64-1.35 0.36-4.39-2.53-9.67-3.87-15.26-3.87s-10.87 1.34-15.27 3.87c-0.17 0.1-0.34 0.14-0.5 0.14z"/>
 <path d="m37.52 22.19c-5.95 0-11.58-1.44-16.28-4.15-0.47-0.27-0.64-0.88-0.36-1.36 0.27-0.48 0.88-0.64 1.36-0.36 4.4 2.54 9.68 3.88 15.28 3.88 5.59 0 10.87-1.34 15.26-3.87 0.47-0.27 1.08-0.11 1.36 0.36 0.27 0.47 0.11 1.08-0.36 1.36-4.7 2.71-10.32 4.14-16.26 4.14z"/>
 <path d="m37.5 62.94c-6.23 0-9.95-12.94-9.95-25.44s3.72-25.44 9.95-25.44 9.95 12.94 9.95 25.44-3.73 25.44-9.95 25.44zm0-48.9c-4.69 0-7.96 12.36-7.96 23.46s3.27 23.46 7.96 23.46 7.96-12.36 7.96-23.46-3.27-23.46-7.96-23.46z"/>
 <path d="m61.63 38.49h-48.26c-0.55 0-0.99-0.44-0.99-0.99s0.44-0.99 0.99-0.99h48.26c0.55 0 0.99 0.44 0.99 0.99s-0.44 0.99-0.99 0.99z"/>
 <path class="st0" d="m54.68 46.61h-34.36c-2.27 0-4.11-1.84-4.11-4.11v-10.01c0-2.27 1.84-4.11 4.11-4.11h34.37c2.27 0 4.11 1.84 4.11 4.11v10.01c-0.01 2.27-1.85 4.11-4.12 4.11z"/>
 <path d="m28.56 31.97c-0.99-0.49-2.12-0.74-3.42-0.74h-4.82c-0.32 0-0.58 0.26-0.58 0.58v10.73c0 0.32 0.26 0.58 0.58 0.58h4.82c1.29 0 2.43-0.25 3.42-0.74s1.76-1.18 2.31-2.07 0.83-1.93 0.83-3.13c0-1.21-0.28-2.26-0.83-3.14-0.56-0.89-1.33-1.58-2.31-2.07zm-0.13 7.16c-0.32 0.56-0.78 0.98-1.36 1.28s-1.27 0.45-2.06 0.45h-1.93c-0.32 0-0.58-0.26-0.58-0.58v-6.21c0-0.32 0.26-0.58 0.58-0.58h1.93c0.79 0 1.48 0.15 2.06 0.45s1.04 0.73 1.36 1.27c0.32 0.55 0.48 1.2 0.48 1.96s-0.16 1.41-0.48 1.96z"/>
 <path d="m40.86 37.82-5.22-6.37c-0.11-0.14-0.28-0.21-0.45-0.21h-1.42c-0.32 0-0.58 0.26-0.58 0.58v10.73c0 0.32 0.26 0.58 0.58 0.58h1.55c0.32 0 0.58-0.26 0.58-0.58v-5.82c0-0.27 0.34-0.4 0.52-0.19l5.24 6.38c0.11 0.14 0.28 0.21 0.45 0.21h1.4c0.32 0 0.58-0.26 0.58-0.58v-10.73c0-0.32-0.26-0.58-0.58-0.58h-1.55c-0.32 0-0.58 0.26-0.58 0.58v5.81c0 0.27-0.34 0.4-0.52 0.19z"/>
 <path d="m54.91 38.1c-0.25-0.41-0.59-0.74-0.99-0.99-0.41-0.25-0.86-0.45-1.35-0.59-0.49-0.15-0.99-0.28-1.48-0.39s-0.94-0.23-1.35-0.34-0.74-0.26-0.99-0.45-0.37-0.43-0.37-0.74c0-0.26 0.07-0.49 0.22-0.69s0.39-0.36 0.73-0.48 0.78-0.19 1.31-0.19 1.08 0.08 1.63 0.23c0.37 0.1 0.75 0.24 1.12 0.42 0.3 0.14 0.66 0 0.79-0.31l0.42-1.02c0.12-0.29-0.02-0.61-0.29-0.75-0.43-0.22-0.91-0.39-1.43-0.52-0.73-0.18-1.46-0.26-2.21-0.26-1.12 0-2.05 0.17-2.8 0.5-0.74 0.33-1.3 0.78-1.67 1.34s-0.55 1.18-0.55 1.86c0 0.63 0.13 1.16 0.38 1.56 0.25 0.41 0.59 0.74 0.99 0.99 0.41 0.25 0.86 0.45 1.35 0.61s0.99 0.29 1.48 0.4 0.94 0.22 1.35 0.34c0.38 0.11 0.69 0.25 0.94 0.42 0.24 0.17 0.41 0.44 0.42 0.74 0.01 0.27-0.07 0.51-0.24 0.72-0.16 0.19-0.41 0.34-0.74 0.45s-0.77 0.16-1.32 0.16c-0.71 0-1.42-0.12-2.12-0.35-0.47-0.16-0.89-0.34-1.28-0.56-0.3-0.17-0.67-0.04-0.81 0.27l-0.45 1.02c-0.12 0.27-0.02 0.6 0.24 0.75 0.46 0.27 1.02 0.51 1.66 0.7 0.87 0.25 1.78 0.38 2.74 0.38 1.13 0 2.07-0.17 2.81-0.51s1.3-0.79 1.67-1.34c0.37-0.56 0.56-1.17 0.56-1.84 0.01-0.62-0.12-1.14-0.37-1.54z"/>
 <path class="st2" d="m61.98 21.8c-0.13 0.38-0.28 0.76-0.46 1.15-0.08 0.16-0.14 0.32-0.23 0.47-0.08 0.16-0.16 0.32-0.25 0.48-0.08 0.16-0.17 0.32-0.27 0.48-0.19 0.32-0.38 0.65-0.6 0.98-1.97-3.58-4.36-5.91-4.51-6.05l-0.01-0.01s-3.48 1.45-7.3 4.16c-0.55 0.38-1.28-0.16-1.06-0.8 5.46-16.63 18.4-11.39 14.69-0.86z"/>
 <path class="st3" d="m61.98 21.8c-0.13 0.38-0.28 0.76-0.46 1.15-0.08 0.16-0.14 0.32-0.23 0.47-0.08 0.16-0.16 0.32-0.25 0.48-0.08 0.16-0.17 0.32-0.27 0.48-0.19 0.32-0.38 0.65-0.6 0.98-1.97-3.58-4.36-5.91-4.51-6.05l-0.01-0.01c3.97-1.87 7.49-2.34 6.33 2.5z"/>
 <path class="st2" d="m13.01 21.8c0.13 0.38 0.28 0.76 0.46 1.15 0.08 0.16 0.14 0.32 0.23 0.47 0.08 0.16 0.16 0.32 0.25 0.48 0.08 0.16 0.17 0.32 0.27 0.48 0.19 0.32 0.38 0.65 0.6 0.98 1.97-3.58 4.36-5.91 4.51-6.05l0.01-0.01s3.48 1.45 7.3 4.16c0.55 0.38 1.28-0.16 1.06-0.8-5.46-16.63-18.4-11.39-14.69-0.86z"/>
 <path class="st3" d="m13.01 21.8c0.13 0.38 0.28 0.76 0.46 1.15 0.08 0.16 0.14 0.32 0.23 0.47 0.08 0.16 0.16 0.32 0.25 0.48 0.08 0.16 0.17 0.32 0.27 0.48 0.19 0.32 0.38 0.65 0.6 0.98 1.97-3.58 4.36-5.91 4.51-6.05l0.01-0.01c-3.97-1.87-7.49-2.34-6.33 2.5z"/>
 <path class="st2" d="m61.98 53.2c-0.13-0.38-0.28-0.76-0.46-1.15-0.08-0.16-0.14-0.32-0.23-0.47-0.08-0.16-0.16-0.32-0.25-0.48-0.08-0.16-0.17-0.32-0.27-0.48-0.19-0.32-0.38-0.65-0.6-0.98-1.97 3.58-4.36 5.91-4.51 6.05l-0.01 0.01s-3.48-1.45-7.3-4.16c-0.55-0.38-1.28 0.16-1.06 0.8 5.46 16.63 18.4 11.39 14.69 0.86z"/>
 <path class="st3" d="m61.98 53.2c-0.13-0.38-0.28-0.76-0.46-1.15-0.08-0.16-0.14-0.32-0.23-0.47-0.08-0.16-0.16-0.32-0.25-0.48-0.08-0.16-0.17-0.32-0.27-0.48-0.19-0.32-0.38-0.65-0.6-0.98-1.97 3.58-4.36 5.91-4.51 6.05l-0.01 0.01c3.97 1.88 7.49 2.34 6.33-2.5z"/>
 <path class="st2" d="m13.01 53.2c0.13-0.38 0.28-0.76 0.46-1.15 0.08-0.16 0.14-0.32 0.23-0.47 0.08-0.16 0.16-0.32 0.25-0.48 0.08-0.16 0.17-0.32 0.27-0.48 0.19-0.32 0.38-0.65 0.6-0.98 1.97 3.58 4.36 5.91 4.51 6.05l0.01 0.01s3.48-1.45 7.3-4.16c0.55-0.38 1.28 0.16 1.06 0.8-5.46 16.63-18.4 11.39-14.69 0.86z"/>
 <path class="st3" d="m13.01 53.2c0.13-0.38 0.28-0.76 0.46-1.15 0.08-0.16 0.14-0.32 0.23-0.47 0.08-0.16 0.16-0.32 0.25-0.48 0.08-0.16 0.17-0.32 0.27-0.48 0.19-0.32 0.38-0.65 0.6-0.98 1.97 3.58 4.36 5.91 4.51 6.05l0.01 0.01c-3.97 1.88-7.49 2.34-6.33-2.5z"/>
</svg>
