<svg enable-background="new 0 0 75 75" version="1.1" viewBox="0 0 75 75" xmlns="http://www.w3.org/2000/svg">
 <style type="text/css">.st0{fill-rule:evenodd;clip-rule:evenodd;fill:#BC83FB;}
	.st1{fill:#1C1C1C;}
	.st2{fill:#BC83FB;}</style>
 <path class="st0" d="m74.49 34.7-10.51 9.85c-0.96 0.9-2.45 0.89-3.4-0.02l-8.18-7.8c-0.66-0.63-0.67-1.68-0.02-2.33l2.2-2.17c0.64-0.63 1.67-0.63 2.31 0l4.65 4.62c0.41 0.4 1.06 0.4 1.47 0l6.87-6.83c0.64-0.64 1.67-0.64 2.31 0l2.34 2.33c0.64 0.67 0.63 1.72-0.04 2.35z"/>
 <path class="st0" d="m48.72 5.14-10.52 9.85c-0.96 0.9-2.45 0.89-3.4-0.02l-8.18-7.8c-0.66-0.63-0.67-1.68-0.02-2.33l2.2-2.17c0.64-0.63 1.67-0.63 2.31 0l4.65 4.62c0.41 0.4 1.06 0.4 1.47 0l6.87-6.83c0.64-0.64 1.67-0.64 2.31 0l2.34 2.33c0.65 0.66 0.64 1.72-0.03 2.35z"/>
 <path class="st1" d="m11.51 56.09c-1.8-2.42-0.89-5.43 1.64-5.43s4.79 3.03 4.06 5.44c-0.73 2.42-3.9 2.41-5.7-0.01z"/>
 <path class="st1" d="m20.79 64.07c-1.81-1.24-1.89-3.53-0.15-4.12s4.01 0.97 4.07 2.8c0.07 1.83-2.11 2.57-3.92 1.32z"/>
 <path class="st1" d="m18.34 10.75c2.5-1.7 5.5-0.67 5.39 1.85s-3.23 4.64-5.63 3.81c-2.4-0.82-2.26-3.96 0.24-5.66z"/>
 <path class="st1" d="m9.95 19.66c1.32-1.75 3.62-1.74 4.14 0.02s-1.13 3.94-2.98 3.93-2.48-2.21-1.16-3.95z"/>
 <path class="st2" d="m2.39 44.75-1.85-1.85c-0.72-0.71-0.72-1.86 0-2.57l10.04-9.98c0.72-0.71 1.87-0.71 2.59 0l1.86 1.85c0.72 0.71 0.72 1.86 0 2.57l-10.05 9.98c-0.71 0.71-1.87 0.71-2.59 0z"/>
 <path class="st2" d="m15.02 42.9-1.86 1.85c-0.72 0.71-1.87 0.71-2.59 0l-10.03-9.98c-0.72-0.71-0.72-1.86 0-2.57l1.86-1.85c0.72-0.71 1.87-0.71 2.59 0l10.04 9.98c0.7 0.71 0.7 1.86-0.01 2.57z"/>
 <path class="st2" d="m32.29 74.47-1.86-1.85c-0.72-0.71-0.72-1.86 0-2.57l10.04-9.98c0.72-0.71 1.87-0.71 2.59 0l1.86 1.85c0.72 0.71 0.72 1.86 0 2.57l-10.04 9.98c-0.72 0.71-1.87 0.71-2.59 0z"/>
 <path class="st2" d="m44.92 72.62-1.86 1.85c-0.72 0.71-1.87 0.71-2.59 0l-10.04-9.98c-0.72-0.71-0.72-1.86 0-2.57l1.86-1.85c0.72-0.71 1.87-0.71 2.59 0l10.04 9.98c0.71 0.71 0.71 1.86 0 2.57z"/>
 <path class="st1" d="m67.56 52.45c-1.37 5.72-6.1 10.58-11.67 12.46-0.54 0.18-1.13-0.03-1.42-0.52-0.33-0.57-0.78-1.33-1.1-1.89-0.26-0.44-0.2-1 0.15-1.38 2.55-2.78 4.99-5.44 7.3-8.42 0.66-0.82 1.31-1.65 2.04-2.48 0.34-0.39 0.89-0.5 1.36-0.3l2.67 1.16c0.53 0.23 0.81 0.81 0.67 1.37z"/>
 <path class="st1" d="m50.35 64.5 2.58-7.57c0.27-0.8 1.34-0.94 1.82-0.25l5.81 8.44c0.49 0.72-0.08 1.68-0.95 1.59l-8.39-0.87c-0.66-0.07-1.08-0.72-0.87-1.34z"/>
 <path class="st1" d="m53.88 8.95c5.71 1.52 10.47 6.35 12.21 11.94 0.17 0.54-0.06 1.13-0.56 1.4-0.58 0.31-1.36 0.73-1.93 1.04-0.45 0.24-1.01 0.17-1.39-0.19-2.73-2.61-5.34-5.11-8.26-7.48-0.8-0.68-1.62-1.35-2.44-2.09-0.38-0.34-0.48-0.9-0.26-1.36l1.24-2.62c0.25-0.53 0.83-0.79 1.39-0.64z"/>
 <path class="st1" d="m65.52 26.38-7.54-2.78c-0.79-0.29-0.91-1.36-0.2-1.82l8.65-5.54c0.74-0.47 1.69 0.13 1.57 0.99l-1.11 8.32c-0.08 0.66-0.75 1.06-1.37 0.83z"/>
</svg>
