<?xml version="1.0" encoding="utf-8"?>
<!-- Generator: Adobe Illustrator 26.4.1, SVG Export Plug-In . SVG Version: 6.00 Build 0)  -->
<svg version="1.1" id="Layer_1" xmlns="http://www.w3.org/2000/svg" xmlns:xlink="http://www.w3.org/1999/xlink" x="0px" y="0px"
	 viewBox="0 0 75 75" style="enable-background:new 0 0 75 75;" xml:space="preserve">
<style type="text/css">
	.st0{fill:#BC83FB;}
	.st1{fill:#1C1C1C;}
</style>
<g>
	<g>
		<g>
			<g>
				
					<ellipse transform="matrix(0.3428 -0.9394 0.9394 0.3428 24.085 45.7055)" class="st0" cx="44.71" cy="5.64" rx="5.78" ry="4.46"/>
			</g>
			<g>
				
					<ellipse transform="matrix(0.6537 -0.7568 0.7568 0.6537 9.9958 46.0044)" class="st0" cx="55.26" cy="12.08" rx="3.4" ry="2.62"/>
			</g>
		</g>
		<g>
			<g>
				
					<ellipse transform="matrix(0.9394 -0.3428 0.3428 0.9394 -0.1089 10.6624)" class="st0" cx="30.11" cy="5.64" rx="4.46" ry="5.78"/>
			</g>
			<g>
				
					<ellipse transform="matrix(0.7568 -0.6537 0.6537 0.7568 -3.1409 15.7202)" class="st0" cx="19.55" cy="12.08" rx="2.62" ry="3.4"/>
			</g>
		</g>
	</g>
	<g>
		<g>
			<g>
				<g>
					<path class="st0" d="M51.38,44.81l-0.6,6.76c-4.13-7.11-9.11-10.3-12.7-6.96c-0.38,0.36-0.41,0.97-0.06,1.36
						c7.13,8.21,4.25,15.07,13.86,22.06c0.28,0.21,0.44,0.55,0.39,0.9l-0.68,5C51.5,74.5,51.95,75,52.53,75h11.98
						c0.48,0,0.88-0.35,0.95-0.83l0.7-5.31c6.05-0.81,6.65-8.56,7.26-19.33C73.41,49.54,62.83,41.85,51.38,44.81z"/>
				</g>
				<g>
					<path class="st1" d="M61.78,61.91c-0.07,0-0.15-0.01-0.22-0.04c-0.37-0.12-0.56-0.52-0.44-0.89c0.92-2.72,0.7-5-0.63-6.58
						c-1.66-1.98-4.99-2.76-9.14-2.15c-0.38,0.05-0.74-0.21-0.8-0.59s0.21-0.74,0.59-0.8c4.64-0.69,8.44,0.27,10.42,2.63
						c1.15,1.38,2.24,3.87,0.88,7.92C62.35,61.72,62.08,61.91,61.78,61.91z"/>
				</g>
				<g>
					<path class="st0" d="M51.38,44.81l2.32-19.75c0.18-1.51,1.54-2.6,3.06-2.44h0c1.52,0.16,2.63,1.52,2.47,3.05l-1.91,18.47
						L51.38,44.81z"/>
				</g>
				<g>
					<path class="st0" d="M69.05,47.21l1.8-19.8c0.14-1.52-0.97-2.86-2.49-3.01h0c-1.53-0.16-2.89,0.95-3.05,2.47l-1.94,18.47
						L69.05,47.21z"/>
				</g>
				<g>
					<path class="st0" d="M73.41,49.54l1.58-17.23c0.12-1.26-0.8-2.38-2.06-2.51h0c-1.28-0.14-2.42,0.79-2.56,2.06L68.75,47.4
						L73.41,49.54z"/>
				</g>
				<g>
					<path class="st0" d="M57.32,44.14l2.4-23.1c0.17-1.68,1.67-2.9,3.35-2.75h0c1.69,0.16,2.94,1.65,2.78,3.34l-2.15,23.46
						L57.32,44.14z"/>
				</g>
			</g>
			<g>
				<path class="st1" d="M72.6,49.81c-0.13,0-0.25-0.03-0.37-0.11c-10.5-6.53-19.75-3.94-19.85-3.91c-0.37,0.11-0.76-0.1-0.87-0.47
					c-0.11-0.37,0.1-0.76,0.47-0.87c0.4-0.12,9.92-2.81,20.98,4.07c0.33,0.2,0.43,0.64,0.22,0.96C73.07,49.7,72.84,49.81,72.6,49.81
					z"/>
			</g>
			<g>
				<path class="st1" d="M63.46,45.66c-0.02,0-0.05,0-0.07,0c-0.38-0.04-0.66-0.39-0.62-0.77l1.91-17.98
					c0.04-0.38,0.39-0.66,0.77-0.62c0.38,0.04,0.66,0.39,0.62,0.77l-1.91,17.98C64.11,45.39,63.81,45.66,63.46,45.66z"/>
			</g>
			<g>
				<path class="st1" d="M68.81,47.53c-0.03,0-0.05,0-0.08,0c-0.38-0.04-0.66-0.39-0.62-0.77l1.6-14.65
					c0.04-0.38,0.38-0.67,0.77-0.62c0.38,0.04,0.66,0.39,0.62,0.77l-1.6,14.65C69.47,47.27,69.17,47.53,68.81,47.53z"/>
			</g>
			<g>
				<path class="st1" d="M57.32,44.84c-0.02,0-0.05,0-0.07,0c-0.38-0.04-0.66-0.38-0.62-0.77l1.84-17.8
					c0.04-0.38,0.39-0.67,0.77-0.62c0.38,0.04,0.66,0.38,0.62,0.77l-1.84,17.8C57.98,44.57,57.68,44.84,57.32,44.84z"/>
			</g>
			<g>
				<path class="st1" d="M66.15,68.86h-3.71c-0.37,0-0.49,0.49-0.17,0.67l3.54,1.92L66.15,68.86z"/>
			</g>
		</g>
		<g>
			<g>
				<g>
					<path class="st0" d="M23.62,44.81l0.6,6.76c4.13-7.11,9.11-10.3,12.7-6.96c0.38,0.36,0.41,0.97,0.06,1.36
						c-7.13,8.21-4.25,15.07-13.86,22.06c-0.28,0.21-0.44,0.55-0.39,0.9l0.68,5C23.5,74.5,23.05,75,22.47,75H10.49
						c-0.48,0-0.88-0.35-0.95-0.83l-0.7-5.31c-6.05-0.81-6.65-8.56-7.26-19.33C1.59,49.54,12.17,41.85,23.62,44.81z"/>
				</g>
				<g>
					<path class="st1" d="M13.22,61.91c-0.29,0-0.56-0.18-0.66-0.48c-1.36-4.05-0.27-6.54,0.88-7.92c1.98-2.36,5.78-3.32,10.42-2.63
						c0.38,0.06,0.65,0.41,0.59,0.8s-0.42,0.64-0.8,0.59c-4.15-0.62-7.48,0.16-9.14,2.15c-1.33,1.58-1.54,3.86-0.63,6.58
						c0.12,0.37-0.07,0.76-0.44,0.89C13.36,61.89,13.29,61.91,13.22,61.91z"/>
				</g>
				<g>
					<path class="st0" d="M23.62,44.81l-2.32-19.75c-0.18-1.51-1.54-2.6-3.06-2.44h0c-1.52,0.16-2.63,1.52-2.47,3.05l1.91,18.47
						L23.62,44.81z"/>
				</g>
				<g>
					<path class="st0" d="M5.95,47.21l-1.8-19.8c-0.14-1.52,0.97-2.86,2.49-3.01h0c1.53-0.16,2.89,0.95,3.05,2.47l1.94,18.47
						L5.95,47.21z"/>
				</g>
				<g>
					<path class="st0" d="M1.59,49.54L0.01,32.31c-0.12-1.26,0.8-2.38,2.06-2.51h0c1.28-0.14,2.42,0.79,2.56,2.06L6.25,47.4
						L1.59,49.54z"/>
				</g>
				<g>
					<path class="st0" d="M17.68,44.14l-2.4-23.1c-0.17-1.68-1.67-2.9-3.35-2.75h0c-1.69,0.16-2.94,1.65-2.78,3.34l2.15,23.46
						L17.68,44.14z"/>
				</g>
			</g>
			<g>
				<path class="st1" d="M2.4,49.81c-0.23,0-0.46-0.12-0.59-0.33c-0.2-0.33-0.1-0.76,0.22-0.96c11.06-6.88,20.58-4.19,20.98-4.07
					c0.37,0.11,0.58,0.5,0.47,0.87c-0.11,0.37-0.5,0.58-0.87,0.47c-0.09-0.03-9.35-2.62-19.85,3.91C2.65,49.78,2.52,49.81,2.4,49.81
					z"/>
			</g>
			<g>
				<path class="st1" d="M11.54,45.66c-0.35,0-0.66-0.27-0.7-0.63L8.94,27.05c-0.04-0.38,0.24-0.73,0.62-0.77
					c0.38-0.03,0.73,0.24,0.77,0.62l1.91,17.98c0.04,0.38-0.24,0.73-0.62,0.77C11.59,45.66,11.57,45.66,11.54,45.66z"/>
			</g>
			<g>
				<path class="st1" d="M6.19,47.53c-0.35,0-0.66-0.27-0.69-0.62l-1.6-14.65c-0.04-0.38,0.24-0.73,0.62-0.77
					c0.38-0.05,0.73,0.24,0.77,0.62l1.6,14.65c0.04,0.38-0.24,0.73-0.62,0.77C6.24,47.53,6.21,47.53,6.19,47.53z"/>
			</g>
			<g>
				<path class="st1" d="M17.68,44.84c-0.35,0-0.66-0.27-0.7-0.63l-1.84-17.8c-0.04-0.38,0.24-0.73,0.62-0.77
					c0.38-0.04,0.73,0.24,0.77,0.62l1.84,17.8c0.04,0.38-0.24,0.73-0.62,0.77C17.73,44.84,17.7,44.84,17.68,44.84z"/>
			</g>
			<g>
				<path class="st1" d="M8.85,68.86h3.71c0.37,0,0.49,0.49,0.17,0.67l-3.54,1.92L8.85,68.86z"/>
			</g>
		</g>
	</g>
</g>
</svg>
