<svg enable-background="new 0 0 75 75" version="1.1" viewBox="0 0 75 75" xmlns="http://www.w3.org/2000/svg">
 <style type="text/css">.st0{fill:#FFFFFF;}
	.st1{fill:#BC83FB;}</style>
 <ellipse class="st0" transform="matrix(.7071 -.7071 .7071 .7071 -15.53 37.5)" cx="37.5" cy="37.5" rx="38.92" ry="36.03"/>
 <ellipse class="st1" transform="matrix(.3428 -.9394 .9394 .3428 14.36 49.68)" cx="42.69" cy="14.57" rx="4.16" ry="3.21"/>
 <ellipse class="st1" transform="matrix(.6537 -.7568 .7568 .6537 2.877 44.7)" cx="50.28" cy="19.21" rx="2.45" ry="1.89"/>
 <ellipse class="st1" transform="matrix(.9394 -.3428 .3428 .9394 -3.046 11.91)" cx="32.18" cy="14.57" rx="3.21" ry="4.16"/>
 <ellipse class="st1" transform="matrix(.7568 -.6537 .6537 .7568 -6.576 20.74)" cx="24.59" cy="19.21" rx="1.89" ry="2.45"/>
 <path class="st1" d="m47.49 42.75-0.44 4.86c-2.97-5.11-6.55-7.41-9.14-5.01-0.28 0.26-0.29 0.7-0.05 0.98 5.13 5.91 3.06 10.84 9.97 15.87 0.2 0.15 0.32 0.4 0.28 0.65l-0.49 3.6c-0.06 0.41 0.26 0.78 0.68 0.78h8.62c0.34 0 0.64-0.25 0.68-0.6l0.5-3.82c4.35-0.58 4.79-6.16 5.22-13.91 0.02 0.01-7.59-5.52-15.83-3.4z"/>
 <path d="m54.97 55.18c-0.07 0-0.13-0.01-0.2-0.03-0.33-0.11-0.51-0.47-0.4-0.8 0.64-1.91 0.49-3.51-0.43-4.61-1.17-1.39-3.52-1.94-6.46-1.5-0.34 0.05-0.66-0.19-0.72-0.53-0.05-0.34 0.19-0.67 0.53-0.72 3.43-0.51 6.14 0.18 7.61 1.94 0.85 1.02 1.66 2.85 0.66 5.82-0.08 0.27-0.32 0.43-0.59 0.43z"/>
 <path class="st1" d="m47.49 42.75 1.67-14.21c0.13-1.09 1.11-1.87 2.2-1.75 1.1 0.12 1.89 1.1 1.78 2.19l-1.38 13.29-4.27 0.48z"/>
 <path class="st1" d="m60.2 44.49 1.29-14.25c0.1-1.09-0.7-2.06-1.79-2.17-1.1-0.11-2.08 0.68-2.19 1.78l-1.39 13.29 4.08 1.35z"/>
 <path class="st1" d="m63.34 46.16 1.14-12.4c0.08-0.91-0.58-1.71-1.48-1.81-0.92-0.1-1.74 0.57-1.84 1.48l-1.17 11.18 3.35 1.55z"/>
 <path class="st1" d="m51.76 42.27 1.73-16.62c0.13-1.21 1.2-2.09 2.41-1.98 1.22 0.11 2.11 1.19 2 2.41l-1.54 16.88-4.6-0.69z"/>
 <path d="m62.76 46.48c-0.11 0-0.23-0.03-0.33-0.09-7.5-4.67-14.11-2.82-14.18-2.8-0.34 0.1-0.68-0.09-0.78-0.43-0.1-0.33 0.09-0.68 0.42-0.78 0.29-0.08 7.19-2.04 15.2 2.94 0.29 0.18 0.39 0.57 0.2 0.87-0.12 0.19-0.32 0.29-0.53 0.29z"/>
 <path d="m56.18 43.5h-0.07c-0.35-0.04-0.6-0.35-0.56-0.69l1.37-12.94c0.04-0.35 0.35-0.59 0.69-0.56 0.35 0.04 0.6 0.35 0.56 0.69l-1.37 12.93c-0.03 0.33-0.3 0.57-0.62 0.57z"/>
 <path d="m60.03 44.84h-0.07c-0.35-0.04-0.6-0.35-0.56-0.69l1.15-10.54c0.04-0.35 0.35-0.6 0.69-0.56 0.35 0.04 0.6 0.35 0.56 0.69l-1.15 10.54c-0.03 0.32-0.3 0.56-0.62 0.56z"/>
 <path d="m51.76 42.9h-0.07c-0.35-0.04-0.6-0.35-0.56-0.69l1.33-12.81c0.04-0.35 0.35-0.59 0.69-0.56 0.35 0.04 0.6 0.35 0.56 0.69l-1.33 12.81c-0.02 0.32-0.3 0.56-0.62 0.56z"/>
 <path d="m58.12 60.07h-2.67c-0.27 0-0.36 0.35-0.12 0.48l2.55 1.38 0.24-1.86z"/>
 <path class="st1" d="m27.51 42.75 0.44 4.86c2.97-5.11 6.55-7.41 9.14-5.01 0.28 0.26 0.29 0.7 0.05 0.98-5.14 5.92-3.07 10.85-9.98 15.88-0.2 0.15-0.32 0.4-0.28 0.65l0.49 3.6c0.06 0.41-0.26 0.78-0.68 0.78h-8.62c-0.34 0-0.64-0.25-0.68-0.6l-0.5-3.82c-4.35-0.58-4.79-6.16-5.22-13.91-0.01 0 7.6-5.53 15.84-3.41z"/>
 <path d="m20.03 55.18c-0.26 0-0.51-0.17-0.6-0.43-1-2.97-0.19-4.81 0.66-5.82 1.47-1.76 4.18-2.45 7.61-1.94 0.34 0.05 0.58 0.37 0.53 0.72-0.05 0.34-0.38 0.58-0.72 0.53-2.94-0.44-5.3 0.11-6.46 1.5-0.92 1.1-1.07 2.7-0.43 4.61 0.11 0.33-0.07 0.69-0.4 0.8-0.06 0.02-0.13 0.03-0.19 0.03z"/>
 <path class="st1" d="m27.51 42.75-1.67-14.21c-0.13-1.09-1.11-1.87-2.2-1.75-1.1 0.12-1.89 1.1-1.78 2.19l1.38 13.29 4.27 0.48z"/>
 <path class="st1" d="m14.8 44.49-1.3-14.25c-0.1-1.09 0.7-2.06 1.79-2.17 1.1-0.11 2.08 0.68 2.19 1.78l1.39 13.29-4.07 1.35z"/>
 <path class="st1" d="m11.66 46.16-1.14-12.4c-0.08-0.91 0.58-1.71 1.48-1.81 0.92-0.1 1.74 0.57 1.84 1.48l1.17 11.18-3.35 1.55z"/>
 <path class="st1" d="m23.24 42.27-1.73-16.62c-0.13-1.21-1.2-2.09-2.41-1.98-1.22 0.11-2.11 1.19-2 2.41l1.54 16.88 4.6-0.69z"/>
 <path d="m12.24 46.48c-0.21 0-0.42-0.11-0.54-0.3-0.18-0.3-0.09-0.68 0.2-0.87 8.01-4.98 14.91-3.03 15.2-2.94 0.33 0.1 0.52 0.45 0.42 0.78s-0.44 0.53-0.78 0.43c-0.06-0.02-6.68-1.86-14.18 2.8-0.09 0.07-0.2 0.1-0.32 0.1z"/>
 <path d="m18.82 43.5c-0.32 0-0.59-0.24-0.63-0.56l-1.37-12.94c-0.04-0.35 0.21-0.66 0.56-0.69 0.34-0.03 0.66 0.21 0.69 0.56l1.37 12.94c0.04 0.35-0.21 0.66-0.56 0.69h-0.06z"/>
 <path d="m14.97 44.84c-0.32 0-0.59-0.24-0.62-0.56l-1.15-10.54c-0.04-0.35 0.21-0.66 0.56-0.69 0.34-0.04 0.66 0.21 0.69 0.56l1.15 10.54c0.04 0.35-0.21 0.66-0.56 0.69h-0.07z"/>
 <path d="m23.24 42.9c-0.32 0-0.59-0.24-0.63-0.56l-1.33-12.81c-0.04-0.35 0.22-0.66 0.56-0.69 0.36-0.03 0.66 0.22 0.69 0.56l1.33 12.81c0.04 0.35-0.22 0.66-0.56 0.69h-0.06z"/>
 <path d="m16.88 60.07h2.67c0.27 0 0.36 0.35 0.12 0.48l-2.55 1.38-0.24-1.86z"/>
</svg>
