<?xml version="1.0" encoding="utf-8"?>
<!-- Generator: Adobe Illustrator 27.0.0, SVG Export Plug-In . SVG Version: 6.00 Build 0)  -->
<svg version="1.1" id="Layer_1" xmlns="http://www.w3.org/2000/svg" xmlns:xlink="http://www.w3.org/1999/xlink" x="0px" y="0px"
	 viewBox="0 0 75 75" style="enable-background:new 0 0 75 75;" xml:space="preserve">
<style type="text/css">
	.st0{fill:#FFFFFF;}
	.st1{fill:#BC83FB;}
</style>
<g>
	<g>
		<ellipse transform="matrix(0.7071 -0.7071 0.7071 0.7071 -15.533 37.5)" class="st0" cx="37.5" cy="37.5" rx="38.92" ry="36.03"/>
	</g>
	<g>
		<g>
			<g>
				<g>
					
						<ellipse transform="matrix(0.3428 -0.9394 0.9394 0.3428 14.3635 49.6781)" class="st1" cx="42.69" cy="14.57" rx="4.16" ry="3.21"/>
				</g>
				<g>
					
						<ellipse transform="matrix(0.6537 -0.7568 0.7568 0.6537 2.8766 44.7025)" class="st1" cx="50.28" cy="19.21" rx="2.45" ry="1.89"/>
				</g>
			</g>
			<g>
				<g>
					
						<ellipse transform="matrix(0.9394 -0.3428 0.3428 0.9394 -3.0458 11.9143)" class="st1" cx="32.18" cy="14.57" rx="3.21" ry="4.16"/>
				</g>
				<g>
					
						<ellipse transform="matrix(0.7568 -0.6537 0.6537 0.7568 -6.5758 20.7445)" class="st1" cx="24.59" cy="19.21" rx="1.89" ry="2.45"/>
				</g>
			</g>
		</g>
		<g>
			<g>
				<g>
					<g>
						<path class="st1" d="M47.49,42.75l-0.44,4.86c-2.97-5.11-6.55-7.41-9.14-5.01c-0.28,0.26-0.29,0.7-0.05,0.98
							c5.13,5.91,3.06,10.84,9.97,15.87c0.2,0.15,0.32,0.4,0.28,0.65l-0.49,3.6c-0.06,0.41,0.26,0.78,0.68,0.78h8.62
							c0.34,0,0.64-0.25,0.68-0.6l0.5-3.82c4.35-0.58,4.79-6.16,5.22-13.91C63.34,46.16,55.73,40.63,47.49,42.75z"/>
					</g>
					<g>
						<path d="M54.97,55.18c-0.07,0-0.13-0.01-0.2-0.03c-0.33-0.11-0.51-0.47-0.4-0.8c0.64-1.91,0.49-3.51-0.43-4.61
							c-1.17-1.39-3.52-1.94-6.46-1.5c-0.34,0.05-0.66-0.19-0.72-0.53c-0.05-0.34,0.19-0.67,0.53-0.72
							c3.43-0.51,6.14,0.18,7.61,1.94c0.85,1.02,1.66,2.85,0.66,5.82C55.48,55.02,55.24,55.18,54.97,55.18z"/>
					</g>
					<g>
						<path class="st1" d="M47.49,42.75l1.67-14.21c0.13-1.09,1.11-1.87,2.2-1.75h0c1.1,0.12,1.89,1.1,1.78,2.19l-1.38,13.29
							L47.49,42.75z"/>
					</g>
					<g>
						<path class="st1" d="M60.2,44.49l1.29-14.25c0.1-1.09-0.7-2.06-1.79-2.17l0,0c-1.1-0.11-2.08,0.68-2.19,1.78l-1.39,13.29
							L60.2,44.49z"/>
					</g>
					<g>
						<path class="st1" d="M63.34,46.16l1.14-12.4c0.08-0.91-0.58-1.71-1.48-1.81l0,0c-0.92-0.1-1.74,0.57-1.84,1.48l-1.17,11.18
							L63.34,46.16z"/>
					</g>
					<g>
						<path class="st1" d="M51.76,42.27l1.73-16.62c0.13-1.21,1.2-2.09,2.41-1.98h0c1.22,0.11,2.11,1.19,2,2.41l-1.54,16.88
							L51.76,42.27z"/>
					</g>
				</g>
				<g>
					<path d="M62.76,46.48c-0.11,0-0.23-0.03-0.33-0.09c-7.5-4.67-14.11-2.82-14.18-2.8c-0.34,0.1-0.68-0.09-0.78-0.43
						c-0.1-0.33,0.09-0.68,0.42-0.78c0.29-0.08,7.19-2.04,15.2,2.94c0.29,0.18,0.39,0.57,0.2,0.87
						C63.17,46.38,62.97,46.48,62.76,46.48z"/>
				</g>
				<g>
					<path d="M56.18,43.5c-0.02,0-0.04,0-0.07,0c-0.35-0.04-0.6-0.35-0.56-0.69l1.37-12.94c0.04-0.35,0.35-0.59,0.69-0.56
						c0.35,0.04,0.6,0.35,0.56,0.69L56.8,42.93C56.77,43.26,56.5,43.5,56.18,43.5z"/>
				</g>
				<g>
					<path d="M60.03,44.84c-0.02,0-0.05,0-0.07,0c-0.35-0.04-0.6-0.35-0.56-0.69l1.15-10.54c0.04-0.35,0.35-0.6,0.69-0.56
						c0.35,0.04,0.6,0.35,0.56,0.69l-1.15,10.54C60.62,44.6,60.35,44.84,60.03,44.84z"/>
				</g>
				<g>
					<path d="M51.76,42.9c-0.02,0-0.04,0-0.07,0c-0.35-0.04-0.6-0.35-0.56-0.69l1.33-12.81c0.04-0.35,0.35-0.59,0.69-0.56
						c0.35,0.04,0.6,0.35,0.56,0.69l-1.33,12.81C52.36,42.66,52.08,42.9,51.76,42.9z"/>
				</g>
				<g>
					<path d="M58.12,60.07h-2.67c-0.27,0-0.36,0.35-0.12,0.48l2.55,1.38L58.12,60.07z"/>
				</g>
			</g>
			<g>
				<g>
					<g>
						<path class="st1" d="M27.51,42.75l0.44,4.86c2.97-5.11,6.55-7.41,9.14-5.01c0.28,0.26,0.29,0.7,0.05,0.98
							C32,49.5,34.07,54.43,27.16,59.46c-0.2,0.15-0.32,0.4-0.28,0.65l0.49,3.6c0.06,0.41-0.26,0.78-0.68,0.78h-8.62
							c-0.34,0-0.64-0.25-0.68-0.6l-0.5-3.82c-4.35-0.58-4.79-6.16-5.22-13.91C11.66,46.16,19.27,40.63,27.51,42.75z"/>
					</g>
					<g>
						<path d="M20.03,55.18c-0.26,0-0.51-0.17-0.6-0.43c-1-2.97-0.19-4.81,0.66-5.82c1.47-1.76,4.18-2.45,7.61-1.94
							c0.34,0.05,0.58,0.37,0.53,0.72c-0.05,0.34-0.38,0.58-0.72,0.53c-2.94-0.44-5.3,0.11-6.46,1.5c-0.92,1.1-1.07,2.7-0.43,4.61
							c0.11,0.33-0.07,0.69-0.4,0.8C20.16,55.17,20.09,55.18,20.03,55.18z"/>
					</g>
					<g>
						<path class="st1" d="M27.51,42.75l-1.67-14.21c-0.13-1.09-1.11-1.87-2.2-1.75h0c-1.1,0.12-1.89,1.1-1.78,2.19l1.38,13.29
							L27.51,42.75z"/>
					</g>
					<g>
						<path class="st1" d="M14.8,44.49L13.5,30.24c-0.1-1.09,0.7-2.06,1.79-2.17l0,0c1.1-0.11,2.08,0.68,2.19,1.78l1.39,13.29
							L14.8,44.49z"/>
					</g>
					<g>
						<path class="st1" d="M11.66,46.16l-1.14-12.4c-0.08-0.91,0.58-1.71,1.48-1.81l0,0c0.92-0.1,1.74,0.57,1.84,1.48l1.17,11.18
							L11.66,46.16z"/>
					</g>
					<g>
						<path class="st1" d="M23.24,42.27l-1.73-16.62c-0.13-1.21-1.2-2.09-2.41-1.98h0c-1.22,0.11-2.11,1.19-2,2.41l1.54,16.88
							L23.24,42.27z"/>
					</g>
				</g>
				<g>
					<path d="M12.24,46.48c-0.21,0-0.42-0.11-0.54-0.3c-0.18-0.3-0.09-0.68,0.2-0.87c8.01-4.98,14.91-3.03,15.2-2.94
						c0.33,0.1,0.52,0.45,0.42,0.78c-0.1,0.33-0.44,0.53-0.78,0.43c-0.06-0.02-6.68-1.86-14.18,2.8
						C12.47,46.45,12.36,46.48,12.24,46.48z"/>
				</g>
				<g>
					<path d="M18.82,43.5c-0.32,0-0.59-0.24-0.63-0.56l-1.37-12.94c-0.04-0.35,0.21-0.66,0.56-0.69c0.34-0.03,0.66,0.21,0.69,0.56
						l1.37,12.94c0.04,0.35-0.21,0.66-0.56,0.69C18.87,43.5,18.84,43.5,18.82,43.5z"/>
				</g>
				<g>
					<path d="M14.97,44.84c-0.32,0-0.59-0.24-0.62-0.56l-1.15-10.54c-0.04-0.35,0.21-0.66,0.56-0.69c0.34-0.04,0.66,0.21,0.69,0.56
						l1.15,10.54c0.04,0.35-0.21,0.66-0.56,0.69C15.01,44.84,14.99,44.84,14.97,44.84z"/>
				</g>
				<g>
					<path d="M23.24,42.9c-0.32,0-0.59-0.24-0.63-0.56l-1.33-12.81c-0.04-0.35,0.22-0.66,0.56-0.69c0.36-0.03,0.66,0.22,0.69,0.56
						l1.33,12.81c0.04,0.35-0.22,0.66-0.56,0.69C23.28,42.9,23.26,42.9,23.24,42.9z"/>
				</g>
				<g>
					<path d="M16.88,60.07h2.67c0.27,0,0.36,0.35,0.12,0.48l-2.55,1.38L16.88,60.07z"/>
				</g>
			</g>
		</g>
	</g>
</g>
</svg>
