<?xml version="1.0" encoding="utf-8"?>
<!-- Generator: Adobe Illustrator 27.1.1, SVG Export Plug-In . SVG Version: 6.00 Build 0)  -->
<svg version="1.1" id="Layer_1" xmlns="http://www.w3.org/2000/svg" xmlns:xlink="http://www.w3.org/1999/xlink" x="0px" y="0px"
	 viewBox="0 0 75 75" style="enable-background:new 0 0 75 75;" xml:space="preserve">
<style type="text/css">
	.st0{fill:#FFFFFF;}
	.st1{fill:#BC83FB;}
</style>
<g>
	<ellipse transform="matrix(0.7071 -0.7071 0.7071 0.7071 -15.533 37.5)" class="st0" cx="37.5" cy="37.5" rx="38.92" ry="36.03"/>
	<g>
		<g>
			<g>
				<path class="st1" d="M56.44,62.81H19.32c-3.73,0-6.75-3.02-6.75-6.75V18.94c0-3.73,3.02-6.75,6.75-6.75h37.12
					c3.73,0,6.75,3.02,6.75,6.75v37.12C63.19,59.79,60.17,62.81,56.44,62.81z"/>
			</g>
		</g>
		<g>
			<g>
				<path d="M55.01,60.07H20.75c-3,0-5.43-2.44-5.43-5.43V20.37c0-3,2.44-5.43,5.43-5.43h34.27c3,0,5.43,2.44,5.43,5.43v34.27
					C60.44,57.63,58.01,60.07,55.01,60.07z M20.75,16.96c-1.88,0-3.41,1.53-3.41,3.41v34.27c0,1.88,1.53,3.41,3.41,3.41h34.27
					c1.88,0,3.41-1.53,3.41-3.41V20.37c0-1.88-1.53-3.41-3.41-3.41H20.75z"/>
			</g>
		</g>
		<g>
			<g>
				<g>
					<path d="M29.24,29.76h-5.18c-0.37,0-0.67-0.3-0.67-0.67v-1.42c0-0.37,0.3-0.67,0.67-0.67h4.22c0.37,0,0.67-0.3,0.67-0.67V25.5
						c0-0.37-0.3-0.67-0.67-0.67h-4.22c-0.37,0-0.67-0.3-0.67-0.67V22.9c0-0.37,0.3-0.67,0.67-0.67h4.95c0.37,0,0.67-0.3,0.67-0.67
						v-0.88c0-0.37-0.3-0.67-0.67-0.67h-7.71c-0.37,0-0.67,0.3-0.67,0.67v10.64c0,0.37,0.3,0.67,0.67,0.67h7.93
						c0.37,0,0.67-0.3,0.67-0.67v-0.88C29.92,30.06,29.62,29.76,29.24,29.76z"/>
				</g>
			</g>
			<g>
				<g>
					<path d="M40.11,31.99h1.35c0.55,0,0.87-0.61,0.55-1.06l-1.94-2.78c0.01,0,0.02-0.01,0.02-0.01c0.78-0.34,1.38-0.84,1.8-1.48
						c0.42-0.65,0.63-1.41,0.63-2.3c0-0.9-0.21-1.68-0.63-2.33c-0.42-0.65-1.02-1.15-1.8-1.5c-0.78-0.35-1.7-0.52-2.77-0.52H32.8
						c-0.37,0-0.67,0.3-0.67,0.67v10.64c0,0.37,0.3,0.67,0.67,0.67h1.43c0.37,0,0.67-0.3,0.67-0.67v-1.99c0-0.37,0.3-0.67,0.67-0.67
						h1.74c0.04,0,0.08,0,0.13-0.01l2.1,3.05C39.68,31.88,39.88,31.99,40.11,31.99z M39.08,22.81c0.42,0.37,0.63,0.88,0.63,1.54
						c0,0.65-0.21,1.16-0.63,1.53c-0.42,0.37-1.06,0.56-1.92,0.56h-1.59c-0.37,0-0.67-0.3-0.67-0.67v-2.83
						c0-0.37,0.3-0.67,0.67-0.67h1.59C38.02,22.26,38.66,22.44,39.08,22.81z"/>
				</g>
			</g>
			<g>
				<g>
					<path d="M52.25,29.48c-0.5,0.23-1.05,0.35-1.64,0.35c-0.56,0-1.07-0.09-1.54-0.27c-0.47-0.18-0.87-0.44-1.22-0.79
						c-0.34-0.34-0.61-0.75-0.8-1.22c-0.19-0.47-0.28-0.99-0.28-1.56c0-0.57,0.09-1.09,0.28-1.56c0.19-0.47,0.45-0.87,0.8-1.22
						c0.34-0.34,0.75-0.61,1.22-0.79c0.47-0.18,0.98-0.27,1.54-0.27c0.59,0,1.14,0.12,1.64,0.35c0.34,0.16,0.65,0.37,0.95,0.63
						c0.26,0.23,0.64,0.22,0.89-0.01l0.81-0.74c0.29-0.27,0.29-0.73,0-1c-0.47-0.44-1.01-0.79-1.61-1.05
						c-0.84-0.36-1.78-0.54-2.82-0.54c-0.94,0-1.8,0.15-2.59,0.45c-0.79,0.3-1.48,0.73-2.06,1.29c-0.59,0.56-1.04,1.22-1.37,1.97
						c-0.33,0.75-0.49,1.58-0.49,2.48c0,0.9,0.16,1.73,0.49,2.48c0.33,0.75,0.78,1.41,1.36,1.97c0.58,0.56,1.27,0.99,2.06,1.29
						c0.79,0.3,1.65,0.45,2.58,0.45c1.05,0,2-0.18,2.83-0.55c0.61-0.27,1.15-0.62,1.62-1.06c0.29-0.27,0.29-0.73,0-1l-0.8-0.74
						c-0.25-0.23-0.64-0.24-0.9-0.01C52.91,29.11,52.59,29.32,52.25,29.48z"/>
				</g>
			</g>
			<g>
				<g>
					<g>
						<path d="M32.22,46.81c0.93-0.87,1.63-1.66,2.11-2.36c0.48-0.7,0.8-1.37,0.96-2c0.16-0.63,0.24-1.27,0.24-1.92
							c0-1.21-0.31-2.25-0.92-3.12c-0.62-0.87-1.48-1.55-2.58-2.03c-1.11-0.48-2.4-0.72-3.87-0.72c-1.78,0-3.35,0.33-4.71,0.99
							c-1.06,0.52-1.94,1.18-2.63,1.98C20.51,38,20.6,38.56,21,38.82l2.04,1.32c0.32,0.2,0.73,0.16,0.99-0.12
							c0.41-0.44,0.87-0.77,1.4-1.01c0.71-0.32,1.48-0.48,2.31-0.48c1.04,0,1.83,0.21,2.37,0.64c0.54,0.43,0.81,1.04,0.81,1.83
							c0,0.3-0.05,0.63-0.16,0.99s-0.3,0.76-0.58,1.19c-0.28,0.44-0.73,0.93-1.33,1.48l-7.41,7c-0.16,0.15-0.25,0.36-0.25,0.57v1.85
							c0,0.44,0.35,0.79,0.79,0.79h13.43c0.44,0,0.79-0.35,0.79-0.79v-2.17c0-0.44-0.35-0.79-0.79-0.79h-5.78
							c-0.71,0-1.06-0.87-0.54-1.36L32.22,46.81z"/>
					</g>
				</g>
				<g>
					<g>
						<path d="M50.99,35.87c-1.28-0.8-2.74-1.21-4.38-1.21c-1.63,0-3.08,0.4-4.37,1.21c-1.29,0.8-2.3,1.97-3.04,3.5
							c-0.74,1.53-1.11,3.39-1.11,5.56c0,2.18,0.37,4.03,1.11,5.56s1.75,2.7,3.04,3.5c1.29,0.8,2.74,1.21,4.37,1.21
							c1.65,0,3.11-0.4,4.38-1.21c1.28-0.8,2.28-1.97,3.02-3.5c0.74-1.53,1.11-3.39,1.11-5.56c0-2.18-0.37-4.03-1.11-5.56
							C53.28,37.84,52.27,36.68,50.99,35.87z M50,48.6c-0.33,0.95-0.79,1.64-1.36,2.07c-0.58,0.44-1.25,0.65-2.03,0.65
							c-0.76,0-1.42-0.22-2-0.65c-0.58-0.43-1.03-1.13-1.36-2.07c-0.33-0.95-0.5-2.17-0.5-3.66c0-1.49,0.17-2.71,0.5-3.66
							c0.33-0.95,0.78-1.64,1.36-2.07c0.58-0.43,1.24-0.65,2-0.65c0.78,0,1.45,0.22,2.03,0.65c0.58,0.44,1.03,1.13,1.36,2.07
							c0.33,0.95,0.5,2.17,0.5,3.66C50.5,46.43,50.33,47.65,50,48.6z"/>
					</g>
				</g>
			</g>
		</g>
	</g>
</g>
</svg>
