<svg enable-background="new 0 0 75 75" version="1.1" viewBox="0 0 75 75" xmlns="http://www.w3.org/2000/svg">
 <style type="text/css">.st0{fill:#FFFFFF;}
	.st1{fill:#BC83FB;}</style>
 <ellipse class="st0" transform="matrix(.7071 -.7071 .7071 .7071 -15.53 37.5)" cx="37.5" cy="37.5" rx="38.92" ry="36.03"/>
 <path class="st1" d="m56.44 62.81h-37.12c-3.73 0-6.75-3.02-6.75-6.75v-37.12c0-3.73 3.02-6.75 6.75-6.75h37.12c3.73 0 6.75 3.02 6.75 6.75v37.12c0 3.73-3.02 6.75-6.75 6.75z"/>
 <path d="m55.01 60.07h-34.26c-3 0-5.43-2.44-5.43-5.43v-34.27c0-3 2.44-5.43 5.43-5.43h34.27c3 0 5.43 2.44 5.43 5.43v34.27c-0.01 2.99-2.44 5.43-5.44 5.43zm-34.26-43.11c-1.88 0-3.41 1.53-3.41 3.41v34.27c0 1.88 1.53 3.41 3.41 3.41h34.27c1.88 0 3.41-1.53 3.41-3.41v-34.27c0-1.88-1.53-3.41-3.41-3.41h-34.27z"/>
 <path d="m29.24 29.76h-5.18c-0.37 0-0.67-0.3-0.67-0.67v-1.42c0-0.37 0.3-0.67 0.67-0.67h4.22c0.37 0 0.67-0.3 0.67-0.67v-0.83c0-0.37-0.3-0.67-0.67-0.67h-4.22c-0.37 0-0.67-0.3-0.67-0.67v-1.26c0-0.37 0.3-0.67 0.67-0.67h4.95c0.37 0 0.67-0.3 0.67-0.67v-0.88c0-0.37-0.3-0.67-0.67-0.67h-7.71c-0.37 0-0.67 0.3-0.67 0.67v10.64c0 0.37 0.3 0.67 0.67 0.67h7.93c0.37 0 0.67-0.3 0.67-0.67v-0.88c0.02-0.38-0.28-0.68-0.66-0.68z"/>
 <path d="m40.11 31.99h1.35c0.55 0 0.87-0.61 0.55-1.06l-1.94-2.78c0.01 0 0.02-0.01 0.02-0.01 0.78-0.34 1.38-0.84 1.8-1.48 0.42-0.65 0.63-1.41 0.63-2.3 0-0.9-0.21-1.68-0.63-2.33s-1.02-1.15-1.8-1.5-1.7-0.52-2.77-0.52h-4.52c-0.37 0-0.67 0.3-0.67 0.67v10.64c0 0.37 0.3 0.67 0.67 0.67h1.43c0.37 0 0.67-0.3 0.67-0.67v-1.99c0-0.37 0.3-0.67 0.67-0.67h1.74c0.04 0 0.08 0 0.13-0.01l2.1 3.05c0.14 0.18 0.34 0.29 0.57 0.29zm-1.03-9.18c0.42 0.37 0.63 0.88 0.63 1.54 0 0.65-0.21 1.16-0.63 1.53s-1.06 0.56-1.92 0.56h-1.59c-0.37 0-0.67-0.3-0.67-0.67v-2.83c0-0.37 0.3-0.67 0.67-0.67h1.59c0.86-0.01 1.5 0.17 1.92 0.54z"/>
 <path d="m52.25 29.48c-0.5 0.23-1.05 0.35-1.64 0.35-0.56 0-1.07-0.09-1.54-0.27s-0.87-0.44-1.22-0.79c-0.34-0.34-0.61-0.75-0.8-1.22s-0.28-0.99-0.28-1.56 0.09-1.09 0.28-1.56 0.45-0.87 0.8-1.22c0.34-0.34 0.75-0.61 1.22-0.79s0.98-0.27 1.54-0.27c0.59 0 1.14 0.12 1.64 0.35 0.34 0.16 0.65 0.37 0.95 0.63 0.26 0.23 0.64 0.22 0.89-0.01l0.81-0.74c0.29-0.27 0.29-0.73 0-1-0.47-0.44-1.01-0.79-1.61-1.05-0.84-0.36-1.78-0.54-2.82-0.54-0.94 0-1.8 0.15-2.59 0.45s-1.48 0.73-2.06 1.29c-0.59 0.56-1.04 1.22-1.37 1.97s-0.49 1.58-0.49 2.48 0.16 1.73 0.49 2.48 0.78 1.41 1.36 1.97 1.27 0.99 2.06 1.29 1.65 0.45 2.58 0.45c1.05 0 2-0.18 2.83-0.55 0.61-0.27 1.15-0.62 1.62-1.06 0.29-0.27 0.29-0.73 0-1l-0.8-0.74c-0.25-0.23-0.64-0.24-0.9-0.01-0.29 0.3-0.61 0.51-0.95 0.67z"/>
 <path d="m32.22 46.81c0.93-0.87 1.63-1.66 2.11-2.36s0.8-1.37 0.96-2 0.24-1.27 0.24-1.92c0-1.21-0.31-2.25-0.92-3.12-0.62-0.87-1.48-1.55-2.58-2.03-1.11-0.48-2.4-0.72-3.87-0.72-1.78 0-3.35 0.33-4.71 0.99-1.06 0.52-1.94 1.18-2.63 1.98-0.31 0.37-0.22 0.93 0.18 1.19l2.04 1.32c0.32 0.2 0.73 0.16 0.99-0.12 0.41-0.44 0.87-0.77 1.4-1.01 0.71-0.32 1.48-0.48 2.31-0.48 1.04 0 1.83 0.21 2.37 0.64s0.81 1.04 0.81 1.83c0 0.3-0.05 0.63-0.16 0.99s-0.3 0.76-0.58 1.19c-0.28 0.44-0.73 0.93-1.33 1.48l-7.41 7c-0.16 0.15-0.25 0.36-0.25 0.57v1.85c0 0.44 0.35 0.79 0.79 0.79h13.43c0.44 0 0.79-0.35 0.79-0.79v-2.17c0-0.44-0.35-0.79-0.79-0.79h-5.78c-0.71 0-1.06-0.87-0.54-1.36l3.13-2.95z"/>
 <path d="m50.99 35.87c-1.28-0.8-2.74-1.21-4.38-1.21-1.63 0-3.08 0.4-4.37 1.21-1.29 0.8-2.3 1.97-3.04 3.5s-1.11 3.39-1.11 5.56c0 2.18 0.37 4.03 1.11 5.56s1.75 2.7 3.04 3.5 2.74 1.21 4.37 1.21c1.65 0 3.11-0.4 4.38-1.21 1.28-0.8 2.28-1.97 3.02-3.5s1.11-3.39 1.11-5.56c0-2.18-0.37-4.03-1.11-5.56-0.73-1.53-1.74-2.69-3.02-3.5zm-0.99 12.73c-0.33 0.95-0.79 1.64-1.36 2.07-0.58 0.44-1.25 0.65-2.03 0.65-0.76 0-1.42-0.22-2-0.65s-1.03-1.13-1.36-2.07c-0.33-0.95-0.5-2.17-0.5-3.66s0.17-2.71 0.5-3.66 0.78-1.64 1.36-2.07 1.24-0.65 2-0.65c0.78 0 1.45 0.22 2.03 0.65 0.58 0.44 1.03 1.13 1.36 2.07 0.33 0.95 0.5 2.17 0.5 3.66s-0.17 2.71-0.5 3.66z"/>
</svg>
