<svg enable-background="new 0 0 75 75" version="1.1" viewBox="0 0 75 75" xmlns="http://www.w3.org/2000/svg">
 <style type="text/css">.st0{fill:#FFFFFF;}
	.st1{fill-rule:evenodd;clip-rule:evenodd;fill:#BC83FB;}</style>
 <ellipse class="st0" transform="matrix(.7071 -.7071 .7071 .7071 -15.53 37.5)" cx="37.5" cy="37.5" rx="38.92" ry="36.03"/>
 <path class="st1" d="m32.96 55.83c-3.24 1.17-5.05 4.61-4.03 7.66s4.48 4.58 7.72 3.41 5.05-4.61 4.03-7.66-4.48-4.58-7.72-3.41z"/>
 <path class="st1" d="m43.19 21.1c-0.26 2.9 1.04 5.62 2.34 7.36 0.36 0.49 0.13 1.17-0.46 1.34-3.46 0.96-6.28 5.18-4.95 8.79 0.17 0.47-0.04 1.02-0.53 1.14-2.02 0.5-3.69 2.42-3.41 5.21 0.18 1.79 1.09 2.95 1.83 3.61 0.27 0.25 0.1 0.7-0.26 0.7h-6.87c-0.55 0-1.04-0.33-1.25-0.84-1.58-3.23-1.02-7.27 0.91-10.72 2.23-3.99 6.05-8.71 8.83-11.28 2.59-2.41 3.07-5.96 0.72-8.48-3.03-3.25-8.76-1.68-10.28 3.04-0.26 0.81-0.34 1.6-0.25 2.34 0.06 0.5-0.3 0.94-0.77 0.94h-8.12c-0.43 0-0.78-0.36-0.78-0.81-0.01-1.46 0.27-2.95 0.74-4.51 3.53-11.68 19.6-14.98 27.35-6.39 0.39 0.43 0.25 1.1-0.27 1.36-2.38 1.17-4.21 3.72-4.52 7.2z"/>
 <line class="st1" x1="28.97" x2="28.91" y1="41.57" y2="41.57"/>
 <path class="st1" d="m55.13 22.71c-0.11 4.37-4.04 7-7.07 4.73s-2.89-7.74 0.25-9.84 6.93 0.73 6.82 5.11z"/>
 <path class="st1" d="m48.58 38.69c-2.02 2.55-5.53 2.19-6.32-0.65s1.74-6.02 4.54-5.73 3.79 3.84 1.78 6.38z"/>
 <path class="st1" d="m43.08 44.49c0.23 2.21-1.57 3.81-3.24 2.88-1.67-0.92-1.96-3.68-0.52-4.96 1.44-1.29 3.53-0.13 3.76 2.08z"/>
</svg>
