<svg enable-background="new 0 0 75 75" version="1.1" viewBox="0 0 75 75" xmlns="http://www.w3.org/2000/svg">
 <style type="text/css">.st0{fill:#FFFFFF;}
	.st1{fill:#BC83FB;}
	.st2{fill:#8747CC;}
	.st3{fill-rule:evenodd;clip-rule:evenodd;fill:#BC83FB;}
	.st4{fill:#D8B7FB;}</style>
 <ellipse class="st0" transform="matrix(.7071 -.7071 .7071 .7071 -15.53 37.5)" cx="37.5" cy="37.5" rx="38.92" ry="36.03"/>
 <path class="st1" d="m34.56 50.4s3.56 4.75 9.4-1.47c3.71-3.94 6.78-4.02 7.19-1.17 0.51 3.54-5.11 12.97-13.43 12.97l-3.16-10.33z"/>
 <path class="st1" d="m37.5 66.74c-15.46 0-28.04-12.58-28.04-28.04 0-9.82 5-18.76 13.38-23.91 0.89-0.55 2.05-0.27 2.59 0.62 0.55 0.89 0.27 2.05-0.62 2.59-7.25 4.46-11.58 12.19-11.58 20.7 0 13.38 10.89 24.27 24.27 24.27s24.27-10.89 24.27-24.27c0-8.5-4.33-16.24-11.58-20.69-0.89-0.55-1.16-1.71-0.62-2.59 0.55-0.89 1.71-1.16 2.59-0.62 8.38 5.15 13.38 14.09 13.38 23.91 0 15.44-12.58 28.03-28.04 28.03z"/>
 <path class="st2" d="m37.5 60.73c-3.55 0-6.46-2.91-6.46-6.46v-24.71c0-3.55 2.91-6.46 6.46-6.46s6.46 2.91 6.46 6.46v24.71c0 3.55-2.91 6.46-6.46 6.46z"/>
 <ellipse class="st3" transform="matrix(.229 -.9734 .9734 .229 15.46 47.15)" cx="37.49" cy="13.82" rx="5.51" ry="6.18"/>
 <ellipse class="st4" transform="matrix(.0977 -.9952 .9952 .0977 -18 83.87)" cx="37.25" cy="51.86" rx="3.54" ry="2.4"/>
 <ellipse class="st4" transform="matrix(.0977 -.9952 .9952 .0977 -5.553 72.58)" cx="37.25" cy="39.35" rx="4.39" ry="2.97"/>
 <path class="st1" d="m43.96 29.55v7.86c0-4.78-2.03-7.84-5.29-7.75-2.38 0.06-5.25 3.51-7.63 6.05-3.7 3.95-6.78 3.22-7.18 0.37-0.5-3.47 5.11-12.6 13.17-12.95 0.15-0.01 0.31-0.02 0.46-0.02h0.02c3.55 0 6.45 2.89 6.45 6.44z"/>
</svg>
