<?xml version="1.0" encoding="utf-8"?>
<!-- Generator: Adobe Illustrator 26.4.1, SVG Export Plug-In . SVG Version: 6.00 Build 0)  -->
<svg version="1.1" id="Layer_1" xmlns="http://www.w3.org/2000/svg" xmlns:xlink="http://www.w3.org/1999/xlink" x="0px" y="0px"
	 viewBox="0 0 75 75" style="enable-background:new 0 0 75 75;" xml:space="preserve">
<style type="text/css">
	.st0{fill:#BC83FB;}
	.st1{fill:#383838;}
	.st2{fill:#1C1C1C;}
	.st3{fill:#666666;}
	.st4{fill-rule:evenodd;clip-rule:evenodd;fill:#BC83FB;}
	.st5{fill-rule:evenodd;clip-rule:evenodd;fill:#5A007E;}
	.st6{fill-rule:evenodd;clip-rule:evenodd;fill:#D8B6FF;}
</style>
<g>
	<g>
		<path class="st0" d="M40.76,41.04v-6.59c0,0-1.82-0.92-4.16-0.92c-2.34,0-4.16,0.92-4.16,0.92v6.59c0,0,1.82,0.92,4.16,0.92
			C38.94,41.96,40.76,41.04,40.76,41.04z"/>
		<g>
			<path class="st0" d="M47.6,36.88l-6.24-8.56c-0.83-1.14-2.64-0.55-2.64,0.86V46.3c0,1.41,1.81,2,2.64,0.86l6.24-8.56
				C47.97,38.09,47.97,37.39,47.6,36.88z"/>
			<path class="st0" d="M25.6,36.88l6.24-8.56c0.83-1.14,2.64-0.55,2.64,0.86V46.3c0,1.41-1.81,2-2.64,0.86L25.6,38.6
				C25.23,38.09,25.23,37.39,25.6,36.88z"/>
		</g>
	</g>
	<g>
		<g>
			<polygon class="st1" points="60.81,47.93 53.71,60.2 67.9,60.2 			"/>
			<path class="st1" d="M66.47,38.14l-5.66,9.79H75l-5.66-9.79C68.7,37.04,67.11,37.04,66.47,38.14z"/>
			<polygon class="st2" points="67.9,60.2 75,47.93 60.81,47.93 			"/>
			<path class="st3" d="M53.71,60.2l7.1-12.27H49.49c-1.28,0-2.08,1.38-1.44,2.49L53.71,60.2z"/>
		</g>
		<g>
			<polygon class="st1" points="60.81,27.55 67.9,15.28 53.71,15.28 			"/>
			<path class="st1" d="M55.15,37.34l5.66-9.79H46.61l5.66,9.79C52.91,38.45,54.51,38.45,55.15,37.34z"/>
			<polygon class="st2" points="53.71,15.28 46.61,27.55 60.81,27.55 			"/>
			<path class="st3" d="M67.9,15.28l-7.1,12.27h11.32c1.28,0,2.08-1.38,1.44-2.49L67.9,15.28z"/>
		</g>
	</g>
	<g id="ink-_just-squid">
		<g id="head">
			<g>
				<path class="st4" d="M1.71,20.81c0,0-0.33-1.49-0.72-3.27c-0.65-2.95,0.7-5.98,3.32-7.47C6.02,9.1,7.86,7.57,9.2,5.2"/>
				<path d="M1.71,21.63c-0.38,0-0.72-0.26-0.8-0.64l-0.72-3.27c-0.36-1.62-0.19-3.27,0.48-4.79c0.67-1.51,1.79-2.75,3.24-3.57
					C5.86,8.24,7.41,6.7,8.48,4.8C8.71,4.4,9.21,4.26,9.6,4.48C10,4.71,10.14,5.21,9.91,5.6c-1.23,2.17-2.97,3.92-5.2,5.18
					c-2.33,1.32-3.51,3.97-2.93,6.58l0.72,3.27c0.1,0.44-0.18,0.88-0.63,0.98C1.82,21.62,1.76,21.63,1.71,21.63z"/>
			</g>
			<g>
				<path class="st4" d="M22.12,20.81c0,0,0.21-0.92,0.47-2.08c0.55-2.46-0.62-4.98-2.86-6.15c-2.24-1.17-4.64-3.37-4.86-7.38
					l-0.04,13.5L22.12,20.81z"/>
				<path d="M22.12,21.63c-0.08,0-0.15-0.01-0.23-0.03l-7.28-2.11c-0.35-0.1-0.59-0.42-0.59-0.79l0.04-13.5
					c0-0.44,0.36-0.81,0.8-0.82c0.44-0.01,0.82,0.33,0.84,0.78c0.16,2.99,1.64,5.24,4.42,6.7c2.56,1.34,3.91,4.23,3.28,7.05
					l-0.47,2.08c-0.05,0.22-0.19,0.41-0.38,0.53C22.41,21.59,22.27,21.63,22.12,21.63z M15.66,18.08l5.85,1.7l0.28-1.23
					c0.47-2.09-0.53-4.25-2.44-5.24c-1.24-0.65-2.62-1.64-3.67-3.14L15.66,18.08z"/>
			</g>
			<g>
				<path class="st4" d="M10.58,2.58c0,0,0.34-1.56,2.09-1.57C13.64,1,14.5,1.65,14.77,2.58c0,0,0.78,5.76,1.19,8.8
					c0.15,1.13,0.66,2.18,1.44,3c2.75,2.9,8.86,10.74,2.87,18.07c0,0-0.47-6.2-7.97-6.2c-1.32,0,1.06,0-0.26,0
					c-7.5,0-8.48,6.2-8.48,6.2C-3.97,23.25,8.28,7.85,10.58,2.58L10.58,2.58z"/>
				<path d="M3.57,33.47c-0.3,0-0.59-0.13-0.79-0.37C-3.7,25.17,3.24,13.35,7.39,6.28c0.96-1.63,1.79-3.04,2.23-4.03
					C9.86,1.42,10.74,0.01,12.67,0c0.01,0,0.01,0,0.02,0c1.41,0,2.66,0.94,3.05,2.3l0,0c0.03,0.11,0.05,0.24,0.07,0.41l1.16,8.54
					c0.13,0.92,0.53,1.77,1.17,2.45c1.33,1.4,3.73,4.26,4.93,7.74c0.67,1.94,0.9,3.84,0.67,5.64c-0.27,2.14-1.17,4.17-2.69,6.02
					c-0.26,0.32-0.69,0.45-1.09,0.32c-0.39-0.12-0.67-0.47-0.71-0.89c0-0.01-0.13-1.37-1.05-2.68c-1.21-1.72-3.2-2.59-5.91-2.59
					h-0.26c-6.5,0-7.44,5.13-7.48,5.35c-0.06,0.39-0.35,0.71-0.73,0.81C3.74,33.46,3.65,33.47,3.57,33.47z M11.51,2.98L11.51,2.98
					c-0.48,1.1-1.36,2.59-2.37,4.32c-1.97,3.35-4.66,7.94-6.05,12.45c-1.31,4.27-1.25,7.72,0.19,10.46
					c0.23-0.46,0.52-0.97,0.91-1.47c1.2-1.57,3.49-3.43,7.64-3.5c0.02,0,0.04,0,0.06,0h0.57c0.02,0,0.04,0,0.06,0
					c2.36,0.04,5.48,0.7,7.42,3.54c0.3,0.45,0.54,0.89,0.72,1.31c1.33-2.44,1.51-5.12,0.51-8.01c-1.08-3.12-3.28-5.73-4.49-7.01
					c-0.93-0.99-1.53-2.22-1.71-3.56L14.22,6.1c-0.22-1.62-0.4-2.96-0.45-3.3c-0.16-0.47-0.6-0.78-1.09-0.78
					c-0.84,0.01-1.06,0.6-1.11,0.79C11.55,2.87,11.54,2.93,11.51,2.98z M10.58,2.58L10.58,2.58L10.58,2.58z"/>
			</g>
		</g>
		<g id="body_bg">
			<path class="st4" d="M19.63,34.9c2.53,1.09,3.4,4.21,2.72,6.8c0,0,0,0,0,0C19.12,58.25,10.79,72.85,7.4,73.99
				c0,0,0.62-4.08,0.92-6.11c0.13-0.89,0.09-1.8-0.14-2.67c-0.9-3.41-3.01-6.29-3.86-9.57C3.05,50.7,2.7,45.34,1.04,39.31
				c-0.49-1.77,0.32-3.65,1.94-4.51c0,0,0,0,0,0c2.31-0.44,0.35-3.03,0.24-4.93c1.79-5.38,3.24-7.23,8-7.29
				c5.16-0.47,8.06,3.53,9.4,7.2C20.18,34.41,19.37,34,19.63,34.9L19.63,34.9z"/>
		</g>
		<g id="flippers">
			<g>
				<path class="st5" d="M20.49,49.3c-4.73,18.84-2.18,20.67-2.18,20.67l-3.41-3.2"/>
				<path d="M18.31,70.97c-0.2,0-0.41-0.06-0.59-0.19c-0.05-0.04-0.11-0.09-0.17-0.14l-3.34-3.14c-0.41-0.38-0.43-1.02-0.04-1.43
					c0.38-0.41,1.02-0.43,1.43-0.04l1.02,0.96c-0.1-3.04,0.5-8.43,2.89-17.94c0.14-0.54,0.68-0.87,1.23-0.73
					c0.54,0.14,0.87,0.68,0.73,1.22c-1.74,6.95-2.69,12.34-2.82,16.03c-0.09,2.71,0.31,3.55,0.38,3.68
					c0.36,0.37,0.39,0.95,0.06,1.35C18.89,70.85,18.6,70.97,18.31,70.97z M19.04,69.27L19.04,69.27L19.04,69.27z"/>
			</g>
			<g>
				<path class="st5" d="M3.95,54.07c0.3,8.15,1.89,12.83-0.97,14.27c0,0,3.01-0.09,4.54-2.57"/>
				<path d="M2.98,69.35c-0.46,0-0.87-0.31-0.98-0.76c-0.12-0.46,0.1-0.94,0.52-1.15c1.38-0.7,1.25-2.85,0.84-7.26
					c-0.16-1.77-0.35-3.77-0.43-6.07c-0.02-0.56,0.42-1.03,0.97-1.05c0.56-0.02,1.03,0.41,1.05,0.97c0.08,2.25,0.26,4.22,0.42,5.96
					c0.21,2.32,0.38,4.15,0.23,5.62c-0.03,0.26-0.07,0.55-0.13,0.85c0.44-0.3,0.85-0.69,1.18-1.22c0.29-0.47,0.92-0.62,1.39-0.33
					c0.48,0.29,0.62,0.91,0.33,1.39c-1.8,2.91-5.22,3.04-5.37,3.04C3,69.35,2.99,69.35,2.98,69.35z"/>
			</g>
		</g>
		<g id="light">
			<g>
				<path class="st6" d="M18.37,35.71l2.25,1.37c0.66,0.4,0.98,1.18,0.81,1.93c-0.99,4.23-4.3,17.91-6.47,21.82l-0.06,0.23
					l-0.22,0.81c-0.18,0.87-0.38,1.91-0.37,1.38l0.37-1.38c0.09-0.46,0.19-0.88,0.24-0.96l0.04-0.08
					c2.86-10.56,5.22-18.45-0.32-22.77C16.57,37.73,17.81,36.98,18.37,35.71L18.37,35.71z"/>
			</g>
			<g>
				<path class="st5" d="M11.72,3.42c0.04-0.83-1.41,3-1.51,3.29c-2.55,8.09-9.43,12.9-6.59,22.38c0.03,0.08,0.3-0.47,0.84-1.44
					c1.54-2.73,5.72-3.5,5.72-3.5C2.24,17.96,11.45,9.69,11.72,3.42z"/>
			</g>
			<g>
				<path class="st6" d="M13.25,3.92c0.2-0.81,0.55,1.73,0.49,2.02c-1.48,7.84,10.46,14.61,6.33,23.64
					c-0.02,0.04-0.31-1.38-1.13-2.44c-0.84-1.11-2.2-1.86-2.2-1.86C21.18,20.33,10.64,14.41,13.25,3.92L13.25,3.92z"/>
			</g>
			<g>
				<path class="st5" d="M8.15,37.81C2.82,42.2,8.9,60.79,9.51,68.39c0.01,0.08-0.02,0.16-0.03,0.24c-0.14,0.82-0.13-1.42-0.16-1.72
					c-0.31-2.58-1.67-6.39-3.17-9.55c-1.56-3.29-1.81-8.4-2.17-11.92c-0.59-5.71-2.56-7.17,1.18-10.04
					c0.01-0.01,0.12,0.04,0.28,0.12C5.86,36.63,6.76,37.38,8.15,37.81L8.15,37.81z"/>
			</g>
			<g>
				<path class="st6" d="M8.46,37.9l0.13,0.03c-1.15,1.66-2.63,7.52,0.08,23.57c-0.66-3.92-4.28-18.75-0.29-23.62L8.46,37.9z"/>
			</g>
			<g>
				<path class="st5" d="M8.81,37.98c0.84,0.18,1.83,0.28,2.96,0.28c-3.1,1.49-4.71,3.65-1.82,18.46c0.85,4.32-0.47,8.54-0.45,11.67
					c0,0.08-0.02,0.16-0.03,0.24c-0.14,0.82-0.13-1.42-0.16-1.72C8.32,55.17,6.72,44.83,8.81,37.98L8.81,37.98z"/>
			</g>
		</g>
		<g id="body_line">
			<path d="M7.4,75c-0.23,0-0.47-0.08-0.65-0.24c-0.27-0.23-0.4-0.58-0.35-0.92l0.92-6.11c0.11-0.76,0.08-1.52-0.12-2.27
				c-0.43-1.62-1.17-3.17-1.89-4.67c-0.75-1.56-1.52-3.17-1.97-4.9c-0.59-2.28-0.98-4.61-1.39-7.08c-0.45-2.7-0.92-5.5-1.69-8.46
				c-0.7-2.68,0.62-5.43,3.13-6.58c0.02-0.01,0.05-0.02,0.07-0.03c0.51-0.22,1.11,0.01,1.33,0.52c0.22,0.51-0.01,1.11-0.52,1.33
				c-1.65,0.73-2.51,2.52-2.06,4.26c0.79,3.05,1.27,5.89,1.72,8.64c0.4,2.43,0.79,4.72,1.35,6.91c0.4,1.54,1.1,2.99,1.84,4.53
				c0.76,1.59,1.55,3.23,2.02,5.04c0.26,1.01,0.32,2.05,0.16,3.08l-0.54,3.55c1.32-1.5,3.15-4.2,5.24-8.4
				c1.91-3.84,5.39-11.77,7.32-21.67c0-0.02,0.01-0.05,0.02-0.07l0,0c0.72-2.74-0.56-4.93-2.14-5.61c-0.51-0.22-0.75-0.82-0.53-1.33
				c0.22-0.51,0.82-0.75,1.33-0.53c1.44,0.62,2.54,1.83,3.12,3.42c0.51,1.42,0.58,3.02,0.19,4.53c-1.46,7.5-4.12,15.37-7.49,22.15
				c-1.43,2.89-2.93,5.42-4.31,7.31c-1.49,2.03-2.73,3.2-3.8,3.56C7.62,74.98,7.51,75,7.4,75z M22.34,41.7L22.34,41.7L22.34,41.7z"
				/>
		</g>
		<g id="tenticles">
			<g>
				<path class="st6" d="M13.1,62.83c-0.31,1.22,0.2,2.42,1.13,2.68c0.93,0.26,1.93-0.53,2.24-1.75c0.31-1.22-0.2-2.42-1.13-2.68
					C14.41,60.83,13.41,61.61,13.1,62.83L13.1,62.83z"/>
				<path d="M14.59,66.57c-0.21,0-0.42-0.03-0.63-0.08c-1.48-0.41-2.29-2.12-1.84-3.9c0.24-0.96,0.81-1.76,1.58-2.21
					c0.6-0.35,1.28-0.45,1.91-0.27c1.48,0.41,2.29,2.12,1.84,3.9c-0.24,0.96-0.82,1.76-1.58,2.21
					C15.47,66.45,15.03,66.57,14.59,66.57z M14.98,62.05c-0.08,0-0.17,0.03-0.27,0.08c-0.28,0.17-0.53,0.53-0.63,0.95h0
					c-0.18,0.71,0.08,1.37,0.42,1.46c0.11,0.03,0.22,0.01,0.36-0.07c0.28-0.17,0.53-0.53,0.63-0.95c0.18-0.71-0.08-1.37-0.42-1.46
					C15.04,62.05,15.01,62.05,14.98,62.05z M13.1,62.83L13.1,62.83L13.1,62.83z"/>
			</g>
			<g>
				<path class="st6" d="M14.97,56.98c-0.42,1.54,0.19,3.08,1.36,3.43c1.17,0.35,2.47-0.61,2.89-2.16c0.42-1.54-0.19-3.08-1.36-3.43
					C16.69,54.47,15.4,55.44,14.97,56.98z"/>
				<path d="M16.82,61.49c-0.26,0-0.53-0.04-0.78-0.11c-0.86-0.26-1.56-0.94-1.93-1.87c-0.34-0.85-0.38-1.84-0.12-2.8v0
					c0.31-1.14,1.02-2.08,1.93-2.59c0.71-0.39,1.5-0.49,2.23-0.27c0.86,0.26,1.56,0.94,1.93,1.87c0.34,0.85,0.38,1.84,0.12,2.8
					c-0.31,1.14-1.02,2.08-1.93,2.59C17.8,61.36,17.31,61.49,16.82,61.49z M15.95,57.24L15.95,57.24c-0.3,1.09,0.12,2.03,0.67,2.2
					c0.21,0.06,0.43,0.03,0.66-0.1c0.43-0.24,0.79-0.75,0.96-1.35c0.3-1.09-0.12-2.03-0.67-2.2c-0.21-0.06-0.43-0.03-0.66,0.1
					C16.47,56.13,16.12,56.64,15.95,57.24z"/>
			</g>
			<g>
				<path class="st6" d="M11.58,67.04c-0.57,0.95-0.44,2.06,0.29,2.49c0.73,0.43,1.79,0.01,2.37-0.94c0.57-0.95,0.44-2.06-0.29-2.49
					C13.21,65.67,12.15,66.09,11.58,67.04z"/>
				<path d="M12.51,70.71c-0.4,0-0.8-0.1-1.16-0.31c-0.53-0.31-0.9-0.82-1.06-1.45c-0.2-0.78-0.05-1.67,0.42-2.44l0,0
					c0.87-1.44,2.51-2.01,3.74-1.29c0.53,0.31,0.9,0.82,1.06,1.45c0.2,0.78,0.05,1.67-0.42,2.44
					C14.48,70.13,13.48,70.71,12.51,70.71z M13.3,66.94c-0.23,0-0.6,0.2-0.86,0.62l0,0c-0.22,0.36-0.24,0.7-0.19,0.9
					c0.02,0.07,0.05,0.16,0.12,0.2c0.19,0.11,0.68-0.07,0.99-0.59c0.22-0.36,0.24-0.7,0.19-0.9c-0.02-0.07-0.05-0.16-0.12-0.2
					C13.4,66.95,13.35,66.94,13.3,66.94z M11.58,67.04L11.58,67.04L11.58,67.04z"/>
			</g>
			<g>
				<path class="st6" d="M9.13,70.51c-0.73,0.67-0.89,1.62-0.37,2.13c0.53,0.51,1.55,0.39,2.28-0.28c0.73-0.67,0.89-1.62,0.37-2.13
					C10.88,69.72,9.86,69.84,9.13,70.51z"/>
				<path d="M9.62,73.97c-0.59,0-1.15-0.2-1.56-0.6c-0.41-0.39-0.63-0.94-0.62-1.53c0.01-0.75,0.38-1.5,1-2.07l0,0
					c1.14-1.04,2.75-1.15,3.67-0.26c0.41,0.39,0.63,0.94,0.62,1.53c-0.01,0.75-0.38,1.5-1,2.07C11.1,73.67,10.34,73.97,9.62,73.97z
					 M10.57,70.92c-0.17,0-0.48,0.08-0.76,0.33h0c-0.34,0.31-0.36,0.61-0.34,0.67c0.06,0.06,0.5,0.05,0.89-0.31
					c0.33-0.3,0.36-0.6,0.34-0.66C10.68,70.93,10.63,70.92,10.57,70.92z M9.13,70.51L9.13,70.51L9.13,70.51z"/>
			</g>
		</g>
		<g id="face">
			<g>
				<path d="M12.23,34.15C12.23,34.15,12.23,34.15,12.23,34.15c-0.54,0-1.03-0.34-1.22-0.85c-0.02-0.04-0.02-0.08-0.02-0.13
					c0-0.2,0.16-0.37,0.37-0.37c0.16,0,0.3,0.1,0.35,0.25c0.08,0.22,0.29,0.36,0.53,0.36c0,0,0,0,0,0c0.23,0,0.45-0.15,0.53-0.37
					l0-0.01c0.07-0.19,0.28-0.29,0.47-0.22c0.19,0.07,0.29,0.28,0.22,0.47l0,0.01C13.26,33.81,12.77,34.15,12.23,34.15z
					 M11.73,33.18L11.73,33.18L11.73,33.18z"/>
			</g>
			<g>
				<path d="M17.77,31.83c-0.19,0-0.37-0.08-0.49-0.24l-0.09-0.11c-0.45-0.57-1.28-0.69-1.88-0.27l-0.22,0.15
					c-0.29,0.2-0.68,0.13-0.88-0.16c-0.2-0.29-0.13-0.68,0.16-0.88l0.22-0.15c1.14-0.79,2.71-0.56,3.58,0.52l0.09,0.11
					c0.22,0.27,0.17,0.67-0.1,0.89C18.05,31.79,17.91,31.83,17.77,31.83z"/>
			</g>
			<g>
				<path d="M6.53,31.92c-0.16,0-0.32-0.06-0.45-0.18c-0.25-0.25-0.25-0.65,0-0.89l0.33-0.33c0.82-0.82,2.07-1.02,3.1-0.48l0.6,0.31
					c0.31,0.16,0.43,0.54,0.27,0.85c-0.16,0.31-0.54,0.43-0.85,0.27l-0.6-0.31c-0.54-0.28-1.19-0.18-1.62,0.25l-0.33,0.33
					C6.85,31.86,6.69,31.92,6.53,31.92z"/>
			</g>
		</g>
	</g>
</g>
</svg>
