<?xml version="1.0" encoding="utf-8"?>
<!-- Generator: Adobe Illustrator 27.1.1, SVG Export Plug-In . SVG Version: 6.00 Build 0)  -->
<svg version="1.1" id="Layer_1" xmlns="http://www.w3.org/2000/svg" xmlns:xlink="http://www.w3.org/1999/xlink" x="0px" y="0px"
	 viewBox="0 0 75 75" style="enable-background:new 0 0 75 75;" xml:space="preserve">
<style type="text/css">
	.st0{fill:#FFFFFF;}
	.st1{fill:#BC83FB;}
</style>
<ellipse transform="matrix(0.7071 -0.7071 0.7071 0.7071 -15.533 37.5)" class="st0" cx="37.5" cy="37.5" rx="38.92" ry="36.03"/>
<g>
	<g>
		<path class="st1" d="M41.55,33.75v7.28c0,2.34,1.9,4.24,4.24,4.24h18.8c2.34,0,4.24-1.9,4.24-4.24v-7.28
			c0-2.34-1.9-4.24-4.24-4.24l-18.8,0C43.44,29.51,41.55,31.41,41.55,33.75z"/>
		<path class="st0" d="M46.73,36.86v0.86c0,1.06,0.86,1.92,1.92,1.92h13.07c1.06,0,1.92-0.86,1.92-1.92v-0.86
			c0-1.06-0.86-1.92-1.92-1.92H48.65C47.59,34.94,46.73,35.8,46.73,36.86z"/>
	</g>
	<g>
		<path class="st1" d="M6.18,33.75l0,7.28c0,2.34,1.9,4.24,4.24,4.24l18.8,0c2.34,0,4.24-1.9,4.24-4.24v-7.28
			c0-2.34-1.9-4.24-4.24-4.24l-18.8,0C8.08,29.51,6.18,31.41,6.18,33.75z"/>
		<path class="st0" d="M11.36,36.86l0,0.86c0,1.06,0.86,1.92,1.92,1.92l13.07,0c1.06,0,1.92-0.86,1.92-1.92v-0.86
			c0-1.06-0.86-1.92-1.92-1.92l-13.07,0C12.22,34.94,11.36,35.8,11.36,36.86z"/>
	</g>
	<path d="M23.86,37.27v0.46c0,1.75,1.42,3.17,3.17,3.17l20.94,0c1.75,0,3.17-1.42,3.17-3.17l0-0.46c0-1.75-1.42-3.17-3.17-3.17
		l-20.94,0C25.28,34.1,23.86,35.52,23.86,37.27z"/>
</g>
</svg>
