<svg enable-background="new 0 0 75 75" version="1.1" viewBox="0 0 75 75" xmlns="http://www.w3.org/2000/svg">
 <style type="text/css">.st0{fill:#FFFFFF;}
	.st1{fill:#BC83FB;}</style>
 <ellipse class="st0" transform="matrix(.7071 -.7071 .7071 .7071 -15.53 37.5)" cx="37.5" cy="37.5" rx="38.92" ry="36.03"/>
 <path class="st1" d="m41.55 33.75v7.28c0 2.34 1.9 4.24 4.24 4.24h18.8c2.34 0 4.24-1.9 4.24-4.24v-7.28c0-2.34-1.9-4.24-4.24-4.24h-18.8c-2.35 0-4.24 1.9-4.24 4.24z"/>
 <path class="st0" d="m46.73 36.86v0.86c0 1.06 0.86 1.92 1.92 1.92h13.07c1.06 0 1.92-0.86 1.92-1.92v-0.86c0-1.06-0.86-1.92-1.92-1.92h-13.07c-1.06 0-1.92 0.86-1.92 1.92z"/>
 <path class="st1" d="m6.18 33.75v7.28c0 2.34 1.9 4.24 4.24 4.24h18.8c2.34 0 4.24-1.9 4.24-4.24v-7.28c0-2.34-1.9-4.24-4.24-4.24h-18.8c-2.34 0-4.24 1.9-4.24 4.24z"/>
 <path class="st0" d="m11.36 36.86v0.86c0 1.06 0.86 1.92 1.92 1.92h13.07c1.06 0 1.92-0.86 1.92-1.92v-0.86c0-1.06-0.86-1.92-1.92-1.92h-13.07c-1.06 0-1.92 0.86-1.92 1.92z"/>
 <path d="m23.86 37.27v0.46c0 1.75 1.42 3.17 3.17 3.17h20.94c1.75 0 3.17-1.42 3.17-3.17v-0.46c0-1.75-1.42-3.17-3.17-3.17h-20.94c-1.75 0-3.17 1.42-3.17 3.17z"/>
</svg>
