<svg enable-background="new 0 0 75 75" version="1.1" viewBox="0 0 75 75" xmlns="http://www.w3.org/2000/svg" xmlns:xlink="http://www.w3.org/1999/xlink">
 <style type="text/css">.st0{fill:#FFFFFF;}
	.st1{fill-rule:evenodd;clip-rule:evenodd;fill:#BC83FB;}
	.st2{fill-rule:evenodd;clip-rule:evenodd;}
	.st3{fill:#BC83FB;}
	.st4{clip-path:url(#SVGID_00000056428642244958640160000018027294197763449231_);}</style>
 <ellipse class="st0" transform="matrix(.7071 -.7071 .7071 .7071 -15.31 37.41)" cx="37.5" cy="37.19" rx="38.92" ry="36.03"/>
 <path class="st1" d="m61.35 46.22-1.35 0.62c-0.27 0.12-0.58 0.04-0.77-0.19-0.2-0.23-0.45-0.44-0.75-0.61-2.1-1.18-5.89-0.06-6.69 2.74-0.11 0.39-0.59 0.54-0.91 0.3-0.26-0.19-0.52-0.38-0.68-0.47-3.41-1.98-8.26 0.12-8.96 4.27-0.08 0.47-0.61 0.72-0.99 0.45-0.12-0.08-0.24-0.16-0.38-0.24-3.99-2.33-10.41 0.39-11.55 4.91-0.25 0.99-0.2 1.91 0.07 2.71 0.11 0.32-0.03 0.67-0.34 0.81l-3.95 1.81c-0.48 0.22-1.02-0.13-1.02-0.66v-50.96c0-0.53 0.54-0.88 1.02-0.66l37.25 17.1c3.44 1.75 3.56 16.13 0 18.07z"/>
 <path class="st2" d="m61.35 46.22-1.35 0.62c-0.06 0.04-0.13 0.05-0.2 0.05 1.37-1.71 2.3-5.71 2.3-9.71 0-3.96-0.91-7.93-2.2-9.7l1.46 0.67c3.43 1.75 3.55 16.13-0.01 18.07z"/>
 <path class="st3" d="m36.85 61.78c-3.73 1.59-7.33-0.44-6.47-3.65s5.53-5.19 8.4-3.57 1.8 5.63-1.93 7.22z"/>
 <path class="st3" d="m48 55.91c-3.04 1.29-5.96-0.36-5.26-2.97s4.49-4.22 6.83-2.9 1.47 4.58-1.57 5.87z"/>
 <path class="st3" d="m56.66 51.31c-2.19 0.93-4.29-0.26-3.79-2.14s3.24-3.04 4.92-2.09c1.69 0.95 1.06 3.3-1.13 4.23z"/>
 <defs>
  <path id="a" d="m61.35 46.22-1.35 0.62c-0.27 0.12-0.58 0.04-0.77-0.19-0.2-0.23-0.45-0.44-0.75-0.62-2.1-1.18-5.89-0.06-6.69 2.74-0.11 0.39-0.59 0.54-0.91 0.3-0.26-0.19-0.52-0.38-0.68-0.47-3.41-1.98-8.26 0.12-8.96 4.27-0.08 0.46-0.61 0.72-0.99 0.45-0.12-0.08-0.24-0.16-0.38-0.24-3.99-2.33-10.41 0.39-11.55 4.91-0.25 0.99-0.2 1.91 0.08 2.71 0.11 0.32-0.03 0.67-0.34 0.81l-3.21 1.47c-0.82 0.38-1.76-0.23-1.76-1.14v-49.32c0-0.91 0.94-1.51 1.76-1.14l36.51 16.76c3.43 1.76 3.55 16.14-0.01 18.08z"/>
 </defs>
 <clipPath id="b">
  <use xlink:href="#a"/>
 </clipPath>
 <g clip-path="url(#b)">
  <path d="m51.61 51.08-0.64-1.4c0.72-0.34 2.62-4.95 2.62-13.28 0-8.24-1.92-12.79-2.64-13.13l0.62-1.41c2 0.87 3.57 7.26 3.57 14.54-0.02 7.32-1.56 13.77-3.53 14.68z"/>
  <path d="m38.26 57.15-0.64-1.4c1.38-0.63 3.96-7.86 3.96-19.4 0-12.24-2.86-18.68-4-19.18l0.62-1.41c2.37 1.04 4.92 9.2 4.92 20.59-0.01 11.47-2.53 19.73-4.86 20.8z"/>
 </g>
 <path class="st2" d="m29.09 37.19c0 20.35-5.01 33.07-9.01 22.89s-4.01-35.61 0-45.79 9.01 2.55 9.01 22.9z"/>
 <path class="st3" d="m19.65 41.69v-9.01s-2.05-0.65-4.31-0.65c-1.58 0-2.91 0.26-3.66 0.46-0.39 0.1-0.66 0.45-0.66 0.85v7.68c0 0.4 0.27 0.75 0.66 0.85 0.75 0.19 2.07 0.46 3.66 0.46 2.26 0 4.31-0.64 4.31-0.64z"/>
 <path class="st3" d="m26.79 36.48-5.22-6.15c-0.66-0.77-1.92-0.31-1.92 0.71v12.29c0 1.02 1.27 1.48 1.92 0.71l5.22-6.15c0.35-0.4 0.35-1 0-1.41z"/>
</svg>
