<?xml version="1.0" encoding="utf-8"?>
<!-- Generator: Adobe Illustrator 27.0.0, SVG Export Plug-In . SVG Version: 6.00 Build 0)  -->
<svg version="1.1" id="Layer_1" xmlns="http://www.w3.org/2000/svg" xmlns:xlink="http://www.w3.org/1999/xlink" x="0px" y="0px"
	 viewBox="0 0 75 75" style="enable-background:new 0 0 75 75;" xml:space="preserve">
<style type="text/css">
	.st0{fill:#FFFFFF;}
	.st1{fill-rule:evenodd;clip-rule:evenodd;fill:#BC83FB;}
	.st2{fill-rule:evenodd;clip-rule:evenodd;}
	.st3{fill:#BC83FB;}
	.st4{clip-path:url(#SVGID_00000056428642244958640160000018027294197763449231_);}
</style>
<g>
	<g>
		
			<ellipse transform="matrix(0.7071 -0.7071 0.7071 0.7071 -15.3112 37.4081)" class="st0" cx="37.5" cy="37.19" rx="38.92" ry="36.03"/>
	</g>
	<g>
		<g>
			<path class="st1" d="M61.35,46.22l-1.35,0.62c-0.27,0.12-0.58,0.04-0.77-0.19c-0.2-0.23-0.45-0.44-0.75-0.61
				c-2.1-1.18-5.89-0.06-6.69,2.74c-0.11,0.39-0.59,0.54-0.91,0.3c-0.26-0.19-0.52-0.38-0.68-0.47c-3.41-1.98-8.26,0.12-8.96,4.27
				c-0.08,0.47-0.61,0.72-0.99,0.45c-0.12-0.08-0.24-0.16-0.38-0.24c-3.99-2.33-10.41,0.39-11.55,4.91
				c-0.25,0.99-0.2,1.91,0.07,2.71c0.11,0.32-0.03,0.67-0.34,0.81l-3.95,1.81c-0.48,0.22-1.02-0.13-1.02-0.66V11.71
				c0-0.53,0.54-0.88,1.02-0.66l37.25,17.1C64.79,29.9,64.91,44.28,61.35,46.22z"/>
		</g>
		<g>
			<path class="st2" d="M61.35,46.22l-1.35,0.62c-0.06,0.04-0.13,0.05-0.2,0.05c1.37-1.71,2.3-5.71,2.3-9.71
				c0-3.96-0.91-7.93-2.2-9.7l1.46,0.67C64.79,29.9,64.91,44.28,61.35,46.22z"/>
		</g>
		<g>
			<g>
				<path class="st3" d="M36.85,61.78c-3.73,1.59-7.33-0.44-6.47-3.65c0.86-3.21,5.53-5.19,8.4-3.57S40.58,60.19,36.85,61.78z"/>
			</g>
			<g>
				<path class="st3" d="M48,55.91c-3.04,1.29-5.96-0.36-5.26-2.97s4.49-4.22,6.83-2.9C51.91,51.36,51.04,54.62,48,55.91z"/>
			</g>
			<g>
				<path class="st3" d="M56.66,51.31c-2.19,0.93-4.29-0.26-3.79-2.14c0.5-1.88,3.24-3.04,4.92-2.09
					C59.48,48.03,58.85,50.38,56.66,51.31z"/>
			</g>
		</g>
		<g>
			<defs>
				<path id="SVGID_1_" d="M61.35,46.22l-1.35,0.62c-0.27,0.12-0.58,0.04-0.77-0.19c-0.2-0.23-0.45-0.44-0.75-0.62
					c-2.1-1.18-5.89-0.06-6.69,2.74c-0.11,0.39-0.59,0.54-0.91,0.3c-0.26-0.19-0.52-0.38-0.68-0.47c-3.41-1.98-8.26,0.12-8.96,4.27
					c-0.08,0.46-0.61,0.72-0.99,0.45c-0.12-0.08-0.24-0.16-0.38-0.24c-3.99-2.33-10.41,0.39-11.55,4.91
					c-0.25,0.99-0.2,1.91,0.08,2.71c0.11,0.32-0.03,0.67-0.34,0.81l-3.21,1.47c-0.82,0.38-1.76-0.23-1.76-1.14V12.52
					c0-0.91,0.94-1.51,1.76-1.14l36.51,16.76C64.79,29.9,64.91,44.28,61.35,46.22z"/>
			</defs>
			<clipPath id="SVGID_00000001631799865077802090000017635837945571764661_">
				<use xlink:href="#SVGID_1_"  style="overflow:visible;"/>
			</clipPath>
			<g style="clip-path:url(#SVGID_00000001631799865077802090000017635837945571764661_);">
				<g>
					<path d="M51.61,51.08l-0.64-1.4c0.72-0.34,2.62-4.95,2.62-13.28c0-8.24-1.92-12.79-2.64-13.13l0.62-1.41
						c2,0.87,3.57,7.26,3.57,14.54C55.12,43.72,53.58,50.17,51.61,51.08z"/>
				</g>
				<g>
					<path d="M38.26,57.15l-0.64-1.4c1.38-0.63,3.96-7.86,3.96-19.4c0-12.24-2.86-18.68-4-19.18l0.62-1.41
						c2.37,1.04,4.92,9.2,4.92,20.59C43.11,47.82,40.59,56.08,38.26,57.15z"/>
				</g>
			</g>
		</g>
		<g>
			<path class="st2" d="M29.09,37.19c0,20.35-5.01,33.07-9.01,22.89s-4.01-35.61,0-45.79S29.09,16.84,29.09,37.19z"/>
		</g>
		<g>
			<g>
				<path class="st3" d="M19.65,41.69v-9.01c0,0-2.05-0.65-4.31-0.65c-1.58,0-2.91,0.26-3.66,0.46c-0.39,0.1-0.66,0.45-0.66,0.85
					v7.68c0,0.4,0.27,0.75,0.66,0.85c0.75,0.19,2.07,0.46,3.66,0.46C17.6,42.33,19.65,41.69,19.65,41.69z"/>
			</g>
			<g>
				<path class="st3" d="M26.79,36.48l-5.22-6.15c-0.66-0.77-1.92-0.31-1.92,0.71v12.29c0,1.02,1.27,1.48,1.92,0.71l5.22-6.15
					C27.14,37.49,27.14,36.89,26.79,36.48z"/>
			</g>
		</g>
	</g>
</g>
</svg>
