<?xml version="1.0" encoding="utf-8"?>
<!-- Generator: Adobe Illustrator 26.4.1, SVG Export Plug-In . SVG Version: 6.00 Build 0)  -->
<svg version="1.1" id="Layer_1" xmlns="http://www.w3.org/2000/svg" xmlns:xlink="http://www.w3.org/1999/xlink" x="0px" y="0px"
	 viewBox="0 0 75 75" style="enable-background:new 0 0 75 75;" xml:space="preserve">
<style type="text/css">
	.st0{fill-rule:evenodd;clip-rule:evenodd;fill:#BC83FB;}
	.st1{fill-rule:evenodd;clip-rule:evenodd;fill:#1C1C1C;}
	.st2{fill:#BC83FB;}
	.st3{clip-path:url(#SVGID_00000168816590665948940400000007187701213905503877_);}
	.st4{fill:#1C1C1C;}
</style>
<g>
	<g>
		<path class="st0" d="M71.28,50.3l-1.92,0.88c-0.38,0.18-0.82,0.05-1.1-0.27c-0.28-0.33-0.63-0.63-1.07-0.87
			c-2.98-1.68-8.34-0.09-9.48,3.88c-0.16,0.55-0.83,0.76-1.29,0.42c-0.36-0.27-0.74-0.53-0.96-0.66c-4.83-2.81-11.7,0.16-12.69,6.04
			c-0.11,0.66-0.86,1.02-1.41,0.64c-0.17-0.12-0.35-0.23-0.53-0.34c-5.66-3.3-14.75,0.55-16.37,6.96c-0.35,1.41-0.29,2.7,0.11,3.83
			c0.16,0.45-0.05,0.95-0.48,1.15l-5.6,2.57c-0.67,0.31-1.44-0.19-1.44-0.94V1.41c0-0.75,0.77-1.24,1.44-0.94L71.28,24.7
			C76.16,27.18,76.32,47.55,71.28,50.3z"/>
	</g>
	<g>
		<path class="st1" d="M71.28,50.3l-1.91,0.88c-0.09,0.05-0.19,0.07-0.29,0.07c1.93-2.43,3.25-8.08,3.25-13.75
			c0-5.61-1.29-11.24-3.12-13.74l2.07,0.95C76.16,27.18,76.32,47.55,71.28,50.3z"/>
	</g>
	<g>
		<g>
			<path class="st2" d="M36.58,72.33c-5.29,2.25-10.38-0.63-9.16-5.17s7.83-7.36,11.9-5.06C43.39,64.4,41.86,70.08,36.58,72.33z"/>
		</g>
		<g>
			<path class="st2" d="M52.38,64.02c-4.3,1.83-8.44-0.51-7.45-4.2c0.99-3.7,6.36-5.98,9.67-4.11
				C57.92,57.58,56.68,62.2,52.38,64.02z"/>
		</g>
		<g>
			<path class="st2" d="M64.64,57.51c-3.1,1.32-6.08-0.37-5.37-3.03c0.71-2.66,4.59-4.31,6.97-2.96
				C68.63,52.86,67.74,56.19,64.64,57.51z"/>
		</g>
	</g>
	<g>
		<defs>
			<path id="SVGID_1_" d="M71.28,50.3l-1.92,0.88c-0.38,0.18-0.82,0.05-1.1-0.27c-0.28-0.33-0.63-0.63-1.07-0.87
				c-2.98-1.68-8.34-0.08-9.48,3.88c-0.16,0.55-0.83,0.76-1.29,0.42c-0.36-0.27-0.74-0.53-0.96-0.66
				c-4.83-2.81-11.7,0.17-12.69,6.05c-0.11,0.66-0.86,1.02-1.41,0.63c-0.17-0.12-0.35-0.23-0.53-0.34
				c-5.66-3.3-14.75,0.55-16.37,6.96c-0.35,1.41-0.29,2.7,0.11,3.84c0.16,0.45-0.05,0.95-0.48,1.15l-4.54,2.09
				c-1.17,0.54-2.49-0.32-2.49-1.61V2.56c0-1.29,1.33-2.14,2.49-1.61L71.28,24.7C76.16,27.18,76.32,47.55,71.28,50.3z"/>
		</defs>
		<clipPath id="SVGID_00000128448922089671198100000001301056915068158645_">
			<use xlink:href="#SVGID_1_"  style="overflow:visible;"/>
		</clipPath>
		<g style="clip-path:url(#SVGID_00000128448922089671198100000001301056915068158645_);">
			<g>
				<path class="st4" d="M57.32,56.82l-0.58-1.27c1.37-0.63,3.93-7.77,3.93-19.17c0-11.31-2.59-18.36-3.98-18.96l0.56-1.28
					c2.32,1.01,4.82,9.04,4.82,20.25C62.07,47.66,59.6,55.77,57.32,56.82z"/>
			</g>
			<g>
				<path class="st4" d="M38.41,65.42l-0.58-1.27c2.09-0.96,5.83-11.08,5.83-27.83c0-16.61-3.78-26.59-5.9-27.52l0.56-1.28
					c3.24,1.42,6.74,12.83,6.74,28.8C45.06,52.41,41.61,63.96,38.41,65.42z"/>
			</g>
		</g>
	</g>
	<g>
		<path class="st1" d="M25.59,37.5c0,28.82-7.09,46.84-12.77,32.43s-5.67-50.44,0-64.86S25.59,8.68,25.59,37.5z"/>
	</g>
	<g>
		<g>
			<path class="st2" d="M12.22,43.88V31.12c0,0-2.91-0.91-6.11-0.91c-2.24,0-4.12,0.38-5.18,0.65C0.38,30.99,0,31.49,0,32.06v10.88
				c0,0.57,0.38,1.07,0.93,1.21c1.06,0.27,2.93,0.65,5.18,0.65C9.31,44.79,12.22,43.88,12.22,43.88z"/>
		</g>
		<g>
			<path class="st2" d="M22.33,36.5l-7.39-8.71c-0.93-1.1-2.72-0.44-2.72,1v17.41c0,1.44,1.79,2.1,2.72,1l7.39-8.71
				C22.82,37.92,22.82,37.08,22.33,36.5z"/>
		</g>
	</g>
</g>
</svg>
