<svg enable-background="new 0 0 75 75" version="1.1" viewBox="0 0 75 75" xmlns="http://www.w3.org/2000/svg">
 <style type="text/css">.st0{fill:#FFFFFF;}
	.st1{fill-rule:evenodd;clip-rule:evenodd;fill:#BC83FB;}
	.st2{fill-rule:evenodd;clip-rule:evenodd;}
	.st3{fill-rule:evenodd;clip-rule:evenodd;fill:#FFFFFF;}</style>
 <ellipse class="st0" transform="matrix(.7071 -.7071 .7071 .7071 -15.53 37.5)" cx="37.5" cy="37.5" rx="38.92" ry="36.03"/>
 <path class="st1" d="m57.68 58.24h-34.08c-3.02 0-5.47-2.45-5.47-5.47v-35.45c0-3.02 2.45-5.47 5.47-5.47h34.09c3.02 0 5.47 2.45 5.47 5.47v35.45c-0.01 3.02-2.46 5.47-5.48 5.47z"/>
 <path d="m54.84 55.37h-28.41c-3.06 0-5.55-2.49-5.55-5.55v-29.55c0-3.06 2.49-5.55 5.55-5.55h28.41c3.06 0 5.55 2.49 5.55 5.55v29.54c0 3.07-2.49 5.56-5.55 5.56zm-28.41-38.67c-1.97 0-3.57 1.6-3.57 3.57v29.54c0 1.97 1.6 3.57 3.57 3.57h28.41c1.97 0 3.57-1.6 3.57-3.57v-29.54c0-1.97-1.6-3.57-3.57-3.57h-28.41z"/>
 <circle class="st2" cx="49.12" cy="25.05" r="3.99"/>
 <path d="m49.12 32.79c-0.66 0-1.2-0.54-1.2-1.2v-6.55c0-0.66 0.54-1.2 1.2-1.2s1.2 0.54 1.2 1.2v6.55c-0.01 0.66-0.54 1.2-1.2 1.2z"/>
 <circle class="st2" cx="49.12" cy="41.64" r="3.99"/>
 <path d="m49.12 49.38c-0.66 0-1.2-0.54-1.2-1.2v-6.55c0-0.66 0.54-1.2 1.2-1.2s1.2 0.54 1.2 1.2v6.55c-0.01 0.66-0.54 1.2-1.2 1.2z"/>
 <path class="st2" d="m55.46 63.15h-3.39c-0.66 0-1.2-0.54-1.2-1.2v-3.72h5.78v3.72c0 0.67-0.53 1.2-1.19 1.2z"/>
 <path class="st2" d="m29.21 63.15h-3.39c-0.66 0-1.2-0.54-1.2-1.2v-3.72h5.78v3.72c0 0.67-0.53 1.2-1.19 1.2z"/>
 <circle class="st2" cx="18.04" cy="49.22" r="6.19"/>
 <circle class="st3" cx="15.92" cy="49.22" r="2"/>
 <path class="st2" d="m37.93 49.68-1.47 1.96c-0.15 0.2-0.38 0.31-0.61 0.31h-0.19c-0.21 0-0.39-0.15-0.43-0.36-0.17-0.9-0.96-1.59-1.91-1.59-0.93 0-1.71 0.66-1.9 1.53-0.05 0.24-0.27 0.42-0.52 0.42h-0.43c-0.25 0-0.46-0.17-0.52-0.42-0.19-0.87-0.97-1.53-1.9-1.53s-1.7 0.65-1.9 1.52c-0.06 0.25-0.28 0.42-0.53 0.42h-2.14c-0.42 0-0.77-0.34-0.77-0.77v-3.92c0-0.42 0.34-0.77 0.77-0.77h12.37c0.24 0 0.47 0.11 0.61 0.31l1.47 1.96c0.21 0.29 0.21 0.66 0 0.93z"/>
 <circle class="st2" cx="18.04" cy="20.87" r="6.19"/>
 <circle class="st3" cx="15.92" cy="20.87" r="2"/>
 <path class="st2" d="m38.21 20.45v4.97c0 0.45-0.37 0.82-0.82 0.82h-0.85c-0.49 0-0.88-0.39-0.88-0.88v-1.92c0-0.43-0.34-0.77-0.77-0.77s-0.77 0.34-0.77 0.77v1.92c0 0.49-0.39 0.88-0.88 0.88h-0.83c-0.45 0-0.82-0.37-0.82-0.82v-2.35c0-0.23-0.19-0.42-0.42-0.42h-8.21c-0.23 0-0.42-0.19-0.42-0.42v-2.75c0-0.23 0.19-0.42 0.42-0.42h13.89c0.75 0.01 1.36 0.63 1.36 1.39z"/>
 <circle class="st2" cx="18.04" cy="35.04" r="6.19"/>
 <circle class="st3" cx="15.92" cy="35.04" r="2"/>
 <path class="st2" d="m38.3 37.3-2.09 1.95c-0.32 0.3-0.81 0.26-1.09-0.07l-1.62-1.94c-0.1-0.13-0.26-0.2-0.42-0.2h-0.5c-0.27 0-0.52-0.17-0.61-0.42l-0.53-1.36c-0.15-0.4-0.6-0.6-1-0.44-0.4 0.15-0.6 0.6-0.44 1l0.13 0.34c0.16 0.43-0.15 0.89-0.62 0.89h-0.23c-0.27 0-0.52-0.17-0.61-0.42l-0.53-1.36c-0.15-0.4-0.6-0.6-1-0.44-0.4 0.15-0.6 0.6-0.45 1l0.13 0.34c0.16 0.43-0.15 0.89-0.62 0.89h-3.94c-0.3 0-0.54-0.24-0.54-0.54v-2.8c0-0.3 0.24-0.54 0.54-0.54h14.35c0.22 0 0.42 0.14 0.5 0.34l1.3 3.21c0.1 0.18 0.05 0.41-0.11 0.57z"/>
</svg>
