<?xml version="1.0" encoding="utf-8"?>
<!-- Generator: Adobe Illustrator 27.1.1, SVG Export Plug-In . SVG Version: 6.00 Build 0)  -->
<svg version="1.1" id="Layer_1" xmlns="http://www.w3.org/2000/svg" xmlns:xlink="http://www.w3.org/1999/xlink" x="0px" y="0px"
	 viewBox="0 0 75 75" style="enable-background:new 0 0 75 75;" xml:space="preserve">
<style type="text/css">
	.st0{fill:#FFFFFF;}
	.st1{fill:#BC83FB;}
</style>
<g>
	<ellipse transform="matrix(0.7071 -0.7071 0.7071 0.7071 -15.533 37.5)" class="st0" cx="37.5" cy="37.5" rx="38.92" ry="36.03"/>
	<g>
		<g>
			<g>
				<path class="st1" d="M65.02,46.58V28.42c0-3.28-1.82-6.28-4.72-7.8l-18.12-9.49c-2.93-1.53-6.42-1.53-9.35,0L14.7,20.62
					c-2.9,1.52-4.72,4.53-4.72,7.8v18.16c0,3.28,1.82,6.28,4.72,7.8l18.12,9.49c2.93,1.53,6.42,1.53,9.35,0l18.12-9.49
					C63.2,52.86,65.02,49.86,65.02,46.58z"/>
			</g>
		</g>
		<g>
			<g>
				<path class="st0" d="M37.5,62.21c-1.37,0-2.74-0.33-3.98-0.98l-16.57-8.67c-2.48-1.3-4.02-3.84-4.02-6.64V29.08
					c0-2.8,1.54-5.34,4.02-6.64l16.57-8.67c2.49-1.31,5.47-1.31,7.96,0l16.57,8.67c2.48,1.3,4.02,3.84,4.02,6.64v16.83
					c0,2.8-1.54,5.34-4.02,6.64l-16.57,8.67C40.24,61.89,38.87,62.21,37.5,62.21z M37.5,14.99c-1.02,0-2.03,0.24-2.96,0.73
					l-16.57,8.67c-1.75,0.92-2.84,2.72-2.84,4.69v16.83c0,1.98,1.09,3.78,2.84,4.69l16.57,8.67c1.86,0.97,4.07,0.97,5.92,0
					l16.57-8.67c1.75-0.92,2.84-2.71,2.84-4.69V29.08c0-1.98-1.09-3.77-2.84-4.69l-16.57-8.67C39.53,15.23,38.52,14.99,37.5,14.99z"
					/>
			</g>
		</g>
		<g>
			<g>
				<g>
					<path d="M26.97,31.86v5.82c0,0.3-0.37,0.43-0.57,0.2l-5.33-6.43c-0.12-0.15-0.3-0.23-0.49-0.23h-2.27
						c-0.35,0-0.64,0.29-0.64,0.64v12.5c0,0.35,0.29,0.64,0.64,0.64h2.54c0.35,0,0.64-0.29,0.64-0.64v-5.82
						c0-0.3,0.37-0.43,0.57-0.2l5.33,6.43c0.12,0.15,0.3,0.23,0.49,0.23h2.27c0.35,0,0.64-0.29,0.64-0.64v-12.5
						c0-0.35-0.29-0.64-0.64-0.64h-2.54C27.25,31.22,26.97,31.5,26.97,31.86z"/>
				</g>
			</g>
			<g>
				<g>
					<path d="M43.52,33.59v-1.73c0-0.35-0.29-0.64-0.64-0.64h-9.53c-0.35,0-0.64,0.29-0.64,0.64v12.5c0,0.35,0.29,0.64,0.64,0.64
						h2.62c0.35,0,0.64-0.29,0.64-0.64v-3.45c0-0.35,0.29-0.64,0.64-0.64h4.81c0.35,0,0.64-0.29,0.64-0.64V37.9
						c0-0.35-0.29-0.64-0.64-0.64h-4.81c-0.35,0-0.64-0.29-0.64-0.64v-1.75c0-0.35,0.29-0.64,0.64-0.64h5.63
						C43.24,34.23,43.52,33.94,43.52,33.59z"/>
				</g>
			</g>
			<g>
				<g>
					<path d="M44.98,31.86v1.81c0,0.35,0.29,0.64,0.64,0.64h2.96c0.35,0,0.64,0.29,0.64,0.64v9.41c0,0.35,0.29,0.64,0.64,0.64h2.62
						c0.35,0,0.64-0.29,0.64-0.64v-9.41c0-0.35,0.29-0.64,0.64-0.64h2.94c0.35,0,0.64-0.29,0.64-0.64v-1.81
						c0-0.35-0.29-0.64-0.64-0.64H45.62C45.27,31.22,44.98,31.5,44.98,31.86z"/>
				</g>
			</g>
		</g>
	</g>
</g>
</svg>
