<?xml version="1.0" encoding="utf-8"?>
<!-- Generator: Adobe Illustrator 27.1.1, SVG Export Plug-In . SVG Version: 6.00 Build 0)  -->
<svg version="1.1" id="Layer_1" xmlns="http://www.w3.org/2000/svg" xmlns:xlink="http://www.w3.org/1999/xlink" x="0px" y="0px"
	 viewBox="0 0 199.5 199.5" style="enable-background:new 0 0 199.5 199.5;" xml:space="preserve">
<style type="text/css">
	.st0{fill:#FFFFFF;}
	.st1{fill:#E6007A;}
</style>
<g>
	
		<ellipse transform="matrix(0.7071 -0.7071 0.7071 0.7071 -41.3218 99.7596)" class="st0" cx="99.8" cy="99.8" rx="103.5" ry="95.8"/>
	<g>
		<ellipse class="st1" cx="99.8" cy="35.6" rx="29.3" ry="17"/>
		<ellipse class="st1" cx="99.8" cy="163.9" rx="29.3" ry="17"/>
		<ellipse transform="matrix(0.5 -0.866 0.866 0.5 -36.5163 72.0992)" class="st1" cx="44.2" cy="67.7" rx="29.3" ry="17"/>
		<ellipse transform="matrix(0.5 -0.866 0.866 0.5 -36.5106 200.4542)" class="st1" cx="155.3" cy="131.8" rx="29.3" ry="17"/>
		<ellipse transform="matrix(0.866 -0.5 0.5 0.866 -60.008 39.757)" class="st1" cx="44.2" cy="131.9" rx="17" ry="29.3"/>
		<ellipse transform="matrix(0.866 -0.5 0.5 0.866 -13.025 86.737)" class="st1" cx="155.3" cy="67.7" rx="17" ry="29.3"/>
	</g>
</g>
</svg>
