<?xml version="1.0" encoding="UTF-8" standalone="no"?>
<svg
   enable-background="new 0 0 75 75"
   version="1.1"
   viewBox="0 0 75 75"
   id="svg36"
   sodipodi:docname="RISC-V-logo.svg"
   inkscape:version="1.3.2 (091e20e, 2023-11-25)"
   xmlns:inkscape="http://www.inkscape.org/namespaces/inkscape"
   xmlns:sodipodi="http://sodipodi.sourceforge.net/DTD/sodipodi-0.dtd"
   xmlns="http://www.w3.org/2000/svg"
   xmlns:svg="http://www.w3.org/2000/svg">
  <defs
     id="defs36" />
  <sodipodi:namedview
     id="namedview36"
     pagecolor="#ffffff"
     bordercolor="#000000"
     borderopacity="0.25"
     inkscape:showpageshadow="2"
     inkscape:pageopacity="0.0"
     inkscape:pagecheckerboard="0"
     inkscape:deskcolor="#d1d1d1"
     inkscape:zoom="3.9220856"
     inkscape:cx="42.069454"
     inkscape:cy="51.630693"
     inkscape:window-width="1280"
     inkscape:window-height="1302"
     inkscape:window-x="1280"
     inkscape:window-y="25"
     inkscape:window-maximized="0"
     inkscape:current-layer="svg36" />
  <style
     type="text/css"
     id="style1">.st0{fill:#FFFFFF;}
	.st1{fill:#BC83FB;}
	.st2{fill:#383838;}
	.st3{fill:#666666;}
	.st4{fill-rule:evenodd;clip-rule:evenodd;fill:#BC83FB;}
	.st5{fill-rule:evenodd;clip-rule:evenodd;fill:#5A007E;}
	.st6{fill-rule:evenodd;clip-rule:evenodd;fill:#D8B6FF;}</style>
  <ellipse
     class="st0"
     transform="rotate(-45)"
     cx="0.22039765"
     cy="52.816128"
     rx="38.919624"
     ry="36.029652"
     id="ellipse1"
     style="stroke-width:0.99999" />
  <g
     id="g36"
     transform="matrix(0.08239495,0,0,0.08239495,35.596677,34.303076)">
    <g
       id="g5"
       transform="translate(-560.6,-41.2)">
		
		
		<rect
   x="388.70001"
   y="26.299999"
   class="st1"
   width="22.9"
   height="107.4"
   id="rect2"
   style="fill:#283272" />

		<path
   class="st1"
   d="m 547.8,110.2 -119,-0.1 v 23.6 h 119.9 c 9,0 16.6,-3.5 22.9,-9.7 6.2,-6.2 9.7,-13.9 9.7,-22.9 0,-9 -3.5,-16.6 -9.7,-22.9 -6.2,-6.2 -13.9,-9.7 -22.9,-9.7 L 461.5,68 c -5.1,0 -9.3,-4.2 -9.3,-9.3 v 0 0 c 0,-5.2 4.2,-9.3 9.4,-9.3 l 119.7,-0.1 v -23 H 461.4 c -9,0 -16.6,3.5 -22.9,9.7 -6.2,6.2 -9.7,13.9 -9.7,22.9 0,9 3.5,16.6 9.7,22.9 6.2,6.2 13.8,9 22.9,9 h 87.1 c 5.2,0 9.4,4.2 9.3,9.4 v 0 0 c 0.1,5.5 -4.4,10 -10,10 z"
   id="path3"
   style="fill:#283272" />

		<path
   class="st1"
   d="m 645.7,26.3 h 99.1 v 22.9 h -99.1 c -8.3,0 -15.2,2.7 -21.5,9 -6.2,6.2 -9,13.2 -9,21.5 0,8.3 2.8,15.2 9,21.5 6.3,6.2 13.2,9 21.5,9 h 99.1 v 23.6 h -99 c -14.5,0 -27.1,-5.6 -37.5,-16 -10.4,-10.4 -15.2,-22.9 -15.2,-37.4 0,-14.5 4.8,-27 15.2,-37.4 10.4,-11.1 22.9,-16.7 37.4,-16.7 z"
   id="path4"
   style="fill:#283272" />

		<path
   class="st1"
   d="M 338.1,69.5 242.5,69.3 V 49.9 l 96.6,-0.2 c 5.2,0 9.4,4.2 9.5,9.4 v 0 0 c -0.1,5.7 -4.8,10.4 -10.5,10.4 z m 34,64.2 -30.5,-42.3 c 8.3,-0.7 15.2,-3.5 20.8,-9.7 6.2,-6.3 9.7,-13.9 9.7,-22.9 0,-9 -3.5,-16.6 -9.7,-22.9 -6.2,-6.3 -13.9,-9.7 -22.9,-9.7 H 219.6 v 107.4 h 22.9 V 91.3 h 70.7 l 30.5,42.3 h 28.4 z"
   id="path5"
   style="fill:#283272" />

		<polyline
   class="st0"
   points="859.1,133.7 796.3,26.3 823.2,26.3 872.3,111.5 921.3,26.3 947.8,26.3 885.4,133.7   "
   id="polyline5"
   style="fill:#f5b21b" />

		<rect
   x="758.70001"
   y="70"
   class="st0"
   width="45"
   height="20.799999"
   id="rect5"
   style="fill:#f5b21b" />

	</g>
  </g>
</svg>
