<?xml version="1.0" encoding="utf-8"?>
<!-- Generator: Adobe Illustrator 26.4.1, SVG Export Plug-In . SVG Version: 6.00 Build 0)  -->
<svg version="1.1" id="Layer_1" xmlns="http://www.w3.org/2000/svg" xmlns:xlink="http://www.w3.org/1999/xlink" x="0px" y="0px"
	 viewBox="0 0 150 150" style="enable-background:new 0 0 150 150;" xml:space="preserve">
<style type="text/css">
	.st0{fill:#5A007E;}
	.st1{fill:#BC83FB;}
</style>
<g>
	<path class="st0" d="M119.66,109.06c0,0-8.11,27.02-6.26,28.55c1.86,1.53,17.35-28.55,17.35-28.55H119.66z"/>
	<path class="st0" d="M31.48,109.06c0,0,8.11,27.02,6.26,28.55c-1.86,1.53-17.35-28.55-17.35-28.55H31.48z"/>
	<path class="st1" d="M27.54,85.99c-5.07-4.52-15.43-5.2-10.82,10.37l4.25,12.94c0,0,52.44,29.14,108.65,0.31l3.64-13.17
		c1.59-5.27,5.46-19.55-10.47-11.24c7.06-14.66-1.07-19.09-8.6-13.38c2.14-17.88-6.72-16.5-11.55-9.06
		C102.2,46.28,94.91,44.36,89,55.95c-3.63-16.17-12.72-10.09-14.51-1.34c-7.52-14.52-15.71-7.65-14.82,3.73
		c-12.01-10.66-15.43-3.14-12.86,7.08c-11.94-8.49-15.64,0.09-10.47,9.25C26.09,67.41,21.17,76.23,27.54,85.99z"/>
	<g>
		<path d="M69.62,100.33c0.28,3.31,2.77,5.63,6.01,5.62c3.28,0.05,5.69-2.32,5.95-5.65c0.08-0.67,0.68-1.15,1.35-1.07
			c1.81,0.33,1,3.1,0.75,4.41c-1.72,6.04-10.24,7.51-14.35,3.02c-1.61-1.66-2.32-4.09-2.13-6.32c0.06-0.67,0.65-1.17,1.32-1.11
			C69.11,99.27,69.57,99.75,69.62,100.33L69.62,100.33z"/>
		<path d="M81.13,92.26c0.07-10.1,15.57-12.44,19.63-3.67c0.55,1.44,1.79,4.79-0.57,5c-0.65,0-1.19-0.47-1.32-1.08
			c-0.42-1.78-1.36-3.19-2.7-4.12c-4.14-2.86-11.28-1.29-12.36,4.14C83.47,94.11,81.13,93.86,81.13,92.26L81.13,92.26z"/>
		<path d="M67.4,92.53c-1.31-7.47-13.8-7.59-15.06-0.02c-0.3,1.62-2.71,1.37-2.68-0.27c0.12-8.43,11.23-11.59,17.15-6.59
			c1.97,1.57,3.24,4.11,3.27,6.61c0.02,0.75-0.58,1.36-1.32,1.38C68.08,93.65,67.51,93.17,67.4,92.53L67.4,92.53z"/>
	</g>
	<path class="st1" d="M132.26,98.08c17.41,7.69,22.83,8.81,12.52,20.45c-7.15,8.07-14.31,24.92-18.64,31.03
		c-0.7,0.99-2.23,0.18-1.83-0.96c5.66-16.23,11.64-35.56,5.32-38.17C121.37,107.02,132.26,98.08,132.26,98.08z"/>
	<path class="st1" d="M17.74,98C0.33,105.69-5.1,106.89,5.2,118.53c7.15,8.07,14.31,24.92,18.64,31.03c0.7,0.99,2.23,0.18,1.83-0.96
		c-5.66-16.23-11.64-35.56-5.32-38.17C28.61,107.02,17.74,98,17.74,98z"/>
	<g>
		<path class="st1" d="M22.26,84.77C8.65,68.15,16.69,52.15,19.21,47.5c0.38-0.7,0.14-1.57-0.55-1.96l0,0
			c-0.66-0.38-1.52-0.17-1.93,0.47c-17.2,27.07,0.44,42.76,0.44,42.76L22.26,84.77z"/>
		<path class="st1" d="M1.7,32.44c6.51,17.98,29.93,22.13,42.16,7.46c7.14-8.57,7.33-19.81,2.52-28.34c-0.36-0.64-1.2-0.79-1.74-0.3
			L22.75,30.92c-0.7,0.63-1.82,0.17-1.88-0.78L19.29,1.07c-0.04-0.74-0.77-1.23-1.47-1.02C4.92,3.94-3.42,18.3,1.7,32.44z"/>
	</g>
	<g>
		<path class="st1" d="M127.91,84.77c13.61-16.61,5.57-32.62,3.04-37.26c-0.38-0.7-0.14-1.57,0.55-1.96v0
			c0.66-0.38,1.52-0.17,1.93,0.47c17.2,27.07-0.44,42.76-0.44,42.76L127.91,84.77z"/>
		<path class="st1" d="M148.47,32.44c-6.51,17.98-29.93,22.13-42.16,7.46c-7.14-8.57-7.33-19.81-2.52-28.34
			c0.36-0.64,1.2-0.79,1.74-0.3l21.89,19.66c0.7,0.63,1.82,0.17,1.88-0.78l1.58-29.07c0.04-0.74,0.77-1.23,1.47-1.02
			C145.25,3.94,153.59,18.3,148.47,32.44z"/>
	</g>
	<path class="st0" d="M128.72,111.26c-31.96,18.99-73.31,15.68-105.99,0.14c-0.25-0.12-0.35-0.43-0.23-0.68
		c0.12-0.24,0.41-0.34,0.66-0.24c16.87,6.18,34.79,9.89,52.76,10.38c12.88,0.39,25.83-1.22,38.15-4.99
		c4.85-1.48,9.52-3.41,14.16-5.51c0.26-0.12,0.57-0.01,0.69,0.25C129.03,110.86,128.94,111.13,128.72,111.26L128.72,111.26z"/>
</g>
</svg>
