<svg enable-background="new 0 0 75.01 75.01" version="1.1" viewBox="0 0 75.01 75.01" xmlns="http://www.w3.org/2000/svg">
 <style type="text/css">.st0{fill:#FFFFFF;}
	.st1{fill:#BC83FB;}</style>
 <ellipse class="st0" transform="matrix(.7071 -.7071 .7071 .7071 -15.53 37.5)" cx="37.5" cy="37.5" rx="38.92" ry="36.03"/>
 <path d="m52.37 48.84s-2.7 9-2.08 9.51 5.78-9.51 5.78-9.51h-3.7z"/>
 <path d="m23.01 48.84s2.7 9 2.08 9.51-5.78-9.51-5.78-9.51h3.7z"/>
 <path class="st1" d="m21.69 41.16c-1.69-1.51-5.14-1.73-3.6 3.45l1.42 4.31s17.46 9.7 36.18 0.1l1.21-4.39c0.53-1.75 1.82-6.51-3.49-3.74 2.35-4.88-0.36-6.36-2.86-4.46 0.71-5.95-2.24-5.49-3.85-3.02-0.15-5.49-2.57-6.13-4.54-2.27-1.21-5.38-4.24-3.36-4.83-0.45-2.5-4.83-5.23-2.55-4.94 1.24-4-3.55-5.14-1.05-4.28 2.36-3.98-2.83-5.21 0.03-3.49 3.08-3.41-2.4-5.05 0.54-2.93 3.79z"/>
 <path d="m35.71 45.93c0.09 1.1 0.92 1.87 2 1.87 1.09 0.02 1.89-0.77 1.98-1.88 0.03-0.22 0.23-0.38 0.45-0.36 0.6 0.11 0.33 1.03 0.25 1.47-0.57 2.01-3.41 2.5-4.78 1.01-0.54-0.55-0.77-1.36-0.71-2.1 0.02-0.22 0.22-0.39 0.44-0.37 0.2 0.01 0.35 0.17 0.37 0.36z"/>
 <path d="m39.54 43.25c0.02-3.36 5.18-4.14 6.54-1.22 0.18 0.48 0.6 1.6-0.19 1.66-0.22 0-0.4-0.16-0.44-0.36-0.14-0.59-0.45-1.06-0.9-1.37-1.38-0.95-3.76-0.43-4.12 1.38-0.11 0.52-0.89 0.44-0.89-0.09z"/>
 <path d="m34.97 43.34c-0.44-2.49-4.6-2.53-5.02-0.01-0.1 0.54-0.9 0.46-0.89-0.09 0.04-2.81 3.74-3.86 5.71-2.19 0.66 0.52 1.08 1.37 1.09 2.2 0.01 0.25-0.19 0.45-0.44 0.46-0.23 0-0.42-0.16-0.45-0.37z"/>
 <path class="st1" d="m56.57 45.18c5.8 2.56 7.6 2.93 4.17 6.81-2.38 2.69-4.77 8.3-6.21 10.33-0.23 0.33-0.74 0.06-0.61-0.32 1.88-5.4 3.88-11.84 1.77-12.71-2.75-1.13 0.88-4.11 0.88-4.11z"/>
 <path class="st1" d="m18.43 45.16c-5.8 2.56-7.61 2.96-4.18 6.84 2.38 2.69 4.77 8.3 6.21 10.33 0.23 0.33 0.74 0.06 0.61-0.32-1.88-5.4-3.88-11.84-1.77-12.71 2.75-1.14-0.87-4.14-0.87-4.14z"/>
 <path class="st1" d="m19.94 40.75c-4.53-5.53-1.85-10.86-1.02-12.41 0.13-0.23 0.05-0.52-0.18-0.65-0.22-0.13-0.51-0.06-0.64 0.16-5.73 9.01 0.15 14.24 0.15 14.24l1.69-1.34z"/>
 <path class="st1" d="m13.09 23.33c2.17 5.99 9.97 7.37 14.04 2.48 2.38-2.85 2.44-6.6 0.84-9.44-0.12-0.21-0.4-0.26-0.58-0.1l-7.29 6.55c-0.23 0.21-0.61 0.06-0.63-0.26l-0.53-9.68c-0.01-0.25-0.26-0.41-0.49-0.34-4.29 1.3-7.07 6.08-5.36 10.79z"/>
 <path class="st1" d="m55.12 40.75c4.53-5.53 1.85-10.86 1.01-12.41-0.13-0.23-0.05-0.52 0.18-0.65 0.22-0.13 0.51-0.06 0.64 0.16 5.73 9.01-0.15 14.24-0.15 14.24l-1.68-1.34z"/>
 <path class="st1" d="m61.96 23.33c-2.17 5.99-9.97 7.37-14.04 2.48-2.38-2.85-2.44-6.6-0.84-9.44 0.12-0.21 0.4-0.26 0.58-0.1l7.29 6.55c0.23 0.21 0.61 0.06 0.63-0.26l0.53-9.68c0.01-0.25 0.26-0.41 0.49-0.34 4.29 1.3 7.07 6.08 5.36 10.79z"/>
 <path d="m55.39 49.57c-10.64 6.32-24.41 5.22-35.3 0.05-0.08-0.04-0.12-0.14-0.08-0.23 0.04-0.08 0.14-0.11 0.22-0.08 5.62 2.06 11.59 3.29 17.57 3.46 4.29 0.13 8.6-0.41 12.7-1.66 1.62-0.49 3.17-1.14 4.72-1.83 0.09-0.04 0.19 0 0.23 0.08s0.01 0.17-0.06 0.21z"/>
</svg>
