<svg enable-background="new 0 0 75 75" version="1.1" viewBox="0 0 75 75" xmlns="http://www.w3.org/2000/svg">
 <style type="text/css">.st0{fill:#FFFFFF;}
	.st1{fill:#24CC85;}</style>
 <ellipse class="st0" transform="matrix(.7071 -.7071 .7071 .7071 -15.53 37.5)" cx="37.5" cy="37.5" rx="38.92" ry="36.03"/>
 <path class="st1" d="m59.1 61.03h-43.2c-1.06 0-1.93-0.86-1.93-1.93v-7.33c0-1.06 0.86-1.93 1.93-1.93h43.2c1.06 0 1.93 0.86 1.93 1.93v7.33c0 1.07-0.86 1.93-1.93 1.93z"/>
 <path d="m46.86 30.19c-4.04-2.98-8.35-2.84-10.73-3.51-2.86-0.81-4-3.63-2.04-5.09 2.23-1.67 6.07-0.09 6.58 2.2 0.13 0.6 0.66 1.03 1.27 1.03h6.29c0.79 0 1.42-0.7 1.3-1.49-1.23-8.29-15.33-12.95-22.56-5.94-3.88 3.77-3.59 9.2 0.36 12.54 4.96 4.18 12.16 1.78 13.98 6.32 0.97 2.41-1.64 4.35-4.69 3.5-1.78-0.5-2.93-1.74-3.17-2.99-0.12-0.62-0.65-1.08-1.28-1.08h-6.59c-0.8 0-1.42 0.72-1.3 1.51 0.69 4.38 4.97 8.48 11.44 9.45 13.06 1.95 18.93-10.7 11.14-16.45z"/>
</svg>
