<?xml version="1.0" encoding="utf-8"?>
<!-- Generator: Adobe Illustrator 26.4.1, SVG Export Plug-In . SVG Version: 6.00 Build 0)  -->
<svg version="1.1" id="Layer_1" xmlns="http://www.w3.org/2000/svg" xmlns:xlink="http://www.w3.org/1999/xlink" x="0px" y="0px"
	 viewBox="0 0 75 75" style="enable-background:new 0 0 75 75;" xml:space="preserve">
<style type="text/css">
	.st0{fill:#24CC85;}
</style>
<g>
	<path class="st0" d="M71.93,75H3.07C1.37,75,0,73.63,0,71.93V60.25c0-1.69,1.37-3.07,3.07-3.07h68.86c1.69,0,3.07,1.37,3.07,3.07
		v11.68C75,73.63,73.63,75,71.93,75z"/>
	<g>
		<path d="M52.42,25.85c-6.44-4.75-13.3-4.52-17.1-5.59c-4.56-1.29-6.37-5.79-3.25-8.11c3.55-2.66,9.67-0.14,10.48,3.5
			c0.21,0.96,1.05,1.65,2.03,1.65h10.03c1.26,0,2.26-1.12,2.07-2.37C54.72,1.71,32.25-5.73,20.74,5.45
			c-6.19,6.01-5.73,14.66,0.57,19.98c7.9,6.67,19.39,2.84,22.28,10.07c1.54,3.84-2.61,6.94-7.48,5.57c-2.84-0.8-4.67-2.77-5.05-4.76
			c-0.19-1-1.03-1.73-2.05-1.73h-10.5c-1.28,0-2.27,1.15-2.07,2.41c1.1,6.98,7.92,13.51,18.23,15.05
			C55.47,55.17,64.84,35.01,52.42,25.85z"/>
	</g>
</g>
</svg>
