<?xml version="1.0" encoding="utf-8"?>
<!-- Generator: Adobe Illustrator 27.1.1, SVG Export Plug-In . SVG Version: 6.00 Build 0)  -->
<svg version="1.1" id="Layer_1" xmlns="http://www.w3.org/2000/svg" xmlns:xlink="http://www.w3.org/1999/xlink" x="0px" y="0px"
	 viewBox="0 0 75 75" style="enable-background:new 0 0 75 75;" xml:space="preserve">
<style type="text/css">
	.st0{fill:#FFFFFF;}
	.st1{fill:#BC83FB;}
</style>
<g>
	<ellipse transform="matrix(0.7071 -0.7071 0.7071 0.7071 -15.533 37.5)" class="st0" cx="37.5" cy="37.5" rx="38.92" ry="36.03"/>
	<g>
		<g>
			<g>
				<path d="M49.44,63.68c-0.66,0-1.2-0.54-1.2-1.2s0.54-1.2,1.2-1.2h6.76c0.66,0,1.24,0.54,1.24,1.2c0,0.66-0.5,1.2-1.16,1.2v-1.2
					l-0.03,1.2L49.44,63.68z M41.71,63.68h-6.76c-0.66,0-1.2-0.54-1.2-1.2s0.54-1.2,1.2-1.2h6.76c0.66,0,1.2,0.54,1.2,1.2
					S42.37,63.68,41.71,63.68z M27.22,63.68h-6.76c-0.66,0-1.2-0.54-1.2-1.2s0.54-1.2,1.2-1.2h6.76c0.66,0,1.2,0.54,1.2,1.2
					S27.88,63.68,27.22,63.68z M13.87,60.48c-0.4,0-0.8-0.21-1.03-0.58c-0.75-1.23-1.15-2.64-1.15-4.09V52.7
					c0-0.66,0.54-1.2,1.2-1.2s1.2,0.54,1.2,1.2v3.12c0,1,0.27,1.99,0.79,2.84c0.35,0.57,0.17,1.3-0.4,1.65
					C14.3,60.43,14.08,60.48,13.87,60.48z M62.34,59.61c-0.16,0-0.31-0.03-0.47-0.09c-0.61-0.26-0.9-0.96-0.64-1.57
					c0.28-0.67,0.43-1.39,0.43-2.12v-4.1c0-0.66,0.54-1.2,1.2-1.2s1.2,0.54,1.2,1.2v4.1c0,1.06-0.21,2.09-0.62,3.06
					C63.25,59.34,62.81,59.61,62.34,59.61z M12.9,46.17c-0.66,0-1.2-0.54-1.2-1.2v-6.76c0-0.66,0.54-1.2,1.2-1.2s1.2,0.54,1.2,1.2
					v6.76C14.1,45.64,13.56,46.17,12.9,46.17z M62.86,45.19c-0.66,0-1.2-0.54-1.2-1.2v-6.76c0-0.66,0.54-1.2,1.2-1.2
					s1.2,0.54,1.2,1.2v6.76C64.06,44.66,63.52,45.19,62.86,45.19z M12.9,31.68c-0.66,0-1.2-0.54-1.2-1.2v-6.76
					c0-0.66,0.54-1.2,1.2-1.2s1.2,0.54,1.2,1.2v6.76C14.1,31.15,13.56,31.68,12.9,31.68z M62.86,30.71c-0.66,0-1.2-0.54-1.2-1.2
					v-6.76c0-0.66,0.54-1.2,1.2-1.2s1.2,0.54,1.2,1.2v6.76C64.06,30.17,63.52,30.71,62.86,30.71z M13.64,17.32
					c-0.19,0-0.38-0.04-0.55-0.14c-0.59-0.31-0.82-1.03-0.51-1.62c1.26-2.43,3.64-4.01,6.37-4.22c0.65-0.05,1.24,0.44,1.29,1.1
					c0.05,0.66-0.44,1.24-1.1,1.29c-1.89,0.15-3.55,1.24-4.42,2.93C14.49,17.08,14.07,17.32,13.64,17.32z M61.6,16.48
					c-0.37,0-0.74-0.17-0.97-0.5c-1.03-1.42-2.68-2.27-4.43-2.27h-0.46c-0.66,0-1.2-0.54-1.2-1.2s0.54-1.2,1.2-1.2h0.46
					c2.52,0,4.9,1.22,6.38,3.26c0.39,0.54,0.27,1.29-0.27,1.68C62.09,16.41,61.85,16.48,61.6,16.48z M48.01,13.72h-6.76
					c-0.66,0-1.2-0.54-1.2-1.2s0.54-1.2,1.2-1.2h6.76c0.66,0,1.2,0.54,1.2,1.2S48.68,13.72,48.01,13.72z M33.53,13.72h-6.76
					c-0.66,0-1.2-0.54-1.2-1.2s0.54-1.2,1.2-1.2h6.76c0.66,0,1.2,0.54,1.2,1.2S34.19,13.72,33.53,13.72z"/>
			</g>
		</g>
	</g>
	<g>
		<g>
			<g>
				<path class="st1" d="M52.78,57.82h-29.8c-2.99,0-5.42-2.43-5.42-5.42V22.6c0-2.99,2.43-5.42,5.42-5.42h29.8
					c2.99,0,5.42,2.43,5.42,5.42v29.8C58.2,55.4,55.77,57.82,52.78,57.82z"/>
			</g>
		</g>
		<g>
			<g>
				<g>
					<path d="M30.28,30.69h-4.55c-0.33,0-0.59-0.27-0.59-0.59v-1.25c0-0.33,0.27-0.59,0.59-0.59h3.71c0.33,0,0.59-0.27,0.59-0.59
						v-0.71c0-0.33-0.27-0.59-0.59-0.59h-3.71c-0.33,0-0.59-0.27-0.59-0.59v-1.1c0-0.33,0.27-0.59,0.59-0.59h4.36
						c0.33,0,0.59-0.27,0.59-0.59V22.7c0-0.33-0.27-0.59-0.59-0.59h-6.78c-0.33,0-0.59,0.27-0.59,0.59v9.36
						c0,0.33,0.27,0.59,0.59,0.59h6.98c0.33,0,0.59-0.27,0.59-0.59v-0.77C30.88,30.96,30.61,30.69,30.28,30.69z"/>
				</g>
			</g>
			<g>
				<g>
					<path d="M39.84,32.65h1.19c0.48,0,0.76-0.54,0.49-0.93l-1.71-2.45c0.01,0,0.01,0,0.02-0.01c0.68-0.3,1.21-0.74,1.58-1.3
						c0.37-0.57,0.56-1.24,0.56-2.03c0-0.79-0.19-1.48-0.56-2.05c-0.37-0.57-0.9-1.01-1.58-1.32c-0.68-0.31-1.5-0.46-2.44-0.46
						h-3.97c-0.33,0-0.59,0.27-0.59,0.59v9.36c0,0.33,0.27,0.59,0.59,0.59h1.25c0.33,0,0.59-0.27,0.59-0.59v-1.75
						c0-0.33,0.27-0.59,0.59-0.59h1.53c0.04,0,0.07,0,0.11,0l1.85,2.69C39.46,32.56,39.64,32.65,39.84,32.65z M38.94,24.58
						c0.37,0.32,0.56,0.77,0.56,1.36c0,0.57-0.19,1.02-0.56,1.35c-0.37,0.33-0.93,0.49-1.69,0.49h-1.4c-0.33,0-0.59-0.27-0.59-0.59
						v-2.49c0-0.33,0.27-0.59,0.59-0.59h1.4C38,24.09,38.57,24.25,38.94,24.58z"/>
				</g>
			</g>
			<g>
				<g>
					<path d="M50.52,30.44c-0.44,0.21-0.92,0.31-1.45,0.31c-0.49,0-0.94-0.08-1.36-0.24c-0.41-0.16-0.77-0.39-1.07-0.69
						c-0.3-0.3-0.53-0.66-0.7-1.07c-0.17-0.41-0.25-0.87-0.25-1.37c0-0.5,0.08-0.96,0.25-1.37c0.17-0.41,0.4-0.77,0.7-1.07
						c0.3-0.3,0.66-0.53,1.07-0.69c0.41-0.16,0.86-0.24,1.36-0.24c0.52,0,1,0.1,1.45,0.31c0.3,0.14,0.57,0.32,0.84,0.55
						c0.22,0.2,0.57,0.19,0.79-0.01l0.71-0.65c0.26-0.24,0.25-0.64,0-0.88c-0.41-0.39-0.88-0.69-1.42-0.92
						c-0.74-0.32-1.56-0.47-2.48-0.47c-0.82,0-1.58,0.13-2.27,0.4c-0.69,0.27-1.3,0.65-1.82,1.14c-0.52,0.49-0.92,1.07-1.21,1.73
						c-0.29,0.66-0.43,1.39-0.43,2.18c0,0.79,0.14,1.52,0.43,2.18c0.29,0.66,0.69,1.24,1.2,1.73c0.51,0.49,1.12,0.87,1.82,1.14
						c0.7,0.27,1.45,0.4,2.27,0.4c0.92,0,1.76-0.16,2.49-0.48c0.54-0.23,1.01-0.54,1.42-0.93c0.25-0.24,0.25-0.64,0-0.88l-0.7-0.65
						c-0.22-0.21-0.57-0.21-0.79-0.01C51.1,30.12,50.82,30.31,50.52,30.44z"/>
				</g>
			</g>
			<g>
				<g>
					<g>
						<path d="M32.91,45.69c0.82-0.76,1.44-1.46,1.86-2.07c0.42-0.62,0.71-1.2,0.85-1.76c0.14-0.56,0.21-1.12,0.21-1.68
							c0-1.06-0.27-1.98-0.81-2.75c-0.54-0.76-1.3-1.36-2.27-1.78c-0.97-0.42-2.11-0.64-3.41-0.64c-1.56,0-2.94,0.29-4.14,0.87
							c-0.93,0.45-1.71,1.03-2.32,1.74c-0.27,0.32-0.2,0.81,0.15,1.04l1.8,1.16c0.28,0.18,0.65,0.14,0.87-0.1
							c0.36-0.38,0.77-0.68,1.23-0.89c0.62-0.28,1.3-0.42,2.03-0.42c0.91,0,1.61,0.19,2.08,0.56c0.47,0.37,0.71,0.91,0.71,1.61
							c0,0.27-0.05,0.56-0.14,0.87c-0.09,0.32-0.26,0.67-0.51,1.05c-0.25,0.38-0.64,0.82-1.17,1.3l-6.52,6.16
							c-0.14,0.13-0.22,0.31-0.22,0.5v1.63c0,0.38,0.31,0.69,0.69,0.69h11.82c0.38,0,0.69-0.31,0.69-0.69v-1.91
							c0-0.38-0.31-0.69-0.69-0.69h-5.08c-0.63,0-0.93-0.77-0.48-1.2L32.91,45.69z"/>
					</g>
				</g>
				<g>
					<g>
						<path d="M49.41,36.07c-1.12-0.71-2.41-1.06-3.86-1.06c-1.43,0-2.71,0.35-3.84,1.06c-1.13,0.71-2.02,1.73-2.67,3.08
							c-0.65,1.35-0.97,2.98-0.97,4.89s0.32,3.54,0.97,4.89c0.65,1.35,1.54,2.37,2.67,3.08c1.13,0.71,2.41,1.06,3.84,1.06
							c1.45,0,2.73-0.35,3.86-1.06c1.12-0.71,2.01-1.73,2.66-3.08s0.97-2.98,0.97-4.89s-0.32-3.54-0.97-4.89
							C51.42,37.8,50.54,36.78,49.41,36.07z M48.54,47.26c-0.29,0.83-0.69,1.44-1.2,1.82c-0.51,0.38-1.1,0.57-1.78,0.57
							c-0.67,0-1.25-0.19-1.76-0.57c-0.51-0.38-0.91-0.99-1.2-1.82c-0.29-0.83-0.44-1.91-0.44-3.22c0-1.31,0.15-2.39,0.44-3.22
							c0.29-0.83,0.69-1.44,1.2-1.82c0.51-0.38,1.09-0.57,1.76-0.57c0.68,0,1.28,0.19,1.78,0.57c0.51,0.38,0.91,0.99,1.2,1.82
							c0.29,0.83,0.44,1.91,0.44,3.22C48.98,45.36,48.83,46.43,48.54,47.26z"/>
					</g>
				</g>
			</g>
		</g>
	</g>
</g>
</svg>
