<svg enable-background="new 0 0 75 75" version="1.1" viewBox="0 0 75 75" xmlns="http://www.w3.org/2000/svg">
 <style type="text/css">.st0{fill:#FFFFFF;}
	.st1{fill-rule:evenodd;clip-rule:evenodd;fill:#BC83FB;}
	.st2{fill-rule:evenodd;clip-rule:evenodd;}
	.st3{fill-rule:evenodd;clip-rule:evenodd;fill:#FFFFFF;}</style>
 <ellipse class="st0" transform="matrix(.7071 -.7071 .7071 .7071 -15.53 37.5)" cx="37.5" cy="37.5" rx="38.92" ry="36.03"/>
 <ellipse class="st1" cx="23.66" cy="23.76" rx="12.16" ry="12.26"/>
 <path d="m18.56 52.35c-2.32 0-4.27-1.06-5.47-2.56-2.13-2.67-2.4-7.33 2.06-11.26 0.63-0.56 1.6-0.5 2.16 0.14 0.56 0.63 0.5 1.6-0.14 2.16-2.97 2.62-2.99 5.43-1.69 7.06 1.26 1.57 3.89 2.17 6.95-0.03 6.53-4.73 16.43-17.27 23.66-26.43 0.89-1.12 1.74-2.2 2.55-3.22 2.74-3.46 6.15-5.11 9.34-4.52 2.44 0.45 4.35 2.15 5.12 4.56 1.04 3.26-0.18 6.99-3.35 10.24-0.59 0.6-1.56 0.62-2.16 0.03s-0.62-1.56-0.03-2.16c2.32-2.37 3.3-5.06 2.62-7.17-0.42-1.31-1.45-2.24-2.76-2.48-2.04-0.38-4.37 0.87-6.39 3.41-0.81 1.02-1.66 2.09-2.54 3.21-7.75 9.82-17.39 22.04-24.27 27.02-1.99 1.41-3.93 2-5.66 2z"/>
 <path class="st2" d="m54.94 32.5 7.04-0.44c0.96-0.06 1.4-1.21 0.72-1.89l-6.61-6.66c-0.68-0.68-1.85-0.25-1.91 0.71l-0.43 7.1c-0.03 0.67 0.53 1.22 1.19 1.18z"/>
 <path class="st1" d="m35.68 52.68h1.1c4.13-12.56-10.49-9.6-1.1 0z"/>
 <path class="st1" d="m35.68 52.68h1.1c4.13 12.55-10.49 9.59-1.1 0z"/>
 <path d="m37.88 53.94h-2.88c-0.7 0-1.26-0.57-1.26-1.26 0-0.7 0.57-1.26 1.26-1.26h2.88c0.7 0 1.26 0.57 1.26 1.26 0.01 0.7-0.56 1.26-1.26 1.26z"/>
 <path class="st1" d="m44.43 41.62v-5.77c0-1.21 0.97-2.19 2.18-2.19h4.42v4.69h-1.78c-0.45 0-0.82 0.37-0.82 0.83v2.45h-4z"/>
 <rect x="49.76" y="33.65" width="2.53" height="4.69"/>
 <path class="st2" d="m53.41 45.8-0.47-3.85c-0.09-0.71-0.68-1.23-1.39-1.23h-8.42c-0.71 0-1.3 0.53-1.39 1.23l-0.47 3.85h12.14z"/>
 <ellipse class="st1" cx="50.69" cy="52.68" rx="12.81" ry="10.82"/>
 <ellipse class="st3" cx="50.69" cy="52.45" rx="4.84" ry="4.88"/>
 <path d="m50.69 59.33c-3.77 0-6.84-3.09-6.84-6.88s3.07-6.88 6.84-6.88 6.84 3.09 6.84 6.88-3.07 6.88-6.84 6.88zm0-11.24c-2.38 0-4.31 1.95-4.31 4.35s1.93 4.35 4.31 4.35 4.31-1.95 4.31-4.35c0-2.39-1.93-4.35-4.31-4.35z"/>
</svg>
