<?xml version="1.0" encoding="utf-8"?>
<!-- Generator: Adobe Illustrator 27.1.1, SVG Export Plug-In . SVG Version: 6.00 Build 0)  -->
<svg version="1.1" id="Layer_1" xmlns="http://www.w3.org/2000/svg" xmlns:xlink="http://www.w3.org/1999/xlink" x="0px" y="0px"
	 viewBox="0 0 75 75" style="enable-background:new 0 0 75 75;" xml:space="preserve">
<style type="text/css">
	.st0{fill:#FFFFFF;}
	.st1{fill-rule:evenodd;clip-rule:evenodd;fill:#BC83FB;}
	.st2{fill-rule:evenodd;clip-rule:evenodd;}
	.st3{fill-rule:evenodd;clip-rule:evenodd;fill:#FFFFFF;}
</style>
<g>
	<ellipse transform="matrix(0.7071 -0.7071 0.7071 0.7071 -15.533 37.5)" class="st0" cx="37.5" cy="37.5" rx="38.92" ry="36.03"/>
	<g>
		<g>
			<ellipse class="st1" cx="23.66" cy="23.76" rx="12.16" ry="12.26"/>
		</g>
		<g>
			<path d="M18.56,52.35c-2.32,0-4.27-1.06-5.47-2.56c-2.13-2.67-2.4-7.33,2.06-11.26c0.63-0.56,1.6-0.5,2.16,0.14
				c0.56,0.63,0.5,1.6-0.14,2.16c-2.97,2.62-2.99,5.43-1.69,7.06c1.26,1.57,3.89,2.17,6.95-0.03c6.53-4.73,16.43-17.27,23.66-26.43
				c0.89-1.12,1.74-2.2,2.55-3.22c2.74-3.46,6.15-5.11,9.34-4.52c2.44,0.45,4.35,2.15,5.12,4.56c1.04,3.26-0.18,6.99-3.35,10.24
				c-0.59,0.6-1.56,0.62-2.16,0.03c-0.6-0.59-0.62-1.56-0.03-2.16c2.32-2.37,3.3-5.06,2.62-7.17c-0.42-1.31-1.45-2.24-2.76-2.48
				c-2.04-0.38-4.37,0.87-6.39,3.41c-0.81,1.02-1.66,2.09-2.54,3.21c-7.75,9.82-17.39,22.04-24.27,27.02
				C22.23,51.76,20.29,52.35,18.56,52.35z"/>
		</g>
		<g>
			<path class="st2" d="M54.94,32.5l7.04-0.44c0.96-0.06,1.4-1.21,0.72-1.89l-6.61-6.66c-0.68-0.68-1.85-0.25-1.91,0.71l-0.43,7.1
				C53.72,31.99,54.28,32.54,54.94,32.5z"/>
		</g>
		<g>
			<g>
				<g>
					<path class="st1" d="M35.68,52.68h1.1C40.91,40.12,26.29,43.08,35.68,52.68z"/>
				</g>
			</g>
			<g>
				<g>
					<path class="st1" d="M35.68,52.68h1.1C40.91,65.23,26.29,62.27,35.68,52.68z"/>
				</g>
			</g>
			<g>
				<path d="M37.88,53.94H35c-0.7,0-1.26-0.57-1.26-1.26c0-0.7,0.57-1.26,1.26-1.26h2.88c0.7,0,1.26,0.57,1.26,1.26
					C39.15,53.38,38.58,53.94,37.88,53.94z"/>
			</g>
			<g>
				<g>
					<path class="st1" d="M44.43,41.62v-5.77c0-1.21,0.97-2.19,2.18-2.19h4.42v4.69h-1.78c-0.45,0-0.82,0.37-0.82,0.83v2.45H44.43z"
						/>
				</g>
				<g>
					<rect x="49.76" y="33.65" width="2.53" height="4.69"/>
				</g>
			</g>
			<g>
				<path class="st2" d="M53.41,45.8l-0.47-3.85c-0.09-0.71-0.68-1.23-1.39-1.23h-8.42c-0.71,0-1.3,0.53-1.39,1.23l-0.47,3.85H53.41
					z"/>
			</g>
			<g>
				<ellipse class="st1" cx="50.69" cy="52.68" rx="12.81" ry="10.82"/>
			</g>
			<g>
				<g>
					<ellipse class="st3" cx="50.69" cy="52.45" rx="4.84" ry="4.88"/>
				</g>
			</g>
			<g>
				<g>
					<path d="M50.69,59.33c-3.77,0-6.84-3.09-6.84-6.88c0-3.79,3.07-6.88,6.84-6.88c3.77,0,6.84,3.09,6.84,6.88
						C57.53,56.24,54.46,59.33,50.69,59.33z M50.69,48.09c-2.38,0-4.31,1.95-4.31,4.35c0,2.4,1.93,4.35,4.31,4.35
						c2.38,0,4.31-1.95,4.31-4.35C55,50.05,53.07,48.09,50.69,48.09z"/>
				</g>
			</g>
		</g>
	</g>
</g>
</svg>
