<?xml version="1.0" encoding="utf-8"?>
<!-- Generator: Adobe Illustrator 26.4.1, SVG Export Plug-In . SVG Version: 6.00 Build 0)  -->
<svg version="1.1" id="Layer_1" xmlns="http://www.w3.org/2000/svg" xmlns:xlink="http://www.w3.org/1999/xlink" x="0px" y="0px"
	 viewBox="0 0 112.96 112.96" style="enable-background:new 0 0 112.96 112.96;" xml:space="preserve">
<style type="text/css">
	.st0{fill-rule:evenodd;clip-rule:evenodd;fill:#654FF0;}
	.st1{fill-rule:evenodd;clip-rule:evenodd;fill:#FFFFFF;}
</style>
<g>
	<path class="st0" d="M112.96,9.66v93.63c0,5.34-4.33,9.66-9.66,9.66H9.66c-5.34,0-9.66-4.33-9.66-9.66V9.66C0,4.33,4.33,0,9.66,0
		l25.02,0c3.45,0,6.54,2.12,7.77,5.35C44.61,10.99,50.08,15,56.48,15c6.4,0,11.87-4.01,14.02-9.65C71.73,2.12,74.82,0,78.27,0
		l25.02,0C108.63,0,112.96,4.33,112.96,9.66z"/>
	<g>
		<path class="st1" d="M83.47,62.18c-0.43,0-0.81,0.29-0.92,0.71l-9.57,36.6c-0.16,0.6,0.3,1.2,0.92,1.2h7.02
			c0.43,0,0.81-0.29,0.92-0.71l5.49-21.02c0.16-0.63,1.05-0.63,1.22,0l5.49,21.02c0.11,0.42,0.49,0.71,0.92,0.71H102
			c0.63,0,1.08-0.59,0.92-1.2l-9.57-36.6c-0.11-0.42-0.49-0.71-0.92-0.71"/>
		<path class="st1" d="M64.2,62.89l-5.26,20.14c-0.17,0.63-1.07,0.62-1.22-0.01l-4.83-20.11c-0.1-0.43-0.49-0.73-0.93-0.73h-6.93
			c-0.44,0-0.82,0.3-0.93,0.73l-4.83,20.11c-0.15,0.64-1.06,0.65-1.22,0.01l-5.26-20.14c-0.11-0.42-0.49-0.71-0.92-0.71h-7.02
			c-0.63,0-1.08,0.59-0.92,1.2l9.57,36.6c0.11,0.42,0.49,0.71,0.92,0.71h7.5c0.44,0,0.82-0.3,0.93-0.73l5.04-20.99
			c0.15-0.64,1.07-0.64,1.22,0l5.22,21.72h0h8.26c0.43,0,0.81-0.29,0.92-0.71l9.57-36.6c0.16-0.6-0.3-1.2-0.92-1.2h-7.02
			C64.68,62.18,64.3,62.47,64.2,62.89z"/>
		<polygon class="st1" points="82.14,96.32 93.69,96.32 93.69,90.67 82.21,90.67 		"/>
	</g>
</g>
</svg>
