<?xml version="1.0" encoding="utf-8"?>
<!-- Generator: Adobe Illustrator 27.1.1, SVG Export Plug-In . SVG Version: 6.00 Build 0)  -->
<svg version="1.1" id="Layer_1" xmlns="http://www.w3.org/2000/svg" xmlns:xlink="http://www.w3.org/1999/xlink" x="0px" y="0px"
	 viewBox="0 0 75 75" style="enable-background:new 0 0 75 75;" xml:space="preserve">
<style type="text/css">
	.st0{fill:#FFFFFF;}
	.st1{fill-rule:evenodd;clip-rule:evenodd;fill:#654FF0;}
	.st2{fill-rule:evenodd;clip-rule:evenodd;fill:#FFFFFF;}
</style>
<g>
	<ellipse transform="matrix(0.7071 -0.7071 0.7071 0.7071 -15.5332 37.4996)" class="st0" cx="37.5" cy="37.5" rx="38.9" ry="36"/>
</g>
<g>
	<path class="st1" d="M60.8,17.6V57c0,2.2-1.8,4.1-4.1,4.1H17.4c-2.2,0-4.1-1.8-4.1-4.1V17.6c0-2.2,1.8-4.1,4.1-4.1h10.5
		c1.5,0,2.8,0.9,3.3,2.3c0.9,2.4,3.2,4.1,5.9,4.1s5-1.7,5.9-4.1c0.5-1.4,1.8-2.3,3.3-2.3h10.5C59,13.5,60.8,15.3,60.8,17.6z"/>
	<g>
		<path class="st2" d="M48.4,39.7c-0.2,0-0.3,0.1-0.4,0.3l-4,15.4c-0.1,0.3,0.1,0.5,0.4,0.5h3c0.2,0,0.3-0.1,0.4-0.3l2.3-8.8
			c0.1-0.3,0.4-0.3,0.5,0l2.3,8.8c0,0.2,0.2,0.3,0.4,0.3h3c0.3,0,0.5-0.2,0.4-0.5l-4-15.4c0-0.2-0.2-0.3-0.4-0.3"/>
		<path class="st2" d="M40.3,40l-2.2,8.5c-0.1,0.3-0.5,0.3-0.5,0l-2-8.5c0-0.2-0.2-0.3-0.4-0.3h-2.9c-0.2,0-0.3,0.1-0.4,0.3l-2,8.5
			c-0.1,0.3-0.4,0.3-0.5,0L27.1,40c0-0.2-0.2-0.3-0.4-0.3h-3c-0.3,0-0.5,0.2-0.4,0.5l4,15.4c0,0.2,0.2,0.3,0.4,0.3h3.2
			c0.2,0,0.3-0.1,0.4-0.3l2.1-8.8c0.1-0.3,0.5-0.3,0.5,0l2.2,9.1l0,0h3.5c0.2,0,0.3-0.1,0.4-0.3l4-15.4c0.1-0.3-0.1-0.5-0.4-0.5h-3
			C40.5,39.7,40.4,39.8,40.3,40z"/>
		<polygon class="st2" points="47.9,54 52.7,54 52.7,51.7 47.9,51.7 		"/>
	</g>
</g>
</svg>
