<?xml version="1.0" encoding="UTF-8"?>
<svg width="817px" height="248px" viewBox="0 0 817 248" version="1.1" xmlns="http://www.w3.org/2000/svg" xmlns:xlink="http://www.w3.org/1999/xlink">
    <defs>
        <linearGradient x1="0%" y1="36.1639497%" x2="22.7043164%" y2="50%" id="linearGradient-1">
            <stop stop-color="#B575E2" stop-opacity="0.116444463" offset="0%"></stop>
            <stop stop-color="#7E40C1" offset="100%"></stop>
        </linearGradient>
    </defs>
    <g id="Artboard" stroke="none" stroke-width="1" fill="none" fill-rule="evenodd">
        <g id="Group-9" transform="translate(-3.000000, 0.000000)">
            <g id="Group">
                <path d="M564.81,172.19 C543.47,166.7 516.92,158.44 486.29,149.14 C468.05,143.59 448.36,137.68 427.47,131.76 C427.47,131.75 427.47,131.75 427.47,131.75 C308.88,98.12 151.59,64.21 0,96.5 L0,9.83 C107.31,-17.19 234.84,18.63 363.98,70.36 C383.65,78.24 403.47,86.29 422.83,94.27 C443.35,102.72 463.34,111.09 482.06,119.09 C533.92,141.24 575.96,160.51 592.22,170.67 C592.23,170.67 592.23,170.68 592.24,170.68 L592.28,170.71 C595.16,172.5 597.22,174.02 598.38,175.21 C602.95,179.89 593.57,179.59 564.81,172.19 Z" id="Path" fill="#BC83FB"></path>
                <path d="M564.81,172.19 C458.59,144.87 223.11,48.97 0,96.5 L0,53.62 C132.84,15.99 375.75,77.09 592.22,170.67 C592.23,170.67 592.23,170.68 592.24,170.68 L592.28,170.71 L598.38,175.21 C602.95,179.89 593.57,179.59 564.81,172.19 Z" id="Path" fill="#8747CC"></path>
                <g transform="translate(0.000000, 61.000000)" fill="#D8B7FB" id="Path">
                    <path d="M28.64,14.46 C21.67,11.17 10.93,10.46 0,11.74 L0,42.31 C0.09,42.29 0.18,42.28 0.28,42.27 C28.85,37.46 44.6,22.01 28.64,14.46 Z"></path>
                    <path d="M118.26,26.85 C92.08,25.84 76.12,13.62 89.54,5.65 C102.96,-2.31 135.69,-1.05 148.45,7.93 C161.21,16.91 144.44,27.86 118.26,26.85 Z"></path>
                    <path d="M224.83,32.38 C202.21,28.59 189.51,17.64 201.97,12.66 C214.43,7.69 242.7,12.43 252.86,21.19 C263.02,29.96 247.45,36.17 224.83,32.38 Z"></path>
                    <path d="M322.13,48.6 C302.71,44.47 292.15,34.52 303.11,30.69 C314.07,26.86 338.34,32.02 346.8,39.98 C355.25,47.94 341.54,52.73 322.13,48.6 Z"></path>
                    <path d="M402.98,67.45 C386.45,63.21 377.72,54.28 387.28,51.38 C396.83,48.48 417.5,53.78 424.48,60.92 C431.45,68.07 419.51,71.69 402.98,67.45 Z"></path>
                </g>
            </g>
            <path d="M427.47,131.75 C428.21,121.96 428.31,105.86 422.83,94.27 C443.35,102.72 463.34,111.09 482.06,119.09 L486.29,149.14 C468.05,143.59 448.36,137.68 427.47,131.76 C427.47,131.75 427.47,131.75 427.47,131.75 Z" id="Path" fill="url(#linearGradient-1)"></path>
            <g id="Group" transform="translate(685.000000, 170.000000)">
                <path d="M85.82,44.44 L69.23,0.41 C79.37,4.87 88.23,9.54 95.83,14.28 L95.83,14.33 C111.19,28.71 119.63,50.38 85.82,44.44 Z" id="Path" fill="#8747CC"></path>
                <path d="M94.29,71.28 C73.59,66.89 44.94,53.95 9.61,28.51 C-13.29,12.03 9.47,20.92 37.96,31.6 C57.54,38.95 84.94,44.27 85.8,44.44 L85.82,44.45 C92.96,45.7 98.22,45.72 101.92,44.83 C115.76,41.55 107.95,25.68 95.83,14.33 L95.83,14.29 C147.46,46.41 141.84,81.39 94.29,71.28 Z" id="Path" fill="#BC83FB"></path>
            </g>
            <g id="Group" transform="translate(443.000000, 38.000000)">
                <path d="M315.88,183.46 L65.8,209.39 C54.51,210.56 43.88,206.53 36.3,199.23 L36.03,198.97 L21.95,185.42 L26.56,183.34 C25.88,181.11 25.41,178.79 25.16,176.39 L15.29,81.2 C13.18,60.86 27.95,42.66 48.29,40.55 L298.37,14.62 C303.4,14.1 308.29,14.61 312.85,15.98 L313.52,10.97 L327.52,24.45 L327.87,24.78 C333.95,30.62 338.08,38.57 339.02,47.62 L348.89,142.81 C351,163.15 336.22,181.35 315.88,183.46 Z" id="Path" fill="#5C4DC4"></path>
                <path d="M301.53,169.65 L51.45,195.58 C31.11,197.69 12.91,182.91 10.8,162.58 L0.93,67.39 C-1.18,47.05 13.6,28.85 33.94,26.74 L133.68,16.4 L170.06,12.63 L170.07,12.62 L284.02,0.81 C304.36,-1.3 322.55,13.48 324.66,33.81 L334.53,129 C336.64,149.34 321.87,167.54 301.53,169.65 Z" id="Path" fill="#8C7CF8"></path>
                <path d="M289.26,155.16 L257.99,158.4 L248.81,159.36 L60.48,178.89 C43.85,180.61 28.97,168.52 27.24,151.89 L19.21,74.47 C17.49,57.84 29.57,42.95 46.2,41.23 L274.99,17.5 C291.62,15.78 306.5,27.86 308.23,44.5 L316.25,121.92 C317.98,138.55 305.89,153.43 289.26,155.16 Z" id="Path" fill="#FFFFFF"></path>
                <path d="M57.34,181.55 C40.77,181.55 26.5,168.98 24.75,152.15 L16.72,74.73 C15.82,66.02 18.36,57.48 23.88,50.69 C29.4,43.89 37.23,39.65 45.94,38.75 L274.73,15.02 C292.71,13.16 308.85,26.27 310.71,44.25 L318.73,121.67 C319.64,130.38 317.1,138.91 311.57,145.71 C306.05,152.51 298.22,156.75 289.51,157.65 L60.73,181.38 C59.6,181.49 58.46,181.55 57.34,181.55 Z M278.13,19.83 C277.18,19.83 276.22,19.88 275.25,19.98 L46.46,43.71 C39.08,44.47 32.44,48.07 27.77,53.83 C23.09,59.59 20.94,66.83 21.7,74.21 L29.73,151.63 C31.31,166.86 45,177.97 60.23,176.4 L248.56,156.87 L289.01,152.67 C296.39,151.9 303.03,148.31 307.71,142.55 C312.39,136.79 314.54,129.55 313.77,122.18 L305.75,44.76 C304.26,30.49 292.17,19.83 278.13,19.83 Z" id="Shape" fill="#5C4DC4" fill-rule="nonzero"></path>
                <g transform="translate(54.000000, 34.000000)" fill="#0E0E0E">
                    <g id="inc" transform="translate(0.000000, 8.000000)">
                        <path d="M209.33,76.96 C203.92,79.58 201.4,85.86 203.72,90.97 C206.04,96.08 212.31,98.11 217.73,95.49 C223.14,92.87 225.66,86.59 223.34,81.48 C221.02,76.37 214.74,74.34 209.33,76.96 Z M20.19,42.17 C21.66,42.02 22.47,42.68 22.62,44.14 L29.78,113.15 C29.93,114.62 29.27,115.43 27.81,115.58 L13.27,117.09 C11.8,117.24 10.99,116.58 10.84,115.12 L3.68,46.11 C3.53,44.64 4.19,43.83 5.65,43.68 L20.19,42.17 Z M79.89,35.38 C95.9,33.72 102.6,44.01 104.16,58.99 L108.93,104.95 C109.08,106.42 108.42,107.23 106.96,107.38 L92.42,108.89 C90.95,109.04 90.14,108.38 89.99,106.92 L85,58.76 C84.48,53.77 80.63,52.39 76.37,52.83 L74.61,53.01 C68.3,53.66 64.02,56.78 62.68,59.59 L67.83,109.22 C67.98,110.69 67.32,111.5 65.86,111.65 L51.32,113.16 C49.85,113.31 49.04,112.65 48.89,111.19 L41.73,42.18 C41.58,40.71 42.24,39.9 43.7,39.75 L58.24,38.24 C59.71,38.09 60.52,38.75 60.67,40.21 L61.34,46.67 C63.16,42.77 68.16,36.61 79.03,35.49 L79.89,35.38 Z M132.85,0.8 C134.32,0.65 135.13,1.31 135.28,2.77 L140.56,53.72 L159.13,29.53 C159.9,28.41 161.15,27.54 162.32,27.42 L177.44,25.85 C179.35,25.65 181.34,27.67 178.99,30.74 L159.55,56.5 L189.35,94.82 C190.4,96.34 190.5,98.71 188,98.97 L174.2,100.4 C172.29,100.6 170.47,100.19 169.08,98.26 L148.09,70.46 L142.96,76.78 L145.49,101.16 C145.64,102.63 144.98,103.44 143.52,103.59 L128.98,105.1 C127.51,105.25 126.7,104.59 126.55,103.13 L116.35,4.75 C116.2,3.28 116.86,2.47 118.32,2.32 L132.85,0.8 Z M7.39,17.34 C2.05,19.58 -0.69,25.48 1.27,30.52 C3.23,35.56 9.16,37.83 14.5,35.59 C19.84,33.35 22.58,27.45 20.62,22.41 C18.65,17.37 12.72,15.1 7.39,17.34 Z" id="Shape"></path>
                    </g>
                    <path d="M205.76,68.05 L202.56,68.36 C201.09,68.51 200.28,67.85 200.13,66.39 L193.73,4.72 C193.58,3.25 194.24,2.44 195.7,2.29 L210.68,0.74 C212.15,0.59 212.96,1.25 213.11,2.71 L213.32,4.79 C207.77,6.77 203.93,13.03 204.33,20.31 C204.65,26.15 207.61,31.17 211.75,33.75 C209.1,35.98 207.35,39.47 207.23,43.45 C207.1,47.78 208.94,51.68 211.86,54.08 C209.32,55.52 207.14,58.16 206.09,61.45 C205.34,63.77 205.27,66.07 205.76,68.05 Z" id="Path"></path>
                    <path d="M209.87,62.59 C209.04,65.2 210.14,67.74 212.34,68.27 C214.54,68.8 217,67.11 217.83,64.51 C218.66,61.9 217.56,59.36 215.36,58.83 C213.16,58.29 210.7,59.98 209.87,62.59 Z M211.93,43.93 C211.6,47.86 214.01,51.27 217.31,51.54 C220.61,51.81 223.55,48.83 223.88,44.9 C224.21,40.97 221.8,37.56 218.5,37.29 C215.2,37.02 212.26,40 211.93,43.93 Z M208.76,21.28 C209.05,26.59 212.91,30.78 217.38,30.63 C221.85,30.48 225.24,26.06 224.95,20.75 C224.66,15.44 220.8,11.25 216.33,11.4 C211.86,11.54 208.47,15.97 208.76,21.28 Z" id="Shape"></path>
                </g>
                <path d="M288.78,170.97 L265.9,184.15 C265.9,184.15 259.39,176.58 248.81,159.36 L257.99,158.4 L288.78,170.97 Z" id="Path" fill="#5C4DC4"></path>
            </g>
            <path d="M786.687944,214.427608 L779.057944,240.877608 C758.357944,236.487608 729.707944,223.547608 694.377944,198.107608 C671.477944,181.627608 694.237944,190.517608 722.727944,201.197608 C742.307944,208.547608 769.707944,213.867608 770.567944,214.037608 L770.587944,214.047608 C777.727944,215.297608 782.987944,215.317608 786.687944,214.427608 Z" id="Path" fill="#BC83FB"></path>
            <g id="Group" transform="translate(397.000000, 14.000000)" fill="#5C4DC4">
                <path d="M56.84,34.91 C55.9,34.91 54.98,34.46 54.42,33.63 L34.73,4.88 C33.81,3.54 34.16,1.72 35.49,0.8 C36.83,-0.12 38.65,0.23 39.57,1.56 L59.26,30.31 C60.18,31.65 59.83,33.47 58.5,34.39 C57.99,34.74 57.41,34.91 56.84,34.91 Z" id="Path"></path>
                <path d="M44.48,42.95 C43.94,42.95 43.4,42.8 42.91,42.49 L1.57,16.34 C0.2,15.47 -0.21,13.66 0.66,12.29 C1.53,10.92 3.34,10.51 4.71,11.38 L46.05,37.53 C47.42,38.4 47.83,40.21 46.96,41.58 C46.4,42.46 45.45,42.95 44.48,42.95 Z" id="Path"></path>
            </g>
            <circle id="Oval" fill="#5C4DC4" cx="480.77" cy="31.77" r="6.77"></circle>
        </g>
    </g>
</svg>