<svg data-name="Layer 1" viewBox="0 0 1602 800.8" xmlns="http://www.w3.org/2000/svg">
 <defs>
  <style>.cls-1, .cls-2, .cls-3 {
        fill: none;
      }

      .cls-4 {
        clip-path: url(#a);
      }

      .cls-5 {
        fill: #fff;
      }

      .cls-6 {
        fill: #bc83fb;
      }

      .cls-7 {
        fill: #d8b7fb;
      }

      .cls-8 {
        fill: #242526;
      }

      .cls-2 {
        stroke: #bc83fb;
      }

      .cls-2, .cls-3 {
        stroke-linecap: round;
        stroke-miterlimit: 10;
        stroke-width: 4px;
      }

      .cls-3 {
        stroke: #8747cc;
      }</style>
  <clipPath id="a">
   <path class="cls-1" d="m324.3 296.8v197.3c0 42.56-221.7 42.56-221.7 0v-197.3c0-36.79 221.7-36.79 221.7 0z"/>
  </clipPath>
 </defs>
 <rect class="cls-8" width="1602" height="800.8"/>
 <path d="m324.3 484.5-110.8 41.52c130.6 6.23 203.3-29.21 110.8-41.52z"/>
 <path class="cls-6" d="m324.3 296.8v197.3c0 42.56-221.7 42.56-221.7 0v-197.3c0-36.79 221.7-36.79 221.7 0z"/>
 <path class="cls-7" d="m324.3 296.8c0 33.22-221.7 33.22-221.7 0 0-36.79 221.7-36.79 221.7 0z"/>
 <g class="cls-4">
  <path class="cls-3" d="m326.3 364.7c0 33.23-225.7 33.23-225.7 0"/>
  <path class="cls-3" d="m326.3 432.6c0 33.23-225.7 33.23-225.7 0"/>
 </g>
 <path class="cls-5" d="m120.3 424.5v-26.96c4.85 1 7.28 1.47 12.14 2.34 2.91 0.52 5.47 1.51 7.7 2.99 2.22 1.48 3.96 3.3 5.22 5.49 1.25 2.19 1.88 4.66 1.88 7.4s-0.63 5-1.88 6.83-2.99 3.13-5.22 3.89c-2.22 0.76-4.79 0.88-7.7 0.36-4.87-0.87-7.3-1.34-12.14-2.34zm6.18-3.89c2.26 0.44 3.39 0.65 5.66 1.05 1.79 0.32 3.34 0.25 4.65-0.21 1.32-0.46 2.34-1.26 3.07-2.4s1.09-2.56 1.09-4.25-0.36-3.26-1.09-4.62-1.75-2.49-3.07-3.4c-1.32-0.9-2.87-1.51-4.65-1.83-2.26-0.41-3.4-0.62-5.66-1.05v16.71z"/>
 <path class="cls-5" d="m157.9 431c-1.62-0.2-3-0.65-4.16-1.35-1.15-0.7-2.04-1.57-2.65-2.61-0.62-1.03-0.92-2.14-0.92-3.32s0.3-2.27 0.9-3.11 1.56-1.44 2.87-1.79c1.31-0.36 3.01-0.4 5.12-0.15 2.2 0.26 3.31 0.39 5.51 0.62v3.5c-1.94-0.21-2.91-0.32-4.86-0.55-1.41-0.17-2.38-0.06-2.91 0.34s-0.79 0.94-0.79 1.63c0 0.77 0.3 1.42 0.9 1.94s1.43 0.85 2.48 0.98c1 0.12 1.9-0.01 2.7-0.4s1.37-1.02 1.73-1.91c0.37 1.15 0.56 1.72 0.93 2.87-0.44 1.29-1.23 2.22-2.39 2.78s-2.65 0.74-4.47 0.52zm6.32 0.42v-4.04c-0.15-0.37-0.23-0.56-0.39-0.93v-7.24c0-1.28-0.39-2.33-1.18-3.13-0.78-0.81-1.98-1.3-3.6-1.49-1.1-0.13-2.19-0.09-3.25 0.12s-1.97 0.56-2.71 1.05c-0.86-1.79-1.29-2.69-2.15-4.49 1.13-0.64 2.49-1.07 4.08-1.31 1.59-0.23 3.21-0.25 4.85-0.06 3.16 0.37 5.61 1.37 7.36 3.04s2.62 4.07 2.62 7.23v11.82c-2.25-0.22-3.38-0.33-5.63-0.57z"/>
 <path class="cls-5" d="m172.8 416.6v-4.62c5.76 0.51 8.64 0.72 14.41 1.05v4.62c-5.77-0.33-8.65-0.54-14.41-1.05zm10.97 16.79c-2.45-0.16-4.35-0.92-5.72-2.27-1.36-1.35-2.05-3.26-2.05-5.73v-18.18c2.41 0.2 3.62 0.29 6.03 0.45v18.1c0 0.87 0.23 1.56 0.7 2.07 0.46 0.51 1.09 0.79 1.89 0.84 0.95 0.06 1.77-0.15 2.44-0.62 0.65 1.73 0.97 2.6 1.62 4.33-0.62 0.4-1.36 0.69-2.22 0.86s-1.76 0.22-2.69 0.16z"/>
 <path class="cls-5" d="m198.6 434.2c-1.63-0.05-3.02-0.38-4.18-0.98s-2.05-1.39-2.67-2.37-0.93-2.06-0.93-3.24 0.3-2.3 0.91-3.19c0.61-0.9 1.57-1.58 2.88-2.05 1.32-0.47 3.03-0.67 5.15-0.61 2.21 0.07 3.32 0.09 5.54 0.13v3.5c-1.95-0.04-2.93-0.06-4.88-0.11-1.42-0.04-2.39 0.16-2.92 0.6s-0.79 1.01-0.79 1.7c0 0.77 0.3 1.39 0.91 1.86s1.44 0.72 2.5 0.75c1.01 0.03 1.91-0.18 2.71-0.64s1.38-1.14 1.74-2.06c0.37 1.12 0.56 1.67 0.93 2.79-0.44 1.33-1.24 2.33-2.4 2.99-1.16 0.67-2.66 0.98-4.49 0.92zm6.35-0.15v-4.04c-0.15-0.36-0.23-0.54-0.39-0.89v-7.24c0-1.28-0.39-2.29-1.18-3.03s-1.99-1.12-3.62-1.17c-1.11-0.03-2.2 0.1-3.27 0.41s-1.98 0.74-2.73 1.3c-0.87-1.72-1.3-2.58-2.17-4.3 1.13-0.74 2.5-1.3 4.1-1.67s3.22-0.54 4.88-0.49c3.17 0.09 5.64 0.87 7.39 2.38s2.63 3.84 2.63 7v11.82c-2.26-0.01-3.39-0.03-5.65-0.07z"/>
 <path class="cls-5" d="m216 434.1v-28.58c2.42-0.01 3.62-0.03 6.04-0.07v12.06c-0.15 2.45-0.23 3.68-0.39 6.13 0.05 2.46 0.07 3.7 0.12 6.16v4.24c-2.31 0.04-3.46 0.05-5.77 0.07zm12.31 0.08c-1.83 0.06-3.41-0.29-4.72-1.03-1.32-0.74-2.32-1.9-3.02-3.47s-1.05-3.56-1.05-5.97 0.37-4.45 1.1-6.02c0.74-1.58 1.76-2.76 3.08-3.56s2.85-1.22 4.61-1.28c1.96-0.06 3.72 0.3 5.28 1.11s2.8 1.98 3.71 3.52c0.92 1.54 1.37 3.41 1.37 5.59 0 2.16-0.46 4.06-1.37 5.7-0.92 1.64-2.15 2.94-3.71 3.89s-3.32 1.47-5.28 1.53zm-1.05-4.9c1.01-0.03 1.9-0.29 2.69-0.78s1.42-1.18 1.9-2.06 0.72-1.91 0.72-3.09-0.24-2.22-0.72-3.05-1.11-1.46-1.9-1.89-1.68-0.63-2.69-0.6-1.91 0.28-2.71 0.77-1.43 1.15-1.9 2.01c-0.46 0.86-0.7 1.89-0.7 3.09s0.23 2.2 0.7 3.05c0.46 0.85 1.1 1.5 1.9 1.94s1.7 0.65 2.71 0.62z"/>
 <path class="cls-5" d="m248.79,433.04c-1.62.12-3.01-.05-4.17-.53-1.16-.47-2.05-1.17-2.67-2.08-.62-.91-.93-1.96-.93-3.14,0-1.23.3-2.33.91-3.29.61-.96,1.57-1.75,2.88-2.36,1.31-.62,3.03-1,5.14-1.17,2.21-.18,3.31-.27,5.52-.47v3.5c-1.95.18-2.92.26-4.86.42-1.42.11-2.39.42-2.92.92-.53.5-.79,1.1-.79,1.79,0,.77.3,1.36.91,1.76.6.4,1.44.57,2.49.48,1-.08,1.91-.39,2.7-.94.8-.54,1.38-1.3,1.74-2.25.37,1.08.56,1.61.93,2.69-.44,1.38-1.23,2.46-2.39,3.26-1.16.79-2.65,1.27-4.48,1.41Zm6.33-.84v-4.04c-.15-.34-.23-.51-.39-.85v-7.24c0-1.28-.39-2.25-1.18-2.9-.79-.65-1.99-.91-3.61-.78-1.11.09-2.2.34-3.26.77-1.07.42-1.98.95-2.72,1.59-.87-1.62-1.3-2.43-2.16-4.06,1.13-.87,2.5-1.57,4.1-2.12,1.6-.55,3.22-.89,4.87-1.02,3.17-.26,5.62.26,7.37,1.58,1.75,1.32,2.62,3.55,2.62,6.71,0,4.73,0,7.09,0,11.82-2.25.23-3.38.34-5.63.55Z"/>
 <path class="cls-5" d="m273.16,430.51c-1.77.23-3.47.23-5.1,0-1.63-.23-2.92-.62-3.87-1.15.8-1.81,1.2-2.72,2-4.54.95.48,2.07.83,3.37,1.04,1.3.21,2.57.24,3.83.07,1.38-.18,2.36-.48,2.94-.9.58-.41.87-.92.87-1.51,0-.49-.23-.82-.67-1-.45-.18-1.04-.29-1.79-.31-.74-.03-1.56-.05-2.44-.06-.89-.01-1.78-.08-2.67-.18-.9-.11-1.72-.34-2.46-.69-.75-.35-1.34-.87-1.79-1.56-.45-.69-.67-1.63-.67-2.81,0-1.31.38-2.51,1.14-3.59.76-1.09,1.86-2.01,3.29-2.76,1.44-.75,3.16-1.26,5.16-1.52,1.41-.19,2.85-.23,4.31-.13,1.46.1,2.68.37,3.65.81-.8,1.83-1.2,2.75-2,4.57-1-.44-2-.7-3.02-.78-1.01-.08-1.99-.05-2.94.07-1.33.18-2.31.48-2.92.92-.62.44-.92.94-.92,1.5,0,.51.22.87.67,1.07.45.2,1.05.33,1.79.39.74.06,1.56.08,2.44.08.88,0,1.77.05,2.67.15.9.1,1.71.31,2.44.63.73.32,1.33.8,1.79,1.47.46.66.69,1.58.69,2.76,0,1.28-.38,2.48-1.15,3.58-.77,1.1-1.88,2.05-3.32,2.82-1.45.77-3.21,1.3-5.29,1.57Z"/>
 <path class="cls-5" d="m296.82,426.79c-2.35.43-4.41.33-6.18-.29-1.78-.62-3.15-1.66-4.12-3.11-.97-1.45-1.46-3.2-1.46-5.26s.48-4,1.44-5.76c.96-1.76,2.27-3.23,3.93-4.42,1.66-1.19,3.54-1.98,5.63-2.36,2.01-.37,3.83-.28,5.44.26,1.62.55,2.89,1.52,3.83,2.93.94,1.41,1.41,3.23,1.41,5.47,0,.23-.01.5-.04.8-.03.3-.05.58-.08.84-6.66,1.38-10,2-16.7,3.13v-3.51c5.44-.92,8.16-1.42,13.57-2.5-.92.6-1.37.9-2.29,1.49,0-1.08-.22-1.97-.65-2.69-.43-.71-1.03-1.22-1.8-1.53-.76-.3-1.66-.36-2.68-.18-1.02.19-1.92.57-2.7,1.16-.78.59-1.38,1.32-1.82,2.2-.43.88-.65,1.88-.65,2.98v.92c0,1.13.25,2.08.75,2.86.5.77,1.2,1.31,2.11,1.6.9.29,1.97.32,3.19.1,1.1-.2,2.06-.55,2.88-1.04.83-.49,1.58-1.14,2.27-1.94,1.27,1.14,1.9,1.7,3.17,2.83-.94,1.27-2.12,2.34-3.55,3.19-1.43.86-3.07,1.46-4.93,1.8Z"/>
 <path class="cls-2" d="m926.6 75.31h-403.7c-8.87 0-16.06 7.19-16.06 16.06v618.1c0 8.87 7.19 16.06 16.06 16.06h403.7"/>
 <line class="cls-2" x1="523" x2="926.6" y1="156.6" y2="156.6"/>
 <line class="cls-2" x1="523" x2="926.6" y1="237.9" y2="237.9"/>
 <line class="cls-2" x1="523" x2="926.6" y1="319.1" y2="319.1"/>
 <line class="cls-2" x1="523" x2="926.6" y1="400.4" y2="400.4"/>
 <line class="cls-2" x1="523" x2="926.6" y1="481.7" y2="481.7"/>
 <line class="cls-2" x1="523" x2="926.6" y1="563" y2="563"/>
 <line class="cls-2" x1="523" x2="926.6" y1="644.3" y2="644.3"/>
 <path class="cls-6" d="m413.46,400.43c.01,5.77,3.73,10.88,9.22,12.67,9.09,2.96,9.09,7.69,9.09,9.96v290.26c0,7.24,5.7,13.46,12.94,13.49,1.16,0,2.28-.14,3.35-.42.42-.11.77-.41.94-.81s.15-.86-.07-1.24c-.08-.14-.15-.27-.22-.41-6.44-12-2.07-25.39,7.72-30.69.82-.44,1.31-1.31,1.31-2.24v-267.92c0-8.09-2.4-15.26-6.87-21.13-.34-.44-.51-.97-.52-1.5,0-.53.18-1.05.52-1.5,4.47-5.86,6.87-13.03,6.87-21.13V109.88c0-.93-.49-1.8-1.31-2.24-9.79-5.3-14.16-18.7-7.72-30.69.07-.14.15-.27.22-.41.21-.38.24-.84.07-1.24s-.52-.7-.94-.81c-1.07-.28-2.19-.43-3.35-.42-7.24.02-12.94,6.25-12.94,13.49v290.26c0,2.27,0,7-9.09,9.96-5.49,1.79-9.21,6.9-9.22,12.67Z"/>
 <path class="cls-6" d="m476.9 719.6c5.16-8.48-0.73-20.36-10.6-21.39-9.88-1.02-16.33 9.58-11.62 19.08s17.06 10.78 22.22 2.3z"/>
 <path class="cls-6" d="m454.7 83.57c4.71-9.5 17.06-10.78 22.22-2.3s-0.73 20.36-10.6 21.39-16.33-9.58-11.62-19.08z"/>
 <path class="cls-5" d="m550 127.4c-2.35 0-4.21-0.97-5.58-2.9-1.36-1.93-2.05-4.66-2.05-8.19s0.68-6.29 2.05-8.15 3.22-2.8 5.58-2.8 4.24 0.93 5.59 2.8c1.35 1.86 2.03 4.58 2.03 8.15s-0.68 6.26-2.03 8.19-3.22 2.9-5.59 2.9zm0-2.2c1.49 0 2.7-0.72 3.64-2.16s1.41-3.68 1.41-6.72-0.47-5.29-1.41-6.67c-0.94-1.39-2.16-2.08-3.64-2.08s-2.7 0.69-3.64 2.08-1.41 3.61-1.41 6.67 0.47 5.28 1.41 6.72 2.16 2.16 3.64 2.16zm0-6.89c-0.56 0-1.04-0.2-1.45-0.6s-0.62-0.94-0.62-1.63 0.2-1.23 0.62-1.61c0.41-0.39 0.89-0.58 1.45-0.58s1.04 0.19 1.45 0.58 0.62 0.93 0.62 1.61-0.21 1.23-0.62 1.63-0.89 0.6-1.45 0.6z"/>
 <path class="cls-5" d="m562.07,126.97l6.16-8.39-5.69-7.79h3.03l2.56,3.56c.29.42.59.87.92,1.35.32.48.65.94.98,1.38h.13c.31-.44.62-.91.93-1.4.31-.49.61-.95.9-1.4l2.43-3.49h2.9l-5.76,8.02,6.19,8.15h-3l-2.83-3.73c-.33-.47-.68-.95-1.05-1.46-.37-.51-.73-1-1.08-1.46h-.13c-.33.49-.67.97-1,1.45-.33.48-.67.97-1,1.48l-2.66,3.73h-2.93Z"/>
 <path class="cls-5" d="m589.9 127.4c-2.35 0-4.21-0.97-5.58-2.9-1.36-1.93-2.05-4.66-2.05-8.19s0.68-6.29 2.05-8.15 3.22-2.8 5.58-2.8 4.24 0.93 5.59 2.8c1.35 1.86 2.03 4.58 2.03 8.15s-0.68 6.26-2.03 8.19-3.22 2.9-5.59 2.9zm0-2.2c1.49 0 2.7-0.72 3.64-2.16s1.41-3.68 1.41-6.72-0.47-5.29-1.41-6.67c-0.94-1.39-2.16-2.08-3.64-2.08s-2.7 0.69-3.64 2.08-1.41 3.61-1.41 6.67 0.47 5.28 1.41 6.72 2.16 2.16 3.64 2.16zm0-6.89c-0.56 0-1.04-0.2-1.45-0.6s-0.62-0.94-0.62-1.63 0.2-1.23 0.62-1.61c0.41-0.39 0.89-0.58 1.45-0.58s1.04 0.19 1.45 0.58 0.62 0.93 0.62 1.61-0.21 1.23-0.62 1.63-0.89 0.6-1.45 0.6z"/>
 <path class="cls-5" d="m603.1,126.97v-2.26h6.12v-15.64h-4.76v-1.76c1.24-.18,2.29-.39,3.14-.65.85-.25,1.62-.56,2.31-.92h2.03v18.97h5.56v2.26h-14.41Z"/>
 <path class="cls-5" d="m629.8 127.4c-2.35 0-4.21-0.97-5.58-2.9-1.36-1.93-2.05-4.66-2.05-8.19s0.68-6.29 2.05-8.15 3.22-2.8 5.58-2.8 4.24 0.93 5.59 2.8c1.35 1.86 2.03 4.58 2.03 8.15s-0.68 6.26-2.03 8.19-3.22 2.9-5.59 2.9zm0-2.2c1.49 0 2.7-0.72 3.64-2.16s1.41-3.68 1.41-6.72-0.47-5.29-1.41-6.67c-0.94-1.39-2.16-2.08-3.64-2.08s-2.7 0.69-3.64 2.08-1.41 3.61-1.41 6.67 0.47 5.28 1.41 6.72 2.16 2.16 3.64 2.16zm0-6.89c-0.56 0-1.04-0.2-1.45-0.6s-0.62-0.94-0.62-1.63 0.2-1.23 0.62-1.61c0.41-0.39 0.89-0.58 1.45-0.58s1.04 0.19 1.45 0.58 0.62 0.93 0.62 1.61-0.21 1.23-0.62 1.63-0.89 0.6-1.45 0.6z"/>
 <path class="cls-5" d="m643.04,126.97v-2.26h6.12v-15.64h-4.76v-1.76c1.24-.18,2.29-.39,3.14-.65.85-.25,1.62-.56,2.31-.92h2.03v18.97h5.56v2.26h-14.41Z"/>
 <path class="cls-5" d="m669.76,127.36c-.75,0-1.39-.26-1.91-.78s-.78-1.19-.78-2.01.26-1.53.78-2.05c.52-.52,1.16-.78,1.91-.78s1.39.26,1.91.78c.52.52.78,1.2.78,2.05s-.26,1.49-.78,2.01-1.16.78-1.91.78Z"/>
 <path class="cls-5" d="m689.73,127.36c-.75,0-1.39-.26-1.91-.78s-.78-1.19-.78-2.01.26-1.53.78-2.05c.52-.52,1.16-.78,1.91-.78s1.39.26,1.91.78c.52.52.78,1.2.78,2.05s-.26,1.49-.78,2.01-1.16.78-1.91.78Z"/>
 <path class="cls-5" d="m709.7,127.36c-.75,0-1.39-.26-1.91-.78s-.78-1.19-.78-2.01.26-1.53.78-2.05c.52-.52,1.16-.78,1.91-.78s1.39.26,1.91.78c.52.52.78,1.2.78,2.05s-.26,1.49-.78,2.01-1.16.78-1.91.78Z"/>
 <path class="cls-5" d="m550 208.1c-2.35 0-4.21-0.97-5.58-2.9-1.36-1.93-2.05-4.66-2.05-8.19s0.68-6.29 2.05-8.15 3.22-2.8 5.58-2.8 4.24 0.93 5.59 2.8c1.35 1.86 2.03 4.58 2.03 8.15s-0.68 6.26-2.03 8.19-3.22 2.9-5.59 2.9zm0-2.2c1.49 0 2.7-0.72 3.64-2.16s1.41-3.68 1.41-6.72-0.47-5.29-1.41-6.67c-0.94-1.39-2.16-2.08-3.64-2.08s-2.7 0.69-3.64 2.08-1.41 3.61-1.41 6.67 0.47 5.28 1.41 6.72 2.16 2.16 3.64 2.16zm0-6.89c-0.56 0-1.04-0.2-1.45-0.6s-0.62-0.94-0.62-1.63 0.2-1.23 0.62-1.61c0.41-0.39 0.89-0.58 1.45-0.58s1.04 0.19 1.45 0.58 0.62 0.93 0.62 1.61-0.21 1.23-0.62 1.63-0.89 0.6-1.45 0.6z"/>
 <path class="cls-5" d="m562.07,207.7l6.16-8.39-5.69-7.79h3.03l2.56,3.56c.29.42.59.87.92,1.35.32.48.65.94.98,1.38h.13c.31-.44.62-.91.93-1.4.31-.49.61-.95.9-1.4l2.43-3.49h2.9l-5.76,8.02,6.19,8.15h-3l-2.83-3.73c-.33-.47-.68-.95-1.05-1.46-.37-.51-.73-1-1.08-1.46h-.13c-.33.49-.67.97-1,1.45-.33.48-.67.97-1,1.48l-2.66,3.73h-2.93Z"/>
 <path class="cls-5" d="m591.6 208.1c-1.8 0-3.41-0.45-4.84-1.35s-2.57-2.19-3.41-3.88-1.26-3.72-1.26-6.09 0.42-4.37 1.26-6.06 2-2.98 3.48-3.89 3.16-1.36 5.04-1.36c1.31 0 2.47 0.27 3.49 0.8s1.84 1.15 2.46 1.86l-1.56 1.76c-0.56-0.6-1.2-1.08-1.93-1.45s-1.55-0.55-2.46-0.55c-1.4 0-2.61 0.36-3.64 1.08s-1.84 1.74-2.41 3.04c-0.58 1.31-0.87 2.87-0.87 4.69s0.29 3.4 0.87 4.74 1.38 2.38 2.41 3.11 2.25 1.1 3.64 1.1c1 0 1.9-0.21 2.7-0.63s1.54-1.02 2.23-1.8l1.56 1.7c-0.87 1-1.85 1.78-2.95 2.33s-2.37 0.83-3.81 0.83z"/>
 <path class="cls-5" d="m609.9 208.1c-1.64 0-3.1-0.45-4.36-1.36s-2.25-2.21-2.96-3.91-1.06-3.74-1.06-6.14 0.35-4.36 1.06-6.04 1.7-2.96 2.96-3.84c1.26-0.89 2.72-1.33 4.36-1.33s3.09 0.44 4.36 1.33c1.26 0.89 2.25 2.17 2.96 3.84 0.71 1.68 1.06 3.69 1.06 6.04s-0.35 4.44-1.06 6.14-1.7 3-2.96 3.91-2.72 1.36-4.36 1.36zm0-2.43c1.66 0 3-0.8 4.01-2.4s1.51-3.79 1.51-6.59-0.5-4.9-1.51-6.46c-1.01-1.55-2.35-2.33-4.01-2.33s-3 0.78-4.01 2.33-1.51 3.71-1.51 6.46 0.5 4.99 1.51 6.59 2.35 2.4 4.01 2.4z"/>
 <path class="cls-5" d="m624.3 207.7v-21.83h13.41v2.33h-10.62v7.39h8.99v2.33h-8.99v9.78h-2.8z"/>
 <path class="cls-5" d="m643.6 207.7v-21.83h13.51v2.33h-10.72v6.86h9.05v2.36h-9.05v7.92h11.05v2.36h-13.84z"/>
 <path class="cls-5" d="m669.76,208.1c-.75,0-1.39-.26-1.91-.78s-.78-1.19-.78-2.01.26-1.53.78-2.05c.52-.52,1.16-.78,1.91-.78s1.39.26,1.91.78c.52.52.78,1.2.78,2.05s-.26,1.49-.78,2.01-1.16.78-1.91.78Z"/>
 <path class="cls-5" d="m689.73,208.1c-.75,0-1.39-.26-1.91-.78s-.78-1.19-.78-2.01.26-1.53.78-2.05c.52-.52,1.16-.78,1.91-.78s1.39.26,1.91.78c.52.52.78,1.2.78,2.05s-.26,1.49-.78,2.01-1.16.78-1.91.78Z"/>
 <path class="cls-5" d="m709.7,208.1c-.75,0-1.39-.26-1.91-.78s-.78-1.19-.78-2.01.26-1.53.78-2.05c.52-.52,1.16-.78,1.91-.78s1.39.26,1.91.78c.52.52.78,1.2.78,2.05s-.26,1.49-.78,2.01-1.16.78-1.91.78Z"/>
 <path class="cls-5" d="m550 289.6c-2.35 0-4.21-0.97-5.58-2.9-1.36-1.93-2.05-4.66-2.05-8.19s0.68-6.29 2.05-8.15 3.22-2.8 5.58-2.8 4.24 0.93 5.59 2.8c1.35 1.86 2.03 4.58 2.03 8.15s-0.68 6.26-2.03 8.19-3.22 2.9-5.59 2.9zm0-2.2c1.49 0 2.7-0.72 3.64-2.16s1.41-3.68 1.41-6.72-0.47-5.29-1.41-6.67c-0.94-1.39-2.16-2.08-3.64-2.08s-2.7 0.69-3.64 2.08-1.41 3.61-1.41 6.67 0.47 5.28 1.41 6.72 2.16 2.16 3.64 2.16zm0-6.89c-0.56 0-1.04-0.2-1.45-0.6s-0.62-0.94-0.62-1.63 0.2-1.23 0.62-1.61c0.41-0.39 0.89-0.58 1.45-0.58s1.04 0.19 1.45 0.58 0.62 0.93 0.62 1.61-0.21 1.23-0.62 1.63-0.89 0.6-1.45 0.6z"/>
 <path class="cls-5" d="m562.07,289.23l6.16-8.39-5.69-7.79h3.03l2.56,3.56c.29.42.59.87.92,1.35.32.48.65.94.98,1.38h.13c.31-.44.62-.91.93-1.4.31-.49.61-.95.9-1.4l2.43-3.49h2.9l-5.76,8.02,6.19,8.15h-3l-2.83-3.73c-.33-.47-.68-.95-1.05-1.46-.37-.51-.73-1-1.08-1.46h-.13c-.33.49-.67.97-1,1.45-.33.48-.67.97-1,1.48l-2.66,3.73h-2.93Z"/>
 <path class="cls-5" d="m583.14,289.23v-2.26h6.12v-15.64h-4.76v-1.76c1.24-.18,2.29-.39,3.14-.65.85-.25,1.62-.56,2.31-.92h2.03v18.97h5.56v2.26h-14.41Z"/>
 <path class="cls-5" d="m600.9 289.2 7.35-21.83h3.13l7.36 21.83h-2.93l-2.06-6.66h-7.92l-2.1 6.66h-2.83zm6.66-12.21-1.03 3.33h6.52l-1.03-3.33c-0.38-1.22-0.75-2.43-1.12-3.64s-0.72-2.45-1.05-3.71h-0.13c-0.35 1.26-0.71 2.5-1.06 3.71-0.36 1.21-0.72 2.42-1.1 3.64z"/>
 <path class="cls-5" d="m629.8 289.6c-2.35 0-4.21-0.97-5.58-2.9-1.36-1.93-2.05-4.66-2.05-8.19s0.68-6.29 2.05-8.15 3.22-2.8 5.58-2.8 4.24 0.93 5.59 2.8c1.35 1.86 2.03 4.58 2.03 8.15s-0.68 6.26-2.03 8.19-3.22 2.9-5.59 2.9zm0-2.2c1.49 0 2.7-0.72 3.64-2.16s1.41-3.68 1.41-6.72-0.47-5.29-1.41-6.67c-0.94-1.39-2.16-2.08-3.64-2.08s-2.7 0.69-3.64 2.08-1.41 3.61-1.41 6.67 0.47 5.28 1.41 6.72 2.16 2.16 3.64 2.16zm0-6.89c-0.56 0-1.04-0.2-1.45-0.6s-0.62-0.94-0.62-1.63 0.2-1.23 0.62-1.61c0.41-0.39 0.89-0.58 1.45-0.58s1.04 0.19 1.45 0.58 0.62 0.93 0.62 1.61-0.21 1.23-0.62 1.63-0.89 0.6-1.45 0.6z"/>
 <path class="cls-5" d="m644.2 289.2v-21.83h13.41v2.33h-10.62v7.39h8.99v2.33h-8.99v9.78h-2.8z"/>
 <path class="cls-5" d="m669.76,289.63c-.75,0-1.39-.26-1.91-.78s-.78-1.19-.78-2.01.26-1.53.78-2.05c.52-.52,1.16-.78,1.91-.78s1.39.26,1.91.78c.52.52.78,1.2.78,2.05s-.26,1.49-.78,2.01-1.16.78-1.91.78Z"/>
 <path class="cls-5" d="m689.73,289.63c-.75,0-1.39-.26-1.91-.78s-.78-1.19-.78-2.01.26-1.53.78-2.05c.52-.52,1.16-.78,1.91-.78s1.39.26,1.91.78c.52.52.78,1.2.78,2.05s-.26,1.49-.78,2.01-1.16.78-1.91.78Z"/>
 <path class="cls-5" d="m709.7,289.63c-.75,0-1.39-.26-1.91-.78s-.78-1.19-.78-2.01.26-1.53.78-2.05c.52-.52,1.16-.78,1.91-.78s1.39.26,1.91.78c.52.52.78,1.2.78,2.05s-.26,1.49-.78,2.01-1.16.78-1.91.78Z"/>
 <path class="cls-5" d="m550 694.8c-2.35 0-4.21-0.96-5.58-2.9-1.36-1.93-2.05-4.66-2.05-8.19s0.68-6.29 2.05-8.15 3.22-2.8 5.58-2.8 4.24 0.93 5.59 2.8c1.35 1.86 2.03 4.58 2.03 8.15s-0.68 6.26-2.03 8.19-3.22 2.9-5.59 2.9zm0-2.2c1.49 0 2.7-0.72 3.64-2.16s1.41-3.68 1.41-6.72-0.47-5.29-1.41-6.67-2.16-2.08-3.64-2.08-2.7 0.69-3.64 2.08-1.41 3.61-1.41 6.67 0.47 5.28 1.41 6.72 2.16 2.16 3.64 2.16zm0-6.89c-0.56 0-1.04-0.2-1.45-0.6s-0.62-0.94-0.62-1.63 0.2-1.23 0.62-1.61c0.41-0.39 0.89-0.58 1.45-0.58s1.04 0.19 1.45 0.58 0.62 0.93 0.62 1.61-0.21 1.23-0.62 1.63-0.89 0.6-1.45 0.6z"/>
 <path class="cls-5" d="m562.07,694.43l6.16-8.39-5.69-7.79h3.03l2.56,3.56c.29.42.59.87.92,1.35.32.48.65.94.98,1.38h.13c.31-.44.62-.91.93-1.4.31-.49.61-.95.9-1.4l2.43-3.49h2.9l-5.76,8.02,6.19,8.15h-3l-2.83-3.73c-.33-.47-.68-.95-1.05-1.46s-.73-1-1.08-1.46h-.13c-.33.49-.67.97-1,1.45-.33.48-.67.97-1,1.48l-2.66,3.73h-2.93Z"/>
 <path class="cls-5" d="m589.43,694.83c-1.89,0-3.43-.3-4.62-.9-1.2-.6-2.21-1.26-3.03-2l1.37-1.8c.71.62,1.53,1.18,2.46,1.68.93.5,2.11.75,3.53.75,1,0,1.91-.2,2.73-.6.82-.4,1.47-.96,1.95-1.7.48-.73.71-1.59.71-2.56,0-1.46-.48-2.61-1.43-3.43-.95-.82-2.22-1.23-3.79-1.23-.89,0-1.64.11-2.26.33-.62.22-1.31.54-2.06.96l-1.46-.93.7-10.22h12.01v2.36h-9.58l-.57,6.29c.62-.27,1.23-.48,1.81-.63s1.29-.23,2.11-.23c1.35,0,2.58.24,3.68.72,1.1.48,1.97,1.2,2.63,2.18.65.98.98,2.23.98,3.76s-.37,2.83-1.12,3.91c-.74,1.08-1.71,1.89-2.91,2.45-1.2.55-2.47.83-3.83.83Z"/>
 <path class="cls-5" d="m612.12,694.43v-5.86h-10.95v-1.83l10.62-13.54h2.93v13.18h3.29v2.2h-3.29v5.86h-2.6Zm-7.92-8.05h7.92v-6.59c.02-.58.05-1.2.08-1.88s.06-1.3.08-1.88h-.17c-.33.51-.69,1.03-1.07,1.55-.38.52-.74,1.04-1.1,1.55l-5.76,7.25Z"/>
 <path class="cls-5" d="m628.4 694.8c-1.29 0-2.42-0.22-3.39-0.65s-1.82-0.96-2.53-1.58l1.53-1.73c0.53 0.51 1.17 0.92 1.9 1.23s1.51 0.47 2.33 0.47c1.13 0 2.17-0.29 3.13-0.87s1.74-1.53 2.35-2.86 0.94-3.13 0.98-5.39c-0.87 0.84-1.81 1.51-2.85 2-1.03 0.49-2.09 0.73-3.18 0.73-1.95 0-3.54-0.55-4.76-1.65s-1.83-2.73-1.83-4.91c0-1.35 0.33-2.54 0.98-3.56s1.52-1.82 2.6-2.4 2.23-0.87 3.48-0.87c1.55 0 2.94 0.38 4.16 1.13s2.19 1.89 2.91 3.39c0.72 1.51 1.08 3.41 1.08 5.69 0 2.13-0.24 3.94-0.73 5.44s-1.15 2.72-1.98 3.66-1.78 1.63-2.85 2.06c-1.06 0.43-2.17 0.65-3.33 0.65zm-3.73-15.21c0 1.44 0.38 2.55 1.15 3.33s1.89 1.17 3.38 1.17c0.84 0 1.74-0.22 2.7-0.67 0.95-0.44 1.86-1.17 2.73-2.16-0.22-2.06-0.79-3.63-1.71-4.71s-2.17-1.61-3.74-1.61c-1.26 0-2.33 0.43-3.2 1.28s-1.3 1.98-1.3 3.38z"/>
 <path class="cls-5" d="m642.7 694.4v-21.83h5.39c3.28 0 5.79 0.94 7.52 2.81 1.73 1.88 2.6 4.54 2.6 8s-0.86 6.19-2.58 8.12-4.19 2.9-7.4 2.9h-5.52zm2.76-2.26h2.43c2.51 0 4.38-0.77 5.61-2.31s1.85-3.69 1.85-6.44-0.62-4.86-1.85-6.34-3.1-2.21-5.61-2.21h-2.43v17.31z"/>
 <path class="cls-5" d="m669.76,694.83c-.75,0-1.39-.26-1.91-.78-.52-.52-.78-1.19-.78-2.01s.26-1.52.78-2.05,1.16-.78,1.91-.78,1.39.26,1.91.78.78,1.2.78,2.05-.26,1.49-.78,2.01c-.52.52-1.16.78-1.91.78Z"/>
 <path class="cls-5" d="m689.73,694.83c-.75,0-1.39-.26-1.91-.78-.52-.52-.78-1.19-.78-2.01s.26-1.52.78-2.05,1.16-.78,1.91-.78,1.39.26,1.91.78.78,1.2.78,2.05-.26,1.49-.78,2.01c-.52.52-1.16.78-1.91.78Z"/>
 <path class="cls-5" d="m709.7,694.83c-.75,0-1.39-.26-1.91-.78-.52-.52-.78-1.19-.78-2.01s.26-1.52.78-2.05,1.16-.78,1.91-.78,1.39.26,1.91.78.78,1.2.78,2.05-.26,1.49-.78,2.01c-.52.52-1.16.78-1.91.78Z"/>
 <path class="cls-5" d="m550 534.6c-2.35 0-4.21-0.96-5.58-2.9-1.36-1.93-2.05-4.66-2.05-8.19s0.68-6.29 2.05-8.15 3.22-2.8 5.58-2.8 4.24 0.93 5.59 2.8c1.35 1.86 2.03 4.58 2.03 8.15s-0.68 6.26-2.03 8.19-3.22 2.9-5.59 2.9zm0-2.2c1.49 0 2.7-0.72 3.64-2.16s1.41-3.68 1.41-6.72-0.47-5.29-1.41-6.67-2.16-2.08-3.64-2.08-2.7 0.69-3.64 2.08-1.41 3.61-1.41 6.67 0.47 5.28 1.41 6.72 2.16 2.16 3.64 2.16zm0-6.89c-0.56 0-1.04-0.2-1.45-0.6s-0.62-0.94-0.62-1.63 0.2-1.23 0.62-1.61c0.41-0.39 0.89-0.58 1.45-0.58s1.04 0.19 1.45 0.58 0.62 0.93 0.62 1.61-0.21 1.23-0.62 1.63-0.89 0.6-1.45 0.6z"/>
 <path class="cls-5" d="m562.07,534.2l6.16-8.39-5.69-7.79h3.03l2.56,3.56c.29.42.59.87.92,1.35.32.48.65.94.98,1.38h.13c.31-.44.62-.91.93-1.4.31-.49.61-.95.9-1.4l2.43-3.49h2.9l-5.76,8.02,6.19,8.15h-3l-2.83-3.73c-.33-.47-.68-.95-1.05-1.46s-.73-1-1.08-1.46h-.13c-.33.49-.67.97-1,1.45-.33.48-.67.97-1,1.48l-2.66,3.73h-2.93Z"/>
 <path class="cls-5" d="m589.9 534.6c-2.35 0-4.21-0.96-5.58-2.9-1.36-1.93-2.05-4.66-2.05-8.19s0.68-6.29 2.05-8.15 3.22-2.8 5.58-2.8 4.24 0.93 5.59 2.8c1.35 1.86 2.03 4.58 2.03 8.15s-0.68 6.26-2.03 8.19-3.22 2.9-5.59 2.9zm0-2.2c1.49 0 2.7-0.72 3.64-2.16s1.41-3.68 1.41-6.72-0.47-5.29-1.41-6.67-2.16-2.08-3.64-2.08-2.7 0.69-3.64 2.08-1.41 3.61-1.41 6.67 0.47 5.28 1.41 6.72 2.16 2.16 3.64 2.16zm0-6.89c-0.56 0-1.04-0.2-1.45-0.6s-0.62-0.94-0.62-1.63 0.2-1.23 0.62-1.61c0.41-0.39 0.89-0.58 1.45-0.58s1.04 0.19 1.45 0.58 0.62 0.93 0.62 1.61-0.21 1.23-0.62 1.63-0.89 0.6-1.45 0.6z"/>
 <path class="cls-5" d="m603.1,534.2v-2.26h6.12v-15.64h-4.76v-1.76c1.24-.18,2.29-.39,3.14-.65s1.62-.56,2.31-.92h2.03v18.97h5.56v2.26h-14.41Z"/>
 <path class="cls-5" d="m1052 302-4.66 4.79v7.52h-5.46v-29.41h5.46v15.08l14.54-15.08h6.13l-12.35 13.15 13.11 16.26h-6.38l-10.38-12.31z"/>
 <path class="cls-5" d="m1092.02,304.83h-17.6c.63,3.28,3.36,5.38,7.27,5.38,2.52,0,4.5-.8,6.09-2.44l2.81,3.23c-2.02,2.39-5.17,3.65-9.03,3.65-7.52,0-12.39-4.83-12.39-11.51s4.91-11.47,11.59-11.47,11.34,4.58,11.34,11.59c0,.42-.04,1.05-.08,1.55Zm-17.64-3.49h12.73c-.42-3.23-2.9-5.46-6.34-5.46s-5.88,2.18-6.38,5.46Z"/>
 <path class="cls-5" d="m1117.72,291.93l-10.5,24.24c-2.06,5.08-4.92,6.64-8.65,6.64-2.23,0-4.58-.76-6.01-2.06l2.1-3.86c1.01.97,2.44,1.55,3.86,1.55,1.85,0,2.94-.88,3.95-3.11l.38-.88-9.79-22.52h5.46l7.06,16.59,7.1-16.59h5.04Z"/>
 <path class="cls-5" d="m1142 279h4.7l-13.86 39.57h-4.7l13.86-39.57z"/>
 <path class="cls-5" d="m1187 285-12.81 29.41h-5.38l-12.85-29.41h5.92l9.79 22.68 9.87-22.68h5.46z"/>
 <path class="cls-5" d="m1207 301.2v13.15h-4.96v-2.73c-1.26 1.93-3.7 3.02-7.06 3.02-5.12 0-8.36-2.81-8.36-6.72s2.52-6.68 9.33-6.68h5.8v-0.34c0-3.07-1.85-4.87-5.59-4.87-2.52 0-5.12 0.84-6.8 2.23l-2.06-3.82c2.39-1.85 5.88-2.77 9.49-2.77 6.47 0 10.21 3.07 10.21 9.54zm-5.25 6.13v-2.6h-5.42c-3.57 0-4.54 1.34-4.54 2.98 0 1.89 1.6 3.11 4.28 3.11s4.79-1.18 5.67-3.49z"/>
 <path class="cls-5" d="m1214 283.2h5.25v31.17h-5.25v-31.17z"/>
 <path class="cls-5" d="m1247 291.9v22.43h-5v-2.86c-1.68 2.06-4.33 3.15-7.23 3.15-5.75 0-9.66-3.15-9.66-9.91v-12.81h5.25v12.1c0 4.07 1.93 6.01 5.25 6.01 3.65 0 6.13-2.27 6.13-6.76v-11.34h5.25z"/>
 <path class="cls-5" d="m1275.3,304.83h-17.6c.63,3.28,3.36,5.38,7.27,5.38,2.52,0,4.5-.8,6.09-2.44l2.81,3.23c-2.02,2.39-5.17,3.65-9.03,3.65-7.52,0-12.39-4.83-12.39-11.51s4.91-11.47,11.59-11.47,11.34,4.58,11.34,11.59c0,.42-.04,1.05-.08,1.55Zm-17.64-3.49h12.73c-.42-3.23-2.9-5.46-6.34-5.46s-5.88,2.18-6.38,5.46Z"/>
 <path class="cls-5" d="m1293 285h12.85c9.54 0 16.05 5.88 16.05 14.7s-6.51 14.7-16.05 14.7h-12.85v-29.41zm12.6 24.78c6.55 0 10.8-3.99 10.8-10.08s-4.24-10.08-10.8-10.08h-7.14v20.16h7.14z"/>
 <path class="cls-5" d="m1345 301.2v13.15h-4.96v-2.73c-1.26 1.93-3.7 3.02-7.06 3.02-5.12 0-8.36-2.81-8.36-6.72s2.52-6.68 9.33-6.68h5.8v-0.34c0-3.07-1.85-4.87-5.59-4.87-2.52 0-5.12 0.84-6.8 2.23l-2.06-3.82c2.39-1.85 5.88-2.77 9.49-2.77 6.47 0 10.21 3.07 10.21 9.54zm-5.25 6.13v-2.6h-5.42c-3.57 0-4.54 1.34-4.54 2.98 0 1.89 1.6 3.11 4.28 3.11s4.79-1.18 5.67-3.49z"/>
 <path class="cls-5" d="m1366 313.1c-1.26 1.01-3.15 1.51-5.04 1.51-4.91 0-7.73-2.6-7.73-7.56v-10.8h-3.7v-4.2h3.7v-5.12h5.25v5.12h6.01v4.2h-6.01v10.67c0 2.18 1.09 3.36 3.11 3.36 1.09 0 2.14-0.29 2.94-0.92l1.47 3.74z"/>
 <path class="cls-5" d="m1389 301.2v13.15h-4.96v-2.73c-1.26 1.93-3.7 3.02-7.06 3.02-5.12 0-8.36-2.81-8.36-6.72s2.52-6.68 9.33-6.68h5.8v-0.34c0-3.07-1.85-4.87-5.59-4.87-2.52 0-5.12 0.84-6.8 2.23l-2.06-3.82c2.39-1.85 5.88-2.77 9.49-2.77 6.47 0 10.21 3.07 10.21 9.54zm-5.25 6.13v-2.6h-5.42c-3.57 0-4.54 1.34-4.54 2.98 0 1.89 1.6 3.11 4.28 3.11s4.79-1.18 5.67-3.49z"/>
 <path class="cls-5" d="m1419 303.2c0 6.97-4.83 11.51-11.38 11.51-3.07 0-5.67-1.05-7.44-3.19v2.9h-5v-31.17h5.25v11.47c1.81-2.02 4.33-2.98 7.18-2.98 6.55 0 11.38 4.49 11.38 11.47zm-5.33 0c0-4.29-2.86-7.02-6.64-7.02s-6.68 2.73-6.68 7.02 2.9 7.02 6.68 7.02 6.64-2.73 6.64-7.02z"/>
 <path class="cls-5" d="m1443 301.2v13.15h-4.96v-2.73c-1.26 1.93-3.7 3.02-7.06 3.02-5.12 0-8.36-2.81-8.36-6.72s2.52-6.68 9.33-6.68h5.8v-0.34c0-3.07-1.85-4.87-5.59-4.87-2.52 0-5.12 0.84-6.8 2.23l-2.06-3.82c2.39-1.85 5.88-2.77 9.49-2.77 6.47 0 10.21 3.07 10.21 9.54zm-5.25 6.13v-2.6h-5.42c-3.57 0-4.54 1.34-4.54 2.98 0 1.89 1.6 3.11 4.28 3.11s4.79-1.18 5.67-3.49z"/>
 <path class="cls-5" d="m1446.95,312.14l2.02-3.99c1.97,1.3,5,2.23,7.81,2.23,3.32,0,4.71-.92,4.71-2.48,0-4.28-13.86-.25-13.86-9.2,0-4.24,3.82-7.02,9.87-7.02,2.98,0,6.39.71,8.4,1.93l-2.02,3.99c-2.14-1.26-4.29-1.68-6.43-1.68-3.19,0-4.71,1.05-4.71,2.52,0,4.54,13.86.5,13.86,9.28,0,4.2-3.87,6.93-10.17,6.93-3.74,0-7.48-1.09-9.49-2.52Z"/>
 <path class="cls-5" d="m1492.14,304.83h-17.6c.63,3.28,3.36,5.38,7.27,5.38,2.52,0,4.5-.8,6.09-2.44l2.81,3.23c-2.02,2.39-5.17,3.65-9.03,3.65-7.52,0-12.39-4.83-12.39-11.51s4.91-11.47,11.59-11.47,11.34,4.58,11.34,11.59c0,.42-.04,1.05-.08,1.55Zm-17.64-3.49h12.73c-.42-3.23-2.9-5.46-6.34-5.46s-5.88,2.18-6.38,5.46Z"/>
 <path class="cls-5" d="m1040 401.3h11.55v4.37h-11.55v-4.37z"/>
 <path class="cls-5" d="m1091 410.5v4.62h-21.68v-3.66l11.68-11.09c2.86-2.73 3.36-4.45 3.36-6.09 0-2.69-1.85-4.24-5.46-4.24-2.86 0-5.25 0.97-6.89 3.07l-3.82-2.94c2.27-3.07 6.34-4.87 11.17-4.87 6.39 0 10.5 3.23 10.5 8.44 0 2.86-0.8 5.46-4.87 9.28l-7.86 7.48h13.86z"/>
 <path class="cls-5" d="m1115 406.1c0 5.17-3.74 9.45-11.64 9.45-4.16 0-8.36-1.26-11.05-3.4l2.31-4.24c2.14 1.76 5.33 2.9 8.65 2.9 3.91 0 6.22-1.72 6.22-4.5s-1.81-4.58-7.9-4.58h-7.1l1.51-16h17.26v4.58h-12.64l-0.63 6.81h2.81c8.7 0 12.18 3.78 12.18 8.99z"/>
 <path class="cls-5" d="m1142 406c0 5.84-4.75 9.54-10.75 9.54-8.02 0-12.73-5.17-12.73-14.62 0-10.08 5.88-15.63 14.41-15.63 2.94 0 5.75 0.63 7.73 1.89l-2.02 4.12c-1.6-1.05-3.53-1.43-5.59-1.43-5.54 0-9.03 3.44-9.03 10.12v0.04c1.76-2.06 4.58-3.07 7.86-3.07 5.8 0 10.12 3.53 10.12 9.03zm-5.29 0.25c0-3.07-2.31-5-5.88-5s-5.96 2.14-5.96 5.04 2.18 4.96 6.09 4.96c3.4 0 5.75-1.93 5.75-5z"/>
 <path class="cls-5" d="m1145 401.3h11.55v4.37h-11.55v-4.37z"/>
 <path class="cls-5" d="m1186 404c0 6.97-4.83 11.51-11.38 11.51-3.07 0-5.67-1.05-7.44-3.19v2.9h-5v-31.17h5.25v11.47c1.81-2.02 4.33-2.98 7.18-2.98 6.55 0 11.38 4.49 11.38 11.47zm-5.33 0c0-4.29-2.86-7.02-6.64-7.02s-6.68 2.73-6.68 7.02 2.9 7.01 6.68 7.01 6.64-2.73 6.64-7.01z"/>
 <path class="cls-5" d="m1191 385.9c0-1.76 1.43-3.15 3.36-3.15s3.36 1.3 3.36 3.02c0 1.85-1.39 3.28-3.36 3.28s-3.36-1.39-3.36-3.15zm0.71 6.85h5.25v22.43h-5.25v-22.43z"/>
 <path class="cls-5" d="m1217 413.9c-1.26 1.01-3.15 1.51-5.04 1.51-4.91 0-7.73-2.6-7.73-7.56v-10.8h-3.7v-4.2h3.7v-5.12h5.25v5.12h6.01v4.2h-6.01v10.67c0 2.18 1.09 3.36 3.11 3.36 1.09 0 2.14-0.29 2.94-0.92l1.47 3.74z"/>
 <path class="cls-5" d="m1244 402.8-4.66 4.79v7.52h-5.46v-29.41h5.46v15.08l14.53-15.08h6.13l-12.35 13.15 13.11 16.26h-6.38l-10.38-12.31z"/>
 <path class="cls-5" d="m1283.64,405.63h-17.6c.63,3.28,3.36,5.38,7.27,5.38,2.52,0,4.5-.8,6.09-2.44l2.81,3.23c-2.02,2.39-5.17,3.66-9.03,3.66-7.52,0-12.39-4.83-12.39-11.51s4.91-11.47,11.59-11.47,11.34,4.58,11.34,11.59c0,.42-.04,1.05-.08,1.55Zm-17.64-3.49h12.73c-.42-3.23-2.9-5.46-6.34-5.46s-5.88,2.18-6.38,5.46Z"/>
 <path class="cls-5" d="m1309.34,392.73l-10.5,24.24c-2.06,5.08-4.92,6.64-8.65,6.64-2.23,0-4.58-.76-6.01-2.06l2.1-3.86c1.01.97,2.44,1.55,3.86,1.55,1.85,0,2.94-.88,3.95-3.11l.38-.88-9.79-22.52h5.46l7.06,16.59,7.1-16.59h5.04Z"/>
 <path class="cls-5" d="m1309.76,412.93l2.02-3.99c1.97,1.3,5,2.23,7.81,2.23,3.32,0,4.71-.92,4.71-2.48,0-4.28-13.86-.25-13.86-9.2,0-4.24,3.82-7.02,9.87-7.02,2.98,0,6.39.71,8.4,1.93l-2.02,3.99c-2.14-1.26-4.29-1.68-6.43-1.68-3.19,0-4.71,1.05-4.71,2.52,0,4.54,13.86.5,13.86,9.28,0,4.2-3.87,6.93-10.17,6.93-3.74,0-7.48-1.09-9.49-2.52Z"/>
 <path class="cls-5" d="m1040 451.7h11.55v4.37h-11.55v-4.37z"/>
 <path class="cls-5" d="m1098 436.2-12.81 29.41h-5.38l-12.85-29.41h5.92l9.79 22.68 9.87-22.68h5.46z"/>
 <path class="cls-5" d="m1118 452.4v13.15h-4.96v-2.73c-1.26 1.93-3.7 3.02-7.06 3.02-5.12 0-8.36-2.81-8.36-6.72s2.52-6.68 9.33-6.68h5.8v-0.34c0-3.07-1.85-4.87-5.59-4.87-2.52 0-5.12 0.84-6.8 2.23l-2.06-3.82c2.39-1.85 5.88-2.77 9.49-2.77 6.47 0 10.21 3.07 10.21 9.54zm-5.25 6.13v-2.6h-5.42c-3.57 0-4.54 1.34-4.54 2.98 0 1.89 1.6 3.11 4.28 3.11s4.79-1.18 5.67-3.49z"/>
 <path class="cls-5" d="m1125 434.4h5.25v31.17h-5.25v-31.17z"/>
 <path class="cls-5" d="m1159 443.1v22.43h-5v-2.86c-1.68 2.06-4.33 3.15-7.23 3.15-5.75 0-9.66-3.15-9.66-9.91v-12.81h5.25v12.1c0 4.08 1.93 6.01 5.25 6.01 3.65 0 6.13-2.27 6.13-6.76v-11.34h5.25z"/>
 <path class="cls-5" d="m1186.5,456.03h-17.6c.63,3.28,3.36,5.38,7.27,5.38,2.52,0,4.5-.8,6.09-2.44l2.81,3.23c-2.02,2.39-5.17,3.65-9.03,3.65-7.52,0-12.39-4.83-12.39-11.51s4.91-11.47,11.59-11.47,11.34,4.58,11.34,11.59c0,.42-.04,1.05-.08,1.55Zm-17.64-3.49h12.73c-.42-3.23-2.9-5.46-6.34-5.46s-5.88,2.18-6.38,5.46Z"/>
 <path class="cls-5" d="m1189.05,463.33l2.02-3.99c1.97,1.3,5,2.23,7.81,2.23,3.32,0,4.71-.92,4.71-2.48,0-4.29-13.86-.25-13.86-9.2,0-4.24,3.82-7.01,9.87-7.01,2.98,0,6.39.71,8.4,1.93l-2.02,3.99c-2.14-1.26-4.29-1.68-6.43-1.68-3.19,0-4.71,1.05-4.71,2.52,0,4.54,13.86.5,13.86,9.28,0,4.2-3.87,6.93-10.17,6.93-3.74,0-7.48-1.09-9.49-2.52Z"/>
 <path class="cls-5" d="m1244 452.4v13.15h-4.96v-2.73c-1.26 1.93-3.7 3.02-7.06 3.02-5.12 0-8.36-2.81-8.36-6.72s2.52-6.68 9.33-6.68h5.8v-0.34c0-3.07-1.85-4.87-5.59-4.87-2.52 0-5.12 0.84-6.8 2.23l-2.06-3.82c2.39-1.85 5.88-2.77 9.49-2.77 6.47 0 10.21 3.07 10.21 9.54zm-5.25 6.13v-2.6h-5.42c-3.57 0-4.54 1.34-4.54 2.98 0 1.89 1.6 3.11 4.28 3.11s4.79-1.18 5.67-3.49z"/>
 <path class="cls-5" d="m1263.31,442.88v5c-.46-.08-.84-.13-1.22-.13-3.99,0-6.51,2.35-6.51,6.93v10.88h-5.25v-22.43h5v3.28c1.51-2.35,4.24-3.53,7.98-3.53Z"/>
 <path class="cls-5" d="m1289 456h-17.6c0.63 3.28 3.36 5.38 7.27 5.38 2.52 0 4.5-0.8 6.09-2.44l2.81 3.23c-2.02 2.39-5.17 3.65-9.03 3.65-7.52 0-12.39-4.83-12.39-11.51s4.91-11.47 11.59-11.47 11.34 4.58 11.34 11.59c0 0.42-0.04 1.05-0.08 1.55zm-17.64-3.49h12.73c-0.42-3.23-2.9-5.46-6.34-5.46s-5.88 2.18-6.38 5.46z"/>
 <path class="cls-5" d="m1324 452.4v13.15h-4.96v-2.73c-1.26 1.93-3.7 3.02-7.06 3.02-5.12 0-8.36-2.81-8.36-6.72s2.52-6.68 9.33-6.68h5.8v-0.34c0-3.07-1.85-4.87-5.59-4.87-2.52 0-5.12 0.84-6.8 2.23l-2.06-3.82c2.39-1.85 5.88-2.77 9.49-2.77 6.47 0 10.21 3.07 10.21 9.54zm-5.25 6.13v-2.6h-5.42c-3.57 0-4.54 1.34-4.54 2.98 0 1.89 1.6 3.11 4.28 3.11s4.79-1.18 5.67-3.49z"/>
 <path class="cls-5" d="m1353 452.7v12.85h-5.25v-12.18c0-3.99-1.97-5.92-5.33-5.92-3.74 0-6.26 2.27-6.26 6.76v11.34h-5.25v-22.43h5v2.9c1.72-2.06 4.45-3.15 7.73-3.15 5.38 0 9.37 3.07 9.37 9.83z"/>
 <path class="cls-5" d="m1380.12,443.13l-10.5,24.24c-2.06,5.08-4.92,6.64-8.65,6.64-2.23,0-4.58-.76-6.01-2.06l2.1-3.86c1.01.97,2.44,1.55,3.86,1.55,1.85,0,2.94-.88,3.95-3.11l.38-.88-9.79-22.52h5.46l7.06,16.59,7.1-16.59h5.04Z"/>
 <path class="cls-5" d="m1100 504.8c0 6.97-4.83 11.51-11.38 11.51-3.07 0-5.67-1.05-7.44-3.19v2.9h-5v-31.17h5.25v11.47c1.81-2.02 4.33-2.98 7.18-2.98 6.55 0 11.38 4.49 11.38 11.47zm-5.33 0c0-4.29-2.86-7.02-6.64-7.02s-6.68 2.73-6.68 7.02 2.9 7.01 6.68 7.01 6.64-2.73 6.64-7.01z"/>
 <path class="cls-5" d="m1125.32,493.53l-10.5,24.24c-2.06,5.08-4.92,6.64-8.65,6.64-2.23,0-4.58-.76-6.01-2.06l2.1-3.86c1.01.97,2.44,1.55,3.86,1.55,1.85,0,2.94-.88,3.95-3.11l.38-.88-9.79-22.52h5.46l7.06,16.59,7.1-16.59h5.04Z"/>
 <path class="cls-5" d="m1143 514.7c-1.26 1.01-3.15 1.51-5.04 1.51-4.91 0-7.73-2.6-7.73-7.56v-10.8h-3.7v-4.2h3.7v-5.12h5.25v5.12h6.01v4.2h-6.01v10.67c0 2.18 1.09 3.36 3.11 3.36 1.09 0 2.14-0.29 2.94-0.92l1.47 3.74z"/>
 <path class="cls-5" d="m1167.28,506.43h-17.6c.63,3.28,3.36,5.38,7.27,5.38,2.52,0,4.5-.8,6.09-2.44l2.81,3.23c-2.02,2.39-5.17,3.65-9.03,3.65-7.52,0-12.39-4.83-12.39-11.51s4.91-11.47,11.59-11.47,11.34,4.58,11.34,11.59c0,.42-.04,1.05-.08,1.55Zm-17.64-3.49h12.73c-.42-3.23-2.9-5.46-6.34-5.46s-5.88,2.18-6.38,5.46Z"/>
 <path class="cls-5" d="m1181.43,513.73l2.02-3.99c1.97,1.3,5,2.23,7.81,2.23,3.32,0,4.71-.92,4.71-2.48,0-4.29-13.86-.25-13.86-9.2,0-4.24,3.82-7.01,9.87-7.01,2.98,0,6.39.71,8.4,1.93l-2.02,3.99c-2.14-1.26-4.29-1.68-6.43-1.68-3.19,0-4.71,1.05-4.71,2.52,0,4.54,13.86.5,13.86,9.28,0,4.2-3.87,6.93-10.17,6.93-3.74,0-7.48-1.09-9.49-2.52Z"/>
 <path class="cls-5" d="m1226.62,506.43h-17.6c.63,3.28,3.36,5.38,7.27,5.38,2.52,0,4.5-.8,6.09-2.44l2.81,3.23c-2.02,2.39-5.17,3.65-9.03,3.65-7.52,0-12.39-4.83-12.39-11.51s4.91-11.47,11.59-11.47,11.34,4.58,11.34,11.59c0,.42-.04,1.05-.08,1.55Zm-17.64-3.49h12.73c-.42-3.23-2.9-5.46-6.34-5.46s-5.88,2.18-6.38,5.46Z"/>
 <path class="cls-5" d="m1254 493.5v30.58h-5.25v-10.88c-1.81 2.06-4.33 3.02-7.18 3.02-6.55 0-11.34-4.54-11.34-11.51s4.79-11.47 11.34-11.47c3.07 0 5.67 1.05 7.44 3.19v-2.94h5zm-5.17 11.22c0-4.29-2.86-7.02-6.68-7.02s-6.64 2.73-6.64 7.02 2.86 7.01 6.64 7.01 6.68-2.73 6.68-7.01z"/>
 <path class="cls-5" d="m1282 493.5v22.43h-5v-2.86c-1.68 2.06-4.33 3.15-7.23 3.15-5.75 0-9.66-3.15-9.66-9.91v-12.81h5.25v12.1c0 4.08 1.93 6.01 5.25 6.01 3.65 0 6.13-2.27 6.13-6.76v-11.34h5.25z"/>
 <path class="cls-5" d="m1310.16,506.43h-17.6c.63,3.28,3.36,5.38,7.27,5.38,2.52,0,4.5-.8,6.09-2.44l2.81,3.23c-2.02,2.39-5.17,3.65-9.03,3.65-7.52,0-12.39-4.83-12.39-11.51s4.91-11.47,11.59-11.47,11.34,4.58,11.34,11.59c0,.42-.04,1.05-.08,1.55Zm-17.64-3.49h12.73c-.42-3.23-2.9-5.46-6.34-5.46s-5.88,2.18-6.38,5.46Z"/>
 <path class="cls-5" d="m1337 503.1v12.85h-5.25v-12.18c0-3.99-1.97-5.92-5.33-5.92-3.74 0-6.26 2.27-6.26 6.76v11.34h-5.25v-22.43h5v2.9c1.72-2.06 4.45-3.15 7.73-3.15 5.38 0 9.37 3.07 9.37 9.83z"/>
 <path class="cls-5" d="m1342 504.8c0-6.72 5.04-11.47 12.14-11.47 4.37 0 7.86 1.81 9.58 5.21l-4.03 2.35c-1.34-2.14-3.36-3.11-5.59-3.11-3.86 0-6.8 2.69-6.8 7.02s2.94 7.01 6.8 7.01c2.23 0 4.24-0.97 5.59-3.11l4.03 2.35c-1.72 3.36-5.21 5.25-9.58 5.25-7.1 0-12.14-4.79-12.14-11.51z"/>
 <path class="cls-5" d="m1389.33,506.43h-17.6c.63,3.28,3.36,5.38,7.27,5.38,2.52,0,4.5-.8,6.09-2.44l2.81,3.23c-2.02,2.39-5.17,3.65-9.03,3.65-7.52,0-12.39-4.83-12.39-11.51s4.91-11.47,11.59-11.47,11.34,4.58,11.34,11.59c0,.42-.04,1.05-.08,1.55Zm-17.64-3.49h12.73c-.42-3.23-2.9-5.46-6.34-5.46s-5.88,2.18-6.38,5.46Z"/>
</svg>
