<?xml version="1.0" encoding="UTF-8" standalone="no"?>
<!-- Generator: Adobe Illustrator 27.0.0, SVG Export Plug-In . SVG Version: 6.00 Build 0)  -->

<svg
   version="1.1"
   id="Layer_1"
   x="0px"
   y="0px"
   viewBox="0 0 326.55 387.43"
   style="enable-background:new 0 0 326.55 387.43;"
   xml:space="preserve"
   sodipodi:docname="sad-squid.svg"
   inkscape:version="1.2.1 (9c6d41e410, 2022-07-14)"
   xmlns:inkscape="http://www.inkscape.org/namespaces/inkscape"
   xmlns:sodipodi="http://sodipodi.sourceforge.net/DTD/sodipodi-0.dtd"
   xmlns="http://www.w3.org/2000/svg"
   xmlns:svg="http://www.w3.org/2000/svg"><defs
   id="defs3969" /><sodipodi:namedview
   id="namedview3967"
   pagecolor="#ffffff"
   bordercolor="#666666"
   borderopacity="1.0"
   inkscape:showpageshadow="2"
   inkscape:pageopacity="0.0"
   inkscape:pagecheckerboard="0"
   inkscape:deskcolor="#d1d1d1"
   showgrid="false"
   inkscape:zoom="2.2481481"
   inkscape:cx="150.79078"
   inkscape:cy="229.52225"
   inkscape:window-width="1918"
   inkscape:window-height="1055"
   inkscape:window-x="0"
   inkscape:window-y="23"
   inkscape:window-maximized="1"
   inkscape:current-layer="Layer_1" />
<style
   type="text/css"
   id="style3717">
	.st0{fill-rule:evenodd;clip-rule:evenodd;fill:#FF705E;}
	.st1{fill:#FF705E;}
	.st2{fill-rule:evenodd;clip-rule:evenodd;fill:#FFFFFF;}
	.st3{fill:#50D985;}
	.st4{fill:#8747CC;}
	.st5{fill:#642F9E;}
	.st6{fill:#BC83FB;}
	.st7{fill:#D8B7FB;}
	.st8{fill-rule:evenodd;clip-rule:evenodd;fill:#BC83FB;}
	.st9{fill:#151424;}
	.st10{fill:#6EFFDB;}
</style>
<g
   id="g3797">
	<g
   id="g3722">
		<g
   id="inc_00000067218804854312848830000015565469351755407029_">
			<path
   class="st0"
   d="M42.94,112.66c0.61,0.06,0.89,0.39,0.83,1.01l-3.87,41.12c-0.06,0.61-0.39,0.89-1.01,0.83l-6.08-0.57     c-0.61-0.06-0.89-0.39-0.83-1.01l3.87-41.12c0.06-0.61,0.39-0.89,1.01-0.83L42.94,112.66L42.94,112.66z M66.78,127.04     c6.69,0.63,8.59,5.39,8.01,11.65l-1.81,19.21c-0.06,0.61-0.39,0.89-1.01,0.83l-6.08-0.57c-0.61-0.06-0.89-0.39-0.83-1.01     l1.9-20.13c0.2-2.09-1.27-2.97-3.05-3.14l-0.74-0.07c-2.64-0.25-4.65,0.68-5.42,1.72l-1.95,20.74c-0.06,0.61-0.39,0.89-1.01,0.83     l-6.08-0.57c-0.61-0.06-0.89-0.39-0.83-1.01l2.72-28.85c0.06-0.61,0.39-0.89,1.01-0.83l6.08,0.57c0.61,0.06,0.89,0.39,0.83,1.01     l-0.25,2.7c1.07-1.45,3.62-3.56,8.16-3.13L66.78,127.04L66.78,127.04z M91.3,117.21c0.61,0.06,0.89,0.39,0.83,1.01l-2.01,21.3     l9.58-8.39c0.41-0.39,0.99-0.65,1.48-0.6l6.32,0.6c0.8,0.08,1.45,1.07,0.23,2.13l-10.07,8.96l9.07,18.13     c0.3,0.71,0.15,1.69-0.89,1.59l-5.77-0.54c-0.8-0.08-1.51-0.39-1.92-1.3l-6.32-13.1l-2.62,2.17l-0.96,10.19     c-0.06,0.61-0.39,0.89-1.01,0.83l-6.08-0.57c-0.61-0.06-0.89-0.39-0.83-1.01l3.87-41.12c0.06-0.61,0.39-0.89,1.01-0.83     L91.3,117.21L91.3,117.21z"
   id="path3719" />
		</g>
	</g>
	<g
   id="g3735">
		<g
   id="inc_00000161603325141922845590000003054457953172797366_">
			<path
   class="st0"
   d="M105.33,235.09c-2.73,1.33-3.99,4.49-2.82,7.07c1.17,2.58,4.34,3.6,7.07,2.27c2.73-1.33,3.99-4.49,2.82-7.07     C111.23,234.78,108.06,233.77,105.33,235.09L105.33,235.09z M8.34,202.87c0.74-0.08,1.15,0.25,1.23,0.99l5.22,49.62     c0.08,0.74-0.25,1.15-0.99,1.23l-7.33,0.77c-0.74,0.08-1.15-0.25-1.23-0.99l-5.22-49.62c-0.08-0.74,0.25-1.15,0.99-1.23     L8.34,202.87L8.34,202.87z M40.01,214.21c8.07-0.85,11.46,4.34,12.26,11.89l2.44,23.18c0.08,0.74-0.25,1.15-0.99,1.23l-7.33,0.77     c-0.74,0.08-1.15-0.25-1.23-0.99L42.59,226c-0.26-2.52-2.21-3.21-4.36-2.99l-0.89,0.09c-3.18,0.34-5.34,1.91-6.01,3.33     l2.63,25.03c0.08,0.74-0.25,1.15-0.99,1.23l-7.33,0.77c-0.74,0.08-1.15-0.25-1.23-0.99l-3.66-34.81     c-0.08-0.74,0.25-1.15,0.99-1.23l7.33-0.77c0.74-0.08,1.15,0.25,1.23,0.99l0.34,3.26c0.92-1.97,3.43-5.08,8.91-5.66L40.01,214.21     L40.01,214.21z M66.7,196.73c0.74-0.08,1.15,0.25,1.23,0.99l2.7,25.7l9.35-12.22c0.39-0.57,1.02-1.01,1.61-1.07l7.63-0.8     c0.96-0.1,1.97,0.92,0.78,2.46l-9.79,13.01l15.06,19.31c0.53,0.77,0.58,1.96-0.68,2.09l-6.96,0.73c-0.96,0.1-1.88-0.1-2.58-1.08     l-10.61-14.01l-2.58,3.19l1.29,12.29c0.08,0.74-0.25,1.15-0.99,1.23l-7.33,0.77c-0.74,0.08-1.15-0.25-1.23-0.99l-5.22-49.62     c-0.08-0.74,0.25-1.15,0.99-1.23L66.7,196.73L66.7,196.73z"
   id="path3724" />
		</g>
		<g
   id="g3729">
			<path
   class="st0"
   d="M103.52,226.56l-1.62,0.16c-0.74,0.08-1.15-0.25-1.23-0.99l-3.27-31.1c-0.08-0.74,0.25-1.15,0.99-1.23     l7.55-0.79c0.74-0.08,1.15,0.25,1.23,0.99l0.11,1.05c-2.8,1-4.73,4.16-4.52,7.83c0.16,2.95,1.66,5.47,3.75,6.77     c-1.33,1.13-2.22,2.89-2.27,4.9c-0.06,2.18,0.87,4.15,2.34,5.36c-1.28,0.73-2.38,2.06-2.9,3.72     C103.3,224.4,103.27,225.56,103.52,226.56L103.52,226.56z"
   id="path3727" />
		</g>
		<g
   id="g3733">
			<path
   class="st0"
   d="M105.59,223.8c-0.42,1.31,0.14,2.6,1.25,2.86c1.11,0.27,2.35-0.59,2.77-1.9c0.42-1.31-0.14-2.6-1.25-2.86     C107.24,221.64,106,222.49,105.59,223.8z M106.61,214.39c-0.16,1.98,1.06,3.7,2.72,3.84c1.66,0.13,3.15-1.37,3.31-3.36     c0.16-1.98-1.06-3.7-2.72-3.84C108.26,210.9,106.77,212.41,106.61,214.39z M105,202.97c0.15,2.68,2.1,4.79,4.36,4.71     c2.25-0.08,3.96-2.31,3.81-4.99c-0.15-2.68-2.1-4.79-4.35-4.71C106.55,198.05,104.85,200.29,105,202.97z"
   id="path3731" />
		</g>
	</g>
	<g
   id="g3775">
		<g
   id="g3739">
			<path
   class="st1"
   d="M275.99,212.73l-0.45-0.04c-5.52-0.53-8.62,2.03-9.92,3.78l0.32-3.28c0.07-0.75-0.26-1.15-1.01-1.23     l-7.38-0.71c-0.75-0.07-1.15,0.26-1.23,1.01l-3.39,35.04c-0.07,0.75,0.26,1.15,1.01,1.23l7.38,0.71     c0.75,0.07,1.15-0.26,1.23-1.01l2.44-25.2c0.95-1.26,3.39-2.38,6.6-2.07l0.89,0.09c2.16,0.21,3.94,1.28,3.69,3.82l-2.36,24.45     c-0.07,0.75,0.26,1.15,1.01,1.23l7.38,0.71c0.75,0.07,1.15-0.26,1.23-1.01l2.26-23.33C286.41,219.31,284.11,213.52,275.99,212.73     z"
   id="path3737" />
		</g>
		<g
   id="g3743">
			<path
   class="st1"
   d="M245.62,210.1l-7.38-0.71c-0.75-0.07-1.15,0.26-1.23,1.01l-3.39,35.04c-0.07,0.75,0.26,1.15,1.01,1.23     l7.38,0.71c0.75,0.07,1.15-0.26,1.23-1.01l3.39-35.04C246.7,210.58,246.36,210.17,245.62,210.1z"
   id="path3741" />
		</g>
		<g
   id="g3747">
			<path
   class="st1"
   d="M313.47,231.26l12.26-10.85c1.48-1.29,0.69-2.49-0.28-2.59l-7.68-0.74c-0.6-0.06-1.3,0.25-1.8,0.73     l-11.67,10.16l2.5-25.87c0.07-0.75-0.26-1.15-1.01-1.23l-7.38-0.71c-0.75-0.07-1.15,0.26-1.23,1.01l-4.83,49.95     c-0.07,0.75,0.26,1.15,1.01,1.23l7.38,0.71c0.75,0.07,1.15-0.26,1.23-1.01l1.2-12.37l3.19-2.63l7.64,15.94     c0.5,1.1,1.36,1.49,2.33,1.58l7.01,0.68c1.27,0.12,1.46-1.06,1.09-1.93L313.47,231.26z"
   id="path3745" />
		</g>
		<g
   id="g3751">
			<path
   class="st1"
   d="M241.75,196.46c-2.88,0.58-4.84,3.24-4.37,5.94c0.47,2.7,3.19,4.43,6.07,3.85c2.88-0.58,4.84-3.24,4.37-5.94     C247.35,197.61,244.63,195.89,241.75,196.46z"
   id="path3749" />
		</g>
		<g
   id="g3773">
			<g
   id="g3755">
				<path
   class="st1"
   d="M217.23,234.93c-2.96,0.76-4.84,3.63-4.2,6.4c0.64,2.78,3.55,4.42,6.51,3.66c2.96-0.76,4.84-3.63,4.2-6.4      C223.1,235.82,220.18,234.18,217.23,234.93z"
   id="path3753" />
			</g>
			<g
   id="g3759">
				<path
   class="st1"
   d="M215.53,226l1.62,0.17c-0.04-1.04,0.22-2.17,0.83-3.25c0.85-1.53,2.2-2.62,3.61-3.09      c-1.21-1.49-1.73-3.61-1.23-5.75c0.46-1.96,1.68-3.52,3.22-4.37c-1.8-1.7-2.77-4.49-2.34-7.43c0.54-3.66,3.07-6.39,6.03-6.81      l0.11-1.06c0.07-0.75-0.26-1.15-1.01-1.23l-7.6-0.74c-0.75-0.07-1.15,0.26-1.23,1.01l-3.03,31.31      C214.45,225.52,214.79,225.93,215.53,226z"
   id="path3757" />
			</g>
			<g
   id="g3763">
				<path
   class="st1"
   d="M220.41,226.94c1.04,0.48,2.43-0.11,3.11-1.32c0.68-1.21,0.38-2.59-0.66-3.07      c-1.04-0.48-2.43,0.11-3.11,1.32C219.07,225.07,219.37,226.45,220.41,226.94z"
   id="path3761" />
			</g>
			<g
   id="g3767">
				<path
   class="st1"
   d="M228.12,199.06c-2.24-0.38-4.37,1.48-4.76,4.15c-0.39,2.67,1.11,5.14,3.34,5.52      c2.24,0.38,4.37-1.48,4.76-4.15C231.85,201.91,230.35,199.44,228.12,199.06z"
   id="path3765" />
			</g>
			<g
   id="g3771">
				<path
   class="st1"
   d="M226.59,212.15c-1.61-0.46-3.38,0.72-3.94,2.64c-0.56,1.92,0.3,3.86,1.91,4.33      c1.61,0.47,3.38-0.72,3.94-2.64C229.06,214.56,228.2,212.62,226.59,212.15z"
   id="path3769" />
			</g>
		</g>
	</g>
	<g
   id="g3795">
		<g
   id="g3793">
			<g
   id="g3779">
				<path
   class="st1"
   d="M247.21,123.6l-0.38,0.08c-4.69,0.93-6.63,3.81-7.26,5.59l-0.55-2.79c-0.13-0.63-0.5-0.89-1.14-0.76      l-6.28,1.24c-0.63,0.13-0.89,0.51-0.76,1.14l5.89,29.8c0.13,0.63,0.5,0.89,1.14,0.76l6.28-1.24c0.63-0.13,0.89-0.51,0.76-1.14      l-4.24-21.43c0.47-1.28,2.21-2.81,4.94-3.35l0.76-0.15c1.84-0.36,3.57,0.08,4,2.24l4.11,20.8c0.13,0.63,0.5,0.89,1.14,0.76      l6.28-1.24c0.63-0.13,0.89-0.51,0.76-1.14l-3.92-19.85C257.46,126.45,254.12,122.24,247.21,123.6z"
   id="path3777" />
			</g>
			<g
   id="g3783">
				<path
   class="st1"
   d="M221.45,128.96l-6.28,1.24c-0.63,0.13-0.89,0.51-0.76,1.14l5.89,29.8c0.13,0.63,0.51,0.89,1.14,0.76      l6.28-1.24c0.63-0.13,0.89-0.51,0.76-1.14l-5.89-29.8C222.46,129.09,222.09,128.83,221.45,128.96z"
   id="path3781" />
			</g>
			<g
   id="g3787">
				<path
   class="st1"
   d="M282.79,129.62l7.44-12.01c0.9-1.43-0.05-2.23-0.87-2.07l-6.53,1.29c-0.51,0.1-1.02,0.53-1.31,1.05      l-7.12,11.29l-4.35-22c-0.13-0.63-0.5-0.89-1.14-0.76l-6.28,1.24c-0.63,0.13-0.89,0.51-0.76,1.14l8.4,42.48      c0.13,0.63,0.51,0.89,1.14,0.76l6.28-1.24c0.63-0.13,0.89-0.51,0.76-1.14l-2.08-10.53l1.98-2.96l10.27,11.28      c0.68,0.79,1.49,0.89,2.32,0.73l5.96-1.18c1.08-0.21,0.94-1.24,0.42-1.86L282.79,129.62z"
   id="path3785" />
			</g>
			<g
   id="g3791">
				<path
   class="st1"
   d="M214.87,118.65c-2.24,1.19-3.2,3.87-2.14,5.99c1.06,2.12,3.73,2.87,5.97,1.68c2.24-1.19,3.2-3.87,2.14-5.99      C219.79,118.21,217.11,117.46,214.87,118.65z"
   id="path3789" />
			</g>
		</g>
	</g>
</g>
<g
   id="g3818"
   style="stroke:#000000;stroke-opacity:1">
	<g
   id="g3810"
   style="stroke:#000000;stroke-opacity:1">
		<g
   id="inc_00000178192265639469400910000016921981411599520130_"
   style="stroke:#000000;stroke-opacity:1">
			<path
   class="st2"
   d="M240.53,356.19c-4.29,1.55-6.68,6.1-5.33,10.14c1.35,4.04,5.93,6.07,10.23,4.51     c4.29-1.55,6.68-6.1,5.33-10.14C249.41,356.65,244.82,354.63,240.53,356.19L240.53,356.19z M100.39,315.09     c1.12,0,1.68,0.56,1.68,1.68v52.69c0,1.12-0.56,1.68-1.68,1.68H89.3c-1.12,0-1.68-0.56-1.68-1.68v-52.69     c0-1.12,0.56-1.68,1.68-1.68H100.39L100.39,315.09z M146.02,314.64c12.22,0,16.48,8.3,16.48,19.73v35.09     c0,1.12-0.56,1.68-1.68,1.68h-11.1c-1.12,0-1.68-0.56-1.68-1.68v-36.77c0-3.81-2.8-5.16-6.05-5.16h-1.35     c-4.82,0-8.3,2.02-9.53,4.04v37.89c0,1.12-0.56,1.68-1.68,1.68h-11.1c-1.12,0-1.68-0.56-1.68-1.68v-52.69     c0-1.12,0.56-1.68,1.68-1.68h11.1c1.12,0,1.68,0.56,1.68,1.68v4.93c1.68-2.8,5.94-7.06,14.24-7.06H146.02L146.02,314.64z      M188.73,292.67c1.12,0,1.68,0.56,1.68,1.68v38.9l15.92-16.82c0.67-0.78,1.68-1.35,2.58-1.35h11.55c1.46,0,2.8,1.68,0.78,3.81     l-16.7,17.94l19.51,31.28c0.67,1.23,0.56,3.03-1.35,3.03h-10.54c-1.46,0-2.8-0.45-3.7-2.02l-13.68-22.64l-4.37,4.37v18.61     c0,1.12-0.56,1.68-1.68,1.68h-11.1c-1.12,0-1.68-0.56-1.68-1.68v-75.11c0-1.12,0.56-1.68,1.68-1.68H188.73L188.73,292.67z      M92.67,295.34c-4.21,1.27-6.74,5.52-5.65,9.48c1.09,3.96,5.39,6.14,9.6,4.87c4.21-1.27,6.74-5.52,5.65-9.48     C101.18,296.24,96.88,294.06,92.67,295.34z"
   id="path3799"
   style="stroke:#000000;stroke-opacity:1" />
		</g>
		<g
   id="g3804"
   style="stroke:#000000;stroke-opacity:1">
			<path
   class="st2"
   d="M239.16,343.14l-2.44-0.02c-1.12,0-1.68-0.56-1.68-1.68v-47.08c0-1.12,0.56-1.68,1.68-1.68h11.43     c1.12,0,1.68,0.56,1.68,1.68l-0.01,1.59c-4.35,1.06-7.73,5.49-8.01,11.02c-0.22,4.44,1.63,8.46,4.55,10.73     c-2.18,1.48-3.77,3.98-4.17,6.97c-0.44,3.26,0.65,6.35,2.66,8.39c-2.03,0.89-3.88,2.71-4.93,5.12     C239.18,339.87,238.94,341.6,239.16,343.14L239.16,343.14z"
   id="path3802"
   style="stroke:#000000;stroke-opacity:1" />
		</g>
		<g
   id="g3808"
   style="stroke:#000000;stroke-opacity:1">
			<path
   class="st2"
   d="M242.69,339.33c-0.83,1.9-0.2,3.91,1.42,4.48c1.62,0.57,3.61-0.51,4.44-2.41c0.83-1.9,0.2-3.91-1.42-4.48     C245.51,336.35,243.52,337.43,242.69,339.33z M245.71,325.4c-0.56,2.95,1,5.71,3.47,6.17c2.47,0.46,4.93-1.56,5.48-4.5     c0.56-2.95-1-5.71-3.47-6.17C248.72,320.44,246.26,322.45,245.71,325.4z M245.09,308.04c-0.2,4.03,2.39,7.5,5.78,7.74     c3.39,0.24,6.3-2.84,6.49-6.87c0.2-4.03-2.39-7.5-5.78-7.74C248.2,300.93,245.29,304.01,245.09,308.04z"
   id="path3806"
   style="stroke:#000000;stroke-opacity:1" />
		</g>
	</g>
	<g
   id="g3816"
   style="stroke:#000000;stroke-opacity:1">
		<g
   id="g3814"
   style="stroke:#000000;stroke-opacity:1">
			<path
   class="st3"
   d="M215.82,387.42c-2.19,0-4.38-0.74-6.17-2.21l-1.84-1.51c-2.33-1.91-5.71-1.92-8.03,0l-1.84,1.51     c-3.58,2.94-8.77,2.94-12.34,0l-1.84-1.51c-2.33-1.92-5.71-1.92-8.03,0l-1.84,1.51c-3.58,2.94-8.77,2.94-12.34,0l-1.84-1.51     c-2.33-1.91-5.71-1.92-8.03,0l-1.84,1.51c-3.58,2.94-8.77,2.94-12.34,0l-1.84-1.51c-2.33-1.91-5.71-1.92-8.03,0l-1.84,1.51     c-3.58,2.94-8.77,2.94-12.34,0l-1.84-1.51c-2.33-1.92-5.71-1.92-8.03,0l-1.84,1.51c-3.58,2.94-8.77,2.94-12.34,0l-1.84-1.51     c-2.33-1.91-5.71-1.92-8.03,0c-0.72,0.6-1.79,0.49-2.39-0.23c-0.6-0.72-0.49-1.79,0.23-2.39c3.58-2.94,8.77-2.94,12.34,0     l1.84,1.51c2.33,1.91,5.71,1.92,8.03,0l1.84-1.51c3.58-2.94,8.77-2.94,12.34,0l1.84,1.51c2.33,1.91,5.71,1.92,8.03,0l1.84-1.51     c3.58-2.94,8.77-2.94,12.34,0l1.84,1.51c2.33,1.91,5.71,1.92,8.03,0l1.84-1.51c3.57-2.94,8.77-2.94,12.34,0l1.84,1.51     c2.33,1.91,5.71,1.92,8.03,0l1.84-1.51c3.58-2.94,8.77-2.94,12.34,0l1.84,1.51c2.33,1.92,5.71,1.92,8.03,0l1.84-1.51     c3.57-2.94,8.77-2.94,12.34,0l1.84,1.51c2.33,1.92,5.71,1.92,8.03,0l1.84-1.51c3.58-2.94,8.77-2.94,12.34,0l1.84,1.51     c2.33,1.91,5.71,1.92,8.03,0l1.84-1.51c3.57-2.94,8.77-2.94,12.34,0c0.72,0.59,0.83,1.66,0.23,2.39     c-0.59,0.72-1.66,0.83-2.39,0.23c-2.33-1.92-5.71-1.92-8.03,0l-1.84,1.51c-3.58,2.94-8.77,2.94-12.34,0l-1.84-1.51     c-2.33-1.92-5.71-1.92-8.03,0l-1.84,1.51C220.2,386.69,218.01,387.42,215.82,387.42z"
   id="path3812"
   style="stroke:#000000;stroke-opacity:1" />
		</g>
	</g>
</g>
<g
   id="g3964">
	<g
   id="g3896">
		<g
   id="g3822">
			<path
   class="st4"
   d="M182.5,121.98c42.7,40.87,2.89,94.03,2.89,94.03C180.35,181.36,181.22,120.76,182.5,121.98z"
   id="path3820" />
		</g>
		<g
   id="g3826">
			<path
   class="st4"
   d="M172.65,129.64c46.42,50.51-15.46,81.81-7.95,152.86c0.13,1.2-1.68,3.11-4.74-8.55     c-5.7-21.75,3.47-134.48,3.47-134.48L172.65,129.64z"
   id="path3824" />
		</g>
		<g
   id="g3830">
			<path
   class="st4"
   d="M140.95,127.25c-45.5,63.22,0.24,101.54,25.09,164.37c0.34,0.87,2.43,0.52,1.36-8.41     c-4.67-38.89-9.13-147.64-9.13-147.64L140.95,127.25z"
   id="path3828" />
		</g>
		<g
   id="g3834">
			<path
   class="st5"
   d="M156.52,124.67c-20.48,67.23,7.19,139.92,7.19,139.92c23.31-109.71,5.45-133.65,5.45-133.65L156.52,124.67z"
   id="path3832" />
		</g>
		<g
   id="g3860">
			<g
   id="g3838">
				<path
   class="st6"
   d="M161.85,289.66l0,0.05c-0.36,5.31-0.53,13.38-1.46,15.74c-0.92,2.36-2.47-3.87-3.22-8.99      c-8.21-56.17-44.84-110.6-16.85-169.13c0,0,27.71,7.29,22.42,13.8c-5.29,6.51-5.08,18.91-5.08,18.91      C159.09,191.28,165.09,242.3,161.85,289.66z"
   id="path3836" />
			</g>
			<g
   id="g3858">
				<g
   id="g3842">
					<path
   class="st4"
   d="M161.85,289.66c0.54-33.97-32.19-108.7-4.18-129.62C159.09,191.28,165.09,242.3,161.85,289.66z"
   id="path3840" />
				</g>
				<g
   id="g3856">
					<g
   id="g3846">
						<path
   class="st7"
   d="M159.49,190.47c0.5,8.36-3.06,13.82-6.4,9.82c-3.34-4-3.97-14.45-1.12-18.82        C154.81,177.11,158.99,182.1,159.49,190.47z"
   id="path3844" />
					</g>
					<g
   id="g3850">
						<path
   class="st7"
   d="M161.12,220.88c0.82,6.42-1.63,10.82-4.42,7.91c-2.79-2.91-3.82-10.94-1.85-14.45        C156.81,210.83,160.29,214.46,161.12,220.88z"
   id="path3848" />
					</g>
					<g
   id="g3854">
						<path
   class="st7"
   d="M163.97,247.73c0.27,6.54-2.02,10.73-4.12,7.54c-2.1-3.19-2.45-11.36-0.61-14.71        C161.06,237.21,163.69,241.19,163.97,247.73z"
   id="path3852" />
					</g>
				</g>
			</g>
		</g>
		<g
   id="g3864">
			<path
   class="st6"
   d="M197.54,188.48L197.54,188.48c-0.44,3.94-1.05,7.89-1.83,11.84c0,0.01,0,0.01,0,0.02     c-9.01,46.39-38.51,92.71-42.1,97.64c-0.06,0.08-0.11,0.16-0.16,0.22c-2.17,2.82-0.83-1.74,1.18-12.12l0-0.01     c0.43-2.21,0.89-4.68,1.35-7.41c1.57-9.32,4.55-32.6,8.17-47.51c10.05-41.36,1.66-84.17-6.88-90.66l26.45-11.26     C196.79,145.06,199.96,166.88,197.54,188.48z"
   id="path3862" />
		</g>
		<g
   id="g3868">
			<path
   class="st4"
   d="M195.71,200.34c-9.01,46.39-39.51,94.71-43.1,99.64c-0.06,0.08-0.11,0.16-0.16,0.22     c-2.17,2.82,0.17-3.74,2.18-14.12l0-0.01C171.28,236.17,181.87,248.12,195.71,200.34z"
   id="path3866" />
		</g>
		<g
   id="g3872">
			<path
   class="st7"
   d="M180.3,238.87c3.85-6.64,7.24-9.6,6.92-5.34c-0.32,4.25-4.09,12.53-7.63,14.92     C176.05,250.83,176.45,245.51,180.3,238.87z"
   id="path3870" />
		</g>
		<g
   id="g3876">
			<path
   class="st7"
   d="M174.42,264.4c-2.45,4.97-6.41,6.89-7.12,3.44s2.36-9.66,5.52-11.19     C175.99,255.12,176.88,259.42,174.42,264.4z"
   id="path3874" />
		</g>
		<g
   id="g3880">
			<path
   class="st7"
   d="M164.11,283.83c-1.86,3.93-5.12,5.4-5.87,2.64c-0.74-2.76,1.59-7.68,4.2-8.85S165.98,279.9,164.11,283.83z"
   id="path3878" />
		</g>
		<g
   id="g3894">
			<g
   id="g3884">
				<path
   class="st8"
   d="M189.6,266.27c-2.84,2.72-7.22,1.69-7.89-1.86s2.88-6.94,6.39-6.11      C191.6,259.12,192.44,263.55,189.6,266.27z"
   id="path3882" />
			</g>
			<g
   id="g3888">
				<path
   class="st8"
   d="M180.77,279.16c1.7,2.09,0.76,5.03-1.69,5.3c-2.46,0.27-4.59-2.34-3.83-4.7      C175.99,277.41,179.06,277.07,180.77,279.16z"
   id="path3886" />
			</g>
			<g
   id="g3892">
				<path
   class="st8"
   d="M137.61,289.19c2.33-2.23,5.84-1.47,6.32,1.36c0.48,2.83-2.43,5.61-5.24,5.01      C135.88,294.96,135.28,291.42,137.61,289.19z"
   id="path3890" />
			</g>
		</g>
	</g>
	<g
   id="g3958">
		<g
   id="g3900">
			<path
   class="st4"
   d="M187.75,62.18c19.71-13.64,12.34-39.08-21.23-55.96c-13.7-6.89-28.68-6.49-34.83-5.95     c-1.2,0.11-1.77,1.59-0.97,2.53c11.12,13.14,11.49,19.84,4.16,29.13c-7.29,9.24-12.99,18.91-11.3,25.81     c1.15,4.69,6.32,7.5,14.33,10.37C156.57,74.79,187.75,62.18,187.75,62.18z"
   id="path3898" />
		</g>
		<g
   id="g3904">
			<path
   class="st6"
   d="M195.27,87.04l-63.72,0.17c0,0,0.36-15.82,3.92-31.46c0,0,0.01-0.04,0.02-0.11c0-0.03,0.01-0.06,0.02-0.09     c3.42-17.02,8.82-29.48,12.07-39.44c0,0-7.92-8.04-6.24-9.8c1.69-1.75,29.02-0.3,42.59,35.84     C189.05,54.16,193.29,70.74,195.27,87.04z"
   id="path3902" />
		</g>
		<g
   id="g3908">
			
				<ellipse
   transform="matrix(0.9922 -0.1247 0.1247 0.9922 -12.3056 21.2283)"
   class="st6"
   cx="163.45"
   cy="108.93"
   rx="31.29"
   ry="30.27"
   id="ellipse3906" />
		</g>
		<g
   id="g3912">
			<path
   class="st6"
   d="M197.06,88.47c5.09,11.82-2.56,16.56-2.56,16.56c-23.23-1.4-31.05-17.78-31.05-17.78     c-12.99,17.78-30.99,17.78-30.99,17.78c-6.27-6.79-4.26-13.59-2.96-16.41c0.37-0.81,1.15-1.35,2.04-1.4     c15.26-0.91,31.93-17.11,31.93-17.11c10.29,12.19,27.13,16.07,31.8,16.94C196.07,87.19,196.74,87.72,197.06,88.47z"
   id="path3910" />
		</g>
		<g
   id="g3916">
			<path
   class="st4"
   d="M149.69,12.35c8.08,5.87,14.53,13.43,15.14,23.84c0.71,9.61-0.58,19-0.68,28.56c-0.02,0.88-1.38,0.92-1.4,0     c-0.33-9.42,0.8-19.02,0.08-28.36c-0.4-4.55-1.77-9.09-4.4-12.85c-2.53-3.82-6.12-7.11-9.6-10.08     C148.14,12.91,148.96,11.81,149.69,12.35L149.69,12.35z"
   id="path3914" />
		</g>
		<g
   id="g3920">
			<path
   class="st4"
   d="M164.17,69.6c5.86,7.77,13.99,14.33,23.75,16.13c2.17,0.41,4.55,0.63,6.7,0.45c1.1-0.09,1.3,1.56,0.18,1.72     c-10.49,1.06-20.62-4.25-27.58-11.79c-1.6-1.64-3.1-3.68-4.46-5.5c-0.29-0.38-0.22-0.92,0.16-1.21     C163.33,69.1,163.89,69.2,164.17,69.6L164.17,69.6z"
   id="path3918" />
		</g>
		<g
   id="g3924">
			<path
   class="st4"
   d="M159.78,74.47c-6.93,7.93-16.96,13.48-27.66,13.6c-1.14-0.04-1.11-1.74,0.04-1.73     c10.04-0.54,19.56-5.7,26.33-13.03C159.26,72.45,160.57,73.6,159.78,74.47L159.78,74.47z"
   id="path3922" />
		</g>
		<g
   id="g3928">
			<path
   class="st4"
   d="M133.52,104.26c10.82-2.53,22.04-7.23,28.42-16.77c0,0,0.33-0.53,0.33-0.53c0.56-0.85,1.96-0.79,2.45,0.08     c3.08,4.93,7.16,9.25,12.11,12.29c4.88,3.02,10.72,4.85,16.44,4.93c0.45-0.03,0.85,0.33,0.85,0.79c0,0.41-0.33,0.75-0.74,0.78     c-3.16,0.17-6.19-0.28-9.16-1.09c-8.99-2.34-16.57-8.69-21.5-16.42c0.28,0.51,1.15,0.58,1.5,0.04     c-3.16,5.08-7.94,9.01-13.1,11.92c-5.35,3.03-11.32,4.79-17.32,5.54C132.84,105.92,132.55,104.47,133.52,104.26L133.52,104.26z"
   id="path3926" />
		</g>
		<g
   id="g3938">
			<g
   id="g3932">
				<path
   class="st7"
   d="M186.52,59.37c0.77,3.61-0.02,6.84-1.77,7.22c-1.75,0.38-3.05-2.98-3.82-6.59      c-0.77-3.61-0.72-6.85,1.03-7.22C183.71,52.39,185.75,55.76,186.52,59.37z"
   id="path3930" />
			</g>
			<g
   id="g3936">
				
					<ellipse
   transform="matrix(0.9512 -0.3085 0.3085 0.9512 -5.6977 57.9912)"
   class="st7"
   cx="180.55"
   cy="47.01"
   rx="1.35"
   ry="1.56"
   id="ellipse3934" />
			</g>
		</g>
		<g
   id="g3952">
			<g
   id="g3942">
				<path
   class="st9"
   d="M169.9,110.91c1.09,5.6,10.32,5.23,11.62-0.05c0.24-1.25,2.09-0.94,1.9,0.32      c-0.67,6.45-9.9,8.42-13.93,3.78c-0.8-0.85-2.55-4.57-0.68-4.91C169.36,109.97,169.83,110.38,169.9,110.91L169.9,110.91z"
   id="path3940" />
			</g>
			<g
   id="g3946">
				<path
   class="st9"
   d="M158.49,111.12c-0.42,7.25-11.24,8.45-14.59,2.66c-0.42-0.96-1.66-3.31-0.08-3.73      c0.54-0.1,1.04,0.28,1.14,0.8c0.98,4.03,6.43,5.21,9.61,3.13c1.08-0.71,1.77-1.85,2.02-3.18      C156.85,109.61,158.63,109.91,158.49,111.12L158.49,111.12z"
   id="path3944" />
			</g>
			<g
   id="g3950">
				<path
   class="st9"
   d="M158.2,126.08l10.12,0.08c0.83,0.01,1.4-0.83,1.12-1.61c-2.16-5.96-10.1-5.95-12.34-0.1      C156.81,125.23,157.37,126.08,158.2,126.08z"
   id="path3948" />
			</g>
		</g>
		<g
   id="g3956">
			<path
   class="st4"
   d="M187.65,129.06c-8.51,12.47-26.29,15.97-38.69,7.22c-0.34-0.24-0.03-0.79,0.35-0.62     c13.52,5.6,27.45,3.62,37.79-7.05C187.39,128.29,187.91,128.72,187.65,129.06L187.65,129.06z"
   id="path3954" />
		</g>
	</g>
	<g
   id="g3962">
		<path
   class="st10"
   d="M177.97,119.78c-3.15,2.97-4.47,6.15-3.57,8.57c1.49,4.01,7.08,3.01,7.84-0.38    C182.78,125.54,181.36,122.3,177.97,119.78z"
   id="path3960" />
	</g>
</g>
</svg>
